<?xml version="1.0" standalone="no"?>
<!DOCTYPE svg PUBLIC "-//W3C//DTD SVG 20010904//EN"
 "http://www.w3.org/TR/2001/REC-SVG-20010904/DTD/svg10.dtd">
<svg version="1.0" xmlns="http://www.w3.org/2000/svg"
 width="800.000000pt" height="800.000000pt" viewBox="0 0 800.000000 800.000000"
 preserveAspectRatio="xMidYMid meet">
<metadata>
Created by potrace 1.16, written by Peter Selinger 2001-2019
</metadata>
<g transform="translate(0.000000,800.000000) scale(0.100000,-0.100000)"
fill="#000000" stroke="none">
<path d="M0 4000 l0 -4000 4000 0 4000 0 -1 1533 c-1 842 -4 1521 -8 1507 -5
-17 -14 -25 -29 -24 -13 0 -22 -5 -22 -14 0 -9 7 -13 20 -9 16 4 20 0 20 -19
0 -13 -4 -24 -10 -24 -5 0 -10 6 -10 13 0 14 -35 39 -44 30 -3 -4 -6 -18 -7
-32 0 -25 -1 -25 -10 -5 -8 15 -17 19 -40 16 -22 -3 -29 0 -29 12 0 9 -7 16
-15 16 -8 0 -15 5 -15 10 0 6 6 10 14 10 22 0 28 17 11 33 -13 13 -12 17 8 31
12 10 16 14 10 11 -9 -4 -13 3 -13 22 1 25 2 26 14 11 13 -18 42 -26 32 -9 -4
5 0 12 6 14 8 4 4 8 -9 12 -28 9 -29 16 -3 37 19 17 20 16 31 -24 9 -33 13
-39 20 -26 6 10 5 27 -1 43 -13 33 -13 38 0 30 6 -3 10 4 10 17 0 13 5 30 10
38 8 13 10 13 10 -1 0 -12 8 -16 25 -15 l25 1 0 2377 0 2378 -1417 0 c-1335 0
-1418 -1 -1437 -17 -20 -17 -20 -17 -7 0 13 16 -111 17 -2563 17 l-2576 0 0
-4000z m5007 3568 c-3 -7 -5 -2 -5 12 0 14 2 19 5 13 2 -7 2 -19 0 -25z m-70
-13 c8 -9 13 -19 10 -22 -10 -10 -37 6 -37 22 0 19 7 19 27 0z m-142 -26 c4
-5 12 -8 17 -7 13 5 62 -41 54 -50 -3 -3 -14 1 -23 9 -35 28 -63 39 -97 39
-44 0 -68 -9 -59 -23 3 -6 1 -7 -6 -3 -16 10 -111 -25 -111 -41 0 -7 -6 -13
-12 -13 -35 -1 -103 -113 -96 -160 2 -16 0 -26 -5 -23 -5 3 -6 -3 -3 -15 4
-11 2 -23 -4 -27 -11 -7 -115 -215 -109 -218 2 -1 30 -14 61 -29 50 -24 59
-26 72 -13 8 8 24 15 35 15 11 0 22 9 26 20 3 11 11 20 17 20 5 0 8 -7 4 -15
-4 -13 -2 -14 14 -5 17 9 20 8 20 -10 0 -29 48 -28 59 3 5 12 23 33 41 45 19
15 29 29 26 38 -3 9 -1 12 4 9 6 -3 13 1 16 9 8 20 20 20 28 0 3 -8 2 -13 -3
-10 -5 3 -21 -13 -36 -35 -14 -22 -29 -38 -32 -35 -10 9 -63 -111 -57 -128 4
-10 17 -15 38 -14 45 2 59 -8 46 -33 -13 -22 7 -35 40 -26 14 4 20 0 20 -12 0
-9 6 -23 13 -30 12 -14 10 -14 -34 3 -10 5 -20 -4 -32 -28 l-16 -35 33 -16
c26 -12 33 -21 30 -40 -1 -14 -10 -32 -19 -41 -15 -15 -17 -15 -29 1 -7 10
-18 15 -24 11 -5 -3 -13 0 -16 6 -3 9 -9 7 -20 -6 -34 -43 -25 -3 19 77 l46
86 -50 26 c-38 19 -51 22 -51 11 0 -17 -27 -29 -35 -16 -3 5 -2 18 4 28 7 14
5 21 -10 30 -26 17 -31 15 -24 -8 4 -11 2 -20 -4 -20 -6 0 -11 4 -11 10 0 13
-52 38 -67 33 -7 -3 -13 2 -13 11 0 22 -13 20 -28 -4 -7 -12 -18 -18 -24 -14
-6 4 -8 3 -5 -3 3 -5 24 -18 46 -28 22 -10 38 -22 35 -26 -3 -5 -14 -4 -24 1
-17 9 -21 6 -28 -22 -5 -18 -6 -35 -2 -38 4 -3 4 -13 1 -23 -6 -17 -8 -17 -20
-3 -7 9 -10 16 -5 16 5 0 9 12 10 28 0 15 4 35 8 44 5 12 1 20 -14 28 -28 15
-49 -3 -52 -43 -2 -27 -9 -33 -22 -19 -4 4 -12 8 -17 8 -5 1 -13 2 -19 3 -15
2 -12 27 5 41 8 7 12 17 8 23 -4 6 0 8 10 4 12 -5 17 -1 17 13 0 16 6 19 29
16 32 -3 39 0 59 26 12 15 8 20 -37 42 -27 14 -57 23 -65 20 -8 -3 -23 -29
-32 -57 -30 -93 -59 -113 -144 -96 -45 9 -63 9 -74 0 -11 -9 -15 -8 -20 4 -4
11 -13 14 -33 9 -43 -9 -83 -26 -83 -34 0 -5 -19 -18 -42 -29 -67 -32 -157
-108 -164 -137 -7 -28 39 -210 61 -240 11 -16 14 -15 33 4 28 28 30 27 28 -3
-1 -20 -6 -25 -28 -25 -16 0 -28 -5 -28 -12 0 -19 52 -212 60 -221 4 -4 33 28
66 72 41 57 62 77 70 70 8 -7 17 -4 28 7 16 15 16 17 -1 30 -17 13 -17 13 5
14 12 0 22 -6 22 -14 0 -8 3 -22 6 -31 5 -11 2 -15 -7 -13 -33 7 -20 -14 30
-51 l54 -41 25 35 c14 19 28 35 32 35 3 0 21 -11 40 -25 20 -15 41 -23 52 -19
25 8 23 -8 -4 -25 -18 -11 -22 -11 -29 2 -5 8 -20 22 -33 31 -24 15 -26 15
-47 -15 -16 -23 -19 -33 -10 -42 9 -9 14 -9 20 2 5 7 14 10 20 7 6 -4 11 0 11
8 0 9 -4 16 -10 16 -5 0 -10 5 -10 12 0 6 8 3 20 -7 11 -10 17 -22 14 -26 -3
-5 4 -9 15 -9 12 0 21 -6 22 -12 0 -10 2 -10 6 0 5 13 33 17 33 4 0 -13 -39
-32 -55 -26 -11 4 -15 0 -15 -16 0 -11 -4 -19 -9 -15 -5 3 -12 1 -16 -5 -3 -5
-11 -10 -16 -10 -6 0 -7 5 -4 10 4 6 1 17 -5 25 -10 13 -14 12 -27 0 -17 -17
-37 -20 -27 -4 3 6 0 15 -7 20 -11 7 -11 11 -1 17 9 7 8 13 -8 27 -20 18 -21
18 -41 -3 -23 -26 -29 -27 -29 -8 0 8 10 18 22 22 21 6 21 7 3 20 -15 11 -21
11 -33 1 -13 -10 -15 -9 -10 11 5 16 1 25 -13 33 -22 11 -43 3 -33 -13 4 -6 3
-9 -2 -6 -5 4 -28 -20 -51 -52 -39 -54 -41 -59 -23 -65 29 -9 24 -23 -5 -17
-15 2 -25 0 -25 -7 0 -6 9 -11 20 -11 11 0 20 -5 20 -11 0 -23 25 -1 31 27 6
27 6 28 15 8 7 -17 14 -20 32 -13 24 9 29 25 10 32 -10 3 -8 10 5 23 16 18 17
18 17 -5 0 -24 13 -25 64 -5 9 3 16 2 16 -2 0 -13 -60 -50 -95 -58 l-30 -8 24
-19 c29 -24 37 -24 44 1 3 11 12 20 21 20 21 0 20 -6 -4 -30 l-21 -21 28 -25
c22 -20 24 -24 8 -19 -11 4 -25 8 -32 8 -7 0 -10 4 -7 9 3 4 -9 8 -25 8 -17 0
-31 4 -31 9 0 5 -9 7 -21 4 -14 -4 -17 -9 -10 -16 6 -6 11 -19 11 -29 0 -12 8
-18 25 -18 18 0 23 -4 18 -16 -3 -8 -11 -13 -19 -10 -7 3 -25 -11 -39 -30 -32
-42 -46 -38 -16 4 12 17 21 35 21 41 0 18 -27 13 -34 -6 -6 -15 -8 -15 -16 -3
-7 11 -10 1 -10 -31 0 -76 11 -139 24 -131 11 6 16 8 35 11 5 0 26 24 46 52
34 48 35 52 18 66 -17 13 -16 14 7 9 22 -4 31 4 73 62 l47 67 -27 22 c-15 12
-24 25 -21 29 4 3 34 -15 67 -40 33 -25 62 -46 66 -46 15 0 44 46 39 62 -4 12
-1 16 8 13 17 -7 62 51 47 60 -7 5 -4 14 7 26 9 10 21 16 25 13 5 -3 9 2 9 11
0 10 5 13 11 9 7 -4 20 4 30 17 10 13 19 18 19 12 0 -7 7 -13 15 -13 8 0 15
-4 15 -10 0 -5 5 -10 11 -10 7 0 9 8 4 23 -4 12 -7 35 -7 50 1 15 -2 26 -6 23
-6 -4 -7 15 -3 57 2 14 21 7 21 -8 0 -8 5 -15 10 -15 7 0 7 -6 0 -20 -14 -26
-2 -73 17 -66 11 5 13 -1 9 -27 -5 -33 -5 -33 32 -30 34 3 35 2 12 -8 -14 -5
-35 -8 -47 -6 -13 2 -24 -2 -27 -9 -3 -8 1 -14 9 -14 7 0 17 -4 20 -10 9 -15
-4 -32 -18 -23 -22 14 -36 11 -30 -5 4 -10 2 -13 -5 -8 -18 11 -27 -22 -11
-40 11 -14 14 -12 28 13 15 27 16 27 19 5 2 -12 9 -22 15 -21 24 3 37 -1 37
-12 0 -6 -9 -8 -22 -3 -13 3 -20 3 -15 -2 7 -7 -30 -54 -43 -54 -4 0 -5 11 -3
24 4 19 -1 25 -26 34 -19 7 -31 7 -31 1 0 -12 -40 -52 -47 -46 -3 3 7 23 21
43 l26 38 -28 23 c-25 20 -28 21 -39 6 -10 -14 -10 -19 0 -26 8 -6 7 -7 -5 -3
-12 3 -26 -8 -48 -36 -37 -52 -38 -62 0 -85 17 -9 30 -21 30 -25 0 -5 -22 -41
-49 -81 -51 -75 -57 -103 -27 -132 20 -20 16 -41 -7 -37 -8 1 -18 -2 -22 -8
-3 -5 1 -10 9 -10 19 0 20 -9 5 -30 -8 -12 -12 -12 -16 -2 -7 18 -45 52 -57
52 -6 0 -17 -9 -24 -20 -7 -12 -8 -20 -2 -20 5 0 10 -7 10 -16 0 -8 -4 -12
-10 -9 -5 3 -10 -1 -10 -9 0 -9 -4 -16 -10 -16 -5 0 -10 5 -10 12 0 9 -3 9
-11 1 -19 -19 0 -33 47 -33 44 0 58 12 28 24 -9 4 -14 9 -11 13 4 3 14 0 23
-8 13 -11 18 -11 21 -1 3 6 10 12 15 12 6 0 8 -3 5 -6 -4 -4 3 -15 15 -25 18
-16 19 -19 4 -19 -10 0 -14 -5 -10 -11 4 -8 -3 -9 -27 -3 -38 8 -48 9 -104 5
-39 -3 -40 -3 -10 -11 17 -4 22 -8 11 -9 -15 -1 -16 -4 -6 -16 17 -21 29 -19
51 8 25 30 24 6 -1 -26 l-21 -26 26 -7 c14 -3 25 -12 25 -20 0 -8 7 -14 16
-14 8 0 12 -4 9 -10 -3 -5 1 -10 9 -10 10 0 13 6 10 15 -4 8 -1 15 5 15 6 0
11 -9 11 -21 0 -11 4 -17 10 -14 5 3 7 20 3 37 -4 22 -3 29 5 24 7 -4 12 -14
12 -22 0 -8 5 -14 10 -14 15 0 12 -16 -6 -34 -14 -15 -13 -16 6 -16 12 0 18 5
15 10 -3 6 -1 10 4 10 6 0 11 -4 11 -10 0 -16 32 -11 46 8 13 16 13 16 14 -1
0 -17 3 -17 38 4 51 30 102 80 102 98 0 14 -1 14 -10 1 -6 -10 -10 -11 -10 -2
0 6 -5 12 -11 12 -5 0 -7 -4 -4 -10 3 -5 1 -10 -4 -10 -6 0 -11 5 -11 10 0 6
-7 10 -16 10 -8 0 -12 5 -8 11 3 6 19 9 35 5 33 -6 36 0 12 26 -14 16 -15 21
-4 27 25 16 0 31 -50 31 -38 0 -49 -4 -49 -16 0 -9 5 -12 12 -8 8 5 9 2 5 -9
-4 -11 -1 -17 9 -17 8 0 13 -4 10 -9 -4 -5 0 -12 6 -14 8 -4 7 -6 -4 -6 -9 -1
-19 5 -21 12 -3 6 -6 2 -6 -10 -1 -13 -5 -23 -10 -23 -4 0 -12 37 -16 82 -4
46 -12 86 -18 90 -9 6 -9 8 1 8 8 0 13 17 13 48 2 38 4 31 12 -35 8 -71 13
-83 28 -83 11 0 19 5 19 10 0 6 7 10 15 10 8 0 15 -4 15 -10 0 -5 7 -10 16
-10 11 0 14 5 10 16 -3 9 -6 19 -6 24 0 4 -9 6 -21 3 -21 -6 -39 10 -39 34 0
10 6 10 24 2 20 -9 29 -7 55 11 16 13 28 27 25 32 -3 5 0 7 7 6 7 -2 14 6 16
17 3 14 2 16 -5 7 -7 -11 -12 -11 -25 2 -8 9 -25 16 -37 16 -12 0 -19 4 -16 9
4 5 27 9 52 9 26 0 51 5 57 11 8 8 2 10 -22 5 -23 -5 -36 -3 -41 7 -7 11 -12
10 -28 -4 -23 -21 -29 -21 -48 -3 -16 17 -19 30 -4 21 13 -8 13 11 0 34 -6 13
-5 24 5 37 9 11 14 14 15 6 0 -8 8 -10 26 -6 20 5 25 3 22 -7 -3 -8 -17 -13
-31 -12 -24 1 -25 0 -15 -23 8 -17 17 -23 29 -19 9 3 20 1 24 -5 3 -6 10 -8
14 -5 5 2 21 1 37 -4 21 -6 37 -3 59 11 28 16 28 18 8 18 -13 0 -23 5 -23 10
0 6 9 10 21 10 18 0 20 4 14 31 -5 22 -4 29 4 25 7 -5 11 1 11 14 0 30 18 60
36 60 11 0 13 6 8 22 -6 20 -5 21 10 9 14 -11 16 -11 16 2 0 8 7 20 15 27 13
11 22 9 50 -6 32 -17 33 -19 14 -26 -28 -11 -18 -33 15 -31 30 2 30 2 14 -32
-6 -14 -18 -26 -27 -26 -13 -1 -13 -2 2 -6 26 -7 21 -23 -8 -23 -19 0 -25 5
-25 22 0 23 -12 17 -16 -8 -1 -8 9 -19 22 -25 14 -5 22 -13 19 -19 -4 -6 -16
-5 -34 5 -27 13 -30 13 -47 -8 -16 -18 -16 -20 -1 -8 20 16 23 -1 3 -19 -8 -6
-13 -17 -10 -24 3 -8 -2 -20 -10 -29 -9 -9 -16 -24 -16 -35 0 -11 -9 -22 -20
-25 -13 -3 -20 -13 -19 -29 l0 -23 9 23 c5 12 15 22 22 22 8 0 22 15 32 34 13
25 23 32 37 29 13 -4 19 0 19 12 0 17 1 17 18 2 10 -10 26 -17 35 -17 9 0 17
-4 17 -9 0 -5 -8 -7 -18 -4 -35 9 -83 -11 -100 -42 -9 -17 -20 -31 -24 -33 -5
-2 -8 -10 -8 -18 0 -8 -6 -13 -12 -12 -8 2 -12 -6 -10 -21 1 -17 -2 -22 -13
-17 -8 3 -15 1 -15 -4 0 -6 44 -9 110 -7 61 1 110 -1 110 -4 0 -9 -148 -21
-160 -14 -17 10 -51 -31 -57 -68 -5 -33 -4 -35 16 -30 12 3 21 1 21 -6 0 -6
-8 -11 -17 -12 -57 -4 -58 -4 -61 -34 l-2 -30 14 25 c16 28 12 27 101 29 l65
1 -6 28 -5 27 20 -24 21 -23 0 36 c0 27 -3 34 -15 30 -8 -4 -15 -2 -15 4 0 5
7 13 16 16 25 10 102 7 109 -4 4 -6 -12 -10 -40 -10 -44 0 -47 -2 -41 -23 12
-51 8 -152 -9 -184 -22 -44 -66 -73 -108 -73 -38 0 -59 -16 -30 -22 21 -4 83
14 83 24 0 3 14 1 30 -5 17 -6 30 -15 30 -19 0 -4 17 -11 38 -14 22 -3 39 -12
39 -19 0 -10 -7 -11 -25 -4 -30 11 -47 2 -31 -17 9 -11 7 -14 -12 -15 -13 0
-32 -2 -41 -4 -12 -2 -18 3 -18 16 0 13 -4 18 -12 13 -6 -4 -34 -8 -62 -9 -37
-1 -53 -7 -67 -23 -9 -12 -26 -22 -37 -22 -11 0 -36 -7 -56 -15 -32 -14 -35
-18 -26 -35 13 -24 43 -26 60 -5 17 20 37 19 49 -2 9 -17 11 -17 24 2 8 10 13
24 10 31 -4 11 62 26 72 16 2 -2 -15 -19 -38 -36 -34 -26 -41 -37 -39 -59 2
-15 -1 -27 -7 -27 -6 0 -10 5 -9 11 2 6 -19 18 -46 26 -46 14 -51 13 -63 -3
-7 -10 -13 -12 -13 -6 0 7 -16 12 -43 12 -37 0 -46 -4 -55 -25 -7 -14 -12 -32
-12 -40 0 -7 -6 -15 -12 -18 -31 -11 5 -13 96 -6 64 5 102 12 107 21 7 10 11
10 21 0 7 -7 8 -15 3 -21 -12 -11 -101 -23 -180 -25 l-60 -1 2 -70 c1 -38 2
-82 2 -97 l1 -28 88 -1 c76 -1 81 -2 42 -10 -25 -4 -64 -8 -87 -8 -37 -1 -43
-4 -43 -22 0 -19 4 -21 40 -16 22 3 40 1 40 -4 0 -5 -7 -9 -15 -9 -9 0 -12 -6
-9 -15 4 -10 20 -15 47 -15 40 0 41 -1 20 -15 -12 -8 -29 -12 -39 -8 -15 6
-15 4 2 -13 12 -13 22 -16 26 -10 4 6 10 7 14 3 11 -10 -6 -23 -38 -31 -27 -6
-28 -5 -28 34 0 37 -2 40 -26 40 l-27 0 6 -72 5 -73 -51 -1 c-135 -1 -207 -7
-213 -15 -3 -5 4 -9 15 -9 29 0 26 -23 -5 -37 -28 -13 -44 -9 -44 10 0 7 4 6
10 -3 8 -12 10 -10 10 10 0 24 -3 25 -55 26 -30 0 -55 -4 -55 -8 0 -4 6 -8 13
-8 8 0 7 -4 -3 -10 -11 -7 -5 -10 25 -10 30 0 36 -3 27 -12 -7 -7 -12 -20 -12
-30 0 -15 9 -18 54 -18 30 0 58 4 61 10 9 15 32 12 38 -4 5 -12 -10 -16 -74
-22 -64 -5 -79 -10 -75 -21 3 -8 6 -26 6 -39 0 -17 6 -24 19 -24 11 0 23 -5
27 -12 5 -8 2 -9 -9 -5 -12 5 -17 1 -17 -13 0 -15 7 -20 26 -20 23 0 25 3 20
25 -4 14 -2 25 4 25 5 0 10 -11 10 -25 0 -20 5 -25 25 -25 21 0 25 5 25 31 0
17 4 28 10 24 6 -3 10 -19 10 -34 0 -27 -3 -29 -52 -35 -90 -10 -98 -9 -98 19
0 20 -5 25 -25 25 -25 0 -26 -3 -24 -49 2 -43 5 -48 23 -44 20 4 20 4 4 -10
-26 -20 -24 -50 2 -42 11 4 20 2 20 -4 0 -6 -9 -11 -20 -11 -11 0 -20 -7 -20
-15 0 -8 -4 -15 -10 -15 -5 0 -10 16 -10 36 0 35 -1 36 -30 31 -17 -4 -30 -2
-30 3 0 6 14 10 30 10 27 0 30 3 30 33 0 56 -10 77 -36 77 -16 0 -24 -6 -24
-17 -1 -16 -2 -16 -13 -3 -8 10 -26 14 -59 12 -46 -3 -48 -5 -48 -33 0 -16 -4
-29 -10 -29 -5 0 -10 14 -10 30 0 24 -4 30 -21 30 -13 0 -23 -10 -30 -30 -13
-36 -33 -40 -27 -5 4 19 1 25 -13 25 -16 0 -19 -8 -19 -45 0 -35 4 -45 16 -45
12 0 14 -5 9 -17 -16 -36 -29 -93 -23 -98 3 -3 35 -3 72 1 46 5 66 11 66 20 0
8 5 14 11 14 6 0 9 -7 5 -15 -5 -14 14 -21 26 -9 10 10 148 15 148 5 0 -5 -33
-12 -72 -15 -40 -3 -97 -9 -125 -12 l-53 -6 0 -58 c0 -40 4 -57 13 -56 6 0 12
-3 12 -9 0 -5 -6 -9 -12 -9 -7 1 -13 -2 -13 -6 0 -10 63 -26 120 -29 13 -1 13
-3 0 -10 -8 -6 -18 -7 -22 -5 -4 3 -8 0 -8 -5 0 -17 -24 -13 -48 9 -28 26 -32
25 -32 -5 0 -14 -6 -25 -13 -25 -6 0 -18 -14 -26 -31 -10 -22 -16 -27 -22 -18
-4 8 -3 20 3 29 7 8 -8 -4 -32 -27 l-43 -41 24 -49 c14 -29 25 -42 27 -32 2
10 13 17 28 17 17 0 23 -5 20 -14 -4 -10 6 -12 46 -7 37 5 49 3 44 -5 -4 -7
-16 -12 -26 -12 -10 0 -21 -6 -23 -12 -4 -10 -8 -9 -17 2 -8 12 -9 9 -4 -14 5
-20 3 -27 -4 -22 -6 3 -13 2 -17 -4 -6 -10 7 -14 33 -11 6 1 12 -3 12 -10 0
-7 -10 -9 -24 -7 -17 4 -23 1 -19 -9 10 -26 63 -11 63 18 0 10 5 19 10 19 6 0
10 -9 10 -19 0 -11 9 -23 20 -26 11 -4 34 -18 50 -32 23 -19 34 -22 44 -14 10
8 20 6 40 -10 32 -25 36 -53 6 -44 -12 4 -26 0 -35 -9 -22 -22 -18 -32 5 -11
23 21 31 17 24 -11 -4 -14 -15 -21 -40 -22 -33 -3 -81 14 -71 25 3 2 15 -1 28
-7 19 -11 21 -10 16 4 -4 10 -1 19 8 22 19 8 19 30 0 38 -8 3 -15 2 -15 -2 0
-4 -14 -8 -32 -9 -37 -3 -64 -23 -30 -23 23 0 32 -19 10 -21 -10 0 -10 -2 0
-6 11 -4 18 -33 7 -33 -3 0 -15 10 -27 22 -28 28 -32 65 -7 73 10 4 19 13 19
21 0 8 5 14 10 14 6 0 10 -7 10 -15 0 -8 7 -15 17 -15 14 0 14 2 -3 21 -30 33
-60 41 -97 24 -18 -8 -22 -12 -9 -9 19 5 22 1 22 -25 0 -39 -14 -39 -37 -1
-12 21 -25 30 -44 30 -34 0 -49 39 -18 47 27 8 24 30 -11 65 -16 16 -30 35
-30 41 0 7 -7 20 -14 30 -12 15 -14 15 -19 3 -4 -9 1 -23 10 -31 15 -15 15
-19 0 -51 -9 -19 -21 -34 -26 -34 -5 0 -11 -8 -14 -17 -4 -10 -14 -28 -23 -41
-16 -22 -16 -22 30 -22 25 0 46 -4 46 -10 0 -5 -20 -10 -44 -10 -25 0 -47 -3
-49 -7 -9 -15 -9 -198 0 -238 7 -36 12 -40 41 -43 33 -3 45 14 17 24 -8 4 -15
11 -15 16 0 6 6 6 14 -1 11 -9 15 -9 18 0 9 27 26 -3 21 -36 -4 -23 -2 -35 6
-35 6 0 11 -4 11 -10 0 -5 -9 -10 -20 -10 -12 0 -20 7 -20 16 0 14 -3 14 -15
4 -12 -10 -18 -10 -30 0 -12 10 -16 9 -21 -5 -4 -9 -2 -20 3 -24 15 -9 26 -51
14 -51 -5 0 -12 8 -15 18 -3 9 -3 -3 -1 -28 2 -25 4 -49 4 -54 1 -5 8 -3 16 4
8 7 12 16 9 21 -3 5 0 9 5 9 10 0 12 -6 15 -42 1 -7 -7 -12 -16 -10 -10 2 -18
-2 -18 -8 0 -5 7 -10 15 -10 8 0 15 -7 15 -15 0 -18 -26 -20 -34 -2 -3 6 -5
-17 -3 -53 l2 -64 -49 3 c-42 2 -48 0 -42 -14 3 -9 6 -32 6 -51 0 -22 5 -34
14 -34 8 0 14 -11 14 -27 -1 -26 -1 -26 -15 -7 -14 18 -14 17 -8 -13 3 -18 2
-34 -4 -38 -7 -4 -11 5 -11 24 0 59 -31 86 -45 39 -4 -13 -17 -37 -30 -53 -12
-17 -26 -46 -30 -65 -10 -49 -30 -77 -68 -96 -17 -9 -35 -23 -40 -30 -4 -7
-13 -11 -21 -8 -19 7 -32 -15 -40 -64 -6 -38 -4 -43 11 -40 10 2 20 8 23 14 3
7 13 8 25 3 18 -7 19 -8 1 -8 -13 -1 -17 -6 -13 -21 3 -11 1 -20 -4 -20 -5 0
-9 3 -9 8 0 4 -14 7 -31 7 -28 0 -30 -3 -26 -27 2 -16 0 -28 -4 -28 -9 0 -23
32 -20 47 3 19 -36 16 -43 -3 -10 -27 -7 -44 9 -44 8 0 15 -5 15 -11 0 -7 12
-9 35 -5 35 7 35 7 30 -25 -3 -18 -8 -36 -11 -41 -11 -17 -24 -7 -24 17 0 18
-7 28 -26 35 -34 13 -34 13 -34 -10 0 -14 5 -18 16 -13 14 5 16 1 12 -21 -3
-14 -1 -29 3 -32 5 -3 9 -18 9 -34 0 -23 5 -30 30 -35 16 -3 40 -15 54 -26 27
-21 49 -17 75 14 6 8 20 13 30 10 10 -3 22 0 25 6 4 6 23 11 42 11 27 0 34 -4
34 -20 0 -11 5 -20 10 -20 6 0 10 -6 10 -14 0 -9 20 -19 51 -27 28 -7 60 -23
73 -35 35 -35 54 -117 62 -259 6 -124 5 -131 -15 -149 -27 -25 -27 -51 1 -70
26 -19 18 -32 -10 -17 -12 6 -39 11 -61 11 -23 0 -41 5 -41 10 0 6 15 10 33
10 25 0 34 4 34 18 -1 9 0 33 2 52 2 33 3 34 16 16 15 -20 15 -20 29 27 9 33
-15 238 -34 290 -18 47 -26 57 -55 67 -19 6 -44 8 -56 5 -17 -6 -21 -4 -16 8
4 11 -3 17 -26 21 -23 5 -28 9 -18 15 10 7 10 12 -5 30 -23 26 -44 27 -44 1 0
-17 -3 -18 -24 -9 -20 10 -29 8 -52 -10 -34 -27 -38 -26 -98 4 -27 14 -55 25
-63 25 -8 0 -13 12 -13 34 0 19 -4 37 -8 40 -5 3 -6 -8 -4 -25 3 -17 0 -29 -7
-29 -6 0 -11 9 -11 20 0 22 -1 23 -24 14 -12 -5 -15 -18 -11 -62 12 -156 14
-212 6 -212 -8 0 -20 102 -26 230 -10 212 -18 306 -28 312 -8 5 -8 10 0 20 6
8 7 21 2 33 -7 18 -8 18 -8 2 -1 -10 -5 -16 -10 -13 -30 19 -31 -61 -3 -221 5
-29 5 -53 1 -53 -5 0 -9 3 -9 8 -1 4 -5 27 -10 52 -26 122 -27 206 -2 229 9 9
23 33 30 54 12 33 12 41 -2 62 -9 14 -20 25 -25 25 -15 0 -23 51 -10 67 9 10
12 47 11 109 -1 76 2 94 13 94 8 0 15 -7 15 -15 0 -20 17 -19 29 3 9 15 10 15
11 -4 0 -15 -8 -24 -25 -28 -14 -4 -25 -11 -25 -16 0 -13 13 -13 26 -1 5 6 22
12 37 15 16 3 34 9 40 15 8 6 21 5 37 -4 24 -14 24 -14 3 -15 -12 0 -24 6 -26
13 -4 8 -6 7 -6 -4 -1 -16 -39 -42 -57 -39 -5 1 -19 -1 -31 -5 -17 -6 -22 -17
-26 -58 -3 -29 -9 -67 -12 -85 -8 -37 5 -41 51 -17 16 8 37 15 47 15 11 0 17
8 17 24 0 23 -4 25 -41 23 -22 -2 -43 1 -45 5 -3 4 13 8 36 8 43 0 45 2 55 63
9 54 26 46 18 -9 -5 -41 -4 -46 13 -42 26 5 45 47 33 70 -8 15 -6 18 15 18 25
0 25 -1 10 -35 -16 -39 -19 -69 -3 -42 12 20 38 23 41 5 0 -7 4 16 7 52 5 41
3 68 -4 72 -9 7 -1 12 17 9 10 -1 21 64 16 99 -3 17 -1 30 4 30 5 0 6 5 3 10
-3 6 2 10 11 10 10 0 15 3 12 6 -15 15 81 99 150 131 71 33 94 55 76 73 -14
14 -113 21 -135 9 -11 -6 -29 -12 -40 -14 -11 -2 -34 -16 -50 -30 -17 -14 -35
-25 -40 -25 -13 0 -11 18 4 23 8 3 5 12 -10 29 -28 30 -29 38 -3 31 11 -3 18
-9 15 -13 -3 -4 2 -13 10 -20 11 -9 18 -10 29 -1 17 14 -1 81 -20 74 -24 -9
-42 39 -39 107 5 110 19 164 37 139 7 -11 18 -4 48 30 22 24 40 38 40 31 0 -6
-25 -36 -55 -66 -54 -54 -55 -55 -52 -109 1 -34 6 -55 14 -55 6 0 13 4 15 10
2 5 29 12 61 16 52 6 57 5 57 -12 0 -11 -9 -30 -20 -44 -11 -14 -20 -30 -20
-37 0 -7 -8 -17 -17 -22 -10 -6 -12 -11 -6 -11 7 0 18 9 25 20 7 11 22 20 33
20 23 0 85 35 85 49 0 5 8 8 18 7 13 -1 18 8 20 43 l3 43 -35 -6 c-20 -4 -36
-3 -36 2 0 6 20 13 44 16 28 5 46 13 50 24 6 16 19 38 59 95 21 29 16 47 -14
47 -12 0 -19 5 -16 13 2 6 10 11 16 10 6 -2 11 4 11 13 0 14 -10 15 -80 9 -56
-5 -80 -4 -80 4 0 7 22 11 55 11 32 0 55 4 55 11 0 5 -4 7 -10 4 -5 -3 -10 -1
-10 4 0 6 -8 11 -17 11 -17 1 -17 2 -1 13 32 25 5 40 -61 35 -33 -2 -64 -7
-68 -11 -3 -4 -2 -44 4 -90 5 -45 8 -84 6 -86 -13 -16 -25 30 -32 125 -4 60
-9 97 -10 82 -2 -38 -21 -36 -21 2 0 17 -4 30 -9 30 -5 0 -2 -33 5 -72 16 -85
16 -88 7 -88 -5 0 -16 39 -25 88 -10 48 -21 97 -24 110 -4 13 -2 22 5 22 6 0
11 -9 11 -20 0 -11 7 -20 15 -20 23 0 18 34 -7 45 -28 13 -39 51 -40 148 0 50
-4 77 -12 77 -7 0 -7 3 1 8 15 10 19 63 9 117 -5 29 -5 36 3 25 9 -12 11 -8
11 16 0 30 -30 60 -30 31 -1 -24 -41 101 -71 221 -17 67 -35 122 -40 122 -4 0
-6 7 -3 15 3 8 -1 47 -9 87 -9 40 -18 99 -21 130 -3 32 -15 75 -26 96 -11 21
-21 57 -23 80 -1 23 -5 42 -9 42 -4 0 -7 8 -7 18 0 9 -5 43 -11 76 -7 40 -7
75 0 114 13 71 13 70 -7 75 -14 4 -13 5 4 6 16 1 26 13 38 46 10 24 15 51 12
59 -4 9 1 17 13 21 10 3 21 16 24 29 12 50 18 167 11 239 -6 65 -10 77 -27 83
-12 3 -24 1 -28 -6 -8 -13 -30 -6 -30 9 0 4 13 21 28 38 21 22 34 27 48 22 10
-4 32 -8 47 -8 16 -1 26 -5 22 -10 -3 -5 -1 -12 5 -16 6 -4 10 15 10 53 0 32
3 61 6 64 3 3 21 1 40 -5 25 -8 34 -16 34 -32 0 -24 -17 -118 -26 -147 -3 -12
0 -18 10 -18 9 0 16 -5 16 -11 0 -6 -9 -8 -20 -4 -14 5 -20 2 -20 -9 0 -9 -4
-16 -10 -16 -5 0 -10 -18 -10 -40 0 -23 5 -40 11 -40 6 0 9 -9 6 -20 -3 -13 0
-20 10 -20 8 0 11 -5 8 -11 -4 -6 -13 -8 -21 -5 -10 4 -14 -4 -14 -29 0 -24 5
-35 15 -35 8 0 15 5 15 10 0 6 -4 10 -10 10 -5 0 -7 7 -4 15 10 24 21 17 26
-14 4 -24 0 -31 -18 -35 -13 -4 -26 -15 -29 -26 -8 -26 4 -100 16 -100 5 0 9
-8 9 -19 0 -10 11 -26 25 -35 33 -22 38 -20 31 9 -5 19 -2 25 9 25 12 0 15 -6
10 -20 -8 -25 -4 -25 43 -1 55 28 117 42 181 42 74 -1 111 7 111 25 0 16 26
19 35 4 3 -5 -2 -11 -12 -11 -10 -1 9 -5 42 -9 81 -9 98 -1 115 52 14 45 36
78 53 78 6 0 3 -8 -6 -18 -10 -10 -17 -27 -17 -38 0 -11 -7 -29 -15 -40 -8
-10 -15 -28 -15 -39 0 -11 -5 -27 -11 -35 -9 -12 -10 -10 -6 8 4 18 3 21 -7
13 -7 -6 -15 -9 -18 -6 -3 3 -17 -6 -32 -20 -22 -20 -28 -22 -32 -10 -4 8 -14
15 -23 16 -13 0 -12 2 4 10 18 8 18 8 -4 6 -24 -2 -38 -31 -21 -42 4 -3 6 -23
3 -45 -6 -43 -6 -43 60 -43 17 0 27 -5 27 -14 0 -8 -4 -11 -10 -8 -11 7 -14
-106 -4 -167 5 -28 11 -38 25 -38 16 0 19 8 19 49 0 34 -4 51 -15 55 -8 3 -15
10 -15 16 0 6 5 8 10 5 6 -4 10 15 10 49 0 31 5 56 10 56 6 0 10 -20 10 -44 0
-51 8 -78 21 -70 5 3 9 -2 9 -10 0 -9 -4 -16 -10 -16 -5 0 -10 -18 -10 -40 0
-36 3 -40 25 -40 26 0 34 15 13 23 -9 4 -10 8 -2 14 6 4 14 15 17 23 4 12 6
11 6 -2 1 -10 6 -18 12 -18 6 0 8 -9 4 -20 -6 -18 -2 -20 39 -20 41 0 46 2 46
23 1 20 2 21 14 5 7 -10 25 -18 40 -18 l27 0 -6 88 c-3 48 -8 97 -11 110 -4
18 0 22 21 22 22 0 25 4 20 20 -5 14 -2 20 10 20 11 0 15 7 13 23 -2 15 -9 21
-21 19 -10 -2 -25 2 -32 8 -11 9 -15 7 -21 -14 -3 -14 -3 -37 0 -50 3 -14 1
-28 -5 -32 -8 -5 -10 12 -7 60 2 36 1 66 -2 66 -3 0 -18 -24 -33 -53 -35 -65
-55 -92 -63 -84 -4 3 8 30 26 59 18 29 44 73 57 97 l25 43 -62 -7 c-45 -5 -61
-4 -56 4 4 6 16 11 26 11 10 0 31 5 47 12 15 6 35 10 42 9 12 -2 13 0 2 13 -7
8 -10 20 -6 26 14 22 -8 31 -27 10 -16 -17 -23 -19 -34 -9 -8 7 -13 18 -10 25
3 7 1 16 -4 19 -16 10 -11 36 6 33 9 -2 23 7 31 20 9 12 11 22 5 22 -5 0 -12
-10 -16 -22 -5 -18 -8 -20 -15 -9 -7 10 -12 8 -25 -10 -9 -13 -16 -32 -16 -42
0 -11 -5 -17 -12 -14 -9 2 -12 23 -10 68 l2 64 -45 33 c-56 40 -75 48 -75 31
0 -42 -25 -91 -70 -136 -53 -54 -59 -71 -35 -116 13 -26 13 -28 -3 -25 -13 2
-18 15 -20 56 -3 51 -2 53 47 98 46 42 52 53 67 120 9 41 20 74 25 74 5 0 14
11 19 25 6 17 17 25 33 25 30 0 40 10 26 26 -8 9 -7 23 3 49 11 33 11 38 -4
49 -9 7 -20 25 -24 42 -3 16 -19 50 -35 75 -16 25 -29 53 -29 63 0 9 -5 37
-11 62 -10 39 -14 44 -40 44 -16 0 -29 3 -29 8 0 4 -3 17 -6 30 -4 13 -2 22 5
22 6 0 11 -9 11 -20 0 -13 7 -20 20 -20 24 0 24 0 3 97 -12 55 -14 78 -5 81 8
2 8 10 0 27 -8 18 -7 28 6 46 9 13 16 32 16 42 0 10 4 16 9 12 5 -3 12 -1 16
5 8 13 165 124 205 145 33 17 114 16 212 -1 49 -9 82 13 98 63 16 51 33 87
100 223 36 74 59 134 64 169 8 62 24 90 82 148 67 68 247 129 269 92z m221
-39 c8 0 14 -7 14 -15 0 -8 4 -15 9 -15 5 0 11 7 15 15 3 8 10 15 16 15 12 0
-4 -36 -25 -57 -10 -9 -15 -6 -26 15 -17 32 -30 43 -43 35 -5 -3 -1 -12 9 -19
16 -12 16 -17 5 -44 -15 -35 -25 -38 -33 -9 -9 32 1 80 20 102 18 19 18 19 21
-2 2 -11 10 -21 18 -21z m-79 -123 c-4 -29 -32 -80 -52 -97 -27 -23 -25 -6 5
40 17 25 30 55 30 68 0 13 4 20 10 17 6 -4 9 -16 7 -28z m53 -18 c0 -17 -20
-49 -30 -49 -6 0 -10 9 -10 21 0 11 5 17 10 14 6 -3 10 1 10 9 0 9 5 16 10 16
6 0 10 -5 10 -11z m-152 -21 c19 -19 14 -29 -8 -16 -20 13 -27 28 -12 28 4 0
13 -5 20 -12z m22 -91 c0 -7 -5 -18 -11 -24 -8 -8 -4 -15 12 -27 28 -19 19
-32 -11 -16 -20 11 -25 9 -46 -16 -13 -16 -23 -33 -24 -37 0 -5 -4 -5 -10 -2
-6 4 0 21 14 42 14 19 22 42 19 49 -3 8 1 14 11 14 9 0 19 7 22 15 7 18 24 20
24 2z m-530 -37 c0 -5 -4 -10 -9 -10 -5 0 -23 -3 -40 -6 -19 -4 -31 -2 -31 4
0 9 17 14 68 21 6 0 12 -3 12 -9z m-55 -40 c3 -5 -1 -10 -9 -10 -9 0 -16 5
-16 10 0 6 4 10 9 10 6 0 13 -4 16 -10z m-672 -264 c4 4 7 0 7 -9 0 -10 -8
-17 -20 -17 -16 0 -20 7 -20 33 1 31 1 31 13 9 7 -12 16 -19 20 -16z m797 24
c0 -5 -7 -10 -15 -10 -8 0 -15 5 -15 10 0 6 7 10 15 10 8 0 15 -4 15 -10z
m-840 -21 c0 -11 -4 -17 -10 -14 -5 3 -10 13 -10 21 0 8 5 14 10 14 6 0 10 -9
10 -21z m2070 -54 c0 -28 -28 -42 -37 -18 -4 9 -1 19 5 21 7 2 12 10 12 18 0
9 5 12 10 9 6 -3 10 -17 10 -30z m-2055 5 c3 -5 1 -10 -4 -10 -6 0 -11 5 -11
10 0 6 2 10 4 10 3 0 8 -4 11 -10z m1125 -75 c0 -8 0 -18 0 -22 0 -5 -5 -8
-10 -8 -6 0 -15 -7 -20 -15 -18 -29 -22 -1 -4 29 20 33 34 40 34 16z m-370
-45 c0 -5 -4 -10 -10 -10 -5 0 -10 5 -10 10 0 6 5 10 10 10 6 0 10 -4 10 -10z
m70 -10 c0 -5 -4 -10 -10 -10 -5 0 -10 5 -10 10 0 6 5 10 10 10 6 0 10 -4 10
-10z m370 0 c0 -5 -4 -10 -10 -10 -5 0 -10 5 -10 10 0 6 5 10 10 10 6 0 10 -4
10 -10z m35 -20 c-3 -5 -13 -10 -21 -10 -8 0 -12 5 -9 10 3 6 13 10 21 10 8 0
12 -4 9 -10z m-305 -4 c0 -3 -4 -8 -10 -11 -5 -3 -10 -1 -10 4 0 6 5 11 10 11
6 0 10 -2 10 -4z m-145 -17 c11 -17 0 -20 -21 -4 -17 13 -17 14 -2 15 9 0 20
-5 23 -11z m180 -9 c3 -5 -1 -10 -9 -10 -9 0 -16 5 -16 10 0 6 4 10 9 10 6 0
13 -4 16 -10z m-115 -31 c0 -6 -3 -8 -7 -6 -5 2 -16 7 -26 10 -10 4 -15 11
-12 17 7 12 45 -5 45 -21z m50 17 c0 -3 -4 -8 -10 -11 -5 -3 -10 -1 -10 4 0 6
5 11 10 11 6 0 10 -2 10 -4z m-225 -189 c-26 -51 -54 -100 -62 -109 -11 -12
-13 -28 -9 -53 7 -34 -8 -51 -20 -22 -5 14 -31 16 -52 3 -7 -4 -12 -1 -12 8 0
9 3 15 8 15 31 -5 49 4 59 31 10 27 9 31 -15 49 -24 17 -25 21 -14 45 12 26
12 26 43 10 36 -18 33 -21 80 70 17 32 28 64 25 71 -2 7 -2 16 2 20 4 4 8 -5
10 -20 2 -17 -14 -60 -43 -118z m233 124 c3 -8 -1 -12 -9 -9 -7 2 -15 10 -17
17 -3 8 1 12 9 9 7 -2 15 -10 17 -17z m63 -44 c-13 -13 -26 -3 -16 12 3 6 11
8 17 5 6 -4 6 -10 -1 -17z m599 9 c0 -3 -4 -8 -10 -11 -5 -3 -10 -1 -10 4 0 6
5 11 10 11 6 0 10 -2 10 -4z m-710 -26 c0 -5 -4 -10 -10 -10 -18 0 -10 -29 12
-44 17 -12 20 -18 10 -28 -9 -9 -12 -8 -12 6 0 9 -4 15 -9 12 -4 -3 -16 2 -24
12 -15 16 -15 20 -1 40 16 23 34 29 34 12z m99 -6 c5 4 13 1 17 -5 4 -7 9 -8
13 -1 10 16 43 18 49 3 3 -10 0 -12 -12 -8 -11 5 -16 1 -16 -12 0 -25 -22 -32
-36 -13 -8 11 -21 13 -50 7 -49 -9 -48 -9 -52 7 -3 18 49 38 65 25 7 -5 17 -6
22 -3z m-629 -80 c-18 -21 -24 -10 -9 18 8 14 14 18 17 10 2 -7 -2 -19 -8 -28z
m496 7 c-3 -5 14 -15 39 -22 31 -9 44 -18 40 -27 -3 -8 -5 -18 -5 -24 0 -10
-63 24 -89 48 -14 12 -8 34 10 34 6 0 8 -4 5 -9z m8 -62 c-2 -4 -15 -2 -28 4
-13 7 -22 15 -20 18 2 4 15 2 28 -4 13 -7 22 -15 20 -18z m-414 -45 c0 -8 -4
-14 -10 -14 -5 0 -10 2 -10 4 0 2 -3 12 -6 20 -5 12 -2 15 10 10 9 -3 16 -12
16 -20z m447 -11 c-9 -9 -20 -13 -24 -9 -4 4 -1 11 7 16 8 6 11 10 7 10 -5 0
-5 5 -1 11 4 8 9 8 17 0 8 -8 6 -16 -6 -28z m-497 7 c-7 -13 -18 -19 -28 -16
-27 9 -48 -9 -34 -27 10 -12 10 -16 0 -19 -18 -7 -38 1 -38 16 0 23 26 48 60
56 51 12 52 12 40 -10z m30 -31 c11 -8 12 -12 3 -16 -7 -2 -13 -12 -13 -21 0
-13 -2 -13 -14 3 -13 18 -11 45 3 45 3 0 13 -5 21 -11z m443 -11 c21 -11 21
-11 2 -18 -24 -9 -35 -4 -35 16 0 17 5 17 33 2z m-933 -45 c0 -7 -4 -13 -10
-13 -5 0 -10 12 -10 28 0 21 2 24 10 12 5 -8 10 -21 10 -27z m650 -3 c0 -5 -4
-10 -10 -10 -5 0 -10 5 -10 10 0 6 5 10 10 10 6 0 10 -4 10 -10z m275 0 c3 -5
1 -10 -4 -10 -6 0 -11 5 -11 10 0 6 2 10 4 10 3 0 8 -4 11 -10z m-525 -10 c0
-5 -4 -10 -10 -10 -5 0 -10 5 -10 10 0 6 5 10 10 10 6 0 10 -4 10 -10z m60 -6
c0 -14 -3 -14 -15 -4 -8 7 -15 14 -15 16 0 2 7 4 15 4 8 0 15 -7 15 -16z m-20
-25 c0 -5 -4 -9 -10 -9 -5 0 -10 7 -10 16 0 8 5 12 10 9 6 -3 10 -10 10 -16z
m720 -29 c0 -5 -4 -10 -9 -10 -5 0 -17 -3 -25 -6 -12 -5 -15 -2 -10 10 7 17
44 22 44 6z m30 -10 c0 -5 -4 -10 -10 -10 -5 0 -10 5 -10 10 0 6 5 10 10 10 6
0 10 -4 10 -10z m-683 -26 c2 -6 -7 -10 -19 -9 -13 1 -29 -2 -36 -8 -7 -5 -16
-7 -20 -3 -10 11 30 37 52 34 11 -2 21 -8 23 -14z m830 -76 c-3 -8 -6 -5 -6 6
-1 11 2 17 5 13 3 -3 4 -12 1 -19z m-238 -4 c-5 -7 -19 -10 -29 -7 -30 8 -24
20 9 19 21 -1 26 -4 20 -12z m-239 -33 c0 -6 -4 -13 -10 -16 -5 -3 -10 1 -10
9 0 9 5 16 10 16 6 0 10 -4 10 -9z m538 -21 c3 -9 -1 -11 -12 -7 -12 5 -20 -1
-28 -18 -6 -14 -15 -25 -20 -25 -12 0 -9 12 7 33 7 11 11 25 8 33 -4 11 0 12
18 6 13 -5 25 -15 27 -22z m-498 -40 c0 -5 -2 -10 -4 -10 -3 0 -8 5 -11 10 -3
6 -1 10 4 10 6 0 11 -4 11 -10z m-325 -19 c3 -5 1 -12 -5 -16 -5 -3 -10 1 -10
9 0 18 6 21 15 7z m425 -11 c0 -5 -4 -10 -10 -10 -5 0 -10 5 -10 10 0 6 5 10
10 10 6 0 10 -4 10 -10z m-100 -33 c13 4 13 3 0 -6 -12 -9 -12 -11 3 -17 9 -3
14 -10 11 -15 -3 -5 -18 1 -35 13 -32 24 -40 44 -11 30 9 -5 24 -7 32 -5z
m-388 -39 c-15 -15 -26 -4 -18 18 5 13 9 15 18 6 9 -9 9 -15 0 -24z m898 -58
c0 -5 -7 -10 -16 -10 -8 0 -12 5 -9 10 3 6 10 10 16 10 5 0 9 -4 9 -10z m-410
-34 c0 -3 -4 -8 -10 -11 -5 -3 -10 -1 -10 4 0 6 5 11 10 11 6 0 10 -2 10 -4z
m271 -15 c-8 -5 -10 -14 -6 -21 5 -8 3 -11 -6 -8 -24 8 -22 34 3 35 16 2 19 0
9 -6z m159 -11 c-20 -13 -40 -13 -40 0 0 6 12 10 28 10 21 0 24 -2 12 -10z
m-140 -13 c0 -26 -24 -47 -47 -41 -26 7 -31 24 -8 24 8 0 15 -5 15 -11 0 -6 7
-4 15 5 8 8 15 19 15 25 0 6 2 11 5 11 3 0 5 -6 5 -13z m-460 -61 c0 -11 -19
-15 -25 -6 -3 5 1 10 9 10 9 0 16 -2 16 -4z m448 -14 c2 -7 -5 -12 -17 -12
-12 0 -21 5 -21 11 0 5 -4 7 -10 4 -5 -3 -10 -2 -10 4 0 14 53 8 58 -7z m-463
-42 c-3 -5 -10 -10 -16 -10 -5 0 -9 5 -9 10 0 6 7 10 16 10 8 0 12 -4 9 -10z
m130 -40 c-3 -5 -11 -10 -16 -10 -6 0 -7 5 -4 10 3 6 11 10 16 10 6 0 7 -4 4
-10z m-165 -51 c0 -6 -4 -7 -10 -4 -5 3 -10 11 -10 16 0 6 5 7 10 4 6 -3 10
-11 10 -16z m-40 -29 c0 -5 -4 -10 -10 -10 -5 0 -10 5 -10 10 0 6 5 10 10 10
6 0 10 -4 10 -10z m-10 -40 c0 -5 -5 -10 -11 -10 -5 0 -7 5 -4 10 3 6 8 10 11
10 2 0 4 -4 4 -10z m-415 -30 c3 -5 1 -10 -4 -10 -6 0 -11 5 -11 10 0 6 2 10
4 10 3 0 8 -4 11 -10z m538 -3 c4 -10 -2 -13 -19 -9 -13 2 -24 8 -24 13 0 14
37 10 43 -4z m47 3 c0 -5 -4 -10 -10 -10 -5 0 -10 5 -10 10 0 6 5 10 10 10 6
0 10 -4 10 -10z m-670 -10 c0 -5 -4 -10 -10 -10 -5 0 -10 5 -10 10 0 6 5 10
10 10 6 0 10 -4 10 -10z m160 -136 c0 -30 -4 -54 -10 -54 -6 0 -10 27 -10 61
0 37 4 58 10 54 6 -3 10 -31 10 -61z m150 30 c0 -8 -4 -13 -9 -9 -5 3 -17 -2
-26 -11 -20 -20 -25 -16 -15 11 9 24 50 31 50 9z m-70 -4 c0 -5 -4 -10 -10
-10 -5 0 -10 5 -10 10 0 6 5 10 10 10 6 0 10 -4 10 -10z m70 -30 c0 -5 -4 -10
-10 -10 -5 0 -10 5 -10 10 0 6 5 10 10 10 6 0 10 -4 10 -10z m-40 -31 c0 -5
-7 -9 -15 -9 -9 0 -12 6 -9 15 6 15 24 11 24 -6z m-85 1 c3 -5 1 -10 -4 -10
-6 0 -11 5 -11 10 0 6 2 10 4 10 3 0 8 -4 11 -10z m125 -50 c0 -5 -2 -10 -4
-10 -3 0 -8 5 -11 10 -3 6 -1 10 4 10 6 0 11 -4 11 -10z m2480 -47 c0 -3 -11
-25 -25 -49 -18 -31 -35 -46 -62 -55 -41 -13 -123 -74 -123 -91 0 -6 -12 -27
-27 -47 -16 -20 -44 -61 -64 -91 -20 -30 -60 -81 -90 -112 -100 -105 -183
-227 -172 -254 7 -20 -46 -145 -77 -181 -16 -18 -30 -38 -30 -43 0 -9 -66 -55
-96 -67 -8 -3 -14 1 -14 9 0 8 6 15 13 15 21 0 87 44 87 59 0 7 14 29 31 48
18 21 27 40 23 47 -4 7 -3 9 3 6 9 -6 43 89 43 121 0 6 14 34 30 62 17 28 27
56 24 62 -4 7 -2 8 4 4 7 -4 25 12 44 40 18 26 59 73 91 105 37 37 56 63 51
71 -4 7 -3 10 1 5 5 -4 20 10 34 32 83 125 101 149 135 179 20 17 46 32 57 32
11 0 17 4 14 10 -3 5 0 7 8 4 16 -6 67 49 67 72 0 8 5 14 10 14 6 0 10 -3 10
-7z m-2060 -107 c0 -3 -4 -8 -10 -11 -5 -3 -10 -1 -10 4 0 6 5 11 10 11 6 0
10 -2 10 -4z m50 0 c0 -3 -4 -8 -10 -11 -5 -3 -10 -1 -10 4 0 6 5 11 10 11 6
0 10 -2 10 -4z m60 -16 c0 -5 -4 -10 -9 -10 -6 0 -13 5 -16 10 -3 6 1 10 9 10
9 0 16 -4 16 -10z m75 -30 c3 -5 2 -10 -4 -10 -5 0 -13 5 -16 10 -3 6 -2 10 4
10 5 0 13 -4 16 -10z m-5 -40 c0 -11 -4 -20 -9 -20 -11 0 -22 26 -14 34 12 12
23 5 23 -14z m17 -59 c15 -21 8 -27 -12 -11 -12 10 -18 10 -30 0 -12 -10 -15
-10 -15 4 0 9 -7 16 -16 16 -8 0 -12 4 -9 10 8 13 68 0 82 -19z m-142 -31 c3
-5 1 -10 -4 -10 -6 0 -11 5 -11 10 0 6 2 10 4 10 3 0 8 -4 11 -10z m-105 -55
c0 -8 -4 -15 -10 -15 -5 0 -7 7 -4 15 4 8 8 15 10 15 2 0 4 -7 4 -15z m160
-15 c-20 -13 -33 -13 -25 0 3 6 14 10 23 10 15 0 15 -2 2 -10z m-89 -63 c-1
-12 -15 -9 -19 4 -3 6 1 10 8 8 6 -3 11 -8 11 -12z m61 -19 c-9 -9 -12 -7 -12
12 0 19 3 21 12 12 9 -9 9 -15 0 -24z m-104 -313 c2 -40 3 -39 -33 -25 -20 8
-26 16 -22 30 3 10 0 22 -7 25 -6 3 1 3 17 0 16 -3 27 -1 27 5 0 6 4 9 8 6 5
-3 9 -21 10 -41z m172 0 c16 -19 0 -19 -26 0 -16 12 -16 14 -3 15 9 0 22 -7
29 -15z m-520 -35 c0 -5 -5 -10 -11 -10 -5 0 -7 5 -4 10 3 6 8 10 11 10 2 0 4
-4 4 -10z m181 -32 c12 -13 28 -38 35 -55 8 -18 17 -33 19 -33 3 0 29 13 58
30 35 20 57 26 67 20 11 -7 10 -12 -11 -30 -13 -12 -19 -19 -12 -16 6 4 14 2
17 -3 3 -5 22 -12 42 -15 19 -4 43 -10 52 -12 15 -5 15 -4 2 8 -8 7 -17 22
-19 33 -3 19 -2 19 17 1 12 -10 25 -15 30 -12 5 3 8 -14 8 -38 -1 -37 4 -47
38 -79 22 -21 37 -40 34 -43 -3 -3 -17 6 -31 20 -15 14 -30 26 -36 26 -5 0
-12 13 -16 30 -5 24 -14 32 -45 40 -21 6 -45 8 -53 5 -8 -4 -17 1 -21 11 -5
13 -9 14 -21 4 -12 -10 -16 -9 -21 4 -3 9 -4 23 0 31 5 13 2 14 -15 3 -65 -40
-63 -39 -81 -17 -10 12 -18 28 -18 35 0 8 -14 17 -31 21 -20 4 -28 10 -25 19
3 8 -1 14 -9 14 -8 0 -15 5 -15 10 0 18 39 10 61 -12z m381 -27 c19 -22 6 -43
-21 -33 -23 8 -31 24 -19 39 14 17 21 16 40 -6z m-796 -68 c-10 -10 -19 5 -10
18 6 11 8 11 12 0 2 -7 1 -15 -2 -18z m-71 7 c3 -5 1 -10 -4 -10 -6 0 -11 5
-11 10 0 6 2 10 4 10 3 0 8 -4 11 -10z m115 -14 c0 -3 -4 -8 -10 -11 -5 -3
-10 -1 -10 4 0 6 5 11 10 11 6 0 10 -2 10 -4z m270 -2 c0 -17 -29 -31 -58 -26
-57 8 -36 24 41 31 9 0 17 -2 17 -5z m46 -56 l-1 -43 -37 4 c-26 2 -38 -1 -38
-10 0 -7 -10 -3 -25 11 -25 23 -33 50 -16 50 5 0 11 -8 13 -17 7 -38 88 -12
88 29 0 10 4 18 9 18 5 0 8 -19 7 -42z m-390 20 c3 -4 -16 -8 -43 -8 -33 0
-43 3 -34 9 18 12 70 11 77 -1z m980 -55 c16 -21 19 -57 4 -48 -6 3 -13 -1
-17 -11 -6 -16 -7 -15 -20 2 -7 10 -13 12 -13 6 0 -7 -9 -12 -20 -12 -34 0
-19 43 25 68 26 15 26 15 41 -5z m904 -8 c0 -2 -13 -11 -30 -20 -31 -16 -43
-3 -12 14 18 11 42 14 42 6z m-1793 -21 c-3 -3 -12 -4 -19 -1 -8 3 -5 6 6 6
11 1 17 -2 13 -5z m161 -22 c4 -23 -4 -27 -26 -14 -15 10 -5 45 12 39 6 -2 12
-13 14 -25z m77 -2 c3 -5 1 -10 -4 -10 -6 0 -11 5 -11 10 0 6 2 10 4 10 3 0 8
-4 11 -10z m-244 -61 c11 -11 18 -27 15 -35 -6 -16 -26 -19 -26 -3 0 5 -4 7
-10 4 -6 -4 -10 7 -10 24 0 37 3 38 31 10z m64 -8 c-4 -14 0 -20 19 -25 13 -3
26 -12 29 -20 4 -11 -4 -14 -36 -12 -39 1 -42 3 -39 26 4 23 19 50 29 50 2 0
2 -8 -2 -19z m721 -8 c-2 -16 -4 -32 -5 -36 -3 -20 -17 5 -15 25 1 13 3 26 3
31 1 4 5 7 10 7 6 0 8 -12 7 -27z m-583 2 c4 -8 2 -17 -3 -20 -6 -4 -10 -4
-10 -1 0 2 -3 11 -6 20 -3 9 -2 16 4 16 5 0 12 -7 15 -15z m97 0 c0 -8 -7 -15
-15 -15 -8 0 -15 7 -15 15 0 8 7 15 15 15 8 0 15 -7 15 -15z m-395 -25 c3 -5
-1 -10 -10 -10 -9 0 -13 5 -10 10 3 6 8 10 10 10 2 0 7 -4 10 -10z m315 -31
c0 -11 -4 -17 -10 -14 -5 3 -10 13 -10 21 0 8 5 14 10 14 6 0 10 -9 10 -21z
m37 -11 c-3 -7 -5 -2 -5 12 0 14 2 19 5 13 2 -7 2 -19 0 -25z m57 5 c-2 -42
-3 -43 -16 -40 -23 4 -30 38 -11 53 26 19 29 17 27 -13z m570 12 c3 -8 1 -15
-4 -15 -6 0 -10 7 -10 15 0 8 2 15 4 15 2 0 6 -7 10 -15z m-814 -55 c0 -3 -7
-14 -15 -24 -13 -17 -15 -17 -15 -3 0 11 -5 14 -17 10 -16 -6 -16 -4 -5 9 12
15 52 21 52 8z m130 -10 c0 -14 -54 -62 -58 -50 -2 5 9 21 25 34 32 29 33 29
33 16z m46 -17 c-10 -10 -19 5 -10 18 6 11 8 11 12 0 2 -7 1 -15 -2 -18z m-26
-8 c0 -2 -5 -16 -12 -30 -8 -17 -14 -22 -19 -14 -7 13 10 49 23 49 5 0 8 -2 8
-5z m-301 -66 c17 -17 31 -35 31 -40 0 -26 115 6 126 36 4 10 19 15 48 14 41
-1 41 -1 13 -13 -15 -7 -24 -15 -21 -19 7 -7 2 -9 -28 -11 -7 -1 -19 -6 -25
-13 -7 -6 -32 -14 -55 -18 -24 -4 -51 -14 -61 -23 -22 -19 -33 -10 -13 11 14
13 11 20 -25 61 -45 51 -38 63 10 15z m81 11 c0 -11 -4 -20 -10 -20 -5 0 -10
9 -10 20 0 11 5 20 10 20 6 0 10 -9 10 -20z m-420 -20 c0 -5 -4 -10 -10 -10
-5 0 -10 5 -10 10 0 6 5 10 10 10 6 0 10 -4 10 -10z m604 -105 c-4 -28 -12
-45 -20 -45 -17 0 -18 12 -1 29 10 11 6 12 -20 6 -19 -4 -33 -3 -33 3 0 5 14
12 30 16 23 4 30 11 30 28 0 13 -4 30 -9 38 -6 8 -7 19 -3 24 12 21 32 -53 26
-99z m21 95 c3 -5 1 -10 -4 -10 -6 0 -11 5 -11 10 0 6 2 10 4 10 3 0 8 -4 11
-10z m45 -50 c26 0 22 -10 -7 -14 -23 -4 -43 11 -43 33 1 14 2 14 14 -1 7 -10
24 -18 36 -18z m-340 -22 c0 -10 -3 -10 -34 2 -14 5 -26 14 -26 19 0 5 13 4
30 -2 17 -6 30 -15 30 -19z m-470 -15 c0 -16 -40 -73 -51 -73 -8 0 -7 6 3 18
9 9 19 27 22 40 7 20 26 32 26 15z m210 -13 c0 -5 -2 -10 -4 -10 -3 0 -8 5
-11 10 -3 6 -1 10 4 10 6 0 11 -4 11 -10z m425 -21 c-7 -29 -6 -31 22 -27 22
2 28 -1 27 -14 -1 -10 3 -18 8 -18 15 0 3 -25 -13 -25 -8 -1 -13 -6 -11 -13 2
-14 -34 -17 -42 -3 -3 4 -18 6 -33 4 -27 -4 -27 -4 -9 11 19 15 19 16 -7 16
-20 0 -28 6 -33 25 -4 16 -13 25 -25 25 -23 0 -25 25 -3 34 22 9 46 7 40 -2
-2 -4 -1 -14 4 -22 7 -12 10 -12 16 3 3 9 17 17 30 17 13 0 24 5 24 10 0 6 3
10 6 10 3 0 3 -14 -1 -31z m140 21 c-4 -6 -2 -17 5 -25 13 -15 -4 -51 -29 -60
-20 -8 -24 0 -9 16 8 8 14 24 15 37 1 38 3 42 14 42 5 0 7 -5 4 -10z m-595
-26 c0 -8 -4 -12 -10 -9 -5 3 -10 10 -10 16 0 5 5 9 10 9 6 0 10 -7 10 -16z
m-10 -33 c0 -12 -20 -25 -27 -18 -7 7 6 27 18 27 5 0 9 -4 9 -9z m574 -87 c4
-9 5 -19 3 -21 -8 -8 -37 10 -37 23 0 19 26 18 34 -2z m-858 -91 c-11 -11 -17
4 -9 23 7 18 8 18 11 1 2 -10 1 -21 -2 -24z m821 31 c-3 -3 -12 -4 -19 -1 -8
3 -5 6 6 6 11 1 17 -2 13 -5z m1791 -39 c14 -31 15 -35 3 -35 -5 0 -11 8 -15
18 -3 9 -9 23 -12 30 -3 6 -2 12 4 12 5 0 14 -11 20 -25z m-2616 -52 c8 -10 5
-13 -11 -13 -22 0 -26 15 -14 47 7 17 8 17 11 -2 2 -11 9 -26 14 -32z m718
-14 c0 -5 -19 -10 -42 -10 -24 -1 -35 -3 -25 -6 21 -5 23 -23 2 -23 -9 0 -12
-6 -9 -15 6 -16 -4 -20 -21 -7 -15 11 -18 42 -4 42 7 0 9 3 6 7 -4 3 3 11 16
17 24 13 77 9 77 -5z m1935 -16 c-7 -30 -13 -39 -19 -32 -8 8 6 59 16 59 6 0
7 -11 3 -27z m-2229 -30 c-10 -10 -19 5 -10 18 6 11 8 11 12 0 2 -7 1 -15 -2
-18z m354 1 c0 -2 -7 -4 -15 -4 -8 0 -15 4 -15 10 0 5 7 7 15 4 8 -4 15 -8 15
-10z m-804 -19 c15 -14 14 -16 -3 -14 -4 0 -11 -10 -15 -22 -12 -31 -21 -17
-13 20 8 35 11 37 31 16z m725 5 c10 -6 19 -20 19 -30 0 -32 -25 -23 -48 18
-14 24 -3 29 29 12z m-291 -20 c0 -5 -7 -10 -16 -10 -8 0 -12 5 -9 10 3 6 10
10 16 10 5 0 9 -4 9 -10z m-330 -4 c0 -3 -4 -8 -10 -11 -5 -3 -10 -1 -10 4 0
6 5 11 10 11 6 0 10 -2 10 -4z m394 -2 c25 -10 19 -22 -9 -16 -14 2 -25 8 -25
13 0 10 12 11 34 3z m175 -3 c11 -7 10 -11 -4 -19 -11 -6 -18 -21 -18 -40 0
-21 -4 -29 -14 -25 -16 6 -17 35 -1 51 9 9 6 12 -15 12 -33 0 -36 17 -4 23 37
7 41 7 56 -2z m1941 5 c0 -3 -4 -8 -10 -11 -5 -3 -10 -1 -10 4 0 6 5 11 10 11
6 0 10 -2 10 -4z m-2583 -58 c-3 -8 -6 -5 -6 6 -1 11 2 17 5 13 3 -3 4 -12 1
-19z m163 12 c0 -5 -4 -10 -10 -10 -5 0 -10 5 -10 10 0 6 5 10 10 10 6 0 10
-4 10 -10z m400 -24 c0 -9 -13 -7 -29 3 -7 5 -10 14 -7 20 5 8 11 7 22 -3 8
-8 14 -17 14 -20z m2260 9 c0 -20 -5 -25 -25 -25 -14 0 -25 5 -25 10 0 6 9 10
20 10 11 0 20 7 20 15 0 8 2 15 5 15 3 0 5 -11 5 -25z m1870 -10 c-7 -9 -15
-13 -17 -11 -7 7 7 26 19 26 6 0 6 -6 -2 -15z m-4780 -12 c0 -9 -3 -14 -6 -10
-3 3 -17 -6 -30 -21 -13 -15 -24 -22 -24 -16 0 10 47 64 56 64 2 0 4 -7 4 -17z
m71 -6 c-13 -13 -26 -3 -16 12 3 6 11 8 17 5 6 -4 6 -10 -1 -17z m499 8 c27
-15 20 -19 -17 -9 -13 4 -23 10 -23 15 0 12 11 11 40 -6z m2160 -15 c0 -5 -13
-10 -30 -10 -16 0 -30 5 -30 10 0 6 14 10 30 10 17 0 30 -4 30 -10z m-2132
-12 c22 2 22 1 6 -23 -9 -14 -12 -25 -8 -25 5 0 3 -4 -5 -9 -12 -8 -12 -12 -2
-24 9 -12 9 -17 0 -23 -7 -4 -15 -2 -17 4 -2 7 -10 19 -19 27 -8 8 -11 19 -8
25 3 5 1 10 -6 10 -10 0 -10 3 -1 12 15 15 16 32 2 23 -5 -3 -10 -1 -10 5 0 7
8 9 23 4 12 -4 32 -7 45 -6z m48 -35 c-11 -11 -19 6 -11 24 8 17 8 17 12 0 3
-10 2 -21 -1 -24z m-175 -6 c-1 -12 -15 -9 -19 4 -3 6 1 10 8 8 6 -3 11 -8 11
-12z m31 -39 c-9 -9 -12 -7 -12 12 0 19 3 21 12 12 9 -9 9 -15 0 -24z m-32 -8
c0 -5 -5 -10 -11 -10 -5 0 -7 5 -4 10 3 6 8 10 11 10 2 0 4 -4 4 -10z m-400
-10 c0 -5 -4 -10 -10 -10 -5 0 -10 5 -10 10 0 6 5 10 10 10 6 0 10 -4 10 -10z
m450 -15 c0 -8 -4 -15 -10 -15 -5 0 -10 7 -10 15 0 8 5 15 10 15 6 0 10 -7 10
-15z m-520 -89 c0 -26 -14 -41 -29 -32 -13 8 0 56 15 56 8 0 14 -10 14 -24z
m2297 -93 c-3 -10 -5 -2 -5 17 0 19 2 27 5 18 2 -10 2 -26 0 -35z m-2232 27
c-3 -5 -16 -10 -28 -10 -18 0 -19 2 -7 10 20 13 43 13 35 0z m-15 -30 c0 -5
-4 -10 -9 -10 -6 0 -13 5 -16 10 -3 6 1 10 9 10 9 0 16 -4 16 -10z m316 -55
c-3 -8 -1 -15 4 -15 6 0 10 -4 10 -10 0 -5 -7 -7 -15 -4 -17 7 -21 44 -4 44 6
0 9 -7 5 -15z m350 -40 c-3 -20 -20 -20 -24 -1 -2 9 3 16 11 16 9 0 14 -7 13
-15z m41 -3 c7 -4 9 -13 4 -21 -10 -16 -31 -6 -31 15 0 16 9 18 27 6z m-67
-57 c-7 -9 -15 -13 -18 -10 -3 2 1 11 8 20 7 9 15 13 18 10 3 -2 -1 -11 -8
-20z m1257 -187 c-3 -8 -6 -5 -6 6 -1 11 2 17 5 13 3 -3 4 -12 1 -19z m-1727
-68 c0 -5 -4 -10 -10 -10 -5 0 -10 5 -10 10 0 6 5 10 10 10 6 0 10 -4 10 -10z
m-350 -30 c0 -5 -8 -10 -17 -10 -15 0 -16 2 -3 10 19 12 20 12 20 0z m330 1
c0 -11 -31 -24 -39 -16 -3 3 1 10 9 15 19 12 30 12 30 1z m-330 -96 c0 -8 -4
-15 -10 -15 -5 0 -10 7 -10 15 0 8 5 15 10 15 6 0 10 -7 10 -15z m5 -35 c3 -5
1 -10 -4 -10 -6 0 -11 5 -11 10 0 6 2 10 4 10 3 0 8 -4 11 -10z m5 -40 c0 -5
-4 -10 -10 -10 -5 0 -10 5 -10 10 0 6 5 10 10 10 6 0 10 -4 10 -10z m-8 -62
c-6 -6 -15 -8 -19 -4 -4 4 -1 11 7 16 19 12 27 3 12 -12z m93 -68 c3 -5 1 -10
-4 -10 -6 0 -11 5 -11 10 0 6 2 10 4 10 3 0 8 -4 11 -10z m-12 -44 c3 -8 -1
-17 -9 -20 -9 -4 -14 1 -14 14 0 23 15 27 23 6z m462 -106 c3 -5 -1 -10 -10
-10 -9 0 -13 5 -10 10 3 6 8 10 10 10 2 0 7 -4 10 -10z m-565 -175 c0 -8 -11
-17 -24 -21 -21 -5 -25 -13 -28 -47 -2 -28 2 -46 12 -54 8 -6 12 -15 8 -19 -4
-4 -14 -1 -22 6 -11 8 -15 28 -13 67 2 50 4 55 29 60 15 3 25 9 22 14 -3 5 0
9 5 9 6 0 11 -7 11 -15z m170 -100 c0 -13 -73 -135 -82 -135 -5 0 -6 5 -3 10
7 11 -114 14 -153 4 -19 -5 -23 -12 -20 -38 3 -29 5 -31 51 -34 50 -3 56 -22
7 -22 -24 0 -28 -4 -26 -23 1 -13 6 -28 10 -35 5 -8 0 -12 -13 -12 -16 0 -21
-6 -21 -27 0 -21 -3 -24 -12 -15 -15 15 -28 15 -28 1 0 -12 -25 -39 -35 -39
-4 0 -5 8 -2 19 3 15 0 18 -17 14 -21 -4 -21 -4 -2 11 11 9 32 16 47 16 15 0
29 7 33 15 4 12 -3 15 -29 15 -36 0 -51 14 -47 43 2 9 -2 17 -7 17 -14 0 -14
-45 -1 -71 6 -10 7 -19 2 -19 -15 0 -32 49 -32 90 0 49 17 88 42 96 11 3 35
19 54 36 35 31 47 29 17 -4 -15 -17 -14 -18 38 -18 30 0 78 3 107 7 50 6 54 8
80 54 23 42 42 62 42 44z m3171 -172 c13 -16 12 -17 -3 -4 -10 7 -18 15 -18
17 0 8 8 3 21 -13z m-2271 -26 c0 -2 -10 -12 -22 -23 l-23 -19 19 23 c18 21
26 27 26 19z m-1153 -179 c-3 -8 -6 -5 -6 6 -1 11 2 17 5 13 3 -3 4 -12 1 -19z
m-42 -258 c14 -16 15 -20 4 -20 -16 0 -39 19 -39 32 0 14 16 9 35 -12z"/>
<path d="M4576 6928 c1 -13 3 -29 3 -35 1 -19 15 -16 29 7 10 17 10 23 -2 35
-21 21 -33 18 -30 -7z"/>
<path d="M4690 6829 c0 -5 5 -7 10 -4 6 3 10 8 10 11 0 2 -4 4 -10 4 -5 0 -10
-5 -10 -11z"/>
<path d="M4692 6658 c2 -7 11 -19 21 -26 22 -17 49 1 40 25 -5 12 -7 12 -14 1
-7 -10 -12 -11 -29 0 -16 10 -20 10 -18 0z"/>
<path d="M3732 6535 c-2 -36 23 -138 35 -142 7 -3 4 20 -7 60 -10 36 -20 73
-23 83 -4 17 -5 17 -5 -1z"/>
<path d="M3770 6358 c1 -62 51 -200 66 -185 2 2 -2 26 -10 53 -8 27 -20 68
-26 92 -6 23 -15 42 -20 42 -6 0 -10 -1 -10 -2z"/>
<path d="M4374 6148 c-4 -12 2 -25 18 -38 18 -15 24 -16 26 -4 2 8 8 14 13 14
5 0 9 7 9 16 0 8 4 13 9 10 5 -3 11 0 14 7 4 10 -7 13 -39 13 -34 1 -45 -4
-50 -18z"/>
<path d="M3953 6056 c-4 -8 -19 -16 -33 -18 -20 -2 -26 -9 -28 -37 -3 -31 -2
-33 12 -21 9 7 19 10 23 6 3 -3 1 -6 -5 -6 -7 0 -12 -7 -12 -15 0 -21 20 -19
22 3 0 9 2 22 3 27 2 6 3 16 4 23 0 6 10 12 21 12 11 0 20 6 20 14 0 21 -17
29 -27 12z"/>
<path d="M4725 6060 c-3 -6 1 -7 9 -4 18 7 21 14 7 14 -6 0 -13 -4 -16 -10z"/>
<path d="M3209 6007 c-1 -68 2 -121 7 -127 13 -12 36 80 39 154 0 5 -10 12
-22 17 -22 8 -23 6 -24 -44z"/>
<path d="M4157 6006 c-3 -7 -1 -18 5 -24 6 -6 6 -12 -2 -17 -7 -4 -15 -3 -19
3 -8 14 -133 -155 -129 -176 2 -12 12 -7 41 23 29 30 37 45 32 62 -3 13 -1 23
5 23 5 0 10 -5 10 -11 0 -5 5 -7 10 -4 6 4 8 10 5 14 -2 5 4 16 15 26 17 15
22 16 36 4 14 -12 19 -10 40 16 l24 30 -25 23 c-30 26 -41 27 -48 8z"/>
<path d="M4713 6008 c-23 -30 -22 -35 2 -30 16 3 25 11 25 23 0 22 -13 25 -27
7z"/>
<path d="M4660 5995 c-7 -8 -9 -15 -6 -15 4 0 14 7 22 15 9 8 11 15 6 15 -5 0
-15 -7 -22 -15z"/>
<path d="M3084 5968 c-4 -6 2 -19 14 -28 11 -10 25 -32 29 -51 9 -35 43 -54
43 -25 0 9 5 16 11 16 24 0 1 46 -36 72 -45 31 -51 33 -61 16z"/>
<path d="M4214 5931 c-22 -35 -28 -38 -45 -28 -10 6 -20 9 -22 7 -2 -3 -27
-35 -56 -72 -29 -37 -51 -75 -49 -84 3 -19 96 -51 108 -37 14 17 118 159 133
184 16 25 16 26 -13 47 l-30 22 -26 -39z"/>
<path d="M3867 5943 c-5 -7 -18 -13 -29 -13 -19 0 -20 -4 -14 -47 4 -31 15
-56 31 -72 13 -14 26 -23 27 -20 2 2 1 40 -2 84 -3 46 -8 75 -13 68z"/>
<path d="M3787 5883 c-13 -12 -7 -33 8 -33 8 0 15 9 15 20 0 20 -11 26 -23 13z"/>
<path d="M4645 5840 c-3 -5 -12 -7 -19 -4 -7 3 -24 -4 -37 -16 -16 -13 -18
-18 -7 -14 11 4 20 0 24 -10 5 -14 8 -14 27 -1 11 8 22 24 24 35 3 21 -2 26
-12 10z"/>
<path d="M3140 5796 c0 -25 4 -46 8 -46 11 0 13 78 1 85 -5 4 -9 -13 -9 -39z"/>
<path d="M4556 5782 c-3 -3 -6 -15 -6 -26 0 -13 -14 -30 -36 -44 -28 -18 -35
-28 -32 -50 2 -20 9 -28 27 -30 13 -2 28 2 33 10 7 10 11 10 15 1 9 -23 33
-14 33 11 0 14 5 28 10 31 7 4 6 13 -1 26 -7 15 -7 24 1 34 7 8 9 18 6 23 -7
12 -43 22 -50 14z"/>
<path d="M3178 5735 c3 -28 0 -45 -7 -45 -6 0 -11 9 -11 20 0 43 -18 17 -23
-34 -3 -30 -22 -91 -41 -136 -36 -81 -38 -100 -10 -100 12 0 13 8 8 36 -5 27
-4 35 5 30 6 -4 11 -17 11 -29 0 -39 14 -50 54 -43 33 6 36 10 30 29 -4 12 -7
88 -6 170 2 81 -1 147 -5 147 -5 0 -7 -20 -5 -45z"/>
<path d="M4188 5735 c-22 -29 -24 -53 -5 -33 19 19 39 58 30 58 -4 0 -16 -11
-25 -25z"/>
<path d="M3910 5725 c0 -8 2 -15 4 -15 2 0 6 7 10 15 3 8 1 15 -4 15 -6 0 -10
-7 -10 -15z"/>
<path d="M4023 5716 c3 -6 10 -10 16 -8 6 1 11 -5 11 -13 0 -8 5 -15 11 -15 7
0 18 -8 25 -17 13 -17 15 -17 24 -1 15 25 10 31 -43 49 -30 10 -46 12 -44 5z"/>
<path d="M3975 5670 c-9 -16 -11 -30 -6 -30 6 0 17 14 26 30 9 17 11 30 6 30
-6 0 -17 -13 -26 -30z"/>
<path d="M4045 5640 c3 -5 8 -10 11 -10 2 0 4 5 4 10 0 6 -5 10 -11 10 -5 0
-7 -4 -4 -10z"/>
<path d="M4057 5611 c-23 -40 -21 -49 4 -17 11 14 19 31 17 36 -2 6 -11 -2
-21 -19z"/>
<path d="M4575 5610 c-4 -7 -18 -9 -35 -5 -31 7 -51 -12 -29 -26 12 -8 12 -11
-1 -19 -11 -7 -12 -10 -2 -10 9 0 11 -7 7 -20 -4 -11 -2 -20 4 -20 6 0 11 9
11 19 0 12 9 21 25 25 29 7 52 43 37 58 -6 6 -12 6 -17 -2z"/>
<path d="M4196 5583 c-11 -11 -6 -23 9 -23 8 0 15 4 15 9 0 13 -16 22 -24 14z"/>
<path d="M4030 5521 c-9 -17 -8 -25 4 -36 16 -17 41 -20 31 -5 -3 6 -2 10 4
10 5 0 11 -6 14 -12 2 -7 7 -10 11 -7 9 9 -4 40 -14 34 -5 -3 -15 4 -23 16
l-15 21 -12 -21z"/>
<path d="M4533 5492 c-6 -11 -8 -24 -3 -33 12 -19 22 -6 18 25 -3 25 -4 25
-15 8z"/>
<path d="M4686 5483 c-48 -3 -64 -9 -87 -33 -25 -24 -26 -30 -14 -40 15 -12
60 -10 115 6 22 7 24 6 12 -9 -8 -9 -34 -19 -58 -23 -43 -6 -44 -7 -44 -45 0
-36 2 -39 19 -29 11 5 32 10 48 10 15 0 35 5 43 11 13 9 13 10 -2 6 -18 -6
-33 19 -18 28 6 4 10 1 10 -5 0 -6 5 -8 11 -4 6 3 15 1 19 -7 6 -9 12 -5 22
17 7 16 16 31 20 34 4 3 4 24 1 48 -4 31 -10 42 -22 40 -9 -1 -42 -3 -75 -5z
m4 -23 c0 -5 -5 -10 -11 -10 -5 0 -7 5 -4 10 3 6 8 10 11 10 2 0 4 -4 4 -10z
m77 -42 c-4 -23 -27 -39 -27 -18 0 9 20 38 27 40 2 0 1 -10 0 -22z"/>
<path d="M3445 5463 c-11 -2 -46 -16 -77 -31 -56 -26 -70 -43 -48 -57 6 -4 8
-16 5 -27 -7 -19 -3 -19 137 -13 185 8 183 7 184 45 1 34 -7 36 -84 21 l-42
-8 -6 38 c-7 40 -15 44 -69 32z m-41 -42 c3 -5 -1 -11 -9 -15 -9 -3 -15 0 -15
9 0 16 16 20 24 6z"/>
<path d="M3532 5448 c3 -20 10 -23 56 -26 50 -3 52 -2 52 22 0 25 -3 26 -56
26 -52 0 -55 -1 -52 -22z"/>
<path d="M4115 5437 c4 -14 2 -28 -4 -31 -5 -4 -8 -13 -4 -21 4 -11 22 -15 67
-16 47 0 56 -2 39 -9 -18 -7 -23 -17 -23 -45 0 -19 3 -35 8 -35 14 1 87 39 75
40 -7 0 -10 6 -7 14 6 15 -26 53 -48 57 -7 1 -21 -1 -30 -5 -19 -9 -61 10 -53
24 3 4 15 5 28 2 20 -5 20 -4 7 10 -9 8 -26 20 -38 27 -21 11 -22 10 -17 -12z
m125 -127 c0 -5 -2 -10 -4 -10 -3 0 -8 5 -11 10 -3 6 -1 10 4 10 6 0 11 -4 11
-10z"/>
<path d="M4480 5440 c0 -5 7 -7 15 -4 8 4 15 8 15 10 0 2 -7 4 -15 4 -8 0 -15
-4 -15 -10z"/>
<path d="M3050 5415 c0 -21 30 -31 41 -14 5 10 3 16 -9 21 -27 10 -32 9 -32
-7z"/>
<path d="M3210 5419 c0 -6 9 -8 20 -4 11 4 20 2 20 -4 0 -6 8 -11 17 -11 15 0
14 2 -3 15 -22 17 -54 20 -54 4z"/>
<path d="M4525 5420 c3 -5 -1 -10 -9 -10 -9 0 -16 -4 -16 -10 0 -11 20 -13 44
-4 18 7 10 34 -11 34 -8 0 -11 -4 -8 -10z"/>
<path d="M3175 5410 c-3 -5 -1 -10 4 -10 6 0 11 5 11 10 0 6 -2 10 -4 10 -3 0
-8 -4 -11 -10z"/>
<path d="M4435 5405 c-19 -14 -18 -14 13 -15 22 0 32 4 30 12 -6 18 -22 20
-43 3z"/>
<path d="M3110 5395 c0 -8 2 -15 4 -15 2 0 6 7 10 15 3 8 1 15 -4 15 -6 0 -10
-7 -10 -15z"/>
<path d="M3265 5381 c-19 -8 -19 -8 3 -20 19 -10 22 -9 22 9 0 11 -1 20 -2 19
-2 0 -12 -4 -23 -8z"/>
<path d="M3040 5359 c0 -12 7 -19 20 -19 11 0 20 6 20 14 0 7 -9 16 -20 19
-15 4 -20 0 -20 -14z"/>
<path d="M4509 5373 c-1 -5 -1 -12 0 -17 1 -5 -3 -12 -9 -16 -6 -3 -11 -23
-12 -43 -1 -27 -6 -37 -17 -37 -19 0 -71 -46 -71 -61 0 -7 7 -8 18 -3 9 4 31
7 47 7 17 0 24 2 18 4 -21 7 -15 33 8 33 11 0 40 12 65 26 45 26 55 53 38 98
-6 16 -83 24 -85 9z"/>
<path d="M4343 5363 c-24 -5 -30 -18 -13 -28 6 -3 10 -1 10 4 0 6 5 11 11 11
6 0 9 -8 7 -17 -2 -10 -11 -17 -21 -17 -21 2 -22 -12 -2 -32 22 -22 51 -13 48
14 -3 27 17 29 24 2 4 -13 14 -20 29 -20 26 0 29 5 38 58 l6 32 -58 -1 c-31
-1 -67 -4 -79 -6z"/>
<path d="M3096 5351 c-4 -7 -5 -15 -2 -18 9 -9 19 4 14 18 -4 11 -6 11 -12 0z"/>
<path d="M3131 5344 c0 -11 3 -14 6 -6 3 7 2 16 -1 19 -3 4 -6 -2 -5 -13z"/>
<path d="M4292 5340 c0 -14 2 -19 5 -12 2 6 2 18 0 25 -3 6 -5 1 -5 -13z"/>
<path d="M3224 5339 c-3 -6 -19 -9 -35 -7 -15 3 -26 1 -23 -4 3 -4 21 -8 40
-8 24 0 34 5 34 15 0 18 -6 19 -16 4z"/>
<path d="M4057 5344 c-3 -4 -2 -15 4 -26 5 -10 7 -22 4 -27 -6 -11 31 -25 44
-16 6 3 8 12 4 20 -3 10 1 15 13 15 16 0 16 2 -4 20 -21 20 -52 26 -65 14z"/>
<path d="M3688 5323 c-24 -6 -23 -30 3 -78 12 -22 22 -59 23 -82 0 -24 5 -43
9 -43 9 0 -2 192 -11 201 -4 3 -15 4 -24 2z"/>
<path d="M3051 5263 c1 -50 15 -126 18 -98 1 6 13 15 27 22 22 10 24 10 19 -8
-4 -13 -2 -19 8 -19 19 0 50 -36 42 -49 -3 -6 -1 -11 4 -11 6 0 11 7 11 16 0
8 5 12 10 9 6 -4 10 25 10 79 0 47 -4 88 -10 91 -5 3 -10 3 -10 -2 0 -4 -18
-27 -40 -51 -46 -48 -80 -56 -80 -17 0 25 14 33 25 15 12 -19 22 -10 28 27 7
40 -2 53 -40 53 -21 0 -23 -4 -22 -57z"/>
<path d="M3467 5313 c-4 -3 -7 -17 -7 -30 0 -12 -4 -23 -10 -23 -5 0 -10 11
-10 25 0 16 -6 25 -15 25 -11 0 -15 -12 -15 -44 0 -43 3 -47 60 -91 l60 -46 0
49 c0 27 -3 52 -7 56 -4 4 -6 25 -4 46 2 36 0 40 -22 40 -13 0 -27 -3 -30 -7z"/>
<path d="M3540 5305 c0 -11 11 -15 41 -15 41 0 47 -19 6 -21 -19 0 -19 -2 6
-11 26 -9 38 -28 17 -28 -5 0 -10 5 -10 11 0 8 -5 7 -16 -1 -13 -11 -16 -10
-21 8 -9 35 -26 26 -19 -9 3 -17 6 -54 6 -81 l0 -49 35 3 c19 1 37 8 40 16 4
12 8 12 21 1 13 -11 15 -5 12 52 -2 45 -7 63 -15 62 -7 -2 -13 2 -13 7 0 6 6
10 13 10 9 0 12 10 9 30 -4 29 -6 30 -58 30 -41 0 -54 -4 -54 -15z m90 -109
c0 -14 -4 -28 -10 -31 -6 -4 -10 7 -10 24 0 17 5 31 10 31 6 0 10 -11 10 -24z"/>
<path d="M3294 5295 c-18 -14 -17 -14 15 -8 30 5 33 4 28 -11 -4 -10 -3 -15 3
-11 6 3 10 2 10 -4 0 -5 -5 -13 -10 -16 -6 -4 -8 -11 -5 -16 3 -5 -1 -6 -10
-3 -9 4 -14 13 -11 20 3 8 1 14 -4 14 -15 0 -12 -17 9 -58 19 -37 57 -79 65
-71 5 5 8 74 7 137 -1 42 -1 42 -39 42 -21 0 -47 -7 -58 -15z m86 -57 c0 -5
-4 -8 -10 -8 -5 0 -10 10 -10 23 0 18 2 19 10 7 5 -8 10 -18 10 -22z"/>
<path d="M3220 5282 c0 -18 56 -80 64 -71 2 2 -5 23 -15 47 -18 42 -49 58 -49
24z"/>
<path d="M4137 5289 c7 -7 15 -10 18 -7 3 3 -2 9 -12 12 -14 6 -15 5 -6 -5z"/>
<path d="M4235 5270 c3 -5 10 -10 16 -10 5 0 9 5 9 10 0 6 -7 10 -16 10 -8 0
-12 -4 -9 -10z"/>
<path d="M4587 5264 c-15 -8 -27 -19 -27 -25 0 -6 -3 -8 -7 -6 -5 3 -17 -4
-27 -14 -19 -19 -19 -19 12 -19 22 0 32 6 37 20 3 11 10 20 14 20 4 0 15 6 26
13 26 20 5 28 -28 11z"/>
<path d="M4750 5260 c0 -5 5 -10 10 -10 6 0 10 5 10 10 0 6 -4 10 -10 10 -5 0
-10 -4 -10 -10z"/>
<path d="M4191 5238 c1 -19 2 -19 6 -5 3 11 11 16 19 13 8 -3 14 -1 14 4 0 6
-9 10 -20 10 -14 0 -20 -6 -19 -22z"/>
<path d="M4320 5250 c-11 -7 -6 -10 20 -10 29 -1 32 -2 17 -11 -9 -5 -22 -7
-27 -4 -6 3 -10 1 -10 -6 0 -8 -4 -9 -13 0 -22 17 -70 -39 -62 -71 6 -24 9
-25 35 -15 21 8 30 20 35 44 5 29 10 33 37 33 20 0 39 9 54 25 l23 25 -47 0
c-26 0 -54 -5 -62 -10z"/>
<path d="M4060 5240 c0 -5 7 -10 16 -10 8 0 12 5 9 10 -3 6 -10 10 -16 10 -5
0 -9 -4 -9 -10z"/>
<path d="M4100 5241 c0 -6 7 -11 15 -11 8 0 15 -6 15 -13 0 -9 -11 -12 -35 -9
-33 4 -35 3 -35 -27 l0 -32 58 3 57 3 0 45 c0 45 0 45 -37 48 -22 2 -38 -1
-38 -7z"/>
<path d="M4251 5237 c-14 -6 -26 -18 -27 -25 -1 -7 0 -8 3 -2 2 5 8 8 13 5 4
-2 15 4 25 15 21 23 19 24 -14 7z"/>
<path d="M3220 5181 c0 -44 2 -49 20 -44 14 4 20 0 20 -12 0 -11 -5 -15 -15
-11 -10 4 -15 -1 -15 -14 0 -13 7 -20 20 -20 18 0 20 7 20 58 -1 49 -4 60 -25
75 l-25 18 0 -50z"/>
<path d="M3680 5205 c0 -8 4 -15 10 -15 5 0 7 7 4 15 -4 8 -8 15 -10 15 -2 0
-4 -7 -4 -15z"/>
<path d="M4196 5187 c3 -10 9 -15 12 -12 3 3 0 11 -7 18 -10 9 -11 8 -5 -6z"/>
<path d="M4349 5178 c-1 -7 -3 -22 -4 -33 -1 -11 -11 -35 -21 -54 -10 -18 -23
-42 -29 -52 -5 -10 -22 -21 -37 -24 -29 -7 -47 -40 -30 -57 6 -6 25 -2 53 13
24 12 38 24 32 26 -22 8 -15 35 7 28 15 -5 23 2 40 34 11 23 16 41 10 41 -5 0
-10 4 -10 10 0 5 7 7 15 4 18 -7 45 12 45 32 0 8 -10 14 -25 14 -16 0 -25 6
-25 15 0 18 -19 20 -21 3z"/>
<path d="M3680 5153 c0 -18 5 -33 10 -33 13 0 13 30 0 50 -7 11 -10 7 -10 -17z"/>
<path d="M4447 5173 c-4 -3 -7 -11 -7 -17 0 -6 5 -5 12 2 6 6 9 14 7 17 -3 3
-9 2 -12 -2z"/>
<path d="M3290 5132 c0 -23 5 -42 13 -45 9 -3 9 -7 -2 -20 -8 -11 -11 -26 -6
-44 7 -26 8 -27 19 -10 6 11 23 33 38 50 14 17 25 35 22 38 -2 4 -22 22 -44
39 l-40 32 0 -40z"/>
<path d="M3456 5153 c-11 -11 -6 -23 7 -18 7 3 13 -4 13 -21 1 -14 10 -31 20
-39 11 -7 15 -17 11 -22 -5 -4 -14 -1 -21 7 -27 34 -74 71 -79 62 -4 -5 26
-35 65 -67 l71 -58 -5 36 c-2 21 0 37 4 37 4 0 8 6 8 13 -1 15 -85 78 -94 70z"/>
<path d="M4192 5137 c-22 -23 -22 -24 -5 -70 10 -26 20 -47 23 -47 3 1 16 10
29 21 21 17 22 23 13 44 -7 14 -18 25 -27 25 -18 0 -20 16 -2 23 8 3 9 8 1 16
-7 8 -16 5 -32 -12z"/>
<path d="M3093 5139 c-12 -12 -6 -49 8 -49 15 0 22 22 9 30 -7 4 -9 13 -6 19
9 14 3 14 -11 0z"/>
<path d="M4070 5091 l0 -40 40 36 c22 20 40 38 40 40 0 1 -18 3 -40 3 -40 0
-40 0 -40 -39z"/>
<path d="M4425 5120 c-4 -6 5 -10 20 -10 15 0 24 4 20 10 -3 6 -12 10 -20 10
-8 0 -17 -4 -20 -10z"/>
<path d="M3913 5113 l-33 -4 0 -69 c0 -38 4 -71 9 -74 4 -3 6 -16 4 -29 -4
-21 1 -25 41 -37 37 -10 49 -10 61 0 11 9 13 16 5 24 -13 13 -13 39 0 31 6 -3
7 1 4 9 -8 20 4 20 25 2 19 -17 70 -10 78 11 6 16 -24 53 -41 50 -6 -1 -12 17
-14 46 -2 26 -8 47 -13 47 -7 0 -8 -23 -4 -65 5 -45 4 -65 -4 -65 -6 0 -11 17
-12 38 -2 89 -1 87 -39 88 -19 1 -50 -1 -67 -3z m36 -105 c1 -27 -3 -48 -8
-48 -11 0 -19 84 -12 120 l5 25 7 -25 c4 -14 7 -46 8 -72z m-29 12 c0 -5 -5
-10 -11 -10 -5 0 -7 5 -4 10 3 6 8 10 11 10 2 0 4 -4 4 -10z m60 -92 c0 -4 -7
-8 -15 -8 -8 0 -15 4 -15 8 0 5 7 9 15 9 8 0 15 -4 15 -9z"/>
<path d="M3196 5095 c-3 -8 -1 -15 4 -15 6 0 10 7 10 15 0 8 -2 15 -4 15 -2 0
-6 -7 -10 -15z"/>
<path d="M3757 5104 c-4 -4 -7 -20 -7 -36 0 -15 -4 -28 -10 -28 -5 0 -10 14
-10 30 l0 30 -63 0 c-35 0 -67 -3 -70 -6 -4 -4 17 -25 46 -46 l52 -39 3 30 c2
17 8 31 14 31 6 0 9 -16 6 -38 -2 -31 1 -42 18 -55 20 -15 23 -15 28 0 5 12
10 13 18 5 13 -13 -16 -47 -32 -37 -5 3 -10 0 -10 -8 0 -8 -10 -21 -22 -30
-18 -12 -20 -18 -11 -28 10 -10 15 -10 28 1 9 7 14 19 11 27 -6 15 10 18 19 3
4 -6 0 -21 -9 -34 -14 -23 -12 -36 6 -36 4 0 7 3 6 8 -2 4 -1 7 2 7 3 1 15 9
27 20 17 15 20 22 11 33 -7 8 -12 52 -12 105 -1 74 -4 92 -16 95 -9 1 -19 0
-23 -4z"/>
<path d="M3817 5018 c3 -51 9 -97 14 -102 5 -6 9 -1 9 12 0 29 17 28 24 0 2
-13 3 18 1 67 -3 50 -5 96 -5 103 0 6 -11 12 -24 12 -23 0 -23 0 -19 -92z"/>
<path d="M3126 5093 c-12 -12 -6 -33 10 -33 10 0 14 -6 10 -17 -2 -10 -7 -27
-10 -38 -3 -11 -2 -33 2 -49 7 -27 9 -28 24 -12 9 9 19 12 22 7 3 -5 -1 -12
-10 -15 -14 -5 -14 -8 0 -21 8 -9 13 -22 9 -31 -4 -12 -8 -11 -20 6 -21 30
-43 25 -43 -11 0 -29 1 -30 34 -25 19 3 38 1 41 -4 3 -6 26 -10 51 -10 32 0
44 4 44 15 0 8 -7 15 -15 15 -17 0 -20 16 -5 25 6 3 10 42 10 86 0 78 0 79
-25 79 -16 0 -25 -6 -25 -15 0 -20 -13 -19 -26 3 -14 21 -69 54 -78 45z m111
-139 c-9 -9 -28 6 -21 18 4 6 10 6 17 -1 6 -6 8 -13 4 -17z"/>
<path d="M3371 5054 c-11 -14 -18 -30 -15 -35 3 -5 -1 -9 -8 -9 -7 0 -21 -12
-32 -26 -15 -21 -17 -37 -13 -81 3 -30 7 -56 9 -57 2 -1 27 0 56 2 l54 4 -7
44 c-3 24 -3 44 2 44 4 0 31 -18 58 -40 52 -41 85 -51 85 -25 0 8 -5 15 -11
15 -8 0 -8 4 -1 13 21 25 0 62 -69 117 -38 30 -73 56 -78 58 -5 2 -18 -9 -30
-24z m59 -84 c0 -5 -4 -10 -10 -10 -5 0 -10 5 -10 10 0 6 5 10 10 10 6 0 10
-4 10 -10z m-30 -10 c0 -5 -4 -10 -10 -10 -5 0 -10 5 -10 10 0 6 5 10 10 10 6
0 10 -4 10 -10z m10 -64 c0 -3 -4 -8 -10 -11 -5 -3 -10 -1 -10 4 0 6 5 11 10
11 6 0 10 -2 10 -4z"/>
<path d="M3566 5073 c-10 -10 -7 -63 3 -60 5 1 8 -2 8 -8 -1 -5 -9 -9 -17 -8
-8 1 8 -18 35 -43 28 -24 55 -44 61 -44 6 0 16 18 22 40 11 43 3 57 -30 52
-12 -2 -16 2 -12 11 5 15 -59 71 -70 60z m39 -103 c3 -5 2 -10 -4 -10 -5 0
-13 5 -16 10 -3 6 -2 10 4 10 5 0 13 -4 16 -10z"/>
<path d="M4112 5062 l-22 -19 25 -23 c22 -21 28 -22 49 -11 21 12 22 16 13 42
-13 33 -35 37 -65 11z"/>
<path d="M3100 5035 c0 -8 4 -15 10 -15 5 0 7 7 4 15 -4 8 -8 15 -10 15 -2 0
-4 -7 -4 -15z"/>
<path d="M3703 4964 c3 -3 2 -17 -4 -31 -6 -16 -6 -22 1 -18 6 3 10 13 10 21
0 8 5 14 11 14 5 0 7 5 4 10 -3 6 -11 10 -17 10 -6 0 -9 -3 -5 -6z"/>
<path d="M4263 4942 l-53 -26 7 -40 c3 -23 12 -45 20 -49 12 -7 11 -11 -4 -23
-17 -14 -17 -15 5 -9 12 4 22 2 22 -4 0 -5 -8 -12 -17 -14 -10 -3 6 -5 35 -6
l52 -1 0 40 c0 22 -4 40 -10 40 -5 0 -10 7 -10 16 0 8 5 12 11 9 7 -5 8 8 3
41 -3 27 -7 50 -8 50 0 1 -25 -10 -53 -24z"/>
<path d="M4126 4945 c-8 -8 -22 -15 -31 -15 -24 0 -30 -29 -12 -58 18 -31 60
-36 65 -9 3 12 -1 15 -14 10 -11 -4 -15 -3 -10 5 3 6 2 13 -4 17 -5 3 -10 11
-10 17 0 6 12 3 26 -7 17 -11 29 -14 36 -7 7 7 3 12 -11 17 -12 3 -21 10 -21
15 0 5 8 6 18 3 15 -6 15 -5 3 10 -16 21 -16 21 -35 2z"/>
<path d="M4195 4951 c-3 -5 -1 -12 5 -16 5 -3 10 1 10 9 0 18 -6 21 -15 7z"/>
<path d="M3573 4919 c4 -13 7 -32 7 -41 0 -14 9 -18 40 -18 22 0 40 3 40 8 0
7 -50 49 -79 67 -11 6 -13 3 -8 -16z"/>
<path d="M3431 4898 c-3 -38 30 -64 52 -41 11 10 -13 32 -28 27 -7 -3 -15 3
-18 13 -4 15 -5 15 -6 1z"/>
<path d="M4163 4848 c-32 -45 -32 -47 -15 -68 11 -14 23 -19 35 -15 19 8 22
21 6 31 -8 5 -8 9 1 14 6 4 10 24 8 46 l-3 39 -32 -47z"/>
<path d="M3925 4871 c-7 -12 12 -24 25 -16 11 7 4 25 -10 25 -5 0 -11 -4 -15
-9z"/>
<path d="M4051 4829 c-24 -20 -30 -55 -16 -99 5 -17 10 -18 27 -9 11 6 17 13
14 16 -3 3 3 21 14 38 19 31 19 33 3 53 l-18 21 -24 -20z"/>
<path d="M3138 4833 c7 -3 16 -2 19 1 4 3 -2 6 -13 5 -11 0 -14 -3 -6 -6z"/>
<path d="M3468 4833 c-20 -3 -28 -10 -28 -24 0 -21 16 -26 23 -6 4 9 8 9 15
-2 7 -9 19 -11 41 -6 20 4 31 3 31 -4 0 -16 27 -13 34 4 4 12 11 13 31 5 35
-13 35 -14 35 15 0 25 -1 25 -77 24 -43 -1 -90 -4 -105 -6z"/>
<path d="M3830 4825 c0 -8 4 -15 10 -15 5 0 7 7 4 15 -4 8 -8 15 -10 15 -2 0
-4 -7 -4 -15z"/>
<path d="M3316 4817 c-11 -8 -16 -19 -12 -26 5 -8 14 -4 27 11 13 15 22 19 25
11 3 -7 12 -9 21 -6 11 4 14 2 9 -5 -4 -7 -14 -12 -22 -12 -8 0 -14 -5 -14
-10 0 -7 14 -8 38 -4 45 8 42 6 36 29 -6 25 -80 33 -108 12z"/>
<path d="M3875 4820 c-3 -6 1 -7 9 -4 18 7 21 14 7 14 -6 0 -13 -4 -16 -10z"/>
<path d="M3152 4800 c0 -14 2 -19 5 -12 2 6 2 18 0 25 -3 6 -5 1 -5 -13z"/>
<path d="M3192 4803 c4 -23 77 -31 89 -11 16 24 9 28 -42 28 -43 0 -50 -3 -47
-17z"/>
<path d="M3800 4807 c0 -20 30 -57 46 -57 8 0 14 9 14 21 0 15 -4 19 -16 15
-11 -4 -18 1 -21 14 -6 22 -23 27 -23 7z"/>
<path d="M3678 4803 c7 -3 16 -2 19 1 4 3 -2 6 -13 5 -11 0 -14 -3 -6 -6z"/>
<path d="M3720 4790 c-12 -8 -10 -10 8 -10 13 0 20 4 17 10 -7 12 -6 12 -25 0z"/>
<path d="M3466 4771 c-14 -5 -16 -10 -8 -15 7 -4 18 -4 25 1 6 4 18 8 25 9 8
2 16 5 20 8 8 8 -39 6 -62 -3z"/>
<path d="M3598 4773 c7 -3 16 -2 19 1 4 3 -2 6 -13 5 -11 0 -14 -3 -6 -6z"/>
<path d="M4115 4770 c-3 -5 -1 -10 4 -10 6 0 11 5 11 10 0 6 -2 10 -4 10 -3 0
-8 -4 -11 -10z"/>
<path d="M3217 4763 c-14 -4 -17 -11 -12 -34 4 -17 2 -29 -4 -29 -5 0 -12 10
-14 23 -2 12 -5 5 -5 -18 -1 -26 1 -35 7 -27 7 12 14 11 39 -2 40 -21 72 -21
72 0 0 27 -21 56 -37 50 -9 -4 -13 -1 -10 6 2 7 10 12 16 11 6 -2 11 4 11 12
0 15 -25 18 -63 8z"/>
<path d="M3296 4762 c-3 -6 3 -30 13 -54 16 -34 20 -38 20 -19 1 34 35 60 71
54 18 -2 30 0 30 6 0 6 -21 11 -49 11 -27 0 -56 3 -64 6 -8 3 -18 1 -21 -4z"/>
<path d="M3881 4754 c0 -11 3 -14 6 -6 3 7 2 16 -1 19 -3 4 -6 -2 -5 -13z"/>
<path d="M3681 4753 c3 -21 -3 -33 -17 -33 -8 0 -13 4 -10 9 9 13 -19 21 -74
21 -29 0 -50 -5 -52 -12 -3 -7 -18 -13 -34 -14 -16 -1 -32 -2 -35 -3 -3 0 -4
-14 -1 -31 4 -29 16 -39 26 -22 3 5 65 12 138 16 73 4 133 8 134 9 1 1 -1 17
-3 35 -5 29 -9 32 -39 32 -19 0 -33 -3 -33 -7z"/>
<path d="M4257 4752 c-30 -3 -37 -7 -35 -20 3 -12 13 -16 31 -15 15 1 27 -2
27 -8 0 -5 -11 -9 -25 -9 -23 0 -25 -4 -25 -44 0 -24 3 -58 6 -75 6 -27 10
-31 41 -31 29 0 33 3 28 19 -4 15 -1 18 19 16 21 -3 24 0 21 23 -2 15 -4 42
-4 60 -1 21 -6 32 -16 32 -8 0 -15 -4 -15 -10 0 -5 -6 -10 -14 -10 -9 0 -12 7
-9 20 3 13 14 20 29 20 13 0 24 3 24 8 0 15 -15 29 -30 28 -8 -1 -32 -2 -53
-4z m43 -129 c0 -22 -2 -25 -10 -13 -13 20 -13 40 0 40 6 0 10 -12 10 -27z
m-20 -28 c0 -8 -4 -15 -10 -15 -5 0 -10 7 -10 15 0 8 5 15 10 15 6 0 10 -7 10
-15z"/>
<path d="M4113 4743 c-21 -7 -15 -33 7 -33 11 0 20 6 20 14 0 18 -11 25 -27
19z"/>
<path d="M4160 4718 c0 -34 14 -29 23 7 4 19 5 18 6 -2 0 -12 -5 -28 -11 -35
-7 -7 -14 -41 -14 -75 l-2 -63 29 0 c16 0 29 4 29 9 0 21 -13 41 -26 41 -8 0
-14 5 -14 10 0 6 7 10 15 10 11 0 15 11 15 43 0 61 -9 87 -31 87 -15 0 -19 -7
-19 -32z m30 -148 c0 -5 -4 -10 -10 -10 -5 0 -10 5 -10 10 0 6 5 10 10 10 6 0
10 -4 10 -10z"/>
<path d="M3797 4734 c-11 -11 3 -24 26 -23 15 0 17 2 7 6 -8 3 -18 10 -21 15
-3 4 -8 5 -12 2z"/>
<path d="M3993 4733 c-18 -6 -16 -23 1 -23 17 0 30 16 19 23 -5 2 -14 2 -20 0z"/>
<path d="M3940 4720 c0 -5 5 -10 10 -10 6 0 10 5 10 10 0 6 -4 10 -10 10 -5 0
-10 -4 -10 -10z"/>
<path d="M3364 4714 c-16 -7 -5 -44 12 -44 8 0 14 10 14 25 0 25 -4 28 -26 19z"/>
<path d="M3410 4691 c0 -10 7 -21 15 -25 11 -4 15 1 15 19 0 16 -6 25 -15 25
-8 0 -15 -9 -15 -19z"/>
<path d="M3882 4693 c5 -24 27 -28 25 -4 -1 12 -7 21 -15 21 -7 0 -12 -8 -10
-17z"/>
<path d="M4046 4691 c-3 -4 8 -15 25 -25 29 -17 32 -40 4 -29 -11 4 -13 1 -9
-11 9 -24 54 -21 54 4 0 14 5 18 17 13 13 -5 15 -2 10 11 -4 10 -7 22 -7 27 0
5 -7 9 -15 9 -8 0 -15 -6 -15 -12 0 -9 -3 -10 -8 -2 -9 14 -50 25 -56 15z"/>
<path d="M3930 4680 c0 -5 5 -10 10 -10 6 0 10 5 10 10 0 6 -4 10 -10 10 -5 0
-10 -4 -10 -10z"/>
<path d="M3598 4663 c-10 -2 -18 -9 -18 -15 0 -6 10 -8 25 -4 18 5 27 1 35
-14 9 -16 15 -18 36 -10 14 6 30 8 34 5 9 -5 50 28 50 40 0 6 -138 4 -162 -2z"/>
<path d="M3182 4652 c-20 -13 3 -65 26 -58 9 3 37 11 62 17 42 12 43 13 15 17
-16 2 -38 10 -49 18 -23 16 -35 17 -54 6z"/>
<path d="M3517 4653 c-4 -3 -7 -16 -7 -27 0 -18 2 -19 11 -6 8 11 12 12 16 3
8 -22 23 -14 23 12 0 18 -5 25 -18 25 -10 0 -22 -3 -25 -7z"/>
<path d="M3353 4625 l-21 -25 49 0 c46 0 49 2 49 25 0 21 -5 25 -27 25 -17 0
-37 -10 -50 -25z"/>
<path d="M3468 4643 c-25 -6 -23 -33 2 -33 13 0 20 7 20 20 0 11 -1 19 -2 19
-2 -1 -11 -3 -20 -6z"/>
<path d="M3798 4643 c7 -3 16 -2 19 1 4 3 -2 6 -13 5 -11 0 -14 -3 -6 -6z"/>
<path d="M3890 4620 c0 -5 5 -10 11 -10 5 0 7 5 4 10 -3 6 -8 10 -11 10 -2 0
-4 -4 -4 -10z"/>
<path d="M4020 4620 c0 -5 5 -10 11 -10 5 0 7 5 4 10 -3 6 -8 10 -11 10 -2 0
-4 -4 -4 -10z"/>
<path d="M3593 4613 c9 -2 23 -2 30 0 6 3 -1 5 -18 5 -16 0 -22 -2 -12 -5z"/>
<path d="M3798 4600 c-14 -20 -17 -22 -17 -7 -1 9 -6 17 -12 17 -15 0 -7 -72
9 -78 8 -2 10 2 5 14 -5 14 -3 16 11 11 19 -8 29 10 24 44 l-3 23 -17 -24z"/>
<path d="M3680 4592 c0 -5 7 -9 15 -9 8 0 12 4 9 9 -3 4 -9 8 -15 8 -5 0 -9
-4 -9 -8z"/>
<path d="M4091 4583 c-14 -9 -21 -11 -17 -5 4 7 2 12 -4 12 -6 0 -10 -8 -8
-17 2 -10 10 -17 18 -15 7 2 17 -2 21 -9 8 -13 39 -5 39 11 0 5 -12 10 -27 11
l-28 1 30 13 c17 8 23 14 15 15 -9 0 -26 -8 -39 -17z"/>
<path d="M3377 4583 l-57 -4 6 -85 c6 -72 4 -87 -10 -103 -40 -44 7 -45 91 -2
23 11 54 21 68 21 20 0 25 5 25 26 0 17 6 28 20 31 13 4 20 14 20 30 0 13 4
21 10 18 6 -3 10 -19 10 -35 0 -22 -5 -29 -22 -32 -15 -2 -24 -11 -26 -25 -2
-15 -14 -24 -40 -31 -20 -6 -29 -10 -19 -11 13 -1 17 -10 17 -46 0 -43 1 -45
28 -45 21 0 29 5 29 18 -1 66 3 86 15 74 28 -28 33 -12 27 95 -4 60 -7 109 -8
111 -3 7 -71 0 -71 -8 0 -5 -9 -10 -20 -10 -11 0 -20 -6 -20 -14 0 -8 -5 -18
-11 -22 -8 -4 -9 3 -4 25 4 17 5 30 3 29 -2 -1 -29 -3 -61 -5z"/>
<path d="M3588 4555 c4 -35 5 -35 51 -34 42 1 43 2 16 9 -27 7 -28 8 -9 15 36
11 19 41 -25 43 -37 3 -37 2 -33 -33z"/>
<path d="M3705 4538 c-73 -127 -93 -168 -86 -172 4 -3 24 9 44 25 30 24 37 37
37 65 0 32 2 34 34 34 19 0 38 5 41 10 4 6 -10 10 -35 10 -25 0 -39 4 -35 10
3 6 15 10 26 10 20 0 23 12 11 42 -6 14 -13 7 -37 -34z"/>
<path d="M3938 4583 c7 -3 16 -2 19 1 4 3 -2 6 -13 5 -11 0 -14 -3 -6 -6z"/>
<path d="M3212 4572 c-20 -3 -22 -7 -16 -35 9 -45 8 -44 61 -38 47 6 48 7 49
41 1 34 0 35 -35 35 -20 0 -46 -1 -59 -3z"/>
<path d="M3680 4559 c0 -5 5 -7 10 -4 6 3 10 8 10 11 0 2 -4 4 -10 4 -5 0 -10
-5 -10 -11z"/>
<path d="M3835 4550 c-3 -5 -1 -10 4 -10 6 0 11 5 11 10 0 6 -2 10 -4 10 -3 0
-8 -4 -11 -10z"/>
<path d="M3891 4547 c-8 -10 -7 -14 2 -14 8 0 14 6 14 14 0 7 -1 13 -2 13 -2
0 -8 -6 -14 -13z"/>
<path d="M3937 4513 c-13 -12 -7 -33 8 -33 8 0 15 9 15 20 0 20 -11 26 -23 13z"/>
<path d="M3810 4486 c10 -28 42 -29 75 -1 l30 25 -56 -2 c-51 -3 -56 -5 -49
-22z"/>
<path d="M3590 4479 c0 -15 5 -20 22 -17 34 5 37 38 4 38 -20 0 -26 -5 -26
-21z"/>
<path d="M3244 4458 c4 -13 9 -36 13 -51 3 -15 11 -26 17 -24 6 3 10 10 9 16
-2 6 3 10 10 9 7 -2 13 11 15 35 3 37 3 37 -34 37 -33 0 -36 -2 -30 -22z"/>
<path d="M3775 4470 c-3 -5 -1 -10 4 -10 6 0 11 5 11 10 0 6 -2 10 -4 10 -3 0
-8 -4 -11 -10z"/>
<path d="M3894 4472 c-6 -4 -14 -16 -18 -27 -5 -13 -10 -15 -13 -7 -3 6 -16
12 -29 12 -21 0 -23 -3 -14 -19 15 -30 13 -46 -4 -32 -15 13 -18 12 -111 -43
-48 -29 -58 -56 -21 -56 17 0 26 5 26 16 0 10 6 14 14 11 8 -3 22 3 32 14 23
26 34 24 34 -6 0 -23 4 -25 44 -25 24 0 64 3 90 6 l46 7 0 58 c0 41 -4 59 -13
59 -7 0 -19 9 -27 20 -16 22 -20 23 -36 12z m46 -127 c0 -8 -7 -15 -15 -15 -8
0 -15 7 -15 15 0 8 7 15 15 15 8 0 15 -7 15 -15z"/>
<path d="M3720 4454 c0 -14 3 -14 15 -4 8 7 15 14 15 16 0 2 -7 4 -15 4 -8 0
-15 -7 -15 -16z"/>
<path d="M4001 4433 c-1 -17 -7 -34 -13 -36 -9 -4 -10 -6 -1 -6 8 -1 10 -13 6
-36 -4 -28 -2 -35 11 -35 13 0 16 10 15 53 -1 60 -17 114 -18 60z"/>
<path d="M3590 4418 c1 -31 1 -32 15 -14 19 25 19 46 0 46 -10 0 -15 -10 -15
-32z"/>
<path d="M3754 4435 c-4 -8 -12 -15 -20 -15 -8 0 -14 -7 -14 -15 0 -19 5 -19
41 2 16 10 29 23 29 30 0 18 -29 16 -36 -2z"/>
<path d="M3637 4349 c-21 -17 -36 -33 -34 -35 6 -6 87 48 87 58 0 15 -15 8
-53 -23z"/>
<path d="M3410 4360 l-25 -8 28 -1 c15 -1 27 4 27 9 0 6 -1 10 -2 9 -2 -1 -14
-5 -28 -9z"/>
<path d="M3348 4332 c-16 -7 -28 -18 -27 -25 1 -18 17 -54 18 -40 1 6 10 9 21
6 21 -5 19 -18 -2 -18 -6 0 -13 -6 -15 -12 -3 -9 7 -13 32 -13 34 0 36 2 24
17 -15 18 -16 18 36 -3 9 -4 15 0 15 9 0 9 -8 18 -17 20 -17 4 -17 5 0 6 26 2
23 51 -3 51 -11 0 -20 -4 -20 -10 0 -5 -5 -10 -11 -10 -6 0 -8 7 -5 16 3 8 2
13 -3 9 -5 -3 -11 -2 -13 3 -1 4 -15 2 -30 -6z m22 -42 c0 -5 -2 -10 -4 -10
-3 0 -8 5 -11 10 -3 6 -1 10 4 10 6 0 11 -4 11 -10z"/>
<path d="M3546 4334 c-9 -24 -2 -26 12 -4 7 11 8 20 3 20 -5 0 -12 -7 -15 -16z"/>
<path d="M3635 4310 c-3 -5 -1 -10 4 -10 6 0 11 5 11 10 0 6 -2 10 -4 10 -3 0
-8 -4 -11 -10z"/>
<path d="M3755 4310 c-3 -5 -1 -10 4 -10 6 0 11 5 11 10 0 6 -2 10 -4 10 -3 0
-8 -4 -11 -10z"/>
<path d="M3603 4235 c5 -52 10 -60 32 -52 10 5 15 20 15 52 0 42 -2 45 -26 45
-26 0 -26 -2 -21 -45z"/>
<path d="M3470 4259 c0 -5 5 -7 10 -4 6 3 10 8 10 11 0 2 -4 4 -10 4 -5 0 -10
-5 -10 -11z"/>
<path d="M3552 4258 c-7 -7 -12 -27 -12 -45 0 -29 3 -33 25 -33 21 0 25 5 25
29 0 54 -14 73 -38 49z"/>
<path d="M3300 4223 c0 -21 3 -24 9 -14 5 8 7 20 4 28 -8 21 -13 15 -13 -14z"/>
<path d="M3488 4219 c-36 -27 -35 -39 2 -39 27 0 30 3 30 30 0 35 2 35 -32 9z"/>
<path d="M3410 4199 c0 -5 5 -7 10 -4 6 3 10 8 10 11 0 2 -4 4 -10 4 -5 0 -10
-5 -10 -11z"/>
<path d="M3423 4183 c-16 -6 -17 -53 -2 -53 5 0 7 5 4 10 -3 6 -2 10 4 10 5 0
11 -5 13 -11 2 -7 10 -10 17 -8 11 4 10 9 -3 22 -10 9 -14 21 -11 27 7 11 -2
12 -22 3z"/>
<path d="M3302 4160 c0 -14 2 -19 5 -12 2 6 2 18 0 25 -3 6 -5 1 -5 -13z"/>
<path d="M3350 4160 c0 -5 9 -10 19 -10 11 0 23 5 26 10 4 6 -5 10 -19 10 -14
0 -26 -4 -26 -10z"/>
<path d="M3551 4161 c-10 -7 -12 -21 -7 -57 3 -26 9 -50 12 -53 6 -7 36 11 35
22 -1 4 -1 27 -1 52 0 46 -10 54 -39 36z"/>
<path d="M3610 4123 c0 -44 2 -49 23 -51 21 -1 23 3 22 46 0 41 -3 47 -22 50
-21 3 -23 -1 -23 -45z"/>
<path d="M3503 4142 c10 -10 17 -27 17 -37 0 -10 3 -16 6 -12 12 11 -8 67 -23
67 -14 0 -14 -2 0 -18z"/>
<path d="M3368 4133 c6 -2 18 -2 25 0 6 3 1 5 -13 5 -14 0 -19 -2 -12 -5z"/>
<path d="M3480 4133 c0 -7 -12 -13 -27 -14 -16 -1 -38 -4 -50 -7 l-23 -7 21
-34 c16 -27 23 -31 30 -20 8 12 10 12 18 0 8 -12 12 -12 25 -2 9 7 22 11 30 8
11 -5 13 0 6 23 -10 36 -29 69 -30 53z"/>
<path d="M3350 4075 c0 -28 4 -35 20 -35 24 0 24 3 5 40 -20 39 -25 38 -25 -5z"/>
<path d="M3272 4070 c0 -19 2 -27 5 -17 2 9 2 25 0 35 -3 9 -5 1 -5 -18z"/>
<path d="M3300 4070 c0 -16 5 -30 10 -30 6 0 10 14 10 30 0 17 -4 30 -10 30
-5 0 -10 -13 -10 -30z"/>
<path d="M3664 4053 c-49 -4 -51 -5 -46 -31 3 -15 10 -31 16 -35 8 -6 7 -10
-1 -14 -15 -6 -17 -39 -3 -48 6 -3 10 -18 10 -32 0 -15 3 -23 8 -19 9 9 9 13
11 81 l1 55 35 0 c31 0 35 3 35 25 0 14 -3 24 -7 23 -5 -1 -31 -3 -59 -5z"/>
<path d="M3556 4033 c-13 -13 -5 -43 19 -70 l24 -28 1 50 c0 43 -3 51 -19 52
-10 1 -22 -1 -25 -4z"/>
<path d="M3457 4021 l-28 -6 32 -50 c49 -78 69 -97 85 -80 8 7 14 18 14 23 0
6 6 12 13 15 7 2 -4 13 -24 26 -31 18 -35 25 -31 51 5 32 -2 35 -61 21z"/>
<path d="M3282 3998 c2 -13 8 -23 13 -23 6 0 11 10 13 23 2 15 -2 22 -13 22
-11 0 -15 -7 -13 -22z"/>
<path d="M3321 4003 c1 -10 5 -31 9 -48 7 -27 8 -25 9 18 0 26 -3 47 -9 47 -5
0 -9 -8 -9 -17z"/>
<path d="M3360 3999 c0 -12 8 -28 18 -36 16 -14 16 -14 0 -9 -14 4 -18 0 -18
-17 0 -49 13 -97 26 -97 8 0 14 5 14 11 0 6 9 8 21 4 14 -5 25 -2 30 6 8 12
10 12 18 0 7 -11 10 -11 15 0 5 11 7 11 12 2 3 -7 13 -13 22 -13 13 1 10 6
-10 21 -15 11 -43 49 -63 84 -29 52 -41 65 -60 65 -19 0 -25 -5 -25 -21z"/>
<path d="M3680 3968 c0 -18 6 -23 25 -23 19 0 25 5 25 23 0 17 -6 22 -25 22
-19 0 -25 -5 -25 -22z"/>
<path d="M3694 3916 c-14 -15 -24 -56 -15 -56 5 0 15 8 23 18 18 20 10 58 -8
38z"/>
<path d="M3583 3898 c-13 -13 -23 -30 -23 -37 0 -8 7 -10 23 -5 29 9 29 8 25
39 l-3 27 -22 -24z"/>
<path d="M3545 3832 c-22 -8 -30 -52 -8 -52 7 0 14 10 14 23 1 16 3 17 6 5 2
-9 10 -16 16 -14 7 1 9 1 5 -1 -16 -9 -8 -34 10 -31 12 2 18 14 20 41 3 33 1
37 -20 36 -13 -1 -32 -4 -43 -7z"/>
<path d="M3645 3830 c4 -6 11 -8 16 -5 14 9 11 15 -7 15 -8 0 -12 -5 -9 -10z"/>
<path d="M3690 3660 c0 -13 18 -22 24 -11 3 5 -1 11 -9 15 -8 3 -15 1 -15 -4z"/>
<path d="M3695 3560 c3 -5 8 -10 11 -10 2 0 4 5 4 10 0 6 -5 10 -11 10 -5 0
-7 -4 -4 -10z"/>
<path d="M3271 3419 c-13 -11 -20 -23 -16 -27 4 -4 10 -1 12 6 5 13 33 17 33
5 0 -19 48 -6 58 15 9 21 8 22 -26 22 -22 -1 -47 -9 -61 -21z"/>
<path d="M3458 3383 c-27 -14 -48 -30 -48 -34 0 -10 65 -39 87 -38 10 0 13 3
6 6 -18 7 -16 38 2 53 16 13 21 40 8 40 -5 0 -29 -12 -55 -27z"/>
<path d="M3290 3371 c0 -19 22 -23 38 -7 15 15 14 16 -11 16 -15 0 -27 -4 -27
-9z"/>
<path d="M3353 3327 c-17 -20 -17 -20 0 -14 10 4 27 7 38 7 11 0 16 5 13 13
-7 20 -31 17 -51 -6z"/>
<path d="M3505 3240 c-6 -10 -56 -34 -90 -44 -22 -6 -65 -45 -107 -97 -30 -35
-34 -49 -18 -49 6 0 10 -7 10 -15 0 -18 -16 -20 -23 -2 -3 6 -6 -5 -6 -25 -1
-51 49 -98 104 -98 22 0 25 4 25 33 0 38 -28 86 -40 67 -5 -8 -9 -7 -13 4 -7
18 8 32 18 16 12 -20 23 -9 30 29 4 27 19 51 50 81 34 34 42 47 33 57 -8 10
-6 13 13 11 18 -2 24 2 25 20 1 24 -1 27 -11 12z m-105 -94 c0 -3 -4 -8 -10
-11 -5 -3 -10 -1 -10 4 0 6 5 11 10 11 6 0 10 -2 10 -4z m-25 -76 c3 -5 1 -10
-4 -10 -6 0 -11 5 -11 10 0 6 2 10 4 10 3 0 8 -4 11 -10z m-45 -46 c0 -12 -11
-29 -25 -38 -27 -18 -35 -7 -10 14 8 7 15 27 15 44 0 24 3 27 10 16 5 -8 10
-25 10 -36z"/>
<path d="M3483 3147 c-17 -17 -28 -38 -25 -46 3 -10 0 -12 -11 -8 -36 14 -40
-26 -27 -215 1 -10 6 -18 12 -18 7 0 6 -5 -2 -15 -13 -16 -7 -45 10 -45 7 0 9
46 6 143 -4 117 -3 134 6 97 13 -52 12 -51 30 -54 7 -1 19 -5 26 -10 20 -12
28 2 14 24 -8 13 -8 20 -2 20 7 0 9 26 5 77 -3 42 -7 78 -8 80 -2 1 -17 -12
-34 -30z m37 -47 c0 -5 -7 -7 -15 -4 -8 4 -12 10 -9 15 6 11 24 2 24 -11z
m-23 -16 c-3 -3 -12 -4 -19 -1 -8 3 -5 6 6 6 11 1 17 -2 13 -5z"/>
<path d="M3460 2931 c0 -36 3 -41 22 -41 20 0 20 1 5 13 -12 9 -14 16 -6 27 8
11 12 12 16 3 7 -19 30 -16 35 5 4 15 1 18 -18 14 -13 -2 -31 1 -39 8 -13 11
-15 7 -15 -29z"/>
<path d="M3266 2941 c-4 -7 -5 -15 -2 -18 9 -9 19 4 14 18 -4 11 -6 11 -12 0z"/>
<path d="M3247 2891 c-2 -9 1 -27 5 -41 6 -16 6 -26 -1 -28 -21 -7 -11 -32 12
-32 15 0 18 3 9 9 -10 6 -10 10 2 20 8 6 13 23 11 37 -1 13 2 27 6 30 5 3 9
-10 9 -28 0 -35 26 -68 48 -60 15 5 15 25 2 74 -10 36 -12 37 -55 36 -32 0
-45 -5 -48 -17z"/>
<path d="M3391 2892 c0 -7 -5 -10 -11 -7 -14 9 -13 -78 2 -93 9 -9 7 -12 -8
-12 -12 0 -31 -8 -42 -19 -24 -20 -30 -61 -9 -61 22 0 40 18 34 34 -4 10 -1
16 8 16 8 0 15 -6 16 -12 0 -7 7 2 15 21 13 28 13 36 2 43 -8 5 -9 11 -3 16 6
4 7 24 4 47 -3 22 -7 34 -8 27z"/>
<path d="M3177 2763 c-3 -3 -22 -5 -41 -5 -33 0 -36 -3 -36 -28 0 -29 -15 -40
-55 -40 -32 0 -41 -18 -19 -36 13 -11 14 -14 4 -11 -13 4 -14 -8 -10 -76 5
-77 6 -82 30 -87 14 -3 29 -16 35 -28 11 -24 26 -27 55 -12 13 7 16 17 13 32
-8 30 -23 49 -34 42 -5 -3 -9 1 -9 10 0 8 6 17 13 19 6 3 0 6 -15 6 -16 1 -28
5 -28 9 0 5 -10 8 -22 8 -15 -1 -23 6 -26 19 -3 19 -2 19 9 2 10 -17 11 -18
24 -1 12 16 13 16 24 -4 11 -21 13 -21 36 -6 14 9 25 23 25 32 0 8 7 23 16 33
23 25 11 62 -23 76 l-28 11 36 -1 c30 -1 69 19 69 35 0 6 -38 7 -43 1z"/>
<path d="M3250 2761 c0 -6 5 -13 10 -16 6 -3 10 1 10 9 0 9 -4 16 -10 16 -5 0
-10 -4 -10 -9z"/>
<path d="M3290 2730 c0 -5 -10 -9 -22 -7 -14 1 -23 -4 -26 -15 -3 -15 0 -15
27 -5 17 6 31 17 31 24 0 7 -2 13 -5 13 -3 0 -5 -4 -5 -10z"/>
<path d="M3247 2674 c-8 -9 3 -66 17 -83 8 -11 8 -15 -2 -18 -6 -3 -10 -8 -7
-13 9 -14 42 1 54 24 20 37 -35 117 -62 90z"/>
<path d="M3310 2665 c0 -8 6 -15 14 -15 8 0 16 7 20 15 4 10 -1 15 -14 15 -11
0 -20 -7 -20 -15z"/>
<path d="M3188 2641 c-12 -14 -13 -22 -5 -30 8 -8 8 -14 0 -22 -8 -8 -8 -20
-3 -35 7 -17 6 -24 -3 -24 -7 0 -13 -9 -13 -20 0 -11 4 -20 8 -20 4 0 8 5 8
10 0 6 11 16 25 22 23 10 24 14 19 67 -8 67 -15 77 -36 52z"/>
<path d="M3110 2416 c0 -2 7 -6 15 -10 8 -3 15 -1 15 4 0 6 -7 10 -15 10 -8 0
-15 -2 -15 -4z"/>
<path d="M3061 2353 c1 -34 2 -35 9 -13 11 36 11 50 0 50 -5 0 -10 -17 -9 -37z"/>
<path d="M3031 2354 c0 -11 3 -14 6 -6 3 7 2 16 -1 19 -3 4 -6 -2 -5 -13z"/>
<path d="M3060 2284 c0 -6 7 -19 16 -30 14 -18 14 -18 3 6 -14 31 -19 36 -19
24z"/>
<path d="M3047 2243 c-4 -3 -7 -11 -7 -17 0 -6 5 -5 12 2 6 6 9 14 7 17 -3 3
-9 2 -12 -2z"/>
<path d="M4140 6416 c0 -18 31 -29 44 -16 8 8 7 14 -4 20 -22 14 -40 12 -40
-4z"/>
<path d="M3915 3641 c-3 -5 -1 -12 5 -16 5 -3 10 1 10 9 0 18 -6 21 -15 7z"/>
<path d="M3970 3593 c0 -10 4 -14 8 -8 4 6 11 13 16 18 5 4 2 7 -7 7 -10 0
-17 -8 -17 -17z"/>
<path d="M2812 1583 c-11 -10 -23 -29 -27 -42 -7 -23 -6 -24 31 -18 22 4 45 7
52 7 13 0 16 28 6 54 -8 21 -37 20 -62 -1z"/>
<path d="M2835 1500 c-3 -6 1 -7 9 -4 18 7 21 14 7 14 -6 0 -13 -4 -16 -10z"/>
<path d="M2881 1501 c-7 -5 -12 -14 -10 -20 3 -6 9 -7 18 -2 7 5 12 14 10 20
-3 6 -9 7 -18 2z"/>
<path d="M7946 3208 c3 -5 10 -6 15 -3 13 9 11 12 -6 12 -8 0 -12 -4 -9 -9z"/>
<path d="M7945 3129 c-11 -17 -2 -18 19 -3 17 12 17 14 4 14 -9 0 -20 -5 -23
-11z"/>
<path d="M7980 3106 c0 -8 5 -18 10 -21 6 -3 10 1 10 9 0 8 -4 18 -10 21 -5 3
-10 -1 -10 -9z"/>
<path d="M7918 3092 c-10 -2 -18 -10 -18 -18 0 -18 8 -18 27 1 18 18 15 23 -9
17z"/>
<path d="M7951 3062 c-13 -25 -14 -32 -2 -32 9 0 23 41 16 48 -2 2 -8 -5 -14
-16z"/>
<path d="M7880 3025 c0 -8 -7 -15 -15 -15 -8 0 -15 -7 -15 -16 0 -10 4 -12 13
-7 6 4 20 6 30 5 18 -3 23 13 7 23 -6 4 -8 11 -5 16 4 5 1 9 -4 9 -6 0 -11 -7
-11 -15z"/>
</g>
</svg>
