<?xml version="1.0" standalone="no"?>
<!DOCTYPE svg PUBLIC "-//W3C//DTD SVG 20010904//EN"
 "http://www.w3.org/TR/2001/REC-SVG-20010904/DTD/svg10.dtd">
<svg version="1.0" xmlns="http://www.w3.org/2000/svg"
 width="800.000000pt" height="800.000000pt" viewBox="0 0 800.000000 800.000000"
 preserveAspectRatio="xMidYMid meet">
<metadata>
Created by potrace 1.16, written by Peter Selinger 2001-2019
</metadata>
<g transform="translate(0.000000,800.000000) scale(0.100000,-0.100000)"
fill="#000000" stroke="none">
<path d="M0 4000 l0 -4000 1890 0 1891 0 -2 133 c-1 132 6 187 22 187 5 0 5
-15 1 -32 -7 -35 -8 -51 -4 -195 l2 -93 2100 0 2100 0 0 2754 c0 2194 -3 2755
-12 2759 -10 4 -10 6 0 6 9 1 12 48 12 200 0 150 -3 201 -12 204 -10 4 -10 6
0 6 9 1 12 215 12 1036 l0 1035 -1215 0 c-777 0 -1215 -3 -1215 -10 0 -5 -7
-7 -15 -4 -9 4 -15 0 -15 -9 0 -8 -7 -17 -15 -21 -18 -6 -20 5 -3 22 6 6 8 15
3 19 -4 5 -10 2 -12 -4 -5 -15 -43 -17 -43 -3 0 11 -103 14 -113 3 -4 -3 -107
-5 -230 -4 l-222 2 -79 -46 c-43 -25 -82 -45 -85 -45 -4 0 -18 23 -31 51 l-24
51 -151 -6 c-82 -3 -301 -9 -485 -12 -242 -4 -337 -9 -342 -17 -5 -8 -10 -5
-14 11 -6 21 -10 22 -140 22 -98 0 -134 -3 -134 -12 0 -9 -3 -9 -12 0 -9 9
-403 12 -1710 12 l-1698 0 0 -4000z m4206 3943 c-8 -8 -36 5 -36 17 0 7 6 7
21 0 11 -7 18 -14 15 -17z m1244 -12 c-19 -39 -37 -57 -46 -48 -6 6 47 87 58
87 5 0 -1 -18 -12 -39z m-45 9 c3 -5 -3 -10 -14 -10 -11 0 -23 5 -26 10 -3 6
3 10 14 10 11 0 23 -4 26 -10z m77 -12 c-6 -6 -15 -8 -19 -4 -4 4 -1 11 7 16
19 12 27 3 12 -12z m-1242 5 c0 -5 -5 -15 -10 -23 -8 -12 -10 -11 -10 8 0 12
5 22 10 22 6 0 10 -3 10 -7z m18 -62 c3 -8 -1 -12 -9 -9 -7 2 -15 10 -17 17
-3 8 1 12 9 9 7 -2 15 -10 17 -17z m52 4 c14 -16 10 -18 -14 -9 -9 3 -16 10
-16 15 0 14 16 11 30 -6z m2580 -18 c0 -4 -9 -3 -20 3 -11 6 -20 15 -20 20 0
6 9 5 20 -2 11 -7 20 -16 20 -21z m-1493 -12 c-4 -8 -11 -15 -17 -15 -14 0
-13 27 3 33 16 6 21 1 14 -18z m-1042 -6 c11 -17 -1 -21 -15 -4 -8 9 -8 15 -2
15 6 0 14 -5 17 -11z m185 -9 c0 -5 -9 -6 -20 -3 -11 3 -17 9 -15 14 7 10 35
1 35 -11z m2390 10 c8 -5 11 -12 7 -16 -4 -4 -15 0 -24 9 -18 18 -8 23 17 7z
m-2510 -10 c0 -5 -10 -10 -22 -9 -22 0 -22 1 -3 9 11 5 21 9 23 9 1 1 2 -3 2
-9z m55 0 c-3 -5 -13 -10 -21 -10 -8 0 -14 5 -14 10 0 6 9 10 21 10 11 0 17
-4 14 -10z m115 -10 c12 -8 11 -10 -7 -10 -13 0 -23 5 -23 10 0 13 11 13 30 0z
m-1067 -88 c48 -38 104 -91 125 -117 l37 -48 3 54 c1 30 6 61 10 69 4 8 9
-146 12 -343 l5 -357 53 46 c28 25 52 41 52 36 0 -6 -25 -32 -55 -59 l-54 -49
6 -137 c6 -127 12 -154 28 -126 5 6 12 4 21 -8 12 -16 13 -11 14 40 0 60 18
83 43 58 8 -8 7 -11 -6 -11 -13 0 -17 -9 -17 -39 0 -47 8 -71 24 -71 6 0 17
-12 23 -27 7 -16 23 -41 36 -57 l23 -29 -1 54 c-1 30 -5 72 -9 94 -16 91 -16
94 -2 89 8 -3 17 -26 20 -52 9 -62 16 -141 16 -169 0 -18 6 -23 25 -23 l25 0
0 139 c0 83 4 142 10 146 7 4 10 -68 10 -209 0 -137 -4 -216 -10 -216 -6 0
-10 27 -10 60 l0 60 -34 0 c-39 0 -55 -16 -47 -45 10 -35 25 -54 51 -64 21 -8
15 -10 -36 -10 l-60 -1 -23 41 c-22 39 -72 79 -98 79 -9 0 -13 -18 -13 -55 l0
-55 58 -1 c68 -1 59 -6 -21 -12 l-59 -4 4 64 3 63 -153 0 c-100 0 -151 3 -147
10 4 6 67 10 156 10 l151 0 -6 143 c-3 78 -9 301 -12 494 l-6 353 -31 37 c-43
50 -70 76 -166 157 -44 38 -81 73 -81 79 0 6 5 6 13 -1 6 -5 52 -41 100 -80z
m1187 78 c0 -5 -9 -10 -21 -10 -11 0 -17 5 -14 10 3 6 13 10 21 10 8 0 14 -4
14 -10z m2264 -6 c9 -22 -3 -32 -14 -14 -12 19 -12 30 -1 30 5 0 12 -7 15 -16z
m-2925 -23 c25 -35 16 -49 -11 -16 -11 14 -26 25 -34 25 -8 0 -14 5 -14 10 0
21 40 9 59 -19z m594 22 c-7 -2 -19 -2 -25 0 -7 3 -2 5 12 5 14 0 19 -2 13 -5z
m117 -8 c14 -16 10 -18 -14 -9 -9 3 -16 10 -16 15 0 14 16 11 30 -6z m614 0
c-4 -8 -10 -15 -15 -15 -4 0 -6 7 -3 15 4 8 10 15 15 15 4 0 6 -7 3 -15z
m-558 -42 c-8 -8 -36 5 -36 17 0 7 6 7 21 0 11 -7 18 -14 15 -17z m2207 10
c-7 -2 -19 -2 -25 0 -7 3 -2 5 12 5 14 0 19 -2 13 -5z m-1681 -25 c-6 -6 -15
-8 -19 -4 -4 4 -1 11 7 16 19 12 27 3 12 -12z m-484 -16 c2 -7 -2 -10 -12 -6
-9 3 -16 11 -16 16 0 13 23 5 28 -10z m437 -2 c-3 -5 -14 -10 -23 -10 -15 0
-15 2 -2 10 20 13 33 13 25 0z m-389 -37 c-7 -7 -26 7 -26 19 0 6 6 6 15 -2 9
-7 13 -15 11 -17z m338 19 c2 -4 -4 -13 -15 -20 -21 -13 -22 -12 -13 12 7 17
20 21 28 8z m2167 -25 c-8 -8 -11 -7 -11 4 0 9 3 19 7 23 4 4 9 2 11 -4 3 -7
-1 -17 -7 -23z m-2467 -13 c10 -25 -1 -29 -14 -5 -6 12 -7 21 -1 21 5 0 12 -7
15 -16z m250 -18 c-6 -16 -24 -23 -24 -8 0 10 22 33 27 28 2 -2 1 -11 -3 -20z
m-189 -6 c3 -5 -3 -10 -14 -10 -12 0 -21 5 -21 10 0 6 6 10 14 10 8 0 18 -4
21 -10z m2395 -4 c0 -8 -4 -18 -10 -21 -5 -3 -10 3 -10 14 0 12 5 21 10 21 6
0 10 -6 10 -14z m-2285 -23 c9 -25 -2 -26 -24 -4 -26 26 -26 31 -2 24 11 -3
22 -12 26 -20z m45 -2 c0 -5 -7 -14 -15 -21 -12 -10 -15 -10 -15 2 0 8 3 18 7
21 9 10 23 9 23 -2z m-107 -101 c-3 -19 -13 -46 -23 -60 -22 -32 -34 -80 -20
-80 6 0 9 -4 5 -9 -8 -14 -45 -9 -45 6 0 6 5 15 10 18 16 10 12 23 -11 30 -13
4 -27 0 -40 -11 -10 -9 -19 -13 -19 -7 0 5 8 17 18 26 9 9 28 36 42 61 23 43
24 47 7 63 -16 16 -15 18 5 41 l23 23 27 -33 c23 -27 26 -39 21 -68z m2337 65
c0 -8 -4 -15 -10 -15 -5 0 -10 7 -10 15 0 8 5 15 10 15 6 0 10 -7 10 -15z
m-2279 -22 c-8 -15 -10 -15 -11 -2 0 17 10 32 18 25 2 -3 -1 -13 -7 -23z
m2289 -28 c7 -8 8 -15 2 -15 -5 0 -15 7 -22 15 -7 8 -8 15 -2 15 5 0 15 -7 22
-15z m-2312 -51 c-31 -44 -44 -52 -32 -20 3 9 10 16 15 16 5 0 9 13 9 29 0 24
3 28 20 24 18 -5 18 -8 -12 -49z m-757 -54 c39 0 50 -7 105 -72 6 -7 32 -30
58 -51 35 -29 46 -45 46 -66 0 -35 31 -66 48 -49 8 8 12 8 12 1 0 -6 -7 -17
-16 -24 -14 -12 -20 -9 -40 16 -13 17 -24 40 -24 52 0 14 -20 39 -55 69 -30
26 -55 53 -55 60 0 7 -9 16 -20 19 -11 3 -20 11 -20 16 0 5 -16 9 -35 9 -27 0
-42 -8 -64 -32 -26 -29 -28 -35 -15 -49 8 -9 17 -46 21 -81 5 -63 5 -66 -18
-74 -13 -4 -33 -7 -44 -6 -11 1 -28 -9 -38 -23 l-17 -24 39 -21 c50 -25 194
-28 225 -5 11 8 28 15 38 15 10 0 30 7 43 16 52 34 22 -5 -44 -57 -80 -62
-109 -102 -132 -176 l-17 -53 39 -10 c51 -14 70 -42 58 -83 -13 -46 -11 -87 4
-87 12 0 58 68 58 87 0 5 6 15 13 23 21 23 40 64 27 56 -6 -4 -11 -3 -11 1 0
5 8 13 18 19 9 6 30 34 45 62 27 49 27 51 7 57 -11 3 -20 11 -20 16 0 13 12
11 33 -6 11 -7 25 -11 33 -8 8 3 14 0 14 -6 0 -6 -6 -11 -14 -11 -7 0 -28 -28
-46 -62 -74 -139 -93 -173 -130 -232 -22 -34 -46 -68 -55 -77 -8 -9 -15 -20
-15 -25 0 -5 -17 -34 -37 -64 -20 -30 -42 -66 -50 -80 -12 -23 -13 -23 -13 -4
0 11 18 46 40 78 22 31 40 63 40 70 0 8 6 19 14 25 9 8 16 40 18 89 3 42 8 84
12 92 9 22 -14 47 -50 54 -36 8 -32 19 -90 -236 -37 -164 -38 -168 -63 -168
-23 1 -24 2 -10 13 11 8 33 81 63 203 25 104 46 196 46 203 0 32 43 149 63
172 57 63 59 60 -29 58 -65 -1 -88 2 -123 20 -38 20 -152 50 -188 51 -10 0
-13 -23 -13 -84 0 -76 2 -86 22 -100 12 -9 26 -16 29 -16 12 0 16 33 7 58 -4
12 -4 22 1 22 19 0 28 -45 15 -80 -20 -54 -18 -80 7 -80 11 0 17 -4 14 -10 -3
-5 -18 -10 -32 -10 -24 0 -25 2 -20 40 5 36 2 42 -23 57 -35 20 -40 36 -40
141 0 59 3 82 13 82 6 -1 42 -7 79 -14 66 -12 68 -12 90 11 l22 23 -32 12
c-18 7 -32 16 -32 20 0 4 -12 8 -27 8 -16 0 -45 3 -65 6 l-37 7 -3 95 c-3 93
-4 96 -28 103 l-25 7 23 7 c12 4 22 15 22 26 0 10 5 21 10 24 6 4 10 -36 10
-112 0 -80 3 -113 10 -103 6 9 10 10 10 3 0 -6 -4 -15 -10 -18 -24 -15 -6 -22
59 -24 67 -2 69 -1 100 34 17 20 31 40 31 44 0 5 16 29 36 53 l37 43 -84 3
c-109 4 -131 22 -27 22 98 0 108 4 108 44 0 52 15 53 18 2 l3 -46 40 0z m2559
70 c0 -5 -4 -10 -9 -10 -6 0 -13 5 -16 10 -3 6 1 10 9 10 9 0 16 -4 16 -10z
m537 -27 c-3 -10 -5 -4 -5 12 0 17 2 24 5 18 2 -7 2 -21 0 -30z m-487 6 c0 -6
7 -17 15 -25 17 -18 20 -34 5 -34 -5 0 -10 5 -10 12 0 6 -10 22 -22 35 -18 20
-19 23 -5 23 9 0 17 -5 17 -11z m-134 -26 c-10 -10 -19 5 -10 18 6 11 8 11 12
0 2 -7 1 -15 -2 -18z m-1756 -32 c0 -5 -7 -14 -15 -21 -16 -14 -18 -10 -9 14
6 17 24 22 24 7z m1746 -28 c-11 -11 -19 6 -11 24 8 17 8 17 12 0 3 -10 2 -21
-1 -24z m180 -23 c8 0 14 -7 14 -15 0 -19 -2 -19 -29 4 -15 13 -19 24 -14 37
7 17 8 17 11 -3 2 -13 10 -23 18 -23z m-2826 21 c0 -12 -20 -25 -27 -18 -7 7
6 27 18 27 5 0 9 -4 9 -9z m-40 -40 c0 -12 -20 -25 -27 -18 -7 7 6 27 18 27 5
0 9 -4 9 -9z m-50 -46 c-7 -8 -17 -15 -22 -15 -6 0 -5 7 2 15 7 8 17 15 22 15
6 0 5 -7 -2 -15z m2955 4 c11 -17 -1 -21 -15 -4 -8 9 -8 15 -2 15 6 0 14 -5
17 -11z m-2305 -44 c-7 -8 -17 -12 -23 -8 -6 4 -3 11 8 19 23 17 32 10 15 -11z
m2320 -18 c0 -5 -4 -5 -10 -2 -5 3 -10 14 -10 23 0 15 2 15 10 2 5 -8 10 -19
10 -23z m-3040 -59 c0 -6 -7 -5 -15 2 -8 7 -15 17 -15 22 0 6 7 5 15 -2 8 -7
15 -17 15 -22z m3040 25 c0 -5 -5 -15 -10 -23 -8 -12 -10 -11 -10 8 0 12 5 22
10 22 6 0 10 -3 10 -7z m-24 -80 c-11 -11 -17 4 -9 23 7 18 8 18 11 1 2 -10 1
-21 -2 -24z m-1911 17 c3 -5 -3 -10 -14 -10 -18 0 -21 -6 -21 -48 0 -34 -7
-58 -25 -84 -15 -22 -25 -51 -25 -72 0 -32 -44 -116 -61 -116 -3 0 -12 -13
-19 -29 -19 -47 -40 -59 -105 -62 -38 -1 -68 -9 -82 -19 -17 -13 -35 -16 -67
-13 l-44 5 -12 -58 c-14 -67 -33 -94 -67 -94 -20 0 -23 -5 -23 -35 0 -27 -7
-39 -31 -57 -17 -13 -49 -53 -71 -90 -22 -38 -45 -68 -50 -68 -5 0 3 21 18 48
15 26 35 59 43 73 8 15 28 35 43 45 23 16 28 26 28 62 0 41 0 42 35 42 40 0
43 4 60 89 l11 56 50 0 c28 0 57 6 66 12 8 7 47 16 88 19 l73 7 16 39 c9 21
24 41 34 44 9 3 17 13 17 23 0 10 7 24 15 31 8 7 15 29 15 49 0 22 10 51 25
73 19 28 25 50 25 92 0 53 1 56 24 56 14 0 28 -4 31 -10z m100 -50 c3 -5 -3
-10 -15 -10 -12 0 -18 5 -15 10 3 6 10 10 15 10 5 0 12 -4 15 -10z m1791 -27
c-11 -11 -17 4 -9 23 7 18 8 18 11 1 2 -10 1 -21 -2 -24z m-1796 -25 c0 -19
-2 -20 -10 -8 -13 19 -13 30 0 30 6 0 10 -10 10 -22z m30 -10 c0 -5 -4 -8 -10
-8 -5 0 -10 10 -10 23 0 18 2 19 10 7 5 -8 10 -18 10 -22z m-956 -6 c-19 -17
-64 -32 -64 -21 0 5 15 16 33 24 32 13 49 12 31 -3z m2712 2 c-3 -9 -6 -18 -6
-20 0 -2 -4 -4 -9 -4 -5 0 -7 9 -4 20 3 11 10 20 15 20 6 0 7 -7 4 -16z
m-1744 -38 c11 -15 10 -26 -2 -26 -5 0 -10 8 -11 18 0 15 -1 15 -8 -2 -7 -18
-8 -18 -14 -2 -4 10 -7 22 -7 27 0 11 32 -1 42 -15z m1728 -13 c0 -5 -5 -15
-10 -23 -8 -12 -10 -11 -10 8 0 12 5 22 10 22 6 0 10 -3 10 -7z m-1704 -45 c3
-5 3 -12 -1 -16 -3 -3 -10 0 -15 8 -7 11 -10 12 -10 2 0 -7 -4 -10 -10 -7 -5
3 -10 12 -10 20 0 14 36 9 46 -7z m2044 -9 c0 -11 -4 -17 -10 -14 -5 3 -10 13
-10 21 0 8 5 14 10 14 6 0 10 -9 10 -21z m-3500 -10 c0 -11 -4 -17 -10 -14 -5
3 -10 13 -10 21 0 8 5 14 10 14 6 0 10 -9 10 -21z m3136 -16 c-11 -11 -17 4
-9 23 7 18 8 18 11 1 2 -10 1 -21 -2 -24z m-3700 -25 l-5 -28 166 0 c157 0
168 1 190 22 20 19 35 13 16 -6 -5 -4 -8 -13 -8 -19 0 -13 -337 -23 -365 -11
-8 4 -19 6 -23 5 -4 0 -6 11 -3 26 2 16 5 31 5 34 1 3 8 6 17 6 12 0 14 -7 10
-29z m2014 -4 c0 -8 -4 -12 -10 -9 -5 3 -10 13 -10 21 0 8 5 12 10 9 6 -3 10
-13 10 -21z m30 -6 c0 -5 -4 -8 -10 -8 -5 0 -10 10 -10 23 0 18 2 19 10 7 5
-8 10 -18 10 -22z m2030 0 c0 -19 -2 -20 -10 -8 -13 19 -13 30 0 30 6 0 10
-10 10 -22z m-370 -10 c0 -19 -2 -20 -10 -8 -13 19 -13 30 0 30 6 0 10 -10 10
-22z m-2798 -20 c-9 -9 -15 -9 -24 0 -9 9 -7 12 12 12 19 0 21 -3 12 -12z
m1122 -14 c10 -25 -1 -29 -14 -5 -6 12 -7 21 -1 21 5 0 12 -7 15 -16z m30 0
c8 -21 8 -24 -3 -24 -5 0 -11 9 -14 20 -6 24 8 27 17 4z m1626 -19 c-7 -9 -15
-13 -18 -10 -3 2 1 11 8 20 7 9 15 13 18 10 3 -2 -1 -11 -8 -20z m415 14 c11
-17 -1 -21 -15 -4 -8 9 -8 15 -2 15 6 0 14 -5 17 -11z m-2074 -62 c-8 -8 -11
-7 -11 4 0 9 3 19 7 23 4 4 9 2 11 -4 3 -7 -1 -17 -7 -23z m2090 0 c-8 -8 -11
-7 -11 4 0 9 3 19 7 23 4 4 9 2 11 -4 3 -7 -1 -17 -7 -23z m-2051 9 c0 -8 -4
-18 -10 -21 -5 -3 -10 3 -10 14 0 12 5 21 10 21 6 0 10 -6 10 -14z m1580 -11
c-7 -9 -15 -13 -18 -10 -3 2 1 11 8 20 7 9 15 13 18 10 3 -2 -1 -11 -8 -20z
m-1640 -34 c0 -5 -7 -14 -15 -21 -16 -14 -18 -10 -9 14 6 17 24 22 24 7z m40
2 c0 -14 -19 -38 -25 -32 -8 8 5 39 16 39 5 0 9 -3 9 -7z m1577 -25 c-3 -7 -5
-2 -5 12 0 14 2 19 5 13 2 -7 2 -19 0 -25z m503 -6 c-19 -7 -40 7 -34 22 5 12
8 12 25 -2 11 -9 15 -18 9 -20z m-2164 -44 c-2 -18 -4 -36 -5 -40 0 -5 -8 -8
-16 -8 -8 0 -14 -3 -14 -7 3 -21 -2 -33 -16 -33 -8 0 -15 5 -15 10 0 6 5 10
12 10 6 0 8 3 5 6 -9 9 12 46 23 39 5 -3 11 -1 15 5 3 5 1 10 -5 10 -8 0 -8 6
0 20 15 29 20 25 16 -12z m44 23 c0 -5 -7 -11 -15 -15 -15 -5 -20 5 -8 17 9
10 23 9 23 -2z m1648 -3 c-2 -6 -10 -14 -16 -16 -7 -2 -10 2 -6 12 7 18 28 22
22 4z m502 -14 c0 -8 -4 -14 -10 -14 -5 0 -10 9 -10 21 0 11 5 17 10 14 6 -3
10 -13 10 -21z m-53 -16 c-3 -7 -5 -2 -5 12 0 14 2 19 5 13 2 -7 2 -19 0 -25z
m-2437 -23 c-7 -8 -17 -15 -23 -15 -5 0 -2 9 8 20 21 23 35 19 15 -5z m1949
-1 c-17 -21 -31 -17 -17 5 7 11 16 17 20 14 5 -2 4 -11 -3 -19z m528 -26 c-3
-7 -5 -2 -5 12 0 14 2 19 5 13 2 -7 2 -19 0 -25z m-27 2 c0 -11 -4 -20 -10
-20 -5 0 -10 9 -10 20 0 11 5 20 10 20 6 0 10 -9 10 -20z m-2500 -15 c-7 -8
-17 -12 -22 -9 -6 4 -5 10 3 15 22 14 33 10 19 -6z m-120 -32 c12 -11 12 -13
-1 -13 -24 0 -53 26 -45 39 6 9 11 9 19 -1 7 -7 19 -19 27 -25z m80 20 c0 -14
-19 -38 -25 -32 -8 8 5 39 16 39 5 0 9 -3 9 -7z m1935 -13 c-10 -11 -20 -18
-23 -15 -7 6 18 35 31 35 5 0 2 -9 -8 -20z m632 -22 c-3 -7 -5 -2 -5 12 0 14
2 19 5 13 2 -7 2 -19 0 -25z m-17 -10 c0 -5 -4 -8 -10 -8 -5 0 -10 10 -10 23
0 18 2 19 10 7 5 -8 10 -18 10 -22z m-2585 -17 c-3 -6 -14 -11 -23 -11 -15 1
-15 2 2 15 21 16 32 13 21 -4z m1935 4 c0 -8 -4 -15 -10 -15 -5 0 -10 7 -10
15 0 8 5 15 10 15 6 0 10 -7 10 -15z m698 -24 c3 -8 -1 -12 -9 -9 -7 2 -15 10
-17 17 -3 8 1 12 9 9 7 -2 15 -10 17 -17z m-2678 0 c0 -11 -31 -24 -39 -16 -3
3 1 10 9 15 19 12 30 12 30 1z m2640 -12 c0 -11 -4 -17 -10 -14 -5 3 -10 13
-10 21 0 8 5 14 10 14 6 0 10 -9 10 -21z m-631 -15 c3 -16 1 -17 -13 -5 -19
16 -21 34 -3 29 6 -3 14 -13 16 -24z m-2068 -37 c-8 -8 -11 -7 -11 4 0 20 13
34 18 19 3 -7 -1 -17 -7 -23z m2759 13 c0 -11 -2 -20 -4 -20 -2 0 -6 9 -9 20
-3 11 -1 20 4 20 5 0 9 -9 9 -20z m-4200 -15 c7 -8 8 -15 2 -15 -5 0 -15 7
-22 15 -7 8 -8 15 -2 15 5 0 15 -7 22 -15z m3530 -24 c-1 -13 -3 -13 -15 3
-19 26 -19 42 0 26 8 -7 15 -20 15 -29z m610 19 c0 -11 -4 -20 -10 -20 -5 0
-10 9 -10 20 0 11 5 20 10 20 6 0 10 -9 10 -20z m-4190 0 c0 -5 -10 -10 -22
-10 -19 0 -20 2 -8 10 19 13 30 13 30 0z m3430 -31 c0 -10 -5 -19 -11 -19 -6
0 -8 -8 -4 -19 3 -11 -1 -25 -9 -34 -12 -11 -13 -22 -6 -48 12 -41 12 -39 1
-39 -5 0 -15 16 -22 37 -10 32 -9 38 5 49 14 10 15 17 7 33 -15 27 -14 31 4
25 8 -4 15 -1 15 5 0 6 -5 11 -11 11 -8 0 -8 5 1 15 15 18 30 11 30 -16z
m-3485 11 c-3 -5 -16 -10 -28 -10 -18 0 -19 2 -7 10 20 13 43 13 35 0z m580
-23 c-6 -32 -5 -34 33 -46 45 -15 59 -10 72 25 7 17 17 24 35 24 16 0 25 6 25
15 0 12 4 13 18 6 13 -7 23 -6 30 1 7 7 14 9 18 6 6 -7 -26 -43 -44 -49 -6 -2
-12 -22 -13 -43 l-4 -39 63 -24 c55 -20 62 -21 54 -5 -13 24 -16 162 -4 162 5
0 13 -35 16 -77 10 -111 9 -109 56 -105 36 4 40 7 34 26 -10 34 -34 67 -44 61
-6 -4 -10 1 -10 9 0 18 16 21 25 6 3 -5 24 -10 45 -10 34 0 41 -4 46 -25 4
-14 3 -29 0 -33 -4 -3 -9 4 -13 16 -3 13 -13 22 -24 22 -17 0 -17 -3 -4 -32 9
-22 21 -34 37 -36 84 -9 108 -14 108 -24 0 -7 -20 -9 -55 -6 -51 4 -69 -2 -45
-17 19 -12 10 -44 -20 -65 -16 -12 -30 -17 -30 -12 0 6 12 19 27 30 l28 20
-24 26 c-38 40 -91 36 -133 -10 -51 -55 -51 -59 -13 -93 20 -17 30 -31 23 -31
-7 0 -27 18 -45 39 -31 37 -31 39 -15 62 9 13 22 30 30 38 18 19 12 22 -103
66 -69 27 -113 38 -142 36 -25 -1 -43 3 -43 9 0 5 8 10 18 11 14 0 14 2 -3 9
-11 5 -23 9 -27 9 -11 2 -48 -69 -59 -115 -6 -24 -16 -44 -21 -44 -16 0 1 70
28 119 13 24 21 47 18 52 -8 14 -212 10 -284 -6 -74 -16 -124 -19 -100 -6 37
20 219 43 312 40 94 -4 97 -3 103 19 9 36 27 26 20 -11z m946 -4 c-10 -17 -10
-16 -11 3 0 23 13 41 18 25 2 -6 -1 -18 -7 -28z m-1384 5 c-3 -8 -6 -5 -6 6
-1 11 2 17 5 13 3 -3 4 -12 1 -19z m523 12 c0 -5 -4 -10 -10 -10 -5 0 -10 5
-10 10 0 6 5 10 10 10 6 0 10 -4 10 -10z m3641 -23 c-8 -8 -11 -7 -11 4 0 9 3
19 7 23 4 4 9 2 11 -4 3 -7 -1 -17 -7 -23z m-57 -3 c10 -25 -1 -29 -14 -5 -6
12 -7 21 -1 21 5 0 12 -7 15 -16z m-484 -27 c0 -4 -9 -3 -20 3 -11 6 -20 15
-20 20 0 6 9 5 20 -2 11 -7 20 -16 20 -21z m575 3 c3 -5 -1 -10 -9 -10 -8 0
-18 5 -21 10 -3 6 1 10 9 10 8 0 18 -4 21 -10z m-460 -24 c-19 -14 -45 -11
-45 4 0 8 50 19 59 13 3 -2 -4 -9 -14 -17z m-3845 4 c0 -5 -6 -10 -14 -10 -8
0 -18 5 -21 10 -3 6 3 10 14 10 12 0 21 -4 21 -10z m60 0 c0 -5 -6 -10 -14
-10 -8 0 -18 5 -21 10 -3 6 3 10 14 10 12 0 21 -4 21 -10z m3715 -1 c11 -17 0
-20 -21 -4 -17 13 -17 14 -2 15 9 0 20 -5 23 -11z m471 -16 c-7 -7 -26 7 -26
19 0 6 6 6 15 -2 9 -7 13 -15 11 -17z m-2271 -4 c-4 -5 -16 -9 -28 -9 -21 1
-21 1 -3 15 20 15 41 11 31 -6z m2365 -5 c0 -8 -4 -12 -10 -9 -5 3 -10 13 -10
21 0 8 5 12 10 9 6 -3 10 -13 10 -21z m-2494 -11 c-2 -20 -12 -32 -36 -44 -18
-8 -36 -22 -40 -30 -5 -8 -18 -68 -30 -134 -11 -66 -23 -128 -26 -138 -3 -11
1 -19 13 -23 53 -19 123 -56 118 -64 -3 -5 -20 0 -38 10 -18 10 -63 30 -102
43 -38 14 -119 42 -178 63 l-108 39 -19 -25 c-30 -38 -47 -81 -53 -131 l-6
-46 38 -12 c50 -15 51 -14 51 9 0 10 9 24 20 30 14 8 20 8 20 0 0 -6 -7 -13
-15 -16 -8 -4 -15 -14 -15 -23 0 -14 35 -28 157 -67 87 -27 150 -50 141 -52
-9 -2 -81 17 -160 42 -79 24 -166 51 -195 60 l-52 15 -30 -84 c-17 -47 -43
-110 -59 -142 -16 -32 -32 -73 -35 -91 -4 -19 -15 -46 -26 -60 -10 -15 -31
-56 -45 -92 -29 -70 -69 -120 -98 -120 -10 0 -18 -6 -18 -12 0 -29 -22 -88
-30 -83 -5 3 -7 11 -5 18 2 7 9 31 15 55 8 29 16 42 29 42 28 0 68 50 92 115
13 33 33 73 46 88 13 16 23 40 23 53 0 14 12 48 26 76 24 48 94 220 94 233 0
3 -11 5 -24 5 -20 0 -24 -6 -30 -40 -9 -55 -91 -205 -126 -230 -15 -11 -30
-30 -34 -42 -3 -14 -23 -33 -50 -47 -43 -22 -47 -29 -82 -120 -34 -87 -76
-168 -94 -181 -4 -3 -10 -16 -13 -30 -3 -14 -15 -34 -25 -45 -10 -11 -27 -39
-37 -63 -12 -27 -25 -42 -37 -42 -12 0 -15 5 -11 17 4 11 3 14 -6 9 -6 -4 -9
-16 -6 -26 9 -28 -34 -83 -52 -69 -18 16 -17 22 13 55 14 16 33 43 42 59 13
24 17 26 20 13 5 -24 18 -23 25 2 3 11 1 18 -4 14 -5 -3 -9 -2 -9 3 0 14 16
34 26 32 21 -4 28 2 14 11 -13 8 -11 11 7 16 12 3 24 11 26 18 7 17 -26 36
-44 25 -8 -5 -10 -9 -6 -9 11 0 -12 -40 -24 -40 -6 0 -6 7 1 20 9 17 8 20 -10
20 -11 0 -20 5 -20 11 0 5 9 9 20 7 10 -2 20 2 22 7 2 6 -7 11 -19 13 -23 3
-29 13 -17 25 4 3 28 -5 55 -18 27 -14 52 -25 57 -25 12 0 73 124 103 209 17
49 30 68 53 80 16 9 39 26 50 39 12 12 35 38 53 56 44 46 105 159 97 180 -4
11 -1 16 10 16 9 0 16 5 16 10 0 6 -7 10 -15 10 -8 0 -15 9 -15 20 0 13 -7 20
-20 20 -17 0 -19 -5 -14 -25 8 -30 -3 -32 -27 -4 -14 17 -24 19 -50 14 -20 -5
-29 -4 -25 3 3 6 23 13 44 17 36 6 40 9 52 56 8 27 19 49 27 49 16 0 17 -12 3
-26 -6 -6 -14 -24 -19 -42 -8 -26 -7 -30 7 -25 45 14 62 28 62 50 0 13 23 57
50 98 28 41 50 79 50 84 0 16 -40 35 -41 19 -1 -7 -5 1 -9 17 -4 17 -11 37
-14 46 -5 11 -1 19 10 23 20 8 33 -2 16 -13 -9 -5 -3 -16 18 -36 22 -21 30
-25 30 -13 0 9 10 25 23 35 13 10 26 26 30 36 7 18 37 24 37 8 0 -6 -8 -16
-18 -23 -27 -20 -58 -76 -47 -86 13 -11 305 -116 309 -111 1 2 13 63 26 134
26 149 34 171 69 190 25 14 25 14 4 15 -13 0 -23 5 -23 10 0 6 10 10 23 10 12
0 29 5 37 10 8 5 16 10 17 10 1 0 0 -12 -1 -27z m-114 -19 c-10 -7 -25 -14
-33 -16 -7 -2 -22 -13 -32 -25 -10 -12 -24 -20 -32 -16 -8 3 -15 1 -15 -5 0
-15 -38 -21 -44 -7 -4 12 88 66 123 71 7 2 18 7 24 13 6 6 14 8 19 5 5 -4 1
-12 -10 -20z m2558 -38 c-1 -20 -30 27 -30 48 0 18 3 16 15 -8 8 -15 15 -33
15 -40z m389 7 c15 -11 15 -12 0 -13 -22 0 -43 26 -33 42 6 9 9 9 12 -2 3 -8
12 -20 21 -27z m-1295 -7 c-6 -16 -24 -23 -24 -8 0 10 22 33 27 28 2 -2 1 -11
-3 -20z m-2020 -7 c-6 -11 -24 -2 -24 11 0 5 7 7 15 4 8 -4 12 -10 9 -15z
m3089 -104 c11 -10 25 -14 37 -10 25 8 27 -10 3 -20 -16 -6 -15 -9 10 -31 26
-22 26 -24 8 -24 -12 0 -21 3 -21 8 0 4 -14 21 -30 39 -17 18 -30 37 -30 42 0
6 -4 11 -10 11 -5 0 -10 10 -10 23 0 13 -5 28 -11 34 -7 7 -8 20 -4 30 5 14
11 6 24 -33 10 -29 25 -59 34 -69z m-3208 67 c-6 -7 -35 18 -35 31 0 5 9 2 20
-8 11 -10 18 -20 15 -23z m2375 8 c-19 -12 -30 -12 -30 -1 0 10 31 20 40 14 2
-2 -2 -8 -10 -13z m690 -6 c0 -8 -4 -12 -10 -9 -5 3 -10 13 -10 21 0 8 5 12
10 9 6 -3 10 -13 10 -21z m380 11 c-7 -8 -17 -15 -22 -15 -6 0 -5 7 2 15 7 8
17 15 22 15 6 0 5 -7 -2 -15z m-3346 -19 c-6 -16 -24 -23 -24 -8 0 10 22 33
27 28 2 -2 1 -11 -3 -20z m214 12 c-3 -7 -13 -13 -23 -13 -10 0 -20 6 -22 13
-3 7 5 12 22 12 17 0 25 -5 23 -12z m823 -14 c31 -8 98 -14 147 -14 50 0 94
-4 97 -10 10 -17 -197 -12 -273 6 -92 22 -94 23 -87 34 6 10 15 9 116 -16z
m976 -11 c-3 -10 -5 -4 -5 12 0 17 2 24 5 18 2 -7 2 -21 0 -30z m-3084 12
c-22 -9 -33 -21 -33 -35 0 -12 -4 -19 -10 -15 -5 3 -7 12 -3 20 4 12 -9 15
-76 15 -118 0 -100 19 22 23 56 1 109 4 117 4 8 1 0 -4 -17 -12z m90 8 c-7 -2
-19 -2 -25 0 -7 3 -2 5 12 5 14 0 19 -2 13 -5z m1137 -13 c0 -14 -33 -21 -41
-8 -5 8 -2 15 9 19 19 7 32 3 32 -11z m-1820 0 c0 -5 -9 -10 -21 -10 -11 0
-17 5 -14 10 3 6 13 10 21 10 8 0 14 -4 14 -10z m50 6 c0 -2 -7 -7 -16 -10 -8
-3 -12 -2 -9 4 6 10 25 14 25 6z m103 -3 c-7 -2 -19 -2 -25 0 -7 3 -2 5 12 5
14 0 19 -2 13 -5z m67 -3 c0 -5 -4 -10 -10 -10 -5 0 -10 5 -10 10 0 6 5 10 10
10 6 0 10 -4 10 -10z m1356 -41 c-14 -11 -26 -26 -26 -32 -1 -18 -38 -63 -45
-55 -7 7 41 83 72 114 11 11 18 13 21 5 2 -6 -8 -21 -22 -32z m2411 19 c-3 -8
-6 -5 -6 6 -1 11 2 17 5 13 3 -3 4 -12 1 -19z m993 13 c0 -5 -9 -11 -20 -14
-22 -6 -28 8 -7 16 19 8 27 8 27 -2z m-4850 -34 c0 -18 -5 -38 -10 -43 -11
-11 -7 -19 36 -91 35 -59 63 -36 47 40 -13 60 -2 87 37 87 23 0 30 4 30 20 0
11 7 20 15 20 8 0 12 -6 9 -14 -5 -13 45 -89 71 -108 25 -19 42 -8 43 28 2 39
12 62 12 26 0 -29 35 -38 66 -17 14 9 28 14 31 11 4 -3 12 -1 19 5 11 9 11 4
4 -22 -6 -19 -7 -42 -4 -51 4 -14 -1 -18 -23 -19 -15 -1 -39 -5 -53 -10 -18
-6 -12 -7 25 -4 36 4 46 2 38 -6 -6 -6 -32 -14 -57 -16 -43 -5 -46 -8 -46 -34
0 -29 -1 -29 -60 -29 -61 0 -81 -14 -35 -26 14 -3 41 -4 60 -2 l35 4 0 -71
c-1 -60 -2 -68 -14 -52 -10 13 -28 17 -70 17 l-56 0 20 -40 c22 -44 24 -50 12
-50 -5 0 -17 18 -27 41 -19 41 -40 59 -71 59 -22 0 -54 28 -54 47 0 10 9 7 31
-11 17 -14 36 -26 42 -26 18 0 39 73 24 82 -7 4 -13 1 -15 -7 -2 -8 -8 -15
-14 -15 -6 0 -8 10 -4 24 5 21 2 25 -30 30 -19 4 -44 4 -56 0 -18 -5 -20 -3
-16 20 3 14 1 26 -3 26 -5 0 -9 25 -9 55 0 37 -4 55 -12 56 -34 3 -64 -4 -71
-17 -5 -8 -12 -12 -18 -9 -5 4 -9 1 -9 -6 0 -7 -3 -9 -7 -6 -10 10 28 47 48
47 24 0 49 27 43 45 -4 8 -13 15 -22 15 -13 0 -14 2 -3 13 10 10 16 8 31 -10
24 -30 32 -29 24 2 -4 15 -2 25 5 25 6 0 11 -15 11 -33z m40 11 c0 -19 -2 -20
-10 -8 -13 19 -13 30 0 30 6 0 10 -10 10 -22z m610 -23 c0 -25 -4 -45 -10 -45
-5 0 -10 20 -10 45 0 25 5 45 10 45 6 0 10 -20 10 -45z m3874 19 c4 -10 1 -14
-6 -12 -15 5 -23 28 -10 28 5 0 13 -7 16 -16z m276 -3 c0 -5 -7 -14 -15 -21
-16 -14 -18 -10 -9 14 6 17 24 22 24 7z m-4560 -21 c0 -5 -5 -10 -11 -10 -5 0
-7 5 -4 10 3 6 8 10 11 10 2 0 4 -4 4 -10z m2220 -35 c-14 -36 -24 -26 -15 15
4 20 11 28 16 23 6 -6 6 -20 -1 -38z m1400 41 c0 -2 -8 -10 -17 -17 -16 -13
-17 -12 -4 4 13 16 21 21 21 13z m700 -34 c0 -15 -2 -15 -10 -2 -13 20 -13 33
0 25 6 -3 10 -14 10 -23z m196 19 c-3 -5 -15 -7 -26 -4 -28 7 -25 13 6 13 14
0 23 -4 20 -9z m-3778 -33 c-1 -7 2 -23 6 -35 5 -16 1 -35 -15 -63 -12 -22
-24 -38 -26 -36 -2 2 4 17 14 34 15 25 16 36 7 61 -8 21 -9 32 -1 40 14 14 18
14 15 -1z m3661 -9 c-22 -14 -33 -10 -19 6 7 8 17 12 22 9 6 -4 5 -10 -3 -15z
m-3464 -25 c17 -18 25 -39 25 -61 l0 -34 41 48 c72 83 81 71 15 -22 -35 -48
-42 -65 -33 -74 9 -9 22 -1 56 36 24 26 38 40 31 31 -7 -10 -9 -18 -4 -18 4 0
-3 -11 -15 -24 -12 -13 -21 -27 -20 -32 4 -23 -2 -36 -16 -30 -17 6 -65 -51
-65 -77 0 -22 -17 -22 -23 1 -2 9 10 31 27 49 16 18 26 36 22 40 -4 5 -24 -11
-44 -35 -20 -23 -43 -42 -49 -42 -13 0 -74 34 -113 62 -33 25 -17 34 17 11 15
-11 44 -29 64 -41 l36 -22 30 38 30 38 -11 74 c-10 66 -14 75 -33 78 -13 2
-23 10 -23 18 0 23 29 16 55 -12z m-515 7 c-25 -4 -85 -20 -133 -36 -83 -28
-88 -31 -82 -54 5 -21 4 -23 -9 -12 -9 8 -16 19 -16 25 0 21 179 85 235 84
l50 -1 -45 -6z m3255 -1 c3 -5 1 -10 -4 -10 -6 0 -11 5 -11 10 0 6 2 10 4 10
3 0 8 -4 11 -10z m678 3 c-7 -2 -21 -2 -30 0 -10 3 -4 5 12 5 17 0 24 -2 18
-5z m-3734 -82 c23 -6 41 -16 41 -21 0 -13 0 -13 -51 5 -48 17 -99 60 -99 84
0 10 12 3 34 -20 19 -20 53 -41 75 -48z m239 72 c-10 -2 -28 -2 -40 0 -13 2
-5 4 17 4 22 1 32 -1 23 -4z m382 -28 c-10 -12 -15 -13 -21 -3 -11 17 11 42
24 29 7 -7 6 -15 -3 -26z m3280 0 c7 -8 8 -15 2 -15 -5 0 -15 7 -22 15 -7 8
-8 15 -2 15 5 0 15 -7 22 -15z m-3626 -20 c3 -8 1 -15 -4 -15 -6 0 -10 7 -10
15 0 8 2 15 4 15 2 0 6 -7 10 -15z m1061 -25 c37 0 44 -10 21 -29 -8 -7 -22
-34 -32 -60 l-17 -48 -42 5 -42 4 -6 -47 c-4 -26 -7 -94 -7 -151 0 -94 2 -103
20 -109 11 -3 20 -10 20 -15 0 -5 3 -17 6 -27 4 -13 0 -11 -14 7 -12 14 -23
23 -25 20 -9 -10 -19 -220 -10 -220 4 0 42 11 83 23 l75 24 11 84 c7 56 13 78
18 66 5 -9 5 -28 2 -42 -5 -21 -2 -25 29 -31 46 -8 45 -21 -2 -16 l-36 5 6
-91 c5 -73 4 -92 -8 -102 -8 -7 -15 -16 -15 -21 0 -10 48 -24 68 -21 6 2 12
-4 12 -13 0 -11 11 -15 48 -15 27 0 57 -6 68 -15 23 -17 34 -19 34 -4 0 6 -22
20 -50 32 -27 11 -50 25 -50 29 0 11 22 10 40 -2 21 -13 40 7 40 45 0 32 -1
33 -50 37 -47 5 -69 13 -59 22 2 2 28 0 57 -3 l52 -7 0 37 c0 37 0 37 -30 29
-17 -5 -32 -5 -35 0 -3 5 9 14 27 19 28 9 26 9 -18 4 -57 -6 -71 4 -49 33 13
17 14 18 15 2 0 -15 9 -18 55 -18 l55 0 0 105 0 105 -40 0 c-33 0 -40 3 -40
19 0 29 11 52 21 45 5 -3 5 -13 -1 -25 -10 -17 -7 -19 25 -19 l35 0 0 50 c0
28 5 50 10 50 6 0 10 -22 10 -49 l0 -48 73 -6 c39 -4 92 -9 117 -13 l45 -6 3
65 c2 50 -1 66 -13 71 -8 3 -15 1 -15 -4 0 -6 -14 -10 -31 -10 -23 0 -30 4
-27 17 4 22 68 39 79 21 6 -8 9 3 9 30 l0 42 -55 0 -55 0 0 -79 c0 -44 -4 -83
-10 -86 -6 -4 -10 25 -10 79 l0 86 -85 0 c-50 0 -85 4 -85 10 0 6 35 10 85 10
l85 0 0 60 c0 33 4 60 10 60 6 0 10 -8 10 -18 0 -15 8 -19 37 -20 57 -2 66
-22 10 -22 -46 0 -47 -1 -47 -30 0 -30 1 -30 55 -30 48 0 55 3 55 19 0 27 8
30 74 32 39 2 56 6 56 16 0 9 13 13 40 13 22 0 40 -4 40 -10 0 -5 -13 -10 -30
-10 -16 0 -30 -4 -30 -10 0 -5 6 -10 13 -10 8 0 24 -11 37 -25 19 -21 21 -25
7 -25 -9 0 -17 5 -17 10 0 18 -51 32 -67 18 -11 -9 -16 -9 -22 1 -5 7 -22 11
-42 9 l-34 -3 -3 -66 -3 -66 51 -10 c56 -11 54 -15 50 65 -3 75 17 65 25 -13
5 -45 12 -65 21 -65 8 0 14 -5 14 -11 0 -6 -7 -9 -15 -5 -10 4 -15 -1 -15 -14
0 -19 8 -20 173 -21 128 -2 157 -4 112 -9 -33 -4 -92 -8 -131 -9 -39 -1 -92
-4 -118 -7 l-46 -7 0 -92 c0 -70 -4 -96 -15 -105 -26 -21 -17 -30 30 -30 29 0
45 4 46 13 0 10 2 10 6 0 3 -9 32 -13 95 -13 76 0 89 2 84 15 -3 8 -2 25 3 37
l8 21 15 -22 c12 -17 22 -21 37 -16 12 3 21 2 21 -4 0 -5 10 -12 23 -14 12 -2
-4 -5 -35 -6 -44 -1 -58 -5 -58 -16 0 -13 -23 -15 -147 -16 -149 -1 -159 -2
-90 -14 49 -8 48 -25 -2 -18 -23 3 -41 1 -45 -6 -11 -17 -24 -13 -22 6 2 27
-71 25 -78 -2 -16 -58 -7 -90 39 -135 l44 -44 88 42 c96 46 123 51 123 25 0
-29 31 -53 69 -53 37 0 92 -32 73 -43 -5 -4 -15 0 -22 8 -7 9 -29 15 -51 15
-31 0 -43 6 -65 34 l-27 33 -86 -39 c-47 -22 -87 -41 -88 -42 -1 -1 4 -22 11
-46 12 -41 17 -46 52 -53 90 -17 114 -18 219 -9 112 10 158 21 301 73 58 21
98 29 147 29 l67 0 2 68 c1 37 2 87 3 111 0 24 5 46 10 48 6 2 9 -17 6 -48 -3
-45 -1 -50 15 -47 15 2 18 11 16 34 -3 27 1 32 30 40 42 13 84 0 92 -29 3 -12
6 -42 6 -67 0 -36 6 -52 29 -78 17 -17 27 -32 23 -32 -9 0 -8 -82 1 -97 6 -9
3 -11 -7 -7 -16 6 -30 49 -21 64 3 5 3 21 -1 35 -5 21 -12 25 -40 25 -22 0
-36 -6 -39 -15 -16 -51 -16 -50 -25 -35 -5 8 -5 21 1 31 6 12 4 19 -6 23 -10
3 -20 -5 -30 -24 -18 -35 -30 -39 -22 -9 5 20 5 20 -14 3 -20 -18 -20 -26 -13
-484 3 -256 9 -493 13 -527 l6 -63 33 20 c26 16 32 26 32 54 0 19 5 38 12 42
16 10 3 -83 -14 -100 -7 -7 -25 -16 -39 -19 -23 -6 -27 -13 -32 -53 -2 -26 -1
-60 4 -77 5 -17 5 -33 1 -36 -13 -10 -8 -131 6 -131 9 0 12 -29 12 -110 0 -72
-4 -110 -11 -110 -6 0 -10 21 -9 53 3 101 1 117 -16 117 -10 0 -14 -6 -10 -15
3 -9 0 -15 -10 -15 -10 0 -14 6 -10 15 10 27 -42 31 -70 4 -27 -25 -32 -15 -8
19 13 19 21 22 50 16 31 -6 34 -4 34 17 0 20 -16 32 -103 75 -56 29 -119 54
-141 57 -21 4 -43 13 -50 21 -13 17 -155 96 -173 96 -7 0 -13 -9 -13 -20 0
-19 -7 -20 -139 -20 -186 0 -198 19 -14 22 l138 3 -21 20 c-12 11 -38 33 -58
49 -20 16 -36 35 -36 43 0 20 7 16 56 -32 29 -29 53 -45 70 -45 13 0 43 -9 65
-20 22 -12 44 -18 49 -15 6 3 10 2 10 -4 0 -16 90 -74 121 -77 16 -2 47 -13
69 -24 21 -11 42 -20 45 -20 3 0 5 20 5 45 l0 45 -65 0 c-37 0 -65 4 -65 10 0
6 28 10 65 10 l65 0 0 119 0 120 -67 -1 c-38 -1 -104 1 -148 5 -44 3 -185 9
-312 12 l-233 7 0 -72 c0 -45 -4 -69 -10 -65 -5 3 -10 45 -10 92 l0 86 -24
-23 c-15 -13 -32 -20 -40 -17 -9 4 -16 2 -16 -4 0 -5 -6 -9 -12 -8 -7 1 -43 1
-80 0 l-68 -1 0 -45 c0 -25 -5 -45 -10 -45 -6 0 -10 6 -9 13 1 6 1 27 0 45
l-1 32 -109 0 c-63 0 -112 4 -116 10 -4 6 35 10 109 10 l116 0 0 41 c0 61 -16
68 -137 69 l-103 0 0 -206 c0 -134 -3 -203 -10 -199 -6 4 -10 83 -10 206 l0
199 -55 0 -55 0 0 -128 0 -127 -31 -38 c-17 -21 -30 -39 -28 -41 2 -1 16 -10
31 -19 19 -12 26 -23 24 -42 -3 -22 1 -25 26 -25 30 0 100 -31 132 -59 16 -14
58 -16 367 -16 192 0 349 -3 349 -6 0 -11 -122 -19 -301 -19 l-179 0 0 -110
c0 -67 -4 -110 -10 -110 -6 0 -10 43 -10 109 0 78 -4 110 -12 113 -7 2 -56 5
-108 7 -61 2 -100 8 -110 16 -17 15 -139 23 -356 24 -136 1 -141 2 -151 23 -9
20 -24 25 -116 39 -59 8 -109 13 -112 11 -3 -3 -5 -18 -5 -33 0 -15 -5 -31
-12 -35 -8 -5 -10 4 -6 34 6 45 13 41 -106 58 l-49 7 6 -102 c3 -55 2 -101 -3
-101 -4 0 4 -40 17 -89 l25 -90 -26 -77 c-17 -50 -23 -81 -16 -88 6 -6 0 -14
-17 -23 -31 -16 -43 -17 -43 -2 0 5 4 8 9 5 5 -3 11 1 15 9 3 9 0 15 -10 15
-12 0 -12 2 -2 14 9 10 15 11 20 2 6 -8 8 -8 8 1 0 6 3 19 6 27 5 13 2 15 -12
9 -17 -6 -17 -5 -5 10 7 9 17 15 21 12 14 -9 32 82 25 125 -5 29 -10 38 -16
29 -4 -7 -11 -10 -16 -6 -4 4 -2 16 5 27 6 10 8 21 3 24 -5 3 -11 20 -13 38
-8 53 -12 62 -36 79 -13 9 -24 20 -25 25 -1 5 -8 9 -16 9 -8 0 -16 6 -19 14
-3 10 0 11 9 5 12 -7 12 -5 0 9 -7 9 -17 15 -21 12 -11 -7 -33 22 -26 33 3 6
-6 13 -22 17 -40 10 -72 33 -72 54 0 10 -13 31 -30 47 -16 16 -30 34 -30 40 0
6 -7 17 -15 24 -8 7 -12 16 -9 21 3 5 0 9 -5 9 -6 0 -11 -2 -11 -4 0 -2 -3
-12 -6 -21 -4 -10 -2 -15 7 -13 7 2 15 -5 17 -16 2 -11 0 -16 -7 -12 -6 4 -11
5 -11 1 0 -3 11 -10 25 -15 14 -5 25 -15 25 -22 0 -9 -3 -9 -12 0 -7 7 -20 12
-29 12 -10 0 -21 9 -24 20 l-6 20 -28 -20 c-25 -17 -88 -39 -168 -57 -18 -4
-21 -11 -20 -56 2 -57 -45 -227 -57 -208 -4 6 5 50 19 97 28 93 29 137 3 142
-9 2 -48 -6 -86 -18 -59 -18 -72 -26 -87 -54 -16 -29 -16 -40 -7 -79 15 -58
15 -62 -2 -48 -8 7 -17 30 -21 52 -4 22 -12 39 -20 39 -7 0 -15 10 -18 21 -5
19 -11 21 -39 15 -18 -3 -36 -10 -41 -15 -4 -4 -10 -53 -14 -109 l-6 -101 24
5 c24 5 24 5 2 -5 -15 -7 -23 -19 -23 -36 0 -14 -4 -25 -10 -25 -5 0 -10 9
-10 20 0 11 -6 20 -12 20 -7 0 -24 3 -37 7 -23 6 -24 4 -18 -30 3 -21 2 -37
-4 -37 -14 0 -11 -17 7 -34 8 -9 11 -16 5 -16 -5 0 -11 -14 -13 -32 -2 -17 -8
-33 -14 -35 -7 -2 -9 8 -6 27 4 28 2 30 -27 30 -19 0 -30 4 -26 10 3 6 17 10
31 10 23 0 24 2 18 43 -4 23 -7 43 -8 44 -1 1 -33 0 -71 -4 l-70 -5 3 -53 c3
-48 6 -52 25 -48 21 4 21 4 3 -11 -17 -14 -17 -17 -1 -68 10 -29 26 -74 37
-100 18 -42 22 -46 43 -38 13 5 26 6 29 3 10 -10 -4 -23 -25 -23 -24 0 -24 -7
1 -47 13 -23 27 -33 44 -33 21 0 25 6 31 43 4 23 23 86 42 139 37 101 39 142
5 151 -11 3 -8 5 9 6 24 1 27 -3 32 -43 5 -35 0 -60 -27 -129 -19 -47 -37
-104 -41 -126 -4 -23 -10 -43 -15 -46 -4 -2 -5 -16 -3 -30 3 -14 -6 -53 -21
-90 -33 -83 -34 -115 -3 -115 18 0 19 -2 7 -10 -20 -13 -227 -13 -235 0 -4 6
7 10 24 10 l31 0 0 63 c0 37 8 88 20 121 19 56 19 57 0 76 -11 11 -20 24 -20
29 0 6 -12 6 -30 1 -17 -5 -54 -12 -83 -15 -28 -4 -55 -9 -59 -12 -5 -2 -8 1
-8 7 0 14 6 15 123 36 l97 16 0 38 c0 36 -17 100 -29 110 -4 3 -14 17 -24 33
-16 24 -23 27 -75 28 -31 0 -75 4 -97 8 -34 7 -28 9 44 10 75 1 82 3 76 19 -9
20 -9 20 -7 99 2 58 4 63 27 69 22 5 25 11 20 38 -2 17 -7 49 -10 70 -3 21 -8
51 -11 65 -6 25 -6 25 9 6 8 -11 17 -29 19 -40 2 -12 10 -18 19 -16 8 2 67 18
132 34 65 17 117 35 117 42 0 28 -33 118 -48 133 -25 25 -52 101 -52 147 l0
40 -21 -33 c-18 -28 -24 -31 -37 -20 -14 12 -13 13 1 16 9 2 25 18 35 35 17
29 18 47 13 182 l-6 150 26 35 c15 20 29 47 32 60 4 24 4 24 6 -3 1 -28 2 -29
44 -22 23 4 47 8 52 9 6 0 11 -18 13 -40 3 -39 5 -42 38 -49 31 -5 41 -1 80
30 50 42 54 60 25 133 -15 37 -17 52 -8 61 15 15 -32 15 -126 -1 -49 -8 -78
-18 -90 -32 -19 -21 -19 -16 -1 29 5 11 -1 15 -24 15 -16 0 -35 6 -41 14 -20
24 5 28 42 6 l35 -21 52 66 c32 41 66 71 88 81 56 23 69 39 64 78 l-4 34 -36
-12 c-31 -11 -41 -11 -59 2 -13 8 -23 19 -23 24 0 6 11 3 24 -6 19 -12 31 -13
54 -5 l30 10 -25 45 c-14 24 -30 44 -37 44 -14 0 -49 62 -45 81 6 29 -13 59
-50 80 -45 25 -76 73 -73 111 1 16 -2 28 -8 28 -5 0 -13 18 -16 40 -4 22 -13
45 -20 51 -30 25 -12 28 26 4 22 -14 44 -25 49 -25 5 0 19 16 32 36 20 33 21
44 16 129 -5 71 -3 96 7 104 10 9 13 -12 14 -112 l2 -124 -30 -28 c-17 -16
-30 -36 -30 -44 0 -9 16 -36 35 -60 38 -47 40 -51 26 -51 -5 0 -23 19 -40 42
-25 34 -32 38 -37 23 -12 -29 9 -67 56 -103 25 -19 50 -44 56 -56 11 -19 19
-21 93 -18 l81 4 0 32 c0 33 0 33 -60 40 -33 4 -62 11 -66 17 -3 6 18 7 60 3
65 -7 66 -6 66 17 1 21 2 22 13 8 16 -21 39 -13 28 9 -34 68 -34 69 -12 101
23 32 45 39 93 29 14 -3 29 60 17 68 -5 3 -9 14 -9 24 0 14 12 21 55 31 59 13
76 25 51 35 -9 3 -16 12 -16 20 0 11 -16 14 -74 12 -78 -3 -101 6 -90 35 8 23
28 22 20 0 -5 -15 -4 -15 9 1 8 11 15 14 15 8 0 -7 8 -12 18 -12 14 0 15 -2 3
-9 -15 -10 38 -6 109 8 33 6 36 10 54 74 10 37 22 67 27 67 4 0 0 -29 -10 -65
l-19 -66 47 6 c43 5 42 4 -27 -21 -39 -14 -69 -30 -66 -35 9 -15 52 -29 94
-31 26 -1 37 -5 33 -14 -2 -7 4 -17 15 -23 15 -8 23 -6 37 9 19 21 45 27 45
10 0 -5 -7 -10 -15 -10 -8 0 -24 -9 -35 -20 -11 -11 -23 -20 -26 -19 -7 1 -94
-117 -94 -128 -1 -5 -19 -28 -41 -53 -23 -25 -36 -35 -30 -24 15 30 -7 50 -34
30 -17 -12 -17 -14 3 -34 17 -17 35 -22 80 -23 l57 -2 -62 -10 c-53 -8 -63
-13 -73 -36 -14 -34 2 -81 27 -81 10 0 27 -7 37 -15 11 -8 23 -15 28 -15 4 0
22 25 39 55 17 30 34 55 38 55 4 0 20 27 36 60 16 33 30 58 32 56 6 -5 -96
-207 -115 -228 -9 -11 -11 -18 -4 -18 6 0 21 19 33 43 12 23 24 36 26 30 5
-14 -49 -114 -72 -133 -27 -23 -87 -49 -100 -44 -7 3 -31 -11 -54 -31 -47 -42
-71 -111 -71 -199 l0 -56 -34 0 c-34 0 -34 -1 -26 -32 18 -72 20 -88 11 -88
-5 0 -15 25 -22 55 -13 58 -19 64 -39 40 -10 -12 -10 -21 -1 -38 22 -41 30
-88 21 -112 -6 -15 -6 -27 1 -30 15 -10 -1 -26 -20 -20 -11 3 -25 -3 -36 -15
-18 -20 -18 -20 63 -20 l82 0 -6 -30 c-4 -19 -2 -30 4 -30 6 0 9 -6 6 -14 -4
-10 2 -12 20 -9 16 3 26 1 26 -6 0 -6 9 -11 19 -11 11 0 23 -5 26 -10 4 -7 -8
-8 -34 -4 -29 5 -41 3 -41 -5 0 -18 -19 -3 -39 30 l-18 29 -24 -35 c-13 -19
-32 -35 -41 -35 -10 0 -18 -3 -18 -7 0 -5 -23 -28 -52 -53 -33 -28 -49 -37
-44 -25 6 17 5 18 -11 3 -34 -29 -118 -73 -135 -70 -10 2 -18 -2 -18 -7 0 -6
-7 -11 -15 -11 -28 0 -13 -110 21 -148 1 -2 31 10 67 28 67 33 177 53 177 31
0 -6 -17 -11 -40 -11 -45 0 -138 -32 -172 -59 -20 -16 -21 -22 -10 -45 l12
-26 48 24 c49 25 170 47 159 29 -4 -6 -30 -13 -58 -17 -41 -6 -118 -34 -137
-51 -2 -2 2 -21 7 -43 l11 -40 48 14 c26 8 121 35 212 60 91 25 189 52 218 60
l52 15 -17 31 c-10 17 -27 35 -38 40 -11 5 -40 38 -64 74 -24 35 -47 66 -51
69 -14 9 -31 -114 -24 -176 5 -41 3 -60 -3 -56 -20 12 -24 113 -8 189 10 45
14 91 10 121 -8 58 0 61 15 5 14 -50 68 -140 81 -133 4 3 18 -4 29 -15 11 -11
25 -18 29 -15 8 5 21 -15 27 -42 4 -22 -11 -14 -44 23 -18 20 -32 32 -32 27 0
-5 27 -37 59 -71 l60 -62 15 22 c25 35 20 55 -14 62 -16 3 -30 10 -30 16 0 6
11 8 28 4 28 -6 22 3 -20 27 -14 7 -16 6 -12 -6 4 -8 1 -15 -5 -15 -6 0 -11 9
-11 19 0 11 -14 29 -31 41 -34 25 -33 38 3 20 l23 -12 -23 22 c-13 12 -21 28
-18 36 3 8 1 14 -4 14 -6 0 -10 -8 -10 -17 0 -14 -3 -13 -16 5 -12 18 -13 26
-4 37 6 8 11 22 10 32 -4 32 0 43 14 43 16 0 29 -41 20 -64 -4 -9 -1 -16 6
-16 6 0 10 -6 7 -12 -3 -10 27 -75 49 -106 1 -2 10 -5 21 -7 10 -2 18 -4 18
-5 0 -8 65 -8 70 0 15 24 24 7 10 -20 l-16 -30 112 -138 c61 -75 118 -138 125
-140 8 -2 14 -9 14 -15 0 -7 9 -18 20 -25 12 -7 25 -23 29 -35 5 -13 6 20 3
77 l-5 99 53 -7 c32 -4 56 -3 59 3 4 6 23 6 54 -1 133 -28 375 -60 485 -65
l122 -4 0 24 c0 41 -66 61 -108 31 -21 -14 -22 -14 -22 5 0 14 6 21 20 21 27
0 25 16 -2 31 -13 7 -18 14 -11 16 6 2 24 -4 39 -13 26 -18 27 -18 55 17 24
29 28 43 29 97 l0 62 -95 0 c-57 0 -95 4 -95 10 0 6 38 10 95 10 l95 0 0 55 0
55 -141 0 -142 0 6 -37 c14 -92 18 -148 9 -133 -6 8 -13 43 -17 78 -4 34 -10
62 -13 62 -3 0 -13 -7 -22 -15 -9 -8 -25 -16 -36 -17 -34 -4 -184 14 -190 23
-6 11 21 11 111 -1 50 -6 77 -5 95 3 26 13 71 93 63 113 -5 13 41 24 101 24
35 0 43 4 54 27 14 31 16 133 3 133 -5 0 -38 -9 -73 -20 -72 -22 -78 -23 -78
-11 0 4 36 18 80 31 l80 23 0 53 0 54 -97 1 c-64 0 -91 3 -78 9 11 5 55 9 98
9 52 1 77 5 77 13 0 6 23 47 51 90 43 66 51 83 45 109 -3 18 -2 37 3 43 5 6 5
36 0 71 -10 67 -12 494 -3 531 6 22 4 23 -23 18 -21 -4 -33 -1 -44 12 -9 12
-10 15 -1 10 7 -4 26 -4 43 -1 l31 7 -4 94 c-1 52 -1 94 2 94 3 0 13 21 24 46
23 56 32 52 11 -6 -8 -23 -15 -44 -15 -46 0 -2 17 -4 38 -4 34 0 39 3 49 33
26 76 26 77 -1 77 -14 0 -28 5 -32 11 -4 8 -9 7 -16 -2 -7 -11 -8 -9 -4 4 3
10 6 24 6 30 0 6 9 1 20 -11 14 -14 33 -22 55 -22z m-745 16 c0 -16 -18 -31
-27 -22 -8 8 5 36 17 36 5 0 10 -6 10 -14z m3518 0 c-10 -7 -18 -22 -19 -32 0
-15 -2 -14 -10 5 -10 26 1 41 31 41 12 -1 12 -3 -2 -14z m-538 -16 c-6 -11
-18 -20 -28 -20 -13 0 -12 4 8 20 31 25 33 25 20 0z m336 -17 c-4 -4 -11 -1
-16 7 -16 25 -11 35 7 17 9 -9 13 -20 9 -24z m-2036 -4 c0 -11 -4 -17 -10 -14
-5 3 -10 15 -10 26 0 11 5 17 10 14 6 -3 10 -15 10 -26z m780 -55 c0 -57 2
-64 20 -64 11 0 20 6 20 13 0 9 3 8 9 -2 5 -7 14 -10 20 -7 6 4 11 3 11 -2 0
-12 -24 -22 -51 -22 -10 0 -19 -4 -19 -10 0 -16 46 -23 69 -10 26 13 27 6 2
-19 -29 -29 -42 -29 -70 -2 -22 23 -26 36 -29 115 -3 64 -1 87 7 82 6 -4 11
-35 11 -72z m1315 65 c8 -11 -31 -49 -51 -49 -7 0 -15 -6 -18 -12 -3 -7 -5 -4
-3 7 1 11 7 20 12 21 25 2 46 18 41 30 -6 16 10 19 19 3z m105 -4 c0 -2 -7 -5
-15 -9 -9 -3 -15 0 -15 9 0 9 6 12 15 9 8 -4 15 -7 15 -9z m-3520 -26 c-6 -10
-15 -19 -20 -19 -13 0 -13 6 2 29 15 25 31 16 18 -10z m3570 11 c-8 -5 -17 -7
-19 -4 -3 3 1 9 9 14 8 5 17 7 19 4 3 -3 -1 -9 -9 -14z m-1317 -145 c-6 -145
-5 -156 13 -170 11 -8 14 -15 7 -15 -10 0 -13 -26 -13 -94 0 -97 -5 -126 -22
-126 -6 0 -9 50 -6 135 l3 135 -121 0 c-67 0 -155 -3 -197 -6 l-77 -7 0 -68
c0 -41 -4 -69 -10 -69 -13 0 -11 328 2 336 4 3 8 -33 8 -80 l0 -86 178 1 c97
0 187 3 200 6 21 5 22 9 22 134 0 78 4 129 10 129 6 0 7 -56 3 -155z m262 144
c12 -19 -5 -23 -22 -6 -16 16 -16 17 -1 17 9 0 20 -5 23 -11z m446 -32 c-8 -8
-11 -7 -11 4 0 9 3 19 7 23 4 4 9 2 11 -4 3 -7 -1 -17 -7 -23z m-3530 -37 c12
0 17 -4 13 -11 -3 -6 -15 -9 -25 -6 -11 3 -19 0 -19 -6 0 -6 -6 -2 -14 9 -8
10 -10 21 -5 22 5 2 9 12 9 21 0 32 15 33 18 2 2 -23 8 -31 23 -31z m323 44
c4 -10 1 -14 -6 -12 -15 5 -23 28 -10 28 5 0 13 -7 16 -16z m3679 -9 c-5 -13
-23 -22 -23 -11 0 15 14 35 21 31 4 -3 6 -12 2 -20z m48 -8 c-16 -16 -25 -1
-10 16 8 8 16 11 18 5 2 -5 -2 -15 -8 -21z m-4025 8 c-21 -16 -32 -13 -21 4 3
6 14 11 23 11 15 -1 15 -2 -2 -15z m-316 -15 c-19 -12 -30 -12 -30 -1 0 10 31
20 40 14 2 -2 -2 -8 -10 -13z m3390 -1 c-7 -11 -14 -18 -17 -15 -8 8 5 36 17
36 7 0 7 -6 0 -21z m-3330 1 c0 -5 -9 -10 -21 -10 -11 0 -17 5 -14 10 3 6 13
10 21 10 8 0 14 -4 14 -10z m3729 -11 c-22 -14 -33 -10 -19 6 7 8 17 12 22 9
6 -4 5 -10 -3 -15z m-3673 -4 c10 -8 14 -15 8 -15 -5 0 -19 7 -30 15 -10 8
-14 15 -8 15 5 0 19 -7 30 -15z m104 5 c0 -5 -12 -10 -26 -10 -14 0 -23 4 -19
10 3 6 15 10 26 10 10 0 19 -4 19 -10z m4086 -17 c-10 -10 -19 5 -10 18 6 11
8 11 12 0 2 -7 1 -15 -2 -18z m-926 -3 c27 -17 1 -23 -32 -7 -31 16 -31 17 -8
17 14 0 32 -4 40 -10z m-2689 -43 c-13 -13 -15 1 -4 30 7 17 8 17 11 -1 2 -10
-1 -23 -7 -29z m3069 33 c0 -5 -9 -10 -20 -10 -11 0 -20 5 -20 10 0 6 9 10 20
10 11 0 20 -4 20 -10z m-3622 -12 c19 -19 14 -37 -8 -31 -11 3 -20 14 -20 24
0 22 11 24 28 7z m3566 -22 c-6 -16 -24 -23 -24 -8 0 10 22 33 27 28 2 -2 1
-11 -3 -20z m-284 -12 c0 -8 -4 -12 -10 -9 -5 3 -10 13 -10 21 0 8 5 12 10 9
6 -3 10 -13 10 -21z m-3206 -8 c-6 -16 -24 -23 -24 -8 0 10 22 33 27 28 2 -2
1 -11 -3 -20z m46 9 c0 -8 -4 -15 -9 -15 -13 0 -22 16 -14 24 11 11 23 6 23
-9z m2523 1 c11 -28 -52 -62 -68 -36 -4 6 5 10 19 10 14 0 25 3 25 8 -5 30 14
45 24 18z m887 -16 c0 -5 -6 -10 -14 -10 -8 0 -18 5 -21 10 -3 6 3 10 14 10
12 0 21 -4 21 -10z m-50 -19 c0 -5 -7 -12 -16 -15 -24 -9 -28 -7 -14 9 14 17
30 20 30 6z m-190 -11 c0 -6 -7 -13 -16 -17 -11 -4 -14 -13 -10 -29 4 -13 2
-24 -3 -24 -5 0 -7 -9 -4 -20 3 -11 9 -20 14 -20 5 0 9 -4 9 -10 0 -5 -7 -7
-15 -4 -8 4 -15 14 -15 24 0 10 -7 20 -15 24 -18 6 -10 32 19 63 23 24 36 29
36 13z m-4258 -7 c68 -6 68 -6 93 -51 20 -35 25 -58 25 -113 0 -42 -4 -69 -11
-69 -6 0 -8 -8 -6 -17 3 -10 8 -35 12 -55 l6 -38 198 0 c185 0 199 -1 216 -20
10 -11 13 -20 7 -20 -6 0 -14 5 -17 10 -4 6 -85 10 -210 10 -228 0 -210 -7
-221 85 -4 34 -3 55 5 59 17 11 13 102 -5 139 -32 62 -40 67 -128 68 -45 1
-106 4 -136 9 l-55 7 80 2 c44 0 110 -2 147 -6z m291 0 c-7 -2 -21 -2 -30 0
-10 3 -4 5 12 5 17 0 24 -2 18 -5z m1097 -43 c-11 -15 -24 -38 -28 -51 -7 -17
-10 -19 -14 -7 -8 19 40 101 53 92 5 -3 1 -18 -11 -34z m3010 31 c0 -5 -7 -11
-15 -15 -9 -3 -15 0 -15 9 0 8 7 15 15 15 8 0 15 -4 15 -9z m-2785 -11 c-3 -5
-1 -10 4 -10 15 0 14 -16 -3 -32 -8 -8 -15 -23 -17 -33 -2 -10 -10 -20 -18
-23 -17 -6 -5 38 16 55 9 7 10 13 4 17 -12 8 -3 36 11 36 5 0 6 -4 3 -10z
m-291 -19 c-5 -5 -21 -13 -36 -16 -21 -5 -28 -3 -28 8 0 10 7 13 24 10 13 -3
27 0 31 7 4 6 10 9 13 5 3 -3 1 -9 -4 -14z m1916 -1 c0 -5 -9 -10 -20 -10 -11
0 -20 5 -20 10 0 6 9 10 20 10 11 0 20 -4 20 -10z m1110 -19 c-9 -17 -8 -22 5
-28 13 -5 14 -7 3 -14 -10 -7 -10 -9 0 -9 7 0 12 -12 12 -28 0 -26 3 -28 30
-24 19 3 30 0 30 -8 0 -7 -8 -9 -19 -5 -23 7 -65 -29 -58 -49 6 -16 -63 -39
-87 -30 -12 5 -15 2 -10 -12 6 -17 4 -16 -16 3 l-23 21 21 23 c18 18 24 20 37
9 12 -10 15 -10 15 4 0 9 8 16 20 16 14 0 18 -5 13 -17 -4 -11 -3 -14 5 -9 15
9 26 71 17 93 -5 10 -7 24 -6 31 1 6 -3 12 -9 12 -17 0 -11 38 8 42 24 6 25 3
12 -21z m-55 9 c-3 -5 -13 -10 -21 -10 -8 0 -14 5 -14 10 0 6 9 10 21 10 11 0
17 -4 14 -10z m-3535 -18 c0 -5 -16 -13 -35 -19 -41 -13 -48 1 -7 15 35 13 42
14 42 4z m616 -56 c-9 -19 -16 -54 -16 -79 0 -25 -4 -49 -10 -52 -6 -4 -10 6
-10 22 0 15 -3 39 -6 53 -5 20 -4 22 6 10 9 -12 10 -8 5 18 -4 20 -3 32 4 32
6 0 17 12 23 26 7 15 14 21 16 15 2 -7 -3 -27 -12 -45z m1146 29 c4 -5 8 -20
8 -31 0 -17 5 -20 28 -17 30 5 14 -9 -25 -21 -20 -7 -23 -4 -23 22 0 32 -14
42 -56 42 -13 0 -24 3 -24 8 0 11 84 9 92 -3z m114 -1 c17 -14 17 -15 1 -10
-10 3 -25 6 -33 6 -8 0 -14 5 -14 10 0 15 24 12 46 -6z m1979 -14 c-10 -11
-20 -18 -23 -15 -7 6 18 35 31 35 5 0 2 -9 -8 -20z m-835 0 c12 -8 9 -10 -12
-10 -16 0 -28 5 -28 10 0 13 20 13 40 0z m-2270 -26 c0 -14 -4 -23 -10 -19 -5
3 -10 15 -10 26 0 10 5 19 10 19 6 0 10 -12 10 -26z m62 -11 c-5 -10 -7 -25
-4 -33 3 -12 1 -11 -13 2 -15 14 -16 20 -5 32 17 22 33 20 22 -1z m1782 -14
c11 -11 23 -19 28 -19 4 0 8 -7 8 -16 0 -13 -5 -12 -26 5 -19 15 -30 18 -39
11 -9 -8 -14 -5 -18 10 -3 12 -13 20 -26 20 -12 0 -21 5 -21 10 0 17 71 0 94
-21z m406 16 c10 -12 10 -15 -4 -15 -9 0 -16 7 -16 15 0 8 2 15 4 15 2 0 9 -7
16 -15z m497 -22 c-3 -10 -5 -4 -5 12 0 17 2 24 5 18 2 -7 2 -21 0 -30z m313
12 c-7 -8 -17 -15 -22 -15 -6 0 -5 7 2 15 7 8 17 15 22 15 6 0 5 -7 -2 -15z
m506 -10 c4 -8 14 -15 23 -16 12 0 12 -2 -4 -9 -11 -5 -14 -9 -7 -9 15 -1 6
-21 -9 -21 -6 0 -9 10 -7 23 3 19 -1 22 -27 19 -16 -2 -32 -8 -33 -13 -2 -5
-8 -6 -13 -3 -6 3 -17 0 -25 -7 -8 -6 -17 -9 -21 -5 -11 11 13 27 48 31 19 3
35 9 37 15 5 15 32 12 38 -5z m-1646 -4 c0 -4 11 -6 23 -4 17 3 24 0 24 -12 0
-10 -7 -15 -21 -13 -12 1 -27 -1 -34 -6 -18 -11 -22 -5 -15 22 5 21 23 31 23
13z m-1886 -18 c4 -10 0 -23 -10 -32 -15 -15 -16 -15 -11 1 8 23 -22 12 -45
-17 -9 -11 -20 -17 -24 -13 -7 7 63 77 77 78 4 0 10 -8 13 -17z m2245 -10 c2
-2 -5 -3 -17 -3 -14 0 -22 6 -22 16 0 14 3 15 18 3 9 -7 19 -15 21 -16z m741
20 c0 -1 -12 -9 -27 -17 -16 -8 -22 -15 -15 -16 15 0 16 -20 1 -20 -6 0 -13 9
-16 20 -3 11 -9 20 -14 20 -5 0 -9 3 -9 8 0 4 18 7 40 7 22 1 40 0 40 -2z
m407 -29 c-7 -7 -37 7 -37 17 0 6 9 5 21 -1 11 -7 19 -14 16 -16z m204 13 c-1
-12 -15 -9 -19 4 -3 6 1 10 8 8 6 -3 11 -8 11 -12z m129 -3 c0 -2 -9 -4 -21
-4 -11 0 -18 4 -14 10 5 8 35 3 35 -6z m-488 -6 c-9 -9 -15 -9 -24 0 -9 9 -7
12 12 12 19 0 21 -3 12 -12z m421 5 c-7 -2 -19 -2 -25 0 -7 3 -2 5 12 5 14 0
19 -2 13 -5z m-3876 -25 c-3 -8 -6 -5 -6 6 -1 11 2 17 5 13 3 -3 4 -12 1 -19z
m3508 12 c3 -5 -1 -10 -9 -10 -8 0 -18 5 -21 10 -3 6 1 10 9 10 8 0 18 -4 21
-10z m50 0 c-3 -5 -13 -10 -21 -10 -8 0 -14 5 -14 10 0 6 9 10 21 10 11 0 17
-4 14 -10z m-155 -10 c-19 -13 -30 -13 -30 0 0 6 10 10 23 10 18 0 19 -2 7
-10z m-1385 -17 c22 -3 44 -9 50 -14 14 -13 -63 -11 -102 3 -36 13 -46 35 -10
23 12 -4 40 -9 62 -12z m1325 2 c-7 -8 -17 -12 -22 -9 -6 4 -5 10 3 15 22 14
33 10 19 -6z m-105 -5 c-3 -5 -13 -10 -21 -10 -8 0 -12 5 -9 10 3 6 13 10 21
10 8 0 12 -4 9 -10z m60 0 c3 -5 -3 -10 -14 -10 -12 0 -21 5 -21 10 0 6 6 10
14 10 8 0 18 -4 21 -10z m-3308 -22 c-3 -8 -6 -5 -6 6 -1 11 2 17 5 13 3 -3 4
-12 1 -19z m183 7 c-7 -9 -15 -13 -17 -11 -7 7 7 26 19 26 6 0 6 -6 -2 -15z
m2890 -5 c10 -18 7 -22 -19 -31 -17 -6 -31 -17 -31 -25 0 -8 -7 -14 -15 -14
-10 0 -15 10 -15 30 0 28 2 30 20 20 23 -12 50 5 42 28 -6 19 6 14 18 -8z
m109 -10 c-22 -14 -34 2 -13 17 13 10 20 10 23 2 2 -6 -3 -15 -10 -19z m-3048
5 c-2 -19 -66 -145 -74 -145 -5 0 0 13 9 30 16 27 12 59 -4 34 -8 -13 -62 -25
-62 -14 0 4 6 13 13 19 8 6 12 25 11 43 -2 18 -1 25 2 15 4 -12 12 -15 30 -11
26 7 31 -5 12 -24 -8 -8 -8 -12 -1 -12 16 0 36 28 30 44 -3 7 0 19 6 25 13 13
29 10 28 -4z m2999 -5 c-19 -13 -30 -13 -30 0 0 6 10 10 23 10 18 0 19 -2 7
-10z m2 -32 c-6 -6 -15 -8 -19 -4 -4 4 -1 11 7 16 19 12 27 3 12 -12z m-182
-3 c0 -8 -4 -15 -9 -15 -5 0 -11 7 -15 15 -3 9 0 15 9 15 8 0 15 -7 15 -15z
m150 -5 c0 -11 -4 -20 -8 -20 -5 0 -7 -18 -6 -39 1 -33 -2 -40 -20 -45 -36
-10 -40 -7 -18 14 27 26 27 32 1 48 -12 7 -18 16 -15 19 3 3 12 0 20 -6 12
-10 15 -7 21 19 7 34 25 41 25 10z m-3720 0 c0 -5 -5 -10 -11 -10 -5 0 -7 5
-4 10 3 6 8 10 11 10 2 0 4 -4 4 -10z m43 -3 c4 3 7 1 7 -6 0 -17 -32 -10 -38
9 -4 12 -3 13 10 3 8 -7 18 -10 21 -6z m-1013 -67 c0 -33 3 -38 18 -34 16 5
16 5 0 -9 -16 -13 -18 -38 -18 -254 0 -225 -1 -242 -20 -264 -16 -20 -19 -21
-20 -7 0 9 5 20 10 23 6 4 10 115 10 301 0 194 3 293 10 289 6 -3 10 -24 10
-45z m1530 40 c0 -13 -28 -25 -38 -16 -3 4 0 11 8 16 20 13 30 12 30 0z m3010
-20 c0 -11 -4 -20 -10 -20 -5 0 -10 9 -10 20 0 11 5 20 10 20 6 0 10 -9 10
-20z m-4161 -4 c9 -11 5 -13 -19 -12 -30 1 -36 6 -23 19 10 11 30 8 42 -7z
m3422 7 c0 -5 3 -28 6 -52 4 -34 2 -42 -8 -39 -17 6 -25 98 -10 98 6 0 11 -3
12 -7z m799 -7 c0 -8 -4 -18 -10 -21 -5 -3 -10 3 -10 14 0 12 5 21 10 21 6 0
10 -6 10 -14z m-540 -6 c0 -5 -2 -10 -4 -10 -3 0 -8 5 -11 10 -3 6 -1 10 4 10
6 0 11 -4 11 -10z m-2420 -7 c0 -14 -19 -38 -25 -32 -8 8 5 39 16 39 5 0 9 -3
9 -7z m-1335 -13 c-3 -5 -13 -10 -21 -10 -8 0 -12 5 -9 10 3 6 13 10 21 10 8
0 12 -4 9 -10z m1282 -15 c-4 -8 -11 -15 -17 -15 -7 0 -7 6 0 21 13 23 26 19
17 -6z m-1507 5 c0 -5 -9 -10 -20 -10 -11 0 -20 5 -20 10 0 6 9 10 20 10 11 0
20 -4 20 -10z m55 -10 c3 -5 -3 -10 -14 -10 -12 0 -21 5 -21 10 0 6 6 10 14
10 8 0 18 -4 21 -10z m4405 -15 c0 -18 5 -25 20 -25 11 0 20 -7 20 -16 0 -11
-6 -14 -20 -9 -14 5 -20 2 -20 -10 0 -9 4 -14 9 -10 15 9 22 -12 8 -23 -6 -5
-23 -12 -37 -16 -25 -6 -25 -6 -4 9 18 14 20 21 13 58 -11 56 -11 67 1 67 6 0
10 -11 10 -25z m40 5 c0 -11 -4 -20 -10 -20 -5 0 -10 9 -10 20 0 11 5 20 10
20 6 0 10 -9 10 -20z m-4380 0 c0 -5 -9 -10 -20 -10 -11 0 -20 5 -20 10 0 6 9
10 20 10 11 0 20 -4 20 -10z m53 -10 c-4 -16 -8 -18 -19 -9 -20 16 -17 29 5
29 14 0 18 -5 14 -20z m1348 -23 c-8 -8 -11 -7 -11 4 0 20 13 34 18 19 3 -7
-1 -17 -7 -23z m3013 -11 c2 -16 -1 -25 -8 -23 -6 2 -12 18 -13 36 -2 40 17
28 21 -13z m-2974 13 c-7 -11 -14 -19 -16 -16 -7 7 7 37 17 37 6 0 5 -9 -1
-21z m3026 -16 c-11 -11 -19 6 -11 24 8 17 8 17 12 0 3 -10 2 -21 -1 -24z
m-3099 20 c-4 -3 1 -12 10 -18 15 -11 15 -15 4 -29 -7 -9 -18 -16 -23 -16 -6
0 -5 7 2 15 10 12 10 15 -4 15 -18 0 -19 2 -10 24 3 9 11 16 17 16 6 0 7 -3 4
-7z m-1307 -39 c0 -8 -4 -14 -10 -14 -5 0 -10 9 -10 21 0 11 5 17 10 14 6 -3
10 -13 10 -21z m1357 -18 c-10 -26 -25 -18 -19 10 3 17 8 22 15 15 5 -5 7 -17
4 -25z m3066 -3 c-5 -12 -7 -12 -14 -1 -13 20 -11 28 5 22 8 -3 12 -12 9 -21z
m-46 -15 c-9 -6 -9 -8 1 -8 6 0 12 -4 12 -10 0 -12 -27 -14 -33 -2 -3 4 0 18
5 32 7 20 11 22 18 10 6 -9 5 -17 -3 -22z m-4367 -24 c0 -8 -4 -14 -10 -14 -5
0 -10 9 -10 21 0 11 5 17 10 14 6 -3 10 -13 10 -21z m1274 2 c-6 -16 -24 -23
-24 -8 0 10 22 33 27 28 2 -2 1 -11 -3 -20z m40 -10 c-6 -16 -24 -23 -24 -8 0
10 22 33 27 28 2 -2 1 -11 -3 -20z m301 14 c18 -8 17 -9 -7 -9 -16 -1 -28 4
-28 9 0 12 8 12 35 0z m2690 -19 c-34 -21 -38 -21 -29 3 3 9 17 16 33 16 l26
0 -30 -19z m-2465 -1 c0 -14 -85 -19 -97 -7 -9 9 0 12 42 13 30 0 55 -3 55 -6z
m2397 -22 c-29 -19 91 3 158 28 18 7 18 6 6 -9 -7 -9 -29 -19 -50 -23 -20 -4
-41 -11 -48 -16 -7 -5 -21 -7 -33 -3 -11 3 -20 2 -20 -3 0 -10 -70 -56 -76
-50 -5 6 10 24 31 36 19 11 18 11 -7 12 -16 0 -28 5 -28 10 0 6 6 10 14 10 8
0 17 9 21 20 5 16 9 18 25 8 14 -9 16 -14 7 -20z m-2647 12 c12 -8 11 -10 -7
-10 -12 0 -25 5 -28 10 -8 13 15 13 35 0z m2827 -22 c-3 -8 -6 -5 -6 6 -1 11
2 17 5 13 3 -3 4 -12 1 -19z m-4407 -14 c0 -8 -4 -14 -10 -14 -5 0 -10 9 -10
21 0 11 5 17 10 14 6 -3 10 -13 10 -21z m1185 -31 c-5 -22 -4 -25 8 -15 26 22
27 -21 1 -53 -20 -26 -24 -27 -41 -14 -17 13 -17 13 0 -13 18 -29 11 -37 -12
-15 -11 10 -13 10 -7 0 4 -7 2 -13 -3 -13 -15 0 -14 17 3 48 7 15 21 44 30 65
18 43 31 49 21 10z m2035 17 c0 -5 -2 -10 -4 -10 -3 0 -8 5 -11 10 -3 6 -1 10
4 10 6 0 11 -4 11 -10z m872 -12 c-6 -6 -15 -8 -19 -4 -4 4 -1 11 7 16 8 5 17
7 19 4 3 -2 -1 -10 -7 -16z m-4096 -24 c-3 -9 -6 -18 -6 -20 0 -2 -4 -4 -9 -4
-5 0 -7 9 -4 20 3 11 10 20 15 20 6 0 7 -7 4 -16z m1421 10 c-3 -3 -12 -4 -19
-1 -8 3 -5 6 6 6 11 1 17 -2 13 -5z m2633 -4 c12 -8 12 -10 -2 -15 -10 -4 -14
-13 -11 -23 5 -12 2 -14 -11 -9 -10 4 -29 7 -42 7 -13 0 -24 5 -24 11 0 7 12
10 30 7 27 -4 35 2 31 25 -1 10 11 9 29 -3z m-4112 -19 c3 -8 -1 -12 -9 -9 -7
2 -15 10 -17 17 -3 8 1 12 9 9 7 -2 15 -10 17 -17z m1631 5 c30 -7 56 -17 58
-23 5 -13 -105 11 -120 26 -14 14 -5 13 62 -3z m-1672 -26 c-1 -11 -5 -20 -9
-20 -4 0 -8 9 -8 20 0 11 4 20 9 20 6 0 9 -9 8 -20z m4043 10 c0 -5 -4 -10
-10 -10 -5 0 -10 5 -10 10 0 6 5 10 10 10 6 0 10 -4 10 -10z m-2273 -6 c-3 -3
-12 -4 -19 -1 -8 3 -5 6 6 6 11 1 17 -2 13 -5z m-1695 -14 c6 0 8 -3 4 -7 -4
-4 -15 -8 -24 -8 -9 0 -18 -9 -20 -20 -5 -28 -22 -44 -22 -21 0 15 -3 16 -15
6 -8 -6 -20 -10 -26 -8 -7 2 4 14 24 26 21 12 37 26 37 33 0 6 7 8 16 5 9 -3
21 -6 26 -6z m1468 3 c0 -14 -19 -38 -25 -32 -8 8 5 39 16 39 5 0 9 -3 9 -7z
m314 -6 c33 -7 62 -19 64 -26 3 -9 0 -12 -9 -9 -8 3 -40 11 -71 18 -32 7 -58
17 -58 22 0 10 2 10 74 -5z m2331 2 c11 -17 -1 -21 -15 -4 -8 9 -8 15 -2 15 6
0 14 -5 17 -11z m-2156 -28 c7 -5 9 -11 5 -14 -13 -8 -64 4 -64 14 0 11 41 11
59 0z m2210 -42 c3 -9 -1 -8 -13 4 -10 9 -22 17 -27 17 -5 0 -9 5 -9 11 0 15
42 -13 49 -32z m97 12 c8 -16 13 -19 16 -9 3 7 8 10 12 7 10 -9 -4 -39 -19
-39 -13 0 -30 28 -27 43 1 4 -2 7 -8 7 -5 0 -10 5 -10 11 0 17 24 4 36 -20z
m-2761 -18 c33 -11 87 -24 120 -28 33 -3 97 -20 143 -36 46 -16 93 -29 105
-29 25 0 54 -16 46 -24 -8 -9 -86 9 -149 33 -30 12 -60 21 -66 21 -5 0 -18
-33 -27 -72 -21 -89 -21 -98 -2 -98 8 0 15 -5 15 -11 0 -6 -9 -9 -19 -6 -20 5
-31 -10 -31 -42 0 -14 16 -20 95 -31 53 -7 98 -17 101 -21 7 -12 -2 -11 -107
7 -74 12 -93 13 -100 3 -9 -15 -34 -177 -28 -183 2 -2 16 -2 32 1 19 4 27 12
28 27 1 20 2 20 7 1 l5 -20 8 20 c7 18 8 17 8 -6 1 -23 -4 -27 -53 -38 -30 -7
-70 -10 -88 -6 -18 3 -53 -1 -78 -8 l-45 -14 -5 -59 c-7 -73 -17 -53 -23 46
-3 44 -17 108 -32 155 -16 45 -27 98 -26 121 l2 42 -58 7 c-99 11 -103 13
-102 49 1 29 1 29 8 6 6 -21 15 -26 56 -32 28 -4 62 -9 76 -12 22 -4 28 -1 31
19 5 22 -1 27 -63 52 -38 16 -69 31 -69 36 0 13 24 7 78 -18 30 -14 57 -23 62
-20 4 2 10 21 13 42 8 44 60 164 67 153 3 -4 32 -16 65 -27z m541 26 c30 -8
42 -15 35 -22 -11 -11 -101 11 -101 25 0 11 13 10 66 -3z m2184 -7 c0 -4 -9
-13 -20 -20 -18 -11 -20 -10 -20 8 0 13 7 20 20 20 11 0 20 -3 20 -8z m-4360
-27 c-7 -9 -15 -13 -17 -11 -7 7 7 26 19 26 6 0 6 -6 -2 -15z m70 -14 c0 -10
-8 -25 -17 -32 -15 -12 -16 -12 -10 4 4 10 7 28 7 38 0 11 5 17 10 14 6 -3 10
-14 10 -24z m2204 23 c26 -10 9 -21 -23 -16 -17 2 -28 8 -25 13 6 10 26 12 48
3z m-1100 -70 c10 -31 15 -58 12 -61 -6 -6 -6 -5 -31 66 -17 51 -18 51 -7 51
5 0 16 -25 26 -56z m3351 46 c-3 -5 -13 -10 -21 -10 -8 0 -12 5 -9 10 3 6 13
10 21 10 8 0 12 -4 9 -10z m-4574 -27 c-8 -15 -10 -15 -11 -2 0 17 10 32 18
25 2 -3 -1 -13 -7 -23z m4519 17 c0 -13 -11 -13 -30 0 -12 8 -11 10 8 10 12 0
22 -4 22 -10z m134 4 c29 -11 17 -21 -21 -18 -50 3 -53 4 -23 14 14 4 26 8 27
9 1 1 8 -2 17 -5z m56 -22 c0 -15 -2 -15 -10 -2 -13 20 -13 33 0 25 6 -3 10
-14 10 -23z m-4567 -25 c-3 -5 -9 -3 -14 4 -4 7 -5 17 -2 22 3 5 9 3 14 -4 4
-7 5 -17 2 -22z m4612 -7 c3 -5 -3 -10 -14 -10 -12 0 -21 5 -21 10 0 6 6 10
14 10 8 0 18 -4 21 -10z m-4736 -9 c8 -5 9 -11 3 -15 -5 -3 -15 1 -22 9 -14
16 -3 20 19 6z m102 -16 c5 4 9 2 9 -3 0 -8 -22 -22 -36 -22 -2 0 -4 12 -4 28
1 23 2 25 11 9 6 -9 14 -15 20 -12z m1289 4 c0 -5 -5 -8 -12 -6 -7 1 -15 -11
-19 -28 -5 -25 -7 -26 -8 -7 -1 29 17 64 30 57 5 -4 9 -10 9 -16z m-56 -5 c8
-22 9 -22 -16 -19 -32 3 -32 3 -18 20 16 19 26 19 34 -1z m3444 -2 c6 -18 -15
-14 -22 4 -4 10 -1 14 6 12 6 -2 14 -10 16 -16z m-4723 -12 c3 -5 -1 -10 -9
-10 -8 0 -18 5 -21 10 -3 6 1 10 9 10 8 0 18 -4 21 -10z m625 1 c0 -13 -28
-22 -35 -11 -3 4 1 11 7 13 20 8 28 8 28 -2z m1435 -9 c-3 -3 -11 0 -18 7 -9
10 -8 11 6 5 10 -3 15 -9 12 -12z m2698 -12 c3 -11 1 -23 -4 -26 -5 -3 -9 6
-9 20 0 31 6 34 13 6z m-4193 -10 c-19 -12 -30 -12 -30 -1 0 10 31 20 40 14 2
-2 -2 -8 -10 -13z m66 -5 c-21 -16 -32 -13 -21 4 3 6 14 11 23 11 15 -1 15 -2
-2 -15z m639 -32 c3 -19 5 -36 3 -38 -8 -8 -34 -9 -36 -2 -5 18 -1 26 13 21 8
-4 15 -2 15 4 0 5 -7 12 -15 16 -8 3 -15 14 -15 25 0 34 27 13 35 -26z m1014
21 c-6 -7 -15 -11 -21 -8 -5 3 -4 12 3 20 6 7 15 11 21 8 5 -3 4 -12 -3 -20z
m-168 -1 c13 -17 13 -17 -6 -3 -11 8 -22 16 -24 17 -2 2 0 3 6 3 6 0 17 -8 24
-17z m-1958 0 c-46 -2 -120 -2 -165 0 -46 1 -9 3 82 3 91 0 128 -2 83 -3z
m4643 -30 c-7 -7 -26 7 -26 19 0 6 6 6 15 -2 9 -7 13 -15 11 -17z m-4283 10
c-7 -2 -19 -2 -25 0 -7 3 -2 5 12 5 14 0 19 -2 13 -5z m165 0 c-10 -2 -28 -2
-40 0 -13 2 -5 4 17 4 22 1 32 -1 23 -4z m-868 -8 c0 -3 -22 -41 -50 -84 -77
-124 -90 -190 -90 -463 0 -122 5 -239 10 -258 5 -19 34 -75 64 -125 50 -83 53
-91 39 -107 -9 -10 -23 -18 -32 -18 -13 1 -12 4 4 17 21 17 20 18 -40 122
l-60 105 -3 241 c-4 294 7 356 90 492 44 71 68 99 68 78z m4347 -47 c-3 -7 -5
-2 -5 12 0 14 2 19 5 13 2 -7 2 -19 0 -25z m663 6 c0 -8 -4 -14 -10 -14 -5 0
-10 9 -10 21 0 11 5 17 10 14 6 -3 10 -13 10 -21z m-3580 -34 c0 -11 -4 -20
-10 -20 -5 0 -10 9 -10 20 0 11 5 20 10 20 6 0 10 -9 10 -20z m17 -12 c-3 -8
-6 -5 -6 6 -1 11 2 17 5 13 3 -3 4 -12 1 -19z m2913 -4 c0 -14 -12 -19 -23 -8
-9 9 4 35 14 28 5 -3 9 -12 9 -20z m-2870 1 c0 -1 -7 -8 -15 -15 -13 -10 -15
-9 -15 8 0 15 5 20 15 16 8 -4 15 -7 15 -9z m634 4 c21 -6 35 -14 30 -19 -10
-10 -84 10 -84 22 0 10 8 10 54 -3z m2922 -29 c13 0 24 -5 24 -11 0 -15 -53
-7 -67 11 -7 8 -12 22 -12 30 0 10 5 8 16 -7 9 -13 26 -23 39 -23z m-3597 -9
c12 -8 12 -21 2 -82 -9 -58 -9 -74 1 -81 10 -6 10 -10 -2 -18 -8 -5 -23 -10
-33 -10 -14 0 -17 5 -12 21 4 11 7 42 7 67 1 26 6 51 12 55 8 6 7 10 -1 14 -7
2 -13 13 -13 24 0 20 16 24 39 10z m2914 -21 c3 -11 1 -23 -4 -26 -5 -3 -9 6
-9 20 0 31 6 34 13 6z m787 10 c8 -5 10 -10 4 -10 -6 0 -26 -3 -43 -6 -33 -7
-45 11 -13 19 28 8 36 7 52 -3z m-2938 -44 c-29 -30 -45 -71 -57 -150 -8 -51
-20 -37 -16 20 3 52 30 122 55 143 8 7 14 17 11 21 -3 5 4 6 16 3 19 -5 19 -7
-9 -37z m2794 -3 c-11 -11 -19 6 -11 24 8 17 8 17 12 0 3 -10 2 -21 -1 -24z
m174 -15 c0 -5 -4 -8 -10 -8 -5 0 -10 10 -10 23 0 18 2 19 10 7 5 -8 10 -18
10 -22z m-779 -25 c38 -7 48 -23 15 -23 -14 0 -26 5 -26 10 0 23 -21 7 -27
-20 -7 -36 -19 -46 -27 -23 -4 10 -1 20 9 26 10 5 14 16 10 28 -4 10 -3 24 2
31 5 10 8 8 11 -5 2 -10 16 -20 33 -24z m829 12 c0 -9 -6 -12 -15 -9 -8 4 -15
10 -15 15 0 5 7 9 15 9 8 0 15 -7 15 -15z m-193 -6 c-14 -8 -22 -8 -30 0 -8 8
-3 11 19 11 25 -1 27 -2 11 -11z m-4542 -9 c-3 -5 -14 -10 -23 -9 -14 0 -13 2
3 9 27 11 27 11 20 0z m58 3 c-7 -2 -21 -2 -30 0 -10 3 -4 5 12 5 17 0 24 -2
18 -5z m4737 -23 c0 -3 -14 -6 -30 -7 -33 -2 -36 1 -18 21 10 10 17 11 30 2
10 -6 18 -13 18 -16z m-236 -6 c10 -25 -1 -29 -14 -5 -6 12 -7 21 -1 21 5 0
12 -7 15 -16z m-4324 -3 c0 -5 -15 -12 -34 -15 -30 -6 -36 -12 -55 -66 -17
-46 -33 -69 -71 -101 -52 -44 -61 -59 -35 -59 9 0 20 -11 25 -24 8 -23 10 -24
47 -10 21 7 48 13 60 14 16 0 25 8 29 26 5 18 10 22 17 15 22 -22 -12 -57 -71
-72 -56 -15 -57 -16 -54 -50 1 -20 10 -39 22 -48 24 -16 26 -33 3 -24 -13 5
-15 3 -9 -13 13 -32 19 -91 8 -74 -9 14 -24 66 -52 177 -14 56 -33 73 -83 73
-50 0 -87 9 -87 21 0 5 20 6 44 3 42 -6 47 -4 78 27 18 19 47 46 64 60 17 14
39 47 49 75 10 27 25 55 34 62 17 14 71 17 71 3z m4605 -12 c11 -17 0 -20 -21
-4 -17 13 -17 14 -2 15 9 0 20 -5 23 -11z m-940 -29 c-3 -10 -3 -35 1 -56 6
-34 8 -36 40 -32 28 3 34 1 34 -14 0 -10 -5 -18 -11 -18 -5 0 -7 5 -3 12 5 8
2 9 -10 5 -10 -4 -35 -4 -56 -1 -36 6 -38 9 -42 46 -4 42 8 60 24 37 7 -11 8
-9 4 5 -4 11 -1 23 6 28 19 11 20 10 13 -12z m682 3 c-9 -9 -20 -13 -24 -9 -4
4 -1 11 7 16 25 16 35 11 17 -7z m299 -31 c-9 -8 -26 10 -26 26 1 15 2 15 15
-2 8 -11 13 -21 11 -24z m-306 -17 c-7 -9 -15 -13 -18 -10 -3 2 1 11 8 20 7 9
15 13 18 10 3 -2 -1 -11 -8 -20z m-3403 -10 c7 -3 10 -11 7 -19 -5 -14 -8 -14
-21 -1 -8 8 -24 15 -36 16 -12 0 -31 4 -42 9 -19 8 63 3 92 -5z m3739 -22 c-7
-7 -26 7 -26 19 0 6 6 6 15 -2 9 -7 13 -15 11 -17z m-356 -14 c0 -10 -4 -19
-10 -19 -5 0 -10 5 -10 11 0 5 -4 7 -10 4 -14 -9 -13 8 2 23 15 15 28 6 28
-19z m400 1 c8 -5 12 -12 9 -15 -8 -8 -39 5 -39 16 0 11 11 11 30 -1z m-1120
-10 c0 -5 -9 -10 -21 -10 -11 0 -17 5 -14 10 3 6 13 10 21 10 8 0 14 -4 14
-10z m57 -32 c-3 -8 -6 -5 -6 6 -1 11 2 17 5 13 3 -3 4 -12 1 -19z m613 6 c-6
-10 -70 -13 -70 -3 0 13 13 17 43 15 18 -1 30 -7 27 -12z m504 10 c9 -3 14
-10 11 -15 -7 -10 -35 0 -35 12 0 11 3 11 24 3z m-4043 -31 c13 -16 12 -17 -3
-4 -17 13 -22 21 -14 21 2 0 10 -8 17 -17z m3029 -5 c0 -36 -14 -52 -29 -34
-14 16 -6 40 10 31 5 -3 6 1 3 9 -3 9 -1 16 5 16 6 0 11 -10 11 -22z m568 10
c-2 -6 -10 -14 -16 -16 -7 -2 -10 2 -6 12 7 18 28 22 22 4z m-458 -48 c0 -48
-1 -50 -27 -50 -23 0 -25 2 -11 13 8 6 18 22 21 35 4 17 1 22 -16 23 -12 0
-16 3 -9 6 6 2 10 9 6 14 -3 5 4 9 15 9 18 0 21 -6 21 -50z m960 34 c0 -14 -3
-14 -15 -4 -8 7 -15 14 -15 16 0 2 7 4 15 4 8 0 15 -7 15 -16z m-1020 -15 c0
-11 -3 -11 -24 -3 -23 9 -20 23 4 17 11 -3 20 -9 20 -14z m160 -30 c0 -5 -18
1 -40 12 -22 12 -40 25 -40 30 0 5 18 -1 40 -12 22 -12 40 -25 40 -30z m227
14 c-3 -10 -5 -4 -5 12 0 17 2 24 5 18 2 -7 2 -21 0 -30z m-3145 3 c3 2 8 -2
11 -11 4 -10 0 -15 -12 -15 -11 0 -22 -6 -24 -12 -3 -7 -6 2 -6 21 -1 27 2 31
12 22 8 -6 16 -8 19 -5z m3283 -26 c-4 -6 -11 -8 -16 -4 -5 3 -7 10 -4 15 4 5
0 9 -7 9 -9 0 -9 3 2 10 16 10 36 -13 25 -30z m-409 6 c19 -19 18 -21 -11 -21
-24 0 -33 14 -18 28 9 10 13 9 29 -7z m89 4 c3 -5 15 -10 26 -10 10 0 19 -4
19 -10 0 -5 -8 -10 -17 -10 -29 1 -72 40 -44 40 6 0 13 -4 16 -10z m160 -19
c-8 -13 -35 -15 -35 -2 0 5 8 11 18 13 21 5 26 2 17 -11z m-385 -12 c0 -4 -7
-6 -15 -3 -8 4 -15 10 -15 15 0 4 7 6 15 3 8 -4 15 -10 15 -15z m330 11 c0 -5
-9 -10 -20 -10 -11 0 -20 5 -20 10 0 6 9 10 20 10 11 0 20 -4 20 -10z m-127
-7 c-7 -2 -19 -2 -25 0 -7 3 -2 5 12 5 14 0 19 -2 13 -5z m-3578 -13 c4 -6
-37 -10 -114 -10 -74 0 -121 4 -121 10 0 6 45 10 114 10 66 0 117 -4 121 -10z
m1100 -10 c4 -6 -12 -10 -39 -10 -25 0 -46 5 -46 10 0 6 18 10 39 10 22 0 43
-4 46 -10z m2825 -4 c0 -8 -4 -18 -10 -21 -5 -3 -10 3 -10 14 0 12 5 21 10 21
6 0 10 -6 10 -14z m-3271 -54 c31 -27 71 -57 89 -66 42 -22 41 -36 -4 -36 -31
0 -35 2 -24 15 7 8 9 15 4 15 -11 0 -128 99 -132 111 -8 19 14 7 67 -39z
m2738 26 c-3 -8 -6 -5 -6 6 -1 11 2 17 5 13 3 -3 4 -12 1 -19z m63 7 c0 -8 -4
-15 -10 -15 -5 0 -10 7 -10 15 0 8 5 15 10 15 6 0 10 -7 10 -15z m446 -41 c-4
-9 -9 -15 -11 -12 -3 3 -3 13 1 22 4 9 9 15 11 12 3 -3 3 -13 -1 -22z m-3529
-30 c-10 -10 -37 16 -37 34 0 13 4 12 22 -5 12 -13 19 -25 15 -29z m3020 14
c-3 -8 -6 -5 -6 6 -1 11 2 17 5 13 3 -3 4 -12 1 -19z m-27 2 c0 -5 -10 -10
-22 -9 -22 0 -22 1 -3 9 11 5 21 9 23 9 1 1 2 -3 2 -9z m-4230 -51 c0 -22 -5
-29 -20 -29 -11 0 -20 5 -20 10 0 6 6 10 14 10 9 0 12 8 8 26 -3 19 -1 25 7
20 6 -4 11 -20 11 -37z m1768 22 c47 -19 229 -51 289 -51 17 0 35 5 38 10 4 6
11 8 16 5 5 -4 16 1 25 9 18 18 34 21 34 5 0 -5 5 -7 11 -3 8 4 9 -3 4 -25 -5
-24 -3 -31 9 -31 21 0 21 -36 0 -44 -36 -14 -64 -6 -86 27 -14 20 -30 31 -40
29 -9 -2 -66 3 -125 11 -59 9 -121 14 -138 11 -16 -2 -41 1 -55 5 -14 5 -37
12 -52 15 -16 4 -28 11 -28 17 0 6 6 9 14 6 8 -3 17 1 20 9 7 18 8 18 64 -5z
m502 5 c0 -8 -7 -16 -15 -20 -17 -6 -18 -4 -9 18 8 20 24 21 24 2z m2017 -8
c-3 -8 -6 -5 -6 6 -1 11 2 17 5 13 3 -3 4 -12 1 -19z m483 5 c0 -5 -5 -15 -10
-23 -8 -12 -10 -11 -10 8 0 12 5 22 10 22 6 0 10 -3 10 -7z m-1104 -27 c10 -8
16 -17 13 -20 -3 -4 -17 2 -30 13 -27 23 -13 28 17 7z m-3786 -12 c0 -2 -12
-4 -26 -4 -14 0 -23 4 -20 9 6 8 46 4 46 -5z m53 -5 c-8 -8 -16 -8 -30 0 -16
9 -14 10 12 11 21 0 26 -3 18 -11z m-113 -8 c0 -11 -31 -24 -39 -16 -3 3 1 10
9 15 19 12 30 12 30 1z m4440 -10 c0 -5 -7 -11 -15 -15 -15 -5 -20 5 -8 17 9
10 23 9 23 -2z m490 -5 c0 -8 -4 -18 -10 -21 -5 -3 -10 3 -10 14 0 12 5 21 10
21 6 0 10 -6 10 -14z m-2909 -6 c6 0 8 -4 5 -9 -3 -4 -17 -6 -31 -4 -13 3 -22
10 -19 15 3 5 13 7 21 4 8 -3 19 -6 24 -6z m-2076 -10 c-3 -5 -13 -10 -21 -10
-8 0 -12 5 -9 10 3 6 13 10 21 10 8 0 12 -4 9 -10z m1605 -47 c0 -7 4 -13 9
-13 5 0 12 -8 15 -17 6 -19 48 -65 81 -88 19 -14 19 -14 -8 -15 -17 0 -30 6
-34 18 -4 9 -12 21 -20 25 -7 4 -13 14 -13 22 0 7 -3 15 -7 17 -5 2 -20 20
-35 40 -33 43 -38 70 -8 43 11 -10 20 -24 20 -32z m390 37 c0 -5 -4 -10 -10
-10 -5 0 -10 5 -10 10 0 6 5 10 10 10 6 0 10 -4 10 -10z m2480 -25 c0 -23 -13
-24 -30 -3 -9 12 -22 18 -28 14 -15 -9 -16 -36 -2 -36 6 0 10 5 10 11 0 5 5 7
10 4 6 -3 9 -27 8 -53 -1 -37 -2 -40 -5 -14 -4 32 -23 46 -23 17 0 -8 -4 -15
-10 -15 -5 0 -10 7 -10 15 0 8 -7 15 -15 15 -19 0 -19 2 5 43 20 34 22 34 55
24 19 -6 35 -16 35 -22z m-4530 15 c0 -5 -9 -10 -21 -10 -11 0 -17 5 -14 10 3
6 13 10 21 10 8 0 14 -4 14 -10z m885 0 c4 -6 -8 -10 -29 -10 -29 0 -36 -4
-36 -19 0 -10 -7 -22 -16 -25 -25 -9 -64 -7 -64 4 0 6 13 10 29 10 16 0 31 6
35 15 4 12 -3 15 -37 15 -24 0 -48 -5 -55 -12 -17 -17 -28 -2 -12 17 9 11 33
15 96 15 45 0 86 -4 89 -10z m1477 -12 c-7 -7 -12 -8 -12 -2 0 6 3 14 7 17 3
4 9 5 12 2 2 -3 -1 -11 -7 -17z m2654 -25 c-11 -11 -17 4 -9 23 7 18 8 18 11
1 2 -10 1 -21 -2 -24z m-5081 17 c-3 -5 -13 -10 -21 -10 -8 0 -14 5 -14 10 0
6 9 10 21 10 11 0 17 -4 14 -10z m745 -19 c0 -5 -7 -14 -15 -21 -12 -10 -15
-10 -15 2 0 8 3 18 7 21 9 10 23 9 23 -2z m4340 -48 c0 -22 -2 -25 -10 -13
-13 20 -13 40 0 40 6 0 10 -12 10 -27z m-1265 -13 c3 -5 -3 -10 -14 -10 -12 0
-21 5 -21 10 0 6 6 10 14 10 8 0 18 -4 21 -10z m101 -68 c-7 -77 -7 -78 18
-90 31 -14 83 -6 90 14 3 8 10 14 16 14 8 0 8 -6 0 -20 -7 -14 -7 -20 0 -20 6
0 10 -38 10 -102 0 -81 -5 -112 -20 -146 -17 -38 -18 -46 -6 -65 16 -25 28
-107 16 -107 -4 0 -13 27 -19 59 -6 33 -17 61 -22 63 -7 2 -2 21 12 47 18 36
20 44 8 52 -10 6 -10 9 -1 9 8 0 12 19 11 63 -2 102 -6 110 -66 112 -43 2 -52
-1 -56 -17 -4 -12 5 -26 26 -42 41 -33 30 -43 -14 -13 -27 18 -33 29 -31 50 3
26 2 27 -42 27 l-46 0 0 -49 c0 -46 2 -50 29 -56 23 -5 34 -17 51 -56 24 -56
20 -84 -13 -93 -35 -9 -77 -7 -77 4 0 6 18 10 39 10 22 0 43 5 46 11 4 6 -1
31 -10 55 -13 35 -23 46 -45 50 -27 6 -28 7 -32 93 -5 87 -2 114 9 73 5 -20
11 -22 48 -21 41 3 43 4 49 38 3 20 6 54 6 77 0 37 6 54 18 54 3 0 2 -35 -2
-78z m-2176 47 c10 -18 9 -20 -12 -17 -12 2 -24 11 -26 21 -5 24 25 22 38 -4z
m2797 -4 c9 -10 12 -20 6 -28 -5 -7 -9 -33 -8 -59 0 -43 -2 -48 -22 -48 -13 0
-22 -5 -20 -11 1 -6 -3 -13 -10 -16 -7 -2 -10 3 -8 14 2 10 4 23 4 30 1 7 8
10 16 7 11 -5 14 2 13 30 -1 27 -4 33 -14 26 -9 -8 -12 -4 -10 15 1 18 5 23
18 19 12 -4 15 0 11 16 -6 24 3 26 24 5z m-3277 -14 c0 -6 -4 -13 -10 -16 -5
-3 -10 1 -10 9 0 9 5 16 10 16 6 0 10 -4 10 -9z m1490 -82 c0 -39 -4 -69 -10
-69 -6 0 -10 32 -10 76 0 47 4 73 10 69 6 -3 10 -37 10 -76z m-865 23 c15 -12
25 -25 22 -28 -3 -4 -18 3 -33 15 -15 11 -33 21 -40 21 -8 0 -14 4 -14 10 0
16 34 6 65 -18z m2690 8 c3 -5 1 -10 -4 -10 -6 0 -11 5 -11 10 0 6 2 10 4 10
3 0 8 -4 11 -10z m-2422 -148 c6 -121 2 -166 -14 -156 -5 3 -9 68 -9 145 0 77
4 138 8 135 5 -3 12 -59 15 -124z m67 118 c0 -5 -2 -10 -4 -10 -3 0 -8 5 -11
10 -3 6 -1 10 4 10 6 0 11 -4 11 -10z m140 -72 c-1 -40 -2 -83 -1 -95 l1 -23
327 0 c179 0 324 -2 322 -4 -2 -2 -88 -6 -190 -8 -102 -3 -191 -8 -197 -12 -7
-4 -12 -27 -12 -52 0 -25 -5 -44 -11 -44 -7 0 -9 16 -4 50 l7 50 -129 0 c-133
0 -203 7 -203 20 0 12 43 20 54 11 8 -6 12 16 13 70 1 44 4 87 7 95 12 31 18
11 16 -58z m-1160 42 c0 -22 10 -24 56 -11 18 5 37 5 45 0 12 -7 11 -9 -1 -9
-8 0 -31 -5 -52 -10 l-36 -10 29 -76 c31 -79 34 -94 21 -94 -4 0 -20 34 -36
76 -16 42 -34 78 -41 80 -16 6 -14 74 2 74 7 0 13 -9 13 -20z m630 -112 l-12
-99 -40 -20 c-22 -11 -45 -18 -51 -16 -7 2 7 13 30 25 38 20 42 26 49 69 4 27
8 73 8 103 1 30 6 58 11 62 16 12 18 -19 5 -124z m2306 72 c4 -31 3 -42 -4
-35 -5 6 -13 30 -17 55 -5 31 -4 42 3 35 6 -5 14 -30 18 -55z m-2677 19 c34
-6 61 -16 61 -21 0 -6 -10 -8 -22 -5 -13 3 -49 11 -81 17 -33 7 -55 16 -51 21
3 6 12 8 19 5 7 -2 40 -10 74 -17z m461 -1 c0 -19 -2 -20 -10 -8 -13 19 -13
30 0 30 6 0 10 -10 10 -22z m-195 -14 c-78 -22 -95 -24 -95 -15 0 6 19 15 43
21 23 6 47 12 52 14 6 2 17 1 25 -3 9 -3 0 -9 -25 -17z m1624 1 c-18 -10 -29
-26 -33 -50 -4 -19 -12 -35 -18 -35 -5 0 -7 7 -4 16 3 9 6 22 6 30 0 20 37 54
58 54 12 -1 10 -5 -9 -15z m-2225 -14 c3 -5 -5 -11 -19 -13 -26 -5 -35 6 -12
15 19 8 25 8 31 -2z m459 -8 c-7 -2 -19 -2 -25 0 -7 3 -2 5 12 5 14 0 19 -2
13 -5z m350 -23 c3 -11 2 -20 -3 -20 -4 0 -10 9 -13 20 -3 11 -2 20 3 20 4 0
10 -9 13 -20z m2612 10 c-3 -5 -11 -10 -16 -10 -6 0 -7 5 -4 10 3 6 11 10 16
10 6 0 7 -4 4 -10z m-545 -34 c0 -3 -7 -6 -15 -6 -9 0 -15 9 -15 21 0 18 2 19
15 5 8 -8 15 -17 15 -20z m-2063 -48 c-3 -7 -5 -2 -5 12 0 14 2 19 5 13 2 -7
2 -19 0 -25z m30 0 c-3 -7 -5 -2 -5 12 0 14 2 19 5 13 2 -7 2 -19 0 -25z
m-823 -79 c-9 -24 -20 -66 -26 -94 -12 -63 -38 -147 -49 -160 -12 -13 -11 7 1
41 6 15 13 43 16 63 12 81 15 95 29 122 8 15 12 36 8 45 -4 11 -3 15 4 11 6
-4 14 5 19 21 5 18 8 22 11 11 2 -9 -4 -36 -13 -60z m796 44 c0 -5 -5 -15 -10
-23 -8 -12 -10 -11 -10 8 0 12 5 22 10 22 6 0 10 -3 10 -7z m30 -13 c0 -11 -4
-20 -10 -20 -5 0 -10 9 -10 20 0 11 5 20 10 20 6 0 10 -9 10 -20z m1343 13
c-7 -2 -21 -2 -30 0 -10 3 -4 5 12 5 17 0 24 -2 18 -5z m-1404 -87 c-9 -8 -10
-7 -5 7 3 10 7 24 7 30 1 7 3 4 6 -7 3 -10 -1 -23 -8 -30z m2078 27 c-9 -9
-20 -13 -24 -9 -4 4 -1 11 7 16 25 16 35 11 17 -7z m-212 -3 c3 -5 1 -10 -4
-10 -6 0 -11 5 -11 10 0 6 2 10 4 10 3 0 8 -4 11 -10z m165 0 c0 -5 -7 -10
-15 -10 -8 0 -15 5 -15 10 0 6 7 10 15 10 8 0 15 -4 15 -10z m-2680 -17 c0
-32 -16 -47 -36 -34 -17 9 -17 10 -1 11 10 0 17 8 17 20 0 11 5 20 10 20 6 0
10 -8 10 -17z m420 -2 c0 -10 -5 -43 -10 -72 -6 -30 -13 -126 -16 -214 -5
-176 5 -135 -117 -479 -33 -93 -34 -101 -19 -114 15 -12 15 -13 -5 -9 -15 4
-23 0 -23 -9 0 -8 -4 -14 -10 -14 -5 0 -10 2 -10 5 0 6 62 184 119 343 40 109
41 116 46 274 3 88 10 180 15 202 5 23 10 56 10 74 0 17 5 32 10 32 6 0 10 -8
10 -19z m620 -1 c0 -11 -4 -20 -10 -20 -5 0 -10 9 -10 20 0 11 5 20 10 20 6 0
10 -9 10 -20z m1870 5 c-7 -8 -17 -15 -22 -15 -6 0 -5 7 2 15 7 8 17 15 22 15
6 0 5 -7 -2 -15z m-50 -5 c8 -5 12 -12 9 -15 -8 -8 -39 5 -39 16 0 11 11 11
30 -1z m395 0 c-3 -5 -10 -10 -16 -10 -5 0 -9 5 -9 10 0 6 7 10 16 10 8 0 12
-4 9 -10z m-755 -30 c0 -11 -5 -39 -12 -64 -11 -42 -13 -44 -57 -49 -60 -7
-172 3 -165 15 3 5 29 6 59 3 70 -9 133 2 139 23 2 9 7 34 11 55 6 39 25 52
25 17z m300 -9 c0 -10 9 -26 20 -36 14 -13 18 -25 13 -49 -9 -50 -27 -58 -19
-9 5 36 3 44 -14 53 -13 7 -20 21 -20 41 0 18 4 28 10 24 6 -3 10 -14 10 -24z
m477 -3 c-3 -7 -5 -2 -5 12 0 14 2 19 5 13 2 -7 2 -19 0 -25z m-2647 -27 c-12
-24 -42 -29 -34 -6 4 8 10 15 14 15 5 0 12 10 16 23 6 18 9 19 12 5 2 -9 -2
-26 -8 -37z m1283 33 l87 -6 0 -74 c0 -48 -4 -73 -10 -69 -5 3 -10 32 -10 65
0 68 -3 70 -94 70 -80 0 -156 10 -156 21 0 4 21 6 48 4 26 -3 86 -7 135 -11z
m1347 -25 c0 -11 -4 -17 -10 -14 -5 3 -10 15 -10 26 0 11 5 17 10 14 6 -3 10
-15 10 -26z m-380 -11 c0 -19 -2 -20 -10 -8 -13 19 -13 30 0 30 6 0 10 -10 10
-22z m-2203 -35 c-2 -5 -23 -40 -46 -80 -53 -90 -77 -191 -91 -389 -6 -83 -16
-160 -25 -181 -20 -47 -19 -66 3 -86 24 -22 181 -50 199 -36 7 6 30 42 52 80
36 62 41 81 51 170 15 146 17 136 -40 148 -28 6 -85 11 -125 11 -43 0 -75 4
-75 10 0 27 233 0 335 -39 53 -20 72 -42 30 -34 -15 3 -25 1 -25 -6 0 -7 -5
-9 -10 -6 -6 4 -8 11 -5 16 4 5 -6 14 -21 19 -37 14 -40 7 -49 -114 -6 -92
-10 -107 -47 -173 -51 -94 -62 -105 -107 -102 -20 2 -42 0 -48 -4 -6 -4 -13
-2 -15 4 -2 5 -22 13 -45 16 -28 4 -51 15 -70 35 l-28 29 22 62 c14 38 22 81
20 112 -1 28 2 80 6 118 6 48 5 67 -4 67 -6 0 -9 6 -6 14 3 8 -1 17 -9 20 -16
6 -19 36 -4 36 5 0 9 -3 9 -7 -4 -23 3 -23 21 0 22 27 26 42 10 32 -6 -3 -10
4 -10 17 0 16 3 19 9 10 7 -11 10 -10 15 3 11 29 7 36 -19 29 -26 -7 -31 1
-15 26 5 8 10 10 10 3 0 -6 9 -9 20 -6 26 7 26 23 0 30 -21 6 -21 6 -1 19 11
8 24 14 28 13 20 -3 27 2 13 11 -12 7 -12 12 -2 22 7 7 18 13 25 13 7 0 12 7
13 15 2 35 5 40 17 38 6 -2 11 3 10 10 -2 6 4 12 13 12 8 0 13 -3 11 -7z m461
-139 c-3 -110 -4 -113 -49 -200 -25 -49 -54 -113 -64 -142 -16 -51 -16 -54 1
-73 14 -15 14 -19 3 -19 -38 0 -52 62 -24 110 18 32 18 40 1 40 -8 0 -18 5
-22 11 -5 8 1 10 20 7 24 -5 29 1 66 75 l40 79 0 125 c0 114 1 124 16 112 13
-11 15 -32 12 -125z m1745 116 c3 -12 0 -20 -8 -20 -14 0 -27 25 -18 34 11 11
21 6 26 -14z m-2306 -15 c-4 -8 -11 -15 -17 -15 -7 0 -7 6 0 21 13 23 26 19
17 -6z m2703 16 c0 -12 -20 -25 -27 -18 -7 7 6 27 18 27 5 0 9 -4 9 -9z m60
-26 c0 -3 -9 -5 -20 -5 -11 0 -20 7 -20 15 0 13 4 14 20 5 11 -6 20 -13 20
-15z m110 -5 c0 -5 -10 -10 -22 -9 -22 0 -22 1 -3 9 11 5 21 9 23 9 1 1 2 -3
2 -9z m-60 -10 c0 -13 -11 -13 -30 0 -12 8 -11 10 8 10 12 0 22 -4 22 -10z
m-2850 -20 c-6 -11 -15 -18 -21 -14 -6 4 -6 11 2 20 17 21 31 17 19 -6z m-24
-46 c-3 -9 -6 -18 -6 -20 0 -2 -4 -4 -9 -4 -5 0 -7 9 -4 20 3 11 10 20 15 20
6 0 7 -7 4 -16z m-596 -39 c0 -26 -19 -32 -54 -19 -27 10 -18 21 14 16 25 -3
29 -1 24 12 -3 9 -1 16 5 16 6 0 11 -11 11 -25z m-163 -1 c-3 -3 -12 -4 -19
-1 -8 3 -5 6 6 6 11 1 17 -2 13 -5z m-454 -76 c4 -27 3 -48 -2 -48 -10 0 -21
50 -21 94 1 44 16 14 23 -46z m530 65 c-7 -2 -19 -2 -25 0 -7 3 -2 5 12 5 14
0 19 -2 13 -5z m660 -13 c-3 -11 -9 -20 -14 -20 -11 0 -11 3 -3 24 9 23 23 20
17 -4z m-753 -60 c0 -27 -4 -50 -10 -50 -5 0 -10 18 -10 40 0 22 -4 40 -10 40
-5 0 -10 5 -10 10 0 6 9 10 20 10 17 0 20 -7 20 -50z m1277 18 c-3 -8 -6 -5
-6 6 -1 11 2 17 5 13 3 -3 4 -12 1 -19z m-497 5 c0 -5 -5 -15 -10 -23 -8 -12
-10 -11 -10 8 0 12 5 22 10 22 6 0 10 -3 10 -7z m1772 -23 c18 -16 29 -29 23
-29 -15 0 -82 58 -68 59 7 0 27 -13 45 -30z m-1812 0 c0 -11 -4 -20 -10 -20
-5 0 -10 9 -10 20 0 11 5 20 10 20 6 0 10 -9 10 -20z m-6 -55 c-4 -8 -8 -15
-10 -15 -2 0 -4 7 -4 15 0 8 4 15 10 15 5 0 7 -7 4 -15z m-727 -46 c9 -22 9
-29 0 -26 -12 4 -29 57 -18 57 3 0 12 -14 18 -31z m-412 -95 c6 -41 2 -65 -9
-53 -9 10 -16 99 -8 99 5 0 13 -21 17 -46z m1171 -130 c-4 -9 -9 -15 -11 -12
-3 3 -3 13 1 22 4 9 9 15 11 12 3 -3 3 -13 -1 -22z m609 -51 c110 -116 105
-108 103 -155 -1 -43 -1 -43 -5 -6 -3 26 -13 44 -30 58 -15 11 -35 35 -46 52
-17 28 -30 41 -86 85 -14 11 -14 12 1 13 10 0 38 -21 63 -47z m-700 6 c-10
-15 -25 -10 -19 6 4 8 10 12 15 9 5 -3 7 -10 4 -15z m65 16 c0 -2 -10 -10 -22
-16 -21 -11 -22 -11 -9 4 13 16 31 23 31 12z m-94 -72 c-11 -11 -17 4 -9 23 7
18 8 18 11 1 2 -10 1 -21 -2 -24z m89 -1 c-8 -9 -25 20 -18 31 3 5 10 2 15 -7
6 -10 7 -20 3 -24z m-135 -22 c-8 -5 -17 -7 -19 -4 -3 3 1 9 9 14 8 5 17 7 19
4 3 -3 -1 -9 -9 -14z m-30 -29 c0 -5 -7 -14 -15 -21 -16 -14 -18 -10 -9 14 6
17 24 22 24 7z m2620 0 c0 -13 -26 -32 -33 -24 -8 7 11 33 24 33 5 0 9 -4 9
-9z m-1645 -91 c22 -3 35 -8 29 -12 -6 -4 -27 -5 -47 -1 -34 5 -37 8 -36 37 1
29 1 30 8 6 5 -20 15 -26 46 -30z m15 -179 c0 -4 14 -17 31 -30 24 -18 33 -20
45 -10 8 6 18 9 21 5 4 -4 -12 -26 -36 -49 -42 -41 -43 -41 -37 -14 8 36 -1
52 -20 36 -19 -16 -30 -4 -14 16 10 13 10 19 -4 33 -20 23 -21 33 -1 26 8 -4
15 -9 15 -13z m-64 -48 c-11 -11 -19 6 -11 24 8 17 8 17 12 0 3 -10 2 -21 -1
-24z m-643 -926 c-14 -75 -30 -137 -35 -137 -11 0 -11 10 13 145 24 143 27
151 39 139 6 -6 -1 -61 -17 -147z"/>
<path d="M3726 6655 c-3 -9 -6 -36 -6 -59 0 -41 1 -42 44 -54 35 -9 51 -21 75
-55 16 -24 37 -50 47 -58 18 -13 18 -13 1 13 -19 31 -22 69 -6 85 8 8 0 26
-30 66 -46 63 -45 62 -87 71 -24 5 -33 3 -38 -9z"/>
<path d="M4990 7570 c0 -6 5 -19 12 -29 9 -15 7 -26 -10 -55 -25 -42 -27 -56
-9 -56 36 1 66 90 42 126 -16 25 -35 32 -35 14z"/>
<path d="M4211 7283 c-11 -22 -31 -47 -45 -57 -14 -9 -26 -20 -26 -24 0 -11
97 -30 111 -21 14 8 6 116 -10 132 -6 6 -16 -4 -30 -30z"/>
<path d="M3823 6323 c-4 -10 -11 -21 -17 -25 -5 -4 2 -12 17 -19 32 -14 33
-14 42 29 6 28 4 32 -15 32 -11 0 -24 -8 -27 -17z"/>
<path d="M4493 5943 c-15 -27 -30 -50 -33 -53 -7 -6 -34 -70 -36 -87 -1 -8 9
-13 26 -13 31 0 34 6 46 75 3 22 17 57 30 77 28 44 29 48 9 48 -8 0 -27 -21
-42 -47z"/>
<path d="M3871 4904 c0 -11 3 -14 6 -6 3 7 2 16 -1 19 -3 4 -6 -2 -5 -13z"/>
<path d="M3080 6080 c8 -5 20 -10 25 -10 6 0 3 5 -5 10 -8 5 -19 10 -25 10 -5
0 -3 -5 5 -10z"/>
<path d="M3130 6048 c0 -31 4 -38 20 -38 25 0 25 7 0 45 l-20 30 0 -37z"/>
<path d="M3055 6060 c-3 -5 1 -10 10 -10 9 0 13 5 10 10 -3 6 -8 10 -10 10 -2
0 -7 -4 -10 -10z"/>
<path d="M3324 6035 c-10 -8 -29 -15 -41 -15 -17 0 -23 -6 -23 -21 0 -17 4
-20 23 -15 12 3 29 6 37 6 22 0 36 12 44 38 9 26 -10 30 -40 7z"/>
<path d="M3083 6008 c-33 -16 -30 -48 3 -48 22 0 25 2 14 15 -10 12 -10 18 0
30 14 17 13 18 -17 3z"/>
<path d="M3130 5985 c0 -9 9 -15 25 -15 16 0 25 6 25 15 0 9 -9 15 -25 15 -16
0 -25 -6 -25 -15z"/>
<path d="M3200 5991 c0 -5 7 -12 16 -15 22 -9 24 -8 24 9 0 8 -9 15 -20 15
-11 0 -20 -4 -20 -9z"/>
<path d="M2981 5933 c-1 -27 3 -33 21 -33 19 0 20 2 6 18 -9 9 -18 24 -21 32
-3 8 -6 0 -6 -17z"/>
<path d="M3150 5950 l-25 -8 28 -1 c15 -1 27 4 27 9 0 6 -1 10 -2 9 -2 -1 -14
-5 -28 -9z"/>
<path d="M3195 5939 c-6 -16 -12 -19 -36 -14 -22 5 -29 3 -29 -9 0 -13 12 -16
58 -16 63 0 59 -4 53 53 -2 16 -40 6 -46 -14z"/>
<path d="M3043 5923 c-27 -10 -11 -23 27 -23 29 0 40 4 40 15 0 15 -39 20 -67
8z"/>
<path d="M3088 5873 c6 -2 18 -2 25 0 6 3 1 5 -13 5 -14 0 -19 -2 -12 -5z"/>
<path d="M3116 5818 c-11 -43 -8 -48 35 -48 39 0 40 1 37 33 -3 28 -7 32 -34
35 -26 3 -33 -1 -38 -20z"/>
<path d="M3223 5833 c-19 -7 -17 -63 2 -63 10 0 15 11 15 35 0 19 -1 35 -2 34
-2 0 -9 -3 -15 -6z"/>
<path d="M5710 5669 c0 -25 4 -29 28 -29 15 0 37 -3 50 -6 18 -5 22 -2 22 19
0 21 -6 26 -50 34 l-50 10 0 -28z"/>
<path d="M3839 5652 c-2 -4 -29 -15 -59 -23 -31 -9 -54 -20 -52 -27 4 -23 3
-77 -4 -113 -7 -41 5 -55 34 -40 14 7 25 6 38 -4 21 -15 44 -4 44 21 0 8 20
41 44 75 40 55 49 90 27 103 -17 10 -69 16 -72 8z m6 -92 c0 -8 -7 -14 -17
-12 -9 1 -19 -2 -23 -8 -11 -18 -20 -11 -20 15 0 23 4 26 30 23 19 -2 30 -9
30 -18z"/>
<path d="M5704 5601 c0 -26 39 -28 82 -6 l29 15 -35 0 c-19 0 -44 3 -55 6 -16
4 -21 0 -21 -15z"/>
<path d="M5450 5464 c0 -93 2 -105 16 -100 9 3 33 6 55 6 l39 0 0 100 0 100
-55 0 -55 0 0 -106z"/>
<path d="M5580 5470 l0 -100 29 0 c16 0 41 -4 55 -10 l26 -10 0 100 0 100 -34
0 c-19 0 -38 5 -41 10 -3 6 -13 10 -21 10 -11 0 -14 -20 -14 -100z"/>
<path d="M5728 5563 c-16 -4 -18 -18 -18 -104 0 -113 6 -119 65 -68 34 30 35
33 35 105 l0 74 -32 -1 c-18 -1 -41 -3 -50 -6z"/>
<path d="M3639 5503 c-9 -2 -21 -15 -28 -30 -16 -36 1 -53 55 -53 l43 0 -6 38
c-3 20 -6 38 -7 38 -5 6 -44 11 -57 7z"/>
<path d="M3250 5484 c0 -8 5 -12 10 -9 6 3 10 10 10 16 0 5 -4 9 -10 9 -5 0
-10 -7 -10 -16z"/>
<path d="M3680 5400 l-35 -7 38 -2 c20 0 37 4 37 9 0 6 -1 9 -2 9 -2 -1 -19
-5 -38 -9z"/>
<path d="M3717 5373 c-13 -12 -7 -53 7 -53 17 0 25 18 18 43 -5 18 -14 22 -25
10z"/>
<path d="M3613 5353 c-17 -11 -23 -25 -23 -53 0 -35 2 -38 38 -44 32 -5 40 -2
57 19 15 18 20 35 17 60 -4 32 -7 35 -36 34 -17 0 -41 -7 -53 -16z"/>
<path d="M5443 5343 c-7 -2 -13 -22 -13 -43 l0 -39 49 6 c31 3 51 1 55 -6 15
-24 26 -8 26 39 l0 50 -52 -1 c-29 0 -59 -3 -65 -6z"/>
<path d="M5580 5300 l0 -50 44 0 c43 0 43 0 50 42 8 48 -1 58 -56 58 l-38 0 0
-50z"/>
<path d="M6688 5309 c-20 -11 -24 -34 -8 -44 5 -3 25 -3 45 1 25 4 35 11 35
25 0 11 -6 19 -14 19 -8 0 -20 2 -28 5 -7 2 -21 0 -30 -6z"/>
<path d="M3711 5282 c-14 -26 -10 -36 11 -30 10 2 12 11 8 28 l-6 25 -13 -23z"/>
<path d="M5125 5276 c-64 -20 -68 -23 -48 -34 12 -7 33 -12 47 -12 15 0 33
-10 45 -26 l20 -26 11 23 c7 15 8 38 3 61 l-8 36 -70 -22z"/>
<path d="M5444 5242 c-6 -4 -14 -23 -16 -42 -3 -19 -7 -42 -9 -50 -3 -11 5
-16 28 -18 28 -3 32 0 43 35 7 21 16 42 21 48 19 20 9 35 -23 35 -18 0 -38 -4
-44 -8z"/>
<path d="M6695 5240 c-17 -7 -15 -9 13 -9 17 -1 32 4 32 9 0 12 -17 12 -45 0z"/>
<path d="M3457 5233 c-16 -3 -27 -7 -25 -11 2 -4 12 -26 22 -50 28 -60 46 -55
46 13 0 30 -3 54 -7 54 -5 -1 -21 -4 -36 -6z"/>
<path d="M3522 5183 c3 -55 4 -58 28 -55 24 3 110 83 110 103 0 5 -32 9 -70 9
l-71 0 3 -57z"/>
<path d="M5536 5221 c-16 -18 -39 -81 -32 -88 2 -2 62 -2 133 -1 l131 3 -42
46 c-39 44 -44 47 -107 52 -57 5 -69 3 -83 -12z"/>
<path d="M6620 5205 c0 -16 -3 -41 -6 -55 l-7 -25 21 20 c11 11 23 36 27 55 6
32 4 36 -14 36 -17 0 -21 -7 -21 -31z"/>
<path d="M3637 5175 l-48 -55 83 0 c78 0 86 2 121 31 20 17 37 34 37 37 0 12
-84 42 -115 42 -24 0 -40 -12 -78 -55z"/>
<path d="M6747 5217 c-14 -35 -8 -57 14 -57 16 0 19 3 11 13 -5 6 -12 23 -14
37 -3 22 -4 22 -11 7z"/>
<path d="M5050 5165 l0 -55 50 0 c44 0 52 3 62 25 14 32 -9 60 -61 75 -52 14
-51 15 -51 -45z"/>
<path d="M6676 5194 c-7 -19 1 -34 18 -34 8 0 16 11 18 25 4 19 1 25 -12 25
-10 0 -21 -7 -24 -16z"/>
<path d="M3840 5155 c-7 -9 -10 -18 -7 -22 8 -7 37 15 37 28 0 14 -16 11 -30
-6z"/>
<path d="M5177 5120 c-11 -29 -14 -30 -70 -30 l-58 0 2 -70 c1 -39 -1 -73 -4
-77 -4 -3 -7 -15 -7 -25 0 -10 -12 -36 -26 -58 -15 -22 -24 -43 -21 -46 3 -3
57 -9 119 -13 62 -4 123 -13 135 -19 39 -22 119 -32 153 -21 l30 11 0 128 c0
71 2 134 5 142 9 23 -55 53 -125 58 -42 3 -64 9 -63 17 1 6 -11 16 -28 22 -29
10 -32 9 -42 -19z"/>
<path d="M3494 5094 c3 -9 6 -18 6 -20 0 -12 39 -2 44 12 9 23 8 24 -25 24
-24 0 -30 -3 -25 -16z"/>
<path d="M3573 5103 c-7 -2 -13 -11 -13 -18 0 -8 -10 -21 -22 -29 l-22 -16 23
-97 c12 -54 25 -105 27 -114 3 -11 12 -15 29 -11 23 4 25 9 25 56 0 81 23 138
72 185 l43 40 -62 1 c-34 0 -67 2 -75 4 -7 3 -19 2 -25 -1z"/>
<path d="M5598 5103 c-91 -2 -158 -8 -158 -13 0 -5 12 -16 28 -24 15 -8 35
-23 46 -35 14 -15 23 -18 37 -11 23 13 29 13 29 0 0 -5 -8 -11 -17 -12 -10 -1
36 -4 102 -8 124 -6 184 2 101 14 -25 4 -44 11 -41 16 3 4 24 6 47 3 36 -5 41
-4 35 11 -4 10 -10 29 -13 42 -4 15 -13 23 -23 22 -9 -1 -87 -4 -173 -5z m-28
-35 c0 -19 -2 -20 -10 -8 -13 19 -13 30 0 30 6 0 10 -10 10 -22z"/>
<path d="M6394 5071 c-40 -16 -88 -31 -109 -35 -55 -11 -85 -27 -85 -46 0 -34
23 -41 81 -24 30 9 59 20 64 24 6 4 16 2 22 -5 10 -11 9 -14 -5 -13 -9 0 -44
-9 -77 -19 l-60 -19 -3 -96 -3 -96 133 -5 c73 -3 158 -5 189 -6 l55 -1 0 185
-1 185 -65 -1 c-47 0 -85 -8 -136 -28z m190 -45 c-7 -18 -29 -22 -39 -6 -3 6
3 10 14 10 12 0 21 5 21 12 0 6 2 9 5 6 3 -3 3 -13 -1 -22z m-184 5 c0 -5 -7
-11 -15 -15 -15 -5 -20 5 -8 17 9 10 23 9 23 -2z m53 2 c-7 -2 -19 -2 -25 0
-7 3 -2 5 12 5 14 0 19 -2 13 -5z m67 -3 c0 -5 -6 -10 -14 -10 -8 0 -18 5 -21
10 -3 6 3 10 14 10 12 0 21 -4 21 -10z"/>
<path d="M5454 5017 c-2 -7 -3 -69 -2 -137 l3 -124 30 -7 c17 -4 69 -9 118
-12 l87 -5 0 124 0 124 -76 0 c-65 0 -80 3 -108 25 -38 29 -45 30 -52 12z"/>
<path d="M5853 5003 c9 -2 23 -2 30 0 6 3 -1 5 -18 5 -16 0 -22 -2 -12 -5z"/>
<path d="M6090 5000 c-36 -4 -52 -7 -37 -8 15 -1 45 -13 65 -27 42 -29 77 -34
68 -9 -3 9 -6 24 -6 35 0 10 -6 18 -12 17 -7 -1 -42 -4 -78 -8z"/>
<path d="M5710 4849 l0 -131 28 7 c15 4 125 9 245 12 l217 5 0 95 c0 92 -1 94
-22 92 -13 -2 -34 3 -47 10 -16 9 -60 13 -136 12 -61 -1 -122 2 -136 7 -13 5
-52 12 -86 16 l-63 7 0 -132z"/>
<path d="M5883 4973 c9 -2 23 -2 30 0 6 3 -1 5 -18 5 -16 0 -22 -2 -12 -5z"/>
<path d="M3453 4916 c-63 -41 -131 -111 -119 -123 3 -4 6 0 6 8 0 10 2 11 8 2
6 -9 19 -9 52 -2 25 6 69 9 98 7 33 -3 52 0 52 6 0 6 -8 41 -18 77 l-17 66
-62 -41z"/>
<path d="M4963 4770 c-11 -29 -10 -30 16 -30 49 0 121 -12 116 -20 -2 -4 -38
-5 -80 -2 l-75 5 0 -57 0 -56 60 0 c33 0 60 -4 60 -10 0 -6 -27 -10 -60 -10
l-60 0 0 -73 0 -73 80 -13 c44 -8 83 -17 86 -22 7 -12 2 -11 -81 4 -122 23
-255 -2 -255 -48 0 -13 30 -15 200 -15 l200 0 0 65 c0 37 4 65 10 65 6 0 10
-28 10 -65 l0 -65 55 0 c53 0 55 1 45 21 -12 22 -6 69 9 69 4 0 6 -11 4 -24
-3 -13 0 -34 7 -46 l11 -21 20 22 19 22 0 -21 c0 -16 6 -22 23 -22 37 0 67
-40 67 -88 l0 -42 56 0 c63 0 69 14 15 42 -18 9 -28 19 -22 22 12 8 71 -20 71
-33 0 -5 16 -11 36 -13 47 -6 84 22 84 63 0 27 -2 29 -40 29 -22 0 -40 -5 -40
-10 0 -11 -42 -31 -49 -24 -3 2 4 11 15 19 17 13 14 14 -41 15 -45 0 -66 6
-84 21 -30 25 -21 36 12 14 30 -19 138 -18 145 3 2 7 -6 12 -22 12 -14 0 -26
5 -26 10 0 6 18 10 40 10 38 0 40 -1 34 -25 -6 -23 -3 -25 25 -25 l31 0 0 143
0 143 -38 22 c-35 19 -45 20 -102 11 -54 -8 -65 -8 -81 7 -18 17 -19 15 -19
-71 0 -67 -3 -86 -11 -78 -8 8 -11 44 -10 97 2 85 2 86 -25 96 -15 6 -41 8
-57 4 -19 -4 -27 -2 -23 4 3 5 -31 21 -79 37 -68 21 -100 26 -159 24 -41 -2
-78 0 -82 4 -15 15 -30 6 -41 -23z m411 -145 c3 -8 1 -15 -4 -15 -6 0 -10 7
-10 15 0 8 2 15 4 15 2 0 6 -7 10 -15z"/>
<path d="M5450 4728 c0 -8 9 -23 20 -33 17 -15 28 -16 84 -8 55 8 70 7 100 -9
l36 -18 0 24 c0 28 -12 32 -135 39 -38 3 -78 8 -87 12 -12 5 -18 3 -18 -7z"/>
<path d="M5786 4708 c-11 -6 -32 -11 -48 -10 l-28 1 0 -175 0 -174 144 0 c124
0 150 3 190 21 26 11 54 18 62 15 9 -3 36 -1 61 6 l45 11 -6 45 c-3 25 -6 96
-6 158 l0 114 -115 0 -115 0 0 -139 c0 -83 -4 -142 -10 -146 -6 -4 -10 45 -10
139 l0 146 -72 0 c-40 0 -82 -6 -92 -12z"/>
<path d="M6220 4586 c0 -73 5 -146 10 -163 16 -43 101 -83 180 -83 l60 0 0
104 c0 58 -4 108 -10 111 -16 10 -92 -29 -143 -73 -27 -23 -54 -42 -60 -42
-23 1 88 91 142 115 30 14 60 33 67 43 13 16 13 16 14 -2 0 -11 3 -17 6 -13 3
3 30 -3 60 -13 l54 -19 0 78 0 78 -97 6 c-54 4 -140 7 -190 7 l-93 0 0 -134z"/>
<path d="M3238 4590 c-19 -23 -20 -34 -13 -165 4 -77 9 -143 11 -147 8 -13 57
-9 77 6 13 10 15 19 9 37 -15 39 -23 109 -13 109 5 0 12 -22 16 -48 8 -63 19
-80 38 -64 12 10 14 30 9 97 -3 60 -1 85 7 85 7 0 11 -21 11 -59 l0 -59 37 -4
c32 -4 43 0 66 24 16 15 35 28 42 28 7 0 27 19 45 43 l31 42 -78 8 c-51 5 -86
4 -101 -3 -18 -8 -23 -7 -20 2 3 8 -8 17 -26 23 -25 8 -32 16 -34 42 -3 31 -4
32 -49 30 -35 -2 -50 -8 -65 -27z"/>
<path d="M6482 4458 l3 -113 60 0 60 0 -3 80 c-2 44 -5 88 -8 97 -4 14 -79 48
-106 48 -5 0 -7 -51 -6 -112z"/>
<path d="M6175 4378 c-16 -5 -46 -9 -65 -9 -19 0 -42 -4 -50 -9 -10 -7 11 -10
68 -10 75 0 82 2 82 20 0 11 -1 20 -2 19 -2 0 -16 -5 -33 -11z"/>
<path d="M6230 4366 c0 -13 58 -31 68 -22 4 4 -51 36 -63 36 -3 0 -5 -6 -5
-14z"/>
<path d="M3390 4350 c0 -5 4 -10 9 -10 6 0 13 5 16 10 3 6 -1 10 -9 10 -9 0
-16 -4 -16 -10z"/>
<path d="M5710 4305 c0 -30 10 -31 122 -11 130 24 129 35 -4 36 l-118 0 0 -25z"/>
<path d="M5935 4306 c-27 -13 -79 -26 -115 -30 -87 -10 -110 -16 -110 -31 0
-13 169 -25 373 -25 l117 0 0 39 c0 22 3 46 6 55 5 14 -8 16 -107 15 -96 -1
-122 -4 -164 -23z"/>
<path d="M6220 4277 l0 -55 63 -11 c35 -6 91 -11 125 -11 l62 0 0 60 0 60 -57
0 c-32 0 -88 3 -125 7 l-68 6 0 -56z"/>
<path d="M6486 4267 c1 -49 3 -52 28 -55 15 -2 34 2 43 9 13 11 15 10 12 -6
-3 -15 -14 -21 -42 -23 l-37 -3 0 -120 0 -119 55 0 55 0 0 43 c0 23 2 106 6
185 l6 142 -51 0 -52 0 16 -30 c17 -34 18 -40 6 -40 -5 0 -14 14 -21 30 -19
46 -25 43 -24 -13z"/>
<path d="M3444 3919 c-3 -6 -2 -15 4 -21 7 -7 14 -3 21 11 10 17 9 21 -3 21
-8 0 -18 -5 -22 -11z"/>
<path d="M6488 3879 l-3 -50 53 -30 c29 -17 57 -29 63 -27 10 3 13 55 10 143
-1 12 -14 15 -60 15 l-59 0 -4 -51z"/>
<path d="M4700 3912 c0 -26 36 -32 236 -37 149 -5 205 -4 194 4 -9 6 -78 11
-175 11 -89 0 -165 4 -170 9 -15 14 -85 25 -85 13z"/>
<path d="M3272 3876 c-53 -11 -54 -37 -2 -47 41 -9 53 -1 48 32 -3 23 -5 24
-46 15z"/>
<path d="M3175 3850 c-16 -5 -52 -14 -79 -21 l-48 -12 6 -51 c3 -28 6 -61 6
-74 0 -22 3 -23 68 -20 l67 3 1 64 c1 34 5 76 8 92 3 16 4 29 3 28 -1 -1 -15
-5 -32 -9z"/>
<path d="M3218 3802 c-3 -11 -3 -42 0 -71 l5 -51 38 0 38 0 7 56 c3 30 3 59
-2 64 -5 4 -25 10 -45 14 -30 5 -37 3 -41 -12z"/>
<path d="M6610 3720 c0 -5 5 -10 10 -10 6 0 10 5 10 10 0 6 -4 10 -10 10 -5 0
-10 -4 -10 -10z"/>
<path d="M3023 3703 c-9 -3 -13 -29 -13 -83 0 -69 3 -81 20 -90 19 -10 20 -8
19 47 0 80 -11 131 -26 126z"/>
<path d="M3130 3260 c0 -23 5 -30 19 -30 17 0 18 3 8 30 -6 17 -15 30 -19 30
-4 0 -8 -13 -8 -30z"/>
<path d="M3080 3271 c0 -6 5 -13 10 -16 6 -3 10 1 10 9 0 9 -4 16 -10 16 -5 0
-10 -4 -10 -9z"/>
<path d="M3102 3152 c-27 -83 -30 -172 -6 -172 11 0 14 6 9 20 -3 11 -2 20 4
20 5 0 13 -9 16 -20 4 -14 15 -20 36 -20 26 0 29 3 29 35 0 19 10 55 22 80
l23 46 -21 17 c-12 9 -24 25 -27 35 -4 9 -13 17 -21 17 -8 0 -21 2 -28 5 -10
4 -20 -14 -36 -63z"/>
<path d="M3200 3202 c0 -4 5 -13 12 -20 16 -16 28 -15 28 2 0 8 -7 17 -16 20
-21 8 -24 8 -24 -2z"/>
<path d="M3866 5024 c-5 -14 -4 -15 9 -4 17 14 19 20 6 20 -5 0 -12 -7 -15
-16z"/>
<path d="M4087 4892 c-13 -31 -28 -74 -31 -94 -8 -42 -18 -38 139 -57 45 -6
88 -13 96 -16 12 -4 19 13 35 79 l21 85 -46 7 c-68 9 -112 20 -152 38 l-37 15
-25 -57z"/>
<path d="M4039 4728 c0 -7 -4 -35 -8 -61 -7 -41 -3 -65 25 -155 19 -58 35
-107 37 -109 2 -1 19 2 38 8 19 6 53 10 77 10 35 -1 42 2 42 17 0 11 -9 27
-20 37 -26 24 -25 33 5 47 21 10 45 57 45 91 0 4 -36 7 -79 7 l-79 0 -21 36
c-27 46 -20 56 10 15 22 -30 25 -31 100 -31 75 0 77 1 83 26 4 15 3 31 -2 36
-5 5 -58 15 -118 23 -134 18 -134 18 -135 3z"/>
<path d="M4245 4501 c-3 -5 -1 -12 5 -16 5 -3 10 1 10 9 0 18 -6 21 -15 7z"/>
<path d="M4417 4069 c7 -7 15 -10 18 -7 3 3 -2 9 -12 12 -14 6 -15 5 -6 -5z"/>
<path d="M4710 7995 c0 -5 29 -66 35 -73 1 -1 33 16 71 38 l69 40 -88 0 c-48
0 -87 -2 -87 -5z"/>
</g>
</svg>
