<?xml version="1.0" standalone="no"?>
<!DOCTYPE svg PUBLIC "-//W3C//DTD SVG 20010904//EN"
 "http://www.w3.org/TR/2001/REC-SVG-20010904/DTD/svg10.dtd">
<svg version="1.0" xmlns="http://www.w3.org/2000/svg"
 width="800.000000pt" height="800.000000pt" viewBox="0 0 800.000000 800.000000"
 preserveAspectRatio="xMidYMid meet">
<metadata>
Created by potrace 1.16, written by Peter Selinger 2001-2019
</metadata>
<g transform="translate(0.000000,800.000000) scale(0.100000,-0.100000)"
fill="#000000" stroke="none">
<path d="M0 6330 c0 -1448 2 -1670 14 -1670 8 0 18 -5 22 -12 5 -8 0 -9 -14
-6 l-22 6 0 -2324 0 -2324 3516 0 3516 0 74 46 c54 34 74 52 74 68 1 21 1 21
15 2 14 -19 15 -18 15 15 0 45 -18 107 -39 136 -18 26 -59 30 -68 8 -9 -25
-58 -46 -72 -32 -8 8 -15 7 -27 -5 -14 -14 -14 -15 10 -11 15 3 26 1 26 -6 0
-6 7 -11 15 -11 8 0 12 -6 9 -13 -3 -8 2 -20 11 -27 8 -7 15 -17 15 -23 0 -6
-17 5 -37 25 -32 30 -42 35 -62 27 -22 -9 -23 -7 -16 18 4 16 7 28 8 29 18 7
108 62 126 75 13 11 27 16 32 13 16 -10 9 7 -20 50 -17 24 -33 54 -36 68 -6
24 -10 25 -46 21 -37 -5 -39 -4 -39 21 0 30 0 29 -34 16 -30 -11 -34 1 -10 25
16 15 15 18 -4 37 l-20 20 -17 -26 c-16 -24 -16 -28 -1 -51 19 -29 20 -35 3
-35 -7 0 -18 14 -24 31 -11 28 -9 37 17 83 26 44 35 51 31 24 0 -3 13 -21 29
-38 17 -18 30 -36 30 -41 0 -5 6 -9 14 -9 9 0 12 -7 9 -20 -6 -22 7 -26 24 -9
12 12 -3 59 -19 59 -4 0 -8 8 -8 19 0 10 -7 24 -15 31 -8 7 -15 22 -15 34 0
17 -2 18 -10 6 -7 -11 -14 -12 -27 -4 -27 17 -27 33 1 30 24 -3 24 -2 12 28
-7 19 -21 32 -34 34 -13 2 -19 8 -16 17 3 8 12 11 20 8 8 -3 14 1 14 9 0 23
-12 29 -28 15 -13 -10 -14 -9 -10 3 2 8 14 16 26 18 17 3 22 -2 22 -18 0 -31
55 -167 93 -230 19 -31 37 -69 41 -85 10 -40 64 -123 87 -136 13 -7 17 -17 14
-32 -3 -12 5 -55 19 -96 13 -41 22 -80 19 -87 -4 -10 5 -14 31 -14 33 0 36 -2
36 -29 0 -16 6 -31 13 -34 6 -2 9 -8 5 -12 -14 -14 -38 5 -38 30 0 28 -13 31
-72 14 -37 -10 -47 -22 -29 -33 5 -4 11 0 14 6 5 13 8 6 22 -37 4 -13 56 -15
395 -15 l390 0 0 4000 0 4000 -1895 0 c-1467 0 -1895 -3 -1895 -12 0 -9 -3 -9
-12 0 -9 9 -490 12 -2105 12 l-2093 0 0 -1670z m190 1030 c12 -8 11 -10 -7
-10 -12 0 -25 5 -28 10 -8 13 15 13 35 0z m122 -32 c-7 -7 -12 -8 -12 -2 0 14
12 26 19 19 2 -3 -1 -11 -7 -17z m-107 2 c3 -5 -3 -10 -14 -10 -12 0 -21 5
-21 10 0 6 6 10 14 10 8 0 18 -4 21 -10z m343 -87 c4 -25 -16 -31 -36 -11 -20
20 -14 40 11 36 14 -2 23 -11 25 -25z m-163 -3 c-3 -5 -16 -10 -28 -10 -18 0
-19 2 -7 10 20 13 43 13 35 0z m4080 -80 c3 -5 1 -10 -4 -10 -6 0 -11 5 -11
10 0 6 2 10 4 10 3 0 8 -4 11 -10z m55 -24 c6 -16 19 -26 44 -30 23 -4 43 -17
56 -36 21 -30 15 -41 -8 -18 -9 9 -12 8 -12 -7 0 -18 -1 -18 -21 1 -19 17 -19
19 -2 25 15 6 13 9 -12 19 -16 6 -45 14 -64 17 l-34 6 7 -36 c4 -24 3 -37 -4
-37 -5 0 -10 13 -10 28 0 15 -5 33 -12 40 -9 9 -9 15 1 25 11 10 14 10 18 0 7
-21 33 -15 33 7 0 27 9 25 20 -4z m107 -208 c-3 -8 -6 -5 -6 6 -1 11 2 17 5
13 3 -3 4 -12 1 -19z m-344 -132 c47 -63 54 -76 39 -76 -8 0 -102 123 -102
134 0 17 20 -1 63 -58z m77 -117 c0 -11 -4 -17 -10 -14 -5 3 -10 13 -10 21 0
8 5 14 10 14 6 0 10 -9 10 -21z m240 -49 c0 -11 -6 -20 -14 -20 -18 0 -29 16
-21 30 11 18 35 11 35 -10z m-132 -19 c-10 -13 -10 -14 2 -3 16 14 44 16 35 3
-3 -5 3 -12 12 -14 10 -2 6 -3 -9 -1 -23 3 -28 0 -29 -19 0 -19 -2 -20 -11 -6
-10 14 -15 12 -41 -18 -40 -46 -46 -35 -8 17 16 23 27 48 25 55 -4 10 0 12 15
8 18 -5 19 -8 9 -22z m55 22 c-7 -2 -19 -2 -25 0 -7 3 -2 5 12 5 14 0 19 -2
13 -5z m-263 -28 c0 -8 -4 -15 -10 -15 -5 0 -10 7 -10 15 0 8 5 15 10 15 6 0
10 -7 10 -15z m-100 1 c0 -2 -18 -15 -41 -30 -33 -22 -39 -31 -33 -49 4 -12
11 -25 16 -28 5 -4 9 -19 8 -35 -4 -56 -1 -62 21 -57 18 5 15 -3 -20 -46 -22
-29 -41 -58 -41 -65 0 -7 19 -18 41 -25 40 -12 42 -12 75 20 19 18 36 30 39
28 2 -3 -12 -22 -33 -42 l-38 -37 -64 21 c-36 12 -74 30 -86 40 -11 11 -28 19
-37 19 -9 0 -17 3 -17 8 0 10 -60 36 -67 28 -4 -3 1 -6 11 -6 24 0 11 -16 -18
-24 -14 -3 -37 -17 -51 -31 -25 -23 -26 -27 -20 -90 4 -36 10 -67 14 -69 3 -2
20 -1 37 1 25 4 31 9 27 24 -3 10 -9 17 -13 14 -9 -5 -25 13 -19 20 2 2 21 6
42 10 31 6 37 4 37 -10 0 -12 -5 -15 -19 -10 -15 4 -18 2 -15 -12 5 -17 18
-19 126 -20 134 -2 141 0 218 74 40 37 53 44 108 51 62 9 63 8 98 -25 19 -18
44 -33 53 -33 38 0 43 -24 16 -84 -14 -31 -25 -59 -25 -61 0 -3 21 -10 46 -16
39 -10 49 -17 61 -48 8 -20 27 -46 41 -57 22 -18 26 -29 23 -62 -2 -38 -1 -40
20 -35 15 4 20 3 15 -5 -4 -7 -13 -12 -20 -12 -45 0 -69 -125 -41 -211 13 -38
15 -57 7 -74 -12 -26 2 -101 23 -124 14 -14 38 8 123 113 20 25 43 46 50 46 7
0 -22 -39 -63 -87 -41 -48 -75 -92 -75 -98 1 -22 64 -79 89 -80 20 0 26 -5 26
-23 0 -12 5 -26 10 -30 6 -4 12 -25 14 -47 4 -49 18 -78 34 -68 7 4 7 0 -2
-10 -16 -20 -32 -22 -28 -4 1 6 -5 11 -14 11 -13 -1 -15 7 -12 45 4 44 2 48
-41 91 l-46 44 -58 -57 c-31 -31 -51 -57 -44 -57 6 0 12 5 12 10 0 6 5 10 10
10 7 0 8 -6 2 -17 -8 -13 2 -27 45 -67 69 -64 82 -71 96 -57 17 17 31 13 17
-4 -25 -30 -58 -17 -134 55 -74 70 -74 71 -89 49 -10 -13 -22 -19 -31 -16 -24
10 -19 -18 7 -36 15 -11 17 -16 7 -16 -8 0 -28 11 -45 24 -25 21 -28 27 -15
35 8 6 22 9 31 7 9 -1 53 31 98 72 l82 74 -28 29 c-15 16 -37 38 -49 49 -18
17 -20 30 -18 102 1 54 -3 95 -13 120 -9 21 -13 50 -9 67 5 26 2 30 -17 31
-21 2 -21 2 -1 6 16 3 25 20 42 76 28 93 28 99 -8 125 -16 13 -30 29 -30 36 0
29 -35 58 -73 59 -24 1 -37 6 -37 15 0 9 -7 11 -22 7 l-23 -6 22 18 c19 16 53
82 53 104 0 5 -13 15 -30 24 -16 8 -38 25 -49 36 -17 18 -28 21 -76 17 -34 -3
-63 -11 -73 -21 -15 -16 -15 -17 6 -17 12 0 22 -4 22 -10 0 -5 -13 -10 -29
-10 -17 0 -52 -15 -82 -35 -30 -19 -66 -35 -81 -35 -21 0 -28 -5 -28 -19 0
-24 -25 -73 -33 -64 -10 9 -8 41 2 45 5 2 11 12 13 23 3 18 -3 20 -52 21 -30
1 -86 -4 -125 -11 l-70 -12 2 -63 c2 -69 21 -99 86 -135 36 -20 95 -85 78 -85
-6 0 -48 33 -94 73 -79 71 -82 75 -85 121 -3 38 -7 49 -23 53 -23 6 -25 23 -3
23 13 0 15 7 11 28 -3 15 -9 55 -13 90 -6 57 -5 65 16 87 13 14 18 25 11 25
-8 0 -10 7 -6 20 4 12 2 20 -4 20 -8 0 -7 7 1 20 10 15 10 25 2 38 -9 13 -8
20 2 30 18 17 27 15 47 -9 21 -24 15 -38 -8 -19 -19 16 -28 -3 -23 -51 3 -36
25 -51 34 -22 15 48 26 66 32 56 9 -14 144 -113 154 -113 5 0 8 4 8 10 0 5 11
20 24 33 18 18 22 31 18 56 l-4 32 -24 -22 -25 -23 -26 26 -26 26 22 11 c12 7
19 16 16 21 -8 13 -45 -11 -45 -28 0 -7 -10 -2 -23 12 -19 21 -29 24 -64 19
-27 -3 -43 -1 -48 7 -6 9 0 12 24 8 17 -2 31 -1 31 4 0 4 11 8 23 8 13 0 32 8
41 19 9 10 34 21 54 25 20 3 55 19 77 35 35 26 65 38 65 27z m492 -70 c2 -19
0 -32 -4 -30 -8 5 -12 64 -4 64 2 0 6 -15 8 -34z m-106 8 c-4 -9 -11 -36 -17
-60 -6 -25 -15 -47 -20 -50 -5 -3 -9 -17 -9 -31 0 -15 -3 -23 -7 -20 -3 4 -11
-3 -17 -15 -11 -22 -76 -56 -76 -39 0 5 12 14 28 20 19 9 35 30 55 73 21 47
23 57 10 47 -10 -8 -21 -18 -24 -23 -4 -5 -12 1 -18 13 -10 18 -9 21 9 21 11
0 20 4 20 9 0 5 8 8 17 7 11 -1 20 10 26 32 6 17 14 32 20 32 5 0 6 -7 3 -16z
m-350 -100 c18 -15 18 -15 -11 -9 -37 8 -57 25 -29 25 11 0 29 -7 40 -16z
m-276 -4 c8 -5 11 -12 7 -16 -4 -4 -15 0 -24 9 -18 18 -8 23 17 7z m340 -30
c-19 -12 -40 -13 -40 -1 0 9 40 20 50 13 2 -2 -2 -7 -10 -12z m27 -47 c-20
-20 -39 -34 -43 -30 -8 7 68 78 76 71 2 -3 -12 -21 -33 -41z m433 33 c0 -3 -4
-8 -10 -11 -5 -3 -10 -1 -10 4 0 6 5 11 10 11 6 0 10 -2 10 -4z m-980 -176
c-8 -5 -17 -7 -19 -4 -3 3 1 9 9 14 8 5 17 7 19 4 3 -3 -1 -9 -9 -14z m351 7
c-1 -12 -15 -9 -19 4 -3 6 1 10 8 8 6 -3 11 -8 11 -12z m492 6 c-7 -2 -19 -2
-25 0 -7 3 -2 5 12 5 14 0 19 -2 13 -5z m77 -63 c-26 -20 -40 -25 -40 -14 0
11 34 33 50 33 10 1 6 -6 -10 -19z m-243 -65 c9 -25 -4 -29 -17 -6 -7 15 -7
21 0 21 6 0 13 -7 17 -15z m-337 -118 c0 -31 26 -60 55 -62 6 0 9 -8 7 -18 -1
-9 9 -42 23 -72 30 -66 31 -79 6 -46 -19 25 -41 22 -41 -7 0 -12 -3 -13 -11
-5 -8 8 -6 17 9 33 20 22 20 22 2 63 -11 23 -32 51 -47 62 -22 16 -27 26 -25
53 4 42 22 42 22 -1z m270 13 c0 -13 -28 -25 -38 -16 -3 4 0 11 8 16 20 13 30
12 30 0z m430 -2 c0 -5 9 -4 21 2 19 11 39 7 27 -5 -11 -12 -108 -18 -108 -7
0 10 20 18 48 18 6 1 12 -3 12 -8z m-612 -16 c5 -17 -26 -26 -42 -13 -7 6 -16
8 -19 4 -4 -3 -7 0 -7 8 0 17 62 18 68 1z m165 -38 c16 -19 26 -38 22 -42 -6
-7 -64 56 -65 71 0 16 16 5 43 -29z m-583 -24 c0 -13 -20 -13 -40 0 -12 8 -9
10 13 10 15 0 27 -4 27 -10z m750 -22 c0 -10 4 -17 9 -14 10 7 20 -23 14 -41
-7 -21 -23 -15 -23 9 0 21 0 21 -15 2 -14 -18 -14 -18 -15 4 0 13 -4 31 -10
41 -8 16 -5 19 15 19 18 0 25 -6 25 -20z m130 12 c0 -5 -10 -10 -22 -10 -19 0
-20 2 -8 10 19 13 30 13 30 0z m245 -20 c3 -5 2 -10 -4 -10 -5 0 -13 5 -16 10
-3 6 -2 10 4 10 5 0 13 -4 16 -10z m-279 -25 c-3 -9 -11 -13 -16 -10 -8 5 -7
11 1 21 14 18 24 11 15 -11z m-242 -30 c3 -8 12 -15 21 -15 8 0 15 -4 15 -10
0 -5 -18 -10 -40 -10 -43 0 -45 2 -30 31 13 23 26 25 34 4z m-344 -70 c-54
-87 -96 -143 -106 -141 -5 2 -24 -2 -41 -9 -23 -10 -39 -29 -60 -72 -25 -52
-32 -59 -63 -63 -19 -3 -53 -15 -75 -28 -64 -36 -68 -38 -118 -62 -26 -13 -50
-20 -53 -17 -4 4 5 12 20 18 14 7 26 18 26 26 0 7 10 13 23 13 13 0 52 16 87
35 36 19 77 35 91 35 22 0 30 9 52 60 14 33 34 63 44 66 58 19 74 31 117 89
25 35 46 67 45 72 -3 20 2 26 13 15 10 -10 10 -18 -2 -37z m470 30 c0 -8 -4
-15 -10 -15 -5 0 -10 7 -10 15 0 8 5 15 10 15 6 0 10 -7 10 -15z m-818 -27
c15 0 26 -4 23 -9 -11 -17 -75 -7 -75 13 0 5 5 6 11 2 7 -4 25 -7 41 -6z m69
-18 c27 -15 24 -25 -11 -27 -33 -2 -33 -2 -24 21 7 19 9 19 35 6z m-151 -51
c0 -10 6 -22 13 -26 17 -10 31 -63 17 -63 -5 0 -10 9 -10 20 0 40 -20 19 -21
-22 l-1 -43 -10 38 c-7 26 -16 37 -29 37 -13 0 -17 5 -12 16 3 9 0 20 -8 24
-11 7 -10 10 4 16 10 3 17 17 17 32 0 24 0 25 20 7 11 -10 20 -26 20 -36z
m200 47 c0 -3 -4 -8 -10 -11 -5 -3 -10 -1 -10 4 0 6 5 11 10 11 6 0 10 -2 10
-4z m-290 -25 c0 -11 -4 -23 -10 -26 -6 -4 -10 5 -10 19 0 14 5 26 10 26 6 0
10 -9 10 -19z m870 9 c0 -5 -7 -10 -15 -10 -8 0 -15 5 -15 10 0 6 7 10 15 10
8 0 15 -4 15 -10z m296 -35 c-3 -8 -10 -15 -15 -15 -7 0 -6 10 1 26 12 26 25
16 14 -11z m-1046 15 c0 -5 -4 -10 -10 -10 -5 0 -10 5 -10 10 0 6 5 10 10 10
6 0 10 -4 10 -10z m592 -17 c7 -16 18 -35 25 -44 9 -11 10 -24 3 -49 -8 -28
-6 -40 10 -67 18 -31 19 -36 4 -78 -9 -28 -12 -59 -8 -79 6 -37 -2 -76 -16
-76 -6 0 -6 10 0 25 6 16 6 35 -1 53 -8 20 -7 37 2 66 11 32 11 45 -2 80 -10
27 -12 54 -8 76 5 23 3 40 -5 50 -20 25 -37 70 -26 70 6 0 16 -12 22 -27z
m-497 7 c3 -5 2 -10 -4 -10 -5 0 -13 5 -16 10 -3 6 -2 10 4 10 5 0 13 -4 16
-10z m1152 -16 c-7 -7 -37 7 -37 17 0 6 9 5 21 -1 11 -7 19 -14 16 -16z m33
16 c0 -5 -2 -10 -4 -10 -3 0 -8 5 -11 10 -3 6 -1 10 4 10 6 0 11 -4 11 -10z
m-615 -20 c8 -13 -15 -13 -35 0 -12 8 -11 10 7 10 12 0 25 -4 28 -10z m-3384
-43 c-13 -13 -26 -3 -16 12 3 6 11 8 17 5 6 -4 6 -10 -1 -17z m3775 -4 c-10
-10 -19 5 -10 18 6 11 8 11 12 0 2 -7 1 -15 -2 -18z m-201 -2 c3 -5 1 -12 -5
-16 -5 -3 -10 1 -10 9 0 18 6 21 15 7z m45 -3 c0 -6 7 -20 17 -30 20 -22 12
-34 -14 -19 -10 6 -15 11 -11 11 4 0 3 11 -2 25 -6 16 -6 25 0 25 6 0 10 -5
10 -12z m370 -8 c0 -5 -8 -10 -17 -10 -15 0 -16 2 -3 10 19 12 20 12 20 0z
m-840 -31 c0 -6 -4 -7 -10 -4 -5 3 -10 11 -10 16 0 6 5 7 10 4 6 -3 10 -11 10
-16z m296 -13 c22 -22 18 -39 -6 -26 -11 6 -20 17 -20 25 0 19 8 19 26 1z
m-661 -6 c-3 -5 -11 -10 -16 -10 -6 0 -7 5 -4 10 3 6 11 10 16 10 6 0 7 -4 4
-10z m293 -9 c3 -8 -1 -12 -9 -9 -7 2 -15 10 -17 17 -3 8 1 12 9 9 7 -2 15
-10 17 -17z m192 -13 c0 -5 -4 -8 -10 -8 -5 0 -10 10 -10 23 0 18 2 19 10 7 5
-8 10 -18 10 -22z m-2369 -10 c34 -19 51 -38 34 -38 -8 0 -85 50 -85 55 0 9
12 5 51 -17z m1719 -20 c0 -19 -2 -20 -10 -8 -13 19 -13 30 0 30 6 0 10 -10
10 -22z m-1615 -7 c-3 -6 -11 -11 -17 -11 -6 0 -6 6 2 15 14 17 26 13 15 -4z
m2045 -21 c0 -5 -9 -10 -21 -10 -11 0 -17 5 -14 10 3 6 13 10 21 10 8 0 14 -4
14 -10z m418 -8 c6 -18 -15 -14 -22 4 -4 10 -1 14 6 12 6 -2 14 -10 16 -16z
m-148 -2 c0 -5 -4 -10 -9 -10 -6 0 -13 5 -16 10 -3 6 1 10 9 10 9 0 16 -4 16
-10z m300 -14 c9 -12 8 -15 -9 -13 -21 1 -26 8 -14 20 9 9 9 9 23 -7z m-206
-40 c-9 -24 -34 -28 -34 -6 0 13 7 20 20 20 13 0 17 -5 14 -14z m103 -13 c-4
-3 0 -15 10 -25 15 -17 15 -18 -8 -18 -34 0 -51 18 -36 36 7 7 18 13 26 14 8
0 11 -3 8 -7z m-340 -23 c-19 -27 -67 -64 -74 -56 -3 3 2 8 11 12 9 4 23 19
32 35 8 16 21 29 30 29 13 0 13 -3 1 -20z m203 -10 c0 -5 -4 -10 -9 -10 -6 0
-13 5 -16 10 -3 6 1 10 9 10 9 0 16 -4 16 -10z m1998 -23 c6 -5 12 -14 12 -20
0 -5 -8 -3 -17 6 -11 9 -28 13 -44 10 -18 -3 -28 0 -32 10 -5 13 1 15 31 10
20 -3 43 -10 50 -16z m-2802 4 c-7 -11 -56 -21 -56 -10 0 4 8 10 18 12 30 8
43 7 38 -2z m594 -16 c-7 -9 -15 -13 -17 -11 -7 7 7 26 19 26 6 0 6 -6 -2 -15z
m380 -5 c8 -14 8 -20 0 -20 -6 0 -13 7 -16 15 -4 8 -10 12 -15 9 -5 -3 -9 0
-9 5 0 19 29 12 40 -9z m-530 -10 c0 -5 -7 -10 -15 -10 -8 0 -15 5 -15 10 0 6
7 10 15 10 8 0 15 -4 15 -10z m-507 -20 c-6 -22 -3 -23 22 -14 13 5 14 8 3 15
-9 6 -6 9 11 9 13 0 21 -3 18 -7 -4 -3 -2 -12 4 -20 9 -10 5 -13 -20 -13 -29
0 -81 -38 -81 -60 0 -12 -72 -56 -115 -71 -22 -7 -44 -17 -49 -21 -6 -4 -17
-8 -25 -8 -21 1 25 40 46 40 20 0 113 51 113 62 0 4 -11 8 -25 8 -30 0 -31 4
-5 37 17 22 20 23 20 7 0 -14 3 -15 12 -6 19 19 30 14 18 -9 -19 -35 -6 -30
18 7 14 22 18 34 10 34 -8 0 -5 7 6 15 25 19 25 19 19 -5z m88 3 c13 -16 12
-17 -3 -4 -17 13 -22 21 -14 21 2 0 10 -8 17 -17z m266 -7 c23 6 25 5 18 -17
-8 -23 -33 -54 -39 -48 -2 2 -6 24 -9 49 -3 25 -4 37 -1 27 4 -13 12 -15 31
-11z m355 -18 c-9 -9 -12 -7 -12 12 0 19 3 21 12 12 9 -9 9 -15 0 -24z m-1447
-27 c-6 -35 -4 -40 17 -47 17 -6 4 -10 -52 -15 -41 -4 -77 -6 -79 -4 -2 3 17
10 42 17 40 10 47 16 53 42 12 59 29 65 19 7z m1010 29 c3 -6 -1 -7 -9 -4 -18
7 -21 14 -7 14 6 0 13 -4 16 -10z m-398 -21 c-12 -7 -15 -17 -11 -35 3 -13 2
-24 -4 -24 -9 0 -27 49 -20 55 14 11 44 23 48 18 3 -2 -3 -9 -13 -14z m1333
-3 c0 -2 -7 -6 -15 -10 -8 -3 -15 -1 -15 4 0 6 7 10 15 10 8 0 15 -2 15 -4z
m-436 -45 c-6 -6 -24 19 -24 34 1 6 7 1 15 -9 8 -11 12 -22 9 -25z m356 30 c0
-5 -7 -14 -15 -21 -16 -14 -18 -10 -9 14 6 17 24 22 24 7z m-70 -26 c-7 -9
-15 -13 -18 -10 -3 2 1 11 8 20 7 9 15 13 18 10 3 -2 -1 -11 -8 -20z m-978 -7
c2 -13 9 -24 16 -24 6 -1 17 -2 24 -3 6 0 3 -8 -8 -16 -22 -17 -64 -20 -64 -4
0 5 5 7 11 3 8 -5 10 4 7 30 -4 38 8 51 14 14z m942 -4 c4 -12 2 -15 -9 -10
-9 3 -15 0 -15 -10 0 -8 -5 -12 -10 -9 -6 4 -17 1 -25 -5 -10 -8 -15 -9 -15
-2 0 11 47 52 60 52 4 0 11 -7 14 -16z m-1692 -34 c-4 -42 12 -50 72 -34 37
10 62 11 77 5 22 -9 21 -10 -10 -10 -18 -1 -51 -6 -72 -13 -58 -17 -89 0 -89
48 0 24 4 34 13 31 6 -2 11 -14 9 -27z m1748 14 c0 -8 -4 -12 -10 -9 -5 3 -10
10 -10 16 0 5 5 9 10 9 6 0 10 -7 10 -16z m561 -18 c18 -27 33 -36 69 -43 53
-10 51 -8 128 -213 28 -74 62 -160 76 -190 28 -59 32 -80 16 -80 -5 0 -10 7
-10 16 0 9 -9 18 -20 21 -20 5 -28 23 -10 23 6 0 10 5 10 11 0 6 -7 8 -16 5
-14 -5 -15 -4 -4 9 10 12 10 19 -2 37 -8 13 -40 94 -72 180 l-58 156 -47 7
c-38 5 -51 12 -70 40 l-23 34 -45 -20 c-60 -25 -78 -24 -28 2 22 12 44 25 50
30 17 16 32 9 56 -25z m-728 -26 c-2 -3 -10 3 -17 12 -7 10 -16 15 -19 11 -4
-3 -7 -2 -7 4 0 21 13 21 30 0 10 -12 16 -24 13 -27z m-1153 8 c0 -6 -7 -5
-15 2 -8 7 -15 17 -15 22 0 6 7 5 15 -2 8 -7 15 -17 15 -22z m57 26 c-3 -3
-12 -4 -19 -1 -8 3 -5 6 6 6 11 1 17 -2 13 -5z m203 -17 c0 -2 -21 -3 -47 -3
-27 -1 -36 1 -20 3 15 2 27 9 27 14 0 6 8 6 20 -1 11 -6 20 -12 20 -13z m-986
-13 c22 -21 20 -27 -3 -14 -11 5 -21 10 -23 10 -2 0 -1 -24 0 -52 3 -36 1 -50
-6 -43 -9 8 -17 77 -13 108 2 13 29 8 45 -9z m1091 -4 c-3 -5 -10 -10 -16 -10
-5 0 -9 5 -9 10 0 6 7 10 16 10 8 0 12 -4 9 -10z m816 -27 c1 -17 2 -17 6 0 4
17 25 21 24 4 -1 -4 -1 -14 -1 -23 0 -25 -44 -13 -48 14 -2 12 1 22 7 22 6 0
12 -8 12 -17z m-1281 -33 c0 -16 -60 -19 -87 -5 l-28 15 28 0 c15 0 27 -5 27
-12 0 -8 6 -6 16 4 16 16 44 14 44 -2z m730 16 c0 -3 -4 -8 -10 -11 -5 -3 -10
-1 -10 4 0 6 5 11 10 11 6 0 10 -2 10 -4z m-625 -27 c11 -17 0 -20 -21 -4 -17
13 -17 14 -2 15 9 0 20 -5 23 -11z m1401 -11 c-3 -13 -6 -26 -6 -30 0 -5 -5
-8 -11 -8 -6 0 -8 9 -4 20 4 11 2 20 -4 20 -6 0 -11 5 -11 10 0 6 10 10 21 10
17 0 20 -4 15 -22z m47 5 c-7 -2 -19 -2 -25 0 -7 3 -2 5 12 5 14 0 19 -2 13
-5z m515 -27 c-10 -7 -15 -16 -12 -19 7 -7 -14 -47 -25 -47 -4 0 -5 17 -2 38
4 20 12 37 18 37 6 0 15 3 19 8 4 4 10 4 13 1 3 -3 -2 -11 -11 -18z m-1822 0
c10 -8 16 -17 13 -20 -3 -4 -17 2 -30 13 -27 23 -13 28 17 7z m150 -2 c18 -15
18 -15 -8 -9 -21 4 -28 2 -28 -10 0 -8 -4 -15 -10 -15 -5 0 -10 7 -10 15 0 9
-9 15 -25 15 -14 0 -25 5 -25 10 0 16 84 12 106 -6z m299 -14 c3 -5 -1 -10 -9
-10 -9 0 -16 5 -16 10 0 6 4 10 9 10 6 0 13 -4 16 -10z m-1335 -15 c0 -8 -4
-15 -10 -15 -5 0 -10 7 -10 15 0 8 5 15 10 15 6 0 10 -7 10 -15z m602 -7 c-7
-7 -12 -8 -12 -2 0 6 3 14 7 17 3 4 9 5 12 2 2 -3 -1 -11 -7 -17z m452 -8 c-5
-5 -25 -12 -44 -15 l-35 -5 30 14 c35 18 64 21 49 6z m1090 -37 c-7 -29 -21
-50 -27 -42 -2 2 0 19 5 37 10 39 31 44 22 5z m-1534 3 c0 -3 -4 -8 -10 -11
-5 -3 -10 -1 -10 4 0 6 5 11 10 11 6 0 10 -2 10 -4z m-607 -22 c-5 -14 4 -15
68 -12 54 2 73 0 72 -9 -2 -7 2 -24 7 -39 8 -20 7 -25 -2 -22 -7 3 -14 14 -16
25 -4 26 -32 34 -89 26 -36 -5 -43 -9 -43 -29 0 -43 21 -78 78 -130 31 -28 54
-55 49 -60 -4 -4 -21 8 -38 28 -16 20 -38 40 -49 43 -37 12 -67 99 -56 161 4
19 11 34 16 34 5 0 7 -7 3 -16z m3807 -11 c22 3 40 2 40 -3 0 -14 -93 -21
-102 -8 -13 21 -9 31 7 18 9 -8 30 -11 55 -7z m-1552 -8 c6 -5 -24 -35 -36
-35 -5 0 -14 12 -21 26 -12 26 -11 27 20 20 18 -3 35 -8 37 -11z m-1602 -31
c18 -14 18 -15 0 -6 -10 5 -28 7 -40 5 -17 -4 -18 -3 -6 6 20 14 23 14 46 -5z
m1427 6 c20 0 37 -5 37 -10 0 -7 -30 -8 -90 -4 -63 5 -90 4 -90 -4 0 -6 9 -16
20 -22 17 -9 18 -14 7 -33 -6 -12 -13 -24 -14 -26 -1 -1 -7 0 -13 4 -8 5 -8
10 0 20 19 23 -18 64 -57 65 -18 0 -33 5 -33 12 0 8 27 9 98 5 53 -4 114 -7
135 -7z m607 -66 c0 -2 -4 -4 -9 -4 -11 0 -32 56 -23 64 5 5 32 -46 32 -60z
m-481 20 c4 -4 -9 -3 -27 1 -32 7 -33 6 -23 -14 11 -19 23 -25 44 -22 4 0 7
-4 7 -10 0 -7 -10 -9 -25 -5 -22 6 -25 3 -25 -21 0 -14 7 -35 17 -45 9 -10 12
-18 6 -18 -24 0 -41 38 -46 102 l-5 67 36 -15 c20 -8 38 -17 41 -20z m-1654
-3 c-3 -6 -14 -11 -23 -11 -15 1 -15 2 2 15 21 16 32 13 21 -4z m2416 -3 c17
-13 39 -39 49 -58 19 -37 17 -72 -10 -160 -14 -47 -13 -73 3 -67 6 2 11 10 10
16 -2 6 9 11 23 11 14 0 23 -4 19 -10 -3 -5 -11 -10 -16 -10 -6 0 -31 -14 -55
-32 -24 -17 -47 -29 -50 -25 -4 3 4 11 18 17 19 9 24 19 24 46 -1 25 -5 34
-18 34 -12 0 -15 5 -11 15 5 13 2 14 -21 4 -20 -9 -26 -19 -26 -44 0 -31 0
-32 -56 -34 -31 -1 -78 5 -107 15 -52 17 -101 44 -80 44 6 0 14 10 17 23 6 21
7 21 17 3 9 -14 8 -20 -1 -26 -21 -13 104 -49 149 -43 46 6 52 23 26 73 -9 18
-11 31 -5 35 6 3 10 0 10 -7 0 -31 22 -37 61 -17 33 17 39 17 47 4 6 -11 12
-2 21 36 12 45 11 55 -4 90 -15 33 -20 36 -29 23 -10 -14 -14 -13 -31 7 -18
20 -18 22 -2 16 26 -10 21 18 -5 31 -13 6 -17 11 -10 11 7 1 27 -9 43 -21z
m-246 -18 c3 -5 1 -10 -4 -10 -6 0 -11 5 -11 10 0 6 2 10 4 10 3 0 8 -4 11
-10z m55 -11 c7 -11 9 -24 5 -27 -3 -3 -8 4 -11 15 -4 12 -13 24 -23 26 -14 4
-14 5 1 6 10 0 22 -8 28 -20z m-2570 6 c0 -2 -13 -11 -30 -20 -31 -16 -43 -3
-12 14 18 11 42 14 42 6z m470 -31 c0 -19 -4 -23 -22 -20 -26 4 -32 37 -8 47
21 9 30 1 30 -27z m-460 1 c0 -2 -13 -11 -30 -20 -19 -10 -27 -20 -24 -30 4
-8 2 -15 -4 -15 -5 0 -12 9 -15 20 -4 15 2 24 21 35 27 14 52 19 52 10z m10
-70 c-69 -36 -80 -40 -80 -27 0 12 100 62 125 62 12 0 -7 -14 -45 -35z m141
-10 c17 11 30 -6 15 -21 -16 -16 -40 -19 -31 -4 3 6 4 10 1 10 -2 0 -11 3 -19
6 -11 4 -15 -1 -13 -20 1 -18 7 -26 19 -26 22 0 20 -31 -2 -38 -8 -3 -11 0 -7
7 4 6 1 11 -8 11 -10 0 -16 10 -17 28 -1 15 -3 20 -6 10 -3 -11 -10 -15 -20
-11 -11 4 -14 3 -9 -6 13 -21 44 -161 35 -161 -9 0 -13 12 -30 94 -7 32 -19
60 -26 63 -18 7 -16 23 2 23 8 0 29 13 46 30 27 26 33 27 46 15 8 -9 19 -13
24 -10z m129 -10 c-7 -8 -17 -15 -23 -15 -5 0 -2 9 8 20 21 23 35 19 15 -5z
m1508 -2 c-2 -10 -11 -19 -21 -21 -16 -3 -17 -1 -5 17 16 25 31 27 26 4z m192
-23 c0 -5 -4 -10 -10 -10 -5 0 -10 5 -10 10 0 6 5 10 10 10 6 0 10 -4 10 -10z
m-2045 -30 c8 -35 -2 -107 -16 -116 -5 -3 -7 -9 -4 -13 2 -5 -4 -16 -15 -26
-11 -10 -20 -25 -20 -33 0 -9 3 -12 7 -9 3 4 11 1 17 -7 6 -8 47 -19 90 -25
44 -6 86 -17 95 -24 12 -10 14 -9 8 5 -10 28 -20 88 -14 88 4 0 16 -33 27 -72
17 -58 31 -83 68 -120 36 -38 44 -50 34 -60 -10 -10 -15 -8 -27 9 -47 67 -119
144 -131 139 -8 -3 -14 -2 -14 3 0 5 -26 12 -57 15 -32 4 -66 9 -75 12 -30 9
-20 -16 12 -30 35 -14 29 -26 -12 -26 -24 0 -28 4 -24 18 8 24 -28 47 -46 29
-8 -8 -23 -10 -38 -6 -25 6 -23 8 21 22 9 3 28 29 44 59 15 29 34 61 43 70 11
13 13 31 9 73 -6 58 7 76 18 25z m43 -29 c-2 -5 5 -16 16 -24 15 -11 17 -17 7
-35 -25 -47 -67 -12 -47 39 9 26 30 43 24 20z m2642 -11 c0 -5 -5 -10 -11 -10
-5 0 -7 5 -4 10 3 6 8 10 11 10 2 0 4 -4 4 -10z m-2356 -55 c3 -8 1 -15 -4
-15 -6 0 -10 7 -10 15 0 8 2 15 4 15 2 0 6 -7 10 -15z m2463 9 c-3 -3 -12 -4
-19 -1 -8 3 -5 6 6 6 11 1 17 -2 13 -5z m-5297 -6 c0 -2 -6 -20 -14 -41 -9
-28 -15 -34 -19 -23 -7 18 11 66 25 66 4 0 8 -1 8 -2z m5275 -47 c-3 -6 -11
-8 -17 -5 -6 4 -5 9 3 15 16 10 23 4 14 -10z m-40 -9 c-3 -3 -11 0 -18 7 -9
10 -8 11 6 5 10 -3 15 -9 12 -12z m-2315 -12 c0 -5 -4 -10 -10 -10 -5 0 -10 5
-10 10 0 6 5 10 10 10 6 0 10 -4 10 -10z m-320 -32 c0 -16 -3 -19 -11 -11 -6
6 -8 16 -5 22 11 17 16 13 16 -11z m200 2 c0 -11 -4 -20 -10 -20 -5 0 -10 9
-10 20 0 11 5 20 10 20 6 0 10 -9 10 -20z m470 5 c0 -8 -9 -15 -19 -15 -10 0
-21 7 -25 15 -4 11 1 15 19 15 16 0 25 -6 25 -15z m-109 -68 c-8 -8 -11 -7
-11 4 0 20 13 34 18 19 3 -7 -1 -17 -7 -23z m-121 3 c17 -17 18 -23 8 -40 -14
-22 -24 -25 -33 -10 -4 6 -10 8 -15 5 -4 -3 -10 8 -12 25 -3 21 0 30 11 33 9
3 17 5 19 6 1 0 11 -8 22 -19z m1437 -12 c-3 -7 -5 -2 -5 12 0 14 2 19 5 13 2
-7 2 -19 0 -25z m-1519 4 c-10 -2 -18 -12 -18 -24 0 -16 -3 -18 -14 -9 -15 13
-46 5 -46 -12 0 -6 7 -19 17 -29 18 -20 4 -25 -15 -6 -22 22 -14 58 16 68 15
6 34 14 42 19 8 5 20 6 25 3 6 -4 2 -8 -7 -10z m319 -14 c-3 -8 -6 -5 -6 6 -1
11 2 17 5 13 3 -3 4 -12 1 -19z m1223 -28 c5 0 10 -7 10 -15 0 -18 26 -32 69
-37 32 -3 36 0 44 30 11 36 37 44 37 10 0 -22 -19 -63 -20 -43 0 14 -20 -17
-20 -32 0 -7 9 -13 20 -13 11 0 20 -4 20 -10 0 -5 -7 -10 -15 -10 -8 0 -32
-19 -54 -42 -31 -34 -37 -45 -25 -51 8 -4 14 -13 14 -20 0 -6 -7 -4 -17 6 -16
16 -18 15 -40 -5 -13 -12 -23 -17 -23 -11 0 5 11 20 25 33 14 13 25 29 25 37
0 7 7 13 15 13 8 0 15 7 15 15 0 8 5 15 10 15 6 0 10 8 10 18 0 10 -16 25 -39
36 -22 10 -52 31 -66 46 -22 23 -32 27 -54 20 -26 -7 -27 -6 -22 24 4 25 6 27
9 9 2 -13 11 -23 20 -23 12 0 13 3 4 12 -7 7 -12 18 -12 25 0 6 11 1 25 -12
13 -14 29 -25 35 -25z m-1324 -2 c-9 -5 -16 -14 -16 -20 0 -7 6 -6 15 2 9 7
18 11 20 8 3 -3 -1 -11 -9 -17 -11 -10 -20 -10 -37 0 l-23 12 27 14 c15 7 28
21 28 31 1 14 2 14 6 -2 3 -11 -2 -23 -11 -28z m1374 12 c0 -5 -4 -10 -10 -10
-5 0 -10 5 -10 10 0 6 5 10 10 10 6 0 10 -4 10 -10z m-1286 -12 c-4 -7 -19
-31 -34 -53 -14 -22 -31 -49 -36 -60 -6 -11 -20 -22 -30 -23 -17 -4 -16 -1 4
18 13 12 22 26 20 31 -2 6 15 30 37 55 40 45 52 54 39 32z m-677 -24 c-3 -3
-12 -4 -19 -1 -8 3 -5 6 6 6 11 1 17 -2 13 -5z m558 -103 c-4 -50 -4 -113 0
-141 6 -44 11 -52 38 -65 l32 -13 -32 -1 c-27 -1 -39 -9 -64 -43 -17 -24 -33
-55 -36 -70 -6 -31 -14 -34 -43 -16 -18 11 -23 9 -44 -17 -13 -17 -27 -27 -30
-24 -12 11 35 58 69 69 35 11 95 83 95 112 0 7 -27 29 -61 48 -70 40 -64 53 8
17 l48 -25 -3 106 c-4 112 2 152 19 152 8 0 9 -27 4 -89z m1746 53 c112 -38
216 -57 222 -40 2 5 6 2 10 -7 4 -11 1 -17 -8 -17 -33 0 -4 -39 30 -41 15 -1
13 -3 -8 -9 -30 -9 -60 -3 -52 10 10 16 -7 41 -25 35 -9 -3 -30 1 -46 10 -16
8 -34 15 -41 15 -15 0 -33 -32 -33 -59 0 -12 -4 -21 -10 -21 -5 0 -10 -7 -10
-15 0 -7 -8 -19 -17 -25 -14 -9 -11 -10 16 -4 24 4 31 3 26 -5 -4 -7 0 -23 9
-36 26 -40 18 -52 -11 -18 -16 17 -40 34 -55 37 -24 5 -31 1 -51 -31 -35 -57
-41 -71 -18 -43 11 14 23 33 27 43 8 26 27 21 19 -5 -10 -32 -46 -70 -62 -64
-7 3 -15 1 -18 -4 -3 -5 -12 -7 -20 -3 -8 3 -15 0 -15 -6 0 -6 -13 -9 -31 -7
-35 4 -74 -26 -65 -50 3 -8 1 -14 -4 -14 -6 0 -10 -9 -10 -20 0 -13 5 -18 15
-14 8 4 15 1 15 -6 0 -6 -8 -14 -18 -17 -10 -2 -23 -18 -29 -34 -6 -16 -16
-29 -22 -29 -6 0 -8 7 -5 15 4 8 1 22 -6 30 -10 12 -9 16 3 21 23 8 41 65 25
76 -15 10 23 44 60 54 l23 6 -26 14 c-23 12 -30 11 -50 -2 -21 -14 -24 -14
-38 6 -11 16 -21 20 -36 15 -30 -9 -27 -2 22 46 38 40 42 41 45 22 2 -12 -2
-32 -8 -43 -14 -26 -8 -34 17 -26 12 4 25 29 40 78 27 91 58 176 67 185 11 11
1 -64 -11 -79 -15 -20 -34 -80 -27 -87 4 -3 9 -1 11 5 8 24 32 49 39 41 4 -4
-2 -21 -15 -37 -23 -32 -21 -36 10 -20 24 14 24 5 -1 -30 l-20 -28 26 -6 c20
-5 25 -12 21 -26 -3 -11 -2 -20 3 -20 8 0 60 75 60 87 0 5 16 18 36 31 30 19
35 28 30 48 -5 18 -2 24 9 24 14 0 14 4 -1 33 -10 17 -19 26 -21 20 -3 -7 -11
-13 -19 -13 -10 0 -13 8 -10 25 4 21 0 28 -22 36 -44 16 -68 28 -56 28 6 1 58
-15 115 -35z m241 6 c-2 -16 -8 -28 -12 -25 -9 5 -1 55 9 55 4 0 6 -13 3 -30z
m-818 4 c8 -21 8 -24 -3 -24 -5 0 -11 9 -14 20 -6 24 8 27 17 4z m-1677 -10
c-3 -3 -12 -4 -19 -1 -8 3 -5 6 6 6 11 1 17 -2 13 -5z m1613 -4 c0 -5 -2 -10
-4 -10 -3 0 -8 5 -11 10 -3 6 -1 10 4 10 6 0 11 -4 11 -10z m456 -17 c-10 -10
-19 5 -10 18 6 11 8 11 12 0 2 -7 1 -15 -2 -18z m-26 7 c0 -5 -2 -10 -4 -10
-3 0 -8 5 -11 10 -3 6 -1 10 4 10 6 0 11 -4 11 -10z m1041 -26 c24 -22 73 -33
95 -22 17 9 17 8 -1 -7 -23 -19 -80 -13 -107 12 -9 8 -21 12 -26 9 -5 -3 -14
6 -20 19 -11 23 -10 24 16 14 15 -6 34 -17 43 -25z m-86 16 c-3 -5 -18 -9 -33
-9 l-27 1 30 8 c17 4 31 8 33 9 2 0 0 -3 -3 -9z m671 -17 c-3 -8 -6 -19 -6
-24 0 -11 -21 -11 -39 0 -21 14 3 51 29 44 13 -4 19 -11 16 -20z m-1496 7 c0
-5 -4 -10 -9 -10 -6 0 -13 5 -16 10 -3 6 1 10 9 10 9 0 16 -4 16 -10z m20 -15
c0 -8 -4 -15 -10 -15 -5 0 -7 7 -4 15 4 8 8 15 10 15 2 0 4 -7 4 -15z m-2186
-10 c3 -8 1 -15 -3 -15 -5 0 -11 7 -15 15 -3 8 -1 15 3 15 5 0 11 -7 15 -15z
m264 -32 c34 -25 62 -48 62 -53 0 -4 -9 -10 -20 -13 -16 -4 -20 -14 -22 -49
-2 -57 -1 -60 6 -79 4 -9 1 -23 -6 -30 -7 -8 -14 -22 -16 -32 -3 -16 0 -17 18
-7 12 6 25 21 30 33 7 17 9 18 9 5 1 -10 -8 -26 -20 -37 -16 -15 -20 -29 -18
-65 2 -29 -2 -51 -12 -63 -19 -22 -13 -57 7 -49 22 8 17 -8 -15 -43 -16 -18
-36 -31 -44 -29 -8 2 -25 -8 -36 -21 -12 -13 -21 -19 -21 -13 0 6 -9 16 -20
22 -17 9 -24 7 -40 -12 -11 -13 -19 -27 -20 -31 0 -5 -7 -16 -16 -24 -8 -9
-13 -25 -11 -35 3 -11 -1 -34 -8 -51 -8 -18 -15 -27 -15 -22 0 6 -5 2 -11 -7
-5 -10 -15 -18 -20 -18 -16 0 -33 -21 -48 -58 -14 -34 -44 -57 -61 -47 -6 4
-13 -1 -16 -9 -12 -32 -84 -11 -84 24 0 28 18 34 22 8 4 -27 37 -37 53 -15 6
9 20 15 31 14 14 -2 26 11 43 46 15 32 29 47 42 47 11 0 23 8 26 18 4 9 13 22
21 28 8 6 12 17 9 25 -4 10 -6 9 -6 -3 -1 -10 -5 -18 -11 -18 -13 0 -13 2 9
57 10 26 16 54 13 62 -3 9 1 11 17 6 26 -8 27 3 4 22 -16 13 -15 14 11 8 27
-6 28 -5 16 10 -13 15 -11 17 10 13 16 -2 24 2 22 10 -3 17 13 15 28 -3 9 -10
9 -15 1 -15 -6 0 -11 -4 -11 -10 0 -16 26 -11 51 10 20 17 22 21 9 29 -13 9
-12 12 5 25 11 9 24 16 29 16 4 0 6 7 2 15 -3 9 3 20 14 27 22 14 27 58 7 58
-8 0 -13 17 -14 48 0 26 -2 54 -3 62 -1 8 1 25 5 36 5 17 2 23 -17 27 -37 10
-118 8 -118 -3 0 -5 -7 -10 -15 -10 -8 0 -15 6 -15 14 0 8 -8 17 -17 20 -10 3
30 3 90 1 l107 -4 0 28 c0 23 -7 31 -40 44 -34 13 -40 13 -40 1 0 -16 -9 -18
-30 -4 -12 8 -12 10 5 10 11 0 16 4 10 8 -5 4 -12 18 -13 32 -4 21 -2 22 12
11 13 -11 16 -11 16 2 0 9 -4 19 -10 22 -16 10 -12 22 8 22 9 0 45 -20 80 -44z
m-121 15 c-3 -8 -6 -5 -6 6 -1 11 2 17 5 13 3 -3 4 -12 1 -19z m1753 -14 c0
-2 -7 -4 -15 -4 -8 0 -15 4 -15 10 0 5 7 7 15 4 8 -4 15 -8 15 -10z m-230 -31
c0 -7 -5 -13 -12 -13 -6 0 8 -19 31 -42 25 -26 37 -44 29 -47 -6 -2 -27 13
-45 34 -27 31 -37 37 -63 33 -34 -5 -37 -1 -12 18 16 12 15 13 -5 14 -13 0
-23 -6 -23 -14 0 -9 -8 -12 -27 -8 -23 5 -24 7 -8 10 10 2 29 11 42 19 13 8
30 13 38 9 9 -3 15 0 15 9 0 13 3 13 20 3 11 -7 20 -18 20 -25z m2073 20 c3 7
6 5 6 -5 1 -10 -4 -18 -11 -18 -6 0 -3 -7 8 -15 18 -15 18 -16 -6 -13 -17 2
-25 -2 -25 -12 0 -8 8 -14 18 -14 9 1 17 -2 17 -7 0 -5 -7 -9 -15 -9 -13 0
-14 -4 -5 -20 14 -27 30 -16 30 20 0 15 7 30 15 34 18 7 18 7 4 -50 -6 -24
-16 -44 -21 -44 -5 0 -20 11 -33 25 -21 20 -25 33 -24 79 1 50 3 54 20 46 12
-7 19 -6 22 3z m-1923 -13 c-8 -5 -24 -10 -35 -10 -17 0 -17 2 -5 10 8 5 24
10 35 10 17 0 17 -2 5 -10z m1040 -25 c0 -2 -13 1 -30 6 -16 6 -30 15 -30 20
0 5 14 3 30 -6 17 -9 30 -17 30 -20z m565 17 c-3 -3 -11 0 -18 7 -9 10 -8 11
6 5 10 -3 15 -9 12 -12z m-491 -17 c-22 -17 -38 -20 -29 -5 3 6 0 11 -7 11 -7
1 1 4 17 8 38 9 44 5 19 -14z m396 18 c-8 -3 -21 -12 -27 -21 -12 -14 -13 -14
-13 0 0 17 14 26 40 26 13 0 13 0 0 -5z m-1144 -20 c12 -17 13 -17 19 0 4 9
13 17 21 17 19 0 18 -7 -6 -33 -16 -16 -23 -19 -29 -9 -4 7 -15 10 -24 6 -12
-4 -15 0 -14 15 2 26 15 27 33 4z m-904 -8 c0 -5 -5 -11 -11 -13 -6 -2 -11 4
-11 13 0 9 5 15 11 13 6 -2 11 -8 11 -13z m455 -17 c-3 -7 -5 -2 -5 12 0 14 2
19 5 13 2 -7 2 -19 0 -25z m1743 22 c-20 -13 -40 -13 -40 0 0 6 12 10 28 10
21 0 24 -2 12 -10z m-768 -12 c-8 -8 -17 -8 -34 0 -22 10 -21 11 12 11 26 1
31 -2 22 -11z m-922 -24 c0 -8 -4 -14 -10 -14 -5 0 -10 9 -10 21 0 11 5 17 10
14 6 -3 10 -13 10 -21z m-2050 8 c0 -4 -14 -16 -30 -26 -17 -9 -27 -22 -24
-28 4 -6 1 -9 -6 -6 -22 7 -23 27 -3 35 10 3 22 12 26 20 9 14 37 18 37 5z
m17 -30 c-15 -16 -27 -36 -27 -45 0 -9 -9 -21 -20 -27 -11 -6 -31 -27 -45 -48
-14 -20 -25 -31 -25 -25 0 24 24 63 47 78 12 9 23 21 23 27 0 15 62 80 69 73
2 -3 -8 -18 -22 -33z m3573 28 c5 0 5 -14 0 -32 -7 -21 -6 -36 1 -45 9 -10 8
-13 -2 -13 -22 0 -33 12 -45 47 -13 34 -1 58 24 48 8 -3 17 -5 22 -5z m-870
-10 c0 -12 -37 -23 -50 -15 -18 11 -10 20 20 22 17 1 30 -2 30 -7z m535 -20
c4 -6 -5 -9 -19 -8 -15 1 -26 6 -26 10 0 12 38 10 45 -2z m819 -13 c-1 -9 2
-15 6 -12 5 3 11 1 15 -5 3 -5 2 -10 -4 -10 -5 0 -17 -3 -25 -6 -13 -5 -16 0
-14 25 1 17 7 30 13 28 5 -2 9 -11 9 -20z m-3801 1 c-6 -7 -12 -19 -15 -27 -2
-8 -8 -4 -16 13 -11 24 -10 26 14 26 20 0 24 -3 17 -12z m1875 0 c-6 -18 -25
-20 -31 -3 -5 10 0 15 14 15 12 0 19 -5 17 -12z m1587 2 c3 -5 1 -10 -4 -10
-6 0 -11 5 -11 10 0 6 2 10 4 10 3 0 8 -4 11 -10z m-3134 -23 c-10 -9 -11 -8
-5 6 3 10 9 15 12 12 3 -3 0 -11 -7 -18z m-463 1 c17 -17 15 -28 -5 -28 -9 0
-13 3 -10 7 4 3 2 12 -4 20 -14 16 3 17 19 1z m552 -13 c0 -18 -5 -25 -20 -25
-25 0 -27 37 -2 43 9 3 18 5 20 6 1 0 2 -10 2 -24z m1326 16 c-4 -5 8 -12 24
-16 25 -5 29 -10 20 -20 -9 -11 -5 -17 15 -27 22 -12 24 -16 12 -26 -21 -18
-83 8 -64 27 9 10 9 11 -4 6 -21 -8 -46 44 -27 56 17 12 31 11 24 0z m-268
-30 c6 -16 6 -34 2 -42 -7 -11 -14 -9 -34 10 -23 22 -27 49 -5 35 5 -3 9 -2 8
3 -6 34 17 30 29 -6z m-1658 0 c0 -11 5 -21 10 -23 7 -2 5 -11 -4 -23 -15 -20
-15 -20 -16 1 0 18 -5 20 -26 16 -21 -4 -25 -2 -18 9 25 42 54 52 54 20z
m1842 2 c19 -17 25 -63 8 -63 -5 0 -10 8 -10 19 0 24 -26 47 -33 29 -2 -7 -7
-10 -11 -7 -9 9 4 39 17 39 6 0 19 -7 29 -17z m-62 -15 c0 -13 -32 -6 -37 9
-3 7 3 9 16 6 12 -3 21 -10 21 -15z m810 2 c0 -5 -4 -10 -10 -10 -5 0 -10 5
-10 10 0 6 5 10 10 10 6 0 10 -4 10 -10z m1334 -6 c3 -8 10 -12 16 -9 5 3 10
2 10 -4 0 -6 10 -13 23 -16 18 -5 22 -13 22 -49 0 -43 0 -43 -17 -20 -10 12
-18 30 -18 39 0 12 -5 15 -20 10 -16 -5 -19 -3 -13 11 5 14 2 16 -15 12 -23
-6 -26 -1 -16 26 8 20 20 20 28 0z m-3151 -8 c4 -10 1 -13 -9 -9 -15 6 -19 23
-5 23 5 0 11 -7 14 -14z m-403 -21 c0 -11 -12 -15 -52 -15 -29 0 -64 4 -78 8
-25 7 -22 7 113 20 9 1 17 -5 17 -13z m3986 -21 c-11 -7 -22 -11 -25 -8 -3 3
3 12 13 20 11 7 22 11 25 8 3 -3 -3 -12 -13 -20z m-3516 -5 c0 -6 -4 -7 -10
-4 -5 3 -10 11 -10 16 0 6 5 7 10 4 6 -3 10 -11 10 -16z m2060 -4 c14 -19 14
-19 -2 -6 -10 7 -18 18 -18 24 0 6 1 8 3 6 1 -2 9 -13 17 -24z m-2970 6 c0 -6
-4 -13 -10 -16 -5 -3 -10 1 -10 9 0 9 5 16 10 16 6 0 10 -4 10 -9z m1618 -32
c-19 -25 -24 -28 -27 -13 -2 10 5 24 15 31 30 22 36 14 12 -18z m1452 27 c0
-2 -9 -6 -20 -9 -11 -3 -18 -1 -14 4 5 9 34 13 34 5z m-2800 -27 c0 -5 -7 -9
-15 -9 -15 0 -20 12 -9 23 8 8 24 -1 24 -14z m45 2 c-3 -6 -11 -11 -17 -11 -6
0 -6 6 2 15 14 17 26 13 15 -4z m1671 -8 c-10 -10 -19 5 -10 18 6 11 8 11 12
0 2 -7 1 -15 -2 -18z m350 11 c-3 -9 -6 -18 -6 -20 0 -2 -4 -4 -9 -4 -5 0 -7
9 -4 20 3 11 10 20 15 20 6 0 7 -7 4 -16z m210 -5 c24 -6 44 -15 44 -20 0 -12
-3 -12 -66 7 -30 8 -54 20 -54 26 0 5 7 7 16 4 9 -4 36 -11 60 -17z m-2557 2
c8 -5 11 -16 7 -27 -4 -10 -1 -21 5 -25 7 -4 9 -14 6 -23 -9 -22 -26 -20 -20
3 3 13 -2 20 -20 25 -20 5 -23 11 -19 31 5 26 17 31 41 16z m381 -13 c0 -16
-3 -19 -11 -11 -6 6 -8 16 -5 22 11 17 16 13 16 -11z m2306 13 c-8 -12 -46
-21 -46 -11 0 9 18 18 38 19 7 1 11 -3 8 -8z m97 -8 c-8 -19 -31 -23 -35 -5
-4 12 2 17 17 17 13 0 21 -5 18 -12z m62 7 c3 -6 -1 -7 -9 -4 -18 7 -21 14 -7
14 6 0 13 -4 16 -10z m-1105 -20 c0 -11 4 -20 10 -20 5 0 7 -6 4 -14 -8 -20
82 -9 125 16 40 23 48 19 21 -10 l-21 -22 50 0 c41 0 49 3 45 15 -5 11 1 15
26 15 21 0 29 -4 24 -12 -5 -8 4 -10 34 -6 23 4 45 1 51 -5 8 -8 21 -1 49 26
21 20 44 37 52 37 9 0 3 -12 -17 -30 -19 -18 -30 -36 -27 -45 4 -10 0 -15 -10
-15 -9 0 -19 -7 -22 -15 -8 -19 -24 -19 -38 0 -9 12 -33 16 -101 18 -144 3
-192 -15 -150 -57 8 -8 15 -19 15 -25 0 -6 6 -11 14 -11 8 0 16 -7 20 -15 8
-21 -24 -19 -40 3 -12 15 -13 13 -8 -15 4 -21 2 -33 -4 -33 -6 0 -14 21 -17
48 -14 102 -13 102 -51 102 -40 0 -104 -24 -104 -39 0 -6 -4 -11 -10 -11 -26
0 -6 33 28 47 37 14 39 17 35 54 -2 23 0 39 7 39 5 0 10 -9 10 -20z m110 -1
c0 -6 -4 -7 -10 -4 -5 3 -10 11 -10 16 0 6 5 7 10 4 6 -3 10 -11 10 -16z
m1662 -25 c39 -9 47 -10 72 -12 15 -2 16 -5 6 -17 -9 -10 -9 -15 -1 -15 6 0
11 -8 11 -17 0 -10 14 -27 30 -38 19 -13 34 -34 41 -58 5 -21 17 -41 25 -44
13 -5 13 -8 -2 -24 -10 -11 -12 -19 -6 -19 7 0 12 -5 12 -11 0 -6 -8 -9 -17
-7 -11 2 -17 11 -16 23 2 11 -2 41 -8 66 -7 34 -18 50 -40 63 -16 9 -29 23
-29 29 -1 41 -89 80 -213 96 l-62 8 67 2 c39 0 70 6 74 13 5 8 10 5 15 -9 5
-13 21 -24 41 -29z m398 27 c-1 -15 -17 -28 -48 -39 -27 -9 -34 -9 -39 3 -6
16 15 48 26 41 4 -3 13 -1 21 4 14 8 40 3 40 -9z m-2895 -48 c42 -26 56 -43
36 -43 -5 0 -11 6 -14 14 -3 7 -23 22 -44 32 -22 11 -39 28 -41 39 -2 18 -1
18 8 3 5 -9 30 -29 55 -45z m-1308 31 c37 -8 70 -18 73 -21 9 -10 -115 9 -127
19 -7 6 -19 8 -28 5 -8 -4 -17 -2 -20 3 -9 14 24 12 102 -6z m1017 1 c-6 -16
-24 -21 -24 -7 0 11 11 22 21 22 5 0 6 -7 3 -15z m2576 -25 c0 -47 -6 -51 -21
-12 -7 15 -13 22 -16 14 -6 -15 -23 -6 -23 13 0 12 9 16 53 24 4 0 7 -17 7
-39z m-281 14 c-14 -17 -49 -18 -49 -1 0 6 13 12 30 13 24 1 28 -1 19 -12z
m-419 -9 c0 -8 -4 -15 -9 -15 -13 0 -22 16 -14 24 11 11 23 6 23 -9z m-2523
-31 c-9 -9 -28 6 -21 18 4 6 10 6 17 -1 6 -6 8 -13 4 -17z m3855 -46 c-20 -43
-20 -43 -19 -11 1 18 5 33 8 33 4 0 10 10 14 23 3 12 9 17 11 10 3 -6 -4 -31
-14 -55z m-3737 25 c6 -12 17 -28 24 -37 21 -25 -14 -21 -38 5 -11 12 -25 18
-31 14 -7 -4 -16 -1 -21 6 -13 21 -11 29 6 23 8 -4 15 -2 15 4 0 18 35 6 45
-15z m2425 23 c0 -3 -4 -8 -10 -11 -5 -3 -10 -1 -10 4 0 6 5 11 10 11 6 0 10
-2 10 -4z m-346 -21 c-4 -8 -10 -15 -15 -15 -4 0 -6 7 -3 15 4 8 10 15 15 15
4 0 6 -7 3 -15z m2253 9 c-3 -3 -12 -4 -19 -1 -8 3 -5 6 6 6 11 1 17 -2 13 -5z
m-2986 -14 c29 -6 56 -15 60 -21 4 -6 10 -43 14 -81 6 -63 10 -74 46 -113 22
-24 64 -62 94 -85 34 -26 56 -51 60 -69 4 -20 23 -39 66 -67 63 -40 79 -59 79
-91 -1 -16 -2 -16 -12 2 -13 24 -37 45 -95 86 -24 16 -49 42 -55 58 -7 16 -54
66 -104 110 l-91 80 -6 72 c-3 39 -8 73 -10 75 -8 8 -37 -8 -31 -17 3 -5 0 -9
-6 -9 -7 0 -10 -6 -8 -12 3 -7 -1 -19 -9 -26 -14 -14 -18 -52 -5 -52 4 0 6
-32 4 -70 -2 -49 2 -80 13 -101 12 -23 13 -34 5 -44 -8 -10 -7 -14 2 -18 8 -4
4 -8 -10 -13 -22 -6 -21 -9 35 -60 60 -56 94 -75 101 -56 5 17 126 53 163 49
52 -6 67 -16 74 -46 6 -29 65 -94 65 -73 0 7 5 12 10 12 6 0 10 -6 10 -14 0
-8 14 -23 30 -33 17 -9 30 -20 30 -24 0 -3 9 -17 21 -30 11 -13 18 -32 15 -42
-7 -29 4 -47 30 -47 13 0 24 -5 24 -10 0 -6 8 -13 18 -16 9 -4 41 -18 71 -33
39 -19 56 -22 59 -13 2 6 8 12 13 12 6 0 7 -5 4 -10 -4 -6 -2 -17 4 -24 15
-18 -16 -31 -36 -15 -11 10 -18 9 -30 -4 -15 -15 -15 -17 0 -23 9 -3 17 -10
17 -15 0 -5 -16 -1 -35 8 -33 16 -51 41 -21 30 8 -3 20 1 27 9 10 13 10 17 -2
25 -62 42 -103 45 -130 10 -17 -22 -20 -34 -14 -76 3 -28 13 -55 22 -62 15
-12 14 -13 -6 -13 -12 0 -32 -5 -43 -11 -13 -7 -24 -7 -30 -1 -7 7 -3 12 11
17 25 8 28 25 4 25 -12 0 -14 3 -7 8 7 4 11 33 10 72 0 36 3 72 7 81 6 13 1
19 -20 28 -15 6 -80 42 -143 80 -75 45 -119 66 -126 60 -6 -5 -35 -16 -64 -25
-50 -15 -51 -16 -35 -34 16 -18 15 -20 -24 -40 -23 -11 -41 -16 -41 -10 0 6
11 16 25 22 26 12 31 23 15 33 -20 13 -9 24 43 40 69 23 87 39 58 54 -12 7
-26 9 -31 6 -18 -11 -49 5 -43 21 4 11 0 15 -13 13 -11 -2 -35 13 -57 34 -22
21 -53 48 -71 62 -29 22 -36 23 -59 12 -26 -11 -27 -16 -27 -86 0 -59 -3 -72
-14 -68 -8 3 -17 1 -20 -6 -4 -7 -3 -1 0 13 4 14 9 51 11 83 4 47 9 60 30 75
14 9 39 29 56 45 31 26 31 28 13 42 -14 11 -18 26 -17 67 0 29 -3 67 -8 83 -7
29 -8 29 -15 8 -4 -13 -11 -23 -16 -23 -10 0 -1 33 29 107 l20 52 -39 12 c-34
10 -38 14 -29 30 11 22 18 23 90 9z m-1234 -21 c2 -8 -1 -20 -6 -28 -8 -12
-14 -12 -33 -4 -22 11 -22 12 -2 12 29 1 36 11 21 29 -10 13 -9 14 3 10 8 -2
16 -11 17 -19z m333 -13 c36 -32 41 -46 17 -46 -6 0 -8 3 -5 6 4 3 -10 21 -30
39 -21 19 -33 35 -28 35 5 0 26 -15 46 -34z m-512 5 c3 -8 -1 -12 -9 -9 -7 2
-15 10 -17 17 -3 8 1 12 9 9 7 -2 15 -10 17 -17z m2252 2 c0 -7 4 -13 8 -13 5
0 19 -9 32 -20 13 -11 18 -20 12 -20 -7 0 -12 -15 -12 -35 0 -19 -2 -35 -4
-35 -2 0 -11 -3 -19 -6 -24 -9 -39 29 -26 63 8 22 12 24 19 13 8 -13 10 -13
10 1 0 9 -7 19 -15 23 -8 3 -15 1 -15 -4 0 -6 -5 -10 -11 -10 -5 0 -7 5 -4 10
3 6 2 10 -4 10 -7 0 -8 29 -2 36 7 7 31 -3 31 -13z m1426 1 c22 -9 34 -19 28
-21 -11 -4 -84 24 -84 32 0 9 17 5 56 -11z m-2626 -4 c0 -5 -7 -10 -15 -10 -8
0 -15 5 -15 10 0 6 7 10 15 10 8 0 15 -4 15 -10z m-834 -34 c-1 -17 -7 -23
-23 -23 -13 0 -23 3 -23 7 0 6 35 35 46 39 1 1 1 -10 0 -23z m3368 11 c14 -8
23 -16 20 -19 -3 -3 6 -15 20 -25 19 -15 22 -23 13 -32 -8 -8 -7 -11 6 -11 9
0 16 -6 15 -12 -2 -8 14 -17 40 -22 23 -6 42 -14 42 -19 0 -5 -10 -7 -22 -3
-13 3 -38 6 -55 6 -27 0 -34 5 -40 28 -4 15 -6 32 -5 39 1 6 -16 27 -40 47
-43 37 -40 46 6 23z m-3537 -8 c13 -13 6 -39 -10 -39 -6 0 -7 3 -4 7 4 3 0 15
-10 25 -13 15 -14 18 -2 18 8 0 20 -5 26 -11z m1233 1 c0 -5 -5 -10 -11 -10
-5 0 -7 5 -4 10 3 6 8 10 11 10 2 0 4 -4 4 -10z m1525 -29 c-6 -34 -4 -39 16
-44 13 -4 20 -9 17 -12 -3 -3 -18 -3 -33 1 -25 6 -26 9 -20 43 7 38 13 51 21
51 3 0 3 -17 -1 -39z m-2117 -16 c-9 -9 -30 14 -23 25 6 9 10 8 17 -4 6 -10 8
-19 6 -21z m682 31 c0 -17 -14 -34 -25 -30 -17 7 -8 34 11 34 8 0 14 -2 14 -4z
m1554 -2 c23 -9 20 -24 -4 -24 -11 0 -20 7 -20 15 0 17 2 18 24 9z m-754 -38
c0 -19 3 -42 6 -50 5 -12 2 -15 -10 -10 -11 4 -16 19 -16 50 0 24 5 44 10 44
6 0 10 -15 10 -34z m2289 -9 c19 -28 27 -34 37 -26 10 8 18 7 30 -6 14 -14 15
-21 6 -36 -8 -13 -9 -19 -1 -19 13 0 1 -42 -15 -52 -27 -18 -36 -7 -36 43 0
42 -3 50 -17 47 -9 -2 -20 -14 -23 -28 l-6 -25 -17 32 c-9 18 -17 37 -17 43 0
14 37 13 43 -2 2 -7 8 -10 12 -6 4 4 -2 19 -14 34 -11 15 -21 22 -21 15 0 -6
-4 -11 -9 -11 -5 0 -7 9 -4 20 7 28 23 21 52 -23z m-1829 -26 c-1 -11 -9 -6
-25 14 -32 39 -32 55 0 25 14 -13 25 -31 25 -39z m1104 37 c-3 -13 -8 -25 -10
-27 -6 -6 -11 1 -18 27 -6 18 -4 22 14 22 18 0 20 -4 14 -22z m-3594 -4 c0 -2
-7 -4 -15 -4 -8 0 -15 4 -15 10 0 5 7 7 15 4 8 -4 15 -8 15 -10z m4240 9 c0
-5 -5 -15 -10 -23 -8 -12 -10 -11 -10 8 0 12 5 22 10 22 6 0 10 -3 10 -7z
m-4290 -18 c0 -8 -7 -15 -15 -15 -9 0 -12 6 -9 15 4 8 10 15 15 15 5 0 9 -7 9
-15z m1584 9 c23 -9 20 -23 -4 -17 -11 3 -20 9 -20 14 0 11 3 11 24 3z m2196
2 c0 -11 -19 -15 -25 -6 -3 5 1 10 9 10 9 0 16 -2 16 -4z m-3880 -36 c-10 -36
-19 -50 -30 -50 -5 0 -1 18 7 40 19 46 36 54 23 10z m3207 -11 c4 -21 15 -34
37 -45 l31 -14 -32 5 c-22 3 -33 0 -33 -8 0 -6 -7 -24 -14 -39 -16 -30 -2 -40
22 -16 9 9 12 8 12 -5 0 -13 -11 -16 -70 -16 -66 0 -70 2 -70 23 0 13 7 29 15
36 8 7 12 16 9 21 -3 5 2 9 12 9 23 0 65 47 58 65 -4 8 -1 15 5 15 6 0 14 -14
18 -31z m-2820 15 c-3 -3 -12 -4 -19 -1 -8 3 -5 6 6 6 11 1 17 -2 13 -5z
m1509 -23 c-12 -19 -24 -12 -19 10 4 13 9 17 15 11 6 -6 7 -15 4 -21z m69 19
c3 -5 1 -10 -4 -10 -6 0 -11 5 -11 10 0 6 2 10 4 10 3 0 8 -4 11 -10z m-1621
-24 c-6 -16 -24 -23 -24 -8 0 10 22 33 27 28 2 -2 1 -11 -3 -20z m3176 3 c9
-5 -8 -7 -47 -6 -46 1 -63 6 -63 16 0 10 11 12 48 6 26 -4 54 -11 62 -16z
m373 -4 c-10 -13 -25 -24 -33 -25 -9 0 -3 10 15 25 38 31 40 31 18 0z m-496 9
c-3 -3 -12 -4 -19 -1 -8 3 -5 6 6 6 11 1 17 -2 13 -5z m-3347 -13 c0 -5 -7
-11 -15 -15 -9 -3 -15 0 -15 9 0 8 7 15 15 15 8 0 15 -4 15 -9z m1616 -18
c-10 -10 -19 5 -10 18 6 11 8 11 12 0 2 -7 1 -15 -2 -18z m2047 -15 c29 -7 37
-13 33 -24 -3 -9 -9 -33 -12 -55 -4 -21 -8 -39 -9 -39 -1 0 -23 11 -48 25 -48
27 -85 71 -65 77 7 3 5 10 -6 20 -24 24 -20 26 27 15 23 -5 59 -14 80 -19z
m487 -3 c0 -14 -4 -25 -9 -25 -4 0 -6 11 -3 25 2 14 6 25 8 25 2 0 4 -11 4
-25z m-3814 -21 c-8 -62 -9 -191 -2 -202 9 -15 -11 -56 -35 -70 -15 -10 -19
-10 -19 0 0 7 -18 -6 -40 -27 -24 -23 -40 -48 -40 -62 0 -26 15 -31 24 -7 3 8
10 13 15 9 6 -3 15 4 21 15 6 11 15 18 19 15 5 -2 11 5 15 18 6 21 6 21 21 -7
8 -15 15 -39 15 -51 0 -19 -4 -22 -21 -18 -24 7 -39 -10 -39 -44 0 -14 -6 -23
-15 -23 -24 0 -92 -37 -107 -58 -14 -20 -58 -36 -58 -22 0 5 9 11 19 15 11 3
22 13 25 21 3 8 29 26 58 39 29 14 47 25 41 25 -7 0 -13 6 -13 14 0 7 -8 16
-18 18 -25 7 -18 64 10 95 l20 21 -24 5 c-18 3 -17 5 8 6 36 1 61 25 56 54 -2
11 1 17 7 13 18 -12 31 32 31 108 0 54 -4 76 -12 76 -7 0 -5 5 5 11 9 6 15 14
12 20 -7 11 2 29 16 29 5 0 7 -16 5 -36z m1214 26 c0 -5 -5 -10 -11 -10 -5 0
-7 5 -4 10 3 6 8 10 11 10 2 0 4 -4 4 -10z m146 -16 c17 -11 23 -22 18 -33 -3
-9 -7 -25 -8 -35 0 -11 -7 -21 -15 -24 -14 -5 -14 -4 5 57 4 14 0 21 -15 26
-12 3 -21 11 -21 16 0 13 7 11 36 -7z m2104 0 c0 -8 -5 -12 -10 -9 -6 4 -8 11
-5 16 9 14 15 11 15 -7z m-3882 -24 c3 -21 2 -22 -12 -11 -13 11 -16 11 -16
-1 0 -20 -28 -19 -35 1 -7 18 22 43 45 39 8 -2 17 -14 18 -28z m4372 21 c0 -5
-7 -11 -15 -15 -9 -3 -15 0 -15 9 0 8 7 15 15 15 8 0 15 -4 15 -9z m-3760 -27
c0 -8 -4 -14 -10 -14 -5 0 -10 9 -10 21 0 11 5 17 10 14 6 -3 10 -13 10 -21z
m740 -4 c8 -5 11 -10 5 -10 -5 0 -3 -4 5 -10 16 -10 14 -15 -16 -24 -26 -8
-59 16 -51 38 7 18 34 21 57 6z m-840 -15 c0 -8 -7 -15 -15 -15 -16 0 -20 12
-8 23 11 12 23 8 23 -8z m1430 5 c0 -13 -11 -13 -30 0 -12 8 -11 10 8 10 12 0
22 -4 22 -10z m885 -42 c-26 -23 -54 -43 -61 -44 -7 -1 -28 -13 -46 -27 -30
-22 -46 -26 -163 -32 -147 -8 -164 3 -24 16 51 5 96 14 100 20 5 8 8 8 13 0 4
-6 14 -11 21 -11 18 0 165 98 165 110 0 8 31 19 39 13 2 -1 -18 -22 -44 -45z
m562 30 c-3 -8 -6 -5 -6 6 -1 11 2 17 5 13 3 -3 4 -12 1 -19z m-2757 -3 c0
-17 -27 -32 -37 -21 -4 3 2 13 13 21 24 18 24 18 24 0z m577 -10 c12 -28 5
-36 -34 -41 -14 -1 -27 5 -33 16 -8 16 -5 22 17 34 37 20 36 20 50 -9z m888
-5 c3 -6 -5 -10 -19 -10 -19 0 -26 5 -26 20 0 17 3 19 19 10 11 -5 23 -15 26
-20z m294 14 c8 -7 -12 -24 -30 -24 -13 0 -19 7 -19 21 0 16 4 19 23 13 12 -3
24 -8 26 -10z m681 -5 c0 -11 5 -17 10 -14 6 3 10 1 10 -4 0 -6 -5 -11 -11
-11 -6 0 -9 -7 -5 -15 3 -8 1 -15 -3 -15 -5 0 -12 7 -15 16 -9 25 -7 64 4 64
6 0 10 -9 10 -21z m-30 -20 c0 -11 -4 -17 -10 -14 -5 3 -10 15 -10 26 0 11 5
17 10 14 6 -3 10 -15 10 -26z m1132 9 c-7 -7 -12 -8 -12 -2 0 14 12 26 19 19
2 -3 -1 -11 -7 -17z m403 2 c10 -11 13 -20 7 -20 -6 0 -14 5 -17 10 -3 6 -17
10 -31 10 -13 0 -24 5 -24 10 0 18 46 11 65 -10z m-2450 0 c3 -5 1 -10 -4 -10
-6 0 -11 5 -11 10 0 6 2 10 4 10 3 0 8 -4 11 -10z m1243 -9 c3 -8 -1 -12 -9
-9 -7 2 -15 10 -17 17 -3 8 1 12 9 9 7 -2 15 -10 17 -17z m-2276 -29 c-8 -2
-8 -9 0 -25 31 -60 31 -59 9 -52 -16 5 -21 2 -21 -10 0 -9 -6 -15 -12 -13 -18
6 -22 49 -7 59 8 4 14 16 15 26 3 58 4 60 16 39 8 -15 8 -21 0 -24z m1381 32
c18 -7 10 -44 -9 -44 -8 0 -14 10 -14 25 0 27 1 28 23 19z m1836 -20 c-6 -8
-9 -22 -6 -33 3 -15 -2 -20 -22 -24 -14 -2 -35 -7 -46 -11 -15 -6 -13 -2 8 16
15 13 27 28 27 33 0 4 7 17 16 26 19 21 41 14 23 -7z m506 16 c-3 -5 -11 -10
-16 -10 -6 0 -7 5 -4 10 3 6 11 10 16 10 6 0 7 -4 4 -10z m-4765 -20 c0 -13
-5 -18 -15 -14 -11 5 -12 9 -2 20 16 18 17 17 17 -6z m4160 -42 c0 -5 -5 -6
-11 -2 -6 3 -16 0 -21 -7 -8 -11 -8 -10 -4 4 3 10 6 31 6 45 l0 27 15 -29 c8
-15 15 -33 15 -38z m-805 30 c4 -13 7 -26 6 -30 -2 -18 27 -6 32 12 3 11 12
20 21 20 14 0 15 -4 6 -20 -14 -27 -39 -38 -81 -36 -36 2 -100 34 -68 35 8 1
19 -3 25 -9 5 -5 19 -7 32 -4 23 7 31 22 10 21 -7 0 -26 1 -43 2 l-30 2 30 14
c42 19 52 18 60 -7z m979 7 c3 -8 1 -15 -3 -15 -5 0 -11 7 -15 15 -3 8 -1 15
3 15 5 0 11 -7 15 -15z m-3724 -10 c-30 -17 -40 -18 -40 -6 0 10 22 18 50 19
8 1 4 -5 -10 -13z m1575 -5 c8 -13 -15 -13 -35 0 -12 8 -11 10 7 10 12 0 25
-4 28 -10z m915 -10 c0 -5 -4 -10 -10 -10 -5 0 -10 5 -10 10 0 6 5 10 10 10 6
0 10 -4 10 -10z m649 -22 c-1 -31 -1 -31 -8 -8 -5 14 -6 28 -4 33 9 15 13 6
12 -25z m681 0 c0 -6 -7 -5 -15 2 -8 7 -15 17 -15 22 0 6 7 5 15 -2 8 -7 15
-17 15 -22z m-3559 -5 c13 -14 17 -22 9 -18 -13 8 -13 7 -1 -8 17 -22 10 -31
-11 -14 -14 10 -34 67 -25 67 2 0 14 -12 28 -27z m2082 -10 c-26 -63 -43 -93
-54 -93 -5 0 -2 15 7 32 9 18 17 45 16 60 -1 24 7 31 40 37 4 0 0 -16 -9 -36z
m512 7 c0 -31 -21 -37 -35 -9 -10 17 -9 23 1 30 21 13 34 5 34 -21z m-1375 11
c0 -6 -4 -13 -10 -16 -5 -3 -10 1 -10 9 0 9 5 16 10 16 6 0 10 -4 10 -9z
m1462 -31 c6 0 2 -9 -10 -20 -12 -12 -22 -27 -22 -34 0 -8 -7 -19 -15 -26 -13
-11 -13 -14 2 -27 16 -13 16 -14 -9 -9 -22 5 -31 1 -44 -18 -8 -14 -12 -31 -8
-37 5 -8 3 -9 -6 -4 -8 5 -17 2 -24 -7 -6 -8 -19 -17 -28 -21 -14 -5 -18 -1
-18 14 0 15 5 19 15 15 8 -3 15 -2 15 3 0 4 12 21 26 36 24 26 25 30 10 40
-24 18 -19 25 13 19 23 -5 32 -1 45 18 9 13 18 40 20 59 6 47 6 47 16 22 5
-13 15 -23 22 -23z m-3368 15 c-11 -26 7 -38 28 -18 20 18 21 18 13 -7 -12
-41 -22 -44 -48 -14 -18 21 -22 31 -13 41 15 17 27 16 20 -2z m2850 9 c14 -5
14 -9 1 -35 -14 -25 -14 -28 0 -23 10 4 15 0 15 -10 0 -11 -9 -16 -30 -16 -30
0 -30 0 -15 29 10 21 11 31 3 33 -6 2 -8 10 -4 16 8 14 9 14 30 6z m-991 -34
c-7 -28 -13 -25 -13 6 0 14 4 23 9 20 5 -3 7 -15 4 -26z m1937 20 c0 -5 -4
-10 -10 -10 -5 0 -10 5 -10 10 0 6 5 10 10 10 6 0 10 -4 10 -10z m685 0 c-3
-5 -17 -10 -31 -10 -13 0 -24 5 -24 10 0 6 14 10 31 10 17 0 28 -4 24 -10z
m-4096 -41 c-20 -12 -22 -4 -7 20 11 18 14 19 16 5 2 -9 -2 -20 -9 -25z m3563
-1 c30 -30 15 -33 -17 -4 -16 15 -32 26 -36 26 -5 0 -9 5 -9 10 0 14 34 -4 62
-32z m-2901 19 c-1 -12 -15 -9 -19 4 -3 6 1 10 8 8 6 -3 11 -8 11 -12z m3179
-2 c7 -9 11 -18 8 -20 -9 -10 -35 6 -35 20 0 19 11 19 27 0z m-3730 -11 c0 -2
-7 -4 -15 -4 -8 0 -15 4 -15 10 0 5 7 7 15 4 8 -4 15 -8 15 -10z m150 -6 c0
-7 -4 -19 -9 -27 -8 -12 -12 -12 -25 -2 -9 8 -16 18 -16 23 0 6 6 6 14 -1 10
-9 15 -8 20 4 7 18 16 20 16 3z m3660 2 c0 -5 -4 -10 -9 -10 -6 0 -13 5 -16
10 -3 6 1 10 9 10 9 0 16 -4 16 -10z m-3590 -21 c0 -11 -3 -11 -24 -3 -23 9
-20 23 4 17 11 -3 20 -9 20 -14z m641 -30 c-20 -17 -24 -17 -38 -4 -8 9 -12
22 -9 30 4 12 11 12 37 3 l32 -11 -22 -18z m-804 -1 c-3 -7 -5 -2 -5 12 0 14
2 19 5 13 2 -7 2 -19 0 -25z m2994 15 c12 -15 12 -16 -3 -10 -10 3 -18 2 -18
-3 0 -6 -13 -10 -30 -10 -16 0 -30 5 -30 10 0 6 9 10 19 10 11 0 23 5 26 10 9
15 21 12 36 -7z m-2701 -3 c-19 -13 -30 -13 -30 0 0 6 10 10 23 10 18 0 19 -2
7 -10z m350 0 c0 -5 -10 -10 -22 -10 -19 0 -20 2 -8 10 19 13 30 13 30 0z
m2377 -12 c-3 -8 -6 -5 -6 6 -1 11 2 17 5 13 3 -3 4 -12 1 -19z m555 -15 c-15
-29 -16 -163 -1 -163 10 0 10 -3 1 -12 -32 -32 14 -84 83 -93 39 -5 46 -4 33
5 -29 18 -22 63 14 94 17 14 38 26 45 26 22 0 -8 -39 -32 -42 -26 -4 -36 -67
-11 -69 19 -2 26 -4 46 -12 21 -9 50 -3 59 12 5 7 12 11 17 9 5 -1 10 5 12 15
2 9 -1 17 -7 17 -6 0 -11 6 -11 14 0 9 7 12 21 9 16 -4 20 -12 16 -29 -3 -20
0 -24 19 -24 12 0 26 5 30 11 4 8 9 7 14 -2 9 -14 50 -20 50 -7 0 4 7 8 15 8
8 0 15 6 15 14 0 8 5 18 12 22 8 5 9 0 6 -14 -4 -12 -5 -22 -3 -22 1 0 19 14
40 30 21 17 41 28 44 25 8 -9 -48 -52 -96 -75 -47 -23 -74 -25 -90 -9 -13 13
-73 3 -73 -12 0 -5 -8 -9 -18 -9 -10 0 -23 -5 -29 -11 -8 -8 -17 -7 -31 2 -28
18 -35 8 -36 -51 0 -27 -2 -50 -4 -50 -20 0 -47 66 -31 76 5 3 9 -1 9 -8 0 -9
3 -9 10 2 21 32 12 40 -45 36 -30 -3 -57 0 -60 5 -4 5 -14 5 -26 -1 -22 -13
-24 -9 -33 64 -4 29 -13 54 -24 62 -16 13 -16 13 1 14 20 0 24 45 5 54 -10 5
-10 7 0 12 6 3 12 16 12 29 0 25 33 90 38 75 2 -5 -1 -17 -6 -27z m-4142 4 c0
-7 -12 -13 -27 -14 -16 0 -20 1 -10 4 9 2 17 11 17 19 0 8 5 12 10 9 6 -3 10
-12 10 -18z m3830 2 c10 -18 9 -20 -7 -17 -10 2 -19 11 -21 21 -5 24 15 21 28
-4z m370 11 c0 -5 -8 -10 -17 -10 -15 0 -16 2 -3 10 19 12 20 12 20 0z m355 0
c3 -5 1 -10 -4 -10 -6 0 -11 5 -11 10 0 6 2 10 4 10 3 0 8 -4 11 -10z m-3685
-25 c0 -9 -9 -15 -22 -14 -17 1 -19 2 -5 6 9 2 17 9 17 14 0 5 2 9 5 9 3 0 5
-7 5 -15z m3917 -7 c-3 -8 -6 -5 -6 6 -1 11 2 17 5 13 3 -3 4 -12 1 -19z
m-3687 2 c0 -5 -2 -10 -4 -10 -3 0 -8 5 -11 10 -3 6 -1 10 4 10 6 0 11 -4 11
-10z m1577 -17 c-8 -7 -37 9 -31 19 3 5 12 4 20 -3 8 -6 13 -14 11 -16z
m-1389 -19 c-10 -10 -28 6 -28 24 0 15 1 15 17 -1 9 -9 14 -19 11 -23z m1074
30 c4 -3 -1 -19 -10 -35 -12 -20 -25 -29 -42 -28 -24 0 -24 1 -4 9 12 5 24 20
28 34 6 25 16 32 28 20z m1138 -9 c0 -8 -4 -15 -10 -15 -5 0 -10 7 -10 15 0 8
5 15 10 15 6 0 10 -7 10 -15z m21 -12 c-8 -15 -10 -15 -11 -2 0 17 10 32 18
25 2 -3 -1 -13 -7 -23z m-1555 -10 c-4 -16 -12 -46 -19 -68 -10 -37 -11 -38
-15 -12 -2 15 -8 27 -13 27 -15 0 -10 30 6 36 8 4 12 11 9 16 -4 6 0 14 7 19
24 15 31 10 25 -18z m1600 1 c-11 -7 -22 -12 -25 -9 -2 3 4 12 15 19 10 8 21
12 24 9 3 -2 -4 -11 -14 -19z m-3586 6 c0 -5 -2 -10 -4 -10 -3 0 -8 5 -11 10
-3 6 -1 10 4 10 6 0 11 -4 11 -10z m899 -18 c-12 -2 -26 2 -33 9 -8 9 -7 11 6
6 10 -3 20 -1 24 5 4 7 9 6 15 -3 6 -10 2 -15 -12 -17z m2530 -29 c11 -29 18
-53 15 -53 -6 0 -44 88 -44 102 0 18 7 6 29 -49z m-2193 20 c-10 -10 -19 5
-10 18 6 11 8 11 12 0 2 -7 1 -15 -2 -18z m611 12 c-4 -8 -2 -17 2 -20 12 -7
21 -45 10 -45 -4 0 -17 10 -29 22 -18 20 -19 23 -3 40 20 22 27 23 20 3z
m2942 -17 c0 -13 -3 -17 -6 -10 -2 6 -12 12 -21 13 -14 0 -13 2 3 9 11 5 21 9
23 9 1 1 2 -9 1 -21z m-3984 2 c3 -5 1 -10 -4 -10 -6 0 -11 5 -11 10 0 6 2 10
4 10 3 0 8 -4 11 -10z m1875 -10 c-19 -13 -30 -13 -30 0 0 6 10 10 23 10 18 0
19 -2 7 -10z m-2060 -4 c0 -3 -4 -8 -10 -11 -5 -3 -10 -1 -10 4 0 6 5 11 10
11 6 0 10 -2 10 -4z m2480 -4 c0 -5 -8 -17 -19 -26 -18 -16 -18 -16 -18 9 0
18 5 25 18 25 11 0 19 -4 19 -8z m1540 -2 c8 -5 12 -12 9 -15 -8 -8 -39 5 -39
16 0 11 11 11 30 -1z m-300 -10 c0 -5 -2 -10 -4 -10 -3 0 -8 5 -11 10 -3 6 -1
10 4 10 6 0 11 -4 11 -10z m-2020 -10 c0 -5 -7 -10 -15 -10 -8 0 -19 -9 -25
-21 -7 -11 -14 -18 -17 -15 -11 11 20 56 39 56 10 0 18 -4 18 -10z m-930 -10
c0 -5 -7 -10 -16 -10 -8 0 -12 5 -9 10 3 6 10 10 16 10 5 0 9 -4 9 -10z m-280
-21 c-6 -11 -18 -23 -26 -26 -8 -3 -14 -12 -14 -20 0 -11 6 -10 29 6 16 12 35
21 43 21 21 -1 -32 -38 -80 -56 -36 -15 -42 -21 -37 -38 14 -48 21 -131 15
-166 -6 -30 -4 -37 7 -33 9 4 11 0 7 -11 -3 -9 -12 -16 -20 -16 -8 0 -14 -9
-14 -20 0 -11 -5 -20 -11 -20 -6 0 -8 8 -5 18 24 80 28 200 5 187 -4 -3 -7 12
-6 34 2 48 2 47 -44 56 -33 6 -37 4 -49 -24 -7 -17 -19 -31 -27 -31 -19 0 -83
-52 -83 -67 0 -7 -4 -13 -10 -13 -5 0 -10 6 -10 12 0 16 78 88 95 88 7 0 18
13 24 28 16 38 54 59 124 67 41 5 60 13 68 26 5 11 14 19 20 19 6 0 6 -8 -1
-21z m227 15 c-3 -3 -12 -4 -19 -1 -8 3 -5 6 6 6 11 1 17 -2 13 -5z m1332 -35
c-18 -11 -22 -5 -14 22 7 20 8 21 17 4 8 -12 7 -20 -3 -26z m-1755 -24 c-11
-8 -22 -15 -26 -15 -16 0 -7 19 14 35 28 19 39 0 12 -20z m2341 25 c3 -5 1
-10 -4 -10 -6 0 -11 5 -11 10 0 6 2 10 4 10 3 0 8 -4 11 -10z m1522 4 c-3 -3
-12 -4 -19 -1 -8 3 -5 6 6 6 11 1 17 -2 13 -5z m-1947 -19 c23 -13 23 -14 4
-15 -11 0 -29 7 -40 15 -26 19 1 20 36 0z m1030 5 c0 -5 -2 -10 -4 -10 -3 0
-8 5 -11 10 -3 6 -1 10 4 10 6 0 11 -4 11 -10z m-1974 -57 c-5 -6 -56 27 -56
36 0 19 13 17 36 -6 14 -14 23 -27 20 -30z m1339 37 c11 -5 14 -9 8 -9 -8 -1
-13 -14 -13 -31 0 -16 -4 -30 -10 -30 -5 0 -10 11 -10 24 0 13 -3 31 -6 40 -7
18 1 19 31 6z m283 -18 c2 -7 -2 -10 -12 -6 -9 3 -16 11 -16 16 0 13 23 5 28
-10z m-3133 -2 c3 -5 -1 -10 -9 -10 -9 0 -16 5 -16 10 0 6 4 10 9 10 6 0 13
-4 16 -10z m770 0 c-3 -5 3 -10 14 -10 12 0 21 5 21 10 0 6 5 10 10 10 6 0 10
-9 10 -20 0 -21 -16 -25 -57 -14 -21 6 -22 34 -1 34 5 0 6 -4 3 -10z m985 4
c0 -3 -9 -17 -19 -30 -15 -19 -18 -34 -14 -62 l6 -37 -25 30 c-21 24 -23 32
-13 38 8 4 12 14 9 22 -4 10 0 15 10 15 9 0 19 7 22 15 6 14 24 21 24 9z m832
-48 c24 -36 44 -53 73 -63 37 -13 102 -11 141 4 8 3 14 1 14 -5 0 -17 -106
-32 -140 -20 -23 8 -38 7 -56 -1 -23 -10 -25 -9 -20 7 4 11 -2 29 -12 43 -27
34 -56 92 -44 88 6 -2 25 -26 44 -53z m208 44 c13 -8 13 -10 -2 -10 -9 0 -25
-3 -35 -7 -16 -6 -16 -5 -4 10 16 20 20 20 41 7z m484 -15 c-8 -21 -34 -26
-84 -16 l-45 9 47 1 c56 1 80 9 71 24 -3 6 -1 7 5 3 6 -4 9 -13 6 -21z m-1044
-15 c0 -30 -6 -35 -34 -24 -14 5 -14 9 2 30 23 32 32 30 32 -6z m1752 8 c-6
-6 -15 -8 -19 -4 -4 4 -1 11 7 16 8 5 17 7 19 4 3 -2 -1 -10 -7 -16z m-3962
-8 c0 -5 -4 -10 -10 -10 -5 0 -10 5 -10 10 0 6 5 10 10 10 6 0 10 -4 10 -10z
m-55 -10 c18 -8 17 -9 -7 -9 -16 -1 -28 4 -28 9 0 12 8 12 35 0z m795 0 c12
-8 11 -10 -7 -10 -12 0 -25 5 -28 10 -8 13 15 13 35 0z m435 0 c3 -5 1 -10 -4
-10 -6 0 -11 5 -11 10 0 6 2 10 4 10 3 0 8 -4 11 -10z m97 -34 c13 -19 9 -26
-18 -26 -15 0 -23 4 -19 10 4 6 1 18 -7 27 -11 14 -10 15 12 8 14 -4 28 -13
32 -19z m2388 3 c0 -6 -4 -7 -10 -4 -5 3 -10 11 -10 16 0 6 5 7 10 4 6 -3 10
-11 10 -16z m-3870 -18 c0 -11 -4 -23 -10 -26 -5 -3 -10 1 -10 9 0 9 -6 16
-12 16 -9 0 -8 4 2 10 22 14 30 12 30 -9z m57 -18 c-3 -2 -16 1 -29 8 l-23 13
25 6 c23 6 41 -12 27 -27z m2157 -44 c7 -72 4 -101 -8 -88 -9 10 -17 169 -8
169 5 0 13 -36 16 -81z m-1933 -50 c24 -34 24 -38 -1 -32 -11 3 -20 14 -20 24
0 11 -6 19 -13 19 -9 0 -11 13 -9 43 5 65 16 78 20 23 2 -28 12 -61 23 -77z
m3224 111 c-3 -6 1 -13 9 -16 25 -10 19 -26 -6 -18 -13 3 -24 8 -26 9 -6 5 11
35 20 35 5 0 6 -5 3 -10z m748 -30 c-6 -22 -23 -38 -23 -21 0 17 12 41 20 41
5 0 6 -9 3 -20z m167 4 c0 -11 -5 -14 -16 -10 -9 3 -18 6 -20 6 -3 0 -2 5 1
10 10 16 35 12 35 -6z m-1750 0 c0 -2 -11 -9 -25 -14 -16 -6 -23 -14 -19 -25
3 -8 1 -15 -6 -15 -6 0 -8 5 -5 10 3 6 -1 10 -9 10 -18 0 -22 26 -6 32 18 5
70 7 70 2z m1680 -3 c0 -5 3 -16 6 -24 4 -12 0 -14 -15 -10 -24 6 -23 5 -15
27 7 17 24 22 24 7z m-2190 -41 c0 -14 -14 -12 -28 2 -19 19 -14 30 8 18 11
-6 20 -15 20 -20z m1780 3 c0 -10 -6 -13 -16 -9 -8 3 -12 2 -9 -4 3 -6 1 -10
-4 -10 -15 0 -14 23 1 38 14 14 28 6 28 -15z m-940 2 c10 -12 10 -15 -3 -15
-8 0 -20 7 -27 15 -10 12 -10 15 3 15 8 0 20 -7 27 -15z m-1897 -6 c-9 -9 -35
-13 -73 -10 -39 2 -8 16 40 17 23 1 38 -2 33 -7z m212 -18 c0 -35 -17 -56 -39
-48 -22 9 -20 37 2 37 16 1 16 1 0 11 -27 15 -22 29 10 29 23 0 27 -4 27 -29z
m676 -51 c5 0 9 5 9 12 0 6 7 5 18 -5 14 -13 21 -14 30 -5 9 9 12 9 13 0 1 -7
2 -18 3 -24 1 -7 11 -13 23 -13 26 0 37 -10 29 -24 -5 -7 -20 -2 -44 13 -41
27 -129 40 -124 19 1 -7 -3 -13 -9 -13 -7 0 -9 10 -7 25 4 20 -1 30 -23 46
-16 11 -29 25 -29 30 0 5 23 -6 51 -26 28 -19 55 -35 60 -35z m1991 35 c2 -19
1 -35 -3 -35 -4 0 -9 -7 -11 -16 -2 -13 -7 -12 -25 6 -13 11 -23 25 -23 31 0
6 8 3 18 -7 16 -17 17 -16 20 19 4 47 19 48 24 2z m-124 -1 c7 -2 11 -8 8 -13
-8 -12 -47 -2 -65 16 -11 12 -9 13 15 8 16 -4 35 -9 42 -11z m307 5 c11 -17
-1 -21 -15 -4 -8 9 -8 15 -2 15 6 0 14 -5 17 -11z m-2324 -16 c12 -15 12 -16
-3 -10 -9 3 -22 -1 -29 -9 -6 -8 -14 -12 -17 -9 -4 4 26 45 33 45 2 0 9 -8 16
-17z m2189 2 c0 -8 -4 -15 -10 -15 -5 0 -7 7 -4 15 4 8 8 15 10 15 2 0 4 -7 4
-15z m-3276 -21 c9 -24 7 -28 -9 -14 -17 14 -20 30 -6 30 5 0 12 -7 15 -16z
m136 6 c0 -5 -7 -10 -16 -10 -8 0 -12 5 -9 10 3 6 10 10 16 10 5 0 9 -4 9 -10z
m247 -30 c-1 -22 -12 -26 -23 -9 -3 6 0 15 7 20 18 12 18 12 16 -11z m2788
-17 c0 -1 -10 0 -22 3 -13 4 -19 12 -17 19 4 11 9 10 23 -3 10 -9 17 -18 16
-19z m-2623 -20 c11 -13 3 -33 -14 -33 -5 0 -8 6 -5 14 3 7 1 18 -4 23 -5 5
-6 18 -2 29 7 18 8 18 11 -1 2 -11 9 -25 14 -32z m-1272 27 c0 -5 -7 -10 -15
-10 -8 0 -15 5 -15 10 0 6 7 10 15 10 8 0 15 -4 15 -10z m2891 -52 c6 -12 6
-18 0 -18 -10 0 -41 51 -41 67 1 9 26 -22 41 -49z m-2756 30 c14 -6 25 -16 25
-21 0 -5 -11 -2 -24 7 -17 11 -26 12 -28 4 -3 -7 -10 -8 -17 -4 -11 7 -11 10
0 17 17 11 14 11 44 -3z m1891 -4 c19 -15 19 -15 -1 -6 -11 5 -27 12 -35 15
-13 5 -13 6 1 6 8 1 24 -6 35 -15z m2061 -19 c-4 -8 -11 -15 -17 -15 -7 0 -7
6 0 21 13 23 26 19 17 -6z m114 -8 c-8 -8 -11 -7 -11 4 0 20 13 34 18 19 3 -7
-1 -17 -7 -23z m-3355 -4 c-8 -8 -36 5 -36 17 0 7 6 7 21 0 11 -7 18 -14 15
-17z m3044 17 c0 -5 -2 -10 -4 -10 -3 0 -8 5 -11 10 -3 6 -1 10 4 10 6 0 11
-4 11 -10z m-2760 -15 c7 -9 11 -17 8 -20 -2 -2 -12 4 -21 15 -9 11 -13 20 -8
20 5 0 14 -7 21 -15z m939 1 c10 -12 8 -13 -8 -9 -12 3 -18 9 -15 14 7 12 10
11 23 -5z m93 -18 c22 -22 23 -28 4 -28 -8 0 -26 10 -40 23 -24 22 -24 23 -3
23 12 0 29 -8 39 -18z m628 2 c0 -25 -32 -27 -51 -2 -11 14 -11 15 1 5 19 -17
30 -16 30 2 0 8 5 15 10 15 6 0 10 -9 10 -20z m1213 1 c3 -15 -2 -20 -22 -24
-34 -7 -38 -1 -16 23 23 25 31 25 38 1z m-3174 -7 c12 -12 -8 -10 -34 2 l-30
14 30 -6 c16 -3 32 -8 34 -10z m-391 -12 c2 -7 -3 -12 -12 -12 -9 0 -16 7 -16
16 0 17 22 14 28 -4z m172 -19 c0 -7 -9 -13 -20 -13 -23 0 -24 4 -9 32 9 17
13 18 20 7 5 -8 9 -20 9 -26z m1080 23 c0 -8 -4 -18 -10 -21 -5 -3 -10 3 -10
14 0 12 5 21 10 21 6 0 10 -6 10 -14z m993 -6 c-4 -16 -13 -20 -47 -18 -40 1
-40 1 -6 5 19 3 39 11 43 19 11 20 16 17 10 -6z m-2163 -5 c-7 -9 -15 -13 -17
-11 -7 7 7 26 19 26 6 0 6 -6 -2 -15z m917 -7 c-3 -8 -6 -5 -6 6 -1 11 2 17 5
13 3 -3 4 -12 1 -19z m2668 -18 c4 -17 14 -34 23 -39 25 -12 100 -13 123 -1
13 8 19 7 19 0 0 -6 -11 -16 -25 -22 -14 -6 -25 -14 -25 -18 0 -13 -69 -3 -94
14 -32 21 -46 20 -46 -1 0 -28 -15 -44 -33 -37 -15 5 -15 8 3 31 11 14 20 36
20 49 0 55 24 72 35 24z m-3430 10 c-3 -5 -11 -10 -16 -10 -6 0 -7 5 -4 10 3
6 11 10 16 10 6 0 7 -4 4 -10z m2785 -63 c0 -6 -9 5 -20 26 -26 48 -26 62 0
19 11 -18 20 -38 20 -45z m-1250 56 c0 -18 -15 -29 -36 -25 -34 6 -30 27 6 27
17 0 30 -1 30 -2z m93 0 c-13 -2 -35 -2 -50 0 -16 2 -5 4 22 4 28 0 40 -2 28
-4z m195 0 c-10 -2 -26 -2 -35 0 -10 3 -2 5 17 5 19 0 27 -2 18 -5z m-1858
-13 c0 -5 -5 -10 -11 -10 -5 0 -7 5 -4 10 3 6 8 10 11 10 2 0 4 -4 4 -10z
m3358 -6 c-11 -11 -23 -14 -35 -9 -16 7 -15 9 7 15 40 12 45 11 28 -6z m-3434
-9 c4 -10 -1 -15 -14 -15 -13 0 -18 5 -14 15 4 8 10 15 14 15 4 0 10 -7 14
-15z m1676 -42 c0 -7 -4 -13 -10 -13 -5 0 -10 8 -11 18 0 14 -2 14 -9 -3 -7
-18 -9 -18 -15 -3 -4 10 -1 23 6 31 12 12 15 12 26 -2 7 -9 13 -22 13 -28z
m1102 25 c-7 -7 -12 -8 -12 -2 0 14 12 26 19 19 2 -3 -1 -11 -7 -17z m-1893
-6 c-7 -3 -17 -10 -21 -16 -4 -6 -10 -7 -14 -3 -12 11 16 36 34 30 13 -6 13
-7 1 -11z m1858 2 c3 -8 0 -21 -7 -27 -10 -9 -12 -9 -7 4 3 9 0 22 -6 28 -8 8
-8 11 1 11 7 0 15 -7 19 -16z m613 -9 c0 -7 6 -18 13 -22 7 -4 18 -20 24 -35
8 -19 17 -26 28 -22 8 3 15 1 15 -5 0 -6 -6 -11 -14 -11 -17 0 -31 -33 -17
-38 6 -2 11 -7 11 -12 0 -8 -31 -13 -130 -24 -39 -5 -41 -4 -12 3 19 5 39 14
45 20 6 6 17 11 25 11 44 0 52 63 12 98 -21 17 -27 52 -10 52 6 0 10 -7 10
-15z m-420 -20 c0 -8 -6 -15 -14 -15 -8 0 -16 -6 -19 -12 -2 -8 -8 -9 -13 -4
-5 5 -4 11 4 13 7 3 18 11 25 19 15 17 17 17 17 -1z m-3385 -36 c20 -6 2 -7
-57 -3 l-87 5 -25 -38 c-42 -64 -63 -86 -74 -79 -7 4 -14 -3 -17 -17 -4 -14
-17 -29 -31 -36 -19 -8 -24 -18 -24 -46 0 -19 -3 -35 -8 -35 -4 0 -6 20 -4 45
3 38 8 46 27 51 16 4 25 14 27 32 2 15 8 26 15 25 16 -4 54 33 81 79 l22 36
63 -5 c34 -3 76 -9 92 -14z m2133 -12 c3 -13 -4 -17 -25 -16 -15 0 -22 3 -15
6 6 2 12 11 12 20 0 20 24 11 28 -10z m1197 -7 c-3 -5 -11 -10 -16 -10 -6 0
-7 5 -4 10 3 6 11 10 16 10 6 0 7 -4 4 -10z m725 -5 c-7 -9 -15 -13 -17 -11
-7 7 7 26 19 26 6 0 6 -6 -2 -15z m-962 -7 c-2 -6 -10 -14 -16 -16 -7 -2 -10
2 -6 12 7 18 28 22 22 4z m-166 -33 c6 -28 -6 -34 -16 -9 -8 22 -7 34 3 34 5
0 11 -11 13 -25z m1088 21 c0 -2 -7 -6 -15 -10 -8 -3 -15 -1 -15 4 0 6 7 10
15 10 8 0 15 -2 15 -4z m-2005 -16 c3 -5 1 -10 -4 -10 -6 0 -11 5 -11 10 0 6
2 10 4 10 3 0 8 -4 11 -10z m191 -37 c-1 -2 -19 6 -39 16 -20 10 -34 21 -31
24 4 3 21 -4 39 -16 19 -12 32 -23 31 -24z m1719 37 c-3 -5 -11 -10 -16 -10
-6 0 -7 5 -4 10 3 6 11 10 16 10 6 0 7 -4 4 -10z m-695 -4 c0 -2 -8 -10 -17
-17 -16 -13 -17 -12 -4 4 13 16 21 21 21 13z m-1525 -22 c-16 -8 -33 -21 -37
-27 -5 -8 -8 -9 -8 -1 0 14 40 43 60 43 8 1 2 -6 -15 -15z m2295 1 c10 -12 10
-15 -4 -15 -9 0 -16 7 -16 15 0 8 2 15 4 15 2 0 9 -7 16 -15z m-690 -5 c0 -5
-4 -10 -10 -10 -5 0 -10 5 -10 10 0 6 5 10 10 10 6 0 10 -4 10 -10z m-1569
-43 c-8 -8 -11 -5 -11 9 0 27 14 41 18 19 2 -9 -1 -22 -7 -28z m219 12 c0 -12
-4 -11 -35 3 -35 16 -31 29 5 17 17 -6 30 -15 30 -20z m300 21 c0 -5 -5 -10
-11 -10 -5 0 -7 5 -4 10 3 6 8 10 11 10 2 0 4 -4 4 -10z m735 -11 c0 -7 -8
-15 -17 -17 -12 -2 -15 2 -11 18 6 23 28 22 28 -1z m215 1 c0 -5 -4 -10 -10
-10 -5 0 -10 5 -10 10 0 6 5 10 10 10 6 0 10 -4 10 -10z m1507 -21 c-3 -10 4
-25 14 -35 10 -9 16 -21 13 -26 -4 -6 -10 -5 -15 3 -8 12 -11 11 -19 -1 -7
-11 -5 -16 5 -18 8 -2 15 -8 15 -13 0 -6 -10 -7 -22 -3 -31 9 -33 11 -18 29
10 12 10 21 2 40 -6 14 -9 31 -6 39 8 21 37 7 31 -15z m-1344 7 c3 -8 -4 -21
-18 -30 -31 -20 -46 -21 -18 -1 13 9 20 22 17 30 -4 8 -2 15 4 15 5 0 12 -6
15 -14z m-1716 -28 c-3 -8 -6 -5 -6 6 -1 11 2 17 5 13 3 -3 4 -12 1 -19z m203
12 c0 -5 -4 -10 -10 -10 -5 0 -10 5 -10 10 0 6 5 10 10 10 6 0 10 -4 10 -10z
m1330 -5 c0 -8 -4 -15 -10 -15 -5 0 -7 7 -4 15 4 8 8 15 10 15 2 0 4 -7 4 -15z
m638 4 c-2 -6 -8 -10 -13 -10 -5 0 -11 4 -13 10 -2 6 4 11 13 11 9 0 15 -5 13
-11z m-2105 -23 c3 -7 0 -19 -6 -26 -9 -10 -7 -11 13 -5 34 10 32 10 60 1 43
-15 56 -60 20 -71 -15 -5 -19 -12 -14 -27 6 -20 6 -20 -14 0 -11 11 -25 21
-32 24 -10 3 -9 11 5 31 21 32 15 43 -13 28 -15 -8 -29 -7 -56 4 -42 18 -48
30 -10 21 22 -6 25 -4 19 14 -7 23 19 29 28 6z m687 0 c0 -2 -8 -10 -17 -17
-16 -13 -17 -12 -4 4 13 16 21 21 21 13z m500 -14 c0 -12 -23 -32 -37 -32 -17
0 -12 23 7 32 21 9 30 9 30 0z m387 2 c-3 -3 -12 -4 -19 -1 -8 3 -5 6 6 6 11
1 17 -2 13 -5z m635 -16 c-7 -7 -12 -8 -12 -2 0 14 12 26 19 19 2 -3 -1 -11
-7 -17z m-759 -49 c-3 -61 13 -112 39 -122 8 -3 7 -6 -4 -6 -22 -1 -44 33 -52
81 -4 20 -13 39 -21 42 -8 3 -15 10 -15 16 0 6 4 8 10 5 5 -3 15 5 22 19 18
41 24 31 21 -35z m-1028 36 c0 -17 -51 -17 -65 0 -12 15 -10 16 26 13 21 -2
39 -7 39 -13z m155 5 c0 -5 -4 -10 -10 -10 -5 0 -10 5 -10 10 0 6 5 10 10 10
6 0 10 -4 10 -10z m1122 -7 c25 -22 23 -31 -7 -25 -15 2 -25 0 -25 -7 0 -6 -9
-11 -20 -11 -13 0 -20 7 -20 20 0 18 10 25 33 21 4 0 7 4 7 9 0 15 11 12 32
-7z m438 3 c0 -9 -7 -12 -20 -9 -11 3 -17 9 -14 14 8 14 34 10 34 -5z m-1510
-6 c-8 -5 -19 -10 -25 -10 -5 0 -3 5 5 10 8 5 20 10 25 10 6 0 3 -5 -5 -10z
m160 0 c0 -5 -5 -10 -11 -10 -5 0 -7 5 -4 10 3 6 8 10 11 10 2 0 4 -4 4 -10z
m1606 -38 c-12 -11 -18 7 -10 30 l8 23 4 -23 c2 -13 1 -26 -2 -30z m-490 7 c3
-5 -2 -9 -10 -9 -8 0 -18 5 -22 12 -5 7 -10 4 -15 -10 -5 -12 -13 -22 -19 -22
-7 0 -8 6 -2 18 5 9 7 23 5 29 -3 10 3 10 26 2 17 -6 34 -15 37 -20z m-1416
-9 c0 -10 -9 -24 -20 -30 -11 -6 -20 -19 -20 -30 0 -10 -5 -22 -10 -25 -7 -4
6 -25 30 -51 22 -24 45 -55 50 -69 10 -25 43 -34 55 -15 9 15 45 32 45 21 0
-5 -23 -26 -51 -46 l-52 -37 23 -21 c16 -16 24 -18 27 -10 4 10 9 10 24 -1 26
-18 60 -10 52 12 -5 11 -2 14 9 10 14 -6 42 16 45 36 2 16 36 31 41 18 2 -7
15 -12 28 -12 13 0 41 -10 62 -23 20 -13 92 -50 159 -82 110 -52 126 -57 149
-46 23 10 30 8 77 -31 74 -60 109 -97 102 -108 -10 -16 -35 -12 -29 4 4 9 -19
34 -61 69 -61 50 -70 54 -92 44 -21 -9 -37 -4 -123 38 l-99 49 -40 -37 c-44
-40 -61 -46 -61 -21 0 8 4 13 8 10 5 -3 22 8 37 24 33 34 32 35 -52 80 -44 23
-45 23 -79 5 -42 -22 -43 -39 -4 -62 29 -16 39 -33 22 -33 -4 0 -23 11 -42 25
-31 23 -50 25 -50 4 0 -5 7 -9 15 -9 24 0 17 -16 -12 -30 l-28 -13 43 -8 c42
-8 103 -60 80 -68 -6 -2 -15 4 -20 12 -5 9 -15 14 -23 11 -9 -4 -15 0 -15 10
0 10 -8 16 -22 16 -19 0 -23 -6 -24 -35 0 -19 -3 -37 -6 -41 -7 -7 -48 32 -48
45 0 5 -6 12 -12 14 -7 3 -2 6 11 6 16 1 22 -3 18 -13 -4 -10 -1 -13 9 -9 18
7 17 13 -5 41 -22 25 -41 29 -41 7 0 -8 -9 -15 -20 -15 -11 0 -20 5 -20 10 0
6 7 10 15 10 8 0 15 7 15 15 0 8 7 15 15 15 9 0 12 6 9 15 -4 8 -14 15 -24 15
-10 0 -23 -7 -30 -15 -7 -8 -19 -15 -27 -15 -10 0 -7 -11 12 -43 26 -46 30
-57 18 -57 -9 0 -67 100 -61 104 1 1 16 7 31 14 31 13 34 44 4 50 -12 2 -15
-1 -11 -12 4 -10 1 -16 -9 -16 -16 0 -67 -59 -67 -77 0 -6 14 -16 30 -23 31
-13 50 -37 50 -62 0 -7 -7 -2 -16 10 -14 20 -72 58 -79 50 -1 -2 -15 -31 -30
-65 -31 -70 -30 -111 5 -248 12 -46 15 -74 8 -82 -6 -8 -4 -22 6 -42 17 -33
20 -51 9 -51 -10 0 -43 80 -43 103 0 9 -5 17 -11 17 -8 0 -10 16 -6 52 4 29 2
82 -4 118 -9 61 -8 70 15 121 29 61 34 109 12 109 -8 0 -16 -6 -19 -12 -2 -7
-7 -10 -11 -7 -10 9 3 37 21 43 9 4 21 -1 28 -10 10 -15 14 -14 33 14 12 16
22 37 22 45 0 9 10 24 23 34 18 15 47 62 47 77 0 2 -10 6 -23 10 -24 6 -62 60
-52 75 3 5 1 12 -4 15 -5 3 -11 -3 -14 -14 -3 -11 -10 -20 -15 -20 -6 0 0 27
13 60 13 33 20 60 17 61 -4 0 3 4 16 9 12 5 22 16 22 25 0 8 5 15 10 15 6 0
10 -9 10 -20z m1108 -5 c-3 -3 -9 2 -12 12 -6 14 -5 15 5 6 7 -7 10 -15 7 -18z
m700 -12 c2 -8 -5 -13 -16 -13 -11 0 -33 -7 -48 -15 -16 -8 -38 -15 -49 -16
-11 0 -14 -3 -7 -6 21 -8 13 -21 -9 -16 -12 4 -25 0 -29 -8 -5 -7 -12 -11 -15
-7 -11 11 5 48 20 48 8 0 35 11 62 25 49 27 83 29 91 8z m-1763 -3 c-3 -5 -10
-10 -16 -10 -5 0 -9 5 -9 10 0 6 7 10 16 10 8 0 12 -4 9 -10z m1925 -30 c0
-27 -15 -40 -45 -40 -18 0 -38 -7 -45 -15 -7 -8 -17 -15 -23 -15 -6 0 0 11 13
25 19 20 30 24 52 20 21 -5 28 -3 28 9 0 8 -9 20 -20 26 -32 17 -23 30 10 14
17 -9 30 -19 30 -24z m-2210 20 c0 -13 -30 -13 -50 0 -11 7 -7 10 18 10 17 0
32 -4 32 -10z m465 0 c-3 -5 -10 -10 -16 -10 -5 0 -9 5 -9 10 0 6 7 10 16 10
8 0 12 -4 9 -10z m1040 0 c16 -7 16 -9 4 -9 -21 -1 -31 -25 -16 -40 6 -6 7
-11 2 -11 -6 0 -10 -14 -11 -31 -1 -27 1 -30 23 -26 18 3 23 1 19 -9 -20 -48
-21 -47 14 -39 21 5 30 4 26 -3 -3 -5 -22 -13 -43 -17 -20 -3 -32 -10 -26 -13
5 -4 10 -15 10 -25 0 -15 -2 -16 -17 -2 -26 23 -133 30 -172 11 -40 -21 -45
-20 -24 3 10 11 44 23 90 31 l73 13 -11 29 c-9 25 -8 31 6 39 12 6 16 19 13
44 -2 19 1 35 6 35 4 0 6 7 3 15 -7 17 1 18 31 5z m-1457 -50 l14 -25 -19 24
c-16 18 -27 23 -51 19 -17 -2 -29 0 -26 4 12 18 67 3 82 -22z m1485 -20 c-7
-28 -13 -25 -13 6 0 14 4 23 9 20 5 -3 7 -15 4 -26z m-1600 0 c-7 -26 -58 -28
-68 -2 -5 14 -4 15 6 5 18 -18 46 -16 53 2 8 22 15 18 9 -5z m587 -16 c-18
-21 -24 -10 -8 15 7 12 14 17 16 11 2 -6 -2 -17 -8 -26z m443 12 c4 -9 14 -12
25 -9 11 2 23 0 26 -6 4 -6 2 -11 -3 -11 -6 0 -11 -20 -11 -45 0 -25 -4 -45
-10 -45 -5 0 -10 5 -10 10 0 6 -9 10 -20 10 -11 0 -23 7 -27 16 -3 9 -14 19
-24 22 -18 7 -18 8 1 40 21 34 44 42 53 18z m141 -57 c8 -27 29 -69 46 -95 18
-25 29 -48 25 -52 -15 -15 -73 86 -98 171 -12 39 -12 45 -1 36 8 -6 20 -33 28
-60z m-727 39 c-3 -8 -6 -5 -6 6 -1 11 2 17 5 13 3 -3 4 -12 1 -19z m-337 -33
c-7 -8 -17 -15 -22 -15 -5 0 -2 7 6 16 9 8 16 21 17 27 0 8 2 8 6 -1 3 -7 -1
-19 -7 -27z m2022 5 c43 -10 82 -21 87 -24 5 -4 7 -30 4 -60 l-6 -54 70 -21
c39 -12 78 -21 87 -21 9 0 16 -4 16 -10 0 -15 -25 -12 -103 11 -38 11 -73 17
-76 12 -8 -11 -51 -14 -51 -4 0 5 -28 14 -62 20 -35 6 -76 16 -92 21 -20 7
-34 6 -43 -1 -17 -15 -17 -38 2 -45 8 -4 15 -12 15 -20 0 -8 5 -14 10 -14 6 0
10 -8 10 -19 0 -12 9 -20 28 -24 34 -7 35 -6 22 28 -6 15 -8 30 -6 33 4 4 40
-48 48 -70 2 -3 20 -9 41 -13 30 -6 37 -4 37 9 0 9 5 16 11 16 6 0 9 -9 6 -19
-3 -12 1 -22 12 -26 13 -6 12 -9 -8 -16 -16 -6 -27 -6 -31 1 -3 5 -20 12 -37
16 -25 5 -32 2 -36 -12 -4 -17 -6 -17 -12 4 -4 12 -17 24 -29 27 -87 20 -117
24 -130 19 -12 -5 -14 4 -9 53 3 32 9 62 14 68 17 17 9 25 -26 25 -19 0 -35 4
-35 9 0 4 -36 16 -81 26 -44 9 -77 21 -72 25 4 5 56 -3 115 -18 59 -14 110
-23 113 -20 4 3 8 17 9 30 2 12 6 38 11 56 7 34 7 34 54 27 25 -4 81 -15 123
-25z m-1372 10 c0 -5 -4 -10 -10 -10 -5 0 -10 5 -10 10 0 6 5 10 10 10 6 0 10
-4 10 -10z m905 -20 c10 -11 14 -20 8 -20 -5 0 -18 9 -28 20 -10 11 -14 20 -8
20 5 0 18 -9 28 -20z m-1128 -15 c-15 -16 -22 -11 -13 10 3 9 10 13 16 10 6
-4 5 -11 -3 -20z m83 10 c0 -8 -2 -15 -4 -15 -2 0 -6 7 -10 15 -3 8 -1 15 4
15 6 0 10 -7 10 -15z m1700 -21 c0 -8 -4 -12 -10 -9 -5 3 -10 10 -10 16 0 5 5
9 10 9 6 0 10 -7 10 -16z m-2285 -104 c0 -93 -7 -110 -45 -109 -10 0 -8 5 8
16 22 15 29 48 14 68 -11 16 -104 38 -112 26 -3 -6 -13 -3 -23 9 -16 19 -16
20 1 20 9 0 41 -7 71 -15 30 -8 58 -12 63 -9 4 3 8 20 8 38 0 26 6 46 14 46 1
0 1 -41 1 -90z m503 78 c-6 -18 -28 -21 -28 -4 0 9 7 16 16 16 9 0 14 -5 12
-12z m162 -2 c0 -8 -4 -18 -10 -21 -5 -3 -10 3 -10 14 0 12 5 21 10 21 6 0 10
-6 10 -14z m65 4 c-3 -5 -11 -10 -16 -10 -6 0 -7 5 -4 10 3 6 11 10 16 10 6 0
7 -4 4 -10z m404 -48 c11 -16 18 -32 14 -36 -3 -3 3 -6 15 -6 14 0 22 -6 22
-16 0 -12 -4 -14 -12 -7 -7 6 -36 13 -65 16 -39 5 -53 3 -57 -9 -9 -24 -23
-16 -28 17 -4 23 1 34 20 49 15 12 22 26 18 35 -9 25 49 -9 73 -43z m-919 17
c0 -5 -7 -9 -15 -9 -15 0 -20 12 -9 23 8 8 24 -1 24 -14z m1433 -16 c-19 -7
-16 -19 16 -54 25 -27 32 -30 45 -20 27 22 76 -3 76 -39 0 -10 -7 -7 -20 10
-17 22 -22 23 -40 12 -27 -16 -70 -5 -70 18 0 10 -9 22 -21 25 -13 4 -18 12
-15 22 3 8 6 19 6 24 0 5 8 9 18 8 10 0 12 -3 5 -6z m-973 -19 c0 -2 -7 -4
-15 -4 -8 0 -15 4 -15 10 0 5 7 7 15 4 8 -4 15 -8 15 -10z m65 -4 c3 -5 1 -10
-4 -10 -6 0 -11 5 -11 10 0 6 2 10 4 10 3 0 8 -4 11 -10z m1510 -1 c11 -17 -1
-21 -15 -4 -8 9 -8 15 -2 15 6 0 14 -5 17 -11z m-395 -70 c0 -5 -4 -9 -10 -9
-5 0 -10 7 -10 16 0 8 5 12 10 9 6 -3 10 -10 10 -16z m-940 -15 c0 -8 -4 -12
-10 -9 -5 3 -10 13 -10 21 0 8 5 12 10 9 6 -3 10 -13 10 -21z m-950 -4 c-24
-15 -37 -11 -16 5 11 8 22 12 25 9 3 -3 -1 -9 -9 -14z m1496 -8 c-7 -7 -46 9
-46 18 0 5 11 4 25 -2 14 -6 23 -13 21 -16z m-196 8 c0 -5 -4 -10 -10 -10 -5
0 -10 5 -10 10 0 6 5 10 10 10 6 0 10 -4 10 -10z m-136 -6 c20 -8 21 -24 2
-24 -8 0 -16 7 -20 15 -6 17 -4 18 18 9z m-1214 -39 c-7 -8 -17 -15 -23 -15
-5 0 -2 9 8 20 21 23 35 19 15 -5z m785 -15 c3 -5 -1 -10 -9 -10 -8 0 -18 5
-21 10 -3 6 1 10 9 10 8 0 18 -4 21 -10z m70 0 c-3 -5 -11 -10 -16 -10 -6 0
-7 5 -4 10 3 6 11 10 16 10 6 0 7 -4 4 -10z m656 -77 c50 -35 73 -60 89 -94
21 -44 24 -46 49 -36 26 9 39 37 19 37 -5 0 -6 5 -2 11 4 7 9 7 13 2 12 -18
39 -21 66 -7 15 8 38 14 51 14 35 0 41 26 13 52 l-24 21 28 -5 c21 -4 30 0 38
15 9 15 13 17 19 6 5 -7 4 -21 -1 -30 -6 -11 -5 -20 1 -24 16 -10 12 -25 -6
-25 -9 0 -14 -6 -11 -13 3 -8 1 -20 -4 -28 -6 -10 -9 -10 -9 -1 0 22 -66 13
-134 -19 -36 -17 -66 -32 -66 -34 0 -2 11 -25 25 -51 17 -32 25 -63 25 -98 1
-42 6 -57 30 -86 18 -20 30 -46 30 -63 0 -27 2 -28 39 -26 21 2 46 -3 55 -10
18 -15 42 -9 113 29 28 16 54 26 57 23 7 -7 46 26 46 40 0 5 -7 7 -15 3 -17
-6 -21 9 -4 19 5 4 18 0 28 -9 11 -10 25 -14 37 -10 16 6 17 5 7 -7 -7 -7 -13
-17 -13 -21 0 -14 103 3 122 19 26 23 41 6 18 -19 -16 -17 -30 -21 -74 -19
-43 2 -57 -2 -65 -16 -8 -14 -12 -15 -19 -5 -7 11 -11 10 -16 -3 -3 -10 3 -29
15 -46 12 -17 19 -32 16 -35 -3 -3 -15 8 -26 25 -19 26 -26 29 -54 24 -41 -7
-55 -19 -39 -35 9 -9 12 -8 12 4 0 11 6 15 20 11 13 -3 20 -14 20 -29 0 -13 5
-24 10 -24 6 0 10 -12 10 -26 0 -14 -4 -23 -10 -19 -5 3 -10 2 -10 -3 0 -6 -8
-13 -17 -16 -12 -5 -28 6 -54 36 -21 24 -38 46 -39 50 0 10 26 3 44 -11 9 -8
19 -11 22 -8 4 3 -9 15 -27 27 -24 15 -45 20 -70 17 -27 -4 -41 0 -53 14 -18
21 -41 25 -51 8 -4 -6 -13 -8 -20 -5 -9 3 -11 -2 -8 -17 11 -50 25 -87 31 -83
4 2 8 -18 8 -44 1 -27 9 -63 18 -81 9 -18 14 -35 11 -37 -11 -12 -35 37 -50
103 -8 39 -19 75 -23 82 -7 11 -73 -14 -207 -77 -55 -25 -215 -90 -224 -90 -6
0 -8 -6 -5 -14 3 -8 1 -17 -5 -21 -6 -3 -11 -2 -11 4 0 5 -3 16 -6 24 -3 9 3
16 15 20 12 3 113 45 226 94 154 66 205 92 205 106 0 9 -7 17 -17 17 -13 0
-14 3 -5 12 15 15 16 84 2 93 -17 10 -52 -5 -46 -21 3 -8 1 -14 -5 -14 -5 0
-12 7 -15 15 -4 8 -11 12 -17 8 -6 -4 -8 3 -3 20 3 14 2 29 -4 32 -6 4 -10 -5
-10 -19 0 -19 -5 -26 -20 -26 -11 0 -20 5 -20 10 0 6 5 10 10 10 16 0 11 30
-5 31 -8 1 -19 3 -25 4 -5 1 -14 3 -20 4 -5 0 -10 6 -10 12 0 6 -9 24 -21 40
-12 17 -19 40 -17 57 3 24 0 27 -30 30 -41 4 -218 -78 -245 -113 -16 -23 -16
-26 3 -75 23 -58 23 -60 11 -60 -14 0 -52 110 -43 127 6 10 1 23 -18 41 -15
15 -29 33 -31 40 -3 9 -28 2 -89 -24 -121 -51 -130 -54 -130 -46 0 9 184 95
263 123 20 7 37 18 37 25 0 15 25 25 43 18 8 -3 69 20 137 51 68 30 130 55
138 55 12 0 11 4 -4 21 -12 13 -27 19 -41 16 -17 -3 -23 0 -23 14 0 11 -20 32
-50 52 -27 19 -47 37 -43 40 7 8 37 -10 134 -80z m-835 14 c1 -9 -2 -17 -7
-17 -5 0 -9 2 -9 4 0 2 -3 12 -7 22 -4 11 -2 15 7 12 7 -2 14 -12 16 -21z
m405 3 c18 -10 18 -11 -1 -48 -11 -20 -20 -42 -20 -49 0 -7 -5 -13 -11 -13 -5
0 -7 5 -4 10 3 6 1 10 -4 10 -6 0 -11 5 -11 11 0 7 -8 18 -17 25 -17 12 -17
13 0 19 20 8 23 31 5 38 -7 3 0 6 15 6 16 1 37 -4 48 -9z m891 -49 c-2 -17 -9
-31 -14 -31 -6 0 -7 11 -4 24 3 14 2 28 -4 31 -19 12 -11 26 8 16 14 -7 18
-18 14 -40z m-2075 18 c2 -20 1 -20 -16 -5 -24 22 -74 20 -96 -4 -14 -16 -15
-24 -7 -50 14 -39 -2 -39 -18 0 -12 28 -10 33 10 55 19 20 33 25 75 25 44 0
51 -3 52 -21z m1008 11 c-3 -5 -11 -10 -16 -10 -6 0 -7 5 -4 10 3 6 11 10 16
10 6 0 7 -4 4 -10z m-432 -55 c5 -32 4 -36 -5 -21 -8 15 -12 16 -20 5 -8 -11
-8 -10 -4 4 3 10 6 30 6 45 0 38 16 15 23 -33z m-53 30 c0 -8 -4 -15 -10 -15
-5 0 -10 7 -10 15 0 8 5 15 10 15 6 0 10 -7 10 -15z m820 -15 c0 -5 -7 -10
-16 -10 -8 0 -12 -4 -9 -10 3 -5 1 -10 -4 -10 -6 0 -11 2 -11 4 0 2 -3 11 -6
20 -5 12 0 16 20 16 14 0 26 -4 26 -10z m820 -19 c0 -11 -4 -23 -10 -26 -6 -4
-10 5 -10 19 0 14 5 26 10 26 6 0 10 -9 10 -19z m-1654 -29 c-9 -8 -26 10 -26
26 1 15 2 15 15 -2 8 -11 13 -21 11 -24z m560 -19 c-7 -7 -26 7 -26 19 0 6 6
6 15 -2 9 -7 13 -15 11 -17z m44 7 c0 -5 -8 -10 -17 -10 -15 0 -16 2 -3 10 19
12 20 12 20 0z m-620 -15 c0 -10 -10 -15 -27 -15 l-28 0 25 14 c14 8 26 14 28
15 1 1 2 -6 2 -14z m1470 -35 c-20 -13 -40 -13 -40 0 0 6 12 10 28 10 21 0 24
-2 12 -10z m-900 -35 c19 -19 32 -35 29 -35 -3 0 -20 16 -39 35 -19 19 -32 35
-29 35 3 0 20 -16 39 -35z m170 5 c-20 -13 -40 -13 -40 0 0 6 12 10 28 10 21
0 24 -2 12 -10z m660 -6 c0 -8 -4 -12 -10 -9 -5 3 -10 10 -10 16 0 5 5 9 10 9
6 0 10 -7 10 -16z m263 -9 c-7 -21 -13 -19 -13 6 0 11 4 18 10 14 5 -3 7 -12
3 -20z m-43 -30 c0 -14 -4 -25 -10 -25 -5 0 -10 5 -10 12 0 6 -3 8 -6 5 -4 -4
-2 -12 3 -19 5 -7 9 -30 8 -51 -1 -31 2 -40 19 -47 20 -7 20 -8 3 -15 -23 -9
-42 9 -51 48 -5 20 -3 27 5 22 8 -6 8 -2 0 13 -6 11 -15 22 -21 24 -5 1 -7 13
-3 26 3 14 11 21 19 18 7 -3 16 -1 19 4 11 18 25 10 25 -15z m-264 -10 c-3 -9
-11 -13 -16 -10 -8 5 -7 11 1 21 14 18 24 11 15 -11z m297 -15 c-3 -11 -9 -20
-14 -20 -11 0 -11 3 -3 24 9 23 23 20 17 -4z m-1673 -80 c13 -8 12 -10 -3 -10
-13 0 -17 -5 -13 -17 7 -23 -4 -40 -26 -40 -14 0 -17 7 -13 28 4 24 2 27 -18
22 -21 -4 -21 -3 3 11 29 18 49 20 70 6z m506 -29 c-21 -9 -34 -20 -29 -25 4
-5 3 -6 -3 -3 -16 9 -77 -17 -67 -28 5 -4 2 -5 -4 -1 -7 4 -21 2 -31 -3 -28
-15 -103 -30 -96 -20 3 5 -7 9 -23 9 -15 0 -34 4 -42 9 -7 5 17 6 59 3 58 -4
71 -2 65 8 -5 8 -4 11 2 7 15 -9 75 17 66 28 -5 4 -3 5 3 2 11 -6 64 10 99 30
11 6 24 9 29 5 6 -3 -7 -13 -28 -21z m-441 -10 c-3 -6 -11 -11 -17 -11 -6 0
-6 6 2 15 14 17 26 13 15 -4z m1460 9 c3 -5 -1 -10 -9 -10 -8 0 -18 5 -21 10
-3 6 1 10 9 10 8 0 18 -4 21 -10z m-45 -16 c0 -8 -4 -12 -10 -9 -5 3 -10 10
-10 16 0 5 5 9 10 9 6 0 10 -7 10 -16z m165 -24 c4 -6 -7 -10 -24 -10 -17 0
-31 5 -31 10 0 6 11 10 24 10 14 0 28 -4 31 -10z m-1455 -20 c0 -5 -4 -10 -9
-10 -6 0 -13 5 -16 10 -3 6 1 10 9 10 9 0 16 -4 16 -10z m1230 -41 c0 -5 -4
-9 -10 -9 -5 0 -10 7 -10 16 0 8 5 12 10 9 6 -3 10 -10 10 -16z m-4363 -81
c-3 -8 -6 -5 -6 6 -1 11 2 17 5 13 3 -3 4 -12 1 -19z m4308 -58 c-3 -5 -14
-10 -23 -10 -15 0 -15 2 -2 10 20 13 33 13 25 0z m345 0 c0 -5 -2 -10 -4 -10
-3 0 -8 5 -11 10 -3 6 -1 10 4 10 6 0 11 -4 11 -10z m-1053 -40 c-8 -26 -17
-40 -28 -40 -15 0 -15 4 3 40 11 22 23 40 28 40 4 0 2 -18 -3 -40z m929 -16
c-17 -16 -36 -19 -36 -4 0 12 32 30 42 24 5 -3 2 -12 -6 -20z m-58 -34 c1 -45
-10 -44 -34 2 -15 28 -15 30 0 25 10 -4 16 -1 16 9 0 8 4 13 9 10 5 -3 9 -24
9 -46z m-248 30 c0 -5 -4 -10 -9 -10 -6 0 -13 5 -16 10 -3 6 1 10 9 10 9 0 16
-4 16 -10z m550 -25 c-7 -8 -18 -15 -25 -15 -7 0 -38 -11 -70 -25 -87 -39 -91
-23 -5 18 83 39 121 47 100 22z m-525 -14 c-3 -6 -11 -11 -17 -11 -6 0 -6 6 2
15 14 17 26 13 15 -4z m345 -59 c0 -4 -23 -16 -51 -27 -28 -11 -55 -25 -61
-32 -6 -8 6 -38 41 -97 28 -47 46 -88 41 -91 -5 -3 -17 9 -26 27 -32 64 -87
148 -96 148 -5 0 -49 -20 -97 -45 -48 -25 -93 -45 -99 -45 -7 0 -21 -5 -31
-12 -15 -9 -17 -17 -10 -37 l9 -26 -20 24 -20 23 -56 -23 c-65 -28 -87 -55
-135 -161 -19 -43 -38 -77 -42 -78 -12 0 1 35 39 112 19 37 34 77 34 88 0 11
6 20 13 20 7 0 92 35 188 78 95 44 197 89 224 101 28 12 68 30 90 41 43 20 65
25 65 12z m-150 -18 c0 -2 -7 -4 -15 -4 -8 0 -15 4 -15 10 0 5 7 7 15 4 8 -4
15 -8 15 -10z m240 -31 c0 -39 -2 -44 -12 -31 -7 9 -20 18 -28 21 -12 4 -11 6
3 6 11 1 17 9 17 26 0 14 5 25 10 25 6 0 10 -21 10 -47z m-355 18 c-3 -6 -11
-11 -17 -11 -6 0 -6 6 2 15 14 17 26 13 15 -4z m-331 -16 c-6 -16 -24 -21 -24
-7 0 11 11 22 21 22 5 0 6 -7 3 -15z m-34 -55 c-8 -5 -17 -7 -19 -4 -3 3 1 9
9 14 8 5 17 7 19 4 3 -3 -1 -9 -9 -14z m-70 -20 c0 -5 -5 -10 -11 -10 -5 0 -7
5 -4 10 3 6 8 10 11 10 2 0 4 -4 4 -10z m140 -20 c0 -11 -4 -20 -10 -20 -5 0
-10 2 -10 4 0 2 -3 11 -6 20 -4 11 -1 16 10 16 9 0 16 -8 16 -20z m843 -78
c28 -71 33 -93 18 -76 -8 8 -61 131 -61 141 0 2 4 3 8 3 5 0 21 -30 35 -68z
m-943 33 c-16 -19 -30 -19 -30 -1 0 8 8 16 18 18 24 6 27 1 12 -17z m153 10
c0 -6 -7 -11 -16 -13 -12 -3 -15 1 -11 13 7 17 25 17 27 0z m-253 -16 c0 -6
-4 -7 -10 -4 -5 3 -10 11 -10 16 0 6 5 7 10 4 6 -3 10 -11 10 -16z m207 5 c2
-5 -6 -10 -17 -10 -20 0 -25 7 -13 20 9 8 26 3 30 -10z m323 -55 c0 -11 -4
-17 -10 -14 -5 3 -10 15 -10 26 0 11 5 17 10 14 6 -3 10 -15 10 -26z m-510 11
c0 -5 -5 -10 -11 -10 -5 0 -7 5 -4 10 3 6 8 10 11 10 2 0 4 -4 4 -10z m394
-64 c3 -13 9 -32 12 -43 4 -11 -4 -7 -23 13 -20 22 -34 29 -44 24 -8 -5 -30
-5 -49 0 l-35 8 40 1 c22 1 47 6 55 11 24 16 37 12 44 -14z m-312 -3 c2 -10
-6 -35 -19 -55 -13 -21 -23 -42 -23 -48 0 -5 -9 -10 -21 -10 -11 0 -17 5 -14
10 4 6 -3 27 -15 47 -27 47 -19 55 10 9 12 -20 23 -36 26 -36 8 0 34 60 34 80
0 25 17 27 22 3z m145 -37 c-21 -22 -30 -6 -10 16 10 11 19 15 21 9 2 -6 -3
-17 -11 -25z m456 14 c-3 -11 -9 -20 -14 -20 -5 0 -9 -8 -10 -17 0 -12 -2 -14
-6 -5 -6 15 15 62 28 62 4 0 5 -9 2 -20z m142 -26 c189 -162 210 -183 278
-272 18 -23 -85 -10 -106 13 -16 19 -18 19 -27 3 -10 -16 -12 -16 -30 2 -24
24 -25 31 -5 23 9 -3 23 3 31 13 14 17 15 17 10 2 -4 -12 0 -18 11 -18 9 0 22
-8 30 -17 11 -14 16 -15 20 -5 4 10 10 9 27 -5 l21 -18 -20 25 c-11 13 -24 30
-30 37 -5 8 -57 56 -114 108 -88 80 -107 93 -119 82 -13 -10 -15 -9 -9 7 4 10
2 25 -4 32 -19 23 4 16 36 -12z m255 -8 c0 -7 13 -45 29 -84 16 -40 26 -74 21
-77 -4 -3 -16 18 -26 45 -10 28 -24 50 -31 50 -7 0 -10 -7 -7 -15 4 -8 1 -15
-5 -15 -6 0 -11 6 -11 13 0 8 -3 7 -10 -3 -5 -8 -10 -12 -12 -10 -2 3 -8 14
-14 25 -6 11 -21 21 -33 23 -24 4 -28 27 -6 36 8 3 15 1 15 -4 0 -6 17 0 38
14 38 24 52 25 52 2z m-450 4 c0 -5 -5 -10 -11 -10 -5 0 -7 5 -4 10 3 6 8 10
11 10 2 0 4 -4 4 -10z m622 -3 c34 1 38 -2 52 -38 18 -46 19 -49 7 -49 -4 0
-12 15 -18 33 -8 29 -13 32 -42 29 -19 -1 -40 3 -47 9 -11 9 -20 7 -39 -5 -27
-18 -35 -20 -35 -8 0 14 55 42 70 35 8 -4 32 -7 52 -6z m-962 -7 c11 -8 8 -9
-12 -4 -19 4 -28 2 -28 -7 0 -7 -3 -10 -6 -6 -8 8 5 27 19 27 7 0 19 -5 27
-10z m660 -20 c0 -10 -4 -22 -10 -25 -6 -4 -10 7 -10 25 0 18 4 29 10 25 6 -3
10 -15 10 -25z m-740 16 c0 -2 -3 -11 -6 -20 -9 -23 -23 -20 -21 4 1 11 7 20
14 20 7 0 13 -2 13 -4z m279 -27 c-19 -12 -24 -2 -8 17 9 11 14 13 17 4 3 -7
-2 -16 -9 -21z m211 21 c0 -5 -2 -10 -4 -10 -3 0 -8 5 -11 10 -3 6 -1 10 4 10
6 0 11 -4 11 -10z m210 -10 c0 -5 -5 -10 -11 -10 -5 0 -7 5 -4 10 3 6 8 10 11
10 2 0 4 -4 4 -10z m270 -15 c0 -8 -4 -15 -9 -15 -13 0 -22 16 -14 24 11 11
23 6 23 -9z m-580 -5 c0 -5 -2 -10 -4 -10 -3 0 -8 5 -11 10 -3 6 -1 10 4 10 6
0 11 -4 11 -10z m-46 -35 c21 -19 34 -39 31 -45 -10 -16 -45 -32 -45 -20 0 5
7 10 15 10 8 0 15 3 15 7 0 14 -34 43 -51 43 -12 0 -16 6 -12 20 3 11 6 20 8
20 1 0 19 -16 39 -35z m59 -10 c4 -8 3 -16 -1 -19 -4 -3 -9 4 -9 15 -2 23 3
25 10 4z m551 -12 c-7 -2 -10 -14 -7 -26 4 -21 4 -22 -11 -3 -20 25 -20 34 2
38 20 5 33 -3 16 -9z m72 -27 c3 -19 3 -39 -1 -45 -4 -7 3 -11 17 -11 22 0 22
-1 -6 -25 -16 -14 -39 -25 -50 -24 -20 0 -20 1 2 11 26 13 30 38 5 38 -15 0
-14 3 4 15 23 16 21 45 -3 45 -27 0 -11 26 18 29 4 1 10 -14 14 -33z m125 -5
c8 -23 18 -31 42 -33 l32 -4 -28 -12 c-15 -6 -40 -15 -55 -18 -26 -7 -26 -6
-10 12 14 17 15 23 3 52 -8 19 -10 32 -4 32 6 0 15 -13 20 -29z m-1041 9 c1
11 3 11 11 -3 14 -23 10 -27 -19 -16 -13 5 -20 14 -16 20 4 8 9 7 15 -2 7 -12
9 -11 9 1z m85 -20 c-3 -5 -11 -10 -16 -10 -6 0 -7 5 -4 10 3 6 11 10 16 10 6
0 7 -4 4 -10z m-150 -20 c-3 -5 -14 -10 -23 -9 -14 0 -13 2 3 9 27 11 27 11
20 0z m114 -11 c-17 -11 -52 -12 -46 -1 3 4 17 8 33 9 19 1 23 -1 13 -8z m136
-9 c-3 -5 -14 -10 -23 -9 -14 0 -13 2 3 9 27 11 27 11 20 0z m-490 -10 c3 -5
1 -10 -4 -10 -6 0 -11 5 -11 10 0 6 2 10 4 10 3 0 8 -4 11 -10z m295 -29 c0
-12 -11 -23 -30 -30 -25 -8 -30 -7 -30 5 0 8 6 14 13 13 26 -3 36 2 31 16 -4
8 -1 15 5 15 6 0 11 -9 11 -19z m160 -15 c0 -2 -7 -6 -15 -10 -8 -3 -15 -1
-15 4 0 6 7 10 15 10 8 0 15 -2 15 -4z m774 -12 c9 -24 7 -28 -7 -16 -7 6 -23
9 -35 5 -29 -7 -28 5 1 17 31 12 34 12 41 -6z m-894 -20 c0 -8 5 -14 12 -14 6
0 8 -3 5 -7 -8 -7 -47 25 -47 38 0 5 7 6 15 3 8 -4 15 -12 15 -20z m83 -14
c-7 -28 -25 -39 -48 -29 -19 7 -18 8 3 8 15 1 26 8 29 21 3 11 9 20 13 20 5 0
6 -9 3 -20z m685 -87 c-23 -22 -29 -24 -42 -13 -9 7 -16 20 -16 29 1 13 3 13
15 -4 15 -19 16 -19 37 3 12 12 24 19 27 16 3 -2 -7 -16 -21 -31z m42 -3 c-14
-11 -28 -20 -32 -20 -5 0 -8 -9 -8 -20 0 -11 -4 -20 -10 -20 -15 0 0 -28 17
-32 11 -2 10 -8 -9 -25 l-23 -22 -2 51 c-2 45 1 54 28 79 17 16 39 29 48 29
12 0 10 -5 -9 -20z m410 -39 c0 -6 -4 -13 -10 -16 -5 -3 -10 1 -10 9 0 9 5 16
10 16 6 0 10 -4 10 -9z m18 -38 c0 -10 3 -26 7 -35 4 -11 3 -18 -4 -18 -6 0
-11 5 -11 11 0 5 -5 7 -12 3 -8 -5 -9 -2 -5 10 4 10 7 24 7 32 0 8 4 14 9 14
6 0 9 -8 9 -17z m-298 -49 c-14 -16 -35 -20 -25 -4 3 5 0 7 -9 4 -11 -4 -14 0
-13 16 1 15 6 20 19 17 10 -3 18 0 18 6 0 7 5 4 11 -6 8 -13 7 -22 -1 -33z
m363 29 c-4 -11 -3 -14 5 -9 7 4 12 1 12 -8 0 -10 -9 -16 -21 -16 -18 0 -19
-2 -9 -15 9 -11 9 -15 1 -15 -16 0 -27 33 -13 38 7 2 12 8 12 13 0 4 -7 6 -15
3 -8 -4 -15 -2 -15 4 0 11 16 20 37 21 8 1 10 -6 6 -16z m-593 -33 c0 -5 -2
-10 -4 -10 -3 0 -8 5 -11 10 -3 6 -1 10 4 10 6 0 11 -4 11 -10z m180 -113 c0
-4 -4 -6 -9 -3 -4 3 -13 -6 -19 -19 -7 -14 -16 -25 -22 -25 -6 0 -5 10 3 27 9
21 9 27 -2 31 -11 4 -11 6 -1 12 14 8 50 -9 50 -23z m185 -18 c11 -17 0 -20
-21 -4 -17 13 -17 14 -2 15 9 0 20 -5 23 -11z"/>
<path d="M4050 6516 c0 -9 5 -16 10 -16 6 0 10 4 10 9 0 6 -4 13 -10 16 -5 3
-10 -1 -10 -9z"/>
<path d="M4043 6477 c1 -5 13 -14 25 -18 18 -7 22 -5 22 10 0 13 -7 19 -25 19
-14 0 -24 -5 -22 -11z"/>
<path d="M4045 6440 c3 -5 11 -10 16 -10 6 0 7 5 4 10 -3 6 -11 10 -16 10 -6
0 -7 -4 -4 -10z"/>
<path d="M3550 5690 c-12 -7 -12 -12 -3 -21 15 -15 26 -7 21 15 -2 11 -7 13
-18 6z"/>
<path d="M3080 4380 c0 -5 7 -10 16 -10 8 0 12 5 9 10 -3 6 -10 10 -16 10 -5
0 -9 -4 -9 -10z"/>
<path d="M4970 4245 c7 -8 17 -12 22 -9 6 4 5 10 -3 15 -22 14 -33 10 -19 -6z"/>
<path d="M4740 4061 c0 -12 5 -21 10 -21 6 0 10 6 10 14 0 8 -4 18 -10 21 -5
3 -10 -3 -10 -14z"/>
<path d="M2920 4166 c0 -15 62 -40 83 -33 6 2 -7 14 -30 25 -50 26 -53 26 -53
8z"/>
<path d="M2947 3713 c-4 -3 -7 -11 -7 -17 0 -6 5 -5 12 2 6 6 9 14 7 17 -3 3
-9 2 -12 -2z"/>
<path d="M6006 4075 c4 -8 10 -12 15 -9 14 8 10 24 -6 24 -9 0 -12 -6 -9 -15z"/>
<path d="M6330 3880 c-9 -6 -10 -10 -3 -10 6 0 15 5 18 10 8 12 4 12 -15 0z"/>
<path d="M4224 3293 c-6 -7 -14 -9 -18 -6 -6 7 -36 -15 -36 -27 0 -5 17 -18
37 -30 30 -17 41 -20 55 -11 19 12 24 1 8 -15 -8 -8 -6 -15 6 -25 14 -12 19
-10 40 16 37 46 39 63 11 90 -26 26 -80 31 -103 8z"/>
<path d="M4335 3189 c-9 -17 -14 -34 -10 -37 3 -3 38 -25 78 -48 53 -31 73
-38 75 -28 2 8 8 14 14 14 6 0 8 -8 6 -18 -5 -18 28 -50 39 -38 8 8 -7 60 -27
94 -16 26 -25 31 -43 27 -18 -5 -35 3 -66 29 -24 20 -45 36 -47 36 -2 0 -11
-14 -19 -31z"/>
<path d="M4430 3186 c0 -2 7 -7 16 -10 8 -3 12 -2 9 4 -6 10 -25 14 -25 6z"/>
<path d="M4532 2979 c-7 -12 -11 -23 -8 -26 8 -9 36 17 36 33 0 20 -13 17 -28
-7z"/>
<path d="M7090 3609 c0 -5 5 -7 10 -4 6 3 10 8 10 11 0 2 -4 4 -10 4 -5 0 -10
-5 -10 -11z"/>
<path d="M7092 3570 c0 -14 2 -19 5 -12 2 6 2 18 0 25 -3 6 -5 1 -5 -13z"/>
<path d="M5750 3590 c0 -5 -7 -10 -15 -10 -17 0 -21 -45 -6 -55 10 -6 41 21
41 35 0 5 3 15 6 24 4 11 1 16 -10 16 -9 0 -16 -4 -16 -10z"/>
<path d="M5690 3535 c0 -8 5 -15 10 -15 6 0 10 7 10 15 0 8 -4 15 -10 15 -5 0
-10 -7 -10 -15z"/>
<path d="M6230 3571 c0 -5 -2 -16 -5 -23 -6 -15 58 -52 69 -41 11 11 6 34 -6
27 -7 -5 -9 0 -6 14 4 13 0 23 -9 26 -22 9 -43 7 -43 -3z"/>
<path d="M2936 3345 c-9 -26 -7 -32 5 -12 6 10 9 21 6 23 -2 3 -7 -2 -11 -11z"/>
<path d="M2887 3193 c-4 -3 -7 -11 -7 -17 0 -6 5 -5 12 2 6 6 9 14 7 17 -3 3
-9 2 -12 -2z"/>
<path d="M3710 3495 c-9 -11 -8 -14 9 -12 22 1 28 12 12 21 -5 3 -14 -1 -21
-9z"/>
<path d="M6040 3410 c0 -5 5 -10 10 -10 6 0 10 5 10 10 0 6 -4 10 -10 10 -5 0
-10 -4 -10 -10z"/>
<path d="M3730 3101 l-25 -7 26 -5 c17 -4 26 -1 26 8 0 7 -1 13 -1 12 -1 -1
-12 -4 -26 -8z"/>
<path d="M4862 2358 c3 -7 12 -14 21 -16 12 -2 15 1 11 12 -7 19 -38 22 -32 4z"/>
<path d="M4840 2330 c0 -5 5 -10 10 -10 6 0 10 5 10 10 0 6 -4 10 -10 10 -5 0
-10 -4 -10 -10z"/>
<path d="M5276 2157 c3 -10 9 -15 12 -12 3 3 0 11 -7 18 -10 9 -11 8 -5 -6z"/>
<path d="M5310 2089 c0 -5 5 -7 10 -4 6 3 10 8 10 11 0 2 -4 4 -10 4 -5 0 -10
-5 -10 -11z"/>
<path d="M5405 1990 c-7 -12 2 -30 16 -30 5 0 9 9 9 20 0 21 -15 27 -25 10z"/>
<path d="M6510 2184 c0 -9 40 -23 44 -15 3 5 -5 11 -19 13 -14 3 -25 4 -25 2z"/>
<path d="M6977 2189 c7 -7 15 -10 18 -7 3 3 -2 9 -12 12 -14 6 -15 5 -6 -5z"/>
<path d="M7064 2172 c3 -6 1 -14 -5 -18 -8 -5 -8 -9 1 -14 7 -5 2 -9 -14 -12
-19 -4 -31 0 -41 16 -9 11 -15 15 -15 7 0 -7 -12 -22 -26 -34 -32 -25 -24 -31
64 -47 35 -6 70 -14 78 -17 19 -7 19 31 -1 47 -18 15 -19 36 -3 46 8 5 9 2 5
-9 -4 -11 1 -20 13 -27 11 -6 20 -7 20 -3 0 4 6 -2 14 -13 17 -23 24 -18 32
24 6 28 4 30 -16 25 -15 -4 -21 -2 -16 5 6 11 -4 15 -63 27 -22 5 -31 4 -27
-3z"/>
<path d="M6950 2161 c0 -6 5 -13 10 -16 6 -3 10 1 10 9 0 9 -4 16 -10 16 -5 0
-10 -4 -10 -9z"/>
<path d="M7160 2049 c0 -5 5 -7 10 -4 6 3 10 8 10 11 0 2 -4 4 -10 4 -5 0 -10
-5 -10 -11z"/>
<path d="M6094 2056 c11 -9 24 -16 30 -16 12 0 7 5 -24 19 -24 11 -24 11 -6
-3z"/>
<path d="M6448 1747 l-48 -19 22 -39 c24 -43 35 -46 78 -24 34 18 36 28 12 71
l-17 31 -47 -20z"/>
<path d="M6285 1674 c-44 -19 -88 -33 -97 -30 -10 2 -18 -1 -18 -8 0 -7 -18
-20 -40 -29 -46 -18 -50 -34 -15 -67 22 -21 26 -22 42 -8 10 8 43 25 74 38 55
22 65 37 45 68 -4 7 -2 12 8 12 8 0 18 -5 22 -11 7 -11 98 -8 110 4 8 8 -28
67 -41 67 -5 0 -46 -16 -90 -36z"/>
<path d="M6493 1643 c-25 -9 -43 -21 -43 -30 0 -10 5 -13 18 -8 48 20 51 19
42 -19 -7 -33 -6 -36 14 -37 l21 0 -22 -16 c-30 -20 -31 -58 -2 -50 28 8 74
-14 74 -35 0 -10 4 -17 10 -15 19 4 5 110 -22 170 -29 62 -28 61 -90 40z"/>
<path d="M6475 1519 c-4 -6 -5 -12 -2 -15 2 -3 7 2 10 11 7 17 1 20 -8 4z"/>
<path d="M6966 1375 c-3 -8 -1 -15 4 -15 13 0 22 18 11 24 -5 3 -11 -1 -15 -9z"/>
<path d="M5980 1830 c0 -5 7 -10 16 -10 8 0 12 5 9 10 -3 6 -10 10 -16 10 -5
0 -9 -4 -9 -10z"/>
<path d="M7243 696 c-22 -11 -22 -12 -2 -24 22 -14 39 -8 39 13 0 21 -13 25
-37 11z"/>
<path d="M7054 264 c-18 -14 -18 -15 4 -4 12 6 22 13 22 15 0 8 -5 6 -26 -11z"/>
<path d="M7105 24 l-40 -24 39 0 c29 0 37 3 33 14 -4 9 1 16 11 18 10 2 13 6
7 10 -6 3 -28 -5 -50 -18z"/>
<path d="M7191 14 c0 -11 3 -14 6 -6 3 7 2 16 -1 19 -3 4 -6 -2 -5 -13z"/>
</g>
</svg>
