<?xml version="1.0" standalone="no"?>
<!DOCTYPE svg PUBLIC "-//W3C//DTD SVG 20010904//EN"
 "http://www.w3.org/TR/2001/REC-SVG-20010904/DTD/svg10.dtd">
<svg version="1.0" xmlns="http://www.w3.org/2000/svg"
 width="800.000000pt" height="800.000000pt" viewBox="0 0 800.000000 800.000000"
 preserveAspectRatio="xMidYMid meet">
<metadata>
Created by potrace 1.16, written by Peter Selinger 2001-2019
</metadata>
<g transform="translate(0.000000,800.000000) scale(0.100000,-0.100000)"
fill="#000000" stroke="none">
<path d="M0 5312 l0 -2688 36 -17 c75 -36 141 -95 175 -156 19 -33 77 -107
129 -163 52 -57 102 -115 111 -128 31 -47 30 -12 -1 46 -23 44 -29 65 -24 89
10 50 27 56 20 7 -6 -37 -2 -52 24 -97 22 -39 29 -61 24 -79 -8 -33 7 -51 65
-80 69 -35 91 -40 91 -22 0 9 5 16 10 16 6 0 10 -9 10 -20 0 -20 7 -23 85 -35
55 -8 75 -15 75 -24 0 -9 -115 11 -180 31 -19 5 -61 21 -92 35 -49 22 -63 34
-100 92 -23 36 -65 89 -93 117 -27 28 -62 66 -77 84 -20 24 -32 30 -45 25 -40
-17 -73 -18 -73 -1 0 9 7 16 15 16 8 0 12 6 9 14 -3 8 -12 12 -20 9 -9 -3 -14
2 -14 16 0 29 24 26 44 -4 33 -51 33 -23 0 32 -19 31 -34 60 -34 63 0 14 -144
110 -165 110 -3 0 -5 -68 -5 -151 0 -146 1 -151 20 -146 11 3 20 1 20 -5 0 -5
-9 -12 -20 -15 -15 -4 -20 -14 -20 -38 0 -18 5 -35 11 -37 9 -3 9 -9 1 -25 -9
-16 -8 -24 3 -33 16 -13 10 -35 -6 -25 -5 4 -9 -18 -9 -49 0 -40 3 -54 13 -51
7 3 13 -4 13 -21 2 -18 -2 -24 -12 -20 -10 4 -14 -4 -14 -32 0 -21 5 -43 11
-49 8 -8 8 -13 0 -17 -14 -9 -15 -256 -1 -256 6 0 10 -6 10 -14 0 -8 7 -22 17
-31 10 -11 12 -19 6 -23 -6 -4 -13 -17 -17 -30 -4 -12 -12 -20 -17 -17 -5 4
-9 1 -9 -5 0 -6 7 -13 15 -16 19 -8 19 -24 0 -24 -13 0 -15 -88 -15 -735 l0
-735 939 0 938 0 13 62 c6 35 16 71 21 80 5 9 11 39 13 67 3 27 7 85 11 128 5
57 3 89 -8 118 -13 36 -18 40 -46 37 -25 -2 -31 2 -31 19 0 14 4 18 13 12 6
-4 22 -6 34 -5 12 2 25 -4 31 -14 8 -15 14 -14 56 11 45 27 47 27 61 9 8 -11
17 -27 20 -36 4 -10 16 -18 27 -18 12 0 29 -7 38 -15 24 -22 101 -10 107 16 5
16 15 19 63 19 38 0 60 4 62 13 3 8 30 12 86 12 l82 0 0 28 c0 59 35 86 62 48
19 -27 52 -10 71 37 11 28 23 41 39 44 14 2 24 11 26 24 3 18 -4 22 -38 28
-23 3 -45 4 -51 1 -5 -4 -9 -2 -9 4 0 5 -13 12 -30 16 -16 4 -30 11 -30 17 0
6 6 8 14 5 8 -3 61 -16 118 -28 56 -12 115 -28 129 -35 35 -18 33 -20 120 162
75 159 76 160 84 152 3 -3 -33 -85 -80 -183 -80 -165 -100 -224 -55 -165 24
32 37 20 15 -14 -17 -25 -17 -26 5 -26 32 0 60 -18 60 -40 0 -10 5 -20 10 -22
14 -4 39 -75 40 -110 0 -15 4 -29 9 -32 4 -3 11 -61 15 -128 4 -69 13 -129 19
-137 7 -7 24 -46 38 -85 l27 -71 2431 -3 2431 -2 0 4000 0 4000 -2566 0
c-1707 0 -2563 -3 -2559 -10 3 -5 2 -10 -4 -10 -5 0 -13 5 -16 10 -4 7 -492
10 -1431 10 l-1424 0 0 -2688z m2930 2637 c0 -11 -3 -11 -24 -3 -23 9 -20 23
4 17 11 -3 20 -9 20 -14z m175 11 c-3 -5 -13 -10 -21 -10 -8 0 -14 5 -14 10 0
6 9 10 21 10 11 0 17 -4 14 -10z m55 0 c12 -8 9 -10 -13 -10 -16 0 -26 4 -22
10 8 12 16 12 35 0z m-170 -10 c0 -5 -9 -10 -20 -10 -11 0 -20 5 -20 10 0 6 9
10 20 10 11 0 20 -4 20 -10z m53 3 c-7 -2 -21 -2 -30 0 -10 3 -4 5 12 5 17 0
24 -2 18 -5z m182 -3 c3 -5 -3 -10 -14 -10 -11 0 -23 5 -26 10 -3 6 3 10 14
10 11 0 23 -4 26 -10z m944 -16 c17 -38 6 -64 -27 -63 -27 0 -27 0 -4 11 27
14 28 24 2 38 -11 6 -20 15 -20 21 0 6 5 7 10 4 6 -3 10 -1 10 4 0 20 17 11
29 -15z m-899 6 c8 -5 12 -12 9 -15 -8 -8 -39 5 -39 16 0 11 11 11 30 -1z
m-3117 -7 c8 -13 -12 -53 -25 -53 -7 0 -20 5 -28 10 -13 9 -12 13 9 30 25 21
37 25 44 13z m6831 -19 c3 -9 6 -23 6 -32 0 -8 10 -26 22 -39 28 -30 67 -29
143 2 64 26 95 31 95 15 0 -5 -10 -10 -23 -10 -13 0 -27 -4 -32 -9 -16 -14
-106 -41 -137 -41 -39 0 -85 46 -91 93 -6 37 5 51 17 21z m-3694 -28 c0 -8 -4
-18 -10 -21 -5 -3 -10 3 -10 14 0 12 5 21 10 21 6 0 10 -6 10 -14z m-20 -67
c0 -11 -4 -17 -10 -14 -5 3 -10 13 -10 21 0 8 5 14 10 14 6 0 10 -9 10 -21z
m-1158 -18 c-1 -7 3 -20 10 -29 10 -12 10 -16 1 -19 -7 -3 -13 -14 -13 -25 0
-32 -32 -57 -140 -108 -56 -27 -90 -34 -90 -19 0 8 -4 8 -14 0 -12 -10 -18 -7
-30 16 -11 20 -15 23 -16 11 0 -28 -20 -21 -20 7 0 18 -5 25 -20 25 -12 0 -20
7 -20 16 0 10 6 14 14 11 11 -4 13 -1 9 10 -4 11 -2 14 8 11 8 -3 14 -11 14
-19 1 -24 15 -39 38 -39 12 -1 39 -7 59 -14 32 -12 42 -11 75 4 21 9 53 31 70
48 17 18 36 32 42 32 6 0 11 13 11 30 0 22 -4 28 -15 24 -10 -4 -15 0 -15 13
0 11 3 23 7 27 11 11 38 1 35 -13z m-202 -68 c0 -16 -17 -26 -24 -14 -4 6 -17
4 -33 -4 -26 -14 -43 -12 -43 4 0 13 43 30 73 28 15 -1 27 -7 27 -14z m4597
-26 c-14 -36 -240 -366 -248 -362 -4 3 11 34 34 68 23 35 78 118 122 185 44
67 84 122 89 122 4 0 6 -6 3 -13z m-3124 -71 c-3 -14 -14 -33 -24 -42 -10 -9
-19 -23 -19 -29 0 -7 -6 -18 -14 -24 -18 -15 -9 -50 18 -72 12 -10 18 -20 15
-23 -10 -11 -59 35 -59 55 0 10 -7 19 -15 19 -22 0 -19 6 31 54 25 25 43 50
39 55 -8 14 2 31 19 31 9 0 12 -9 9 -24z m-1053 -6 c0 -5 -5 -10 -11 -10 -7 0
-22 -11 -35 -25 -13 -14 -34 -25 -48 -25 -13 0 -26 -6 -29 -12 -2 -7 -7 -10
-11 -7 -15 14 8 38 37 41 24 2 33 8 35 26 3 17 10 22 33 22 16 0 29 -4 29 -10z
m-740 -111 c0 -10 -13 -25 -30 -34 -19 -10 -27 -20 -24 -30 4 -8 3 -15 -1 -15
-12 0 -36 30 -31 38 3 5 -3 18 -14 30 -19 20 -19 21 6 29 42 14 94 4 94 -18z
m85 11 c3 -5 21 -10 39 -10 26 0 35 -5 40 -22 9 -37 7 -90 -4 -83 -5 3 -10 20
-10 36 0 39 -19 58 -64 61 -35 2 -43 8 -29 21 9 10 21 9 28 -3z m470 0 c-3 -5
-11 -10 -16 -10 -6 0 -7 5 -4 10 3 6 11 10 16 10 6 0 7 -4 4 -10z m15 -20 c0
-5 -8 -10 -17 -10 -15 0 -16 2 -3 10 19 12 20 12 20 0z m1100 1 c0 -11 -31
-24 -39 -16 -3 3 1 10 9 15 19 12 30 12 30 1z m-50 -29 c0 -5 -12 -15 -27 -22
-16 -8 -36 -21 -46 -29 -9 -8 -20 -11 -24 -7 -6 6 19 28 62 53 25 14 35 15 35
5z m3323 -189 c-7 -2 -19 -2 -25 0 -7 3 -2 5 12 5 14 0 19 -2 13 -5z m-4643
-28 c0 -8 -4 -15 -10 -15 -5 0 -10 7 -10 15 0 8 5 15 10 15 6 0 10 -7 10 -15z
m320 -9 c0 -42 70 -117 159 -170 78 -46 122 -88 107 -104 -4 -4 -16 5 -27 20
-11 15 -55 47 -99 72 -58 34 -91 61 -120 100 -38 50 -54 106 -30 106 6 0 10
-11 10 -24z m1401 -181 c-1 -60 -9 -145 -17 -190 -13 -74 -12 -89 7 -197 l20
-116 -21 -69 c-33 -107 -39 -150 -28 -227 13 -99 24 -122 76 -162 36 -27 54
-34 90 -34 40 0 49 -5 84 -42 60 -65 49 -96 -12 -33 -29 30 -41 35 -80 35 -46
0 -95 23 -85 40 3 5 -10 20 -29 32 -46 30 -51 44 -66 168 l-13 105 30 93 30
92 -20 118 c-19 112 -19 121 -3 217 9 55 16 142 16 193 0 68 3 93 12 90 8 -3
11 -36 9 -113z m-2974 76 c8 8 13 7 17 0 4 -6 3 -11 -2 -11 -5 0 -12 -9 -15
-19 -2 -10 -15 -24 -27 -31 -20 -11 -22 -10 -17 3 3 9 1 18 -6 21 -9 5 -9 7 1
12 6 3 10 10 6 15 -3 5 -2 14 2 21 5 8 11 6 19 -5 8 -11 15 -13 22 -6z m7283
-49 c0 -5 -23 -19 -50 -32 -34 -16 -62 -39 -84 -70 -44 -62 -85 -80 -178 -80
-88 0 -150 9 -142 21 3 5 9 7 13 4 5 -2 53 -5 108 -7 115 -2 141 8 187 77 33
48 146 115 146 87z m-6220 -72 c0 -5 -7 -10 -15 -10 -8 0 -15 5 -15 10 0 6 7
10 15 10 8 0 15 -4 15 -10z m-155 -19 c-3 -8 0 -18 7 -22 7 -4 9 -11 6 -15 -4
-3 -21 4 -38 16 -23 17 -34 20 -43 11 -19 -19 -31 -12 -14 7 21 23 90 25 82 3z
m1570 -10 c-5 -16 -15 -21 -41 -21 -44 0 -79 -32 -64 -59 10 -19 5 -27 -27
-45 -15 -8 -15 27 0 67 11 31 53 57 90 57 14 0 28 7 31 16 9 24 19 10 11 -15z
m-727 -83 c-3 -7 -13 -15 -24 -17 -16 -3 -17 -1 -5 13 16 19 34 21 29 4z
m-771 -235 c-10 -9 -198 178 -190 190 3 5 49 -34 101 -86 53 -53 93 -100 89
-104z m5633 187 c0 -5 -4 -10 -10 -10 -5 0 -10 5 -10 10 0 6 5 10 10 10 6 0
10 -4 10 -10z m40 -45 c0 -8 -7 -15 -15 -15 -16 0 -20 12 -8 23 11 12 23 8 23
-8z m-4429 -39 c-8 -9 -8 -22 -1 -42 6 -17 9 -41 8 -54 -2 -16 2 -25 12 -26 8
-1 23 -2 32 -3 29 -2 26 -34 -9 -100 l-33 -64 41 7 c41 7 75 29 66 43 -3 5 6
22 20 38 24 29 25 29 18 5 -4 -14 -8 -37 -8 -52 0 -24 -5 -29 -36 -34 -20 -4
-49 -12 -64 -19 -28 -12 -28 -13 -29 -106 -1 -52 2 -104 6 -117 10 -32 1 -39
-14 -11 -10 17 -17 235 -11 323 1 5 7 3 14 -3 11 -8 17 -3 30 23 13 28 14 36
3 45 -8 6 -20 9 -29 5 -20 -7 -40 30 -32 57 4 11 2 33 -5 49 -10 24 -9 33 7
56 15 23 19 25 21 11 2 -10 -1 -24 -7 -31z m489 -68 c0 -5 -4 -8 -10 -8 -5 0
-10 10 -10 23 0 18 2 19 10 7 5 -8 10 -18 10 -22z m-1555 -182 c55 -52 94 -95
87 -96 -7 0 -43 28 -80 63 -37 34 -91 83 -119 108 -29 26 -50 49 -46 52 9 9
47 -21 158 -127z m3940 10 c-55 -84 -75 -107 -75 -87 0 16 124 193 128 182 2
-5 -22 -47 -53 -95z m-2955 65 c0 -9 -78 -44 -122 -55 -17 -4 -28 -2 -28 4 0
6 14 13 30 17 17 3 30 12 30 20 0 9 6 12 18 9 9 -3 24 -1 32 4 19 12 40 13 40
1z m1212 -42 c16 -12 40 -21 54 -21 14 0 24 -6 24 -15 0 -7 6 -13 14 -11 8 2
14 -1 13 -7 -1 -5 -6 -9 -11 -7 -5 2 -13 -3 -17 -10 -15 -22 -10 -29 12 -17
18 9 20 8 15 -9 -5 -13 -1 -22 10 -26 13 -5 14 -10 6 -18 -9 -9 -9 -15 0 -26
9 -10 8 -16 -3 -23 -25 -16 -31 -10 -25 24 6 30 3 35 -29 50 -26 12 -33 21
-29 34 5 15 4 15 -5 3 -7 -11 -6 -19 6 -32 24 -27 7 -35 -20 -10 -13 12 -29
22 -36 22 -7 0 -9 5 -6 10 10 16 -14 40 -39 40 -20 1 -20 2 -3 14 9 7 17 20
17 28 0 14 9 28 18 28 2 0 17 -10 34 -21z m2218 -92 c0 -17 -198 -133 -242
-141 -45 -8 -162 -84 -243 -158 -33 -30 -94 -78 -135 -107 -41 -28 -96 -76
-123 -106 -34 -38 -56 -55 -73 -55 -13 0 -24 5 -24 10 0 6 6 10 13 10 7 0 33
21 57 46 51 52 325 270 415 331 33 22 76 44 95 48 37 7 123 53 200 105 50 33
60 36 60 17z m-1072 -24 c-15 -17 -38 -84 -38 -111 0 -7 10 -17 23 -22 18 -7
15 -9 -20 -9 -39 -1 -41 -2 -39 -28 2 -16 -1 -34 -6 -40 -7 -9 -7 -13 0 -13 5
0 12 -9 15 -20 6 -22 -18 -29 -26 -7 -3 7 -6 5 -6 -5 -1 -10 3 -18 8 -18 5 0
11 -15 13 -32 3 -18 8 -40 12 -49 6 -13 1 -15 -24 -11 -25 4 -30 9 -30 31 0
15 5 32 12 39 9 9 7 13 -6 18 -13 5 -15 14 -10 40 5 29 4 33 -10 28 -9 -3 -16
-1 -16 5 0 6 11 11 24 11 28 0 40 29 18 45 -22 17 -4 45 29 45 27 0 29 3 30
38 1 20 1 41 0 45 -2 14 24 36 43 37 17 0 18 -2 4 -17z m-982 -38 c3 -17 -12
-20 -21 -5 -7 12 4 34 13 25 3 -3 7 -12 8 -20z m-1076 -17 c31 -34 32 -39 14
-125 -5 -26 -3 -33 10 -33 19 0 50 -45 41 -59 -3 -6 -1 -29 6 -50 9 -31 9 -44
0 -55 -10 -11 -6 -21 17 -48 30 -34 62 -89 62 -108 0 -23 -17 -8 -29 26 -7 20
-29 54 -48 75 -29 32 -33 41 -23 59 8 15 8 30 1 53 -6 18 -9 41 -8 52 1 12 -7
24 -21 30 -31 13 -38 50 -19 90 15 32 15 35 -4 59 -15 19 -30 26 -55 26 -20 0
-33 4 -29 10 3 5 12 7 20 3 11 -4 13 -1 9 11 -11 28 24 18 56 -16z m-680 18
c0 -3 -24 -24 -53 -48 -29 -24 -79 -72 -112 -108 -32 -36 -63 -67 -67 -68 -16
-7 6 33 41 77 64 78 191 176 191 147z m58 -90 c30 -32 20 -56 -22 -54 l-33 1
10 39 c5 21 12 38 16 38 3 0 16 -11 29 -24z m1642 9 c0 -8 -9 -15 -20 -15 -11
0 -20 -6 -20 -14 0 -8 -13 -15 -32 -18 -49 -5 -68 1 -68 23 0 15 7 19 38 20
20 1 48 5 62 9 37 12 40 11 40 -5z m2075 -4 c-3 -6 -11 -11 -17 -11 -6 0 -6 6
2 15 14 17 26 13 15 -4z m-3735 -213 c0 -16 -5 -19 -22 -14 -13 3 -26 6 -30 6
-16 0 -7 17 15 27 27 13 37 8 37 -19z m480 -49 c0 -9 8 -27 19 -40 12 -15 23
-56 30 -114 16 -114 56 -208 86 -201 11 2 43 -1 70 -8 38 -10 51 -18 53 -35 5
-31 22 -26 22 7 l1 27 15 -27 c16 -30 54 -39 54 -13 0 8 3 15 8 15 12 0 33
-40 27 -51 -9 -14 38 -50 50 -38 16 16 32 10 38 -13 4 -12 9 -19 13 -15 11 10
34 -13 34 -34 0 -17 3 -18 21 -7 17 11 22 10 32 -3 7 -9 19 -18 27 -22 10 -4
8 -6 -7 -6 -12 -1 -25 3 -28 9 -4 6 -15 4 -29 -5 -26 -17 -36 -11 -36 22 0 16
-6 23 -20 23 -14 0 -20 7 -20 21 0 19 -1 19 -22 5 -28 -20 -38 -20 -38 -2 0 7
-7 19 -15 26 -8 7 -15 20 -15 29 0 13 -9 17 -38 17 -22 -1 -46 -7 -55 -15 -18
-14 -52 -7 -42 9 12 20 -14 9 -29 -11 -14 -20 -16 -20 -31 -6 -9 9 -15 22 -14
29 1 7 1 23 0 35 l-1 22 -35 -22 c-34 -21 -35 -24 -30 -66 4 -38 3 -42 -10
-31 -23 19 -20 91 4 97 17 4 16 9 -14 71 -21 46 -36 95 -44 156 -7 48 -19 99
-27 111 -18 28 -34 82 -26 89 7 8 22 -15 22 -35z m2298 2 c40 -21 134 -111
115 -111 -6 0 -33 20 -59 44 -27 23 -64 51 -81 60 -18 9 -33 19 -33 21 0 10
22 4 58 -14z m-1568 -227 c2 -118 1 -125 -10 -98 -7 18 -15 197 -10 229 1 6 5
0 10 -11 4 -12 9 -66 10 -120z m1505 128 c13 -8 46 -114 50 -157 1 -16 3 -34
4 -39 0 -5 12 1 26 14 34 32 32 13 -2 -22 -30 -31 -43 -35 -43 -14 0 21 -52 2
-89 -33 -48 -44 -103 -81 -123 -81 -23 0 -58 35 -58 58 0 24 58 112 79 120 9
4 37 20 64 36 33 19 57 27 77 24 34 -5 33 -6 20 43 -6 21 -20 41 -33 47 -20
10 -21 11 -2 11 11 0 25 -3 30 -7z m-4065 -17 c20 -24 6 -28 -15 -5 -10 11
-13 20 -8 20 6 0 16 -7 23 -15z m2825 -2 c-4 -10 -10 -26 -12 -35 -8 -29 -20
-12 -15 22 2 18 10 30 19 30 11 0 13 -5 8 -17z m-2056 -109 c-47 -124 -57
-134 -132 -134 -70 0 -126 -12 -177 -39 -19 -10 -53 -24 -75 -31 -22 -7 -57
-21 -79 -32 -27 -14 -37 -16 -34 -6 2 7 23 22 46 33 24 11 40 25 38 32 -7 16
74 214 85 207 8 -5 -10 -57 -52 -153 -30 -68 -17 -70 89 -19 28 13 72 22 127
26 47 2 89 10 95 17 5 6 26 54 46 106 42 111 47 120 52 96 2 -9 -11 -56 -29
-103z m615 74 c-8 -12 -34 11 -34 30 0 13 3 12 20 -3 11 -10 17 -22 14 -27z
m929 11 c-5 -5 -43 -29 -84 -52 -61 -34 -75 -47 -77 -69 -4 -38 -22 -36 -22 2
0 31 9 39 120 103 46 27 83 36 63 16z m601 -59 c80 -64 86 -78 86 -176 0 -42
3 -54 15 -54 13 0 15 11 13 58 -2 31 1 57 6 57 10 0 11 -21 21 -260 4 -93 9
-173 12 -177 2 -5 6 -94 9 -200 3 -105 7 -195 10 -200 3 -4 21 -8 40 -8 21 0
33 -4 29 -10 -3 -5 -24 -10 -45 -10 -48 0 -46 -15 -60 310 -15 358 -21 420
-36 420 -9 0 -11 -11 -9 -32 2 -18 6 -93 9 -165 6 -140 -7 -182 -18 -63 -4 39
-11 70 -17 70 -11 0 -11 13 1 -195 17 -308 20 -325 41 -325 10 0 19 -4 19 -10
0 -5 -9 -10 -20 -10 -17 0 -20 -7 -20 -50 0 -49 1 -50 30 -50 17 0 30 -4 30
-10 0 -5 -11 -10 -25 -10 -14 0 -25 -5 -25 -11 0 -15 132 -7 138 9 2 8 8 8 21
0 14 -8 72 -8 222 1 112 6 216 11 230 11 l27 0 -6 130 c-3 85 -1 130 5 130 15
0 23 -60 23 -167 l0 -92 70 6 c45 4 70 2 70 -4 0 -6 -27 -13 -60 -15 -63 -4
-83 -14 -61 -27 9 -6 10 -11 2 -15 -12 -8 -15 -123 -5 -175 7 -32 7 -32 65
-30 33 1 62 -1 66 -4 3 -4 0 -7 -8 -8 -8 0 -74 -4 -147 -8 -101 -5 -135 -10
-142 -21 -8 -13 -11 -13 -19 -1 -7 10 -33 12 -135 6 -106 -6 -131 -11 -153
-28 l-26 -21 6 -143 c3 -79 2 -143 -3 -143 -10 0 -20 90 -20 193 l0 87 -62 0
c-35 0 -68 -4 -75 -8 -15 -9 -9 -140 6 -155 17 -17 13 -31 -4 -17 -12 10 -16
8 -25 -15 -5 -14 -10 -40 -10 -56 0 -22 5 -29 20 -29 11 0 20 -4 20 -10 0 -5
-9 -10 -20 -10 -16 0 -20 -7 -20 -30 l0 -30 61 0 c37 0 58 -4 54 -10 -3 -5
-32 -10 -64 -10 l-58 0 -7 38 c-10 62 -7 116 10 164 9 27 14 70 12 104 l-3 59
-57 6 c-57 6 -70 12 -118 56 l-26 23 -53 -54 -53 -54 4 -67 c2 -41 9 -70 18
-75 11 -7 10 -11 -3 -25 -24 -23 -26 -133 -3 -170 15 -24 39 -105 33 -111 -9
-9 -38 9 -33 22 3 7 -2 18 -9 24 -8 7 -13 16 -10 20 3 4 -2 25 -11 45 -13 31
-14 49 -5 99 16 93 7 197 -21 245 -12 22 -20 43 -16 47 8 8 38 -20 38 -36 0
-11 66 56 153 155 20 22 39 36 43 32 4 -4 -7 -23 -26 -42 -29 -30 -31 -36 -20
-50 13 -16 15 -15 27 1 17 23 28 12 14 -15 -10 -18 -7 -22 18 -36 17 -8 49
-15 72 -15 l42 0 -8 83 c-4 45 -7 101 -7 125 0 32 -4 42 -17 42 -14 1 -14 2 2
14 25 20 21 26 -18 26 -24 0 -35 -5 -35 -15 0 -8 -4 -15 -10 -15 -5 0 -10 7
-10 15 0 8 -4 15 -10 15 -5 0 -10 6 -10 14 0 10 9 13 28 11 24 -3 41 8 42 27
0 4 -21 30 -46 59 -25 28 -42 54 -39 57 3 4 29 -19 56 -51 28 -31 54 -57 58
-57 8 0 7 23 -14 404 -13 232 -14 240 -37 258 -18 14 -20 18 -6 18 9 0 20 10
24 23 3 12 13 29 21 38 12 14 12 17 -2 22 -8 4 -15 11 -15 18 0 6 6 9 14 6 10
-4 14 1 13 14 -1 11 -7 17 -14 15 -7 -3 -13 -1 -13 5 0 5 7 12 15 15 16 7 21
54 6 54 -5 0 -11 -12 -13 -27 -3 -24 -8 -27 -40 -29 -21 0 -38 3 -38 8 0 4 12
8 28 8 24 1 25 2 10 14 -10 7 -18 20 -18 29 0 8 -6 17 -12 20 -7 2 -9 8 -5 13
12 12 42 -11 39 -30 -2 -9 2 -16 8 -16 5 0 10 4 10 9 0 5 8 12 18 15 15 5 17
14 12 54 -5 45 -10 52 -77 111 -40 34 -73 64 -73 66 0 16 30 -2 94 -55z
m-2894 41 c0 -5 3 -18 7 -28 6 -16 5 -16 -10 -4 -19 15 -23 41 -7 41 6 0 10
-4 10 -9z m2790 -47 c0 -14 -4 -23 -10 -19 -5 3 -10 15 -10 26 0 10 5 19 10
19 6 0 10 -12 10 -26z m-1272 -10 c34 -22 44 -55 22 -79 -9 -11 -20 -28 -23
-37 -6 -18 -27 -25 -27 -10 0 4 9 22 20 40 29 47 25 58 -25 79 -25 10 -45 22
-45 27 0 11 49 -2 78 -20z m2712 -24 c5 -9 7 -20 4 -22 -2 -3 18 -15 46 -26
27 -11 50 -26 50 -33 0 -6 14 -27 30 -46 17 -18 30 -40 30 -48 0 -7 14 -23 30
-35 17 -12 30 -17 30 -11 0 6 8 11 18 11 19 0 48 -38 44 -57 -2 -7 6 -13 18
-13 11 0 34 -16 51 -35 17 -19 53 -47 80 -61 27 -15 49 -31 49 -35 0 -5 14
-16 31 -24 19 -10 38 -33 50 -60 11 -24 25 -45 32 -48 8 -3 5 -12 -10 -29
l-23 -24 71 -34 c39 -19 75 -42 80 -51 10 -19 -7 -89 -22 -89 -6 0 -7 9 -3 23
17 52 12 61 -61 98 -38 21 -84 52 -102 70 -36 38 -36 54 1 20 19 -18 25 -19
34 -8 16 18 -21 97 -56 120 -79 51 -99 66 -147 110 -30 27 -62 47 -75 47 -17
0 -21 4 -17 20 6 24 -24 45 -40 29 -16 -16 -70 28 -83 67 -6 18 -18 35 -26 38
-12 4 -12 2 -4 -14 6 -11 8 -37 4 -58 -7 -46 3 -56 39 -37 24 12 27 11 41 -11
9 -13 16 -27 16 -32 0 -12 46 -32 76 -32 24 0 84 -50 84 -70 0 -18 -19 -10
-25 10 -3 11 -13 20 -21 20 -8 0 -14 4 -14 9 0 5 -19 12 -42 16 -28 5 -50 17
-67 36 -18 21 -35 29 -58 29 -27 0 -35 5 -44 28 -7 17 -7 32 -1 42 16 25 -14
68 -69 95 -27 14 -54 36 -58 48 -5 13 -16 29 -25 36 -9 7 -16 24 -16 37 0 21
2 22 30 12 17 -5 35 -18 40 -28z m2573 -3 c-13 -22 -181 -178 -250 -233 -86
-69 -289 -205 -413 -277 -144 -83 -509 -306 -558 -339 -36 -25 -43 -27 -40
-13 3 21 50 51 491 317 343 208 514 329 666 474 53 51 99 90 104 87 4 -2 4
-10 0 -16z m-4045 -39 c-2 -6 -10 -14 -16 -16 -7 -2 -10 2 -6 12 7 18 28 22
22 4z m118 -1 c8 3 12 -3 11 -16 -2 -26 -15 -27 -33 -3 -16 21 -18 40 -3 25 6
-6 17 -9 25 -6z m-150 -74 c-11 -11 -19 6 -11 24 8 17 8 17 12 0 3 -10 2 -21
-1 -24z m204 5 c0 -5 -7 -8 -15 -8 -15 0 -20 21 -8 33 7 7 23 -11 23 -25z
m-62 -37 c3 -8 -1 -12 -9 -9 -7 2 -15 10 -17 17 -3 8 1 12 9 9 7 -2 15 -10 17
-17z m-118 -17 c0 -8 -4 -12 -10 -9 -5 3 -10 13 -10 21 0 8 5 12 10 9 6 -3 10
-13 10 -21z m880 -24 c0 -5 -11 -10 -25 -10 -14 0 -25 5 -25 10 0 6 11 10 25
10 14 0 25 -4 25 -10z m-61 -31 c7 -21 7 -37 0 -50 -12 -24 -18 -24 -35 -1
-17 21 -18 40 -2 24 7 -7 16 -12 20 -12 12 0 10 38 -2 45 -12 8 -13 25 -1 25
5 0 14 -14 20 -31z m-809 7 c0 -8 -4 -18 -10 -21 -5 -3 -10 3 -10 14 0 12 5
21 10 21 6 0 10 -6 10 -14z m123 -23 c11 -18 -3 -61 -21 -65 -11 -2 -24 9 -34
29 -10 18 -18 35 -18 37 0 6 30 12 50 12 8 -1 19 -6 23 -13z m1057 2 c13 -16
3 -20 -24 -9 -9 3 -13 10 -10 15 8 13 20 11 34 -6z m-1250 -5 c0 -5 -13 -10
-30 -10 -16 0 -30 5 -30 10 0 6 14 10 30 10 17 0 30 -4 30 -10z m-713 -44
c-28 -26 -35 -46 -17 -46 6 0 10 -7 10 -16 0 -8 5 -12 10 -9 6 4 16 -7 23 -24
11 -25 16 -29 27 -18 10 10 12 9 7 -4 -3 -10 4 -26 19 -40 13 -12 24 -30 24
-40 0 -10 6 -22 13 -26 6 -4 25 -27 41 -51 19 -27 35 -41 43 -37 8 3 23 5 33
5 16 0 17 4 8 36 -13 48 0 61 41 44 35 -14 119 -6 147 15 15 11 16 15 5 29
-11 13 -11 21 1 46 7 17 18 28 25 25 7 -2 13 2 13 10 0 8 7 15 16 15 10 0 13
-6 9 -19 -4 -13 0 -20 16 -24 23 -6 21 -32 -3 -32 -20 0 -48 -24 -48 -41 0
-17 0 -17 43 1 20 8 50 15 68 15 19 0 43 10 61 25 46 38 67 32 112 -32 30 -44
36 -57 25 -64 -8 -4 -38 -26 -68 -48 l-55 -41 -103 0 c-74 0 -113 -4 -134 -15
l-30 -16 23 -32 c46 -65 140 -192 147 -197 29 -22 113 -122 107 -128 -11 -10
-122 113 -214 236 -42 56 -82 102 -90 102 -10 0 23 -49 120 -177 5 -6 5 -14 0
-17 -9 -6 -148 174 -144 188 3 9 -30 4 -60 -9 -11 -4 -18 -3 -18 4 0 5 18 15
41 21 38 10 40 12 23 25 -10 7 -22 11 -26 9 -5 -3 -8 1 -8 9 0 16 -57 29 -66
15 -11 -17 -41 -7 -62 22 -13 17 -28 30 -35 30 -16 0 -75 49 -59 50 7 0 25 -7
40 -16 26 -15 26 -15 5 1 -13 10 -23 25 -23 35 0 10 -16 32 -35 49 -19 17 -35
38 -35 47 0 13 -3 14 -13 5 -16 -13 -27 -5 -27 21 0 10 -4 18 -10 18 -5 0 -10
9 -10 21 0 22 57 86 67 75 3 -3 -6 -17 -20 -30z m773 27 c0 -14 -19 -38 -25
-32 -8 8 5 39 16 39 5 0 9 -3 9 -7z m-65 -24 c5 -6 3 -9 -7 -9 -24 0 -48 11
-48 22 0 10 39 1 55 -13z m235 -38 c0 -5 -12 -6 -27 -3 -24 5 -25 6 -8 12 21
8 35 4 35 -9z m-153 -58 c-8 -8 -57 44 -57 59 0 7 14 -3 31 -20 18 -18 29 -35
26 -39z m1271 7 c16 0 15 -17 0 -23 -7 -2 0 -8 15 -12 18 -5 33 -3 40 4 6 6
20 11 31 11 18 0 19 1 1 20 -10 11 -24 20 -32 20 -7 0 -13 5 -13 10 0 28 46 4
71 -37 24 -39 24 -39 -14 -48 -18 -5 -27 -3 -27 5 0 9 -4 9 -13 2 -21 -18 -81
0 -85 25 -2 12 -10 27 -18 33 -8 7 -14 17 -14 23 0 6 10 1 23 -11 13 -12 29
-22 35 -22z m-2625 -2 c7 -27 5 -30 -15 -23 -10 4 -14 14 -11 26 7 25 19 24
26 -3z m3816 -68 c1 -25 10 -94 22 -153 11 -60 18 -116 16 -125 -4 -14 -6 -13
-12 5 -4 13 -12 19 -21 16 -16 -6 -19 18 -3 34 7 7 6 35 -5 94 -13 75 -22 177
-17 204 5 23 20 -33 20 -75z m-3778 27 c-1 -12 -15 -9 -19 4 -3 6 1 10 8 8 6
-3 11 -8 11 -12z m2409 -94 c0 -45 -17 -41 -36 8 -15 35 -20 40 -40 35 -14 -4
-24 -2 -24 4 0 5 12 10 26 10 21 0 24 3 19 23 -5 18 0 15 24 -13 20 -23 31
-46 31 -67z m-1861 17 l22 -15 -30 -35 c-16 -19 -33 -32 -37 -27 -4 4 3 18 16
32 13 14 22 27 19 29 -2 2 -30 18 -62 36 -31 17 -55 36 -51 41 5 8 65 -22 123
-61z m-519 39 c0 -6 -4 -7 -10 -4 -5 3 -10 11 -10 16 0 6 5 7 10 4 6 -3 10
-11 10 -16z m2701 -11 c25 -31 24 -40 -10 -72 -22 -21 -34 -26 -55 -20 -18 4
-32 1 -44 -9 -10 -9 -27 -13 -44 -10 -24 5 -26 8 -21 42 7 42 19 61 41 61 12
0 11 -4 -6 -16 -24 -17 -29 -46 -9 -62 17 -14 47 9 47 36 0 11 12 30 28 43
l27 22 -52 -5 c-29 -3 -50 -1 -47 4 3 4 32 8 65 8 51 0 64 -4 80 -22z m-2751
-59 c0 -5 -4 -9 -10 -9 -5 0 -10 7 -10 16 0 8 5 12 10 9 6 -3 10 -10 10 -16z
m70 -19 c0 -5 -4 -10 -10 -10 -5 0 -10 5 -10 10 0 6 5 10 10 10 6 0 10 -4 10
-10z m-837 -62 c9 -7 17 -29 19 -48 3 -34 5 -35 66 -51 43 -11 74 -27 96 -48
22 -22 42 -31 64 -31 35 0 41 -10 17 -30 -11 -9 -15 -10 -15 0 0 6 -8 10 -17
8 -13 -2 -20 -16 -24 -48 -5 -39 -1 -53 34 -118 22 -41 48 -77 59 -80 57 -14
-29 -46 -132 -49 -47 -1 -91 -2 -97 -2 -9 -1 -13 -17 -13 -45 0 -39 -4 -46
-29 -59 -21 -11 -49 -13 -95 -10 -59 5 -69 3 -115 -25 -59 -37 -82 -33 -80 12
1 23 3 25 6 9 6 -30 24 -29 79 3 40 23 52 26 107 20 80 -8 110 7 112 55 3 67
4 68 42 75 28 5 39 3 49 -11 7 -9 18 -14 24 -10 7 4 31 7 54 7 22 -1 48 3 56
8 12 8 12 11 -2 27 -8 10 -23 32 -32 50 -10 21 -26 34 -45 38 -17 3 -41 15
-54 25 -23 18 -24 18 -53 -1 -30 -20 -94 -26 -94 -9 0 6 15 10 33 10 17 0 45
9 61 19 29 19 30 19 55 2 14 -10 37 -22 51 -26 22 -7 23 -6 11 9 -10 12 -12
33 -8 74 5 49 3 61 -16 83 -28 33 -51 45 -107 54 -59 10 -70 20 -70 66 0 38
-1 39 -37 39 -28 0 -34 3 -23 10 21 13 43 12 63 -2z m2192 -98 c4 -6 -5 -10
-20 -10 -15 0 -24 4 -20 10 3 6 12 10 20 10 8 0 17 -4 20 -10z m2477 -77 c76
-79 139 -155 133 -161 -7 -7 -125 115 -166 171 -29 39 -10 33 33 -10z m-4280
-123 c6 0 2 -10 -10 -23 -26 -27 -30 -70 -7 -61 8 4 21 1 29 -5 7 -6 21 -9 30
-5 9 3 24 3 34 -1 9 -5 23 -9 30 -11 17 -3 18 -4 26 -32 l7 -22 -37 25 c-26
18 -50 25 -83 25 -61 0 -85 17 -76 53 4 15 11 27 16 27 5 0 9 12 9 28 0 15 4
45 8 67 l7 40 3 -52 c2 -31 8 -53 14 -53z m2078 73 c-1 -24 -2 -26 -11 -10 -5
9 -7 22 -4 27 10 17 15 11 15 -17z m-2237 -23 c-3 -11 -7 -20 -9 -20 -2 0 -4
9 -4 20 0 11 4 20 9 20 5 0 7 -9 4 -20z m4057 10 c0 -5 -9 -10 -19 -10 -11 0
-23 5 -26 10 -4 6 5 10 19 10 14 0 26 -4 26 -10z m-1647 -7 c-7 -2 -19 -2 -25
0 -7 3 -2 5 12 5 14 0 19 -2 13 -5z m1685 -5 c17 -17 15 -33 -2 -19 -11 10
-16 8 -24 -6 -14 -25 -26 -9 -12 16 12 24 21 26 38 9z m-2252 -95 c-8 -8 -65
54 -66 72 0 5 17 -7 37 -27 20 -21 34 -41 29 -45z m-1818 48 c3 -8 -1 -12 -9
-9 -7 2 -15 10 -17 17 -3 8 1 12 9 9 7 -2 15 -10 17 -17z m4038 -5 c12 3 25 1
28 -5 4 -7 -1 -11 -14 -11 -11 0 -23 -7 -26 -15 -4 -8 -13 -15 -21 -15 -12 0
-13 3 -5 13 8 10 6 16 -9 25 -10 7 -19 17 -19 23 0 5 10 3 22 -5 12 -9 32 -13
44 -10z m-2346 2 c0 -6 7 -20 17 -30 21 -24 9 -36 -15 -15 -10 10 -22 14 -25
10 -4 -3 -7 3 -7 14 0 11 3 23 7 26 10 11 23 8 23 -5z m2258 1 c-2 -6 -8 -10
-13 -10 -5 0 -11 4 -13 10 -2 6 4 11 13 11 9 0 15 -5 13 -11z m165 -3 c22 -17
22 -26 -3 -26 -11 0 -20 2 -20 4 0 2 -3 11 -6 20 -7 19 5 20 29 2z m-3672 -82
c-30 -50 -20 -169 19 -222 14 -20 30 -46 34 -57 5 -13 10 -15 13 -7 11 30 21
8 19 -44 -2 -54 -2 -55 22 -49 27 7 26 16 6 -99 -5 -31 -2 -38 32 -68 21 -18
49 -59 65 -93 33 -73 50 -89 114 -105 72 -18 90 -45 75 -115 -8 -38 -8 -65 -1
-92 7 -24 7 -41 1 -47 -5 -5 -12 -8 -14 -5 -9 8 -10 104 -2 155 9 60 1 69 -73
89 -49 13 -50 12 -100 -21 -50 -34 -81 -43 -81 -24 0 6 5 10 12 10 6 0 33 14
60 31 46 30 48 33 32 50 -9 10 -27 40 -39 66 -12 26 -42 67 -65 90 -45 45 -45
42 -24 136 6 28 6 28 -15 15 -21 -12 -25 -10 -52 22 -31 37 -35 59 -18 91 9
17 5 28 -17 62 -25 38 -27 39 -40 22 -8 -10 -14 -25 -14 -32 0 -21 33 -82 42
-77 4 3 5 -2 2 -11 -4 -8 -1 -22 6 -30 6 -7 10 -24 8 -37 -4 -22 -5 -22 -12
-3 -4 11 -21 50 -38 86 l-31 67 19 46 c10 25 22 46 27 46 4 0 7 5 7 10 0 6 -7
10 -16 8 -10 -2 -19 3 -22 11 -3 10 0 12 13 7 15 -5 16 -4 5 9 -7 9 -10 26 -6
42 11 44 61 135 64 118 2 -9 -6 -31 -17 -51z m-425 18 c-9 -8 -26 10 -26 26 1
15 2 15 15 -2 8 -11 13 -21 11 -24z m4166 23 c7 -9 19 -23 27 -31 12 -14 12
-17 0 -24 -10 -7 -16 -3 -22 12 -7 21 -8 21 -37 -7 -23 -22 -30 -25 -30 -12 0
8 5 19 10 22 6 4 8 10 5 15 -3 5 -1 11 5 15 6 4 8 11 5 16 -10 15 23 10 37 -6z
m-62 -11 c0 -3 -7 -12 -15 -20 -8 -9 -15 -13 -15 -11 0 3 -3 12 -6 21 -4 12 0
16 15 16 12 0 21 -3 21 -6z m-4060 -41 c0 -13 -3 -13 -15 -3 -8 7 -15 16 -15
21 0 5 7 6 15 3 8 -4 15 -13 15 -21z m685 17 c3 -5 -3 -10 -15 -10 -12 0 -18
5 -15 10 3 6 10 10 15 10 5 0 12 -4 15 -10z m1175 -11 c0 -5 -4 -9 -10 -9 -5
0 -10 7 -10 16 0 8 5 12 10 9 6 -3 10 -10 10 -16z m-140 -44 c-13 -14 -18 -25
-12 -25 7 0 12 -4 12 -10 0 -16 -17 -11 -24 7 -6 16 32 68 42 58 3 -3 -5 -16
-18 -30z m1210 25 c0 -13 -30 -13 -50 0 -11 7 -7 10 18 10 17 0 32 -4 32 -10z
m1190 -31 c-7 -11 -14 -18 -17 -15 -8 8 5 36 17 36 7 0 7 -6 0 -21z m-3870
-11 c0 -13 -23 -5 -28 10 -2 7 2 10 12 6 9 -3 16 -11 16 -16z m50 -18 c8 -5
12 -12 9 -15 -8 -8 -39 5 -39 16 0 11 11 11 30 -1z m2660 -9 c0 -12 -53 -21
-130 -21 -70 0 -88 -11 -69 -41 13 -21 11 -39 -5 -33 -15 6 -32 72 -21 83 4 3
48 9 98 12 51 3 100 6 110 7 9 1 17 -2 17 -7z m-1121 -30 c-15 -5 -22 6 -14
19 6 9 10 9 16 -1 5 -8 4 -15 -2 -18z m-2579 -11 c0 -5 -5 -10 -11 -10 -6 0
-8 -7 -5 -15 19 -48 20 -51 3 -35 -9 8 -19 27 -22 43 -6 23 -4 27 14 27 12 0
21 -4 21 -10z m98 -62 c-5 -15 -78 -23 -78 -9 0 5 15 12 33 14 17 2 36 5 40 5
5 1 7 -3 5 -10z m2527 -8 c23 -25 12 -39 -13 -16 -12 10 -26 14 -38 9 -17 -6
-17 -5 -5 10 18 22 34 21 56 -3z m-2798 -80 c-1 -15 -7 -20 -22 -18 -11 1 -26
-1 -33 -6 -7 -4 -16 -5 -19 -2 -9 9 30 36 44 31 7 -2 15 0 18 5 10 16 14 12
12 -10z m2773 -181 c0 -16 -4 -29 -10 -29 -5 0 -10 16 -10 36 0 21 4 33 10 29
6 -3 10 -19 10 -36z m1553 -166 c5 -123 -6 -169 -16 -70 -6 53 -11 224 -7 242
6 29 19 -65 23 -172z m-2106 100 c-3 -10 -5 -2 -5 17 0 19 2 27 5 18 2 -10 2
-26 0 -35z m-1517 -31 c0 -22 82 -113 125 -139 19 -11 19 -12 -3 -12 -35 -1
-138 101 -146 145 -8 39 1 64 15 43 5 -8 9 -24 9 -37z m4200 39 c0 -5 -6 -11
-14 -14 -8 -3 -16 -18 -19 -34 l-4 -28 -2 31 c0 16 4 35 11 42 14 14 28 16 28
3z m-4460 -39 c0 -5 -42 -37 -92 -72 -51 -35 -110 -77 -130 -93 -21 -16 -38
-25 -37 -20 2 28 26 51 123 118 103 70 136 87 136 67z m3674 -41 c-2 -38 0
-41 25 -43 14 0 36 0 49 1 21 2 22 0 12 -19 -6 -11 -8 -26 -4 -32 4 -6 8 -31
10 -55 2 -38 -1 -43 -16 -38 -17 5 -18 -3 -13 -122 7 -174 10 -185 59 -200 21
-6 67 -12 102 -12 37 -1 62 -5 62 -12 0 -7 -31 -10 -87 -10 -49 1 -121 -1
-160 -3 -42 -3 -73 -1 -73 5 0 13 -34 11 -49 -3 -11 -11 -13 -10 -8 4 4 12 0
18 -16 20 -16 2 -22 11 -24 36 -2 18 2 32 9 32 6 0 -7 12 -28 26 -21 15 -41
30 -44 34 -14 22 -85 70 -97 66 -7 -3 -13 -1 -13 4 0 6 -9 10 -20 10 -14 0
-18 -5 -13 -16 3 -9 0 -20 -8 -25 -11 -7 -11 -9 4 -9 12 0 17 -8 17 -30 0 -21
-5 -30 -17 -30 -9 0 -24 -7 -33 -15 -16 -14 -20 -12 -45 20 -33 44 -26 59 9
19 14 -16 26 -23 26 -16 0 6 11 12 25 12 14 0 25 5 25 10 0 6 -9 10 -20 10
-17 0 -20 6 -17 35 1 19 5 35 10 35 4 0 7 7 7 16 0 8 5 12 11 8 6 -3 15 0 20
7 8 12 11 12 19 -1 6 -10 10 -11 10 -2 0 6 6 12 13 12 18 0 73 -47 65 -56 -5
-4 -16 0 -26 9 -10 10 -22 17 -26 17 -4 0 26 -27 67 -60 41 -33 84 -60 95 -60
15 0 18 -5 14 -25 -2 -14 -8 -25 -13 -25 -5 0 -9 -7 -9 -15 0 -10 10 -15 29
-15 17 0 33 -5 36 -11 4 -6 13 -8 20 -5 8 3 15 1 17 -4 4 -11 58 -1 58 11 0 5
-7 9 -15 9 -8 0 -15 5 -15 11 0 7 9 9 21 6 21 -6 22 -4 15 61 -3 37 -6 104 -6
150 0 74 -2 83 -17 80 -10 -1 -24 2 -32 7 -10 5 -16 4 -19 -3 -2 -7 -9 -9 -15
-5 -15 10 -67 13 -67 4 0 -4 -32 -7 -71 -8 -57 -2 -70 1 -65 12 2 7 0 16 -7
19 -9 3 -8 8 3 15 12 9 13 12 1 20 -9 6 -10 11 -2 15 6 4 7 15 2 29 -5 12 -7
38 -6 57 1 19 -2 40 -7 47 -5 7 -5 14 2 18 5 3 10 2 10 -4 0 -9 99 -6 109 4 2
3 11 0 18 -7 10 -8 17 -8 21 -1 4 6 22 9 40 8 18 -1 35 2 38 7 11 18 20 -2 18
-41z m1243 24 c50 -18 79 -45 48 -45 -8 0 -15 4 -15 8 0 5 -25 16 -55 26 -30
9 -55 22 -55 28 0 5 6 8 13 6 6 -3 35 -13 64 -23z m-2084 -102 c39 -79 58
-107 70 -105 19 3 23 -14 6 -20 -8 -3 -4 -18 10 -46 31 -61 14 -74 -20 -16
-16 27 -29 42 -29 33 0 -9 3 -19 7 -23 4 -4 9 -19 11 -34 4 -35 5 -36 63 -39
l50 -3 -5 52 c-14 133 -17 248 -8 248 9 0 21 -114 25 -255 l2 -60 -64 0 -64 0
-12 35 c-6 19 -19 36 -28 38 -12 2 -15 -1 -11 -12 7 -17 -15 -22 -32 -7 -5 5
-26 14 -46 20 -28 9 -38 19 -43 42 -7 32 -29 38 -44 12 -9 -16 -12 -16 -21 -3
-7 11 -10 6 -10 -22 0 -21 5 -38 10 -38 6 0 10 -7 10 -16 0 -13 9 -15 50 -12
34 2 50 -1 50 -9 0 -7 19 -30 43 -52 37 -36 41 -42 30 -60 -7 -12 -13 -33 -13
-47 0 -23 3 -26 25 -22 19 4 25 1 25 -13 0 -11 -4 -19 -10 -19 -5 0 -10 -14
-10 -31 0 -20 4 -29 12 -27 12 4 38 -14 38 -26 0 -3 -7 -6 -15 -6 -8 0 -15 5
-15 10 0 6 -7 10 -15 10 -16 0 -30 41 -22 69 3 12 -1 18 -12 17 -20 -1 -28 68
-11 89 9 11 6 20 -15 41 -14 14 -29 23 -32 20 -4 -4 -1 -12 5 -18 7 -7 12 -40
12 -77 0 -61 -13 -76 -22 -26 -2 11 -8 20 -15 20 -6 0 -15 3 -19 7 -4 4 -13 3
-21 -3 -14 -12 -16 -8 -13 34 2 27 0 28 -36 25 l-38 -3 3 -47 c1 -30 -2 -48
-8 -48 -6 0 -12 21 -13 48 0 26 -2 58 -4 72 -10 94 -6 152 12 190 10 22 25 40
32 40 6 0 12 7 12 15 0 8 5 15 10 15 6 0 10 -9 10 -20 0 -18 7 -20 80 -20 l81
0 -7 38 c-4 20 -11 40 -17 43 -13 9 -46 109 -36 109 5 0 33 -48 62 -107z
m-503 70 c0 -20 -3 -24 -11 -16 -7 7 -9 19 -6 27 10 24 17 19 17 -11z m417
-115 c-3 -7 -5 -2 -5 12 0 14 2 19 5 13 2 -7 2 -19 0 -25z m1743 24 c0 -9 -76
-52 -93 -52 -6 0 0 11 13 25 13 14 30 23 37 21 7 -3 15 -1 18 4 7 12 25 13 25
2z m-1407 -154 c3 -62 10 -125 16 -140 6 -15 6 -30 2 -33 -17 -10 -33 62 -38
179 -4 79 -3 117 4 113 5 -4 13 -57 16 -119z m861 61 c9 -92 7 -179 -4 -179
-6 0 -10 26 -10 59 0 32 -3 86 -6 120 -4 38 -3 61 3 61 6 0 13 -28 17 -61z
m751 5 c98 -78 154 -133 175 -174 35 -67 150 -395 150 -425 l-1 -30 -13 25
c-7 14 -37 91 -66 173 -42 116 -57 147 -71 147 -10 0 -48 -10 -84 -21 -60 -20
-65 -24 -65 -50 0 -16 -4 -29 -10 -29 -5 0 -10 14 -10 30 l0 30 -77 0 c-68 0
-82 3 -108 25 -34 27 -18 34 21 9 21 -14 41 -16 125 -10 55 3 116 13 136 21
19 8 46 15 59 15 l24 0 -34 68 c-29 57 -49 79 -135 150 -91 75 -116 102 -93
102 4 0 39 -25 77 -56z m-475 36 c8 -5 12 -12 9 -15 -8 -8 -39 5 -39 16 0 11
11 11 30 -1z m53 -22 c8 -34 12 -216 5 -224 -9 -9 -17 47 -21 154 -3 87 4 119
16 70z m-613 -168 c0 -5 -10 -10 -22 -10 -13 0 -53 -3 -90 -7 -46 -4 -68 -2
-68 5 0 10 39 16 138 20 23 1 42 -2 42 -8z m-2745 -45 c140 -29 193 -36 238
-31 37 4 56 2 52 -4 -3 -6 -12 -10 -20 -10 -16 0 -29 -51 -20 -80 3 -11 15
-20 26 -20 12 0 19 -7 19 -18 0 -29 36 -58 54 -43 8 6 18 11 22 10 5 -1 17 1
27 6 24 10 66 -13 80 -42 6 -13 16 -23 22 -23 7 0 15 -9 18 -20 5 -21 46 -43
117 -61 26 -8 38 -14 28 -16 -32 -8 -126 26 -146 52 -11 14 -24 25 -28 25 -5
1 -18 15 -29 33 -16 24 -27 31 -45 29 -14 -1 -33 -3 -42 -3 -10 0 -20 -4 -23
-10 -12 -18 -33 -8 -56 26 -13 19 -32 35 -41 35 -15 0 -18 9 -18 55 0 54 -1
55 -27 54 -16 -1 -120 17 -233 39 l-205 41 -320 -15 c-459 -22 -455 -21 -478
-50 -21 -28 -112 -77 -130 -71 -6 2 11 16 38 32 28 15 64 40 80 55 25 23 43
29 105 35 134 12 623 33 690 30 36 -2 146 -20 245 -40z m1627 10 c20 0 15 -13
-7 -17 -20 -4 -25 -1 -25 14 0 13 4 17 13 11 6 -4 15 -8 19 -8z m648 -22 c0
-21 -2 -24 -15 -13 -12 10 -15 9 -15 -5 0 -9 -6 -15 -12 -12 -7 2 -24 -6 -38
-19 -24 -22 -31 -23 -85 -16 l-60 7 -3 43 c-2 26 1 42 8 42 7 0 10 -13 8 -32
-3 -31 -1 -33 42 -40 31 -5 46 -4 51 4 5 7 11 9 15 5 11 -10 34 13 34 33 0 13
6 17 20 13 12 -3 22 1 26 11 9 23 24 10 24 -21z m-4510 -12 c0 -6 -4 -13 -10
-16 -5 -3 -10 1 -10 9 0 9 5 16 10 16 6 0 10 -4 10 -9z m3886 -18 c-10 -10
-19 5 -10 18 6 11 8 11 12 0 2 -7 1 -15 -2 -18z m-546 -108 c57 -57 101 -108
97 -112 -4 -4 -55 40 -112 97 -83 83 -107 102 -117 92 -10 -10 9 -34 92 -117
57 -57 101 -108 97 -112 -4 -4 -55 40 -112 97 l-104 104 -49 -45 c-27 -24 -53
-53 -57 -64 -7 -19 -7 -19 -12 -1 -4 13 16 39 68 92 41 41 80 74 89 74 8 0 62
-47 120 -105z m440 92 c0 -1 -4 -17 -9 -35 -6 -18 -6 -30 -1 -27 4 2 10 -4 13
-15 6 -23 -10 -37 -25 -22 -6 6 -17 8 -24 5 -15 -6 -11 9 18 69 10 22 28 38
28 25z m-50 -23 c0 -19 -24 -44 -42 -44 -21 0 -21 0 3 24 24 23 39 32 39 20z
m-3846 -55 c-21 -24 -29 -18 -14 10 6 12 16 19 21 15 6 -4 4 -13 -7 -25z
m1176 11 c0 -5 -4 -10 -10 -10 -5 0 -10 5 -10 10 0 6 5 10 10 10 6 0 10 -4 10
-10z m2507 -26 c16 -4 28 -2 34 7 13 21 12 -27 -2 -52 -6 -11 -12 -37 -14 -57
-2 -20 -11 -55 -21 -77 -10 -22 -18 -47 -18 -55 -2 -27 -36 -22 -77 11 -49 39
-52 36 -69 -73 -7 -43 -16 -81 -21 -84 -12 -7 -11 8 6 106 8 46 22 91 30 99
13 14 19 11 53 -22 39 -38 66 -49 56 -22 -4 8 -1 15 5 15 6 0 11 9 11 20 0 11
4 20 9 20 14 0 21 43 10 57 -8 9 -6 19 5 35 24 33 20 45 -19 58 -19 6 -35 16
-35 22 0 6 7 7 16 4 9 -3 27 -9 41 -12z m1030 -58 c-4 -9 -13 -13 -22 -10 -20
8 -19 22 3 26 22 5 26 2 19 -16z m1913 -5 c0 -12 -20 -25 -27 -18 -7 7 6 27
18 27 5 0 9 -4 9 -9z m-5687 -22 c-14 -14 -204 -71 -211 -64 -9 9 4 15 94 41
49 14 96 30 104 34 19 11 27 3 13 -11z m6057 -39 c0 -5 -7 -10 -15 -10 -8 0
-15 5 -15 10 0 6 7 10 15 10 8 0 15 -4 15 -10z m-2666 -46 c31 -14 54 -29 51
-34 -5 -8 -110 33 -129 51 -20 18 23 9 78 -17z m-4338 -17 c9 -19 32 -42 51
-52 46 -25 83 -70 76 -93 -4 -17 16 -128 52 -284 7 -32 9 -58 5 -58 -5 0 -11
4 -14 8 -3 6 -53 252 -72 357 -2 11 -24 33 -49 49 -43 27 -99 106 -75 106 6 0
17 -15 26 -33z m1224 14 c0 -5 -7 -11 -15 -15 -15 -5 -20 5 -8 17 9 10 23 9
23 -2z m55 -1 c3 -5 -3 -10 -14 -10 -12 0 -21 5 -21 10 0 6 6 10 14 10 8 0 18
-4 21 -10z m65 -10 c0 -5 -9 -10 -20 -10 -11 0 -20 5 -20 10 0 6 9 10 20 10
11 0 20 -4 20 -10z m1740 1 c0 -5 -9 -11 -20 -14 -20 -5 -26 3 -13 16 9 10 33
8 33 -2z m-1680 -11 c0 -5 -9 -10 -20 -10 -11 0 -20 5 -20 10 0 6 9 10 20 10
11 0 20 -4 20 -10z m2827 -51 c2 -52 0 -59 -15 -55 -9 3 -28 8 -42 11 -22 5
-26 12 -28 50 -2 44 -1 44 36 48 20 2 39 4 42 5 3 1 6 -25 7 -59z m-3061 23
c-8 -9 -19 -13 -22 -9 -10 9 16 38 28 31 6 -4 4 -13 -6 -22z m-211 -2 c-3 -5
-15 -10 -26 -10 -11 0 -17 5 -14 10 3 6 15 10 26 10 11 0 17 -4 14 -10z m60 0
c3 -5 -3 -10 -14 -10 -11 0 -23 5 -26 10 -3 6 3 10 14 10 11 0 23 -4 26 -10z
m3641 -90 c110 -49 220 -101 245 -114 49 -26 89 -25 89 1 0 11 7 13 33 8 43
-10 44 -10 51 -45 9 -48 -38 -130 -75 -130 -10 0 -23 10 -30 23 -6 12 -29 41
-51 64 -22 22 -37 46 -34 52 7 11 -78 54 -321 161 -108 47 -145 70 -114 70 5
0 98 -40 207 -90z m-3591 69 c11 -17 0 -20 -21 -4 -17 13 -17 14 -2 15 9 0 20
-5 23 -11z m51 -4 c-11 -8 -22 -12 -25 -9 -6 6 19 24 34 24 6 -1 1 -7 -9 -15z
m2874 -41 c0 -24 -4 -44 -10 -44 -5 0 -10 23 -10 51 0 31 4 48 10 44 6 -3 10
-26 10 -51z m2830 26 c0 -5 -2 -10 -4 -10 -3 0 -8 5 -11 10 -3 6 -1 10 4 10 6
0 11 -4 11 -10z m423 4 c13 -14 -178 -388 -193 -379 -6 3 26 77 69 163 43 86
84 172 91 190 12 31 21 38 33 26z m-705 -174 c94 -257 192 -520 214 -572 29
-68 135 -158 186 -158 66 0 142 -13 142 -23 0 -15 -173 -1 -207 17 -37 19
-117 102 -137 143 -38 76 -266 704 -266 734 0 18 2 30 4 28 3 -2 32 -79 64
-169z m-6344 59 c-3 -5 -10 -7 -15 -3 -5 3 -7 10 -3 15 3 5 10 7 15 3 5 -3 7
-10 3 -15z m4066 -11 c0 -4 -4 -8 -10 -8 -5 0 -10 -19 -10 -43 0 -70 -50 -117
-126 -117 -55 0 -112 -20 -117 -41 -8 -29 -27 -23 -27 9 l-1 27 -16 -30 c-8
-16 -17 -31 -18 -33 -4 -5 -65 33 -65 41 0 4 15 7 34 7 18 0 39 7 46 15 8 10
17 12 28 6 9 -5 23 -6 32 -1 8 4 45 11 81 14 54 6 71 12 93 35 26 27 37 80 22
112 -5 12 -1 16 24 16 16 0 30 -4 30 -9z m-2304 -23 c-2 -13 -8 -30 -13 -37
-18 -22 -118 -221 -138 -273 -32 -84 -35 -119 -46 -455 -5 -179 -13 -391 -17
-472 l-7 -148 -47 -47 c-26 -26 -50 -44 -53 -41 -4 3 11 35 33 70 22 34 42 72
45 83 3 11 8 93 11 181 3 89 8 168 10 175 3 8 7 133 9 279 4 282 11 333 60
430 104 207 144 280 152 280 2 0 2 -11 1 -25z m1959 -10 c0 -29 -2 -30 -52
-33 -53 -3 -53 -3 -53 27 0 26 4 30 33 34 62 8 72 4 72 -28z m80 15 c3 -5 -1
-10 -9 -10 -19 0 -21 -11 -5 -27 13 -13 3 -53 -13 -53 -5 0 -8 6 -5 14 6 16
-14 66 -26 66 -5 0 -5 5 -2 10 3 6 17 10 30 10 13 0 27 -4 30 -10z m2462 -22
c-3 -7 -5 -2 -5 12 0 14 2 19 5 13 2 -7 2 -19 0 -25z m-23 -9 c16 -15 17 -21
6 -33 -7 -9 -28 -16 -46 -16 -27 0 -36 6 -49 30 -9 18 -23 30 -35 30 -11 0
-20 4 -20 9 0 17 124 0 144 -20z m425 -30 c13 -17 20 -33 16 -37 -7 -8 -55 43
-55 59 0 17 15 8 39 -22z m-6779 -80 c0 -10 -4 -19 -10 -19 -5 0 -10 12 -10
26 0 14 4 23 10 19 6 -3 10 -15 10 -26z m7278 -46 c3 -29 -2 -36 -32 -54 -20
-12 -37 -25 -37 -30 -1 -5 -2 -13 -3 -18 -2 -16 -16 -25 -16 -10 0 8 -13 20
-30 27 -36 16 -37 24 -7 37 13 6 22 19 22 31 1 35 22 52 63 50 34 -1 37 -4 40
-33z m-7103 -50 c-4 -32 -18 -91 -32 -132 l-26 -74 17 -111 c9 -61 16 -152 16
-202 0 -58 4 -94 12 -102 10 -10 10 -15 -2 -22 -30 -19 -35 -4 -31 98 2 62 -3
145 -14 219 l-18 118 26 80 c13 44 28 104 32 133 4 28 11 52 17 52 7 0 8 -20
3 -57z m861 -24 c2 -35 5 -40 15 -33 7 4 10 1 7 -7 -5 -16 -44 -19 -41 -3 1 6
-8 10 -20 10 -13 -1 -23 6 -25 16 -2 13 1 16 12 12 10 -4 18 0 22 10 8 20 28
16 30 -5z m2406 -32 c-14 -16 -6 -28 13 -21 7 3 16 1 20 -5 3 -6 14 -11 25
-11 10 0 40 -19 67 -41 36 -31 59 -42 90 -45 23 -2 45 1 48 6 3 6 21 10 39 10
19 0 46 6 61 14 37 20 71 3 96 -46 11 -21 23 -38 28 -38 16 0 70 -144 69 -181
-2 -29 11 -56 62 -134 35 -54 63 -104 63 -110 0 -20 -56 -155 -65 -155 -12 0
-10 7 18 78 l26 65 -45 41 c-24 22 -56 62 -71 87 -20 35 -31 46 -45 42 -24 -6
-35 11 -22 34 10 20 -12 62 -23 44 -3 -5 0 -11 6 -14 10 -3 10 -8 2 -17 -9 -9
-16 -8 -32 6 -20 17 -20 17 6 41 l26 24 18 -23 c10 -13 18 -26 18 -29 0 -4 7
-10 16 -13 13 -5 12 1 -5 26 -12 18 -36 57 -54 86 -17 28 -35 52 -38 52 -4 0
-59 -29 -122 -65 -130 -73 -147 -81 -147 -67 0 6 35 29 78 52 42 24 105 58
139 77 l61 34 47 -76 c46 -73 65 -91 65 -60 0 22 -57 145 -68 145 -4 0 -16 15
-25 34 -22 48 -46 59 -83 40 -16 -8 -31 -20 -35 -26 -7 -11 -28 -12 -99 -5
-53 4 -78 16 -118 56 -30 31 -131 67 -158 57 -25 -10 -15 8 18 31 33 23 49 23
30 0z m-2269 -8 c-1 -8 -5 -26 -9 -41 -6 -26 -5 -27 25 -18 21 6 31 5 31 -2 0
-6 7 -16 17 -23 19 -14 8 -39 -13 -31 -8 3 -14 1 -14 -4 0 -5 -8 -7 -17 -3
-16 6 -16 4 1 -15 23 -26 44 -29 42 -4 -1 11 4 15 14 13 8 -3 32 -4 53 -3 23
1 35 -2 32 -8 -3 -6 -15 -10 -26 -10 -13 0 -18 -4 -13 -11 5 -9 -1 -10 -21 -5
-27 7 -27 6 -21 -29 l7 -36 -46 7 c-46 6 -47 6 -36 -15 7 -11 16 -21 21 -21 6
0 10 -4 10 -10 0 -5 -8 -10 -17 -10 -14 0 -13 -3 5 -23 27 -28 28 -42 5 -45
-10 -1 -35 -4 -55 -8 -26 -4 -38 -2 -38 6 0 6 8 9 18 6 9 -3 28 1 42 9 24 14
24 16 -2 19 -7 0 -13 12 -13 26 0 17 -5 24 -15 21 -8 -2 -23 -3 -32 -3 -20 1
-58 -42 -59 -67 0 -12 -2 -11 -9 4 -5 13 -3 28 6 41 12 20 11 22 -6 27 -11 3
-20 11 -20 17 0 8 6 9 18 5 41 -18 73 -17 90 1 9 11 17 25 18 32 2 27 4 32 15
32 6 0 9 -7 5 -15 -6 -17 11 -20 34 -5 21 13 2 42 -33 51 -24 6 -27 5 -27 -18
0 -22 -3 -24 -24 -19 -19 5 -25 1 -30 -19 -7 -26 -27 -31 -73 -19 -19 5 -20 9
-10 28 7 11 18 29 26 39 10 11 10 17 3 17 -7 0 -12 -4 -12 -10 0 -13 -37 -13
-45 -1 -3 5 -1 13 5 16 8 5 6 15 -5 31 -14 21 -14 24 0 24 17 0 21 35 5 45
-21 13 -9 23 15 12 15 -7 25 -20 25 -33 0 -12 7 -27 15 -34 13 -10 15 -9 15 9
0 15 6 20 21 18 12 -1 24 4 26 11 3 6 -3 12 -12 12 -9 0 -13 5 -10 10 3 6 13
10 21 10 8 0 23 9 35 21 22 22 45 21 42 -2z m5307 -48 c0 -4 -20 -8 -45 -9
-28 0 -45 4 -45 11 0 8 15 11 45 9 25 -2 45 -7 45 -11z m-6063 -85 c-3 -7 -1
-18 4 -23 12 -12 -21 -84 -36 -79 -18 5 -18 46 0 46 9 0 13 5 10 10 -4 6 -15
8 -26 5 -14 -5 -17 -3 -13 9 3 9 17 19 30 22 13 3 24 10 24 15 0 5 3 9 6 9 3
0 4 -6 1 -14z m2271 -146 c8 -16 11 -39 7 -50 -8 -27 16 -27 40 0 10 11 23 20
28 20 6 0 2 -9 -8 -20 -17 -19 -17 -21 1 -42 34 -39 79 -77 97 -83 9 -4 17
-11 17 -16 0 -21 -31 -6 -77 37 -28 25 -65 53 -84 62 -29 15 -34 21 -31 49 2
17 -2 34 -7 38 -13 7 -15 35 -3 35 4 0 13 -13 20 -30z m-1928 -41 c38 -32 60
-64 95 -135 41 -84 81 -134 117 -147 7 -2 10 -7 6 -11 -10 -12 -65 21 -86 51
-11 16 -38 64 -60 109 -28 57 -54 91 -86 118 -41 33 -57 56 -40 56 3 0 28 -19
54 -41z m-354 -91 c-1 -13 -7 -21 -12 -19 -5 2 -15 6 -21 8 -7 3 -13 10 -13
15 0 6 7 8 15 5 8 -4 17 -2 20 3 10 17 15 11 11 -12z m-74 -30 c-6 -6 -15 -8
-19 -4 -4 4 -1 11 7 16 19 12 27 3 12 -12z m-22 -38 c0 -5 -9 -10 -21 -10 -11
0 -17 5 -14 10 3 6 13 10 21 10 8 0 14 -4 14 -10z m-450 -40 c0 -11 -4 -20
-10 -20 -5 0 -10 9 -10 20 0 11 5 20 10 20 6 0 10 -9 10 -20z m406 -17 c-11
-11 -19 6 -11 24 8 17 8 17 12 0 3 -10 2 -21 -1 -24z m34 -4 c0 -11 -4 -17
-10 -14 -5 3 -10 13 -10 21 0 8 5 14 10 14 6 0 10 -9 10 -21z m540 -4 c-7 -8
-17 -15 -22 -15 -6 0 -5 7 2 15 7 8 17 15 22 15 6 0 5 -7 -2 -15z m-984 -52
c-11 -11 -19 6 -11 24 8 17 8 17 12 0 3 -10 2 -21 -1 -24z m962 -6 c14 -40 15
-57 3 -57 -5 0 -11 12 -13 28 -3 15 -9 35 -13 45 -4 9 -3 17 2 17 5 0 14 -15
21 -33z m-628 -9 c-1 -26 -3 -30 -10 -16 -6 9 -7 23 -4 32 9 25 14 19 14 -16z
m130 18 c0 -24 -17 -28 -23 -6 -3 13 0 20 9 20 8 0 14 -6 14 -14z m45 -26 c3
-5 -3 -10 -14 -10 -12 0 -21 5 -21 10 0 6 6 10 14 10 8 0 18 -4 21 -10z m425
1 c0 -12 -20 -25 -27 -18 -7 7 6 27 18 27 5 0 9 -4 9 -9z m-930 -10 c0 -5 -7
-14 -15 -21 -16 -14 -18 -10 -9 14 6 17 24 22 24 7z m535 -31 c-6 -9 -9 -9
-16 1 -10 17 0 34 13 21 6 -6 7 -16 3 -22z m43 -8 c2 -7 -2 -10 -12 -6 -9 3
-16 11 -16 16 0 13 23 5 28 -10z m302 -7 c-7 -9 -15 -13 -18 -10 -3 2 1 11 8
20 7 9 15 13 18 10 3 -2 -1 -11 -8 -20z m-908 -16 c5 -3 6 -13 2 -22 -5 -13
-9 -14 -25 -4 -10 6 -19 19 -19 29 0 19 23 30 29 14 2 -6 8 -14 13 -17z m663
21 c3 -5 -3 -10 -14 -10 -12 0 -21 5 -21 10 0 6 6 10 14 10 8 0 18 -4 21 -10z
m-609 -22 c-10 -6 -20 -7 -24 -3 -9 8 20 25 31 18 5 -3 2 -10 -7 -15z m809 2
c-3 -5 -13 -10 -21 -10 -8 0 -12 5 -9 10 3 6 13 10 21 10 8 0 12 -4 9 -10z
m122 -15 c-4 -8 -11 -15 -17 -15 -6 0 -6 7 2 20 14 22 24 19 15 -5z m-297 2
c8 -7 16 -20 18 -30 3 -15 0 -17 -15 -9 -10 5 -23 7 -29 5 -7 -2 -10 5 -7 22
6 28 11 30 33 12z m-580 -7 c0 -5 -7 -10 -15 -10 -8 0 -15 5 -15 10 0 6 7 10
15 10 8 0 15 -4 15 -10z m55 0 c-3 -5 -13 -10 -21 -10 -8 0 -12 5 -9 10 3 6
13 10 21 10 8 0 12 -4 9 -10z m485 1 c0 -12 -20 -25 -27 -18 -7 7 6 27 18 27
5 0 9 -4 9 -9z m6660 -23 c0 -5 -4 -6 -10 -3 -5 3 -10 0 -10 -8 0 -8 -7 -20
-15 -27 -12 -10 -15 -10 -15 3 0 9 5 27 12 41 9 20 14 23 25 15 7 -6 13 -16
13 -21z m-7107 -3 c4 -8 2 -17 -3 -20 -6 -4 -10 -4 -10 -1 0 2 -3 11 -6 20 -3
9 -2 16 4 16 5 0 12 -7 15 -15z m547 0 c0 -9 -6 -12 -15 -9 -8 4 -15 10 -15
15 0 5 7 9 15 9 8 0 15 -7 15 -15z m74 4 c-3 -6 0 -15 7 -20 10 -6 6 -9 -14
-9 -25 0 -27 2 -17 20 6 11 15 20 21 20 6 0 7 -5 3 -11z m-884 -25 c0 -8 -4
-14 -10 -14 -5 0 -10 9 -10 21 0 11 5 17 10 14 6 -3 10 -13 10 -21z m1010 11
c-7 -8 -17 -15 -22 -15 -6 0 -5 7 2 15 7 8 17 15 22 15 6 0 5 -7 -2 -15z
m-882 -12 c-13 -16 -20 -16 -43 1 -18 13 -17 14 17 13 29 -1 35 -4 26 -14z
m532 2 c-7 -8 -17 -15 -22 -15 -6 0 -5 7 2 15 7 8 17 15 22 15 6 0 5 -7 -2
-15z m180 5 c0 -5 -4 -10 -10 -10 -5 0 -10 5 -10 10 0 6 5 10 10 10 6 0 10 -4
10 -10z m-130 -25 c-7 -9 -15 -13 -17 -11 -7 7 7 26 19 26 6 0 6 -6 -2 -15z
m60 7 c0 -10 -22 -32 -32 -32 -5 0 -3 9 4 20 13 20 28 27 28 12z m175 -2 c4
-6 10 -8 15 -5 14 9 21 -12 7 -23 -8 -7 -19 -2 -37 14 -20 19 -21 24 -8 24 9
0 20 -5 23 -10z m-651 -16 c9 -24 7 -28 -9 -14 -17 14 -20 30 -6 30 5 0 12 -7
15 -16z m-204 -9 c-7 -8 -17 -15 -22 -15 -6 0 -5 7 2 15 7 8 17 15 22 15 6 0
5 -7 -2 -15z m550 -16 c0 -10 -4 -19 -10 -19 -5 0 -10 12 -10 26 0 14 4 23 10
19 6 -3 10 -15 10 -26z m100 -9 c0 -5 -9 -6 -20 -3 -11 3 -17 9 -15 14 7 10
35 1 35 -11z m-400 -22 c0 -6 -7 -5 -15 2 -8 7 -15 17 -15 22 0 6 7 5 15 -2 8
-7 15 -17 15 -22z m-257 -3 c-5 -13 -23 -22 -23 -11 0 15 14 35 21 31 4 -3 6
-12 2 -20z m857 16 c0 -12 -20 -25 -27 -18 -7 7 6 27 18 27 5 0 9 -4 9 -9z
m2149 -19 c14 -27 -1 -46 -20 -24 -29 34 -31 42 -10 42 11 0 25 -8 30 -18z
m822 7 c23 -12 18 -45 -10 -66 -25 -19 -33 -15 -20 9 10 19 8 25 -17 45 l-29
23 28 0 c16 0 37 -5 48 -11z m-3270 -42 c-8 -8 -11 -3 -11 19 1 25 2 27 11 11
8 -14 8 -22 0 -30z m169 27 c0 -9 -5 -14 -12 -12 -18 6 -21 28 -4 28 9 0 16
-7 16 -16z m25 6 c3 -5 1 -10 -4 -10 -6 0 -11 5 -11 10 0 6 2 10 4 10 3 0 8
-4 11 -10z m-465 -36 c0 -8 -4 -12 -10 -9 -5 3 -10 13 -10 21 0 8 5 12 10 9 6
-3 10 -13 10 -21z m525 16 c-3 -5 -13 -10 -21 -10 -8 0 -14 5 -14 10 0 6 9 10
21 10 11 0 17 -4 14 -10z m-835 -13 c0 -20 -9 -25 -31 -20 -33 9 -21 25 24 32
4 0 7 -5 7 -12z m760 -39 c0 -5 -4 -8 -10 -8 -5 0 -10 10 -10 23 0 18 2 19 10
7 5 -8 10 -18 10 -22z m-194 -15 c-11 -11 -19 6 -11 24 8 17 8 17 12 0 3 -10
2 -21 -1 -24z m-226 -5 c0 -5 -4 -8 -10 -8 -5 0 -10 10 -10 23 0 18 2 19 10 7
5 -8 10 -18 10 -22z m-374 -6 c-8 -9 -19 -13 -22 -9 -10 9 16 38 28 31 6 -4 4
-13 -6 -22z m3835 -19 c-10 -17 -10 -16 -11 3 0 23 13 41 18 25 2 -6 -1 -18
-7 -28z m-3011 -10 c0 -13 -3 -13 -15 -3 -8 7 -15 19 -15 27 0 13 3 13 15 3 8
-7 15 -19 15 -27z m-430 -3 c0 -5 -4 -10 -10 -10 -5 0 -10 5 -10 10 0 6 5 10
10 10 6 0 10 -4 10 -10z m3410 0 c0 -5 -2 -10 -4 -10 -3 0 -8 5 -11 10 -3 6
-1 10 4 10 6 0 11 -4 11 -10z m-145 -11 c11 -17 0 -20 -21 -4 -17 13 -17 14
-2 15 9 0 20 -5 23 -11z m105 -24 c-7 -9 -15 -13 -18 -10 -3 2 1 11 8 20 7 9
15 13 18 10 3 -2 -1 -11 -8 -20z m-3390 6 c0 -5 -7 -14 -15 -21 -16 -14 -18
-10 -9 14 6 17 24 22 24 7z m35 -20 c-3 -12 -11 -21 -16 -21 -14 0 -11 38 4
43 17 6 20 2 12 -22z m4430 -178 c5 -81 4 -133 -2 -133 -10 0 -34 320 -25 335
10 15 19 -57 27 -202z m-1122 190 c-7 -2 -19 -2 -25 0 -7 3 -2 5 12 5 14 0 19
-2 13 -5z m-3697 -41 c-9 -8 -26 10 -26 26 1 15 2 15 15 -2 8 -11 13 -21 11
-24z m410 1 c-11 -11 -19 6 -11 24 8 17 8 17 12 0 3 -10 2 -21 -1 -24z m-109
-10 l1 -38 -18 22 c-17 22 -18 22 -23 3 -5 -20 -27 -28 -27 -11 0 8 56 61 64
61 1 0 3 -17 3 -37z m-257 -8 c14 -16 10 -18 -14 -9 -9 3 -16 10 -16 15 0 14
16 11 30 -6z m80 -3 c0 -4 -5 -13 -12 -20 -8 -8 -4 -14 18 -23 16 -6 23 -13
17 -16 -19 -7 -16 -23 3 -23 14 0 14 -2 3 -16 -11 -13 -14 -13 -18 -3 -2 8
-10 18 -17 22 -8 4 -14 14 -14 21 0 20 -30 28 -36 11 -4 -8 -10 -12 -15 -9
-13 8 14 45 29 39 7 -2 15 2 18 10 6 16 24 21 24 7z m55 -2 c3 -5 -3 -10 -14
-10 -12 0 -21 5 -21 10 0 6 6 10 14 10 8 0 18 -4 21 -10z m271 -17 c-8 -8 -36
5 -36 17 0 7 6 7 21 0 11 -7 18 -14 15 -17z m-225 -9 c11 -14 10 -19 -9 -34
-12 -10 -22 -23 -22 -29 0 -6 -4 -11 -10 -11 -5 0 -9 11 -8 25 1 14 8 25 16
25 9 0 11 7 7 20 -8 24 7 26 26 4z m129 0 c0 -14 -3 -14 -15 -4 -8 7 -15 14
-15 16 0 2 7 4 15 4 8 0 15 -7 15 -16z m630 7 c0 -6 -4 -13 -10 -16 -5 -3 -10
1 -10 9 0 9 5 16 10 16 6 0 10 -4 10 -9z m-480 -23 c0 -13 -32 -6 -37 9 -3 7
3 9 16 6 12 -3 21 -10 21 -15z m201 -31 c-13 -13 -15 1 -4 30 7 17 8 17 11 -1
2 -10 -1 -23 -7 -29z m-725 5 c-9 -9 -37 8 -31 18 5 8 11 7 21 -1 8 -6 12 -14
10 -17z m411 13 c9 -25 -4 -29 -17 -6 -7 15 -7 21 0 21 6 0 13 -7 17 -15z m34
-37 c-28 -12 -30 -8 -13 22 16 29 17 29 23 7 3 -14 0 -24 -10 -29z m129 21 c0
-5 -9 -4 -19 3 -11 7 -17 16 -14 20 5 10 33 -10 33 -23z m40 11 c-8 -5 -17 -7
-19 -4 -3 3 1 9 9 14 8 5 17 7 19 4 3 -3 -1 -9 -9 -14z m-550 -10 c0 -5 -9
-10 -21 -10 -11 0 -17 5 -14 10 3 6 13 10 21 10 8 0 14 -4 14 -10z m600 -10
c0 -5 -6 -10 -14 -10 -8 0 -18 5 -21 10 -3 6 3 10 14 10 12 0 21 -4 21 -10z
m-163 -15 c9 -25 -4 -29 -17 -6 -7 15 -7 21 0 21 6 0 13 -7 17 -15z m187 0
c-5 -11 -2 -13 10 -9 14 5 14 3 2 -21 -10 -19 -12 -35 -5 -51 11 -30 2 -30
-28 -2 -20 18 -23 19 -23 5 0 -9 -2 -17 -4 -17 -2 0 -11 -3 -20 -6 -13 -5 -13
-2 -3 20 7 16 20 26 33 26 23 0 40 26 22 32 -14 5 -3 38 11 38 6 0 8 -7 5 -15z
m-494 -46 c0 -11 -4 -17 -10 -14 -5 3 -10 13 -10 21 0 8 5 14 10 14 6 0 10 -9
10 -21z m365 11 c8 -13 -15 -13 -35 0 -12 8 -11 10 7 10 12 0 25 -4 28 -10z
m45 -22 c0 -6 -7 -5 -15 2 -8 7 -15 17 -15 22 0 6 7 5 15 -2 8 -7 15 -17 15
-22z m3220 -47 c-54 -67 -124 -107 -312 -177 -215 -80 -216 -80 -223 -126 -4
-22 -11 -36 -15 -31 -14 15 2 74 24 88 12 8 93 42 181 75 199 76 259 108 320
170 57 58 71 59 25 1z m-3620 5 c0 -8 -4 -18 -10 -21 -5 -3 -10 3 -10 14 0 12
5 21 10 21 6 0 10 -6 10 -14z m400 -48 c0 -16 -3 -19 -11 -11 -6 6 -8 16 -5
22 11 17 16 13 16 -11z m110 8 c0 -8 -4 -18 -10 -21 -5 -3 -10 3 -10 14 0 12
5 21 10 21 6 0 10 -6 10 -14z m-542 -8 c-3 -7 -17 -13 -31 -13 -45 -1 -29 22
16 24 11 1 17 -4 15 -11z m-75 -38 c-3 -11 -9 -20 -14 -20 -11 0 -11 3 -3 24
9 23 23 20 17 -4z m655 0 c3 -9 -1 -11 -11 -7 -8 3 -23 -3 -33 -14 -9 -10 -13
-19 -8 -20 5 -1 -2 -4 -16 -8 -14 -4 -31 -6 -37 -3 -20 7 -15 22 7 22 20 0 35
9 63 37 14 15 29 12 35 -7z m-584 -23 c-9 -24 -23 -11 -17 14 3 12 9 17 15 11
5 -5 6 -16 2 -25z m446 26 c0 -5 -5 -15 -10 -23 -8 -12 -10 -11 -10 8 0 12 5
22 10 22 6 0 10 -3 10 -7z m-512 -69 c-10 -10 -28 6 -28 24 0 15 1 15 17 -1 9
-9 14 -19 11 -23z m508 -1 c-10 -10 -19 5 -10 18 6 11 8 11 12 0 2 -7 1 -15
-2 -18z m-436 10 c0 -5 -5 -15 -10 -23 -8 -12 -10 -11 -10 8 0 12 5 22 10 22
6 0 10 -3 10 -7z m525 -13 c-3 -5 -13 -10 -21 -10 -8 0 -14 5 -14 10 0 6 9 10
21 10 11 0 17 -4 14 -10z m-575 -31 c0 -11 -4 -17 -10 -14 -5 3 -10 13 -10 21
0 8 5 14 10 14 6 0 10 -9 10 -21z m516 -4 c-11 -8 -22 -12 -25 -9 -6 6 19 24
34 24 6 -1 1 -7 -9 -15z m-489 -30 c-2 -30 -6 -35 -32 -40 -16 -4 -39 -9 -50
-12 -17 -5 -18 -4 -6 10 7 9 17 15 21 12 12 -8 41 6 34 16 -3 5 0 9 5 9 6 0
11 9 11 20 0 11 4 20 10 20 5 0 9 -16 7 -35z m438 25 c-3 -5 -13 -10 -21 -10
-8 0 -12 5 -9 10 3 6 13 10 21 10 8 0 12 -4 9 -10z m-45 -21 c0 -11 -4 -17
-10 -14 -5 3 -10 13 -10 21 0 8 5 14 10 14 6 0 10 -9 10 -21z m-510 -41 c0 -6
-7 -7 -16 -4 -9 3 -18 6 -20 6 -3 0 -3 4 1 10 7 11 35 2 35 -12z m160 2 c8 -5
12 -11 9 -14 -3 -3 -14 1 -25 9 -21 16 -8 20 16 5z m340 -15 c-7 -8 -17 -15
-22 -15 -6 0 -5 7 2 15 7 8 17 15 22 15 6 0 5 -7 -2 -15z m-306 -31 c9 -22 -3
-32 -14 -14 -12 19 -12 30 -1 30 5 0 12 -7 15 -16z m257 -27 c-13 -13 -15 1
-4 30 7 17 8 17 11 -1 2 -10 -1 -23 -7 -29z m-221 -33 c0 -14 -3 -14 -15 -4
-8 7 -15 14 -15 16 0 2 7 4 15 4 8 0 15 -7 15 -16z m215 -5 c-4 -5 -13 -9 -21
-9 -12 0 -12 2 -2 14 14 15 32 11 23 -5z m400 1 c3 -6 -4 -10 -17 -10 -41 0
-52 -14 -44 -59 4 -30 3 -41 -6 -41 -9 0 -8 -3 2 -10 18 -11 7 -25 -15 -17
-18 7 -20 44 -3 49 8 3 1 12 -15 22 -34 23 -34 41 1 54 54 21 89 26 97 12z
m2396 -7 c-5 -10 -61 -73 -124 -140 -64 -67 -118 -132 -122 -143 -7 -22 -25
-28 -24 -7 1 28 20 51 139 176 117 123 153 155 131 114z m-2951 -3 c0 -5 -12
-10 -26 -10 -14 0 -23 4 -19 10 3 6 15 10 26 10 10 0 19 -4 19 -10z m105 0
c-3 -5 -12 -10 -20 -10 -8 0 -17 5 -20 10 -4 6 5 10 20 10 15 0 24 -4 20 -10z
m-60 -10 c-3 -5 -13 -10 -21 -10 -8 0 -12 5 -9 10 3 6 13 10 21 10 8 0 12 -4
9 -10z m4640 -198 c11 -5 43 -13 70 -17 28 -4 68 -11 89 -17 40 -10 96 -45 96
-61 0 -11 -39 1 -70 23 -14 9 -60 22 -103 29 -61 8 -83 16 -98 34 -10 12 -18
27 -19 32 0 6 3 5 8 -1 4 -6 16 -16 27 -22z m-3178 -178 c-3 -3 -12 -4 -19 -1
-8 3 -5 6 6 6 11 1 17 -2 13 -5z m1161 -31 c-2 -5 -23 -47 -47 -95 -24 -49
-47 -88 -52 -88 -5 0 -9 2 -9 5 0 17 92 185 101 185 6 0 9 -3 7 -7z m-138
-133 c0 -5 -4 -10 -10 -10 -5 0 -10 5 -10 10 0 6 5 10 10 10 6 0 10 -4 10 -10z
m-2550 -219 c8 -1 21 -10 28 -21 14 -23 0 -27 -22 -5 -20 20 -32 19 -54 -6
l-20 -20 -4 29 c-4 28 -2 29 26 26 17 -1 38 -3 46 -3z m1338 -152 c18 -35 45
-77 60 -92 25 -26 27 -35 27 -106 0 -73 -2 -81 -38 -135 -21 -32 -41 -55 -44
-52 -3 3 6 24 21 47 63 95 66 172 10 246 -17 23 -44 66 -58 96 -14 30 -32 57
-41 61 -8 3 -15 11 -15 17 0 27 47 -22 78 -82z m-278 -349 c0 -5 -20 -10 -45
-10 -25 0 -45 5 -45 10 0 6 20 10 45 10 25 0 45 -4 45 -10z"/>
<path d="M1514 7519 c-3 -6 -2 -15 4 -21 11 -11 52 6 52 22 0 14 -47 13 -56
-1z"/>
<path d="M4015 6520 c-3 -5 1 -10 10 -10 9 0 13 5 10 10 -3 6 -8 10 -10 10 -2
0 -7 -4 -10 -10z"/>
<path d="M2435 6290 c4 -6 11 -8 16 -5 14 9 11 15 -7 15 -8 0 -12 -5 -9 -10z"/>
<path d="M3098 5685 c-7 -7 3 -55 11 -55 9 1 54 40 50 44 -8 7 -56 15 -61 11z"/>
<path d="M5048 5824 c-58 -37 -112 -103 -106 -131 5 -26 35 -40 56 -25 9 7 30
20 47 30 16 9 40 29 54 45 14 15 33 27 42 27 18 0 49 30 49 48 0 15 -41 42
-65 42 -11 0 -46 -16 -77 -36z"/>
<path d="M4045 5460 c3 -5 8 -10 11 -10 2 0 4 5 4 10 0 6 -5 10 -11 10 -5 0
-7 -4 -4 -10z"/>
<path d="M4052 4768 c5 -15 28 -23 28 -10 0 5 -7 13 -16 16 -10 4 -14 1 -12
-6z"/>
<path d="M4433 4747 c-106 -6 -173 -13 -173 -20 0 -6 46 -8 138 -3 264 13 342
19 342 27 0 10 -69 9 -307 -4z"/>
<path d="M4158 4733 c-32 -2 -58 -8 -58 -13 0 -11 82 -13 118 -4 23 7 32 25
10 22 -7 -1 -39 -3 -70 -5z"/>
<path d="M4505 4710 c-60 -4 -138 -8 -173 -9 -59 -1 -62 -2 -52 -20 5 -11 10
-51 10 -88 0 -107 -11 -103 238 -87 118 7 216 15 219 17 2 3 1 48 -3 101 l-7
96 -61 -2 c-33 -1 -110 -5 -171 -8z m5 -62 c0 -5 -4 -8 -10 -8 -5 0 -10 10
-10 23 0 18 2 19 10 7 5 -8 10 -18 10 -22z m140 -68 c0 -5 -9 -10 -20 -10 -11
0 -20 5 -20 10 0 6 9 10 20 10 11 0 20 -4 20 -10z"/>
<path d="M4158 4693 l-56 -4 -6 -37 c-4 -20 -2 -53 4 -72 5 -19 10 -59 10 -87
l0 -53 33 0 c17 0 50 3 71 7 l39 6 -6 108 c-4 68 -3 110 3 114 15 9 2 25 -18
23 -9 -1 -43 -3 -74 -5z"/>
<path d="M4263 4635 c0 -22 2 -30 4 -17 2 12 2 30 0 40 -3 9 -5 -1 -4 -23z"/>
<path d="M4271 4523 c-1 -35 3 -63 8 -63 4 0 6 24 4 53 -7 77 -11 81 -12 10z"/>
<path d="M5320 5798 c0 -22 13 -34 58 -57 41 -21 42 -21 42 -2 0 14 -9 21 -31
26 -17 4 -40 16 -50 26 -12 12 -19 14 -19 7z"/>
<path d="M3540 5395 c-7 -9 -10 -18 -7 -22 8 -7 37 15 37 28 0 14 -16 11 -30
-6z"/>
<path d="M3757 5383 c-4 -3 0 -15 10 -25 24 -27 7 -35 -21 -9 -21 20 -24 20
-36 5 -9 -10 -23 -14 -41 -10 -22 4 -27 2 -22 -9 4 -11 -3 -15 -23 -17 -20 -1
-15 -3 15 -7 41 -5 46 -9 53 -39 6 -23 5 -38 -3 -48 -26 -31 27 -13 93 32 l67
46 -32 44 c-31 42 -46 51 -60 37z"/>
<path d="M3340 5298 c0 -7 5 -20 10 -28 8 -13 10 -12 10 3 0 9 0 20 1 24 0 4
-4 9 -10 11 -6 2 -11 -2 -11 -10z"/>
<path d="M3463 5281 c-29 -11 -40 -12 -55 -2 -27 17 -33 7 -14 -21 9 -12 16
-31 16 -41 0 -26 26 -32 68 -14 20 9 69 19 108 22 88 8 101 15 87 47 -9 21
-16 23 -92 23 -48 0 -98 -6 -118 -14z"/>
<path d="M5239 5351 c-22 -19 -23 -20 -4 -21 30 0 52 17 39 30 -8 8 -18 5 -35
-9z"/>
<path d="M5255 5317 c-11 -8 -14 -16 -8 -20 6 -4 18 2 28 13 21 23 8 27 -20 7z"/>
<path d="M2497 4521 c-4 -18 19 -51 36 -51 15 0 6 58 -9 64 -21 8 -21 8 -27
-13z"/>
<path d="M5094 4241 c3 -5 15 -7 26 -4 28 7 25 13 -6 13 -14 0 -23 -4 -20 -9z"/>
<path d="M5220 4235 c0 -8 9 -15 20 -15 24 0 27 15 4 24 -22 9 -24 8 -24 -9z"/>
<path d="M5100 4160 c0 -5 4 -10 9 -10 6 0 13 5 16 10 3 6 -1 10 -9 10 -9 0
-16 -4 -16 -10z"/>
<path d="M5315 4130 c7 -51 12 -60 25 -40 14 22 12 35 -11 61 l-20 24 6 -45z"/>
<path d="M5241 4150 c-16 -9 -6 -30 15 -30 15 0 20 25 6 34 -4 2 -14 1 -21 -4z"/>
<path d="M5190 4105 c0 -24 9 -30 40 -25 31 4 31 18 -1 34 -41 20 -39 21 -39
-9z"/>
<path d="M5291 4094 c0 -11 3 -14 6 -6 3 7 2 16 -1 19 -3 4 -6 -2 -5 -13z"/>
<path d="M4389 4063 c-1 -5 -1 -11 0 -15 0 -5 -4 -8 -10 -8 -5 0 -7 -4 -4 -10
12 -20 35 -10 35 15 0 22 -18 37 -21 18z"/>
<path d="M4437 4063 c-13 -12 -7 -43 8 -43 8 0 15 -7 15 -15 0 -8 4 -15 9 -15
5 0 4 17 -1 40 -10 39 -18 47 -31 33z"/>
<path d="M4268 4053 c6 -2 18 -2 25 0 6 3 1 5 -13 5 -14 0 -19 -2 -12 -5z"/>
<path d="M4348 4053 c7 -3 16 -2 19 1 4 3 -2 6 -13 5 -11 0 -14 -3 -6 -6z"/>
<path d="M4232 4000 c0 -19 2 -27 5 -17 2 9 2 25 0 35 -3 9 -5 1 -5 -18z"/>
<path d="M4265 3911 c-3 -5 -1 -12 5 -16 5 -3 10 1 10 9 0 18 -6 21 -15 7z"/>
<path d="M4338 3913 c7 -3 16 -2 19 1 4 3 -2 6 -13 5 -11 0 -14 -3 -6 -6z"/>
<path d="M4230 3876 c0 -9 7 -16 16 -16 9 0 14 5 12 12 -6 18 -28 21 -28 4z"/>
<path d="M5215 3238 c10 -31 25 -47 25 -26 0 24 -11 48 -22 48 -5 0 -6 -10 -3
-22z"/>
<path d="M5082 3241 c2 -7 7 -12 11 -12 12 1 9 15 -3 20 -7 2 -11 -2 -8 -8z"/>
<path d="M5137 3228 c-16 -12 -15 -16 9 -55 27 -47 47 -54 64 -24 14 27 13 41
-5 41 -8 0 -15 5 -15 10 0 6 5 10 11 10 8 0 8 5 -1 15 -15 18 -40 19 -63 3z"/>
<path d="M4015 3289 c-4 -6 -4 -13 -1 -16 8 -8 36 5 36 17 0 13 -27 13 -35 -1z"/>
<path d="M4060 3280 c0 -5 5 -10 10 -10 6 0 10 5 10 10 0 6 -4 10 -10 10 -5 0
-10 -4 -10 -10z"/>
<path d="M6556 3261 c-3 -5 5 -11 19 -13 17 -4 25 -1 25 8 0 15 -36 19 -44 5z"/>
<path d="M7460 3106 c0 -29 37 -47 51 -25 19 30 10 49 -21 49 -25 0 -30 -4
-30 -24z"/>
<path d="M7435 3056 c-16 -11 -16 -14 -2 -19 8 -3 21 0 27 8 15 19 -3 27 -25
11z"/>
<path d="M4252 2549 c13 -22 38 -57 57 -77 34 -39 32 -33 -28 66 -38 61 -62
71 -29 11z"/>
<path d="M1370 2926 c0 -2 7 -6 15 -10 8 -3 15 -1 15 4 0 6 -7 10 -15 10 -8 0
-15 -2 -15 -4z"/>
<path d="M1421 2904 c0 -11 3 -14 6 -6 3 7 2 16 -1 19 -3 4 -6 -2 -5 -13z"/>
<path d="M1290 2880 c8 -5 20 -10 25 -10 6 0 3 5 -5 10 -8 5 -19 10 -25 10 -5
0 -3 -5 5 -10z"/>
<path d="M1322 2810 c-6 -10 -8 -21 -3 -24 5 -3 11 4 14 16 8 29 4 32 -11 8z"/>
<path d="M835 1320 c3 -5 8 -10 11 -10 2 0 4 5 4 10 0 6 -5 10 -11 10 -5 0 -7
-4 -4 -10z"/>
<path d="M0 1585 c0 -8 4 -15 10 -15 5 0 7 7 4 15 -4 8 -8 15 -10 15 -2 0 -4
-7 -4 -15z"/>
<path d="M2744 685 c-4 -18 -13 -25 -29 -25 -18 0 -27 -10 -40 -42 -9 -24 -22
-46 -28 -50 -21 -14 -56 -8 -66 10 -10 16 -12 16 -26 -2 -8 -11 -12 -28 -9
-38 7 -23 -14 -51 -30 -41 -16 10 -130 3 -137 -8 -3 -6 -31 -13 -63 -16 -73
-8 -71 -29 2 -25 l52 4 0 -36 c0 -24 -5 -36 -14 -36 -8 0 -21 -3 -30 -6 -11
-4 -16 -1 -16 10 0 9 3 15 8 15 22 -4 32 3 32 21 0 23 -9 25 -45 8 -17 -7 -29
-8 -35 -2 -6 6 -34 7 -68 3 -42 -5 -63 -3 -80 8 -13 8 -30 12 -38 9 -9 -3 -21
9 -34 35 l-21 40 -42 -23 c-32 -18 -41 -29 -37 -43 13 -53 -2 -261 -24 -320
-8 -22 -17 -61 -21 -87 l-7 -48 612 0 c579 0 612 1 605 18 -4 9 -14 37 -23 62
-8 25 -22 55 -30 67 -8 14 -18 70 -24 140 -5 65 -13 126 -19 135 -5 10 -9 29
-9 43 0 33 -26 95 -39 95 -6 0 -11 11 -11 24 0 20 -6 25 -40 31 -29 5 -49 17
-72 45 -21 24 -45 40 -65 44 -29 5 -34 2 -39 -19z m-159 -524 c3 -5 1 -12 -5
-16 -5 -3 -10 1 -10 9 0 18 6 21 15 7z"/>
</g>
</svg>
