<?xml version="1.0" standalone="no"?>
<!DOCTYPE svg PUBLIC "-//W3C//DTD SVG 20010904//EN"
 "http://www.w3.org/TR/2001/REC-SVG-20010904/DTD/svg10.dtd">
<svg version="1.0" xmlns="http://www.w3.org/2000/svg"
 width="800.000000pt" height="800.000000pt" viewBox="0 0 800.000000 800.000000"
 preserveAspectRatio="xMidYMid meet">
<metadata>
Created by potrace 1.16, written by Peter Selinger 2001-2019
</metadata>
<g transform="translate(0.000000,800.000000) scale(0.100000,-0.100000)"
fill="#000000" stroke="none">
<path d="M0 4000 l0 -4000 4000 0 4000 0 0 4000 0 4000 -4000 0 -4000 0 0
-4000z m923 3782 c-19 -16 -44 -26 -65 -26 -29 -1 -36 -6 -53 -42 -11 -23 -39
-64 -61 -91 -23 -27 -53 -71 -67 -100 -22 -42 -32 -52 -60 -57 -19 -4 -42 -15
-52 -26 -26 -28 -39 -25 -18 4 10 14 34 29 53 33 27 7 40 19 59 53 14 25 46
72 73 104 27 33 52 72 55 88 6 33 36 53 73 50 14 -2 38 8 55 22 17 13 32 22
35 19 3 -3 -9 -17 -27 -31z m5604 -584 c-3 -8 -6 -5 -6 6 -1 11 2 17 5 13 3
-3 4 -12 1 -19z m123 -112 c0 -2 -8 -10 -17 -17 -16 -13 -17 -12 -4 4 13 16
21 21 21 13z m-3510 -636 c0 -5 -9 -10 -19 -10 -11 0 -23 5 -26 10 -4 6 5 10
19 10 14 0 26 -4 26 -10z m44 -15 c3 -8 1 -15 -3 -15 -5 0 -11 7 -15 15 -3 8
-1 15 3 15 5 0 11 -7 15 -15z m26 -67 c0 -5 -4 -8 -10 -8 -5 0 -10 10 -10 23
0 18 2 19 10 7 5 -8 10 -18 10 -22z m24 -44 c4 -10 1 -14 -6 -12 -15 5 -23 28
-10 28 5 0 13 -7 16 -16z m31 -45 c11 -17 -1 -21 -15 -4 -8 9 -8 15 -2 15 6 0
14 -5 17 -11z m45 -60 c0 -5 -7 -6 -15 -3 -8 4 -15 13 -15 21 0 13 3 13 15 3
8 -7 15 -16 15 -21z m50 -30 c0 -4 -7 -6 -15 -3 -8 4 -15 10 -15 15 0 4 7 6
15 3 8 -4 15 -10 15 -15z m50 -30 c0 -4 -7 -6 -15 -3 -8 4 -15 10 -15 15 0 4
7 6 15 3 8 -4 15 -10 15 -15z m20 -45 c0 -8 -4 -14 -10 -14 -5 0 -10 9 -10 21
0 11 5 17 10 14 6 -3 10 -13 10 -21z m0 -54 c0 -11 -4 -20 -10 -20 -5 0 -10 9
-10 20 0 11 5 20 10 20 6 0 10 -9 10 -20z m10 -66 c0 -8 -4 -12 -10 -9 -5 3
-10 13 -10 21 0 8 5 12 10 9 6 -3 10 -13 10 -21z m38 -42 c6 -18 -15 -14 -22
4 -4 10 -1 14 6 12 6 -2 14 -10 16 -16z m58 -39 c-8 -8 -36 5 -36 17 0 7 6 7
21 0 11 -7 18 -14 15 -17z m4224 -3 c0 -11 -9 -25 -20 -32 -18 -12 -30 -35
-12 -25 4 2 17 -9 30 -24 13 -16 19 -29 14 -29 -5 0 -15 7 -22 15 -18 22 -28
19 -45 -15 -9 -16 -21 -30 -27 -30 -7 0 -25 -12 -40 -27 -15 -15 -28 -22 -28
-16 0 17 40 63 55 63 17 0 35 31 35 58 0 10 9 27 20 37 11 10 20 24 20 32 0 7
5 13 10 13 6 0 10 -9 10 -20z m-4175 -10 c3 -5 -1 -10 -9 -10 -8 0 -18 5 -21
10 -3 6 1 10 9 10 8 0 18 -4 21 -10z m1 -67 c-11 -11 -19 6 -11 24 8 17 8 17
12 0 3 -10 2 -21 -1 -24z m-6 -43 c0 -11 -4 -20 -9 -20 -5 0 -7 9 -4 20 3 11
7 20 9 20 2 0 4 -9 4 -20z m320 -39 c0 -11 -31 -24 -39 -16 -3 3 1 10 9 15 19
12 30 12 30 1z m50 -11 c13 -24 -2 -27 -24 -4 -20 19 -20 24 -1 24 8 0 19 -9
25 -20z m-342 -8 c2 -7 -2 -10 -12 -6 -9 3 -16 11 -16 16 0 13 23 5 28 -10z
m117 -2 c-3 -5 -13 -10 -21 -10 -8 0 -14 5 -14 10 0 6 9 10 21 10 11 0 17 -4
14 -10z m65 0 c0 -6 10 -5 25 2 24 11 45 5 31 -9 -11 -12 -75 -8 -88 5 -9 9
-7 12 10 12 12 0 22 -4 22 -10z m220 -26 c0 -25 -35 -12 -38 14 -3 21 -1 22
17 12 12 -6 21 -18 21 -26z m-340 16 c0 -5 -9 -10 -20 -10 -11 0 -20 5 -20 10
0 6 9 10 20 10 11 0 20 -4 20 -10z m393 -27 c-7 -2 -19 -2 -25 0 -7 3 -2 5 12
5 14 0 19 -2 13 -5z m3562 -25 c4 -18 12 -39 18 -46 8 -10 7 -16 -4 -23 -22
-14 -31 -11 -25 9 3 9 1 33 -4 52 -8 33 -9 33 -15 12 -6 -18 -10 -20 -16 -10
-15 24 -10 38 15 38 19 0 26 -7 31 -32z m-3515 -20 c0 -6 -7 -5 -15 2 -8 7
-15 17 -15 22 0 6 7 5 15 -2 8 -7 15 -17 15 -22z m60 -8 c0 -13 -11 -13 -30 0
-12 8 -11 10 8 10 12 0 22 -4 22 -10z m45 -48 c-6 -7 -35 18 -35 31 0 5 9 2
20 -8 11 -10 18 -20 15 -23z m115 -12 c0 -5 -9 -10 -20 -10 -11 0 -20 5 -20
10 0 6 9 10 20 10 11 0 20 -4 20 -10z m-60 -10 c0 -5 -6 -10 -14 -10 -8 0 -18
5 -21 10 -3 6 3 10 14 10 12 0 21 -4 21 -10z m115 -11 c-7 -10 -35 -1 -35 11
0 5 9 6 20 3 11 -3 17 -9 15 -14z m450 12 c6 -11 -78 -22 -115 -15 -16 4 -30
10 -30 15 0 10 138 10 145 0z m-398 -47 c-9 -10 -38 16 -31 28 4 6 13 4 22 -6
9 -8 13 -19 9 -22z m240 1 c-4 -8 -11 -15 -17 -15 -7 0 -7 6 0 21 13 23 26 19
17 -6z m-199 -34 c3 -8 -1 -12 -9 -9 -7 2 -15 10 -17 17 -3 8 1 12 9 9 7 -2
15 -10 17 -17z m57 -1 c-3 -5 -13 -10 -21 -10 -8 0 -14 5 -14 10 0 6 9 10 21
10 11 0 17 -4 14 -10z m110 -9 c-8 -13 -35 -15 -35 -2 0 5 8 11 18 13 21 5 26
2 17 -11z m-55 -1 c0 -13 -11 -13 -30 0 -12 8 -11 10 8 10 12 0 22 -4 22 -10z
m596 -546 c-18 -13 -18 -15 -3 -32 27 -29 20 -35 -13 -12 -37 26 -37 31 -3 52
32 19 47 13 19 -8z m659 -244 c-8 -16 -15 -36 -15 -45 0 -17 -40 -21 -57 -4
-11 11 4 59 20 59 12 0 8 -38 -5 -43 -8 -3 -6 -6 5 -6 9 -1 18 5 19 12 0 6 2
17 3 22 2 6 3 15 4 20 0 6 10 11 21 12 19 2 19 0 5 -27z m245 -236 c0 -7 -27
-34 -33 -34 -3 0 -3 9 0 20 5 17 33 30 33 14z m20 -28 c0 -2 -7 -7 -16 -10 -8
-3 -12 -2 -9 4 6 10 25 14 25 6z m11 -63 c8 -9 9 -14 2 -10 -6 4 -14 1 -16 -5
-3 -7 -6 -3 -6 10 -1 26 2 27 20 5z m-41 -3 c0 -5 -6 -10 -14 -10 -8 0 -18 5
-21 10 -3 6 3 10 14 10 12 0 21 -4 21 -10z m-1093 -82 c-14 -9 -41 -10 -49 -3
-9 10 16 54 32 57 19 4 34 -43 17 -54z m43 -64 c0 -19 -41 -29 -51 -13 -4 7
-5 17 -3 21 3 4 0 8 -5 8 -6 0 -11 5 -11 11 0 5 4 8 8 5 4 -2 14 -1 22 4 16
10 40 -12 40 -36z m410 -39 c0 -8 -2 -15 -4 -15 -2 0 -6 7 -10 15 -3 8 -1 15
4 15 6 0 10 -7 10 -15z m610 -111 c12 -31 12 -34 2 -34 -4 0 -13 14 -19 30 -6
17 -7 30 -2 30 5 0 14 -12 19 -26z m514 20 c31 -12 17 -30 -21 -26 -31 3 -50
-4 -101 -37 -36 -24 -75 -41 -91 -41 -32 0 -90 39 -59 40 9 0 20 -4 23 -10 13
-21 58 -9 133 35 78 46 89 49 116 39z m-1074 -129 c0 -10 -54 -26 -69 -20 -13
5 -14 7 -1 15 16 10 70 14 70 5z m-1232 -84 c6 -14 13 -34 17 -43 4 -10 3 -18
-3 -18 -6 0 -17 19 -25 43 -11 32 -19 42 -36 41 -11 0 -21 2 -21 6 0 31 55 7
68 -29z m-88 10 c0 -13 -26 -21 -65 -21 -53 0 -51 18 2 23 27 2 51 4 56 5 4 1
7 -2 7 -7z m1007 -47 c4 -11 -39 -34 -63 -34 -14 0 -14 2 0 15 8 8 22 15 31
15 9 0 13 5 9 11 -4 7 -1 10 6 7 8 -2 15 -9 17 -14z m-571 -15 c3 -6 -1 -18
-10 -27 -15 -15 -16 -15 -16 1 0 9 -4 17 -10 17 -5 0 -10 5 -10 10 0 14 37 13
46 -1z m354 -6 c0 -5 -44 -31 -98 -59 -54 -28 -97 -55 -95 -61 5 -15 -116 -85
-137 -78 -9 3 -23 -1 -30 -10 -13 -16 -60 -21 -60 -7 0 8 71 52 83 52 3 0 7
-6 9 -14 3 -13 6 -13 22 -1 17 13 17 15 2 37 -22 31 -20 49 2 20 l18 -23 120
66 c65 37 123 71 129 76 11 11 35 12 35 2z m-680 -74 c0 -37 -4 -58 -10 -54
-18 11 -12 115 7 115 2 0 3 -27 3 -61z m273 -39 c16 -27 24 -50 18 -50 -11 0
-81 115 -81 133 1 16 28 -21 63 -83z m367 -47 c0 -11 -189 -112 -194 -104 -4
6 171 111 187 111 4 0 7 -3 7 -7z m-1450 -61 c0 -20 -9 -35 -29 -50 -34 -25
-88 -41 -77 -23 4 6 14 11 22 11 8 0 14 4 14 10 0 5 11 12 25 16 19 5 25 13
25 35 0 16 5 29 10 29 6 0 10 -13 10 -28z m2330 -27 c-7 -8 -17 -15 -22 -15
-6 0 -5 7 2 15 7 8 17 15 22 15 6 0 5 -7 -2 -15z m-48 -37 c-7 -7 -12 -8 -12
-2 0 14 12 26 19 19 2 -3 -1 -11 -7 -17z m-52 -38 c0 -5 -4 -10 -10 -10 -5 0
-10 5 -10 10 0 6 5 10 10 10 6 0 10 -4 10 -10z m-2350 -16 c11 -12 10 -18 -3
-31 -9 -9 -20 -14 -24 -10 -3 4 -1 13 5 19 8 8 7 15 -6 24 -15 12 -15 13 -1
14 9 0 22 -7 29 -16z m1340 -24 c11 -22 18 -40 15 -40 -3 0 -8 0 -11 1 -4 0
-10 -5 -14 -11 -11 -18 -59 37 -52 62 3 11 10 17 19 14 8 -3 11 -1 8 4 -3 6
-2 10 4 10 6 0 20 -18 31 -40z m-90 20 c0 -5 -5 -10 -11 -10 -5 0 -7 -4 -4
-10 3 -5 2 -10 -2 -10 -5 0 -14 9 -21 20 -11 18 -10 20 13 20 14 0 25 -4 25
-10z m1087 -26 c4 -10 -1 -20 -11 -26 -19 -11 -55 -78 -53 -99 3 -21 -59 -89
-80 -89 -13 0 -5 11 25 36 46 39 54 64 20 65 -13 0 -17 3 -10 6 17 7 15 23 -4
23 -13 0 -14 3 -4 15 7 8 10 22 6 31 -4 11 -1 14 12 10 12 -4 27 3 42 19 27
29 48 32 57 9z m-1077 -58 c-15 -15 -32 7 -24 29 7 17 8 17 21 -1 9 -12 10
-21 3 -28z m474 -68 c11 -54 13 -108 5 -108 -5 0 -9 6 -10 13 -2 29 -8 50 -18
56 -6 4 -6 12 -1 20 4 8 6 20 3 28 -3 7 0 13 6 13 6 0 13 -10 15 -22z m-274
-19 c0 -15 -5 -19 -15 -15 -24 9 -147 -58 -232 -125 -41 -32 -83 -59 -93 -59
-10 0 -32 -11 -48 -25 -17 -14 -38 -25 -48 -24 -14 0 -15 2 -4 6 8 3 26 16 40
28 14 12 37 25 51 29 14 3 60 32 101 65 60 49 208 134 241 140 4 0 7 -8 7 -20z
m223 -59 c3 -11 1 -23 -4 -26 -5 -3 -9 -1 -9 5 0 5 -3 16 -6 25 -3 9 -2 16 4
16 5 0 12 -9 15 -20z m-450 -31 c-30 -20 -43 -24 -43 -11 0 11 53 41 63 35 5
-3 -4 -14 -20 -24z m7 -287 c0 -21 -2 -24 -10 -12 -13 20 -13 53 0 45 6 -3 10
-18 10 -33z m390 -53 c0 -13 44 -11 57 2 6 6 19 9 29 6 17 -4 17 -6 -3 -12
-13 -4 -23 -12 -23 -17 0 -6 -14 -8 -33 -4 -28 5 -47 -3 -137 -59 -58 -35
-110 -68 -115 -73 -6 -5 -22 -12 -36 -15 -42 -11 -122 -70 -133 -99 -6 -15
-16 -28 -24 -28 -10 0 -9 7 5 31 23 40 78 84 141 112 96 43 232 131 227 147
-3 10 3 15 20 16 14 1 25 -2 25 -7z m-146 -15 c9 -24 8 -26 -14 -14 -11 6 -18
15 -15 21 9 14 22 11 29 -7z m-764 -34 c0 -5 -5 -10 -11 -10 -5 0 -7 5 -4 10
3 6 8 10 11 10 2 0 4 -4 4 -10z m-43 -37 c-9 -9 -20 -13 -24 -9 -4 4 -1 11 7
16 25 16 35 11 17 -7z m771 -2 c-6 -10 -18 -17 -25 -14 -25 10 -10 30 25 32 9
1 10 -3 0 -18z m-804 -43 c-9 -14 -23 2 -17 18 4 12 8 13 14 3 4 -7 5 -17 3
-21z m-34 -27 c0 -11 -3 -11 -15 -1 -13 10 -15 9 -15 -9 0 -12 5 -19 10 -16
20 12 9 -7 -20 -37 -19 -19 -30 -24 -30 -15 0 8 7 20 15 27 8 7 12 17 9 22 -4
6 -10 6 -17 -1 -14 -14 -27 -14 -27 -1 0 6 8 14 18 17 9 4 25 18 36 31 15 18
21 21 27 10 5 -7 9 -19 9 -27z m343 -6 c-3 -8 -9 -15 -14 -15 -10 0 -12 24 -3
33 11 11 24 -3 17 -18z m-297 -14 c-12 -19 -24 -12 -19 10 4 13 9 17 15 11 6
-6 7 -15 4 -21z m-149 -50 c-1 -14 -6 -30 -12 -34 -5 -5 1 -5 14 -2 17 5 22 4
19 -6 -3 -8 -14 -15 -26 -17 -18 -3 -20 -7 -11 -29 6 -17 6 -30 -2 -39 -6 -7
-8 -18 -4 -24 3 -5 2 -10 -4 -10 -5 0 -12 9 -16 19 -8 26 -46 30 -68 8 -18
-18 -20 -18 -38 -1 -17 16 -19 16 -19 1 0 -10 5 -17 10 -17 19 0 10 -19 -12
-26 -13 -4 -28 -13 -33 -21 -13 -18 -65 -7 -65 13 0 8 -8 14 -17 14 -15 0 -14
2 3 15 25 19 34 19 34 -2 0 -10 5 -25 10 -33 8 -13 12 -12 25 8 9 12 22 22 30
22 8 0 11 7 8 20 -7 28 24 50 60 43 23 -5 29 -2 34 15 4 17 8 18 18 9 7 -7 11
-15 8 -19 -2 -5 0 -8 6 -8 21 0 22 22 3 36 -19 13 -21 51 -2 39 4 -3 10 2 13
10 4 9 1 12 -9 8 -8 -3 -14 1 -14 10 0 14 17 22 47 23 6 1 11 -11 10 -25z
m113 4 c-7 -8 -17 -15 -23 -15 -5 0 -2 9 8 20 21 23 35 19 15 -5z m-184 -22
c-3 -22 -36 -30 -36 -10 0 14 13 24 32 26 3 1 5 -7 4 -16z m-46 -26 c0 -23
-60 -60 -81 -51 -13 7 -16 13 -9 24 7 12 13 12 27 4 14 -9 21 -6 36 13 21 26
27 29 27 10z m1214 -6 c6 -10 -22 -37 -29 -29 -8 7 5 38 15 38 5 0 11 -4 14
-9z m-1308 -66 c3 -8 3 -19 -1 -24 -8 -15 -34 10 -28 26 7 17 22 16 29 -2z
m-56 -9 c0 -2 -9 -6 -20 -9 -11 -3 -20 -1 -20 4 0 5 9 9 20 9 11 0 20 -2 20
-4z m-64 -44 c-8 -9 -19 -13 -22 -9 -10 9 16 38 28 31 6 -4 4 -13 -6 -22z
m-36 -37 c-7 -8 -17 -15 -22 -15 -6 0 -5 7 2 15 7 8 17 15 22 15 6 0 5 -7 -2
-15z m110 -15 c0 -5 -4 -11 -10 -11 -5 -1 -16 -2 -22 -3 -7 -1 -12 -7 -11 -14
2 -6 -6 -16 -17 -22 -22 -12 -27 -1 -8 18 7 7 8 12 3 12 -5 0 0 7 11 15 22 17
54 20 54 5z m-159 -37 c-8 -15 -10 -15 -11 -2 0 17 10 32 18 25 2 -3 -1 -13
-7 -23z m65 -25 c6 -10 -14 -38 -27 -38 -5 0 -6 7 -3 15 4 10 0 15 -16 15 -11
0 -19 4 -16 9 7 11 55 11 62 -1z m2234 2 c0 -5 -9 -14 -20 -20 -22 -12 -23
-10 -14 14 7 17 34 22 34 6z m-865 -101 c9 -28 -9 -46 -29 -30 -12 10 -13 16
-3 32 15 25 24 24 32 -2z m-1270 -5 c0 -5 -7 -18 -15 -29 -12 -17 -23 -20 -62
-17 -48 4 -58 22 -12 22 14 0 24 6 24 14 0 8 10 17 23 19 29 5 42 3 42 -9z
m1495 -104 c0 -5 -4 -10 -10 -10 -5 0 -10 5 -10 10 0 6 5 10 10 10 6 0 10 -4
10 -10z m960 -35 c-8 -10 -7 -14 2 -18 23 -8 -16 -40 -41 -32 -17 5 -19 10
-11 25 5 10 17 26 26 34 19 19 40 11 24 -9z m-965 -5 c3 -5 1 -10 -4 -10 -6 0
-11 5 -11 10 0 6 2 10 4 10 3 0 8 -4 11 -10z m1387 -135 c-5 -49 -8 -53 -29
-32 -13 12 -14 19 -4 30 9 12 7 16 -9 20 -33 9 -23 29 13 25 31 -3 32 -4 29
-43z m-1437 15 c-3 -5 -13 -10 -21 -10 -8 0 -14 5 -14 10 0 6 9 10 21 10 11 0
17 -4 14 -10z m15 -185 c0 -14 -4 -25 -10 -25 -5 0 -10 11 -10 25 0 14 5 25
10 25 6 0 10 -11 10 -25z m-272 -52 c-5 -25 -28 -28 -28 -4 0 12 6 21 16 21 9
0 14 -7 12 -17z m-2311 -64 c-6 -10 -15 -15 -20 -10 -12 12 3 40 18 34 11 -4
12 -9 2 -24z m1142 -55 c58 -21 71 -30 71 -48 0 -12 12 -38 26 -59 14 -21 24
-43 22 -49 -5 -14 -68 86 -68 106 0 8 -27 24 -65 38 -36 12 -65 26 -65 30 0
11 1 11 79 -18z m2251 -52 c0 -21 -10 -37 -39 -60 -22 -18 -42 -32 -45 -32
-16 0 -3 33 24 60 17 17 30 37 30 45 0 8 7 15 15 15 10 0 15 -10 15 -28z
m-4041 -203 c17 -6 31 -15 31 -19 0 -12 -29 -20 -35 -10 -3 5 -12 7 -20 4 -9
-4 -13 1 -12 15 1 12 2 21 3 21 0 0 15 -5 33 -11z m5181 -197 c0 -5 -19 -14
-42 -21 -24 -7 -56 -25 -73 -41 -32 -29 -71 -44 -81 -29 -3 5 1 9 9 9 8 0 34
15 58 33 57 44 129 71 129 49z m-882 -249 c1 -33 0 -35 -12 -17 -14 18 -15 18
-34 1 -17 -16 -24 -17 -43 -6 -20 10 -26 8 -62 -30 -38 -41 -39 -42 -59 -24
-11 10 -30 16 -41 15 -18 -3 -19 -2 -8 12 23 28 -43 20 -76 -9 -23 -20 -25
-24 -10 -25 10 0 27 5 38 10 10 6 19 7 19 2 0 -5 -12 -14 -26 -21 -20 -9 -30
-9 -40 0 -13 11 -18 5 -15 -15 1 -5 -11 -6 -26 -3 -24 5 -31 1 -47 -26 -11
-18 -20 -40 -21 -49 -1 -10 -5 -21 -10 -25 -4 -5 -5 2 -2 15 3 12 2 22 -2 22
-18 0 -31 -28 -31 -66 0 -48 -15 -65 -62 -69 -27 -2 -33 -7 -31 -24 2 -12 -2
-21 -7 -21 -6 0 -10 7 -10 16 0 8 -5 12 -10 9 -6 -4 -8 -16 -5 -28 5 -20 4
-20 -7 -5 -11 15 -14 12 -25 -20 -7 -20 -13 -51 -13 -68 0 -22 -7 -34 -25 -44
-14 -7 -25 -19 -25 -26 0 -6 -22 -20 -49 -30 -31 -11 -51 -25 -55 -37 -2 -10
-9 -16 -14 -13 -6 3 -12 -1 -16 -9 -3 -8 -11 -15 -19 -15 -7 0 -14 -13 -15
-31 -4 -50 -16 -57 -23 -14 -7 42 4 67 26 59 7 -3 16 -1 20 5 3 6 -1 11 -9 11
-9 0 -16 2 -16 4 0 2 -3 13 -6 23 -5 16 -4 16 10 -1 9 -12 16 -15 16 -7 0 7 8
11 17 9 10 -2 35 14 57 35 22 21 45 36 51 33 20 -7 53 28 57 64 3 19 9 43 13
54 13 31 -28 3 -56 -38 -13 -20 -30 -36 -38 -36 -10 0 -11 3 -3 13 9 10 4 13
-22 15 -41 3 -142 -61 -177 -113 -13 -19 -35 -39 -49 -45 -14 -6 -45 -35 -68
-65 -24 -30 -48 -55 -53 -55 -15 0 27 55 75 101 23 22 61 59 86 84 25 24 69
60 98 79 43 29 58 34 88 29 30 -5 40 -2 63 21 43 43 133 99 171 105 33 6 35 9
44 58 7 36 16 55 30 63 12 6 31 26 44 45 13 21 30 35 42 35 11 0 37 16 59 35
42 38 103 49 115 20 8 -22 22 -19 74 17 33 23 56 31 81 30 20 -1 43 2 51 8 24
15 27 12 28 -27z m-8 -74 c-7 -11 -14 -18 -17 -15 -8 8 5 36 17 36 7 0 7 -6 0
-21z m-26 -53 c-3 -9 -10 -16 -15 -16 -6 0 -5 9 1 21 13 24 24 20 14 -5z m16
-55 c0 -20 -39 -74 -40 -55 0 6 7 17 15 24 9 7 13 21 10 31 -4 11 -2 19 4 19
6 0 11 -9 11 -19z m-365 -53 c5 -5 4 -8 -4 -8 -7 0 -10 -4 -7 -9 7 -11 -3 -41
-13 -41 -4 0 -6 13 -3 29 3 22 -1 29 -17 34 -12 3 -21 10 -21 16 0 11 44 -3
65 -21z m50 12 c3 -5 -3 -10 -14 -10 -12 0 -21 5 -21 10 0 6 6 10 14 10 8 0
18 -4 21 -10z m45 -30 c-20 -13 -40 -13 -40 0 0 6 12 10 28 10 21 0 24 -2 12
-10z m205 -9 c-3 -6 -11 -11 -17 -11 -6 0 -6 6 2 15 14 17 26 13 15 -4z m-195
-26 c0 -8 -4 -15 -10 -15 -5 0 -10 7 -10 15 0 8 5 15 10 15 6 0 10 -7 10 -15z
m-1240 -20 c0 -14 -4 -25 -10 -25 -5 0 -10 11 -10 25 0 14 5 25 10 25 6 0 10
-11 10 -25z m1390 10 c-7 -8 -17 -15 -22 -15 -6 0 -5 7 2 15 7 8 17 15 22 15
6 0 5 -7 -2 -15z m-190 -30 c-7 -8 -17 -15 -22 -15 -6 0 -5 7 2 15 7 8 17 15
22 15 6 0 5 -7 -2 -15z m140 -10 c-7 -9 -15 -13 -17 -11 -7 7 7 26 19 26 6 0
6 -6 -2 -15z m-190 -30 c-7 -9 -15 -13 -17 -11 -7 7 7 26 19 26 6 0 6 -6 -2
-15z m145 -11 c-23 -17 -32 -10 -15 11 7 8 17 12 23 8 6 -4 3 -11 -8 -19z
m-45 -14 c0 -5 -10 -10 -22 -10 -19 0 -20 2 -8 10 19 13 30 13 30 0z m-437
-20 c-6 -22 -23 -38 -23 -21 0 17 12 41 20 41 5 0 6 -9 3 -20z m304 -5 c-4 -8
-11 -15 -17 -15 -7 0 -7 6 0 21 13 23 26 19 17 -6z m-3420 9 c-3 -3 -12 -4
-19 -1 -8 3 -5 6 6 6 11 1 17 -2 13 -5z m3489 -9 c-11 -8 -22 -12 -25 -9 -6 6
19 24 34 24 6 -1 1 -7 -9 -15z m-329 -17 c-3 -8 -6 -5 -6 6 -1 11 2 17 5 13 3
-3 4 -12 1 -19z m283 -7 c0 -5 -7 -11 -15 -15 -15 -5 -20 5 -8 17 9 10 23 9
23 -2z m-840 -30 c-6 -12 -15 -21 -21 -21 -10 0 -5 13 14 38 15 19 20 7 7 -17z
m781 -4 c-8 -8 -11 -7 -11 4 0 20 13 34 18 19 3 -7 -1 -17 -7 -23z m-378 -11
c-21 -28 -28 -26 -18 3 3 12 13 21 21 21 12 0 12 -4 -3 -24z m-34 -8 c0 -7 -4
-22 -8 -32 -7 -19 -8 -18 -14 4 -3 13 -4 27 -1 32 8 12 24 10 23 -4z m1756
-27 c-3 -6 -11 -8 -17 -5 -6 4 -5 9 3 15 16 10 23 4 14 -10z m-1823 -20 c-9
-16 -20 -27 -25 -24 -5 3 -6 -4 -2 -16 6 -20 5 -21 -13 -10 -16 10 -18 16 -9
30 6 10 15 15 19 13 4 -3 8 1 8 10 0 13 13 23 32 25 4 1 0 -12 -10 -28z m-52
-60 c0 -5 -7 -11 -15 -15 -15 -5 -20 5 -8 17 9 10 23 9 23 -2z m260 -39 c0
-14 -8 -19 -30 -19 -24 0 -28 3 -18 14 6 8 17 12 25 9 7 -3 13 -1 13 4 0 6 2
10 5 10 3 0 5 -8 5 -18z m40 -11 c0 -16 -12 -41 -20 -41 -6 0 -7 36 -1 48 3 6
21 1 21 -7z m-111 -32 c-16 -10 -23 -4 -14 10 3 6 11 8 17 5 6 -4 5 -9 -3 -15z
m-157 -1 c-9 -9 -15 -9 -24 0 -9 9 -7 12 12 12 19 0 21 -3 12 -12z m125 -5
c-4 -25 -16 -43 -30 -43 -8 0 -8 3 1 12 7 7 12 20 12 30 0 10 4 18 10 18 5 0
9 -8 7 -17z m-4450 -20 c-9 -9 -20 -13 -24 -9 -4 4 1 14 11 22 25 18 35 8 13
-13z m4423 7 c0 -10 -19 -24 -37 -26 -12 -2 -18 18 -8 27 8 9 45 8 45 -1z
m-110 -26 c0 -8 -4 -14 -10 -14 -5 0 -10 9 -10 21 0 11 5 17 10 14 6 -3 10
-13 10 -21z m40 6 c-18 -12 -30 -13 -30 -2 0 4 10 9 22 9 18 2 20 0 8 -7z
m200 -5 c-7 -9 -15 -13 -17 -11 -7 7 7 26 19 26 6 0 6 -6 -2 -15z m-4603 -22
c-9 -9 -20 -14 -24 -10 -3 4 2 14 13 21 25 19 33 10 11 -11z m4433 3 c0 -2 -7
-9 -15 -16 -12 -10 -15 -10 -15 4 0 9 7 16 15 16 8 0 15 -2 15 -4z m-62 -48
c17 -6 22 -12 14 -15 -8 -3 -19 0 -25 6 -16 16 -25 14 -23 -5 1 -19 -29 -42
-41 -30 -4 4 1 14 11 22 11 7 17 17 13 20 -3 4 -1 16 5 28 11 19 12 19 16 3 2
-10 16 -23 30 -29z m187 22 c-10 -17 -45 -32 -45 -20 0 6 10 15 23 20 29 12
29 12 22 0z m-115 -19 c0 -4 -7 -8 -15 -8 -16 0 -20 9 -9 20 8 8 24 -1 24 -12z
m42 -23 c-9 -9 -15 -9 -24 0 -9 9 -7 12 12 12 19 0 21 -3 12 -12z m-182 -48
c0 -5 -7 -10 -16 -10 -8 0 -12 5 -9 10 3 6 10 10 16 10 5 0 9 -4 9 -10z m-530
-29 c0 -5 -7 -12 -16 -15 -22 -9 -24 -8 -24 9 0 8 9 15 20 15 11 0 20 -4 20
-9z"/>
<path d="M4956 4295 c-3 -8 -1 -15 4 -15 6 0 10 7 10 15 0 8 -2 15 -4 15 -2 0
-6 -7 -10 -15z"/>
<path d="M3721 2524 c0 -11 3 -14 6 -6 3 7 2 16 -1 19 -3 4 -6 -2 -5 -13z"/>
<path d="M6030 2090 c0 -5 5 -10 11 -10 5 0 7 5 4 10 -3 6 -8 10 -11 10 -2 0
-4 -4 -4 -10z"/>
<path d="M5846 1574 c-4 -9 -4 -19 -1 -22 2 -3 7 3 11 12 4 9 4 19 1 22 -2 3
-7 -3 -11 -12z"/>
<path d="M6028 933 c7 -3 16 -2 19 1 4 3 -2 6 -13 5 -11 0 -14 -3 -6 -6z"/>
<path d="M5946 885 c-11 -8 -15 -15 -9 -15 6 0 16 7 23 15 16 19 11 19 -14 0z"/>
</g>
</svg>
