<?xml version="1.0" standalone="no"?>
<!DOCTYPE svg PUBLIC "-//W3C//DTD SVG 20010904//EN"
 "http://www.w3.org/TR/2001/REC-SVG-20010904/DTD/svg10.dtd">
<svg version="1.0" xmlns="http://www.w3.org/2000/svg"
 width="800.000000pt" height="800.000000pt" viewBox="0 0 800.000000 800.000000"
 preserveAspectRatio="xMidYMid meet">
<metadata>
Created by potrace 1.16, written by Peter Selinger 2001-2019
</metadata>
<g transform="translate(0.000000,800.000000) scale(0.100000,-0.100000)"
fill="#000000" stroke="none">
<path d="M0 4000 l0 -4000 4000 0 4000 0 0 4000 0 4000 -4000 0 -4000 0 0
-4000z m4843 3333 c-7 -2 -19 -2 -25 0 -7 3 -2 5 12 5 14 0 19 -2 13 -5z m354
-65 c-3 -8 -6 -5 -6 6 -1 11 2 17 5 13 3 -3 4 -12 1 -19z m-840 -64 c-3 -3
-12 -4 -19 -1 -8 3 -5 6 6 6 11 1 17 -2 13 -5z m-1860 -161 c-2 -16 -4 -5 -4
22 0 28 2 40 4 28 2 -13 2 -35 0 -50z m3320 -69 c-3 -3 -12 -4 -19 -1 -8 3 -5
6 6 6 11 1 17 -2 13 -5z m1746 -81 c-29 -2 -78 -2 -110 0 -32 2 -8 3 52 3 61
0 87 -1 58 -3z m-1205 -10 c-10 -2 -28 -2 -40 0 -13 2 -5 4 17 4 22 1 32 -1
23 -4z m-805 -10 c-7 -2 -21 -2 -30 0 -10 3 -4 5 12 5 17 0 24 -2 18 -5z
m2357 -666 c0 -2 -15 -16 -32 -33 l-33 -29 29 33 c28 30 36 37 36 29z m-2423
-399 c-3 -8 -6 -5 -6 6 -1 11 2 17 5 13 3 -3 4 -12 1 -19z m-5209 -235 c-10
-2 -28 -2 -40 0 -13 2 -5 4 17 4 22 1 32 -1 23 -4z m4992 -313 c8 -15 7 -19
-8 -17 -11 0 -19 10 -20 25 -2 26 12 22 28 -8z m-1035 -16 l40 -36 -47 33
c-27 18 -48 34 -48 36 0 10 20 -2 55 -33z m1794 6 c79 -16 146 -31 148 -34 14
-14 -26 -11 -127 10 -190 40 -180 40 -180 16 0 -27 -21 -73 -30 -67 -10 6 22
105 35 105 5 0 75 -13 154 -30z m-708 -86 c6 6 7 -2 18 -119 7 -77 14 -101 49
-170 44 -84 52 -124 27 -145 -17 -14 -19 -7 -5 20 8 15 0 41 -40 126 -45 94
-51 113 -49 168 0 35 -6 80 -15 105 -19 51 -20 79 -2 38 7 -15 14 -25 17 -23z
m-741 -174 c5 0 10 5 10 11 0 5 5 7 10 4 8 -5 8 -11 1 -19 -7 -9 19 -34 101
-97 61 -46 144 -115 185 -152 40 -38 73 -66 73 -63 0 3 19 -15 41 -39 23 -25
46 -42 52 -38 5 3 7 1 4 -4 -4 -6 9 -23 29 -38 19 -15 33 -29 30 -32 -7 -7
-38 18 -190 156 -72 65 -242 205 -378 310 -136 106 -250 197 -254 203 -4 6 57
-37 134 -96 78 -58 146 -106 152 -106z m129 134 c-15 -18 -22 -13 -13 10 3 9
10 13 16 10 5 -3 4 -12 -3 -20z m-31 -36 c-2 -6 -10 -14 -16 -16 -7 -2 -10 2
-6 12 7 18 28 22 22 4z m-40 -50 c-2 -6 -10 -14 -16 -16 -7 -2 -10 2 -6 12 7
18 28 22 22 4z m712 -369 c-24 -21 -47 -36 -50 -33 -3 3 15 23 40 44 25 21 47
36 50 33 3 -3 -15 -22 -40 -44z m-5280 -9 c0 -5 -10 -10 -22 -9 -22 0 -22 1
-3 9 11 5 21 9 23 9 1 1 2 -3 2 -9z m5210 -47 c-1 -12 -93 -83 -99 -77 -6 5
79 83 92 84 4 0 7 -3 7 -7z m1260 -23 c0 -14 -14 -12 -28 2 -19 19 -14 30 8
18 11 -6 20 -15 20 -20z m-1296 -135 c11 -8 15 -15 9 -15 -19 0 -43 12 -43 21
0 13 12 11 34 -6z m-4424 -48 c0 -2 -15 -16 -32 -33 l-33 -29 29 33 c28 30 36
37 36 29z m-193 -199 c-3 -8 -6 -5 -6 6 -1 11 2 17 5 13 3 -3 4 -12 1 -19z
m3840 -40 c29 -12 53 -28 56 -38 5 -21 -75 -165 -98 -173 -25 -10 -44 32 -45
103 -3 132 -2 143 18 135 9 -4 40 -16 69 -27z m481 -70 c-6 -16 -158 -24 -158
-9 0 9 21 12 133 19 19 1 27 -2 25 -10z m-401 -90 c-2 -13 -4 -5 -4 17 -1 22
1 32 4 23 2 -10 2 -28 0 -40z m630 28 c101 -30 112 -37 196 -131 38 -42 73
-72 79 -69 6 4 8 2 5 -3 -7 -11 110 -120 153 -143 13 -7 46 -37 73 -66 27 -30
58 -54 69 -54 12 0 17 4 12 12 -8 13 11 3 37 -19 13 -11 15 -22 8 -51 -5 -22
-4 -41 2 -48 7 -8 6 -15 -2 -19 -19 -12 -29 17 -23 63 6 40 5 42 -20 43 -14 1
-31 2 -36 3 -6 0 -38 30 -73 66 -65 67 -142 127 -159 122 -5 -1 -7 1 -4 6 3 5
-50 63 -117 129 l-122 121 -87 23 c-49 13 -88 27 -88 31 0 11 6 10 97 -16z
m-296 -74 c24 -15 57 -33 73 -40 17 -8 50 -33 75 -57 105 -100 168 -155 188
-162 12 -4 54 -38 95 -74 40 -36 108 -96 151 -133 l77 -67 0 -57 c0 -89 -10
-132 -27 -125 -12 5 -14 16 -9 47 10 63 12 126 4 126 -4 0 -40 31 -79 70 -40
38 -75 68 -77 65 -3 -3 -14 9 -24 25 -10 17 -26 33 -36 37 -24 9 -52 34 -47
43 3 4 -2 11 -11 14 -8 3 -12 2 -9 -4 12 -19 -10 -9 -33 15 -14 15 -29 22 -39
18 -10 -4 -14 -2 -10 4 4 6 -12 25 -35 42 -23 17 -35 31 -27 31 7 1 -1 7 -18
15 -18 8 -33 18 -33 24 0 20 -142 119 -203 141 -16 5 -25 14 -22 20 10 16 28
12 76 -18z m-211 -79 c7 -6 -23 -23 -35 -20 -5 2 -12 12 -13 21 -3 15 1 17 20
11 12 -4 25 -9 28 -12z m120 7 c0 -5 -10 -10 -22 -10 -19 0 -20 2 -8 10 19 13
30 13 30 0z m49 -11 c-8 -16 -14 -18 -22 -10 -9 9 -8 14 3 21 24 16 31 11 19
-11z m-119 1 c-19 -13 -30 -13 -30 0 0 6 10 10 23 10 18 0 19 -2 7 -10z m-556
-46 c3 -8 2 -12 -4 -9 -6 3 -10 1 -10 -4 0 -6 -10 -11 -22 -10 -13 0 -17 3
-10 6 6 2 12 11 12 19 0 19 26 18 34 -2z m591 -24 c8 -13 -5 -13 -25 0 -13 8
-13 10 2 10 9 0 20 -4 23 -10z m44 -69 c11 -21 17 -41 14 -45 -4 -3 -2 -6 4
-6 6 0 16 -13 22 -28 7 -16 48 -64 91 -107 44 -44 80 -84 80 -90 0 -5 -39 29
-86 75 -60 60 -96 105 -120 152 -32 64 -40 88 -29 88 2 0 13 -17 24 -39z
m-158 -8 c23 6 25 -2 4 -17 -9 -7 -12 -19 -9 -33 5 -18 10 -21 24 -13 13 7 21
7 25 0 3 -5 -3 -10 -14 -10 -12 0 -21 -7 -21 -15 0 -34 -17 -12 -28 36 -12 49
-16 108 -5 66 3 -13 11 -17 24 -14z m-107 -30 c4 -16 30 -99 57 -186 39 -121
54 -157 65 -153 8 3 14 -1 15 -12 1 -15 2 -15 6 0 4 14 22 25 76 42 9 3 17 11
17 17 0 8 -16 9 -55 4 -37 -4 -55 -3 -55 4 0 6 7 11 15 11 17 0 18 4 9 49 -6
29 -9 31 -35 26 -18 -4 -29 -2 -29 4 0 6 11 11 25 11 17 0 25 6 25 18 0 14 2
14 9 3 5 -8 16 -11 25 -8 8 3 18 2 21 -2 2 -5 -4 -11 -15 -14 -17 -4 -18 -9
-10 -38 14 -47 20 -50 62 -31 39 17 41 42 4 39 -10 -1 -21 4 -23 11 -3 6 2 12
11 12 9 0 16 8 15 18 -1 35 -25 97 -37 97 -14 0 -15 4 -7 27 4 10 2 32 -4 49
-6 18 -8 35 -5 38 4 3 9 0 11 -6 3 -7 15 -13 29 -13 20 0 26 -7 35 -44 7 -28
21 -51 39 -64 29 -22 58 -82 39 -82 -6 0 -16 13 -22 30 -6 16 -17 32 -23 34
-9 3 -8 -6 2 -32 7 -20 20 -62 29 -92 8 -30 19 -62 25 -70 18 -29 21 -1 6 51
-19 61 -18 59 -8 59 5 0 19 -36 31 -80 13 -44 27 -77 32 -74 4 2 4 16 -2 31
-5 14 -8 27 -7 28 2 1 24 5 50 7 41 5 47 3 59 -18 7 -13 16 -24 21 -24 11 0
-6 33 -26 50 -9 7 -16 17 -16 23 0 16 51 -35 61 -62 5 -13 12 -21 16 -18 3 4
19 -3 35 -14 35 -25 29 -39 -6 -15 -14 8 -27 12 -30 7 -3 -5 -10 -41 -16 -81
-6 -39 -15 -80 -20 -91 -8 -14 -7 -17 4 -13 9 3 17 -5 24 -25 6 -17 7 -31 2
-31 -5 0 -12 9 -15 20 -8 26 -35 26 -68 0 -30 -24 -57 -17 -57 16 0 15 -6 24
-16 24 -13 0 -15 -7 -11 -30 11 -53 -12 -78 -39 -42 -19 24 -17 31 8 24 19 -5
21 -2 15 25 -3 16 -9 65 -13 107 -4 49 -11 75 -18 73 -11 -4 -12 -37 -3 -119
3 -27 1 -48 -4 -48 -5 0 -9 9 -9 20 0 13 -7 20 -20 20 -11 0 -20 5 -20 10 0 6
7 10 15 10 21 0 19 30 -2 31 -17 1 -17 2 0 6 20 5 20 6 6 56 -11 40 -20 45
-39 22 -7 -8 -20 -15 -30 -15 -16 0 -17 -5 -9 -37 11 -49 11 -53 -1 -53 -5 0
-12 11 -16 25 -3 14 -13 25 -21 25 -9 0 -22 8 -29 18 -12 15 -12 14 -8 -8 5
-24 5 -24 -10 -6 -17 21 -20 15 -10 -20 4 -16 12 -20 27 -17 21 5 21 4 -1 -14
-22 -18 -23 -23 -13 -59 6 -21 11 -54 11 -71 0 -22 5 -33 14 -33 19 0 56 74
56 112 0 17 3 28 8 24 7 -8 8 -13 11 -41 0 -8 7 -12 15 -9 17 6 31 -12 16 -21
-6 -4 -4 -13 7 -23 16 -16 16 -17 0 -20 -10 -2 -15 -8 -12 -13 4 -5 1 -9 -4
-9 -6 0 -11 6 -11 13 0 7 -5 5 -10 -5 -6 -10 -29 -20 -54 -23 -36 -6 -46 -12
-50 -31 -7 -27 -40 -33 -50 -8 -14 35 -7 54 20 54 l26 0 -7 74 c-9 106 -24
166 -94 384 -33 107 -61 198 -61 203 0 20 18 -1 24 -28z m-3867 -135 c-2 -18
-4 -4 -4 32 0 36 2 50 4 33 2 -18 2 -48 0 -65z m3953 82 c0 -5 -8 -10 -17 -10
-15 0 -16 2 -3 10 19 12 20 12 20 0z m75 -30 c3 -5 -1 -10 -10 -10 -9 0 -13 5
-10 10 3 6 8 10 10 10 2 0 7 -4 10 -10z m-55 -20 c-19 -12 -30 -12 -30 -1 0
10 31 20 40 14 2 -2 -2 -8 -10 -13z m1640 -30 c0 -11 4 -20 8 -20 4 0 13 -20
20 -45 7 -25 18 -45 24 -45 7 0 66 20 130 44 106 39 121 43 164 35 61 -12 64
-16 15 -21 -21 -2 -37 0 -35 4 10 16 -30 6 -151 -38 -144 -52 -144 -52 -171
29 -9 29 -19 58 -22 65 -2 6 1 12 7 12 6 0 11 -9 11 -20z m-249 -172 c6 1 8
-2 4 -8 -12 -20 25 -22 112 -7 49 8 89 14 91 12 2 -2 0 -44 -3 -94 -6 -72 -11
-92 -24 -96 -20 -6 -207 175 -216 209 -6 21 -6 21 10 1 9 -11 21 -19 26 -17z
m268 -55 c16 -105 15 -183 -4 -183 -8 0 -15 -3 -15 -8 0 -11 30 -55 48 -69 13
-11 13 -13 1 -13 -8 0 -27 16 -43 36 -28 36 -28 36 -11 69 18 33 18 108 -1
220 -4 26 -3 37 3 30 6 -5 15 -42 22 -82z m-4643 -48 c-23 -17 -36 -19 -36 -6
0 5 8 12 18 14 32 9 37 6 18 -8z m35 -32 c-9 -16 -10 -14 -11 12 0 21 3 26 11
18 8 -8 8 -16 0 -30z m9 -56 c0 -5 -4 -5 -10 -2 -5 3 -10 14 -10 23 0 15 2 15
10 2 5 -8 10 -19 10 -23z m3050 -61 c0 -11 -19 -15 -25 -6 -3 5 1 10 9 10 9 0
16 -2 16 -4z m-455 -57 c28 -10 57 -19 66 -19 8 0 24 -7 35 -16 19 -15 18 -15
-4 -11 -13 3 -20 1 -16 -5 7 -11 -37 -1 -46 11 -3 3 -9 6 -15 6 -29 0 -104 29
-98 38 3 6 1 7 -5 3 -6 -4 -23 -3 -39 0 -24 6 -25 8 -8 14 26 9 68 2 130 -21z
m-170 -16 c-32 -17 -42 -12 -20 10 8 9 23 13 32 10 12 -5 10 -9 -12 -20z
m2157 -40 c-5 -15 14 -17 23 -3 3 6 10 10 15 10 6 0 1 -15 -9 -33 -12 -22 -16
-39 -10 -55 6 -16 5 -22 -6 -22 -21 0 -30 4 -28 12 2 4 -4 5 -12 2 -8 -4 -15
-1 -15 5 0 6 5 11 11 11 7 0 9 11 6 27 -3 15 -1 36 4 45 8 15 6 18 -11 18 -19
0 -27 19 -13 33 9 10 50 -36 45 -50z m-2092 34 c0 -8 -9 -22 -20 -32 -19 -17
-19 -19 -2 -31 9 -7 12 -14 5 -14 -6 0 -15 5 -18 10 -11 17 -25 0 -25 -30 0
-37 16 -80 30 -80 6 0 8 5 5 10 -9 15 21 12 34 -4 9 -10 8 -16 -4 -26 -17 -14
-20 -40 -4 -40 5 0 7 5 4 10 -3 6 -1 10 5 10 6 0 13 -7 17 -15 5 -14 8 -14 29
0 26 17 44 13 44 -11 0 -15 -15 -19 -23 -6 -2 4 -3 2 -1 -4 4 -18 -32 -34 -46
-21 -10 9 -12 9 -7 -4 7 -22 -32 -46 -45 -27 -8 10 -9 9 -5 -4 3 -9 -1 -19 -9
-22 -8 -3 -14 -1 -14 4 0 5 -6 7 -12 5 -19 -7 -68 68 -68 105 0 19 5 30 13 28
6 -1 22 2 35 6 16 5 21 13 17 27 -3 10 -7 28 -10 38 -3 10 -16 22 -28 26 -21
7 -21 8 6 12 15 2 27 9 27 15 0 5 11 19 25 30 14 11 25 26 25 34 0 8 5 14 10
14 6 0 10 -6 10 -13z m700 -13 c0 -9 -11 -14 -30 -14 -16 0 -30 5 -30 11 0 6
9 8 20 4 14 -5 20 -2 20 10 0 9 5 13 10 10 6 -3 10 -13 10 -21z m35 -4 c-4
-12 -2 -20 6 -20 10 0 9 -51 -3 -123 -2 -14 8 -22 42 -34 57 -19 62 -24 41
-44 -15 -15 -22 -15 -96 11 -124 42 -123 42 -107 67 12 19 86 -3 78 -23 -3 -8
-1 -14 4 -14 20 0 41 136 23 154 -15 14 -13 46 3 46 11 0 13 -6 9 -20z m-3584
-32 c22 -14 33 -29 31 -40 -4 -21 -22 -24 -22 -5 0 22 -37 50 -56 43 -18 -7
-34 8 -34 31 0 16 33 4 81 -29z m3109 22 c0 -5 16 -10 35 -10 19 0 67 -13 107
-29 40 -15 85 -31 101 -35 15 -3 27 -10 27 -15 0 -4 11 -6 25 -3 14 2 26 0 26
-7 3 -20 4 -26 12 -38 11 -18 -37 -16 -88 3 -22 8 -49 17 -60 18 -11 2 -34 7
-52 11 -28 7 -31 5 -26 -13 3 -11 19 -26 36 -33 17 -7 25 -15 19 -17 -6 -2
-20 2 -31 8 -12 6 -21 7 -21 2 0 -6 -9 -12 -20 -15 -14 -3 -20 -14 -20 -32 0
-24 -41 -75 -60 -75 -4 0 -11 -10 -15 -22 -5 -17 -8 -19 -11 -8 -3 11 -19 15
-62 14 -31 0 -56 -5 -56 -10 1 -5 5 -19 9 -32 5 -19 2 -25 -14 -29 -23 -6 -26
-14 -11 -29 7 -7 5 -17 -6 -30 -15 -19 -15 -19 -11 3 7 34 -18 49 -37 22 -12
-18 -18 -20 -30 -10 -9 7 -24 10 -37 6 -17 -6 -21 -4 -16 9 3 8 2 18 -3 21
-15 9 -12 25 4 25 20 0 48 30 42 45 -3 9 3 11 17 8 18 -4 19 -3 7 6 -8 6 -10
11 -5 12 6 1 15 2 20 4 6 1 16 3 23 3 7 1 11 6 7 11 -3 5 -1 12 5 16 5 3 10 1
10 -4 0 -6 5 -11 10 -11 6 0 10 5 10 11 0 28 54 50 63 25 7 -17 43 -14 40 3
-2 6 4 11 13 11 13 0 15 8 12 34 -4 34 -3 35 31 33 32 -2 36 1 41 27 5 28 1
32 -50 59 -68 35 -81 47 -52 47 12 0 22 5 22 10 0 6 5 10 10 10 6 0 10 -4 10
-10z m-128 -102 c-27 -89 -29 -94 -37 -86 -8 8 44 168 54 168 5 0 -3 -37 -17
-82z m-3267 -137 c-7 -6 -9 -3 -33 75 -12 39 -22 84 -21 100 0 17 12 -11 29
-70 16 -55 27 -102 25 -105z m3205 180 c0 -6 -4 -13 -10 -16 -5 -3 -10 1 -10
9 0 9 5 16 10 16 6 0 10 -4 10 -9z m-10 -55 c0 -8 -7 -17 -16 -20 -25 -10 -30
2 -8 19 24 18 24 18 24 1z m-1920 -15 c0 -6 -5 -13 -10 -16 -6 -4 -7 -11 -4
-17 4 -5 -3 -22 -14 -38 -13 -17 -22 -46 -23 -74 -2 -25 -7 -46 -12 -46 -5 0
-3 -7 4 -17 11 -13 11 -17 2 -20 -15 -5 -18 -53 -3 -53 6 0 10 5 10 11 0 5 5
7 10 4 6 -3 10 -20 10 -36 0 -16 7 -59 16 -95 14 -56 15 -67 3 -75 -19 -12
-39 -11 -39 2 0 6 -6 25 -13 42 -33 76 -37 102 -28 187 12 111 28 176 55 217
21 32 36 42 36 24z m2848 -7 c13 -9 21 -22 18 -30 -3 -9 4 -16 18 -20 23 -5
24 -7 10 -39 -15 -38 -3 -57 32 -50 10 2 59 -10 108 -28 87 -31 89 -33 105
-77 10 -25 15 -52 13 -59 -2 -7 8 -25 22 -40 14 -15 23 -31 19 -34 -12 -12
-64 53 -58 72 9 31 -22 87 -57 103 -62 29 -138 49 -157 43 -11 -3 -22 -1 -26
5 -3 6 -12 7 -18 4 -7 -4 -9 -4 -5 1 10 10 -21 34 -44 35 -10 0 -18 -4 -18
-10 0 -5 -4 -10 -10 -10 -5 0 -10 7 -10 15 0 11 11 15 40 15 29 0 42 5 50 20
9 18 8 20 -15 20 -22 0 -25 3 -19 25 5 20 1 26 -20 35 -14 5 -26 12 -26 15 0
10 26 5 48 -11z m-3747 -13 c28 19 29 20 36 2 4 -10 48 -74 98 -143 106 -145
109 -150 97 -150 -5 0 -24 21 -42 48 -143 200 -171 232 -190 222 -18 -9 -14
-20 54 -153 40 -78 83 -159 94 -179 12 -21 44 -82 72 -135 62 -118 82 -145
105 -137 20 8 17 25 -31 146 -19 48 -34 92 -34 98 0 30 21 -10 60 -115 36 -99
46 -116 61 -112 11 3 21 1 24 -3 3 -5 -11 -12 -32 -16 -39 -7 -173 -71 -208
-100 l-20 -16 20 -13 c11 -8 28 -20 38 -27 10 -8 26 -46 37 -89 11 -42 42
-125 70 -184 43 -92 52 -106 65 -95 10 8 15 9 15 2 0 -6 -4 -14 -10 -17 -24
-15 -8 -26 30 -21 22 3 40 3 40 1 0 -3 -17 -14 -37 -25 l-38 -21 60 6 c33 4
116 24 185 46 92 30 135 39 162 35 30 -5 40 -2 52 15 18 26 12 44 -28 87 -46
50 -81 65 -131 57 -42 -6 -44 -7 -55 -55 -9 -36 -9 -54 0 -69 12 -24 -1 -29
-19 -7 -8 10 -9 26 -2 57 6 24 11 47 11 51 0 13 -34 -5 -123 -64 -48 -33 -96
-57 -105 -55 -15 3 -14 5 3 12 11 5 58 34 105 65 87 58 158 90 198 90 31 0 92
-32 121 -64 14 -14 30 -26 36 -26 6 0 30 16 54 36 23 20 45 34 48 31 5 -5 -15
-25 -73 -72 -11 -9 -24 -59 -25 -97 0 -22 41 -78 57 -78 11 0 161 97 187 120
5 4 2 21 -7 38 -25 49 -19 61 9 17 13 -22 24 -44 24 -50 0 -5 -44 -39 -99 -75
-59 -39 -97 -70 -95 -78 3 -7 -1 -12 -8 -11 -30 4 -32 -3 -29 -73 4 -77 9 -86
69 -119 31 -17 118 -140 128 -182 6 -22 2 -25 -42 -36 -26 -7 -65 -19 -86 -27
-44 -16 -47 -17 -47 -6 0 9 76 37 128 47 38 8 39 16 11 62 -20 32 -24 34 -58
28 -60 -11 -72 -21 -61 -51 6 -14 10 -31 10 -37 -1 -19 -30 25 -30 45 0 21
-25 18 -97 -13 -24 -10 -43 -17 -43 -15 0 2 -21 -2 -47 -10 -25 -8 -67 -14
-93 -14 l-48 0 15 -62 c9 -36 26 -74 39 -87 l23 -25 38 19 c21 10 44 20 52 21
7 1 24 12 36 24 18 17 30 20 54 15 l31 -7 -21 -30 c-18 -25 -27 -29 -58 -27
-20 2 -53 -3 -74 -10 l-39 -13 77 -49 c43 -28 75 -52 73 -55 -6 -5 -65 29
-168 96 -41 27 -101 66 -133 86 l-58 36 -87 -45 c-84 -43 -89 -48 -149 -135
-34 -49 -85 -108 -112 -131 -42 -36 -53 -40 -74 -32 -37 14 -41 28 -17 62 26
36 40 31 16 -5 -20 -32 -20 -33 5 -39 33 -9 101 54 166 153 52 79 62 89 133
128 124 67 119 66 186 22 32 -22 59 -38 61 -37 2 3 -27 120 -31 125 -4 3 -139
-48 -151 -57 -5 -5 -44 -21 -85 -36 -74 -28 -142 -83 -156 -127 -3 -10 -10
-18 -15 -18 -12 0 -11 10 5 39 8 14 12 31 9 38 -7 17 15 43 36 43 9 0 61 19
116 43 55 24 130 54 168 68 62 22 81 39 58 54 -6 3 -56 -17 -113 -44 -57 -28
-125 -57 -153 -65 -112 -34 -119 -39 -149 -116 -37 -94 -47 -82 -12 14 21 57
33 76 50 80 12 3 39 12 59 21 37 15 37 15 23 48 -8 17 -21 59 -31 92 -9 33
-19 68 -21 78 -3 9 -1 17 4 17 6 0 13 -12 16 -27 4 -16 18 -65 32 -110 l24
-81 43 13 c24 7 86 35 138 61 52 26 97 47 100 47 3 -1 68 9 145 21 76 13 141
21 143 20 10 -9 -14 -15 -143 -36 -112 -17 -136 -24 -134 -37 6 -29 110 -26
197 4 41 15 81 28 90 30 37 8 151 46 151 51 0 12 -45 64 -55 64 -6 0 -26 13
-45 29 -32 26 -35 35 -40 92 l-5 64 -32 -3 c-29 -3 -33 -1 -33 20 1 13 7 41
15 63 8 22 15 42 15 45 0 3 -21 6 -46 8 -32 2 -82 -8 -162 -33 -63 -20 -140
-41 -170 -45 -30 -5 -57 -11 -59 -14 -3 -2 7 -43 22 -91 14 -48 24 -89 21 -92
-5 -5 -26 39 -26 55 0 4 -4 13 -9 20 -11 18 -67 -5 -119 -48 -35 -29 -82 -41
-82 -20 0 6 10 10 23 10 12 0 41 16 65 34 24 19 57 38 74 41 28 6 30 10 24 38
-4 17 -10 35 -15 40 -4 4 -49 -18 -99 -49 -81 -51 -91 -60 -86 -81 8 -30 0
-29 -19 1 -16 24 -16 24 87 87 l103 64 -5 40 c-3 22 -29 85 -58 140 -29 55
-62 136 -74 180 -18 70 -25 83 -56 103 l-35 23 -32 -23 c-18 -12 -67 -49 -110
-82 -42 -32 -80 -57 -83 -54 -3 3 21 26 53 51 32 25 72 57 88 71 17 14 33 26
37 26 3 0 25 16 49 36 24 20 69 49 101 65 l59 30 -19 27 c-10 15 -43 72 -72
127 -29 55 -63 118 -75 140 -12 22 -50 94 -84 160 -35 66 -66 124 -70 128 -9
9 -41 -1 -41 -12 0 -4 41 -84 91 -177 124 -231 141 -264 131 -264 -4 0 -59 96
-122 213 -62 116 -114 213 -115 215 -2 2 -49 -18 -106 -44 -57 -25 -114 -50
-127 -55 -19 -7 -21 -12 -12 -29 9 -17 8 -20 -8 -20 -14 0 -18 8 -19 36 -1 27
2 34 13 30 18 -7 244 99 244 114 0 6 4 9 9 6 5 -4 17 -3 26 0 12 5 15 14 10
38 -5 31 -5 31 11 9 l16 -23 29 21z m4795 -90 c-17 -37 -25 -47 -28 -34 -2 10
6 36 19 57 12 22 20 43 17 48 -3 4 -2 14 3 21 20 31 12 -44 -11 -92z m-1521
37 c31 -20 45 -38 30 -38 -10 0 -75 45 -75 53 0 11 8 9 45 -15z m190 -51 c-1
-17 -9 -33 -17 -36 -9 -3 -58 -54 -111 -112 -53 -59 -108 -116 -123 -128 -24
-19 -28 -20 -39 -5 -10 15 -14 15 -42 0 -30 -15 -31 -15 -35 9 -4 20 -2 23 12
15 11 -6 24 -4 38 6 19 13 22 13 30 -2 7 -13 13 -14 29 -6 30 17 46 40 39 58
-6 15 -9 14 -31 -6 -20 -19 -25 -20 -25 -8 0 9 -3 25 -7 35 -6 16 -5 17 11 3
17 -13 21 -12 43 14 24 29 47 30 23 1 -10 -12 -10 -19 -2 -27 19 -19 192 181
192 222 0 18 3 21 9 11 5 -7 7 -27 6 -44z m-285 39 c0 -3 -4 -8 -10 -11 -5 -3
-10 -1 -10 4 0 6 5 11 10 11 6 0 10 -2 10 -4z m1539 -30 c8 -10 9 -16 1 -21
-5 -3 -10 -1 -10 5 0 6 -11 3 -24 -7 -13 -10 -21 -22 -18 -27 3 -5 0 -6 -5 -3
-6 4 -46 -30 -89 -74 l-79 -80 4 -69 c3 -66 1 -72 -30 -111 -18 -22 -59 -63
-91 -90 -54 -44 -64 -49 -110 -49 l-50 0 6 -32 c6 -35 53 -81 70 -71 6 4 8 2
3 -2 -4 -5 7 -24 25 -42 54 -56 22 -48 -45 12 -53 46 -66 64 -71 96 -3 21 -10
38 -14 37 -4 -1 -27 1 -51 5 -51 9 -78 -5 -110 -56 -19 -31 -29 -36 -101 -51
-44 -10 -80 -23 -80 -29 0 -7 5 -29 11 -50 10 -36 14 -39 206 -132 108 -52
199 -95 203 -95 3 0 22 45 40 100 28 82 49 120 108 200 45 61 71 105 66 112
-4 7 -4 10 1 6 4 -4 15 -2 23 4 12 10 18 8 33 -11 11 -13 17 -27 13 -30 -3 -3
-12 3 -20 14 -10 13 -17 16 -22 9 -4 -6 -40 -57 -81 -112 -67 -93 -78 -116
-129 -265 -49 -142 -56 -171 -55 -235 2 -109 7 -122 46 -120 40 2 330 -88 375
-116 18 -12 35 -31 38 -43 5 -20 13 -23 52 -23 33 0 54 -7 78 -25 19 -15 35
-21 39 -15 10 17 23 11 18 -8 -3 -13 7 -27 32 -46 20 -16 34 -30 31 -33 -3 -3
-38 20 -79 51 -40 31 -81 56 -90 56 -22 0 -22 -38 0 -62 9 -10 11 -18 6 -18
-15 0 -29 21 -37 53 -5 20 -12 27 -30 27 -17 0 -27 9 -36 30 -7 16 -26 38 -44
49 -25 15 -320 111 -341 111 -3 0 -2 -12 1 -26 5 -19 4 -25 -5 -20 -6 4 -11
16 -11 27 0 14 -7 19 -25 19 -20 0 -25 6 -31 35 -9 50 1 183 18 235 l15 45
-198 93 c-154 73 -202 91 -216 83 -10 -5 -25 -12 -34 -14 -9 -3 -19 -18 -22
-35 -5 -25 -16 -33 -84 -62 -43 -19 -84 -38 -91 -43 -14 -11 -14 -12 -30 27
-12 26 -16 28 -49 23 -23 -4 -40 -1 -49 8 -18 17 1 32 20 15 16 -12 46 -7 127
21 66 24 91 53 108 125 10 43 18 54 49 71 20 11 71 28 112 37 68 15 78 21 116
64 l42 47 126 0 126 0 80 80 81 80 -6 70 -6 70 45 44 c25 24 43 48 41 52 -3 3
3 13 13 20 16 13 16 12 2 -6 -8 -11 1 -6 20 12 70 63 105 92 111 93 4 0 12 -6
18 -14z m-1609 -45 c0 -12 -190 -164 -197 -158 -4 4 185 167 194 167 2 0 3 -4
3 -9z m-3170 -152 c48 -124 65 -155 138 -251 45 -61 77 -108 70 -106 -7 3 -47
49 -90 104 -75 98 -86 118 -148 284 -18 47 -35 91 -37 98 -3 6 -1 12 3 12 5 0
34 -64 64 -141z m3378 92 c-12 -14 -26 -30 -30 -35 -8 -10 -38 11 -38 26 0 6
6 6 14 -1 11 -9 19 -6 37 17 13 16 28 27 32 25 5 -3 -2 -17 -15 -32z m-963
-23 c7 -7 0 -9 -24 -4 -18 3 -40 6 -47 6 -8 0 -14 5 -14 11 0 14 70 3 85 -13z
m-475 -37 l85 -10 -93 3 -93 2 2 -60 c1 -68 16 -134 34 -154 10 -11 19 -10 52
6 22 11 45 28 52 36 10 11 18 13 31 6 25 -13 30 -13 30 5 0 13 14 20 23 13 2
-2 15 5 31 15 15 10 30 16 32 14 7 -7 -41 -57 -55 -57 -16 0 -14 -10 7 -33 12
-14 17 -36 17 -81 0 -59 1 -61 28 -64 15 -2 27 1 27 7 0 6 6 11 14 11 8 0 17
8 21 18 6 14 9 12 20 -13 7 -16 9 -32 5 -35 -4 -3 -3 -29 2 -58 9 -46 8 -55
-7 -72 -15 -17 -31 -20 -104 -20 -101 0 -114 8 -160 91 -21 37 -33 76 -37 117
-6 51 -10 61 -27 64 -17 2 -24 17 -39 73 -10 39 -18 94 -18 123 0 33 -4 52
-12 52 -16 0 -72 -18 -138 -45 -30 -13 -68 -26 -83 -29 -15 -4 -30 -12 -33
-20 -4 -11 96 -264 115 -291 4 -5 20 -42 34 -81 25 -63 42 -86 153 -203 122
-128 125 -133 108 -152 -9 -10 -25 -19 -34 -19 -9 0 -31 -5 -47 -11 l-31 -10
13 -57 c8 -31 12 -58 11 -60 -9 -9 -26 31 -32 76 -6 50 -6 52 21 62 15 6 35
12 44 13 22 3 41 16 41 27 0 5 -51 62 -113 127 -99 103 -117 128 -147 198 -19
44 -42 91 -51 105 -9 14 -19 37 -23 52 -3 15 -19 55 -35 90 -15 35 -34 78 -41
96 -7 17 -17 32 -22 32 -20 0 -95 -44 -120 -72 -16 -16 -28 -27 -28 -23 0 3
-20 -6 -45 -21 -25 -14 -45 -23 -45 -20 0 4 -18 -3 -40 -14 -22 -11 -40 -25
-40 -30 0 -10 -27 -15 -122 -25 -40 -4 -58 -11 -58 -20 0 -8 -5 -17 -11 -21
-8 -5 -10 3 -7 25 3 21 0 31 -9 31 -7 0 -13 5 -13 10 0 6 30 11 68 11 142 3
141 3 302 102 77 48 232 117 350 156 106 36 121 39 140 29 8 -4 53 -12 100
-17z m-1310 -6 c0 -9 -9 -15 -25 -15 -16 0 -25 -6 -25 -16 0 -8 -4 -13 -9 -10
-5 3 -8 16 -8 28 0 19 6 23 33 25 25 2 34 -1 34 -12z m1505 -95 c-3 -5 -11
-10 -16 -10 -6 0 -7 5 -4 10 3 6 11 10 16 10 6 0 7 -4 4 -10z m2060 -59 c-8
-8 -35 22 -35 38 0 12 5 10 20 -9 10 -14 17 -27 15 -29z m948 32 c-7 -2 -21
-2 -30 0 -10 3 -4 5 12 5 17 0 24 -2 18 -5z m-2293 -13 c0 -5 -4 -10 -10 -10
-5 0 -10 5 -10 10 0 6 5 10 10 10 6 0 10 -4 10 -10z m-2904 -18 c-11 -10 15
-41 29 -36 22 9 18 -4 -5 -16 -17 -9 -22 -7 -32 15 -10 21 -17 25 -37 20 l-26
-6 24 20 c14 10 31 17 38 14 8 -3 12 -8 9 -11z m3172 -24 c-71 -57 -37 -68 36
-12 26 20 50 33 53 30 7 -6 1 -11 -73 -65 -36 -27 -43 -29 -54 -16 -18 21 -21
20 -79 -26 -29 -23 -54 -39 -57 -36 -3 3 13 20 35 38 32 25 40 37 35 53 -6 18
-5 19 9 8 14 -12 24 -8 69 27 60 45 83 45 26 -1z m2019 10 c-3 -8 -6 -5 -6 6
-1 11 2 17 5 13 3 -3 4 -12 1 -19z m-3501 -25 c-4 -4 -11 -1 -16 7 -16 25 -11
35 7 17 9 -9 13 -20 9 -24z m1321 -3 c11 -16 10 -21 -6 -30 -27 -14 -28 -14
-28 20 0 34 16 39 34 10z m2178 -17 c2 -25 -15 -21 -33 7 -11 18 -10 20 10 17
13 -3 22 -12 23 -24z m-3713 -30 c2 -20 8 -28 21 -27 9 1 17 -2 17 -7 0 -5 -4
-9 -10 -9 -10 0 -44 -59 -37 -66 2 -2 20 3 40 11 62 26 41 1 -28 -33 -51 -25
-78 -32 -123 -32 -53 1 -60 4 -104 44 -60 55 -51 69 10 16 39 -35 51 -40 93
-40 27 0 49 2 49 4 0 28 -16 36 -71 36 -62 0 -75 13 -44 44 9 9 11 17 5 21
-15 9 -12 25 5 25 8 0 15 -6 15 -14 0 -12 11 -14 52 -11 51 5 88 26 88 52 0
25 19 13 22 -14z m2393 19 c-14 -13 -123 -34 -134 -27 -6 3 -18 -6 -27 -20
-15 -24 -15 -27 0 -44 9 -9 16 -25 16 -34 0 -9 8 -17 18 -17 14 0 14 -3 -5
-18 -38 -29 -133 -164 -143 -204 -6 -20 -8 -48 -4 -62 8 -32 -10 -41 -24 -11
-18 40 11 118 78 205 64 83 67 103 27 148 -15 16 -31 22 -61 22 -49 0 -74 -19
-109 -80 -40 -70 -74 -95 -182 -135 -222 -81 -231 -85 -270 -125 -43 -44 -58
-50 -191 -79 -50 -11 -97 -23 -106 -26 -9 -4 -18 0 -22 10 -8 21 3 42 13 26 5
-8 41 -4 125 16 106 24 123 31 165 68 46 41 85 59 276 130 114 43 138 62 185
145 38 67 58 76 139 65 43 -6 51 -4 67 17 12 14 27 22 40 20 12 -2 37 1 55 7
43 12 86 14 74 3z m1275 -47 c-7 -9 -15 -13 -18 -10 -3 2 1 11 8 20 7 9 15 13
18 10 3 -2 -1 -11 -8 -20z m-4841 -21 c12 -27 7 -45 -8 -28 -14 14 -23 54 -13
54 5 0 14 -12 21 -26z m2757 -27 c-30 -25 -38 -38 -32 -52 5 -14 9 -16 18 -7
7 7 20 12 30 12 15 0 17 -5 12 -27 -13 -51 -46 -57 -69 -13 -18 35 -28 37 -62
10 -34 -26 -47 -25 -67 5 -20 31 -20 33 1 31 12 0 19 7 21 22 2 12 8 20 13 17
14 -9 11 -36 -6 -49 -8 -6 -11 -16 -7 -23 5 -8 32 7 86 48 85 63 127 81 62 26z
m-1406 -17 c0 -5 -22 -10 -50 -10 -27 0 -50 5 -50 10 0 6 23 10 50 10 28 0 50
-4 50 -10z m-1870 -10 c0 -5 -4 -10 -10 -10 -5 0 -10 5 -10 10 0 6 5 10 10 10
6 0 10 -4 10 -10z m1463 -54 c43 -32 55 -36 108 -36 45 0 76 7 126 30 66 30
173 43 173 20 0 -5 -24 -10 -54 -10 -38 0 -72 -9 -122 -31 -61 -28 -76 -31
-135 -27 -61 5 -72 9 -122 50 -31 25 -53 48 -50 52 3 3 11 2 17 -3 6 -4 33
-25 59 -45z m1982 25 c3 -5 1 -12 -4 -15 -13 -8 -42 4 -35 15 7 12 31 12 39 0z
m-1920 -101 c3 -5 -1 -10 -10 -10 -9 0 -13 5 -10 10 3 6 8 10 10 10 2 0 7 -4
10 -10z m-309 -40 c0 -13 -7 -20 -18 -20 -20 0 -25 26 -5 33 21 9 23 8 23 -13z
m1064 -20 c0 -5 -4 -10 -10 -10 -5 0 -10 5 -10 10 0 6 5 10 10 10 6 0 10 -4
10 -10z m-770 -19 c0 -11 -31 -24 -39 -16 -3 3 1 10 9 15 19 12 30 12 30 1z
m1354 -10 c3 -5 -1 -11 -9 -14 -9 -4 -12 -1 -8 9 6 16 10 17 17 5z m-1413 -54
c-8 -8 -11 -7 -11 4 0 20 13 34 18 19 3 -7 -1 -17 -7 -23z m261 -103 c10 -3
18 -9 18 -13 0 -16 -40 -43 -55 -38 -17 7 -21 47 -4 47 5 0 8 4 4 10 -3 5 -12
7 -20 4 -12 -5 -12 -1 -2 20 l12 25 15 -25 c8 -13 23 -27 32 -30z m697 -64
c16 0 33 -5 37 -11 5 -8 -6 -9 -37 -4 -32 5 -55 18 -86 48 -24 23 -43 45 -43
50 0 6 22 -11 50 -37 36 -33 57 -46 79 -46z m464 -49 c-88 -30 -258 -128 -271
-156 -21 -46 -15 -72 24 -101 19 -15 47 -50 61 -78 31 -63 23 -55 85 -77 l53
-19 -50 6 c-62 7 -60 6 -90 62 l-25 47 6 -50 c5 -39 -5 -98 -47 -275 -28 -124
-59 -233 -68 -244 -9 -10 -33 -27 -53 -37 -21 -11 -38 -21 -38 -23 0 -12 43
-102 60 -126 11 -16 20 -36 20 -47 -1 -22 -28 -56 -57 -72 -27 -14 -103 -15
-103 -1 0 6 20 10 44 10 51 0 60 8 47 42 -7 19 -21 27 -64 37 l-55 12 -50 -36
c-46 -32 -56 -35 -111 -34 -34 1 -61 4 -61 6 0 2 59 96 131 210 l130 206 -43
41 c-40 38 -46 51 -82 173 -44 150 -43 184 5 231 22 22 43 31 81 35 27 4 55
10 62 15 6 5 41 12 79 15 55 5 67 4 67 -8 0 -10 -10 -15 -27 -15 l-26 0 20
-22 c18 -20 19 -30 13 -83 -5 -33 -8 -73 -8 -90 0 -44 37 149 43 224 2 35 11
74 19 85 16 25 232 145 279 156 52 11 53 -1 0 -19z m-427 -26 c-11 -8 -25 -15
-30 -15 -6 0 -2 7 8 15 11 8 25 15 30 15 6 0 2 -7 -8 -15z m505 -18 c-1 -12
-15 -9 -19 4 -3 6 1 10 8 8 6 -3 11 -8 11 -12z m-572 -20 c-2 -1 -22 -11 -44
-22 -28 -14 -42 -29 -49 -52 -5 -18 -13 -33 -17 -33 -11 0 -11 1 2 40 12 34
101 100 107 80 2 -6 2 -12 1 -13z m122 0 c-13 -13 -26 -3 -16 12 3 6 11 8 17
5 6 -4 6 -10 -1 -17z m1908 -43 c1 -12 -6 -24 -14 -28 -12 -4 -14 0 -10 22 3
15 2 21 -1 15 -10 -21 -24 -14 -24 11 0 15 7 26 18 28 18 4 30 -14 31 -48z
m-3969 5 c0 -12 -27 -11 -35 1 -11 17 5 32 21 19 8 -6 14 -15 14 -20z m4050
-29 c0 -13 -11 -13 -30 0 -12 8 -11 10 8 10 12 0 22 -4 22 -10z m50 -4 c0 -2
-7 -9 -15 -16 -12 -10 -15 -10 -15 4 0 9 7 16 15 16 8 0 15 -2 15 -4z m-45
-46 c-3 -5 -14 -10 -23 -10 -15 0 -15 2 -2 10 20 13 33 13 25 0z m-62 -7 c-7
-2 -19 -2 -25 0 -7 3 -2 5 12 5 14 0 19 -2 13 -5z m-28 -23 c3 -6 -4 -10 -17
-10 -18 0 -20 2 -8 10 19 12 18 12 25 0z m-2761 -79 c3 -5 -1 -11 -9 -15 -9
-3 -15 0 -15 9 0 16 16 20 24 6z m3123 -62 c70 -30 43 -34 -31 -5 -35 14 -69
26 -75 26 -6 0 -11 4 -11 9 0 11 53 -2 117 -30z m-3112 21 c3 -5 2 -10 -4 -10
-5 0 -13 5 -16 10 -3 6 -2 10 4 10 5 0 13 -4 16 -10z m3245 -74 c19 -13 45
-26 58 -30 12 -4 20 -12 17 -17 -7 -11 -125 47 -125 61 0 15 12 12 50 -14z
m-1844 -66 c126 -26 162 -30 177 -20 26 16 31 7 9 -13 -17 -16 -30 -15 -192
18 -95 19 -175 35 -177 35 -2 0 -3 5 -3 11 0 6 6 9 13 6 8 -3 85 -20 173 -37z
m2514 -162 c0 -15 -4 -30 -10 -33 -5 -3 -10 3 -10 15 0 12 -6 20 -13 18 -13
-3 -17 3 -17 28 0 8 5 12 10 9 6 -3 10 4 10 17 l1 23 14 -25 c8 -14 14 -37 15
-52z m-4573 26 c-3 -3 -12 -4 -19 -1 -8 3 -5 6 6 6 11 1 17 -2 13 -5z m43 -8
c0 -8 -4 -18 -10 -21 -5 -3 -10 3 -10 14 0 12 5 21 10 21 6 0 10 -6 10 -14z
m267 -109 c31 -102 36 -127 26 -127 -4 0 -19 39 -32 88 -13 48 -26 93 -29 100
-2 6 0 12 4 12 5 0 19 -33 31 -73z m4227 47 c4 -10 1 -14 -6 -12 -15 5 -23 28
-10 28 5 0 13 -7 16 -16z m-5657 -322 c-1 -53 -3 -7 -3 103 0 110 2 154 3 97
2 -57 2 -147 0 -200z m603 152 c0 -11 -53 -74 -62 -74 -11 0 43 79 55 80 4 0
7 -3 7 -6z m725 -34 c3 -5 -1 -10 -9 -10 -8 0 -18 5 -21 10 -3 6 1 10 9 10 8
0 18 -4 21 -10z m155 -20 c0 -5 -4 -10 -10 -10 -5 0 -10 5 -10 10 0 6 5 10 10
10 6 0 10 -4 10 -10z m51 -88 c-6 -19 -1 -46 16 -89 12 -35 19 -63 14 -63 -17
0 -56 121 -53 162 3 30 7 36 17 28 9 -7 11 -20 6 -38z"/>
<path d="M4390 4148 c0 -80 13 -167 26 -172 8 -3 28 21 54 68 22 40 40 77 40
80 0 6 -103 56 -115 56 -3 0 -5 -15 -5 -32z"/>
<path d="M5511 3284 c0 -11 3 -14 6 -6 3 7 2 16 -1 19 -3 4 -6 -2 -5 -13z"/>
<path d="M4750 3689 c0 -5 5 -7 10 -4 6 3 10 8 10 11 0 2 -4 4 -10 4 -5 0 -10
-5 -10 -11z"/>
<path d="M4757 3663 c-9 -8 12 -33 27 -33 6 0 3 5 -7 11 -9 6 -15 14 -12 20 7
10 2 12 -8 2z"/>
<path d="M4780 3586 c0 -17 24 -65 30 -61 11 7 -8 65 -21 65 -5 0 -9 -2 -9 -4z"/>
<path d="M4815 3468 c8 -36 21 -55 31 -46 9 9 -16 78 -28 78 -6 0 -7 -13 -3
-32z"/>
<path d="M4837 3403 c-2 -5 1 -22 7 -40 15 -43 36 -30 24 15 -8 30 -22 41 -31
25z"/>
<path d="M4975 3401 c-19 -4 -26 -9 -18 -14 7 -4 25 -1 40 7 30 16 26 17 -22
7z"/>
<path d="M4775 3377 c5 -18 2 -28 -12 -36 -10 -6 -14 -11 -10 -11 5 0 22 8 38
17 34 20 34 46 1 51 -20 3 -22 0 -17 -21z"/>
<path d="M4747 3373 c-4 -3 -7 -11 -7 -17 0 -6 5 -5 12 2 6 6 9 14 7 17 -3 3
-9 2 -12 -2z"/>
<path d="M4896 3372 c-9 -15 2 -52 15 -52 11 0 11 17 0 44 -5 14 -10 16 -15 8z"/>
<path d="M5030 3359 c0 -5 5 -7 10 -4 6 3 10 8 10 11 0 2 -4 4 -10 4 -5 0 -10
-5 -10 -11z"/>
<path d="M4695 3350 c3 -5 10 -10 16 -10 5 0 9 5 9 10 0 6 -7 10 -16 10 -8 0
-12 -4 -9 -10z"/>
<path d="M4950 3345 c-7 -8 -10 -24 -7 -35 3 -11 1 -20 -4 -20 -5 0 -9 4 -9
10 0 5 -6 7 -13 4 -22 -8 -5 -114 18 -114 10 0 12 9 8 35 -5 30 -3 34 11 29 9
-3 16 -1 16 6 0 6 4 9 9 5 6 -3 3 -17 -6 -33 -16 -28 -12 -102 6 -102 4 0 24
15 43 34 32 31 36 41 42 106 4 40 5 74 2 77 -3 3 -17 -9 -32 -26 -21 -25 -29
-29 -40 -20 -8 7 -13 21 -12 32 4 25 -15 33 -32 12z"/>
<path d="M5000 3335 c-8 -9 -8 -15 -2 -15 12 0 26 19 19 26 -2 2 -10 -2 -17
-11z"/>
<path d="M4740 3090 c0 -5 7 -10 15 -10 8 0 15 5 15 10 0 6 -7 10 -15 10 -8 0
-15 -4 -15 -10z"/>
<path d="M4640 3050 c0 -5 5 -10 10 -10 6 0 10 5 10 10 0 6 -4 10 -10 10 -5 0
-10 -4 -10 -10z"/>
<path d="M6193 3373 c-8 -3 -13 -23 -13 -49 0 -37 3 -44 20 -44 17 0 20 7 20
50 0 49 -3 53 -27 43z"/>
<path d="M6120 3363 c-53 -9 -55 -12 -20 -48 46 -48 60 -45 60 10 0 25 -3 44
-7 44 -5 -1 -19 -4 -33 -6z"/>
<path d="M6179 3240 c24 -21 41 -19 41 6 0 9 -11 14 -32 14 l-33 -1 24 -19z"/>
<path d="M4110 2865 c-7 -8 -16 -12 -21 -9 -21 12 -20 -28 0 -47 25 -23 45
-16 35 13 -6 19 -5 19 20 3 30 -20 32 -15 11 25 -17 34 -27 37 -45 15z"/>
<path d="M4120 2780 c-13 -8 -13 -10 2 -10 9 0 20 5 23 10 8 13 -5 13 -25 0z"/>
<path d="M4496 2992 c27 -17 63 -32 80 -35 16 -3 35 -6 43 -8 7 -2 15 1 17 6
5 12 -94 51 -151 60 l-40 7 51 -30z"/>
<path d="M4528 2905 c-4 -20 -2 -23 8 -14 7 6 10 17 7 25 -7 20 -10 18 -15
-11z"/>
<path d="M4460 2852 c0 -10 -5 -23 -11 -29 -13 -13 -4 -33 14 -33 22 0 34 15
42 48 6 30 5 32 -19 32 -18 0 -26 -5 -26 -18z"/>
<path d="M4335 2790 c-4 -6 -3 -14 0 -20 7 -12 55 -13 55 -2 0 14 -48 33 -55
22z"/>
<path d="M4400 2780 c0 -5 7 -10 15 -10 8 0 15 5 15 10 0 6 -7 10 -15 10 -8 0
-15 -4 -15 -10z"/>
<path d="M4230 2710 c0 -5 5 -10 11 -10 5 0 7 5 4 10 -3 6 -8 10 -11 10 -2 0
-4 -4 -4 -10z"/>
<path d="M4294 2708 c6 -20 -10 -25 -17 -5 -4 9 -6 9 -6 0 -1 -16 19 -27 29
-17 5 5 5 16 -1 24 -9 13 -10 12 -5 -2z"/>
<path d="M4240 2680 c0 -5 5 -10 10 -10 6 0 10 5 10 10 0 6 -4 10 -10 10 -5 0
-10 -4 -10 -10z"/>
<path d="M4198 2663 c7 -3 16 -2 19 1 4 3 -2 6 -13 5 -11 0 -14 -3 -6 -6z"/>
<path d="M2260 2600 c0 -5 5 -10 11 -10 5 0 7 5 4 10 -3 6 -8 10 -11 10 -2 0
-4 -4 -4 -10z"/>
<path d="M2276 2571 c-4 -7 -5 -15 -2 -18 9 -9 19 4 14 18 -4 11 -6 11 -12 0z"/>
<path d="M2287 2523 c-4 -7 -1 -27 7 -45 10 -23 14 -27 14 -13 0 35 -13 71
-21 58z"/>
<path d="M2270 1700 c0 -3 -7 -26 -15 -52 -16 -55 -7 -62 37 -25 l27 22 -24
30 c-14 17 -25 28 -25 25z"/>
<path d="M2220 1095 c-7 -9 -11 -17 -8 -20 8 -8 47 7 52 21 7 19 -28 18 -44
-1z"/>
<path d="M1630 1080 c-8 -5 -12 -12 -9 -15 4 -3 12 1 19 10 14 17 11 19 -10 5z"/>
<path d="M5234 2125 c-14 -9 -27 -35 -34 -67 -18 -75 -33 -93 -100 -117 -65
-24 -73 -30 -60 -51 7 -11 23 -7 88 20 73 30 80 35 88 69 7 29 14 36 34 36 21
1 25 5 23 30 0 17 -5 45 -10 63 -8 31 -9 32 -29 17z"/>
<path d="M3358 2444 c-5 -4 -8 -15 -8 -24 0 -9 -16 -24 -35 -33 -34 -16 -35
-18 -29 -59 8 -56 57 -164 86 -189 20 -17 34 -19 100 -15 42 2 81 7 87 11 15
9 14 88 -1 108 -8 10 -31 17 -58 19 l-45 3 -3 65 c-3 73 -20 100 -56 93 -17
-4 -25 0 -28 12 -1 9 -6 13 -10 9z"/>
<path d="M2770 2326 c-15 -42 -11 -55 6 -17 8 19 12 36 9 39 -2 3 -9 -7 -15
-22z"/>
<path d="M2724 2316 c-18 -14 -18 -16 -2 -32 16 -16 17 -16 24 10 8 34 3 40
-22 22z"/>
<path d="M2610 2310 c-12 -8 -11 -10 8 -10 12 0 22 5 22 10 0 13 -11 13 -30 0z"/>
<path d="M2665 2310 c-3 -5 1 -10 9 -10 9 0 16 5 16 10 0 6 -4 10 -9 10 -6 0
-13 -4 -16 -10z"/>
<path d="M4380 2236 c0 -8 -6 -17 -12 -19 -8 -3 -6 -6 5 -6 11 -1 17 6 17 19
0 11 -2 20 -5 20 -3 0 -5 -6 -5 -14z"/>
<path d="M3690 1531 c0 -5 -3 -17 -7 -26 -5 -14 -2 -16 16 -10 13 4 28 2 37
-6 8 -6 17 -10 20 -7 2 3 -11 17 -31 32 -19 15 -35 23 -35 17z"/>
<path d="M3423 1513 c-35 -7 -73 -59 -73 -100 0 -20 17 -91 37 -159 34 -112
41 -127 75 -154 l37 -31 45 68 c24 38 47 78 50 90 7 24 0 26 -106 38 -32 4
-58 11 -58 16 0 6 8 8 18 5 9 -3 49 -8 88 -12 l70 -6 13 112 c9 85 9 115 0
126 -8 10 -34 14 -93 13 -44 -1 -91 -4 -103 -6z"/>
<path d="M3681 1458 c-5 -13 -20 -77 -32 -143 l-22 -120 -89 -135 c-48 -74
-88 -140 -88 -147 0 -7 10 -13 23 -13 12 0 33 -9 47 -19 23 -19 25 -19 60 -1
63 32 70 48 122 267 49 205 59 293 37 320 -18 20 -48 15 -58 -9z"/>
<path d="M3430 894 c0 -6 -34 -62 -76 -125 l-75 -114 29 -9 c26 -7 37 -3 84
32 l54 40 72 -16 c65 -14 72 -18 72 -40 0 -14 5 -22 13 -20 20 7 20 46 -2 76
-11 16 -27 48 -37 73 -19 52 -56 89 -88 89 -12 0 -27 5 -34 12 -7 7 -12 8 -12
2z"/>
<path d="M3380 850 c-6 -11 -8 -20 -6 -20 3 0 10 9 16 20 6 11 8 20 6 20 -3 0
-10 -9 -16 -20z"/>
</g>
</svg>
