<?xml version="1.0" standalone="no"?>
<!DOCTYPE svg PUBLIC "-//W3C//DTD SVG 20010904//EN"
 "http://www.w3.org/TR/2001/REC-SVG-20010904/DTD/svg10.dtd">
<svg version="1.0" xmlns="http://www.w3.org/2000/svg"
 width="800.000000pt" height="800.000000pt" viewBox="0 0 800.000000 800.000000"
 preserveAspectRatio="xMidYMid meet">
<metadata>
Created by potrace 1.16, written by Peter Selinger 2001-2019
</metadata>
<g transform="translate(0.000000,800.000000) scale(0.100000,-0.100000)"
fill="#000000" stroke="none">
<path d="M0 5620 l0 -2380 119 0 118 0 62 -55 c33 -29 57 -56 52 -59 -4 -3
-32 16 -62 42 l-54 48 -117 2 -118 1 0 -1609 0 -1610 3541 0 c2820 0 3545 3
3557 12 12 10 16 10 19 1 4 -10 101 -13 444 -13 l439 0 0 4000 0 4000 -2349 0
-2349 0 -7 -22 -8 -23 -4 23 -4 22 -1640 0 -1639 0 0 -2380z m3540 2196 c0
-10 -72 -48 -78 -41 -4 4 -2 10 4 12 6 2 20 10 30 18 18 14 44 20 44 11z
m-3210 -25 c0 -6 -4 -13 -10 -16 -5 -3 -10 1 -10 9 0 9 5 16 10 16 6 0 10 -4
10 -9z m675 -31 c3 -5 2 -17 -3 -26 -8 -14 -10 -14 -21 0 -13 15 -8 36 9 36 5
0 12 -4 15 -10z m2189 -62 c7 -5 5 -8 -6 -8 -9 0 -19 -6 -21 -12 -3 -8 -6 -6
-6 5 -1 9 -6 17 -13 17 -6 0 -3 6 8 14 14 11 20 11 23 3 2 -7 9 -15 15 -19z
m230 -111 c18 -47 21 -77 7 -61 -4 5 -13 23 -19 39 -5 17 -13 38 -17 48 -4 9
-3 17 3 17 5 0 17 -19 26 -43z m89 -40 c8 -13 17 -34 19 -48 2 -17 8 -23 22
-21 37 7 9 -23 -40 -40 -57 -21 -54 -20 -54 -9 0 5 13 14 29 20 26 12 28 15
21 48 -5 19 -13 40 -19 46 -6 6 -11 15 -11 19 0 16 18 8 33 -15z m-413 -54 c0
-15 -59 -57 -68 -49 -3 4 -2 10 4 14 6 4 19 22 29 41 13 26 19 31 26 20 5 -8
9 -19 9 -26z m-486 1 c13 -5 14 -9 5 -20 -16 -20 -29 -17 -29 6 0 22 1 23 24
14z m541 -84 c3 -11 11 -20 16 -20 5 0 9 -4 9 -10 0 -18 -29 -10 -35 10 -3 11
-11 20 -16 20 -5 0 -9 5 -9 10 0 18 29 10 35 -10z m615 -260 c0 -5 -5 -10 -11
-10 -5 0 -7 5 -4 10 3 6 8 10 11 10 2 0 4 -4 4 -10z m39 -46 c10 -13 24 -24
30 -24 14 0 30 -32 28 -58 -1 -14 -8 -22 -19 -22 -20 0 -23 11 -7 27 17 17
-30 55 -58 48 -24 -6 -33 10 -10 18 6 2 9 8 4 12 -4 5 -13 3 -19 -3 -18 -18
-38 -14 -38 7 0 30 64 26 89 -5z m-69 -41 c-1 -16 -112 -75 -122 -65 -6 6 9
20 44 40 53 31 78 39 78 25z m-1042 -25 c-7 -19 -38 -22 -38 -4 0 10 9 16 21
16 12 0 19 -5 17 -12z m-1379 -84 c2 -2 2 -7 -2 -10 -9 -9 -57 5 -57 16 0 9
47 4 59 -6z m471 -55 c0 -14 -7 -19 -30 -19 -22 0 -30 5 -30 18 0 26 6 30 35
24 16 -3 25 -11 25 -23z m-1240 -45 c0 -20 -12 -23 -36 -7 -19 12 -22 19 -13
29 8 10 15 11 30 1 10 -6 19 -17 19 -23z m3333 -46 c9 0 17 -6 17 -14 0 -10
-7 -13 -25 -8 -14 3 -36 7 -50 8 -14 0 -25 4 -25 7 0 14 15 18 39 12 14 -4 34
-6 44 -5z m52 -48 c4 -12 11 -17 18 -14 7 4 9 4 5 -1 -4 -4 -3 -14 4 -22 7 -9
8 -17 1 -24 -7 -7 -17 3 -32 31 -24 46 -25 50 -12 50 5 0 13 -9 16 -20z m185
-14 c0 -2 -8 -10 -17 -17 -16 -13 -17 -12 -4 4 13 16 21 21 21 13z m-260 -31
c0 -5 -75 -45 -85 -45 -16 0 -1 19 28 33 32 16 57 21 57 12z m145 -34 c8 -14
82 -54 139 -75 l49 -19 28 34 27 33 40 -36 c70 -64 102 -71 102 -24 0 22 45
74 55 64 3 -2 -4 -13 -15 -23 -26 -24 -25 -42 3 -51 25 -7 57 -33 57 -46 0 -5
-9 -4 -20 2 -16 9 -22 8 -27 -6 -3 -9 0 -20 8 -25 17 -11 29 -11 29 -1 0 12
166 5 190 -8 29 -16 19 -23 -14 -10 -44 16 -54 12 -77 -32 -19 -37 -20 -47
-10 -73 19 -48 20 -63 5 -69 -21 -8 -17 -37 9 -68 27 -32 70 -49 60 -23 -5 16
-4 16 23 2 16 -9 38 -22 48 -30 19 -14 19 -15 -7 -32 -15 -9 -27 -23 -27 -30
0 -7 19 -30 43 -50 116 -103 279 -271 296 -304 16 -31 104 -101 128 -101 2 0
12 9 21 20 15 17 104 36 99 21 -1 -3 4 -21 10 -38 8 -23 18 -33 32 -33 24 0
28 -30 11 -75 -13 -34 -3 -52 15 -28 7 10 17 15 21 11 4 -5 13 1 21 12 13 18
43 28 43 15 0 -3 -16 -21 -35 -41 -42 -41 -43 -56 -10 -82 13 -11 41 -34 61
-51 l36 -32 -24 -27 c-52 -58 -52 -59 -20 -76 16 -8 61 -44 99 -79 59 -54 79
-66 147 -86 73 -22 79 -22 95 -7 15 16 15 18 -3 31 -10 8 -24 16 -30 18 -6 2
-8 8 -4 12 4 4 34 -9 66 -29 33 -20 65 -36 72 -36 6 0 18 -7 26 -15 8 -8 21
-12 29 -9 8 4 17 -1 21 -10 3 -8 21 -24 40 -35 34 -20 34 -20 46 -1 7 11 18
20 24 20 11 0 39 -54 39 -75 0 -5 42 -38 94 -73 52 -34 116 -80 144 -102 57
-46 62 -47 79 -20 15 23 37 26 63 6 18 -13 18 -14 -4 -50 -23 -37 -35 -44 -46
-26 -3 6 -11 10 -17 10 -6 0 -9 -3 -6 -6 4 -3 -7 -18 -23 -33 -16 -15 -26 -31
-22 -34 3 -4 -4 -7 -16 -7 -15 0 -21 5 -19 16 2 12 -6 18 -24 21 -26 3 -28 1
-28 -33 l0 -37 38 8 c20 4 46 8 58 9 15 1 19 6 16 19 -3 11 1 17 12 17 9 0 16
5 16 10 0 23 21 8 26 -20 6 -25 10 -29 30 -24 13 4 24 2 24 -4 0 -5 -11 -13
-25 -16 -20 -5 -25 -13 -25 -36 l0 -30 72 7 c53 4 69 3 64 -5 -4 -7 -19 -12
-34 -12 -15 0 -44 -3 -64 -6 -38 -7 -38 -7 -32 -45 4 -24 3 -39 -3 -39 -6 0
-13 18 -17 40 l-6 41 -68 -7 c-37 -4 -69 -8 -71 -10 -2 -1 0 -34 4 -73 l7 -69
31 4 c18 2 80 6 139 10 l107 6 -2 66 c-2 58 0 67 15 66 22 -2 19 18 -18 144
-25 88 -43 192 -30 180 4 -3 14 -39 22 -80 25 -118 54 -206 72 -213 11 -4 13
-8 5 -13 -8 -5 -8 -27 2 -80 10 -62 10 -75 -1 -79 -19 -7 -18 -63 1 -63 8 0
15 -4 15 -9 0 -55 24 -218 33 -224 9 -6 9 -10 -1 -14 -20 -8 -6 -193 17 -212
12 -10 13 -15 4 -18 -7 -3 -13 -11 -13 -18 0 -7 6 -15 13 -18 9 -4 9 -7 0 -18
-20 -21 -26 -5 -35 98 -14 149 -17 163 -34 163 -11 0 -14 -8 -10 -32 3 -18 8
-60 12 -93 3 -33 11 -64 18 -68 8 -6 8 -10 -1 -14 -9 -3 -11 -21 -6 -63 5 -53
4 -58 -16 -65 -25 -8 -19 -25 10 -25 12 0 19 -7 19 -19 0 -11 6 -22 13 -25 9
-5 9 -7 0 -12 -9 -4 -11 -18 -7 -47 4 -23 8 -43 9 -44 1 -2 23 4 48 13 l47 16
33 -29 c73 -64 130 -123 120 -123 -7 0 -25 11 -41 25 l-30 25 -46 -57 c-26
-31 -43 -59 -38 -62 5 -3 22 -31 37 -61 15 -30 30 -57 34 -60 8 -6 31 -58 31
-70 0 -5 -9 -12 -21 -15 -15 -5 -18 -10 -10 -18 15 -15 14 -27 -4 -27 -8 0
-15 7 -15 15 0 13 -6 12 -38 -4 -21 -11 -54 -22 -74 -26 -26 -5 -35 -11 -31
-21 3 -8 -1 -14 -10 -14 -9 0 -23 -3 -33 -7 -13 -5 -16 -3 -11 10 5 14 1 15
-23 10 -18 -3 -30 -1 -30 5 0 6 19 14 43 17 l43 7 -9 69 c-6 43 -14 69 -22 69
-7 0 -52 -7 -101 -16 -49 -8 -104 -16 -122 -16 -29 0 -33 -3 -29 -21 14 -59
19 -101 10 -92 -15 15 -39 103 -42 153 -1 6 -12 12 -25 12 -19 0 -26 7 -31 29
-5 24 -12 30 -43 34 -23 3 -43 -1 -53 -9 -8 -8 -21 -14 -27 -14 -6 0 -19 -14
-27 -31 -24 -45 -32 -26 -9 21 12 26 26 40 38 40 11 0 28 8 39 18 15 12 21 14
24 5 7 -19 41 -16 45 5 3 11 12 1 28 -33 23 -47 25 -48 28 -22 3 21 9 27 27
27 14 0 35 14 55 36 l32 36 -30 32 c-16 17 -44 57 -62 88 -30 54 -33 56 -56
46 -27 -12 -27 -35 0 -30 19 3 22 -14 4 -20 -10 -4 -9 -18 5 -60 19 -62 22
-97 7 -82 -5 5 -22 52 -37 104 -23 83 -25 95 -11 104 12 7 14 16 6 44 -6 22
-6 38 0 44 7 7 12 -4 17 -31 4 -22 12 -44 17 -47 7 -5 9 3 4 22 -4 16 -10 89
-13 162 -4 103 -8 132 -19 132 -8 0 -14 -10 -14 -26 0 -14 -4 -23 -10 -19 -5
3 -10 16 -10 27 0 20 -4 20 -61 14 -34 -3 -86 -6 -115 -6 l-54 0 0 -51 0 -50
108 6 c126 8 134 9 126 30 -3 8 -2 15 4 15 13 0 20 -20 14 -42 -4 -18 -20 -21
-78 -18 -18 1 -35 -4 -39 -10 -6 -9 -9 -9 -15 0 -6 9 -24 11 -63 6 -44 -6 -54
-10 -51 -24 3 -16 12 -128 13 -165 1 -16 8 -17 85 -11 81 6 84 6 91 -16 4 -12
2 -27 -4 -33 -8 -8 -11 -5 -11 12 0 22 -2 23 -74 19 -41 -2 -77 -6 -81 -10
-14 -13 13 -215 34 -257 l21 -41 -20 0 c-14 0 -20 -6 -18 -16 2 -11 -10 -21
-37 -31 -72 -26 -135 -40 -141 -32 -6 10 -5 11 89 35 51 13 67 21 67 35 0 10
7 22 16 27 14 8 14 10 1 24 -9 9 -18 45 -22 92 -6 64 -10 76 -24 72 -9 -3 -28
-8 -42 -11 -25 -6 -26 -10 -22 -44 l5 -38 -73 -22 c-113 -34 -124 -38 -123
-47 0 -5 9 -37 19 -72 17 -58 21 -63 42 -57 13 3 23 1 23 -4 0 -11 -5 -13
-237 -68 -112 -26 -164 -43 -167 -53 -3 -8 -8 -41 -12 -72 -5 -50 -4 -58 10
-58 21 0 21 -16 0 -28 -14 -8 -15 -16 -4 -67 7 -32 21 -75 32 -96 11 -21 18
-48 16 -61 -4 -22 -5 -22 -12 -3 -4 11 -16 40 -27 65 -10 25 -23 70 -28 100
-5 31 -11 60 -12 65 -1 6 3 52 11 103 13 92 18 100 55 92 6 -1 34 4 64 11 l53
13 -6 55 c-4 30 -8 57 -10 59 -2 1 -51 -9 -108 -24 -90 -24 -104 -31 -100 -46
2 -10 0 -18 -6 -18 -5 0 -15 30 -22 66 -11 60 -14 65 -34 60 -89 -26 -135 -36
-161 -36 -18 0 -34 -3 -37 -6 -11 -10 28 -109 42 -109 20 0 49 -143 50 -237 0
-116 -17 -94 -23 30 -6 118 -21 182 -42 182 -7 0 -16 14 -20 31 -4 17 -12 32
-19 35 -10 4 -219 -36 -318 -61 -16 -4 -28 -3 -28 2 0 6 36 18 80 27 44 10 80
21 80 26 0 5 -11 60 -25 124 -14 64 -25 118 -25 121 0 6 -27 1 -98 -17 -43
-11 -68 -4 -42 12 7 5 40 12 72 15 39 5 58 11 58 21 0 16 -41 207 -46 213 -2
3 -145 -19 -152 -24 -1 -1 7 -55 18 -120 22 -124 20 -134 -22 -135 -22 0 -22
-2 2 -50 15 -30 70 -199 70 -216 0 -2 -4 -4 -8 -4 -5 0 -19 37 -32 83 -29 104
-66 180 -83 171 -7 -4 -24 -16 -39 -26 -28 -20 -38 -22 -38 -10 0 13 105 72
128 72 26 0 27 3 6 105 -10 44 -16 93 -16 109 1 26 -1 28 -31 22 -18 -3 -68
-8 -112 -12 -67 -5 -165 -35 -165 -49 0 -4 62 -175 75 -207 4 -10 11 -15 16
-12 5 3 6 -2 3 -11 -12 -29 -28 -9 -57 71 -15 43 -29 80 -31 81 -1 1 -12 0
-23 -3 -19 -5 -20 -10 -12 -31 12 -32 7 -39 -39 -53 -51 -17 -54 -21 -41 -59
15 -44 4 -50 -17 -9 -9 18 -18 34 -19 36 -1 1 -21 -5 -45 -13 -24 -8 -44 -14
-45 -13 -1 2 -10 17 -18 35 l-16 31 -123 -46 c-68 -25 -124 -46 -126 -47 -1
-1 7 -28 18 -61 20 -58 50 -98 103 -136 l28 -20 28 26 27 26 103 -105 c56 -58
106 -105 109 -105 4 0 38 31 75 68 l68 68 -41 33 c-43 35 -76 86 -60 96 5 3
16 -7 24 -23 19 -37 89 -99 94 -83 2 6 13 11 24 11 13 0 18 5 15 14 -3 7 -9
35 -13 61 -5 35 -4 46 5 41 6 -4 11 -17 12 -29 0 -12 8 -52 18 -89 9 -38 14
-68 9 -68 -4 0 -10 11 -14 25 -4 16 -13 25 -25 25 -22 0 -24 -11 -7 -28 16
-16 2 -28 -16 -13 -13 11 -30 -3 -106 -81 -69 -70 -90 -87 -86 -68 5 21 -9 39
-91 122 l-97 97 -58 -51 c-39 -33 -58 -57 -58 -73 0 -28 -25 -52 -33 -31 -3 7
0 20 6 27 12 13 -39 -26 -128 -97 -24 -20 -49 -34 -54 -32 -6 1 -69 59 -141
127 l-131 123 -31 -13 c-39 -16 -98 -67 -98 -84 0 -7 -17 -15 -39 -19 -28 -4
-48 -16 -71 -43 -18 -21 -91 -98 -163 -170 l-131 -133 110 -104 c60 -57 106
-106 103 -110 -6 -6 -12 -1 -142 124 l-78 74 -69 -69 c-38 -38 -73 -66 -77
-62 -4 4 23 38 61 76 l67 68 -88 84 c-48 47 -127 122 -175 169 l-88 83 -73
-79 c-227 -244 -337 -367 -337 -375 0 -5 -4 -9 -10 -9 -25 0 0 33 138 182 81
88 174 189 206 225 l59 64 -43 44 c-24 25 -41 47 -38 51 4 3 109 -92 235 -210
l228 -216 175 180 c100 103 183 180 193 180 10 0 36 18 59 39 22 22 54 45 70
52 20 8 27 17 23 29 -4 13 16 27 102 67 60 27 132 58 161 68 28 11 52 23 52
28 0 4 4 6 8 3 5 -3 51 11 103 30 52 20 129 49 172 65 l77 29 17 -35 c12 -25
22 -34 32 -29 9 3 50 19 91 34 75 27 81 34 65 73 -6 13 -1 18 24 23 35 7 35 1
1 102 -9 28 -13 52 -9 52 4 0 3 13 -2 30 -9 25 -15 29 -35 24 -13 -3 -24 -2
-24 4 0 8 31 21 52 22 9 0 32 -71 30 -95 -4 -38 12 -49 46 -31 24 12 332 55
404 56 37 1 40 14 24 104 -8 48 -13 93 -9 101 3 8 1 15 -5 15 -14 0 -25 52
-13 59 6 4 -8 57 -34 135 -35 105 -41 132 -32 147 7 11 18 19 25 19 9 0 12 11
10 33 -2 27 -7 32 -26 29 -20 -2 -22 1 -17 19 7 20 4 21 -26 16 -19 -3 -44 -8
-56 -12 -17 -6 -23 -3 -23 9 0 8 -13 25 -29 37 -16 12 -27 27 -25 34 3 7 -19
38 -48 69 l-53 57 -35 -30 c-64 -55 -217 -170 -289 -216 -66 -43 -70 -48 -60
-68 7 -12 41 -71 77 -132 72 -122 125 -232 119 -249 -3 -6 -20 23 -39 64 -19
41 -69 132 -110 202 l-75 127 -112 -70 c-124 -77 -123 -77 -163 -10 -12 20
-22 37 -24 39 -1 2 -135 -80 -153 -94 -2 -2 8 -19 23 -38 14 -19 26 -37 26
-41 0 -10 79 -123 89 -127 8 -3 91 -161 91 -173 0 -19 -25 16 -57 78 -19 39
-41 76 -48 82 -12 10 -108 152 -191 282 -21 35 -42 63 -45 63 -5 0 -86 -51
-284 -178 -38 -24 -87 -60 -107 -80 -32 -30 -39 -33 -53 -22 -14 12 -20 9 -46
-17 l-30 -30 73 -70 72 -71 57 62 c39 42 100 89 194 149 76 48 143 86 149 84
6 -2 -17 -21 -52 -43 -151 -93 -232 -153 -282 -207 l-54 -58 67 -66 c57 -56
78 -83 64 -83 -2 0 -71 65 -153 144 l-149 145 -60 -59 c-33 -32 -90 -76 -127
-99 -45 -29 -94 -74 -155 -142 -48 -56 -88 -104 -88 -108 0 -9 157 -151 167
-151 5 0 8 -4 8 -10 0 -23 -26 -6 -108 70 l-87 80 -62 -67 c-33 -38 -64 -65
-68 -61 -4 3 41 58 99 120 87 95 104 118 99 138 -5 20 -3 22 15 18 17 -5 31 4
61 38 21 24 72 66 112 93 41 27 98 72 128 100 l54 51 -44 47 c-24 27 -60 72
-79 101 -23 34 -40 50 -49 47 -8 -3 -69 -45 -135 -93 -119 -86 -176 -137 -330
-299 -71 -75 -82 -83 -115 -82 l-36 1 35 12 c24 7 77 54 168 147 91 93 173
166 259 228 69 51 133 95 141 100 11 6 1 25 -47 91 -34 46 -61 87 -61 92 0 18
17 5 43 -35 101 -153 243 -337 262 -337 7 0 27 17 44 37 29 35 31 36 49 20 18
-17 20 -17 34 5 14 21 71 59 315 212 45 28 82 57 83 64 0 7 4 10 10 7 5 -3 47
17 92 44 45 28 85 51 89 51 4 0 41 -54 81 -120 40 -66 75 -119 78 -117 33 14
330 204 330 211 0 5 -21 33 -46 62 -36 43 -54 55 -83 60 -66 11 -67 13 -48 96
18 74 37 119 37 88 0 -8 -7 -40 -15 -70 -18 -68 -19 -90 -2 -90 48 0 87 -24
131 -80 l47 -60 107 82 c121 92 164 129 160 139 -2 3 -27 32 -56 64 -44 48
-55 55 -67 45 -23 -19 -31 -3 -10 20 19 21 19 20 71 -31 l52 -51 26 17 c26 17
26 18 9 39 -51 60 -129 140 -135 138 -5 -1 -8 4 -8 10 0 21 -73 94 -107 108
-18 7 -30 16 -27 21 3 5 14 4 26 -2 19 -10 19 -10 7 8 -45 61 -146 196 -236
315 -57 76 -103 141 -103 144 0 18 49 -41 194 -236 87 -118 172 -229 187 -247
29 -34 40 -31 53 15 4 12 12 22 17 22 13 0 1 -40 -19 -62 -13 -16 -11 -22 33
-73 l48 -56 23 22 c31 29 44 16 15 -15 l-23 -25 43 -46 44 -46 55 41 c30 22
57 45 58 51 10 28 -193 237 -248 254 -18 6 -29 25 -15 25 19 0 77 -39 123 -82
51 -48 54 -50 73 -33 10 10 19 21 19 25 0 13 -146 122 -202 151 -32 16 -58 34
-58 40 0 17 133 -59 202 -116 36 -30 70 -55 75 -55 5 0 26 14 47 32 l39 32
-99 93 c-54 51 -101 93 -104 93 -3 0 -11 -9 -18 -20 -16 -27 -24 -26 -85 14
-93 59 -241 144 -264 151 -13 3 -23 12 -23 18 0 7 -30 25 -67 42 -50 22 -74
40 -101 77 -35 46 -55 58 -66 39 -3 -4 -51 -39 -106 -76 -55 -38 -100 -71
-100 -74 0 -3 4 -13 9 -21 16 -23 1 -32 -17 -10 -17 20 -20 18 -229 -127 -117
-82 -212 -152 -213 -156 0 -5 9 -22 20 -37 11 -16 18 -34 15 -42 -9 -20 -93
-79 -100 -69 -3 5 15 24 40 42 25 18 45 34 45 36 0 3 -104 162 -231 354 -187
282 -233 359 -244 404 -7 30 -11 55 -9 55 11 0 21 6 38 22 11 10 26 18 34 18
10 0 6 -8 -11 -24 -38 -35 -43 -68 -18 -118 12 -24 29 -54 40 -67 l18 -23 104
69 c57 38 131 84 164 103 33 18 61 34 63 36 2 1 -17 38 -42 81 -33 58 -51 79
-66 79 -11 0 -20 -4 -20 -8 0 -4 -6 -8 -14 -8 -9 0 -12 7 -9 20 4 14 0 20 -12
20 -11 0 -15 5 -11 15 3 9 0 15 -10 15 -9 0 -12 5 -8 11 3 6 1 15 -6 19 -15 9
-3 33 14 27 26 -10 9 42 -40 128 -29 49 -51 92 -48 95 8 7 28 -22 75 -108 34
-60 44 -72 60 -67 13 4 19 2 19 -8 0 -9 -5 -17 -12 -19 -9 -3 76 -165 141
-267 10 -15 72 17 226 119 92 61 95 63 95 52 0 -5 -25 -26 -55 -46 l-55 -36
15 -30 c9 -17 18 -30 21 -30 13 0 134 93 134 103 0 5 -30 59 -67 119 l-68 108
-40 0 c-23 0 -46 -5 -52 -11 -8 -8 -14 -5 -23 11 -13 24 -4 43 10 20 5 -8 12
-11 16 -7 4 4 3 12 -4 19 -8 8 -6 18 10 40 l20 29 -38 62 c-21 34 -44 72 -52
85 -8 13 -10 22 -4 22 6 0 32 -35 58 -78 l48 -77 58 0 c42 0 61 -5 70 -17 12
-17 17 -16 86 1 47 13 72 15 69 8 -2 -6 -34 -19 -71 -28 -42 -11 -76 -26 -93
-43 -14 -14 -30 -26 -34 -26 -5 0 -9 -4 -9 -10 0 -7 120 -201 135 -218 2 -2
52 29 110 68 59 40 103 75 98 79 -10 6 -123 185 -123 193 0 3 12 6 26 6 15 0
31 7 36 16 5 9 13 14 19 11 5 -4 18 0 28 7 18 13 16 19 -45 118 -35 58 -64
108 -64 113 -1 24 23 -5 79 -99 l64 -107 16 27 c17 28 26 32 36 15 4 -6 -3
-22 -16 -35 l-23 -25 24 -44 24 -43 37 19 c22 11 40 15 44 9 3 -5 -10 -16 -30
-24 -19 -8 -35 -18 -35 -22 0 -15 56 -94 66 -94 6 0 17 -7 24 -15 7 -9 19 -14
27 -11 26 11 12 -15 -19 -34 -18 -10 -38 -24 -45 -29 -16 -15 -23 -14 -23 3 0
7 13 19 29 26 20 8 28 17 24 27 -3 8 -12 12 -20 9 -7 -3 -16 1 -19 9 -8 21
-18 19 -65 -12 l-40 -26 24 -26 c13 -14 56 -72 96 -128 45 -64 76 -100 85 -97
7 3 19 -2 26 -11 10 -12 10 -15 -4 -15 -14 0 -15 -4 -6 -20 14 -25 24 -25 60
2 24 17 27 24 18 36 -10 11 -8 17 7 28 16 12 21 12 33 0 12 -12 20 -10 53 12
41 29 48 42 24 42 -17 0 -20 17 -4 22 6 2 -8 24 -30 50 -23 26 -40 50 -39 55
1 4 -17 36 -40 71 -24 34 -38 62 -33 62 6 0 23 -18 37 -40 15 -23 33 -39 39
-36 31 12 314 221 308 227 -7 6 -95 22 -230 43 -12 2 -27 -11 -45 -40 -31 -49
-46 -50 -91 -8 -17 16 -35 28 -39 26 -5 -1 -12 6 -15 15 -4 9 -27 38 -52 64
-25 26 -58 62 -73 80 -20 25 -28 29 -28 17 0 -10 -4 -18 -10 -18 -5 0 -10 -9
-10 -20 0 -12 -12 -26 -31 -35 -38 -20 -50 -13 -16 10 15 9 29 33 37 59 8 28
27 59 56 87 51 50 67 49 24 -2 -16 -19 -29 -41 -30 -50 0 -8 52 -68 115 -133
125 -128 125 -128 161 -61 14 27 24 35 39 31 44 -11 255 -46 276 -46 12 0 31
-7 41 -17 15 -13 23 -14 43 -5 27 13 30 27 15 67 -7 19 -6 35 5 62 8 19 12 39
9 44 -7 11 -55 11 -72 0 -17 -10 -92 9 -113 30 -9 9 -43 36 -74 59 -55 41 -59
42 -72 25 -7 -11 -13 -23 -13 -28 0 -16 -60 1 -142 40 -80 37 -127 73 -95 73
9 0 18 -4 22 -9z m-1909 -39 c-10 -10 -29 15 -21 28 6 9 10 8 17 -4 6 -10 7
-20 4 -24z m1489 -22 c17 -33 18 -40 7 -40 -8 0 -42 52 -42 64 0 17 21 2 35
-24z m-185 -56 c0 -8 -4 -12 -10 -9 -5 3 -10 10 -10 16 0 5 5 9 10 9 6 0 10
-7 10 -16z m918 -66 c19 -19 14 -29 -8 -16 -20 13 -27 28 -12 28 4 0 13 -5 20
-12z m446 -88 c8 -19 17 -52 21 -72 8 -49 33 -108 45 -108 6 0 10 -4 10 -10 0
-5 -6 -10 -14 -10 -23 0 -56 63 -56 107 0 36 -3 41 -25 41 -13 0 -30 -7 -36
-14 -14 -16 -49 -19 -49 -3 0 6 -9 8 -22 3 -20 -6 -21 -5 -9 10 17 20 31 20
45 1 10 -13 13 -13 23 4 10 16 10 23 -4 36 -8 9 -22 14 -31 10 -8 -3 -21 0
-30 7 -13 11 -14 10 -4 -8 12 -22 7 -34 -12 -34 -6 0 -12 17 -14 39 -4 61 17
70 103 44 18 -5 19 -4 5 13 -14 16 -13 16 12 -1 15 -11 33 -36 42 -55z m-1774
44 c0 -8 -4 -12 -10 -9 -5 3 -10 10 -10 16 0 5 5 9 10 9 6 0 10 -7 10 -16z
m1442 -32 c59 -34 75 -49 64 -59 -7 -8 -136 77 -136 89 0 12 0 12 72 -30z
m-1532 13 c0 -8 -4 -15 -10 -15 -5 0 -10 7 -10 15 0 8 5 15 10 15 6 0 10 -7
10 -15z m944 -90 c21 -31 21 -57 0 -30 -9 11 -20 28 -25 38 -15 27 6 21 25 -8z
m125 -17 c-36 -23 -69 -38 -69 -29 0 12 63 49 74 43 4 -2 2 -9 -5 -14z m861
-58 c0 -5 -2 -10 -4 -10 -3 0 -8 5 -11 10 -3 6 -1 10 4 10 6 0 11 -4 11 -10z
m-1590 -8 c0 -8 -52 -42 -64 -42 -15 0 -4 17 22 32 30 19 42 22 42 10z m1650
-23 c0 -5 -4 -9 -10 -9 -5 0 -10 7 -10 16 0 8 5 12 10 9 6 -3 10 -10 10 -16z
m-1860 -19 c0 -5 -2 -10 -4 -10 -3 0 -8 5 -11 10 -3 6 -1 10 4 10 6 0 11 -4
11 -10z m130 -10 c0 -5 -11 -12 -24 -16 -13 -3 -34 -17 -47 -30 -29 -31 -46
-30 -46 3 0 21 1 23 9 9 8 -15 11 -15 26 4 9 12 27 22 40 23 12 1 22 5 22 9 0
4 5 8 10 8 6 0 10 -4 10 -10z m-378 -59 c-10 -6 -8 -10 10 -15 14 -4 18 -9 11
-13 -7 -2 -13 -10 -13 -16 0 -7 -10 -18 -21 -26 -18 -11 -23 -11 -30 1 -21 33
-1 77 36 77 15 1 16 -2 7 -8z m1218 -10 c0 -12 -29 -35 -36 -28 -7 6 17 36 29
37 4 0 7 -4 7 -9z m-970 -11 c0 -5 -2 -10 -4 -10 -3 0 -8 5 -11 10 -3 6 -1 10
4 10 6 0 11 -4 11 -10z m-20 -21 c0 -5 -4 -9 -10 -9 -5 0 -10 7 -10 16 0 8 5
12 10 9 6 -3 10 -10 10 -16z m-140 -9 c0 -5 -7 -10 -15 -10 -8 0 -15 5 -15 10
0 6 7 10 15 10 8 0 15 -4 15 -10z m290 -16 c0 -8 -4 -14 -10 -14 -5 0 -10 9
-10 21 0 11 5 17 10 14 6 -3 10 -13 10 -21z m2155 -79 l30 -26 -43 22 c-23 13
-50 32 -60 42 -17 19 -16 19 13 4 17 -9 44 -28 60 -42z m85 -29 c0 -7 27 -49
61 -92 l60 -79 -81 84 c-65 66 -78 86 -69 97 13 15 29 10 29 -10z m-2522 -5
c3 -8 -1 -12 -9 -9 -7 2 -15 10 -17 17 -3 8 1 12 9 9 7 -2 15 -10 17 -17z
m-548 -32 c0 -5 -4 -9 -10 -9 -5 0 -10 7 -10 16 0 8 5 12 10 9 6 -3 10 -10 10
-16z m555 -55 c-3 -24 -11 -44 -17 -44 -6 0 -8 10 -6 23 4 19 0 22 -30 25 -20
1 -46 -5 -59 -13 -35 -23 -28 -3 14 36 21 20 33 27 30 17 -5 -15 -1 -18 22
-18 21 0 30 6 36 23 10 35 18 2 10 -49z m277 26 c16 -29 16 -30 -4 -41 -21
-11 -24 -10 -48 33 -8 13 -6 20 7 27 25 15 26 14 45 -19z m1893 -28 c-2 -3
-11 1 -19 7 -10 8 -16 9 -21 1 -3 -5 -11 -10 -17 -10 -6 0 -3 9 7 20 17 19 19
19 37 3 10 -9 16 -18 13 -21z m-2655 8 c0 -5 -4 -10 -10 -10 -5 0 -10 5 -10
10 0 6 5 10 10 10 6 0 10 -4 10 -10z m290 -50 c0 -5 -10 -10 -22 -10 -12 0
-30 -7 -40 -17 -25 -22 -36 -8 -13 17 19 20 75 28 75 10z m-40 -75 c18 -22 4
-31 -18 -12 -10 10 -22 14 -27 10 -4 -5 -5 -2 -1 5 10 16 31 15 46 -3z m2989
-26 c-23 -20 -40 -21 -41 -4 -1 13 43 35 54 28 5 -2 -1 -13 -13 -24z m-3034
-55 c-32 -25 -55 -36 -55 -26 0 13 41 41 60 41 11 0 10 -4 -5 -15z m-45 -85
c0 -11 -4 -17 -10 -14 -5 3 -10 13 -10 21 0 8 5 14 10 14 6 0 10 -9 10 -21z
m-1500 -7 c0 -14 -59 -66 -67 -59 -3 4 6 21 22 37 28 30 45 38 45 22z m4517
-8 c-3 -3 -12 -4 -19 -1 -8 3 -5 6 6 6 11 1 17 -2 13 -5z m103 -93 c0 -14 -49
-68 -50 -55 0 11 38 64 46 64 2 0 4 -4 4 -9z m-5560 -145 c0 -21 -11 -25 -36
-14 -22 10 -22 12 -7 23 19 14 43 9 43 -9z m3590 -26 c0 -5 -4 -10 -10 -10 -5
0 -10 5 -10 10 0 6 5 10 10 10 6 0 10 -4 10 -10z m1756 -25 c16 -12 17 -14 2
-15 -25 0 -49 11 -42 21 7 13 17 11 40 -6z m-1466 -15 c0 -12 -40 -33 -47 -26
-9 8 28 47 38 40 5 -3 9 -9 9 -14z m2158 -72 c14 -14 16 -38 4 -38 -18 0 -45
28 -38 38 9 15 19 15 34 0z m-3463 -28 c-3 -5 0 -10 7 -10 7 -1 58 -61 113
-135 55 -75 105 -142 112 -151 10 -14 22 -8 98 50 47 36 87 66 90 66 19 0 -7
-26 -80 -80 l-85 -63 34 -46 c47 -63 58 -69 87 -43 22 21 39 28 39 16 0 -3
-10 -14 -22 -25 l-23 -18 33 -1 c20 0 31 -4 27 -10 -3 -5 -23 -10 -43 -10 -20
0 -49 -7 -64 -14 -31 -16 -36 -11 -14 13 13 15 10 22 -25 69 -22 28 -43 52
-47 52 -4 0 -53 -37 -110 -81 -56 -44 -107 -79 -113 -77 -6 2 39 42 100 88 61
47 109 90 107 96 -3 6 -51 73 -108 148 l-103 136 -57 0 c-63 0 -74 10 -30 27
35 14 85 16 77 3z m3648 -96 c26 -20 47 -40 47 -46 0 -13 -54 20 -105 64 -31
27 -45 34 -53 26 -8 -8 -16 -7 -28 3 -16 13 -15 14 12 20 20 4 37 -1 54 -13
14 -11 46 -35 73 -54z m-1992 3 c-8 -8 -11 -7 -11 4 0 9 3 19 7 23 4 4 9 2 11
-4 3 -7 -1 -17 -7 -23z m-3811 16 c0 -5 -7 -17 -16 -28 -12 -17 -16 -18 -24
-5 -5 9 -5 19 2 27 11 14 38 18 38 6z m3370 -143 c-12 -16 -34 -37 -49 -45
-16 -8 -50 -38 -76 -67 -26 -29 -54 -52 -61 -50 -8 2 -29 -11 -47 -28 -29 -27
-38 -30 -99 -30 -71 0 -77 4 -54 36 13 17 12 23 -10 52 -38 49 -23 61 16 12
28 -36 32 -45 22 -61 -11 -18 -9 -19 38 -19 27 0 50 4 50 9 0 5 13 14 29 21
16 6 32 18 35 26 3 8 13 14 23 14 10 0 45 32 78 72 50 60 111 106 124 93 2 -2
-7 -18 -19 -35z m-3285 -6 c12 -12 13 -19 4 -30 -9 -11 -14 -10 -32 7 -19 17
-20 21 -7 29 19 12 16 13 35 -6z m3425 -9 c7 -9 11 -18 8 -20 -9 -10 -38 7
-38 21 0 18 14 18 30 -1z m2356 -22 c40 -25 55 -43 38 -43 -12 0 -94 55 -94
63 0 12 11 8 56 -20z m-2956 -42 c0 -13 -29 -35 -37 -28 -7 8 15 37 28 37 5 0
9 -4 9 -9z m-3300 -15 c0 -2 -3 -12 -6 -20 -5 -13 -9 -14 -20 -5 -16 13 -9 29
12 29 8 0 14 -2 14 -4z m3139 -22 c53 -21 69 -24 84 -15 16 10 18 10 15 -6 -2
-10 -13 -19 -25 -21 -21 -3 -139 41 -157 59 -18 17 16 10 83 -17z m811 -3 c19
-16 32 -32 28 -36 -3 -4 -24 9 -45 29 -46 43 -32 48 17 7z m2430 19 c0 -5 -7
-10 -16 -10 -8 0 -12 5 -9 10 3 6 10 10 16 10 5 0 9 -4 9 -10z m-2098 -60
c-13 -13 -23 -16 -27 -9 -8 12 -8 12 20 27 28 15 32 5 7 -18z m-1689 6 c3 -8
3 -16 0 -19 -7 -8 -32 16 -26 26 7 11 20 8 26 -7z m-2628 -6 c3 -5 1 -10 -4
-10 -6 0 -11 5 -11 10 0 6 2 10 4 10 3 0 8 -4 11 -10z m4088 -55 c20 -20 37
-38 37 -42 0 -4 -19 -24 -42 -45 l-42 -37 23 -25 c12 -13 18 -26 13 -30 -5 -3
-22 8 -38 25 l-28 30 42 38 c23 21 42 41 42 45 0 3 -17 21 -37 41 -23 21 -32
34 -23 34 8 0 32 -15 53 -34z m-403 10 c20 -24 6 -28 -15 -5 -10 11 -13 20 -8
20 6 0 16 -7 23 -15z m-2660 -16 c0 -5 -9 -9 -20 -9 -19 0 -26 11 -14 23 8 8
34 -3 34 -14z m-1100 -29 c0 -5 -7 -10 -15 -10 -8 0 -15 5 -15 10 0 6 7 10 15
10 8 0 15 -4 15 -10z m2326 -14 c18 -19 18 -26 -1 -26 -8 0 -15 2 -15 4 0 2
-3 11 -6 20 -8 20 3 21 22 2z m-2276 -26 c0 -5 -4 -10 -10 -10 -5 0 -10 5 -10
10 0 6 5 10 10 10 6 0 10 -4 10 -10z m1518 -18 c2 -7 -7 -12 -25 -12 -34 0
-44 7 -37 25 6 16 56 5 62 -13z m1333 5 c-1 -12 -15 -9 -19 4 -3 6 1 10 8 8 6
-3 11 -8 11 -12z m-2196 -37 c-1 -19 -5 -24 -20 -22 -26 5 -25 4 -18 30 8 31
38 24 38 -8z m-715 -10 c0 -5 -4 -10 -10 -10 -5 0 -10 5 -10 10 0 6 5 10 10
10 6 0 10 -4 10 -10z m3232 -62 c-7 -7 -12 -8 -12 -2 0 6 3 14 7 17 3 4 9 5
12 2 2 -3 -1 -11 -7 -17z m3448 -25 c-1 -25 -2 -26 -14 -10 -7 9 -18 17 -25
17 -6 0 -11 5 -11 10 0 6 11 10 25 10 21 0 25 -5 25 -27z m44 -145 c4 -84 11
-154 15 -156 4 -1 6 -15 3 -30 -2 -15 1 -52 6 -82 10 -55 6 -83 -8 -60 -7 12
-14 70 -40 338 -13 133 -13 142 4 142 10 0 15 -35 20 -152z m-4779 102 c11
-17 -5 -32 -21 -19 -7 6 -11 15 -8 20 7 12 21 11 29 -1z m4385 -40 c0 -5 -7
-10 -15 -10 -8 0 -15 5 -15 10 0 6 7 10 15 10 8 0 15 -4 15 -10z m90 -31 c0
-11 -4 -17 -10 -14 -5 3 -10 13 -10 21 0 8 5 14 10 14 6 0 10 -9 10 -21z
m-6357 5 c18 -6 11 -44 -9 -44 -17 0 -25 15 -18 34 7 18 7 18 27 10z m1862
-24 c3 -5 4 -14 0 -20 -8 -13 -35 -1 -35 16 0 16 26 19 35 4z m-363 -15 c0 -5
-5 -11 -11 -13 -6 -2 -11 4 -11 13 0 9 5 15 11 13 6 -2 11 -8 11 -13z m408 5
c12 -8 11 -10 -7 -10 -13 0 -23 5 -23 10 0 13 11 13 30 0z m-1220 -25 c0 -14
-6 -25 -13 -25 -20 0 -25 9 -20 31 8 28 33 24 33 -6z m105 5 c-3 -5 -2 -10 4
-10 5 0 13 5 16 10 9 15 65 12 65 -2 -1 -41 -13 -58 -42 -58 -17 0 -27 4 -23
10 3 6 16 10 28 10 16 0 18 3 9 9 -7 4 -24 6 -38 3 -24 -4 -54 12 -54 29 0 5
9 9 21 9 11 0 17 -4 14 -10z m2235 -6 c0 -8 -5 -12 -10 -9 -6 4 -8 11 -5 16 9
14 15 11 15 -7z m1490 -89 c-6 -8 -9 -19 -5 -25 8 -12 -12 -40 -28 -40 -5 0
-2 9 7 19 12 13 14 20 5 23 -9 3 -7 12 7 32 10 16 20 23 22 17 2 -6 -1 -18 -8
-26z m-2792 -33 c2 -7 -3 -12 -12 -12 -9 0 -16 7 -16 16 0 17 22 14 28 -4z
m-588 -101 c0 -26 -27 -35 -33 -11 -4 17 4 27 26 29 4 1 7 -8 7 -18z m1029
-14 c12 -15 5 -27 -16 -27 -7 0 -13 9 -13 20 0 23 13 26 29 7z m-535 -66 c11
-12 14 -21 8 -21 -15 0 -82 59 -82 72 0 11 47 -21 74 -51z m2776 29 c0 -5 -4
-10 -10 -10 -5 0 -10 5 -10 10 0 6 5 10 10 10 6 0 10 -4 10 -10z m-3940 -65
c0 -18 -5 -25 -20 -25 -15 0 -20 7 -20 25 0 18 5 25 20 25 15 0 20 -7 20 -25z
m6555 -15 c8 -13 -14 -42 -26 -34 -13 8 -11 -10 3 -24 9 -9 9 -12 -3 -12 -26
0 -28 10 -11 46 18 35 27 41 37 24z m-5665 -30 c0 -13 -7 -20 -20 -20 -13 0
-20 7 -20 20 0 13 7 20 20 20 13 0 20 -7 20 -20z m2010 -10 c-43 -32 -100 -62
-100 -51 0 12 112 83 119 75 3 -3 -5 -14 -19 -24z m510 20 c0 -5 -4 -10 -10
-10 -5 0 -10 5 -10 10 0 6 5 10 10 10 6 0 10 -4 10 -10z m2830 -70 l0 -49 30
6 c17 3 30 1 30 -4 0 -6 -17 -13 -37 -17 -54 -8 -73 -7 -73 4 0 6 7 10 15 10
12 0 15 13 15 56 0 34 4 53 10 49 6 -3 10 -28 10 -55z m35 50 c3 -5 -1 -10
-10 -10 -9 0 -13 5 -10 10 3 6 8 10 10 10 2 0 7 -4 10 -10z m-5875 -40 c0 -18
-5 -30 -13 -30 -14 0 -19 23 -11 48 7 24 24 12 24 -18z m820 -11 c3 -4 15 -9
28 -13 22 -7 51 -46 33 -46 -5 0 -33 16 -62 35 -30 19 -59 35 -66 35 -13 0
-17 12 -7 22 5 6 64 -20 74 -33z m5140 21 c-19 -12 -30 -12 -30 -1 0 10 31 20
40 14 2 -2 -2 -8 -10 -13z m-2900 -4 c0 -3 -4 -8 -10 -11 -5 -3 -10 -1 -10 4
0 6 5 11 10 11 6 0 10 -2 10 -4z m-1973 -40 c-11 -23 -13 -23 -29 -9 -22 20
-24 37 -3 30 8 -4 17 -2 20 4 13 20 23 -2 12 -25z m1713 26 c0 -13 -12 -22
-22 -16 -10 6 -1 24 13 24 5 0 9 -4 9 -8z m754 -27 c4 -15 -2 -25 -24 -40 -17
-11 -30 -25 -30 -31 0 -8 -80 -54 -95 -54 -18 0 1 20 33 34 25 12 43 29 56 56
11 22 23 40 28 40 4 0 8 8 8 17 0 21 15 7 24 -22z m-1184 -2 c0 -12 -70 -55
-82 -51 -6 2 7 16 28 30 41 28 54 33 54 21z m-2370 -33 c0 -5 -4 -10 -9 -10
-6 0 -13 5 -16 10 -3 6 1 10 9 10 9 0 16 -4 16 -10z m5270 -9 c0 -11 -4 -23
-10 -26 -6 -4 -10 5 -10 19 0 14 5 26 10 26 6 0 10 -9 10 -19z m-6124 -15 c12
-26 2 -46 -22 -46 -20 0 -24 15 -11 44 15 32 19 32 33 2z m2447 0 c1 -5 -7
-14 -18 -20 -11 -6 -23 -15 -27 -21 -16 -22 -18 5 -2 30 16 24 43 31 47 11z
m-1607 -23 c-10 -10 -19 5 -10 18 6 11 8 11 12 0 2 -7 1 -15 -2 -18z m6421 11
c-3 -3 -12 -4 -19 -1 -8 3 -5 6 6 6 11 1 17 -2 13 -5z m-6477 -40 c0 -21 -5
-24 -35 -24 -30 0 -35 3 -35 23 0 31 4 34 40 29 24 -3 30 -9 30 -28z m3595 26
c3 -5 1 -10 -4 -10 -6 0 -11 5 -11 10 0 6 2 10 4 10 3 0 8 -4 11 -10z m65 -6
c0 -8 -5 -12 -10 -9 -6 4 -8 11 -5 16 9 14 15 11 15 -7z m-35 -13 c3 -5 1 -12
-5 -16 -5 -3 -10 1 -10 9 0 18 6 21 15 7z m-945 -47 c0 -8 -5 -12 -10 -9 -6 4
-8 11 -5 16 9 14 15 11 15 -7z m320 -26 c0 -14 -18 -9 -24 8 -11 28 -6 39 9
20 8 -11 15 -23 15 -28z m2380 12 c0 -16 -4 -30 -10 -30 -5 0 -10 14 -10 30 0
17 5 30 10 30 6 0 10 -13 10 -30z m-4929 -30 c5 0 9 -4 9 -9 0 -16 -34 -17
-52 -2 -16 14 -16 15 5 26 17 8 23 8 25 -2 2 -7 8 -13 13 -13z m2579 -57 c0
-13 -20 -19 -20 -5 0 4 -3 18 -6 32 -5 24 -5 24 10 6 9 -11 16 -26 16 -33z
m760 27 c0 -5 -4 -10 -10 -10 -5 0 -10 5 -10 10 0 6 5 10 10 10 6 0 10 -4 10
-10z m2040 -10 c0 -5 -4 -10 -9 -10 -6 0 -13 5 -16 10 -3 6 1 10 9 10 9 0 16
-4 16 -10z m-5872 -88 c3 -21 1 -22 -17 -12 -26 13 -28 43 -3 38 9 -2 18 -14
20 -26z m3117 -33 c15 -28 24 -58 22 -67 -4 -16 -57 85 -57 108 0 21 11 8 35
-41z m245 -10 c0 -5 -4 -9 -10 -9 -5 0 -10 7 -10 16 0 8 5 12 10 9 6 -3 10
-10 10 -16z m-2700 2 c0 -19 -22 -23 -38 -7 -15 15 -14 16 11 16 15 0 27 -4
27 -9z m4670 -30 c0 -10 -42 -23 -49 -15 -7 6 20 24 37 24 6 0 12 -4 12 -9z
m-5255 -11 c3 -5 -1 -10 -9 -10 -9 0 -16 5 -16 10 0 6 4 10 9 10 6 0 13 -4 16
-10z m2908 4 c-7 -3 -9 -12 -6 -20 6 -16 -12 -19 -22 -4 -9 14 3 30 23 29 10
0 12 -3 5 -5z m-2826 -51 c-3 -3 -11 -2 -17 2 -9 6 -9 10 1 16 14 8 27 -7 16
-18z m123 -33 c0 -5 -14 -11 -31 -15 -23 -5 -28 -10 -20 -18 6 -6 11 -17 11
-24 0 -22 -33 -15 -63 13 -36 33 -23 52 41 56 51 3 62 1 62 -12z m280 -71 c0
-5 -4 -9 -9 -9 -5 0 -17 -3 -27 -7 -12 -4 -15 -3 -10 5 4 7 1 12 -9 12 -9 0
-14 4 -11 8 7 11 66 3 66 -9z m2650 -10 c0 -6 -4 -7 -10 -4 -5 3 -10 11 -10
16 0 6 5 7 10 4 6 -3 10 -11 10 -16z m405 -59 c3 -5 -1 -10 -9 -10 -9 0 -16 5
-16 10 0 6 4 10 9 10 6 0 13 -4 16 -10z m1363 -52 c-2 -6 -10 -14 -16 -16 -7
-2 -10 2 -6 12 7 18 28 22 22 4z m-4265 -22 c-10 -13 -33 -42 -51 -65 l-34
-41 54 0 c29 1 118 7 198 14 138 13 160 13 148 1 -9 -9 -405 -38 -423 -31 -14
5 -6 18 45 76 34 39 66 70 72 70 5 0 1 -11 -9 -24z m4767 -15 c0 -11 5 -23 10
-26 15 -9 12 -25 -4 -25 -7 0 -16 10 -20 23 -8 32 -7 47 4 47 6 0 10 -9 10
-19z m123 -19 c-4 -4 -10 -10 -13 -14 -10 -13 -31 8 -24 25 5 13 10 14 26 6
11 -6 16 -14 11 -17z m79 -72 c3 -34 2 -35 -34 -38 -22 -2 -38 1 -38 7 0 6 12
11 26 11 23 0 25 4 24 33 -1 17 -1 37 -1 42 3 20 19 -21 23 -55z m-1924 -22
c-5 -15 -58 -30 -58 -17 0 5 10 14 23 19 31 12 39 12 35 -2z m1752 -3 c0 -8
-4 -15 -10 -15 -5 0 -10 7 -10 15 0 8 5 15 10 15 6 0 10 -7 10 -15z m80 -10
c0 -8 -4 -15 -10 -15 -5 0 -10 7 -10 15 0 8 5 15 10 15 6 0 10 -7 10 -15z
m-66 -51 c6 -24 2 -43 -8 -33 -11 10 -17 59 -8 59 5 0 13 -12 16 -26z m316 22
c0 -11 -19 -15 -25 -6 -3 5 1 10 9 10 9 0 16 -2 16 -4z m-3265 -66 c21 -22 35
-40 29 -40 -5 0 -28 18 -49 40 -21 22 -35 40 -29 40 5 0 28 -18 49 -40z m790
30 c3 -5 2 -10 -4 -10 -5 0 -13 5 -16 10 -3 6 -2 10 4 10 5 0 13 -4 16 -10z
m-923 -98 c-4 -28 -8 -32 -36 -32 -26 1 -28 2 -13 11 9 5 17 21 17 34 0 14 5
25 10 25 6 0 10 10 11 23 1 21 1 21 8 -3 5 -14 6 -40 3 -58z m3098 54 c0 -11
-19 -15 -25 -6 -3 5 1 10 9 10 9 0 16 -2 16 -4z m-2980 -16 c0 -5 -4 -10 -10
-10 -5 0 -10 5 -10 10 0 6 5 10 10 10 6 0 10 -4 10 -10z m-1310 -42 c0 -20 -4
-26 -15 -22 -8 4 -15 10 -15 14 0 5 -3 15 -6 24 -4 11 0 14 15 13 16 -1 21 -8
21 -29z m4290 22 c0 -5 -4 -10 -10 -10 -5 0 -10 5 -10 10 0 6 5 10 10 10 6 0
10 -4 10 -10z m-1744 -80 c2 -31 -12 -41 -22 -15 -4 8 -12 15 -19 15 -14 0
-14 12 0 43 7 17 9 17 24 3 8 -9 16 -30 17 -46z m-1236 30 c0 -5 -3 -10 -7
-10 -5 0 -19 -3 -33 -6 -24 -5 -24 -5 -6 10 22 18 46 21 46 6z m2228 -27 c2
-8 -5 -13 -17 -13 -12 0 -21 6 -21 16 0 18 31 15 38 -3z m806 -25 c8 -33 7
-40 -5 -36 -14 5 -22 58 -9 58 4 0 10 -10 14 -22z m-2607 -85 c-12 -11 -37 6
-31 21 5 14 8 14 21 0 9 -8 13 -18 10 -21z m2612 -65 c1 -10 -3 -18 -7 -18
-11 0 -32 82 -24 94 6 11 30 -47 31 -76z m-1279 42 c0 -5 -9 -10 -21 -10 -11
0 -17 5 -14 10 3 6 13 10 21 10 8 0 14 -4 14 -10z m40 -10 c0 -5 -4 -10 -10
-10 -5 0 -10 5 -10 10 0 6 5 10 10 10 6 0 10 -4 10 -10z m-70 -78 c0 -32 5
-63 12 -70 18 -18 0 -27 -19 -9 -14 12 -17 28 -15 76 5 78 22 80 22 3z m210
33 c0 -8 -4 -15 -10 -15 -5 0 -10 7 -10 15 0 8 5 15 10 15 6 0 10 -7 10 -15z
m1099 -37 c0 -7 -4 -22 -8 -32 -10 -25 -22 -6 -14 22 6 23 23 31 22 10z
m-2372 -83 c17 -18 17 -18 -14 -33 -17 -10 -22 -9 -27 4 -4 9 -1 23 5 30 14
18 17 17 36 -1z m991 -36 c2 -11 -6 -19 -22 -23 -34 -8 -33 -16 9 -56 l35 -34
48 18 c110 42 159 51 209 38 26 -7 50 -17 53 -22 13 -21 64 -31 110 -21 25 6
56 12 70 13 14 2 27 6 30 9 3 4 21 -11 42 -32 41 -44 41 -49 -2 -18 -26 20
-36 21 -115 15 -78 -6 -91 -5 -150 19 l-64 25 -73 -16 c-40 -9 -94 -25 -120
-35 l-47 -18 -37 45 c-23 28 -44 44 -53 41 -9 -2 -83 -51 -166 -107 -154 -105
-272 -173 -287 -164 -4 3 -8 -4 -8 -15 0 -12 -6 -21 -12 -21 -27 0 -150 -187
-221 -336 -70 -146 -76 -156 -172 -255 -55 -57 -111 -118 -125 -135 -24 -32
-162 -187 -287 -323 -32 -35 -65 -62 -72 -60 -8 3 34 56 108 139 66 73 118
137 115 141 -2 4 2 13 9 21 8 7 11 20 9 28 -5 13 -3 13 11 2 14 -12 18 -10 33
21 12 25 22 33 34 30 11 -3 22 3 29 15 6 12 28 40 50 64 107 119 159 183 152
186 -15 5 -121 115 -116 120 2 3 34 -21 69 -52 l65 -57 81 161 c45 89 92 173
105 186 13 13 22 24 20 24 -3 0 3 10 13 21 67 83 98 114 111 112 8 -1 27 6 41
16 14 9 38 22 54 29 23 10 27 17 22 37 -7 28 8 34 22 9 5 -10 15 -14 21 -10 9
6 9 11 0 22 -7 9 -8 14 -1 14 6 0 14 -5 17 -10 4 -6 11 -8 16 -4 6 4 6 11 -1
19 -7 8 -7 15 -1 19 5 4 12 2 16 -4 11 -18 27 -11 20 10 -3 11 -2 20 3 20 6 0
12 -5 14 -11 5 -14 48 6 48 21 0 6 5 10 11 10 10 0 99 57 109 70 3 4 24 15 47
25 28 12 39 23 36 33 -4 10 0 13 13 10 10 -2 20 -11 22 -19z m-1798 -14 c0 -8
-7 -15 -15 -15 -16 0 -20 12 -8 23 11 12 23 8 23 -8z m3130 5 c0 -5 -7 -10
-15 -10 -8 0 -15 5 -15 10 0 6 7 10 15 10 8 0 15 -4 15 -10z m30 0 c0 -5 -4
-10 -10 -10 -5 0 -10 5 -10 10 0 6 5 10 10 10 6 0 10 -4 10 -10z m-120 -16
c-52 -16 -80 -18 -80 -5 0 6 17 12 38 14 77 8 87 6 42 -9z m-4127 -20 c-4 -10
-9 -12 -15 -6 -12 12 -1 35 12 27 5 -3 6 -13 3 -21z m1157 16 c0 -4 -11 -17
-24 -29 -20 -19 -24 -20 -29 -7 -4 9 -2 16 3 16 6 0 10 6 10 14 0 9 9 14 20
13 11 -1 20 -4 20 -7z m2880 0 c0 -5 -13 -10 -29 -10 -16 0 -43 -3 -60 -6 -19
-4 -31 -2 -31 4 0 6 12 13 28 15 54 8 92 7 92 -3z m-160 -70 c-17 -22 -38 -40
-47 -40 -9 0 -1 15 23 40 21 22 42 40 47 40 5 0 -6 -18 -23 -40z m-3296 -12
c3 -17 5 -32 4 -33 -2 -1 -20 -5 -41 -8 -27 -4 -37 -3 -34 6 2 7 14 14 27 15
16 3 19 6 10 12 -10 6 -10 11 1 24 20 22 26 20 33 -16z m423 -65 c-10 -9 -88
68 -80 80 3 5 24 -9 46 -32 23 -22 38 -44 34 -48z m2403 38 c0 -12 -20 -25
-27 -18 -7 7 6 27 18 27 5 0 9 -4 9 -9z m376 -16 c-11 -8 -22 -12 -25 -9 -6 6
19 24 34 24 6 -1 1 -7 -9 -15z m-2419 -61 c1 -27 -2 -31 -19 -26 -15 4 -38 37
-38 56 0 2 12 3 28 2 23 -1 27 -5 29 -32z m2378 26 c-3 -5 -10 -10 -16 -10 -5
0 -9 5 -9 10 0 6 7 10 16 10 8 0 12 -4 9 -10z m-58 -11 c-14 -8 -22 -8 -30 0
-8 8 -3 11 19 11 25 -1 27 -2 11 -11z m843 -4 c10 -12 10 -18 0 -30 -12 -14
-15 -14 -31 1 -14 13 -16 20 -8 31 15 17 24 17 39 -2z m-3360 -111 c56 -54
101 -91 105 -85 9 16 35 13 35 -3 0 -17 -38 -28 -59 -16 -28 16 -206 200 -193
200 7 0 57 -43 112 -96z m240 35 c0 -24 -23 -21 -28 4 -2 10 3 17 12 17 10 0
16 -9 16 -21z m94 6 c4 -10 -1 -15 -14 -15 -11 0 -23 0 -27 -1 -17 -1 -13 20
4 24 30 8 31 8 37 -8z m236 -20 c0 -8 -4 -15 -10 -15 -5 0 -10 7 -10 15 0 8 5
15 10 15 6 0 10 -7 10 -15z m3253 -67 c-9 -10 -21 -18 -27 -18 -11 0 -52 59
-44 63 1 1 12 7 23 13 17 10 23 8 42 -15 19 -24 20 -27 6 -43z m-3408 -17 c-3
-6 -11 -11 -17 -11 -6 0 -6 6 2 15 14 17 26 13 15 -4z m-915 -31 c8 -5 11 -12
7 -16 -4 -4 -15 0 -24 9 -18 18 -8 23 17 7z m1015 -20 c3 -5 1 -10 -4 -10 -6
0 -11 5 -11 10 0 6 2 10 4 10 3 0 8 -4 11 -10z m2880 0 c3 -5 -1 -10 -9 -10
-8 0 -18 5 -21 10 -3 6 1 10 9 10 8 0 18 -4 21 -10z m-3015 -49 c0 -12 -20
-25 -27 -18 -7 7 6 27 18 27 5 0 9 -4 9 -9z m2998 -16 c-4 -17 -1 -25 9 -25
21 0 74 -40 68 -51 -9 -14 -19 -11 -44 12 -12 12 -40 23 -62 26 l-39 6 28 27
c35 35 46 36 40 5z m-2788 -85 c0 -5 -4 -10 -10 -10 -5 0 -10 5 -10 10 0 6 5
10 10 10 6 0 10 -4 10 -10z m30 -30 c0 -5 -4 -10 -10 -10 -5 0 -10 5 -10 10 0
6 5 10 10 10 6 0 10 -4 10 -10z m2823 -69 c18 -40 23 -91 8 -91 -17 0 -29 25
-39 78 -11 63 4 71 31 13z m-2968 18 c12 -19 -5 -23 -22 -6 -16 16 -16 17 -1
17 9 0 20 -5 23 -11z m-2735 -16 c0 -10 -42 -53 -53 -53 -4 0 2 13 15 29 22
29 38 39 38 24z m5796 -51 c-23 -23 -33 -6 -10 19 12 13 20 16 22 9 3 -7 -3
-19 -12 -28z m444 -63 c0 -14 -83 -7 -87 8 -5 14 45 22 70 11 9 -5 17 -13 17
-19z m-4120 -44 c13 -14 20 -28 17 -32 -8 -7 -57 35 -57 49 0 15 16 8 40 -17z
m-520 -6 c0 -5 -4 -9 -10 -9 -5 0 -10 7 -10 16 0 8 5 12 10 9 6 -3 10 -10 10
-16z m4753 -25 c36 -36 22 -53 -14 -18 -16 15 -29 31 -29 36 0 15 17 8 43 -18z
m-4252 -57 c-13 -13 -26 -3 -16 12 3 6 11 8 17 5 6 -4 6 -10 -1 -17z m-153
-35 c2 -7 -6 -12 -17 -12 -21 0 -27 11 -14 24 9 9 26 2 31 -12z m4642 -111 c0
-6 -4 -13 -10 -16 -5 -3 -10 1 -10 9 0 9 5 16 10 16 6 0 10 -4 10 -9z m78
-138 c-20 -22 -21 -23 -3 -17 11 4 24 13 28 21 4 7 12 13 17 13 5 0 -2 -21
-15 -46 -14 -26 -25 -52 -25 -59 0 -7 -9 -20 -20 -30 -18 -17 -20 -16 -50 13
l-30 31 52 55 c28 30 55 53 60 50 5 -4 -1 -17 -14 -31z m-5701 -129 c3 -8 1
-20 -4 -25 -14 -14 -43 0 -43 22 0 24 38 26 47 3z m248 -64 c8 -13 -1 -13 -26
0 -10 6 -19 15 -19 21 0 11 35 -5 45 -21z m1065 -90 c0 -5 -2 -10 -4 -10 -3 0
-8 5 -11 10 -3 6 -1 10 4 10 6 0 11 -4 11 -10z m4038 -126 c-10 -10 -28 6 -28
24 0 15 1 15 17 -1 9 -9 14 -19 11 -23z m-2038 -136 c0 -19 -13 -33 -32 -36
-13 -2 -18 4 -18 23 0 20 5 25 25 25 14 0 25 -6 25 -12z m575 -95 c-1 -69 -26
-213 -36 -213 -10 0 -5 43 16 150 8 39 9 67 4 71 -6 3 -7 13 -3 22 11 31 20
18 19 -30z m-4075 -97 c0 -3 -4 -8 -10 -11 -5 -3 -10 -1 -10 4 0 6 5 11 10 11
6 0 10 -2 10 -4z m4585 -96 c-3 -5 -10 -10 -16 -10 -5 0 -9 5 -9 10 0 6 7 10
16 10 8 0 12 -4 9 -10z m-467 -175 c-1 -23 -5 -32 -15 -28 -7 3 -16 -2 -19
-11 -6 -15 -44 -22 -56 -11 -2 3 -3 19 0 36 4 26 8 30 28 26 16 -3 25 1 29 14
10 30 34 11 33 -26z m-128 -126 c0 -6 -4 -7 -10 -4 -5 3 -10 11 -10 16 0 6 5
7 10 4 6 -3 10 -11 10 -16z m1050 -69 c0 -16 -7 -20 -32 -20 -30 0 -31 0 -13
20 10 11 24 20 32 20 7 0 13 -9 13 -20z"/>
<path d="M4397 6564 c-14 -14 -7 -25 13 -22 12 2 21 8 21 13 0 12 -24 18 -34
9z"/>
<path d="M3695 6300 c-22 -11 -46 -19 -52 -20 -7 0 -13 -2 -13 -5 0 -12 110
-175 118 -175 4 0 17 8 28 18 11 9 28 22 38 27 10 6 18 13 19 16 2 8 -86 159
-93 159 -3 -1 -23 -9 -45 -20z"/>
<path d="M4344 6239 c-60 -43 -116 -85 -124 -92 -8 -7 -36 -26 -62 -42 -49
-31 -55 -39 -38 -50 6 -3 10 -12 10 -20 0 -7 14 -29 31 -48 26 -29 35 -34 49
-25 14 9 25 5 54 -17 41 -31 45 -45 17 -52 -11 -3 -22 -10 -24 -17 -3 -6 29
-60 71 -120 l75 -108 23 29 c44 53 24 1 -24 -66 -27 -36 -58 -81 -68 -99 -19
-33 -19 -34 1 -48 17 -13 20 -12 32 11 8 14 17 25 22 25 4 0 51 -36 104 -80
53 -44 104 -80 112 -80 9 0 14 -4 11 -8 -3 -5 32 -45 77 -90 l83 -82 47 55
c27 30 54 55 61 55 7 0 22 24 34 53 l20 52 -29 30 c-38 41 -37 54 2 21 17 -14
34 -26 38 -26 4 0 14 20 23 44 16 43 16 45 -5 63 -32 29 -157 113 -167 113 -4
0 -10 4 -12 8 -1 5 -53 43 -114 84 -84 57 -122 77 -158 82 -57 9 -175 52 -195
71 -27 26 -4 27 46 1 27 -13 78 -32 114 -41 35 -9 79 -23 97 -31 31 -13 35
-12 58 11 23 23 117 55 162 55 11 0 25 6 31 14 19 22 -12 76 -43 76 -17 0 -37
16 -66 50 -23 28 -50 50 -60 50 -16 0 -36 27 -27 36 10 10 69 -31 102 -71 22
-28 44 -45 58 -45 18 0 10 12 -43 65 -36 36 -79 75 -96 87 -29 20 -66 67 -92
119 -11 23 -52 54 -93 71 -12 4 -51 -18 -125 -73z"/>
<path d="M3304 6247 c-32 -28 -28 -51 11 -61 29 -7 93 18 102 41 17 43 -68 58
-113 20z"/>
<path d="M4670 6179 c0 -18 2 -19 15 -9 15 12 12 30 -6 30 -5 0 -9 -10 -9 -21z"/>
<path d="M4635 6180 c3 -5 8 -10 11 -10 2 0 4 5 4 10 0 6 -5 10 -11 10 -5 0
-7 -4 -4 -10z"/>
<path d="M3650 6013 c-52 -35 -101 -68 -109 -72 -10 -6 5 -33 60 -112 41 -57
81 -114 89 -126 8 -12 57 -80 108 -151 l93 -130 80 -36 c44 -20 77 -41 74 -46
-3 -5 5 -12 17 -16 13 -3 76 -38 140 -75 64 -38 121 -69 127 -69 5 0 14 -8 20
-17 9 -17 12 -16 35 6 22 21 29 23 51 13 15 -7 24 -16 21 -20 -3 -5 7 -18 23
-30 l28 -21 49 52 c93 98 91 93 63 123 -13 15 -62 58 -109 97 -47 39 -93 77
-102 85 -16 13 -19 12 -29 -12 -14 -29 -31 -33 -49 -12 -6 8 -17 13 -25 10
-16 -7 -61 16 -140 70 -33 22 -62 42 -64 43 -2 1 1 8 7 16 8 10 6 16 -8 25
-11 7 -39 39 -63 71 l-43 59 -59 -44 c-33 -25 -61 -48 -63 -52 -1 -4 12 -16
30 -27 40 -23 20 -32 -24 -10 -20 9 -43 13 -60 10 -17 -4 -28 -2 -28 4 0 6 -7
11 -16 11 -8 0 -13 4 -10 8 3 5 18 7 33 5 20 -3 41 5 73 27 25 17 60 41 77 53
18 12 33 25 33 29 0 9 -208 304 -223 316 -8 7 -41 -10 -107 -55z m780 -688 c0
-8 -4 -15 -9 -15 -5 0 -20 -17 -32 -37 -13 -20 -25 -31 -27 -24 -4 13 46 91
59 91 5 0 9 -7 9 -15z"/>
<path d="M2950 6020 c6 -11 15 -20 21 -20 6 0 6 7 -1 20 -6 11 -15 20 -21 20
-6 0 -6 -7 1 -20z"/>
<path d="M4208 5943 c-3 -18 24 -53 41 -53 14 0 23 18 16 30 -5 8 -12 7 -23
-2 -13 -11 -15 -11 -9 4 3 9 0 22 -8 28 -10 9 -14 7 -17 -7z"/>
<path d="M4838 5940 c5 -13 14 -26 20 -28 19 -6 14 13 -8 33 -20 18 -21 18
-12 -5z"/>
<path d="M3420 5860 c-88 -62 -120 -75 -99 -42 9 14 8 24 -2 44 l-14 26 -80
-49 c-44 -27 -84 -50 -90 -52 -8 -3 202 -297 212 -297 2 0 24 15 48 34 33 24
41 36 33 44 -16 16 -2 28 15 13 12 -9 34 3 111 60 53 39 96 75 96 80 0 12
-131 199 -139 199 -3 -1 -44 -28 -91 -60z m-36 -121 c-3 -5 -10 -7 -15 -3 -5
3 -7 10 -3 15 3 5 10 7 15 3 5 -3 7 -10 3 -15z m180 -71 c-3 -4 -21 -1 -42 7
-44 19 -46 21 -37 34 4 7 20 3 45 -11 21 -13 36 -26 34 -30z m-186 1 c17 -27
5 -40 -14 -15 -8 11 -14 23 -14 28 0 15 15 8 28 -13z"/>
<path d="M4855 5875 l-30 -24 32 -1 c17 0 33 5 35 11 3 9 11 8 28 -1 l25 -13
-24 27 c-14 14 -27 26 -30 26 -3 0 -19 -11 -36 -25z"/>
<path d="M4108 5819 l-98 -71 41 -59 c23 -32 53 -66 66 -75 18 -11 22 -19 15
-26 -11 -11 58 -67 126 -102 l32 -17 18 32 c9 17 32 54 51 82 l33 50 -73 106
c-100 145 -103 150 -109 150 -3 0 -49 -32 -102 -70z"/>
<path d="M4695 5824 c-11 -3 -30 -17 -42 -31 l-21 -26 41 -32 c23 -17 99 -70
169 -118 145 -100 145 -100 195 -15 47 81 49 94 15 112 -16 8 -35 28 -41 44
-21 51 -63 66 -186 69 -60 1 -119 -1 -130 -3z"/>
<path d="M3030 5727 c-70 -40 -224 -139 -244 -158 -5 -4 32 -70 83 -148 50
-78 91 -144 91 -147 0 -3 7 -12 16 -21 13 -13 19 -14 40 -3 13 8 24 17 24 22
0 4 4 8 10 8 17 0 279 193 274 202 -3 4 -14 8 -25 8 -10 0 -19 5 -19 10 0 6 5
10 11 10 7 0 4 11 -6 28 -29 45 -170 231 -175 231 -3 1 -39 -18 -80 -42z m57
-261 c-5 -16 -27 -19 -27 -3 0 7 7 14 15 14 9 0 14 -5 12 -11z"/>
<path d="M5186 5695 c-18 -18 -21 -35 -6 -35 6 0 10 -8 10 -18 0 -10 33 -47
73 -82 39 -35 64 -55 54 -43 -19 22 -21 39 -11 89 5 26 2 32 -14 36 -11 3 -26
18 -33 34 -16 34 -49 42 -73 19z"/>
<path d="M3653 5693 c-7 -2 -13 -11 -13 -19 0 -8 -7 -14 -16 -14 -17 0 -234
-158 -234 -170 0 -5 99 -150 116 -169 9 -11 34 24 29 40 -7 21 5 25 22 8 8 -8
29 2 80 37 37 27 70 52 71 56 2 5 8 8 14 8 5 0 25 12 43 26 l34 26 -42 60
c-59 84 -90 117 -104 111z m-143 -263 c9 -16 7 -24 -5 -36 -9 -9 -17 -15 -18
-13 -2 2 -9 12 -16 22 -12 15 -11 20 5 32 24 18 21 19 34 -5z"/>
<path d="M5052 5598 c-34 -63 -41 -83 -30 -90 37 -25 70 -38 80 -32 6 4 8 3 4
-4 -7 -11 97 -72 124 -72 30 0 91 82 70 95 -5 3 -10 -2 -10 -12 0 -21 -51 -53
-83 -53 -25 1 -96 55 -85 65 4 4 22 -5 41 -19 37 -29 63 -32 90 -12 40 31 -1
69 -90 83 -40 7 -84 -13 -76 -33 3 -9 -2 -14 -16 -14 -12 0 -21 4 -21 10 0 16
43 50 70 56 53 11 69 22 63 44 -5 18 -67 70 -83 70 -3 0 -24 -37 -48 -82z"/>
<path d="M5192 5578 c-9 -9 -5 -15 20 -25 39 -17 44 -12 15 15 -18 17 -26 19
-35 10z"/>
<path d="M3360 5471 c0 -5 5 -13 10 -16 6 -4 8 -11 4 -16 -4 -6 -12 -5 -23 5
-15 13 -31 4 -178 -102 -89 -64 -162 -121 -162 -126 -2 -20 103 -167 115 -162
11 4 338 230 358 247 5 4 -17 44 -48 88 -57 80 -76 101 -76 82z"/>
<path d="M4961 5374 c-41 -104 -41 -107 -22 -120 19 -14 16 -20 -75 -147 -52
-72 -108 -144 -126 -159 l-31 -27 29 -25 c16 -14 32 -26 36 -26 12 0 158 121
234 195 40 39 77 69 83 67 15 -5 14 -22 -2 -22 -7 0 -31 -19 -52 -41 -22 -23
-86 -81 -142 -129 l-102 -88 37 -28 c20 -16 55 -45 77 -65 l41 -37 54 45 c30
25 98 78 150 116 52 39 125 97 161 129 36 32 69 58 72 58 4 0 7 -13 7 -30 0
-21 -5 -30 -16 -30 -8 0 -12 5 -9 10 14 23 -11 7 -76 -49 -37 -33 -78 -66 -89
-74 -18 -12 -19 -18 -10 -33 12 -19 92 -86 109 -92 12 -4 135 188 189 296 l46
92 -37 38 c-39 40 -175 122 -202 122 -8 0 -15 4 -15 9 0 5 -8 11 -19 14 -29 7
-110 -102 -105 -143 2 -16 -1 -30 -6 -30 -6 0 -10 10 -11 23 0 22 0 22 -14 2
-36 -51 -42 -57 -48 -48 -6 9 67 113 121 173 12 14 18 26 12 28 -6 2 -8 8 -5
12 3 5 -17 21 -44 35 -28 14 -72 38 -98 55 -26 16 -50 30 -53 30 -4 0 -26 -48
-49 -106z m182 -10 c8 -8 -10 -44 -22 -44 -7 0 -8 36 -2 48 2 4 18 2 24 -4z
m51 -160 c4 -10 1 -14 -6 -12 -15 5 -23 28 -10 28 5 0 13 -7 16 -16z m192 -86
c-17 -12 -23 -9 -23 10 0 24 21 35 28 14 4 -9 1 -20 -5 -24z m-200 -55 c-10
-10 -19 5 -10 18 6 11 8 11 12 0 2 -7 1 -15 -2 -18z m274 -3 c0 -13 -20 -13
-40 0 -12 8 -9 10 13 10 15 0 27 -4 27 -10z m-588 -42 c-7 -7 -12 -8 -12 -2 0
6 3 14 7 17 3 4 9 5 12 2 2 -3 -1 -11 -7 -17z m75 -150 c-3 -8 -6 -5 -6 6 -1
11 2 17 5 13 3 -3 4 -12 1 -19z"/>
<path d="M5303 5433 c-50 -43 -46 -61 17 -99 30 -18 60 -33 65 -33 6 0 4 3 -2
6 -7 2 -13 9 -13 15 0 6 6 8 14 5 18 -7 52 28 37 38 -18 10 -12 28 7 21 9 -4
-3 11 -28 33 -25 22 -50 40 -55 41 -6 0 -25 -12 -42 -27z"/>
<path d="M4840 5207 c-67 -76 -73 -84 -55 -91 8 -3 24 4 34 16 11 11 26 18 35
15 9 -4 24 9 43 36 29 44 35 62 18 62 -5 0 -14 3 -20 7 -5 3 -30 -17 -55 -45z"/>
<path d="M4591 5174 l-74 -77 84 -78 c46 -43 89 -78 95 -79 15 0 75 62 98 102
15 25 16 30 4 20 -12 -10 -18 -10 -23 -1 -4 6 -2 15 4 19 9 5 8 10 -4 20 -14
11 -22 7 -60 -30 -59 -58 -58 -39 2 29 l46 53 -50 49 -49 50 -73 -77z"/>
<path d="M5508 5069 l-37 -79 69 -55 c84 -67 181 -135 192 -135 5 0 14 12 21
28 6 15 26 46 44 70 18 23 30 48 27 56 -5 13 39 50 48 41 3 -3 -2 -28 -11 -55
-10 -33 -20 -49 -28 -46 -11 5 -56 -54 -92 -122 -11 -20 -9 -23 16 -33 49 -19
245 -59 286 -59 23 0 78 5 124 12 l83 12 0 44 c0 24 4 52 10 62 8 15 3 22 -30
44 -22 14 -44 26 -50 26 -5 0 -10 5 -10 10 0 26 -30 4 -80 -58 -62 -77 -118
-128 -128 -117 -4 3 5 16 21 27 15 11 55 53 88 94 50 61 59 77 49 89 -7 8 -18
15 -25 15 -7 0 -18 7 -25 15 -7 8 -37 29 -68 46 -41 24 -59 30 -71 22 -17 -11
-41 -7 -41 7 0 5 8 10 18 12 11 2 -3 14 -42 36 -70 38 -72 38 -86 12 -9 -16
-8 -18 5 -14 19 8 19 -5 0 -30 -16 -21 -17 -21 -34 12 -6 12 -18 22 -27 22
-19 0 -153 47 -168 59 -8 6 -22 -15 -48 -70z m345 -36 c-7 -2 -19 -2 -25 0 -7
3 -2 5 12 5 14 0 19 -2 13 -5z m-75 -150 c-13 -12 -19 -13 -37 -1 -21 13 -23
33 -3 33 5 0 13 3 17 7 4 4 14 0 23 -8 13 -14 13 -17 0 -31z"/>
<path d="M6052 4998 c2 -6 10 -14 16 -16 7 -2 10 2 6 12 -7 18 -28 22 -22 4z"/>
<path d="M4582 4933 c-17 -20 -31 -37 -30 -39 16 -15 123 -94 128 -94 3 0 21
13 40 30 l35 30 -30 22 c-16 13 -46 38 -66 55 -20 18 -38 33 -40 33 -2 0 -19
-17 -37 -37z"/>
<path d="M5390 4868 c-36 -56 -66 -107 -68 -113 -1 -6 12 -19 30 -28 18 -10
56 -31 83 -47 59 -35 105 -52 105 -41 0 14 -97 72 -142 86 -23 6 -44 17 -46
23 -6 18 85 -15 146 -53 l56 -35 18 43 c9 23 17 52 17 65 1 13 12 33 25 46
l25 22 -80 63 c-44 34 -86 64 -92 66 -7 2 -41 -42 -77 -97z"/>
<path d="M4510 4865 l-22 -24 47 -60 47 -60 39 31 c21 17 37 34 34 37 -2 4
-30 28 -63 54 l-59 46 -23 -24z"/>
<path d="M5126 4845 c-24 -19 -31 -35 -43 -105 -8 -45 -13 -83 -11 -85 2 -1
46 -5 99 -8 l95 -5 23 44 24 44 -39 33 c-21 17 -57 48 -79 69 l-40 36 -29 -23z"/>
<path d="M4727 4811 l-36 -28 84 -67 85 -67 35 28 c19 15 35 31 35 35 0 9
-146 128 -158 128 -5 0 -25 -13 -45 -29z"/>
<path d="M5631 4806 c-6 -7 -19 -37 -30 -67 -10 -30 -22 -62 -26 -71 -6 -14 2
-22 40 -38 87 -37 92 -37 104 7 24 92 24 93 6 93 -13 0 -16 6 -11 24 5 19 0
29 -23 45 -34 25 -45 26 -60 7z"/>
<path d="M6277 4803 c-4 -3 -7 -28 -7 -55 0 -46 1 -48 30 -49 17 -1 35 -2 42
-3 7 -1 18 10 24 23 12 23 9 27 -31 58 -47 36 -48 36 -58 26z"/>
<path d="M5011 4752 l-54 -48 32 -27 c55 -46 62 -39 77 71 3 28 5 52 3 52 -2
0 -28 -22 -58 -48z"/>
<path d="M6425 4760 c-17 -19 -17 -20 0 -26 19 -8 49 22 39 37 -8 14 -19 11
-39 -11z"/>
<path d="M4632 4739 l-43 -31 34 -42 c18 -22 47 -60 65 -83 l33 -42 59 46 c33
25 57 50 54 54 -6 10 -151 129 -156 129 -2 0 -23 -14 -46 -31z"/>
<path d="M5745 4668 c-8 -28 -15 -57 -15 -64 0 -21 87 -25 275 -14 247 14 245
14 245 57 0 33 -1 35 -27 28 -60 -16 -246 -9 -346 12 -53 12 -101 25 -107 28
-5 3 -16 -18 -25 -47z m235 -38 c0 -5 -2 -10 -4 -10 -3 0 -8 5 -11 10 -3 6 -1
10 4 10 6 0 11 -4 11 -10z"/>
<path d="M5299 4666 c-10 -24 -22 -58 -25 -75 l-6 -31 121 0 c120 0 122 0 133
25 6 14 9 26 7 28 -2 1 -37 18 -77 37 -40 19 -78 40 -84 47 -22 27 -49 14 -69
-31z"/>
<path d="M4912 4669 c-19 -17 -32 -32 -30 -33 19 -17 119 -66 135 -66 31 0 38
57 9 66 -12 3 -34 19 -51 34 l-30 29 -33 -30z"/>
<path d="M4520 4654 c-25 -20 -49 -39 -54 -44 -11 -11 70 -106 106 -126 39
-20 58 -17 97 15 23 21 31 33 25 44 -23 39 -110 146 -119 146 -5 0 -30 -16
-55 -35z"/>
<path d="M5060 4601 l0 -28 92 -7 c50 -3 93 -5 95 -3 1 2 6 18 9 35 l7 32
-102 0 -101 0 0 -29z"/>
<path d="M5547 4598 l-16 -33 47 -27 c26 -14 64 -30 85 -33 l37 -7 0 40 c0 40
0 40 -65 66 -36 14 -67 26 -69 26 -2 0 -11 -15 -19 -32z"/>
<path d="M4788 4573 l-57 -46 20 -29 21 -29 27 24 c45 43 94 67 136 67 l40 0
-50 30 c-27 16 -57 29 -65 29 -8 0 -41 -21 -72 -46z"/>
<path d="M6303 4593 c-18 -3 -23 -11 -23 -34 0 -26 3 -29 33 -29 17 0 49 3 70
6 33 6 37 10 37 35 0 28 -2 29 -47 28 -27 -1 -58 -4 -70 -6z"/>
<path d="M4413 4568 l-22 -22 47 -50 c26 -28 56 -63 67 -79 l20 -27 38 26 c44
32 46 40 10 49 -17 4 -48 30 -78 66 -27 32 -52 59 -55 59 -3 0 -15 -10 -27
-22z"/>
<path d="M6155 4583 c-171 -14 -165 -12 -165 -45 l0 -31 77 7 c42 3 102 6 135
6 l58 0 0 35 c0 38 4 37 -105 28z"/>
<path d="M5720 4535 l0 -35 48 0 c27 0 83 3 125 6 76 7 77 7 77 35 l0 27 -125
1 -125 1 0 -35z"/>
<path d="M4863 4520 c-29 -17 -57 -38 -62 -48 -9 -17 -2 -20 100 -31 61 -7
113 -11 115 -8 3 3 8 30 11 61 l6 56 -59 0 c-47 0 -70 -6 -111 -30z"/>
<path d="M5046 4504 c-11 -84 -14 -81 67 -88 39 -4 79 -9 88 -12 20 -6 26 8
35 85 l7 61 -95 0 -95 0 -7 -46z"/>
<path d="M5260 4520 c0 -20 7 -23 125 -51 28 -6 58 -16 68 -21 18 -9 28 6 43
67 l6 25 -121 0 c-114 0 -121 -1 -121 -20z"/>
<path d="M5506 4490 c-10 -28 -16 -53 -13 -56 7 -7 130 -23 180 -24 37 0 38 1
35 33 -3 29 -7 33 -51 44 -26 6 -62 21 -81 32 -18 12 -38 21 -43 21 -5 0 -17
-23 -27 -50z"/>
<path d="M4678 4487 c-16 -13 -28 -25 -28 -29 0 -3 18 -13 41 -22 32 -13 44
-14 55 -5 20 16 17 32 -9 57 -28 27 -26 27 -59 -1z"/>
<path d="M6170 4503 c-30 -1 -83 -5 -117 -9 -62 -5 -63 -6 -63 -35 0 -28 2
-29 46 -29 27 0 43 -4 39 -10 -3 -5 -23 -10 -44 -10 l-38 0 5 -72 c2 -40 6
-75 8 -77 1 -1 60 1 131 5 l128 9 3 31 3 30 -58 -1 c-32 -1 -62 0 -67 3 -18
10 21 22 72 22 59 0 58 -2 46 98 -5 40 -11 52 -23 50 -9 -1 -41 -3 -71 -5z
m-12 -75 c-5 -14 -58 -23 -58 -9 0 8 13 13 53 20 5 0 7 -4 5 -11z m42 2 c0 -5
-4 -10 -10 -10 -5 0 -10 5 -10 10 0 6 5 10 10 10 6 0 10 -4 10 -10z m40 -16
c0 -8 -7 -14 -15 -14 -17 0 -18 2 -9 24 7 18 24 12 24 -10z"/>
<path d="M6592 4491 c-20 -12 -4 -101 18 -101 15 0 16 6 8 53 -11 61 -10 58
-26 48z"/>
<path d="M5747 4483 c-24 -4 -28 -8 -23 -26 3 -12 6 -28 6 -36 0 -11 21 -12
117 -6 65 3 120 8 124 10 3 2 4 18 1 35 l-4 30 -97 -1 c-53 -1 -109 -4 -124
-6z"/>
<path d="M5250 4466 c0 -7 -3 -27 -6 -43 -6 -29 -4 -31 42 -42 27 -7 54 -16
59 -21 6 -5 31 -11 55 -12 44 -3 45 -2 54 34 5 21 7 40 4 43 -6 6 -183 55
-199 55 -5 0 -9 -6 -9 -14z"/>
<path d="M4576 4406 c-38 -33 -38 -33 -21 -60 9 -14 21 -26 26 -26 4 0 38 19
75 42 l67 42 -39 17 c-54 24 -64 23 -108 -15z"/>
<path d="M4765 4430 c-4 -6 -5 -13 -4 -14 11 -9 251 -31 256 -23 8 13 3 15
-87 26 -47 6 -101 14 -121 17 -23 3 -40 1 -44 -6z"/>
<path d="M5034 4398 c-4 -5 -4 -11 -3 -12 6 -5 145 -26 168 -26 28 0 27 18 -1
25 -53 13 -159 21 -164 13z"/>
<path d="M5472 4378 c-5 -18 -6 -37 -1 -42 9 -10 181 -17 222 -9 23 5 28 10
25 32 -3 25 -7 26 -93 38 -142 18 -143 18 -153 -19z"/>
<path d="M5850 4397 c-63 -4 -116 -10 -118 -11 -2 -2 0 -16 4 -30 6 -24 11
-27 43 -26 77 4 131 0 131 -10 0 -6 -35 -10 -86 -10 l-86 0 6 -32 c3 -17 8
-33 10 -36 3 -2 54 -1 115 3 l111 8 0 73 c0 40 -3 74 -7 76 -5 2 -60 0 -123
-5z"/>
<path d="M4703 4372 l-42 -26 37 -31 c29 -26 36 -39 36 -68 0 -33 2 -35 21
-24 12 7 67 12 135 12 l115 0 3 66 3 66 -108 12 c-59 7 -119 14 -133 16 -15 2
-42 -7 -67 -23z"/>
<path d="M5230 4360 c0 -5 21 -10 48 -9 38 1 42 2 22 9 -36 12 -70 12 -70 0z"/>
<path d="M6503 4363 c-40 -3 -53 -8 -53 -20 0 -11 6 -14 23 -9 12 3 46 6 75 6
39 0 52 4 52 15 0 9 -8 14 -22 13 -13 -1 -47 -3 -75 -5z"/>
<path d="M5026 4338 c-3 -13 -6 -42 -6 -65 l0 -43 55 0 c34 0 55 4 55 11 0 8
12 10 34 6 32 -5 34 -4 40 31 3 20 6 42 6 48 0 7 -28 17 -63 23 -95 16 -114
15 -121 -11z m111 -41 c13 5 13 3 2 -15 -10 -16 -16 -18 -26 -10 -7 6 -13 18
-13 26 0 12 3 13 11 5 6 -6 18 -9 26 -6z"/>
<path d="M6290 4335 c0 -17 21 -19 94 -9 69 10 55 24 -24 24 -56 0 -70 -3 -70
-15z"/>
<path d="M5226 4314 c-3 -9 -6 -28 -6 -43 0 -25 5 -29 60 -44 33 -10 75 -17
94 -17 32 0 34 2 48 53 11 37 12 54 4 59 -6 4 -52 8 -102 8 -75 0 -93 -3 -98
-16z"/>
<path d="M5442 4269 c-7 -28 -10 -54 -7 -57 3 -3 47 0 99 6 52 7 118 12 145
12 47 0 51 2 51 24 0 52 -5 54 -113 55 -56 1 -116 4 -133 7 -30 5 -30 4 -42
-47z"/>
<path d="M6461 4311 c-10 -6 -12 -23 -9 -60 5 -53 -5 -78 -16 -38 -3 12 -6 39
-6 60 l0 39 -67 -7 c-38 -4 -70 -9 -72 -11 -2 -1 0 -44 4 -94 6 -77 10 -90 24
-86 9 3 59 8 111 12 118 8 132 10 141 26 11 17 21 5 13 -15 -7 -19 -32 -24
-159 -32 -131 -9 -125 -5 -125 -83 0 -37 3 -77 6 -90 6 -21 10 -22 65 -16 41
5 59 3 59 -5 0 -6 -10 -12 -22 -13 -13 0 -27 -2 -33 -3 -5 -2 -22 -3 -37 -4
-27 -1 -28 -3 -28 -51 l0 -50 125 7 c91 4 125 3 125 -5 0 -8 -22 -12 -64 -12
-34 0 -91 -3 -125 -6 l-61 -7 1 -56 c2 -89 11 -116 37 -114 26 3 28 -5 6 -22
-15 -11 -14 -16 11 -63 15 -28 40 -66 56 -84 l28 -33 30 33 c16 17 38 32 48
32 23 0 78 66 60 73 -9 4 -9 8 -1 14 7 4 13 17 15 28 3 12 14 21 27 23 16 3
22 8 18 19 -3 8 -6 23 -6 32 0 12 -7 17 -22 17 -30 -1 -35 44 -7 51 23 6 23
14 7 191 -8 90 -15 132 -24 132 -13 0 -26 38 -18 52 10 15 33 8 39 -12 3 -11
13 -20 21 -20 20 0 19 93 -1 114 -17 17 -20 36 -5 36 6 0 9 19 8 43 -1 36 -2
38 -5 10 -5 -40 -22 -44 -24 -5 -2 23 -2 24 -6 5 -2 -13 -8 -23 -12 -23 -13 0
-46 29 -33 30 6 0 12 7 12 15 0 8 7 15 15 15 8 0 15 5 15 10 0 12 -120 13
-139 1z m119 -100 c17 -32 11 -46 -9 -23 -10 12 -23 22 -30 22 -6 0 -11 5 -11
10 0 18 39 11 50 -9z m-242 -193 c-6 -18 -28 -21 -28 -4 0 9 7 16 16 16 9 0
14 -5 12 -12z m55 -330 c4 -14 -1 -18 -23 -18 -31 0 -49 27 -22 32 32 7 41 5
45 -14z m177 -17 c0 -9 -52 -22 -60 -15 -7 7 23 24 43 24 9 0 17 -4 17 -9z
m20 -90 c0 -10 -30 -24 -37 -17 -3 3 -2 9 2 15 8 13 35 15 35 2z"/>
<path d="M3530 4254 c-41 -26 -77 -48 -79 -50 -3 -3 19 -39 70 -117 7 -10 159
79 159 92 0 6 -70 121 -74 121 -1 0 -35 -21 -76 -46z"/>
<path d="M6132 4246 l-134 -8 7 -72 c4 -39 8 -72 9 -74 2 -1 44 1 94 4 81 6
92 9 92 25 0 11 5 19 10 19 6 0 10 7 10 15 0 8 4 15 9 15 13 0 21 -27 15 -45
-4 -11 0 -15 16 -15 21 0 21 3 15 72 -3 40 -7 72 -8 73 -1 0 -62 -4 -135 -9z
m118 -52 c0 -17 -22 -14 -28 4 -2 7 3 12 12 12 9 0 16 -7 16 -16z m-200 -59
c0 -8 -4 -15 -10 -15 -5 0 -10 7 -10 15 0 8 5 15 10 15 6 0 10 -7 10 -15z"/>
<path d="M5147 4223 c-4 -3 -7 -17 -7 -30 0 -12 -4 -23 -9 -23 -5 0 -7 8 -4
18 4 18 -7 19 -168 25 -177 6 -184 5 -245 -36 l-31 -20 41 -116 c22 -64 44
-117 48 -119 4 -2 8 -12 8 -23 0 -17 8 -19 68 -19 109 0 113 3 106 64 l-6 51
132 32 c73 17 133 33 135 35 2 2 -2 40 -8 86 -9 74 -13 82 -32 82 -12 0 -25
-3 -28 -7z m37 -134 c-3 -5 -10 -7 -15 -3 -5 3 -7 10 -3 15 3 5 10 7 15 3 5
-3 7 -10 3 -15z m-324 -139 c0 -5 -7 -10 -16 -10 -8 0 -12 5 -9 10 3 6 10 10
16 10 5 0 9 -4 9 -10z"/>
<path d="M5806 4223 l-58 -4 6 -31 c3 -17 6 -51 6 -75 l0 -45 98 7 c136 9 134
8 128 58 -2 23 -5 54 -5 70 -1 26 -2 27 -58 25 -32 -1 -84 -3 -117 -5z"/>
<path d="M5221 4188 c0 -18 3 -51 7 -73 6 -33 11 -39 29 -37 15 2 23 -5 31
-28 12 -32 22 -35 68 -21 16 5 64 13 108 16 l78 7 -4 68 c-2 38 -6 71 -9 75
-3 3 -41 1 -85 -4 -66 -7 -89 -5 -139 10 -81 25 -85 25 -84 -13z m49 -89 c0
-5 -4 -9 -10 -9 -5 0 -10 7 -10 16 0 8 5 12 10 9 6 -3 10 -10 10 -16z m40 12
c0 -6 -4 -13 -10 -16 -5 -3 -10 1 -10 9 0 9 5 16 10 16 6 0 10 -4 10 -9z"/>
<path d="M5572 4203 c-23 -5 -24 -7 -17 -76 4 -40 8 -73 9 -74 2 -2 36 1 77 5
53 6 73 11 71 21 -1 7 4 19 13 25 12 8 15 24 13 56 l-3 45 -70 1 c-38 1 -81 0
-93 -3z"/>
<path d="M6250 4074 c0 -8 -5 -12 -11 -8 -6 3 -15 0 -20 -7 -7 -11 -9 -10 -9
4 0 14 -9 17 -47 17 -27 0 -72 -3 -100 -6 -43 -6 -53 -10 -53 -25 0 -11 -4
-19 -10 -19 -5 0 -10 9 -10 20 0 19 -5 20 -72 14 -127 -10 -118 -2 -118 -100
l0 -85 73 6 c121 10 117 8 117 65 0 28 5 50 10 50 6 0 10 -22 10 -50 l0 -50
115 0 115 0 0 25 c0 14 5 25 10 25 6 0 10 -9 10 -20 0 -12 7 -20 16 -20 12 0
15 6 10 23 -3 12 -6 52 -6 90 0 53 -3 67 -15 67 -8 0 -15 -7 -15 -16z m-20
-58 c0 -8 -4 -17 -9 -21 -12 -7 -24 12 -16 25 9 15 25 12 25 -4z m30 -16 c0
-16 -4 -30 -10 -30 -5 0 -10 14 -10 30 0 17 5 30 10 30 6 0 10 -13 10 -30z
m-330 -5 c0 -8 -4 -15 -10 -15 -5 0 -10 7 -10 15 0 8 5 15 10 15 6 0 10 -7 10
-15z"/>
<path d="M5253 4038 c3 -13 11 -72 18 -131 l12 -109 36 7 c20 4 88 25 151 47
63 22 136 44 163 47 42 7 47 6 47 -12 0 -18 5 -19 51 -14 29 4 54 8 56 10 2 3
1 41 -3 86 l-7 81 -66 -5 c-204 -14 -330 -26 -361 -35 -52 -15 -60 -13 -71 20
-13 35 -34 41 -26 8z"/>
<path d="M5101 4015 c-69 -17 -126 -35 -128 -41 -4 -11 13 -213 23 -267 6 -38
7 -38 43 -33 20 3 63 8 96 11 136 13 135 13 135 51 0 27 -4 34 -20 34 -11 0
-20 5 -20 10 0 6 7 10 15 10 10 0 15 10 15 33 0 48 -20 199 -28 212 -5 7 -45
1 -131 -20z m-11 -245 c0 -5 -7 -10 -15 -10 -8 0 -15 5 -15 10 0 6 7 10 15 10
8 0 15 -4 15 -10z m50 0 c0 -5 -9 -10 -20 -10 -11 0 -20 5 -20 10 0 6 9 10 20
10 11 0 20 -4 20 -10z"/>
<path d="M5649 3886 c-2 -2 -17 -6 -34 -9 -16 -2 -49 -10 -72 -17 -39 -12 -43
-16 -43 -45 0 -58 11 -97 27 -91 8 3 55 11 106 17 173 20 157 13 157 70 l0 51
-60 -7 c-56 -7 -60 -6 -60 14 0 19 -10 27 -21 17z"/>
<path d="M5877 3869 c-38 -4 -71 -9 -73 -12 -2 -2 -1 -25 2 -51 l7 -48 51 6
c28 4 69 9 91 12 l40 6 -3 49 c-4 55 4 52 -115 38z"/>
<path d="M4852 3863 l-42 -4 6 -39 c5 -33 3 -39 -16 -45 -19 -6 -21 -12 -16
-43 17 -95 16 -94 44 -88 15 3 50 8 77 11 80 10 85 13 76 38 -5 13 -12 57 -16
100 l-7 77 -32 -2 c-17 -1 -50 -3 -74 -5z"/>
<path d="M4773 3820 c0 -18 6 -30 14 -30 8 0 13 12 13 30 0 18 -5 30 -13 30
-8 0 -14 -12 -14 -30z"/>
<path d="M5367 3802 c-64 -19 -86 -30 -82 -40 3 -7 5 -26 5 -42 0 -24 3 -27
22 -22 16 4 20 2 16 -10 -5 -13 7 -12 78 6 92 22 94 24 78 105 -8 36 -3 36
-117 3z"/>
<path d="M5905 3755 c-5 -2 -27 -6 -49 -10 -38 -6 -38 -7 -32 -43 4 -20 9 -54
13 -76 l5 -39 62 8 c33 4 72 7 85 7 20 0 22 3 17 30 -3 17 -6 52 -6 79 l0 49
-42 -1 c-24 0 -47 -2 -53 -4z m-5 -135 c0 -5 -9 -10 -20 -10 -11 0 -20 5 -20
10 0 6 9 10 20 10 11 0 20 -4 20 -10z"/>
<path d="M5670 3730 c-41 -4 -94 -13 -118 -19 -41 -11 -42 -13 -38 -44 3 -18
8 -54 11 -81 l7 -48 34 5 c19 3 34 2 34 -3 0 -10 -25 -20 -51 -20 -21 0 -25
-20 -7 -38 8 -8 8 -15 -2 -26 -7 -9 -9 -24 -5 -33 3 -10 13 -54 21 -97 7 -43
16 -81 18 -83 2 -3 39 1 81 8 71 12 76 15 71 35 -5 19 0 23 32 31 32 8 37 13
35 36 -1 15 2 27 7 27 11 0 22 -29 15 -40 -5 -8 94 17 103 25 6 5 -9 111 -18
125 -6 10 -18 10 -60 0 l-52 -13 6 -43 c8 -61 -8 -55 -20 7 -12 54 -13 52 37
63 26 6 26 6 17 73 -5 38 -13 78 -18 91 -6 13 -10 34 -10 47 0 28 2 28 -130
15z m140 -158 c0 -8 -132 -32 -174 -32 -37 0 -4 15 57 26 78 15 117 16 117 6z
m42 -164 c-6 -6 -15 -8 -19 -4 -4 4 -1 11 7 16 8 5 17 7 19 4 3 -2 -1 -10 -7
-16z"/>
<path d="M5225 3679 c-22 -4 -77 -10 -123 -14 -49 -4 -85 -12 -88 -19 -4 -10
45 -332 61 -403 5 -21 10 -22 53 -17 26 3 74 14 107 25 l60 19 -8 138 c-4 75
-11 169 -15 207 l-7 70 -40 -6z"/>
<path d="M5366 3668 l-78 -21 7 -96 c4 -53 9 -98 11 -100 3 -3 35 5 72 17 38
12 78 22 89 22 12 0 30 3 40 7 15 6 13 9 -12 14 -29 7 -29 7 -6 14 22 7 23 12
17 59 -3 28 -6 63 -6 79 0 23 -4 27 -27 26 -16 -1 -63 -10 -107 -21z m-2 -157
c3 -5 -3 -11 -14 -14 -22 -6 -37 8 -18 16 20 8 26 8 32 -2z m76 -1 c0 -5 -13
-10 -30 -10 -16 0 -30 5 -30 10 0 6 14 10 30 10 17 0 30 -4 30 -10z"/>
<path d="M4881 3637 l-73 -10 5 -41 c4 -23 14 -74 23 -114 l16 -73 39 6 c26 4
39 3 39 -4 0 -6 -10 -11 -22 -11 -50 0 -52 -10 -29 -121 32 -152 27 -142 69
-134 130 24 131 24 122 53 -10 28 -44 216 -60 332 -18 124 -20 130 -38 129 -9
-1 -50 -6 -91 -12z"/>
<path d="M5883 3573 c-29 -4 -33 -8 -33 -33 0 -27 2 -28 35 -23 34 5 35 5 35
-26 0 -37 15 -45 61 -33 30 7 34 12 31 38 -2 16 -8 31 -13 32 -12 5 -11 32 1
32 6 0 10 5 10 10 0 10 -61 11 -127 3z"/>
<path d="M6620 3544 c0 -24 -7 -41 -20 -52 -20 -17 -21 -18 -4 -64 12 -30 22
-44 31 -41 7 3 13 -2 13 -11 0 -9 -5 -16 -11 -16 -10 0 -3 -40 10 -50 3 -3 6
-14 6 -25 0 -11 6 -61 14 -111 l14 -92 36 10 c29 8 127 52 139 63 5 5 -71 151
-91 172 l-20 22 45 53 c63 75 63 73 18 108 -37 29 -42 31 -74 20 -19 -6 -37
-16 -39 -23 -7 -18 -36 23 -37 51 0 13 -6 22 -15 22 -11 0 -15 -11 -15 -36z"/>
<path d="M5458 3470 c-26 -5 -71 -16 -99 -25 l-51 -17 5 -87 c7 -116 21 -160
50 -157 52 5 180 41 184 51 2 7 -3 52 -12 101 -9 49 -17 101 -17 117 -1 15 -4
26 -7 26 -3 -1 -27 -5 -53 -9z"/>
<path d="M6555 3450 c-3 -5 -15 -10 -25 -10 -11 0 -44 -30 -81 -75 -39 -47
-69 -75 -82 -75 -17 0 -19 -5 -13 -31 3 -17 6 -35 6 -40 0 -10 73 -12 106 -3
20 5 20 8 9 75 -7 38 -8 72 -4 75 5 3 11 -6 14 -19 6 -23 9 -23 57 -16 28 5
53 11 56 14 6 5 -26 115 -33 115 -2 0 -7 -4 -10 -10z"/>
<path d="M6555 3313 c-11 -2 -29 -6 -41 -8 -18 -4 -20 -9 -15 -42 5 -25 12
-37 21 -36 108 12 110 13 104 41 -12 56 -14 57 -69 45z"/>
<path d="M3635 3226 c-60 -23 -141 -58 -178 -77 l-68 -35 92 -84 c51 -47 113
-106 137 -132 25 -27 49 -48 54 -48 12 0 248 191 248 201 0 4 -22 26 -49 49
-40 33 -54 55 -72 106 -15 43 -28 64 -38 63 -9 0 -65 -19 -126 -43z"/>
<path d="M5652 3235 c-34 -7 -65 -15 -69 -18 -11 -11 8 -119 20 -114 7 2 46
12 88 22 l76 18 -15 53 c-9 30 -20 53 -26 53 -6 -1 -39 -7 -74 -14z"/>
<path d="M4632 6438 c3 -7 17 -13 33 -14 19 -1 37 -11 51 -30 26 -32 42 -28
24 6 -18 34 -118 69 -108 38z"/>
<path d="M7715 1210 c-14 -15 -16 -23 -7 -32 13 -13 42 6 42 28 0 22 -17 24
-35 4z"/>
</g>
</svg>
