<?xml version="1.0" standalone="no"?>
<!DOCTYPE svg PUBLIC "-//W3C//DTD SVG 20010904//EN"
 "http://www.w3.org/TR/2001/REC-SVG-20010904/DTD/svg10.dtd">
<svg version="1.0" xmlns="http://www.w3.org/2000/svg"
 width="800.000000pt" height="800.000000pt" viewBox="0 0 800.000000 800.000000"
 preserveAspectRatio="xMidYMid meet">
<metadata>
Created by potrace 1.16, written by Peter Selinger 2001-2019
</metadata>
<g transform="translate(0.000000,800.000000) scale(0.100000,-0.100000)"
fill="#000000" stroke="none">
<path d="M0 4000 l0 -4000 4000 0 4000 0 0 200 0 200 -202 3 -203 2 202 3 203
2 0 1860 0 1860 -503 3 -502 2 503 3 502 2 0 1930 0 1930 -4000 0 -4000 0 0
-4000z m4388 3228 c2 -4 8 -8 13 -8 4 0 6 7 2 16 -4 12 -1 15 13 12 10 -2 18
-11 18 -20 -1 -11 5 -15 18 -13 17 4 20 0 16 -26 -3 -18 -1 -28 6 -26 6 2 14
23 17 48 6 46 10 44 12 -6 2 -36 28 -41 37 -8 4 17 9 20 20 13 8 -5 10 -10 4
-10 -7 0 -14 -9 -17 -21 -5 -20 -2 -21 81 -19 48 1 109 2 135 1 l48 -1 -1
-177 c-2 -154 0 -179 15 -189 10 -7 12 -15 6 -18 -6 -4 -19 2 -31 14 -28 28
-75 27 -85 -2 -4 -13 -8 -26 -10 -30 -1 -5 -3 -33 -4 -63 -1 -41 -5 -55 -15
-55 -26 0 -25 88 2 140 17 34 22 59 21 103 -2 52 -5 60 -27 70 -20 9 -26 9
-29 0 -7 -20 -4 -28 12 -28 8 0 15 -4 16 -10 0 -5 5 -16 11 -22 7 -9 7 -13 -1
-13 -7 0 -9 -13 -6 -35 4 -34 4 -35 -33 -35 -49 0 -68 -12 -47 -30 8 -7 15
-19 15 -26 0 -17 -26 -18 -34 -1 -2 6 -2 -14 1 -45 4 -40 2 -58 -6 -58 -6 0
-14 0 -18 0 -4 0 -8 6 -9 15 -1 8 2 15 7 15 12 0 11 32 -1 65 -6 15 -15 23
-21 19 -8 -4 -7 -9 2 -15 7 -4 10 -11 6 -15 -3 -4 -13 -1 -22 6 -13 11 -14 10
-9 -4 5 -13 2 -17 -12 -16 -41 5 -45 1 -40 -40 l5 -40 -37 1 -37 1 28 11 c30
12 38 32 8 22 -12 -4 -21 0 -25 12 -6 14 -9 15 -15 4 -6 -9 -10 -3 -13 18 -3
23 -1 31 11 32 9 1 3 5 -14 9 -24 6 -26 8 -7 9 21 1 33 21 12 21 -5 0 -10 9
-10 20 0 11 5 20 11 20 20 0 -3 20 -24 21 l-22 0 23 9 c12 5 22 11 23 12 14
81 8 105 -33 121 -10 3 -24 22 -32 40 -8 19 -19 38 -25 41 -13 8 -15 56 -2 56
5 0 11 -9 14 -20 5 -18 14 -20 76 -20 l71 0 0 35 c0 19 -3 34 -7 34 -37 -6
-163 3 -158 11 3 6 33 10 66 10 62 0 68 3 45 26 -17 17 -47 19 -43 3 3 -17
-20 -22 -26 -5 -3 8 -3 23 0 35 4 17 10 20 32 14 14 -3 28 -10 29 -15z m-765
-55 c-13 -2 -35 -2 -50 0 -16 2 -5 4 22 4 28 0 40 -2 28 -4z m4014 -70 c-3
-10 -5 -2 -5 17 0 19 2 27 5 18 2 -10 2 -26 0 -35z m-300 -405 c-3 -7 -5 -2
-5 12 0 14 2 19 5 13 2 -7 2 -19 0 -25z m-2839 -21 c-7 -14 -13 -17 -16 -9 -6
19 6 44 18 37 7 -4 6 -14 -2 -28z m-3368 -36 c0 -5 3 -18 6 -28 5 -16 4 -16
-10 1 -18 23 -20 36 -6 36 6 0 10 -4 10 -9z m3290 -26 c0 -9 -6 -12 -16 -8
-13 5 -13 7 -2 14 17 11 18 11 18 -6z m-3250 -35 c0 -5 -4 -10 -9 -10 -6 0
-13 5 -16 10 -3 6 1 10 9 10 9 0 16 -4 16 -10z m51 -10 c0 -3 2 -13 4 -22 4
-22 1 -22 -19 -2 -15 14 -16 14 -16 -5 0 -22 -14 -28 -25 -11 -10 16 12 46 34
46 12 0 21 -3 22 -6z m29 -400 c0 -5 -7 -10 -16 -10 -8 0 -12 5 -9 10 3 6 10
10 16 10 5 0 9 -4 9 -10z m52 -18 c-7 -2 -12 -11 -12 -20 0 -15 -2 -14 -17 1
-15 15 -16 19 -4 26 8 5 21 6 30 3 10 -4 11 -7 3 -10z m-327 -72 c-5 -23 -10
-29 -18 -21 -7 7 -7 18 2 37 15 34 25 25 16 -16z m261 15 c-3 -8 -1 -15 3 -15
5 0 11 7 15 15 3 8 11 15 18 14 10 0 10 -2 1 -6 -7 -2 -13 -13 -13 -24 0 -10
-5 -19 -11 -19 -14 0 -43 -30 -45 -48 -2 -8 -18 -31 -36 -51 -18 -20 -35 -38
-37 -41 -2 -3 -6 1 -8 8 -7 18 -21 15 -26 -5 -4 -14 -5 -12 -6 5 -1 16 5 22
20 22 17 0 20 5 16 21 -6 24 11 48 31 41 6 -2 12 3 12 12 0 9 5 16 11 16 5 0
7 5 4 10 -3 6 3 10 14 10 12 0 21 5 21 10 0 6 -9 10 -20 10 -11 0 -20 4 -20 9
0 8 14 13 54 20 4 0 6 -6 2 -14z m3421 -87 c-3 -8 -6 -5 -6 6 -1 11 2 17 5 13
3 -3 4 -12 1 -19z m-2444 -49 c27 3 47 0 47 -8 0 -4 -18 -6 -40 -4 -25 3 -40
1 -40 -6 0 -6 -5 -11 -10 -11 -6 0 -3 15 6 32 14 28 18 30 23 15 4 -10 10 -18
14 -18z m-1322 8 c9 -7 19 -22 23 -35 7 -22 36 -32 36 -12 0 6 4 10 9 10 5 0
7 -9 4 -20 -5 -17 0 -20 26 -20 18 0 30 4 27 9 -3 5 5 8 19 7 19 -1 25 -7 25
-24 0 -19 4 -22 21 -17 19 6 21 4 15 -18 -3 -14 -2 -28 2 -31 11 -6 38 11 30
19 -4 4 -3 18 2 31 7 17 6 24 -3 24 -11 0 11 19 23 20 8 0 5 -64 -3 -77 -4 -7
-2 -15 4 -18 5 -4 8 -14 5 -22 -3 -8 0 -26 8 -41 7 -15 12 -35 10 -45 -2 -16
2 -18 31 -13 19 4 35 2 37 -4 1 -5 28 -11 58 -11 50 -1 58 -5 77 -32 23 -32
16 -53 -19 -53 -12 0 -16 6 -13 17 4 12 -5 24 -28 38 -39 24 -63 27 -70 9 -4
-8 -6 -7 -6 4 -1 13 -8 15 -41 11 -30 -4 -40 -2 -41 8 -3 57 -7 64 -78 122
-12 10 -19 22 -16 28 9 14 -33 49 -60 49 -11 0 -26 -5 -32 -11 -8 -8 -24 0
-58 32 -52 48 -73 79 -53 79 7 0 20 -6 29 -13z m607 -77 c14 -18 28 -27 37
-24 17 7 20 -6 5 -24 -7 -9 -7 -9 2 -2 18 15 28 12 26 -7 -1 -10 0 -27 1 -38
1 -17 3 -18 11 -5 9 13 10 13 10 0 0 -27 -12 -60 -22 -60 -6 0 -8 9 -5 21 5
18 2 20 -17 17 -17 -3 -28 3 -42 24 -12 18 -25 26 -35 23 -16 -6 -49 18 -49
35 0 4 18 8 40 8 26 1 40 -3 38 -11 -3 -18 25 -57 41 -57 11 0 11 4 -2 18 -10
10 -17 22 -17 26 0 5 -13 23 -29 41 -25 29 -31 32 -47 20 -11 -7 -38 -16 -61
-20 -24 -4 -43 -11 -43 -16 0 -5 -4 -9 -9 -9 -5 0 -7 9 -4 20 4 15 14 20 37
20 17 0 42 7 56 14 38 21 54 19 78 -14z m5459 -42 c-2 -13 -4 -3 -4 22 0 25 2
35 4 23 2 -13 2 -33 0 -45z m-6012 12 c28 -30 20 -44 -9 -15 -8 8 -17 15 -20
15 -3 0 -6 -7 -6 -15 0 -8 -4 -15 -10 -15 -11 0 -14 43 -3 53 11 12 18 8 48
-23z m295 -9 c0 -6 -4 -13 -10 -16 -5 -3 -10 -15 -10 -26 0 -10 -4 -19 -10
-19 -14 0 -13 43 2 58 14 14 28 16 28 3z m2975 -10 c3 -5 1 -12 -5 -16 -5 -3
-10 1 -10 9 0 18 6 21 15 7z m-2835 -21 c13 -8 13 -13 2 -30 -7 -12 -10 -30
-7 -41 4 -10 2 -19 -3 -19 -16 0 -23 30 -11 52 12 23 12 24 -21 37 l-25 10 25
0 c14 0 32 -4 40 -9z m-405 -14 c-32 -14 -41 -13 -30 3 3 6 18 11 33 11 l27
-1 -30 -13z m2499 -5 c3 -5 -6 -21 -20 -36 -17 -18 -23 -34 -19 -48 6 -21 5
-21 -9 -4 -8 11 -12 26 -9 35 4 10 2 13 -5 8 -6 -3 -13 -2 -17 3 -7 12 49 44
59 34 3 -4 6 -1 6 5 0 14 7 16 14 3z m140 -10 c3 -4 -3 -16 -14 -26 -11 -10
-20 -23 -20 -30 0 -6 -6 -12 -12 -13 -7 0 -23 -4 -34 -7 -19 -6 -21 -3 -17 19
5 23 19 31 45 27 4 0 10 8 13 19 6 20 30 27 39 11z m-667 -33 c-3 -7 -5 -2 -5
12 0 14 2 19 5 13 2 -7 2 -19 0 -25z m750 -4 c3 -28 2 -28 -12 -10 -18 23 -20
49 -3 44 6 -2 13 -17 15 -34z m-2071 -9 c10 -8 14 -15 8 -15 -5 0 -19 7 -30
15 -10 8 -14 15 -8 15 5 0 19 -7 30 -15z m1321 -102 c-2 -21 -4 -6 -4 32 0 39
2 55 4 38 2 -18 2 -50 0 -70z m873 78 c0 -5 -11 -8 -25 -8 -14 0 -25 3 -25 8
0 5 11 9 25 9 14 0 25 -4 25 -9z m-2240 -35 c0 -5 -7 -3 -15 4 -8 7 -12 17 -9
22 7 10 24 -9 24 -26z m2134 17 c4 -9 3 -20 -3 -26 -5 -5 -6 -17 -4 -28 4 -15
14 -19 44 -19 36 0 39 -2 39 -29 0 -16 -6 -31 -12 -33 -10 -4 -9 -8 2 -19 23
-21 76 -49 93 -49 17 0 32 -18 23 -27 -3 -3 -14 0 -23 8 -15 11 -16 11 -5 -1
20 -23 14 -30 -24 -30 -32 0 -35 -2 -24 -15 11 -13 15 -13 21 -3 7 10 9 9 9
-3 0 -8 20 -30 45 -48 25 -18 45 -27 45 -21 0 8 11 10 34 6 20 -4 37 -2 41 4
3 6 -3 10 -16 10 -27 0 -48 27 -49 61 0 14 -11 38 -25 53 -31 34 -31 36 3 36
21 0 32 7 41 26 6 14 9 30 6 35 -4 5 5 13 19 19 20 7 26 17 26 39 0 21 6 32
21 36 26 9 38 -3 41 -38 1 -16 8 -27 18 -27 12 -1 11 -4 -4 -15 -17 -13 -17
-15 -3 -21 10 -3 17 -14 18 -23 0 -9 9 7 19 34 10 28 19 42 19 32 1 -14 6 -17
22 -12 13 4 28 0 40 -11 13 -12 32 -17 55 -15 19 1 34 -2 34 -8 0 -6 11 -11
24 -11 29 0 46 -19 19 -21 -10 -1 -24 -1 -30 0 -9 1 -13 -13 -13 -44 0 -25 -4
-45 -10 -45 -5 0 -10 10 -10 21 0 21 -1 21 -26 4 -22 -14 -28 -15 -35 -4 -15
25 -21 0 -8 -30 15 -32 24 -38 34 -21 4 6 11 8 16 4 6 -4 6 -11 -2 -20 -6 -8
-10 -16 -8 -17 2 -2 16 -11 32 -20 44 -28 31 -38 -17 -12 -32 17 -47 20 -55
12 -6 -6 -14 -7 -18 -3 -4 4 -1 11 6 16 12 7 11 15 -2 49 -9 22 -14 47 -11 56
8 19 -10 20 -26 0 -14 -17 -80 -21 -80 -5 0 6 9 10 20 10 11 0 20 4 20 8 0 5
-6 9 -12 9 -7 0 -23 3 -35 7 -14 5 -23 3 -23 -3 0 -6 -12 -11 -26 -11 -16 0
-24 5 -21 13 2 6 10 11 16 9 8 -1 10 8 7 25 -2 16 -5 31 -5 36 -3 21 -20 2
-25 -28 -4 -20 -11 -33 -17 -30 -5 4 -9 -1 -9 -9 0 -10 -6 -13 -15 -9 -13 5
-14 2 -4 -21 13 -28 49 -36 49 -11 0 8 5 15 10 15 6 0 10 -7 10 -15 0 -8 8
-14 18 -13 51 4 102 -4 121 -20 28 -21 31 -75 7 -101 -17 -19 -16 -20 29 -27
27 -4 56 -2 69 4 24 11 149 -7 164 -23 7 -7 -57 -1 -104 11 -21 5 -21 2 -28
-178 -10 -247 -9 -238 -24 -247 -21 -12 -6 -169 18 -196 10 -11 20 -31 22 -45
3 -22 7 -25 38 -22 31 2 38 -2 58 -33 12 -20 27 -33 31 -30 5 2 11 -1 14 -9 4
-9 19 -12 54 -9 26 3 67 0 91 -6 34 -10 42 -16 42 -34 0 -13 5 -28 12 -35 15
-15 55 -16 64 -1 3 6 15 9 25 6 16 -4 19 1 19 38 l0 43 39 -5 c34 -5 39 -3 44
18 4 13 7 36 7 52 0 25 -3 27 -40 27 -22 0 -40 5 -40 10 0 6 19 10 42 10 30 0
39 3 31 11 -6 6 -57 11 -117 12 -58 1 -106 5 -106 10 0 4 11 7 25 7 18 0 25 5
25 20 0 16 -4 18 -23 11 -25 -10 -64 6 -39 16 6 2 12 9 12 14 0 13 -44 11 -57
-2 -7 -7 -12 -6 -16 4 -8 21 31 29 107 21 53 -5 64 -4 69 10 4 9 12 16 19 16
9 0 9 -3 0 -12 -17 -17 -15 -28 7 -28 14 0 21 -10 25 -35 4 -19 9 -35 11 -35
2 0 11 -3 19 -6 12 -5 15 -2 10 10 -7 19 7 21 24 4 9 -9 11 3 11 50 -1 39 -5
62 -13 62 -6 0 -6 4 3 9 11 7 10 10 -3 18 -9 5 -18 22 -19 38 -1 22 4 32 23
42 14 7 22 13 18 13 -3 0 -13 3 -21 6 -18 6 -57 -56 -57 -91 0 -13 -4 -27 -10
-30 -17 -10 -11 38 9 77 10 20 15 40 10 45 -4 4 -4 14 0 22 7 10 13 11 31 1
12 -7 35 -9 51 -6 33 6 36 -4 15 -46 -8 -15 -12 -37 -9 -49 4 -12 0 -25 -8
-30 -11 -7 -9 -9 6 -9 16 0 20 -6 19 -30 -3 -55 -4 -60 -18 -60 -8 0 -12 -8
-9 -23 4 -19 10 -23 34 -19 28 4 29 6 29 57 0 64 13 104 41 123 12 8 29 28 40
46 14 23 19 26 19 12 0 -10 -18 -38 -40 -62 -39 -43 -40 -45 -40 -119 l0 -75
-40 0 c-35 0 -40 -3 -40 -22 -1 -13 -2 -44 -4 -70 -3 -39 -1 -47 15 -51 12 -3
19 0 19 8 0 8 12 13 35 12 19 -1 35 -4 35 -8 0 -3 11 -4 25 -1 27 5 35 32 10
32 -8 0 -15 -4 -15 -10 0 -5 -4 -10 -10 -10 -20 0 -9 21 15 30 21 8 25 16 25
50 0 38 -1 40 -25 34 -14 -3 -25 -2 -25 4 0 14 59 21 68 8 3 -6 5 -19 3 -30
-1 -10 3 -23 11 -28 10 -7 9 -8 -4 -4 -10 3 -18 1 -18 -4 0 -5 8 -17 18 -26
15 -16 15 -17 0 -12 -14 6 -16 1 -14 -32 1 -22 5 -43 9 -46 4 -4 4 -11 1 -15
-10 -16 -24 -9 -36 16 -14 30 -28 33 -28 5 0 -22 -1 -23 -25 -14 -12 5 -13 9
-5 14 7 4 9 13 6 19 -10 15 -43 14 -48 -1 -3 -7 -18 -11 -36 -10 -25 2 -30 -1
-26 -13 4 -10 0 -15 -10 -15 -9 0 -16 6 -16 13 0 7 -9 13 -20 14 -21 2 -24 -9
-20 -94 1 -25 -3 -43 -9 -43 -6 0 -11 15 -11 34 l0 33 -57 -1 c-54 -1 -58 1
-72 29 -19 40 -23 42 -87 44 l-55 2 3 -33 c2 -28 8 -34 31 -36 15 -2 25 -8 21
-13 -3 -5 -10 -7 -15 -3 -12 7 -99 8 -105 1 -3 -3 2 -21 10 -41 14 -35 17 -36
68 -37 l53 -1 -43 -11 c-38 -9 -43 -13 -37 -31 4 -12 12 -43 18 -69 11 -45 13
-48 38 -43 14 3 32 0 39 -7 10 -9 14 -9 17 1 6 14 43 16 43 2 0 -5 -6 -10 -12
-10 -10 0 -9 -3 1 -9 7 -5 10 -14 7 -20 -4 -6 -4 -20 -1 -31 5 -15 15 -20 42
-20 27 0 33 -3 25 -12 -13 -16 -9 -97 5 -123 11 -19 12 -19 22 5 6 16 10 19
10 8 1 -26 21 -32 36 -12 15 20 15 22 19 -61 1 -13 8 -20 21 -21 38 -2 40 -4
11 -19 -34 -18 -42 -14 -51 25 -5 24 -12 30 -33 31 -34 2 -34 2 -53 -6 -9 -3
-24 1 -33 10 -15 15 -16 15 -16 -4 0 -12 -6 -21 -16 -21 -8 0 -12 -5 -9 -10 4
-6 4 -18 0 -28 -5 -14 -7 -14 -15 -2 -7 10 -10 -3 -10 -42 0 -54 1 -57 28 -61
25 -4 25 -4 -5 -6 -29 -1 -33 -4 -33 -30 0 -27 4 -29 46 -36 47 -7 63 -19 113
-85 22 -29 22 -34 11 -75 -7 -25 -19 -50 -26 -56 -23 -19 -16 -80 16 -136 36
-63 46 -68 133 -77 l67 -7 0 41 0 40 -87 2 -88 2 88 3 87 4 0 204 0 205 -112
2 -113 2 113 3 112 4 1 62 c1 34 0 77 -1 95 -1 17 3 32 9 32 8 0 11 -110 11
-360 0 -198 4 -360 8 -360 4 0 24 16 43 36 35 36 106 80 123 75 6 -1 20 3 33
10 18 10 34 10 76 0 49 -11 53 -11 70 10 10 12 22 29 27 38 5 9 11 13 14 10 3
-3 -6 -22 -20 -43 l-26 -37 -64 6 c-38 5 -69 3 -77 -3 -6 -5 -29 -12 -50 -16
-25 -5 -53 -22 -84 -52 -26 -24 -53 -44 -60 -44 -9 0 -13 -18 -13 -65 l0 -65
88 -1 c100 -1 78 -16 -25 -18 l-63 -1 0 -97 c0 -124 7 -133 101 -133 66 0 68
-1 71 -27 3 -27 5 -28 49 -25 l46 4 13 -45 c7 -25 10 -51 7 -59 -2 -7 -10 8
-17 34 -13 49 -25 60 -59 51 -16 -4 -21 -13 -21 -37 0 -18 -5 -37 -12 -44 -9
-9 -8 -12 5 -12 21 0 22 -29 1 -37 -8 -3 -20 -1 -27 6 -19 19 -28 12 -21 -15
5 -18 1 -29 -12 -39 -17 -12 -20 -11 -31 8 -18 33 -16 47 10 48 12 0 16 3 10
6 -7 2 -13 16 -13 29 0 14 -4 23 -9 19 -5 -3 -12 -1 -16 4 -5 9 -42 -1 -64
-16 -2 -1 11 -16 28 -34 18 -17 30 -34 27 -36 -3 -3 -1 -16 4 -29 8 -20 6 -24
-10 -24 -11 0 -20 -7 -20 -15 0 -8 5 -15 12 -15 6 0 9 -3 5 -6 -7 -7 17 -34
29 -34 5 0 3 5 -4 12 -18 18 -16 44 2 29 10 -9 16 -8 26 4 7 8 21 15 31 15 10
0 20 4 24 9 3 5 20 7 38 4 17 -2 45 -4 61 -4 44 2 62 -7 63 -31 1 -13 7 -24
13 -26 16 -6 12 -32 -5 -32 -8 0 -15 -4 -15 -10 0 -5 -11 -10 -24 -10 -14 0
-28 5 -31 10 -12 19 -26 11 -16 -8 7 -14 5 -23 -10 -35 -18 -16 -19 -16 -19 8
0 29 -19 43 -32 24 -7 -11 -11 -11 -15 -1 -2 6 -11 12 -19 12 -8 0 -14 8 -14
18 0 10 -5 23 -12 30 -9 9 -9 12 0 12 7 0 12 -5 12 -11 0 -5 5 -7 10 -4 6 3
10 -3 10 -14 0 -16 6 -19 33 -18 37 3 57 13 57 30 0 9 -3 8 -8 -1 -5 -7 -19
-10 -33 -8 -13 3 -28 5 -32 5 -5 1 -5 5 -2 11 3 5 26 8 50 7 25 -1 45 1 45 5
0 4 7 8 17 8 9 0 14 2 11 5 -10 10 -119 14 -136 5 -10 -5 -25 -11 -34 -14 -10
-3 -18 -14 -18 -25 0 -27 -59 -41 -72 -17 -13 23 -35 20 -50 -7 -7 -12 -12
-25 -13 -29 0 -4 -9 -13 -19 -21 -14 -10 -16 -16 -7 -21 9 -6 7 -12 -6 -22
-24 -18 -38 -18 -23 1 10 12 9 15 -4 15 -15 0 -14 3 4 22 11 12 20 26 20 30 0
5 5 6 10 3 7 -4 9 2 4 19 -4 17 -2 26 6 26 6 0 8 5 4 11 -5 8 4 10 30 7 21 -2
36 0 36 7 0 6 -16 10 -35 9 -34 -2 -46 8 -25 21 6 3 10 2 10 -3 0 -17 45 -1
62 23 17 22 17 24 -3 49 -22 28 -43 27 -32 -1 5 -12 2 -15 -10 -10 -10 4 -21
-2 -30 -16 -26 -39 -55 -68 -60 -60 -3 4 -2 22 0 40 3 21 12 33 27 37 19 6 19
7 4 16 -10 6 -15 17 -11 26 5 13 -4 15 -58 12 -55 -3 -64 -6 -67 -23 -9 -51
-24 -95 -32 -95 -5 0 -7 7 -4 15 9 22 -9 18 -24 -6 -8 -12 -19 -18 -28 -15
-12 5 -12 0 2 -25 10 -19 12 -35 6 -41 -16 -16 -33 18 -35 71 -2 46 -4 50 -22
45 -35 -11 -38 -21 -15 -52 22 -30 22 -32 6 -57 -20 -31 -16 -60 15 -98 24
-32 42 -35 37 -7 -2 10 0 19 5 20 22 1 28 -1 23 -9 -3 -4 6 -13 20 -19 36 -17
46 14 13 39 -15 12 -19 19 -10 19 8 0 25 -10 38 -22 20 -19 25 -20 33 -8 8 12
10 9 10 -10 0 -18 3 -21 9 -11 7 11 11 10 20 -7 14 -26 14 -32 0 -32 -5 0 -7
6 -3 13 5 8 2 8 -9 -2 -22 -17 -22 -31 0 -31 13 0 14 -3 5 -12 -7 -7 -12 -20
-12 -30 0 -23 40 -24 100 -3 48 17 60 18 60 8 0 -8 -105 -44 -127 -43 -7 0
-13 -4 -13 -10 0 -5 5 -10 11 -10 6 0 17 -7 25 -15 14 -13 14 -15 0 -15 -20 0
-31 -20 -16 -30 7 -4 10 -15 7 -24 -3 -8 -2 -18 3 -21 6 -4 10 -12 10 -18 0
-7 -12 1 -26 17 -15 17 -24 37 -21 47 4 14 0 19 -13 19 -23 0 -30 -28 -15 -55
17 -29 13 -58 -8 -61 -24 -3 -77 103 -58 116 7 4 12 10 12 14 -3 23 0 30 9 16
7 -11 10 -7 10 18 0 17 -4 32 -8 32 -5 0 -21 18 -38 40 -35 48 -46 51 -33 8 5
-18 9 -46 9 -62 l0 -29 -105 6 c-89 5 -107 3 -121 -11 -23 -23 -44 -24 -44 -2
0 10 -5 22 -11 25 -19 12 -21 -2 -5 -34 9 -17 16 -34 16 -38 0 -5 23 -9 52
-10 28 -2 56 -7 61 -12 13 -13 -2 -34 -19 -27 -8 3 -14 1 -14 -4 0 -6 5 -10
10 -10 6 0 10 -4 10 -10 0 -5 -10 -10 -21 -10 -17 0 -20 5 -16 20 4 17 2 20
-14 15 -10 -4 -19 -2 -19 4 0 5 -12 11 -27 13 -22 2 -29 10 -36 41 -8 33 -13
37 -39 37 -25 0 -28 2 -18 14 6 8 18 12 26 9 10 -3 14 2 13 18 0 13 -3 19 -5
12 -3 -7 -12 -9 -20 -6 -11 4 -12 8 -4 13 9 6 9 12 -1 28 -10 17 -10 23 4 36
8 9 27 16 40 16 14 0 27 4 29 10 2 6 8 6 18 0 13 -9 13 -11 0 -20 -12 -8 -11
-10 8 -10 20 0 22 5 24 68 1 37 1 77 0 89 0 14 5 23 14 23 8 0 14 -5 14 -11 0
-5 5 -7 10 -4 25 15 3 42 -40 50 -3 0 -22 7 -42 15 -39 14 -47 25 -26 32 7 3
6 7 -5 11 -9 3 -17 2 -17 -3 0 -6 -9 -10 -20 -10 -11 0 -20 -7 -20 -16 0 -8
-5 -12 -11 -9 -7 5 -9 -8 -7 -37 3 -39 6 -44 37 -54 34 -11 34 -11 8 -16 -18
-3 -33 1 -48 15 -19 18 -21 27 -16 81 5 51 2 65 -14 85 -17 21 -22 22 -29 11
-5 -8 -7 -26 -4 -40 5 -24 5 -24 -11 -5 -8 11 -13 26 -10 33 3 8 5 20 5 28 0
24 34 16 63 -15 15 -16 27 -34 27 -40 0 -6 5 -11 10 -11 6 0 10 7 10 16 0 8 4
12 10 9 6 -3 7 1 4 9 -3 9 -10 16 -15 16 -4 0 -14 12 -21 28 -10 19 -21 26
-36 25 -14 -2 -22 3 -22 12 0 10 -10 15 -31 15 -18 0 -28 4 -24 10 3 6 -1 13
-10 16 -8 4 -14 13 -13 22 2 8 -3 17 -9 19 -7 3 -13 0 -13 -6 0 -6 -4 -11 -10
-11 -5 0 -10 7 -10 15 0 20 -36 20 -44 0 -3 -8 -1 -15 4 -15 6 0 10 -4 10 -10
0 -5 -7 -10 -15 -10 -8 0 -15 7 -15 15 0 8 -9 15 -20 15 -18 0 -19 3 -10 20 9
17 8 20 -12 17 -17 -1 -24 4 -26 21 -2 12 -7 22 -12 22 -24 0 -58 -21 -62 -38
-8 -29 7 -97 20 -94 15 3 16 -32 2 -59 -10 -18 -7 -19 40 -19 48 0 50 -1 44
-24 -4 -18 1 -28 24 -45 37 -26 49 -26 57 -1 8 26 -1 40 -28 41 l-22 0 23 11
c12 6 22 17 22 25 0 7 5 13 10 13 6 0 10 -12 10 -27 1 -97 8 -154 20 -168 12
-15 12 -16 -6 -13 -16 2 -19 -2 -16 -29 2 -24 -1 -33 -12 -33 -10 0 -13 6 -9
15 3 9 2 15 -3 13 -5 -1 -19 3 -31 10 -20 11 -21 10 -18 -8 2 -11 0 -20 -6
-20 -5 0 -9 5 -9 11 0 5 -5 7 -11 4 -5 -4 -22 -4 -37 0 -24 6 -25 7 -8 17 14
8 21 7 27 -3 4 -7 11 -10 14 -7 13 13 -7 28 -36 28 -26 0 -29 -3 -30 -32 l-1
-33 -12 37 c-14 46 -26 59 -26 27 l0 -23 -17 24 c-9 14 -22 28 -27 32 -7 5 -5
8 4 8 12 1 12 3 -2 14 -21 16 -23 37 -5 55 10 10 6 17 -18 37 -55 44 -63 34
-66 -86 -2 -68 -4 -80 -18 -78 -9 2 -17 11 -19 21 -2 12 1 15 12 11 20 -8 23
32 4 39 -10 4 -9 8 2 16 13 10 13 12 0 21 -10 6 -11 10 -3 10 9 0 12 14 11 40
-1 22 -6 40 -12 40 -6 0 -5 5 2 12 17 17 15 28 -7 28 -11 0 -23 5 -26 10 -3 6
3 10 14 10 15 0 19 5 14 16 -4 12 -1 15 13 12 14 -2 20 -13 22 -41 4 -42 23
-46 32 -6 l6 24 10 -27 c7 -22 12 -25 24 -17 11 8 12 12 3 16 -7 2 -13 13 -13
24 0 13 -7 19 -23 19 -34 0 -38 9 -17 33 15 15 17 24 9 38 -12 23 -23 24 -44
3 -16 -16 -45 -13 -45 6 0 6 -7 5 -20 -2 -24 -15 -27 -33 -4 -24 19 7 66 -3
59 -13 -2 -4 -23 -7 -47 -6 -24 0 -45 -3 -48 -7 -4 -4 -16 -1 -28 8 -24 17
-31 74 -9 74 7 1 5 6 -5 14 -24 18 -26 187 -3 206 13 11 13 14 0 27 -12 11
-15 47 -15 173 0 117 -3 160 -12 163 -7 3 -3 6 8 6 12 1 48 -15 80 -34 67 -41
74 -42 74 -15 0 28 35 26 72 -5 38 -32 56 -32 68 1 12 29 0 50 -35 64 -19 8
-19 9 3 9 12 1 22 6 22 11 0 6 5 10 11 10 5 0 7 -5 4 -10 -4 -6 -4 -18 0 -28
5 -14 7 -14 15 -2 5 8 12 11 17 7 4 -4 2 -17 -5 -28 -15 -24 -24 -82 -12 -74
5 3 11 1 15 -5 4 -6 -9 -10 -33 -10 -36 0 -46 5 -99 50 -18 15 -21 13 -28 -21
-7 -29 -8 -30 -31 -15 -22 15 -24 15 -34 -4 -6 -11 -16 -20 -22 -20 -6 0 -4
10 6 25 15 23 15 25 -9 41 -14 9 -29 13 -33 9 -4 -4 -1 -10 6 -12 6 -3 12 -10
12 -16 0 -8 -4 -7 -12 1 -27 27 -38 13 -38 -45 0 -55 1 -58 25 -59 18 -1 25 3
25 16 0 11 5 22 10 25 6 3 10 -1 10 -9 0 -22 36 -20 45 2 6 16 7 16 16 -1 6
-9 7 -22 4 -27 -3 -6 -1 -10 4 -10 6 0 11 -4 11 -10 0 -6 -31 -10 -72 -11 -60
0 -69 -2 -50 -11 12 -6 22 -15 22 -20 0 -12 -24 -10 -39 5 -11 10 -12 2 -9
-44 4 -55 17 -79 48 -92 10 -4 8 -6 -7 -6 -31 -1 -45 -32 -41 -94 l3 -52 58
-3 c39 -2 57 0 52 7 -3 6 -1 11 4 11 6 0 11 -4 11 -10 0 -5 7 -10 15 -10 8 0
15 -7 15 -16 0 -11 5 -14 16 -10 9 3 20 6 25 6 5 0 9 43 9 95 0 83 2 95 17 95
13 0 14 -3 5 -12 -14 -14 -16 -124 -3 -132 9 -6 7 -48 -4 -65 -3 -6 -2 -11 3
-11 5 0 12 9 15 20 4 15 10 18 24 13 16 -6 16 -5 4 10 -7 9 -9 17 -3 17 5 0
15 -7 22 -16 11 -12 25 -14 68 -8 51 6 55 5 48 -12 -6 -15 -5 -17 5 -6 15 14
49 16 49 2 0 -5 -8 -10 -17 -11 -13 0 -11 -3 6 -10 13 -5 25 -8 26 -7 1 2 8
12 14 23 11 18 12 17 7 -12 -5 -31 -5 -31 44 -38 55 -8 71 -20 38 -28 -18 -5
-19 -8 -8 -21 16 -20 30 -20 30 -1 0 8 7 15 15 15 8 0 19 9 25 20 10 19 8 20
-47 20 -47 1 -54 3 -39 11 10 6 39 9 64 6 36 -4 52 -12 71 -36 14 -17 31 -31
36 -31 16 -1 65 -76 65 -102 0 -18 6 -23 27 -25 15 0 34 -11 44 -24 10 -13 21
-20 25 -16 7 7 4 21 -21 80 -4 9 -3 17 2 17 14 0 33 -46 33 -78 0 -44 14 -56
30 -27 10 19 11 31 3 43 -7 13 -7 21 3 30 11 10 15 8 24 -8 8 -15 8 -20 -2
-20 -9 0 -9 -3 0 -12 9 -9 18 -9 38 1 21 9 25 17 21 37 -3 18 -1 24 9 20 7 -3
16 -1 19 5 4 5 -2 12 -11 16 -16 6 -16 7 2 14 18 7 18 8 -2 8 -12 1 -26 11
-32 26 -12 26 -32 34 -32 13 0 -6 -3 -8 -7 -4 -4 4 -8 17 -8 29 0 18 -5 22
-30 20 -19 -1 -22 0 -10 4 25 7 35 22 34 53 0 14 -3 19 -6 12 -9 -23 -34 7
-27 33 4 18 -4 33 -35 64 -23 23 -41 46 -41 51 0 6 -4 10 -10 10 -5 0 -10 12
-10 26 0 19 4 25 15 20 19 -7 19 4 0 30 -8 12 -17 51 -21 88 -4 36 -8 66 -10
66 -1 0 -19 -9 -38 -21 -20 -11 -41 -19 -48 -16 -7 2 3 12 22 21 l36 18 -33
35 c-36 38 -41 62 -19 96 14 21 13 23 -20 45 -33 22 -39 19 -35 -15 1 -7 -12
-19 -28 -28 -23 -11 -63 -15 -171 -15 -87 0 -140 4 -140 10 0 6 55 10 144 10
158 0 176 3 176 30 0 32 11 50 31 50 10 0 19 -6 19 -13 0 -8 11 -19 24 -25 20
-9 27 -7 43 10 10 11 28 24 41 29 31 12 28 45 -9 86 -29 33 -29 36 -14 59 8
13 13 24 9 24 -3 0 18 28 47 62 34 38 53 69 51 81 -2 11 1 17 6 13 15 -9 28
182 13 197 -6 6 -11 19 -11 29 0 20 -26 25 -32 7 -3 -9 -10 -9 -26 0 -27 14
-29 35 -3 26 10 -3 29 -1 42 4 16 6 18 10 7 10 -12 1 -15 7 -10 24 5 21 5 21
-12 5 -19 -20 -76 -25 -76 -7 0 6 -6 9 -12 6 -7 -2 -21 3 -32 12 -17 15 -20
14 -47 -18 -17 -20 -33 -56 -39 -88 -6 -29 -15 -51 -20 -48 -4 3 -10 -2 -14
-10 -3 -8 -1 -17 4 -20 6 -4 10 -13 10 -21 0 -11 -6 -13 -21 -9 -15 5 -19 4
-14 -5 5 -8 1 -11 -11 -8 -21 4 -31 62 -14 83 8 10 8 19 -2 34 -18 29 -31 26
-25 -6 8 -42 0 -52 -39 -46 -68 11 -84 -39 -23 -70 31 -15 36 -23 34 -47 -1
-16 -8 -36 -15 -45 -14 -17 -50 -21 -50 -5 0 6 9 10 19 10 11 0 23 5 27 11 4
7 -3 10 -17 9 -45 -4 -69 0 -69 11 0 6 11 8 28 5 15 -3 34 -2 41 3 12 8 11 13
-10 30 -13 11 -30 20 -36 21 -7 0 -13 11 -13 25 0 28 38 68 57 61 10 -4 13 8
13 43 l0 49 -75 -1 c-72 -2 -75 -1 -75 21 0 20 -4 22 -60 22 -35 0 -60 4 -60
10 0 7 20 9 60 4 53 -6 60 -5 60 11 0 13 -6 16 -25 13 -17 -4 -25 -1 -25 8 0
18 -30 18 -56 -1 -12 -8 -25 -11 -29 -7 -3 4 -18 7 -31 7 -20 1 -24 -4 -24
-26 0 -32 -10 -36 -75 -28 -38 4 -43 7 -20 9 17 2 37 4 45 5 8 1 20 3 26 4 6
0 9 12 6 26 -3 18 -14 27 -40 34 -51 15 -72 0 -72 -50 0 -26 -4 -38 -11 -34
-6 4 -7 19 -4 36 4 16 4 43 0 59 l-7 30 -78 0 c-44 0 -82 5 -85 10 -5 7 22 10
82 8 80 -3 89 -5 98 -25 7 -17 15 -21 30 -17 28 9 29 12 16 28 -12 14 -46 28
-102 40 -15 3 -45 21 -66 39 -33 27 -39 37 -32 55 9 24 1 31 -63 51 -45 15
-61 32 -51 57 6 17 8 16 13 -6 4 -19 15 -27 46 -35 23 -5 49 -17 60 -25 10 -8
3 5 -16 30 -31 40 -35 42 -38 22 -4 -28 -22 -19 -22 11 0 28 -39 55 -51 36 -6
-11 -11 -11 -21 -1 -9 9 -9 15 0 24 7 7 12 23 12 38 0 19 -11 32 -50 55 -28
16 -50 33 -50 37 0 15 16 8 56 -22 21 -16 45 -30 52 -30 7 0 12 -13 12 -30 0
-32 9 -37 28 -18 25 25 13 47 -38 73 -37 19 -59 39 -81 75 -17 28 -34 50 -39
50 -4 0 -10 9 -13 20 -6 23 -42 27 -51 5 -3 -8 3 -19 12 -25 14 -9 11 -10 -15
-6 -19 3 -33 1 -33 -4 0 -6 -5 -10 -12 -10 -9 0 -9 3 -1 11 13 13 6 42 -8 33
-5 -3 -7 -10 -4 -15 4 -5 -1 -9 -9 -9 -11 0 -16 -9 -16 -29 0 -44 30 -61 96
-54 38 4 54 2 54 -6 0 -8 -20 -11 -67 -9 -58 3 -71 0 -86 -17 l-19 -20 8 20
c8 23 8 35 -2 93 -6 39 -24 60 -24 27 0 -11 -12 -14 -52 -12 -29 2 -58 -1 -65
-6 -7 -5 -28 -9 -48 -10 -24 -1 -35 -6 -36 -16 -1 -12 -3 -11 -6 2 -7 26 -27
15 -33 -19 -6 -29 -6 -29 -13 -4 -3 14 -2 27 4 31 6 3 11 10 12 15 1 5 25 9
52 9 47 0 50 2 53 26 2 15 12 35 23 45 35 32 24 44 -41 44 -45 0 -60 4 -60 14
0 17 -21 26 -63 27 -18 0 -26 3 -19 6 6 2 12 12 12 20 0 13 -3 13 -15 3 -10
-8 -15 -9 -15 -2 0 6 7 15 16 20 9 5 17 21 17 35 0 17 4 24 13 20 16 -6 19 13
4 22 -16 10 -11 28 6 21 13 -5 15 -1 12 21 -3 16 -9 37 -13 47 -7 15 -5 17 6
10 19 -12 39 -14 39 -4 0 11 -20 24 -45 27 -28 5 -34 14 -40 60 -4 31 -1 42
11 47 8 3 12 11 8 17 -4 8 -9 7 -15 -2 -6 -9 -9 5 -9 38 0 64 20 93 66 93 17
0 37 -7 44 -15 8 -9 9 -15 2 -15 -6 0 -14 5 -17 10 -11 18 -25 10 -25 -14 0
-26 29 -44 41 -25 4 7 16 9 27 7 17 -5 22 -1 24 20 2 14 9 28 17 30 11 4 12 0
6 -14 -4 -11 -10 -35 -12 -54 l-4 -35 20 25 20 25 10 -27 c5 -14 14 -29 20
-33 7 -3 8 0 5 9 -5 12 1 14 29 9 29 -4 36 -2 42 16 7 22 -23 73 -40 67 -10
-3 -35 17 -35 28 0 17 41 3 59 -20 11 -14 23 -25 28 -26 4 0 18 -4 31 -9 17
-7 22 -5 22 7 0 8 5 12 10 9 22 -13 9 -34 -22 -37 l-33 -3 49 -23 c66 -30 80
-28 117 18 19 24 36 37 42 31 5 -5 -2 -20 -17 -36 -14 -15 -26 -33 -26 -39 0
-7 -14 -17 -31 -23 -17 -7 -28 -17 -24 -23 6 -9 -16 -40 -29 -40 -12 0 -5 39
9 54 14 13 10 17 -31 35 -60 27 -68 26 -60 -4 5 -20 0 -31 -20 -50 -15 -14
-29 -23 -32 -21 -2 3 -21 -4 -42 -15 -21 -11 -48 -21 -59 -22 -25 -2 -26 -10
-5 -32 10 -9 14 -26 11 -40 -3 -19 0 -25 14 -25 12 0 16 5 13 15 -4 8 -1 15 5
15 6 0 11 -2 11 -4 0 -2 3 -11 6 -19 4 -11 -4 -17 -25 -22 -25 -5 -31 -12 -31
-32 0 -26 3 -27 55 -8 17 6 17 4 -4 -14 -13 -12 -29 -21 -37 -21 -19 0 -18
-26 1 -34 9 -3 21 -19 26 -35 10 -30 38 -44 59 -31 16 10 16 66 0 85 -11 13
-11 19 3 32 9 9 20 13 24 9 4 -4 1 -11 -7 -16 -12 -7 -11 -12 4 -29 10 -11 16
-27 13 -35 -4 -9 0 -19 8 -23 7 -5 15 -26 17 -47 2 -23 10 -43 20 -50 25 -15
33 0 14 28 -9 15 -12 27 -6 31 14 9 12 42 -2 48 -10 3 -10 7 -1 17 17 18 41
-34 27 -58 -24 -37 42 -97 75 -68 9 7 28 16 44 20 26 6 31 18 30 64 -1 6 4 12
11 12 16 0 38 39 30 52 -5 8 -10 5 -15 -8 -7 -19 -7 -19 -15 1 -4 11 -14 26
-21 33 -6 7 -9 20 -6 28 5 14 7 14 17 -2 12 -21 46 -31 46 -14 0 5 -7 10 -15
10 -10 0 -15 10 -15 30 0 26 -4 30 -27 30 l-28 0 25 13 c14 8 24 19 22 27 -2
8 3 10 13 7 8 -4 15 -2 15 3 0 18 25 11 38 -11 10 -16 20 -19 47 -15 40 7 52
-6 32 -34 -13 -19 -15 -19 -21 -4 -5 12 -14 15 -35 11 -18 -4 -37 0 -51 10
-23 16 -23 16 -16 -12 4 -16 16 -39 26 -52 22 -28 17 -55 -17 -101 -14 -19
-25 -48 -26 -67 -1 -30 -4 -34 -31 -37 -23 -2 -32 -9 -34 -25 -2 -13 1 -23 6
-23 5 0 22 -19 38 -42 16 -24 34 -48 39 -54 13 -14 76 -47 80 -42 5 5 -18 33
-43 50 -14 10 -19 19 -13 22 6 4 24 -6 40 -23 l29 -30 -4 62 c-3 34 -6 79 -8
100 -4 35 -3 37 24 35 29 -2 60 16 60 36 0 16 -67 57 -84 50 -8 -3 -17 -1 -21
5 -3 6 -1 11 6 11 7 0 4 7 -7 16 -19 15 -19 15 3 11 13 -3 24 1 27 9 6 16 36
19 36 3 0 -5 5 -7 10 -4 6 3 10 4 10 1 0 -2 3 -12 7 -21 5 -15 3 -16 -16 -6
-40 22 -45 5 -8 -23 20 -16 43 -26 51 -23 21 8 36 41 26 57 -7 12 -11 12 -26
0 -15 -13 -16 -12 -10 17 4 18 3 34 -3 38 -7 4 -6 14 4 29 15 22 12 56 -5 56
-14 0 -25 42 -25 99 0 53 -1 55 -37 75 -29 15 -35 22 -27 33 6 7 17 13 23 13
15 0 51 -38 59 -62 4 -11 17 -18 32 -18 14 0 25 -4 25 -9 0 -15 32 -22 45 -11
9 8 15 8 20 0 4 -7 13 -5 28 5 12 8 32 15 45 15 13 0 20 4 17 10 -3 6 2 10 12
10 10 0 26 6 35 14 20 15 41 64 32 77 -3 5 2 9 11 9 14 0 13 4 -5 27 -13 16
-17 29 -11 31 6 2 9 8 5 13 -3 5 0 9 5 9 6 0 11 5 11 10 0 6 -9 10 -20 10 -12
0 -20 7 -20 16 0 13 -3 14 -15 4 -8 -6 -19 -9 -25 -5 -6 4 -13 -6 -16 -24 -5
-26 -11 -31 -34 -31 -20 0 -27 5 -26 18 1 12 -5 16 -18 14 -17 -3 -18 -2 -6
13 9 11 22 14 40 10 37 -8 66 23 46 50 -14 19 -36 13 -36 -11 0 -9 -10 -14
-27 -14 -32 0 -48 -9 -49 -27 -1 -7 -2 -19 -2 -26 -4 -31 -69 -47 -192 -47
-66 0 -128 -4 -138 -9 -38 -19 -82 -29 -88 -20 -3 5 0 9 6 9 6 0 30 9 52 20
31 15 62 20 120 20 l77 0 10 33 c6 23 10 26 11 12 1 -11 2 -26 1 -32 -1 -8 10
-13 30 -13 31 0 32 0 14 20 -14 16 -16 24 -7 42 10 23 11 23 11 -4 1 -19 6
-28 17 -28 10 0 14 -6 11 -14 -9 -23 19 -8 37 19 18 27 20 36 9 34 -25 -4 -53
3 -53 12 0 7 11 8 31 4 23 -5 30 -4 24 5 -5 9 -2 10 11 6 26 -8 90 27 86 48
-2 9 2 16 8 16 5 0 10 5 10 10 0 6 -8 10 -19 10 -10 0 -33 6 -51 14 -29 12
-30 14 -11 19 11 3 24 1 27 -4 3 -5 14 -9 25 -9 18 0 23 10 20 38 -3 18 16 15
23 -5z m-2074 -15 c0 -19 -2 -20 -10 -8 -13 19 -13 30 0 30 6 0 10 -10 10 -22z
m2253 2 c-3 -11 -9 -20 -14 -20 -10 0 -12 24 -2 33 13 13 21 7 16 -13z m-2280
-20 c3 -11 1 -23 -4 -26 -5 -3 -9 6 -9 20 0 31 6 34 13 6z m1902 -9 c-8 -13
-55 -15 -55 -2 0 5 12 11 28 13 32 4 36 3 27 -11z m1450 0 c3 -5 1 -12 -5 -16
-5 -3 -10 1 -10 9 0 18 6 21 15 7z m-3294 -18 c12 -15 12 -16 -3 -11 -10 4
-19 1 -22 -8 -9 -23 -7 -36 3 -29 5 3 12 1 15 -4 3 -5 0 -11 -8 -14 -21 -8
-40 49 -23 68 16 19 22 18 38 -2z m2179 7 c0 -9 -32 -30 -46 -30 -4 0 1 9 11
20 19 21 35 26 35 10z m-2056 -39 c9 -22 26 -43 38 -47 16 -5 18 -8 7 -16 -11
-7 -9 -8 6 -5 11 2 19 9 18 15 -3 13 -1 14 37 17 24 2 25 0 21 -39 -3 -23 -6
-33 -9 -22 -3 16 -11 18 -58 14 -30 -3 -57 -1 -60 4 -3 4 0 8 5 8 18 0 12 19
-13 46 -21 23 -24 24 -30 8 -4 -11 -1 -21 9 -26 23 -13 19 -31 -4 -18 -11 5
-31 10 -45 10 -14 0 -26 5 -26 11 0 6 8 8 18 5 13 -4 18 -1 18 14 0 13 -7 20
-18 20 -10 0 -18 5 -18 10 0 16 27 12 46 -7 17 -17 17 -16 10 10 -5 22 -3 27
12 27 12 0 24 -14 36 -39z m2166 -15 c0 -9 -8 -12 -26 -8 -19 3 -22 7 -12 13
20 13 38 11 38 -5z m420 -7 c0 -11 -4 -18 -10 -14 -5 3 -7 12 -3 20 7 21 13
19 13 -6z m-2515 1 c3 -5 -3 -10 -14 -10 -12 0 -21 5 -21 10 0 6 6 10 14 10 8
0 18 -4 21 -10z m3043 3 c-10 -2 -28 -2 -40 0 -13 2 -5 4 17 4 22 1 32 -1 23
-4z m-1948 -44 c0 -5 -4 -9 -10 -9 -5 0 -10 7 -10 16 0 8 5 12 10 9 6 -3 10
-10 10 -16z m1990 6 c0 -8 6 -15 13 -16 10 0 10 -2 0 -6 -7 -2 -13 -11 -13
-19 0 -8 -4 -14 -10 -14 -5 0 -10 16 -10 35 0 19 5 35 10 35 6 0 10 -7 10 -15z
m-2840 -15 c22 -11 40 -25 40 -31 0 -5 13 -15 29 -22 32 -14 111 -82 111 -97
0 -5 11 -19 24 -32 26 -26 40 -58 26 -58 -6 0 -10 4 -10 9 0 5 -10 21 -22 36
-71 85 -95 108 -130 126 -22 11 -41 26 -44 34 -9 22 -59 38 -82 26 -26 -14
-72 -14 -72 -1 0 6 11 8 24 6 14 -2 33 2 43 9 23 18 17 18 63 -5z m-155 -29
c-3 -6 -11 -11 -17 -11 -6 0 -6 6 2 15 14 17 26 13 15 -4z m2985 -21 c9 -6 10
-10 3 -10 -6 0 -18 -3 -27 -6 -11 -4 -16 -1 -16 10 0 18 17 21 40 6z m-500
-51 c0 -17 -4 -28 -10 -24 -5 3 -10 17 -10 31 0 13 5 24 10 24 6 0 10 -14 10
-31z m188 -66 l-2 -98 -3 87 c-4 100 1 96 -113 101 -53 3 -47 4 28 5 l92 2 -2
-97z m178 49 c-12 -11 -18 7 -10 30 l8 23 4 -23 c2 -13 1 -26 -2 -30z m-1811
-2 c-19 -21 -37 -18 -28 5 3 8 14 15 26 15 19 0 19 -1 2 -20z m768 -5 c-3 -9
-8 -13 -11 -11 -3 3 -11 1 -19 -5 -10 -9 -13 -8 -13 3 0 20 10 28 31 28 12 0
16 -5 12 -15z m-403 -30 c0 -14 5 -25 10 -25 17 0 11 -17 -7 -24 -10 -3 -25
-9 -33 -13 -11 -5 -11 0 3 20 10 15 13 27 8 27 -5 0 -7 9 -4 20 7 28 23 25 23
-5z m-1090 -62 c0 -7 -4 -13 -10 -13 -5 0 -10 12 -10 28 0 21 2 24 10 12 5 -8
10 -21 10 -27z m1360 -13 c0 -5 -7 -10 -16 -10 -8 0 -12 5 -9 10 3 6 10 10 16
10 5 0 9 -4 9 -10z m1405 -29 c-2 -5 7 -21 21 -36 15 -17 24 -35 21 -46 -4
-16 -1 -18 19 -13 15 4 24 2 24 -5 0 -6 -8 -11 -17 -11 -21 0 -73 -49 -73 -69
0 -8 3 -11 6 -8 4 4 19 -2 34 -13 38 -27 40 -26 41 18 0 29 2 33 8 17 5 -11 7
-23 4 -27 -2 -4 3 -5 12 -2 10 4 15 14 12 25 -6 23 21 26 29 4 10 -24 24 -7
23 28 0 44 -22 103 -37 99 -7 -1 -15 5 -18 13 -4 10 -13 13 -25 10 -20 -7 -24
2 -11 22 5 9 16 6 40 -9 57 -36 62 -56 62 -264 -1 -182 -1 -188 -23 -203 -12
-9 -31 -19 -42 -23 -19 -6 -19 -6 2 -7 41 -2 55 -40 60 -168 l5 -117 -27 -22
-26 -21 25 -16 c24 -16 27 -47 5 -47 -4 0 -6 7 -3 15 6 16 -40 40 -57 30 -5
-3 -8 -77 -8 -165 0 -114 -3 -164 -13 -179 -8 -14 -9 -24 -3 -29 12 -8 18 -52
7 -52 -4 0 -15 9 -25 20 -9 11 -24 20 -32 20 -8 0 -15 9 -15 19 0 11 -4 23
-10 26 -25 15 -8 27 29 21 49 -7 47 -15 46 222 l0 182 22 0 c14 0 23 6 23 15
0 18 -46 21 -52 3 -3 -9 -9 -8 -21 4 -23 22 -21 38 3 38 11 0 20 -4 20 -10 0
-5 7 -10 15 -10 10 0 15 10 14 33 -1 17 -3 24 -6 15 -2 -10 -9 -18 -14 -18
-14 0 -11 28 5 37 15 9 28 63 15 63 -5 0 -9 -4 -9 -10 0 -5 -3 -10 -7 -10 -5
0 -8 84 -8 186 l0 187 -32 3 c-24 3 -33 0 -33 -11 0 -8 5 -15 10 -15 18 0 10
-18 -10 -23 -18 -5 -20 0 -20 44 0 53 -1 54 -30 39 -11 -6 -21 -6 -25 -1 -3 5
4 12 15 16 11 3 20 12 20 18 0 7 10 17 22 22 14 6 25 23 29 43 6 30 5 33 -12
29 -17 -5 -19 1 -19 45 0 31 4 47 10 43 6 -4 8 -10 5 -14z m-2654 -18 c13 -16
12 -17 -3 -4 -10 7 -18 15 -18 17 0 8 8 3 21 -13z m1064 -13 c3 -6 3 -19 0
-30 -6 -17 -15 -20 -76 -20 -39 0 -69 4 -69 10 0 6 31 10 73 11 39 0 66 3 60
6 -15 5 -18 33 -4 33 6 0 13 -5 16 -10z m1165 -30 c0 -5 -7 -10 -15 -10 -8 0
-15 5 -15 10 0 6 7 10 15 10 8 0 15 -4 15 -10z m-1880 -36 c0 -13 5 -24 10
-24 6 0 10 -9 10 -20 l0 -21 -22 21 c-12 11 -28 20 -35 20 -7 0 -13 5 -13 10
0 6 7 10 15 10 8 0 15 9 15 21 0 11 5 17 10 14 6 -3 10 -17 10 -31z m440 21
c7 -8 19 -15 27 -15 9 0 13 6 9 15 -3 8 -1 15 4 15 11 0 14 -43 4 -53 -4 -3
-15 -2 -26 4 -15 8 -23 6 -37 -10 -23 -26 -51 -30 -30 -4 12 15 12 16 -3 10
-14 -5 -18 -1 -18 20 0 26 1 26 15 7 12 -16 16 -17 24 -4 5 8 7 18 5 22 -9 14
13 8 26 -7z m1824 -31 c3 -9 -1 -25 -10 -37 -16 -22 -16 -22 -10 6 4 16 2 27
-4 27 -5 0 -10 5 -10 10 0 16 27 11 34 -6z m-2209 -14 c3 -5 1 -10 -4 -10 -6
0 -11 5 -11 10 0 6 2 10 4 10 3 0 8 -4 11 -10z m433 -27 c-5 -20 14 -52 28
-46 7 3 14 0 14 -6 0 -18 -38 -13 -49 7 -9 16 -11 16 -25 -3 -10 -13 -15 -15
-16 -7 0 9 -10 12 -32 10 -18 -3 -44 -1 -58 3 -24 7 -24 7 -2 8 12 1 22 6 22
12 0 5 5 7 10 4 6 -4 17 -2 24 4 10 8 17 7 26 -4 11 -14 14 -13 27 5 14 19 35
28 31 13z m1707 -44 c6 -19 0 -38 -9 -28 -10 12 -16 49 -7 49 5 0 13 -9 16
-21z m-5 -53 c0 -7 -7 -19 -15 -26 -16 -13 -20 -3 -9 24 8 20 24 21 24 2z
m-2215 -206 c3 -5 15 -10 26 -10 10 0 19 -4 19 -10 0 -5 -4 -10 -10 -10 -5 0
-10 -7 -10 -15 0 -8 -5 -15 -10 -15 -6 0 -10 6 -8 14 2 7 -8 23 -22 34 -20 17
-21 21 -8 22 9 0 20 -4 23 -10z m-18 -77 c-9 -8 -48 8 -42 18 4 5 14 5 26 -2
12 -6 18 -13 16 -16z m27 -70 c-10 -7 -15 -20 -11 -33 5 -18 1 -20 -38 -20
-40 0 -43 2 -38 23 10 45 11 47 58 45 39 -2 44 -4 29 -15z m-791 -10 c-90 -2
-236 -2 -325 0 -90 1 -17 3 162 3 179 0 252 -2 163 -3z m225 0 c-10 -2 -26 -2
-35 0 -10 3 -2 5 17 5 19 0 27 -2 18 -5z m-1371 -9 c-3 -3 -12 -4 -19 -1 -8 3
-5 6 6 6 11 1 17 -2 13 -5z m2408 -29 l60 -14 -58 3 c-32 1 -63 8 -69 14 -15
15 -7 15 67 -3z m1495 -15 c0 -5 -11 -10 -25 -10 -14 0 -25 5 -25 10 0 6 11
10 25 10 14 0 25 -4 25 -10z m45 0 c3 -5 -3 -10 -14 -10 -12 0 -21 5 -21 10 0
6 6 10 14 10 8 0 18 -4 21 -10z m-1640 -80 c5 -8 11 -8 19 -1 9 8 25 6 54 -7
37 -15 42 -21 42 -49 0 -35 -14 -51 -27 -30 -10 15 -63 50 -63 41 0 -4 -6 -1
-14 5 -10 9 -16 8 -26 -4 -7 -8 -9 -15 -4 -15 5 0 2 -5 -6 -10 -11 -7 -11 -10
-2 -10 7 0 11 -4 7 -10 -3 -5 -13 -6 -22 -3 -12 5 -14 3 -8 -7 4 -7 9 -29 11
-48 3 -42 21 -64 34 -42 8 13 10 13 10 -1 0 -15 -19 -29 -39 -29 -5 0 -13 24
-19 53 -6 28 -13 60 -17 69 -4 11 2 24 19 39 31 27 32 37 9 55 -16 12 -16 13
9 14 15 0 30 -5 33 -10z m250 -104 c9 -3 13 -10 10 -16 -4 -7 -12 -7 -25 0
-10 5 -29 10 -42 11 l-23 1 24 7 c22 6 22 7 7 20 -13 11 -14 16 -4 22 8 5 17
0 25 -15 7 -13 20 -26 28 -30z m-235 34 c0 -5 -4 -10 -10 -10 -5 0 -10 5 -10
10 0 6 5 10 10 10 6 0 10 -4 10 -10z m1850 -50 c0 -36 5 -52 18 -60 12 -8 13
-13 5 -16 -7 -3 -13 -11 -13 -18 0 -6 -10 -13 -22 -13 -14 -1 -18 1 -11 5 9 6
11 24 6 60 -3 28 -10 49 -14 46 -5 -3 -9 0 -9 5 0 6 5 11 10 11 6 0 10 7 10
15 0 8 5 15 10 15 6 0 10 -22 10 -50z m-1707 -5 c4 -22 4 -34 1 -27 -3 6 -19
12 -35 12 -16 0 -29 5 -29 11 0 6 9 9 20 6 14 -4 20 0 20 12 0 16 10 35 15 29
1 -2 5 -21 8 -43z m1247 -5 c0 -5 -4 -10 -10 -10 -5 0 -10 5 -10 10 0 6 5 10
10 10 6 0 10 -4 10 -10z m1470 -10 c0 -5 9 -6 20 -3 36 10 20 -30 -17 -41 -27
-9 -39 -46 -24 -74 21 -39 13 -175 -14 -250 -14 -38 -25 -81 -25 -94 0 -27 24
-53 55 -61 17 -4 16 -5 -4 -6 -14 0 -32 6 -40 13 -12 11 -29 13 -65 8 l-48 -7
-24 -65 c-16 -44 -34 -75 -58 -95 -25 -22 -39 -46 -51 -87 -23 -82 -41 -100
-104 -106 l-53 -5 6 -44 6 -44 -33 3 c-28 3 -32 7 -35 36 -2 17 -6 32 -8 32
-14 0 -51 -26 -67 -47 -28 -35 -33 -20 -6 16 12 16 35 35 51 42 24 10 29 17
25 36 -4 20 0 23 30 23 21 0 36 -6 39 -15 8 -19 87 -21 102 -2 6 7 20 42 31
77 15 47 30 73 55 95 25 21 43 50 58 95 18 50 28 66 48 71 14 4 18 8 10 8 -12
1 -12 4 3 15 17 14 23 36 9 36 -4 0 -8 15 -8 34 0 19 -6 42 -14 51 -25 30 -21
45 11 45 18 0 28 -4 24 -10 -3 -5 -1 -10 6 -10 7 0 4 -6 -6 -14 -18 -13 -18
-15 -2 -40 10 -14 23 -26 29 -26 6 0 4 -8 -6 -19 -16 -17 -16 -19 4 -24 14 -4
20 0 20 12 0 10 11 51 25 91 23 67 24 81 16 148 -10 82 -17 95 -35 69 -22 -28
-26 -20 -26 48 0 61 11 84 24 50 3 -8 12 -15 21 -15 11 0 14 8 11 34 -4 30 -2
33 15 29 10 -3 19 -9 19 -13z m-899 -7 c2 -19 2 -59 0 -80 -1 -7 -6 -13 -12
-13 -6 0 -8 8 -4 19 4 14 0 21 -15 26 -24 7 -26 23 -5 31 8 4 15 12 15 20 0
20 20 17 21 -3z m-151 0 c0 -5 -5 -15 -10 -23 -8 -12 -10 -11 -10 8 0 12 5 22
10 22 6 0 10 -3 10 -7z m-1742 -17 c-29 -22 -21 -26 49 -26 79 0 81 -8 3 -11
-66 -3 -80 -7 -80 -24 0 -16 33 -30 38 -15 3 7 8 8 16 0 7 -5 54 -11 105 -12
85 -2 93 0 108 21 15 22 16 23 26 5 9 -16 12 -115 5 -164 -4 -23 13 -100 21
-100 4 0 12 5 19 12 16 16 22 7 15 -21 -4 -15 -11 -21 -23 -18 -14 4 -19 -4
-23 -46 -7 -53 -18 -67 -54 -67 -13 0 -23 -6 -23 -13 0 -10 14 -13 55 -9 l55
4 -2 -53 c-1 -50 -2 -51 -5 -12 -3 31 -9 44 -24 48 -30 10 -59 -4 -59 -28 0
-33 -11 -67 -20 -62 -4 3 -4 21 0 40 6 28 5 35 -7 35 -8 0 -20 -13 -26 -30
-12 -31 -21 -37 -32 -20 -3 6 -1 10 4 10 6 0 11 7 11 15 0 8 -9 15 -20 15 -11
0 -20 -5 -20 -12 0 -9 -3 -9 -12 1 -11 10 -10 15 5 25 9 7 17 18 17 25 0 6 5
11 10 11 6 0 9 3 9 8 -1 4 0 12 1 17 1 6 3 15 5 20 1 6 3 25 3 43 2 30 4 32
23 21 17 -9 23 -8 30 2 6 11 11 11 21 1 15 -15 -1 -34 -34 -38 -13 -1 -25 -3
-27 -3 -2 -1 2 -8 9 -16 10 -12 10 -18 0 -30 -6 -8 -9 -19 -5 -25 3 -5 -1 -10
-9 -10 -9 0 -16 -4 -16 -10 0 -12 10 -13 29 -1 8 5 11 16 8 24 -4 12 2 17 21
19 15 2 26 9 24 16 -1 6 7 12 19 12 20 0 21 3 15 88 -3 48 -6 92 -7 97 0 6 2
28 5 50 5 28 4 36 -3 25 -8 -12 -11 -12 -17 4 -4 10 -2 27 4 37 14 22 1 33
-29 24 -12 -4 -50 -7 -85 -7 -35 0 -64 -4 -64 -9 0 -5 6 -9 13 -9 6 0 23 -9
36 -19 14 -10 31 -17 38 -14 9 3 11 0 7 -10 -4 -11 5 -18 30 -27 24 -7 34 -16
29 -23 -4 -7 -6 -23 -4 -37 l3 -25 -22 28 c-12 15 -28 27 -36 27 -8 0 -14 5
-14 10 0 6 -9 10 -19 10 -12 0 -21 8 -23 22 -2 12 -17 29 -34 39 l-31 17 -2
-61 c-1 -34 -6 -66 -11 -71 -7 -7 -10 -4 -10 7 0 9 -7 17 -16 17 -14 0 -14 3
-4 16 8 8 9 14 4 12 -5 -2 -9 2 -9 7 0 6 6 9 13 9 6 -1 12 9 12 22 0 20 -5 24
-30 24 -40 0 -38 18 3 22 32 4 32 4 -10 12 -41 8 -62 36 -27 36 10 0 14 6 11
14 -9 22 22 76 41 76 16 -1 16 -2 0 -14z m212 -10 c0 -2 3 -13 7 -23 6 -16 5
-16 -11 -4 -13 11 -16 11 -14 1 2 -7 -3 -15 -11 -18 -10 -3 -12 0 -8 12 4 10
7 22 7 27 0 5 7 9 15 9 8 0 15 -2 15 -4z m1442 -46 c-2 -27 -8 -50 -13 -50
-10 0 -12 60 -3 84 12 31 19 15 16 -34z m205 -12 c-3 -8 -6 -5 -6 6 -1 11 2
17 5 13 3 -3 4 -12 1 -19z m59 -5 c-10 -10 -19 5 -10 18 6 11 8 11 12 0 2 -7
1 -15 -2 -18z m-86 -23 c0 -5 -4 -10 -10 -10 -5 0 -10 5 -10 10 0 6 5 10 10
10 6 0 10 -4 10 -10z m70 0 c0 -5 -4 -10 -10 -10 -5 0 -10 5 -10 10 0 6 5 10
10 10 6 0 10 -4 10 -10z m-220 -10 c0 -5 -4 -10 -10 -10 -5 0 -10 5 -10 10 0
6 5 10 10 10 6 0 10 -4 10 -10z m-22 -27 c5 -10 8 -22 6 -28 -3 -6 19 -9 56
-7 39 3 60 0 60 -7 0 -6 -11 -11 -25 -11 -17 0 -25 -6 -25 -17 -1 -16 -2 -16
-16 2 -11 14 -18 16 -21 8 -6 -15 -33 -17 -33 -3 0 6 -16 10 -35 10 -31 0 -35
3 -35 25 0 16 6 25 15 25 8 0 15 5 15 10 0 17 29 11 38 -7z m52 7 c0 -5 -5
-10 -11 -10 -5 0 -7 5 -4 10 3 6 8 10 11 10 2 0 4 -4 4 -10z m-1817 -47 c-3
-7 1 -18 9 -26 11 -13 15 -12 25 7 11 19 12 16 13 -26 0 -27 -2 -48 -5 -48 -3
0 -21 10 -40 23 -23 15 -33 27 -29 39 3 10 -2 18 -13 21 -16 4 -15 6 5 12 13
4 22 16 23 29 0 20 1 20 8 1 5 -11 6 -25 4 -32z m292 37 c-3 -5 -13 -10 -21
-10 -8 0 -12 5 -9 10 3 6 13 10 21 10 8 0 12 -4 9 -10z m1685 0 c0 -5 -4 -10
-10 -10 -5 0 -10 5 -10 10 0 6 5 10 10 10 6 0 10 -4 10 -10z m786 -4 c11 -11
11 -16 1 -19 -9 -4 -8 -8 3 -16 8 -5 18 -7 22 -5 4 3 8 -2 8 -11 0 -12 -5 -15
-17 -10 -10 3 -22 7 -28 8 -5 1 -16 8 -25 16 -11 11 -12 15 -2 19 6 2 12 10
12 18 0 18 8 18 26 0z m44 -12 c0 -8 -4 -12 -10 -9 -5 3 -10 10 -10 16 0 5 5
9 10 9 6 0 10 -7 10 -16z m-2290 -4 c0 -5 -4 -10 -10 -10 -5 0 -10 5 -10 10 0
6 5 10 10 10 6 0 10 -4 10 -10z m1114 -6 c9 -23 7 -34 -4 -34 -5 0 -10 7 -10
16 0 13 -3 14 -14 5 -10 -9 -15 -8 -19 3 -3 8 -3 17 0 20 12 12 41 6 47 -10z
m313 0 c-3 -3 -12 -4 -19 -1 -8 3 -5 6 6 6 11 1 17 -2 13 -5z m-257 -18 c0 -3
-4 -8 -10 -11 -5 -3 -10 -1 -10 4 0 6 5 11 10 11 6 0 10 -2 10 -4z m0 -41 c0
-8 -4 -15 -10 -15 -5 0 -10 7 -10 15 0 8 5 15 10 15 6 0 10 -7 10 -15z m75
-24 c3 -5 1 -12 -5 -16 -5 -3 -10 1 -10 9 0 18 6 21 15 7z m1432 2 c-20 -2
-52 -2 -70 0 -17 2 0 4 38 4 39 0 53 -2 32 -4z m536 0 c-90 -2 -236 -2 -325 0
-90 1 -17 3 162 3 179 0 252 -2 163 -3z m-3453 -28 c0 -6 -9 -9 -19 -7 -15 2
-17 -2 -14 -23 4 -18 1 -25 -11 -25 -13 0 -16 -11 -16 -57 0 -36 -8 -75 -20
-101 -18 -39 -23 -43 -52 -42 -50 3 -53 1 -30 -19 12 -10 18 -21 15 -25 -4 -4
-1 -11 7 -16 10 -7 -1 -10 -37 -10 -57 0 -153 19 -153 31 0 4 -10 5 -22 1 -16
-4 -20 -2 -16 10 3 8 -3 25 -13 39 -24 31 -24 47 -1 26 24 -22 66 -23 59 -3
-10 25 28 28 67 5 20 -11 36 -25 36 -29 0 -4 10 -6 22 -2 l22 5 -22 10 c-27
12 -32 71 -6 81 10 4 13 13 9 26 -4 11 -2 20 4 20 6 0 11 -8 11 -18 0 -10 11
-28 25 -40 20 -18 29 -20 47 -11 20 9 23 19 26 77 l3 66 -25 -27 c-15 -16 -31
-25 -37 -21 -14 8 50 63 76 64 19 1 19 1 2 11 -10 6 -25 8 -32 5 -8 -3 -17 -1
-20 4 -6 10 71 18 98 10 10 -3 18 -10 17 -15z m500 -15 c0 -16 -4 -30 -10 -30
-5 0 -10 14 -10 30 0 17 5 30 10 30 6 0 10 -13 10 -30z m1110 -30 c0 -33 -4
-60 -10 -60 -11 0 -14 103 -3 113 12 12 13 8 13 -53z m-1872 -6 c28 -2 32 -5
32 -18 0 -11 -7 -13 -30 -6 -46 13 -53 20 -38 37 10 12 13 12 18 1 3 -7 11
-13 18 -14z m737 -24 c3 -5 -1 -10 -9 -10 -22 0 -21 -58 1 -82 15 -17 15 -18
-2 -18 -11 0 -15 -5 -11 -16 3 -9 6 -19 6 -23 0 -4 8 -7 19 -7 17 0 18 7 13
78 -3 54 -1 78 7 78 8 0 10 -45 9 -152 -1 -84 -3 -126 -5 -93 -5 66 -14 78
-51 64 -30 -11 -39 -5 -23 15 7 8 11 30 9 48 -2 25 -8 34 -25 36 -13 2 -23 -1
-23 -6 0 -6 -9 -8 -21 -5 -18 5 -19 7 -6 21 9 8 27 15 41 15 18 0 26 5 26 17
0 25 -22 31 -85 24 -30 -4 -63 -2 -72 2 -12 6 12 11 72 14 50 4 98 7 107 8 9
1 20 -2 23 -8z m-2548 -52 c-3 -7 -5 -2 -5 12 0 14 2 19 5 13 2 -7 2 -19 0
-25z m2773 8 c0 -15 -37 -32 -48 -22 -6 6 27 35 41 36 4 0 7 -6 7 -14z m130
-26 c-6 -11 -15 -18 -21 -14 -6 4 -6 11 2 20 17 21 31 17 19 -6z m-1843 -36
c-3 -3 -12 -4 -19 -1 -8 3 -5 6 6 6 11 1 17 -2 13 -5z m1633 -29 c0 -18 -5
-25 -20 -25 -11 0 -20 5 -20 10 0 6 5 10 10 10 6 0 10 7 10 15 0 8 5 15 10 15
6 0 10 -11 10 -25z m-210 11 c0 -2 -11 -11 -25 -20 -24 -16 -25 -16 -25 4 0
15 7 20 25 20 14 0 25 -2 25 -4z m290 -9 c0 -7 -13 -14 -30 -15 -16 -1 -30 3
-30 8 0 6 4 9 8 6 4 -2 14 -1 22 5 21 12 30 11 30 -4z m-383 -53 c-9 -9 -28 6
-21 18 4 6 10 6 17 -1 6 -6 8 -13 4 -17z m343 -6 c0 -12 10 -32 22 -45 18 -20
19 -23 5 -23 -9 0 -17 5 -17 10 0 6 -10 4 -23 -5 -13 -8 -26 -12 -30 -9 -3 4
-12 -5 -18 -19 -9 -20 -9 -36 1 -71 10 -37 17 -46 41 -51 16 -4 41 -4 57 -1
15 3 34 2 42 -4 16 -11 -7 -13 -88 -10 -24 1 -49 -3 -56 -10 -16 -12 -10 -44
10 -61 8 -6 14 -18 14 -26 0 -13 -3 -13 -15 -3 -9 7 -18 10 -21 7 -10 -9 -33
17 -24 28 4 6 10 22 12 38 7 36 -11 35 -47 -3 -16 -16 -35 -30 -42 -30 -7 0
-20 -12 -30 -27 -9 -16 -18 -30 -19 -31 -1 -2 -20 8 -41 22 -20 14 -48 26 -61
26 -13 0 -34 12 -47 26 -37 40 -16 54 84 54 44 0 83 5 86 10 3 6 -1 10 -10 10
-10 0 -15 7 -13 18 6 28 43 22 131 -23 26 -13 27 -13 27 10 0 13 -10 33 -22
45 -18 17 -19 20 -5 20 20 0 23 16 5 23 -9 3 -8 9 5 18 22 18 40 76 24 82 -20
6 4 27 34 27 23 0 29 -4 29 -22z m-290 -7 c0 -11 -5 -23 -11 -26 -6 -4 -8 -13
-5 -21 3 -8 -1 -14 -9 -14 -8 0 -15 4 -15 9 0 14 -32 23 -44 11 -15 -15 -26
-12 -26 8 0 26 11 34 27 20 10 -8 17 -8 25 0 6 6 17 8 24 5 10 -4 12 0 8 11
-4 11 -1 16 10 16 9 0 16 -8 16 -19z m670 -106 c-3 -52 -10 -99 -16 -105 -7
-7 -9 19 -6 82 4 99 7 118 19 118 4 0 6 -43 3 -95z m-591 25 c-7 -19 -18 -30
-30 -30 -10 0 -19 -5 -19 -11 0 -8 -5 -8 -15 1 -20 17 -9 30 26 30 41 0 39 28
-3 33 -29 3 -28 4 9 5 l42 2 -10 -30z m-489 10 c0 -5 -4 -10 -9 -10 -6 0 -13
5 -16 10 -3 6 1 10 9 10 9 0 16 -4 16 -10z m-2245 -90 c3 -5 1 -10 -4 -10 -6
0 -11 5 -11 10 0 6 2 10 4 10 3 0 8 -4 11 -10z m-35 -12 c0 -19 -18 -44 -25
-36 -4 3 0 15 7 27 15 24 18 26 18 9z m2560 -68 c0 -21 -44 -60 -69 -60 -14 0
-14 -2 -1 -10 22 -14 7 -21 -30 -14 -30 7 -32 8 -15 21 11 7 25 13 33 13 8 0
27 9 43 21 22 16 28 26 23 41 -4 14 -2 18 5 14 6 -4 11 -16 11 -26z m-2550 11
c0 -8 -10 -14 -35 -21 -5 -2 -15 -9 -20 -17 -6 -8 -20 -15 -32 -16 -13 0 -25
-7 -27 -14 -3 -7 -10 -13 -16 -13 -19 0 -10 16 21 34 18 10 40 27 50 37 19 19
59 26 59 10z m2980 -26 c0 -8 -4 -15 -10 -15 -5 0 -10 7 -10 15 0 8 5 15 10
15 6 0 10 -7 10 -15z m-3133 -89 c-16 -18 -31 -8 -16 10 6 7 15 11 20 8 5 -3
3 -11 -4 -18z m2716 -151 c6 -47 6 -49 -8 -25 -8 14 -14 48 -14 75 1 58 11 34
22 -50z m507 75 c0 -5 -7 -7 -15 -4 -8 4 -15 8 -15 10 0 2 7 4 15 4 8 0 15 -4
15 -10z m-3330 -50 c0 -5 -5 -10 -11 -10 -5 0 -7 5 -4 10 3 6 8 10 11 10 2 0
4 -4 4 -10z m-40 -36 c-15 -18 -27 -18 -27 -1 0 7 9 14 19 14 16 2 17 -1 8
-13z m-48 -46 c-6 -6 -15 -8 -19 -4 -4 4 -1 11 7 16 19 12 27 3 12 -12z m3152
-24 c3 -9 -1 -14 -13 -14 -18 0 -35 23 -24 33 8 9 31 -3 37 -19z m1413 -6 c-3
-7 -5 -2 -5 12 0 14 2 19 5 13 2 -7 2 -19 0 -25z m1783 22 c0 -5 -11 -10 -25
-10 -14 0 -25 5 -25 10 0 6 11 10 25 10 14 0 25 -4 25 -10z m70 0 c0 -5 -11
-10 -25 -10 -14 0 -25 5 -25 10 0 6 11 10 25 10 14 0 25 -4 25 -10z m-6453
-37 c-9 -9 -20 -13 -24 -9 -4 4 -1 11 7 16 25 16 35 11 17 -7z m3442 -16 c0
-21 -1 -21 -9 -2 -12 28 -12 37 0 30 6 -3 10 -16 9 -28z m-3471 -19 c-2 -6
-10 -14 -16 -16 -7 -2 -10 2 -6 12 7 18 28 22 22 4z m3216 -14 c5 -12 2 -15
-10 -10 -8 3 -18 6 -20 6 -3 0 -2 5 1 10 9 15 22 12 29 -6z m-3247 -43 c-1
-18 -7 -27 -14 -24 -16 6 -16 9 -3 34 15 27 20 24 17 -10z m3399 -21 c6 0 17
-7 24 -15 14 -17 3 -19 -33 -6 -28 11 -39 33 -30 59 6 14 9 13 17 -10 5 -16
15 -28 22 -28z m149 20 c4 -6 -7 -10 -24 -10 -24 0 -31 -4 -31 -20 0 -11 -4
-20 -10 -20 -5 0 -10 14 -10 30 0 28 3 30 34 30 19 0 38 -4 41 -10z m23 -65
c-1 -14 -8 -25 -15 -25 -16 0 -16 5 -3 31 14 26 20 24 18 -6z m-98 -75 c0 -10
7 -20 15 -24 22 -8 18 -26 -6 -26 -11 0 -17 5 -14 10 3 6 2 10 -2 10 -12 0
-34 39 -28 50 9 15 35 0 35 -20z m225 -36 c-9 -16 -14 -21 -11 -11 3 10 6 28
6 40 0 15 3 18 11 10 8 -8 6 -19 -6 -39z m-3607 -181 c-15 -2 -42 -2 -60 0
-18 2 -6 4 27 4 33 0 48 -2 33 -4z m3329 -33 c3 -11 14 -20 24 -20 11 0 19 -5
19 -11 0 -6 -7 -8 -16 -5 -9 3 -19 6 -23 6 -4 0 -13 11 -19 25 -8 17 -8 25 -1
25 6 0 13 -9 16 -20z m203 -30 c0 -5 -4 -10 -10 -10 -5 0 -10 5 -10 10 0 6 5
10 10 10 6 0 10 -4 10 -10z m-10 -30 c0 -5 -4 -10 -10 -10 -5 0 -10 5 -10 10
0 6 5 10 10 10 6 0 10 -4 10 -10z m-3133 -26 c-3 -3 -12 -4 -19 -1 -8 3 -5 6
6 6 11 1 17 -2 13 -5z m-50 -40 c-3 -3 -12 -4 -19 -1 -8 3 -5 6 6 6 11 1 17
-2 13 -5z m721 -11 c-32 -2 -84 -2 -115 0 -32 2 -6 3 57 3 63 0 89 -1 58 -3z
m5435 -30 c-29 -2 -78 -2 -110 0 -32 2 -8 3 52 3 61 0 87 -1 58 -3z m-3353
-77 c0 -3 -4 -8 -10 -11 -5 -3 -10 -1 -10 4 0 6 5 11 10 11 6 0 10 -2 10 -4z
m1132 -18 c-7 -7 -12 -8 -12 -2 0 14 12 26 19 19 2 -3 -1 -11 -7 -17z m-1105
-10 c-3 -8 -6 -5 -6 6 -1 11 2 17 5 13 3 -3 4 -12 1 -19z m587 6 c8 -21 8 -24
-5 -24 -5 0 -7 5 -4 10 3 6 1 10 -4 10 -6 0 -11 -5 -11 -11 0 -5 -4 -7 -10 -4
-6 4 -5 11 3 20 16 19 24 18 31 -1z m423 -20 c-3 -3 -12 -4 -19 -1 -8 3 -5 6
6 6 11 1 17 -2 13 -5z m-2034 -11 c-13 -2 -35 -2 -50 0 -16 2 -5 4 22 4 28 0
40 -2 28 -4z m2197 -29 c0 -8 -7 -14 -15 -14 -11 0 -14 -7 -9 -25 3 -14 2 -25
-4 -25 -17 0 -21 20 -13 82 2 12 41 -5 41 -18z m-976 -19 c3 -8 18 -15 34 -15
22 0 28 -5 29 -22 1 -13 7 -24 13 -26 14 -5 13 -62 -2 -63 -7 0 1 -5 17 -11
37 -13 75 -46 75 -66 0 -9 -14 -2 -37 19 -30 26 -39 29 -41 17 -2 -12 -14 -16
-48 -15 -25 0 -47 4 -50 9 -3 4 2 8 10 8 9 0 16 5 16 11 0 6 7 18 16 26 13 13
13 17 2 24 -7 5 -8 9 -2 9 6 0 11 15 10 33 -1 27 -5 32 -28 35 -16 2 -28 8
-28 13 0 5 -4 9 -10 9 -5 0 -10 -20 -10 -44 0 -24 -6 -59 -14 -77 l-14 -34 -7
45 c-6 48 -9 85 -6 113 1 22 66 24 75 2z m296 -15 c-8 -5 -17 -7 -19 -4 -3 3
1 9 9 14 8 5 17 7 19 4 3 -3 -1 -9 -9 -14z m-2650 -22 c0 -16 -3 -19 -11 -11
-6 6 -8 16 -5 22 11 17 16 13 16 -11z m2614 -19 c-8 -14 -24 -10 -24 6 0 9 6
12 15 9 8 -4 12 -10 9 -15z m646 7 c0 -8 -7 -16 -15 -20 -15 -5 -21 14 -8 27
11 12 23 8 23 -7z m27 -118 c-3 -8 -6 -5 -6 6 -1 11 2 17 5 13 3 -3 4 -12 1
-19z m-307 -9 c0 -12 -46 -22 -60 -14 -5 3 -8 9 -6 13 6 10 66 11 66 1z m-300
-65 c0 -8 -4 -12 -10 -9 -5 3 -10 10 -10 16 0 5 5 9 10 9 6 0 10 -7 10 -16z
m-204 -14 c8 0 14 -4 14 -10 0 -5 7 -10 15 -10 8 0 15 -4 15 -10 0 -5 -20 -10
-45 -10 -25 0 -45 2 -45 4 0 17 23 59 27 49 3 -7 11 -13 19 -13z m722 4 c24
-7 31 -24 9 -24 -15 0 -57 29 -42 30 6 0 20 -3 33 -6z m108 -49 c-7 -19 -42
-13 -66 12 -16 17 -13 16 35 -3 10 -4 15 0 15 11 0 11 -5 15 -15 11 -15 -6
-20 5 -8 18 12 11 46 -31 39 -49z m-746 -20 c0 -16 -27 -32 -37 -21 -7 7 16
36 28 36 5 0 9 -7 9 -15z m334 0 c3 -8 12 -15 20 -15 8 0 20 -13 28 -30 7 -16
16 -30 20 -30 5 0 8 -7 8 -15 0 -8 -3 -15 -6 -15 -9 0 -48 23 -62 37 -7 7 -20
13 -29 13 -13 0 -13 -3 -3 -15 10 -12 10 -18 -1 -31 -15 -18 -68 -12 -84 10
-5 7 -20 18 -32 25 -23 12 -32 51 -13 51 6 0 10 -7 10 -16 0 -14 2 -14 15 0 8
8 15 22 15 30 0 22 105 23 114 1z m-484 -21 c0 -8 -5 -12 -10 -9 -6 4 -8 11
-5 16 9 14 15 11 15 -7z m100 6 c0 -5 -4 -10 -10 -10 -5 0 -10 5 -10 10 0 6 5
10 10 10 6 0 10 -4 10 -10z m404 -185 c-4 -9 -15 -20 -26 -26 -11 -6 -17 -13
-14 -16 3 -3 17 4 31 15 47 38 65 13 44 -60 -10 -37 -29 -52 -29 -24 0 8 -13
24 -30 36 -16 12 -30 18 -30 14 0 -5 -6 -2 -12 5 -11 10 -6 18 22 42 38 32 52
37 44 14z m262 -63 c22 -15 24 -41 3 -53 -23 -12 -22 -12 -37 17 -15 29 8 54
34 36z m267 -419 c-7 -2 -21 -2 -30 0 -10 3 -4 5 12 5 17 0 24 -2 18 -5z
m-223 -744 c0 -5 4 -8 9 -4 5 3 12 1 16 -5 3 -5 16 -10 28 -10 19 0 22 -5 21
-27 -1 -16 -3 -45 -3 -66 -1 -23 -5 -36 -11 -32 -5 3 -10 -1 -10 -9 0 -9 -8
-16 -19 -16 -23 0 -40 22 -23 28 7 2 12 8 12 14 0 6 -11 3 -25 -6 -25 -16 -25
-16 -25 14 0 16 5 30 10 30 6 0 10 -5 10 -12 0 -9 3 -9 11 -1 15 15 3 33 -23
33 -13 0 -18 5 -15 14 3 8 1 17 -6 20 -9 3 -8 8 3 15 8 6 11 11 7 11 -5 0 -5
5 -2 10 8 13 35 13 35 -1z m-54 -32 c2 -29 -11 -44 -47 -52 -26 -6 -29 -10
-29 -47 0 -38 1 -40 27 -34 14 4 39 2 54 -5 23 -9 28 -16 23 -35 -5 -19 -1
-26 22 -35 16 -6 39 -16 51 -22 26 -12 53 -3 53 17 0 11 5 12 24 3 20 -9 21
-13 10 -25 -8 -7 -14 -24 -14 -37 0 -12 -6 -34 -13 -48 -10 -20 -17 -23 -30
-15 -13 7 -19 5 -23 -7 -5 -13 -9 -12 -25 7 l-20 22 -16 -23 c-11 -17 -23 -22
-44 -19 -16 3 -29 2 -29 -2 0 -11 -49 -30 -76 -30 -22 0 -25 4 -22 33 2 19 8
31 16 30 6 -2 12 4 12 12 0 8 -4 15 -10 15 -5 0 -10 7 -10 17 0 15 2 14 20 -2
10 -9 18 -20 17 -24 -1 -3 6 -17 16 -31 9 -13 18 -19 18 -12 1 6 2 17 3 24 2
18 26 22 26 4 0 -19 31 -21 48 -4 19 19 14 30 -7 19 -15 -8 -20 -7 -25 5 -9
24 -7 44 4 44 6 0 10 -7 10 -15 0 -16 15 -20 24 -7 9 15 -6 52 -20 52 -8 0
-14 6 -14 14 0 8 -16 17 -37 21 -32 6 -35 9 -18 15 19 8 19 9 -2 9 -12 1 -24
-5 -26 -11 -4 -9 -8 -10 -14 -2 -11 15 -56 12 -76 -5 -10 -7 -17 -10 -17 -5 0
4 -5 3 -12 -4 -20 -20 -38 -14 -38 13 0 25 29 37 31 13 0 -7 4 -3 9 9 8 19 13
21 42 12 55 -15 58 -13 58 39 0 57 10 75 43 75 19 0 26 6 30 23 2 14 -1 24 -7
24 -6 0 -4 4 4 10 18 11 23 6 26 -23z m301 -7 c1 -14 -4 -20 -18 -20 -22 0
-24 11 -7 28 17 17 24 15 25 -8z m-136 -42 c0 -10 2 -10 6 0 7 18 23 5 23 -19
0 -15 5 -19 18 -15 13 4 17 0 17 -19 0 -22 -5 -25 -32 -25 -18 0 -36 0 -40 0
-4 0 -8 20 -8 45 -1 25 2 45 7 45 4 0 8 -6 9 -12z m-341 -68 c0 -5 -9 -10 -19
-10 -11 0 -23 5 -26 10 -4 6 5 10 19 10 14 0 26 -4 26 -10z m169 -96 c2 -2 2
-6 -1 -9 -8 -8 -68 6 -68 16 0 8 59 1 69 -7z m2699 -11 c-21 -2 -57 -2 -80 0
-24 2 -7 4 37 4 44 0 63 -2 43 -4z m-1701 -135 c-3 -7 -5 -2 -5 12 0 14 2 19
5 13 2 -7 2 -19 0 -25z m-114 -105 c-40 -2 -106 -2 -145 0 -40 1 -8 3 72 3 80
0 112 -2 73 -3z m-3106 -125 c-3 -8 -6 -5 -6 6 -1 11 2 17 5 13 3 -3 4 -12 1
-19z"/>
<path d="M4460 7114 c0 -19 4 -33 8 -30 8 5 4 66 -4 66 -2 0 -4 -16 -4 -36z"/>
<path d="M4484 7123 c4 -16 9 -36 12 -45 4 -13 0 -18 -15 -18 -19 0 -21 -6
-21 -75 0 -77 6 -87 40 -65 15 10 22 71 8 80 -10 8 2 51 13 44 5 -3 9 -14 9
-25 0 -11 7 -27 15 -35 8 -8 12 -21 9 -29 -4 -8 -1 -15 6 -15 6 0 14 9 17 20
3 12 12 19 22 18 11 -2 17 6 19 25 2 15 7 27 12 27 5 0 7 -6 4 -14 -3 -7 2
-16 10 -19 9 -4 16 -1 16 6 0 7 9 23 20 37 12 16 20 41 20 68 l0 42 -74 0
c-50 0 -76 -4 -80 -12 -5 -10 -7 -10 -12 0 -3 6 -17 12 -31 12 -22 0 -24 -3
-19 -27z m41 6 c4 -5 4 -22 0 -37 -5 -20 -8 -23 -16 -11 -12 19 -12 59 0 59 6
0 13 -5 16 -11z"/>
<path d="M4719 7100 c-1 -27 -2 -56 -3 -62 -1 -8 9 -12 22 -11 16 2 22 -2 22
-17 0 -11 7 -20 15 -20 12 0 15 16 15 80 l0 80 -35 0 -35 0 -1 -50z"/>
<path d="M4331 7062 c-16 -5 23 -62 42 -62 10 0 22 11 27 26 8 19 16 25 30 21
13 -3 20 0 20 10 0 11 -12 13 -55 11 -30 -2 -59 -4 -64 -6z"/>
<path d="M4680 6993 c0 -14 3 -23 7 -19 10 10 11 46 1 46 -4 0 -8 -12 -8 -27z"/>
<path d="M4414 6999 c-4 -7 0 -17 8 -23 8 -6 17 -18 21 -26 3 -10 6 -7 6 8 1
29 -24 58 -35 41z"/>
<path d="M4710 6989 c0 -5 5 -7 10 -4 6 3 10 8 10 11 0 2 -4 4 -10 4 -5 0 -10
-5 -10 -11z"/>
<path d="M4757 6973 c-13 -12 -7 -90 7 -103 8 -6 13 -17 10 -25 -3 -7 -1 -16
5 -20 8 -4 11 20 11 74 0 61 -3 81 -13 81 -8 0 -17 -3 -20 -7z"/>
<path d="M4720 6901 c0 -64 2 -72 18 -69 9 2 15 11 13 19 -3 8 -6 34 -9 59 -7
76 -22 70 -22 -9z"/>
<path d="M4410 6914 c0 -29 6 -46 20 -59 20 -18 20 -17 20 17 0 21 -8 46 -20
59 l-19 24 -1 -41z"/>
<path d="M4587 6936 c-21 -21 -21 -17 -1 -66 21 -53 52 -56 46 -5 -2 19 -7 34
-11 33 -26 -3 -33 3 -21 17 19 22 7 41 -13 21z"/>
<path d="M4530 6916 c0 -1 5 -18 11 -37 6 -19 13 -41 15 -49 4 -12 6 -12 14 0
5 9 2 27 -11 52 -17 32 -29 47 -29 34z"/>
<path d="M4460 6850 c0 -40 3 -48 15 -44 18 7 18 4 4 44 -9 26 -9 34 2 41 11
7 10 9 -3 9 -15 0 -18 -9 -18 -50z"/>
<path d="M4645 6890 c-3 -5 -1 -10 4 -10 6 0 11 5 11 10 0 6 -2 10 -4 10 -3 0
-8 -4 -11 -10z"/>
<path d="M4505 6881 c-4 -8 -2 -17 6 -23 11 -7 11 -11 2 -15 -15 -6 -17 -43
-3 -43 6 0 9 3 8 8 0 4 2 14 6 23 9 21 -8 67 -19 50z"/>
<path d="M4651 6844 c0 -11 3 -14 6 -6 3 7 2 16 -1 19 -3 4 -6 -2 -5 -13z"/>
<path d="M4400 6805 c0 -14 5 -25 11 -25 9 0 7 -16 -8 -57 -3 -7 2 -13 11 -13
9 0 16 -4 16 -10 0 -5 5 -10 10 -10 6 0 10 29 10 68 0 65 -1 68 -25 70 -21 1
-25 -3 -25 -23z"/>
<path d="M4460 6763 c0 -13 5 -23 10 -23 13 0 13 11 0 30 -8 12 -10 11 -10 -7z"/>
<path d="M1160 5989 c0 -5 5 -7 10 -4 6 3 10 8 10 11 0 2 -4 4 -10 4 -5 0 -10
-5 -10 -11z"/>
<path d="M4051 5634 c0 -11 3 -14 6 -6 3 7 2 16 -1 19 -3 4 -6 -2 -5 -13z"/>
<path d="M3740 5600 c0 -5 7 -10 15 -10 8 0 15 5 15 10 0 6 -7 10 -15 10 -8 0
-15 -4 -15 -10z"/>
<path d="M4140 5581 c-12 -23 -13 -42 -2 -39 4 1 17 -3 29 -10 12 -7 24 -8 27
-4 7 12 61 8 59 -4 -1 -6 5 -11 13 -11 9 0 14 11 14 34 0 37 -2 38 -32 22 -18
-10 -25 -8 -39 10 -21 26 -55 27 -69 2z"/>
<path d="M4040 5555 c0 -9 6 -12 15 -9 8 4 12 10 9 15 -8 14 -24 10 -24 -6z"/>
<path d="M4068 5443 c12 -2 22 -8 22 -12 0 -4 -23 -28 -50 -53 l-50 -46 34
-26 c19 -14 41 -26 48 -26 8 0 19 -5 26 -12 9 -9 12 -6 12 15 0 19 -5 27 -18
27 -22 0 -45 53 -30 68 6 6 17 8 24 5 10 -4 12 0 7 13 -6 18 -5 18 13 2 12
-11 28 -15 42 -11 26 6 25 5 10 38 -10 22 -17 25 -62 24 -28 -1 -41 -4 -28 -6z"/>
<path d="M4018 5433 c7 -3 16 -2 19 1 4 3 -2 6 -13 5 -11 0 -14 -3 -6 -6z"/>
<path d="M4020 5410 c0 -5 5 -10 11 -10 5 0 7 5 4 10 -3 6 -8 10 -11 10 -2 0
-4 -4 -4 -10z"/>
<path d="M2780 5396 c0 -15 24 -28 34 -19 13 14 5 33 -14 33 -11 0 -20 -6 -20
-14z"/>
<path d="M3825 5384 c-9 -9 -14 -23 -11 -30 8 -21 -4 -44 -24 -44 -10 0 -23
-7 -30 -15 -7 -8 -18 -15 -26 -15 -7 0 -35 -7 -61 -16 -26 -9 -61 -17 -78 -18
-37 -2 -66 -46 -37 -58 15 -6 15 -7 -1 -7 -10 -1 -17 -7 -14 -13 2 -9 22 -12
65 -10 50 3 63 1 68 -12 7 -19 46 -21 77 -5 16 9 22 9 25 0 2 -6 16 -11 30
-10 23 0 24 2 8 8 -17 6 -17 8 -3 14 8 3 21 -1 27 -9 7 -8 24 -15 39 -15 17
-1 20 -3 9 -6 -10 -2 -18 -11 -18 -19 0 -21 34 -13 38 8 4 19 -40 66 -56 60
-16 -5 -15 4 4 33 9 13 13 28 10 34 -3 5 1 12 10 15 22 9 24 8 18 -9 -5 -11
-2 -13 10 -9 9 3 16 11 16 16 0 6 11 8 25 5 20 -3 29 1 39 22 12 23 12 29 -5
50 -15 19 -19 20 -19 6 0 -9 -3 -15 -7 -13 -5 3 -27 13 -50 23 -24 10 -43 24
-43 31 0 21 -17 25 -35 8z m-35 -165 c0 -31 -16 -40 -22 -11 -6 24 3 53 13 46
5 -3 9 -18 9 -35z m-90 -4 c0 -2 -16 -12 -36 -21 -30 -15 -37 -15 -45 -3 -6
10 -3 16 9 21 19 8 72 10 72 3z m115 -35 c-18 -20 -45 -27 -45 -12 0 6 35 25
59 31 2 1 -4 -8 -14 -19z"/>
<path d="M4138 5369 c-19 -11 -24 -29 -8 -29 5 0 14 9 20 20 12 23 12 23 -12
9z"/>
<path d="M2823 5356 c-7 -10 32 -46 50 -46 6 0 2 7 -9 16 -18 15 -18 15 7 10
21 -5 28 -1 32 14 5 19 1 20 -34 18 -22 -1 -43 -6 -46 -12z"/>
<path d="M2953 5343 c-7 -2 -13 -17 -13 -33 0 -17 -7 -30 -17 -34 -15 -6 -15
-8 -2 -22 13 -12 20 -12 54 -1 37 13 60 37 35 37 -6 0 -9 4 -5 10 5 7 -29 52
-37 49 -2 0 -9 -3 -15 -6z"/>
<path d="M4090 5330 c0 -5 7 -10 16 -10 8 0 12 5 9 10 -3 6 -10 10 -16 10 -5
0 -9 -4 -9 -10z"/>
<path d="M2905 5321 c-3 -5 -1 -12 5 -16 5 -3 10 1 10 9 0 18 -6 21 -15 7z"/>
<path d="M3037 5323 c-11 -10 -8 -43 4 -43 20 0 49 21 49 35 0 15 -40 21 -53
8z"/>
<path d="M2814 5298 c-3 -5 1 -17 10 -27 9 -10 16 -21 16 -25 0 -9 26 -36 34
-36 3 0 6 7 6 16 0 10 6 14 15 10 16 -6 21 9 5 19 -5 3 -7 12 -3 20 3 10 -1
15 -14 15 -11 0 -23 3 -27 7 -11 11 -35 12 -42 1z"/>
<path d="M4125 5302 c-26 -27 28 -73 81 -70 16 1 41 -1 57 -5 26 -7 27 -6 27
35 l0 43 -80 1 c-43 1 -82 -1 -85 -4z"/>
<path d="M4006 5265 c-6 -23 -26 -32 -59 -26 -14 2 -67 -40 -67 -53 0 -8 7
-19 15 -26 13 -11 15 -8 15 19 0 17 5 31 10 31 6 0 10 -18 10 -39 0 -41 16
-63 30 -41 4 7 12 10 17 7 20 -13 57 43 48 72 -8 26 20 48 33 26 9 -18 43 -17
44 0 0 7 -75 55 -87 55 -2 0 -6 -11 -9 -25z"/>
<path d="M3501 5245 c0 -16 3 -24 6 -17 2 6 11 12 19 12 8 0 14 5 14 11 0 5
-5 7 -11 3 -6 -3 -15 0 -20 7 -6 10 -8 5 -8 -16z"/>
<path d="M4127 5219 c5 -16 0 -19 -37 -19 -37 0 -41 -2 -35 -20 4 -14 2 -20
-7 -18 -7 2 -13 -4 -13 -12 0 -19 153 -27 186 -9 17 9 24 9 27 0 2 -6 11 -11
19 -11 13 0 13 2 2 17 -8 9 -13 24 -11 35 3 15 -3 18 -32 18 -19 0 -51 9 -70
19 -33 19 -34 19 -29 0z"/>
<path d="M2886 5178 c-8 -26 -2 -48 13 -48 19 0 44 36 36 50 -9 14 -45 12 -49
-2z"/>
<path d="M3589 5138 c-23 -6 -41 -19 -53 -39 -17 -29 -17 -29 6 -38 17 -7 26
-5 35 7 7 8 16 13 19 9 4 -4 1 -13 -6 -22 -8 -10 -9 -15 -1 -15 6 0 11 -9 11
-20 0 -31 22 -70 40 -70 9 0 22 -11 28 -25 13 -27 42 -34 42 -10 0 8 4 15 10
15 6 0 6 -9 0 -25 -9 -24 -8 -25 24 -25 44 0 62 21 44 49 -11 18 -27 24 -54
20 -13 -1 -24 26 -24 59 0 18 -11 50 -25 72 -14 22 -25 44 -25 49 0 14 -32 18
-71 9z m101 -163 c-7 -9 -15 -13 -17 -11 -7 7 7 26 19 26 6 0 6 -6 -2 -15z"/>
<path d="M3735 5120 c-18 -6 -17 -8 12 -23 18 -10 50 -17 72 -17 34 0 38 2 34
20 -4 15 -14 20 -40 20 -20 0 -32 -4 -28 -10 9 -15 -6 -12 -19 4 -7 9 -18 11
-31 6z"/>
<path d="M2918 5078 c5 -71 10 -77 11 -15 0 31 -2 57 -7 57 -4 0 -6 -19 -4
-42z"/>
<path d="M3988 5112 c-16 -6 -14 -13 17 -56 27 -38 35 -59 35 -93 0 -37 6 -50
40 -87 22 -24 40 -49 40 -55 0 -7 -11 1 -25 16 -21 24 -26 26 -35 13 -5 -8
-10 -26 -10 -39 0 -18 -3 -22 -11 -14 -8 8 -8 21 2 46 10 28 10 39 0 50 -10
13 -17 10 -46 -20 -32 -33 -35 -42 -35 -94 0 -37 4 -59 12 -61 8 -3 4 -10 -11
-17 -14 -8 -26 -9 -30 -4 -9 15 -47 33 -67 33 -10 0 -28 10 -40 21 -22 21 -23
21 -17 1 2 -11 0 -23 -6 -26 -6 -4 -11 -1 -11 7 0 28 -30 73 -85 126 -30 30
-55 59 -55 64 0 5 -7 6 -16 3 -11 -4 -20 5 -31 34 -9 22 -19 40 -23 40 -7 0
-60 -103 -60 -117 0 -4 11 -16 25 -25 23 -17 24 -17 30 2 3 11 10 20 14 20 21
0 32 -32 29 -88 l-3 -60 -29 24 c-28 25 -30 48 -1 24 13 -11 15 -7 15 29 0 40
-15 55 -26 26 -5 -13 -10 -12 -34 5 -36 26 -60 17 -60 -21 0 -17 -6 -32 -15
-35 -9 -4 -15 -19 -15 -40 0 -24 5 -34 15 -34 9 0 15 -9 15 -25 0 -14 -6 -25
-13 -25 -8 0 -13 -19 -15 -54 -3 -50 0 -57 37 -100 23 -26 41 -56 41 -66 0
-24 16 -34 24 -15 3 8 14 15 25 15 18 0 15 7 -20 61 -22 33 -38 65 -36 72 2 7
10 0 17 -15 7 -16 17 -28 22 -28 11 0 10 7 -2 30 -7 13 -6 19 6 24 8 3 12 10
9 16 -9 14 -45 13 -45 -2 0 -9 -3 -9 -12 0 -7 7 -21 12 -33 13 -20 0 -20 0 0
8 11 4 41 8 68 7 26 -1 47 2 47 7 0 4 -13 7 -30 7 -16 0 -30 5 -30 10 0 6 7
10 15 10 8 0 15 5 15 10 0 6 -10 10 -22 10 -21 1 -22 1 -5 11 10 6 27 9 38 6
10 -3 19 -1 19 4 0 5 11 7 25 3 15 -4 25 -2 25 5 0 6 9 11 20 11 11 0 20 -5
20 -11 0 -5 5 -7 10 -4 6 3 10 -3 10 -13 0 -11 7 -25 15 -32 9 -7 14 -19 11
-26 -3 -7 3 -15 12 -19 11 -4 13 -8 5 -13 -16 -10 -11 -46 7 -53 27 -11 160
-11 160 0 0 6 -9 11 -19 11 -11 0 -23 5 -26 10 -3 6 -14 10 -24 10 -10 0 -24
7 -31 15 -7 8 -17 12 -22 8 -6 -3 -9 0 -7 6 3 7 9 13 14 13 6 0 15 4 22 9 7 7
14 6 18 -2 4 -6 2 -14 -4 -18 -7 -5 5 -13 28 -20 22 -6 47 -18 56 -27 13 -14
15 -12 15 15 0 17 5 31 10 31 6 0 10 -13 10 -29 0 -17 4 -32 9 -35 13 -9 41 4
41 18 0 18 -53 66 -73 66 -9 0 -17 5 -17 10 0 24 50 8 79 -25 l30 -35 23 23
c41 39 58 75 58 122 0 25 5 45 10 45 13 0 10 -99 -2 -106 -12 -7 -34 -58 -37
-85 0 -5 -5 -7 -11 -4 -5 3 -10 -1 -10 -10 0 -9 -4 -14 -9 -11 -13 9 -21 -31
-21 -111 0 -43 4 -73 10 -73 6 0 6 -7 -1 -19 -7 -10 -9 -26 -5 -36 6 -17 8
-17 27 3 11 12 27 22 35 22 9 0 14 7 12 17 -4 22 -28 29 -28 9 0 -9 -4 -16
-10 -16 -14 0 -12 26 3 38 17 14 42 10 66 -12 10 -10 28 -19 38 -21 10 -1 17
-8 15 -14 -1 -6 2 -11 8 -11 5 0 10 -8 10 -18 0 -11 11 -24 25 -30 23 -11 25
-10 25 15 0 33 17 19 22 -17 2 -20 9 -25 33 -27 17 -1 23 0 15 3 -8 3 -22 8
-30 11 -12 4 -11 7 5 13 27 10 78 -8 71 -26 -3 -8 -2 -14 3 -14 5 0 12 11 15
25 4 14 11 25 16 25 6 0 10 5 10 11 0 5 -4 8 -9 5 -11 -7 -36 22 -27 31 4 4
10 2 14 -4 4 -7 18 -10 30 -6 59 15 -6 33 -120 33 -38 0 -68 3 -68 8 0 4 43 6
95 4 66 -2 95 0 95 8 0 7 -8 9 -20 5 -18 -6 -19 -4 -10 21 13 34 0 51 -45 60
-19 3 -36 13 -40 21 -8 23 5 31 16 10 12 -21 59 -23 59 -2 0 14 -20 40 -77
102 -13 13 -23 37 -23 53 0 19 -9 35 -26 49 -32 25 -42 26 -64 6 -14 -13 -16
-9 -17 43 0 44 1 49 6 22 5 -31 10 -35 40 -38 33 -2 33 -2 27 30 -19 92 -19
118 -1 138 16 17 16 20 2 26 -15 5 -13 33 4 44 4 3 10 37 13 77 l5 71 -137 0
c-75 0 -145 -3 -154 -6z m182 -122 c0 -5 -4 -10 -10 -10 -5 0 -10 5 -10 10 0
6 5 10 10 10 6 0 10 -4 10 -10z m-516 -109 c3 -5 -1 -11 -9 -15 -9 -3 -15 0
-15 9 0 16 16 20 24 6z m6 -36 c-7 -8 -17 -15 -22 -15 -6 0 -5 7 2 15 7 8 17
15 22 15 6 0 5 -7 -2 -15z m80 -125 c0 -5 -2 -10 -4 -10 -3 0 -8 5 -11 10 -3
6 -1 10 4 10 6 0 11 -4 11 -10z"/>
<path d="M2850 5099 c0 -16 28 -41 39 -35 16 10 0 46 -20 46 -11 0 -19 -5 -19
-11z"/>
<path d="M3914 5086 c-11 -8 -43 -16 -70 -18 -39 -2 -49 -6 -48 -20 1 -10 -4
-18 -12 -18 -19 0 -29 21 -14 30 16 10 -7 19 -33 12 -13 -3 -17 -11 -13 -26 3
-11 6 -33 6 -48 0 -24 4 -27 46 -34 27 -4 41 -10 34 -14 -17 -11 -3 -30 23
-31 18 -1 19 -2 4 -6 -10 -3 -16 -10 -14 -16 4 -14 32 -21 54 -13 12 5 13 9 3
21 -10 13 -9 15 9 15 13 0 19 -4 16 -11 -4 -6 2 -5 14 3 12 7 21 16 21 21 0 4
-4 6 -9 2 -5 -3 -12 -1 -16 5 -3 5 -23 10 -43 10 -20 0 -32 4 -26 8 6 4 14 16
19 27 7 18 9 18 12 3 5 -20 16 -22 43 -8 19 10 50 4 50 -10 0 -5 -10 -6 -22
-3 -22 5 -22 5 -6 -13 16 -16 19 -16 35 -2 13 12 23 14 36 7 13 -8 17 -6 17 8
0 24 -11 38 -35 47 -14 5 -16 9 -7 15 10 6 7 16 -13 39 -31 36 -33 37 -61 18z
m-64 -56 c12 -8 11 -10 -7 -10 -12 0 -25 5 -28 10 -8 13 15 13 35 0z m60 -10
c0 -5 -9 -10 -20 -10 -11 0 -20 5 -20 10 0 6 9 10 20 10 11 0 20 -4 20 -10z
m50 -10 c-19 -13 -30 -13 -30 0 0 6 10 10 23 10 18 0 19 -2 7 -10z m-170 -15
c0 -8 -4 -15 -10 -15 -5 0 -10 7 -10 15 0 8 5 15 10 15 6 0 10 -7 10 -15z"/>
<path d="M2832 5045 c-10 -12 -8 -18 10 -35 l22 -20 11 20 c6 11 14 17 18 14
4 -4 7 0 7 9 0 10 -5 14 -15 11 -8 -4 -15 -1 -15 5 0 15 -23 13 -38 -4z"/>
<path d="M2801 4997 c2 -1 13 -9 24 -17 19 -14 19 -14 6 3 -7 9 -18 17 -24 17
-6 0 -8 -1 -6 -3z"/>
<path d="M2896 4991 c-10 -15 4 -39 27 -45 27 -7 28 -5 14 24 -13 26 -32 36
-41 21z"/>
<path d="M2951 4983 c7 -10 15 -20 16 -22 2 -2 3 3 3 11 0 9 -7 19 -16 22 -15
6 -15 4 -3 -11z"/>
<path d="M2870 4942 c0 -10 23 -22 42 -22 12 0 1 15 -10 15 -4 0 -13 4 -19 8
-7 5 -13 4 -13 -1z"/>
<path d="M2970 4940 c0 -5 5 -10 11 -10 5 0 7 5 4 10 -3 6 -8 10 -11 10 -2 0
-4 -4 -4 -10z"/>
<path d="M3968 4930 c-10 -9 -18 -25 -18 -36 0 -14 -2 -16 -9 -5 -5 7 -11 9
-14 4 -3 -5 -2 -15 4 -23 13 -22 11 -28 -11 -35 -11 -3 -20 -10 -20 -15 0 -5
6 -7 14 -4 8 3 17 1 21 -5 3 -6 2 -11 -4 -11 -5 0 -16 -3 -25 -6 -11 -4 -16
-1 -16 10 0 9 -7 16 -15 16 -8 0 -15 -6 -15 -13 0 -21 35 -48 54 -41 11 4 16
1 16 -10 0 -9 -8 -16 -17 -16 -15 0 -16 -2 -3 -10 25 -16 27 -13 34 60 6 61
11 72 35 90 16 11 31 29 34 41 3 11 3 18 0 15 -4 -3 -11 -2 -17 3 -7 5 -18 2
-28 -9z"/>
<path d="M3062 4918 c6 -18 28 -21 28 -4 0 9 -7 16 -16 16 -9 0 -14 -5 -12
-12z"/>
<path d="M4840 4920 c-8 -5 -11 -12 -7 -16 4 -4 13 -2 19 4 15 15 7 24 -12 12z"/>
<path d="M3000 4906 c0 -11 -7 -28 -16 -38 -16 -16 -15 -18 1 -24 9 -4 32 -2
51 4 20 6 36 6 40 1 3 -5 20 -8 37 -8 24 1 26 3 10 6 -13 2 -23 11 -23 19 0 8
-9 14 -21 14 -23 0 -60 18 -71 34 -5 7 -8 3 -8 -8z"/>
<path d="M3790 4870 c0 -6 7 -10 15 -10 8 0 15 2 15 4 0 2 -7 6 -15 10 -8 3
-15 1 -15 -4z"/>
<path d="M3450 4836 c0 -20 2 -36 4 -36 8 0 12 61 4 66 -4 3 -8 -11 -8 -30z"/>
<path d="M3840 4860 c0 -5 9 -10 20 -10 11 0 20 5 20 10 0 6 -9 10 -20 10 -11
0 -20 -4 -20 -10z"/>
<path d="M3756 4851 c-16 -6 -11 -14 35 -53 80 -67 112 -73 56 -10 -13 13 -27
20 -38 17 -13 -4 -16 -1 -12 13 6 24 -16 42 -41 33z"/>
<path d="M3820 4846 c0 -2 7 -9 15 -16 9 -7 15 -8 15 -2 0 5 -7 12 -15 16 -8
3 -15 4 -15 2z"/>
<path d="M3021 4819 c-13 -5 -22 -11 -20 -13 7 -7 59 6 59 15 0 11 -8 11 -39
-2z"/>
<path d="M4636 4765 c5 -11 11 -12 25 -4 26 13 24 19 -6 19 -17 0 -23 -4 -19
-15z"/>
<path d="M4701 4751 c-18 -32 -13 -39 24 -38 32 1 36 4 33 26 -4 33 -42 41
-57 12z"/>
<path d="M3660 4691 c0 -6 -9 -11 -20 -11 -16 0 -20 -7 -20 -31 0 -30 1 -31
42 -25 22 3 43 8 46 11 2 2 -7 18 -22 35 -14 17 -26 27 -26 21z"/>
<path d="M3590 4601 c0 -6 7 -11 15 -11 8 0 15 -4 15 -10 0 -5 -9 -10 -21 -10
-12 0 -19 -5 -16 -12 2 -7 11 -12 21 -10 13 2 16 -6 16 -38 0 -25 -4 -39 -10
-35 -5 3 -10 2 -10 -3 0 -14 73 -67 88 -64 6 2 12 -2 12 -9 0 -14 -49 -3 -71
17 -22 20 -56 17 -68 -5 -15 -27 28 -71 68 -71 16 0 36 -3 45 -6 12 -4 16 0
16 15 0 12 5 21 11 21 6 0 9 -11 7 -25 -2 -20 4 -30 30 -46 l32 -21 0 40 c0
37 -3 41 -27 45 l-28 4 29 2 c21 1 27 5 22 16 -6 17 9 21 19 4 4 -6 7 -37 6
-69 l-1 -59 55 -6 c62 -8 120 0 153 21 18 12 20 18 12 34 -9 17 -21 20 -80 20
-43 0 -70 4 -70 11 0 6 19 10 48 9 85 -3 89 -2 101 30 10 29 9 30 -21 30 -31
0 -31 0 -12 19 10 10 22 17 27 14 4 -2 7 15 7 39 -1 39 -2 41 -14 25 -11 -14
-15 -15 -19 -5 -4 8 -8 5 -12 -9 -4 -13 -11 -23 -16 -23 -13 0 -11 28 3 32 7
3 8 10 4 17 -6 9 -33 12 -97 10 -48 -2 -91 0 -95 4 -3 3 -20 3 -37 0 -22 -5
-28 -3 -23 6 6 9 -1 11 -27 6 -32 -6 -34 -5 -34 20 0 19 4 25 14 21 9 -4 13
-1 11 6 -6 16 -78 24 -78 9z m201 -110 c-8 -6 -11 -16 -6 -31 6 -20 5 -22 -11
-16 -11 4 -31 10 -47 13 -15 3 -30 10 -34 16 -4 6 7 7 31 3 29 -6 36 -4 36 9
0 9 9 15 23 15 16 0 18 -3 8 -9z m144 -68 c19 -15 18 -15 -14 -9 -18 3 -40 6
-48 6 -8 0 -11 5 -8 10 9 15 47 11 70 -7z m25 -43 c0 -5 -4 -10 -10 -10 -5 0
-10 5 -10 10 0 6 5 10 10 10 6 0 10 -4 10 -10z"/>
<path d="M4340 4590 c6 -11 19 -24 30 -30 11 -6 25 -28 31 -50 15 -48 29 -52
29 -8 0 44 -45 108 -77 108 -21 0 -22 -3 -13 -20z"/>
<path d="M3414 4579 c-3 -6 -1 -16 5 -22 8 -8 11 -5 11 11 0 24 -5 28 -16 11z"/>
<path d="M4444 4499 c1 -16 7 -29 14 -29 16 0 15 28 -2 45 -11 11 -13 9 -12
-16z"/>
<path d="M3572 4508 c6 -18 28 -21 28 -4 0 9 -7 16 -16 16 -9 0 -14 -5 -12
-12z"/>
<path d="M3520 4405 c0 -5 10 -21 21 -35 13 -17 17 -18 10 -5 -17 33 -31 51
-31 40z"/>
<path d="M4103 4282 c-14 -2 -24 -11 -24 -23 -1 -10 -2 -24 -3 -31 -1 -6 5
-13 12 -15 8 -3 13 7 13 29 l2 33 4 -30 c3 -16 10 -33 16 -37 9 -5 8 -8 -2 -8
-9 0 -6 -7 9 -20 24 -21 110 -29 110 -10 0 6 -7 10 -15 10 -22 0 -18 17 6 23
34 9 19 40 -26 55 -22 7 -42 17 -45 21 -5 8 -19 9 -57 3z"/>
<path d="M3747 4260 c3 -11 9 -20 15 -20 5 0 4 9 -2 20 -6 11 -12 20 -14 20
-2 0 -2 -9 1 -20z"/>
<path d="M4028 4248 c-37 -13 -36 -28 2 -28 23 0 30 4 30 20 0 11 -1 20 -2 19
-2 0 -15 -5 -30 -11z"/>
<path d="M4265 4210 c-3 -5 -1 -10 4 -10 6 0 11 5 11 10 0 6 -2 10 -4 10 -3 0
-8 -4 -11 -10z"/>
<path d="M4000 4185 c0 -11 12 -15 45 -15 31 0 45 4 45 13 0 9 -15 14 -45 15
-34 2 -45 -1 -45 -13z"/>
<path d="M4543 4165 c12 -13 24 -19 26 -14 1 6 -5 17 -15 24 -29 22 -35 17
-11 -10z"/>
<path d="M4260 4150 c0 -28 -14 -42 -22 -20 -1 5 -21 11 -43 13 -22 2 -30 2
-17 0 32 -6 28 -33 -5 -33 -21 0 -24 -3 -13 -9 8 -6 18 -7 23 -4 5 3 23 -11
39 -32 35 -42 46 -37 49 23 2 32 9 46 26 58 28 18 22 34 -13 34 -20 0 -24 -5
-24 -30z"/>
<path d="M4428 4168 c7 -7 16 -7 28 0 14 8 13 10 -10 10 -18 0 -24 -4 -18 -10z"/>
<path d="M4580 4131 c-10 -19 -8 -21 16 -21 24 0 25 2 13 18 -7 9 -14 19 -15
20 -1 2 -7 -6 -14 -17z"/>
<path d="M4540 4085 c0 -7 7 -16 16 -19 12 -4 14 -14 9 -36 -6 -29 -6 -30 21
-20 15 6 29 8 32 6 8 -9 -28 -56 -42 -56 -13 0 -34 -75 -24 -85 8 -8 100 139
101 163 2 27 -9 35 -70 49 -33 8 -43 7 -43 -2z"/>
<path d="M4150 4040 c0 -19 3 -21 12 -12 9 9 9 15 0 24 -9 9 -12 7 -12 -12z"/>
<path d="M4660 3956 c0 -9 5 -16 10 -16 6 0 10 4 10 9 0 6 -4 13 -10 16 -5 3
-10 -1 -10 -9z"/>
<path d="M4468 3733 c-9 -10 -23 -33 -33 -52 -17 -33 -16 -34 7 -57 l24 -24
-1 25 c-1 14 -5 28 -8 32 -10 10 -8 20 7 35 13 14 31 58 23 58 -2 0 -11 -8
-19 -17z"/>
<path d="M4518 3736 c-10 -7 -18 -18 -18 -23 0 -6 -7 -16 -15 -23 -8 -7 -12
-17 -8 -22 5 -10 9 -29 12 -71 1 -14 6 -17 21 -12 14 5 20 2 20 -9 0 -9 -6
-15 -12 -13 -7 1 -12 -6 -12 -15 1 -10 -2 -18 -7 -18 -5 0 -9 -7 -9 -15 0 -14
-10 -18 -27 -12 -5 1 -7 5 -6 8 1 4 -7 5 -18 2 -24 -7 -79 -84 -79 -111 0 -22
53 -72 76 -72 22 0 16 19 -15 48 -23 21 -27 31 -20 49 4 12 17 26 28 32 30 17
39 13 13 -7 l-22 -17 20 -35 c11 -19 23 -43 26 -52 8 -23 13 -23 41 4 28 27
31 10 3 -20 -19 -20 -18 -27 4 -23 13 3 25 -20 19 -36 -3 -7 -14 -13 -24 -13
-23 0 -25 -18 -4 -26 8 -4 15 -17 15 -31 0 -24 3 -25 35 -20 19 3 37 1 41 -4
3 -5 14 -7 25 -4 15 5 19 1 19 -14 0 -12 5 -21 10 -21 6 0 10 -5 10 -11 0 -6
-6 -9 -12 -6 -14 4 -38 -43 -38 -74 0 -12 -7 -19 -20 -19 -22 0 -27 -15 -8
-26 6 -4 8 -3 5 3 -4 6 4 11 18 11 14 0 28 -4 31 -9 3 -5 -2 -9 -10 -9 -24 0
-19 -17 7 -23 12 -4 40 -24 63 -45 38 -37 44 -39 95 -37 67 2 86 -3 64 -19
-12 -9 -5 -11 35 -11 38 0 49 3 45 13 -3 8 -5 58 -5 113 l0 99 -85 0 c-50 0
-85 4 -85 10 0 6 35 10 85 10 l85 0 0 69 c0 79 4 75 -96 86 -33 4 -65 10 -70
13 -15 10 -71 106 -76 128 -3 16 -15 20 -72 26 -39 4 -73 12 -77 20 -6 9 -9 4
-9 -15 0 -16 -4 -26 -10 -22 -5 3 -10 24 -10 45 0 21 5 42 10 45 6 3 10 2 10
-3 0 -5 10 -12 22 -15 18 -5 19 -8 8 -22 -12 -15 -9 -16 36 -13 29 2 49 8 49
15 0 22 13 24 20 3 l7 -22 14 23 c49 85 54 117 24 144 -11 10 -20 24 -20 30 0
19 -40 41 -86 47 -36 5 -41 3 -37 -11 2 -10 -3 -23 -11 -30 -10 -8 -16 -9 -16
-3 0 6 5 14 10 17 7 4 8 11 1 18 -5 7 -11 24 -13 39 -3 23 -5 25 -20 14z m-31
-290 c-3 -7 1 -23 9 -35 14 -19 14 -21 -5 -21 -12 0 -21 5 -21 11 0 5 -4 7
-10 4 -15 -9 -12 8 6 33 17 25 29 29 21 8z m107 -50 c9 3 16 1 16 -5 0 -6 -7
-11 -15 -11 -8 0 -15 -5 -15 -12 0 -6 -9 -2 -20 10 -25 27 -26 36 -1 22 11 -5
27 -7 35 -4z m2 -91 c-5 -20 -3 -25 14 -25 11 0 20 -4 20 -10 0 -10 -20 -14
-52 -12 -10 1 -18 -3 -18 -9 0 -5 -4 -7 -10 -4 -15 9 -12 35 3 35 8 0 19 11
25 25 6 14 14 25 18 25 3 0 3 -11 0 -25z m315 -405 c5 0 9 -4 9 -10 0 -5 -7
-10 -15 -10 -11 0 -15 10 -14 33 1 23 3 26 6 10 2 -13 9 -23 14 -23z"/>
<path d="M4476 3543 c-6 -14 -5 -15 5 -6 7 7 10 15 7 18 -3 3 -9 -2 -12 -12z"/>
<path d="M4462 3260 c0 -25 4 -56 8 -70 8 -24 8 -24 8 5 1 17 -3 48 -7 70 l-9
40 0 -45z"/>
<path d="M4551 3151 c-1 -7 -7 -11 -15 -8 -10 4 -17 -3 -21 -23 -9 -40 0 -51
31 -40 32 12 37 12 29 1 -3 -5 -1 -12 5 -16 5 -3 15 6 20 20 14 38 12 49 -6
31 -21 -21 -22 -21 -33 17 -5 17 -10 26 -10 18z"/>
<path d="M4470 3102 c0 -4 12 -20 26 -37 14 -16 23 -23 20 -15 -3 8 -9 23 -12
32 -6 17 -34 34 -34 20z"/>
<path d="M4537 3063 c-7 -7 3 -33 13 -33 14 0 19 28 5 33 -7 3 -15 3 -18 0z"/>
<path d="M4560 2985 c0 -4 14 -27 30 -52 32 -46 36 -58 20 -48 -6 3 -10 -5
-10 -19 0 -19 7 -26 29 -31 22 -5 28 -10 24 -26 -4 -14 0 -19 15 -19 30 0 47
-26 34 -53 -5 -12 -13 -30 -16 -40 -3 -10 -10 -16 -15 -13 -5 3 -11 -4 -14
-15 -5 -20 -5 -20 14 -3 29 26 59 97 59 139 0 19 -9 55 -20 78 -16 34 -32 49
-78 72 -76 39 -72 38 -72 30z m100 -121 c0 -8 -4 -12 -10 -9 -5 3 -10 13 -10
21 0 8 5 12 10 9 6 -3 10 -13 10 -21z"/>
<path d="M3670 2920 c0 -4 12 -12 26 -19 18 -8 24 -17 20 -27 -5 -12 -2 -15
10 -10 8 3 25 1 36 -5 16 -9 19 -8 12 2 -4 7 -7 26 -6 41 2 27 1 28 -48 27
-27 -1 -50 -5 -50 -9z"/>
<path d="M3640 2913 c0 -4 14 -21 30 -37 22 -21 30 -25 30 -13 0 8 -13 25 -30
37 -16 12 -30 18 -30 13z"/>
<path d="M4736 2855 c3 -11 12 -25 20 -31 15 -12 9 -44 -8 -44 -6 0 -7 -11 -4
-25 4 -14 2 -25 -4 -25 -5 0 -10 -5 -10 -12 0 -7 -14 -27 -32 -45 -23 -24 -27
-33 -16 -33 29 0 48 12 48 30 0 23 21 40 56 46 16 3 32 10 36 17 5 8 13 8 33
-1 15 -7 31 -10 36 -7 5 4 9 -5 9 -18 0 -16 7 -26 20 -30 27 -7 32 4 19 43 -6
17 -9 51 -6 74 l6 43 -54 1 c-61 0 -77 6 -69 26 4 10 -7 13 -40 12 -41 0 -45
-2 -40 -21z"/>
<path d="M3840 2855 c0 -8 5 -15 10 -15 6 0 10 7 10 15 0 8 -4 15 -10 15 -5 0
-10 -7 -10 -15z"/>
<path d="M4070 2860 c0 -5 5 -10 10 -10 6 0 10 5 10 10 0 6 -4 10 -10 10 -5 0
-10 -4 -10 -10z"/>
<path d="M3647 2854 c-10 -10 12 -44 28 -44 18 0 18 5 5 31 -11 19 -22 24 -33
13z"/>
<path d="M4956 2802 c-7 -56 2 -80 24 -67 6 4 9 13 6 20 -6 15 45 16 56 0 4
-6 8 -2 8 9 0 11 3 16 6 13 10 -10 44 12 44 29 0 12 -9 14 -40 11 -25 -3 -40
0 -40 7 0 7 -13 17 -29 22 l-29 11 -6 -55z"/>
<path d="M4285 2841 c-4 -7 -2 -18 4 -24 6 -6 11 -22 11 -35 0 -15 7 -26 20
-29 19 -5 28 -23 12 -23 -5 0 -9 -7 -9 -15 0 -8 3 -12 7 -10 3 2 14 -10 24
-26 20 -34 59 -53 88 -43 27 8 17 28 -15 32 -18 2 -27 10 -28 23 -1 10 -2 25
-3 32 -1 6 -8 17 -16 24 -8 6 -15 17 -15 25 0 7 -10 17 -22 23 -13 5 -23 12
-23 15 0 4 -6 14 -13 25 -11 13 -16 15 -22 6z"/>
<path d="M5068 2833 c6 -2 18 -2 25 0 6 3 1 5 -13 5 -14 0 -19 -2 -12 -5z"/>
<path d="M3885 2819 c-4 -6 -5 -13 -2 -16 7 -7 27 6 27 18 0 12 -17 12 -25 -2z"/>
<path d="M4252 2797 c-8 -10 -6 -16 9 -25 17 -11 19 -9 19 13 0 27 -12 32 -28
12z"/>
<path d="M3840 2785 c-10 -12 -7 -14 24 -13 20 1 36 5 36 10 0 5 -4 7 -9 3 -5
-3 -12 -1 -16 5 -9 14 -20 13 -35 -5z"/>
<path d="M5093 2763 c-4 -10 -12 -22 -20 -26 -18 -11 -17 -47 1 -47 24 0 46
29 46 61 0 32 -17 39 -27 12z"/>
<path d="M3880 2740 c0 -11 5 -20 10 -20 6 0 10 -7 10 -15 0 -8 7 -15 16 -15
11 0 15 6 11 20 -3 11 -1 23 4 26 16 9 -1 24 -27 24 -17 0 -24 -5 -24 -20z"/>
<path d="M3861 2673 l-24 -5 24 -12 c13 -6 25 -22 27 -34 5 -31 24 -23 34 13
5 20 3 32 -5 37 -13 8 -17 8 -56 1z"/>
<path d="M3938 2625 c-2 -31 2 -50 12 -60 10 -11 11 -15 2 -15 -7 0 -10 -5 -7
-10 4 -6 11 -7 17 -4 7 5 9 1 5 -9 -7 -20 8 -23 17 -4 5 10 7 10 12 0 8 -18
31 -16 38 2 3 9 0 15 -7 15 -7 0 -22 6 -33 14 -17 13 -13 14 38 9 62 -6 93 1
83 18 -5 7 -11 7 -17 1 -7 -7 -17 -4 -31 9 -16 15 -29 18 -52 13 -30 -6 -30
-6 -12 14 18 20 18 20 -5 28 -22 7 -22 7 -3 15 16 6 12 8 -16 8 -37 1 -37 1
-41 -44z"/>
<path d="M4433 2605 c11 -7 25 -11 33 -8 25 10 15 23 -18 23 -31 -1 -32 -2
-15 -15z"/>
<path d="M4500 2610 c0 -5 5 -10 11 -10 5 0 7 5 4 10 -3 6 -8 10 -11 10 -2 0
-4 -4 -4 -10z"/>
<path d="M4655 2610 c-3 -5 1 -10 9 -10 9 0 16 5 16 10 0 6 -4 10 -9 10 -6 0
-13 -4 -16 -10z"/>
<path d="M4553 2602 c-9 -6 -4 -16 17 -34 17 -14 30 -22 30 -18 0 5 -5 12 -11
15 -6 4 -13 15 -17 26 -4 11 -12 15 -19 11z"/>
<path d="M3880 2580 c0 -5 5 -10 10 -10 6 0 10 5 10 10 0 6 -4 10 -10 10 -5 0
-10 -4 -10 -10z"/>
<path d="M4530 2575 c-1 -5 -3 -18 -5 -27 -2 -10 2 -21 9 -25 7 -5 15 -15 18
-23 3 -8 6 0 5 18 0 17 -4 32 -8 32 -4 0 -10 8 -12 18 -3 9 -6 13 -7 7z"/>
<path d="M4055 2530 c-3 -5 1 -10 9 -10 9 0 16 5 16 10 0 6 -4 10 -9 10 -6 0
-13 -4 -16 -10z"/>
<path d="M4100 2525 c0 -8 4 -15 10 -15 5 0 7 7 4 15 -4 8 -8 15 -10 15 -2 0
-4 -7 -4 -15z"/>
<path d="M5240 2536 c0 -2 7 -7 16 -10 8 -3 12 -2 9 4 -6 10 -25 14 -25 6z"/>
<path d="M4476 2499 c-4 -9 -6 -20 -5 -25 2 -5 0 -23 -4 -40 -4 -16 -3 -41 2
-55 l10 -24 0 28 c1 21 6 27 24 27 32 0 46 13 42 35 -2 11 -4 24 -4 29 -1 5
-7 4 -14 -2 -16 -13 -33 -3 -39 23 -4 17 -6 18 -12 4z"/>
<path d="M4090 2490 c0 -5 5 -10 11 -10 5 0 7 5 4 10 -3 6 -8 10 -11 10 -2 0
-4 -4 -4 -10z"/>
<path d="M4582 2416 c6 -14 17 -28 26 -31 24 -9 26 2 3 15 -12 6 -21 17 -21
25 0 8 -4 15 -10 15 -6 0 -5 -9 2 -24z"/>
<path d="M4533 2400 c-19 -8 -22 -16 -20 -48 1 -26 6 -38 14 -35 7 3 15 -7 19
-21 6 -24 10 -26 66 -26 51 0 59 2 54 16 -3 9 -6 26 -6 39 0 17 -10 27 -40 39
-23 9 -43 23 -46 31 -7 17 -10 17 -41 5z m7 -34 c0 -3 -4 -8 -10 -11 -5 -3
-10 -1 -10 4 0 6 5 11 10 11 6 0 10 -2 10 -4z"/>
<path d="M4704 2368 c-5 -7 -3 -8 6 -3 7 4 16 2 20 -5 5 -8 16 -9 31 -4 l24 8
-25 7 c-37 11 -48 10 -56 -3z"/>
<path d="M4356 2345 c-2 -7 2 -22 9 -33 8 -10 11 -22 7 -26 -3 -4 6 -2 21 3
38 15 45 14 50 -6 3 -10 5 -1 6 19 1 29 -2 36 -14 32 -8 -3 -28 1 -44 9 -24
12 -31 12 -35 2z"/>
<path d="M4750 2321 c0 -5 7 -11 15 -15 9 -3 15 0 15 9 0 8 -7 15 -15 15 -8 0
-15 -4 -15 -9z"/>
<path d="M4470 2285 c0 -8 5 -15 10 -15 6 0 10 7 10 15 0 8 -4 15 -10 15 -5 0
-10 -7 -10 -15z"/>
<path d="M4750 2141 c0 -5 5 -13 10 -16 6 -3 10 -2 10 4 0 5 -4 13 -10 16 -5
3 -10 2 -10 -4z"/>
<path d="M1888 5553 c7 -3 16 -2 19 1 4 3 -2 6 -13 5 -11 0 -14 -3 -6 -6z"/>
<path d="M5190 5081 c0 -7 -7 -10 -17 -7 -34 10 -46 -10 -50 -78 -3 -56 -1
-65 12 -60 11 4 18 -3 26 -25 12 -35 29 -41 29 -12 0 30 -11 51 -26 51 -8 0
-14 5 -14 10 0 6 9 10 19 10 16 0 21 10 26 55 4 31 5 59 1 62 -3 4 -6 1 -6 -6z"/>
<path d="M5120 4905 c0 -8 4 -15 10 -15 5 0 7 7 4 15 -4 8 -8 15 -10 15 -2 0
-4 -7 -4 -15z"/>
<path d="M5146 4853 c-6 -15 -8 -15 -16 -3 -7 11 -10 8 -10 -12 0 -23 5 -28
23 -28 31 0 35 5 29 35 -5 29 -17 32 -26 8z"/>
<path d="M5125 4760 c3 -5 11 -10 16 -10 6 0 7 5 4 10 -3 6 -11 10 -16 10 -6
0 -7 -4 -4 -10z"/>
<path d="M5120 4720 c0 -11 6 -20 13 -20 7 0 13 9 13 20 0 11 -6 20 -13 20 -7
0 -13 -9 -13 -20z"/>
<path d="M5167 4724 c-3 -3 -3 -12 0 -20 3 -8 0 -14 -7 -14 -7 0 -10 -13 -8
-32 3 -38 21 -44 26 -10 2 13 -2 22 -10 22 -8 0 -6 4 5 11 9 5 17 16 17 24 0
16 -14 27 -23 19z"/>
<path d="M5150 4590 c0 -11 5 -20 10 -20 6 0 10 -21 10 -47 1 -41 2 -45 12
-28 15 25 20 63 13 93 -7 29 -45 31 -45 2z"/>
<path d="M5120 4489 c0 -22 25 -26 33 -5 3 8 -2 16 -14 19 -14 4 -19 0 -19
-14z"/>
<path d="M5050 4084 c0 -6 6 -14 14 -17 10 -4 14 0 13 12 -1 20 -27 25 -27 5z"/>
<path d="M2650 4664 c0 -8 5 -12 10 -9 6 3 10 10 10 16 0 5 -4 9 -10 9 -5 0
-10 -7 -10 -16z"/>
<path d="M3110 4520 c0 -5 5 -10 11 -10 5 0 7 5 4 10 -3 6 -8 10 -11 10 -2 0
-4 -4 -4 -10z"/>
<path d="M3145 4511 c-3 -6 4 -15 15 -21 20 -11 21 -10 10 9 -12 23 -16 25
-25 12z"/>
<path d="M5890 4304 c0 -8 5 -12 10 -9 6 3 10 10 10 16 0 5 -4 9 -10 9 -5 0
-10 -7 -10 -16z"/>
<path d="M3149 3938 c-9 -41 -7 -46 20 -58 39 -16 62 -10 73 19 7 20 6 22 -7
11 -12 -10 -21 -8 -50 10 -19 12 -35 20 -36 18z"/>
<path d="M3028 3858 c-9 -5 -6 -8 9 -8 12 0 24 4 27 8 7 11 -19 11 -36 0z"/>
<path d="M3090 3851 c0 -6 -5 -10 -11 -8 -23 5 -18 -18 6 -30 23 -10 25 -9 25
12 0 13 -4 27 -10 30 -5 3 -10 1 -10 -4z"/>
<path d="M3120 3806 c0 -2 7 -7 16 -10 8 -3 12 -2 9 4 -6 10 -25 14 -25 6z"/>
<path d="M3811 3626 c-12 -12 -21 -34 -21 -49 0 -27 0 -27 29 -12 31 16 63 53
56 65 -12 19 -45 16 -64 -4z"/>
<path d="M3626 3586 c7 -19 80 -43 117 -38 21 3 27 9 27 26 0 22 -4 24 -75 25
-61 1 -74 -1 -69 -13z"/>
<path d="M4565 2050 c3 -5 10 -10 16 -10 5 0 9 5 9 10 0 6 -7 10 -16 10 -8 0
-12 -4 -9 -10z"/>
<path d="M4610 2030 c0 -5 5 -10 11 -10 5 0 7 5 4 10 -3 6 -8 10 -11 10 -2 0
-4 -4 -4 -10z"/>
<path d="M4494 2005 c26 -19 42 -19 26 0 -7 8 -20 15 -29 15 -13 -1 -13 -3 3
-15z"/>
<path d="M4606 1851 c-4 -5 -1 -22 5 -38 l12 -28 8 29 c4 16 6 33 3 38 -7 11
-21 10 -28 -1z"/>
<path d="M4915 620 c-4 -7 2 -18 14 -26 12 -9 19 -20 16 -25 -4 -5 -2 -16 3
-25 8 -14 10 -13 11 7 1 13 2 35 4 49 1 19 -3 26 -20 28 -11 2 -24 -2 -28 -8z"/>
<path d="M4850 461 c0 -6 5 -13 10 -16 6 -3 10 1 10 9 0 9 -4 16 -10 16 -5 0
-10 -4 -10 -9z"/>
<path d="M4985 370 c-18 -8 -18 -9 -2 -9 14 -1 16 -5 7 -20 -7 -14 -7 -22 1
-27 14 -8 29 14 29 44 0 24 -4 25 -35 12z"/>
<path d="M4916 353 c5 -5 12 -12 15 -16 3 -5 9 -2 12 7 5 12 0 16 -15 16 -12
0 -17 -3 -12 -7z"/>
<path d="M4956 335 c-3 -8 -1 -15 4 -15 6 0 10 7 10 15 0 8 -2 15 -4 15 -2 0
-6 -7 -10 -15z"/>
</g>
</svg>
