<?xml version="1.0" standalone="no"?>
<!DOCTYPE svg PUBLIC "-//W3C//DTD SVG 20010904//EN"
 "http://www.w3.org/TR/2001/REC-SVG-20010904/DTD/svg10.dtd">
<svg version="1.0" xmlns="http://www.w3.org/2000/svg"
 width="800.000000pt" height="800.000000pt" viewBox="0 0 800.000000 800.000000"
 preserveAspectRatio="xMidYMid meet">
<metadata>
Created by potrace 1.16, written by Peter Selinger 2001-2019
</metadata>
<g transform="translate(0.000000,800.000000) scale(0.100000,-0.100000)"
fill="#000000" stroke="none">
<path d="M0 4725 c0 -3256 0 -3275 20 -3275 11 0 27 11 35 24 18 28 89 46 108
27 5 -5 17 -32 26 -58 15 -44 19 -49 59 -57 50 -12 55 -26 8 -26 -40 0 -82 35
-91 77 -12 50 -14 53 -49 53 -29 0 -38 -5 -51 -30 -11 -21 -23 -30 -40 -30
l-25 0 0 -715 0 -715 1090 0 c964 0 1089 2 1084 15 -4 8 -15 15 -27 15 -11 0
-18 3 -14 6 7 8 -22 39 -45 47 -12 4 -18 1 -18 -8 0 -8 -5 -26 -12 -39 -11
-25 -11 -26 -25 -6 -8 11 -21 20 -29 20 -8 0 -14 2 -14 4 0 7 111 196 116 196
2 0 2 -13 1 -29 -1 -16 -5 -27 -8 -26 -3 2 -23 -25 -44 -61 -28 -48 -35 -68
-27 -76 14 -14 22 -7 26 19 5 30 58 21 100 -17 20 -18 36 -39 36 -47 0 -11
484 -13 2905 -13 l2905 0 0 90 c0 53 -4 90 -10 90 -5 0 -10 10 -10 23 0 18 2
19 10 7 6 -10 10 1299 10 3703 l0 3718 -25 24 c-13 14 -29 25 -35 25 -6 0 -9
4 -5 9 6 11 -26 31 -50 31 -9 0 -23 -7 -31 -15 -9 -8 -22 -15 -30 -15 -12 0
-12 3 -2 20 7 11 20 20 28 20 8 0 25 3 37 6 16 4 33 -5 67 -36 l46 -43 0 172
0 171 -227 0 -227 0 36 -37 c31 -33 68 -91 68 -108 0 -15 -20 -2 -26 17 -3 12
-29 46 -57 75 l-50 53 -1995 0 c-1591 0 -1993 -3 -1989 -12 24 -65 12 -82 -16
-23 l-17 35 -1750 0 -1750 0 0 -3275z m7913 3085 c8 -30 -5 -24 -30 15 -16 23
-28 33 -39 28 -10 -4 -14 -1 -12 8 1 8 -7 28 -20 46 -12 17 -22 35 -22 39 0
14 117 -115 123 -136z m-2693 120 c0 -5 -9 -10 -21 -10 -11 0 -17 5 -14 10 3
6 13 10 21 10 8 0 14 -4 14 -10z m-1250 -100 c-5 -29 -10 -71 -10 -94 -1 -34
-2 -38 -11 -23 -12 20 -4 112 12 155 15 40 20 20 9 -38z m-330 31 c0 -13 -29
-35 -37 -28 -7 8 15 37 28 37 5 0 9 -4 9 -9z m-600 -145 c-1 -6 -14 4 -30 23
-16 19 -27 38 -24 43 7 10 54 -50 54 -66z m1385 23 c5 -5 -5 -9 -27 -9 -31 0
-37 -4 -47 -30 -13 -38 -25 -39 -18 -1 6 27 3 29 -29 35 -19 4 -33 10 -30 14
6 10 139 2 151 -9z m3199 -31 c3 -13 0 -29 -7 -36 -11 -10 -13 -6 -13 23 0 39
11 46 20 13z m-4036 -50 c-14 -18 -39 -37 -56 -42 -16 -4 -34 -17 -39 -28 -8
-18 -10 -18 -21 -5 -11 13 -5 19 42 41 31 15 60 35 66 46 6 11 16 20 22 20 6
0 -1 -15 -14 -32z m386 0 c3 -13 6 -32 6 -42 0 -29 -17 -7 -25 32 -7 36 9 45
19 10z m-344 -38 c0 -6 -11 -16 -25 -22 -14 -6 -25 -19 -25 -29 0 -34 -22 -67
-49 -72 -14 -3 -28 -2 -31 2 -12 18 -44 21 -66 6 -21 -13 -23 -13 -18 0 4 8
11 15 16 15 19 0 -56 45 -94 57 -33 9 -37 9 -46 -11 l-11 -21 0 23 c-1 24 -31
32 -31 7 0 -8 -4 -15 -10 -15 -5 0 -10 9 -10 20 0 16 7 20 33 21 47 2 57 0
113 -25 36 -17 56 -21 67 -14 11 6 17 5 17 -1 0 -20 33 -41 66 -41 33 0 34 1
34 38 0 33 4 41 33 55 40 20 37 19 37 7z m2990 -45 c7 -14 11 -28 7 -31 -3 -3
-13 8 -22 25 -8 17 -12 31 -7 31 5 0 15 -11 22 -25z m-3660 6 c0 -5 -7 -14
-15 -21 -12 -10 -15 -10 -15 2 0 8 3 18 7 21 9 10 23 9 23 -2z m748 -34 c12
-14 10 -165 -2 -185 -10 -17 -51 -15 -66 3 -16 20 -10 156 9 179 16 19 44 21
59 3z m3876 -46 c-13 -12 -197 -72 -202 -66 -9 9 4 15 104 49 94 32 119 36 98
17z m-4114 -1 c0 -5 -4 -10 -10 -10 -5 0 -10 5 -10 10 0 6 5 10 10 10 6 0 10
-4 10 -10z m-683 -52 c-3 -7 -5 -2 -5 12 0 14 2 19 5 13 2 -7 2 -19 0 -25z
m2882 8 c14 -17 4 -66 -13 -66 -22 0 -26 13 -8 27 16 12 16 14 0 27 -10 7 -18
16 -18 20 0 11 27 6 39 -8z m-2195 -18 c9 -12 16 -18 16 -14 0 5 2 7 5 4 8 -7
-26 -78 -37 -78 -12 0 -10 13 7 37 13 18 12 22 -5 38 -11 10 -20 22 -20 27 0
16 19 8 34 -14z m-390 -87 c-5 -5 -21 -11 -36 -15 -40 -9 -35 12 5 22 34 10
46 7 31 -7z m831 -16 c-16 -13 -31 -22 -34 -20 -8 8 32 45 48 45 11 -1 7 -8
-14 -25z m1202 3 c-3 -8 -6 -5 -6 6 -1 11 2 17 5 13 3 -3 4 -12 1 -19z m-27
-22 c0 -3 -4 -8 -10 -11 -5 -3 -10 -1 -10 4 0 6 5 11 10 11 6 0 10 -2 10 -4z
m-320 -66 c0 -5 -4 -10 -10 -10 -5 0 -10 5 -10 10 0 6 5 10 10 10 6 0 10 -4
10 -10z m426 -55 c-7 -26 -39 -38 -56 -21 -8 8 -13 7 -20 -4 -7 -10 -10 -11
-10 -2 0 6 -7 12 -15 12 -9 0 -15 9 -15 25 0 14 5 25 10 25 6 0 10 -9 10 -21
0 -16 4 -19 21 -14 13 4 25 2 29 -5 11 -19 26 -5 35 32 5 24 9 28 12 15 3 -10
2 -29 -1 -42z m-406 20 c0 -8 -4 -15 -10 -15 -5 0 -10 7 -10 15 0 8 5 15 10
15 6 0 10 -7 10 -15z m170 -27 c0 21 20 13 20 -8 0 -12 -7 -20 -16 -20 -19 0
-43 28 -43 50 -1 10 6 6 19 -10 11 -14 20 -19 20 -12z m-161 -58 c1 -8 -9 -20
-21 -25 -14 -6 -25 -23 -29 -42 l-6 -33 58 0 c56 0 59 1 47 19 -7 11 -22 22
-35 26 -13 3 -23 10 -23 16 0 18 44 -1 71 -32 23 -26 25 -35 21 -89 l-4 -60
71 0 c69 0 72 1 83 28 8 20 12 23 15 10 2 -9 20 -22 40 -29 25 -8 39 -21 49
-44 7 -19 22 -40 33 -47 20 -14 51 -79 51 -106 0 -22 -14 -4 -30 38 -7 19 -25
49 -40 65 -15 17 -30 38 -33 48 -9 24 -57 42 -79 28 -10 -6 -63 -11 -118 -11
-99 0 -100 0 -100 -24 0 -14 4 -27 9 -30 5 -3 17 -38 26 -78 17 -68 38 -101
77 -124 8 -5 29 -39 46 -75 35 -75 63 -95 100 -71 12 8 26 12 30 8 4 -4 -1
-12 -11 -17 -9 -6 -17 -14 -17 -19 0 -6 44 -33 98 -60 53 -28 88 -48 77 -44
-11 3 -30 8 -42 9 -21 3 -23 -1 -23 -36 0 -21 -3 -39 -7 -39 -5 0 -19 -9 -33
-19 -24 -19 -24 -20 -6 -40 11 -12 31 -21 48 -21 15 0 28 -5 28 -11 0 -13 -68
-3 -87 13 -7 6 -22 8 -32 5 -12 -3 -27 3 -38 15 -13 15 -25 18 -51 13 -24 -4
-33 -3 -30 6 6 19 65 19 83 -1 18 -20 57 -16 49 5 -3 7 10 21 29 32 30 18 33
24 29 57 -4 31 -10 40 -46 58 -22 11 -49 27 -58 36 -15 12 -20 12 -33 2 -20
-16 -32 -5 -16 14 10 12 8 16 -8 21 -12 3 -30 31 -46 70 -20 47 -38 71 -65 90
-34 23 -40 35 -56 98 -14 58 -25 81 -59 118 -23 25 -47 54 -53 65 -24 45 -4
187 29 205 12 6 19 21 20 42 1 30 1 31 9 7 4 -14 8 -32 9 -40z m-699 4 c0 -11
18 -14 90 -14 53 0 90 -4 90 -10 0 -6 -36 -10 -89 -10 l-89 0 15 -60 c12 -47
20 -60 35 -60 10 0 36 -11 56 -25 31 -21 44 -24 87 -19 27 4 69 17 93 31 23
13 42 19 42 13 0 -6 -16 -20 -35 -31 -19 -12 -35 -26 -36 -32 0 -13 -59 -63
-59 -51 0 4 10 19 23 32 l22 25 -55 -6 c-48 -4 -59 -2 -85 19 -17 14 -43 24
-62 24 -27 0 -32 4 -38 33 -18 86 -26 106 -40 101 -8 -4 -15 -1 -15 5 0 6 7
11 15 11 9 0 15 10 15 26 0 14 4 23 10 19 6 -3 10 -13 10 -21z m883 -26 c4
-10 8 -9 17 2 9 13 11 12 8 -4 -2 -14 -13 -21 -36 -23 -33 -4 -40 5 -20 25 15
15 25 15 31 0z m-1199 -204 c4 -10 1 -14 -6 -12 -15 5 -23 28 -10 28 5 0 13
-7 16 -16z m3456 -16 c23 -1 25 -5 27 -52 4 -84 2 -86 -67 -69 -34 9 -60 21
-60 28 0 7 -6 15 -14 18 -13 5 -13 12 1 47 16 40 18 42 52 35 20 -3 47 -7 61
-7z m-617 -47 c5 -20 -16 -36 -42 -32 -7 1 -10 -2 -6 -8 3 -6 1 -11 -5 -11 -6
0 -10 10 -8 23 2 15 9 21 21 19 10 -2 17 3 17 13 0 22 17 19 23 -4z m-3856
-118 c-3 -10 -5 -4 -5 12 0 17 2 24 5 18 2 -7 2 -21 0 -30z m1013 18 c-5 -11
-15 -23 -21 -27 -6 -3 -3 5 6 20 20 30 30 35 15 7z m-1028 -63 c-6 -6 -15 -8
-19 -4 -4 4 -1 11 7 16 19 12 27 3 12 -12z m1008 -72 c-9 -26 -8 -28 13 -21
49 15 75 16 108 2 l34 -14 -57 5 c-50 4 -59 2 -80 -20 -13 -13 -28 -33 -35
-44 -10 -16 -11 -8 -7 41 3 33 8 78 11 100 l6 40 9 -30 c4 -18 4 -42 -2 -59z
m1027 20 c1 -23 11 -60 22 -82 12 -21 21 -44 21 -51 0 -6 5 -13 12 -15 6 -2
12 -21 12 -43 2 -40 21 -58 37 -34 6 10 9 7 10 -11 1 -14 1 -33 0 -42 -2 -17
10 -18 54 -3 20 7 20 6 1 -9 -11 -9 -23 -16 -28 -16 -4 0 -8 -8 -8 -17 0 -15
-2 -16 -10 -3 -11 16 -13 8 -10 -29 1 -13 10 -33 20 -44 24 -25 94 -39 112
-22 10 10 25 7 73 -15 33 -16 53 -29 44 -29 -9 -1 -36 8 -60 18 -48 22 -59 20
-59 -11 0 -19 -2 -20 -17 -6 -20 17 -89 23 -98 8 -8 -13 -45 -13 -45 0 0 6 -4
10 -10 10 -5 0 -10 -7 -10 -15 0 -8 -4 -15 -10 -15 -5 0 -10 5 -10 10 0 6 -18
10 -41 10 -24 0 -38 -4 -34 -10 8 -13 -1 -13 -25 2 -16 10 -24 10 -41 0 -18
-11 -23 -11 -35 5 -16 21 -17 30 -5 37 5 3 11 -1 15 -9 6 -17 56 -21 56 -4 0
6 7 9 15 6 8 -4 17 -2 20 3 4 6 11 10 16 10 6 0 7 -5 3 -12 -5 -8 9 -10 54 -5
35 3 62 1 62 -4 0 -5 5 -9 10 -9 15 0 12 36 -4 49 -8 7 -15 20 -15 29 -2 45
-7 71 -13 78 -4 4 -3 13 2 19 12 15 -15 29 -32 18 -8 -4 -9 4 -5 24 6 30 -9
89 -30 114 -12 15 -25 53 -29 84 -1 11 -5 32 -9 48 -5 19 -3 27 6 27 10 0 15
-14 16 -44z m2238 4 c3 -5 -1 -10 -9 -10 -9 0 -16 5 -16 10 0 6 4 10 9 10 6 0
13 -4 16 -10z m-3215 -10 c-19 -13 -30 -13 -30 0 0 6 10 10 23 10 18 0 19 -2
7 -10z m702 -37 c39 -38 35 -49 -7 -17 -19 14 -35 30 -35 35 0 15 13 10 42
-18z m-4212 -58 c0 -8 -4 -15 -9 -15 -5 0 -14 7 -21 15 -10 13 -9 15 9 15 12
0 21 -6 21 -15z m4104 0 c41 -17 45 -36 16 -80 -25 -38 -25 -59 1 -101 25 -42
20 -68 -5 -29 -27 41 -33 109 -12 139 22 35 20 45 -11 57 -19 7 -35 7 -53 -1
-29 -12 -80 -4 -80 12 0 5 13 7 30 3 16 -3 37 -2 47 4 24 14 24 14 67 -4z
m-664 -44 c0 -6 -4 -13 -10 -16 -5 -3 -10 1 -10 9 0 9 5 16 10 16 6 0 10 -4
10 -9z m-465 -11 c-3 -5 -14 -10 -23 -9 -14 0 -13 2 3 9 27 11 27 11 20 0z
m3563 -145 c-6 -14 -15 -25 -20 -25 -5 0 -4 8 1 19 12 22 5 32 -17 24 -9 -4
-13 -2 -9 4 7 12 -40 36 -54 28 -5 -4 -9 -12 -9 -19 0 -8 -11 -16 -25 -18 -14
-3 -25 -1 -25 3 0 5 7 9 16 9 8 0 20 13 25 30 l11 29 59 -29 c56 -29 58 -31
47 -55z m-2608 53 c0 -7 -9 -69 -19 -137 l-18 -123 29 -10 c15 -5 28 -14 28
-20 0 -6 -7 -7 -16 -4 -47 18 -60 17 -71 -6 -6 -13 -40 -61 -77 -106 -59 -76
-66 -88 -66 -129 0 -37 2 -43 14 -34 10 9 16 8 25 -3 7 -8 18 -13 25 -10 7 3
25 -5 40 -17 27 -21 27 -23 10 -36 -12 -9 -14 -13 -4 -13 10 0 11 -3 3 -11 -7
-7 -18 -3 -38 17 l-27 27 28 -7 c24 -6 26 -5 14 9 -7 9 -19 14 -26 11 -7 -3
-18 2 -25 11 -12 13 -15 13 -31 -7 -25 -31 -23 -93 6 -181 13 -41 27 -91 30
-111 l7 -37 77 28 c42 16 90 34 105 40 22 9 28 8 25 -1 -3 -7 -48 -28 -102
-47 l-97 -36 7 -38 c6 -37 -12 -127 -25 -127 -3 0 -6 35 -6 77 0 73 -1 78 -22
81 -28 4 -30 22 -3 22 24 0 23 5 -17 140 -23 77 -24 95 -18 197 l7 112 64 82
c100 126 110 149 124 269 6 58 14 113 16 123 6 19 24 23 24 5z m2392 -84 c-13
-9 -26 -13 -30 -9 -8 8 17 25 38 25 9 0 6 -6 -8 -16z m-1132 -52 c13 -30 2
-45 -14 -18 -6 10 -21 28 -33 39 -13 11 -23 25 -23 29 0 17 58 -25 70 -50z
m-920 14 c0 -15 -28 -42 -35 -34 -3 2 1 16 7 30 13 26 28 28 28 4z m1996 9
c-11 -8 -25 -15 -30 -15 -6 0 -2 7 8 15 11 8 25 15 30 15 6 0 2 -7 -8 -15z
m-2111 -105 c3 -5 2 -10 -4 -10 -5 0 -13 5 -16 10 -3 6 -2 10 4 10 5 0 13 -4
16 -10z m775 -38 c0 -8 -1 -13 -3 -11 -1 2 -9 12 -16 22 -12 15 -12 17 3 11 9
-3 16 -13 16 -22z m2094 9 c17 -18 13 -51 -6 -51 -15 0 -37 32 -38 53 0 22 23
22 44 -2z m-1708 -7 c-3 -9 -6 -21 -6 -28 0 -7 -18 -19 -41 -26 -44 -15 -53
-29 -61 -95 l-5 -40 53 0 53 0 12 43 c6 23 16 42 21 42 6 0 7 -8 3 -17 -4 -10
-12 -46 -17 -81 -12 -68 -1 -107 31 -115 10 -3 7 -5 -7 -6 -15 -1 -26 -9 -29
-21 -3 -11 -12 -20 -19 -20 -8 0 -14 -7 -14 -15 0 -8 -5 -15 -11 -15 -6 0 -8
7 -5 17 6 16 6 16 -12 0 -10 -9 -29 -17 -41 -17 -18 0 -21 -4 -16 -21 5 -15 3
-20 -6 -17 -20 7 -30 68 -17 101 6 15 8 30 6 33 -3 2 -18 -25 -34 -61 -22 -52
-25 -71 -17 -84 9 -14 7 -21 -7 -33 -10 -10 -21 -37 -25 -67 -4 -32 -12 -51
-20 -51 -8 0 -17 -9 -20 -20 -3 -11 -10 -20 -15 -20 -4 0 -11 -24 -15 -52 -8
-59 -24 -99 -25 -61 0 53 23 127 50 155 18 18 30 45 34 73 4 25 11 47 17 50 5
4 7 16 4 28 -4 13 6 49 25 89 16 37 30 70 30 73 0 3 -18 5 -39 5 -22 0 -41 5
-43 11 -16 49 -122 -118 -150 -236 -13 -56 -27 -89 -47 -110 -49 -53 -78 -99
-96 -152 -15 -48 -35 -67 -49 -44 -12 20 -111 20 -200 1 -49 -11 -95 -20 -101
-20 -14 0 -39 50 -29 59 4 3 8 2 11 -4 14 -37 18 -38 115 -18 65 13 113 17
157 13 l63 -6 19 44 c11 24 19 47 19 52 0 4 7 13 16 21 14 11 13 14 -7 30 -21
16 -22 18 -7 56 18 43 26 118 15 129 -11 11 -8 26 3 19 6 -4 31 10 55 30 51
42 62 30 13 -14 l-33 -29 28 -7 c40 -10 33 -27 -8 -19 -32 6 -35 4 -35 -18 0
-20 5 -23 39 -24 39 -1 39 -1 46 42 7 49 65 166 101 205 26 27 30 39 14 39 -5
0 -10 -6 -10 -14 0 -8 -6 -16 -14 -19 -9 -4 -16 9 -24 41 -12 53 -8 66 18 59
13 -3 17 0 13 9 -3 8 0 14 6 14 6 0 11 14 11 30 0 17 5 30 11 30 6 0 9 -6 6
-12 -2 -7 0 -21 4 -30 6 -12 5 -20 -6 -25 -8 -5 -16 -20 -17 -33 -2 -19 2 -26
17 -28 14 -2 34 15 68 58 27 33 53 60 58 60 13 0 12 -2 -15 -39 -21 -28 -23
-36 -13 -52 10 -16 9 -21 -3 -29 -8 -5 -11 -12 -7 -16 16 -16 42 29 52 88 9
54 14 64 40 78 32 16 65 48 65 62 0 4 5 8 11 8 6 0 8 -7 5 -16z m-458 -25 c19
-17 31 -33 28 -36 -3 -4 -20 7 -37 23 l-30 29 -27 -33 c-26 -30 -72 -45 -72
-22 0 6 9 10 20 10 11 0 29 14 42 30 27 37 35 37 76 -1z m1646 -49 c5 -46 4
-60 -3 -49 -15 23 -27 137 -13 124 5 -5 13 -39 16 -75z m-1264 66 c0 -11 -19
-15 -25 -6 -3 5 1 10 9 10 9 0 16 -2 16 -4z m-656 -84 c-37 -41 -76 -70 -112
-87 -77 -35 -90 -25 -17 13 34 17 86 57 120 92 76 79 84 63 9 -18z m341 59 c3
-5 1 -12 -5 -16 -5 -3 -10 1 -10 9 0 18 6 21 15 7z m1710 -39 c6 -22 5 -22
-14 -10 -21 13 -28 38 -14 52 8 7 17 -7 28 -42z m-1415 33 c0 -2 -6 -8 -13
-14 -10 -8 -14 -7 -14 2 0 8 6 14 14 14 7 0 13 -1 13 -2z m-2990 -39 c0 -19
-20 -32 -21 -14 0 7 -5 3 -11 -9 -6 -13 -15 -23 -20 -23 -5 0 -2 14 7 30 16
31 45 41 45 16z m4155 4 c-3 -5 -1 -10 4 -10 18 0 12 -19 -9 -30 -25 -13 -60
-4 -60 16 0 10 8 13 24 10 15 -3 27 1 30 10 3 8 8 14 11 14 4 0 3 -4 0 -10z
m175 -36 c0 -8 -9 -14 -20 -14 -23 0 -25 6 -7 24 14 16 27 11 27 -10z m-1167
-56 c8 -78 3 -149 -8 -145 -5 2 -9 19 -7 38 4 56 3 92 -3 127 -3 18 -2 32 4
32 5 0 12 -24 14 -52z m-33 -62 c0 -8 -4 -18 -10 -21 -5 -3 -10 3 -10 14 0 12
5 21 10 21 6 0 10 -6 10 -14z m1340 -16 c-37 -52 -52 -50 -27 3 6 15 20 27 30
27 17 0 17 -2 -3 -30z m-2333 -12 c-3 -7 -5 -2 -5 12 0 14 2 19 5 13 2 -7 2
-19 0 -25z m-2666 -9 c-13 -10 -28 -19 -35 -19 -6 1 2 12 19 25 16 13 32 22
35 19 3 -3 -6 -14 -19 -25z m2679 -44 c0 -14 -4 -25 -10 -25 -5 0 -10 11 -10
25 0 14 5 25 10 25 6 0 10 -11 10 -25z m-50 -15 c0 -5 -8 -10 -19 -10 -10 0
-30 -10 -45 -21 -32 -25 -47 -18 -22 10 23 25 86 40 86 21z m-3037 -26 c6 -7
-14 -44 -24 -44 -3 0 -4 11 -1 25 4 25 13 31 25 19z m3492 -24 c17 -33 18 -40
8 -40 -11 0 -42 57 -35 64 9 9 11 8 27 -24z m725 15 c0 -10 -142 -200 -152
-204 -16 -5 -9 6 67 112 60 84 85 111 85 92z m-944 -109 c25 -19 12 -31 -16
-16 -14 8 -42 9 -81 5 -38 -5 -59 -3 -59 3 0 22 128 28 156 8z m-181 -13 c-4
-10 -9 -25 -12 -33 -5 -18 -42 -44 -51 -36 -3 4 4 15 15 26 12 11 24 28 28 40
3 11 11 20 17 20 6 0 7 -7 3 -17z m-1755 -110 c-12 -15 -42 -39 -67 -53 -44
-24 -48 -29 -65 -96 -18 -67 -21 -72 -62 -92 -24 -11 -60 -35 -80 -53 -20 -17
-40 -29 -44 -25 -9 10 64 71 110 92 34 15 38 22 48 73 15 79 25 93 80 120 27
13 59 35 71 47 30 32 37 22 9 -13z m540 -173 c27 -54 46 -101 42 -104 -8 -5
-132 235 -132 257 0 17 32 -37 90 -153z m-3395 90 c-3 -5 -15 -10 -26 -10 -11
0 -17 5 -14 10 3 6 15 10 26 10 11 0 17 -4 14 -10z m305 -20 c8 -5 12 -12 9
-15 -8 -8 -39 5 -39 16 0 11 11 11 30 -1z m-295 -33 c11 4 13 1 9 -11 -3 -9
-9 -16 -13 -16 -13 0 -31 24 -31 40 1 12 2 12 11 -2 5 -10 16 -15 24 -11z
m3082 -4 c-9 -9 -20 -14 -24 -10 -3 4 2 14 13 21 25 19 33 10 11 -11z m-2729
-1 c6 -18 -15 -14 -22 4 -4 10 -1 14 6 12 6 -2 14 -10 16 -16z m38 -59 c-4 -4
-11 -1 -16 7 -16 25 -11 35 7 17 9 -9 13 -20 9 -24z m2734 13 c0 -15 -18 -31
-26 -23 -7 7 7 37 17 37 5 0 9 -6 9 -14z m-2694 -53 c-7 -7 -26 7 -26 19 0 6
6 6 15 -2 9 -7 13 -15 11 -17z m5297 -40 c13 -25 15 -39 8 -46 -8 -8 -11 -2
-11 18 0 23 -3 26 -12 17 -18 -18 -30 -14 -20 6 5 9 7 23 5 30 -10 28 13 9 30
-25z m-63 -32 c-11 -21 -30 -37 -30 -25 0 8 30 44 37 44 2 0 -1 -9 -7 -19z
m104 4 c-4 -8 -8 -15 -10 -15 -2 0 -4 7 -4 15 0 8 4 15 10 15 5 0 7 -7 4 -15z
m-4254 -5 c0 -5 -2 -10 -4 -10 -3 0 -8 5 -11 10 -3 6 -1 10 4 10 6 0 11 -4 11
-10z m4187 -25 c9 -25 -4 -29 -17 -6 -7 15 -7 21 0 21 6 0 13 -7 17 -15z m-90
-32 c-9 -9 -20 -13 -24 -9 -4 4 1 14 11 22 25 18 35 8 13 -13z m-4090 -8 c-4
-8 -11 -15 -17 -15 -7 0 -7 6 0 21 13 23 26 19 17 -6z m3793 6 c0 -5 7 -8 16
-7 33 2 23 -19 -13 -31 -40 -12 -59 -8 -31 8 10 5 15 16 12 24 -4 8 -1 15 5
15 6 0 11 -4 11 -9z m-2850 -13 c0 -19 -18 -43 -25 -36 -4 3 -2 16 5 27 12 24
20 27 20 9z m910 3 c0 -8 -52 -31 -71 -31 -21 0 -6 17 24 27 44 14 47 14 47 4z
m2387 -52 c1 -24 0 -26 -4 -9 -6 31 -23 51 -23 27 0 -18 -25 -23 -35 -7 -3 5
-12 7 -20 3 -24 -9 -7 23 18 35 33 15 62 -7 64 -49z m-820 38 c22 -1 24 -29 3
-44 -11 -8 -20 -20 -18 -26 4 -23 -13 -55 -32 -60 -25 -6 -26 8 -2 22 9 6 11
11 5 11 -19 0 -16 18 8 48 18 24 19 28 5 38 -21 15 -20 28 2 19 9 -4 22 -8 29
-8z m-3456 -50 c-8 -8 -11 -7 -11 4 0 20 13 34 18 19 3 -7 -1 -17 -7 -23z m49
19 c0 -3 -4 -8 -10 -11 -5 -3 -10 -1 -10 4 0 6 5 11 10 11 6 0 10 -2 10 -4z
m1239 -62 c41 -31 85 -60 98 -65 22 -8 32 -29 14 -29 -4 0 -35 18 -67 41 -33
22 -76 52 -96 66 -35 24 -49 43 -30 43 4 0 40 -25 81 -56z m2957 20 c-3 -7 -1
-16 4 -19 21 -13 8 -20 -31 -17 -31 3 -39 8 -37 21 2 9 13 16 26 15 12 0 22 5
22 13 0 8 5 11 11 8 6 -4 8 -13 5 -21z m-2616 -12 c0 -5 -9 -17 -20 -27 -14
-13 -17 -22 -10 -35 11 -21 1 -118 -13 -127 -6 -4 -8 15 -3 53 3 32 2 66 -3
73 -7 10 -3 24 10 43 20 27 39 37 39 20z m2492 -87 c20 -14 48 -25 62 -25 15
0 26 -5 26 -11 0 -17 -65 -4 -99 20 -22 16 -44 21 -96 21 -36 0 -75 -5 -86
-10 -21 -12 -26 -1 -7 18 7 7 42 12 88 12 64 0 81 -4 112 -25z m-1623 -92 c1
-36 -3 -63 -9 -63 -6 0 -10 34 -9 83 1 97 17 79 18 -20z m-2829 77 c0 -5 -7
-10 -15 -10 -8 0 -15 5 -15 10 0 6 7 10 15 10 8 0 15 -4 15 -10z m1820 -34
c47 -31 80 -63 80 -78 0 -13 -17 -9 -23 6 -3 8 -33 33 -66 56 -34 22 -61 45
-61 51 0 11 6 9 70 -35z m1919 -3 c-1 -20 -3 -22 -6 -9 -3 12 -7 15 -12 7 -5
-8 -13 -7 -27 5 -16 13 -16 15 -1 10 9 -3 17 -1 17 4 0 6 7 10 15 10 10 0 15
-9 14 -27z m-1389 -134 c0 -5 23 -21 52 -35 29 -14 77 -50 107 -79 32 -30 62
-50 70 -47 9 3 7 -6 -7 -26 -27 -37 -28 -62 -3 -62 10 0 50 -31 88 -70 62 -63
71 -68 88 -56 11 8 15 18 10 26 -6 10 -4 12 8 7 10 -4 31 8 59 32 40 35 78 49
78 29 0 -5 -7 -17 -16 -25 -13 -14 -17 -14 -24 -2 -7 11 -10 9 -16 -6 -4 -11
-15 -29 -25 -41 -19 -20 -18 -21 11 -49 28 -27 30 -27 54 -11 14 9 25 22 23
29 -1 6 3 11 9 10 7 -1 15 9 18 23 4 16 12 24 20 21 16 -6 60 49 47 57 -5 4
-7 15 -4 26 3 11 9 17 14 14 5 -3 13 5 18 18 10 28 139 143 148 134 4 -4 -10
-20 -30 -37 -21 -17 -35 -34 -32 -39 3 -4 -2 -21 -10 -36 -8 -16 -15 -22 -15
-14 -1 11 -4 10 -15 -4 -8 -11 -15 -17 -15 -13 0 4 -9 -2 -21 -14 -14 -14 -19
-29 -16 -45 2 -14 -1 -24 -8 -24 -6 0 -18 -11 -25 -25 -7 -14 -19 -25 -26 -25
-6 0 -15 -7 -18 -16 -13 -33 5 -27 40 15 46 54 58 45 14 -10 -32 -40 -32 -43
-15 -55 10 -8 25 -14 32 -14 7 0 13 -4 13 -10 0 -13 -4 -13 -48 6 -24 10 -33
11 -24 3 18 -19 15 -39 -6 -39 -11 0 -27 -9 -38 -21 -14 -15 -15 -20 -4 -17 9
2 14 -3 12 -12 -2 -11 1 -10 12 3 8 10 17 14 20 9 3 -5 -1 -15 -9 -22 -10 -8
-13 -21 -9 -34 6 -20 6 -20 -13 -3 -11 9 -25 17 -31 17 -7 0 -12 8 -13 18 0
10 -3 12 -6 4 -2 -6 -9 -10 -13 -7 -5 3 -14 -4 -21 -17 -9 -16 -9 -23 0 -26
16 -5 14 -22 -4 -22 -12 0 -15 -14 -15 -62 0 -35 -6 -102 -14 -150 -8 -59 -9
-91 -2 -98 5 -5 6 -13 2 -17 -4 -4 -11 -1 -16 7 -8 13 -12 12 -24 -5 -25 -33
-66 -118 -66 -137 0 -10 -7 -18 -15 -18 -8 0 -15 6 -15 14 0 8 -6 16 -12 18
-9 3 -8 9 5 22 9 10 17 28 17 42 0 18 5 23 21 21 12 -1 24 4 26 11 3 7 -1 10
-10 6 -11 -4 -13 1 -9 21 4 22 9 26 28 22 31 -6 30 8 -2 50 l-26 35 -44 -43
c-24 -24 -46 -40 -49 -37 -4 3 9 28 29 55 l35 49 -97 86 -97 85 -48 -74 c-40
-61 -47 -77 -36 -89 14 -17 3 -32 -13 -16 -8 8 -24 -11 -62 -71 -51 -82 -76
-130 -76 -147 0 -5 9 -12 21 -15 23 -8 140 -127 174 -178 23 -34 42 -117 26
-117 -5 0 -12 18 -16 40 -11 63 -123 201 -194 240 -19 10 -23 7 -42 -37 -12
-26 -23 -66 -26 -88 l-5 -40 61 -30 c34 -16 61 -32 61 -37 0 -14 -18 -9 -71
17 l-50 26 6 -23 c3 -13 10 -57 15 -98 5 -41 13 -76 19 -78 17 -6 13 -32 -5
-32 -15 0 -16 -9 -10 -61 3 -34 6 -77 6 -95 0 -33 1 -34 43 -35 35 0 47 -6 71
-35 16 -19 26 -37 23 -41 -4 -3 -18 9 -32 26 -22 26 -34 31 -70 31 l-43 0 -6
-62 c-4 -35 -2 -79 4 -98 5 -19 10 -47 10 -62 0 -21 5 -28 20 -28 11 0 20 -4
20 -9 0 -8 -151 -23 -159 -15 -2 2 8 22 23 45 23 34 31 40 52 35 27 -7 28 -5
14 46 -7 23 -7 57 -2 92 7 45 6 56 -5 56 -7 0 -13 5 -13 10 0 6 6 10 14 10 17
0 26 69 13 102 -5 13 -5 47 -2 77 4 33 0 100 -11 178 l-18 125 27 74 c20 58
24 79 16 93 -9 13 -7 25 5 49 21 40 16 48 -34 63 -22 7 -40 18 -40 25 0 15 9
12 82 -23 26 -13 50 -23 52 -23 5 0 86 130 86 138 0 5 -21 28 -46 52 -25 25
-57 62 -71 84 l-25 39 -53 -53 c-36 -36 -51 -58 -47 -69 4 -10 -6 -6 -27 12
-18 15 -38 27 -45 27 -14 0 -56 -53 -56 -70 0 -6 -4 -8 -10 -5 -5 3 -10 44
-10 90 0 46 5 87 10 90 6 4 10 -19 10 -61 l0 -67 26 24 c24 22 27 23 53 8 26
-15 28 -15 69 21 23 21 42 45 42 54 0 15 -34 40 -55 41 -5 0 -10 17 -9 38 1
128 5 167 15 167 9 0 10 -25 5 -89 l-6 -88 41 -27 41 -28 29 28 c15 15 30 36
32 48 2 12 5 5 6 -15 1 -29 -4 -40 -26 -54 -23 -15 -24 -19 -10 -27 10 -5 17
-15 17 -21 0 -7 26 -39 58 -70 l59 -58 17 26 c10 15 15 36 13 47 -4 14 -1 18
8 14 9 -3 23 8 36 27 12 18 33 44 47 59 15 16 21 31 16 39 -5 8 -2 11 8 6 10
-3 27 7 47 27 34 35 39 49 16 40 -23 -9 -19 -1 25 47 25 27 40 38 40 28 0 -9
-9 -24 -20 -34 -14 -13 -17 -21 -9 -31 7 -8 7 -14 -1 -19 -6 -3 -8 -11 -4 -16
8 -13 -15 -39 -35 -39 -9 0 -31 -16 -49 -34 l-33 -33 98 -89 c54 -49 115 -108
137 -132 21 -24 42 -39 47 -35 4 4 10 50 14 101 8 102 -3 121 -33 55 -14 -34
-16 -36 -20 -15 -2 14 4 33 16 45 11 12 22 36 25 52 4 25 -2 38 -33 74 -53 61
-41 71 15 14 l44 -47 9 25 c6 14 27 41 47 61 36 34 41 66 9 54 -8 -3 -31 13
-56 39 -39 43 -42 45 -58 28 -17 -17 -16 -20 21 -58 40 -42 50 -61 25 -52 -8
3 -13 -1 -12 -11 0 -9 -5 -17 -11 -17 -7 0 -13 4 -12 9 0 5 -5 12 -12 17 -10
6 -10 11 -1 22 14 16 6 28 -13 21 -7 -3 -15 1 -18 9 -3 8 -17 13 -36 12 -35
-2 -35 -1 -21 25 7 13 7 21 0 25 -5 3 -10 15 -10 25 0 21 -92 100 -115 100
-48 0 -58 -29 -20 -54 14 -9 25 -12 25 -7 0 6 7 8 15 5 12 -5 14 -2 8 12 -6
17 -5 17 10 5 13 -10 15 -17 6 -27 -7 -9 -8 -14 -1 -14 11 0 22 -45 13 -57 -3
-4 -13 -12 -22 -18 -9 -5 -56 -42 -105 -82 -49 -40 -92 -73 -96 -73 -20 0 -4
20 40 51 68 49 133 110 126 120 -3 5 4 9 15 9 32 0 34 18 4 36 -95 59 -132 86
-146 107 -12 19 -22 23 -42 19 -24 -4 -26 -8 -21 -38 6 -29 4 -33 -14 -31 -21
1 -25 21 -14 65 5 17 14 22 37 22 17 0 27 3 23 7 -4 4 -37 7 -73 8 l-67 0 -17
45 c-13 36 -26 50 -65 72 -72 41 -151 63 -170 47 -20 -17 -31 -2 -13 17 21 20
87 4 180 -42 65 -32 71 -40 93 -106 4 -14 17 -18 61 -18 59 0 63 4 39 38 -8
12 -11 22 -5 22 5 0 16 -9 24 -20 8 -11 40 -38 72 -61 l58 -40 23 22 c13 12
24 25 24 28 0 18 -104 111 -151 135 -53 28 -58 34 -92 110 -19 44 -33 85 -29
90 5 9 72 -125 72 -145z m1119 101 c32 -57 20 -74 -12 -19 -29 49 -32 59 -19
59 5 0 18 -18 31 -40z m1911 19 c0 -5 -6 -6 -14 -3 -8 3 -30 -9 -50 -26 -32
-28 -40 -31 -76 -25 -54 9 -52 28 3 20 38 -6 45 -3 70 23 19 20 35 28 48 25
10 -3 19 -9 19 -14z m-2782 -53 c37 -24 101 -55 142 -67 84 -26 86 -27 78 -35
-4 -3 -39 4 -80 16 -69 21 -218 104 -218 122 0 13 7 10 78 -36z m643 12 c7
-18 46 -67 86 -109 40 -42 70 -79 67 -82 -14 -14 -182 183 -184 216 -1 19 19
3 31 -25z m898 -85 c42 -170 40 -163 66 -163 14 0 25 -4 25 -10 0 -13 -17 -13
-78 1 -44 9 -53 16 -85 62 -19 29 -37 69 -40 90 -7 48 9 49 18 1 10 -55 65
-133 94 -133 17 -1 22 3 17 15 -7 18 -56 209 -56 218 0 3 4 6 9 6 5 0 18 -39
30 -87z m-759 -28 c-7 -9 -15 -13 -17 -11 -7 7 7 26 19 26 6 0 6 -6 -2 -15z
m-350 -23 c0 -16 -49 -66 -56 -59 -4 4 5 21 21 37 31 32 35 35 35 22z m-3156
-30 c2 -4 1 -14 -4 -21 -6 -11 -13 -9 -31 8 l-23 21 27 0 c14 0 28 -4 31 -8z
m49 -48 c3 -3 3 -13 0 -21 -5 -12 -7 -12 -14 -1 -15 23 -4 40 14 22z m2771
-26 c19 -26 20 -38 5 -38 -11 0 -48 40 -49 53 0 16 30 6 44 -15z m-3092 -62
c-4 -23 -7 -58 -7 -78 1 -21 -2 -38 -6 -38 -15 0 -19 38 -9 89 5 29 7 65 4 80
-5 25 -5 25 10 7 12 -15 14 -30 8 -60z m-735 7 c15 -31 16 -28 -19 -37 -17 -4
-28 -2 -28 4 0 5 7 10 16 10 12 0 15 6 10 25 -8 33 6 32 21 -2z m3113 -62 c29
-51 40 -80 39 -108 l-1 -38 -7 36 c-4 19 -25 64 -46 100 -50 83 -48 79 -36 79
6 0 28 -31 51 -69z m842 37 c-6 -6 -15 -8 -19 -4 -4 4 -1 11 7 16 19 12 27 3
12 -12z m348 -9 c0 -5 -4 -9 -10 -9 -5 0 -10 7 -10 16 0 8 5 12 10 9 6 -3 10
-10 10 -16z m-382 0 c-2 -6 -8 -10 -13 -10 -5 0 -11 4 -13 10 -2 6 4 11 13 11
9 0 15 -5 13 -11z m-58 -34 c-6 -8 -9 -19 -5 -26 4 -6 1 -15 -6 -20 -22 -13
-28 -11 -26 11 1 11 5 20 9 20 4 0 8 9 8 19 0 11 6 21 13 24 17 6 21 -11 7
-28z m481 -86 c-12 -57 -23 -105 -26 -107 -13 -13 -11 10 6 93 27 129 31 141
36 128 2 -7 -5 -58 -16 -114z m-2726 101 c-3 -5 -13 -10 -21 -10 -8 0 -12 5
-9 10 3 6 13 10 21 10 8 0 12 -4 9 -10z m2280 -10 c3 -5 1 -10 -4 -10 -6 0
-11 5 -11 10 0 6 2 10 4 10 3 0 8 -4 11 -10z m401 -54 c-3 -13 -23 -41 -45
-61 -31 -30 -40 -46 -45 -86 -5 -34 -13 -52 -26 -59 -23 -13 -25 -3 -5 24 8
11 15 33 15 48 0 19 13 42 40 71 21 24 44 56 50 71 13 34 25 28 16 -8z m-706
14 c0 -5 -22 -10 -49 -10 -28 0 -52 -4 -55 -9 -4 -5 -25 -12 -49 -16 -29 -5
-54 -18 -79 -43 -46 -44 -51 -22 -6 25 22 23 41 33 62 33 17 1 42 7 56 15 29
16 120 20 120 5z m1858 -25 c56 -10 102 -23 102 -28 0 -5 -14 -7 -32 -3 -18 4
-64 12 -103 18 -70 11 -95 22 -95 40 0 7 4 7 13 1 6 -5 58 -18 115 -28z m-589
-2 c17 -15 23 -37 32 -120 11 -98 13 -103 35 -103 13 0 24 -6 24 -13 0 -7 21
-18 46 -25 44 -12 194 -107 194 -123 0 -4 9 -11 20 -14 11 -3 20 -11 20 -17 0
-16 -24 -3 -108 61 -63 48 -94 64 -156 81 l-78 22 -64 -69 c-34 -37 -63 -61
-64 -53 0 8 23 38 52 67 28 29 49 55 46 58 -3 3 -34 10 -69 15 -117 18 -130
21 -124 30 6 9 64 4 150 -15 33 -8 62 -11 64 -9 3 2 0 48 -6 101 -8 79 -14
100 -32 114 -11 9 -21 20 -21 23 0 11 18 6 39 -11z m-1089 -2 c0 -6 -4 -13
-10 -16 -5 -3 -10 1 -10 9 0 9 5 16 10 16 6 0 10 -4 10 -9z m240 -26 c13 -14
19 -25 13 -25 -5 0 -20 11 -33 25 -13 14 -19 25 -13 25 5 0 20 -11 33 -25z
m1727 -11 c62 -5 86 -11 99 -25 22 -24 10 -37 -14 -16 -12 11 -50 20 -113 27
-88 9 -95 8 -109 -10 -8 -11 -29 -24 -45 -28 -36 -10 -295 7 -295 19 0 11 27
11 159 -1 83 -7 110 -7 137 5 19 8 34 18 34 24 0 11 28 20 50 15 8 -2 52 -6
97 -10z m-2877 -9 c0 -3 -16 -30 -36 -60 -25 -38 -54 -65 -89 -85 -55 -31 -65
-35 -65 -22 0 4 23 20 51 37 30 18 64 50 86 82 31 46 53 65 53 48z m3916 -10
c-11 -8 -23 -15 -28 -15 -4 0 -8 -9 -8 -20 0 -11 -4 -20 -10 -20 -20 0 -10 47
13 58 34 17 56 15 33 -3z m-3676 -35 c12 -8 9 -10 -12 -10 -16 0 -28 5 -28 10
0 13 20 13 40 0z m1484 -1 c16 2 13 -3 -12 -28 -35 -35 -47 -40 -32 -12 5 11
7 27 3 37 -5 13 -3 15 8 8 8 -4 23 -7 33 -5z m274 -24 c2 -42 -7 -48 -32 -24
-18 17 -18 18 3 12 12 -3 21 -1 21 6 0 6 -12 11 -27 11 -29 0 -22 15 12 23 11
3 20 5 21 6 0 0 1 -15 2 -34z m-1708 10 c14 -16 10 -18 -14 -9 -9 3 -16 10
-16 15 0 14 16 11 30 -6z m1586 -16 c10 -17 -11 -31 -42 -26 -28 4 -28 5 -6
12 12 4 22 11 22 16 0 13 17 11 26 -2z m-1538 -27 c6 -18 -15 -14 -22 4 -4 10
-1 14 6 12 6 -2 14 -10 16 -16z m942 -52 c21 -13 10 -19 -23 -13 -21 4 -25 8
-15 14 16 11 20 11 38 -1z m1265 -26 c-22 -16 -46 -15 -52 3 -3 7 9 13 29 15
42 4 48 0 23 -18z m-1611 -123 c24 -27 7 -27 -27 -1 -14 11 -30 20 -36 20 -6
0 -11 9 -11 21 0 20 0 20 28 1 15 -11 36 -29 46 -41z m-1184 -8 c0 -18 -4 -33
-10 -33 -5 0 -10 21 -10 48 0 34 3 43 10 32 5 -8 10 -30 10 -47z m2306 -1
c-12 -11 -18 7 -10 30 l8 23 4 -23 c2 -13 1 -26 -2 -30z m-465 21 c12 -15 12
-16 -5 -10 -14 6 -27 0 -47 -19 -28 -27 -29 -27 -49 -9 -23 21 -18 34 5 15 14
-11 20 -9 43 13 31 32 35 32 53 10z m509 -45 c0 -5 -7 -8 -15 -8 -8 0 -15 -8
-15 -17 0 -15 -2 -16 -10 -3 -16 25 -11 38 15 36 14 0 25 -4 25 -8z m-1235
-134 c4 -46 3 -64 -3 -54 -6 8 -13 47 -17 85 -4 48 -3 65 4 54 6 -8 13 -47 16
-85z m-508 20 c24 -9 43 -21 43 -26 0 -6 -6 -8 -12 -5 -7 2 -30 10 -50 18 -21
7 -38 17 -38 21 0 11 9 10 57 -8z m1058 -205 c-9 -17 -19 -29 -21 -26 -3 3 2
19 10 36 10 19 17 61 18 118 l2 88 3 -92 c3 -71 0 -100 -12 -124z m-595 191
c0 -5 -6 -10 -12 -10 -7 0 -23 -3 -35 -6 -17 -5 -23 -2 -23 10 0 12 9 16 35
16 19 0 35 -4 35 -10z m585 -29 c-3 -6 -11 -11 -17 -11 -6 0 -6 6 2 15 14 17
26 13 15 -4z m2712 -3 c-3 -8 -6 -5 -6 6 -1 11 2 17 5 13 3 -3 4 -12 1 -19z
m-1957 -7 c0 -12 -102 -93 -108 -86 -6 6 88 94 101 95 4 0 7 -4 7 -9z m522
-26 c-2 -14 -9 -25 -14 -25 -6 0 -8 7 -4 15 4 11 -1 15 -19 15 -14 0 -25 5
-25 10 0 6 15 10 34 10 30 0 33 -2 28 -25z m-3555 -27 c-3 -8 -6 -5 -6 6 -1
11 2 17 5 13 3 -3 4 -12 1 -19z m2747 2 c14 -5 26 -14 26 -20 0 -6 -10 -5 -27
2 -56 24 -54 39 1 18z m-166 -32 c-4 -19 -78 -56 -78 -39 0 5 9 11 20 14 11 3
20 12 20 21 0 9 8 16 20 16 11 0 19 -5 18 -12z m-1849 -105 c0 -13 -3 -23 -8
-23 -11 0 -22 80 -13 95 7 10 19 -31 21 -72z m3845 26 c8 -8 -32 -29 -55 -29
-10 0 -12 33 -2 43 7 8 43 -1 57 -14z m-484 -44 c-6 -15 -13 -25 -17 -22 -3 4
0 21 8 38 16 39 24 24 9 -16z m-517 -75 c1 -3 25 -27 54 -54 50 -47 52 -48 87
-36 28 9 43 9 70 -1 19 -7 33 -16 30 -20 -2 -4 -18 -3 -34 3 -21 7 -39 7 -60
-1 -19 -6 -39 -7 -53 -2 -43 17 -183 183 -171 203 4 7 58 -58 77 -92z m-460
61 c40 -2 33 -21 -9 -21 l-35 0 20 -26 c12 -15 21 -33 21 -40 0 -8 4 -14 8
-14 12 0 36 52 33 73 -1 9 2 17 8 17 5 0 16 3 25 6 9 3 16 1 16 -5 0 -6 -7
-11 -15 -11 -12 0 -13 -4 -5 -19 14 -27 13 -41 -4 -35 -9 3 -20 -4 -27 -18
-13 -25 -34 -48 -43 -48 -3 0 -6 12 -6 26 0 14 -13 43 -30 64 -36 45 -38 58
-7 55 12 -1 34 -3 50 -4z m273 -8 c-18 -60 -18 -71 1 -77 10 -4 26 -13 36 -20
15 -12 16 -17 3 -47 -14 -34 -11 -64 4 -54 13 8 -2 -69 -15 -80 -7 -5 -16 -23
-19 -39 -6 -22 -2 -32 14 -43 15 -11 19 -21 14 -36 -4 -12 -8 -32 -8 -43 -1
-12 -8 -29 -15 -38 -9 -10 -12 -30 -8 -56 4 -35 2 -40 -14 -40 -10 0 -19 6
-19 13 0 8 -3 7 -9 -3 -13 -19 -4 -31 16 -23 11 4 14 3 9 -5 -4 -7 -1 -12 8
-12 8 0 16 6 18 12 3 9 9 8 21 -4 25 -24 21 -30 -13 -23 -19 4 -30 3 -30 -4 0
-14 -37 -14 -45 0 -5 7 -11 5 -18 -4 -15 -18 -77 -40 -77 -26 0 12 -47 12 -71
-2 -12 -6 -18 -17 -15 -25 4 -11 1 -14 -12 -10 -20 7 -81 -28 -83 -46 -1 -7 0
-19 1 -27 1 -8 -4 -12 -13 -8 -18 7 -57 -32 -57 -57 0 -15 -3 -16 -15 -6 -13
10 -15 9 -15 -9 0 -12 -4 -20 -9 -16 -5 3 -29 -17 -52 -45 -27 -33 -50 -50
-65 -50 -12 0 -36 -13 -53 -29 -19 -17 -34 -25 -37 -19 -9 14 32 45 76 59 23
8 53 33 88 74 45 54 52 68 47 92 l-6 28 19 -22 20 -23 31 35 c34 39 38 50 16
41 -8 -3 -24 5 -36 17 -15 15 -20 17 -16 6 3 -9 0 -22 -6 -28 -15 -15 -27 -14
-21 3 3 8 0 24 -6 37 -10 18 -10 21 1 17 8 -3 23 -2 34 2 13 5 27 0 45 -17 30
-28 28 -28 63 -4 19 12 25 21 17 26 -6 4 -20 -1 -31 -11 -20 -18 -23 -16 -13
10 3 9 10 13 15 10 5 -3 9 2 9 10 0 9 7 16 15 16 8 0 15 -7 15 -15 0 -19 21
-19 46 0 14 11 34 13 79 8 l60 -6 -19 22 c-16 18 -17 21 -3 21 8 0 17 -5 19
-11 4 -13 93 155 102 194 5 22 2 32 -14 45 -18 15 -19 22 -10 54 6 21 17 41
25 46 12 6 13 15 5 44 -6 20 -8 54 -6 75 5 34 2 40 -25 55 -17 10 -28 22 -24
27 3 6 6 26 7 46 1 23 6 35 15 35 9 0 12 -7 9 -17z m-2536 -41 c0 -5 -9 -17
-20 -27 -16 -14 -20 -15 -20 -4 0 16 19 39 32 39 4 0 8 -4 8 -8z m984 -19 c-4
-16 -10 -29 -13 -30 -3 -2 -4 -29 -3 -60 4 -69 -12 -62 -21 9 -5 35 -3 51 8
62 8 8 15 22 15 30 0 9 5 16 10 16 6 0 8 -11 4 -27z m-944 1 c-11 -13 -10 -16
9 -21 17 -4 19 -8 10 -19 -9 -11 -16 -9 -40 8 l-29 22 27 12 c37 16 37 16 23
-2z m1070 10 c0 -17 -24 -101 -33 -111 -7 -10 1 -13 35 -13 56 0 94 -34 84
-75 -4 -17 1 -42 14 -72 11 -25 20 -67 20 -93 0 -37 5 -51 25 -70 14 -13 25
-31 25 -39 -1 -11 -11 -4 -30 19 -23 26 -30 44 -30 76 0 23 -11 66 -25 97 -18
38 -24 64 -19 81 10 40 -8 52 -78 55 -34 1 -64 3 -65 5 -2 1 8 17 21 34 13 18
26 50 30 72 3 22 11 40 16 40 6 0 10 -3 10 -6z m-790 -110 c0 -54 -6 -76 -36
-137 -41 -81 -42 -82 -50 -75 -3 3 11 38 30 77 31 61 36 80 36 141 0 45 4 69
10 65 6 -3 10 -35 10 -71z m-285 19 c3 -16 14 -36 22 -46 17 -18 12 -34 -6
-22 -13 7 -41 71 -41 92 0 23 17 6 25 -24z m2993 15 c-2 -6 -10 -14 -16 -16
-7 -2 -10 2 -6 12 7 18 28 22 22 4z m-3712 -82 c7 -8 19 -16 26 -19 7 -2 10
-7 6 -11 -3 -4 -17 -2 -29 5 -20 10 -25 8 -46 -17 -23 -29 -32 -19 -13 17 9
16 7 19 -10 19 -11 0 -20 5 -20 10 0 15 70 12 86 -4z m-136 -6 c0 -5 -7 -10
-15 -10 -8 0 -15 -4 -15 -9 0 -4 -10 -6 -23 -4 -21 4 -22 2 -19 -39 5 -51 38
-94 59 -77 7 6 11 14 9 18 -3 4 4 8 15 8 19 2 19 1 1 -25 -11 -15 -17 -33 -14
-41 3 -8 0 -11 -7 -7 -7 5 -12 -2 -12 -16 l-2 -23 -4 23 c-2 12 -9 22 -14 22
-5 0 -8 3 -7 8 5 13 -45 72 -61 72 -14 1 -13 3 2 14 12 9 17 24 15 47 -3 33
-1 34 37 40 22 3 43 7 48 8 4 0 7 -3 7 -9z m1980 -2 c0 -16 -13 -38 -23 -38
-6 0 -19 7 -29 17 -15 13 -18 14 -18 1 0 -8 7 -23 15 -34 18 -24 21 -74 3 -56
-16 16 -38 91 -31 108 5 14 83 16 83 2z m2471 -44 c-40 -34 -51 -30 -16 6 15
16 32 27 37 24 4 -3 -5 -16 -21 -30z m-2875 -75 c62 -7 99 -6 118 1 33 12 36
12 36 1 0 -23 -69 -32 -152 -21 -97 13 -251 58 -243 70 3 5 38 -2 78 -16 39
-13 113 -29 163 -35z m-861 -16 c8 4 15 2 15 -2 0 -15 -22 -18 -47 -7 -13 6
-23 17 -23 25 0 11 5 10 20 -4 10 -9 26 -15 35 -12z m2625 -32 c0 -5 -23 -12
-51 -16 -39 -5 -52 -12 -58 -29 -10 -24 -51 -64 -51 -49 0 6 6 16 14 22 8 7
17 23 20 36 5 18 16 26 49 33 57 13 77 14 77 3z m-235 -66 c-6 -52 -9 -56 -42
-70 -42 -18 -43 -18 -43 -6 0 5 9 13 20 16 31 10 50 34 50 65 0 16 3 36 6 45
12 30 16 6 9 -50z m-1566 -17 c-12 -23 -24 -37 -26 -31 -5 14 36 87 44 79 2
-2 -6 -24 -18 -48z m-1579 32 c0 -6 -23 -9 -52 -9 -45 1 -49 2 -23 9 44 11 75
11 75 0z m-1010 -11 c0 -4 -6 -9 -14 -12 -9 -3 -12 -15 -9 -31 3 -15 1 -26 -6
-26 -6 0 -11 11 -11 24 0 13 -9 30 -21 38 -20 13 -18 13 20 13 23 0 41 -3 41
-6z m2701 -24 c16 -9 34 -13 39 -10 20 12 9 -14 -15 -36 -13 -13 -25 -31 -25
-41 0 -9 -6 -19 -12 -22 -10 -5 -10 -7 0 -12 17 -8 15 -24 -3 -24 -8 0 -15 -4
-15 -10 0 -5 7 -10 15 -10 8 0 15 -4 15 -10 0 -5 -5 -10 -11 -10 -18 0 -49
-41 -49 -63 0 -11 -13 -43 -28 -71 -30 -54 -50 -168 -33 -195 5 -8 0 -29 -16
-57 -16 -29 -29 -76 -38 -139 -10 -76 -20 -106 -43 -142 -24 -37 -29 -51 -20
-66 8 -16 7 -18 -10 -13 -27 9 -38 -8 -56 -89 l-16 -70 5 64 c3 37 13 76 23
91 9 15 33 51 53 81 30 46 37 68 48 148 6 51 20 110 31 132 23 44 26 79 8 80
-10 0 -10 2 0 6 7 3 12 24 12 55 0 37 9 67 34 117 40 77 54 133 31 124 -8 -3
-15 0 -15 6 0 6 11 13 25 17 18 4 25 13 25 30 0 13 -4 24 -10 24 -5 0 -10 5
-10 10 0 6 9 10 19 10 12 0 26 13 35 32 16 31 16 32 -11 55 -33 26 -25 30 18
8z m3306 -117 c-2 -18 -4 -6 -4 27 0 33 2 48 4 33 2 -15 2 -42 0 -60z m-3478
30 c-8 -14 -14 -18 -17 -10 -4 13 17 46 25 38 3 -2 -1 -15 -8 -28z m244 -63
c-22 -16 -24 -15 -16 13 4 18 8 20 19 11 12 -10 11 -14 -3 -24z m-33 -17 c0
-5 -4 -8 -10 -8 -5 0 -10 10 -10 23 0 18 2 19 10 7 5 -8 10 -18 10 -22z
m-3052 -53 c22 5 24 4 13 -9 -24 -28 -66 -10 -53 23 6 14 7 14 10 -2 3 -15 9
-17 30 -12z m2459 -92 c15 -53 23 -67 36 -65 9 2 17 -2 17 -8 0 -5 -5 -10 -10
-10 -6 0 -15 -10 -19 -22 -8 -20 -10 -21 -16 -6 -6 16 -10 16 -33 4 -29 -15
-92 -10 -92 6 0 6 13 8 31 4 18 -3 41 0 59 9 l28 15 -16 60 c-15 57 -18 61
-41 55 -14 -4 -39 -19 -57 -35 -18 -15 -38 -30 -46 -34 -10 -5 -10 -7 0 -12
14 -7 16 -44 2 -44 -5 0 -10 7 -10 15 0 8 -4 15 -10 15 -5 0 -10 9 -10 20 0
11 4 20 10 20 5 0 25 14 44 31 32 27 70 46 102 48 6 1 20 -29 31 -66z m1873
42 c-7 -8 -17 -15 -22 -15 -6 0 -5 7 2 15 7 8 17 15 22 15 6 0 5 -7 -2 -15z
m-1236 -104 c10 -16 -5 -41 -24 -41 -25 0 -35 18 -20 35 14 17 36 20 44 6z
m-1224 -31 c0 -5 -4 -10 -10 -10 -5 0 -10 5 -10 10 0 6 5 10 10 10 6 0 10 -4
10 -10z m1830 -162 c0 -96 3 -112 21 -138 13 -17 24 -50 27 -80 4 -45 2 -54
-21 -78 -19 -20 -26 -37 -25 -67 0 -22 -7 -78 -16 -125 -20 -98 -25 -115 -32
-108 -2 3 3 52 12 109 10 57 17 117 16 133 -1 16 9 41 23 61 30 39 32 86 5
130 -15 24 -21 57 -25 131 -3 54 -8 114 -11 133 -5 31 -4 33 10 22 13 -11 16
-35 16 -123z m1488 96 c-10 -10 -28 6 -28 24 0 15 1 15 17 -1 9 -9 14 -19 11
-23z m-3338 6 c0 -5 -5 -10 -11 -10 -5 0 -7 5 -4 10 3 6 8 10 11 10 2 0 4 -4
4 -10z m3417 -50 c6 -8 10 -17 8 -19 -6 -5 -65 52 -65 63 0 10 37 -19 57 -44z
m-1923 -89 c28 -68 31 -86 17 -77 -5 3 -19 32 -32 63 -12 32 -35 74 -50 94
-16 20 -26 39 -23 42 12 11 63 -60 88 -122z m-608 55 c3 -8 18 -16 35 -20 28
-5 29 -7 29 -62 0 -32 -2 -55 -5 -53 -6 6 -13 46 -14 77 -1 14 -7 22 -18 22
-18 0 -53 28 -53 42 0 13 20 9 26 -6z m474 -26 c0 -5 -5 -10 -11 -10 -5 0 -7
5 -4 10 3 6 8 10 11 10 2 0 4 -4 4 -10z m-904 -104 c-5 -19 -62 -66 -82 -66
-15 0 1 22 26 35 17 9 35 28 41 42 12 31 24 23 15 -11z m2508 -114 c7 -66 13
-77 33 -61 16 14 17 -1 3 -53 -15 -51 -35 -63 -26 -14 4 21 3 36 -3 36 -5 0
-15 33 -22 73 -7 39 -18 81 -26 92 -22 32 -14 42 11 14 16 -19 25 -45 30 -87z
m-1804 90 c0 -5 -9 -41 -19 -81 -13 -48 -18 -91 -14 -125 5 -51 -26 -191 -35
-153 -2 9 3 38 10 65 9 30 11 61 6 87 -4 23 -3 61 4 88 10 47 6 77 -6 39 -5
-14 -13 -18 -31 -14 -14 2 -25 9 -25 14 0 5 9 6 20 3 18 -6 20 -2 21 37 0 36
2 39 9 21 13 -31 40 -30 40 2 0 14 5 25 10 25 6 0 10 -4 10 -8z m1935 -127
c14 -13 25 -30 25 -38 0 -23 -22 -81 -38 -99 -13 -16 -13 -18 2 -24 24 -9 46
3 46 25 0 18 4 19 25 11 20 -8 29 -5 49 15 35 35 53 31 23 -5 -14 -16 -27 -35
-29 -42 -4 -10 -8 -10 -22 1 -15 13 -21 10 -51 -19 -36 -35 -65 -35 -65 0 0
15 -7 20 -25 20 -14 0 -26 -4 -26 -10 -1 -5 -2 -15 -3 -21 0 -7 -10 -15 -21
-20 -40 -16 -46 -8 -16 22 17 17 31 34 31 39 0 5 17 10 37 12 33 3 39 8 51 40
19 50 10 81 -30 100 -29 15 -30 17 -10 17 13 1 34 -10 47 -24z m-707 -18 c2
-9 8 -17 14 -17 17 0 48 -31 48 -48 0 -12 -6 -10 -25 8 -21 19 -27 21 -40 10
-11 -9 -14 -23 -10 -44 5 -31 5 -31 -11 -8 -9 12 -23 22 -30 22 -8 0 -14 4
-14 9 0 5 -13 14 -30 20 -16 5 -30 15 -30 20 0 15 6 14 41 -5 34 -17 47 -14
27 7 -7 8 -14 22 -16 31 -4 24 71 19 76 -5z m-1658 -47 c0 -5 7 -7 15 -4 9 4
15 0 15 -9 0 -9 -12 -17 -30 -19 -24 -4 -30 -1 -25 9 3 8 5 19 5 24 0 5 5 9
10 9 6 0 10 -4 10 -10z m-827 -51 c4 -3 -4 -16 -17 -28 l-25 -23 3 24 c3 30
16 52 25 41 3 -4 9 -10 14 -14z m-607 3 c7 -4 19 -24 28 -45 14 -35 14 -38 -1
-35 -9 2 -17 14 -18 27 -1 13 -9 29 -18 36 -27 20 -18 35 9 17z m664 -29 c-1
-47 -33 -91 -54 -74 -23 19 -25 49 -4 67 18 17 19 17 25 -4 8 -33 26 -27 20 7
-5 25 -1 41 10 41 2 0 3 -17 3 -37z m-740 -33 c0 -31 -5 -43 -25 -56 -33 -22
-44 -10 -18 19 11 12 23 34 27 50 9 39 16 33 16 -13z m630 6 c0 -2 -7 -9 -15
-16 -12 -10 -15 -10 -15 4 0 9 7 16 15 16 8 0 15 -2 15 -4z m30 -21 c0 -9 -9
-15 -22 -15 -22 1 -23 1 -4 15 25 19 26 19 26 0z m-1260 -104 c0 -11 -13 -29
-30 -41 -24 -17 -30 -18 -30 -6 0 8 9 18 20 21 11 3 20 15 20 26 0 10 5 19 10
19 6 0 10 -9 10 -19z m2176 -70 c-29 -57 -33 -93 -11 -111 22 -18 18 -47 -11
-98 -20 -33 -28 -41 -35 -31 -14 23 -10 39 10 39 28 0 45 70 21 85 -19 12 -10
84 18 141 15 31 28 49 30 41 2 -9 -8 -38 -22 -66z m4447 49 c3 -12 14 -20 25
-20 27 0 52 -10 52 -21 0 -5 -13 -6 -29 -3 -27 6 -28 4 -23 -21 3 -16 0 -30
-8 -35 -17 -11 -38 10 -32 32 2 10 -1 18 -7 18 -5 0 -8 6 -5 14 3 8 0 17 -6
21 -8 5 -8 11 1 21 16 19 26 18 32 -6z m-6355 -17 c-10 -2 -28 -2 -40 0 -13 2
-5 4 17 4 22 1 32 -1 23 -4z m2922 -47 c0 -19 -4 -38 -10 -41 -6 -4 -10 10
-10 34 0 23 5 41 10 41 6 0 10 -15 10 -34z m-2405 -35 c-4 -17 -11 -31 -16
-31 -9 0 -3 43 8 63 10 17 15 -3 8 -32z m1837 -48 c6 -7 19 -13 29 -13 11 0
19 -4 19 -10 0 -5 -9 -10 -21 -10 -23 0 -58 36 -59 61 0 26 15 33 18 7 2 -12
9 -29 14 -35z m-118 -21 c-4 -15 -7 -30 -6 -34 1 -5 -2 -8 -8 -8 -5 0 -10 -8
-10 -19 0 -35 -39 -108 -61 -114 -19 -5 -21 -11 -16 -42 4 -25 2 -33 -5 -29
-7 5 -9 2 -5 -9 3 -9 2 -17 -2 -19 -4 -2 -11 -22 -14 -46 -4 -35 -2 -44 15
-53 41 -22 104 47 93 103 -5 30 -4 31 8 15 14 -16 16 -16 40 3 16 13 28 16 32
10 13 -21 52 -11 64 18 12 30 57 62 86 62 9 0 19 9 22 20 5 17 7 18 17 6 12
-16 56 -5 56 14 0 21 16 9 27 -20 12 -31 12 -31 47 -16 30 12 35 12 40 0 9
-22 24 -16 41 16 9 17 21 30 27 30 6 0 17 8 25 18 10 12 16 14 19 5 3 -7 19
-13 35 -13 16 0 29 -4 29 -10 0 -5 -15 -10 -32 -10 -54 0 -78 -11 -94 -41 -15
-29 -47 -39 -59 -18 -4 6 -19 7 -37 4 -20 -5 -35 -2 -47 9 -17 16 -23 16 -82
0 -83 -23 -95 -31 -73 -55 18 -20 6 -27 -13 -8 -8 8 -15 5 -25 -9 -14 -21 -55
-31 -75 -19 -6 4 -23 -8 -40 -28 -15 -20 -44 -54 -64 -77 -35 -40 -37 -41 -68
-29 -29 13 -31 16 -31 68 0 48 -5 62 -36 104 -20 27 -43 53 -52 58 -9 5 -13
13 -8 18 4 4 27 -14 51 -41 46 -52 59 -53 68 -8 4 18 14 31 26 35 24 6 61 76
61 117 0 16 5 30 11 30 7 0 9 11 6 29 -4 19 -2 31 6 34 16 5 21 -18 11 -51z
m-144 -29 c0 -54 -8 -77 -32 -92 -29 -18 -37 -3 -9 18 20 15 24 27 23 65 -1
25 2 46 8 46 5 0 10 -17 10 -37z m234 -62 c-21 -29 -39 -42 -62 -47 -30 -6
-38 -16 -79 -98 -25 -50 -48 -85 -50 -78 -3 7 4 29 14 50 75 143 72 140 105
146 21 4 43 19 61 42 39 48 47 36 11 -15z m196 -263 c0 -36 28 -130 44 -145 1
-2 27 4 57 13 37 11 72 14 111 10 81 -8 92 -2 67 37 -21 35 -24 47 -11 47 5 0
27 -34 50 -76 33 -61 39 -80 32 -100 -13 -32 -21 -31 -18 4 1 15 -3 36 -10 48
-10 19 -19 21 -104 19 -64 -2 -114 -9 -158 -24 -47 -15 -77 -19 -110 -15 -25
4 -65 6 -90 6 -25 -1 -69 5 -99 14 l-54 15 -31 -29 c-41 -38 -105 -76 -114
-67 -4 4 2 12 12 19 10 6 37 26 60 44 23 18 49 35 59 38 12 4 17 17 17 40 0
29 5 36 41 55 40 20 43 20 88 4 51 -19 80 -49 81 -81 0 -26 42 -46 76 -38 29
7 29 10 4 69 -21 49 -30 186 -10 155 5 -8 10 -36 10 -62z m1585 62 c23 -10 23
-10 -28 -14 -35 -3 -79 -26 -49 -26 23 0 12 -15 -12 -16 -20 -2 -23 2 -17 18
7 20 46 46 71 46 8 0 24 -3 35 -8z m-542 -47 c-7 -2 -19 -2 -25 0 -7 3 -2 5
12 5 14 0 19 -2 13 -5z m417 -19 c0 -2 -7 -4 -15 -4 -8 0 -15 4 -15 10 0 5 7
7 15 4 8 -4 15 -8 15 -10z m-460 -39 c0 -25 -4 -45 -10 -45 -5 0 -10 20 -10
45 0 25 5 45 10 45 6 0 10 -20 10 -45z m410 5 c0 -5 -4 -10 -10 -10 -5 0 -10
5 -10 10 0 6 5 10 10 10 6 0 10 -4 10 -10z m-2460 -20 c0 -5 -8 -10 -17 -10
-15 0 -16 2 -3 10 19 12 20 12 20 0z m2811 -51 c18 -18 28 -20 72 -14 37 5 49
4 42 -4 -6 -6 -31 -11 -55 -11 -66 0 -80 2 -80 13 0 5 -8 16 -17 23 -17 13
-17 13 0 14 9 0 26 -9 38 -21z m-701 -93 c-4 -20 -10 -39 -12 -41 -6 -7 -48 7
-48 15 0 5 9 6 20 3 16 -4 20 0 20 19 0 21 19 53 26 45 2 -1 -1 -20 -6 -41z
m-73 -38 c-3 -7 -5 -2 -5 12 0 14 2 19 5 13 2 -7 2 -19 0 -25z m-3472 12 c-3
-5 -11 -10 -16 -10 -6 0 -7 5 -4 10 3 6 11 10 16 10 6 0 7 -4 4 -10z m3445 -9
c-1 -3 -35 -23 -78 -44 l-77 -37 35 30 c19 17 40 35 46 39 18 15 74 23 74 12z
m-3553 -53 c-3 -8 -6 -5 -6 6 -1 11 2 17 5 13 3 -3 4 -12 1 -19z m3360 -34
c-3 -3 -12 -4 -19 -1 -8 3 -5 6 6 6 11 1 17 -2 13 -5z m-2902 -24 c10 -11 16
-20 13 -20 -3 0 -13 9 -23 20 -10 11 -16 20 -13 20 3 0 13 -9 23 -20z m2245 1
c0 -11 5 -23 10 -26 6 -3 10 -21 10 -38 0 -25 15 -49 65 -108 39 -47 55 -73
42 -66 -12 6 -46 40 -74 75 -43 53 -53 72 -53 103 0 21 -4 41 -10 44 -5 3 -10
13 -10 21 0 8 5 14 10 14 6 0 10 -9 10 -19z m445 -81 c0 -24 -5 -45 -11 -47
-6 -2 -10 17 -9 47 0 28 4 49 10 47 5 -2 10 -23 10 -47z m-675 30 c0 -5 -13
-10 -30 -10 -16 0 -30 5 -30 10 0 6 14 10 30 10 17 0 30 -4 30 -10z m-1949
-67 c13 -16 12 -17 -3 -4 -17 13 -22 21 -14 21 2 0 10 -8 17 -17z m-606 -3 c3
-5 1 -10 -4 -10 -6 0 -11 5 -11 10 0 6 2 10 4 10 3 0 8 -4 11 -10z m2545 -58
c0 -4 10 -12 22 -17 12 -6 24 -16 26 -23 3 -8 -10 -4 -32 10 -35 23 -46 38
-26 38 6 0 10 -3 10 -8z m1200 -73 c0 -11 -4 -17 -10 -14 -5 3 -10 15 -10 26
0 11 5 17 10 14 6 -3 10 -15 10 -26z m-3097 -26 c-7 -2 -19 -2 -25 0 -7 3 -2
5 12 5 14 0 19 -2 13 -5z m37 -35 c0 -5 -4 -8 -10 -8 -5 0 -10 10 -10 23 0 18
2 19 10 7 5 -8 10 -18 10 -22z m-91 -10 c-8 -14 -14 -18 -17 -10 -4 13 17 46
25 38 3 -2 -1 -15 -8 -28z m-29 -7 c0 -6 -4 -13 -10 -16 -5 -3 -10 1 -10 9 0
9 5 16 10 16 6 0 10 -4 10 -9z m330 -53 c24 -29 70 -75 102 -101 32 -27 58
-53 58 -58 0 -25 -180 142 -214 199 -19 31 14 7 54 -40z m1720 24 c0 -5 -7 -9
-15 -9 -8 0 -12 4 -9 9 3 4 9 8 15 8 5 0 9 -4 9 -8z m-1844 -34 c-7 -37 -22
-56 -33 -43 -5 4 -2 10 5 12 6 3 12 18 12 34 0 16 5 29 11 29 8 0 9 -11 5 -32z
m-232 7 c-4 -8 -10 -15 -15 -15 -5 0 -9 7 -9 15 0 8 7 15 15 15 9 0 12 -6 9
-15z m4596 -16 c0 -13 -5 -17 -17 -12 -18 6 -33 22 -33 34 0 3 11 4 25 1 16
-3 25 -11 25 -23z m-2595 1 c-3 -5 -13 -10 -21 -10 -8 0 -14 5 -14 10 0 6 9
10 21 10 11 0 17 -4 14 -10z m1231 -27 c-11 -11 -19 6 -11 24 8 17 8 17 12 0
3 -10 2 -21 -1 -24z m-3240 -19 c-4 -9 -9 -15 -11 -12 -3 3 -3 13 1 22 4 9 9
15 11 12 3 -3 3 -13 -1 -22z m-36 -4 c12 -8 11 -10 -7 -10 -13 0 -23 5 -23 10
0 13 11 13 30 0z m-103 -37 c-9 -9 -19 -14 -23 -11 -10 10 6 28 24 28 15 0 15
-1 -1 -17z m63 8 c0 -5 -9 -7 -20 -4 -11 3 -20 7 -20 9 0 2 9 4 20 4 11 0 20
-4 20 -9z m2500 0 c0 -5 -9 -11 -20 -14 -22 -6 -28 8 -7 16 19 8 27 8 27 -2z
m50 -13 c0 -13 -23 -5 -28 10 -2 7 2 10 12 6 9 -3 16 -11 16 -16z m-2664 -3
c-11 -8 -25 -15 -30 -15 -6 0 -2 7 8 15 11 8 25 15 30 15 6 0 2 -7 -8 -15z
m2804 -15 c-19 -12 -30 -12 -30 -1 0 10 31 20 40 14 2 -2 -2 -8 -10 -13z
m-231 -29 c-15 -5 -22 6 -14 19 6 9 10 9 16 -1 5 -8 4 -15 -2 -18z m136 19 c3
-5 -1 -10 -9 -10 -8 0 -18 5 -21 10 -3 6 1 10 9 10 8 0 18 -4 21 -10z m-1980
-60 c7 -23 -42 -80 -70 -80 -9 0 -30 -7 -46 -16 -17 -8 -33 -13 -35 -11 -8 8
62 47 84 47 24 0 35 25 22 50 -7 13 -6 20 3 23 24 10 36 7 42 -13z m-839 -12
c4 -6 2 -14 -4 -16 -7 -2 -12 -10 -12 -18 0 -9 -11 -14 -30 -14 -17 0 -30 -5
-30 -12 0 -8 -6 -7 -16 4 -25 24 -8 40 34 32 35 -6 36 -5 17 10 -16 13 -17 15
-2 10 9 -3 17 -1 17 5 0 15 17 14 26 -1z m2574 -11 c-1 -17 -36 -57 -52 -58
-7 -1 -2 -4 12 -8 15 -5 35 -3 52 6 37 18 47 17 57 -9 16 -44 21 -78 12 -78
-5 0 -13 17 -18 37 -9 41 -25 51 -44 30 -10 -10 -22 -12 -41 -6 -21 5 -30 4
-36 -8 -5 -8 -13 -15 -18 -14 -48 2 -73 -28 -81 -100 -3 -27 -10 -49 -14 -49
-9 0 -2 82 8 110 4 8 5 19 4 24 -4 16 60 74 89 79 18 4 32 16 41 36 13 28 29
33 29 8z m280 -37 c8 -5 11 -12 7 -16 -4 -4 -15 0 -24 9 -18 18 -8 23 17 7z
m-2897 -24 c8 -19 1 -24 -28 -18 -24 4 -24 5 -8 18 23 17 30 17 36 0z m47 -11
c-7 -8 -17 -15 -23 -15 -5 0 -2 9 8 20 21 23 35 19 15 -5z m2770 -17 c0 -16
-3 -19 -11 -11 -6 6 -8 16 -5 22 11 17 16 13 16 -11z m130 7 c7 -8 8 -15 2
-15 -5 0 -15 7 -22 15 -7 8 -8 15 -2 15 5 0 15 -7 22 -15z m1210 -25 c0 -16
-5 -30 -10 -30 -6 0 -8 -11 -4 -25 4 -15 2 -25 -5 -25 -6 0 -11 5 -11 10 0 6
-9 10 -19 10 -11 0 -23 5 -27 12 -5 7 -2 9 9 5 20 -8 41 18 33 40 -6 15 8 32
27 33 4 0 7 -13 7 -30z m-1205 -61 c-10 -21 -22 -39 -27 -39 -13 0 -10 12 9
32 9 11 11 18 5 18 -7 0 -12 5 -12 11 0 5 4 8 9 5 5 -3 12 4 16 17 4 15 8 18
12 9 3 -8 -3 -31 -12 -53z m-95 35 c0 -2 -7 -4 -15 -4 -8 0 -15 4 -15 10 0 5
7 7 15 4 8 -4 15 -8 15 -10z m60 -94 c0 -5 -5 -10 -11 -10 -5 0 -7 5 -4 10 3
6 8 10 11 10 2 0 4 -4 4 -10z m668 -202 c9 -25 14 -30 24 -20 19 19 30 14 18
-7 -15 -30 -12 -40 14 -47 14 -3 27 -13 30 -21 5 -11 2 -13 -10 -9 -8 3 -21 6
-28 6 -7 0 -25 23 -40 50 -23 42 -32 50 -57 50 -37 0 -38 17 -1 23 15 2 29 5
32 6 3 0 11 -13 18 -31z m2415 -15 c-7 -2 -19 -2 -25 0 -7 3 -2 5 12 5 14 0
19 -2 13 -5z m204 -39 c-3 -3 -12 -4 -19 -1 -8 3 -5 6 6 6 11 1 17 -2 13 -5z"/>
<path d="M3662 7527 c-15 -17 -18 -135 -4 -149 6 -6 18 -8 28 -4 13 5 15 14
10 45 -3 22 -1 52 4 67 15 39 -14 71 -38 41z"/>
<path d="M4740 6995 c0 -9 9 -15 25 -15 16 0 25 6 25 15 0 9 -9 15 -25 15 -16
0 -25 -6 -25 -15z"/>
<path d="M4812 6993 c2 -10 13 -19 26 -21 17 -3 22 2 22 17 0 16 -6 21 -26 21
-19 0 -25 -5 -22 -17z"/>
<path d="M4753 6953 c9 -2 23 -2 30 0 6 3 -1 5 -18 5 -16 0 -22 -2 -12 -5z"/>
<path d="M4756 6915 c4 -8 15 -15 25 -15 10 0 19 7 19 15 0 9 -9 15 -25 15
-18 0 -23 -4 -19 -15z"/>
<path d="M4820 6920 c0 -5 9 -10 20 -10 11 0 20 5 20 10 0 6 -9 10 -20 10 -11
0 -20 -4 -20 -10z"/>
<path d="M4795 6870 c3 -5 8 -10 11 -10 2 0 4 5 4 10 0 6 -5 10 -11 10 -5 0
-7 -4 -4 -10z"/>
<path d="M7137 6847 c-8 -22 29 -56 73 -66 34 -7 40 -7 36 5 -3 7 -1 16 3 18
13 9 0 56 -15 56 -10 0 -13 -8 -8 -27 l6 -28 -19 21 c-22 26 -69 39 -76 21z"/>
<path d="M7311 6104 c0 -11 3 -14 6 -6 3 7 2 16 -1 19 -3 4 -6 -2 -5 -13z"/>
<path d="M5586 5912 c-2 -4 -1 -14 5 -22 7 -12 9 -10 9 8 0 23 -5 28 -14 14z"/>
<path d="M5501 5787 c-7 -9 -10 -21 -6 -27 9 -15 35 -12 35 4 0 8 3 16 8 19 4
2 2 2 -5 1 -6 -2 -13 2 -15 8 -2 6 -9 4 -17 -5z"/>
<path d="M5153 5592 c-7 -4 -19 -24 -28 -45 -14 -34 -14 -36 2 -30 11 4 14 3
9 -5 -13 -21 10 -13 31 11 35 38 45 64 27 71 -20 8 -26 7 -41 -2z"/>
<path d="M3650 4574 c0 -13 53 -64 67 -64 7 0 13 3 13 8 0 9 -80 65 -80 56z"/>
<path d="M4141 4357 c-8 -11 -6 -18 9 -32 25 -22 33 -16 24 19 -7 29 -16 33
-33 13z"/>
<path d="M3476 3811 c-18 -35 -19 -41 -7 -41 11 0 36 59 28 66 -3 3 -13 -8
-21 -25z"/>
<path d="M3385 2860 c-10 -11 -16 -22 -13 -25 9 -10 60 15 56 27 -7 20 -24 19
-43 -2z"/>
<path d="M4980 2328 c0 -9 5 -20 10 -23 13 -8 13 5 0 25 -8 13 -10 13 -10 -2z"/>
<path d="M3788 1454 c-32 -17 -40 -67 -12 -78 30 -12 152 -7 157 7 8 22 -14
48 -56 68 -50 22 -54 22 -89 3z"/>
<path d="M4050 485 c-16 -19 0 -19 26 0 16 12 16 14 3 15 -9 0 -22 -7 -29 -15z"/>
</g>
</svg>
