<?xml version="1.0" standalone="no"?>
<!DOCTYPE svg PUBLIC "-//W3C//DTD SVG 20010904//EN"
 "http://www.w3.org/TR/2001/REC-SVG-20010904/DTD/svg10.dtd">
<svg version="1.0" xmlns="http://www.w3.org/2000/svg"
 width="800.000000pt" height="800.000000pt" viewBox="0 0 800.000000 800.000000"
 preserveAspectRatio="xMidYMid meet">
<metadata>
Created by potrace 1.16, written by Peter Selinger 2001-2019
</metadata>
<g transform="translate(0.000000,800.000000) scale(0.100000,-0.100000)"
fill="#000000" stroke="none">
<path d="M37 7976 c4 -21 2 -24 -16 -19 -21 5 -21 5 -21 -286 0 -271 1 -291
18 -291 14 0 15 2 2 10 -12 8 -9 15 18 43 28 29 32 39 32 90 0 35 -4 57 -11
57 -6 0 -9 7 -5 15 3 8 -3 31 -14 50 l-20 35 24 0 c23 0 36 -16 36 -47 0 -9 8
-22 18 -29 16 -13 16 -15 0 -28 -13 -10 -18 -28 -18 -69 0 -31 -5 -59 -10 -62
-6 -4 -8 -11 -4 -16 9 -15 -38 -78 -53 -72 -10 4 -13 -41 -13 -228 l0 -233 37
-33 c31 -28 34 -33 16 -33 -11 0 -28 10 -37 23 l-16 22 2 -25 c3 -22 10 -26
55 -33 43 -7 56 -5 69 7 20 21 21 21 38 -11 8 -16 15 -21 16 -13 0 11 12 15
48 15 65 0 155 39 187 81 24 32 65 47 65 24 0 -5 -6 -10 -13 -10 -8 0 -22 -9
-32 -20 -18 -20 -18 -21 3 -27 28 -7 22 -35 -16 -75 -20 -22 -35 -28 -69 -28
-34 0 -41 -3 -37 -15 8 -21 -13 -19 -25 2 -14 26 -84 19 -115 -12 -33 -33 -42
-31 -56 10 -13 40 -29 51 -82 58 l-38 5 0 -142 c0 -77 5 -148 10 -156 7 -11
10 -11 10 -2 0 7 5 10 10 7 18 -11 11 -35 -10 -35 -20 0 -20 -7 -20 -1702 l1
-1703 24 -27 c18 -21 36 -29 78 -34 l55 -7 7 87 c4 47 12 86 17 86 8 0 4 -92
-8 -147 -4 -22 -2 -23 81 -23 61 0 85 3 85 13 0 6 14 32 30 57 29 42 31 50 28
127 -1 45 1 85 5 89 11 11 8 64 -3 64 -5 0 -10 7 -10 16 0 8 -4 13 -9 10 -5
-3 -14 1 -21 9 -11 13 -7 15 29 13 34 -1 42 -5 47 -25 4 -12 4 -30 1 -38 -5
-11 -1 -12 19 -5 14 6 70 10 125 10 99 0 99 0 99 -25 0 -24 3 -25 55 -25 l55
0 0 55 c0 35 4 55 11 55 8 0 10 -17 6 -54 -3 -30 -3 -57 0 -59 2 -3 25 2 50
11 42 16 45 16 57 -1 21 -28 101 -23 130 8 16 17 34 25 57 25 19 0 46 8 59 17
33 24 118 63 136 63 18 0 18 -2 -11 109 l-25 94 23 16 c12 9 35 18 52 21 24 4
31 11 33 33 3 20 13 32 42 47 37 19 38 21 30 52 -6 17 -8 34 -5 36 3 3 0 11
-6 19 -9 9 -8 13 0 13 6 0 11 17 11 40 0 22 3 40 8 40 4 0 7 -44 6 -97 -2 -95
-3 -97 -31 -111 -34 -18 -43 -30 -43 -59 0 -19 -6 -23 -32 -23 -17 0 -28 -3
-25 -7 4 -4 30 -6 57 -4 48 2 50 1 50 -24 0 -28 -26 -85 -38 -85 -4 0 -6 19
-4 41 4 41 4 42 -24 36 -19 -3 -32 0 -41 11 -11 15 -12 15 -13 -3 0 -12 5 -26
12 -33 8 -8 8 -12 1 -12 -8 0 -8 -12 0 -41 9 -36 12 -40 22 -25 15 20 25 21
25 1 0 -8 -5 -15 -12 -15 -6 0 -3 -6 8 -14 24 -18 10 -34 -16 -18 -27 16 -30
15 -30 -9 0 -15 4 -19 16 -15 10 4 14 1 12 -6 -3 -7 -22 -17 -44 -23 -21 -5
-64 -25 -94 -43 -30 -18 -62 -37 -70 -42 -54 -32 -230 -55 -230 -30 0 13 -33
13 -64 -1 -16 -8 -22 -17 -19 -28 6 -14 4 -14 -13 1 -12 11 -41 18 -79 20 -54
3 -60 5 -63 26 -3 23 -6 23 -113 21 -64 -1 -113 -7 -118 -13 -5 -6 -14 -56
-21 -110 -9 -76 -18 -108 -36 -135 -13 -20 -24 -47 -24 -60 l0 -24 -162 6
c-90 3 -164 10 -166 15 -1 5 -9 18 -17 28 -13 17 -14 -69 -15 -663 0 -535 3
-683 13 -687 9 -5 9 -7 0 -12 -8 -3 -13 -25 -13 -53 0 -40 4 -49 28 -63 15 -8
32 -13 39 -11 6 2 14 -1 18 -6 3 -6 -2 -11 -13 -11 -11 0 -22 -7 -26 -15 -3
-8 -15 -15 -26 -15 -20 0 -20 -5 -20 -290 l0 -289 41 14 c47 17 62 19 55 6 -3
-4 -26 -14 -51 -21 l-45 -13 0 -454 0 -455 143 6 c78 3 173 9 210 13 38 5 71
5 73 2 2 -4 -4 -10 -13 -12 -10 -3 625 -5 1410 -6 l1429 -1 -3 34 c-5 51 9 56
17 7 l7 -41 2363 0 2364 0 -2 1278 c-2 992 -6 1282 -15 1294 -10 11 -10 17 -1
26 9 9 8 12 -5 12 -10 0 -23 -11 -29 -25 -9 -19 -14 -22 -25 -14 -11 10 -9 15
8 30 12 11 33 19 46 19 l23 0 0 2690 0 2690 -876 0 c-566 0 -882 -4 -894 -10
-13 -7 -21 -7 -25 0 -9 14 -985 14 -985 0 0 -5 4 -10 9 -10 5 0 26 -16 47 -35
20 -19 31 -35 25 -35 -7 0 -23 11 -37 25 -14 14 -27 25 -29 25 -12 0 -3 -30
15 -53 30 -38 24 -45 -11 -11 -17 16 -39 28 -50 26 -10 -2 -19 2 -19 7 0 6 4
11 9 11 6 0 6 12 0 30 -11 30 -11 30 -89 30 -60 0 -79 -3 -84 -15 -3 -9 0 -15
9 -15 18 0 19 -12 3 -29 -11 -11 -7 -13 19 -8 49 10 40 -9 -11 -22 -51 -13
-53 -14 -58 -61 -3 -32 0 -35 24 -38 44 -5 53 -25 57 -124 1 -21 6 -28 22 -28
14 0 19 -5 16 -14 -3 -8 -1 -17 6 -20 9 -3 9 -5 0 -5 -7 -1 -13 -8 -13 -17 0
-13 -6 -11 -26 9 -15 15 -30 25 -34 22 -14 -9 1 -43 21 -48 20 -5 28 -57 9
-57 -5 0 -10 8 -10 19 0 20 -45 55 -60 46 -5 -3 -11 -1 -14 4 -4 5 3 12 14 16
27 8 25 23 -2 28 l-23 4 22 8 c18 6 21 12 16 37 -5 24 -2 30 16 35 17 4 21 12
19 32 -2 21 -9 27 -33 29 -16 2 -36 9 -43 15 -7 6 -28 12 -45 13 -18 2 -46 6
-63 9 -28 5 -33 2 -44 -25 -7 -16 -18 -30 -24 -30 -7 0 -29 -15 -49 -34 -32
-29 -39 -32 -52 -20 -7 8 -27 14 -44 14 -16 0 -33 5 -36 10 -8 12 64 13 84 1
9 -6 28 1 57 22 54 38 58 58 9 50 -21 -3 -35 -1 -35 5 0 12 90 24 167 22 32
-1 64 -1 71 -1 17 1 5 50 -19 77 -11 11 -19 28 -19 37 0 10 -8 20 -17 23 -10
3 -26 10 -35 15 -10 5 -186 9 -403 9 l-385 0 24 -47 c13 -27 26 -69 30 -95 5
-35 12 -49 27 -53 24 -8 39 -43 39 -93 0 -29 8 -44 36 -72 42 -40 54 -67 54
-116 0 -27 5 -37 23 -44 20 -8 20 -9 2 -10 -17 0 -18 -2 -5 -10 13 -9 13 -11
0 -20 -29 -19 -35 -9 -37 67 -2 74 -4 78 -39 114 -21 21 -42 37 -48 36 -6 -1
-12 17 -14 43 -4 69 -10 88 -32 95 -11 3 -20 14 -20 23 0 9 -13 53 -29 97
l-28 80 -351 3 -351 2 0 -137 c1 -164 -11 -383 -21 -383 -7 0 -4 223 5 347 5
71 4 73 -20 79 -18 4 -25 13 -25 31 0 13 4 22 9 19 5 -3 16 5 25 19 l16 25
-409 0 c-387 0 -410 -1 -404 -17 6 -17 5 -17 -13 -2 -14 12 -44 16 -124 17
-58 1 -98 -2 -90 -5 8 -3 18 -11 22 -17 5 -7 8 -7 8 2 0 7 5 10 10 7 6 -3 10
-15 10 -27 0 -17 -2 -18 -15 -8 -13 10 -15 9 -15 -11 0 -27 -49 -58 -60 -38
-4 5 -13 9 -21 7 -8 -2 -14 4 -14 12 0 9 -10 27 -23 40 -12 13 -22 27 -22 32
0 4 -483 8 -1074 8 l-1073 0 4 -24z m2704 -18 c-4 -13 -6 -36 -4 -52 4 -26 2
-28 -11 -16 -9 7 -16 8 -16 2 0 -10 -25 -11 -33 -1 -2 2 -7 23 -11 47 l-6 42
45 0 c42 0 44 -1 36 -22z m-2566 -28 c-3 -5 1 -10 9 -10 9 0 16 -4 16 -10 0
-13 -26 -13 -52 1 -17 9 -18 13 -7 20 19 12 42 11 34 -1z m55 -30 c0 -5 -2
-10 -4 -10 -3 0 -8 5 -11 10 -3 6 -1 10 4 10 6 0 11 -4 11 -10z m210 -45 c15
-37 38 -69 68 -95 43 -39 45 -42 50 -110 4 -67 4 -70 -18 -70 l-22 0 24 -29
c14 -15 30 -42 37 -60 8 -19 32 -42 62 -61 38 -23 49 -36 49 -55 0 -14 -7 -28
-15 -32 -14 -5 -14 -8 0 -30 22 -33 12 -40 -13 -9 -10 14 -22 23 -25 20 -3 -3
-8 -1 -11 4 -3 5 7 15 23 22 39 16 31 39 -25 73 -24 15 -50 39 -56 54 -7 16
-24 44 -38 63 -36 48 -53 112 -45 169 5 40 3 50 -16 66 -11 11 -25 29 -29 40
-5 11 -15 37 -24 58 -9 20 -12 37 -7 37 5 0 19 -25 31 -55z m1100 46 c0 -5 3
-17 7 -27 5 -14 3 -16 -11 -11 -10 4 -19 1 -22 -8 -4 -8 -10 -12 -15 -9 -5 3
-2 19 8 35 17 28 33 38 33 20z m3100 -23 c16 -14 21 -22 13 -25 -7 -3 -13 -11
-13 -19 0 -8 -4 -14 -10 -14 -10 0 -12 7 -14 45 -1 16 -10 21 -46 26 l-45 6
45 1 c32 1 52 -5 70 -20z m-320 -28 c0 -5 -4 -10 -10 -10 -5 0 -10 5 -10 10 0
6 5 10 10 10 6 0 10 -4 10 -10z m-2735 -115 c-1 -5 -10 -12 -20 -14 -12 -2
-16 2 -13 10 3 8 -14 34 -38 59 -64 66 -54 72 15 9 32 -30 58 -58 56 -64z
m-1325 48 c-1 -23 -60 -54 -60 -32 0 5 8 10 18 10 16 1 16 2 0 6 -29 7 -20 23
12 23 17 0 30 -3 30 -7z m5674 -17 c-3 -8 -17 -11 -34 -8 -33 5 -40 18 -12 24
27 6 51 -3 46 -16z m236 -1 c7 -8 11 -16 9 -16 -45 -14 -145 5 -118 22 23 14
95 10 109 -6z m-357 -57 c9 -10 15 -18 13 -18 -2 0 -11 -3 -19 -6 -10 -3 -17
3 -21 19 -3 14 -8 33 -11 44 -6 17 -5 17 7 -1 7 -11 21 -28 31 -38z m-4307 5
c-7 -21 -60 -56 -70 -46 -3 3 -6 20 -6 36 0 27 2 29 30 24 24 -5 30 -3 30 10
0 12 3 14 11 6 6 -6 8 -19 5 -30z m214 -3 c0 -5 -2 -10 -4 -10 -3 0 -8 5 -11
10 -3 6 -1 10 4 10 6 0 11 -4 11 -10z m760 2 c0 -17 -38 -44 -45 -32 -4 6 1
18 11 25 22 16 34 19 34 7z m487 -16 c-3 -8 0 -17 8 -20 8 -3 16 0 18 7 2 7 8
9 12 4 14 -13 -12 -30 -37 -24 -27 7 -37 47 -11 47 9 0 13 -6 10 -14z m283 5
c0 -24 -14 -41 -34 -41 -26 0 -33 37 -8 43 30 8 42 7 42 -2z m2097 -19 c-10
-10 -17 -28 -17 -39 0 -11 -6 -26 -14 -33 -8 -6 -12 -18 -9 -26 3 -9 -2 -14
-16 -14 -24 0 -20 17 13 64 15 21 18 30 9 33 -23 8 -13 32 15 35 36 5 38 2 19
-20z m498 -55 c-4 -13 1 -43 9 -67 8 -25 13 -55 10 -67 -4 -13 0 -30 7 -40 8
-9 19 -34 24 -57 9 -37 13 -41 45 -44 41 -4 66 -22 31 -22 -13 0 -40 5 -61 11
-31 10 -36 15 -32 35 2 13 -3 35 -12 49 -9 13 -16 40 -16 60 0 19 -4 35 -9 35
-6 0 -7 -16 -4 -35 l6 -35 -39 1 c-39 1 -39 1 -11 12 20 8 27 18 27 38 0 15 5
29 11 31 8 3 8 14 1 41 -11 38 -6 77 9 77 5 0 7 -10 4 -23z m-95 -33 c0 -21
-4 -33 -10 -29 -5 3 -10 19 -10 36 0 16 5 29 10 29 6 0 10 -16 10 -36z m-1020
16 c0 -9 -14 -14 -32 -11 -4 0 -33 -10 -64 -24 -65 -29 -104 -32 -104 -9 0 11
6 14 20 9 27 -9 90 13 90 31 0 10 13 14 45 14 25 0 45 -4 45 -10z m1730 -49
c-18 -37 -50 -56 -50 -31 0 6 4 10 9 10 5 0 19 16 30 36 29 49 38 37 11 -15z
m-5202 6 c-14 -12 -28 -27 -30 -34 -2 -8 -7 -7 -16 3 -10 11 -5 18 25 38 44
30 59 25 21 -7z m1668 -24 c-17 -160 -16 -154 -45 -151 -17 2 -25 8 -23 18 2
8 4 19 5 25 1 5 -8 11 -19 13 -15 2 -23 -3 -27 -19 -7 -27 -1 -39 21 -40 10
-1 7 -4 -8 -8 -14 -4 -41 -2 -60 4 -28 10 -36 19 -43 48 -10 43 -46 54 -48 15
0 -22 -1 -22 -9 -3 -16 37 -11 45 24 45 31 0 34 -3 46 -45 10 -36 17 -45 35
-45 18 0 24 7 29 38 3 20 15 48 26 62 l19 25 7 -32 c4 -22 12 -33 24 -33 21 0
30 27 30 89 l0 44 -60 -7 c-40 -5 -60 -3 -60 4 0 6 28 10 71 10 l71 0 -6 -57z
m3601 13 c0 -34 -5 -46 -19 -49 -15 -4 -17 -1 -11 21 8 37 22 72 27 72 2 0 4
-20 3 -44z m-402 24 c3 -5 20 -10 37 -10 25 0 29 -3 25 -20 -3 -11 -1 -20 4
-20 8 0 2 -80 -7 -89 -2 -3 -11 4 -18 15 -13 16 -13 19 0 22 19 5 18 22 -1 22
-8 0 -15 5 -15 10 0 6 4 10 8 10 5 0 9 7 9 15 0 9 -10 15 -23 15 -13 0 -28 9
-34 20 -11 20 3 30 15 10z m-4145 -44 c0 -14 -32 -91 -40 -96 -6 -3 -12 -19
-14 -36 -6 -43 -16 -63 -36 -69 -18 -6 -35 -47 -31 -74 1 -7 -2 -11 -7 -7 -5
3 -25 -9 -45 -25 -26 -21 -37 -39 -37 -57 0 -46 -13 -56 -48 -38 -26 14 -31
14 -42 1 -12 -15 -8 -68 8 -93 5 -7 23 -14 40 -15 18 -1 32 -8 32 -14 0 -7 12
-13 26 -13 21 0 24 3 19 21 -4 13 -1 27 9 37 46 51 54 61 49 66 -4 3 14 6 39
6 41 0 46 -2 41 -20 -4 -14 -9 -17 -21 -11 -9 5 -27 5 -44 -1 -31 -11 -39 -33
-8 -23 11 4 20 2 20 -4 0 -6 -5 -11 -12 -11 -19 0 -57 -41 -51 -56 3 -8 1 -14
-4 -14 -15 0 -33 -47 -33 -85 0 -19 -4 -35 -10 -35 -13 0 -13 66 0 91 8 15 7
19 -3 19 -8 0 -20 6 -26 14 -7 8 -27 17 -46 20 -18 4 -36 12 -39 19 -3 8 -7 9
-13 1 -4 -6 -16 -14 -27 -17 -13 -5 -17 -14 -14 -30 4 -18 -2 -26 -22 -35 -15
-7 -35 -20 -45 -30 -15 -14 -32 -17 -80 -14 -52 3 -71 -1 -129 -27 -43 -19
-85 -31 -112 -31 -32 0 -44 -4 -44 -15 0 -17 -16 -20 -25 -4 -11 17 27 38 72
39 23 0 68 11 99 25 31 14 72 25 91 25 26 0 36 5 40 20 3 11 12 20 19 20 17 0
18 -17 2 -23 -9 -3 -6 -7 6 -13 13 -5 21 -3 24 4 2 7 10 12 19 12 26 0 73 40
73 63 0 15 10 26 30 35 31 14 45 57 15 46 -8 -4 -15 -1 -15 5 0 6 5 11 10 11
6 0 10 8 10 18 0 26 36 44 72 37 30 -7 30 -6 26 24 -3 22 0 32 11 36 29 10 72
55 87 91 8 20 23 38 34 41 17 4 24 27 33 98 1 11 9 23 19 27 9 4 19 20 23 37
4 17 11 31 16 31 5 0 9 -2 9 -4z m-520 -26 c0 -11 -6 -20 -14 -20 -9 0 -12 7
-9 20 3 11 9 20 14 20 5 0 9 -9 9 -20z m5182 -13 c-29 -31 -28 -43 5 -42 14 0
28 -5 30 -11 6 -17 -65 -4 -72 14 -6 15 30 62 48 62 6 0 1 -10 -11 -23z
m-2574 -4 c2 -8 -6 -13 -22 -13 -17 0 -26 5 -26 16 0 19 41 16 48 -3z m1622 2
c0 -8 -4 -15 -10 -15 -5 0 -13 -1 -17 -2 -3 -2 -7 5 -9 15 -1 11 4 17 17 17
10 0 19 -7 19 -15z m390 -5 c0 -5 -2 -10 -4 -10 -3 0 -8 5 -11 10 -3 6 -1 10
4 10 6 0 11 -4 11 -10z m721 -29 c-13 -29 -46 -47 -57 -30 -3 5 4 9 14 9 13 0
24 11 31 32 6 17 14 28 17 25 4 -4 1 -20 -5 -36z m-2348 5 c4 -9 -3 -16 -16
-20 -27 -7 -33 0 -17 19 16 19 26 19 33 1z m2853 -74 c-13 -12 -16 8 -9 49 l8
44 3 -44 c2 -23 1 -46 -2 -49z m-816 -11 c0 -16 5 -33 10 -36 16 -10 12 -25
-5 -19 -9 4 -16 -3 -21 -21 -4 -17 -11 -24 -21 -21 -8 3 -21 6 -29 6 -8 0 -14
9 -14 19 0 14 -5 18 -20 14 -12 -3 -20 0 -20 7 0 9 -7 7 -20 -5 -16 -14 -23
-16 -32 -7 -9 9 -8 12 5 12 9 0 22 9 29 20 16 25 25 25 32 3 3 -10 4 -6 2 10
-3 27 7 36 19 17 11 -18 25 -10 42 24 13 29 18 32 29 21 8 -7 14 -27 14 -44z
m-4202 27 c3 -14 -3 -18 -26 -18 -28 0 -48 20 -34 34 13 13 57 1 60 -16z
m2632 2 c0 -5 -2 -10 -4 -10 -3 0 -8 5 -11 10 -3 6 -1 10 4 10 6 0 11 -4 11
-10z m2108 -24 c-3 -15 0 -27 8 -30 8 -3 14 -12 14 -20 0 -8 6 -16 13 -19 6
-2 9 -8 5 -11 -3 -4 -16 2 -27 13 -11 11 -32 23 -46 27 -32 8 -43 24 -16 24
14 0 21 6 21 20 0 12 7 20 16 20 12 0 15 -7 12 -24z m-3408 -22 c0 -12 -7 -24
-15 -28 -11 -4 -15 2 -15 23 0 18 5 28 15 28 9 0 15 -9 15 -23z m859 10 c2 -2
-3 -12 -12 -21 -10 -12 -17 -46 -21 -99 -5 -76 -4 -82 14 -87 16 -4 20 -14 20
-51 0 -51 17 -61 52 -29 20 18 23 17 32 -14 7 -22 5 -23 -43 -23 l-51 0 0 -55
c0 -50 2 -55 22 -55 l22 0 -22 -20 c-12 -12 -22 -30 -22 -40 0 -18 7 -20 83
-21 107 -1 151 -17 49 -18 -46 -1 -71 -5 -67 -11 3 -5 6 -68 6 -140 0 -107 3
-130 15 -130 8 0 19 11 24 24 5 13 14 27 19 31 6 3 11 17 11 31 0 13 5 24 10
24 17 0 11 -51 -11 -81 l-20 -29 60 0 c82 0 91 -20 9 -21 -35 -1 -67 -1 -71 0
-5 1 -5 -18 -1 -41 4 -24 7 -69 6 -101 -2 -52 0 -59 18 -64 13 -3 19 -11 16
-19 -4 -11 6 -14 44 -14 28 0 50 -4 50 -10 0 -5 -21 -10 -47 -10 l-48 -1 50
-44 c54 -48 53 -61 -1 -20 -65 50 -86 28 -82 -87 2 -66 6 -83 18 -83 16 0 15
-47 -1 -53 -5 -2 -9 -24 -9 -48 0 -24 -4 -44 -10 -44 -6 0 -10 60 -10 160 l0
160 -25 0 c-17 0 -25 -6 -25 -17 0 -14 -2 -15 -9 -5 -14 23 -45 9 -52 -23 l-7
-30 -1 35 c-1 29 -3 32 -12 18 -5 -10 -18 -18 -28 -18 -22 0 -31 -44 -24 -113
l6 -47 -62 0 c-34 0 -61 4 -61 10 0 6 24 10 54 10 51 0 53 1 48 25 -2 14 -9
25 -15 25 -7 0 -7 4 1 12 7 7 12 29 12 50 0 25 5 41 15 44 8 4 15 13 15 21 0
7 6 13 13 12 34 -4 40 1 34 36 l-6 35 62 1 c34 1 51 4 37 6 -14 3 -32 11 -40
18 -9 8 -27 18 -40 24 -23 9 -22 10 13 10 l37 1 0 90 0 90 -150 0 c-95 0 -150
-4 -150 -10 0 -6 -10 -8 -24 -4 -22 5 -28 -1 -57 -58 -17 -34 -60 -115 -95
-179 -35 -64 -64 -126 -64 -138 0 -12 -4 -20 -9 -16 -5 3 -12 1 -15 -4 -4 -5
-2 -12 4 -16 5 -3 10 -18 10 -32 0 -22 -4 -25 -25 -21 -21 4 -29 -1 -47 -33
-12 -22 -25 -39 -30 -39 -7 0 30 89 42 100 6 5 97 169 208 375 62 116 166 344
203 448 7 20 18 37 25 37 16 0 25 53 11 62 -7 4 -13 1 -15 -7 -2 -8 -13 -15
-24 -15 -17 0 -20 4 -14 30 5 29 5 30 -35 30 l-41 0 1 -77 c1 -196 -17 -273
-64 -273 -12 0 -28 -6 -35 -14 -6 -8 -17 -13 -25 -10 -17 7 -8 44 15 64 17 14
50 99 50 127 0 9 -13 13 -39 13 -22 0 -43 5 -46 10 -11 18 -25 10 -25 -14 0
-13 -9 -35 -20 -48 l-19 -25 24 -23 c20 -19 25 -32 23 -69 l-1 -46 -4 42 c-3
31 -10 46 -30 58 -25 17 -27 17 -44 -6 -10 -13 -19 -39 -19 -56 0 -18 -4 -33
-10 -33 -5 0 -10 15 -10 33 0 24 13 50 45 93 33 44 45 68 45 95 0 73 -58 86
-142 33 -21 -13 -42 -24 -47 -24 -12 0 -31 -80 -31 -135 0 -25 7 -59 15 -74
12 -25 13 -63 5 -257 -5 -126 -10 -253 -10 -281 0 -29 -4 -53 -10 -53 -5 0 -7
51 -3 135 l6 134 -26 12 c-25 11 -26 13 -11 41 8 16 19 26 23 23 5 -3 12 2 15
11 11 28 6 212 -6 239 -10 23 -16 25 -83 25 l-71 0 -1 -102 c-1 -105 -17 -363
-26 -408 -2 -14 -5 -51 -6 -82 0 -32 -5 -58 -11 -58 -15 0 -12 137 3 163 17
31 34 395 21 460 -6 27 -6 27 -90 27 -49 0 -84 4 -84 10 0 6 34 10 83 10 l83
0 -4 34 c-2 19 0 42 6 51 7 14 9 8 9 -22 0 -55 7 -63 57 -63 41 0 44 2 50 32
3 17 2 36 -4 42 -7 7 -10 2 -10 -14 0 -18 -3 -21 -9 -11 -5 8 -16 11 -30 6
-12 -4 -21 -2 -21 4 0 6 8 12 18 12 16 1 16 2 0 6 -10 2 -18 11 -18 19 0 13
-12 18 -32 15 -5 0 -8 19 -8 44 0 36 3 43 16 38 11 -4 14 -13 9 -31 -4 -16 -1
-28 7 -33 19 -12 30 -11 22 3 -5 7 -1 9 13 6 13 -4 27 2 37 13 18 22 21 33 6
24 -5 -3 -10 3 -10 15 0 12 5 18 10 15 6 -3 10 -1 10 4 0 6 7 11 16 11 13 0
14 3 5 14 -10 12 -7 23 14 55 l25 41 100 0 c58 0 101 4 105 10 5 8 11 7 21 -1
19 -16 304 -19 304 -2 0 6 -14 16 -30 22 -17 6 -34 21 -40 36 -8 20 -14 24
-34 19 -13 -3 -27 -1 -30 5 -5 7 7 11 33 11 35 0 42 -4 47 -25 4 -16 18 -29
40 -37 25 -9 34 -18 34 -34 0 -12 -4 -24 -10 -26 -6 -2 -6 -9 0 -18 8 -12 10
-12 14 3 4 9 9 25 13 35 3 9 5 22 4 28 -1 7 5 14 14 18 18 6 21 -24 4 -41 -15
-15 -7 -57 12 -61 20 -4 39 44 39 96 0 35 -29 72 -57 72 -7 0 -13 5 -13 11 0
6 7 8 16 5 12 -5 14 -1 9 15 -4 12 -2 24 4 28 6 4 12 39 13 79 3 66 4 71 23
66 11 -4 22 -8 24 -10z m1211 -3 c0 -5 -12 -14 -27 -20 -16 -6 -36 -16 -45
-23 -14 -10 -20 -10 -30 0 -9 9 -8 12 9 12 12 0 25 5 28 11 12 19 65 36 65 20z
m-4384 -30 c-8 -12 -46 -21 -46 -11 0 9 18 18 38 19 7 1 11 -3 8 -8z m2790
-28 c-11 -11 -17 4 -9 23 7 18 8 18 11 1 2 -10 1 -21 -2 -24z m2014 27 c0 -5
-2 -10 -4 -10 -3 0 -8 5 -11 10 -3 6 -1 10 4 10 6 0 11 -4 11 -10z m-2900 -25
c0 -8 9 -19 20 -25 11 -6 20 -18 20 -26 0 -11 -8 -8 -30 13 -27 25 -44 73 -20
58 6 -3 10 -13 10 -20z m2590 15 c0 -15 40 -12 41 3 0 10 2 10 6 0 2 -7 13
-13 24 -13 10 0 19 -4 19 -10 0 -5 -25 -10 -55 -10 -48 0 -55 2 -55 20 0 11 5
20 10 20 6 0 10 -4 10 -10z m1047 -12 c-3 -8 -6 -5 -6 6 -1 11 2 17 5 13 3 -3
4 -12 1 -19z m-4088 -10 c-11 -7 -11 -11 -1 -15 6 -2 9 -9 6 -14 -3 -6 2 -19
11 -29 11 -12 14 -26 10 -39 -5 -16 -2 -21 10 -21 12 0 15 -5 11 -16 -3 -9 -6
-20 -6 -26 0 -18 -29 19 -36 46 -5 20 -11 25 -24 21 -10 -3 -21 -1 -25 5 -4 7
2 14 14 17 17 4 19 8 10 19 -6 8 -18 14 -26 14 -8 0 -11 5 -8 10 3 6 -3 10
-14 10 -27 0 -27 18 0 28 29 11 86 3 68 -10z m201 2 c11 -7 0 -10 -37 -10 -29
0 -53 5 -53 10 0 13 70 13 90 0z m1195 0 c-3 -5 -13 -10 -21 -10 -8 0 -12 5
-9 10 3 6 13 10 21 10 8 0 12 -4 9 -10z m-1525 -30 c0 -5 -5 -10 -11 -10 -5 0
-7 5 -4 10 3 6 8 10 11 10 2 0 4 -4 4 -10z m-2320 -10 c0 -5 -9 -10 -20 -10
-10 0 -24 -9 -30 -20 -6 -11 -15 -20 -19 -20 -12 0 -1 43 13 52 16 11 56 10
56 -2z m1170 6 c0 -11 -19 -15 -25 -6 -3 5 1 10 9 10 9 0 16 -2 16 -4z m-777
-26 c3 -11 2 -20 -3 -20 -4 0 -10 9 -13 20 -3 11 -2 20 3 20 4 0 10 -9 13 -20z
m2597 -115 c0 -23 3 -45 8 -49 4 -4 7 -40 7 -79 0 -40 4 -141 9 -224 8 -139
11 -153 27 -153 11 0 19 -4 19 -10 0 -5 -9 -10 -20 -10 -19 0 -20 -7 -20 -97
0 -54 -3 -135 -7 -180 l-6 -83 57 0 56 0 0 -50 c0 -27 5 -50 10 -50 6 0 10 -8
9 -17 0 -11 -3 -13 -6 -5 -2 6 -11 12 -19 12 -10 0 -14 13 -14 45 0 39 -3 45
-24 51 -14 3 -48 1 -78 -4 -31 -6 -42 -10 -25 -11 15 0 27 -5 27 -11 0 -15
-48 -12 -53 3 -3 9 -9 9 -26 -1 -18 -10 -21 -10 -21 3 0 9 9 15 24 15 14 0 28
5 31 10 3 6 15 10 26 10 18 0 19 8 19 105 0 79 -3 103 -12 100 -7 -2 -28 -6
-45 -9 -31 -4 -33 -2 -33 26 0 25 2 28 14 19 11 -10 20 -10 37 -1 17 10 23 9
30 -1 5 -8 9 30 9 94 l0 107 -132 0 c-90 0 -128 3 -118 10 8 5 40 10 70 11 32
0 48 3 37 7 -15 6 -12 9 13 19 28 11 30 10 25 -7 -5 -16 1 -19 51 -22 l56 -3
-7 125 c-3 69 -6 149 -5 179 0 29 -5 59 -11 67 -6 8 -8 28 -4 51 5 34 2 42
-25 68 -18 17 -36 39 -42 50 -6 11 10 0 36 -25 40 -38 46 -49 46 -85z m2520
94 c0 -5 5 -7 11 -4 6 4 16 0 22 -9 7 -8 32 -17 57 -19 25 -2 -57 -4 -182 -5
-226 -2 -228 -2 -228 -23 0 -12 8 -27 17 -34 14 -11 11 -12 -25 -11 -42 1 -61
16 -21 16 18 0 20 4 14 30 l-7 30 161 0 c154 0 161 1 161 20 0 11 5 20 10 20
6 0 10 -5 10 -11z m-3170 -9 c0 -5 -6 -10 -14 -10 -8 0 -18 5 -21 10 -3 6 3
10 14 10 12 0 21 -4 21 -10z m2702 -20 l70 0 -4 -55 c-2 -46 0 -55 14 -55 9 0
20 -4 23 -10 3 -5 19 -10 34 -10 15 0 31 -3 35 -7 4 -4 23 -6 43 -4 l35 3 -7
-89 c-9 -114 -12 -126 -36 -120 -10 3 -19 1 -19 -4 0 -5 -12 -9 -26 -9 -21 0
-25 4 -19 18 10 26 16 82 10 93 -4 5 -13 3 -21 -6 -20 -20 -27 -19 -49 5 -15
16 -21 18 -33 7 -13 -10 -15 -9 -9 5 4 12 2 15 -7 12 -9 -3 -13 3 -12 17 1 16
9 25 26 29 18 4 21 8 12 14 -7 4 -11 14 -8 22 3 7 1 16 -4 19 -6 4 -10 19 -10
36 0 28 -2 29 -44 29 -25 0 -48 -4 -51 -10 -9 -15 24 -70 43 -71 13 -1 13 -2
2 -5 -12 -4 -15 -23 -12 -112 2 -74 -1 -102 -8 -92 -5 8 -10 25 -10 38 0 26
-2 27 -40 7 -17 -9 -30 -23 -30 -31 0 -12 -6 -15 -22 -10 -13 3 -29 6 -35 6
-9 0 -13 16 -13 45 l0 45 -40 0 -40 0 0 48 c0 26 5 53 11 59 6 6 9 28 7 49
l-3 39 -67 0 c-89 1 -95 10 -12 19 45 5 71 3 80 -5 16 -13 18 -84 4 -144 -5
-22 -7 -41 -5 -43 3 -3 197 -20 202 -18 1 1 4 13 8 29 l7 27 -58 2 -59 2 53 3
c36 3 52 8 49 16 -2 7 -13 13 -25 15 -12 2 -22 8 -22 13 0 5 -12 14 -26 19
l-26 10 26 21 c21 17 24 24 15 35 -14 17 2 19 19 2 9 -9 15 -9 24 0 7 7 33 12
59 12 26 0 51 5 54 10 4 6 -28 10 -89 10 -53 0 -96 4 -96 9 0 11 30 20 48 15
8 -2 45 -4 84 -4z m-3072 -10 c0 -5 -5 -10 -11 -10 -5 0 -7 5 -4 10 3 6 8 10
11 10 2 0 4 -4 4 -10z m56 -6 c41 -19 36 -34 -12 -34 -30 0 -34 3 -34 25 0 29
2 30 46 9z m4074 4 c0 -20 -29 -58 -45 -58 -7 0 -15 -5 -17 -11 -3 -8 -19 -4
-48 11 -42 21 -43 23 -22 31 12 5 25 15 28 22 7 19 104 23 104 5z m-3437 -15
c-7 -2 -21 -2 -30 0 -10 3 -4 5 12 5 17 0 24 -2 18 -5z m3785 -10 c2 -9 -7
-13 -27 -13 -31 0 -42 14 -18 23 19 8 40 3 45 -10z m-2578 -3 c0 -6 -27 -10
-60 -10 -33 0 -60 4 -60 10 0 6 27 10 60 10 33 0 60 -4 60 -10z m2754 -12 c23
-32 20 -45 -12 -50 -41 -6 -52 0 -52 28 0 18 5 24 21 24 11 0 17 5 14 10 -13
20 14 9 29 -12z m-3704 -34 c0 -14 -4 -23 -10 -19 -5 3 -10 15 -10 26 0 10 5
19 10 19 6 0 10 -12 10 -26z m1557 15 c28 -10 83 -57 83 -69 0 -4 -36 -8 -80
-9 l-80 -2 0 45 c0 42 2 46 24 46 14 0 37 -5 53 -11z m2331 -36 c-13 -16 -32
-17 -22 -2 3 6 -1 10 -12 9 -37 -4 -38 2 -4 14 38 14 58 3 38 -21z m-1410 21
c21 -6 22 -10 22 -135 0 -79 -4 -129 -10 -129 -6 0 -10 48 -10 125 l0 125 -59
0 c-33 0 -63 5 -66 10 -7 11 85 14 123 4z m-2320 -191 c14 -26 15 -33 4 -33
-19 0 -32 54 -31 123 l2 72 7 -70 c3 -38 12 -80 18 -92z m-1908 127 c0 -5 -2
-10 -4 -10 -3 0 -8 5 -11 10 -3 6 -1 10 4 10 6 0 11 -4 11 -10z m1447 -12 c-3
-8 -6 -5 -6 6 -1 11 2 17 5 13 3 -3 4 -12 1 -19z m2043 -28 l0 -50 43 -1 c42
-2 42 -2 8 -8 -44 -8 -53 -30 -14 -33 15 -1 38 -1 51 0 12 0 22 -2 22 -4 0
-13 -22 -44 -31 -44 -6 0 -7 4 -4 10 5 9 -11 15 -60 22 -12 2 -21 12 -23 25
-2 13 -8 20 -16 17 -9 -3 -17 10 -24 39 -7 25 -14 52 -18 61 -5 13 1 16 30 16
l36 0 0 -50z m1150 30 c0 -5 15 -10 34 -10 66 0 84 -24 51 -66 -15 -18 -16
-17 -10 14 6 30 5 32 -24 32 -37 0 -50 -22 -44 -70 4 -25 2 -32 -6 -25 -6 6
-11 32 -12 57 -2 32 -7 49 -18 53 -13 5 -14 7 -1 15 20 13 30 12 30 0z m-2920
-15 c0 -8 -6 -15 -14 -15 -8 0 -16 7 -20 15 -4 10 1 15 14 15 11 0 20 -7 20
-15z m260 5 c0 -5 -7 -10 -15 -10 -8 0 -15 5 -15 10 0 6 7 10 15 10 8 0 15 -4
15 -10z m-980 -27 c0 -29 -17 -38 -25 -13 -3 11 -11 20 -16 20 -6 0 -8 4 -5 8
2 4 14 8 25 8 15 0 21 -7 21 -23z m1010 7 c0 -5 -5 -10 -11 -10 -5 0 -7 5 -4
10 3 6 8 10 11 10 2 0 4 -4 4 -10z m-2810 -20 c0 -5 -9 -12 -20 -15 -14 -4
-20 -15 -20 -36 0 -20 -5 -29 -16 -29 -11 0 -15 6 -11 19 4 15 -2 20 -28 25
-32 6 -60 28 -50 38 3 3 25 3 49 1 24 -3 52 -1 62 5 19 11 34 7 34 -8z m1594
5 c4 -10 -1 -15 -16 -15 -17 0 -18 2 -8 15 7 8 14 15 15 15 2 0 5 -7 9 -15z
m1446 -13 c0 -16 -32 -12 -37 5 -3 7 4 11 16 10 12 -1 21 -7 21 -15z m2784 3
c-4 -10 0 -15 15 -15 12 0 21 -5 21 -11 0 -6 -8 -8 -19 -4 -16 5 -18 2 -14
-15 3 -11 0 -20 -6 -20 -10 0 -15 20 -14 56 0 14 -39 6 -49 -10 -5 -7 -8 -5
-8 5 0 23 9 29 46 29 26 0 32 -4 28 -15z m-3014 -30 c0 -8 -4 -17 -10 -20 -6
-4 -10 5 -10 20 0 15 4 24 10 20 6 -3 10 -12 10 -20z m1365 5 c3 -11 3 -25 -1
-32 -4 -7 -7 -29 -5 -49 1 -33 -1 -37 -19 -32 -11 3 -20 11 -20 18 0 7 -3 33
-6 58 -7 46 -4 49 38 56 4 0 9 -8 13 -19z m-2038 -14 c-7 -17 16 -40 27 -28 5
4 7 -2 6 -13 -4 -37 0 -45 23 -46 17 -1 18 -2 4 -6 -12 -3 -15 -9 -9 -16 4 -7
6 -36 4 -65 l-4 -53 -35 21 c-41 24 -64 25 -106 3 -29 -15 -30 -17 -12 -24 11
-4 30 -8 41 -8 23 -1 34 -32 34 -94 0 -29 -1 -29 -36 -24 -46 8 -45 7 -35 44
8 28 5 35 -25 64 -19 18 -34 41 -34 51 0 11 -7 18 -20 18 -21 0 -25 7 -12 28
5 7 16 10 25 6 10 -3 17 -1 17 5 0 6 9 11 20 11 22 0 26 -10 9 -27 -8 -8 -8
-13 0 -17 6 -4 11 -3 11 3 0 5 27 13 59 17 59 6 60 7 45 29 -12 18 -12 24 -2
27 9 4 5 16 -15 44 -25 36 -26 40 -10 52 22 16 36 15 30 -2z m-2137 -52 c0 -8
-9 -14 -20 -14 -19 0 -27 19 -14 33 10 9 34 -4 34 -19z m5860 -6 c0 -13 -23
-5 -28 10 -2 7 2 10 12 6 9 -3 16 -11 16 -16z m-434 -31 c-4 -16 -16 -27 -32
-31 -35 -9 -43 1 -11 13 14 5 28 19 32 31 9 29 19 17 11 -13z m-2896 15 c0
-11 -37 -32 -44 -25 -3 3 2 12 12 19 19 15 32 18 32 6z m3364 -18 c9 -24 7
-28 -9 -14 -17 14 -20 30 -6 30 5 0 12 -7 15 -16z m-974 -40 c0 -8 -7 -14 -15
-14 -15 0 -21 21 -9 33 10 9 24 -2 24 -19z m958 -14 c-14 -22 -24 -19 -15 5 4
8 11 15 17 15 6 0 6 -7 -2 -20z m599 14 c-3 -3 -12 -4 -19 -1 -8 3 -5 6 6 6
11 1 17 -2 13 -5z m-5337 -94 c0 -5 -12 -21 -26 -35 -21 -21 -25 -33 -20 -56
4 -23 2 -29 -12 -29 -25 -1 -55 -27 -49 -43 7 -20 87 -28 107 -11 8 7 25 22
38 34 21 19 22 19 22 1 0 -11 -8 -22 -19 -26 -10 -3 -26 -14 -36 -24 -16 -19
-60 -20 -105 -4 -8 3 -23 7 -33 8 -11 1 -23 8 -28 16 -8 12 -11 11 -19 -2 -5
-9 -23 -22 -40 -29 -17 -7 -30 -20 -30 -29 0 -23 -65 -98 -100 -116 -16 -8
-31 -25 -33 -37 -3 -18 -5 -15 -6 8 -1 26 4 34 29 44 36 15 90 80 90 108 0 12
11 24 29 32 21 8 28 17 26 31 -2 11 4 23 16 30 11 5 24 21 29 35 14 37 30 20
31 -34 l0 -47 16 32 c9 17 27 34 40 38 13 3 21 10 18 15 -9 15 17 80 32 80 7
0 13 5 13 10 0 6 5 10 10 10 6 0 10 -4 10 -10z m-236 -16 c8 -22 8 -24 -8 -24
-18 0 -29 16 -21 30 9 15 22 12 29 -6z m116 -1 c0 -5 -5 -15 -10 -23 -8 -12
-10 -11 -10 8 0 12 5 22 10 22 6 0 10 -3 10 -7z m275 -13 c4 -6 -5 -10 -19
-10 -14 0 -26 5 -26 10 0 6 9 10 19 10 11 0 23 -4 26 -10z m4175 -5 c-14 -8
-19 -14 -12 -15 17 0 15 -20 -3 -20 -18 0 -20 36 -2 43 27 12 40 5 17 -8z
m506 -80 c4 -21 3 -27 -4 -20 -6 6 -14 24 -18 40 -4 21 -3 27 4 20 6 -5 14
-23 18 -40z m-14 -80 c-4 -34 -17 -53 -29 -42 -7 7 16 77 26 77 4 0 5 -16 3
-35z m-1482 -34 c5 -11 9 -30 7 -43 -1 -17 4 -24 21 -26 26 -4 30 -22 5 -22
-16 0 -83 53 -83 66 0 9 25 44 32 44 4 0 12 -9 18 -19z m-958 -236 l-3 -215
23 -1 c13 0 17 -3 11 -6 -7 -2 -13 -11 -13 -18 0 -8 -7 -11 -20 -8 -19 5 -20
14 -20 119 0 93 -3 116 -15 120 -8 4 -15 12 -15 19 0 7 7 15 15 19 11 4 15 23
15 80 0 73 6 106 19 106 3 0 5 -97 3 -215z m-1105 190 c0 -8 -6 -15 -13 -15
-15 0 -26 15 -17 24 12 11 30 6 30 -9z m4811 -5 c7 -12 17 -18 22 -15 6 3 10
2 10 -4 0 -14 -18 -23 -25 -12 -3 6 -12 8 -19 5 -9 -4 -13 3 -13 20 0 31 8 33
25 6z m-5278 -15 c0 -10 -11 -15 -35 -15 -24 0 -35 5 -35 15 0 10 11 15 35 15
24 0 35 -5 35 -15z m436 -32 c-3 -10 -10 -39 -17 -65 -11 -47 -30 -59 -24 -15
8 65 18 97 32 97 9 0 12 -6 9 -17z m-493 -24 c-11 -11 -117 -29 -178 -29 -66
0 -19 20 50 21 33 0 71 5 85 9 38 12 56 12 43 -1z m-251 -41 c-16 -16 -16
-110 0 -126 7 -7 28 -13 48 -13 l35 -2 -40 -6 -40 -6 -3 -57 c-2 -42 -7 -58
-17 -58 -11 0 -13 8 -8 30 l6 30 -52 0 c-39 0 -51 -4 -51 -15 0 -8 -4 -15 -10
-15 -5 0 -10 23 -10 50 0 52 16 70 22 23 3 -23 8 -27 47 -30 52 -5 63 7 55 57
-6 33 -24 66 -24 45 0 -9 -34 -11 -90 -6 -31 3 14 21 52 21 35 0 37 2 44 38 8
47 11 52 32 52 12 0 13 -3 4 -12z m4479 -9 c-3 -13 -7 -37 -10 -66 0 -7 -6
-13 -13 -13 -6 0 -19 -7 -28 -15 -16 -14 -18 -14 -23 5 -3 12 0 20 7 20 16 0
58 74 48 85 -4 4 0 5 8 3 8 -3 13 -12 11 -19z m-1046 -9 c-3 -5 -11 -10 -16
-10 -6 0 -7 5 -4 10 3 6 11 10 16 10 6 0 7 -4 4 -10z m-5122 -36 c29 -39 13
-39 -17 1 -15 19 -21 32 -14 29 7 -2 21 -16 31 -30z m7196 -16 c14 -13 19 -15
12 -5 -11 14 -11 17 0 17 19 -1 49 -24 49 -39 0 -6 9 -11 19 -11 11 0 23 -4
26 -10 10 -16 -38 -12 -62 5 -19 13 -21 13 -26 -5 -3 -11 -13 -20 -23 -20 -9
0 -15 3 -11 6 8 8 -25 44 -40 44 -7 0 -13 5 -13 11 0 6 7 9 15 5 9 -3 15 0 15
9 0 21 10 19 39 -7z m-3869 -9 c0 -6 -4 -7 -10 -4 -5 3 -10 11 -10 16 0 6 5 7
10 4 6 -3 10 -11 10 -16z m-3585 1 c3 -5 -3 -10 -14 -10 -12 0 -21 5 -21 10 0
6 6 10 14 10 8 0 18 -4 21 -10z m3155 -31 c0 -47 -17 -49 -39 -5 -11 24 -11
30 0 37 29 18 39 9 39 -32z m-3105 21 c3 -5 -1 -10 -9 -10 -9 0 -16 5 -16 10
0 6 4 10 9 10 6 0 13 -4 16 -10z m303 -7 c-10 -2 -26 -2 -35 0 -10 3 -2 5 17
5 19 0 27 -2 18 -5z m-403 -13 c-3 -5 -11 -10 -16 -10 -6 0 -7 5 -4 10 3 6 11
10 16 10 6 0 7 -4 4 -10z m524 -37 c2 -2 2 -6 -1 -9 -8 -7 -61 20 -78 41 -10
13 -3 11 31 -6 24 -12 46 -24 48 -26z m2011 27 c0 -5 -2 -10 -4 -10 -3 0 -8 5
-11 10 -3 6 -1 10 4 10 6 0 11 -4 11 -10z m-590 -4 c0 -11 -19 -15 -25 -6 -3
5 1 10 9 10 9 0 16 -2 16 -4z m-1990 -37 c-7 -11 -14 -18 -17 -15 -8 8 5 36
17 36 7 0 7 -6 0 -21z m5088 -7 c2 -7 -2 -10 -12 -6 -9 3 -16 11 -16 16 0 13
23 5 28 -10z m-4451 -24 c-3 -7 -5 -2 -5 12 0 14 2 19 5 13 2 -7 2 -19 0 -25z
m2147 -41 c5 -25 2 -36 -14 -49 -12 -9 -28 -14 -37 -11 -14 5 -11 9 10 16 18
6 27 16 27 31 0 27 -28 68 -41 61 -5 -4 -9 -2 -9 3 0 40 54 -3 64 -51z m-1288
-2 c0 -19 -2 -32 -5 -30 -2 3 -12 -2 -21 -10 -12 -11 -24 -12 -45 -6 l-30 9
32 1 c27 1 34 6 44 36 16 44 25 45 25 0z m5955 5 c5 0 9 -5 9 -10 0 -6 -13 -4
-30 5 -17 9 -28 20 -25 26 4 5 13 3 21 -6 9 -8 20 -15 25 -15z m-6804 -22 c-3
-7 -5 -2 -5 12 0 14 2 19 5 13 2 -7 2 -19 0 -25z m-564 13 c5 0 6 -14 2 -29
-5 -24 -2 -30 20 -40 36 -17 31 -27 -13 -26 -52 2 -59 3 -46 12 6 4 15 23 19
42 7 30 6 33 -8 22 -11 -9 -17 -10 -22 -2 -4 6 -13 9 -21 6 -7 -3 -16 -1 -19
4 -10 16 23 20 88 11z m5690 -53 c-3 -13 -10 -28 -14 -34 -5 -6 -6 -14 -2 -17
3 -4 0 -7 -8 -7 -12 0 -12 -2 0 -9 9 -6 11 -16 6 -27 -6 -15 -8 -16 -13 -4 -3
8 -14 23 -25 35 l-19 20 6 -22 c4 -12 2 -24 -3 -27 -6 -4 -8 -13 -4 -21 4 -11
1 -13 -11 -9 -18 7 -22 24 -5 24 6 0 8 7 5 17 -8 19 11 83 24 83 5 0 7 -7 4
-15 -4 -9 0 -15 10 -15 15 0 22 31 17 80 -1 10 5 8 18 -7 12 -15 17 -31 14
-45z m-2853 42 c0 -5 -4 -10 -10 -10 -5 0 -10 5 -10 10 0 6 5 10 10 10 6 0 10
-4 10 -10z m-2450 -70 c-14 -26 0 -32 60 -29 27 2 53 0 56 -4 12 -12 62 -8 67
6 4 8 6 7 7 -3 4 -38 10 -54 34 -91 25 -37 24 -53 -2 -27 -9 9 -12 4 -12 -25
0 -42 26 -53 33 -14 3 16 5 13 6 -10 0 -18 -4 -33 -10 -33 -7 0 -10 -23 -9
-67 4 -105 4 -106 -22 -92 -13 7 -27 18 -31 26 -5 7 -13 11 -19 7 -6 -4 -8 1
-6 12 4 23 38 32 38 10 0 -10 6 -13 15 -10 11 5 15 21 15 60 0 39 -4 56 -15
60 -8 4 -15 14 -15 24 0 10 -5 20 -12 22 -7 3 -9 12 -4 23 6 16 9 17 16 5 7
-11 10 -8 10 13 0 16 -4 26 -10 22 -6 -4 -10 5 -10 20 0 32 -31 45 -106 44
-53 -2 -55 -3 -50 -25 3 -12 2 -34 -4 -48 -6 -17 -6 -26 0 -26 6 0 10 -9 10
-19 0 -25 30 -34 80 -26 24 4 40 3 40 -3 0 -13 -63 -20 -109 -13 l-36 6 -3 78
-3 77 -57 1 c-31 0 -51 3 -44 6 17 7 15 38 -3 53 -8 7 -15 18 -15 24 1 6 16
-6 34 -26 38 -43 65 -49 67 -15 2 28 2 28 -6 52 -6 18 -4 17 14 -3 16 -18 18
-28 11 -42z m3046 24 c-15 -14 -31 -22 -35 -19 -3 4 7 18 23 31 15 14 31 22
35 19 3 -4 -7 -18 -23 -31z m-211 -191 c-5 -30 -3 -33 32 -43 21 -6 57 -13 81
-17 23 -3 42 -10 42 -14 0 -14 -29 -11 -103 10 l-68 20 -25 -40 c-24 -38 -24
-42 -10 -64 18 -27 21 -49 6 -40 -5 3 -10 5 -10 3 -12 -102 -12 -120 5 -131
15 -12 15 -16 -3 -65 l-20 -51 22 -26 c12 -14 27 -25 34 -25 7 0 12 -6 12 -14
0 -7 18 -26 41 -42 22 -15 47 -37 55 -48 10 -15 14 -17 15 -6 3 29 21 -96 20
-135 -1 -34 4 -43 29 -60 17 -11 44 -37 61 -57 16 -21 36 -38 44 -38 10 0 15
-10 15 -30 0 -16 5 -30 11 -30 7 0 10 -14 7 -35 -2 -22 0 -34 6 -32 6 2 16 -3
22 -12 10 -13 15 -13 27 -2 20 16 41 77 33 96 -3 8 0 15 6 15 7 0 8 17 4 53
-6 43 -5 50 6 39 15 -15 16 -91 1 -144 -12 -43 -57 -100 -69 -90 -5 4 1 -4 13
-18 12 -14 35 -53 50 -87 l28 -61 73 33 c73 34 88 55 55 74 -17 10 -17 10 -1
11 9 0 20 -5 24 -11 4 -8 9 -8 17 0 14 14 57 14 57 0 0 -5 -8 -9 -18 -7 -20 3
-52 -18 -52 -33 0 -15 -40 -50 -50 -44 -7 4 -67 -17 -89 -32 -2 -2 4 -12 13
-22 10 -11 15 -24 12 -30 -4 -6 7 -8 29 -5 19 2 51 6 72 9 27 3 33 1 25 -7
-15 -15 3 -38 29 -38 14 0 19 -7 19 -25 0 -14 7 -28 15 -31 12 -5 11 -12 -5
-45 l-20 -39 23 -5 c23 -6 56 -45 37 -45 -5 0 -10 -9 -10 -20 0 -27 33 -26 52
1 11 17 19 20 37 14 20 -6 23 -12 18 -42 -7 -42 -32 -73 -59 -73 -12 0 -22 -9
-25 -21 -4 -13 -8 -17 -13 -9 -9 15 -60 2 -60 -16 0 -8 6 -17 14 -20 8 -3 12
-13 9 -25 -4 -14 -1 -18 9 -14 22 9 28 -25 9 -56 -9 -14 -22 -24 -28 -22 -8 3
-13 -4 -13 -16 0 -12 -6 -21 -16 -21 -11 0 -14 -6 -9 -20 6 -20 -31 -61 -94
-102 -25 -17 -26 -17 -39 5 -13 22 -13 22 -7 -3 3 -14 8 -52 11 -85 5 -52 3
-63 -15 -84 -12 -13 -21 -31 -21 -39 0 -9 -7 -23 -16 -33 -13 -14 -14 -24 -6
-46 11 -31 9 -33 39 62 18 59 19 60 53 58 19 -1 28 1 18 3 -17 5 -33 48 -23
64 11 18 23 10 34 -20 8 -24 16 -30 38 -30 l28 -1 -33 -28 c-19 -16 -41 -27
-51 -24 -15 4 -17 -1 -11 -39 5 -33 2 -49 -13 -70 -21 -33 -42 -37 -34 -8 3
11 1 23 -4 26 -10 6 -12 -7 -9 -43 1 -17 -4 -23 -19 -23 -33 0 -101 47 -101
70 0 11 -4 20 -10 20 -5 0 -7 -6 -4 -14 3 -7 -2 -16 -10 -19 -9 -4 -16 -2 -16
4 0 6 -4 7 -10 4 -5 -3 -17 -2 -26 3 -13 7 -10 11 16 22 21 9 29 18 25 28 -3
9 0 19 7 24 18 11 30 10 23 -2 -3 -5 -1 -10 5 -10 6 0 19 18 27 40 17 44 24
48 43 25 15 -18 30 -20 30 -2 -1 6 -20 29 -45 50 -38 32 -45 35 -53 21 -8 -15
-11 -14 -25 6 l-15 21 -41 -20 c-23 -12 -41 -26 -41 -31 0 -6 -69 -81 -154
-168 -84 -86 -158 -167 -165 -179 -10 -20 -9 -23 12 -29 32 -7 56 -49 38 -67
-9 -9 -14 -9 -21 3 -6 9 -5 17 3 22 17 11 -1 24 -50 35 -38 10 -43 9 -48 -8
-6 -18 -35 -16 -35 3 0 5 5 6 10 3 6 -3 10 -1 10 5 0 12 -19 10 -72 -6 -10 -3
-18 0 -18 6 0 6 14 13 30 17 17 3 30 10 30 15 0 5 6 8 13 5 6 -2 20 2 29 11
15 13 20 13 34 1 15 -12 18 -12 22 1 3 8 24 35 47 60 23 25 40 51 38 58 -3 8
1 12 11 10 8 -2 47 26 86 61 68 61 70 65 53 83 -15 17 -15 20 0 35 13 14 18
14 32 3 14 -12 20 -10 40 16 14 16 24 32 25 35 0 7 20 14 79 29 33 8 83 -6 93
-27 1 -5 19 -21 38 -37 l34 -28 7 24 c3 13 -8 94 -26 184 -18 87 -35 176 -39
197 -4 21 -13 37 -20 37 -8 0 -19 6 -25 14 -10 11 -9 16 4 23 14 8 11 23 -26
124 -24 63 -43 115 -44 116 -1 2 -55 -12 -121 -31 -65 -19 -168 -47 -229 -62
-94 -25 -116 -35 -152 -68 -45 -41 -53 -56 -28 -56 8 0 15 -9 15 -20 0 -15 -7
-20 -26 -20 -15 0 -33 -8 -40 -17 -11 -14 -13 -15 -14 -3 0 8 -24 -9 -57 -40
-54 -52 -54 -51 12 22 153 169 181 208 150 208 -23 0 -18 17 8 24 33 9 57 7
57 -4 0 -5 -9 -10 -20 -10 -11 0 -20 -7 -20 -15 0 -8 3 -15 6 -15 16 0 145 43
149 50 3 4 13 6 23 3 23 -6 202 45 223 63 8 8 24 14 33 14 22 0 18 18 -29 139
-18 48 -39 105 -46 129 -6 23 -16 42 -21 42 -4 0 -8 9 -8 19 0 22 -51 157
-105 279 -36 82 -39 106 -12 84 10 -9 17 -8 25 0 12 12 13 10 16 -12 0 -5 4
-10 9 -10 4 0 14 0 23 0 13 0 15 6 9 28 -9 38 -16 42 -68 46 -57 4 -71 15
-102 76 -28 55 -20 87 14 56 12 -11 21 -16 21 -12 0 12 -50 61 -63 61 -6 1
-11 7 -9 15 4 19 -18 60 -33 60 -7 0 -36 25 -64 55 -42 44 -56 53 -69 45 -15
-8 -14 -9 6 -10 12 0 22 -4 22 -10 0 -12 -77 -14 -84 -2 -3 5 8 16 25 26 24
14 29 24 29 57 0 21 5 39 10 39 6 0 10 -5 10 -12 0 -6 3 -9 6 -5 3 3 -1 16
-10 29 -9 12 -16 30 -16 39 0 9 -11 21 -25 27 -14 7 -25 20 -25 31 0 20 -18
31 -51 31 -15 0 -19 6 -17 22 2 17 -8 27 -56 51 -53 26 -58 31 -43 42 16 11
16 13 1 19 -8 3 -25 6 -36 6 -11 0 -18 5 -15 13 2 6 0 24 -4 39 -9 33 7 40 66
29 36 -6 40 -9 37 -35 -2 -22 1 -27 15 -24 10 2 19 12 21 23 2 11 9 25 14 30
7 7 8 -2 4 -27 -6 -36 -5 -38 18 -38 14 0 28 -5 32 -11 4 -7 -5 -10 -28 -8
-44 4 -56 -5 -50 -36 4 -23 62 -68 62 -49 0 18 40 -32 45 -56 3 -16 17 -36 31
-44 14 -10 24 -26 24 -41 0 -13 5 -27 11 -30 6 -4 9 -27 8 -51 -3 -40 2 -49
45 -99 26 -30 53 -55 61 -55 8 0 18 -7 23 -16 5 -9 14 -14 20 -11 12 8 22 67
11 67 -13 0 -20 83 -11 132 7 37 7 45 -4 41 -8 -3 -14 0 -14 6 0 6 5 11 11 11
5 0 8 4 5 9 -3 4 9 30 27 57 31 48 32 52 33 164 1 63 3 120 4 125 6 21 20
-182 15 -212z m-2645 181 c0 -8 -4 -14 -10 -14 -5 0 -10 9 -10 21 0 11 5 17
10 14 6 -3 10 -13 10 -21z m4110 -4 c0 -29 -2 -30 -45 -30 -43 0 -45 1 -45 30
0 29 2 30 45 30 43 0 45 -1 45 -30z m-4170 0 c0 -5 -4 -10 -10 -10 -5 0 -10 5
-10 10 0 6 5 10 10 10 6 0 10 -4 10 -10z m1420 -10 c13 -9 12 -13 -8 -28 -13
-10 -27 -35 -32 -55 -8 -37 -4 -42 28 -38 6 1 12 -6 12 -15 0 -11 -5 -14 -17
-9 -10 4 -22 8 -28 9 -5 1 -16 5 -23 10 -7 4 -15 6 -18 3 -6 -6 55 -67 67 -67
5 0 9 -4 9 -9 0 -12 -59 -20 -66 -9 -3 4 0 8 6 8 6 0 10 8 8 18 -2 10 -13 17
-27 17 -18 0 -24 7 -27 26 -2 21 3 27 29 35 27 7 32 14 33 39 0 31 19 75 32
75 4 0 14 -5 22 -10z m1306 -37 c-11 -11 -17 4 -9 23 7 18 8 18 11 1 2 -10 1
-21 -2 -24z m-81 6 c16 -16 -20 -10 -41 7 -18 14 -18 15 6 8 14 -3 29 -10 35
-15z m359 -15 c23 -9 20 -24 -4 -24 -11 0 -20 7 -20 15 0 17 2 18 24 9z
m-3000 -20 c9 -3 16 -11 16 -16 0 -6 -7 -8 -15 -4 -17 6 -21 -9 -5 -19 15 -9
12 -25 -5 -25 -9 0 -15 9 -15 25 0 16 -6 25 -15 25 -8 0 -15 5 -15 10 0 11 30
13 54 4z m3223 -26 c-3 -7 -5 -2 -5 12 0 14 2 19 5 13 2 -7 2 -19 0 -25z
m1919 -43 c-4 -19 -14 -41 -22 -49 -11 -12 -12 -20 -4 -36 12 -22 1 -27 -19
-7 -10 10 -12 9 -9 -6 1 -10 7 -17 11 -15 5 2 13 -6 19 -16 8 -15 8 -21 0 -24
-7 -2 -12 -8 -12 -13 0 -4 7 -6 15 -3 11 5 15 -1 15 -25 0 -26 4 -31 23 -31
13 0 28 5 35 12 24 24 12 -20 -14 -51 -22 -26 -23 -32 -10 -37 9 -3 16 -15 16
-26 0 -14 -5 -18 -16 -14 -9 3 -25 6 -36 6 -14 0 -18 5 -15 15 4 8 2 17 -4 21
-6 3 -8 12 -5 20 3 8 -1 14 -9 14 -8 0 -15 5 -15 10 0 6 11 8 25 4 16 -4 25
-2 25 6 0 6 -4 9 -9 6 -5 -3 -15 2 -22 11 -11 13 -11 17 -1 20 6 3 12 9 12 15
0 6 -7 8 -15 4 -11 -4 -15 2 -15 27 0 58 -82 134 -105 97 -3 -5 -12 -7 -19 -4
-8 3 -16 -2 -19 -13 -4 -16 -5 -15 -6 3 -1 14 10 26 36 38 32 15 35 19 20 27
-9 6 -17 17 -17 24 0 8 -4 15 -10 15 -5 0 -10 5 -10 10 0 18 22 10 27 -10 3
-11 12 -20 19 -20 8 0 22 -16 31 -35 19 -39 53 -49 53 -15 0 12 7 20 16 20 12
0 15 6 10 25 -5 20 -3 23 11 18 17 -6 17 -5 0 14 -20 23 -11 39 10 17 11 -10
13 -25 9 -49z m-3186 35 c0 -5 -4 -10 -10 -10 -5 0 -10 5 -10 10 0 6 5 10 10
10 6 0 10 -4 10 -10z m690 -33 c0 -25 -6 -37 -24 -47 -26 -13 -56 -8 -56 10 0
6 5 8 10 5 22 -14 50 6 50 36 0 16 5 29 10 29 6 0 10 -15 10 -33z m-3240 15
c0 -11 -37 -41 -44 -35 -9 9 14 43 29 43 8 0 15 -3 15 -8z m2110 -16 c0 -8 6
-17 13 -19 7 -3 5 -6 -5 -6 -10 -1 -18 1 -18 3 0 2 -3 11 -6 20 -3 9 -1 16 5
16 6 0 11 -6 11 -14z m5380 -6 c0 -5 -2 -10 -4 -10 -3 0 -8 5 -11 10 -3 6 -1
10 4 10 6 0 11 -4 11 -10z m-92 -25 c-5 -5 -365 -95 -379 -95 -38 0 23 20 184
61 156 39 210 49 195 34z m-4638 -14 c0 -12 -39 -21 -45 -11 -3 5 3 11 12 13
29 8 33 7 33 -2z m-2460 -10 c0 -6 -4 -13 -10 -16 -5 -3 -10 1 -10 9 0 9 5 16
10 16 6 0 10 -4 10 -9z m1610 -22 c0 -11 -4 -17 -10 -14 -5 3 -10 13 -10 21 0
8 5 14 10 14 6 0 10 -9 10 -21z m220 17 c0 -9 -30 -14 -35 -6 -4 6 3 10 14 10
12 0 21 -2 21 -4z m-1490 -26 c0 -11 -4 -20 -9 -20 -5 0 -7 9 -4 20 3 11 7 20
9 20 2 0 4 -9 4 -20z m900 -1 c0 -5 -9 -9 -20 -9 -19 0 -26 11 -14 23 8 8 34
-3 34 -14z m2238 -38 c15 -8 21 -7 26 4 10 28 26 15 26 -20 0 -32 -7 -40 -32
-36 -5 0 -8 -3 -8 -9 0 -5 -7 -10 -15 -10 -8 0 -15 -8 -15 -17 0 -16 -1 -16
-17 0 -10 10 -18 30 -18 45 0 15 -5 27 -12 27 -26 0 -25 16 3 40 27 23 29 24
36 5 4 -10 16 -23 26 -29z m1042 29 c0 -13 -7 -20 -20 -20 -11 0 -20 5 -20 10
0 6 7 10 15 10 8 0 15 5 15 10 0 6 2 10 5 10 3 0 5 -9 5 -20z m1905 10 c11
-17 -5 -32 -21 -19 -8 6 -14 15 -14 20 0 12 27 11 35 -1z m-5329 -36 c-9 -8
-16 -21 -16 -29 0 -16 -27 -28 -35 -15 -4 6 -1 10 4 10 6 0 11 7 11 15 0 20
43 62 48 47 2 -7 -4 -19 -12 -28z m2914 0 c0 -8 -4 -12 -10 -9 -5 3 -10 10
-10 16 0 5 5 9 10 9 6 0 10 -7 10 -16z m1119 -16 c0 -13 -3 -17 -6 -10 -6 15
-53 16 -53 1 0 -18 -63 -6 -66 14 -2 15 7 17 62 17 60 0 64 -1 63 -22z m-4789
-10 c0 -19 -2 -20 -10 -8 -13 19 -13 30 0 30 6 0 10 -10 10 -22z m680 -9 c0
-11 -4 -17 -10 -14 -5 3 -10 13 -10 21 0 8 5 14 10 14 6 0 10 -9 10 -21z
m1300 2 c0 -5 -7 -11 -15 -15 -15 -5 -20 5 -8 17 9 10 23 9 23 -2z m1369 -7
c2 -2 -5 -4 -17 -4 -12 0 -22 -5 -22 -11 0 -8 -5 -8 -15 1 -21 18 -8 31 23 24
15 -4 29 -8 31 -10z m91 -9 c0 -16 -6 -25 -15 -25 -18 0 -20 20 -2 21 8 0 8 2
-2 6 -11 5 -11 7 0 14 19 12 19 12 19 -16z m-540 5 c0 -5 -2 -10 -4 -10 -3 0
-8 5 -11 10 -3 6 -1 10 4 10 6 0 11 -4 11 -10z m-90 -10 c8 -5 12 -11 9 -14
-3 -3 -14 1 -25 9 -21 16 -8 20 16 5z m-3322 -21 c13 1 22 -3 22 -11 0 -9 -12
-14 -35 -15 -28 -1 -35 3 -35 19 0 13 4 17 13 11 6 -4 22 -6 35 -4z m2842 1
c0 -5 -4 -10 -10 -10 -5 0 -10 5 -10 10 0 6 5 10 10 10 6 0 10 -4 10 -10z
m1360 -8 c0 -15 -6 -18 -32 -14 -29 4 -30 6 -13 18 26 19 45 17 45 -4z m-1310
-2 c0 -5 -4 -10 -10 -10 -5 0 -10 5 -10 10 0 6 5 10 10 10 6 0 10 -4 10 -10z
m2014 -6 c9 -4 16 -18 16 -34 0 -16 6 -31 13 -34 10 -5 10 -7 0 -12 -8 -3 -13
-25 -13 -53 0 -39 -8 -60 -41 -111 -38 -58 -40 -66 -34 -111 4 -29 3 -49 -3
-49 -17 0 -23 102 -7 127 13 20 13 23 -3 32 -15 9 -14 10 8 11 34 0 60 45 60
104 l0 46 -55 0 c-30 0 -55 5 -55 10 0 6 25 10 55 10 48 0 55 3 55 19 0 11 -4
23 -10 26 -10 6 -14 25 -6 25 2 0 11 -3 20 -6z m-5220 -78 c-22 -16 -34 -12
-16 6 7 7 12 21 13 33 0 19 1 19 11 -3 9 -18 8 -25 -8 -36z m4746 29 c-24 -13
-40 -11 -40 4 0 4 15 8 33 9 l32 1 -25 -14z m-3814 -35 c24 0 53 -37 47 -59
-4 -17 -9 -19 -24 -10 -15 7 -19 6 -19 -6 0 -8 23 -32 51 -52 l51 -36 -6 -56
c-3 -31 -5 -73 -6 -94 0 -30 -4 -40 -20 -44 -15 -4 -20 -14 -20 -40 0 -19 -5
-43 -11 -54 -8 -15 -6 -27 10 -53 15 -23 21 -48 19 -82 l-1 -49 -6 45 c-3 25
-13 56 -22 70 -23 34 -33 70 -20 70 6 0 11 9 11 20 0 13 -5 18 -15 14 -22 -9
-18 9 5 24 11 7 20 19 20 26 0 8 9 18 20 21 16 5 19 12 14 28 -4 12 -12 25
-18 29 -7 5 -4 12 9 22 18 14 18 15 3 16 -10 0 -18 7 -18 15 0 9 6 12 15 9 9
-4 15 0 15 9 0 9 3 22 6 31 4 11 1 16 -10 16 -9 0 -16 4 -16 9 0 4 -18 20 -40
35 -30 19 -40 22 -40 12 0 -8 -5 -18 -11 -22 -8 -4 -9 4 -4 27 9 44 24 62 47
56 36 -10 18 22 -24 43 -24 11 -35 18 -25 15 10 -3 25 -5 33 -5z m1304 -20 c0
-5 -4 -10 -10 -10 -5 0 -10 5 -10 10 0 6 5 10 10 10 6 0 10 -4 10 -10z m3208
-18 c2 -7 -2 -10 -12 -6 -9 3 -16 11 -16 16 0 13 23 5 28 -10z m-3176 -170
c100 -2 107 -1 113 18 12 37 39 42 198 37 122 -5 152 -9 159 -21 7 -13 28 -16
105 -16 l96 0 31 -35 31 -35 100 -1 c88 -1 107 2 157 25 42 19 56 30 52 41 -4
8 -2 15 4 15 9 0 26 -30 20 -35 -2 -2 -31 -17 -65 -34 -58 -29 -70 -31 -166
-31 l-103 0 -39 40 -39 40 -97 0 c-63 0 -99 4 -101 11 -4 13 -257 32 -294 23
-12 -3 -26 -16 -33 -30 -10 -22 -17 -24 -83 -25 -40 -1 -92 -1 -115 1 -32 1
-43 -2 -43 -13 0 -8 7 -17 15 -21 8 -3 15 -13 15 -23 -1 -17 -1 -17 -15 0 -13
18 -14 17 -18 -5 -2 -13 -5 -5 -6 20 l-1 42 -80 0 -80 0 0 -119 c0 -136 4
-131 -95 -131 -34 0 -77 -3 -94 -6 -28 -6 -31 -10 -31 -43 0 -27 -3 -32 -10
-21 -5 8 -9 38 -9 65 1 28 3 42 6 33 4 -15 17 -18 82 -18 43 0 93 3 111 7 l33
6 -6 114 c-5 85 -3 115 6 118 7 3 46 6 87 8 l75 3 5 89 4 90 6 -90 5 -90 107
-3z m258 143 c0 -16 -6 -25 -16 -25 -11 0 -14 5 -10 16 3 9 6 20 6 25 0 5 5 9
10 9 6 0 10 -11 10 -25z m-2310 -72 c0 -13 -5 -23 -10 -23 -6 0 -10 6 -9 13 3
25 -1 38 -11 32 -11 -7 -14 18 -3 29 11 10 33 -24 33 -51z m6880 37 c0 -11 -4
-20 -10 -20 -5 0 -10 2 -10 4 0 2 -3 11 -6 20 -4 11 -1 16 10 16 9 0 16 -8 16
-20z m-5323 -5 c9 -10 12 -22 7 -33 -7 -16 -7 -16 -11 1 -3 9 -13 17 -24 17
-10 0 -19 7 -19 15 0 19 27 19 47 0z m-557 -40 c0 -7 -3 -22 -7 -32 -6 -15 -9
-13 -14 12 l-7 30 -1 -27 c0 -16 -5 -28 -11 -28 -5 0 -11 12 -12 28 0 15 -4 5
-7 -23 -4 -29 -2 -53 4 -57 6 -5 4 -12 -5 -18 -34 -22 -45 -3 -24 40 12 23 13
35 5 43 -8 8 -11 8 -11 0 0 -14 -38 -24 -46 -12 -3 5 4 9 14 9 12 0 24 11 32
29 13 31 42 43 73 29 9 -5 17 -15 17 -23z m807 20 c3 -9 2 -19 -2 -23 -4 -4
-10 -1 -12 6 -3 6 -12 12 -21 11 -11 0 -12 -2 -4 -6 19 -8 14 -23 -8 -23 -15
0 -20 7 -20 25 0 21 5 25 30 25 18 0 33 -6 37 -15z m183 -15 c0 -5 -2 -10 -4
-10 -3 0 -8 5 -11 10 -3 6 -1 10 4 10 6 0 11 -4 11 -10z m-2040 -22 c22 -13
40 -25 40 -28 0 -3 -19 -4 -42 -4 -34 1 -43 5 -41 19 0 10 -4 14 -13 11 -7 -3
-16 -1 -19 4 -5 8 9 17 28 19 4 1 26 -9 47 -21z m2030 -4 c0 -8 -4 -12 -10 -9
-5 3 -10 10 -10 16 0 5 5 9 10 9 6 0 10 -7 10 -16z m30 6 c0 -5 -4 -10 -10
-10 -5 0 -10 5 -10 10 0 6 5 10 10 10 6 0 10 -4 10 -10z m4374 -15 c15 -23 15
-25 -1 -25 -10 1 -29 7 -43 15 l-25 14 25 2 25 1 -25 8 -25 8 26 1 c18 1 32
-7 43 -24z m-1002 -27 c-7 -7 -12 -8 -12 -2 0 14 12 26 19 19 2 -3 -1 -11 -7
-17z m468 8 c0 -3 -4 -8 -10 -11 -5 -3 -10 -1 -10 4 0 6 5 11 10 11 6 0 10 -2
10 -4z m-4610 -26 c0 -5 -4 -10 -10 -10 -5 0 -10 5 -10 10 0 6 5 10 10 10 6 0
10 -4 10 -10z m4025 -10 c-18 -7 -19 -8 -2 -15 9 -4 17 -11 17 -17 0 -5 -4 -6
-10 -3 -5 3 -10 1 -10 -6 0 -18 -16 1 -25 29 -6 19 -3 22 22 21 24 0 25 -1 8
-9z m-1295 -18 c0 -9 -90 -35 -98 -28 -3 3 6 9 19 14 13 5 31 12 39 15 23 8
40 8 40 -1z m-3097 -29 c-7 -2 -19 -2 -25 0 -7 3 -2 5 12 5 14 0 19 -2 13 -5z
m2130 -42 c19 -33 25 -195 7 -206 -15 -10 -12 -80 6 -125 23 -56 9 -63 -16 -9
-23 53 -25 94 -5 133 23 43 20 148 -5 188 -11 18 -20 36 -20 41 0 16 17 5 33
-22z m4533 -83 c35 -34 64 -69 64 -77 0 -9 -31 16 -70 54 -65 64 -80 85 -64
85 4 0 35 -28 70 -62z m-5603 45 c-7 -2 -19 -2 -25 0 -7 3 -2 5 12 5 14 0 19
-2 13 -5z m1534 -8 c3 -9 2 -19 -2 -23 -4 -4 -10 -1 -12 6 -3 6 -17 12 -31 12
-21 0 -24 2 -12 10 23 15 50 12 57 -5z m-907 -24 c0 -5 -7 -11 -15 -15 -9 -3
-15 0 -15 9 0 8 7 15 15 15 8 0 15 -4 15 -9z m1107 -23 c-3 -7 -5 -2 -5 12 0
14 2 19 5 13 2 -7 2 -19 0 -25z m343 11 c0 -5 -63 -9 -152 -10 -84 0 -147 -3
-140 -6 6 -2 12 -11 12 -18 0 -21 19 -28 35 -15 12 10 15 9 15 -8 0 -24 -45
-39 -67 -21 -29 25 -35 48 -17 72 16 21 22 22 165 19 85 -2 149 -7 149 -13z
m3490 -24 c0 -8 -2 -15 -4 -15 -2 0 -6 7 -10 15 -3 8 -1 15 4 15 6 0 10 -7 10
-15z m-4990 -90 c0 -8 -4 -15 -9 -15 -5 0 -14 7 -21 15 -10 13 -9 15 9 15 12
0 21 -6 21 -15z m-2274 -16 c13 -15 26 -19 46 -15 16 3 28 1 28 -4 0 -5 13 -5
30 1 17 6 30 15 30 20 0 5 4 9 9 9 5 0 7 -8 4 -18 -5 -21 -72 -42 -119 -39
-38 3 -101 67 -66 67 10 0 27 -9 38 -21z m470 -15 c37 -29 43 -56 19 -88 -8
-11 -15 -41 -15 -67 0 -38 3 -47 18 -45 12 1 18 -8 20 -31 2 -24 8 -33 21 -33
10 0 23 -11 29 -25 16 -35 15 -48 -3 -41 -8 3 -15 1 -15 -4 0 -15 -27 -12 -44
5 -8 8 -17 15 -20 15 -3 0 -3 -7 0 -15 12 -30 -6 -14 -48 42 -39 53 -58 103
-38 103 5 0 10 -4 12 -10 2 -5 13 -7 26 -3 37 9 19 28 -23 25 -34 -4 -37 -2
-32 17 3 14 0 21 -9 21 -8 0 -14 5 -14 10 0 6 12 10 26 10 20 0 24 -4 19 -19
-4 -15 0 -18 25 -17 24 1 30 5 30 24 0 12 6 22 13 22 6 1 -9 12 -35 25 -45 24
-80 56 -45 42 10 -4 24 -10 32 -13 8 -3 15 -1 15 5 0 6 0 14 0 18 0 4 -9 8
-20 8 -11 0 -20 3 -20 8 0 4 0 11 0 16 0 5 8 12 18 14 9 3 18 5 20 6 2 0 19
-11 38 -25z m1409 7 c-3 -6 -14 -11 -23 -11 -15 1 -15 2 2 15 21 16 32 13 21
-4z m2049 13 c9 -3 16 -10 16 -16 0 -5 -4 -7 -9 -4 -5 4 -11 0 -13 -6 -3 -8
-9 -4 -17 10 -12 22 -6 27 23 16z m-2884 -14 c0 -6 -28 -10 -65 -10 -64 0 -65
0 -66 -27 l-2 -28 -4 28 c-2 15 -9 27 -14 27 -5 0 -9 5 -9 10 0 6 33 10 80 10
47 0 80 -4 80 -10z m5405 -31 c35 -39 44 -59 26 -59 -5 0 -12 8 -15 18 -4 11
-18 30 -33 43 l-26 24 6 -22 c6 -28 2 -28 -30 -3 -14 11 -34 20 -44 20 -10 0
-20 3 -22 8 -3 4 19 8 49 8 51 2 56 -1 89 -37z m-4925 16 c0 -8 -4 -15 -10
-15 -5 0 -10 7 -10 15 0 8 5 15 10 15 6 0 10 -7 10 -15z m-666 -11 c11 -28 6
-39 -9 -20 -8 11 -15 23 -15 28 0 14 18 9 24 -8z m2623 -20 c-9 -9 -27 6 -27
22 0 13 2 13 16 -1 9 -9 14 -18 11 -21z m3063 8 c3 -2 -1 -7 -7 -9 -7 -3 -13
-14 -13 -25 0 -17 -3 -18 -15 -8 -8 7 -15 23 -15 37 0 21 3 23 23 17 12 -3 24
-9 27 -12z m-6543 -59 c-3 -10 -5 -4 -5 12 0 17 2 24 5 18 2 -7 2 -21 0 -30z
m3783 8 c0 -14 -18 -23 -30 -16 -6 4 -8 11 -5 16 8 12 35 12 35 0z m-3746 -33
c-3 -13 -12 -30 -19 -38 -7 -8 -10 -21 -7 -29 3 -8 -1 -12 -9 -9 -23 8 -21 44
3 71 28 33 42 34 32 5z m498 5 c-5 -10 -12 -25 -16 -33 -3 -8 -4 -5 -2 8 2 12
-1 22 -7 23 -9 0 14 14 31 18 1 1 -1 -7 -6 -16z m2068 -28 c0 -18 -5 -25 -20
-25 -15 0 -20 7 -20 25 0 18 5 25 20 25 15 0 20 -7 20 -25z m2710 0 c0 -19
-24 -29 -47 -20 -17 6 -17 7 1 21 26 18 46 18 46 -1z m-399 -17 c7 -13 31 -45
54 -73 23 -27 50 -64 60 -82 10 -18 28 -33 39 -35 15 -2 22 -12 24 -31 2 -16
11 -31 19 -34 9 -4 24 -14 33 -22 9 -9 26 -23 36 -32 10 -9 32 -33 47 -53 15
-20 34 -36 42 -36 8 0 15 -5 15 -11 0 -16 -43 1 -59 23 -7 11 -20 17 -28 14
-10 -4 -13 -1 -9 12 7 22 0 31 -51 65 -51 32 -58 23 -9 -11 25 -17 35 -33 40
-62 3 -21 9 -45 12 -54 4 -10 1 -16 -9 -16 -9 0 -17 -10 -19 -22 -2 -14 -11
-24 -23 -25 -11 -2 -14 0 -7 3 6 3 12 17 12 30 0 15 6 24 15 24 19 0 19 14 1
33 -11 10 -12 17 -4 25 8 8 1 21 -26 46 -20 20 -42 50 -48 67 -12 35 -75 98
-98 99 -12 1 -12 3 3 14 16 13 15 17 -24 66 -28 36 -45 50 -57 45 -17 -6 -32
10 -32 38 0 25 37 21 51 -5z m-5294 -30 c-3 -8 -6 -5 -6 6 -1 11 2 17 5 13 3
-3 4 -12 1 -19z m4293 2 c0 -5 -2 -10 -4 -10 -3 0 -8 5 -11 10 -3 6 -1 10 4
10 6 0 11 -4 11 -10z m-3324 -66 c39 -69 42 -101 4 -37 -13 21 -32 53 -42 71
-11 17 -15 32 -9 32 5 0 27 -29 47 -66z m954 51 c-7 -8 -17 -12 -22 -9 -6 4
-5 10 3 15 22 14 33 10 19 -6z m2043 -65 c3 -11 2 -20 -3 -20 -4 0 -10 9 -13
20 -3 11 -2 20 3 20 4 0 10 -9 13 -20z m-13 -65 c16 -19 0 -19 -26 0 -16 12
-16 14 -3 15 9 0 22 -7 29 -15z m-2180 -25 c0 -5 -2 -10 -4 -10 -3 0 -8 5 -11
10 -3 6 -1 10 4 10 6 0 11 -4 11 -10z m310 0 c-8 -5 -33 -10 -55 -10 -35 0
-48 -7 -103 -60 -45 -42 -71 -60 -90 -60 -15 0 -37 -3 -50 -6 -20 -6 -22 -11
-16 -38 15 -71 58 -75 90 -8 11 24 34 57 50 74 16 16 42 43 58 59 15 16 36 29
45 28 13 0 13 -2 -3 -12 -11 -7 -26 -20 -35 -30 -9 -10 -33 -35 -53 -56 -20
-20 -39 -48 -43 -63 -7 -27 -65 -90 -65 -70 0 7 -5 11 -11 9 -15 -3 -46 42
-54 79 -5 26 -2 32 20 42 14 7 41 12 59 12 29 0 67 23 77 47 9 20 79 62 110
66 69 8 85 7 69 -3z m1970 -20 c24 -15 7 -19 -20 -5 -15 8 -19 14 -10 14 8 1
22 -3 30 -9z m-1030 -15 c0 -16 -9 -19 -34 -9 -25 9 -19 24 9 24 16 0 25 -6
25 -15z m-2881 -9 c8 -10 8 -16 -2 -25 -16 -13 -27 -5 -27 21 0 21 13 23 29 4z
m1681 -2 c0 -8 -4 -12 -10 -9 -5 3 -10 10 -10 16 0 5 5 9 10 9 6 0 10 -7 10
-16z m570 -24 c0 -5 -2 -10 -4 -10 -3 0 -8 5 -11 10 -3 6 -1 10 4 10 6 0 11
-4 11 -10z m2571 -7 c0 -16 1 -17 7 -1 6 14 9 15 26 3 16 -12 17 -17 6 -30
-14 -17 -20 -18 -36 -7 -16 10 -28 52 -15 52 6 0 11 -8 12 -17z m-2790 -20
l24 -27 -24 15 c-14 9 -27 21 -29 27 -6 19 3 14 29 -15z m2229 17 c0 -5 -4
-10 -10 -10 -5 0 -10 5 -10 10 0 6 5 10 10 10 6 0 10 -4 10 -10z m348 -7 c-21
-2 -55 -2 -75 0 -21 2 -4 4 37 4 41 0 58 -2 38 -4z m297 -43 c3 -5 3 -15 -1
-21 -6 -11 -23 6 -24 24 0 10 18 9 25 -3z m105 -25 c-12 -15 -30 -12 -30 6 0
5 10 9 21 9 18 0 19 -2 9 -15z m-3529 -46 c80 -59 86 -81 7 -25 -81 56 -104
76 -90 76 7 0 44 -23 83 -51z m1349 36 c0 -8 -9 -15 -19 -15 -11 0 -22 -6 -24
-12 -3 -7 -6 -4 -6 8 -1 11 2 24 6 27 12 13 43 7 43 -8z m-1903 -26 c9 -22 17
-30 28 -25 8 3 21 9 29 12 10 4 12 -1 9 -20 -3 -14 -10 -26 -17 -26 -6 0 -3
-5 8 -11 34 -20 -4 -29 -125 -29 -103 0 -119 2 -143 21 -32 25 -35 47 -4 25
34 -24 153 -22 184 3 13 10 21 20 19 22 -8 8 -14 59 -7 59 4 0 13 -14 19 -31z
m3975 14 c2 -5 28 -21 58 -37 30 -15 62 -37 72 -47 9 -11 21 -19 28 -19 23 0
3 -25 -22 -28 -20 -2 -25 -7 -21 -23 4 -13 0 -19 -11 -19 -9 0 -31 -7 -49 -16
-19 -10 -32 -13 -35 -6 -1 5 -12 8 -22 5 -23 -6 -93 58 -72 65 10 3 8 7 -5 17
-16 12 -15 15 12 51 51 67 59 74 67 57z m-3648 -9 c17 -6 22 -24 8 -24 -5 0
-17 7 -28 15 -19 15 -8 20 20 9z m56 -34 c8 -5 11 -12 7 -16 -4 -4 -15 0 -24
9 -18 18 -8 23 17 7z m4260 -22 c0 -6 -7 -5 -15 2 -8 7 -15 17 -15 22 0 6 7 5
15 -2 8 -7 15 -17 15 -22z m-220 3 c0 -24 -12 -32 -30 -21 -11 7 -11 11 -1 24
18 22 31 20 31 -3z m-2360 -6 c0 -8 -7 -15 -15 -15 -8 0 -15 7 -15 15 0 8 7
15 15 15 8 0 15 -7 15 -15z m-50 -24 c0 -16 6 -32 13 -34 9 -4 8 -8 -3 -16
-12 -8 -9 -12 18 -17 22 -5 32 -12 32 -25 0 -11 -4 -19 -10 -19 -5 0 -10 5
-10 10 0 6 -9 10 -20 10 -10 0 -29 10 -42 23 -13 12 -29 22 -37 22 -8 0 -16 6
-18 13 -3 6 0 12 6 12 6 0 11 9 11 19 0 18 14 27 48 30 7 1 12 -11 12 -28z
m-1593 4 c9 -25 -4 -29 -17 -6 -7 15 -7 21 0 21 6 0 13 -7 17 -15z m3447 -1
c9 -22 -3 -32 -14 -14 -12 19 -12 30 -1 30 5 0 12 -7 15 -16z m778 -24 c3 -16
1 -30 -4 -30 -4 0 -8 14 -8 30 0 17 2 30 4 30 2 0 6 -13 8 -30z m-4365 -48
c-20 -22 -22 -49 -4 -55 6 -2 9 -8 5 -12 -10 -11 -38 14 -38 33 0 18 28 52 43
52 6 0 3 -8 -6 -18z m463 9 c0 -6 -4 -13 -10 -16 -5 -3 -10 1 -10 9 0 9 5 16
10 16 6 0 10 -4 10 -9z m570 -1 c0 -5 -4 -10 -10 -10 -5 0 -10 5 -10 10 0 6 5
10 10 10 6 0 10 -4 10 -10z m-1650 -10 c0 -5 -6 -10 -13 -10 -8 0 -19 -10 -25
-22 l-11 -23 -7 23 c-5 18 -12 22 -30 18 -12 -3 -25 -2 -29 3 -5 9 21 14 93
19 12 1 22 -2 22 -8z m775 -56 c1 -47 -9 -58 -18 -23 -7 25 3 83 12 74 3 -4 6
-27 6 -51z m272 43 c4 -6 -2 -8 -15 -5 -17 5 -22 2 -22 -13 0 -10 -4 -19 -10
-19 -5 0 -10 7 -10 15 0 8 -9 15 -20 15 -11 0 -20 4 -20 9 0 12 89 10 97 -2z
m383 9 c0 -3 -4 -8 -10 -11 -5 -3 -10 -1 -10 4 0 6 5 11 10 11 6 0 10 -2 10
-4z m4975 -6 c-3 -5 -11 -10 -16 -10 -6 0 -7 5 -4 10 3 6 11 10 16 10 6 0 7
-4 4 -10z m-1012 -53 c32 -20 36 -47 7 -47 -11 0 -19 3 -19 8 3 20 -2 32 -15
32 -8 0 -18 5 -21 10 -8 13 5 35 14 23 3 -5 18 -16 34 -26z m1515 -24 c-8 -10
-14 -11 -22 -3 -12 12 -46 14 -46 2 0 -4 5 -13 11 -19 12 -12 1 -66 -12 -58
-4 3 -6 12 -2 20 3 9 1 21 -5 28 -6 6 -12 21 -14 32 -2 15 4 21 27 25 41 8 79
-8 63 -27z m-2498 -5 c0 -5 -9 -3 -20 4 -11 7 -20 16 -20 20 0 5 9 3 20 -4 11
-7 20 -16 20 -20z m-1845 -205 c-4 -120 -9 -220 -11 -222 -13 -14 -14 29 -8
223 4 121 11 216 16 216 6 0 7 -86 3 -217z m2702 191 c-3 -3 -12 -4 -19 -1 -8
3 -5 6 6 6 11 1 17 -2 13 -5z m-2792 -161 c-7 -154 -10 -172 -20 -161 -9 9 8
318 17 318 6 0 7 -62 3 -157z m2495 146 c0 -7 -53 -115 -117 -242 -111 -217
-180 -322 -199 -304 -5 5 5 21 22 35 35 30 109 160 207 365 52 109 62 137 49
137 -15 0 -15 2 -2 10 20 13 40 12 40 -1z m-4210 -14 c-7 -8 -17 -15 -22 -15
-6 0 -5 7 2 15 7 8 17 15 22 15 6 0 5 -7 -2 -15z m502 -2 c18 -16 25 -39 9
-28 -5 3 -11 -3 -13 -12 -2 -13 -9 -8 -25 20 -19 32 -20 37 -6 37 9 0 25 -7
35 -17z m258 4 c0 -21 -27 -53 -37 -43 -4 5 -2 11 5 13 6 3 12 13 12 24 0 10
5 19 10 19 6 0 10 -6 10 -13z m3340 -1 c0 -9 -30 -14 -35 -6 -4 6 3 10 14 10
12 0 21 -2 21 -4z m-2821 -86 c0 -40 -3 -49 -9 -35 -12 29 -12 124 0 105 5 -8
9 -40 9 -70z m-1951 43 c-5 -25 -28 -28 -28 -4 0 12 6 21 16 21 9 0 14 -7 12
-17z m1852 7 c0 -5 -7 -10 -15 -10 -8 0 -15 5 -15 10 0 6 7 10 15 10 8 0 15
-4 15 -10z m-1215 -10 c-3 -5 -14 -10 -23 -10 -15 0 -15 2 -2 10 20 13 33 13
25 0z m-55 -10 c0 -5 -4 -10 -10 -10 -5 0 -10 5 -10 10 0 6 5 10 10 10 6 0 10
-4 10 -10z m2730 0 c0 -5 -2 -10 -4 -10 -3 0 -8 5 -11 10 -3 6 -1 10 4 10 6 0
11 -4 11 -10z m-1605 -30 c3 -5 2 -10 -4 -10 -5 0 -13 5 -16 10 -3 6 -2 10 4
10 5 0 13 -4 16 -10z m348 -4 c8 -21 -4 -56 -19 -56 -15 0 -18 27 -8 54 8 20
20 21 27 2z m-2758 -34 c-19 -4 -37 16 -28 31 3 4 14 0 25 -10 18 -16 19 -18
3 -21z m946 -25 c-16 -16 -19 -7 -13 33 l5 35 10 -28 c6 -20 6 -32 -2 -40z
m3609 53 c0 -5 8 -10 18 -11 14 0 14 -2 -3 -8 -11 -5 -23 -7 -27 -4 -12 6 -10
33 2 33 6 0 10 -4 10 -10z m-4100 -55 c7 -8 19 -15 26 -15 8 0 11 -6 8 -15 -4
-8 -18 -15 -33 -15 -24 0 -28 4 -28 30 0 33 8 38 27 15z m278 8 c-10 -2 -28
-2 -40 0 -13 2 -5 4 17 4 22 1 32 -1 23 -4z m2560 -23 c-1 -18 -6 -30 -15 -30
-8 0 -13 12 -13 30 0 19 5 30 14 30 10 0 14 -10 14 -30z m-978 -12 c0 -6 -7
-7 -16 -4 -9 3 -18 6 -20 6 -3 0 -3 4 1 10 7 11 35 2 35 -12z m487 -45 c-8
-16 -12 -34 -10 -40 3 -7 0 -13 -6 -13 -6 0 -42 -61 -79 -137 -40 -82 -73
-137 -83 -138 -31 -5 -99 -55 -99 -74 0 -10 14 -45 30 -76 17 -31 30 -72 30
-90 0 -19 5 -37 10 -40 16 -10 11 -26 -7 -24 -10 1 -35 1 -56 0 -34 -1 -37 -3
-27 -20 5 -11 10 -30 10 -43 -1 -19 -5 -16 -23 18 -14 25 -27 39 -36 36 -8 -3
-12 1 -9 9 3 8 24 16 51 19 25 3 48 8 51 11 3 3 -1 29 -9 59 -8 29 -12 57 -9
62 3 4 0 8 -5 8 -6 0 -11 21 -11 50 0 28 -4 50 -10 50 -5 0 -10 9 -10 20 0 11
5 20 10 20 6 0 10 7 10 16 0 8 -4 13 -9 10 -5 -3 -14 1 -21 9 -17 20 1 20 45
-1 30 -14 35 -14 65 4 31 20 68 72 49 72 -11 0 -12 37 -1 42 4 2 17 16 29 31
13 17 24 24 28 17 4 -6 -1 -20 -11 -31 -9 -10 -13 -19 -7 -19 5 0 34 47 63
105 30 58 58 105 62 105 5 0 2 -12 -5 -27z m-316 -11 c-6 -2 -11 -10 -11 -18
0 -9 -4 -13 -9 -10 -4 3 -6 17 -3 31 4 21 7 23 19 13 10 -8 11 -14 4 -16z
m-1244 -20 c-14 -15 -31 -40 -37 -57 -12 -32 -5 -111 11 -120 5 -4 6 -11 3
-17 -4 -6 -10 -5 -15 3 -7 11 -9 9 -9 -6 -1 -18 -2 -18 -11 -3 -10 18 -6 118
7 153 8 24 66 87 73 80 2 -3 -7 -18 -22 -33z m781 13 c7 -14 12 -29 12 -33 -1
-10 -40 38 -40 49 0 18 17 8 28 -16z m2102 4 c0 -5 -4 -9 -10 -9 -5 0 -10 7
-10 16 0 8 5 12 10 9 6 -3 10 -10 10 -16z m-2250 -34 c0 -8 -4 -15 -10 -15 -5
0 -10 7 -10 15 0 8 5 15 10 15 6 0 10 -7 10 -15z m2568 -9 c1 -13 -5 -27 -13
-30 -19 -7 -25 5 -18 32 7 29 28 28 31 -2z m-2337 -46 c10 -6 19 -16 19 -22 0
-7 -5 -6 -15 2 -12 10 -15 10 -15 -4 0 -18 -25 -22 -35 -6 -3 6 -1 10 4 10 6
0 11 5 11 11 0 5 -4 8 -9 4 -5 -3 -12 -1 -16 5 -8 13 31 13 56 0z m719 -4 c0
-34 -11 -46 -32 -35 -19 10 -19 11 -2 30 20 23 34 25 34 5z m1965 -15 c22 -44
3 -80 -25 -46 -6 8 -17 13 -23 12 -17 -3 -9 36 11 51 21 16 19 17 37 -17z
m-2415 -1 c0 -5 -4 -10 -10 -10 -5 0 -10 5 -10 10 0 6 5 10 10 10 6 0 10 -4
10 -10z m-1860 -42 c0 -60 20 -108 45 -109 20 0 20 0 0 -9 -15 -6 -25 -1 -42
19 -11 14 -19 29 -17 32 2 4 -3 29 -11 55 -8 27 -15 50 -15 52 0 1 9 2 20 2
17 0 20 -7 20 -42z m1694 4 c-21 -5 -46 6 -40 17 4 5 16 4 31 -2 18 -9 20 -13
9 -15z m2306 -2 c0 -5 -4 -10 -10 -10 -5 0 -10 5 -10 10 0 6 5 10 10 10 6 0
10 -4 10 -10z m-4730 -4 c0 -9 -30 -14 -35 -6 -4 6 3 10 14 10 12 0 21 -2 21
-4z m5210 -6 c0 -5 -2 -10 -4 -10 -3 0 -8 5 -11 10 -3 6 -1 10 4 10 6 0 11 -4
11 -10z m-1853 -64 c-21 -21 -27 -20 -27 3 0 21 20 33 34 20 5 -4 2 -14 -7
-23z m-307 5 c14 -26 13 -29 -9 -40 -17 -10 -19 -7 -18 24 1 39 11 45 27 16z
m2215 -2 c4 -6 13 -8 20 -5 8 3 25 -7 39 -21 l26 -26 0 26 c0 24 29 48 31 24
0 -7 3 -23 5 -37 7 -37 -2 -53 -24 -41 -13 7 -22 7 -29 0 -8 -8 -13 -4 -19 12
-4 13 -8 29 -9 34 0 6 -7 9 -16 7 -9 -1 -24 7 -34 18 -10 11 -13 20 -7 20 6 0
14 -5 17 -11z m-3695 -37 c53 -18 115 -32 163 -35 43 -3 81 -8 84 -11 13 -13
-145 -5 -192 9 -27 9 -63 18 -80 21 -16 3 -31 9 -33 15 -2 5 -12 9 -22 9 -26
0 -50 11 -50 22 0 13 21 8 130 -30z m-12 -79 c37 1 120 -2 184 -7 117 -9 117
-9 111 13 -3 11 -10 21 -15 21 -5 0 -6 5 -3 10 8 13 45 13 45 1 0 -6 -4 -13
-10 -16 -22 -13 -8 -22 38 -23 102 -1 218 -9 245 -17 17 -4 33 -3 42 5 16 13
21 35 6 26 -12 -8 -41 3 -41 15 0 16 60 10 66 -6 4 -8 14 -15 24 -15 10 0 23
-7 30 -15 7 -8 17 -15 22 -15 6 0 33 -16 60 -36 27 -20 52 -34 55 -30 4 3 -3
26 -15 50 -12 24 -22 56 -22 71 0 26 -2 27 -35 22 -36 -6 -49 7 -16 18 21 6
52 -3 63 -19 4 -6 8 -25 8 -43 0 -43 24 -56 69 -37 54 23 72 19 65 -15 -4 -20
-1 -30 10 -34 11 -4 19 4 28 28 12 36 18 39 56 29 32 -9 27 -25 -7 -18 -24 5
-29 2 -35 -19 -7 -28 -30 -40 -58 -31 -16 5 -19 12 -14 34 l5 28 -39 -15 c-22
-9 -40 -21 -40 -27 0 -6 -3 -21 -6 -34 -4 -13 -3 -22 2 -20 18 5 120 -65 142
-99 12 -19 22 -38 22 -43 0 -4 6 -10 14 -13 8 -3 25 -31 39 -61 14 -31 31 -56
36 -56 6 0 11 -8 11 -18 0 -38 33 -114 56 -129 14 -9 26 -14 27 -12 39 58 57
94 57 114 0 15 -4 24 -10 20 -5 -3 -10 1 -10 9 0 9 2 16 4 16 2 0 11 3 20 6
14 5 15 -1 10 -42 -4 -27 -16 -64 -26 -82 -11 -18 -18 -36 -14 -39 3 -3 1 -12
-5 -20 -9 -10 -8 -13 3 -13 9 0 44 -31 78 -69 35 -39 68 -69 73 -68 5 1 11 -3
14 -9 11 -32 -38 -1 -109 68 l-81 79 -18 -28 c-10 -14 -15 -31 -12 -36 3 -6 1
-7 -5 -4 -18 12 -41 -4 -58 -38 -9 -19 -22 -32 -32 -31 -9 0 -21 -9 -27 -21
-13 -30 -35 -38 -35 -12 0 27 62 93 109 114 21 9 44 28 50 41 15 33 14 34 -10
34 -14 0 -25 11 -36 38 -8 20 -18 39 -22 42 -3 3 -6 14 -6 25 0 14 -9 21 -32
26 -30 6 -33 4 -34 -20 0 -14 -3 -20 -6 -12 -5 11 -7 11 -14 0 -8 -12 -11 -11
-19 1 -13 20 -13 50 0 50 6 0 10 -5 10 -12 0 -8 3 -9 10 -2 7 7 7 21 -1 43
-13 36 -35 37 -31 0 3 -24 2 -24 -13 -4 -9 11 -23 18 -33 17 -13 -3 -14 -1 -3
12 10 12 10 19 -3 38 -25 35 -19 46 9 15 26 -27 45 -35 45 -17 0 5 -18 28 -40
51 -34 36 -42 40 -56 28 -10 -8 -12 -15 -5 -17 13 -4 15 -22 2 -22 -5 0 -17 8
-26 17 -16 16 -18 16 -27 0 -18 -34 -29 -17 -26 44 l3 60 -91 58 c-99 62 -187
88 -275 79 -24 -2 -58 1 -76 9 -28 11 -38 11 -72 -3 -42 -17 -71 -16 -286 8
-11 1 -39 -2 -62 -6 -41 -7 -42 -7 -77 41 -20 26 -36 55 -36 63 0 8 16 -9 35
-37 l35 -52 68 2z m2892 82 c10 -11 9 -17 -3 -29 -13 -13 -17 -13 -33 5 -16
17 -16 22 -4 29 20 13 26 12 40 -5z m-3800 -57 c0 -13 -17 -9 -34 8 -23 22 -8
39 15 18 10 -9 19 -21 19 -26z m2810 26 c0 -8 -5 -12 -10 -9 -6 4 -8 11 -5 16
9 14 15 11 15 -7z m-1520 -14 c0 -5 -11 -10 -25 -10 -14 0 -25 5 -25 10 0 6
11 10 25 10 14 0 25 -4 25 -10z m60 0 c0 -5 -11 -10 -25 -10 -14 0 -25 5 -25
10 0 6 11 10 25 10 14 0 25 -4 25 -10z m55 0 c-3 -5 -15 -10 -26 -10 -10 0
-19 5 -19 10 0 6 12 10 26 10 14 0 23 -4 19 -10z m90 0 c-3 -5 -19 -10 -36
-10 -16 0 -29 5 -29 10 0 6 16 10 36 10 21 0 33 -4 29 -10z m955 -15 c0 -8 -7
-15 -15 -15 -16 0 -20 12 -8 23 11 12 23 8 23 -8z m1472 -7 c-7 -7 -12 -8 -12
-2 0 6 3 14 7 17 3 4 9 5 12 2 2 -3 -1 -11 -7 -17z m-3722 -20 c18 -2 26 -10
28 -28 l4 -25 -24 23 c-13 12 -30 22 -36 22 -7 0 -12 2 -12 4 0 2 -3 13 -6 23
-5 16 -4 17 8 1 8 -9 25 -18 38 -20z m2320 22 c0 -5 -7 -10 -15 -10 -8 0 -15
5 -15 10 0 6 7 10 15 10 8 0 15 -4 15 -10z m-2509 -32 c14 -26 6 -32 -20 -16
-25 15 -29 51 -6 42 9 -4 20 -15 26 -26z m2359 -10 c0 -7 -5 -20 -10 -28 -7
-12 -12 -12 -21 -3 -9 9 -9 16 1 28 15 18 30 20 30 3z m2190 -3 c10 -13 10
-19 -5 -35 -10 -11 -21 -20 -25 -20 -9 0 -20 52 -13 62 7 13 30 9 43 -7z m120
7 c0 -10 -22 -32 -32 -32 -5 0 -3 9 4 20 13 20 28 27 28 12z m-3865 -42 c-3
-5 -15 -10 -26 -10 -10 0 -19 5 -19 10 0 6 12 10 26 10 14 0 23 -4 19 -10z
m55 0 c-20 -13 -40 -13 -40 0 0 6 12 10 28 10 21 0 24 -2 12 -10z m1861 -6
c10 -13 10 -17 -2 -25 -21 -13 -26 -11 -32 10 -8 33 12 42 34 15z m2711 2 c32
1 37 -3 40 -28 5 -33 -12 -37 -39 -9 -10 10 -37 22 -60 26 -24 4 -43 11 -43
17 0 6 12 7 33 2 17 -5 48 -8 69 -8z m-4696 -11 c-11 -8 -23 -15 -26 -15 -4 0
-13 -19 -20 -42 -15 -48 -30 -71 -30 -46 0 24 21 81 38 101 8 9 25 17 36 17
21 -1 21 -1 2 -15z m179 4 c4 -6 5 -12 2 -15 -7 -7 -37 7 -37 17 0 13 27 11
35 -2z m309 -15 c4 -11 0 -15 -16 -12 -12 2 -23 9 -26 16 -6 18 35 15 42 -4z
m60 0 c4 -11 0 -15 -16 -12 -12 2 -23 9 -26 16 -6 18 35 15 42 -4z m60 0 c4
-11 0 -15 -16 -12 -12 2 -23 9 -26 16 -6 18 35 15 42 -4z m1421 6 c-3 -5 -11
-10 -16 -10 -6 0 -7 5 -4 10 3 6 11 10 16 10 6 0 7 -4 4 -10z m-1785 -10 c0
-5 -12 -10 -26 -10 -14 0 -23 4 -19 10 3 6 15 10 26 10 10 0 19 -4 19 -10z
m55 0 c-3 -5 -15 -10 -26 -10 -11 0 -17 5 -14 10 3 6 15 10 26 10 11 0 17 -4
14 -10z m60 0 c-3 -5 -15 -10 -26 -10 -11 0 -17 5 -14 10 3 6 15 10 26 10 11
0 17 -4 14 -10z m60 0 c-3 -5 -15 -10 -26 -10 -11 0 -17 5 -14 10 3 6 15 10
26 10 11 0 17 -4 14 -10z m253 -7 c5 -18 -23 -16 -39 3 -11 14 -10 15 11 12
13 -1 25 -9 28 -15z m89 0 c24 -3 48 -13 55 -21 11 -13 10 -14 -12 -8 -14 4
-46 10 -72 13 -33 4 -48 10 -48 20 0 10 6 13 17 9 9 -4 36 -10 60 -13z m1008
7 c8 -12 -16 -50 -32 -50 -16 0 -16 2 -3 34 10 27 24 33 35 16z m595 -10 c0
-13 -7 -20 -20 -20 -22 0 -28 25 -7 33 22 10 27 7 27 -13z m-2790 0 c0 -5 -11
-10 -25 -10 -14 0 -25 5 -25 10 0 6 11 10 25 10 14 0 25 -4 25 -10z m2830 -6
c0 -14 -3 -14 -15 -4 -8 7 -15 14 -15 16 0 2 7 4 15 4 8 0 15 -7 15 -16z
m2583 -16 c4 -14 0 -26 -11 -34 -20 -14 -32 -2 -32 34 0 30 36 30 43 0z
m-3533 2 c0 -5 -2 -10 -4 -10 -3 0 -8 5 -11 10 -3 6 -1 10 4 10 6 0 11 -4 11
-10z m-584 -37 c-7 -7 -26 7 -26 19 0 6 6 6 15 -2 9 -7 13 -15 11 -17z m3468
6 c-3 -5 -10 -7 -15 -3 -5 3 -7 10 -3 15 3 5 10 7 15 3 5 -3 7 -10 3 -15z
m-5340 -5 c9 -23 8 -24 -19 -24 -27 0 -32 9 -13 28 16 16 25 15 32 -4z m1206
6 c0 -5 -5 -10 -11 -10 -5 0 -7 5 -4 10 3 6 8 10 11 10 2 0 4 -4 4 -10z m3095
-1 c10 -15 -1 -23 -20 -15 -9 3 -13 10 -10 16 8 13 22 13 30 -1z m455 -9 c0
-5 -9 -8 -20 -7 -20 1 -25 8 -14 20 8 7 34 -3 34 -13z m-3640 0 c0 -5 -4 -10
-10 -10 -5 0 -10 5 -10 10 0 6 5 10 10 10 6 0 10 -4 10 -10z m294 -25 c5 -18
13 -25 31 -25 14 0 25 -4 25 -10 0 -5 -15 -10 -34 -10 -28 0 -35 4 -38 22 -2
12 -9 23 -16 26 -7 2 -10 -2 -6 -12 7 -19 -14 -21 -37 -3 -25 19 -11 37 31 37
32 0 39 -4 44 -25z m522 -2 c-8 -8 -36 5 -36 17 0 7 6 7 21 0 11 -7 18 -14 15
-17z m1379 17 c3 -5 2 -10 -4 -10 -5 0 -13 5 -16 10 -3 6 -2 10 4 10 5 0 13
-4 16 -10z m-545 -10 c0 -5 -7 -10 -16 -10 -8 0 -12 5 -9 10 3 6 10 10 16 10
5 0 9 -4 9 -10z m2255 -7 c-4 -10 -7 -22 -6 -28 13 -87 12 -105 -2 -105 -9 0
-19 5 -22 10 -3 6 -1 10 4 10 6 0 11 7 11 15 0 8 -6 15 -14 15 -8 0 -28 13
-45 29 -26 25 -39 29 -80 28 -28 -1 -55 3 -60 8 -20 20 101 11 137 -10 17 -11
32 -23 32 -27 0 -4 8 -8 17 -8 13 0 11 6 -12 30 -16 16 -25 33 -22 37 4 4 13
1 19 -5 16 -16 28 -15 28 3 0 8 5 15 11 15 7 0 8 -7 4 -17z m-3305 -10 c0 -15
2 -16 10 -3 8 12 10 11 10 -7 0 -16 -5 -20 -20 -16 -20 5 -29 43 -10 43 6 0
10 -8 10 -17z m266 -20 c-8 -8 -36 5 -36 17 0 7 6 7 21 0 11 -7 18 -14 15 -17z
m-1059 -22 c-9 -32 -16 -40 -41 -45 -17 -3 -41 -8 -53 -12 -13 -4 -23 -2 -23
4 0 5 22 15 49 22 42 10 50 15 55 41 3 16 9 29 14 29 5 0 5 -17 -1 -39z m697
23 c4 -10 1 -14 -6 -12 -15 5 -23 28 -10 28 5 0 13 -7 16 -16z m304 4 c-5 -16
-48 -24 -48 -10 0 11 17 20 38 21 8 1 12 -5 10 -11z m782 -23 c28 -29 39 -35
62 -30 16 4 28 2 28 -3 0 -6 -26 -16 -57 -22 -32 -6 -68 -14 -80 -17 -13 -3
-23 -1 -23 4 0 5 -14 23 -30 40 -19 19 -27 34 -20 38 5 3 13 -1 16 -9 3 -9 12
-16 20 -16 8 0 14 -9 14 -20 0 -21 19 -25 54 -11 17 7 16 9 -8 38 -46 55 -27
61 24 8z m763 15 c-3 -11 -9 -20 -14 -20 -23 0 -6 -29 19 -33 25 -4 25 -4 -5
-6 -29 -1 -33 2 -33 23 0 34 10 56 25 56 8 0 11 -8 8 -20z m557 -10 c0 -13 -7
-20 -19 -20 -10 0 -21 9 -24 20 -4 16 0 20 19 20 17 0 24 -6 24 -20z m-2320
-15 c0 -9 -6 -12 -15 -9 -8 4 -12 10 -9 15 8 14 24 10 24 -6z m3185 -15 c3 -5
-1 -10 -9 -10 -8 0 -18 5 -21 10 -3 6 1 10 9 10 8 0 18 -4 21 -10z m-3305 -10
c0 -5 15 -10 33 -11 30 0 31 -1 10 -11 -13 -6 -23 -18 -23 -27 -1 -14 -2 -14
-14 2 -7 9 -18 17 -25 17 -6 0 -11 2 -11 4 0 2 -3 11 -6 20 -4 12 0 16 15 16
12 0 21 -4 21 -10z m397 -20 c2 -13 -3 -20 -12 -20 -21 0 -31 30 -14 40 16 11
22 6 26 -20z m620 -1 c-3 -12 0 -16 9 -12 9 3 14 -1 14 -12 0 -9 30 -45 67
-80 37 -35 64 -67 61 -71 -4 -3 -35 20 -70 53 -42 39 -69 58 -81 55 -13 -2
-17 -10 -14 -22 4 -17 -10 -30 -34 -30 -17 0 -9 28 9 32 9 3 -2 4 -24 4 -29 0
-40 -4 -37 -13 8 -20 -8 -15 -28 9 -26 30 -24 36 19 47 46 13 52 13 52 1 0 -5
-8 -10 -17 -10 -12 0 -14 -3 -7 -10 7 -7 19 -6 38 4 18 9 23 16 14 19 -10 4
-10 8 2 16 26 18 0 25 -34 8 -50 -23 -54 -6 -4 19 47 24 72 21 65 -7z m-903 0
c-6 -11 -24 -2 -24 11 0 5 7 7 15 4 8 -4 12 -10 9 -15z m-914 -18 c0 -11 -31
-24 -39 -16 -3 3 1 10 9 15 19 12 30 12 30 1z m204 -34 c-6 -18 -39 -23 -48
-9 -3 5 2 18 12 30 14 17 19 19 30 8 7 -7 10 -20 6 -29z m1076 13 c0 -5 -2
-10 -4 -10 -3 0 -8 5 -11 10 -3 6 -1 10 4 10 6 0 11 -4 11 -10z m-1340 -21
c-7 -11 -14 -19 -16 -16 -7 7 7 37 17 37 6 0 5 -9 -1 -21z m915 1 c3 -6 -5
-10 -19 -10 -14 0 -28 5 -31 10 -3 6 5 10 19 10 14 0 28 -4 31 -10z m805 0 c0
-5 -4 -10 -9 -10 -6 0 -13 5 -16 10 -3 6 1 10 9 10 9 0 16 -4 16 -10z m670
-11 c16 -4 30 -19 30 -32 0 -9 -61 -4 -78 7 -16 10 -2 38 17 33 9 -2 23 -6 31
-8z m-1100 -19 c0 -11 -4 -20 -10 -20 -5 0 -10 9 -10 20 0 11 5 20 10 20 6 0
10 -9 10 -20z m3215 -20 c-6 -10 -45 -9 -45 1 0 10 23 17 37 11 7 -2 11 -8 8
-12z m-1480 0 c3 -5 17 -10 30 -10 13 0 27 -4 30 -10 3 -5 -3 -10 -14 -10 -28
0 -71 18 -71 30 0 13 17 13 25 0z m-694 -66 c-25 -28 -31 -42 -27 -63 6 -23 5
-24 -7 -9 -12 15 -22 8 -103 -73 -68 -68 -94 -89 -114 -88 -24 2 -24 2 -2 6
13 3 42 25 65 51 93 103 211 222 215 217 3 -2 -10 -21 -27 -41z m-647 21 c-4
-8 -8 -15 -10 -15 -2 0 -4 7 -4 15 0 8 4 15 10 15 5 0 7 -7 4 -15z m881 5 c3
-5 -1 -10 -9 -10 -9 0 -16 5 -16 10 0 6 4 10 9 10 6 0 13 -4 16 -10z m-315
-21 c0 -5 -4 -9 -10 -9 -5 0 -10 7 -10 16 0 8 5 12 10 9 6 -3 10 -10 10 -16z
m-966 -4 c-4 -8 -8 -15 -10 -15 -2 0 -4 7 -4 15 0 8 4 15 10 15 5 0 7 -7 4
-15z m1134 -9 c3 -15 1 -16 -17 -5 -11 7 -17 17 -14 22 8 13 28 2 31 -17z
m272 9 c0 -16 -9 -19 -34 -9 -25 9 -19 24 9 24 16 0 25 -6 25 -15z m670 0 c0
-8 -4 -15 -10 -15 -5 0 -10 7 -10 15 0 8 5 15 10 15 6 0 10 -7 10 -15z m430 5
c0 -5 -2 -10 -4 -10 -3 0 -8 5 -11 10 -3 6 -1 10 4 10 6 0 11 -4 11 -10z
m-2276 -59 c0 -11 3 -21 7 -21 3 0 9 -9 12 -20 7 -26 0 -25 -24 3 -21 25 -26
71 -6 64 6 -2 12 -14 11 -26z m306 23 c0 -3 -13 -23 -30 -44 -24 -30 -27 -40
-17 -52 16 -20 103 -78 116 -78 6 0 11 -7 11 -15 0 -23 -9 -19 -83 35 -76 57
-86 72 -62 96 9 9 23 27 32 40 14 22 33 32 33 18z m2430 -15 c0 -5 -4 -9 -10
-9 -5 0 -10 7 -10 16 0 8 5 12 10 9 6 -3 10 -10 10 -16z m-4050 -9 c0 -13 -28
-25 -38 -16 -3 4 0 11 8 16 20 13 30 12 30 0z m1090 -15 c0 -24 0 -24 89 -21
78 2 88 1 84 -14 -4 -14 -13 -15 -61 -9 -31 5 -66 5 -77 2 -11 -4 -31 -6 -45
-4 -17 1 -36 -9 -60 -34 -19 -20 -44 -35 -57 -35 -13 0 -23 -5 -23 -10 0 -6
-11 -22 -25 -36 -20 -20 -22 -26 -10 -30 34 -13 14 -33 -40 -39 -37 -5 -55
-12 -55 -21 0 -19 -26 -18 -34 2 -10 27 -7 32 34 50 26 12 43 27 46 41 4 13
10 23 15 23 5 0 9 7 9 16 0 10 6 14 14 11 24 -9 76 15 76 35 0 19 -20 18 -78
-3 -29 -11 -52 -11 -52 -1 0 4 30 15 68 25 37 10 87 31 112 47 56 36 70 37 70
5z m1630 -15 c0 -5 -2 -10 -4 -10 -3 0 -8 5 -11 10 -3 6 -1 10 4 10 6 0 11 -4
11 -10z m-40 -9 c0 -10 -24 -21 -43 -21 -7 0 -3 7 7 15 22 17 36 19 36 6z
m213 2 c-7 -2 -19 -2 -25 0 -7 3 -2 5 12 5 14 0 19 -2 13 -5z m-1463 -23 c0
-5 -2 -10 -4 -10 -3 0 -8 5 -11 10 -3 6 -1 10 4 10 6 0 11 -4 11 -10z m1530
-10 c0 -5 -4 -10 -10 -10 -5 0 -10 5 -10 10 0 6 5 10 10 10 6 0 10 -4 10 -10z
m-2460 -10 c0 -5 -2 -10 -4 -10 -3 0 -8 5 -11 10 -3 6 -1 10 4 10 6 0 11 -4
11 -10z m885 -1 c11 -17 0 -20 -21 -4 -17 13 -17 14 -2 15 9 0 20 -5 23 -11z
m825 -3 c0 -3 -4 -8 -10 -11 -5 -3 -10 -1 -10 4 0 6 5 11 10 11 6 0 10 -2 10
-4z m143 -3 c9 -9 -13 -34 -24 -27 -14 8 -11 34 4 34 8 0 17 -3 20 -7z m967
-7 c0 -8 -13 -16 -30 -18 -33 -5 -39 6 -12 21 24 15 42 13 42 -3z m-3197 -30
c8 -47 -4 -226 -15 -226 -4 0 -8 59 -7 130 1 125 10 167 22 96z m4395 -5 c-10
-14 -18 -17 -28 -10 -13 8 -11 13 10 30 27 23 39 10 18 -20z m-439 2 c-1 -16
-5 -39 -9 -53 -6 -20 -8 -14 -9 28 -1 28 3 52 9 52 6 0 10 -12 9 -27z m-2053
2 c13 -13 13 -15 1 -15 -8 0 -17 7 -21 15 -3 8 -3 15 0 15 3 0 12 -7 20 -15z
m238 -14 c-10 -17 -25 -29 -36 -28 -23 2 -23 1 5 31 33 35 53 34 31 -3z
m-1604 -2 c0 -6 -4 -7 -10 -4 -5 3 -10 11 -10 16 0 6 5 7 10 4 6 -3 10 -11 10
-16z m889 -78 c80 -77 131 -111 165 -111 19 0 22 26 4 33 -10 3 -10 7 0 19 7
9 10 23 6 32 -3 9 -2 16 4 16 11 0 22 -72 15 -100 -3 -11 -10 -20 -17 -19 -26
3 -47 -2 -42 -10 6 -9 -35 -24 -43 -16 -2 3 4 14 14 25 15 17 16 20 3 20 -9 0
-26 11 -39 25 -13 13 -29 25 -36 25 -7 0 -17 9 -23 21 -8 14 -19 19 -37 17
-21 -2 -27 2 -30 22 -1 14 -14 35 -28 47 -28 25 -31 33 -12 33 8 0 51 -36 96
-79z m981 69 c0 -5 -2 -10 -4 -10 -3 0 -8 5 -11 10 -3 6 -1 10 4 10 6 0 11 -4
11 -10z m-1290 -24 c0 -3 -9 -21 -21 -40 l-21 -36 31 0 c17 0 31 -4 31 -10 0
-5 -13 -10 -30 -10 -24 0 -30 -4 -31 -22 l-2 -23 -4 23 c-4 18 -11 22 -39 22
-22 0 -37 -6 -40 -15 -6 -15 -34 -21 -34 -7 1 26 26 39 80 41 19 1 29 10 42
41 9 22 21 40 27 40 6 0 11 -2 11 -4z m1819 -15 c8 -14 7 -22 -4 -31 -8 -7
-15 -9 -15 -4 0 5 -3 19 -6 32 -8 27 11 30 25 3z m1956 9 c4 -6 -5 -10 -19
-10 -14 0 -26 5 -26 10 0 6 9 10 19 10 11 0 23 -4 26 -10z m-1335 -10 c0 -5
-2 -10 -4 -10 -3 0 -8 5 -11 10 -3 6 -1 10 4 10 6 0 11 -4 11 -10z m-4440 -57
c0 -11 -4 -11 -20 -1 -11 7 -20 21 -20 32 0 18 1 19 20 1 11 -10 20 -24 20
-32z m2475 37 c3 -5 -3 -10 -14 -10 -11 0 -23 5 -26 10 -3 6 3 10 14 10 11 0
23 -4 26 -10z m-345 -25 c0 -14 -4 -25 -10 -25 -5 0 -10 11 -10 25 0 14 5 25
10 25 6 0 10 -11 10 -25z m390 15 c0 -5 -4 -10 -9 -10 -6 0 -13 5 -16 10 -3 6
1 10 9 10 9 0 16 -4 16 -10z m430 0 c0 -5 -4 -10 -10 -10 -5 0 -10 5 -10 10 0
6 5 10 10 10 6 0 10 -4 10 -10z m1660 -10 c0 -11 -4 -20 -10 -20 -5 0 -10 9
-10 20 0 11 5 20 10 20 6 0 10 -9 10 -20z m-854 -22 c4 -13 1 -24 -7 -29 -9
-5 -9 -9 -3 -9 7 0 14 -9 17 -20 4 -15 -1 -21 -16 -25 -34 -8 -67 -2 -67 12 0
19 19 26 36 12 8 -6 17 -9 21 -5 3 3 1 6 -5 6 -7 0 -12 17 -12 45 0 35 3 43
15 39 8 -3 17 -15 21 -26z m-611 12 c3 -5 1 -10 -4 -10 -6 0 -11 5 -11 10 0 6
2 10 4 10 3 0 8 -4 11 -10z m-95 -151 c0 -90 -3 -129 -11 -129 -9 0 -10 34 -7
120 3 66 1 123 -3 126 -5 3 -9 12 -9 21 0 13 3 13 15 3 12 -10 15 -39 15 -141z
m1190 94 c0 -5 -6 -16 -13 -25 -16 -20 -40 -8 -31 15 6 17 44 25 44 10z
m-4270 -53 c0 -6 -34 -10 -82 -10 -46 -1 -112 -7 -148 -15 -76 -17 -90 -18
-90 -7 0 5 35 16 78 24 89 18 242 23 242 8z m890 -16 c0 -8 -4 -12 -10 -9 -5
3 -10 13 -10 21 0 8 5 12 10 9 6 -3 10 -13 10 -21z m1720 -3 c0 -17 -5 -33
-11 -37 -9 -5 -10 1 -5 21 5 19 3 31 -6 36 -10 7 -9 9 5 9 12 0 17 -8 17 -29z
m60 -1 c0 -13 -11 -13 -30 0 -12 8 -11 10 8 10 12 0 22 -4 22 -10z m330 -39
c-1 -13 -4 -12 -15 3 -8 11 -15 27 -15 35 1 13 4 12 15 -3 8 -11 15 -27 15
-35z m-490 29 c0 -5 -4 -10 -10 -10 -5 0 -10 5 -10 10 0 6 5 10 10 10 6 0 10
-4 10 -10z m1764 -31 c15 -22 26 -42 23 -45 -5 -5 -67 69 -67 80 0 16 18 2 44
-35z m-1022 6 c39 -43 39 -41 -7 -84 -43 -39 -65 -50 -65 -33 0 5 11 15 25 22
31 17 32 28 3 32 -19 2 -24 10 -26 41 -3 35 -2 37 27 37 16 0 36 -7 43 -15z
m1811 -2 c42 -9 32 -24 -13 -19 -22 3 -45 8 -50 11 -16 10 0 27 19 20 9 -4 28
-9 44 -12z m-4143 -8 c7 -8 8 -15 2 -15 -5 0 -15 7 -22 15 -7 8 -8 15 -2 15 5
0 15 -7 22 -15z m370 -10 c0 -9 -6 -12 -15 -9 -8 4 -12 10 -9 15 8 14 24 10
24 -6z m1051 -8 c-13 -13 -26 -3 -16 12 3 6 11 8 17 5 6 -4 6 -10 -1 -17z
m-843 -6 c10 -6 9 -10 -7 -14 -14 -3 -21 0 -21 9 0 16 9 18 28 5z m2512 -5 c0
-8 -6 -16 -14 -19 -17 -7 -30 20 -13 27 21 8 27 6 27 -8z m-3280 -6 c0 -5 -4
-10 -9 -10 -6 0 -13 5 -16 10 -3 6 1 10 9 10 9 0 16 -4 16 -10z m236 -17 c-7
-7 -26 7 -26 19 0 6 6 6 15 -2 9 -7 13 -15 11 -17z m1205 -26 c4 -5 12 -6 19
-2 8 5 10 2 7 -11 -4 -11 -9 -31 -13 -46 -4 -18 -13 -28 -25 -28 -20 0 -26 15
-9 25 6 3 10 13 10 21 0 8 -4 13 -9 9 -10 -6 -31 25 -31 45 0 13 41 3 51 -13z
m1599 3 c0 -5 -4 -10 -10 -10 -5 0 -10 5 -10 10 0 6 5 10 10 10 6 0 10 -4 10
-10z m2070 -3 c0 -18 -27 -53 -35 -46 -7 8 15 59 27 59 4 0 8 -6 8 -13z
m-4110 -21 c0 -8 -4 -18 -10 -21 -5 -3 -10 3 -10 14 0 12 5 21 10 21 6 0 10
-6 10 -14z m1437 -43 c-9 -9 -20 -13 -24 -9 -4 4 -1 11 7 16 25 16 35 11 17
-7z m-2167 -4 c0 -5 -4 -7 -10 -4 -5 3 -10 -1 -10 -9 0 -9 -4 -16 -9 -16 -6 0
-9 9 -8 20 1 20 37 30 37 9z m900 1 c0 -5 -4 -10 -10 -10 -5 0 -10 5 -10 10 0
6 5 10 10 10 6 0 10 -4 10 -10z m2600 6 c0 -3 -4 -8 -10 -11 -5 -3 -10 -1 -10
4 0 6 5 11 10 11 6 0 10 -2 10 -4z m-3577 -54 c8 -11 7 -16 -6 -23 -21 -12
-21 -23 -2 -42 12 -13 12 -15 -5 -20 -10 -3 -27 1 -37 9 -17 12 -17 13 -1 14
14 0 16 6 12 28 -7 33 16 99 24 67 2 -11 9 -26 15 -33z m-128 -7 c0 -54 -21
-64 -47 -23 -22 36 -22 38 1 38 10 0 21 7 25 15 11 29 21 15 21 -30z m2335 26
c0 -13 -26 -32 -33 -24 -8 7 11 33 24 33 5 0 9 -4 9 -9z m-2640 -11 c0 -5 -2
-10 -4 -10 -3 0 -8 5 -11 10 -3 6 -1 10 4 10 6 0 11 -4 11 -10z m797 -6 c6
-17 -12 -64 -25 -64 -5 0 -9 18 -10 40 -1 30 2 40 13 40 9 0 18 -7 22 -16z
m1078 6 c3 -5 -1 -20 -9 -32 -16 -22 -16 -22 -16 10 0 31 12 42 25 22z m729
-46 c11 -33 13 -52 5 -65 -14 -27 -22 -23 -15 9 4 16 0 39 -9 56 -17 32 -19
46 -6 46 5 0 16 -21 25 -46z m630 21 c-4 -8 -10 -15 -15 -15 -5 0 -9 7 -9 15
0 8 7 15 15 15 9 0 12 -6 9 -15z m-688 -11 c16 -13 16 -15 2 -10 -12 3 -18 0
-18 -9 0 -8 -4 -15 -10 -15 -5 0 -10 11 -10 25 0 29 9 31 36 9z m-2450 -9 c4
-8 3 -23 -1 -32 -6 -15 -8 -16 -13 -3 -3 8 -12 19 -20 24 -12 7 -12 10 -1 17
20 13 29 11 35 -6z m54 11 c0 -3 -4 -8 -10 -11 -5 -3 -10 -1 -10 4 0 6 5 11
10 11 6 0 10 -2 10 -4z m330 -21 c0 -8 -4 -15 -10 -15 -5 0 -10 7 -10 15 0 8
5 15 10 15 6 0 10 -7 10 -15z m2060 -71 c0 -11 -34 -33 -52 -34 -9 0 -20 5
-24 11 -5 9 1 10 20 5 19 -5 26 -3 26 9 0 8 7 15 15 15 8 0 15 -3 15 -6z
m-1325 -51 c-10 -71 -25 -77 -24 -10 1 43 5 57 16 57 12 0 14 -9 8 -47z m1384
19 c20 -16 58 -34 86 -41 34 -9 58 -22 77 -44 28 -32 36 -71 18 -82 -6 -4 -4
-19 5 -42 18 -42 20 -103 4 -103 -7 0 -9 9 -5 22 6 24 -31 138 -45 138 -4 0
-11 -5 -15 -11 -4 -7 -10 -7 -16 -1 -6 6 -7 15 -4 21 10 15 56 14 56 -1 0 -9
3 -9 12 0 18 18 -45 78 -91 87 -40 7 -88 34 -116 65 -26 29 -9 25 34 -8z
m-568 -11 c-9 -6 -12 -21 -9 -44 3 -29 0 -38 -17 -45 -15 -7 -27 -6 -40 5 -11
8 -28 12 -37 10 -15 -4 -47 19 -37 27 2 1 33 19 69 39 43 24 68 33 75 26 7 -7
5 -13 -4 -18z m-1521 4 c20 -24 6 -28 -15 -5 -10 11 -13 20 -8 20 6 0 16 -7
23 -15z m1818 -19 c-3 -15 -5 -16 -23 -2 -17 13 -18 17 -5 25 18 12 33 -1 28
-23z m2157 13 c-4 -5 -11 -9 -16 -9 -6 0 -18 -7 -26 -16 -13 -13 -17 -13 -24
-2 -16 25 -9 37 24 40 37 4 50 0 42 -13z m-2836 -36 c1 -15 -25 -17 -34 -3 -3
5 -1 20 6 32 12 22 12 22 20 3 4 -11 8 -26 8 -32z m537 27 c8 0 14 -5 14 -11
0 -12 -40 -2 -55 14 -7 7 -4 8 8 3 10 -3 25 -6 33 -6z m2074 0 c0 -5 -5 -10
-11 -10 -5 0 -7 5 -4 10 3 6 8 10 11 10 2 0 4 -4 4 -10z m-3700 -42 c0 -6 -7
-5 -15 2 -8 7 -15 17 -15 22 0 6 7 5 15 -2 8 -7 15 -17 15 -22z m1695 22 c3
-5 -3 -10 -14 -10 -12 0 -21 5 -21 10 0 6 6 10 14 10 8 0 18 -4 21 -10z m64
-9 c9 -6 10 -14 4 -26 -9 -16 -11 -16 -26 0 -29 29 -13 48 22 26z m3234 -21
c5 -21 -1 -24 -27 -14 -22 9 -20 34 3 34 10 0 21 -9 24 -20z m-4785 -9 c3 -8
-1 -12 -9 -9 -7 2 -15 10 -17 17 -3 8 1 12 9 9 7 -2 15 -10 17 -17z m2217 -30
l-40 -6 -3 -107 c-2 -95 -5 -109 -22 -118 -23 -12 -27 -59 -8 -78 7 -7 24 -12
40 -12 15 0 44 -11 64 -25 24 -16 51 -25 76 -25 35 0 41 4 53 34 8 19 31 47
50 63 31 26 34 33 27 54 -6 13 -19 33 -31 43 -21 19 -21 19 -21 -1 0 -21 -40
-46 -57 -35 -6 4 -14 18 -18 31 -7 22 -5 24 24 18 18 -4 31 -2 31 4 0 5 -13
12 -30 16 -55 10 -31 21 45 20 41 -1 75 -5 75 -9 0 -4 -9 -8 -19 -8 -43 0 -31
-31 14 -36 11 -1 32 -7 48 -13 24 -9 27 -16 27 -53 0 -32 5 -46 20 -56 25 -15
27 -52 3 -53 -17 -1 -17 -2 0 -6 35 -9 16 -20 -26 -16 -48 6 -107 -17 -107
-42 0 -18 -40 -31 -50 -15 -5 8 -9 7 -14 -5 -4 -11 -15 -15 -33 -13 -22 2 -28
-2 -34 -22 -5 -17 -7 -19 -8 -7 -1 17 -3 17 -37 -3 -33 -21 -35 -21 -32 -4 2
15 -7 21 -43 29 -53 12 -146 69 -154 95 -3 10 -12 21 -20 24 -23 8 -18 32 10
44 21 10 24 17 19 37 -4 15 -2 25 5 25 20 0 13 -58 -8 -70 -20 -10 -20 -11 2
-44 28 -43 96 -86 147 -93 22 -3 45 -11 50 -19 9 -10 17 -9 44 7 18 10 58 28
89 38 32 11 67 27 79 35 12 9 37 16 55 16 23 0 33 5 33 15 0 8 7 15 16 15 14
0 15 2 3 16 -8 9 -18 37 -24 62 -7 32 -16 47 -32 53 -21 8 -23 5 -23 -26 0
-27 -7 -39 -31 -57 -17 -13 -40 -42 -50 -65 -17 -39 -22 -43 -53 -43 -36 0
-126 37 -126 52 0 4 -7 5 -15 2 -9 -4 -28 -1 -44 6 -40 16 -49 64 -21 103 12
15 20 35 19 45 -1 9 -1 56 0 105 l1 87 53 -1 c51 -2 51 -2 12 -8z m235 -15 c0
-18 -4 -23 -18 -19 -10 2 -18 13 -18 24 0 12 7 19 18 19 12 0 18 -8 18 -24z
m628 11 c6 -5 12 -28 12 -51 0 -24 -6 -48 -12 -54 -11 -8 -103 -32 -125 -32
-3 0 -2 16 1 35 5 25 3 35 -6 36 -10 0 -10 2 0 6 6 2 13 19 13 36 1 18 3 24 6
14 6 -23 39 -18 35 5 -2 13 4 16 30 15 18 -1 39 -6 46 -10z m-4488 -49 c0 -13
-23 -5 -28 10 -2 7 2 10 12 6 9 -3 16 -11 16 -16z m4880 18 c0 -2 -9 -6 -20
-9 -11 -3 -20 -1 -20 4 0 5 9 9 20 9 11 0 20 -2 20 -4z m-2482 -39 c-9 -30 -6
-42 32 -116 38 -77 40 -84 24 -96 -18 -13 -113 -25 -199 -25 -36 0 -46 3 -35
10 8 5 55 10 103 10 49 0 97 5 107 10 19 10 18 15 -22 94 -38 78 -40 86 -28
115 17 41 31 40 18 -2z m386 -3 c25 -14 46 -30 46 -35 0 -6 -22 2 -50 18 -27
15 -50 31 -50 36 0 11 3 9 54 -19z m-2798 -16 c-9 -12 -16 -36 -16 -53 0 -47
-11 -79 -21 -63 -5 7 -9 23 -9 36 0 13 -6 22 -15 22 -15 0 -20 26 -9 54 4 11
13 14 29 10 13 -3 26 -1 29 5 4 6 12 11 17 11 6 0 3 -10 -5 -22z m2218 7 c11
-8 17 -17 14 -20 -3 -3 -16 3 -29 14 -27 23 -14 28 15 6z m-369 -100 c-3 -55
-5 -111 -6 -124 -1 -20 -3 -21 -15 -9 -13 12 -12 19 1 52 15 36 11 72 -5 45
-5 -6 -30 -13 -57 -14 l-49 -2 8 56 c5 31 7 65 4 76 -5 20 -1 21 59 20 l65 0
-5 -100z m-1375 43 c0 -14 -19 1 -31 25 -12 22 -12 22 10 3 11 -11 21 -23 21
-28z m2195 32 c3 -5 3 -15 -1 -21 -6 -11 -23 6 -24 24 0 10 18 9 25 -3z m240
-22 c14 -6 25 -15 25 -20 0 -13 -13 -9 -40 12 -28 22 -23 25 15 8z m815 8 c0
-2 -9 -6 -20 -9 -11 -3 -20 -1 -20 4 0 5 9 9 20 9 11 0 20 -2 20 -4z m-2560
-15 c0 -5 -7 -14 -15 -21 -16 -14 -18 -10 -9 14 6 17 24 22 24 7z m2513 -5 c7
-18 -11 -26 -38 -16 -19 7 -19 7 0 18 26 15 32 15 38 -2z m-3193 -61 c0 -36
-12 -43 -39 -26 -19 12 -6 42 14 35 11 -5 14 -2 9 10 -3 9 -1 16 5 16 6 0 11
-16 11 -35z m2630 20 c0 -8 -4 -15 -9 -15 -13 0 -22 16 -14 24 11 11 23 6 23
-9z m30 11 c0 -3 -4 -8 -10 -11 -5 -3 -10 -1 -10 4 0 6 5 11 10 11 6 0 10 -2
10 -4z m2374 -36 c7 -24 6 -24 -8 -6 -9 11 -16 27 -16 35 0 21 16 2 24 -29z
m-2540 21 c3 -5 -1 -11 -9 -15 -9 -3 -15 0 -15 9 0 16 16 20 24 6z m-2600 -17
c24 -23 19 -35 -9 -22 -26 11 -30 19 -18 31 9 9 9 9 27 -9z m3736 -24 c0 -5
-4 -10 -10 -10 -5 0 -10 5 -10 10 0 6 5 10 10 10 6 0 10 -4 10 -10z m420 -55
c7 -8 8 -15 2 -15 -5 0 -15 7 -22 15 -7 8 -8 15 -2 15 5 0 15 -7 22 -15z
m-2410 -15 c0 -11 -4 -20 -10 -20 -5 0 -10 2 -10 4 0 2 -3 11 -6 20 -4 11 -1
16 10 16 9 0 16 -8 16 -20z m-707 -9 c34 -12 101 -23 167 -27 61 -4 110 -10
110 -14 0 -16 -206 2 -277 23 -40 12 -73 25 -73 30 0 11 11 9 73 -12z m-928
-92 c6 -80 3 -111 -9 -98 -9 10 -17 189 -8 189 5 0 13 -41 17 -91z m4095 59
c0 -6 -7 -5 -15 2 -8 7 -15 17 -15 22 0 6 7 5 15 -2 8 -7 15 -17 15 -22z
m-139 4 c-5 -10 -16 -24 -24 -31 -12 -9 -16 -8 -21 5 -7 17 18 43 42 44 9 0
10 -5 3 -18z m-1445 -11 c-7 -11 -56 -21 -56 -10 0 9 19 17 43 18 10 1 16 -3
13 -8z m1628 3 c23 -9 20 -23 -4 -17 -11 3 -20 9 -20 14 0 11 3 11 24 3z
m-3357 -46 c-3 -7 -5 -2 -5 12 0 14 2 19 5 13 2 -7 2 -19 0 -25z m33 11 c0
-11 -4 -17 -10 -14 -5 3 -10 13 -10 21 0 8 5 14 10 14 6 0 10 -9 10 -21z
m2754 4 c4 -4 23 -6 42 -4 19 1 34 -2 34 -8 0 -6 -13 -11 -29 -11 -17 0 -33
-4 -36 -10 -10 -16 -28 -12 -21 5 3 9 0 15 -9 15 -8 0 -15 5 -15 10 0 12 23
13 34 3z m2078 -25 c-7 -7 -12 -8 -12 -2 0 14 12 26 19 19 2 -3 -1 -11 -7 -17z
m-2172 3 c0 -5 -9 -7 -20 -4 -11 3 -20 7 -20 9 0 2 9 4 20 4 11 0 20 -4 20 -9z
m60 -7 c0 -2 -9 -4 -21 -4 -11 0 -18 4 -14 10 5 8 35 3 35 -6z m158 -85 c9 -1
35 0 57 0 l40 2 -35 -18 c-26 -13 -30 -19 -17 -21 12 -3 16 -9 12 -22 -3 -10
3 -37 15 -59 17 -34 26 -41 49 -41 20 0 30 -6 34 -20 6 -25 -11 -26 -51 -3
-22 12 -40 38 -62 90 -24 54 -37 73 -51 73 -17 0 -19 7 -17 63 l2 62 3 -52 c3
-41 8 -53 21 -54z m-278 81 c-19 -13 -30 -13 -30 0 0 6 10 10 23 10 18 0 19
-2 7 -10z m950 -80 c0 -5 -4 -10 -10 -10 -5 0 -10 5 -10 10 0 6 5 10 10 10 6
0 10 -4 10 -10z m-4941 -127 c1 -16 -5 -23 -18 -23 -14 0 -19 7 -17 28 1 36
18 56 28 33 4 -9 7 -26 7 -38z m5517 31 c-3 -9 -6 -18 -6 -21 0 -3 -7 0 -15 7
-13 11 -13 15 -3 21 21 13 31 10 24 -7z m-3636 0 c0 -16 -23 -44 -36 -44 -14
0 -14 2 0 16 9 8 16 20 16 25 0 5 5 9 10 9 6 0 10 -3 10 -6z m800 -8 c0 -11
-19 -15 -25 -6 -3 5 1 10 9 10 9 0 16 -2 16 -4z m2630 -16 c0 -5 -4 -10 -10
-10 -5 0 -10 5 -10 10 0 6 5 10 10 10 6 0 10 -4 10 -10z m-2710 -4 c0 -3 -4
-8 -10 -11 -5 -3 -10 -1 -10 4 0 6 5 11 10 11 6 0 10 -2 10 -4z m115 -16 c15
-17 31 -20 92 -20 41 0 84 5 95 11 16 9 23 8 29 -2 18 -28 7 -31 -91 -27 -99
4 -99 4 -94 -19 6 -22 5 -23 -27 -9 -19 7 -38 23 -44 34 -5 12 -19 23 -30 25
-18 3 -18 4 5 15 36 16 45 14 65 -8z m1915 -50 c0 -5 -4 -10 -9 -10 -6 0 -13
5 -16 10 -3 6 1 10 9 10 9 0 16 -4 16 -10z m-1600 -119 c0 -10 -7 -21 -15 -25
-8 -3 -15 -1 -15 3 0 5 -3 16 -6 25 -4 12 0 16 15 16 14 0 21 -6 21 -19z m386
-3 c-2 -7 -10 -32 -17 -55 -12 -45 -30 -59 -25 -20 4 32 29 87 39 87 5 0 6 -6
3 -12z m-1333 -20 c-13 -12 -25 -19 -29 -15 -10 10 16 37 34 37 13 0 12 -4 -5
-22z m-492 -28 c6 0 7 5 3 11 -5 9 1 10 22 5 16 -4 39 -8 52 -9 12 -1 22 -6
22 -11 0 -4 7 -6 15 -2 27 10 16 -14 -12 -27 -15 -6 -36 -20 -46 -30 -17 -17
-19 -17 -37 5 -12 14 -19 18 -20 10 0 -8 -5 -12 -12 -10 -15 5 -21 46 -12 78
7 25 8 25 11 3 3 -13 9 -23 14 -23z m1161 -16 c-7 -39 -22 -27 -22 18 0 37 1
40 13 24 8 -10 12 -29 9 -42z m1898 32 c0 -11 -19 -15 -25 -6 -3 5 1 10 9 10
9 0 16 -2 16 -4z m-2730 -26 c14 -8 39 -16 56 -19 l32 -6 -15 -38 c-15 -35
-17 -37 -60 -35 -49 1 -75 26 -87 84 -6 29 -5 31 21 29 15 -1 39 -8 53 -15z
m306 -59 c-3 -4 -17 -7 -32 -5 -41 4 -41 14 0 14 20 0 35 -4 32 -9z m-1806
-10 c0 -5 -11 -11 -25 -13 -26 -5 -35 6 -12 15 20 9 37 8 37 -2z m2358 -24 c7
-8 9 -29 5 -50 -5 -32 -8 -36 -28 -31 -15 4 -24 0 -28 -10 -4 -11 -19 -16 -44
-16 -23 0 -45 -7 -59 -21 -13 -12 -24 -16 -28 -11 -9 15 47 52 78 52 15 0 34
4 44 9 9 5 25 12 35 15 20 6 23 46 5 64 -8 8 -8 12 -1 12 6 0 15 -6 21 -13z
m-2398 -7 c8 -5 12 -12 9 -15 -8 -8 -39 5 -39 16 0 11 11 11 30 -1z m60 -19
c0 -11 -28 -41 -39 -41 -4 0 -16 7 -27 15 -18 15 -17 16 14 10 25 -5 32 -3 32
9 0 9 5 16 10 16 6 0 10 -4 10 -9z m2590 -9 c0 -5 -7 -17 -15 -28 -15 -19 -20
-8 -9 20 6 17 24 22 24 8z m300 -21 c0 -5 3 -16 6 -25 5 -13 -1 -16 -25 -16
l-32 0 18 25 c18 25 33 32 33 16z m2304 -6 c3 -8 1 -15 -4 -15 -6 0 -10 7 -10
15 0 8 2 15 4 15 2 0 6 -7 10 -15z m-51 -29 c15 -8 27 -11 27 -5 0 5 4 9 9 9
5 0 7 -8 4 -19 -3 -12 -14 -19 -31 -19 -37 0 -62 15 -56 33 7 18 12 19 47 1z
m-3842 -69 c-8 -8 -11 -4 -11 14 0 33 14 47 18 19 2 -12 -1 -27 -7 -33z m654
43 c3 -5 -1 -10 -9 -10 -9 0 -16 5 -16 10 0 6 4 10 9 10 6 0 13 -4 16 -10z
m-2701 -24 c-10 -8 -23 -12 -28 -9 -5 3 2 12 15 19 30 16 39 9 13 -10z m436
-6 c0 -5 -4 -10 -10 -10 -5 0 -10 5 -10 10 0 6 5 10 10 10 6 0 10 -4 10 -10z
m125 -19 c-3 -12 -11 -21 -16 -21 -6 0 -8 3 -6 8 2 4 7 16 11 26 9 25 20 13
11 -13z m3525 14 c0 -2 -13 -11 -30 -20 -33 -17 -40 -10 -12 11 17 13 42 19
42 9z m2350 -3 c0 -5 -6 -17 -14 -28 -14 -18 -15 -18 -22 0 -4 11 -2 21 7 27
18 11 29 11 29 1z m-3230 -32 c0 -15 -35 -30 -69 -30 -17 0 -31 5 -31 10 0 6
15 10 34 10 19 0 38 5 41 10 8 13 25 13 25 0z m-2510 -52 c-1 -19 -40 -66 -40
-49 0 8 8 23 17 33 16 18 16 18 -2 12 -13 -5 -16 -4 -11 4 10 16 36 15 36 0z
m710 -17 c0 -5 -9 -11 -20 -14 -13 -3 -20 0 -20 9 0 8 9 14 20 14 11 0 20 -4
20 -9z m-882 -37 c2 -1 -5 -7 -15 -12 -13 -7 -26 -4 -48 10 l-30 18 45 -6 c25
-4 47 -8 48 -10z m1982 -14 c0 -5 -2 -10 -4 -10 -3 0 -8 5 -11 10 -3 6 -1 10
4 10 6 0 11 -4 11 -10z m-1924 -38 c-9 -8 -26 10 -26 26 1 15 2 15 15 -2 8
-11 13 -21 11 -24z m-341 -11 c44 -11 71 -19 60 -20 -11 0 -40 4 -65 10 -25 6
-74 14 -110 19 -64 7 -64 7 -15 8 28 1 86 -7 130 -17z m375 -21 c12 -8 11 -10
-7 -10 -13 0 -23 5 -23 10 0 13 11 13 30 0z m-205 -21 c15 -14 -26 -10 -60 6
l-30 14 40 -6 c22 -3 44 -9 50 -14z m155 1 c12 -12 18 -26 14 -33 -4 -7 -4 -9
1 -5 4 4 15 2 24 -5 14 -10 14 -10 4 4 -16 20 -6 30 23 23 15 -4 29 1 43 15
27 27 41 27 34 0 -3 -11 -11 -18 -17 -16 -14 5 -37 -18 -28 -28 8 -8 -26 -29
-48 -30 -18 0 -61 35 -55 45 3 4 -2 13 -10 20 -14 12 -20 30 -10 30 3 0 14 -9
25 -20z m240 10 c0 -5 -4 -10 -10 -10 -5 0 -10 5 -10 10 0 6 5 10 10 10 6 0
10 -4 10 -10z m-139 -111 c-9 -22 -10 -22 -10 -3 -1 11 2 24 6 27 12 12 14 0
4 -24z m-87 -46 c-5 -25 -3 -38 7 -44 18 -11 6 -21 -15 -13 -13 5 -15 14 -11
35 6 25 3 29 -14 29 -12 0 -21 5 -21 11 0 5 -5 7 -10 4 -8 -5 -8 -11 0 -20 8
-10 4 -15 -20 -23 -28 -10 -42 -1 -20 13 11 7 4 25 -10 25 -5 0 -11 -8 -13
-17 -3 -12 -5 -9 -6 8 -1 22 3 25 36 25 23 0 40 6 47 16 9 14 12 15 33 1 20
-13 22 -21 17 -50z m59 30 c3 -16 1 -32 -4 -37 -5 -6 -9 0 -9 17 0 21 -4 25
-17 20 -16 -6 -16 -5 -4 10 19 24 28 21 34 -10z m7 -120 c0 -7 -11 -13 -25
-13 -29 0 -34 24 -8 39 18 10 33 -2 33 -26z m740 -63 c0 -5 -4 -10 -10 -10 -5
0 -10 5 -10 10 0 6 5 10 10 10 6 0 10 -4 10 -10z m-610 -72 c0 -5 -13 -8 -30
-8 -35 0 -39 13 -7 27 21 10 36 2 37 -19z m-506 -24 c18 -17 19 -24 10 -48 -8
-21 -16 -20 -44 4 -24 21 -12 27 20 10 16 -8 18 -8 14 5 -4 8 -10 15 -16 15
-5 0 -16 7 -24 15 -14 13 -13 15 5 15 11 0 27 -7 35 -16z m1620 -8 c-8 -20 22
-85 43 -93 10 -3 31 -17 46 -30 16 -13 41 -23 56 -23 15 0 36 -9 46 -20 10
-11 30 -20 45 -20 15 0 30 -3 33 -7 4 -3 36 -5 72 -4 51 2 66 -1 71 -13 4 -9
18 -16 34 -16 21 0 29 -6 34 -25 5 -19 13 -25 32 -25 19 0 25 -4 21 -14 -4
-10 2 -16 21 -18 l27 -3 -28 -6 c-21 -5 -36 0 -58 18 -16 14 -29 31 -29 39 0
9 -11 14 -29 14 -16 0 -31 6 -35 15 -3 8 -10 15 -15 15 -6 0 -8 -6 -5 -13 3
-8 -3 -13 -16 -13 -13 0 -19 5 -16 13 4 9 -7 13 -37 14 -72 1 -99 7 -121 28
-14 13 -36 21 -57 21 -26 0 -43 8 -64 30 -16 17 -34 30 -40 30 -15 0 -59 95
-51 109 10 16 26 14 20 -3z m1673 8 c-3 -3 -12 -4 -19 -1 -8 3 -5 6 6 6 11 1
17 -2 13 -5z m-3097 -84 c0 -5 -5 -10 -11 -10 -5 0 -7 5 -4 10 3 6 8 10 11 10
2 0 4 -4 4 -10z m6850 -5 c0 -9 -9 -15 -21 -15 -18 0 -19 2 -9 15 7 8 16 15
21 15 5 0 9 -7 9 -15z m-3830 -17 c15 -10 22 -10 32 0 16 16 45 15 51 0 3 -10
9 -10 25 -1 30 18 33 -3 8 -43 -15 -23 -30 -33 -55 -36 -34 -4 -37 -2 -85 80
-9 15 -1 15 24 0z m-3395 -45 c4 -12 0 -14 -17 -9 -13 3 -29 6 -36 6 -7 0 -11
4 -8 9 9 14 54 10 61 -6z m-21 -63 l40 -39 18 27 c10 15 18 21 18 15 0 -7 5
-13 11 -13 5 0 7 5 4 10 -3 6 1 10 9 10 23 0 20 -21 -4 -27 -11 -3 -20 -12
-20 -19 0 -8 -3 -13 -7 -12 -16 3 -43 -15 -43 -28 0 -7 -6 -17 -12 -21 -30
-19 -50 -83 -26 -83 6 0 8 -3 5 -7 -4 -3 -2 -12 5 -20 13 -17 4 -28 -17 -20
-8 4 -15 17 -16 29 0 20 -1 21 -8 5 -6 -16 -9 -17 -19 -5 -9 11 -7 17 8 28 11
8 20 19 20 24 0 6 -5 5 -12 -2 -9 -9 -16 -8 -30 5 -11 10 -18 11 -18 5 0 -7
-4 -12 -10 -12 -5 0 -10 7 -10 15 0 8 5 15 10 15 6 0 8 11 4 25 -5 19 -2 25
11 25 15 0 15 -3 5 -16 -11 -13 -10 -16 8 -21 13 -3 19 -10 15 -17 -3 -6 5 -1
19 12 13 12 29 22 34 22 5 0 15 9 21 19 18 29 -13 65 -49 56 -19 -5 -24 -11
-21 -26 3 -10 13 -19 22 -20 9 0 11 -3 5 -5 -6 -3 -21 -1 -34 4 -17 6 -24 17
-25 39 -1 27 2 31 23 28 19 -2 23 1 19 16 -7 28 3 23 47 -21z m50 24 c9 -23 7
-31 -3 -15 -7 12 -13 12 -24 3 -13 -11 -27 -7 -27 9 0 6 16 13 41 18 4 0 10
-6 13 -15z m1256 -54 c0 -6 -48 -10 -124 -10 -73 0 -127 4 -131 10 -4 6 40 10
124 10 81 0 131 -4 131 -10z m1485 -62 c7 -7 -2 -8 -25 -3 -19 4 -39 12 -45
17 -7 7 2 8 25 3 19 -4 40 -12 45 -17z m-370 -38 c4 -6 -6 -10 -22 -10 -22 0
-25 2 -13 10 19 12 27 12 35 0z m-481 -15 c3 -8 14 -15 25 -15 11 0 23 -4 26
-10 8 -13 -16 -13 -49 0 -14 5 -26 16 -26 25 0 19 16 20 24 0z m-2022 -31 c-7
-12 -11 -13 -17 -4 -4 7 -2 16 6 21 18 11 23 4 11 -17z m1829 6 c27 -22 13
-27 -17 -6 -11 9 -29 12 -43 9 -17 -4 -22 -2 -17 6 11 17 51 13 77 -9z m714 0
c18 -20 18 -21 -5 -12 -13 5 -26 14 -28 20 -6 19 13 14 33 -8z m425 0 c0 -5
-9 -10 -19 -10 -11 0 -23 5 -26 10 -4 6 5 10 19 10 14 0 26 -4 26 -10z m-1404
-32 c47 -34 51 -38 32 -38 -15 0 -98 69 -85 70 5 0 29 -14 53 -32z m1452 14
c6 -18 -15 -14 -22 4 -4 10 -1 14 6 12 6 -2 14 -10 16 -16z m52 -22 c0 -5 -9
-10 -20 -10 -11 0 -20 5 -20 10 0 6 9 10 20 10 11 0 20 -4 20 -10z m53 3 c-7
-2 -19 -2 -25 0 -7 3 -2 5 12 5 14 0 19 -2 13 -5z m60 0 c-7 -2 -19 -2 -25 0
-7 3 -2 5 12 5 14 0 19 -2 13 -5z"/>
<path d="M2710 7959 c0 -5 5 -7 10 -4 6 3 10 8 10 11 0 2 -4 4 -10 4 -5 0 -10
-5 -10 -11z"/>
<path d="M2680 7953 c0 -5 5 -15 10 -23 8 -12 10 -11 10 8 0 12 -4 22 -10 22
-5 0 -10 -3 -10 -7z"/>
<path d="M501 7674 c0 -11 3 -14 6 -6 3 7 2 16 -1 19 -3 4 -6 -2 -5 -13z"/>
<path d="M526 7628 c-21 -30 -20 -38 4 -38 16 0 20 7 20 30 0 36 -4 37 -24 8z"/>
<path d="M6457 7385 c-4 -8 -2 -17 3 -20 6 -4 10 3 10 14 0 25 -6 27 -13 6z"/>
<path d="M6426 7352 c-8 -14 5 -52 19 -52 22 0 25 39 5 50 -10 6 -21 6 -24 2z"/>
<path d="M3837 7015 c6 -39 -11 -49 -21 -12 -5 18 -8 19 -15 8 -7 -10 -3 -22
10 -39 10 -14 19 -31 19 -38 0 -20 14 -17 68 10 63 32 114 36 141 12 21 -19
21 -19 21 0 0 10 -7 28 -15 38 -8 11 -15 28 -15 38 0 16 -10 18 -99 18 l-100
0 6 -35z"/>
<path d="M4050 7039 c0 -6 10 -29 22 -50 16 -30 19 -41 9 -52 -16 -20 3 -33
62 -41 28 -4 47 -12 47 -20 0 -24 -40 -130 -56 -147 -15 -17 -15 -18 12 -13
47 9 54 21 54 98 0 39 4 76 8 82 4 7 6 44 4 83 l-4 71 -79 0 c-51 0 -79 -4
-79 -11z"/>
<path d="M4377 6973 c-6 -32 -1 -43 19 -43 8 0 14 9 14 19 0 11 3 26 6 35 4
11 0 16 -14 16 -14 0 -21 -8 -25 -27z"/>
<path d="M4418 6922 c-11 -2 -18 -13 -18 -28 0 -21 -4 -24 -41 -24 -32 0 -40
-3 -35 -15 3 -8 1 -15 -5 -15 -17 0 -28 -44 -13 -53 8 -4 14 -13 14 -19 0 -7
-6 -6 -15 2 -9 7 -17 11 -19 9 -4 -6 -96 -215 -96 -220 0 -2 74 -3 164 -1 155
3 165 4 171 23 4 11 3 74 0 139 l-8 119 -31 3 c-27 3 -31 7 -37 41 -7 43 -8
45 -31 39z m-139 -284 c-7 -13 -14 -18 -16 -11 -3 7 1 22 8 35 7 13 14 18 16
11 3 -7 -1 -22 -8 -35z"/>
<path d="M3795 6911 c-6 -11 9 -23 19 -14 9 9 7 23 -3 23 -6 0 -12 -4 -16 -9z"/>
<path d="M4370 6900 c0 -5 5 -10 10 -10 6 0 10 5 10 10 0 6 -4 10 -10 10 -5 0
-10 -4 -10 -10z"/>
<path d="M3793 6863 c-8 -3 -10 -15 -6 -34 3 -18 1 -29 -6 -29 -6 0 -11 -13
-11 -30 0 -19 5 -30 14 -30 9 0 15 19 19 62 6 70 7 67 -10 61z"/>
<path d="M4538 6449 c-4 -61 -10 -94 -19 -100 -10 -6 -6 -11 15 -19 16 -6 30
-9 32 -7 7 6 6 144 -1 180 -12 62 -22 42 -27 -54z"/>
<path d="M4470 6263 c0 -13 5 -23 10 -23 13 0 13 11 0 30 -8 12 -10 11 -10 -7z"/>
<path d="M4510 6275 c0 -3 9 -15 19 -27 23 -24 51 -18 51 12 0 16 -6 20 -35
20 -19 0 -35 -2 -35 -5z"/>
<path d="M4590 6266 c0 -9 5 -16 10 -16 6 0 10 4 10 9 0 6 -4 13 -10 16 -5 3
-10 -1 -10 -9z"/>
<path d="M5263 7109 c-9 -11 -8 -19 3 -33 18 -26 28 -14 17 19 -7 22 -11 25
-20 14z"/>
<path d="M5460 7034 c0 -8 5 -24 10 -35 10 -17 13 -18 25 -5 8 8 20 16 27 18
6 2 9 12 5 21 -9 23 -67 24 -67 1z"/>
<path d="M5552 7003 c4 -52 28 -56 28 -4 0 30 -4 41 -16 41 -11 0 -14 -9 -12
-37z"/>
<path d="M5517 6993 c-4 -3 -7 -11 -7 -17 0 -6 5 -5 12 2 6 6 9 14 7 17 -3 3
-9 2 -12 -2z"/>
<path d="M5430 6982 c0 -5 9 -17 20 -27 11 -10 20 -13 20 -7 0 7 -4 12 -10 12
-5 0 -10 7 -10 15 0 8 -4 15 -10 15 -5 0 -10 -4 -10 -8z"/>
<path d="M5527 6944 c-4 -4 -7 -16 -7 -26 0 -13 8 -18 31 -18 26 0 30 3 27 23
-3 22 -36 36 -51 21z"/>
<path d="M5190 6906 c0 -30 4 -36 21 -36 18 0 19 2 9 15 -10 13 -9 15 10 15
33 0 22 34 -13 38 -25 3 -27 1 -27 -32z"/>
<path d="M4730 7101 c0 -28 2 -29 55 -33 30 -1 55 0 55 3 0 16 -78 59 -106 59
-2 0 -4 -13 -4 -29z"/>
<path d="M4933 7005 c6 -19 14 -35 19 -35 4 0 8 16 8 35 0 28 -4 35 -19 35
-17 0 -18 -3 -8 -35z"/>
<path d="M610 6970 c0 -5 5 -10 10 -10 6 0 10 5 10 10 0 6 -4 10 -10 10 -5 0
-10 -4 -10 -10z"/>
<path d="M4821 6913 c1 -35 1 -36 9 -11 4 14 11 31 15 37 3 6 -1 11 -9 11 -12
0 -16 -10 -15 -37z"/>
<path d="M2835 6830 c3 -5 8 -10 11 -10 2 0 4 5 4 10 0 6 -5 10 -11 10 -5 0
-7 -4 -4 -10z"/>
<path d="M2815 6770 c3 -5 10 -10 16 -10 5 0 9 5 9 10 0 6 -7 10 -16 10 -8 0
-12 -4 -9 -10z"/>
<path d="M2729 6686 c8 -10 11 -28 7 -46 -5 -25 -2 -30 15 -30 18 0 20 5 17
43 -3 36 -6 42 -28 45 -21 3 -22 2 -11 -12z"/>
<path d="M1661 6604 c0 -11 3 -14 6 -6 3 7 2 16 -1 19 -3 4 -6 -2 -5 -13z"/>
<path d="M5130 6471 c0 -6 5 -13 10 -16 6 -3 10 1 10 9 0 9 -4 16 -10 16 -5 0
-10 -4 -10 -9z"/>
<path d="M7815 6220 c3 -5 10 -10 16 -10 5 0 9 5 9 10 0 6 -7 10 -16 10 -8 0
-12 -4 -9 -10z"/>
<path d="M3126 5985 c4 -8 8 -15 10 -15 2 0 4 7 4 15 0 8 -4 15 -10 15 -5 0
-7 -7 -4 -15z"/>
<path d="M3080 5976 c0 -9 5 -16 10 -16 6 0 10 4 10 9 0 6 -4 13 -10 16 -5 3
-10 -1 -10 -9z"/>
<path d="M3220 5819 c0 -5 9 -9 20 -9 11 0 20 2 20 4 0 2 -9 6 -20 9 -11 3
-20 1 -20 -4z"/>
<path d="M3586 5297 c3 -10 9 -15 12 -12 3 3 0 11 -7 18 -10 9 -11 8 -5 -6z"/>
<path d="M3560 5291 c0 -6 4 -13 10 -16 6 -3 7 1 4 9 -7 18 -14 21 -14 7z"/>
<path d="M3670 5101 c0 -5 5 -13 10 -16 6 -3 10 -2 10 4 0 5 -4 13 -10 16 -5
3 -10 2 -10 -4z"/>
<path d="M3680 5055 c-7 -8 -16 -12 -21 -9 -5 3 -4 -6 3 -20 6 -14 18 -26 26
-26 10 0 12 -3 4 -12 -7 -9 -3 -30 14 -73 14 -33 43 -113 66 -178 l41 -117 56
-16 c31 -9 60 -20 66 -25 13 -13 -4 -11 -61 6 -27 8 -50 15 -50 15 -2 0 52
-146 113 -307 36 -97 53 -122 53 -78 0 24 3 26 30 20 21 -5 37 -1 54 12 32 23
33 43 2 43 -14 0 -32 10 -40 22 -20 28 -21 92 -1 108 12 10 11 16 -7 41 -20
26 -21 33 -9 65 14 40 3 64 -31 64 -16 0 -19 5 -14 24 12 49 -36 123 -133 204
-15 12 -14 13 2 8 14 -4 17 1 17 25 0 16 -7 44 -16 61 -19 36 -86 111 -125
139 -23 16 -28 17 -39 4z"/>
<path d="M4046 4531 c-3 -5 1 -12 10 -15 20 -8 29 -1 19 13 -8 13 -22 14 -29
2z"/>
<path d="M4090 4500 c0 -20 -1 -20 -30 -5 -28 15 -30 14 -30 -4 0 -11 9 -26
21 -34 20 -15 20 -16 3 -42 -19 -30 -20 -80 -2 -102 6 -7 23 -13 39 -13 39 0
38 -23 -3 -61 -22 -20 -41 -29 -55 -26 -24 4 -40 -18 -18 -27 14 -5 35 -65 35
-98 0 -10 -7 -18 -15 -18 -8 0 -15 -7 -15 -15 0 -8 5 -15 10 -15 6 0 10 -7 10
-15 0 -8 14 -38 31 -65 30 -49 31 -52 13 -66 -17 -13 -16 -13 11 0 17 8 40 25
52 38 20 21 21 27 11 56 -12 30 -10 34 25 70 37 37 46 65 27 77 -5 3 -10 17
-10 30 0 21 8 26 58 41 63 19 92 44 92 80 0 29 -15 31 -32 5 -9 -15 -19 -18
-40 -14 -17 3 -28 1 -28 -6 0 -6 -5 -11 -11 -11 -8 0 -10 15 -6 46 4 41 2 46
-19 54 -28 11 -29 14 -10 43 10 15 12 35 7 62 -5 34 -11 41 -36 46 -62 13 -85
10 -85 -11z"/>
<path d="M3988 4144 c5 -37 20 -54 32 -34 11 17 1 49 -19 60 -14 7 -16 4 -13
-26z"/>
<path d="M4024 3958 c7 -38 29 -63 45 -54 7 5 4 20 -12 46 -27 48 -42 51 -33
8z"/>
<path d="M3980 3655 c0 -15 4 -24 10 -20 6 3 10 12 10 20 0 8 -4 17 -10 20 -6
4 -10 -5 -10 -20z"/>
<path d="M3962 3600 c0 -14 2 -19 5 -12 2 6 2 18 0 25 -3 6 -5 1 -5 -13z"/>
<path d="M3410 3400 c0 -6 7 -10 15 -10 8 0 15 2 15 4 0 2 -7 6 -15 10 -8 3
-15 1 -15 -4z"/>
<path d="M4980 6020 c0 -5 11 -10 25 -10 14 0 25 5 25 10 0 6 -11 10 -25 10
-14 0 -25 -4 -25 -10z"/>
<path d="M6030 5614 c0 -8 5 -12 10 -9 6 3 10 10 10 16 0 5 -4 9 -10 9 -5 0
-10 -7 -10 -16z"/>
<path d="M6030 5560 c0 -5 5 -10 11 -10 5 0 7 5 4 10 -3 6 -8 10 -11 10 -2 0
-4 -4 -4 -10z"/>
<path d="M4060 5714 c0 -9 5 -14 12 -12 18 6 21 28 4 28 -9 0 -16 -7 -16 -16z"/>
<path d="M1005 4980 c-4 -7 -1 -16 6 -21 17 -10 26 8 11 23 -6 6 -12 6 -17 -2z"/>
<path d="M1018 4798 c3 -11 11 -22 18 -25 8 -3 14 -10 14 -17 0 -16 33 -43 48
-38 8 2 8 8 0 22 -6 10 -18 16 -25 13 -9 -4 -13 4 -13 25 0 23 -5 31 -24 34
-19 4 -22 1 -18 -14z"/>
<path d="M990 4801 c0 -6 4 -13 10 -16 6 -3 7 1 4 9 -7 18 -14 21 -14 7z"/>
<path d="M5230 4453 c-1 -7 -2 -28 -3 -45 -1 -40 26 -48 61 -19 29 25 20 50
-18 47 -19 -1 -31 3 -33 13 -3 10 -6 11 -7 4z"/>
<path d="M5181 4416 c-9 -11 -8 -15 5 -20 21 -8 34 1 27 19 -7 19 -17 19 -32
1z"/>
<path d="M5347 4389 c7 -7 15 -10 18 -7 3 3 -2 9 -12 12 -14 6 -15 5 -6 -5z"/>
<path d="M5250 4335 c0 -8 2 -15 4 -15 2 0 6 7 10 15 3 8 1 15 -4 15 -6 0 -10
-7 -10 -15z"/>
<path d="M2900 3679 c0 -5 5 -7 10 -4 6 3 10 8 10 11 0 2 -4 4 -10 4 -5 0 -10
-5 -10 -11z"/>
<path d="M5046 3851 c-3 -5 3 -11 13 -14 14 -3 18 -1 14 9 -6 16 -19 18 -27 5z"/>
<path d="M5441 3694 c0 -11 3 -14 6 -6 3 7 2 16 -1 19 -3 4 -6 -2 -5 -13z"/>
<path d="M2290 3615 c-10 -12 -10 -15 4 -15 9 0 16 7 16 15 0 8 -2 15 -4 15
-2 0 -9 -7 -16 -15z"/>
<path d="M2320 3605 c0 -19 118 -95 137 -88 18 7 0 29 -30 39 -24 8 -80 45
-85 57 -6 13 -22 7 -22 -8z"/>
<path d="M2554 3459 c2 -30 46 -54 46 -25 0 7 -11 21 -24 29 -22 15 -23 14
-22 -4z"/>
<path d="M2505 3450 c3 -5 11 -10 16 -10 6 0 7 5 4 10 -3 6 -11 10 -16 10 -6
0 -7 -4 -4 -10z"/>
<path d="M2490 3410 c0 -15 5 -20 18 -18 9 2 17 10 17 18 0 8 -8 16 -17 18
-13 2 -18 -3 -18 -18z"/>
<path d="M2620 3414 c0 -14 20 -46 57 -93 2 -2 6 -2 9 1 7 7 -17 50 -33 61 -7
4 -13 14 -13 22 0 8 -4 17 -10 20 -5 3 -10 -2 -10 -11z"/>
<path d="M2693 3303 c-18 -6 -16 -33 1 -33 8 0 17 4 20 8 7 12 -7 30 -21 25z"/>
<path d="M2714 3257 c-7 -20 3 -37 22 -37 18 0 17 10 -1 34 -13 17 -15 17 -21
3z"/>
<path d="M5260 3596 c0 -9 5 -16 10 -16 6 0 10 4 10 9 0 6 -4 13 -10 16 -5 3
-10 -1 -10 -9z"/>
<path d="M2423 3069 c-20 -12 -33 -29 -33 -41 0 -18 4 -17 39 13 58 50 54 67
-6 28z"/>
<path d="M3807 2680 c3 -12 14 -20 25 -20 14 0 18 5 14 16 -3 9 -6 18 -6 20 0
2 -9 4 -19 4 -14 0 -18 -5 -14 -20z"/>
<path d="M3860 2670 c0 -5 5 -10 11 -10 5 0 7 5 4 10 -3 6 -8 10 -11 10 -2 0
-4 -4 -4 -10z"/>
<path d="M3020 2290 c-9 -6 -10 -10 -3 -10 6 0 15 5 18 10 8 12 4 12 -15 0z"/>
<path d="M3078 2283 c6 -2 18 -2 25 0 6 3 1 5 -13 5 -14 0 -19 -2 -12 -5z"/>
<path d="M4910 2222 c0 -6 -16 -16 -35 -22 -31 -10 -35 -16 -35 -46 0 -39 -3
-38 55 -23 49 12 57 24 46 65 -7 27 -31 46 -31 26z"/>
<path d="M2213 2133 c-17 -3 -23 -11 -23 -29 0 -17 4 -23 12 -18 6 4 17 -1 24
-10 20 -27 54 -12 54 24 0 16 -4 32 -10 35 -5 3 -10 -1 -10 -9 0 -9 -4 -16
-10 -16 -5 0 -7 7 -4 15 4 8 2 14 -2 14 -5 -1 -19 -4 -31 -6z"/>
<path d="M2215 2040 c-3 -5 1 -10 9 -10 9 0 16 5 16 10 0 6 -4 10 -9 10 -6 0
-13 -4 -16 -10z"/>
<path d="M3040 1610 c0 -5 5 -10 11 -10 5 0 7 5 4 10 -3 6 -8 10 -11 10 -2 0
-4 -4 -4 -10z"/>
<path d="M1950 1370 c0 -5 5 -10 10 -10 6 0 10 5 10 10 0 6 -4 10 -10 10 -5 0
-10 -4 -10 -10z"/>
<path d="M2000 1359 c0 -5 5 -7 10 -4 6 3 10 8 10 11 0 2 -4 4 -10 4 -5 0 -10
-5 -10 -11z"/>
<path d="M2315 1320 c-3 -6 1 -7 9 -4 18 7 21 14 7 14 -6 0 -13 -4 -16 -10z"/>
<path d="M4927 7993 c-14 -14 -6 -50 16 -71 34 -32 51 -15 48 51 -1 23 -5 27
-29 27 -16 0 -32 -3 -35 -7z"/>
<path d="M2225 7980 c-3 -5 -1 -10 4 -10 6 0 11 5 11 10 0 6 -2 10 -4 10 -3 0
-8 -4 -11 -10z"/>
<path d="M2260 7969 c0 -6 6 -17 14 -24 12 -12 15 -12 20 1 3 9 4 20 0 25 -7
13 -34 11 -34 -2z"/>
<path d="M5010 7696 c0 -8 5 -18 10 -21 6 -3 10 1 10 9 0 8 -4 18 -10 21 -5 3
-10 -1 -10 -9z"/>
<path d="M5050 7640 c0 -5 5 -10 10 -10 6 0 10 5 10 10 0 6 -4 10 -10 10 -5 0
-10 -4 -10 -10z"/>
<path d="M370 6835 c-14 -7 -56 -22 -95 -31 -49 -12 -64 -19 -50 -24 10 -4 31
-1 45 7 14 7 32 13 41 13 29 0 77 21 83 36 6 17 7 17 -24 -1z"/>
<path d="M414 6836 c-8 -22 3 -33 18 -18 9 9 9 15 0 24 -9 9 -13 7 -18 -6z"/>
<path d="M122 6788 c3 -7 13 -15 24 -17 16 -3 17 -1 5 13 -16 19 -34 21 -29 4z"/>
<path d="M0 1536 c0 -9 7 -16 16 -16 17 0 14 22 -4 28 -7 2 -12 -3 -12 -12z"/>
</g>
</svg>
