<?xml version="1.0" standalone="no"?>
<!DOCTYPE svg PUBLIC "-//W3C//DTD SVG 20010904//EN"
 "http://www.w3.org/TR/2001/REC-SVG-20010904/DTD/svg10.dtd">
<svg version="1.0" xmlns="http://www.w3.org/2000/svg"
 width="800.000000pt" height="800.000000pt" viewBox="0 0 800.000000 800.000000"
 preserveAspectRatio="xMidYMid meet">
<metadata>
Created by potrace 1.16, written by Peter Selinger 2001-2019
</metadata>
<g transform="translate(0.000000,800.000000) scale(0.100000,-0.100000)"
fill="#000000" stroke="none">
<path d="M0 6560 c0 -953 3 -1440 10 -1440 6 0 10 -5 10 -11 0 -5 -4 -7 -10
-4 -7 4 -10 -848 -10 -2549 l0 -2556 2208 0 c2157 1 2206 1 2184 20 -25 21
-29 35 -7 26 21 -8 19 7 -6 38 -25 32 -24 34 22 42 31 5 32 4 13 -8 -20 -13
-20 -15 -4 -58 13 -36 21 -46 45 -51 17 -4 211 -7 433 -8 377 -1 402 0 402 17
1 16 1 16 14 0 12 -17 89 -18 1355 -18 l1341 0 0 4000 0 4000 -928 0 -928 0
-40 -46 c-21 -25 -42 -52 -47 -59 -4 -8 -27 -17 -52 -20 -46 -7 -75 -35 -75
-73 0 -19 -18 -42 -34 -42 -5 0 -2 8 7 18 10 10 17 29 17 41 0 31 43 71 78 71
20 0 38 10 60 36 18 20 32 40 32 45 0 5 7 9 15 9 8 0 15 5 15 10 0 7 -152 10
-437 10 l-436 0 20 -22 c25 -27 39 -68 24 -68 -6 0 -11 8 -11 18 0 21 -26 49
-50 53 -31 6 -60 -12 -60 -37 0 -13 -4 -24 -10 -24 -5 0 -10 10 -10 23 0 18
-2 19 -10 7 -7 -11 -10 -12 -10 -2 0 8 -10 13 -23 12 -56 -5 -69 -1 -64 20 5
20 0 20 -2519 20 l-2524 0 0 -1440z m4630 1220 c0 -20 -5 -30 -15 -30 -9 0
-15 -9 -15 -24 0 -18 -5 -23 -25 -23 -27 0 -33 18 -12 39 7 7 20 25 30 41 23
35 37 34 37 -3z m-515 -90 c3 -5 1 -10 -4 -10 -6 0 -11 5 -11 10 0 6 2 10 4
10 3 0 8 -4 11 -10z m-85 -77 c-1 -14 -40 -56 -46 -50 -3 3 2 17 13 31 18 25
33 34 33 19z m440 -59 c0 -3 -12 -26 -27 -51 -28 -48 -22 -66 21 -55 14 3 18
1 11 -5 -5 -6 -27 -14 -48 -17 -29 -6 -39 -3 -43 9 -4 10 1 22 13 30 11 7 28
32 38 54 15 35 35 54 35 35z m-270 -56 c0 -13 -23 -5 -28 10 -2 7 2 10 12 6 9
-3 16 -11 16 -16z m490 -108 c12 -8 11 -10 -7 -10 -13 0 -23 5 -23 10 0 13 11
13 30 0z m50 -15 c14 -16 10 -18 -14 -9 -9 3 -16 10 -16 15 0 14 16 11 30 -6z
m55 -36 c11 -17 0 -20 -21 -4 -17 13 -17 14 -2 15 9 0 20 -5 23 -11z m50 -29
c3 -5 -1 -10 -9 -10 -8 0 -18 5 -21 10 -3 6 1 10 9 10 8 0 18 -4 21 -10z m60
-11 c4 -6 5 -12 2 -15 -7 -7 -37 7 -37 17 0 13 27 11 35 -2z m-849 -21 c-1
-22 3 -23 79 -25 103 -2 148 -11 141 -29 -3 -7 4 -16 15 -19 25 -8 20 -29 -8
-33 -21 -3 -47 17 -55 40 -4 10 -8 10 -19 2 -21 -17 -104 -21 -118 -6 -7 7 -9
17 -6 22 3 6 1 10 -4 10 -6 0 -11 -7 -11 -16 0 -8 -4 -12 -10 -9 -5 3 -12 -7
-16 -22 -9 -42 -12 -50 -13 -30 -1 11 -12 20 -31 24 -16 3 -30 9 -30 14 0 5
14 6 31 2 31 -6 32 -5 25 20 -4 17 -2 27 4 27 7 0 8 6 0 19 -7 14 -6 21 3 24
21 9 24 8 23 -15z m901 -34 c19 -21 30 -25 56 -20 34 6 74 -11 49 -21 -8 -3
-22 -19 -33 -37 -16 -26 -19 -28 -19 -10 0 12 7 27 15 34 9 7 13 15 10 18 -3
3 -11 -3 -19 -13 -12 -17 -18 -18 -40 -7 -14 6 -26 19 -26 28 0 10 -7 26 -17
36 -9 10 -13 18 -8 18 4 0 19 -12 32 -26z m-775 -84 c-6 -16 -11 -20 -16 -11
-4 6 -2 19 5 27 16 20 21 12 11 -16z m1178 -30 c0 -13 -5 -18 -15 -14 -16 7
-19 17 -8 27 12 13 23 7 23 -13z m-690 -27 c0 -14 6 -23 15 -23 9 0 15 -9 15
-25 0 -22 -4 -25 -27 -22 -23 3 -28 9 -28 30 1 15 -3 27 -7 27 -4 0 -8 9 -8
19 0 14 6 19 20 18 14 -1 20 -8 20 -24z m755 -4 c16 -16 -20 -10 -41 7 -18 14
-18 15 6 8 14 -3 29 -10 35 -15z m-1375 -41 c0 -25 -15 -36 -43 -31 -15 3 -27
9 -27 14 0 5 -7 9 -15 9 -8 0 -15 5 -15 10 0 6 23 10 50 10 33 0 50 -4 50 -12z
m1230 -16 c0 -46 -25 -72 -70 -72 -21 0 -42 -4 -45 -10 -9 -15 -27 -12 -54 11
-23 18 -23 21 -8 36 9 9 41 24 72 34 45 14 55 14 55 3 0 -8 7 -14 15 -14 8 0
15 9 15 20 0 11 5 20 10 20 6 0 10 -12 10 -28z m-1310 -37 c10 -12 9 -16 -6
-22 -11 -3 -22 -11 -26 -17 -5 -8 -11 -7 -18 0 -9 9 -8 17 2 33 15 25 31 27
48 6z m640 6 c0 -6 -15 -11 -32 -13 -29 -3 -34 -8 -42 -40 -9 -34 -12 -37 -40
-33 -17 2 -11 0 14 -6 69 -16 90 -27 90 -46 0 -11 -3 -14 -8 -7 -4 7 -36 19
-72 29 -87 23 -108 34 -138 73 -35 45 -20 52 18 8 39 -43 56 -46 65 -8 5 26
12 30 63 39 79 14 82 14 82 4z m-470 -21 c0 -5 -4 -10 -10 -10 -5 0 -10 5 -10
10 0 6 5 10 10 10 6 0 10 -4 10 -10z m-30 -20 c0 -5 -4 -10 -9 -10 -6 0 -13 5
-16 10 -3 6 1 10 9 10 9 0 16 -4 16 -10z m60 -20 c0 -5 -4 -10 -10 -10 -5 0
-10 5 -10 10 0 6 5 10 10 10 6 0 10 -4 10 -10z m95 -66 c4 -34 6 -97 3 -138
l-3 -75 35 -15 c19 -9 63 -22 97 -30 34 -8 66 -17 72 -21 6 -3 10 -30 10 -58
l-2 -52 -6 47 c-4 26 -9 49 -11 51 -3 3 -39 12 -81 21 -42 9 -85 23 -95 31
-10 8 -22 15 -25 15 -16 1 -26 -54 -24 -130 1 -47 1 -70 -2 -52 -6 42 -36 44
-53 2 -11 -27 -11 -32 6 -45 11 -8 25 -12 32 -10 7 3 12 -4 12 -15 0 -11 -3
-20 -7 -20 -10 0 -127 99 -131 111 -2 4 -10 5 -18 2 -19 -7 -18 6 3 29 15 17
14 18 -20 18 -21 0 -37 5 -37 10 0 7 18 9 48 6 97 -10 131 -23 102 -41 -5 -3
-10 -12 -10 -18 0 -7 7 -4 14 6 7 9 18 17 24 17 14 0 22 25 22 66 0 19 7 51
15 71 15 36 21 195 9 241 -6 19 -11 22 -35 17 -18 -4 -29 -2 -29 4 0 6 9 11
20 11 11 0 20 4 20 9 0 5 9 7 19 4 16 -4 21 -17 26 -69z m1207 17 c-3 -29 -7
-39 -13 -30 -12 20 -11 53 3 67 15 15 16 14 10 -37z m-1382 29 c0 -5 -10 -10
-22 -10 -19 0 -20 2 -8 10 19 13 30 13 30 0z m1150 -6 c0 -2 -7 -4 -15 -4 -8
0 -15 4 -15 10 0 5 7 7 15 4 8 -4 15 -8 15 -10z m-1090 -4 c0 -5 -4 -10 -10
-10 -5 0 -10 5 -10 10 0 6 5 10 10 10 6 0 10 -4 10 -10z m310 -72 c0 -37 -15
-51 -44 -44 -38 9 -32 48 9 59 34 8 35 8 35 -15z m-1359 -398 c16 0 29 -3 29
-8 0 -4 -36 -7 -80 -7 -44 0 -80 1 -80 3 0 9 50 21 74 17 16 -3 41 -5 57 -5z
m-1023 -24 c-5 -22 0 -26 45 -37 40 -9 51 -9 58 2 6 10 9 8 9 -8 0 -13 -5 -23
-11 -23 -24 0 -139 35 -139 42 0 4 4 8 9 8 5 0 11 9 14 20 7 29 20 25 15 -4z
m845 -96 c54 -22 160 -42 182 -33 15 5 21 -12 8 -20 -12 -8 -154 20 -195 37
l-38 16 -1 -27 0 -28 -11 25 c-5 14 -16 37 -24 52 -22 41 -16 56 9 26 12 -15
44 -36 70 -48z m-914 -7 c21 5 31 2 35 -10 6 -14 -1 -15 -48 -9 l-54 6 15 -32
16 -31 19 22 c22 29 24 19 2 -14 -9 -14 -23 -25 -30 -25 -8 0 -14 -6 -14 -14
0 -8 -2 -21 -5 -28 -4 -9 4 -19 17 -26 21 -11 21 -12 2 -7 -17 4 -27 -2 -44
-30 -22 -35 -22 -37 -4 -50 11 -8 14 -14 7 -15 -7 0 -13 -11 -13 -25 0 -18 5
-25 20 -25 11 0 20 -4 20 -10 0 -11 -20 -13 -44 -4 -10 4 -16 18 -16 42 0 34
0 35 -20 17 -21 -19 -28 -7 -8 13 9 9 8 12 -5 12 -9 0 -17 5 -17 10 0 6 10 10
23 10 24 0 66 55 47 62 -5 1 -70 2 -144 0 -126 -3 -134 -4 -144 -25 -10 -20
-11 -20 -11 11 l-1 32 159 0 c88 0 162 4 165 9 3 5 -1 14 -9 21 -17 14 -21 35
-5 25 19 -12 10 6 -16 30 -21 20 -24 28 -15 39 9 11 9 15 -1 19 -7 3 -1 6 14
6 15 1 30 6 33 12 5 7 13 4 26 -7 13 -11 28 -15 48 -11z m72 -16 c-10 -9 -11
-8 -5 6 3 10 9 15 12 12 3 -3 0 -11 -7 -18z m3314 -17 c4 -6 -6 -10 -24 -10
-16 0 -33 5 -36 10 -4 6 6 10 24 10 16 0 33 -4 36 -10z m-1287 -73 c0 -35 3
-77 7 -95 4 -19 3 -32 -3 -32 -18 0 -31 135 -16 174 10 26 12 19 12 -47z
m-1655 -13 c84 -20 99 -34 93 -88 -3 -29 1 -46 15 -64 10 -14 19 -31 19 -39 0
-8 17 -36 38 -61 l37 -47 -39 32 c-46 38 -87 128 -79 176 3 23 0 37 -14 48
-20 18 -102 41 -115 33 -17 -11 -38 19 -37 50 2 29 2 29 6 4 4 -23 11 -28 76
-44z m3144 -118 c13 -49 32 -103 43 -121 30 -48 24 -66 -7 -20 -23 34 -63 155
-63 191 0 8 -13 35 -30 61 -16 26 -30 54 -30 62 0 38 66 -93 87 -173z m-3307
106 c0 -4 -13 -23 -28 -42 -37 -45 -54 -94 -39 -109 8 -8 5 -11 -10 -11 -22 0
-24 22 -4 73 21 53 81 119 81 89z m3019 -31 c21 -13 -5 -24 -29 -11 -11 6 -20
13 -20 15 0 8 34 5 49 -4z m-3258 -32 l34 -30 -45 20 c-45 20 -64 41 -38 41 8
0 30 -14 49 -31z m299 -15 c16 -48 5 -55 -14 -9 -19 44 -19 45 -7 45 5 0 15
-16 21 -36z m1371 -67 c-9 -9 -44 21 -38 32 2 3 10 22 17 41 l14 35 8 -50 c4
-27 3 -54 -1 -58z m708 94 c8 -5 10 -14 6 -21 -4 -7 -2 -16 6 -21 21 -12 3
-22 -19 -10 -11 6 -19 21 -19 36 0 27 4 30 26 16z m-3309 -18 c14 -6 34 -15
45 -19 19 -7 19 -8 -2 -11 -27 -5 -75 16 -81 36 -2 7 -1 12 4 9 5 -2 20 -9 34
-15z m4068 -48 c7 -15 20 -25 32 -25 11 0 20 -4 20 -9 0 -5 9 -7 20 -4 15 4
20 0 20 -15 0 -12 5 -24 10 -27 6 -3 10 -11 10 -16 0 -6 -4 -8 -9 -5 -5 3 -11
-8 -13 -24 -3 -20 0 -30 9 -30 7 0 13 -4 13 -10 0 -5 -18 -10 -40 -10 -39 0
-39 0 -33 -32 3 -18 10 -41 15 -51 8 -15 6 -18 -9 -15 -10 2 -18 12 -19 23 0
11 -4 45 -9 75 -5 30 -8 58 -7 63 3 11 -13 8 -26 -5 -12 -12 -82 -39 -82 -31
0 7 48 44 55 43 13 -2 65 35 65 47 0 17 -13 16 -96 -7 -39 -10 -80 -17 -91
-14 -13 4 -22 0 -26 -10 -4 -10 -1 -16 8 -16 8 0 15 -4 15 -10 0 -5 -9 -10
-19 -10 -13 0 -23 -11 -30 -32 -6 -18 -31 -55 -56 -81 -24 -26 -42 -54 -39
-61 3 -7 -2 -16 -10 -19 -9 -4 -16 -13 -16 -21 0 -8 -24 -36 -53 -62 -51 -47
-187 -231 -187 -253 0 -6 -5 -11 -12 -11 -7 0 -32 -19 -55 -42 -32 -31 -43
-37 -43 -25 0 10 -9 35 -19 56 -16 31 -28 40 -63 50 -129 34 -208 40 -254 19
-18 -8 -35 -31 -51 -67 -31 -69 -43 -59 -14 12 34 82 96 101 241 73 119 -24
135 -31 155 -77 10 -21 19 -39 21 -39 9 0 99 100 108 121 14 33 65 96 145 181
50 53 64 75 64 98 0 18 6 30 13 30 8 0 31 24 53 54 23 30 45 57 50 60 5 4 17
29 26 56 16 47 18 49 46 43 28 -5 30 -4 23 21 -4 16 -2 26 5 26 6 0 11 -9 11
-20 0 -12 7 -20 18 -20 9 0 13 4 7 8 -16 12 -15 27 4 39 16 10 18 8 15 -13 -2
-21 0 -23 13 -13 9 8 17 9 21 3 4 -6 18 -7 32 -4 21 6 23 8 8 15 -10 4 -18 16
-18 26 0 27 15 24 28 -6z m52 10 c0 -8 -4 -15 -10 -15 -5 0 -10 7 -10 15 0 8
5 15 10 15 6 0 10 -7 10 -15z m-1119 -17 c3 -38 -7 -72 -48 -157 -40 -84 -43
-95 -28 -104 15 -8 13 -11 -10 -23 -34 -17 -35 -17 -35 1 0 8 -7 15 -15 15
-28 0 -96 122 -74 135 16 11 -3 34 -38 46 -42 13 -53 3 -53 -48 0 -38 3 -37
-43 -18 -48 20 -49 19 -45 -12 2 -23 10 -29 45 -38 51 -12 66 -25 30 -25 -16
0 -26 -5 -24 -12 1 -7 -5 -12 -14 -10 -19 3 -29 -58 -29 -168 l0 -65 108 -59
c59 -33 101 -61 95 -63 -7 -3 -56 20 -110 50 -104 59 -113 59 -113 0 0 -32 1
-33 44 -33 41 0 44 -2 50 -31 7 -37 1 -49 -25 -49 -13 0 -18 5 -14 13 3 6 -2
2 -11 -10 -9 -13 -23 -23 -32 -23 -12 0 -14 -9 -9 -50 4 -29 2 -50 -3 -50 -6
0 -10 12 -10 27 0 26 -1 26 -29 -12 -28 -37 -28 -41 -14 -68 9 -17 12 -41 8
-60 l-6 -32 15 25 c8 14 18 42 21 62 6 36 25 63 25 36 0 -42 -77 -214 -103
-230 -18 -12 -27 -10 -27 6 0 21 -45 47 -58 34 -13 -13 -22 -7 -26 16 -1 8
-27 41 -58 73 -32 35 -58 72 -62 91 -6 25 -13 32 -39 37 -18 3 -52 -1 -77 -9
-25 -8 -40 -15 -35 -15 6 -1 3 -6 -5 -11 -20 -13 -92 -13 -125 0 -23 9 -25 8
-15 -10 7 -14 50 -32 143 -61 113 -35 139 -47 176 -81 56 -53 45 -62 -13 -11
-35 31 -67 46 -153 73 -59 18 -114 35 -122 38 -10 4 -12 -1 -6 -16 3 -13 2
-22 -4 -22 -5 0 -13 9 -16 20 -3 11 -16 25 -27 31 -17 9 -24 8 -33 -5 -16 -21
-41 -20 -71 3 -17 13 -20 21 -12 24 7 3 -52 6 -132 7 -91 1 -138 5 -125 10 11
5 45 9 75 9 67 1 56 20 -13 22 -26 1 -47 5 -46 8 0 3 14 17 30 30 29 22 36 23
134 19 64 -3 106 -1 108 5 2 6 43 2 105 -11 104 -22 125 -20 205 13 10 4 17 3
17 -5 0 -6 -5 -8 -11 -4 -7 4 -10 1 -7 -7 4 -13 66 -34 75 -25 10 10 -11 49
-56 104 -70 85 -111 145 -105 151 3 3 13 -4 22 -16 123 -155 152 -193 152
-200 0 -4 10 -39 22 -76 18 -57 30 -75 72 -111 64 -55 125 -96 141 -96 15 0
27 38 31 103 2 44 1 47 -21 47 -29 0 -95 30 -95 43 0 5 8 6 18 2 9 -4 25 -7
35 -7 9 0 15 -3 12 -8 -3 -5 -1 -11 5 -15 6 -3 13 2 17 12 3 10 15 30 25 45
10 14 18 28 18 31 0 3 -21 9 -47 13 -60 8 -94 26 -42 22 27 -3 35 0 32 9 -3 7
2 16 11 19 9 3 13 10 10 15 -3 5 6 9 20 9 14 0 26 -4 26 -10 0 -5 -5 -10 -11
-10 -6 0 -9 -6 -6 -14 3 -8 1 -17 -6 -20 -7 -3 -1 -4 13 -3 25 2 25 4 32 112
16 245 20 361 13 431 -6 70 -8 74 -31 74 -14 0 -27 7 -30 15 -7 17 -44 19
-143 9 -57 -6 -61 -9 -55 -28 6 -18 5 -19 -8 -8 -10 8 -31 10 -62 6 l-47 -7 6
-71 c4 -46 3 -66 -3 -56 -5 8 -13 54 -17 101 l-7 86 34 8 c40 9 71 6 79 -7 4
-6 50 -7 123 -2 104 6 116 5 116 -10 0 -9 7 -16 15 -16 8 0 15 9 15 21 0 11 5
17 10 14 6 -3 10 -17 10 -30 0 -25 33 -51 50 -40 6 3 10 1 10 -5 0 -25 25 -2
31 28 6 31 6 32 -29 32 -26 0 -33 3 -25 11 12 12 83 1 138 -22 33 -13 40 -15
69 -17 14 -2 17 -8 13 -29 -4 -24 -4 -26 8 -10 17 23 28 22 20 -3 -5 -15 -2
-20 12 -20 25 0 37 10 62 50 12 21 21 52 21 78 0 23 5 42 10 42 6 0 10 -6 11
-12z m443 -53 c19 -40 20 -65 4 -65 -7 0 -37 9 -66 20 l-54 20 7 -20 c7 -22
-2 -60 -14 -60 -11 0 -4 90 10 131 l13 36 42 -14 c31 -11 47 -23 58 -48z
m-2866 30 c15 -5 22 -15 22 -31 0 -23 -3 -24 -42 -18 -43 6 -68 26 -68 51 0
14 38 13 88 -2z m-261 -22 c41 -13 52 -20 47 -32 -15 -36 -9 -45 35 -53 24 -4
46 -10 49 -13 12 -12 -6 -13 -48 -4 -25 6 -66 8 -92 5 -28 -3 -48 -1 -48 4 0
6 14 10 30 10 17 0 30 5 30 10 0 6 -7 10 -15 10 -8 0 -15 9 -15 19 0 22 -4 26
-43 35 -24 6 -30 3 -34 -14 -5 -18 -23 -29 -23 -13 0 13 44 53 58 53 9 0 39
-8 69 -17z m721 -68 c-35 -70 -40 -74 -185 -132 -46 -19 -62 -29 -48 -31 11
-2 26 -9 32 -14 7 -6 20 -7 29 -4 21 8 41 -4 24 -14 -10 -6 -8 -15 9 -35 28
-37 27 -54 -2 -27 -13 12 -35 22 -48 22 -15 0 -37 12 -54 30 -33 35 -41 33
-24 -4 11 -23 9 -29 -11 -51 -13 -14 -32 -25 -42 -25 -16 0 -17 -3 -7 -21 8
-15 8 -24 0 -32 -16 -16 -14 -25 7 -30 11 -3 8 -5 -8 -6 -32 -1 -50 -18 -50
-48 0 -31 20 -29 80 8 40 24 49 35 45 50 -4 10 -2 19 3 19 6 0 12 -6 15 -12 4
-14 29 -4 71 27 18 13 18 16 4 32 -16 19 -21 56 -6 47 5 -3 6 -9 4 -13 -3 -4
8 -18 24 -30 19 -13 30 -17 30 -9 0 7 16 29 36 49 21 21 34 44 32 55 -3 16 -4
17 -20 1 -22 -22 -27 -22 -60 10 -33 32 -35 43 -8 43 11 0 20 6 20 13 0 6 7 3
16 -8 8 -11 20 -20 27 -20 7 0 22 -4 35 -9 16 -5 27 -3 35 7 7 8 49 42 95 77
l84 62 -34 29 c-18 15 -28 28 -23 29 23 1 110 -73 141 -119 49 -73 98 -92 201
-80 43 5 83 11 90 14 6 2 14 -1 16 -8 2 -8 -25 -16 -87 -23 -85 -11 -95 -10
-145 10 -44 17 -60 31 -93 79 -25 37 -45 57 -54 53 -67 -26 -303 -254 -287
-279 3 -5 8 -5 12 0 3 5 30 9 59 9 48 0 52 -1 52 -23 0 -16 -6 -23 -19 -23
-11 0 -27 -3 -36 -7 -15 -5 -15 -8 6 -24 43 -33 -4 -22 -49 12 -39 29 -42 29
-42 10 0 -27 -14 -27 -32 1 l-15 22 -82 -53 c-80 -53 -88 -61 -73 -75 9 -10 9
-49 0 -57 -5 -3 -11 -33 -14 -67 -4 -34 -9 -60 -12 -58 -10 11 -1 120 10 128
10 6 10 10 0 16 -7 5 -12 15 -10 22 4 17 -24 24 -67 16 -35 -7 -55 -43 -32
-59 9 -6 9 -10 1 -13 -7 -3 -10 -14 -7 -24 3 -11 0 -20 -6 -20 -11 0 -12 8
-15 80 l-1 35 -99 33 c-114 37 -120 35 -110 -40 4 -34 2 -48 -6 -48 -8 0 -11
20 -8 64 l3 65 -75 22 c-41 12 -81 24 -87 26 -10 4 -9 -6 2 -37 13 -38 13 -41
0 -30 -8 7 -15 22 -15 34 -1 24 -18 50 -40 59 -13 4 -12 6 1 6 9 1 19 10 22
21 4 17 2 20 -13 15 -11 -3 -30 1 -43 10 -23 15 -25 14 -30 -4 -4 -15 2 -23
22 -30 22 -9 20 -9 -14 -4 -84 12 -138 47 -106 67 5 4 15 28 22 56 8 30 19 52
30 55 9 3 36 37 59 75 22 39 46 70 51 70 6 0 1 -15 -10 -33 -15 -25 -18 -36
-9 -45 6 -6 8 -15 4 -19 -4 -4 -10 -3 -14 3 -4 6 -21 -4 -42 -27 l-35 -37 57
-47 c32 -25 64 -48 71 -51 20 -7 41 44 26 62 -7 8 -9 17 -5 21 3 4 12 -2 20
-13 13 -18 15 -17 29 16 8 19 12 38 10 43 -6 11 -61 9 -68 -3 -3 -5 -11 -10
-17 -10 -6 0 -1 11 11 24 15 16 21 31 17 44 -4 11 -2 23 4 27 5 3 10 -1 10 -9
0 -27 93 -65 163 -67 19 0 23 -14 7 -24 -6 -4 -22 0 -35 9 -13 9 -36 16 -50
16 -22 0 -25 -3 -20 -20 4 -11 2 -20 -4 -20 -6 0 -11 -7 -11 -15 0 -9 -7 -18
-15 -21 -8 -4 -15 -13 -15 -21 0 -8 -9 -28 -21 -44 -12 -17 -19 -40 -17 -56 3
-23 11 -29 63 -45 32 -9 62 -14 65 -10 10 15 48 11 46 -5 0 -10 11 -19 28 -24
35 -10 35 -10 38 22 2 19 -2 25 -22 27 -30 4 -50 28 -50 60 0 17 71 166 95
200 2 2 18 5 36 8 28 5 46 -2 99 -34 l65 -39 5 -57 5 -57 48 49 c43 44 47 51
38 75 -6 14 -24 38 -40 53 -17 15 -28 31 -24 37 3 5 -1 13 -8 18 -7 4 -11 11
-7 14 3 4 18 -1 32 -10 14 -10 26 -13 26 -9 0 5 7 -4 15 -19 8 -16 14 -31 13
-35 -4 -14 14 -52 24 -52 5 0 8 7 4 15 -4 10 1 15 15 15 15 0 19 -5 15 -15 -3
-8 -4 -15 -3 -15 2 0 43 17 93 38 88 37 89 38 122 100 44 82 61 80 20 -3z
m889 30 c7 0 13 -3 13 -7 1 -42 0 -42 -25 -18 -26 24 -34 47 -12 33 6 -4 18
-8 24 -8z m158 -15 c-9 -17 -13 -35 -10 -40 3 -6 2 -10 -3 -10 -5 0 -13 -17
-19 -37 l-10 -38 -2 33 c-1 35 -13 40 -56 20 -18 -8 -24 -17 -19 -27 3 -9 8
-22 11 -28 3 -7 0 -13 -6 -13 -6 0 -11 6 -11 13 0 6 -5 19 -10 27 -9 13 -15 9
-41 -20 -26 -30 -29 -32 -23 -11 6 23 4 24 -26 18 -18 -4 -49 -20 -70 -37 -39
-31 -50 -36 -50 -22 0 16 99 73 140 80 32 5 48 14 56 31 8 15 13 18 16 9 4
-10 10 -8 28 7 16 14 24 16 27 8 10 -28 40 -13 56 27 8 22 20 40 26 40 8 0 6
-11 -4 -30z m1515 13 c0 -5 10 -9 23 -9 12 -1 41 -7 65 -13 39 -11 42 -14 36
-39 -9 -36 -6 -34 -48 -17 -21 9 -43 14 -49 12 -7 -2 -20 9 -29 25 -20 32 -23
48 -8 48 6 0 10 -3 10 -7z m358 -21 c2 -7 -3 -12 -12 -12 -9 0 -16 7 -16 16 0
17 22 14 28 -4z m-1792 -57 c-7 -35 -8 -36 -26 -20 -17 15 -17 31 -4 74 4 12
7 12 21 -1 11 -12 14 -26 9 -53z m899 3 c7 -8 3 -9 -15 -3 -14 4 -35 7 -47 7
-16 0 -23 6 -23 19 0 18 2 19 38 4 20 -9 42 -21 47 -27z m1493 -33 c4 -5 2 -5
-5 -2 -20 12 -44 -4 -38 -24 4 -12 1 -21 -9 -25 -9 -3 -16 -15 -16 -26 0 -20
9 -21 53 -3 9 4 17 3 17 -2 0 -11 -43 -33 -64 -33 -17 0 -36 -43 -29 -68 3
-14 15 -22 37 -24 l31 -4 -26 -11 c-15 -6 -31 -25 -37 -41 -5 -16 -17 -29 -26
-29 -18 0 -21 13 -6 22 16 10 12 21 -12 33 l-23 11 25 0 c23 1 25 4 25 54 0
51 -1 52 -30 53 -72 1 -155 20 -155 35 0 5 10 7 23 4 123 -28 153 -31 176 -16
11 7 9 15 -10 42 -42 59 -38 67 31 64 33 -1 64 -6 68 -10z m-2967 -37 c15 -28
5 -21 -21 15 -15 20 -17 27 -6 18 9 -8 22 -23 27 -33z m979 -4 c0 -17 -5 -24
-20 -24 -11 0 -20 5 -20 10 0 6 6 10 13 10 8 0 7 4 -3 10 -13 9 -13 11 0 19
19 13 30 4 30 -25z m1670 21 c0 -8 -4 -15 -10 -15 -5 0 -10 7 -10 15 0 8 5 15
10 15 6 0 10 -7 10 -15z m-1917 -12 c-6 -16 -5 -16 10 -4 15 12 21 10 45 -17
56 -63 56 -63 41 -73 -8 -5 -27 -7 -43 -4 -16 3 -34 5 -42 5 -7 0 -22 14 -34
30 -21 29 -21 32 -6 55 19 29 39 34 29 8z m1887 -60 c0 -10 7 -14 20 -10 20 5
25 -7 14 -36 -4 -12 -12 -13 -42 -5 -20 6 -38 11 -40 12 -1 2 3 17 9 34 11 32
39 35 39 5z m-1050 8 c0 -10 -34 -21 -67 -21 -35 0 -27 18 10 23 17 2 38 5 45
5 6 1 12 -2 12 -7z m-596 -22 c-8 -14 -64 -11 -64 4 0 9 11 12 35 9 19 -2 32
-8 29 -13z m696 11 c12 -8 11 -10 -7 -10 -13 0 -23 5 -23 10 0 13 11 13 30 0z
m73 -37 c7 -40 4 -49 -12 -38 -13 7 -15 75 -2 75 4 0 11 -17 14 -37z m155 31
c12 -4 22 -13 22 -21 0 -8 4 -12 9 -8 10 6 26 -13 18 -21 -6 -6 -110 18 -124
29 -7 5 -13 13 -13 18 0 10 54 12 88 3z m610 -19 c8 -7 -12 -33 -37 -48 l-28
-16 -1 39 c-2 39 -2 39 31 33 17 -3 33 -7 35 -8z m543 -88 c8 -53 13 -99 11
-102 -12 -12 -20 -3 -14 18 5 19 3 20 -10 9 -9 -7 -23 -10 -32 -6 -18 7 -19
13 -7 33 8 12 12 12 25 2 9 -8 16 -9 16 -4 0 15 -19 115 -26 137 -4 13 -2 17
7 14 9 -3 20 -41 30 -101z m-1351 83 c-20 -13 -40 -13 -40 0 0 6 12 10 28 10
21 0 24 -2 12 -10z m-1276 -54 c4 -19 18 -50 31 -70 26 -39 20 -49 -10 -16
-10 11 -24 20 -32 20 -9 0 -13 16 -13 56 0 60 14 66 24 10z m649 30 c5 -14
-10 -36 -25 -36 -4 0 -8 8 -8 18 0 31 23 44 33 18z m41 -22 c9 -24 7 -28 -9
-14 -17 14 -20 30 -6 30 5 0 12 -7 15 -16z m-177 0 c-3 -3 -12 -4 -19 -1 -8 3
-5 6 6 6 11 1 17 -2 13 -5z m1425 -16 c-6 -6 -23 -11 -39 -12 -15 -1 -33 -5
-39 -9 -7 -4 -15 0 -18 9 -9 24 -8 24 24 18 17 -4 30 -2 30 3 0 6 12 8 26 5
17 -3 22 -8 16 -14z m-2064 6 c21 -4 31 -13 35 -30 3 -18 0 -24 -14 -24 -35 0
-69 19 -69 40 0 22 3 23 48 14z m996 -46 c-7 -55 -10 -65 -19 -56 -9 9 7 108
17 108 5 0 6 -23 2 -52z m596 6 c0 -8 -4 -12 -10 -9 -5 3 -10 10 -10 16 0 5 5
9 10 9 6 0 10 -7 10 -16z m694 0 c28 -11 18 -27 -11 -19 -37 9 -53 25 -26 25
12 0 28 -3 37 -6z m4 -45 c13 -5 31 -9 40 -9 13 0 13 2 -4 15 -14 11 -15 14
-4 15 24 0 41 -15 35 -31 -4 -10 18 -33 65 -68 48 -37 67 -57 59 -62 -7 -4
-17 -2 -23 6 -29 38 -131 103 -186 120 -33 10 -60 22 -60 27 0 8 35 3 78 -13z
m1058 -3 c27 -13 69 -27 93 -30 64 -8 63 -16 -3 -16 -45 0 -64 5 -90 25 -28
22 -42 24 -132 26 -56 1 -110 -3 -120 -9 -30 -15 -144 -32 -210 -31 -57 1 -56
2 36 15 52 8 118 21 145 28 28 8 91 14 141 15 76 1 98 -3 140 -23z m-2066 -5
c0 -5 -8 -17 -17 -26 -16 -16 -17 -16 -30 1 -12 16 -11 20 4 26 26 10 43 9 43
-1z m-272 -42 c17 -27 5 -40 -14 -15 -8 11 -14 23 -14 28 0 15 15 8 28 -13z
m1162 1 c0 -11 -7 -20 -15 -20 -8 0 -15 9 -15 20 0 11 7 20 15 20 8 0 15 -9
15 -20z m1377 -6 c-7 -7 -37 7 -37 17 0 6 9 5 21 -1 11 -7 19 -14 16 -16z
m-2164 4 c7 -20 -6 -43 -25 -46 -19 -3 -21 1 -12 36 7 24 29 30 37 10z m2217
-9 c0 -5 -9 -9 -20 -9 -19 0 -26 11 -14 23 8 8 34 -3 34 -14z m-2509 -26 c21
-56 -14 -93 -60 -64 -17 11 -6 67 17 81 26 15 32 12 43 -17z m885 11 c-8 -22
11 -44 37 -44 46 0 -17 -27 -76 -33 -50 -5 -57 -4 -46 9 6 8 20 14 30 14 16 0
18 5 13 26 -5 19 -4 25 5 20 6 -4 11 -3 11 3 0 5 -6 12 -12 14 -7 3 0 6 16 6
22 1 27 -2 22 -15z m-1519 -18 c12 -4 24 -2 28 4 12 20 25 10 25 -20 0 -33
-20 -48 -60 -45 -33 2 -70 15 -70 23 0 16 33 53 44 49 6 -2 21 -7 33 -11z
m-2110 -28 c-3 -8 -6 -5 -6 6 -1 11 2 17 5 13 3 -3 4 -12 1 -19z m1637 -3 c-4
-8 -10 -15 -15 -15 -5 0 -9 7 -9 15 0 8 7 15 15 15 9 0 12 -6 9 -15z m202 -27
c-9 -5 -16 -18 -16 -28 0 -11 -5 -20 -11 -20 -7 0 -9 9 -5 23 3 12 6 27 6 34
0 14 33 22 39 9 2 -5 -4 -13 -13 -18z m3374 12 c0 -5 -5 -10 -11 -10 -5 0 -7
5 -4 10 3 6 8 10 11 10 2 0 4 -4 4 -10z m-4362 -12 c9 -9 12 -9 12 0 0 6 7 9
16 5 8 -3 13 -12 10 -19 -6 -15 35 -30 58 -21 15 6 95 -19 111 -34 12 -12 -11
-12 -33 0 -9 5 -39 12 -67 15 l-50 6 45 -21 c25 -12 86 -41 135 -65 50 -24 96
-44 102 -44 6 0 13 -4 15 -8 8 -20 599 -321 617 -314 8 2 11 0 8 -5 -4 -6 6
-16 21 -24 15 -7 54 -34 87 -59 33 -25 65 -49 71 -53 6 -4 53 11 103 33 97 42
111 46 111 30 0 -5 -7 -10 -15 -10 -9 0 -15 -6 -14 -12 3 -26 -1 -39 -11 -33
-5 3 -6 13 -3 21 5 14 1 13 -33 -1 -22 -9 -56 -23 -76 -32 -42 -17 -44 -21
-25 -48 10 -12 16 -14 21 -7 7 12 46 17 46 7 0 -3 -7 -17 -16 -31 -16 -23 -16
-27 2 -60 13 -24 25 -34 39 -32 13 2 19 -2 17 -11 -2 -10 4 -12 25 -6 15 3 32
10 36 14 5 5 11 53 13 107 7 141 8 144 47 144 51 0 107 -12 107 -22 0 -5 -19
-6 -45 -3 l-44 7 16 -41 c9 -22 24 -43 35 -47 10 -3 30 -23 43 -45 23 -35 27
-38 50 -27 22 10 24 15 18 54 -4 30 -2 44 6 44 6 0 11 -5 11 -11 0 -5 4 -8 9
-4 5 3 12 1 16 -4 3 -5 -2 -14 -11 -19 -13 -7 -14 -13 -5 -31 7 -12 17 -19 23
-15 6 4 8 -1 4 -13 -10 -31 20 -93 45 -93 14 0 19 -5 16 -14 -4 -10 3 -16 21
-19 24 -4 24 -4 -5 -6 -21 0 -33 -6 -33 -15 0 -9 -20 -15 -66 -20 -65 -7 -90
-2 -67 12 9 6 9 19 1 52 -6 25 -12 47 -14 49 -2 2 -22 -8 -44 -23 -22 -14 -46
-26 -54 -26 -8 0 -18 -4 -21 -10 -9 -15 -25 -12 -25 5 0 9 6 12 15 9 8 -4 15
-1 15 6 0 6 -8 10 -17 8 -21 -4 -30 -53 -14 -72 6 -7 8 -23 6 -37 -7 -40 7
-54 45 -40 62 21 63 20 55 -69 -6 -68 -5 -80 8 -80 8 0 25 12 36 28 15 20 20
23 21 10 0 -9 -4 -20 -10 -23 -18 -11 -11 -23 20 -33 35 -13 39 -8 45 53 2 25
7 50 10 56 4 5 -1 9 -9 9 -9 0 -18 -13 -22 -35 -9 -51 -23 -43 -21 13 2 42 0
47 -20 50 -28 4 -28 5 1 36 31 35 36 33 29 -11 -3 -21 -2 -35 2 -31 4 4 29 -2
55 -12 43 -17 49 -17 54 -4 11 28 6 44 -11 44 -21 0 -50 17 -42 24 3 3 20 1
38 -4 29 -8 33 -6 41 16 5 13 14 24 20 24 6 0 6 -9 0 -26 -6 -14 -8 -29 -5
-34 3 -5 1 -10 -4 -12 -13 -4 -24 -68 -12 -68 5 0 32 -16 61 -35 57 -39 70
-42 70 -20 0 16 12 20 23 8 4 -3 0 -14 -9 -24 -15 -17 -14 -19 10 -25 15 -3
25 -11 23 -18 -2 -6 4 -30 15 -54 21 -50 21 -52 9 -52 -5 0 -17 20 -26 45 -10
24 -26 52 -37 61 -18 17 -20 17 -45 -9 -24 -23 -25 -29 -14 -50 12 -22 7 -64
-15 -121 -3 -7 37 -60 88 -117 51 -57 109 -123 129 -146 20 -24 56 -58 81 -77
25 -19 50 -47 57 -63 6 -16 41 -55 76 -86 36 -32 73 -73 82 -90 9 -18 18 -26
20 -19 5 14 33 17 33 3 0 -5 -6 -11 -12 -14 -10 -3 -7 -16 9 -49 12 -25 25
-62 28 -81 l7 -35 116 52 c65 29 130 59 145 67 l28 15 -55 52 c-30 29 -62 52
-70 52 -8 0 -43 28 -78 63 -79 79 -91 95 -82 108 4 6 0 15 -7 20 -7 4 -10 11
-7 15 4 4 15 -8 25 -26 35 -64 88 -113 222 -202 75 -49 128 -87 119 -84 -32
10 -29 -12 5 -38 24 -18 41 -24 63 -20 32 5 87 -27 72 -41 -4 -4 -19 2 -34 14
-15 12 -30 19 -33 15 -3 -3 3 -12 14 -20 11 -8 29 -22 40 -33 12 -10 38 -26
59 -35 45 -19 42 -34 -3 -18 -34 12 -38 7 -16 -22 23 -30 18 -39 -9 -19 -13
10 -22 21 -20 24 2 4 -3 21 -12 38 -18 36 -52 59 -58 39 -7 -21 -3 -48 6 -48
4 0 8 -7 8 -15 0 -9 6 -28 14 -43 12 -24 12 -30 0 -47 -14 -19 -14 -19 -28 0
-8 11 -12 32 -9 50 3 21 -1 36 -17 52 -17 19 -19 27 -10 43 6 11 16 20 23 21
7 0 -1 7 -18 14 -16 7 -41 25 -54 39 -30 32 -49 32 -104 4 -23 -12 -82 -38
-132 -59 -84 -35 -90 -39 -88 -65 2 -19 20 -46 57 -83 51 -51 57 -54 81 -43
37 17 63 15 113 -9 38 -19 51 -20 103 -12 32 5 60 7 61 3 2 -3 20 -18 40 -34
36 -27 36 -27 31 -4 -4 22 -4 22 11 4 8 -10 17 -22 18 -27 4 -11 68 -19 68 -8
0 18 17 8 29 -17 14 -33 8 -42 -15 -20 -10 11 -30 16 -53 14 -29 -1 -49 6 -84
32 -26 18 -49 31 -50 29 -6 -7 -27 -71 -27 -82 0 -6 6 -2 14 8 8 11 12 25 9
32 -3 7 -1 13 5 13 5 0 12 -9 15 -21 3 -12 10 -18 16 -14 6 3 11 1 11 -4 0 -6
-4 -11 -10 -11 -5 0 -10 -6 -10 -14 0 -16 -24 -28 -44 -20 -8 3 -34 -19 -65
-57 -59 -71 -60 -67 33 -136 42 -31 62 -40 74 -34 35 19 201 167 201 179 1 15
18 16 23 1 5 -15 98 12 98 28 0 7 5 13 10 13 6 0 10 -4 10 -10 0 -5 7 -7 15
-4 8 4 13 10 10 14 -10 16 20 17 44 1 l24 -15 -7 48 c-7 47 -7 48 16 41 32
-10 33 -12 21 -38 -24 -48 -23 -55 9 -68 17 -7 60 -32 95 -56 63 -43 136 -73
181 -73 42 0 31 -19 -65 -114 -29 -28 -61 -72 -73 -98 -11 -25 -25 -48 -31
-50 -6 -2 8 -36 31 -78 44 -77 65 -157 39 -148 -7 2 -14 21 -16 41 -1 21 -14
60 -29 88 -25 45 -31 50 -53 44 -24 -6 -25 -5 -9 11 15 15 15 19 1 40 -8 13
-11 24 -6 24 14 0 4 51 -14 71 -17 20 -7 69 14 69 16 0 15 9 -3 132 -6 40 -25
58 -99 96 -28 14 -46 17 -57 11 -9 -5 -46 -18 -82 -30 -63 -19 -66 -21 -66
-52 0 -19 14 -56 35 -90 20 -33 47 -87 61 -120 15 -34 28 -64 30 -66 2 -3 20
15 40 38 46 53 58 45 14 -10 -21 -27 -37 -63 -47 -105 -14 -61 -14 -65 6 -90
12 -15 21 -33 21 -41 0 -8 6 -13 13 -10 18 6 12 62 -12 95 -12 17 -21 36 -21
44 1 16 58 -48 70 -78 5 -12 22 -27 38 -35 15 -7 38 -29 50 -50 23 -40 27 -53
13 -45 -4 3 -17 -1 -27 -9 -18 -14 -17 -16 18 -50 42 -39 68 -45 68 -16 0 20
28 56 37 47 2 -2 -5 -23 -17 -46 l-21 -42 22 -24 c21 -22 23 -22 35 -6 7 9 14
12 14 5 0 -6 9 -15 20 -18 28 -9 25 -29 -2 -22 -22 6 -22 6 -4 -8 11 -8 26
-15 34 -15 10 0 8 -6 -8 -20 -29 -25 -40 -25 -40 0 0 11 -7 20 -15 20 -8 0
-15 5 -15 10 0 6 -12 22 -27 34 l-28 24 -23 -40 c-21 -38 -21 -43 -7 -64 9
-13 24 -24 34 -24 10 0 24 -6 31 -14 6 -8 18 -12 26 -9 8 3 14 0 14 -7 0 -8
-9 -11 -25 -8 -22 5 -23 3 -13 -16 6 -12 14 -23 18 -26 4 -3 17 -40 29 -84 12
-43 31 -90 41 -104 11 -14 18 -28 14 -31 -13 -13 -53 55 -69 118 -18 66 -50
121 -100 174 -33 34 -38 34 -30 -3 4 -19 2 -34 -7 -44 -11 -12 -15 -8 -25 23
-10 33 -12 34 -18 14 -8 -25 -13 -27 -33 -15 -9 6 -6 15 14 33 14 13 29 22 32
19 4 -3 8 3 10 14 2 10 -9 37 -25 60 -49 70 -83 142 -83 175 0 17 -5 31 -11
31 -6 0 -9 6 -6 14 8 20 -30 72 -83 115 -41 32 -43 33 -18 6 23 -26 25 -36 21
-81 l-5 -51 -56 3 c-30 2 -60 8 -65 13 -7 7 -19 4 -36 -8 -41 -28 -51 -33 -51
-23 0 17 74 62 84 52 15 -15 36 -12 36 5 0 8 -12 18 -27 22 l-28 6 28 10 c22
7 27 14 27 43 0 32 8 39 35 35 19 -4 -147 149 -185 169 -12 7 -43 27 -67 46
-25 19 -50 34 -57 34 -6 0 -30 18 -51 40 -21 22 -43 40 -48 40 -5 0 -18 -11
-28 -24 -21 -26 -97 -73 -136 -82 -13 -4 -23 -13 -23 -20 0 -10 -7 -13 -22 -9
-13 3 -54 -6 -93 -19 -67 -22 -70 -24 -67 -52 3 -32 4 -74 2 -119 -1 -29 11
-44 54 -70 12 -7 15 -16 10 -29 -7 -19 -8 -19 -15 1 -4 11 -26 29 -48 39 -37
18 -53 34 -32 34 4 0 11 23 14 50 7 57 -7 100 -32 99 -10 0 -11 -2 -4 -6 8 -3
4 -12 -12 -29 -31 -31 -35 -30 -31 6 3 26 1 28 -15 19 -26 -13 -24 -24 8 -48
35 -29 20 -40 -17 -13 -16 12 -34 22 -39 22 -6 0 -7 16 -4 38 4 29 3 35 -7 25
-15 -14 -40 -6 -40 13 0 7 -9 18 -19 24 -28 14 -39 12 -18 -4 17 -13 16 -14
-3 -19 -15 -4 -20 -13 -20 -41 0 -20 -5 -36 -10 -36 -6 0 -8 21 -4 56 l7 55
-119 -5 c-182 -9 -233 -16 -227 -32 3 -8 1 -14 -5 -14 -5 0 -12 9 -15 19 -2
11 -26 30 -53 43 -26 13 -55 34 -63 48 l-16 25 32 -23 c43 -30 113 -62 140
-62 18 0 22 6 25 37 4 51 25 54 24 4 -1 -38 0 -40 24 -34 14 3 27 8 29 10 3 2
0 38 -6 81 -11 80 -7 152 8 152 5 0 9 5 9 10 0 6 -7 10 -15 10 -8 0 -15 5 -15
10 0 6 8 10 18 10 20 0 64 29 45 30 -6 0 -22 18 -34 40 -14 24 -25 36 -30 29
-4 -6 -11 -9 -16 -6 -6 4 -37 2 -69 -3 -32 -5 -92 -12 -131 -15 -72 -7 -73 -7
-73 -36 0 -38 27 -51 115 -56 38 -2 83 -8 98 -13 19 -6 36 -6 48 1 21 11 24 3
9 -21 -7 -12 -14 -12 -44 -2 -20 7 -67 16 -105 19 -68 6 -70 5 -64 -16 4 -16
13 -21 37 -21 52 0 60 -12 64 -90 4 -59 7 -69 18 -59 8 7 17 9 21 6 7 -8 -38
-46 -55 -47 -9 0 -11 7 -7 20 9 30 10 123 1 138 -4 6 -23 12 -42 12 -28 0 -34
-4 -34 -22 0 -22 -26 -58 -43 -58 -5 0 -2 11 7 25 9 13 16 40 16 60 0 32 -2
35 -29 35 -16 0 -37 7 -46 16 -23 23 -11 29 19 8 15 -9 30 -13 34 -9 7 6 -24
37 -51 49 -9 5 -9 7 1 12 6 3 12 17 12 30 0 19 -5 24 -24 24 -14 0 -28 -5 -31
-10 -4 -6 -11 -8 -16 -4 -6 3 -30 1 -53 -6 -24 -6 -54 -10 -67 -8 -17 3 -7 8
34 17 36 8 57 18 57 26 0 8 6 12 14 9 10 -4 13 7 12 49 l0 54 -59 23 c-42 16
-62 19 -69 12 -6 -6 -13 -49 -16 -94 -3 -54 -10 -89 -19 -100 -10 -11 -13 -26
-9 -43 7 -26 21 -31 44 -16 11 7 11 9 -2 14 -9 4 -16 12 -16 18 0 21 41 -14
55 -47 l12 -30 -54 0 c-37 1 -57 -4 -64 -14 -8 -11 -12 -12 -16 -2 -3 8 -29
12 -78 12 l-73 0 6 -46 c3 -34 2 -45 -7 -40 -6 4 -11 27 -11 52 0 28 -4 44
-12 44 -7 0 -29 3 -49 6 -29 5 -41 2 -58 -15 -32 -32 -26 -40 32 -43 l52 -3
-50 -9 c-35 -6 -50 -6 -53 3 -2 6 -8 9 -13 5 -13 -8 -11 3 6 36 21 40 42 49
98 40 l47 -7 25 45 c25 44 25 46 8 64 -10 9 -54 33 -98 52 -64 28 -81 40 -89
63 -5 15 -10 29 -11 31 -1 1 -19 -14 -39 -33 -49 -46 -85 -64 -124 -63 -17 1
-44 -8 -59 -18 -15 -10 -39 -24 -53 -30 -19 -8 -25 -18 -26 -45 -1 -19 -5 -71
-9 -116 l-8 -82 54 13 c30 8 73 23 96 35 45 23 89 27 113 11 11 -8 5 -10 -25
-8 -22 1 -54 -6 -70 -15 -17 -8 -61 -25 -98 -37 -42 -14 -67 -27 -67 -36 0
-19 36 -91 50 -99 18 -11 11 -23 -21 -34 -33 -11 -88 -15 -59 -4 8 3 26 10 39
15 21 8 22 10 9 31 -17 25 -32 76 -29 95 1 6 -8 12 -19 12 -19 0 -111 -20
-118 -25 -1 -1 2 -14 7 -27 11 -30 -2 -48 -35 -48 -22 0 -34 17 -34 50 0 16
-7 18 -57 13 -55 -4 -60 -3 -95 31 -54 50 -50 66 22 94 34 14 60 30 60 38 0 8
4 14 9 14 5 0 12 8 15 17 9 23 -15 40 -66 48 -29 5 -37 10 -27 16 18 11 69 12
69 0 0 -5 18 -4 43 1 23 6 51 11 62 13 12 1 21 10 23 23 2 16 10 22 28 22 13
0 24 5 24 10 0 6 17 10 38 10 21 0 41 3 45 6 11 11 -4 33 -19 27 -23 -9 -16
10 12 32 24 19 25 24 14 42 -17 27 -40 18 -41 -16 0 -25 0 -25 -9 -3 -5 12
-14 22 -19 22 -5 0 -14 13 -19 29 -6 16 -20 32 -32 36 -16 5 -19 10 -10 15 9
6 8 15 -4 39 -17 33 -31 39 -39 19 -3 -7 -6 -5 -6 6 -1 10 -13 30 -27 43 -21
19 -33 23 -58 18 -17 -4 -36 -13 -41 -20 -13 -15 -49 -194 -42 -202 3 -3 20 0
38 6 18 6 43 11 56 11 15 0 27 9 35 24 8 19 18 24 39 23 36 -3 37 -12 2 -25
-16 -5 -41 -22 -57 -36 -26 -25 -33 -27 -82 -20 -52 6 -53 6 -60 -21 -6 -23
-8 -25 -16 -11 -6 10 -4 23 6 38 8 13 22 51 30 85 l14 63 -104 -1 c-100 0
-104 -1 -104 -22 0 -30 25 -162 41 -220 15 -53 8 -51 113 -31 19 4 26 3 22 -5
-4 -6 -16 -11 -27 -11 -11 0 -22 -7 -25 -15 -4 -8 -12 -15 -18 -15 -7 0 -23
-11 -35 -24 -33 -35 -70 -40 -81 -10 -7 18 -17 24 -40 24 -27 0 -30 -3 -30
-29 0 -30 21 -54 28 -33 6 18 19 15 25 -5 2 -10 8 -26 12 -35 4 -11 3 -18 -4
-18 -6 0 -11 9 -11 20 0 11 -5 20 -10 20 -15 0 -26 -33 -13 -37 6 -2 9 -24 7
-54 -3 -44 -1 -52 16 -56 25 -7 26 -23 3 -24 -10 0 -13 -3 -6 -6 10 -3 10 -9
0 -23 -9 -16 -7 -23 11 -43 23 -25 28 -37 13 -37 -16 0 -51 66 -51 96 0 56
-10 74 -41 74 -25 0 -29 -4 -30 -27 -1 -16 -1 -32 0 -37 3 -12 -21 -26 -31
-20 -4 3 -4 14 2 24 14 25 13 27 -12 33 -16 5 -29 -2 -48 -23 -34 -38 -45 -38
-59 0 -5 17 -15 30 -20 30 -6 0 -11 4 -11 9 0 5 9 7 20 4 33 -9 23 20 -16 45
l-36 22 -32 -19 c-18 -11 -41 -29 -51 -41 -17 -19 -55 -28 -55 -12 0 4 41 32
90 62 90 55 111 82 72 95 -11 3 -25 18 -31 32 -12 25 -13 26 -23 9 -7 -13 -7
-20 2 -26 18 -11 -24 -19 -43 -9 -11 7 -16 23 -15 59 1 39 -3 55 -21 74 -13
14 -29 22 -37 19 -8 -3 -14 1 -14 11 0 19 -30 36 -64 36 -14 0 -26 5 -26 11 0
6 9 9 20 6 28 -7 25 2 -15 43 -19 19 -48 69 -65 110 -31 76 -63 120 -87 120
-7 0 -13 2 -13 4 0 2 -3 11 -6 20 -7 18 25 23 42 6 13 -13 62 9 69 32 6 17
-40 120 -56 126 -12 5 -11 22 0 22 5 0 19 -16 31 -36 12 -19 25 -33 27 -30 9
8 -7 56 -18 56 -18 0 -46 33 -31 38 9 3 9 9 1 24 -14 26 -4 52 18 44 10 -4 25
2 40 15 23 22 32 46 13 34 -5 -3 -10 -2 -10 4 0 17 64 50 96 49 42 -1 57 10
51 39 -5 25 24 50 43 38 17 -11 11 -27 -7 -21 -15 5 -15 4 1 -9 18 -14 19 -16
3 -27 -9 -7 -18 -24 -20 -37 -2 -14 -10 -27 -17 -29 -9 -3 -11 2 -7 17 7 26 7
26 -54 -4 -44 -23 -48 -28 -39 -45 6 -11 8 -25 5 -31 -4 -5 1 -26 10 -45 12
-26 14 -39 5 -48 -13 -17 -2 -96 14 -96 6 -1 -6 -10 -26 -21 -21 -11 -38 -24
-38 -29 0 -6 -6 -10 -12 -10 -7 -1 -26 -12 -43 -26 -26 -22 -28 -26 -13 -34 9
-6 24 -34 34 -63 23 -72 60 -139 90 -168 l25 -24 77 27 c125 43 172 66 172 83
0 25 47 81 102 120 41 30 47 39 37 51 -6 8 -9 18 -4 22 4 4 24 -12 45 -35 21
-24 42 -43 48 -43 5 0 12 -9 15 -20 5 -20 27 -28 27 -10 0 5 7 7 15 4 8 -4 15
-2 15 3 0 5 8 9 18 9 9 0 29 3 45 7 16 4 27 3 27 -2 0 -6 -18 -15 -40 -21 -79
-21 -33 -41 76 -32 62 5 65 6 71 33 3 16 6 32 6 36 0 5 6 13 13 18 17 13 83
130 100 177 20 56 63 106 114 133 25 13 55 34 67 47 11 12 65 57 118 98 53 41
103 86 110 100 10 20 44 38 156 83 125 49 167 61 147 42 -3 -3 -65 -29 -138
-58 -74 -29 -135 -58 -138 -65 -2 -7 2 -10 12 -6 10 4 16 1 16 -10 0 -10 6
-13 15 -10 9 4 15 0 15 -9 0 -8 -7 -17 -15 -21 -8 -3 -15 -12 -15 -21 0 -21
-16 -19 -40 7 -17 18 -24 20 -38 11 -9 -6 -16 -20 -15 -31 3 -21 -27 -39 -55
-33 -13 2 -122 -82 -135 -105 -4 -8 -30 -26 -58 -39 -50 -26 -109 -93 -109
-124 0 -9 -7 -27 -16 -40 -14 -19 -14 -25 -3 -32 8 -5 24 -7 36 -4 16 4 21 1
18 -8 -4 -9 7 -13 37 -14 108 -3 177 -12 199 -24 l24 -14 -24 -3 c-13 -2 -27
2 -31 8 -5 7 -16 9 -29 5 -21 -6 -21 -8 -7 -24 23 -25 20 -34 -9 -27 -19 5
-25 2 -25 -9 0 -9 7 -18 15 -21 8 -4 15 -18 15 -34 0 -22 7 -32 31 -44 17 -9
35 -13 40 -10 21 13 6 -27 -17 -45 -27 -22 -29 -54 -3 -59 8 -1 71 19 140 45
l124 49 3 54 c2 30 1 64 -2 75 -6 23 -43 44 -79 46 -12 0 -16 3 -9 6 9 3 -4
15 -32 32 -44 25 -105 98 -174 207 -33 53 -38 64 -24 64 5 0 18 -18 31 -40 12
-22 48 -75 80 -117 49 -66 69 -84 136 -121 42 -24 81 -40 85 -35 4 4 10 20 14
35 5 23 4 25 -17 20 -19 -5 -20 -3 -9 11 8 9 19 14 26 11 9 -3 16 6 21 23 3
15 25 49 48 75 129 146 134 153 110 167 -16 9 -15 10 8 11 14 0 35 10 46 23
21 23 71 62 82 63 3 0 23 10 43 23 26 16 41 34 50 63 18 53 45 66 33 17 -4
-19 -10 -70 -14 -114 -4 -53 -14 -94 -29 -122 -13 -25 -22 -60 -22 -87 l0 -45
35 15 c40 17 45 17 45 5 0 -5 -16 -15 -35 -21 -43 -14 -55 -35 -55 -93 l0 -45
101 2 c96 2 103 4 123 28 26 32 119 48 114 19 -3 -12 -13 -15 -46 -13 -38 2
-43 0 -53 -24 -5 -15 -17 -33 -27 -40 -12 -9 -13 -13 -4 -14 8 0 39 -20 71
-44 48 -37 59 -52 67 -87 l9 -43 85 -27 c62 -20 87 -24 92 -16 5 8 8 6 8 -6 0
-10 12 -22 26 -27 29 -11 24 -31 -7 -23 -18 5 -18 1 10 -45 17 -29 26 -54 21
-57 -14 -8 18 -67 33 -62 7 2 20 25 29 50 10 26 27 56 38 67 11 11 19 24 16
28 -3 5 4 14 16 21 11 7 19 9 17 4 -2 -4 -11 -25 -19 -45 -8 -21 -19 -38 -25
-38 -7 0 -17 -19 -24 -42 -13 -41 -12 -42 18 -67 23 -19 39 -48 60 -111 l28
-85 43 2 c23 1 45 4 48 7 2 3 -2 29 -11 58 l-15 53 -2 -50 c-2 -41 -3 -45 -10
-25 -4 14 -8 44 -9 68 -1 26 -5 41 -11 37 -5 -3 -10 1 -10 9 0 9 7 16 15 16
10 0 15 11 15 35 0 29 -5 37 -25 45 -30 11 -34 25 -5 17 11 -3 20 -4 20 -2 0
15 -36 97 -70 156 -38 68 -42 80 -41 143 0 48 -5 78 -16 97 -17 28 -21 29 -90
29 -42 0 -73 4 -73 10 0 6 28 10 65 10 l66 0 -6 53 c-3 28 -10 69 -16 90 -9
32 -12 36 -29 27 -10 -5 -30 -10 -43 -10 -23 0 -44 -32 -61 -95 -5 -16 -15
-21 -51 -23 -48 -2 -95 11 -95 27 0 5 15 7 33 4 44 -7 91 18 106 56 9 21 29
37 67 55 30 14 58 26 63 26 5 0 10 10 13 23 3 17 -15 40 -87 107 -50 47 -117
105 -148 130 -39 32 -60 56 -68 83 -9 28 -17 37 -35 37 -25 0 -29 -11 -40
-123 -4 -46 -12 -74 -24 -85 -10 -9 -37 -62 -60 -117 -41 -99 -60 -132 -60
-106 0 23 91 226 105 234 8 4 16 32 20 65 3 31 8 72 11 90 5 32 5 32 -38 32
-24 0 -61 -5 -83 -10 -22 -5 -42 -5 -45 -1 -3 5 -25 12 -50 16 -98 16 -200 53
-296 107 l-102 58 -73 -19 c-53 -13 -76 -16 -81 -8 -9 15 11 27 47 27 17 0 46
3 66 6 36 6 37 7 28 38 -5 17 -7 43 -3 59 4 20 2 27 -9 27 -9 0 -17 -5 -19
-12 -3 -8 -16 -8 -51 3 -56 16 -41 27 36 28 34 1 46 4 41 13 -4 6 -6 36 -5 65
l2 54 -28 -7 c-15 -3 -52 -13 -82 -21 -29 -8 -86 -16 -127 -17 -41 0 -74 -4
-74 -8 0 -13 87 -20 108 -9 11 6 48 11 81 11 58 0 61 -1 61 -25 0 -14 -5 -25
-11 -25 -6 0 -17 -7 -25 -15 -24 -24 -34 -20 -67 28 -11 16 -16 17 -40 6 -24
-11 -27 -17 -22 -41 6 -26 5 -28 -28 -28 -19 0 -54 7 -78 15 -35 13 -49 13
-72 4 -20 -8 -24 -14 -16 -20 18 -11 -4 -35 -38 -44 -28 -7 -45 8 -36 32 4 9
-5 13 -28 13 -19 0 -41 5 -49 10 -11 7 6 10 55 9 48 -1 81 4 102 14 28 15 37
15 77 3 25 -8 46 -10 46 -6 0 5 7 15 15 23 13 13 9 16 -33 27 -32 7 -56 8 -74
1 -28 -10 -108 -3 -108 10 0 4 22 5 49 2 31 -3 51 -1 55 6 5 7 -2 11 -18 11
-14 0 -28 5 -31 10 -3 6 1 10 9 10 19 0 22 36 4 43 -7 3 -1 6 13 6 14 1 34 -6
45 -15 19 -15 19 -15 -3 -11 -12 3 -24 -1 -27 -8 -6 -15 58 -25 153 -24 111 2
141 20 56 34 -16 3 -61 10 -100 16 -38 6 -72 13 -74 15 -2 2 16 26 41 52 52
55 82 107 74 127 -3 8 3 17 15 20 10 4 19 10 19 13 0 4 -88 70 -195 146 -107
77 -195 143 -195 147 0 13 44 -4 84 -33 21 -15 43 -28 48 -28 5 0 24 11 42 25
50 38 85 33 164 -24 37 -27 93 -62 125 -77 31 -15 57 -32 57 -36 0 -12 -6 -10
-59 17 -42 21 -51 22 -67 11 -16 -13 -15 -14 14 -21 18 -3 32 -11 32 -16 0
-11 -3 -11 -33 0 -32 12 -44 -10 -18 -33 15 -14 19 -14 39 0 21 14 22 14 23
-8 1 -13 1 -28 0 -34 -1 -9 65 -44 84 -44 12 0 35 63 30 80 -7 22 -5 23 19 14
9 -3 16 -12 16 -19 0 -8 18 -32 40 -54 23 -23 35 -43 29 -46 -7 -5 -4 -13 6
-25 10 -11 14 -24 9 -32 -24 -38 2 -67 46 -53 16 5 140 121 140 131 0 13 -172
118 -324 197 -105 54 -231 121 -281 147 -217 114 -364 190 -369 190 -3 0 -6
-11 -6 -25 0 -20 5 -25 25 -25 16 0 25 -6 25 -15 0 -9 -9 -15 -25 -15 -24 0
-25 -3 -25 -55 0 -30 -4 -55 -10 -55 -6 0 -10 39 -10 98 l0 99 -39 18 c-22 10
-56 33 -77 51 -20 19 -40 34 -45 34 -5 0 -9 5 -9 10 0 14 13 13 28 -2z m-765
-15 c-7 -2 -19 -2 -25 0 -7 3 -2 5 12 5 14 0 19 -2 13 -5z m2587 -23 c10 -7
12 -12 4 -17 -11 -8 -75 -116 -87 -145 -5 -15 -27 -26 -27 -14 0 2 18 35 40
74 22 38 40 79 40 91 0 23 7 26 30 11z m355 -37 c-2 -29 -25 -73 -25 -48 0 4
-9 0 -20 -10 -11 -10 -23 -15 -28 -10 -4 4 -1 10 6 12 6 3 12 13 12 24 0 10 5
19 11 19 6 0 9 7 5 15 -9 24 3 43 24 38 14 -4 18 -13 15 -40z m307 15 c-7 -7
-12 -8 -12 -2 0 14 12 26 19 19 2 -3 -1 -11 -7 -17z m683 -2 c-16 -13 -35 -22
-41 -19 -6 2 -40 -4 -75 -13 -40 -11 -104 -18 -169 -19 -103 -1 -107 -2 -200
-47 -52 -25 -106 -49 -119 -53 -43 -13 -129 -74 -136 -95 -4 -14 -15 -20 -34
-20 -18 0 -38 -12 -61 -35 -30 -31 -102 -65 -139 -65 -24 0 0 16 44 30 22 7
57 28 78 45 21 18 51 35 67 38 15 4 31 14 34 24 6 17 113 93 130 93 5 0 64 25
132 56 l123 55 83 -6 c72 -5 97 -2 193 24 61 17 112 30 115 30 3 1 -8 -10 -25
-23z m-3177 -17 c1 -9 -7 -27 -18 -40 l-21 -24 6 23 c6 20 4 22 -19 16 -14 -3
-26 -2 -26 2 1 38 71 58 78 23z m4463 -36 c6 -19 8 -37 5 -40 -3 -4 -11 8 -17
26 -6 17 -20 36 -30 42 -28 15 -23 31 6 17 14 -6 29 -25 36 -45z m-4196 26
c11 -17 0 -20 -21 -4 -17 13 -17 14 -2 15 9 0 20 -5 23 -11z m1440 -9 c3 -5 1
-10 -4 -10 -6 0 -11 5 -11 10 0 6 2 10 4 10 3 0 8 -4 11 -10z m1415 -4 c0 -2
-8 -10 -17 -17 -16 -13 -17 -12 -4 4 13 16 21 21 21 13z m-2802 -24 c2 -7 -2
-10 -12 -6 -9 3 -16 11 -16 16 0 13 23 5 28 -10z m1369 2 c-3 -3 -12 -4 -19
-1 -8 3 -5 6 6 6 11 1 17 -2 13 -5z m1393 -8 c0 -2 -8 -10 -17 -17 -16 -13
-17 -12 -4 4 13 16 21 21 21 13z m-2710 -28 c0 -13 -23 -5 -28 10 -2 7 2 10
12 6 9 -3 16 -11 16 -16z m-857 -3 c-3 -9 -8 -14 -10 -11 -3 3 -2 9 2 15 9 16
15 13 8 -4z m2164 -7 c-3 -8 -6 -5 -6 6 -1 11 2 17 5 13 3 -3 4 -12 1 -19z
m-1257 -20 c0 -13 -23 -5 -28 10 -2 7 2 10 12 6 9 -3 16 -11 16 -16z m2493
-80 c18 -12 27 -9 21 5 -5 15 23 44 33 33 4 -3 20 6 36 21 l29 28 -19 -35
c-20 -38 -38 -60 -48 -60 -4 0 -5 7 -1 15 3 8 1 15 -4 15 -6 0 -10 -15 -10
-33 0 -26 -11 -45 -51 -88 -45 -48 -50 -51 -46 -27 5 32 -27 47 -42 20 -8 -14
-12 -15 -23 -4 -11 11 -10 15 2 23 11 7 6 8 -15 3 -16 -4 -37 -13 -46 -20 -19
-17 -23 -17 -73 -3 -35 10 -38 13 -34 40 4 28 3 29 -38 29 -24 0 -46 5 -49 10
-3 6 3 10 14 10 12 0 21 4 21 9 0 6 12 4 27 -4 33 -17 41 -13 49 30 5 28 11
35 30 35 13 0 24 -5 24 -11 0 -6 9 -8 21 -4 16 5 19 4 14 -5 -5 -9 -4 -11 4
-6 7 4 11 17 9 29 -2 15 3 23 16 25 14 3 17 0 13 -11 -4 -10 3 -22 19 -31 23
-16 24 -16 24 6 1 22 1 22 15 4 11 -14 12 -22 4 -27 -18 -11 13 -18 34 -7 11
6 18 22 19 51 2 41 2 41 5 -8 3 -27 10 -53 16 -57z m-3348 82 c3 -5 21 -10 38
-10 27 -1 29 -2 14 -11 -10 -6 -29 -8 -43 -5 -15 4 -24 2 -24 -5 0 -6 -7 -9
-15 -5 -51 19 40 -71 93 -93 29 -12 38 -12 69 3 19 9 37 16 38 14 2 -2 1 -15
-2 -30 -4 -23 -11 -28 -34 -28 -40 0 -117 41 -158 83 -21 22 -39 33 -49 30
-10 -4 -13 -2 -8 5 4 7 1 15 -8 18 -21 8 -11 23 12 17 10 -2 24 3 31 11 15 18
37 21 46 6z m4919 -6 c10 -25 -1 -29 -14 -5 -6 12 -7 21 -1 21 5 0 12 -7 15
-16z m-6279 -25 c88 -12 144 -28 100 -29 -11 0 -62 7 -114 15 -51 9 -101 13
-111 10 -9 -3 -32 -34 -50 -70 -18 -35 -39 -66 -48 -70 -25 -9 -24 1 2 29 13
15 34 47 45 71 22 46 46 67 71 60 8 -2 56 -9 105 -16z m1885 0 c0 -5 -4 -9
-10 -9 -5 0 -10 7 -10 16 0 8 5 12 10 9 6 -3 10 -10 10 -16z m-383 5 c-3 -3
-12 -4 -19 -1 -8 3 -5 6 6 6 11 1 17 -2 13 -5z m63 -4 c0 -5 -7 -10 -15 -10
-8 0 -15 5 -15 10 0 6 7 10 15 10 8 0 15 -4 15 -10z m702 -2 c-9 -9 -15 -9
-24 0 -9 9 -7 12 12 12 19 0 21 -3 12 -12z m1718 -12 c0 -3 -4 -8 -10 -11 -5
-3 -10 -1 -10 4 0 6 5 11 10 11 6 0 10 -2 10 -4z m2324 -12 c9 -24 7 -28 -9
-14 -17 14 -20 30 -6 30 5 0 12 -7 15 -16z m-6107 -28 c12 -12 -5 -16 -28 -8
-13 5 -33 6 -44 2 -25 -9 -42 -1 -24 12 14 9 86 5 96 -6z m3288 -52 c-14 -37
-25 -74 -25 -84 0 -14 -27 -79 -58 -142 -2 -4 15 -12 37 -19 23 -7 41 -16 41
-21 0 -11 0 -10 -49 7 -22 8 -41 12 -41 10 0 -21 22 -37 77 -57 44 -15 73 -32
87 -51 l21 -28 27 33 c14 18 30 29 34 25 4 -4 3 -12 -4 -19 -8 -8 -5 -19 13
-42 23 -31 30 -66 27 -138 -1 -25 -7 -38 -16 -38 -9 0 -12 8 -8 25 3 18 -6 39
-34 75 l-38 50 -15 -25 c-15 -24 -31 -33 -31 -17 0 4 7 18 16 30 26 37 -4 73
-90 105 -98 38 -100 40 -87 66 10 17 9 22 -4 27 -21 9 -19 27 3 20 26 -9 81
96 62 119 -10 12 -9 16 4 21 9 3 16 12 16 19 0 21 42 115 51 115 5 0 -2 -30
-16 -66z m-3118 25 c48 -18 89 -33 91 -34 1 -1 -9 -22 -23 -47 -25 -45 -25
-74 -1 -90 6 -4 -24 -8 -66 -8 -72 0 -78 -2 -78 -21 0 -15 4 -19 19 -14 11 3
31 3 46 -1 22 -5 25 -11 20 -28 -4 -11 -7 -32 -7 -44 0 -26 44 -78 74 -88 19
-6 25 -44 7 -44 -6 0 -33 16 -59 35 -40 30 -56 35 -101 35 -44 1 -50 3 -35 11
26 16 103 5 129 -17 15 -14 14 -10 -6 14 -15 19 -30 51 -33 73 -6 36 -9 39
-39 39 -29 0 -33 3 -38 33 -2 17 -1 34 4 35 5 2 9 12 9 23 0 14 7 19 26 19 49
0 101 22 117 49 l16 27 -49 17 c-26 9 -50 17 -53 17 -4 0 -9 -22 -13 -50 -4
-27 -11 -50 -15 -50 -8 0 -4 64 6 97 4 14 -33 29 -43 18 -4 -4 -1 -10 6 -12 7
-3 12 -24 12 -55 0 -44 -2 -49 -17 -43 -10 4 -26 10 -35 12 -10 3 -18 13 -18
22 0 19 42 101 52 101 4 0 47 -14 95 -31z m1543 21 c0 -5 -4 -10 -9 -10 -6 0
-13 5 -16 10 -3 6 1 10 9 10 9 0 16 -4 16 -10z m1883 -59 c30 -17 59 -31 64
-31 6 0 23 19 38 42 46 70 39 27 -10 -58 -25 -43 -45 -82 -45 -85 0 -3 27 -14
60 -24 l61 -18 -28 -29 c-15 -15 -37 -28 -50 -28 -13 0 -23 -5 -23 -11 0 -6
-6 -9 -14 -6 -8 3 -31 -7 -52 -24 l-37 -30 -29 28 c-24 23 -31 25 -38 13 -5
-8 -12 -11 -16 -8 -4 4 1 19 10 32 9 14 16 31 16 38 0 12 72 48 97 48 10 0 53
79 53 97 0 2 -12 9 -27 16 -22 10 -72 40 -122 74 -2 1 2 10 10 19 12 14 14 14
20 -4 4 -11 32 -34 62 -51z m2000 -4 c3 -9 13 -17 22 -17 8 0 15 -4 15 -10 0
-5 8 -10 18 -9 10 0 12 3 5 6 -24 9 -13 20 17 15 26 -4 30 -1 31 19 1 20 2 18
10 -9 7 -23 6 -44 -4 -73 -12 -35 -15 -38 -27 -25 -8 11 -9 16 -1 16 21 0 11
16 -21 32 -18 8 -45 22 -60 29 -22 11 -48 52 -48 75 0 9 37 -34 43 -49z
m-5693 23 c0 -5 -5 -10 -11 -10 -5 0 -7 5 -4 10 3 6 8 10 11 10 2 0 4 -4 4
-10z m-120 -10 c0 -5 -5 -10 -11 -10 -5 0 -7 5 -4 10 3 6 8 10 11 10 2 0 4 -4
4 -10z m1830 -20 c5 0 11 6 13 13 3 6 6 2 6 -10 1 -12 -2 -28 -5 -37 -9 -25
-34 6 -33 41 1 17 3 21 6 11 2 -10 8 -18 13 -18z m2588 11 c4 -11 -2 -12 -24
-7 -45 11 -55 28 -15 24 19 -2 37 -9 39 -17z m1912 9 c0 -5 -7 -10 -16 -10 -8
0 -12 5 -9 10 3 6 10 10 16 10 5 0 9 -4 9 -10z m-6645 -30 c3 -5 -1 -10 -9
-10 -8 0 -18 5 -21 10 -3 6 1 10 9 10 8 0 18 -4 21 -10z m6645 -21 c0 -10 -7
-19 -15 -19 -9 0 -15 9 -15 25 0 18 4 23 15 19 8 -4 15 -15 15 -25z m-6580 11
c0 -5 -10 -10 -22 -9 -22 0 -22 1 -3 9 11 5 21 9 23 9 1 1 2 -3 2 -9z m3009
-14 c21 -25 -16 -66 -60 -66 -17 0 -9 33 13 57 25 27 31 28 47 9z m1231 -45
c0 -5 -8 -11 -17 -14 -10 -2 -26 -8 -35 -12 -10 -4 -18 -3 -18 3 0 6 12 15 28
20 35 13 42 14 42 3z m-2010 -8 c-1 -18 -17 -28 -47 -30 -30 -2 -32 -1 -20 17
11 19 67 29 67 13z m178 -9 c23 -4 42 -11 42 -16 0 -6 -10 -8 -22 -5 -13 4
-42 9 -65 13 -24 4 -43 11 -43 16 0 6 10 8 23 5 12 -4 41 -9 65 -13z m938 -33
c5 -52 -6 -47 -22 10 -11 35 -10 40 3 37 10 -2 17 -18 19 -47z m1546 24 c-37
-47 -79 -92 -93 -100 -8 -4 0 7 17 26 17 19 44 49 59 67 33 38 45 43 17 7z
m1501 -45 c-3 -11 -7 -20 -9 -20 -2 0 -4 9 -4 20 0 11 4 20 9 20 5 0 7 -9 4
-20z m-6065 -17 c-12 -15 -50 -14 -55 2 -1 6 13 10 32 11 28 0 32 -2 23 -13z
m2139 -10 c29 -9 53 -21 53 -26 0 -5 -6 -7 -14 -4 -8 3 -34 11 -57 18 -46 13
-73 29 -49 29 7 0 37 -8 67 -17z m1013 8 c0 -6 -4 -13 -10 -16 -5 -3 -10 1
-10 9 0 9 5 16 10 16 6 0 10 -4 10 -9z m2767 -7 c-3 -3 -12 -4 -19 -1 -8 3 -5
6 6 6 11 1 17 -2 13 -5z m-4152 -16 c4 -3 2 -16 -5 -27 -7 -14 -7 -27 -1 -39
6 -11 6 -23 0 -33 -8 -12 -12 -11 -24 6 -11 14 -28 19 -63 20 -64 2 -89 12
-96 38 -13 49 -12 50 89 45 52 -2 97 -7 100 -10z m4255 8 c0 -3 -4 -8 -10 -11
-5 -3 -10 -1 -10 4 0 6 5 11 10 11 6 0 10 -2 10 -4z m-1925 -46 l70 -7 -68 -2
c-50 -1 -78 4 -107 19 -51 26 -52 35 -2 14 20 -9 69 -19 107 -24z m355 5 c0
-10 -124 -65 -145 -65 -21 0 -148 49 -128 50 7 0 37 -9 67 -21 l55 -20 68 29
c72 32 83 35 83 27z m-2423 -29 c-14 -36 64 -229 91 -225 4 1 17 1 30 0 32 -2
27 -21 -6 -21 -44 0 -87 53 -107 128 -9 35 -21 72 -27 82 -9 14 -9 22 1 34 16
20 25 21 18 2z m933 -7 c0 -5 -4 -9 -10 -9 -5 0 -10 7 -10 16 0 8 5 12 10 9 6
-3 10 -10 10 -16z m-2040 -10 c0 -18 2 -20 16 -8 16 13 174 30 174 18 0 -3 18
-11 40 -18 59 -17 49 -29 -16 -19 -31 5 -59 6 -62 4 -6 -7 26 -56 37 -56 5 0
7 -9 4 -20 -5 -18 0 -20 46 -20 28 0 51 -5 51 -10 0 -13 -138 -4 -176 10 -39
15 -54 12 -54 -11 0 -12 -11 -52 -25 -90 -16 -45 -21 -69 -13 -69 7 0 5 -5 -4
-12 -17 -14 -61 -136 -53 -148 3 -5 24 -11 48 -15 53 -9 88 -29 37 -21 -19 2
-49 8 -66 11 -24 5 -33 3 -38 -11 -15 -40 23 -45 197 -29 57 5 87 4 87 -2 0
-12 -145 -28 -237 -27 l-62 1 -6 -56 c-4 -31 -9 -63 -11 -72 -4 -14 12 -17
118 -23 68 -4 147 -9 176 -12 55 -7 71 -23 25 -25 -35 -2 -25 -3 -118 12 -44
7 -150 14 -235 15 -85 2 -164 5 -175 8 -11 2 -35 5 -52 5 -36 1 -47 21 -12 21
17 0 20 5 17 25 -4 16 -1 25 8 25 7 0 14 -12 16 -27 l3 -28 103 -5 c56 -3 102
-3 103 0 0 3 2 14 3 25 2 11 7 43 11 70 l7 50 -31 -29 c-17 -16 -34 -26 -38
-22 -4 4 14 28 40 52 26 25 47 52 47 60 0 24 -19 16 -26 -11 -3 -14 -10 -25
-16 -25 -5 0 -6 10 -3 22 6 18 4 20 -11 13 -33 -14 -84 -18 -97 -6 -16 13 -42
-13 -44 -47 -1 -12 -9 -29 -17 -38 -15 -14 -17 -14 -22 0 -4 10 -18 16 -35 16
-16 0 -29 5 -29 10 0 6 11 10 24 10 15 0 27 7 31 19 3 10 14 26 25 36 20 18
20 19 -6 46 -23 24 -24 29 -12 50 7 13 14 25 15 27 1 2 11 -2 23 -8 30 -16 40
-3 45 54 5 58 -2 78 -24 72 -15 -5 -61 24 -61 38 0 3 9 6 20 6 10 0 24 8 29
18 8 13 13 14 19 4 13 -19 40 -4 44 26 2 19 9 26 28 27 14 1 28 -2 31 -7 3 -5
34 19 70 52 40 38 59 63 52 66 -18 8 -16 24 2 24 9 0 15 -9 15 -21z m-44 -36
c-10 -10 -19 5 -10 18 6 11 8 11 12 0 2 -7 1 -15 -2 -18z m664 17 c0 -5 -7
-10 -15 -10 -23 0 -85 -32 -79 -41 8 -14 -65 -39 -112 -39 -24 0 -44 -4 -44
-10 0 -5 11 -10 23 -10 15 0 28 -9 35 -24 16 -36 75 -78 98 -70 16 6 17 5 7
-7 -7 -7 -13 -19 -13 -26 0 -7 6 -13 13 -13 6 0 38 -11 69 -24 l56 -23 11 44
c7 24 9 59 5 77 -5 30 -2 37 39 70 24 20 47 36 51 36 16 0 2 -19 -34 -46 -37
-26 -40 -32 -36 -64 3 -19 -1 -58 -8 -86 l-13 -50 76 -17 c42 -10 101 -20 131
-24 87 -9 96 -25 10 -17 -85 7 -96 9 -165 26 -27 7 -53 18 -58 24 -10 17 -102
50 -160 59 -50 8 -62 21 -24 27 21 3 20 4 -12 33 -19 17 -40 36 -47 43 -12 11
-14 11 -14 -2 0 -25 -22 -19 -62 17 -43 38 -46 47 -18 47 11 0 20 5 20 10 0 6
23 10 50 10 41 0 54 5 72 25 12 14 30 25 40 25 9 0 32 9 50 20 36 22 58 26 58
10z m-267 -32 c35 -17 34 -28 -2 -28 -20 0 -30 6 -34 20 -6 23 -1 24 36 8z
m583 -88 c28 -6 60 -17 70 -25 25 -19 1 -20 -34 -1 -15 7 -54 19 -86 25 -64
12 -71 15 -62 30 4 6 16 5 34 -4 14 -8 50 -19 78 -25z m1594 -25 c0 -8 -7 -15
-16 -15 -14 0 -14 3 -4 15 7 8 14 15 16 15 2 0 4 -7 4 -15z m376 -30 c-9 -21
-16 -46 -16 -56 0 -11 -5 -19 -11 -19 -13 0 -3 52 18 93 21 41 27 27 9 -18z
m164 25 c0 -12 -34 -12 -70 0 -20 7 -16 8 23 9 26 1 47 -3 47 -9z m-3422 -8
c12 -8 7 -42 -5 -42 -7 0 -32 33 -33 43 0 9 22 9 38 -1z m695 -69 c39 -9 46
-10 75 -12 26 -1 30 -21 4 -21 -15 0 -20 -16 -31 -92 -8 -51 -16 -114 -19
-140 -2 -27 -8 -48 -13 -48 -13 0 -11 32 6 130 8 47 15 102 15 123 0 35 -2 37
-32 37 -52 0 -60 10 -51 61 l8 44 3 -37 c3 -32 7 -38 35 -45z m655 37 c27 -31
48 -40 39 -17 -6 16 9 44 18 35 3 -3 2 -21 -3 -39 -6 -25 -4 -41 7 -61 12 -21
13 -30 4 -39 -15 -15 -47 7 -39 28 9 23 -5 43 -41 58 -45 19 -43 20 -43 -15 0
-17 -9 -40 -19 -51 -17 -18 -26 -20 -71 -14 -40 5 -50 10 -46 22 3 8 6 19 6
25 0 5 12 7 29 3 28 -6 29 -4 35 39 7 42 26 65 26 31 0 -22 28 -18 42 5 17 27
25 25 56 -10z m-1572 -37 c-8 -44 -19 -73 -27 -73 -12 0 -11 17 3 57 13 34 30
46 24 16z m714 -23 c0 -5 -4 -10 -9 -10 -6 0 -13 5 -16 10 -3 6 1 10 9 10 9 0
16 -4 16 -10z m2703 -17 c-7 -2 -21 -2 -30 0 -10 3 -4 5 12 5 17 0 24 -2 18
-5z m-483 -13 c0 -11 -48 -25 -57 -16 -3 3 5 10 18 15 32 13 39 13 39 1z
m-1234 -57 c-10 -10 -19 5 -10 18 6 11 8 11 12 0 2 -7 1 -15 -2 -18z m1691 21
c-3 -3 -12 -4 -19 -1 -8 3 -5 6 6 6 11 1 17 -2 13 -5z m-2573 -53 c-4 -25 -8
-48 -10 -50 -5 -5 -84 18 -84 25 0 2 6 20 14 39 13 31 19 34 51 33 l36 -1 -7
-46z m2362 24 c6 -23 0 -45 -10 -34 -10 12 -15 59 -6 59 5 0 12 -11 16 -25z
m-2062 -47 c-9 -86 -11 -94 -36 -95 -58 -3 -68 5 -68 52 0 44 0 45 34 45 28 0
35 4 40 25 4 14 13 25 21 25 11 0 13 -11 9 -52z m440 36 c18 -18 21 -34 6 -34
-5 0 -10 7 -10 15 0 8 -4 15 -10 15 -5 0 -10 5 -10 10 0 14 6 13 24 -6z m1694
-7 c2 -10 -3 -17 -12 -17 -10 0 -16 9 -16 21 0 24 23 21 28 -4z m280 -8 c2 -4
22 -6 45 -2 39 5 41 4 27 -13 -18 -22 -61 -64 -67 -64 -2 0 -13 9 -25 20 -12
10 -25 17 -30 14 -12 -8 -48 5 -48 17 0 6 9 8 20 4 15 -5 21 0 26 20 5 21 10
24 28 19 11 -4 22 -10 24 -15z m-2382 -38 c-10 -52 0 -81 29 -81 10 0 172
-168 192 -199 2 -2 36 1 75 8 58 10 80 20 105 44 18 17 36 27 40 23 4 -4 -3
-16 -17 -27 -21 -17 -22 -20 -5 -15 11 2 46 10 78 16 l57 11 0 45 c0 33 3 43
12 38 13 -8 63 -7 111 2 15 3 27 1 27 -4 0 -5 -29 -13 -65 -17 -60 -6 -65 -8
-65 -31 0 -30 8 -30 135 -4 107 22 134 25 120 11 -6 -4 -53 -16 -105 -25 -141
-26 -140 -25 -140 -41 0 -12 -4 -13 -19 -4 -14 9 -35 9 -92 -2 l-74 -14 -3
-48 c-4 -58 -22 -63 -22 -6 l0 42 -54 -7 c-71 -8 -86 -14 -86 -37 0 -10 -4
-19 -10 -19 -5 0 -10 7 -10 15 0 16 -19 19 -68 9 l-31 -6 16 -32 c10 -17 16
-34 15 -38 -1 -5 4 -8 10 -8 12 -1 48 -68 63 -117 5 -17 2 -23 -9 -23 -9 0
-16 -4 -16 -10 0 -5 -7 -10 -16 -10 -8 0 -12 -4 -9 -10 10 -16 39 -11 52 9 6
10 24 21 40 24 16 3 69 29 117 56 95 55 96 56 96 41 0 -5 -21 -21 -47 -36 -27
-15 -55 -33 -63 -39 -8 -6 -41 -20 -72 -30 -32 -11 -58 -23 -58 -28 0 -4 -11
-20 -25 -35 -21 -22 -28 -25 -43 -15 -16 9 -34 5 -103 -25 -132 -58 -126 -51
-95 -104 14 -25 35 -53 46 -63 11 -10 20 -23 20 -28 0 -17 -51 35 -81 82 -44
67 -39 82 31 109 33 12 85 35 117 49 l58 26 -37 15 c-21 8 -38 19 -38 24 0 6
8 7 18 3 19 -8 27 -9 60 -7 31 3 28 26 -12 97 -25 45 -39 60 -55 59 -16 0 -20
4 -15 18 3 12 0 18 -10 18 -9 0 -16 7 -16 15 0 11 -11 15 -39 15 -21 0 -66 3
-101 7 l-62 6 7 -51 c5 -35 3 -52 -4 -52 -6 0 -11 15 -11 34 0 59 -7 66 -65
66 -65 0 -85 16 -85 69 0 37 1 39 42 45 43 7 58 -2 58 -34 -1 -12 -3 -12 -14
3 -16 21 -62 22 -70 1 -18 -46 -11 -50 102 -63 135 -15 339 -18 371 -5 23 10
22 13 -65 107 -59 64 -96 97 -110 97 -27 0 -37 48 -22 103 16 54 26 45 14 -12z
m-1131 10 c-3 -6 -11 -11 -17 -11 -6 0 -6 6 2 15 14 17 26 13 15 -4z m812 -3
c-3 -8 -6 -5 -6 6 -1 11 2 17 5 13 3 -3 4 -12 1 -19z m2568 1 c5 -6 1 -9 -10
-9 -32 0 -65 12 -65 22 0 11 60 1 75 -13z m-1863 -37 c9 -2 19 6 23 17 9 31
22 26 28 -11 4 -18 9 -42 12 -53 6 -19 1 -21 -42 -23 -29 -1 -52 -8 -59 -17
-12 -16 -54 -21 -54 -6 0 5 13 11 29 14 26 6 28 8 22 44 -4 21 -2 48 4 60 l10
22 5 -22 c3 -12 13 -23 22 -25z m-162 29 c0 -18 -18 -21 -30 -6 -10 13 -9 15
9 15 11 0 21 -4 21 -9z m58 -40 c3 -9 0 -11 -8 -6 -10 6 -12 2 -8 -13 5 -17 2
-22 -13 -22 -10 0 -19 5 -19 10 0 6 -10 10 -22 10 -22 -1 -22 -1 -4 -15 10 -7
15 -18 11 -24 -8 -15 -38 -14 -53 1 -9 9 -12 9 -12 1 0 -7 9 -14 19 -18 12 -4
18 -12 15 -20 -9 -22 -69 -16 -83 8 -16 25 -23 77 -11 77 6 0 10 -9 10 -20 0
-11 5 -20 10 -20 6 0 10 6 10 13 0 9 2 9 9 -1 6 -11 11 -10 25 3 9 9 16 21 16
27 0 7 14 8 36 5 29 -5 35 -3 30 9 -4 11 0 15 16 12 12 -2 23 -9 26 -17z
m-1478 -16 c0 -8 -4 -15 -10 -15 -5 0 -10 7 -10 15 0 8 5 15 10 15 6 0 10 -7
10 -15z m755 5 c-3 -5 -10 -10 -16 -10 -5 0 -9 5 -9 10 0 6 7 10 16 10 8 0 12
-4 9 -10z m962 -27 c3 -7 -4 -11 -16 -10 -12 1 -21 7 -21 15 0 16 32 12 37 -5z
m1938 -3 c-4 -14 2 -27 21 -45 35 -33 12 -32 -31 1 -30 22 -33 28 -22 45 16
26 40 25 32 -1z m-3475 -21 c0 -5 -7 -9 -15 -9 -9 0 -12 6 -9 15 6 15 24 11
24 -6z m1820 -4 c0 -8 -7 -15 -15 -15 -8 0 -15 7 -15 15 0 8 7 15 15 15 8 0
15 -7 15 -15z m210 5 c0 -5 -9 -10 -20 -10 -11 0 -20 5 -20 10 0 6 9 10 20 10
11 0 20 -4 20 -10z m1540 7 c0 -2 -10 -12 -22 -23 l-23 -19 19 23 c18 21 26
27 26 19z m35 -15 c-3 -3 -11 0 -18 7 -9 10 -8 11 6 5 10 -3 15 -9 12 -12z
m-2896 -54 c1 -10 -3 -18 -9 -18 -5 0 -10 19 -9 43 1 36 2 38 9 17 4 -14 8
-33 9 -42z m2630 -24 c-7 -9 -12 -31 -10 -50 1 -21 -2 -34 -9 -34 -8 0 -10 10
-7 26 l4 25 -23 -22 c-13 -12 -24 -18 -24 -13 0 14 71 96 78 90 2 -3 -1 -13
-9 -22z m-1471 -21 c-5 -20 -21 -54 -34 -74 -13 -21 -24 -45 -24 -54 0 -8 -4
-15 -10 -15 -17 0 -11 33 15 82 14 26 25 52 25 58 0 12 21 39 32 40 3 0 2 -17
-4 -37z m132 7 c0 -5 -7 -10 -16 -10 -8 0 -12 5 -9 10 3 6 10 10 16 10 5 0 9
-4 9 -10z m174 -15 c3 -8 15 -15 26 -15 11 0 20 -7 20 -15 0 -13 -11 -15 -62
-13 -60 3 -63 4 -66 31 -3 25 -1 27 36 27 26 0 42 -5 46 -15z m1083 -22 c2 -6
-8 -10 -22 -10 -21 0 -23 2 -14 14 13 15 31 13 36 -4z m18 -58 l30 -24 -28 -1
c-23 0 -27 -4 -23 -18 4 -10 -3 -40 -15 -66 -17 -39 -23 -45 -35 -35 -8 7 -14
19 -12 28 1 9 -5 27 -15 41 -26 37 -22 57 13 62 17 3 33 1 36 -3 2 -5 11 -6
20 -2 13 5 13 8 -2 24 -24 27 -4 23 31 -6z m-2945 -37 c-1 -27 -2 -30 -11 -15
-5 9 -22 17 -37 17 -15 0 -34 5 -42 11 -11 7 -3 9 33 7 26 -2 47 0 47 4 0 5 2
8 5 8 3 0 5 -15 5 -32z m185 -7 c-5 -17 1 -22 34 -31 50 -13 54 -25 6 -16 -30
6 -39 3 -58 -19 -20 -23 -24 -25 -49 -13 -28 13 -37 41 -18 53 6 4 8 10 5 15
-10 15 15 22 32 8 13 -11 18 -10 27 5 15 23 29 22 21 -2z m231 -11 c5 0 22 7
38 15 16 9 31 13 34 10 8 -8 -3 -16 -45 -30 -32 -12 -38 -17 -35 -39 4 -41
-15 -30 -22 12 -9 59 -8 70 8 50 7 -10 17 -18 22 -18z m2588 24 c23 -9 20 -23
-4 -17 -11 3 -20 9 -20 14 0 11 3 11 24 3z m-499 -66 c4 -29 12 -59 17 -65 7
-9 5 -15 -6 -19 -9 -4 -18 -5 -20 -3 -8 9 -13 139 -6 139 5 0 11 -24 15 -52z
m-1198 36 c-21 -22 -138 -81 -143 -73 -8 13 -9 13 66 48 61 29 91 39 77 25z
m1834 -115 c60 -60 109 -112 109 -115 0 -2 -22 -4 -50 -4 -27 0 -50 5 -50 10
0 6 14 10 30 10 29 0 28 3 -56 88 -81 82 -113 122 -98 122 3 0 55 -50 115
-111z m-1058 59 c3 -35 0 -48 -18 -67 l-23 -23 -20 20 c-13 13 -19 29 -16 44
2 13 2 17 -2 11 -7 -16 -24 -17 -24 -3 0 18 54 59 76 60 18 0 23 -7 27 -42z
m287 17 c0 -25 -23 -35 -35 -15 -10 16 2 40 20 40 9 0 15 -9 15 -25z m-2363
-37 c-3 -7 -5 -2 -5 12 0 14 2 19 5 13 2 -7 2 -19 0 -25z m1539 13 c-13 -21
-327 -33 -334 -13 -2 8 31 12 115 15 65 1 142 4 171 5 29 1 51 -2 48 -7z
m-754 -21 c5 0 3 -7 -6 -15 -14 -15 -66 -21 -66 -9 0 13 35 33 48 29 8 -3 18
-5 24 -5z m-402 -10 c0 -7 6 -7 19 0 24 12 31 13 31 2 0 -9 -44 -32 -60 -32
-6 0 -10 9 -10 20 0 11 5 20 10 20 6 0 10 -5 10 -10z m961 -17 c0 -5 2 -18 5
-30 4 -25 -3 -27 -55 -17 -40 8 -41 34 -1 34 17 0 30 5 30 10 0 11 20 14 21 3z
m-1195 -40 c-12 -13 -89 -32 -100 -26 -5 4 8 12 30 19 45 14 81 17 70 7z m-67
-106 c11 -28 22 -90 25 -137 4 -46 13 -98 21 -114 18 -35 19 -50 4 -40 -24 14
-49 97 -49 159 0 58 -28 164 -50 188 -4 4 -19 3 -33 -2 -35 -14 -35 0 0 19 25
14 29 14 45 -2 10 -10 27 -42 37 -71z m541 43 c0 -5 -6 -10 -14 -10 -8 0 -18
5 -21 10 -3 6 3 10 14 10 12 0 21 -4 21 -10z m1126 -9 c10 8 20 4 39 -15 26
-26 33 -46 15 -46 -5 0 -10 5 -10 10 0 6 -17 10 -37 10 -52 0 -71 13 -53 35 9
11 16 13 23 6 7 -7 15 -7 23 0z m694 -16 c0 -8 -4 -15 -10 -15 -5 0 -10 7 -10
15 0 8 5 15 10 15 6 0 10 -7 10 -15z m-1710 -5 c0 -5 -5 -10 -11 -10 -5 0 -7
5 -4 10 3 6 8 10 11 10 2 0 4 -4 4 -10z m820 -24 c0 -22 -17 -37 -33 -30 -9 3
-17 16 -17 29 0 18 4 21 25 17 14 -2 25 -9 25 -16z m-360 -33 c8 -21 16 -41
18 -45 2 -5 -1 -8 -6 -8 -6 0 -15 12 -20 28 -5 15 -13 35 -17 45 -4 9 -3 17 2
17 5 0 15 -17 23 -37z m-216 -49 c7 -30 6 -32 -33 -38 -27 -4 -46 -15 -60 -34
-42 -55 -43 -56 -53 -38 -6 11 -6 22 2 32 8 8 8 14 2 14 -6 0 -12 -6 -15 -12
-2 -7 -8 -10 -12 -6 -11 11 34 68 53 66 46 -4 72 3 72 18 0 8 5 25 11 36 13
24 22 14 33 -38z m2306 46 c0 -5 -4 -10 -10 -10 -5 0 -10 5 -10 10 0 6 5 10
10 10 6 0 10 -4 10 -10z m-617 -31 c-5 -19 -7 -19 -24 -3 -18 16 -18 15 -12
-35 4 -35 2 -51 -6 -51 -7 0 -11 21 -11 58 l0 59 29 -5 c23 -3 28 -8 24 -23z
m-370 -53 c6 -15 -1 -26 -15 -26 -4 0 -8 9 -8 20 0 23 15 27 23 6z m-1133 -11
c0 -9 -72 -100 -82 -104 -17 -6 -6 16 32 64 31 39 50 55 50 40z m265 -25 c7 0
15 4 17 9 2 4 12 5 23 1 19 -7 18 -9 -7 -19 -17 -6 -28 -18 -28 -30 0 -11 -5
-23 -12 -27 -8 -5 -9 -2 -5 9 8 22 -8 30 -23 12 -10 -12 -14 -12 -26 0 -18 18
-18 29 1 21 10 -3 15 1 15 13 0 20 22 35 28 20 2 -5 10 -9 17 -9z m-1217 -2
c14 -14 16 -78 2 -78 -5 0 -10 13 -10 29 0 17 -4 33 -10 36 -12 7 -13 25 -2
25 4 0 13 -5 20 -12z m732 -68 c0 -5 -5 -10 -11 -10 -6 0 -8 -9 -4 -20 5 -15
3 -18 -9 -14 -9 4 -23 1 -31 -6 -25 -21 -17 2 12 32 28 29 43 35 43 18z m189
-29 c12 -8 7 -19 -24 -60 -42 -55 -43 -55 -64 -42 -18 11 -5 31 20 31 12 0 19
7 19 19 0 10 9 21 20 24 11 3 20 10 20 17 0 6 -4 8 -10 5 -5 -3 -10 -1 -10 4
0 13 10 14 29 2z m38 -23 c-3 -8 -6 -5 -6 6 -1 11 2 17 5 13 3 -3 4 -12 1 -19z
m-1836 -25 c7 -16 15 -31 17 -35 2 -5 0 -8 -6 -8 -7 0 -16 14 -40 63 -2 4 0 7
6 7 5 0 15 -12 23 -27z m3389 -8 c0 -7 -7 -16 -16 -19 -12 -5 -15 -2 -10 10 3
8 6 20 6 25 0 6 5 7 10 4 6 -3 10 -12 10 -20z m606 10 c14 -13 13 -15 -10 -15
-25 0 -33 10 -19 23 9 10 13 9 29 -8z m109 -7 c54 -26 61 -45 8 -22 -21 9 -44
18 -50 21 -12 5 -18 23 -8 23 2 0 25 -10 50 -22z m-2452 -6 c10 -10 14 -22 10
-25 -11 -12 -23 -8 -23 8 0 8 -4 15 -10 15 -5 0 -10 5 -10 10 0 16 15 12 33
-8z m-1903 -32 c0 -5 -4 -10 -10 -10 -5 0 -10 5 -10 10 0 6 5 10 10 10 6 0 10
-4 10 -10z m2669 -31 c-8 -16 -14 -18 -22 -10 -9 9 -8 14 3 21 24 16 31 11 19
-11z m1035 -96 c-7 -25 -18 -22 -35 9 -10 18 -9 20 4 15 12 -4 14 -1 10 11 -5
15 -4 15 10 2 10 -9 14 -24 11 -37z m1171 27 c10 -11 14 -20 9 -20 -12 1 -44
25 -44 34 0 12 17 6 35 -14z m336 -34 c19 -7 43 -16 53 -20 14 -5 16 -10 8
-18 -8 -8 -15 -8 -24 -1 -7 6 -32 17 -55 24 -24 6 -43 16 -43 21 0 12 23 10
61 -6z m-629 -26 c-5 -33 -18 -40 -25 -12 -4 13 -5 11 -6 -5 -1 -13 -7 -23
-16 -23 -8 0 -15 -9 -15 -20 0 -11 -4 -20 -9 -20 -5 0 -11 9 -14 20 -3 11 -1
20 4 20 4 0 6 7 3 15 -4 9 0 15 8 15 8 0 23 9 33 20 27 29 42 25 37 -10z m504
20 c19 -7 30 -7 40 1 11 9 14 8 14 -5 0 -9 11 -22 25 -28 14 -6 25 -15 25 -20
0 -12 -14 -10 -36 7 -26 20 -68 20 -60 0 4 -10 -1 -15 -14 -15 -11 0 -20 4
-20 10 0 5 -7 7 -15 4 -8 -4 -15 -1 -15 4 0 6 8 13 18 15 14 4 14 6 -5 12 -13
4 -20 11 -17 16 7 12 27 11 60 -1z m-99 -14 c8 -6 -12 -46 -24 -46 -9 0 -12 6
-9 18 5 13 -1 22 -16 30 -20 9 -19 10 12 5 19 -3 36 -7 37 -7z m-98 -12 c2 -2
2 -6 -1 -9 -8 -9 -58 6 -58 16 0 8 48 2 59 -7z m-3843 -4 c8 0 14 -4 14 -10 0
-5 -18 -10 -40 -10 -22 0 -40 4 -40 9 0 12 21 21 38 15 8 -2 20 -4 28 -4z
m3889 -10 c3 -5 -3 -10 -14 -10 -12 0 -21 5 -21 10 0 6 6 10 14 10 8 0 18 -4
21 -10z m389 -51 c30 -43 46 -112 27 -123 -7 -4 -11 1 -11 12 0 13 -25 39 -70
73 -39 30 -65 56 -59 58 6 2 16 -2 22 -8 16 -16 24 -14 30 9 8 31 29 24 61
-21z m-2164 12 c0 -12 -20 -25 -27 -18 -7 7 6 27 18 27 5 0 9 -4 9 -9z m1971
-1 c6 0 7 -4 4 -10 -3 -5 -20 -10 -37 -10 -26 0 -29 2 -18 15 7 9 20 13 27 10
8 -3 19 -5 24 -5z m-4061 -24 c5 -13 13 -25 19 -27 11 -4 3 -59 -9 -59 -4 0
-10 13 -13 30 -5 24 -11 29 -29 27 -29 -3 -39 39 -11 46 32 8 33 7 43 -17z
m3720 -6 c0 -16 -4 -30 -10 -30 -5 0 -10 14 -10 30 0 17 5 30 10 30 6 0 10
-13 10 -30z m-2480 -32 c0 -4 -9 -8 -20 -8 -13 0 -18 -5 -14 -15 4 -8 2 -15
-4 -15 -6 0 -12 4 -14 10 -2 6 -32 6 -88 0 -156 -19 -206 -22 -190 -12 8 5 61
15 118 22 56 7 102 15 102 19 0 3 25 6 55 7 30 1 55 -3 55 -8z m454 -25 c5
-11 1 -22 -10 -30 -26 -19 -40 -16 -40 10 0 36 38 52 50 20z m2319 3 c19 -14
23 -36 7 -36 -5 0 -10 7 -10 15 0 10 -10 15 -29 15 -17 0 -33 5 -36 10 -9 15
47 12 68 -4z m-4022 -27 c5 -11 7 -19 4 -19 -8 0 -45 34 -45 42 0 13 30 -4 41
-23z m4383 2 c-2 -3 -12 3 -22 13 -16 17 -16 18 5 5 12 -7 20 -15 17 -18z
m-4334 -37 c0 -8 -4 -12 -10 -9 -5 3 -10 13 -10 21 0 8 5 12 10 9 6 -3 10 -13
10 -21z m4250 -50 c0 -30 33 -56 140 -109 52 -26 98 -53 102 -59 14 -21 8 -29
-9 -14 -10 9 -64 39 -120 67 -56 28 -105 56 -108 62 -6 8 -10 7 -16 -2 -13
-21 -16 -8 -11 50 3 36 7 49 13 40 5 -8 9 -23 9 -35z m-4457 -1 c-4 -9 -17
-11 -47 -7 -64 10 -80 26 -18 18 46 -5 52 -4 52 13 0 14 2 15 9 4 5 -8 7 -20
4 -28z m4009 5 c-7 -7 -12 -8 -12 -2 0 14 12 26 19 19 2 -3 -1 -11 -7 -17z
m-3832 -13 c0 -8 -4 -15 -10 -15 -5 0 -7 7 -4 15 4 8 8 15 10 15 2 0 4 -7 4
-15z m-95 -5 c26 -7 22 -8 -22 -9 -30 0 -53 3 -53 9 0 11 31 11 75 0z m4195 0
c0 -5 -4 -10 -10 -10 -5 0 -10 5 -10 10 0 6 5 10 10 10 6 0 10 -4 10 -10z
m-4589 -46 c11 -35 18 -44 36 -44 13 0 23 -4 23 -10 0 -12 -57 -13 -64 -1 -3
5 -26 12 -51 15 l-45 7 14 27 c7 15 12 32 10 37 -2 6 11 11 30 12 32 1 35 -1
47 -43z m2595 19 c-10 -10 -19 5 -10 18 6 11 8 11 12 0 2 -7 1 -15 -2 -18z
m1520 9 c11 -7 28 -62 20 -62 -9 0 -56 51 -56 60 0 12 20 13 36 2z m156 -44
c-7 -7 -12 -8 -12 -2 0 14 12 26 19 19 2 -3 -1 -11 -7 -17z m-3839 -5 c-3 -10
-12 -26 -18 -35 -11 -16 -13 -16 -24 8 -14 31 -7 44 24 44 19 0 23 -4 18 -17z
m4084 6 c14 -14 6 -39 -12 -39 -7 0 -19 -10 -28 -23 -14 -21 -12 -25 18 -56
33 -33 37 -61 9 -61 -8 0 -14 -4 -14 -10 0 -14 13 -13 28 2 6 6 15 9 19 5 3
-4 -2 -14 -13 -23 -18 -14 -18 -15 6 -8 22 6 23 5 11 -10 -17 -20 -30 -20 -53
1 -21 19 -24 49 -5 57 8 4 7 5 -3 5 -23 -2 -60 12 -60 22 0 9 10 12 45 11 15
-1 16 0 3 4 -26 8 -30 34 -8 64 11 15 20 38 20 49 0 23 19 28 37 10z m513 -17
c0 -5 -7 -17 -16 -28 -13 -16 -15 -16 -10 -1 4 13 0 17 -17 17 -17 0 -19 -2
-7 -10 8 -5 11 -12 8 -15 -11 -11 -28 5 -28 26 0 15 7 19 35 19 19 0 35 -4 35
-8z m-1720 -31 c0 -5 3 -16 6 -25 10 -25 -12 -19 -30 9 -16 24 -16 25 4 25 11
0 20 -4 20 -9z m-2830 -10 c0 -6 -4 -13 -10 -16 -5 -3 -10 1 -10 9 0 9 5 16
10 16 6 0 10 -4 10 -9z m1736 -88 l-15 -28 -1 27 c0 15 5 39 12 55 l12 28 4
-27 c2 -15 -4 -40 -12 -55z m444 55 c0 17 55 15 70 -3 11 -13 10 -14 -6 -9
-10 4 -3 -4 16 -17 23 -16 36 -34 38 -52 3 -24 1 -26 -25 -23 -15 2 -22 1 -15
-1 8 -3 12 -16 10 -31 -3 -26 -6 -27 -50 -24 -45 3 -48 1 -48 -21 0 -23 3 -24
48 -20 26 3 57 12 70 19 19 12 22 12 22 1 0 -15 -53 -32 -134 -42 -27 -4 -55
-9 -62 -12 -10 -4 -14 4 -14 31 0 26 4 36 16 36 15 0 15 2 0 25 -21 31 -20 32
8 39 25 6 36 30 36 86 0 26 3 31 10 20 6 -10 10 -11 10 -2z m1765 -8 c-3 -5
-11 -10 -16 -10 -6 0 -7 5 -4 10 3 6 11 10 16 10 6 0 7 -4 4 -10z m175 -15
c13 -14 20 -28 17 -32 -8 -7 -57 35 -57 49 0 15 16 8 40 -17z m526 9 c-3 -9
-6 -20 -6 -25 0 -5 -4 -9 -10 -9 -8 0 -8 23 -1 48 1 1 6 2 12 2 6 0 8 -7 5
-16z m-4656 -14 c0 -5 -5 -10 -11 -10 -5 0 -7 5 -4 10 3 6 8 10 11 10 2 0 4
-4 4 -10z m100 -10 c0 -5 -5 -10 -11 -10 -5 0 -7 5 -4 10 3 6 8 10 11 10 2 0
4 -4 4 -10z m185 -40 c-3 -5 -13 -10 -21 -10 -8 0 -12 5 -9 10 3 6 13 10 21
10 8 0 12 -4 9 -10z m1412 -35 c-2 -6 -33 -8 -74 -7 -48 3 -82 -1 -105 -11
-48 -22 -86 -29 -93 -17 -3 5 1 10 10 10 10 0 31 6 48 14 46 21 64 24 144 22
43 0 72 -5 70 -11z m2853 -41 c0 -22 27 -16 33 6 3 13 10 18 21 14 9 -3 16
-11 16 -16 0 -6 -7 -8 -15 -4 -8 3 -15 2 -15 -3 0 -5 10 -11 23 -15 22 -6 22
-6 -8 -30 -16 -13 -27 -27 -24 -31 4 -3 21 6 38 21 18 14 35 23 39 20 3 -4 0
-11 -8 -16 -8 -5 -15 -15 -15 -21 0 -6 -10 -18 -22 -26 -13 -9 -23 -11 -23 -6
0 6 -11 8 -25 5 -19 -3 -26 -12 -31 -38 -8 -41 -17 -42 -49 -8 -32 34 -31 39
4 53 15 7 34 24 40 38 12 26 6 63 -10 63 -5 0 -9 4 -9 9 0 5 9 7 20 4 11 -3
20 -12 20 -19z m-2166 -20 c10 -25 7 -33 -15 -45 -13 -7 -19 -7 -15 -1 4 6 -2
15 -11 21 -17 9 -17 11 2 25 26 20 31 20 39 0z m388 -50 c-7 -34 -11 -39 -33
-36 -13 2 -28 10 -32 18 -12 20 -21 18 -56 -15 -26 -25 -31 -26 -31 -11 0 11
8 24 18 29 15 9 15 10 1 11 -9 0 -22 -7 -29 -15 -7 -8 -24 -15 -39 -14 -26 1
-26 1 6 15 17 7 35 20 40 27 13 22 72 30 80 11 7 -19 54 -10 66 13 14 24 18 9
9 -33z m98 26 c0 -5 -5 -10 -11 -10 -5 0 -7 5 -4 10 3 6 8 10 11 10 2 0 4 -4
4 -10z m1465 -10 c-3 -5 -13 -10 -21 -10 -8 0 -12 5 -9 10 3 6 13 10 21 10 8
0 12 -4 9 -10z m-1480 -40 c3 -5 1 -10 -4 -10 -6 0 -11 5 -11 10 0 6 2 10 4
10 3 0 8 -4 11 -10z m302 -58 c24 6 143 -79 143 -102 0 -16 -10 -12 -42 15
-16 14 -36 25 -44 25 -8 0 -14 6 -14 14 0 7 -10 17 -22 21 -13 4 -25 8 -28 10
-3 1 -13 5 -22 9 -10 5 -18 12 -18 17 0 6 8 5 20 -1 10 -6 23 -9 27 -8z m-333
-16 c6 -25 43 -41 60 -27 6 5 31 12 56 15 38 6 42 5 29 -6 -22 -18 -8 -55 26
-68 14 -5 25 -12 25 -16 0 -6 -33 0 -63 12 -19 7 -31 -24 -16 -42 6 -8 8 -22
4 -31 -6 -16 -8 -16 -26 6 -20 25 -26 46 -9 36 6 -3 10 -1 10 4 0 15 -13 14
-28 -1 -10 -10 -18 -6 -37 16 -14 16 -25 37 -25 46 0 9 -4 20 -9 26 -14 15
-23 54 -13 54 6 0 13 -11 16 -24z m186 -25 c0 -12 -20 -25 -27 -18 -7 7 6 27
18 27 5 0 9 -4 9 -9z m1389 -8 c-1 -12 -69 -66 -75 -60 -3 3 9 19 28 36 33 30
49 38 47 24z m-1419 -105 c0 -13 -23 -5 -28 10 -2 7 2 10 12 6 9 -3 16 -11 16
-16z m358 -22 c17 4 32 1 36 -5 4 -6 1 -11 -6 -11 -10 0 -10 -2 1 -9 9 -6 10
-11 2 -15 -6 -4 -36 4 -65 17 -30 14 -56 23 -59 21 -2 -3 -7 4 -10 15 -5 20
-5 20 33 1 26 -13 49 -18 68 -14z m316 -58 c-19 -60 -30 -71 -55 -57 -26 13
-26 13 -45 -38 -19 -50 -41 -80 -51 -69 -3 3 0 12 6 20 7 8 10 20 6 26 -10 16
-45 12 -45 -6 0 -8 -5 -12 -11 -9 -6 4 -8 13 -5 21 3 8 -1 14 -9 14 -8 0 -15
5 -15 10 0 9 20 8 73 -7 22 -6 34 22 17 42 -6 7 -33 21 -60 30 -27 9 -54 23
-62 32 -11 14 -11 16 2 11 83 -32 108 -43 123 -57 17 -14 20 -14 32 2 11 15
17 16 34 8 32 -18 38 -14 51 37 16 57 22 70 28 54 2 -7 -4 -36 -14 -64z m-744
32 c26 0 33 -15 13 -31 -13 -11 -17 -12 -21 -1 -3 10 -9 9 -29 -3 -23 -15 -26
-15 -39 2 -18 24 -18 39 1 23 12 -10 15 -9 15 8 0 24 22 35 33 16 4 -8 17 -14
27 -14z m333 -19 c9 -21 15 -45 12 -53 -7 -17 -73 -40 -80 -28 -3 5 9 11 26
15 40 9 46 27 20 70 -24 42 -25 46 -8 39 6 -2 20 -22 30 -43z m-233 19 c0 -5
-4 -10 -10 -10 -5 0 -10 5 -10 10 0 6 5 10 10 10 6 0 10 -4 10 -10z m-24 -42
l29 -33 -32 29 c-31 28 -38 36 -30 36 2 0 16 -15 33 -32z m1224 2 c0 -5 -2
-10 -4 -10 -3 0 -8 5 -11 10 -3 6 -1 10 4 10 6 0 11 -4 11 -10z m-2758 -83
c-4 -42 -6 -47 -24 -41 -12 3 -27 -1 -38 -11 -25 -22 -96 -5 -105 26 -10 30 9
39 83 39 l62 0 0 32 c0 28 2 30 13 18 9 -10 12 -31 9 -63z m2228 59 c0 -3 -4
-8 -10 -11 -5 -3 -10 -1 -10 4 0 6 5 11 10 11 6 0 10 -2 10 -4z m-520 -46 c0
-5 -6 -10 -14 -10 -8 0 -21 -3 -30 -6 -9 -3 -16 -1 -16 4 0 10 19 18 48 21 6
0 12 -3 12 -9z m-740 -128 c0 -4 -5 -13 -11 -19 -9 -9 -3 -29 20 -78 17 -37
31 -78 31 -91 0 -28 8 -29 69 -10 44 13 46 15 85 104 21 51 43 92 48 92 8 0 5
-9 -48 -132 l-29 -67 -62 -15 c-83 -21 -86 -21 -80 11 3 17 -7 52 -29 100 -28
62 -31 77 -21 94 12 19 27 26 27 11z m2070 -11 c0 -11 -9 -23 -21 -26 -31 -10
-35 2 -8 24 30 25 29 25 29 2z m10 -76 c0 -27 -4 -35 -17 -35 -15 0 -16 2 -3
10 8 5 10 10 3 10 -8 0 -8 6 0 25 16 32 17 32 17 -10z m-60 -54 c0 -5 -7 -16
-15 -24 -10 -10 -12 -26 -8 -51 3 -20 2 -36 -1 -36 -15 0 -36 29 -36 49 0 11
-8 21 -17 23 -13 3 -7 10 22 26 45 24 55 26 55 13z m70 -26 c0 -8 -7 -15 -16
-15 -14 0 -14 3 -4 15 7 8 14 15 16 15 2 0 4 -7 4 -15z m-1736 -183 c-7 -35
-34 -46 -63 -25 -23 15 -29 48 -8 40 7 -3 26 1 42 8 17 7 31 11 33 10 1 -1 -1
-16 -4 -33z m1676 -2 c0 -5 -4 -10 -9 -10 -6 0 -13 5 -16 10 -3 6 1 10 9 10 9
0 16 -4 16 -10z m120 -67 c0 -16 3 -37 6 -48 4 -17 -5 -25 -50 -48 -31 -15
-56 -31 -56 -36 0 -5 -9 -13 -20 -16 -11 -3 -20 -12 -20 -19 0 -8 -10 -20 -21
-28 -21 -13 -21 -15 -5 -61 18 -53 22 -152 6 -142 -5 3 -10 31 -10 62 0 45 -7
71 -36 126 -23 45 -31 68 -21 64 20 -8 87 40 87 62 0 11 6 21 13 24 10 4 13
-2 9 -19 -3 -18 0 -24 13 -24 13 0 16 6 12 26 -4 20 4 33 37 65 22 21 44 39
49 39 4 0 7 -12 7 -27z m-226 -70 c-2 -27 -3 -51 -4 -55 0 -5 -4 -8 -10 -8
-11 0 -13 52 -4 88 11 39 22 24 18 -25z m-429 -42 c-6 -4 -44 -14 -86 -21 -74
-12 -76 -13 -103 -57 -37 -57 -47 -48 -12 11 16 27 36 48 49 51 120 26 167 31
152 16z m332 -78 c-2 -16 -4 -5 -4 22 0 28 2 40 4 28 2 -13 2 -35 0 -50z
m-1617 -253 c14 -33 32 -62 41 -65 9 -3 28 -18 42 -34 14 -16 29 -30 34 -32
22 -10 61 -90 68 -138 7 -54 7 -54 -31 -86 -34 -29 -37 -35 -25 -49 12 -14 11
-19 -1 -34 -25 -28 -11 -42 40 -42 l47 -1 -26 -22 c-29 -24 -28 -47 2 -47 10
0 19 -4 19 -10 0 -20 -38 -9 -55 16 -16 24 -16 26 2 40 17 12 15 13 -14 14
-41 0 -59 27 -36 53 13 13 14 20 5 29 -19 19 -14 31 27 61 37 28 38 29 30 77
-4 27 -16 61 -25 77 -22 34 -102 113 -116 113 -5 0 -22 29 -39 65 -31 70 -33
75 -21 75 4 0 18 -27 32 -60z m1924 -65 c13 -19 15 -39 10 -94 -7 -68 -17
-101 -29 -90 -3 4 -2 17 3 30 11 32 4 59 -16 59 -9 0 -37 -14 -62 -30 -48 -32
-65 -36 -75 -20 -4 6 19 22 52 37 65 30 63 30 98 32 22 1 25 4 19 29 -9 38
-23 52 -50 52 -28 0 -29 -3 -8 -35 9 -14 12 -25 6 -25 -12 0 -24 16 -40 53
l-12 27 44 0 c35 0 47 -5 60 -25z m-5524 -29 c0 -2 -8 -10 -17 -17 -16 -13
-17 -12 -4 4 13 16 21 21 21 13z m5844 -308 c7 -35 0 -51 -10 -22 -4 10 -16
27 -28 36 l-21 18 26 0 c22 0 28 -6 33 -32z m-517 -227 c15 -12 20 -25 16 -40
-4 -17 -8 -19 -19 -10 -11 9 -14 8 -14 -2 0 -24 -16 -40 -33 -34 -25 10 -28
34 -7 55 11 11 20 27 20 35 0 20 10 19 37 -4z m-871 -20 c8 -11 9 -21 1 -36
-5 -11 -13 -27 -17 -35 -11 -21 -48 -14 -69 12 -18 21 -17 23 12 54 32 33 52
34 73 5z m1502 -46 c7 -14 12 -36 12 -49 0 -32 20 -87 38 -109 14 -16 14 -19
-1 -34 -19 -20 -35 -10 -18 10 9 11 8 17 -3 26 -7 6 -16 25 -19 41 l-6 29 -43
-15 c-61 -21 -114 -61 -128 -95 -7 -16 -16 -29 -21 -29 -13 0 -11 9 11 45 23
38 80 78 133 95 47 15 52 26 32 73 -17 41 -5 52 13 12z m-2214 -99 c37 -60 42
-65 97 -81 57 -18 59 -19 59 -53 l0 -35 -49 7 c-30 4 -52 2 -56 -4 -3 -5 0
-10 8 -10 8 0 22 -9 32 -20 11 -12 25 -18 36 -15 12 4 22 -2 30 -16 11 -21 13
-21 24 -6 17 24 25 21 25 -8 0 -14 -9 -33 -19 -42 -11 -9 -18 -20 -15 -25 6
-10 -10 -11 -19 -1 -4 3 3 17 15 30 17 18 18 23 6 23 -9 0 -21 7 -28 15 -7 9
-21 13 -31 10 -11 -4 -21 1 -28 14 -6 11 -20 23 -31 26 -13 4 -20 15 -20 31 0
23 2 24 43 18 23 -3 47 -7 53 -9 6 -2 9 6 6 20 -3 19 -15 26 -55 37 -46 12
-53 18 -94 80 -45 71 -48 78 -35 78 4 0 25 -29 46 -64z m1271 -356 c3 -5 -3
-10 -14 -10 -12 0 -21 5 -21 10 0 6 6 10 14 10 8 0 18 -4 21 -10z m-47 -22
c-3 -7 -13 -15 -24 -17 -16 -3 -17 -1 -5 13 16 19 34 21 29 4z m97 2 c3 -5 -1
-10 -9 -10 -8 0 -18 5 -21 10 -3 6 1 10 9 10 8 0 18 -4 21 -10z m-1231 -6 c-7
-3 -10 -13 -7 -24 4 -15 1 -18 -18 -13 -13 4 -18 8 -12 10 7 3 9 11 6 19 -3
10 2 14 18 13 13 0 19 -3 13 -5z m56 -14 c13 -8 13 -10 -2 -10 -9 0 -20 5 -23
10 -8 13 5 13 25 0z m-115 -29 c-3 -6 -14 -11 -23 -11 -15 1 -15 2 2 15 21 16
32 13 21 -4z m1145 9 c0 -5 -6 -10 -14 -10 -8 0 -23 -3 -33 -6 -16 -5 -16 -4
1 10 22 18 46 21 46 6z"/>
<path d="M4105 7220 c3 -5 16 -10 28 -10 18 0 19 2 7 10 -20 13 -43 13 -35 0z"/>
<path d="M5175 7024 c-71 -26 -72 -26 -45 -34 37 -12 100 -11 100 0 0 6 -5 10
-11 10 -6 0 -9 9 -6 20 3 11 4 19 4 19 -1 -1 -20 -8 -42 -15z"/>
<path d="M4498 6982 c-20 -4 -24 -27 -7 -38 6 -3 15 -2 21 4 15 15 5 38 -14
34z"/>
<path d="M4117 6521 c-3 -12 3 -27 15 -37 18 -17 19 -17 16 19 -2 39 -22 50
-31 18z"/>
<path d="M4410 6830 c0 -5 7 -10 15 -10 8 0 15 5 15 10 0 6 -7 10 -15 10 -8 0
-15 -4 -15 -10z"/>
<path d="M1916 6292 c-3 -5 3 -17 14 -27 23 -21 26 -9 6 18 -8 10 -17 14 -20
9z"/>
<path d="M5215 5970 c-3 -5 -1 -10 4 -10 6 0 11 5 11 10 0 6 -2 10 -4 10 -3 0
-8 -4 -11 -10z"/>
<path d="M3340 5983 c0 -9 15 -13 46 -13 55 0 50 16 -6 22 -28 2 -40 0 -40 -9z"/>
<path d="M3963 5895 c-3 -9 -3 -18 0 -21 9 -9 27 6 27 22 0 19 -19 18 -27 -1z"/>
<path d="M4003 5876 c-24 -20 -25 -26 -14 -40 18 -22 26 -20 28 5 1 12 10 30
19 40 24 27 0 23 -33 -5z"/>
<path d="M3746 5847 c3 -10 9 -15 12 -12 3 3 0 11 -7 18 -10 9 -11 8 -5 -6z"/>
<path d="M3730 5450 c0 -5 7 -10 15 -10 8 0 15 5 15 10 0 6 -7 10 -15 10 -8 0
-15 -4 -15 -10z"/>
<path d="M3725 5410 c4 -6 11 -8 16 -5 14 9 11 15 -7 15 -8 0 -12 -5 -9 -10z"/>
<path d="M2870 5320 c-18 -4 -25 -13 -27 -34 -2 -22 1 -25 12 -16 10 9 20 7
39 -5 17 -11 38 -16 58 -12 18 2 53 -2 78 -9 47 -14 61 -11 42 8 -7 7 -12 19
-12 28 0 11 -13 16 -56 17 -31 2 -62 7 -68 11 -19 15 -40 19 -66 12z"/>
<path d="M2790 5312 c-45 -7 -46 -22 -2 -22 23 0 42 4 42 9 0 14 -11 18 -40
13z"/>
<path d="M3253 5310 c-13 -5 -23 -12 -23 -15 0 -9 16 -5 36 10 22 16 19 18
-13 5z"/>
<path d="M4475 6050 c3 -5 16 -10 28 -9 21 0 21 1 2 9 -28 12 -37 12 -30 0z"/>
<path d="M4465 6019 c-4 -6 -4 -13 -1 -16 8 -8 36 5 36 17 0 13 -27 13 -35 -1z"/>
<path d="M4520 6016 c0 -2 7 -6 15 -10 8 -3 15 -1 15 4 0 6 -7 10 -15 10 -8 0
-15 -2 -15 -4z"/>
<path d="M4530 5980 c20 -13 33 -13 25 0 -3 6 -14 10 -23 10 -15 0 -15 -2 -2
-10z"/>
<path d="M1644 6026 c22 -18 56 -21 56 -6 0 6 -9 10 -19 10 -11 0 -28 3 -38 6
-16 5 -16 4 1 -10z"/>
<path d="M1815 5900 c3 -5 8 -10 11 -10 2 0 4 5 4 10 0 6 -5 10 -11 10 -5 0
-7 -4 -4 -10z"/>
<path d="M1535 5784 c-53 -99 -57 -137 -13 -142 19 -2 30 3 38 17 6 12 7 21 3
21 -4 1 -19 10 -32 21 l-24 20 23 24 c13 14 28 25 34 25 6 0 30 20 54 44 44
46 42 56 -13 56 -19 0 -32 -16 -70 -86z"/>
<path d="M1663 5828 c-25 -32 -24 -39 6 -49 26 -9 29 -14 21 -29 -8 -15 -18
-18 -44 -13 -30 5 -34 2 -44 -24 -9 -27 -7 -33 17 -56 23 -21 77 -41 114 -42
5 0 15 17 22 38 12 36 12 40 -8 60 -13 13 -17 22 -9 25 7 2 12 17 12 33 0 22
-8 34 -32 49 -39 23 -43 24 -55 8z"/>
<path d="M2045 5780 c10 -11 22 -17 27 -14 12 8 -11 34 -30 34 -13 0 -12 -3 3
-20z"/>
<path d="M1140 5770 c0 -11 5 -20 10 -20 6 0 10 -4 10 -10 0 -5 -9 -10 -19
-10 -20 0 -37 -28 -24 -41 4 -4 20 -11 36 -14 25 -7 27 -5 28 21 1 16 1 32 0
37 0 4 7 7 17 7 13 1 11 6 -11 25 -34 30 -47 32 -47 5z"/>
<path d="M1630 5772 c0 -6 9 -12 20 -15 11 -3 20 -3 20 -1 0 2 -9 8 -20 14
-11 6 -20 7 -20 2z"/>
<path d="M1930 5766 c0 -2 8 -10 18 -17 15 -13 16 -12 3 4 -13 16 -21 21 -21
13z"/>
<path d="M1545 5739 c-4 -6 1 -17 11 -24 16 -12 21 -12 32 2 6 9 12 20 12 25
0 12 -48 10 -55 -3z"/>
<path d="M1825 5720 c-16 -16 -23 -30 -17 -30 7 0 12 5 12 10 0 6 5 10 11 10
6 0 8 -7 5 -17 -5 -12 2 -9 20 8 14 15 23 32 20 38 -11 17 -20 14 -51 -19z"/>
<path d="M1230 5710 c0 -12 28 -25 36 -17 3 3 -4 10 -15 17 -15 7 -21 7 -21 0z"/>
<path d="M1777 5654 c-4 -4 -7 -18 -7 -31 0 -29 25 -31 40 -3 8 16 8 20 -4 20
-8 0 -16 5 -18 11 -2 5 -7 7 -11 3z"/>
<path d="M2026 5617 c3 -10 9 -15 12 -12 3 3 0 11 -7 18 -10 9 -11 8 -5 -6z"/>
<path d="M1570 5606 c-6 -8 -10 -25 -8 -36 2 -17 18 -27 73 -45 39 -13 73 -20
77 -16 4 3 10 24 13 47 l7 40 -52 12 c-68 16 -95 15 -110 -2z"/>
<path d="M2095 5610 c3 -5 8 -10 11 -10 2 0 4 5 4 10 0 6 -5 10 -11 10 -5 0
-7 -4 -4 -10z"/>
<path d="M1757 5576 c-4 -10 -1 -13 9 -9 15 6 19 23 5 23 -5 0 -11 -7 -14 -14z"/>
<path d="M4787 5944 c-10 -11 3 -24 24 -24 23 0 25 15 3 24 -19 7 -19 7 -27 0z"/>
<path d="M5592 5851 c2 -7 7 -12 11 -12 12 1 9 15 -3 20 -7 2 -11 -2 -8 -8z"/>
<path d="M3441 5774 c13 -16 29 -19 29 -5 0 5 -9 11 -21 14 -16 4 -18 3 -8 -9z"/>
<path d="M3480 5770 c0 -6 7 -10 15 -10 8 0 15 2 15 4 0 2 -7 6 -15 10 -8 3
-15 1 -15 -4z"/>
<path d="M5300 5760 c0 -6 7 -10 15 -10 8 0 15 2 15 4 0 2 -7 6 -15 10 -8 3
-15 1 -15 -4z"/>
<path d="M2985 5670 c3 -5 13 -10 21 -10 8 0 12 5 9 10 -3 6 -13 10 -21 10 -8
0 -12 -4 -9 -10z"/>
<path d="M4060 5509 c0 -5 5 -7 10 -4 6 3 10 8 10 11 0 2 -4 4 -10 4 -5 0 -10
-5 -10 -11z"/>
<path d="M4965 5490 c3 -5 8 -10 11 -10 2 0 4 5 4 10 0 6 -5 10 -11 10 -5 0
-7 -4 -4 -10z"/>
<path d="M3414 5499 c-3 -6 0 -15 7 -20 18 -11 21 -11 39 1 13 9 13 11 0 20
-20 13 -37 13 -46 -1z"/>
<path d="M3490 5490 c0 -5 5 -10 10 -10 6 0 10 5 10 10 0 6 -4 10 -10 10 -5 0
-10 -4 -10 -10z"/>
<path d="M2655 5055 c-19 -15 -26 -27 -20 -32 6 -5 52 -36 103 -71 l92 -63 0
31 c0 18 8 37 20 47 11 10 20 20 20 24 0 12 -79 59 -85 50 -3 -5 -1 -11 5 -13
5 -1 7 -12 4 -24 -7 -26 -67 -33 -62 -8 2 8 7 15 12 14 15 -2 34 44 23 58 -16
21 -79 14 -112 -13z"/>
<path d="M2845 4880 c-7 -11 140 -112 149 -103 13 13 5 21 -37 37 -23 9 -57
29 -75 45 -17 16 -34 26 -37 21z"/>
<path d="M3610 4851 c0 -18 6 -31 16 -35 22 -9 26 -3 19 27 -10 38 -35 43 -35
8z"/>
<path d="M3070 4857 c0 -17 20 -45 37 -51 16 -5 16 -5 2 6 -8 7 -21 22 -27 33
-6 11 -12 16 -12 12z"/>
<path d="M3026 4788 c-20 -33 -19 -35 57 -78 l38 -22 -3 49 c-3 44 -5 48 -31
51 -15 2 -25 7 -22 12 3 4 -1 10 -8 13 -8 3 -21 -8 -31 -25z"/>
<path d="M2877 4799 c-21 -12 -23 -31 -2 -23 8 4 15 1 15 -5 0 -6 -8 -11 -17
-11 -14 0 -11 -6 12 -24 16 -13 33 -22 36 -20 4 2 10 -3 13 -11 8 -23 55 -38
72 -24 9 8 14 8 14 1 0 -6 -4 -14 -10 -17 -39 -24 61 -70 169 -78 58 -4 58 -4
-21 45 -72 46 -80 51 -163 108 -105 73 -98 70 -118 59z m54 -45 c12 -14 11
-16 -5 -13 -11 2 -21 10 -24 17 -5 17 13 15 29 -4z"/>
<path d="M3618 4780 c-5 -18 -2 -60 4 -60 4 0 8 -7 8 -16 0 -10 -6 -14 -14
-11 -10 4 -15 -4 -18 -24 -5 -32 -4 -33 22 -19 21 11 84 109 75 118 -3 3 -12
-3 -20 -14 -14 -18 -14 -18 -15 6 0 19 -5 26 -20 26 -11 0 -21 -3 -22 -6z"/>
<path d="M3298 4725 c-55 -59 -66 -92 -40 -132 l14 -23 -86 0 -86 0 0 -40 c0
-22 5 -40 11 -40 6 0 41 9 77 19 37 11 84 22 105 26 20 3 37 10 37 15 0 14
127 13 135 -1 10 -16 5 -17 -59 -9 -41 4 -59 3 -63 -6 -2 -6 -25 -15 -50 -19
-58 -8 -73 -14 -73 -29 0 -6 -7 -20 -16 -31 -11 -15 -17 -17 -23 -7 -6 10 -10
10 -21 -3 -17 -20 -27 -19 -35 5 -19 59 -34 -47 -16 -110 8 -27 19 -29 84 -16
33 6 37 5 37 -13 0 -11 9 -22 20 -26 18 -6 29 -25 14 -25 -16 0 -44 23 -44 35
0 16 -19 18 -60 6 -23 -6 -19 -10 47 -49 39 -23 78 -44 85 -47 14 -5 98 94 98
115 0 6 6 10 13 7 6 -2 23 0 37 6 14 5 43 13 65 17 22 4 48 11 59 15 14 6 18
5 14 -6 -2 -7 -24 -19 -49 -25 -33 -8 -40 -13 -27 -19 10 -4 15 -11 12 -16 -3
-5 -15 -2 -28 6 -18 12 -29 13 -52 4 -30 -11 -120 -114 -106 -122 6 -4 151
-40 208 -52 18 -4 22 5 42 103 12 59 22 130 24 157 2 48 1 50 -24 50 -19 -1
-26 4 -25 17 1 10 4 18 8 18 4 0 14 3 22 6 9 3 17 0 20 -8 2 -7 3 0 1 16 -2
16 -4 41 -4 57 0 16 -4 29 -10 29 -5 0 -10 -16 -10 -35 0 -19 -3 -35 -7 -35
-23 0 -83 22 -83 30 0 12 -2 12 37 1 27 -8 32 -6 37 12 12 46 7 57 -24 57 -17
0 -30 -5 -30 -12 0 -7 -5 -5 -11 5 -5 9 -15 17 -22 17 -11 0 -77 102 -93 143
-11 29 -31 20 -86 -38z m127 -265 c-3 -5 -24 -10 -46 -10 -24 0 -38 4 -34 10
3 6 24 10 46 10 24 0 38 -4 34 -10z m90 -10 c3 -5 -1 -10 -9 -10 -9 0 -16 5
-16 10 0 6 4 10 9 10 6 0 13 -4 16 -10z m-25 -45 c0 -12 -69 -40 -77 -31 -3 3
6 11 21 17 14 7 28 21 32 32 5 16 8 17 15 6 5 -8 9 -19 9 -24z m-10 -35 c0 -5
-4 -10 -10 -10 -5 0 -10 5 -10 10 0 6 5 10 10 10 6 0 10 -4 10 -10z"/>
<path d="M3687 4705 c-26 -46 -34 -75 -20 -75 3 0 26 11 50 25 45 27 46 31 10
79 -13 18 -15 16 -40 -29z"/>
<path d="M2875 4705 c22 -19 42 -35 46 -35 3 0 13 -23 23 -50 10 -28 21 -52
25 -54 4 -3 29 1 57 8 47 13 48 14 24 23 -14 6 -34 12 -45 14 -11 2 -24 13
-29 24 -9 20 -117 105 -132 105 -5 -1 9 -16 31 -35z"/>
<path d="M2819 4698 c-6 -13 -25 -37 -41 -54 l-29 -31 58 -7 c32 -4 75 -9 95
-13 l37 -5 -12 32 c-7 17 -31 47 -54 66 l-42 35 -12 -23z"/>
<path d="M3801 4693 c-19 -17 -20 -21 -8 -68 14 -53 17 -54 87 -39 21 5 22 7
8 15 -9 5 -24 32 -33 59 -18 55 -23 58 -54 33z"/>
<path d="M3158 4483 c-10 -2 -18 -9 -18 -14 0 -14 16 -11 30 6 7 8 11 14 9 14
-2 -1 -12 -3 -21 -6z"/>
<path d="M3666 4457 c-15 -11 -17 -22 -11 -64 5 -37 12 -52 25 -56 15 -4 19 2
22 34 2 22 0 39 -4 39 -5 0 -8 -4 -8 -10 0 -5 -6 -10 -12 -10 -7 1 -3 9 10 19
24 21 30 61 9 61 -7 0 -21 -6 -31 -13z"/>
<path d="M2815 4450 c3 -5 10 -10 16 -10 5 0 9 5 9 10 0 6 -7 10 -16 10 -8 0
-12 -4 -9 -10z"/>
<path d="M3868 4402 c0 -10 -2 -28 -3 -42 -2 -14 -7 -37 -13 -51 -9 -22 -6
-33 15 -65 14 -22 27 -41 29 -43 2 -2 15 4 28 13 14 9 31 16 39 16 12 0 87 70
87 82 0 3 -12 13 -26 23 -19 12 -29 14 -39 5 -9 -8 -22 -6 -49 6 -29 14 -34
22 -30 39 4 17 0 24 -15 28 -15 4 -21 0 -23 -11z m102 -86 c0 -3 -4 -8 -10
-11 -5 -3 -10 -1 -10 4 0 6 5 11 10 11 6 0 10 -2 10 -4z m-52 -47 c-2 -6 -8
-10 -13 -10 -5 0 -11 4 -13 10 -2 6 4 11 13 11 9 0 15 -5 13 -11z"/>
<path d="M3620 4360 c0 -5 5 -10 10 -10 6 0 10 5 10 10 0 6 -4 10 -10 10 -5 0
-10 -4 -10 -10z"/>
<path d="M3616 4319 c-7 -22 -36 -157 -36 -168 0 -16 130 -14 131 2 5 44 -5
124 -15 132 -7 6 -11 16 -9 23 3 6 -1 12 -9 12 -7 0 -23 3 -35 6 -15 4 -24 1
-27 -7z m24 -15 c0 -8 -5 -12 -10 -9 -6 4 -8 11 -5 16 9 14 15 11 15 -7z"/>
<path d="M3724 4273 c3 -21 6 -57 6 -80 0 -37 3 -43 22 -43 20 0 20 1 5 18
-18 20 -22 42 -9 42 5 0 14 -11 20 -25 13 -29 14 -29 67 -10 42 15 44 21 18
62 -17 25 -17 26 -27 4 -12 -28 -29 -27 -21 2 11 34 11 39 0 43 -6 3 -11 -8
-10 -23 0 -23 -5 -28 -27 -30 -26 -2 -28 1 -28 38 0 22 -5 39 -11 39 -8 0 -10
-13 -5 -37z"/>
<path d="M3950 4199 l-45 -20 45 -39 45 -38 13 45 c13 44 11 74 -5 72 -4 0
-28 -9 -53 -20z"/>
<path d="M3879 4165 c-1 -5 -1 -14 0 -18 2 -13 -31 -20 -38 -8 -4 6 -15 9 -24
6 -13 -6 -14 -11 -3 -43 9 -25 19 -37 32 -37 10 0 30 -5 44 -10 l25 -9 -28 -5
c-28 -6 -28 -7 37 -54 36 -26 79 -66 96 -87 34 -43 69 -51 125 -30 l26 10 -90
104 c-50 58 -105 111 -125 120 -19 9 -44 29 -55 44 -11 15 -21 23 -22 17z"/>
<path d="M2977 3973 c-4 -3 -7 -11 -7 -17 0 -6 5 -5 12 2 6 6 9 14 7 17 -3 3
-9 2 -12 -2z"/>
<path d="M3482 3944 c-13 -6 -35 -23 -50 -37 -15 -14 -39 -29 -55 -32 -19 -5
-44 -31 -84 -89 -32 -44 -80 -106 -109 -136 -39 -43 -55 -69 -67 -116 -10 -33
-17 -63 -17 -66 0 -9 92 -61 107 -61 7 0 15 -7 18 -14 4 -11 14 -13 37 -8 45
10 45 11 14 44 l-27 28 101 104 c93 96 100 107 100 144 0 24 12 66 30 104 22
47 30 76 28 106 -3 39 -4 40 -26 29z m-145 -226 c-3 -8 -6 -5 -6 6 -1 11 2 17
5 13 3 -3 4 -12 1 -19z m93 -18 c0 -5 -7 -10 -15 -10 -8 0 -15 5 -15 10 0 6 7
10 15 10 8 0 15 -4 15 -10z m-100 -131 c0 -5 -10 -9 -22 -9 -12 0 -29 -7 -39
-16 -18 -16 -39 -12 -39 8 0 5 7 8 15 4 8 -3 18 1 22 8 14 24 63 28 63 5z"/>
<path d="M2865 3910 c-3 -5 -1 -10 4 -10 6 0 11 5 11 10 0 6 -2 10 -4 10 -3 0
-8 -4 -11 -10z"/>
<path d="M1626 3855 c-11 -8 -15 -15 -9 -15 6 0 16 7 23 15 16 19 11 19 -14 0z"/>
<path d="M4169 3859 c-8 -5 -32 -9 -53 -9 l-39 0 22 -24 c18 -19 22 -33 19
-57 -4 -26 0 -37 21 -55 14 -13 21 -24 14 -24 -6 0 -15 5 -18 10 -18 29 -20 0
-5 -78 21 -109 39 -138 94 -153 22 -6 55 -21 71 -33 17 -13 46 -31 65 -41 19
-10 30 -20 23 -22 -13 -5 -75 27 -113 57 -14 11 -40 23 -58 26 l-32 7 1 -64
c2 -57 7 -74 50 -149 26 -47 54 -104 61 -127 11 -38 19 -45 71 -68 57 -24 130
-33 154 -17 7 4 17 31 23 60 9 40 16 52 30 52 10 0 22 5 25 10 3 6 10 10 16
10 18 0 9 -16 -20 -33 -25 -14 -30 -27 -45 -104 -10 -49 -20 -98 -23 -110 -4
-18 5 -26 68 -57 40 -20 76 -36 80 -36 4 0 9 11 11 25 5 22 2 25 -22 25 -26 0
-29 4 -41 65 -12 63 -21 76 -34 55 -7 -12 -25 -13 -25 -2 0 4 7 16 15 26 14
18 16 19 34 2 12 -11 21 -37 26 -72 3 -30 10 -54 15 -54 5 0 15 -3 24 -6 10
-4 16 -1 16 7 0 7 11 24 24 38 23 25 24 31 19 110 l-6 84 -62 68 c-55 60 -64
75 -73 126 -13 72 -28 113 -42 113 -6 0 -10 6 -8 14 4 19 -76 111 -122 142
-23 15 -45 41 -53 62 -21 53 -179 213 -198 201z m117 -281 c-3 -13 -6 -31 -6
-40 0 -10 -5 -18 -11 -18 -7 0 -8 11 -4 30 5 23 3 30 -9 30 -9 0 -16 5 -16 10
0 6 12 10 26 10 22 0 25 -3 20 -22z m160 -85 c-11 -11 -17 4 -9 23 7 18 8 18
11 1 2 -10 1 -21 -2 -24z m-56 -184 c0 -5 4 -8 10 -4 5 3 33 7 63 8 53 3 54 2
55 -25 1 -24 -3 -28 -29 -28 -16 0 -29 -5 -29 -12 0 -9 -3 -9 -11 -1 -9 9 -15
8 -25 -2 -16 -16 -50 -9 -58 12 -8 19 3 63 15 63 5 0 9 -5 9 -11z m-54 -93
c-4 -15 -1 -26 7 -29 9 -3 9 -8 -2 -21 -14 -16 -15 -16 -27 5 -12 24 -8 49 10
61 17 12 19 10 12 -16z m174 -126 c0 -5 -6 -10 -12 -10 -10 0 -10 -2 0 -9 11
-7 11 -9 -1 -14 -14 -5 -37 10 -37 24 0 7 18 14 43 18 4 0 7 -3 7 -9z"/>
<path d="M4405 3280 c3 -5 10 -10 16 -10 5 0 9 5 9 10 0 6 -7 10 -16 10 -8 0
-12 -4 -9 -10z"/>
<path d="M4475 3280 c-3 -5 1 -10 9 -10 9 0 16 5 16 10 0 6 -4 10 -9 10 -6 0
-13 -4 -16 -10z"/>
<path d="M4385 3260 c3 -5 8 -10 11 -10 2 0 4 5 4 10 0 6 -5 10 -11 10 -5 0
-7 -4 -4 -10z"/>
<path d="M1585 3791 c-6 -11 9 -23 19 -14 9 9 7 23 -3 23 -6 0 -12 -4 -16 -9z"/>
<path d="M1520 3750 c0 -13 18 -22 24 -11 3 5 -1 11 -9 15 -8 3 -15 1 -15 -4z"/>
<path d="M1570 3737 c-18 -14 -18 -45 -1 -73 11 -17 11 -15 6 11 -5 24 -4 28
6 18 7 -7 22 -13 32 -13 14 0 17 4 12 18 -4 9 -10 25 -12 35 -6 20 -22 21 -43
4z"/>
<path d="M1590 3644 c0 -8 5 -12 10 -9 6 3 10 10 10 16 0 5 -4 9 -10 9 -5 0
-10 -7 -10 -16z"/>
<path d="M3372 3560 c-49 -53 -60 -71 -48 -76 8 -3 19 -3 25 0 5 4 13 1 18 -6
5 -9 9 -3 13 17 5 25 10 30 33 30 18 -1 27 4 27 15 0 8 3 32 6 53 4 20 3 37
-2 37 -5 -1 -38 -32 -72 -70z"/>
<path d="M1583 3601 c-30 -25 -15 -50 20 -34 19 9 24 17 20 32 -6 25 -12 26
-40 2z"/>
<path d="M2500 3518 c-12 -22 -12 -22 6 -6 10 10 15 20 12 24 -4 3 -12 -5 -18
-18z"/>
<path d="M2524 3499 c-4 -7 2 -20 17 -31 13 -11 32 -26 42 -34 9 -7 22 -14 28
-14 5 0 16 -15 24 -33 8 -19 22 -40 31 -48 9 -8 23 -29 31 -46 7 -18 18 -33
23 -33 16 0 12 13 -25 74 -19 32 -40 76 -47 97 -6 21 -17 39 -25 39 -8 0 -13
8 -11 18 2 13 -5 18 -39 20 -24 2 -44 -2 -49 -9z"/>
<path d="M3578 3503 c7 -3 16 -2 19 1 4 3 -2 6 -13 5 -11 0 -14 -3 -6 -6z"/>
<path d="M2705 3491 c-6 -11 9 -23 19 -14 9 9 7 23 -3 23 -6 0 -12 -4 -16 -9z"/>
<path d="M3428 3494 c-5 -4 -8 -19 -8 -34 0 -40 -66 -100 -111 -100 -35 0 -69
-24 -69 -48 0 -6 -12 -10 -28 -10 -15 1 -37 -2 -48 -6 -15 -5 -24 -2 -28 10
-9 24 -1 28 44 26 30 -2 42 2 47 14 10 27 -18 34 -56 13 -80 -42 -96 -74 -70
-146 8 -25 24 -37 82 -62 40 -18 83 -40 96 -50 24 -19 25 -19 41 3 10 11 30
59 45 106 15 47 34 93 42 102 10 11 13 26 9 44 -6 22 -4 25 9 20 9 -3 27 -9
40 -12 18 -4 22 -12 21 -41 -1 -35 0 -37 66 -64 110 -45 108 -45 108 -10 0 17
5 31 10 31 6 0 10 -16 10 -35 0 -19 5 -35 11 -35 17 0 129 62 129 71 0 5 -10
9 -21 9 -19 0 -20 4 -15 36 7 32 4 38 -35 74 -24 22 -45 38 -47 35 -2 -2 -19
7 -38 20 -21 15 -57 26 -92 30 -31 3 -69 9 -84 11 -24 5 -28 2 -28 -18 0 -13
-4 -34 -8 -48 -6 -21 -8 -17 -12 23 -3 27 -8 45 -12 41z m-128 -264 c0 -5 -13
-10 -30 -10 -16 0 -30 5 -30 10 0 6 14 10 30 10 17 0 30 -4 30 -10z"/>
<path d="M2470 3471 c-12 -23 2 -29 28 -12 10 6 10 10 -2 20 -12 10 -17 8 -26
-8z"/>
<path d="M3280 3461 c0 -5 6 -14 14 -20 16 -13 66 -5 66 11 0 5 -9 6 -20 3
-11 -4 -20 -2 -20 4 0 6 -9 11 -20 11 -11 0 -20 -4 -20 -9z"/>
<path d="M2033 3422 c-55 -40 -109 -99 -99 -109 11 -11 142 47 169 75 l27 28
-22 21 -23 21 -52 -36z"/>
<path d="M2664 3433 c7 -30 43 -66 59 -60 20 6 18 24 -4 30 -17 5 -20 11 -15
31 6 23 3 26 -20 26 -23 0 -25 -3 -20 -27z"/>
<path d="M3080 3391 c0 -66 12 -77 45 -41 10 11 26 22 36 25 29 9 23 17 -31
48 l-50 28 0 -60z"/>
<path d="M3310 3410 c0 -13 11 -13 30 0 12 8 11 10 -7 10 -13 0 -23 -4 -23
-10z"/>
<path d="M2106 3371 c-16 -16 -55 -39 -87 -51 -33 -13 -61 -26 -64 -30 -2 -4
22 -38 54 -76 32 -38 69 -93 82 -121 18 -41 29 -53 46 -53 13 0 23 4 23 9 0 6
16 7 35 4 19 -3 35 -1 35 4 0 18 -59 278 -70 311 -7 17 -15 32 -19 32 -4 0
-20 -13 -35 -29z m94 -210 c0 -11 3 -26 6 -35 3 -9 1 -16 -5 -16 -6 0 -11 9
-11 21 0 18 -4 20 -30 14 -37 -8 -38 0 -2 19 36 20 42 20 42 -3z"/>
<path d="M2195 3370 c-3 -5 1 -10 10 -10 9 0 13 5 10 10 -3 6 -8 10 -10 10 -2
0 -7 -4 -10 -10z"/>
<path d="M2640 3330 c0 -5 5 -10 11 -10 5 0 7 5 4 10 -3 6 -8 10 -11 10 -2 0
-4 -4 -4 -10z"/>
<path d="M2727 3334 c-11 -11 16 -54 34 -54 28 0 31 17 7 39 -23 22 -31 25
-41 15z"/>
<path d="M3416 3288 c-8 -13 -16 -30 -17 -38 -3 -15 7 -77 17 -112 3 -10 1
-18 -5 -18 -5 0 -13 16 -17 35 -7 42 -18 38 -35 -13 -6 -20 -19 -46 -29 -57
-9 -11 -29 -41 -44 -67 l-27 -48 71 0 c38 0 73 0 77 -1 5 0 11 14 14 30 4 20
2 31 -5 31 -6 0 0 11 14 23 23 20 25 30 26 102 1 45 6 90 11 100 9 16 6 23
-13 38 -23 17 -24 17 -38 -5z"/>
<path d="M2673 3276 c7 -14 13 -23 15 -21 7 6 -9 45 -18 45 -4 0 -3 -11 3 -24z"/>
<path d="M3012 3275 c-30 -14 -61 -25 -70 -25 -12 0 -13 -3 -4 -12 8 -8 15 -8
27 2 14 11 21 11 44 -3 27 -16 29 -15 45 2 10 11 16 29 14 40 -3 21 -3 21 -56
-4z"/>
<path d="M1926 3265 c4 -8 2 -15 -4 -15 -6 0 -12 5 -14 12 -3 9 -12 9 -36 -1
-18 -7 -32 -17 -32 -22 0 -4 -8 -7 -17 -7 -25 2 -123 -32 -123 -42 0 -12 50
-50 67 -50 8 0 12 -4 9 -9 -3 -5 2 -15 11 -22 13 -11 17 -11 20 -1 3 6 11 12
19 12 8 0 14 8 15 18 0 9 5 2 10 -16 6 -18 17 -36 26 -39 13 -5 12 -9 -7 -23
l-23 -17 36 -39 c34 -37 36 -38 54 -22 23 21 96 48 132 48 19 0 22 3 12 9 -7
5 -10 14 -6 20 11 18 -14 71 -31 64 -8 -3 -15 1 -16 8 0 8 -2 19 -2 25 -2 14
-88 123 -98 124 -4 0 -5 -7 -2 -15z m-6 -85 c0 -5 -4 -10 -10 -10 -5 0 -10 5
-10 10 0 6 5 10 10 10 6 0 10 -4 10 -10z m70 -25 c0 -8 -7 -15 -16 -15 -8 0
-13 4 -10 9 4 5 0 12 -6 14 -7 3 -3 6 10 6 13 1 22 -5 22 -14z m70 -61 c0 -11
-28 -33 -34 -27 -13 13 -5 33 14 33 11 0 20 -3 20 -6z m-66 -40 c9 -22 8 -24
-9 -24 -8 0 -15 9 -15 20 0 24 15 27 24 4z"/>
<path d="M3777 3230 c-36 -22 -75 -40 -86 -40 -12 0 -21 -7 -21 -15 0 -8 -7
-15 -15 -15 -8 0 -15 -4 -15 -10 0 -5 9 -10 20 -10 11 0 30 -10 41 -21 21 -21
25 -22 131 -10 60 6 122 14 139 18 26 5 27 7 13 18 -13 9 -16 22 -12 52 l6 41
-57 16 c-32 9 -62 16 -67 16 -6 0 -40 -18 -77 -40z"/>
<path d="M2855 3218 c-16 -6 -40 -19 -52 -30 -12 -11 -26 -17 -32 -13 -7 4
-11 -4 -11 -20 0 -25 3 -27 28 -21 33 8 135 70 140 85 5 14 -33 13 -73 -1z"/>
<path d="M2970 3221 c0 -16 27 -31 44 -25 15 6 15 8 -1 20 -21 15 -43 18 -43
5z"/>
<path d="M3641 3184 c0 -11 3 -14 6 -6 3 7 2 16 -1 19 -3 4 -6 -2 -5 -13z"/>
<path d="M2923 3179 c1 -6 -4 -14 -12 -17 -10 -3 -11 0 -5 9 6 11 3 10 -11 -1
-17 -14 -17 -15 13 -18 39 -4 81 16 61 29 -20 12 -49 11 -46 -2z"/>
<path d="M4785 3154 c-22 -7 -40 -14 -40 -14 0 0 1 -20 3 -44 3 -33 7 -43 18
-39 8 3 14 0 14 -6 0 -6 -4 -11 -10 -11 -15 0 -12 -36 5 -50 8 -7 22 -10 30
-6 20 7 19 -4 -2 -19 -14 -11 -11 -15 31 -40 27 -16 51 -24 56 -19 58 63 91
112 108 163 l21 61 -64 -1 c-48 -1 -72 4 -97 19 -30 19 -36 19 -73 6z m153
-64 c10 -17 10 -20 -3 -20 -8 0 -15 5 -15 11 0 5 -4 7 -10 4 -5 -3 -10 1 -10
9 0 22 23 20 38 -4z m-68 -130 c8 -5 11 -12 8 -16 -10 -9 -38 3 -38 16 0 12
10 13 30 0z"/>
<path d="M4016 3137 c3 -10 9 -15 12 -12 3 3 0 11 -7 18 -10 9 -11 8 -5 -6z"/>
<path d="M2810 3127 c-19 -6 -41 -17 -49 -25 -10 -9 -17 -10 -24 -3 -19 19
-61 12 -73 -12 -6 -12 -21 -40 -34 -62 l-24 -40 25 21 c31 27 134 88 182 107
20 9 37 18 37 21 0 4 -1 6 -2 5 -2 -1 -19 -6 -38 -12z"/>
<path d="M3649 3118 c-11 -8 -10 -9 4 -4 9 3 17 1 17 -4 0 -6 5 -10 10 -10 6
0 10 4 10 9 0 14 -26 20 -41 9z"/>
<path d="M1817 3093 c-9 -9 12 -33 30 -33 11 0 11 4 3 20 -11 21 -22 25 -33
13z"/>
<path d="M2625 3080 c3 -5 8 -10 11 -10 2 0 4 5 4 10 0 6 -5 10 -11 10 -5 0
-7 -4 -4 -10z"/>
<path d="M2604 3038 l-19 -23 23 19 c21 18 27 26 19 26 -2 0 -12 -10 -23 -22z"/>
<path d="M2708 3039 c-31 -16 -38 -25 -37 -47 1 -17 3 -20 6 -9 5 19 12 21 32
8 18 -11 5 -31 -20 -31 -22 0 -24 -11 -7 -28 9 -9 9 -12 0 -12 -10 0 -10 -5
-2 -20 9 -16 7 -24 -5 -36 -20 -21 -29 -12 -29 30 0 27 -3 32 -18 28 -24 -6
-23 13 3 37 12 11 19 25 17 31 -2 6 -29 -17 -60 -52 -32 -35 -73 -79 -93 -99
-19 -19 -35 -38 -35 -42 0 -12 75 6 87 21 8 10 22 13 43 9 17 -4 30 -2 30 4 0
6 7 6 18 1 9 -5 35 -5 60 0 40 9 42 11 42 45 0 20 5 65 11 101 6 36 8 67 3 72
-5 5 -26 0 -46 -11z"/>
<path d="M4300 3039 c0 -38 18 -56 62 -63 24 -4 64 -20 88 -36 24 -16 48 -26
52 -22 4 4 10 26 14 50 l7 42 -52 0 c-35 0 -67 8 -101 25 -60 30 -70 31 -70 4z"/>
<path d="M1797 3033 c-10 -9 -8 -33 2 -33 5 0 11 9 14 20 5 20 -3 26 -16 13z"/>
<path d="M4085 3020 c-10 -11 -13 -20 -7 -20 6 0 16 9 22 20 6 11 9 20 7 20
-2 0 -12 -9 -22 -20z"/>
<path d="M2545 3020 c-3 -5 -1 -10 4 -10 6 0 11 5 11 10 0 6 -2 10 -4 10 -3 0
-8 -4 -11 -10z"/>
<path d="M2045 3005 c-5 -2 -21 -6 -35 -9 -14 -3 -49 -25 -78 -50 -47 -41 -51
-46 -36 -60 18 -18 30 -20 39 -7 3 5 18 8 33 6 15 -2 31 -4 35 -4 5 -1 7 -13
5 -27 -2 -20 3 -29 20 -35 21 -8 27 -2 23 24 0 4 17 7 40 7 38 0 41 2 36 23
-3 12 -11 48 -17 80 -11 57 -23 66 -65 52z"/>
<path d="M4121 3003 c6 -37 -2 -45 -40 -41 -34 3 -41 0 -50 -20 -14 -30 -14
-62 0 -62 6 0 8 -9 4 -21 -4 -12 -4 -46 0 -75 l7 -55 96 3 97 3 -3 35 c-2 19
-12 55 -22 80 -14 35 -20 41 -25 28 -8 -20 -45 -24 -62 -7 -9 9 -9 18 0 36 8
19 17 23 35 20 21 -4 23 -2 17 22 -4 14 -14 34 -22 44 -16 17 -34 23 -32 10z"/>
<path d="M4060 2980 c0 -5 5 -10 11 -10 5 0 7 5 4 10 -3 6 -8 10 -11 10 -2 0
-4 -4 -4 -10z"/>
<path d="M2525 2969 c-11 -17 -2 -18 19 -3 17 12 17 14 4 14 -9 0 -20 -5 -23
-11z"/>
<path d="M4317 2950 c3 -12 14 -20 27 -20 16 0 22 -6 22 -22 0 -13 -4 -26 -9
-29 -5 -4 -6 -12 -3 -18 8 -12 70 30 79 54 6 15 -38 39 -89 48 -28 5 -31 4
-27 -13z"/>
<path d="M2542 2943 c-10 -10 -30 -25 -46 -33 -16 -8 -36 -26 -44 -40 -9 -14
-22 -31 -30 -37 -13 -11 -13 -13 1 -19 19 -7 97 52 97 73 0 8 13 28 29 44 16
16 25 29 20 29 -5 0 -17 -8 -27 -17z"/>
<path d="M4735 2940 c-14 -16 -45 -98 -45 -121 0 -4 10 -11 23 -15 12 -4 25
-11 28 -16 9 -14 83 27 103 57 20 31 19 34 -43 78 -47 34 -50 35 -66 17z"/>
<path d="M5228 2895 c-14 -30 -5 -43 17 -25 14 12 15 10 10 -13 -7 -28 35
-114 49 -100 4 5 7 1 6 -7 -4 -30 0 -39 16 -33 13 5 15 2 10 -14 -4 -13 3 -28
25 -49 30 -28 30 -29 21 -4 -26 65 -45 104 -71 148 -16 26 -32 64 -36 85 -8
43 -30 49 -47 12z"/>
<path d="M4335 2900 c3 -5 8 -10 11 -10 2 0 4 5 4 10 0 6 -5 10 -11 10 -5 0
-7 -4 -4 -10z"/>
<path d="M4447 2903 c-4 -3 1 -12 11 -20 15 -13 15 -14 -9 -9 -17 4 -31 0 -39
-9 -9 -11 -5 -18 24 -37 20 -13 36 -26 36 -30 0 -12 -8 -10 -49 16 -36 23 -40
24 -53 8 -15 -18 -13 -56 3 -47 5 4 9 -3 9 -14 0 -12 5 -21 10 -21 14 0 13
-43 -2 -58 -17 -17 -3 -25 22 -12 12 7 35 10 51 8 23 -4 29 -1 29 15 0 13 5
17 14 14 8 -3 32 1 53 9 37 15 39 18 41 63 2 61 -21 88 -39 47 -13 -29 -36
-37 -24 -8 18 43 16 48 -30 70 -51 25 -49 24 -58 15z"/>
<path d="M4135 2890 c-3 -5 -2 -10 4 -10 5 0 13 5 16 10 3 6 2 10 -4 10 -5 0
-13 -4 -16 -10z"/>
<path d="M5618 2872 c3 -15 11 -35 17 -45 13 -18 13 -18 23 0 6 10 13 15 17
11 9 -9 -18 -49 -31 -44 -5 2 -11 -10 -12 -28 -2 -25 3 -34 25 -47 27 -15 30
-14 66 14 21 16 44 42 52 57 l15 28 -53 17 c-28 10 -68 27 -88 40 l-36 23 5
-26z"/>
<path d="M2396 2874 c-26 -25 -7 -38 20 -13 13 12 24 24 24 26 0 9 -31 1 -44
-13z"/>
<path d="M5160 2837 c-14 -12 -41 -35 -60 -51 l-35 -29 23 -16 c13 -9 52 -40
88 -70 36 -29 67 -51 69 -49 4 4 -50 227 -57 233 -1 2 -14 -6 -28 -18z"/>
<path d="M1965 2840 c3 -5 10 -10 16 -10 5 0 9 5 9 10 0 6 -7 10 -16 10 -8 0
-12 -4 -9 -10z"/>
<path d="M5212 2839 c3 -8 18 -68 34 -133 l29 -119 53 -43 c30 -24 57 -44 62
-44 14 0 18 55 6 85 -7 16 -31 46 -52 65 -23 21 -54 67 -76 112 -20 42 -42 79
-49 84 -8 5 -11 3 -7 -7z"/>
<path d="M4622 2798 c4 -40 21 -46 36 -13 10 21 9 26 -8 35 -28 15 -32 13 -28
-22z"/>
<path d="M1950 2810 c0 -5 7 -10 16 -10 8 0 12 5 9 10 -3 6 -10 10 -16 10 -5
0 -9 -4 -9 -10z"/>
<path d="M4315 2815 c-5 -2 -22 -6 -37 -9 -23 -5 -28 -12 -28 -37 0 -29 1 -30
45 -28 l45 3 0 38 c0 37 -3 40 -25 33z"/>
<path d="M4676 2777 c-7 -27 -6 -27 28 -13 l29 12 -26 11 c-22 10 -26 9 -31
-10z"/>
<path d="M4610 2750 c0 -5 5 -10 11 -10 5 0 7 5 4 10 -3 6 -8 10 -11 10 -2 0
-4 -4 -4 -10z"/>
<path d="M5597 2714 c-4 -4 -7 -14 -7 -23 0 -11 3 -12 11 -4 6 6 10 16 7 23
-2 6 -7 8 -11 4z"/>
<path d="M5637 2703 c-4 -3 -7 -29 -7 -57 l1 -51 25 49 c21 39 23 50 12 57
-16 11 -23 11 -31 2z"/>
<path d="M5280 2491 c0 -20 25 -35 42 -25 5 3 2 14 -8 25 -22 24 -34 24 -34 0z"/>
<path d="M5268 2428 c5 -21 22 -35 22 -19 0 6 7 11 15 11 15 0 22 19 8 21 -5
0 -17 2 -29 3 -16 2 -20 -2 -16 -16z"/>
<path d="M5500 2425 c0 -16 22 -45 31 -40 15 10 11 23 -11 35 -11 6 -20 8 -20
5z"/>
<path d="M5308 2403 c6 -2 18 -2 25 0 6 3 1 5 -13 5 -14 0 -19 -2 -12 -5z"/>
<path d="M5460 2369 c0 -14 5 -19 17 -17 24 4 26 38 2 38 -13 0 -19 -7 -19
-21z"/>
<path d="M5537 2373 c-10 -9 -9 -53 1 -53 15 0 44 38 37 49 -7 12 -28 14 -38
4z"/>
<path d="M5497 2343 c-3 -4 1 -17 9 -28 10 -13 14 -15 14 -4 0 20 -16 43 -23
32z"/>
<path d="M5476 2307 c3 -10 9 -15 12 -12 3 3 0 11 -7 18 -10 9 -11 8 -5 -6z"/>
<path d="M5511 2276 c-15 -18 13 -78 52 -114 l24 -23 21 33 21 32 -28 17 c-15
9 -35 28 -44 43 -20 30 -29 32 -46 12z"/>
<path d="M4860 5193 c1 -25 2 -26 14 -10 16 21 26 22 26 3 0 -8 7 -16 15 -20
10 -3 15 1 15 13 0 12 -11 23 -31 30 -41 14 -39 15 -39 -16z"/>
<path d="M4952 5190 c-13 -35 -7 -40 41 -38 48 2 55 24 14 48 -42 26 -43 25
-55 -10z"/>
<path d="M4845 5142 c-16 -17 -2 -42 28 -50 39 -11 68 7 48 31 -12 15 -67 28
-76 19z"/>
<path d="M5080 5130 c0 -11 5 -20 10 -20 6 0 10 9 10 20 0 11 -4 20 -10 20 -5
0 -10 -9 -10 -20z"/>
<path d="M4004 4746 c-5 -14 43 -86 58 -86 9 0 -6 51 -23 78 -16 26 -27 28
-35 8z"/>
<path d="M717 5023 c-34 -9 2 -33 50 -33 37 0 44 3 41 18 -3 17 -52 26 -91 15z"/>
<path d="M4228 4940 c-18 -9 -35 -26 -36 -36 -3 -14 -1 -16 8 -8 6 7 29 9 53
7 32 -4 48 0 66 14 l24 20 -41 10 c-34 9 -47 8 -74 -7z"/>
<path d="M4186 4869 c-21 -16 -34 -29 -28 -29 7 0 26 13 44 30 42 37 34 37
-16 -1z"/>
<path d="M4125 4880 c3 -5 8 -10 11 -10 2 0 4 5 4 10 0 6 -5 10 -11 10 -5 0
-7 -4 -4 -10z"/>
<path d="M3109 5051 c-13 -11 -19 -20 -13 -21 15 0 50 27 43 34 -3 4 -17 -2
-30 -13z"/>
<path d="M2070 4910 c8 -5 29 -9 45 -9 29 1 29 1 5 9 -14 4 -34 8 -45 9 -16 1
-17 -1 -5 -9z"/>
<path d="M2120 4880 c0 -5 4 -10 9 -10 6 0 13 5 16 10 3 6 -1 10 -9 10 -9 0
-16 -4 -16 -10z"/>
<path d="M1422 4808 c-15 -15 22 -68 48 -68 20 0 37 40 26 59 -3 5 0 12 6 14
7 3 -5 6 -27 6 -23 1 -46 -4 -53 -11z"/>
<path d="M1520 4781 c0 -12 5 -21 10 -21 6 0 10 6 10 14 0 8 -4 18 -10 21 -5
3 -10 -3 -10 -14z"/>
<path d="M1374 4774 c-29 -20 -21 -58 10 -48 42 13 46 18 28 41 -15 19 -19 20
-38 7z"/>
<path d="M1266 4696 c-17 -15 -26 -28 -21 -36 5 -9 2 -10 -13 -6 -12 4 -31 2
-43 -5 -22 -11 -22 -12 -3 -26 13 -11 15 -17 7 -20 -7 -3 -13 -9 -13 -14 0 -6
5 -7 10 -4 6 3 24 -4 41 -16 31 -22 32 -22 45 -4 15 20 3 45 -22 45 -16 0 -19
16 -5 24 5 3 23 -7 40 -23 17 -16 45 -34 62 -40 29 -10 31 -9 44 22 22 53 39
117 32 123 -13 13 -62 -13 -65 -35 -3 -18 -8 -22 -25 -17 -12 3 -28 6 -35 6
-8 0 -10 8 -6 25 8 30 6 30 -30 1z"/>
<path d="M1220 4700 c-8 -5 -12 -12 -9 -15 4 -3 12 1 19 10 14 17 11 19 -10 5z"/>
<path d="M1291 4556 c-9 -11 -9 -20 -2 -35 6 -11 11 -45 11 -75 0 -82 22 -74
53 19 l26 75 -29 15 c-36 19 -44 19 -59 1z"/>
<path d="M1225 4494 c-7 -60 -20 -90 -45 -111 -12 -10 -8 -12 25 -12 58 0 85
26 85 81 0 36 -6 50 -29 72 l-29 27 -7 -57z"/>
<path d="M1196 4510 c-18 -93 -18 -97 -1 -76 8 11 15 39 15 63 0 50 -6 56 -14
13z"/>
<path d="M1115 4450 c3 -5 8 -10 11 -10 2 0 4 5 4 10 0 6 -5 10 -11 10 -5 0
-7 -4 -4 -10z"/>
<path d="M1104 4421 c20 -22 36 -27 36 -13 0 5 -12 14 -27 21 -28 13 -28 13
-9 -8z"/>
<path d="M2280 4602 c0 -16 28 -34 34 -23 4 6 -3 15 -14 21 -11 6 -20 7 -20 2z"/>
<path d="M2230 4540 c0 -5 5 -10 10 -10 6 0 10 5 10 10 0 6 -4 10 -10 10 -5 0
-10 -4 -10 -10z"/>
<path d="M1566 4454 c-8 -21 -8 -24 3 -24 12 0 22 28 12 35 -5 3 -12 -2 -15
-11z"/>
<path d="M1597 4443 c-10 -9 -9 -23 2 -23 5 0 11 7 15 15 5 15 -5 20 -17 8z"/>
<path d="M1860 4385 c-20 -21 -21 -25 -7 -31 30 -11 52 0 55 29 4 35 -16 36
-48 2z"/>
<path d="M4320 4423 c0 -15 38 -34 46 -22 7 13 5 15 -23 23 -13 4 -23 4 -23
-1z"/>
<path d="M2335 4360 c3 -5 18 -10 33 -9 24 0 25 1 7 9 -28 12 -47 12 -40 0z"/>
<path d="M2338 4333 c7 -3 16 -2 19 1 4 3 -2 6 -13 5 -11 0 -14 -3 -6 -6z"/>
<path d="M3075 4190 c-19 -8 -19 -9 3 -9 12 -1 22 4 22 9 0 6 -1 10 -2 9 -2 0
-12 -4 -23 -9z"/>
<path d="M3073 4163 c9 -2 23 -2 30 0 6 3 -1 5 -18 5 -16 0 -22 -2 -12 -5z"/>
<path d="M1420 4014 c0 -8 5 -12 10 -9 6 3 10 10 10 16 0 5 -4 9 -10 9 -5 0
-10 -7 -10 -16z"/>
<path d="M3300 3969 c0 -5 5 -7 10 -4 6 3 10 8 10 11 0 2 -4 4 -10 4 -5 0 -10
-5 -10 -11z"/>
<path d="M3331 3966 c-8 -9 -11 -19 -7 -23 9 -9 29 13 24 27 -2 8 -8 7 -17 -4z"/>
<path d="M2588 3913 c6 -2 18 -2 25 0 6 3 1 5 -13 5 -14 0 -19 -2 -12 -5z"/>
<path d="M3040 3810 c0 -5 5 -10 11 -10 5 0 7 5 4 10 -3 6 -8 10 -11 10 -2 0
-4 -4 -4 -10z"/>
<path d="M5641 3217 c-10 -12 -6 -19 18 -36 39 -28 53 -8 19 26 -21 21 -26 22
-37 10z"/>
<path d="M925 2980 c-3 -5 -1 -10 4 -10 6 0 11 5 11 10 0 6 -2 10 -4 10 -3 0
-8 -4 -11 -10z"/>
<path d="M928 2943 c7 -3 16 -2 19 1 4 3 -2 6 -13 5 -11 0 -14 -3 -6 -6z"/>
<path d="M3627 2810 c3 -11 9 -20 14 -20 5 0 9 9 9 20 0 11 -6 20 -14 20 -9 0
-12 -7 -9 -20z"/>
<path d="M3682 2799 c2 -17 11 -25 27 -27 24 -4 24 -3 9 19 -21 33 -40 37 -36
8z"/>
<path d="M3612 2743 c-1 -18 3 -23 23 -23 13 0 27 -5 30 -10 4 -6 11 -8 16 -5
20 13 7 33 -29 47 -37 15 -38 14 -40 -9z"/>
<path d="M3580 2720 c0 -11 4 -20 9 -20 5 0 7 9 4 20 -3 11 -7 20 -9 20 -2 0
-4 -9 -4 -20z"/>
<path d="M3560 2660 c0 -18 3 -19 20 -10 11 6 20 15 20 20 0 6 -9 10 -20 10
-13 0 -20 -7 -20 -20z"/>
<path d="M5927 2593 c-13 -12 -7 -33 8 -33 8 0 15 9 15 20 0 20 -11 26 -23 13z"/>
<path d="M4085 2640 c4 -6 11 -8 16 -5 14 9 11 15 -7 15 -8 0 -12 -5 -9 -10z"/>
<path d="M4150 2620 c0 -5 7 -7 15 -4 8 4 15 8 15 10 0 2 -7 4 -15 4 -8 0 -15
-4 -15 -10z"/>
<path d="M4325 2500 c-8 -13 5 -13 25 0 13 8 13 10 -2 10 -9 0 -20 -4 -23 -10z"/>
<path d="M4280 2476 c0 -24 17 -28 23 -6 3 13 0 20 -9 20 -8 0 -14 -6 -14 -14z"/>
<path d="M2758 2223 c-40 -6 -35 -30 8 -37 37 -8 64 5 64 30 0 14 -16 15 -72
7z"/>
<path d="M5956 1661 c-9 -10 -14 -25 -10 -34 9 -23 44 1 44 30 0 28 -11 29
-34 4z"/>
<path d="M5854 1565 c-20 -15 -11 -18 20 -6 11 4 15 10 9 14 -5 3 -19 0 -29
-8z"/>
<path d="M5811 1536 c-12 -14 -5 -26 16 -26 15 0 18 26 4 34 -5 3 -14 0 -20
-8z"/>
<path d="M4887 589 c7 -7 15 -10 18 -7 3 3 -2 9 -12 12 -14 6 -15 5 -6 -5z"/>
<path d="M5065 7990 c3 -5 8 -10 11 -10 2 0 4 5 4 10 0 6 -5 10 -11 10 -5 0
-7 -4 -4 -10z"/>
<path d="M5168 7993 c7 -3 16 -2 19 1 4 3 -2 6 -13 5 -11 0 -14 -3 -6 -6z"/>
</g>
</svg>
