<?xml version="1.0" standalone="no"?>
<!DOCTYPE svg PUBLIC "-//W3C//DTD SVG 20010904//EN"
 "http://www.w3.org/TR/2001/REC-SVG-20010904/DTD/svg10.dtd">
<svg version="1.0" xmlns="http://www.w3.org/2000/svg"
 width="800.000000pt" height="800.000000pt" viewBox="0 0 800.000000 800.000000"
 preserveAspectRatio="xMidYMid meet">
<metadata>
Created by potrace 1.16, written by Peter Selinger 2001-2019
</metadata>
<g transform="translate(0.000000,800.000000) scale(0.100000,-0.100000)"
fill="#000000" stroke="none">
<path d="M0 4000 l0 -4000 4000 0 4000 0 0 4000 0 4000 -4000 0 -4000 0 0
-4000z m5236 3825 c-21 -16 -32 -13 -21 4 3 6 14 11 23 11 15 -1 15 -2 -2 -15z
m-41 -44 c-3 -6 -11 -11 -17 -11 -6 0 -6 6 2 15 14 17 26 13 15 -4z m-12 -28
c-7 -2 -13 -16 -13 -29 0 -14 -4 -22 -10 -19 -5 3 -11 1 -11 -4 -1 -6 -2 -16
-3 -23 0 -6 -7 -13 -13 -15 -18 -6 -16 23 3 52 9 13 13 29 9 35 -4 6 5 10 22
9 15 0 22 -3 16 -6z m-2282 -253 c53 0 89 -4 89 -10 0 -5 -4 -10 -10 -10 -5 0
-10 -6 -10 -13 0 -7 -9 -13 -21 -14 -14 -1 -19 3 -15 13 4 11 -7 14 -59 14
l-65 0 0 -45 c0 -25 -4 -45 -10 -45 -5 0 -10 22 -10 49 0 28 -5 53 -11 56 -7
5 -4 14 8 27 l18 20 3 -21 c3 -20 9 -21 93 -21z m140 -10 c30 -17 22 -30 -11
-19 -16 6 -27 15 -24 20 7 11 11 11 35 -1z m-1309 -77 c-51 -2 -132 -2 -180 0
-48 1 -6 3 93 3 99 0 138 -2 87 -3z m1616 0 c-16 -2 -40 -2 -55 0 -16 2 -3 4
27 4 30 0 43 -2 28 -4z m609 -160 c-2 -16 -4 -5 -4 22 0 28 2 40 4 28 2 -13 2
-35 0 -50z m-1116 -100 c13 -16 12 -17 -3 -4 -10 7 -18 15 -18 17 0 8 8 3 21
-13z m1156 -45 c-2 -13 -4 -5 -4 17 -1 22 1 32 4 23 2 -10 2 -28 0 -40z m3961
-55 c-10 -2 -28 -2 -40 0 -13 2 -5 4 17 4 22 1 32 -1 23 -4z m-4644 -29 c9
-24 7 -28 -9 -14 -17 14 -20 30 -6 30 5 0 12 -7 15 -16z m683 -76 c-2 -13 -4
-3 -4 22 0 25 2 35 4 23 2 -13 2 -33 0 -45z m-657 -9 c0 -32 -3 -39 -19 -39
-25 0 -37 18 -22 33 8 8 11 6 11 -8 0 -10 3 -15 7 -12 3 4 6 23 5 42 -1 21 3
33 8 30 6 -3 10 -24 10 -46z m-57 -57 c-2 -8 4 -9 22 -2 16 6 25 6 25 0 0 -6
-3 -10 -7 -11 -16 -1 -38 -7 -55 -14 -10 -4 -18 -3 -18 3 0 6 6 13 13 15 9 4
8 8 -3 17 -13 9 -12 10 5 7 11 -2 19 -8 18 -15z m674 -74 c-2 -13 -4 -3 -4 22
0 25 2 35 4 23 2 -13 2 -33 0 -45z m-2310 -245 c-2 -16 -4 -3 -4 27 0 30 2 43
4 28 2 -16 2 -40 0 -55z m4432 -188 c11 -20 27 -38 36 -41 8 -4 15 -18 15 -34
0 -16 5 -32 10 -35 6 -3 10 -14 10 -23 -1 -13 -6 -10 -21 11 -20 26 -23 27
-45 13 -14 -10 -25 -12 -29 -6 -4 6 10 17 29 25 42 18 43 21 14 46 -30 24 -48
24 -48 -2 0 -11 -4 -17 -10 -14 -14 8 -13 21 3 37 14 15 15 27 4 46 -5 6 -4
12 1 12 6 0 19 -16 31 -35z m-5802 -67 c-2 -13 -4 -3 -4 22 0 25 2 35 4 23 2
-13 2 -33 0 -45z m4866 25 c-35 -2 -91 -2 -125 0 -35 2 -7 3 62 3 69 0 97 -1
63 -3z m874 -48 c-1 -25 -7 -35 -18 -35 -10 0 -20 -11 -24 -27 -8 -32 -42 -73
-62 -73 -7 0 -13 -5 -13 -11 0 -6 6 -9 13 -6 6 2 22 0 35 -4 17 -7 22 -5 22 7
0 24 25 11 28 -15 5 -30 24 -21 28 13 4 35 12 45 24 26 6 -9 6 -16 0 -18 -6
-2 -10 -8 -10 -13 0 -6 8 -5 20 1 11 6 17 16 14 25 -4 8 -2 15 4 15 9 0 26
-30 20 -35 -2 -1 -19 -13 -40 -26 -31 -21 -34 -27 -24 -42 7 -9 16 -14 19 -10
4 3 7 2 7 -4 0 -21 -32 -24 -37 -3 -3 11 -10 20 -16 20 -16 0 -47 -31 -47 -47
0 -18 -47 -60 -87 -78 -17 -8 -38 -24 -46 -35 -19 -28 -58 -18 -80 20 -15 24
-15 29 -2 34 22 8 18 36 -4 36 -32 0 -14 36 47 93 30 29 62 52 72 51 12 0 15
6 12 21 -2 15 10 33 45 64 26 23 59 53 73 67 14 13 26 24 27 24 2 0 2 -16 0
-35z m-4600 18 c-109 -2 -285 -2 -390 0 -106 1 -16 2 198 2 215 0 301 -1 192
-2z m1181 0 c-174 -2 -462 -2 -640 0 -178 1 -35 2 317 2 352 0 497 -1 323 -2z
m685 0 c-62 -2 -164 -2 -225 0 -62 1 -12 3 112 3 124 0 174 -2 113 -3z m985 0
c-10 -2 -28 -2 -40 0 -13 2 -5 4 17 4 22 1 32 -1 23 -4z m1009 -205 c-3 -7 -5
-2 -5 12 0 14 2 19 5 13 2 -7 2 -19 0 -25z m-40 -70 c-3 -7 -5 -2 -5 12 0 14
2 19 5 13 2 -7 2 -19 0 -25z m823 -14 c0 -8 -4 -12 -10 -9 -5 3 -10 10 -10 16
0 5 5 9 10 9 6 0 10 -7 10 -16z m-2524 -4 c8 0 14 -5 14 -11 0 -5 -4 -7 -10
-4 -5 3 -10 -1 -10 -9 0 -19 -20 -22 -20 -3 -1 6 -8 0 -16 -15 -15 -29 -29
-34 -53 -19 -21 13 -38 3 -60 -35 -11 -19 -24 -34 -28 -34 -4 0 -16 14 -25 30
-13 23 -14 30 -4 30 7 0 17 -10 23 -22 10 -23 10 -22 26 9 17 31 48 50 66 39
5 -4 16 0 24 8 8 8 17 12 21 9 3 -4 6 4 6 16 0 17 4 22 16 17 9 -3 22 -6 30
-6z m2504 -32 c0 -10 7 -18 15 -18 22 0 18 -18 -5 -25 -28 -9 -55 18 -36 34 8
7 12 22 9 34 -4 18 -3 19 6 7 6 -8 11 -23 11 -32z m-2430 13 c0 -12 -20 -25
-27 -18 -7 7 6 27 18 27 5 0 9 -4 9 -9z m-40 -21 c0 -5 -4 -10 -10 -10 -5 0
-10 5 -10 10 0 6 5 10 10 10 6 0 10 -4 10 -10z m465 -10 c-3 -5 -12 -10 -19
-10 -16 0 -28 -37 -15 -46 5 -3 9 -27 9 -54 0 -45 -2 -49 -32 -59 -25 -9 -35
-8 -46 3 -9 9 -11 19 -6 28 5 7 9 39 9 71 l1 59 -87 -4 c-83 -3 -88 -4 -150
-48 -35 -24 -65 -48 -67 -52 -5 -11 -22 -10 -22 1 0 11 110 87 152 106 39 17
283 22 273 5z m1945 0 c0 -5 -13 -10 -30 -10 -16 0 -30 5 -30 10 0 6 14 10 30
10 17 0 30 -4 30 -10z m-230 -114 c0 -15 -68 -71 -76 -63 -3 3 10 17 30 32 23
18 33 32 29 42 -4 11 -2 14 5 9 7 -4 12 -13 12 -20z m-2740 -91 l9 -23 41 20
c40 20 41 20 61 2 l21 -19 -24 -20 c-14 -12 -23 -26 -21 -32 2 -6 -6 -13 -17
-16 -18 -5 -20 -9 -10 -26 6 -12 8 -26 5 -32 -4 -5 -1 -16 5 -24 7 -8 9 -22 6
-31 -3 -9 -1 -14 5 -12 12 4 12 4 3 64 -6 43 -5 48 24 70 16 13 33 35 36 49 4
14 11 25 16 25 13 0 13 -23 0 -36 -11 -11 -2 -84 11 -84 5 0 9 5 9 11 0 5 4 8
9 5 13 -9 23 -58 13 -65 -5 -3 -6 -15 -1 -26 6 -17 8 -16 14 13 8 36 19 46 41
38 12 -4 10 -10 -8 -28 l-22 -22 25 -9 c13 -5 38 -16 54 -24 l30 -14 -35 6
c-19 4 -40 8 -47 9 -7 1 -15 5 -19 9 -4 3 -16 1 -28 -5 -11 -7 -24 -11 -28
-10 -5 1 -8 -3 -8 -9 0 -8 -4 -9 -13 0 -18 14 -30 2 -16 -16 9 -10 8 -13 -1
-13 -7 0 -10 -7 -6 -16 5 -12 1 -14 -15 -9 -27 9 -22 -14 6 -29 19 -10 55 -45
55 -53 0 -8 -20 -2 -32 10 -7 8 -24 19 -36 26 -19 10 -23 9 -28 -6 -16 -45
-29 -71 -35 -67 -8 4 -59 -45 -59 -57 0 -4 -3 -15 -7 -24 -5 -15 -3 -16 15 -6
28 15 37 14 23 -3 -7 -8 -16 -27 -21 -43 l-8 -28 -1 27 c-1 21 -5 26 -18 21
-12 -5 -15 -2 -10 10 4 10 2 17 -4 17 -14 0 -79 -70 -79 -84 0 -6 -4 -5 -8 1
-10 16 -65 -39 -81 -82 -11 -29 -11 -28 -5 10 6 40 46 95 70 95 7 0 21 10 31
23 10 12 31 31 47 41 l30 19 -45 23 c-24 13 -54 23 -66 24 -13 0 -23 5 -23 10
0 6 -3 9 -7 9 -28 -4 -123 2 -122 9 4 26 -3 34 -26 28 -14 -4 -25 -2 -25 4 0
5 7 10 15 10 8 0 18 8 23 18 14 28 14 85 0 94 -10 6 -9 11 5 19 14 8 17 18 12
37 -6 23 -5 24 10 12 13 -11 15 -25 11 -59 -5 -40 -4 -42 5 -16 5 17 7 49 5
73 -4 25 -2 42 5 42 14 0 8 -159 -6 -168 -17 -10 -33 -45 -28 -59 8 -21 27
-15 53 16 13 17 27 28 31 25 12 -7 3 41 -14 76 -24 47 -23 64 3 48 10 -7 20
-26 22 -42 2 -19 11 -35 25 -41 19 -10 20 -12 5 -22 -16 -11 -16 -12 -1 -12
22 -1 32 25 19 49 -13 25 -13 30 5 30 9 0 12 -6 9 -15 -5 -11 1 -15 20 -15 23
0 26 -3 20 -25 -5 -20 -3 -24 9 -20 8 4 17 -1 21 -10 4 -11 -2 -19 -17 -24
-17 -7 -23 -5 -25 9 -3 16 -8 17 -40 8 -20 -5 -40 -13 -45 -17 -12 -12 51 -64
105 -86 l52 -21 37 39 c36 36 48 63 63 130 4 15 11 25 16 22 6 -3 10 -1 10 4
0 6 -3 11 -7 11 -12 0 -33 51 -33 77 0 15 -6 23 -17 24 -11 0 -13 3 -5 6 20 8
14 32 -8 26 -17 -5 -18 -3 -7 20 6 14 15 23 19 21 5 -3 8 0 8 6 0 6 4 8 10 5
6 -4 9 3 7 16 -1 16 4 23 22 25 38 7 38 14 2 14 -24 0 -34 -5 -38 -20 -3 -11
-9 -17 -14 -14 -5 3 -9 0 -9 -5 0 -6 -5 -11 -11 -11 -6 0 -9 6 -6 14 3 8 -5
22 -17 31 -15 11 -22 25 -19 36 6 23 21 15 33 -16z m1084 -22 c3 -24 9 -61 12
-83 l6 -40 49 0 c55 0 56 -2 36 -69 -10 -33 -15 -40 -20 -27 -4 10 -2 26 3 36
25 47 18 50 -107 50 -112 1 -119 2 -135 24 -10 13 -20 42 -24 64 -5 35 -3 41
15 47 11 3 28 2 37 -3 14 -8 12 -10 -10 -16 -19 -5 -26 -13 -26 -30 0 -44 29
-64 99 -68 l63 -4 -6 50 c-3 28 -6 62 -6 75 0 16 -4 21 -15 17 -18 -7 -20 5
-3 22 16 16 25 4 32 -45z m-3817 -95 c-2 -13 -4 -3 -4 22 0 25 2 35 4 23 2
-13 2 -33 0 -45z m2691 -53 c-1 -14 -8 -25 -15 -25 -16 0 -16 5 -3 31 14 26
20 24 18 -6z m-100 -25 c-5 -27 -33 -17 -36 13 -3 26 -2 27 18 15 11 -7 19
-20 18 -28z m-2115 23 c-13 -2 -33 -2 -45 0 -13 2 -3 4 22 4 25 0 35 -2 23 -4z
m200 0 c-29 -2 -78 -2 -110 0 -32 2 -8 3 52 3 61 0 87 -1 58 -3z m-676 -35
c-3 -7 -5 -2 -5 12 0 14 2 19 5 13 2 -7 2 -19 0 -25z m0 -85 c-3 -10 -5 -4 -5
12 0 17 2 24 5 18 2 -7 2 -21 0 -30z m2959 22 c-10 -8 -15 -19 -10 -26 5 -9 2
-10 -10 -6 -10 4 -22 7 -27 7 -20 0 -7 19 19 28 39 15 50 14 28 -3z m3831
-102 c-2 -21 -4 -4 -4 37 0 41 2 58 4 38 2 -21 2 -55 0 -75z m-3596 12 c0 -37
3 -55 11 -55 9 0 9 -3 0 -12 -16 -16 -16 -78 1 -78 7 0 20 9 30 20 20 24 47
26 47 5 0 -8 5 -15 10 -15 6 0 10 5 10 10 0 6 5 10 10 10 5 0 9 -6 8 -12 -2
-7 6 -13 17 -13 17 0 20 6 18 37 -1 21 -12 56 -23 79 -12 22 -19 43 -16 46 7
8 46 -59 46 -79 0 -12 5 -15 15 -11 13 5 14 2 4 -20 -22 -48 -8 -57 88 -59
l88 -2 -87 -3 -88 -4 0 -49 c0 -28 -4 -50 -10 -50 -5 0 -10 11 -10 24 0 27
-27 41 -57 32 -10 -3 -25 -1 -33 4 -12 8 -12 10 3 16 9 3 33 4 52 2 24 -3 35
0 35 9 0 15 -70 18 -85 4 -6 -4 -23 -12 -39 -15 -27 -7 -28 -6 -16 9 12 15 11
16 -16 13 l-29 -3 -3 -77 -3 -78 63 0 c36 1 74 7 88 15 14 8 49 14 78 15 28 0
52 5 52 10 0 6 -8 10 -17 10 -17 1 -17 1 0 11 10 6 17 23 18 42 l1 32 10 -35
c5 -19 15 -38 20 -41 6 -4 8 -16 6 -27 -4 -13 0 -23 9 -26 31 -12 35 -6 28 42
-7 55 11 87 67 116 l33 17 -32 -5 c-25 -4 -33 -2 -33 9 0 8 9 15 20 15 11 0
20 5 20 10 0 6 11 10 25 10 14 0 26 -4 26 -10 1 -5 2 -16 3 -22 0 -7 14 -13
31 -13 29 0 30 2 33 50 l3 51 -46 12 c-60 16 -64 15 -58 -8 3 -11 0 -20 -6
-20 -6 0 -11 5 -11 10 0 6 -7 10 -15 10 -8 0 -15 4 -15 10 0 5 -7 7 -15 4 -8
-4 -15 -2 -15 4 0 14 99 23 122 11 44 -24 39 0 -6 29 -27 17 -53 29 -57 26 -5
-3 -9 0 -9 5 0 24 45 9 91 -30 48 -40 49 -42 49 -99 0 -56 1 -58 31 -64 49 -9
79 -7 80 7 1 6 2 19 3 27 1 14 7 16 36 12 6 -1 0 -12 -12 -24 -14 -14 -18 -23
-10 -26 27 -9 42 8 43 45 0 21 1 57 2 81 1 28 5 41 13 38 6 -2 17 1 24 7 10 9
11 7 6 -10 -6 -18 -4 -21 16 -16 22 6 22 5 6 -14 -10 -11 -18 -25 -18 -31 0
-7 -5 -12 -11 -12 -5 0 -8 4 -4 9 3 5 1 12 -4 15 -11 7 -20 -35 -18 -79 l2
-30 218 -3 c208 -2 257 -8 257 -33 0 -6 -10 -3 -22 5 -28 20 -48 20 -48 1 0
-8 9 -15 20 -15 18 0 26 -16 21 -43 -1 -5 8 -5 20 -2 20 7 21 5 15 -20 -8 -31
-34 -61 -44 -50 -4 3 1 12 11 19 22 17 22 22 -3 29 -14 3 -20 14 -20 31 0 36
-14 33 -39 -9 -36 -62 -34 -67 40 -80 51 -8 73 -8 95 2 16 7 66 12 112 13 l82
0 0 -28 c0 -21 7 -30 31 -41 27 -12 32 -11 44 5 14 18 14 18 15 -1 0 -16 2
-17 9 -6 7 11 13 12 23 4 7 -6 44 -20 82 -33 57 -19 70 -20 77 -9 5 8 9 17 9
22 0 4 7 7 15 7 12 0 13 -5 7 -17 -12 -24 -4 -43 18 -43 10 0 22 -5 26 -11 8
-14 -54 -2 -73 13 -7 6 -13 8 -13 5 0 -3 -32 5 -71 18 -60 21 -77 23 -122 15
-28 -6 -60 -19 -72 -30 -25 -23 -35 -25 -35 -7 0 7 9 18 20 25 11 7 20 18 20
25 0 8 -3 7 -10 -3 -7 -11 -11 -4 -16 28 -6 39 -9 43 -33 40 -21 -2 -28 -11
-37 -43 -6 -22 -16 -53 -23 -70 -12 -27 -19 -131 -10 -139 2 -2 14 -6 26 -10
18 -6 23 -1 33 28 6 20 9 40 6 45 -8 12 4 41 16 41 6 0 7 -22 3 -58 -4 -35 -2
-76 5 -100 8 -31 8 -47 0 -63 -7 -11 -9 -32 -5 -46 6 -24 7 -25 20 -7 14 18
14 18 15 -3 0 -15 -6 -23 -17 -23 -13 0 -14 -3 -6 -11 8 -8 6 -21 -9 -48 -12
-20 -27 -47 -34 -60 -7 -13 -18 -27 -25 -31 -6 -4 -8 -13 -5 -19 8 -12 37 -15
34 -3 -4 12 24 72 33 72 13 0 11 -14 -6 -36 -21 -28 -18 -43 11 -50 14 -4 22
-9 16 -13 -5 -3 -12 -18 -16 -33 -3 -16 -13 -28 -21 -28 -8 0 -15 -9 -15 -19
0 -11 -5 -23 -11 -27 -8 -4 -9 3 -4 26 12 55 12 90 -1 90 -6 0 -14 -23 -17
-52 -9 -78 -55 -110 -97 -68 -23 23 -50 17 -50 -11 0 -30 -15 -22 -30 16 -17
44 -65 75 -115 75 -30 0 -44 -7 -71 -37 -22 -24 -34 -47 -34 -65 0 -15 -4 -28
-10 -28 -5 0 -10 9 -10 19 0 11 -9 23 -20 26 -30 9 -107 -23 -113 -47 -4 -13
-10 -17 -18 -12 -9 5 -10 2 -6 -10 21 -55 20 -69 -7 -91 -26 -21 -26 -21 -4
-21 13 1 23 -3 23 -9 0 -5 -10 -9 -22 -7 -13 1 -28 -6 -37 -20 -13 -18 -16
-19 -16 -6 0 9 5 20 11 24 8 4 7 9 -2 15 -24 15 -58 10 -69 -11 -8 -15 -8 -20
1 -20 7 0 6 -9 -5 -25 -9 -13 -16 -32 -16 -42 0 -12 3 -14 8 -6 5 8 13 9 22 3
12 -8 12 -10 1 -10 -10 0 -12 -9 -8 -35 8 -51 27 -65 87 -65 37 0 50 -4 48
-12 -3 -7 -18 -14 -34 -16 -88 -8 -96 -33 -22 -71 15 -8 26 -17 26 -20 -3 -12
25 -61 34 -61 5 0 6 -4 3 -10 -10 -16 -23 -12 -30 10 -3 11 -11 20 -16 20 -6
0 -7 -4 -4 -10 3 -5 0 -10 -8 -10 -9 0 -12 -9 -9 -30 5 -36 32 -40 62 -10 12
12 25 18 31 14 6 -4 2 -12 -10 -21 -23 -16 -20 -36 4 -26 17 6 21 -12 5 -22
-13 -8 -13 -67 0 -134 10 -53 42 -102 55 -82 3 6 11 11 17 11 7 0 7 -5 -1 -14
-6 -7 -8 -22 -4 -31 5 -15 3 -17 -11 -12 -12 5 -16 3 -14 -5 7 -20 48 -23 48
-4 0 12 10 16 35 16 19 0 34 3 33 8 -2 4 2 8 7 9 6 1 9 -5 7 -13 -2 -8 1 -22
7 -31 8 -15 11 -14 17 12 4 17 8 49 8 73 0 36 3 42 18 39 12 -3 20 3 27 22 8
21 10 14 10 -43 1 -38 4 -66 8 -63 3 4 12 2 18 -3 18 -15 53 26 37 42 -17 17
-15 38 4 38 10 0 14 -6 10 -15 -9 -24 21 -17 42 10 11 14 25 25 31 25 6 0 11
19 11 45 0 25 4 45 9 45 5 0 10 -57 10 -127 1 -88 5 -130 14 -136 9 -7 9 -10
0 -14 -8 -3 -13 -22 -13 -46 0 -23 4 -37 8 -31 14 20 41 24 45 6 2 -9 5 -1 8
19 3 27 1 35 -8 32 -8 -3 -13 3 -13 16 0 14 5 19 15 15 16 -7 20 11 16 77 -2
23 3 40 15 50 16 13 17 12 12 -8 -4 -13 -2 -23 3 -23 5 0 9 -7 9 -15 0 -9 9
-15 25 -15 24 0 25 3 25 59 0 33 5 63 10 66 6 4 10 -18 10 -59 0 -63 9 -81 27
-53 4 6 8 21 8 32 0 24 39 33 62 14 8 -7 22 -14 30 -15 21 -3 30 -16 16 -21
-7 -3 -13 -11 -13 -19 0 -8 -4 -14 -10 -14 -5 0 -10 9 -10 19 0 11 -4 23 -10
26 -15 9 -12 -20 7 -60 21 -44 10 -57 -18 -22 -25 33 -43 35 -36 4 7 -25 -11
-61 -20 -39 -2 6 -11 12 -19 12 -10 0 -14 -13 -14 -48 l0 -49 -50 1 c-27 1
-50 -2 -50 -6 0 -5 13 -8 29 -8 15 0 49 -3 75 -6 40 -6 47 -10 44 -28 -3 -24
-38 -36 -38 -12 0 8 8 17 18 19 9 3 -14 5 -53 6 l-70 1 0 -37 c0 -43 22 -55
49 -28 14 15 16 15 16 1 0 -9 7 -16 15 -16 8 0 15 -9 15 -20 0 -11 -7 -20 -15
-20 -8 0 -15 -4 -15 -8 0 -4 -9 -8 -20 -8 -11 0 -20 6 -20 13 0 7 5 13 10 13
6 0 10 5 10 10 0 17 -37 11 -42 -7 -2 -10 -3 -53 -2 -96 1 -55 -2 -77 -10 -74
-6 3 -10 10 -8 16 1 6 -3 11 -9 11 -7 0 -9 10 -4 28 4 15 8 51 9 80 2 50 1 52
-23 52 -21 0 -23 -2 -11 -10 13 -8 11 -11 -7 -16 -31 -9 -33 -64 -3 -64 14 0
20 -7 20 -22 0 -20 -1 -21 -20 -3 -20 18 -20 17 -21 -36 -1 -77 -17 -111 -18
-38 -1 49 -4 57 -22 62 -12 3 -31 1 -44 -5 -19 -8 -30 -6 -59 12 -20 12 -36
18 -37 13 0 -4 0 -43 1 -85 2 -101 -14 -102 -18 -1 -2 42 -5 80 -7 84 -3 4
-21 3 -40 -1 -20 -4 -35 -4 -35 1 0 16 -38 9 -45 -8 -15 -40 -32 -153 -23
-153 6 0 5 -7 -2 -15 -11 -13 -6 -15 34 -15 25 0 46 5 46 10 0 21 18 9 22 -14
5 -25 -9 -38 -34 -32 -7 1 -10 1 -5 -1 13 -8 -3 -23 -24 -23 -14 0 -19 -7 -19
-25 0 -29 -16 -34 -23 -7 -4 13 -5 12 -6 -5 0 -12 5 -26 12 -30 8 -4 17 -21
21 -36 6 -26 5 -28 -14 -22 -15 5 -20 2 -21 -12 0 -13 -3 -12 -10 7 -6 14 -8
49 -5 78 l6 52 -50 0 -50 0 6 -40 c4 -27 3 -40 -5 -40 -6 0 -12 8 -13 18 0 9
-2 22 -3 27 -2 6 -3 16 -4 23 0 6 -10 12 -20 12 -16 0 -21 -10 -27 -46 -3 -25
-4 -63 -1 -85 3 -21 1 -39 -4 -39 -5 0 -9 36 -9 80 0 44 -4 80 -9 80 -16 0
-49 -64 -46 -90 1 -14 3 -31 4 -37 0 -7 11 -14 24 -14 16 -1 18 -2 5 -6 -10
-2 -18 -8 -18 -13 0 -5 -15 -10 -32 -12 -27 -2 -34 -8 -36 -29 -2 -15 -14 -37
-28 -50 -13 -12 -24 -32 -24 -43 0 -12 -5 -28 -11 -36 -8 -11 -9 -6 -5 23 2
21 16 51 29 66 15 18 26 47 30 79 3 28 20 78 37 111 l30 61 -77 0 c-71 -1 -80
-3 -95 -25 -17 -23 -17 -24 2 -30 11 -3 20 -11 20 -16 0 -6 -7 -6 -19 1 -22
11 -38 13 -28 3 4 -3 -2 -13 -14 -21 -11 -8 -23 -11 -27 -7 -3 3 0 10 7 14 7
5 10 14 6 20 -4 8 -11 9 -19 2 -6 -6 -18 -6 -25 -2 -10 6 -5 11 17 16 18 3 30
11 29 17 -1 6 9 12 22 14 50 9 34 15 -29 12 -67 -3 -73 -6 -118 -47 -17 -16
-22 -26 -14 -29 21 -7 13 -19 -11 -15 -14 3 -29 -3 -41 -16 -11 -12 -16 -21
-11 -21 4 0 -4 -9 -18 -20 -14 -11 -27 -20 -30 -20 -2 0 -3 21 -2 48 2 26 4
61 5 77 1 26 3 27 10 10 5 -11 9 -15 9 -8 2 21 -11 43 -25 43 -20 0 -18 5 21
43 26 26 32 36 23 45 -9 9 -8 12 4 12 8 0 30 3 47 6 27 6 31 4 31 -16 0 -19
-2 -20 -15 -10 -13 10 -15 9 -15 -9 0 -12 -6 -21 -12 -20 -7 1 -21 -1 -30 -5
-36 -16 -16 -26 48 -26 l66 0 -8 38 c-4 20 -7 69 -6 109 l2 72 -36 10 c-19 5
-42 7 -51 4 -10 -4 -14 0 -13 13 4 33 1 40 -20 41 -30 3 -39 -70 -15 -129 11
-29 -18 -21 -32 7 -6 14 -7 23 -2 19 14 -8 11 9 -11 50 -19 38 -19 56 1 56 5
0 9 -7 9 -16 0 -8 5 -12 10 -9 5 3 10 13 10 22 0 9 -3 13 -7 10 -3 -4 -12 1
-20 11 -8 11 -12 12 -11 3 2 -7 -3 -16 -11 -19 -8 -3 -11 0 -7 7 4 6 1 20 -7
32 -8 11 -18 16 -21 11 -3 -6 -1 -12 6 -14 7 -3 12 -24 11 -56 0 -29 3 -55 8
-58 15 -9 10 -20 -16 -32 -15 -7 -25 -20 -25 -32 0 -13 -7 -20 -20 -20 -11 0
-34 -13 -52 -30 -37 -35 -44 -37 -53 -10 -10 31 -25 24 -87 -40 -32 -32 -58
-53 -58 -45 0 8 5 17 10 20 17 11 11 34 -12 45 -20 10 -21 9 -7 -2 14 -11 15
-17 4 -31 -13 -18 -45 -23 -45 -7 0 6 -9 10 -20 10 -11 0 -20 -5 -20 -11 0 -8
-5 -7 -15 1 -18 15 -28 8 -32 -22 -7 -46 -20 -38 -26 15 -4 35 -3 37 24 37 21
0 27 5 26 19 0 11 -6 17 -14 14 -7 -3 -13 1 -13 8 0 14 -69 59 -89 59 -6 0
-11 -7 -11 -15 0 -8 3 -14 8 -14 27 5 40 -3 35 -20 -3 -10 0 -28 6 -39 8 -15
7 -23 -3 -31 -7 -6 -15 -8 -18 -6 -3 3 -8 -3 -11 -15 -3 -13 0 -20 9 -20 16 0
18 -9 4 -30 -6 -10 -10 -11 -10 -2 0 6 -11 12 -25 12 -28 0 -35 19 -7 21 9 1
0 6 -20 11 -40 11 -49 25 -22 35 10 4 22 -1 30 -11 12 -17 13 -17 23 2 6 11 7
22 4 26 -3 3 1 6 10 6 20 0 22 11 5 28 -17 17 -38 15 -38 -3 0 -8 -4 -15 -10
-15 -5 0 -10 7 -10 15 0 8 -4 15 -10 15 -18 0 -11 20 8 21 16 1 16 2 0 6 -23
6 -17 44 8 54 29 10 40 -2 14 -16 -15 -8 -19 -15 -11 -19 6 -4 11 -2 11 3 0
19 49 12 102 -16 29 -15 70 -27 95 -28 33 -2 51 -9 73 -30 24 -23 32 -26 44
-16 8 7 12 21 8 33 -3 15 -2 19 7 14 6 -4 8 -12 5 -18 -4 -6 5 -3 19 8 26 18
37 54 17 54 -5 0 -7 -6 -4 -14 7 -19 -12 -29 -33 -17 -10 6 -12 11 -5 11 6 0
12 5 12 11 0 6 -17 9 -42 7 l-43 -3 0 54 c0 31 5 59 12 67 9 8 10 15 3 19 -21
13 -9 23 14 12 29 -14 42 -47 19 -47 -8 0 -12 -4 -9 -9 3 -5 -1 -11 -9 -15 -9
-3 -15 -18 -15 -38 1 -30 2 -31 14 -15 13 17 17 17 50 3 32 -13 38 -14 43 -1
3 8 14 15 25 15 10 0 16 -4 13 -10 -3 -5 -1 -10 4 -10 7 0 11 25 11 62 0 48
-3 59 -12 50 -17 -17 -41 -15 -34 3 5 14 -17 21 -47 16 -5 -1 -6 3 -2 9 3 5
-1 10 -9 10 -9 0 -16 4 -16 9 0 5 10 7 23 4 12 -2 0 6 -28 19 -27 12 -58 32
-67 43 -17 20 -17 20 -18 -7 0 -15 5 -30 10 -33 6 -3 10 -17 10 -31 0 -13 -4
-24 -10 -24 -5 0 -10 7 -10 16 0 8 -4 13 -9 9 -6 -3 -10 3 -10 12 1 73 -3 82
-35 85 -22 2 -39 -4 -58 -22 -34 -30 -36 -48 -5 -52 14 -2 23 -11 25 -25 2
-13 9 -23 16 -23 20 0 11 -89 -11 -106 -26 -19 -33 -17 -33 11 0 13 -8 29 -17
34 -17 10 -17 10 0 11 21 0 22 13 2 30 -8 7 -15 24 -15 38 l0 25 -23 -21 c-31
-29 -46 -28 -20 1 11 12 26 33 33 46 11 22 10 27 -10 43 -22 18 -22 18 -1 18
14 0 21 6 21 18 0 15 -6 18 -30 14 -22 -3 -30 0 -30 11 0 29 -21 29 -51 1 -16
-15 -32 -24 -36 -20 -4 4 3 15 15 25 16 12 21 22 16 35 -6 16 -3 17 17 11 13
-4 31 -15 41 -26 9 -10 28 -19 42 -19 23 0 26 -4 26 -35 0 -40 14 -45 38 -14
15 18 22 19 61 10 39 -8 44 -7 48 10 5 18 6 18 22 0 12 -14 24 -18 49 -14 17
3 32 11 32 19 0 7 8 17 18 23 15 9 14 11 -8 19 -66 25 -98 41 -104 51 -9 13
-1 14 22 2 69 -38 128 -56 150 -46 27 12 29 41 3 48 -25 6 -21 57 4 72 10 5
27 18 37 28 17 16 18 16 18 -13 0 -22 -4 -28 -15 -24 -8 4 -15 1 -15 -5 0 -6
7 -11 15 -11 19 0 19 -14 1 -33 -14 -13 -19 -45 -17 -99 1 -25 5 -28 38 -28
34 0 35 1 17 14 -12 9 -21 11 -25 4 -4 -6 -9 -4 -12 5 -5 14 10 37 25 37 4 0
8 -7 8 -16 0 -9 9 -18 20 -21 11 -3 20 -9 20 -14 0 -5 23 -9 50 -9 l50 0 0 41
c0 35 2 40 18 34 9 -4 35 -9 57 -11 22 -2 50 -6 63 -9 21 -5 22 -2 22 45 0 44
-3 50 -21 50 -11 0 -17 -4 -14 -10 4 -6 -5 -10 -20 -10 -20 0 -26 4 -21 15 4
12 -3 15 -34 15 -34 0 -40 -3 -40 -22 0 -31 -9 -18 -14 22 -2 19 -9 47 -14 61
-9 22 -15 25 -46 21 -20 -2 -33 -8 -30 -13 3 -5 -2 -9 -10 -9 -9 0 -16 5 -16
10 0 6 -12 10 -27 10 -16 0 -35 5 -43 10 -11 7 -5 10 23 10 28 0 37 4 37 17 0
15 1 15 18 0 10 -10 35 -17 55 -17 l37 0 0 85 c0 78 -2 85 -20 85 -11 0 -20 5
-20 11 0 6 9 9 19 6 16 -4 20 1 23 26 2 17 9 33 17 35 8 3 11 0 7 -6 -3 -6 -2
-13 3 -16 5 -4 12 -2 16 4 3 5 16 10 28 10 20 0 20 1 2 14 -12 9 -16 19 -11
32 7 18 8 18 21 1 11 -16 13 -16 19 -1 16 42 8 54 -39 54 -33 0 -45 -4 -45
-15 0 -8 -6 -15 -12 -16 -10 0 -10 -2 -1 -5 7 -3 9 -12 6 -20 -7 -19 -23 -18
-23 3 0 15 -1 15 -18 0 -10 -9 -33 -20 -50 -23 -25 -5 -30 -10 -22 -19 18 -22
-39 -29 -62 -8 -19 17 -20 17 -29 0 -6 -9 -16 -17 -24 -17 -8 0 -21 -10 -30
-22 -8 -13 -18 -22 -20 -20 -11 5 -25 1 -25 -7 0 -5 11 -8 25 -6 14 1 26 -1
26 -4 1 -3 3 -19 5 -36 1 -16 5 -43 8 -59 6 -26 4 -28 -19 -22 -16 4 -25 2
-25 -5 0 -8 -4 -8 -15 1 -8 7 -12 17 -8 23 9 15 10 67 1 67 -5 0 -8 7 -8 15 0
8 -4 15 -10 15 -5 0 -10 -4 -10 -8 0 -4 -13 -13 -30 -19 -26 -10 -30 -17 -37
-64 -4 -30 -6 -60 -5 -66 2 -7 -2 -21 -7 -32 -9 -15 -7 -20 9 -24 11 -3 24 1
31 9 12 15 29 19 29 6 0 -16 -58 -31 -107 -27 -41 4 -51 2 -47 -9 3 -8 14 -16
25 -19 14 -4 17 -10 12 -24 -7 -17 -8 -17 -11 0 -2 11 -9 16 -18 13 -7 -3 -16
-1 -20 5 -3 6 -12 8 -20 5 -18 -7 -74 25 -74 43 0 11 3 11 15 1 8 -6 23 -9 36
-5 17 6 19 9 8 16 -12 7 -11 9 1 9 13 0 13 1 0 10 -10 6 -17 5 -22 -4 -4 -8
-18 -11 -32 -9 -45 9 -45 59 -1 83 27 15 48 5 25 -11 -11 -8 -7 -9 15 -4 24 4
36 0 63 -24 17 -17 32 -35 32 -40 0 -6 7 -11 15 -11 17 0 39 36 26 44 -8 6 -3
43 14 95 5 16 4 21 -4 17 -6 -4 -11 0 -11 8 0 9 4 16 10 16 5 0 6 8 3 17 -5
12 -2 15 10 10 27 -10 15 29 -16 53 l-27 21 0 -26 c0 -15 -4 -24 -10 -20 -5 3
-10 20 -10 37 0 27 -3 30 -22 24 -13 -4 -32 -8 -43 -9 -13 -1 -21 -12 -26 -34
-3 -18 -3 -33 2 -33 5 0 9 -4 9 -10 0 -5 -7 -10 -16 -10 -14 0 -15 7 -10 40 7
44 4 45 -52 34 -30 -6 -30 -7 -25 -59 8 -79 -1 -102 -55 -136 -49 -31 -58 -43
-32 -45 43 -3 50 -5 50 -14 0 -5 -14 -10 -32 -10 -25 0 -29 -3 -20 -12 17 -17
15 -33 -3 -18 -8 7 -15 18 -15 26 0 16 -17 27 -30 19 -6 -4 5 -22 25 -43 22
-24 33 -43 29 -54 -3 -10 -1 -18 5 -18 6 0 11 9 11 20 0 17 7 20 44 20 25 0
48 -4 51 -10 4 -6 -11 -10 -38 -10 -45 0 -45 0 -45 -35 0 -19 4 -32 9 -29 5 3
9 0 9 -5 0 -6 -9 -11 -20 -11 -11 0 -20 5 -20 10 0 6 -6 10 -14 10 -7 0 -19 7
-26 15 -15 18 -7 19 22 4 16 -9 19 -8 14 3 -3 7 -9 21 -12 30 -5 13 -14 15
-40 11 -26 -4 -34 -2 -34 9 0 11 7 14 27 10 l26 -5 -19 26 c-23 32 -26 32 -99
7 -32 -11 -64 -20 -72 -20 -19 0 -16 27 7 50 11 11 17 26 14 35 -8 19 -48 19
-68 0 -13 -13 -15 -13 -21 5 -3 11 -10 20 -15 20 -5 0 -7 -7 -4 -15 4 -8 1
-15 -5 -15 -29 0 -21 32 15 65 28 26 33 35 20 35 -14 0 -17 5 -12 24 4 17 0
26 -17 35 -21 11 -21 11 6 6 26 -5 27 -4 27 34 0 48 23 61 55 31 l23 -21 4 31
c4 26 1 33 -19 41 -34 13 -43 11 -43 -7 0 -10 -5 -14 -15 -10 -9 3 -18 -1 -22
-11 -6 -14 -8 -14 -20 3 -18 24 -17 39 2 24 22 -19 18 0 -6 26 -13 14 -17 24
-10 28 6 4 16 -2 23 -14 20 -32 30 -23 23 20 -4 26 -3 40 4 40 6 0 11 -10 11
-22 0 -31 8 -40 52 -60 43 -20 53 -45 46 -119 -4 -36 -2 -49 7 -46 6 3 42 8
78 12 62 7 84 18 56 27 -9 3 -8 11 2 28 11 21 14 22 17 8 4 -22 22 -24 22 -3
0 8 5 15 10 15 6 0 10 -4 10 -10 0 -5 7 -10 16 -10 10 0 14 7 12 22 -3 21 3
24 77 37 44 7 82 15 84 17 3 3 -5 11 -17 20 -24 16 -20 44 7 43 10 0 11 -2 4
-6 -20 -7 -15 -19 12 -31 23 -11 25 -10 25 13 l0 24 23 -22 c12 -12 19 -25 14
-28 -4 -3 -1 -12 7 -19 9 -7 13 -16 11 -21 -3 -4 4 -13 16 -19 16 -9 20 -9 14
-1 -10 18 2 41 19 35 9 -4 13 -14 9 -27 -12 -50 -15 -87 -5 -87 5 0 7 11 5 24
-3 13 0 27 6 30 6 4 11 0 11 -8 0 -9 5 -16 10 -16 18 0 80 45 80 58 0 7 -4 10
-10 7 -5 -3 -10 -1 -10 5 0 6 10 10 23 9 34 -3 57 11 57 35 -1 18 -2 19 -13 5
-9 -11 -20 -14 -39 -8 -42 11 -148 -1 -148 -17 0 -8 -4 -14 -10 -14 -5 0 -10
8 -10 19 0 15 10 19 53 25 28 3 70 6 91 6 25 0 43 6 51 17 12 16 14 16 31 -1
12 -13 27 -17 49 -13 31 5 66 -6 49 -15 -5 -3 -27 -6 -49 -7 -44 -2 -55 -8
-36 -20 19 -12 90 6 128 32 42 28 65 74 51 100 -7 15 -7 18 2 12 9 -5 10 -1 5
16 -10 31 -35 67 -35 51 0 -7 -4 -10 -10 -7 -5 3 -10 2 -10 -4 0 -5 5 -13 11
-17 6 -3 8 -17 5 -30 -4 -14 -2 -24 4 -24 16 0 11 -30 -10 -61 -12 -16 -27
-26 -35 -24 -50 16 -48 14 -31 30 19 20 27 19 20 -2 -5 -16 -4 -16 10 1 13 16
13 21 -1 42 -14 22 -14 24 1 24 9 0 16 4 16 10 0 6 -9 6 -25 0 -16 -6 -25 -6
-25 0 0 6 5 10 10 10 6 0 10 5 10 10 0 6 -11 10 -24 10 -14 0 -28 5 -31 10 -4
6 5 10 21 10 l27 0 -20 23 c-24 26 -36 57 -23 57 5 0 16 -13 25 -30 9 -16 17
-30 19 -30 3 0 13 -3 23 -7 12 -4 8 4 -13 28 -45 49 -50 80 -19 118 l26 30
-61 -3 c-33 -2 -63 1 -66 6 -3 5 -24 16 -46 25 -27 11 -36 18 -27 24 7 4 18 4
24 -1 10 -8 54 -20 83 -22 6 -1 12 -5 12 -10 0 -5 17 -7 38 -5 28 3 38 9 40
25 3 16 -3 22 -25 25 -26 4 -26 4 6 6 25 1 32 5 28 16 -4 8 -2 17 4 21 6 3 13
-3 16 -15 3 -12 12 -21 21 -21 13 0 12 4 -4 23 -10 12 -29 32 -42 44 -15 14
-19 24 -12 28 11 7 22 -4 56 -52 9 -13 23 -23 30 -23 8 0 14 -4 14 -10 0 -16
27 -12 34 5 3 8 6 82 7 165 0 82 5 153 10 156 5 3 9 -34 9 -85 0 -71 3 -91 14
-91 8 0 16 -7 20 -15 3 -8 1 -15 -4 -15 -6 0 -10 5 -10 11 0 5 -4 7 -10 4 -14
-9 -12 -65 3 -70 6 -2 51 -6 98 -8 89 -5 128 4 99 22 -12 8 -12 13 0 35 12 23
11 28 -4 45 -10 11 -16 28 -14 38 7 31 36 -46 40 -104 l3 -52 -108 -3 c-60 -2
-112 1 -118 7 -5 5 -9 -3 -9 -23 l0 -32 65 0 c36 0 64 3 64 8 -3 18 2 32 11
32 6 0 10 -9 10 -20 0 -13 7 -20 20 -20 14 0 20 7 20 21 0 12 4 17 11 14 6 -4
8 -13 5 -21 -3 -8 1 -14 9 -14 8 0 15 5 15 10 0 6 5 10 10 10 6 0 10 -7 10
-15 0 -8 8 -16 18 -16 15 -1 15 -2 0 -6 -9 -2 -18 -14 -20 -26 -3 -19 -9 -22
-46 -20 -38 2 -41 0 -27 -13 8 -9 13 -20 10 -25 -4 -5 16 -9 44 -9 40 0 49 3
45 14 -8 20 5 39 50 75 42 33 80 42 70 16 -5 -12 3 -15 35 -15 27 0 41 4 41
13 0 20 -30 57 -47 57 -10 0 -13 6 -9 16 3 9 6 31 6 49 0 25 4 32 18 31 9 0
16 5 15 12 -2 6 5 12 15 12 15 1 15 2 -2 15 -25 19 -19 23 27 17 21 -2 37 -10
37 -17 0 -18 53 -13 74 7 18 19 41 15 50 -8 3 -8 12 -11 22 -7 13 5 15 3 9 -8
-6 -10 -1 -8 15 3 14 10 42 28 62 40 27 17 36 28 32 41 -3 9 -1 17 5 17 6 0
11 -13 11 -30 0 -25 4 -30 24 -30 14 0 28 -4 31 -10 3 -5 11 -10 16 -10 6 0 7
5 4 10 -10 17 1 11 29 -15 14 -13 26 -29 26 -35 0 -6 4 -9 10 -5 5 3 7 12 3
20 -4 11 2 15 18 14 13 0 18 -3 12 -6 -24 -9 15 -36 42 -29 20 5 25 13 25 36
0 17 5 30 10 30 18 0 10 27 -13 44 -18 14 -22 25 -19 54 3 20 11 46 19 58 19
29 19 118 0 147 -18 27 -57 31 -57 5 0 -22 -56 -29 -70 -9 -3 4 -14 11 -24 15
-15 5 -17 9 -8 18 23 23 14 41 -18 35 -31 -7 -38 1 -19 20 7 7 7 13 1 17 -17
10 -32 -53 -32 -131 0 -47 -4 -72 -10 -68 -17 10 -11 122 9 181 l20 55 -27 10
c-15 5 -36 14 -47 19 -16 9 -15 9 10 5 77 -15 123 -17 129 -6 5 7 -2 11 -18
11 -30 0 -31 2 -12 39 21 39 48 60 54 42 4 -11 6 -11 13 0 6 10 9 11 9 2 0 -7
7 -13 15 -13 8 0 15 -4 15 -10 0 -5 -7 -10 -16 -10 -8 0 -12 -4 -9 -10 10 -16
-11 -12 -25 5 -12 14 -15 14 -31 -1 -18 -17 -18 -18 10 -35 23 -14 37 -15 76
-8 27 5 49 10 50 12 0 1 11 36 24 77 13 41 26 81 29 89 9 24 -166 -1 -181 -26
-5 -7 -13 -11 -18 -8 -5 4 -7 10 -4 15 3 5 -10 9 -29 8 -27 -1 -33 -5 -28 -17
3 -9 10 -19 16 -23 8 -5 7 -8 -1 -8 -6 0 -14 -18 -18 -40 -9 -55 -24 -51 -18
4 5 43 5 45 -18 39 -13 -4 -18 -8 -11 -11 14 -4 16 -32 2 -32 -5 0 -10 5 -10
11 0 5 -16 17 -36 25 -45 19 -40 24 22 27 68 3 60 29 -8 28 -10 0 -18 4 -18 9
0 5 -58 8 -132 7 l-133 -2 -6 -35 -6 -35 -3 40 c-1 22 -2 64 0 93 2 50 1 52
-24 52 -19 0 -26 -5 -26 -20 0 -11 -5 -20 -11 -20 -6 0 -9 7 -5 15 4 13 2 14
-14 5 -15 -8 -24 -6 -40 10 -23 23 -26 34 -7 27 6 -2 17 3 24 12 8 11 12 12
13 4 0 -20 90 -17 90 2 0 12 -16 15 -85 15 l-85 0 0 -47 -1 -48 -15 28 c-9 17
-19 25 -27 20 -7 -4 -21 -7 -32 -6 -16 1 -16 1 -2 -3 22 -7 21 -10 -3 -34 -11
-11 -20 -24 -20 -30 0 -16 28 -12 38 6 8 14 10 14 26 -2 16 -15 16 -18 2 -33
-14 -13 -20 -13 -36 -3 -17 10 -21 10 -26 -3 -3 -8 -10 -12 -15 -9 -5 3 -9 0
-9 -5 0 -6 -6 -11 -14 -11 -10 0 -12 -7 -8 -22 5 -20 6 -21 12 -3 6 18 7 18
12 -2 4 -13 17 -23 37 -28 36 -8 44 -43 11 -52 -32 -8 -23 -23 10 -16 25 4 30
2 30 -14 0 -10 -9 -25 -20 -33 -19 -14 -19 -14 0 -46 21 -34 29 -144 10 -144
-6 0 -10 27 -10 61 0 47 -5 68 -22 92 -15 21 -18 32 -10 35 7 2 12 11 12 19 0
9 -6 13 -15 9 -16 -6 -42 33 -29 43 5 3 10 14 11 24 1 15 -4 17 -23 13 -16 -4
-23 -2 -22 6 2 6 -5 14 -14 16 -16 3 -18 -5 -18 -68 0 -50 -3 -69 -11 -64 -7
4 -10 29 -7 65 l4 59 -33 0 c-23 0 -33 -5 -33 -15 0 -8 -4 -15 -10 -15 -5 0
-10 18 -10 39 0 59 -8 71 -46 71 l-33 0 2 -110 c1 -80 -1 -110 -10 -110 -6 0
-15 5 -18 10 -3 6 -1 10 4 10 7 0 11 31 11 83 l0 83 -40 1 c-22 0 -37 -3 -34
-8 3 -5 14 -9 24 -9 33 0 50 -102 18 -108 -14 -3 -16 4 -13 37 3 29 -1 41 -12
45 -13 5 -14 4 -3 -9 8 -9 8 -15 2 -15 -6 0 -14 5 -17 10 -3 6 -19 8 -36 5
-30 -5 -41 11 -15 21 8 3 17 12 20 20 4 11 -5 14 -40 14 l-45 0 3 -82 c3 -78
4 -83 28 -89 20 -6 17 -7 -17 -8 -24 -1 -43 -4 -43 -9 0 -4 16 -31 36 -60 20
-30 33 -56 30 -60 -3 -3 -7 -3 -9 -1 -39 53 -77 111 -77 119 0 7 -56 10 -162
10 -174 -2 -185 0 -235 37 -18 13 -53 32 -78 43 -41 17 -61 40 -35 40 6 0 10
-4 10 -9 0 -5 15 -14 33 -20 17 -6 52 -25 77 -41 25 -16 55 -30 68 -30 21 0
22 4 22 80 l0 80 -40 0 c-39 0 -40 -1 -26 -22 12 -21 12 -25 -6 -43 l-21 -20
7 28 c7 28 -8 38 -18 12 -6 -17 -32 -20 -40 -6 -9 14 4 39 22 44 10 3 -14 6
-53 7 -50 1 -64 4 -50 10 26 12 234 10 241 -1 3 -5 11 -6 17 -3 8 5 8 3 0 -7
-8 -8 -13 -41 -13 -85 0 -61 3 -73 18 -78 23 -6 240 -6 274 0 l27 5 -6 157
c-5 132 -3 163 11 196 23 54 21 76 -6 77 l-23 0 23 9 c19 8 22 17 22 66 0 32
3 54 6 51 4 -3 6 -31 5 -62z m379 35 c-6 -12 -14 -19 -17 -17 -2 3 1 15 7 27
6 12 14 19 17 17 2 -3 -1 -15 -7 -27z m126 9 c19 -21 19 -21 -9 -8 -15 7 -27
16 -27 21 0 14 16 9 36 -13z m144 1 c0 -5 -10 -10 -23 -10 -20 0 -22 -5 -22
-44 1 -24 7 -52 15 -62 13 -16 13 -17 -2 -11 -10 3 -18 2 -18 -4 0 -11 -24
-39 -33 -39 -7 0 -3 22 6 38 5 7 3 12 -5 12 -10 0 -10 2 0 8 10 7 17 44 22
115 0 11 60 8 60 -3z m20 -60 c10 -6 11 -10 3 -10 -7 0 -13 -7 -13 -15 0 -8
-4 -15 -10 -15 -5 0 -10 11 -10 25 0 27 7 30 30 15z m1297 -37 c-3 -10 -5 -4
-5 12 0 17 2 24 5 18 2 -7 2 -21 0 -30z m-953 4 c48 -3 20 -22 -35 -23 -30 -1
-44 0 -31 3 14 3 22 10 18 18 -6 17 6 29 15 14 3 -6 18 -12 33 -12z m-1172
-15 c-7 -2 -12 -11 -12 -20 0 -15 -2 -14 -17 1 -15 15 -16 19 -4 26 8 5 21 6
30 3 10 -4 11 -7 3 -10z m476 -21 c3 -10 -2 -12 -21 -7 -20 5 -29 1 -37 -14
-7 -12 -16 -17 -27 -13 -11 4 -13 8 -5 11 7 2 12 10 12 17 0 25 70 31 78 6z
m863 -16 c22 7 25 -7 5 -24 -11 -9 -18 -6 -35 15 -17 21 -19 29 -9 35 9 6 14
2 16 -12 3 -15 9 -18 23 -14z m786 -12 c-3 -10 -5 -4 -5 12 0 17 2 24 5 18 2
-7 2 -21 0 -30z m-1181 1 c-3 -9 -6 -18 -6 -20 0 -2 -9 -4 -20 -4 -11 0 -20 5
-20 10 0 6 7 10 15 10 8 0 15 5 15 10 0 6 5 10 11 10 6 0 8 -7 5 -16z m-1093
-83 c-8 -10 -55 47 -48 58 4 7 15 0 29 -21 13 -18 21 -35 19 -37z m-373 22 c0
-7 -4 -13 -10 -13 -5 0 -10 12 -10 28 0 21 2 24 10 12 5 -8 10 -21 10 -27z
m-2063 2 c-4 -8 -11 -15 -17 -15 -7 0 -7 6 0 21 13 23 26 19 17 -6z m2505 -18
c-7 -24 -6 -39 1 -46 8 -8 5 -11 -12 -11 -24 0 -24 -1 -7 55 16 53 32 55 18 2z
m-2588 17 c10 -25 -1 -29 -14 -5 -6 12 -7 21 -1 21 5 0 12 -7 15 -16z m3046
-15 c0 -5 -4 -9 -10 -9 -5 0 -10 7 -10 16 0 8 5 12 10 9 6 -3 10 -10 10 -16z
m-626 -4 c-4 -8 -10 -15 -15 -15 -5 0 -9 -9 -9 -20 0 -11 -4 -20 -10 -20 -5 0
-10 -7 -10 -16 0 -8 -4 -12 -10 -9 -5 3 -10 -1 -10 -9 0 -21 -5 -20 -40 6 -37
27 -40 47 -5 24 25 -16 27 -16 45 6 11 13 19 27 20 32 0 10 30 35 42 36 4 0 5
-7 2 -15z m-2379 -14 c-3 -6 -11 -11 -17 -11 -6 0 -6 6 2 15 14 17 26 13 15
-4z m2417 -42 c-3 -20 0 -34 9 -40 16 -10 -1 -12 -25 -3 -28 11 -14 60 20 74
0 0 -2 -14 -4 -31z m426 -34 c6 -14 8 -25 4 -25 -12 0 -32 23 -32 37 0 22 16
15 28 -12z m187 -80 c1 -19 -2 -35 -7 -35 -4 0 -8 -13 -8 -30 0 -20 -4 -28
-13 -25 -19 8 -17 123 3 128 21 5 22 2 25 -38z m307 5 c-7 -67 -21 -78 -21
-17 -1 43 2 58 12 54 7 -2 11 -17 9 -37z m935 20 c-1 -11 -5 -20 -9 -20 -11 0
-20 19 -13 30 11 17 24 11 22 -10z m-1411 -85 c-2 -14 -16 -22 -16 -10 0 3 0
10 0 15 0 6 4 10 9 10 5 0 8 -7 7 -15z m1044 -9 c0 -8 -4 -18 -10 -21 -5 -3
-10 3 -10 14 0 12 5 21 10 21 6 0 10 -6 10 -14z m-1010 -31 c0 -8 -4 -15 -9
-15 -5 0 -11 7 -15 15 -3 9 0 15 9 15 8 0 15 -7 15 -15z m1260 -4 c0 -16 -14
-20 -27 -10 -19 17 -16 28 7 22 11 -3 20 -9 20 -12z m-1062 2 c-10 -2 -26 -2
-35 0 -10 3 -2 5 17 5 19 0 27 -2 18 -5z m672 -12 c0 -11 -26 -22 -34 -14 -12
12 -5 23 14 23 11 0 20 -4 20 -9z m15 -31 c3 -5 -1 -10 -10 -10 -9 0 -13 5
-10 10 3 6 8 10 10 10 2 0 7 -4 10 -10z m-888 -6 c-3 -3 -12 -4 -19 -1 -8 3
-5 6 6 6 11 1 17 -2 13 -5z m190 0 c-3 -3 -12 -4 -19 -1 -8 3 -5 6 6 6 11 1
17 -2 13 -5z m276 -1 c-13 -2 -35 -2 -50 0 -16 2 -5 4 22 4 28 0 40 -2 28 -4z
m157 3 c0 -3 -4 -8 -10 -11 -5 -3 -10 -1 -10 4 0 6 5 11 10 11 6 0 10 -2 10
-4z m-52 -38 c20 -20 14 -28 -18 -24 -36 4 -45 10 -35 25 8 15 38 14 53 -1z
m122 -10 c0 -19 -2 -20 -10 -8 -13 19 -13 30 0 30 6 0 10 -10 10 -22z m164
-23 c3 -8 2 -15 -3 -15 -5 0 -14 7 -21 15 -10 12 -10 15 3 15 8 0 17 -7 21
-15z m556 5 c0 -5 -4 -10 -10 -10 -5 0 -10 5 -10 10 0 6 5 10 10 10 6 0 10 -4
10 -10z m-798 -80 c0 -65 -5 -59 63 -73 12 -3 7 -5 -12 -6 -33 -1 -33 -1 -33
-51 0 -47 2 -50 25 -50 14 0 25 4 25 9 0 5 20 31 44 57 24 27 46 59 50 72 8
23 30 30 41 12 3 -6 -1 -13 -9 -16 -9 -3 -16 -11 -16 -17 0 -6 -17 -28 -37
-49 -20 -21 -31 -38 -24 -38 7 0 9 -5 6 -10 -4 -6 -11 -8 -16 -4 -6 3 -17 -3
-25 -15 -8 -12 -24 -21 -35 -21 -21 0 -26 -16 -8 -22 13 -4 -1 -28 -101 -168
-33 -47 -60 -90 -60 -97 0 -6 -9 -9 -20 -6 -11 3 -20 11 -20 19 0 7 6 11 13 9
13 -5 67 60 67 82 0 7 -7 13 -15 13 -8 0 -15 5 -15 10 0 6 5 10 10 10 6 0 10
7 10 15 0 15 10 19 42 16 9 -1 30 17 48 44 45 65 32 75 -97 75 -87 0 -100 -2
-111 -20 -7 -11 -17 -20 -23 -20 -5 0 -7 5 -4 10 3 6 0 10 -9 10 -8 0 -17 -6
-19 -12 -3 -7 -6 1 -6 17 -1 17 -4 40 -7 53 -4 12 -2 22 4 22 6 0 12 -12 14
-27 2 -22 9 -29 31 -31 15 -2 27 1 27 7 0 7 36 11 100 11 l100 0 0 50 c0 41
-3 50 -17 50 -14 0 -15 2 -5 9 8 4 13 17 12 27 -4 39 0 117 7 111 3 -4 6 -34
5 -67z m-306 24 c1 -30 -1 -32 -18 -23 -11 6 -17 16 -15 24 3 7 1 17 -5 23 -6
6 -2 9 14 9 19 0 23 -5 24 -33z m3181 -46 c-2 -13 -4 -3 -4 22 0 25 2 35 4 23
2 -13 2 -33 0 -45z m-1617 -48 c0 -40 -4 -70 -10 -70 -6 0 -10 30 -10 70 0 40
4 70 10 70 6 0 10 -30 10 -70z m-1926 45 c3 -8 12 -12 20 -9 8 3 17 1 21 -5 3
-7 -2 -11 -14 -11 -12 0 -21 -6 -21 -12 0 -7 -9 -2 -19 12 -19 23 -19 40 -1
40 4 0 10 -7 14 -15z m130 -30 c1 -20 -2 -39 -6 -41 -5 -3 -8 16 -8 42 0 54
11 53 14 -1z m356 -13 c-7 -13 -9 -8 -9 23 0 35 1 37 10 17 6 -15 5 -30 -1
-40z m-2353 16 c-3 -8 -6 -5 -6 6 -1 11 2 17 5 13 3 -3 4 -12 1 -19z m3123
-19 c0 -16 -4 -29 -10 -29 -5 0 -10 16 -10 36 0 21 4 33 10 29 6 -3 10 -19 10
-36z m130 27 c0 -11 -19 -15 -25 -6 -3 5 1 10 9 10 9 0 16 -2 16 -4z m-900
-56 c0 -5 -2 -10 -4 -10 -3 0 -8 5 -11 10 -3 6 -1 10 4 10 6 0 11 -4 11 -10z
m40 -50 c0 -5 -4 -10 -10 -10 -5 0 -10 5 -10 10 0 6 5 10 10 10 6 0 10 -4 10
-10z m-3973 -46 c-3 -3 -12 -4 -19 -1 -8 3 -5 6 6 6 11 1 17 -2 13 -5z m316
-1 c-7 -2 -21 -2 -30 0 -10 3 -4 5 12 5 17 0 24 -2 18 -5z m3261 -171 c-7
-109 -9 -126 -14 -82 -8 90 0 258 12 237 6 -12 7 -66 2 -155z m-2698 130 c1
-6 2 -16 3 -22 0 -5 8 -10 17 -10 10 0 14 6 10 15 -3 8 -2 16 2 16 49 8 63 7
59 -5 -4 -9 3 -12 21 -8 20 3 24 1 16 -7 -5 -6 -28 -13 -51 -15 -53 -4 -63
-12 -63 -46 0 -31 13 -40 50 -30 17 4 21 8 12 14 -17 10 3 45 25 42 24 -4 27
-21 8 -40 -15 -15 -14 -16 13 -16 16 0 56 -3 89 -6 l61 -7 -5 27 c-3 16 -1 26
7 26 18 0 49 -42 50 -68 0 -20 -4 -22 -22 -17 -13 4 -27 11 -33 16 -5 5 -25 8
-45 8 -23 -1 -27 -3 -12 -6 27 -5 29 -23 2 -23 -18 0 -20 -7 -20 -60 0 -52 2
-60 19 -60 10 0 21 7 25 15 3 9 0 15 -10 15 -8 0 -12 5 -9 10 4 6 11 8 16 5 5
-4 9 1 9 10 0 9 5 13 10 10 14 -9 8 -85 -6 -85 -6 0 -26 3 -43 6 -31 6 -31 7
-31 70 l0 64 -35 0 c-28 0 -35 -4 -35 -19 0 -11 -3 -27 -7 -37 -5 -13 -3 -16
9 -11 21 8 30 -3 17 -20 -6 -7 -9 -21 -6 -32 7 -26 -10 -52 -19 -28 -3 9 -11
17 -18 17 -6 0 -18 9 -26 20 -22 31 -40 25 -40 -14 l0 -34 -62 4 c-35 3 -80
10 -100 16 -36 11 -38 14 -38 52 0 31 -3 37 -12 28 -13 -13 -29 -16 -27 -4 4
24 -3 42 -16 42 -8 0 -15 5 -15 10 0 6 2 10 4 10 2 0 11 3 19 6 10 3 17 -1 19
-13 3 -15 4 -16 10 -2 12 30 -5 39 -47 25 -22 -8 -44 -11 -50 -8 -5 4 1 9 15
12 14 3 34 10 45 17 16 9 17 13 6 27 -8 9 -11 20 -7 24 4 4 13 0 19 -8 7 -8
26 -16 44 -16 24 -1 33 3 38 20 l8 21 4 -22 c4 -19 11 -23 41 -23 20 0 47 -3
60 -6 20 -6 22 -3 22 40 0 27 -5 46 -11 46 -6 0 -9 6 -6 14 3 8 1 17 -6 20 -7
3 -3 5 8 3 11 -1 21 -8 21 -15z m651 12 c-3 -3 -12 -4 -19 -1 -8 3 -5 6 6 6
11 1 17 -2 13 -5z m2689 -2 c9 -6 34 -64 34 -78 0 -16 -20 3 -38 35 -28 50
-27 64 4 43z m1737 -9 c-7 -2 -19 -2 -25 0 -7 3 -2 5 12 5 14 0 19 -2 13 -5z
m610 0 c-7 -2 -19 -2 -25 0 -7 3 -2 5 12 5 14 0 19 -2 13 -5z m720 0 c-24 -2
-62 -2 -85 0 -24 2 -5 4 42 4 47 0 66 -2 43 -4z m80 0 c-7 -2 -19 -2 -25 0 -7
3 -2 5 12 5 14 0 19 -2 13 -5z m-2733 -13 c0 -5 -4 -10 -10 -10 -5 0 -10 5
-10 10 0 6 5 10 10 10 6 0 10 -4 10 -10z m846 -30 c7 0 16 -5 20 -12 5 -8 0
-9 -14 -6 -18 5 -22 2 -22 -18 0 -13 -4 -24 -10 -24 -5 0 -10 24 -9 53 0 45 2
49 11 30 6 -13 17 -23 24 -23z m67 10 c-4 -14 0 -20 11 -20 9 0 16 -4 16 -10
0 -5 -7 -10 -15 -10 -8 0 -15 -4 -15 -10 0 -5 7 -10 15 -10 8 0 15 -4 15 -10
0 -5 -7 -10 -15 -10 -9 0 -12 -6 -9 -15 4 -8 17 -15 30 -15 13 0 24 -4 24 -10
0 -5 -7 -10 -15 -10 -8 0 -15 -4 -15 -10 0 -5 7 -10 15 -10 8 0 15 -4 15 -10
0 -5 5 -10 11 -10 7 0 9 11 6 30 l-6 30 54 -3 c36 -1 55 -6 55 -15 0 -8 -11
-11 -32 -8 -20 2 -38 -2 -46 -10 -11 -12 -8 -15 17 -20 40 -8 39 -18 -1 -32
-30 -9 -31 -11 -11 -17 14 -4 20 -12 16 -22 -3 -8 -11 -12 -17 -10 -6 3 -11
-6 -11 -19 0 -14 6 -24 14 -24 12 0 11 -3 -2 -12 -11 -9 -15 -21 -10 -36 4
-17 8 -20 14 -11 4 8 12 10 16 5 4 -4 -1 -14 -11 -22 -20 -14 -20 -14 0 -15
16 -1 16 -2 2 -6 -14 -4 -15 -8 -6 -29 9 -19 8 -27 -2 -37 -10 -10 -12 -9 -7
5 3 10 1 20 -4 24 -7 4 -9 -3 -7 -17 1 -13 9 -24 16 -24 7 0 16 -6 21 -13 6
-10 10 -9 14 7 3 12 1 21 -4 21 -5 0 -9 4 -9 9 0 6 9 9 20 8 16 -1 19 -7 15
-35 -6 -45 -10 -48 -40 -28 -14 9 -25 15 -26 14 -9 -38 -5 -57 13 -61 14 -4
19 -11 14 -21 -3 -9 -9 -23 -12 -32 -5 -10 0 -17 15 -21 11 -3 18 -9 15 -14
-3 -5 4 -9 15 -9 12 0 21 -4 21 -10 0 -5 -18 -10 -40 -10 -31 0 -38 -3 -34
-15 4 -8 1 -15 -5 -15 -6 0 -11 7 -11 15 0 11 -12 15 -45 15 l-45 0 -2 -37 -1
-38 -4 38 c-4 37 -5 37 -49 37 -24 0 -44 5 -44 10 0 6 20 10 45 10 42 0 45 2
45 27 0 14 7 35 17 45 9 10 11 18 6 18 -13 0 -61 -39 -49 -40 9 0 -13 -30 -23
-30 -3 0 -6 14 -6 30 0 17 4 30 8 30 5 0 6 4 3 9 -3 5 3 11 14 14 26 7 26 24
0 32 -11 3 -25 15 -30 26 -15 26 -58 24 -84 -4 -19 -20 -21 -32 -18 -107 2
-56 8 -89 17 -96 9 -6 10 -15 5 -25 -8 -12 -12 -11 -24 6 -11 14 -15 45 -16
103 0 96 -4 100 -79 82 -54 -13 -74 -33 -84 -88 -6 -28 -4 -35 13 -39 28 -7
25 -18 -5 -19 l-25 -2 0 123 c0 114 -1 123 -18 118 -12 -3 -19 1 -19 11 0 9 9
16 19 16 15 0 18 8 18 55 l0 55 93 1 c50 1 109 2 129 3 25 1 38 -3 38 -11 0
-8 -13 -13 -32 -13 l-33 0 -2 -70 c-2 -61 0 -70 15 -69 23 1 70 17 55 18 -13
1 -12 14 2 59 8 24 24 30 26 10 0 -7 2 -23 3 -36 2 -13 -1 -25 -6 -28 -10 -6
102 -114 118 -114 13 0 24 22 24 46 0 10 -12 14 -39 14 -37 0 -40 2 -38 28 2
21 -2 26 -15 24 -10 -2 -18 2 -18 8 0 5 9 10 21 10 18 0 20 5 17 53 -3 44 -6
52 -22 52 -25 0 -45 53 -25 66 22 13 5 20 -55 22 -41 1 -59 -2 -66 -13 -7 -11
-10 -6 -10 20 0 22 3 30 8 22 6 -8 28 -12 65 -10 44 2 54 5 45 15 -7 8 -7 13
0 13 5 0 15 -7 22 -15 15 -18 40 -20 40 -2 0 6 -13 27 -29 46 l-28 34 -82 -28
c-79 -28 -82 -28 -116 -12 -22 11 -60 17 -100 17 -37 0 -65 4 -65 10 0 6 14
10 30 10 l30 0 0 60 c0 33 4 60 10 60 6 0 10 -16 10 -35 0 -19 5 -35 10 -35 6
0 10 -7 10 -15 0 -8 5 -15 10 -15 6 0 10 4 10 8 0 10 65 15 102 7 21 -5 28
-12 28 -30 0 -24 0 -24 41 -10 23 8 52 15 66 15 14 0 26 7 29 18 3 9 10 26 15
37 5 11 11 31 13 45 3 14 5 26 5 28 1 2 5 1 10 -2 5 -3 7 -15 4 -26z m-1343
-20 c28 -15 14 -41 -21 -38 -30 2 -33 6 -23 32 7 19 18 20 44 6z m361 -10 c13
-10 19 -19 13 -20 -7 0 -22 9 -35 20 -13 10 -19 19 -13 20 7 0 22 -9 35 -20z
m-1061 -20 c0 -30 -23 -51 -38 -35 -4 4 -1 10 6 12 6 3 12 16 12 29 0 13 5 24
10 24 6 0 10 -14 10 -30z m925 20 c-3 -5 -14 -10 -23 -10 -15 0 -15 2 -2 10
20 13 33 13 25 0z m983 -29 c-14 -22 -34 -30 -24 -8 3 6 9 20 12 30 4 12 10
15 16 9 6 -6 5 -17 -4 -31z m-1968 10 c0 -11 -9 -23 -21 -26 -27 -9 -33 -1
-19 24 14 26 40 27 40 2z m343 -1 c-3 -11 0 -20 6 -20 6 0 11 -4 11 -10 0 -19
-28 -10 -44 14 -16 25 -14 28 26 35 3 0 4 -8 1 -19z m732 10 c3 -5 -3 -10 -14
-10 -12 0 -21 5 -21 10 0 6 6 10 14 10 8 0 18 -4 21 -10z m1093 -15 c0 -28
-13 -33 -22 -9 -9 24 -7 34 8 34 8 0 14 -10 14 -25z m-1238 -10 c-7 -9 -15
-13 -17 -11 -7 7 7 26 19 26 6 0 6 -6 -2 -15z m1274 -10 c3 -9 0 -15 -9 -15
-8 0 -15 7 -15 15 0 8 4 15 9 15 5 0 11 -7 15 -15z m-1794 -50 c0 -8 -4 -15
-9 -15 -5 0 -11 7 -15 15 -3 9 0 15 9 15 8 0 15 -7 15 -15z m-433 -11 c-3 -3
-12 -4 -19 -1 -8 3 -5 6 6 6 11 1 17 -2 13 -5z m-3072 -39 c-5 -2 -22 -6 -37
-9 -16 -4 -28 -13 -28 -21 0 -8 -4 -15 -10 -15 -5 0 -10 11 -10 25 0 23 3 25
48 24 26 0 43 -2 37 -4z m2965 -50 c0 -30 -4 -55 -10 -55 -5 0 -10 25 -10 55
0 30 5 55 10 55 6 0 10 -25 10 -55z m1274 -13 c-4 -4 -9 -1 -12 7 -4 11 -6 11
-13 0 -7 -12 -9 -12 -9 0 0 8 8 20 18 27 15 11 17 10 20 -8 2 -11 0 -23 -4
-26z m726 28 c0 -5 -9 -10 -20 -10 -16 0 -20 -7 -21 -32 -2 -32 -2 -32 -6 -5
-3 16 -2 35 1 43 6 16 46 19 46 4z m13 -34 c6 -14 -19 -44 -28 -34 -7 6 6 48
15 48 4 0 10 -6 13 -14z m-1633 0 c0 -11 -19 -15 -25 -6 -3 5 1 10 9 10 9 0
16 -2 16 -4z m295 -10 c-11 -8 -25 -12 -32 -9 -20 8 -4 23 25 23 24 0 25 -1 7
-14z m585 -11 c0 -8 -6 -15 -14 -15 -17 0 -28 14 -19 24 12 12 33 6 33 -9z
m-4180 -35 c0 -11 5 -20 10 -20 22 0 8 -19 -17 -22 -35 -4 -43 -28 -9 -28 15
0 31 8 38 20 7 11 18 20 25 20 18 0 16 -10 -4 -26 -17 -13 -17 -14 0 -8 9 3
17 2 17 -4 0 -5 -22 -12 -50 -16 l-50 -7 0 -39 0 -40 58 6 c31 4 61 10 67 15
5 5 17 9 27 9 12 0 18 8 18 25 0 21 -3 23 -22 16 -13 -4 -34 -4 -48 0 -15 4
-18 7 -8 8 10 1 18 12 21 29 4 26 5 26 12 5 4 -12 17 -23 29 -25 16 -2 22 -11
24 -40 3 -35 1 -38 -22 -38 -14 0 -27 -4 -30 -9 -3 -5 -27 -8 -54 -8 -26 0
-53 -3 -60 -7 -8 -5 -12 -39 -12 -102 0 -91 -1 -94 -19 -84 -11 5 -29 10 -40
10 -12 0 -21 7 -21 15 0 8 -8 15 -19 15 -21 0 -45 23 -34 33 3 4 16 7 27 7 19
0 18 2 -8 23 -20 16 -25 26 -18 31 7 4 12 18 12 32 0 14 5 34 10 44 9 17 5 20
-35 26 l-45 6 1 62 c1 33 3 53 6 44 6 -23 23 -23 23 -1 0 22 15 6 25 -25 6
-21 4 -23 -14 -17 -18 5 -21 2 -21 -19 0 -20 5 -26 23 -26 58 0 81 23 89 90 2
14 8 24 13 22 17 -4 12 -45 -7 -71 -22 -29 -19 -34 14 -26 17 4 24 14 26 33 1
15 9 32 17 38 8 6 15 19 15 28 0 9 5 16 10 16 6 0 10 -9 10 -20z m2880 10 c0
-5 -5 -10 -11 -10 -5 0 -7 5 -4 10 3 6 8 10 11 10 2 0 4 -4 4 -10z m-2777 -27
c-13 -2 -33 -2 -45 0 -13 2 -3 4 22 4 25 0 35 -2 23 -4z m724 0 c-20 -2 -52
-2 -70 0 -17 2 0 4 38 4 39 0 53 -2 32 -4z m411 0 c-27 -2 -69 -2 -95 0 -27 2
-5 3 47 3 52 0 74 -1 48 -3z m1677 -3 c4 -6 -5 -10 -19 -10 -24 0 -26 -4 -26
-40 l0 -40 45 0 c28 0 44 4 42 11 -1 6 4 14 11 16 6 3 12 -2 12 -10 0 -9 8
-18 18 -20 18 -5 -60 -8 -258 -9 -102 -1 -130 -5 -155 -20 -16 -10 -42 -18
-57 -18 -34 0 -39 -29 -5 -31 16 -1 18 -2 5 -6 -12 -3 -18 -14 -18 -31 0 -34
15 -59 24 -43 4 6 4 16 1 21 -3 6 1 10 9 10 9 0 16 -9 16 -20 0 -24 13 -26 34
-5 17 18 22 12 31 -36 4 -24 3 -39 -5 -44 -6 -4 -16 -19 -21 -33 -10 -25 -11
-26 -24 -9 -7 10 -17 17 -21 16 -23 -4 -34 3 -34 20 0 24 -13 33 -34 25 -11
-4 -16 -19 -16 -46 0 -23 4 -37 10 -33 5 3 20 -1 32 -9 22 -16 21 -16 -20 -16
-29 0 -42 4 -41 13 1 6 1 31 0 55 -1 38 -3 42 -27 42 -14 0 -23 4 -19 10 3 6
-2 10 -11 10 -15 0 -16 2 -5 13 10 10 15 9 25 -5 15 -21 33 -23 38 -6 3 7 0
37 -5 68 -5 30 -9 60 -10 67 0 6 -9 14 -19 16 -16 5 -18 -1 -18 -49 0 -49 -2
-54 -22 -54 -13 0 -41 7 -63 15 -55 20 -95 18 -119 -4 -20 -19 -42 -25 -78
-22 -33 2 -18 21 16 21 19 0 44 8 55 18 l22 17 -21 23 c-17 18 -28 21 -56 16
-32 -6 -34 -5 -34 23 0 17 -9 40 -20 53 -11 13 -20 27 -20 31 0 13 17 19 34
13 12 -4 16 -20 16 -56 0 -50 0 -50 29 -43 23 5 36 0 63 -24 23 -20 56 -35
102 -45 37 -9 69 -16 72 -16 2 0 4 23 4 50 0 47 2 50 26 50 14 0 23 4 19 10
-3 5 -13 6 -23 3 -14 -6 -15 -4 -4 9 7 9 22 18 33 21 17 5 20 2 16 -14 -4 -14
2 -23 21 -33 15 -7 33 -11 39 -9 21 8 71 58 76 78 4 12 5 8 4 -10 l-3 -30 133
-3 133 -3 0 41 0 40 -65 0 c-37 0 -65 4 -65 10 0 6 38 10 94 10 53 0 98 -4
101 -10z m-225 -10 c23 -7 23 -8 3 -9 -12 -1 -25 -5 -28 -11 -10 -17 -25 -11
-25 10 0 21 9 23 50 10z m2405 0 c-3 -5 -11 -10 -16 -10 -6 0 -7 5 -4 10 3 6
11 10 16 10 6 0 7 -4 4 -10z m-3084 -93 c-8 -8 -11 -8 -11 1 0 7 -7 12 -16 12
-13 0 -14 3 -4 15 7 8 16 12 21 9 5 -3 10 1 10 8 1 7 4 2 6 -11 3 -13 0 -28
-6 -34z m2699 43 c0 -5 -5 -10 -11 -10 -5 0 -7 5 -4 10 3 6 8 10 11 10 2 0 4
-4 4 -10z m-2465 -32 c-2 -28 -35 -38 -35 -11 0 21 19 45 30 38 4 -2 6 -14 5
-27z m-540 3 c-3 -6 -11 -11 -17 -11 -6 0 -6 6 2 15 14 17 26 13 15 -4z m363
3 c24 -7 31 -24 9 -24 -15 0 -57 29 -42 30 6 0 20 -3 33 -6z m982 -18 c0 -8
-8 -16 -17 -20 -10 -3 -24 -9 -30 -12 -8 -3 -13 1 -13 10 0 9 8 16 20 16 11 0
20 7 20 16 0 8 5 12 10 9 6 -3 10 -12 10 -19z m640 14 c0 -5 -2 -10 -4 -10 -3
0 -8 5 -11 10 -3 6 -1 10 4 10 6 0 11 -4 11 -10z m-955 -40 c4 -6 -5 -10 -19
-10 -14 0 -26 5 -26 10 0 6 9 10 19 10 11 0 23 -4 26 -10z m1345 -55 c0 -19
-4 -35 -10 -35 -5 0 -10 16 -10 35 0 19 5 35 10 35 6 0 10 -16 10 -35z m-1430
-5 c0 -5 -5 -10 -11 -10 -5 0 -7 5 -4 10 3 6 8 10 11 10 2 0 4 -4 4 -10z
m-568 -62 c-2 -10 -8 -18 -12 -18 -11 0 -19 37 -13 61 5 20 6 20 17 -3 7 -13
10 -31 8 -40z m1746 50 c-6 -18 -28 -21 -28 -4 0 9 7 16 16 16 9 0 14 -5 12
-12z m-2241 -90 c-2 -18 -4 -6 -4 27 0 33 2 48 4 33 2 -15 2 -42 0 -60z m1591
57 c-3 -3 -9 2 -12 12 -6 14 -5 15 5 6 7 -7 10 -15 7 -18z m822 0 c0 -8 -7
-11 -20 -8 -16 4 -18 8 -9 19 13 16 29 10 29 -11z m850 -5 c0 -5 -4 -10 -10
-10 -5 0 -10 5 -10 10 0 6 5 10 10 10 6 0 10 -4 10 -10z m35 -27 c-6 -24 -8
-25 -16 -10 -7 12 -6 21 3 31 18 19 22 12 13 -21z m-1968 21 c-3 -3 -12 -4
-19 -1 -8 3 -5 6 6 6 11 1 17 -2 13 -5z m2743 2 c0 -9 -40 -13 -46 -5 -3 5 6
9 20 9 14 0 26 -2 26 -4z m-40 -40 c0 -3 -7 -6 -15 -6 -9 0 -15 9 -15 21 0 18
2 19 15 5 8 -8 15 -17 15 -20z m-2730 -30 c0 -11 -19 -15 -25 -6 -3 5 1 10 9
10 9 0 16 -2 16 -4z m1823 -23 c-7 -2 -21 -2 -30 0 -10 3 -4 5 12 5 17 0 24
-2 18 -5z m-3126 -55 c-2 -13 -4 -5 -4 17 -1 22 1 32 4 23 2 -10 2 -28 0 -40z
m774 -1 c-13 -13 -15 1 -4 30 7 17 8 17 11 -1 2 -10 -1 -23 -7 -29z m-2574 4
c10 -16 9 -20 -9 -24 -30 -8 -46 2 -41 24 7 24 35 25 50 0z m5506 -6 c-3 -8
-11 -15 -18 -15 -7 0 -22 -3 -32 -7 -16 -6 -16 -5 -4 11 8 9 20 15 28 12 7 -3
13 1 13 10 0 8 4 13 10 9 5 -3 7 -12 3 -20z m-547 -27 c3 -13 15 -35 25 -50
24 -34 25 -68 2 -68 -14 0 -15 2 -4 9 11 7 10 15 -9 46 -16 25 -26 33 -33 26
-7 -7 -14 -5 -23 7 -18 23 -17 32 1 32 8 0 15 5 15 10 0 19 19 10 26 -12z
m-2399 -30 c-3 -7 -5 -2 -5 12 0 14 2 19 5 13 2 -7 2 -19 0 -25z m538 2 c-3
-5 -13 -10 -21 -10 -8 0 -12 5 -9 10 3 6 13 10 21 10 8 0 12 -4 9 -10z m1915
2 c0 -13 -12 -22 -22 -16 -10 6 -1 24 13 24 5 0 9 -4 9 -8z m-1790 -37 c0 -33
-15 -33 -16 0 -1 14 2 25 7 25 5 0 9 -11 9 -25z m-657 -15 c3 -11 1 -20 -4
-20 -5 0 -9 9 -9 20 0 11 2 20 4 20 2 0 6 -9 9 -20z m1597 -10 c0 -11 5 -20
10 -20 6 0 10 -7 10 -16 0 -11 -5 -14 -16 -10 -9 3 -19 6 -24 6 -10 0 -21 41
-14 52 10 16 34 8 34 -12z m289 11 c10 -7 11 -13 2 -30 -13 -24 -26 -29 -17
-6 4 12 -3 15 -34 15 -31 0 -38 3 -34 15 7 16 60 20 83 6z m-1349 -192 c0 -5
4 -7 10 -4 5 3 7 0 4 -9 -8 -22 -31 -27 -45 -10 -10 13 -10 17 2 25 19 12 29
11 29 -2z m2417 -91 c-3 -7 -5 -2 -5 12 0 14 2 19 5 13 2 -7 2 -19 0 -25z
m-2512 2 c-3 -5 -15 -10 -26 -10 -10 0 -19 5 -19 10 0 6 12 10 26 10 14 0 23
-4 19 -10z m1515 0 c0 -5 -4 -10 -10 -10 -5 0 -10 5 -10 10 0 6 5 10 10 10 6
0 10 -4 10 -10z m-1207 -26 c-21 -16 -53 -18 -53 -4 0 6 9 10 19 10 11 0 23 5
26 10 4 6 11 8 16 4 6 -3 3 -12 -8 -20z m73 2 c1 -9 -2 -16 -8 -14 -6 2 -12
12 -14 22 -1 9 2 16 8 14 6 -2 12 -12 14 -22z m-39 -8 c-3 -8 -6 -5 -6 6 -1
11 2 17 5 13 3 -3 4 -12 1 -19z m-403 -23 c-4 -8 -8 -15 -10 -15 -2 0 -4 7 -4
15 0 8 4 15 10 15 5 0 7 -7 4 -15z m210 -18 c-7 -18 -24 -23 -24 -8 0 22 13
42 22 33 5 -5 6 -16 2 -25z m153 1 c-3 -8 -6 -5 -6 6 -1 11 2 17 5 13 3 -3 4
-12 1 -19z m-302 -29 c-9 -14 -32 -11 -38 5 -3 8 -3 17 0 20 9 9 44 -14 38
-25z m-69 -15 c-4 -9 -9 -15 -11 -12 -3 3 -3 13 1 22 4 9 9 15 11 12 3 -3 3
-13 -1 -22z m-2919 -66 c-2 -18 -4 -6 -4 27 0 33 2 48 4 33 2 -15 2 -42 0 -60z
m1740 -30 c-2 -24 -4 -7 -4 37 0 44 2 63 4 43 2 -21 2 -57 0 -80z m-789 -75
c-49 -2 -127 -2 -175 0 -49 1 -9 3 87 3 96 0 136 -2 88 -3z m3262 -155 c0 -16
-4 -28 -10 -28 -5 0 -10 19 -10 43 0 31 3 38 10 27 5 -8 10 -27 10 -42z m420
-8 c0 -5 -7 -10 -15 -10 -8 0 -15 5 -15 10 0 6 7 10 15 10 8 0 15 -4 15 -10z
m-1586 -35 c11 -8 16 -18 12 -22 -3 -4 -16 3 -28 15 -25 25 -13 29 16 7z
m1154 -32 c-15 -2 -42 -2 -60 0 -18 2 -6 4 27 4 33 0 48 -2 33 -4z m-1553 -17
c23 -17 13 -46 -15 -46 -12 0 -18 -4 -15 -10 3 -5 -7 -12 -22 -16 -15 -4 -33
-11 -39 -16 -16 -12 -44 1 -37 18 3 8 11 14 19 14 8 0 14 10 14 25 0 39 58 58
95 31z m-15 -91 c0 -8 -4 -15 -10 -15 -5 0 -10 7 -10 15 0 8 5 15 10 15 6 0
10 -7 10 -15z m574 -35 c-6 -46 -5 -50 15 -50 14 0 21 -6 21 -20 0 -22 -25
-28 -33 -7 -3 6 -6 -23 -6 -65 -1 -45 -5 -78 -11 -78 -5 0 -10 7 -10 16 0 8
-4 13 -9 10 -5 -3 -7 -14 -4 -24 2 -10 -1 -31 -7 -46 -8 -22 -14 -26 -22 -18
-8 8 -16 8 -23 2 -8 -6 -18 -5 -30 4 -18 13 -17 16 24 56 33 32 40 45 29 51
-9 6 -16 1 -24 -17 -13 -32 -25 -12 -17 30 4 20 8 24 14 14 7 -10 9 -10 9 0 0
6 9 12 20 12 11 0 20 -7 20 -16 0 -8 5 -12 10 -9 15 9 12 44 -5 61 -9 9 -15
11 -15 4 0 -6 -4 -8 -10 -5 -15 10 -12 35 5 35 8 0 15 7 15 15 0 11 -7 14 -25
9 -14 -3 -25 -4 -25 0 0 7 63 41 73 38 4 -1 7 9 7 23 0 14 5 25 10 25 7 0 8
-18 4 -50z m-196 11 c3 -9 0 -11 -8 -6 -7 4 -15 3 -19 -3 -4 -6 -12 -7 -20 -3
-7 5 -10 14 -6 20 9 16 47 10 53 -8z m-398 -12 c0 -5 3 -8 8 -6 4 3 13 -1 19
-9 23 -23 -1 -22 -37 2 -30 21 -32 24 -12 24 12 0 22 -5 22 -11z m280 2 c0
-12 -48 -23 -63 -14 -7 5 1 10 23 14 19 4 36 7 38 8 1 0 2 -3 2 -8z m70 -57
c0 -3 -20 -4 -45 -3 -25 2 -45 4 -45 6 0 1 10 13 23 25 l22 24 23 -24 c12 -13
22 -25 22 -28z m588 24 c-3 -29 0 -33 20 -30 33 5 27 -7 -13 -24 -24 -9 -33
-19 -29 -29 4 -8 2 -15 -4 -15 -5 0 -12 -9 -15 -20 -4 -14 0 -20 11 -20 35 0
82 -71 53 -82 -4 -1 -12 -13 -15 -25 -7 -22 -5 -23 43 -23 27 0 53 -4 56 -10
4 -6 -19 -10 -61 -10 -63 0 -66 1 -61 21 5 20 3 21 -39 16 -36 -4 -52 0 -79
19 l-35 23 0 -39 c0 -22 -4 -40 -10 -40 -5 0 -10 20 -10 44 0 40 5 49 85 135
47 51 85 101 85 110 0 16 8 31 17 31 2 0 2 -15 1 -32z m-788 -13 c0 -10 -11
-15 -35 -15 -19 0 -35 5 -35 10 0 6 11 8 25 4 15 -4 25 -2 25 5 0 6 5 11 10
11 6 0 10 -7 10 -15z m-920 -101 c0 -7 -13 -18 -29 -25 -16 -7 -27 -17 -25
-21 3 -4 -2 -8 -10 -8 -10 0 -16 9 -16 21 0 13 5 19 13 16 7 -3 18 3 24 12 13
20 43 24 43 5z m2098 -41 c-4 -21 -74 -31 -91 -14 -8 8 -2 11 21 11 18 0 32 5
32 10 0 6 9 10 21 10 14 0 19 -5 17 -17z m-991 -109 c-3 -3 -12 -4 -19 -1 -8
3 -5 6 6 6 11 1 17 -2 13 -5z m-777 -354 c0 -11 -2 -20 -4 -20 -2 0 -6 9 -9
20 -3 11 -1 20 4 20 5 0 9 -9 9 -20z m-56 -12 c8 -32 7 -68 -1 -68 -5 0 -9 14
-10 32 -3 44 -11 49 -71 39 -48 -7 -62 -4 -45 12 3 4 32 7 64 7 50 0 57 -2 63
-22z m2341 -10 c-4 -9 -26 -12 -81 -10 -53 3 -74 0 -70 -7 4 -6 4 -16 0 -22
-4 -8 -12 -3 -20 12 -7 13 -13 27 -14 30 0 4 43 7 95 8 74 1 94 -1 90 -11z
m-212 -14 c8 -8 -3 -34 -15 -34 -5 0 -6 5 -3 10 3 6 1 10 -4 10 -6 0 -11 5
-11 10 0 11 23 14 33 4z m-2077 -41 c-11 -11 -17 4 -9 23 7 18 8 18 11 1 2
-10 1 -21 -2 -24z m2099 -14 c-4 -5 0 -10 7 -10 7 -1 -5 -5 -27 -8 l-40 -6 -3
-68 -3 -68 21 21 c11 11 18 25 15 30 -4 6 -2 10 2 10 5 0 14 -9 20 -19 11 -17
10 -21 -6 -26 -31 -9 -35 -35 -6 -35 14 0 25 5 25 10 0 6 5 10 10 10 17 0 11
-19 -11 -30 -11 -6 -33 -12 -49 -12 -29 -1 -49 -32 -26 -42 6 -2 -4 -5 -21 -5
-25 -1 -33 3 -33 17 0 28 23 72 38 72 10 0 13 18 10 75 -3 71 -2 75 18 75 12
0 27 7 34 15 13 15 35 11 25 -6z m109 7 c-7 -19 -51 -26 -65 -10 -8 10 -3 14
23 17 18 2 36 5 40 5 4 1 5 -4 2 -12z m-2254 -21 c0 -9 -9 -15 -25 -15 -20 0
-25 -5 -25 -24 0 -30 -15 -42 -24 -20 -4 10 -12 14 -22 10 -10 -4 -14 -1 -11
6 2 7 12 13 23 13 12 0 18 6 16 17 -2 12 6 18 30 21 18 2 34 5 36 5 1 1 2 -5
2 -13z m-112 -20 c-8 -8 -48 8 -42 16 3 5 14 4 25 -2 12 -6 19 -12 17 -14z
m2149 -16 c12 -31 8 -59 -8 -59 -5 0 -9 6 -9 14 0 7 -3 28 -6 45 -8 40 8 40
23 0z m87 -1 c18 -25 20 -38 7 -38 -5 0 -16 14 -25 30 -17 35 -4 40 18 8z
m-2104 -52 c0 -8 -4 -18 -10 -21 -5 -3 -10 3 -10 14 0 12 5 21 10 21 6 0 10
-6 10 -14z m3367 -23 c-3 -10 -5 -4 -5 12 0 17 2 24 5 18 2 -7 2 -21 0 -30z
m-3443 11 c3 -9 6 -29 6 -45 0 -21 5 -29 18 -30 16 -1 16 -2 0 -6 -11 -3 -18
-14 -18 -29 0 -13 -4 -24 -10 -24 -5 0 -10 13 -10 29 0 28 -1 29 -35 21 -32
-7 -35 -6 -34 14 0 11 3 15 6 9 8 -22 23 -14 23 12 0 14 -4 25 -10 25 -5 0
-10 6 -10 14 0 8 -8 17 -17 19 -10 3 5 5 33 6 39 1 53 -3 58 -15z m2286 -15
c0 -5 -16 -9 -35 -9 -22 0 -35 5 -35 13 0 9 11 12 35 9 19 -2 35 -8 35 -13z
m-2220 -16 c0 -14 -19 -38 -25 -32 -8 8 5 39 16 39 5 0 9 -3 9 -7z m2270 -31
c0 -15 -24 -42 -38 -42 -14 0 -21 37 -10 48 15 15 48 10 48 -6z m1147 -64 c-2
-13 -4 -5 -4 17 -1 22 1 32 4 23 2 -10 2 -28 0 -40z m-3590 -280 c-2 -24 -4
-5 -4 42 0 47 2 66 4 43 2 -24 2 -62 0 -85z m1293 -501 c0 -2 -10 -12 -22 -23
l-23 -19 19 23 c18 21 26 27 26 19z m-185 -100 c11 4 12 10 5 23 -7 13 -7 21
0 25 5 3 10 -1 10 -10 0 -9 4 -14 9 -10 6 3 14 -3 20 -12 9 -17 12 -16 40 5
50 36 70 8 30 -42 l-20 -26 38 -1 c35 0 36 -1 16 -11 -27 -13 -29 -23 -7 -32
9 -3 14 -12 11 -19 -4 -10 5 -13 29 -13 19 1 34 6 34 13 0 18 21 27 30 12 5
-7 6 -17 4 -21 -3 -4 2 -8 10 -8 12 0 15 9 12 38 l-4 39 134 2 c134 2 208 -5
199 -19 -2 -4 -25 -4 -50 0 l-46 7 4 -51 c5 -59 -4 -95 -13 -56 -5 22 -12 25
-55 28 -48 3 -49 3 -32 -16 9 -10 17 -28 17 -40 0 -19 6 -22 48 -23 51 -1 48
-4 -12 -14 -37 -6 -38 -7 -33 -41 3 -19 2 -34 -4 -34 -5 0 -9 -5 -9 -11 0 -6
7 -9 15 -6 8 4 17 2 20 -2 3 -5 -1 -11 -8 -14 -19 -7 -67 4 -67 15 0 6 -11 7
-26 4 -23 -6 -26 -4 -21 13 5 22 -8 30 -15 9 -3 -9 -8 -9 -19 0 -8 6 -42 35
-76 63 -38 30 -63 58 -63 70 0 10 -6 19 -12 20 -7 0 -24 2 -38 5 -34 5 -83 -9
-88 -27 -5 -12 -3 -12 11 0 18 14 22 5 9 -17 -10 -16 -42 -5 -42 14 0 18 -24
18 -61 -2 -17 -8 -36 -13 -42 -11 -14 5 58 37 83 37 10 0 21 7 24 16 9 23 7
34 -4 34 -5 0 -10 -9 -10 -20 0 -11 -4 -20 -10 -20 -5 0 -10 17 -10 38 0 31
-4 38 -20 38 -11 0 -20 -4 -20 -8 0 -4 -7 -8 -15 -8 -8 0 -15 3 -15 8 0 4 -42
7 -92 6 l-93 0 83 3 c49 2 80 8 77 13 -4 6 7 10 23 10 22 0 32 6 37 23 l8 22
4 -22 c7 -37 23 -26 23 15 0 48 14 65 18 23 2 -21 7 -28 17 -24z m512 -259
c-3 -8 -6 -5 -6 6 -1 11 2 17 5 13 3 -3 4 -12 1 -19z m0 -65 c-3 -10 -5 -2 -5
17 0 19 2 27 5 18 2 -10 2 -26 0 -35z"/>
<path d="M5910 6205 c-30 -30 -31 -35 -14 -35 24 0 64 35 64 55 0 23 -13 18
-50 -20z"/>
<path d="M5806 6091 c-29 -30 -34 -39 -24 -50 11 -11 9 -12 -10 -6 -23 7 -23
7 -7 -19 18 -27 38 -36 29 -13 -2 7 8 30 24 50 25 31 32 34 41 23 16 -19 -6
-56 -31 -56 -11 0 -18 -8 -18 -19 0 -11 -5 -21 -11 -23 -8 -3 -8 -12 3 -31
l14 -28 29 33 c16 18 28 42 26 52 -2 13 2 17 12 13 8 -3 23 3 33 14 9 10 23
19 30 19 7 0 18 9 24 20 13 25 10 25 -34 -1 -34 -20 -56 -19 -56 2 0 5 7 9 15
9 8 0 15 5 15 10 0 6 8 10 18 10 27 1 -6 16 -49 23 -32 5 -41 1 -73 -32z"/>
<path d="M5923 6018 c-23 -30 -24 -41 -2 -21 12 12 20 25 17 28 -3 3 -10 0
-15 -7z"/>
<path d="M5760 5947 c0 -14 20 -37 32 -37 4 0 2 11 -4 25 -12 27 -28 34 -28
12z"/>
<path d="M3956 5918 c-7 -46 -12 -118 -8 -118 2 0 12 5 23 10 20 11 23 37 13
103 -8 46 -21 48 -28 5z"/>
<path d="M3131 5666 c-10 -12 -8 -13 8 -9 12 3 18 9 15 14 -7 12 -10 11 -23
-5z"/>
<path d="M3113 5596 c4 -26 3 -55 -2 -65 -5 -9 -6 -23 -1 -30 6 -10 9 -8 15 8
4 13 15 21 30 21 27 0 40 26 24 46 -6 8 -22 14 -36 14 -19 0 -23 4 -18 19 3
11 0 23 -6 27 -9 5 -11 -5 -6 -40z"/>
<path d="M3140 5625 c0 -9 12 -20 26 -25 33 -13 34 -13 34 4 0 9 -8 12 -25 8
-20 -3 -24 -1 -19 12 3 9 1 16 -5 16 -6 0 -11 -7 -11 -15z"/>
<path d="M2770 5369 c0 -5 5 -7 10 -4 6 3 10 8 10 11 0 2 -4 4 -10 4 -5 0 -10
-5 -10 -11z"/>
<path d="M3858 5215 c-40 -27 -46 -39 -40 -72 5 -27 17 -29 38 -8 9 8 24 15
35 15 22 0 27 35 7 43 -10 4 -9 8 2 16 10 7 12 13 5 20 -8 8 -22 3 -47 -14z"/>
<path d="M3925 5230 c-3 -5 -4 -11 -1 -11 22 -5 32 -3 39 6 4 6 10 5 17 -5 8
-13 10 -12 10 3 0 12 -8 17 -29 17 -17 0 -33 -4 -36 -10z"/>
<path d="M4234 5225 c24 -18 69 -20 64 -2 -3 6 -22 13 -44 15 -37 2 -38 1 -20
-13z"/>
<path d="M4322 5224 c9 -9 21 -13 27 -9 16 10 3 25 -22 25 -20 0 -20 -1 -5
-16z"/>
<path d="M4370 5227 c0 -10 21 -13 84 -13 64 0 83 3 79 13 -7 19 -163 18 -163
0z"/>
<path d="M4550 5225 c0 -9 6 -12 15 -9 8 4 15 10 15 15 0 5 -7 9 -15 9 -8 0
-15 -7 -15 -15z"/>
<path d="M4190 5220 c0 -5 5 -10 11 -10 5 0 7 5 4 10 -3 6 -8 10 -11 10 -2 0
-4 -4 -4 -10z"/>
<path d="M4306 5191 c-3 -4 6 -13 20 -20 33 -15 34 -14 34 9 0 15 -7 20 -24
20 -14 0 -27 -4 -30 -9z"/>
<path d="M4371 5156 c1 -22 3 -33 6 -23 4 16 8 15 35 -8 23 -19 41 -25 79 -25
37 0 49 4 49 15 0 9 7 27 16 40 9 13 13 28 10 34 -3 5 -49 9 -101 9 l-95 0 1
-42z"/>
<path d="M4192 5145 l-2 -45 85 0 c47 0 85 4 85 8 0 25 -65 70 -92 64 -21 -4
-24 -32 -5 -51 10 -11 9 -13 -3 -9 -10 3 -15 18 -15 41 0 33 -3 37 -25 37 -23
0 -26 -4 -28 -45z"/>
<path d="M4378 5103 c6 -2 18 -2 25 0 6 3 1 5 -13 5 -14 0 -19 -2 -12 -5z"/>
<path d="M3831 5084 c0 -11 3 -14 6 -6 3 7 2 16 -1 19 -3 4 -6 -2 -5 -13z"/>
<path d="M3878 5093 c7 -3 16 -2 19 1 4 3 -2 6 -13 5 -11 0 -14 -3 -6 -6z"/>
<path d="M3618 5083 c7 -3 16 -2 19 1 4 3 -2 6 -13 5 -11 0 -14 -3 -6 -6z"/>
<path d="M3750 5049 c0 -26 1 -27 35 -16 19 6 35 13 35 16 0 3 -16 11 -35 17
-34 11 -35 10 -35 -17z"/>
<path d="M3830 5049 c0 -5 5 -7 10 -4 6 3 10 8 10 11 0 2 -4 4 -10 4 -5 0 -10
-5 -10 -11z"/>
<path d="M4681 4869 c-21 -8 -23 -14 -18 -55 5 -46 16 -68 24 -46 6 17 30 15
37 -3 3 -8 16 -15 28 -15 22 0 23 3 20 65 l-4 65 -31 -1 c-18 0 -43 -5 -56
-10z m68 -21 c10 -28 9 -30 -13 -22 -17 7 -23 44 -6 44 6 0 14 -10 19 -22z m1
-78 c0 -5 -5 -10 -11 -10 -5 0 -7 5 -4 10 3 6 8 10 11 10 2 0 4 -4 4 -10z"/>
<path d="M4630 4845 c0 -8 5 -15 10 -15 6 0 10 7 10 15 0 8 -4 15 -10 15 -5 0
-10 -7 -10 -15z"/>
<path d="M4585 4840 c-3 -5 3 -10 15 -10 12 0 18 5 15 10 -3 6 -10 10 -15 10
-5 0 -12 -4 -15 -10z"/>
<path d="M4618 4798 c9 -9 15 -9 24 0 9 9 7 12 -12 12 -19 0 -21 -3 -12 -12z"/>
<path d="M4790 4772 c0 -35 24 -54 58 -45 42 11 24 59 -26 69 -30 6 -32 5 -32
-24z"/>
<path d="M4800 4715 c0 -25 15 -33 35 -18 19 15 19 15 1 9 -12 -4 -23 -1 -28
6 -4 7 -8 9 -8 3z"/>
<path d="M4842 4644 c-7 -8 -17 -12 -22 -9 -5 3 -12 -15 -15 -40 -4 -25 -11
-45 -16 -45 -5 0 -9 -18 -9 -40 0 -22 3 -40 8 -40 14 1 82 117 82 141 0 36
-12 50 -28 33z"/>
<path d="M4860 4405 c0 -8 2 -15 4 -15 2 0 6 7 10 15 3 8 1 15 -4 15 -6 0 -10
-7 -10 -15z"/>
<path d="M4230 4380 c0 -5 5 -10 11 -10 5 0 7 5 4 10 -3 6 -8 10 -11 10 -2 0
-4 -4 -4 -10z"/>
<path d="M4345 4371 c-3 -6 -1 -11 4 -11 6 0 11 -4 11 -10 0 -5 -23 -7 -52 -5
-52 5 -52 4 -15 -6 47 -14 90 -5 85 18 -4 20 -24 28 -33 14z"/>
<path d="M4208 4343 c7 -3 16 -2 19 1 4 3 -2 6 -13 5 -11 0 -14 -3 -6 -6z"/>
<path d="M4770 4329 c0 -5 5 -7 10 -4 6 3 10 8 10 11 0 2 -4 4 -10 4 -5 0 -10
-5 -10 -11z"/>
<path d="M4177 4323 c-10 -9 -9 -53 2 -53 6 0 11 60 5 60 0 0 -4 -3 -7 -7z"/>
<path d="M4207 4323 c-4 -3 -7 -15 -7 -26 0 -16 5 -18 27 -12 31 7 53 23 53
36 0 10 -63 12 -73 2z"/>
<path d="M4192 4255 c2 -5 10 -22 17 -37 19 -37 2 -56 -52 -61 l-42 -4 46 -1
c25 -1 50 3 57 10 18 18 14 53 -9 79 -11 13 -19 20 -17 14z"/>
<path d="M3600 4175 c0 -8 9 -15 20 -15 11 0 20 7 20 15 0 8 -9 15 -20 15 -11
0 -20 -7 -20 -15z"/>
<path d="M3661 4163 c0 -16 3 -22 6 -15 2 6 13 12 24 12 10 0 19 7 19 15 0 9
-9 15 -25 15 -21 0 -25 -5 -24 -27z"/>
<path d="M3730 4181 c0 -5 16 -15 35 -21 19 -6 35 -15 35 -18 0 -4 14 -15 30
-24 l30 -17 0 44 0 45 -65 0 c-36 0 -65 -4 -65 -9z"/>
<path d="M3887 4184 c-9 -10 4 -34 19 -34 8 0 14 9 14 20 0 19 -19 27 -33 14z"/>
<path d="M3937 4176 c-6 -15 1 -26 15 -26 4 0 8 9 8 20 0 23 -15 27 -23 6z"/>
<path d="M3686 4142 c-7 -12 74 -60 108 -64 16 -2 31 2 33 8 9 25 -126 79
-141 56z"/>
<path d="M3590 4131 c0 -6 6 -8 14 -5 8 3 24 0 36 -6 18 -10 21 -9 18 2 -5 15
-68 24 -68 9z"/>
<path d="M4080 4130 c-8 -5 -12 -12 -9 -15 4 -3 12 1 19 10 14 17 11 19 -10 5z"/>
<path d="M3670 4099 c0 -11 5 -17 10 -14 6 4 25 -5 42 -20 18 -16 39 -24 50
-22 10 3 15 1 12 -5 -3 -5 0 -9 7 -7 30 4 50 -1 44 -11 -4 -6 -11 -7 -17 -4
-7 4 -8 2 -4 -4 10 -16 36 -3 36 18 0 13 -13 21 -47 29 -27 7 -65 23 -85 37
-46 29 -48 29 -48 3z"/>
<path d="M3566 4088 c-20 -29 -20 -39 2 -77 21 -39 68 -41 75 -4 2 13 -1 23
-7 23 -8 0 -8 2 1 8 12 7 16 25 14 55 -2 27 -65 23 -85 -5z"/>
<path d="M4027 4093 c-4 -3 -7 -19 -7 -34 0 -15 -5 -31 -11 -34 -7 -5 -9 3 -6
24 6 37 3 38 -27 9 -32 -33 -49 -75 -32 -81 16 -6 76 28 76 43 0 6 4 9 9 6 4
-3 8 12 8 34 0 43 0 44 -10 33z"/>
<path d="M3914 4065 c-18 -15 -18 -15 5 -13 14 2 26 9 29 16 5 17 -10 15 -34
-3z"/>
<path d="M3681 4015 c-25 -43 -26 -60 -6 -99 10 -18 13 -41 10 -58 -6 -27 -5
-28 29 -28 20 0 36 5 36 10 0 6 -6 10 -12 10 -10 0 -9 3 1 9 11 7 11 9 0 14
-11 4 -11 8 -2 14 12 8 3 36 -11 34 -25 -4 -30 -1 -18 11 19 19 14 28 -13 28
-14 0 -25 5 -25 10 0 6 8 10 19 10 12 0 20 9 23 24 9 44 -8 50 -31 11z"/>
<path d="M3872 4018 c2 -13 11 -24 23 -26 16 -3 18 -1 8 9 -20 20 -15 31 10
24 17 -5 19 -4 7 4 -27 19 -52 13 -48 -11z"/>
<path d="M4060 4025 c0 -9 -11 -27 -25 -40 -22 -23 -22 -25 -5 -25 10 0 22 -4
25 -10 3 -5 1 -10 -4 -10 -6 0 -11 -7 -11 -15 0 -10 11 -15 35 -15 37 0 49 22
19 34 -12 5 -14 9 -5 20 8 10 8 16 -3 25 -8 7 -13 18 -10 26 3 7 1 16 -5 20
-6 3 -11 -1 -11 -10z"/>
<path d="M3800 3980 c0 -6 7 -10 15 -10 8 0 15 2 15 4 0 2 -7 6 -15 10 -8 3
-15 1 -15 -4z"/>
<path d="M3868 3973 c7 -3 16 -2 19 1 4 3 -2 6 -13 5 -11 0 -14 -3 -6 -6z"/>
<path d="M3770 3923 c0 -25 1 -26 25 -17 13 5 14 8 3 15 -10 7 -10 9 0 9 6 0
12 4 12 8 0 4 -9 8 -20 8 -14 0 -20 -7 -20 -23z"/>
<path d="M3870 3926 c0 -10 9 -16 21 -16 24 0 21 23 -4 28 -10 2 -17 -3 -17
-12z"/>
<path d="M3985 3929 c-16 -5 -36 -7 -42 -4 -7 2 -13 0 -13 -5 0 -6 20 -10 45
-10 33 0 45 4 45 15 0 8 -1 15 -2 14 -2 0 -16 -5 -33 -10z"/>
<path d="M3769 3888 c-6 -27 -5 -38 7 -42 16 -6 20 29 4 39 -5 3 -10 5 -11 3z"/>
<path d="M3816 3882 c-3 -3 -6 -16 -6 -29 0 -18 5 -23 26 -23 14 0 23 4 19 10
-3 6 1 10 9 10 8 0 18 -4 21 -10 12 -20 25 -9 25 20 0 24 -4 30 -21 30 -18 0
-19 -2 -9 -15 10 -13 9 -15 -9 -15 -11 0 -20 5 -18 11 2 12 -28 21 -37 11z"/>
<path d="M3930 3861 c0 -26 4 -30 33 -33 l32 -3 -2 -69 c-4 -90 -13 -99 -13
-13 0 53 -3 67 -15 67 -8 0 -15 -7 -15 -15 0 -8 -5 -15 -11 -15 -6 0 -9 7 -5
15 3 8 1 15 -5 15 -7 0 -9 -64 -7 -195 2 -127 0 -194 -7 -192 -6 2 -9 74 -7
195 l3 192 -50 0 -51 0 0 -64 c0 -43 4 -66 13 -69 9 -3 12 -32 11 -105 -1 -93
0 -102 17 -102 11 0 19 -4 19 -10 0 -5 -7 -10 -15 -10 -12 0 -15 -9 -13 -35 2
-34 13 -46 20 -23 3 8 12 8 34 0 16 -6 23 -11 15 -11 -11 -1 -11 -4 -1 -16 8
-9 22 -12 42 -8 22 4 29 3 24 -5 -4 -7 -16 -12 -27 -12 -14 0 -19 -7 -19 -29
l0 -30 79 0 c53 0 90 -6 114 -17 49 -23 67 -14 67 36 l0 40 -50 0 c-27 0 -50
5 -50 10 0 6 20 10 45 10 l45 0 0 149 c0 110 -3 151 -12 155 -10 5 -10 7 0 12
6 3 12 14 12 25 0 21 -1 21 -84 19 -39 -1 -56 2 -51 9 3 6 31 11 61 11 87 0
130 58 55 73 -25 5 -33 13 -37 37 -10 47 -24 46 -25 -2 l-2 -43 -6 40 -6 40
-77 3 -78 3 0 -30z m180 -192 c0 -5 -4 -9 -10 -9 -5 0 -10 7 -10 16 0 8 5 12
10 9 6 -3 10 -10 10 -16z m-45 1 c4 -6 -15 -9 -52 -9 -56 2 -56 2 -18 9 60 11
63 11 70 0z m-174 -183 c-13 -13 -31 0 -24 19 4 11 8 12 20 3 9 -8 10 -16 4
-22z"/>
<path d="M3767 3803 c-12 -11 -8 -23 8 -23 8 0 15 7 15 15 0 16 -12 20 -23 8z"/>
<path d="M3780 3760 c0 -5 5 -10 10 -10 6 0 10 5 10 10 0 6 -4 10 -10 10 -5 0
-10 -4 -10 -10z"/>
<path d="M3749 3730 c-4 -57 -1 -80 11 -80 6 0 10 23 10 50 0 47 -19 73 -21
30z"/>
<path d="M2670 3700 c0 -5 5 -10 11 -10 5 0 7 5 4 10 -3 6 -8 10 -11 10 -2 0
-4 -4 -4 -10z"/>
<path d="M3696 3675 c-3 -8 -12 -15 -20 -15 -10 0 -15 -19 -18 -77 -7 -110 -2
-116 80 -107 37 3 68 7 69 8 1 1 4 30 6 64 4 71 -6 87 -53 80 -28 -4 -30 -3
-30 29 0 34 -23 47 -34 18z m94 -116 c0 -5 -7 -9 -15 -9 -9 0 -12 6 -9 15 6
15 24 11 24 -6z"/>
<path d="M3790 3650 c0 -5 5 -10 10 -10 6 0 10 5 10 10 0 6 -4 10 -10 10 -5 0
-10 -4 -10 -10z"/>
<path d="M4191 3585 c3 -101 8 -125 25 -118 16 6 19 -13 4 -22 -5 -3 -10 -14
-10 -24 0 -14 6 -17 26 -13 22 4 24 8 18 36 -6 27 -5 29 10 17 9 -7 16 -20 16
-27 0 -8 5 -14 10 -14 7 0 7 6 1 18 -5 10 -15 64 -22 120 l-13 102 -33 0 -34
0 2 -75z"/>
<path d="M2920 3636 c0 -9 5 -16 10 -16 6 0 10 4 10 9 0 6 -4 13 -10 16 -5 3
-10 -1 -10 -9z"/>
<path d="M2960 3640 c0 -5 7 -10 15 -10 8 0 15 5 15 10 0 6 -7 10 -15 10 -8 0
-15 -4 -15 -10z"/>
<path d="M2676 3620 c15 -15 56 -17 61 -2 3 8 -7 12 -33 12 -25 0 -35 -3 -28
-10z"/>
<path d="M2885 3603 l-40 -4 3 -44 c2 -25 8 -45 13 -45 5 0 9 -5 9 -11 0 -5
-4 -7 -10 -4 -5 3 -10 -1 -10 -9 0 -21 0 -21 70 21 55 32 80 62 80 94 0 9 -33
9 -115 2z"/>
<path d="M3376 3602 c-9 -15 -3 -72 8 -72 7 0 10 15 8 40 -4 41 -7 46 -16 32z"/>
<path d="M2782 3593 l-33 -4 5 -61 c4 -54 2 -63 -20 -85 -14 -14 -23 -27 -20
-30 2 -2 29 3 59 13 42 13 55 22 54 36 -1 10 -5 18 -9 18 -4 0 -8 5 -8 11 0 5
4 8 9 4 6 -3 9 3 8 14 0 11 -5 17 -9 15 -4 -3 -8 4 -8 15 0 12 5 21 10 21 6 0
10 9 10 20 0 11 -3 19 -7 18 -5 0 -23 -3 -41 -5z"/>
<path d="M2680 3564 c-6 -14 -10 -30 -10 -35 0 -5 -7 -9 -15 -9 -8 0 -15 -4
-15 -10 0 -5 23 -10 50 -10 l50 0 0 35 c0 24 -6 37 -19 45 -28 14 -30 13 -41
-16z"/>
<path d="M3042 3478 c4 -25 28 -37 28 -14 0 9 8 16 18 17 14 0 14 2 -3 9 -34
15 -47 11 -43 -12z"/>
<path d="M3110 3475 c0 -8 5 -15 10 -15 6 0 10 7 10 15 0 8 -4 15 -10 15 -5 0
-10 -7 -10 -15z"/>
<path d="M4658 3442 c-39 -36 -46 -49 -43 -72 4 -34 12 -50 25 -50 5 0 22 -12
37 -27 l28 -28 3 52 c2 29 2 78 0 110 l-3 58 -47 -43z"/>
<path d="M3147 3446 c-4 -10 -1 -13 8 -9 8 3 12 9 9 14 -7 12 -11 11 -17 -5z"/>
<path d="M3657 3446 c-5 -14 10 -36 25 -36 4 0 8 7 8 15 0 8 1 15 3 15 1 0 27
-7 57 -15 71 -19 70 -19 70 8 0 23 -3 24 -79 25 -59 2 -80 -2 -84 -12z"/>
<path d="M4520 3435 c-1 -5 -2 -17 -1 -27 1 -9 -3 -19 -9 -23 -16 -10 -12 -52
6 -59 26 -10 34 -7 34 12 0 22 -28 111 -30 97z"/>
<path d="M4960 3433 c0 -5 5 -15 10 -23 8 -12 10 -11 10 8 0 12 -4 22 -10 22
-5 0 -10 -3 -10 -7z"/>
<path d="M3693 3406 c-9 -11 -1 -15 40 -20 79 -9 97 -7 57 8 -61 22 -84 25
-97 12z"/>
<path d="M4823 3349 c0 -40 5 -63 19 -80 11 -15 16 -18 12 -6 -3 9 -3 17 1 17
4 0 14 -8 21 -17 12 -16 13 -11 14 34 0 66 -7 83 -35 83 -13 0 -25 6 -28 13
-2 6 -4 -13 -4 -44z"/>
<path d="M4211 3358 c1 -19 3 -25 6 -15 4 14 11 18 29 14 37 -7 38 9 2 22 -17
6 -33 11 -34 11 -2 0 -3 -15 -3 -32z"/>
<path d="M3445 3370 c-8 -14 3 -30 21 -30 18 0 18 8 0 26 -9 9 -17 10 -21 4z"/>
<path d="M4564 3364 c3 -8 6 -24 6 -35 0 -10 4 -19 9 -19 14 0 7 59 -8 65 -9
4 -11 0 -7 -11z"/>
<path d="M4910 3361 c0 -12 6 -21 16 -21 9 0 14 7 12 17 -5 25 -28 28 -28 4z"/>
<path d="M4428 3363 c7 -3 16 -2 19 1 4 3 -2 6 -13 5 -11 0 -14 -3 -6 -6z"/>
<path d="M3840 3315 c0 -38 3 -45 19 -45 50 0 68 30 34 56 -12 9 -14 13 -5 14
24 0 1 20 -24 20 -22 0 -24 -4 -24 -45z"/>
<path d="M4398 3323 c-23 -6 -24 -43 -2 -43 10 0 14 -6 10 -15 -4 -12 6 -15
58 -15 57 0 64 2 74 24 9 20 8 25 -6 29 -9 3 -24 8 -34 12 -12 5 -18 -1 -23
-24 -8 -39 -29 -29 -21 10 5 25 3 29 -17 28 -12 -1 -30 -3 -39 -6z"/>
<path d="M4205 3309 c-11 -16 -1 -19 13 -3 7 8 8 14 3 14 -5 0 -13 -5 -16 -11z"/>
<path d="M4220 3275 l-23 -25 35 0 c32 0 35 2 30 25 -2 14 -8 25 -11 25 -4 0
-18 -11 -31 -25z"/>
<path d="M4615 3279 c10 -33 14 -36 60 -45 36 -6 39 -6 26 9 -7 10 -18 17 -23
17 -6 0 -23 10 -40 21 l-30 22 7 -24z"/>
<path d="M4284 3279 c-3 -6 -1 -16 5 -22 8 -8 11 -5 11 11 0 24 -5 28 -16 11z"/>
<path d="M4550 3270 c-12 -22 -1 -27 19 -7 11 10 13 9 8 -5 -5 -13 -1 -18 13
-18 23 0 24 4 10 31 -14 25 -36 24 -50 -1z"/>
<path d="M3930 3262 c0 -5 7 -30 16 -55 9 -26 13 -54 10 -62 -10 -27 -7 -28
60 -31 36 -2 82 -8 102 -14 71 -19 72 -18 69 62 -2 71 -2 72 -32 79 -16 4 -48
12 -70 18 -48 13 -155 14 -155 3z"/>
<path d="M3677 3253 c-4 -3 -7 -15 -7 -25 0 -13 7 -18 25 -18 14 0 25 5 25 10
0 6 7 10 15 10 8 0 15 7 15 15 0 10 -10 15 -33 15 -19 0 -37 -3 -40 -7z"/>
<path d="M3863 3253 c-15 -3 -23 -12 -23 -24 0 -16 7 -19 41 -19 36 0 40 2 37
22 -3 24 -17 29 -55 21z"/>
<path d="M4358 3253 c7 -3 16 -2 19 1 4 3 -2 6 -13 5 -11 0 -14 -3 -6 -6z"/>
<path d="M3403 3236 c5 -14 3 -17 -8 -13 -8 4 -17 2 -20 -3 -4 -6 7 -10 24
-10 35 0 39 11 14 31 -15 12 -16 12 -10 -5z"/>
<path d="M3770 3240 c0 -5 7 -10 15 -10 8 0 15 -7 15 -15 0 -8 5 -15 10 -15
11 0 13 11 4 34 -7 17 -44 22 -44 6z"/>
<path d="M4370 3233 c-8 -3 -18 -11 -22 -17 -6 -8 -11 -6 -18 4 -11 17 -13 6
-4 -28 5 -19 13 -23 38 -22 67 4 65 7 61 -74 -2 -57 0 -76 11 -80 10 -4 14 3
14 27 1 29 2 30 14 15 7 -10 18 -18 25 -18 6 0 11 -5 11 -11 0 -6 -7 -9 -15
-5 -8 3 -15 1 -15 -4 0 -6 11 -10 25 -10 24 0 25 2 24 68 0 37 -3 61 -6 54 -4
-10 -9 -9 -24 4 -13 12 -19 31 -19 61 l0 43 -42 -1 c-24 0 -50 -3 -58 -6z m50
-14 c0 -5 -6 -9 -14 -9 -8 0 -16 -6 -19 -12 -2 -7 -8 -10 -12 -6 -13 12 2 33
24 35 11 1 21 -2 21 -8z"/>
<path d="M4200 3200 c0 -25 4 -30 24 -30 14 0 26 7 30 18 3 9 9 23 12 30 4 8
-5 12 -30 12 -33 0 -36 -2 -36 -30z"/>
<path d="M4290 3225 c-2 -5 -2 -14 -1 -19 1 -4 -4 -14 -10 -22 -9 -11 -7 -14
10 -14 11 0 21 6 20 13 -1 18 -17 54 -19 42z"/>
<path d="M4536 3215 c-10 -28 -7 -65 7 -65 8 0 7 -4 -3 -10 -11 -8 -5 -10 24
-8 47 4 63 28 17 28 -16 0 -33 5 -36 10 -4 6 10 10 35 10 37 0 41 2 38 23 -2
17 -10 23 -39 25 -26 2 -38 -1 -43 -13z"/>
<path d="M3745 3210 c-3 -5 3 -10 14 -10 12 0 21 5 21 10 0 6 -6 10 -14 10 -8
0 -18 -4 -21 -10z"/>
<path d="M4640 3203 c0 -15 8 -19 36 -21 29 -2 35 0 32 15 -2 12 -14 19 -36
21 -26 3 -32 0 -32 -15z"/>
<path d="M4767 3190 c-4 -15 0 -20 14 -20 12 0 19 7 19 20 0 11 -6 20 -14 20
-7 0 -16 -9 -19 -20z"/>
<path d="M3280 3175 c12 -15 30 -12 30 6 0 5 -10 9 -21 9 -18 0 -19 -2 -9 -15z"/>
<path d="M3370 3179 c0 -4 5 -9 11 -11 9 -3 9 -9 1 -25 -10 -18 -8 -21 20 -27
51 -10 58 -8 58 22 0 15 -4 32 -8 38 -7 13 -82 15 -82 3z"/>
<path d="M3497 3182 c-5 -7 -12 -10 -16 -7 -5 2 -7 -6 -6 -18 1 -12 3 -28 4
-35 1 -9 12 -12 34 -10 29 3 32 7 35 38 l3 35 -18 -25 -18 -25 -5 30 c-4 20
-8 26 -13 17z"/>
<path d="M3566 3163 c8 -32 24 -54 24 -32 0 9 11 14 35 15 18 0 32 -3 29 -7
-2 -5 5 -13 16 -19 24 -13 24 -12 5 34 -15 35 -17 36 -65 36 -50 0 -50 0 -44
-27z"/>
<path d="M3683 3178 c2 -8 16 -12 33 -10 28 2 28 2 10 -13 -23 -18 -19 -19 23
-4 50 18 40 39 -20 39 -36 0 -49 -4 -46 -12z"/>
<path d="M3842 3153 c3 -37 5 -38 43 -41 34 -2 42 1 52 23 9 20 8 25 -3 25 -8
0 -14 -7 -14 -15 0 -18 -9 -19 -33 0 -18 13 -18 14 4 17 42 6 34 28 -11 28
l-41 0 3 -37z"/>
<path d="M4501 3174 c0 -11 3 -14 6 -6 3 7 2 16 -1 19 -3 4 -6 -2 -5 -13z"/>
<path d="M4730 3145 c0 -32 2 -35 29 -35 17 0 32 4 35 9 6 8 -20 37 -39 43 -5
2 -9 6 -7 11 1 4 -2 7 -8 7 -5 0 -10 -16 -10 -35z"/>
<path d="M4650 3161 c-21 -6 -26 -14 -28 -49 -3 -35 2 -48 30 -82 46 -55 58
-52 58 15 0 49 -2 55 -20 55 l-21 0 21 22 c38 41 22 56 -40 39z"/>
<path d="M3785 3147 c-27 -16 -20 -76 11 -88 20 -7 21 -4 21 47 0 57 -1 58
-32 41z"/>
<path d="M4200 3125 c0 -28 4 -35 19 -35 11 0 21 9 25 23 10 38 7 47 -19 47
-22 0 -25 -4 -25 -35z"/>
<path d="M4270 3138 c0 -23 18 -41 34 -35 9 4 16 16 16 27 0 15 -7 20 -25 20
-14 0 -25 -6 -25 -12z"/>
<path d="M4328 3098 c-2 -29 -6 -60 -9 -68 -6 -22 54 -26 75 -5 35 35 10 125
-36 125 -24 0 -26 -3 -30 -52z"/>
<path d="M3615 3120 c-9 -15 34 -47 73 -55 19 -3 32 -12 32 -21 0 -14 25 -27
75 -40 20 -5 25 -2 25 14 0 13 -9 22 -27 27 -33 8 -43 21 -43 58 0 22 -4 27
-26 27 -19 0 -25 -4 -20 -15 7 -19 -16 -19 -54 0 -19 10 -31 11 -35 5z"/>
<path d="M4568 3112 c-26 -3 -28 -6 -28 -53 0 -40 3 -49 18 -49 9 0 26 -7 36
-15 49 -37 80 5 32 43 -14 10 -26 32 -28 48 -3 25 -7 29 -30 26z"/>
<path d="M3414 3085 c36 -19 46 -19 46 0 0 11 -11 15 -37 15 l-38 0 29 -15z"/>
<path d="M3476 3052 c-3 -28 -1 -62 5 -80 9 -26 16 -32 40 -32 16 0 38 5 48
12 19 12 19 12 -1 30 -14 12 -17 18 -7 18 11 0 11 2 -1 10 -10 6 -22 4 -37 -6
-20 -13 -23 -13 -23 1 0 8 4 15 9 15 13 0 19 46 9 64 -17 31 -35 17 -42 -32z"/>
<path d="M3840 3076 c0 -29 26 -41 69 -31 23 5 27 10 23 30 -4 22 -10 25 -48
25 -40 0 -44 -2 -44 -24z"/>
<path d="M3950 3066 c0 -36 -21 -48 -71 -40 l-44 7 33 -27 c24 -21 32 -36 32
-62 0 -25 -4 -32 -15 -28 -8 4 -13 9 -11 13 6 9 -24 71 -35 71 -15 0 -21 -46
-15 -117 3 -37 7 -80 7 -95 2 -29 29 -41 29 -13 0 21 17 19 37 -5 10 -11 24
-20 31 -20 11 0 12 3 3 14 -9 10 -8 15 3 19 9 4 21 -2 28 -11 7 -10 24 -18 38
-17 91 5 90 4 90 29 0 13 -7 43 -15 66 -17 48 -19 93 -6 118 4 9 11 41 14 70
l6 52 -69 0 c-67 0 -70 -1 -70 -24z"/>
<path d="M4283 3083 c-17 -3 -23 -11 -23 -30 0 -22 2 -24 16 -13 13 11 40 53
32 49 -2 -1 -13 -4 -25 -6z"/>
<path d="M4107 3073 c-4 -3 -7 -22 -7 -42 0 -20 -7 -49 -15 -65 -14 -26 -14
-35 0 -88 8 -33 15 -73 15 -89 0 -19 5 -29 15 -29 8 0 15 6 15 13 0 7 11 28
25 47 23 31 25 42 25 141 0 102 -1 107 -22 113 -30 8 -43 7 -51 -1z"/>
<path d="M4199 3013 c0 -32 -2 -83 -5 -115 -6 -62 15 -112 42 -101 8 3 14 1
14 -5 0 -12 -29 -24 -41 -16 -5 3 -9 0 -9 -5 0 -7 30 -11 80 -11 l80 0 0 48
c0 26 3 65 6 87 4 30 3 36 -5 25 -9 -13 -11 -12 -11 3 0 10 -9 27 -20 39 -11
12 -20 16 -20 9 0 -7 -11 1 -25 16 -16 19 -24 23 -25 13 0 -19 -37 -43 -45
-30 -3 5 -1 11 4 15 6 3 8 12 5 20 -4 8 1 17 9 21 22 8 14 38 -11 42 -20 3
-22 -1 -23 -55z"/>
<path d="M3550 3041 c0 -12 6 -21 15 -21 8 0 15 3 15 6 0 3 -7 12 -15 20 -13
14 -15 13 -15 -5z"/>
<path d="M4285 3030 c-3 -5 -1 -18 4 -27 9 -15 10 -14 9 10 -3 30 -4 32 -13
17z"/>
<path d="M4355 2990 c-3 -5 1 -20 9 -32 9 -12 16 -18 16 -13 0 6 3 20 6 33 5
16 2 22 -9 22 -9 0 -19 -4 -22 -10z"/>
<path d="M3477 2914 c-9 -9 4 -35 14 -28 5 3 9 12 9 20 0 14 -12 19 -23 8z"/>
<path d="M3520 2910 c0 -5 5 -10 10 -10 6 0 10 5 10 10 0 6 -4 10 -10 10 -5 0
-10 -4 -10 -10z"/>
<path d="M3446 2891 c-4 -7 -5 -15 -2 -18 9 -9 19 4 14 18 -4 11 -6 11 -12 0z"/>
<path d="M3223 2848 c-30 -15 -29 -28 2 -28 18 0 25 5 25 20 0 11 -1 20 -2 19
-2 0 -13 -5 -25 -11z"/>
<path d="M4162 2808 c-17 -17 -15 -48 3 -48 10 0 15 10 15 30 0 34 -1 35 -18
18z"/>
<path d="M4377 2783 c-14 -13 -6 -23 19 -23 14 0 23 4 19 9 -3 5 3 12 12 14
10 3 4 5 -13 6 -17 0 -34 -2 -37 -6z"/>
<path d="M3714 2718 c-10 -13 -15 -20 -10 -16 5 4 15 0 23 -8 13 -13 18 -12
37 9 12 13 29 27 37 30 8 3 -4 6 -27 6 -31 1 -46 -5 -60 -21z"/>
<path d="M3677 2674 c-9 -9 4 -34 18 -34 7 0 18 7 25 15 11 13 10 14 -4 9 -9
-3 -16 -1 -16 5 0 12 -13 15 -23 5z"/>
<path d="M4086 2614 c-4 -14 -5 -29 -2 -31 3 -3 8 7 12 21 3 15 4 29 1 32 -2
3 -8 -7 -11 -22z"/>
<path d="M3688 5035 c2 -14 6 -25 8 -25 2 0 4 11 4 25 0 14 -4 25 -9 25 -4 0
-6 -11 -3 -25z"/>
<path d="M4115 4400 c-3 -5 -1 -10 4 -10 6 0 11 5 11 10 0 6 -2 10 -4 10 -3 0
-8 -4 -11 -10z"/>
<path d="M790 4308 c0 -80 1 -83 27 -95 30 -14 36 -12 28 9 -4 10 -14 14 -26
11 -14 -4 -19 0 -19 15 0 12 5 24 10 27 6 3 10 -1 10 -10 0 -12 5 -15 16 -11
9 3 20 6 25 6 5 0 8 18 7 40 -1 37 -3 40 -30 40 -23 0 -28 4 -28 25 0 14 -4
25 -10 25 -6 0 -10 -34 -10 -82z"/>
<path d="M830 4375 c0 -8 9 -15 20 -15 11 0 20 7 20 15 0 8 -9 15 -20 15 -11
0 -20 -7 -20 -15z"/>
<path d="M884 4348 c2 -21 9 -34 20 -36 9 -2 14 -8 11 -13 -4 -5 0 -9 9 -9 8
0 17 -6 19 -12 3 -7 6 10 6 38 1 54 -7 64 -50 64 -15 0 -18 -6 -15 -32z"/>
<path d="M970 4325 c0 -45 0 -45 35 -45 28 0 36 4 41 24 9 37 -12 66 -46 66
-29 0 -30 -2 -30 -45z"/>
<path d="M1068 4363 c12 -2 32 -2 45 0 12 2 2 4 -23 4 -25 0 -35 -2 -22 -4z"/>
<path d="M755 4310 c-3 -5 -1 -10 4 -10 6 0 11 5 11 10 0 6 -2 10 -4 10 -3 0
-8 -4 -11 -10z"/>
<path d="M869 4244 c-11 -14 -10 -18 6 -30 10 -8 31 -14 47 -14 25 0 28 3 28
33 -1 29 -2 30 -14 14 -12 -15 -15 -15 -26 -2 -16 19 -24 19 -41 -1z"/>
<path d="M5596 4383 c-6 -14 -5 -15 5 -6 7 7 10 15 7 18 -3 3 -9 -2 -12 -12z"/>
<path d="M5347 4373 c-13 -13 -7 -21 25 -32 35 -12 52 -3 42 22 -6 17 -54 24
-67 10z"/>
<path d="M5595 4340 c3 -5 8 -10 11 -10 2 0 4 5 4 10 0 6 -5 10 -11 10 -5 0
-7 -4 -4 -10z"/>
<path d="M5620 4323 c0 -13 37 -46 55 -49 8 -1 15 2 15 7 0 5 -7 9 -15 9 -8 0
-23 10 -35 22 -11 12 -20 17 -20 11z"/>
<path d="M5587 4247 c-3 -8 0 -20 6 -27 9 -10 8 -12 -5 -7 -12 4 -18 1 -18 -7
0 -17 33 -31 38 -17 2 6 15 11 28 11 20 0 24 5 23 28 0 26 -1 27 -11 5 l-11
-23 -22 26 c-17 20 -23 23 -28 11z"/>
<path d="M5680 4215 c0 -19 4 -35 9 -35 5 0 8 16 8 35 -1 19 -5 35 -9 35 -4 0
-8 -16 -8 -35z"/>
<path d="M5344 4162 l-71 -3 -6 -42 c-3 -23 -4 -57 -3 -74 1 -18 3 -50 4 -70
2 -29 5 -34 14 -25 7 7 23 12 36 12 17 0 23 4 18 15 -3 8 -1 15 5 15 6 0 7 5
4 10 -8 13 13 40 31 40 7 0 11 -6 8 -14 -3 -9 4 -16 21 -20 14 -4 23 -11 20
-16 -3 -6 -2 -10 2 -10 10 0 5 119 -5 160 -7 24 -10 25 -78 22z"/>
<path d="M5623 4120 c-2 -43 1 -50 17 -50 23 0 26 10 22 61 -3 28 -9 39 -21
39 -12 0 -16 -11 -18 -50z"/>
<path d="M5680 4121 c0 -27 -3 -57 -6 -65 -5 -12 -2 -15 9 -10 12 4 16 20 15
65 0 32 -5 59 -9 59 -5 0 -9 -22 -9 -49z"/>
<path d="M5632 4038 c-18 -18 -15 -38 7 -38 26 0 33 13 18 34 -10 13 -15 14
-25 4z"/>
<path d="M5375 3980 c-3 -6 1 -7 9 -4 18 7 21 14 7 14 -6 0 -13 -4 -16 -10z"/>
<path d="M5663 3911 c-22 -18 -33 -36 -33 -54 0 -23 4 -27 30 -27 17 0 31 3
31 8 2 9 7 102 5 102 0 -1 -16 -13 -33 -29z"/>
<path d="M5711 3854 c0 -11 3 -14 6 -6 3 7 2 16 -1 19 -3 4 -6 -2 -5 -13z"/>
<path d="M368 4053 c7 -3 16 -2 19 1 4 3 -2 6 -13 5 -11 0 -14 -3 -6 -6z"/>
<path d="M345 4024 c-8 -9 -15 -30 -15 -49 0 -43 31 -113 48 -107 9 3 11 -3 6
-22 -5 -22 -3 -26 15 -26 20 0 21 5 21 113 -1 101 -2 110 -15 93 -8 -11 -15
-15 -15 -9 0 19 -29 23 -45 7z"/>
<path d="M2937 3999 c6 -23 9 -24 16 -5 3 8 0 17 -7 19 -10 4 -12 -1 -9 -14z"/>
<path d="M2942 3961 c-15 -9 -5 -41 12 -41 7 0 12 9 11 20 -2 25 -8 31 -23 21z"/>
<path d="M3040 3870 c-8 -5 -11 -12 -7 -16 4 -4 15 0 24 9 18 18 8 23 -17 7z"/>
<path d="M2978 3863 c6 -2 18 -2 25 0 6 3 1 5 -13 5 -14 0 -19 -2 -12 -5z"/>
<path d="M3030 3820 c0 -5 7 -10 16 -10 8 0 12 5 9 10 -3 6 -10 10 -16 10 -5
0 -9 -4 -9 -10z"/>
<path d="M4401 3634 c0 -11 3 -14 6 -6 3 7 2 16 -1 19 -3 4 -6 -2 -5 -13z"/>
<path d="M2857 2823 c-4 -3 -7 -11 -7 -17 0 -6 5 -5 12 2 6 6 9 14 7 17 -3 3
-9 2 -12 -2z"/>
<path d="M3406 2481 c-3 -5 1 -11 9 -15 9 -3 15 0 15 9 0 16 -16 20 -24 6z"/>
<path d="M3375 2450 c-3 -6 1 -7 9 -4 18 7 21 14 7 14 -6 0 -13 -4 -16 -10z"/>
<path d="M3770 2595 c-8 -9 -8 -15 -2 -15 12 0 26 19 19 26 -2 2 -10 -2 -17
-11z"/>
<path d="M3750 2544 c0 -8 5 -12 10 -9 6 3 10 10 10 16 0 5 -4 9 -10 9 -5 0
-10 -7 -10 -16z"/>
<path d="M3707 2522 c-20 -22 -13 -32 23 -32 32 0 68 24 52 34 -7 4 -12 2 -12
-3 0 -6 -15 -11 -32 -11 -24 0 -29 3 -18 10 8 5 12 11 9 15 -3 3 -13 -3 -22
-13z"/>
<path d="M3800 2500 c0 -5 5 -10 10 -10 6 0 10 5 10 10 0 6 -4 10 -10 10 -5 0
-10 -4 -10 -10z"/>
<path d="M3684 2472 c22 -26 41 -28 50 -7 3 10 -1 15 -13 15 -11 0 -28 3 -38
7 -17 6 -17 5 1 -15z"/>
<path d="M3761 2481 c-9 -6 -11 -16 -6 -27 5 -13 9 -15 12 -6 3 6 11 12 20 12
8 0 13 5 11 12 -6 16 -20 20 -37 9z"/>
<path d="M2298 1849 c6 -7 12 -23 12 -36 0 -13 5 -23 11 -23 6 0 9 14 6 32 -2
23 -9 34 -23 36 -15 3 -17 1 -6 -9z"/>
<path d="M3431 851 c-13 -10 -19 -21 -14 -24 10 -7 50 29 42 37 -2 3 -15 -3
-28 -13z"/>
<path d="M3370 840 c0 -5 5 -10 11 -10 5 0 7 5 4 10 -3 6 -8 10 -11 10 -2 0
-4 -4 -4 -10z"/>
<path d="M3330 780 c0 -5 8 -10 18 -10 11 0 27 -9 37 -20 19 -21 51 -28 39 -9
-3 6 -1 15 6 19 7 4 9 13 6 19 -9 14 -106 15 -106 1z"/>
<path d="M3700 771 c0 -6 5 -13 10 -16 6 -3 10 1 10 9 0 9 -4 16 -10 16 -5 0
-10 -4 -10 -9z"/>
<path d="M3739 767 c6 -8 8 -17 4 -20 -3 -4 -2 -7 3 -7 5 0 15 9 22 20 11 18
10 20 -14 20 -21 0 -24 -3 -15 -13z"/>
<path d="M3788 759 c-27 -28 -22 -39 17 -39 32 0 35 2 35 30 0 35 -25 40 -52
9z"/>
<path d="M3632 748 c3 -20 10 -23 48 -25 39 -2 43 -1 28 11 -10 7 -18 18 -18
25 0 6 -14 11 -31 11 -26 0 -30 -3 -27 -22z"/>
<path d="M3360 730 c0 -5 7 -10 16 -10 8 0 12 5 9 10 -3 6 -10 10 -16 10 -5 0
-9 -4 -9 -10z"/>
<path d="M3588 702 c-25 -2 -38 -8 -38 -18 0 -20 -18 -18 -23 4 -4 13 -5 11
-6 -5 0 -13 2 -23 7 -23 4 0 27 -18 52 -40 46 -41 60 -48 60 -29 0 8 5 8 15
-1 12 -10 15 -9 15 8 0 11 -7 22 -15 26 -8 3 -15 16 -16 28 -1 43 -12 53 -51
50z"/>
<path d="M3650 688 c1 -46 12 -58 56 -58 50 0 58 16 24 50 -22 22 -80 28 -80
8z"/>
<path d="M3688 615 c-5 -6 0 -66 6 -73 2 -1 16 1 33 4 28 5 30 8 24 37 -5 25
-13 33 -32 35 -13 2 -28 0 -31 -3z"/>
</g>
</svg>
