<?xml version="1.0" standalone="no"?>
<!DOCTYPE svg PUBLIC "-//W3C//DTD SVG 20010904//EN"
 "http://www.w3.org/TR/2001/REC-SVG-20010904/DTD/svg10.dtd">
<svg version="1.0" xmlns="http://www.w3.org/2000/svg"
 width="800.000000pt" height="800.000000pt" viewBox="0 0 800.000000 800.000000"
 preserveAspectRatio="xMidYMid meet">
<metadata>
Created by potrace 1.16, written by Peter Selinger 2001-2019
</metadata>
<g transform="translate(0.000000,800.000000) scale(0.100000,-0.100000)"
fill="#000000" stroke="none">
<path d="M0 4000 l0 -4000 2115 0 c1638 0 2115 3 2115 12 0 9 3 9 12 0 9 -9
74 -12 230 -12 180 0 216 2 212 14 -3 7 2 16 10 19 8 3 23 25 34 49 19 43 57
86 67 76 3 -3 -6 -19 -20 -36 -15 -18 -21 -33 -15 -37 15 -9 12 -35 -5 -35
-19 0 -56 -31 -49 -42 3 -4 745 -8 1650 -8 l1644 0 0 4000 0 4000 -4000 0
-4000 0 0 -4000z m3584 3572 c87 -174 137 -284 134 -297 l-5 -20 -7 20 c-16
48 -271 545 -279 545 -5 0 -184 -89 -396 -199 -463 -237 -533 -261 -632 -211
-31 16 -57 20 -117 19 -114 -2 -220 33 -427 141 -95 49 -184 90 -197 90 -12
-1 -36 -6 -52 -13 -21 -9 -53 -10 -120 -4 -50 5 -93 10 -95 13 -12 12 15 14
92 5 71 -8 93 -7 123 5 51 22 77 13 261 -82 204 -106 298 -137 410 -135 67 2
90 -2 125 -20 95 -49 159 -27 628 215 217 112 400 204 405 204 6 1 72 -124
149 -276z m-1866 -1067 c1 -11 -1 -75 -4 -142 -4 -98 -8 -123 -20 -123 -11 0
-14 21 -14 108 -1 74 -5 115 -15 132 -22 39 -17 48 9 16 13 -15 25 -24 27 -20
2 5 2 165 -1 357 -3 191 -3 353 0 360 4 9 12 -287 18 -688z m-689 550 c1 -5
-6 -2 -15 7 -10 9 -13 21 -8 29 5 9 9 8 15 -7 4 -10 8 -23 8 -29z m31 -30 c7
-8 8 -15 2 -15 -5 0 -15 7 -22 15 -7 8 -8 15 -2 15 5 0 15 -7 22 -15z m46 -52
c-7 -7 -26 7 -26 19 0 6 6 6 15 -2 9 -7 13 -15 11 -17z m44 -45 c0 -6 -7 -5
-15 2 -8 7 -15 17 -15 22 0 6 7 5 15 -2 8 -7 15 -17 15 -22z m35 -29 c11 -17
-1 -21 -15 -4 -8 9 -8 15 -2 15 6 0 14 -5 17 -11z m45 -44 c7 -8 8 -15 2 -15
-5 0 -15 7 -22 15 -7 8 -8 15 -2 15 5 0 15 -7 22 -15z m47 -61 c-9 -10 -38 16
-31 28 4 6 13 4 22 -6 9 -8 13 -19 9 -22z m41 -33 c3 -8 -1 -12 -9 -9 -7 2
-15 10 -17 17 -3 8 1 12 9 9 7 -2 15 -10 17 -17z m32 -49 c0 -15 -2 -15 -10
-2 -13 20 -13 33 0 25 6 -3 10 -14 10 -23z m30 -50 c0 -15 -2 -15 -10 -2 -13
20 -13 33 0 25 6 -3 10 -14 10 -23z m10 -53 c0 -11 -4 -17 -10 -14 -5 3 -10
13 -10 21 0 8 5 14 10 14 6 0 10 -9 10 -21z m0 -64 c0 -18 -4 -23 -15 -19 -9
4 -15 0 -15 -7 0 -11 -3 -11 -10 1 -15 23 -12 32 10 25 14 -5 20 -2 20 9 0 9
2 16 5 16 3 0 5 -11 5 -25z m610 -6 c0 -10 -4 -19 -10 -19 -5 0 -10 12 -10 26
0 14 4 23 10 19 6 -3 10 -15 10 -26z m-637 -59 c3 -11 1 -23 -4 -26 -5 -3 -9
6 -9 20 0 31 6 34 13 6z m637 0 c0 -11 -4 -20 -10 -20 -5 0 -10 9 -10 20 0 11
5 20 10 20 6 0 10 -9 10 -20z m-630 -76 c0 -13 -4 -24 -10 -24 -5 0 -10 14
-10 31 0 17 4 28 10 24 6 -3 10 -17 10 -31z m627 -1 c-3 -10 -5 -4 -5 12 0 17
2 24 5 18 2 -7 2 -21 0 -30z m0 -65 c-3 -7 -5 -2 -5 12 0 14 2 19 5 13 2 -7 2
-19 0 -25z m1156 25 c-7 -2 -21 -2 -30 0 -10 3 -4 5 12 5 17 0 24 -2 18 -5z
m60 0 c-7 -2 -21 -2 -30 0 -10 3 -4 5 12 5 17 0 24 -2 18 -5z m47 -3 c8 -5 11
-12 7 -16 -4 -4 -15 0 -24 9 -18 18 -8 23 17 7z m-1890 -21 c0 -11 -4 -17 -10
-14 -5 3 -10 13 -10 21 0 8 5 14 10 14 6 0 10 -9 10 -21z m1770 -21 c0 -6 -7
-5 -15 2 -8 7 -15 17 -15 22 0 6 7 5 15 -2 8 -7 15 -17 15 -22z m165 1 c11
-17 -1 -21 -15 -4 -8 9 -8 15 -2 15 6 0 14 -5 17 -11z m285 -20 c0 -11 -4 -17
-10 -14 -5 3 -10 13 -10 21 0 8 5 14 10 14 6 0 10 -9 10 -21z m-1580 -9 c0
-11 -4 -20 -10 -20 -5 0 -10 9 -10 20 0 11 5 20 10 20 6 0 10 -9 10 -20z
m-643 -22 c-3 -7 -5 -2 -5 12 0 14 2 19 5 13 2 -7 2 -19 0 -25z m1783 22 c-20
-13 -33 -13 -25 0 3 6 14 10 23 10 15 0 15 -2 2 -10z m200 -15 c7 -8 8 -15 2
-15 -5 0 -15 7 -22 15 -7 8 -8 15 -2 15 5 0 15 -7 22 -15z m-240 -12 c-1 -14
-30 -47 -36 -41 -8 8 14 48 26 48 6 0 10 -3 10 -7z m490 -23 c0 -11 -4 -20
-10 -20 -5 0 -10 5 -10 11 0 6 -9 8 -20 4 -11 -3 -20 -2 -20 4 0 8 9 12 53 20
4 0 7 -8 7 -19z m-1590 -10 c0 -11 -4 -20 -10 -20 -5 0 -10 9 -10 20 0 11 5
20 10 20 6 0 10 -9 10 -20z m713 13 c-7 -2 -19 -2 -25 0 -7 3 -2 5 12 5 14 0
19 -2 13 -5z m40 -33 c-7 -8 -22 24 -16 34 4 5 10 1 13 -10 4 -10 6 -21 3 -24z
m637 31 c0 -10 -30 -24 -37 -17 -3 3 -2 9 2 15 8 13 35 15 35 2z m60 -1 c0 -5
-9 -10 -20 -10 -11 0 -20 5 -20 10 0 6 9 10 20 10 11 0 20 -4 20 -10z m60 0
c0 -5 -9 -10 -20 -10 -11 0 -20 5 -20 10 0 6 9 10 20 10 11 0 20 -4 20 -10z
m-2153 -32 c-3 -7 -5 -2 -5 12 0 14 2 19 5 13 2 -7 2 -19 0 -25z m1295 10 c-6
-6 -15 -8 -19 -4 -4 4 -1 11 7 16 19 12 27 3 12 -12z m-859 -548 c50 -1 124
-7 162 -14 52 -10 72 -11 77 -2 5 7 11 6 20 -6 10 -12 32 -18 83 -20 39 -2 73
-7 77 -13 4 -6 34 0 78 13 39 13 110 27 158 32 109 12 122 12 122 1 0 -5 -46
-12 -102 -16 -71 -5 -123 -15 -168 -32 -58 -22 -74 -24 -152 -19 -75 6 -88 4
-88 -9 0 -8 -4 -15 -10 -15 -5 0 -10 8 -10 19 0 14 -12 21 -52 29 -46 10 -54
9 -63 -6 -5 -9 -31 -37 -56 -62 -25 -25 -48 -52 -51 -61 -3 -8 -1 -42 6 -75
l12 -59 77 -9 c42 -4 77 -13 77 -19 0 -6 -17 -7 -45 -4 -40 6 -45 4 -45 -12 0
-25 82 -46 140 -36 26 4 40 3 40 -4 0 -7 8 -7 25 -1 14 5 25 7 25 5 0 -11 -40
-44 -44 -36 -3 5 -36 11 -73 15 -38 4 -88 9 -112 12 l-44 6 7 -42 c9 -56 13
-62 35 -50 12 6 47 6 95 1 84 -10 105 -7 154 17 29 15 34 15 43 2 15 -22 4
-320 -13 -335 -18 -17 -136 -55 -169 -55 -15 0 -45 15 -70 35 -44 35 -44 35
-147 35 -95 0 -106 -2 -136 -25 -35 -26 -46 -30 -46 -16 0 4 17 20 38 35 36
24 45 26 150 26 69 0 120 -5 131 -12 27 -16 55 13 47 47 -4 14 -2 25 3 25 13
0 21 -54 8 -62 -8 -5 -6 -13 6 -26 19 -21 22 -32 6 -32 -5 0 -7 5 -3 12 4 7 3
8 -5 4 -6 -4 -18 -4 -24 1 -7 4 -4 0 6 -9 25 -23 46 -23 129 4 l68 22 0 153
c0 119 -3 153 -13 153 -7 0 -18 -5 -24 -11 -12 -12 -122 -14 -178 -3 -43 8
-61 -2 -43 -24 11 -13 10 -15 -12 -9 -17 4 -36 0 -55 -13 -17 -11 -33 -20 -37
-20 -17 0 -6 16 26 37 l33 21 -15 50 -15 50 -46 -14 c-77 -24 -91 -26 -91 -17
0 4 29 17 65 27 36 10 65 24 65 31 0 7 -7 50 -16 96 -20 105 -14 137 32 169
19 14 41 37 49 51 14 25 13 27 -8 32 -33 8 -199 21 -222 18 -31 -4 -38 -13
-115 -142 -39 -66 -74 -118 -77 -115 -3 3 28 62 68 132 56 96 81 129 102 136
l27 10 0 273 c0 210 3 274 13 278 9 3 13 -57 15 -275 l2 -278 93 0z m1309 518
c-9 -9 -12 -7 -12 12 0 19 3 21 12 12 9 -9 9 -15 0 -24z m228 7 c-7 -9 -15
-13 -18 -10 -3 2 1 11 8 20 7 9 15 13 18 10 3 -2 -1 -11 -8 -20z m-685 -17 c6
-4 2 -8 -7 -8 -10 0 -18 7 -18 17 0 9 3 12 8 7 4 -5 12 -12 17 -16z m955 -4
c0 -8 -4 -14 -10 -14 -5 0 -10 9 -10 21 0 11 5 17 10 14 6 -3 10 -13 10 -21z
m-1600 -5 c0 -11 -4 -17 -10 -14 -5 3 -10 13 -10 21 0 8 5 14 10 14 6 0 10 -9
10 -21z m761 -2 c-13 -13 -26 -3 -16 12 3 6 11 8 17 5 6 -4 6 -10 -1 -17z
m-1391 -7 c0 -11 -4 -20 -10 -20 -5 0 -10 9 -10 20 0 11 5 20 10 20 6 0 10 -9
10 -20z m1925 -2 c0 -20 25 -49 36 -42 12 7 -2 -29 -15 -38 -19 -13 -29 -9
-17 6 10 12 8 19 -8 35 -16 16 -26 18 -50 11 -32 -9 -39 -2 -20 17 6 6 18 9
27 6 9 -4 13 -2 9 4 -4 6 -1 14 5 16 20 8 33 2 33 -15z m-591 -5 c-14 -14 -17
-14 -30 -1 -14 13 -12 15 15 16 28 1 30 -1 15 -15z m396 -5 c0 -7 -5 -20 -10
-28 -9 -13 -11 -13 -20 0 -13 19 -13 33 0 25 6 -3 10 -1 10 4 0 6 5 11 10 11
6 0 10 -6 10 -12z m385 -8 c-3 -5 -13 -10 -21 -10 -8 0 -12 5 -9 10 3 6 13 10
21 10 8 0 12 -4 9 -10z m173 0 c11 0 13 -3 6 -8 -16 -10 -28 -52 -15 -52 6 0
11 -8 11 -17 0 -13 -3 -14 -12 -5 -18 18 -28 15 -28 -8 0 -11 -4 -20 -10 -20
-16 0 -12 37 7 55 13 14 14 21 5 36 -16 25 -15 32 4 25 9 -3 23 -6 32 -6z
m-238 -25 c-7 -9 -15 -13 -18 -10 -3 2 1 11 8 20 7 9 15 13 18 10 3 -2 -1 -11
-8 -20z m120 15 c12 -8 11 -10 -7 -10 -13 0 -23 5 -23 10 0 13 11 13 30 0z
m63 -27 c-7 -18 -18 -16 -34 4 -12 15 -12 16 4 10 12 -4 17 -1 17 11 0 14 2
14 9 3 5 -8 7 -20 4 -28z m-1606 -5 c-3 -7 -5 -2 -5 12 0 14 2 19 5 13 2 -7 2
-19 0 -25z m-627 1 c0 -11 -4 -17 -10 -14 -5 3 -10 13 -10 21 0 8 5 14 10 14
6 0 10 -9 10 -21z m1342 -11 c-9 -9 -12 -7 -12 12 0 19 3 21 12 12 9 -9 9 -15
0 -24z m478 -3 c-10 -12 -9 -15 6 -15 16 0 17 -2 4 -10 -8 -5 -18 -10 -22 -10
-12 0 -9 35 4 48 16 16 24 6 8 -13z m60 10 c0 -8 5 -15 10 -15 6 0 10 -5 10
-11 0 -6 -7 -9 -17 -7 -17 3 -30 48 -13 48 6 0 10 -7 10 -15z m135 -5 c-3 -5
-13 -10 -21 -10 -8 0 -14 5 -14 10 0 6 9 10 21 10 11 0 17 -4 14 -10z m-280
-10 c3 -5 -1 -10 -9 -10 -8 0 -16 -8 -18 -17 -3 -13 -6 -10 -10 10 -4 21 -2
27 13 27 10 0 21 -4 24 -10z m-485 -9 c0 -5 -9 -11 -20 -14 -20 -5 -26 3 -13
16 9 10 33 8 33 -2z m55 0 c3 -6 -4 -9 -15 -8 -11 1 -20 5 -20 9 0 11 28 10
35 -1z m-678 -33 c-3 -7 -5 -2 -5 12 0 14 2 19 5 13 2 -7 2 -19 0 -25z m1153
17 c-14 -16 -40 -20 -40 -6 0 10 17 19 39 20 11 1 11 -2 1 -14z m-1770 -15 c0
-11 -4 -20 -10 -20 -5 0 -10 9 -10 20 0 11 5 20 10 20 6 0 10 -9 10 -20z
m1183 13 c3 -5 -8 -9 -24 -10 -16 -1 -29 2 -29 7 0 12 47 13 53 3z m139 0 c-6
-2 -10 -8 -7 -13 3 -4 -2 -13 -10 -20 -12 -10 -15 -10 -15 2 0 17 20 38 35 37
5 0 4 -3 -3 -6z m1018 -15 c0 -13 -23 -5 -28 10 -2 7 2 10 12 6 9 -3 16 -11
16 -16z m-1236 -3 c-4 -8 -10 -15 -15 -15 -5 0 -9 7 -9 15 0 8 7 15 15 15 9 0
12 -6 9 -15z m243 -30 c9 -25 -4 -29 -17 -6 -7 15 -7 21 0 21 6 0 13 -7 17
-15z m353 -5 c0 -11 -4 -20 -10 -20 -5 0 -10 9 -10 20 0 11 5 20 10 20 6 0 10
-9 10 -20z m-1070 -10 c0 -11 -4 -20 -10 -20 -5 0 -10 9 -10 20 0 11 5 20 10
20 6 0 10 -9 10 -20z m466 -20 c1 -17 -3 -30 -7 -30 -5 0 -9 6 -9 13 0 6 -3
22 -6 35 -5 16 -3 21 7 17 8 -3 14 -19 15 -35z m300 2 c-9 -8 -26 10 -26 26 1
15 2 15 15 -2 8 -11 13 -21 11 -24z m-1393 13 c4 -8 2 -17 -3 -20 -6 -4 -10 3
-10 14 0 25 6 27 13 6z m1283 -32 c-11 -11 -17 4 -9 23 7 18 8 18 11 1 2 -10
1 -21 -2 -24z m148 1 c9 -24 7 -28 -9 -14 -17 14 -20 30 -6 30 5 0 12 -7 15
-16z m276 -10 c0 -8 -4 -14 -10 -14 -5 0 -10 9 -10 21 0 11 5 17 10 14 6 -3
10 -13 10 -21z m-367 -4 c-3 -11 -9 -17 -14 -15 -10 7 -1 35 11 35 5 0 6 -9 3
-20z m-713 -10 c0 -11 -4 -20 -10 -20 -5 0 -10 9 -10 20 0 11 5 20 10 20 6 0
10 -9 10 -20z m-620 -10 c0 -11 -2 -20 -4 -20 -2 0 -6 9 -9 20 -3 11 -1 20 4
20 5 0 9 -9 9 -20z m1254 -5 c-6 -16 -24 -21 -24 -7 0 11 11 22 21 22 5 0 6
-7 3 -15z m-164 -15 c-8 -5 -17 -7 -19 -4 -3 3 1 9 9 14 8 5 17 7 19 4 3 -3
-1 -9 -9 -14z m360 -1 c0 -6 -4 -7 -10 -4 -5 3 -10 11 -10 16 0 6 5 7 10 4 6
-3 10 -11 10 -16z m-139 -43 c-14 -15 -16 -16 -19 -3 -2 9 2 26 9 39 12 22 12
22 19 3 5 -13 2 -27 -9 -39z m373 39 c-4 -8 -10 -15 -15 -15 -4 0 -6 7 -3 15
4 8 10 15 15 15 4 0 6 -7 3 -15z m-1064 -26 c0 -11 -4 -17 -10 -14 -5 3 -10
13 -10 21 0 8 5 14 10 14 6 0 10 -9 10 -21z m-610 -10 c0 -11 -4 -17 -10 -14
-5 3 -10 13 -10 21 0 8 5 14 10 14 6 0 10 -9 10 -21z m1068 1 c-7 -11 -16 -16
-21 -11 -12 12 0 31 19 31 12 0 12 -3 2 -20z m176 4 c8 -21 8 -24 -3 -24 -5 0
-11 9 -14 20 -6 24 8 27 17 4z m381 -3 c-3 -6 -14 -11 -23 -11 -15 1 -15 2 2
15 21 16 32 13 21 -4z m1040 -11 c3 -5 -1 -10 -9 -10 -9 0 -16 5 -16 10 0 6 4
10 9 10 6 0 13 -4 16 -10z m-1355 -25 c-7 -9 -15 -13 -18 -10 -3 2 1 11 8 20
7 9 15 13 18 10 3 -2 -1 -11 -8 -20z m137 17 c6 -4 13 -14 15 -22 2 -8 9 -20
17 -26 19 -15 4 -37 -20 -31 -10 3 -22 1 -25 -4 -3 -5 -12 -9 -20 -9 -8 0 -13
4 -9 9 3 6 -3 14 -12 20 -15 8 -15 10 -2 11 8 0 20 -5 26 -11 8 -8 17 -8 30
-1 17 10 17 11 0 17 -14 6 -15 10 -6 21 9 11 8 14 -5 14 -9 0 -16 5 -16 10 0
12 10 13 27 2z m-1437 -37 c0 -8 -4 -17 -10 -20 -6 -4 -10 5 -10 20 0 15 4 24
10 20 6 -3 10 -12 10 -20z m621 -15 c11 0 17 -5 14 -10 -4 -6 -11 -7 -17 -4
-7 5 -9 -2 -4 -20 4 -15 2 -26 -4 -26 -5 0 -10 3 -11 8 0 4 -2 27 -4 52 -2 25
-1 35 1 23 4 -15 13 -23 25 -23z m179 36 c0 -2 -9 -6 -20 -9 -11 -3 -20 -1
-20 4 0 5 9 9 20 9 11 0 20 -2 20 -4z m45 -7 c11 -17 0 -20 -21 -4 -17 13 -17
14 -2 15 9 0 20 -5 23 -11z m655 1 c8 -5 12 -12 9 -15 -8 -8 -39 5 -39 16 0
11 11 11 30 -1z m90 1 c0 -12 -20 -25 -27 -18 -7 7 6 27 18 27 5 0 9 -4 9 -9z
m-340 -15 c0 -8 -4 -18 -10 -21 -5 -3 -10 3 -10 14 0 12 5 21 10 21 6 0 10 -6
10 -14z m110 -17 c0 -11 -4 -17 -10 -14 -5 3 -10 13 -10 21 0 8 5 14 10 14 6
0 10 -9 10 -21z m-620 -4 c-7 -8 -17 -15 -22 -15 -6 0 -5 7 2 15 7 8 17 15 22
15 6 0 5 -7 -2 -15z m526 -22 c-11 -11 -19 6 -11 24 8 17 8 17 12 0 3 -10 2
-21 -1 -24z m317 20 c16 -9 6 -23 -15 -21 -28 4 -48 16 -48 29 0 8 43 3 63 -8z
m-893 -3 c0 -5 -6 -10 -14 -10 -8 0 -18 5 -21 10 -3 6 3 10 14 10 12 0 21 -4
21 -10z m205 0 c3 -5 -1 -10 -9 -10 -8 0 -18 5 -21 10 -3 6 1 10 9 10 8 0 18
-4 21 -10z m230 -10 c-3 -5 -13 -10 -21 -10 -8 0 -12 5 -9 10 3 6 13 10 21 10
8 0 12 -4 9 -10z m30 0 c-3 -5 1 -10 9 -10 9 0 16 -4 16 -9 0 -5 10 -12 23
-14 12 -2 -2 -4 -30 -3 -55 1 -62 7 -40 31 14 16 31 20 22 5z m-1155 -27 c-1
-24 -2 -26 -11 -10 -5 9 -7 22 -4 27 10 17 15 11 15 -17z m950 17 c13 -8 13
-10 -2 -10 -9 0 -20 5 -23 10 -8 13 5 13 25 0z m70 -16 c0 -2 -12 -4 -26 -4
-14 0 -23 4 -20 9 6 8 46 4 46 -5z m45 6 c-3 -5 -13 -10 -21 -10 -8 0 -12 5
-9 10 3 6 13 10 21 10 8 0 12 -4 9 -10z m295 0 c13 -8 13 -10 -2 -10 -9 0 -20
5 -23 10 -8 13 5 13 25 0z m150 0 c12 -8 11 -10 -7 -10 -13 0 -23 5 -23 10 0
13 11 13 30 0z m-1047 -7 c-7 -2 -21 -2 -30 0 -10 3 -4 5 12 5 17 0 24 -2 18
-5z m67 -3 c0 -5 -9 -10 -20 -10 -11 0 -20 5 -20 10 0 6 9 10 20 10 11 0 20
-4 20 -10z m60 0 c0 -5 -9 -10 -20 -10 -11 0 -20 5 -20 10 0 6 9 10 20 10 11
0 20 -4 20 -10z m686 -9 c-19 -21 -56 -34 -56 -20 0 5 9 9 21 9 11 0 18 4 15
9 -4 5 0 12 6 14 26 11 31 6 14 -12z m300 -8 c-10 -10 -19 5 -10 18 6 11 8 11
12 0 2 -7 1 -15 -2 -18z m-946 -29 c0 -8 -4 -14 -10 -14 -5 0 -10 9 -10 21 0
11 5 17 10 14 6 -3 10 -13 10 -21z m967 4 c-3 -8 -6 -5 -6 6 -1 11 2 17 5 13
3 -3 4 -12 1 -19z m-1594 -8 c3 -11 1 -23 -4 -26 -5 -3 -9 6 -9 20 0 31 6 34
13 6z m1207 1 c0 -5 -7 -14 -15 -21 -16 -14 -18 -10 -9 14 6 17 24 22 24 7z
m360 -46 c0 -8 -4 -15 -10 -15 -5 0 -10 7 -10 15 0 8 5 15 10 15 6 0 10 -7 10
-15z m30 -5 c0 -5 -4 -10 -10 -10 -5 0 -10 5 -10 10 0 6 5 10 10 10 6 0 10 -4
10 -10z m-1590 -21 c0 -11 -4 -17 -10 -14 -5 3 -10 13 -10 21 0 8 5 14 10 14
6 0 10 -9 10 -21z m2227 5 c-3 -3 -12 -4 -19 -1 -8 3 -5 6 6 6 11 1 17 -2 13
-5z m-657 -45 c0 -11 -4 -17 -10 -14 -5 3 -10 15 -10 26 0 11 5 17 10 14 6 -3
10 -15 10 -26z m655 11 c3 -5 1 -10 -4 -10 -6 0 -11 5 -11 10 0 6 2 10 4 10 3
0 8 -4 11 -10z m-2225 -26 c0 -14 -4 -23 -9 -20 -5 3 -7 15 -4 26 7 28 13 25
13 -6z m650 -36 c0 -5 -4 -8 -10 -8 -5 0 -10 10 -10 23 0 18 2 19 10 7 5 -8
10 -18 10 -22z m379 13 c7 -5 11 -14 7 -20 -4 -6 -2 -9 7 -5 8 3 20 -2 27 -11
7 -9 8 -15 2 -15 -6 0 -17 -3 -25 -6 -10 -3 -17 3 -21 20 -3 14 -11 26 -16 26
-6 0 -10 5 -10 10 0 12 10 13 29 1z m-49 -7 c0 -11 -29 -34 -42 -34 -10 0 -9
3 2 10 8 5 11 10 7 10 -5 0 -5 5 -2 10 7 11 35 14 35 4z m-972 -27 c5 -24 -15
-21 -21 4 -3 13 -1 19 6 16 7 -2 13 -11 15 -20z m912 13 c0 -5 -10 -10 -22
-10 -19 0 -20 2 -8 10 19 13 30 13 30 0z m-60 -10 c0 -5 -10 -10 -22 -10 -19
0 -20 2 -8 10 19 13 30 13 30 0z m290 0 c0 -5 -7 -10 -15 -10 -9 0 -19 -8 -22
-17 -6 -15 -7 -14 -13 3 -4 10 -6 22 -3 27 6 11 53 9 53 -3z m1950 0 c0 -12
-28 -25 -36 -17 -9 9 6 27 22 27 8 0 14 -5 14 -10z m397 -14 c61 -31 74 -52
243 -389 8 -16 77 -155 153 -308 76 -154 142 -279 147 -279 6 0 10 -7 10 -15
0 -43 33 -82 93 -109 71 -33 57 -47 -19 -19 -42 16 -53 26 -77 71 -16 28 -32
52 -38 52 -5 0 -9 5 -9 11 0 6 -65 142 -144 302 -79 161 -176 360 -215 442
-40 83 -85 163 -99 179 -47 50 -76 56 -262 56 -100 0 -170 4 -170 9 0 25 340
22 387 -3z m-2697 4 c0 -5 -10 -10 -22 -9 -22 0 -22 1 -3 9 11 5 21 9 23 9 1
1 2 -3 2 -9z m410 0 c0 -13 -11 -13 -30 0 -12 8 -11 10 8 10 12 0 22 -4 22
-10z m-564 -37 c-11 -11 -17 4 -9 23 7 18 8 18 11 1 2 -10 1 -21 -2 -24z m261
20 c-9 -9 -19 -14 -23 -11 -10 10 6 28 24 28 15 0 15 -1 -1 -17z m325 -11 c-7
-2 -9 -9 -6 -14 4 -7 2 -8 -4 -4 -6 4 -9 13 -6 21 4 8 11 12 17 8 8 -5 7 -8
-1 -11z m1116 -322 c-1 -118 -3 -149 -8 -110 -5 30 -8 145 -7 255 0 164 2 184
8 110 4 -49 7 -164 7 -255z m-1608 315 c-7 -9 -15 -13 -17 -11 -7 7 7 26 19
26 6 0 6 -6 -2 -15z m-733 -27 c-3 -7 -5 -2 -5 12 0 14 2 19 5 13 2 -7 2 -19
0 -25z m1043 16 c0 -2 -7 -4 -15 -4 -8 0 -15 4 -15 10 0 5 7 7 15 4 8 -4 15
-8 15 -10z m29 -5 c-16 -10 -23 -4 -14 10 3 6 11 8 17 5 6 -4 5 -9 -3 -15z
m1951 12 c0 -5 -11 -18 -25 -29 -14 -11 -25 -27 -25 -35 0 -8 -7 -20 -15 -27
-27 -22 -18 13 15 58 28 40 50 54 50 33z m-2156 -25 c-6 -16 -24 -23 -24 -8 0
10 22 33 27 28 2 -2 1 -11 -3 -20z m270 8 c8 -22 8 -24 -8 -24 -18 0 -29 16
-21 30 9 15 22 12 29 -6z m-503 -41 c-9 -16 -10 -14 -11 12 0 21 3 26 11 18 8
-8 8 -16 0 -30z m65 12 c-1 -17 -7 -25 -18 -25 -21 0 -24 20 -6 38 18 18 26
14 24 -13z m497 8 c-7 -2 -19 -2 -25 0 -7 3 -2 5 12 5 14 0 19 -2 13 -5z m67
2 c0 -14 -41 -48 -47 -40 -5 4 -3 10 4 12 7 2 9 11 6 19 -3 9 2 14 16 14 12 0
21 -2 21 -5z m-222 -39 c-32 -24 -29 -52 5 -47 4 0 7 -6 7 -14 0 -18 -2 -18
-35 -3 -26 12 -33 32 -15 43 6 4 8 11 5 16 -4 5 0 9 8 9 8 0 18 8 22 18 6 13
8 14 13 3 2 -8 -2 -19 -10 -25z m-1028 4 c0 -11 -4 -20 -10 -20 -5 0 -10 9
-10 20 0 11 5 20 10 20 6 0 10 -9 10 -20z m810 5 c-7 -9 -15 -13 -17 -11 -7 7
7 26 19 26 6 0 6 -6 -2 -15z m-611 -64 l-2 -46 -7 40 c-4 22 -11 49 -15 60 -8
18 -7 18 8 6 12 -9 17 -27 16 -60z m546 59 c3 -5 -3 -10 -14 -10 -12 0 -21 5
-21 10 0 6 6 10 14 10 8 0 18 -4 21 -10z m340 0 c3 -5 -3 -10 -15 -10 -12 0
-18 5 -15 10 3 6 10 10 15 10 5 0 12 -4 15 -10z m40 0 c3 -5 1 -10 -4 -10 -6
0 -11 5 -11 10 0 6 2 10 4 10 3 0 8 -4 11 -10z m-157 -16 c-10 -10 -23 -14
-34 -10 -16 6 -16 8 -4 16 8 6 24 10 35 10 18 0 18 -1 3 -16z m217 6 c-3 -5
-13 -10 -21 -10 -8 0 -14 5 -14 10 0 6 9 10 21 10 11 0 17 -4 14 -10z m-423
-26 c-7 -12 -11 -13 -17 -4 -4 7 -2 16 6 21 18 11 23 4 11 -17z m155 -9 c-2
-5 -12 -10 -23 -10 -10 0 -22 -4 -25 -8 -3 -4 -16 -9 -28 -10 -13 -1 -27 -9
-32 -19 -5 -10 -14 -18 -20 -18 -6 0 -19 -10 -29 -22 -10 -13 -22 -19 -27 -15
-4 5 -1 14 8 20 9 7 20 27 24 45 3 18 11 30 15 27 5 -3 7 -13 4 -23 -5 -16 -5
-16 6 1 6 9 20 17 31 17 11 0 27 7 35 15 17 16 66 17 61 0z m303 6 c0 -5 -7
-11 -15 -15 -15 -5 -20 5 -8 17 9 10 23 9 23 -2z m-1223 -33 c-3 -7 -5 -2 -5
12 0 14 2 19 5 13 2 -7 2 -19 0 -25z m307 13 c3 -5 -8 -11 -25 -13 -32 -5 -51
8 -22 15 30 8 42 7 47 -2z m666 -10 c0 -5 -7 -12 -16 -15 -24 -9 -28 -7 -14 9
14 17 30 20 30 6z m192 -13 c-6 -6 -15 -8 -19 -4 -4 4 -1 11 7 16 19 12 27 3
12 -12z m-90 -8 c0 -5 1 -16 2 -22 1 -7 12 -23 25 -34 16 -15 24 -35 26 -65 3
-31 1 -38 -5 -24 -5 11 -9 30 -9 43 -1 15 -7 22 -21 22 -22 0 -25 5 -34 58 -3
18 -1 32 4 32 6 0 11 -4 12 -10z m-322 -9 c0 -11 -31 -24 -39 -16 -3 3 1 10 9
15 19 12 30 12 30 1z m-183 -7 c-3 -3 -12 -4 -19 -1 -8 3 -5 6 6 6 11 1 17 -2
13 -5z m348 -14 c-10 -11 -20 -18 -23 -15 -7 6 18 35 31 35 5 0 2 -9 -8 -20z
m270 10 c4 -6 -6 -10 -22 -9 -25 0 -26 1 -8 9 11 5 21 9 22 9 1 1 5 -3 8 -9z
m35 -52 c0 -5 -4 -8 -10 -8 -5 0 -10 10 -10 23 0 18 2 19 10 7 5 -8 10 -18 10
-22z m-1220 -18 c0 -11 -4 -20 -10 -20 -5 0 -10 9 -10 20 0 11 5 20 10 20 6 0
10 -9 10 -20z m1080 -17 c0 -5 -5 -15 -10 -23 -8 -12 -10 -11 -10 8 0 12 5 22
10 22 6 0 10 -3 10 -7z m150 -7 c0 -8 -4 -18 -10 -21 -5 -3 -10 3 -10 14 0 12
5 21 10 21 6 0 10 -6 10 -14z m-1267 -9 c19 -1 21 -6 8 -26 -8 -12 -19 -12
-72 -2 -44 9 -108 11 -213 6 -103 -5 -148 -4 -141 3 11 12 324 32 370 25 17
-3 38 -6 48 -6z m-478 -34 c-27 -8 -85 -17 -127 -20 l-78 -5 0 -82 0 -81 42
-44 c30 -30 37 -42 24 -40 -10 2 -32 20 -48 40 -25 31 -29 46 -35 122 l-6 87
-66 0 c-36 0 -91 -7 -121 -15 -65 -18 -60 -17 -60 -7 0 18 107 32 243 33 93 0
154 5 177 14 19 7 51 14 70 14 33 0 33 -1 -15 -16z m1095 -33 c-7 -16 -16 -30
-21 -30 -12 0 -11 6 7 41 20 39 31 30 14 -11z m475 11 c-3 -6 -11 -11 -17 -11
-6 0 -6 6 2 15 14 17 26 13 15 -4z m165 -1 c0 -16 -7 -20 -30 -20 -16 0 -30 5
-30 11 0 6 8 8 19 4 12 -3 21 0 25 10 8 21 16 19 16 -5z m245 9 c11 -17 -1
-21 -15 -4 -8 9 -8 15 -2 15 6 0 14 -5 17 -11z m-1518 -24 c-4 -8 -11 -15 -17
-15 -7 0 -7 6 0 21 13 23 26 19 17 -6z m1313 -5 c12 -8 11 -10 -7 -10 -13 0
-23 5 -23 10 0 13 11 13 30 0z m136 -5 c-3 -22 -22 -38 -35 -31 -21 13 -10 26
36 45 1 1 0 -6 -1 -14z m-76 -5 c12 -8 11 -10 -7 -10 -13 0 -23 5 -23 10 0 13
11 13 30 0z m135 0 c-3 -5 -13 -10 -21 -10 -8 0 -14 5 -14 10 0 6 9 10 21 10
11 0 17 -4 14 -10z m-1518 -52 c-3 -7 -5 -2 -5 12 0 14 2 19 5 13 2 -7 2 -19
0 -25z m450 15 c-4 -3 1 -11 10 -18 14 -10 6 -12 -43 -12 l-59 -1 40 18 c42
19 63 25 52 13z m128 0 c15 -5 14 -8 -6 -20 l-24 -13 28 6 c23 5 26 4 20 -12
-5 -13 -3 -16 10 -11 12 5 17 1 17 -13 0 -11 -4 -20 -10 -20 -5 0 -10 4 -10
10 0 5 -7 7 -16 3 -10 -4 -25 4 -40 21 -27 29 -40 32 -47 14 -2 -7 -8 -10 -12
-6 -11 11 16 40 31 34 7 -3 16 -1 19 4 7 12 17 12 40 3z m850 -30 c-8 -17 -8
-17 -12 0 -4 14 -8 16 -19 6 -9 -8 -14 -8 -14 -1 0 16 33 32 44 22 5 -5 5 -17
1 -27z m-65 -13 c0 -5 -9 -10 -21 -10 -11 0 -17 5 -14 10 3 6 13 10 21 10 8 0
14 -4 14 -10z m-1350 -21 c0 -11 -4 -17 -10 -14 -5 3 -10 13 -10 21 0 8 5 14
10 14 6 0 10 -9 10 -21z m1290 11 c-20 -13 -43 -13 -35 0 3 6 16 10 28 10 18
0 19 -2 7 -10z m-120 -9 c0 -5 -20 -14 -44 -20 -54 -13 -56 -13 -56 -2 0 4 19
13 43 18 57 14 57 14 57 4z m253 -53 c7 -5 3 -8 -10 -8 -13 0 -27 9 -34 23
-11 20 -11 21 4 8 15 -12 17 -10 18 15 l2 29 4 -30 c3 -16 10 -33 16 -37z
m-870 15 c15 -37 13 -63 -4 -63 -5 0 -9 16 -9 35 0 29 -4 36 -25 41 -32 8 -33
24 -1 24 18 0 27 -9 39 -37z m2277 12 c0 -12 -24 -55 -32 -55 -12 0 -10 14 4
28 9 9 7 12 -10 12 -12 0 -22 5 -22 10 0 6 14 10 30 10 17 0 30 -2 30 -5z
m-2160 -15 c0 -5 -13 -10 -30 -10 -16 0 -30 5 -30 10 0 6 14 10 30 10 17 0 30
-4 30 -10z m-670 -14 c0 -8 -4 -18 -10 -21 -5 -3 -10 3 -10 14 0 12 5 21 10
21 6 0 10 -6 10 -14z m1354 -8 c20 -9 23 -14 15 -25 -6 -7 -16 -13 -21 -13 -6
0 -5 7 2 15 10 12 10 15 -3 15 -9 0 -19 5 -22 10 -8 13 -2 13 29 -2z m-44 -6
c0 -10 -22 -32 -32 -32 -5 0 -3 9 4 20 13 20 28 27 28 12z m-1380 -27 c7 -14
11 -28 7 -31 -3 -3 -10 4 -17 15 -7 14 -21 21 -40 21 -17 0 -30 5 -30 10 0 6
15 10 33 10 26 0 37 -6 47 -25z m710 10 c-7 -9 -15 -13 -17 -11 -7 7 7 26 19
26 6 0 6 -6 -2 -15z m786 -11 c-3 -9 -9 -27 -12 -40 -3 -13 -12 -24 -20 -24
-19 0 -18 16 2 24 8 3 12 11 9 16 -9 14 1 40 16 40 6 0 8 -7 5 -16z m-1436
-11 c0 -5 -5 -15 -10 -23 -8 -12 -10 -11 -10 8 0 12 5 22 10 22 6 0 10 -3 10
-7z m1260 -13 c0 -10 -63 -30 -95 -30 -24 0 -52 16 -43 25 3 4 15 2 25 -4 14
-7 32 -6 64 4 24 7 45 14 47 14 1 1 2 -3 2 -9z m125 0 c-3 -5 -13 -10 -21 -10
-8 0 -12 5 -9 10 3 6 13 10 21 10 8 0 12 -4 9 -10z m-52 -7 c-7 -2 -21 -2 -30
0 -10 3 -4 5 12 5 17 0 24 -2 18 -5z m-1760 -121 c109 -97 121 -112 172 -206
43 -80 93 -146 245 -325 268 -315 273 -321 262 -321 -6 0 -113 121 -239 270
-192 225 -238 286 -281 368 -49 94 -58 104 -177 208 -68 60 -125 113 -125 117
0 13 20 -2 143 -111z m1898 75 c-13 -13 -26 -3 -16 12 3 6 11 8 17 5 6 -4 6
-10 -1 -17z m-1481 6 c0 -5 -5 -15 -10 -23 -8 -12 -10 -11 -10 8 0 12 5 22 10
22 6 0 10 -3 10 -7z m1345 -3 c3 -5 -3 -10 -14 -10 -11 0 -23 5 -26 10 -3 6 3
10 14 10 11 0 23 -4 26 -10z m105 -21 c0 -14 -31 -33 -38 -23 -4 6 -16 16 -27
22 -17 10 -14 12 23 10 23 -1 42 -5 42 -9z m-773 -31 c-3 -7 -5 -2 -5 12 0 14
2 19 5 13 2 -7 2 -19 0 -25z m-687 -5 c0 -5 -5 -15 -10 -23 -8 -12 -10 -11
-10 8 0 12 5 22 10 22 6 0 10 -3 10 -7z m1410 -3 c0 -5 -10 -15 -22 -21 -23
-12 -23 -12 -4 10 21 23 26 26 26 11z m-445 -42 c42 2 55 -1 44 -7 -21 -13
-81 -16 -155 -7 -48 6 -69 4 -93 -8 -53 -28 -65 -56 -62 -158 1 -60 -2 -87 -9
-83 -6 3 -10 44 -10 93 0 96 13 128 66 163 24 15 40 17 94 12 36 -4 92 -6 125
-5z m-975 -15 c0 -5 -5 -15 -10 -23 -8 -12 -10 -11 -10 8 0 12 5 22 10 22 6 0
10 -3 10 -7z m310 -103 c-19 -12 -19 -10 -13 25 6 29 6 29 16 6 8 -17 7 -25
-3 -31z m1305 20 c3 -5 -3 -10 -14 -10 -11 0 -23 5 -26 10 -3 6 3 10 14 10 11
0 23 -4 26 -10z m41 -47 c-7 -7 -26 7 -26 19 0 6 6 6 15 -2 9 -7 13 -15 11
-17z m-1326 -19 c0 -8 -4 -14 -10 -14 -5 0 -10 9 -10 21 0 11 5 17 10 14 6 -3
10 -13 10 -21z m-56 -8 c-6 -16 -24 -23 -24 -8 0 10 22 33 27 28 2 -2 1 -11
-3 -20z m1601 -126 c32 -33 17 -42 -15 -10 -17 17 -27 40 -17 40 2 0 16 -13
32 -30z m-710 -66 c-3 -30 -11 -54 -16 -54 -10 0 -2 105 9 125 11 17 14 -16 7
-71z m3180 -34 c-3 -5 -15 -10 -26 -10 -10 0 -19 5 -19 10 0 6 12 10 26 10 14
0 23 -4 19 -10z m78 -6 c26 -9 47 -20 47 -25 0 -12 2 -12 -53 7 -26 9 -47 20
-47 25 0 12 -2 12 53 -7z m-3523 -15 c0 -7 8 -18 17 -25 26 -18 11 -26 -15 -8
-22 15 -30 44 -12 44 6 0 10 -5 10 -11z m1286 -145 c-3 -9 -6 -20 -6 -25 0 -5
-16 -9 -36 -9 -41 0 -42 17 -3 37 34 18 52 16 45 -3z m2681 -15 c48 -23 49
-26 58 -141 6 -67 5 -78 -9 -78 -13 0 -16 14 -16 83 0 92 -8 107 -68 128 -18
6 -32 15 -32 20 0 14 20 11 67 -12z m403 12 c0 -4 -9 -20 -20 -34 -15 -19 -20
-40 -20 -91 0 -37 -4 -66 -10 -66 -6 0 -10 30 -10 71 0 58 4 76 23 99 22 29
37 37 37 21z m-3760 -20 c15 18 19 20 20 8 0 -9 -9 -24 -20 -34 -11 -10 -20
-15 -20 -10 0 4 -7 2 -15 -5 -9 -8 -15 -9 -15 -2 0 6 5 14 11 18 8 4 6 10 -6
17 -14 7 -15 11 -4 18 10 6 16 2 21 -12 8 -21 8 -21 28 2z m3725 9 c-3 -5 -10
-10 -16 -10 -5 0 -9 5 -9 10 0 6 7 10 16 10 8 0 12 -4 9 -10z m-2175 -30 c0
-10 -27 -15 -67 -11 -20 1 -23 -3 -23 -34 0 -31 3 -35 25 -35 20 0 25 -5 25
-25 0 -14 -4 -25 -10 -25 -5 0 -10 7 -10 15 0 10 -10 15 -27 15 -27 0 -28 2
-28 50 0 41 3 50 20 53 41 9 95 7 95 -3z m-1564 -66 c-9 -9 -20 -13 -24 -9 -4
3 2 13 12 21 11 7 22 12 24 9 2 -2 -3 -12 -12 -21z m94 -10 c0 -8 -5 -12 -10
-9 -6 4 -8 11 -5 16 9 14 15 11 15 -7z m495 6 c4 -6 -7 -10 -24 -10 -17 0 -31
5 -31 10 0 6 11 10 24 10 14 0 28 -4 31 -10z m393 -38 c2 -12 1 -22 -3 -22
-14 0 -36 30 -30 40 10 17 30 6 33 -18z m-898 -2 c0 -5 8 -10 18 -10 12 -1 9
-5 -10 -16 -16 -8 -28 -21 -28 -29 0 -8 -5 -15 -11 -15 -6 0 -8 7 -5 16 3 9 9
27 12 40 6 23 24 34 24 14z m-934 -39 c-14 -16 -17 -34 -14 -95 2 -56 0 -76
-9 -76 -9 0 -13 23 -13 83 0 83 9 107 39 107 11 0 11 -4 -3 -19z m974 -10 c0
-5 -5 -11 -11 -13 -8 -3 -9 -12 -3 -28 7 -24 8 -23 19 14 8 29 13 35 18 23 3
-9 2 -19 -3 -22 -18 -11 12 -55 37 -55 13 0 22 -4 19 -9 -4 -5 0 -12 6 -14 8
-3 5 -6 -6 -6 -12 -1 -16 -6 -12 -17 4 -10 -2 -24 -15 -35 -12 -11 -19 -22
-14 -27 4 -4 10 -1 12 6 6 17 23 15 23 -3 0 -8 7 -15 15 -15 8 0 15 -5 15 -11
0 -6 -9 -8 -22 -4 -15 6 -20 4 -15 -6 21 -52 20 -54 -7 -26 -14 16 -24 32 -21
37 3 4 1 10 -4 12 -4 1 -18 23 -30 47 -16 34 -18 47 -9 52 16 10 6 20 -21 22
-11 1 -21 5 -21 9 0 4 -7 5 -16 1 -13 -5 -14 -3 -6 13 24 44 72 80 72 55z
m4680 -11 c0 -5 -11 -10 -25 -10 -14 0 -25 5 -25 10 0 6 11 10 25 10 14 0 25
-4 25 -10z m-3330 -20 c0 -5 -7 -10 -15 -10 -8 0 -15 5 -15 10 0 6 7 10 15 10
8 0 15 -4 15 -10z m1875 -10 c-11 -5 -31 -8 -45 -8 -23 0 -22 1 5 8 42 11 65
11 40 0z m-88 -16 c-3 -3 -12 -4 -19 -1 -8 3 -5 6 6 6 11 1 17 -2 13 -5z m-60
-10 c-3 -3 -12 -4 -19 -1 -8 3 -5 6 6 6 11 1 17 -2 13 -5z m-2942 -14 c-3 -5
-14 -10 -23 -10 -15 0 -15 2 -2 10 20 13 33 13 25 0z m29 -5 c3 -8 1 -15 -4
-15 -6 0 -10 7 -10 15 0 8 2 15 4 15 2 0 6 -7 10 -15z m2843 9 c-3 -3 -12 -4
-19 -1 -8 3 -5 6 6 6 11 1 17 -2 13 -5z m301 -47 c3 -46 4 -47 38 -47 18 0 34
-4 34 -10 0 -5 -18 -10 -40 -10 l-40 0 0 -40 0 -40 81 0 c77 0 85 2 178 50
l98 50 101 0 c56 0 104 -4 107 -10 3 -5 44 -10 91 -10 68 0 84 -3 84 -15 0
-21 -146 -21 -174 0 -14 11 -46 15 -111 15 -90 0 -94 -1 -194 -50 -95 -46
-108 -50 -177 -50 l-75 0 3 -122 3 -123 34 -3 c31 -3 40 3 100 67 65 70 67 71
116 71 32 0 60 -6 75 -17 14 -10 52 -21 85 -24 56 -6 55 -7 -22 -6 -73 1 -83
3 -83 19 0 15 -8 18 -45 18 -41 0 -45 -2 -45 -25 0 -25 -15 -35 -22 -14 -2 6
-27 -17 -56 -50 -42 -48 -50 -62 -38 -67 25 -9 19 -24 -9 -24 -22 0 -25 -4
-25 -35 0 -22 6 -38 15 -41 24 -10 18 -27 -25 -69 -46 -45 -54 -35 -11 15 19
24 26 39 20 50 -4 8 -11 36 -14 63 -5 36 -10 47 -24 47 -15 0 -19 -11 -24 -68
-3 -38 -3 -87 0 -110 4 -28 2 -42 -6 -42 -6 0 -11 15 -11 33 -1 61 -8 202 -15
330 l-8 128 -66 -6 c-36 -2 -140 -10 -231 -16 -103 -6 -168 -15 -173 -22 -6
-9 -10 -9 -14 1 -3 8 -28 12 -74 12 -99 0 -85 18 19 24 78 5 446 23 515 25
l27 1 0 101 c0 76 3 100 13 97 6 -3 13 -25 15 -51z m-3388 35 c0 -5 -9 -17
-20 -27 -23 -21 -26 -14 -8 15 13 20 28 27 28 12z m3013 1 c-7 -2 -19 -2 -25
0 -7 3 -2 5 12 5 14 0 19 -2 13 -5z m-4083 -25 c0 -6 -7 -7 -16 -4 -9 3 -20 6
-25 6 -5 0 -9 4 -9 9 0 4 11 6 25 3 14 -2 25 -9 25 -14z m1114 6 c4 -11 1 -14
-11 -12 -9 2 -18 9 -21 16 -6 18 25 15 32 -4z m2909 9 c-7 -2 -19 -2 -25 0 -7
3 -2 5 12 5 14 0 19 -2 13 -5z m-56 -9 c-3 -3 -12 -4 -19 -1 -8 3 -5 6 6 6 11
1 17 -2 13 -5z m-3917 -25 c0 -4 -7 -6 -15 -3 -8 4 -15 10 -15 15 0 4 7 6 15
3 8 -4 15 -10 15 -15z m370 11 c0 -5 -7 -10 -15 -10 -8 0 -15 5 -15 10 0 6 7
10 15 10 8 0 15 -4 15 -10z m900 -10 c0 -11 -2 -20 -4 -20 -2 0 -6 9 -9 20 -3
11 -1 20 4 20 5 0 9 -9 9 -20z m715 10 c3 -5 25 -10 49 -10 31 0 43 -4 43 -15
0 -22 -67 -19 -94 4 -13 11 -23 22 -23 25 0 10 18 7 25 -4z m1862 4 c-3 -3
-12 -4 -19 -1 -8 3 -5 6 6 6 11 1 17 -2 13 -5z m-3803 -20 c23 -9 20 -23 -4
-17 -11 3 -20 9 -20 14 0 11 3 11 24 3z m1036 -14 c0 -11 -4 -20 -10 -20 -5 0
-10 9 -10 20 0 11 5 20 10 20 6 0 10 -9 10 -20z m-900 -9 c0 -5 -9 -7 -20 -4
-11 3 -20 7 -20 9 0 2 9 4 20 4 11 0 20 -4 20 -9z m40 -1 c0 -5 -4 -10 -10
-10 -5 0 -10 5 -10 10 0 6 5 10 10 10 6 0 10 -4 10 -10z m1060 -31 c0 -11 -4
-17 -10 -14 -5 3 -10 13 -10 21 0 8 5 14 10 14 6 0 10 -9 10 -21z m2204 12 c3
-5 -1 -12 -10 -15 -22 -9 -24 -8 -24 9 0 16 25 21 34 6z m1786 -1 c0 -5 -15
-10 -32 -10 -18 0 -42 -7 -52 -15 -24 -18 -36 -19 -36 -2 0 7 12 18 28 24 35
14 92 16 92 3z m-4192 -44 c-12 -9 -14 -16 -7 -29 6 -11 6 -17 1 -17 -17 0
-22 29 -10 55 8 19 14 22 22 15 8 -8 6 -15 -6 -24z m3178 -12 c8 3 16 1 19 -3
5 -8 -55 -25 -62 -17 -2 2 -1 16 3 32 7 28 7 28 17 6 6 -13 16 -21 23 -18z
m-3206 -32 c0 -15 -2 -15 -10 -2 -13 20 -13 33 0 25 6 -3 10 -14 10 -23z
m4072 -4 c-15 -15 -26 -4 -18 18 5 13 9 15 18 6 9 -9 9 -15 0 -24z m-4349 -3
c-7 -21 -13 -19 -13 6 0 11 4 18 10 14 5 -3 7 -12 3 -20z m2765 -1 c33 -9 27
-21 -8 -16 -16 2 -30 8 -30 13 0 10 7 11 38 3z m-2335 -34 c3 -11 2 -20 -3
-20 -8 0 -20 24 -20 41 0 17 17 1 23 -21z m2229 -13 c-20 -19 -32 -26 -32 -17
0 15 52 62 59 54 3 -3 -9 -19 -27 -37z m-2436 7 c-22 -16 -46 -19 -46 -5 0 10
52 31 60 24 3 -3 -4 -11 -14 -19z m47 -2 c-3 -12 -9 -22 -14 -22 -12 0 -11 7
2 32 13 25 20 19 12 -10z m2604 11 c3 -7 -3 -9 -16 -6 -12 3 -21 10 -21 15 0
13 32 6 37 -9z m-322 -23 c25 -6 27 -8 12 -15 -21 -9 -87 18 -87 35 0 7 8 7
23 -1 12 -7 36 -16 52 -19z m410 20 c4 -6 -8 -10 -29 -10 -20 0 -36 5 -36 10
0 6 13 10 29 10 17 0 33 -4 36 -10z m-2968 -7 c-4 -3 -2 -12 5 -20 8 -11 7
-12 -6 -7 -18 7 -22 34 -4 34 6 0 8 -3 5 -7z m2723 -2 c0 -5 -7 -14 -15 -21
-12 -10 -15 -10 -15 2 0 8 3 18 7 21 9 10 23 9 23 -2z m-2284 -40 c-4 -5 0
-11 6 -13 9 -3 4 -16 -15 -41 -15 -19 -27 -42 -27 -51 0 -15 -27 -15 -52 0 -8
5 -9 2 -5 -10 8 -19 -19 -34 -34 -19 -13 13 20 56 37 49 8 -3 14 1 14 9 0 8
10 17 23 20 13 4 28 19 34 36 6 16 14 29 18 29 3 0 4 -4 1 -9z m1689 1 c-10
-8 -279 -52 -319 -52 -49 0 5 14 136 35 159 26 197 29 183 17z m-2061 -11 c4
-5 1 -11 -5 -13 -5 -2 -7 -11 -3 -22 4 -12 9 -14 14 -6 4 7 13 2 24 -15 10
-15 15 -30 11 -33 -4 -4 -11 1 -16 11 -6 9 -18 17 -29 17 -10 0 -20 6 -23 13
-3 8 -8 9 -14 2 -6 -6 -5 -19 3 -35 11 -19 14 -21 14 -7 0 10 5 15 10 12 15
-9 12 -45 -4 -45 -8 0 -24 16 -35 36 -21 35 -21 37 -4 50 10 7 21 14 26 14 4
0 7 7 7 15 0 17 16 20 24 6z m2574 -48 c-21 -24 -38 -87 -39 -148 -1 -83 -18
-101 -18 -20 -1 85 14 156 36 173 25 18 38 15 21 -5z m829 -38 c8 -22 -6 -33
-17 -15 -8 13 -10 12 -10 -2 0 -10 -4 -18 -10 -18 -5 0 -10 11 -10 25 0 18 5
25 20 25 11 0 23 -7 27 -15z m903 5 c0 -6 -47 -10 -120 -10 -73 0 -120 4 -120
10 0 6 47 10 120 10 73 0 120 -4 120 -10z m17 -37 c-3 -10 -5 -2 -5 17 0 19 2
27 5 18 2 -10 2 -26 0 -35z m-447 12 c-7 -8 -17 -15 -22 -15 -6 0 -5 7 2 15 7
8 17 15 22 15 6 0 5 -7 -2 -15z m-3800 -29 c0 -5 -7 -3 -15 4 -8 7 -12 17 -9
22 7 10 24 -9 24 -26z m1845 18 c20 -8 35 -18 32 -21 -7 -7 -75 16 -82 28 -9
13 7 11 50 -7z m2324 -1 c17 -14 18 -18 5 -30 -9 -9 -21 -12 -32 -8 -10 4 -12
9 -6 12 7 2 10 13 7 23 -6 24 1 25 26 3z m-3509 3 c0 -3 -27 -26 -60 -51 -33
-25 -60 -40 -60 -33 1 20 120 103 120 84z m-730 -42 c0 -8 -4 -12 -10 -9 -5 3
-10 13 -10 21 0 8 5 12 10 9 6 -3 10 -13 10 -21z m229 -100 c46 -63 81 -117
78 -120 -3 -3 -13 2 -21 13 -34 39 -156 208 -156 216 0 21 23 -4 99 -109z
m-1061 84 c16 -16 15 -28 -2 -28 -17 0 -38 24 -29 33 9 10 17 9 31 -5z m1896
3 c7 -10 -60 -25 -74 -16 -6 3 -10 10 -10 16 0 12 77 12 84 0z m941 -11 c10
-11 14 -20 8 -20 -5 0 -18 9 -28 20 -10 11 -14 20 -8 20 5 0 18 -9 28 -20z
m-1992 -30 c3 -11 1 -20 -4 -20 -5 0 -9 9 -9 20 0 11 2 20 4 20 2 0 6 -9 9
-20z m2123 -31 c7 -12 5 -12 -49 7 -26 9 -47 20 -47 24 0 11 88 -18 96 -31z
m1209 0 c18 -34 16 -43 -9 -33 -11 4 -15 13 -10 26 4 14 2 18 -5 14 -12 -8
-15 6 -4 17 10 11 11 9 28 -24z m445 -5 c0 -8 -9 -14 -20 -14 -18 0 -19 3 -10
20 12 22 30 18 30 -6z m-3670 -29 c0 -8 -4 -15 -10 -15 -5 0 -10 7 -10 15 0 8
5 15 10 15 6 0 10 -7 10 -15z m3650 -20 c0 -10 -10 -13 -30 -12 -36 2 -39 14
-7 26 26 10 37 6 37 -14z m-2570 -6 c0 -6 -4 -7 -10 -4 -5 3 -10 11 -10 16 0
6 5 7 10 4 6 -3 10 -11 10 -16z m-310 -36 c0 -19 -52 -42 -58 -25 -2 6 -12 12
-22 12 -10 0 -20 7 -24 15 -3 8 -4 15 -3 15 1 0 20 7 42 15 36 12 41 12 53 -3
6 -8 12 -22 12 -29z m1950 27 c0 -5 -7 -10 -15 -10 -8 0 -15 5 -15 10 0 6 7
10 15 10 8 0 15 -4 15 -10z m-1533 -16 c2 -7 -6 -10 -22 -7 -14 3 -25 10 -25
15 0 13 43 6 47 -8z m1861 -12 c2 -8 -3 -9 -19 -4 -13 5 -25 14 -27 20 -2 8 3
9 19 4 13 -5 25 -14 27 -20z m-2158 -17 c0 -17 6 -25 18 -25 9 0 35 -11 57
-25 33 -20 53 -24 118 -25 44 0 77 -4 77 -10 0 -6 -32 -10 -77 -10 -65 0 -85
4 -118 25 -22 13 -54 25 -70 25 -29 0 -31 2 -27 35 5 40 22 48 22 10z m2235
15 c-3 -5 -12 -10 -20 -10 -8 0 -17 5 -20 10 -4 6 5 10 20 10 15 0 24 -4 20
-10z m90 0 c-3 -5 -10 -10 -16 -10 -5 0 -9 5 -9 10 0 6 7 10 16 10 8 0 12 -4
9 -10z m-802 -12 c5 -18 -3 -48 -14 -48 -5 0 -9 14 -9 30 0 30 15 41 23 18z
m917 5 c0 -5 -5 -15 -10 -23 -8 -12 -10 -11 -10 8 0 12 5 22 10 22 6 0 10 -3
10 -7z m-780 -23 c0 -5 -13 -10 -29 -10 -17 0 -33 5 -36 10 -4 6 8 10 29 10
20 0 36 -4 36 -10z m170 1 c0 -5 -20 -11 -45 -13 -44 -3 -62 6 -27 15 31 8 72
7 72 -2z m-2652 -31 c17 -11 32 -15 32 -10 0 11 42 31 50 23 3 -2 -6 -13 -19
-23 l-24 -18 31 -7 c36 -7 53 -25 25 -25 -24 0 -117 46 -133 65 -17 21 -1 18
38 -5z m116 -6 c4 -10 1 -14 -6 -12 -15 5 -23 28 -10 28 5 0 13 -7 16 -16z
m3154 -16 c2 -11 -3 -18 -13 -18 -9 0 -13 5 -10 10 3 6 -1 10 -9 10 -9 0 -16
5 -16 11 0 18 45 5 48 -13z m-1808 -17 c0 -12 -20 -25 -27 -18 -7 7 6 27 18
27 5 0 9 -4 9 -9z m1936 -17 c-3 -9 -6 -31 -6 -50 0 -19 -4 -34 -10 -34 -5 0
-10 23 -10 50 0 39 3 50 16 50 11 0 14 -5 10 -16z m-2778 -14 c12 -13 13 -13
8 3 -4 13 0 17 17 17 18 0 19 -2 7 -10 -11 -8 -7 -9 14 -4 27 6 29 5 24 -18
-5 -25 -2 -26 46 -19 4 0 6 10 3 20 -3 13 1 21 15 24 15 4 19 1 18 -16 -4 -42
0 -59 12 -55 7 3 15 14 18 25 4 15 10 18 24 14 17 -7 17 -8 2 -24 -10 -9 -13
-18 -7 -18 6 -1 16 -3 21 -4 6 -1 23 -3 38 -4 16 0 37 -8 48 -17 18 -14 16
-15 -30 -10 l-49 6 8 -103 c4 -56 8 -103 10 -105 1 -1 22 2 46 7 41 9 59 8 47
-4 -3 -3 -39 -11 -80 -17 -55 -9 -74 -16 -71 -25 3 -7 0 -13 -6 -13 -6 0 -11
7 -11 15 0 23 -50 19 -77 -7 -13 -12 -26 -18 -30 -15 -17 18 67 60 103 51 26
-7 27 -5 18 20 -8 21 -15 20 -86 -6 -49 -17 -59 -25 -55 -40 4 -12 1 -18 -6
-15 -7 2 -13 13 -15 24 -2 17 9 24 70 47 90 32 96 32 104 1 13 -54 24 -20 24
75 0 55 -4 100 -8 100 -12 0 -33 -50 -27 -61 4 -5 -3 -9 -15 -9 -20 0 -20 1
-5 31 9 17 15 32 13 34 -2 1 -30 6 -63 10 -70 8 -78 12 -70 32 5 14 3 14 -12
2 -10 -7 -31 -26 -47 -41 -38 -37 -61 -37 -37 1 6 9 5 21 -2 32 -9 15 -12 15
-25 3 -8 -8 -16 -32 -19 -54 -3 -22 -10 -40 -14 -40 -5 0 -9 4 -9 10 0 5 -7 7
-15 4 -22 -9 -18 9 5 24 14 8 20 23 20 46 0 56 8 66 54 67 22 1 33 3 23 6 -9
2 -15 9 -12 14 8 12 27 7 43 -11z m-702 -11 c19 -22 19 -22 -3 -10 -24 12 -39
31 -25 31 5 0 17 -10 28 -21z m976 -11 c-11 -11 -32 -3 -32 12 0 12 34 18 39
7 2 -5 -1 -13 -7 -19z m748 17 c14 -16 10 -18 -14 -9 -9 3 -16 10 -16 15 0 14
16 11 30 -6z m-1135 -25 c-3 -5 -13 -10 -21 -10 -8 0 -12 5 -9 10 3 6 13 10
21 10 8 0 12 -4 9 -10z m425 -10 c0 -5 -4 -10 -9 -10 -6 0 -13 5 -16 10 -3 6
1 10 9 10 9 0 16 -4 16 -10z m1378 -2 c-2 -6 -10 -14 -16 -16 -7 -2 -10 2 -6
12 7 18 28 22 22 4z m-434 -42 c21 8 41 -23 26 -40 -12 -16 -44 -10 -34 5 3 5
-1 12 -10 15 -9 3 -12 12 -9 22 4 9 8 11 10 5 3 -7 10 -10 17 -7z m-888 -33
c-8 -8 -36 5 -36 17 0 7 6 7 21 0 11 -7 18 -14 15 -17z m2401 -35 c-2 -13 -4
-3 -4 22 0 25 2 35 4 23 2 -13 2 -33 0 -45z m-3107 17 c0 -8 -7 -15 -15 -15
-16 0 -20 12 -8 23 11 12 23 8 23 -8z m2604 -172 c-3 -98 -7 -193 -10 -210 -7
-46 -25 -41 -19 5 4 33 14 261 15 350 0 17 4 32 10 32 6 0 7 -66 4 -177z m95
148 c10 -7 11 -13 2 -30 -16 -29 -28 -26 -33 9 -5 31 5 37 31 21z m-2554 -32
c7 -10 -25 -20 -38 -12 -15 9 -79 4 -91 -8 -14 -13 -26 -11 -26 5 0 8 10 17
23 19 35 7 127 5 132 -4z m939 -69 c42 -27 76 -51 76 -54 0 -2 -11 -3 -25 -3
-14 0 -25 5 -25 12 0 6 -12 18 -27 25 -16 8 -32 16 -37 19 -5 2 -6 -8 -2 -23
4 -16 2 -26 -5 -26 -6 0 -9 14 -7 33 2 25 -2 34 -19 42 -23 10 -31 25 -14 25
5 0 43 -22 85 -50z m566 40 c0 -5 -5 -10 -11 -10 -5 0 -7 5 -4 10 3 6 8 10 11
10 2 0 4 -4 4 -10z m-1702 -47 c-1 -35 -14 -44 -21 -15 -4 13 -5 11 -6 -5 -1
-21 -21 -34 -21 -14 0 5 -3 16 -6 25 -4 11 -1 16 10 16 9 0 16 6 16 13 0 8 7
14 15 14 10 0 14 -11 13 -34z m935 -4 c-24 -40 -36 -36 -16 6 9 19 20 32 25
29 4 -3 1 -19 -9 -35z m-593 11 c-19 -13 -30 -13 -30 0 0 6 10 10 23 10 18 0
19 -2 7 -10z m1618 -26 c23 -7 27 -20 12 -44 -7 -12 -12 -12 -29 4 -21 19 -28
46 -13 46 4 0 17 -3 30 -6z m122 -21 c0 -7 -6 -13 -12 -14 -10 0 -10 -2 0 -6
19 -8 3 -23 -25 -23 -23 0 -25 -3 -19 -30 3 -16 2 -30 -3 -30 -11 0 -21 36
-21 80 0 34 1 35 40 35 26 1 40 -3 40 -12z m-1060 -8 c0 -8 -4 -15 -10 -15 -5
0 -10 7 -10 15 0 8 5 15 10 15 6 0 10 -7 10 -15z m60 -21 c0 -16 -9 -18 -30
-4 -13 9 -13 11 0 19 17 12 30 5 30 -15z m2080 -69 c0 -47 -4 -85 -9 -85 -6 0
-12 -21 -14 -47 -2 -27 -4 12 -5 85 -2 111 0 132 13 132 12 0 15 -16 15 -85z
m187 33 c-5 -58 -33 -138 -49 -138 -6 0 -7 8 -3 18 27 67 28 73 8 95 -31 35
-39 54 -11 30 33 -31 38 -29 38 12 0 19 5 35 11 35 6 0 9 -19 6 -52z m-3377
27 c0 -8 5 -15 10 -15 6 0 10 -9 10 -20 0 -21 -24 -27 -50 -10 -12 7 -12 12 0
34 15 29 30 34 30 11z m3060 -48 c0 -43 -5 -70 -16 -83 -15 -18 -15 -18 -10 6
3 14 6 51 6 83 0 31 5 57 10 57 6 0 10 -28 10 -63z m-2160 49 c0 -11 -19 -15
-25 -6 -3 5 1 10 9 10 9 0 16 -2 16 -4z m926 -44 c-9 -8 -26 10 -26 26 1 15 2
15 15 -2 8 -11 13 -21 11 -24z m-826 12 c0 -9 -7 -14 -17 -12 -25 5 -28 28 -4
28 12 0 21 -6 21 -16z m-625 -21 c-9 -40 -22 -48 -35 -23 -10 18 -9 24 7 36
28 21 36 17 28 -13z m878 2 c13 0 9 -20 -5 -22 -20 -4 -42 13 -34 26 4 6 13 8
19 4 7 -4 15 -8 20 -8z m1867 -10 c0 -14 -4 -25 -10 -25 -5 0 -10 11 -10 25 0
14 5 25 10 25 6 0 10 -11 10 -25z m-1940 0 c7 -8 19 -15 26 -15 20 0 17 -17
-3 -24 -16 -6 -52 26 -53 47 0 12 17 8 30 -8z m-1065 -15 c11 -13 14 -20 6
-20 -18 0 -51 19 -51 30 0 17 26 11 45 -10z m958 -20 c-3 -11 -10 -20 -15 -20
-6 0 -7 7 -4 16 3 9 6 20 6 25 0 6 4 8 9 5 5 -3 7 -15 4 -26z m792 10 c3 -5 1
-10 -4 -10 -6 0 -11 5 -11 10 0 6 2 10 4 10 3 0 8 -4 11 -10z m1405 -5 c-7 -8
-19 -15 -27 -15 -13 0 -13 3 -3 15 7 8 19 15 27 15 13 0 13 -3 3 -15z m-2100
-35 c0 -5 -7 -10 -16 -10 -8 0 -12 5 -9 10 3 6 10 10 16 10 5 0 9 -4 9 -10z
m140 -30 c0 -5 -2 -10 -4 -10 -3 0 -8 5 -11 10 -3 6 -1 10 4 10 6 0 11 -4 11
-10z m720 -20 c-6 -11 -19 -24 -30 -30 -13 -7 -20 -21 -20 -38 0 -19 -13 -42
-40 -70 -40 -41 -41 -42 -98 -36 l-57 5 -29 -65 c-16 -36 -33 -66 -37 -66 -5
0 -9 2 -9 5 0 12 63 131 74 138 6 4 33 6 60 3 45 -5 51 -3 82 28 24 24 34 43
34 65 0 19 6 34 16 38 8 3 13 11 10 19 -4 11 4 15 47 23 4 0 3 -8 -3 -19z
m190 -4 c0 -8 3 -21 6 -30 3 -9 1 -16 -5 -16 -6 0 -11 7 -11 15 0 8 -5 14 -12
13 -6 -2 -14 5 -16 15 -2 12 3 17 17 17 12 0 21 -6 21 -14z m-566 -48 c4 -22
3 -38 -2 -38 -11 0 -22 34 -22 70 0 34 16 13 24 -32z m-694 22 c0 -5 -4 -10
-10 -10 -5 0 -10 5 -10 10 0 6 5 10 10 10 6 0 10 -4 10 -10z m255 -10 c3 -5 1
-10 -4 -10 -6 0 -11 5 -11 10 0 6 2 10 4 10 3 0 8 -4 11 -10z m280 0 c3 -6 -4
-10 -17 -10 -18 0 -20 2 -8 10 19 12 18 12 25 0z m-565 -16 c0 -17 -22 -14
-28 4 -2 7 3 12 12 12 9 0 16 -7 16 -16z m-220 -15 c0 -5 -7 -9 -15 -9 -15 0
-20 12 -9 23 8 8 24 -1 24 -14z m-280 -9 c0 -5 -7 -10 -16 -10 -8 0 -12 5 -9
10 3 6 10 10 16 10 5 0 9 -4 9 -10z m240 -31 c0 -18 -2 -19 -15 -9 -8 7 -15
16 -15 21 0 5 7 9 15 9 9 0 15 -9 15 -21z m1635 1 c3 -5 1 -10 -4 -10 -6 0
-11 5 -11 10 0 6 2 10 4 10 3 0 8 -4 11 -10z m-1590 -10 c3 -5 -3 -10 -15 -10
-12 0 -18 5 -15 10 3 6 10 10 15 10 5 0 12 -4 15 -10z m221 -8 c6 -4 10 -18 8
-32 -1 -14 -3 -28 -3 -32 -2 -19 -21 -5 -27 20 -4 15 -14 32 -23 39 -14 11
-13 12 9 13 14 0 30 -4 36 -8z m-66 -23 c0 -5 -4 -9 -10 -9 -5 0 -10 7 -10 16
0 8 5 12 10 9 6 -3 10 -10 10 -16z m-292 0 c-2 -6 -8 -10 -13 -10 -5 0 -11 4
-13 10 -2 6 4 11 13 11 9 0 15 -5 13 -11z m429 -5 c-3 -3 -12 -4 -19 -1 -8 3
-5 6 6 6 11 1 17 -2 13 -5z m2153 -14 c0 -5 -4 -10 -10 -10 -5 0 -10 5 -10 10
0 6 5 10 10 10 6 0 10 -4 10 -10z m-1812 -11 c-2 -6 -8 -10 -13 -10 -5 0 -11
4 -13 10 -2 6 4 11 13 11 9 0 15 -5 13 -11z m1292 -51 c12 -29 24 -59 27 -67
4 -9 0 -12 -13 -9 -10 2 -20 9 -20 16 -6 55 -6 57 -11 40 -6 -24 -16 -23 -39
3 -19 22 -19 22 5 14 22 -7 24 -5 18 24 -10 48 8 37 33 -21z m-1815 22 c-3 -4
2 -10 10 -14 8 -3 15 -10 15 -16 0 -12 -37 -14 -44 -2 -8 13 5 52 15 46 5 -3
7 -9 4 -14z m-121 -5 c-4 -8 -15 -15 -25 -15 -10 0 -19 7 -19 15 0 9 9 15 25
15 18 0 23 -4 19 -15z m526 0 c0 -8 -4 -15 -10 -15 -5 0 -10 7 -10 15 0 8 5
15 10 15 6 0 10 -7 10 -15z m260 -15 c0 -5 -4 -10 -10 -10 -5 0 -10 5 -10 10
0 6 5 10 10 10 6 0 10 -4 10 -10z m1550 -25 c9 -10 9 -15 1 -15 -6 0 -11 -7
-11 -16 0 -8 -4 -12 -10 -9 -11 7 -10 55 1 55 4 0 12 -7 19 -15z m-1860 -5 c0
-5 -4 -10 -10 -10 -5 0 -10 5 -10 10 0 6 5 10 10 10 6 0 10 -4 10 -10z m174
-22 c11 -18 32 -53 48 -77 21 -31 26 -47 19 -54 -8 -8 -11 -8 -11 1 0 6 -15
35 -34 64 -45 72 -58 98 -49 98 5 0 17 -15 27 -32z m-554 3 c0 -18 -18 -21
-30 -6 -10 13 -9 15 9 15 11 0 21 -4 21 -9z m-182 -39 c2 -7 -3 -12 -12 -12
-9 0 -16 7 -16 16 0 17 22 14 28 -4z m3387 -11 c-8 -13 -35 -15 -35 -2 0 5 8
11 18 13 21 5 26 2 17 -11z m-3339 -29 c-9 -8 -26 10 -26 26 1 15 2 15 15 -2
8 -11 13 -21 11 -24z m-152 13 c3 -8 1 -15 -4 -15 -6 0 -10 7 -10 15 0 8 2 15
4 15 2 0 6 -7 10 -15z m134 -30 c12 -19 22 -37 22 -39 0 -9 -46 19 -49 29 -2
6 -7 18 -12 28 -18 33 15 18 39 -18z m132 15 c0 -5 -4 -10 -10 -10 -5 0 -10 5
-10 10 0 6 5 10 10 10 6 0 10 -4 10 -10z m535 0 c3 -5 1 -10 -4 -10 -6 0 -11
5 -11 10 0 6 2 10 4 10 3 0 8 -4 11 -10z m909 -31 c14 -17 26 -36 26 -43 0 -7
31 -46 69 -87 38 -40 67 -76 64 -79 -8 -9 -153 149 -153 167 0 9 -12 30 -27
45 -15 15 -22 28 -16 28 6 0 23 -14 37 -31z m1084 10 c-2 -6 -8 -10 -13 -10
-5 0 -11 4 -13 10 -2 6 4 11 13 11 9 0 15 -5 13 -11z m-2588 -45 c0 -2 -9 -4
-20 -4 -11 0 -20 4 -20 9 0 5 9 7 20 4 11 -3 20 -7 20 -9z m453 -16 c-4 -19
-12 -28 -24 -28 -30 0 -21 41 11 52 19 7 19 7 13 -24z m3093 -14 c-3 -9 -6
-21 -6 -27 0 -8 -3 -8 -11 0 -13 13 -5 43 12 43 6 0 8 -7 5 -16z m-3521 -24
c16 -16 24 -30 18 -30 -17 0 -64 41 -58 51 8 12 8 13 40 -21z m21 3 c-7 -7
-26 7 -26 19 0 6 6 6 15 -2 9 -7 13 -15 11 -17z m534 23 c0 -3 -4 -8 -10 -11
-5 -3 -10 -1 -10 4 0 6 5 11 10 11 6 0 10 -2 10 -4z m-655 -16 c-3 -5 -11 -10
-16 -10 -6 0 -7 5 -4 10 3 6 11 10 16 10 6 0 7 -4 4 -10z m542 -12 c-3 -8 -6
-5 -6 6 -1 11 2 17 5 13 3 -3 4 -12 1 -19z m49 -25 c-7 -7 -26 7 -26 19 0 6 6
6 15 -2 9 -7 13 -15 11 -17z m-392 -17 c-8 -20 -24 -21 -24 0 0 8 5 12 10 9 6
-3 10 -1 10 6 0 7 2 10 5 7 3 -3 3 -13 -1 -22z m2626 15 c0 -9 -77 -41 -100
-41 -16 0 15 33 40 43 23 9 60 8 60 -2z m200 -1 c0 -5 -13 -10 -30 -10 -16 0
-30 5 -30 10 0 6 14 10 30 10 17 0 30 -4 30 -10z m-2475 -10 c3 -5 -1 -10 -9
-10 -9 0 -16 5 -16 10 0 6 4 10 9 10 6 0 13 -4 16 -10z m-282 -20 c-3 -11 -9
-17 -14 -14 -14 8 -10 34 5 34 9 0 12 -7 9 -20z m-118 0 c3 -5 -1 -10 -10 -10
-9 0 -13 5 -10 10 3 6 8 10 10 10 2 0 7 -4 10 -10z m3245 0 c12 -8 11 -10 -7
-10 -13 0 -23 5 -23 10 0 13 11 13 30 0z m-3070 -15 c0 -8 -4 -15 -10 -15 -5
0 -10 7 -10 15 0 8 5 15 10 15 6 0 10 -7 10 -15z m2663 3 c4 -10 8 -10 15 0 7
11 11 10 16 -4 4 -10 1 -21 -6 -27 -9 -6 -8 -7 4 -3 10 3 20 1 23 -4 4 -6 0
-10 -7 -10 -7 0 -24 -3 -37 -7 -20 -5 -23 -3 -18 10 6 16 -18 32 -34 21 -5 -3
-9 -1 -9 5 0 10 28 30 42 31 3 0 9 -6 11 -12z m367 2 c0 -6 -26 -10 -59 -10
-33 0 -63 5 -66 10 -4 6 18 10 59 10 37 0 66 -4 66 -10z m-3728 -22 c-7 -7
-12 -8 -12 -2 0 14 12 26 19 19 2 -3 -1 -11 -7 -17z m293 13 c3 -5 1 -12 -5
-16 -5 -3 -10 1 -10 9 0 18 6 21 15 7z m478 2 c-7 -2 -13 -12 -12 -21 0 -11 2
-12 6 -4 5 13 23 17 23 5 0 -5 -5 -15 -10 -23 -9 -13 -12 -13 -25 3 -16 23 -9
47 14 46 10 0 11 -2 4 -6z m1567 -49 c70 -56 234 -234 224 -243 -3 -3 -55 47
-117 111 -62 64 -129 128 -149 143 -34 24 -48 45 -32 45 3 0 36 -25 74 -56z
m-1750 20 c0 -8 -4 -14 -10 -14 -5 0 -10 9 -10 21 0 11 5 17 10 14 6 -3 10
-13 10 -21z m133 -2 c-5 -21 -43 -27 -43 -7 0 13 14 23 37 24 6 1 9 -7 6 -17z
m-339 -13 c-3 -5 -10 -7 -15 -3 -5 3 -7 10 -3 15 3 5 10 7 15 3 5 -3 7 -10 3
-15z m3446 0 c0 -10 -50 -33 -57 -26 -2 2 -1 11 3 20 9 25 54 30 54 6z m-2903
-26 c-9 -9 -20 -14 -24 -10 -3 4 2 14 13 21 25 19 33 10 11 -11z m-192 -3
c-19 -7 -18 -7 3 -19 12 -6 22 -16 22 -22 0 -6 -5 -7 -12 -3 -7 5 -8 3 -4 -5
5 -7 13 -10 20 -8 15 6 39 -20 26 -28 -5 -3 -19 -1 -31 6 -19 10 -21 9 -16 -5
3 -8 2 -18 -4 -22 -7 -4 -6 -10 0 -18 11 -12 5 -26 -10 -26 -15 0 -18 31 -4
56 12 23 12 29 -1 41 -8 8 -14 18 -14 23 0 5 -3 15 -6 23 -3 10 1 17 13 19 26
6 40 -4 18 -12z m-202 -35 c-8 -22 -22 -18 -16 5 3 11 9 17 14 15 4 -3 6 -12
2 -20z m87 -20 c0 -5 4 -4 9 4 6 9 18 11 35 7 29 -7 26 -26 -4 -26 -12 0 -22
-12 -30 -34 -8 -24 -16 -33 -26 -29 -8 3 -14 11 -14 19 0 8 -6 11 -15 8 -18
-7 -20 24 -4 60 10 21 14 23 30 13 11 -7 19 -16 19 -22z m970 -25 c12 -8 11
-10 -7 -10 -13 0 -23 5 -23 10 0 13 11 13 30 0z m-1695 -45 c-31 -26 -45 -31
-45 -17 0 9 51 42 65 41 6 0 -3 -11 -20 -24z m794 4 c-16 -10 -23 -4 -14 10 3
6 11 8 17 5 6 -4 5 -9 -3 -15z m416 1 c3 -5 2 -10 -4 -10 -5 0 -13 5 -16 10
-3 6 -2 10 4 10 5 0 13 -4 16 -10z m1800 -9 c-39 -37 -275 -188 -275 -176 0 7
56 49 124 94 69 44 127 85 131 91 3 5 14 10 23 10 14 0 14 -3 -3 -19z m-3245
0 c0 -5 -12 -11 -27 -14 -16 -3 -37 -9 -47 -13 -14 -5 -17 -4 -12 5 15 23 86
42 86 22z m890 -32 c0 -5 -7 -9 -15 -9 -8 0 -15 7 -15 15 0 9 6 12 15 9 8 -4
15 -10 15 -15z m-721 -12 c-9 -7 -21 -22 -28 -34 -14 -27 -33 -29 -51 -8 -16
19 -5 32 13 17 16 -14 27 -6 27 20 0 13 7 18 28 18 23 -1 25 -2 11 -13z m1256
-17 c3 -5 1 -10 -4 -10 -6 0 -11 5 -11 10 0 6 2 10 4 10 3 0 8 -4 11 -10z
m-1195 -10 c0 -5 -4 -10 -10 -10 -5 0 -10 5 -10 10 0 6 5 10 10 10 6 0 10 -4
10 -10z m1086 -27 c-7 -7 -26 7 -26 19 0 6 6 6 15 -2 9 -7 13 -15 11 -17z
m1970 -11 c-10 -10 -29 15 -21 28 6 9 10 8 17 -4 6 -10 7 -20 4 -24z m-2776 7
c0 -24 -23 -21 -28 4 -2 10 3 17 12 17 10 0 16 -9 16 -21z m854 -8 c-5 -23 -2
-29 15 -34 12 -3 21 -10 21 -16 0 -15 -40 -14 -40 2 0 6 -8 0 -18 -15 -17 -28
-32 -36 -32 -19 0 6 5 13 11 17 6 3 9 14 6 24 -3 11 1 21 9 24 8 3 14 15 14
26 0 11 4 20 10 20 5 0 7 -13 4 -29z m-144 -2 c0 -5 -4 -9 -10 -9 -5 0 -10 7
-10 16 0 8 5 12 10 9 6 -3 10 -10 10 -16z m442 -28 c37 -13 71 -27 75 -33 4
-7 1 -9 -8 -6 -8 3 -44 15 -81 27 -37 13 -71 27 -75 33 -4 7 -1 9 8 6 8 -3 44
-15 81 -27z m-1522 -6 c10 -12 10 -15 -4 -15 -9 0 -16 7 -16 15 0 8 2 15 4 15
2 0 9 -7 16 -15z m980 5 c0 -5 -7 -10 -15 -10 -8 0 -15 5 -15 10 0 6 7 10 15
10 8 0 15 -4 15 -10z m30 0 c0 -5 -4 -10 -10 -10 -5 0 -10 5 -10 10 0 6 5 10
10 10 6 0 10 -4 10 -10z m20 -20 c-6 -12 -14 -19 -17 -17 -2 3 1 15 7 27 6 12
14 19 17 17 2 -3 -1 -15 -7 -27z m287 -7 c-9 -9 -20 -14 -24 -10 -3 4 2 14 13
21 25 19 33 10 11 -11z m-472 -23 c3 -5 1 -10 -4 -10 -6 0 -11 5 -11 10 0 6 2
10 4 10 3 0 8 -4 11 -10z m143 -9 c3 -8 -1 -12 -9 -9 -7 2 -15 10 -17 17 -3 8
1 12 9 9 7 -2 15 -10 17 -17z m112 -12 c0 -5 -4 -9 -10 -9 -5 0 -10 7 -10 16
0 8 5 12 10 9 6 -3 10 -10 10 -16z m245 -29 c3 -5 1 -10 -4 -10 -6 0 -11 5
-11 10 0 6 2 10 4 10 3 0 8 -4 11 -10z m4 -46 c-14 -18 -24 -11 -15 11 3 9 11
13 16 10 8 -5 7 -11 -1 -21z m-234 6 c-3 -5 -11 -10 -16 -10 -6 0 -7 5 -4 10
3 6 11 10 16 10 6 0 7 -4 4 -10z m-155 -10 c0 -5 -4 -10 -10 -10 -5 0 -10 5
-10 10 0 6 5 10 10 10 6 0 10 -4 10 -10z m210 6 c0 -3 -4 -8 -10 -11 -5 -3
-10 -1 -10 4 0 6 5 11 10 11 6 0 10 -2 10 -4z m-312 -37 c-2 -6 -8 -10 -13
-10 -5 0 -11 4 -13 10 -2 6 4 11 13 11 9 0 15 -5 13 -11z m438 -33 c16 -17 18
-26 4 -26 -5 0 -14 9 -20 20 -12 23 -5 26 16 6z m114 -1 c0 -8 -4 -15 -10 -15
-5 0 -10 7 -10 15 0 8 5 15 10 15 6 0 10 -7 10 -15z m-1375 -35 c3 -5 1 -10
-4 -10 -6 0 -11 5 -11 10 0 6 2 10 4 10 3 0 8 -4 11 -10z m619 -15 c3 -8 1
-15 -4 -15 -6 0 -10 7 -10 15 0 8 2 15 4 15 2 0 6 -7 10 -15z m-524 1 c0 -3
-4 -8 -10 -11 -5 -3 -10 -1 -10 4 0 6 5 11 10 11 6 0 10 -2 10 -4z m675 -6 c3
-5 -1 -10 -9 -10 -9 0 -16 5 -16 10 0 6 4 10 9 10 6 0 13 -4 16 -10z m-557
-22 c-2 -13 -7 -23 -13 -23 -5 0 -11 10 -13 23 -2 15 2 22 13 22 11 0 15 -7
13 -22z m4131 -35 c27 -40 39 -73 27 -73 -4 0 -76 108 -76 115 0 17 22 -2 49
-42z m-4239 33 c0 -3 -4 -8 -10 -11 -5 -3 -10 -1 -10 4 0 6 5 11 10 11 6 0 10
-2 10 -4z m345 -16 c0 -8 -9 -16 -20 -18 -11 -2 -27 -9 -35 -16 -8 -7 -27 -17
-42 -23 -22 -10 -27 -9 -32 4 -8 20 -5 23 30 29 16 3 38 14 49 25 22 22 50 21
50 -1z m735 5 c0 -8 -4 -15 -10 -15 -5 0 -10 7 -10 15 0 8 5 15 10 15 6 0 10
-7 10 -15z m-950 -45 c0 -11 -4 -20 -10 -20 -5 0 -10 9 -10 20 0 11 5 20 10
20 6 0 10 -9 10 -20z m325 1 c3 -5 1 -12 -5 -16 -5 -3 -10 1 -10 9 0 18 6 21
15 7z m63 -2 c-2 -6 -8 -10 -13 -10 -5 0 -11 4 -13 10 -2 6 4 11 13 11 9 0 15
-5 13 -11z m27 -19 c3 -5 -1 -10 -10 -10 -9 0 -13 5 -10 10 3 6 8 10 10 10 2
0 7 -4 10 -10z m662 -10 c1 -11 -2 -20 -5 -20 -4 0 -8 9 -9 20 -1 11 2 20 5
20 4 0 8 -9 9 -20z m-1082 -20 c-4 -6 -1 -18 7 -27 11 -15 11 -16 -5 -10 -10
4 -21 7 -23 7 -2 0 -4 9 -4 20 0 11 7 20 16 20 8 0 12 -5 9 -10z m43 -18 c2
-7 -2 -10 -12 -6 -9 3 -16 11 -16 16 0 13 23 5 28 -10z m537 8 c3 -5 1 -10 -4
-10 -6 0 -11 5 -11 10 0 6 2 10 4 10 3 0 8 -4 11 -10z m1878 -15 c-5 -13 -23
-22 -23 -11 0 15 14 35 21 31 4 -3 6 -12 2 -20z m-2153 -15 c0 -5 -4 -10 -10
-10 -5 0 -10 5 -10 10 0 6 5 10 10 10 6 0 10 -4 10 -10z m-140 -44 c-16 -17
-31 4 -18 27 11 21 11 21 18 2 4 -11 4 -24 0 -29z m705 14 c3 -5 1 -10 -4 -10
-6 0 -11 5 -11 10 0 6 2 10 4 10 3 0 8 -4 11 -10z m-358 -15 c0 -18 -19 -15
-25 3 -2 7 3 12 11 12 7 0 14 -7 14 -15z m1038 5 c3 -5 -1 -10 -9 -10 -9 0
-16 5 -16 10 0 6 4 10 9 10 6 0 13 -4 16 -10z m671 -12 c5 -8 2 -9 -10 -5 -10
4 -19 1 -22 -8 -4 -8 -13 -15 -21 -15 -8 0 -11 5 -7 12 5 8 0 9 -14 6 -12 -4
-22 -1 -22 4 0 6 12 8 30 5 17 -4 30 -2 30 3 0 14 27 12 36 -2z m-116 -8 c0
-5 -10 -10 -22 -9 -22 0 -22 1 -3 9 11 5 21 9 23 9 1 1 2 -3 2 -9z m150 -42
c0 -6 -7 -5 -15 2 -8 7 -15 17 -15 22 0 6 7 5 15 -2 8 -7 15 -17 15 -22z
m-120 12 c0 -13 -11 -13 -30 0 -12 8 -11 10 8 10 12 0 22 -4 22 -10z m-589
-23 c-13 -13 -26 -3 -16 12 3 6 11 8 17 5 6 -4 6 -10 -1 -17z m677 5 c2 -7 -2
-10 -12 -6 -9 3 -16 11 -16 16 0 13 23 5 28 -10z m71 -37 c3 -17 2 -18 -15 -5
-10 8 -15 10 -12 5 4 -6 2 -17 -3 -25 -8 -13 -10 -13 -19 0 -13 20 -13 30 1
30 5 0 7 5 3 11 -4 7 2 9 17 7 14 -2 25 -11 28 -23z m-79 -1 c0 -2 -7 -4 -15
-4 -8 0 -15 4 -15 10 0 5 7 7 15 4 8 -4 15 -8 15 -10z m-880 -4 c0 -5 -7 -10
-15 -10 -8 0 -15 5 -15 10 0 6 7 10 15 10 8 0 15 -4 15 -10z m-688 -15 c14
-19 8 -26 -14 -19 -29 8 -31 10 -24 23 8 12 28 10 38 -4z m327 1 c9 -11 9 -16
0 -21 -10 -7 -28 10 -29 28 0 12 17 8 29 -7z m1185 -10 c-3 -9 -10 -13 -16
-10 -5 3 -4 12 3 20 15 18 22 13 13 -10z m172 -23 c-4 -4 -11 -1 -16 7 -16 25
-11 35 7 17 9 -9 13 -20 9 -24z m-149 -18 c9 -25 -4 -29 -17 -6 -7 15 -7 21 0
21 6 0 13 -7 17 -15z m133 -1 l52 7 -19 -25 c-10 -14 -29 -26 -43 -28 -15 -2
-30 -13 -38 -30 -9 -19 -18 -25 -29 -21 -11 4 -13 8 -5 11 7 2 12 10 12 18 0
8 7 17 15 20 8 4 15 10 15 16 0 5 -4 7 -9 4 -9 -6 -21 16 -21 37 0 8 4 7 9 -2
7 -10 22 -12 61 -7z m-1430 -19 c0 -8 -4 -15 -10 -15 -5 0 -10 7 -10 15 0 8 5
15 10 15 6 0 10 -7 10 -15z m-229 -18 c-13 -13 -26 -3 -16 12 3 6 11 8 17 5 6
-4 6 -10 -1 -17z m69 13 c0 -5 -5 -10 -11 -10 -5 0 -7 5 -4 10 3 6 8 10 11 10
2 0 4 -4 4 -10z m1500 -42 c0 -6 -7 -5 -15 2 -8 7 -15 17 -15 22 0 6 7 5 15
-2 8 -7 15 -17 15 -22z m-1338 -3 c-5 -25 -8 -29 -21 -20 -19 11 -13 47 7 43
11 -2 16 -11 14 -23z m78 -15 c0 -18 -3 -19 -22 -9 -22 12 -22 12 -3 20 11 4
21 8 23 8 1 1 2 -8 2 -19z m-155 -30 c3 -5 1 -10 -5 -10 -6 0 -8 -4 -5 -10 3
-5 2 -10 -4 -10 -5 0 -9 9 -8 20 1 21 12 26 22 10z m-205 -16 c0 -2 -7 -4 -15
-4 -8 0 -15 4 -15 10 0 5 7 7 15 4 8 -4 15 -8 15 -10z m265 6 c-16 -7 -13 -9
18 -9 20 -1 37 3 37 8 0 5 9 7 19 4 17 -4 19 -13 17 -49 -2 -48 -12 -66 -22
-40 -3 9 -10 16 -16 16 -5 0 -16 7 -24 15 -18 17 -34 20 -34 5 0 -5 -8 -10
-19 -10 -14 0 -19 7 -19 28 0 37 5 42 36 41 24 0 25 -1 7 -9z m-805 -50 c0 -5
-5 -10 -11 -10 -5 0 -7 5 -4 10 3 6 8 10 11 10 2 0 4 -4 4 -10z m715 0 c3 -5
-1 -10 -9 -10 -9 0 -16 5 -16 10 0 6 4 10 9 10 6 0 13 -4 16 -10z m32 -45 c-1
-25 -5 -45 -9 -45 -5 0 -8 6 -8 14 0 8 -6 17 -12 19 -10 4 -10 8 0 15 8 5 13
12 13 16 -3 18 0 26 9 26 5 0 8 -20 7 -45z m2101 10 c10 -22 9 -24 -8 -22 -26
4 -34 13 -27 32 9 22 22 18 35 -10z m-2808 5 c0 -5 -4 -10 -10 -10 -5 0 -10 5
-10 10 0 6 5 10 10 10 6 0 10 -4 10 -10z m162 -2 c7 -18 -2 -39 -13 -32 -12 7
-12 44 0 44 5 0 11 -6 13 -12z m258 8 c0 -11 -19 -15 -25 -6 -3 5 1 10 9 10 9
0 16 -2 16 -4z m230 -38 c0 -4 -4 -8 -9 -8 -5 0 -13 -9 -16 -20 -3 -11 -13
-20 -21 -20 -8 0 -14 -4 -14 -10 0 -5 -7 -10 -15 -10 -8 0 -15 9 -15 20 0 12
6 20 13 19 33 -4 46 2 40 18 -4 11 -3 14 6 9 9 -6 10 0 6 21 -6 27 -6 27 9 9
9 -11 16 -23 16 -28z m117 20 c-3 -8 -6 -5 -6 6 -1 11 2 17 5 13 3 -3 4 -12 1
-19z m453 2 c0 -11 -7 -20 -15 -20 -8 0 -15 9 -15 20 0 11 7 20 15 20 8 0 15
-9 15 -20z m-396 -9 c3 -5 -3 -20 -14 -32 l-19 -24 -1 26 c0 35 20 53 34 30z
m-706 -20 c3 -8 -1 -12 -9 -9 -7 2 -15 10 -17 17 -3 8 1 12 9 9 7 -2 15 -10
17 -17z m-200 -13 c9 -9 12 -9 12 0 0 6 7 9 17 5 13 -5 12 -8 -7 -15 -17 -6
-28 -4 -39 7 -8 8 -11 15 -5 15 5 0 15 -5 22 -12z m846 -9 c-8 -14 -44 -10
-44 5 0 9 8 12 25 8 14 -2 22 -8 19 -13z m406 1 c0 -5 -4 -10 -9 -10 -6 0 -13
5 -16 10 -3 6 1 10 9 10 9 0 16 -4 16 -10z m-895 -20 c3 -5 -1 -10 -9 -10 -9
0 -16 5 -16 10 0 6 4 10 9 10 6 0 13 -4 16 -10z m1765 -11 c0 -6 -4 -7 -10 -4
-5 3 -10 11 -10 16 0 6 5 7 10 4 6 -3 10 -11 10 -16z m-1740 -14 c-7 -9 -15
-13 -17 -11 -7 7 7 26 19 26 6 0 6 -6 -2 -15z m120 11 c0 -2 3 -11 6 -20 9
-23 -9 -20 -24 4 -10 17 -10 20 3 20 8 0 15 -2 15 -4z m249 -22 c-6 -7 -15
-11 -20 -8 -5 3 -3 11 4 18 16 18 31 8 16 -10z m101 6 c0 -5 -5 -10 -11 -10
-5 0 -7 5 -4 10 3 6 8 10 11 10 2 0 4 -4 4 -10z m-890 -26 c0 -8 -4 -12 -10
-9 -5 3 -10 13 -10 21 0 8 5 12 10 9 6 -3 10 -13 10 -21z m2640 17 c0 -5 -7
-12 -16 -15 -22 -9 -24 -8 -24 9 0 8 9 15 20 15 11 0 20 -4 20 -9z m-2140 -11
c0 -5 -4 -10 -10 -10 -5 0 -10 5 -10 10 0 6 5 10 10 10 6 0 10 -4 10 -10z
m900 0 c0 -5 -4 -10 -10 -10 -5 0 -10 5 -10 10 0 6 5 10 10 10 6 0 10 -4 10
-10z m-579 -23 c-13 -13 -26 -3 -16 12 3 6 11 8 17 5 6 -4 6 -10 -1 -17z m-41
3 c0 -5 -4 -10 -9 -10 -6 0 -13 5 -16 10 -3 6 1 10 9 10 9 0 16 -4 16 -10z
m555 -30 c3 -5 2 -10 -4 -10 -5 0 -13 5 -16 10 -3 6 -2 10 4 10 5 0 13 -4 16
-10z m-772 -14 c3 -8 0 -17 -8 -19 -17 -7 -25 1 -18 19 7 18 19 18 26 0z m717
-6 c0 -5 -2 -10 -4 -10 -3 0 -8 5 -11 10 -3 6 -1 10 4 10 6 0 11 -4 11 -10z
m-390 -10 c0 -5 -7 -10 -15 -10 -8 0 -15 5 -15 10 0 6 7 10 15 10 8 0 15 -4
15 -10z m-885 -20 c-3 -5 -10 -10 -16 -10 -5 0 -9 5 -9 10 0 6 7 10 16 10 8 0
12 -4 9 -10z m515 -7 c0 -5 -5 -15 -10 -23 -7 -12 -12 -12 -22 -2 -10 10 -10
15 2 22 18 12 30 13 30 3z m726 -41 c-14 -14 -29 -23 -32 -19 -10 10 37 58 48
50 6 -3 -2 -17 -16 -31z m-776 18 c0 -5 -4 -10 -9 -10 -6 0 -13 5 -16 10 -3 6
1 10 9 10 9 0 16 -4 16 -10z m290 -22 c0 -13 -23 -5 -28 10 -2 7 2 10 12 6 9
-3 16 -11 16 -16z m835 -39 c12 -19 -5 -23 -22 -6 -16 16 -16 17 -1 17 9 0 20
-5 23 -11z m265 -72 c-11 -12 -50 1 -50 17 0 6 6 18 12 24 10 10 16 8 30 -10
9 -13 13 -27 8 -31z m-1180 -17 c0 -5 -5 -10 -11 -10 -5 0 -7 5 -4 10 3 6 8
10 11 10 2 0 4 -4 4 -10z m370 -22 c0 -13 -23 -5 -28 10 -2 7 2 10 12 6 9 -3
16 -11 16 -16z m-10 -45 c0 -8 -6 -13 -12 -10 -7 2 -13 11 -13 20 0 8 -4 19
-8 23 -4 4 -7 12 -7 18 1 17 40 -34 40 -51z m128 19 c2 -7 -6 -12 -17 -12 -21
0 -27 11 -14 24 9 9 26 2 31 -12z m-608 -7 c0 -8 -4 -15 -10 -15 -5 0 -10 7
-10 15 0 8 5 15 10 15 6 0 10 -7 10 -15z m386 -12 c-10 -10 -19 5 -10 18 6 11
8 11 12 0 2 -7 1 -15 -2 -18z m-31 7 c3 -5 1 -10 -4 -10 -6 0 -11 5 -11 10 0
6 2 10 4 10 3 0 8 -4 11 -10z m-51 -24 c-6 -16 -24 -23 -24 -8 0 10 22 33 27
28 2 -2 1 -11 -3 -20z m244 3 c-2 -6 -8 -10 -13 -10 -5 0 -11 4 -13 10 -2 6 4
11 13 11 9 0 15 -5 13 -11z m50 -8 c3 -8 -1 -12 -9 -9 -7 2 -15 10 -17 17 -3
8 1 12 9 9 7 -2 15 -10 17 -17z m449 -5 c-23 -10 -25 -13 -12 -30 9 -12 21
-17 35 -13 11 3 20 2 20 -2 0 -8 -51 -34 -54 -29 -1 2 -7 16 -14 31 -11 26
-16 28 -45 22 -45 -10 -25 7 31 26 50 18 82 13 39 -5z m-717 -6 c0 -5 -2 -10
-4 -10 -3 0 -8 5 -11 10 -3 6 -1 10 4 10 6 0 11 -4 11 -10z m-340 -15 c7 -9
10 -18 7 -21 -6 -7 -47 18 -47 28 0 14 27 9 40 -7z m60 -15 c0 -5 -8 -10 -17
-10 -15 0 -16 2 -3 10 19 12 20 12 20 0z m250 6 c0 -3 -4 -8 -10 -11 -5 -3
-10 -1 -10 4 0 6 5 11 10 11 6 0 10 -2 10 -4z m70 -17 c0 -5 -9 -9 -20 -9 -22
0 -27 16 -7 23 15 5 27 -1 27 -14z m770 11 c0 -5 -7 -10 -15 -10 -8 0 -15 5
-15 10 0 6 7 10 15 10 8 0 15 -4 15 -10z m-610 -4 c0 -2 -3 -11 -6 -20 -9 -23
-23 -20 -21 4 1 11 7 20 14 20 7 0 13 -2 13 -4z m135 -6 c3 -5 -1 -10 -9 -10
-9 0 -16 5 -16 10 0 6 4 10 9 10 6 0 13 -4 16 -10z m-441 -24 c-6 -16 -24 -23
-24 -8 0 10 22 33 27 28 2 -2 1 -11 -3 -20z m-39 4 c3 -5 -1 -10 -9 -10 -9 0
-16 5 -16 10 0 6 4 10 9 10 6 0 13 -4 16 -10z m469 -30 c-4 -8 -7 -28 -8 -44
0 -16 -8 -32 -16 -34 -13 -5 -13 -3 -1 11 15 19 1 23 -17 5 -6 -6 -15 -8 -19
-3 -5 4 -2 10 5 12 7 3 17 14 23 26 11 21 10 20 -15 -2 -14 -14 -29 -21 -32
-18 -4 4 4 16 19 27 17 13 23 26 20 40 -5 17 -3 18 21 7 17 -8 24 -17 20 -27z
m52 2 c-10 -10 -29 15 -21 28 6 9 10 8 17 -4 6 -10 7 -20 4 -24z m-586 8 c0
-5 -4 -10 -10 -10 -5 0 -10 5 -10 10 0 6 5 10 10 10 6 0 10 -4 10 -10z m180
-11 c0 -5 -16 -9 -35 -9 -46 0 -46 14 0 17 19 1 35 -2 35 -8z m421 -55 c-17
-19 -31 -41 -31 -48 0 -16 -48 -61 -56 -53 -4 4 -2 13 5 20 6 8 9 21 6 29 -6
15 17 41 75 87 36 28 37 7 1 -35z m-510 36 c10 -6 26 -24 34 -41 9 -16 25 -39
36 -50 12 -12 18 -24 14 -27 -4 -4 -12 1 -19 12 -6 10 -28 36 -48 57 -20 22
-33 39 -30 39 4 0 0 5 -8 10 -20 13 -4 13 21 0z m179 -20 c0 -5 -4 -10 -10
-10 -5 0 -10 5 -10 10 0 6 5 10 10 10 6 0 10 -4 10 -10z m-210 -31 c0 -5 -4
-9 -10 -9 -5 0 -10 7 -10 16 0 8 5 12 10 9 6 -3 10 -10 10 -16z m885 -58 c-7
-6 -75 60 -75 73 0 6 18 -7 40 -29 22 -21 37 -41 35 -44z m-815 -2 c0 -17 -20
-9 -21 9 0 10 -3 12 -6 5 -2 -7 -9 -13 -15 -13 -6 0 -8 7 -5 14 4 10 1 13 -9
9 -14 -5 -20 8 -8 20 8 8 64 -31 64 -44z m-117 16 c-7 -21 -13 -19 -13 6 0 11
4 18 10 14 5 -3 7 -12 3 -20z m682 -5 c-10 -11 -23 -20 -28 -20 -6 0 0 11 13
25 27 29 42 25 15 -5z m195 -44 c0 -5 -16 5 -35 24 -19 19 -35 38 -35 44 0 5
16 -5 35 -24 19 -19 35 -38 35 -44z m-855 34 c3 -5 1 -10 -4 -10 -6 0 -11 5
-11 10 0 6 2 10 4 10 3 0 8 -4 11 -10z m131 -27 c18 -24 17 -33 -2 -33 -10 0
-14 6 -10 15 3 8 1 15 -4 15 -6 0 -10 5 -10 10 0 15 11 12 26 -7z m39 7 c3 -5
1 -10 -4 -10 -6 0 -11 5 -11 10 0 6 2 10 4 10 3 0 8 -4 11 -10z m-135 -15 c16
-19 0 -19 -26 0 -16 12 -16 14 -3 15 9 0 22 -7 29 -15z m60 -15 c0 -5 -7 -10
-15 -10 -8 0 -15 5 -15 10 0 6 7 10 15 10 8 0 15 -4 15 -10z"/>
<path d="M1856 5308 c9 -30 8 -30 27 -22 13 5 14 10 6 25 -15 28 -42 25 -33
-3z"/>
<path d="M3285 6160 c-3 -5 -1 -10 4 -10 6 0 11 5 11 10 0 6 -2 10 -4 10 -3 0
-8 -4 -11 -10z"/>
<path d="M1358 5163 c7 -3 16 -2 19 1 4 3 -2 6 -13 5 -11 0 -14 -3 -6 -6z"/>
<path d="M3448 3073 c7 -3 16 -2 19 1 4 3 -2 6 -13 5 -11 0 -14 -3 -6 -6z"/>
<path d="M3645 3050 c3 -5 8 -10 11 -10 2 0 4 5 4 10 0 6 -5 10 -11 10 -5 0
-7 -4 -4 -10z"/>
<path d="M5748 1013 c7 -3 16 -2 19 1 4 3 -2 6 -13 5 -11 0 -14 -3 -6 -6z"/>
<path d="M4381 884 c0 -11 3 -14 6 -6 3 7 2 16 -1 19 -3 4 -6 -2 -5 -13z"/>
</g>
</svg>
