<?xml version="1.0" standalone="no"?>
<!DOCTYPE svg PUBLIC "-//W3C//DTD SVG 20010904//EN"
 "http://www.w3.org/TR/2001/REC-SVG-20010904/DTD/svg10.dtd">
<svg version="1.0" xmlns="http://www.w3.org/2000/svg"
 width="800.000000pt" height="800.000000pt" viewBox="0 0 800.000000 800.000000"
 preserveAspectRatio="xMidYMid meet">
<metadata>
Created by potrace 1.16, written by Peter Selinger 2001-2019
</metadata>
<g transform="translate(0.000000,800.000000) scale(0.100000,-0.100000)"
fill="#000000" stroke="none">
<path d="M0 4000 l0 -4000 3638 0 3637 0 -35 22 c-19 11 -46 28 -58 35 -13 8
-35 39 -48 68 -30 65 -50 83 -185 162 -116 69 -191 92 -392 119 -97 13 -124
21 -148 41 -16 14 -29 29 -29 34 0 5 -22 44 -49 87 -99 159 -161 273 -177 329
-9 32 -38 104 -65 161 -29 63 -43 102 -35 102 16 0 99 -175 122 -255 9 -33 39
-98 67 -145 189 -323 166 -292 227 -312 30 -10 100 -23 155 -29 135 -13 208
-39 347 -120 132 -78 147 -91 189 -170 26 -47 39 -60 97 -92 l68 -36 337 -1
337 0 0 4000 0 4000 -4000 0 -4000 0 0 -4000z m2954 1816 c28 -17 76 -50 106
-72 94 -71 382 -210 451 -218 57 -6 61 -16 8 -16 -72 1 -356 135 -482 228 -38
28 -85 56 -105 63 -20 6 -40 16 -43 21 -3 5 -35 12 -70 16 -52 5 -59 7 -34 13
51 11 115 -3 169 -35z m-94 -184 c269 -124 489 -206 680 -253 69 -16 163 -39
210 -51 47 -11 109 -29 138 -40 52 -19 52 -20 52 -63 0 -57 -18 -68 -22 -14
-3 41 -4 43 -58 61 -30 10 -154 43 -275 73 -126 31 -282 77 -365 108 -173 65
-502 217 -508 235 -4 14 11 8 148 -56z m-234 -56 c3 -8 7 -20 8 -28 1 -7 8
-33 15 -58 7 -25 15 -52 16 -60 10 -45 64 -242 67 -246 3 -2 58 -8 123 -14 64
-5 120 -12 123 -15 15 -14 -17 -16 -119 -6 -62 6 -115 9 -117 6 -2 -2 4 -37
15 -77 22 -81 28 -85 116 -87 35 -1 47 -5 47 -16 0 -11 -7 -14 -22 -11 -61 12
-108 15 -108 7 0 -5 9 -48 20 -95 24 -98 36 -256 20 -256 -5 0 -10 5 -10 11 0
32 -23 208 -30 234 -5 17 -14 49 -20 73 -10 38 -14 42 -41 42 -33 0 -248 58
-263 71 -24 21 10 17 117 -16 63 -19 127 -35 142 -35 25 0 27 3 21 28 -23 95
-38 132 -53 132 -28 0 -193 53 -193 62 0 11 7 10 65 -8 28 -8 69 -19 93 -23
l43 -9 -6 42 c-4 22 -8 42 -10 44 -1 1 -33 11 -70 22 -72 21 -117 48 -60 37
17 -4 52 -13 78 -21 45 -14 48 -14 43 2 -3 9 -19 69 -36 132 -17 63 -34 123
-36 133 -6 20 14 23 22 3z m979 -76 c13 -6 15 -9 5 -9 -8 0 -22 4 -30 9 -18
12 -2 12 25 0z m2693 -85 c14 -29 -2 -34 -18 -6 -12 24 -13 31 -2 31 5 0 14
-11 20 -25z m-2524 -4 c10 -11 32 -25 49 -32 29 -12 76 -37 175 -95 34 -20 54
-44 35 -44 -4 1 -26 14 -48 30 -22 16 -67 43 -100 61 -82 43 -145 82 -145 92
0 13 17 7 34 -12z m2536 -61 c0 -11 -4 -20 -10 -20 -5 0 -10 9 -10 20 0 11 5
20 10 20 6 0 10 -9 10 -20z m10 -62 c0 -19 -2 -20 -10 -8 -13 19 -13 30 0 30
6 0 10 -10 10 -22z m-2330 -38 c0 -5 -4 -10 -10 -10 -5 0 -10 5 -10 10 0 6 5
10 10 10 6 0 10 -4 10 -10z m2353 -11 c3 -13 1 -19 -6 -16 -15 5 -22 37 -9 37
5 0 12 -9 15 -21z m17 -65 c0 -8 -4 -14 -10 -14 -5 0 -10 9 -10 21 0 11 5 17
10 14 6 -3 10 -13 10 -21z m-2390 -19 c0 -8 -4 -15 -10 -15 -5 0 -10 7 -10 15
0 8 5 15 10 15 6 0 10 -7 10 -15z m2410 -31 c0 -8 -4 -12 -10 -9 -5 3 -10 13
-10 21 0 8 5 12 10 9 6 -3 10 -13 10 -21z m-1535 6 c24 -6 19 -7 -22 -6 -29 0
-53 4 -53 9 0 8 34 7 75 -3z m-912 -40 c-3 -11 -9 -23 -14 -26 -10 -6 -12 39
-3 49 12 12 22 -3 17 -23z m1007 19 c0 -3 18 -12 40 -19 22 -7 40 -19 40 -25
0 -16 75 -45 100 -38 25 7 26 -10 4 -62 -8 -20 -13 -42 -12 -47 2 -6 46 -21
97 -33 76 -19 94 -20 98 -9 8 20 23 17 17 -3 -5 -16 -4 -16 6 0 10 15 8 21 -7
33 -17 15 -17 15 5 11 41 -9 23 12 -20 23 -79 21 -118 33 -115 36 4 4 145 -22
200 -37 28 -7 42 -7 53 2 8 7 14 7 14 1 0 -14 57 0 105 27 l40 23 -34 -31
c-38 -34 -115 -55 -166 -45 -30 5 -33 3 -44 -27 -6 -17 -11 -33 -11 -35 0 -2
57 -21 126 -44 83 -26 145 -40 180 -40 l54 0 0 48 c0 27 5 75 11 107 13 70 6
78 -66 71 -33 -4 -43 -3 -29 3 11 5 51 12 88 16 38 4 95 16 127 25 33 10 59
17 59 16 0 -1 -9 -19 -20 -41 -13 -26 -20 -59 -20 -99 0 -52 -5 -69 -42 -130
-22 -39 -54 -90 -70 -114 -16 -23 -27 -46 -24 -51 3 -4 -1 -17 -8 -27 -10 -13
-11 -23 -4 -31 8 -10 5 -13 -10 -13 -11 0 -22 -6 -25 -13 -3 -9 32 -25 120
-54 l124 -42 21 35 c11 19 21 34 21 34 1 0 26 -9 55 -20 28 -11 53 -19 55 -18
5 3 112 -35 122 -43 14 -14 -17 -11 -65 6 -24 8 -44 14 -45 13 -2 -2 -5 -13
-9 -24 -5 -15 -1 -24 11 -29 33 -13 217 -75 224 -75 4 0 -1 24 -12 53 -10 28
-20 65 -24 80 -3 16 -20 43 -38 61 -18 17 -40 50 -50 72 -16 35 -22 40 -43 36
-31 -6 -31 10 1 25 25 11 27 9 56 -48 16 -33 36 -62 44 -65 8 -3 24 -26 35
-50 12 -24 23 -44 25 -44 2 0 38 15 79 34 99 45 99 27 0 -22 -72 -35 -75 -38
-70 -65 12 -59 39 -82 133 -110 48 -15 97 -27 108 -27 11 0 53 16 94 35 75 36
91 41 91 27 0 -4 -40 -27 -88 -51 l-89 -44 -104 33 c-57 17 -200 63 -317 102
-117 39 -214 69 -216 67 -13 -20 -36 -59 -36 -63 0 -2 24 -12 53 -21 28 -10
56 -21 62 -26 15 -14 -19 -11 -60 7 -21 8 -47 13 -58 10 -11 -3 -25 1 -31 8
-6 8 -41 24 -78 36 -38 12 -68 26 -68 31 0 11 -8 13 80 -15 41 -13 78 -22 83
-19 4 2 14 17 22 33 l15 29 -118 36 c-64 20 -122 38 -129 40 -15 5 -65 -83
-52 -91 6 -3 26 -3 45 0 19 4 34 3 34 -1 0 -16 -15 -31 -35 -34 -26 -5 -36
-69 -11 -69 17 0 22 -15 7 -24 -18 -12 -41 7 -42 33 l-1 26 -8 -25 c-11 -36
-11 -52 0 -45 6 3 10 0 10 -9 0 -20 -47 -28 -90 -16 -32 9 -36 8 -58 -20 -13
-17 -37 -37 -53 -45 -16 -9 -29 -20 -29 -25 0 -20 30 -9 64 24 35 32 37 33 80
22 49 -13 51 -34 3 -34 -16 0 -46 -14 -74 -36 -55 -43 -86 -44 -91 -3 -2 17
-9 27 -20 27 -42 0 -91 -23 -139 -65 -28 -25 -57 -45 -64 -45 -16 0 74 83 111
104 14 8 42 17 62 21 22 4 35 12 32 19 -2 7 2 32 11 56 8 23 14 44 13 45 -6 5
-164 55 -173 55 -6 0 -30 -65 -54 -145 -36 -119 -47 -145 -62 -145 -12 0 -19
-7 -19 -20 0 -11 -1 -20 -2 -20 -2 0 -75 -7 -163 -15 -188 -17 -195 -18 -195
-6 0 4 37 13 83 18 66 8 72 10 32 11 -27 0 -72 -3 -100 -7 -40 -5 -55 -3 -76
11 -27 18 -27 18 -34 -9 l-6 -27 -22 26 c-12 15 -33 29 -46 33 -21 7 -22 9 -7
17 9 5 25 7 35 3 41 -13 35 129 -10 228 -10 23 -19 51 -19 62 0 19 -6 21 -60
20 l-60 0 -16 -47 c-16 -48 -34 -72 -34 -45 0 8 7 34 15 57 8 23 15 44 15 45
0 2 -16 9 -36 15 -39 13 -54 4 -54 -32 0 -10 -4 -18 -10 -18 -5 0 -10 7 -10
15 0 8 -6 12 -14 9 -11 -4 -5 25 21 111 19 64 32 119 29 122 -3 3 -68 27 -143
53 -116 39 -138 50 -141 68 -3 22 -26 30 -36 14 -3 -5 5 -69 18 -142 17 -98
21 -142 14 -164 -5 -17 -9 -49 -9 -71 0 -38 -1 -39 -15 -20 -8 11 -12 29 -9
40 15 51 16 88 6 152 l-12 69 -79 -15 c-79 -15 -79 -15 -73 -43 7 -36 -10 -36
-24 0 -11 27 -11 27 -6 -5 4 -21 1 -33 -6 -33 -6 0 -11 9 -11 19 0 30 -14 33
-80 20 -57 -11 -60 -13 -60 -40 0 -16 -4 -29 -10 -29 -5 0 -10 11 -10 25 0 14
-4 25 -9 25 -5 0 -5 -16 0 -37 16 -68 12 -83 -18 -83 -26 1 -27 2 -10 14 14
11 16 22 11 56 l-7 42 -51 -7 c-28 -3 -53 -8 -55 -11 -5 -4 25 -164 32 -171 3
-2 20 -1 39 2 31 6 34 9 30 36 -3 17 0 29 7 29 6 0 11 -10 11 -22 0 -14 10
-29 25 -38 13 -8 90 -75 170 -149 131 -120 147 -132 158 -117 12 17 15 16 49
-4 l36 -21 25 33 c14 18 35 69 46 113 l20 80 -24 25 c-14 15 -25 29 -25 33 0
12 92 107 103 107 5 0 -11 -24 -36 -54 l-46 -53 25 -24 c21 -20 24 -29 18 -54
-4 -16 -8 -56 -9 -88 -2 -44 -9 -67 -28 -94 -21 -29 -24 -40 -15 -51 10 -11 8
-13 -9 -10 -19 3 -50 -27 -131 -124 -13 -15 -4 -20 105 -53 65 -20 136 -45
158 -56 22 -10 57 -25 78 -33 20 -8 37 -20 37 -25 0 -11 -82 17 -130 43 -33
18 -270 89 -277 83 -11 -12 52 -40 159 -73 133 -40 238 -83 238 -97 0 -5 -8
-6 -17 -1 -10 4 -93 33 -185 63 -91 31 -176 65 -188 76 l-22 20 -25 -30 c-87
-102 -94 -108 -117 -96 -11 6 -31 18 -42 26 -31 23 -45 5 -85 -110 l-33 -97
-106 -92 c-86 -76 -108 -101 -118 -135 -15 -48 -9 -64 20 -55 15 4 19 2 16 -7
-3 -8 -17 -13 -31 -12 -32 2 -43 -28 -50 -139 -5 -68 -9 -82 -37 -117 -23 -28
-43 -77 -71 -167 -21 -71 -35 -131 -31 -135 4 -4 66 -26 137 -49 113 -37 210
-76 307 -125 24 -12 28 -12 32 3 78 271 186 615 197 626 14 16 11 -27 -7 -75
-8 -24 -58 -186 -110 -359 -53 -173 -113 -372 -135 -443 -21 -70 -43 -158 -49
-195 -6 -37 -31 -161 -56 -277 -25 -115 -47 -219 -49 -230 -2 -11 -10 -27 -17
-36 -15 -20 -58 -35 -58 -21 0 6 10 12 23 16 20 5 26 23 66 208 24 112 52 251
62 310 15 91 39 179 110 402 5 15 6 32 3 37 -11 18 -163 82 -315 134 l-156 53
-47 -145 c-41 -125 -46 -149 -37 -175 19 -55 13 -79 -28 -117 -30 -28 -45 -54
-65 -116 -15 -44 -32 -93 -38 -110 -22 -64 -99 -302 -109 -340 -8 -29 -13 -35
-19 -24 -6 10 11 76 47 189 103 324 113 350 161 403 35 40 42 54 37 74 -3 14
-8 37 -11 52 -8 42 166 588 205 641 25 35 31 52 31 97 0 39 -4 53 -14 53 -19
0 -150 54 -182 75 -50 32 -13 28 63 -8 89 -42 143 -56 143 -37 0 6 14 55 31
108 l30 97 81 65 c79 64 79 65 49 68 -20 2 -41 -4 -58 -17 -39 -32 -40 -17 -2
28 36 42 49 49 49 27 0 -8 12 -17 26 -20 36 -9 59 14 80 78 26 79 62 157 82
175 56 52 132 145 132 162 0 26 16 24 52 -6 l30 -26 57 62 c31 34 57 66 59 70
2 5 -8 14 -23 21 -23 10 -28 10 -37 -5 -9 -16 -11 -16 -35 3 -24 18 -28 19
-35 5 -5 -8 -14 -13 -19 -9 -6 3 -5 12 3 21 11 13 4 23 -44 67 -31 28 -93 84
-137 125 -45 40 -81 69 -81 63 0 -5 7 -15 15 -22 9 -7 13 -20 10 -29 -3 -11 6
-28 25 -46 23 -22 27 -32 19 -42 -14 -16 -33 -18 -23 -2 3 6 -6 23 -21 39 -15
16 -25 35 -22 42 2 8 -3 24 -13 36 -14 17 -25 21 -49 16 -24 -5 -31 -12 -31
-31 0 -35 -17 -20 -25 23 -6 34 -8 36 -36 30 -21 -4 -36 -1 -46 9 -13 13 -11
16 12 25 14 5 33 10 41 10 10 0 14 6 10 18 -2 9 -8 36 -11 60 -4 23 -7 42 -8
42 -1 0 -45 -9 -97 -20 -107 -22 -120 -23 -120 -11 0 4 42 16 93 26 50 9 99
21 107 26 21 12 4 10 -65 -6 -69 -17 -95 -19 -95 -7 0 5 30 14 68 21 90 16 96
21 88 66 -5 23 -12 35 -19 32 -37 -14 -698 -109 -706 -101 -2 2 -2 6 1 9 4 4
493 75 518 75 5 0 12 11 16 25 7 30 34 33 34 4 0 -15 5 -19 18 -15 9 2 68 15
130 27 61 13 112 27 112 32 0 5 -16 61 -36 123 -19 63 -33 122 -31 132 4 14 6
13 12 -5 4 -13 13 -23 20 -23 7 0 29 -46 50 -102 21 -57 40 -106 44 -111 8 -8
121 10 133 21 4 4 12 50 19 102 12 100 63 280 79 280 13 0 13 2 -10 -65 -11
-32 -20 -62 -20 -67 0 -4 29 -8 65 -8 37 0 65 -4 65 -10 0 -6 -20 -8 -54 -4
-32 4 -56 2 -60 -4 -9 -15 -31 -200 -24 -207 5 -5 297 51 304 58 2 1 -1 20 -6
42 -13 60 -14 117 -2 148 7 15 14 27 18 27 3 0 3 -12 -1 -27 -8 -30 -8 -87 1
-115 6 -19 127 -64 132 -48 5 15 22 12 22 -5 0 -10 70 -37 231 -90 127 -41
232 -75 233 -75 2 0 11 27 20 60 9 33 21 60 27 60 13 0 12 -8 -12 -79 -25 -74
8 -77 -289 20 -133 44 -216 67 -218 60 -5 -16 -20 -13 -24 5 -2 12 -87 51
-116 54 -2 0 -2 -12 0 -27 3 -25 -1 -29 -34 -37 -40 -10 -49 -29 -20 -44 27
-14 307 -108 402 -135 47 -14 108 -27 135 -31 28 -3 58 -7 69 -8 13 -2 22 7
31 31 6 19 17 37 23 39 15 5 15 2 -4 -43 -8 -20 -13 -39 -11 -41 11 -11 162
-52 168 -46 4 4 22 54 40 112 17 58 34 110 36 116 2 5 -37 23 -87 39 -49 16
-90 32 -90 37 0 12 9 10 102 -21 l85 -29 42 132 c39 121 41 132 25 141 -9 5
-25 17 -34 26 -25 24 -86 42 -126 37 -39 -5 -42 13 -3 23 29 8 69 7 69 -2z
m228 -36 c-2 -9 -8 -18 -15 -20 -7 -3 -9 3 -6 16 6 25 26 28 21 4z m-1624 -33
c-9 -16 -19 -30 -24 -30 -4 0 -10 -9 -13 -20 -5 -20 -37 -29 -37 -10 0 6 5 10
11 10 6 0 8 7 5 16 -4 11 1 18 14 21 11 3 20 14 20 24 0 12 7 19 19 19 18 0
19 -2 5 -30z m1076 24 c0 -15 -47 -84 -57 -84 -6 0 -13 -5 -15 -11 -5 -14
-138 27 -138 42 0 12 -2 12 64 -11 54 -18 58 -18 75 -2 9 9 23 29 30 45 12 23
41 38 41 21z m840 -46 c-1 -42 -13 -58 -44 -57 -21 1 -25 3 -11 6 25 7 36 23
29 46 -3 11 0 17 10 17 9 0 16 -6 16 -12z m-260 -14 l25 -15 -25 7 c-14 3 -29
10 -34 15 -16 14 6 10 34 -7z m-2750 -41 c0 -9 -52 -207 -56 -212 -1 -1 -7 0
-13 3 -6 4 -6 19 1 44 29 111 50 172 58 172 6 0 10 -3 10 -7z m900 -109 c0
-45 -20 -114 -33 -114 -5 0 -7 15 -4 33 16 100 20 117 28 117 5 0 9 -16 9 -36z
m1205 -83 c8 -21 -9 -33 -37 -26 -23 6 -25 9 -15 35 9 24 13 26 29 17 10 -7
20 -18 23 -26z m-1231 -80 c3 -4 3 -10 0 -13 -7 -8 -54 3 -54 13 0 12 47 12
54 0z m-507 -277 c9 -148 14 -176 37 -222 25 -50 61 -86 116 -119 23 -13 30
-25 30 -48 0 -27 7 -33 65 -64 36 -18 65 -37 65 -42 0 -14 -8 -11 -81 28 -57
31 -69 42 -69 63 0 31 -7 40 -47 68 -40 28 -42 28 -34 -10 6 -27 -9 -61 -103
-241 l-109 -209 33 -67 c26 -54 30 -74 25 -103 -5 -26 -2 -43 8 -59 11 -15 13
-28 7 -44 -8 -21 -4 -24 73 -45 45 -13 84 -25 86 -26 2 -2 -3 -10 -12 -18 -13
-13 -22 -13 -78 4 -35 11 -69 20 -75 20 -7 0 -22 -36 -33 -80 l-22 -80 53
-128 c49 -117 53 -135 58 -227 l5 -100 80 -54 c44 -29 81 -59 83 -67 2 -8 1
-14 -3 -14 -32 0 -249 130 -265 159 -13 26 -1 62 32 98 l30 31 -61 155 c-65
164 -70 193 -46 271 8 28 12 53 8 57 -10 9 -153 49 -175 49 -10 0 -18 -13 -23
-36 -5 -30 -35 -139 -61 -226 -3 -10 2 -19 16 -23 29 -9 25 -28 -5 -21 -14 4
-25 2 -25 -3 0 -5 44 -24 99 -42 58 -19 103 -40 110 -51 12 -20 5 -68 -11 -68
-6 0 -8 8 -5 19 4 16 -11 24 -101 55 -58 20 -107 35 -108 33 -2 -2 -7 -17 -10
-34 -5 -25 -2 -31 16 -36 12 -3 19 -10 16 -15 -4 -7 -17 -6 -37 1 -24 9 -29
16 -24 32 21 66 26 60 -98 99 -63 20 -119 36 -124 36 -6 0 -15 -17 -21 -37 -6
-21 -19 -64 -29 -95 -9 -32 -20 -58 -25 -58 -13 0 -10 14 21 110 16 50 26 92
22 94 -10 6 -333 106 -342 106 -5 0 -16 -27 -25 -60 -9 -33 -21 -60 -25 -60
-13 0 -11 18 6 74 17 56 14 61 -45 71 -52 9 -67 20 -51 39 11 13 18 13 63 0
28 -9 54 -12 58 -7 4 4 17 46 30 91 19 70 21 85 9 92 -7 5 -11 11 -9 13 3 3
55 10 115 16 61 7 162 19 227 28 l116 16 86 -27 c48 -15 84 -31 81 -36 -3 -4
19 -16 47 -25 29 -9 59 -18 66 -21 7 -2 10 1 7 6 -9 15 6 12 24 -4 24 -21 154
-57 165 -46 5 5 11 35 14 66 4 50 0 65 -34 135 -40 82 -53 92 -94 67 -26 -16
-50 3 -32 25 7 8 9 17 5 20 -3 4 3 7 15 7 12 0 22 -4 22 -10 0 -6 8 -6 23 1
26 12 243 420 241 454 -1 11 -13 47 -27 80 -29 69 -49 281 -26 273 7 -2 14
-26 16 -54z m-462 24 c14 -6 25 -17 25 -25 0 -12 -4 -11 -22 1 -12 9 -33 16
-45 16 -13 0 -23 5 -23 10 0 13 33 13 65 -2z m41 -127 c-10 -42 -15 -98 -13
-153 2 -49 0 -88 -5 -88 -9 0 -10 7 -13 110 -2 43 3 93 11 118 8 23 14 59 14
80 1 31 2 34 11 18 8 -13 7 -35 -5 -85z m4364 27 c21 -35 25 -48 12 -48 -9 0
-42 54 -42 69 0 19 10 12 30 -21z m-1042 -50 c-5 -15 -48 -24 -48 -10 0 14 12
22 33 22 10 0 17 -5 15 -12z m36 -24 c-12 -17 -19 -21 -25 -13 -8 14 10 38 29
39 9 0 8 -7 -4 -26z m-2270 -67 c-28 -28 -63 -72 -79 -97 -51 -80 -145 -231
-145 -233 0 -1 20 -13 44 -27 25 -13 43 -28 40 -32 -3 -4 -24 3 -48 17 -24 14
-45 25 -48 25 -8 0 -45 -89 -53 -127 -6 -29 -25 -47 -25 -25 0 17 32 118 44
137 7 11 22 37 35 57 l22 37 -58 39 c-57 39 -181 168 -170 178 2 3 36 -27 73
-66 58 -60 147 -130 166 -130 2 0 38 52 78 116 66 104 154 203 168 189 3 -3
-17 -29 -44 -58z m3326 37 c0 -8 -4 -12 -10 -9 -5 3 -10 10 -10 16 0 5 5 9 10
9 6 0 10 -7 10 -16z m-1490 -19 c0 -8 -4 -15 -10 -15 -5 0 -10 7 -10 15 0 8 5
15 10 15 6 0 10 -7 10 -15z m-1690 -55 c35 -32 61 -62 57 -66 -4 -4 -19 3 -35
17 l-27 24 24 -27 c14 -16 22 -30 19 -34 -6 -5 -120 118 -126 137 -9 24 29 2
88 -51z m2108 41 c3 -8 -1 -12 -9 -9 -7 2 -15 10 -17 17 -3 8 1 12 9 9 7 -2
15 -10 17 -17z m47 -31 c18 -20 18 -21 -5 -12 -13 5 -26 14 -28 20 -6 19 13
14 33 -8z m-465 -61 c0 -7 -67 -39 -82 -39 -6 0 6 15 28 34 35 30 53 32 54 5z
m-1486 6 c-4 -8 -13 -15 -21 -15 -13 0 -13 3 -3 15 7 8 16 15 21 15 5 0 6 -7
3 -15z m-1504 -24 c0 -4 -9 -53 -20 -108 l-21 -99 26 -67 c14 -37 25 -74 25
-83 0 -29 -19 -4 -35 49 -10 28 -27 74 -38 100 -18 44 -17 79 2 48 5 -8 13 11
20 51 21 113 22 118 32 118 5 0 9 -4 9 -9z m110 -61 c0 -5 -7 -10 -15 -10 -8
0 -15 5 -15 10 0 6 7 10 15 10 8 0 15 -4 15 -10z m1260 -71 c34 -28 59 -53 56
-57 -3 -3 -16 3 -28 14 l-23 19 19 -23 c34 -40 8 -36 -42 7 -35 29 -49 48 -49
66 0 14 1 25 3 25 2 0 31 -23 64 -51z m1945 -63 l7 -58 30 6 c17 3 43 6 59 6
19 0 29 5 29 15 0 31 18 13 24 -24 7 -47 31 -312 46 -516 6 -82 13 -166 15
-185 18 -152 57 -692 52 -712 -4 -14 -31 -55 -62 -92 -30 -37 -55 -77 -55 -88
0 -12 12 -37 26 -56 25 -32 26 -39 20 -106 -4 -39 -11 -87 -16 -106 -5 -19
-11 -81 -12 -136 l-3 -101 37 -55 c31 -44 37 -62 35 -95 -1 -23 -5 -39 -8 -37
-9 5 -19 -22 -19 -52 0 -15 4 -23 10 -19 6 4 9 1 8 -7 -2 -7 3 -12 10 -10 8 1
11 -1 8 -6 -3 -5 13 -26 35 -48 49 -47 148 -234 124 -234 -9 0 -35 40 -64 99
-49 97 -111 168 -134 154 -6 -3 -7 -1 -3 6 4 6 2 18 -4 27 -12 13 -10 46 6
130 4 24 -1 42 -25 82 -18 28 -35 70 -39 94 l-8 43 -114 17 c-63 9 -132 19
-152 22 -30 5 -38 3 -38 -9 0 -9 -9 -15 -22 -15 -12 0 -46 -6 -75 -12 -44 -10
-53 -16 -53 -34 0 -19 8 -22 73 -30 l72 -9 -72 -3 -73 -3 -1 -37 c0 -20 -4
-46 -9 -57 -6 -14 -9 -4 -9 38 l-1 57 -60 0 c-33 0 -60 4 -60 10 0 6 27 10 60
10 57 0 60 1 60 25 0 18 -5 25 -20 25 -16 0 -19 5 -14 23 5 22 1 25 -54 37
-78 16 -90 24 -70 44 16 16 42 130 36 161 -2 15 15 24 102 52 58 18 112 33
120 33 29 0 -7 -17 -99 -45 -51 -16 -95 -34 -96 -40 -1 -5 -8 -41 -15 -80 -7
-38 -15 -75 -17 -82 -5 -11 0 -14 75 -33 31 -8 42 -16 42 -30 0 -24 19 -25
102 -8 37 8 58 17 58 26 0 9 8 12 28 8 15 -3 48 -8 74 -12 l47 -6 3 38 c2 31
8 39 31 47 49 16 59 4 37 -45 l-19 -43 27 -6 c15 -4 43 -9 63 -12 l36 -5 12
86 c7 48 15 101 18 118 l5 31 -89 12 c-48 6 -139 16 -200 23 -62 6 -113 15
-113 19 0 11 81 16 100 7 8 -5 79 -16 157 -26 120 -15 143 -16 148 -4 10 28 4
49 -25 82 -45 53 -40 76 35 165 69 82 68 79 56 243 -19 242 -17 241 -67 43
-25 -96 -46 -177 -49 -179 -18 -18 -10 30 34 213 28 114 51 209 51 210 0 2
-15 2 -32 0 -18 -3 -68 -7 -110 -11 l-78 -6 0 -39 c0 -22 -5 -39 -11 -39 -8 0
-10 14 -6 44 l6 44 -99 13 c-62 7 -107 9 -119 3 -18 -9 -18 -11 7 -67 21 -48
28 -56 45 -51 40 13 10 -20 -36 -39 l-46 -19 -41 42 c-22 23 -40 48 -40 55 0
22 -15 26 -49 14 -45 -16 -51 -3 -8 17 l35 17 -48 106 c-26 58 -55 120 -64
136 -20 38 -20 53 0 57 12 2 29 47 61 168 25 91 51 172 59 181 8 9 27 54 43
101 37 108 56 149 101 218 20 30 50 79 66 107 29 53 51 70 41 33 -4 -14 9 -32
44 -65 26 -25 50 -45 52 -45 2 0 0 32 -4 72 -8 75 0 115 13 63 4 -17 10 -56
13 -89z m-1300 24 c3 -5 4 -14 0 -20 -8 -13 -35 -1 -35 16 0 16 26 19 35 4z
m702 -116 c-9 -10 -38 10 -33 22 3 9 -2 14 -13 14 -10 0 -24 7 -31 15 -11 13
-8 15 14 15 14 0 26 -4 26 -10 0 -19 18 -10 26 13 6 18 8 14 11 -22 2 -23 2
-45 0 -47z m-1514 -25 c28 -80 28 -80 10 -135 -9 -30 -20 -54 -25 -54 -11 0
-10 10 8 64 16 46 16 49 -10 121 -28 80 -30 85 -18 85 4 0 20 -36 35 -81z
m-1521 11 c41 -30 61 -60 42 -60 -9 0 -87 71 -98 88 -11 20 1 14 56 -28z m78
-66 c0 -8 -4 -12 -10 -9 -5 3 -10 10 -10 16 0 5 5 9 10 9 6 0 10 -7 10 -16z
m70 -44 c0 -5 -4 -10 -10 -10 -5 0 -10 5 -10 10 0 6 5 10 10 10 6 0 10 -4 10
-10z m-640 -46 c0 -17 -22 -14 -28 4 -2 7 3 12 12 12 9 0 16 -7 16 -16z m930
6 c0 -5 -9 -10 -20 -10 -11 0 -20 5 -20 10 0 6 9 10 20 10 11 0 20 -4 20 -10z
m-85 -20 c-13 -21 -145 -23 -145 -2 0 4 34 8 75 9 41 0 73 -3 70 -7z m1795
-35 c0 -8 -4 -15 -10 -15 -5 0 -10 7 -10 15 0 8 5 15 10 15 6 0 10 -7 10 -15z
m-1647 -35 c4 -14 0 -20 -12 -20 -23 0 -31 9 -24 26 8 21 30 17 36 -6z m1223
-27 c-10 -10 -19 5 -10 18 6 11 8 11 12 0 2 -7 1 -15 -2 -18z m79 -22 c8 -26
121 -118 154 -126 14 -3 126 -37 248 -75 122 -39 229 -70 239 -70 9 0 41 8 71
17 51 16 58 16 148 -2 52 -10 100 -22 107 -26 27 -17 -1 -17 -77 2 -98 23
-137 24 -196 3 l-46 -17 -164 48 c-90 26 -171 50 -179 55 -9 4 -56 20 -105 35
-69 21 -102 38 -146 73 -61 50 -97 102 -70 102 5 0 12 -9 16 -19z m-1255 -51
c0 -5 -7 -10 -15 -10 -8 0 -15 5 -15 10 0 6 7 10 15 10 8 0 15 -4 15 -10z
m4663 -97 c4 -3 -10 -18 -31 -31 -66 -45 -162 -134 -155 -145 3 -5 1 -7 -5 -3
-13 8 -56 -60 -46 -75 4 -7 3 -9 -4 -5 -15 9 -25 -46 -12 -78 11 -31 110 -82
138 -71 9 3 13 3 10 -1 -4 -3 26 -28 66 -55 126 -85 175 -165 184 -297 4 -70
3 -84 -9 -80 -10 3 -16 28 -19 79 -7 97 -37 158 -114 232 -63 62 -106 88 -194
118 -30 10 -64 29 -76 42 -31 33 -28 93 7 146 15 23 25 47 21 53 -4 6 -3 8 3
5 13 -8 76 57 66 68 -5 4 -2 5 5 0 9 -4 25 3 45 22 38 35 100 83 108 83 3 0 9
-3 12 -7z m-3634 -22 c11 -7 5 -20 -29 -64 l-44 -56 -43 31 c-24 17 -43 35
-43 40 0 14 11 9 47 -18 38 -29 32 -32 85 41 15 21 17 26 5 16 -19 -15 -33 -9
-22 8 8 13 25 14 44 2z m361 -21 c0 -5 -4 -10 -10 -10 -5 0 -10 5 -10 10 0 6
5 10 10 10 6 0 10 -4 10 -10z m-880 -40 c0 -5 -4 -10 -10 -10 -5 0 -10 5 -10
10 0 6 5 10 10 10 6 0 10 -4 10 -10z m120 -40 c0 -5 -4 -10 -10 -10 -5 0 -10
5 -10 10 0 6 5 10 10 10 6 0 10 -4 10 -10z m414 -48 c-14 -21 -21 -38 -15 -40
6 -2 11 -11 11 -20 0 -12 -3 -13 -8 -5 -5 8 -17 10 -36 5 -25 -7 -33 -19 -58
-85 -16 -42 -34 -77 -39 -77 -13 0 -12 8 24 95 26 64 37 81 55 83 14 2 28 14
34 30 16 36 39 63 49 56 4 -2 -3 -21 -17 -42z m1318 -51 c-6 -117 0 -141 37
-141 35 0 47 -14 56 -62 7 -35 5 -38 -29 -52 -33 -14 -36 -18 -30 -43 6 -24 5
-26 -8 -15 -13 10 -16 8 -22 -20 -4 -18 -11 -99 -16 -180 -10 -157 -16 -198
-32 -198 -6 0 -8 10 -4 23 4 12 11 90 17 173 14 203 25 243 72 269 20 11 37
26 37 33 0 29 -21 52 -49 52 -38 0 -51 32 -51 128 0 80 7 122 20 122 4 0 5
-40 2 -89z m-129 -13 c6 -46 -46 -325 -69 -370 -8 -15 -36 -53 -62 -85 -27
-32 -56 -70 -65 -84 -17 -25 -16 -27 7 -52 14 -15 32 -27 40 -27 8 0 18 -4 21
-10 13 -21 -54 -9 -83 15 l-30 25 -171 -234 c-162 -220 -237 -303 -259 -282
-4 4 0 13 9 19 53 40 72 62 130 142 35 50 106 149 159 220 53 72 99 136 103
142 9 15 -5 45 -44 92 -44 53 -24 51 31 -4 31 -30 53 -45 59 -40 45 50 142
180 146 198 27 113 55 280 55 323 0 64 15 72 23 12z m-2013 -16 c0 -5 -9 -17
-19 -26 -23 -21 -38 -4 -15 18 17 17 34 21 34 8z m794 -26 c-6 -16 -24 -23
-24 -8 0 10 22 33 27 28 2 -2 1 -11 -3 -20z m2426 -172 l13 -176 63 7 c40 4
64 3 64 -3 0 -6 -27 -13 -60 -17 l-60 -7 0 -63 c0 -35 3 -70 6 -78 4 -12 37
-15 188 -16 166 -2 196 1 332 28 174 35 304 49 304 33 0 -11 -24 -15 -145 -27
-33 -4 -112 -18 -175 -32 -103 -23 -140 -26 -354 -28 -204 -2 -237 0 -221 11
10 8 26 14 35 14 13 0 15 11 12 68 -4 86 -8 95 -32 89 -11 -3 -20 -1 -20 5 0
5 9 12 20 15 23 6 23 -1 6 198 -7 83 -11 153 -9 158 13 23 21 -20 33 -179z
m-2995 -173 c-4 -18 -9 -31 -11 -28 -8 8 -4 338 4 351 9 14 15 -277 7 -323z
m431 162 c-10 -10 -19 5 -10 18 6 11 8 11 12 0 2 -7 1 -15 -2 -18z m-856 7 c0
-22 -708 -740 -730 -740 -8 0 64 80 160 178 96 97 224 227 283 288 l108 111
-107 47 -108 47 -185 -27 c-183 -26 -292 -28 -353 -5 -39 14 -4 18 79 8 70 -9
104 -7 235 13 84 13 177 27 207 31 50 7 61 5 145 -32 50 -23 98 -43 107 -46
11 -3 37 19 79 66 60 68 80 83 80 61z m-980 -41 c0 -5 -4 -9 -10 -9 -5 0 -10
7 -10 16 0 8 5 12 10 9 6 -3 10 -10 10 -16z m1006 -15 c-3 -9 -6 -18 -6 -20 0
-2 -4 -4 -9 -4 -5 0 -7 9 -4 20 3 11 10 20 15 20 6 0 7 -7 4 -16z m-20 -81
c-11 -11 -17 4 -9 23 7 18 8 18 11 1 2 -10 1 -21 -2 -24z m-16 -38 c-7 -8 -17
-15 -22 -15 -6 0 -5 7 2 15 7 8 17 15 22 15 6 0 5 -7 -2 -15z m-45 -42 c-4
-10 -7 -39 -6 -65 2 -45 0 -48 -36 -67 -40 -20 -87 -62 -114 -102 -10 -13 -19
-22 -22 -19 -12 11 52 86 101 119 51 35 53 38 51 78 -2 23 3 48 10 57 18 21
25 20 16 -1z m4431 -72 c18 -11 46 -37 64 -59 28 -35 39 -41 84 -47 28 -3 89
-13 135 -22 75 -15 85 -15 95 -1 13 17 36 13 36 -7 0 -7 16 -16 38 -20 20 -3
48 -13 62 -21 24 -15 24 -15 -15 -9 -22 3 -52 8 -67 11 -22 4 -28 2 -28 -11 0
-9 -5 -26 -11 -37 -15 -28 -30 -5 -22 34 5 25 3 28 -22 28 -15 0 -79 10 -144
22 l-116 21 -57 59 c-45 46 -62 58 -87 58 -17 0 -31 5 -31 10 0 17 53 11 86
-9z m-5201 -71 c10 -11 15 -20 11 -20 -14 0 -46 21 -46 30 0 16 16 11 35 -10z
m3839 -53 c-2 -7 11 -28 31 -47 47 -46 45 -59 -4 -21 -36 29 -56 63 -43 75 10
11 21 6 16 -7z m-884 -51 c0 -24 -22 -76 -32 -76 -6 0 -7 8 -3 18 3 9 9 29 12
45 6 28 23 38 23 13z m-24 -122 c-5 -13 -10 -14 -18 -6 -6 6 -8 18 -4 28 5 13
10 14 18 6 6 -6 8 -18 4 -28z m-2186 -99 c125 -93 125 -93 118 -101 -8 -8
-248 173 -248 188 0 7 4 7 13 1 6 -6 59 -45 117 -88z m1956 26 c5 -5 42 -19
83 -30 41 -12 79 -25 85 -31 15 -15 -15 -12 -93 9 l-69 19 -11 -24 c-6 -13
-16 -24 -22 -24 -7 0 -8 7 -3 18 4 9 7 29 7 45 0 28 6 33 23 18z m1549 -21 c3
-5 -1 -10 -9 -10 -9 0 -16 5 -16 10 0 6 4 10 9 10 6 0 13 -4 16 -10z m-2985
-22 c0 -13 -23 -5 -28 10 -2 7 2 10 12 6 9 -3 16 -11 16 -16z m4550 -47 c0
-11 -31 -24 -39 -16 -3 3 1 10 9 15 19 12 30 12 30 1z m-5730 -19 c0 -10 -113
-122 -123 -122 -17 0 -3 22 48 74 52 52 75 67 75 48z m4059 -173 c-19 -12 -24
-2 -8 17 9 11 14 13 17 4 3 -7 -2 -16 -9 -21z m278 -21 c-3 -13 -9 -45 -13
-71 -3 -27 -13 -51 -20 -54 -8 -3 -14 -18 -14 -34 0 -16 -3 -29 -7 -29 -11 1
-48 30 -38 30 5 0 1 6 -10 13 -15 12 -16 15 -4 23 8 5 25 9 39 9 17 0 26 6 28
20 2 11 6 27 9 35 7 14 8 24 12 63 0 9 6 17 12 17 7 0 9 -9 6 -22z m-1507 -47
c0 -28 -4 -53 -10 -56 -6 -4 -10 10 -10 34 0 22 -5 42 -12 44 -10 4 -9 8 2 16
26 18 30 13 30 -38z m-80 18 c-37 -10 -70 -10 -70 0 0 10 68 19 85 12 5 -3 -1
-8 -15 -12z m-95 1 c4 -6 -5 -10 -20 -10 -15 0 -24 4 -20 10 3 6 12 10 20 10
8 0 17 -4 20 -10z m209 -298 c6 -9 -41 -72 -54 -72 -16 0 -6 45 15 62 22 19
32 22 39 10z m-1854 -6 c0 -3 -4 -8 -10 -11 -5 -3 -10 -1 -10 4 0 6 5 11 10
11 6 0 10 -2 10 -4z m1675 -116 c10 -11 15 -23 12 -27 -8 -7 -47 25 -47 39 0
14 16 9 35 -12z m875 -11 c27 -6 50 -15 50 -21 0 -5 -12 -7 -27 -4 -16 3 -45
8 -66 12 -40 7 -61 24 -28 24 11 0 43 -5 71 -11z m-3286 -16 c4 -9 3 -20 -1
-24 -13 -13 -34 6 -27 24 8 22 20 22 28 0z m2856 -130 c25 -11 73 -30 108 -43
34 -12 62 -26 62 -31 0 -12 2 -13 -97 25 -120 46 -143 57 -137 68 3 4 8 7 12
4 4 -2 27 -12 52 -23z m-2246 -95 c-9 -51 -85 -292 -95 -303 -5 -5 -9 -16 -9
-25 1 -23 -92 -343 -103 -358 -6 -7 -11 -11 -13 -9 -3 2 17 75 42 163 26 87
49 173 51 189 3 17 9 35 13 40 13 17 90 271 90 297 0 25 7 38 21 38 5 0 6 -15
3 -32z m3632 -282 c91 -27 141 -47 169 -69 32 -25 11 -30 -28 -7 -43 26 -236
82 -259 76 -18 -4 -24 5 -11 17 12 12 48 7 129 -17z m-1387 -154 c52 -26 52
-46 -1 -22 -23 10 -44 24 -46 29 -5 15 7 13 47 -7z m-64 -222 c-10 -11 -20
-18 -23 -15 -7 6 18 35 31 35 5 0 2 -9 -8 -20z"/>
<path d="M5805 5012 c-27 -8 -51 -16 -53 -17 -9 -8 -29 -175 -25 -207 7 -53
37 -57 67 -10 41 66 46 80 46 136 0 30 5 67 10 82 6 15 9 28 8 29 -2 1 -25 -5
-53 -13z"/>
<path d="M5057 4965 c-9 -25 -12 -45 -7 -45 5 0 15 -3 23 -6 10 -3 17 3 21 19
3 14 9 32 12 40 3 9 -2 20 -14 26 -18 10 -22 6 -35 -34z"/>
<path d="M5031 4883 c-16 -32 -41 -125 -35 -135 3 -5 13 -8 22 -6 16 3 65 135
55 151 -8 13 -32 7 -42 -10z"/>
<path d="M5076 4813 c-14 -42 -23 -80 -18 -84 7 -7 161 -59 174 -59 3 0 11 14
17 31 9 27 8 34 -7 45 -16 12 -15 13 5 14 14 0 24 9 31 30 10 29 10 30 -29 41
-21 7 -39 18 -39 24 0 7 -17 16 -37 19 -21 4 -45 9 -54 12 -13 4 -23 -12 -43
-73z"/>
<path d="M3523 4855 c34 -113 49 -155 57 -160 14 -8 14 -9 -21 86 -28 76 -50
123 -36 74z"/>
<path d="M3781 4844 c0 -11 3 -14 6 -6 3 7 2 16 -1 19 -3 4 -6 -2 -5 -13z"/>
<path d="M5465 4784 c94 -32 145 -44 187 -44 36 0 58 4 58 11 0 8 -15 10 -49
5 -40 -5 -71 1 -179 34 -72 22 -135 40 -139 39 -4 0 50 -20 122 -45z"/>
<path d="M5297 4796 c-4 -10 -7 -25 -6 -34 0 -11 4 -9 10 7 5 13 8 29 6 35 -2
5 -6 2 -10 -8z"/>
<path d="M5326 4784 c-17 -44 -10 -48 147 -95 180 -55 228 -58 258 -13 10 16
19 34 19 39 0 6 -30 9 -77 7 -69 -3 -91 1 -198 37 -134 46 -140 47 -149 25z"/>
<path d="M3772 4760 c0 -14 2 -19 5 -12 2 6 2 18 0 25 -3 6 -5 1 -5 -13z"/>
<path d="M3883 4732 c-68 -15 -73 -18 -73 -41 0 -49 10 -53 83 -40 36 7 70 15
75 18 10 7 4 82 -7 80 -3 -1 -39 -9 -78 -17z"/>
<path d="M4941 4607 c-40 -120 -41 -136 -6 -137 6 0 26 51 44 113 19 61 36
117 38 123 2 6 -5 14 -16 17 -18 4 -24 -9 -60 -116z"/>
<path d="M5270 4704 c-11 -27 -13 -51 -5 -42 8 8 25 68 19 68 -2 0 -9 -12 -14
-26z"/>
<path d="M5299 4693 c-5 -14 -8 -31 -6 -37 2 -6 41 -23 88 -37 l84 -27 11 31
c6 18 9 35 5 38 -11 12 -113 38 -127 32 -8 -3 -14 -1 -14 5 0 5 -7 13 -15 16
-11 4 -19 -3 -26 -21z"/>
<path d="M3776 4683 c4 -16 11 -35 16 -43 7 -11 8 -8 4 10 -3 14 -6 33 -6 43
0 9 -5 17 -10 17 -6 0 -8 -11 -4 -27z"/>
<path d="M5003 4587 l-39 -122 66 -16 c36 -10 78 -22 94 -28 16 -7 30 -10 31
-9 7 9 75 232 71 235 -2 2 -45 17 -95 33 l-90 28 -38 -121z"/>
<path d="M3667 4687 l-49 -11 7 -35 c4 -20 8 -37 9 -39 2 -1 32 4 67 11 63 13
64 14 60 42 -5 50 -7 51 -94 32z"/>
<path d="M3590 4650 c0 -11 4 -20 9 -20 5 0 7 9 4 20 -3 11 -7 20 -9 20 -2 0
-4 -9 -4 -20z"/>
<path d="M3486 4653 c-26 -4 -28 -7 -22 -35 3 -17 6 -35 6 -40 0 -13 91 0 105
14 7 8 5 9 -7 5 -19 -7 -25 8 -8 18 6 3 10 15 10 26 0 20 -16 22 -84 12z"/>
<path d="M3955 4645 c-5 -2 -36 -9 -68 -15 -32 -7 -56 -14 -53 -17 7 -7 146
19 152 29 5 8 -12 10 -31 3z"/>
<path d="M5496 4625 c-4 -14 -7 -28 -9 -32 -1 -3 22 -14 51 -24 l52 -18 0 38
c0 35 -3 39 -39 49 -50 15 -48 16 -55 -13z"/>
<path d="M5247 4633 c-3 -4 -12 -30 -20 -58 -9 -27 -25 -79 -36 -114 -11 -35
-16 -60 -12 -55 11 12 82 226 77 231 -2 3 -6 1 -9 -4z"/>
<path d="M5275 4618 c-32 -87 -54 -163 -48 -169 5 -4 45 -18 90 -32 l82 -24
28 81 c15 44 28 85 28 90 0 8 -54 29 -154 61 -13 4 -23 2 -26 -7z"/>
<path d="M5623 4623 c-8 -2 -13 -22 -13 -44 0 -32 4 -39 19 -39 19 0 61 55 61
79 0 11 -44 14 -67 4z"/>
<path d="M3700 4592 c-36 -9 -56 -17 -45 -19 27 -4 133 21 120 28 -5 4 -39 -1
-75 -9z"/>
<path d="M4336 4595 c-3 -9 -6 -22 -5 -28 0 -7 5 -1 10 12 5 13 8 26 5 28 -2
2 -6 -3 -10 -12z"/>
<path d="M4354 4548 c-9 -29 -19 -58 -21 -64 -5 -15 66 -40 77 -28 7 9 40 101
40 115 0 7 -54 29 -71 29 -4 0 -15 -24 -25 -52z"/>
<path d="M3528 4558 c-67 -14 -60 -27 7 -15 30 6 55 14 55 19 0 9 2 9 -62 -4z"/>
<path d="M4451 4508 c-12 -34 -18 -65 -13 -70 11 -11 82 3 82 17 0 6 7 26 16
44 8 17 14 37 12 43 -3 7 -13 -9 -23 -35 -10 -26 -22 -47 -27 -47 -10 0 -3 30
17 72 11 24 11 27 -9 32 -11 3 -24 6 -28 6 -3 0 -16 -28 -27 -62z"/>
<path d="M5453 4488 c-12 -40 -24 -80 -28 -89 -4 -12 1 -18 19 -23 14 -3 26
-11 26 -16 0 -12 -3 -12 -33 -1 -22 9 -26 7 -32 -16 -3 -14 -2 -29 2 -34 14
-14 63 -22 63 -10 0 6 6 8 14 5 13 -5 56 43 56 63 0 5 13 24 29 43 29 36 65
99 59 105 -2 2 -12 5 -23 7 -14 2 -21 -3 -23 -19 -3 -17 -10 -23 -28 -23 -13
0 -24 5 -24 10 0 6 6 10 14 10 11 0 26 20 26 35 0 5 -62 25 -79 25 -12 0 -23
-20 -38 -72z m77 -48 c0 -5 -4 -10 -10 -10 -5 0 -10 5 -10 10 0 6 5 10 10 10
6 0 10 -4 10 -10z"/>
<path d="M4574 4534 c-3 -11 -13 -34 -22 -53 -13 -27 -14 -35 -4 -38 10 -4 10
-8 1 -19 -9 -11 -8 -14 5 -14 9 0 16 -4 16 -10 0 -5 -4 -10 -10 -10 -17 0 -11
-32 15 -89 17 -36 28 -80 31 -130 4 -51 13 -86 26 -106 l20 -30 77 7 c42 3 86
7 99 7 18 1 23 6 20 24 -3 21 -7 22 -72 18 -48 -2 -67 0 -62 8 4 6 27 11 51
11 74 0 74 0 58 89 -13 76 -13 79 17 165 21 62 26 88 17 92 -7 2 -64 21 -127
42 -63 21 -123 42 -132 46 -13 6 -20 3 -24 -10z m179 -326 c28 -13 37 -48 13
-48 -7 0 -16 -9 -19 -20 -6 -23 -27 -27 -27 -6 0 8 -15 23 -32 35 -23 14 -28
21 -15 21 10 0 20 7 23 15 7 18 22 19 57 3z"/>
<path d="M4711 4184 c0 -11 3 -14 6 -6 3 7 2 16 -1 19 -3 4 -6 -2 -5 -13z"/>
<path d="M4297 4471 c-4 -17 -3 -21 5 -13 5 5 8 16 6 23 -3 8 -7 3 -11 -10z"/>
<path d="M5952 4459 c-16 -25 -18 -23 43 -38 44 -11 51 -10 62 5 19 26 17 29
-32 42 -59 16 -58 16 -73 -9z"/>
<path d="M4354 4434 c22 -8 41 -12 44 -9 6 6 -45 25 -66 24 -9 0 1 -7 22 -15z"/>
<path d="M4857 4356 c-27 -83 -27 -85 -13 -157 18 -83 32 -106 23 -36 -6 39 0
68 28 156 19 59 35 111 35 114 0 4 -10 7 -23 7 -20 0 -26 -11 -50 -84z"/>
<path d="M4916 4319 c-28 -84 -35 -117 -30 -151 l6 -44 57 3 c125 8 115 0 156
124 21 61 35 112 33 115 -3 2 -46 17 -96 33 l-91 28 -35 -108z"/>
<path d="M5202 4402 l-10 -29 90 -27 c49 -15 91 -26 93 -24 2 2 6 15 10 29 6
25 3 27 -72 49 -43 12 -83 25 -89 27 -7 2 -16 -9 -22 -25z"/>
<path d="M4430 4410 c8 -5 26 -10 40 -10 14 0 32 5 40 10 11 7 -1 10 -40 10
-39 0 -51 -3 -40 -10z"/>
<path d="M5551 4343 c-40 -52 -42 -57 -26 -69 26 -19 43 -7 50 35 3 21 12 50
20 64 23 44 3 31 -44 -30z"/>
<path d="M3448 4363 c7 -3 16 -2 19 1 4 3 -2 6 -13 5 -11 0 -14 -3 -6 -6z"/>
<path d="M5386 4279 c-2 -8 -9 -29 -15 -46 -5 -18 -6 -35 -1 -38 14 -9 57 15
79 45 l20 28 -23 6 c-14 3 -31 9 -40 12 -9 3 -18 0 -20 -7z"/>
<path d="M5112 4213 c-12 -37 -20 -69 -18 -71 2 -2 14 27 26 63 12 36 20 68
18 70 -2 3 -14 -26 -26 -62z"/>
<path d="M5390 4130 c-13 -8 -13 -10 2 -10 9 0 20 5 23 10 8 13 -5 13 -25 0z"/>
<path d="M4958 4113 c-55 -4 -58 -5 -58 -30 l0 -26 72 7 c39 3 73 8 74 9 1 1
5 12 8 25 6 19 4 22 -16 20 -13 -1 -49 -3 -80 -5z"/>
<path d="M5075 4100 c-4 -12 -5 -24 -2 -27 3 -2 8 5 12 17 4 12 5 24 2 27 -3
2 -8 -5 -12 -17z"/>
<path d="M4867 4080 c3 -11 7 -20 9 -20 2 0 4 9 4 20 0 11 -4 20 -9 20 -5 0
-7 -9 -4 -20z"/>
<path d="M4935 4040 c-26 -7 -23 -8 20 -8 28 0 59 3 70 8 26 11 -46 11 -90 0z"/>
<path d="M4039 4023 c-13 -16 -12 -17 4 -4 9 7 17 15 17 17 0 8 -8 3 -21 -13z"/>
<path d="M3974 3948 l-29 -33 33 29 c30 28 37 36 29 36 -2 0 -16 -15 -33 -32z"/>
<path d="M3864 3911 c11 -11 23 -21 28 -21 14 0 -1 19 -25 31 -22 12 -22 12
-3 -10z"/>
<path d="M3780 3843 c-51 -62 -53 -66 -35 -79 10 -8 21 -14 25 -14 3 0 30 27
59 61 51 58 53 61 36 80 -10 10 -21 19 -24 18 -3 0 -31 -30 -61 -66z"/>
<path d="M3855 3813 c-59 -69 -73 -96 -20 -38 40 44 72 86 63 85 -2 -1 -21
-22 -43 -47z"/>
<path d="M2790 3925 c-134 -253 -141 -270 -134 -289 9 -24 226 389 222 424 -2
19 -23 -14 -88 -135z"/>
<path d="M2015 3458 c-93 -11 -179 -24 -191 -28 -12 -5 -24 -21 -27 -37 -4
-15 -15 -58 -26 -95 l-19 -68 96 -29 c53 -16 134 -41 180 -55 l83 -25 9 25
c13 33 24 31 17 -4 -5 -27 -5 -27 115 -65 66 -21 124 -35 128 -30 4 4 12 26
18 48 5 22 24 91 40 153 22 81 27 114 19 118 -7 2 -32 10 -57 17 -37 11 -44
17 -42 34 3 19 -6 25 -66 42 -38 12 -78 20 -88 20 -10 -1 -95 -11 -189 -21z
m165 -192 c0 -16 -24 -66 -32 -66 -6 0 -7 8 -3 18 4 9 10 25 12 35 4 14 23 25
23 13z"/>
<path d="M2720 3371 c0 -5 -3 -16 -6 -25 -4 -11 -1 -16 10 -16 10 0 16 9 16
25 0 14 -4 25 -10 25 -5 0 -10 -4 -10 -9z"/>
<path d="M2686 3247 c-15 -51 -22 -137 -11 -125 14 13 45 162 37 170 -7 7 -16
-10 -26 -45z"/>
<path d="M2495 2970 c28 -10 57 -18 65 -18 8 0 -7 8 -35 18 -27 10 -57 18 -65
18 -8 0 8 -8 35 -18z"/>
<path d="M2759 2773 c-36 -39 -41 -59 -21 -82 22 -24 83 -63 65 -40 -7 8 -13
45 -15 83 l-3 67 -26 -28z"/>
<path d="M3675 3950 c10 -11 20 -20 23 -20 3 0 -3 9 -13 20 -10 11 -20 20 -23
20 -3 0 3 -9 13 -20z"/>
<path d="M5496 3903 c-3 -10 -16 -34 -29 -53 l-25 -36 84 -44 c78 -41 100 -60
73 -60 -6 0 -46 20 -90 44 l-78 44 -21 -32 c-20 -34 -62 -140 -74 -187 -5 -25
-2 -28 42 -42 27 -9 55 -19 64 -22 10 -4 17 1 21 14 8 30 26 26 24 -6 -2 -24
4 -29 63 -49 36 -13 68 -23 72 -23 3 -1 14 21 23 49 16 47 16 50 -5 77 -18 25
-19 33 -9 62 7 21 9 59 5 105 -7 71 -7 71 -64 123 -31 29 -60 52 -63 53 -4 0
-9 -8 -13 -17z"/>
<path d="M5682 3823 c-32 -4 -33 -6 -28 -41 10 -62 9 -116 -2 -142 -8 -20 -6
-29 11 -48 21 -22 21 -24 5 -84 -10 -34 -16 -63 -15 -65 6 -5 123 -33 140 -33
18 0 19 5 13 48 -3 26 -10 97 -16 157 -5 61 -12 134 -16 163 -6 57 -3 56 -92
45z"/>
<path d="M5302 3498 c-17 -28 -94 -282 -104 -341 -3 -16 12 -22 92 -42 227
-56 281 -67 287 -62 8 9 31 201 35 296 l3 83 -63 20 c-61 18 -65 18 -83 2 -10
-9 -19 -24 -19 -32 0 -32 -22 -142 -29 -142 -12 0 -1 132 14 171 14 36 13 37
-13 47 -29 11 -93 32 -98 32 -1 0 -11 -15 -22 -32z"/>
<path d="M5636 3348 c-6 -64 -4 -76 14 -100 16 -21 19 -37 15 -62 -8 -41 -2
-44 93 -38 l74 4 -7 87 c-10 145 -12 151 -44 151 -15 0 -50 7 -77 15 -27 8
-52 15 -55 15 -3 0 -9 -32 -13 -72z"/>
<path d="M5617 3197 c-6 -47 -4 -52 18 -44 19 8 21 73 1 80 -10 4 -15 -6 -19
-36z"/>
<path d="M5606 3108 c-10 -38 -7 -66 8 -71 14 -5 26 30 26 74 0 27 -26 24 -34
-3z"/>
<path d="M5654 3083 c-7 -45 -1 -63 22 -63 8 0 14 -4 14 -10 0 -5 -11 -10 -25
-10 -24 0 -25 -3 -25 -60 l0 -61 63 6 c34 3 82 8 105 11 l44 5 -7 107 c-4 59
-10 111 -12 115 -3 4 -43 7 -89 5 l-83 -3 -7 -42z"/>
<path d="M5180 3110 c0 -9 36 -88 45 -98 1 -1 15 3 29 10 22 10 26 16 21 37
-3 14 -12 31 -18 37 -18 17 -77 28 -77 14z"/>
<path d="M5324 3003 l42 -95 82 -3 c45 -2 90 -6 101 -10 25 -8 28 -1 32 69 l4
60 -90 23 c-93 23 -104 22 -167 -14 -5 -2 -8 0 -8 6 0 6 12 17 28 25 15 8 23
15 17 16 -5 0 -26 4 -46 9 l-37 8 42 -94z"/>
<path d="M5264 3002 l-31 -17 28 -63 28 -63 31 16 c16 8 30 19 29 23 0 4 -13
33 -27 64 l-27 57 -31 -17z"/>
<path d="M5606 2999 c-11 -53 -11 -109 0 -109 14 0 27 111 14 124 -5 5 -11 -1
-14 -15z"/>
<path d="M5327 2858 c-33 -12 -30 -36 12 -83 14 -16 28 -34 32 -38 3 -4 15 -4
27 0 20 8 20 8 -6 70 -15 35 -29 62 -32 62 -3 0 -18 -5 -33 -11z"/>
<path d="M5632 1921 c-8 -5 -12 -21 -10 -42 l4 -34 17 37 c23 51 21 59 -11 39z"/>
</g>
</svg>
