<?xml version="1.0" standalone="no"?>
<!DOCTYPE svg PUBLIC "-//W3C//DTD SVG 20010904//EN"
 "http://www.w3.org/TR/2001/REC-SVG-20010904/DTD/svg10.dtd">
<svg version="1.0" xmlns="http://www.w3.org/2000/svg"
 width="800.000000pt" height="800.000000pt" viewBox="0 0 800.000000 800.000000"
 preserveAspectRatio="xMidYMid meet">
<metadata>
Created by potrace 1.16, written by Peter Selinger 2001-2019
</metadata>
<g transform="translate(0.000000,800.000000) scale(0.100000,-0.100000)"
fill="#000000" stroke="none">
<path d="M0 5199 c0 -2237 3 -2800 13 -2796 6 3 122 52 257 110 227 96 252
105 330 111 211 16 316 30 333 41 12 8 15 15 8 20 -6 3 -11 2 -11 -3 0 -5 -9
-12 -20 -15 -13 -3 -20 0 -20 9 0 8 7 14 15 14 18 0 19 12 3 28 -9 9 -9 12 4
12 22 0 70 -48 62 -61 -5 -9 7 -10 43 -7 42 4 49 2 50 -14 1 -10 -2 -16 -7
-13 -8 5 -338 -16 -485 -31 -45 -5 -122 -33 -317 -116 l-258 -110 0 -873 0
-872 45 -13 c28 -8 45 -18 45 -28 0 -10 -4 -12 -12 -5 -7 6 -28 15 -45 21
l-33 11 0 -310 0 -309 149 0 150 0 27 38 c15 20 44 55 64 77 34 37 120 167
120 180 0 4 -56 33 -125 66 -69 32 -125 64 -125 69 0 6 2 10 5 10 3 0 63 -29
135 -65 l129 -65 69 78 c177 197 202 227 192 230 -18 6 -10 24 9 19 13 -3 31
9 60 39 23 24 43 44 46 44 16 0 -3 -28 -67 -98 -210 -228 -315 -350 -364 -425
-31 -45 -70 -98 -89 -117 -18 -19 -38 -45 -44 -58 l-12 -22 865 0 864 0 21 62
c11 33 56 122 100 197 147 254 151 264 171 430 21 165 31 205 60 236 11 11 28
46 39 77 11 32 31 74 45 95 14 21 26 43 26 50 0 7 7 13 15 13 21 0 19 -5 -15
-65 -17 -30 -39 -79 -50 -111 -11 -32 -31 -70 -44 -84 -27 -29 -41 -83 -57
-235 -15 -139 -39 -193 -210 -485 -21 -36 -47 -91 -58 -123 l-20 -57 2960 0
2959 0 0 4000 0 4000 -4000 0 -4000 0 0 -2801z m310 2631 c21 -13 1 -31 -27
-24 -13 4 -20 11 -16 20 6 16 22 18 43 4z m495 -190 c1 -14 6 -58 9 -97 4 -44
3 -73 -2 -73 -5 0 -12 30 -16 68 -4 37 -9 82 -12 101 -4 23 -2 32 7 29 6 -2
13 -15 14 -28z m450 -265 c0 -5 -67 -23 -150 -39 -98 -19 -154 -35 -162 -45
-9 -11 -12 -12 -13 -3 0 9 -13 11 -52 6 -90 -11 -29 21 77 40 50 9 128 25 175
35 90 21 125 22 125 6z m-305 -141 c0 -8 -4 -14 -10 -14 -5 0 -10 9 -10 21 0
11 5 17 10 14 6 -3 10 -13 10 -21z m10 -61 c0 -22 -2 -25 -10 -13 -13 20 -13
40 0 40 6 0 10 -12 10 -27z m600 -257 c0 -6 18 -30 40 -51 24 -23 40 -48 39
-60 -3 -39 1 -48 37 -82 l36 -34 -17 -52 c-13 -36 -19 -95 -23 -197 -2 -80 -9
-149 -14 -155 -17 -16 1 313 18 347 20 38 18 46 -17 79 -21 19 -33 41 -36 68
-4 28 -16 50 -44 77 -24 23 -39 47 -39 62 0 13 4 20 10 17 6 -3 10 -12 10 -19z
m1330 -85 c57 -53 135 -89 161 -73 28 18 34 15 14 -8 -10 -11 -24 -20 -32 -20
-24 0 -133 60 -145 80 -7 11 -18 20 -24 20 -6 0 -19 9 -29 20 -34 38 10 23 55
-19z m740 -411 c0 -5 -4 -10 -9 -10 -6 0 -13 5 -16 10 -3 6 1 10 9 10 9 0 16
-4 16 -10z m-1492 -27 c14 -22 13 -23 -21 -23 -40 0 -70 26 -46 41 22 14 50 6
67 -18z m786 -2 c-4 -9 -9 -29 -12 -44 -6 -36 -38 -33 -34 3 1 14 7 27 12 28
6 2 8 8 4 13 -9 14 5 29 22 22 10 -3 13 -12 8 -22z m-1882 -147 c13 8 21 7 30
-2 9 -9 7 -12 -12 -12 -13 0 -20 -3 -16 -7 4 -5 12 -8 17 -8 18 0 9 -20 -11
-23 -11 -2 -20 2 -20 9 0 10 -3 10 -12 1 -21 -21 -48 -14 -48 11 0 31 8 37 33
28 13 -5 29 -4 39 3z m1488 -8 c0 -8 -8 -14 -17 -14 -10 1 -28 -2 -40 -6 -27
-9 -31 8 -5 23 26 15 62 13 62 -3z m-1776 -18 c-23 -68 -121 -424 -118 -427 2
-2 90 -14 196 -27 179 -21 211 -22 423 -13 127 5 293 15 369 23 l139 14 103
103 c57 57 104 109 104 116 0 7 -18 26 -40 44 -21 17 -38 35 -37 39 1 4 -33
35 -76 69 -122 97 -82 84 50 -16 l118 -89 75 16 c86 18 439 27 480 12 14 -5
37 -12 52 -16 24 -6 27 -3 33 35 5 30 11 39 22 35 43 -17 63 -18 69 -2 8 21
26 9 20 -12 -3 -10 -7 -34 -10 -54 -5 -30 -3 -38 9 -38 8 0 24 -9 34 -19 25
-25 92 -45 102 -30 8 13 198 -40 262 -74 22 -11 57 -21 76 -22 54 -1 303 -84
298 -98 -5 -15 -14 -14 -102 11 -38 11 -108 30 -155 43 -47 13 -88 27 -91 31
-3 4 -18 10 -35 12 -16 2 -45 11 -64 19 -19 8 -78 25 -130 37 -52 12 -131 33
-176 46 -135 40 -126 42 -146 -40 -21 -89 -22 -83 2 -89 21 -5 18 -37 -4 -37
-33 -1 -48 -33 -82 -171 -19 -79 -32 -149 -30 -156 8 -20 64 -16 97 8 28 20
34 20 186 9 329 -23 544 -48 543 -62 0 -12 2 -12 -90 1 -47 6 -201 20 -344 31
-257 19 -259 19 -284 0 -13 -11 -32 -20 -41 -20 -9 0 -22 -4 -30 -9 -19 -12
12 -38 187 -158 73 -50 129 -94 123 -97 -5 -4 -87 46 -180 109 -94 64 -175
113 -181 110 -15 -9 -12 110 5 180 22 91 22 91 -37 98 -59 7 -76 18 -287 183
-74 57 -140 104 -146 104 -6 0 -56 -43 -111 -95 l-99 -96 55 6 c30 3 72 8 93
11 22 4 37 2 37 -5 0 -11 -29 -17 -135 -27 l-70 -6 -100 -96 c-55 -53 -99
-100 -98 -104 2 -4 -5 -9 -15 -12 -9 -4 -55 -44 -101 -91 -46 -47 -87 -83 -89
-80 -3 3 9 20 27 39 23 24 29 35 19 38 -8 4 4 20 35 47 26 24 47 51 47 62 0
12 7 19 20 19 11 0 20 5 20 10 0 6 8 13 18 17 9 3 49 37 88 75 81 77 85 73
-68 58 -54 -5 -205 -14 -335 -20 -224 -9 -249 -8 -433 14 -107 13 -195 23
-196 22 0 0 -33 -118 -73 -261 -93 -334 -91 -329 -103 -317 -5 5 -5 18 1 33
10 22 40 127 207 719 37 129 71 250 76 268 5 17 14 32 19 32 6 0 7 -9 3 -22z
m2016 -25 c0 -10 -5 -25 -10 -33 -9 -13 -12 -12 -25 4 -22 29 -18 46 10 46 17
0 25 -5 25 -17z m1932 -105 c7 -20 -7 -65 -15 -51 -4 7 -14 10 -21 7 -22 -8
-30 29 -10 43 23 16 41 17 46 1z m-622 -58 c0 -5 -9 -10 -19 -10 -11 0 -23 5
-26 10 -4 6 5 10 19 10 14 0 26 -4 26 -10z m-3544 -54 c19 -19 14 -39 -11 -48
-19 -6 -18 -6 3 -7 27 -1 28 -20 6 -68 -11 -22 -20 -30 -24 -22 -5 7 -18 9
-34 5 -21 -5 -26 -3 -26 13 0 11 -4 22 -9 26 -6 3 -9 14 -8 25 1 15 9 20 29
20 23 0 28 5 34 35 7 38 17 43 40 21z m-61 -159 c33 -8 72 -18 88 -21 15 -4
27 -10 27 -15 0 -5 -39 0 -87 10 -114 25 -123 28 -123 40 0 6 8 8 18 5 9 -3
44 -11 77 -19z m3211 -24 c-6 -15 -9 -15 -16 -3 -6 9 -5 17 3 22 16 10 21 2
13 -19z m-95 -42 c24 -11 47 -17 51 -15 4 3 26 -1 48 -7 33 -10 39 -16 34 -32
-4 -14 -2 -18 7 -15 8 3 37 -3 64 -13 28 -11 55 -19 61 -19 18 0 126 -51 120
-57 -2 -3 -50 11 -106 31 -56 20 -111 36 -122 36 -12 0 -29 6 -37 14 -9 8 -50
28 -91 46 -73 30 -106 50 -83 50 6 0 30 -9 54 -19z m-899 -32 c36 -23 48 -39
29 -39 -4 0 -25 11 -45 25 -20 14 -43 25 -51 25 -22 0 -45 11 -40 20 8 12 66
-5 107 -31z m1507 -196 c138 -53 148 -55 189 -44 97 26 113 21 374 -114 134
-69 263 -131 288 -137 25 -6 47 -14 50 -18 3 -4 12 -10 20 -13 8 -3 -9 -6 -38
-6 -50 -1 -73 9 -318 134 -158 81 -275 135 -292 135 -16 0 -49 -6 -74 -14
l-46 -13 -174 69 c-267 107 -251 123 21 21z m-2299 -16 c0 -56 -14 -54 -22 3
-6 40 -1 63 13 54 5 -3 9 -28 9 -57z m-666 21 c7 -37 -3 -51 -35 -46 -43 6
-39 78 4 78 19 0 26 -7 31 -32z m2016 -123 c0 -9 -9 -15 -24 -15 -13 0 -26 7
-30 15 -4 11 2 15 24 15 20 0 30 -5 30 -15z m-85 -10 c0 -5 -15 -11 -32 -13
-25 -3 -33 1 -33 13 0 12 8 16 33 13 17 -2 32 -7 32 -13z m-1995 -150 c0 -9
-142 -76 -148 -71 -7 8 -6 9 63 44 57 29 85 38 85 27z m1149 -76 c22 -19 38
-36 36 -38 -3 -2 -20 10 -40 28 -47 41 -77 47 -138 28 -63 -20 -74 -15 -15 7
61 22 109 14 157 -25z m-309 21 c13 -9 13 -10 0 -10 -8 0 -22 5 -30 10 -13 9
-13 10 0 10 8 0 22 -5 30 -10z m309 -53 c34 -29 37 -30 115 -24 65 4 73 3 41
-5 -22 -5 -61 -8 -88 -6 -26 2 -47 2 -47 1 0 -1 10 -21 21 -44 22 -40 23 -41
65 -34 47 7 60 -3 40 -30 -22 -30 -8 -55 29 -55 27 0 35 -5 45 -30 14 -34 16
-35 50 -15 44 25 55 19 78 -47 29 -82 28 -103 -10 -217 -29 -87 -32 -110 -36
-243 -2 -94 -8 -148 -14 -148 -7 0 -9 51 -6 155 4 141 3 155 -12 155 -23 0
-30 -44 -30 -197 0 -105 2 -123 16 -123 11 0 13 -6 9 -19 -4 -13 0 -21 12 -25
10 -3 116 -7 235 -8 120 -2 218 -6 218 -10 0 -5 7 -8 15 -8 8 0 15 -4 15 -10
0 -5 -32 -7 -77 -4 -182 11 -582 21 -622 15 l-45 -6 65 -54 c35 -29 74 -58 86
-64 13 -6 23 -18 23 -27 0 -10 9 -28 20 -41 l19 -24 2 35 c0 19 0 51 -1 71 -1
29 3 37 19 42 19 5 21 1 21 -49 0 -53 0 -54 30 -54 l30 0 0 64 c0 36 5 68 10
71 6 4 10 -20 10 -66 l0 -72 148 6 c81 4 240 10 355 13 l207 7 0 23 c0 19 5
24 24 24 21 0 24 6 29 53 4 28 9 123 13 210 l7 157 -254 0 c-253 0 -419 8
-419 19 0 3 151 5 335 3 l335 -3 0 49 c0 27 -7 69 -15 92 -8 23 -15 66 -15 94
l0 52 -215 147 c-119 81 -220 145 -226 142 -5 -4 -8 -1 -7 7 2 7 -5 12 -14 12
-10 -1 -16 2 -13 6 3 4 -18 23 -45 41 -47 32 -61 49 -41 49 5 0 31 -15 57 -33
27 -18 114 -78 194 -132 80 -54 217 -148 305 -209 88 -60 176 -115 195 -122
35 -12 52 -41 31 -53 -7 -5 -6 -82 4 -256 8 -138 15 -257 15 -267 0 -12 -14
-18 -61 -23 -40 -5 -65 -3 -72 4 -8 8 -1 11 25 11 20 0 49 4 63 10 24 9 26 13
21 52 -4 24 -11 137 -16 251 -7 129 -15 216 -23 228 -6 12 -45 43 -84 70 l-73
50 0 -34 c0 -19 7 -56 15 -83 10 -33 15 -93 15 -181 l0 -133 24 0 c39 0 86
-12 81 -21 -3 -4 -27 -5 -53 -2 l-48 5 -3 -53 c-1 -30 -6 -83 -12 -118 -5 -36
-9 -103 -8 -150 0 -47 -2 -93 -6 -103 -5 -13 4 -18 52 -28 81 -17 186 -54 191
-68 2 -8 -16 -5 -50 9 -45 18 -165 49 -190 49 -5 0 -8 -15 -8 -32 0 -18 -15
-76 -34 -130 l-33 -96 80 -34 c44 -18 82 -39 85 -46 2 -7 -31 3 -79 23 -46 19
-88 35 -93 35 -24 0 16 -21 113 -60 108 -43 211 -105 211 -128 0 -15 -7 -12
-70 34 -25 17 -84 48 -132 67 l-87 35 -106 -267 c-59 -146 -109 -268 -111
-270 -21 -22 1 44 91 267 58 144 105 265 105 270 0 7 -446 195 -535 225 -16 5
-46 18 -65 27 -19 10 -66 30 -105 45 -38 15 -79 35 -89 44 -18 15 -19 14 -12
-34 3 -27 8 -68 9 -90 2 -22 7 -73 12 -114 6 -55 5 -72 -3 -67 -7 4 -12 18
-12 31 0 14 -6 57 -12 96 l-13 72 -240 -6 -241 -6 -13 22 c-12 19 -12 20 0 11
10 -7 90 -9 257 -6 l244 5 -7 61 c-10 87 -44 136 -172 245 l-62 52 -3 -63 c-2
-36 -7 -62 -13 -60 -5 2 -8 17 -7 34 5 46 -7 98 -21 93 -23 -8 -220 -25 -226
-20 -12 13 27 24 113 30 138 11 136 9 136 105 0 47 4 80 10 80 6 0 10 -34 10
-81 l0 -82 53 7 c28 3 79 6 112 6 l60 0 -3 122 c-4 140 9 245 44 337 27 70 30
114 12 172 -9 30 -15 38 -28 34 -13 -4 -24 5 -38 30 -15 24 -29 35 -45 35 -12
0 -28 5 -33 10 -19 19 -44 0 -44 -34 -1 -40 -23 -71 -46 -62 -10 4 -21 1 -25
-6 -12 -19 -62 11 -56 34 3 9 -1 23 -9 29 -12 10 -10 18 10 55 14 24 20 44 15
44 -5 0 -9 6 -9 14 0 8 -6 17 -12 20 -10 5 -10 7 0 12 20 9 14 26 -8 19 -11
-4 -20 -2 -20 4 0 10 14 15 33 12 4 0 7 4 7 10 0 16 -43 0 -59 -22 -7 -10 -20
-19 -28 -19 -9 0 -13 -6 -10 -14 7 -17 -18 -41 -32 -32 -13 8 -3 34 21 58 18
18 18 19 1 42 l-18 24 -22 -20 -22 -20 -47 26 c-25 14 -52 26 -59 26 -7 0 -15
8 -17 18 -5 17 -1 17 53 9 33 -6 59 -14 59 -20 0 -6 6 -4 13 5 6 9 35 23 62
31 57 16 79 10 134 -36z m356 43 c-3 -5 -16 -10 -28 -10 -18 0 -19 2 -7 10 20
13 43 13 35 0z m-707 -7 c-9 -2 -21 -18 -27 -35 -6 -17 -14 -29 -17 -26 -11
11 26 68 44 67 15 -1 15 -2 0 -6z m105 0 c-7 -2 -21 -2 -30 0 -10 3 -4 5 12 5
17 0 24 -2 18 -5z m544 -9 c-3 -3 -12 -4 -19 -1 -8 3 -5 6 6 6 11 1 17 -2 13
-5z m-44 -11 c-7 -2 -19 -2 -25 0 -7 3 -2 5 12 5 14 0 19 -2 13 -5z m-63 -13
c-14 -4 -36 -8 -50 -8 -22 0 -22 1 5 8 17 4 39 8 50 8 16 0 15 -2 -5 -8z m133
3 c-7 -2 -19 -2 -25 0 -7 3 -2 5 12 5 14 0 19 -2 13 -5z m-63 -13 c-14 -4 -34
-8 -45 -8 -16 0 -15 2 5 8 14 4 34 8 45 8 16 0 15 -2 -5 -8z m-173 -6 c-3 -3
-12 -4 -19 -1 -8 3 -5 6 6 6 11 1 17 -2 13 -5z m-1641 -118 c-5 -30 -42 -88
-100 -160 -26 -31 -46 -59 -46 -64 0 -4 30 -38 68 -74 64 -64 80 -73 352 -204
157 -76 303 -150 325 -164 22 -15 87 -47 145 -70 105 -42 137 -60 110 -60 -24
0 -213 81 -255 110 -22 15 -173 91 -335 169 -281 136 -298 145 -363 209 l-68
67 -25 -29 c-14 -15 -28 -26 -31 -23 -3 4 19 34 48 69 30 34 48 59 42 54 -8
-4 -13 -2 -13 4 0 14 132 189 143 190 4 0 5 -11 3 -24z m1394 -37 c0 -4 -9
-13 -20 -19 -17 -9 -20 -8 -20 8 0 10 3 21 6 25 8 8 34 -3 34 -14z m-810 -29
c0 -6 -15 -11 -32 -11 -18 -1 -55 -3 -83 -4 -27 -1 -81 -7 -120 -13 -38 -6
-72 -9 -74 -6 -11 10 25 24 64 25 22 0 49 4 60 9 28 11 185 11 185 0z m-391
-26 c9 -9 -5 -12 -31 -7 -16 3 -28 10 -28 15 0 9 49 3 59 -8z m61 -4 c0 -5 -9
-10 -20 -10 -11 0 -20 5 -20 10 0 6 9 10 20 10 11 0 20 -4 20 -10z m-16 -111
c29 -23 37 -79 11 -79 -8 0 -15 -9 -15 -19 0 -11 -4 -23 -10 -26 -6 -4 -10 6
-10 24 0 18 7 34 18 40 21 12 8 40 -26 56 -12 5 -22 13 -22 17 0 15 27 8 54
-13z m1373 -13 c-3 -8 -9 -30 -12 -49 -6 -29 -10 -34 -28 -29 -42 10 -68 52
-32 52 8 0 20 9 27 20 15 23 53 28 45 6z m3464 -3 c13 -16 12 -17 -3 -4 -10 7
-18 15 -18 17 0 8 8 3 21 -13z m-1902 -95 c-16 -39 -61 -58 -139 -58 -33 0
-77 -7 -97 -15 -20 -8 -38 -13 -41 -11 -10 11 12 25 58 36 38 9 50 16 50 31 0
10 5 19 11 19 6 0 9 -9 6 -20 -5 -18 0 -20 36 -20 65 0 93 19 112 75 5 13 9
16 12 7 3 -7 -1 -27 -8 -44z m-2321 -17 c-2 -23 0 -41 4 -41 5 0 8 -4 8 -10 0
-5 -13 -10 -30 -10 -16 0 -30 5 -30 10 0 6 7 10 15 10 11 0 15 12 15 52 0 38
3 49 11 41 6 -6 10 -30 7 -52z m-28 19 c0 -28 -2 -30 -40 -30 -29 0 -40 4 -40
15 0 11 8 13 30 9 26 -6 30 -4 30 15 0 11 5 21 10 21 6 0 10 -13 10 -30z m880
5 c0 -20 -5 -25 -24 -25 -30 0 -42 16 -26 35 21 25 50 19 50 -10z m-2138 -10
c0 -14 1 -30 2 -37 1 -6 -5 -13 -11 -15 -9 -3 -13 8 -13 36 0 44 19 58 22 16z
m1212 -80 c-7 -17 -20 -20 -28 -6 -7 10 3 21 20 21 8 0 11 -6 8 -15z m4386 -5
c0 -5 -4 -10 -9 -10 -6 0 -12 -15 -14 -32 -3 -29 -4 -27 -5 10 -2 31 2 42 13
42 8 0 15 -4 15 -10z m19 -194 l-2 -31 -4 30 c-3 17 -10 37 -16 45 -10 13 -10
13 6 1 10 -8 16 -25 16 -45z m-1959 -25 c0 -9 -95 -21 -168 -21 -67 0 -40 18
33 23 121 7 135 7 135 -2z m-1914 -46 c0 -32 -3 -35 -28 -35 l-29 0 28 35 c15
19 28 35 29 35 0 0 0 -16 0 -35z m1692 18 c-6 -35 -68 -37 -68 -2 0 15 7 19
35 19 29 0 35 -4 33 -17z m609 1 c14 -4 20 -11 16 -21 -4 -9 2 -16 16 -20 14
-3 20 -11 17 -20 -3 -7 -20 -61 -37 -118 -18 -58 -36 -105 -41 -105 -10 0 -6
16 31 136 16 49 24 91 19 93 -5 1 -11 1 -12 0 -14 -15 -133 -426 -126 -433 5
-5 20 29 35 80 26 86 45 125 45 93 0 -9 -12 -53 -26 -98 -14 -45 -24 -84 -22
-85 1 -2 127 -44 278 -94 265 -87 281 -90 435 -107 88 -9 299 -34 470 -56 170
-21 311 -39 312 -39 2 0 3 -4 3 -9 0 -6 -15 -8 -32 -5 -124 17 -604 77 -753
93 -177 20 -184 21 -450 109 -223 73 -271 86 -279 74 -4 -8 -21 -49 -37 -92
l-28 -79 92 -64 c51 -35 189 -128 307 -207 216 -143 265 -180 242 -180 -7 0
-127 77 -267 170 l-255 170 0 -42 c0 -42 -21 -78 -47 -78 -8 0 -13 12 -13 35
0 19 -4 35 -10 35 -5 0 -10 7 -10 15 0 8 5 15 10 15 6 0 10 6 10 14 0 8 10 16
22 18 18 2 12 9 -35 40 l-56 38 -27 -35 -26 -34 64 -93 c36 -51 91 -131 123
-178 32 -47 67 -95 78 -107 10 -12 16 -26 12 -33 -3 -6 -84 101 -182 242 -96
139 -181 260 -189 269 -11 12 -11 21 -2 47 7 18 16 32 21 32 14 0 19 -28 8
-48 -9 -17 -4 -32 25 -70 1 -2 15 4 31 13 23 14 33 34 59 121 l31 104 -54 15
c-29 9 -53 20 -53 25 0 5 21 3 48 -5 26 -8 52 -15 57 -15 6 0 21 35 34 78 13
42 41 132 62 198 46 144 47 154 15 154 -14 0 -28 5 -32 12 -5 8 3 9 29 5 20
-3 39 -1 42 4 4 5 -1 9 -9 9 -8 0 -18 5 -21 10 -7 11 1 12 32 4z m-322 -14
c-3 -5 -26 -10 -51 -10 -24 0 -44 5 -44 10 0 6 23 10 51 10 31 0 48 -4 44 -10z
m875 -14 c0 -16 -14 -36 -26 -36 -14 0 -19 22 -7 33 7 8 33 10 33 3z m-4045
-73 c-2 -10 -4 -21 -4 -25 -1 -5 -7 -8 -15 -8 -8 0 -16 -6 -19 -12 -3 -9 -7
-7 -12 5 -5 12 0 23 16 37 30 24 38 25 34 3z m2320 -5 c7 -7 -24 -9 -105 -4
-63 3 -139 6 -167 6 -33 0 -53 4 -53 11 0 15 310 3 325 -13z m703 -23 c1 -1
-5 -16 -14 -34 -12 -23 -22 -31 -38 -29 -11 1 -27 -2 -35 -6 -11 -7 -13 -4 -9
12 4 13 1 22 -5 22 -8 0 -7 4 2 9 9 6 10 11 2 15 -24 15 2 25 47 19 26 -3 48
-7 50 -8z m2090 -37 c-2 -34 1 -43 15 -46 23 -5 22 -22 -2 -22 -27 0 -30 8
-24 63 7 58 16 62 11 5z m-5010 16 c24 -7 29 -35 13 -78 -12 -29 7 -79 26 -71
7 2 15 0 18 -4 3 -5 -2 -11 -10 -15 -10 -4 -15 -20 -15 -50 0 -25 -5 -48 -11
-52 -7 -4 -7 -9 -2 -13 12 -8 -3 -154 -20 -194 -15 -33 -33 -40 -115 -41 -52
-1 -61 2 -56 14 4 8 8 31 10 50 1 19 5 46 7 60 3 14 19 104 37 200 17 96 33
181 35 188 5 13 45 16 83 6z m4301 -58 c-10 -12 -49 21 -49 41 0 11 8 8 29 -9
17 -13 25 -27 20 -32z m-3442 8 c49 -17 90 -25 119 -22 29 2 45 -1 49 -9 3
-10 -12 -13 -58 -12 -68 0 -207 45 -215 69 -3 9 1 11 12 7 10 -4 51 -19 93
-33z m4118 -41 c0 -56 1 -58 27 -59 22 -1 26 2 18 12 -8 9 -7 14 1 20 28 17
52 -59 27 -84 -9 -9 -8 -12 4 -12 9 0 18 -12 22 -31 9 -46 7 -71 -4 -64 -15 9
-12 -8 6 -33 14 -21 14 -25 -1 -48 -10 -16 -22 -23 -33 -20 -24 8 -41 -6 -38
-29 2 -11 -4 -31 -12 -44 -15 -22 -16 -22 -23 -5 -7 18 -8 7 -11 -131 0 -22
-3 -34 -5 -27 -8 20 -23 14 -23 -10 0 -16 -3 -19 -11 -11 -15 15 -27 177 -18
228 5 22 8 73 9 114 0 43 8 102 19 140 11 36 25 85 31 109 6 23 12 42 13 42 1
0 2 -26 2 -57z m-2105 -3 c0 -5 -22 -10 -50 -10 -27 0 -50 5 -50 10 0 6 23 10
50 10 28 0 50 -4 50 -10z m-2447 -40 c5 -19 -18 -48 -29 -37 -9 8 4 57 15 57
5 0 11 -9 14 -20z m2267 -2 c0 -10 -5 -18 -11 -18 -8 0 -10 -18 -5 -58 4 -32
2 -69 -3 -83 -8 -20 -10 -12 -12 41 -2 62 -2 118 0 131 3 15 31 3 31 -13z
m154 7 c-6 -16 -24 -21 -24 -7 0 11 11 22 21 22 5 0 6 -7 3 -15z m-19 -35 c-3
-5 -19 -10 -36 -10 -16 0 -29 5 -29 10 0 6 16 10 36 10 21 0 33 -4 29 -10z
m-2489 -24 c24 -18 8 -38 -24 -30 -21 6 -29 24 -15 37 9 10 17 9 39 -7z m-150
-73 c-3 -8 -6 -17 -6 -19 0 -2 -7 -4 -15 -4 -15 0 -21 31 -9 43 11 11 35 -5
30 -20z m3 -97 c9 -10 8 -16 -4 -26 -17 -14 -45 -7 -45 13 0 29 30 37 49 13z
m3485 -12 c13 -5 24 -44 12 -44 -20 0 -66 25 -66 36 0 15 27 18 54 8z m-2940
-60 c12 -30 6 -44 -17 -44 -20 0 -23 4 -19 30 5 32 26 40 36 14z m321 -24 c-3
-4 -15 -8 -27 -8 -30 0 -331 -60 -364 -72 -13 -5 -93 -21 -176 -35 -241 -41
-244 -42 -277 -82 -37 -44 -63 -47 -296 -36 l-160 8 -52 -28 c-33 -18 -54 -24
-58 -17 -4 6 21 23 62 42 l68 31 166 -13 c92 -6 177 -9 190 -5 13 4 40 23 60
42 36 34 41 35 238 69 111 18 206 36 212 39 5 4 93 24 196 46 102 21 189 41
191 44 8 7 33 -16 27 -25z m-875 -44 c0 -8 3 -21 6 -30 4 -12 0 -16 -15 -16
-24 0 -36 21 -27 45 7 19 36 20 36 1z m1014 -44 c2 -4 1 -14 -4 -22 -7 -11
-12 -12 -21 -3 -6 6 -8 16 -5 22 8 13 23 14 30 3z m1523 -156 c12 -11 -1 -13
-79 -8 -44 2 -78 9 -78 14 0 11 145 6 157 -6z m-1831 -43 c-11 -11 -19 6 -11
24 8 17 8 17 12 0 3 -10 2 -21 -1 -24z m112 26 c-2 -6 -8 -10 -13 -10 -5 0
-11 4 -13 10 -2 6 4 11 13 11 9 0 15 -5 13 -11z m-818 -59 c0 -15 -7 -20 -29
-20 -31 0 -47 13 -36 30 3 6 19 10 36 10 22 0 29 -5 29 -20z m380 4 c0 -8 -4
-13 -8 -10 -4 2 -21 -24 -37 -59 -17 -35 -34 -64 -38 -65 -18 0 37 125 61 139
22 13 22 14 22 -5z m494 -30 c4 -9 5 -19 3 -21 -8 -8 -37 10 -37 23 0 19 26
18 34 -2z m-154 -9 c0 -8 -7 -15 -15 -15 -16 0 -20 12 -8 23 11 12 23 8 23 -8z
m4010 -100 c0 -14 -4 -25 -10 -25 -5 0 -10 11 -10 25 0 14 5 25 10 25 6 0 10
-11 10 -25z m-1935 -45 c3 -5 16 -10 28 -11 12 0 17 -3 11 -5 -9 -4 -8 -16 3
-44 13 -32 13 -42 3 -55 -14 -17 -75 -21 -85 -5 -3 6 -15 10 -26 10 -14 0 -19
7 -19 25 0 14 -4 25 -10 25 -21 0 -8 16 33 42 47 31 53 32 62 18z m923 -143
c2 -12 -3 -17 -17 -17 -12 0 -21 6 -21 13 0 31 32 34 38 4z m738 -119 c-20
-23 -36 -50 -36 -61 0 -10 -20 -44 -43 -75 -46 -60 -77 -148 -77 -219 0 -21
-7 -51 -16 -68 -9 -16 -22 -51 -30 -77 -14 -46 -26 -58 -39 -39 -3 5 -1 12 5
16 5 3 10 13 10 22 0 9 11 40 25 70 14 29 23 58 19 64 -10 16 48 229 61 227
15 -4 60 49 70 82 6 21 71 100 83 100 2 0 -13 -19 -32 -42z m-1082 6 c10 -14
16 -33 14 -42 -2 -12 -9 -7 -26 19 -12 20 -22 39 -22 43 0 15 19 4 34 -20z
m-3155 -123 c35 -81 34 -81 22 -81 -9 0 -71 141 -71 162 0 23 18 -6 49 -81z
m297 -11 c-30 -45 -35 -47 -66 -22 l-22 18 48 32 c61 39 77 28 40 -28z m-408
-92 c19 -30 21 -48 4 -48 -8 0 -52 62 -52 73 0 19 30 3 48 -25z m3753 2 c5 0
9 7 9 16 0 14 3 14 15 4 22 -18 19 -29 -12 -41 -33 -12 -48 1 -37 32 6 20 9
21 12 7 2 -10 8 -18 13 -18z m569 -10 c0 -5 -5 -10 -11 -10 -5 0 -7 5 -4 10 3
6 8 10 11 10 2 0 4 -4 4 -10z m-4237 -75 c4 -9 -5 -22 -22 -35 -36 -25 -41
-25 -41 1 0 37 52 65 63 34z m2771 -16 c-9 -16 -20 -10 -21 12 -2 17 1 18 12
9 8 -7 12 -16 9 -21z m1466 -19 c0 -5 -4 -10 -9 -10 -6 0 -13 5 -16 10 -3 6 1
10 9 10 9 0 16 -4 16 -10z m-4410 -40 c0 -11 -4 -20 -9 -20 -11 0 -22 26 -14
34 12 12 23 5 23 -14z m4240 10 c0 -5 -4 -10 -10 -10 -5 0 -10 5 -10 10 0 6 5
10 10 10 6 0 10 -4 10 -10z m-105 -50 c3 -5 -1 -10 -9 -10 -9 0 -16 5 -16 10
0 6 4 10 9 10 6 0 13 -4 16 -10z m-3988 -138 c7 -4 9 -13 4 -21 -10 -16 -31
-6 -31 15 0 16 9 18 27 6z m3173 -52 c0 -5 -4 -10 -9 -10 -6 0 -13 5 -16 10
-3 6 1 10 9 10 9 0 16 -4 16 -10z m184 -86 c5 -12 2 -15 -10 -10 -8 3 -18 6
-20 6 -3 0 -2 5 1 10 9 15 22 12 29 -6z m-3027 -238 c12 -17 20 -32 17 -35 -8
-8 -274 262 -267 272 5 9 211 -185 250 -237z m811 232 c14 -14 16 -68 3 -68
-13 0 -17 8 -26 48 -7 33 2 41 23 20z m4072 -7 c0 -9 -151 -22 -249 -20 -76 1
-67 6 39 18 102 11 210 13 210 2z m-1000 -71 c0 -5 -7 -10 -15 -10 -8 0 -24
-6 -35 -12 -17 -11 -22 -10 -30 2 -16 26 -11 30 35 30 25 0 45 -4 45 -10z
m-2413 -24 c37 -8 111 -19 163 -26 115 -13 144 -20 133 -31 -15 -14 -375 41
-381 59 -5 15 2 15 85 -2z m383 -243 c0 -44 -12 -34 -28 23 -16 56 -15 61 8
36 13 -13 20 -35 20 -59z m-700 40 c0 -8 -74 -277 -121 -440 -13 -46 -27 -83
-31 -83 -12 0 -11 6 40 180 27 91 59 207 72 258 13 50 27 92 32 92 4 0 8 -3 8
-7z m2555 -53 c3 -5 -1 -10 -9 -10 -9 0 -16 5 -16 10 0 6 4 10 9 10 6 0 13 -4
16 -10z m-3715 -15 c0 -8 -4 -15 -10 -15 -5 0 -10 4 -10 9 0 5 -12 12 -27 14
-23 3 -21 4 10 6 27 1 37 -3 37 -14z m-980 -173 c0 -4 -9 -8 -20 -9 -11 -1
-20 2 -20 8 0 5 9 9 20 9 11 0 20 -4 20 -8z m2626 -267 c3 -14 12 -25 19 -25
7 0 15 -7 19 -15 9 -24 -11 -17 -44 15 -33 32 -38 50 -15 50 8 0 17 -11 21
-25z m-1994 -368 c-18 -17 -32 -26 -32 -19 0 14 52 63 59 56 3 -3 -9 -19 -27
-37z m-62 -53 c0 -14 -313 -315 -324 -310 -6 2 59 74 145 160 139 138 179 172
179 150z m2074 -142 c7 -12 -5 -52 -15 -52 -13 0 -22 27 -15 45 6 16 22 20 30
7z m-2830 -136 c-3 -9 -10 -13 -16 -10 -5 3 -4 12 3 20 15 18 22 13 13 -10z
m2625 -197 c-23 -119 -23 -120 -4 -155 21 -39 77 -90 248 -226 109 -87 158
-140 138 -152 -5 -4 -19 8 -31 24 -12 17 -63 63 -114 101 -142 110 -231 190
-261 237 l-27 42 23 118 c12 64 27 128 32 142 21 52 19 -12 -4 -131z m-2460
120 c17 -6 31 -15 31 -20 0 -13 -10 -11 -50 11 -39 21 -30 26 19 9z m2711
-179 c0 -5 -2 -10 -4 -10 -3 0 -8 5 -11 10 -3 6 -1 10 4 10 6 0 11 -4 11 -10z
m-910 -55 c0 -18 -4 -23 -15 -19 -16 6 -20 26 -8 37 13 14 23 6 23 -18z m1654
-182 c7 -17 -12 -36 -26 -27 -4 3 -8 14 -8 25 0 23 25 25 34 2z"/>
<path d="M2213 6063 c43 -2 110 -2 150 0 40 1 5 3 -78 3 -82 0 -115 -2 -72 -3z"/>
<path d="M2004 6043 c-16 -3 -20 -10 -16 -29 2 -13 11 -24 20 -24 12 0 13 3 4
12 -21 21 -13 31 13 14 24 -16 25 -16 25 9 0 25 -4 26 -46 18z"/>
<path d="M2235 6040 l-160 -5 -3 -26 c-3 -28 0 -31 223 -204 128 -100 111 -97
204 -30 56 40 78 62 71 70 -6 7 -4 25 4 50 8 22 17 61 20 86 l7 46 -39 11
c-22 7 -68 11 -103 10 -35 -1 -136 -5 -224 -8z"/>
<path d="M2493 5746 c-35 -24 -34 -36 3 -36 17 0 25 7 30 25 9 35 4 36 -33 11z"/>
<path d="M1501 5526 l-44 -51 48 47 c27 26 47 49 45 52 -3 2 -25 -19 -49 -48z"/>
<path d="M1190 5535 c0 -5 5 -17 10 -25 5 -8 10 -10 10 -5 0 6 -5 17 -10 25
-5 8 -10 11 -10 5z"/>
<path d="M2190 5150 c0 -5 5 -10 10 -10 6 0 10 5 10 10 0 6 -4 10 -10 10 -5 0
-10 -4 -10 -10z"/>
<path d="M2140 5129 c0 -5 5 -7 10 -4 6 3 10 8 10 11 0 2 -4 4 -10 4 -5 0 -10
-5 -10 -11z"/>
<path d="M2317 5063 c-13 -13 -7 -32 8 -27 8 4 15 12 15 20 0 15 -12 19 -23 7z"/>
<path d="M2331 5021 c-7 -5 -9 -11 -5 -14 5 -3 15 1 22 9 14 16 5 18 -17 5z"/>
<path d="M2395 4990 c3 -5 8 -10 11 -10 2 0 4 5 4 10 0 6 -5 10 -11 10 -5 0
-7 -4 -4 -10z"/>
<path d="M2313 4965 c-6 -14 -7 -25 -2 -25 11 0 22 25 17 39 -1 6 -8 -1 -15
-14z"/>
<path d="M2376 4934 c-4 -10 -1 -14 6 -12 15 5 23 28 10 28 -5 0 -13 -7 -16
-16z"/>
<path d="M2336 4911 c-4 -7 -5 -15 -2 -18 9 -9 19 4 14 18 -4 11 -6 11 -12 0z"/>
<path d="M2613 4882 c-10 -6 -9 -19 2 -56 20 -65 19 -92 -5 -161 -16 -46 -17
-60 -8 -67 22 -14 26 -9 47 61 25 83 26 113 4 180 -17 53 -20 56 -40 43z"/>
<path d="M3610 4666 c0 -9 5 -16 10 -16 6 0 10 4 10 9 0 6 -4 13 -10 16 -5 3
-10 -1 -10 -9z"/>
<path d="M3045 3984 c-176 -6 -332 -13 -347 -13 -16 -1 -28 -6 -28 -12 0 -8
63 -9 218 -4 l217 8 75 -32 c55 -24 96 -34 157 -38 l81 -6 7 46 c8 55 2 67
-33 66 -15 -1 -171 -8 -347 -15z"/>
<path d="M2595 3960 c3 -5 17 -10 31 -10 13 0 24 5 24 10 0 6 -14 10 -31 10
-17 0 -28 -4 -24 -10z"/>
<path d="M2570 3918 c0 -18 45 -58 66 -58 9 0 14 12 14 34 0 32 -2 34 -40 38
-33 3 -40 0 -40 -14z"/>
<path d="M2748 3933 l-78 -4 0 -42 0 -42 78 -29 c42 -16 118 -45 167 -66 181
-77 418 -170 422 -166 11 10 71 197 77 237 6 43 5 47 -16 53 -13 3 -49 6 -80
6 -40 0 -80 9 -133 30 -73 29 -81 30 -218 28 -78 -1 -177 -4 -219 -5z m557
-113 c-4 -6 -85 -10 -210 -10 -125 0 -206 4 -210 10 -4 7 68 10 210 10 142 0
214 -3 210 -10z"/>
<path d="M664 4883 c-15 -20 -23 -33 -16 -29 13 8 56 66 49 66 -3 0 -17 -17
-33 -37z"/>
<path d="M4214 3758 c-20 -64 -39 -105 -62 -130 -18 -20 -28 -39 -23 -42 17
-11 58 55 95 153 38 98 41 111 28 111 -5 0 -21 -42 -38 -92z"/>
<path d="M916 4159 c-10 -50 -7 -59 14 -59 11 0 23 -6 26 -14 3 -8 11 -16 17
-19 8 -3 12 15 14 59 l1 64 -33 0 c-28 0 -33 -4 -39 -31z"/>
<path d="M904 4065 c-8 -33 4 -46 18 -20 11 19 11 19 19 0 7 -19 8 -19 8 1 1
20 -16 44 -31 44 -4 0 -10 -11 -14 -25z"/>
<path d="M915 3989 c-5 -14 -1 -25 12 -34 28 -22 52 -18 59 9 8 34 -2 46 -36
46 -20 0 -31 -6 -35 -21z"/>
<path d="M888 3922 c-19 -20 -37 -139 -19 -128 6 4 11 18 11 31 0 26 20 51 50
60 25 8 26 24 3 41 -22 17 -24 17 -45 -4z"/>
<path d="M966 3904 c-3 -11 -19 -27 -35 -37 -25 -15 -48 -63 -35 -76 2 -2 23
0 46 5 42 9 43 10 46 51 4 50 -11 89 -22 57z"/>
<path d="M850 3748 c0 -19 2 -20 10 -8 13 19 13 30 0 30 -5 0 -10 -10 -10 -22z"/>
<path d="M880 3751 c0 -5 -2 -16 -6 -24 -4 -11 4 -14 33 -13 21 1 37 4 35 8
-1 4 -5 15 -8 23 -7 16 -54 21 -54 6z"/>
<path d="M5966 3975 c-3 -8 -1 -15 4 -15 6 0 10 -7 10 -15 0 -9 9 -15 25 -15
29 0 30 3 9 35 -18 28 -39 32 -48 10z"/>
<path d="M5920 3867 c0 -31 4 -57 9 -57 15 0 19 74 4 95 -12 17 -13 13 -13
-38z"/>
<path d="M5980 3896 c0 -7 -3 -34 -6 -60 l-7 -46 29 15 c16 8 37 15 47 15 21
0 22 23 2 40 -8 7 -15 21 -15 31 0 14 -7 19 -25 19 -14 0 -25 -6 -25 -14z"/>
<path d="M5931 3784 c0 -11 3 -14 6 -6 3 7 2 16 -1 19 -3 4 -6 -2 -5 -13z"/>
<path d="M5910 3730 c0 -5 5 -10 11 -10 5 0 7 5 4 10 -3 6 -8 10 -11 10 -2 0
-4 -4 -4 -10z"/>
<path d="M5904 3684 c3 -9 6 -30 7 -47 0 -30 1 -31 10 -9 10 27 2 72 -13 72
-6 0 -7 -7 -4 -16z"/>
<path d="M3923 3225 c-27 -19 -30 -53 -5 -71 24 -18 82 -18 82 0 0 24 -12 46
-25 46 -6 0 -16 9 -21 20 -8 19 -11 19 -31 5z"/>
<path d="M1635 2861 c-6 -11 9 -23 19 -14 9 9 7 23 -3 23 -6 0 -12 -4 -16 -9z"/>
<path d="M1325 2670 c-3 -6 1 -7 9 -4 18 7 21 14 7 14 -6 0 -13 -4 -16 -10z"/>
</g>
</svg>
