<?xml version="1.0" standalone="no"?>
<!DOCTYPE svg PUBLIC "-//W3C//DTD SVG 20010904//EN"
 "http://www.w3.org/TR/2001/REC-SVG-20010904/DTD/svg10.dtd">
<svg version="1.0" xmlns="http://www.w3.org/2000/svg"
 width="800.000000pt" height="800.000000pt" viewBox="0 0 800.000000 800.000000"
 preserveAspectRatio="xMidYMid meet">
<metadata>
Created by potrace 1.16, written by Peter Selinger 2001-2019
</metadata>
<g transform="translate(0.000000,800.000000) scale(0.100000,-0.100000)"
fill="#000000" stroke="none">
<path d="M0 6756 l0 -1244 36 10 c20 5 38 7 41 4 7 -6 -41 -26 -63 -26 -12 0
-14 -41 -14 -264 0 -201 3 -265 12 -268 10 -4 10 -10 0 -32 -7 -16 -12 -72
-12 -141 l0 -114 53 -15 c185 -52 446 -118 469 -118 16 0 28 -3 28 -7 0 -5 55
-23 123 -40 67 -18 130 -35 140 -37 16 -5 17 11 17 236 0 205 -2 244 -16 265
-10 16 -12 25 -5 25 24 0 30 -51 37 -283 4 -167 10 -241 19 -250 6 -7 80 -30
163 -51 84 -21 152 -43 152 -48 0 -5 -10 -6 -23 -3 -12 4 -30 9 -39 11 -13 4
-19 -3 -24 -23 -12 -58 -16 -65 -25 -56 -6 6 -6 20 1 37 18 49 14 52 -96 80
-58 16 -107 26 -109 24 -6 -6 33 -215 55 -290 20 -66 26 -77 44 -75 13 1 21
-4 21 -13 0 -20 15 -30 43 -30 19 0 22 -4 17 -20 -5 -14 -2 -20 9 -20 9 0 16
-4 16 -9 0 -6 -20 -8 -45 -6 -38 4 -44 2 -39 -13 5 -16 5 -16 -8 0 -8 10 -19
13 -27 9 -21 -13 -2 -58 42 -98 l42 -37 -1 -136 c0 -74 -6 -171 -13 -215 -15
-93 -12 -217 17 -700 11 -181 17 -332 15 -335 -4 -4 -85 -7 -475 -19 -34 -1
-37 -3 -35 -28 2 -23 -3 -28 -23 -31 -22 -2 -23 -1 -7 9 11 6 18 21 17 37 -3
46 -1 50 36 56 l35 7 -2 52 c-3 47 -1 52 21 58 36 10 50 10 50 0 0 -5 -13 -11
-29 -14 -28 -6 -30 -10 -33 -59 -3 -50 -5 -53 -33 -59 -40 -9 175 -11 253 -3
l61 7 4 131 c5 120 10 173 23 234 4 19 11 22 56 22 l51 0 -7 121 c-4 67 -12
132 -17 146 -15 41 -11 292 7 379 12 59 15 112 12 208 l-5 130 -37 32 c-39 34
-55 76 -56 145 0 42 -86 430 -97 439 -9 7 -205 60 -222 60 -7 0 -11 -46 -11
-135 l0 -135 25 0 c21 0 25 -5 25 -29 0 -22 -6 -30 -23 -35 -22 -5 -22 -9 -21
-111 0 -81 -3 -105 -13 -105 -12 0 -18 24 -15 63 1 10 -3 15 -8 12 -6 -3 -10
-2 -10 4 0 5 4 11 9 13 5 2 12 29 16 61 6 49 5 57 -9 57 -18 0 -22 16 -4 22 8
3 13 54 16 164 l4 159 -28 13 c-15 6 -33 12 -40 12 -6 0 -122 29 -256 65 -135
36 -248 65 -252 65 -3 0 -6 -45 -6 -101 0 -76 4 -104 15 -115 8 -9 15 -23 15
-32 -1 -15 -3 -14 -15 2 -13 18 -15 -16 -15 -292 0 -305 0 -312 20 -312 11 0
20 -4 20 -10 0 -5 -7 -10 -15 -10 -27 0 -17 -37 12 -45 27 -6 53 12 66 48 7
19 17 3 11 -18 -9 -33 -49 -56 -77 -46 -22 8 -24 7 -20 -10 3 -10 11 -19 18
-19 7 0 19 -8 26 -17 12 -15 12 -16 -6 -9 -60 24 -55 71 -55 -516 l0 -534 35
4 c34 4 52 32 20 32 -8 0 -15 5 -15 10 0 6 10 10 23 10 12 0 148 41 301 90
154 50 281 90 283 90 2 0 3 -4 3 -8 0 -4 -126 -48 -280 -97 -278 -89 -280 -89
-280 -117 0 -27 -2 -28 -46 -28 l-45 0 3 -42 c2 -24 6 -41 10 -38 11 8 59 -43
53 -58 -7 -18 12 -52 30 -52 8 0 19 -8 24 -18 5 -9 27 -27 49 -40 38 -21 41
-22 51 -5 6 10 11 12 11 6 0 -7 7 -13 15 -13 8 0 15 -5 15 -11 0 -6 -7 -8 -16
-5 -15 6 -15 4 0 -18 13 -21 16 -53 16 -171 0 -101 -3 -145 -11 -145 -8 0 -10
22 -7 71 l5 71 -28 -6 c-23 -4 -29 -2 -29 11 0 23 -9 11 -20 -26 -8 -28 -5
-36 22 -67 43 -48 30 -57 -92 -62 l-100 -4 0 -994 0 -994 4000 0 4000 0 0
4000 0 4000 -440 0 c-437 0 -440 0 -440 -21 0 -13 10 -23 30 -30 39 -14 39
-30 0 -22 l-30 6 0 -79 c0 -76 1 -78 18 -58 9 12 45 34 80 49 l63 28 22 -21
c11 -12 17 -25 13 -29 -4 -4 -14 0 -21 11 -9 11 -20 16 -31 12 -14 -5 -15 -17
-9 -84 4 -42 12 -83 17 -89 6 -8 36 -14 72 -14 79 -2 50 -6 -96 -14 l-118 -7
0 -129 0 -129 68 -2 67 -1 -67 -10 c-49 -7 -68 -14 -68 -25 0 -12 9 -13 44 -9
30 4 60 1 97 -12 30 -11 90 -23 134 -27 90 -10 92 -10 123 0 12 4 22 3 22 -2
0 -5 -9 -12 -20 -15 -13 -3 -20 -14 -21 -29 0 -23 0 -23 -11 -2 -9 19 -24 24
-106 34 -53 7 -113 19 -133 27 -20 8 -54 13 -75 11 -48 -4 -51 -14 -53 -190
l-1 -128 28 11 c15 6 101 14 192 17 l165 7 6 35 6 35 2 -38 1 -37 70 6 c50 5
70 4 70 -5 0 -7 -28 -11 -82 -12 -186 -2 -415 -16 -440 -27 -19 -8 -28 -19
-28 -35 0 -24 8 -28 63 -28 15 0 27 -5 27 -11 0 -5 8 -8 18 -6 12 3 24 -2 31
-15 11 -16 15 -17 22 -6 7 12 14 11 42 -4 19 -10 40 -17 48 -16 21 3 69 -12
69 -22 0 -11 -52 -2 -108 18 -33 12 -47 12 -55 4 -9 -9 -8 -14 3 -21 8 -5 11
-12 7 -16 -4 -4 -20 4 -35 19 -25 24 -33 26 -80 20 -49 -5 -52 -7 -52 -34 0
-26 2 -28 30 -22 19 3 30 1 30 -6 0 -6 -12 -11 -26 -11 l-26 0 6 -127 c5 -98
3 -145 -8 -198 l-16 -70 6 70 c7 83 6 213 -2 273 -6 42 -6 42 -49 42 -23 0
-76 3 -117 6 l-74 7 -18 -47 c-11 -29 -16 -59 -12 -77 3 -16 1 -29 -4 -29 -18
0 -15 82 5 120 20 40 -3 71 -84 114 -75 39 -123 45 -160 20 -18 -13 -36 -15
-81 -10 -51 6 -66 3 -107 -18 -26 -13 -65 -42 -85 -63 -36 -37 -39 -38 -98
-35 -33 2 -60 8 -60 13 0 5 9 9 20 9 22 0 27 24 8 37 -7 4 -21 6 -30 5 -10 -2
-18 2 -18 7 0 6 16 11 35 11 32 0 35 -2 35 -30 0 -28 2 -30 39 -30 34 0 44 5
66 34 37 49 110 78 190 75 45 -2 71 3 89 14 14 10 36 17 50 17 24 0 36 16 36
51 0 10 13 40 29 66 27 44 30 59 37 177 l7 129 -324 -7 c-178 -4 -370 -7 -426
-6 l-102 1 -16 -58 c-11 -37 -26 -66 -43 -80 l-26 -22 -13 29 c-6 17 -16 30
-21 30 -4 0 -18 -21 -31 -47 -12 -26 -26 -42 -29 -36 -4 7 -28 -8 -60 -36
l-54 -47 56 -2 c38 -1 56 3 56 11 0 8 2 9 8 1 4 -6 60 -14 135 -18 l127 -7 0
36 c0 19 5 35 10 35 6 0 10 -18 10 -40 l0 -40 -140 0 -140 0 -2 -122 -2 -123
-6 125 -5 125 -92 -2 c-62 -1 -93 2 -93 9 0 6 33 75 74 154 55 107 70 144 60
148 -34 13 -4 75 37 76 11 0 14 8 11 29 -3 23 -10 30 -34 35 -34 7 -48 1 -48
-20 0 -18 -5 -18 -35 2 -31 20 -32 39 -2 58 25 17 67 11 67 -10 0 -8 4 -14 9
-14 5 0 16 -3 25 -6 13 -5 16 2 16 45 0 48 -2 51 -25 51 -14 0 -25 5 -25 10 0
10 27 15 68 11 14 -1 22 4 22 15 0 9 9 18 20 21 19 5 20 14 20 164 l0 159
-249 0 c-190 0 -251 -3 -255 -12 -5 -10 -7 -10 -12 0 -4 9 -39 12 -127 11 -78
0 -115 -4 -102 -9 19 -8 19 -9 -3 -9 -14 -1 -26 -10 -32 -23 l-9 -23 0 23 c-1
17 -7 22 -26 22 -14 0 -25 5 -25 10 0 6 -8 10 -19 10 -16 0 -19 -11 -24 -82
-10 -127 -10 -134 16 -146 l22 -11 -22 0 c-21 -1 -23 -6 -23 -60 0 -66 6 -75
45 -65 22 5 25 11 21 30 -8 30 6 31 19 2 6 -13 20 -23 35 -24 30 -2 200 -6
218 -5 24 2 2 19 -33 25 -34 7 -35 8 -35 54 0 64 8 88 34 101 18 10 21 19 19
54 -2 32 -1 37 6 22 17 -36 12 -68 -13 -90 -19 -15 -25 -32 -28 -70 l-3 -49
38 -9 c48 -12 48 -30 -3 -86 -23 -25 -40 -54 -40 -67 0 -22 -4 -24 -53 -24
-29 0 -59 -6 -66 -12 -11 -11 -13 -10 -9 2 3 10 21 16 56 18 l52 3 0 55 0 54
-130 0 -130 0 0 -52 c-1 -29 -7 -64 -15 -78 -19 -32 -18 -40 1 -40 12 0 14 -7
9 -32 -4 -18 -11 -38 -16 -44 -13 -16 152 -39 179 -25 25 13 112 15 112 2 0
-18 -135 -26 -244 -15 l-69 6 8 -105 c6 -94 4 -118 -21 -228 -18 -81 -34 -130
-46 -141 -10 -9 -18 -30 -18 -47 0 -17 -4 -31 -10 -31 -5 0 -10 15 -10 34 0
24 7 39 21 50 16 11 24 32 32 90 6 41 9 77 6 79 -2 3 -43 7 -91 11 l-88 7 0
-135 0 -135 33 -4 c17 -2 -2 -4 -43 -4 -64 -1 -70 0 -44 9 l32 10 4 122 c2 66
3 123 0 126 -2 2 -154 5 -338 6 l-334 1 0 -93 c0 -80 2 -93 18 -97 15 -4 15
-5 -1 -6 -26 -1 -16 -22 19 -42 20 -11 35 -13 47 -7 9 5 22 6 27 3 5 -3 11 22
13 57 l3 63 2 -64 c2 -47 6 -67 20 -77 16 -12 16 -13 -4 -14 -11 0 -24 3 -27
6 -4 4 -21 8 -39 9 -18 1 -43 6 -55 10 l-23 7 -2 -148 c-2 -205 0 -195 -37
-232 l-34 -33 5 -209 c3 -132 9 -215 16 -223 7 -7 8 -18 3 -23 -4 -5 -14 -31
-20 -58 -9 -38 -9 -51 0 -56 8 -6 7 -10 -5 -17 -13 -7 -15 -18 -10 -55 6 -45
8 -47 50 -57 23 -6 104 -11 178 -11 94 0 136 -3 136 -11 0 -13 -302 -8 -331 5
-15 7 -16 -9 -15 -158 l1 -166 47 0 c27 0 48 -4 48 -10 0 -5 -22 -10 -50 -10
-49 0 -50 -1 -50 -30 0 -28 3 -30 28 -26 15 2 111 5 213 5 l186 1 36 58 c19
31 31 59 26 60 -16 6 -10 22 9 22 9 0 24 10 31 23 25 40 89 212 80 215 -14 5
-11 22 4 22 8 0 49 93 102 233 48 127 108 284 132 347 24 63 66 174 94 245 59
155 118 275 135 275 8 0 -2 -28 -26 -73 -22 -40 -46 -93 -55 -117 -8 -25 -23
-60 -31 -78 -9 -19 -13 -44 -10 -58 5 -17 2 -24 -8 -24 -15 0 -26 -21 -26 -50
0 -10 -4 -20 -8 -22 -10 -4 -37 -71 -247 -628 -106 -280 -107 -281 -229 -463
l-85 -127 53 0 c53 0 86 19 86 48 0 7 4 12 9 12 5 0 12 14 16 30 5 24 14 32
36 37 16 3 32 10 35 15 3 5 11 5 18 -1 16 -14 74 15 125 61 34 31 41 44 41 75
0 21 5 45 10 53 7 11 10 7 10 -17 0 -32 12 -43 25 -23 3 6 28 10 55 10 67 0
80 7 80 41 0 19 9 38 25 52 14 12 38 34 54 50 35 33 53 34 93 5 27 -18 35 -20
62 -10 18 7 42 12 53 12 35 0 53 11 53 31 0 10 5 19 10 19 7 0 7 6 1 19 -8 14
-7 22 4 31 19 16 21 120 3 120 -10 0 -12 18 -10 65 l4 65 -106 0 c-64 0 -106
4 -106 10 0 6 87 10 240 10 153 0 240 -4 240 -10 0 -6 -50 -10 -130 -10 l-130
0 0 -60 c0 -48 3 -60 15 -60 14 0 15 -10 9 -62 -4 -35 -10 -68 -15 -74 -5 -6
-2 -20 7 -32 13 -19 13 -22 0 -22 -15 0 -32 -18 -24 -26 9 -8 73 19 118 50 51
34 61 36 220 45 112 6 115 7 127 32 19 40 56 59 146 74 92 17 112 14 121 -18
12 -46 11 -47 -94 -47 -93 0 -102 -2 -152 -31 -51 -30 -56 -31 -135 -26 -48 4
-95 2 -113 -4 -28 -10 -30 -14 -30 -64 0 -48 2 -53 25 -59 26 -7 30 -16 40
-103 3 -32 2 -53 -4 -53 -5 0 -13 31 -17 69 -6 66 -8 70 -33 73 -25 3 -26 6
-29 66 -2 34 -6 62 -10 62 -4 0 -30 -15 -57 -33 -50 -33 -114 -57 -153 -57
-11 0 -42 -7 -69 -16 -50 -16 -50 -16 -92 11 l-41 28 -21 -27 c-11 -14 -34
-33 -50 -41 -23 -13 -29 -22 -29 -49 0 -39 -13 -52 -55 -59 -16 -2 52 -5 153
-6 114 0 182 -5 182 -11 0 -6 -32 -10 -75 -10 l-75 0 0 -60 c0 -33 -4 -60 -10
-60 -6 0 -10 27 -10 60 l0 60 -82 0 c-46 0 -100 3 -120 6 -33 6 -38 4 -38 -12
-1 -26 -24 -54 -44 -54 -23 0 -20 -13 9 -40 22 -21 25 -32 25 -92 l0 -68 125
0 c104 0 125 2 125 15 0 8 5 15 10 15 6 0 10 -7 10 -15 0 -13 29 -15 201 -15
l200 0 -4 103 c-3 56 -8 119 -12 140 -4 23 -3 37 3 37 14 0 23 -58 29 -179 l4
-104 100 6 c83 5 99 4 99 -8 0 -19 6 -19 38 3 24 16 59 18 350 21 230 2 322 0
322 -8 0 -8 -93 -11 -317 -11 l-318 0 -40 -25 c-49 -30 -55 -30 -55 -5 0 19
-9 19 -292 19 -203 0 -296 -3 -306 -11 -10 -9 -15 -9 -21 1 -7 10 -70 11 -316
6 l-307 -8 -41 -44 c-34 -36 -46 -44 -67 -39 -33 6 -62 -30 -38 -48 7 -6 12
-19 10 -28 -4 -19 -22 -25 -22 -7 0 6 -7 17 -15 25 -23 23 -53 1 -81 -61 -26
-56 -54 -89 -54 -64 0 7 -8 3 -17 -11 -9 -13 -30 -36 -47 -51 -26 -23 -29 -30
-19 -50 7 -17 7 -43 0 -89 -8 -48 -7 -65 1 -68 17 -5 15 -22 -3 -22 -8 0 -15
-3 -15 -7 0 -5 -9 -60 -20 -123 -11 -63 -20 -116 -20 -116 0 -1 -6 -2 -12 -1
-7 0 -70 -1 -140 -1 l-128 -2 1 -187 c0 -104 3 -182 6 -175 2 6 9 10 14 6 5
-3 9 43 9 110 0 71 4 116 10 116 6 0 10 -52 10 -135 0 -130 1 -135 21 -135 19
0 20 5 17 125 -2 69 0 125 3 125 12 0 17 -62 15 -159 -1 -51 0 -89 2 -82 2 6
22 11 45 11 36 0 45 5 65 33 22 31 22 32 3 47 -30 23 -30 62 2 99 15 18 27 37
27 42 0 5 7 9 15 9 12 0 15 -14 15 -70 0 -83 10 -88 67 -37 41 36 73 52 73 37
0 -6 -4 -10 -8 -10 -5 0 -26 -15 -48 -34 -22 -19 -57 -38 -77 -41 -20 -4 -37
-12 -37 -17 0 -5 -12 -25 -27 -45 -24 -31 -31 -34 -60 -30 -25 4 -33 2 -33 -9
0 -12 37 -14 238 -13 187 1 754 14 845 19 14 1 17 11 17 51 l0 49 -212 1
c-143 1 -196 4 -163 9 28 5 123 9 213 9 l162 1 0 135 c0 83 4 135 10 135 6 0
10 -52 10 -135 l0 -135 60 0 61 0 -7 275 -7 275 24 -1 c13 0 18 -3 12 -6 -14
-5 -18 -309 -6 -460 l6 -83 168 0 169 0 0 -115 c0 -81 3 -115 12 -115 31 0
908 61 945 66 36 4 42 9 46 32 l4 27 2 -27 c1 -27 3 -28 60 -28 l60 0 4 33 c4
29 5 30 12 10 7 -22 13 -23 95 -23 73 0 89 3 94 17 4 9 1 20 -6 25 -10 6 -9 8
4 8 23 0 63 127 46 147 -7 9 -7 13 1 13 6 0 11 9 11 20 0 11 4 20 9 20 4 0 11
23 14 51 4 28 13 56 21 63 8 6 17 21 21 34 6 22 5 22 -84 22 -54 0 -91 4 -91
10 0 6 27 10 60 10 l60 0 0 80 c0 47 4 80 10 80 6 0 10 -33 10 -80 l0 -80 31
0 c28 0 31 -3 25 -24 -3 -13 -9 -31 -12 -40 -4 -11 -1 -16 10 -16 9 0 16 -7
16 -16 0 -10 7 -14 22 -12 11 2 23 -3 25 -9 3 -9 -6 -13 -26 -13 -20 0 -31 5
-31 14 0 16 -22 27 -37 18 -15 -10 -22 -61 -13 -93 5 -17 5 -31 -1 -35 -5 -3
-16 -22 -25 -42 -14 -34 -14 -38 2 -49 17 -12 16 -13 -2 -13 -15 0 -24 -12
-36 -52 -9 -29 -15 -54 -13 -56 1 -2 95 4 209 13 113 8 221 15 241 15 l35 0 0
-55 c0 -30 -4 -55 -10 -55 -5 0 -10 22 -10 49 l0 49 -37 -4 c-92 -10 -470 -34
-535 -34 -40 0 -108 -5 -152 -10 -68 -9 -945 -69 -1241 -86 -49 -3 -114 -7
-142 -10 l-53 -5 0 -271 0 -271 143 7 c78 3 315 11 527 16 235 6 386 14 388
20 6 18 22 10 22 -10 0 -18 -7 -20 -55 -20 -105 0 -860 -21 -895 -25 -19 -2
-56 -4 -82 -4 -46 -1 -48 -2 -48 -31 0 -26 10 -36 78 -81 66 -45 497 -360 572
-418 14 -11 22 -23 18 -26 -4 -4 -24 6 -45 23 -64 50 -425 316 -478 352 -27
18 -94 65 -148 103 l-99 69 -111 -1 c-62 -1 -199 -4 -304 -6 -111 -3 -193 -1
-193 5 0 10 97 15 365 18 104 2 191 5 193 7 2 2 -28 25 -67 51 -62 41 -85 64
-65 64 3 0 45 -27 94 -60 70 -48 94 -60 117 -56 15 2 34 5 41 5 9 1 12 62 12
272 l0 272 -69 -7 c-52 -4 -69 -3 -68 7 0 6 -1 38 -1 70 -2 54 -3 57 -27 57
-19 0 -29 -9 -42 -35 -9 -20 -24 -35 -34 -35 -9 0 -19 -7 -23 -15 -3 -8 -17
-15 -31 -15 -17 0 -29 -8 -37 -25 -9 -21 -18 -25 -55 -25 -42 0 -43 -1 -43
-33 0 -18 -5 -38 -11 -44 -7 -7 2 -13 33 -18 l43 -9 -34 -4 c-26 -3 -31 -6
-20 -13 11 -7 9 -9 -8 -9 -13 0 -23 5 -23 10 0 15 -47 12 -53 -2 -3 -7 -6 -1
-6 15 -1 17 -6 27 -16 27 -8 0 -18 1 -22 2 -5 1 -18 -13 -30 -32 -18 -26 -23
-29 -23 -13 0 11 10 29 23 41 18 17 32 20 70 17 50 -4 67 9 67 53 0 16 10 22
48 28 38 8 48 13 50 32 2 12 9 22 15 21 24 -3 37 1 37 12 0 9 -93 10 -352 4
-194 -4 -362 -9 -373 -12 -11 -3 -62 -4 -112 -4 -76 2 -93 -1 -93 -13 0 -8 12
-19 28 -24 l27 -10 -27 -1 c-27 -1 -28 -2 -28 -63 0 -62 1 -64 64 -144 l64
-81 61 -2 61 -2 0 104 0 104 -70 27 c-38 15 -70 32 -70 37 0 12 -2 13 68 -16
34 -14 64 -25 67 -25 3 0 5 14 5 30 0 42 18 37 22 -6 l3 -36 109 -39 c60 -22
116 -39 124 -39 21 0 193 -100 198 -115 3 -7 16 -16 30 -19 28 -7 184 -115
184 -128 0 -14 -9 -9 -98 55 l-88 63 -147 -4 c-81 -3 -147 -8 -147 -12 0 -4
-18 -15 -40 -24 -38 -15 -40 -18 -40 -61 0 -37 8 -58 40 -106 23 -32 45 -59
51 -59 5 0 9 -6 7 -13 -6 -24 62 -113 144 -187 l82 -75 143 4 c100 2 143 0
143 -8 0 -8 -47 -11 -150 -11 l-150 0 -84 81 c-47 44 -101 105 -122 135 l-37
54 -59 0 c-32 0 -58 4 -58 10 0 6 23 10 50 10 28 0 50 2 50 5 0 3 -16 30 -36
59 -27 40 -35 62 -32 87 3 32 0 35 -35 46 -49 15 -70 8 -91 -29 -10 -16 -31
-34 -47 -40 -28 -10 -29 -12 -29 -73 l0 -64 35 6 c23 4 35 2 35 -6 0 -6 -16
-11 -35 -11 l-35 0 0 -69 0 -68 -92 -7 c-50 -3 -117 -6 -149 -6 l-58 0 -3 197
c-2 109 -2 200 0 202 8 15 12 -27 18 -192 l7 -187 81 0 c66 1 78 3 65 13 -27
21 -30 50 -31 287 l-1 230 -48 0 c-30 0 -49 4 -49 11 0 8 16 10 50 6 40 -5 50
-3 50 8 0 8 -4 15 -10 15 -5 0 -10 8 -10 18 0 9 -19 36 -41 60 -32 33 -48 42
-74 42 l-34 0 -4 -57 -3 -58 -2 58 c-2 56 -2 57 -32 57 -20 0 -30 -5 -30 -15
0 -8 -4 -15 -10 -15 -5 0 -10 7 -10 15 0 24 -19 18 -32 -10 -7 -16 -19 -25
-34 -25 -20 0 -23 -6 -28 -62 -16 -187 -18 -171 26 -260 38 -79 40 -86 31
-135 l-10 -53 64 0 c41 0 63 -4 63 -11 0 -9 -24 -10 -83 -6 -53 5 -128 1 -203
-8 -164 -21 -214 -20 -214 3 0 13 2 14 9 4 7 -11 33 -11 152 3 209 23 197 19
205 71 6 39 1 57 -31 129 l-37 83 6 121 c4 77 3 121 -3 121 -6 0 -8 7 -5 14 9
23 -30 57 -76 67 -55 12 -97 45 -112 86 -8 22 -17 32 -26 28 -7 -3 -74 -5
-148 -5 -127 0 -134 -1 -134 -20 0 -11 -4 -20 -10 -20 -5 0 -10 7 -10 15 0 13
-26 15 -172 16 -102 1 -163 4 -148 9 14 4 91 8 172 9 87 1 148 5 150 11 2 5 1
116 -2 245 l-5 235 -120 151 -119 151 -51 -6 c-27 -3 -62 -6 -77 -6 -28 0 -28
-1 -28 -65 0 -37 -4 -65 -10 -65 -6 0 -10 29 -10 66 l0 66 -403 -7 c-355 -7
-407 -6 -433 8 -28 15 -31 14 -43 -5 -25 -40 -22 -9 3 35 14 24 26 53 26 63 0
33 21 44 85 44 33 0 77 3 98 6 35 6 37 9 37 44 0 23 -12 61 -30 95 -41 78 -41
139 0 210 16 28 27 55 23 58 -11 11 -58 8 -71 -5 -9 -9 -11 -1 -11 33 1 88 -4
104 -31 102 -30 -3 -94 7 -88 13 3 2 112 7 244 10 131 4 240 7 241 8 2 1 -20
33 -47 71 -28 38 -50 79 -50 91 0 23 -20 44 -62 65 -14 8 -70 71 -123 142 -53
70 -103 127 -110 127 -8 0 -17 -9 -20 -20 -3 -11 -14 -20 -23 -20 -11 0 -13 3
-6 8 6 4 17 18 23 30 12 22 8 29 -52 90 l-64 67 -12 109 -12 109 -61 89 c-33
49 -64 91 -69 94 -6 3 -54 6 -109 7 -55 0 -100 4 -100 8 0 11 76 17 140 12
l60 -6 -21 61 c-20 60 -22 62 -100 107 -74 44 -101 65 -82 65 7 0 159 -85 171
-96 2 -1 15 -33 28 -70 14 -36 54 -110 90 -163 69 -100 73 -114 89 -265 7 -58
9 -61 77 -125 39 -36 77 -65 84 -65 7 1 46 5 88 9 l76 7 -2 -64 -2 -63 -3 53
-4 52 -47 -1 c-26 -1 -60 -4 -75 -8 l-28 -6 89 -120 c62 -82 104 -128 133
-145 31 -19 46 -36 56 -65 7 -22 36 -70 63 -107 l50 -68 72 0 c40 0 111 3 157
7 l84 6 -6 62 c-3 34 -15 82 -26 106 -11 24 -22 52 -25 62 -6 18 -46 24 -46 7
0 -5 7 -10 16 -10 25 0 7 -17 -26 -24 -27 -5 -30 -8 -20 -25 15 -29 13 -31
-30 -31 l-40 0 0 48 0 48 -40 -4 c-25 -3 -40 0 -40 7 0 7 24 11 63 11 34 0
148 2 252 5 105 3 264 7 354 10 90 2 165 6 167 7 3 3 -95 276 -103 287 -1 2
-26 -5 -55 -14 -45 -16 -112 -20 -426 -29 -312 -9 -374 -13 -382 -26 -7 -12
-12 -12 -22 -2 -6 6 -22 12 -35 12 -13 0 -23 5 -23 10 0 6 17 10 38 9 20 -1
117 2 215 6 l178 8 6 29 c3 16 10 31 16 35 6 4 7 -7 3 -29 l-6 -35 77 3 c43 2
132 6 198 8 110 4 176 16 199 37 5 4 -27 103 -73 227 -74 200 -91 256 -75 239
3 -3 43 -106 89 -229 78 -210 84 -223 107 -220 32 5 161 7 233 4 33 -1 119 2
190 7 72 6 145 10 163 11 l32 0 0 95 0 95 -277 1 c-167 1 -260 5 -233 9 25 4
154 9 288 9 l242 1 0 -70 0 -70 168 2 167 3 -4 133 c-3 137 4 176 40 215 19
20 29 69 29 140 0 44 -2 47 -25 47 -14 0 -25 5 -25 10 0 6 12 10 26 10 26 0
26 0 23 78 -3 60 -7 80 -21 90 -19 14 -25 42 -8 42 6 0 10 -7 10 -15 0 -8 5
-15 10 -15 6 0 10 43 10 110 l0 110 -40 0 c-22 0 -40 5 -40 10 0 6 18 10 40
10 l40 0 0 60 0 59 -67 3 -68 3 -3 68 -3 67 -61 0 -61 0 7 -69 c4 -42 3 -70
-3 -72 -6 -3 -7 -57 -3 -144 l7 -139 62 -11 c59 -11 94 -25 62 -25 -38 0 -135
23 -141 33 -4 7 -8 74 -8 150 l0 137 -35 0 -34 0 -4 -72 -3 -73 -2 77 -2 77
45 7 45 6 1 87 c0 71 2 82 12 63 9 -19 16 -23 40 -18 16 3 55 6 86 6 l56 0 2
75 2 75 -33 0 c-18 0 -61 -3 -95 -6 l-61 -7 -1 -51 c0 -45 -2 -48 -10 -26 -6
14 -9 66 -7 115 l3 90 -32 3 -32 3 -5 -88 c-3 -48 -8 -112 -11 -140 -7 -52 -7
-53 20 -53 15 0 24 -4 20 -10 -3 -5 -15 -10 -26 -10 -12 0 -19 -7 -19 -20 0
-11 -4 -20 -10 -20 -5 0 -10 9 -10 20 0 11 -4 20 -10 20 -5 0 -10 -11 -10 -25
0 -14 -4 -25 -10 -25 -5 0 -10 11 -10 25 0 22 -4 25 -35 25 -19 0 -35 5 -35
10 0 6 18 10 39 10 29 0 41 5 44 18 4 16 5 16 6 0 2 -38 21 -16 21 25 0 23 7
53 16 65 20 29 18 186 -2 203 -8 6 -14 27 -14 45 l0 34 -190 0 c-190 0 -231
-8 -150 -30 45 -12 56 -40 16 -40 -32 0 -39 -38 -11 -62 20 -17 20 -17 -1 -18
-23 0 -34 17 -34 51 0 17 -6 20 -32 17 l-33 -3 2 -55 c2 -44 7 -58 29 -76 16
-14 24 -30 21 -41 -4 -16 -5 -17 -6 0 0 9 -7 17 -15 17 -8 0 -17 6 -19 13 -3
6 -6 -33 -7 -88 -1 -67 -4 -93 -10 -79 -10 25 -61 36 -102 22 -28 -10 -28 -11
-28 -101 0 -51 -3 -116 -6 -144 l-7 -53 279 -2 c178 0 255 -4 214 -8 -36 -4
-97 -8 -137 -9 l-72 -1 -4 -52 -3 -53 -2 53 -2 52 -58 0 c-33 0 -93 3 -135 6
l-77 7 -1 -29 c-1 -24 -3 -25 -6 -6 -4 22 -6 22 -166 21 -89 -1 -186 -4 -215
-7 l-52 -7 60 -104 c33 -57 60 -114 60 -127 0 -20 6 -23 43 -27 25 -2 14 -4
-28 -4 -38 0 -62 1 -52 4 23 6 22 48 -4 89 -20 34 -42 43 -54 24 -8 -13 -25
-13 -25 1 0 6 9 13 20 16 11 3 20 12 20 19 0 17 -22 18 -38 2 -6 -6 -15 -9
-18 -5 -4 4 4 15 16 25 l23 19 -22 37 -23 36 -93 0 -94 0 -7 -45 c-3 -25 -3
-56 0 -70 4 -14 2 -25 -3 -25 -12 0 -22 56 -16 99 5 33 2 39 -36 69 -23 17
-53 32 -68 33 -14 0 -35 5 -46 10 -14 7 -5 8 33 6 43 -3 59 -10 85 -35 l32
-30 190 6 190 7 6 40 6 40 2 -36 1 -36 127 -7 c69 -3 130 -3 134 1 8 8 12 165
10 395 l-1 137 -125 0 -125 0 -2 -112 c-1 -62 -2 -125 -1 -140 1 -25 -2 -28
-21 -23 -40 10 -66 -4 -66 -34 0 -23 -4 -27 -20 -23 -15 4 -18 11 -14 29 5 18
2 24 -10 24 -9 0 -16 5 -16 10 0 6 24 10 54 10 30 0 58 4 61 10 3 5 9 32 12
60 l6 50 -64 2 c-46 1 -53 2 -24 5 22 3 45 9 52 15 9 7 13 7 13 -1 0 -7 5 -9
10 -6 5 3 10 36 10 73 l0 67 61 -3 c36 -2 66 1 72 7 8 8 3 11 -17 11 -23 0
-27 3 -21 18 17 41 17 52 1 52 -10 0 -15 -3 -12 -8 7 -12 -22 -45 -34 -37 -6
4 -10 23 -8 44 l3 36 -93 -3 c-60 -2 -92 0 -92 7 0 7 27 11 68 11 l68 0 0 46
c0 44 -1 45 -31 43 -17 -2 -36 0 -43 5 -6 4 -12 3 -12 -1 0 -5 -9 -9 -20 -9
-24 0 -25 4 -4 27 11 13 22 16 33 10 9 -5 30 -11 46 -12 30 -4 30 -3 30 44 0
42 2 47 23 47 12 0 22 -4 22 -10 0 -5 -7 -10 -15 -10 -12 0 -14 -16 -12 -87
l2 -88 38 -3 c32 -3 37 0 37 17 0 12 5 21 10 21 6 0 10 7 10 15 0 18 16 20 23
3 3 -7 6 3 6 24 1 31 5 38 31 47 l30 10 0 -70 0 -69 34 0 c33 0 33 1 34 46 1
37 -2 45 -13 40 -51 -21 -51 -21 -37 -4 9 11 10 18 2 23 -5 3 -10 11 -10 17 0
6 7 5 18 -4 31 -28 42 -11 42 63 l0 69 -85 0 c-47 0 -85 -4 -85 -9 0 -5 4 -20
9 -33 16 -44 21 -78 12 -78 -5 0 -12 11 -15 25 -4 14 -11 23 -16 20 -6 -4 -7
-17 -4 -31 7 -27 -12 -34 -20 -6 -3 9 -4 -1 -2 -23 3 -34 0 -41 -15 -42 -11
-1 -19 2 -19 8 0 5 5 9 10 9 6 0 10 11 10 25 0 14 -4 25 -10 25 -15 0 -12 30
3 30 27 1 50 29 43 54 l-6 26 -135 0 -135 0 0 -100 c0 -84 3 -100 16 -100 8 0
12 -4 9 -10 -3 -5 -1 -10 5 -10 7 0 14 9 17 20 7 28 23 25 23 -4 0 -19 -7 -25
-35 -30 -21 -4 -35 -13 -35 -21 0 -11 -12 -15 -40 -15 -22 0 -40 5 -40 10 0 6
14 10 30 10 l30 0 0 125 0 125 -420 0 -419 0 -7 -52 c-7 -50 -8 -51 -17 -25
-6 19 -6 32 1 39 6 6 8 17 5 24 -4 12 -137 14 -819 14 l-814 0 0 -1244z m1588
1176 c12 -2 22 -7 22 -12 0 -5 3 -15 6 -24 3 -9 1 -16 -5 -16 -6 0 -11 6 -11
14 0 8 -10 16 -22 18 -19 2 -23 10 -25 43 -1 35 -1 36 5 10 5 -21 14 -31 30
-33z m-688 -27 c0 -49 -3 -65 -14 -65 -7 0 -19 -7 -26 -15 -14 -17 -70 -21
-70 -5 0 6 9 10 20 10 12 0 35 7 51 16 26 13 30 20 27 52 -2 29 -8 38 -28 43
-23 6 -23 7 -3 8 12 1 25 6 28 11 12 20 15 9 15 -55z m4350 44 c0 -7 -11 -9
-27 -6 -31 6 -81 -12 -101 -35 -7 -9 -15 -39 -19 -67 -3 -28 -12 -59 -20 -68
-13 -17 -14 -16 -8 5 5 17 1 30 -13 45 -11 12 -24 36 -28 52 -4 17 -12 33 -18
38 -14 9 12 27 39 26 11 0 14 -3 8 -6 -16 -6 -17 -75 -1 -91 20 -20 28 -14 28
21 0 33 34 77 70 90 28 10 90 7 90 -4z m340 -56 c0 -14 -19 -38 -25 -32 -8 8
5 39 16 39 5 0 9 -3 9 -7z m-602 -68 c-6 -7 -48 7 -48 15 0 4 10 12 23 17 18
9 23 7 25 -9 2 -11 2 -21 0 -23z m-4298 13 c0 -5 -47 -8 -105 -8 l-105 0 -1
-37 -2 -38 -6 35 -6 35 -62 3 c-71 3 -71 4 -48 -74 l15 -50 117 2 c76 2 107 0
88 -5 -16 -5 -74 -9 -127 -10 -113 -1 -118 3 -118 88 l0 51 -60 0 c-33 0 -60
4 -60 8 0 5 108 8 240 8 132 0 240 -4 240 -8z m840 -7 c0 -5 -6 -11 -12 -14
-7 -2 16 -21 52 -43 36 -21 91 -64 122 -94 47 -47 60 -54 77 -46 19 8 21 18
21 83 0 42 4 73 10 73 6 0 10 -48 11 -122 0 -68 4 -131 8 -142 7 -19 117 -65
156 -66 11 0 27 -5 35 -11 11 -8 3 -9 -33 -5 l-48 6 3 -43 c3 -38 6 -43 33
-48 27 -6 25 -7 -13 -8 -24 0 -42 -4 -40 -8 19 -44 62 -119 69 -121 5 -2 9
-10 9 -18 0 -8 7 -14 15 -14 8 0 15 -3 15 -7 0 -14 -17 -34 -26 -32 -5 1 -21
1 -36 0 -25 -1 -26 -3 -18 -31 8 -27 6 -30 -13 -29 -12 0 -17 3 -10 5 8 4 10
16 6 35 -5 26 -3 30 26 35 29 6 40 18 24 26 -5 2 -26 39 -48 83 l-40 80 -5
-65 c-4 -58 -6 -61 -12 -31 -5 18 -8 47 -8 64 0 17 -7 50 -16 73 -13 33 -22
43 -46 48 -16 3 -41 3 -54 0 -21 -6 -24 -3 -24 24 0 28 -3 31 -37 35 -21 2 -6
4 35 5 39 1 72 5 72 9 0 3 -14 29 -32 56 -29 45 -33 48 -45 31 -7 -9 -16 -15
-19 -11 -4 4 -2 13 4 20 9 10 2 22 -29 52 -33 31 -43 35 -50 24 -6 -10 -9 -7
-9 13 0 21 -11 33 -57 62 -31 20 -61 37 -65 38 -5 2 -6 11 -3 21 7 17 45 24
45 8z m491 -77 c10 -75 28 -99 67 -89 12 3 22 1 22 -5 0 -10 -20 -14 -52 -12
-10 1 -18 -4 -18 -10 0 -9 -3 -9 -12 0 -7 7 -16 45 -19 85 -4 39 -11 83 -15
97 -5 19 -4 22 5 14 7 -6 16 -42 22 -80z m3017 13 c9 -3 1 -5 -18 -5 -19 0
-29 2 -22 5 6 2 10 9 6 14 -3 5 -2 15 3 22 6 8 9 5 11 -10 2 -12 11 -24 20
-26z m702 -27 c0 -22 -4 -40 -10 -40 -5 0 -10 18 -10 40 0 22 5 40 10 40 6 0
10 -18 10 -40z m-603 24 c-3 -3 -12 -4 -19 -1 -8 3 -5 6 6 6 11 1 17 -2 13 -5z
m-2803 -25 c38 -16 50 -18 62 -8 22 18 27 5 6 -15 -18 -15 -22 -15 -70 5 l-52
22 -60 -23 -60 -22 0 -157 c-1 -122 -4 -161 -16 -181 l-15 -25 5 34 c3 18 6
102 6 186 l0 153 33 12 c17 7 48 18 67 26 45 17 40 17 94 -7z m-804 -94 c0
-25 -4 -45 -10 -45 -5 0 -10 20 -10 45 0 25 5 45 10 45 6 0 10 -20 10 -45z
m1634 -11 c17 -7 22 -34 6 -34 -5 0 -14 9 -20 20 -12 22 -10 23 14 14z m-349
-74 c17 -7 22 -14 18 -29 -3 -12 -11 -21 -18 -21 -8 0 -20 -3 -29 -6 -10 -4
-16 -1 -16 9 0 9 -8 18 -17 20 -14 4 -12 5 5 6 17 1 22 7 23 29 0 15 3 21 6
14 3 -7 16 -17 28 -22z m2599 13 c-18 -80 -69 -280 -84 -330 -18 -60 -59 -135
-80 -148 -30 -19 -2 -25 93 -23 l102 3 5 145 6 145 2 -147 2 -148 33 -2 32 -1
-32 -4 -33 -4 -2 -97 -2 -97 -3 98 -4 97 -112 0 -112 0 -82 -97 c-88 -105
-143 -162 -143 -147 0 5 25 36 56 69 30 33 75 86 100 118 l45 57 -43 0 c-24 0
-38 -4 -33 -8 17 -12 17 -42 0 -42 -8 0 -15 5 -15 10 0 6 -7 10 -16 10 -10 0
-14 6 -10 15 3 9 0 15 -9 15 -10 0 -15 -16 -18 -52 l-3 -53 -2 58 -2 57 79 0
79 0 36 42 c45 52 66 108 117 314 23 90 45 164 49 164 5 0 6 -8 4 -17z m-2224
-3 c0 -5 -9 -14 -21 -20 -19 -11 -20 -10 -9 9 11 22 30 29 30 11z m-3033 -132
c-2 -13 -4 -3 -4 22 0 25 2 35 4 23 2 -13 2 -33 0 -45z m2173 22 c0 -5 -25
-10 -55 -10 -30 0 -55 5 -55 10 0 6 25 10 55 10 30 0 55 -4 55 -10z m576 -22
c13 -21 13 -58 -1 -58 -7 0 -12 -8 -11 -17 0 -9 -10 -23 -24 -30 -18 -9 -20
-13 -7 -13 15 0 15 -2 -3 -20 -12 -12 -25 -18 -30 -15 -12 8 -13 35 -1 35 4 0
11 29 13 64 7 78 13 90 38 76 10 -6 22 -15 26 -22z m-1806 -53 c0 -8 7 -15 15
-15 8 0 15 -4 15 -10 0 -11 -11 -13 -34 -4 -17 7 -22 44 -6 44 6 0 10 -7 10
-15z m-187 -117 c4 -29 3 -48 -3 -48 -6 0 -10 10 -10 23 0 12 -3 40 -6 62 -3
27 -2 35 4 25 5 -8 12 -36 15 -62z m1887 62 c0 -5 -9 -10 -20 -10 -11 0 -20 5
-20 10 0 6 9 10 20 10 11 0 20 -4 20 -10z m-620 -25 c0 -21 -5 -25 -30 -25
-16 0 -30 3 -30 8 1 18 26 38 53 41 4 1 7 -10 7 -24z m180 20 c0 -3 -9 -9 -19
-13 -26 -10 -131 -110 -131 -125 0 -7 -17 -17 -37 -24 -37 -11 -57 -9 -37 5
15 10 25 42 14 42 -16 0 -11 37 6 44 27 10 42 7 46 -11 2 -13 16 -6 61 35 31
29 66 52 77 52 11 0 20 -2 20 -5z m-1317 -55 c7 -32 0 -60 -14 -60 -5 0 -9 20
-9 45 0 51 14 60 23 15z m2717 10 c0 -5 -4 -10 -10 -10 -5 0 -10 5 -10 10 0 6
5 10 10 10 6 0 10 -4 10 -10z m-2592 -67 c-16 -2 -40 -2 -55 0 -16 2 -3 4 27
4 30 0 43 -2 28 -4z m6355 -30 c-6 -15 -17 -16 -62 -7 -46 10 -38 19 18 19 35
0 47 -4 44 -12z m-6525 -63 c-2 -16 0 -31 6 -33 5 -2 0 -13 -13 -26 -27 -27
-36 -23 -22 10 5 13 12 36 15 52 8 37 19 35 14 -3z m1039 -5 c9 -25 -4 -29
-17 -6 -7 15 -7 21 0 21 6 0 13 -7 17 -15z m4463 -24 c0 -17 4 -18 38 -10 47
11 52 11 52 0 0 -5 -18 -11 -39 -15 -22 -3 -46 -9 -55 -12 -13 -5 -16 1 -16
25 0 17 5 31 10 31 6 0 10 -9 10 -19z m-4432 -36 c7 -14 12 -29 12 -33 -1 -10
-40 38 -40 49 0 18 17 8 28 -16z m2905 -1 c8 -8 -34 -54 -45 -48 -12 8 -10 42
5 47 17 8 33 8 40 1z m-1387 -99 c-8 -8 -20 -31 -27 -50 -12 -33 -29 -47 -29
-25 0 13 38 89 54 109 9 12 12 12 14 -2 2 -10 -3 -24 -12 -32z m-609 -22 c-3
-10 -5 -4 -5 12 0 17 2 24 5 18 2 -7 2 -21 0 -30z m4760 -3 c2 -2 8 1 12 8 12
19 41 3 41 -23 0 -26 -25 -36 -58 -24 -17 7 -22 16 -22 46 1 33 2 36 12 18 6
-11 13 -22 15 -25z m-6410 -36 c-3 -3 -12 -4 -19 -1 -8 3 -5 6 6 6 11 1 17 -2
13 -5z m610 -10 c-3 -3 -12 -4 -19 -1 -8 3 -5 6 6 6 11 1 17 -2 13 -5z m-630
-40 c-3 -3 -12 -4 -19 -1 -8 3 -5 6 6 6 11 1 17 -2 13 -5z m4723 -44 c5 0 10
-4 10 -10 0 -5 -10 -10 -23 -10 -21 0 -23 4 -19 32 5 30 6 31 13 10 5 -12 13
-22 19 -22z m-2400 -10 c0 -5 -22 -10 -49 -10 -28 0 -53 5 -56 10 -4 6 15 10
49 10 31 0 56 -4 56 -10z m1830 0 c0 -6 -78 -10 -215 -10 -137 0 -215 4 -215
10 0 6 78 10 215 10 137 0 215 -4 215 -10z m-1640 -205 c0 -43 -4 -75 -10 -75
-6 0 -10 32 -10 75 0 43 4 75 10 75 6 0 10 -32 10 -75z m1805 -32 c-3 -23 -10
-43 -15 -43 -9 0 -3 93 8 120 9 25 15 -28 7 -77z m-1162 53 c18 -4 27 -13 27
-26 0 -11 -3 -20 -7 -21 -5 0 -18 -2 -30 -5 -35 -6 -37 -6 -50 -5 -7 0 -13 6
-13 12 0 6 8 8 18 5 9 -3 28 1 42 9 l25 13 -38 7 c-20 4 -37 12 -37 17 0 5 8
7 18 5 9 -3 29 -8 45 -11z m-4336 -68 c-2 -13 -4 -5 -4 17 -1 22 1 32 4 23 2
-10 2 -28 0 -40z m6443 2 c0 -22 -4 -40 -10 -40 -11 0 -13 39 -4 64 10 26 14
19 14 -24z m-1870 -16 c45 -18 79 -48 80 -71 0 -7 -6 -10 -13 -7 -15 5 -37
-35 -37 -66 0 -11 -5 -20 -11 -20 -6 0 -9 14 -7 33 3 30 1 32 -33 35 -34 3
-37 6 -43 40 -9 59 -7 85 7 79 6 -3 32 -13 57 -23z m-2645 -56 c-27 -5 -61 -9
-75 -9 -95 1 -110 2 -110 10 0 5 53 9 118 9 99 -1 110 -3 67 -10z m4045 8 c0
-3 -4 -8 -10 -11 -5 -3 -10 -1 -10 4 0 6 5 11 10 11 6 0 10 -2 10 -4z m30 -24
c0 -15 -2 -15 -10 -2 -13 20 -13 33 0 25 6 -3 10 -14 10 -23z m-11 -48 c-15
-18 -22 -13 -13 10 3 9 10 13 16 10 5 -3 4 -12 -3 -20z m-2439 -14 c0 -6 -33
-10 -80 -10 -47 0 -80 4 -80 10 0 6 33 10 80 10 47 0 80 -4 80 -10z m2410 -30
c0 -11 -4 -20 -10 -20 -5 0 -10 9 -10 20 0 11 5 20 10 20 6 0 10 -9 10 -20z
m-1 -67 c0 -25 -1 -26 -9 -8 -12 27 -12 35 0 35 6 0 10 -12 9 -27z m1508 -49
c-3 -3 -12 -4 -19 -1 -8 3 -5 6 6 6 11 1 17 -2 13 -5z m-1557 -22 c0 -5 -6
-16 -13 -26 -13 -18 -14 -18 -21 -1 -4 11 -1 22 6 27 17 10 28 10 28 0z
m-3430 -42 c0 -11 -7 -23 -15 -26 -8 -4 -15 -14 -14 -23 0 -10 2 -11 6 -3 7
19 23 14 23 -7 0 -19 -25 -31 -47 -24 -19 7 -16 22 12 58 13 18 21 35 18 39
-4 3 -1 6 5 6 7 0 12 -9 12 -20z m3390 -14 c0 -18 -49 -76 -50 -59 0 6 5 15
11 19 6 3 8 17 5 30 -5 19 -2 24 14 24 11 0 20 -6 20 -14z m-3946 -54 c-4 -18
-13 -32 -21 -32 -8 0 -12 4 -9 9 3 4 10 21 16 36 14 36 22 28 14 -13z m550
-43 c-3 -5 -14 -14 -24 -19 -16 -8 -18 -8 -14 5 4 8 1 15 -5 15 -6 0 -11 4
-11 8 0 5 13 7 30 4 16 -2 27 -8 24 -13z m-351 -87 c-3 -12 -9 -22 -14 -22
-14 0 -11 38 4 43 16 6 17 5 10 -21z m36 -14 c1 -5 -3 -8 -9 -8 -5 0 -10 12
-9 28 0 24 1 25 9 7 5 -11 9 -23 9 -27z m-813 -45 c-3 -16 -8 -48 -11 -73 -4
-25 -11 -61 -18 -80 -6 -19 -10 -40 -9 -47 3 -12 -16 -28 -24 -21 -2 3 2 23
10 46 8 23 20 77 27 121 6 45 16 81 21 81 5 0 7 -12 4 -27z m94 -30 c13 -26
30 -54 37 -61 7 -7 13 -21 13 -31 0 -21 27 -24 34 -4 6 15 55 17 76 2 11 -8 6
-9 -23 -7 -37 4 -39 2 -63 -44 -18 -35 -20 -46 -9 -42 27 11 16 -5 -15 -21
-49 -25 -35 -35 48 -35 42 0 82 -4 88 -8 6 -4 16 -41 22 -82 12 -78 8 -90 -30
-90 -9 0 -21 -6 -25 -14 -16 -27 -53 -39 -79 -25 -31 16 -30 36 3 71 26 27 26
28 5 28 -16 0 -22 6 -22 21 0 19 1 19 16 5 8 -9 22 -16 30 -16 22 0 17 -13
-16 -45 -36 -34 -37 -41 -9 -48 27 -7 49 1 49 19 0 7 16 16 35 20 19 3 35 9
35 13 0 36 -22 126 -32 133 -17 10 -101 -1 -110 -15 -7 -12 -76 28 -130 76
-47 42 -51 82 -13 123 14 15 25 31 25 37 0 5 13 7 31 3 42 -8 33 14 -12 29
-41 14 -49 38 -17 52 29 13 29 13 58 -44z m-1244 37 c15 0 24 -6 24 -16 0 -9
-5 -12 -12 -8 -8 5 -9 2 -5 -9 4 -11 1 -17 -7 -17 -8 0 -16 9 -19 20 -3 13
-14 20 -30 20 -14 0 -29 5 -33 12 -5 8 2 9 26 5 18 -4 43 -7 56 -7z m1651 -82
c-1 -13 2 -35 6 -50 5 -18 3 -28 -3 -28 -11 0 -13 5 -26 55 -5 21 -8 25 -11
13 -3 -10 -9 -18 -15 -18 -5 0 -7 7 -4 16 3 9 6 20 6 25 0 5 11 9 24 9 18 0
24 -5 23 -22z m2083 -80 c0 -6 -7 -20 -17 -30 -13 -14 -13 -18 -2 -18 24 0
-13 -20 -38 -20 -19 0 -21 3 -14 22 4 13 19 26 32 29 20 6 21 7 4 8 -17 1 -17
3 -5 11 21 13 40 12 40 -2z m2550 9 c0 -6 -219 -187 -226 -187 -15 0 9 24 104
104 90 75 122 96 122 83z m-410 -52 c0 -21 5 -25 33 -27 l32 -1 -32 -4 c-20
-3 -33 -10 -33 -19 0 -8 -4 -14 -10 -14 -5 0 -10 5 -10 10 0 6 -22 10 -50 10
-27 0 -50 5 -50 10 0 6 23 10 50 10 47 0 50 2 50 25 0 14 5 25 10 25 6 0 10
-11 10 -25z m-5944 -25 c9 0 14 -11 14 -35 0 -19 -4 -35 -10 -35 -5 0 -10 11
-10 25 0 14 -4 25 -10 25 -5 0 -10 10 -9 23 0 12 3 16 6 10 2 -7 11 -13 19
-13z m4064 -20 c0 -5 -13 -10 -30 -10 -16 0 -30 5 -30 10 0 6 14 10 30 10 17
0 30 -4 30 -10z m150 0 c0 -6 -30 -10 -70 -10 -40 0 -70 4 -70 10 0 6 30 10
70 10 40 0 70 -4 70 -10z m-4016 -128 c7 -77 8 -80 52 -123 30 -30 44 -51 43
-69 -1 -24 -1 -24 -14 6 -8 17 -30 43 -49 57 -37 28 -39 36 -51 150 -4 33 -3
57 3 57 5 0 12 -35 16 -78z m509 39 c34 -1 38 -31 4 -31 -13 0 -27 -4 -32 -9
-15 -13 -75 -1 -75 15 0 8 -4 14 -10 14 -5 0 -10 3 -10 8 0 4 21 7 48 6 26 -1
59 -3 75 -3z m4887 -46 c0 -19 -4 -35 -10 -35 -5 0 -10 16 -10 35 0 19 5 35
10 35 6 0 10 -16 10 -35z m80 -14 c0 -27 -3 -63 -6 -80 l-6 -31 -73 0 -73 0
-1 75 c-1 44 3 75 9 75 5 0 10 -14 10 -31 0 -22 5 -32 20 -36 11 -3 20 -9 20
-14 0 -5 -9 -9 -20 -9 -13 0 -20 -7 -20 -20 0 -15 7 -20 25 -20 18 0 25 5 25
20 0 16 7 20 35 20 l35 0 0 50 c0 28 5 50 10 50 6 0 10 -22 10 -49z m-5281
-133 c1 -10 -3 -18 -9 -18 -6 0 -9 25 -9 58 1 56 1 57 10 17 4 -22 8 -48 8
-57z m5031 2 c0 -20 -5 -30 -15 -30 -8 0 -15 -4 -15 -9 0 -5 -3 -17 -7 -27 -6
-15 -1 -17 45 -11 50 6 52 5 52 -18 0 -21 -5 -25 -31 -25 -24 0 -30 4 -25 15
7 20 -30 20 -64 0 -14 -8 -41 -14 -60 -13 -19 0 -28 2 -19 5 11 2 15 12 12 27
-4 21 -2 22 27 18 28 -4 31 -2 26 14 -8 27 5 42 34 40 19 -1 26 5 28 22 5 32
12 27 12 -8z m-4150 -31 c-64 -11 -130 -11 -130 1 0 6 35 9 88 9 76 -1 81 -2
42 -10z m-360 -9 c0 -5 -4 -10 -10 -10 -5 0 -10 5 -10 10 0 6 5 10 10 10 6 0
10 -4 10 -10z m-782 -87 c15 -12 15 -13 -8 -11 -23 3 -25 8 -27 53 l-2 50 10
-39 c5 -21 17 -45 27 -53z m-222 10 c-10 -10 -19 5 -10 18 6 11 8 11 12 0 2
-7 1 -15 -2 -18z m4824 -25 c0 -16 -3 -19 -11 -11 -6 6 -8 16 -5 22 11 17 16
13 16 -11z m0 -43 c0 -8 -4 -15 -10 -15 -5 0 -10 7 -10 15 0 8 5 15 10 15 6 0
10 -7 10 -15z m10 -205 c0 -27 -4 -50 -10 -50 -5 0 -10 23 -10 50 0 28 5 50
10 50 6 0 10 -22 10 -50z m-4530 32 c0 -5 -3 -12 -7 -16 -12 -12 -13 -40 -2
-80 7 -27 7 -42 0 -49 -13 -13 -15 -47 -3 -47 5 0 17 9 27 20 22 25 95 29 95
5 0 -8 11 -17 25 -21 14 -3 25 -10 25 -16 0 -14 -43 1 -58 20 -16 21 -29 7
-35 -38 -4 -34 -4 -34 -5 7 -1 23 -6 44 -10 47 -5 3 -22 -8 -37 -24 -23 -24
-26 -32 -15 -45 14 -16 3 -20 -19 -6 -9 6 -12 24 -11 52 6 87 2 131 -10 139
-10 6 -8 14 6 34 19 25 34 33 34 18z m70 -49 c0 -28 -3 -34 -10 -23 -13 20
-13 60 0 60 6 0 10 -17 10 -37z m4460 -73 c0 -11 -4 -20 -10 -20 -5 0 -10 9
-10 20 0 11 5 20 10 20 6 0 10 -9 10 -20z m1555 -40 c-16 -4 -138 -8 -270 -8
-132 1 -224 4 -205 8 47 10 514 10 475 0z m-1555 -85 c0 -43 -4 -75 -10 -75
-6 0 -10 32 -10 75 0 43 4 75 10 75 6 0 10 -32 10 -75z m1250 19 c0 -9 -7 -22
-15 -28 -9 -7 -12 -16 -6 -25 7 -11 17 -11 60 -1 29 7 55 10 58 6 6 -6 -5 -11
-50 -20 -27 -6 -28 -8 -25 -69 3 -60 4 -62 33 -68 30 -6 30 -6 5 -12 -49 -12
-1050 -19 -1050 -8 0 8 95 12 308 13 169 1 321 3 337 4 17 1 90 3 163 3 121 1
133 3 131 19 -4 42 1 52 26 52 20 0 25 5 25 25 0 22 -4 25 -34 25 -22 0 -36 6
-40 16 -12 30 -6 42 24 48 18 3 30 12 30 21 0 8 5 15 10 15 6 0 10 -7 10 -16z
m-5590 -79 c0 -37 -4 -65 -10 -65 -6 0 -10 26 -10 59 0 48 -3 60 -17 64 -11 3
-7 5 10 6 27 1 27 1 27 -64z m6693 38 c-7 -2 -21 -2 -30 0 -10 3 -4 5 12 5 17
0 24 -2 18 -5z m-3062 -69 c20 -18 19 -99 -2 -99 -7 0 -15 7 -15 15 -1 8 -2
21 -3 28 -1 9 -12 12 -33 10 -30 -3 -33 0 -36 26 -2 16 2 33 10 38 16 10 58 1
79 -18z m709 -39 c0 -25 -4 -45 -10 -45 -5 0 -10 20 -10 45 0 25 5 45 10 45 6
0 10 -20 10 -45z m209 -81 c2 -2 -38 -4 -90 -4 -63 0 -89 3 -79 10 13 8 158 3
169 -6z m-4829 -88 c0 -13 3 -31 6 -40 3 -9 1 -16 -5 -16 -6 0 -11 9 -11 19 0
37 -10 48 -40 43 -18 -3 -30 0 -30 7 0 6 17 11 40 11 36 0 40 -3 40 -24z
m1746 -29 c2 -18 -19 -19 -45 -2 -12 7 -11 10 5 16 26 10 37 6 40 -14z m-236
-42 c14 -8 45 -15 70 -15 25 0 56 -7 70 -15 34 -19 40 -18 40 5 0 11 5 20 10
20 7 0 8 -13 4 -34 -3 -19 -2 -41 3 -49 4 -9 82 -53 173 -99 l165 -83 3 -58
c3 -55 4 -58 33 -64 16 -3 29 -9 29 -14 0 -5 -13 -6 -29 -3 -23 5 -30 2 -34
-12 -4 -16 -5 -16 -6 2 -1 18 -13 25 -78 43 -163 43 -277 70 -285 65 -10 -7
-23 25 -14 34 4 3 10 2 14 -4 9 -15 146 -45 150 -33 2 5 19 9 37 9 27 0 32 -3
28 -18 -3 -14 8 -21 61 -35 35 -9 69 -17 75 -17 6 0 11 17 11 38 0 27 -7 44
-22 59 -25 22 -282 147 -276 135 51 -124 62 -141 93 -145 27 -3 26 -4 -8 -5
-37 -2 -38 -1 -67 63 -27 60 -32 65 -61 65 -24 0 -30 -4 -25 -15 3 -8 1 -15
-4 -15 -6 0 -10 7 -10 16 0 15 -15 16 -160 10 -101 -5 -160 -4 -160 2 0 6 80
13 190 17 l191 7 -16 22 c-9 11 -18 29 -22 39 -8 26 -58 49 -89 41 -26 -7
-124 31 -124 48 0 11 11 10 40 -7z m-1607 -31 c60 -3 107 -11 107 -16 0 -6
-17 -8 -42 -5 -24 4 -91 9 -150 13 -61 3 -108 11 -108 16 0 6 17 8 43 5 23 -4
90 -9 150 -13z m4337 -14 c0 -5 -9 -10 -20 -10 -11 0 -19 -3 -19 -7 3 -21 -2
-33 -15 -33 -21 0 -7 40 18 50 29 12 36 12 36 0z m-80 -19 c0 -5 -7 -12 -16
-15 -24 -9 -28 -7 -14 9 14 17 30 20 30 6z m-11 -35 c-11 -9 -69 -14 -69 -6 0
5 15 10 33 12 32 3 44 1 36 -6z m-629 -26 c0 -5 -4 -10 -10 -10 -5 0 -10 5
-10 10 0 6 5 10 10 10 6 0 10 -4 10 -10z m-80 -30 c0 -5 -9 -10 -20 -10 -11 0
-20 5 -20 10 0 6 9 10 20 10 11 0 20 -4 20 -10z m-2 -55 c-2 -17 -8 -25 -20
-25 -13 0 -18 8 -18 25 0 18 5 25 20 25 15 0 19 -6 18 -25z m494 -27 c-1 -24
-9 -40 -34 -60 -18 -15 -36 -28 -40 -28 -11 0 14 43 40 68 17 17 21 29 16 50
-5 22 -4 25 6 15 7 -7 13 -27 12 -45z m-2242 8 c0 -8 -4 -18 -10 -21 -5 -3
-10 3 -10 14 0 12 5 21 10 21 6 0 10 -6 10 -14z m2347 -33 c-20 -2 -52 -2 -70
0 -17 2 0 4 38 4 39 0 53 -2 32 -4z m-344 -53 c-3 -11 -9 -20 -14 -20 -11 0
-11 3 -3 24 9 23 23 20 17 -4z m-3686 -123 c-2 -23 -3 -1 -3 48 0 50 1 68 3
42 2 -26 2 -67 0 -90z m1707 81 c-4 -6 -10 -5 -15 3 -14 22 -10 33 6 19 8 -7
12 -17 9 -22z m36 -28 c8 -5 11 -12 7 -16 -4 -4 -15 0 -24 9 -18 18 -8 23 17
7z m140 -39 c0 -9 -181 -23 -189 -15 -9 8 7 15 42 16 20 1 35 4 33 7 -2 3 22
4 55 3 32 -2 59 -7 59 -11z m-680 -27 c0 -8 -4 -12 -10 -9 -5 3 -10 10 -10 16
0 5 5 9 10 9 6 0 10 -7 10 -16z m-1252 -21 c-21 -2 -55 -2 -75 0 -21 2 -4 4
37 4 41 0 58 -2 38 -4z m976 -27 c-3 -8 3 -19 15 -25 26 -14 31 -14 31 4 0 8
5 15 10 15 12 0 12 -3 4 -24 -3 -9 -17 -16 -30 -16 -19 0 -24 -5 -24 -26 0
-20 -4 -25 -16 -20 -9 3 -24 6 -34 6 -15 0 -18 8 -18 50 l-1 50 34 0 c26 0 33
-4 29 -14z m-398 -45 c0 -44 -3 -50 -24 -56 -30 -7 -30 -7 -33 30 -5 64 -1 75
29 75 27 0 28 -2 28 -49z m-529 -143 c-2 -24 -4 -5 -4 42 0 47 2 66 4 43 2
-24 2 -62 0 -85z m1203 26 c0 -47 -4 -73 -10 -69 -5 3 -10 37 -10 76 0 39 4
69 10 69 6 0 10 -32 10 -76z m-990 11 c0 -55 -11 -94 -29 -97 -52 -11 -90 32
-51 59 11 8 16 20 13 33 -7 28 12 48 42 42 21 -3 25 -10 25 -37z m-250 -32 c0
-7 -9 -13 -20 -13 -11 0 -20 5 -20 10 0 6 5 10 10 10 6 0 10 8 10 18 0 14 2
15 10 2 5 -8 10 -21 10 -27z m3533 30 c-7 -2 -19 -2 -25 0 -7 3 -2 5 12 5 14
0 19 -2 13 -5z m207 -13 c0 -5 -4 -10 -10 -10 -5 0 -10 5 -10 10 0 6 5 10 10
10 6 0 10 -4 10 -10z m-1623 -45 c23 -2 76 -21 117 -42 72 -35 76 -39 76 -71
0 -20 -4 -31 -10 -27 -5 3 -10 16 -10 29 0 19 -14 29 -77 58 -76 35 -105 40
-280 48 -2 0 -3 5 -3 10 0 9 66 8 187 -5z m1053 -24 c13 -25 13 -91 0 -91 -5
0 -11 17 -11 38 -1 20 -3 29 -6 19 -7 -29 -20 -10 -15 23 5 34 17 39 32 11z
m2570 -86 l0 -65 213 -1 c134 -1 197 -4 172 -9 -22 -5 -122 -9 -222 -9 l-183
-1 0 70 0 70 -42 -5 c-98 -10 -688 -15 -688 -5 0 10 115 14 523 18 l227 2 0
-65z m-2820 -14 c-18 -10 -356 -23 -346 -13 12 11 103 19 236 20 72 1 119 -2
110 -7z m230 -18 c0 -30 -9 -27 -15 6 -2 11 0 21 6 21 5 0 9 -12 9 -27z m30
-8 c0 -8 -4 -15 -10 -15 -5 0 -10 7 -10 15 0 8 5 15 10 15 6 0 10 -7 10 -15z
m210 5 c0 -5 -2 -10 -4 -10 -3 0 -8 5 -11 10 -3 6 -1 10 4 10 6 0 11 -4 11
-10z m-848 -63 c9 -3 19 -20 23 -39 11 -46 66 -110 83 -95 11 8 13 5 10 -14
-1 -13 4 -49 11 -81 11 -44 19 -59 40 -68 14 -7 21 -15 14 -17 -27 -10 -51 18
-68 79 -12 42 -30 77 -56 106 -21 24 -41 56 -44 73 -4 16 -20 38 -36 50 -16
11 -29 28 -29 37 0 14 3 14 18 -4 9 -12 24 -24 34 -27z m-2842 23 c0 -5 -7
-10 -16 -10 -8 0 -12 5 -9 10 3 6 10 10 16 10 5 0 9 -4 9 -10z m2610 -51 c0
-33 -4 -58 -9 -55 -12 8 -13 116 -1 116 6 0 10 -27 10 -61z m3275 11 l15 -29
-33 -6 c-47 -9 -110 -2 -115 13 -2 7 9 15 28 19 17 3 34 12 37 19 10 26 51 16
68 -16z m-2585 -50 c0 -5 -9 -10 -20 -10 -10 0 -23 -8 -29 -17 -5 -10 -12 -15
-16 -11 -12 12 20 48 42 48 13 0 23 -4 23 -10z m-1194 -18 c-3 -5 -24 -15 -48
-22 -24 -7 -47 -17 -53 -20 -23 -15 -107 -42 -112 -36 -9 9 -5 11 92 50 88 34
131 44 121 28z m504 -289 c0 -183 -4 -273 -10 -263 -11 17 -14 523 -3 533 3 4
8 7 10 7 2 0 3 -125 3 -277z m1040 217 c0 -5 -4 -10 -9 -10 -6 0 -13 5 -16 10
-3 6 1 10 9 10 9 0 16 -4 16 -10z m370 -150 c0 -5 -16 -10 -35 -10 -19 0 -35
5 -35 10 0 6 16 10 35 10 19 0 35 -4 35 -10z m210 0 c0 -5 -4 -10 -10 -10 -5
0 -10 5 -10 10 0 6 5 10 10 10 6 0 10 -4 10 -10z m-3752 -83 l-58 -10 0 -88
c0 -87 11 -139 29 -139 13 0 24 34 12 38 -18 6 -12 23 7 20 11 -2 18 4 20 20
2 12 7 22 11 22 9 0 31 45 31 62 0 6 -10 8 -25 4 -28 -7 -32 -1 -11 20 21 20
46 7 46 -24 0 -15 -17 -61 -37 -103 -33 -70 -40 -77 -65 -77 -27 1 -28 3 -28
52 0 28 -3 88 -7 134 l-6 82 69 -1 69 -2 -57 -10z m151 -134 c-1 -90 -3 -109
-10 -78 -11 57 -11 195 1 195 6 0 10 -45 9 -117z m2291 82 c-19 -19 -38 -35
-44 -35 -5 0 5 16 24 35 19 19 38 35 44 35 5 0 -5 -16 -24 -35z m2568 -10 c11
-9 -15 -35 -35 -35 -19 0 -24 4 -19 16 3 9 6 20 6 25 0 8 37 4 48 -6z m-2318
-86 l0 -61 233 6 c127 4 278 9 335 12 l102 6 0 49 c0 27 5 49 10 49 6 0 10
-22 10 -50 l0 -50 135 0 c83 0 135 -4 135 -10 0 -6 -52 -10 -135 -10 l-135 0
0 -85 c0 -78 2 -85 20 -85 11 0 20 -4 20 -10 0 -5 23 -10 50 -10 l50 0 0 -40
c0 -22 -4 -40 -10 -40 -5 0 -10 14 -10 30 0 29 -1 30 -50 30 -27 0 -50 5 -50
10 0 6 -4 10 -10 10 -6 0 -10 -39 -10 -96 0 -85 7 -124 70 -370 39 -151 70
-277 70 -279 0 -3 57 -5 126 -5 l126 0 -4 205 c-2 113 -1 205 3 205 9 0 19
-108 19 -196 l0 -73 48 4 c101 9 562 14 562 7 0 -10 -271 -22 -477 -22 l-133
0 0 -136 c0 -87 -4 -133 -10 -129 -5 3 -10 32 -10 64 l0 58 -117 -5 c-65 -2
-119 -5 -121 -7 -2 -2 80 -319 144 -557 14 -53 24 -103 21 -110 -7 -19 -7 -20
-101 341 -47 178 -87 325 -89 328 -3 2 -163 -1 -357 -7 -314 -10 -374 -10
-359 4 2 2 161 8 353 14 192 6 351 13 353 15 2 3 -27 128 -66 280 -66 263 -69
281 -70 394 0 65 0 151 0 191 l-1 74 -182 -6 c-101 -4 -256 -9 -345 -12 l-163
-6 0 71 c0 41 4 71 10 71 6 0 10 -27 10 -61z m1418 -76 c-61 -2 -108 -8 -108
-13 0 -6 -7 -10 -15 -10 -23 0 -31 -29 -30 -110 2 -90 18 -121 77 -145 l41
-16 32 36 c18 19 36 42 39 50 3 8 17 15 31 15 15 0 24 -4 20 -10 -3 -5 -15
-10 -26 -10 -10 0 -19 -4 -19 -10 0 -5 -8 -18 -18 -28 -10 -10 -25 -28 -34
-40 l-15 -22 -54 20 c-43 16 -59 29 -77 61 -13 22 -20 45 -15 52 4 6 6 41 5
77 -3 54 0 69 18 88 20 21 28 22 138 20 l117 -2 -107 -3z m-2098 -163 c0 -5
-9 -10 -20 -10 -11 0 -20 5 -20 10 0 6 9 10 20 10 11 0 20 -4 20 -10z m2460
-10 c0 -13 -30 -13 -50 0 -11 7 -7 10 18 10 17 0 32 -4 32 -10z m-998 -51 c-6
-24 -25 -28 -54 -12 -35 21 -27 33 20 29 26 -2 36 -7 34 -17z m-226 -261 c-3
-29 -6 -83 -6 -120 0 -39 -4 -68 -10 -68 -11 0 -13 107 -4 188 4 28 11 52 17
52 6 0 7 -20 3 -52z m2342 25 c2 -8 -5 -13 -17 -13 -12 0 -21 6 -21 16 0 18
31 15 38 -3z m-978 -63 c0 -5 -2 -10 -4 -10 -3 0 -8 5 -11 10 -3 6 -1 10 4 10
6 0 11 -4 11 -10z m150 -65 c0 -20 -7 -47 -16 -60 -9 -14 -13 -33 -9 -45 3
-11 2 -20 -4 -20 -5 0 -12 -13 -16 -30 -4 -16 -11 -30 -16 -30 -12 0 -11 5 4
43 8 18 12 38 9 45 -2 7 4 25 14 40 10 15 17 41 15 60 -1 18 2 32 8 32 6 0 11
-16 11 -35z m-4790 -14 c0 -8 -56 -21 -94 -21 -30 0 -11 12 31 20 55 11 63 11
63 1z m6134 -48 c-3 -32 -7 -58 -8 -59 0 -1 -36 -4 -79 -8 -77 -6 -78 -5 -75
16 2 14 11 24 23 26 11 2 25 11 32 19 6 8 16 12 22 8 7 -4 11 5 11 24 0 30 2
31 41 31 l40 0 -7 -57z m-2989 27 c9 -14 -4 -52 -16 -45 -12 8 -12 55 0 55 6
0 13 -5 16 -10z m-2205 -9 c0 -5 -13 -14 -30 -21 -32 -13 -31 -2 -15 -130 l5
-40 -47 1 -48 2 38 10 c38 11 39 12 33 47 -3 19 -6 47 -6 63 0 25 -3 27 -45
27 -25 0 -45 5 -45 10 0 6 18 10 41 10 24 0 38 4 34 10 -3 6 -2 10 4 10 5 0
11 -5 13 -11 3 -8 13 -7 33 4 36 19 35 19 35 8z m3614 -7 c4 -9 4 -19 2 -21
-8 -8 -26 8 -26 23 0 19 16 18 24 -2z m-4601 -34 c4 -4 10 -31 13 -61 3 -30 8
-74 11 -97 5 -43 -8 -75 -24 -57 -5 4 -2 10 5 12 14 6 16 59 2 68 -5 3 -10 26
-10 51 0 24 -4 44 -10 44 -5 0 -7 7 -4 15 4 9 -3 16 -20 21 -14 3 -26 10 -26
15 0 10 50 1 63 -11z m3317 -150 c0 -45 -4 -80 -10 -80 -9 0 -13 138 -3 152
10 18 13 4 13 -72z m190 20 c-20 -13 -140 -13 -140 0 0 6 32 10 78 10 53 0 72
-3 62 -10z m-1004 -177 c-5 -13 21 -26 35 -17 5 3 9 -4 9 -16 l0 -22 -32 20
c-48 29 -98 38 -98 18 0 -10 -6 -13 -15 -10 -9 4 -15 0 -15 -10 0 -10 -9 -16
-25 -16 -14 0 -25 5 -25 10 0 6 8 10 18 10 9 0 26 10 36 23 15 17 30 22 68 22
33 0 47 -4 44 -12z m224 -39 c0 -11 6 -14 22 -8 20 6 21 5 9 -9 -8 -11 -22
-15 -37 -12 -13 3 -35 7 -49 10 -14 3 -23 10 -20 15 4 6 17 7 31 4 14 -4 24
-2 24 5 0 6 5 11 10 11 6 0 10 -7 10 -16z m1660 -9 c0 -8 -4 -15 -10 -15 -5 0
-10 7 -10 15 0 8 5 15 10 15 6 0 10 -7 10 -15z m-2910 -95 c0 -6 -41 -10 -107
-10 -60 0 -162 -3 -228 -5 -346 -13 -425 -14 -425 -6 0 12 90 17 350 20 112 1
206 3 208 5 9 10 202 6 202 -4z m543 -17 c-7 -2 -13 -11 -13 -19 0 -8 -10 -14
-25 -14 -25 0 -35 -15 -14 -22 6 -2 7 -12 1 -27 -10 -27 -16 -21 -27 27 -5 26
-3 33 12 38 10 3 25 9 33 14 8 5 22 9 30 9 10 -1 11 -2 3 -6z m2392 -25 c6 -4
2 -8 -7 -8 -10 0 -18 7 -18 17 0 9 3 12 8 7 4 -5 12 -12 17 -16z m1495 -168
c0 -22 -16 -27 -23 -7 -3 9 -9 9 -26 -1 -17 -10 -21 -10 -21 1 0 20 10 27 42
27 21 0 28 -5 28 -20z m-2622 -21 c36 0 42 -3 27 -9 -28 -12 -145 -12 -145 0
0 6 11 10 24 10 13 0 27 8 31 18 8 16 8 16 12 0 3 -14 15 -18 51 -19z m777
-208 c-19 -37 -4 -41 23 -6 23 29 66 35 58 8 -17 -64 -14 -62 -67 -60 -50 1
-50 1 -43 30 6 28 34 70 42 63 2 -2 -4 -18 -13 -35z m-3180 -81 l57 0 15 -40
c16 -40 46 -59 76 -47 22 8 43 -9 30 -25 -6 -7 -16 -30 -23 -51 -12 -37 -13
-39 -47 -32 -73 13 -83 21 -83 64 0 22 6 44 15 51 18 15 19 42 3 58 -7 7 -36
12 -65 12 -54 0 -133 30 -133 50 0 6 22 -1 50 -15 35 -18 65 -25 105 -25z
m3845 -600 c107 0 170 -4 170 -10 0 -6 -61 -10 -164 -10 -90 0 -172 -3 -181
-7 -16 -6 -17 8 -13 181 l4 188 -42 -7 c-33 -5 -43 -3 -48 10 -8 21 1 35 21
35 13 0 13 -3 3 -15 -10 -12 -9 -15 6 -15 11 0 29 3 42 6 21 6 22 10 24 153 2
80 4 -1 5 -181 l3 -328 170 0z m-440 416 c0 -139 -4 -227 -10 -231 -7 -4 -10
70 -10 214 l0 221 -57 1 c-48 1 -53 3 -28 9 17 4 47 8 68 9 l37 1 0 -224z
m-4104 34 c8 0 14 -4 14 -10 0 -11 -11 -13 -34 -4 -17 6 -22 35 -8 48 4 4 8
-2 10 -13 2 -12 10 -21 18 -21z m3684 -162 c6 -24 13 -51 16 -60 3 -10 1 -18
-4 -18 -9 0 -32 74 -32 104 0 29 9 17 20 -26z m610 -68 c0 -5 -22 -10 -49 -10
-28 0 -51 -5 -53 -11 -3 -9 -11 -8 -28 2 l-25 13 35 7 c56 10 120 10 120 -1z
m-230 -10 c0 -6 -32 -9 -77 -9 -61 1 -70 3 -43 9 53 11 120 11 120 0z m-283
-52 c0 -13 3 -31 7 -40 5 -10 4 -18 -1 -18 -11 0 -33 44 -33 65 0 8 6 15 14
15 8 0 14 -10 13 -22z m304 -70 c-8 -22 -18 -27 -61 -33 -28 -4 -101 -4 -161
0 -96 6 -109 5 -109 -9 0 -9 -3 -16 -6 -16 -11 0 -36 31 -30 38 11 10 146 14
159 4 7 -5 53 -6 102 -3 l90 6 3 35 c1 19 6 42 9 50 12 25 15 -43 4 -72z
m-268 40 c6 -21 2 -36 -7 -27 -10 11 -16 49 -8 49 5 0 12 -10 15 -22z m-1584
3 c8 -5 12 -18 8 -30 -3 -14 0 -21 9 -21 8 0 14 -9 14 -20 0 -20 4 -21 60 -14
42 5 60 3 60 -5 0 -7 -23 -11 -64 -11 -57 0 -65 3 -80 25 -9 13 -16 33 -16 45
0 11 -4 20 -10 20 -5 0 -10 5 -10 10 0 12 10 13 29 1z m1451 -77 c0 -9 9 -28
20 -43 18 -27 18 -32 4 -122 -8 -52 -13 -129 -13 -172 1 -42 -1 -80 -4 -83 -3
-4 -14 -3 -24 0 -11 5 -14 10 -6 14 6 4 13 48 16 97 3 50 11 119 17 155 6 35
9 74 6 86 -6 21 -40 34 -92 34 -13 0 -24 5 -24 11 0 7 14 8 40 4 36 -6 40 -5
40 14 0 12 5 21 10 21 6 0 10 -7 10 -16z m-232 -170 c29 -8 32 -68 3 -83 -10
-6 -21 -25 -25 -43 -10 -51 -28 -19 -34 61 -5 77 -2 80 56 65z m926 -79 c4
-11 22 -15 71 -15 37 0 65 -4 65 -10 0 -14 -133 -13 -148 2 -14 14 -16 38 -3
38 5 0 11 -7 15 -15z m136 -92 c0 -9 -287 -26 -382 -23 l-38 1 -2 -73 -2 -73
-5 69 -6 69 -134 -2 c-93 -2 -131 1 -126 8 4 7 50 11 118 12 62 1 137 4 167 7
96 12 410 15 410 5z m-2132 -75 c9 -9 12 -9 12 1 0 7 5 9 11 6 7 -5 2 -16 -12
-31 -30 -32 -39 -30 -39 6 0 32 9 37 28 18z m1090 -150 c-1 -99 -2 -100 -7
-33 l-6 70 -40 4 -40 5 40 5 c32 5 41 11 43 29 7 51 12 16 10 -80z"/>
<path d="M1760 7605 c0 -3 9 -19 21 -37 18 -29 20 -30 15 -8 -3 14 -6 28 -6
31 0 8 -30 21 -30 14z"/>
<path d="M1760 7469 c0 -5 5 -7 10 -4 6 3 10 8 10 11 0 2 -4 4 -10 4 -5 0 -10
-5 -10 -11z"/>
<path d="M1867 7426 c15 -31 30 -56 34 -56 12 0 15 81 4 90 -5 5 -23 12 -38
15 l-28 7 28 -56z"/>
<path d="M4650 6485 c0 -28 4 -36 24 -41 14 -3 33 -4 43 -1 16 4 15 6 -4 12
-35 11 -28 28 8 20 42 -9 30 10 -18 30 -49 21 -53 20 -53 -20z"/>
<path d="M1511 5921 c-10 -7 -8 -10 8 -16 27 -8 36 -2 18 13 -7 6 -18 7 -26 3z"/>
<path d="M1503 5814 c-36 -40 -30 -76 19 -118 23 -20 44 -36 47 -36 3 0 16 25
29 57 16 39 20 59 13 66 -6 6 -11 19 -11 28 0 16 -27 29 -60 29 -8 0 -25 -12
-37 -26z"/>
<path d="M5578 5303 c7 -3 16 -2 19 1 4 3 -2 6 -13 5 -11 0 -14 -3 -6 -6z"/>
<path d="M6190 4766 c0 -9 5 -16 10 -16 6 0 10 4 10 9 0 6 -4 13 -10 16 -5 3
-10 -1 -10 -9z"/>
<path d="M6229 4639 c24 -23 35 -21 25 5 -3 9 -16 16 -27 16 -20 0 -20 0 2
-21z"/>
<path d="M6210 4619 c0 -5 5 -7 10 -4 6 3 10 8 10 11 0 2 -4 4 -10 4 -5 0 -10
-5 -10 -11z"/>
<path d="M4217 4690 c6 -23 23 -27 23 -6 0 8 6 17 13 19 6 3 0 6 -15 6 -21 1
-25 -3 -21 -19z"/>
<path d="M872 3904 c3 -17 21 -21 26 -6 1 5 -4 12 -13 16 -11 4 -15 1 -13 -10z"/>
<path d="M870 3855 c0 -8 7 -15 15 -15 8 0 15 7 15 15 0 8 -7 15 -15 15 -8 0
-15 -7 -15 -15z"/>
<path d="M555 3760 c3 -5 10 -10 16 -10 5 0 9 5 9 10 0 6 -7 10 -16 10 -8 0
-12 -4 -9 -10z"/>
<path d="M572 3720 c0 -14 2 -19 5 -12 2 6 2 18 0 25 -3 6 -5 1 -5 -13z"/>
<path d="M520 3704 c0 -8 5 -12 10 -9 6 3 10 10 10 16 0 5 -4 9 -10 9 -5 0
-10 -7 -10 -16z"/>
<path d="M5890 3492 c0 -6 -10 -13 -22 -15 -14 -3 -8 -5 15 -6 26 -1 37 3 35
11 -5 15 -28 23 -28 10z"/>
<path d="M6576 2264 c-3 -9 -6 -27 -6 -40 0 -19 5 -24 25 -24 23 0 25 4 25 40
0 33 -4 40 -19 40 -10 0 -22 -7 -25 -16z"/>
<path d="M6512 2205 c-17 -8 -32 -16 -32 -18 0 -7 70 6 75 13 10 16 -10 18
-43 5z"/>
<path d="M4556 1305 c-3 -8 -1 -15 4 -15 6 0 10 7 10 15 0 8 -2 15 -4 15 -2 0
-6 -7 -10 -15z"/>
<path d="M1382 1158 c-7 -7 -12 -24 -12 -38 0 -22 6 -29 39 -38 51 -16 58 -15
64 6 2 9 8 25 12 35 5 12 2 17 -11 17 -11 0 -32 7 -48 15 -34 18 -29 18 -44 3z"/>
<path d="M4050 498 c0 -19 2 -20 10 -8 13 19 13 30 0 30 -5 0 -10 -10 -10 -22z"/>
<path d="M4077 496 c-4 -10 -5 -21 -2 -24 9 -9 17 6 13 25 -3 17 -4 17 -11 -1z"/>
<path d="M2992 7878 l3 -122 210 2 c116 2 236 5 268 9 l57 6 0 54 0 54 -171
-2 c-93 0 -173 2 -176 5 -4 3 5 6 19 6 38 0 39 8 12 61 l-24 49 -59 0 c-54 0
-60 -2 -64 -22 l-4 -23 -8 23 c-5 16 -15 22 -36 22 l-30 0 3 -122z m151 5
c-18 -2 -48 -2 -65 0 -18 2 -4 4 32 4 36 0 50 -2 33 -4z m127 -78 c0 -19 -4
-35 -10 -35 -5 0 -10 16 -10 35 0 19 5 35 10 35 6 0 10 -16 10 -35z m-205 -33
c-2 -3 -11 1 -20 8 -12 10 -15 10 -15 -4 0 -9 -7 -16 -15 -16 -8 0 -15 5 -15
10 0 6 5 10 10 10 6 0 10 7 10 15 0 9 6 12 15 9 9 -4 15 0 16 7 0 8 5 3 10
-10 5 -13 7 -26 4 -29z"/>
<path d="M3225 7963 c22 -52 25 -52 25 -5 0 35 -3 42 -20 42 -19 0 -20 -1 -5
-37z"/>
<path d="M3270 7950 l0 -50 125 0 125 0 0 50 0 50 -125 0 -125 0 0 -50z"/>
<path d="M3540 7950 l0 -50 130 0 130 0 0 50 0 50 -130 0 -130 0 0 -50z"/>
<path d="M3820 7955 c0 -43 1 -45 25 -39 36 9 31 -12 -5 -25 -16 -5 -30 -14
-30 -19 0 -5 -29 -17 -65 -26 -50 -12 -165 -68 -165 -79 0 -1 49 -3 109 -5
l110 -3 43 58 c24 31 46 62 50 67 4 6 10 7 14 3 4 -3 1 -13 -6 -22 -7 -8 -11
-15 -9 -16 35 -7 51 -5 91 8 48 15 59 27 36 36 -10 4 -10 7 -1 14 8 6 9 14 3
23 -15 23 -12 40 5 34 8 -4 31 -3 50 0 24 5 33 11 28 21 -7 20 -32 19 -73 -1
-30 -16 -33 -16 -42 0 -7 13 -25 16 -88 16 l-80 0 0 -45z"/>
<path d="M4130 7990 c-12 -8 -11 -10 8 -10 16 0 22 -6 22 -22 0 -39 14 -50 61
-48 24 2 53 2 64 1 l20 -2 -20 -8 c-11 -4 -48 -5 -83 -3 l-63 4 6 30 7 30 -43
-7 c-65 -11 -75 -18 -52 -40 13 -13 14 -20 5 -23 -9 -3 -12 -39 -12 -132 0
-118 2 -129 19 -135 16 -5 20 -17 23 -78 4 -76 3 -85 -9 -73 -6 6 -10 46 -12
119 -1 24 -21 22 -21 -3 0 -11 6 -20 13 -20 9 0 9 -2 -1 -9 -8 -5 -12 -21 -10
-37 2 -21 -9 -47 -40 -94 l-42 -65 60 -3 c33 -2 60 -5 60 -8 0 -3 -7 -12 -15
-20 -22 -22 -18 -49 8 -62 21 -11 21 -12 -8 -11 -16 1 -49 -2 -72 -6 l-43 -8
0 -88 0 -88 338 1 338 0 -4 34 c-3 21 0 34 7 34 6 0 11 -16 11 -35 l0 -35 95
0 c95 0 96 0 106 28 11 26 5 196 -8 228 -4 11 -28 14 -104 14 -59 0 -99 4 -99
10 0 6 40 10 100 10 l100 0 0 29 c0 16 11 53 25 83 15 33 25 71 25 101 0 43
-2 47 -24 47 -19 0 -22 4 -18 25 3 16 11 25 23 25 16 0 19 8 19 45 l0 45 -65
0 c-51 0 -65 3 -65 15 0 8 5 15 10 15 6 0 10 -4 10 -10 0 -5 14 -10 30 -10 20
0 30 5 30 15 0 8 5 15 10 15 6 0 10 -7 10 -15 0 -8 7 -15 15 -15 26 0 16 29
-15 45 -30 16 -56 12 -45 -6 4 -5 1 -9 -4 -9 -6 0 -11 11 -11 24 0 13 -6 26
-12 29 -7 2 -10 8 -5 12 4 5 13 3 19 -3 15 -15 28 -15 28 -1 0 12 29 38 43 39
8 0 -13 -42 -27 -51 -13 -10 12 -21 34 -14 18 6 20 15 20 86 l0 79 -377 0
c-227 0 -384 -4 -393 -10z m188 -219 c20 -12 -7 -20 -44 -13 l-29 6 25 7 c34
10 33 10 48 0z m322 -76 c0 -43 -4 -75 -10 -75 -6 0 -10 32 -10 75 0 43 4 75
10 75 6 0 10 -32 10 -75z m-470 -65 c0 -5 -4 -10 -9 -10 -5 0 -16 -3 -25 -6
-9 -3 -16 -1 -16 4 0 9 16 17 43 21 4 0 7 -3 7 -9z m170 -1 c0 -5 -11 -9 -24
-9 -28 0 -36 -21 -36 -93 l0 -49 -42 7 c-24 4 -47 11 -52 15 -14 14 2 40 24
40 16 0 20 7 20 32 0 45 24 67 71 66 21 0 39 -4 39 -9z m418 -6 c-10 -2 -28
-2 -40 0 -13 2 -5 4 17 4 22 1 32 -1 23 -4z m-468 -173 c0 -5 -4 -10 -9 -10
-6 0 -13 5 -16 10 -3 6 1 10 9 10 9 0 16 -4 16 -10z m330 -100 c0 -6 -90 -10
-250 -10 -160 0 -250 4 -250 10 0 6 90 10 250 10 160 0 250 -4 250 -10z"/>
<path d="M4250 7590 c0 -11 2 -20 4 -20 2 0 6 9 9 20 3 11 1 20 -4 20 -5 0 -9
-9 -9 -20z"/>
<path d="M4251 7538 c-1 -12 -10 -18 -28 -19 l-28 -1 28 -10 c34 -12 40 -8 34
24 -3 14 -5 16 -6 6z"/>
<path d="M4988 7993 c6 -2 18 -2 25 0 6 3 1 5 -13 5 -14 0 -19 -2 -12 -5z"/>
<path d="M5814 7969 c3 -17 6 -98 6 -180 l0 -148 33 -4 32 -4 -32 -1 c-26 -2
-33 -6 -33 -22 0 -12 -17 -52 -37 -90 -27 -50 -35 -72 -26 -78 8 -5 8 -12 -3
-26 -7 -11 -17 -16 -21 -12 -4 4 -15 -8 -24 -26 -12 -23 -14 -39 -7 -58 5 -17
5 -37 -1 -53 -9 -23 -7 -31 10 -48 23 -23 32 -20 49 21 10 24 17 29 34 24 11
-3 26 -13 33 -21 9 -12 13 -11 26 8 9 12 13 27 11 34 -3 7 -1 16 5 20 6 3 11
18 11 33 0 37 11 72 21 72 5 0 9 -9 9 -20 0 -17 7 -20 44 -20 46 0 56 9 56 56
0 13 4 24 9 24 5 0 7 -18 4 -40 l-6 -40 36 0 c37 0 67 27 67 61 0 9 8 19 18
22 9 2 25 8 35 12 10 4 17 3 17 -4 0 -6 -10 -13 -23 -16 -14 -4 -30 -20 -39
-41 l-16 -34 154 0 154 0 0 45 c0 25 5 45 10 45 6 0 10 -21 10 -46 l0 -47 92
7 c50 3 192 6 315 6 147 0 222 3 218 10 -3 6 1 10 9 10 9 0 16 -4 16 -10 0 -5
5 -10 10 -10 6 0 10 50 10 130 l0 130 -165 0 -164 0 -4 -97 -3 -98 -2 99 -2
98 -157 -7 c-100 -5 -161 -11 -165 -19 -4 -6 -8 -34 -8 -62 l0 -51 -46 -7
c-76 -10 -314 -7 -314 4 0 6 7 10 15 10 10 0 15 10 15 30 0 24 4 30 23 30 12
0 32 3 45 6 16 5 22 2 22 -11 0 -12 -5 -15 -20 -10 -30 9 -60 -4 -60 -26 0
-15 7 -19 38 -19 37 0 61 16 75 53 5 14 19 17 72 17 37 0 65 -4 65 -10 0 -6
-27 -10 -60 -10 -49 0 -62 -3 -67 -17 -4 -10 -11 -21 -17 -26 -6 -4 35 -6 91
-5 l101 3 6 35 c12 70 8 89 -18 96 -14 3 -30 3 -36 -1 -18 -11 -439 -25 -463
-15 -12 5 -16 9 -9 9 7 1 10 6 7 11 -10 16 -13 90 -4 90 11 0 22 -38 14 -50
-3 -6 -3 -19 0 -30 5 -16 15 -20 51 -20 l44 0 0 65 0 65 -62 2 c-43 1 -50 2
-23 5 90 8 85 1 85 118 l0 105 -45 0 c-31 0 -47 -5 -54 -17 -10 -17 -10 -17
-11 0 0 14 -9 17 -46 17 l-46 0 6 -31z m40 -62 c10 -10 11 -15 0 -24 -9 -9
-14 -9 -18 3 -13 34 -4 44 18 21z"/>
<path d="M6025 7893 c4 -60 8 -109 10 -111 1 -1 43 1 93 4 l91 7 4 51 3 51 2
-52 2 -53 60 0 60 0 0 35 c0 19 5 35 10 35 6 0 10 -16 10 -35 0 -31 3 -35 25
-35 14 0 25 -4 25 -10 0 -5 -11 -10 -25 -10 -24 0 -25 -2 -24 -55 1 -30 5 -55
8 -55 3 0 17 13 30 29 20 24 27 27 42 18 19 -12 13 -41 -7 -33 -8 3 -14 -1
-14 -10 0 -12 24 -14 168 -12 l167 3 6 95 5 95 2 -92 c1 -50 5 -94 10 -96 4
-2 46 -1 95 1 l87 4 0 69 c0 39 4 69 10 69 6 0 10 -30 10 -70 l0 -70 60 0 60
0 0 130 c0 126 -1 130 -21 130 -14 0 -19 5 -16 14 3 7 -7 25 -22 40 l-27 26
-192 0 -192 0 -1 -22 c-1 -13 -2 -61 -3 -108 -1 -76 -3 -85 -21 -88 -19 -3
-19 -2 -2 11 12 10 17 29 17 66 0 48 -2 51 -25 51 -14 0 -25 -4 -25 -10 0 -5
10 -10 23 -10 18 0 19 -2 7 -10 -28 -18 -50 -12 -50 15 0 22 -3 24 -30 19 -16
-4 -63 -3 -105 1 -71 6 -75 8 -75 31 0 13 5 24 10 24 6 0 10 -10 10 -21 0 -21
3 -22 120 -17 66 3 122 7 124 9 2 2 6 15 8 29 l3 25 -197 3 c-172 2 -198 0
-198 -13 0 -8 -4 -15 -10 -15 -5 0 -10 7 -10 15 0 12 -17 15 -96 15 l-96 0 7
-107z m925 67 c-24 -15 -37 -11 -16 5 11 8 22 12 25 9 3 -3 -1 -9 -9 -14z
m-30 -40 c0 -11 -4 -20 -10 -20 -5 0 -10 9 -10 20 0 11 5 20 10 20 6 0 10 -9
10 -20z m-760 -7 c0 -4 -10 -17 -22 -30 -25 -26 -58 -31 -58 -7 0 11 6 13 19
9 14 -4 23 0 31 15 10 19 30 28 30 13z m802 -15 c-6 -6 -15 -8 -19 -4 -4 4 -1
11 7 16 19 12 27 3 12 -12z"/>
<path d="M7071 7981 c25 -20 39 -19 39 5 0 9 -11 14 -31 14 l-31 0 23 -19z"/>
<path d="M3540 7823 c0 -69 19 -61 27 11 5 38 3 46 -11 46 -13 0 -16 -11 -16
-57z"/>
<path d="M3593 7845 c1 -39 14 -44 51 -19 13 8 53 23 88 34 l63 18 -102 1
-101 1 1 -35z"/>
<path d="M2870 7860 c-8 -5 -11 -12 -7 -16 4 -4 13 -2 19 4 15 15 7 24 -12 12z"/>
<path d="M3854 7803 c-41 -53 -84 -118 -84 -126 0 -4 23 -7 50 -7 47 0 50 2
50 25 0 14 5 25 10 25 6 0 10 -16 10 -36 l0 -37 -73 5 -73 5 -32 -49 c-18 -26
-32 -58 -32 -71 0 -23 3 -23 58 -20 81 6 88 9 68 31 -27 31 -20 42 20 31 19
-6 50 -8 67 -4 29 5 30 4 15 -8 -21 -16 -24 -47 -5 -47 14 0 41 -39 33 -48 -4
-3 -13 3 -21 14 -13 16 -16 17 -25 4 -14 -22 -12 -40 5 -40 8 0 15 -4 15 -9 0
-5 3 -16 6 -25 3 -9 2 -16 -4 -16 -5 0 -12 10 -15 22 -10 35 -19 14 -12 -26 6
-31 11 -36 35 -36 23 0 35 12 74 71 l47 71 -5 111 c-3 62 -5 136 -5 166 l-1
54 -64 -5 c-36 -3 -69 -1 -74 4 -6 6 -20 -5 -38 -29z m156 -193 c-14 -4 -38
-8 -55 -9 -23 0 -26 2 -15 9 8 5 33 9 55 9 35 -1 37 -2 15 -9z"/>
<path d="M7188 7817 c-32 -12 -49 -46 -55 -109 l-5 -48 68 0 c53 0 65 3 56 12
-7 7 -12 42 -12 85 0 78 -2 80 -52 60z"/>
<path d="M2854 7806 c-3 -8 -4 -25 -2 -38 2 -19 5 -17 15 15 10 35 -1 55 -13
23z"/>
<path d="M2800 7760 c0 -5 6 -10 14 -10 8 0 18 5 21 10 3 6 -3 10 -14 10 -12
0 -21 -4 -21 -10z"/>
<path d="M6030 7705 l0 -66 138 6 c174 8 182 10 182 38 0 13 -5 28 -12 35 -8
8 -8 15 1 26 7 8 8 16 4 19 -4 2 -77 5 -160 6 l-153 2 0 -66z"/>
<path d="M3632 7700 c5 -47 13 -69 22 -59 2 2 6 28 8 57 5 47 3 52 -15 52 -17
0 -19 -5 -15 -50z"/>
<path d="M3680 7690 c0 -66 15 -79 43 -36 9 13 28 36 42 52 14 15 25 31 25 35
0 5 -25 9 -55 9 l-55 0 0 -60z"/>
<path d="M2844 7715 c-7 -27 7 -97 19 -96 4 1 30 1 57 1 l50 0 0 60 0 60 -60
0 c-55 0 -60 -2 -66 -25z"/>
<path d="M3028 7733 l-38 -4 0 -175 0 -175 29 28 c19 19 25 31 17 36 -8 6 -8
10 2 14 6 2 12 11 12 19 0 9 5 12 10 9 20 -13 30 6 15 29 -15 22 -12 36 8 36
6 0 7 -3 4 -7 -4 -3 0 -17 8 -30 15 -22 14 -25 -12 -47 l-27 -23 29 -26 c30
-25 30 -25 34 -4 1 12 0 63 -4 114 -7 92 -7 93 -33 94 -15 0 -21 3 -14 6 6 2
12 10 12 16 0 7 17 21 38 32 40 21 58 65 27 65 -12 0 -15 -6 -10 -19 8 -25
-25 -37 -56 -20 -21 11 -21 12 -4 21 12 8 20 7 26 -3 4 -7 11 -10 14 -7 4 4 4
11 0 17 -6 11 -15 11 -87 4z m42 -58 c0 -8 -7 -15 -15 -15 -8 0 -15 7 -15 15
0 8 7 15 15 15 8 0 15 -7 15 -15z"/>
<path d="M3580 7712 c0 -15 9 -35 20 -45 19 -16 20 -16 20 13 0 17 -5 30 -11
30 -8 0 -8 5 1 15 10 13 9 15 -9 15 -16 0 -21 -6 -21 -28z"/>
<path d="M5786 7661 c-4 -7 -5 -15 -2 -18 9 -9 19 4 14 18 -4 11 -6 11 -12 0z"/>
<path d="M5752 7622 c-9 -6 -12 -30 -10 -76 l2 -67 28 53 c32 63 36 98 11 98
-10 0 -24 -4 -31 -8z"/>
<path d="M5190 7600 c0 -11 3 -20 8 -20 4 0 13 9 20 20 11 18 10 20 -8 20 -13
0 -20 -7 -20 -20z"/>
<path d="M3820 7560 c0 -13 18 -22 24 -11 3 5 -1 11 -9 15 -8 3 -15 1 -15 -4z"/>
<path d="M3855 7540 c-3 -5 -1 -10 4 -10 6 0 11 5 11 10 0 6 -2 10 -4 10 -3 0
-8 -4 -11 -10z"/>
<path d="M3025 7400 c-3 -5 -1 -10 4 -10 6 0 11 5 11 10 0 6 -2 10 -4 10 -3 0
-8 -4 -11 -10z"/>
<path d="M6780 7333 c-1 -16 -5 -74 -10 -130 -7 -83 -15 -112 -40 -159 -47
-89 -43 -102 45 -149 50 -27 76 -47 80 -62 5 -22 9 -23 130 -23 l125 0 0 173
c0 94 3 209 7 255 5 70 4 82 -9 82 -9 0 -18 9 -21 20 -5 19 -14 20 -156 20
l-151 0 0 -27z"/>
<path d="M3814 7308 c8 -41 22 -50 66 -42 45 7 60 20 60 50 0 23 -3 24 -66 24
l-66 0 6 -32z"/>
<path d="M3960 7305 c0 -32 3 -35 28 -35 36 0 49 10 57 43 7 26 6 27 -39 27
-46 0 -46 0 -46 -35z"/>
<path d="M5652 7265 c-18 -36 -32 -67 -32 -68 0 -2 15 -1 33 1 l32 4 2 64 c1
35 1 64 0 64 -2 0 -17 -29 -35 -65z"/>
<path d="M3908 7253 c-3 -4 4 -16 14 -26 19 -18 20 -18 16 4 -3 23 -23 37 -30
22z"/>
<path d="M5700 7191 c0 -7 -10 -12 -22 -11 -37 3 -48 1 -48 -11 0 -6 -11 -20
-25 -31 -14 -11 -30 -28 -35 -39 -9 -15 -7 -19 7 -19 21 1 139 107 130 117 -4
3 -7 1 -7 -6z"/>
<path d="M7135 6912 c-13 -14 -2 -22 30 -22 19 0 35 4 35 9 0 10 -57 21 -65
13z"/>
<path d="M3653 6082 c-113 -3 -113 -3 -113 -27 0 -17 6 -25 18 -25 10 0 33
-16 52 -35 31 -31 34 -41 42 -122 4 -48 11 -104 14 -123 9 -52 10 -88 1 -155
-5 -41 -4 -55 3 -45 21 32 9 -10 -15 -51 -23 -40 -25 -42 -20 -14 18 116 25
213 16 244 -6 19 -13 75 -17 125 -6 84 -9 94 -37 124 -29 30 -36 32 -96 32
-37 0 -133 -5 -216 -11 -94 -6 -183 -7 -237 -2 -68 7 -95 6 -123 -5 -19 -8
-35 -17 -35 -21 1 -3 20 -55 43 -116 l42 -109 283 3 282 3 0 -41 c0 -23 -4
-41 -10 -41 -5 0 -10 16 -10 36 0 29 -3 35 -16 30 -9 -3 -56 -6 -105 -6 -72 0
-89 -3 -89 -15 0 -8 5 -15 10 -15 6 0 10 -4 10 -10 0 -5 -9 -10 -20 -10 -15 0
-20 7 -20 25 l0 25 -155 0 -155 0 20 -52 c12 -29 71 -188 131 -353 61 -165
115 -307 120 -317 6 -11 17 -14 31 -11 l23 5 -22 -16 c-43 -32 -65 -86 -89
-211 -18 -98 -20 -131 -12 -164 10 -37 12 -40 39 -34 18 3 29 1 29 -6 0 -6 -9
-11 -20 -11 -11 0 -20 -4 -20 -10 0 -5 10 -10 23 -10 14 0 18 -3 10 -8 -9 -5
1 -25 33 -65 40 -50 50 -57 81 -57 25 0 46 -9 76 -35 28 -24 50 -35 73 -35 30
0 33 3 32 30 -1 17 7 39 17 50 21 23 23 99 3 111 -10 7 -10 9 0 9 6 0 12 5 12
10 0 6 -47 10 -120 10 -73 0 -120 4 -120 10 0 6 47 10 120 10 l120 0 0 60 c0
50 -3 60 -17 60 -16 0 -16 1 0 13 16 11 17 33 15 207 l-3 195 -40 0 c-33 0
-41 -4 -43 -22 -8 -56 -68 -25 -74 39 -6 54 29 137 43 103 6 -16 8 -13 6 13
-1 26 6 38 36 63 20 17 37 39 37 50 0 11 8 22 18 26 9 3 29 20 44 37 l27 31 1
-92 0 -92 28 3 c15 2 73 4 128 5 l101 1 2 113 c1 61 -2 154 -5 205 l-6 92 -33
0 c-22 0 -46 -11 -76 -34 -24 -19 -46 -33 -49 -30 -8 8 92 94 123 106 24 9 28
15 24 37 -3 14 4 63 15 108 16 65 18 94 11 145 l-8 63 -55 0 c-30 0 -106 -1
-167 -3z m167 -72 c0 -33 -4 -60 -10 -60 -6 0 -10 27 -10 60 0 33 4 60 10 60
6 0 10 -27 10 -60z m-43 -14 c-10 -11 -17 -12 -25 -4 -7 7 -7 16 0 28 10 15
14 16 25 4 12 -12 12 -16 0 -28z m-67 -393 c0 -14 -19 -38 -25 -32 -8 8 5 39
16 39 5 0 9 -3 9 -7z m-321 -484 c-13 -26 -20 -21 -12 9 3 12 9 19 14 16 5 -3
4 -14 -2 -25z m-28 -62 c-8 -8 -11 -7 -11 4 0 20 13 34 18 19 3 -7 -1 -17 -7
-23z m-21 -37 c-20 -13 -33 -13 -25 0 3 6 14 10 23 10 15 0 15 -2 2 -10z m-20
-47 c-1 -10 -50 -46 -50 -37 0 11 32 44 42 44 4 0 8 -3 8 -7z m-85 -293 c-3
-5 -13 -10 -21 -10 -8 0 -12 5 -9 10 3 6 13 10 21 10 8 0 12 -4 9 -10z m68
-147 c-7 -2 -21 -2 -30 0 -10 3 -4 5 12 5 17 0 24 -2 18 -5z m205 0 c-21 -2
-55 -2 -75 0 -21 2 -4 4 37 4 41 0 58 -2 38 -4z"/>
<path d="M5835 5805 c-5 -2 -31 -6 -57 -10 -34 -4 -48 -11 -48 -21 0 -13 10
-14 68 -8 37 4 77 8 90 8 23 1 32 16 10 16 -9 0 -8 4 2 10 11 7 6 10 -20 9
-19 0 -39 -2 -45 -4z"/>
<path d="M5684 5755 c-10 -8 -14 -14 -9 -15 15 0 40 18 34 24 -3 3 -14 -1 -25
-9z"/>
<path d="M2532 5653 c-173 -4 -164 2 -122 -83 10 -19 21 -70 25 -112 l7 -78
-161 0 c-88 0 -161 -2 -161 -4 0 -3 46 -65 103 -139 56 -74 144 -193 195 -263
119 -163 165 -224 310 -407 l117 -148 3 76 c4 107 22 94 22 -16 l0 -91 48 -60
47 -61 5 139 c3 77 2 144 -1 149 -11 17 -5 51 14 69 20 20 22 62 5 118 -10 33
-9 41 5 55 20 20 35 10 17 -11 -9 -12 -9 -25 0 -63 10 -38 10 -56 0 -88 -7
-22 -15 -116 -20 -209 l-7 -170 28 -60 c29 -61 29 -61 95 -80 76 -22 97 -50
69 -92 -16 -24 -19 -61 -9 -88 11 -29 23 -17 17 18 -3 21 -1 36 7 41 7 5 11 1
10 -11 -4 -34 0 -43 21 -55 25 -13 39 1 39 39 0 17 -6 22 -27 22 -26 0 -26 1
-7 15 17 13 17 14 2 15 -14 0 -18 9 -18 38 0 42 -16 56 -71 67 -28 5 -43 19
-81 75 -52 74 -53 91 -8 110 36 15 40 43 21 123 -13 55 -13 60 7 86 13 19 17
32 11 38 -7 7 1 37 21 87 20 52 30 94 30 131 0 30 5 55 10 55 21 0 10 -99 -20
-177 -34 -89 -35 -93 -15 -93 9 0 12 6 9 15 -3 8 3 29 14 47 11 19 29 86 41
157 13 74 31 139 44 161 l21 37 -87 234 c-48 129 -104 281 -125 339 l-39 105
-71 3 -72 3 0 -134 0 -134 -37 -7 c-63 -10 -283 -7 -283 4 0 6 57 10 150 10
l150 0 0 130 0 130 -72 -2 c-40 -1 -142 -4 -226 -5z m-106 -329 c-3 -9 -6 -40
-6 -70 0 -34 -4 -53 -10 -49 -20 12 -9 135 12 135 6 0 7 -7 4 -16z m-7 -161
c0 -5 -4 -17 -9 -28 -8 -18 -9 -17 -9 8 -1 15 4 27 9 27 6 0 10 -3 9 -7z m651
-163 c0 -5 -4 -10 -10 -10 -5 0 -10 5 -10 10 0 6 5 10 10 10 6 0 10 -4 10 -10z
m-88 -338 c5 -17 -18 -49 -28 -39 -7 7 7 57 16 57 4 0 10 -8 12 -18z"/>
<path d="M2240 5615 c0 -27 15 -34 24 -10 3 8 12 15 21 15 8 0 15 5 15 10 0 6
-13 10 -30 10 -25 0 -30 -4 -30 -25z"/>
<path d="M2250 5576 c0 -2 7 -7 16 -10 8 -3 12 -2 9 4 -6 10 -25 14 -25 6z"/>
<path d="M4687 5406 c-21 -22 -22 -36 -2 -36 17 0 29 22 23 41 -3 8 -9 6 -21
-5z"/>
<path d="M3587 5393 c-11 -10 -8 -123 3 -123 6 0 10 28 10 65 0 65 -1 71 -13
58z"/>
<path d="M1866 5373 l-149 -4 8 -37 c4 -20 6 -47 6 -59 -1 -19 5 -23 32 -23
57 0 61 -10 27 -71 -39 -71 -41 -146 -6 -210 13 -24 27 -69 30 -100 l7 -56
-102 -6 c-110 -6 -123 -12 -132 -64 -5 -26 -2 -35 14 -44 23 -12 203 -13 587
-3 l242 7 0 109 0 109 -72 101 c-40 55 -83 114 -94 132 -12 17 -55 74 -96 126
-85 109 -50 98 -302 93z m274 -583 c0 -11 -1 -20 -3 -20 -1 0 -10 9 -20 20
-16 19 -16 20 3 20 13 0 20 -7 20 -20z m-360 -5 c0 -8 -4 -15 -10 -15 -5 0
-10 7 -10 15 0 8 5 15 10 15 6 0 10 -7 10 -15z"/>
<path d="M3521 5316 l-34 -41 33 -3 c17 -2 34 -1 37 1 2 3 3 23 1 44 l-3 40
-34 -41z"/>
<path d="M4605 5320 c-30 -32 -63 -45 -136 -55 -44 -6 -47 -8 -54 -42 -3 -20
-16 -44 -28 -54 -21 -18 -18 -18 146 -19 l167 0 0 66 c0 59 -3 68 -25 86 -14
11 -25 26 -25 34 0 22 -13 17 -45 -16z"/>
<path d="M3890 5210 l0 -60 164 0 163 0 42 60 42 60 -205 0 -206 0 0 -60z"/>
<path d="M3474 5230 c-5 -23 -12 -30 -29 -30 -14 0 -25 -7 -28 -20 -5 -21 18
-29 25 -9 2 6 28 14 57 17 39 3 52 2 47 -7 -4 -6 -20 -11 -37 -11 -22 0 -29
-5 -29 -20 0 -17 7 -20 40 -20 l40 0 0 65 0 65 -40 0 c-37 0 -41 -3 -46 -30z
m56 5 c0 -8 5 -15 10 -15 6 0 10 -4 10 -10 0 -5 -12 -10 -26 -10 -20 0 -25 4
-20 16 3 9 6 20 6 25 0 5 5 9 10 9 6 0 10 -7 10 -15z"/>
<path d="M3580 5195 c0 -37 4 -65 10 -65 6 0 10 28 10 65 0 37 -4 65 -10 65
-6 0 -10 -28 -10 -65z"/>
<path d="M3620 5020 c0 -131 3 -252 6 -269 6 -31 7 -31 66 -31 54 0 69 5 137
46 42 25 77 48 79 49 2 2 -4 17 -12 34 -12 22 -16 61 -16 153 l0 123 -122 -2
c-79 -1 -116 1 -103 7 11 5 66 9 123 9 l102 1 0 60 0 61 -130 -2 -130 -1 0
-238z"/>
<path d="M3445 5151 c-3 -5 -1 -12 5 -16 5 -3 10 1 10 9 0 18 -6 21 -15 7z"/>
<path d="M3899 5123 c-1 -5 -1 -62 1 -128 3 -135 11 -171 38 -160 9 4 26 8 37
9 11 2 29 17 40 34 21 32 42 44 31 16 -13 -34 16 0 39 47 25 49 66 86 84 75
12 -8 22 18 28 72 l4 42 -150 0 c-83 0 -152 -3 -152 -7z"/>
<path d="M4220 5111 c0 -11 -3 -26 -6 -35 -5 -12 1 -16 24 -16 22 0 36 9 56
35 l27 35 -50 0 c-44 0 -51 -3 -51 -19z"/>
<path d="M3587 5113 c-8 -14 5 -393 14 -393 7 0 1 389 -6 398 -2 2 -5 0 -8 -5z"/>
<path d="M2450 4797 l0 -97 64 0 c36 0 67 4 70 9 5 7 -81 126 -125 176 -5 5
-9 -33 -9 -88z"/>
<path d="M3945 4817 c-11 -8 -14 -16 -8 -20 6 -4 18 2 28 13 21 23 8 27 -20 7z"/>
<path d="M3835 4749 c-73 -45 -85 -49 -142 -49 l-63 0 0 -80 0 -80 53 0 c28 0
59 5 67 10 11 7 -2 10 -42 10 -79 0 -73 18 7 22 l65 3 0 -27 0 -28 -74 0 -74
0 -4 -50 c-1 -28 -1 -50 1 -50 2 0 21 14 42 31 22 17 46 28 54 25 8 -3 15 -1
15 3 0 5 20 22 44 37 47 30 55 46 56 104 0 28 7 40 35 60 36 27 60 73 47 96
-5 10 -26 1 -87 -37z"/>
<path d="M3931 4731 c-1 -7 -19 -30 -40 -50 -33 -30 -38 -41 -34 -66 4 -28 8
-30 38 -27 31 4 33 7 43 58 7 34 8 63 2 77 -5 12 -9 16 -9 8z"/>
<path d="M3590 4620 c0 -47 4 -80 10 -80 6 0 10 33 10 80 0 47 -4 80 -10 80
-6 0 -10 -33 -10 -80z"/>
<path d="M3142 4600 c-9 -15 -8 -19 4 -24 23 -9 24 -8 24 13 0 28 -14 33 -28
11z"/>
<path d="M3860 4561 c0 -4 -22 -22 -50 -39 -27 -17 -50 -36 -50 -42 0 -5 -13
-10 -28 -10 -17 0 -38 -10 -52 -25 -13 -14 -29 -25 -36 -25 -12 0 -24 -30 -24
-62 0 -16 13 -18 133 -18 l134 0 16 100 c22 132 23 130 -13 130 -16 0 -30 -4
-30 -9z"/>
<path d="M3092 4513 c-16 -24 -17 -33 -7 -68 9 -31 17 -40 33 -39 12 0 58 1
103 2 l80 2 -47 60 c-38 48 -53 60 -75 60 -26 0 -28 -2 -22 -30 3 -19 1 -30
-6 -30 -6 0 -11 16 -11 35 0 43 -21 47 -48 8z"/>
<path d="M3590 4474 c0 -34 4 -53 10 -49 6 3 10 28 10 56 0 27 -4 49 -10 49
-5 0 -10 -25 -10 -56z"/>
<path d="M3556 4394 c-3 -9 -6 -27 -6 -40 0 -22 -4 -24 -44 -24 -33 0 -52 7
-74 25 -30 25 -33 25 -179 23 l-148 -3 -3 -31 c-2 -24 -11 -34 -38 -47 -18 -9
-34 -20 -34 -24 1 -5 20 -35 43 -68 31 -43 50 -61 72 -65 55 -12 72 -27 79
-70 l6 -40 49 0 c52 0 66 10 74 50 3 20 5 19 6 -9 1 -41 -20 -60 -69 -61 -24
0 -31 -3 -21 -9 8 -5 11 -16 7 -27 -4 -11 1 -24 13 -35 14 -13 21 -15 24 -6 3
8 12 4 28 -12 l23 -25 10 35 10 34 4 -32 c3 -29 7 -33 31 -33 23 0 30 5 33 25
3 14 1 25 -3 25 -5 0 -9 5 -9 10 0 6 18 10 41 10 35 0 40 2 34 18 -12 28 -11
55 3 59 8 3 12 -6 12 -26 0 -53 69 -100 71 -48 1 23 0 212 0 235 -1 6 -8 12
-16 12 -8 0 -15 9 -15 20 0 25 17 26 23 3 3 -11 5 -7 6 10 0 16 -3 26 -8 23
-5 -4 -20 -2 -33 3 -17 7 -18 10 -5 10 11 1 17 9 17 24 0 12 3 39 6 60 7 37
-8 53 -20 21z m-38 -111 c-10 -2 -26 -2 -35 0 -10 3 -2 5 17 5 19 0 27 -2 18
-5z m-126 -291 c-5 -16 -42 -36 -50 -28 -3 4 3 12 13 20 10 7 15 18 11 25 -4
6 -2 19 5 28 12 14 14 13 20 -8 3 -13 4 -30 1 -37z"/>
<path d="M3597 4403 c-11 -10 -8 -63 3 -63 6 0 10 16 10 35 0 36 -2 40 -13 28z"/>
<path d="M2870 4125 l0 -225 138 6 c75 4 138 7 139 8 1 1 -2 19 -8 39 -9 32
-7 42 10 66 34 48 28 57 -53 81 -74 22 -75 23 -97 74 -18 44 -112 176 -125
176 -2 0 -4 -101 -4 -225z"/>
<path d="M3590 4306 c0 -9 5 -16 10 -16 6 0 10 4 10 9 0 6 -4 13 -10 16 -5 3
-10 -1 -10 -9z"/>
<path d="M600 4194 c0 -9 5 -14 12 -12 18 6 21 28 4 28 -9 0 -16 -7 -16 -16z"/>
<path d="M6750 4119 c0 -5 5 -7 10 -4 6 3 10 8 10 11 0 2 -4 4 -10 4 -5 0 -10
-5 -10 -11z"/>
<path d="M3853 4098 c-27 -13 -31 -53 -7 -62 35 -13 44 -7 44 34 0 43 -3 45
-37 28z"/>
<path d="M950 4031 c0 -5 6 -14 14 -20 12 -10 13 -8 9 8 -5 21 -23 30 -23 12z"/>
<path d="M5133 4022 c-109 -2 -123 -5 -123 -20 0 -14 8 -16 52 -14 51 3 53 3
53 -22 0 -29 -10 -34 -19 -11 -6 17 -86 21 -86 4 0 -5 5 -7 10 -4 6 3 10 2 10
-4 0 -5 -4 -13 -10 -16 -5 -3 -10 -38 -10 -77 l0 -70 118 6 c64 4 136 9 160
12 l42 5 0 110 0 110 -37 -3 c-21 -2 -93 -4 -160 -6z"/>
<path d="M4870 3983 c0 -33 3 -38 23 -38 12 -1 39 -4 60 -8 l37 -8 0 46 0 45
-60 0 -60 0 0 -37z"/>
<path d="M940 3995 c0 -8 4 -15 10 -15 5 0 7 7 4 15 -4 8 -8 15 -10 15 -2 0
-4 -7 -4 -15z"/>
<path d="M3470 3930 c0 -25 4 -30 25 -30 26 0 35 24 13 33 -10 4 -9 8 2 16 12
9 10 11 -12 11 -24 0 -28 -4 -28 -30z"/>
<path d="M3540 3915 c0 -10 10 -15 30 -15 20 0 30 5 30 15 0 10 -10 15 -30 15
-20 0 -30 -5 -30 -15z"/>
<path d="M3620 3915 c0 -8 7 -15 15 -15 9 0 12 6 9 15 -4 8 -10 15 -15 15 -5
0 -9 -7 -9 -15z"/>
<path d="M4876 3915 c-3 -9 -6 -43 -6 -76 l0 -59 38 0 c77 0 82 5 82 75 0 59
-1 63 -22 62 -13 0 -37 3 -54 7 -25 5 -33 3 -38 -9z"/>
<path d="M3190 3899 c0 -20 21 -49 35 -49 11 0 11 5 -3 30 -17 30 -32 39 -32
19z"/>
<path d="M3244 3876 c21 -32 156 -36 156 -5 0 6 -5 7 -11 3 -6 -3 -14 -2 -18
3 -3 6 -36 12 -73 15 -66 4 -67 3 -54 -16z"/>
<path d="M4430 3889 c-151 -4 -310 -7 -352 -8 -72 -1 -78 -3 -78 -22 0 -17 5
-20 28 -15 15 3 186 8 380 12 323 6 354 8 362 24 8 16 5 18 -28 16 -20 0 -161
-4 -312 -7z"/>
<path d="M3420 3876 c0 -16 18 -31 27 -22 3 3 -2 12 -11 21 -14 14 -16 14 -16
1z"/>
<path d="M3470 3865 c0 -8 4 -15 8 -15 5 0 9 7 9 15 0 8 -4 15 -9 15 -4 0 -8
-7 -8 -15z"/>
<path d="M3511 3864 c0 -11 3 -14 6 -6 3 7 2 16 -1 19 -3 4 -6 -2 -5 -13z"/>
<path d="M3540 3866 c0 -7 10 -16 23 -20 34 -9 37 -8 37 14 0 16 -7 20 -30 20
-19 0 -30 -5 -30 -14z"/>
<path d="M3620 3860 c0 -11 7 -20 15 -20 8 0 15 9 15 20 0 11 -7 20 -15 20 -8
0 -15 -9 -15 -20z"/>
<path d="M3670 3860 c0 -19 7 -20 155 -20 148 0 155 1 155 20 0 19 -7 20 -129
20 -115 0 -130 -2 -134 -17 -4 -17 -5 -17 -6 0 -2 25 -41 23 -41 -3z"/>
<path d="M3240 3815 c7 -8 23 -15 36 -15 13 0 42 -7 64 -16 23 -9 43 -14 45
-12 6 6 -121 58 -141 58 -14 0 -14 -3 -4 -15z"/>
<path d="M3343 3814 c15 -8 32 -12 37 -9 5 3 17 -1 27 -10 26 -22 36 -19 40
10 4 25 3 25 -64 25 -66 -1 -67 -1 -40 -16z"/>
<path d="M3500 3819 c0 -5 5 -7 10 -4 6 3 10 8 10 11 0 2 -4 4 -10 4 -5 0 -10
-5 -10 -11z"/>
<path d="M3543 3816 c9 -7 17 -23 17 -35 0 -14 6 -21 20 -21 16 0 20 7 20 35
0 34 -1 35 -37 35 -34 -1 -36 -2 -20 -14z"/>
<path d="M3617 3823 c-4 -3 -7 -19 -7 -35 0 -21 5 -28 20 -28 16 0 20 7 20 35
0 33 -16 46 -33 28z"/>
<path d="M3670 3795 c0 -24 5 -35 15 -35 10 0 15 11 15 35 0 24 -5 35 -15 35
-10 0 -15 -11 -15 -35z"/>
<path d="M3720 3810 c0 -11 6 -20 14 -20 24 0 28 18 6 30 -17 9 -20 8 -20 -10z"/>
<path d="M3480 3780 c0 -5 15 -10 33 -9 27 0 29 2 12 9 -28 12 -45 12 -45 0z"/>
<path d="M3720 3754 c0 -11 -6 -14 -21 -9 -22 7 -22 7 2 -25 13 -17 30 -42 36
-53 11 -19 13 -14 13 41 0 48 -3 62 -15 62 -8 0 -15 -7 -15 -16z"/>
<path d="M3387 3730 c3 -11 9 -20 14 -20 5 0 9 9 9 20 0 11 -6 20 -14 20 -9 0
-12 -7 -9 -20z"/>
<path d="M4040 3581 l0 -102 50 2 c55 3 64 6 73 32 3 9 14 17 24 17 13 0 14
-3 5 -12 -7 -7 -12 -16 -12 -20 0 -4 63 -8 140 -8 77 0 140 3 140 8 0 4 -35
27 -77 51 l-76 43 -33 -36 c-32 -35 -54 -46 -54 -26 0 6 6 10 13 10 12 1 53
49 45 54 -1 2 -48 19 -103 38 -55 20 -108 39 -117 43 -16 7 -18 -2 -18 -94z"/>
<path d="M3766 3573 c-12 -76 -9 -90 25 -97 30 -6 79 1 79 11 0 6 -90 123 -94
123 -2 0 -6 -17 -10 -37z"/>
<path d="M3916 3463 c-3 -3 -6 -30 -6 -60 0 -40 4 -53 15 -53 17 0 52 36 61
63 6 18 12 19 65 13 57 -6 59 -5 59 19 0 24 -1 24 -94 24 -51 0 -96 -3 -100
-6z"/>
<path d="M4130 3454 c0 -9 5 -14 12 -12 18 6 21 28 4 28 -9 0 -16 -7 -16 -16z"/>
<path d="M3800 3452 l-35 -3 0 -149 c0 -113 3 -150 13 -150 6 0 11 3 11 8 -1
4 -1 24 0 44 1 32 4 37 29 40 23 3 27 8 30 40 2 26 9 39 23 43 16 5 19 16 19
69 0 70 7 66 -90 58z"/>
<path d="M3867 3303 c-4 -3 -7 -21 -7 -39 0 -26 -4 -33 -22 -36 -48 -7 -30
-117 19 -118 14 0 23 -7 26 -22 2 -13 5 32 6 100 1 111 -3 134 -22 115z"/>
<path d="M4940 3206 c0 -2 11 -11 25 -20 24 -16 25 -16 25 4 0 15 -7 20 -25
20 -14 0 -25 -2 -25 -4z"/>
<path d="M3770 3117 c0 -19 38 -52 48 -42 4 4 1 10 -5 12 -7 3 -13 13 -13 24
0 10 -7 19 -15 19 -8 0 -15 -6 -15 -13z"/>
<path d="M925 2773 c-3 -32 -8 -118 -11 -190 l-5 -133 66 0 67 0 -6 118 c-4
64 -9 150 -12 190 l-6 72 -43 0 -43 0 -7 -57z"/>
<path d="M2 2480 c0 -14 2 -19 5 -12 2 6 2 18 0 25 -3 6 -5 1 -5 -13z"/>
<path d="M5 2441 c-3 -2 -5 -100 -5 -218 l0 -213 34 0 c25 0 35 5 39 20 4 15
13 20 34 19 23 -1 24 -2 6 -6 -13 -2 -23 -11 -23 -19 0 -17 16 -19 24 -1 5 10
7 10 12 0 6 -14 50 -18 57 -5 7 13 -38 69 -53 64 -12 -4 -12 -1 1 14 28 32 47
114 27 114 -27 0 12 23 49 29 25 4 39 12 41 24 4 19 -51 74 -83 83 -11 3 -35
20 -52 37 l-33 31 0 -25 c-1 -21 -2 -22 -13 -8 -7 9 -18 14 -26 11 -10 -3 -12
0 -8 12 4 9 10 22 13 30 4 11 -1 14 -16 13 -11 -1 -23 -3 -25 -6z"/>
<path d="M204 2190 c1 -50 27 -52 37 -3 7 36 4 43 -21 43 -14 0 -17 -9 -16
-40z"/>
</g>
</svg>
