<?xml version="1.0" standalone="no"?>
<!DOCTYPE svg PUBLIC "-//W3C//DTD SVG 20010904//EN"
 "http://www.w3.org/TR/2001/REC-SVG-20010904/DTD/svg10.dtd">
<svg version="1.0" xmlns="http://www.w3.org/2000/svg"
 width="800.000000pt" height="800.000000pt" viewBox="0 0 800.000000 800.000000"
 preserveAspectRatio="xMidYMid meet">
<metadata>
Created by potrace 1.16, written by Peter Selinger 2001-2019
</metadata>
<g transform="translate(0.000000,800.000000) scale(0.100000,-0.100000)"
fill="#000000" stroke="none">
<path d="M0 6920 c0 -783 3 -1080 11 -1080 6 0 9 -7 6 -15 -4 -8 -2 -17 3 -20
16 -10 11 -28 -5 -21 -13 5 -15 -117 -15 -1055 l0 -1060 26 20 c15 12 39 21
54 21 32 0 55 23 46 46 -3 8 -3 27 0 40 5 19 11 23 25 19 12 -4 21 -1 25 9 11
30 26 16 22 -20 -4 -35 -4 -36 26 -29 17 4 48 8 69 9 27 2 48 13 71 35 24 23
41 31 68 31 32 0 37 3 43 30 4 16 11 33 17 36 7 4 8 -4 3 -25 -8 -36 4 -40 30
-11 10 11 25 20 33 20 13 0 13 -3 -1 -18 -10 -10 -17 -27 -17 -38 -1 -10 -7
-30 -15 -44 -20 -35 -19 -68 3 -72 26 -6 73 9 96 31 41 39 140 44 220 12 25
-10 32 -9 50 8 12 10 36 22 55 26 19 4 53 25 76 46 35 33 48 38 80 36 38 -2
38 -2 50 48 15 67 21 75 55 75 40 0 132 -21 150 -35 34 -25 70 -37 99 -33 35
5 42 -7 11 -17 -30 -9 -73 3 -111 31 -18 13 -47 24 -63 24 -17 0 -37 4 -45 9
-7 5 -25 5 -40 2 -21 -6 -28 -17 -38 -57 -15 -56 -34 -75 -72 -68 -21 4 -36
-3 -73 -35 -25 -23 -55 -41 -66 -41 -11 0 -35 -12 -52 -26 -30 -26 -32 -26
-68 -11 -87 37 -161 32 -218 -14 -58 -46 -134 -38 -126 14 4 21 -7 22 -37 1
-23 -16 -25 -16 -42 7 l-19 24 -19 -24 c-16 -20 -24 -23 -57 -18 -23 4 -43 2
-52 -5 -23 -19 -51 -19 -63 0 -11 18 -59 20 -59 3 0 -19 -44 -51 -69 -51 -17
0 -39 -10 -55 -26 -24 -25 -26 -33 -26 -118 l1 -91 29 35 c16 19 32 48 36 63
7 35 38 49 149 71 44 8 92 19 107 25 40 15 98 11 140 -10 43 -22 69 -24 86 -7
7 7 12 8 12 2 0 -16 -22 -34 -42 -34 -11 0 -36 9 -58 20 -46 23 -104 26 -157
6 -21 -7 -69 -19 -108 -26 -83 -15 -110 -29 -119 -66 -4 -15 -23 -45 -42 -67
l-34 -41 0 -793 c0 -488 4 -792 9 -788 5 3 12 1 16 -5 3 -5 -1 -10 -9 -10 -14
0 -16 -39 -16 -344 0 -266 3 -345 13 -349 9 -4 9 -7 -1 -14 -19 -14 -15 -264
4 -256 10 4 12 0 8 -11 -3 -9 -1 -16 5 -16 6 0 11 -4 11 -10 0 -5 -9 -10 -20
-10 -16 0 -20 -7 -20 -34 l0 -34 42 13 c38 10 43 16 46 44 2 17 6 31 8 31 3 0
29 -12 59 -26 l54 -27 33 20 c18 10 37 29 43 41 8 19 34 38 40 30 1 -2 11 -32
21 -68 13 -42 25 -66 36 -68 28 -5 55 35 61 92 3 35 15 69 33 96 l28 42 18
-22 c10 -12 18 -30 18 -40 0 -16 18 -30 40 -30 4 0 35 42 68 93 62 96 147 195
158 184 7 -6 -9 -27 -45 -60 -13 -12 -55 -69 -94 -127 -38 -58 -71 -107 -73
-109 -2 -2 -15 0 -29 3 -17 4 -31 18 -41 41 -8 19 -16 35 -18 35 -13 0 -46
-72 -46 -99 0 -42 -24 -97 -47 -110 -36 -19 -66 8 -83 73 -15 56 -16 57 -28
32 -6 -14 -29 -34 -52 -46 l-40 -20 -44 20 c-55 25 -54 25 -58 -2 -2 -14 -14
-25 -33 -30 -16 -5 -40 -14 -52 -20 l-23 -11 0 -364 0 -363 183 0 c118 0 187
4 194 11 8 8 13 8 17 0 5 -8 1081 -11 3807 -11 l3799 0 0 4000 0 4000 -4000 0
-4000 0 0 -1080z m5878 -41 c3 -42 -1 -56 -19 -75 -20 -22 -47 -24 -34 -3 4 5
1 9 -6 9 -8 0 -7 5 3 18 8 9 18 26 22 37 6 16 9 17 16 5 6 -10 7 -2 3 23 -3
20 -2 37 3 37 5 0 10 -23 12 -51z m246 -22 c10 -15 16 -30 12 -34 -3 -3 -7 -4
-9 -2 -1 2 -13 19 -25 37 -15 21 -21 40 -16 50 6 15 7 15 13 -3 3 -11 14 -33
25 -48z m-3664 24 c0 -12 -20 -25 -27 -18 -7 7 6 27 18 27 5 0 9 -4 9 -9z m88
-47 c12 -4 22 -13 22 -21 0 -11 -5 -13 -17 -8 -10 4 -26 10 -35 12 -21 6 -24
23 -5 23 6 0 22 -3 35 -6z m205 -140 c11 -4 17 -14 15 -27 -3 -24 -28 -36 -28
-14 0 8 -7 20 -15 27 -18 15 -20 34 -2 26 6 -3 20 -9 30 -12z m1011 -370 c-9
-22 -18 -34 -21 -27 -5 13 26 78 33 70 3 -3 -2 -22 -12 -43z m75 -10 c12 -15
28 -49 36 -77 17 -58 18 -67 7 -67 -5 0 -14 22 -21 49 -8 34 -17 48 -26 45
-16 -6 -22 3 -30 44 -7 39 7 41 34 6z m221 -22 c0 -14 -23 -32 -42 -32 -10 0
-18 4 -18 10 0 5 6 7 14 4 7 -3 16 2 19 10 7 16 27 22 27 8z m-150 -173 c0 -6
-4 -7 -10 -4 -5 3 -10 11 -10 16 0 6 5 7 10 4 6 -3 10 -11 10 -16z m1286 -124
c-19 -14 -56 -21 -56 -10 0 7 41 24 60 24 11 0 10 -3 -4 -14z m-1731 -155 c-5
-8 -11 -8 -17 -2 -6 6 -7 16 -3 22 5 8 11 8 17 2 6 -6 7 -16 3 -22z m65 -34
c0 -3 -4 -8 -10 -11 -5 -3 -10 -1 -10 4 0 6 5 11 10 11 6 0 10 -2 10 -4z
m2415 -313 c-4 -10 -10 -26 -12 -35 -3 -10 -15 -18 -26 -18 -20 0 -20 1 -2 14
12 8 16 20 12 35 -4 16 -1 21 15 21 15 0 18 -4 13 -17z m219 -8 c-4 -8 -8 -15
-10 -15 -2 0 -4 7 -4 15 0 8 4 15 10 15 5 0 7 -7 4 -15z m-214 -313 c0 -8 -9
-12 -22 -10 -30 4 -33 23 -3 23 14 0 25 -6 25 -13z m-3320 -187 c0 -14 -38
-17 -45 -4 -4 5 -15 9 -25 9 -10 0 -22 5 -26 12 -5 8 5 9 34 5 28 -3 42 -1 42
6 0 15 20 -14 20 -28z m4705 5 c-3 -5 -10 -10 -16 -10 -5 0 -9 5 -9 10 0 6 7
10 16 10 8 0 12 -4 9 -10z m-1255 -112 l27 -32 32 27 c32 27 101 39 101 17 0
-5 -14 -10 -31 -10 -19 0 -43 -10 -61 -25 -32 -27 -43 -30 -53 -15 -10 17 -25
11 -18 -7 4 -11 3 -14 -6 -9 -7 5 -10 15 -6 23 8 23 -24 53 -57 53 -19 0 -27
4 -22 11 12 19 67 0 94 -33z m214 -32 c-4 -9 -13 -15 -20 -12 -8 3 -14 1 -14
-4 0 -6 -7 -10 -16 -10 -14 0 -14 2 -3 16 12 15 51 35 57 29 1 -1 0 -10 -4
-19z m-1518 -17 c3 -6 1 -16 -5 -22 -8 -8 -11 -8 -11 1 0 7 -7 12 -15 12 -8 0
-15 5 -15 10 0 13 37 13 46 -1z m1204 -10 c0 -13 -5 -19 -12 -15 -7 3 -21 9
-30 12 -28 10 -21 24 12 24 24 0 30 -4 30 -21z m-1314 -46 c-6 -7 -46 31 -46
43 0 3 7 4 15 0 8 -3 15 0 16 7 0 7 5 -1 11 -16 5 -16 7 -31 4 -34z m1104 43
c0 -7 -6 -19 -14 -25 -11 -9 -15 -8 -20 5 -10 26 -7 34 14 34 11 0 20 -6 20
-14z m-1455 -56 c3 -5 2 -10 -4 -10 -5 0 -13 5 -16 10 -3 6 -2 10 4 10 5 0 13
-4 16 -10z m174 -19 l24 -19 -23 -12 c-18 -10 -21 -9 -18 1 3 8 -5 21 -16 31
-30 24 1 24 33 -1z m428 -30 c19 -34 16 -47 -13 -70 -29 -22 -44 -20 -62 10
-16 26 -10 35 10 15 12 -11 18 -12 27 -3 14 14 15 37 1 37 -5 0 -10 9 -10 20
0 28 31 22 47 -9z m-157 -17 c0 -14 -3 -14 -15 -4 -8 7 -15 14 -15 16 0 2 7 4
15 4 8 0 15 -7 15 -16z m1385 -4 c4 -14 15 -20 36 -20 18 0 32 -6 36 -16 7
-18 -15 -36 -33 -26 -33 20 -75 63 -69 72 10 16 23 12 30 -10z m-1440 -48 c-7
-7 -55 39 -55 52 0 5 13 -3 30 -19 16 -16 28 -31 25 -33z m1580 28 c3 -6 -6
-15 -21 -20 -31 -12 -37 -9 -28 14 7 18 39 22 49 6z m-1455 -30 c0 -5 -4 -10
-10 -10 -5 0 -10 5 -10 10 0 6 5 10 10 10 6 0 10 -4 10 -10z m-20 -26 c0 -8
-4 -14 -10 -14 -5 0 -10 9 -10 21 0 11 5 17 10 14 6 -3 10 -13 10 -21z m-54
-29 c-3 -9 -11 -13 -16 -10 -8 5 -7 11 1 21 14 18 24 11 15 -11z m-229 -7 c-3
-8 -6 -5 -6 6 -1 11 2 17 5 13 3 -3 4 -12 1 -19z m741 -23 c23 -4 42 -10 42
-15 0 -5 3 -15 6 -24 5 -12 0 -16 -19 -16 -14 0 -29 5 -32 10 -3 6 3 10 15 10
12 0 18 5 15 10 -11 18 -53 11 -60 -10 -7 -21 -24 -27 -26 -10 -1 6 -2 14 -3
19 0 5 -4 13 -8 17 -14 13 -8 25 10 20 9 -2 36 -8 60 -11z m-682 -57 c19 -2
35 4 47 17 l19 20 -7 -20 c-4 -11 -10 -26 -13 -34 -4 -10 -1 -12 7 -6 8 4 17
2 21 -6 6 -9 11 -5 15 14 4 15 11 27 16 27 12 0 11 -14 -3 -45 -11 -24 -23
-30 -60 -27 -27 2 -129 72 -122 83 4 6 14 5 28 -5 13 -8 36 -16 52 -18z m564
-19 c0 -6 -4 -7 -10 -4 -5 3 -10 11 -10 16 0 6 5 7 10 4 6 -3 10 -11 10 -16z
m180 -61 c0 -4 -4 -9 -9 -13 -9 -5 -41 31 -41 48 0 9 49 -25 50 -35z m-1837
-28 c3 -11 1 -23 -4 -26 -5 -3 -9 6 -9 20 0 31 6 34 13 6z m32 1 c-3 -6 -11
-8 -17 -5 -6 4 -5 9 3 15 16 10 23 4 14 -10z m-2265 -11 c0 -5 -2 -10 -4 -10
-3 0 -8 5 -11 10 -3 6 -1 10 4 10 6 0 11 -4 11 -10z m1856 -1 c7 -12 -15 -31
-28 -23 -4 3 -8 12 -8 20 0 17 26 19 36 3z m2774 -2 c0 -9 -10 -12 -30 -9 -16
2 -30 8 -30 13 0 5 14 9 30 9 18 0 30 -5 30 -13z m-3872 -35 c2 -7 -2 -10 -12
-6 -9 3 -16 11 -16 16 0 13 23 5 28 -10z m1252 -72 c0 -5 -4 -10 -10 -10 -5 0
-10 5 -10 10 0 6 5 10 10 10 6 0 10 -4 10 -10z m-1330 -26 c0 -8 -4 -14 -10
-14 -5 0 -10 9 -10 21 0 11 5 17 10 14 6 -3 10 -13 10 -21z m1270 19 c0 -5 -9
-23 -20 -41 -19 -31 -20 -31 -40 -15 -25 22 -25 27 1 20 15 -4 23 1 31 19 11
23 28 33 28 17z m310 -3 c0 -5 -4 -10 -10 -10 -5 0 -10 5 -10 10 0 6 5 10 10
10 6 0 10 -4 10 -10z m-140 -15 c-7 -8 -17 -12 -22 -9 -6 4 -5 10 3 15 22 14
33 10 19 -6z m2330 3 c0 -14 -48 -20 -68 -9 -13 7 -23 7 -27 2 -7 -12 25 -30
43 -24 6 3 12 1 12 -5 0 -15 -45 -30 -73 -25 -30 6 -35 18 -12 27 8 3 15 14
15 25 0 18 6 20 55 18 30 -1 55 -5 55 -9z m-483 -20 c-3 -8 -6 -5 -6 6 -1 11
2 17 5 13 3 -3 4 -12 1 -19z m-1947 -3 c0 -8 -4 -15 -10 -15 -5 0 -10 7 -10
15 0 8 5 15 10 15 6 0 10 -7 10 -15z m456 -42 c-8 -9 -36 30 -29 40 3 5 12 -1
20 -13 8 -12 12 -24 9 -27z m2055 27 c13 -10 19 -19 13 -20 -7 0 -22 9 -35 20
-13 10 -19 19 -13 20 7 0 22 -9 35 -20z m-2735 -6 c-4 -12 -2 -15 9 -10 8 3
15 1 15 -3 0 -5 3 -16 6 -24 4 -12 -2 -15 -29 -13 -53 5 -62 14 -35 41 27 27
43 31 34 9z m464 6 c0 -5 -2 -10 -4 -10 -3 0 -8 5 -11 10 -3 6 -1 10 4 10 6 0
11 -4 11 -10z m-163 -22 c-3 -8 -6 -5 -6 6 -1 11 2 17 5 13 3 -3 4 -12 1 -19z
m103 2 c0 -5 -2 -10 -4 -10 -3 0 -8 5 -11 10 -3 6 -1 10 4 10 6 0 11 -4 11
-10z m1962 -52 c-6 -13 -22 -9 -22 6 0 8 -7 16 -15 20 -8 3 -15 13 -15 22 0
12 7 9 28 -12 15 -16 26 -32 24 -36z m-179 25 c5 -26 2 -42 -7 -32 -9 11 -15
59 -7 59 5 0 11 -12 14 -27z m-1483 -13 c0 -11 -4 -20 -10 -20 -5 0 -10 9 -10
20 0 11 5 20 10 20 6 0 10 -9 10 -20z m-3711 -22 c11 -18 35 -50 52 -71 25
-29 30 -40 21 -49 -9 -9 -12 -9 -12 1 0 8 -15 31 -34 52 -39 42 -71 99 -57 99
5 0 18 -15 30 -32z m3151 16 c0 -11 -6 -14 -20 -9 -30 9 -45 -4 -23 -21 17
-13 17 -13 -4 -14 -28 0 -53 10 -53 22 0 5 4 7 9 3 6 -3 13 1 18 8 16 28 73
36 73 11z m257 -1 c3 -7 -4 -9 -16 -6 -12 3 -18 9 -15 15 7 11 26 6 31 -9z
m2033 7 c0 -5 -4 -10 -10 -10 -5 0 -10 5 -10 10 0 6 5 10 10 10 6 0 10 -4 10
-10z m-420 -32 c0 -18 -2 -20 -9 -8 -6 8 -7 18 -5 22 9 14 14 9 14 -14z m150
8 c0 -3 -4 -8 -10 -11 -5 -3 -10 -1 -10 4 0 6 5 11 10 11 6 0 10 -2 10 -4z
m379 -1 c5 -3 7 -14 4 -25 -3 -11 -9 -17 -14 -14 -5 3 -19 -1 -31 -8 -22 -11
-21 -12 21 -20 27 -4 60 -21 88 -44 41 -34 46 -36 70 -23 22 12 26 11 34 -4 6
-9 17 -17 26 -17 9 0 24 -7 33 -15 9 -8 38 -19 64 -24 62 -11 75 -24 51 -51
-10 -11 -23 -20 -28 -20 -6 0 -2 9 7 19 20 22 15 27 -39 37 -22 4 -49 13 -60
20 -11 8 -28 14 -38 14 -9 0 -20 6 -23 14 -5 12 -11 13 -30 4 -20 -10 -29 -6
-69 26 -25 21 -49 36 -54 34 -5 -2 -35 -32 -66 -67 l-58 -65 6 -114 c6 -111 6
-116 -20 -161 -33 -57 -32 -56 -39 -48 -3 3 1 20 10 38 19 39 19 40 2 33 -7
-3 -16 2 -19 10 -4 9 -13 16 -22 16 -8 0 -15 5 -15 11 0 6 8 8 18 6 9 -3 30
-8 45 -11 l29 -7 -4 63 c-2 44 -7 65 -18 70 -12 5 -12 7 3 7 14 1 17 11 17 57
0 53 2 58 50 108 28 29 50 56 50 61 0 4 -12 5 -26 2 -29 -5 -52 22 -52 64 0
23 5 26 44 28 25 1 48 -1 53 -4z m-1839 -30 c0 -8 -7 -15 -15 -15 -9 0 -12 6
-9 15 4 8 10 15 15 15 5 0 9 -7 9 -15z m-1170 -25 c0 -24 -44 -115 -61 -126
-8 -4 -9 0 -4 15 5 16 3 20 -9 15 -23 -9 -20 3 9 34 14 15 25 36 25 48 0 24 8
34 27 34 7 0 13 -9 13 -20z m2720 6 c0 -3 -4 -8 -10 -11 -5 -3 -10 -1 -10 4 0
6 5 11 10 11 6 0 10 -2 10 -4z m-382 -21 c-2 -5 -11 -10 -20 -10 -19 -2 -23 7
-11 19 10 10 35 3 31 -9z m518 -9 c-3 -14 -2 -28 4 -31 5 -3 10 -16 9 -28 0
-15 -2 -17 -6 -7 -3 8 -12 23 -20 32 -11 13 -12 21 -3 37 15 28 24 26 16 -3z
m-306 -6 c0 -5 -2 -10 -4 -10 -3 0 -8 5 -11 10 -3 6 -1 10 4 10 6 0 11 -4 11
-10z m-25 -40 c3 -5 0 -10 -8 -10 -13 0 -31 -33 -28 -52 1 -5 -6 -8 -14 -8 -8
0 -15 -6 -15 -14 0 -15 -37 -29 -45 -16 -3 5 0 10 6 12 17 6 1 48 -17 48 -9 0
-12 5 -8 11 4 6 19 9 35 5 22 -4 34 0 46 14 19 22 38 26 48 10z m166 -3 c-1
-12 -15 -9 -19 4 -3 6 1 10 8 8 6 -3 11 -8 11 -12z m-2477 -33 c9 -22 8 -24
-9 -24 -8 0 -15 9 -15 20 0 24 15 27 24 4z m176 12 c0 -3 -4 -8 -10 -11 -5 -3
-10 -1 -10 4 0 6 5 11 10 11 6 0 10 -2 10 -4z m1790 -26 c-8 -5 -17 -7 -21 -4
-4 2 -9 -4 -11 -13 -3 -15 -6 -14 -17 6 -11 20 -11 23 0 19 8 -3 23 -2 34 2
24 9 35 2 15 -10z m700 -19 c-6 -12 -17 -21 -26 -21 -11 0 -10 7 8 31 24 32
37 25 18 -10z m-1354 15 c11 -8 15 -18 10 -23 -5 -4 -11 -2 -13 5 -3 7 -24 12
-54 12 -27 0 -49 5 -49 10 0 15 84 12 106 -4z m594 -42 c0 -7 9 -14 20 -17 14
-4 18 -10 13 -23 -4 -11 -8 -13 -11 -6 -2 7 -11 12 -19 12 -9 0 -13 -6 -10
-15 4 -8 2 -17 -3 -20 -10 -6 -16 13 -25 80 l-6 50 20 -25 c11 -14 21 -30 21
-36z m1307 26 c13 -16 31 -30 39 -30 24 0 15 -19 -11 -26 -14 -4 -27 -5 -29
-3 -35 47 -56 77 -56 82 0 18 34 4 57 -23z m-637 -10 c0 -5 -2 -10 -4 -10 -3
0 -8 5 -11 10 -3 6 -1 10 4 10 6 0 11 -4 11 -10z m20 -25 c-21 -26 -31 -16
-13 11 9 15 19 21 21 15 2 -6 -2 -18 -8 -26z m2340 25 c0 -5 -6 -10 -12 -10
-9 0 -8 -4 2 -10 13 -9 13 -12 -3 -21 -10 -6 -22 -21 -27 -35 -9 -21 -63 -64
-82 -64 -20 0 -5 18 27 33 23 11 36 25 40 44 11 48 24 73 40 73 8 0 15 -4 15
-10z m-2556 -15 c-4 -8 -10 -12 -15 -9 -11 6 -2 24 11 24 5 0 7 -7 4 -15z m46
1 c0 -3 -4 -8 -10 -11 -5 -3 -10 -1 -10 4 0 6 5 11 10 11 6 0 10 -2 10 -4z
m228 -18 c15 -15 16 -72 2 -63 -5 3 -10 15 -10 26 0 11 -4 17 -10 14 -17 -11
-32 5 -19 21 14 17 21 18 37 2z m-3406 -18 c15 -11 30 -38 37 -65 7 -27 17
-45 25 -45 22 0 51 -42 76 -110 12 -33 29 -60 36 -60 8 0 14 -4 14 -10 0 -11
-11 -13 -34 -4 -9 3 -16 13 -16 20 0 8 -13 43 -29 78 -22 48 -35 65 -52 68
-17 2 -25 14 -36 53 -15 52 -38 79 -60 71 -14 -6 -18 6 -6 17 10 11 18 8 45
-13z m2454 -17 c-10 -10 -19 5 -10 18 6 11 8 11 12 0 2 -7 1 -15 -2 -18z m864
12 c8 -2 17 -4 20 -5 3 -1 8 -2 13 -1 4 0 7 -6 7 -14 0 -20 -19 -19 -57 5 -35
21 -45 37 -15 25 9 -4 24 -8 32 -10z m-224 -11 c-3 -9 -6 -18 -6 -20 0 -2 -4
-4 -9 -4 -5 0 -7 9 -4 20 3 11 10 20 15 20 6 0 7 -7 4 -16z m-1846 -14 c0 -5
-7 -10 -15 -10 -8 0 -15 5 -15 10 0 6 7 10 15 10 8 0 15 -4 15 -10z m2020 0
c0 -5 -4 -10 -10 -10 -5 0 -10 5 -10 10 0 6 5 10 10 10 6 0 10 -4 10 -10z
m-2143 -22 c-3 -8 -6 -5 -6 6 -1 11 2 17 5 13 3 -3 4 -12 1 -19z m2193 -9 c0
-5 -4 -9 -10 -9 -5 0 -10 7 -10 16 0 8 5 12 10 9 6 -3 10 -10 10 -16z m-65 1
c3 -5 2 -10 -4 -10 -5 0 -13 5 -16 10 -3 6 -2 10 4 10 5 0 13 -4 16 -10z
m-665 -4 c0 -3 -4 -8 -10 -11 -5 -3 -10 -1 -10 4 0 6 5 11 10 11 6 0 10 -2 10
-4z m320 -12 c0 -8 -5 -12 -10 -9 -6 4 -8 11 -5 16 9 14 15 11 15 -7z m-1009
-7 c-1 -12 -15 -9 -19 4 -3 6 1 10 8 8 6 -3 11 -8 11 -12z m599 3 c0 -5 -4
-10 -9 -10 -6 0 -13 5 -16 10 -3 6 1 10 9 10 9 0 16 -4 16 -10z m898 -2 c13
-13 16 -38 5 -38 -5 0 -13 11 -20 25 -12 27 -5 33 15 13z m-2248 -7 c0 -6 -4
-13 -10 -16 -5 -3 -10 1 -10 9 0 9 5 16 10 16 6 0 10 -4 10 -9z m60 5 c0 -3
-4 -8 -10 -11 -5 -3 -10 -1 -10 4 0 6 5 11 10 11 6 0 10 -2 10 -4z m1220 -6
c0 -5 -2 -10 -4 -10 -3 0 -8 5 -11 10 -3 6 -1 10 4 10 6 0 11 -4 11 -10z
m1611 -6 c11 -14 10 -18 -6 -27 -19 -11 -25 -13 -44 -16 -14 -2 -42 -68 -35
-84 3 -8 1 -18 -5 -22 -10 -6 -15 11 -13 44 1 24 -17 63 -27 56 -5 -3 -12 -1
-15 4 -9 15 44 23 61 9 12 -10 17 -9 24 5 6 9 20 17 32 18 12 0 16 3 10 6 -15
5 -18 23 -4 23 5 0 15 -7 22 -16z m-1304 -16 c-2 -21 2 -23 41 -22 45 0 51 -6
27 -26 -10 -8 -37 -11 -80 -8 -49 3 -65 1 -65 -9 0 -7 -5 -13 -10 -13 -6 0 -8
11 -3 28 3 15 6 35 5 45 0 9 3 17 9 17 5 0 9 -4 9 -8 0 -4 11 -9 25 -10 16 -1
25 3 25 13 0 8 4 15 10 15 5 0 9 -10 7 -22z m570 5 c-15 -16 -15 -18 0 -35 15
-17 15 -18 -2 -18 -18 0 -18 0 -1 -13 18 -13 18 -14 1 -21 -11 -4 -22 0 -31
11 -12 16 -15 16 -24 3 -8 -11 -12 -12 -18 -3 -11 18 -46 5 -57 -20 -7 -16
-17 -21 -35 -18 -39 5 -44 25 -8 31 20 3 32 11 34 23 3 25 12 33 24 21 15 -15
78 -4 85 14 3 9 1 18 -4 20 -23 8 -9 22 21 22 30 0 31 -1 15 -17z m2581 -12
c-13 -15 -29 -26 -35 -23 -20 7 -16 16 15 34 40 25 47 22 20 -11z m-3352 -8
c-10 -10 -19 5 -10 18 6 11 8 11 12 0 2 -7 1 -15 -2 -18z m94 7 c0 -5 -7 -10
-15 -10 -8 0 -15 5 -15 10 0 6 7 10 15 10 8 0 15 -4 15 -10z m460 2 c0 -8 -52
-42 -64 -42 -3 0 -6 5 -6 10 0 6 6 10 14 10 7 0 19 7 26 15 13 16 30 20 30 7z
m30 -11 c0 -11 4 -21 10 -23 6 -2 5 -9 -1 -18 -8 -11 -12 -12 -16 -2 -2 6 -9
10 -14 6 -10 -6 -12 17 -3 40 9 22 24 20 24 -3z m210 9 c0 -5 -4 -10 -10 -10
-5 0 -10 5 -10 10 0 6 5 10 10 10 6 0 10 -4 10 -10z m-2160 -10 c0 -5 -4 -10
-10 -10 -5 0 -10 5 -10 10 0 6 5 10 10 10 6 0 10 -4 10 -10z m1317 4 c-3 -3
-12 -4 -19 -1 -8 3 -5 6 6 6 11 1 17 -2 13 -5z m-567 -13 c0 -6 -4 -13 -10
-16 -5 -3 -10 1 -10 9 0 9 5 16 10 16 6 0 10 -4 10 -9z m996 -29 c-10 -10 -29
15 -21 28 6 9 10 8 17 -4 6 -10 7 -20 4 -24z m-36 19 c0 -6 -4 -13 -10 -16 -5
-3 -10 1 -10 9 0 9 5 16 10 16 6 0 10 -4 10 -9z m1004 -6 c6 -17 -2 -45 -13
-45 -4 0 -8 14 -8 30 0 32 11 40 21 15z m-1374 -25 c0 -5 -4 -10 -10 -10 -5 0
-10 5 -10 10 0 6 5 10 10 10 6 0 10 -4 10 -10z m434 -61 c31 -16 56 -25 56
-20 0 6 5 11 11 11 6 0 9 -6 6 -14 -5 -13 7 -21 67 -40 11 -4 23 -1 27 5 5 9
14 9 38 -1 17 -7 31 -17 31 -22 0 -6 -6 -6 -14 1 -11 9 -15 7 -19 -10 -3 -12
-12 -19 -19 -17 -7 3 -17 -5 -23 -16 -12 -25 -44 -33 -56 -15 -6 10 -11 10
-21 1 -11 -9 -22 -7 -46 8 -27 16 -31 23 -23 38 14 26 7 56 -12 60 -10 2 -17
-1 -17 -6 0 -5 -10 -12 -22 -15 -16 -5 -19 -9 -10 -19 17 -21 42 -209 31 -230
-11 -20 8 -58 29 -58 10 0 13 -11 10 -37 -2 -30 1 -38 15 -41 12 -3 20 4 24
19 5 19 7 20 18 6 7 -9 23 -15 40 -14 15 1 29 -3 32 -8 2 -6 -12 -10 -34 -9
-21 1 -44 -3 -50 -8 -7 -6 -24 -7 -39 -4 -22 6 -25 4 -19 -14 4 -11 2 -20 -4
-20 -14 0 -14 -33 0 -47 7 -7 -5 -13 -40 -20 -59 -12 -77 -4 -30 12 26 9 33
17 32 36 -1 73 -3 79 -22 79 -23 0 -36 -16 -21 -25 5 -3 10 -18 9 -33 0 -15
-3 -21 -6 -14 -7 18 -21 15 -26 -5 -3 -16 -5 -16 -11 2 -4 11 -12 28 -17 37
-5 10 -9 26 -9 36 0 10 -5 23 -12 30 -20 20 4 35 37 22 39 -15 63 8 61 58 -6
120 -5 119 -21 98 -18 -23 -34 -12 -18 12 12 20 -5 42 -32 42 -10 0 -13 5 -9
12 5 8 -2 9 -26 5 -18 -4 -39 -7 -47 -7 -8 0 -11 -4 -8 -10 3 -5 1 -10 -4 -10
-13 0 -13 3 -5 24 3 9 15 16 25 16 10 0 19 7 19 15 0 8 4 15 9 15 5 0 11 -7
15 -15 3 -8 11 -15 17 -15 8 0 8 4 -1 15 -10 12 -6 17 24 32 34 16 41 28 36
62 -1 8 4 12 14 8 23 -9 25 16 2 35 -33 27 -2 21 58 -13z m376 11 c0 -5 -5
-10 -11 -10 -5 0 -7 5 -4 10 3 6 8 10 11 10 2 0 4 -4 4 -10z m60 -15 c0 -9 -9
-15 -22 -14 -13 0 -17 3 -10 6 6 2 10 9 6 14 -3 5 2 9 10 9 9 0 16 -7 16 -15z
m327 9 c-3 -3 -12 -4 -19 -1 -8 3 -5 6 6 6 11 1 17 -2 13 -5z m2143 -24 c0
-10 7 -31 16 -47 16 -27 16 -31 -10 -80 -14 -29 -37 -60 -52 -70 -14 -10 -38
-28 -54 -40 -15 -13 -40 -22 -56 -22 -21 1 -24 3 -9 6 11 3 29 13 40 23 11 10
34 25 51 33 20 10 41 36 59 70 28 53 28 56 12 80 -18 28 -24 82 -7 72 6 -3 10
-15 10 -25z m-3360 15 c0 -3 -9 -15 -20 -27 -21 -23 -28 -7 -7 17 12 14 27 20
27 10z m260 -35 c8 -5 12 -12 9 -15 -8 -8 -39 5 -39 16 0 11 11 11 30 -1z
m-180 -10 c0 -5 -2 -10 -4 -10 -3 0 -8 5 -11 10 -3 6 -1 10 4 10 6 0 11 -4 11
-10z m865 -16 c-11 -8 -15 -19 -11 -30 4 -10 1 -21 -6 -26 -10 -6 -10 -10 1
-17 11 -7 11 -10 -2 -18 -16 -8 -13 -53 3 -53 4 0 28 18 53 40 25 22 50 40 56
40 6 0 11 4 11 8 0 14 50 33 63 25 7 -4 23 -9 37 -10 14 -1 19 0 13 3 -24 11
-13 20 24 21 21 1 46 -3 55 -8 24 -13 24 -51 1 -47 -21 4 -31 -38 -14 -55 8
-8 11 -8 11 1 0 7 5 12 11 12 7 0 9 -10 7 -25 -3 -14 -1 -25 3 -25 5 0 9 12 9
26 0 14 4 23 10 19 6 -3 10 -29 10 -56 0 -31 4 -48 10 -44 15 10 12 -18 -6
-43 -21 -30 -35 -28 -29 6 3 15 2 21 -1 15 -3 -7 -12 -13 -20 -13 -10 0 -14
13 -14 44 0 38 -2 43 -19 39 -16 -4 -19 -13 -17 -56 1 -44 4 -52 19 -49 28 5
19 -13 -13 -25 -16 -6 -30 -7 -30 -2 0 5 -5 9 -11 9 -5 0 -8 -4 -4 -10 8 -13
-39 -42 -59 -34 -12 4 -16 0 -16 -15 0 -14 -6 -21 -20 -21 -20 0 -24 8 -20 48
1 13 -4 22 -13 22 -9 0 -13 10 -12 29 1 24 -1 27 -19 23 -12 -3 -28 -13 -37
-23 -10 -11 -20 -15 -29 -9 -7 4 -21 7 -31 5 -10 -2 -19 4 -22 16 -7 27 22 38
39 14 13 -17 44 -15 44 4 0 5 -18 23 -40 41 -27 21 -37 36 -33 47 4 11 3 14
-5 9 -7 -4 -12 -3 -12 3 0 5 -8 11 -17 13 -14 3 -13 7 9 29 19 19 24 33 21 52
-6 30 13 38 20 10 3 -13 5 -12 6 5 2 37 19 62 38 55 14 -6 14 -7 -2 -19z
m-170 -14 c3 -5 1 -10 -4 -10 -6 0 -11 5 -11 10 0 6 2 10 4 10 3 0 8 -4 11
-10z m-543 -22 c-7 -7 -12 -8 -12 -2 0 6 3 14 7 17 3 4 9 5 12 2 2 -3 -1 -11
-7 -17z m-682 -10 c0 -16 -3 -19 -11 -11 -6 6 -8 16 -5 22 11 17 16 13 16 -11z
m1194 12 c25 0 59 -39 53 -60 -4 -14 3 -26 24 -41 32 -23 38 -39 13 -39 -11 0
-14 5 -10 16 5 14 4 15 -9 4 -12 -10 -15 -10 -15 3 0 18 -24 29 -36 17 -14
-13 -95 12 -90 27 4 8 -3 13 -17 13 -22 1 -22 1 -2 16 11 8 19 17 18 19 -11
20 16 37 45 29 8 -2 19 -4 26 -4z m2081 -104 c4 -84 9 -95 77 -185 27 -36 47
-70 44 -77 -6 -15 30 -54 49 -54 10 0 15 -10 15 -30 0 -16 5 -30 10 -30 6 0
10 7 10 15 0 8 7 15 15 15 8 0 15 -7 15 -16 0 -10 7 -14 23 -12 16 2 21 9 19
26 -2 12 2 22 7 22 6 0 11 -6 11 -14 0 -17 58 -27 83 -14 25 13 21 -6 -7 -33
-14 -13 -21 -28 -17 -34 5 -5 13 -25 19 -42 10 -30 9 -33 -9 -33 -10 0 -19 7
-19 15 0 8 5 15 12 15 6 0 3 6 -8 14 -13 10 -34 13 -66 9 -63 -8 -118 24 -118
68 0 33 -62 105 -81 93 -6 -4 4 -18 25 -36 45 -37 50 -76 6 -48 -8 5 -11 12
-7 16 4 4 -2 14 -14 22 -18 12 -23 12 -41 -4 -19 -18 -20 -18 -39 5 -20 24
-27 87 -9 76 6 -3 10 -15 10 -25 0 -28 11 -51 21 -44 5 3 7 10 3 15 -3 6 1 16
10 22 25 19 -2 63 -37 60 -27 -2 -36 10 -16 22 22 14 60 -6 71 -36 7 -22 14
-27 21 -20 8 8 5 19 -10 38 -70 96 -83 121 -92 181 -9 58 -5 130 6 118 3 -3 7
-39 8 -80z m-2317 40 c3 -12 -1 -17 -10 -14 -7 3 -15 13 -16 22 -3 12 1 17 10
14 7 -3 15 -13 16 -22z m-442 -29 c21 -12 17 -25 -8 -30 -13 -2 3 -5 35 -6 58
-1 63 -4 69 -46 2 -15 -3 -21 -24 -23 -29 -3 -40 -22 -13 -22 8 0 15 -4 15
-10 0 -5 -5 -10 -11 -10 -6 0 -1 -15 10 -33 19 -31 19 -34 3 -46 -11 -8 -18
-28 -20 -59 -2 -42 0 -48 18 -48 15 0 20 7 21 31 0 16 6 44 12 62 9 25 15 30
27 23 11 -7 12 -14 4 -27 -6 -11 -8 -47 -5 -90 5 -58 11 -77 31 -98 24 -26 25
-27 5 -38 -25 -15 -88 -25 -108 -18 -8 4 -28 22 -44 42 -23 30 -28 44 -25 74
4 33 6 35 21 21 10 -9 22 -16 27 -16 5 0 3 4 -5 9 -10 7 -11 18 -3 56 9 42 8
48 -8 52 -16 4 -17 9 -8 28 6 13 7 36 3 52 -4 15 -9 23 -12 16 -3 -8 -10 -7
-23 4 -19 16 -18 39 1 28 5 -4 9 1 9 9 0 9 -5 16 -11 16 -6 0 -9 9 -6 20 3 11
1 23 -4 26 -5 3 -9 -2 -9 -10 0 -10 -9 -16 -23 -16 -35 0 -39 10 -17 38 11 13
20 33 20 43 0 25 34 44 39 21 2 -9 9 -21 17 -25z m562 -8 c-5 -3 -6 -18 -2
-32 4 -17 2 -27 -5 -27 -9 0 -16 28 -12 52 0 4 -8 12 -19 18 -35 19 -22 30 14
12 18 -9 29 -20 24 -23z m-434 -26 c57 -64 108 -142 101 -153 -11 -18 -34 2
-56 47 -12 25 -31 48 -41 51 -11 2 -17 10 -14 18 3 7 -4 24 -16 39 -16 20 -23
23 -34 14 -16 -13 -44 -5 -44 12 0 6 7 9 15 6 8 -4 17 -2 20 3 11 19 28 10 69
-37z m-494 17 c0 -5 -5 -10 -11 -10 -5 0 -7 5 -4 10 3 6 8 10 11 10 2 0 4 -4
4 -10z m840 0 c0 -5 -5 -10 -11 -10 -5 0 -7 5 -4 10 3 6 8 10 11 10 2 0 4 -4
4 -10z m-770 -31 c0 -11 -4 -17 -10 -14 -5 3 -10 13 -10 21 0 8 5 14 10 14 6
0 10 -9 10 -21z m740 12 c0 -6 -4 -13 -10 -16 -5 -3 -10 1 -10 9 0 9 5 16 10
16 6 0 10 -4 10 -9z m231 -10 c-11 -7 -11 -12 0 -29 15 -24 39 -37 39 -22 0
16 17 11 24 -6 8 -22 -3 -39 -17 -25 -20 20 -28 11 -11 -14 9 -14 12 -25 6
-25 -6 0 -17 10 -23 22 -8 14 -14 18 -17 10 -6 -20 -20 -14 -36 16 -8 15 -15
23 -16 19 0 -5 -4 -6 -9 -2 -6 3 -6 17 0 35 8 20 18 30 37 32 32 4 41 0 23
-11z m-1541 -3 c0 -7 -25 -35 -55 -63 -53 -47 -56 -53 -62 -108 -4 -37 -9 -54
-14 -45 -27 42 11 135 70 173 23 14 41 32 41 40 0 8 5 15 10 15 6 0 10 -6 10
-12z m407 -5 c3 -7 -3 -9 -16 -6 -12 3 -21 10 -21 15 0 13 32 6 37 -9z m275
-5 c-6 -6 -15 -8 -19 -4 -4 4 -1 11 7 16 19 12 27 3 12 -12z m3197 13 c9 -6
21 -5 32 2 10 6 21 9 24 6 11 -12 -8 -39 -31 -45 -27 -7 -26 -6 -18 -28 3 -9
10 -13 15 -10 5 3 9 0 9 -6 0 -8 13 -10 36 -7 38 5 57 -14 35 -36 -8 -8 -23
-7 -57 6 -39 14 -46 14 -51 2 -7 -20 -13 -19 -45 8 -14 12 -35 27 -45 34 -17
11 -17 12 3 12 15 1 24 9 28 26 4 14 13 25 21 25 8 0 15 5 15 10 0 12 10 13
29 1z m311 -1 c0 -5 -5 -10 -11 -10 -5 0 -7 5 -4 10 3 6 8 10 11 10 2 0 4 -4
4 -10z m-3835 -20 c-3 -5 3 -10 14 -10 11 0 23 -5 26 -11 5 -6 12 -4 20 8 19
25 28 11 15 -22 -10 -26 -12 -27 -29 -11 -9 9 -29 16 -44 16 -28 0 -42 14 -32
30 3 6 13 10 21 10 8 0 12 -4 9 -10z m972 -18 c-10 -2 -17 -8 -17 -13 0 -5 -7
-9 -15 -9 -8 0 -15 7 -15 15 0 8 7 15 15 15 8 0 15 5 15 11 0 8 6 7 17 -2 15
-13 15 -14 0 -17z m-2554 6 c5 -17 -3 -48 -13 -48 -10 0 -21 41 -14 52 8 12
22 10 27 -4z m1537 -16 c0 -4 -6 -14 -12 -22 -11 -12 -10 -12 4 -2 20 16 34
-1 14 -17 -17 -14 -41 11 -32 34 6 16 26 21 26 7z m-1370 -53 c0 -11 -4 -17
-10 -14 -5 3 -10 15 -10 26 0 11 5 17 10 14 6 -3 10 -15 10 -26z m1329 17 c16
-19 2 -27 -62 -32 l-52 -4 45 24 c54 30 54 30 69 12z m487 -7 c8 -14 -11 -33
-25 -25 -11 7 -4 36 9 36 5 0 12 -5 16 -11z m-621 -19 c3 -5 -3 -10 -14 -10
-12 0 -21 5 -21 10 0 6 6 10 14 10 8 0 18 -4 21 -10z m241 -2 c4 -6 2 -14 -5
-16 -9 -3 -9 -7 -1 -17 8 -9 8 -15 0 -20 -5 -3 -10 -1 -10 4 0 6 -6 11 -14 11
-19 0 -28 14 -20 34 7 19 40 21 50 4z m-298 -15 c-3 -16 6 -18 81 -15 46 1 90
7 98 14 10 8 20 8 38 0 29 -13 32 -30 8 -39 -10 -3 -25 -12 -33 -19 -22 -19
-44 -21 -45 -4 0 8 -9 16 -19 18 -14 3 -17 0 -13 -12 7 -17 -3 -21 -18 -7 -16
14 -79 25 -71 12 13 -20 -22 -23 -58 -6 -20 10 -36 20 -36 24 0 5 60 51 68 51
1 0 2 -8 0 -17z m577 -23 c15 -16 32 -27 37 -24 5 3 18 -17 30 -45 11 -28 25
-51 29 -51 5 0 9 -9 9 -19 0 -11 5 -23 10 -26 6 -4 8 -11 4 -16 -3 -5 -9 -7
-14 -4 -4 3 -13 -2 -20 -10 -10 -12 -16 -13 -26 -4 -8 6 -11 15 -8 21 3 5 12
4 20 -3 11 -9 14 -9 14 1 0 6 -9 14 -21 17 -12 3 -18 11 -15 19 3 8 2 14 -2
14 -4 0 -8 16 -9 36 -1 24 -10 43 -30 62 -16 15 -35 35 -42 45 -22 28 3 19 34
-13z m1090 -11 c12 21 21 10 18 -21 -2 -18 0 -27 3 -20 3 6 17 12 30 12 14 0
22 -4 19 -10 -3 -5 2 -10 12 -10 13 0 19 -8 21 -25 1 -14 -3 -25 -8 -25 -6 0
-10 6 -10 13 0 14 -38 17 -57 4 -7 -5 -17 -6 -22 -3 -15 10 -7 -28 9 -41 8 -7
11 -13 6 -13 -5 0 -3 -6 3 -14 18 -22 -6 -31 -29 -11 -15 13 -23 14 -39 5 -12
-6 -21 -9 -22 -8 0 2 -2 11 -4 21 -2 10 -10 26 -18 35 -8 10 -12 23 -10 30 3
7 -1 19 -7 27 -10 12 -9 15 6 15 13 0 15 3 7 11 -8 8 -3 19 16 39 l26 27 22
-24 c13 -15 24 -20 28 -14z m-2818 6 c-4 -8 -11 -15 -17 -15 -7 0 -7 6 0 21
13 23 26 19 17 -6z m3139 -12 c-4 -4 -11 -1 -16 7 -16 25 -11 35 7 17 9 -9 13
-20 9 -24z m-2479 -3 c24 0 33 -6 41 -27 14 -37 22 -113 12 -113 -12 0 -20 27
-20 64 0 40 -30 71 -58 61 -11 -3 -23 -1 -27 5 -10 17 -47 1 -76 -33 -14 -17
-41 -36 -60 -42 -23 -8 -40 -24 -54 -51 -19 -38 -22 -39 -77 -42 -51 -3 -61 0
-83 23 -29 28 -37 31 -34 13 3 -26 -2 -34 -21 -35 -23 -2 -27 12 -5 21 21 8
19 23 -5 29 -11 3 -20 10 -20 16 0 8 6 9 19 1 11 -5 28 -10 39 -10 10 0 27 -9
37 -20 13 -15 31 -20 67 -20 47 0 49 2 76 45 19 33 33 45 50 45 13 0 36 14 53
32 41 45 90 69 105 51 6 -7 25 -13 41 -13z m913 0 c0 -5 -4 -10 -9 -10 -6 0
-13 5 -16 10 -3 6 1 10 9 10 9 0 16 -4 16 -10z m-1600 -19 c0 -5 -9 -11 -20
-14 -22 -6 -28 8 -7 16 19 8 27 8 27 -2z m193 -28 c3 -5 1 -17 -4 -28 -7 -18
-8 -18 -8 -2 -1 16 -7 18 -58 11 -32 -3 -61 -8 -65 -10 -3 -2 0 -24 7 -49 9
-27 10 -47 4 -50 -5 -4 -9 1 -9 9 0 10 -9 16 -22 17 -13 0 -17 3 -10 6 6 2 12
19 12 36 0 48 10 56 75 60 33 2 63 4 67 5 4 1 9 -1 11 -5z m-217 -40 c-11 -11
-19 6 -11 24 8 17 8 17 12 0 3 -10 2 -21 -1 -24z m2459 -13 c3 -5 2 -10 -4
-10 -5 0 -13 5 -16 10 -3 6 -2 10 4 10 5 0 13 -4 16 -10z m-1805 -6 c0 -14
-36 -33 -61 -34 -29 0 -62 -31 -87 -81 -16 -32 -20 -34 -67 -34 -27 1 -57 4
-66 9 -29 13 -52 -21 -45 -66 5 -30 3 -38 -9 -38 -8 0 -19 9 -25 20 -6 12 -7
20 -1 20 5 0 12 -6 15 -12 4 -7 4 -2 1 12 -11 58 25 96 75 78 13 -5 40 -8 60
-6 28 2 38 9 52 37 27 55 58 81 94 81 18 0 36 5 39 10 7 11 25 14 25 4z m1865
-4 c3 -5 -1 -10 -10 -10 -9 0 -13 5 -10 10 3 6 8 10 10 10 2 0 7 -4 10 -10z
m-2495 -15 c10 -12 10 -15 -3 -15 -8 0 -17 7 -21 15 -3 8 -2 15 3 15 5 0 14
-7 21 -15z m1100 6 c0 -5 -11 -11 -23 -15 -38 -9 -75 -44 -82 -76 -9 -42 -20
-37 -20 9 0 22 2 39 5 39 20 -2 29 4 24 17 -4 10 3 16 23 20 15 4 33 8 38 10
20 7 35 5 35 -4z m540 0 c0 -11 -49 -21 -55 -11 -3 5 1 11 7 13 21 9 48 8 48
-2z m-50 -41 c10 0 11 -3 3 -11 -13 -13 -64 8 -71 28 -2 9 4 8 25 -2 15 -8 35
-15 43 -15z m-503 0 c-6 -21 7 -27 19 -9 10 17 26 -15 18 -36 -5 -13 -9 -14
-15 -3 -7 9 -11 10 -16 2 -5 -7 -16 -8 -28 -3 l-20 8 20 1 c19 1 19 1 2 11
-18 10 -18 12 -1 30 22 24 28 24 21 -1z m1373 10 c0 -5 -2 -10 -4 -10 -3 0 -8
5 -11 10 -3 6 -1 10 4 10 6 0 11 -4 11 -10z m2701 -14 c11 6 12 -6 1 -23 -12
-19 -36 2 -27 23 5 13 9 15 12 6 3 -6 9 -10 14 -6z m-3735 -6 c21 0 17 -18 -6
-25 -19 -6 -19 -8 -5 -28 21 -30 19 -34 -15 -46 -30 -10 -44 2 -15 13 12 4 13
11 5 32 -8 21 -8 29 2 36 19 11 0 10 -23 -2 -16 -9 -18 -18 -13 -49 5 -29 2
-39 -9 -44 -13 -5 -15 2 -12 45 3 41 8 54 27 64 12 8 29 11 36 9 8 -3 20 -5
28 -5z m244 1 c0 -13 -28 -22 -35 -11 -3 4 1 11 7 13 20 8 28 8 28 -2z m578 2
c-34 -69 -33 -69 -58 -53 -13 9 -10 14 15 35 29 24 50 33 43 18z m182 -3 c0
-5 -2 -10 -4 -10 -3 0 -8 5 -11 10 -3 6 -1 10 4 10 6 0 11 -4 11 -10z m477
-16 c-9 -9 -28 6 -21 18 4 6 10 6 17 -1 6 -6 8 -13 4 -17z m-120 -40 c20 -78
17 -110 -13 -133 -15 -12 -39 -21 -54 -21 -29 0 -94 -40 -153 -93 -20 -19 -44
-38 -52 -41 -8 -3 -12 -12 -9 -21 4 -11 2 -14 -9 -9 -15 6 -57 -41 -114 -128
-31 -46 -31 -46 -12 -67 24 -26 24 -31 -1 -31 -13 0 -20 7 -20 20 0 34 -27 22
-62 -26 -18 -25 -46 -53 -63 -61 -16 -9 -40 -24 -52 -35 -33 -30 -65 -17 -102
41 -42 64 -53 73 -86 65 -19 -5 -32 -18 -42 -43 -8 -20 -33 -55 -54 -78 -22
-24 -39 -47 -39 -53 0 -14 -42 -13 -65 3 -38 24 -96 39 -131 33 -20 -4 -34 -3
-34 3 0 30 110 20 165 -16 23 -15 55 -17 55 -3 0 5 20 31 44 58 24 27 46 61
49 75 4 13 17 28 29 33 18 6 12 8 -29 11 -29 2 -53 9 -53 15 0 18 115 3 147
-20 15 -11 42 -43 58 -71 21 -36 36 -51 52 -51 12 0 25 5 28 10 4 6 24 22 46
36 22 13 37 29 34 34 -3 6 1 10 9 10 9 0 16 6 16 14 0 8 11 28 25 44 13 16 22
32 18 36 -3 3 3 6 15 6 25 0 27 8 8 33 -16 21 -26 22 -26 2 0 -8 -5 -15 -11
-15 -7 0 -9 10 -4 27 5 22 4 25 -8 15 -8 -7 -21 -10 -29 -7 -9 4 -18 -1 -21
-9 -8 -20 -27 -21 -27 -2 0 8 -4 18 -10 21 -6 4 -7 -1 -3 -10 4 -13 1 -16 -13
-13 -20 3 -29 53 -14 78 9 15 33 3 27 -14 -3 -6 2 -17 9 -24 9 -8 14 -9 14 -2
0 6 4 9 9 5 5 -3 19 7 30 22 21 25 22 26 36 7 13 -16 16 -17 25 -4 5 8 7 22 4
30 -11 27 -9 43 5 48 10 3 12 0 8 -11 -3 -9 0 -23 8 -30 9 -10 10 -18 3 -25
-7 -7 1 -9 24 -7 18 2 37 4 42 4 4 1 5 9 1 19 -4 9 -8 23 -8 30 0 6 -4 12 -9
12 -5 0 -18 21 -30 48 -12 26 -24 50 -26 55 -2 4 3 7 11 7 8 0 18 -11 21 -25
6 -24 36 -36 36 -15 0 19 19 10 26 -12 4 -15 1 -25 -12 -35 -10 -7 -12 -13 -6
-13 7 0 12 -8 12 -17 0 -14 3 -13 16 5 11 17 24 22 48 20 41 -2 102 42 83 61
-8 8 -8 14 1 23 9 9 13 7 18 -6 6 -15 10 -14 39 8 17 13 49 28 71 32 65 11 74
20 74 67 -1 37 -2 40 -14 25 -16 -21 -30 -24 -23 -4 3 7 0 19 -6 25 -8 8 -5
11 11 11 22 0 26 7 17 32 -4 10 -16 13 -35 10 -17 -2 -30 0 -30 5 0 15 6 18
41 17 31 -1 34 -4 46 -50z m-2557 -4 c-1 -12 -4 -11 -15 4 -8 10 -12 23 -8 29
7 11 23 -12 23 -33z m17 3 c-3 -10 -5 -4 -5 12 0 17 2 24 5 18 2 -7 2 -21 0
-30z m1483 12 c0 -8 -7 -15 -15 -15 -16 0 -20 12 -8 23 11 12 23 8 23 -8z
m-90 -5 c0 -5 -9 -10 -20 -10 -11 0 -20 5 -20 10 0 6 9 10 20 10 11 0 20 -4
20 -10z m-605 -29 c3 -5 1 -12 -4 -15 -5 -3 -11 1 -15 9 -6 16 9 21 19 6z
m839 -23 c-6 -32 -28 -58 -47 -58 -6 0 -3 8 6 18 10 10 18 31 19 45 1 15 8 27
15 27 9 0 11 -10 7 -32z m606 17 c0 -8 -2 -15 -4 -15 -2 0 -6 7 -10 15 -3 8
-1 15 4 15 6 0 10 -7 10 -15z m-2216 -11 c4 -9 4 -19 1 -22 -6 -6 -35 18 -35
29 0 16 28 10 34 -7z m1386 12 c0 -3 -4 -8 -10 -11 -5 -3 -10 -1 -10 4 0 6 5
11 10 11 6 0 10 -2 10 -4z m31 -13 c1 -17 2 -17 6 0 2 9 9 17 15 17 5 0 7 -8
4 -17 -4 -9 -1 -20 6 -24 7 -4 9 -11 6 -15 -4 -3 -14 1 -23 10 -9 9 -21 16
-26 16 -5 0 -9 7 -9 15 0 21 20 19 21 -2z m689 -14 c0 -5 12 -6 26 -3 20 5 25
3 22 -6 -6 -20 -37 -21 -59 -2 -23 20 -25 34 -4 26 8 -4 15 -10 15 -15z m-46
-20 c-4 -6 -11 -6 -20 2 -21 17 -17 31 6 19 11 -6 18 -15 14 -21z m-574 17 c0
-3 -4 -8 -10 -11 -5 -3 -10 -1 -10 4 0 6 5 11 10 11 6 0 10 -2 10 -4z m195
-24 c-8 -8 -25 10 -19 20 4 6 9 5 15 -3 4 -7 6 -15 4 -17z m315 18 c0 -5 -5
-10 -11 -10 -5 0 -7 5 -4 10 3 6 8 10 11 10 2 0 4 -4 4 -10z m445 0 c3 -5 1
-10 -4 -10 -6 0 -11 5 -11 10 0 6 2 10 4 10 3 0 8 -4 11 -10z m-1310 -20 c3
-5 -1 -10 -10 -10 -9 0 -13 5 -10 10 3 6 8 10 10 10 2 0 7 -4 10 -10z m267
-22 c-7 -7 -12 -8 -12 -2 0 6 3 14 7 17 3 4 9 5 12 2 2 -3 -1 -11 -7 -17z
m866 -7 c-7 -9 -13 -17 -14 -19 -1 -2 -1 8 -1 22 0 17 4 23 14 19 11 -4 11 -8
1 -22z m-1148 -31 c0 -17 -19 -11 -30 9 -17 33 -11 46 10 23 11 -12 20 -26 20
-32z m763 15 c-17 -23 -33 -32 -33 -18 0 10 32 43 42 43 5 0 1 -11 -9 -25z
m427 5 c0 -5 -4 -10 -10 -10 -5 0 -10 5 -10 10 0 6 5 10 10 10 6 0 10 -4 10
-10z m-2060 -19 c0 -6 -5 -13 -11 -17 -8 -5 -8 -9 1 -14 7 -4 8 -10 3 -13 -5
-3 -15 -2 -22 2 -10 7 -10 12 0 30 14 22 29 28 29 12z m1690 -34 c0 -5 16 -7
36 -4 27 5 40 1 55 -14 11 -11 19 -14 19 -7 0 9 3 9 12 0 9 -9 8 -16 -5 -30
-9 -10 -17 -24 -17 -31 0 -7 -5 -9 -11 -6 -6 4 -8 13 -5 21 3 8 1 14 -4 14 -6
0 -10 -9 -10 -20 0 -11 -4 -20 -9 -20 -12 0 -25 56 -16 70 4 7 -2 9 -19 4 -16
-4 -26 -2 -26 5 0 6 -9 11 -20 11 -20 0 -28 29 -13 44 8 7 33 -21 33 -37z m28
31 c-2 -6 -10 -14 -16 -16 -7 -2 -10 2 -6 12 7 18 28 22 22 4z m52 3 c0 -6 -4
-13 -10 -16 -5 -3 -10 1 -10 9 0 9 5 16 10 16 6 0 10 -4 10 -9z m-1980 -21 c0
-11 -4 -20 -10 -20 -5 0 -10 9 -10 20 0 11 5 20 10 20 6 0 10 -9 10 -20z m157
-7 c-15 -16 -17 -16 -17 -1 0 9 6 18 13 21 20 7 22 -2 4 -20z m2528 6 c5 -5
-7 -9 -30 -9 l-40 0 29 -23 c16 -13 26 -28 23 -34 -4 -6 2 -13 13 -16 17 -4
20 -12 18 -41 -1 -25 -6 -35 -15 -32 -7 3 -13 1 -13 -4 0 -6 6 -10 14 -10 8 0
18 -4 21 -10 4 -6 -6 -10 -23 -10 -20 0 -32 7 -42 25 -7 13 -17 22 -22 19 -4
-3 -8 0 -8 5 0 6 6 11 13 12 6 0 2 5 -10 11 -29 14 -37 38 -17 53 16 11 12 35
-5 35 -17 0 -22 -63 -6 -80 17 -19 20 -40 5 -40 -11 0 5 -34 28 -58 21 -23 13
-34 -12 -15 -27 20 -48 67 -39 89 3 8 0 20 -6 27 -7 9 -8 24 -2 44 5 17 5 36
1 43 -15 25 12 38 65 33 28 -3 54 -9 60 -14z m-1230 1 c3 -5 2 -10 -4 -10 -5
0 -13 5 -16 10 -3 6 -2 10 4 10 5 0 13 -4 16 -10z m715 -21 c0 -5 -4 -9 -10
-9 -5 0 -10 7 -10 16 0 8 5 12 10 9 6 -3 10 -10 10 -16z m-2050 2 c0 -4 -13
-8 -30 -7 -39 1 -39 16 0 16 17 0 30 -4 30 -9z m2260 -1 c0 -5 -5 -10 -11 -10
-5 0 -7 5 -4 10 3 6 8 10 11 10 2 0 4 -4 4 -10z m-2335 -10 c-3 -5 -13 -10
-21 -10 -8 0 -14 5 -14 10 0 6 9 10 21 10 11 0 17 -4 14 -10z m1012 -5 c19 4
23 1 23 -19 0 -13 3 -31 6 -40 3 -9 1 -16 -5 -16 -6 0 -11 7 -11 15 0 8 -5 15
-11 15 -5 0 -7 -4 -4 -10 7 -12 -9 -13 -54 -4 -44 9 -39 26 7 20 l37 -6 -42
13 c-46 13 -66 27 -40 27 10 0 17 4 17 10 0 6 10 6 27 -1 15 -5 38 -8 50 -4z
m-832 -33 c-8 -9 -25 20 -18 31 3 5 10 2 15 -7 6 -10 7 -20 3 -24z m2040 28
c3 -5 1 -10 -4 -10 -6 0 -11 5 -11 10 0 6 2 10 4 10 3 0 8 -4 11 -10z m-785
-20 c0 -5 -4 -10 -10 -10 -5 0 -10 5 -10 10 0 6 5 10 10 10 6 0 10 -4 10 -10z
m880 -10 c0 -5 -4 -10 -10 -10 -5 0 -10 5 -10 10 0 6 5 10 10 10 6 0 10 -4 10
-10z m120 3 c-1 -19 -18 -33 -33 -27 -9 3 -14 10 -11 15 3 5 10 7 15 4 5 -4 9
-1 9 4 0 6 5 11 10 11 6 0 10 -3 10 -7z m-1350 -25 c20 -31 31 -58 22 -58 -17
1 -41 28 -47 53 -9 33 5 35 25 5z m-890 -24 c7 -17 15 -24 25 -20 8 3 15 1 15
-4 0 -5 19 -22 43 -36 42 -27 60 -45 52 -53 -3 -2 -11 2 -19 8 -12 10 -22 9
-52 -5 -27 -13 -39 -15 -42 -6 -2 6 -14 27 -27 47 -19 27 -21 35 -10 35 8 0
15 5 15 10 0 6 -4 10 -10 10 -5 0 -10 9 -10 20 0 28 9 25 20 -6z m2074 -26 c4
-17 2 -28 -4 -28 -6 0 -8 5 -5 10 3 6 0 10 -7 10 -7 0 -22 8 -33 16 -20 15
-20 15 0 30 23 17 39 5 49 -38z m-2238 27 c-21 -16 -32 -13 -21 4 3 6 14 11
23 11 15 -1 15 -2 -2 -15z m64 5 c0 -5 -6 -10 -14 -10 -8 0 -18 5 -21 10 -3 6
3 10 14 10 12 0 21 -4 21 -10z m2200 0 c0 -5 -4 -10 -10 -10 -5 0 -10 5 -10
10 0 6 5 10 10 10 6 0 10 -4 10 -10z m-2145 -21 c11 -17 0 -20 -21 -4 -17 13
-17 14 -2 15 9 0 20 -5 23 -11z m1220 -5 c-32 -25 -55 -36 -55 -26 0 13 41 41
60 41 11 0 10 -4 -5 -15z m-475 -15 c0 -6 -4 -7 -10 -4 -5 3 -10 11 -10 16 0
6 5 7 10 4 6 -3 10 -11 10 -16z m-985 1 c-3 -5 -13 -10 -21 -10 -8 0 -12 5 -9
10 3 6 13 10 21 10 8 0 12 -4 9 -10z m53 -8 c2 -7 -2 -10 -12 -6 -9 3 -16 11
-16 16 0 13 23 5 28 -10z m52 -7 c0 -7 -6 -16 -12 -18 -10 -4 -9 -8 2 -16 13
-9 13 -11 -1 -11 -9 0 -19 7 -23 15 -3 8 -1 15 4 15 6 0 10 9 10 21 0 11 5 17
10 14 6 -3 10 -12 10 -20z m1730 13 c0 -9 3 -9 11 -1 12 12 49 6 49 -8 0 -5
-7 -9 -16 -9 -12 0 -14 -7 -9 -32 5 -30 5 -31 -8 -15 -9 10 -21 15 -31 11 -13
-5 -16 1 -16 30 0 20 5 36 10 36 6 0 10 -5 10 -12z m-910 -23 c7 -9 9 -19 5
-23 -4 -4 -10 -1 -12 6 -6 15 -23 6 -23 -14 0 -8 7 -14 15 -14 8 0 15 -5 15
-11 0 -6 -7 -8 -16 -5 -9 3 -27 6 -40 6 -31 0 -30 14 1 45 28 29 38 31 55 10z
m-947 -20 c4 -8 2 -17 -3 -20 -6 -4 -10 -4 -10 -1 0 2 -3 11 -6 20 -3 9 -2 16
4 16 5 0 12 -7 15 -15z m2637 -5 c0 -5 -4 -10 -10 -10 -5 0 -10 5 -10 10 0 6
5 10 10 10 6 0 10 -4 10 -10z m-330 -18 c0 -5 -7 -17 -15 -28 -14 -19 -14 -19
-15 2 0 11 3 24 7 27 9 10 23 9 23 -1z m658 -48 c12 -12 27 -24 34 -27 7 -2
10 -8 6 -12 -11 -11 -57 22 -70 50 -6 14 -16 21 -22 18 -6 -4 -22 -6 -37 -5
-15 1 -33 -6 -43 -17 -19 -21 -14 -43 9 -35 18 7 57 -14 49 -27 -3 -5 -15 -7
-27 -3 -12 4 -30 7 -39 6 -10 0 -18 3 -18 9 0 5 -7 9 -15 9 -21 0 -20 2 19 45
27 29 40 36 58 32 13 -3 32 -2 43 3 14 5 22 3 27 -9 3 -9 15 -26 26 -37z
m-1330 0 c-2 -15 -8 -29 -14 -31 -16 -5 -25 49 -12 65 16 18 30 0 26 -34z
m-1628 21 c0 -8 -7 -15 -16 -15 -14 0 -14 3 -4 15 7 8 14 15 16 15 2 0 4 -7 4
-15z m2360 0 c0 -8 -4 -15 -10 -15 -5 0 -10 7 -10 15 0 8 5 15 10 15 6 0 10
-7 10 -15z m-1000 1 c0 -3 -4 -8 -10 -11 -5 -3 -10 -1 -10 4 0 6 5 11 10 11 6
0 10 -2 10 -4z m-1418 -28 c-6 -6 -15 -8 -19 -4 -4 4 -1 11 7 16 19 12 27 3
12 -12z m1863 12 c-3 -5 -11 -10 -16 -10 -6 0 -7 5 -4 10 3 6 11 10 16 10 6 0
7 -4 4 -10z m-425 -10 c0 -5 -9 -14 -20 -20 -16 -8 -20 -8 -20 4 0 13 13 23
33 25 4 1 7 -3 7 -9z m1238 -40 c14 0 0 -76 -19 -100 -15 -20 -19 -22 -19 -7
0 9 -5 17 -10 17 -7 0 -7 6 -1 19 6 10 7 21 4 25 -3 3 -1 6 5 6 7 0 12 15 12
33 0 39 13 59 18 28 2 -12 7 -21 10 -21z m-2724 15 c-6 -16 -24 -21 -24 -7 0
11 11 22 21 22 5 0 6 -7 3 -15z m2626 -15 c0 -5 -4 -10 -9 -10 -6 0 -13 5 -16
10 -3 6 1 10 9 10 9 0 16 -4 16 -10z m-666 -59 c-3 -3 -9 0 -13 8 -5 7 -11 12
-15 12 -24 -3 -25 1 -5 18 l24 19 7 -26 c4 -14 5 -28 2 -31z m-1984 18 c0 -11
-4 -18 -10 -14 -5 3 -7 12 -3 20 7 21 13 19 13 -6z m2649 5 c2 -2 2 -7 -2 -10
-8 -9 -47 6 -47 17 0 9 37 3 49 -7z m-924 -8 c16 -12 17 -18 8 -38 -16 -35
-78 -27 -68 7 3 8 7 22 10 30 6 19 25 19 50 1z m-1507 -35 c-5 -2 -15 2 -21 8
-9 9 -8 14 3 21 11 7 17 4 21 -8 4 -9 2 -19 -3 -21z m2332 32 c-1 -20 -19 -35
-36 -29 -16 6 -16 7 2 21 21 16 34 19 34 8z m-2580 -18 c0 -8 -4 -15 -10 -15
-5 0 -7 -7 -4 -15 4 -8 1 -15 -5 -15 -12 0 -14 20 -5 44 8 20 24 21 24 1z
m1460 5 c0 -5 -9 -10 -20 -10 -11 0 -20 5 -20 10 0 6 9 10 20 10 11 0 20 -4
20 -10z m1160 -20 c0 -5 -4 -10 -10 -10 -5 0 -10 -7 -10 -15 0 -8 5 -15 10
-15 6 0 10 -4 10 -10 0 -14 -13 -13 -33 3 -16 11 -16 14 -2 35 17 23 35 29 35
12z m535 -20 c-15 -16 -21 -18 -33 -8 -13 11 -14 6 -7 -40 8 -60 -9 -73 -20
-14 -3 20 -9 47 -12 60 -5 20 -2 22 42 22 47 0 48 0 30 -20z m-1598 -17 c-9
-9 -20 -13 -24 -9 -4 4 -1 11 7 16 25 16 35 11 17 -7z m517 -8 c3 -8 1 -15 -4
-15 -6 0 -10 7 -10 15 0 8 2 15 4 15 2 0 6 -7 10 -15z m956 -14 c0 -16 -7 -34
-15 -41 -8 -7 -15 -23 -15 -36 0 -30 -16 -31 -22 -1 -6 31 7 73 21 69 8 -2 10
4 6 18 -5 14 -2 20 9 20 11 0 16 -9 16 -29z m-1877 -11 c18 0 23 -15 7 -25
-15 -9 -58 5 -64 22 -10 24 4 36 23 19 10 -9 25 -16 34 -16z m-1163 11 c0 -5
-7 -12 -16 -15 -24 -9 -28 -7 -14 9 14 17 30 20 30 6z m2565 -1 c3 -5 2 -10
-4 -10 -5 0 -13 5 -16 10 -3 6 -2 10 4 10 5 0 13 -4 16 -10z m240 -16 c0 -10
4 -25 9 -32 6 -10 3 -13 -10 -10 -14 2 -19 12 -19 36 0 17 5 30 10 29 6 -2 10
-12 10 -23z m-2897 -13 c4 -28 -13 -20 -21 9 -3 14 -1 20 6 17 7 -2 14 -14 15
-26z m3052 -1 c0 -5 -5 -10 -11 -10 -7 0 -9 -10 -7 -25 6 -27 -5 -41 -22 -30
-8 5 -8 11 -1 19 6 7 8 16 5 19 -7 6 16 36 29 37 4 0 7 -4 7 -10z m-1740 -10
c0 -5 -4 -10 -10 -10 -5 0 -10 5 -10 10 0 6 5 10 10 10 6 0 10 -4 10 -10z
m1630 -21 c0 -11 -4 -17 -10 -14 -5 3 -10 13 -10 21 0 8 5 14 10 14 6 0 10 -9
10 -21z m-180 1 c0 -5 -4 -10 -10 -10 -5 0 -10 5 -10 10 0 6 5 10 10 10 6 0
10 -4 10 -10z m-165 -31 c3 -4 -4 -23 -15 -41 -18 -29 -26 -31 -21 -4 1 5 -4
13 -11 18 -10 7 -10 11 -1 14 7 3 10 11 7 19 -4 10 0 12 15 8 12 -3 24 -9 26
-14z m360 -9 c3 -5 -1 -10 -10 -10 -9 0 -13 5 -10 10 3 6 8 10 10 10 2 0 7 -4
10 -10z m-195 -30 c0 -5 -4 -10 -10 -10 -5 0 -10 5 -10 10 0 6 5 10 10 10 6 0
10 -4 10 -10z m-750 -186 c49 -20 52 -34 6 -34 -49 0 -65 8 -59 31 6 23 3 23
53 3z m-230 -19 c0 -8 -4 -15 -10 -15 -5 0 -10 7 -10 15 0 8 5 15 10 15 6 0
10 -7 10 -15z m-200 -15 c0 -5 -6 -10 -12 -10 -7 0 -20 -5 -28 -10 -13 -9 -13
-11 0 -20 13 -9 13 -11 0 -20 -20 -13 -50 -13 -50 0 0 6 7 10 15 10 8 0 15 5
15 11 0 5 -4 7 -10 4 -5 -3 -10 -2 -10 4 0 11 48 40 68 41 6 0 12 -4 12 -10z
m497 -42 c6 -7 13 -25 17 -40 10 -41 -19 -36 -39 6 -11 22 -22 33 -33 31 -9
-2 -17 -4 -17 -5 0 -1 -10 -3 -22 -4 -23 -3 -29 4 -16 17 11 12 100 7 110 -5z
m-275 -60 c5 -37 -3 -78 -16 -78 -7 0 -13 13 -13 30 0 17 4 30 9 30 16 0 8 29
-9 33 -14 4 -13 5 4 6 15 1 23 -6 25 -21z m-305 -5 c3 -7 -3 -9 -17 -6 -29 8
-37 25 -9 21 12 -1 24 -8 26 -15z m-1747 -20 c0 -14 -19 -38 -25 -32 -8 8 5
39 16 39 5 0 9 -3 9 -7z m-14 -69 c-3 -9 -6 -18 -6 -20 0 -2 -4 -4 -9 -4 -5 0
-7 9 -4 20 3 11 10 20 15 20 6 0 7 -7 4 -16z m1849 -5 c12 -19 -5 -23 -22 -6
-16 16 -16 17 -1 17 9 0 20 -5 23 -11z m-1869 -55 c-3 -9 -6 -18 -6 -20 0 -3
-4 -3 -10 1 -11 7 -2 35 12 35 6 0 7 -7 4 -16z m-9 -59 c-4 -8 -11 -15 -17
-15 -7 0 -7 6 0 21 13 23 26 19 17 -6z m2148 -20 c33 -32 32 -53 0 -51 -16 0
-25 7 -25 18 0 9 -4 20 -10 23 -13 8 -13 35 0 35 6 0 22 -11 35 -25z m892 -34
c24 -31 13 -46 -12 -16 l-24 29 -24 -23 c-14 -12 -27 -35 -30 -49 -10 -47 -50
-148 -54 -135 -3 7 5 40 16 73 12 33 21 67 21 76 0 8 13 29 29 45 31 30 54 30
78 0z m-3047 -13 c0 -26 -13 -16 -17 13 -2 12 1 18 7 14 5 -3 10 -16 10 -27z
m-620 -52 c0 -8 -4 -18 -10 -21 -5 -3 -10 3 -10 14 0 12 5 21 10 21 6 0 10 -6
10 -14z m630 -6 c0 -11 -6 -20 -14 -20 -9 0 -12 7 -9 20 3 11 9 20 14 20 5 0
9 -9 9 -20z m-1504 -27 c-11 -11 -19 6 -11 24 8 17 8 17 12 0 3 -10 2 -21 -1
-24z m384 27 c0 -5 -9 -10 -21 -10 -11 0 -17 5 -14 10 3 6 13 10 21 10 8 0 14
-4 14 -10z m280 -19 c0 -5 -7 -14 -15 -21 -16 -14 -18 -10 -9 14 6 17 24 22
24 7z m-830 -32 c0 -6 7 -8 17 -5 14 6 14 3 -3 -15 -16 -18 -20 -19 -22 -5 -2
9 -10 16 -18 16 -8 0 -14 5 -14 10 0 6 9 10 20 10 11 0 20 -5 20 -11z m-236
-23 c-6 -16 -24 -23 -24 -8 0 10 22 33 27 28 2 -2 1 -11 -3 -20z m1021 14 c-3
-5 -13 -10 -21 -10 -8 0 -14 5 -14 10 0 6 9 10 21 10 11 0 17 -4 14 -10z
m-835 -7 c0 -14 -19 -38 -25 -32 -8 8 5 39 16 39 5 0 9 -3 9 -7z m808 -19 c7
4 12 2 12 -4 0 -16 -30 -24 -42 -12 -7 7 -22 6 -49 -3 -24 -9 -39 -10 -39 -4
0 6 -9 8 -20 4 -24 -8 -27 10 -3 19 9 4 20 1 25 -6 8 -10 11 -10 15 0 2 6 15
12 28 12 13 0 27 5 30 11 5 6 11 4 19 -7 7 -9 18 -14 24 -10z m66 17 c3 -5 -3
-11 -14 -14 -20 -5 -26 3 -13 16 9 10 21 9 27 -2z m2411 -55 c-5 -27 -3 -35
12 -40 17 -7 17 -8 0 -21 -22 -16 -47 -10 -47 11 0 8 -6 14 -12 14 -10 0 -10
2 0 9 8 5 11 17 7 32 -5 21 -2 25 20 27 24 2 25 0 20 -32z m-3500 4 c-4 -12
-2 -20 6 -20 9 0 8 -4 -1 -15 -7 -8 -20 -15 -29 -15 -13 1 -13 2 3 11 13 8 15
14 7 18 -6 4 -9 15 -5 24 9 24 27 21 19 -3z m175 11 c0 -5 -7 -12 -16 -15 -24
-9 -28 -7 -14 9 14 17 30 20 30 6z m80 -5 c0 -8 -4 -18 -10 -21 -5 -3 -10 3
-10 14 0 12 5 21 10 21 6 0 10 -6 10 -14z m724 -10 c-6 -16 -24 -23 -24 -8 0
10 22 33 27 28 2 -2 1 -11 -3 -20z m-184 5 c0 -5 -9 -11 -20 -14 -22 -6 -28 8
-7 16 19 8 27 8 27 -2z m55 -1 c-3 -5 -13 -10 -21 -10 -8 0 -14 5 -14 10 0 6
9 10 21 10 11 0 17 -4 14 -10z m-115 -8 c0 -4 -9 -8 -20 -9 -11 -1 -20 2 -20
8 0 5 9 9 20 9 11 0 20 -4 20 -8z m145 -12 c-4 -11 -2 -20 4 -20 6 0 11 -4 11
-10 0 -14 -28 -1 -34 17 -7 17 1 33 15 33 6 0 7 -9 4 -20z m-765 6 c0 -9 -30
-14 -35 -6 -4 6 3 10 14 10 12 0 21 -2 21 -4z m560 -5 c0 -16 -31 -42 -42 -35
-6 4 -5 10 3 15 8 5 10 9 4 10 -8 0 15 13 33 18 1 1 2 -3 2 -8z m-623 -18 c-9
-9 -20 -13 -24 -9 -4 4 -1 11 7 16 25 16 35 11 17 -7z m409 1 c-5 -13 -1 -15
19 -10 14 4 25 2 25 -3 0 -8 -33 -21 -56 -21 -7 0 -9 10 -6 25 2 14 9 25 14
25 6 0 7 -7 4 -16z m154 6 c0 -5 -9 -10 -21 -10 -11 0 -17 5 -14 10 3 6 13 10
21 10 8 0 14 -4 14 -10z m330 1 c0 -11 -31 -24 -39 -16 -3 3 1 10 9 15 19 12
30 12 30 1z m-720 -10 c0 -5 -7 -12 -16 -15 -24 -9 -28 -7 -14 9 14 17 30 20
30 6z m500 -1 c0 -13 -11 -13 -30 0 -12 8 -11 10 8 10 12 0 22 -4 22 -10z
m115 0 c-3 -5 -12 -10 -20 -10 -8 0 -17 5 -20 10 -4 6 5 10 20 10 15 0 24 -4
20 -10z m-55 -10 c0 -5 -9 -10 -20 -10 -11 0 -20 5 -20 10 0 6 9 10 20 10 11
0 20 -4 20 -10z m-220 -15 c0 -8 -9 -15 -20 -15 -11 0 -20 7 -20 15 0 8 9 15
20 15 11 0 20 -7 20 -15z m46 -20 c0 -14 -6 -25 -13 -25 -20 0 -24 18 -7 34
21 21 22 20 20 -9z m219 6 c-3 -6 -14 -11 -23 -11 -15 1 -15 2 2 15 21 16 32
13 21 -4z m60 9 c3 -5 -1 -10 -9 -10 -8 0 -18 5 -21 10 -3 6 1 10 9 10 8 0 18
-4 21 -10z m-715 -22 c0 -16 -3 -19 -11 -11 -6 6 -8 16 -5 22 11 17 16 13 16
-11z m330 17 c0 -2 -13 -11 -30 -20 -18 -9 -30 -11 -30 -5 0 6 10 15 23 20 26
10 37 12 37 5z m-83 -22 c-9 -9 -20 -13 -24 -9 -4 4 -1 11 7 16 25 16 35 11
17 -7z m363 -2 c0 -5 -7 -12 -16 -15 -24 -9 -28 -7 -14 9 14 17 30 20 30 6z
m-110 -11 c0 -5 -9 -14 -20 -20 -17 -9 -20 -8 -20 10 0 13 7 20 20 20 11 0 20
-4 20 -10z m-268 -12 c14 14 32 16 23 3 -3 -6 4 -19 17 -30 12 -12 18 -24 14
-28 -4 -5 -14 1 -21 11 -11 14 -22 17 -49 13 -35 -6 -40 2 -22 32 7 11 10 11
17 0 6 -11 11 -11 21 -1z m321 1 c-8 -8 -16 -8 -30 0 -16 9 -14 10 12 11 21 0
26 -3 18 -11z m-565 -11 c-3 -7 -13 -15 -24 -17 -16 -3 -17 -1 -5 13 16 19 34
21 29 4z m447 -17 c-3 -6 -14 -11 -23 -11 -15 1 -15 2 2 15 21 16 32 13 21 -4z
m-495 -20 c0 -5 -7 -11 -15 -15 -15 -5 -20 5 -8 17 9 10 23 9 23 -2z m450 -1
c0 -5 -10 -10 -22 -10 -19 0 -20 2 -8 10 19 13 30 13 30 0z m-220 -12 c0 -19
-18 -43 -25 -36 -4 3 -2 16 5 27 12 24 20 27 20 9z m167 -4 c-3 -3 -12 -4 -19
-1 -8 3 -5 6 6 6 11 1 17 -2 13 -5z m753 -4 c0 -5 -5 -10 -11 -10 -5 0 -7 5
-4 10 3 6 8 10 11 10 2 0 4 -4 4 -10z m-1196 -34 c-6 -16 -24 -23 -24 -8 0 10
22 33 27 28 2 -2 1 -11 -3 -20z m1346 4 c0 -5 -4 -10 -9 -10 -6 0 -13 5 -16
10 -3 6 1 10 9 10 9 0 16 -4 16 -10z m30 -25 c0 -14 5 -25 10 -25 6 0 10 -4
10 -10 0 -5 -6 -10 -14 -10 -8 0 -17 -6 -19 -12 -3 -7 -6 8 -6 35 -1 26 4 47
9 47 6 0 10 -11 10 -25z m-1410 -5 c0 -5 -9 -10 -21 -10 -11 0 -17 5 -14 10 3
6 13 10 21 10 8 0 14 -4 14 -10z m-330 -25 c-7 -9 -15 -13 -18 -10 -3 2 1 11
8 20 7 9 15 13 18 10 3 -2 -1 -11 -8 -20z m60 10 c14 -16 10 -18 -14 -9 -9 3
-16 10 -16 15 0 14 16 11 30 -6z m219 -26 c-16 -10 -23 -4 -14 10 3 6 11 8 17
5 6 -4 5 -9 -3 -15z m-323 -27 c-8 -9 -19 -13 -22 -9 -10 9 16 38 28 31 6 -4
4 -13 -6 -22z m143 2 c3 -16 1 -17 -13 -5 -19 16 -21 34 -3 29 6 -3 14 -13 16
-24z m155 -19 c-6 -16 -24 -21 -24 -7 0 11 11 22 21 22 5 0 6 -7 3 -15z m-79
-5 c7 12 35 13 35 3 0 -5 -11 -13 -23 -19 -25 -11 -67 -2 -67 15 0 7 9 7 25 1
15 -6 26 -6 30 0z m-39 -67 c-10 -10 -19 5 -10 18 6 11 8 11 12 0 2 -7 1 -15
-2 -18z m234 7 c0 -5 -2 -10 -4 -10 -3 0 -8 5 -11 10 -3 6 -1 10 4 10 6 0 11
-4 11 -10z m9 -27 c0 -5 -4 -17 -9 -28 -8 -18 -9 -17 -9 8 -1 15 4 27 9 27 6
0 10 -3 9 -7z m-269 -18 c-7 -8 -16 -15 -21 -15 -5 0 -6 7 -3 15 4 8 13 15 21
15 13 0 13 -3 3 -15z m-40 -35 c0 -5 -9 -10 -21 -10 -11 0 -17 5 -14 10 3 6
13 10 21 10 8 0 14 -4 14 -10z m-61 -21 c-22 -14 -33 -10 -19 6 7 8 17 12 22
9 6 -4 5 -10 -3 -15z m361 7 c0 -15 -18 -31 -26 -23 -7 7 7 37 17 37 5 0 9 -6
9 -14z m-106 -45 c-2 -3 -9 0 -15 6 -6 6 -18 9 -25 6 -17 -6 -18 9 -3 24 9 9
16 6 30 -10 9 -12 15 -24 13 -26z m-299 19 c-3 -5 -17 -10 -31 -10 -14 0 -22
4 -19 10 3 6 17 10 31 10 14 0 22 -4 19 -10z m365 -10 c0 -5 -9 -10 -21 -10
-11 0 -17 5 -14 10 3 6 13 10 21 10 8 0 14 -4 14 -10z m-144 -15 c-21 -16 -32
-13 -21 4 3 6 14 11 23 11 15 -1 15 -2 -2 -15z m-259 -27 c-3 -7 -5 -2 -5 12
0 14 2 19 5 13 2 -7 2 -19 0 -25z m53 17 c-7 -8 -17 -15 -22 -15 -6 0 -5 7 2
15 7 8 17 15 22 15 6 0 5 -7 -2 -15z m60 -5 c0 -13 -11 -13 -30 0 -12 8 -11
10 8 10 12 0 22 -4 22 -10z m106 -37 c-11 -11 -17 4 -9 23 7 18 8 18 11 1 2
-10 1 -21 -2 -24z m-56 5 c0 -13 -32 -6 -37 9 -3 7 3 9 16 6 12 -3 21 -10 21
-15z m-127 -18 c-3 -11 -9 -17 -14 -15 -10 7 -1 35 11 35 5 0 6 -9 3 -20z
m156 -9 c8 -5 9 -11 3 -15 -5 -3 -15 1 -22 9 -14 16 -3 20 19 6z m2011 -51
c10 -1 11 -3 3 -7 -7 -2 -13 -13 -13 -23 0 -21 -53 -37 -90 -27 -10 3 -24 -1
-31 -9 -6 -8 -18 -14 -27 -14 -23 0 13 37 43 44 14 4 29 14 34 24 9 16 22 18
81 12z m-20 -80 c0 -5 -4 -10 -10 -10 -5 0 -10 5 -10 10 0 6 5 10 10 10 6 0
10 -4 10 -10z m-284 -70 c9 0 12 -5 9 -10 -4 -6 -1 -18 6 -26 6 -8 9 -18 5
-22 -4 -4 -14 2 -23 13 -15 20 -15 20 -30 -2 -21 -31 -28 -29 -28 7 0 22 5 30
18 30 9 0 17 8 18 18 0 10 3 12 6 5 2 -7 11 -13 19 -13z m604 -5 c0 -8 -4 -15
-10 -15 -5 0 -10 7 -10 15 0 8 5 15 10 15 6 0 10 -7 10 -15z m-175 -35 c18 -8
17 -9 -7 -9 -16 -1 -28 4 -28 9 0 12 8 12 35 0z m125 -20 c0 -16 -4 -30 -10
-30 -5 0 -10 14 -10 30 0 17 5 30 10 30 6 0 10 -13 10 -30z m-64 -7 c-7 -7
-26 7 -26 19 0 6 6 6 15 -2 9 -7 13 -15 11 -17z m9 -22 c3 -5 1 -12 -5 -16 -5
-3 -10 1 -10 9 0 18 6 21 15 7z m-188 -20 c-3 -12 1 -21 12 -24 23 -6 41 2 41
19 0 8 4 14 10 14 5 0 9 -15 8 -34 -1 -32 -3 -34 -29 -29 -21 4 -28 1 -34 -16
-3 -12 -11 -19 -16 -15 -6 3 -6 12 0 22 6 10 6 23 -1 35 -5 10 -7 25 -4 33 8
21 19 17 13 -5z m-107 -21 c0 -5 -4 -10 -10 -10 -5 0 -10 5 -10 10 0 6 5 10
10 10 6 0 10 -4 10 -10z m70 0 c0 -5 -7 -10 -15 -10 -8 0 -15 5 -15 10 0 6 7
10 15 10 8 0 15 -4 15 -10z m230 -10 c0 -5 -4 -10 -10 -10 -5 0 -10 5 -10 10
0 6 5 10 10 10 6 0 10 -4 10 -10z m-70 -15 c0 -8 -4 -15 -10 -15 -5 0 -7 -8
-3 -17 5 -17 5 -17 -12 -1 -15 14 -15 18 -4 32 18 20 29 20 29 1z m-314 -55
c3 0 14 5 25 10 24 13 26 -5 2 -19 -17 -9 -17 -10 0 -28 19 -21 23 -48 6 -38
-6 4 -8 10 -5 13 3 3 -3 11 -14 19 -15 11 -28 12 -55 4 -43 -12 -47 3 -5 18
25 8 30 15 26 35 -2 13 -1 27 2 31 4 4 8 -5 10 -19 2 -14 6 -26 8 -26z m124
-22 c0 -12 -28 -9 -36 3 -3 6 0 15 7 20 13 7 28 -5 29 -23z"/>
<path d="M4737 3729 c7 -7 15 -10 18 -7 3 3 -2 9 -12 12 -14 6 -15 5 -6 -5z"/>
<path d="M5050 3571 c0 -5 7 -12 16 -15 14 -5 15 -4 4 9 -14 17 -20 19 -20 6z"/>
<path d="M4971 3208 c0 -28 2 -30 9 -13 12 28 12 45 0 45 -5 0 -10 -15 -9 -32z"/>
<path d="M5713 3483 c-21 -8 -16 -43 6 -43 11 0 23 5 26 10 3 6 1 10 -5 10 -7
0 -10 7 -6 15 6 15 1 17 -21 8z"/>
<path d="M5503 3423 c-7 -3 -13 -8 -13 -13 0 -10 24 -7 28 4 5 11 -1 14 -15 9z"/>
<path d="M5650 3394 c0 -8 5 -12 10 -9 6 4 8 11 5 16 -9 14 -15 11 -15 -7z"/>
<path d="M5580 3390 c0 -5 7 -10 15 -10 8 0 15 5 15 10 0 6 -7 10 -15 10 -8 0
-15 -4 -15 -10z"/>
<path d="M5480 3379 c0 -5 5 -7 10 -4 6 3 10 8 10 11 0 2 -4 4 -10 4 -5 0 -10
-5 -10 -11z"/>
<path d="M5516 3371 c-15 -17 -15 -19 1 -32 15 -12 16 -12 10 4 -5 14 -2 20
13 24 11 3 17 9 14 14 -8 14 -19 11 -38 -10z"/>
<path d="M5650 3363 c0 -15 18 -35 23 -27 3 5 -1 15 -9 22 -8 7 -14 9 -14 5z"/>
<path d="M5701 3334 c0 -11 3 -14 6 -6 3 7 2 16 -1 19 -3 4 -6 -2 -5 -13z"/>
<path d="M5266 3475 c-11 -8 -15 -15 -9 -15 6 0 16 7 23 15 16 19 11 19 -14 0z"/>
<path d="M7663 3049 c-24 -9 -32 -49 -10 -49 16 0 57 28 57 39 0 14 -23 19
-47 10z"/>
<path d="M7555 3030 c3 -5 11 -10 16 -10 6 0 7 5 4 10 -3 6 -11 10 -16 10 -6
0 -7 -4 -4 -10z"/>
<path d="M7596 3033 c-12 -12 -6 -33 9 -33 8 0 15 6 15 14 0 17 -14 28 -24 19z"/>
<path d="M4676 3065 c-3 -8 -12 -15 -20 -15 -22 0 -9 -28 16 -36 25 -8 37 9
30 42 -5 27 -17 31 -26 9z"/>
<path d="M5240 3360 c0 -13 18 -22 24 -11 3 5 -1 11 -9 15 -8 3 -15 1 -15 -4z"/>
<path d="M5420 3129 c23 -23 50 -31 43 -13 -3 7 -9 14 -13 14 -5 0 -17 3 -27
7 -16 6 -16 5 -3 -8z"/>
<path d="M5100 2711 c0 -10 -7 -24 -15 -31 -8 -7 -15 -17 -15 -22 0 -6 6 -6
14 1 18 16 38 71 25 71 -5 0 -9 -8 -9 -19z"/>
<path d="M5010 2624 c0 -10 -6 -14 -15 -10 -9 3 -15 0 -15 -10 0 -8 5 -12 10
-9 6 3 10 -4 11 -17 0 -13 3 -17 6 -9 3 7 14 22 24 32 25 25 24 39 -1 39 -12
0 -20 -7 -20 -16z"/>
<path d="M5607 2719 c4 -13 8 -18 11 -10 2 7 -1 18 -6 23 -8 8 -9 4 -5 -13z"/>
<path d="M3196 2665 c-3 -8 -1 -15 4 -15 6 0 10 7 10 15 0 8 -2 15 -4 15 -2 0
-6 -7 -10 -15z"/>
<path d="M4437 2455 c-8 -18 11 -31 25 -17 11 11 3 32 -12 32 -4 0 -10 -7 -13
-15z"/>
<path d="M480 3839 c-14 -6 -35 -8 -47 -6 -16 3 -33 -6 -57 -29 -19 -19 -43
-34 -53 -35 -16 0 -16 -1 2 -9 16 -6 26 -1 48 23 l27 32 21 -27 c20 -27 21
-27 47 -11 33 20 52 42 52 60 0 15 -6 15 -40 2z"/>
<path d="M241 3756 c-13 -7 -20 -16 -15 -19 5 -3 20 3 33 14 27 22 17 25 -18
5z"/>
</g>
</svg>
