<?xml version="1.0" standalone="no"?>
<!DOCTYPE svg PUBLIC "-//W3C//DTD SVG 20010904//EN"
 "http://www.w3.org/TR/2001/REC-SVG-20010904/DTD/svg10.dtd">
<svg version="1.0" xmlns="http://www.w3.org/2000/svg"
 width="800.000000pt" height="800.000000pt" viewBox="0 0 800.000000 800.000000"
 preserveAspectRatio="xMidYMid meet">
<metadata>
Created by potrace 1.16, written by Peter Selinger 2001-2019
</metadata>
<g transform="translate(0.000000,800.000000) scale(0.100000,-0.100000)"
fill="#000000" stroke="none">
<path d="M0 4000 l0 -4000 2917 0 2917 0 -37 38 c-20 21 -37 47 -37 57 0 11
16 43 36 72 31 45 40 52 60 47 20 -5 26 -1 34 23 9 25 16 29 44 29 19 -1 32
-4 29 -8 -2 -5 3 -8 11 -8 9 0 16 -4 16 -10 0 -12 -7 -12 -47 -1 -25 7 -33 6
-38 -7 -3 -8 -2 -18 2 -22 4 -4 59 -21 122 -40 107 -30 115 -31 127 -15 11 15
18 16 62 5 36 -8 52 -17 55 -32 4 -15 11 -19 26 -15 24 6 29 -8 6 -17 -10 -4
-15 -20 -15 -51 l0 -45 510 0 510 0 -16 25 c-9 14 -21 22 -27 18 -5 -3 -7 -1
-4 4 4 6 -8 30 -26 54 -19 24 -39 59 -45 78 -14 41 -14 41 -3 41 5 0 13 -10
16 -22 11 -34 77 -128 86 -122 5 3 7 -1 4 -8 -2 -7 6 -25 20 -40 l24 -28 330
0 331 0 0 3410 c0 2259 -3 3410 -10 3410 -6 0 -10 -4 -10 -9 0 -5 -7 -17 -16
-25 -14 -14 -17 -14 -31 -1 -13 14 -18 13 -41 -4 -15 -10 -39 -30 -54 -44 -16
-15 -28 -21 -28 -15 0 7 -15 9 -45 5 -27 -4 -45 -3 -45 3 0 6 7 10 15 10 8 0
15 4 15 9 0 5 15 6 33 1 27 -6 38 -3 60 15 14 13 24 26 21 29 -2 3 -1 4 3 1 3
-3 12 0 20 6 17 15 56 17 65 4 5 -6 8 -3 8 8 0 10 8 17 20 17 20 0 20 7 20
585 l0 585 -665 0 c-594 0 -666 -2 -680 -16 -9 -9 -14 -21 -12 -28 2 -6 -3
-17 -10 -25 -8 -7 -12 -18 -10 -25 2 -6 -3 -17 -10 -25 -8 -7 -12 -19 -9 -27
3 -7 1 -14 -3 -16 -22 -8 -240 -472 -228 -484 2 -3 -15 -23 -37 -47 -23 -23
-58 -62 -79 -85 -51 -58 -60 -45 -11 15 21 26 38 51 37 55 -2 5 1 7 5 5 22 -6
89 103 76 124 -3 5 -1 9 4 9 5 0 17 21 27 48 10 26 58 127 107 225 49 98 86
183 82 189 -4 7 -3 8 4 4 11 -7 16 7 15 41 -1 7 2 11 6 9 4 -3 12 8 18 25 l11
29 -1650 0 c-1220 0 -1655 -3 -1671 -11 -12 -7 -26 -18 -30 -25 -5 -10 -30
-14 -77 -14 l-68 0 -60 -67 c-34 -37 -63 -65 -67 -62 -3 4 22 39 56 78 l62 71
67 0 c48 0 71 4 80 15 11 13 -40 15 -453 15 l-465 0 14 -57 c8 -32 17 -86 21
-120 6 -70 11 -73 70 -48 42 18 43 18 43 6 0 -12 -58 -41 -82 -41 -14 0 -18
-8 -18 -33 0 -19 -3 -37 -7 -41 -5 -4 -13 41 -20 101 -13 127 -32 215 -44 207
-5 -3 -6 2 -3 10 5 14 -13 16 -145 16 l-151 0 0 -165 c0 -103 -4 -165 -10
-165 -6 0 -10 62 -10 165 l0 165 -102 0 -103 0 -32 -49 c-28 -43 -32 -58 -33
-118 0 -37 2 -98 6 -135 4 -42 3 -68 -3 -68 -12 0 -27 140 -24 220 1 30 9 66
18 80 9 14 23 35 31 48 l14 22 -896 0 -896 0 0 -4000z m2850 3950 c0 -11 -4
-20 -10 -20 -5 0 -10 9 -10 20 0 11 5 20 10 20 6 0 10 -9 10 -20z m-1040 -65
c0 -13 -4 -27 -10 -30 -6 -4 -10 8 -10 30 0 22 4 34 10 30 6 -3 10 -17 10 -30z
m550 -5 c0 -5 -5 -10 -11 -10 -5 0 -7 5 -4 10 3 6 8 10 11 10 2 0 4 -4 4 -10z
m870 -25 c0 -8 -4 -15 -10 -15 -5 0 -10 7 -10 15 0 8 5 15 10 15 6 0 10 -7 10
-15z m825 -24 c-11 -46 -25 -48 -25 -3 0 34 3 40 16 35 11 -4 14 -13 9 -32z
m-1685 17 c0 -11 -28 -10 -35 1 -3 6 4 9 15 8 11 -1 20 -5 20 -9z m-568 -119
c11 -39 12 -59 5 -56 -6 2 -17 26 -24 53 -15 58 -15 64 -5 64 4 0 15 -27 24
-61z m1428 -68 c-11 -59 -53 -180 -61 -175 -4 2 -1 25 8 51 34 114 42 155 33
173 -5 9 -6 20 -3 24 14 14 30 -37 23 -73z m3687 -18 c-3 -10 -5 -2 -5 17 0
19 2 27 5 18 2 -10 2 -26 0 -35z m-4347 17 c0 -5 -4 -10 -10 -10 -5 0 -10 -7
-10 -16 0 -8 -4 -12 -10 -9 -19 12 -11 45 10 45 11 0 20 -4 20 -10z m2840 -58
c0 -26 3 -28 29 -24 23 3 30 -1 36 -17 4 -13 11 -19 18 -15 7 4 9 4 5 -1 -4
-4 -3 -16 3 -27 15 -28 63 -21 67 10 2 13 15 28 28 34 14 7 23 17 20 24 -6 15
43 34 64 24 24 -12 84 -32 97 -33 7 0 10 -4 7 -8 -2 -4 0 -10 6 -14 5 -3 10
-14 10 -22 0 -13 -6 -11 -27 9 -51 48 -127 64 -138 29 -3 -11 -14 -23 -25 -26
-10 -3 -22 -19 -25 -35 -4 -17 -12 -30 -18 -31 -7 -1 -21 -2 -32 -3 -21 -1
-61 36 -71 67 -6 20 -50 23 -57 5 -3 -7 -6 -2 -6 12 -2 31 -17 57 -28 46 -4
-5 -2 -11 5 -14 9 -2 -2 -14 -27 -29 -23 -13 -41 -28 -41 -34 0 -5 -7 -9 -15
-9 -8 0 -15 2 -15 5 0 9 38 43 62 56 13 7 18 14 11 16 -22 8 -1 33 28 33 25 0
29 -4 29 -28z m-3661 -42 c-9 -41 -3 -94 10 -85 4 2 5 -9 3 -25 -12 -85 54
-352 114 -456 30 -51 32 -76 4 -49 -24 25 -120 285 -120 327 0 16 -4 27 -9 24
-4 -3 -6 5 -3 19 2 13 -1 61 -8 107 -14 93 -15 117 -6 153 11 42 25 28 15 -15z
m698 -43 c17 -45 34 -109 37 -141 9 -86 69 -182 152 -247 44 -34 57 -50 71
-95 18 -59 106 -169 126 -157 15 9 97 10 97 1 0 -5 11 -8 25 -8 14 0 25 -4 25
-10 0 -12 -5 -12 -69 0 -77 14 -82 9 -50 -58 15 -31 37 -88 49 -127 11 -38 31
-92 44 -120 32 -68 43 -117 92 -415 25 -152 30 -168 60 -205 46 -57 127 -139
234 -235 l93 -83 45 47 c58 61 68 51 13 -14 l-42 -50 45 -31 44 -31 7 -90 7
-90 92 7 c99 8 113 12 97 28 -6 6 -11 18 -11 26 1 11 8 8 23 -11 20 -25 25
-26 62 -18 51 12 68 12 61 1 -3 -5 -28 -14 -56 -21 -27 -7 -50 -15 -50 -19 0
-4 -15 -5 -32 -4 -18 2 -67 0 -108 -4 l-74 -8 -9 -43 c-4 -23 -13 -40 -18 -36
-5 3 -7 21 -3 41 l7 36 -107 -8 c-75 -5 -106 -4 -106 4 0 10 60 17 98 12 20
-3 13 15 -12 28 -18 10 -29 10 -45 2 -26 -14 -29 4 -6 35 8 10 15 32 15 47 0
16 4 26 9 22 5 -3 12 -1 16 5 13 21 20 9 20 -32 0 -24 4 -51 8 -62 7 -17 9
-17 32 -2 14 9 25 12 25 6 0 -6 -7 -13 -15 -16 -30 -12 -14 -24 31 -24 38 0
45 3 40 18 -2 9 -8 47 -12 84 -6 63 -9 71 -46 104 -33 30 -44 34 -71 29 -30
-6 -31 -5 -12 10 19 15 17 17 -35 62 -30 26 -82 73 -115 104 -33 31 -79 74
-102 94 -24 21 -43 43 -43 48 0 6 -9 21 -21 33 -21 22 -33 79 -85 389 -19 115
-33 167 -59 224 -19 40 -35 81 -35 92 0 26 -58 171 -76 189 -12 12 -18 12 -34
2 -11 -6 -35 -12 -53 -12 -19 0 -61 -3 -95 -6 l-60 -7 -7 -44 c-3 -24 -10 -41
-15 -38 -5 3 -6 22 -3 42 6 35 6 36 -23 30 -107 -21 -108 -21 -101 -3 4 10 7
44 7 77 0 33 4 59 10 59 6 0 10 -29 10 -66 0 -58 2 -65 18 -60 9 3 34 8 54 11
35 7 37 10 44 51 3 24 11 44 16 44 6 0 7 -16 3 -41 l-7 -42 88 8 c131 11 135
15 79 80 -25 30 -53 74 -61 99 -9 26 -32 61 -56 83 -67 62 -89 86 -106 115
-10 18 -25 28 -39 28 -13 0 -23 5 -23 10 0 6 7 10 15 10 14 0 14 3 1 23 -8 12
-18 53 -22 92 -4 40 -19 98 -35 137 -30 69 -34 88 -21 88 4 0 21 -37 39 -83z
m-437 43 c0 -5 -4 -10 -10 -10 -5 0 -10 5 -10 10 0 6 5 10 10 10 6 0 10 -4 10
-10z m201 -127 c27 -14 49 -30 49 -35 0 -10 -109 44 -110 55 0 12 9 9 61 -20z
m1079 17 c0 -5 -4 -10 -10 -10 -5 0 -10 5 -10 10 0 6 5 10 10 10 6 0 10 -4 10
-10z m-545 -120 c-3 -5 -10 -10 -16 -10 -5 0 -9 5 -9 10 0 6 7 10 16 10 8 0
12 -4 9 -10z m425 -45 c0 -25 -4 -45 -10 -45 -5 0 -10 20 -10 45 0 25 5 45 10
45 6 0 10 -20 10 -45z m-999 15 c5 0 9 -4 9 -10 0 -14 -43 -6 -48 10 -3 9 1
11 12 7 10 -4 22 -7 27 -7z m169 -53 c0 -8 9 -22 20 -32 11 -10 20 -23 20 -28
0 -6 -13 2 -30 18 -30 28 -39 55 -20 55 6 0 10 -6 10 -13z m4705 -62 c1 -48
-9 -59 -19 -22 -10 37 -7 67 7 67 8 0 12 -16 12 -45z m-305 -84 c0 -5 -66 -45
-147 -89 -115 -63 -154 -79 -175 -75 -41 8 -34 23 10 23 27 0 70 19 167 74
136 78 145 82 145 67z m350 -29 c0 -5 -3 -12 -7 -16 -5 -4 -8 -13 -8 -19 -1
-7 -6 -11 -12 -10 -7 2 -31 -20 -54 -47 l-42 -50 -64 6 c-35 4 -63 3 -63 -2 0
-5 -25 -7 -55 -6 -31 2 -63 1 -73 -3 -9 -4 -42 -7 -72 -6 -30 0 -97 -7 -147
-17 -51 -10 -93 -15 -93 -11 0 10 20 16 124 34 49 8 115 15 147 15 33 0 59 3
59 8 0 4 27 5 61 4 34 -2 65 0 71 6 6 6 24 6 49 -1 35 -9 43 -7 64 13 13 12
23 28 22 34 -1 6 3 10 10 9 6 -1 24 13 40 32 28 33 43 43 43 27z m-2238 -108
c-2 -19 -6 -34 -7 -34 -17 0 -38 17 -46 38 -7 19 -6 27 8 37 27 20 50 0 45
-41z m125 24 c-3 -8 -6 -5 -6 6 -1 11 2 17 5 13 3 -3 4 -12 1 -19z m1273 7 c0
-8 -2 -15 -4 -15 -2 0 -6 7 -10 15 -3 8 -1 15 4 15 6 0 10 -7 10 -15z m-3420
-30 c0 -14 -4 -25 -10 -25 -11 0 -14 33 -3 43 11 11 13 8 13 -18z m4270 -29
c0 -5 -9 -1 -20 9 -11 10 -17 22 -14 27 6 9 33 -20 34 -36z m-937 -41 c-18
-38 -28 -43 -37 -20 -3 8 -16 15 -30 15 -14 0 -28 5 -32 12 -5 8 4 9 34 4 35
-5 44 -3 54 13 20 32 29 13 11 -24z m170 15 c9 0 17 -5 17 -11 0 -13 -90 -1
-105 13 -7 7 3 9 30 4 22 -3 48 -6 58 -6z m-2153 -31 c0 -4 12 -10 26 -13 30
-8 97 -56 89 -64 -2 -3 -22 6 -42 20 -21 14 -51 28 -66 32 -33 8 -129 -3 -122
-14 5 -9 -18 -20 -41 -20 -19 0 -18 36 2 44 9 3 35 6 59 6 24 0 46 4 49 8 6 9
46 10 46 1z m2150 -49 c0 -28 -5 -59 -12 -69 -10 -17 -8 -23 13 -40 30 -25
141 -86 152 -83 4 1 6 -1 5 -5 -4 -13 35 -92 42 -88 4 2 6 -4 6 -13 0 -282 6
-522 13 -518 5 4 7 -3 4 -14 -3 -11 2 -42 11 -69 15 -48 15 -53 -4 -103 -11
-29 -27 -65 -35 -79 -8 -14 -11 -30 -7 -34 4 -5 2 -5 -4 -2 -14 8 -24 -23 -24
-71 0 -20 -4 -31 -10 -27 -23 14 -10 86 30 159 22 40 40 83 40 97 1 31 -35
191 -41 185 -2 -2 -1 35 3 82 3 48 7 150 7 227 1 129 -1 144 -24 193 -14 29
-29 51 -35 47 -5 -3 -7 0 -5 7 4 9 -11 22 -39 36 -64 30 -123 75 -164 123 -29
34 -37 38 -44 25 -11 -20 -24 -20 -32 0 -3 8 -2 12 3 9 5 -3 12 4 16 15 8 24
18 25 35 5 7 -8 17 -12 23 -8 5 3 7 1 4 -4 -4 -6 2 -21 12 -34 17 -21 21 -22
36 -9 14 11 16 24 12 62 -4 28 -2 48 3 48 6 0 10 -23 10 -50z m-4018 -18 c2
-42 1 -48 -14 -44 -13 3 -15 12 -11 38 l6 34 -57 0 c-50 0 -60 -4 -96 -36 -38
-34 -67 -42 -42 -11 7 8 8 18 4 22 -4 5 -2 5 4 2 6 -4 22 5 34 18 21 22 32 25
96 25 l72 0 4 -48z m968 29 c14 -4 20 -10 15 -13 -14 -8 -75 2 -75 13 0 10 23
10 60 0z m-1210 -70 c0 -7 -90 -32 -112 -31 -25 0 -2 16 44 30 52 16 68 17 68
1z m4102 -9 c-7 -2 -10 -8 -7 -13 4 -5 -2 -6 -11 -2 -12 4 -15 3 -10 -6 4 -6
4 -10 -1 -9 -28 7 -52 -18 -84 -90 -19 -42 -33 -83 -33 -89 1 -7 -2 -11 -6 -8
-4 2 -10 -26 -14 -63 -9 -82 -16 -113 -26 -107 -8 5 -6 73 4 82 3 3 6 24 6 45
0 22 11 61 25 89 14 27 23 54 20 59 -4 6 -2 10 3 10 4 0 16 16 25 35 9 20 24
38 32 41 8 4 12 11 8 17 -3 5 -2 8 3 4 5 -3 20 1 34 8 14 7 29 11 34 7 6 -3 5
-7 -2 -10z m-3622 -87 c0 -26 -34 -134 -41 -128 -9 9 22 133 33 133 5 0 8 -2
8 -5z m1520 -30 c0 -14 -4 -25 -10 -25 -5 0 -10 11 -10 25 0 14 5 25 10 25 6
0 10 -11 10 -25z m3578 8 c-16 -2 -40 -2 -55 0 -16 2 -3 4 27 4 30 0 43 -2 28
-4z m-3403 -33 c-4 -12 -2 -20 5 -20 7 0 14 9 17 20 3 11 9 20 14 20 12 0 12
-1 -12 -55 -14 -32 -24 -44 -29 -35 -6 9 -11 7 -20 -9 -6 -12 -18 -21 -26 -19
-15 3 -21 23 -6 23 22 1 33 19 27 45 -5 21 -2 31 12 39 25 14 25 14 18 -9z
m85 16 c0 -3 -4 -8 -10 -11 -5 -3 -10 -1 -10 4 0 6 5 11 10 11 6 0 10 -2 10
-4z m1614 -398 c-13 -39 -24 -81 -24 -92 0 -15 -3 -17 -11 -9 -9 9 -5 33 15
98 15 47 31 83 36 80 5 -3 -2 -38 -16 -77z m-3229 -10 c-55 -62 -125 -106
-125 -79 0 5 13 14 28 20 16 7 51 34 78 62 64 65 78 63 19 -3z m493 -58 c-28
-27 -54 -48 -56 -45 -6 6 36 63 61 80 47 33 44 12 -5 -35z m886 -43 c-10 -27
-21 -20 -21 13 0 26 2 29 14 17 8 -7 11 -21 7 -30z m3896 33 c0 -5 -4 -10 -10
-10 -5 0 -10 5 -10 10 0 6 5 10 10 10 6 0 10 -4 10 -10z m-2050 -69 c0 -11 -4
-23 -10 -26 -5 -3 -10 -15 -10 -26 0 -23 -15 -25 -24 -4 -3 8 -1 15 4 15 6 0
10 14 10 30 0 20 5 30 15 30 8 0 15 -9 15 -19z m-3290 -141 c0 -5 -8 -10 -18
-10 -10 0 -51 -16 -91 -35 -91 -44 -106 -38 -20 7 90 46 129 58 129 38z m1669
-86 c-7 -9 -8 -14 -1 -14 5 0 12 -9 15 -20 3 -14 10 -18 22 -14 13 5 15 2 9
-20 -4 -18 -1 -33 10 -45 17 -19 13 -81 -6 -81 -5 0 -7 13 -3 31 5 22 2 36
-10 49 -9 10 -15 24 -13 31 5 14 -26 49 -42 49 -14 0 -13 33 2 48 9 9 9 15 0
24 -13 13 -42 -6 -42 -28 0 -8 -7 -14 -17 -14 -9 0 -31 -11 -49 -25 -18 -14
-36 -25 -40 -25 -16 0 33 44 64 57 17 7 32 20 32 28 0 8 12 21 27 29 27 13 28
13 40 -16 10 -23 10 -34 2 -44z m-599 -164 c0 -6 -37 -10 -90 -10 -53 0 -90 4
-90 10 0 6 37 10 90 10 53 0 90 -4 90 -10z m90 0 c0 -5 -4 -10 -10 -10 -5 0
-10 5 -10 10 0 6 5 10 10 10 6 0 10 -4 10 -10z m510 -44 c38 -30 76 -56 82
-59 7 -2 10 -7 6 -11 -9 -10 -43 9 -108 62 -51 41 -70 62 -56 62 3 0 37 -24
76 -54z m-1035 -65 c-7 -6 -75 60 -75 73 0 6 18 -7 40 -29 22 -21 37 -41 35
-44z m-553 -33 c5 -60 3 -77 -6 -67 -10 10 -18 129 -8 129 5 0 12 -28 14 -62z
m632 11 c-3 -5 -10 -7 -15 -3 -5 3 -7 10 -3 15 3 5 10 7 15 3 5 -3 7 -10 3
-15z m-60 -18 c-14 -13 -54 -23 -54 -14 0 10 52 32 59 26 3 -2 0 -7 -5 -12z
m151 -20 c3 -5 1 -12 -5 -16 -5 -3 -10 1 -10 9 0 18 6 21 15 7z m566 -9 c56
-38 108 -85 103 -94 -3 -5 -32 14 -64 42 -49 43 -64 50 -99 50 -22 0 -41 5
-41 10 0 17 73 11 101 -8z m439 -63 c0 -6 -4 -7 -10 -4 -5 3 -10 11 -10 16 0
6 5 7 10 4 6 -3 10 -11 10 -16z m10 -29 c0 -5 -4 -10 -10 -10 -5 0 -10 5 -10
10 0 6 5 10 10 10 6 0 10 -4 10 -10z m-37 -25 c4 -8 2 -17 -3 -20 -6 -4 -10
-4 -10 -1 0 2 -3 11 -6 20 -3 9 -2 16 4 16 5 0 12 -7 15 -15z m2117 -43 c0
-18 -11 -38 -30 -57 -16 -15 -28 -33 -27 -39 1 -6 -3 -10 -10 -9 -6 1 -17 -4
-23 -12 -10 -13 -8 -15 14 -15 14 0 26 -5 26 -11 0 -8 -12 -10 -34 -6 -45 7
-86 -32 -86 -84 0 -18 -4 -61 -10 -94 -5 -33 -14 -103 -19 -155 -6 -52 -17
-151 -25 -220 -8 -69 -16 -219 -18 -335 l-3 -210 75 -7 c41 -3 76 -11 78 -17
2 -6 8 -9 13 -6 5 4 6 -1 3 -9 -3 -8 -1 -31 5 -52 13 -48 9 -54 -90 -100 -43
-20 -79 -42 -79 -49 0 -24 -70 -44 -176 -51 -71 -5 -105 -4 -101 3 3 5 51 13
105 16 103 6 152 20 152 44 0 8 39 32 86 54 l87 39 -7 42 c-9 56 -14 61 -52
55 -21 -4 -32 -2 -29 4 4 5 -11 9 -33 9 -63 0 -286 -31 -298 -41 -7 -5 -17
-30 -23 -54 -8 -32 -39 -80 -105 -164 -52 -66 -96 -124 -97 -128 -2 -4 -20
-15 -39 -24 -32 -15 -38 -26 -68 -110 -37 -107 -40 -164 -13 -217 10 -20 22
-52 26 -69 3 -18 11 -35 15 -38 11 -7 168 38 211 59 21 10 36 12 47 6 24 -14
135 -40 142 -34 3 3 14 33 26 67 11 33 25 62 32 65 7 2 2 -24 -13 -65 -13 -37
-21 -71 -17 -74 11 -11 82 -21 82 -12 0 4 10 60 21 123 12 63 22 127 23 143 1
15 7 27 15 27 9 0 12 -8 8 -27 -23 -119 -48 -266 -45 -269 2 -2 27 -1 55 2 40
5 66 18 132 65 68 49 89 59 123 59 34 0 89 -21 108 -40 12 -12 137 -90 146
-90 5 -1 26 -23 47 -51 22 -27 43 -46 49 -43 6 4 8 2 5 -3 -9 -14 32 -65 45
-57 7 4 8 2 4 -4 -12 -20 10 -13 29 8 31 34 50 24 21 -11 -14 -17 -26 -34 -26
-39 0 -14 83 -105 93 -102 4 1 6 -2 3 -7 -9 -14 60 -64 75 -55 7 4 9 3 6 -3
-9 -14 50 -56 66 -47 6 4 9 4 5 0 -4 -5 5 -18 19 -30 19 -16 26 -33 27 -65 1
-23 8 -46 15 -50 6 -4 9 -15 6 -23 -10 -24 14 -98 30 -98 19 0 20 -17 2 -22
-9 -2 -11 -11 -7 -28 6 -23 9 -19 38 37 31 60 42 113 23 113 -14 0 -22 43 -9
51 6 4 12 27 12 51 1 36 14 68 28 68 2 0 3 -18 3 -40 0 -22 -4 -40 -9 -40 -5
0 -6 -33 -2 -74 7 -74 6 -76 -38 -164 -25 -49 -42 -93 -38 -97 4 -5 2 -5 -4
-2 -7 4 -19 -10 -29 -33 -15 -34 -16 -47 -6 -96 14 -71 14 -81 1 -68 -5 5 -13
27 -18 49 l-8 40 -32 -48 c-18 -26 -30 -52 -26 -59 4 -6 3 -8 -3 -5 -14 9 -96
-132 -88 -151 3 -9 3 -13 -1 -9 -12 11 -34 -51 -34 -93 0 -40 21 -67 42 -54 7
4 10 4 6 -1 -11 -12 29 -38 45 -29 6 4 9 4 5 -1 -5 -5 8 -19 27 -32 54 -36 57
-49 45 -170 -16 -175 -13 -167 -70 -187 -29 -11 -47 -22 -43 -29 3 -6 1 -7 -6
-3 -13 8 -101 -22 -101 -35 0 -4 4 -19 10 -33 6 -18 6 -26 -1 -26 -5 0 -15 13
-20 29 -9 27 -13 29 -33 19 -25 -11 -60 -73 -51 -89 4 -5 2 -9 -4 -9 -5 0 -17
-20 -27 -45 -14 -38 -16 -64 -11 -150 6 -99 30 -190 47 -180 5 3 6 -5 2 -17
-4 -16 -2 -19 8 -13 8 5 11 4 7 -2 -3 -5 16 -75 44 -154 28 -79 53 -152 56
-161 3 -10 10 -15 16 -11 6 3 7 1 3 -5 -8 -13 64 -222 76 -222 12 0 33 83 23
87 -6 2 -9 36 -7 80 3 71 1 83 -29 145 -18 37 -37 64 -42 61 -6 -3 -7 -1 -3 5
14 23 26 11 60 -56 32 -64 35 -76 37 -175 l2 -107 39 0 c21 0 38 -4 38 -10 0
-5 -20 -10 -44 -10 -39 0 -45 -3 -56 -30 -7 -16 -10 -39 -7 -50 3 -11 1 -23
-4 -26 -5 -3 -9 0 -9 6 0 6 -4 9 -9 6 -5 -4 -7 3 -4 13 6 25 -48 172 -61 164
-5 -4 -6 -1 -2 6 9 14 -114 352 -125 345 -4 -2 -5 4 -2 15 2 10 -9 52 -26 93
-58 138 -67 274 -25 384 39 104 56 136 69 130 6 -2 18 -1 25 4 10 6 9 18 -5
59 l-17 52 -59 -121 c-32 -67 -59 -124 -59 -127 0 -9 -232 -227 -261 -245 -18
-11 -27 -23 -23 -30 4 -6 3 -8 -2 -5 -6 3 -19 -8 -29 -24 -12 -17 -84 -69
-172 -125 -84 -52 -153 -100 -153 -105 0 -5 -3 -8 -7 -8 -25 4 -44 -11 -139
-103 -57 -55 -107 -98 -110 -95 -11 11 148 168 209 207 31 20 55 39 52 42 -3
2 1 5 8 5 23 0 137 75 130 86 -3 5 -1 7 5 3 15 -9 143 73 135 88 -3 6 -3 8 2
4 4 -4 21 9 37 30 16 20 38 42 49 48 11 5 16 14 12 18 -4 4 -3 6 2 4 14 -4
135 103 129 114 -3 5 -2 7 3 6 12 -4 73 54 67 64 -3 5 0 7 8 6 15 -4 110 171
103 190 -3 8 0 10 7 6 8 -5 9 -2 5 9 -3 10 -3 17 1 17 17 0 47 79 67 173 3 15
10 25 15 22 12 -7 13 32 4 99 -4 29 -12 46 -20 46 -8 0 -14 5 -14 10 0 6 7 10
15 10 10 0 15 10 15 33 0 18 6 41 13 50 10 14 12 -10 13 -133 2 -134 -4 -175
-19 -137 -3 6 -6 2 -6 -10 -1 -20 3 -22 29 -17 19 4 30 2 30 -5 0 -6 -10 -11
-22 -11 -55 -1 -67 -39 -38 -124 l21 -64 77 30 c116 47 121 53 132 187 6 63 8
122 5 132 -3 10 -42 39 -86 64 -60 36 -80 53 -85 73 -3 15 -7 36 -9 46 -2 11
0 25 4 30 5 6 14 29 21 51 7 22 23 57 36 78 14 21 22 43 18 50 -4 7 -3 9 1 4
9 -8 97 117 120 172 8 18 12 38 8 44 -3 5 -1 7 4 4 17 -11 45 70 37 109 -5 26
-11 34 -27 34 -20 0 -20 1 -3 13 16 12 17 17 2 72 -8 33 -18 81 -21 107 -6 41
-13 50 -62 87 -30 22 -60 38 -66 34 -5 -3 -7 -2 -4 4 3 5 -7 17 -23 27 -16 9
-81 81 -145 160 -151 189 -166 203 -200 196 -5 -1 -7 2 -2 6 12 12 -164 114
-198 114 -20 0 -58 -19 -115 -57 -66 -44 -97 -59 -138 -64 -30 -4 -56 -10 -59
-13 -4 -4 -21 -210 -26 -326 -1 -19 -5 -37 -8 -40 -3 -3 -11 -38 -17 -79 -10
-69 -9 -77 12 -120 13 -25 29 -69 36 -98 8 -29 17 -50 21 -47 4 2 5 -4 2 -14
-2 -10 9 -36 26 -59 17 -23 33 -55 37 -70 4 -15 12 -32 18 -36 8 -6 7 -10 -1
-14 -7 -2 -13 -18 -13 -35 0 -20 4 -28 13 -25 6 3 39 16 72 30 269 113 415
161 429 139 3 -5 -16 -12 -42 -15 -26 -3 -85 -21 -132 -40 -47 -20 -139 -56
-205 -82 -66 -26 -124 -51 -129 -55 -4 -4 -4 -16 2 -26 7 -13 6 -26 -4 -46 -8
-16 -12 -34 -8 -40 5 -7 3 -8 -6 -3 -10 6 -12 4 -7 -7 4 -12 -7 -18 -54 -27
-54 -11 -65 -19 -59 -46 1 -5 -2 -7 -6 -2 -10 10 -134 -184 -127 -198 4 -5 3
-7 -2 -3 -4 4 -14 0 -21 -10 -7 -9 -15 -14 -19 -10 -4 3 17 41 46 84 29 43 52
84 52 91 0 6 4 10 9 7 8 -5 12 11 8 31 -1 6 2 7 6 3 4 -5 16 7 27 25 24 39 60
181 46 185 -5 2 -9 8 -9 14 0 6 7 7 15 4 24 -9 37 39 30 114 -8 78 -26 170
-34 170 -3 0 -7 14 -8 31 -1 17 -14 51 -28 76 l-25 45 21 121 c12 67 24 186
28 265 l6 142 -35 6 c-19 3 -80 17 -136 29 l-101 24 -81 -28 c-45 -16 -78 -32
-74 -36 4 -5 1 -5 -5 -1 -17 10 -174 -35 -166 -47 4 -6 1 -7 -6 -3 -17 11
-172 -35 -164 -47 3 -6 1 -7 -5 -3 -16 10 -103 -14 -95 -27 3 -6 1 -7 -5 -3
-18 11 -83 -5 -90 -22 -3 -9 -1 -17 6 -20 6 -2 9 -9 6 -15 -2 -7 0 -34 5 -60
4 -26 5 -47 1 -47 -10 0 -20 26 -20 51 0 10 -4 19 -9 19 -4 0 -6 10 -4 23 8
48 -6 52 -119 33 -165 -27 -224 -49 -313 -116 -86 -65 -124 -80 -62 -26 l38
34 -22 15 c-17 12 -25 13 -40 4 -11 -7 -19 -19 -19 -27 0 -13 -2 -13 -9 -1 -5
8 -7 20 -4 28 7 17 -30 17 -99 -1 -29 -7 -72 -12 -95 -9 -38 4 -43 2 -43 -17
0 -13 -4 -18 -11 -14 -6 3 -9 15 -6 25 5 19 -5 22 -161 49 -50 9 -66 8 -82 -3
-16 -11 -32 -11 -90 -1 -67 11 -89 19 -79 28 2 2 32 -1 67 -6 76 -12 93 -7 85
23 -4 16 -2 20 8 17 8 -3 14 -11 13 -19 -1 -10 14 -15 49 -17 27 -1 81 -9 120
-18 75 -15 88 -13 71 14 -8 13 -7 28 3 57 20 55 20 189 -2 320 -16 100 -23
121 -87 243 -73 140 -148 306 -148 329 0 27 18 3 40 -54 12 -32 62 -137 110
-233 84 -170 104 -228 116 -344 7 -70 8 -226 1 -233 -4 -3 -7 -33 -7 -65 0
-53 2 -58 21 -58 12 0 97 46 190 102 l168 103 22 57 c14 39 28 59 43 64 11 3
38 22 58 42 21 20 41 33 45 29 10 -10 -66 -85 -90 -89 -15 -2 -26 -19 -41 -59
l-20 -56 -153 -93 c-84 -51 -151 -95 -149 -97 2 -3 21 0 43 6 55 16 144 13
167 -4 28 -21 42 -19 90 14 45 32 114 52 238 72 43 6 75 15 73 19 -3 4 10 4
28 0 20 -4 41 -2 57 6 14 7 84 29 155 50 140 39 285 84 285 87 -1 15 -33 104
-49 136 -24 46 -24 48 21 203 32 108 32 108 73 123 30 12 47 28 67 63 15 26
57 81 93 122 46 53 70 90 80 125 21 69 51 86 166 93 49 2 93 10 98 16 5 6 11
99 14 206 6 191 17 312 58 638 11 90 18 166 15 169 -3 4 -44 -11 -92 -32 l-85
-38 -111 12 c-61 6 -113 9 -116 7 -3 -3 -10 -2 -16 3 -6 5 -57 14 -114 21
-125 15 -145 32 -33 28 45 -2 81 -7 81 -11 0 -5 17 -8 38 -6 20 1 44 -1 52 -3
23 -8 157 -28 188 -28 35 0 222 80 222 95 0 6 20 31 45 55 24 24 41 48 38 54
-3 6 -2 8 2 3 13 -12 75 54 75 80 0 13 5 23 10 23 6 0 10 -13 10 -28z m-3810
-32 c0 -5 -7 -10 -15 -10 -8 0 -15 5 -15 10 0 6 7 10 15 10 8 0 15 -4 15 -10z
m115 -59 c4 -26 13 -61 21 -76 18 -35 18 -38 -5 -26 -25 14 -54 151 -32 151 5
0 12 -22 16 -49z m5115 16 c0 -2 -10 -12 -22 -23 l-23 -19 19 23 c18 21 26 27
26 19z m-4345 -193 c61 -129 59 -124 48 -124 -5 0 -17 16 -26 35 -19 41 -25
42 -77 15 -22 -11 -40 -16 -40 -10 0 5 19 19 43 31 23 12 43 23 45 24 2 2 -10
30 -27 64 -33 65 -35 71 -23 71 4 0 30 -48 57 -106z m4228 39 c-7 -2 -19 -2
-25 0 -7 3 -2 5 12 5 14 0 19 -2 13 -5z m-4905 -39 c2 -10 14 -30 27 -44 34
-37 44 -85 32 -158 -13 -79 -32 -83 -22 -4 11 93 10 105 -18 139 -30 35 -52
96 -34 90 6 -2 14 -12 15 -23z m794 -249 c26 -52 43 -97 38 -100 -5 -3 -11 -1
-15 5 -4 6 -11 7 -17 4 -7 -4 -8 -2 -4 4 4 6 -2 28 -12 48 -19 36 -19 37 -34
15 -8 -11 -18 -18 -21 -15 -4 4 2 19 12 33 12 17 16 32 11 41 -14 27 -22 60
-13 59 4 0 29 -42 55 -94z m8 85 c0 -5 -2 -10 -4 -10 -3 0 -8 5 -11 10 -3 6
-1 10 4 10 6 0 11 -4 11 -10z m1965 -103 c4 -28 -3 -104 -19 -210 -15 -92 -24
-178 -20 -192 3 -14 2 -25 -4 -25 -5 0 -12 -26 -16 -57 -7 -65 -139 -408 -160
-416 -7 -3 21 76 61 176 66 163 75 193 90 306 9 70 17 145 17 168 1 22 5 39
10 36 5 -3 7 10 4 30 -2 20 0 33 5 30 6 -3 8 10 5 31 -2 20 0 36 5 36 6 0 8
28 5 65 -6 73 7 89 17 22z m-1705 -6 c0 -5 -20 -11 -45 -13 -44 -3 -62 6 -27
15 31 8 72 7 72 -2z m2 -53 c-9 -9 -12 -7 -12 12 0 19 3 21 12 12 9 -9 9 -15
0 -24z m-52 -92 c0 -5 -13 3 -30 19 -16 16 -30 33 -30 39 0 5 14 -3 30 -19 17
-16 30 -33 30 -39z m-161 -4 c-1 -33 -2 -34 -9 -12 -12 36 -12 62 0 55 6 -3
10 -23 9 -43z m103 -59 c10 -16 18 -23 18 -16 0 14 30 6 30 -8 0 -4 -9 -13
-19 -19 -16 -8 -22 -4 -40 26 -23 39 -25 44 -13 44 4 0 15 -12 24 -27z m178
-1 c0 -14 -39 -46 -47 -39 -3 4 2 16 12 27 19 21 35 26 35 12z m707 -24 c-3
-7 -5 -2 -5 12 0 14 2 19 5 13 2 -7 2 -19 0 -25z m-1723 -3 c10 -15 22 -23 29
-19 7 4 9 4 5 -1 -10 -11 53 -96 66 -88 6 3 8 3 4 -2 -10 -11 11 -47 23 -40 5
4 9 3 8 -2 -6 -22 29 -65 80 -99 31 -21 65 -46 76 -56 19 -16 23 -16 44 -2 20
14 22 23 19 73 -2 45 0 55 11 53 32 -7 59 8 66 37 3 16 15 37 25 46 17 16 19
15 30 -5 8 -15 17 -19 31 -15 11 4 19 2 19 -4 0 -17 -48 -13 -58 5 -12 21 -29
0 -34 -41 -2 -25 -9 -31 -40 -38 -28 -7 -38 -14 -38 -29 0 -14 5 -18 19 -13
12 3 21 0 25 -11 8 -20 -1 -34 -20 -34 -17 0 -18 -9 -4 -45 11 -29 34 -24 25
6 -11 32 12 21 26 -13 7 -18 18 -36 23 -40 7 -5 4 -8 -6 -8 -10 0 -18 4 -18 8
0 5 -14 6 -31 4 -28 -4 -30 -7 -25 -35 3 -16 6 -43 6 -58 0 -22 6 -32 25 -39
14 -5 30 -21 35 -35 7 -18 17 -25 35 -25 14 0 25 -4 25 -10 0 -6 -30 -10 -70
-10 l-71 0 5 71 c3 49 1 83 -9 105 -12 30 -12 35 2 42 10 6 13 16 8 30 -6 20
-8 21 -34 7 -27 -14 -31 -13 -82 25 -29 22 -57 40 -62 40 -9 0 -77 67 -77 76
0 16 -73 104 -86 104 -8 0 -48 -25 -89 -55 -73 -54 -90 -64 -83 -46 3 10 112
92 147 110 l22 12 -31 39 c-16 21 -30 41 -30 44 0 15 19 4 34 -19z m344 -10
c11 -10 -4 -12 -35 -3 -18 5 -33 13 -33 18 0 8 57 -4 68 -15z m1510 16 c-2
-20 3 -31 12 -26 6 4 10 3 9 -2 -4 -22 4 -34 31 -48 17 -9 35 -13 41 -10 14 9
6 -16 -12 -35 -8 -9 -44 -67 -79 -130 -35 -63 -65 -110 -67 -103 -4 10 73 157
115 221 15 23 14 25 -3 38 -10 8 -21 14 -25 14 -3 0 -14 13 -23 30 -10 16 -21
29 -25 29 -18 -3 -22 2 -10 14 12 14 37 19 36 8z m-1708 -56 c-7 -8 -17 -15
-23 -15 -5 0 -2 9 8 20 21 23 35 19 15 -5z m609 -36 c-22 -14 -33 -10 -19 6 7
8 17 12 22 9 6 -4 5 -10 -3 -15z m429 15 c12 -4 22 -11 22 -16 0 -11 -91 0
-104 13 -11 10 47 12 82 3z m2922 -1 c0 -9 -42 -53 -51 -53 -4 0 -10 7 -13 16
-3 8 -2 13 3 10 4 -3 16 3 26 14 18 20 35 26 35 13z m-3110 -13 c0 -5 -4 -10
-10 -10 -5 0 -10 5 -10 10 0 6 5 10 10 10 6 0 10 -4 10 -10z m-285 -19 c-3 -6
-11 -11 -17 -11 -6 0 -6 6 2 15 14 17 26 13 15 -4z m715 7 c0 -5 15 -8 34 -8
19 0 38 -4 41 -10 8 -13 2 -13 -125 1 -132 15 -154 30 -37 27 48 -2 87 -6 87
-10z m602 -50 c-9 -9 -12 -7 -12 12 0 19 3 21 12 12 9 -9 9 -15 0 -24z m-1752
-20 c0 -18 -2 -20 -9 -8 -6 8 -7 18 -5 22 9 14 14 9 14 -14z m1775 -8 c-3 -5
-13 -10 -21 -10 -8 0 -12 5 -9 10 3 6 13 10 21 10 8 0 12 -4 9 -10z m1922 -28
c-15 -16 -24 -32 -20 -36 5 -4 4 -6 -2 -5 -5 1 -34 -20 -64 -48 l-54 -51 28
-36 c16 -21 42 -48 59 -61 17 -13 27 -28 22 -32 -4 -4 -34 20 -65 54 l-57 62
-52 -52 c-28 -28 -55 -47 -59 -43 -4 4 28 42 72 83 44 41 79 79 77 84 -1 6 1
8 6 5 12 -7 54 38 45 49 -5 4 -3 5 3 2 6 -3 21 7 33 23 12 17 29 30 38 30 13
0 11 -6 -10 -28z m-3147 -27 c0 -9 6 -12 15 -9 11 5 15 -2 15 -27 l0 -32 -25
23 c-25 23 -34 60 -15 60 6 0 10 -7 10 -15z m-320 -94 c0 -5 -7 -11 -15 -15
-15 -5 -20 5 -8 17 9 10 23 9 23 -2z m498 -96 c-17 -15 -28 -34 -28 -50 0 -15
-4 -24 -10 -20 -28 17 12 95 49 95 11 -1 8 -8 -11 -25z m-501 -41 c-3 -3 -12
-4 -19 -1 -8 3 -5 6 6 6 11 1 17 -2 13 -5z m3171 -41 c-18 -19 -51 -44 -73
-55 -47 -24 -106 -78 -99 -90 3 -5 1 -7 -4 -6 -9 3 -84 -75 -180 -186 -35 -40
-55 -43 -28 -5 9 13 48 59 88 103 40 43 72 83 70 88 -1 5 1 7 6 4 5 -3 25 15
45 39 21 24 56 53 80 63 23 11 57 36 76 55 19 20 38 34 43 30 6 -3 -5 -21 -24
-40z m-2398 -24 c0 -11 -4 -17 -10 -14 -5 3 -10 13 -10 21 0 8 5 14 10 14 6 0
10 -9 10 -21z m-631 -89 c-30 -27 -50 -49 -46 -50 4 0 19 12 33 27 31 34 67
39 58 9 -10 -30 -56 -84 -73 -85 -9 -1 -4 10 14 29 32 33 28 39 -10 14 -32
-21 -48 -11 -33 21 12 26 98 99 106 90 3 -3 -19 -27 -49 -55z m229 42 c34 -19
152 -183 152 -213 0 -11 -12 -16 -42 -17 -24 -2 -50 -5 -60 -8 -9 -3 -19 -1
-22 4 -7 11 79 26 94 17 25 -16 5 28 -41 91 -28 38 -54 74 -57 80 -4 5 -24 20
-44 33 -21 12 -38 25 -38 27 0 9 27 2 58 -14z m862 4 c0 -11 -19 -15 -25 -6
-3 5 1 10 9 10 9 0 16 -2 16 -4z m-1200 -124 c0 -7 7 -20 15 -29 9 -8 13 -18
10 -21 -3 -4 -10 0 -15 8 -7 11 -10 8 -10 -13 0 -16 -4 -26 -10 -22 -5 3 -10
32 -10 63 0 41 3 53 10 42 5 -8 10 -21 10 -28z m-46 -58 c14 -14 14 -18 0 -46
-8 -16 -13 -36 -10 -44 3 -8 2 -13 -3 -10 -5 3 -11 -4 -14 -15 -6 -21 -6 -21
18 1 13 12 26 33 29 46 4 15 14 24 26 24 24 0 98 -65 87 -76 -4 -4 -22 7 -40
24 -18 18 -38 32 -44 32 -14 0 -25 -28 -13 -32 20 -7 -4 -56 -39 -78 -21 -12
-43 -31 -49 -41 -11 -18 3 -32 66 -65 13 -6 19 -15 14 -18 -6 -3 -32 9 -60 27
l-49 34 -34 -36 c-36 -37 -91 -140 -83 -153 3 -4 12 -8 20 -8 8 0 14 -5 14
-11 0 -9 -16 -7 -55 8 -18 6 -48 -56 -42 -90 5 -37 -1 -60 -14 -51 -20 12 -9
85 22 139 17 30 35 55 39 55 5 0 23 27 41 60 17 33 35 60 39 60 4 0 23 19 42
43 34 41 35 42 12 43 -13 1 -21 -3 -18 -10 2 -6 -10 -21 -27 -33 -27 -18 -35
-20 -58 -10 l-26 12 33 3 c29 3 32 6 32 36 0 26 -6 35 -27 46 -16 7 -23 15
-16 17 7 2 20 0 31 -6 16 -8 24 -3 53 36 43 58 46 64 53 86 7 21 30 22 50 1z
m277 -4 c23 -13 26 -32 3 -23 -10 4 -30 -8 -55 -33 -47 -46 -50 -38 -6 21 37
51 32 48 58 35z m2479 -20 c0 -5 -4 -10 -10 -10 -5 0 -10 5 -10 10 0 6 5 10
10 10 6 0 10 -4 10 -10z m1060 0 c0 -5 -4 -10 -10 -10 -5 0 -10 5 -10 10 0 6
5 10 10 10 6 0 10 -4 10 -10z m-1160 -10 c0 -5 -11 -10 -24 -10 -36 0 -89 -65
-84 -102 7 -42 -9 -44 -16 -3 -6 31 -2 41 30 80 28 34 43 45 65 45 16 0 29 -4
29 -10z m520 -28 c-25 -8 -47 -19 -48 -24 -2 -4 -7 -6 -12 -3 -10 6 -136 -22
-162 -36 -10 -5 -18 -16 -18 -24 0 -8 -4 -15 -10 -15 -5 0 -10 -7 -10 -16 0
-18 -27 -43 -47 -44 -7 0 -13 9 -13 20 0 11 6 20 14 20 8 0 18 5 22 12 5 8 2
9 -10 5 -12 -5 -16 -3 -14 5 7 22 130 75 233 100 104 26 152 25 75 0z m650
-64 c0 -74 -5 -73 -14 5 -4 36 -2 57 4 57 6 0 10 -27 10 -62z m-1070 11 c-5
-18 -7 -35 -5 -39 3 -5 -31 -11 -75 -15 l-80 -7 0 -37 c0 -20 7 -47 16 -59 14
-20 14 -22 -4 -22 -23 0 -32 25 -32 93 l0 47 49 0 c81 0 111 9 111 35 0 22 8
35 21 35 4 0 4 -14 -1 -31z m-880 3 c0 -5 -9 -17 -20 -27 -12 -11 -20 -31 -20
-52 0 -18 -5 -33 -11 -33 -17 0 -4 78 17 101 18 20 34 25 34 11z m-1460 -12
c0 -5 -4 -10 -10 -10 -5 0 -10 5 -10 10 0 6 5 10 10 10 6 0 10 -4 10 -10z
m-210 -31 c0 -5 -4 -9 -10 -9 -5 0 -10 7 -10 16 0 8 5 12 10 9 6 -3 10 -10 10
-16z m2580 -15 c0 -8 -4 -12 -10 -9 -5 3 -10 10 -10 16 0 5 5 9 10 9 6 0 10
-7 10 -16z m-2476 -60 c-10 -20 -35 -53 -54 -73 -41 -43 -90 -112 -90 -129 0
-22 40 -33 98 -27 43 6 54 4 46 -4 -6 -7 -39 -12 -73 -13 -33 0 -61 -4 -61 -9
0 -20 14 -39 29 -39 20 0 91 -47 91 -61 0 -5 -20 2 -43 16 -52 30 -92 32 -132
5 -36 -24 -45 -25 -45 -4 0 9 9 18 20 21 11 3 20 14 20 25 0 15 5 18 21 13 17
-6 20 -3 17 16 -2 19 -11 25 -47 31 -60 10 -67 22 -8 16 40 -5 47 -3 47 12 0
9 11 34 25 54 l24 36 -21 0 c-19 0 -104 27 -117 36 -8 6 25 29 44 30 11 1 32
5 48 9 16 4 27 3 27 -3 0 -5 -16 -13 -35 -16 -19 -4 -35 -11 -35 -16 0 -13 84
-24 88 -11 2 6 13 11 25 11 16 0 32 17 60 61 40 65 64 74 31 13z m286 17 c0
-13 11 -23 33 -30 17 -6 38 -20 45 -32 19 -30 6 -36 -18 -8 -13 16 -18 18 -14
7 9 -25 -7 -22 -39 7 -26 25 -38 75 -17 75 6 0 10 -9 10 -19z m2100 9 c0 -5
-16 -10 -35 -10 -19 0 -35 5 -35 10 0 6 16 10 35 10 19 0 35 -4 35 -10z m-860
-45 c0 -8 -4 -15 -10 -15 -5 0 -10 7 -10 15 0 8 5 15 10 15 6 0 10 -7 10 -15z
m1020 -15 c0 -5 -4 -10 -10 -10 -5 0 -10 5 -10 10 0 6 5 10 10 10 6 0 10 -4
10 -10z m-1018 -55 c-5 -28 -17 -33 -26 -10 -3 8 -1 15 4 15 6 0 10 7 10 16 0
8 4 13 9 10 4 -3 6 -17 3 -31z m862 29 c23 -9 20 -23 -4 -17 -11 3 -20 9 -20
14 0 11 3 11 24 3z m1670 -66 c-1 -34 -7 -54 -16 -57 -23 -7 -67 -49 -60 -56
4 -5 2 -5 -5 -2 -15 9 -73 -61 -73 -88 0 -12 -13 -34 -30 -50 -16 -15 -27 -33
-23 -38 3 -6 2 -7 -4 -4 -10 7 -60 -52 -55 -66 1 -5 -1 -6 -6 -3 -9 6 -58 -54
-54 -67 1 -4 -1 -6 -5 -5 -5 2 -29 -20 -55 -47 -25 -27 -50 -46 -54 -42 -4 4
11 27 34 50 24 24 39 47 35 52 -5 4 -3 5 3 2 11 -6 61 52 56 66 -1 4 2 6 6 5
12 -4 133 138 125 146 -3 3 -1 6 5 6 7 0 12 7 12 16 0 24 33 65 84 103 25 19
42 39 39 44 -3 6 -1 7 5 3 8 -5 12 3 12 23 0 16 3 36 6 45 12 31 19 15 18 -36z
m-1834 32 c0 -5 -19 -14 -42 -21 -24 -6 -47 -13 -52 -16 -5 -3 -7 0 -4 7 2 8
22 19 44 26 51 16 54 16 54 4z m310 6 c0 -11 -19 -15 -25 -6 -3 5 1 10 9 10 9
0 16 -2 16 -4z m-280 -57 c0 -11 -4 -17 -10 -14 -5 3 -10 15 -10 26 0 11 5 17
10 14 6 -3 10 -15 10 -26z m40 0 c0 -11 -4 -17 -10 -14 -5 3 -10 15 -10 26 0
11 5 17 10 14 6 -3 10 -15 10 -26z m-1870 11 c0 -6 12 -15 28 -20 57 -21 71
-34 86 -76 8 -24 11 -46 6 -49 -5 -3 -15 13 -21 35 -13 44 -41 70 -73 70 -10
0 -25 8 -32 18 -16 21 -17 32 -4 32 6 0 10 -5 10 -10z m-630 -41 c0 -5 -4 -9
-10 -9 -5 0 -10 7 -10 16 0 8 5 12 10 9 6 -3 10 -10 10 -16z m2560 11 c0 -5
-4 -10 -10 -10 -5 0 -10 5 -10 10 0 6 5 10 10 10 6 0 10 -4 10 -10z m-2690
-30 c0 -5 9 -10 19 -10 11 0 23 -4 26 -10 3 -5 2 -10 -3 -10 -6 0 -8 -9 -5
-20 3 -11 9 -20 14 -20 15 0 10 -40 -6 -47 -25 -9 -31 6 -9 22 18 13 16 14
-23 15 -36 0 -43 3 -43 19 0 11 6 22 13 24 6 3 -10 6 -36 6 -29 1 -46 5 -42
11 3 6 22 10 41 10 19 0 34 5 34 10 0 6 5 10 10 10 6 0 10 -4 10 -10z m598
-37 c11 -10 33 -26 50 -35 52 -28 102 -148 61 -148 -6 0 -9 7 -5 15 3 9 -4 35
-16 60 -16 32 -34 51 -70 70 -26 14 -48 33 -48 41 0 18 6 18 28 -3z m2727 -3
c-3 -5 -10 -10 -16 -10 -5 0 -9 5 -9 10 0 6 7 10 16 10 8 0 12 -4 9 -10z
m-3842 -21 c4 -14 11 -20 21 -16 8 3 20 -1 27 -9 9 -11 22 -14 46 -9 l34 6 -7
-35 c-4 -26 -2 -37 8 -41 9 -4 12 -18 10 -44 -3 -29 1 -42 15 -52 26 -20 29
-43 3 -36 -28 7 -25 -9 8 -39 25 -24 25 -25 5 -21 -12 3 -27 -1 -33 -8 -9 -11
-5 -15 17 -18 19 -3 15 -4 -9 -3 -33 1 -38 -1 -38 -21 0 -13 -5 -23 -11 -23
-7 0 -9 10 -5 26 9 33 -20 60 -43 41 -12 -10 -14 -9 -9 3 3 9 0 24 -8 34 -11
16 -11 23 2 47 13 25 13 33 -1 66 -11 26 -18 34 -26 26 -8 -8 -18 -8 -34 -1
-32 14 -44 98 -18 128 22 26 39 26 46 -1z m2362 9 c23 -11 25 -16 25 -85 0
-42 -4 -73 -10 -73 -6 0 -10 30 -10 69 0 72 -6 81 -50 81 -10 0 -22 5 -25 10
-8 14 38 13 70 -2z m1555 -4 c0 -2 -9 -4 -20 -4 -11 0 -20 4 -20 9 0 5 9 7 20
4 11 -3 20 -7 20 -9z m-3680 -31 c0 -20 -3 -24 -11 -16 -7 7 -9 19 -6 27 10
24 17 19 17 -11z m2810 -13 c0 -5 -4 -10 -10 -10 -5 0 -10 5 -10 10 0 6 5 10
10 10 6 0 10 -4 10 -10z m885 -50 c-3 -5 -24 -10 -46 -10 -21 0 -39 5 -39 10
0 6 21 10 46 10 27 0 43 -4 39 -10z m-3376 -26 c-9 -11 -24 -14 -48 -11 -25 3
-45 -2 -64 -15 -19 -14 -36 -18 -53 -14 -37 10 -62 -1 -79 -33 l-14 -28 65
-22 c35 -11 82 -21 104 -21 22 0 40 -4 40 -10 0 -20 -110 -5 -184 26 -20 8
-20 10 0 -70 4 -16 1 -25 -11 -30 -13 -4 -16 -2 -12 9 4 8 -3 40 -13 71 -11
32 -19 69 -19 83 1 25 2 25 8 -4 7 -29 7 -29 15 -7 11 32 53 56 92 54 19 -2
46 5 61 15 23 15 111 34 122 26 2 -1 -2 -10 -10 -19z m74 -75 c4 -3 1 -12 -8
-19 -13 -11 -15 -9 -15 15 0 16 3 24 8 19 4 -5 11 -11 15 -15z m127 5 c0 -8
-4 -12 -10 -9 -5 3 -10 10 -10 16 0 5 5 9 10 9 6 0 10 -7 10 -16z m106 -104
c8 0 14 6 14 13 1 7 6 5 14 -5 7 -10 25 -18 39 -18 34 0 58 -10 51 -21 -3 -5
-9 -7 -13 -5 -4 3 -36 8 -71 11 -36 4 -66 8 -68 9 -1 2 1 18 5 37 8 33 8 33
11 7 2 -16 9 -28 18 -28z m-78 4 c13 -2 21 -8 18 -12 -2 -4 -40 -4 -83 -1 -43
4 -90 8 -105 8 -16 1 -28 6 -28 12 0 10 140 5 198 -7z m-362 -39 c-3 -8 -2
-15 3 -15 5 0 14 -14 21 -31 9 -22 17 -28 29 -23 27 11 77 17 68 8 -5 -5 -12
-9 -15 -10 -4 0 -20 -4 -35 -8 -22 -7 -26 -12 -21 -30 6 -20 5 -20 -12 -5 -17
14 -23 14 -61 0 -35 -14 -40 -19 -32 -34 8 -14 6 -16 -13 -14 -28 5 -63 84
-46 104 14 17 27 7 21 -16 -3 -11 -1 -26 4 -34 7 -12 16 -10 59 7 l51 21 -14
33 c-13 33 -15 33 -56 27 -23 -4 -39 -5 -36 -1 4 5 73 32 88 35 2 1 1 -6 -3
-14z m129 -5 c4 -6 -10 -10 -34 -10 -23 0 -41 5 -41 10 0 6 15 10 34 10 19 0
38 -4 41 -10z m195 -10 c0 -12 -56 -12 -120 -1 -40 8 -37 9 38 10 49 0 82 -3
82 -9z m318 -32 c-3 -7 -11 -13 -18 -13 -7 0 -15 6 -17 13 -3 7 4 12 17 12 13
0 20 -5 18 -12z m-373 -18 c47 -7 45 -7 -32 -9 -50 0 -83 3 -83 9 0 11 43 12
115 0z m531 -28 c-7 -7 -46 9 -46 18 0 5 11 4 25 -2 14 -6 23 -13 21 -16z m72
-11 c10 -6 6 -10 -15 -14 -32 -6 -38 -3 -28 12 7 13 25 14 43 2z m1537 0 c3
-5 1 -12 -5 -16 -5 -3 -10 -1 -10 5 0 6 -5 8 -12 4 -7 -4 -8 -3 -4 4 9 14 23
15 31 3z m-1705 -16 c0 -8 -4 -15 -10 -15 -5 0 -7 7 -4 15 4 8 8 15 10 15 2 0
4 -7 4 -15z m263 9 c20 -4 37 -11 37 -17 0 -12 -81 0 -94 14 -12 11 3 11 57 3z
m-706 -20 c-3 -3 -12 -4 -19 -1 -8 3 -5 6 6 6 11 1 17 -2 13 -5z m1629 -9 c4
-8 11 -12 17 -8 6 3 7 1 3 -5 -4 -6 19 -38 51 -72 63 -67 71 -81 72 -122 1
-16 6 -28 12 -28 5 0 8 -4 4 -9 -6 -11 16 -151 25 -151 3 0 6 -24 8 -53 1 -28
6 -65 10 -82 8 -29 11 -30 83 -36 41 -4 103 -16 138 -28 35 -11 68 -18 73 -15
4 3 8 1 8 -5 0 -5 16 -15 35 -21 42 -14 51 -26 25 -33 -11 -3 -18 -2 -16 2 8
13 -198 74 -267 79 l-68 5 6 -44 c4 -24 8 -54 11 -66 5 -27 -12 -31 -20 -5 -3
9 -8 38 -11 64 -6 37 -12 48 -29 51 l-21 4 23 8 c12 4 22 12 22 17 0 5 -5 6
-12 2 -6 -4 -8 -3 -4 4 8 13 -35 256 -46 260 -5 2 -6 8 -2 13 9 16 -16 120
-28 113 -6 -4 -8 -2 -5 3 4 6 -3 19 -15 29 -11 11 -40 45 -63 76 -24 31 -46
54 -50 50 -5 -4 -5 -1 -1 6 10 16 25 15 32 -3z m-1568 -19 c3 -12 -1 -17 -10
-14 -7 3 -15 13 -16 22 -3 12 1 17 10 14 7 -3 15 -13 16 -22z m80 -24 c10 -30
10 -35 -8 -39 -11 -3 -20 -14 -20 -25 0 -30 -17 -12 -23 24 -3 18 -8 40 -12
49 -4 10 2 19 17 26 27 13 32 9 46 -35z m522 38 c0 -5 -6 -10 -14 -10 -8 0
-18 5 -21 10 -3 6 3 10 14 10 12 0 21 -4 21 -10z m-640 -45 c8 -24 17 -35 26
-31 8 3 14 1 14 -4 0 -6 -4 -10 -10 -10 -5 0 -10 -7 -10 -16 0 -12 6 -15 25
-10 25 6 36 -9 13 -16 -8 -3 -12 -28 -13 -69 0 -56 -5 -71 -38 -124 -45 -72
-50 -55 -6 21 26 47 30 60 24 97 -4 23 -9 45 -11 49 -2 3 -27 -2 -54 -13 -55
-21 -70 -23 -70 -11 0 5 25 17 55 27 30 11 55 25 55 32 0 24 -32 93 -41 88
-11 -7 -60 5 -55 14 3 4 23 8 44 9 38 3 41 1 52 -33z m220 5 c0 -5 -7 -10 -16
-10 -8 0 -12 5 -9 10 3 6 10 10 16 10 5 0 9 -4 9 -10z m407 4 c-3 -3 -12 -4
-19 -1 -8 3 -5 6 6 6 11 1 17 -2 13 -5z m-1061 -31 c-10 -10 -19 5 -10 18 6
11 8 11 12 0 2 -7 1 -15 -2 -18z m240 19 c18 -12 27 -62 10 -62 -7 0 -17 11
-20 25 -4 14 -11 23 -16 20 -6 -3 -10 1 -10 9 0 17 18 21 36 8z m-94 -21 c15
8 23 8 32 -1 8 -10 7 -11 -4 -8 -18 6 -45 -19 -45 -41 0 -9 -8 -17 -17 -19
-10 -2 -18 2 -18 8 0 7 -10 20 -22 30 l-22 17 30 16 c25 13 30 13 37 1 6 -11
13 -12 29 -3z m583 9 c-3 -5 -10 -10 -16 -10 -5 0 -9 5 -9 10 0 6 7 10 16 10
8 0 12 -4 9 -10z m-939 -16 c-3 -9 -6 -18 -6 -20 0 -2 -4 -4 -9 -4 -5 0 -7 9
-4 20 3 11 10 20 15 20 6 0 7 -7 4 -16z m994 -3 c0 -11 -129 -56 -137 -47 -3
3 0 8 8 11 15 5 122 43 127 44 1 1 2 -3 2 -8z m52 0 c13 -5 33 -18 45 -30 17
-16 20 -26 13 -54 -9 -41 -18 -57 -31 -57 -6 0 -8 4 -4 9 3 5 1 12 -5 16 -6 4
-10 -5 -10 -19 0 -14 -4 -26 -10 -26 -5 0 -10 11 -10 24 0 13 -4 26 -9 28 -5
2 -12 29 -16 61 -8 60 -5 64 37 48z m-872 -11 c0 -5 -4 -10 -10 -10 -5 0 -10
5 -10 10 0 6 5 10 10 10 6 0 10 -4 10 -10z m1113 -5 c11 -7 25 -11 33 -8 23 8
16 -7 -23 -56 -20 -25 -38 -48 -40 -50 -2 -2 -6 -1 -9 2 -4 4 5 22 20 41 26
35 36 60 14 38 -15 -15 -32 -16 -23 -2 3 6 -1 10 -9 10 -14 0 -14 3 -4 20 15
23 17 24 41 5z m257 -11 c0 -8 -4 -12 -10 -9 -5 3 -10 13 -10 21 0 8 5 12 10
9 6 -3 10 -13 10 -21z m-139 2 c-9 -11 -7 -15 11 -21 l23 -8 -25 -4 c-13 -3
-30 -12 -36 -21 -7 -10 -16 -13 -21 -9 -4 5 0 14 10 21 9 7 17 20 17 28 0 17
9 28 23 28 5 0 4 -6 -2 -14z m-1121 -31 c16 -19 0 -19 -26 0 -16 12 -16 14 -3
15 9 0 22 -7 29 -15z m136 -20 c14 -44 0 -57 -15 -13 -13 37 -14 48 -3 48 4 0
12 -16 18 -35z m1749 -42 c-4 -32 -11 -62 -15 -66 -4 -4 -3 14 1 40 4 26 8 56
8 66 1 9 4 17 7 17 3 0 2 -26 -1 -57z m-945 7 c0 -29 -12 -80 -19 -80 -3 0 -6
24 -6 54 -1 40 3 52 12 49 7 -3 13 -13 13 -23z m1704 -1 c26 -12 27 -32 1 -22
-12 4 -15 -6 -15 -55 0 -34 -4 -64 -10 -67 -6 -4 -10 23 -10 74 0 45 2 81 5
81 2 0 15 -5 29 -11z m-2921 -29 c9 0 17 -5 17 -10 0 -7 -13 -8 -35 -4 -19 3
-35 3 -35 -1 0 -4 18 -25 40 -46 22 -22 40 -47 40 -56 0 -15 -4 -13 -20 7 -11
14 -20 28 -20 32 0 4 -10 10 -22 14 -23 7 -47 31 -48 47 0 5 4 6 9 3 5 -3 12
6 15 20 7 24 8 25 25 10 10 -9 25 -16 34 -16z m501 22 c7 -12 -125 -55 -136
-44 -6 6 13 17 54 30 76 24 76 24 82 14z m798 -18 c-6 -11 -7 -27 -1 -41 5
-14 4 -25 -2 -29 -14 -8 -17 -4 -20 32 -2 17 3 39 10 48 17 21 26 14 13 -10z
m-368 -89 c-4 -8 -10 -15 -15 -15 -5 0 -9 7 -9 15 0 8 7 15 15 15 9 0 12 -6 9
-15z m-120 -67 c-3 -4 -29 5 -59 19 -30 15 -52 30 -49 35 3 4 29 -5 59 -19 30
-15 52 -30 49 -35z m3664 51 c-2 -6 -8 -10 -13 -10 -5 0 -11 4 -13 10 -2 6 4
11 13 11 9 0 15 -5 13 -11z m-4041 -41 c1 -39 0 -41 -13 -24 -17 24 -18 66 -1
66 7 0 13 -16 14 -42z m576 26 c17 -6 11 -40 -8 -48 -10 -3 -13 4 -13 25 1 16
2 29 4 29 1 0 9 -3 17 -6z m763 -21 c-10 -10 -19 5 -10 18 6 11 8 11 12 0 2
-7 1 -15 -2 -18z m364 17 c0 -5 -5 -10 -11 -10 -5 0 -7 5 -4 10 3 6 8 10 11
10 2 0 4 -4 4 -10z m-1450 -19 c0 -5 -7 -12 -16 -15 -24 -9 -28 -7 -14 9 14
17 30 20 30 6z m1390 -91 c-18 -28 -36 -50 -41 -50 -5 0 8 27 28 60 21 33 40
55 41 50 2 -6 -11 -33 -28 -60z m-810 41 c0 -12 -20 -25 -27 -18 -7 7 6 27 18
27 5 0 9 -4 9 -9z m578 -10 c3 -8 -1 -12 -9 -9 -7 2 -15 10 -17 17 -3 8 1 12
9 9 7 -2 15 -10 17 -17z m-1693 -76 c36 -66 74 -105 101 -105 13 0 26 -4 29
-10 3 -5 11 -10 16 -10 6 0 7 5 4 10 -3 6 -2 10 4 10 15 0 24 -19 17 -36 -5
-12 -10 -13 -27 -4 -38 21 -32 2 21 -61 34 -41 48 -64 40 -69 -8 -5 14 -39 62
-99 81 -101 108 -145 108 -176 1 -25 36 -69 50 -60 5 3 28 -13 49 -35 30 -32
44 -40 60 -35 24 7 29 -10 5 -19 -20 -8 -41 4 -78 42 -15 17 -34 28 -41 26
-17 -7 -50 41 -64 91 -9 36 -82 135 -262 359 -23 29 -35 52 -29 56 6 4 -4 19
-22 37 -41 38 -78 87 -78 102 0 6 -4 11 -9 11 -10 0 -21 47 -13 55 6 6 21 -15
57 -80z m955 70 c0 -15 -32 -65 -41 -65 -6 0 -9 3 -7 8 24 48 32 62 40 62 4 0
8 -2 8 -5z m-515 -67 c5 -18 3 -28 -4 -28 -6 0 -11 6 -11 13 0 6 -3 23 -6 37
-5 17 -4 22 4 15 6 -5 14 -22 17 -37z m1405 0 c0 -12 -18 -9 -51 7 -16 9 -27
20 -24 24 5 10 74 -20 75 -31z m-947 -22 c6 -16 -2 -28 -14 -20 -12 7 -11 34
0 34 5 0 11 -6 14 -14z m-253 -20 c0 -8 3 -21 6 -30 4 -11 0 -16 -13 -16 -16
0 -19 5 -15 30 4 30 22 43 22 16z m1534 5 c4 -5 0 -12 -6 -14 -8 -3 -6 -6 5
-6 27 -1 20 -21 -8 -21 -18 0 -25 5 -25 18 0 29 22 43 34 23z m-1749 -50 c-23
-21 -160 -70 -169 -61 -7 7 -6 10 2 10 6 0 35 11 64 24 29 13 64 26 78 29 14
2 27 5 30 6 2 0 0 -3 -5 -8z m151 -38 c20 -27 16 -38 -6 -18 -20 18 -26 35
-14 35 4 0 13 -8 20 -17z m68 1 c3 -8 2 -12 -4 -9 -6 3 -10 10 -10 16 0 14 7
11 14 -7z m1420 -10 c4 -15 4 -29 1 -32 -8 -8 -25 19 -25 41 0 26 17 20 24 -9z
m-1374 -5 c0 -5 -7 -9 -15 -9 -9 0 -12 6 -9 15 6 15 24 11 24 -6z m-200 -7 c0
-12 -70 -43 -81 -37 -14 9 -11 28 4 22 7 -3 24 1 38 9 28 16 39 17 39 6z
m3307 -59 c-3 -10 -5 -2 -5 17 0 19 2 27 5 18 2 -10 2 -26 0 -35z m-2657 -3
c0 -5 -22 -10 -50 -10 -27 0 -50 5 -50 10 0 6 23 10 50 10 28 0 50 -4 50 -10z
m3056 -66 c-3 -8 -11 -14 -18 -14 -9 0 -9 3 0 12 7 7 13 26 13 43 l2 30 4 -28
c3 -16 2 -35 -1 -43z m-3316 35 c0 -6 -18 -9 -44 -8 -26 2 -51 -3 -61 -11 -12
-10 -19 -10 -27 -2 -8 8 -8 13 3 16 8 2 21 7 29 9 29 10 100 7 100 -4z m-320
-9 c0 -5 -5 -10 -11 -10 -5 0 -7 5 -4 10 3 6 8 10 11 10 2 0 4 -4 4 -10z m80
0 c0 -5 -10 -10 -22 -10 -19 0 -20 2 -8 10 19 13 30 13 30 0z m410 -5 c0 -8
-7 -15 -16 -15 -14 0 -14 3 -4 15 7 8 14 15 16 15 2 0 4 -7 4 -15z m1700 -45
c0 -43 3 -50 23 -54 67 -14 77 -17 73 -25 -3 -4 -30 -3 -61 2 l-55 10 0 64 c0
40 4 62 10 58 6 -3 10 -28 10 -55z m30 0 c0 -5 -4 -10 -10 -10 -5 0 -10 5 -10
10 0 6 5 10 10 10 6 0 10 -4 10 -10z m-2010 -50 c0 -5 -4 -10 -10 -10 -5 0
-10 5 -10 10 0 6 5 10 10 10 6 0 10 -4 10 -10z m577 -85 c-2 -26 -7 -48 -10
-51 -3 -3 -21 -2 -41 2 -35 6 -36 7 -30 42 7 36 1 38 -36 6 -17 -14 -177 -26
-185 -14 -2 4 33 9 79 12 66 3 89 9 111 26 19 15 42 22 73 22 l45 0 -6 -45z
m81 7 c23 -16 39 -31 36 -34 -7 -7 -94 43 -94 54 0 14 14 9 58 -20z m-698 12
c0 -4 -7 -12 -17 -19 -15 -11 -13 -16 17 -59 47 -65 31 -69 -19 -4 l-41 53 21
18 c22 17 39 22 39 11z m237 -40 c-3 -3 -12 -4 -19 -1 -8 3 -5 6 6 6 11 1 17
-2 13 -5z m247 -25 c-3 -5 -15 -9 -27 -10 -12 0 -16 -3 -9 -6 28 -11 9 -23
-35 -22 -36 0 -43 3 -28 9 19 8 19 9 -3 9 -35 1 -15 21 21 21 18 0 38 4 46 9
17 11 43 3 35 -10z m-229 1 c-3 -5 -13 -10 -21 -10 -8 0 -14 5 -14 10 0 6 9
10 21 10 11 0 17 -4 14 -10z m1265 -9 c0 -28 -61 -171 -73 -171 -5 0 -7 3 -5
8 2 4 17 44 33 89 17 46 33 83 38 83 4 0 7 -4 7 -9z m-956 -86 c22 -30 37 -58
34 -60 -7 -7 -98 110 -98 125 0 19 21 -2 64 -65z m56 18 c0 -18 -4 -33 -10
-33 -5 0 -10 21 -10 48 0 34 3 43 10 32 5 -8 10 -30 10 -47z m240 24 c12 -9
14 -27 9 -82 l-5 -70 -2 64 c-1 44 -7 70 -19 83 -18 20 -6 24 17 5z m-420 -74
c69 -96 73 -103 62 -103 -4 0 -30 29 -56 65 -26 36 -54 72 -62 80 -15 15 -19
35 -6 35 4 0 32 -35 62 -77z m1644 11 c3 -8 2 -13 -2 -11 -4 3 -36 -48 -72
-113 -35 -65 -68 -116 -72 -113 -5 2 12 41 37 86 25 45 56 101 67 125 24 45
32 51 42 26z m1543 -61 c-3 -10 -5 -2 -5 17 0 19 2 27 5 18 2 -10 2 -26 0 -35z
m-2405 -50 c2 -40 1 -73 -2 -73 -3 0 -14 -55 -23 -123 -15 -112 -57 -269 -78
-291 -15 -17 -10 8 21 102 17 50 30 99 30 109 0 31 -53 -31 -90 -106 -34 -68
-50 -86 -50 -57 0 18 66 133 96 166 12 14 28 45 35 70 7 25 17 51 22 57 5 7
12 63 15 124 5 122 18 133 24 22z m158 17 c0 -5 -20 -10 -45 -10 -25 0 -45 5
-45 10 0 6 20 10 45 10 25 0 45 -4 45 -10z m1810 0 c0 -5 -4 -10 -10 -10 -5 0
-10 5 -10 10 0 6 5 10 10 10 6 0 10 -4 10 -10z m-2593 -148 c7 -7 17 -20 22
-29 8 -15 14 -13 46 16 20 18 40 29 44 26 3 -4 -10 -21 -29 -38 -32 -29 -35
-35 -32 -79 3 -43 -4 -62 -83 -212 -99 -189 -108 -196 -167 -127 -54 63 -100
131 -89 131 6 0 32 -29 58 -64 48 -64 83 -93 100 -83 5 3 40 67 77 142 38 74
72 138 77 141 16 9 10 79 -11 120 -11 21 -35 59 -54 84 -19 24 -32 48 -29 53
3 5 17 -9 31 -30 14 -21 32 -44 39 -51z m771 43 c-1 -13 -5 -22 -8 -20 -19 12
-123 -273 -114 -311 4 -15 2 -24 -5 -24 -6 0 -11 -11 -11 -25 0 -14 -4 -25
-10 -25 -15 0 -12 37 5 53 10 11 11 17 3 19 -8 3 -8 14 1 41 7 20 10 41 6 47
-3 5 -1 10 5 10 7 0 10 7 6 15 -3 8 -1 15 5 15 6 0 9 7 5 15 -3 8 -1 15 4 15
4 0 11 14 15 30 4 17 11 30 17 30 6 0 9 3 5 6 -3 4 7 33 24 66 16 32 27 63 24
68 -3 6 1 7 9 4 9 -3 15 -16 14 -29z m1042 -39 c0 -2 -8 -10 -17 -17 -16 -13
-17 -12 -4 4 13 16 21 21 21 13z m-90 -40 c0 -2 -8 -10 -17 -17 -16 -13 -17
-12 -4 4 13 16 21 21 21 13z m-400 -106 c0 -11 5 -20 11 -20 5 0 7 -4 4 -10
-3 -5 1 -35 9 -67 16 -65 23 -179 12 -205 -4 -9 -6 -44 -4 -78 1 -33 0 -60 -4
-60 -5 0 -8 -20 -8 -44 0 -25 -5 -48 -10 -51 -7 -4 -8 30 -3 102 15 248 15
267 -6 350 -24 92 -25 103 -11 103 6 0 10 -9 10 -20z m-1430 -38 c0 -13 -12
-22 -22 -16 -10 6 -1 24 13 24 5 0 9 -4 9 -8z m2135 -118 c-27 -25 -72 -66
-101 -90 l-51 -44 -87 0 c-51 0 -86 4 -86 10 0 6 36 10 88 10 l87 1 90 79 c95
84 145 111 60 34z m-1615 15 c0 -6 -4 -7 -10 -4 -5 3 -10 11 -10 16 0 6 5 7
10 4 6 -3 10 -11 10 -16z m2517 -41 c-3 -8 -6 -5 -6 6 -1 11 2 17 5 13 3 -3 4
-12 1 -19z m-2507 -7 c0 -5 -7 -14 -15 -21 -16 -14 -18 -10 -9 14 6 17 24 22
24 7z m200 -116 l0 -65 -115 0 -115 0 0 -42 c0 -24 7 -67 14 -96 10 -36 11
-52 3 -49 -13 4 -36 97 -37 149 0 20 -4 48 -10 62 -5 15 -5 28 0 31 5 3 11 -4
15 -15 6 -18 15 -20 116 -20 l109 0 0 55 c0 30 5 55 10 55 6 0 10 -28 10 -65z
m1975 -146 c-2 -45 -7 -84 -10 -87 -3 -3 -5 -27 -5 -53 0 -26 -5 -51 -11 -55
-12 -7 -9 77 8 224 9 82 22 61 18 -29z m-2305 41 c0 -5 -5 -10 -11 -10 -5 0
-7 5 -4 10 3 6 8 10 11 10 2 0 4 -4 4 -10z m701 -160 c28 -16 24 -31 -6 -20
-14 5 -61 7 -105 3 -55 -4 -80 -3 -80 5 0 19 159 28 191 12z m-281 -19 c0 -8
-55 -21 -92 -21 -31 0 -19 19 15 23 60 7 77 7 77 -2z m365 -30 c3 -5 1 -12 -5
-16 -5 -3 -10 1 -10 9 0 18 6 21 15 7z m163 -68 c5 -10 12 -49 15 -88 4 -38
11 -71 16 -73 6 -2 8 -9 5 -16 -2 -6 9 -25 26 -41 16 -16 30 -32 30 -36 0 -4
-28 -28 -61 -53 -34 -25 -68 -55 -77 -67 -14 -20 -14 -23 2 -35 34 -24 -1 -23
-38 2 -22 15 -46 24 -57 21 -10 -3 -21 -1 -24 4 -9 14 41 22 64 9 19 -9 25 -7
47 19 14 16 48 47 75 67 l51 37 -31 29 c-17 16 -31 36 -31 44 0 8 -4 13 -8 10
-5 -3 -7 7 -5 22 6 42 -12 137 -25 135 -6 -2 -9 4 -6 12 8 20 21 19 32 -2z
m-998 -13 c0 -5 -7 -10 -16 -10 -8 0 -12 5 -9 10 3 6 10 10 16 10 5 0 9 -4 9
-10z m1056 -60 c-5 -38 -14 -70 -19 -70 -9 0 -1 97 10 127 13 34 18 6 9 -57z
m1118 51 c3 -5 -6 -12 -22 -15 -15 -4 -35 -9 -44 -12 -33 -10 -18 13 15 24 42
13 45 13 51 3z m-159 -20 c-3 -5 7 -12 22 -14 16 -2 -8 -5 -53 -6 -94 -1 -174
8 -174 20 0 5 48 9 106 9 62 0 103 -4 99 -9z m-270 -11 c-3 -5 -17 -10 -31
-10 -13 0 -24 -4 -24 -10 0 -5 -11 -10 -25 -10 -35 0 -27 24 10 31 49 10 77
10 70 -1z"/>
<path d="M3384 5425 c-9 -28 -8 -35 2 -35 9 0 14 12 14 35 0 19 -1 35 -3 35
-1 0 -7 -16 -13 -35z"/>
<path d="M4810 6981 c0 -5 5 -13 10 -16 6 -3 10 -2 10 4 0 5 -4 13 -10 16 -5
3 -10 2 -10 -4z"/>
<path d="M6303 2359 c1 -41 -1 -83 -4 -94 -3 -15 1 -20 16 -20 38 0 42 116 6
164 -18 23 -18 22 -18 -50z"/>
<path d="M6257 2167 c-8 -34 -14 -63 -13 -64 1 -1 17 2 36 6 27 5 40 16 57 46
26 48 19 66 -30 71 l-36 3 -14 -62z"/>
<path d="M3500 3785 c-6 -8 -9 -19 -5 -25 3 -5 0 -10 -8 -10 -21 0 -48 -35
-41 -53 5 -14 34 -32 39 -25 9 14 45 97 45 106 0 18 -17 23 -30 7z"/>
<path d="M2970 3288 l1 -43 19 24 c26 31 26 61 0 61 -17 0 -20 -7 -20 -42z"/>
<path d="M3024 3288 c-4 -7 -15 -24 -23 -38 -10 -15 -11 -21 -3 -16 13 7 46
66 38 66 -3 0 -8 -6 -12 -12z"/>
<path d="M3057 3284 c-9 -9 2 -24 17 -24 7 0 13 7 13 15 0 15 -18 20 -30 9z"/>
<path d="M3133 3175 c0 -22 2 -30 4 -17 2 12 2 30 0 40 -3 9 -5 -1 -4 -23z"/>
<path d="M3101 3134 c0 -11 3 -14 6 -6 3 7 2 16 -1 19 -3 4 -6 -2 -5 -13z"/>
<path d="M3790 2853 c0 -5 4 -15 10 -23 11 -18 25 -7 17 15 -6 15 -27 21 -27
8z"/>
<path d="M4110 2750 c20 -13 33 -13 25 0 -3 6 -14 10 -23 10 -15 0 -15 -2 -2
-10z"/>
<path d="M3390 2153 c13 -18 26 -30 29 -28 3 3 -8 18 -23 33 l-29 27 23 -32z"/>
<path d="M4544 1966 c-1 -14 4 -27 12 -30 10 -4 14 3 14 24 0 36 -24 41 -26 6z"/>
<path d="M5811 159 c-42 -58 -40 -80 13 -123 l43 -36 202 0 201 0 0 45 c0 64
-16 92 -57 100 -25 4 -40 2 -52 -9 -15 -14 -28 -12 -131 19 -186 54 -183 54
-219 4z"/>
</g>
</svg>
