<?xml version="1.0" standalone="no"?>
<!DOCTYPE svg PUBLIC "-//W3C//DTD SVG 20010904//EN"
 "http://www.w3.org/TR/2001/REC-SVG-20010904/DTD/svg10.dtd">
<svg version="1.0" xmlns="http://www.w3.org/2000/svg"
 width="800.000000pt" height="800.000000pt" viewBox="0 0 800.000000 800.000000"
 preserveAspectRatio="xMidYMid meet">
<metadata>
Created by potrace 1.16, written by Peter Selinger 2001-2019
</metadata>
<g transform="translate(0.000000,800.000000) scale(0.100000,-0.100000)"
fill="#000000" stroke="none">
<path d="M0 6229 c0 -1683 1 -1771 17 -1764 10 3 97 28 193 55 241 67 322 101
575 241 198 109 221 119 242 108 18 -10 28 -10 47 0 13 8 28 11 33 8 5 -3 29
10 53 29 25 19 62 44 83 56 20 12 37 29 37 39 0 27 244 229 482 399 85 61 114
88 118 108 7 35 128 117 309 210 184 94 219 106 421 148 96 20 200 42 230 49
30 7 60 10 66 8 6 -2 21 -22 33 -44 13 -22 33 -46 46 -55 44 -29 84 -125 120
-291 19 -87 50 -198 69 -247 20 -48 39 -105 42 -125 8 -43 141 -342 159 -356
6 -5 15 -23 19 -38 4 -16 51 -95 106 -176 113 -170 144 -251 96 -251 -8 0 -16
-9 -19 -20 -4 -15 0 -20 14 -20 10 0 19 -4 19 -10 0 -5 -10 -10 -23 -10 -18 0
-30 -16 -64 -87 -23 -49 -51 -103 -61 -120 -19 -32 -19 -32 -37 -13 -12 13
-31 20 -54 20 -25 0 -53 11 -88 35 -40 26 -63 35 -100 36 -51 2 -164 -27 -175
-44 -4 -7 -12 -6 -23 3 -9 7 -12 16 -6 19 11 7 -49 113 -86 153 -14 14 -23 32
-21 40 3 9 9 6 17 -10 6 -12 18 -22 26 -22 8 0 15 -4 15 -10 0 -20 2 -25 14
-40 7 -8 24 -34 36 -57 27 -48 30 -49 107 -27 79 23 138 15 208 -29 52 -33 62
-35 109 -30 36 4 55 12 66 27 13 19 90 182 90 192 0 3 -11 2 -25 -2 -15 -4
-32 -1 -40 6 -25 20 -17 29 20 23 23 -4 35 -2 35 6 0 6 11 11 25 11 14 0 25 2
25 4 0 26 -46 110 -120 221 -51 76 -97 151 -102 169 -6 17 -17 38 -24 46 -18
21 -154 326 -154 345 0 9 -20 69 -44 133 -24 65 -56 178 -71 252 -32 157 -73
258 -115 283 -16 10 -37 34 -47 55 -16 33 -21 37 -53 34 -63 -6 -102 -22 -95
-41 17 -39 18 -54 4 -49 -7 2 -17 18 -21 34 l-8 31 -155 -33 c-187 -39 -231
-55 -402 -144 -184 -95 -293 -169 -293 -198 0 -16 -18 -35 -66 -70 -181 -129
-365 -276 -360 -288 3 -7 1 -16 -4 -19 -4 -3 -10 1 -13 7 -3 9 -15 3 -38 -17
-85 -75 -119 -110 -119 -125 0 -8 -19 -26 -43 -39 -23 -13 -60 -39 -83 -58
-23 -18 -48 -33 -57 -33 -9 0 -28 -5 -42 -12 -21 -9 -31 -9 -46 0 -29 18 -42
15 -29 -7 5 -11 10 -30 9 -43 -1 -20 -2 -19 -15 10 -8 17 -17 32 -21 32 -3 0
-97 -50 -209 -111 -210 -114 -335 -168 -489 -209 -50 -13 -95 -30 -101 -39 -7
-9 -18 -12 -29 -7 -11 4 -22 2 -26 -5 -4 -6 -19 -12 -33 -11 -15 0 -29 -4 -32
-9 -3 -5 -16 -9 -30 -9 l-24 0 0 -1064 c0 -1058 0 -1065 20 -1071 11 -4 18
-11 14 -16 -4 -6 -11 -6 -20 2 -12 10 -14 -6 -14 -109 0 -112 1 -121 20 -127
11 -3 20 -11 20 -16 0 -6 -9 -8 -20 -4 -19 6 -19 -3 -20 -538 0 -473 2 -546
15 -557 15 -13 11 -35 -6 -25 -5 4 -9 -173 -9 -454 l0 -461 1033 0 1032 0 38
25 c27 19 37 33 37 53 0 33 65 90 156 134 56 29 62 34 84 91 19 46 36 69 75
100 68 54 95 71 101 64 3 -3 -21 -25 -53 -49 -72 -54 -77 -59 -111 -133 -26
-54 -34 -62 -83 -85 -80 -36 -149 -96 -149 -128 0 -19 -10 -34 -33 -50 l-32
-22 1473 0 c1176 0 1472 3 1466 13 -5 6 -30 45 -56 86 -26 40 -48 80 -48 87 0
22 10 16 20 -12 6 -14 14 -23 19 -20 5 3 8 -2 7 -12 0 -9 4 -16 10 -15 7 1 11
-5 10 -15 0 -9 4 -16 10 -15 7 1 11 -5 10 -15 0 -9 4 -16 10 -15 7 1 11 -5 10
-15 0 -9 4 -16 10 -15 7 1 11 -5 10 -15 -1 -16 89 -17 1472 -20 l1472 -2 0
699 0 699 -31 6 c-17 3 -51 6 -75 6 -24 0 -44 5 -44 10 0 9 40 15 85 12 11 0
30 1 43 4 l22 4 0 948 0 948 -54 65 c-72 88 -169 188 -163 168 3 -9 -4 -21
-15 -28 -22 -14 -15 -18 -147 109 l-46 45 -39 -18 c-44 -21 -56 -13 -56 36 0
46 -18 70 -46 63 -24 -6 -34 8 -11 17 23 9 57 -12 84 -52 27 -39 53 -53 53
-29 0 6 -9 22 -21 34 -12 12 -19 28 -17 35 2 7 30 -20 62 -59 31 -40 68 -80
82 -88 23 -15 26 -15 44 1 15 13 17 22 9 36 -5 10 -14 18 -20 16 -6 -1 -18 12
-27 28 -31 56 -87 115 -152 162 -170 122 -219 191 -279 398 -18 61 -42 126
-54 145 -31 51 -88 111 -98 104 -5 -3 -9 0 -9 6 0 6 -20 31 -44 56 -68 68
-143 214 -151 291 -12 113 -149 292 -522 681 -29 30 -53 58 -55 62 -2 5 -66
80 -144 167 -78 87 -197 221 -265 297 -82 92 -131 140 -146 141 -12 1 -51 21
-88 45 -42 27 -84 46 -113 51 -42 6 -55 3 -127 -33 -44 -22 -109 -56 -143 -76
l-64 -35 25 -24 c23 -24 26 -24 55 -9 54 28 69 17 17 -12 l-50 -28 -37 35
c-21 19 -38 38 -38 41 0 4 16 14 35 23 38 18 42 32 20 61 -18 23 -31 15 -45
-32 -13 -38 -30 -65 -30 -46 0 23 33 104 42 104 6 0 7 13 3 31 -7 29 -6 30 14
17 12 -7 21 -18 21 -25 0 -7 6 -11 13 -9 6 3 25 7 40 10 27 6 53 45 48 73 -1
9 10 11 42 7 39 -6 46 -3 61 17 9 13 16 36 16 51 0 21 5 26 20 25 11 -1 20 -2
20 -4 0 -1 -11 -22 -24 -47 -14 -26 -20 -46 -14 -46 6 0 5 -6 -2 -15 -7 -9
-11 -17 -9 -19 2 -2 36 -9 74 -15 44 -8 88 -24 119 -42 54 -34 67 -32 42 7
-37 56 -87 103 -103 97 -12 -5 -15 -2 -10 10 5 14 -47 89 -118 170 -8 9 -15
23 -15 31 0 8 -10 27 -23 43 -13 15 -43 73 -67 128 -23 55 -47 105 -52 111 -5
7 -8 16 -6 20 7 24 -13 73 -32 79 -11 4 -18 11 -14 16 3 5 10 6 16 3 7 -5 9 1
5 17 -28 112 -34 148 -25 157 5 5 15 27 23 48 l13 38 132 27 c72 15 155 34
183 43 158 46 298 72 276 52 -2 -2 -83 -23 -179 -46 -96 -24 -184 -47 -195
-53 -11 -6 -36 -11 -55 -12 -19 -1 -61 -7 -93 -14 -50 -11 -57 -15 -52 -32 4
-10 2 -19 -3 -19 -5 0 -14 -17 -21 -38 -11 -33 -9 -51 19 -162 32 -128 108
-319 140 -355 10 -11 34 -47 53 -80 20 -33 64 -91 99 -130 35 -38 91 -104 125
-145 33 -42 69 -82 78 -90 10 -8 76 -79 146 -157 71 -77 144 -158 164 -178 19
-21 35 -40 35 -42 0 -8 313 -357 406 -453 115 -119 278 -320 310 -381 13 -26
33 -82 44 -126 12 -43 30 -98 41 -122 l20 -45 20 42 c21 42 46 59 34 23 -3
-10 1 -24 10 -31 13 -11 19 -10 34 4 11 10 28 16 38 13 15 -3 13 -6 -10 -15
-22 -9 -27 -17 -22 -32 8 -26 -7 -26 -30 0 -10 11 -24 20 -31 20 -17 0 -29
-39 -15 -53 6 -6 11 -19 11 -28 0 -9 36 -49 80 -89 99 -89 140 -155 179 -291
17 -58 38 -123 47 -144 29 -71 103 -154 202 -228 81 -60 124 -104 257 -263 88
-105 177 -211 198 -235 l37 -43 0 130 c0 95 -4 137 -15 158 -19 35 -19 37 0
30 13 -6 15 30 15 295 -1 293 -1 301 -20 291 -13 -7 -21 -7 -25 0 -3 6 5 14
19 20 l26 9 0 1371 c0 1299 -1 1370 -17 1370 -49 0 -363 -33 -530 -55 -192
-25 -323 -53 -323 -67 0 -4 -5 -8 -11 -8 -25 0 -288 -133 -282 -143 4 -6 1 -7
-6 -2 -14 8 -63 -14 -56 -25 3 -4 -3 -7 -13 -6 -29 2 -26 -41 7 -104 32 -61
37 -80 22 -80 -5 0 -12 11 -15 25 -4 14 -15 34 -26 45 -10 10 -21 38 -25 62
-5 35 -3 48 14 70 22 27 15 43 -13 32 -9 -3 -16 -2 -16 3 0 19 57 62 123 94
54 26 67 36 64 51 -7 24 10 33 18 10 10 -32 -3 -47 -70 -80 -36 -17 -65 -36
-65 -42 0 -16 17 -12 70 15 27 14 60 25 73 25 13 0 59 16 101 36 58 26 76 39
72 51 -17 43 -17 60 0 67 21 8 33 -2 16 -13 -20 -12 6 -64 27 -56 36 15 152
35 323 56 101 12 186 27 189 32 4 5 11 7 17 3 10 -6 227 9 300 20 l32 5 -1
407 c0 386 -1 406 -17 383 -24 -35 -83 -182 -84 -209 -1 -25 38 -72 59 -72 19
0 16 -39 -4 -47 -9 -4 -19 -1 -21 6 -10 29 -54 70 -69 64 -12 -5 -15 -2 -10
10 4 10 -7 27 -32 50 -59 53 -74 54 -115 10 -45 -48 -55 -93 -30 -138 10 -19
15 -37 12 -41 -4 -3 -17 14 -29 39 -27 55 -22 79 31 146 22 28 40 55 40 61 0
5 7 10 15 10 8 0 15 -4 15 -8 0 -10 109 -87 114 -81 1 2 18 42 36 89 19 47 45
103 59 125 13 22 26 61 29 88 l5 47 -187 0 c-170 0 -186 -1 -186 -17 -1 -17
-1 -17 -14 0 -15 20 -42 23 -49 5 -4 -10 -8 -9 -16 2 -9 13 -12 13 -20 1 -6
-9 -18 -11 -33 -8 -14 4 -28 4 -32 0 -3 -3 -32 -8 -63 -9 -55 -3 -64 10 -13
19 14 2 -6 5 -44 6 -57 1 -67 -1 -62 -14 3 -8 9 -22 12 -30 3 -8 2 -15 -4 -15
-5 0 -15 14 -22 30 -11 27 -17 30 -55 30 -29 0 -45 -5 -49 -15 -3 -8 -10 -15
-15 -15 -6 0 -8 7 -5 15 6 14 -29 15 -292 13 -286 -3 -299 -4 -302 -22 -5 -22
23 -47 43 -40 8 3 16 -4 20 -16 7 -23 -2 -41 -13 -25 -7 10 -66 45 -75 45 -2
0 -48 -63 -101 -139 -64 -92 -96 -149 -97 -168 0 -22 -2 -24 -8 -10 -6 17 -8
17 -20 3 -7 -9 -25 -16 -38 -16 -60 0 -194 46 -351 120 -94 44 -174 80 -180
80 -9 0 -84 56 -107 81 -58 60 -99 98 -106 94 -4 -3 -12 -27 -18 -53 -22 -95
-58 -206 -69 -210 -7 -2 -3 25 10 70 12 40 22 88 24 106 1 18 6 38 12 45 5 6
13 22 16 35 l7 22 -137 0 c-136 0 -138 0 -166 -27 -19 -18 -28 -22 -28 -12 0
8 5 20 12 27 9 9 -93 12 -460 12 l-472 0 -23 -52 c-13 -29 -26 -48 -29 -42 -4
5 2 29 12 52 l19 43 -92 -3 -92 -3 -19 -54 c-13 -36 -39 -75 -79 -117 -47 -51
-64 -78 -84 -136 -13 -40 -27 -99 -30 -130 -5 -49 -2 -63 20 -100 45 -75 116
-147 176 -178 68 -34 113 -80 139 -140 11 -25 46 -70 77 -100 31 -30 67 -75
80 -100 13 -25 42 -63 65 -85 23 -22 48 -54 55 -72 27 -63 65 -221 58 -240
-12 -31 -110 -177 -135 -200 -29 -27 -134 -83 -157 -83 -23 0 -70 -46 -77 -77
-7 -28 20 -136 61 -236 13 -34 18 -56 12 -54 -7 2 -31 59 -55 128 -46 134 -48
166 -11 213 22 28 73 59 82 50 9 -10 105 45 136 78 17 18 55 68 83 111 l51 78
-13 52 c-35 140 -51 177 -104 239 -29 35 -60 77 -69 93 -8 17 -45 62 -80 101
-36 38 -73 88 -82 109 -22 54 -50 82 -115 115 -51 26 -135 105 -187 175 l-21
30 -12 -32 c-7 -18 -22 -36 -38 -42 -15 -6 -39 -19 -54 -29 l-27 -18 55 -40
c31 -21 68 -49 83 -61 l26 -22 27 26 c36 34 49 21 15 -15 -24 -26 -25 -28 -9
-47 9 -11 24 -19 33 -17 19 4 45 -23 30 -32 -5 -4 -12 -2 -16 3 -3 6 -11 8
-18 5 -7 -2 -24 7 -37 21 l-24 25 -23 -22 c-29 -27 -31 -12 -2 18 l21 22 -24
16 c-153 109 -198 149 -185 162 3 3 14 0 25 -7 17 -11 27 -9 66 12 41 21 46
27 41 49 -12 47 -33 60 -96 60 -64 0 -81 11 -44 28 15 7 25 8 25 2 0 -6 20
-10 45 -10 l46 0 -16 30 c-8 16 -15 42 -15 58 0 20 -7 32 -25 42 -30 16 -31
26 -6 41 11 7 16 19 13 31 -4 15 0 17 27 12 27 -6 31 -4 31 15 0 11 6 21 14
21 8 0 28 17 46 37 l33 37 -29 23 c-28 22 -29 22 -32 3 -2 -11 -8 -20 -14 -20
-6 0 -8 11 -6 25 4 16 1 25 -8 25 -22 0 -27 21 -8 35 20 14 37 10 31 -8 -2 -6
12 -22 30 -34 33 -22 53 -23 53 -2 0 6 16 31 36 57 l36 47 -62 3 c-53 3 -64 0
-81 -20 l-21 -23 5 23 5 22 -536 0 c-310 0 -543 -4 -552 -10 -12 -7 -10 -15
13 -46 20 -29 24 -41 15 -51 -8 -10 -8 -17 0 -25 9 -9 12 -9 12 0 0 7 5 12 11
12 6 0 8 -9 4 -20 -8 -24 2 -26 27 -3 21 18 37 11 20 -10 -9 -10 -9 -16 0 -25
18 -18 1 -27 -19 -11 -12 9 -10 4 5 -16 46 -62 55 -76 47 -83 -4 -4 -12 2 -19
12 -6 10 -36 51 -66 90 -73 92 -120 162 -120 175 0 8 -388 11 -1315 11 l-1315
0 0 -1771z m4818 1719 c-4 -11 -136 -108 -186 -137 -11 -6 -10 -22 8 -87 27
-97 27 -96 51 -84 11 6 16 16 13 22 -4 7 -2 8 5 4 14 -9 204 112 196 124 -3 4
3 7 13 6 9 0 16 5 14 12 -1 8 2 11 8 7 6 -4 22 0 35 9 28 18 45 21 45 6 0 -5
-20 -21 -45 -36 -25 -14 -42 -31 -38 -36 3 -7 1 -8 -5 -4 -6 4 -49 -18 -94
-49 -46 -30 -88 -55 -95 -55 -7 0 -13 -4 -13 -9 0 -5 -9 -13 -20 -16 -39 -12
-20 -81 75 -270 25 -49 36 -61 58 -63 31 -4 37 -22 7 -22 -16 0 -19 -5 -14
-28 4 -17 -5 -64 -22 -118 -26 -86 -31 -108 -33 -146 -1 -10 -6 -18 -13 -18
-6 0 -20 -7 -30 -17 -26 -23 -33 -10 -11 23 10 15 34 77 54 138 35 105 36 112
21 143 -8 17 -25 34 -37 37 -16 4 -22 13 -22 36 0 16 4 30 8 30 4 0 -14 52
-39 115 -25 63 -50 115 -55 115 -6 0 -52 -27 -103 -60 -51 -33 -96 -56 -98
-51 -3 5 2 15 12 23 30 26 140 98 150 98 5 0 15 6 21 14 10 12 5 36 -21 118
-41 130 -43 138 -24 115 14 -18 19 -15 108 44 51 34 95 66 96 71 6 13 24 9 20
-4z m2417 -68 c3 -5 0 -8 -7 -5 -22 9 -38 -32 -53 -135 -9 -55 -18 -107 -22
-117 -12 -32 -62 -95 -103 -130 -22 -19 -40 -38 -40 -41 0 -4 23 -35 50 -69
34 -40 75 -75 120 -103 39 -22 70 -46 70 -51 0 -6 -17 0 -37 12 -21 13 -49 29
-63 37 -14 9 -60 51 -102 94 -86 89 -86 72 -2 149 76 71 82 84 110 239 8 47
22 95 30 107 15 24 38 30 49 13z m-2735 -16 c0 -11 -112 -143 -127 -148 -28
-11 -26 3 5 29 16 13 47 47 68 75 34 44 54 61 54 44z m3126 -21 c-10 -10 -19
5 -10 18 6 11 8 11 12 0 2 -7 1 -15 -2 -18z m-46 -19 c0 -16 -16 -19 -25 -4
-8 13 4 32 16 25 5 -4 9 -13 9 -21z m-3803 -26 c-3 -7 -5 -2 -5 12 0 14 2 19
5 13 2 -7 2 -19 0 -25z m2874 15 c13 -16 12 -17 -3 -4 -10 7 -18 15 -18 17 0
8 8 3 21 -13z m-3806 -24 c-6 -18 -4 -19 12 -11 23 13 39 1 76 -56 15 -23 32
-40 37 -37 6 4 10 -1 10 -10 0 -8 9 -19 21 -23 19 -7 19 -9 5 -21 -16 -14 -12
-36 5 -26 5 4 9 2 9 -3 0 -5 -18 -17 -40 -27 -50 -23 -61 -35 -53 -63 4 -19
12 -22 52 -22 26 0 63 -8 84 -19 26 -13 34 -15 26 -5 -20 24 0 29 24 6 47 -44
38 -20 -12 32 -55 59 -60 70 -35 80 11 4 28 -8 52 -36 21 -23 67 -73 105 -112
37 -38 67 -75 67 -81 0 -6 -16 -19 -35 -28 l-35 -17 -67 66 c-73 73 -112 94
-173 94 -35 0 -41 -3 -36 -17 2 -10 12 -47 22 -82 11 -41 23 -65 34 -68 9 -3
27 -25 38 -49 l22 -45 143 3 c78 2 150 7 160 12 10 5 17 4 17 -2 0 -24 -61
-34 -197 -30 -76 3 -146 8 -155 12 -13 6 -18 4 -18 -7 0 -8 -17 -27 -37 -43
-21 -15 -50 -41 -65 -57 -19 -20 -28 -24 -28 -14 0 9 25 37 55 62 30 26 55 55
55 65 0 10 -22 95 -50 191 -44 155 -54 208 -31 171 6 -10 15 -9 39 5 38 21 42
51 11 79 -12 10 -35 39 -51 62 -22 31 -35 42 -49 39 -10 -3 -25 3 -34 13 -15
17 -15 19 2 29 25 14 25 14 18 -10z m835 -34 c16 -19 0 -19 -26 0 -16 12 -16
14 -3 15 9 0 22 -7 29 -15z m1687 -8 c-2 -7 -10 -39 -17 -72 -11 -48 -15 -55
-19 -36 -7 27 18 121 32 121 5 0 7 -6 4 -13z m2136 -7 c3 -11 17 -22 33 -25
16 -4 40 -8 53 -11 l24 -5 -21 -21 c-21 -22 -21 -22 -58 -2 -20 10 -38 25 -41
32 -3 6 -11 12 -19 12 -12 0 -12 4 -2 20 16 25 24 25 31 0z m-4639 -66 c4 -10
1 -14 -6 -12 -15 5 -23 28 -10 28 5 0 13 -7 16 -16z m2500 -128 c-9 -56 -11
-93 -5 -99 6 -6 12 9 16 39 9 66 24 114 37 114 6 0 7 -8 3 -17 -7 -19 -24
-183 -25 -240 0 -18 -4 -33 -10 -33 -5 0 -10 24 -10 53 0 49 -2 54 -32 72 -18
11 -37 18 -42 17 -5 -2 -4 4 3 12 7 9 17 14 21 11 5 -3 11 3 14 12 7 24 26
133 25 141 -3 18 2 25 10 17 6 -6 4 -45 -5 -99z m-2470 78 c9 -22 -3 -32 -14
-14 -12 19 -12 30 -1 30 5 0 12 -7 15 -16z m3416 -24 c0 -5 -10 -10 -22 -9
-22 0 -22 1 -3 9 11 5 21 9 23 9 1 1 2 -3 2 -9z m-65 -20 c-3 -5 -13 -10 -21
-10 -8 0 -12 5 -9 10 3 6 13 10 21 10 8 0 12 -4 9 -10z m-2543 -32 c-6 -6 -15
-8 -19 -4 -4 4 -1 11 7 16 19 12 27 3 12 -12z m1588 -60 c0 -16 -19 -7 -39 18
-34 43 -25 65 9 24 16 -19 30 -38 30 -42z m910 63 c0 -12 -20 -25 -27 -18 -7
7 6 27 18 27 5 0 9 -4 9 -9z m-53 -48 c-9 -9 -19 -14 -23 -11 -10 10 6 28 24
28 15 0 15 -1 -1 -17z m-37 -22 c0 -5 -7 -12 -16 -15 -24 -9 -28 -7 -14 9 14
17 30 20 30 6z m1810 -21 c0 -5 -4 -10 -10 -10 -5 0 -10 5 -10 10 0 6 5 10 10
10 6 0 10 -4 10 -10z m-1865 -10 c-3 -5 -13 -10 -21 -10 -8 0 -12 5 -9 10 3 6
13 10 21 10 8 0 12 -4 9 -10z m-60 -20 c-3 -5 -13 -10 -21 -10 -8 0 -14 5 -14
10 0 6 9 10 21 10 11 0 17 -4 14 -10z m953 4 c36 -10 25 -21 -25 -26 -27 -3
-88 -22 -138 -42 -112 -45 -108 -45 -113 -23 -2 11 3 17 16 17 10 0 66 18 123
39 120 45 108 42 137 35z m-1008 -13 c0 -5 -9 -11 -20 -14 -22 -6 -28 8 -7 16
19 8 27 8 27 -2z m1960 -26 c0 -8 -4 -15 -10 -15 -5 0 -10 7 -10 15 0 8 5 15
10 15 6 0 10 -7 10 -15z m-270 -40 c-8 -9 -8 -15 -2 -15 6 0 14 5 17 10 10 17
25 11 25 -9 0 -11 -11 -28 -24 -38 -13 -10 -27 -30 -31 -43 -8 -24 -9 -24 -17
10 -6 19 -19 45 -31 57 -22 25 -17 44 7 24 12 -10 19 -9 37 8 25 23 39 20 19
-4z m-970 -14 c0 -9 -122 -54 -177 -66 -49 -10 -41 12 10 26 23 6 65 19 92 29
58 21 75 23 75 11z m1220 -1 c0 -5 -4 -10 -10 -10 -5 0 -10 5 -10 10 0 6 5 10
10 10 6 0 10 -4 10 -10z m-2095 -20 c-4 -11 -2 -20 4 -20 6 0 11 -11 11 -25 0
-20 -5 -25 -25 -25 -29 0 -32 8 -7 27 16 12 15 13 -8 11 -21 -3 -26 2 -28 25
-3 24 0 27 28 27 27 0 30 -3 25 -20z m-2493 -64 c3 -16 0 -27 -10 -31 -24 -9
-34 9 -21 38 14 30 25 28 31 -7z m350 12 c-6 -6 -16 -7 -22 -3 -9 6 -9 9 1 16
17 10 34 0 21 -13z m2348 -38 c0 -5 -7 -10 -15 -10 -8 0 -15 5 -15 10 0 6 7
10 15 10 8 0 15 -4 15 -10z m1830 -10 c0 -5 -4 -10 -10 -10 -5 0 -10 5 -10 10
0 6 5 10 10 10 6 0 10 -4 10 -10z m-50 -50 c0 -5 -2 -10 -4 -10 -3 0 -8 5 -11
10 -3 6 -1 10 4 10 6 0 11 -4 11 -10z m-1625 -68 c-8 -9 -25 20 -18 31 3 5 10
2 15 -7 6 -10 7 -20 3 -24z m1557 13 c0 -5 -5 -11 -11 -13 -6 -2 -11 4 -11 13
0 9 5 15 11 13 6 -2 11 -8 11 -13z m-3902 -56 c-17 -14 -26 -17 -28 -9 -5 14
16 30 38 30 10 -1 7 -7 -10 -21z m716 -16 c-7 -7 -26 7 -26 19 0 6 6 6 15 -2
9 -7 13 -15 11 -17z m904 6 c0 -5 -4 -9 -10 -9 -5 0 -10 7 -10 16 0 8 5 12 10
9 6 -3 10 -10 10 -16z m-1550 -34 c0 -8 -4 -15 -10 -15 -5 0 -7 -7 -4 -15 7
-16 -13 -20 -33 -7 -9 6 -11 26 -4 50 1 1 12 2 26 2 16 0 25 -6 25 -15z m2008
-181 c47 -13 18 -19 -90 -19 -134 0 -181 -8 -208 -37 l-20 -22 0 22 c0 25 28
40 95 52 51 9 193 12 223 4z m-1816 -49 c34 -14 69 -25 79 -25 25 0 69 -21 69
-33 0 -5 -8 -6 -17 -2 -10 4 -36 11 -58 15 -22 4 -62 17 -88 29 -62 27 -87 26
-175 -3 -39 -14 -74 -21 -77 -16 -7 11 131 58 173 59 18 1 60 -10 94 -24z
m258 -80 c0 -19 -16 -19 -23 -1 -3 9 -15 12 -31 9 -15 -3 -26 -1 -26 5 0 14
40 20 63 10 9 -5 17 -15 17 -23z m2344 12 c-2 -7 -21 -21 -42 -32 -22 -13 -36
-27 -34 -36 3 -20 -20 -41 -33 -31 -18 12 -50 56 -36 47 9 -5 12 -3 9 5 -8 24
-23 20 -40 -10 -9 -17 -24 -30 -32 -30 -20 0 -31 -37 -16 -55 10 -12 10 -15 0
-15 -8 0 -11 -12 -8 -35 4 -37 -6 -46 -20 -17 -19 37 -22 70 -7 86 8 8 15 26
15 40 0 23 -3 25 -30 20 -19 -4 -30 -2 -30 4 0 14 63 26 91 19 14 -4 28 1 38
13 9 10 26 21 38 25 17 5 20 2 16 -13 -4 -18 1 -17 52 9 56 28 79 30 69 6z
m-1474 -9 c0 -16 -3 -19 -11 -11 -6 6 -8 16 -5 22 11 17 16 13 16 -11z m-135
-47 c-7 -13 -135 -55 -142 -47 -9 9 -5 11 62 34 67 23 89 26 80 13z m2110 -11
c0 -8 -14 -13 -38 -14 -44 -1 -48 8 -9 22 33 12 47 10 47 -8z m-2835 0 c0 -5
-4 -10 -10 -10 -5 0 -10 5 -10 10 0 6 5 10 10 10 6 0 10 -4 10 -10z m570 -30
c0 -5 -4 -10 -10 -10 -5 0 -10 5 -10 10 0 6 5 10 10 10 6 0 10 -4 10 -10z
m-560 -51 c0 -10 -4 -19 -10 -19 -5 0 -10 12 -10 26 0 14 4 23 10 19 6 -3 10
-15 10 -26z m3301 -142 c-26 -64 -26 -67 8 -73 17 -4 31 -10 31 -13 0 -12 -62
-92 -67 -87 -3 3 4 21 16 40 22 34 22 35 2 45 -28 15 -25 17 -62 -41 -18 -29
-46 -70 -62 -91 -35 -45 -31 -71 10 -61 31 7 26 -3 -9 -20 -20 -10 -25 -8 -39
19 -16 30 -16 30 20 71 20 23 46 58 56 79 l20 36 -25 20 c-16 12 -34 17 -48
14 -18 -4 -22 -2 -20 12 3 16 -5 18 -62 19 -89 1 -93 3 -36 19 32 8 60 10 79
4 16 -5 34 -6 38 -3 5 3 9 -1 9 -8 0 -16 37 -41 50 -33 6 4 10 -1 10 -9 0 -35
21 -23 45 25 19 36 25 59 20 78 -6 25 -6 25 12 8 15 -15 16 -21 4 -50z m-2471
-69 c0 -6 -15 -6 -32 -3 -41 9 -50 14 -43 25 6 10 75 -10 75 -22z m-770 -57
c0 -13 -28 -22 -35 -11 -3 4 1 11 7 13 20 8 28 8 28 -2z m360 -43 c0 -18 -5
-40 -10 -48 -7 -11 -10 -2 -10 33 0 26 5 47 10 47 6 0 10 -15 10 -32z m-350
-8 c0 -6 -27 -10 -60 -10 -33 0 -60 4 -60 10 0 6 27 10 60 10 33 0 60 -4 60
-10z m650 -24 c0 -15 -18 -31 -26 -23 -7 7 7 37 17 37 5 0 9 -6 9 -14z m2572
-38 c-6 -6 -15 -8 -19 -4 -4 4 -1 11 7 16 19 12 27 3 12 -12z m56 -7 c3 -8 -1
-12 -9 -9 -7 2 -15 10 -17 17 -3 8 1 12 9 9 7 -2 15 -10 17 -17z m-2618 0 c0
-13 -29 -35 -37 -28 -7 8 15 37 28 37 5 0 9 -4 9 -9z m2520 -10 c0 -11 -31
-24 -39 -16 -3 3 1 10 9 15 19 12 30 12 30 1z m-1110 -9 c0 -12 -51 -34 -59
-27 -7 8 28 35 46 35 7 0 13 -4 13 -8z m-1537 -9 c-7 -2 -19 -2 -25 0 -7 3 -2
5 12 5 14 0 19 -2 13 -5z m2850 -45 c15 -20 27 -41 27 -47 0 -15 -52 -145 -60
-149 -3 -1 -4 -19 -2 -40 3 -29 -3 -46 -29 -82 -18 -24 -35 -58 -39 -75 -4
-19 -12 -28 -21 -26 -8 3 -41 7 -74 11 -52 5 -56 7 -32 14 15 5 45 6 65 2 l37
-6 -32 26 c-18 14 -33 30 -33 36 0 6 15 -1 32 -14 l33 -25 38 51 c28 37 37 59
35 81 -3 28 -5 30 -43 27 -22 -2 -93 -3 -157 -4 l-118 -1 -46 32 c-44 32 -62
35 -106 16 -11 -4 -18 -3 -18 3 0 14 39 26 74 23 17 -2 44 -14 62 -27 18 -14
38 -22 48 -18 9 3 16 1 16 -5 0 -15 148 -14 233 3 37 7 69 15 70 17 2 2 14 32
26 66 l23 62 -22 36 c-19 31 -26 35 -50 30 -20 -4 -29 -2 -34 10 -4 12 -1 15
12 11 9 -3 24 -1 32 4 8 5 17 6 20 2 4 -4 18 -24 33 -44z m-3223 32 c0 -5 -8
-14 -17 -19 -16 -9 -16 -10 5 -11 36 0 25 -18 -19 -31 -40 -12 -40 -13 -34
-51 l7 -39 -33 3 c-29 2 -35 8 -39 32 -3 17 -9 29 -15 27 -5 -1 -11 3 -14 10
-2 6 1 9 7 6 5 -4 20 9 33 28 17 24 32 35 49 35 14 0 32 5 40 10 19 12 30 13
30 0z m477 -32 c-3 -8 -6 -5 -6 6 -1 11 2 17 5 13 3 -3 4 -12 1 -19z m2683
-28 c0 -11 -4 -20 -10 -20 -5 0 -10 9 -10 20 0 11 5 20 10 20 6 0 10 -9 10
-20z m-10 -49 c0 -5 -7 -14 -15 -21 -16 -14 -18 -10 -9 14 6 17 24 22 24 7z
m-54 -43 c-10 -6 -20 -7 -24 -3 -9 8 20 25 31 18 5 -3 2 -10 -7 -15z m-46 -17
c0 -11 -31 -24 -39 -16 -3 3 1 10 9 15 19 12 30 12 30 1z m-55 -21 c-3 -5 -15
-10 -26 -10 -11 0 -17 5 -14 10 3 6 15 10 26 10 11 0 17 -4 14 -10z m-60 -10
c-3 -5 -13 -10 -21 -10 -8 0 -14 5 -14 10 0 6 9 10 21 10 11 0 17 -4 14 -10z
m-3236 -151 c17 -45 40 -92 51 -107 11 -14 17 -28 14 -31 -11 -11 -47 47 -81
131 -35 86 -39 103 -24 94 5 -4 23 -43 40 -87z m416 82 c-3 -5 -1 -12 5 -16
14 -9 2 -25 -13 -19 -9 3 -32 -32 -67 -98 -29 -57 -62 -116 -73 -131 -11 -16
-19 -40 -19 -53 0 -16 -5 -23 -13 -20 -23 9 -49 -68 -42 -126 5 -34 -2 -118
-18 -238 -31 -221 -32 -230 -46 -230 -6 0 -9 6 -6 14 3 8 9 47 13 87 l7 72
-59 -7 c-32 -4 -102 -9 -154 -13 l-96 -6 -11 -37 c-7 -20 -10 -45 -8 -56 10
-51 15 -318 5 -308 -6 6 -14 84 -18 175 l-8 164 34 115 c19 63 38 119 43 125
15 15 11 -18 -11 -87 -11 -34 -20 -64 -20 -66 0 -4 86 -1 148 5 42 4 52 9 52
24 0 11 5 19 10 19 6 0 10 -7 10 -15 0 -11 12 -15 44 -15 l44 0 13 83 c7 45
13 127 13 182 1 86 4 105 24 136 14 23 20 44 15 55 -5 13 -3 16 9 12 11 -5 27
13 57 66 22 40 41 76 41 82 0 5 14 29 30 54 16 25 30 53 30 63 0 10 8 17 21
17 11 0 18 -4 14 -9z m1195 -21 c0 -4 -13 -13 -30 -19 -30 -10 -39 -4 -20 15
12 12 50 16 50 4z m565 -30 c45 -20 132 -104 117 -114 -5 -3 -24 12 -41 34
-39 49 -96 79 -162 87 -27 3 -49 10 -49 16 0 13 86 -1 135 -23z m-658 -27 c-9
-9 -20 -13 -24 -9 -4 4 1 14 11 22 25 18 35 8 13 -13z m631 -75 c28 -37 48
-69 43 -72 -11 -7 -133 149 -124 158 8 8 14 2 81 -86z m1487 33 c52 -25 60
-27 63 -13 2 10 9 22 14 27 7 7 8 -6 3 -40 -4 -27 -7 -67 -7 -87 0 -44 -13
-50 -22 -12 -6 21 -9 24 -21 14 -8 -7 -15 -19 -15 -26 0 -8 -4 -14 -10 -14 -5
0 -7 13 -4 29 5 22 -1 36 -26 65 -32 35 -36 61 -6 37 10 -8 16 -9 21 -1 3 5 0
10 -8 10 -8 0 -22 9 -32 20 -23 26 -22 25 50 -9z m-2740 -53 c6 -13 16 -23 24
-23 8 0 27 -13 43 -28 15 -16 32 -26 37 -23 5 3 11 -4 14 -15 3 -12 10 -19 14
-16 5 3 15 -9 23 -26 8 -18 31 -48 52 -68 l39 -36 -36 -37 c-19 -21 -35 -42
-35 -47 0 -19 -25 -7 -77 37 -44 38 -56 44 -68 34 -18 -15 -20 1 -3 18 9 9 7
16 -7 32 -25 28 -107 28 -126 1 -11 -14 -22 -18 -46 -14 -31 5 -32 6 -17 28 8
13 17 44 18 69 2 25 9 53 16 61 7 8 10 21 7 29 -4 9 0 15 11 15 50 1 86 9 90
20 6 17 16 13 27 -11z m-715 -7 c0 -8 -52 -31 -71 -31 -22 0 -6 18 24 28 42
13 47 14 47 3z m230 3 c0 -3 -5 -15 -11 -26 -8 -14 -8 -23 0 -31 8 -8 11 -6
11 6 0 9 5 17 10 17 6 0 10 -11 10 -25 0 -14 -5 -25 -11 -25 -5 0 -8 -4 -4 -9
3 -5 1 -12 -4 -15 -5 -3 -11 1 -15 9 -3 8 -15 15 -26 15 -11 0 -20 5 -20 10 0
6 5 10 10 10 6 0 10 5 10 10 0 6 -9 10 -20 10 -11 0 -20 5 -20 11 0 6 7 9 15
5 9 -3 23 3 33 13 17 19 32 26 32 15z m2725 -70 c-35 -28 -177 -95 -184 -88
-3 4 -1 9 4 11 6 2 46 23 90 47 82 44 129 60 90 30z m-3255 -64 c0 -22 -4 -40
-10 -40 -5 0 -10 18 -10 40 0 22 5 40 10 40 6 0 10 -18 10 -40z m-2120 -99
c13 -40 9 -71 -9 -71 -5 0 -9 15 -9 33 0 17 -3 45 -7 61 -12 43 9 24 25 -23z
m2120 -31 c0 -11 -4 -20 -10 -20 -5 0 -10 9 -10 20 0 11 5 20 10 20 6 0 10 -9
10 -20z m516 -28 c-4 -3 -13 3 -20 14 -13 17 -12 20 2 25 12 4 18 0 20 -13 2
-11 1 -22 -2 -26z m-442 -28 c9 -3 14 -10 11 -14 -6 -10 -45 -1 -45 11 0 10
12 11 34 3z m472 -131 c-10 -10 -19 5 -10 18 6 11 8 11 12 0 2 -7 1 -15 -2
-18z m-8 -11 c8 -6 19 -82 32 -233 11 -123 22 -230 25 -236 2 -7 -5 -34 -15
-59 -26 -59 -25 -78 5 -158 28 -75 28 -76 16 -76 -5 0 -23 39 -41 87 l-31 87
20 47 c22 50 22 22 -5 394 -3 50 -13 100 -20 112 -23 37 -16 54 14 35z m382
-52 c0 -5 -9 -10 -20 -10 -11 0 -20 5 -20 10 0 6 9 10 20 10 11 0 20 -4 20
-10z m-3242 -59 c-13 -16 -28 -37 -35 -47 -12 -19 -12 -19 -12 0 -1 24 47 88
60 80 5 -3 -1 -18 -13 -33z m2402 29 c0 -5 -11 -10 -25 -10 -14 0 -25 5 -25
10 0 6 11 10 25 10 14 0 25 -4 25 -10z m1910 -45 c0 -12 -79 -44 -85 -35 -4 6
9 17 27 25 34 14 58 19 58 10z m425 -62 c3 -27 13 -58 21 -70 17 -26 17 -33 4
-33 -5 0 -16 10 -24 23 -18 28 -32 127 -18 127 5 0 13 -21 17 -47z m-1135 22
c10 -13 9 -15 -10 -15 -13 0 -64 -26 -115 -59 -50 -32 -101 -62 -113 -65 -11
-4 -35 -25 -52 -46 -17 -21 -47 -45 -66 -52 -31 -11 -35 -16 -31 -41 6 -45 -9
-40 -25 8 -15 43 -15 45 6 43 36 -2 72 19 105 61 18 23 38 41 45 41 7 0 62 31
122 70 60 38 112 69 115 70 4 0 12 -7 19 -15z m-546 -107 c11 -28 19 -36 31
-31 16 5 16 4 1 -26 -16 -31 -16 -35 39 -196 61 -182 59 -175 45 -175 -5 0
-20 35 -34 78 -13 42 -38 117 -56 165 -17 49 -29 95 -26 103 3 7 1 26 -5 42
-10 30 -36 35 -76 13 -29 -15 -29 -33 -1 -46 21 -10 45 -55 28 -55 -5 0 -12 9
-15 20 -7 21 -25 28 -25 10 0 -5 -4 -10 -10 -10 -5 0 -10 7 -10 15 0 9 -6 12
-15 9 -8 -4 -15 -1 -15 5 0 6 5 11 10 11 13 0 13 41 0 74 -6 17 -6 26 0 26 6
0 10 -4 10 -9 0 -5 14 -9 30 -9 25 1 30 5 30 26 0 25 0 25 16 6 12 -15 14 -15
11 -2 -8 23 6 33 15 11 4 -10 14 -35 22 -55z m944 10 c-2 -6 -38 -19 -79 -28
-41 -9 -88 -24 -106 -33 -41 -22 -147 -153 -137 -170 4 -6 4 -9 -1 -5 -4 4
-34 -11 -66 -33 -65 -44 -89 -55 -89 -43 0 5 26 26 58 48 37 24 80 68 122 124
72 95 102 114 218 137 87 17 84 17 80 3z m-3558 -43 c-7 -9 -15 -13 -18 -10
-3 2 1 11 8 20 7 9 15 13 18 10 3 -2 -1 -11 -8 -20z m4390 16 c0 -6 -4 -13
-10 -16 -5 -3 -10 1 -10 9 0 9 5 16 10 16 6 0 10 -4 10 -9z m46 -38 c-11 -11
-17 4 -9 23 7 18 8 18 11 1 2 -10 1 -21 -2 -24z m-2266 -12 c0 -14 -5 -18 -19
-14 -17 4 -20 -3 -26 -83 -9 -101 -1 -262 13 -276 7 -7 39 -4 91 7 65 15 81
21 81 36 0 23 21 16 39 -13 12 -19 11 -23 -5 -35 -23 -17 -34 -17 -34 1 0 11
-14 10 -77 -6 -43 -11 -80 -21 -81 -23 -8 -8 38 -94 68 -128 18 -21 29 -41 25
-45 -9 -9 -83 75 -91 103 -16 60 -26 67 -76 61 -27 -4 -55 -9 -63 -12 -8 -4
-15 -1 -15 4 0 6 27 16 60 23 65 13 64 10 41 89 -7 26 3 253 13 295 5 20 18
29 49 34 4 0 7 -8 7 -18z m-2367 -44 c10 -39 4 -38 82 -22 14 3 25 1 25 -4 0
-6 -17 -13 -37 -17 -21 -3 -53 -17 -71 -31 -17 -13 -36 -21 -42 -18 -14 9 -34
-35 -22 -47 15 -15 63 -13 73 3 7 11 11 11 21 1 9 -9 9 -17 3 -28 -13 -19
-114 -55 -137 -48 -19 6 -25 -11 -8 -21 6 -4 8 -10 6 -14 -3 -4 -1 -13 4 -21
7 -11 14 -12 34 -2 31 14 56 6 57 -17 0 -9 2 -31 5 -49 3 -23 -1 -34 -11 -38
-8 -4 -15 -17 -15 -30 0 -13 -5 -24 -11 -24 -6 0 -22 -13 -35 -30 -14 -16 -43
-35 -64 -41 -32 -10 -42 -19 -51 -46 -13 -42 -6 -63 19 -56 14 3 21 -2 25 -17
4 -17 2 -20 -11 -15 -24 10 -75 10 -90 1 -19 -12 -14 14 7 32 10 10 24 33 30
52 10 29 9 37 -4 46 -21 16 -19 27 4 19 15 -5 22 1 31 30 6 19 16 35 22 35 6
0 8 -6 5 -14 -3 -8 0 -22 8 -33 13 -17 15 -17 40 7 24 23 85 128 85 147 0 4
-4 14 -9 21 -7 12 -14 11 -39 -2 -31 -16 -32 -16 -47 14 -9 16 -20 30 -24 30
-16 0 -24 60 -11 75 7 9 10 28 6 45 -5 26 -3 30 17 30 13 0 35 6 50 13 26 11
27 15 21 61 -4 36 -3 51 7 57 25 16 43 4 52 -34z m-423 -26 c-1 -13 -3 -13
-15 3 -19 26 -19 42 0 26 8 -7 15 -20 15 -29z m10 -52 c0 -11 -4 -17 -10 -14
-5 3 -10 15 -10 26 0 11 5 17 10 14 6 -3 10 -15 10 -26z m519 -23 c-20 -19
-39 -47 -42 -62 -3 -16 -8 -38 -12 -50 -4 -13 -1 -27 8 -35 16 -17 11 -39 -10
-39 -9 0 -13 6 -9 15 3 8 1 15 -5 15 -7 0 -9 12 -5 33 4 17 10 49 13 69 3 24
12 39 23 43 9 3 25 14 35 25 10 11 23 20 29 20 6 0 -5 -16 -25 -34z m3861 -18
c0 -41 -29 -138 -42 -138 -5 0 -8 7 -5 14 4 10 1 13 -9 9 -7 -3 -14 -11 -14
-19 0 -17 -16 -19 -25 -3 -5 7 -14 4 -26 -7 -10 -9 -19 -12 -19 -7 0 6 7 16
15 23 9 7 13 21 10 31 -4 11 -2 19 4 19 6 0 11 -4 11 -10 0 -18 27 -10 55 15
17 16 25 32 22 43 -19 58 -19 58 2 59 17 1 21 -4 21 -29z m-3031 -31 c6 -14
80 -57 98 -57 9 0 25 7 35 17 10 9 18 11 18 5 0 -14 -28 -42 -43 -42 -8 0 -7
-4 1 -12 19 -19 14 -33 -6 -15 -16 14 -19 14 -41 -3 -22 -16 -28 -17 -64 -4
-22 8 -41 14 -43 14 -14 0 -64 -62 -73 -92 -20 -60 -59 -65 -108 -12 -37 41
-38 44 -20 44 7 0 23 -13 35 -30 13 -16 29 -30 36 -30 18 0 43 30 51 62 6 23
2 30 -29 50 -40 26 -40 27 8 102 l35 55 53 -22 c29 -12 55 -26 57 -30z m2735
44 c7 -10 -17 -21 -42 -21 -15 1 -14 3 2 15 23 17 33 19 40 6z m926 0 c0 -11
-31 -24 -39 -16 -3 3 1 10 9 15 19 12 30 12 30 1z m54 0 c3 -4 3 -11 0 -14 -8
-8 -34 3 -34 14 0 11 27 12 34 0z m-4998 -22 c24 -6 44 -15 44 -20 0 -28 -25
-61 -70 -88 -58 -36 -69 -54 -46 -80 9 -10 16 -22 16 -28 0 -5 9 -18 20 -28
11 -10 20 -25 20 -33 0 -12 -6 -10 -25 8 -14 13 -25 30 -25 39 0 8 -12 27 -26
42 l-26 28 28 26 c15 14 45 36 66 47 50 28 53 63 6 73 -21 5 -33 4 -36 -4 -7
-21 -22 -11 -22 15 0 20 4 25 16 20 9 -4 36 -11 60 -17z m3932 -13 c4 -35 -14
-26 -20 9 -4 16 -1 24 6 22 6 -2 12 -16 14 -31z m1050 5 c20 -12 -13 -23 -46
-14 l-27 7 25 7 c34 10 33 10 48 0z m-2161 -26 c13 -29 -1 -34 -17 -6 -12 23
-13 31 -2 31 4 0 12 -11 19 -25z m2351 -195 c22 -52 43 -106 47 -119 4 -14 17
-33 29 -43 19 -15 19 -17 3 -18 -9 0 -26 -5 -37 -12 -23 -15 -38 -4 -21 16 9
11 8 14 -5 12 -9 0 -19 5 -21 12 -3 7 4 12 16 12 12 0 21 5 21 10 0 6 -20 59
-45 118 -25 58 -45 111 -45 116 0 23 21 -15 58 -104z m-4688 90 c0 -13 -11
-13 -30 0 -12 8 -11 10 8 10 12 0 22 -4 22 -10z m2980 -6 c0 -8 -5 -12 -10 -9
-6 4 -8 11 -5 16 9 14 15 11 15 -7z m-2941 -30 c3 -16 1 -17 -13 -5 -19 16
-21 34 -3 29 6 -3 14 -13 16 -24z m-144 -5 c-13 -20 7 -30 30 -15 14 9 26 12
30 6 5 -9 -44 -40 -63 -40 -12 0 -25 47 -17 61 4 5 11 7 16 3 5 -3 7 -10 4
-15z m-1577 -35 c35 -42 130 -82 145 -61 5 9 11 8 20 -4 36 -47 295 -57 597
-23 69 7 130 14 137 14 6 0 15 9 18 20 8 25 25 26 25 2 0 -29 -35 -39 -195
-55 -202 -21 -454 -22 -524 -3 l-53 15 7 -32 c16 -73 17 -82 9 -74 -5 5 -16
29 -24 54 -16 46 -41 67 -92 78 -30 6 -92 56 -109 86 -17 32 8 21 39 -17z
m1072 11 c-7 -8 -17 -12 -22 -9 -5 3 -1 12 9 19 22 17 30 11 13 -10z m627 -51
c-4 -17 -6 -17 -12 4 -4 12 -12 22 -19 21 -27 -3 -47 2 -41 11 3 5 12 7 20 3
9 -3 15 1 15 8 0 9 7 6 21 -8 12 -12 19 -28 16 -39z m46 36 c-3 -11 -9 -20
-14 -20 -11 0 -11 3 -3 24 9 23 23 20 17 -4z m-1983 0 c0 -5 -9 -10 -21 -10
-11 0 -17 5 -14 10 3 6 13 10 21 10 8 0 14 -4 14 -10z m55 0 c3 -5 -3 -10 -14
-10 -12 0 -21 5 -21 10 0 6 6 10 14 10 8 0 18 -4 21 -10z m-121 -20 c-10 -4
-23 -5 -28 -2 -5 3 -1 9 10 12 10 4 23 5 28 2 5 -3 1 -9 -10 -12z m1326 -1
c-7 -11 -14 -18 -17 -15 -8 8 5 36 17 36 7 0 7 -6 0 -21z m546 -36 c-11 -11
-19 6 -11 24 8 17 8 17 12 0 3 -10 2 -21 -1 -24z m64 25 c0 -19 -18 -43 -25
-36 -9 9 4 48 16 48 5 0 9 -6 9 -12z m36 -23 c-15 -11 -14 -14 6 -29 l23 -17
-22 6 c-14 4 -23 2 -23 -5 0 -19 -24 -37 -42 -32 -11 3 -18 14 -18 29 0 13 4
21 10 18 6 -3 10 -13 10 -21 0 -8 5 -14 10 -14 6 0 10 9 10 21 0 13 4 18 12
13 8 -5 9 -2 5 11 -8 20 10 48 26 38 6 -4 4 -11 -7 -18z m62 -11 c0 -32 -2
-35 -15 -21 -12 11 -13 19 -4 36 16 29 19 27 19 -15z m-735 9 c-7 -2 -21 -2
-30 0 -10 3 -4 5 12 5 17 0 24 -2 18 -5z m3902 -3 c-3 -5 -19 -10 -34 -10 -15
0 -61 -9 -102 -20 -87 -23 -108 -25 -92 -9 27 27 243 64 228 39z m-835 -14 c0
-3 -4 -8 -10 -11 -5 -3 -10 -1 -10 4 0 6 5 11 10 11 6 0 10 -2 10 -4z m-2486
-22 c4 -10 1 -14 -6 -12 -15 5 -23 28 -10 28 5 0 13 -7 16 -16z m-59 -42 c-8
-9 -25 20 -18 31 3 5 10 2 15 -7 6 -10 7 -20 3 -24z m261 -19 c14 -10 13 -15
-3 -39 -14 -22 -19 -24 -21 -12 -2 9 -13 18 -24 20 -12 2 -23 9 -26 16 -3 10
2 10 22 1 26 -12 50 -4 30 9 -6 4 -10 18 -8 32 4 36 6 38 11 10 2 -14 11 -30
19 -37z m1980 37 c0 -12 -7 -20 -18 -20 -9 0 -20 -4 -23 -10 -3 -5 -11 -10
-17 -10 -7 0 -6 5 2 15 6 8 9 18 6 24 -4 5 4 12 16 14 13 2 25 5 28 6 3 0 6
-8 6 -19z m-2036 -22 c0 -6 -7 -5 -15 2 -8 7 -15 17 -15 22 0 6 7 5 15 -2 8
-7 15 -17 15 -22z m-34 -15 c-8 -8 -36 5 -36 17 0 7 6 7 21 0 11 -7 18 -14 15
-17z m3919 17 c-3 -5 -18 -10 -33 -10 -15 0 -52 -7 -82 -15 -63 -17 -80 -18
-80 -7 0 11 114 39 163 41 23 1 36 -3 32 -9z m-4045 -20 c12 -8 11 -10 -7 -10
-13 0 -23 5 -23 10 0 13 11 13 30 0z m4123 3 c-7 -2 -19 -2 -25 0 -7 3 -2 5
12 5 14 0 19 -2 13 -5z m-4011 -37 c11 -17 2 -19 -39 -6 -58 19 -65 32 -13 24
25 -4 48 -12 52 -18z m1988 -34 l25 -51 45 26 c25 14 52 32 61 39 23 20 45 19
29 -1 -7 -8 -9 -22 -6 -32 4 -9 1 -20 -6 -25 -18 -11 -50 -10 -43 2 9 14 -5
12 -43 -8 -29 -16 -31 -20 -19 -36 11 -16 17 -17 36 -6 31 16 39 4 11 -18 -22
-18 -22 -19 -5 -45 9 -15 21 -27 25 -27 5 0 30 -27 57 -60 45 -56 50 -59 81
-54 29 6 32 4 32 -18 0 -16 22 -45 70 -92 39 -38 70 -74 70 -79 0 -17 -155
136 -158 156 -2 12 -9 16 -19 13 -8 -3 -19 -6 -24 -6 -15 0 -10 -15 11 -38 21
-22 27 -62 9 -62 -5 0 -20 23 -31 50 -22 53 -44 62 -41 16 2 -36 -34 -36 -47
-1 -8 22 -13 24 -30 15 -16 -8 -20 -8 -20 3 0 17 35 32 88 36 8 1 5 11 -10 31
-25 34 -42 40 -33 10 6 -17 2 -20 -30 -20 l-36 0 4 -53 c2 -31 15 -75 31 -106
25 -51 28 -70 8 -58 -13 9 -64 145 -59 159 2 7 -1 20 -9 28 -11 13 -74 195
-74 214 0 18 18 2 26 -23 9 -27 10 -28 35 -12 l26 16 -43 88 c-24 49 -38 87
-32 85 7 -3 24 -28 38 -56z m640 48 c0 -5 -12 -10 -26 -10 -14 0 -23 4 -19 10
3 6 15 10 26 10 10 0 19 -4 19 -10z m473 -11 c-8 -29 -17 -30 -29 -4 -10 20
-8 23 11 23 17 0 21 -5 18 -19z m1287 -10 c0 -11 -4 -17 -10 -14 -5 3 -10 15
-10 26 0 11 5 17 10 14 6 -3 10 -15 10 -26z m-4334 -3 c22 -17 11 -35 -13 -20
-19 12 -29 34 -16 34 5 0 18 -6 29 -14z m-268 -41 c7 -7 -10 -65 -19 -65 -5 0
-7 12 -3 28 3 16 2 22 -3 15 -9 -13 -20 -8 -43 21 -14 18 -13 19 25 12 22 -4
42 -9 43 -11z m4942 5 c0 -5 -8 -10 -17 -10 -15 0 -16 2 -3 10 19 12 20 12 20
0z m-1600 -19 c0 -5 -7 -14 -15 -21 -16 -14 -18 -10 -9 14 6 17 24 22 24 7z
m-105 -19 c-3 -7 -8 -25 -11 -38 -8 -31 -24 -21 -24 15 0 32 4 38 25 38 10 0
14 -6 10 -15z m-185 -17 c0 -8 -4 -17 -10 -20 -6 -4 -10 5 -10 20 0 15 4 24
10 20 6 -3 10 -12 10 -20z m-3125 -5 c5 -8 11 -7 21 1 12 9 14 6 14 -20 0 -17
-4 -31 -10 -31 -5 0 -10 6 -10 14 0 7 -9 16 -20 19 -11 3 -20 10 -20 16 0 14
17 14 25 1z m3405 -20 c0 -11 -4 -20 -10 -20 -5 0 -10 9 -10 20 0 11 5 20 10
20 6 0 10 -9 10 -20z m-3672 -40 c-5 -47 -3 -51 19 -56 22 -6 23 -8 10 -28
-22 -32 -59 -272 -52 -327 5 -35 2 -56 -10 -80 -23 -43 -31 -183 -16 -246 33
-133 41 -151 61 -146 30 8 24 -1 -25 -36 -52 -37 -101 -131 -62 -115 8 3 20
-2 27 -11 12 -14 10 -15 -15 -9 -20 5 -26 4 -21 -5 4 -6 11 -9 16 -6 5 3 16
-7 24 -23 8 -16 25 -32 37 -35 16 -4 20 -11 16 -27 -3 -14 1 -24 15 -31 14 -8
17 -14 8 -23 -5 -8 -8 -21 -4 -30 3 -9 2 -16 -4 -16 -15 0 -22 26 -9 39 8 8 7
11 -6 11 -16 0 -21 15 -18 51 1 10 -6 15 -20 14 -22 -2 -41 -25 -38 -47 3 -24
-1 -38 -11 -38 -5 0 -10 6 -10 14 0 8 -6 17 -12 20 -10 5 -10 7 0 12 7 3 20
20 28 37 16 30 16 31 -10 50 -14 10 -26 28 -26 40 0 41 28 101 56 123 l28 23
-28 101 c-25 87 -28 113 -24 188 3 53 12 100 22 120 12 23 15 45 11 80 -7 47
28 290 46 323 7 13 3 18 -18 24 -19 4 -23 9 -14 18 16 16 14 67 -3 67 -8 0
-18 -4 -21 -10 -3 -5 -11 -10 -17 -10 -15 0 12 31 37 40 35 15 38 11 33 -40z
m3067 21 c9 -18 11 -32 5 -36 -11 -7 -42 49 -33 59 10 9 11 8 28 -23z m1709
10 c6 -10 -33 -23 -46 -15 -4 3 -8 9 -8 15 0 12 47 12 54 0z m566 -20 c-12
-23 -30 -36 -30 -22 0 21 13 41 26 41 11 0 12 -4 4 -19z m-2010 -1 c0 -5 -15
-12 -32 -15 -111 -19 -214 -33 -217 -29 -11 10 16 18 111 34 127 22 138 22
138 10z m941 -10 c6 0 7 -5 4 -11 -4 -5 -12 -8 -18 -6 -7 2 -20 -9 -30 -25 -9
-16 -28 -33 -42 -38 -40 -15 -125 -24 -125 -12 0 5 26 13 57 17 45 5 63 13 85
37 15 17 28 35 28 40 0 6 7 7 16 4 9 -3 20 -6 25 -6z m-745 -67 c-14 -15 -21
6 -12 37 l10 35 4 -33 c2 -19 1 -36 -2 -39z m2011 61 c-3 -3 -12 -4 -19 -1 -8
3 -5 6 6 6 11 1 17 -2 13 -5z m-5207 -13 c0 -4 -15 -11 -32 -14 -18 -3 -41 -8
-50 -12 -10 -4 -18 -3 -18 2 0 11 47 30 78 32 12 1 22 -3 22 -8z m2565 -23
c-9 -42 -13 -48 -31 -48 -9 0 -14 -11 -14 -35 0 -19 -4 -35 -10 -35 -13 0 -13
100 0 120 8 12 10 11 10 -7 0 -33 20 -28 27 7 3 17 10 30 15 30 6 0 7 -14 3
-32z m445 0 c0 -31 -11 -68 -19 -68 -6 0 -6 65 -2 88 1 1 6 2 11 2 6 0 10 -10
10 -22z m2732 5 c10 -9 18 -22 18 -30 0 -7 11 -13 25 -13 35 0 31 -16 -6 -24
l-31 -6 4 -61 c2 -38 -1 -63 -8 -66 -7 -2 -10 21 -9 67 0 51 -3 70 -12 70 -7
0 -13 7 -13 15 0 18 30 20 31 3 0 -10 2 -10 6 0 3 7 -5 24 -18 38 -25 27 -16
33 13 7z m-3148 -35 c-8 -27 -12 -33 -19 -27 -7 8 7 49 17 49 5 0 6 -10 2 -22z
m1005 -14 c-28 -16 -39 -17 -39 -6 0 12 43 31 54 24 5 -3 -2 -11 -15 -18z
m-439 -39 l0 -55 -35 0 c-19 0 -35 5 -35 10 0 6 5 10 12 10 9 0 9 3 1 11 -16
16 -5 39 19 39 11 0 22 8 25 20 9 34 13 23 13 -35z m437 -112 l-14 -93 29 0
c15 0 28 -4 28 -9 0 -15 -62 -19 -88 -5 -23 12 -23 13 -4 23 16 8 22 29 31
108 7 54 15 105 19 113 13 31 12 -48 -1 -137z m2091 129 c2 -7 -2 -10 -12 -6
-9 3 -16 11 -16 16 0 13 23 5 28 -10z m-2324 -104 c19 2 37 -1 40 -7 4 -6 16
-11 27 -11 21 0 27 -19 7 -21 -10 0 -10 -2 0 -6 27 -11 11 -25 -22 -19 -42 8
-69 -2 -61 -22 13 -35 85 -315 85 -333 0 -11 -7 -19 -16 -19 -11 0 -14 5 -10
16 6 15 -35 191 -73 309 -17 55 -22 61 -57 72 -41 12 -38 16 9 13 l28 -2 -30
60 c-38 74 -28 92 11 19 27 -50 31 -53 62 -49z m2362 44 c-9 -8 -26 10 -26 26
1 15 2 15 15 -2 8 -11 13 -21 11 -24z m-2653 -30 c-4 -28 -9 -40 -15 -34 -6 6
-7 28 -3 52 9 55 26 38 18 -18z m-4679 2 c9 -22 -3 -32 -14 -14 -12 19 -12 30
-1 30 5 0 12 -7 15 -16z m5440 0 c23 -9 20 -23 -4 -17 -11 3 -20 9 -20 14 0
11 3 11 24 3z m-2764 -11 c0 -16 -25 -73 -32 -73 -11 0 -10 8 4 47 11 29 28
45 28 26z m1913 -28 c-5 -13 -23 -22 -23 -11 0 15 14 35 21 31 4 -3 6 -12 2
-20z m-4563 -31 c0 -8 -4 -14 -10 -14 -5 0 -10 9 -10 21 0 11 5 17 10 14 6 -3
10 -13 10 -21z m4463 10 c36 -11 15 -21 -24 -13 -23 6 -46 8 -52 6 -15 -5 56
-44 102 -57 43 -11 64 -30 34 -30 -10 0 -45 11 -77 25 -33 13 -63 22 -67 19
-13 -8 -21 16 -14 43 5 23 9 24 43 18 20 -3 45 -8 55 -11z m-1119 -26 c19 -37
20 -60 5 -75 -9 -9 -6 -13 14 -18 16 -4 30 -18 38 -38 6 -18 17 -45 24 -62 30
-76 34 -96 21 -101 -10 -4 -11 -15 -5 -45 5 -22 6 -51 3 -64 -12 -47 -20 -25
-19 53 1 42 -1 91 -3 109 l-4 31 -34 -19 c-26 -14 -34 -15 -34 -5 0 8 9 16 20
19 29 7 35 34 17 72 -13 28 -22 34 -54 37 -27 2 -39 8 -41 21 -3 12 3 17 22
17 16 0 26 6 26 15 0 12 -16 15 -83 15 -71 0 -87 -3 -102 -20 -16 -18 -20 -19
-35 -5 -9 8 -31 20 -48 26 -18 6 -32 15 -32 20 0 12 -3 12 57 -11 44 -16 52
-17 57 -5 4 12 25 15 91 15 l85 0 -6 25 c-9 35 1 31 20 -7z m3732 -15 c-8 -9
-46 18 -40 28 4 6 13 4 25 -7 11 -9 17 -19 15 -21z m263 20 c6 -10 11 -14 11
-10 0 5 7 1 16 -7 8 -9 20 -14 25 -11 5 4 9 -1 9 -9 0 -25 -18 -28 -31 -5 -6
12 -14 17 -18 11 -3 -5 -17 2 -32 19 -23 25 -24 29 -8 29 10 0 23 -8 28 -17z
m-7307 -26 c-7 -8 -9 -17 -5 -20 3 -4 1 -7 -5 -7 -21 0 -25 23 -7 36 22 16 33
10 17 -9z m-202 3 c0 -5 -10 -10 -22 -10 -19 0 -20 2 -8 10 19 13 30 13 30 0z
m7474 1 c3 -5 -3 -11 -14 -14 -13 -3 -20 0 -20 9 0 15 26 19 34 5z m102 -68
c-10 -10 -19 5 -10 18 6 11 8 11 12 0 2 -7 1 -15 -2 -18z m-7341 6 c4 -6 14
-8 22 -5 9 4 13 1 11 -6 -3 -7 -16 -14 -30 -16 -19 -2 -27 2 -31 17 -5 22 16
30 28 10z m2965 -4 c0 -9 -9 -15 -22 -15 -22 1 -23 1 -4 15 25 19 26 19 26 0z
m2778 -20 c0 -14 -6 -25 -14 -25 -7 0 -17 -8 -23 -17 -5 -10 -13 -15 -16 -11
-8 8 32 78 45 78 4 0 8 -11 8 -25z m139 -13 l-7 -38 77 -39 c47 -24 71 -41 60
-43 -9 -2 -42 11 -73 28 -30 18 -57 30 -60 28 -2 -3 -5 -66 -7 -140 -1 -75 -5
-134 -9 -131 -5 2 -8 44 -8 93 l0 89 -47 3 c-44 3 -48 5 -57 36 -10 35 7 112
24 112 13 0 13 -1 -4 -41 -10 -24 -11 -40 -4 -61 9 -24 15 -28 49 -28 l39 0 0
44 c0 41 -2 45 -30 51 -16 4 -30 11 -30 17 0 10 17 8 53 -7 14 -6 17 -2 17 29
0 20 5 36 11 36 8 0 10 -13 6 -38z m-3391 -27 c-9 -20 -20 -34 -26 -30 -6 4
-2 22 12 48 25 49 36 35 14 -18z m4953 42 c15 -18 6 -25 -24 -19 -27 5 -33 17
-12 25 20 9 24 8 36 -6z m-6683 -19 c4 -13 10 -25 15 -28 4 -3 11 -18 14 -33
6 -24 3 -29 -26 -41 -55 -22 -79 -28 -79 -18 0 5 18 14 41 21 44 13 58 33 39
56 -12 14 -15 14 -30 0 -19 -17 -30 -19 -30 -6 0 5 9 13 21 16 16 5 19 12 15
31 -8 30 10 32 20 2z m6734 -40 c0 -5 -9 -4 -20 2 -11 6 -18 15 -14 21 6 11
34 -7 34 -23z m-5145 -68 c-4 -7 -21 -10 -39 -8 -28 3 -32 1 -28 -17 3 -17 60
-65 77 -65 3 0 8 18 11 40 5 32 9 38 20 29 8 -6 21 -9 29 -5 9 3 15 0 15 -9 0
-8 -5 -15 -11 -15 -8 0 -7 -5 2 -16 14 -17 55 -12 78 11 11 11 10 15 -8 24
-11 7 -21 16 -21 22 0 6 7 6 19 -1 14 -7 21 -6 24 3 3 8 10 6 25 -8 11 -11 30
-28 42 -39 17 -13 19 -20 10 -26 -7 -4 -10 -12 -6 -18 3 -5 0 -24 -7 -42 -12
-28 -15 -29 -27 -15 -39 47 -86 37 -75 -17 4 -17 2 -28 -4 -28 -6 0 -11 7 -11
15 0 8 -3 15 -8 15 -4 0 -12 10 -17 23 -13 29 -64 36 -82 11 -7 -10 -13 -30
-13 -46 0 -37 -9 -35 -42 9 -28 36 -38 83 -18 83 6 0 10 -10 10 -23 0 -13 6
-31 13 -41 13 -17 15 -16 27 14 13 30 12 34 -11 51 -13 10 -29 17 -36 14 -7
-2 -15 5 -18 16 -5 14 -12 18 -23 14 -19 -8 -26 -9 -64 -7 -16 1 -28 7 -28 13
0 8 12 10 33 6 18 -3 43 0 56 7 22 12 22 12 -19 50 -23 21 -39 40 -36 43 3 4
15 -2 26 -12 20 -18 21 -18 14 0 -6 15 -4 17 13 13 12 -3 27 -2 34 3 18 11 85
-53 74 -71z m-1665 61 c0 -5 -9 -11 -19 -14 -14 -3 -18 -1 -14 9 6 15 33 19
33 5z m3985 -86 c50 -31 253 -196 258 -209 3 -8 37 -35 76 -60 83 -55 87 -61
67 -82 -16 -15 -21 -30 -16 -49 1 -5 4 -23 6 -40 3 -23 1 -26 -8 -17 -18 18
-24 15 -48 -23 -12 -19 -32 -38 -45 -41 -14 -3 -27 -15 -30 -25 -4 -10 -11
-19 -16 -19 -6 0 -7 9 -4 21 4 12 1 27 -8 37 -9 9 -23 35 -32 58 -10 26 -25
44 -43 51 l-27 11 28 1 c16 1 35 8 43 16 9 8 33 15 56 15 l41 0 -6 46 c-5 52
-25 76 -131 163 -127 104 -151 122 -174 131 -35 15 -102 72 -96 82 3 5 22 -4
42 -20 20 -15 51 -36 67 -47z m-769 -6 c15 -38 32 -72 36 -75 16 -10 58 6 58
21 0 9 -6 12 -15 9 -22 -9 -18 5 8 27 29 24 41 24 34 -1 -3 -13 0 -20 9 -20
34 0 10 -30 -36 -45 -66 -22 -64 -37 3 -19 64 17 80 17 75 2 -3 -7 -18 -13
-34 -14 -17 -1 -40 -5 -52 -8 -21 -7 -21 -9 -7 -37 9 -16 19 -29 24 -29 21 0
20 -31 -1 -39 l-22 -8 27 -27 c15 -15 25 -31 22 -36 -10 -16 18 -60 38 -60 10
0 21 -9 24 -20 3 -11 9 -20 14 -20 5 0 9 -12 9 -27 0 -42 46 -111 149 -228 67
-75 100 -105 116 -105 16 0 28 -10 38 -32 19 -39 85 -105 110 -110 10 -1 17
-7 15 -13 -4 -17 -30 -5 -80 37 -27 22 -48 48 -48 57 0 21 -19 41 -40 41 -17
0 -106 89 -182 180 -47 57 -98 143 -98 166 0 8 -9 19 -21 26 -23 14 -72 102
-62 112 4 3 2 6 -3 6 -18 0 -56 79 -49 101 4 12 1 27 -8 37 -12 14 -97 204
-97 218 0 2 4 4 9 4 5 0 22 -32 37 -71z m-2679 49 c20 -32 29 -80 25 -133 -3
-42 -1 -60 9 -67 11 -7 11 -11 2 -15 -8 -3 -13 -23 -13 -49 0 -24 -4 -44 -10
-44 -5 0 -10 6 -10 14 0 8 -6 17 -12 19 -9 4 -9 8 -3 14 14 11 18 43 5 43 -5
0 -10 7 -10 15 0 8 5 15 10 15 16 0 12 94 -5 116 -8 10 -15 34 -15 52 0 33 12
42 27 20z m3246 6 c8 -8 -3 -34 -14 -34 -5 0 -9 9 -9 20 0 19 11 26 23 14z
m636 -41 c1 -22 -16 -14 -22 9 -8 28 4 47 14 22 4 -10 8 -25 8 -31z m1112 -29
c73 -27 150 -65 193 -93 77 -52 108 -67 291 -134 160 -59 263 -89 276 -81 6 3
18 -1 27 -9 9 -7 59 -31 109 -51 144 -57 172 -66 178 -55 4 5 11 7 16 3 5 -3
7 -9 4 -13 -2 -5 33 -23 79 -42 68 -27 87 -40 102 -66 9 -18 20 -33 23 -33 3
0 7 -18 8 -40 3 -53 -10 -51 -24 3 -7 23 -21 54 -32 68 -23 29 -150 83 -174
73 -11 -4 -17 -1 -17 7 0 8 -31 25 -74 40 -41 14 -73 22 -70 17 3 -4 1 -8 -5
-8 -5 0 -14 8 -19 17 -9 15 -13 14 -43 -12 -19 -15 -33 -32 -31 -37 1 -5 -2
-7 -8 -3 -5 3 -10 15 -10 26 0 12 5 17 10 14 6 -4 18 -1 26 6 12 10 12 14 2
20 -10 7 -10 9 2 9 13 0 13 1 0 10 -21 14 -30 12 -30 -5 0 -21 -8 -19 -33 9
-15 17 -59 36 -137 60 -192 59 -366 131 -448 184 -42 28 -131 72 -197 97 -112
43 -155 65 -128 65 7 0 67 -21 134 -46z m629 17 c0 -10 -70 -21 -84 -13 -5 3
-1 9 10 13 27 11 74 11 74 0z m-3690 -17 c0 -11 6 -14 20 -9 11 4 20 2 20 -4
0 -6 -7 -11 -16 -11 -12 0 -15 -6 -10 -25 4 -14 2 -25 -4 -25 -5 0 -10 7 -10
16 0 11 -6 15 -20 11 -27 -7 -36 10 -10 18 16 5 18 10 10 26 -8 15 -7 19 5 19
8 0 15 -7 15 -16z m-2636 -29 c9 -14 23 -36 32 -50 10 -15 12 -25 5 -25 -11 0
-71 77 -71 92 0 16 18 8 34 -17z m916 -118 c0 -1 -20 -22 -45 -46 -25 -24 -45
-38 -45 -31 0 14 66 80 81 80 5 0 9 -1 9 -3z m1730 -67 c0 -5 -20 -10 -45 -10
-25 0 -45 5 -45 10 0 6 20 10 45 10 25 0 45 -4 45 -10z m1933 -21 c-4 -13 -9
-17 -15 -11 -11 11 -3 32 12 32 4 0 6 -9 3 -21z m-1881 -112 c2 -68 -1 -106
-7 -104 -6 2 -11 54 -13 118 -2 75 0 111 6 104 6 -5 12 -58 14 -118z m-2627
72 c16 -30 16 -31 -4 -24 -12 4 -21 2 -21 -4 0 -6 5 -11 11 -11 5 0 7 -5 4
-10 -10 -16 -35 8 -35 34 0 18 16 46 27 46 1 0 10 -14 18 -31z m4715 17 c0 -2
-3 -11 -6 -20 -5 -12 -9 -13 -24 -4 -10 7 -16 16 -14 20 5 8 44 11 44 4z
m-4880 -98 c0 -34 -13 -29 -25 10 -5 16 -2 22 9 22 11 0 16 -10 16 -32z m4844
-81 c36 -27 69 -47 74 -45 18 7 79 84 91 116 8 17 17 32 22 32 5 0 4 -12 -1
-26 -14 -37 -14 -37 30 -31 35 4 39 3 29 -9 -6 -8 -27 -14 -45 -14 -32 0 -34
-2 -34 -36 0 -31 3 -35 18 -28 21 9 119 18 111 10 -3 -3 -30 -10 -59 -16 -29
-6 -55 -12 -57 -14 -3 -2 3 -18 11 -35 19 -36 54 -56 114 -66 47 -8 49 -11 26
-43 -20 -29 -30 -28 -49 8 -18 35 -36 39 -32 8 1 -15 -3 -23 -13 -23 -10 0
-15 10 -15 30 0 20 -5 30 -15 30 -15 0 -16 -8 -4 -75 l6 -35 48 3 c27 2 54 10
61 18 17 21 31 17 19 -6 -6 -11 -17 -20 -25 -20 -12 0 -11 -7 5 -32 11 -18 20
-39 20 -46 0 -19 -50 -62 -72 -62 -14 0 -18 -5 -13 -19 3 -11 -3 -27 -16 -42
-20 -23 -21 -18 -3 25 3 8 -7 25 -23 40 -29 27 -46 17 -20 -12 21 -24 12 -74
-12 -62 -9 5 -23 11 -32 13 -31 10 -63 96 -69 187 -6 93 -13 112 -59 152 -31
29 -81 115 -81 143 0 8 -5 15 -10 15 -6 0 -20 9 -32 20 l-22 20 -23 -22 c-30
-28 -31 -3 -2 29 l22 22 33 -27 c17 -15 62 -49 98 -75z m1256 53 c0 -5 -9 -10
-20 -10 -11 0 -20 5 -20 10 0 6 9 10 20 10 11 0 20 -4 20 -10z m-6310 -9 c0
-12 -79 -45 -88 -36 -4 4 -2 10 4 12 6 2 19 9 28 16 20 15 56 20 56 8z m1149
-305 c104 -113 181 -220 207 -288 10 -29 -22 -22 -44 9 l-19 27 -57 -54 c-31
-29 -56 -48 -56 -43 0 6 25 34 55 62 48 46 58 51 72 40 28 -24 -23 65 -74 128
-25 32 -85 99 -132 148 -85 89 -172 226 -171 272 1 10 23 -25 50 -77 40 -76
75 -121 169 -224z m4464 208 c-3 -8 -9 -14 -14 -14 -11 0 -12 64 -2 74 10 9
23 -41 16 -60z m719 9 c17 -15 18 -15 18 0 0 10 5 17 10 17 6 0 10 -11 10 -23
0 -32 27 -55 70 -59 34 -4 31 -7 -14 -22 -27 -9 -1 -36 35 -36 16 0 29 -4 29
-10 0 -5 7 -10 16 -10 9 0 13 -5 9 -12 -4 -7 1 -4 9 6 27 33 17 63 -11 35 -14
-14 -33 -3 -33 17 0 11 10 14 40 12 26 -1 40 -7 40 -16 0 -7 7 -21 16 -30 16
-15 15 -17 -7 -23 -14 -3 -35 -12 -48 -20 -19 -11 -24 -12 -28 -1 -4 10 -9 7
-20 -8 -13 -19 -13 -23 3 -41 22 -24 37 -20 44 12 6 23 22 28 60 18 8 -2 14 1
15 8 0 15 15 30 15 15 0 -5 3 -17 6 -26 4 -10 1 -16 -9 -16 -8 0 -17 -6 -20
-12 -3 -9 -9 -7 -20 7 -18 24 -24 20 -29 -20 -2 -21 2 -30 15 -33 11 -2 17 3
17 15 1 17 2 17 16 -2 16 -20 16 -20 10 2 -4 12 -2 24 4 28 5 3 10 -1 10 -10
0 -8 10 -20 23 -24 17 -7 24 -5 31 10 8 18 26 27 26 13 0 -15 -56 -75 -83 -89
-30 -15 -54 -11 -28 4 7 5 10 14 7 20 -12 19 -37 12 -58 -15 -12 -15 -26 -23
-35 -19 -9 3 -22 0 -30 -6 -11 -9 -17 -8 -27 7 -17 23 -10 40 10 23 12 -10 20
-7 39 11 l25 24 -32 33 c-45 47 -64 50 -99 17 -15 -15 -26 -31 -23 -36 3 -4
-2 -8 -10 -8 -21 0 -20 19 2 43 9 11 11 17 5 13 -8 -4 -13 -1 -13 8 0 8 6 16
13 19 8 3 6 10 -8 26 -25 29 -29 62 -9 86 15 19 15 18 10 -13 -6 -34 19 -72
47 -72 7 1 5 6 -5 14 -21 16 -23 26 -4 26 27 0 10 41 -33 80 -49 45 -86 51
-156 24 -64 -25 -75 -27 -75 -16 0 5 8 12 18 15 9 3 35 13 57 21 54 20 114 20
137 -1z m-5376 -60 c-7 -7 -26 7 -26 19 0 6 6 6 15 -2 9 -7 13 -15 11 -17z
m5574 12 c7 -9 10 -18 7 -22 -8 -7 -37 15 -37 28 0 14 16 11 30 -6z m-6235
-22 c-5 -27 -5 -27 6 -5 15 28 31 29 27 1 -4 -29 -35 -49 -47 -30 -5 7 -14 10
-20 7 -7 -5 -11 2 -11 18 0 18 6 26 23 29 12 2 23 5 25 6 1 0 0 -11 -3 -26z
m74 -19 c3 -16 1 -17 -13 -5 -19 16 -21 34 -3 29 6 -3 14 -13 16 -24z m-79
-44 c8 5 18 6 22 4 4 -3 8 0 8 6 0 6 5 8 10 5 6 -3 10 -13 10 -21 0 -8 -4 -12
-10 -9 -5 3 -10 1 -10 -6 0 -8 -4 -8 -15 1 -12 10 -15 10 -16 -1 -2 -19 -1
-22 6 -41 4 -10 3 -18 -3 -18 -6 0 -15 15 -20 33 -6 17 -13 41 -17 52 -6 18
-5 19 7 3 9 -11 19 -14 28 -8z m119 -6 c3 -16 1 -17 -13 -5 -19 16 -21 34 -3
29 6 -3 14 -13 16 -24z m636 -43 c0 -13 8 -28 17 -35 8 -6 17 -20 20 -31 2
-13 11 -20 26 -19 26 1 29 -11 6 -20 -17 -7 -54 19 -54 38 0 5 -12 23 -27 38
-15 16 -21 28 -14 28 8 0 11 6 7 16 -4 10 -1 14 6 11 7 -2 13 -14 13 -26z
m-919 -16 l16 -25 28 20 c30 22 40 24 40 12 0 -4 -13 -16 -30 -25 -21 -13 -27
-23 -23 -35 6 -15 4 -15 -9 -4 -13 10 -22 11 -37 3 -30 -17 -36 -13 -16 9 10
11 22 17 26 14 5 -3 9 0 9 5 0 6 -4 11 -10 11 -5 0 -14 9 -20 20 -16 30 6 25
26 -5z m234 8 c0 -10 7 -27 15 -37 17 -22 19 -36 7 -36 -7 0 -25 30 -50 83 -2
4 3 7 12 7 9 0 16 -8 16 -17z m6350 -18 c-7 -9 -15 -13 -17 -11 -7 7 7 26 19
26 6 0 6 -6 -2 -15z m-5594 -42 c-4 -4 -11 -1 -16 7 -16 25 -11 35 7 17 9 -9
13 -20 9 -24z m5624 33 c0 -3 -4 -8 -10 -11 -5 -3 -10 -1 -10 4 0 6 5 11 10
11 6 0 10 -2 10 -4z m-6400 -39 c5 2 6 -13 3 -31 -3 -20 -1 -36 6 -40 6 -4 11
-14 11 -23 0 -9 -3 -13 -7 -10 -3 4 -12 -1 -19 -11 -12 -15 -13 -14 -14 11 0
15 4 27 9 27 5 0 3 12 -4 28 -8 15 -17 41 -20 57 -6 29 -6 29 10 10 9 -11 20
-19 25 -18z m690 24 c0 -12 -20 -25 -27 -18 -7 7 6 27 18 27 5 0 9 -4 9 -9z
m3625 -11 c3 -5 -1 -10 -9 -10 -9 0 -16 5 -16 10 0 6 4 10 9 10 6 0 13 -4 16
-10z m230 -1 c4 -6 5 -12 2 -15 -7 -7 -37 7 -37 17 0 13 27 11 35 -2z m-4465
-34 c0 -8 -4 -15 -10 -15 -5 0 -10 7 -10 15 0 8 5 15 10 15 6 0 10 -7 10 -15z
m-231 -9 c7 -8 8 -17 3 -19 -4 -3 -13 3 -20 14 -14 22 0 26 17 5z m6205 -2
c23 -9 20 -23 -4 -17 -11 3 -20 9 -20 14 0 11 3 11 24 3z m-4317 -36 c9 2 20
-2 24 -10 13 -19 11 -28 -5 -28 -8 0 -17 -8 -21 -17 -6 -15 -11 -10 -25 22
-23 51 -26 78 -4 50 8 -11 22 -19 31 -17z m-1847 8 c0 -3 -4 -8 -10 -11 -5 -3
-10 -1 -10 4 0 6 5 11 10 11 6 0 10 -2 10 -4z m1754 -48 c15 -25 39 -128 32
-136 -3 -2 -18 0 -33 6 -15 6 -48 14 -73 18 -50 7 -70 19 -70 41 0 11 6 10 26
-6 15 -12 39 -21 55 -21 15 0 38 -4 52 -9 23 -9 23 -8 17 32 -3 23 -14 54 -24
70 -10 15 -14 27 -7 27 6 0 17 -10 25 -22z m4566 13 c0 -11 -31 -24 -39 -16
-3 3 1 10 9 15 19 12 30 12 30 1z m-3390 -21 c-6 -11 -13 -20 -15 -20 -3 0 -5
9 -5 20 0 11 7 20 15 20 13 0 14 -4 5 -20z m3340 3 c0 -19 -21 -27 -31 -12
-13 22 -11 28 11 26 11 -1 20 -7 20 -14z m-6177 -48 c-5 -13 -23 -22 -23 -11
0 15 14 35 21 31 4 -3 6 -12 2 -20z m2877 -135 c44 -89 75 -162 70 -165 -5 -3
-45 66 -89 154 -68 139 -80 171 -64 171 1 0 39 -72 83 -160z m-2907 79 c-4
-13 -9 -17 -15 -11 -11 11 -3 32 12 32 4 0 6 -9 3 -21z m4337 1 c0 -5 8 -10
18 -10 24 0 42 -19 35 -39 -4 -12 -2 -13 4 -3 7 10 16 10 37 2 15 -5 32 -8 37
-4 5 3 9 1 9 -4 0 -5 15 -20 33 -32 25 -17 34 -31 34 -52 0 -22 -5 -28 -22
-28 -12 0 -25 -3 -28 -7 -11 -10 44 -63 65 -63 10 0 21 -7 24 -15 9 -24 117
-86 128 -75 19 19 26 10 11 -14 -15 -23 -15 -25 6 -36 14 -8 41 -10 75 -5 59
7 74 -8 33 -33 -20 -13 -20 -14 -3 -33 9 -10 19 -17 22 -15 2 3 16 -6 30 -20
27 -25 42 -30 42 -16 0 5 7 17 15 28 14 17 14 15 8 -25 -4 -31 -3 -42 5 -37 6
3 17 -3 25 -14 16 -22 27 -17 27 14 1 20 2 20 14 4 7 -10 18 -18 25 -18 6 0
11 -4 11 -10 0 -5 -9 -10 -20 -10 -30 0 -24 -12 17 -39 34 -22 38 -23 64 -7
37 22 38 21 32 -22 -5 -35 -2 -40 42 -77 l47 -38 19 24 c9 13 21 20 25 16 4
-4 -1 -16 -12 -28 -18 -20 -18 -21 21 -53 28 -24 47 -32 67 -30 25 3 27 1 18
-15 -15 -28 -35 -18 -146 71 -54 44 -144 112 -199 151 -55 39 -153 108 -217
153 -65 46 -234 152 -375 235 -262 153 -292 173 -280 185 3 3 14 -2 24 -12 15
-15 18 -15 21 -2 3 15 29 32 69 43 18 5 20 3 16 -16 -4 -16 -2 -20 8 -17 8 2
15 17 17 31 3 25 22 39 22 17z m-4310 -55 c7 -14 11 -28 7 -31 -3 -3 -13 8
-22 25 -8 17 -12 31 -7 31 5 0 15 -11 22 -25z m656 -50 c68 -19 131 -35 140
-35 9 0 14 -6 11 -12 -16 -44 -18 -60 -8 -54 7 5 11 -2 11 -18 0 -24 -2 -25
-20 -14 -11 7 -20 17 -21 23 -1 5 -2 19 -3 29 -1 16 -24 26 -130 55 -71 20
-131 42 -134 49 -6 19 19 15 154 -23z m4367 19 c-2 -6 2 -28 11 -47 17 -42
249 -233 268 -221 6 4 8 3 5 -3 -9 -14 29 -47 44 -37 8 4 10 3 5 -4 -4 -7 27
-36 81 -74 48 -35 138 -114 200 -176 72 -73 116 -111 124 -106 7 4 10 3 6 -3
-3 -5 16 -32 43 -58 54 -53 57 -60 36 -68 -8 -3 -28 15 -50 45 -24 31 -43 48
-52 44 -7 -3 -13 -2 -11 2 1 5 -41 54 -93 109 -102 108 -231 210 -251 197 -7
-4 -9 -3 -6 4 9 13 -220 195 -234 187 -5 -4 -8 -3 -7 2 3 8 -130 142 -135 137
-1 -1 -3 7 -3 19 -1 12 -5 32 -9 44 -6 18 -3 22 13 20 11 0 18 -6 15 -13z
m1867 -21 c8 -16 14 -62 15 -103 l1 -75 29 3 c22 2 26 0 15 -7 -11 -8 -12 -14
-3 -33 20 -40 24 -67 14 -87 -13 -24 -110 -96 -118 -87 -4 4 4 14 17 23 99 70
113 109 55 156 l-35 28 6 68 c5 52 3 74 -10 99 -18 35 -19 42 -8 42 5 0 15
-12 22 -27z m-3830 -14 c0 -5 -7 -6 -15 -3 -8 4 -15 13 -15 21 0 13 3 13 15 3
8 -7 15 -16 15 -21z m3758 19 c-2 -6 -10 -14 -16 -16 -7 -2 -10 2 -6 12 7 18
28 22 22 4z m-6785 -23 c4 -8 2 -17 -3 -20 -6 -4 -10 -4 -10 -1 0 2 -3 11 -6
20 -3 9 -2 16 4 16 5 0 12 -7 15 -15z m256 -6 c-22 -14 -33 -10 -19 6 7 8 17
12 22 9 6 -4 5 -10 -3 -15z m6451 -5 c0 -9 -84 -42 -127 -49 -24 -4 -43 -11
-43 -17 0 -6 -6 -8 -14 -5 -22 9 -84 -11 -158 -49 -38 -19 -68 -31 -68 -25 0
13 123 78 164 87 17 3 36 9 41 12 6 4 24 7 40 9 17 1 55 10 85 21 59 21 80 25
80 16z m-6508 -26 c-6 -6 -15 -8 -19 -4 -4 4 -1 11 7 16 8 5 17 7 19 4 3 -2
-1 -10 -7 -16z m6295 5 c3 -7 -3 -9 -17 -6 -29 8 -37 25 -9 21 12 -1 24 -8 26
-15z m-6450 -51 c25 -40 47 -59 120 -100 88 -51 126 -62 138 -42 10 16 27 11
23 -7 -2 -9 -14 -18 -28 -20 -40 -6 -48 -22 -21 -44 29 -24 36 -24 62 2 14 14
19 28 15 45 -4 13 -2 24 3 24 5 0 12 -11 15 -25 12 -46 34 -29 41 30 4 30 11
55 16 55 5 0 6 -24 3 -54 -4 -32 -2 -61 4 -72 9 -16 11 -11 12 29 0 26 5 47
10 47 6 0 10 -24 10 -53 0 -41 -5 -56 -22 -71 -19 -17 -19 -19 -5 -28 13 -7
16 -18 11 -47 -3 -21 1 -72 10 -116 17 -84 21 -134 8 -119 -15 16 -45 200 -39
232 4 20 2 32 -6 35 -7 2 -12 21 -12 43 0 33 -4 40 -23 42 -27 4 -54 -21 -46
-42 4 -11 -9 -9 -55 12 -39 17 -59 31 -56 39 3 7 7 19 10 26 6 15 -190 129
-222 129 -16 0 -23 7 -23 19 0 21 16 26 23 7 2 -7 8 -9 13 -5 5 5 -1 17 -13
27 -22 18 -31 50 -14 50 4 0 22 -22 38 -48z m103 28 c-19 -13 -30 -13 -30 0 0
6 10 10 23 10 18 0 19 -2 7 -10z m-55 -10 c-3 -5 -13 -10 -21 -10 -8 0 -14 5
-14 10 0 6 9 10 21 10 11 0 17 -4 14 -10z m385 -8 c0 -10 -21 -32 -31 -32 -6
0 -6 19 0 38 2 6 31 1 31 -6z m633 -8 c43 -8 50 -24 9 -24 -15 0 -34 -6 -40
-12 -10 -10 -17 -10 -32 -1 -15 10 -26 9 -54 -2 -40 -17 -106 -20 -106 -5 0 6
15 10 33 11 17 0 52 8 77 19 52 21 62 22 113 14z m5447 -54 c-1 -12 -4 -11
-15 4 -8 10 -12 23 -8 29 7 11 23 -12 23 -33z m-6015 20 c3 -5 2 -10 -4 -10
-5 0 -13 5 -16 10 -3 6 -2 10 4 10 5 0 13 -4 16 -10z m-30 -10 c3 -5 -8 -16
-24 -25 -41 -21 -44 -19 -25 10 17 26 38 32 49 15z m2515 -190 c49 -99 90
-185 90 -190 0 -28 -25 11 -74 113 -30 62 -70 145 -90 185 -19 39 -31 72 -26
72 6 0 50 -81 100 -180z m-3003 145 c9 -25 -4 -29 -17 -6 -7 15 -7 21 0 21 6
0 13 -7 17 -15z m6556 -5 c3 -11 1 -20 -4 -20 -5 0 -9 2 -9 4 0 2 -3 11 -6 20
-3 9 -2 16 4 16 5 0 12 -9 15 -20z m-3923 -10 c0 -5 -6 -10 -14 -10 -8 0 -18
5 -21 10 -3 6 3 10 14 10 12 0 21 -4 21 -10z m-2630 -50 c0 -11 -4 -20 -10
-20 -5 0 -10 9 -10 20 0 11 5 20 10 20 6 0 10 -9 10 -20z m-1000 -4 c0 -3 -4
-8 -10 -11 -5 -3 -10 -1 -10 4 0 6 5 11 10 11 6 0 10 -2 10 -4z m7553 -26 c3
-11 1 -20 -4 -20 -5 0 -9 2 -9 4 0 2 -3 11 -6 20 -3 9 -2 16 4 16 5 0 12 -9
15 -20z m-6553 -24 c0 -8 -4 -18 -10 -21 -5 -3 -10 3 -10 14 0 12 5 21 10 21
6 0 10 -6 10 -14z m6574 -32 c9 -22 -3 -32 -14 -14 -12 19 -12 30 -1 30 5 0
12 -7 15 -16z m-6564 -46 c0 -5 -4 -8 -10 -8 -5 0 -10 10 -10 23 0 18 2 19 10
7 5 -8 10 -18 10 -22z m6584 -14 c9 -22 -3 -32 -14 -14 -12 19 -12 30 -1 30 5
0 12 -7 15 -16z m-6584 -35 c0 -11 -4 -17 -10 -14 -5 3 -10 13 -10 21 0 8 5
14 10 14 6 0 10 -9 10 -21z m3270 11 c0 -5 -4 -10 -10 -10 -5 0 -10 5 -10 10
0 6 5 10 10 10 6 0 10 -4 10 -10z m27 -35 c9 -25 -4 -29 -17 -6 -7 15 -7 21 0
21 6 0 13 -7 17 -15z m3304 8 c0 -5 2 -17 4 -28 4 -20 4 -20 -11 -1 -8 11 -14
23 -14 28 0 10 20 11 21 1z m-6573 -36 c5 -24 -15 -21 -21 4 -3 13 -1 19 6 16
7 -2 13 -11 15 -20z m5083 -2 c18 4 29 3 29 -4 0 -6 -9 -11 -21 -11 -11 0 -18
-4 -14 -10 3 -5 12 -7 20 -3 10 3 15 -1 15 -13 0 -11 3 -15 8 -8 13 19 42 25
42 9 0 -8 -7 -15 -15 -15 -8 0 -15 -4 -15 -10 0 -16 -16 -12 -54 13 -28 17
-35 28 -34 52 0 18 2 22 5 12 4 -14 11 -17 34 -12z m-1777 -21 c8 -21 8 -21
-8 -27 -9 -4 -13 2 -13 19 0 27 12 32 21 8z m181 -34 c16 -16 27 -31 24 -32
-45 -28 -49 -28 -50 -6 -1 13 -1 27 0 31 1 4 -6 10 -14 13 -8 4 -15 10 -15 15
0 18 27 8 55 -21z m-3475 -1 c0 -11 -4 -17 -10 -14 -5 3 -10 13 -10 21 0 8 5
14 10 14 6 0 10 -9 10 -21z m3400 1 c-19 -13 -30 -13 -30 0 0 6 10 10 23 10
18 0 19 -2 7 -10z m-46 -19 c2 -3 0 -15 -5 -26 -7 -18 -8 -18 -8 -2 -1 14 -6
17 -21 12 -15 -5 -20 -2 -20 13 0 15 5 18 25 14 14 -2 27 -7 29 -11z m-4116
-3 c-2 -6 -10 -14 -16 -16 -7 -2 -10 2 -6 12 7 18 28 22 22 4z m789 -23 c9
-25 -4 -29 -17 -6 -7 15 -7 21 0 21 6 0 13 -7 17 -15z m3413 6 c0 -5 -7 -12
-16 -15 -24 -9 -28 -7 -14 9 14 17 30 20 30 6z m-4240 -10 c0 -5 -9 -11 -20
-14 -22 -6 -28 8 -7 16 19 8 27 8 27 -2z m4080 -16 c-7 -8 -17 -12 -23 -8 -6
4 -3 11 8 19 23 17 32 10 15 -11z m244 -1 c9 -24 7 -28 -9 -14 -13 11 -14 10
-9 -4 3 -9 2 -16 -4 -16 -16 0 -24 33 -10 42 19 11 25 10 32 -8z m-4569 -4 c3
-5 -1 -10 -9 -10 -8 0 -18 5 -21 10 -3 6 1 10 9 10 8 0 18 -4 21 -10z m180 0
c-3 -5 -13 -10 -21 -10 -8 0 -14 5 -14 10 0 6 9 10 21 10 11 0 17 -4 14 -10z
m4241 -12 c-10 -6 -20 -7 -24 -3 -9 8 20 25 31 18 5 -3 2 -10 -7 -15z m-4296
-2 c0 -2 -7 -9 -15 -16 -12 -10 -15 -10 -15 4 0 9 7 16 15 16 8 0 15 -2 15 -4z
m980 -22 c0 -8 -4 -12 -10 -9 -5 3 -10 13 -10 21 0 8 5 12 10 9 6 -3 10 -13
10 -21z m3394 11 c-6 -16 -24 -21 -24 -7 0 11 11 22 21 22 5 0 6 -7 3 -15z
m-4454 -5 c8 -5 11 -12 7 -16 -4 -4 -15 0 -24 9 -18 18 -8 23 17 7z m4254 -6
c4 -10 1 -14 -6 -12 -15 5 -23 28 -10 28 5 0 13 -7 16 -16z m314 -30 c-10 -10
-28 6 -28 24 0 15 1 15 17 -1 9 -9 14 -19 11 -23z m-53 16 c3 -5 -3 -10 -14
-10 -11 0 -23 5 -26 10 -3 6 3 10 14 10 11 0 23 -4 26 -10z m-4475 -9 c0 -5
-7 -12 -16 -15 -24 -9 -28 -7 -14 9 14 17 30 20 30 6z m1056 -38 c-4 -4 -11
-1 -16 7 -16 25 -11 35 7 17 9 -9 13 -20 9 -24z m3361 16 c-7 -11 -15 -19 -18
-19 -4 0 -9 8 -12 19 -3 14 1 19 19 19 20 0 21 -3 11 -19z m2713 13 c0 -5 -13
-21 -30 -37 -16 -16 -31 -38 -31 -49 -1 -20 -1 -20 -6 -1 -3 11 -14 30 -26 42
-24 27 -15 43 11 20 17 -16 20 -15 40 8 22 25 42 33 42 17z m-2900 -17 c-7 -8
-17 -15 -22 -15 -6 0 -5 7 2 15 7 8 17 15 22 15 6 0 5 -7 -2 -15z m320 -17 c0
-19 -2 -20 -10 -8 -13 19 -13 30 0 30 6 0 10 -10 10 -22z m-3464 -46 c-9 -8
-26 10 -26 26 1 15 2 15 15 -2 8 -11 13 -21 11 -24z m3099 18 c-10 -11 -20
-18 -23 -15 -7 6 18 35 31 35 5 0 2 -9 -8 -20z m250 9 c11 -17 -1 -21 -15 -4
-8 9 -8 15 -2 15 6 0 14 -5 17 -11z m-2355 -15 c0 -2 -9 -4 -20 -4 -11 0 -20
4 -20 9 0 5 9 7 20 4 11 -3 20 -7 20 -9z m98 -4 c-13 -21 -28 -27 -28 -10 0 5
8 14 18 19 23 14 24 14 10 -9z m1706 -2 c3 -13 5 -32 5 -43 0 -16 -4 -13 -14
10 -8 17 -14 36 -15 43 0 21 17 13 24 -10z m532 -16 c-9 -8 -26 10 -26 26 1
15 2 15 15 -2 8 -11 13 -21 11 -24z m-2292 12 c9 -3 14 -10 11 -15 -3 -4 -12
-6 -20 -3 -12 5 -13 1 -4 -24 6 -17 19 -38 30 -48 10 -9 19 -26 19 -37 0 -11
11 -30 26 -43 21 -21 35 -24 96 -24 53 0 76 4 90 17 13 12 40 18 86 20 48 2
60 0 42 -6 -14 -5 -40 -9 -58 -10 -19 -1 -45 -10 -59 -21 -21 -16 -41 -20
-101 -20 -72 0 -78 2 -109 32 -18 18 -33 39 -33 49 0 9 -7 23 -16 30 -9 7 -21
25 -26 39 l-10 25 -10 -25 c-6 -14 -12 -20 -14 -14 -6 14 24 84 35 84 5 0 16
-3 25 -6z m2356 -14 c0 -11 -4 -20 -10 -20 -5 0 -10 9 -10 20 0 11 5 20 10 20
6 0 10 -9 10 -20z m70 11 c0 -13 -29 -35 -37 -28 -7 8 15 37 28 37 5 0 9 -4 9
-9z m2460 -25 c0 -19 -26 -40 -34 -27 -4 5 -2 12 4 16 6 4 8 11 5 16 -4 5 1 9
9 9 9 0 16 -6 16 -14z m-2576 -22 c8 -21 8 -24 -3 -24 -5 0 -11 9 -14 20 -6
24 8 27 17 4z m2856 -25 c7 -16 10 -39 8 -52 -4 -23 -3 -24 31 -16 19 4 38 6
40 3 9 -9 -23 -24 -41 -20 -10 2 -22 -2 -29 -10 -6 -8 -20 -14 -30 -14 -14 0
-19 -7 -19 -25 0 -14 -4 -25 -10 -25 -16 0 -12 46 5 60 8 7 15 19 15 28 0 26
-23 82 -35 82 -5 0 -2 7 8 15 25 18 42 10 57 -26z m-7306 15 c10 -25 1 -27
-19 -4 -15 17 -16 20 -3 20 9 0 19 -7 22 -16z m4536 7 c0 -5 -7 -14 -15 -21
-10 -9 -15 -9 -15 -1 0 6 -7 11 -16 11 -8 0 -12 5 -9 10 8 12 55 13 55 1z
m-310 -55 c0 -7 -4 -16 -10 -22 -6 -6 14 -56 55 -139 35 -72 67 -140 70 -153
3 -13 10 -20 14 -17 5 3 7 -4 4 -14 -3 -11 4 -28 16 -40 12 -12 19 -26 16 -32
-4 -5 10 -52 31 -104 l37 -94 51 20 c28 11 83 36 123 55 39 19 75 34 79 34 4
0 15 7 25 16 10 9 24 14 31 12 7 -3 -5 -16 -30 -33 -23 -15 -42 -34 -42 -41 0
-7 12 -40 26 -73 31 -70 41 -74 122 -40 28 12 57 19 65 16 7 -3 19 -23 25 -45
7 -22 35 -69 63 -106 42 -53 57 -66 79 -66 17 0 31 -7 35 -17 16 -39 67 -274
61 -281 -9 -8 -24 35 -31 86 -4 30 -12 52 -19 52 -6 0 -29 -9 -51 -20 -22 -11
-45 -20 -52 -20 -7 0 -20 -11 -29 -25 -21 -32 -30 -31 -109 6 -64 30 -96 61
-75 74 6 3 13 -1 16 -10 4 -9 37 -31 74 -50 l67 -34 11 24 c7 15 28 29 61 40
48 15 51 18 44 43 -14 57 -62 149 -100 194 -22 25 -48 68 -58 96 l-18 49 -58
-23 c-94 -39 -100 -36 -141 56 l-36 79 -99 -40 c-54 -23 -99 -42 -101 -44 -1
-1 9 -30 24 -64 24 -56 30 -62 51 -56 12 3 23 1 23 -4 0 -5 -9 -11 -20 -14
-18 -5 -19 -8 -9 -31 7 -14 16 -23 22 -19 6 3 7 1 4 -4 -10 -16 13 -74 26 -66
6 4 7 1 3 -6 -11 -17 13 -72 28 -64 6 3 8 3 4 -2 -9 -9 30 -67 41 -61 4 3 8 0
8 -7 0 -26 36 -69 55 -64 23 7 23 -5 -1 -20 -17 -11 -18 -17 -6 -90 7 -43 26
-107 44 -144 35 -74 38 -89 16 -89 -8 0 -15 6 -15 14 0 7 -13 45 -30 85 -16
39 -32 99 -36 134 -8 79 -32 134 -78 180 -20 20 -36 42 -36 49 0 7 -30 84 -67
170 -62 145 -70 157 -93 156 -14 0 -45 4 -70 10 -25 7 -63 12 -85 12 -52 0
-110 21 -150 53 -43 35 -127 247 -97 247 5 0 9 -6 9 -13 0 -8 16 -57 37 -110
49 -126 74 -144 226 -162 30 -3 70 -11 88 -17 53 -16 59 0 27 81 -15 39 -32
68 -36 65 -5 -3 -6 2 -3 10 3 8 -3 31 -14 53 -11 21 -32 70 -47 108 -16 39
-52 118 -81 177 -67 137 -70 145 -47 150 24 6 43 -2 43 -16z m270 14 c0 -5 -9
-10 -20 -10 -11 0 -20 5 -20 10 0 6 9 10 20 10 11 0 20 -4 20 -10z m-4455 -10
c3 -5 -1 -10 -9 -10 -8 0 -18 5 -21 10 -3 6 1 10 9 10 8 0 18 -4 21 -10z m8
-51 c-18 -35 -27 -33 -17 5 3 14 12 26 19 26 11 0 10 -6 -2 -31z m1817 1 c0
-5 -10 -10 -22 -10 -19 0 -20 2 -8 10 19 13 30 13 30 0z m60 0 c0 -13 -11 -13
-30 0 -12 8 -11 10 8 10 12 0 22 -4 22 -10z m-127 -7 c-7 -2 -19 -2 -25 0 -7
3 -2 5 12 5 14 0 19 -2 13 -5z m-48 -13 c-3 -5 -15 -10 -26 -10 -10 0 -19 5
-19 10 0 6 12 10 26 10 14 0 23 -4 19 -10z m-70 -10 c-3 -5 -15 -10 -26 -10
-10 0 -19 5 -19 10 0 6 12 10 26 10 14 0 23 -4 19 -10z m285 0 c0 -5 -9 -10
-20 -10 -11 0 -20 5 -20 10 0 6 9 10 20 10 11 0 20 -4 20 -10z m5156 -15 c38
-29 53 -33 33 -8 -12 14 -9 13 16 -2 41 -26 43 -29 16 -20 -16 5 -21 4 -17 -4
11 -16 3 -14 -34 14 -18 13 -37 22 -41 19 -13 -7 -30 6 -24 17 9 13 15 12 51
-16z m-5096 5 c12 -8 9 -10 -12 -10 -16 0 -28 5 -28 10 0 13 20 13 40 0z
m2387 -42 c-3 -8 -6 -5 -6 6 -1 11 2 17 5 13 3 -3 4 -12 1 -19z m2803 -18 c8
-5 11 -10 5 -10 -5 0 -17 5 -25 10 -8 5 -10 10 -5 10 6 0 17 -5 25 -10z m100
-20 c8 -5 11 -10 5 -10 -5 0 -17 5 -25 10 -8 5 -10 10 -5 10 6 0 17 -5 25 -10z
m19 -33 c8 -11 6 -18 -9 -32 -11 -10 -17 -21 -15 -25 6 -10 -84 -94 -92 -86
-9 8 18 37 45 47 13 5 21 13 18 17 -3 5 8 22 25 38 28 26 29 30 13 41 -10 7
-13 13 -7 13 6 0 16 -6 22 -13z m108 -73 c27 -7 113 4 113 14 0 4 11 7 25 7
16 0 25 -6 25 -16 0 -12 -12 -18 -42 -22 -24 -3 -62 -9 -85 -13 -40 -6 -45 -4
-83 34 -27 27 -38 45 -34 56 5 14 11 10 32 -19 14 -19 36 -38 49 -41z m-7257
-1 c19 -37 62 -99 97 -138 170 -188 243 -260 304 -300 66 -43 139 -117 139
-142 0 -20 -7 -16 -29 20 -20 31 -44 52 -167 142 -34 24 -72 60 -85 80 -13 19
-43 48 -65 65 -23 16 -47 42 -53 58 -7 16 -32 45 -56 65 -44 37 -107 137 -120
190 -11 44 0 31 35 -40z m7490 16 c0 -5 -8 -9 -18 -9 -10 0 -23 -5 -30 -12 -9
-9 -12 -6 -12 13 0 23 3 25 30 21 17 -2 30 -8 30 -13z m-3820 -199 c0 -26 -5
-30 -42 -41 -51 -13 -151 -28 -157 -23 -10 9 11 16 71 24 95 13 108 19 108 46
0 13 5 24 10 24 6 0 10 -13 10 -30z m3271 -25 c-23 -25 -47 -56 -53 -70 -13
-29 -28 -34 -21 -6 3 13 -1 21 -14 24 -13 3 -11 5 7 6 16 1 42 18 70 46 57 58
65 58 11 0z m-2801 -46 c0 -10 -4 -19 -10 -19 -5 0 -10 12 -10 26 0 14 4 23
10 19 6 -3 10 -15 10 -26z m3107 -1 c-3 -7 -5 -2 -5 12 0 14 2 19 5 13 2 -7 2
-19 0 -25z m0 -60 c-3 -7 -5 -2 -5 12 0 14 2 19 5 13 2 -7 2 -19 0 -25z m-349
-37 c-12 -4 -29 20 -21 32 3 4 11 0 18 -10 9 -12 10 -19 3 -22z m357 -54 c6
-58 -9 -81 -19 -29 -4 23 -4 39 3 86 3 24 12 -6 16 -57z m-307 25 c2 -7 -2
-10 -12 -6 -9 3 -16 11 -16 16 0 13 23 5 28 -10z m-3558 -26 c0 -7 -7 -19 -15
-26 -16 -13 -20 -3 -9 24 8 20 24 21 24 2z m3595 -7 c11 -17 -1 -21 -15 -4 -8
9 -8 15 -2 15 6 0 14 -5 17 -11z m45 -39 c8 -5 11 -12 7 -16 -4 -4 -15 0 -24
9 -18 18 -8 23 17 7z m190 -8 c0 -10 -6 -19 -14 -19 -8 0 -17 9 -19 19 -4 13
0 18 14 18 12 0 19 -7 19 -18z m-4046 -18 c3 -8 15 -14 26 -14 18 0 30 -19 13
-20 -5 -1 -30 -20 -56 -44 -49 -44 -49 -44 -32 -70 10 -15 14 -33 10 -43 -5
-13 -12 -2 -27 42 -12 33 -25 62 -29 63 -21 8 -7 52 26 81 35 30 59 32 69 5z
m-3434 -9 c7 -8 8 -15 2 -15 -5 0 -15 7 -22 15 -7 8 -8 15 -2 15 5 0 15 -7 22
-15z m7429 1 c9 -11 7 -13 -12 -13 -13 0 -24 5 -24 13 0 8 6 14 12 14 7 0 18
-6 24 -14z m-89 -11 c7 -8 8 -15 2 -15 -5 0 -15 7 -22 15 -7 8 -8 15 -2 15 5
0 15 -7 22 -15z m300 -7 c0 -13 -23 -5 -28 10 -2 7 2 10 12 6 9 -3 16 -11 16
-16z m-46 3 c3 -4 3 -11 0 -14 -8 -8 -34 3 -34 14 0 11 27 12 34 0z m-7544
-38 c0 -13 -3 -13 -15 -3 -8 7 -15 16 -15 21 0 5 7 6 15 3 8 -4 15 -13 15 -21z
m7495 17 c-3 -5 -13 -10 -21 -10 -8 0 -12 5 -9 10 3 6 13 10 21 10 8 0 12 -4
9 -10z m-157 -18 c2 -7 -2 -10 -12 -6 -9 3 -16 11 -16 16 0 13 23 5 28 -10z
m62 -17 c7 -9 10 -18 6 -22 -3 -3 -6 -1 -6 5 0 7 -3 11 -7 11 -19 -3 -33 2
-33 11 0 15 26 12 40 -5z m-7360 -10 c14 -16 10 -18 -14 -9 -9 3 -16 10 -16
15 0 14 16 11 30 -6z m4060 -28 c0 -12 12 -23 30 -30 38 -15 45 -35 20 -61
-11 -12 -25 -36 -31 -54 -9 -27 -15 -32 -42 -31 -25 1 -27 3 -9 6 13 3 27 16
33 31 6 15 20 37 32 50 18 20 19 24 7 32 -8 5 -21 10 -27 10 -7 0 -20 17 -30
38 -9 20 -19 41 -21 45 -2 5 5 3 17 -5 12 -7 21 -21 21 -31z m3347 -31 c-10
-26 -24 -18 -24 14 0 27 2 29 15 16 8 -8 12 -22 9 -30z m-7357 2 c0 -6 -7 -5
-15 2 -8 7 -15 17 -15 22 0 6 7 5 15 -2 8 -7 15 -17 15 -22z m4340 27 c0 -16
-41 -46 -57 -43 -15 4 -14 7 10 18 15 7 27 17 27 22 0 4 5 8 10 8 6 0 10 -2
10 -5z m-4301 -48 c6 -8 8 -17 4 -20 -7 -8 -33 11 -33 24 0 13 16 11 29 -4z
m51 -59 c0 -6 -7 -5 -15 2 -8 7 -15 17 -15 22 0 6 7 5 15 -2 8 -7 15 -17 15
-22z m3188 -27 c-7 -12 -23 -21 -37 -21 -28 0 -20 13 21 34 29 16 33 13 16
-13z m-3149 6 c6 -8 8 -17 4 -20 -7 -8 -33 11 -33 24 0 13 16 11 29 -4z m51
-59 c0 -6 -7 -5 -15 2 -8 7 -15 17 -15 22 0 6 7 5 15 -2 8 -7 15 -17 15 -22z
m47 -22 c-13 -23 -16 -24 -27 -11 -14 17 -14 17 15 33 26 14 28 10 12 -22z
m4097 -37 c16 -1 17 -2 4 -6 -16 -4 -17 -7 -3 -34 18 -35 11 -38 -16 -6 l-20
22 11 -23 c14 -28 8 -39 -10 -17 -7 8 -14 36 -15 63 -3 45 -3 46 12 25 9 -13
25 -24 37 -24z m-4057 -25 c-9 -10 -38 16 -31 28 4 6 13 4 22 -6 9 -8 13 -19
9 -22z m33 -25 c0 -6 -4 -7 -10 -4 -5 3 -10 11 -10 16 0 6 5 7 10 4 6 -3 10
-11 10 -16z m40 -29 c8 -5 11 -12 7 -16 -4 -4 -15 0 -24 9 -18 18 -8 23 17 7z
m4800 -16 c0 -14 -4 -23 -10 -19 -5 3 -10 15 -10 26 0 10 5 19 10 19 6 0 10
-12 10 -26z m-4752 -40 c-10 -10 -28 6 -28 24 0 15 1 15 17 -1 9 -9 14 -19 11
-23z m42 -29 c7 -8 8 -15 2 -15 -5 0 -15 7 -22 15 -7 8 -8 15 -2 15 5 0 15 -7
22 -15z m45 -36 c12 -19 -5 -23 -22 -6 -16 16 -16 17 -1 17 9 0 20 -5 23 -11z
m43 -47 c2 -7 -2 -10 -12 -6 -9 3 -16 11 -16 16 0 13 23 5 28 -10z m42 -32 c8
-5 11 -12 7 -16 -4 -4 -15 0 -24 9 -18 18 -8 23 17 7z m48 -49 c3 -8 -1 -12
-9 -9 -7 2 -15 10 -17 17 -3 8 1 12 9 9 7 -2 15 -10 17 -17z m42 -36 c7 -8 8
-15 2 -15 -5 0 -15 7 -22 15 -7 8 -8 15 -2 15 5 0 15 -7 22 -15z m3570 6 c0
-19 -73 -30 -85 -12 -3 6 12 12 32 14 21 2 41 4 46 5 4 1 7 -2 7 -7z m-3530
-46 c7 -8 8 -15 2 -15 -5 0 -15 7 -22 15 -7 8 -8 15 -2 15 5 0 15 -7 22 -15z"/>
<path d="M3135 7420 c3 -5 14 -10 23 -10 15 0 15 2 2 10 -20 13 -33 13 -25 0z"/>
<path d="M3236 7388 c15 -20 30 -35 33 -32 3 2 -10 19 -28 37 l-34 32 29 -37z"/>
<path d="M3002 7255 c6 -14 15 -25 19 -25 5 0 3 11 -3 25 -6 14 -15 25 -19 25
-5 0 -3 -11 3 -25z"/>
<path d="M6437 6659 c7 -7 15 -10 18 -7 3 3 -2 9 -12 12 -14 6 -15 5 -6 -5z"/>
<path d="M4495 6100 c3 -5 8 -10 11 -10 2 0 4 5 4 10 0 6 -5 10 -11 10 -5 0
-7 -4 -4 -10z"/>
<path d="M4460 6030 c0 -11 7 -20 15 -20 8 0 15 9 15 20 0 11 -7 20 -15 20 -8
0 -15 -9 -15 -20z"/>
<path d="M5076 5671 c-3 -5 0 -14 8 -20 11 -9 18 -8 30 4 9 9 16 18 16 21 0 8
-49 4 -54 -5z"/>
<path d="M5140 5660 c0 -11 7 -20 15 -20 13 0 14 4 5 20 -6 11 -13 20 -15 20
-3 0 -5 -9 -5 -20z"/>
<path d="M5045 5640 c-10 -17 12 -37 25 -24 8 8 6 15 -4 23 -10 9 -16 9 -21 1z"/>
<path d="M5090 5610 c-9 -16 -5 -20 27 -29 40 -11 47 -8 57 24 5 18 1 20 -34
22 -30 1 -43 -4 -50 -17z"/>
<path d="M5191 5598 c-10 -27 -8 -34 11 -55 28 -30 32 -29 59 9 l23 31 -30 23
c-39 32 -50 30 -63 -8z"/>
<path d="M5050 5573 c0 -20 26 -33 69 -33 27 0 52 -7 65 -17 21 -17 21 -17 0
6 -12 12 -36 26 -55 31 -19 5 -44 12 -56 15 -13 4 -23 3 -23 -2z"/>
<path d="M5261 5523 c-17 -21 -31 -42 -31 -48 0 -12 74 -75 88 -75 4 0 18 10
30 23 29 31 29 69 0 82 -13 6 -27 20 -33 33 -13 30 -18 28 -54 -15z"/>
<path d="M5023 5525 c-3 -9 -3 -19 1 -22 8 -9 37 18 30 28 -8 14 -24 11 -31
-6z"/>
<path d="M2035 4810 c3 -5 11 -10 16 -10 6 0 7 5 4 10 -3 6 -11 10 -16 10 -6
0 -7 -4 -4 -10z"/>
<path d="M1950 4710 c0 -22 18 -34 47 -28 14 3 12 7 -15 26 -32 23 -32 23 -32
2z"/>
<path d="M1985 4660 c-8 -13 5 -13 25 0 13 8 13 10 -2 10 -9 0 -20 -4 -23 -10z"/>
<path d="M2896 4693 c-5 -11 0 -22 11 -31 15 -11 20 -10 30 5 7 9 13 23 13 30
0 19 -47 16 -54 -4z"/>
<path d="M2966 4693 c-11 -11 -6 -23 9 -23 8 0 15 4 15 9 0 13 -16 22 -24 14z"/>
<path d="M2855 4648 c-14 -21 -14 -24 2 -35 19 -15 33 -2 33 29 0 27 -17 30
-35 6z"/>
<path d="M3005 4650 c-3 -5 -18 -10 -33 -10 -23 0 -24 -2 -12 -14 8 -8 27 -18
41 -21 24 -6 26 -4 27 24 1 30 -11 41 -23 21z"/>
<path d="M3047 4636 c-7 -19 11 -32 24 -19 6 6 5 14 -4 22 -12 9 -16 8 -20 -3z"/>
<path d="M2921 4614 c0 -11 3 -14 6 -6 3 7 2 16 -1 19 -3 4 -6 -2 -5 -13z"/>
<path d="M4216 4124 c-10 -7 -23 -15 -28 -16 -5 -2 -5 -15 1 -31 6 -16 15 -26
20 -22 6 3 8 -9 7 -27 -2 -18 -1 -22 1 -9 4 20 9 22 36 17 25 -5 29 -4 19 6
-16 16 -15 31 2 25 11 -4 9 4 -6 29 -25 43 -29 45 -52 28z"/>
<path d="M2710 3672 c0 -11 45 -32 67 -32 14 0 14 2 -2 20 -18 20 -65 28 -65
12z"/>
<path d="M2990 3575 c0 -7 -8 -19 -17 -24 -10 -6 -14 -11 -10 -11 14 0 57 37
50 44 -11 11 -23 7 -23 -9z"/>
<path d="M2847 3551 c-5 -22 1 -33 14 -25 12 7 12 44 0 44 -5 0 -11 -9 -14
-19z"/>
<path d="M3005 3540 c-3 -5 -2 -10 4 -10 5 0 13 5 16 10 3 6 2 10 -4 10 -5 0
-13 -4 -16 -10z"/>
<path d="M2905 3510 c3 -5 10 -10 16 -10 5 0 9 5 9 10 0 6 -7 10 -16 10 -8 0
-12 -4 -9 -10z"/>
<path d="M5450 3276 c0 -31 14 -40 30 -21 10 12 10 18 0 30 -18 22 -30 18 -30
-9z"/>
<path d="M5403 3232 c-7 -4 -9 -13 -4 -21 10 -16 31 -6 31 15 0 16 -9 18 -27
6z"/>
<path d="M5482 3218 c-16 -16 -15 -28 3 -28 8 0 15 9 15 20 0 23 -2 24 -18 8z"/>
<path d="M5346 3176 c8 -29 39 -72 50 -68 5 1 9 19 9 39 0 34 -3 38 -33 44
-30 6 -32 5 -26 -15z"/>
<path d="M5426 3148 c-10 -50 -6 -54 19 -23 30 36 31 41 6 48 -15 3 -20 -2
-25 -25z"/>
<path d="M4440 3390 c0 -5 5 -10 10 -10 6 0 10 5 10 10 0 6 -4 10 -10 10 -5 0
-10 -4 -10 -10z"/>
<path d="M5690 3155 c1 -6 7 -21 14 -34 9 -17 15 -20 21 -11 4 7 -1 21 -14 33
-11 12 -21 17 -21 12z"/>
<path d="M5866 3128 c-4 -14 -6 -34 -4 -44 2 -14 5 -15 14 -3 6 8 7 27 4 44
l-7 30 -7 -27z"/>
<path d="M5825 3091 c-3 -5 -1 -12 5 -16 5 -3 10 1 10 9 0 18 -6 21 -15 7z"/>
<path d="M5760 3061 c0 -11 25 -21 52 -21 17 0 18 3 8 15 -13 16 -60 21 -60 6z"/>
<path d="M5798 2999 l16 -27 13 25 c7 14 13 26 13 27 0 2 -13 3 -29 3 -28 0
-28 -1 -13 -28z"/>
<path d="M5871 3025 c0 -5 6 -19 14 -29 8 -11 15 -15 15 -10 0 6 -7 19 -15 30
-8 10 -14 15 -14 9z"/>
<path d="M5900 3020 c0 -5 7 -10 16 -10 8 0 12 5 9 10 -3 6 -10 10 -16 10 -5
0 -9 -4 -9 -10z"/>
<path d="M5839 2987 c-15 -33 -11 -38 23 -29 27 7 27 7 8 32 l-18 24 -13 -27z"/>
<path d="M5875 2942 c-42 -7 -46 -11 -35 -32 13 -24 33 -26 50 -5 17 20 9 41
-15 37z"/>
<path d="M5912 2898 c-7 -13 -21 -35 -33 -49 -20 -25 -20 -28 -5 -55 8 -16 15
-23 16 -16 0 7 -4 22 -10 32 -7 14 -3 26 20 55 17 21 30 42 30 46 0 15 -6 10
-18 -13z"/>
<path d="M5830 2848 c0 -36 4 -35 14 5 4 16 2 27 -4 27 -5 0 -10 -14 -10 -32z"/>
<path d="M5955 2868 c-36 -16 -48 -45 -33 -76 17 -36 84 -44 112 -13 38 42
-26 114 -79 89z"/>
<path d="M5841 2773 c11 -34 19 -42 19 -20 0 7 -7 22 -15 33 -13 17 -14 16 -4
-13z"/>
<path d="M5890 2727 c0 -18 5 -27 15 -27 13 0 14 4 4 23 -17 33 -19 33 -19 4z"/>
<path d="M7055 2920 c3 -5 12 -7 20 -3 21 7 19 13 -6 13 -11 0 -18 -4 -14 -10z"/>
<path d="M5305 2590 c-8 -12 3 -50 14 -50 7 0 31 43 31 55 0 10 -39 5 -45 -5z"/>
<path d="M5190 2556 c0 -4 188 -116 195 -116 3 0 1 9 -3 21 -5 13 -27 28 -59
39 -29 10 -62 28 -74 39 -20 18 -59 29 -59 17z"/>
<path d="M5336 2534 c-11 -8 -16 -14 -10 -14 13 0 39 18 34 24 -3 2 -14 -2
-24 -10z"/>
<path d="M5390 2489 c0 -5 5 -7 10 -4 6 3 10 8 10 11 0 2 -4 4 -10 4 -5 0 -10
-5 -10 -11z"/>
<path d="M5420 2428 c0 -7 18 -23 41 -36 38 -22 40 -22 30 -3 -11 20 -49 51
-63 51 -5 0 -8 -6 -8 -12z"/>
<path d="M5520 2360 c8 -6 24 -16 35 -22 20 -11 20 -11 1 11 -11 11 -26 21
-35 21 -14 0 -14 -2 -1 -10z"/>
<path d="M5770 2220 c-8 -5 -10 -10 -5 -10 6 0 17 5 25 10 8 5 11 10 5 10 -5
0 -17 -5 -25 -10z"/>
<path d="M6085 1991 c-3 -5 -1 -12 5 -16 5 -3 10 1 10 9 0 18 -6 21 -15 7z"/>
<path d="M7400 1705 c0 -13 32 -66 36 -62 6 6 -23 67 -31 67 -3 0 -5 -2 -5 -5z"/>
<path d="M5202 771 c-11 -7 -10 -16 7 -49 12 -23 21 -48 21 -57 0 -8 6 -15 14
-15 11 0 11 9 0 56 -14 64 -23 77 -42 65z"/>
<path d="M3426 881 c-22 -24 -17 -55 10 -59 25 -4 57 30 52 55 -5 25 -41 28
-62 4z"/>
<path d="M2648 7993 c7 -3 16 -2 19 1 4 3 -2 6 -13 5 -11 0 -14 -3 -6 -6z"/>
<path d="M3934 7957 c-44 -60 -56 -86 -50 -104 8 -20 50 -10 81 20 26 24 55
94 48 115 -10 26 -48 11 -79 -31z"/>
<path d="M5600 7943 c93 -93 105 -102 177 -132 37 -16 122 -55 188 -87 66 -31
159 -67 207 -80 87 -22 88 -22 113 -2 24 19 226 307 238 340 6 16 -28 17 -487
18 l-493 0 57 -57z"/>
<path d="M2682 7935 c11 -20 23 -34 25 -31 6 6 -29 66 -39 66 -4 0 2 -16 14
-35z"/>
<path d="M3852 7819 c-16 -26 -15 -28 11 -22 22 4 22 4 2 -12 -11 -10 -35 -24
-53 -32 -58 -25 -106 -163 -56 -163 17 0 19 -17 2 -22 -18 -6 1 -28 25 -28 18
0 19 -2 7 -10 -13 -8 -12 -10 3 -10 11 0 17 8 17 23 0 12 3 33 7 47 6 23 5 24
-11 11 -9 -8 -19 -11 -22 -8 -10 10 6 27 27 27 10 0 19 5 19 10 0 6 -4 10 -10
10 -11 0 -2 31 14 45 7 6 18 26 26 45 7 19 19 42 25 50 7 8 12 23 12 32 0 24
-32 29 -45 7z m-12 -99 c0 -11 -4 -20 -10 -20 -5 0 -10 9 -10 20 0 11 5 20 10
20 6 0 10 -9 10 -20z"/>
<path d="M3730 7703 c0 -6 -9 -13 -21 -16 -20 -5 -19 -27 1 -27 12 0 33 40 26
48 -3 3 -6 1 -6 -5z"/>
<path d="M3781 7488 c1 -27 15 -52 23 -40 4 6 2 21 -4 32 -12 23 -20 26 -19 8z"/>
<path d="M5405 6360 c3 -5 13 -10 21 -10 8 0 14 5 14 10 0 6 -9 10 -21 10 -11
0 -17 -4 -14 -10z"/>
<path d="M5403 6318 c-20 -10 -32 -28 -18 -28 12 0 55 24 55 32 0 10 -9 9 -37
-4z"/>
<path d="M5298 6297 c-40 -11 -48 -27 -24 -46 18 -15 88 16 84 38 -4 19 -15
20 -60 8z"/>
<path d="M5720 6262 c0 -4 10 -13 23 -21 22 -14 22 -14 3 8 -20 22 -26 25 -26
13z"/>
<path d="M7500 3694 c0 -8 5 -12 10 -9 6 4 8 11 5 16 -9 14 -15 11 -15 -7z"/>
<path d="M7725 3600 c10 -11 22 -20 27 -20 5 0 4 9 -2 20 -6 11 -18 20 -27 20
-14 0 -14 -2 2 -20z"/>
</g>
</svg>
