<?xml version="1.0" standalone="no"?>
<!DOCTYPE svg PUBLIC "-//W3C//DTD SVG 20010904//EN"
 "http://www.w3.org/TR/2001/REC-SVG-20010904/DTD/svg10.dtd">
<svg version="1.0" xmlns="http://www.w3.org/2000/svg"
 width="800.000000pt" height="800.000000pt" viewBox="0 0 800.000000 800.000000"
 preserveAspectRatio="xMidYMid meet">
<metadata>
Created by potrace 1.16, written by Peter Selinger 2001-2019
</metadata>
<g transform="translate(0.000000,800.000000) scale(0.100000,-0.100000)"
fill="#000000" stroke="none">
<path d="M0 5945 c0 -1944 1 -2055 18 -2064 16 -10 16 -10 0 -11 -17 0 -18
-93 -18 -1820 l0 -1821 56 36 c30 20 73 48 95 62 22 14 42 23 45 20 4 -3 -39
-35 -95 -71 l-101 -66 0 -105 0 -105 4000 0 4000 0 0 935 c0 884 -1 935 -17
935 -17 1 -17 1 0 14 24 18 22 68 -3 84 -11 7 -20 17 -20 24 0 6 9 3 20 -7 20
-18 20 -17 20 457 0 414 -2 477 -15 482 -8 3 -15 10 -15 17 0 6 7 9 15 5 13
-5 15 98 15 884 l0 890 -22 35 c-20 29 -29 35 -60 35 -21 0 -38 5 -38 10 0 6
19 10 43 10 39 0 45 -3 60 -32 16 -33 16 -33 16 55 1 76 -1 87 -16 87 -17 1
-17 1 -1 11 17 9 18 99 18 1539 l0 1530 -3039 0 -3038 0 5 -25 c3 -16 0 -25
-8 -25 -7 0 -10 7 -6 16 3 8 2 12 -4 9 -6 -3 -10 1 -10 9 0 12 -11 16 -42 16
l-42 0 35 -37 34 -38 -40 38 -41 37 -902 0 -902 0 0 -2055z m222 2008 c-40 -2
-103 -2 -140 0 -37 2 -4 3 73 3 77 0 107 -2 67 -3z m1670 -45 c-6 -6 -7 0 -4
19 5 21 7 23 10 9 2 -10 0 -22 -6 -28z m25 0 c-3 -8 -6 -5 -6 6 -1 11 2 17 5
13 3 -3 4 -12 1 -19z m-1860 -4 c-3 -3 -12 -4 -19 -1 -8 3 -5 6 6 6 11 1 17
-2 13 -5z m6263 -357 c0 -2 -12 -14 -27 -28 l-28 -24 24 28 c23 25 31 32 31
24z m-3947 -84 c-7 -2 -21 -2 -30 0 -10 3 -4 5 12 5 17 0 24 -2 18 -5z m3847
-66 c0 -2 -10 -12 -22 -23 l-23 -19 19 23 c18 21 26 27 26 19z m-3682 -36 c3
-8 -1 -12 -9 -9 -7 2 -15 10 -17 17 -3 8 1 12 9 9 7 -2 15 -10 17 -17z m-28
-70 c0 -6 -4 -13 -10 -16 -5 -3 -10 1 -10 9 0 9 5 16 10 16 6 0 10 -4 10 -9z
m-20 -38 c0 -5 -7 -17 -15 -27 -15 -20 -20 -10 -9 18 6 16 24 22 24 9z m3312
-353 c28 -64 25 -91 -5 -38 l-18 33 5 -31 c4 -23 0 -37 -14 -49 -11 -10 -20
-13 -20 -7 0 6 5 14 10 17 15 9 12 58 -6 83 -12 18 -13 26 -4 37 7 8 15 15 19
15 3 -1 18 -27 33 -60z m-312 -316 c0 -8 -3 -14 -7 -14 -15 0 -63 36 -57 42
10 11 64 -13 64 -28z m-4160 -24 c-19 -13 -30 -13 -30 0 0 6 10 10 23 10 18 0
19 -2 7 -10z m-60 -20 c-19 -13 -30 -13 -30 0 0 6 10 10 23 10 18 0 19 -2 7
-10z m-55 -20 c-3 -5 -13 -10 -21 -10 -8 0 -12 5 -9 10 3 6 13 10 21 10 8 0
12 -4 9 -10z m1405 -240 c0 -5 -4 -10 -10 -10 -5 0 -10 5 -10 10 0 6 5 10 10
10 6 0 10 -4 10 -10z m-1412 -47 c11 -37 3 -63 -20 -63 -6 0 -5 6 2 15 9 11 9
22 1 46 -13 38 -13 39 -3 39 5 0 14 -17 20 -37z m88 0 c-11 -11 -17 4 -9 23 7
18 8 18 11 1 2 -10 1 -21 -2 -24z m-143 -93 c-14 -13 -15 -13 -9 3 3 10 7 42
7 70 l1 52 9 -55 c6 -45 5 -58 -8 -70z m1457 85 c0 -7 33 -43 72 -79 40 -36
69 -68 65 -72 -3 -4 -40 23 -81 60 -41 36 -78 66 -83 66 -4 0 -14 9 -21 21
-12 19 -11 20 7 14 13 -4 21 -2 21 5 0 6 5 8 10 5 6 -3 10 -12 10 -20z m-1350
-15 c-8 -5 -17 -7 -19 -4 -3 3 1 9 9 14 8 5 17 7 19 4 3 -3 -1 -9 -9 -14z
m1788 -2 c15 -15 17 -122 2 -113 -5 3 -10 28 -10 56 0 27 -4 49 -10 49 -5 0
-10 5 -10 10 0 14 13 13 28 -2z m-508 -22 c0 -8 -4 -18 -10 -21 -5 -3 -10 3
-10 14 0 12 5 21 10 21 6 0 10 -6 10 -14z m-1420 -65 c0 -5 -7 -12 -16 -15
-24 -9 -28 -7 -14 9 14 17 30 20 30 6z m1894 -70 c8 -12 -3 -41 -15 -41 -4 0
-6 7 -3 15 4 10 0 15 -11 15 -9 0 -13 5 -10 10 8 12 32 13 39 1z m46 -1 c-19
-13 -30 -13 -30 0 0 6 10 10 23 10 18 0 19 -2 7 -10z m-382 -6 c33 -9 27 -21
-13 -26 -29 -3 -35 -1 -35 14 0 19 11 22 48 12z m282 -30 c0 -8 4 -13 9 -9 5
3 12 1 15 -4 13 -21 -15 -21 -44 1 -27 20 -29 23 -13 29 22 8 33 2 33 -17z
m3677 -176 c-3 -8 -6 -5 -6 6 -1 11 2 17 5 13 3 -3 4 -12 1 -19z m-3887 -23
c0 -3 -11 -5 -25 -5 -17 0 -23 4 -19 15 5 11 11 12 25 4 10 -5 19 -12 19 -14z
m-65 5 c-3 -5 -11 -10 -16 -10 -6 0 -7 5 -4 10 3 6 11 10 16 10 6 0 7 -4 4
-10z m4385 -62 c0 -6 -7 -5 -15 2 -8 7 -15 17 -15 22 0 6 7 5 15 -2 8 -7 15
-17 15 -22z m-4027 -35 c-3 -7 -9 -10 -14 -7 -11 6 -12 38 -2 48 9 9 22 -25
16 -41z m4067 2 c7 -8 8 -15 2 -15 -5 0 -15 7 -22 15 -7 8 -8 15 -2 15 5 0 15
-7 22 -15z m-3996 -21 c27 -10 18 -25 -11 -18 -37 9 -53 24 -26 24 12 0 28 -3
37 -6z m4043 -40 c-9 -10 -38 16 -31 28 4 6 13 4 22 -6 9 -8 13 -19 9 -22z
m37 -30 c4 -10 1 -14 -6 -12 -15 5 -23 28 -10 28 5 0 13 -7 16 -16z m-4743
-37 c-8 -8 -11 -7 -11 4 0 20 13 34 18 19 3 -7 -1 -17 -7 -23z m53 18 c-4 -8
-7 -15 -9 -15 -2 0 -5 7 -9 15 -3 9 0 15 9 15 9 0 12 -6 9 -15z m4732 -32 c-7
-7 -26 7 -26 19 0 6 6 6 15 -2 9 -7 13 -15 11 -17z m-4765 -50 c20 5 26 -7 9
-18 -17 -11 -40 15 -39 44 2 26 2 26 6 -2 4 -23 9 -28 24 -24z m4809 5 c0 -6
-7 -5 -15 2 -8 7 -15 17 -15 22 0 6 7 5 15 -2 8 -7 15 -17 15 -22z m38 -36 c6
-18 -15 -14 -22 4 -4 10 -1 14 6 12 6 -2 14 -10 16 -16z m-4058 -23 c0 -5 -5
-9 -10 -9 -6 0 -5 -8 2 -20 12 -18 13 -18 31 -2 19 16 19 16 14 -3 -4 -11 -2
-27 3 -35 7 -12 12 -12 29 4 12 11 21 14 21 7 0 -6 -11 -16 -24 -22 -19 -9
-29 -7 -50 6 -14 10 -26 21 -26 25 0 4 -12 12 -26 19 -19 8 -23 15 -16 24 13
15 52 20 52 6z m67 -5 c2 -7 -6 -10 -22 -7 -14 3 -25 10 -25 15 0 13 43 6 47
-8z m-321 -21 c-10 -10 -19 5 -10 18 6 11 8 11 12 0 2 -7 1 -15 -2 -18z m4329
7 c3 -5 1 -10 -4 -10 -6 0 -11 5 -11 10 0 6 2 10 4 10 3 0 8 -4 11 -10z
m-4315 -40 c0 -4 -9 -10 -21 -13 -12 -3 -19 -9 -16 -14 3 -5 -3 -20 -13 -33
l-19 -25 1 32 c1 18 5 30 10 27 4 -3 8 3 8 14 0 10 3 21 6 24 7 8 44 -2 44
-12z m135 -4 c-15 -23 -15 -25 2 -35 17 -10 17 -10 1 -11 -10 0 -18 4 -18 9 0
5 -10 6 -22 3 -21 -5 -20 -3 7 26 36 37 52 42 30 8z m-67 8 c12 -4 22 -10 22
-14 0 -13 -63 -5 -68 8 -4 13 11 15 46 6z m4266 -9 c3 -8 1 -15 -3 -15 -5 0
-11 7 -15 15 -3 8 -1 15 3 15 5 0 11 -7 15 -15z m-4544 -5 c0 -13 -20 -13 -40
0 -12 8 -9 10 13 10 15 0 27 -4 27 -10z m-2100 -85 c47 -47 82 -85 80 -85 -3
0 -43 38 -90 85 -47 47 -82 85 -80 85 3 0 43 -38 90 -85z m2160 75 c0 -5 -6
-10 -14 -10 -8 0 -18 5 -21 10 -3 6 3 10 14 10 12 0 21 -4 21 -10z m55 -10
c-3 -5 -12 -7 -20 -3 -21 7 -19 13 6 13 11 0 18 -4 14 -10z m-94 -37 c-8 -15
-10 -15 -11 -2 0 17 10 32 18 25 2 -3 -1 -13 -7 -23z m195 -10 c-4 -4 -11 -1
-16 7 -16 25 -11 35 7 17 9 -9 13 -20 9 -24z m46 12 c-2 -14 -11 -25 -19 -25
-8 0 -12 3 -10 8 2 4 7 15 10 25 10 26 25 20 19 -8z m4302 9 c8 -21 8 -24 -3
-24 -5 0 -11 9 -14 20 -6 24 8 27 17 4z m-4007 -1 c-4 -3 -2 -12 4 -20 16 -18
-8 -18 -26 1 -15 15 -10 26 13 26 9 0 12 -3 9 -7z m-167 -23 c0 -5 -2 -10 -4
-10 -3 0 -8 5 -11 10 -3 6 -1 10 4 10 6 0 11 -4 11 -10z m-80 -29 c0 -5 -9
-11 -20 -14 -22 -6 -28 8 -7 16 19 8 27 8 27 -2z m290 5 c0 -3 -4 -8 -10 -11
-5 -3 -10 -1 -10 4 0 6 5 11 10 11 6 0 10 -2 10 -4z m3985 -5 c3 -5 1 -12 -5
-16 -5 -3 -10 1 -10 9 0 18 6 21 15 7z m-4139 -96 c17 -47 30 -72 32 -61 3 14
6 16 12 6 7 -11 14 -12 36 -2 14 7 29 11 31 8 3 -2 -13 -12 -34 -22 -21 -10
-39 -18 -41 -19 -1 -1 9 -26 22 -56 25 -52 26 -53 63 -50 21 1 41 8 45 14 4 7
8 9 8 4 0 -4 14 0 32 9 38 19 121 13 148 -11 24 -22 30 -19 30 15 0 31 45 157
63 175 12 13 7 -7 -27 -102 -15 -41 -28 -105 -31 -147 -5 -68 -3 -80 23 -133
24 -49 27 -65 21 -108 -3 -27 -4 -52 -2 -55 5 -5 35 13 118 73 50 36 64 52 56
60 -6 6 -11 18 -11 27 1 13 3 12 14 -2 7 -10 17 -18 23 -18 5 0 52 29 104 65
l94 66 1 102 c1 115 12 197 26 197 5 0 6 -9 1 -22 -14 -39 -5 -488 11 -541 10
-32 10 -49 3 -56 -8 -8 -8 -11 1 -11 7 0 12 -5 12 -11 0 -6 -7 -8 -16 -5 -12
5 -15 1 -10 -22 2 -15 8 -48 11 -74 3 -27 8 -48 10 -48 3 0 44 18 92 41 72 33
105 42 178 49 50 5 94 5 98 1 5 -5 -21 -12 -58 -16 -94 -10 -308 -84 -332
-114 -7 -9 -10 -22 -8 -29 3 -8 0 -10 -7 -6 -8 5 -9 2 -5 -10 4 -9 3 -15 -2
-12 -14 9 -33 -45 -38 -109 -3 -33 -12 -72 -19 -86 -10 -20 -11 -41 -4 -85 6
-33 10 -81 10 -107 0 -35 4 -49 17 -54 9 -3 59 0 110 9 l95 15 -4 -33 c-2 -18
-1 -32 2 -31 3 1 5 -2 5 -8 0 -8 -145 -8 -154 0 -11 11 -28 -22 -20 -41 14
-39 -4 -35 -22 3 l-17 38 5 -45 c3 -25 8 -56 12 -70 l6 -25 108 14 c101 13
107 15 107 36 0 56 27 75 32 23 2 -25 8 -34 26 -36 19 -3 22 2 24 30 2 47 2
57 -6 113 -8 59 8 42 18 -20 4 -22 11 -56 17 -76 9 -34 10 -35 51 -32 24 1 53
5 66 8 13 3 58 -5 100 -19 43 -13 106 -30 140 -37 56 -12 63 -11 75 5 9 13 20
16 40 11 29 -8 37 -25 12 -25 -19 0 -19 -14 1 -34 17 -17 25 -20 23 -8 -4 24
3 52 12 52 7 0 9 -10 7 -24 -4 -17 -1 -23 9 -19 9 4 11 0 7 -11 -4 -10 -1 -16
7 -17 8 -1 28 -2 44 -4 17 -1 86 -21 155 -43 69 -22 181 -57 249 -78 69 -20
136 -43 150 -50 14 -8 37 -14 51 -14 14 0 32 -5 40 -10 12 -7 8 -10 -15 -10
l-30 0 -43 -173 c-24 -96 -50 -177 -58 -183 -8 -7 -36 -15 -62 -19 -144 -21
-258 -58 -428 -140 -96 -46 -174 -80 -174 -75 0 13 349 180 392 186 35 6 64
24 38 24 -6 0 -22 11 -35 24 -24 24 -24 24 -60 6 -19 -10 -35 -14 -35 -9 0 12
42 39 62 39 9 0 32 19 52 43 28 35 42 70 75 190 23 81 41 151 41 156 0 8 -245
82 -282 86 -10 1 -21 5 -25 9 -5 4 -13 -14 -19 -41 -8 -36 -15 -47 -27 -45
-10 2 -17 -4 -17 -13 0 -8 5 -15 10 -15 6 0 10 -5 10 -11 0 -6 -7 -8 -16 -5
-14 5 -15 4 -4 -9 10 -12 10 -19 2 -27 -9 -9 -12 -9 -12 0 0 7 -7 12 -16 12
-8 0 -13 4 -10 9 3 5 -10 9 -30 9 -47 0 -53 8 -19 24 23 10 29 10 33 0 3 -10
7 -10 18 -1 17 14 19 33 2 23 -8 -5 -9 -2 -5 9 8 22 -11 22 -36 0 -19 -17 -19
-17 -13 4 5 16 2 25 -13 32 -26 14 -31 14 -31 -4 0 -8 -7 -15 -15 -15 -7 0
-18 -7 -23 -15 -4 -9 -23 -18 -40 -20 -51 -6 -53 -11 -46 -77 5 -45 4 -59 -5
-54 -6 4 -11 27 -11 51 0 40 -2 44 -31 50 -43 10 -102 -3 -95 -20 2 -7 8 -31
12 -52 l6 -38 -20 21 c-11 11 -23 30 -26 42 -4 12 -12 22 -17 22 -5 0 -9 5 -9
10 0 6 9 10 20 10 25 0 46 36 25 44 -17 6 -21 46 -5 46 6 0 10 12 11 28 l1 27
9 -25 c6 -18 7 -11 4 28 -2 29 1 52 6 52 6 0 8 -4 5 -9 -7 -11 17 -21 51 -21
21 0 24 2 13 15 -21 25 7 17 34 -10 14 -14 30 -25 35 -25 6 0 14 -8 20 -17 17
-31 23 -6 6 27 -9 17 -14 38 -11 45 3 9 -8 17 -37 23 -23 5 -50 13 -59 17 -15
6 -18 2 -19 -21 0 -17 -3 -23 -6 -14 -3 8 -11 18 -17 23 -8 5 -7 10 2 16 23
14 -12 21 -117 21 l-98 0 23 -122 c27 -138 28 -146 15 -132 -4 5 -19 63 -31
129 -13 66 -24 121 -25 123 -3 4 -307 -37 -312 -41 -1 -2 7 -25 20 -51 12 -26
25 -45 27 -42 3 2 4 -46 2 -109 l-3 -113 88 18 c144 29 163 31 163 22 0 -6
-17 -13 -37 -17 -21 -4 -42 -9 -47 -12 -4 -3 -26 -7 -48 -9 -21 -1 -57 -5 -78
-9 l-39 -7 0 -116 c-1 -63 -4 -137 -7 -164 -6 -41 -4 -48 11 -48 9 0 15 -6 13
-12 -3 -7 -13 -13 -24 -13 -16 0 -19 8 -19 60 l0 60 -95 12 c-63 9 -96 10 -98
3 -2 -5 -11 -10 -19 -10 -13 0 -13 -3 -3 -15 17 -21 30 -19 30 5 0 11 5 20 10
20 6 0 10 -9 10 -20 0 -11 -4 -20 -8 -20 -5 0 -14 -12 -21 -26 l-12 -26 -20
23 c-12 14 -16 25 -10 27 6 2 9 8 6 12 -3 5 -13 6 -22 3 -12 -5 -15 -2 -10 10
5 13 1 17 -20 17 -25 0 -26 1 -11 17 11 10 33 16 62 15 33 0 46 4 46 14 0 8 5
14 10 14 6 0 10 -8 10 -18 0 -16 13 -21 82 -30 45 -7 83 -10 85 -9 7 7 16 395
10 419 -6 23 -11 25 -52 23 -53 -2 -60 10 -10 19 31 6 34 9 25 26 -6 11 -8 20
-4 20 3 0 1 7 -6 15 -7 8 -27 15 -44 14 -17 0 -25 -3 -18 -6 14 -6 16 -59 2
-68 -6 -3 -7 -18 -4 -32 5 -18 3 -24 -5 -19 -6 4 -11 16 -11 27 0 10 -7 19
-15 19 -13 0 -21 33 -16 64 3 13 -42 -18 -47 -32 -2 -7 5 -12 15 -12 13 0 18
-7 18 -25 0 -21 -5 -25 -29 -25 -23 0 -26 3 -17 14 8 10 9 16 1 21 -5 3 -10
15 -10 26 0 29 -22 33 -113 18 -45 -7 -89 -13 -97 -14 -8 -1 -26 -7 -40 -12
-14 -6 -40 -14 -57 -17 -18 -4 -35 -12 -39 -17 -5 -9 25 -199 32 -199 1 0 15
5 29 10 20 8 30 7 41 -5 13 -12 11 -16 -15 -30 -21 -10 -32 -12 -37 -4 -11 18
-22 -4 -17 -36 4 -29 7 -30 46 -28 l42 2 -43 -11 c-42 -11 -44 -12 -38 -42 4
-17 10 -66 13 -108 6 -79 9 -84 50 -79 16 2 4 -39 -13 -46 -28 -11 -13 -42 41
-83 30 -23 59 -39 65 -35 5 3 10 24 10 46 0 23 -4 38 -10 34 -16 -10 -22 43
-11 97 0 3 9 4 19 2 11 -3 17 -15 18 -34 1 -16 -3 -27 -7 -24 -10 6 0 -25 12
-42 5 -6 5 -14 1 -18 -4 -4 0 -6 8 -4 9 2 14 -3 12 -14 -5 -30 16 -29 66 2 27
16 53 30 58 30 5 0 22 -18 37 -40 16 -22 36 -40 45 -40 14 0 14 -2 3 -9 -11
-7 -6 -21 22 -69 33 -57 34 -61 18 -76 -10 -9 -22 -16 -27 -16 -5 0 -1 7 9 14
17 13 16 18 -19 80 -24 44 -42 66 -54 66 -10 0 -22 4 -25 10 -4 6 -17 4 -36
-5 -41 -22 -36 -5 7 23 19 12 32 27 29 33 -6 9 -110 -43 -147 -75 -22 -20 -36
-14 -117 50 -31 24 -60 44 -66 44 -11 0 -55 -64 -55 -78 0 -12 69 -82 80 -82
6 0 9 -10 9 -22 -2 -31 13 -68 69 -165 41 -73 50 -83 75 -83 16 0 26 -4 22
-10 -3 -5 -15 -10 -25 -10 -17 0 -18 -4 -10 -24 16 -43 121 -200 148 -223 22
-19 24 -23 9 -23 -10 0 -26 4 -36 9 -18 10 -91 127 -132 213 -12 25 -32 50
-43 53 -18 6 -19 8 -3 12 23 6 22 11 -15 69 -36 56 -78 148 -78 169 0 8 -20
34 -44 59 l-43 45 -50 -62 c-27 -34 -96 -125 -153 -202 -57 -77 -126 -167
-153 -199 -27 -32 -53 -71 -58 -85 -8 -20 -12 -22 -19 -11 -6 10 1 26 24 55
49 59 107 136 207 270 49 66 103 136 119 157 16 20 35 48 41 62 7 14 17 26 22
26 5 0 -7 18 -27 40 -29 33 -36 48 -36 83 0 97 -12 175 -26 170 -11 -4 -14 11
-14 71 0 59 -7 98 -29 164 -16 48 -32 100 -36 116 -5 24 -9 27 -28 20 -12 -4
-48 -7 -80 -6 l-57 1 -30 -59 c-37 -73 -39 -117 -7 -130 15 -6 17 -9 5 -9 -9
-1 -18 -7 -21 -13 -7 -20 -18 -3 -28 41 -8 35 -6 48 12 84 17 32 18 39 5 28
-9 -7 -16 -10 -16 -5 0 4 -7 -1 -15 -12 -8 -11 -14 -14 -15 -6 0 10 -5 10 -21
2 -11 -6 -25 -9 -32 -7 -13 5 53 37 76 37 13 0 36 21 51 48 5 8 -8 19 -40 32
-26 11 -48 19 -50 17 -2 -2 -19 -38 -38 -80 -23 -50 -31 -78 -23 -79 6 0 17
-2 22 -3 6 -2 15 -3 21 -4 16 -1 25 -27 17 -46 -5 -14 -8 -14 -24 1 -10 9 -16
21 -13 25 3 5 -8 9 -25 9 -20 0 -35 -8 -45 -22 -18 -25 -22 -103 -6 -113 6 -3
10 -11 10 -16 0 -6 -4 -8 -9 -5 -5 4 -12 -8 -16 -25 -4 -17 -11 -27 -15 -22
-12 12 5 170 20 188 8 10 9 15 1 15 -6 0 -11 5 -11 10 0 6 9 10 20 10 11 0 20
5 20 10 0 6 -5 10 -11 10 -5 0 -7 5 -4 10 3 6 -3 10 -14 10 -16 0 -22 -8 -27
-40 -4 -24 -14 -45 -25 -50 -24 -13 -29 -13 -29 5 0 8 4 15 9 15 5 0 7 8 4 19
-2 10 3 25 11 34 36 36 4 37 -64 2 -54 -28 -60 -29 -60 -16 0 5 23 18 51 31
48 20 121 25 168 9 9 -2 23 17 41 57 l28 61 -49 53 c-26 28 -53 49 -59 45 -5
-3 -10 -1 -10 5 0 6 7 13 15 16 13 5 12 11 -5 39 -22 36 -22 126 0 133 8 3 10
0 5 -8 -5 -8 -3 -11 5 -8 22 7 23 27 3 35 -31 11 -45 43 -19 43 24 0 30 39 9
55 -23 18 -25 18 -73 -1 -79 -32 -51 -5 39 37 82 38 89 43 80 61 -9 17 -17 19
-47 14 -21 -3 -54 -9 -74 -12 -21 -4 -38 -2 -38 3 0 4 33 14 73 20 70 11 73
11 98 -13 31 -30 59 -30 110 -1 l39 22 -2 109 c-2 87 -6 110 -18 113 -11 4
-12 2 -2 -5 13 -9 6 -42 -9 -42 -4 0 -6 -7 -3 -15 5 -12 1 -14 -17 -11 -13 3
-27 5 -32 5 -11 1 3 53 20 73 8 9 23 15 34 13 13 -3 19 2 19 15 0 17 -53 42
-115 53 -11 2 -33 10 -50 17 -16 7 -46 14 -65 15 -31 2 -35 6 -35 31 0 23 -6
29 -33 36 -44 12 -65 4 -29 -11 38 -15 34 -25 -7 -17 l-35 7 -6 -48 c-3 -26
-10 -64 -15 -83 -7 -31 -8 -32 -9 -8 -1 24 -7 29 -53 42 -91 26 -111 30 -105
19 4 -6 0 -19 -7 -29 -14 -18 -15 -18 -27 9 -7 15 -16 27 -20 27 -4 0 -14 3
-22 6 -12 4 -14 0 -10 -16 5 -18 2 -21 -13 -18 -12 2 -19 12 -18 26 1 20 -2
21 -51 16 -37 -5 -68 -1 -106 11 -30 10 -48 20 -41 23 7 2 31 -2 55 -10 26 -8
59 -11 87 -7 37 5 41 7 23 14 -34 11 -28 23 10 21 31 -1 32 0 33 40 0 22 4 46
7 52 4 6 -12 17 -40 28 -49 18 -76 34 -57 34 14 0 107 -31 119 -40 17 -12 107
-39 148 -44 21 -3 42 -8 47 -11 5 -3 26 -6 47 -6 21 0 61 -5 90 -10 42 -8 52
-14 55 -32 3 -18 21 -27 127 -60 100 -30 127 -35 137 -25 19 21 57 236 62 353
5 124 10 136 80 167 25 11 41 25 38 31 -30 70 -96 239 -101 262 -13 55 11 13
41 -70z m-366 80 c0 -3 -9 -14 -20 -25 l-20 -20 0 25 c0 18 5 25 20 25 11 0
20 -2 20 -5z m50 -15 c0 -5 -7 -7 -15 -4 -8 4 -12 10 -9 15 6 11 24 2 24 -11z
m-170 0 c0 -5 -12 -10 -27 -10 -22 0 -25 2 -13 10 20 13 40 13 40 0z m57 4
c-3 -3 -12 -4 -19 -1 -8 3 -5 6 6 6 11 1 17 -2 13 -5z m266 -56 c-3 -24 -9
-52 -14 -63 -6 -17 -8 -15 -8 11 -1 42 10 94 19 94 5 0 6 -19 3 -42z m-123 28
c0 -3 -4 -8 -10 -11 -5 -3 -10 -1 -10 4 0 6 5 11 10 11 6 0 10 -2 10 -4z
m-1363 -12 c-3 -3 -12 -4 -19 -1 -8 3 -5 6 6 6 11 1 17 -2 13 -5z m1228 -4 c3
-5 -3 -10 -14 -10 -12 0 -21 5 -21 10 0 6 6 10 14 10 8 0 18 -4 21 -10z
m-1405 -54 c0 -3 -4 -8 -10 -11 -5 -3 -10 -1 -10 4 0 6 5 11 10 11 6 0 10 -2
10 -4z m2053 -52 c21 -42 13 -63 -14 -38 -13 12 -22 14 -31 6 -21 -17 -88 -42
-88 -32 0 4 25 18 55 31 48 20 54 25 49 46 -9 36 10 27 29 -13z m-1901 -29
c-5 -29 -17 -39 -32 -30 -8 5 -7 11 0 20 7 8 9 19 5 25 -3 5 2 10 13 10 15 0
18 -5 14 -25z m1481 3 c-4 -13 -8 -38 -8 -55 0 -35 -9 -43 -19 -17 -7 19 13
94 26 94 5 0 6 -10 1 -22z m159 -13 c-5 -26 -16 -32 -27 -15 -3 6 -11 10 -16
10 -6 0 -8 -4 -4 -9 3 -5 1 -12 -4 -15 -5 -3 -12 1 -15 10 -8 20 -7 20 24 33
40 16 48 13 42 -14z m4748 15 c0 -5 -9 -10 -20 -10 -11 0 -20 5 -20 10 0 6 9
10 20 10 11 0 20 -4 20 -10z m-3655 -30 c3 -5 -1 -10 -9 -10 -20 0 -20 -7 -2
-26 11 -11 12 -19 3 -38 -7 -13 -15 -22 -18 -20 -4 2 -10 -2 -12 -8 -4 -8 -6
-7 -6 3 -1 9 -8 19 -16 23 -18 6 -20 42 -3 52 8 5 9 0 5 -15 -4 -18 -3 -20 9
-10 8 7 12 20 8 35 -5 19 -2 24 14 24 12 0 24 -4 27 -10z m-2745 -30 c0 -5 -7
-10 -15 -10 -8 0 -15 5 -15 10 0 6 7 10 15 10 8 0 15 -4 15 -10z m1646 -19
c-8 -12 -46 -21 -46 -11 0 9 18 18 38 19 7 1 11 -3 8 -8z m74 5 c0 -3 -4 -8
-10 -11 -5 -3 -10 -1 -10 4 0 6 5 11 10 11 6 0 10 -2 10 -4z m-1520 -61 c85
-29 145 -54 133 -54 -21 -1 -272 82 -303 100 -40 23 26 5 170 -46z m-100 -5
c0 -5 -2 -10 -4 -10 -3 0 -8 5 -11 10 -3 6 -1 10 4 10 6 0 11 -4 11 -10z
m-164 -68 c-9 -8 -26 10 -26 26 1 15 2 15 15 -2 8 -11 13 -21 11 -24z m2338
-41 c-6 -6 -24 19 -24 34 1 6 7 1 15 -9 8 -11 12 -22 9 -25z m-2344 19 c0 -5
-10 -10 -22 -10 -19 0 -20 2 -8 10 19 13 30 13 30 0z m50 0 c8 -5 12 -12 9
-15 -8 -8 -39 5 -39 16 0 11 11 11 30 -1z m50 -29 c0 -17 -18 -21 -24 -6 -3 9
0 15 9 15 8 0 15 -4 15 -9z m4115 -151 c-3 -5 -13 -10 -21 -10 -8 0 -12 5 -9
10 3 6 13 10 21 10 8 0 12 -4 9 -10z m-70 -20 c-27 -12 -35 -12 -35 0 0 6 12
10 28 9 24 0 25 -1 7 -9z m105 -15 c7 -8 8 -15 2 -15 -5 0 -15 7 -22 15 -7 8
-8 15 -2 15 5 0 15 -7 22 -15z m-3370 -14 c0 -21 -13 -41 -27 -41 -10 0 -13 6
-9 16 3 9 6 20 6 25 0 5 7 9 15 9 8 0 15 -4 15 -9z m-290 -5 c0 -3 -4 -8 -10
-11 -5 -3 -10 -1 -10 4 0 6 5 11 10 11 6 0 10 -2 10 -4z m3690 -10 c0 -3 -4
-8 -10 -11 -5 -3 -10 -1 -10 4 0 6 5 11 10 11 6 0 10 -2 10 -4z m-1590 -58 c0
-13 -23 -5 -28 10 -2 7 2 10 12 6 9 -3 16 -11 16 -16z m35 -18 c3 -5 1 -10 -4
-10 -6 0 -11 5 -11 10 0 6 2 10 4 10 3 0 8 -4 11 -10z m1520 0 c-3 -5 2 -10
12 -10 15 0 16 -2 3 -10 -18 -12 -21 -12 -39 -1 -16 10 -6 31 15 31 8 0 12 -4
9 -10z m-2883 -96 c-12 -8 -22 -21 -22 -28 0 -18 -82 -15 -88 3 -3 9 6 12 34
10 32 -3 38 -1 36 14 -2 13 4 17 30 17 32 0 32 0 10 -16z m170 -101 l-16 -33
-13 31 c-17 40 -2 65 27 47 17 -11 17 -14 2 -45z m-761 -80 c-9 -16 -10 -15
-11 8 0 14 3 29 8 33 12 12 14 -22 3 -41z m1859 -64 c0 -11 -4 -17 -10 -14 -5
3 -10 13 -10 21 0 8 5 14 10 14 6 0 10 -9 10 -21z m901 -112 c-13 -13 -15 11
-4 40 7 16 8 15 11 -6 2 -13 -1 -28 -7 -34z m-602 6 c-11 -13 -11 -17 -1 -20
6 -3 10 -9 6 -14 -3 -5 -12 -2 -21 6 -12 12 -13 19 -3 30 7 8 17 15 22 15 6 0
4 -7 -3 -17z m-229 -33 c0 -25 -4 -30 -24 -30 -13 0 -31 -3 -40 -6 -9 -3 -16
-1 -16 4 0 6 12 12 28 14 19 2 28 9 30 26 5 33 22 27 22 -8z m179 4 c3 -3 -1
-9 -9 -14 -9 -6 -16 -6 -18 0 -2 6 -16 10 -30 11 -15 1 -38 5 -52 10 -17 6 -5
7 39 4 35 -3 67 -8 70 -11z m642 -37 c-8 -8 -11 -5 -11 9 0 27 14 41 18 19 2
-9 -1 -22 -7 -28z m-930 -17 c-2 -8 -5 -25 -6 -37 -2 -30 -15 -43 -15 -15 0
11 -4 24 -10 27 -5 3 -10 15 -10 26 0 15 5 20 23 17 14 -2 20 -9 18 -18z
m-2671 -292 c0 -6 -7 -5 -15 2 -8 7 -15 17 -15 22 0 6 7 5 15 -2 8 -7 15 -17
15 -22z m35 -29 c11 -17 -1 -21 -15 -4 -8 9 -8 15 -2 15 6 0 14 -5 17 -11z
m2797 -41 c3 -16 1 -31 -4 -34 -4 -3 -8 1 -8 8 0 9 -3 9 -8 2 -11 -16 -53 -37
-60 -29 -4 4 2 12 13 18 19 11 19 11 -5 17 -14 4 -31 2 -38 -3 -7 -5 -15 -7
-19 -3 -3 3 -1 6 6 6 7 0 9 5 6 10 -3 6 2 10 12 10 10 0 25 6 34 13 9 7 28 13
42 13 21 2 26 -3 29 -28z m-2762 8 c0 -3 -4 -8 -10 -11 -5 -3 -10 -1 -10 4 0
6 5 11 10 11 6 0 10 -2 10 -4z m2234 -52 c9 -24 -3 -36 -20 -19 -9 8 -12 19
-9 25 9 15 22 12 29 -6z m147 -36 c16 -53 16 -75 0 -49 -7 11 -17 11 -57 -3
-65 -22 -69 -11 -6 15 47 20 50 23 41 46 -11 30 -12 43 -1 43 4 0 15 -24 23
-52z m-2051 23 c0 -3 -14 -48 -31 -99 -17 -51 -29 -99 -26 -106 3 -8 19 -17
36 -21 17 -4 29 -11 26 -15 -3 -5 -17 -5 -31 0 -14 6 -30 10 -35 10 -8 0 -39
-58 -39 -74 0 -3 31 -15 69 -27 39 -13 68 -26 65 -30 -2 -4 -30 1 -61 12 -31
10 -62 19 -69 19 -16 0 -47 -68 -37 -83 3 -5 1 -7 -5 -3 -5 3 -13 0 -16 -6 -3
-7 -3 1 0 17 4 17 7 38 8 47 0 9 3 15 7 12 11 -6 22 34 13 47 -4 7 -3 9 3 6
11 -7 36 64 25 73 -4 4 -53 21 -109 39 -57 18 -103 38 -103 45 0 22 17 39 31
30 8 -5 22 -7 32 -5 16 2 17 -1 8 -18 -6 -11 -8 -22 -4 -24 9 -5 147 -47 156
-47 10 0 58 160 51 171 -5 8 -3 9 6 4 10 -6 12 -3 8 12 -3 12 0 20 8 20 8 0
14 -3 14 -6z m2278 -63 c8 -10 3 -13 -21 -15 -30 -2 -31 -1 -13 12 24 18 21
18 34 3z m1214 -21 c20 -16 27 -59 11 -64 -7 -3 -13 1 -13 7 0 7 -8 9 -21 5
-15 -5 -19 -4 -15 4 4 6 15 11 24 11 12 0 9 6 -10 18 -16 9 -28 20 -28 24 0
12 33 9 52 -5z m-1227 -17 c-3 -5 -11 -10 -16 -10 -6 0 -7 5 -4 10 3 6 11 10
16 10 6 0 7 -4 4 -10z m-1559 -25 c-21 -16 -32 -13 -21 4 3 6 14 11 23 11 15
-1 15 -2 -2 -15z m-23 -55 c-7 -28 -13 -25 -13 6 0 14 4 23 9 20 5 -3 7 -15 4
-26z m277 10 c0 -5 18 -51 41 -101 51 -113 47 -125 -56 -174 -90 -43 -124 -52
-136 -34 -15 23 -11 27 34 32 67 8 100 19 127 40 14 11 18 18 10 15 -8 -3 -21
1 -28 9 -15 15 -42 18 -42 4 0 -14 -33 -6 -39 10 -9 29 -29 39 -55 29 -41 -15
-30 4 17 28 51 28 75 42 106 64 21 15 22 20 12 49 -13 39 -13 39 -1 39 6 0 10
-4 10 -10z m2261 0 c22 -13 25 -30 4 -30 -8 0 -19 9 -25 20 -12 23 -7 25 21
10z m-3459 -40 c46 -17 89 -33 97 -36 8 -2 11 -7 8 -11 -8 -7 -197 59 -197 69
0 11 0 11 92 -22z m3533 20 c3 -5 -1 -10 -9 -10 -9 0 -16 -6 -16 -14 0 -8 -5
-18 -10 -21 -6 -4 -10 5 -8 24 2 22 7 31 20 31 9 0 20 -4 23 -10z m-135 -10
c0 -13 -11 -13 -30 0 -12 8 -11 10 8 10 12 0 22 -4 22 -10z m-2278 -35 c4 -6
-4 -15 -19 -21 -21 -9 -30 -9 -40 1 -16 17 -16 22 -1 39 13 14 44 4 60 -19z
m2168 25 c-38 -12 -129 -12 -110 0 8 5 42 9 75 9 45 -1 54 -3 35 -9z m143 -10
c3 -11 1 -20 -4 -20 -5 0 -9 9 -9 20 0 11 2 20 4 20 2 0 6 -9 9 -20z m-1212
-13 c-6 -8 -8 -17 -4 -20 3 -4 0 -14 -7 -23 -12 -13 -11 -17 0 -24 12 -8 12
-10 0 -14 -8 -3 -26 -7 -40 -8 -21 -3 -25 1 -25 25 -1 20 4 27 17 27 10 0 22
8 25 18 7 18 22 32 37 32 5 0 3 -6 -3 -13z m3695 -86 c-8 -12 -46 -21 -46 -11
0 9 18 18 38 19 7 1 11 -3 8 -8z m-3566 -11 c-20 -13 -43 -13 -35 0 3 6 16 10
28 10 18 0 19 -2 7 -10z m389 1 c8 -5 11 -16 8 -26 -8 -20 -23 -13 -30 15 -6
22 0 25 22 11z m1381 -1 c0 -13 -11 -13 -30 0 -12 8 -11 10 8 10 12 0 22 -4
22 -10z m-2548 -12 c6 -16 -2 -58 -11 -58 -3 0 -6 16 -7 35 0 34 10 47 18 23z
m1108 -3 c14 -16 10 -18 -14 -9 -9 3 -16 10 -16 15 0 14 16 11 30 -6z m1387
-22 c-3 -10 -5 -4 -5 12 0 17 2 24 5 18 2 -7 2 -21 0 -30z m1783 27 c0 -5 -10
-10 -22 -10 -19 0 -20 2 -8 10 19 13 30 13 30 0z m-65 -20 c-3 -5 -13 -10 -21
-10 -8 0 -12 5 -9 10 3 6 13 10 21 10 8 0 12 -4 9 -10z m-3710 -10 c3 -5 2
-10 -4 -10 -5 0 -13 5 -16 10 -3 6 -2 10 4 10 5 0 13 -4 16 -10z m565 0 c0 -5
-2 -10 -4 -10 -3 0 -8 5 -11 10 -3 6 -1 10 4 10 6 0 11 -4 11 -10z m1799 -97
c53 -48 105 -95 115 -105 11 -9 17 -20 13 -24 -5 -6 -228 190 -235 208 -9 21
19 0 107 -79z m-2849 42 c17 -9 30 -20 30 -26 0 -11 -21 -1 -55 25 -26 20 -12
20 25 1z m-27 -45 c-6 -22 -23 -38 -23 -21 0 17 12 41 20 41 5 0 6 -9 3 -20z
m231 4 c25 -4 46 -11 46 -17 0 -11 -106 0 -130 14 -19 11 16 12 84 3z m-423
-51 c-9 -16 -10 -14 -11 12 0 21 3 26 11 18 8 -8 8 -16 0 -30z m1259 12 c0 -8
-4 -15 -10 -15 -5 0 -10 7 -10 15 0 8 5 15 10 15 6 0 10 -7 10 -15z m-1514
-22 c-10 -10 -19 5 -10 18 6 11 8 11 12 0 2 -7 1 -15 -2 -18z m1947 -60 c-6
-69 -9 -81 -18 -71 -8 8 6 138 15 138 4 0 5 -30 3 -67z m2056 41 c2 -2 2 -6 0
-9 -8 -7 -49 7 -49 17 0 8 38 2 49 -8z m-3752 -31 c-3 -10 -5 -4 -5 12 0 17 2
24 5 18 2 -7 2 -21 0 -30z m-368 -15 c1 -5 -3 -8 -9 -8 -5 0 -10 12 -9 28 0
24 1 25 9 7 5 -11 9 -23 9 -27z m102 9 c-8 -8 -11 -7 -11 4 0 20 13 34 18 19
3 -7 -1 -17 -7 -23z m4074 23 c-3 -5 -13 -10 -21 -10 -8 0 -14 5 -14 10 0 6 9
10 21 10 11 0 17 -4 14 -10z m55 0 c0 -5 -7 -10 -15 -10 -8 0 -15 5 -15 10 0
6 7 10 15 10 8 0 15 -4 15 -10z m-3710 -32 c0 -7 -5 -20 -10 -28 -8 -13 -10
-12 -10 3 0 9 -7 17 -15 17 -8 0 -15 5 -15 10 0 6 11 10 25 10 14 0 25 -6 25
-12z m-450 -23 c-10 -12 -10 -15 4 -15 23 0 20 -17 -6 -31 -18 -10 -20 -9 -15
4 3 9 1 18 -6 20 -8 3 -6 11 7 26 21 24 36 20 16 -4z m320 -11 c0 -8 -4 -12
-10 -9 -5 3 -10 13 -10 21 0 8 5 12 10 9 6 -3 10 -13 10 -21z m1275 16 c3 -5
1 -10 -5 -10 -8 0 -10 -9 -6 -26 5 -19 3 -25 -6 -21 -7 2 -12 14 -11 26 2 13
-3 21 -12 21 -8 0 -15 5 -15 10 0 6 11 10 24 10 14 0 28 -4 31 -10z m2855 0
c0 -5 -11 -10 -25 -10 -14 0 -25 5 -25 10 0 6 11 10 25 10 14 0 25 -4 25 -10z
m-4252 -25 c59 -14 78 -26 41 -24 -48 2 -122 24 -127 38 -3 10 0 12 14 7 11
-5 43 -14 72 -21z m3434 -88 c-5 -10 -112 92 -112 107 0 5 26 -15 58 -45 32
-30 56 -58 54 -62z m871 106 c-7 -2 -19 -2 -25 0 -7 3 -2 5 12 5 14 0 19 -2
13 -5z m77 -3 c0 -5 -9 -10 -19 -10 -11 0 -23 5 -26 10 -4 6 5 10 19 10 14 0
26 -4 26 -10z m-4617 -15 c4 -8 2 -17 -3 -20 -6 -4 -10 -1 -10 4 0 6 -7 11
-15 11 -8 0 -15 5 -15 10 0 16 37 12 43 -5z m107 -15 c0 -13 -11 -13 -30 0
-12 8 -11 10 8 10 12 0 22 -4 22 -10z m383 -15 c4 -8 2 -17 -2 -20 -5 -2 -11
4 -14 15 -6 23 8 27 16 5z m12 -45 c3 -5 1 -10 -4 -10 -6 0 -11 5 -11 10 0 6
2 10 4 10 3 0 8 -4 11 -10z m1565 -21 c7 -11 8 -24 4 -27 -4 -4 -9 -1 -11 6
-4 10 -10 9 -26 -5 -11 -10 -17 -13 -14 -7 4 7 0 14 -8 18 -11 4 -15 -2 -15
-20 0 -14 -4 -22 -10 -19 -29 18 2 64 38 57 17 -3 23 -1 18 7 -4 6 -3 11 3 11
6 0 15 -9 21 -21z m1593 -52 c-31 -32 -57 -82 -113 -212 -40 -93 -81 -186 -91
-205 -21 -41 -25 -24 -5 23 8 18 46 106 85 196 55 129 80 174 113 208 23 23
44 40 47 38 3 -3 -13 -24 -36 -48z m-3153 24 c0 -11 -4 -23 -10 -26 -6 -4 -10
5 -10 19 0 14 5 26 10 26 6 0 10 -9 10 -19z m1130 9 c0 -13 -40 -13 -60 0 -11
7 -5 10 23 10 20 0 37 -4 37 -10z m50 -10 c12 -8 11 -10 -7 -10 -13 0 -23 5
-23 10 0 13 11 13 30 0z m2846 -17 c-10 -10 -19 5 -10 18 6 11 8 11 12 0 2 -7
1 -15 -2 -18z m-2776 -3 c0 -13 -11 -13 -30 0 -12 8 -11 10 8 10 12 0 22 -4
22 -10z m50 -10 c12 -8 11 -10 -7 -10 -13 0 -23 5 -23 10 0 13 11 13 30 0z
m1963 -4 c9 -7 17 -18 17 -23 0 -5 33 -79 74 -164 40 -85 147 -318 236 -519
89 -201 196 -425 237 -498 41 -74 72 -136 69 -139 -8 -8 -4 -16 -89 142 -42
77 -155 316 -251 530 -212 474 -302 665 -316 665 -5 0 -10 5 -10 10 0 13 11
12 33 -4z m717 4 c9 14 50 4 50 -12 0 -5 -7 -7 -16 -4 -9 4 -23 1 -31 -6 -11
-9 -19 -7 -36 11 l-22 23 24 -12 c18 -9 25 -9 31 0z m-2900 -44 c23 -38 51
-165 43 -196 -4 -14 -14 -20 -34 -20 -16 0 -29 5 -29 10 0 6 11 10 25 10 14 0
25 6 25 13 -2 46 -30 149 -48 174 -24 34 -27 43 -13 43 5 0 19 -15 31 -34z
m277 28 c-3 -3 -12 -4 -19 -1 -8 3 -5 6 6 6 11 1 17 -2 13 -5z m363 -3 c-33
-19 -130 -33 -213 -29 -62 2 -87 0 -87 -9 0 -6 -5 -15 -11 -19 -7 -4 -9 1 -7
12 2 12 -4 24 -17 31 -20 12 -20 12 3 13 12 0 22 -3 22 -7 0 -15 183 -14 235
1 59 17 99 20 75 7z m2494 3 c15 -6 11 -34 -6 -34 -5 0 -6 5 -2 11 3 6 0 15
-7 20 -16 10 -8 12 15 3z m-104 -24 c0 -5 -11 -10 -25 -10 -14 0 -25 5 -25 10
0 6 11 10 25 10 14 0 25 -4 25 -10z m45 0 c3 -5 13 -6 23 -3 9 3 14 3 10 -2
-4 -4 -1 -14 7 -22 20 -20 19 -28 -6 -30 -13 -1 -19 3 -16 11 3 8 -5 19 -19
26 -13 8 -24 17 -24 22 0 11 17 10 25 -2z m-205 -25 c-7 -9 -15 -13 -18 -10
-3 2 1 11 8 20 7 9 15 13 18 10 3 -2 -1 -11 -8 -20z m-130 5 c8 -5 11 -12 7
-16 -4 -4 -15 0 -24 9 -18 18 -8 23 17 7z m-2862 -47 c-1 -10 7 -54 17 -98 24
-107 22 -147 -7 -129 -7 5 -21 7 -32 5 -10 -1 -34 0 -53 4 l-34 6 21 29 c11
15 20 38 20 49 0 12 5 21 10 21 6 0 10 -14 10 -31 0 -27 3 -30 27 -27 21 2 29
-2 35 -22 5 -17 6 -14 2 10 -4 19 -8 46 -10 60 -2 14 -8 44 -15 67 -6 24 -9
49 -5 58 7 20 15 19 14 -2z m2917 6 c11 -17 0 -20 -21 -4 -17 13 -17 14 -2 15
9 0 20 -5 23 -11z m38 -21 c-6 -31 -23 -38 -23 -10 0 16 20 46 26 39 1 -1 0
-14 -3 -29z m242 -16 c-16 -16 -17 -16 -10 5 5 19 3 22 -12 16 -16 -6 -16 -5
-5 10 13 15 16 15 29 1 14 -14 14 -17 -2 -32z m-5097 26 c-2 -6 -10 -14 -16
-16 -7 -2 -10 2 -6 12 7 18 28 22 22 4z m2333 -25 c-10 -17 -10 -16 -11 3 0
23 13 41 18 25 2 -6 -1 -18 -7 -28z m2878 25 c14 5 14 3 3 -11 -11 -13 -17
-14 -32 -5 -10 7 -16 16 -13 21 3 5 10 4 15 -1 6 -6 18 -8 27 -4z m-449 -22
c0 -2 -9 -6 -20 -9 -11 -3 -20 -1 -20 4 0 5 9 9 20 9 11 0 20 -2 20 -4z m55
-6 c3 -5 -3 -10 -14 -10 -12 0 -21 5 -21 10 0 6 6 10 14 10 8 0 18 -4 21 -10z
m241 -5 c-3 -9 0 -15 9 -15 18 0 19 -12 4 -27 -9 -9 -15 -8 -25 2 -17 17 -18
27 -2 43 16 16 21 15 14 -3z m-5092 -19 c-6 -16 -24 -23 -24 -8 0 10 22 33 27
28 2 -2 1 -11 -3 -20z m4721 14 c-27 -12 -35 -12 -35 0 0 6 12 10 28 9 24 0
25 -1 7 -9z m205 0 c12 -8 11 -10 -7 -10 -13 0 -23 5 -23 10 0 13 11 13 30 0z
m350 -5 c14 -16 10 -18 -14 -9 -9 3 -16 10 -16 15 0 14 16 11 30 -6z m-285 -5
c3 -5 -3 -10 -14 -10 -12 0 -21 5 -21 10 0 6 6 10 14 10 8 0 18 -4 21 -10z
m233 -15 c0 -28 0 -27 -22 -19 -12 5 -13 9 -3 25 16 26 25 24 25 -6z m-183 8
c-26 -7 -36 -24 -23 -40 12 -15 -8 -18 -29 -5 -21 14 13 52 45 51 21 -1 23 -2
7 -6z m130 -13 c3 -5 -3 -10 -14 -10 -11 0 -23 5 -26 10 -3 6 3 10 14 10 11 0
23 -4 26 -10z m115 -19 c0 -5 -9 -7 -20 -4 -11 3 -20 7 -20 9 0 2 9 4 20 4 11
0 20 -4 20 -9z m120 -1 c0 -5 -5 -10 -11 -10 -5 0 -7 5 -4 10 3 6 8 10 11 10
2 0 4 -4 4 -10z m-220 -21 c-7 -11 -14 -19 -16 -16 -7 7 7 37 17 37 6 0 5 -9
-1 -21z m-110 -11 c0 -19 -6 -23 -30 -24 -17 -1 -30 2 -30 5 0 5 43 35 58 40
1 1 2 -9 2 -21z m-3060 2 c0 -5 -4 -10 -9 -10 -6 0 -13 5 -16 10 -3 6 1 10 9
10 9 0 16 -4 16 -10z m2951 -23 c-8 -8 -11 -7 -11 4 0 20 13 34 18 19 3 -7 -1
-17 -7 -23z m406 8 c-4 -8 -11 -15 -17 -15 -7 0 -7 6 0 21 13 23 26 19 17 -6z
m-3037 -28 c0 -10 -4 -15 -10 -12 -5 3 -10 18 -10 33 0 21 2 24 10 12 5 -8 10
-23 10 -33z m2821 6 c-7 -13 -5 -23 7 -37 16 -18 16 -18 -6 -11 -17 5 -27 2
-37 -12 -14 -17 -14 -17 -15 0 0 10 7 20 15 23 8 4 15 14 15 23 0 19 8 31 22
31 5 0 5 -8 -1 -17z m-289 -15 c-7 -7 -12 -8 -12 -2 0 14 12 26 19 19 2 -3 -1
-11 -7 -17z m128 12 c-20 -13 -33 -13 -25 0 3 6 14 10 23 10 15 0 15 -2 2 -10z
m44 -14 c-3 -9 -10 -16 -15 -16 -6 0 -5 9 1 21 13 24 24 20 14 -5z m76 14 c8
-5 12 -12 9 -15 -8 -8 -39 5 -39 16 0 11 11 11 30 -1z m-179 -34 c-9 -11 -17
-11 -35 -3 -28 13 -24 31 4 22 10 -3 22 0 26 7 6 9 9 9 12 0 2 -7 -1 -19 -7
-26z m399 13 c-7 -11 -14 -18 -17 -15 -8 8 5 36 17 36 7 0 7 -6 0 -21z m-4000
-30 c0 -5 -17 -10 -37 -10 -21 -1 -30 -3 -20 -6 9 -2 17 -8 17 -13 0 -10 -50
-23 -58 -15 -3 3 1 5 10 5 9 0 14 9 14 22 -1 15 7 24 24 28 28 7 50 2 50 -11z
m3520 12 c0 -5 -7 -14 -15 -21 -16 -14 -18 -10 -9 14 6 17 24 22 24 7z m224
-6 c-4 -8 -10 -15 -15 -15 -4 0 -6 7 -3 15 4 8 10 15 15 15 4 0 6 -7 3 -15z
m-75 -27 c-8 -14 -14 -18 -17 -10 -4 13 17 46 25 38 3 -2 -1 -15 -8 -28z
m-131 10 c-2 -6 -10 -14 -16 -16 -7 -2 -10 2 -6 12 7 18 28 22 22 4z m426 -3
c-6 -16 -24 -21 -24 -7 0 11 11 22 21 22 5 0 6 -7 3 -15z m-336 -20 c-10 -23
-28 -34 -28 -18 0 7 31 43 36 43 2 0 -2 -11 -8 -25z m257 14 c11 -17 0 -20
-21 -4 -17 13 -17 14 -2 15 9 0 20 -5 23 -11z m-3875 -24 c0 -9 -6 -12 -15 -9
-8 4 -12 10 -9 15 8 14 24 10 24 -6z m431 2 c-1 -12 -15 -9 -19 4 -3 6 1 10 8
8 6 -3 11 -8 11 -12z m120 -85 c-29 -49 -54 -105 -58 -126 -3 -20 -9 -36 -13
-36 -9 0 -8 63 1 70 4 3 19 30 34 60 38 75 75 133 82 127 3 -3 -18 -46 -46
-95z m2925 89 c-8 -12 -46 -21 -46 -11 0 9 18 18 38 19 7 1 11 -3 8 -8z m228
-6 c-6 -16 -24 -21 -24 -7 0 11 11 22 21 22 5 0 6 -7 3 -15z m37 -12 c-8 -15
-10 -15 -11 -2 0 17 10 32 18 25 2 -3 -1 -13 -7 -23z m-3996 -3 c-10 -11 -20
-18 -23 -15 -7 6 18 35 31 35 5 0 2 -9 -8 -20z m4182 4 c2 -6 -5 -14 -16 -17
-15 -3 -19 0 -18 14 1 21 28 22 34 3z m-437 -15 c-7 -11 -14 -19 -16 -16 -7 7
7 37 17 37 6 0 5 -9 -1 -21z m90 -20 c-7 -11 -14 -19 -16 -16 -7 7 7 37 17 37
6 0 5 -9 -1 -21z m390 6 c14 -16 10 -18 -14 -9 -9 3 -16 10 -16 15 0 14 16 11
30 -6z m-302 -15 c-14 -22 -24 -19 -15 5 4 8 11 15 17 15 6 0 6 -7 -2 -20z
m46 -4 c-3 -9 -11 -16 -17 -16 -5 0 -2 -10 9 -22 19 -21 19 -21 0 -14 -12 4
-22 2 -27 -6 -4 -7 -11 -10 -14 -6 -4 3 5 25 20 48 26 41 42 50 29 16z m-728
-1 c-21 -16 -32 -13 -21 4 3 6 14 11 23 11 15 -1 15 -2 -2 -15z m889 -4 c-3
-6 -11 -11 -17 -11 -6 0 -6 6 2 15 14 17 26 13 15 -4z m-331 -35 c-3 -9 -10
-16 -15 -16 -6 0 -5 9 1 21 13 24 24 20 14 -5z m-3114 4 c0 -12 -8 -12 -35 0
-18 8 -17 9 8 9 15 1 27 -3 27 -9z m3204 -14 c-6 -16 -24 -23 -24 -8 0 10 22
33 27 28 2 -2 1 -11 -3 -20z m201 -6 c-10 -11 -20 -18 -23 -15 -7 6 18 35 31
35 5 0 2 -9 -8 -20z m-79 -47 c-4 -4 -11 -1 -16 7 -16 25 -11 35 7 17 9 -9 13
-20 9 -24z m-4169 5 c-3 -8 -6 -5 -6 6 -1 11 2 17 5 13 3 -3 4 -12 1 -19z
m4062 -10 c-8 -14 -14 -18 -17 -10 -4 13 17 46 25 38 3 -2 -1 -15 -8 -28z
m156 -8 c3 -5 -3 -10 -14 -10 -12 0 -21 5 -21 10 0 6 6 10 14 10 8 0 18 -4 21
-10z m-3855 -73 c14 -33 46 -77 88 -119 37 -38 63 -68 58 -68 -4 0 -36 25 -71
55 -45 40 -67 68 -80 103 -10 26 -24 56 -32 67 -17 25 -17 41 1 26 8 -6 24
-35 36 -64z m3915 53 c3 -5 -1 -10 -9 -10 -8 0 -18 5 -21 10 -3 6 1 10 9 10 8
0 18 -4 21 -10z m55 -10 c13 -8 12 -10 -2 -10 -10 0 -18 -8 -19 -17 0 -15 -2
-15 -9 2 -5 11 -9 23 -9 28 -1 10 21 9 39 -3z m50 -20 c8 -5 12 -11 9 -14 -3
-3 -14 1 -25 9 -21 16 -8 20 16 5z m-21 -29 c8 -5 9 -11 3 -15 -5 -3 -15 1
-22 9 -14 16 -3 20 19 6z m-3469 -135 c0 -8 -4 -18 -10 -21 -5 -3 -10 3 -10
14 0 12 5 21 10 21 6 0 10 -6 10 -14z m-1104 -186 c119 -40 118 -40 111 -46
-7 -7 -197 54 -211 67 -17 15 6 10 100 -21z m5024 -15 c0 -19 -4 -35 -10 -35
-5 0 -10 9 -10 19 0 11 -5 23 -12 27 -10 6 2 15 30 23 1 1 2 -15 2 -34z m-67
18 c-7 -2 -19 -2 -25 0 -7 3 -2 5 12 5 14 0 19 -2 13 -5z m127 -3 c0 -5 -9
-10 -20 -10 -11 0 -20 5 -20 10 0 6 9 10 20 10 11 0 20 -4 20 -10z m-4105
-100 c71 -71 102 -96 108 -87 6 8 7 6 3 -6 -4 -12 17 -42 69 -99 40 -46 71
-85 69 -88 -3 -3 -40 33 -81 80 -42 47 -123 130 -180 186 -56 55 -103 103
-103 107 0 18 23 0 115 -93z m4035 9 c-7 -11 -14 -19 -16 -16 -7 7 7 37 17 37
6 0 5 -9 -1 -21z m-3750 -348 c5 -17 5 -31 0 -31 -10 0 -20 26 -20 52 0 28 8
19 20 -21z m-1857 -76 c11 -25 25 -45 32 -45 8 0 11 -8 8 -20 -7 -25 -19 -26
-27 -2 -4 9 -15 33 -26 52 -20 37 -25 60 -12 60 4 0 15 -20 25 -45z m1917
-115 c0 -37 3 -123 6 -191 3 -78 2 -118 -4 -109 -5 8 -12 92 -16 185 -3 94 -9
181 -12 195 -5 24 -5 24 10 6 11 -14 16 -41 16 -86z m-2140 75 c0 -8 -4 -15
-10 -15 -5 0 -10 7 -10 15 0 8 5 15 10 15 6 0 10 -7 10 -15z m-330 -9 c0 -3
-4 -8 -10 -11 -5 -3 -10 -1 -10 4 0 6 5 11 10 11 6 0 10 -2 10 -4z m754 -31
c-6 -35 -6 -35 30 -35 20 0 36 -5 36 -10 0 -6 -16 -10 -37 -8 -37 3 -38 3 -44
-41 l-6 -43 66 6 c36 4 82 9 101 12 24 5 32 3 25 -4 -8 -8 -148 -32 -187 -32
-4 0 -8 -7 -8 -15 0 -8 -4 -15 -10 -15 -5 0 -10 7 -10 16 0 17 -23 17 -146 -2
l-40 -6 -31 82 c-26 67 -29 82 -17 87 8 3 66 0 128 -7 63 -7 119 -9 125 -6 6
4 11 15 11 25 0 16 8 31 17 31 2 0 1 -16 -3 -35z m-645 -26 c11 -19 11 -21 -3
-16 -25 10 -56 -14 -56 -43 -1 -21 -2 -22 -10 -8 -13 21 2 62 27 77 25 14 26
14 42 -10z m216 -9 c-4 -7 -23 -8 -48 -5 -53 8 -87 -5 -147 -55 -43 -36 -48
-44 -59 -107 -7 -38 -17 -75 -22 -83 -8 -11 -8 -2 -3 30 4 25 8 62 9 83 2 40
21 61 109 121 32 21 50 26 103 26 42 0 62 -4 58 -10z m-225 -29 c0 -5 -7 -12
-16 -15 -24 -9 -28 -7 -14 9 14 17 30 20 30 6z m-260 -26 c0 -8 -4 -15 -10
-15 -5 0 -10 7 -10 15 0 8 5 15 10 15 6 0 10 -7 10 -15z m865 -112 c21 -10 34
-22 31 -30 -3 -7 1 -16 8 -20 17 -10 31 -53 17 -53 -6 0 -11 7 -11 16 0 14 -3
14 -15 4 -9 -7 -19 -10 -22 -6 -4 4 -1 11 7 16 13 8 12 12 -4 27 -18 17 -18
17 -13 1 7 -21 -4 -23 -21 -6 -17 17 -15 28 6 28 14 0 14 2 3 9 -8 5 -20 7
-28 4 -13 -5 -18 9 -6 20 9 9 7 9 48 -10z m1752 -195 c-3 -8 -6 -5 -6 6 -1 11
2 17 5 13 3 -3 4 -12 1 -19z m-3680 -60 c-3 -7 -5 -2 -5 12 0 14 2 19 5 13 2
-7 2 -19 0 -25z m1768 -117 c-3 -6 -43 -32 -88 -60 -46 -27 -114 -75 -152
-105 l-70 -56 -90 1 c-49 1 -103 5 -120 10 -19 5 11 7 82 4 l112 -4 61 47 c67
51 250 171 263 172 5 0 6 -4 2 -9z m-885 -61 c0 -11 -4 -20 -10 -20 -5 0 -10
9 -10 20 0 11 5 20 10 20 6 0 10 -9 10 -20z m0 -54 c0 -8 -4 -18 -10 -21 -5
-3 -10 3 -10 14 0 12 5 21 10 21 6 0 10 -6 10 -14z m3927 -58 c-3 -8 -6 -5 -6
6 -1 11 2 17 5 13 3 -3 4 -12 1 -19z m-3937 -8 c0 -11 -4 -20 -9 -20 -5 0 -7
9 -4 20 3 11 7 20 9 20 2 0 4 -9 4 -20z m0 -59 c0 -11 -4 -23 -10 -26 -6 -4
-10 5 -10 19 0 14 5 26 10 26 6 0 10 -9 10 -19z"/>
<path d="M5760 6931 c0 -6 4 -13 10 -16 6 -3 7 1 4 9 -7 18 -14 21 -14 7z"/>
<path d="M3451 5024 c-29 -13 -68 -24 -86 -24 l-32 0 40 -115 c32 -90 45 -115
59 -115 10 0 18 -4 18 -8 0 -16 46 -6 79 17 19 13 32 20 30 15 -3 -5 -11 -22
-19 -37 -12 -25 -12 -30 1 -38 8 -5 10 -9 4 -10 -5 -1 -14 -2 -20 -3 -27 -3
-57 -36 -52 -55 3 -12 1 -21 -4 -21 -11 0 -11 -21 0 -39 8 -12 25 -8 98 24 48
20 89 39 91 40 2 1 8 32 13 68 10 61 9 69 -15 116 -18 34 -26 66 -26 101 0 41
-5 56 -25 75 -13 14 -35 25 -49 25 -13 0 -30 2 -38 4 -7 3 -37 -6 -67 -20z
m119 -258 c0 -3 -4 -8 -10 -11 -5 -3 -10 -1 -10 4 0 6 5 11 10 11 6 0 10 -2
10 -4z"/>
<path d="M3263 4966 c-42 -19 -53 -43 -53 -112 0 -54 1 -57 16 -38 15 19 15
18 11 -3 -4 -19 -1 -23 18 -23 13 0 31 -7 40 -16 9 -9 18 -14 21 -12 2 3 -2
11 -11 18 -22 18 -18 32 8 28 17 -2 21 -9 19 -30 -2 -23 1 -28 18 -28 11 0 23
-7 26 -15 9 -23 24 -18 23 8 -1 42 -73 232 -89 234 -8 1 -29 -4 -47 -11z m-23
-50 c0 -3 -4 -8 -10 -11 -5 -3 -10 -1 -10 4 0 6 5 11 10 11 6 0 10 -2 10 -4z"/>
<path d="M3988 4863 c-53 -37 -138 -98 -190 -134 -51 -37 -102 -69 -113 -72
-11 -2 32 -5 95 -6 63 -1 142 -4 174 -7 51 -5 58 -4 53 9 -4 11 -1 14 8 11 7
-3 16 -12 19 -20 6 -15 71 -20 80 -5 3 4 0 23 -6 42 -6 19 -14 83 -17 142 l-6
108 -97 -68z"/>
<path d="M3180 4578 c-37 -179 -40 -216 -19 -229 12 -7 12 -9 -1 -9 -12 -1
-12 -3 2 -14 15 -11 15 -15 2 -40 -7 -16 -14 -46 -14 -68 l0 -40 38 8 c20 5
69 9 107 9 l70 0 3 33 c3 31 15 41 27 22 3 -5 12 -7 20 -3 8 3 15 0 15 -6 0
-6 -5 -11 -11 -11 -5 0 -7 -5 -3 -11 3 -6 0 -16 -7 -21 -10 -6 1 -8 34 -5 26
3 47 1 47 -3 0 -5 3 -15 6 -24 3 -9 1 -16 -5 -16 -6 0 -11 7 -11 15 0 12 -6
14 -27 8 -33 -9 -77 -9 -158 1 -38 5 -75 4 -102 -3 l-43 -12 0 -86 c0 -82 2
-88 33 -129 36 -48 39 -50 60 -30 10 11 17 12 25 4 9 -9 25 -5 62 12 57 26 80
21 28 -7 l-33 -18 36 -3 c35 -3 37 -5 43 -49 8 -63 8 -75 -4 -68 -5 3 -10 17
-10 31 0 13 -4 24 -10 24 -5 0 -10 9 -10 19 0 11 -4 22 -9 25 -11 7 -129 11
-136 5 -3 -3 23 -70 57 -147 l63 -142 38 0 c39 0 71 12 94 36 16 15 132 41
268 60 17 2 64 6 105 9 74 5 191 22 198 30 2 2 1 33 -3 69 -6 53 -11 67 -27
72 -28 9 -31 1 -20 -50 5 -25 6 -46 2 -46 -5 0 -11 15 -15 33 -12 62 -15 64
-58 71 -30 5 -38 9 -27 16 12 8 12 10 -3 16 -10 4 -17 16 -16 33 0 24 1 24 9
5 11 -28 51 -52 99 -60 49 -8 47 -16 26 145 -12 96 -13 115 -1 134 20 31 27
147 9 147 -7 0 -13 5 -13 10 0 6 9 10 19 10 11 0 23 5 26 10 9 14 -38 13 -53
-2 -8 -8 -15 -8 -24 0 -19 15 -39 0 -52 -40 -8 -22 -18 -34 -33 -36 -18 -3
-23 -10 -23 -32 0 -16 -4 -31 -9 -34 -5 -3 -7 -16 -3 -29 5 -20 4 -21 -11 -8
-15 12 -17 11 -18 -5 0 -12 -3 -14 -6 -6 -4 10 -10 10 -29 -3 -29 -19 -32 -2
-3 18 17 12 19 19 10 35 -15 29 -14 31 16 29 22 -2 29 3 31 21 2 12 -1 22 -7
22 -6 0 -7 8 -4 18 6 15 5 15 -10 3 -9 -7 -17 -20 -17 -27 0 -19 -25 -18 -41
2 -12 15 -11 16 8 10 16 -5 23 -2 28 14 3 11 13 20 21 20 8 0 23 9 34 20 11
11 23 19 28 18 4 -1 23 4 43 10 l37 13 -14 57 c-7 31 -13 80 -14 109 0 45 3
52 19 50 16 -1 17 -5 10 -25 -12 -31 -11 -80 2 -139 l11 -48 49 -3 c47 -3 69
12 32 21 -15 3 -13 6 8 16 24 12 25 17 27 97 1 83 0 85 -26 95 -31 12 -373 30
-414 22 -16 -3 -28 -9 -28 -13 0 -5 10 -6 22 -2 15 4 19 2 14 -7 -6 -8 -21
-10 -47 -6 -21 4 -39 3 -39 -2 0 -5 -7 -18 -16 -29 -14 -17 -15 -17 -10 -1 3
11 2 16 -4 12 -6 -3 -10 -13 -10 -21 0 -11 -7 -13 -27 -8 -23 6 -25 5 -19 -12
41 -101 65 -177 60 -186 -3 -5 2 -50 11 -99 13 -68 20 -87 30 -79 14 11 95 11
95 -1 0 -4 10 -9 23 -12 22 -4 22 -4 -3 -14 -20 -8 -29 -7 -42 5 -11 9 -18 11
-18 4 0 -7 -7 -12 -15 -12 -8 0 -15 -4 -15 -10 0 -6 -10 -5 -25 2 -16 7 -29
24 -35 47 -7 29 -15 37 -35 39 -13 1 -39 9 -57 17 l-33 15 35 -5 c19 -2 46 -7
59 -11 19 -6 23 -4 18 8 -3 9 -8 37 -12 64 -14 114 -14 114 -40 114 -14 0 -25
5 -25 11 0 7 9 9 21 6 16 -4 19 -2 13 11 -4 9 -22 58 -41 107 -18 50 -38 100
-43 112 -6 14 -24 26 -49 33 -22 6 -41 16 -43 22 -3 8 -13 7 -36 -5 -27 -13
-32 -13 -32 -1 0 8 -10 14 -24 14 -23 0 -25 -7 -56 -162z m441 -31 c-1 -12
-15 -9 -19 4 -3 6 1 10 8 8 6 -3 11 -8 11 -12z m-9 -42 c0 -5 -5 -11 -11 -13
-6 -2 -11 4 -11 13 0 9 5 15 11 13 6 -2 11 -8 11 -13z m276 -31 c-1 -19 -5
-34 -10 -34 -4 0 -8 -7 -8 -15 0 -8 6 -15 12 -15 17 0 -22 -26 -49 -33 -13 -3
-23 -1 -23 5 0 5 -7 17 -16 25 -12 12 -13 18 -3 24 10 6 10 11 -1 24 -13 15
-11 16 19 12 30 -5 32 -4 27 17 -5 20 -2 23 24 24 27 1 29 -2 28 -34z m-429
13 c9 2 3 -7 -12 -21 -25 -23 -47 -33 -47 -22 0 3 5 17 10 32 8 20 14 24 22
16 6 -6 18 -8 27 -5z m158 -29 c-3 -8 -6 -5 -6 6 -1 11 2 17 5 13 3 -3 4 -12
1 -19z m58 -58 c4 -12 1 -27 -5 -35 -13 -16 -31 -11 -29 8 3 25 -1 38 -11 32
-5 -3 -10 -1 -10 4 0 21 48 12 55 -9z m80 10 c3 -5 -3 -10 -14 -10 -12 0 -21
5 -21 10 0 6 6 10 14 10 8 0 18 -4 21 -10z m-5 -56 c0 -8 -4 -12 -10 -9 -5 3
-10 10 -10 16 0 5 5 9 10 9 6 0 10 -7 10 -16z m-417 -2 c8 -12 -32 -54 -44
-46 -8 5 -7 9 5 16 9 5 16 16 16 23 0 16 16 20 23 7z m322 -142 c-3 -5 -11
-10 -16 -10 -6 0 -7 5 -4 10 3 6 11 10 16 10 6 0 7 -4 4 -10z m15 -113 c0 -10
-4 -15 -10 -12 -5 3 -10 18 -10 33 0 21 2 24 10 12 5 -8 10 -23 10 -33z m-240
-7 c-10 -19 -40 -40 -56 -40 -4 0 5 14 21 30 33 34 51 39 35 10z m410 -45 c0
-14 -4 -25 -9 -25 -4 0 -6 11 -3 25 2 14 6 25 8 25 2 0 4 -11 4 -25z m-360
-15 c0 -11 7 -23 15 -26 21 -8 67 4 60 16 -3 6 -2 10 3 10 11 0 22 -24 22 -48
0 -12 -3 -13 -12 -4 -13 13 -64 16 -71 5 -3 -5 3 -62 13 -128 16 -111 17 -136
6 -124 -3 3 -14 67 -26 144 -11 77 -23 148 -26 158 -3 9 -1 17 5 17 6 0 11 -9
11 -20z m484 4 c13 -5 13 -10 4 -27 -17 -34 -31 -38 -47 -15 -13 19 -12 22 4
34 22 16 19 16 39 8z m-158 -59 c5 -27 2 -41 -11 -55 -10 -11 -13 -20 -8 -20
6 0 11 -11 11 -24 0 -31 -26 -24 -34 10 -4 17 -13 24 -30 24 -13 0 -24 5 -24
10 0 6 7 10 16 10 8 0 13 4 9 9 -3 5 7 11 22 13 23 2 28 8 28 31 -1 39 13 34
21 -8z m-36 -155 c0 -5 6 -7 14 -4 17 6 29 -23 14 -32 -18 -11 -68 -13 -74 -2
-3 5 2 18 12 28 21 21 34 25 34 10z"/>
<path d="M2486 4632 c-3 -3 -6 -15 -6 -27 0 -19 9 -24 59 -35 57 -12 81 -9 81
11 0 5 -7 9 -15 9 -8 0 -15 4 -15 8 0 10 -97 42 -104 34z"/>
<path d="M2635 4579 c-4 -6 -3 -15 3 -21 6 -6 11 -4 15 6 7 18 -9 31 -18 15z"/>
<path d="M2470 4551 c0 -5 -3 -16 -6 -24 -3 -10 5 -18 27 -26 41 -14 101 -15
79 -1 -13 8 -12 11 5 25 20 16 19 16 -4 9 -14 -4 -21 -2 -17 4 3 5 -8 12 -25
16 -43 8 -59 8 -59 -3z"/>
<path d="M2650 4544 c-16 -9 -24 -20 -22 -34 2 -15 -1 -19 -15 -15 -10 3 -4
-1 12 -9 17 -7 44 -17 61 -20 27 -6 32 -4 38 16 10 39 7 68 -8 68 -8 0 -20 2
-28 4 -7 2 -24 -2 -38 -10z"/>
<path d="M3085 4123 c-16 -8 -32 -17 -34 -19 -2 -2 16 -53 40 -114 38 -99 45
-111 63 -106 12 3 24 6 29 6 18 0 4 31 -27 58 l-34 30 5 81 c3 45 2 81 -3 81
-5 -1 -22 -8 -39 -17z"/>
<path d="M2957 4087 c-54 -31 -50 -39 18 -41 17 -1 29 -6 28 -13 -2 -9 45 -33
63 -33 2 0 -5 21 -15 47 -23 58 -46 68 -94 40z"/>
<path d="M2953 4002 c-3 -9 -8 -21 -10 -27 -3 -5 2 -2 11 8 11 15 22 17 48 12
40 -9 35 -2 -10 13 -28 10 -34 9 -39 -6z"/>
<path d="M3033 3965 c-6 -14 -7 -25 -3 -25 5 0 12 9 15 20 4 11 11 17 17 14 7
-4 8 -2 4 4 -11 18 -20 14 -33 -13z"/>
<path d="M2966 3971 c-6 -10 33 -23 46 -15 4 3 8 9 8 15 0 12 -47 12 -54 0z"/>
<path d="M3070 3940 c0 -5 5 -10 10 -10 6 0 10 5 10 10 0 6 -4 10 -10 10 -5 0
-10 -4 -10 -10z"/>
<path d="M3051 3906 c-15 -18 -10 -29 12 -24 9 2 12 9 8 21 -6 17 -8 18 -20 3z"/>
<path d="M3090 3911 c0 -5 5 -13 10 -16 6 -3 10 -2 10 4 0 5 -4 13 -10 16 -5
3 -10 2 -10 -4z"/>
<path d="M4180 3910 c-21 -13 1 -33 31 -28 32 4 39 38 7 38 -13 0 -30 -5 -38
-10z"/>
<path d="M3005 3900 c-3 -5 1 -10 10 -10 9 0 13 5 10 10 -3 6 -8 10 -10 10 -2
0 -7 -4 -10 -10z"/>
<path d="M4115 3900 c-3 -5 3 -10 14 -10 12 0 21 5 21 10 0 6 -6 10 -14 10 -8
0 -18 -4 -21 -10z"/>
<path d="M3165 3867 c-27 -16 -23 -30 36 -135 28 -48 55 -99 62 -114 9 -21 18
-28 40 -28 20 0 27 4 24 13 -3 6 -32 72 -64 145 -32 72 -62 132 -68 132 -5 -1
-19 -6 -30 -13z"/>
<path d="M2936 3834 c-8 -22 -8 -24 8 -24 19 0 28 27 11 34 -7 2 -16 -2 -19
-10z"/>
<path d="M3040 3843 c-34 -6 -47 -20 -33 -34 9 -9 21 -6 47 11 50 30 48 34
-14 23z"/>
<path d="M4381 3794 c0 -11 3 -14 6 -6 3 7 2 16 -1 19 -3 4 -6 -2 -5 -13z"/>
<path d="M3111 3769 c-9 -26 -8 -31 11 -38 14 -5 18 -10 10 -15 -20 -12 -3
-26 34 -26 19 0 34 3 34 6 0 14 -52 93 -65 97 -8 4 -17 -5 -24 -24z"/>
<path d="M2965 3780 c-3 -5 -1 -10 4 -10 6 0 11 5 11 10 0 6 -2 10 -4 10 -3 0
-8 -4 -11 -10z"/>
<path d="M2976 3753 l-28 -15 43 -44 c24 -24 47 -44 51 -44 16 0 7 46 -15 82
-22 36 -22 36 -51 21z"/>
<path d="M3040 3741 c0 -6 4 -13 10 -16 6 -3 7 1 4 9 -7 18 -14 21 -14 7z"/>
<path d="M4847 3734 c-4 -4 -7 -14 -7 -23 0 -11 3 -12 11 -4 6 6 10 16 7 23
-2 6 -7 8 -11 4z"/>
<path d="M4790 3675 c0 -8 4 -15 9 -15 5 0 11 7 15 15 3 9 0 15 -9 15 -8 0
-15 -7 -15 -15z"/>
<path d="M3067 3673 c-16 -15 -5 -39 22 -50 27 -10 29 -9 34 16 3 14 3 29 0
33 -5 10 -47 10 -56 1z"/>
<path d="M3168 3669 c-11 -6 -18 -22 -18 -39 0 -36 34 -49 74 -28 l26 13 -20
33 c-21 34 -34 38 -62 21z"/>
<path d="M4806 3618 c-16 -35 -32 -67 -34 -73 -3 -5 4 -2 16 8 12 11 26 16 33
11 9 -5 10 0 5 19 -9 36 6 37 96 5 44 -15 84 -26 89 -22 5 3 9 16 9 29 0 26
-34 46 -110 65 -19 5 -44 11 -55 15 -17 5 -25 -4 -49 -57z"/>
<path d="M4658 3623 c-23 -6 -32 -33 -10 -34 14 0 14 -2 -3 -9 -15 -7 -16 -9
-4 -9 12 -1 15 -8 11 -27 -5 -25 -3 -26 29 -19 52 11 71 27 74 63 3 35 -6 40
-25 17 -18 -21 -40 -19 -40 5 0 20 -2 21 -32 13z"/>
<path d="M3485 3581 c-17 -7 -15 -9 13 -13 22 -3 32 -1 32 9 0 14 -15 16 -45
4z"/>
<path d="M3413 3563 c9 -2 23 -2 30 0 6 3 -1 5 -18 5 -16 0 -22 -2 -12 -5z"/>
<path d="M3470 3530 c0 -5 5 -10 11 -10 5 0 7 5 4 10 -3 6 -8 10 -11 10 -2 0
-4 -4 -4 -10z"/>
<path d="M5376 3519 c-3 -8 -22 -77 -42 -154 -31 -114 -45 -149 -76 -190 -33
-44 -36 -51 -22 -62 9 -6 22 -9 29 -7 7 3 16 -3 19 -14 8 -24 56 -18 56 7 0
12 2 13 9 3 6 -11 20 -11 74 -1 l67 12 14 51 c21 72 76 299 73 301 -1 1 -40
15 -87 30 -47 15 -91 30 -97 33 -7 2 -15 -2 -17 -9z m-7 -226 c0 -5 -4 -17 -9
-28 -8 -18 -9 -17 -9 8 -1 15 4 27 9 27 6 0 10 -3 9 -7z m41 -62 c-10 -21 -30
-37 -30 -26 0 14 21 45 31 45 6 0 6 -7 -1 -19z"/>
<path d="M3360 3519 c0 -3 14 -42 30 -87 22 -60 30 -100 30 -148 0 -36 4 -63
9 -60 14 9 21 -21 21 -95 0 -62 2 -69 20 -69 22 0 27 -24 10 -50 -8 -13 -10
-12 -10 3 0 10 -4 15 -10 12 -5 -3 -10 -10 -10 -15 0 -14 57 -70 72 -70 9 0
10 3 2 8 -21 13 2 52 31 52 25 0 25 1 25 80 0 87 1 86 -64 81 -20 -2 -26 1
-20 10 5 9 2 10 -9 6 -19 -7 -21 1 -7 23 6 9 13 11 18 5 7 -10 82 -18 82 -9 0
15 -42 282 -46 297 -5 16 -12 18 -42 13 -21 -4 -50 -7 -65 -7 -15 0 -25 -4
-22 -9 12 -19 -7 -10 -26 13 -10 12 -18 19 -19 16z m180 -485 c0 -8 -9 -14
-20 -14 -20 0 -23 19 -5 32 12 9 25 0 25 -18z"/>
<path d="M3600 3054 c0 -8 5 -12 10 -9 6 4 8 11 5 16 -9 14 -15 11 -15 -7z"/>
<path d="M3935 2930 c3 -5 8 -10 11 -10 2 0 4 5 4 10 0 6 -5 10 -11 10 -5 0
-7 -4 -4 -10z"/>
<path d="M2790 3326 c0 -25 12 -46 26 -46 12 0 12 5 -1 30 -17 33 -25 38 -25
16z"/>
<path d="M2733 3285 c0 -8 4 -12 9 -9 4 3 8 9 8 15 0 5 -4 9 -8 9 -5 0 -9 -7
-9 -15z"/>
<path d="M2826 3262 c-2 -4 -1 -14 5 -22 7 -12 9 -10 9 8 0 23 -5 28 -14 14z"/>
<path d="M4014 2529 c-8 -13 -5 -15 29 -23 21 -5 28 -3 25 5 -6 17 -46 30 -54
18z"/>
<path d="M2226 1202 c13 -36 27 -68 29 -70 3 -3 45 1 94 8 l89 14 5 40 c3 22
4 42 3 43 -2 2 -43 8 -92 13 -49 6 -103 12 -121 14 l-32 5 25 -67z m168 23 c4
-11 -2 -15 -24 -15 -35 0 -40 17 -7 23 12 2 23 5 23 6 1 0 4 -6 8 -14z"/>
</g>
</svg>
