<?xml version="1.0" standalone="no"?>
<!DOCTYPE svg PUBLIC "-//W3C//DTD SVG 20010904//EN"
 "http://www.w3.org/TR/2001/REC-SVG-20010904/DTD/svg10.dtd">
<svg version="1.0" xmlns="http://www.w3.org/2000/svg"
 width="800.000000pt" height="800.000000pt" viewBox="0 0 800.000000 800.000000"
 preserveAspectRatio="xMidYMid meet">
<metadata>
Created by potrace 1.16, written by Peter Selinger 2001-2019
</metadata>
<g transform="translate(0.000000,800.000000) scale(0.100000,-0.100000)"
fill="#000000" stroke="none">
<path d="M0 6503 c1 -1055 4 -1501 12 -1510 7 -9 7 -13 -1 -13 -8 0 -11 -656
-11 -2490 l0 -2490 4000 0 4000 0 0 3774 c0 3585 -1 3775 -18 3780 -63 18
-364 57 -404 53 -38 -5 -52 -2 -74 15 -17 14 -46 23 -83 26 -47 4 -68 13 -132
57 -42 29 -89 55 -105 59 -16 4 -36 13 -44 20 -14 13 -261 69 -279 63 -4 -1
-31 23 -59 54 l-51 56 -108 9 c-59 5 -147 9 -195 8 -69 -1 -85 2 -81 12 4 12
-147 14 -925 14 l-930 0 -12 -49 c-11 -48 -62 -112 -77 -97 -4 4 5 17 20 29
27 21 52 90 41 109 -3 4 -1013 8 -2245 8 l-2239 0 0 -1497z m3627 1230 c-9 -9
-19 -14 -23 -11 -10 10 6 28 24 28 15 0 15 -1 -1 -17z m-13 -65 c-7 -44 -11
-54 -18 -47 -8 8 6 89 15 89 5 0 6 -19 3 -42z m741 -108 c-10 -22 -22 -40 -27
-40 -12 0 -10 6 13 51 26 52 38 43 14 -11z m-2301 15 c3 -8 1 -15 -4 -15 -6 0
-10 7 -10 15 0 8 2 15 4 15 2 0 6 -7 10 -15z m1618 -105 c13 -14 29 -45 36
-70 13 -53 21 -170 11 -170 -8 0 -19 62 -19 113 0 46 -18 92 -53 133 -15 18
-27 42 -27 55 1 22 2 22 14 -6 8 -16 25 -41 38 -55z m2908 -38 c0 -13 -12 -22
-22 -16 -10 6 -1 24 13 24 5 0 9 -4 9 -8z m-2302 -29 c-3 -5 -11 -23 -18 -40
-14 -32 -30 -44 -30 -23 0 19 30 70 41 70 6 0 9 -3 7 -7z m1200 -93 c11 0 24
-4 27 -10 4 -6 -6 -10 -21 -10 -27 0 -74 34 -74 53 0 6 10 1 23 -11 13 -12 33
-22 45 -22z m2418 9 c3 -5 -3 -9 -13 -9 -29 0 -63 12 -58 19 6 10 64 1 71 -10z
m-5861 -68 c-16 -32 -35 -49 -35 -31 0 15 31 60 41 60 5 0 3 -13 -6 -29z m166
-99 c5 -12 4 -24 0 -27 -5 -3 -14 9 -20 26 -12 36 7 37 20 1z m36 -58 c-9 -9
-28 6 -21 18 4 6 10 6 17 -1 6 -6 8 -13 4 -17z m4620 -111 c-3 -10 -5 -2 -5
17 0 19 2 27 5 18 2 -10 2 -26 0 -35z m-2581 12 c18 -15 18 -15 -5 -13 -14 2
-26 9 -29 16 -5 17 10 15 34 -3z m54 -5 c0 -5 -4 -10 -10 -10 -5 0 -10 5 -10
10 0 6 5 10 10 10 6 0 10 -4 10 -10z m3130 -145 c0 -40 -3 -47 -27 -56 -16 -7
-38 -16 -50 -22 -14 -6 -68 -8 -141 -4 l-119 6 -34 -28 c-19 -15 -52 -31 -74
-35 -22 -4 -47 -14 -56 -22 -15 -14 -19 -13 -33 7 -13 20 -19 21 -40 11 -18
-8 -24 -16 -19 -28 4 -11 2 -15 -6 -13 -7 3 -12 8 -12 12 1 4 1 13 1 20 0 7
16 21 35 30 33 16 35 16 45 -4 8 -14 15 -17 23 -11 7 5 32 12 57 16 29 5 55
17 73 34 28 27 29 27 153 23 74 -2 129 1 137 7 6 6 23 12 37 14 22 3 25 9 28
46 4 56 22 54 22 -3z m-3904 -164 c-3 -5 -43 -14 -88 -21 -46 -7 -98 -19 -115
-26 -36 -14 -45 -1 -12 17 20 10 149 35 197 38 13 0 21 -3 18 -8z m-466 -49
c0 -8 -109 -32 -145 -32 -34 0 -4 15 53 26 74 15 92 16 92 6z m3770 -123 c0
-16 -4 -19 -20 -14 -12 4 -31 0 -45 -9 -17 -11 -31 -13 -54 -6 -20 6 -29 5
-25 -1 3 -5 -2 -21 -11 -35 -16 -25 -40 -38 -93 -50 -36 -9 -18 9 28 26 41 16
59 37 60 66 0 20 3 21 37 13 27 -6 42 -4 53 6 8 7 26 15 40 18 14 2 26 5 28 6
1 0 2 -8 2 -20z m-3435 -119 c26 -52 31 -70 17 -70 -5 0 -19 23 -32 50 -20 43
-28 50 -52 50 -15 0 -28 5 -28 10 0 6 16 10 35 10 32 0 37 -4 60 -50z m3155
-9 c0 -16 -42 -61 -52 -55 -5 4 2 19 18 35 30 31 34 34 34 20z m-2984 -63 c-3
-13 -6 -45 -6 -71 0 -30 -4 -46 -10 -42 -20 12 -9 135 12 135 6 0 8 -10 4 -22z
m2904 -68 c0 -5 -4 -10 -10 -10 -5 0 -10 5 -10 10 0 6 5 10 10 10 6 0 10 -4
10 -10z m77 -129 c20 -10 32 -21 27 -24 -11 -6 -103 48 -121 72 -28 36 -11 41
22 8 20 -21 52 -45 72 -56z m-45 -39 c6 -6 6 -12 0 -16 -6 -3 -13 -3 -16 2 -2
4 -21 6 -40 4 -27 -3 -36 -9 -36 -23 0 -10 -6 -19 -13 -19 -7 0 -31 -18 -52
-40 -21 -22 -45 -40 -52 -40 -8 0 -13 -6 -11 -12 1 -7 -3 -23 -10 -35 -7 -12
-9 -28 -6 -36 6 -17 -39 -67 -61 -67 -8 0 -17 -4 -20 -10 -3 -5 -14 -10 -24
-10 -10 0 -24 -7 -31 -15 -7 -9 -19 -14 -26 -11 -7 3 -15 -1 -17 -8 -4 -11
-14 -11 -47 -3 -34 9 -43 9 -50 -3 -7 -12 -12 -12 -22 -2 -14 14 -52 16 -43 2
3 -6 -5 -10 -19 -10 -19 0 -27 8 -36 35 -13 41 -45 47 -73 15 -9 -11 -24 -20
-32 -20 -18 0 -20 -21 -3 -38 14 -14 15 -13 -49 -40 -29 -11 -55 -17 -58 -13
-2 5 14 16 38 25 38 14 42 19 42 48 0 27 4 34 23 36 16 2 22 8 18 18 -4 10 3
14 28 14 19 0 41 3 49 6 11 4 19 -5 28 -29 12 -33 13 -34 41 -22 21 8 46 9 85
3 35 -5 60 -5 66 1 5 5 15 7 22 5 6 -3 18 2 25 11 7 8 23 15 36 15 13 0 24 5
24 10 0 6 9 10 20 10 11 0 20 7 20 15 0 8 7 15 16 15 12 0 15 7 12 25 -3 14 1
30 9 36 7 7 11 20 8 30 -4 12 -1 19 7 19 14 0 118 96 118 109 0 26 88 37 112
13z m-5291 -72 c-19 -17 -38 -20 -118 -20 -60 0 -92 4 -88 10 3 6 43 10 88 10
45 0 89 5 97 10 8 5 22 10 30 10 10 -1 8 -7 -9 -20z m-287 -15 c3 -8 11 -15
19 -15 17 0 93 -78 84 -86 -4 -4 -28 12 -54 35 -27 23 -54 47 -60 52 -7 5 -13
14 -13 19 0 16 17 12 24 -5z m2794 -92 c8 -8 12 -16 9 -19 -7 -8 -67 28 -67
39 0 11 41 -2 58 -20z m37 -3 c14 -28 14 -33 -1 -65 -19 -42 -37 -38 -21 5 8
22 8 38 0 60 -15 39 2 39 22 0z m-135 -56 c0 -14 -4 -23 -10 -19 -5 3 -10 15
-10 26 0 10 5 19 10 19 6 0 10 -12 10 -26z m-154 -73 c-9 -10 -23 -39 -32 -64
-9 -26 -20 -47 -25 -47 -12 0 -12 0 6 49 17 48 47 91 58 84 5 -3 1 -13 -7 -22z
m-500 -145 c17 -13 15 -14 -19 -6 -20 4 -47 6 -60 4 -21 -4 -21 -4 -2 5 30 14
59 13 81 -3z m2563 -138 c5 -13 6 -27 3 -32 -6 -10 -20 19 -21 42 -1 20 9 14
18 -10z m-4369 4 c0 -12 -46 -32 -54 -24 -4 3 4 12 16 19 27 15 38 16 38 5z
m2390 -12 c0 -5 -13 -10 -30 -10 -16 0 -30 5 -30 10 0 6 14 10 30 10 17 0 30
-4 30 -10z m1170 -178 c0 -11 -22 -32 -34 -32 -5 0 -6 3 -3 7 4 3 -1 12 -11
19 -15 12 -14 13 16 14 17 0 32 -4 32 -8z m118 -31 c4 0 16 4 27 9 20 8 55
-13 55 -33 0 -6 -8 -3 -18 6 -28 25 -60 11 -68 -29 -8 -46 -24 -43 -21 3 2 33
-1 38 -20 41 -13 2 -23 8 -23 14 0 6 9 8 20 5 11 -3 23 0 27 6 5 8 9 6 11 -5
2 -10 7 -18 10 -17z m143 -78 c5 -40 4 -41 -30 -52 -36 -11 -55 -6 -32 8 7 5
11 19 9 32 -3 25 20 59 37 55 6 -2 12 -21 16 -43z m509 -19 c0 -3 -8 -4 -17
-2 -10 1 -24 -1 -32 -6 -27 -17 -137 -32 -164 -23 -46 15 -30 22 51 22 56 0
84 5 101 17 18 13 29 14 43 7 10 -5 18 -12 18 -15z m-593 -61 c-4 -17 -4 -17
-12 0 -4 9 -4 25 0 35 8 16 8 16 12 0 3 -10 3 -26 0 -35z m328 38 c-16 -14
-55 -23 -55 -13 0 12 17 20 45 21 11 1 15 -3 10 -8z m155 -51 c0 -5 -4 -10
-10 -10 -5 0 -10 5 -10 10 0 6 5 10 10 10 6 0 10 -4 10 -10z m-571 -22 c5 -13
6 -27 3 -32 -6 -10 -20 19 -21 42 -1 20 9 14 18 -10z m726 -66 c-11 -2 -33
-21 -48 -44 -40 -57 -46 -39 -7 21 29 47 34 50 53 39 21 -12 21 -13 2 -16z
m-1086 -14 c15 -9 18 -19 14 -45 -4 -21 0 -41 11 -58 19 -29 11 -33 -16 -8
-11 10 -18 30 -18 51 0 20 -7 44 -17 54 -18 21 -3 25 26 6z m-466 -45 l20 -23
-21 0 c-11 0 -26 -8 -31 -17 -11 -20 -12 -18 -13 30 -1 39 13 71 20 47 3 -8
14 -25 25 -37z m313 -31 c2 -35 -1 -42 -13 -38 -8 3 -19 6 -24 6 -5 0 -9 9 -9
20 0 11 -4 20 -10 20 -5 0 -10 8 -10 18 0 13 8 17 32 17 30 0 32 -2 34 -43z
m524 -9 c0 -10 7 -27 15 -37 17 -23 20 -72 5 -81 -5 -3 -10 -15 -10 -26 0 -10
-4 -19 -10 -19 -5 0 -10 11 -10 24 0 14 5 28 10 31 15 9 12 51 -5 65 -17 14
-21 60 -5 60 6 0 10 -8 10 -17z m1350 -80 c0 -22 -2 -25 -10 -13 -13 20 -13
40 0 40 6 0 10 -12 10 -27z m-1710 -3 c0 -5 -4 -10 -10 -10 -5 0 -10 5 -10 10
0 6 5 10 10 10 6 0 10 -4 10 -10z m280 -34 c0 -7 13 -25 29 -40 l29 -28 -64
-59 c-35 -32 -69 -59 -76 -59 -7 1 15 27 49 58 l62 57 -25 28 c-23 27 -34 74
-14 62 6 -3 10 -12 10 -19z m1450 -28 c0 -5 -4 -8 -10 -8 -5 0 -10 10 -10 23
0 18 2 19 10 7 5 -8 10 -18 10 -22z m-1606 -24 c3 -9 6 -31 6 -49 0 -19 4 -36
9 -39 12 -8 20 -55 10 -62 -8 -5 -13 10 -10 30 1 5 -4 16 -12 25 -16 18 -31
111 -18 111 5 0 12 -7 15 -16z m-579 -34 c3 -5 -1 -10 -9 -10 -9 0 -16 5 -16
10 0 6 4 10 9 10 6 0 13 -4 16 -10z m-94 -67 c81 -85 147 -178 136 -189 -2 -3
-28 28 -57 68 -30 40 -74 94 -99 121 -25 26 -41 47 -35 47 5 0 30 -21 55 -47z
m-126 -12 c-12 -40 -25 -10 -16 39 1 2 6 -1 12 -7 6 -6 8 -21 4 -32z m547 12
c-11 -16 -25 -46 -32 -68 -7 -22 -16 -44 -21 -49 -5 -6 -9 -56 -9 -112 l0
-103 35 6 c23 4 35 2 35 -6 0 -6 -16 -11 -35 -11 -34 0 -46 -12 -25 -25 6 -4
4 -19 -5 -42 -8 -19 -15 -49 -15 -66 0 -24 -3 -28 -12 -19 -9 9 -8 24 2 66 7
29 9 59 5 66 -6 9 -29 11 -86 7 -44 -3 -81 -2 -84 3 -3 4 33 11 80 15 83 7 85
8 85 32 0 14 -8 32 -17 39 -13 10 -14 13 -4 14 11 0 11 3 1 15 -7 9 -9 19 -5
23 4 4 10 1 12 -5 11 -30 23 -9 23 38 0 54 33 161 58 192 24 28 35 20 14 -10z
m68 17 c0 -5 -5 -10 -11 -10 -5 0 -7 5 -4 10 3 6 8 10 11 10 2 0 4 -4 4 -10z
m790 -6 c0 -8 -4 -12 -10 -9 -5 3 -10 10 -10 16 0 5 5 9 10 9 6 0 10 -7 10
-16z m-1346 -37 c-11 -5 -20 -11 -22 -12 -1 -1 7 -22 18 -46 20 -44 27 -91 12
-73 -10 10 -54 126 -50 129 17 13 44 22 52 18 5 -3 0 -10 -10 -16z m30 -38
c-3 -5 -10 -7 -15 -3 -5 3 -7 10 -3 15 3 5 10 7 15 3 5 -3 7 -10 3 -15z m771
-11 c-4 -18 -12 -39 -17 -45 -7 -9 -7 -13 1 -13 6 0 10 -11 9 -25 -2 -23 -28
-37 -28 -15 0 6 4 10 9 10 5 0 4 11 -2 25 -7 14 -15 25 -19 25 -10 0 35 69 45
70 5 0 5 -15 2 -32z m-871 14 c3 -5 0 -26 -7 -47 -8 -27 -8 -40 -1 -42 15 -5
5 -53 -11 -53 -7 0 -17 -24 -24 -57 -14 -69 -14 -86 -1 -78 6 3 10 1 10 -5 0
-6 -10 -10 -22 -8 -24 3 -31 29 -17 58 12 25 38 132 45 188 6 48 16 64 28 44z
m1035 -132 c-6 -51 -15 -82 -29 -100 -11 -14 -25 -37 -31 -52 -9 -22 -18 -28
-42 -29 -18 -1 -36 0 -42 1 -5 2 -27 5 -48 6 -21 2 -44 7 -51 13 -7 6 -17 6
-26 1 -19 -12 -40 -13 -40 -1 0 5 12 12 28 17 30 8 30 8 53 -1 13 -5 18 3 23
34 3 23 10 41 15 41 6 0 6 -13 0 -32 -12 -44 -14 -42 29 -55 74 -23 117 18 62
58 -19 14 -26 27 -23 40 3 11 0 26 -7 34 -19 22 -3 31 19 11 11 -10 16 -25 13
-41 -3 -19 2 -27 22 -36 18 -8 30 -9 37 -2 14 14 30 166 18 178 -5 5 -9 14 -9
19 0 6 8 2 19 -9 17 -18 18 -28 10 -95z m-279 34 c0 -14 -4 -23 -10 -19 -5 3
-10 15 -10 26 0 10 5 19 10 19 6 0 10 -12 10 -26z m-585 -22 c15 -11 37 -53
31 -60 -3 -3 -7 -3 -9 -1 -1 2 -12 19 -25 37 -21 30 -20 41 3 24z m234 -3 c17
-6 31 -15 31 -19 0 -5 -13 -4 -29 1 -25 9 -36 6 -71 -16 -23 -14 -46 -25 -52
-23 -6 2 12 18 38 35 27 17 49 32 50 32 1 1 15 -4 33 -10z m806 -48 c7 -55 -3
-82 -40 -107 -28 -19 -31 -32 -11 -59 13 -18 14 -18 40 3 21 16 36 20 59 15
42 -8 155 -65 140 -70 -6 -2 -33 7 -60 20 -76 38 -102 42 -128 17 -16 -15 -30
-20 -44 -15 -12 3 -46 -4 -84 -19 -47 -19 -82 -26 -133 -26 -82 0 -211 23
-228 40 -8 10 -6 11 14 6 54 -15 68 -16 170 -22 95 -5 111 -3 165 19 56 22 60
26 57 53 -2 16 -11 34 -20 41 -43 31 -51 40 -58 66 -3 16 -2 27 4 27 5 0 13
-11 16 -24 3 -13 22 -33 42 -45 60 -35 93 1 81 90 -3 21 -1 39 3 39 4 0 11
-22 15 -49z m-542 -1 c3 -11 1 -20 -4 -20 -5 0 -9 2 -9 4 0 2 -3 11 -6 20 -3
9 -2 16 4 16 5 0 12 -9 15 -20z m-539 -14 c4 -16 12 -23 23 -21 10 2 41 6 69
9 l50 5 3 -45 c1 -25 -2 -44 -9 -44 -5 0 -10 13 -10 29 0 25 -4 30 -27 33 -48
5 -85 -3 -79 -18 3 -8 1 -14 -4 -14 -5 0 -12 9 -15 20 -10 32 -28 24 -23 -10
7 -45 -10 -47 -18 -4 -5 27 -3 40 8 48 8 6 13 17 11 24 -3 6 0 12 5 12 5 0 13
-11 16 -24z m3430 -52 c50 -9 95 -21 101 -25 13 -13 -11 -11 -102 6 -43 8
-106 15 -140 15 -34 0 -65 5 -68 10 -10 16 105 12 209 -6z m-3406 -93 c14 -46
15 -61 3 -61 -5 0 -12 16 -15 36 -4 19 -10 42 -13 50 -3 8 -1 14 4 14 6 0 15
-17 21 -39z m2582 -46 c-24 -25 -110 -60 -110 -45 0 5 19 18 43 28 23 11 51
29 62 41 12 14 21 18 23 11 2 -6 -6 -22 -18 -35z m-2482 -34 c20 -60 20 -71
-4 -71 -14 0 -55 83 -53 109 0 9 11 -8 25 -36 28 -63 39 -70 19 -12 -15 41
-19 69 -11 69 2 0 13 -27 24 -59z m-408 30 c0 -11 -4 -23 -10 -26 -6 -4 -9 5
-8 19 3 30 18 35 18 7z m229 -25 c-10 -10 -59 -17 -59 -9 0 15 44 32 54 22 5
-5 8 -11 5 -13z m1582 -49 c-6 -15 -15 -27 -21 -27 -13 0 -13 4 7 48 18 42 31
23 14 -21z m-1761 33 c0 -5 -4 -10 -10 -10 -5 0 -10 5 -10 10 0 6 5 10 10 10
6 0 10 -4 10 -10z m959 -31 c13 -44 7 -67 -7 -28 -19 51 -23 69 -14 69 5 0 14
-18 21 -41z m1170 25 c2 -2 2 -7 -2 -10 -8 -9 -107 6 -107 16 0 8 99 2 109 -6z
m71 -14 c11 -7 7 -10 -17 -10 -17 0 -35 5 -38 10 -8 13 35 13 55 0z m1050 0
c0 -12 -57 -12 -85 0 -15 6 -6 9 33 9 28 1 52 -3 52 -9z m-2476 -79 c-5 -11
-9 -4 -14 24 -3 22 -4 44 -1 50 8 16 23 -56 15 -74z m-289 26 c17 -3 18 -5 4
-11 -21 -9 -102 12 -94 24 3 5 19 5 38 0 17 -5 41 -10 52 -13z m2345 14 c0 -5
-23 -14 -50 -20 -61 -13 -60 -13 -60 -2 0 4 24 13 53 18 28 6 53 11 55 12 1 0
2 -3 2 -8z m-2441 -86 c28 -75 69 -155 80 -155 18 0 33 31 37 72 2 34 -2 46
-21 63 -16 15 -28 19 -38 13 -9 -5 -18 -4 -21 1 -19 31 107 9 140 -24 14 -13
13 -15 -9 -15 -51 0 -40 -72 18 -120 8 -7 15 -20 15 -29 -1 -10 -13 -2 -35 24
l-34 40 -33 -30 c-18 -17 -35 -33 -38 -36 -28 -33 -214 -188 -221 -183 -13 8
-11 -7 6 -56 8 -23 15 -53 15 -66 0 -19 5 -24 26 -24 15 0 33 8 40 18 12 15
13 14 14 -10 0 -26 -2 -28 -45 -28 -29 0 -45 -4 -45 -12 0 -7 -6 -24 -13 -38
-7 -14 -12 -37 -12 -52 1 -16 -3 -28 -8 -28 -13 0 -3 110 11 119 15 9 18 101
4 126 -6 11 -21 50 -32 88 -17 53 -28 70 -51 82 -39 21 -37 27 4 10 24 -10 37
-25 52 -62 10 -26 20 -50 22 -52 2 -3 223 190 223 196 0 2 -27 66 -76 181 -16
38 -18 56 -5 47 5 -3 19 -30 30 -60z m2881 0 c0 -19 39 -45 67 -45 21 0 22 -4
22 -72 -1 -40 -4 -77 -7 -83 -3 -5 -5 -24 -3 -41 2 -30 -22 -64 -36 -50 -4 4
-1 11 6 16 10 5 12 19 8 44 -3 20 -1 38 4 41 12 8 12 52 -1 60 -6 4 -5 13 2
24 14 23 4 51 -19 51 -31 0 -63 29 -63 56 0 14 4 22 10 19 6 -3 10 -12 10 -20z
m351 -11 c28 -14 49 -28 45 -31 -7 -7 -116 38 -116 49 0 14 19 9 71 -18z
m-2661 -13 c0 -10 -80 -64 -86 -58 -6 5 67 67 78 67 5 0 8 -4 8 -9z m-960 -86
c13 -14 21 -25 18 -25 -2 0 -15 11 -28 25 -13 14 -21 25 -18 25 2 0 15 -11 28
-25z m1100 -33 c0 -10 -99 -46 -107 -38 -3 3 7 10 23 16 16 6 38 14 49 19 26
12 35 13 35 3z m-1052 -33 c-3 -8 -7 -3 -11 10 -4 17 -3 21 5 13 5 -5 8 -16 6
-23z m892 27 c0 -9 -112 -262 -120 -270 -21 -21 -19 4 4 45 14 24 34 73 46
109 26 78 47 120 60 120 6 0 10 -2 10 -4z m-359 -106 c-25 -21 -41 -28 -57
-24 -23 6 -22 3 17 -88 22 -51 50 -117 61 -145 12 -29 25 -53 29 -53 5 0 9 -8
9 -17 0 -23 35 -81 63 -104 18 -15 40 -18 112 -19 50 0 107 -5 128 -11 31 -8
47 -7 90 9 46 18 56 18 79 6 21 -11 27 -23 33 -65 6 -44 4 -54 -15 -74 -20
-21 -21 -30 -15 -90 6 -50 5 -66 -4 -61 -6 4 -11 24 -12 44 -1 20 -4 48 -8 62
-5 19 -2 29 17 44 21 17 24 25 19 64 -3 28 -12 51 -23 59 -21 15 -38 17 -29 3
3 -5 0 -7 -9 -4 -8 3 -24 0 -36 -6 -24 -13 -101 -19 -94 -8 3 5 -43 8 -101 8
-93 0 -109 3 -136 22 -39 29 -83 107 -140 248 -45 111 -48 115 -75 113 -29 -3
-29 -3 -6 9 23 11 24 20 7 62 -7 16 -5 17 23 11 24 -5 38 -2 58 14 41 32 54
24 15 -9z m53 -5 c-4 -8 -10 -15 -15 -15 -4 0 -6 7 -3 15 4 8 10 15 15 15 4 0
6 -7 3 -15z m2686 -90 c0 -8 4 -15 9 -15 20 0 39 -31 45 -75 11 -68 2 -82 -59
-101 -59 -19 -69 -34 -48 -76 7 -16 9 -28 4 -28 -16 0 -36 44 -33 72 3 23 11
29 55 44 29 9 56 20 61 24 4 5 5 31 1 60 -6 40 -12 54 -30 62 -13 6 -26 18
-29 27 -3 9 -9 22 -12 29 -5 11 -2 12 15 3 11 -7 21 -18 21 -26z m-2830 -35
c0 -5 -4 -10 -10 -10 -5 0 -10 5 -10 10 0 6 5 10 10 10 6 0 10 -4 10 -10z
m2656 -76 c-11 -7 -22 -11 -25 -8 -3 3 3 12 13 20 11 7 22 11 25 8 3 -3 -3
-12 -13 -20z m-2262 -61 c29 -58 42 -113 27 -113 -6 0 -11 8 -11 18 0 9 -11
41 -25 70 -14 30 -25 58 -25 63 0 19 11 7 34 -38z m2136 28 c0 -11 -117 -81
-136 -81 -8 0 -14 5 -14 11 0 5 4 8 8 5 5 -3 37 13 73 34 73 45 69 43 69 31z
m-2661 -82 c-13 -26 -23 -18 -14 10 3 12 11 19 16 16 5 -4 5 -14 -2 -26z m79
-116 c45 -3 82 -10 82 -14 0 -14 28 -10 33 4 2 6 8 9 12 5 5 -5 0 -17 -10 -28
-18 -20 -18 -23 4 -118 31 -134 31 -132 46 -132 7 0 20 7 29 15 16 17 76 21
76 5 0 -5 -9 -10 -20 -10 -10 0 -35 -7 -54 -16 -30 -15 -33 -20 -26 -40 5 -13
5 -26 1 -28 -9 -6 -51 95 -51 121 0 8 -7 39 -16 69 -13 45 -19 54 -38 54 -15
0 -32 12 -47 35 -27 39 -47 51 -63 35 -18 -18 -30 -11 -12 9 16 17 15 19 -21
24 -21 4 -42 2 -50 -5 -7 -6 -16 -8 -20 -4 -10 10 30 36 47 30 8 -3 52 -8 98
-11z m-139 -49 c2 -2 2 -7 -2 -10 -9 -10 -97 29 -97 43 0 8 16 5 48 -9 26 -11
49 -22 51 -24z m-131 -8 c-10 -7 -18 -18 -18 -24 0 -13 -67 -72 -81 -72 -6 0
-8 -7 -5 -16 4 -10 1 -14 -6 -12 -8 3 -13 21 -13 44 0 34 3 39 25 42 13 2 37
15 53 28 16 13 36 24 45 24 16 -1 15 -2 0 -14z m3246 -62 c-13 -19 -14 -27 -4
-39 10 -13 8 -19 -14 -36 -15 -12 -26 -30 -26 -45 0 -16 -6 -24 -17 -25 -10 0
-13 -3 -6 -5 15 -7 5 -35 -19 -52 -22 -16 -23 -36 -3 -56 17 -17 3 -31 -22
-22 -11 5 -14 2 -9 -11 4 -10 4 -14 0 -10 -7 7 -41 -32 -37 -43 1 -3 -9 -7
-23 -8 -13 -1 -24 3 -24 8 0 6 4 10 10 10 17 0 50 43 50 67 0 16 4 21 15 17
13 -5 14 -2 6 19 -8 21 -6 26 15 38 19 10 24 18 19 36 -4 17 -1 23 11 23 10 0
14 5 11 14 -4 9 7 28 22 45 17 19 25 33 19 39 -12 12 19 75 32 67 6 -4 3 -16
-6 -31z m-1047 -110 c-3 -3 -12 -4 -19 -1 -8 3 -5 6 6 6 11 1 17 -2 13 -5z
m857 -330 c9 -70 8 -84 -10 -84 -14 0 -14 -3 -4 -15 8 -10 10 -29 6 -56 -4
-27 -3 -38 4 -34 6 4 9 1 8 -6 -2 -7 20 -26 49 -41 28 -16 55 -38 58 -48 4
-11 11 -20 16 -20 5 0 2 -11 -7 -25 -15 -22 -14 -25 4 -46 11 -11 25 -18 31
-14 6 3 11 -1 11 -9 0 -11 -9 -16 -30 -16 -21 0 -28 4 -24 14 3 9 -3 17 -15
21 -19 6 -20 9 -7 33 20 37 2 68 -55 97 -52 27 -63 44 -60 96 1 21 -4 40 -13
48 -17 15 -10 41 11 41 13 0 14 10 8 55 -4 32 -3 55 3 55 5 0 12 -21 16 -46z
m715 -301 c31 -64 42 -101 30 -108 -5 -4 -9 3 -9 14 0 12 -12 43 -27 71 -35
62 -59 65 -98 13 -33 -46 -92 -103 -106 -103 -5 0 -9 -39 -9 -88 0 -67 -7
-111 -30 -191 -16 -57 -32 -106 -35 -109 -12 -12 -3 38 20 113 28 89 35 241
13 263 -9 9 -9 12 0 12 24 0 99 62 131 110 29 42 39 50 66 50 27 0 34 -6 54
-47z m-179 -233 c0 -5 -7 -10 -16 -10 -8 0 -12 5 -9 10 3 6 10 10 16 10 5 0 9
-4 9 -10z m-160 -156 c-18 -21 -24 -10 -9 18 8 14 14 18 17 10 2 -7 -2 -19 -8
-28z m50 -216 c0 -4 -13 -5 -30 -1 -20 4 -30 2 -30 -7 0 -7 7 -10 15 -6 8 3
15 1 15 -4 0 -6 -5 -10 -11 -10 -7 0 -18 -8 -25 -17 -12 -16 -13 -14 -14 18 0
47 14 60 51 46 16 -6 29 -15 29 -19z m-90 12 c0 -5 -7 -10 -16 -10 -8 0 -12 5
-9 10 3 6 10 10 16 10 5 0 9 -4 9 -10z"/>
<path d="M4980 5170 c0 -5 5 -10 10 -10 6 0 10 5 10 10 0 6 -4 10 -10 10 -5 0
-10 -4 -10 -10z"/>
<path d="M4150 3291 c0 -18 42 -61 60 -61 14 0 17 5 13 23 -3 12 -10 28 -16
35 -11 14 -57 17 -57 3z"/>
<path d="M3768 3213 c-19 -5 -25 -23 -9 -23 17 0 41 12 41 21 0 9 -4 10 -32 2z"/>
<path d="M6393 7993 c9 -2 23 -2 30 0 6 3 -1 5 -18 5 -16 0 -22 -2 -12 -5z"/>
<path d="M6545 7989 c28 -4 83 -8 123 -8 l74 -1 66 -58 67 -59 134 -26 c74
-15 137 -31 141 -37 3 -5 24 -16 45 -23 22 -8 73 -38 114 -66 65 -45 81 -51
124 -51 34 0 57 -6 70 -17 14 -13 38 -18 95 -19 42 -1 148 -13 234 -28 86 -14
159 -26 162 -26 3 0 6 97 6 215 l0 215 -752 -1 c-414 -1 -730 -5 -703 -10z"/>
</g>
</svg>
