<?xml version="1.0" standalone="no"?>
<!DOCTYPE svg PUBLIC "-//W3C//DTD SVG 20010904//EN"
 "http://www.w3.org/TR/2001/REC-SVG-20010904/DTD/svg10.dtd">
<svg version="1.0" xmlns="http://www.w3.org/2000/svg"
 width="800.000000pt" height="800.000000pt" viewBox="0 0 800.000000 800.000000"
 preserveAspectRatio="xMidYMid meet">
<metadata>
Created by potrace 1.16, written by Peter Selinger 2001-2019
</metadata>
<g transform="translate(0.000000,800.000000) scale(0.100000,-0.100000)"
fill="#000000" stroke="none">
<path d="M0 5246 l0 -2754 33 -19 c32 -19 32 -19 97 6 116 44 251 140 403 284
122 115 144 141 154 178 10 37 9 45 -3 52 -15 8 -19 45 -6 63 4 6 19 14 33 17
34 9 51 67 79 277 35 264 59 381 87 422 14 21 30 38 35 38 10 0 5 -10 -24 -50
-23 -32 -42 -127 -78 -383 -36 -256 -52 -313 -90 -321 -44 -8 -48 -44 -8 -58
4 -2 0 -28 -10 -58 -15 -50 -30 -68 -152 -184 -148 -141 -287 -240 -408 -289
-71 -29 -74 -30 -108 -14 l-34 17 0 -1235 0 -1235 4000 0 4000 0 0 1165 c0
705 -4 1165 -9 1165 -5 0 -23 -11 -39 -25 -19 -16 -42 -25 -64 -25 -18 0 -49
-8 -68 -18 -19 -11 -67 -29 -107 -41 -40 -12 -79 -24 -88 -27 -8 -3 -15 -2
-15 3 0 6 35 20 78 32 42 13 88 31 102 40 14 10 49 20 78 23 33 3 61 13 75 25
12 11 30 23 40 26 16 6 17 43 17 596 0 575 0 589 -20 594 -10 3 -21 0 -24 -7
-2 -6 -5 -4 -5 5 -1 19 36 32 43 15 2 -6 5 994 5 2222 l1 2232 -4000 0 -4000
0 0 -2754z m3000 2465 c0 -5 -39 -12 -87 -16 -49 -4 -95 -9 -104 -11 -9 -3
-27 -28 -39 -57 -12 -29 -28 -57 -35 -62 -10 -9 -11 -21 -3 -57 8 -33 8 -57 1
-80 -11 -32 -11 -31 -11 22 0 30 -5 68 -11 84 -11 28 -3 45 22 46 4 0 7 8 7
18 0 9 9 30 19 46 11 16 17 34 15 41 -5 11 50 20 209 34 9 0 17 -3 17 -8z
m1852 -848 c48 -9 88 -21 88 -25 0 -10 5 -11 -87 7 -111 21 -107 22 -132 -41
-12 -31 -34 -73 -51 -93 -20 -26 -32 -57 -40 -104 -7 -37 -16 -67 -21 -67 -11
0 -12 -8 5 76 9 52 22 83 44 110 17 22 40 65 52 97 14 36 27 57 37 57 9 0 56
-8 105 -17z m1129 -668 c-27 -38 -31 -52 -31 -109 0 -37 -4 -66 -10 -66 -6 0
-10 29 -10 68 0 60 4 74 28 108 16 22 33 53 37 69 l9 30 4 -29 c2 -20 -5 -41
-27 -71z m-981 48 c0 -5 -5 -27 -10 -51 -8 -33 -7 -49 5 -72 8 -16 14 -46 14
-67 l-1 -38 -7 37 c-4 20 -15 48 -24 61 -14 22 -15 34 -5 81 6 31 15 56 19 56
5 0 9 -3 9 -7z m1900 -58 c0 -8 -9 -15 -20 -15 -20 0 -26 11 -13 23 12 13 33
7 33 -8z m669 -116 c12 -39 20 -73 17 -76 -6 -6 -6 -5 -36 81 -23 68 -23 66
-12 66 4 0 18 -32 31 -71z m-304 51 c-3 -5 -13 -10 -22 -10 -9 0 -13 -6 -9
-15 6 -17 4 -18 -18 -9 -23 9 -20 23 7 34 30 12 49 12 42 0z m-3435 -147 c-1
-54 1 -109 5 -123 6 -24 6 -24 -9 -6 -11 14 -16 41 -16 88 l0 68 -37 2 -38 1
38 4 c31 4 37 8 37 27 0 21 7 36 17 36 3 0 4 -44 3 -97z m3642 77 c33 -14 63
-39 55 -47 -4 -3 -16 2 -28 13 -14 12 -36 19 -62 19 -23 0 -42 5 -44 13 -6 15
45 17 79 2z m182 -32 c-9 -31 -9 -31 -33 -16 -27 16 -27 31 -1 23 11 -4 20 -2
20 4 0 6 5 11 11 11 6 0 8 -9 3 -22z m-404 -9 c0 -6 -4 -7 -10 -4 -5 3 -10 11
-10 16 0 6 5 7 10 4 6 -3 10 -11 10 -16z m-1347 -2 c81 1 145 -2 142 -6 -2 -5
-48 -11 -102 -15 -53 -4 -99 -9 -102 -12 -3 -3 -5 -52 -3 -110 1 -68 -2 -104
-8 -104 -10 0 -13 36 -11 167 0 59 5 56 -121 68 -38 4 -68 11 -68 16 0 6 23 7
63 2 34 -4 128 -7 210 -6z m1705 -116 c2 -38 -2 -68 -9 -77 -15 -18 -36 -19
-22 -1 16 19 23 123 10 137 -9 10 -9 11 3 8 11 -3 16 -22 18 -67z m-4140 -49
l63 -44 -3 -228 -3 -229 -27 -28 c-16 -16 -28 -36 -28 -44 0 -21 47 -39 122
-46 l66 -6 22 -88 c14 -56 21 -109 18 -148 -2 -50 0 -60 12 -56 8 2 33 7 55
10 22 4 48 9 58 12 9 2 17 0 17 -5 0 -6 -35 -16 -77 -23 l-78 -14 -6 -42 c-3
-23 -11 -49 -18 -57 -19 -23 -10 -27 30 -16 19 6 81 13 138 17 l103 6 -4 106
c-4 99 -4 104 10 71 9 -23 13 -59 10 -107 l-3 -73 32 0 c18 0 33 -4 33 -10 0
-5 -16 -10 -35 -10 -35 0 -35 0 -36 -47 0 -27 -6 -128 -12 -225 l-12 -178 25
-1 c14 0 77 -4 140 -8 86 -6 126 -5 160 5 54 16 50 16 50 6 0 -12 -70 -32
-109 -32 -27 0 -31 -3 -31 -29 0 -15 -3 -50 -7 -76 l-6 -48 52 7 c65 9 81 15
81 32 0 8 5 14 10 14 6 0 10 -7 10 -15 0 -8 6 -13 13 -11 6 3 24 7 40 10 27 6
27 7 27 86 0 47 4 80 10 80 6 0 10 -33 10 -79 l0 -78 88 18 c48 10 155 27 237
39 207 28 198 25 193 60 -3 17 -1 30 4 30 4 0 8 -14 8 -31 0 -27 3 -30 23 -26
12 4 41 9 65 13 l42 7 1 56 c0 31 2 78 5 104 5 47 4 48 -30 62 -20 8 -53 15
-75 15 -22 0 -43 5 -46 10 -3 6 -31 10 -61 10 -30 0 -54 -4 -54 -10 0 -5 5
-10 10 -10 6 0 10 -35 10 -85 0 -53 -4 -85 -11 -85 -6 0 -9 28 -8 77 1 51 -2
78 -9 81 -7 2 -12 10 -12 17 0 18 -19 21 -172 24 -121 2 -138 1 -138 -13 0 -9
-3 -16 -6 -16 -20 0 -171 44 -182 53 -10 8 -19 7 -34 -2 -37 -23 -30 -3 12 36
23 21 49 42 56 46 23 13 16 -8 -11 -33 -14 -13 -22 -27 -18 -31 5 -4 37 -15
73 -24 36 -9 73 -18 83 -21 11 -4 17 0 17 11 0 16 14 17 158 10 l159 -7 6 84
c4 45 7 116 7 156 0 39 4 72 10 72 5 0 7 -59 3 -154 l-6 -154 59 -5 c159 -14
223 -37 307 -109 52 -45 57 -54 57 -90 l0 -40 37 7 c21 4 42 10 48 13 5 4 18
5 28 4 9 -2 17 2 17 8 0 7 7 10 15 7 8 -4 94 10 192 29 l178 36 95 -22 c52
-13 106 -29 120 -36 33 -17 17 -17 -50 1 -78 21 -90 19 -57 -10 15 -13 27 -33
27 -45 0 -24 25 -27 38 -3 7 11 18 14 38 10 18 -3 37 0 48 9 19 13 19 14 1 14
-10 0 -16 2 -13 5 10 10 108 -18 108 -32 0 -7 7 -13 16 -13 9 0 12 5 8 12 -5
8 -2 9 10 5 10 -4 25 -7 34 -8 10 0 3 -7 -15 -15 -17 -7 -34 -23 -38 -34 -4
-11 -18 -32 -32 -46 -19 -19 -23 -28 -13 -34 9 -5 6 -12 -10 -23 -29 -20 -17
-37 26 -37 19 0 34 -3 34 -7 0 -5 7 -17 15 -27 12 -15 17 -17 29 -7 8 7 21 9
27 5 8 -5 9 -3 4 5 -10 17 -13 71 -3 71 4 0 8 -5 8 -10 0 -6 11 -8 26 -4 20 5
25 3 22 -7 -3 -8 -12 -14 -21 -14 -25 0 -34 -16 -16 -28 9 -7 19 -22 23 -33 4
-15 33 -34 91 -59 47 -21 90 -44 96 -51 6 -8 26 -16 45 -20 19 -3 34 -10 34
-15 0 -5 7 -9 16 -9 11 0 14 -5 10 -16 -4 -9 -11 -36 -17 -60 -6 -24 -16 -47
-23 -52 -19 -15 -46 -22 -46 -12 0 5 9 11 20 15 12 4 24 21 30 46 6 22 14 47
17 55 3 8 -1 14 -11 14 -9 0 -16 5 -16 10 0 6 -8 10 -19 10 -10 0 -29 8 -42
18 -13 10 -61 35 -106 55 -73 33 -93 37 -185 41 -113 5 -134 10 -142 32 -3 8
-11 14 -18 14 -19 0 -58 -50 -51 -66 3 -8 1 -14 -5 -14 -5 0 -19 -15 -30 -32
-16 -24 -18 -35 -9 -40 9 -6 8 -8 -2 -8 -8 0 -11 -6 -7 -16 5 -12 2 -15 -11
-9 -10 4 -31 9 -47 12 l-28 5 20 -29 c35 -49 62 -69 72 -54 5 9 15 11 26 7 14
-5 15 -9 5 -15 -8 -5 6 -11 38 -15 28 -4 51 -11 51 -17 0 -5 -11 -7 -25 -3
-25 6 -25 6 -25 -60 0 -47 -6 -78 -20 -106 -26 -51 -25 -76 6 -129 24 -44 26
-71 3 -71 -6 0 -9 7 -5 15 3 8 -6 36 -19 62 -30 55 -31 72 -6 121 10 21 20 66
23 104 4 72 0 78 -47 78 -13 0 -35 12 -48 26 l-25 26 -51 -17 c-45 -15 -60
-15 -109 -5 -31 7 -97 13 -147 14 l-90 1 -5 -147 c-3 -81 -9 -150 -13 -154
-14 -15 -7 299 8 350 8 27 15 63 15 80 1 27 2 28 11 13 8 -13 7 -33 -1 -68 -7
-28 -11 -51 -9 -52 2 -1 36 -1 76 1 80 4 76 1 88 85 3 26 11 47 16 47 6 0 8
-12 5 -27 -22 -120 -25 -114 57 -129 42 -7 127 12 127 29 0 15 -31 47 -45 47
-7 0 -15 10 -19 23 -3 13 -15 34 -26 47 -11 13 -20 28 -20 35 0 7 -8 19 -18
28 -17 15 -20 15 -41 1 -12 -9 -25 -13 -29 -9 -4 4 -2 9 3 12 53 20 44 41 -37
88 -35 20 -53 34 -40 32 12 -3 20 -2 18 2 -3 4 -1 13 4 21 7 12 12 12 21 3 9
-9 9 -16 -1 -28 -10 -12 -10 -15 4 -15 9 0 24 -7 34 -15 64 -56 77 -65 80 -56
2 7 12 7 28 0 14 -5 37 -9 52 -9 23 -1 25 -2 9 -11 -9 -5 -22 -7 -28 -3 -6 3
-5 -3 3 -15 7 -12 16 -21 20 -21 4 0 15 -16 24 -36 13 -27 14 -38 5 -43 -9 -6
-7 -12 5 -22 16 -12 17 -12 11 4 -3 9 -2 17 3 17 6 0 10 -4 10 -10 0 -5 8 -10
18 -10 12 0 25 14 37 40 10 22 22 40 27 40 4 0 8 9 8 20 0 11 -4 20 -10 20 -5
0 -10 5 -10 10 0 6 10 10 21 10 18 0 19 2 9 15 -10 13 -9 15 9 15 26 0 27 16
1 58 -20 33 -20 34 -2 39 27 7 18 34 -24 73 -19 17 -34 36 -34 43 0 6 -16 29
-36 50 -29 30 -42 37 -74 37 -39 0 -132 -16 -160 -27 -8 -4 -22 -7 -30 -8 -85
-10 -109 -17 -103 -31 4 -12 1 -13 -20 -3 -14 6 -34 8 -44 4 -10 -4 -25 -9
-33 -10 -28 -3 -95 -16 -112 -21 -10 -3 -18 -13 -18 -22 -1 -15 -1 -16 -10 -1
-8 14 -17 15 -67 5 l-58 -12 -10 -144 -10 -145 -3 143 c-2 130 -4 143 -20 138
-9 -2 -33 -8 -52 -11 -58 -12 -60 -16 -60 -146 0 -77 -4 -119 -11 -119 -7 0
-9 42 -7 125 2 79 -1 125 -7 125 -5 -1 -66 -9 -135 -18 l-125 -18 -3 -36 c-2
-23 4 -47 15 -65 16 -24 18 -48 16 -200 l-2 -173 119 0 c84 0 120 -3 120 -11
0 -9 -33 -10 -120 -6 l-120 5 0 -74 c0 -43 -4 -74 -10 -74 -6 0 -10 31 -10 73
l0 72 -465 0 c-365 0 -465 -3 -465 -12 0 -7 -4 -13 -10 -13 -5 0 -10 6 -10 14
0 28 -202 33 -392 10 -30 -4 -48 -2 -48 4 0 10 42 16 203 28 l87 6 1 72 c1 39
1 74 1 77 -1 4 3 33 7 65 24 158 25 144 -9 144 -23 0 -30 -4 -30 -20 0 -11 -4
-20 -10 -20 -5 0 -10 9 -10 20 0 16 -9 21 -50 26 -83 11 -56 23 39 17 l88 -6
6 44 c4 24 10 79 13 121 7 75 6 77 -17 82 -59 12 -116 15 -144 8 -43 -12 -64
-77 -78 -234 -6 -71 -15 -128 -21 -128 -5 0 -6 32 -2 79 l6 78 -52 7 c-92 11
-98 9 -98 -21 0 -16 -5 -35 -10 -43 -7 -11 -10 -2 -10 33 0 45 -1 47 -29 47
-20 0 -30 -6 -34 -20 -3 -11 -12 -20 -21 -20 -17 0 -19 -11 -10 -47 5 -16 16
-24 43 -29 20 -3 47 -9 61 -14 24 -8 23 -8 -7 -9 -57 -2 -36 -21 22 -21 30 0
55 -4 55 -10 0 -5 -16 -10 -35 -10 -19 0 -35 -4 -35 -10 0 -5 -13 -10 -29 -10
-28 0 -43 -13 -118 -103 -13 -15 -27 -27 -32 -27 -5 0 3 -31 17 -70 l27 -70
102 0 c66 0 103 -4 103 -11 0 -7 -34 -9 -99 -7 l-99 3 20 -50 c24 -62 24 -62
49 -46 12 7 23 10 26 8 8 -9 -18 -48 -28 -42 -5 4 -12 -1 -15 -9 -8 -20 -24
-21 -24 -1 0 17 -25 20 -35 5 -3 -5 -30 -9 -58 -8 l-52 2 48 3 c26 2 47 8 47
14 0 5 9 9 21 9 24 0 22 15 -6 83 l-15 37 -65 0 c-36 0 -65 4 -65 9 0 5 27 7
60 4 33 -3 60 -2 60 3 0 13 -40 118 -48 126 -4 4 -69 9 -144 11 l-138 5 0 -24
c0 -13 -4 -24 -10 -24 -5 0 -10 11 -10 25 0 14 -5 25 -12 25 -7 0 -5 5 4 13 9
6 19 26 21 42 4 28 4 28 6 -6 l1 -35 100 -3 100 -2 -2 58 c-1 32 2 76 5 98 4
22 10 64 12 94 3 32 12 63 23 74 13 16 14 21 3 25 -7 2 -21 13 -29 23 -9 11
-22 19 -29 19 -7 0 -13 5 -13 10 0 6 11 8 28 4 43 -10 46 -10 49 8 5 22 -61
45 -82 28 -7 -6 -21 -45 -31 -86 -14 -57 -22 -74 -35 -74 -17 0 -39 -20 -22
-20 4 0 19 -9 33 -20 21 -16 22 -20 7 -20 -10 0 -29 11 -42 24 l-24 24 -31
-41 c-16 -22 -30 -45 -30 -50 0 -12 -31 -42 -44 -42 -6 0 -10 -8 -8 -18 2 -10
-3 -17 -12 -17 -8 0 -24 -12 -35 -26 -11 -14 -26 -24 -32 -22 -8 3 1 19 23 44
19 21 42 53 51 70 17 32 133 166 151 173 6 2 3 -7 -6 -21 -16 -25 -16 -26 2
-21 10 3 20 12 23 21 3 10 8 25 12 35 5 12 2 17 -9 17 -9 0 -16 4 -16 10 0 5
8 7 18 3 12 -4 11 -1 -4 11 -21 15 -21 17 -7 93 9 48 22 86 33 97 27 27 38 11
13 -17 -23 -25 -36 -76 -24 -95 5 -8 15 9 26 45 22 68 41 94 31 45 -12 -64 17
-28 47 59 28 82 28 87 22 224 -4 77 -10 159 -13 183 l-7 42 -39 -26 c-22 -15
-53 -30 -69 -33 l-29 -6 0 -155 c1 -85 -3 -177 -7 -205 -6 -32 -8 24 -7 159
l1 210 53 31 c29 17 57 37 61 44 7 10 12 10 30 -1 12 -7 23 -20 26 -28 8 -30
27 -299 23 -334 -2 -20 1 -37 6 -39 6 -2 -2 -37 -18 -81 -23 -61 -26 -82 -18
-99 6 -12 14 -33 18 -46 6 -24 7 -24 20 -6 23 31 26 9 5 -31 -29 -53 -27 -59
20 -73 23 -7 47 -15 55 -18 9 -3 14 2 14 15 0 36 20 36 21 0 l1 -33 10 28 c11
31 33 38 23 7 -5 -17 -2 -20 21 -20 23 0 25 2 14 15 -7 9 -10 19 -6 23 4 4 16
-4 26 -18 15 -20 33 -27 93 -35 l75 -11 11 49 c6 27 11 55 11 63 0 17 -51 19
-68 2 -9 -9 -12 -7 -12 10 0 18 6 22 30 22 17 0 30 5 30 10 0 6 9 10 19 10 20
0 37 17 28 27 -6 6 -214 32 -259 33 -21 0 -28 -5 -28 -20 0 -11 -5 -20 -11
-20 -6 0 -9 14 -7 33 2 25 7 32 23 30 180 -22 279 -31 286 -28 4 3 10 36 14
73 4 37 9 74 11 84 4 13 -5 17 -46 23 -27 4 -50 11 -50 16 0 6 21 7 50 3 44
-6 50 -4 50 11 0 10 8 42 18 72 l17 53 91 0 90 0 22 39 c13 22 22 52 20 68 -1
15 4 38 10 50 17 31 14 77 -12 172 -25 94 -31 99 -110 100 -31 1 -56 7 -68 18
-17 15 -18 14 -18 -30 0 -26 -4 -47 -10 -47 -6 0 -10 32 -10 78 0 74 1 78 30
97 21 14 30 28 30 48 0 27 0 27 -72 28 -135 2 -178 -4 -178 -23 0 -5 16 -28
35 -51 19 -22 32 -43 29 -46 -9 -9 -84 77 -84 97 0 11 -16 26 -45 40 l-44 21
-101 -44 c-109 -49 -110 -49 -110 -36 0 4 47 29 105 55 l106 46 42 -22 c37
-19 58 -22 179 -22 l138 -1 0 33 0 32 -80 0 c-47 0 -80 4 -80 10 0 6 35 10 85
10 l85 0 0 30 0 30 -62 1 c-35 0 -76 2 -93 3 -16 1 -57 -4 -89 -11 -58 -13
-146 -9 -146 7 0 4 26 8 58 8 31 0 117 3 190 7 l132 7 0 104 0 103 -70 49
c-38 27 -67 52 -63 55 7 7 8 7 91 -51z m1241 23 c11 -12 -13 -13 -142 -8 -81
4 -137 10 -137 16 0 10 269 2 279 -8z m426 -18 c20 -31 20 -34 4 -97 -25 -95
-24 -110 6 -110 14 0 25 -4 25 -10 0 -5 -11 -10 -25 -10 l-25 0 0 -103 c0
-146 -12 -317 -21 -317 -5 0 -8 71 -6 157 l2 157 -42 -3 c-25 -1 -43 2 -43 8
0 5 21 11 48 13 l47 3 2 75 c1 41 8 105 14 141 10 58 10 70 -5 90 -9 13 -16
27 -16 31 0 17 16 6 35 -25z m695 -156 c12 -36 11 -48 -9 -113 -14 -51 -21
-100 -21 -160 0 -52 -4 -88 -10 -88 -19 0 -11 170 12 248 18 62 20 79 10 106
-7 18 -12 38 -12 45 0 23 16 2 30 -38z m546 -139 c-12 -12 -14 6 -8 68 l7 65
3 -64 c2 -35 1 -66 -2 -69z m704 91 c0 -7 -11 -13 -25 -13 -26 0 -29 7 -19 34
5 12 9 13 25 3 10 -6 19 -17 19 -24z m-2491 10 c17 -10 31 -21 31 -25 0 -13
-13 -9 -48 12 -29 18 -50 20 -191 20 -115 0 -170 -4 -201 -15 -46 -16 -78 -20
-66 -7 23 23 84 31 258 31 160 1 191 -1 217 -16z m195 -65 c-5 -56 -4 -65 15
-82 14 -13 21 -31 21 -56 0 -56 38 -172 63 -192 12 -10 38 -20 57 -24 19 -4
55 -22 80 -41 26 -20 52 -32 62 -29 11 2 18 -1 18 -10 0 -8 5 -14 11 -14 6 0
44 -31 83 -70 40 -38 77 -70 83 -70 5 0 39 -9 74 -19 35 -11 85 -22 112 -26
26 -3 47 -11 47 -16 0 -6 -12 -8 -27 -5 -16 3 -48 8 -73 12 -25 3 -57 13 -72
20 -15 8 -38 14 -52 14 -18 0 -48 21 -98 69 -40 37 -89 76 -108 86 -19 10 -51
31 -71 46 -20 16 -45 29 -56 29 -10 0 -38 11 -63 24 -57 30 -125 42 -136 25
-4 -7 -3 -14 4 -17 6 -2 14 -19 18 -38 5 -25 11 -34 26 -34 15 0 18 -5 13 -20
-9 -29 12 -60 40 -60 14 0 25 -4 25 -10 0 -5 7 -10 15 -10 17 0 19 -9 7 -27
-4 -7 -17 -10 -30 -6 -17 4 -21 11 -17 24 5 14 1 19 -14 19 -22 0 -57 43 -47
58 3 5 -4 16 -15 25 -10 9 -19 24 -19 34 0 9 -7 25 -16 35 -14 14 -14 21 -4
33 10 12 8 17 -14 26 -14 7 -26 16 -26 21 0 11 2 11 51 -12 24 -11 54 -20 67
-20 19 0 22 4 16 28 -4 15 -11 37 -15 50 -5 13 -9 44 -9 70 0 36 -6 52 -26 73
-23 25 -25 31 -18 88 3 33 11 61 16 61 5 0 6 -27 2 -62z m196 52 c0 -20 -43
-95 -47 -83 -2 6 3 25 12 42 14 28 14 31 0 31 -8 0 -15 5 -15 10 0 6 11 10 25
10 14 0 25 -5 25 -10z m-1043 -8 c-3 -4 -35 -23 -71 -42 l-66 -35 0 -70 c0
-38 7 -97 15 -130 12 -54 12 -64 -2 -97 -9 -21 -20 -38 -25 -38 -11 0 -10 7 8
42 13 25 14 38 5 74 -6 23 -11 81 -11 128 l0 86 -65 0 c-55 0 -65 3 -65 18 0
9 5 24 10 32 8 12 10 11 10 -7 0 -21 5 -23 58 -23 47 0 68 6 117 35 56 32 92
44 82 27z m1333 -2 c0 -5 -16 -10 -35 -10 -19 0 -35 5 -35 10 0 6 16 10 35 10
19 0 35 -4 35 -10z m132 -16 c15 -8 51 -14 80 -15 29 -1 64 -5 78 -9 l25 -8
-25 -3 c-14 -1 -31 -2 -37 -2 -9 1 -13 -16 -14 -51 -2 -89 -17 -110 -18 -24
l-1 76 -32 1 c-44 0 -161 35 -165 48 -5 15 73 5 109 -13z m833 -59 c7 -74 -8
-76 -20 -3 -4 21 -11 40 -16 44 -5 3 -5 14 2 26 16 31 27 11 34 -67z m95 47
c0 -10 -7 -27 -15 -38 -8 -10 -15 -27 -15 -36 0 -9 -11 -30 -25 -46 -14 -17
-25 -39 -25 -51 0 -11 -8 -28 -19 -38 -10 -10 -24 -28 -30 -40 -6 -13 -19 -23
-27 -23 -13 0 -15 9 -12 45 l3 45 -33 0 c-37 0 -72 15 -72 31 0 6 7 6 19 -1
11 -5 35 -10 55 -10 30 0 35 4 41 30 4 17 11 30 17 30 6 0 8 -6 5 -14 -3 -8
-8 -43 -12 -78 -4 -50 -3 -58 5 -38 6 14 17 28 25 32 7 5 17 23 21 40 3 18 14
38 23 45 14 11 14 14 1 23 -13 9 -13 12 3 21 9 5 17 17 17 24 0 8 5 15 11 15
5 0 7 4 4 10 -6 10 14 39 28 40 4 0 7 -8 7 -18z m1133 -97 c19 -85 22 -135 7
-135 -10 0 -11 2 -35 124 -18 94 -18 86 -2 86 9 0 20 -27 30 -75z m-6704 24
c18 -22 30 -43 27 -46 -6 -6 -14 2 -57 60 -32 43 -6 31 30 -14z m4942 -8 c-17
-22 -31 -51 -32 -67 0 -16 -4 -38 -9 -49 -6 -15 -9 -5 -9 35 -1 48 3 58 31 87
44 45 56 42 19 -6z m1217 -27 c18 -8 32 -17 32 -18 0 -2 -18 -3 -40 -2 -22 0
-40 1 -40 3 0 4 12 33 15 33 1 0 16 -7 33 -16z m262 -49 c7 -9 10 -19 6 -23
-4 -4 -14 1 -21 11 -12 17 -14 17 -27 -2 -8 -11 -26 -25 -41 -32 -18 -8 -27
-20 -27 -36 0 -12 -4 -23 -10 -23 -5 0 -10 14 -10 31 0 24 5 32 30 41 17 5 35
19 41 29 12 23 42 25 59 4z m258 -26 c-2 -6 -8 -10 -13 -10 -5 0 -11 4 -13 10
-2 6 4 11 13 11 9 0 15 -5 13 -11z m-170 -16 c-10 -2 -26 -2 -35 0 -10 3 -2 5
17 5 19 0 27 -2 18 -5z m-3768 -43 c0 -5 -4 -10 -10 -10 -5 0 -10 5 -10 10 0
6 5 10 10 10 6 0 10 -4 10 -10z m3980 -28 c0 -11 9 -27 21 -38 30 -27 68 -107
75 -158 7 -48 -15 -96 -44 -96 -12 0 -11 5 6 23 40 42 20 133 -48 215 -30 36
-40 72 -20 72 6 0 10 -8 10 -18z m-3065 -156 c14 9 25 12 25 8 0 -5 5 -1 11 9
5 9 19 17 30 17 12 0 23 8 26 20 3 12 14 20 27 20 19 -1 19 -2 4 -11 -10 -5
-18 -19 -18 -31 0 -16 -5 -19 -25 -16 -14 3 -25 2 -25 -3 0 -4 -17 -16 -37
-26 l-38 -18 3 -174 c2 -132 -1 -177 -10 -183 -19 -11 -256 -10 -263 2 -4 6
40 10 125 10 l131 0 -7 238 c-4 135 -3 252 2 268 7 23 10 11 12 -58 l3 -88 24
16z m1874 -24 c1 -94 -1 -104 -18 -109 -11 -3 -21 -17 -24 -33 -5 -21 -14 -30
-34 -34 -16 -4 -63 -26 -105 -50 -43 -25 -91 -47 -108 -51 -20 -4 -30 -13 -30
-25 0 -24 -10 -50 -19 -50 -4 0 -5 14 -3 31 l5 31 -71 -7 c-63 -6 -76 -4 -105
14 -19 12 -51 21 -72 21 -40 0 -114 18 -129 32 -13 11 10 10 54 -1 19 -5 56
-12 83 -15 26 -3 60 -14 75 -24 24 -17 34 -18 95 -9 l67 10 1 51 c4 142 -4
261 -18 283 -19 28 -9 44 11 18 15 -21 26 -91 26 -167 0 -47 1 -48 30 -48 17
0 49 -9 71 -21 l41 -20 15 20 c10 15 25 21 55 21 31 0 46 6 64 26 23 24 24 33
25 157 1 98 3 122 10 92 4 -22 8 -87 8 -143z m171 83 c0 -58 -4 -95 -10 -95
-7 0 -10 36 -9 95 1 52 5 95 10 95 5 0 9 -43 9 -95z m-280 63 c0 -45 -12 -66
-51 -87 -21 -12 -39 -26 -39 -31 0 -5 28 -11 63 -13 34 -2 7 -4 -60 -5 -87 -1
-123 1 -123 9 0 8 16 10 50 6 36 -4 50 -3 50 6 0 7 20 25 45 40 39 25 45 33
45 63 0 19 5 34 10 34 6 0 10 -10 10 -22z m650 -259 c0 -17 -4 -28 -10 -24 -5
3 -10 17 -10 31 0 13 5 24 10 24 6 0 10 -14 10 -31z m-2206 9 c-31 -54 -128
-188 -136 -188 -11 0 -9 4 65 113 33 48 64 87 69 87 5 0 6 -6 2 -12z m2101
-72 c4 -30 4 -59 0 -65 -9 -16 -31 -13 -46 5 -12 15 -11 16 10 9 24 -7 24 -7
17 49 -3 33 -2 56 3 56 5 0 13 -24 16 -54z m775 19 c-7 -9 -15 -13 -17 -11 -7
7 7 26 19 26 6 0 6 -6 -2 -15z m-1203 -82 c-3 -10 -5 -2 -5 17 0 19 2 27 5 18
2 -10 2 -26 0 -35z m543 28 c0 -6 -4 -13 -10 -16 -5 -3 -10 1 -10 9 0 9 5 16
10 16 6 0 10 -4 10 -9z m-217 -8 c-7 -2 -19 -2 -25 0 -7 3 -2 5 12 5 14 0 19
-2 13 -5z m-2743 -13 c0 -5 -4 -10 -10 -10 -5 0 -10 5 -10 10 0 6 5 10 10 10
6 0 10 -4 10 -10z m2961 -37 c16 -10 29 -21 29 -26 0 -5 -3 -7 -7 -5 -49 24
-63 32 -63 40 0 12 8 10 41 -9z m-2196 -1 c-15 -13 -127 -53 -133 -47 -8 8 -1
12 53 33 52 21 96 28 80 14z m2265 -14 c0 -19 42 -58 62 -58 11 0 34 11 52 25
33 25 86 34 86 15 0 -5 -13 -10 -28 -10 -17 0 -38 -10 -52 -25 -29 -31 -68
-32 -104 -4 -26 20 -28 20 -46 4 -17 -15 -20 -16 -20 -3 0 9 7 21 15 28 8 7
15 19 15 26 0 8 5 14 10 14 6 0 10 -5 10 -12z m-685 -18 c15 -6 6 -9 -32 -9
-29 -1 -53 4 -53 9 0 12 57 12 85 0z m1232 -42 c-3 -7 -5 -2 -5 12 0 14 2 19
5 13 2 -7 2 -19 0 -25z m-637 -18 c0 -5 -12 -10 -26 -10 -14 0 -23 4 -19 10 3
6 15 10 26 10 10 0 19 -4 19 -10z m-88 -9 c-20 -12 -152 -14 -152 -1 0 6 32
10 83 10 48 0 77 -4 69 -9z m-465 -23 c-3 -8 -6 -5 -6 6 -1 11 2 17 5 13 3 -3
4 -12 1 -19z m1251 -38 c18 -33 28 -60 23 -60 -10 0 -71 97 -71 113 0 21 19 0
48 -53z m-3126 18 c-12 -12 -25 -18 -29 -14 -4 4 3 16 16 27 31 25 41 15 13
-13z m1555 -65 c-2 -16 -4 -5 -4 22 0 28 2 40 4 28 2 -13 2 -35 0 -50z m473
-40 c7 -43 17 -83 22 -90 5 -6 34 -15 64 -19 30 -3 54 -11 54 -16 0 -6 -12 -8
-26 -5 -20 3 -27 -1 -34 -19 -7 -18 -17 -24 -40 -24 -20 0 -29 4 -25 11 4 6
13 8 20 5 13 -5 35 12 35 26 0 4 -7 8 -15 8 -33 0 -57 38 -71 112 -16 86 -17
88 -5 88 4 0 14 -35 21 -77z m1001 -51 c59 -27 79 -30 210 -37 79 -4 153 -11
164 -16 27 -10 -67 -10 -210 0 -91 7 -122 14 -178 40 -64 29 -77 31 -183 31
-78 0 -114 4 -114 11 0 8 35 10 123 7 108 -5 129 -9 188 -36z m-3221 0 c0 -12
-78 -47 -86 -39 -3 3 11 15 33 26 42 22 53 25 53 13z m-3690 -22 c0 -6 -28
-10 -65 -10 l-65 0 0 -125 c0 -77 -4 -125 -10 -125 -6 0 -10 28 -10 65 l0 65
-30 0 c-28 0 -30 3 -30 35 0 42 7 44 36 8 l21 -27 7 62 7 62 69 0 c40 0 70 -4
70 -10z m4830 -15 c20 -24 6 -28 -15 -5 -10 11 -13 20 -8 20 6 0 16 -7 23 -15z
m1065 -3 c-3 -3 -11 0 -18 7 -9 10 -8 11 6 5 10 -3 15 -9 12 -12z m685 -33
c-7 -11 -14 -18 -17 -15 -8 8 5 36 17 36 7 0 7 -6 0 -21z m-370 -41 c0 -32 3
-33 60 -13 48 17 69 19 55 6 -29 -25 -290 -100 -400 -115 -66 -9 -133 -19
-150 -21 -29 -5 -29 -5 -5 6 14 6 81 19 150 30 69 10 157 29 195 42 l70 24 3
48 c2 35 6 45 12 35 6 -8 10 -27 10 -42z m-5960 33 c0 -5 -10 -13 -22 -16 -13
-4 -40 -20 -60 -36 -44 -35 -51 -25 -10 13 22 21 46 34 90 47 1 1 2 -3 2 -8z
m4614 -15 c8 3 16 -2 19 -10 4 -9 2 -16 -3 -16 -6 0 -10 4 -10 9 0 5 -11 8
-25 5 -27 -5 -32 5 -12 25 10 10 13 9 15 -3 2 -8 9 -13 16 -10z m-4494 -1 c7
-9 10 -18 7 -21 -6 -7 -47 18 -47 28 0 14 27 9 40 -7z m5537 -11 c-3 -3 -12
-4 -19 -1 -8 3 -5 6 6 6 11 1 17 -2 13 -5z m-5434 -56 c19 -22 22 -38 8 -38
-5 0 -13 9 -16 20 -3 11 -17 23 -31 26 -13 3 -24 10 -24 16 0 15 43 -2 63 -24z
m4370 12 c3 -11 1 -20 -4 -20 -5 0 -9 9 -9 20 0 11 2 20 4 20 2 0 6 -9 9 -20z
m57 -10 c0 -11 -4 -20 -10 -20 -5 0 -10 9 -10 20 0 11 5 20 10 20 6 0 10 -9
10 -20z m-480 0 c0 -5 -4 -10 -10 -10 -5 0 -10 5 -10 10 0 6 5 10 10 10 6 0
10 -4 10 -10z m-1610 -30 c0 -5 -9 -10 -20 -10 -11 0 -20 5 -20 10 0 6 9 10
20 10 11 0 20 -4 20 -10z m225 -42 c-10 -66 -26 -121 -32 -114 -9 9 19 156 29
156 6 0 7 -18 3 -42z m1965 25 c0 -5 -5 -15 -10 -23 -8 -12 -10 -11 -10 8 0
12 5 22 10 22 6 0 10 -3 10 -7z m1210 -33 c0 -5 -20 -10 -44 -10 -50 0 -52 -1
-61 -53 l-7 -37 153 -1 c85 0 163 -4 174 -9 12 -5 -71 -9 -208 -9 l-228 -1
-34 -26 c-19 -14 -40 -24 -47 -22 -6 2 9 19 34 36 35 24 57 32 91 32 47 0 57
11 57 67 0 12 8 27 18 32 22 13 102 14 102 1z m-1320 -32 c0 -6 -7 -5 -15 2
-8 7 -15 17 -15 22 0 6 7 5 15 -2 8 -7 15 -17 15 -22z m40 10 c0 -19 -2 -20
-10 -8 -13 19 -13 30 0 30 6 0 10 -10 10 -22z m51 7 c8 6 9 -7 4 -46 -9 -64
-10 -66 -30 -49 -15 12 -15 14 1 23 16 9 16 11 -1 23 -17 13 -17 14 -2 14 21
0 22 16 2 24 -8 3 -15 11 -15 17 0 8 4 8 15 -1 8 -6 19 -9 26 -5z m-861 -25
c0 -16 -4 -30 -10 -30 -11 0 -14 43 -3 53 11 12 13 8 13 -23z m-2809 -20 c127
-33 159 -44 159 -53 0 -5 -6 -7 -14 -4 -8 3 -32 10 -55 16 -23 6 -59 16 -82
22 -23 6 -47 13 -54 15 -9 4 -15 -4 -17 -22 -3 -27 -5 -28 -243 -83 -132 -31
-251 -64 -265 -73 -14 -9 -50 -21 -80 -27 -48 -10 -60 -18 -90 -56 -33 -41
-50 -55 -50 -37 0 4 17 26 38 50 30 35 48 46 97 58 33 9 67 22 75 29 8 7 116
36 240 64 124 29 235 56 248 61 15 7 22 18 22 36 0 18 4 25 14 21 8 -3 34 -11
57 -17z m3617 -9 c3 -8 -1 -12 -9 -9 -7 2 -15 10 -17 17 -3 8 1 12 9 9 7 -2
15 -10 17 -17z m102 -1 c0 -5 -4 -10 -9 -10 -6 0 -13 5 -16 10 -3 6 1 10 9 10
9 0 16 -4 16 -10z m788 -56 c33 -28 41 -44 20 -44 -6 0 -20 -7 -30 -17 -10 -9
-18 -11 -18 -5 0 6 5 14 10 17 19 12 10 31 -16 33 -22 2 -24 -1 -19 -21 7 -20
6 -21 -10 -6 -21 20 -12 64 11 55 9 -3 12 -1 9 4 -12 19 11 10 43 -16z m-218
6 c0 -5 -6 -10 -14 -10 -8 0 -18 5 -21 10 -3 6 3 10 14 10 12 0 21 -4 21 -10z
m50 -4 c0 -11 -19 -15 -25 -6 -3 5 1 10 9 10 9 0 16 -2 16 -4z m-580 -16 c8
-5 11 -12 7 -16 -4 -4 -15 0 -24 9 -18 18 -8 23 17 7z m-2708 -38 c-6 -2 -12
-14 -12 -27 0 -13 -4 -27 -10 -30 -11 -7 -14 53 -4 79 5 14 8 14 22 -1 12 -12
13 -18 4 -21z m4158 1 c0 -7 -4 -13 -10 -13 -5 0 -10 12 -10 28 0 21 2 24 10
12 5 -8 10 -21 10 -27z m-1387 10 c-7 -2 -21 -2 -30 0 -10 3 -4 5 12 5 17 0
24 -2 18 -5z m37 -14 c0 -11 -4 -17 -10 -14 -5 3 -10 13 -10 21 0 8 5 14 10
14 6 0 10 -9 10 -21z m746 -2 c1 -1 4 -11 6 -22 2 -15 -2 -20 -19 -19 -13 0
-23 -3 -23 -8 0 -4 5 -8 11 -8 11 0 39 -24 39 -34 0 -3 -7 -6 -15 -6 -8 0 -15
5 -15 10 0 6 -7 10 -15 10 -8 0 -15 -6 -15 -12 0 -10 -3 -9 -9 1 -5 7 -14 10
-20 7 -14 -9 -15 26 0 41 6 6 12 19 14 29 2 11 4 20 4 21 1 2 55 -7 57 -10z
m-4165 -38 c32 -16 47 -18 69 -11 26 9 32 6 89 -50 34 -34 59 -63 56 -66 -3
-3 -32 20 -64 52 -51 50 -61 57 -79 47 -16 -8 -30 -6 -67 10 -30 13 -58 19
-76 15 -16 -3 -29 -1 -29 4 0 7 12 12 53 19 4 0 26 -8 48 -20z m3604 1 c4 -6
-6 -10 -22 -9 -25 0 -26 1 -8 9 11 5 21 9 22 9 1 1 5 -3 8 -9z m465 0 c0 -5
-7 -10 -15 -10 -8 0 -15 -4 -15 -10 0 -5 5 -10 10 -10 6 0 10 -4 10 -10 0 -5
-18 -10 -40 -10 -22 0 -40 2 -40 5 0 2 10 15 23 29 22 24 67 35 67 16z m-525
-10 c-3 -5 -15 -10 -26 -10 -11 0 -17 5 -14 10 3 6 15 10 26 10 11 0 17 -4 14
-10z m695 0 c15 0 19 -7 17 -29 -2 -29 -17 -33 -17 -5 0 19 -10 18 -27 -3 -13
-17 -14 -16 -10 5 5 20 2 22 -16 16 -20 -6 -20 -5 -8 10 8 9 21 14 28 11 8 -3
23 -5 33 -5z m-3783 -122 c-2 -13 -4 -3 -4 22 0 25 2 35 4 23 2 -13 2 -33 0
-45z m4337 36 c6 -24 2 -43 -8 -33 -11 10 -17 59 -8 59 5 0 13 -12 16 -26z
m-2104 -68 c0 -98 -10 -207 -19 -202 -10 7 -1 286 10 286 5 0 9 -38 9 -84z
m1170 69 c0 -8 -4 -15 -10 -15 -5 0 -10 7 -10 15 0 8 5 15 10 15 6 0 10 -7 10
-15z m462 -44 c-19 -26 -82 -43 -82 -22 0 6 11 11 23 11 25 0 48 21 62 55 8
19 8 19 13 1 2 -10 -5 -30 -16 -45z m-1374 -203 c-19 -11 -118 -10 -118 2 0 6
25 10 55 10 l55 0 0 99 c0 144 14 157 18 17 2 -89 -1 -121 -10 -128z m-2598
212 c0 -11 -4 -20 -10 -20 -5 0 -10 9 -10 20 0 11 5 20 10 20 6 0 10 -9 10
-20z m714 -12 c-10 -18 -19 -28 -21 -21 -5 15 15 53 28 53 5 0 2 -15 -7 -32z
m2796 -8 c0 -14 7 -20 21 -20 11 0 17 -5 14 -10 -4 -6 -13 -7 -23 -1 -10 5
-30 7 -45 4 -16 -3 -27 -1 -27 6 0 6 9 11 20 11 11 0 20 7 20 15 0 8 5 15 10
15 6 0 10 -9 10 -20z m-3602 -10 c14 -11 28 -17 31 -12 7 11 41 12 41 1 0 -14
-47 -21 -67 -10 -22 11 -49 41 -38 41 4 0 18 -9 33 -20z m3688 -12 c-3 -13 -6
-36 -6 -51 0 -16 -4 -26 -10 -22 -5 3 -7 12 -3 20 3 9 0 22 -7 30 -9 10 -9 15
-1 15 6 0 11 7 11 15 0 8 5 15 11 15 7 0 9 -9 5 -22z m-5189 -13 c-4 -8 -11
-15 -17 -15 -7 0 -7 6 0 21 13 23 26 19 17 -6z m4896 18 c-7 -2 -19 -2 -25 0
-7 3 -2 5 12 5 14 0 19 -2 13 -5z m136 -19 c7 -16 7 -24 0 -24 -5 0 -12 6 -15
13 -7 18 -76 16 -91 -3 -16 -21 -27 -6 -12 18 9 15 23 20 60 20 40 0 48 -4 58
-24z m61 -18 c0 -16 -18 -31 -27 -22 -8 8 5 36 17 36 5 0 10 -6 10 -14z m-270
-28 c0 -6 -7 -5 -15 2 -8 7 -15 17 -15 22 0 6 7 5 15 -2 8 -7 15 -17 15 -22z
m53 25 c-7 -2 -19 -2 -25 0 -7 3 -2 5 12 5 14 0 19 -2 13 -5z m-4913 -28 c-7
-9 -15 -13 -17 -11 -7 7 7 26 19 26 6 0 6 -6 -2 -15z m5165 -13 c-8 -8 -25 10
-19 20 4 6 9 5 15 -3 4 -7 6 -15 4 -17z m-1145 -57 c0 -46 -4 -75 -11 -75 -10
0 -11 110 -1 138 9 25 12 10 12 -63z m945 45 c3 -5 -3 -10 -14 -10 -12 0 -21
5 -21 10 0 6 6 10 14 10 8 0 18 -4 21 -10z m139 -5 c-4 -8 -13 -15 -20 -15
-12 0 -12 3 -2 15 17 19 29 19 22 0z m-5140 -19 c-6 -16 -24 -23 -24 -8 0 10
22 33 27 28 2 -2 1 -11 -3 -20z m1551 -183 c-3 -24 -11 -43 -16 -43 -7 0 -8
18 -3 48 11 70 12 81 15 147 3 53 4 49 7 -25 2 -47 0 -104 -3 -127z m3705 178
c0 -13 2 -13 9 -2 6 9 14 11 26 4 14 -9 12 -11 -16 -17 -20 -4 -35 -2 -37 4
-2 5 -13 8 -25 6 -12 -1 -17 -1 -10 1 7 2 10 10 7 17 -4 10 2 12 20 9 15 -3
26 -12 26 -22z m-120 -12 c66 -11 161 -37 140 -38 -8 0 -40 6 -70 14 -69 19
-80 19 -80 0 0 -8 -4 -15 -10 -15 -5 0 -10 4 -10 9 0 5 -13 12 -30 16 -17 4
-30 13 -30 22 0 10 5 13 18 8 9 -4 42 -11 72 -16z m-2830 1 c17 -6 2 -8 -52
-9 -46 -1 -78 3 -78 9 0 12 94 12 130 0z m3060 -6 c0 -2 -9 -4 -20 -4 -11 0
-20 4 -20 9 0 5 9 7 20 4 11 -3 20 -7 20 -9z m50 -10 c0 -2 -9 -4 -21 -4 -11
0 -18 4 -14 10 5 8 35 3 35 -6z m47 -9 c0 -9 -10 -15 -25 -15 -21 0 -22 2 -12
15 7 8 18 15 25 15 6 0 12 -7 12 -15z m-80 -11 c-3 -3 -12 -4 -19 -1 -8 3 -5
6 6 6 11 1 17 -2 13 -5z m-27 -14 c19 -6 53 -11 75 -12 38 -1 39 -2 15 -12
-29 -13 -30 -56 -1 -56 16 0 16 -5 -2 -82 -11 -46 -21 -89 -23 -95 -4 -15 -60
-17 -69 -3 -14 23 -25 7 -25 -39 0 -54 -7 -81 -22 -81 -5 0 -7 3 -4 8 2 4 5
32 7 62 1 30 7 61 12 68 7 9 -12 12 -90 12 -72 0 -105 4 -119 15 -10 8 -29 15
-41 15 -13 0 -23 5 -23 10 0 16 46 12 60 -5 7 -8 28 -15 46 -15 l34 0 0 83 c0
45 5 89 10 97 7 10 10 -16 10 -82 l0 -96 69 -4 69 -3 7 59 c4 36 15 72 27 89
21 29 21 30 3 43 -22 16 -45 18 -45 4 0 -5 -4 -10 -10 -10 -5 0 -10 6 -10 14
0 8 -6 17 -12 19 -25 10 16 7 52 -3z m202 0 c6 0 32 -22 57 -49 61 -64 265
-168 354 -180 34 -5 46 -13 71 -48 16 -24 26 -46 22 -50 -4 -4 -10 -2 -15 5
-5 9 -14 9 -38 0 -25 -9 -32 -19 -37 -50 -6 -36 -8 -38 -41 -38 -28 0 -35 -4
-36 -20 -1 -11 -3 -24 -4 -30 -1 -5 -3 -35 -4 -65 l-1 -56 -94 2 c-51 1 -100
5 -107 10 -9 5 23 9 82 9 l96 0 7 53 c8 70 8 115 -2 120 -4 3 -19 3 -35 0 -23
-5 -27 -10 -27 -42 0 -20 -5 -43 -10 -51 -7 -11 -10 0 -10 38 l0 52 -32 0
c-18 0 -63 3 -100 7 l-68 6 0 -31 c0 -33 -28 -102 -42 -102 -11 0 -9 11 7 40
8 14 14 40 15 58 0 25 -4 32 -19 32 -20 0 -31 -19 -31 -55 0 -12 -8 -29 -17
-36 -15 -13 -16 -11 -9 11 4 14 10 42 13 63 5 34 8 37 39 37 33 0 34 1 34 40
0 39 -1 40 -35 40 -19 0 -35 5 -35 10 0 6 16 10 36 10 42 0 43 23 1 28 -24 3
-40 22 -18 22 5 0 12 14 16 30 7 31 25 42 25 15 0 -11 12 -15 48 -15 34 0 43
-3 32 -10 -8 -5 -30 -10 -47 -10 -18 0 -33 -4 -33 -10 0 -5 5 -10 10 -10 6 0
10 -9 10 -19 0 -14 11 -22 38 -29 l37 -10 -38 -1 -38 -1 3 -42 3 -43 118 -3
c116 -3 118 -2 161 27 39 27 43 33 37 60 -4 23 -17 36 -51 54 -25 13 -75 41
-112 61 -38 21 -72 34 -78 31 -5 -3 -10 -1 -10 4 0 6 -9 11 -20 11 -21 0 -29
20 -7 20 8 1 6 5 -4 13 -9 7 -19 21 -22 32 -3 15 -5 13 -6 -8 -1 -39 -18 -67
-39 -67 -16 1 -16 2 0 13 9 7 18 30 19 51 4 43 -12 56 -63 50 -16 -1 -28 1
-28 6 0 10 30 19 48 14 8 -2 18 -4 24 -4z m-3692 -10 c0 -5 -4 -10 -10 -10 -5
0 -10 5 -10 10 0 6 5 10 10 10 6 0 10 -4 10 -10z m70 0 c0 -5 -13 -10 -30 -10
-16 0 -30 5 -30 10 0 6 14 10 30 10 17 0 30 -4 30 -10z m2330 -60 c0 -33 -4
-60 -10 -60 -11 0 -14 78 -4 104 11 28 14 18 14 -44z m-1062 -137 c1 -93 2
-181 3 -198 1 -48 -13 -135 -21 -130 -4 3 -5 22 -2 42 7 50 7 96 -3 226 l-8
107 -66 0 c-117 0 -261 13 -261 23 0 6 33 7 88 3 48 -3 123 -7 167 -8 l80 -1
3 51 c2 29 6 52 10 52 5 0 9 -75 10 -167z m772 135 c0 -13 -23 -5 -28 10 -2 7
2 10 12 6 9 -3 16 -11 16 -16z m180 -227 l0 -249 88 -70 c131 -104 167 -122
241 -122 44 0 74 -6 104 -22 23 -11 37 -23 30 -25 -6 -2 -25 3 -42 11 -18 10
-55 16 -92 16 -50 0 -72 6 -114 29 l-52 30 -7 -137 c-4 -75 -9 -139 -12 -141
-12 -13 -14 20 -7 148 l8 142 -79 65 -79 64 -83 0 c-49 0 -84 4 -84 10 0 6 11
10 23 10 23 0 24 3 30 122 4 66 7 150 7 185 0 37 4 63 10 63 7 0 8 -60 4 -185
l-7 -185 46 0 47 0 0 245 c0 157 4 245 10 245 6 0 10 -90 10 -249z m-1830 179
c0 -5 -25 -10 -55 -10 -30 0 -55 5 -55 10 0 6 25 10 55 10 30 0 55 -4 55 -10z
m420 1 c0 -11 -31 -24 -39 -16 -3 3 1 10 9 15 19 12 30 12 30 1z m-250 -11 c0
-6 -30 -10 -70 -10 -40 0 -70 4 -70 10 0 6 30 10 70 10 40 0 70 -4 70 -10z
m175 0 c17 0 25 -4 20 -9 -13 -12 -155 -1 -155 11 0 6 21 8 53 4 28 -3 65 -6
82 -6z m2083 -64 c13 -29 -4 -86 -25 -86 -11 0 -10 6 2 29 19 37 10 61 -21 61
-21 0 -24 -5 -24 -34 0 -19 -4 -37 -9 -40 -5 -4 -7 11 -4 34 5 37 4 40 -18 41
-13 1 -30 1 -36 0 -7 -1 -13 3 -13 9 0 6 28 10 68 10 63 0 70 -2 80 -24z m92
-61 c0 -25 -4 -45 -10 -45 -11 0 -14 73 -3 83 11 12 13 8 13 -38z m-1466 -87
c-6 -131 -18 -198 -35 -198 -7 0 -8 8 -4 18 3 9 8 37 11 62 8 97 13 167 14
203 0 20 4 37 10 37 5 0 7 -48 4 -122z m939 0 c-6 -121 -8 -136 -18 -126 -8 8
7 248 16 248 5 0 6 -55 2 -122z m877 86 c0 -11 -50 -54 -62 -54 -6 0 2 13 18
30 28 28 44 37 44 24z m-410 -14 c0 -5 -4 -10 -10 -10 -5 0 -10 5 -10 10 0 6
5 10 10 10 6 0 10 -4 10 -10z m2244 -37 c15 -30 15 -33 0 -33 -10 0 -14 5 -11
15 4 8 2 17 -3 20 -6 4 -10 13 -10 22 0 20 3 17 24 -24z m-2477 -75 c-4 -51
-7 -96 -7 -100 0 -5 -3 -8 -7 -8 -5 0 -7 45 -5 100 2 62 7 100 14 100 7 0 9
-30 5 -92z m1693 19 c14 -5 20 -11 13 -14 -17 -6 -83 16 -83 28 0 10 20 6 70
-14z m-4520 -79 c0 -90 -10 -178 -20 -178 -5 0 -12 17 -17 38 -8 34 -12 37
-46 40 -45 4 -50 22 -6 22 28 0 31 3 25 23 -4 12 -9 42 -12 67 -4 39 -1 33 25
-40 l29 -85 1 93 c1 54 5 92 11 92 6 0 10 -31 10 -72z m3240 17 c0 -33 -4 -55
-11 -55 -10 0 -11 84 -2 103 9 17 13 4 13 -48z m1466 -6 c-5 -43 -4 -64 4 -69
9 -5 9 -13 1 -27 -5 -11 -13 -86 -17 -167 l-7 -146 -39 -6 c-21 -4 -38 -10
-38 -15 0 -5 -13 -9 -30 -9 -26 0 -30 -4 -30 -27 0 -58 -10 -73 -46 -73 -19 0
-34 5 -34 11 0 7 11 9 30 6 28 -6 30 -5 30 26 0 56 10 77 37 77 13 0 21 4 18
10 -4 6 11 10 39 10 l44 0 7 84 c4 47 6 119 3 160 -2 42 0 76 4 76 5 0 8 32 8
70 0 45 4 70 11 70 8 0 10 -18 5 -61z m143 -144 c-1 -143 -9 -208 -20 -174 -3
8 -5 28 -4 44 1 17 3 100 4 185 2 112 5 147 12 125 5 -16 9 -97 8 -180z
m-5117 144 c16 -10 -1 -49 -23 -49 -10 0 -19 -4 -19 -10 0 -5 -9 -10 -20 -10
-26 0 -25 10 6 73 26 50 27 51 36 27 5 -13 14 -27 20 -31z m3776 20 c29 -6 62
-24 86 -45 50 -43 40 -56 -11 -15 -46 37 -102 56 -118 40 -5 -5 -13 -42 -16
-82 l-6 -72 0 85 c0 82 -1 85 -24 88 -13 2 -28 8 -34 14 -11 11 36 6 123 -13z
m-2088 -9 c0 -5 -4 -10 -10 -10 -5 0 -10 5 -10 10 0 6 5 10 10 10 6 0 10 -4
10 -10z m845 -22 c6 -6 0 -8 -19 -6 -16 2 -31 9 -34 17 -3 10 2 11 19 6 13 -4
29 -12 34 -17z m-1368 -170 c126 -5 138 -7 155 -28 17 -21 20 -21 129 -10 62
6 116 13 121 16 4 3 8 18 8 33 0 15 6 39 13 55 13 29 30 30 92 6 41 -17 14
-25 -31 -10 -31 11 -37 10 -49 -7 -8 -10 -15 -34 -15 -54 l0 -37 -63 -11 c-35
-6 -79 -11 -97 -11 -20 0 -43 -8 -56 -21 -18 -17 -26 -19 -43 -10 -15 8 -80
10 -219 5 -140 -5 -204 -4 -218 4 -15 9 -6 11 49 12 l67 0 1 103 c1 56 2 107
4 112 1 6 4 17 6 25 2 8 5 -26 6 -76 l4 -91 136 -5z m4280 123 c7 -11 28 -24
47 -31 20 -6 36 -16 36 -22 0 -10 -29 -7 -62 7 -28 12 -33 -36 -9 -83 22 -43
26 -62 14 -62 -16 0 -44 89 -42 131 1 24 -1 52 -5 62 -11 23 6 22 21 -2z
m-3047 -52 c34 -6 -111 -6 -227 1 -2 0 -3 4 -3 10 0 11 151 3 230 -11z m2290
12 c0 -9 -45 -16 -167 -27 -47 -4 -73 -3 -73 3 0 9 60 17 223 31 9 1 17 -2 17
-7z m-4160 -11 c0 -11 -53 -11 -150 0 -62 7 -59 7 43 8 66 1 107 -2 107 -8z
m425 -50 c13 -6 -9 -9 -67 -9 -53 -1 -88 3 -88 9 0 12 127 12 155 0z m2555
-10 c0 -11 -4 -20 -10 -20 -5 0 -10 9 -10 20 0 11 5 20 10 20 6 0 10 -9 10
-20z m-3243 -163 c-5 -51 -10 -63 -46 -102 -23 -25 -41 -51 -41 -58 0 -10 60
-17 273 -30 149 -10 309 -17 355 -17 45 0 82 -4 82 -8 0 -10 -285 -4 -524 12
-122 8 -180 8 -182 1 -3 -6 -5 -101 -7 -213 -2 -189 -9 -243 -23 -172 l-6 30
-109 0 c-66 0 -109 4 -109 10 0 6 43 10 110 10 61 0 110 3 111 8 0 4 4 96 8
204 l6 197 44 45 43 44 -2 78 c-3 99 0 109 12 59 5 -22 7 -66 5 -98z m3789 92
c-4 -22 -4 -63 0 -90 l7 -49 48 0 c48 0 49 1 49 30 0 56 18 30 23 -32 3 -35 8
-76 12 -92 6 -22 5 -28 -6 -24 -8 2 -18 26 -23 51 l-9 47 -49 0 c-46 0 -48 -1
-48 -27 0 -28 0 -28 -75 -30 -43 -1 -75 2 -75 7 0 6 29 10 65 10 l65 0 0 67
c0 49 -5 72 -17 86 -17 19 -17 20 0 14 14 -5 17 0 17 33 0 23 5 40 11 40 8 0
9 -13 5 -41z m-570 -4 c-6 -25 -5 -25 53 -25 33 0 71 4 85 10 14 5 28 5 31 1
8 -15 -23 -21 -101 -21 l-74 0 -1 -47 c-2 -89 -17 -104 -18 -18 -1 87 6 125
21 125 6 0 7 -11 4 -25z m-716 -13 c0 -5 -10 -18 -22 -29 -30 -28 -219 -59
-204 -34 4 5 40 13 82 16 59 6 82 13 102 31 28 24 42 30 42 16z m1150 -56 c0
-29 -3 -68 -6 -85 -6 -28 -10 -31 -43 -29 l-36 1 33 4 32 4 0 80 c0 46 4 79
10 79 6 0 10 -24 10 -54z m-1570 -30 c-7 -10 -16 -83 -23 -201 -6 -103 -15
-185 -20 -185 -6 0 -7 44 -2 115 l7 115 -146 0 c-101 0 -146 3 -146 11 0 8 41
10 144 7 l144 -5 6 45 c3 25 6 57 6 73 0 16 7 32 17 38 23 12 29 6 13 -13z
m1999 -12 c39 -15 71 -31 71 -36 0 -6 -8 -7 -17 -4 -93 34 -133 52 -133 58 0
11 1 11 79 -18z m-3272 -105 c3 -46 6 -85 7 -85 0 -1 36 -4 79 -6 l77 -3 0 31
c0 41 21 59 49 44 19 -9 23 -7 38 25 9 19 20 35 25 35 11 0 11 -2 -17 -62 -21
-44 -25 -68 -25 -145 0 -51 4 -95 10 -98 6 -4 10 -148 10 -401 l0 -394 218 -1
c119 0 235 -4 257 -8 26 -6 -53 -9 -217 -10 l-258 -1 0 -90 c0 -53 -4 -90 -10
-90 -6 0 -10 37 -10 90 l0 90 -120 0 -120 0 0 -82 c0 -46 -5 -90 -10 -98 -8
-10 -10 14 -8 83 l3 97 -127 0 c-76 0 -128 4 -128 10 0 5 54 11 128 12 l127 3
1 413 c1 227 4 416 8 419 3 4 6 -183 6 -415 l0 -422 119 0 119 0 5 33 c2 17 5
186 6 374 2 292 0 346 -13 372 -10 19 -16 56 -16 100 l0 70 -34 -1 c-34 -1
-34 -2 -46 -65 -7 -34 -17 -63 -22 -63 -6 0 -8 10 -5 23 4 12 9 41 13 65 l7
42 -114 0 c-121 0 -189 8 -189 20 0 5 36 6 80 3 l80 -6 0 93 c0 51 2 91 5 88
3 -3 8 -43 12 -89z m2063 50 c-7 -11 -14 -18 -17 -15 -8 8 5 36 17 36 7 0 7
-6 0 -21z m-355 2 c30 -7 5 -9 -92 -10 -83 -1 -133 3 -133 9 0 12 167 13 225
1z m538 -12 c23 -12 55 -32 70 -45 16 -13 37 -24 48 -24 10 0 19 -5 19 -11 0
-16 -62 0 -81 21 -15 18 -98 64 -104 58 -2 -2 -5 -32 -6 -68 l-3 -65 92 -6
c51 -3 95 -9 99 -12 3 -4 -40 -7 -96 -7 l-103 0 7 -225 7 -225 -68 0 c-48 0
-64 3 -54 10 8 5 37 10 64 10 l48 0 -7 103 c-4 56 -8 152 -8 214 l0 111 -58 4
c-52 3 -59 1 -61 -17 -3 -17 -4 -16 -9 5 -3 14 -2 36 2 50 7 24 7 24 8 3 1
-21 6 -23 61 -23 l60 0 0 58 c0 65 8 102 22 102 5 0 28 -10 51 -21z m-1730 4
c-7 -2 -19 -2 -25 0 -7 3 -2 5 12 5 14 0 19 -2 13 -5z m1991 -27 c7 -9 38 -16
84 -19 98 -7 104 -17 11 -17 -72 0 -119 16 -119 41 0 13 11 11 24 -5z m266
-42 c0 -21 -4 -33 -10 -29 -5 3 -10 19 -10 36 0 16 5 29 10 29 6 0 10 -16 10
-36z m-723 -16 c-3 -8 -6 -5 -6 6 -1 11 2 17 5 13 3 -3 4 -12 1 -19z m613 -27
c0 -20 -23 -71 -32 -71 -6 0 -7 8 -3 18 4 9 10 27 12 40 5 21 23 32 23 13z
m-980 -11 c0 -12 -147 -12 -175 0 -13 6 14 9 78 9 58 1 97 -3 97 -9z m263 -6
c43 -4 77 -11 77 -15 0 -11 -192 1 -204 12 -12 11 23 11 127 3z m2277 -24 c0
-5 -4 -10 -9 -10 -6 0 -5 -14 0 -35 6 -20 7 -45 4 -55 -4 -11 -2 -20 4 -20 6
0 7 -21 4 -55 -5 -49 -4 -55 13 -55 12 0 15 -3 7 -8 -6 -4 -13 -32 -16 -62
l-3 -55 -2 63 c-1 38 -6 62 -13 62 -7 0 -9 12 -5 33 6 33 -6 158 -19 190 -5
13 -2 17 14 17 12 0 21 -4 21 -10z m-792 -22 c7 -7 12 -36 12 -76 0 -80 -17
-73 -22 8 l-3 55 -64 3 c-35 2 -69 8 -76 15 -9 10 5 11 64 9 42 -3 82 -9 89
-14z m-2602 -25 c-3 -16 -8 -46 -12 -68 -3 -22 -16 -56 -28 -75 -11 -19 -23
-55 -27 -80 l-6 -45 -2 49 c-1 32 5 59 18 80 10 17 24 61 31 99 7 37 17 67 22
67 5 0 7 -12 4 -27z m3662 1 c25 -7 32 -54 8 -54 -8 0 -17 -6 -20 -12 -5 -10
-7 -10 -12 0 -3 6 -12 12 -20 12 -9 0 -14 11 -14 30 0 32 11 36 58 24z m-2438
-219 c0 -123 -4 -195 -10 -195 -6 0 -10 51 -10 134 l0 134 -197 6 c-109 3
-245 10 -303 14 l-105 7 125 3 c69 1 205 -1 303 -5 l177 -8 1 33 c1 17 3 37 4
42 1 6 3 15 4 20 0 6 3 10 6 10 3 0 5 -88 5 -195z m-2565 170 c83 -2 174 -5
203 -5 28 0 52 -5 52 -10 0 -7 -63 -8 -182 -5 -245 7 -348 15 -348 26 0 4 28
6 63 4 34 -3 130 -7 212 -10z m1144 -327 c-1 -180 -4 -280 -9 -258 -13 52 -13
550 0 550 7 0 10 -100 9 -292z m-1929 232 c0 -6 -80 -10 -220 -10 -140 0 -220
4 -220 10 0 6 80 10 220 10 140 0 220 -4 220 -10z m3745 -127 c-4 -46 -11 -83
-16 -83 -9 0 -2 173 9 200 10 28 14 -31 7 -117z m130 65 c-12 -137 -17 -168
-25 -168 -5 0 -7 15 -5 33 6 42 14 146 15 175 0 12 5 22 10 22 7 0 9 -23 5
-62z m522 36 c-3 -3 -12 -4 -19 -1 -8 3 -5 6 6 6 11 1 17 -2 13 -5z m461 -51
c19 -15 12 -26 -12 -17 -10 4 -16 17 -15 38 1 20 3 24 6 11 3 -11 12 -26 21
-32z m446 -62 l7 -90 45 -36 c42 -34 55 -55 35 -55 -5 0 -30 19 -55 43 l-46
42 -8 93 c-4 51 -6 95 -4 97 13 13 20 -13 26 -94z m-2467 -5 c4 -61 2 -86 -6
-86 -7 0 -11 30 -11 92 0 50 3 89 6 86 3 -3 8 -45 11 -92z m-1797 -161 c0
-137 -4 -215 -10 -215 -6 0 -10 75 -10 205 l0 205 -30 0 c-16 0 -30 5 -30 10
0 6 18 10 40 10 l40 0 0 -215z m3171 164 c6 -13 8 -39 4 -65 l-6 -44 60 0 c34
0 61 -4 61 -10 0 -6 -28 -10 -65 -10 l-65 0 -1 -42 c-3 -164 -6 -199 -18 -211
-11 -10 -12 -4 -6 33 4 25 6 78 5 119 0 41 4 106 11 144 12 68 12 69 -12 88
-24 19 -24 19 -2 19 13 0 27 -9 34 -21z m-2791 -47 c0 -5 -6 -17 -14 -28 -19
-25 -31 -12 -14 15 13 21 28 28 28 13z m1190 -12 c0 -5 -4 -10 -10 -10 -5 0
-10 5 -10 10 0 6 5 10 10 10 6 0 10 -4 10 -10z m-30 -20 c0 -6 -25 -9 -57 -9
-52 1 -54 2 -23 9 53 11 80 11 80 0z m-150 -10 c-20 -13 -130 -13 -130 0 0 6
31 10 73 10 50 0 67 -3 57 -10z m-1695 -21 c88 0 155 -2 149 -5 -6 -2 -76 -8
-155 -12 l-144 -7 1 -255 c1 -280 -11 -231 -22 91 l-6 167 -45 6 c-25 3 -80 6
-122 7 -56 1 -70 3 -51 10 14 4 72 6 130 3 58 -3 177 -6 265 -5z m2105 -9 c0
-5 -4 -10 -10 -10 -5 0 -10 5 -10 10 0 6 5 10 10 10 6 0 10 -4 10 -10z m1020
-50 c0 -35 -4 -60 -10 -60 -6 0 -10 10 -9 23 1 12 1 34 1 50 l-2 27 -115 0
c-70 0 -115 4 -115 10 0 6 48 10 125 10 l125 0 0 -60z m297 23 c-9 -9 -20 -13
-24 -9 -4 4 -1 11 7 16 25 16 35 11 17 -7z m-418 -230 c1 -76 -3 -123 -9 -123
-6 0 -9 65 -9 178 1 127 4 162 9 122 5 -30 8 -110 9 -177z m1161 212 c0 -2
-14 -12 -31 -21 -29 -15 -31 -18 -25 -55 4 -24 2 -39 -4 -39 -5 0 -10 10 -10
23 0 12 -3 31 -6 42 -3 14 3 25 23 37 28 16 53 23 53 13z m-281 -67 c4 -26 -1
-29 -15 -10 -9 14 -22 21 -31 18 -9 -4 -11 -2 -7 6 5 7 0 9 -14 6 -21 -6 -31
10 -16 25 7 7 81 -33 83 -45z m-3846 -65 c4 -46 3 -83 -2 -83 -9 0 -21 83 -21
150 1 72 17 26 23 -67z m-376 39 c14 -42 18 -232 4 -232 -5 0 -11 51 -14 113
-3 61 -8 126 -12 142 -10 40 5 24 22 -23z m3463 3 c0 -8 -4 -15 -10 -15 -5 0
-10 7 -10 15 0 8 5 15 10 15 6 0 10 -7 10 -15z m2 -100 c4 -82 -6 -129 -15
-70 -9 66 -9 135 2 135 5 0 11 -29 13 -65z m998 55 c0 -5 -4 -10 -10 -10 -5 0
-10 5 -10 10 0 6 5 10 10 10 6 0 10 -4 10 -10z m-2046 -132 c19 -47 26 -80 26
-130 l0 -68 100 0 c60 0 100 -4 100 -10 0 -12 -412 -12 -450 0 -16 5 23 8 103
9 l127 1 0 69 c0 51 -6 83 -25 125 -28 63 -29 66 -17 66 5 0 21 -28 36 -62z
m1341 -108 c8 -13 -5 -110 -15 -110 -4 0 -7 26 -6 58 0 31 -1 68 -3 82 -2 14
-2 52 -1 85 l3 60 8 -82 c4 -46 10 -87 14 -93z m1452 -16 c-4 -4 -14 1 -22 12
-22 29 -18 41 7 17 12 -13 19 -26 15 -29z m-5197 -36 c0 -38 -3 -49 -10 -38
-13 20 -13 90 0 90 6 0 10 -24 10 -52z m3350 11 c0 -5 -4 -9 -10 -9 -5 0 -10
7 -10 16 0 8 5 12 10 9 6 -3 10 -10 10 -16z m329 -206 c1 -36 -3 -63 -9 -63
-6 0 -9 43 -9 113 1 93 3 103 9 62 5 -27 9 -78 9 -112z m551 -178 c0 -19 -4
-35 -10 -35 -5 0 -10 16 -10 35 0 19 5 35 10 35 6 0 10 -16 10 -35z m-3 -352
c-1 -43 -3 -8 -3 77 0 85 2 120 3 78 2 -43 2 -113 0 -155z m-2567 167 c0 -7
-37 -10 -101 -9 -155 2 -177 17 -26 18 82 1 127 -3 127 -9z m-109 -100 c5 0 9
-6 9 -14 0 -10 -16 -17 -45 -22 -25 -3 -48 -10 -51 -15 -6 -11 -24 -2 -24 12
0 5 10 9 23 9 12 0 29 9 37 20 8 11 21 18 28 15 8 -3 18 -5 23 -5z m2187 -187
c6 -15 12 -46 12 -70 0 -31 4 -43 15 -43 11 0 15 17 18 73 l3 72 2 -86 2 -86
-30 5 c-29 4 -30 6 -30 58 0 29 -4 56 -10 59 -12 7 -14 45 -2 45 4 0 13 -12
20 -27z m-424 -38 c-7 -30 18 -49 55 -42 24 5 31 2 37 -15 4 -13 1 -24 -7 -29
-20 -12 -49 -11 -49 2 0 6 -11 20 -25 31 -25 19 -55 67 -55 87 0 7 8 7 25 -1
18 -8 23 -16 19 -33z m-365 -347 c1 -76 -2 -118 -9 -118 -6 0 -10 63 -9 183 1
137 4 166 9 117 4 -36 8 -118 9 -182z m340 75 c1 -18 -3 -33 -9 -33 -5 0 -10
24 -9 53 0 38 3 47 9 32 5 -11 9 -35 9 -52z m-4564 -438 c6 -8 60 -17 135 -23
69 -6 147 -19 175 -28 62 -22 42 -31 -22 -10 -27 8 -95 18 -153 22 -58 3 -118
13 -135 20 -21 10 -85 17 -207 21 -98 3 -178 10 -178 14 0 13 374 -3 385 -16z"/>
<path d="M3735 4778 c-27 -5 -102 -12 -165 -17 -63 -4 -100 -8 -82 -9 19 -1
32 -7 32 -16 0 -7 15 -18 33 -24 l32 -10 -37 -1 c-28 -1 -38 3 -38 14 0 10
-10 15 -30 15 -24 0 -33 -6 -41 -27 -22 -59 -13 -67 88 -78 l92 -11 7 58 c4
32 10 58 15 58 5 0 6 -26 3 -58 l-7 -59 48 -6 c26 -4 63 -7 81 -7 l34 0 1 78
c0 42 2 85 4 95 4 19 3 19 -70 5z"/>
<path d="M3818 4698 c0 -51 -2 -97 -3 -103 -2 -5 -4 -26 -5 -45 l-2 -35 -7 30
c-5 26 -11 31 -51 37 -25 3 -62 7 -82 7 -37 1 -38 0 -38 -34 0 -21 5 -35 13
-35 7 -1 5 -6 -5 -14 -11 -8 -18 -27 -18 -48 0 -31 4 -36 27 -41 16 -3 32 0
36 6 6 9 10 9 14 0 2 -7 18 -13 34 -13 16 0 29 -4 29 -10 0 -5 11 -10 24 -10
35 0 56 -10 56 -26 0 -9 11 -14 28 -14 l29 0 11 178 c7 97 12 196 12 220 l0
42 -50 0 -50 0 -2 -92z m-68 -148 c-24 -15 -37 -11 -16 5 11 8 22 12 25 9 3
-3 -1 -9 -9 -14z m-40 -14 c0 -2 -9 -6 -20 -9 -11 -3 -20 -1 -20 4 0 5 9 9 20
9 11 0 20 -2 20 -4z m-1 -38 c0 -13 -4 -32 -9 -43 -7 -15 -9 -10 -9 23 -1 23
4 42 9 42 6 0 10 -10 9 -22z"/>
<path d="M3426 4608 c-2 -7 -7 -40 -10 -73 -4 -32 -9 -69 -12 -81 -5 -19 -2
-21 20 -17 15 3 29 9 32 14 9 16 37 10 30 -6 -4 -12 4 -15 38 -15 25 0 51 -3
59 -6 12 -4 16 9 22 68 3 40 8 80 11 89 4 14 -8 18 -73 23 -43 4 -86 10 -96
12 -9 3 -19 -1 -21 -8z m164 -118 c-20 -13 -33 -13 -25 0 3 6 14 10 23 10 15
0 15 -2 2 -10z m-55 -20 c-3 -5 -13 -10 -21 -10 -8 0 -12 5 -9 10 3 6 13 10
21 10 8 0 12 -4 9 -10z"/>
<path d="M5070 4420 c0 -55 2 -100 5 -100 2 0 28 5 57 11 85 18 90 47 21 120
-81 87 -83 86 -83 -31z"/>
<path d="M2836 4414 c-5 -14 -4 -15 9 -4 17 14 19 20 6 20 -5 0 -12 -7 -15
-16z"/>
<path d="M2870 4399 c0 -10 42 -30 48 -24 2 2 0 9 -5 17 -9 15 -43 20 -43 7z"/>
<path d="M3601 4284 c-7 -64 -9 -120 -4 -125 4 -4 32 -11 61 -15 51 -6 52 -6
52 19 0 14 5 29 10 32 12 8 12 -121 0 -150 -7 -15 -9 -9 -9 26 l-1 47 -47 6
c-27 4 -55 9 -64 12 -19 5 -25 -39 -35 -243 l-6 -123 64 0 65 0 7 46 c3 26 6
66 6 90 0 26 5 44 11 44 8 0 9 -26 4 -89 l-7 -90 101 -3 101 -3 1 60 c1 76 4
103 12 112 4 3 7 -36 7 -87 l0 -93 351 6 c193 3 354 9 358 12 3 4 6 83 6 177
0 151 -2 170 -17 179 -13 7 -18 23 -18 55 0 38 -3 45 -17 41 -10 -3 -59 -13
-109 -22 -109 -20 -104 -10 -104 -201 l0 -124 -62 1 c-35 0 -83 4 -108 8 -38
7 -30 9 51 10 l96 1 6 137 c4 75 5 138 3 141 -3 2 -22 0 -43 -5 -36 -8 -38
-11 -47 -61 -12 -67 -27 -68 -19 -1 l6 52 -26 -7 c-15 -3 -46 -9 -70 -12 l-42
-6 3 86 3 86 -28 0 c-83 1 -221 12 -245 20 -25 8 -28 6 -40 -28 -6 -20 -11
-41 -10 -45 1 -4 -4 -15 -13 -23 -11 -11 -19 -12 -34 -4 -11 5 -29 10 -41 10
-13 0 -18 4 -14 11 4 6 20 8 40 4 31 -5 35 -3 44 21 16 40 -17 57 -62 33 -11
-6 -22 -8 -25 -5 -3 3 6 11 21 17 17 8 26 20 26 36 0 27 -5 29 -81 37 l-56 6
-12 -116z m293 -120 c11 -28 6 -39 -9 -20 -8 11 -15 23 -15 28 0 14 18 9 24
-8z m-264 -64 c0 -5 -5 -10 -11 -10 -5 0 -7 5 -4 10 3 6 8 10 11 10 2 0 4 -4
4 -10z m231 -104 c-7 -8 -10 -20 -6 -26 3 -5 1 -10 -5 -10 -20 0 -23 31 -4 45
23 16 31 11 15 -9z m689 -116 c0 -12 -77 -12 -105 0 -14 6 -2 9 43 9 35 1 62
-3 62 -9z m-200 -60 c0 -6 -27 -10 -60 -10 -33 0 -60 4 -60 10 0 6 27 10 60
10 33 0 60 -4 60 -10z m183 -27 c-7 -2 -19 -2 -25 0 -7 3 -2 5 12 5 14 0 19
-2 13 -5z"/>
<path d="M3760 4368 c0 -4 10 -18 22 -30 21 -21 22 -21 29 -2 12 30 11 31 -21
36 -16 3 -30 1 -30 -4z"/>
<path d="M5983 4335 c-15 -10 -32 -13 -50 -9 -15 4 -25 3 -21 -1 4 -5 3 -14
-2 -21 -8 -9 -4 -17 15 -32 14 -11 25 -25 25 -30 0 -6 16 -16 36 -22 37 -13
53 -4 54 26 0 7 7 14 15 18 9 3 15 18 15 36 0 24 -6 33 -26 40 -33 13 -36 13
-61 -5z m-33 -34 c0 -6 -4 -13 -10 -16 -5 -3 -10 1 -10 9 0 9 5 16 10 16 6 0
10 -4 10 -9z"/>
<path d="M2947 4253 c-14 -13 -7 -25 11 -21 10 3 27 -1 37 -8 10 -8 27 -14 37
-14 33 0 18 18 -29 34 -54 19 -48 18 -56 9z"/>
<path d="M3065 4220 c-3 -5 -1 -10 4 -10 6 0 11 5 11 10 0 6 -2 10 -4 10 -3 0
-8 -4 -11 -10z"/>
<path d="M2911 4133 c-12 -77 -15 -203 -5 -213 3 -2 23 -5 45 -5 34 0 45 6 67
35 15 19 42 47 60 64 21 19 32 39 32 57 0 23 -5 27 -37 33 -21 3 -50 6 -65 6
-16 0 -28 5 -28 11 0 8 12 10 35 6 27 -4 35 -2 35 9 0 8 -7 17 -16 21 -9 3
-27 17 -40 29 -12 13 -34 24 -47 24 -22 0 -25 -6 -36 -77z m39 -47 c0 -8 -4
-18 -10 -21 -5 -3 -10 3 -10 14 0 12 5 21 10 21 6 0 10 -6 10 -14z"/>
<path d="M5910 4205 c0 -18 42 -84 56 -89 10 -4 44 -9 76 -13 53 -5 58 -4 52
11 -5 12 -14 16 -30 12 -12 -3 -26 -2 -29 4 -3 5 -17 10 -30 10 -14 0 -39 14
-60 35 -19 20 -35 33 -35 30z"/>
<path d="M5965 4200 c3 -5 14 -10 23 -10 15 0 15 2 2 10 -20 13 -33 13 -25 0z"/>
<path d="M5660 4097 c0 -8 7 -14 15 -14 11 0 12 4 4 14 -6 7 -13 13 -15 13 -2
0 -4 -6 -4 -13z"/>
<path d="M6160 4090 c0 -5 5 -10 11 -10 5 0 7 5 4 10 -3 6 -8 10 -11 10 -2 0
-4 -4 -4 -10z"/>
<path d="M6018 4083 c7 -3 16 -2 19 1 4 3 -2 6 -13 5 -11 0 -14 -3 -6 -6z"/>
<path d="M5726 4027 c3 -10 9 -15 12 -12 3 3 0 11 -7 18 -10 9 -11 8 -5 -6z"/>
<path d="M5690 4023 c0 -5 14 -24 31 -43 l30 -35 -18 33 c-19 36 -43 61 -43
45z"/>
<path d="M6140 4985 l-25 -24 -44 19 c-50 23 -101 26 -101 7 0 -8 22 -24 49
-36 l49 -23 76 37 c42 21 76 40 76 42 0 1 -12 3 -28 3 -16 0 -38 -10 -52 -25z"/>
<path d="M5970 4920 c0 -33 18 -39 58 -17 22 13 22 13 -13 30 -46 22 -45 22
-45 -13z"/>
<path d="M6331 3686 c-7 -8 -15 -41 -18 -73 -3 -32 -10 -66 -15 -75 -7 -15 -4
-18 21 -18 28 0 30 3 41 58 6 31 14 65 16 75 4 12 0 17 -16 17 -16 0 -20 5
-16 15 7 19 2 19 -13 1z"/>
<path d="M6860 3515 c0 -7 7 -15 15 -19 8 -3 15 -12 15 -21 0 -12 7 -14 28 -9
48 12 55 18 35 36 -25 21 -93 31 -93 13z"/>
<path d="M6840 3425 c-12 -15 -10 -52 3 -47 4 1 18 2 32 2 21 0 25 5 25 30 0
25 -4 30 -24 30 -13 0 -29 -7 -36 -15z"/>
<path d="M3427 3116 l-4 -29 143 8 c96 4 149 3 163 -4 13 -7 22 -8 26 -1 3 5
-2 10 -11 10 -10 0 -26 7 -36 17 -14 13 -47 18 -147 22 l-129 6 -5 -29z"/>
<path d="M3660 2820 c0 -19 5 -30 14 -30 20 0 32 40 15 51 -23 15 -29 10 -29
-21z"/>
<path d="M7930 2694 c0 -10 7 -14 22 -12 32 5 35 28 4 28 -17 0 -26 -5 -26
-16z"/>
<path d="M5950 900 c0 -5 7 -10 15 -10 8 0 15 5 15 10 0 6 -7 10 -15 10 -8 0
-15 -4 -15 -10z"/>
</g>
</svg>
