<?xml version="1.0" standalone="no"?>
<!DOCTYPE svg PUBLIC "-//W3C//DTD SVG 20010904//EN"
 "http://www.w3.org/TR/2001/REC-SVG-20010904/DTD/svg10.dtd">
<svg version="1.0" xmlns="http://www.w3.org/2000/svg"
 width="800.000000pt" height="800.000000pt" viewBox="0 0 800.000000 800.000000"
 preserveAspectRatio="xMidYMid meet">
<metadata>
Created by potrace 1.16, written by Peter Selinger 2001-2019
</metadata>
<g transform="translate(0.000000,800.000000) scale(0.100000,-0.100000)"
fill="#000000" stroke="none">
<path d="M0 4000 l0 -4000 1746 0 c1555 0 1748 2 1758 15 6 9 45 35 86 58 72
41 75 44 78 82 2 22 10 47 17 55 28 31 45 98 33 125 -8 19 -8 38 2 81 10 43
11 63 2 86 -6 16 -8 35 -6 43 3 7 -3 15 -13 18 -15 4 -15 5 3 6 38 2 47 68 14
101 -11 11 -20 33 -20 49 0 16 -7 34 -15 41 -8 7 -15 20 -15 30 0 9 -9 25 -20
35 -14 13 -20 31 -20 61 0 39 -3 43 -29 49 -16 3 -39 17 -51 30 -19 20 -21 27
-10 40 8 9 10 27 6 47 -6 27 -27 49 -121 122 -132 102 -195 183 -195 252 0 21
-7 48 -15 58 -18 24 -20 137 -4 153 16 16 39 5 39 -18 0 -10 5 -19 10 -19 22
0 10 61 -17 87 l-28 26 25 -7 c14 -4 33 -8 43 -7 15 0 16 -3 7 -14 -7 -9 -9
-26 -6 -41 9 -36 -2 -64 -25 -64 -14 0 -19 7 -19 25 0 14 -5 25 -11 25 -7 0
-9 -23 -6 -67 13 -188 49 -251 219 -383 103 -80 116 -94 120 -125 2 -19 0 -42
-5 -50 -12 -22 7 -43 54 -57 37 -11 39 -13 39 -53 0 -26 6 -48 15 -55 8 -7 15
-23 15 -36 0 -13 9 -28 21 -35 16 -8 20 -17 16 -37 -4 -19 1 -34 16 -50 20
-21 22 -41 17 -114 -2 -16 -6 -28 -11 -28 -4 0 -5 -24 -2 -54 3 -30 1 -68 -6
-86 -8 -25 -8 -38 3 -58 11 -22 11 -33 -2 -71 -8 -25 -23 -55 -33 -67 -19 -20
-26 -39 -11 -30 4 2 6 -11 4 -30 -4 -31 -12 -38 -88 -81 -46 -27 -84 -51 -84
-56 0 -4 1008 -7 2240 -7 l2240 0 0 4000 0 4000 -2440 0 -2440 0 0 -29 c0 -47
10 -61 44 -62 l31 -1 -32 -10 c-29 -10 -31 -13 -25 -47 12 -72 10 -76 -30 -79
-37 -3 -38 -2 -38 30 0 53 -13 65 -45 44 -41 -27 -41 -12 0 19 32 25 35 31 29
64 -12 74 -9 71 -86 71 -62 0 -74 -3 -114 -32 -24 -17 -47 -28 -51 -24 -4 4
-1 11 7 16 72 41 141 39 -1378 40 l-1432 0 0 -4000z m7580 3980 c0 -5 -4 -10
-10 -10 -5 0 -10 5 -10 10 0 6 5 10 10 10 6 0 10 -4 10 -10z m-2987 -70 c-3
-12 -14 -20 -26 -20 -19 0 -20 1 -2 20 10 11 21 20 26 20 4 0 5 -9 2 -20z
m217 10 c0 -5 -4 -10 -10 -10 -5 0 -10 5 -10 10 0 6 5 10 10 10 6 0 10 -4 10
-10z m863 -10 c-5 -20 -23 -28 -23 -10 0 6 -16 10 -35 10 -28 0 -35 -4 -35
-20 0 -11 -4 -20 -10 -20 -11 0 -14 43 -3 53 3 4 30 7 59 7 47 0 52 -2 47 -20z
m-263 -70 c0 -5 -6 -10 -14 -10 -8 0 -18 5 -21 10 -3 6 3 10 14 10 12 0 21 -4
21 -10z m105 -10 c3 -5 -1 -10 -9 -10 -9 0 -16 5 -16 10 0 6 4 10 9 10 6 0 13
-4 16 -10z m45 1 c0 -5 -7 -11 -15 -15 -9 -3 -15 0 -15 9 0 8 7 15 15 15 8 0
15 -4 15 -9z m1925 -31 c-3 -5 -12 -7 -20 -3 -21 7 -19 13 6 13 11 0 18 -4 14
-10z m-408 -26 c-3 -3 -12 -4 -19 -1 -8 3 -5 6 6 6 11 1 17 -2 13 -5z m-62
-14 c-27 -12 -35 -12 -35 0 0 6 12 10 28 9 24 0 25 -1 7 -9z m-624 -120 c6 0
8 -4 5 -9 -8 -12 -46 -2 -46 11 0 6 7 7 16 4 9 -3 20 -6 25 -6z m-4864 -42
c-3 -8 -6 -5 -6 6 -1 11 2 17 5 13 3 -3 4 -12 1 -19z m763 13 c0 -6 -4 -13
-10 -16 -5 -3 -10 1 -10 9 0 9 5 16 10 16 6 0 10 -4 10 -9z m3460 -21 c0 -13
-11 -13 -30 0 -12 8 -11 10 8 10 12 0 22 -4 22 -10z m-140 -16 c0 -11 -6 -14
-22 -9 -39 12 -44 25 -10 25 22 0 32 -5 32 -16z m-1170 -5 c0 -7 10 -9 24 -7
18 4 27 -1 35 -19 6 -13 19 -23 31 -23 26 0 26 -16 0 -30 -16 -9 -20 -8 -20 5
0 8 -9 15 -20 15 -11 0 -23 7 -26 15 -3 8 -14 17 -25 20 -11 4 -17 10 -14 15
3 5 -1 11 -7 13 -8 3 -6 6 5 6 9 1 17 -4 17 -10z m-94 -49 c-6 -41 -1 -46 41
-41 7 1 10 -5 7 -13 -4 -11 -12 -13 -30 -6 -19 7 -24 6 -24 -5 0 -8 -5 -15
-11 -15 -10 0 -6 54 7 103 10 33 17 17 10 -23z m-1841 -62 c10 -40 -8 -34 -29
10 l-18 37 -15 -22 c-15 -23 -37 -28 -67 -17 -25 9 -8 25 20 18 14 -4 24 -2
24 4 0 6 7 18 16 27 16 15 19 15 40 -7 12 -13 26 -35 29 -50z m1895 62 c12 -8
11 -10 -7 -10 -13 0 -23 5 -23 10 0 13 11 13 30 0z m44 -15 c-4 -8 -16 -15
-28 -15 -20 1 -20 1 4 15 31 18 30 18 24 0z m1060 -36 c-3 -5 -10 -7 -15 -3
-5 3 -7 10 -3 15 3 5 10 7 15 3 5 -3 7 -10 3 -15z m320 6 c3 -8 3 -15 0 -15
-3 0 -12 7 -20 15 -13 13 -13 15 -1 15 8 0 17 -7 21 -15z m-824 -10 c0 -8 -9
-15 -20 -15 -22 0 -27 15 -7 23 21 9 27 7 27 -8z m-2975 -35 c-3 -5 -11 -10
-16 -10 -6 0 -7 5 -4 10 3 6 11 10 16 10 6 0 7 -4 4 -10z m2319 -26 c9 -24 7
-28 -9 -14 -17 14 -20 30 -6 30 5 0 12 -7 15 -16z m1086 -29 c0 -12 -35 -75
-42 -75 -11 0 -10 4 9 45 14 29 33 47 33 30z m-2890 -169 c0 -3 -4 -8 -10 -11
-5 -3 -10 -1 -10 4 0 6 5 11 10 11 6 0 10 -2 10 -4z m871 -136 c10 0 19 -5 19
-11 0 -15 -63 -6 -68 10 -3 10 0 12 12 8 10 -4 26 -7 37 -7z m2373 -55 c-4 -8
-10 -12 -15 -9 -11 6 -2 24 11 24 5 0 7 -7 4 -15z m-3284 -55 c0 -5 -4 -10
-10 -10 -5 0 -10 5 -10 10 0 6 5 10 10 10 6 0 10 -4 10 -10z m1906 -42 c5 -7
3 -8 -6 -3 -7 4 -16 2 -21 -6 -7 -11 -9 -10 -9 4 0 19 25 23 36 5z m7 -38 c-3
-11 -9 -20 -14 -20 -14 0 -11 28 4 33 6 3 13 6 14 6 0 1 -1 -8 -4 -19z m57
-63 c0 -16 -18 3 -23 25 -6 22 -5 22 8 4 8 -11 15 -24 15 -29z m-1164 -22
c-10 -8 -23 -12 -29 -8 -11 7 12 23 33 23 12 -1 11 -4 -4 -15z m1171 -27 c-3
-7 -5 -2 -5 12 0 14 2 19 5 13 2 -7 2 -19 0 -25z m1210 6 c-3 -3 -12 -4 -19
-1 -8 3 -5 6 6 6 11 1 17 -2 13 -5z m133 -9 c0 -8 -4 -15 -9 -15 -5 0 -14 7
-21 15 -10 13 -9 15 9 15 12 0 21 -6 21 -15z m-1060 -15 c0 -5 -4 -10 -10 -10
-5 0 -10 5 -10 10 0 6 5 10 10 10 6 0 10 -4 10 -10z m3105 -34 c-4 -20 -12
-36 -17 -36 -9 0 -2 54 9 73 10 17 14 -2 8 -37z m-3611 -72 c6 -16 -10 -28
-24 -19 -15 9 -12 32 5 32 8 0 16 -6 19 -13z m806 -42 c0 -14 -11 -21 -26 -15
-21 8 -17 23 6 23 11 0 20 -4 20 -8z m-930 -26 c0 -3 -4 -8 -10 -11 -5 -3 -10
-1 -10 4 0 6 5 11 10 11 6 0 10 -2 10 -4z m-1520 -35 c0 -10 -24 -21 -43 -21
-7 0 -3 7 7 15 22 17 36 19 36 6z m1025 -71 c3 -5 1 -10 -4 -10 -6 0 -11 5
-11 10 0 6 2 10 4 10 3 0 8 -4 11 -10z m-1225 -14 c0 -9 -30 -14 -35 -6 -4 6
3 10 14 10 12 0 21 -2 21 -4z m3102 -18 c-7 -7 -12 -8 -12 -2 0 14 12 26 19
19 2 -3 -1 -11 -7 -17z m-3166 -24 c-11 -7 -22 -11 -25 -8 -3 3 3 12 13 20 11
7 22 11 25 8 3 -3 -3 -12 -13 -20z m100 15 c3 -6 2 -15 -4 -21 -6 -6 -11 -2
-15 11 -5 22 7 29 19 10z m2539 1 c3 -5 1 -10 -4 -10 -6 0 -11 5 -11 10 0 6 2
10 4 10 3 0 8 -4 11 -10z m2835 -31 c0 -10 -4 -19 -10 -19 -5 0 -10 12 -10 26
0 14 4 23 10 19 6 -3 10 -15 10 -26z m-4210 -47 c0 -13 -3 -12 -20 3 -11 10
-17 22 -14 27 8 12 34 -11 34 -30z m4202 -44 c-5 -55 -8 -65 -17 -56 -8 8 6
108 15 108 4 0 5 -24 2 -52z m-4545 -18 c2 0 3 -4 3 -9 0 -6 -13 -6 -32 -1
-18 5 -52 14 -76 20 -23 6 -40 15 -37 20 3 5 36 0 73 -11 37 -10 68 -19 69
-19z m611 -27 c-2 -22 2 -28 22 -33 18 -5 24 -12 23 -28 -2 -13 4 -23 16 -27
21 -6 37 -35 20 -35 -5 0 -16 -6 -23 -12 -11 -11 -11 -15 2 -24 13 -10 10 -12
-18 -11 -19 0 -39 -1 -45 -3 -5 -1 -20 1 -32 5 -38 12 -26 66 12 58 66 -13 84
1 35 29 -21 12 -30 25 -30 43 0 14 -4 25 -10 25 -5 0 -10 9 -10 20 0 14 7 20
21 20 16 0 20 -5 17 -27z m-272 -24 c-3 -17 -6 -43 -6 -57 0 -19 -3 -23 -11
-15 -13 13 -1 103 13 103 6 0 8 -13 4 -31z m-884 -4 c0 -5 -5 -11 -11 -13 -6
-2 -11 4 -11 13 0 9 5 15 11 13 6 -2 11 -8 11 -13z m-782 -4 c0 -6 -4 -13 -10
-16 -5 -3 -10 1 -10 9 0 9 5 16 10 16 6 0 10 -4 10 -9z m1740 -51 c0 -5 -5
-10 -11 -10 -5 0 -7 5 -4 10 3 6 8 10 11 10 2 0 4 -4 4 -10z m1120 -27 c-1
-25 -94 -98 -132 -105 -35 -7 -37 8 -3 16 27 7 54 26 94 67 27 27 41 35 41 22z
m819 -130 c-63 -143 -66 -149 -73 -142 -3 3 19 58 48 124 29 66 55 128 59 138
3 9 11 17 16 17 5 0 -17 -62 -50 -137z m-1589 111 c0 -8 -4 -12 -10 -9 -5 3
-10 10 -10 16 0 5 5 9 10 9 6 0 10 -7 10 -16z m-742 -19 c0 -14 -4 -25 -8 -25
-10 0 -20 37 -12 44 12 12 20 5 20 -19z m4637 -42 c-15 -32 -29 -53 -32 -46
-5 13 46 118 54 110 3 -3 -7 -32 -22 -64z m-4995 47 c0 -5 -4 -10 -10 -10 -5
0 -10 5 -10 10 0 6 5 10 10 10 6 0 10 -4 10 -10z m1673 -55 c20 -27 8 -34 -17
-10 -8 8 -19 15 -25 15 -5 0 -13 5 -16 10 -14 22 41 8 58 -15z m-2683 -28 c0
-2 -12 -14 -27 -28 l-28 -24 24 28 c23 25 31 32 31 24z m1781 -40 c-1 -12 -15
-9 -19 4 -3 6 1 10 8 8 6 -3 11 -8 11 -12z m4234 -17 c-3 -5 -15 -10 -26 -10
-10 0 -19 5 -19 10 0 6 12 10 26 10 14 0 23 -4 19 -10z m-6425 -10 c0 -5 -7
-10 -15 -10 -8 0 -15 5 -15 10 0 6 7 10 15 10 8 0 15 -4 15 -10z m-44 -25 c-3
-9 -11 -13 -16 -10 -8 5 -7 11 1 21 14 18 24 11 15 -11z m1139 -2 c31 -21 50
-27 87 -25 43 2 50 -2 111 -56 78 -68 84 -92 36 -147 -39 -44 -188 -169 -195
-163 -2 3 43 46 101 97 131 114 133 124 44 199 -51 44 -67 52 -101 52 -35 0
-40 -2 -35 -20 3 -11 2 -22 -3 -25 -9 -5 -24 24 -21 41 0 6 -17 24 -39 39 -22
15 -40 29 -40 31 0 10 19 2 55 -23z m-1192 0 c-7 -2 -19 -2 -25 0 -7 3 -2 5
12 5 14 0 19 -2 13 -5z m301 -42 c-6 -6 -64 21 -64 30 0 5 15 1 34 -9 19 -9
32 -19 30 -21z m1666 29 c0 -5 -4 -10 -9 -10 -6 0 -13 5 -16 10 -3 6 1 10 9
10 9 0 16 -4 16 -10z m3875 0 c3 -5 -3 -10 -14 -10 -12 0 -21 5 -21 10 0 6 6
10 14 10 8 0 18 -4 21 -10z m-2875 -63 c0 -18 -2 -19 -10 -7 -13 20 -13 43 0
35 6 -3 10 -16 10 -28z m-517 -4 c5 -27 2 -41 -7 -32 -11 10 -17 59 -8 59 5 0
12 -12 15 -27z m470 7 c-4 -13 1 -26 13 -35 18 -14 18 -14 -3 -15 -14 0 -23 6
-23 15 0 8 -6 15 -12 16 -10 0 -10 2 0 6 6 2 12 11 12 19 0 8 4 14 9 14 5 0 7
-9 4 -20z m79 -30 c2 -17 10 -25 23 -26 56 -3 65 -5 65 -14 0 -12 -67 -11 -92
2 -12 6 -18 20 -18 45 0 41 16 35 22 -7z m3318 4 c0 -14 -4 -23 -10 -19 -5 3
-10 15 -10 26 0 10 5 19 10 19 6 0 10 -12 10 -26z m-2190 -5 c-7 -11 -14 -19
-16 -16 -7 7 7 37 17 37 6 0 5 -9 -1 -21z m-3000 1 c0 -5 -4 -10 -10 -10 -5 0
-10 5 -10 10 0 6 5 10 10 10 6 0 10 -4 10 -10z m602 -12 c-6 -6 -15 -8 -19 -4
-4 4 -1 11 7 16 19 12 27 3 12 -12z m172 -20 c26 -150 33 -209 31 -248 -2 -25
-6 -111 -10 -192 -4 -86 -12 -148 -17 -148 -6 0 -8 -9 -5 -20 3 -10 -1 -27 -9
-37 -7 -10 -14 -13 -14 -7 0 6 -10 10 -22 9 -20 -2 -37 10 -38 25 0 4 15 4 34
2 44 -5 41 -23 61 363 1 22 -4 78 -11 125 -23 158 -25 172 -15 166 5 -3 11
-20 15 -38z m1146 32 c0 -5 -7 -10 -15 -10 -8 0 -15 5 -15 10 0 6 7 10 15 10
8 0 15 -4 15 -10z m-296 -8 c9 -14 -9 -31 -23 -23 -7 5 -10 14 -7 20 8 13 23
14 30 3z m-1019 -74 c14 -6 25 -15 25 -20 0 -11 -7 -10 -39 7 -16 8 -32 11
-36 7 -5 -4 -5 1 -2 11 10 27 -3 48 -24 42 -11 -4 -19 -2 -19 4 0 5 10 11 23
13 16 3 25 -4 35 -25 7 -15 23 -33 37 -39z m915 68 c0 -3 -4 -8 -10 -11 -5 -3
-10 -1 -10 4 0 6 5 11 10 11 6 0 10 -2 10 -4z m-97 -38 c-2 -4 -10 -2 -17 5
-8 6 -12 15 -9 19 2 4 10 2 17 -5 8 -6 12 -15 9 -19z m158 -10 c32 -38 38 -41
53 -29 9 8 14 21 11 28 -3 9 0 13 7 10 14 -5 14 -11 3 -39 -5 -13 -2 -18 11
-18 22 -1 56 -24 48 -33 -4 -4 -16 0 -28 8 -32 23 -60 20 -53 -6 3 -11 3 -27
0 -35 -9 -24 -35 11 -28 38 5 19 -3 32 -34 61 -38 35 -51 57 -34 57 4 0 24
-19 44 -42z m-1371 28 c0 -3 -4 -8 -10 -11 -5 -3 -10 -1 -10 4 0 6 5 11 10 11
6 0 10 -2 10 -4z m1620 -22 c0 -8 -4 -14 -10 -14 -5 0 -10 9 -10 21 0 11 5 17
10 14 6 -3 10 -13 10 -21z m1146 0 c-4 -9 -9 -15 -11 -12 -3 3 -3 13 1 22 4 9
9 15 11 12 3 -3 3 -13 -1 -22z m-736 12 c0 -3 -4 -8 -10 -11 -5 -3 -10 -1 -10
4 0 6 5 11 10 11 6 0 10 -2 10 -4z m55 -49 c-9 -22 -11 -37 -5 -37 5 0 10 -4
10 -10 0 -5 -6 -7 -13 -5 -8 4 -22 -21 -41 -72 -16 -43 -37 -97 -47 -120 -25
-56 -79 -196 -79 -204 0 -4 16 -13 35 -19 37 -12 38 -14 25 -45 -8 -19 -9 -19
-9 2 -1 14 -11 24 -31 31 -25 9 -31 8 -40 -8 -15 -29 -13 -35 25 -53 19 -9 35
-22 35 -28 0 -6 -15 -2 -36 10 -19 12 -40 19 -45 16 -20 -13 -7 -34 26 -45 19
-6 33 -15 30 -20 -3 -5 -20 -3 -39 5 l-33 14 -21 -47 c-38 -85 -77 -187 -74
-194 1 -5 -3 -8 -10 -8 -6 0 -8 -3 -5 -7 4 -3 2 -12 -4 -20 -6 -7 -8 -13 -4
-13 4 0 3 -6 -3 -12 -17 -21 -52 -149 -54 -195 -2 -25 -7 -42 -13 -40 -19 7 3
142 36 222 4 11 33 85 64 165 31 80 63 159 71 177 8 17 14 33 14 35 0 3 -18
13 -40 23 -22 10 -40 22 -40 27 0 12 6 10 49 -12 l39 -19 21 56 c19 50 20 58
6 65 -22 13 -19 31 4 19 17 -9 25 7 91 177 40 103 79 200 87 216 22 42 37 19
18 -27z m-101 22 c-6 -11 -24 -2 -24 11 0 5 7 7 15 4 8 -4 12 -10 9 -15z
m-1559 1 c-3 -5 -10 -10 -16 -10 -5 0 -9 5 -9 10 0 6 7 10 16 10 8 0 12 -4 9
-10z m4665 5 c0 -3 -10 -20 -22 -36 -20 -27 -23 -43 -23 -120 0 -60 -3 -85
-10 -78 -6 6 -9 47 -7 95 2 69 7 92 24 115 20 26 38 38 38 24z m-3390 -20 c-7
-8 -20 -15 -28 -15 -13 0 -12 3 4 15 25 19 40 19 24 0z m-397 -5 c9 0 17 -4
17 -10 0 -5 -7 -10 -16 -10 -11 0 -14 -6 -9 -22 12 -38 11 -42 -8 -43 -10 0
-21 -6 -26 -13 -15 -25 -41 14 -35 51 10 55 13 60 37 53 12 -3 30 -6 40 -6z
m347 -16 c0 -2 -9 -4 -20 -4 -11 0 -20 4 -20 9 0 5 9 7 20 4 11 -3 20 -7 20
-9z m1091 -11 c-8 -15 -10 -15 -11 -2 0 17 10 32 18 25 2 -3 -1 -13 -7 -23z
m-2336 -13 c3 -5 -1 -10 -9 -10 -9 0 -16 5 -16 10 0 6 4 10 9 10 6 0 13 -4 16
-10z m361 0 c13 -13 -5 -80 -22 -80 -17 0 -37 46 -29 69 7 22 34 28 51 11z
m596 -61 c-6 -24 -15 -35 -30 -37 -12 -2 -22 2 -22 8 0 7 6 10 14 7 11 -4 16
6 21 36 4 23 10 47 14 52 10 16 13 -30 3 -66z m-1072 42 c0 -12 -20 -25 -27
-18 -7 7 6 27 18 27 5 0 9 -4 9 -9z m2032 -36 c15 -24 24 -46 20 -49 -4 -2
-20 18 -35 45 -35 61 -22 65 15 4z m402 21 c-3 -9 -10 -16 -15 -16 -6 0 -5 9
1 21 13 24 24 20 14 -5z m71 14 c3 -5 -1 -10 -9 -10 -9 0 -16 5 -16 10 0 6 4
10 9 10 6 0 13 -4 16 -10z m2108 0 c8 0 8 -3 1 -10 -12 -12 -44 -3 -44 12 0 6
7 7 16 4 9 -3 21 -6 27 -6z m-4588 -29 c3 -5 1 -12 -5 -16 -5 -3 -10 1 -10 9
0 18 6 21 15 7z m-25 -11 c0 -5 -4 -10 -9 -10 -6 0 -13 5 -16 10 -3 6 1 10 9
10 9 0 16 -4 16 -10z m2576 -71 c96 -39 174 -75 174 -80 0 -5 -17 -2 -37 7
-202 85 -289 115 -305 105 -15 -10 -18 -8 -18 14 0 14 3 25 6 25 3 0 84 -32
180 -71z m-2976 21 c0 -21 -5 -30 -16 -30 -10 0 -14 -6 -11 -14 3 -8 -1 -20
-9 -26 -10 -9 -14 -9 -14 -1 0 6 -4 11 -10 11 -12 0 -50 32 -50 42 0 5 8 8 18
8 11 0 27 9 37 20 28 31 55 26 55 -10z m530 20 c0 -5 -4 -10 -9 -10 -6 0 -13
5 -16 10 -3 6 1 10 9 10 9 0 16 -4 16 -10z m990 -20 c3 -1 -6 -6 -19 -11 -26
-10 -37 -6 -27 9 5 9 21 9 46 2z m73 3 c8 -7 -23 -32 -41 -33 -10 0 -10 4 0
20 13 20 29 26 41 13z m-703 -13 c0 -5 -4 -10 -10 -10 -5 0 -10 5 -10 10 0 6
5 10 10 10 6 0 10 -4 10 -10z m60 -10 c0 -5 -4 -10 -10 -10 -5 0 -10 5 -10 10
0 6 5 10 10 10 6 0 10 -4 10 -10z m397 -27 c18 -43 26 -110 13 -118 -4 -3 -10
8 -12 23 -3 15 -15 51 -26 80 -19 44 -19 52 -6 52 8 0 22 -17 31 -37z m1440
12 c-4 -8 -11 -15 -17 -15 -7 0 -7 6 0 21 13 23 26 19 17 -6z m-1043 -11 c9
-3 16 -10 16 -15 0 -13 -43 -4 -48 9 -4 13 8 15 32 6z m3336 -15 c0 -5 -7 -9
-15 -9 -8 0 -15 7 -15 15 0 9 6 12 15 9 8 -4 15 -10 15 -15z m45 -9 c3 -5 -1
-10 -9 -10 -9 0 -16 5 -16 10 0 6 4 10 9 10 6 0 13 -4 16 -10z m-2362 -20 c-3
-11 -9 -20 -14 -20 -11 0 -11 3 -3 24 9 23 23 20 17 -4z m-2233 -10 c0 -5 -2
-10 -4 -10 -3 0 -8 5 -11 10 -3 6 -1 10 4 10 6 0 11 -4 11 -10z m-1310 -9 c0
-10 -24 -21 -43 -21 -7 0 -3 7 7 15 22 17 36 19 36 6z m1370 -61 c-13 -34 -28
-60 -36 -60 -12 0 -11 5 3 27 11 17 14 28 7 30 -6 2 -20 11 -30 19 -18 14 -17
15 12 9 26 -5 32 -2 43 21 23 50 24 15 1 -46z m820 66 c0 -3 -4 -8 -10 -11 -5
-3 -10 -1 -10 4 0 6 5 11 10 11 6 0 10 -2 10 -4z m390 -26 c0 -5 -6 -15 -14
-22 -11 -11 -11 -15 3 -26 14 -11 12 -12 -15 -7 l-30 6 -48 -133 c-26 -73 -53
-146 -60 -163 -7 -16 -19 -48 -26 -70 -7 -21 -19 -45 -26 -53 -13 -12 -18 -34
-15 -54 0 -5 -6 -8 -14 -8 -8 0 -25 -18 -37 -40 -13 -22 -28 -40 -33 -40 -6 0
-16 -9 -23 -20 -11 -18 -10 -20 17 -20 17 0 33 -5 37 -12 5 -8 -5 -9 -38 -5
-39 5 -48 3 -68 -18 -13 -14 -18 -25 -12 -25 7 0 12 -5 12 -11 0 -6 -7 -8 -16
-5 -9 3 -30 -6 -50 -21 -29 -24 -31 -29 -16 -35 9 -3 30 -7 46 -7 24 -1 27 2
23 19 -3 11 -1 23 4 26 5 3 9 -13 9 -34 0 -39 1 -40 42 -46 24 -4 37 -10 32
-15 -12 -12 -186 21 -191 36 -3 9 -14 7 -41 -5 -20 -9 -39 -20 -42 -23 -3 -4
-33 -21 -68 -38 l-62 -31 16 -25 c9 -14 21 -25 26 -25 6 0 6 6 -1 14 -8 9 -8
16 -2 20 5 4 14 0 18 -8 7 -13 18 -13 82 3 51 13 94 17 140 13 133 -10 125
-12 135 36 5 25 14 42 23 42 10 0 13 -11 11 -42 -2 -29 2 -47 12 -55 13 -11
13 -12 -2 -13 -11 0 -18 -10 -20 -27 -2 -21 -8 -27 -21 -25 -11 2 -35 -8 -55
-21 -62 -40 -100 -57 -116 -51 -9 3 -13 10 -10 15 3 5 10 7 15 4 5 -3 6 0 3 8
-4 11 1 13 19 10 32 -6 68 13 61 32 -4 8 -1 15 5 15 6 0 11 -5 11 -12 0 -9 3
-9 11 -1 20 20 -1 32 -54 32 -29 0 -78 5 -109 10 -78 13 -158 -9 -118 -34 19
-12 1 -22 -58 -35 -33 -7 -65 -16 -73 -21 -29 -17 0 -17 86 0 50 10 92 17 94
15 9 -8 -16 -25 -38 -27 -11 -1 -21 -4 -21 -8 0 -4 -6 -7 -12 -6 -76 2 -75 4
-106 -95 -17 -51 -33 -108 -37 -126 -7 -32 -6 -34 16 -27 59 19 67 24 63 42
-6 24 11 47 29 40 8 -3 18 -20 22 -37 l7 -31 53 6 c31 4 55 3 59 -3 4 -6 -25
-13 -74 -17 -73 -6 -80 -9 -80 -29 0 -11 -5 -28 -11 -36 -8 -11 -9 -7 -6 18 3
30 2 33 -22 30 -14 -2 -26 -9 -26 -16 0 -7 -5 -16 -11 -20 -6 -4 -23 -59 -38
-122 -15 -63 -29 -123 -32 -132 -3 -10 -1 -18 5 -18 5 0 12 12 15 28 26 118
48 192 58 192 5 0 7 -8 4 -17 -18 -59 -46 -199 -42 -209 3 -7 28 -16 56 -20
45 -6 69 -18 58 -29 -2 -3 -20 -1 -39 4 -73 19 -89 21 -89 12 0 -9 37 -19 134
-37 33 -6 38 -4 33 9 -12 33 -19 87 -10 87 5 0 14 -12 19 -27 10 -26 11 -24
19 30 4 31 11 57 16 57 5 0 9 -6 9 -13 0 -16 -19 -125 -26 -149 -4 -12 -1 -16
9 -12 24 9 38 -18 23 -46 -12 -24 -8 -56 18 -137 4 -14 3 -23 -3 -23 -6 0 -15
18 -21 39 -7 27 -18 42 -33 47 -12 3 -29 13 -38 20 -14 13 -17 6 -28 -68 -14
-89 -12 -140 4 -136 6 2 11 14 12 28 2 44 3 45 13 30 5 -8 10 -25 10 -37 0
-21 1 -21 55 -8 40 9 55 9 52 1 -2 -6 -25 -15 -51 -20 -46 -8 -48 -10 -42 -37
7 -36 -9 -39 -18 -4 -5 21 -11 24 -32 19 -42 -11 -59 -10 -56 4 3 15 -15 16
-20 0 -5 -13 -28 -2 -28 13 0 6 5 7 10 4 18 -11 10 11 -10 30 -24 22 -26 35
-5 35 8 0 15 -4 15 -8 0 -5 7 -17 15 -28 15 -18 16 -17 10 14 -10 48 10 39 22
-10 l11 -43 1 50 c1 28 4 61 8 74 4 17 3 22 -5 17 -7 -4 -12 -3 -12 2 0 6 6
12 14 15 7 3 17 26 20 51 4 25 10 46 13 46 2 0 16 -9 30 -20 14 -11 30 -20 34
-20 17 0 9 30 -12 40 -16 9 -19 18 -15 36 4 14 2 24 -4 24 -5 0 -10 -6 -10
-12 0 -8 -4 -6 -10 3 -14 24 -139 47 -151 28 -14 -22 -5 -33 34 -42 20 -5 37
-13 37 -18 0 -12 -22 -11 -56 1 -31 12 -29 13 -38 -22 -5 -24 -3 -27 34 -33
22 -4 42 -11 46 -16 7 -11 -12 -11 -53 0 -24 7 -33 6 -37 -5 -3 -8 -10 -14
-15 -14 -6 0 -8 6 -5 13 6 17 -48 37 -70 25 -11 -6 -25 -2 -46 13 -29 22 -39
39 -21 39 5 0 14 -7 21 -15 7 -9 16 -12 20 -8 6 6 34 94 45 138 1 6 7 24 14
40 10 23 10 39 1 68 -10 35 -14 38 -38 32 -36 -9 -38 -13 -24 -35 16 -26 15
-28 -5 -26 -12 1 -23 -14 -35 -48 -23 -59 -19 -72 21 -81 17 -4 31 -11 31 -17
0 -10 -27 -6 -66 9 -12 4 -15 3 -10 -5 4 -7 3 -12 -2 -12 -5 0 -9 -6 -10 -12
-1 -7 -6 -40 -12 -73 -5 -33 -14 -125 -20 -205 -13 -180 -14 -192 -30 -229
-14 -34 -35 -43 -25 -10 5 14 0 26 -16 40 -12 10 -19 22 -14 27 4 4 10 1 12
-5 5 -14 32 -18 34 -5 1 4 3 35 5 69 3 63 15 183 35 358 6 55 13 127 15 160 2
33 8 85 14 115 5 30 12 100 15 155 3 55 8 108 11 118 3 11 0 17 -10 17 -9 0
-16 6 -16 13 0 8 -3 9 -8 1 -4 -6 -26 -14 -50 -17 -40 -5 -44 -3 -55 21 -6 15
-12 28 -12 30 -1 1 -15 -4 -31 -12 -52 -26 -69 -24 -72 7 -2 16 2 35 8 43 10
11 9 19 -4 39 -21 33 -12 75 17 75 20 0 20 1 -5 28 -14 15 -29 37 -32 48 -4
12 -24 40 -46 62 -41 41 -48 56 -30 67 21 13 9 25 -25 25 -19 0 -35 5 -35 10
0 6 18 10 40 10 30 0 42 5 47 18 19 53 65 74 179 81 17 1 24 14 39 79 22 92
40 119 30 46 l-6 -51 51 -10 c29 -6 53 -6 56 -1 3 4 -11 31 -31 59 -21 27 -35
53 -31 56 3 4 7 4 9 2 2 -2 19 -25 37 -51 18 -27 36 -48 39 -48 14 1 83 70 70
70 -8 0 -20 9 -27 20 -6 11 -30 29 -52 40 -22 11 -40 25 -40 30 0 18 17 11 85
-35 l67 -45 43 35 c23 19 48 35 56 35 8 1 25 24 39 53 14 29 35 56 48 62 15 6
22 18 22 36 0 14 2 28 5 31 3 3 29 1 58 -4 40 -7 60 -17 85 -43 48 -51 39 -66
-11 -17 -35 34 -50 42 -80 42 -33 0 -37 -3 -37 -24 0 -17 -9 -29 -27 -38 -30
-15 -65 -72 -65 -105 0 -13 -4 -23 -9 -23 -5 0 -9 -7 -9 -15 0 -8 -4 -15 -10
-15 -5 0 -10 9 -10 20 0 24 -13 19 -64 -23 l-30 -24 65 -67 c36 -36 63 -68 61
-70 -10 -11 -70 38 -97 79 -16 25 -33 45 -38 45 -16 0 -80 -67 -73 -78 3 -6
35 -14 71 -17 36 -4 65 -12 65 -18 0 -6 -18 -7 -47 -3 -114 15 -153 14 -61 -2
53 -9 100 -20 104 -24 10 -11 -21 -10 -87 1 -104 18 -129 20 -129 10 0 -5 9
-9 21 -9 11 0 18 -4 14 -10 -3 -5 -12 -7 -20 -4 -8 4 -18 -1 -21 -10 -9 -22
-24 -20 -24 4 0 15 -7 20 -26 20 -24 0 -24 -1 -10 -22 18 -25 21 -58 6 -58 -5
0 -10 8 -10 18 0 11 -9 27 -20 37 -18 16 -28 17 -97 7 -59 -8 -82 -16 -95 -32
-28 -35 -22 -48 25 -55 50 -7 262 -25 295 -25 12 0 22 -4 22 -10 0 -5 -25 -10
-55 -10 -30 0 -55 -4 -55 -10 0 -5 8 -10 19 -10 10 0 26 -12 36 -26 12 -18 23
-24 37 -21 15 4 22 -1 30 -24 8 -24 13 -27 28 -19 26 14 33 12 26 -5 -8 -21
-6 -20 88 28 l84 42 -15 29 c-14 26 -13 35 5 100 11 39 28 117 38 174 10 56
22 102 26 102 5 0 8 -6 8 -14 0 -27 -31 -182 -51 -255 -16 -57 -18 -79 -10
-97 13 -30 23 -30 90 1 47 22 52 28 47 49 -4 18 -1 26 11 30 21 7 29 66 11 78
-18 10 -4 20 17 12 13 -5 16 -14 11 -37 -3 -17 -1 -36 5 -43 8 -10 9 -14 0
-14 -6 0 -11 -7 -11 -15 0 -14 3 -14 29 -1 34 18 138 111 151 136 16 30 24
196 10 205 -9 6 -9 9 0 15 6 4 14 33 16 66 3 32 9 63 14 69 6 7 4 20 -6 33 -8
12 -13 22 -9 22 3 0 -4 18 -15 41 -12 23 -19 43 -16 46 3 3 -1 21 -9 39 -7 18
-10 36 -5 39 4 3 27 -42 49 -100 36 -89 40 -108 30 -127 -6 -12 -14 -58 -16
-103 l-5 -81 40 -12 c22 -7 43 -12 49 -12 15 0 39 50 93 195 80 213 98 264 93
269 -3 2 0 14 7 25 11 22 70 31 70 11z m936 -27 c-11 -11 -17 4 -9 23 7 18 8
18 11 1 2 -10 1 -21 -2 -24z m-2326 3 c0 -3 -4 -8 -10 -11 -5 -3 -10 -1 -10 4
0 6 5 11 10 11 6 0 10 -2 10 -4z m2301 -53 c-8 -15 -10 -15 -11 -2 0 17 10 32
18 25 2 -3 -1 -13 -7 -23z m-431 -13 c0 -5 -4 -10 -10 -10 -5 0 -10 5 -10 10
0 6 5 10 10 10 6 0 10 -4 10 -10z m410 -41 c-7 -11 -14 -19 -16 -16 -7 7 7 37
17 37 6 0 5 -9 -1 -21z m-556 -14 c-4 -8 -8 -15 -10 -15 -2 0 -4 7 -4 15 0 8
4 15 10 15 5 0 7 -7 4 -15z m179 -17 c-6 -33 -23 -63 -23 -41 0 27 13 73 21
73 5 0 6 -15 2 -32z m-2308 -3 c-29 -24 -55 -32 -55 -17 0 10 51 40 70 41 9 0
3 -10 -15 -24z m795 3 c25 -26 54 -78 47 -84 -2 -2 -17 14 -32 36 -15 22 -31
40 -35 40 -4 0 -10 7 -14 15 -8 22 10 18 34 -7z m461 -28 c43 0 69 -4 69 -11
0 -7 -35 -10 -107 -8 -103 3 -113 1 -212 -34 -58 -20 -109 -37 -115 -37 -20 0
9 17 59 34 28 10 59 21 70 25 77 30 114 40 139 36 16 -3 59 -5 97 -5z m339
-15 c0 -8 -4 -15 -10 -15 -5 0 -10 7 -10 15 0 8 5 15 10 15 6 0 10 -7 10 -15z
m-1136 -4 c3 -5 0 -11 -8 -14 -15 -6 -26 1 -26 15 0 11 27 10 34 -1z m92 -26
c8 -26 8 -37 -1 -45 -18 -15 -31 6 -27 45 5 44 14 44 28 0z m-1769 -2 c-9 -9
-20 -13 -24 -9 -4 4 -1 11 7 16 25 16 35 11 17 -7z m73 2 c0 -19 -9 -19 -34 0
-19 14 -19 15 7 15 17 0 27 -5 27 -15z m1750 5 c0 -5 -5 -10 -11 -10 -5 0 -7
5 -4 10 3 6 8 10 11 10 2 0 4 -4 4 -10z m1755 -20 c-5 -8 -11 -8 -17 -2 -6 6
-7 16 -3 22 5 8 11 8 17 2 6 -6 7 -16 3 -22z m-460 10 c3 -5 -1 -10 -9 -10 -9
0 -16 5 -16 10 0 6 4 10 9 10 6 0 13 -4 16 -10z m561 -1 c25 -7 42 -15 37 -20
-9 -9 -93 11 -93 23 0 10 3 10 56 -3z m-3733 -6 c-7 -2 -19 -2 -25 0 -7 3 -2
5 12 5 14 0 19 -2 13 -5z m2886 -19 c2 -2 2 -7 -1 -10 -8 -8 -88 15 -88 25 0
8 79 -5 89 -15z m517 -19 c-4 -14 -11 -25 -16 -25 -13 0 -13 12 1 47 13 32 24
15 15 -22z m89 25 c-3 -5 -10 -10 -16 -10 -5 0 -9 5 -9 10 0 6 7 10 16 10 8 0
12 -4 9 -10z m305 -36 c0 -8 -4 -12 -10 -9 -5 3 -10 13 -10 21 0 8 5 12 10 9
6 -3 10 -13 10 -21z m-826 1 c-4 -8 -8 -15 -10 -15 -2 0 -4 7 -4 15 0 8 4 15
10 15 5 0 7 -7 4 -15z m758 -1 c16 -3 25 -10 22 -15 -3 -5 -9 -7 -14 -4 -5 3
-25 6 -45 7 -19 1 -35 4 -35 8 0 13 14 20 29 16 9 -3 28 -8 43 -12z m-1632 2
c0 -3 -4 -8 -10 -11 -5 -3 -10 -1 -10 4 0 6 5 11 10 11 6 0 10 -2 10 -4z m39
-65 c-6 -34 -16 -61 -20 -61 -11 0 -11 2 2 58 15 66 19 76 25 69 3 -3 0 -32
-7 -66z m75 19 c38 -53 41 -60 27 -60 -9 0 -71 91 -71 103 0 14 9 5 44 -43z
m1646 29 c0 -6 -4 -7 -10 -4 -5 3 -10 11 -10 16 0 6 5 7 10 4 6 -3 10 -11 10
-16z m-850 1 c0 -5 -4 -10 -10 -10 -5 0 -10 5 -10 10 0 6 5 10 10 10 6 0 10
-4 10 -10z m-899 -33 c-8 -8 -11 -7 -11 4 0 20 13 34 18 19 3 -7 -1 -17 -7
-23z m199 19 c0 -11 -19 -15 -25 -6 -3 5 1 10 9 10 9 0 16 -2 16 -4z m780 -17
c0 -11 -27 -12 -34 0 -3 4 -3 11 0 14 8 8 34 -3 34 -14z m-70 -3 c0 -3 -4 -8
-10 -11 -5 -3 -10 -1 -10 4 0 6 5 11 10 11 6 0 10 -2 10 -4z m-956 -31 c-4 -8
-8 -15 -10 -15 -2 0 -4 7 -4 15 0 8 4 15 10 15 5 0 7 -7 4 -15z m116 -5 c0 -5
-4 -10 -10 -10 -5 0 -10 5 -10 10 0 6 5 10 10 10 6 0 10 -4 10 -10z m-208 -25
c0 -5 -5 -11 -11 -13 -6 -2 -11 4 -11 13 0 9 5 15 11 13 6 -2 11 -8 11 -13z
m618 0 c-7 -9 -15 -13 -17 -11 -7 7 7 26 19 26 6 0 6 -6 -2 -15z m50 -5 c0 -5
-4 -10 -10 -10 -5 0 -10 5 -10 10 0 6 5 10 10 10 6 0 10 -4 10 -10z m724 -2
c-5 -8 -2 -9 9 -5 11 4 17 1 17 -8 0 -8 -7 -15 -15 -15 -8 0 -15 2 -15 4 0 2
-3 11 -6 20 -3 9 -1 16 6 16 6 0 8 -5 4 -12z m455 5 c0 -11 -89 -75 -89 -65 0
8 72 71 83 72 4 0 7 -3 6 -7z m-1339 -23 c0 -5 -9 -10 -20 -10 -11 0 -20 5
-20 10 0 6 9 10 20 10 11 0 20 -4 20 -10z m330 6 c0 -3 -4 -8 -10 -11 -5 -3
-10 -1 -10 4 0 6 5 11 10 11 6 0 10 -2 10 -4z m124 -21 c-4 -8 -10 -13 -15
-10 -4 3 -6 12 -3 20 4 8 10 13 15 10 4 -3 6 -12 3 -20z m-372 -20 c0 -6 12
-15 27 -21 l26 -11 -37 -4 c-32 -4 -37 -2 -41 18 -2 12 -2 25 1 28 8 8 23 1
24 -10z m94 5 c13 0 24 -4 24 -10 0 -16 -44 -12 -66 6 -17 14 -17 15 -1 10 10
-3 30 -6 43 -6z m-1526 -10 c0 -5 -4 -10 -10 -10 -5 0 -10 5 -10 10 0 6 5 10
10 10 6 0 10 -4 10 -10z m2410 -6 c0 -8 -4 -12 -10 -9 -5 3 -10 10 -10 16 0 5
5 9 10 9 6 0 10 -7 10 -16z m40 6 c0 -5 -4 -10 -10 -10 -5 0 -10 5 -10 10 0 6
5 10 10 10 6 0 10 -4 10 -10z m-1840 -10 c0 -5 -4 -10 -10 -10 -5 0 -10 5 -10
10 0 6 5 10 10 10 6 0 10 -4 10 -10z m-640 -16 c0 -9 -5 -14 -12 -12 -18 6
-21 28 -4 28 9 0 16 -7 16 -16z m2350 0 c0 -8 -4 -12 -10 -9 -5 3 -10 10 -10
16 0 5 5 9 10 9 6 0 10 -7 10 -16z m365 -3 c-3 -5 3 -11 12 -14 14 -3 12 -6
-9 -15 -16 -6 -28 -15 -28 -20 0 -4 -7 -17 -16 -28 -15 -18 -15 -18 -9 3 5 18
3 22 -9 17 -31 -12 -16 14 16 27 17 7 26 15 20 17 -20 6 -13 22 9 22 11 0 18
-4 14 -9z m-1985 -11 c0 -5 -5 -10 -11 -10 -5 0 -7 5 -4 10 3 6 8 10 11 10 2
0 4 -4 4 -10z m824 1 c7 -10 -22 -37 -30 -28 -9 8 3 37 15 37 5 0 12 -4 15 -9z
m412 -26 c-4 -14 -2 -25 4 -25 5 0 10 -5 10 -11 0 -6 -7 -9 -15 -5 -8 3 -15 0
-15 -6 0 -7 -7 -5 -17 4 -10 9 -34 19 -53 23 -57 11 -71 16 -65 25 3 5 20 5
38 0 83 -21 85 -21 92 0 9 29 28 25 21 -5z m289 15 c3 -5 -1 -10 -10 -10 -9 0
-13 5 -10 10 3 6 8 10 10 10 2 0 7 -4 10 -10z m170 -10 c-3 -5 -10 -10 -16
-10 -5 0 -9 5 -9 10 0 6 7 10 16 10 8 0 12 -4 9 -10z m-1747 -29 c-13 -17 -27
-30 -31 -30 -17 -2 -85 -64 -92 -84 -6 -19 -8 -20 -12 -5 -4 16 -7 17 -34 3
-16 -9 -29 -11 -29 -5 0 5 23 21 50 35 28 14 50 30 50 35 0 6 5 10 11 10 7 0
27 16 46 35 43 45 76 49 41 6z m2102 19 c0 -5 -2 -10 -4 -10 -3 0 -8 5 -11 10
-3 6 -1 10 4 10 6 0 11 -4 11 -10z m-242 -20 c31 -12 63 -18 77 -14 15 4 25 2
25 -5 0 -6 -5 -11 -12 -11 -6 0 -3 -7 8 -16 18 -14 16 -15 -21 -9 -22 4 -49
12 -60 19 -11 7 -32 16 -47 20 -16 3 -28 13 -28 21 0 18 -5 19 58 -5z m-2001
-25 c-30 -26 -47 -32 -47 -15 0 6 6 10 14 10 7 0 19 7 26 15 7 8 18 15 24 15
6 0 -2 -12 -17 -25z m1043 10 c0 -8 -4 -15 -9 -15 -13 0 -22 16 -14 24 11 11
23 6 23 -9z m826 -24 c-4 -5 17 -23 45 -41 28 -17 49 -34 46 -37 -5 -4 -97 46
-116 63 -6 5 10 24 20 24 6 0 8 -4 5 -9z m-36 -16 c0 -8 -7 -15 -15 -15 -16 0
-20 12 -8 23 11 12 23 8 23 -8z m-2660 -15 c0 -5 -5 -10 -11 -10 -5 0 -7 5 -4
10 3 6 8 10 11 10 2 0 4 -4 4 -10z m2353 -20 c6 -23 -3 -26 -21 -8 -16 16 -15
28 2 28 7 0 16 -9 19 -20z m137 -20 c0 -5 -4 -10 -10 -10 -5 0 -10 5 -10 10 0
6 5 10 10 10 6 0 10 -4 10 -10z m2704 -45 c-4 -9 -19 -15 -35 -15 -37 0 -38
17 -1 23 15 2 30 5 34 6 4 0 5 -6 2 -14z m-2020 -8 c17 -13 17 -17 -13 -74
l-30 -61 -52 13 c-28 8 -53 16 -55 18 -13 13 24 57 69 85 60 36 58 36 81 19z
m-1118 -64 c-10 -10 -19 5 -10 18 6 11 8 11 12 0 2 -7 1 -15 -2 -18z m299 17
c-3 -5 -10 -10 -16 -10 -5 0 -9 5 -9 10 0 6 7 10 16 10 8 0 12 -4 9 -10z
m-1332 -7 c-7 -2 -21 -2 -30 0 -10 3 -4 5 12 5 17 0 24 -2 18 -5z m147 -3 c11
-7 0 -10 -37 -10 -29 0 -53 5 -53 10 0 13 70 13 90 0z m310 0 c0 -5 -6 -10
-14 -10 -8 0 -18 5 -21 10 -3 6 3 10 14 10 12 0 21 -4 21 -10z m490 -21 c-7
-11 -14 -18 -17 -15 -8 8 5 36 17 36 7 0 7 -6 0 -21z m1433 -48 c16 -6 39 -11
53 -11 15 0 24 -6 24 -15 0 -8 -4 -15 -8 -15 -10 0 -46 -110 -38 -118 3 -3 19
-7 36 -9 33 -3 50 17 50 61 0 13 7 31 15 39 8 8 11 17 8 21 -10 9 23 7 51 -4
14 -5 24 -15 22 -22 -3 -7 -7 -26 -11 -41 -5 -25 -9 -28 -35 -22 -23 5 -31 2
-40 -15 -6 -12 -10 -23 -8 -24 18 -14 221 -123 370 -199 103 -52 204 -107 225
-121 21 -14 43 -26 50 -26 23 0 24 -20 0 -67 -107 -217 -179 -353 -187 -353
-9 0 114 267 165 358 16 28 19 42 11 42 -7 0 -31 13 -54 30 -22 16 -89 54
-149 84 -59 30 -160 82 -223 115 -63 34 -122 63 -131 64 -9 2 -33 15 -52 30
l-35 27 -70 -133 c-38 -72 -82 -160 -97 -194 -24 -56 -45 -80 -45 -54 0 4 43
92 95 194 52 102 90 189 85 192 -5 3 -25 5 -45 3 -20 -1 -40 3 -44 10 -11 18
-73 34 -81 22 -4 -6 -14 -8 -23 -4 -9 3 -14 10 -11 15 2 5 -29 19 -71 31 -41
12 -75 26 -75 31 0 5 6 7 13 5 6 -3 46 -13 87 -23 41 -10 91 -23 111 -31 55
-20 76 -9 92 45 7 25 13 47 12 48 -1 2 -54 18 -118 37 -122 36 -137 42 -137
55 0 8 148 -33 213 -58z m-1783 49 c0 -5 -4 -10 -10 -10 -5 0 -10 5 -10 10 0
6 5 10 10 10 6 0 10 -4 10 -10z m720 0 c8 -5 11 -12 8 -16 -4 -3 -14 1 -23 10
-18 17 -9 21 15 6z m-890 -10 c0 -5 -5 -10 -11 -10 -5 0 -7 5 -4 10 3 6 8 10
11 10 2 0 4 -4 4 -10z m680 -30 c0 -5 -2 -10 -4 -10 -3 0 -8 5 -11 10 -3 6 -1
10 4 10 6 0 11 -4 11 -10z m270 -39 c-1 -12 -5 -10 -20 8 -26 30 -26 49 0 26
11 -10 20 -25 20 -34z m-690 29 c0 -5 -4 -10 -10 -10 -5 0 -10 5 -10 10 0 6 5
10 10 10 6 0 10 -4 10 -10z m3034 -5 c39 -17 50 -32 14 -20 -28 9 -258 22
-258 14 0 -3 -28 -25 -61 -50 -90 -65 -196 -167 -203 -195 -4 -14 -11 -22 -15
-19 -29 17 67 123 208 229 l74 56 103 0 c68 0 113 -5 138 -15z m-2964 -9 c0
-3 -4 -8 -10 -11 -5 -3 -10 -1 -10 4 0 6 5 11 10 11 6 0 10 -2 10 -4z m1292
-18 c-7 -7 -12 -8 -12 -2 0 14 12 26 19 19 2 -3 -1 -11 -7 -17z m-693 -17 c-3
-6 -10 -7 -18 -2 -7 5 -10 14 -6 21 9 14 29 -2 24 -19z m-729 -2 c0 -11 -4
-17 -10 -14 -5 3 -10 13 -10 21 0 8 5 14 10 14 6 0 10 -9 10 -21z m1340 11 c0
-5 -4 -10 -10 -10 -5 0 -10 5 -10 10 0 6 5 10 10 10 6 0 10 -4 10 -10z m-805
-10 c-3 -5 -10 -10 -16 -10 -5 0 -9 5 -9 10 0 6 7 10 16 10 8 0 12 -4 9 -10z
m-1270 -9 c3 -5 1 -12 -4 -15 -5 -3 -11 1 -15 9 -6 16 9 21 19 6z m1543 -46
c6 -14 8 -25 4 -25 -12 0 -32 23 -32 37 0 22 16 15 28 -12z m-1535 -4 c-5 -18
-33 -38 -33 -24 0 6 30 43 36 43 1 0 0 -9 -3 -19z m737 -21 c0 -5 -4 -10 -10
-10 -5 0 -10 5 -10 10 0 6 5 10 10 10 6 0 10 -4 10 -10z m480 0 c0 -5 -7 -10
-16 -10 -8 0 -12 5 -9 10 3 6 10 10 16 10 5 0 9 -4 9 -10z m668 -15 c14 -29
-2 -34 -18 -6 -12 24 -13 31 -2 31 5 0 14 -11 20 -25z m-1131 -7 c-3 -8 -6 -5
-6 6 -1 11 2 17 5 13 3 -3 4 -12 1 -19z m494 10 c1 -7 1 -19 0 -25 -1 -7 3
-13 9 -13 5 0 10 -5 10 -11 0 -6 -6 -9 -14 -6 -11 5 -16 -9 -21 -59 -4 -36 -4
-68 -1 -72 4 -4 58 -8 119 -10 62 -2 116 -8 122 -13 11 -11 -98 -12 -197 -2
-63 5 -68 8 -68 29 0 13 -4 24 -10 24 -5 0 -10 9 -10 20 0 11 6 20 14 20 9 0
16 20 21 65 3 36 11 65 16 65 5 0 10 -6 10 -12z m114 2 c3 -6 -5 -10 -19 -10
-14 0 -28 5 -31 10 -3 6 5 10 19 10 14 0 28 -4 31 -10z m-75 -4 c0 -3 -4 -8
-10 -11 -5 -3 -10 -1 -10 4 0 6 5 11 10 11 6 0 10 -2 10 -4z m-440 -36 c0 -5
-9 -10 -21 -10 -11 0 -17 5 -14 10 3 6 13 10 21 10 8 0 14 -4 14 -10z m808 -8
c2 -7 -2 -10 -12 -6 -9 3 -16 11 -16 16 0 13 23 5 28 -10z m2155 12 c3 -3 3
-12 0 -20 -4 -11 -9 -12 -19 -3 -8 6 -11 15 -8 20 6 10 18 12 27 3z m-2243
-39 c-7 -8 -16 -12 -21 -9 -13 8 -1 24 18 24 13 0 13 -3 3 -15z m1518 -26 c65
-19 50 -29 -18 -12 -33 9 -60 20 -60 25 0 5 8 7 18 4 9 -2 36 -10 60 -17z
m-1591 -41 c-3 -7 -5 -2 -5 12 0 14 2 19 5 13 2 -7 2 -19 0 -25z m72 5 c0 -25
-1 -26 -9 -8 -12 27 -12 35 0 35 6 0 10 -12 9 -27z m211 -4 c28 -17 49 -34 46
-36 -7 -7 -106 48 -106 59 0 13 6 10 60 -23z m155 10 c-10 -15 -25 -10 -19 6
4 8 10 12 15 9 5 -3 7 -10 4 -15z m-290 -9 c3 -5 -1 -10 -9 -10 -9 0 -16 5
-16 10 0 6 4 10 9 10 6 0 13 -4 16 -10z m-1865 -33 c0 -20 -44 -66 -65 -68
-34 -2 -45 0 -45 12 0 7 9 9 23 6 18 -5 26 1 45 34 21 36 42 45 42 16z m1120
3 c0 -5 -4 -10 -10 -10 -5 0 -10 5 -10 10 0 6 5 10 10 10 6 0 10 -4 10 -10z
m618 -8 c2 -7 -2 -10 -12 -6 -9 3 -16 11 -16 16 0 13 23 5 28 -10z m-448 4 c0
-3 -4 -8 -10 -11 -5 -3 -10 -1 -10 4 0 6 5 11 10 11 6 0 10 -2 10 -4z m836
-43 c-10 -10 -19 5 -10 18 6 11 8 11 12 0 2 -7 1 -15 -2 -18z m-216 7 c0 -5
-4 -10 -10 -10 -5 0 -10 5 -10 10 0 6 5 10 10 10 6 0 10 -4 10 -10z m1860 -19
c-10 -21 -30 -37 -30 -26 0 14 21 45 31 45 6 0 6 -7 -1 -19z m-1722 -9 c3 -9
-4 -11 -25 -6 -44 10 -54 26 -14 22 19 -2 36 -9 39 -16z m-2368 -27 c0 -8 -7
-15 -16 -15 -14 0 -14 3 -4 15 7 8 14 15 16 15 2 0 4 -7 4 -15z m2340 -24 c0
-21 -8 -36 -30 -51 -34 -24 -35 -23 -17 14 8 14 18 22 22 18 4 -4 5 5 3 21 -4
18 -1 27 8 27 9 0 14 -11 14 -29z m165 -1 c-4 -19 -2 -36 5 -45 10 -12 9 -15
-3 -15 -10 0 -20 -14 -26 -37 -15 -52 -14 -64 7 -80 16 -13 15 -14 -4 -8 -19
5 -23 0 -29 -32 -15 -84 -50 -196 -107 -343 -58 -146 -78 -189 -78 -163 0 6
27 78 60 160 32 81 72 200 89 263 l29 115 -51 12 c-65 15 -80 16 -72 3 3 -5 2
-10 -3 -10 -12 0 -24 29 -17 41 3 4 16 5 28 0 12 -5 43 -11 70 -15 39 -6 47
-5 47 8 0 9 -4 16 -10 16 -5 0 -10 5 -10 11 0 6 7 9 15 5 8 -3 15 -1 15 3 0 5
-4 11 -8 13 -5 2 -12 18 -15 36 -6 30 -5 32 18 26 15 -4 25 -2 25 4 0 17 19
62 26 62 3 0 3 -14 -1 -30z m-1012 -2 c39 2 57 0 52 -7 -3 -6 -15 -11 -26 -11
-23 0 -23 0 -39 -115 -6 -49 -14 -106 -17 -126 -6 -40 -4 -41 68 -53 l36 -6
13 62 c7 35 14 74 14 88 1 14 6 24 11 23 14 -4 13 -18 -2 -87 -7 -32 -12 -60
-11 -62 7 -7 133 -32 140 -28 11 7 10 132 -1 171 -5 19 -6 35 -1 38 15 9 30
-66 30 -152 l0 -83 45 0 c25 0 45 5 45 10 0 6 5 10 11 10 6 0 9 -7 5 -15 -3
-9 0 -15 9 -15 8 0 15 -5 15 -11 0 -6 -8 -8 -17 -5 -10 3 -40 6 -68 7 l-50 3
2 -77 c2 -42 -1 -77 -6 -77 -10 0 -21 49 -21 96 0 30 -4 34 -37 43 -21 6 -56
13 -79 17 l-40 6 -29 -151 c-17 -83 -34 -151 -39 -151 -10 0 -8 12 29 189 14
68 22 127 18 131 -4 4 -29 10 -55 14 -43 5 -48 3 -48 -13 0 -24 -10 -51 -19
-51 -4 0 -5 16 -3 35 3 25 0 36 -12 41 -22 8 -20 23 2 17 18 -4 21 8 56 255 3
22 1 23 -30 17 -32 -6 -34 -4 -34 22 1 24 3 26 13 13 9 -11 28 -14 70 -12z
m-743 8 c0 -3 -4 -8 -10 -11 -5 -3 -10 -1 -10 4 0 6 5 11 10 11 6 0 10 -2 10
-4z m630 -26 c0 -5 -4 -10 -9 -10 -6 0 -13 5 -16 10 -3 6 1 10 9 10 9 0 16 -4
16 -10z m2810 -20 c14 -11 34 -20 45 -20 14 0 16 -3 8 -11 -9 -9 -23 -5 -57
15 -25 15 -46 29 -46 31 0 11 27 3 50 -15z m-3440 -10 c12 0 19 -10 23 -32 6
-42 -6 -63 -13 -23 -3 20 -12 31 -29 35 -14 3 -27 12 -29 19 -3 10 0 12 12 8
10 -4 26 -7 36 -7z m-890 -31 c-7 -11 -14 -19 -16 -16 -7 7 7 37 17 37 6 0 5
-9 -1 -21z m5130 11 c0 -5 -4 -10 -10 -10 -5 0 -10 5 -10 10 0 6 5 10 10 10 6
0 10 -4 10 -10z m-4355 -10 c-3 -5 -11 -10 -16 -10 -6 0 -7 5 -4 10 3 6 11 10
16 10 6 0 7 -4 4 -10z m1388 -5 c20 -3 37 -11 37 -17 0 -6 -13 -8 -35 -4 -19
3 -51 9 -70 12 -44 8 -47 27 -2 20 17 -3 49 -8 70 -11z m127 -29 c0 -16 -27
-29 -41 -20 -18 11 -8 30 16 32 16 1 25 -3 25 -12z m-1620 0 c0 -11 -19 -15
-25 -6 -3 5 1 10 9 10 9 0 16 -2 16 -4z m728 -3 c-10 -2 -26 -2 -35 0 -10 3
-2 5 17 5 19 0 27 -2 18 -5z m-535 -35 c-7 -41 -22 -71 -23 -47 0 31 12 79 21
79 5 0 6 -15 2 -32z m2776 17 c2 -2 1 -11 -2 -20 -6 -13 -10 -13 -42 2 -46 22
-45 37 3 28 20 -4 39 -8 41 -10z m-2884 -5 c3 -5 -1 -10 -9 -10 -8 0 -18 5
-21 10 -3 6 1 10 9 10 8 0 18 -4 21 -10z m1365 -10 c0 -5 -4 -10 -10 -10 -5 0
-10 5 -10 10 0 6 5 10 10 10 6 0 10 -4 10 -10z m-1225 -29 c-3 -6 -11 -11 -17
-11 -6 0 -6 6 2 15 14 17 26 13 15 -4z m585 5 c0 -8 -4 -18 -10 -21 -5 -3 -10
3 -10 14 0 12 5 21 10 21 6 0 10 -6 10 -14z m1200 -7 c0 -4 -7 -6 -15 -3 -8 4
-15 10 -15 15 0 4 7 6 15 3 8 -4 15 -10 15 -15z m-447 -26 c-3 -21 -10 -46
-14 -55 -5 -9 -9 -26 -9 -37 0 -12 -5 -21 -11 -21 -12 0 -10 20 12 103 15 56
30 63 22 10z m-823 5 c0 -6 -7 -7 -16 -4 -9 3 -20 6 -25 6 -6 0 -8 4 -5 9 8
12 46 2 46 -11z m-1516 -13 c-7 -17 -20 -20 -28 -6 -7 10 3 21 20 21 8 0 11
-6 8 -15z m999 -47 c-7 -55 -21 -46 -20 12 1 39 3 48 13 38 6 -8 9 -29 7 -50z
m1511 43 c3 -5 -1 -11 -9 -15 -15 -6 -29 7 -18 18 9 9 21 8 27 -3z m-1688 -43
c4 4 5 1 3 -6 -3 -8 -8 -13 -12 -13 -4 1 -18 1 -32 1 -15 0 -25 6 -25 14 0 11
7 13 29 6 16 -4 33 -5 37 -2z m34 8 c0 -3 -4 -8 -10 -11 -5 -3 -10 -1 -10 4 0
6 5 11 10 11 6 0 10 -2 10 -4z m77 -21 c-41 -37 -59 -34 -35 5 8 12 23 20 38
20 l25 -1 -28 -24z m483 15 c0 -5 -4 -10 -9 -10 -6 0 -13 5 -16 10 -3 6 1 10
9 10 9 0 16 -4 16 -10z m226 -17 c-3 -16 -10 -57 -16 -93 -18 -114 -20 -118
-34 -97 -7 9 -19 17 -27 17 -8 0 -21 5 -29 11 -11 8 -6 9 23 7 20 -2 37 -3 37
-3 0 1 5 28 10 61 6 32 13 74 16 92 3 17 10 32 15 32 6 0 8 -12 5 -27z m779
17 c-3 -5 -11 -10 -16 -10 -6 0 -7 5 -4 10 3 6 11 10 16 10 6 0 7 -4 4 -10z
m415 -10 c0 -11 -6 -20 -14 -20 -12 0 -14 14 -7 38 1 1 6 2 11 2 6 0 10 -9 10
-20z m-1390 -26 c0 -14 -4 -22 -10 -19 -5 3 -10 17 -10 31 0 14 4 22 10 19 6
-3 10 -17 10 -31z m665 26 c3 -6 -1 -13 -10 -16 -19 -8 -30 0 -20 15 8 14 22
14 30 1z m-1555 -30 c0 -5 -4 -10 -10 -10 -5 0 -10 5 -10 10 0 6 5 10 10 10 6
0 10 -4 10 -10z m2790 -11 c0 -5 -7 -9 -15 -9 -8 0 -15 7 -15 15 0 9 6 12 15
9 8 -4 15 -10 15 -15z m480 11 c0 -13 -70 -139 -81 -146 -16 -10 -10 10 28 84
34 65 53 88 53 62z m360 -4 c0 -14 -21 -58 -26 -54 -8 8 7 58 17 58 5 0 9 -2
9 -4z m-1889 -44 c-5 -2 -20 2 -32 8 -17 10 -19 14 -8 21 9 5 20 2 32 -9 10
-9 14 -18 8 -20z m-2986 19 c3 -5 1 -12 -5 -16 -5 -3 -10 1 -10 9 0 18 6 21
15 7z m3085 -1 c0 -5 -4 -10 -10 -10 -5 0 -10 5 -10 10 0 6 5 10 10 10 6 0 10
-4 10 -10z m-165 -10 c-3 -5 -10 -10 -16 -10 -5 0 -9 5 -9 10 0 6 7 10 16 10
8 0 12 -4 9 -10z m543 -23 c4 -19 -6 -21 -27 -8 -16 10 -5 34 12 28 7 -2 13
-11 15 -20z m252 3 c0 -5 -4 -10 -10 -10 -5 0 -10 5 -10 10 0 6 5 10 10 10 6
0 10 -4 10 -10z m-1850 -24 c0 -3 -4 -8 -10 -11 -5 -3 -10 -1 -10 4 0 6 5 11
10 11 6 0 10 -2 10 -4z m1131 -47 c-1 -24 -6 -48 -11 -52 -14 -16 -21 12 -14
58 8 59 30 54 25 -6z m1188 11 c32 -29 49 -39 64 -34 14 4 17 3 12 -6 -5 -8
-1 -18 10 -26 10 -8 16 -16 13 -20 -4 -3 -32 13 -62 35 -31 23 -56 38 -56 34
0 -4 -5 0 -11 10 -5 9 -17 17 -24 17 -8 0 -15 7 -15 15 0 25 23 17 69 -25z
m-399 20 c0 -5 -7 -10 -15 -10 -8 0 -15 5 -15 10 0 6 7 10 15 10 8 0 15 -4 15
-10z m-3430 -10 c0 -5 -4 -10 -10 -10 -5 0 -10 5 -10 10 0 6 5 10 10 10 6 0
10 -4 10 -10z m1270 -14 c0 -11 -19 -15 -25 -6 -3 5 1 10 9 10 9 0 16 -2 16
-4z m-258 -28 c-7 -7 -12 -8 -12 -2 0 6 3 14 7 17 3 4 9 5 12 2 2 -3 -1 -11
-7 -17z m-912 -2 c0 -3 -4 -8 -10 -11 -5 -3 -10 -1 -10 4 0 6 5 11 10 11 6 0
10 -2 10 -4z m430 -10 c0 -3 -4 -8 -10 -11 -5 -3 -10 -1 -10 4 0 6 5 11 10 11
6 0 10 -2 10 -4z m915 -16 c-3 -5 -10 -10 -16 -10 -5 0 -9 5 -9 10 0 6 7 10
16 10 8 0 12 -4 9 -10z m2275 -32 c0 -11 -12 -10 -30 2 -13 9 -13 11 0 19 14
9 29 -2 30 -21z m-1980 -2 c0 -9 -7 -12 -20 -9 -11 3 -20 9 -20 14 0 5 9 9 20
9 11 0 20 -6 20 -14z m765 -6 c-3 -5 -31 -10 -61 -10 -30 0 -54 5 -54 10 0 6
27 10 61 10 37 0 58 -4 54 -10z m1100 0 c3 -5 -1 -10 -9 -10 -9 0 -16 5 -16
10 0 6 4 10 9 10 6 0 13 -4 16 -10z m-3227 -32 c2 -10 -2 -18 -10 -18 -7 0
-24 -16 -38 -35 -26 -35 -56 -45 -78 -23 -19 19 64 100 98 96 14 -2 26 -10 28
-20z m2683 6 c7 -9 23 -20 36 -25 13 -5 23 -14 23 -20 0 -6 -6 -9 -14 -6 -16
6 -42 -45 -31 -62 10 -17 -23 -25 -41 -10 -14 12 -14 14 3 27 17 13 17 14 0
26 -21 16 -12 50 12 42 10 -4 7 1 -6 13 -13 11 -23 22 -23 25 0 12 28 5 41
-10z m-719 -66 c2 -40 1 -77 -1 -83 -7 -13 -20 58 -20 113 -1 72 17 46 21 -30z
m-1812 53 c0 -6 -4 -13 -10 -16 -5 -3 -10 1 -10 9 0 9 5 16 10 16 6 0 10 -4
10 -9z m1923 2 c-7 -2 -19 -2 -25 0 -7 3 -2 5 12 5 14 0 19 -2 13 -5z m1076
-9 c3 -3 -1 -9 -9 -14 -13 -8 -12 -10 2 -10 9 0 18 5 20 12 3 8 11 9 24 3 18
-8 18 -9 -3 -12 -13 -3 -29 -13 -37 -24 -11 -17 -21 -19 -70 -13 -31 4 -56 11
-56 15 0 5 26 6 57 3 51 -7 56 -5 50 10 -4 10 -7 20 -7 22 0 2 -9 4 -20 4 -11
0 -20 5 -20 11 0 11 57 6 69 -7z m271 -4 c0 -5 -4 -10 -10 -10 -5 0 -10 5 -10
10 0 6 5 10 10 10 6 0 10 -4 10 -10z m-465 -10 c4 -6 -5 -10 -19 -10 -14 0
-26 5 -26 10 0 6 9 10 19 10 11 0 23 -4 26 -10z m395 0 c0 -5 -4 -10 -10 -10
-5 0 -10 5 -10 10 0 6 5 10 10 10 6 0 10 -4 10 -10z m-2010 -10 c0 -5 -2 -10
-4 -10 -3 0 -8 5 -11 10 -3 6 -1 10 4 10 6 0 11 -4 11 -10z m-1000 -19 c0 -27
-17 -35 -23 -11 -5 19 0 30 15 30 4 0 8 -9 8 -19z m547 -13 c-33 -84 -53 -117
-73 -122 -13 -4 -42 -30 -65 -59 -23 -28 -46 -54 -51 -56 -28 -10 71 116 102
130 16 7 34 32 49 65 13 30 28 54 33 54 6 0 8 -6 5 -12z m568 -10 c7 -7 1 -8
-20 -4 -16 4 -34 12 -40 18 -7 7 -1 8 20 4 17 -4 35 -12 40 -18z m146 -11 c-8
-8 -11 -7 -11 4 0 20 13 34 18 19 3 -7 -1 -17 -7 -23z m2099 29 c0 -3 -4 -8
-10 -11 -5 -3 -10 -1 -10 4 0 6 5 11 10 11 6 0 10 -2 10 -4z m-350 -25 c0 -5
-7 -11 -15 -15 -15 -5 -20 5 -8 17 9 10 23 9 23 -2z m-4120 -37 c-18 -21 -24
-10 -9 18 8 14 14 18 17 10 2 -7 -2 -19 -8 -28z m616 12 c-2 -30 -67 -96 -96
-96 -42 0 -17 44 43 74 20 11 37 25 37 33 0 7 4 13 8 13 5 0 8 -11 8 -24z
m1714 14 c0 -5 -6 -10 -14 -10 -16 0 -29 -27 -20 -41 3 -5 -4 -9 -15 -9 -20 0
-20 1 -4 35 15 32 53 50 53 25z m665 0 c3 -5 1 -10 -4 -10 -6 0 -11 5 -11 10
0 6 2 10 4 10 3 0 8 -4 11 -10z m865 0 c0 -5 -5 -10 -12 -10 -6 0 -8 -3 -5 -7
4 -3 2 -12 -4 -20 -9 -10 -15 -10 -25 -2 -9 7 -14 7 -14 1 0 -5 6 -15 14 -21
11 -9 19 -9 35 1 11 7 24 8 28 4 4 -5 2 -11 -4 -13 -7 -3 -13 -18 -13 -34 0
-22 6 -30 25 -35 14 -3 23 -10 20 -14 -10 -16 -65 11 -65 31 0 10 -11 29 -25
43 -29 29 -32 61 -7 75 22 13 52 14 52 1z m-690 -30 c-14 -9 -40 -3 -40 9 0
16 14 20 33 10 15 -9 17 -13 7 -19z m527 24 c-3 -3 -12 -4 -19 -1 -8 3 -5 6 6
6 11 1 17 -2 13 -5z m73 -4 c0 -5 -11 -10 -25 -10 -14 0 -25 5 -25 10 0 6 11
10 25 10 14 0 25 -4 25 -10z m-3027 -24 c8 -21 -4 -28 -17 -10 -9 12 -10 -2
-3 -58 11 -92 16 -101 62 -113 31 -9 35 -13 22 -23 -8 -7 -17 -9 -19 -5 -1 4
-16 15 -33 23 -26 14 -31 23 -42 85 -17 101 -16 115 6 115 10 0 21 -6 24 -14z
m-583 -6 c0 -5 -4 -10 -10 -10 -5 0 -10 5 -10 10 0 6 5 10 10 10 6 0 10 -4 10
-10z m2343 -9 c-3 -12 2 -20 15 -23 10 -3 19 -13 19 -22 0 -18 -13 -21 -22 -6
-5 8 -11 8 -20 0 -9 -8 -14 -6 -19 7 -4 10 -2 19 3 21 6 2 11 12 11 23 0 10 4
19 9 19 5 0 7 -8 4 -19z m147 -2 c0 -6 -4 -7 -10 -4 -5 3 -10 11 -10 16 0 6 5
7 10 4 6 -3 10 -11 10 -16z m-1650 -19 c0 -5 -4 -10 -10 -10 -5 0 -10 5 -10
10 0 6 5 10 10 10 6 0 10 -4 10 -10z m785 0 c3 -5 1 -10 -4 -10 -6 0 -11 5
-11 10 0 6 2 10 4 10 3 0 8 -4 11 -10z m670 0 c-3 -5 -10 -10 -16 -10 -5 0 -9
5 -9 10 0 6 7 10 16 10 8 0 12 -4 9 -10z m760 -22 c-1 -13 -4 -24 -8 -25 -17
-7 -26 -2 -22 12 3 8 7 22 10 31 7 22 21 10 20 -18z m221 24 c12 -7 12 -87 0
-99 -13 -13 -18 7 -8 36 9 25 8 29 -4 24 -10 -4 -14 2 -14 21 0 27 7 31 26 18z
m704 1 c0 -5 -5 -15 -10 -23 -8 -12 -10 -11 -10 8 0 12 5 22 10 22 6 0 10 -3
10 -7z m-2243 -25 c-3 -8 -6 -5 -6 6 -1 11 2 17 5 13 3 -3 4 -12 1 -19z m2013
12 c0 -5 -4 -10 -10 -10 -5 0 -10 5 -10 10 0 6 5 10 10 10 6 0 10 -4 10 -10z
m-1575 -10 c-3 -5 -1 -10 4 -10 6 0 11 -4 11 -10 0 -5 -7 -7 -15 -4 -17 7 -21
34 -4 34 5 0 7 -4 4 -10z m261 -21 c18 -17 21 -28 17 -58 -4 -20 -13 -41 -22
-48 -9 -6 -16 -15 -17 -20 0 -4 -4 -16 -8 -25 -11 -25 -29 -22 -21 3 5 15 4
19 -4 15 -6 -4 -11 -3 -11 1 0 5 13 17 30 26 41 24 49 61 21 98 -25 34 -17 38
15 8z m-1596 1 c0 -5 -2 -10 -4 -10 -3 0 -8 5 -11 10 -3 6 -1 10 4 10 6 0 11
-4 11 -10z m2720 -5 c0 -8 -4 -15 -10 -15 -5 0 -10 7 -10 15 0 8 5 15 10 15 6
0 10 -7 10 -15z m-66 -1 c20 -8 21 -24 1 -24 -8 0 -15 -3 -16 -7 -3 -31 -11
-67 -19 -86 -8 -20 -9 -18 -9 12 -1 29 18 111 25 111 1 0 9 -3 18 -6z m-1204
-13 c0 -6 -4 -13 -10 -16 -5 -3 -10 1 -10 9 0 9 5 16 10 16 6 0 10 -4 10 -9z
m-525 -10 c-6 -5 -38 -13 -72 -19 -48 -7 -63 -6 -63 3 0 8 17 13 46 13 26 1
49 4 52 7 3 3 14 5 26 5 12 0 16 -4 11 -9z m1655 2 c-1 -21 -13 -52 -20 -48
-10 6 0 55 11 55 5 0 9 -3 9 -7z m793 -16 c66 -13 79 -33 15 -23 -61 9 -108
26 -108 38 0 6 8 7 18 3 9 -4 43 -12 75 -18z m-1803 4 c0 -12 -20 -25 -27 -18
-7 7 6 27 18 27 5 0 9 -4 9 -9z m-260 -17 c0 -8 -4 -12 -10 -9 -5 3 -10 10
-10 16 0 5 5 9 10 9 6 0 10 -7 10 -16z m340 -29 c0 -25 -4 -45 -10 -45 -5 0
-10 20 -10 45 0 25 5 45 10 45 6 0 10 -20 10 -45z m-2540 25 c0 -5 -4 -10 -10
-10 -5 0 -10 5 -10 10 0 6 5 10 10 10 6 0 10 -4 10 -10z m2024 -6 c22 -8 20
-19 -4 -21 -11 -1 -20 4 -20 13 0 16 2 16 24 8z m2375 -14 c23 -12 -2 -18 -36
-8 -40 10 -45 31 -5 22 15 -4 33 -10 41 -14z m-2459 -4 c0 -3 -4 -8 -10 -11
-5 -3 -10 -1 -10 4 0 6 5 11 10 11 6 0 10 -2 10 -4z m664 -2 c25 -9 19 -24 -9
-24 -16 0 -25 6 -25 15 0 16 9 19 34 9z m996 -15 c0 -5 -7 -9 -15 -9 -15 0
-20 12 -9 23 8 8 24 -1 24 -14z m190 13 c0 -4 -9 -13 -20 -20 -23 -14 -26 -8
-7 13 13 16 27 19 27 7z m823 -35 c-9 -16 -26 12 -18 30 7 17 8 17 15 -2 4
-11 5 -24 3 -28z m-123 23 c0 -5 -4 -10 -10 -10 -5 0 -10 5 -10 10 0 6 5 10
10 10 6 0 10 -4 10 -10z m34 -10 c-10 -4 -21 -6 -24 -3 -8 7 24 22 34 16 5 -4
1 -10 -10 -13z m-1067 -12 c-3 -8 -6 -5 -6 6 -1 11 2 17 5 13 3 -3 4 -12 1
-19z m260 0 c-3 -8 -6 -5 -6 6 -1 11 2 17 5 13 3 -3 4 -12 1 -19z m187 7 c-4
-8 -8 -15 -10 -15 -2 0 -4 7 -4 15 0 8 4 15 10 15 5 0 7 -7 4 -15z m-2505 -19
c28 -52 -2 -80 -146 -141 -70 -29 -93 -44 -93 -58 0 -10 -16 -34 -36 -52 -28
-26 -35 -40 -33 -63 3 -21 -5 -39 -29 -66 -32 -37 -34 -56 -6 -56 9 0 14 -10
14 -27 0 -25 -7 -31 -61 -53 -62 -26 -66 -32 -44 -82 5 -13 -1 -22 -24 -35
-17 -10 -31 -20 -31 -23 1 -3 21 -20 45 -38 29 -21 42 -37 39 -47 -7 -18 -25
-20 -19 -2 2 6 -13 26 -35 42 -46 36 -53 70 -15 79 26 7 32 20 15 31 -5 3 -10
17 -10 30 0 21 11 30 65 54 36 16 65 33 65 36 0 4 -9 14 -19 23 -22 19 -39 82
-22 82 6 0 11 -5 11 -12 0 -6 11 -1 25 12 20 19 24 30 20 51 -5 22 1 35 29 67
22 24 36 50 36 66 0 20 5 26 20 26 20 0 121 42 190 79 36 20 51 54 30 75 -8 8
-13 7 -19 -3 -10 -15 -41 -8 -41 9 0 6 3 9 8 7 4 -3 16 -1 27 4 29 11 31 11
44 -15z m501 4 c0 -5 -11 -10 -25 -10 -14 0 -25 5 -25 10 0 6 11 10 25 10 14
0 25 -4 25 -10z m1690 0 c0 -5 -4 -10 -10 -10 -5 0 -10 5 -10 10 0 6 5 10 10
10 6 0 10 -4 10 -10z m-1595 -10 c4 -6 -7 -10 -24 -10 -17 0 -31 5 -31 10 0 6
11 10 24 10 14 0 28 -4 31 -10z m75 -10 c0 -5 -9 -10 -20 -10 -11 0 -20 5 -20
10 0 6 9 10 20 10 11 0 20 -4 20 -10z m55 -10 c3 -5 -1 -10 -9 -10 -8 0 -18 5
-21 10 -3 6 1 10 9 10 8 0 18 -4 21 -10z m1650 0 c-3 -5 -10 -10 -16 -10 -5 0
-9 5 -9 10 0 6 7 10 16 10 8 0 12 -4 9 -10z m-1590 -10 c3 -5 -3 -10 -14 -10
-12 0 -21 5 -21 10 0 6 6 10 14 10 8 0 18 -4 21 -10z m1059 -17 c-9 -35 -7
-34 -24 -22 -11 8 -12 12 -2 16 6 2 12 11 12 19 0 8 5 14 10 14 6 0 8 -11 4
-27z m-1054 -23 c0 -5 -7 -10 -15 -10 -8 0 -15 5 -15 10 0 6 7 10 15 10 8 0
15 -4 15 -10z m760 0 c0 -5 -4 -10 -10 -10 -5 0 -10 5 -10 10 0 6 5 10 10 10
6 0 10 -4 10 -10z m136 -27 c-11 -11 -19 6 -11 24 8 17 8 17 12 0 3 -10 2 -21
-1 -24z m734 17 c0 -5 -4 -10 -10 -10 -5 0 -10 5 -10 10 0 6 5 10 10 10 6 0
10 -4 10 -10z m-1260 -14 c30 -9 46 -20 49 -32 3 -18 2 -18 -15 -2 -11 9 -36
19 -56 23 -21 4 -38 11 -38 16 0 12 6 11 60 -5z m-296 -10 c-21 -15 -30 -14
-19 3 3 6 14 11 23 11 13 0 13 -2 -4 -14z m2230 -2 c13 -5 14 -9 5 -20 -17
-21 -39 -17 -39 6 0 21 8 24 34 14z m53 -36 c-3 -8 -6 -5 -6 6 -1 11 2 17 5
13 3 -3 4 -12 1 -19z m-2964 -13 c-6 -17 11 -20 92 -16 46 2 92 21 52 21 -9 0
-17 5 -17 10 0 16 37 12 55 -7 16 -15 16 -18 1 -29 -13 -9 -15 -22 -11 -53 3
-27 1 -40 -5 -36 -6 3 -10 4 -10 1 0 -2 -3 -11 -6 -20 -5 -13 2 -16 32 -17
l39 -1 -45 -14 c-30 -9 -46 -11 -48 -4 -3 7 -9 7 -18 -1 -11 -9 -18 -9 -29 1
-21 18 -19 32 5 25 12 -4 20 -2 20 5 0 6 4 9 9 6 13 -8 17 10 13 50 -3 25 -9
34 -23 34 -10 0 -19 -4 -19 -10 0 -5 -9 -10 -19 -10 -11 0 -26 -9 -35 -21 -22
-31 -49 -20 -59 24 -7 28 -6 46 3 63 14 25 33 24 23 -1z m457 3 c0 -6 -7 -7
-16 -4 -9 3 -32 6 -52 6 -21 0 -32 4 -25 8 17 11 93 2 93 -10z m370 -66 c0
-71 3 -91 18 -104 26 -25 62 -69 62 -77 0 -4 22 -18 50 -31 27 -13 47 -27 44
-32 -6 -9 -90 36 -114 61 -44 46 -80 107 -80 137 0 22 -7 38 -22 48 -12 9 -19
19 -15 22 4 4 13 1 22 -6 13 -11 15 -7 15 29 0 22 5 41 10 41 6 0 10 -36 10
-88z m30 78 c0 -5 -2 -10 -4 -10 -3 0 -8 5 -11 10 -3 6 -1 10 4 10 6 0 11 -4
11 -10z m-370 -10 c0 -5 -4 -10 -10 -10 -5 0 -10 5 -10 10 0 6 5 10 10 10 6 0
10 -4 10 -10z m2305 0 c3 -5 -1 -10 -9 -10 -9 0 -16 5 -16 10 0 6 4 10 9 10 6
0 13 -4 16 -10z m72 -16 c-9 -9 -28 6 -21 18 4 6 10 6 17 -1 6 -6 8 -13 4 -17z
m-2273 -4 c15 -15 -14 -12 -49 6 l-30 14 35 -5 c19 -3 39 -10 44 -15z m615
-19 c17 -21 31 -43 31 -47 1 -14 32 -48 70 -74 61 -43 70 -59 65 -115 -10 -99
-18 -211 -16 -242 0 -18 -4 -35 -10 -39 -11 -6 -8 101 7 252 8 81 -4 105 -50
97 -32 -5 -34 -3 -40 30 -3 19 -29 67 -56 106 -53 75 -53 99 -1 32z m-2879
-13 c0 -4 -4 -8 -10 -8 -5 0 -10 4 -10 9 0 5 -3 18 -6 28 -5 16 -4 16 10 -1 9
-11 16 -23 16 -28z m1334 15 c8 -20 0 -28 -36 -37 -35 -8 -38 14 -5 37 29 20
34 20 41 0z m-908 -8 c-21 -16 -32 -13 -21 4 3 6 14 11 23 11 15 -1 15 -2 -2
-15z m-1309 -32 c-3 -10 -5 -4 -5 12 0 17 2 24 5 18 2 -7 2 -21 0 -30z m3600
3 c-3 -7 -1 -18 5 -24 6 -6 6 -12 -1 -16 -6 -4 -11 -3 -11 2 0 5 -11 7 -25 4
-19 -3 -25 0 -25 13 0 12 5 15 20 10 14 -5 20 -2 20 9 0 9 5 16 11 16 6 0 9
-6 6 -14z m1343 5 c0 -6 -4 -13 -10 -16 -5 -3 -10 1 -10 9 0 9 5 16 10 16 6 0
10 -4 10 -9z m1535 0 c3 -5 1 -12 -5 -16 -5 -3 -10 1 -10 9 0 18 6 21 15 7z
m-5581 -26 c-4 -8 -10 -15 -15 -15 -4 0 -6 7 -3 15 4 8 10 15 15 15 4 0 6 -7
3 -15z m1706 -25 c0 -5 -5 -10 -11 -10 -5 0 -7 5 -4 10 3 6 8 10 11 10 2 0 4
-4 4 -10z m604 -16 c9 -23 8 -24 -14 -24 -19 0 -27 20 -13 33 11 11 20 8 27
-9z m-2324 -26 c0 -5 -4 -8 -10 -8 -5 0 -10 10 -10 23 0 18 2 19 10 7 5 -8 10
-18 10 -22z m3860 22 c0 -5 -2 -10 -4 -10 -3 0 -8 5 -11 10 -3 6 -1 10 4 10 6
0 11 -4 11 -10z m-1918 -25 c-2 -11 -8 -22 -12 -25 -5 -3 -10 -19 -12 -35 l-4
-30 -12 29 c-10 24 -10 32 3 46 12 13 12 19 2 29 -10 10 -7 12 13 9 19 -2 24
-8 22 -23z m1948 21 c0 -3 -4 -8 -10 -11 -5 -3 -10 -1 -10 4 0 6 5 11 10 11 6
0 10 -2 10 -4z m190 -11 c0 -8 -4 -15 -10 -15 -5 0 -10 7 -10 15 0 8 5 15 10
15 6 0 10 -7 10 -15z m-3980 -25 c-6 -11 -15 -20 -20 -20 -16 0 -11 18 8 29
24 14 24 14 12 -9z m5180 -7 c0 -13 -3 -13 -15 -3 -8 7 -12 16 -9 21 8 13 24
1 24 -18z m-5262 -23 c12 0 13 -3 5 -11 -6 -6 -20 -8 -32 -4 -18 5 -19 9 -9
28 11 19 13 20 16 5 2 -10 11 -18 20 -18z m2766 -11 c-3 -5 -10 -7 -15 -3 -5
3 -7 10 -3 15 3 5 10 7 15 3 5 -3 7 -10 3 -15z m-2728 -26 c-11 -11 -17 4 -9
23 7 18 8 18 11 1 2 -10 1 -21 -2 -24z m2628 31 c23 -9 20 -24 -4 -24 -11 0
-20 7 -20 15 0 17 2 18 24 9z m-2644 -49 c7 -8 8 -15 2 -15 -5 0 -15 7 -22 15
-7 8 -8 15 -2 15 5 0 15 -7 22 -15z m2685 -5 c-3 -5 -10 -10 -16 -10 -5 0 -9
5 -9 10 0 6 7 10 16 10 8 0 12 -4 9 -10z m-640 -10 c-3 -5 -11 -10 -16 -10 -6
0 -7 5 -4 10 3 6 11 10 16 10 6 0 7 -4 4 -10z m-695 -30 c0 -5 -2 -10 -4 -10
-3 0 -8 5 -11 10 -3 6 -1 10 4 10 6 0 11 -4 11 -10z m2440 -4 c0 -11 -19 -15
-25 -6 -3 5 1 10 9 10 9 0 16 -2 16 -4z m-959 -51 c28 -6 41 -25 17 -25 -39 1
-58 13 -57 39 1 15 3 19 6 9 2 -9 17 -20 34 -23z m59 31 c0 -3 -4 -8 -10 -11
-5 -3 -10 -1 -10 4 0 6 5 11 10 11 6 0 10 -2 10 -4z m743 -34 c11 -12 13 -22
6 -32 -8 -13 -12 -12 -24 4 -29 38 -13 63 18 28z m-2418 -21 c-3 -10 1 -24 10
-31 8 -7 12 -16 9 -21 -7 -12 -44 34 -44 55 0 9 7 16 16 16 10 0 13 -6 9 -19z
m1539 -9 c-6 -4 -14 -14 -17 -22 -4 -10 -6 -8 -6 8 -1 15 5 22 17 22 10 0 13
-3 6 -8z m-304 -38 c0 -14 -4 -23 -10 -19 -5 3 -10 15 -10 26 0 10 5 19 10 19
6 0 10 -12 10 -26z m2510 -4 c-9 -17 -21 -20 -73 -20 -62 0 -63 0 -151 -70
-49 -38 -90 -70 -91 -70 -9 0 2 30 12 34 7 3 49 33 92 67 78 60 80 61 135 57
38 -2 57 1 61 10 2 6 9 12 15 12 8 0 8 -6 0 -20z m-2310 -4 c0 -3 -4 -8 -10
-11 -5 -3 -10 -1 -10 4 0 6 5 11 10 11 6 0 10 -2 10 -4z m3036 -5 c-8 -13 -96
-42 -96 -31 0 4 19 15 43 23 51 19 60 20 53 8z m-3486 -17 c0 -5 -63 -34 -75
-34 -16 0 -1 18 23 27 31 12 52 15 52 7z m370 -8 c0 -3 -4 -8 -10 -11 -5 -3
-10 -1 -10 4 0 6 5 11 10 11 6 0 10 -2 10 -4z m-771 -55 c10 -17 8 -18 -13 -8
-14 7 -22 15 -20 19 9 14 23 9 33 -11z m-49 -5 c0 -15 -18 -31 -26 -23 -7 7 7
37 17 37 5 0 9 -6 9 -14z m1010 0 c0 -2 -7 -6 -15 -10 -8 -3 -15 -1 -15 4 0 6
7 10 15 10 8 0 15 -2 15 -4z m-900 -20 c0 -3 -4 -8 -10 -11 -5 -3 -10 -1 -10
4 0 6 5 11 10 11 6 0 10 -2 10 -4z m657 -28 c-3 -8 -6 -5 -6 6 -1 11 2 17 5
13 3 -3 4 -12 1 -19z m1593 7 c0 -8 -4 -15 -10 -15 -5 0 -10 7 -10 15 0 8 5
15 10 15 6 0 10 -7 10 -15z m-470 -9 c0 -3 -4 -8 -10 -11 -5 -3 -10 -1 -10 4
0 6 5 11 10 11 6 0 10 -2 10 -4z m-1190 -21 c-12 -15 -30 -12 -30 6 0 5 10 9
21 9 18 0 19 -2 9 -15z m-844 -7 c5 -7 2 -9 -9 -5 -11 4 -14 2 -10 -9 3 -7 1
-14 -5 -14 -12 0 -23 26 -15 34 10 10 31 7 39 -6z m-599 -4 c-3 -3 -12 -4 -19
-1 -8 3 -5 6 6 6 11 1 17 -2 13 -5z m3471 -10 c79 -15 85 -15 104 3 21 18 21
18 9 -4 -16 -32 -19 -32 -101 -18 -41 8 -97 14 -123 14 -45 1 -48 -1 -45 -21
3 -20 11 -24 63 -30 46 -5 62 -3 68 8 11 20 26 17 22 -3 -12 -62 -17 -73 -25
-68 -5 3 -7 12 -4 19 4 10 -13 17 -62 25 -36 7 -67 11 -69 9 -1 -2 -5 -15 -8
-29 -7 -26 -6 -27 70 -38 86 -13 88 -14 80 -36 -7 -18 -37 -19 -107 -4 -58 12
-68 9 -44 -15 20 -20 11 -34 -11 -16 -19 16 -19 7 0 -30 12 -23 12 -28 2 -24
-14 5 -16 10 -20 55 -1 14 -7 32 -13 40 -6 8 -15 24 -18 37 -4 12 -11 20 -16
17 -5 -3 -12 0 -16 6 -4 8 -3 9 4 5 16 -9 15 7 0 22 -7 7 -8 12 -2 12 6 0 17
-11 24 -25 19 -36 52 -34 48 3 -3 24 -8 28 -48 33 -25 4 -51 2 -57 -3 -7 -6
-13 -7 -13 -4 0 9 26 36 31 32 2 -2 25 -6 52 -9 47 -7 47 -7 47 23 0 29 2 30
47 30 25 0 84 -7 131 -16z m-2438 2 c0 -3 -4 -8 -10 -11 -5 -3 -10 -1 -10 4 0
6 5 11 10 11 6 0 10 -2 10 -4z m-1060 -14 c0 -19 -27 -32 -66 -32 -24 0 -45
-4 -49 -9 -6 -11 21 -41 39 -41 7 0 27 -16 46 -35 18 -19 37 -32 42 -29 18 11
21 -29 3 -42 -14 -10 -16 -21 -12 -50 9 -56 20 -60 124 -38 23 4 42 0 75 -20
25 -14 56 -26 69 -26 13 0 39 -14 57 -31 42 -39 41 -48 -2 -15 -19 14 -44 26
-55 26 -11 0 -42 12 -68 26 -44 23 -52 25 -98 15 -65 -13 -117 -2 -130 27 -8
18 -16 22 -37 19 -25 -3 -38 8 -38 33 0 5 18 16 40 26 22 10 40 23 40 28 -1
16 -42 59 -76 78 -20 12 -30 26 -32 47 l-3 31 55 0 c31 0 56 5 56 10 0 6 5 10
10 10 6 0 10 -4 10 -8z m420 -8 c0 -8 -4 -12 -10 -9 -5 3 -10 10 -10 16 0 5 5
9 10 9 6 0 10 -7 10 -16z m1430 -4 c0 -5 -7 -10 -15 -10 -8 0 -15 5 -15 10 0
6 7 10 15 10 8 0 15 -4 15 -10z m950 1 c0 -6 -4 -13 -10 -16 -5 -3 -10 1 -10
9 0 9 5 16 10 16 6 0 10 -4 10 -9z m-1215 -11 c3 -5 -1 -10 -9 -10 -9 0 -16 5
-16 10 0 6 4 10 9 10 6 0 13 -4 16 -10z m70 -20 c8 0 17 -5 21 -12 5 -8 0 -9
-14 -6 -27 8 -28 -6 -2 -32 24 -24 26 -49 3 -65 -14 -11 -12 -19 25 -86 22
-41 38 -79 34 -85 -9 -13 -71 -38 -78 -31 -3 3 4 11 16 17 21 11 21 12 3 26
-17 14 -16 15 10 9 16 -3 27 -2 25 2 -2 4 -18 37 -36 71 -30 59 -32 65 -18 81
15 16 24 52 10 38 -14 -14 -42 13 -37 34 4 15 3 20 -5 15 -7 -4 -12 -2 -12 3
0 6 4 11 9 11 5 0 12 10 16 23 6 19 8 19 12 5 2 -10 11 -18 18 -18z m301 13
c-2 -10 -8 -53 -12 -96 -3 -42 -11 -80 -17 -84 -6 -4 -8 9 -4 38 4 24 9 70 13
102 3 31 11 57 16 57 5 0 7 -8 4 -17z m-426 3 c0 -11 -19 -15 -25 -6 -3 5 1
10 9 10 9 0 16 -2 16 -4z m-97 -43 c-8 -52 -13 -54 -13 -5 0 23 4 42 9 42 6 0
7 -17 4 -37z m-823 -14 c0 -17 -3 -19 -14 -10 -8 7 -16 8 -18 3 -4 -12 -68 -3
-68 10 0 5 13 7 30 3 19 -4 30 -3 30 4 0 6 9 11 20 11 14 0 20 -7 20 -21z
m490 17 c0 -3 -4 -8 -10 -11 -5 -3 -10 -1 -10 4 0 6 5 11 10 11 6 0 10 -2 10
-4z m-60 -16 c0 -5 -4 -10 -10 -10 -5 0 -10 5 -10 10 0 6 5 10 10 10 6 0 10
-4 10 -10z m690 6 c0 -2 -7 -6 -15 -10 -8 -3 -15 -1 -15 4 0 6 7 10 15 10 8 0
15 -2 15 -4z m1340 -32 c0 -14 -4 -23 -10 -19 -5 3 -10 15 -10 26 0 10 5 19
10 19 6 0 10 -12 10 -26z m52 -6 c-6 -24 -19 -23 -32 2 -9 17 -8 20 13 18 18
-2 23 -7 19 -20z m-1692 -38 c0 -5 -2 -10 -4 -10 -3 0 -8 5 -11 10 -3 6 -1 10
4 10 6 0 11 -4 11 -10z m-1200 -10 c0 -5 -7 -10 -15 -10 -8 0 -15 5 -15 10 0
6 7 10 15 10 8 0 15 -4 15 -10z m1615 -20 c3 -5 -1 -10 -9 -10 -9 0 -16 5 -16
10 0 6 4 10 9 10 6 0 13 -4 16 -10z m885 -1 c0 -6 -9 -13 -19 -16 -11 -3 -17
-11 -14 -18 4 -11 -1 -12 -26 -2 -30 11 -41 32 -21 39 27 9 80 7 80 -3z m740
-14 c0 -8 -4 -15 -10 -15 -5 0 -10 7 -10 15 0 8 5 15 10 15 6 0 10 -7 10 -15z
m-650 -10 l25 -14 -27 -1 c-23 0 -28 -5 -28 -24 0 -16 7 -27 21 -31 11 -4 19
-9 16 -11 -8 -8 -62 21 -66 36 -2 8 -6 24 -9 35 -5 18 -4 18 11 6 15 -12 17
-11 17 3 0 19 7 20 40 1z m75 -25 c8 -13 -15 -13 -35 0 -12 8 -11 10 7 10 12
0 25 -4 28 -10z m9 -62 c3 -17 5 -32 4 -33 -2 -1 -16 7 -33 17 -23 15 -25 19
-9 15 17 -3 20 -1 17 14 -3 11 -1 19 5 19 5 0 12 -14 16 -32z m-1294 18 c0
-11 -19 -15 -25 -6 -3 5 1 10 9 10 9 0 16 -2 16 -4z m-2360 -16 c0 -5 -9 -10
-21 -10 -11 0 -17 5 -14 10 3 6 13 10 21 10 8 0 14 -4 14 -10z m-50 -4 c0 -9
-40 -13 -46 -5 -3 5 6 9 20 9 14 0 26 -2 26 -4z m53 -36 c-3 -11 -9 -20 -14
-20 -11 0 -11 3 -3 24 9 23 23 20 17 -4z m-105 -2 c-2 -6 -10 -14 -16 -16 -7
-2 -10 2 -6 12 7 18 28 22 22 4z m62 -43 c-7 -9 -15 -13 -18 -10 -3 2 1 11 8
20 7 9 15 13 18 10 3 -2 -1 -11 -8 -20z m-40 1 c0 -9 -40 -13 -46 -5 -3 5 6 9
20 9 14 0 26 -2 26 -4z m14 -40 c-5 -14 -52 -31 -61 -22 -4 4 44 33 59 35 4 1
5 -5 2 -13z m2479 -10 c15 -4 27 -11 27 -16 0 -5 -6 -8 -12 -6 -7 3 -25 7 -40
10 -16 4 -28 11 -28 16 0 5 6 8 13 6 6 -3 24 -7 40 -10z m1707 10 c0 -3 -4 -8
-10 -11 -5 -3 -10 -1 -10 4 0 6 5 11 10 11 6 0 10 -2 10 -4z m80 -16 c0 -5 -9
-10 -21 -10 -11 0 -17 5 -14 10 3 6 13 10 21 10 8 0 14 -4 14 -10z m-1390 -10
c0 -5 -4 -10 -10 -10 -5 0 -10 5 -10 10 0 6 5 10 10 10 6 0 10 -4 10 -10z
m-312 -12 c-2 -5 -8 -9 -13 -9 -5 0 -11 4 -13 9 -1 5 4 9 13 9 9 0 14 -4 13
-9z m258 -5 c-2 -10 -7 -34 -11 -53 -10 -54 -16 -70 -24 -70 -5 0 -5 21 0 48
14 78 19 92 30 92 6 0 8 -8 5 -17z m89 7 c-3 -5 -10 -10 -16 -10 -5 0 -9 5 -9
10 0 6 7 10 16 10 8 0 12 -4 9 -10z m-2989 -27 c-10 -10 -19 5 -10 18 6 11 8
11 12 0 2 -7 1 -15 -2 -18z m2848 21 c14 -5 12 -34 -3 -34 -16 1 -33 19 -27
29 8 13 9 13 30 5z m2400 0 c25 -4 46 -11 46 -16 0 -6 -6 -8 -14 -5 -20 8 -16
-84 4 -100 13 -11 12 -12 -5 -13 -11 0 -29 -7 -39 -15 -29 -22 -73 -19 -81 5
-3 11 -11 20 -16 20 -5 0 -14 12 -19 26 -8 21 -6 34 12 65 23 42 30 44 112 33z
m-5276 -54 c-14 -22 -24 -19 -15 5 4 8 11 15 17 15 6 0 6 -7 -2 -20z m2417 0
c8 -13 -15 -13 -35 0 -12 8 -11 10 7 10 12 0 25 -4 28 -10z m1535 -24 c0 -3
-4 -8 -10 -11 -5 -3 -10 -1 -10 4 0 6 5 11 10 11 6 0 10 -2 10 -4z m-5093 -53
c-3 -10 -5 -2 -5 17 0 19 2 27 5 18 2 -10 2 -26 0 -35z m4129 -8 c-5 -20 -3
-25 14 -25 15 0 20 -7 20 -25 0 -29 -15 -34 -22 -7 -4 12 -23 22 -62 32 -31 7
-56 17 -56 23 0 8 23 5 71 -9 11 -3 18 3 22 16 3 11 8 20 12 20 4 0 4 -11 1
-25z m1229 -16 c10 -14 1 -21 -19 -13 -9 3 -13 10 -10 15 7 12 21 11 29 -2z
m-2710 -79 c13 -6 15 -9 5 -9 -8 0 -22 4 -30 9 -18 12 -2 12 25 0z m4275 -5
c0 -9 -6 -12 -15 -9 -8 4 -12 10 -9 15 8 14 24 10 24 -6z m-4100 -4 c0 -12
-20 -25 -27 -18 -7 7 6 27 18 27 5 0 9 -4 9 -9z m-2723 -57 c-3 -3 -12 -4 -19
-1 -8 3 -5 6 6 6 11 1 17 -2 13 -5z m4093 2 c0 -11 -19 -15 -25 -6 -3 5 1 10
9 10 9 0 16 -2 16 -4z m-2000 -76 c0 -5 -2 -10 -4 -10 -3 0 -8 5 -11 10 -3 6
-1 10 4 10 6 0 11 -4 11 -10z m-173 -57 c-3 -10 -5 -2 -5 17 0 19 2 27 5 18 2
-10 2 -26 0 -35z m4518 -113 c3 -5 -1 -10 -9 -10 -9 0 -16 5 -16 10 0 6 4 10
9 10 6 0 13 -4 16 -10z m-1480 -58 c-7 -8 -35 7 -35 18 0 6 7 6 20 -2 10 -7
17 -14 15 -16z m53 -2 c-7 -11 -15 -20 -18 -20 -3 0 -6 9 -7 20 -1 14 4 20 18
20 17 0 18 -3 7 -20z m59 14 c-3 -3 -12 -4 -19 -1 -8 3 -5 6 6 6 11 1 17 -2
13 -5z m-81 -102 c-12 -11 -18 7 -10 30 l8 23 4 -23 c2 -13 1 -26 -2 -30z
m-2206 -33 c-7 -11 -14 -19 -16 -16 -7 7 7 37 17 37 6 0 5 -9 -1 -21z m1727
-85 c-10 -10 -47 26 -47 45 0 11 7 8 27 -11 15 -15 24 -31 20 -34z m-1347 -63
c0 -11 -4 -23 -10 -26 -6 -4 -10 5 -10 19 0 14 5 26 10 26 6 0 10 -9 10 -19z
m1200 -96 c0 -3 -9 -1 -20 5 -11 6 -20 17 -20 25 0 11 5 10 20 -5 11 -11 20
-22 20 -25z m390 27 c0 -13 -12 -22 -22 -16 -10 6 -1 24 13 24 5 0 9 -4 9 -8z
m-5390 -376 c0 -3 -4 -8 -10 -11 -5 -3 -10 -1 -10 4 0 6 5 11 10 11 6 0 10 -2
10 -4z m6050 -40 c0 -3 -4 -8 -10 -11 -5 -3 -10 -1 -10 4 0 6 5 11 10 11 6 0
10 -2 10 -4z"/>
<path d="M3884 6205 c21 -16 32 -13 21 4 -3 6 -14 11 -23 11 -15 -1 -15 -2 2
-15z"/>
<path d="M3996 5725 c-3 -9 0 -15 9 -15 8 0 15 7 15 15 0 8 -4 15 -9 15 -5 0
-11 -7 -15 -15z"/>
<path d="M4090 4960 c0 -5 5 -10 10 -10 15 0 12 -26 -5 -40 -8 -7 -15 -21 -15
-32 0 -17 3 -18 14 -8 8 6 12 18 9 26 -3 8 1 14 10 14 9 0 23 10 32 23 15 21
14 22 -7 29 -35 9 -48 9 -48 -2z"/>
<path d="M3320 4840 c8 -5 31 -9 50 -9 29 0 31 2 15 9 -11 5 -33 9 -50 9 -23
1 -26 -2 -15 -9z"/>
<path d="M3305 4810 c-8 -13 5 -13 25 0 13 8 13 10 -2 10 -9 0 -20 -4 -23 -10z"/>
<path d="M3071 4653 c-8 -17 -4 -26 27 -56 21 -21 42 -37 47 -37 6 0 3 5 -5
10 -13 9 -13 11 -1 19 18 11 41 3 41 -14 0 -8 8 -14 18 -14 9 0 39 -5 65 -10
38 -8 56 -8 84 4 40 17 40 38 -1 43 -21 3 -26 8 -24 25 3 21 -2 22 -82 28 -47
4 -101 10 -122 14 -30 6 -38 4 -47 -12z"/>
<path d="M3390 4550 c-27 -8 -18 -15 33 -23 22 -3 27 -1 25 12 -4 18 -23 22
-58 11z"/>
<path d="M3652 4533 c-47 -28 -46 -52 2 -33 34 13 46 13 46 0 0 -5 -7 -10 -15
-10 -17 0 -20 -16 -4 -25 15 -10 100 15 93 27 -4 6 -17 8 -31 5 -18 -3 -23 -1
-19 10 5 13 -13 54 -24 52 -3 -1 -24 -12 -48 -26z"/>
<path d="M3153 4536 c-9 -11 -8 -18 6 -35 10 -11 20 -19 23 -16 14 14 98 -106
98 -140 0 -8 9 -15 20 -15 13 0 20 -7 20 -20 0 -17 6 -20 48 -19 l47 1 -37 15
c-23 10 -38 23 -40 38 l-5 22 44 -19 c24 -10 52 -16 62 -13 14 4 21 0 26 -15
6 -19 9 -18 27 16 18 33 18 38 4 46 -24 14 -20 31 4 18 16 -9 22 -8 26 4 3 9
24 21 45 27 49 15 50 27 2 31 -37 4 -35 6 12 24 18 6 18 7 2 11 -10 3 -24 0
-31 -6 -8 -7 -23 -7 -47 -1 -18 6 -45 10 -59 10 -41 0 -101 20 -94 32 4 7 1 7
-13 0 -12 -7 -36 -7 -68 -1 -103 18 -110 18 -122 5z m127 -57 c0 -6 -4 -7 -10
-4 -5 3 -10 11 -10 16 0 6 5 7 10 4 6 -3 10 -11 10 -16z m240 -29 c0 -5 -4
-10 -10 -10 -5 0 -10 5 -10 10 0 6 5 10 10 10 6 0 10 -4 10 -10z m-50 -23 c0
-14 -27 -31 -67 -42 -13 -4 -23 -2 -23 3 0 9 21 19 60 27 8 2 16 9 18 14 5 15
12 14 12 -2z"/>
<path d="M3925 4540 c28 -12 88 -12 80 0 -3 6 -27 10 -53 9 -35 0 -42 -3 -27
-9z"/>
<path d="M4030 4532 c0 -4 18 -9 41 -11 26 -1 38 2 34 9 -7 12 -75 14 -75 2z"/>
<path d="M3625 4460 c3 -5 13 -10 21 -10 8 0 14 5 14 10 0 6 -9 10 -21 10 -11
0 -17 -4 -14 -10z"/>
<path d="M3163 4433 c-17 -6 -16 -24 2 -59 13 -25 13 -30 -1 -45 -22 -25 -7
-49 23 -38 15 5 21 14 17 24 -3 8 -2 15 4 15 6 0 13 -6 15 -12 3 -7 6 1 6 17
1 31 -29 97 -45 101 -5 1 -15 0 -21 -3z"/>
<path d="M3583 4422 c-12 -2 -27 -10 -34 -19 -11 -13 -10 -18 6 -29 16 -12 21
-12 24 -2 2 7 11 18 19 24 20 15 12 30 -15 26z"/>
<path d="M3241 4380 c1 -14 4 -36 8 -50 l7 -25 7 24 c3 14 0 35 -8 50 l-14 26
0 -25z"/>
<path d="M3626 4363 c-3 -16 -8 -37 -11 -48 -5 -16 -2 -21 14 -21 15 0 22 11
30 43 14 54 14 53 -8 53 -12 0 -21 -9 -25 -27z"/>
<path d="M3501 4323 c-21 -42 -13 -78 19 -86 14 -4 22 7 38 49 19 53 19 55 2
64 -30 16 -39 12 -59 -27z"/>
<path d="M3281 4278 c0 -28 2 -30 9 -13 12 28 12 45 0 45 -5 0 -10 -15 -9 -32z"/>
<path d="M3422 4267 c-7 -18 -12 -54 -12 -78 0 -25 -7 -99 -15 -164 -8 -66
-15 -138 -14 -160 l0 -40 20 49 c11 26 24 83 30 125 5 42 21 111 35 153 l26
78 -22 35 c-12 19 -25 35 -29 35 -4 0 -12 -15 -19 -33z m-15 -319 c-3 -8 -6
-5 -6 6 -1 11 2 17 5 13 3 -3 4 -12 1 -19z"/>
<path d="M3590 4273 c0 -5 5 -26 11 -48 l12 -40 13 35 c18 51 17 60 -11 60
-14 0 -25 -3 -25 -7z"/>
<path d="M3561 4250 c-1 -22 -54 -160 -63 -160 -7 0 -3 74 6 105 4 11 -1 4
-10 -15 -10 -19 -17 -50 -17 -67 1 -18 -3 -31 -7 -28 -5 3 -12 -11 -15 -32 -3
-21 -8 -51 -10 -66 -4 -23 -1 -28 13 -25 18 4 22 35 8 77 -8 23 -7 23 30 17
22 -4 46 -9 55 -12 23 -7 42 47 41 116 0 34 -31 121 -31 90z"/>
<path d="M3730 4210 c0 -11 4 -20 9 -20 5 0 7 9 4 20 -3 11 -7 20 -9 20 -2 0
-4 -9 -4 -20z"/>
<path d="M3608 4095 c-6 -11 -78 -240 -78 -249 0 -3 8 -6 18 -6 13 0 21 14 30
58 7 31 20 85 28 119 14 58 15 100 2 78z"/>
<path d="M3490 4025 c0 -16 16 -20 24 -6 3 5 -1 11 -9 15 -9 3 -15 0 -15 -9z"/>
<path d="M3525 4004 c-9 -14 -12 -24 -7 -20 6 3 13 2 17 -4 3 -5 1 -10 -4 -10
-6 0 -11 -9 -11 -20 0 -34 16 -22 29 21 16 52 1 71 -24 33z"/>
<path d="M3520 3814 c0 -8 9 -14 20 -14 11 0 20 4 20 9 0 5 -9 11 -20 14 -13
3 -20 0 -20 -9z"/>
<path d="M3575 3800 c-3 -5 -1 -10 4 -10 6 0 11 5 11 10 0 6 -2 10 -4 10 -3 0
-8 -4 -11 -10z"/>
<path d="M3520 3770 c13 -8 12 -10 -3 -10 -28 0 -15 -23 18 -32 30 -8 45 3 45
32 -1 11 -4 10 -15 -4 -15 -19 -15 -19 -15 2 0 16 -6 22 -22 22 -19 0 -20 -2
-8 -10z"/>
<path d="M3496 3705 c4 -8 2 -15 -4 -15 -5 0 -12 -6 -15 -13 -3 -8 4 -12 22
-11 29 1 42 31 19 45 -20 13 -28 11 -22 -6z"/>
<path d="M3546 3687 c-8 -30 -7 -37 3 -37 11 0 21 49 11 55 -4 3 -10 -5 -14
-18z"/>
<path d="M5278 4712 c-63 -36 -68 -57 -15 -71 23 -5 42 -9 44 -8 10 10 41 93
37 99 -8 12 -15 10 -66 -20z"/>
<path d="M5721 4538 c-7 -19 -5 -24 16 -32 29 -10 30 -9 35 24 4 35 -38 42
-51 8z"/>
<path d="M4168 3863 c7 -3 16 -2 19 1 4 3 -2 6 -13 5 -11 0 -14 -3 -6 -6z"/>
<path d="M2280 3605 c-24 -25 -29 -35 -18 -35 16 0 64 57 56 65 -2 3 -20 -11
-38 -30z"/>
<path d="M3420 3093 c0 -13 5 -23 10 -23 13 0 13 11 0 30 -8 12 -10 11 -10 -7z"/>
<path d="M3276 3078 c10 -33 14 -35 29 -14 17 23 11 36 -16 36 -16 0 -19 -4
-13 -22z"/>
<path d="M4560 2960 c0 -5 10 -10 23 -10 18 0 19 2 7 10 -19 13 -30 13 -30 0z"/>
<path d="M5973 2363 c9 -2 23 -2 30 0 6 3 -1 5 -18 5 -16 0 -22 -2 -12 -5z"/>
<path d="M6033 2353 c9 -2 25 -2 35 0 9 3 1 5 -18 5 -19 0 -27 -2 -17 -5z"/>
<path d="M2560 2285 c-22 -13 -16 -21 13 -16 4 1 17 -4 29 -10 18 -10 20 -9
15 6 -4 9 -7 21 -7 26 0 13 -21 11 -50 -6z"/>
<path d="M6896 2018 c-30 -42 -15 -46 61 -17 27 10 27 11 9 25 -28 20 -53 17
-70 -8z"/>
<path d="M6945 1980 c-18 -8 -17 -9 8 -9 15 -1 27 4 27 9 0 12 -8 12 -35 0z"/>
<path d="M6885 1950 c3 -5 8 -10 11 -10 2 0 4 5 4 10 0 6 -5 10 -11 10 -5 0
-7 -4 -4 -10z"/>
<path d="M6938 1913 c7 -3 16 -2 19 1 4 3 -2 6 -13 5 -11 0 -14 -3 -6 -6z"/>
<path d="M3064 7984 c3 -9 6 -29 6 -45 0 -17 6 -32 15 -36 24 -9 28 2 21 52
-6 36 -11 45 -28 45 -14 0 -18 -5 -14 -16z"/>
<path d="M3092 7881 c-9 -5 -11 -20 -6 -49 5 -32 11 -42 25 -42 17 0 18 5 13
43 -8 49 -14 59 -32 48z"/>
</g>
</svg>
