<?xml version="1.0" standalone="no"?>
<!DOCTYPE svg PUBLIC "-//W3C//DTD SVG 20010904//EN"
 "http://www.w3.org/TR/2001/REC-SVG-20010904/DTD/svg10.dtd">
<svg version="1.0" xmlns="http://www.w3.org/2000/svg"
 width="800.000000pt" height="800.000000pt" viewBox="0 0 800.000000 800.000000"
 preserveAspectRatio="xMidYMid meet">
<metadata>
Created by potrace 1.16, written by Peter Selinger 2001-2019
</metadata>
<g transform="translate(0.000000,800.000000) scale(0.100000,-0.100000)"
fill="#000000" stroke="none">
<path d="M0 7120 c0 -484 3 -880 8 -880 4 0 36 16 72 35 107 58 107 58 358
-117 119 -84 294 -204 387 -268 l170 -115 55 7 c30 4 76 5 102 2 57 -7 97 16
98 57 0 24 -5 27 -101 49 -55 13 -102 28 -105 32 -8 13 14 9 114 -16 85 -22
94 -23 98 -8 11 36 22 47 49 50 16 2 49 17 73 34 46 31 121 47 236 48 78 0 50
-8 -69 -20 -92 -10 -118 -17 -155 -40 -25 -16 -58 -32 -75 -36 -39 -9 -43 -16
-51 -92 -5 -46 -10 -62 -20 -58 -7 3 -14 0 -16 -5 -2 -6 -55 -11 -120 -13
-120 -3 -160 -15 -138 -41 8 -9 5 -23 -11 -49 -25 -42 -34 -46 -25 -11 5 21 3
24 -16 22 -38 -4 -33 28 7 47 21 10 33 22 29 28 -5 8 -1 9 12 4 29 -11 9 5
-96 75 -52 34 -220 150 -372 256 -309 215 -311 216 -403 171 -40 -20 -45 -26
-46 -57 -1 -20 -5 -88 -9 -151 l-7 -115 -1 142 c-2 122 -4 142 -17 137 -12 -5
-15 -32 -15 -158 l0 -153 49 -39 c33 -26 66 -68 99 -124 l50 -85 -36 -7 c-55
-10 -152 -9 -127 2 11 5 46 9 78 9 31 1 57 4 57 9 -1 22 -91 149 -128 180
l-42 35 2 -793 3 -793 150 -94 c154 -96 216 -145 197 -157 -6 -4 -16 3 -22 14
-11 21 -141 110 -160 110 -6 0 -10 -99 -10 -271 0 -177 3 -268 10 -264 13 8
13 -1 -2 -28 -6 -12 -15 -38 -19 -57 -4 -19 -7 117 -6 303 l1 338 -60 38 c-32
20 -65 40 -71 45 -10 6 -13 -126 -13 -646 l0 -654 40 4 c26 3 40 9 40 18 0 17
17 19 22 2 12 -34 292 48 475 140 57 28 65 30 138 37 50 4 50 4 13 -7 l-37
-11 -6 -76 c-9 -103 -9 -104 -45 -96 -22 5 -40 1 -65 -15 -19 -12 -35 -26 -35
-31 0 -6 -5 -7 -10 -4 -6 4 -15 -7 -21 -24 -6 -17 -17 -31 -25 -31 -18 0 -18
-14 2 -52 17 -34 7 -78 -19 -78 -11 0 -11 -9 -3 -45 6 -25 16 -45 22 -45 21 0
23 -28 3 -53 -10 -14 -19 -33 -19 -41 0 -26 -42 -76 -80 -96 -38 -20 -77 -74
-60 -85 5 -3 10 -15 10 -26 0 -44 65 2 72 51 2 17 10 26 26 28 20 3 22 -1 22
-37 0 -38 -2 -41 -23 -36 -16 4 -29 -1 -47 -19 -13 -15 -31 -26 -41 -26 -10 0
-20 -4 -24 -10 -3 -5 -13 -6 -21 -3 -42 16 16 147 78 179 39 20 67 53 68 77 0
11 9 31 21 45 21 26 21 27 1 30 -16 2 -20 13 -25 59 -5 49 -3 58 16 73 21 18
21 19 4 54 -31 66 -20 88 68 142 34 20 71 34 90 34 28 0 33 4 39 31 3 17 6 50
6 73 0 37 -3 42 -22 41 -13 0 -41 -10 -62 -23 -22 -13 -106 -47 -186 -77 -113
-41 -173 -56 -273 -70 l-127 -18 0 -1484 0 -1483 699 0 c658 0 700 1 704 18 4
16 5 16 6 0 1 -17 29 -18 449 -18 335 0 451 3 460 12 9 9 12 9 12 0 0 -9 427
-12 1890 -12 1042 0 1890 4 1890 9 0 4 -43 131 -95 280 -52 150 -95 278 -95
284 0 32 25 -33 115 -291 l98 -282 147 0 147 0 6 61 c3 34 10 66 16 72 14 14
14 10 0 -53 -8 -39 -8 -54 1 -65 11 -13 119 -15 781 -15 l769 0 0 4000 0 4000
-1435 0 -1435 0 0 -45 0 -45 -37 -2 c-21 -1 -45 -2 -53 -4 -8 -1 -32 -2 -52
-3 -28 -1 -48 -10 -77 -36 -24 -22 -49 -35 -65 -35 -16 0 -25 4 -21 10 3 6 16
10 29 10 12 0 37 15 56 35 33 34 35 35 117 35 l83 0 0 40 0 40 -315 0 c-189 0
-315 -4 -315 -9 0 -6 11 -56 25 -113 22 -90 25 -114 18 -193 -4 -49 -7 -101
-5 -115 4 -45 45 -180 54 -180 5 0 7 -4 4 -9 -8 -12 103 -365 115 -369 5 -2 7
-7 4 -12 -3 -4 10 -48 29 -97 30 -80 36 -88 62 -91 30 -4 44 -17 43 -42 0 -10
-5 -8 -16 8 -16 22 -43 30 -43 12 0 -5 9 -33 20 -62 11 -29 20 -65 20 -80 0
-16 5 -28 10 -28 6 0 8 -11 4 -26 -4 -16 -2 -29 5 -34 7 -4 21 -43 32 -86 12
-43 25 -84 31 -91 7 -9 -14 -12 -85 -15 -104 -3 -127 -1 -127 13 0 5 41 9 90
9 56 0 90 4 90 10 0 20 -33 145 -40 150 -11 8 -30 71 -30 100 0 31 -28 118
-41 126 -5 3 -6 -2 -3 -10 4 -11 0 -16 -10 -16 -9 0 -16 7 -16 15 0 11 -7 14
-25 9 -15 -4 -25 -2 -25 5 0 6 10 11 23 11 51 1 51 10 3 141 -33 93 -49 123
-60 121 -22 -4 -20 15 2 21 14 4 13 6 -7 13 -19 6 -21 9 -9 13 13 5 7 31 -38
176 -29 94 -62 202 -74 242 -17 57 -26 73 -43 76 -19 4 -18 4 5 6 24 1 26 5
32 59 11 94 9 123 -12 207 -11 44 -23 92 -26 108 l-6 27 -2230 0 -2230 0 0
-880z m517 648 c-2 -13 -4 -5 -4 17 -1 22 1 32 4 23 2 -10 2 -28 0 -40z m4178
-8 c7 -11 -3 -15 -52 -24 -28 -5 -33 -3 -33 14 0 17 7 20 39 20 22 0 43 -5 46
-10z m-2065 -105 c0 -9 -6 -12 -15 -9 -8 4 -15 10 -15 15 0 5 7 9 15 9 8 0 15
-7 15 -15z m770 -115 c0 -5 -11 -10 -24 -10 -14 0 -28 5 -31 10 -4 6 7 10 24
10 17 0 31 -4 31 -10z m567 -247 c-2 -38 -3 -7 -3 67 0 74 1 105 3 68 2 -38 2
-98 0 -135z m-1349 50 c-9 -10 -18 -25 -21 -33 -3 -9 -6 -4 -6 11 -1 29 6 39
27 39 13 0 13 -2 0 -17z m1502 -98 c0 -14 -4 -25 -10 -25 -5 0 -10 11 -10 25
0 14 5 25 10 25 6 0 10 -11 10 -25z m0 -67 c0 -19 -2 -20 -10 -8 -13 19 -13
30 0 30 6 0 10 -10 10 -22z m30 -54 c0 -8 -4 -12 -10 -9 -5 3 -10 13 -10 21 0
8 5 12 10 9 6 -3 10 -13 10 -21z m-3 -71 c-3 -10 -5 -4 -5 12 0 17 2 24 5 18
2 -7 2 -21 0 -30z m469 -20 c-11 -11 -24 9 -18 29 l5 22 9 -24 c5 -12 6 -25 4
-27z m-4129 -25 c-2 -13 -4 -5 -4 17 -1 22 1 32 4 23 2 -10 2 -28 0 -40z
m3673 -8 c0 -11 -4 -20 -10 -20 -5 0 -10 9 -10 20 0 11 5 20 10 20 6 0 10 -9
10 -20z m-1700 -15 c0 -8 -4 -15 -10 -15 -5 0 -10 7 -10 15 0 8 5 15 10 15 6
0 10 -7 10 -15z m1188 -32 c-26 -2 -71 -2 -100 0 -29 2 -8 3 47 3 55 0 79 -1
53 -3z m119 1 c-3 -3 -12 -4 -19 -1 -8 3 -5 6 6 6 11 1 17 -2 13 -5z m1756
-155 c33 -38 47 -63 52 -95 6 -44 6 -44 48 -44 23 0 79 -3 125 -7 77 -6 82 -7
82 -29 0 -12 4 -33 9 -46 10 -27 3 -78 -10 -78 -5 0 -9 29 -9 64 l0 63 -52 7
c-29 3 -87 6 -129 6 l-76 0 -6 53 c-6 47 -12 57 -62 105 -30 30 -55 58 -55 63
0 18 38 -10 83 -62z m-1054 27 c7 -9 8 -17 3 -20 -6 -3 -12 0 -15 7 -3 9 -17
12 -39 10 -25 -3 -29 -2 -18 6 21 15 55 13 69 -3z m-1854 -33 c-27 -3 -55 -9
-62 -15 -10 -8 -13 -6 -13 6 0 13 11 16 63 14 60 -2 60 -2 12 -5z m-89 -22
c-3 -5 -21 -12 -41 -15 -19 -4 -68 -29 -109 -57 -62 -42 -82 -63 -115 -119
-38 -64 -41 -74 -41 -144 0 -42 -3 -76 -8 -76 -4 0 -6 37 -4 83 3 73 8 89 41
146 28 51 51 76 105 114 68 48 123 75 159 76 10 1 16 -3 13 -8z m1484 -10 c0
-9 -24 -21 -42 -21 -6 0 -6 6 2 15 14 16 40 20 40 6z m-3533 -43 c-3 -8 -6 -5
-6 6 -1 11 2 17 5 13 3 -3 4 -12 1 -19z m2163 8 c0 -8 9 -21 21 -29 13 -10 16
-17 10 -22 -19 -11 7 -45 34 -45 15 0 31 -9 40 -23 14 -22 19 -23 77 -15 45 6
64 5 69 -4 10 -15 89 19 89 39 0 11 4 12 21 1 12 -7 30 -18 41 -24 28 -16 290
-276 284 -282 -3 -2 -64 52 -137 122 -127 122 -165 146 -134 86 8 -16 11 -31
7 -34 -5 -3 -16 10 -25 29 -9 19 -21 35 -27 35 -5 0 -10 9 -10 20 0 23 -4 24
-33 8 -12 -7 -66 -13 -119 -14 -93 -2 -98 -1 -113 23 -13 19 -22 23 -40 19
-21 -5 -27 0 -44 38 -28 65 -34 86 -22 86 6 0 11 -6 11 -14z m2310 -46 c0 -12
-8 -12 -35 0 -18 8 -17 9 8 9 15 1 27 -3 27 -9z m-782 -125 c0 -18 -6 -25 -19
-25 -22 0 -23 4 -9 31 15 26 28 24 28 -6z m-2018 -180 c0 -8 -7 -15 -16 -15
-14 0 -14 3 -4 15 7 8 14 15 16 15 2 0 4 -7 4 -15z m1804 -2 c-4 -10 -8 -75
-10 -145 -1 -69 -5 -136 -9 -147 -4 -12 -2 -21 4 -21 12 0 15 -79 5 -129 -11
-54 -23 -23 -19 47 2 37 2 60 -1 51 -3 -10 -13 -19 -23 -22 -11 -3 -25 -28
-40 -73 -28 -83 -46 -115 -35 -64 4 19 7 45 8 58 1 12 4 22 8 22 3 0 12 16 18
35 6 19 18 35 26 35 27 0 37 54 39 203 l2 149 -161 -3 c-149 -2 -162 -4 -179
-23 l-19 -21 5 23 6 23 -100 -7 c-70 -5 -99 -3 -99 4 0 8 55 12 173 15 94 1
225 4 291 5 109 2 118 1 110 -15z m441 8 l40 -9 -50 0 c-27 -1 -68 3 -90 7
l-40 9 50 0 c28 1 68 -3 90 -7z m233 -8 c-21 -2 -55 -2 -75 0 -21 2 -4 4 37 4
41 0 58 -2 38 -4z m295 -20 c-7 -2 -19 -2 -25 0 -7 3 -2 5 12 5 14 0 19 -2 13
-5z m-2733 -34 c-7 -11 -14 -19 -16 -16 -7 7 7 37 17 37 6 0 5 -9 -1 -21z
m1470 7 c0 -8 -4 -18 -10 -21 -5 -3 -10 3 -10 14 0 12 5 21 10 21 6 0 10 -6
10 -14z m-30 -5 c0 -5 -7 -11 -15 -15 -15 -5 -20 5 -8 17 9 10 23 9 23 -2z
m-1469 -64 c-8 -8 -11 -7 -11 4 0 20 13 34 18 19 3 -7 -1 -17 -7 -23z m2797
-89 c11 -38 16 -68 11 -68 -10 0 -48 121 -41 133 6 12 8 8 30 -65z m-3142 35
c-10 -10 -19 5 -10 18 6 11 8 11 12 0 2 -7 1 -15 -2 -18z m312 -33 c-20 -17
-40 -19 -158 -20 -74 0 -140 -4 -145 -8 -6 -4 -19 -20 -29 -35 -9 -16 -20 -26
-23 -23 -3 3 2 17 11 30 9 14 16 34 16 46 0 11 5 20 10 20 6 0 10 -5 10 -10 0
-7 50 -10 142 -8 l143 3 20 31 c17 26 21 28 23 12 2 -10 -7 -27 -20 -38z m926
-80 c22 0 37 -3 33 -6 -3 -4 -63 -6 -133 -5 -106 1 -125 -1 -121 -13 3 -8 -1
-20 -9 -27 -13 -11 -14 -9 -9 14 6 23 4 27 -16 28 l-24 1 23 6 c13 4 67 6 120
5 53 -1 115 -2 136 -3z m1906 -69 c10 -39 21 -98 25 -131 4 -33 11 -60 16 -60
6 0 19 -9 31 -20 l22 -20 -27 0 c-15 0 -27 -3 -27 -7 0 -5 9 -71 19 -148 18
-134 19 -156 4 -142 -4 5 -36 224 -43 298 0 3 -40 3 -90 1 -62 -3 -90 -1 -90
7 0 7 25 11 69 11 38 0 76 3 85 6 21 8 20 48 -4 163 -11 52 -20 101 -20 109 0
30 12 3 30 -67z m-1617 62 c-7 -2 -19 -2 -25 0 -7 3 -2 5 12 5 14 0 19 -2 13
-5z m107 -3 c11 -7 2 -10 -32 -10 -27 0 -48 5 -48 10 0 13 60 13 80 0z m696
-14 c9 -18 8 -32 -4 -57 -8 -19 -16 -29 -19 -22 -2 7 1 22 7 33 16 31 4 37
-30 16 -37 -22 -38 -11 -2 25 33 35 34 35 48 5z m841 -8 c-3 -8 -6 -5 -6 6 -1
11 2 17 5 13 3 -3 4 -12 1 -19z m351 -23 c24 -49 28 -89 12 -130 -11 -30 6
-176 22 -186 15 -10 -21 -20 -47 -13 -17 4 -26 0 -35 -15 -6 -12 -8 -21 -4
-21 3 0 2 -6 -4 -12 -5 -7 -13 -33 -17 -57 -7 -42 -6 -45 41 -92 26 -27 46
-51 43 -54 -3 -2 -24 14 -47 37 -23 22 -42 36 -42 30 0 -7 -5 -12 -11 -12 -5
0 -7 5 -3 11 8 14 -116 141 -133 135 -12 -5 -23 15 -23 44 0 23 23 42 44 34
23 -9 20 -23 -4 -17 -39 10 -20 -24 48 -88 l67 -63 6 49 c8 74 26 105 60 105
l28 0 -1 98 c0 53 0 114 1 134 1 21 -7 55 -19 77 -22 44 -24 51 -12 51 4 0 18
-20 30 -45z m-3578 14 c-7 -11 -14 -19 -16 -16 -7 7 7 37 17 37 6 0 5 -9 -1
-21z m-40 -15 c0 -3 -6 -12 -14 -19 -12 -12 -15 -12 -19 0 -3 7 -1 16 6 19 17
7 27 7 27 0z m1300 -33 c8 -29 -1 -43 -15 -21 -3 6 -10 10 -16 10 -5 0 0 -9
12 -21 23 -23 18 -39 -5 -20 -11 9 -20 10 -35 1 -25 -13 -26 -7 -5 25 15 23
15 25 0 25 -9 0 -16 5 -16 10 0 6 11 10 24 10 14 0 28 5 31 11 9 14 14 8 25
-30z m2075 -192 c17 -4 69 -7 118 -8 55 -1 87 -5 87 -12 0 -7 -35 -10 -110 -7
-67 2 -111 -1 -114 -7 -3 -10 -87 244 -85 260 1 6 18 -42 38 -105 35 -108 39
-115 66 -121z m-4185 91 c0 -5 -2 -10 -4 -10 -3 0 -8 5 -11 10 -3 6 -1 10 4
10 6 0 11 -4 11 -10z m3038 -59 c2 -43 -13 -63 -23 -32 -7 22 3 71 14 71 4 0
8 -18 9 -39z m-3008 -76 c-7 -9 -16 -12 -19 -8 -4 4 -10 11 -15 16 -5 4 3 7
19 7 24 0 26 -2 15 -15z m3677 -44 c3 -13 10 -18 21 -13 15 5 15 3 4 -10 -11
-14 -11 -21 3 -42 9 -14 23 -22 30 -20 9 4 15 -4 17 -23 2 -16 10 -29 19 -31
12 -2 18 8 23 45 6 42 4 50 -15 66 -24 20 -38 15 -20 -6 16 -20 -14 -46 -32
-28 -9 9 -9 14 0 19 6 4 11 16 10 27 -2 22 1 22 51 10 32 -8 33 -8 27 -54 -4
-25 -9 -53 -11 -62 -3 -9 2 -19 11 -23 19 -7 20 -36 0 -36 -8 0 -15 4 -15 9 0
5 -10 11 -22 13 -23 3 -138 141 -138 166 0 20 31 14 37 -7z m-3712 -61 c3 -5
-1 -10 -9 -10 -9 0 -16 5 -16 10 0 6 4 10 9 10 6 0 13 -4 16 -10z m3485 0 c0
-4 -6 -10 -12 -12 -22 -6 -158 3 -154 11 6 10 166 11 166 1z m-694 -45 c4 -8
9 -13 13 -10 4 2 27 -16 51 -40 42 -43 47 -45 101 -45 37 0 59 5 62 13 4 9 7
9 14 0 6 -9 117 -12 438 -14 452 -1 615 -7 615 -20 0 -4 -139 -5 -310 -2
l-310 6 0 -22 c0 -11 -4 -21 -10 -21 -5 0 -10 9 -10 20 0 19 -7 20 -205 20
l-205 0 0 -40 c0 -22 -4 -40 -10 -40 -5 0 -10 18 -10 40 l0 40 -46 0 -45 0 37
-45 c20 -25 34 -48 30 -52 -7 -7 -82 77 -78 89 3 12 -171 10 -207 -3 -34 -12
-50 -34 -62 -86 -7 -32 -6 -33 27 -33 19 0 34 -4 34 -10 0 -5 -4 -10 -10 -10
-5 0 -10 -10 -10 -21 0 -22 -38 -99 -55 -111 -14 -10 -185 -10 -185 0 0 5 33
9 74 9 99 1 141 30 148 103 2 19 -2 26 -19 28 -28 4 -30 30 -5 89 13 33 25 46
49 54 43 14 76 56 68 87 -9 37 18 61 31 27z m674 -50 c0 -14 -4 -25 -10 -25
-11 0 -14 33 -3 43 11 11 13 8 13 -18z m-1304 -62 c-11 -11 -17 4 -9 23 7 18
8 18 11 1 2 -10 1 -21 -2 -24z m2358 -60 c-13 -25 -24 -57 -24 -69 0 -42 -18
-35 -22 9 -3 23 -8 51 -13 62 -8 19 -8 19 12 2 20 -17 21 -17 33 13 7 16 18
30 25 30 8 0 4 -16 -11 -47z m-764 2 c0 -19 -4 -35 -10 -35 -5 0 -10 16 -10
35 0 19 5 35 10 35 6 0 10 -16 10 -35z m630 -88 c0 -18 7 -30 19 -35 18 -6 18
-9 5 -32 -14 -23 -14 -23 -9 -2 5 16 2 22 -9 22 -9 0 -16 8 -16 18 0 9 -5 24
-10 32 -9 13 -13 12 -26 -5 -16 -20 -16 -20 -11 2 5 22 4 22 -25 7 -16 -9 -32
-14 -34 -11 -8 8 26 30 59 36 29 7 32 10 29 42 l-2 34 15 -40 c8 -22 15 -53
15 -68z m-925 83 c-3 -5 -11 -10 -16 -10 -6 0 -7 5 -4 10 3 6 11 10 16 10 6 0
7 -4 4 -10z m519 -186 c32 -102 55 -188 52 -191 -9 -9 -9 -10 -69 184 -62 197
-61 193 -49 193 5 0 35 -84 66 -186z m-944 139 c0 -9 12 -29 27 -45 34 -36 23
-48 -16 -17 -29 23 -44 79 -21 79 6 0 10 -8 10 -17z m1574 -74 c48 -45 84 -84
82 -87 -7 -6 -176 148 -176 159 0 15 6 11 94 -72z m-1214 53 c0 -4 -12 -13
-27 -20 -40 -18 -71 -37 -98 -60 -24 -21 -59 -42 -69 -42 -16 0 -3 18 21 29
15 7 33 21 41 32 7 10 19 19 26 19 6 0 27 11 46 25 34 25 60 32 60 17z m70 -2
c0 -5 -9 -10 -21 -10 -11 0 -17 5 -14 10 3 6 13 10 21 10 8 0 14 -4 14 -10z
m290 -35 c0 -19 -4 -35 -10 -35 -5 0 -10 16 -10 35 0 19 5 35 10 35 6 0 10
-16 10 -35z m726 -82 c-3 -3 -13 -2 -23 2 -17 8 -17 8 0 12 11 3 18 15 19 36
1 29 2 28 5 -7 3 -21 2 -40 -1 -43z m-344 37 c-2 -16 -8 -30 -13 -30 -10 0
-12 43 -2 53 14 14 19 6 15 -23z m-4275 -37 c-3 -10 -5 -4 -5 12 0 17 2 24 5
18 2 -7 2 -21 0 -30z m3893 12 c0 -14 -4 -25 -10 -25 -5 0 -10 11 -10 25 0 14
5 25 10 25 6 0 10 -11 10 -25z m-741 -27 c-7 -13 -14 -18 -16 -11 -3 7 1 22 8
35 7 13 14 18 16 11 3 -7 -1 -22 -8 -35z m116 32 c4 -6 15 -8 26 -5 23 8 26
-10 2 -19 -10 -4 -25 1 -37 14 -11 11 -15 20 -9 20 7 0 15 -5 18 -10z m422
-125 c39 -44 94 -104 122 -134 48 -50 51 -52 51 -27 0 14 5 26 10 26 6 0 10
-15 10 -34 0 -19 3 -41 6 -50 13 -34 -15 -13 -72 54 -60 71 -74 81 -74 55 0
-8 -4 -15 -10 -15 -5 0 -10 9 -10 20 0 11 5 20 12 20 7 0 6 5 -4 13 -37 29
-147 161 -141 169 3 6 10 4 17 -4 7 -7 44 -49 83 -93z m900 93 c6 -7 13 -32
17 -55 5 -38 4 -43 -12 -43 -24 0 -51 30 -54 61 -2 19 1 24 20 23 24 -1 30 11
10 19 -8 4 -9 6 -2 6 6 1 16 -5 21 -11z m-697 -17 c0 -24 -13 -70 -19 -66 -10
6 -1 75 10 75 5 0 9 -4 9 -9z m74 -19 c-16 -13 -19 -23 -13 -45 4 -15 4 -27
-1 -27 -5 0 -12 14 -15 32 -6 24 -3 35 11 45 26 19 42 15 18 -5z m412 2 c-3
-9 -6 -25 -6 -37 0 -17 -2 -19 -9 -8 -5 8 -7 20 -4 28 3 9 -3 13 -21 13 -14 0
-26 5 -26 10 0 6 16 10 36 10 29 0 35 -3 30 -16z m144 6 c0 -6 -26 -10 -60
-10 -33 0 -60 4 -60 8 0 4 27 9 60 10 36 2 60 -2 60 -8z m178 0 c37 -1 43 -3
29 -11 -9 -6 -36 -11 -59 -12 -34 -2 -43 2 -46 17 -3 14 0 17 13 12 9 -3 38
-6 63 -6z m-1362 -32 c9 -18 30 -52 46 -76 16 -23 28 -48 26 -54 -5 -14 -58
60 -58 79 0 7 -4 13 -8 13 -8 0 -16 14 -40 63 -2 4 1 7 7 7 6 0 18 -15 27 -32z
m1470 12 c27 0 78 -44 72 -62 -3 -8 -11 -2 -22 15 -10 15 -27 27 -37 27 -27 0
-69 22 -63 32 4 6 11 5 17 -1 6 -6 21 -11 33 -11z m-2053 -62 c-8 -97 -13 -99
-13 -5 0 43 4 77 9 77 6 0 7 -30 4 -72z m376 30 c-1 -26 -4 -33 -6 -18 -4 23
-8 25 -41 22 -20 -3 -43 -9 -50 -15 -7 -5 -15 -7 -19 -3 -13 13 16 28 61 33
25 3 46 10 46 14 0 5 2 9 5 9 3 0 4 -19 4 -42z m611 7 c0 -14 -4 -25 -10 -25
-5 0 -10 11 -10 25 0 14 5 25 10 25 6 0 10 -11 10 -25z m-2323 -177 c-2 -35
-3 -7 -3 62 0 69 1 97 3 63 2 -35 2 -91 0 -125z m3538 119 c22 -34 53 -90 69
-124 l29 -63 147 0 c103 0 150 4 159 13 10 10 15 8 27 -8 15 -20 13 -20 -140
-26 -86 -3 -158 -8 -162 -11 -3 -3 6 -24 20 -47 14 -22 26 -45 26 -51 0 -5 7
-10 15 -10 11 0 15 12 15 44 0 25 5 48 10 51 6 4 10 -15 10 -49 l0 -56 -32 0
c-30 1 -35 6 -57 53 -14 28 -34 60 -46 72 -28 27 -58 75 -51 83 3 3 6 -1 6 -8
0 -7 2 -11 5 -8 10 10 -39 94 -73 126 -20 17 -30 32 -23 32 8 0 9 5 1 19 -12
23 -13 31 -2 30 4 0 25 -28 47 -62z m-1052 3 c16 0 18 -3 8 -9 -11 -7 -10 -11
5 -19 10 -6 16 -14 11 -18 -4 -4 -16 1 -27 11 -18 16 -20 16 -20 2 0 -10 -4
-17 -10 -17 -11 0 -13 30 -3 56 4 11 8 13 11 6 2 -7 13 -12 25 -12z m477 -46
c11 -26 20 -52 20 -59 0 -22 88 -92 208 -167 62 -38 115 -68 118 -66 2 3 5 52
6 109 1 67 4 93 8 74 11 -45 11 -225 1 -225 -5 0 -11 4 -13 8 -1 4 -61 43
-133 87 -71 43 -131 83 -133 87 -2 4 -7 8 -12 8 -4 0 12 -58 36 -130 24 -71
44 -136 44 -145 0 -12 14 -15 80 -15 47 0 80 -4 80 -10 0 -6 -30 -10 -70 -10
-38 0 -70 -4 -70 -9 0 -5 5 -32 12 -60 l11 -51 106 -1 c124 -1 215 1 219 6 2
1 6 51 9 109 6 99 4 109 -15 136 -12 16 -22 32 -22 35 0 4 -21 35 -46 71 -55
77 -45 87 11 12 l40 -53 3 53 c2 28 8 52 14 52 7 0 8 -26 3 -80 -5 -56 -4 -80
4 -80 7 0 11 28 11 79 0 44 5 83 10 86 6 4 10 -30 10 -96 0 -101 0 -102 36
-150 20 -27 31 -49 26 -49 -6 0 -21 15 -34 32 l-23 33 -7 -40 c-4 -22 -7 -66
-7 -97 l-1 -58 44 0 c53 0 51 -10 51 211 0 147 -2 169 -18 187 -14 15 -15 22
-6 28 7 4 15 2 17 -4 2 -7 10 -18 17 -26 10 -10 12 -49 10 -169 -3 -142 -2
-157 13 -157 9 0 27 -3 40 -6 22 -6 22 -5 22 95 0 68 4 101 11 101 8 0 10 -31
4 -110 -4 -66 -3 -110 3 -110 5 0 14 -10 20 -22 8 -18 11 7 11 110 1 81 5 132
11 132 6 0 10 -16 10 -35 0 -30 3 -35 24 -35 14 0 28 5 32 12 5 7 3 8 -6 3
-10 -6 -11 -1 -6 21 10 37 15 42 25 25 7 -11 15 -11 41 -2 18 6 35 11 38 11 2
0 2 -27 0 -60 l-4 -60 34 0 34 0 -7 60 c-5 41 -4 60 4 60 6 0 12 -17 12 -37 2
-64 13 -96 33 -99 34 -5 39 -19 37 -106 -1 -45 -5 -52 -68 -116 -49 -50 -67
-75 -65 -90 2 -12 -1 -22 -6 -22 -6 0 -8 9 -5 20 4 15 0 20 -13 21 -79 5 -113
-21 -114 -83 0 -47 20 -50 64 -10 l31 27 -25 -29 c-14 -16 -38 -34 -55 -41
-51 -22 -76 -57 -78 -110 -2 -60 19 -80 55 -50 22 19 21 18 -2 -8 -13 -15 -30
-25 -37 -23 -7 3 -13 1 -13 -4 0 -6 -6 -10 -14 -10 -9 0 -12 8 -8 25 2 15 0
25 -7 25 -6 0 -17 -11 -23 -25 -6 -14 -14 -25 -18 -25 -18 0 -40 -29 -45 -62
-6 -32 -5 -38 11 -38 16 0 15 -2 -4 -20 -12 -12 -22 -27 -22 -35 0 -8 -5 -15
-11 -15 -6 0 -8 9 -4 20 5 17 2 20 -26 20 -34 0 -30 15 5 22 10 1 22 13 27 26
8 21 6 22 -36 22 l-44 0 6 -35 c4 -23 2 -35 -6 -35 -6 0 -11 14 -11 30 0 17
-4 30 -10 30 -5 0 -10 -9 -10 -20 0 -11 -4 -20 -10 -20 -5 0 -10 9 -10 20 0
11 -5 20 -11 20 -6 0 -9 7 -5 15 3 8 1 15 -5 15 -6 0 -7 5 -4 10 8 12 7 12
-31 1 -16 -5 -48 -5 -70 -1 l-39 8 35 2 35 2 -30 8 c-16 4 -54 8 -82 9 -47 1
-53 -1 -53 -19 0 -18 7 -20 60 -20 33 0 60 -4 60 -10 0 -6 -29 -10 -66 -10
l-66 0 5 -28 c5 -27 3 -29 -24 -30 -35 -1 -37 7 -8 32 18 15 19 20 8 28 -11 7
-11 11 -1 15 6 2 12 13 12 24 0 15 -7 19 -39 19 -41 0 -51 -11 -51 -56 0 -14
4 -22 10 -19 6 4 10 -8 10 -27 0 -27 -4 -34 -20 -35 -17 -2 -20 4 -20 39 l0
40 -95 -4 -95 -3 0 48 0 47 -118 0 c-128 0 -142 5 -142 51 0 26 -3 28 -52 33
-29 3 -83 7 -120 9 l-67 3 -10 -42 c-6 -24 -11 -45 -11 -48 0 -10 68 -76 79
-76 6 0 20 6 31 12 16 11 22 9 34 -7 8 -11 12 -23 9 -28 -3 -5 -11 0 -18 10
-10 13 -16 15 -26 6 -28 -22 -54 -20 -65 7 l-11 25 -15 -29 -16 -30 -7 71 c-4
40 -4 85 0 102 6 27 4 31 -14 31 -12 0 -21 5 -21 10 0 7 26 9 75 5 41 -3 109
-7 150 -10 73 -6 75 -5 75 17 0 13 7 32 15 42 8 11 15 33 15 49 0 16 4 26 10
22 6 -3 57 -14 115 -24 l105 -18 0 54 c0 29 5 53 10 53 6 0 10 -24 10 -54 0
-66 0 -66 163 -66 l118 0 -3 62 c-2 47 -7 63 -18 65 -8 1 -68 5 -132 8 -65 4
-116 11 -113 15 3 4 59 6 125 3 136 -7 126 -13 114 81 l-7 46 -123 0 -124 0 0
-75 c0 -43 -4 -75 -10 -75 -6 0 -10 32 -10 75 l0 75 -295 0 c-198 0 -295 3
-295 10 0 7 95 10 291 9 159 -1 293 2 296 5 4 4 9 71 11 151 l4 144 -36 49
c-35 49 -46 82 -26 82 6 0 10 -7 10 -16 0 -9 11 -29 25 -46 l25 -30 0 51 c0
28 5 51 10 51 6 0 10 -30 10 -69 l0 -68 60 -64 59 -64 1 58 c0 31 5 57 10 57
6 0 10 -31 10 -73 0 -72 1 -73 40 -112 l40 -39 -16 54 c-64 224 -139 410 -163
408 -36 -3 -62 3 -56 12 3 5 20 7 37 3 28 -6 31 -4 23 13 -11 28 -18 64 -12
64 4 0 15 -21 27 -46z m78 14 c-3 -7 -13 -15 -24 -17 -16 -3 -17 -1 -5 13 16
19 34 21 29 4z m-1028 -68 c0 -5 -4 -10 -10 -10 -5 0 -10 5 -10 10 0 6 5 10
10 10 6 0 10 -4 10 -10z m307 -55 c-2 -42 -11 -59 -19 -34 -6 18 3 79 12 79 5
0 8 -20 7 -45z m453 -11 c0 -19 -4 -34 -10 -34 -5 0 -10 10 -10 23 0 12 -3 33
-7 47 -6 22 -5 24 10 11 10 -8 17 -28 17 -47z m-725 15 c19 -36 12 -52 -10
-23 -13 17 -14 -6 -15 -198 0 -133 -4 -219 -10 -223 -7 -4 -10 63 -10 194 l0
201 -170 0 c-93 0 -170 3 -170 8 0 4 12 7 28 8 15 0 91 1 170 2 l142 2 0 30
c0 40 25 39 45 -1z m-1753 -245 c-2 -159 0 -224 7 -219 6 3 11 2 11 -3 0 -5
22 -23 49 -39 41 -26 56 -30 94 -26 43 5 46 4 61 -25 18 -35 45 -34 47 2 2 19
2 19 6 -2 3 -14 -3 -32 -13 -43 -16 -17 -16 -19 -1 -19 10 0 17 -4 17 -10 0
-5 -9 -10 -20 -10 -26 0 -25 -6 6 -47 l26 -34 -7 -211 c-5 -147 -11 -205 -18
-193 -5 10 -7 53 -3 104 4 47 7 134 7 192 1 96 -1 109 -21 137 -13 17 -20 38
-17 46 6 14 -8 16 -103 16 -73 0 -110 4 -110 11 0 7 34 10 105 7 58 -1 105 -2
105 0 0 2 -7 16 -15 32 -16 30 -57 42 -70 20 -3 -5 -33 8 -69 30 -35 22 -66
40 -70 40 -3 0 -6 -25 -6 -55 0 -30 -4 -55 -10 -55 -8 0 -20 552 -12 573 2 4
9 7 15 7 9 0 11 -56 9 -226z m598 206 c0 -5 -7 -10 -15 -10 -8 0 -15 -7 -15
-15 0 -8 -4 -15 -10 -15 -5 0 -10 7 -10 15 0 8 -7 15 -16 15 -8 0 -12 5 -9 10
3 6 22 10 41 10 19 0 34 -4 34 -10z m740 0 c0 -5 -13 -10 -30 -10 -16 0 -33 0
-37 -1 -4 0 -9 4 -11 10 -2 7 12 11 37 11 23 0 41 -4 41 -10z m1110 -4 c0 -3
-4 -8 -10 -11 -5 -3 -10 -1 -10 4 0 6 5 11 10 11 6 0 10 -2 10 -4z m-3795 -16
c-3 -5 -1 -10 4 -10 6 0 11 5 11 10 0 6 5 10 10 10 11 0 14 -33 4 -43 -4 -3
-16 0 -27 8 -12 9 -32 12 -51 8 -21 -4 -28 -2 -21 5 17 17 80 29 70 12z m3746
-19 c-64 -43 -103 -63 -99 -50 2 8 24 24 48 36 24 13 48 27 54 33 5 5 12 7 15
4 3 -4 -5 -14 -18 -23z m-4566 9 c3 -5 -1 -10 -10 -10 -9 0 -13 5 -10 10 3 6
8 10 10 10 2 0 7 -4 10 -10z m4135 -16 c0 -8 5 -14 11 -14 8 0 8 -5 -1 -15 -7
-8 -20 -15 -29 -15 -14 0 -17 -7 -13 -30 3 -18 0 -30 -7 -30 -6 0 -11 11 -11
25 0 27 -12 32 -29 12 -7 -10 -7 -17 0 -24 7 -7 7 -13 1 -17 -15 -9 -26 34
-13 47 6 6 11 19 11 29 0 10 5 18 11 18 6 0 9 6 6 14 -4 10 3 14 29 14 22 0
34 -5 34 -14z m-1197 -6 c-4 -7 -8 -16 -8 -20 0 -12 -15 -22 -15 -10 0 6 -7 9
-15 6 -8 -4 -15 -1 -15 5 0 6 7 11 15 11 8 0 15 5 15 10 0 6 7 10 16 10 10 0
12 -4 7 -12z m1507 -58 c0 -5 -4 -10 -9 -10 -6 0 -13 5 -16 10 -3 6 1 10 9 10
9 0 16 -4 16 -10z m-2755 -19 c3 -11 3 -31 -1 -45 -5 -21 -3 -26 14 -26 11 0
25 -6 31 -14 6 -7 41 -17 76 -21 36 -3 63 -10 60 -15 -6 -9 -55 -4 -112 10
-19 5 -35 4 -39 -1 -3 -5 -14 -9 -25 -9 -10 0 -19 -7 -19 -15 0 -8 -4 -15 -10
-15 -5 0 -10 -7 -10 -15 0 -8 -18 -25 -41 -37 -35 -20 -39 -26 -35 -52 4 -16
6 -62 6 -102 l0 -74 105 0 c63 0 105 -4 105 -10 0 -6 -43 -10 -109 -10 -106 0
-110 -1 -114 -22 l-4 -23 -8 23 c-4 12 -16 22 -26 22 -11 0 -19 5 -19 10 0 6
8 10 19 10 23 0 31 35 31 139 0 75 1 76 34 98 37 24 46 52 46 137 0 65 30 103
45 57z m2711 -6 c-19 -14 -56 -21 -56 -10 0 7 41 24 60 24 11 0 10 -3 -4 -14z
m-942 -41 c9 -24 7 -34 -8 -34 -13 0 -26 20 -26 41 0 15 27 10 34 -7z m841
-24 c-20 -22 -35 -26 -35 -9 0 5 5 7 10 4 6 -3 10 1 10 9 0 9 7 16 17 16 14 0
14 -2 -2 -20z m-2306 -23 c29 0 31 -2 17 -13 -12 -9 -27 -9 -52 -2 -19 5 -44
6 -54 3 -11 -4 -20 -2 -20 3 0 18 16 23 45 16 16 -4 45 -7 64 -7z m2237 -29
c-9 -5 -25 -19 -36 -30 -11 -12 -23 -18 -27 -15 -3 4 11 22 33 41 21 19 41 29
43 24 2 -6 -4 -15 -13 -20z m-2736 -34 c22 -15 37 -30 34 -35 -3 -5 0 -9 7 -9
30 0 -4 -13 -37 -14 -44 -1 -69 23 -60 59 4 14 9 25 11 25 3 0 23 -12 45 -26z
m1180 -4 c0 -6 -45 -10 -116 -10 -74 0 -113 4 -109 10 4 6 53 10 116 10 66 0
109 -4 109 -10z m85 0 c3 -5 1 -10 -4 -10 -6 0 -11 -7 -11 -15 0 -8 -4 -15
-10 -15 -11 0 -14 33 -3 43 9 10 21 9 28 -3z m575 -9 c0 -6 -21 -11 -47 -11
-27 0 -99 -3 -160 -7 -80 -4 -113 -3 -113 5 0 12 37 15 213 20 70 2 107 -1
107 -7z m1180 -33 c0 -5 -11 -8 -24 -8 -18 0 -23 5 -23 25 0 23 0 24 23 7 13
-9 24 -20 24 -24z m-4140 -39 c0 -12 -57 -12 -64 0 -3 4 -3 10 -1 13 8 8 65
-4 65 -13z m2069 -103 c-9 -8 -10 -2 -5 29 3 22 7 47 8 55 1 8 3 -5 5 -29 3
-26 -1 -48 -8 -55z m-569 24 c0 -22 -4 -40 -10 -40 -5 0 -10 18 -10 40 0 22 5
40 10 40 6 0 10 -18 10 -40z m776 -53 c7 -22 7 -22 -28 -31 -17 -4 -28 -2 -28
4 0 5 9 10 20 10 25 0 25 7 0 45 -11 17 -20 35 -20 40 0 13 48 -45 56 -68z
m1223 69 c-2 -2 -100 -7 -218 -11 -150 -5 -212 -4 -207 3 4 7 80 11 218 12
116 0 210 -2 207 -4z m81 -6 c0 -5 -13 -10 -30 -10 -19 0 -30 -5 -30 -14 0 -7
-3 -34 -6 -60 l-7 -46 142 0 c87 0 141 -4 141 -10 0 -6 -80 -10 -217 -11 -120
0 -246 -2 -280 -6 -38 -3 -63 -1 -63 5 0 5 57 13 129 17 143 7 141 6 141 83 0
18 6 39 13 47 14 16 67 20 67 5z m98 -7 c-16 -2 -40 -2 -55 0 -16 2 -3 4 27 4
30 0 43 -2 28 -4z m-2608 -37 c0 -8 -4 -18 -10 -21 -5 -3 -10 3 -10 14 0 12 5
21 10 21 6 0 10 -6 10 -14z m430 -71 c0 -30 -4 -55 -10 -55 -5 0 -10 25 -10
55 0 30 5 55 10 55 6 0 10 -25 10 -55z m800 -24 c3 -1 -2 -6 -10 -11 -18 -12
-70 -13 -70 -2 0 21 25 25 80 13z m2035 -1 c4 -7 -85 -10 -259 -10 -171 0
-266 4 -266 10 0 6 93 10 259 10 163 0 262 -4 266 -10z m-1935 -10 c0 -13 -20
-13 -40 0 -12 8 -9 10 13 10 15 0 27 -4 27 -10z m747 -73 c4 -6 -4 -7 -22 -3
-22 6 -26 4 -22 -8 4 -9 2 -16 -3 -16 -16 0 -21 20 -8 33 13 15 44 11 55 -6z
m953 7 c0 -11 -5 -14 -16 -10 -9 3 -74 6 -145 6 -79 0 -129 4 -129 10 0 6 55
10 145 10 127 0 145 -2 145 -16z m-826 -19 c15 -8 34 -15 41 -15 7 0 13 -6 12
-12 -1 -39 4 -48 27 -48 14 0 27 -4 31 -9 3 -6 25 -13 49 -16 24 -4 56 -18 71
-31 15 -13 31 -21 35 -19 4 3 10 -9 14 -25 5 -28 7 -29 31 -18 14 6 25 16 25
22 0 6 5 3 11 -6 5 -10 17 -18 24 -18 8 0 15 -7 15 -15 0 -11 -6 -12 -22 -7
-32 12 -61 4 -54 -15 12 -30 -19 -6 -34 26 -18 40 -99 84 -185 100 -32 6 -60
11 -61 11 -1 0 -7 14 -13 30 -5 17 -17 30 -25 30 -9 0 -16 7 -16 15 0 8 -7 15
-16 15 -11 0 -15 -6 -11 -20 3 -11 1 -23 -5 -26 -5 -3 -7 -12 -4 -20 6 -15
-15 -19 -28 -6 -4 4 -11 7 -14 7 -16 0 -55 35 -48 42 4 4 13 1 19 -8 18 -24
38 -12 31 19 -5 25 -4 26 9 9 15 -18 15 -18 22 2 8 25 29 27 69 6z m-1524 -45
c12 -8 9 -10 -12 -10 -16 0 -28 5 -28 10 0 13 20 13 40 0z m1520 -26 c0 -8 -4
-12 -10 -9 -5 3 -10 13 -10 21 0 8 5 12 10 9 6 -3 10 -13 10 -21z m758 14 c23
-23 11 -30 -45 -24 -32 3 -84 5 -115 6 -45 0 -58 3 -58 15 0 12 18 15 103 15
67 0 107 -4 115 -12z m-1640 -12 c36 -19 63 -52 57 -71 -16 -49 -15 -48 -30
-35 -10 8 -15 9 -15 2 0 -6 5 -14 10 -17 6 -4 7 -11 4 -17 -6 -10 -83 117 -84
140 0 16 25 15 58 -2z m559 -48 c-3 -8 -6 -5 -6 6 -1 11 2 17 5 13 3 -3 4 -12
1 -19z m91 -12 c-41 -36 -50 -66 -19 -66 11 0 23 -4 26 -10 3 -6 -5 -10 -19
-10 -14 0 -28 -4 -31 -10 -3 -5 -11 -10 -16 -10 -6 0 -7 5 -4 10 3 6 -3 10
-14 10 -23 0 -27 -19 -8 -39 10 -11 9 -13 -2 -9 -8 2 -19 13 -25 24 -6 10 -12
21 -13 23 -2 2 -26 -8 -53 -23 -28 -15 -56 -26 -62 -24 -7 3 12 18 42 34 32
17 60 40 68 57 8 17 21 27 35 27 20 -1 20 -2 5 -11 -27 -15 -22 -39 7 -39 24
0 35 15 15 22 -12 4 78 78 94 78 6 -1 -6 -16 -26 -34z m202 18 c0 -8 -4 -12
-10 -9 -5 3 -10 10 -10 16 0 5 5 9 10 9 6 0 10 -7 10 -16z m55 6 c3 -5 2 -10
-4 -10 -5 0 -13 5 -16 10 -3 6 -2 10 4 10 5 0 13 -4 16 -10z m2078 -85 c-7
-38 -23 -57 -23 -28 0 16 -7 23 -27 26 -22 3 -21 4 5 3 36 -2 40 9 17 53 -8
16 -11 31 -8 35 13 13 41 -58 36 -89z m-2201 13 c3 -22 7 -23 76 -21 77 2 96
-10 35 -22 -42 -8 -186 -7 -209 2 -31 12 -11 22 35 16 48 -5 49 -5 44 21 -3
15 -1 26 5 26 6 0 12 -10 14 -22z m-1682 -58 c0 -40 -4 -70 -10 -70 -11 0 -14
123 -3 133 12 13 13 7 13 -63z m-1295 50 c-3 -5 -13 -10 -21 -10 -8 0 -12 5
-9 10 3 6 13 10 21 10 8 0 12 -4 9 -10z m-485 -42 c0 -6 -7 -5 -15 2 -8 7 -15
17 -15 22 0 6 7 5 15 -2 8 -7 15 -17 15 -22z m39 -44 c3 -16 1 -17 -13 -5 -19
16 -21 34 -3 29 6 -3 14 -13 16 -24z m2140 -26 l-1 -33 -11 28 c-10 26 -14 28
-49 22 -25 -5 -38 -3 -38 4 0 7 21 11 50 11 50 0 50 0 49 -32z m1145 -13 c30
-27 44 -33 63 -28 18 4 24 2 21 -7 -2 -7 -18 -14 -35 -15 -24 -2 -33 3 -42 22
-8 17 -18 23 -32 21 -15 -2 -24 4 -30 20 -13 33 10 28 55 -13z m-436 -45 c22
0 32 -5 32 -15 0 -8 -4 -15 -10 -15 -5 0 -10 5 -10 10 0 6 -10 8 -24 4 -19 -4
-30 2 -55 33 -41 50 -40 69 2 20 25 -29 39 -37 65 -37z m-2813 49 c11 -17 -1
-21 -15 -4 -8 9 -8 15 -2 15 6 0 14 -5 17 -11z m45 -44 c7 -8 8 -15 2 -15 -5
0 -15 7 -22 15 -7 8 -8 15 -2 15 5 0 15 -7 22 -15z m4350 5 c0 -5 -8 -10 -18
-10 -21 0 -58 -57 -53 -84 1 -11 -2 -16 -8 -12 -15 10 -14 39 4 62 20 27 19
34 -10 34 -14 0 -25 5 -25 10 0 6 25 10 55 10 30 0 55 -4 55 -10z m-1518 -50
c-4 -30 -3 -31 142 -101 80 -39 146 -74 146 -79 0 -10 -28 -3 -47 13 -7 5 -36
19 -65 31 -29 12 -83 39 -120 59 -37 21 -72 36 -78 32 -12 -8 -13 -55 -1 -55
5 0 14 -21 19 -47 7 -32 19 -53 36 -66 14 -10 26 -26 26 -35 0 -13 -4 -11 -20
6 -26 28 -34 28 -54 0 l-16 -23 5 25 c3 14 2 48 -3 75 -7 48 -9 50 -39 50 -17
0 -33 2 -36 5 -2 3 -7 28 -10 55 -6 46 -5 48 8 31 8 -11 15 -32 15 -48 0 -31
7 -34 35 -14 12 9 16 20 12 36 -4 15 2 32 15 51 28 37 36 37 30 -1z m1344 13
c-12 -13 -183 -17 -171 -4 9 9 162 21 174 14 2 -2 1 -6 -3 -10z m859 7 c-3 -5
-10 -10 -16 -10 -5 0 -9 5 -9 10 0 6 7 10 16 10 8 0 12 -4 9 -10z m-5002 -40
c-7 -8 -22 24 -16 34 4 5 10 1 13 -10 4 -10 6 -21 3 -24z m2498 -47 c-3 -82
-4 -81 52 -58 9 4 17 3 17 -3 0 -6 -16 -16 -35 -22 -24 -8 -35 -18 -35 -31 0
-10 -4 -19 -10 -19 -11 0 -14 202 -3 213 14 14 17 -7 14 -80z m-1111 67 c0 -5
-9 -10 -21 -10 -11 0 -17 5 -14 10 3 6 13 10 21 10 8 0 14 -4 14 -10z m100 0
c0 -5 -9 -10 -21 -10 -11 0 -17 5 -14 10 3 6 13 10 21 10 8 0 14 -4 14 -10z
m610 0 c0 -5 -7 -10 -15 -10 -8 0 -15 5 -15 10 0 6 7 10 15 10 8 0 15 -4 15
-10z m540 -5 c0 -8 -4 -15 -10 -15 -5 0 -10 7 -10 15 0 8 5 15 10 15 6 0 10
-7 10 -15z m1885 5 c4 -6 -12 -10 -39 -10 -25 0 -46 5 -46 10 0 6 18 10 39 10
22 0 43 -4 46 -10z m-2605 -64 c0 -67 9 -83 44 -77 11 1 16 -2 11 -8 -4 -8 7
-10 37 -6 32 5 39 4 27 -4 -19 -12 -63 -15 -96 -8 -23 6 -23 5 -23 -98 l0
-103 83 -7 c45 -4 105 -5 132 -3 l50 3 3 118 c1 64 6 117 10 117 4 0 5 -54 3
-120 l-3 -120 141 0 141 0 0 50 c0 51 -12 64 -38 38 -9 -9 -12 -9 -12 1 0 7
-11 12 -27 11 -46 -3 -63 -1 -63 10 0 6 10 10 23 10 13 0 28 5 35 12 9 9 12 9
12 0 0 -7 14 -12 35 -12 24 0 35 5 35 15 0 8 5 15 10 15 6 0 10 -33 10 -80 l0
-79 73 -4 c39 -2 -221 -2 -578 1 -695 5 -685 6 -724 -42 -11 -13 -34 -16 -125
-14 l-111 2 105 3 c93 3 107 6 130 27 52 49 55 49 352 41 l278 -7 0 191 c0
121 4 191 10 191 6 0 10 -28 10 -64z m3030 34 c0 -20 5 -30 15 -30 9 0 19 -8
22 -17 4 -10 13 -24 20 -31 11 -11 13 -8 13 17 0 16 5 33 10 36 6 4 10 -8 10
-30 0 -22 4 -34 10 -30 21 13 49 -8 75 -57 l26 -50 -30 -58 c-28 -53 -31 -66
-31 -153 0 -127 8 -143 79 -159 31 -7 61 -13 68 -13 6 0 20 -9 32 -19 16 -15
25 -16 50 -8 16 6 32 8 35 5 13 -13 5 -23 -16 -23 -44 0 -53 -14 -40 -58 14
-47 15 -62 3 -62 -5 0 -15 25 -21 55 -7 36 -16 55 -26 55 -8 0 -14 6 -14 14 0
16 -12 20 -74 31 -39 7 -39 6 -24 -17 8 -13 29 -48 48 -79 24 -40 51 -68 99
-101 36 -25 78 -48 92 -51 15 -4 37 -24 53 -47 l27 -41 70 2 c50 2 74 -2 84
-12 12 -12 3 -14 -67 -10 -65 3 -80 1 -76 -10 3 -8 15 -38 27 -67 34 -84 4
-56 -34 33 -43 97 -64 127 -97 136 -14 4 -53 25 -86 48 -56 38 -79 60 -109
107 -10 15 -12 -4 -12 -98 l-1 -118 70 0 c40 0 70 -4 70 -10 0 -6 -30 -10 -70
-10 -48 0 -72 -4 -74 -12 -2 -7 -20 -58 -40 -113 l-36 -100 0 -253 c0 -139 -4
-251 -9 -248 -4 3 -8 31 -9 63 0 32 -1 64 -1 71 -1 7 -15 12 -37 12 -21 0 -33
4 -29 10 4 6 19 9 33 8 l27 -3 5 185 c5 176 7 188 34 250 16 36 32 80 36 98 7
27 5 32 -10 32 -38 0 -46 -9 -42 -47 3 -25 1 -34 -7 -29 -6 4 -11 16 -11 27 0
16 -3 18 -19 9 -11 -5 -28 -10 -38 -10 -23 0 -79 55 -65 64 5 3 20 -6 32 -19
29 -30 40 -31 74 -4 22 18 26 27 22 55 -3 19 -2 34 3 34 5 0 11 -12 13 -27 2
-22 9 -29 31 -31 l27 -3 0 135 0 136 -35 0 c-34 0 -35 -1 -35 -38 0 -21 -7
-47 -15 -59 -12 -17 -12 -27 -4 -52 20 -56 3 -44 -29 21 -17 35 -43 78 -58 96
-25 30 -31 32 -90 32 l-62 0 -4 -72 c-3 -40 -5 -169 -7 -286 -1 -171 -5 -218
-17 -237 -12 -18 -12 -24 -2 -28 7 -2 10 -8 5 -12 -4 -5 -13 -3 -19 3 -17 17
-28 15 -22 -5 5 -15 3 -15 -11 2 -10 13 -18 16 -23 9 -9 -14 -72 -27 -72 -15
0 5 6 12 13 15 10 5 10 7 0 12 -7 3 -13 15 -13 26 0 16 5 19 21 15 38 -10 49
2 49 54 l0 49 -37 2 -38 1 38 4 37 4 -1 102 c-1 56 -3 94 -6 85 -5 -20 -23
-25 -23 -7 0 6 -7 9 -15 5 -10 -3 -15 1 -15 12 0 13 8 18 28 17 23 0 27 4 30
33 2 21 -4 41 -17 58 -26 33 -26 45 -1 72 11 12 20 26 20 32 0 5 5 10 10 10 6
0 10 -77 10 -210 l0 -210 23 0 c24 0 24 1 30 158 4 86 7 190 7 230 l0 72 -110
0 c-114 0 -160 -13 -160 -46 0 -8 -6 -14 -13 -14 -11 0 -76 -51 -234 -183 -34
-29 -62 -58 -62 -64 -1 -7 -5 -13 -9 -13 -11 0 -8 28 8 65 7 17 14 25 17 17 6
-16 33 3 33 24 0 16 -12 18 -26 4 -7 -7 -10 4 -10 33 -1 38 3 46 28 60 37 21
40 21 68 -3 13 -11 29 -20 37 -20 8 0 49 30 92 68 l79 67 -105 3 c-144 4 -123
22 26 22 l118 0 38 86 c21 47 53 105 72 130 l34 44 -196 0 c-127 0 -195 4
-195 10 0 7 76 10 223 10 122 0 279 -1 350 0 l127 0 0 116 c0 102 -2 115 -16
110 -9 -3 -22 -6 -30 -6 -8 0 -14 -9 -14 -20 0 -39 -19 -19 -22 23 l-3 42
-202 0 -203 0 0 -25 c0 -14 7 -34 15 -44 8 -11 15 -14 15 -7 0 7 4 9 10 6 6
-4 7 1 3 11 -10 27 20 12 34 -17 27 -56 23 -64 -38 -67 -55 -3 -56 -2 -62 26
l-6 29 -60 -21 c-60 -21 -61 -21 -61 -59 0 -23 -4 -36 -10 -32 -5 3 -10 17
-10 30 0 17 -4 23 -14 19 -7 -3 -20 1 -27 8 -8 7 -27 18 -44 23 -29 10 -30 13
-32 70 -1 43 1 53 7 35 4 -14 8 -39 9 -56 1 -28 5 -33 37 -39 45 -8 50 -2 59
81 7 63 25 89 25 37 0 -20 3 -24 9 -14 5 7 32 16 59 19 48 4 51 6 54 35 4 45
28 47 28 3 0 -29 4 -36 20 -36 11 0 20 5 20 11 0 10 186 7 303 -6 32 -4 57 -3
56 2 -1 4 -1 25 0 46 1 44 21 51 21 7z m233 -28 c32 3 32 3 28 -37 -3 -43 -8
-55 -20 -55 -5 0 -5 17 -1 39 6 34 5 38 -12 33 -23 -6 -24 -54 -1 -93 14 -23
24 -29 51 -29 19 0 31 -4 27 -10 -3 -5 -21 -10 -38 -10 -27 0 -36 7 -54 38
-12 21 -38 49 -57 63 -20 13 -36 31 -35 39 3 30 -1 40 -16 40 -8 0 -15 5 -15
10 0 6 9 10 20 10 11 0 20 -4 20 -10 0 -17 47 -11 56 8 6 14 8 12 12 -11 3
-25 7 -28 35 -25z m90 28 c3 -11 1 -20 -4 -20 -5 0 -9 9 -9 20 0 11 2 20 4 20
2 0 6 -9 9 -20z m-243 0 c0 -5 -5 -10 -11 -10 -5 0 -7 5 -4 10 3 6 8 10 11 10
2 0 4 -4 4 -10z m-5006 -26 c11 -28 6 -39 -9 -20 -8 11 -15 23 -15 28 0 14 18
9 24 -8z m2398 -16 c-7 -7 -12 -8 -12 -2 0 6 3 14 7 17 3 4 9 5 12 2 2 -3 -1
-11 -7 -17z m583 -8 c-3 -5 -17 -10 -31 -10 -13 0 -24 5 -24 10 0 6 14 10 31
10 17 0 28 -4 24 -10z m2285 -22 c0 -6 -7 -5 -15 2 -8 7 -15 17 -15 22 0 6 7
5 15 -2 8 -7 15 -17 15 -22z m-5481 8 c7 -8 8 -17 3 -19 -4 -3 -13 3 -20 14
-14 22 0 26 17 5z m4418 -28 c-3 -7 -5 -2 -5 12 0 14 2 19 5 13 2 -7 2 -19 0
-25z m-3097 1 c0 -5 -4 -9 -10 -9 -5 0 -10 7 -10 16 0 8 5 12 10 9 6 -3 10
-10 10 -16z m2320 -9 c0 -25 -20 -27 -21 -2 0 14 -2 14 -9 -3 -8 -19 -9 -19
-9 3 -1 16 5 22 19 22 13 0 20 -7 20 -20z m-3643 -37 c-3 -10 -5 -4 -5 12 0
17 2 24 5 18 2 -7 2 -21 0 -30z m61 8 c14 -40 6 -44 -25 -14 -19 20 -22 28
-11 34 21 14 25 11 36 -20z m3642 -11 c0 -16 -4 -30 -10 -30 -11 0 -14 43 -3
53 11 12 13 8 13 -23z m1775 -10 c-9 -41 -17 -33 -9 9 4 17 9 30 11 27 3 -2 2
-19 -2 -36z m-3516 21 c7 -5 25 -6 40 -2 14 4 37 4 51 0 24 -7 24 -7 3 -8 -13
-1 -23 -7 -23 -15 0 -8 -5 -18 -12 -22 -8 -5 -9 0 -6 14 6 23 -17 33 -24 11
-3 -8 -14 -7 -35 5 -42 21 -129 22 -137 0 -15 -39 -6 -54 52 -83 62 -32 103
-60 87 -61 -5 0 -43 18 -83 40 -66 36 -81 40 -150 42 l-77 2 75 5 75 6 3 38 3
37 72 0 c40 0 78 -4 86 -9z m-759 -21 c0 -5 -12 -10 -26 -10 -14 0 -23 4 -19
10 3 6 15 10 26 10 10 0 19 -4 19 -10z m-1203 -42 c-3 -7 -5 -2 -5 12 0 14 2
19 5 13 2 -7 2 -19 0 -25z m4333 8 c35 -6 60 -15 53 -19 -6 -4 -32 -3 -57 2
-25 5 -46 6 -46 2 0 -3 -16 -6 -35 -7 -19 0 -35 3 -35 8 0 4 7 8 15 8 8 0 15
5 15 10 0 12 8 12 90 -4z m-902 -13 c-10 -2 -26 -2 -35 0 -10 3 -2 5 17 5 19
0 27 -2 18 -5z m412 -3 c-63 -3 -146 -3 -185 1 -46 4 -7 6 115 6 167 0 174 -1
70 -7z m-1010 -19 c0 -5 -8 -11 -17 -14 -10 -2 -26 -8 -35 -12 -10 -4 -18 -3
-18 3 0 6 12 15 28 20 35 13 42 14 42 3z m290 -91 c0 -52 3 -112 6 -132 l7
-38 71 -1 c77 -1 73 -4 -16 -14 l-58 -6 0 -69 c0 -38 -4 -72 -10 -75 -6 -4
-10 22 -10 69 l0 76 -27 -1 c-23 0 -24 -2 -9 -8 17 -7 16 -8 -7 -24 -15 -9
-31 -17 -37 -17 -5 0 -10 -14 -10 -30 0 -59 56 -47 62 13 l4 32 8 -28 c6 -20
4 -33 -8 -46 -9 -10 -13 -20 -10 -23 3 -3 1 -9 -5 -13 -6 -3 -11 -1 -11 4 0 6
-11 11 -24 11 -19 0 -25 7 -30 35 -4 20 -4 40 -1 45 4 6 3 19 0 30 -6 19 -15
20 -166 20 -152 0 -159 -1 -159 -20 0 -11 -4 -20 -10 -20 -5 0 -10 9 -10 20 0
20 -7 20 -865 20 -643 0 -865 3 -865 11 0 9 129 11 505 7 365 -4 506 -2 510 6
4 8 6 8 10 0 8 -15 287 -6 298 10 6 8 10 7 14 -1 3 -10 47 -13 168 -13 121 0
165 3 169 13 5 10 7 10 12 0 3 -7 14 -13 24 -13 10 0 21 6 24 13 5 10 7 10 12
0 4 -10 48 -13 170 -13 l164 0 0 60 c0 33 4 60 10 60 6 0 10 -4 10 -10 0 -5
17 -11 38 -11 l37 -2 -40 -6 c-39 -6 -40 -7 -43 -48 l-3 -43 47 0 46 0 -7 108
c-4 59 -11 109 -16 110 -5 2 -7 8 -3 13 3 5 -2 9 -10 9 -18 0 -22 16 -5 22 6
2 20 4 30 4 17 0 19 -9 19 -96z m-2380 54 c0 -20 -109 -156 -119 -149 -5 2
-11 -9 -15 -26 -4 -23 -10 -29 -23 -25 -10 3 -29 -3 -43 -14 l-25 -20 68 0
c38 0 67 -4 67 -10 0 -5 -16 -10 -35 -10 l-35 0 0 -65 c0 -37 -4 -65 -10 -65
-6 0 -10 27 -10 61 0 50 -3 60 -15 55 -8 -3 -15 -1 -15 4 0 6 -7 10 -15 10
-25 0 -17 27 16 54 17 14 34 26 38 26 5 0 37 43 71 95 42 64 69 95 81 95 11 0
19 -7 19 -16z m-60 -3 c0 -12 -50 -44 -58 -36 -4 3 4 15 18 25 27 21 40 25 40
11z m2874 -2 c-3 -5 -12 -9 -20 -9 -8 0 -12 -5 -9 -10 4 -6 10 -8 15 -5 5 3
11 1 15 -5 9 -15 -27 -12 -47 4 -28 21 -21 34 17 34 19 0 32 -4 29 -9z m1526
-31 c0 -6 -7 -5 -15 2 -8 7 -15 17 -15 22 0 6 7 5 15 -2 8 -7 15 -17 15 -22z
m-5217 -16 c2 -12 18 -22 38 -26 38 -9 38 -8 -43 -26 -32 -7 -58 -17 -58 -22
0 -5 -4 -6 -10 -3 -17 11 -11 23 18 37 15 7 28 23 30 36 4 27 18 29 25 4z
m4615 -39 c-10 -2 -28 -2 -40 0 -13 2 -5 4 17 4 22 1 32 -1 23 -4z m-1028 -13
c0 -5 -21 -10 -46 -10 -27 0 -43 4 -39 10 3 6 24 10 46 10 21 0 39 -4 39 -10z
m500 0 c0 -5 -24 -10 -54 -10 -30 0 -58 5 -61 10 -4 6 17 10 54 10 34 0 61 -4
61 -10z m-3945 -20 c-3 -5 -11 -10 -16 -10 -6 0 -7 5 -4 10 3 6 11 10 16 10 6
0 7 -4 4 -10z m4065 1 c0 -10 -74 -47 -114 -57 -45 -11 -28 5 37 35 69 33 77
35 77 22z m-4205 -10 c-3 -5 0 -13 6 -16 6 -4 0 -13 -16 -21 -35 -18 -41 -18
-49 2 -5 13 -2 15 14 11 13 -3 21 1 25 14 4 10 11 19 16 19 6 0 8 -4 4 -9z
m717 -13 c-7 -7 -12 -8 -12 -2 0 14 12 26 19 19 2 -3 -1 -11 -7 -17z m-622 2
c-20 -13 -43 -13 -35 0 3 6 16 10 28 10 18 0 19 -2 7 -10z m130 -40 c-8 -6
-24 -10 -35 -10 -11 0 -30 -3 -42 -6 -13 -4 -23 -2 -23 4 0 6 24 14 53 19 56
10 70 8 47 -7z m1118 3 c-10 -2 -28 -2 -40 0 -13 2 -5 4 17 4 22 1 32 -1 23
-4z m-730 -74 c-14 -8 -15 -15 -7 -36 5 -14 7 -29 3 -32 -4 -3 -9 0 -11 7 -4
10 -9 9 -24 -4 -10 -9 -19 -12 -19 -7 0 6 7 16 15 23 8 7 15 22 15 34 0 29 20
50 35 35 7 -7 5 -13 -7 -20z m382 -8 c0 -4 -28 -14 -62 -21 -165 -31 -154 -27
-150 -66 4 -34 4 -34 -22 -23 -27 13 -36 39 -13 39 8 0 7 3 -3 10 -8 5 -12 11
-10 13 5 5 221 53 248 56 6 0 12 -3 12 -8z m1680 -161 c0 -13 -7 -20 -20 -20
-22 0 -23 1 -14 24 9 23 34 20 34 -4z m1214 -32 c5 -10 7 -10 12 1 5 11 8 11
15 0 6 -10 9 -11 9 -1 0 6 3 12 8 12 13 0 5 -78 -9 -92 -20 -20 -62 -48 -71
-48 -13 0 3 54 19 67 9 7 11 13 4 18 -13 8 -15 55 -2 55 5 0 12 -6 15 -12z
m1361 -49 c5 -6 3 -9 -5 -9 -27 0 -60 12 -60 21 0 11 50 1 65 -12z m-979 -11
c-3 -13 -6 -30 -6 -37 0 -11 -3 -12 -11 -4 -12 12 -2 63 13 63 6 0 8 -10 4
-22z m-1031 -8 c4 -6 -10 -10 -35 -10 -25 0 -39 4 -35 10 3 6 19 10 35 10 16
0 32 -4 35 -10z m1605 0 c0 -5 -4 -10 -10 -10 -5 0 -10 5 -10 10 0 6 5 10 10
10 6 0 10 -4 10 -10z m990 -55 c24 -29 24 -29 2 -10 -13 11 -28 29 -34 40 -11
21 -8 18 32 -30z m-560 23 c0 -31 -13 -87 -19 -84 -10 6 0 96 10 96 5 0 9 -6
9 -12z m-430 -8 c0 -5 -4 -10 -10 -10 -5 0 -10 5 -10 10 0 6 5 10 10 10 6 0
10 -4 10 -10z m-4060 -45 l0 -45 80 0 c47 0 80 -4 80 -10 0 -6 -33 -10 -80
-10 -47 0 -80 -4 -80 -10 0 -5 -4 -10 -10 -10 -6 0 -10 28 -10 65 0 37 4 65
10 65 6 0 10 -20 10 -45z m-551 5 c-6 -16 -18 -30 -27 -30 -12 0 -13 -3 -4
-12 19 -19 14 -28 -12 -28 -23 0 -24 2 -13 23 40 73 75 103 56 47z m4054 -200
c19 -1 20 -2 5 -10 -19 -12 -110 -1 -102 11 3 5 16 9 30 9 22 0 24 4 25 58 1
31 1 72 0 91 -1 19 2 41 6 50 5 9 9 -32 11 -96 3 -109 3 -113 25 -113z m557
200 c0 -11 -4 -20 -10 -20 -5 0 -10 9 -10 20 0 11 5 20 10 20 6 0 10 -9 10
-20z m-4170 -15 c0 -14 -4 -25 -10 -25 -5 0 -10 11 -10 25 0 14 5 25 10 25 6
0 10 -11 10 -25z m1930 21 c0 -2 -7 -6 -15 -10 -8 -3 -15 -1 -15 4 0 6 7 10
15 10 8 0 15 -2 15 -4z m262 -21 c-2 -14 -5 -25 -6 -25 -1 0 -15 -4 -32 -9
-29 -8 -31 -7 -31 13 0 22 26 42 58 45 12 1 15 -5 11 -24z m-1778 -14 c-23
-38 -94 -54 -94 -21 0 5 13 7 29 4 24 -5 32 -1 46 20 24 36 40 33 19 -3z
m-744 -11 c0 -11 -4 -20 -10 -20 -5 0 -10 9 -10 20 0 11 5 20 10 20 6 0 10 -9
10 -20z m2250 8 c0 -17 -18 -44 -24 -37 -8 7 5 49 15 49 5 0 9 -6 9 -12z m620
-33 c0 -16 -9 -19 -34 -9 -20 8 -11 24 15 24 10 0 19 -7 19 -15z m1090 5 c0
-5 -7 -10 -15 -10 -8 0 -15 5 -15 10 0 6 7 10 15 10 8 0 15 -4 15 -10z m140 0
c0 -5 -25 -10 -56 -10 -34 0 -53 4 -49 10 3 6 28 10 56 10 27 0 49 -4 49 -10z
m-656 -26 c10 -27 7 -34 -18 -34 -18 0 -23 5 -23 25 0 29 31 36 41 9z m965
-38 c31 -23 71 -72 71 -86 0 -3 -12 -5 -27 -4 -16 1 -76 2 -135 3 -65 0 -108
5 -108 11 0 6 27 10 60 10 l60 0 0 33 c0 17 3 42 6 54 7 25 14 23 73 -21z
m-2175 18 c10 -25 -1 -29 -14 -5 -6 12 -7 21 -1 21 5 0 12 -7 15 -16z m-1314
-24 c0 -18 -19 -11 -30 11 -11 19 -10 20 9 9 12 -6 21 -15 21 -20z m3070 -10
c0 -16 -4 -30 -9 -30 -5 0 -16 -3 -25 -6 -11 -4 -14 0 -12 18 5 54 46 70 46
18z m200 8 c0 -16 -3 -19 -11 -11 -6 6 -8 16 -5 22 11 17 16 13 16 -11z m1528
-39 c23 -30 57 -76 73 -102 23 -35 36 -46 48 -42 14 4 25 -11 53 -72 20 -43
39 -89 43 -103 4 -14 14 -33 22 -42 9 -9 18 -38 20 -62 3 -25 9 -43 14 -40 14
8 10 -10 -7 -34 -11 -17 -14 -33 -9 -55 4 -18 8 -52 9 -77 2 -25 8 -58 14 -73
17 -40 15 -61 -8 -82 -14 -13 -17 -22 -10 -29 16 -16 12 -66 -6 -73 -15 -5
-15 -8 -2 -17 16 -12 13 -80 -3 -70 -5 3 -9 -10 -9 -29 0 -25 -5 -36 -18 -39
-15 -4 -18 -15 -17 -60 1 -30 5 -60 9 -66 4 -7 5 -16 2 -21 -4 -5 -2 -21 4
-35 7 -20 16 -26 40 -26 26 0 33 -7 60 -59 l30 -60 -19 -43 c-20 -44 -29 -30
-11 17 8 20 4 36 -17 80 -25 51 -30 55 -55 50 -24 -6 -29 -3 -39 22 -6 15 -12
37 -13 48 -1 12 -4 25 -7 30 -3 6 -3 38 -1 72 3 52 7 63 24 69 17 5 19 12 14
52 -3 25 -11 49 -17 53 -9 5 -8 11 4 23 8 9 20 16 26 16 15 0 14 53 -1 69 -11
10 -8 16 11 30 20 15 23 23 16 47 -4 16 -9 52 -10 79 -2 28 -6 57 -9 65 -28
70 -36 160 -14 160 6 0 8 -9 5 -20 -3 -11 -1 -20 4 -20 25 0 -4 90 -38 118
-23 18 -25 24 -13 32 12 8 12 10 -3 16 -10 4 -16 13 -13 21 3 7 -7 38 -21 68
-21 42 -31 54 -45 50 -12 -4 -22 3 -33 24 -18 36 -13 34 -70 20 -31 -8 -42
-15 -38 -25 7 -18 -5 -18 -23 1 -14 13 -12 16 13 26 15 6 40 13 56 16 29 6 37
30 12 40 -9 3 -22 18 -31 34 -8 16 -21 29 -29 29 -8 0 -15 7 -15 15 0 8 -4 15
-10 15 -5 0 -10 7 -10 16 0 26 23 10 68 -47z m-5190 33 c6 -18 -15 -14 -22 4
-4 10 -1 14 6 12 6 -2 14 -10 16 -16z m419 -14 c-3 -7 -5 -2 -5 12 0 14 2 19
5 13 2 -7 2 -19 0 -25z m-479 -6 c-2 -8 -7 -17 -13 -19 -17 -5 -38 14 -32 30
8 20 49 10 45 -11z m-668 9 c0 -6 -4 -13 -10 -16 -5 -3 -10 1 -10 9 0 9 5 16
10 16 6 0 10 -4 10 -9z m2440 -1 c0 -5 -4 -10 -10 -10 -5 0 -10 5 -10 10 0 6
5 10 10 10 6 0 10 -4 10 -10z m1407 -16 c-3 -3 -12 -4 -19 -1 -8 3 -5 6 6 6
11 1 17 -2 13 -5z m378 -24 c-10 -11 -25 -20 -34 -19 -11 0 -9 3 5 9 12 5 25
13 29 19 3 6 9 11 12 11 3 0 -2 -9 -12 -20z m-1782 -10 c4 -17 11 -20 34 -15
24 6 26 5 12 -7 -18 -15 -14 -37 10 -55 14 -11 12 -12 -11 -13 -22 0 -28 5
-28 23 -1 20 -2 21 -14 5 -8 -11 -20 -15 -34 -11 -28 7 -28 21 0 25 12 2 23 9
26 16 3 9 -17 12 -78 12 -51 0 -79 4 -75 10 3 6 35 10 71 10 36 0 64 4 64 10
0 18 18 10 23 -10z m1187 -10 c0 -6 -35 -10 -85 -10 -50 0 -85 4 -85 10 0 6
35 10 85 10 50 0 85 -4 85 -10z m90 0 c0 -5 -18 -10 -40 -10 -22 0 -40 5 -40
10 0 6 18 10 40 10 22 0 40 -4 40 -10z m270 0 c0 -6 -48 -10 -125 -10 -77 0
-125 4 -125 10 0 6 48 10 125 10 77 0 125 -4 125 -10z m-866 -67 c11 -55 13
-58 49 -67 20 -5 37 -15 37 -21 0 -7 9 -20 20 -30 16 -15 25 -16 44 -7 21 9
24 8 24 -11 -1 -12 16 -67 36 -121 20 -55 35 -106 33 -115 -1 -9 -14 18 -28
59 l-26 75 -56 3 c-32 2 -57 8 -57 14 0 7 17 8 50 4 31 -4 50 -3 50 3 0 21
-24 61 -36 61 -7 0 -26 12 -44 26 l-31 26 -39 -27 c-56 -39 -62 -48 -51 -78 9
-22 7 -25 -8 -24 -13 1 -17 9 -17 33 1 27 11 40 50 70 43 32 46 38 31 47 -13
7 -24 6 -37 -2 -19 -12 -25 -2 -8 15 8 8 8 25 1 55 -6 24 -11 53 -11 63 0 35
12 8 24 -51z m2766 21 c0 -9 -5 -14 -12 -12 -18 6 -21 28 -4 28 9 0 16 -7 16
-16z m-1785 -54 c-16 -17 -36 -30 -44 -30 -10 1 -2 14 23 35 47 42 62 38 21
-5z m-2871 18 c-4 -7 -7 -30 -7 -53 l1 -40 -10 38 c-11 40 -6 67 12 67 6 0 8
-5 4 -12z m2673 -40 c-3 -7 -5 -2 -5 12 0 14 2 19 5 13 2 -7 2 -19 0 -25z
m-2567 -16 c0 -21 -7 -47 -15 -58 -14 -18 -15 -16 -9 21 12 82 24 100 24 37z
m2543 7 c7 0 42 -1 79 -1 37 -1 65 -5 62 -10 -7 -11 -267 -9 -319 2 -33 7 -24
8 49 8 77 -1 90 2 99 18 10 18 12 18 15 2 2 -10 9 -18 15 -19z m237 -29 c0
-22 -4 -40 -10 -40 -5 0 -10 18 -10 40 0 22 5 40 10 40 6 0 10 -18 10 -40z
m1690 31 c0 -5 -7 -12 -16 -15 -24 -9 -28 -7 -14 9 14 17 30 20 30 6z m40 5
c0 -2 -7 -6 -15 -10 -8 -3 -15 -1 -15 4 0 6 7 10 15 10 8 0 15 -2 15 -4z
m-3364 -32 c-4 -16 -2 -32 6 -42 11 -13 11 -14 -2 -10 -8 2 -16 17 -18 31 -2
15 -8 27 -13 27 -5 0 -9 5 -9 10 0 6 9 10 21 10 18 0 20 -4 15 -26z m1152 19
c-15 -2 -42 -2 -60 0 -18 2 -6 4 27 4 33 0 48 -2 33 -4z m887 -3 c-3 -5 -10
-10 -16 -10 -5 0 -9 5 -9 10 0 6 7 10 16 10 8 0 12 -4 9 -10z m595 -280 c0
-154 2 -280 4 -280 3 0 89 39 129 58 4 2 7 -3 7 -11 0 -13 -27 -26 -147 -74
-10 -4 -13 58 -13 291 0 191 4 296 10 296 6 0 10 -100 10 -280z m-1440 205 l0
-65 70 0 c40 0 70 -4 70 -10 0 -6 -30 -10 -70 -10 -63 0 -70 -2 -70 -20 0 -11
-4 -20 -10 -20 -6 0 -10 38 -10 95 0 57 4 95 10 95 6 0 10 -28 10 -65z m360
62 c0 -2 -15 -16 -32 -33 l-33 -29 29 33 c28 30 36 37 36 29z m627 -49 c-2
-13 -4 -5 -4 17 -1 22 1 32 4 23 2 -10 2 -28 0 -40z m-752 -63 c-41 -36 -55
-42 -55 -26 0 14 62 61 80 61 9 -1 -2 -15 -25 -35z m825 -20 c0 -9 -9 -15 -25
-15 -16 0 -25 6 -25 15 0 9 9 15 25 15 16 0 25 -6 25 -15z m170 -6 c0 -12 -77
-12 -84 0 -3 4 -4 10 -1 12 8 8 85 -3 85 -12z m-1970 1 c0 -6 -56 -10 -156
-10 -91 0 -153 4 -150 9 9 13 306 14 306 1z m3040 -156 c0 -106 -4 -163 -10
-159 -17 11 -11 325 6 325 2 0 4 -75 4 -166z m-3470 126 c0 -5 -11 -10 -25
-10 -14 0 -25 5 -25 10 0 6 11 10 25 10 14 0 25 -4 25 -10z m46 -16 c9 3 12 1
9 -4 -8 -12 -16 -12 -34 -1 -8 6 -10 14 -5 22 7 11 9 10 12 -4 2 -11 9 -16 18
-13z m-2677 -36 c-4 -24 -8 -46 -9 -50 0 -3 -14 -11 -31 -17 -27 -9 -30 -8
-25 5 3 9 6 21 6 27 0 8 4 7 12 -1 20 -20 25 -14 32 33 4 25 11 45 15 45 5 0
5 -19 0 -42z m5655 16 c9 -22 7 -31 -3 -16 -6 10 -13 1 -25 -28 -9 -24 -19
-40 -22 -37 -8 7 26 97 36 97 4 0 11 -7 14 -16z m-1274 -24 c0 -5 -4 -10 -10
-10 -5 0 -10 5 -10 10 0 6 5 10 10 10 6 0 10 -4 10 -10z m-705 -10 c3 -5 30
-10 60 -10 30 0 57 -4 60 -10 10 -16 -124 -13 -140 4 -8 7 -11 16 -8 20 9 9
21 7 28 -4z m-1095 -30 c12 -8 10 -14 -13 -38 -33 -35 -34 -42 -2 -42 14 0 25
-4 25 -10 0 -11 -13 -11 -50 -1 -21 6 -24 12 -22 40 6 52 29 72 62 51z m1810
-12 c28 10 30 9 30 -13 0 -29 -19 -43 -32 -24 -7 10 -8 8 -3 -8 6 -22 -16 -46
-23 -25 -2 7 -10 19 -19 27 -10 11 -11 15 -2 15 10 0 10 3 1 12 -17 17 -15 33
3 18 11 -9 22 -9 45 -2z m540 2 c0 -5 -18 -10 -41 -10 -24 0 -38 4 -34 10 3 6
22 10 41 10 19 0 34 -4 34 -10z m55 0 c3 -5 0 -10 -8 -10 -16 0 -27 -102 -27
-252 0 -52 -4 -88 -10 -88 -11 0 -13 166 -4 283 6 65 10 77 25 77 10 0 21 -4
24 -10z m175 -1 c0 -5 -34 -9 -76 -9 -48 0 -73 4 -69 10 8 12 145 11 145 -1z
m-2680 -70 c0 -47 4 -69 12 -69 9 0 9 -3 0 -12 -15 -15 -16 -98 -1 -98 6 0 20
5 31 11 16 9 19 8 16 -3 -3 -7 -18 -15 -34 -18 -27 -5 -29 -9 -34 -60 -3 -38
-13 -66 -31 -90 -20 -26 -28 -52 -34 -102 -8 -82 -1 -108 28 -108 12 0 29 -5
37 -10 11 -7 7 -10 -17 -10 -17 0 -34 -4 -38 -9 -6 -11 55 -141 67 -141 12 0
137 65 173 89 36 25 72 29 40 5 -20 -15 -20 -15 0 -51 20 -37 38 -46 184 -98
8 -3 11 -8 8 -12 -4 -3 -47 9 -97 27 -83 30 -93 36 -111 71 l-19 39 -58 -32
c-68 -38 -70 -40 -54 -45 6 -3 12 -9 12 -14 0 -4 -6 -6 -13 -3 -10 3 -12 -5
-9 -31 3 -21 0 -35 -7 -35 -6 0 -11 6 -12 13 -4 59 -8 70 -25 59 -8 -5 -6 -20
7 -48 16 -39 20 -42 68 -49 49 -7 50 -8 65 -53 8 -26 18 -72 21 -102 9 -69 20
-91 43 -84 12 4 13 3 4 -3 -10 -8 -4 -18 25 -44 21 -19 54 -42 73 -53 19 -10
58 -47 85 -83 28 -36 65 -77 83 -93 33 -27 33 -28 24 -80 -7 -39 -6 -63 3 -90
7 -20 14 -79 16 -131 4 -87 3 -94 -16 -97 -16 -2 -17 -1 -6 7 12 8 12 25 1
118 -7 59 -13 139 -14 176 -1 49 -5 72 -16 80 -9 7 -44 47 -79 90 -34 42 -79
86 -99 96 -20 11 -56 39 -80 64 -29 29 -51 43 -65 42 -15 -2 -16 -1 -4 2 15 4
18 11 13 36 -3 18 -8 54 -12 80 -5 37 -10 47 -21 43 -8 -3 -18 -6 -22 -6 -4 0
-32 -24 -62 -54 -38 -38 -67 -57 -99 -66 -58 -16 -90 -31 -85 -40 3 -4 -9 -10
-27 -14 -23 -5 -66 -42 -167 -146 l-136 -140 -115 2 -115 2 90 5 90 6 3 71 c3
68 1 73 -39 133 -33 50 -45 60 -61 55 -17 -5 -19 -3 -10 12 8 14 5 25 -14 47
-14 16 -22 32 -19 35 3 4 16 -7 29 -23 22 -28 24 -28 41 -12 23 24 69 47 135
68 30 10 49 18 43 18 -18 1 -16 26 2 41 12 10 15 9 15 -7 0 -30 8 -32 56 -16
54 18 61 29 38 54 -9 10 -12 19 -6 19 6 0 18 3 27 6 13 5 15 1 11 -19 l-4 -25
44 25 c39 22 44 29 44 59 0 19 5 34 10 34 6 0 10 -9 10 -20 0 -29 10 -25 57
25 23 25 48 45 57 45 8 0 17 4 21 10 9 14 -53 130 -70 130 -8 0 -15 5 -15 10
0 6 4 10 8 10 5 0 9 43 10 96 2 98 9 122 44 161 17 18 21 41 27 155 8 173 5
208 -20 208 -32 0 -21 25 11 26 l30 1 0 -68z m2230 15 c0 -23 -1 -24 -16 -10
-8 9 -12 20 -9 26 12 19 25 10 25 -16z m-340 -175 c0 -44 -4 -68 -10 -64 -5 3
-10 35 -10 71 0 36 4 64 10 64 6 0 10 -30 10 -71z m720 51 c0 -5 -7 -7 -15 -4
-8 4 -15 8 -15 10 0 2 7 4 15 4 8 0 15 -4 15 -10z m-912 -183 l37 -3 -33 -9
c-30 -7 -32 -10 -27 -36 9 -40 -2 -36 -19 6 -8 19 -22 35 -30 35 -23 0 -19 14
7 25 16 7 23 7 25 -2 2 -6 20 -14 40 -16z m-1003 -7 c11 -16 26 -30 33 -30 14
0 14 -7 2 -35 -7 -17 -9 -17 -9 -2 -1 13 -10 17 -41 17 -22 0 -40 5 -40 10 0
6 12 10 26 10 26 0 26 1 10 25 -18 27 -20 35 -8 35 4 0 16 -14 27 -30z m1089
12 c10 -17 -6 -50 -27 -56 -29 -7 -31 -3 -12 33 15 31 29 39 39 23z m-1394
-51 c0 -16 -6 -31 -14 -34 -9 -4 -12 2 -11 16 1 12 3 28 4 35 2 25 21 11 21
-17z m2080 9 c0 -11 -4 -20 -10 -20 -5 0 -10 9 -10 20 0 11 5 20 10 20 6 0 10
-9 10 -20z m-1320 -20 c12 -8 11 -11 -8 -16 -18 -5 -20 -9 -11 -20 14 -18 4
-45 -14 -38 -13 5 -42 54 -35 59 8 6 44 24 48 25 3 0 12 -5 20 -10z m1401 -39
c8 -22 15 -27 33 -24 16 3 23 0 23 -11 0 -9 -7 -16 -16 -17 -9 0 -26 -2 -38
-5 -23 -4 -33 11 -12 18 9 3 9 9 0 25 -6 12 -11 26 -11 32 0 20 11 11 21 -18z
m-1057 -46 c-4 -24 -2 -35 6 -35 7 0 6 -5 -4 -15 -8 -8 -23 -15 -33 -15 -17 1
-17 1 0 11 23 14 22 39 -3 39 -11 0 -20 5 -20 10 0 6 9 10 19 10 10 0 21 7 25
15 10 28 17 15 10 -20z m-3227 -17 c-3 -8 -6 -5 -6 6 -1 11 2 17 5 13 3 -3 4
-12 1 -19z m4203 2 c0 -11 -4 -20 -10 -20 -5 0 -10 9 -10 20 0 11 5 20 10 20
6 0 10 -9 10 -20z m-151 -196 c1 -121 1 -122 26 -128 35 -9 31 -26 -5 -26
l-30 0 0 -60 c0 -33 -4 -60 -10 -60 -6 0 -10 27 -10 60 0 47 -4 62 -16 67 -15
6 -15 8 2 20 17 12 19 29 21 146 3 157 3 159 13 127 4 -14 8 -80 9 -146z m141
156 c0 -5 -5 -10 -11 -10 -5 0 -7 5 -4 10 3 6 8 10 11 10 2 0 4 -4 4 -10z
m-2822 -65 c0 -15 -5 -24 -12 -22 -15 5 -16 47 -1 47 7 0 13 -11 13 -25z
m1969 -48 c-21 -33 -11 -77 18 -77 17 0 24 -7 27 -27 3 -16 9 -36 13 -45 5
-14 2 -18 -14 -18 -23 0 -46 -34 -37 -55 3 -8 21 -21 41 -29 34 -15 35 -16 29
-56 -5 -28 -1 -55 11 -87 l18 -46 -25 -21 c-46 -38 -43 -79 18 -288 3 -10 12
-18 20 -18 8 0 14 -4 14 -10 0 -5 11 -12 25 -16 19 -5 25 -13 25 -33 0 -35 13
-53 33 -45 9 3 17 2 17 -3 0 -5 -18 -14 -40 -20 -22 -5 -40 -6 -40 -2 0 5 5 9
11 9 6 0 9 16 7 37 -2 27 -8 39 -21 41 -39 8 -63 47 -90 144 -26 96 -34 172
-19 194 4 6 15 14 26 17 14 6 17 13 11 35 -4 15 -9 53 -12 85 -4 50 -8 59 -31
71 -15 8 -35 23 -45 34 -18 20 -17 21 15 54 28 28 31 37 23 56 -5 12 -17 22
-26 22 -9 0 -20 7 -23 16 -15 38 1 104 26 104 6 0 4 -9 -5 -23z m1846 -3 c19
-7 21 -13 7 -34 -8 -13 -10 -12 -10 3 0 17 -1 17 -25 0 -20 -15 -24 -27 -25
-65 0 -26 5 -59 10 -74 11 -29 6 -44 -10 -28 -6 6 -13 45 -16 87 -7 74 -6 78
15 84 16 4 20 10 15 25 -4 15 -2 19 7 14 8 -3 22 -9 32 -12z m-3795 -49 c23
-10 42 -21 42 -26 0 -5 -19 -2 -42 7 -44 17 -78 47 -78 68 0 6 8 1 18 -11 9
-12 36 -29 60 -38z m4169 -21 c-3 -3 -12 -4 -19 -1 -8 3 -5 6 6 6 11 1 17 -2
13 -5z m-796 -25 c-13 -11 -27 -17 -30 -13 -7 7 28 34 43 34 6 -1 0 -10 -13
-21z m9 -29 c0 -5 -4 -10 -10 -10 -5 0 -10 5 -10 10 0 6 5 10 10 10 6 0 10 -4
10 -10z m-3165 -30 c3 -5 -3 -10 -14 -10 -11 0 -23 5 -26 10 -3 6 3 10 14 10
11 0 23 -4 26 -10z m2685 -20 c0 -5 -9 -10 -21 -10 -11 0 -17 5 -14 10 3 6 13
10 21 10 8 0 14 -4 14 -10z m-2346 -42 c-3 -5 4 -8 15 -8 21 0 37 -17 26 -28
-3 -3 -9 -1 -13 5 -4 6 -16 12 -27 14 -14 3 -21 14 -23 34 -3 29 -3 29 11 10
9 -11 13 -23 11 -27z m506 -262 c-7 -7 -10 -5 -10 7 0 9 -4 17 -10 17 -5 0
-10 -4 -10 -10 0 -6 -30 -10 -70 -10 -44 0 -70 4 -70 11 0 7 21 10 60 7 41 -2
61 1 65 10 2 6 11 12 20 12 12 0 15 17 15 99 0 168 15 182 18 17 2 -93 -1
-153 -8 -160z m1160 149 c0 -90 -4 -145 -10 -145 -6 0 -10 42 -10 108 0 99 8
182 16 182 2 0 4 -65 4 -145z m1580 95 l22 -19 -41 -50 c-66 -79 -99 -95 -182
-88 l-69 6 0 -30 c0 -18 -5 -29 -14 -29 -14 0 -29 -24 -19 -33 2 -3 28 -3 57
0 34 4 56 1 60 -6 5 -8 -14 -11 -63 -11 l-71 0 0 -30 c0 -38 -16 -38 -60 0
-32 27 -80 40 -80 22 0 -4 27 -88 60 -186 l59 -178 -24 -24 c-17 -17 -25 -37
-27 -71 -3 -44 -5 -48 -33 -53 -39 -7 -48 -40 -11 -40 14 0 26 -4 26 -10 0 -5
-16 -10 -36 -10 -32 0 -35 2 -29 21 6 19 4 21 -14 16 -14 -3 -21 0 -21 10 0 8
-4 11 -10 8 -5 -3 -10 1 -10 9 0 8 -8 19 -17 25 -13 7 -15 13 -7 21 8 8 19 2
42 -24 23 -27 32 -31 36 -20 3 9 6 83 6 165 0 103 3 149 11 149 8 0 9 -43 4
-155 -5 -104 -4 -155 3 -155 31 0 42 14 42 52 0 29 6 45 26 63 l26 24 -61 184
-61 183 -268 12 c-378 17 -398 17 -405 -9 -3 -12 -10 -18 -16 -14 -6 3 -9 10
-6 15 3 4 -1 11 -7 14 -10 5 -10 7 0 12 7 3 12 26 12 60 0 30 5 54 10 54 6 0
10 -22 10 -50 0 -43 3 -50 23 -54 12 -3 131 -8 265 -11 229 -6 244 -6 257 12
13 17 14 17 15 1 0 -15 9 -18 50 -18 28 0 50 2 50 5 0 11 -25 62 -38 78 -13
15 -13 17 0 17 9 0 24 -21 36 -49 22 -55 31 -58 120 -53 37 3 52 8 52 18 0 8
7 17 15 20 8 4 15 17 15 29 0 33 12 37 93 37 82 -1 114 13 154 65 31 41 35 62
13 80 -8 7 -10 13 -4 13 6 0 21 -9 34 -20z m-2980 -85 c0 -8 -8 -15 -17 -15
-30 -1 28 -29 60 -30 15 0 27 -5 27 -10 0 -6 -19 -9 -44 -8 -24 2 -42 6 -40 9
5 9 -26 20 -37 13 -11 -6 -11 -2 -3 20 3 9 12 16 20 16 8 0 14 5 14 10 0 6 5
10 10 10 6 0 10 -7 10 -15z m970 -65 l0 -80 71 0 c44 0 68 -4 64 -10 -3 -5
-35 -10 -70 -10 -48 0 -64 -4 -69 -16 -3 -9 -6 -96 -6 -195 0 -128 -3 -179
-12 -179 -8 0 -10 51 -5 195 l5 196 -81 -3 c-71 -3 -82 -5 -81 -20 1 -10 -3
-18 -9 -18 -6 0 -19 -8 -30 -17 -16 -14 -19 -15 -15 -3 3 9 -5 20 -21 28 l-26
12 28 -4 c26 -3 31 3 28 32 -1 9 25 12 104 12 l105 0 0 80 c0 47 4 80 10 80 6
0 10 -33 10 -80z m-900 45 c-6 -7 -20 -11 -30 -8 -30 8 -24 18 10 19 23 1 28
-2 20 -11z m1450 -6 c0 -19 4 -20 35 -15 34 7 35 6 29 -19 -4 -14 -1 -31 6
-40 6 -8 10 -20 8 -27 -3 -7 -12 1 -22 20 -9 18 -14 37 -10 43 4 7 -6 8 -30 4
-35 -7 -36 -6 -36 24 0 17 5 31 10 31 6 0 10 -10 10 -21z m-980 -63 c0 -14 -4
-28 -10 -31 -6 -4 -10 7 -10 24 0 17 5 31 10 31 6 0 10 -11 10 -24z m46 9 c10
-8 14 -15 7 -15 -19 0 -43 11 -43 21 0 13 14 11 36 -6z m-719 -35 c0 -34 -3
-40 -21 -39 -11 0 -15 3 -8 6 6 2 12 17 12 32 0 23 7 41 15 41 1 0 2 -18 2
-40z m-314 -29 c9 -1 17 -6 17 -12 0 -7 -10 -9 -25 -5 -14 4 -25 3 -25 -2 0
-5 -13 -7 -30 -4 -45 6 -38 29 8 26 20 -1 45 -2 55 -3z m377 -1 c0 -5 -10 -10
-22 -9 -22 0 -22 1 -3 9 11 5 21 9 23 9 1 1 2 -3 2 -9z m60 0 c0 -5 -9 -10
-21 -10 -11 0 -17 5 -14 10 3 6 13 10 21 10 8 0 14 -4 14 -10z m60 0 c0 -5 -9
-10 -20 -10 -11 0 -20 5 -20 10 0 6 9 10 20 10 11 0 20 -4 20 -10z m-600 -10
c0 -5 -9 -10 -21 -10 -11 0 -17 5 -14 10 3 6 13 10 21 10 8 0 14 -4 14 -10z
m180 0 c0 -5 -6 -10 -14 -10 -8 0 -18 5 -21 10 -3 6 3 10 14 10 12 0 21 -4 21
-10z m173 3 c-7 -2 -19 -2 -25 0 -7 3 -2 5 12 5 14 0 19 -2 13 -5z m1877 -73
c0 -44 -4 -80 -10 -80 -9 0 -13 137 -4 152 11 18 14 4 14 -72z m-293 -82 c-2
-29 -3 -8 -3 47 0 55 1 79 3 53 2 -26 2 -71 0 -100z m878 115 c3 -10 6 -20 5
-22 -1 -2 4 -7 10 -11 19 -11 2 -30 -26 -30 -19 0 -24 5 -24 24 0 50 21 73 35
39z m125 -18 c0 -14 -4 -25 -10 -25 -11 0 -14 33 -3 43 11 11 13 8 13 -18z
m-3460 11 c0 -3 -4 -8 -10 -11 -5 -3 -10 -1 -10 4 0 6 5 11 10 11 6 0 10 -2
10 -4z m-220 -16 c0 -5 -4 -10 -10 -10 -5 0 -10 5 -10 10 0 6 5 10 10 10 6 0
10 -4 10 -10z m180 -15 c-7 -8 -17 -15 -22 -15 -6 0 -5 7 2 15 7 8 17 15 22
15 6 0 5 -7 -2 -15z m-50 -35 c-19 -13 -30 -13 -30 0 0 6 10 10 23 10 18 0 19
-2 7 -10z m-60 -25 c-7 -8 -16 -12 -21 -9 -13 8 -1 24 18 24 13 0 13 -3 3 -15z
m3610 -5 c0 -11 -4 -20 -10 -20 -5 0 -10 9 -10 20 0 11 5 20 10 20 6 0 10 -9
10 -20z m-3655 -10 c-3 -5 -15 -10 -26 -10 -10 0 -19 5 -19 10 0 6 12 10 26
10 14 0 23 -4 19 -10z m-60 -20 c-3 -5 -13 -10 -21 -10 -8 0 -12 5 -9 10 3 6
13 10 21 10 8 0 12 -4 9 -10z m-55 -20 c-19 -13 -30 -13 -30 0 0 6 10 10 23
10 18 0 19 -2 7 -10z m4290 -26 c0 -8 -4 -12 -10 -9 -5 3 -10 13 -10 21 0 8 5
12 10 9 6 -3 10 -13 10 -21z m-4350 6 c-19 -13 -30 -13 -30 0 0 6 10 10 23 10
18 0 19 -2 7 -10z m-54 -15 c-23 -17 -36 -19 -36 -6 0 11 18 19 40 20 11 0 10
-3 -4 -14z m-56 -15 c0 -5 -10 -10 -22 -10 -19 0 -20 2 -8 10 19 13 30 13 30
0z m2940 -15 c0 -8 -4 -15 -10 -15 -5 0 -10 7 -10 15 0 8 5 15 10 15 6 0 10
-7 10 -15z m-2995 -5 c-3 -5 -13 -10 -21 -10 -8 0 -12 5 -9 10 3 6 13 10 21
10 8 0 12 -4 9 -10z m-60 -20 c-3 -5 -13 -10 -21 -10 -8 0 -12 5 -9 10 3 6 13
10 21 10 8 0 12 -4 9 -10z m3214 -37 c-12 -13 -14 -13 -20 4 -12 30 -10 34 12
23 17 -10 18 -14 8 -27z m-3274 17 c-3 -5 -13 -10 -21 -10 -8 0 -12 5 -9 10 3
6 13 10 21 10 8 0 12 -4 9 -10z m3386 -11 c-16 -15 -25 -18 -35 -10 -7 6 -16
8 -19 5 -3 -3 -12 -2 -19 2 -15 10 19 21 66 23 l30 1 -23 -21z m-2707 -8 c19
-7 19 -8 1 -15 -10 -3 -23 -2 -29 4 -15 15 -37 12 -52 -7 -12 -16 -13 -16 -14
-2 0 9 3 19 7 22 8 9 63 8 87 -2z m-806 -23 c-2 -6 -10 -14 -16 -16 -7 -2 -10
2 -6 12 7 18 28 22 22 4z m837 -79 c-9 -17 -19 -29 -21 -26 -7 7 18 57 28 57
5 0 1 -14 -7 -31z m3395 -167 c-27 -4 -34 2 -26 23 5 13 8 13 26 -2 l21 -18
-21 -3z m-550 18 c0 -5 -7 -10 -16 -10 -8 0 -12 5 -9 10 3 6 10 10 16 10 5 0
9 -4 9 -10z m340 -10 c0 -5 -16 -10 -36 -10 -21 0 -33 4 -29 10 3 6 19 10 36
10 16 0 29 -4 29 -10z m1070 -24 c0 -29 -5 -36 -30 -45 -16 -5 -30 -15 -30
-20 0 -16 -17 -13 -24 4 -4 11 5 21 29 32 25 12 35 23 35 40 0 13 5 23 10 23
6 0 10 -15 10 -34z m183 -75 c10 -16 13 -32 8 -35 -5 -3 -14 7 -21 24 -7 16
-21 31 -33 33 -19 4 -19 4 3 6 19 1 31 -7 43 -28z m-3443 8 c0 -5 5 -7 11 -3
7 4 10 1 7 -7 -7 -22 -34 -22 -35 1 -1 11 2 20 8 20 5 0 9 -5 9 -11z m-44 -44
c-11 -8 -22 -12 -25 -9 -6 6 19 24 34 24 6 -1 1 -7 -9 -15z m-51 -25 c-3 -5
-13 -10 -21 -10 -8 0 -12 5 -9 10 3 6 13 10 21 10 8 0 12 -4 9 -10z m-45 -19
c0 -11 -31 -24 -39 -16 -3 3 1 10 9 15 19 12 30 12 30 1z m-60 -31 c0 -5 -7
-10 -16 -10 -8 0 -12 5 -9 10 3 6 10 10 16 10 5 0 9 -4 9 -10z m2247 -12 c-3
-8 -6 -5 -6 6 -1 11 2 17 5 13 3 -3 4 -12 1 -19z m-2307 -18 c-24 -15 -37 -11
-16 5 11 8 22 12 25 9 3 -3 -1 -9 -9 -14z m-54 -25 c-21 -16 -32 -13 -21 4 3
6 14 11 23 11 15 -1 15 -2 -2 -15z m-51 -25 c-3 -5 -13 -10 -21 -10 -8 0 -12
5 -9 10 3 6 13 10 21 10 8 0 12 -4 9 -10z m-45 -19 c0 -11 -31 -24 -39 -16 -3
3 1 10 9 15 19 12 30 12 30 1z m-65 -31 c-3 -5 -14 -10 -23 -10 -15 0 -15 2
-2 10 20 13 33 13 25 0z m2872 -22 c-3 -8 -6 -5 -6 6 -1 11 2 17 5 13 3 -3 4
-12 1 -19z m-3852 2 c3 -5 1 -10 -4 -10 -19 0 -12 -16 12 -29 21 -11 21 -11
-5 -8 -23 4 -28 0 -29 -17 0 -12 -3 -15 -6 -8 -3 7 -2 29 1 48 7 34 19 43 31
24z m925 -10 c-19 -12 -30 -12 -30 -1 0 10 31 20 40 14 2 -2 -2 -8 -10 -13z
m-54 -25 c-21 -16 -32 -13 -21 4 3 6 14 11 23 11 15 -1 15 -2 -2 -15z m-51
-24 c-3 -6 -14 -11 -23 -11 -15 1 -15 2 2 15 21 16 32 13 21 -4z m3042 -101
c15 0 35 8 46 17 19 17 20 17 14 1 -4 -13 -1 -18 11 -19 9 -1 50 -3 91 -5 70
-4 101 -15 101 -36 0 -7 -4 -7 -12 0 -7 6 -56 13 -108 16 -52 4 -114 9 -137
12 l-43 5 2 52 2 52 3 -47 c4 -44 6 -48 30 -48z m-3077 70 c-20 -13 -33 -13
-25 0 3 6 14 10 23 10 15 0 15 -2 2 -10z m4058 -8 c-10 -2 -15 -9 -11 -18 5
-15 -5 -18 -31 -8 -40 15 -5 46 39 35 17 -4 17 -6 3 -9z m-4112 -17 c-21 -16
-32 -13 -21 4 3 6 14 11 23 11 15 -1 15 -2 -2 -15z m-46 -24 c0 -12 -20 -25
-27 -18 -7 7 6 27 18 27 5 0 9 -4 9 -9z m-53 -48 c-9 -9 -20 -13 -24 -9 -4 4
-1 11 7 16 25 16 35 11 17 -7z"/>
<path d="M3682 5583 c1 -17 -4 -38 -11 -47 -12 -14 -8 -16 43 -16 31 0 56 1
56 3 0 2 -20 23 -45 47 l-46 45 3 -32z"/>
<path d="M5081 4625 l-3 -135 125 0 125 0 -7 28 c-5 15 -13 26 -18 25 -6 -1
-55 47 -109 107 -55 61 -101 110 -104 110 -3 0 -7 -61 -9 -135z"/>
<path d="M6060 4719 c0 -5 5 -7 10 -4 6 3 10 8 10 11 0 2 -4 4 -10 4 -5 0 -10
-5 -10 -11z"/>
<path d="M5950 4565 l0 -46 63 3 62 3 3 43 3 42 -65 0 -66 0 0 -45z"/>
<path d="M6097 4603 c-4 -3 -7 -24 -7 -45 0 -35 2 -38 29 -38 30 0 41 18 41
68 0 18 -6 22 -28 22 -16 0 -32 -3 -35 -7z"/>
<path d="M6193 4575 c-7 -8 -13 -25 -13 -38 0 -12 6 -29 13 -36 10 -11 9 -13
-6 -7 -14 4 -20 0 -24 -14 -3 -11 -10 -20 -15 -20 -6 0 -8 9 -5 20 4 17 0 20
-24 20 l-29 0 0 -68 c0 -39 -5 -73 -12 -80 -6 -6 -9 -15 -5 -18 3 -4 19 8 34
26 15 18 40 44 56 58 15 14 27 35 28 46 0 19 1 19 10 -3 12 -30 15 -27 23 27
4 27 3 41 -3 38 -6 -4 -8 7 -4 29 6 37 -3 44 -24 20z"/>
<path d="M5831 4512 c-9 -22 -8 -37 4 -71 8 -24 16 -58 16 -75 1 -23 3 -25 6
-8 2 12 9 22 15 22 6 0 8 -9 5 -20 -4 -15 0 -20 15 -20 10 0 16 4 13 10 -3 5
-10 35 -15 66 -11 66 -14 71 -35 54 -13 -10 -15 -9 -15 9 0 24 24 54 34 44 3
-4 6 -1 6 5 0 24 -38 12 -49 -16z m42 -92 c3 -11 1 -20 -4 -20 -5 0 -9 2 -9 4
0 2 -3 11 -6 20 -3 9 -2 16 4 16 5 0 12 -9 15 -20z"/>
<path d="M5950 4466 c0 -18 -3 -54 -6 -80 -6 -41 -5 -46 12 -46 11 0 25 9 32
20 7 11 17 20 22 20 7 0 7 -7 0 -20 -9 -18 -8 -20 14 -20 34 0 46 26 46 99 l0
61 -60 0 -60 0 0 -34z"/>
<path d="M5913 4472 c-9 -6 -10 -22 -4 -60 12 -76 21 -75 21 1 0 37 -1 67 -2
67 -2 0 -9 -4 -15 -8z"/>
<path d="M5350 4451 c0 -10 3 -39 6 -65 l7 -46 59 0 c45 0 59 -3 55 -13 -3 -7
1 -24 9 -38 7 -13 13 -40 14 -60 0 -33 3 -37 31 -43 93 -18 139 11 139 90 l0
44 -90 0 c-53 0 -90 4 -90 10 0 6 37 10 90 10 l90 0 0 65 0 65 -160 0 c-149 0
-160 -1 -160 -19z"/>
<path d="M5690 4399 c0 -44 4 -68 10 -64 6 3 10 13 10 21 0 8 10 14 25 14 14
0 24 -3 24 -7 -3 -20 2 -34 11 -28 6 3 10 35 10 71 l0 64 -45 0 -45 0 0 -71z"/>
<path d="M5801 4403 c-1 -60 1 -71 14 -67 19 8 19 68 0 109 -13 29 -13 27 -14
-42z"/>
<path d="M5381 4253 c1 -60 2 -65 12 -40 6 15 14 27 19 27 4 0 8 6 8 14 0 8 9
17 19 21 13 4 17 12 14 25 -4 15 -14 20 -39 20 l-34 0 1 -67z"/>
<path d="M5690 4283 c1 -36 1 -37 16 -18 17 22 15 46 -3 53 -9 2 -13 -8 -13
-35z"/>
<path d="M5751 4307 c-6 -8 -8 -16 -5 -20 3 -3 -4 -15 -16 -27 -16 -16 -20
-29 -15 -47 4 -17 1 -31 -9 -42 -65 -68 -78 -121 -30 -121 13 0 24 -4 24 -10
0 -5 -11 -10 -25 -10 -20 0 -25 -5 -25 -25 0 -14 5 -25 10 -25 6 0 10 7 10 15
0 8 5 15 10 15 6 0 10 -4 10 -10 0 -5 5 -10 11 -10 5 0 7 5 4 10 -4 6 10 10
33 10 36 0 41 3 51 31 6 18 11 34 11 35 0 2 -27 4 -61 4 -37 0 -58 4 -54 10 3
6 32 10 64 10 l57 0 67 97 c72 106 73 123 10 123 -30 0 -34 -3 -33 -22 3 -35
0 -44 -9 -30 -6 10 -13 11 -34 1 -15 -7 -30 -9 -35 -4 -4 4 -2 10 4 12 13 4 7
43 -6 43 -4 0 -13 -6 -19 -13z"/>
<path d="M5800 4299 c0 -18 2 -19 15 -9 8 7 15 16 15 21 0 5 -7 9 -15 9 -9 0
-15 -9 -15 -21z"/>
<path d="M5459 4266 c-1 -3 -2 -9 -3 -13 -1 -5 -5 -14 -9 -20 -5 -7 -6 -17 -2
-22 3 -5 -5 -12 -17 -14 -15 -3 -9 -5 15 -6 36 -1 37 0 37 33 0 19 -4 38 -10
41 -5 3 -11 4 -11 1z"/>
<path d="M4846 4213 c-3 -3 -6 -28 -6 -55 l0 -48 105 0 c58 0 105 4 105 9 0 5
9 11 21 14 12 3 18 10 14 16 -4 7 4 11 19 11 16 0 26 -6 26 -15 0 -8 6 -16 13
-17 6 0 -8 -4 -33 -8 -30 -5 5 -8 103 -8 l147 -2 0 30 0 30 -105 0 c-86 0
-283 23 -381 45 -12 3 -24 2 -28 -2z m224 -63 c0 -5 -5 -10 -11 -10 -5 0 -7 5
-4 10 3 6 8 10 11 10 2 0 4 -4 4 -10z"/>
<path d="M5655 4194 c-13 -14 -14 -19 -3 -25 14 -9 51 19 42 32 -8 13 -21 11
-39 -7z"/>
<path d="M5378 4158 c-10 -29 6 -60 38 -76 19 -8 34 -19 34 -24 0 -11 -7 -10
-40 7 l-30 16 0 -41 c0 -35 3 -40 23 -40 12 -1 48 -3 79 -6 56 -6 56 -6 60 22
2 23 9 30 31 32 31 4 30 2 17 36 -13 35 -50 36 -50 1 0 -14 -4 -25 -10 -25 -5
0 -10 14 -10 30 0 17 -4 30 -10 30 -5 0 -10 -13 -10 -30 0 -16 -4 -30 -10 -30
-5 0 -10 25 -10 55 l0 55 -49 0 c-30 0 -51 -5 -53 -12z"/>
<path d="M5500 4150 c0 -11 5 -20 10 -20 6 0 10 9 10 20 0 11 -4 20 -10 20 -5
0 -10 -9 -10 -20z"/>
<path d="M5540 4150 c0 -14 7 -20 21 -20 12 0 27 -7 33 -16 11 -14 14 -14 36
5 31 25 20 36 -42 45 -43 5 -48 4 -48 -14z"/>
<path d="M4818 4060 l4 -30 114 0 114 0 0 30 0 30 -118 0 -119 0 5 -30z"/>
<path d="M5080 4071 c0 -46 8 -51 91 -51 67 0 80 3 89 19 24 46 16 51 -85 51
-87 0 -95 -2 -95 -19z"/>
<path d="M5320 4079 c11 -8 12 -12 3 -16 -7 -2 -13 -11 -13 -18 0 -7 -8 -16
-17 -18 -10 -3 -3 -5 15 -6 17 0 32 -5 32 -11 0 -5 5 -10 10 -10 6 0 10 20 10
45 0 42 -2 45 -27 45 -23 0 -25 -2 -13 -11z"/>
<path d="M5614 4079 c-3 -6 -1 -16 5 -22 8 -8 11 -5 11 11 0 24 -5 28 -16 11z"/>
<path d="M5810 4048 c0 -19 2 -20 10 -8 13 19 13 30 0 30 -5 0 -10 -10 -10
-22z"/>
<path d="M5840 4020 c-6 -11 -8 -20 -6 -20 3 0 10 9 16 20 6 11 8 20 6 20 -3
0 -10 -9 -16 -20z"/>
<path d="M5570 4023 c8 -3 18 -11 22 -17 5 -7 8 -4 8 7 0 11 -7 17 -22 16 -16
0 -18 -2 -8 -6z"/>
<path d="M5621 4014 c0 -11 3 -14 6 -6 3 7 2 16 -1 19 -3 4 -6 -2 -5 -13z"/>
<path d="M5745 3993 c-11 -2 -29 -8 -40 -13 -11 -5 -29 -11 -40 -13 -11 -3 -1
-5 23 -6 26 -1 41 -5 37 -11 -13 -21 35 -9 49 12 26 37 21 42 -29 31z"/>
<path d="M5080 3960 c0 -20 5 -21 87 -18 74 3 88 6 91 21 3 15 -6 17 -87 17
-85 0 -91 -1 -91 -20z"/>
<path d="M5578 3973 c7 -3 16 -2 19 1 4 3 -2 6 -13 5 -11 0 -14 -3 -6 -6z"/>
<path d="M5658 3933 c7 -3 16 -2 19 1 4 3 -2 6 -13 5 -11 0 -14 -3 -6 -6z"/>
<path d="M1982 4765 c0 -16 2 -22 5 -12 2 9 2 23 0 30 -3 6 -5 -1 -5 -18z"/>
<path d="M1977 4703 c-4 -3 -7 -15 -7 -25 0 -18 1 -18 16 -4 8 9 20 16 25 16
6 0 7 5 4 10 -7 11 -28 13 -38 3z"/>
<path d="M1766 4625 c-8 -21 21 -39 44 -29 19 8 18 10 -9 26 -24 13 -31 14
-35 3z"/>
<path d="M3049 4152 c12 -23 41 -48 41 -35 0 5 -7 19 -16 31 -19 27 -39 30
-25 4z"/>
<path d="M5178 3763 c29 -2 74 -2 100 0 26 2 2 3 -53 3 -55 0 -76 -1 -47 -3z"/>
<path d="M5500 3761 c0 -5 7 -11 14 -14 10 -4 13 -1 9 9 -6 15 -23 19 -23 5z"/>
<path d="M4950 3721 c0 -11 -4 -23 -10 -26 -17 -10 -12 -38 5 -31 9 3 24 1 34
-6 27 -17 71 16 71 53 0 28 -2 29 -50 29 -43 0 -50 -3 -50 -19z"/>
<path d="M5518 3723 c7 -3 16 -2 19 1 4 3 -2 6 -13 5 -11 0 -14 -3 -6 -6z"/>
<path d="M5603 3713 c-9 -3 -13 -31 -13 -89 0 -83 0 -84 25 -84 19 0 28 9 44
45 23 53 19 75 -15 75 -13 0 -24 5 -24 10 0 6 7 10 15 10 13 0 14 4 5 20 -11
20 -16 22 -37 13z"/>
<path d="M5590 3502 c0 -10 5 -23 12 -30 9 -9 9 -12 0 -12 -8 0 -12 -17 -12
-46 0 -25 4 -43 9 -40 5 4 12 0 14 -6 3 -7 6 24 6 70 1 67 -2 82 -14 82 -8 0
-15 -8 -15 -18z"/>
<path d="M5290 3400 c0 -33 2 -60 5 -60 2 0 19 9 37 20 35 21 128 28 128 10 0
-5 -24 -10 -52 -10 -50 0 -58 -4 -156 -77 -56 -42 -101 -78 -99 -80 2 -2 101
-4 221 -6 l216 -2 0 73 c0 41 -4 72 -10 72 -6 0 -10 27 -10 60 l0 60 -140 0
-140 0 0 -60z m260 -24 c0 -2 -3 -11 -6 -20 -9 -23 -34 -20 -34 4 0 13 7 20
20 20 11 0 20 -2 20 -4z"/>
<path d="M5239 3400 c-28 -37 -47 -72 -73 -133 l-15 -38 27 20 c88 64 94 72
90 131 l-3 55 -26 -35z"/>
<path d="M5610 3264 l0 -70 34 4 33 4 -30 61 c-17 34 -32 64 -34 66 -1 2 -3
-27 -3 -65z"/>
<path d="M5520 3172 c0 -14 36 -52 44 -47 3 3 4 2 1 -1 -7 -11 15 -45 26 -39
5 4 9 26 9 51 l0 44 -40 0 c-22 0 -40 -4 -40 -8z"/>
<path d="M4830 3050 c0 -5 5 -10 10 -10 6 0 10 5 10 10 0 6 -4 10 -10 10 -5 0
-10 -4 -10 -10z"/>
<path d="M4810 3025 c0 -16 16 -20 24 -6 3 5 -1 11 -9 15 -9 3 -15 0 -15 -9z"/>
<path d="M4857 3024 c-4 -4 -7 -14 -7 -23 0 -11 3 -12 11 -4 6 6 10 16 7 23
-2 6 -7 8 -11 4z"/>
<path d="M4820 2980 c0 -5 5 -10 10 -10 6 0 10 5 10 10 0 6 -4 10 -10 10 -5 0
-10 -4 -10 -10z"/>
<path d="M5280 2660 c0 -47 2 -50 25 -50 23 0 25 3 25 50 0 47 -2 50 -25 50
-23 0 -25 -3 -25 -50z"/>
<path d="M5216 2575 c4 -8 12 -15 20 -15 19 0 18 16 -2 24 -22 9 -24 8 -18 -9z"/>
<path d="M5640 3766 c0 -2 11 -11 25 -20 24 -16 25 -16 25 4 0 15 -7 20 -25
20 -14 0 -25 -2 -25 -4z"/>
<path d="M1049 3534 c-71 -108 -72 -116 -5 -31 21 26 36 52 34 58 -2 6 -15 -6
-29 -27z"/>
<path d="M4926 2843 c-3 -4 -6 -21 -6 -40 0 -29 3 -33 28 -33 15 0 38 -3 51
-7 21 -5 22 -4 13 14 -14 25 -77 74 -86 66z"/>
<path d="M2672 1480 c-29 -18 -31 -23 -21 -42 10 -18 9 -20 -6 -14 -11 4 -33
-6 -64 -27 -87 -63 -171 -109 -234 -126 -60 -17 -62 -19 -69 -57 -4 -21 -7
-61 -7 -87 -1 -26 -8 -61 -16 -76 -8 -16 -17 -58 -21 -95 -6 -60 -5 -66 12
-66 26 0 284 269 264 274 -8 3 -3 4 11 3 14 -1 44 11 67 26 23 15 51 27 62 27
34 0 82 30 123 76 21 24 50 45 67 49 34 7 34 9 20 36 -8 13 -21 19 -46 19 -24
0 -42 7 -58 25 -13 14 -28 25 -35 25 -15 0 -14 17 1 22 12 4 3 28 -10 28 -4 0
-22 -9 -40 -20z m-312 -314 c0 -10 -7 -12 -22 -8 -21 5 -21 6 -2 13 10 4 20 8
22 8 1 1 2 -5 2 -13z m53 -3 c-7 -2 -19 -2 -25 0 -7 3 -2 5 12 5 14 0 19 -2
13 -5z m60 0 c-7 -2 -19 -2 -25 0 -7 3 -2 5 12 5 14 0 19 -2 13 -5z"/>
<path d="M2220 1225 c-40 -22 -42 -24 -18 -25 14 0 33 -3 41 -6 10 -3 16 4 20
23 3 15 5 29 4 30 -1 0 -22 -10 -47 -22z"/>
<path d="M2145 1180 c-3 -5 7 -26 22 -47 21 -27 29 -32 31 -20 2 9 8 17 14 17
5 0 8 -6 5 -14 -3 -8 1 -17 10 -20 20 -8 19 -9 27 42 6 39 5 42 -16 41 -21 0
-21 -1 -4 -8 16 -6 12 -10 -22 -18 -41 -11 -59 -2 -25 11 15 6 15 8 3 16 -20
13 -37 12 -45 0z"/>
<path d="M2216 1055 c4 -8 8 -15 10 -15 2 0 4 7 4 15 0 8 -4 15 -10 15 -5 0
-7 -7 -4 -15z"/>
<path d="M5822 1138 c6 -18 28 -21 28 -4 0 9 -7 16 -16 16 -9 0 -14 -5 -12
-12z"/>
<path d="M937 5716 c-6 -16 2 -28 14 -20 12 7 11 34 0 34 -5 0 -11 -6 -14 -14z"/>
<path d="M900 5699 c0 -5 5 -7 10 -4 6 3 10 8 10 11 0 2 -4 4 -10 4 -5 0 -10
-5 -10 -11z"/>
<path d="M433 2420 c-6 -15 -7 -26 -1 -29 15 -5 20 5 16 31 l-5 23 -10 -25z"/>
<path d="M307 2364 c-6 -33 -1 -42 13 -28 7 7 7 20 2 34 -9 24 -9 24 -15 -6z"/>
</g>
</svg>
