<?xml version="1.0" standalone="no"?>
<!DOCTYPE svg PUBLIC "-//W3C//DTD SVG 20010904//EN"
 "http://www.w3.org/TR/2001/REC-SVG-20010904/DTD/svg10.dtd">
<svg version="1.0" xmlns="http://www.w3.org/2000/svg"
 width="800.000000pt" height="800.000000pt" viewBox="0 0 800.000000 800.000000"
 preserveAspectRatio="xMidYMid meet">
<metadata>
Created by potrace 1.16, written by Peter Selinger 2001-2019
</metadata>
<g transform="translate(0.000000,800.000000) scale(0.100000,-0.100000)"
fill="#000000" stroke="none">
<path d="M0 4000 l0 -4000 4000 0 4000 0 0 4000 0 4000 -4000 0 -4000 0 0
-4000z m4546 3915 c-22 -17 -46 -20 -46 -6 0 10 22 18 50 20 11 0 10 -4 -4
-14z m-726 -561 c0 -45 -3 -50 -65 -102 -22 -18 -30 -20 -36 -10 -6 9 3 20 29
35 20 13 42 24 47 26 6 2 9 27 8 56 -1 31 2 49 7 46 6 -4 10 -26 10 -51z
m-887 -85 c-4 -13 -9 -17 -16 -10 -12 12 -1 45 12 37 5 -3 7 -15 4 -27z m27
-48 c0 -4 -18 -5 -40 -3 -22 2 -40 7 -40 11 0 4 18 5 40 3 22 -2 40 -7 40 -11z
m103 -132 c-17 -17 -37 -1 -22 17 8 10 15 12 23 4 7 -7 7 -13 -1 -21z m-43
-49 c0 -40 -4 -70 -10 -70 -6 0 -10 30 -10 70 0 40 4 70 10 70 6 0 10 -30 10
-70z m1918 -230 c0 -74 -2 -79 -9 -40 -11 63 -10 171 1 145 5 -11 8 -58 8
-105z m-1473 -180 c3 -5 -3 -10 -15 -10 -12 0 -18 5 -15 10 3 6 10 10 15 10 5
0 12 -4 15 -10z m80 -30 c3 -5 -3 -10 -14 -10 -12 0 -21 5 -21 10 0 6 6 10 14
10 8 0 18 -4 21 -10z m-395 -15 c0 -8 -4 -15 -10 -15 -5 0 -10 7 -10 15 0 8 5
15 10 15 6 0 10 -7 10 -15z m584 -10 c-7 -17 -20 -20 -28 -6 -7 10 3 21 20 21
8 0 11 -6 8 -15z m-274 1 c0 -11 -19 -15 -25 -6 -3 5 1 10 9 10 9 0 16 -2 16
-4z m2172 -18 c4 -28 -21 -108 -34 -108 -5 0 -16 -17 -26 -37 -14 -34 -16 -35
-20 -15 -2 12 8 42 21 65 14 24 28 59 32 80 8 41 22 49 27 15z m-2882 4 c0 -4
-20 -15 -45 -24 -25 -10 -45 -13 -45 -7 0 5 14 12 30 16 17 3 33 10 36 14 6
11 24 12 24 1z m780 -2 c0 -5 -4 -10 -10 -10 -5 0 -10 5 -10 10 0 6 5 10 10
10 6 0 10 -4 10 -10z m59 -9 c8 -15 7 -20 -6 -25 -19 -8 -34 10 -26 31 7 19
21 16 32 -6z m-176 -93 c7 -5 3 -8 -10 -8 -25 0 -28 16 -15 60 6 23 7 23 10
-10 2 -19 9 -38 15 -42z m43 50 c4 -13 18 -48 32 -78 42 -90 43 -92 31 -88 -6
2 -23 32 -39 68 -16 35 -36 67 -46 70 -13 5 -14 9 -5 14 7 5 10 14 7 22 -3 8
-1 14 4 14 5 0 12 -10 16 -22z m148 -13 c3 -8 1 -15 -4 -15 -6 0 -10 7 -10 15
0 8 2 15 4 15 2 0 6 -7 10 -15z m-3362 -57 c-6 -6 -22 -3 -43 7 -44 23 -46 25
-30 34 18 11 86 -28 73 -41z m3406 40 c-6 -18 -28 -21 -28 -4 0 9 7 16 16 16
9 0 14 -5 12 -12z m-3322 -55 c-6 -7 -45 37 -46 52 0 5 12 -3 26 -18 14 -16
23 -31 20 -34z m3524 48 c0 -17 -18 -21 -24 -6 -3 9 0 15 9 15 8 0 15 -4 15
-9z m-170 -11 c0 -5 -5 -10 -11 -10 -5 0 -7 5 -4 10 3 6 8 10 11 10 2 0 4 -4
4 -10z m1140 -11 c0 -5 -4 -9 -10 -9 -5 0 -10 7 -10 16 0 8 5 12 10 9 6 -3 10
-10 10 -16z m-2404 -3 c3 -8 4 -23 2 -33 -3 -13 -7 -9 -15 15 -12 31 1 48 13
18z m1188 -1 c4 -10 -1 -15 -14 -15 -20 0 -26 11 -13 23 10 11 20 8 27 -8z
m-194 -33 c0 -10 -21 -32 -31 -32 -4 0 -5 9 -2 20 5 19 33 29 33 12z m-3056
-18 c4 -10 1 -14 -6 -12 -15 5 -23 28 -10 28 5 0 13 -7 16 -16z m2392 -11
c-10 -10 -19 5 -10 18 6 11 8 11 12 0 2 -7 1 -15 -2 -18z m-1236 13 c0 -2 -9
-6 -20 -9 -11 -3 -20 -1 -20 4 0 5 9 9 20 9 11 0 20 -2 20 -4z m-70 -16 c-20
-13 -43 -13 -35 0 3 6 16 10 28 10 18 0 19 -2 7 -10z m2281 -4 c-6 -7 -8 -16
-4 -19 3 -4 1 -7 -5 -7 -7 0 -12 -7 -12 -16 0 -11 6 -14 20 -9 15 5 20 2 20
-14 0 -11 6 -24 14 -28 8 -4 50 -42 93 -83 44 -41 97 -92 119 -112 21 -20 47
-48 57 -62 16 -23 25 -26 77 -26 60 0 60 0 60 -30 0 -16 -4 -30 -10 -30 -5 0
-10 8 -10 19 0 15 -10 20 -60 25 -33 4 -60 11 -60 16 0 10 -225 233 -240 238
-5 2 -32 25 -60 51 -46 42 -50 49 -42 72 6 15 18 25 32 26 16 1 19 -1 11 -11z
m-891 -27 c0 -5 -4 -9 -10 -9 -5 0 -10 7 -10 16 0 8 5 12 10 9 6 -3 10 -10 10
-16z m1740 6 c-7 -9 -15 -13 -17 -11 -7 7 7 26 19 26 6 0 6 -6 -2 -15z m-30
-5 c0 -5 -5 -10 -11 -10 -5 0 -7 5 -4 10 3 6 8 10 11 10 2 0 4 -4 4 -10z m132
-20 c3 -15 -2 -20 -22 -20 -11 0 -14 33 -3 43 8 9 20 -3 25 -23z m408 0 c0
-22 -19 -34 -67 -45 -20 -4 -33 -3 -33 3 0 6 18 13 40 17 26 4 41 13 45 26 8
25 15 24 15 -1z m-340 0 c0 -5 -7 -10 -16 -10 -8 0 -12 5 -9 10 3 6 10 10 16
10 5 0 9 -4 9 -10z m-1420 -15 c0 -8 -4 -15 -9 -15 -13 0 -22 16 -14 24 11 11
23 6 23 -9z m280 -65 c0 -14 -14 -12 -29 3 -7 6 -2 -10 10 -38 12 -27 46 -108
74 -180 47 -117 55 -130 79 -133 30 -4 34 -18 7 -27 -18 -5 -18 -9 -5 -53 8
-26 13 -54 11 -62 -2 -8 -11 10 -20 40 -34 111 -75 205 -92 208 -11 3 -16 13
-15 30 3 47 1 58 -21 81 -12 12 -19 25 -15 28 3 3 -4 23 -15 45 -26 51 -19 94
11 78 11 -6 20 -15 20 -20z m845 -162 l7 -128 39 6 c26 4 39 3 39 -5 0 -6 -9
-11 -21 -11 -42 0 -56 -17 -64 -75 -3 -31 -20 -81 -36 -111 -16 -31 -29 -66
-29 -78 0 -23 -16 -53 -24 -45 -8 8 13 91 38 149 14 30 28 77 32 104 l7 49
-49 -6 c-119 -16 -194 -19 -194 -10 0 6 43 13 95 17 145 10 157 14 151 45 -10
51 -16 266 -7 246 4 -11 12 -77 16 -147z m-1561 126 c3 -9 6 -28 6 -42 -1 -31
-13 -15 -24 31 -7 29 8 38 18 11z m551 6 c3 -5 2 -10 -4 -10 -5 0 -13 5 -16
10 -3 6 -2 10 4 10 5 0 13 -4 16 -10z m4253 -2 c-6 -18 -28 -21 -28 -4 0 9 7
16 16 16 9 0 14 -5 12 -12z m-4834 -42 c-7 -30 -22 -43 -34 -30 -11 13 19 79
31 67 6 -6 7 -22 3 -37z m97 19 c-1 -15 -24 -12 -29 3 -3 9 2 13 12 10 10 -1
17 -7 17 -13z m26 -44 c1 -14 -3 -18 -13 -14 -15 6 -18 16 -7 26 11 12 19 8
20 -12z m2701 -8 c-4 -22 -22 -20 -26 1 -2 10 3 16 13 16 10 0 15 -7 13 -17z
m-3267 -9 c12 -14 11 -16 -5 -13 -11 2 -21 10 -24 17 -5 17 13 15 29 -4z
m1119 -28 c-14 -14 -22 -2 -14 18 5 14 9 15 15 4 4 -7 4 -17 -1 -22z m1540 -3
c0 -20 -3 -24 -11 -16 -7 7 -9 19 -6 27 10 24 17 19 17 -11z m-3800 -3 c0 -5
-9 -10 -21 -10 -11 0 -17 5 -14 10 3 6 13 10 21 10 8 0 14 -4 14 -10z m1740
-9 c0 -5 -7 -12 -16 -15 -24 -9 -28 -7 -14 9 14 17 30 20 30 6z m-1656 -10 c7
-10 -22 -37 -30 -28 -9 8 3 37 15 37 5 0 12 -4 15 -9z m3629 -37 c26 -9 47
-20 47 -26 0 -5 -4 -6 -10 -3 -5 3 -18 2 -27 -2 -13 -7 -26 -1 -47 19 -33 32
-27 34 37 12z m-313 -62 c0 -13 -12 -22 -22 -16 -10 6 -1 24 13 24 5 0 9 -4 9
-8z m-2486 -64 c4 -17 2 -28 -4 -28 -5 0 -10 -12 -10 -26 0 -15 -4 -23 -11
-19 -6 4 -8 13 -5 21 3 8 -1 14 -10 14 -15 0 -15 22 3 83 5 18 5 18 17 0 7
-10 16 -30 20 -45z m3218 21 c-4 -4 -19 -9 -34 -13 -22 -5 -25 -3 -21 13 3 11
15 21 27 23 22 3 41 -12 28 -23z m-2918 -42 c-3 -9 -10 -17 -15 -17 -11 0 -12
34 -2 43 11 12 24 -8 17 -26z m1676 9 c0 -8 -4 -18 -10 -21 -5 -3 -10 3 -10
14 0 12 5 21 10 21 6 0 10 -6 10 -14z m177 -11 c2 -6 -6 -11 -17 -11 -11 0
-20 6 -20 14 0 15 32 13 37 -3z m-319 -70 c-5 -27 -9 -60 -10 -72 0 -13 -4
-21 -8 -18 -4 2 -14 -13 -23 -35 -14 -37 -14 -40 4 -45 10 -4 28 -3 39 0 22 7
23 5 14 -18 -5 -14 -10 -14 -50 0 -24 8 -44 16 -44 18 0 2 13 36 30 76 16 41
30 85 30 99 0 14 3 36 7 49 11 44 21 -1 11 -54z m-990 -6 c-19 -12 -22 7 -7
44 l14 32 3 -34 c2 -20 -2 -37 -10 -42z m2437 51 c-12 -20 -266 -211 -275
-208 -6 2 31 35 82 73 51 39 99 77 108 85 42 41 101 75 85 50z m-3125 -21 c0
-11 -4 -17 -10 -14 -5 3 -10 13 -10 21 0 8 5 14 10 14 6 0 10 -9 10 -21z
m3700 -75 c3 -54 1 -61 -10 -44 -5 8 -9 40 -9 70 0 40 3 49 9 34 4 -12 9 -39
10 -60z m-3720 31 c0 -8 -4 -15 -10 -15 -5 0 -10 7 -10 15 0 8 5 15 10 15 6 0
10 -7 10 -15z m2036 -1 c13 -3 24 -11 24 -16 0 -6 -7 -7 -16 -4 -9 3 -27 9
-40 12 -13 3 -24 11 -24 16 0 6 7 7 16 4 9 -3 27 -9 40 -12z m1864 -8 c0 -7
-6 -19 -14 -25 -19 -16 -31 4 -14 23 17 19 28 20 28 2z m-4093 -31 c-11 -38
-23 -45 -29 -17 -4 16 18 50 34 51 3 1 1 -15 -5 -34z m443 20 c0 -3 -6 -20
-13 -38 -8 -19 -11 -40 -6 -52 11 -29 11 -85 -1 -85 -5 0 -10 14 -10 31 0 40
-16 69 -40 69 -10 0 -22 5 -26 11 -5 8 3 10 23 7 27 -4 32 0 42 29 7 18 17 33
22 33 5 0 9 -2 9 -5z m1155 -15 c4 -6 -5 -10 -20 -10 -15 0 -24 4 -20 10 3 6
12 10 20 10 8 0 17 -4 20 -10z m485 -45 c0 -8 -7 -15 -15 -15 -9 0 -12 6 -9
15 4 8 10 15 15 15 5 0 9 -7 9 -15z m-1500 -9 c0 -3 -4 -8 -10 -11 -5 -3 -10
-1 -10 4 0 6 5 11 10 11 6 0 10 -2 10 -4z m1180 -30 c0 -1 -5 -17 -11 -35 -10
-29 -29 -43 -29 -22 0 20 20 61 30 61 5 0 10 -2 10 -4z m-1360 -13 c0 -10 -28
-31 -34 -26 -3 4 -6 1 -6 -6 0 -8 -5 -7 -16 3 -8 9 -20 16 -25 16 -5 0 -9 3
-9 8 0 4 20 7 45 8 25 0 45 -1 45 -3z m1316 -20 c-4 -16 -9 -36 -12 -46 -6
-18 -4 -18 26 -2 18 9 34 14 36 12 5 -5 -58 -47 -70 -47 -10 0 -7 70 4 91 15
28 23 23 16 -8z m654 -33 c0 -22 4 -28 15 -24 11 5 13 2 9 -10 -3 -9 -9 -14
-13 -12 -4 3 -16 -29 -26 -70 -10 -41 -22 -77 -27 -80 -13 -8 -9 27 11 88 13
36 17 70 14 97 -4 27 -2 41 6 41 6 0 11 -13 11 -30z m1408 -16 c1 -1 -4 -14
-13 -30 -14 -27 -15 -27 -16 -6 -2 35 -3 40 -11 48 -19 18 -6 25 15 8 12 -10
23 -19 25 -20z m-2848 0 c0 -8 -4 -12 -10 -9 -5 3 -10 10 -10 16 0 5 5 9 10 9
6 0 10 -7 10 -16z m715 -54 c-28 -12 -37 -12 -30 0 3 6 16 10 28 9 21 0 21 -1
2 -9z m68 -24 c6 -15 -1 -26 -15 -26 -4 0 -8 9 -8 20 0 23 15 27 23 6z m362
-46 c29 24 34 4 5 -23 -16 -16 -30 -24 -30 -17 0 6 -7 22 -17 36 l-16 25 -23
-28 c-12 -15 -25 -26 -28 -23 -3 3 7 21 21 39 l27 34 23 -28 c19 -22 26 -25
38 -15z m200 19 c11 -11 -19 -11 -92 -3 -29 4 -53 10 -53 14 0 10 133 0 145
-11z m455 11 c0 -6 -10 -14 -22 -19 -13 -5 -49 -21 -80 -35 -32 -14 -58 -21
-58 -16 0 6 33 26 73 44 81 38 87 40 87 26z m-1089 -33 c-8 -8 -11 -7 -11 4 0
20 13 34 18 19 3 -7 -1 -17 -7 -23z m-356 -17 c22 -43 19 -47 -15 -15 -33 32
-38 45 -15 45 8 0 21 -13 30 -30z m45 10 c0 -5 -4 -10 -10 -10 -5 0 -10 5 -10
10 0 6 5 10 10 10 6 0 10 -4 10 -10z m448 -30 c4 0 24 5 44 10 26 8 50 8 78 0
43 -12 46 -16 26 -42 -17 -24 -29 -23 -21 1 8 27 -26 33 -87 15 l-50 -15 7
-37 c4 -20 6 -52 6 -69 -1 -24 2 -31 12 -27 10 4 13 -3 9 -28 -6 -42 -15 -48
-79 -48 -54 0 -70 13 -32 25 12 4 18 12 15 21 -3 8 -1 14 4 14 6 0 10 7 10 15
0 14 6 17 27 14 23 -2 19 65 -8 114 -6 11 -6 17 1 17 5 0 10 11 10 23 0 31 14
45 18 18 2 -12 6 -21 10 -21z m688 3 c-11 -11 -19 6 -11 24 8 17 8 17 12 0 3
-10 2 -21 -1 -24z m694 28 c0 -6 -4 -13 -10 -16 -5 -3 -10 1 -10 9 0 9 5 16
10 16 6 0 10 -4 10 -9z m-1940 -11 c0 -5 -4 -10 -10 -10 -5 0 -10 5 -10 10 0
6 5 10 10 10 6 0 10 -4 10 -10z m484 -5 c-4 -8 -8 -15 -10 -15 -2 0 -4 7 -4
15 0 8 4 15 10 15 5 0 7 -7 4 -15z m326 -46 c0 -5 -4 -8 -9 -5 -5 3 -12 -1
-15 -10 -4 -9 -9 -14 -13 -11 -7 8 15 37 28 37 5 0 9 -5 9 -11z m722 -36 c-42
-52 -92 -99 -92 -85 0 14 111 134 118 128 2 -3 -9 -22 -26 -43z m825 27 c1
-11 -4 -20 -12 -20 -20 0 -30 21 -14 31 21 13 25 11 26 -11z m-588 -29 c34
-67 107 -298 97 -308 -3 -3 -8 0 -10 8 -3 8 -21 61 -40 118 -19 56 -37 105
-40 108 -2 3 -24 -1 -47 -9 -34 -11 -45 -21 -51 -45 -6 -23 -17 -34 -48 -46
-52 -20 -54 -20 -58 -9 -1 5 7 13 20 17 13 4 26 8 31 10 4 1 14 3 22 4 8 0 15
11 15 24 0 32 9 41 62 61 45 17 46 18 36 47 -5 16 -14 32 -19 35 -12 7 -11 24
1 24 5 0 19 -17 29 -39z m-1661 11 c2 -7 -2 -10 -12 -6 -9 3 -16 11 -16 16 0
13 23 5 28 -10z m207 4 c19 -13 18 -14 -8 -13 -15 1 -27 8 -27 15 0 16 12 15
35 -2z m55 -16 c0 -5 -4 -10 -10 -10 -5 0 -10 5 -10 10 0 6 5 10 10 10 6 0 10
-4 10 -10z m-571 -31 c13 -17 20 -33 16 -37 -6 -6 -54 46 -55 61 0 16 18 5 39
-24z m1030 -15 c-9 -22 -13 -25 -16 -12 -5 19 18 69 24 52 2 -6 -2 -24 -8 -40z
m-709 16 c0 -5 -4 -10 -10 -10 -5 0 -10 5 -10 10 0 6 5 10 10 10 6 0 10 -4 10
-10z m304 -5 c-4 -8 -8 -15 -10 -15 -2 0 -4 7 -4 15 0 8 4 15 10 15 5 0 7 -7
4 -15z m2061 -37 c7 -6 -17 -7 -69 -3 -48 5 -81 4 -85 -2 -3 -6 -14 -2 -26 10
-20 19 -19 19 75 12 52 -4 100 -11 105 -17z m-2005 2 c0 -5 -4 -10 -10 -10 -5
0 -10 5 -10 10 0 6 5 10 10 10 6 0 10 -4 10 -10z m1090 0 c0 -5 -6 -10 -14
-10 -8 0 -18 5 -21 10 -3 6 3 10 14 10 12 0 21 -4 21 -10z m-1713 -34 c-10
-26 -25 -18 -19 10 3 17 8 22 15 15 5 -5 7 -17 4 -25z m213 14 c0 -5 -4 -10
-9 -10 -6 0 -13 5 -16 10 -3 6 1 10 9 10 9 0 16 -4 16 -10z m-511 -34 c9 -10
9 -16 1 -21 -16 -10 -40 2 -40 20 0 19 24 20 39 1z m-459 -25 c-13 -11 -29
-17 -34 -14 -5 3 2 12 15 19 36 20 48 16 19 -5z m1070 9 c0 -5 -2 -10 -4 -10
-3 0 -8 5 -11 10 -3 6 -1 10 4 10 6 0 11 -4 11 -10z m-869 -53 c-8 -8 -11 -5
-11 9 0 27 14 41 18 19 2 -9 -1 -22 -7 -28z m-249 15 c-18 -6 -16 -107 2 -122
12 -9 20 -3 44 35 29 46 87 92 96 76 3 -4 -9 -16 -27 -26 -20 -10 -45 -38 -62
-69 -28 -50 -61 -85 -79 -86 -5 0 0 10 12 23 l22 24 -21 19 c-16 15 -20 27
-16 55 3 20 1 42 -3 50 -10 15 19 41 34 31 6 -3 5 -7 -2 -10z m1068 8 c0 -5
-7 -10 -16 -10 -8 0 -12 5 -9 10 3 6 10 10 16 10 5 0 9 -4 9 -10z m-209 -41
c9 -17 8 -25 -5 -37 -12 -13 -18 -13 -30 -2 -19 15 -21 46 -3 53 21 9 26 7 38
-14z m257 -8 c10 -29 7 -41 -11 -41 -5 0 -7 9 -4 20 3 11 1 23 -4 26 -12 7
-12 24 0 24 5 0 14 -13 19 -29z m-338 -1 c0 -5 -4 -10 -10 -10 -5 0 -10 5 -10
10 0 6 5 10 10 10 6 0 10 -4 10 -10z m-243 -77 c1 -40 -1 -52 -7 -38 -14 34
-11 95 5 95 1 0 2 -26 2 -57z m1418 38 c3 -5 1 -12 -5 -16 -5 -3 -10 1 -10 9
0 18 6 21 15 7z m1019 -6 c-4 -8 -8 -15 -10 -15 -2 0 -4 7 -4 15 0 8 4 15 10
15 5 0 7 -7 4 -15z m827 -16 c11 -5 17 -15 13 -20 -4 -7 2 -6 16 1 27 14 35 8
21 -17 -7 -12 -10 -13 -11 -4 0 10 -3 11 -14 2 -11 -9 -18 -6 -36 19 -23 32
-20 36 11 19z m-3338 -43 c-19 -26 -33 -33 -33 -16 0 13 40 53 47 47 3 -3 -3
-17 -14 -31z m467 30 c0 -11 -19 -15 -25 -6 -3 5 1 10 9 10 9 0 16 -2 16 -4z
m154 -85 l-8 -46 -6 35 c-3 19 -1 51 5 70 9 31 10 32 13 11 2 -13 0 -45 -4
-70z m866 75 c0 -15 -14 -35 -21 -30 -15 9 -10 34 6 34 8 0 15 -2 15 -4z
m-330 -21 c0 -8 -4 -15 -10 -15 -5 0 -10 7 -10 15 0 8 5 15 10 15 6 0 10 -7
10 -15z m380 5 c0 -5 -4 -10 -10 -10 -5 0 -10 5 -10 10 0 6 5 10 10 10 6 0 10
-4 10 -10z m1805 -10 c3 -5 -3 -10 -14 -10 -12 0 -21 5 -21 10 0 6 6 10 14 10
8 0 18 -4 21 -10z m-2990 -48 c-3 -3 -13 2 -23 11 -15 16 -15 19 -2 27 11 7
17 4 23 -12 4 -11 5 -23 2 -26z m2912 34 c-5 -16 -27 -19 -27 -3 0 7 7 14 15
14 9 0 14 -5 12 -11z m-2307 -11 c-7 -8 -16 -12 -21 -9 -13 8 -1 24 18 24 13
0 13 -3 3 -15z m2416 0 c-22 -17 -46 -20 -46 -6 0 11 18 19 45 20 20 0 20 0 1
-14z m-1716 -32 c0 -26 -3 -34 -11 -26 -9 9 -3 63 7 63 2 0 4 -17 4 -37z
m1570 2 c-7 -8 -17 -15 -22 -15 -6 0 -5 7 2 15 7 8 17 15 22 15 6 0 5 -7 -2
-15z m860 -5 c0 -11 -2 -20 -4 -20 -2 0 -11 -3 -20 -6 -11 -4 -16 0 -16 14 0
18 11 29 33 31 4 1 7 -8 7 -19z m-4015 0 c4 -6 -5 -10 -20 -10 -15 0 -24 4
-20 10 3 6 12 10 20 10 8 0 17 -4 20 -10z m795 -45 c0 -8 -7 -15 -15 -15 -8 0
-15 7 -15 15 0 8 7 15 15 15 8 0 15 -7 15 -15z m325 -15 c-3 -5 -11 -10 -16
-10 -6 0 -7 5 -4 10 3 6 11 10 16 10 6 0 7 -4 4 -10z m-365 -25 c0 -9 -9 -15
-25 -15 -31 0 -33 17 -2 23 12 2 23 5 25 6 1 0 2 -6 2 -14z m2415 -5 c3 -5 1
-10 -4 -10 -6 0 -11 5 -11 10 0 6 2 10 4 10 3 0 8 -4 11 -10z m-4445 -14 c0
-13 -29 -31 -37 -23 -2 2 -1 12 3 21 8 20 34 21 34 2z m4340 -6 c-8 -5 -17 -7
-19 -4 -3 3 1 9 9 14 8 5 17 7 19 4 3 -3 -1 -9 -9 -14z m-4077 -10 c-3 -11 -9
-20 -14 -20 -11 0 -11 3 -3 24 9 23 23 20 17 -4z m2083 -37 c-7 -7 -26 7 -26
19 0 6 6 6 15 -2 9 -7 13 -15 11 -17z m-2903 2 c54 -10 46 -27 -10 -21 l-48 5
43 -10 c23 -6 42 -14 42 -19 0 -14 -79 9 -99 29 -22 22 -16 34 14 27 11 -2 37
-8 58 -11z m727 -5 c0 -5 -5 -10 -11 -10 -5 0 -7 5 -4 10 3 6 8 10 11 10 2 0
4 -4 4 -10z m2040 0 c0 -5 -7 -10 -16 -10 -8 0 -12 5 -9 10 3 6 10 10 16 10 5
0 9 -4 9 -10z m98 -39 c18 -11 -9 -34 -31 -25 -13 5 -14 9 -4 20 14 16 18 16
35 5z m-748 -25 c0 -9 -7 -12 -21 -9 -16 4 -17 8 -7 14 19 13 28 11 28 -5z
m-315 -19 c8 -13 19 -45 24 -72 5 -28 18 -55 29 -64 27 -22 94 -130 89 -144
-2 -7 -21 15 -42 48 -21 33 -51 75 -67 93 -16 19 -28 44 -28 60 0 15 -9 42
-20 60 -23 37 -24 42 -10 42 5 0 16 -10 25 -23z m96 -1 c-8 -10 -10 -27 -6
-47 5 -24 4 -30 -6 -27 -22 7 -24 70 -3 85 22 16 31 9 15 -11z m436 -8 c-3 -7
-5 -2 -5 12 0 14 2 19 5 13 2 -7 2 -19 0 -25z m793 20 c0 -7 -12 -21 -25 -31
-24 -17 -25 -17 -25 0 0 15 8 22 48 42 1 0 2 -5 2 -11z m1506 -10 c-10 -6 -20
-7 -24 -3 -9 8 20 25 31 18 5 -3 2 -10 -7 -15z m-3736 -24 c0 -2 -7 -4 -15 -4
-8 0 -15 4 -15 10 0 5 7 7 15 4 8 -4 15 -8 15 -10z m-840 -3 c0 -6 10 -9 23
-9 40 3 80 -2 74 -8 -10 -10 -111 -11 -124 -1 -19 14 -16 27 7 27 11 0 20 -4
20 -9z m2496 -49 c-12 -11 -17 7 -9 34 l8 29 3 -28 c2 -16 1 -31 -2 -35z m818
29 c3 -5 -1 -11 -9 -15 -9 -3 -15 0 -15 9 0 16 16 20 24 6z m-134 -17 c0 -17
-22 -14 -28 4 -2 7 3 12 12 12 9 0 16 -7 16 -16z m92 1 c0 -5 -5 -11 -11 -13
-6 -2 -11 4 -11 13 0 9 5 15 11 13 6 -2 11 -8 11 -13z m-2227 -15 c3 -5 2 -10
-4 -10 -5 0 -13 5 -16 10 -3 6 -2 10 4 10 5 0 13 -4 16 -10z m778 -21 c4 -15
2 -19 -9 -15 -8 3 -14 0 -14 -6 0 -6 -3 -9 -6 -5 -8 7 5 47 16 47 4 0 10 -9
13 -21z m-588 -19 c3 -5 1 -10 -5 -10 -7 0 -10 -7 -6 -15 6 -17 -2 -19 -22 -6
-11 7 -10 9 3 15 9 3 13 10 10 16 -3 5 -2 10 4 10 5 0 13 -4 16 -10z m3015 0
c0 -5 -7 -10 -15 -10 -8 0 -15 5 -15 10 0 6 7 10 15 10 8 0 15 -4 15 -10z
m-1076 -31 c-10 -16 -24 -9 -24 12 0 18 2 19 15 9 8 -7 12 -16 9 -21z m-519
-14 c300 -35 305 -35 305 -44 0 -10 -522 49 -534 60 -13 12 -22 13 229 -16z
m1565 -7 c0 -6 -7 -5 -15 2 -8 7 -15 17 -15 22 0 6 7 5 15 -2 8 -7 15 -17 15
-22z m-3428 0 c-7 -7 -12 -8 -12 -2 0 14 12 26 19 19 2 -3 -1 -11 -7 -17z
m1157 -5 c1 -1 0 -7 -4 -13 -9 -14 -35 6 -35 27 0 13 3 13 18 2 9 -7 19 -14
21 -16z m-886 -1 c-4 -18 14 -24 165 -50 l52 -9 0 28 c0 16 -4 29 -10 29 -5 0
-10 5 -10 10 0 6 9 10 20 10 19 0 25 -16 21 -61 -1 -8 10 -21 24 -27 39 -18
22 -31 -27 -21 -22 6 -46 13 -51 16 -9 6 -31 9 -207 32 -41 6 -76 15 -78 21
-2 5 -15 10 -28 10 -13 0 -24 5 -24 11 0 10 76 6 123 -7 11 -4 17 0 17 10 0 9
4 16 9 16 5 0 7 -8 4 -18z m2145 -2 c15 -1 14 -3 -2 -15 -26 -20 -33 -19 -39
6 -4 15 -2 19 10 15 8 -3 22 -6 31 -6z m657 0 c4 -6 -5 -10 -19 -10 -14 0 -26
5 -26 10 0 6 9 10 19 10 11 0 23 -4 26 -10z m-715 -52 c0 -11 8 -18 20 -18 11
0 20 -4 20 -10 0 -5 -7 -10 -15 -10 -8 0 -15 -7 -15 -16 0 -24 35 -12 38 14 4
24 32 31 32 8 0 -34 -13 -45 -58 -51 -26 -4 -54 -9 -62 -12 -8 -3 -23 -5 -32
-4 -10 1 -18 -3 -18 -9 0 -22 -63 -38 -128 -33 -51 3 -69 0 -95 -16 -23 -14
-37 -17 -49 -10 -14 7 -17 2 -23 -31 -4 -22 -11 -38 -16 -34 -5 3 -9 -4 -9
-15 0 -20 4 -21 54 -15 35 4 56 3 60 -5 5 -7 -7 -11 -36 -11 -57 0 -88 -9 -88
-26 0 -8 -5 -14 -11 -14 -7 0 -9 12 -5 35 4 22 3 35 -4 35 -5 0 -10 5 -10 11
0 5 5 7 10 4 17 -10 23 24 10 55 -10 24 -19 30 -44 31 -17 1 -42 5 -56 10 -18
6 -9 8 34 5 50 -2 59 0 64 16 8 31 48 23 61 -12 12 -35 16 -36 56 -11 17 10
45 21 63 25 18 3 46 9 63 12 32 7 72 38 62 48 -4 3 6 6 20 6 17 0 27 5 27 15
0 8 -9 15 -20 15 -11 0 -20 4 -20 9 0 4 11 6 25 3 20 -3 25 0 25 17 0 12 6 21
15 21 8 0 15 -4 15 -10 0 -5 5 -10 10 -10 6 0 10 8 10 18 0 14 2 15 10 2 5 -8
10 -23 10 -32z m-1806 23 c3 -5 -1 -14 -9 -21 -13 -10 -15 -9 -15 9 0 21 14
28 24 12z m666 -6 c7 -9 11 -18 8 -20 -9 -10 -38 7 -38 21 0 18 14 18 30 -1z
m727 -17 c-3 -8 -6 -5 -6 6 -1 11 2 17 5 13 3 -3 4 -12 1 -19z m1439 3 c10
-13 24 -12 106 3 115 22 163 16 58 -6 -133 -29 -148 -30 -174 -13 -25 16 -25
16 -31 -22 -11 -72 -28 -123 -39 -123 -52 -1 -263 25 -271 33 -7 6 19 7 75 2
47 -5 110 -9 140 -9 l55 -1 11 56 c6 31 14 61 18 68 4 7 1 9 -8 5 -8 -3 -18
-14 -21 -25 -9 -29 -39 -41 -70 -29 -35 13 -55 13 -55 -1 0 -35 -70 -50 -107
-24 -20 14 -29 11 -134 -46 -85 -47 -114 -69 -122 -90 -6 -15 -20 -33 -32 -39
-16 -9 -20 -18 -17 -41 4 -25 1 -29 -21 -29 -13 0 -30 7 -37 15 -10 13 -10 19
5 35 26 29 15 41 -22 25 -29 -12 -33 -18 -33 -53 0 -48 -16 -63 -60 -59 -51 6
-62 37 -42 120 16 67 32 88 32 42 0 -14 -5 -45 -12 -70 -13 -49 -5 -64 34 -65
20 0 34 38 20 52 -7 7 -3 18 12 35 18 19 36 26 84 30 57 5 63 8 81 39 38 64
244 141 302 113 11 -6 22 -2 34 11 24 26 72 35 103 19 22 -12 26 -12 30 0 17
50 82 75 108 42z m-1374 -6 c0 -5 -5 -11 -11 -13 -6 -2 -11 4 -11 13 0 9 5 15
11 13 6 -2 11 -8 11 -13z m-2637 -48 c0 -26 -3 -47 -7 -47 -4 0 -8 5 -8 10 0
6 -7 10 -15 10 -8 0 -19 9 -25 19 -14 27 -13 34 4 28 9 -4 17 2 21 14 12 35
30 14 30 -34z m2269 38 c-5 -12 -10 -13 -20 -4 -19 15 -18 19 6 19 13 0 18 -5
14 -15z m2446 -24 c0 -5 -7 -14 -15 -21 -12 -10 -15 -10 -15 2 0 8 3 18 7 21
9 10 23 9 23 -2z m-1380 -21 c0 -4 -7 -10 -15 -14 -8 -3 -15 -4 -15 -2 0 3 -3
11 -6 19 -4 12 0 14 15 10 12 -3 21 -9 21 -13z m-890 -17 c0 -13 -6 -23 -12
-23 -32 0 -58 14 -58 30 0 13 8 17 35 16 29 -1 35 -5 35 -23z m250 23 c0 -3
-4 -8 -10 -11 -5 -3 -10 -1 -10 4 0 6 5 11 10 11 6 0 10 -2 10 -4z m-633 -22
c-3 -3 -12 -4 -19 -1 -8 3 -5 6 6 6 11 1 17 -2 13 -5z m2406 -30 c-8 -21 -23
-17 -23 6 0 13 5 18 14 14 8 -3 12 -12 9 -20z m-2731 -44 c-2 -22 -6 -40 -8
-40 -2 0 -4 18 -4 40 0 22 3 40 8 40 4 0 6 -18 4 -40z m1338 -5 c-25 -27 -23
-40 4 -29 9 3 16 13 16 22 0 12 3 13 11 5 18 -18 2 -43 -27 -43 -38 0 -114 40
-107 56 3 8 18 14 34 14 29 0 38 -13 19 -25 -5 -3 -10 -11 -10 -16 0 -6 17 3
37 20 43 35 57 33 23 -4z m-1840 3 c0 -19 -2 -20 -10 -8 -13 19 -13 30 0 30 6
0 10 -10 10 -22z m317 -35 c-3 -10 -5 -4 -5 12 0 17 2 24 5 18 2 -7 2 -21 0
-30z m813 7 c0 -5 -4 -10 -9 -10 -6 0 -13 5 -16 10 -3 6 1 10 9 10 9 0 16 -4
16 -10z m2004 -5 c-7 -17 -20 -20 -28 -6 -7 10 3 21 20 21 8 0 11 -6 8 -15z
m1121 -65 c-12 -58 -12 -60 9 -61 11 0 15 -3 8 -6 -7 -3 -24 -2 -38 1 -23 6
-23 8 -8 30 8 14 14 30 14 38 -3 19 11 58 20 58 4 0 2 -27 -5 -60z m-4435 40
c0 -5 -18 -10 -40 -10 -22 0 -40 5 -40 10 0 6 18 10 40 10 22 0 40 -4 40 -10z
m702 -21 c-2 -8 -7 -16 -11 -19 -7 -4 -41 -100 -41 -114 0 -3 32 -15 70 -27
39 -13 70 -27 70 -31 0 -11 3 -11 -78 16 l-72 25 0 -32 c0 -18 -5 -39 -11 -47
-8 -11 -9 -3 -5 31 l5 46 -40 12 c-21 7 -44 9 -49 6 -6 -3 -10 -2 -10 3 0 9
-43 32 -59 32 -5 0 -11 -9 -14 -21 -3 -12 -10 -18 -16 -15 -6 4 -6 17 -2 34
13 44 54 118 58 105 2 -6 -3 -25 -11 -42 -9 -16 -16 -33 -16 -36 0 -5 40 -23
65 -29 6 -2 17 -6 25 -9 69 -29 67 -29 84 20 20 57 20 63 1 63 -8 0 -15 5 -15
10 0 6 7 10 15 10 9 0 18 6 21 14 7 18 40 13 36 -5z m619 6 c-1 -15 -24 -12
-29 3 -3 9 2 13 12 10 10 -1 17 -7 17 -13z m704 5 c-3 -5 -11 -10 -16 -10 -6
0 -7 5 -4 10 3 6 11 10 16 10 6 0 7 -4 4 -10z m2375 -16 c0 -8 -4 -12 -10 -9
-5 3 -10 10 -10 16 0 5 5 9 10 9 6 0 10 -7 10 -16z m-2590 -16 c0 -16 -3 -19
-11 -11 -6 6 -8 16 -5 22 11 17 16 13 16 -11z m-1894 -13 c-3 -8 2 -22 11 -30
14 -15 14 -18 0 -32 -14 -14 -16 -13 -26 5 -11 20 0 72 15 72 3 0 4 -7 0 -15z
m1864 5 c0 -5 -5 -10 -11 -10 -5 0 -7 5 -4 10 3 6 8 10 11 10 2 0 4 -4 4 -10z
m945 -11 c11 -17 0 -20 -21 -4 -17 13 -17 14 -2 15 9 0 20 -5 23 -11z m-755
-20 c0 -5 -4 -9 -10 -9 -5 0 -10 7 -10 16 0 8 5 12 10 9 6 -3 10 -10 10 -16z
m1335 12 c3 -5 -8 -19 -25 -31 -35 -25 -41 -11 -8 20 25 23 25 23 33 11z
m-1554 -64 c-13 -13 -15 1 -4 30 7 17 8 17 11 -1 2 -10 -1 -23 -7 -29z m2909
23 c0 -5 -2 -10 -4 -10 -3 0 -8 5 -11 10 -3 6 -1 10 4 10 6 0 11 -4 11 -10z
m-4800 -25 c0 -6 -10 -9 -21 -7 -12 2 -28 -3 -37 -11 -10 -7 -43 -19 -75 -26
-50 -11 -63 -10 -102 5 -55 21 -50 38 6 19 47 -17 127 -5 169 25 24 18 63 14
60 -5z m5010 15 c0 -5 -4 -10 -10 -10 -5 0 -10 5 -10 10 0 6 5 10 10 10 6 0
10 -4 10 -10z m-2530 -86 c0 -14 -4 -23 -9 -20 -5 3 -7 15 -4 26 7 28 13 25
13 -6z m-606 -15 c12 -21 15 -34 8 -41 -7 -7 -15 -1 -26 20 -29 56 -13 74 18
21z m1827 -53 c40 -5 58 -11 52 -17 -16 -16 -145 8 -163 30 -9 9 -28 26 -43
35 -15 10 -24 22 -21 27 3 5 30 -8 59 -30 44 -31 67 -40 116 -45z m-2131 64
c0 -5 -2 -10 -4 -10 -3 0 -8 5 -11 10 -3 6 -1 10 4 10 6 0 11 -4 11 -10z m713
-7 c-7 -2 -19 -2 -25 0 -7 3 -2 5 12 5 14 0 19 -2 13 -5z m-307 -30 c-3 -3 2
-13 11 -22 15 -15 15 -16 -3 -20 -10 -2 -25 -8 -33 -15 -12 -9 -13 -8 -8 7 4
11 2 17 -8 17 -18 0 -18 -5 -5 -31 13 -23 -2 -26 -24 -4 -17 17 -11 45 9 45 8
0 10 9 7 25 -4 24 -3 24 27 14 18 -6 30 -14 27 -16z m224 17 c0 -5 -7 -10 -15
-10 -8 0 -15 5 -15 10 0 6 7 10 15 10 8 0 15 -4 15 -10z m-1540 -10 c0 -5 -4
-10 -10 -10 -5 0 -10 5 -10 10 0 6 5 10 10 10 6 0 10 -4 10 -10z m1624 4 c9
-3 16 -15 16 -25 0 -27 -13 -24 -27 6 -12 27 -12 28 11 19z m-1074 -19 c-7 -8
-16 -15 -20 -15 -3 0 -7 7 -7 15 0 8 9 15 20 15 16 0 17 -3 7 -15z m896 -30
c12 -51 1 -61 -15 -14 -13 37 -14 59 -3 59 4 0 12 -20 18 -45z m382 17 c2 -7
-2 -10 -12 -6 -9 3 -16 11 -16 16 0 13 23 5 28 -10z m-147 -15 c-13 -13 -26
-3 -16 12 3 6 11 8 17 5 6 -4 6 -10 -1 -17z m1183 -10 c-3 -9 -12 -17 -19 -17
-10 0 -11 5 -2 24 13 27 32 20 21 -7z m-1364 7 c0 -17 -22 -14 -28 4 -2 7 3
12 12 12 9 0 16 -7 16 -16z m1150 -82 c-43 -90 -50 -64 -8 29 19 44 34 67 36
56 2 -10 -11 -48 -28 -85z m-1237 81 c4 -3 -2 -13 -14 -21 -24 -17 -37 -9 -19
13 14 16 23 19 33 8z m437 -25 c0 -19 -2 -20 -10 -8 -13 19 -13 30 0 30 6 0
10 -10 10 -22z m-1800 -33 c4 -5 4 -35 1 -65 -5 -46 -8 -51 -14 -30 -11 36
-16 101 -9 125 l6 20 4 -20 c2 -11 7 -24 12 -30z m1509 13 c0 -7 -4 -22 -9
-33 -7 -18 -8 -19 -15 -2 -4 9 -5 24 -1 32 7 18 26 20 25 3z m341 -4 c0 -14
-3 -14 -15 -4 -8 7 -15 14 -15 16 0 2 7 4 15 4 8 0 15 -7 15 -16z m-286 -12
c-1 -7 -2 -23 -2 -37 -1 -14 -8 -25 -16 -25 -19 0 -33 23 -18 28 7 2 12 15 12
29 0 15 5 23 13 21 6 -3 12 -10 11 -16z m-852 -10 c13 -6 14 -10 4 -24 -16
-22 -66 -13 -66 13 0 20 28 25 62 11z m1164 -27 c5 -11 10 -13 19 -5 11 9 25
4 25 -10 0 -6 -25 -7 -51 -1 -12 2 -19 31 -8 31 5 0 12 -7 15 -15z m84 -75 c0
-5 -6 -10 -14 -10 -8 0 -18 5 -21 10 -3 6 3 10 14 10 12 0 21 -4 21 -10z m50
-46 c0 -23 -10 -31 -23 -17 -4 3 -2 12 4 19 7 8 7 14 -1 19 -5 3 -10 11 -10
17 0 7 6 6 15 -2 8 -7 15 -23 15 -36z m861 5 c30 -57 69 -169 59 -169 -4 0
-20 33 -35 73 -15 39 -37 87 -48 106 -14 23 -16 32 -7 29 8 -2 22 -20 31 -39z
m-1515 -77 c-8 -7 -36 25 -36 40 1 7 9 3 21 -11 11 -13 17 -26 15 -29z m699
26 c5 4 5 2 1 -5 -9 -16 -46 -12 -46 4 0 10 5 11 19 4 10 -6 22 -7 26 -3z
m1222 -35 c-9 -9 -20 -13 -24 -9 -4 4 -1 11 7 16 25 16 35 11 17 -7z m-2026
-113 c89 -63 156 -116 150 -118 -5 -2 -51 27 -102 64 -81 59 -94 66 -111 55
-25 -15 -35 -7 -18 14 7 9 11 17 9 19 -2 1 -31 22 -64 45 -33 24 -52 41 -42
39 10 -1 90 -55 178 -118z m-662 93 c0 -5 -4 -17 -9 -28 -8 -18 -9 -17 -9 8
-1 15 4 27 9 27 6 0 10 -3 9 -7z m2641 -18 c-7 -8 -17 -15 -22 -15 -6 0 -5 7
2 15 7 8 17 15 22 15 6 0 5 -7 -2 -15z m730 -35 c0 -5 -7 -10 -15 -10 -8 0
-15 5 -15 10 0 6 7 10 15 10 8 0 15 -4 15 -10z m-182 -54 c32 -24 78 -53 105
-64 48 -21 62 -34 30 -27 -42 8 -82 29 -138 72 -80 61 -81 63 -66 63 7 0 38
-20 69 -44z m-2694 28 c28 -11 17 -21 -21 -21 -21 0 -29 2 -19 4 15 4 16 7 5
14 -11 7 -11 9 3 9 9 0 23 -3 32 -6z m166 -54 c0 -5 -2 -10 -4 -10 -3 0 -8 5
-11 10 -3 6 -1 10 4 10 6 0 11 -4 11 -10z m-931 -37 c-1 -16 -3 -21 -6 -11 -3
10 -11 15 -21 12 -14 -5 -13 -3 2 10 26 21 26 21 25 -11z m911 7 c0 -5 -2 -10
-4 -10 -3 0 -8 5 -11 10 -3 6 -1 10 4 10 6 0 11 -4 11 -10z m-960 -40 c7 -13
7 -20 1 -20 -6 0 -15 9 -21 20 -7 13 -7 20 -1 20 6 0 15 -9 21 -20z m950 11
c0 -6 -4 -13 -10 -16 -5 -3 -10 1 -10 9 0 9 5 16 10 16 6 0 10 -4 10 -9z m320
-6 c-7 -9 -15 -13 -17 -11 -7 7 7 26 19 26 6 0 6 -6 -2 -15z m-1190 -47 c0 -6
-7 -5 -15 2 -8 7 -15 17 -15 22 0 6 7 5 15 -2 8 -7 15 -17 15 -22z m33 7 c4
-8 2 -17 -3 -20 -6 -4 -10 3 -10 14 0 25 6 27 13 6z m837 5 c0 -5 -7 -10 -15
-10 -8 0 -15 5 -15 10 0 6 7 10 15 10 8 0 15 -4 15 -10z m-913 -15 c9 -25 -4
-29 -17 -6 -7 15 -7 21 0 21 6 0 13 -7 17 -15z m200 -35 c-1 -12 -5 -16 -10
-11 -5 5 -6 14 -3 20 11 16 15 13 13 -9z m-147 1 c0 -15 -31 -42 -41 -36 -15
10 -10 35 5 29 8 -3 17 -1 21 5 8 13 15 14 15 2z m110 -8 c0 -5 -5 -15 -10
-23 -8 -12 -10 -11 -10 8 0 12 5 22 10 22 6 0 10 -3 10 -7z m1044 -92 c-8 -8
-64 56 -64 72 1 6 16 -6 35 -27 19 -22 32 -42 29 -45z m182 -89 c-2 -29 -12
-52 -30 -71 -14 -15 -26 -32 -26 -39 0 -7 -5 -12 -11 -12 -16 0 0 40 27 64 32
29 34 77 6 116 -18 23 -28 29 -44 24 -17 -5 -19 -3 -14 14 4 12 1 26 -9 35 -8
9 -15 22 -15 29 1 7 28 -16 61 -52 57 -62 59 -67 55 -108z m-1316 138 c0 -5
-4 -10 -10 -10 -5 0 -7 -7 -4 -15 4 -8 10 -13 14 -10 5 3 11 -4 15 -15 3 -11
14 -19 23 -18 9 1 28 0 42 -1 19 -1 22 -3 11 -10 -12 -8 -12 -12 -2 -25 8 -9
9 -16 4 -16 -5 0 -16 9 -26 20 -10 12 -22 18 -28 15 -5 -4 -20 4 -32 18 -12
13 -32 30 -45 36 -18 10 -20 14 -10 26 15 16 48 20 48 5z m1300 -24 c0 -5 -7
-3 -15 4 -8 7 -12 17 -9 22 7 10 24 -9 24 -26z m-1234 -13 c-11 -11 -17 4 -9
23 7 18 8 18 11 1 2 -10 1 -21 -2 -24z m-32 11 c10 -25 -1 -29 -14 -5 -6 12
-7 21 -1 21 5 0 12 -7 15 -16z m-64 -46 c0 -6 -7 -5 -15 2 -8 7 -15 17 -15 22
0 6 7 5 15 -2 8 -7 15 -17 15 -22z m1200 -25 c0 -13 -3 -13 -15 -3 -8 7 -12
16 -9 21 8 13 24 1 24 -18z m-1166 -1 c2 -4 1 -14 -3 -21 -6 -9 -10 -7 -14 8
-5 20 7 29 17 13z m1141 -22 c-3 -5 -11 -10 -16 -10 -6 0 -7 5 -4 10 3 6 11
10 16 10 6 0 7 -4 4 -10z m-1075 -10 c0 -5 9 -10 20 -10 11 0 23 -7 26 -15 4
-10 13 -13 25 -10 11 4 19 2 19 -3 0 -6 -11 -13 -25 -16 -14 -4 -23 -11 -20
-16 3 -5 1 -11 -4 -14 -14 -9 -21 20 -8 34 9 10 9 11 -1 6 -7 -5 -20 2 -32 16
-22 26 -25 38 -10 38 6 0 10 -4 10 -10z m1100 0 c0 -5 -5 -10 -11 -10 -5 0 -7
5 -4 10 3 6 8 10 11 10 2 0 4 -4 4 -10z m-1150 -20 c-8 -5 -17 -7 -19 -4 -3 3
1 9 9 14 8 5 17 7 19 4 3 -3 -1 -9 -9 -14z m184 -39 c3 -4 -1 -17 -9 -27 -15
-19 -15 -19 -8 0 4 13 3 17 -5 12 -13 -8 -17 6 -5 17 9 9 21 9 27 -2z m26 -53
c0 -6 -3 -8 -7 -5 -3 4 -12 2 -19 -4 -8 -6 -22 -8 -31 -4 -16 7 -15 9 7 15 37
12 50 11 50 -2z m1673 -425 c-7 -2 -19 -2 -25 0 -7 3 -2 5 12 5 14 0 19 -2 13
-5z m325 -460 c-10 -2 -26 -2 -35 0 -10 3 -2 5 17 5 19 0 27 -2 18 -5z m49
-365 c-3 -8 -6 -5 -6 6 -1 11 2 17 5 13 3 -3 4 -12 1 -19z m577 -1463 c-4 -8
-8 -15 -10 -15 -2 0 -4 7 -4 15 0 8 4 15 10 15 5 0 7 -7 4 -15z"/>
<path d="M2151 5914 c0 -11 3 -14 6 -6 3 7 2 16 -1 19 -3 4 -6 -2 -5 -13z"/>
<path d="M4278 4493 c7 -3 16 -2 19 1 4 3 -2 6 -13 5 -11 0 -14 -3 -6 -6z"/>
<path d="M4251 4463 c-1 -17 5 -23 19 -23 12 0 20 7 20 16 0 10 -6 14 -14 11
-8 -3 -17 -1 -20 6 -2 7 -5 2 -5 -10z"/>
<path d="M4675 4210 c3 -5 8 -10 11 -10 2 0 4 5 4 10 0 6 -5 10 -11 10 -5 0
-7 -4 -4 -10z"/>
</g>
</svg>
