<?xml version="1.0" standalone="no"?>
<!DOCTYPE svg PUBLIC "-//W3C//DTD SVG 20010904//EN"
 "http://www.w3.org/TR/2001/REC-SVG-20010904/DTD/svg10.dtd">
<svg version="1.0" xmlns="http://www.w3.org/2000/svg"
 width="800.000000pt" height="800.000000pt" viewBox="0 0 800.000000 800.000000"
 preserveAspectRatio="xMidYMid meet">
<metadata>
Created by potrace 1.16, written by Peter Selinger 2001-2019
</metadata>
<g transform="translate(0.000000,800.000000) scale(0.100000,-0.100000)"
fill="#000000" stroke="none">
<path d="M0 4000 l0 -4000 4000 0 4000 0 0 3362 0 3361 -302 -6 c-166 -4 -361
-7 -435 -7 l-133 0 0 -90 c0 -49 -4 -90 -9 -90 -14 0 -21 39 -21 123 l0 77 35
0 35 0 0 211 c0 137 3 208 10 204 6 -4 10 -86 10 -212 l0 -206 128 6 c70 4
252 7 405 7 l277 0 0 630 0 630 -459 0 c-358 0 -461 -3 -465 -12 -5 -10 -7
-10 -12 -1 -4 10 -205 13 -935 13 l-929 0 0 -43 c0 -23 3 -52 6 -64 6 -21 6
-21 25 -2 20 20 93 27 103 11 3 -5 26 -6 51 -2 64 10 95 2 106 -27 10 -27 -3
-64 -15 -44 -9 14 -36 15 -36 1 0 -5 7 -10 15 -10 8 0 15 -7 15 -15 0 -8 6
-12 14 -9 18 7 30 -69 16 -96 -9 -17 -21 -20 -70 -20 -34 0 -60 -4 -60 -10 0
-6 -13 -5 -33 3 -20 9 -41 11 -55 6 -47 -18 -69 16 -60 94 3 23 1 51 -4 62 -9
21 -1 -575 8 -599 5 -12 83 -14 494 -15 l489 0 4 22 4 22 8 -22 7 -23 422 0
c231 0 445 -3 474 -6 44 -6 52 -10 52 -28 0 -16 -2 -18 -9 -7 -6 9 -20 12 -40
9 -17 -2 -31 -1 -31 3 0 3 -196 7 -435 8 -386 2 -435 0 -435 -14 0 -8 -4 -15
-10 -15 -5 0 -10 7 -10 15 0 13 -38 15 -281 15 -240 0 -280 -2 -270 -14 7 -8
15 -53 18 -100 7 -98 -1 -116 -52 -116 -27 0 -34 -5 -39 -25 -10 -41 -36 -47
-187 -43 -111 2 -142 6 -150 18 -11 17 -2 -582 11 -663 8 -50 3 -97 -10 -97
-11 0 -19 135 -30 505 -5 176 -13 366 -16 422 l-7 102 -446 3 -446 3 -50 34
c-27 19 -81 60 -120 91 -38 31 -81 64 -95 72 -34 21 -98 30 -166 22 l-55 -7 3
-293 c2 -190 -1 -295 -7 -296 -6 -2 -12 102 -15 289 -3 160 -8 294 -12 298 -4
4 -105 25 -225 47 -119 21 -219 41 -222 44 -15 14 28 10 215 -21 115 -19 215
-37 222 -40 9 -3 12 46 12 228 0 128 -3 256 -6 285 l-7 52 -1888 0 -1889 0 0
-4000z m6151 3953 c0 -16 6 -138 12 -273 11 -223 14 -248 33 -275 25 -35 42
-115 25 -115 -6 0 -11 13 -11 29 0 16 -12 49 -26 74 -23 43 -26 60 -34 234 -5
103 -12 225 -16 271 -4 56 -2 82 5 82 6 0 11 -12 12 -27z m929 -83 c0 -22 -4
-40 -10 -40 -5 0 -10 18 -10 40 0 22 5 40 10 40 6 0 10 -18 10 -40z m-516
-254 c-6 -16 -24 -23 -24 -8 0 10 22 33 27 28 2 -2 1 -11 -3 -20z m-24 -37 c0
-5 -12 -9 -26 -9 -21 0 -24 -3 -15 -14 9 -10 8 -15 -3 -19 -19 -7 -26 1 -26
30 0 20 4 23 20 18 11 -4 20 -2 20 4 0 6 7 8 15 5 8 -4 15 -10 15 -15z m-157
-63 c6 -8 10 -7 14 2 5 14 69 17 78 3 3 -6 -3 -14 -12 -20 -11 -6 -13 -11 -5
-11 7 0 11 -4 7 -10 -9 -14 -34 0 -28 16 6 17 -18 19 -35 2 -10 -10 -17 -10
-32 0 -11 6 -25 12 -32 12 -8 0 -5 -5 5 -11 9 -5 17 -17 17 -26 0 -12 8 -15
40 -10 43 5 56 -9 16 -19 -42 -10 -81 -1 -78 19 2 10 -3 17 -12 17 -24 0 -28
18 -9 44 15 20 22 22 38 13 11 -5 24 -15 28 -21z m-666 -453 c-3 -10 -5 -4 -5
12 0 17 2 24 5 18 2 -7 2 -21 0 -30z m-50 -465 c-3 -7 -5 -2 -5 12 0 14 2 19
5 13 2 -7 2 -19 0 -25z m-2297 -280 c0 -13 -23 -5 -28 10 -2 7 2 10 12 6 9 -3
16 -11 16 -16z m60 2 c0 -5 -9 -10 -20 -10 -11 0 -20 5 -20 10 0 6 9 10 20 10
11 0 20 -4 20 -10z m40 -26 c0 -8 -4 -12 -10 -9 -5 3 -10 13 -10 21 0 8 5 12
10 9 6 -3 10 -13 10 -21z m10 -49 c0 -8 -4 -17 -10 -20 -6 -4 -10 5 -10 20 0
15 4 24 10 20 6 -3 10 -12 10 -20z m3660 -436 c0 -84 -3 -110 -12 -107 -7 3
-14 17 -16 31 -3 23 -8 27 -33 27 -18 0 -28 4 -24 10 3 6 17 10 29 10 22 0 24
5 31 75 4 41 11 73 16 69 5 -3 9 -55 9 -115z m-3660 -149 c0 -11 -4 -20 -10
-20 -5 0 -8 -36 -7 -85 1 -55 -3 -89 -11 -97 -18 -18 -24 -5 -12 26 5 15 10
55 10 89 0 69 8 107 21 107 5 0 9 -9 9 -20z m2207 -262 c-3 -7 -5 -2 -5 12 0
14 2 19 5 13 2 -7 2 -19 0 -25z m60 -80 c-3 -7 -5 -2 -5 12 0 14 2 19 5 13 2
-7 2 -19 0 -25z m463 -223 l0 -134 30 6 c19 3 30 1 30 -6 0 -6 -14 -14 -31
-18 l-32 -6 7 -111 c3 -61 6 -202 6 -313 l0 -202 143 6 c104 4 146 3 151 -6 8
-13 18 -12 -154 -20 l-135 -6 -3 -95 c-2 -52 0 -158 3 -236 l7 -141 103 2 c89
1 110 5 158 29 64 31 69 37 167 216 34 62 76 118 83 110 5 -5 -67 -136 -133
-240 -64 -103 -140 -140 -287 -140 l-81 0 -7 -116 c-4 -64 -4 -280 0 -480 4
-228 4 -364 -2 -364 -11 0 -23 397 -23 744 l0 218 -25 -6 c-31 -8 -54 2 -34
15 8 5 25 9 38 9 l24 0 -6 107 c-4 58 -7 164 -7 234 l0 128 -42 3 c-60 4 -63
28 -2 28 l47 0 -6 167 c-4 91 -7 233 -7 316 l0 149 -315 -3 c-204 -3 -316 0
-317 6 -2 6 109 12 312 15 l315 5 3 133 c4 177 22 175 22 -3z m-2036 -104 c4
-5 -3 -7 -14 -4 -23 6 -26 13 -6 13 8 0 17 -4 20 -9z m-38 -16 c4 -8 9 -13 14
-10 4 2 46 7 93 10 73 5 87 4 87 -9 0 -19 -31 -29 -65 -20 -18 4 -30 2 -35 -6
-5 -8 -32 -13 -71 -14 -54 -1 -64 2 -67 17 -4 19 14 47 30 47 5 0 11 -7 14
-15z m807 -15 c36 0 56 -4 52 -10 -3 -5 -32 -10 -63 -10 -31 0 -72 -4 -90 -10
-28 -7 -33 -7 -28 5 3 8 1 15 -5 15 -6 0 -7 5 -3 11 4 7 21 9 43 5 20 -3 62
-6 94 -6z m-153 -20 c0 -17 -7 -20 -39 -20 -22 0 -43 5 -46 10 -3 6 -21 11
-38 12 -27 1 15 8 106 16 11 1 17 -5 17 -18z m-475 -40 c-3 -5 -12 -10 -18
-10 -7 0 -6 4 3 10 19 12 23 12 15 0z m-15 -62 c0 -5 -4 -8 -10 -8 -5 0 -10
10 -10 23 0 18 2 19 10 7 5 -8 10 -18 10 -22z m-105 -55 c-5 -30 -4 -33 20
-33 14 0 25 -4 25 -10 0 -5 -11 -10 -25 -10 -14 0 -25 4 -25 9 0 5 -7 12 -16
15 -13 5 -15 1 -10 -19 4 -14 2 -25 -4 -25 -5 0 -10 11 -10 25 0 14 -4 25 -8
25 -4 0 -6 -16 -4 -35 3 -27 1 -35 -11 -35 -9 0 -19 5 -22 10 -3 6 0 10 7 10
8 0 9 3 3 8 -10 6 -12 23 -5 47 1 6 2 19 1 30 -2 17 4 20 44 20 l46 0 -6 -32z
m89 13 c-6 -16 -24 -23 -24 -8 0 10 22 33 27 28 2 -2 1 -11 -3 -20z m2870
-153 c4 -93 2 -494 -3 -893 -6 -399 -11 -761 -11 -805 l0 -80 174 0 c122 0
179 -4 187 -12 16 -16 -28 -27 -61 -15 -14 5 -86 7 -161 4 l-136 -4 -7 -477
c-4 -278 -11 -492 -17 -516 -6 -21 -24 -58 -40 -81 -16 -24 -29 -46 -29 -49 0
-11 -194 -286 -224 -319 -29 -30 -31 -62 -3 -60 9 1 15 -2 12 -6 -3 -4 6 -15
20 -24 26 -17 33 -36 14 -36 -6 0 -25 11 -43 25 l-33 25 -8 -82 c-5 -46 -9
-112 -9 -148 -4 -235 -6 -260 -22 -260 -15 0 -16 11 -10 88 3 48 8 164 11 257
l6 170 -38 25 c-21 14 -71 49 -111 78 -40 29 -77 50 -84 46 -6 -4 -8 -3 -5 3
7 11 3 14 -189 148 -134 94 -214 160 -214 177 0 17 30 7 41 -14 12 -22 12 -22
20 -3 4 11 9 56 10 100 2 65 3 70 6 28 4 -57 9 -63 28 -36 11 15 18 15 54 4
41 -12 64 -41 54 -67 -2 -6 7 -19 21 -28 24 -15 26 -23 26 -84 l1 -67 71 -50
c39 -27 80 -59 92 -71 48 -46 230 -168 234 -156 2 7 23 38 47 70 152 204 257
361 270 407 19 67 27 1099 8 1084 -6 -6 -23 -7 -38 -3 -24 6 -26 4 -21 -13 4
-12 1 -32 -5 -47 -10 -20 -19 -26 -46 -26 -34 0 -39 10 -33 64 2 18 0 18 -25
-3 -15 -11 -34 -21 -42 -21 -7 0 -16 -6 -19 -14 -8 -21 -32 -28 -55 -15 -17 9
-19 17 -13 55 6 40 4 46 -13 50 -16 4 -22 17 -26 52 -4 26 -10 58 -13 71 -6
21 -4 22 16 16 20 -6 21 -4 15 17 -4 12 -18 34 -31 49 -13 14 -24 30 -24 36 0
17 63 23 80 7 12 -10 30 -11 82 -4 76 11 98 6 98 -21 0 -10 5 -19 10 -19 6 0
10 -7 10 -15 0 -23 32 -85 42 -79 4 3 2 19 -6 37 -20 48 -15 110 9 118 71 23
65 7 65 158 1 75 3 316 6 536 3 220 5 509 4 643 0 134 4 242 9 242 5 0 12 -75
15 -167z m-2848 102 c-3 -10 -15 -15 -28 -13 -23 3 -24 23 -1 23 6 0 15 4 19
8 11 11 17 0 10 -18z m-14 -57 c-9 -9 -12 -7 -12 12 0 19 3 21 12 12 9 -9 9
-15 0 -24z m-12 -38 c0 -11 -4 -20 -10 -20 -5 0 -10 9 -10 20 0 11 5 20 10 20
6 0 10 -9 10 -20z m-2 -59 c3 -8 -1 -12 -9 -9 -7 2 -15 10 -17 17 -3 8 1 12 9
9 7 -2 15 -10 17 -17z m36 -37 c9 -22 -3 -32 -14 -14 -12 19 -12 30 -1 30 5 0
12 -7 15 -16z m16 -43 c0 -6 -4 -13 -10 -16 -5 -3 -10 1 -10 9 0 9 5 16 10 16
6 0 10 -4 10 -9z m-13 -73 c-3 -7 -5 -2 -5 12 0 14 2 19 5 13 2 -7 2 -19 0
-25z m25 -103 c4 -20 3 -23 -8 -14 -16 13 -19 39 -5 39 5 0 11 -11 13 -25z
m1191 -900 c3 -313 7 -576 9 -584 1 -7 -2 -15 -9 -18 -8 -3 -11 60 -12 239 -1
134 -5 461 -9 726 -4 266 -5 486 -2 489 10 10 18 -292 23 -852z m-1398 655 c4
-6 -12 -10 -40 -10 -28 0 -44 4 -40 10 3 6 21 10 40 10 19 0 37 -4 40 -10z
m-115 -9 c0 -8 -55 -21 -92 -21 -31 0 -19 19 15 23 60 7 77 7 77 -2z m560 -27
c0 -14 14 -16 110 -12 61 2 102 0 93 -4 -10 -3 -70 -7 -133 -7 -63 1 -109 3
-102 6 6 2 12 11 12 19 0 8 5 14 10 14 6 0 10 -7 10 -16z m-570 -84 c0 -5 -7
-10 -15 -10 -8 0 -15 5 -15 10 0 6 7 10 15 10 8 0 15 -4 15 -10z m110 -70 c0
-5 -2 -10 -4 -10 -3 0 -8 5 -11 10 -3 6 -1 10 4 10 6 0 11 -4 11 -10z m-225
-20 c-3 -5 -15 -10 -26 -10 -10 0 -19 5 -19 10 0 6 12 10 26 10 14 0 23 -4 19
-10z m290 -2 c14 -6 25 -17 25 -25 0 -11 -6 -11 -30 4 -16 9 -30 21 -30 25 0
11 4 10 35 -4z m112 -67 c27 -17 54 -39 61 -51 13 -21 12 -21 -13 -4 -14 9
-25 20 -25 25 0 5 -7 9 -15 9 -19 0 -65 29 -65 41 0 14 6 11 57 -20z m1783
-10 c0 -21 -79 -28 -174 -15 -82 12 -49 24 64 24 61 0 110 -4 110 -9z m-1606
-122 c-7 -12 -44 12 -44 29 0 9 6 8 25 -4 14 -9 22 -20 19 -25z m536 -40 c0
-34 5 -42 33 -59 17 -11 41 -20 52 -19 44 3 55 -2 61 -26 3 -14 10 -25 15 -25
5 0 9 -9 9 -19 0 -22 -31 -81 -42 -81 -12 0 -9 14 7 36 17 22 20 54 5 54 -5 0
-10 9 -10 20 0 20 -9 24 -42 21 -9 -1 -35 7 -57 19 -34 17 -41 18 -41 5 0 -8
4 -15 8 -15 5 0 16 -16 25 -35 12 -26 25 -37 47 -42 28 -5 47 -19 38 -28 -11
-11 -83 26 -95 49 -7 14 -15 26 -17 26 -2 0 -3 -52 -4 -116 -1 -69 -6 -121
-12 -130 -14 -16 -10 -23 48 -92 25 -29 42 -56 38 -59 -7 -8 -125 116 -126
131 0 5 7 14 16 20 13 10 16 37 15 174 0 101 -4 169 -11 180 -9 13 -10 4 -6
-40 7 -68 -10 -80 -19 -14 -9 58 1 89 26 83 14 -4 19 0 19 15 0 10 5 16 10 13
6 -3 10 -24 10 -46z m-1330 -69 c0 -5 -5 -10 -11 -10 -5 0 -7 5 -4 10 3 6 8
10 11 10 2 0 4 -4 4 -10z m-60 -10 c0 -5 -9 -10 -20 -10 -11 0 -20 5 -20 10 0
6 9 10 20 10 11 0 20 -4 20 -10z m1090 -125 c0 -25 -4 -45 -10 -45 -5 0 -10
20 -10 45 0 25 5 45 10 45 6 0 10 -20 10 -45z m179 -72 c43 -51 49 -63 29 -62
-12 0 -97 99 -107 122 -8 21 41 -17 78 -60z m270 -329 c22 -26 38 -51 34 -57
-6 -10 -93 79 -93 95 0 19 21 5 59 -38z m-848 -41 c13 -16 12 -17 -3 -4 -17
13 -22 21 -14 21 2 0 10 -8 17 -17z m36 -35 c-3 -8 -6 -5 -6 6 -1 11 2 17 5
13 3 -3 4 -12 1 -19z m368 -28 c0 -18 -6 -35 -12 -37 -9 -3 -13 8 -13 37 0 29
4 40 13 38 6 -3 12 -20 12 -38z m555 -42 c0 -16 -19 -7 -39 18 -11 15 -18 31
-14 37 6 10 53 -39 53 -55z m47 -50 c49 -52 163 -198 163 -208 0 -21 -22 -8
-41 25 -12 19 -24 35 -28 35 -3 0 -24 23 -46 50 -22 28 -43 50 -47 50 -3 0
-23 -16 -44 -35 -36 -34 -64 -45 -64 -25 0 6 4 10 9 10 5 0 26 16 47 35 35 34
36 35 20 60 -31 47 -13 49 31 3z m350 -375 c-14 -15 -30 -23 -34 -19 -4 4 5
19 21 32 37 32 48 21 13 -13z m39 -100 c16 -25 16 -26 -2 -18 -11 4 -24 8 -31
8 -7 0 -10 4 -7 8 2 4 0 10 -6 14 -15 9 -2 25 15 19 7 -3 21 -17 31 -31z m80
-120 c-8 -9 -46 32 -46 50 0 7 12 -1 27 -15 15 -15 23 -31 19 -35z m249 -270
c-28 -20 -41 -16 -20 7 10 11 22 17 28 13 6 -4 3 -12 -8 -20z m753 -299 c-36
-32 -78 -45 -78 -24 0 6 9 10 20 10 11 0 34 13 52 29 18 16 35 27 38 24 3 -2
-12 -20 -32 -39z m306 -556 c-7 -11 -46 13 -52 32 -3 8 5 7 26 -6 17 -10 28
-22 26 -26z m76 -37 c44 -31 90 -73 90 -81 0 -3 -9 -6 -19 -6 -11 0 -18 3 -16
7 2 3 -25 27 -60 53 -36 26 -63 52 -59 57 6 10 13 7 64 -30z"/>
<path d="M4110 4951 c0 -5 5 -13 10 -16 6 -3 10 -2 10 4 0 5 -4 13 -10 16 -5
3 -10 2 -10 -4z"/>
<path d="M4200 4950 c0 -5 5 -10 10 -10 6 0 10 5 10 10 0 6 -4 10 -10 10 -5 0
-10 -4 -10 -10z"/>
<path d="M7074 3217 c-17 -8 -21 -19 -20 -47 2 -44 12 -60 37 -60 17 0 19 7
19 60 0 63 -1 64 -36 47z"/>
<path d="M6771 3202 l-23 -4 25 -26 c33 -35 45 -80 23 -88 -17 -7 -23 -44 -6
-44 5 0 7 -13 4 -28 -6 -28 -4 -29 26 -24 18 3 42 14 53 25 l20 20 -32 26
c-18 15 -31 35 -31 48 0 22 46 73 66 73 20 0 55 -47 61 -84 6 -36 13 -41 46
-28 17 7 16 11 -8 55 -14 27 -25 55 -25 63 0 16 -18 17 -100 4 -38 -5 -58 -4
-65 4 -5 6 -21 10 -34 8z"/>
<path d="M6867 3142 c-10 -10 -17 -26 -17 -35 0 -21 47 -57 66 -50 22 8 16 -9
-16 -44 -17 -19 -40 -33 -52 -33 -21 0 -23 -5 -25 -50 -2 -51 12 -74 31 -49 6
8 24 20 40 27 35 16 76 52 76 69 0 7 14 22 30 35 41 30 38 39 -12 36 l-43 -3
-3 39 c-2 25 -11 45 -25 57 -28 23 -30 23 -50 1z"/>
<path d="M7070 3071 c0 -5 -17 -27 -39 -49 -24 -24 -41 -53 -44 -73 -3 -19 -7
-43 -9 -54 -2 -14 3 -21 20 -23 15 -2 22 2 23 15 1 10 3 25 4 33 1 8 3 20 4
26 2 16 39 25 44 10 3 -8 9 -7 20 3 12 9 17 29 17 67 0 47 -2 54 -20 54 -11 0
-20 -4 -20 -9z"/>
<path d="M6221 1864 c-25 -31 -28 -72 -6 -81 18 -6 55 23 55 43 0 7 9 18 21
25 24 12 16 25 -22 34 -21 5 -31 1 -48 -21z"/>
<path d="M6290 1815 c-5 -13 -18 -30 -30 -37 -26 -16 -25 -25 1 -24 12 1 24
-5 27 -13 3 -10 0 -12 -12 -8 -26 10 -12 -5 38 -41 34 -25 46 -29 46 -18 0 9
-8 16 -17 16 -17 1 -17 1 0 14 24 19 23 78 -3 94 -11 7 -20 19 -20 27 0 24
-20 17 -30 -10z"/>
<path d="M3810 7917 c0 -46 3 -172 7 -280 l6 -197 89 0 c107 0 109 -1 267
-120 91 -69 129 -92 162 -98 24 -4 228 -6 453 -4 l409 3 -7 87 c-3 48 -8 191
-11 317 -3 127 -8 263 -11 303 l-6 72 -679 0 -679 0 0 -83z"/>
<path d="M5380 7870 c0 -5 9 -10 21 -10 11 0 17 5 14 10 -3 6 -13 10 -21 10
-8 0 -14 -4 -14 -10z"/>
<path d="M5440 7870 c0 -5 7 -10 15 -10 8 0 15 5 15 10 0 6 -7 10 -15 10 -8 0
-15 -4 -15 -10z"/>
<path d="M5249 7854 c-11 -13 -9 -14 17 -8 40 9 54 24 22 24 -14 0 -31 -7 -39
-16z"/>
<path d="M5351 7854 c0 -11 3 -14 6 -6 3 7 2 16 -1 19 -3 4 -6 -2 -5 -13z"/>
<path d="M5316 7842 c-3 -3 -1 -11 5 -19 6 -7 8 -13 4 -13 -4 0 -3 -6 3 -13 6
-7 7 -18 3 -26 -7 -10 -11 -8 -16 9 -5 16 -12 20 -28 16 -12 -3 -28 -6 -34 -6
-9 0 -13 -16 -13 -47 l0 -48 120 -3 119 -3 7 25 c8 33 -2 59 -11 29 -4 -13
-15 -23 -26 -23 -11 0 -16 5 -13 13 3 8 -2 20 -10 27 -9 7 -13 16 -10 21 3 5
-4 9 -15 9 -11 0 -34 13 -50 29 -16 16 -32 26 -35 23z m24 -118 c0 -8 -4 -12
-10 -9 -5 3 -10 13 -10 21 0 8 5 12 10 9 6 -3 10 -13 10 -21z"/>
<path d="M5380 7826 c0 -10 9 -16 21 -16 24 0 21 23 -4 28 -10 2 -17 -3 -17
-12z"/>
<path d="M5260 7820 c0 -5 6 -10 14 -10 8 0 18 5 21 10 3 6 -3 10 -14 10 -12
0 -21 -4 -21 -10z"/>
<path d="M5450 7769 c0 -5 5 -7 10 -4 6 3 10 8 10 11 0 2 -4 4 -10 4 -5 0 -10
-5 -10 -11z"/>
<path d="M5450 7190 c8 -5 29 -10 45 -10 17 0 37 5 45 10 11 7 -3 10 -45 10
-42 0 -56 -3 -45 -10z"/>
<path d="M5230 7114 l0 -77 30 38 c17 21 30 45 30 54 0 9 3 26 6 39 6 20 3 22
-30 22 l-36 0 0 -76z"/>
<path d="M5326 7174 c-9 -8 -16 -26 -16 -38 0 -13 -13 -40 -30 -61 -22 -27
-30 -48 -30 -77 0 -77 3 -78 164 -78 l142 0 15 33 c10 23 21 32 39 33 14 1 31
2 38 3 15 1 17 125 1 170 -9 26 -16 31 -42 31 -18 -1 -43 -7 -57 -15 -33 -19
-69 -19 -113 0 -47 19 -91 19 -111 -1z"/>
</g>
</svg>
