<?xml version="1.0" standalone="no"?>
<!DOCTYPE svg PUBLIC "-//W3C//DTD SVG 20010904//EN"
 "http://www.w3.org/TR/2001/REC-SVG-20010904/DTD/svg10.dtd">
<svg version="1.0" xmlns="http://www.w3.org/2000/svg"
 width="800.000000pt" height="800.000000pt" viewBox="0 0 800.000000 800.000000"
 preserveAspectRatio="xMidYMid meet">
<metadata>
Created by potrace 1.16, written by Peter Selinger 2001-2019
</metadata>
<g transform="translate(0.000000,800.000000) scale(0.100000,-0.100000)"
fill="#000000" stroke="none">
<path d="M0 4000 l0 -4000 4000 0 4000 0 0 3880 c0 2580 -3 3880 -10 3880 -5
0 -10 7 -10 15 0 8 5 15 10 15 6 0 10 42 10 105 l0 105 -4000 0 -4000 0 0
-4000z m2470 3770 c0 -5 7 -7 15 -4 17 7 22 -31 5 -41 -15 -10 -12 -35 5 -35
8 0 15 -4 15 -10 0 -5 -18 -10 -40 -10 -22 0 -43 -1 -46 -2 -3 -2 -7 16 -8 40
-2 37 0 41 16 36 13 -4 18 0 18 15 0 12 5 21 10 21 6 0 10 -4 10 -10z m1203
-653 c-2 -4 -45 14 -93 39 -49 26 -87 51 -84 55 2 5 45 -13 93 -39 49 -26 87
-51 84 -55z m2073 11 c-7 -51 -12 -66 -20 -57 -8 9 7 109 17 109 6 0 7 -19 3
-52z m-602 -233 c3 -8 13 -15 23 -15 10 0 36 -14 57 -30 22 -17 44 -30 49 -30
5 0 28 -16 51 -35 24 -19 48 -35 53 -35 6 0 13 -6 16 -14 3 -7 32 -33 66 -57
33 -24 60 -48 60 -54 0 -5 -9 -21 -19 -34 l-20 -24 -43 29 c-23 16 -44 31 -47
35 -18 20 -140 99 -154 99 -9 0 -16 6 -16 13 0 7 -14 21 -31 31 -17 10 -41 29
-52 42 -11 13 -27 24 -34 24 -15 0 -17 16 -3 25 5 3 6 13 3 22 -4 11 -3 14 5
9 7 -4 12 -2 12 3 0 16 17 13 24 -4z m476 -115 c0 -4 -11 -12 -25 -18 -24 -11
-36 0 -15 13 6 4 8 16 4 28 -7 22 -6 22 15 3 11 -11 21 -22 21 -26z m617 -5
c8 -9 13 -18 10 -21 -9 -9 14 -64 24 -58 18 11 8 -8 -13 -26 l-23 -18 -17 60
c-21 75 -15 96 19 63z m152 -441 c14 -32 14 -34 -4 -34 -9 0 -19 -8 -22 -17
-4 -10 -11 -21 -17 -25 -6 -4 -12 -12 -12 -18 -3 -24 -6 -23 -22 10 -15 30
-16 39 -5 60 7 14 13 30 13 36 0 6 13 11 29 12 21 0 31 -6 40 -24z m-419 -364
c0 -5 -5 -10 -11 -10 -5 0 -7 5 -4 10 3 6 8 10 11 10 2 0 4 -4 4 -10z m-117
-240 c-4 -42 -2 -60 6 -60 6 0 21 -11 33 -25 23 -27 53 -33 62 -12 5 10 7 10
12 0 10 -23 23 -14 42 30 19 41 19 43 0 70 -11 15 -28 27 -39 27 -10 0 -19 5
-19 11 0 7 9 9 23 5 12 -3 43 -6 70 -6 26 0 47 -4 47 -10 0 -5 -16 -10 -36
-10 -34 0 -35 -1 -20 -22 11 -15 12 -26 6 -39 -6 -10 -15 -30 -20 -45 -9 -24
-9 -25 5 -14 8 7 18 10 22 7 9 -10 -16 -35 -39 -39 -29 -4 -34 -24 -8 -31 18
-5 20 -9 11 -26 -15 -28 -14 -36 4 -21 9 7 19 10 23 6 9 -10 -37 -43 -69 -50
-16 -3 -30 -14 -34 -26 -3 -11 -11 -20 -16 -20 -12 0 -11 7 1 31 8 15 7 19 -3
19 -20 0 -42 -27 -26 -32 16 -5 -6 -48 -25 -48 -22 0 -41 -57 -28 -84 13 -28
6 -62 -14 -70 -25 -9 -15 -26 15 -26 46 0 44 -13 -7 -51 -31 -23 -46 -42 -45
-55 1 -10 -2 -34 -8 -51 -8 -26 -18 -35 -50 -43 -28 -8 -39 -16 -39 -30 0 -13
7 -20 20 -20 11 0 20 -4 20 -10 0 -5 -5 -10 -10 -10 -6 0 -10 -6 -8 -12 2 -7
0 -13 -4 -13 -3 0 -15 -8 -27 -19 -15 -14 -29 -17 -55 -12 -31 6 -36 11 -42
42 -10 54 35 202 57 188 7 -4 7 -10 0 -17 -14 -14 -14 -47 -1 -47 5 0 6 8 3
17 -5 12 -2 15 10 10 29 -11 38 16 13 40 -16 15 -26 40 -30 75 -4 28 -10 56
-13 61 -11 19 -8 80 5 84 28 11 3 113 -31 126 -18 7 -26 47 -15 77 4 12 9 40
10 61 1 33 4 38 20 33 10 -3 18 -1 18 4 0 5 13 15 28 21 23 10 31 23 42 64 8
29 16 44 18 34 2 -9 7 -15 12 -12 5 3 11 1 15 -5 3 -5 21 -10 38 -10 30 -1 31
-2 13 -15 -15 -12 -17 -22 -11 -65 5 -39 3 -55 -8 -68 -8 -9 -18 -41 -22 -69
l-7 -53 34 0 c18 0 43 -3 55 -6 32 -9 53 38 49 111 -3 48 -7 60 -31 79 -26 21
-27 25 -21 79 10 77 27 74 19 -3z m-369 -305 c-4 -8 -10 -15 -15 -15 -5 0 -9
-5 -9 -11 0 -6 9 -9 20 -6 23 6 28 -8 6 -16 -8 -3 -12 -14 -9 -25 4 -16 -1
-19 -29 -18 -28 1 -33 5 -36 28 -4 36 13 66 40 71 13 2 26 5 30 6 4 0 5 -6 2
-14z m1391 -166 c-3 -4 -12 -6 -20 -3 -8 4 -13 10 -10 15 3 4 12 6 20 3 8 -4
13 -10 10 -15z m-2855 -59 c14 -27 -19 -46 -46 -26 -15 12 -16 16 -5 30 18 22
38 20 51 -4z m1313 -25 c22 1 27 -3 25 -19 -2 -11 -9 -21 -17 -24 -8 -3 -11 0
-8 6 9 14 -42 22 -70 11 -26 -10 -28 -6 -13 21 8 15 16 17 33 12 12 -5 35 -8
50 -7z m-753 -89 c0 -3 -4 -8 -10 -11 -5 -3 -10 -1 -10 4 0 6 5 11 10 11 6 0
10 -2 10 -4z m980 -101 c0 -8 -4 -15 -9 -15 -5 0 -11 -7 -13 -15 -2 -9 -8 -12
-16 -6 -12 7 -12 12 -1 30 16 24 39 28 39 6z m-1100 -30 c0 -14 -4 -25 -10
-25 -5 0 -10 11 -10 25 0 14 5 25 10 25 6 0 10 -11 10 -25z m2840 9 c0 -8 -4
-12 -10 -9 -5 3 -10 10 -10 16 0 5 5 9 10 9 6 0 10 -7 10 -16z m-1733 -49 c5
-16 -14 -38 -26 -31 -18 12 -13 48 6 44 9 -2 18 -7 20 -13z m584 -105 c2 -11
5 -25 9 -37 1 -5 2 -15 1 -24 -1 -9 5 -22 14 -29 8 -7 15 -19 15 -26 0 -9 6
-11 18 -7 15 6 16 5 2 -12 -19 -23 -61 -65 -85 -85 -17 -14 -17 -13 -10 9 5
17 4 21 -5 16 -29 -18 -62 83 -34 106 8 6 14 16 14 22 0 5 9 25 21 43 20 33
38 44 40 24z m499 -77 c0 -7 9 -13 20 -13 11 0 20 -4 20 -10 0 -5 -6 -10 -14
-10 -7 0 -16 -13 -19 -30 -6 -25 -11 -30 -36 -30 -33 0 -41 14 -41 69 0 48 14
63 46 49 13 -6 24 -17 24 -25z m-160 -109 c0 -9 -5 -14 -12 -12 -18 6 -21 28
-4 28 9 0 16 -7 16 -16z m-1980 -54 c0 -21 -33 -29 -45 -10 -9 15 4 30 26 30
12 0 19 -7 19 -20z m1910 -30 c0 -12 -61 -39 -73 -32 -10 5 42 40 61 41 6 1
12 -3 12 -9z m162 -17 c17 -15 26 -53 12 -53 -10 0 -31 26 -38 48 -9 26 1 28
26 5z m-407 -73 c-3 -5 -13 -10 -21 -10 -8 0 -12 5 -9 10 3 6 13 10 21 10 8 0
12 -4 9 -10z m-79 -41 c10 -17 -23 -46 -37 -32 -7 7 -9 19 -6 27 7 18 33 21
43 5z m-258 -48 c12 -4 -25 -43 -53 -57 -19 -8 -39 -22 -46 -30 -15 -18 -29
-18 -29 0 0 7 18 26 40 41 22 15 40 33 40 40 0 9 26 12 48 6z m-1031 -67 c-9
-9 -28 6 -21 18 4 6 10 6 17 -1 6 -6 8 -13 4 -17z m1453 -11 c0 -7 -4 -13 -9
-13 -10 0 -21 36 -13 45 7 7 22 -15 22 -32z m-245 -23 c3 -5 -3 -10 -14 -10
-12 0 -21 5 -21 10 0 6 6 10 14 10 8 0 18 -4 21 -10z m150 -49 c-3 -6 -14 -11
-23 -11 -15 1 -15 2 2 15 21 16 32 13 21 -4z m340 -60 c-34 -14 -145 -23 -145
-12 0 10 43 17 120 19 32 0 39 -2 25 -7z m-564 -78 c11 -25 18 -51 15 -57 -4
-12 -45 70 -46 92 0 24 11 11 31 -35z m-1251 -49 c0 -14 -4 -23 -10 -19 -5 3
-10 15 -10 26 0 10 5 19 10 19 6 0 10 -12 10 -26z m-1096 -60 c9 -3 14 -10 11
-15 -7 -10 -35 0 -35 12 0 11 3 11 24 3z m2371 -56 c-12 -50 -18 -58 -31 -47
-19 16 -18 36 4 48 23 14 31 13 27 -1z m-55 -7 c0 -5 -6 -14 -14 -20 -10 -9
-15 -8 -19 3 -3 8 -1 17 6 20 19 7 27 7 27 -3z m-1304 -12 c7 -12 -15 -59 -28
-59 -4 0 -8 16 -8 35 0 35 20 49 36 24z m1164 -50 c0 -28 -30 -37 -47 -14 -12
17 -11 21 9 31 27 15 38 10 38 -17z m550 11 c0 -5 -8 -10 -17 -10 -10 0 -51
-5 -90 -10 -89 -11 -162 -47 -225 -108 -58 -56 -77 -48 -22 9 59 61 160 108
252 118 43 5 83 9 90 10 6 0 12 -3 12 -9z m-3003 -72 c14 -18 25 -68 15 -68
-4 0 -14 15 -22 33 -7 17 -15 35 -18 40 -6 12 15 8 25 -5z m2293 -18 c0 -5 -4
-10 -10 -10 -5 0 -10 5 -10 10 0 6 5 10 10 10 6 0 10 -4 10 -10z m-320 -80 c0
-13 -7 -20 -20 -20 -13 0 -20 7 -20 20 0 13 7 20 20 20 13 0 20 -7 20 -20z
m-491 -37 c19 5 57 -24 46 -35 -3 -2 0 -19 6 -36 8 -25 7 -35 -6 -56 -11 -16
-15 -35 -11 -50 8 -32 0 -36 -52 -29 -47 6 -53 22 -22 50 18 18 19 63 1 63 -4
0 -7 25 -8 56 -1 47 1 53 13 43 8 -6 23 -9 33 -6z m811 8 c0 -5 -11 -11 -25
-13 -24 -5 -32 2 -18 15 9 10 43 8 43 -2z m271 -181 c5 0 9 -9 9 -20 0 -11 -4
-20 -10 -20 -5 0 -10 7 -10 15 0 8 -7 15 -15 15 -9 0 -15 9 -15 21 0 19 1 19
16 5 8 -9 20 -16 25 -16z m-1341 -127 c29 -25 25 -33 -15 -33 -37 0 -44 11
-22 35 15 18 13 18 37 -2z m1010 -3 c0 -5 -19 -14 -42 -21 -24 -6 -60 -20 -80
-30 -20 -10 -51 -19 -67 -19 -18 0 -34 -7 -39 -17 -9 -15 -17 -12 -68 27 -32
24 -53 45 -46 48 7 2 31 -11 53 -29 35 -27 44 -31 60 -21 10 7 30 12 44 12 14
0 40 8 58 17 29 15 102 41 120 42 4 1 7 -3 7 -9z m156 -52 c18 -13 11 -49 -13
-66 -16 -10 -23 -11 -23 -3 0 7 -5 9 -12 5 -7 -5 -9 -2 -5 8 4 11 -2 18 -16
23 l-22 8 22 4 c14 3 20 9 17 18 -6 15 33 18 52 3z m-746 -73 c5 -57 7 -60 33
-63 18 -2 27 1 27 11 0 18 42 27 126 27 l64 0 0 45 c0 25 5 45 10 45 6 0 10
-9 10 -19 0 -13 9 -21 30 -26 34 -7 38 -20 13 -47 -13 -15 -32 -18 -102 -18
-160 0 -177 -21 -31 -38 101 -12 127 -24 143 -66 6 -16 3 -18 -25 -12 -18 3
-85 10 -148 16 -141 13 -168 19 -152 29 10 6 9 11 -4 22 -13 11 -18 11 -21 2
-3 -7 -12 -13 -21 -14 -10 -1 -7 -4 8 -9 20 -7 16 -8 -22 -9 -27 -1 -48 -5
-48 -10 0 -12 -47 -23 -69 -16 -13 4 -17 13 -13 30 4 24 3 24 -27 14 -17 -6
-29 -14 -26 -19 9 -14 -34 -18 -52 -5 -15 12 -16 14 -3 19 8 3 42 15 75 26 55
19 124 31 183 30 22 0 31 15 13 22 -5 2 -12 25 -16 51 -7 47 -7 49 16 45 22
-3 25 -9 29 -63z m2940 -79 c0 -6 -20 10 -45 34 -25 24 -45 51 -45 60 1 16 90
-77 90 -94z m-2241 -73 c-21 -49 -39 -94 -39 -102 0 -11 -19 -12 -102 -6 -99
6 -104 8 -129 37 -14 17 -39 37 -55 44 l-29 14 34 -5 c19 -3 35 -6 36 -8 1 -1
12 -17 24 -35 l23 -33 95 3 95 3 35 88 c19 48 39 87 43 87 5 0 -9 -39 -31 -87z
m-970 -17 c-2 -2 -20 -11 -39 -20 l-35 -17 24 21 c13 11 30 20 39 20 8 0 13
-2 11 -4z m-79 -39 c0 -2 -21 -19 -47 -37 -27 -19 -77 -61 -112 -95 -35 -33
-59 -50 -52 -38 20 39 211 192 211 170z m-300 -14 c0 -5 -80 -34 -176 -67
-246 -82 -347 -127 -354 -157 -7 -28 -37 -38 -46 -15 -8 20 -38 21 -58 1 -11
-12 -21 -13 -33 -6 -31 16 -299 -39 -320 -66 -14 -18 -35 -9 -27 12 4 8 39 22
85 32 70 16 79 20 79 40 0 28 36 32 54 7 10 -13 20 -14 61 -5 171 35 237 53
290 77 62 29 410 152 433 153 6 1 12 -2 12 -6z m103 -262 c17 -31 18 -35 2
-50 -14 -14 -15 -14 -10 0 3 8 -1 29 -10 45 -8 16 -14 40 -14 54 1 22 2 23 8
5 3 -11 14 -35 24 -54z m-1600 -70 c4 -1 7 -8 7 -16 0 -8 4 -15 8 -15 14 0 7
-42 -9 -50 -8 -5 -36 -11 -64 -15 -37 -5 -46 -4 -35 4 13 10 13 13 -2 25 -20
15 -24 36 -8 36 6 0 20 9 32 20 12 11 30 18 42 15 12 -2 24 -4 29 -4z m-2480
-52 c6 -24 -13 -81 -20 -61 -3 6 -9 10 -14 6 -10 -6 -12 20 -3 54 8 28 30 29
37 1z m4012 -8 c-8 -13 -35 -15 -35 -2 0 5 8 11 18 13 21 5 26 2 17 -11z
m-1221 -40 c-13 -11 -359 -165 -421 -187 -52 -18 -52 -18 -104 4 -29 12 -55
20 -57 17 -3 -2 3 -34 12 -71 9 -37 14 -69 11 -72 -3 -3 -6 -3 -8 -1 -8 10
-47 172 -42 177 2 3 31 -7 64 -22 32 -14 65 -26 74 -26 24 0 129 43 307 124
146 67 194 83 164 57z m-648 -235 c7 -30 -2 -47 -22 -39 -12 4 -14 32 -5 61 4
12 22 -3 27 -22z m-181 -69 c-20 -11 -29 -3 -21 19 5 13 9 14 22 3 14 -11 14
-13 -1 -22z m-235 -116 c0 -22 -25 -45 -40 -36 -6 4 -5 16 5 36 17 31 35 31
35 0z m1140 -68 c0 -3 -8 -15 -17 -25 -16 -18 -16 -19 5 -25 41 -10 41 -86 1
-98 -13 -4 -18 -12 -15 -21 9 -24 -21 -59 -85 -99 -51 -31 -62 -35 -76 -23
-14 11 -15 10 -9 -8 5 -15 2 -24 -10 -28 -23 -9 -27 -2 -18 26 4 13 7 34 5 47
-2 15 1 21 8 17 6 -4 11 -14 11 -22 0 -8 10 -14 25 -14 22 0 25 4 25 37 0 29
-3 34 -12 25 -15 -15 -38 -16 -38 -2 0 6 7 10 16 10 12 0 15 7 12 24 -3 15 2
27 14 35 10 6 18 18 18 27 0 11 6 15 20 11 15 -4 24 2 36 26 26 51 84 107 84
80z m-240 -323 c0 -5 -4 -10 -10 -10 -5 0 -10 5 -10 10 0 6 5 10 10 10 6 0 10
-4 10 -10z m658 -183 c14 -10 16 -37 2 -37 -5 0 -10 7 -10 15 0 9 -6 12 -15 9
-9 -4 -15 0 -15 9 0 16 16 17 38 4z m215 -165 c6 -9 2 -18 -10 -27 -16 -13
-20 -12 -36 7 -13 15 -15 23 -6 28 17 11 43 7 52 -8z m-1044 -80 c-18 -29 0
-86 29 -90 12 -2 22 -10 22 -19 0 -11 -6 -14 -24 -9 -28 7 -60 -18 -52 -40 8
-22 -12 -16 -24 6 -7 13 -21 20 -40 20 -46 0 -78 17 -96 51 -15 29 -15 33 0
41 9 5 16 16 16 24 0 11 9 13 38 8 25 -4 53 1 87 13 28 11 51 19 53 17 2 -1
-2 -11 -9 -22z m157 -286 c20 -20 18 -31 -6 -33 -24 -2 -47 33 -27 40 6 3 13
6 15 6 2 1 10 -5 18 -13z"/>
<path d="M2440 7704 c0 -8 5 -12 10 -9 6 3 10 10 10 16 0 5 -4 9 -10 9 -5 0
-10 -7 -10 -16z"/>
<path d="M5135 6861 c-3 -5 -1 -12 5 -16 5 -3 10 1 10 9 0 18 -6 21 -15 7z"/>
<path d="M5164 6835 c-10 -25 71 -83 100 -72 25 10 19 21 -28 55 -49 36 -64
39 -72 17z"/>
<path d="M5320 6746 c0 -3 14 -14 30 -26 17 -12 30 -17 30 -11 0 6 -13 17 -30
26 -16 9 -30 13 -30 11z"/>
<path d="M5415 6662 c-4 -12 3 -25 27 -45 31 -26 34 -26 46 -10 11 15 9 20
-10 36 -44 34 -56 38 -63 19z"/>
<path d="M6315 6290 c-3 -5 -1 -10 4 -10 6 0 11 5 11 10 0 6 -2 10 -4 10 -3 0
-8 -4 -11 -10z"/>
<path d="M5715 5721 c-10 -17 12 -21 25 -6 10 12 10 15 -3 15 -9 0 -18 -4 -22
-9z"/>
<path d="M5730 5692 c-66 -10 -49 -92 19 -92 18 0 21 6 21 38 0 47 -9 58 -40
54z"/>
<path d="M5647 5644 c-8 -8 1 -24 14 -24 5 0 9 7 9 15 0 15 -12 20 -23 9z"/>
<path d="M5610 5601 c0 -10 15 -24 35 -34 20 -9 35 -24 35 -34 0 -24 16 -4 24
30 3 15 5 27 4 27 -2 0 -24 7 -50 15 -45 13 -48 13 -48 -4z"/>
<path d="M5906 5588 c-10 -38 -6 -45 9 -18 17 29 18 40 6 40 -5 0 -11 -10 -15
-22z"/>
<path d="M5926 5551 l-25 -49 22 -6 c38 -10 47 -7 57 20 8 21 7 29 -6 39 -10
7 -15 19 -11 29 15 37 -15 12 -37 -33z"/>
<path d="M5718 5533 c-5 -49 -3 -61 8 -50 12 11 17 97 6 97 -5 0 -12 -21 -14
-47z"/>
<path d="M5641 5533 c0 -5 4 -17 9 -28 8 -18 9 -17 9 8 1 15 -3 27 -9 27 -5 0
-10 -3 -9 -7z"/>
<path d="M5630 5473 c0 -5 5 -15 10 -23 8 -12 10 -11 10 8 0 12 -4 22 -10 22
-5 0 -10 -3 -10 -7z"/>
<path d="M5670 5461 c0 -6 5 -13 10 -16 6 -3 10 1 10 9 0 9 -4 16 -10 16 -5 0
-10 -4 -10 -9z"/>
<path d="M5710 5450 c0 -5 5 -10 10 -10 6 0 10 5 10 10 0 6 -4 10 -10 10 -5 0
-10 -4 -10 -10z"/>
<path d="M5750 5446 c0 -9 5 -16 10 -16 6 0 10 4 10 9 0 6 -4 13 -10 16 -5 3
-10 -1 -10 -9z"/>
<path d="M5790 5440 c0 -5 5 -10 10 -10 6 0 10 5 10 10 0 6 -4 10 -10 10 -5 0
-10 -4 -10 -10z"/>
<path d="M5830 5429 c0 -5 5 -7 10 -4 6 3 10 8 10 11 0 2 -4 4 -10 4 -5 0 -10
-5 -10 -11z"/>
<path d="M5657 5422 c-7 -10 7 -119 16 -129 4 -3 8 19 9 50 0 32 1 62 2 69 1
14 -20 22 -27 10z"/>
<path d="M5700 5410 c0 -5 5 -10 10 -10 6 0 10 5 10 10 0 6 -4 10 -10 10 -5 0
-10 -4 -10 -10z"/>
<path d="M5740 5411 c0 -5 5 -13 10 -16 6 -3 10 -2 10 4 0 5 -4 13 -10 16 -5
3 -10 2 -10 -4z"/>
<path d="M5780 5400 c0 -5 7 -10 15 -10 8 0 15 5 15 10 0 6 -7 10 -15 10 -8 0
-15 -4 -15 -10z"/>
<path d="M5700 5359 c0 -11 5 -17 10 -14 6 3 10 13 10 21 0 8 -4 14 -10 14 -5
0 -10 -9 -10 -21z"/>
<path d="M5736 5364 c-9 -22 -8 -24 9 -24 8 0 15 9 15 20 0 24 -15 27 -24 4z"/>
<path d="M5780 5350 c0 -11 5 -20 10 -20 6 0 10 9 10 20 0 11 -4 20 -10 20 -5
0 -10 -9 -10 -20z"/>
<path d="M5636 5317 c3 -10 9 -15 12 -12 3 3 0 11 -7 18 -10 9 -11 8 -5 -6z"/>
<path d="M5695 5307 c-4 -10 -5 -21 -1 -24 10 -10 18 4 13 24 -4 17 -4 17 -12
0z"/>
<path d="M5730 5305 c0 -8 0 -18 -1 -22 0 -4 4 -9 10 -11 6 -2 11 8 11 22 0
14 -4 26 -10 26 -5 0 -10 -7 -10 -15z"/>
<path d="M5770 5298 c0 -19 2 -20 10 -8 13 19 13 30 0 30 -5 0 -10 -10 -10
-22z"/>
<path d="M5801 5292 c-15 -27 -14 -32 4 -32 20 0 31 28 17 42 -7 7 -14 4 -21
-10z"/>
<path d="M5654 5210 c6 -32 15 -62 20 -67 5 -5 7 -1 3 8 -3 9 -9 37 -12 63 -4
25 -10 48 -14 51 -4 2 -3 -22 3 -55z"/>
<path d="M5686 5237 c-5 -15 -6 -31 -2 -34 11 -11 18 5 14 34 l-4 28 -8 -28z"/>
<path d="M5715 5214 c-3 -25 -4 -48 -2 -50 7 -8 38 76 32 87 -13 20 -23 7 -30
-37z"/>
<path d="M5761 5210 l-23 -45 27 26 c16 16 25 34 23 45 -3 14 -10 8 -27 -26z"/>
<path d="M5794 5188 l-19 -23 23 19 c21 18 27 26 19 26 -2 0 -12 -10 -23 -22z"/>
<path d="M5732 5098 c-17 -17 -15 -58 3 -58 14 0 35 37 35 61 0 13 -24 11 -38
-3z"/>
<path d="M5683 5069 c-16 -16 -17 -49 -3 -49 13 0 23 24 18 45 -2 13 -5 14
-15 4z"/>
<path d="M5630 5030 c0 -5 5 -10 10 -10 6 0 10 5 10 10 0 6 -4 10 -10 10 -5 0
-10 -4 -10 -10z"/>
<path d="M5665 4950 c3 -5 11 -10 16 -10 6 0 7 5 4 10 -3 6 -11 10 -16 10 -6
0 -7 -4 -4 -10z"/>
<path d="M5432 5375 c0 -16 2 -22 5 -12 2 9 2 23 0 30 -3 6 -5 -1 -5 -18z"/>
<path d="M6115 4710 c-3 -5 -1 -10 4 -10 6 0 11 5 11 10 0 6 -2 10 -4 10 -3 0
-8 -4 -11 -10z"/>
<path d="M6091 4674 c0 -11 3 -14 6 -6 3 7 2 16 -1 19 -3 4 -6 -2 -5 -13z"/>
<path d="M6110 4653 c0 -6 8 -17 18 -24 16 -13 16 -13 2 6 -8 11 -16 22 -17
24 -2 2 -3 0 -3 -6z"/>
<path d="M6600 4705 c0 -38 3 -45 20 -45 15 0 20 7 20 29 0 25 -21 61 -36 61
-2 0 -4 -20 -4 -45z"/>
<path d="M4811 3504 c0 -11 3 -14 6 -6 3 7 2 16 -1 19 -3 4 -6 -2 -5 -13z"/>
<path d="M5230 3205 c0 -9 5 -15 11 -13 6 2 11 8 11 13 0 5 -5 11 -11 13 -6 2
-11 -4 -11 -13z"/>
<path d="M5026 3105 c-3 -9 0 -15 9 -15 9 0 12 6 9 15 -4 8 -7 15 -9 15 -2 0
-5 -7 -9 -15z"/>
<path d="M2780 2621 c0 -4 -10 -13 -22 -19 l-23 -11 22 0 c44 -2 70 20 38 33
-8 3 -15 2 -15 -3z"/>
<path d="M311 2584 c0 -11 3 -14 6 -6 3 7 2 16 -1 19 -3 4 -6 -2 -5 -13z"/>
<path d="M3152 2001 c-8 -4 -12 -19 -10 -32 2 -18 9 -24 28 -24 19 0 26 6 28
24 3 20 -11 41 -28 41 -3 0 -11 -4 -18 -9z"/>
<path d="M3120 1911 c0 -5 -11 -12 -25 -15 -14 -4 -23 -11 -19 -17 3 -6 12 -8
20 -5 7 3 16 1 19 -4 3 -4 -1 -11 -7 -13 -8 -3 -6 -6 5 -6 13 -1 17 7 17 34 0
19 -2 35 -5 35 -3 0 -5 -4 -5 -9z"/>
<path d="M3065 1820 c-3 -6 1 -7 9 -4 18 7 21 14 7 14 -6 0 -13 -4 -16 -10z"/>
<path d="M2647 1278 c-7 -23 14 -68 33 -68 15 0 59 48 48 53 -2 1 -13 8 -25
15 -13 6 -29 12 -37 12 -8 0 -16 -6 -19 -12z"/>
</g>
</svg>
