<?xml version="1.0" standalone="no"?>
<!DOCTYPE svg PUBLIC "-//W3C//DTD SVG 20010904//EN"
 "http://www.w3.org/TR/2001/REC-SVG-20010904/DTD/svg10.dtd">
<svg version="1.0" xmlns="http://www.w3.org/2000/svg"
 width="800.000000pt" height="800.000000pt" viewBox="0 0 800.000000 800.000000"
 preserveAspectRatio="xMidYMid meet">
<metadata>
Created by potrace 1.16, written by Peter Selinger 2001-2019
</metadata>
<g transform="translate(0.000000,800.000000) scale(0.100000,-0.100000)"
fill="#000000" stroke="none">
<path d="M0 4000 l0 -4000 1433 0 c846 0 1426 4 1418 9 -8 5 -20 7 -27 4 -6
-2 -15 0 -18 6 -4 5 4 13 16 17 16 5 26 1 39 -15 l17 -21 2561 0 2561 0 0
1809 0 1810 -41 65 c-23 37 -46 63 -52 59 -6 -3 -7 -1 -3 5 4 6 -10 36 -30 66
-20 30 -34 61 -32 68 3 7 17 -9 32 -35 16 -26 33 -44 38 -40 7 3 8 1 4 -5 -4
-6 14 -42 39 -79 l45 -68 0 212 c0 193 -2 212 -17 216 -17 4 -17 5 0 6 16 1
17 100 17 1956 l0 1955 -4000 0 -4000 0 0 -4000z m6055 3621 c0 -15 -8 -27
-22 -32 -19 -7 -23 -5 -23 11 0 31 12 51 29 48 9 -2 16 -13 16 -27z m-5225
-70 c0 -6 -4 -12 -9 -15 -13 -8 -42 4 -35 15 7 12 44 12 44 0z m5527 -27 c-3
-3 -12 -4 -19 -1 -8 3 -5 6 6 6 11 1 17 -2 13 -5z m1563 -153 c0 -6 -4 -13
-10 -16 -5 -3 -10 1 -10 9 0 9 5 16 10 16 6 0 10 -4 10 -9z m-10 -315 c0 -2
-8 -10 -17 -17 -16 -13 -17 -12 -4 4 13 16 21 21 21 13z m-4472 -36 c-11 -18
-60 -28 -101 -21 -4 1 -16 -3 -27 -9 -14 -7 -23 -6 -34 6 -15 14 -16 14 -16
-5 0 -21 -15 -37 -23 -24 -2 5 1 20 7 35 11 25 14 27 32 14 12 -9 26 -11 34
-6 7 4 27 6 44 4 17 -3 42 2 56 10 35 20 42 19 28 -4z m-2804 -160 c76 -23
145 -39 153 -36 8 3 12 2 9 -3 -3 -5 16 -14 42 -21 57 -16 84 -37 32 -25 -19
5 -47 9 -62 9 -14 1 -24 4 -22 7 2 3 -71 28 -161 54 -91 26 -165 52 -165 57 0
5 8 7 18 4 9 -3 79 -23 156 -46z m-154 -7 c0 -8 11 -19 25 -25 14 -6 25 -14
25 -17 0 -9 -87 -7 -96 2 -4 4 -2 7 5 7 8 0 9 5 2 19 -6 10 -8 21 -5 24 11 11
44 3 44 -10z m42 -95 c-7 -7 -12 -8 -12 -2 0 14 12 26 19 19 2 -3 -1 -11 -7
-17z m4518 -18 c-15 -36 -28 -39 -26 -6 0 13 4 22 7 20 4 -2 10 3 13 12 4 9 9
14 13 11 3 -4 0 -20 -7 -37z m-1782 -98 c-23 -52 -45 -72 -33 -29 9 28 46 89
51 84 2 -2 -6 -27 -18 -55z m1772 43 c0 -8 6 -15 14 -15 8 0 17 -13 21 -30 4
-16 11 -32 16 -35 5 -4 9 -11 9 -16 0 -19 -22 4 -36 37 -8 19 -18 34 -22 34
-4 0 -18 -25 -31 -55 -13 -30 -27 -52 -32 -49 -5 3 -2 19 6 35 9 16 13 35 9
41 -4 6 -3 8 3 5 12 -8 23 14 23 44 0 10 5 19 10 19 6 0 10 -7 10 -15z m-127
-115 c3 -11 1 -23 -4 -26 -5 -3 -9 6 -9 20 0 31 6 34 13 6z m-1673 3 c0 -19
-13 -53 -19 -53 -4 0 -6 14 -3 30 2 17 8 30 13 30 5 0 9 -3 9 -7z m1853 -33
c-3 -11 -9 -20 -14 -20 -11 0 -11 3 -3 24 9 23 23 20 17 -4z m-177 -60 c-35
-37 -46 -56 -41 -70 5 -15 3 -18 -9 -14 -20 8 -45 -12 -57 -43 -10 -27 -31
-32 -22 -5 12 35 161 197 172 186 2 -2 -17 -26 -43 -54z m148 15 c-6 -16 -24
-21 -24 -7 0 11 11 22 21 22 5 0 6 -7 3 -15z m-97 -32 c-11 -10 -26 8 -20 23
5 15 7 14 15 -1 6 -9 7 -19 5 -22z m56 0 c-7 -2 -19 -2 -25 0 -7 3 -2 5 12 5
14 0 19 -2 13 -5z m-1533 -57 c0 -3 -4 -8 -10 -11 -5 -3 -10 -1 -10 4 0 6 5
11 10 11 6 0 10 -2 10 -4z m1300 -110 c0 -3 -4 -8 -10 -11 -5 -3 -10 -1 -10 4
0 6 5 11 10 11 6 0 10 -2 10 -4z m2977 -28 c-3 -8 -6 -5 -6 6 -1 11 2 17 5 13
3 -3 4 -12 1 -19z m-2776 -175 c13 -16 12 -17 -3 -4 -10 7 -18 15 -18 17 0 8
8 3 21 -13z m-861 -124 c0 -24 -23 -21 -28 4 -2 10 3 17 12 17 10 0 16 -9 16
-21z m2510 7 c0 -2 -22 -21 -50 -42 -27 -21 -50 -43 -50 -49 0 -13 -61 -48
-69 -39 -3 3 3 12 14 20 11 7 34 26 50 42 56 53 105 85 105 68z m-250 -75 c0
-12 -20 -25 -27 -18 -7 7 6 27 18 27 5 0 9 -4 9 -9z m-720 -171 c0 -21 3 -45
6 -54 3 -9 2 -16 -4 -16 -5 0 -12 22 -16 49 -5 37 -11 51 -26 56 -11 4 -20 10
-20 15 0 5 14 4 30 -1 26 -10 30 -16 30 -49z m844 -2 c3 -13 6 -34 6 -48 -1
-32 -15 -9 -23 38 -7 36 7 44 17 10z m-438 -40 c-19 -99 -19 -121 -2 -134 10
-6 13 -15 8 -18 -19 -11 -45 32 -39 66 16 101 21 118 29 118 6 0 8 -14 4 -32z
m1068 17 c3 -8 1 -15 -4 -15 -6 0 -10 7 -10 15 0 8 2 15 4 15 2 0 6 -7 10 -15z
m-1039 -105 c3 -5 1 -10 -4 -10 -6 0 -11 5 -11 10 0 6 2 10 4 10 3 0 8 -4 11
-10z m435 -76 c0 -21 -4 -33 -10 -29 -5 3 -10 22 -10 41 0 21 4 33 10 29 6 -3
10 -22 10 -41z m-1786 -181 c-10 -7 -28 -13 -40 -13 -14 0 -34 -17 -59 -49
-21 -28 -48 -51 -61 -54 -31 -6 -31 7 1 21 13 6 36 29 51 51 19 30 35 42 60
47 18 3 39 13 46 21 9 12 13 12 17 2 2 -7 -4 -18 -15 -26z m1586 -14 l25 3
-30 -29 c-44 -44 -63 -48 -71 -16 -8 28 19 58 40 45 6 -3 22 -5 36 -3z m-960
-39 c0 -11 -4 -20 -10 -20 -5 0 -10 9 -10 20 0 11 5 20 10 20 6 0 10 -9 10
-20z m-150 0 c0 -5 -7 -10 -15 -10 -8 0 -15 5 -15 10 0 6 7 10 15 10 8 0 15
-4 15 -10z m320 -52 c0 -14 -18 -8 -24 8 -7 17 -23 15 -127 -13 -43 -11 -58
-21 -67 -41 -7 -15 -18 -37 -26 -50 l-13 -23 -5 25 c-3 17 -1 26 7 26 14 0 26
23 30 52 3 26 12 32 53 34 20 1 51 5 67 9 17 3 38 6 48 6 9 0 17 6 17 12 0 13
39 -32 40 -45z m90 23 c0 -12 -20 -25 -27 -18 -7 7 6 27 18 27 5 0 9 -4 9 -9z
m-1080 -41 c0 -5 -7 -10 -15 -10 -8 0 -15 5 -15 10 0 6 7 10 15 10 8 0 15 -4
15 -10z m-3495 -50 c8 -13 -15 -13 -35 0 -12 8 -11 10 7 10 12 0 25 -4 28 -10z
m30 -10 c3 -5 1 -10 -4 -10 -6 0 -11 5 -11 10 0 6 2 10 4 10 3 0 8 -4 11 -10z
m125 0 c0 -5 -9 -10 -21 -10 -11 0 -17 5 -14 10 3 6 13 10 21 10 8 0 14 -4 14
-10z m60 1 c0 -5 -9 -7 -20 -4 -11 3 -20 7 -20 9 0 2 9 4 20 4 11 0 20 -4 20
-9z m-127 -8 c-7 -2 -19 -2 -25 0 -7 3 -2 5 12 5 14 0 19 -2 13 -5z m180 0
c-7 -2 -19 -2 -25 0 -7 3 -2 5 12 5 14 0 19 -2 13 -5z m3249 -10 c18 -16 24
-33 11 -33 -5 1 -21 12 -38 25 -25 21 -27 25 -11 25 11 0 28 -7 38 -17z m842
-2 c-5 -5 -32 -21 -61 -36 -60 -30 -86 -56 -65 -63 10 -3 10 -7 1 -18 -20 -24
-39 -16 -39 16 0 25 7 33 48 53 26 13 47 30 47 38 0 8 11 14 27 14 15 1 30 4
34 8 4 4 10 5 13 2 2 -3 0 -9 -5 -14z m-4029 -1 c3 -5 -1 -10 -9 -10 -8 0 -18
5 -21 10 -3 6 1 10 9 10 8 0 18 -4 21 -10z m153 -63 c16 -1 28 -5 26 -9 -2 -4
4 -9 15 -13 10 -3 48 -24 83 -47 34 -23 90 -54 124 -69 50 -23 100 -59 82 -59
-10 0 -156 79 -236 128 -46 28 -96 54 -113 57 -37 8 -119 54 -119 66 0 5 24
-5 54 -21 29 -17 67 -32 84 -33z m3112 -116 c0 -11 -3 -11 -15 -1 -12 10 -18
5 -36 -36 -11 -27 -27 -73 -35 -103 -17 -65 -24 -75 -24 -32 0 17 11 59 25 93
14 34 25 65 25 70 0 5 8 20 17 32 16 21 19 22 30 7 7 -9 13 -22 13 -30z m30
-47 c0 -8 -4 -14 -10 -14 -5 0 -10 9 -10 21 0 11 5 17 10 14 6 -3 10 -13 10
-21z m14 -74 c8 -28 12 -58 9 -67 -5 -11 -11 2 -19 37 -7 30 -13 61 -14 68 0
26 10 10 24 -38z m-1316 3 c-1 -5 28 -39 66 -77 37 -38 76 -86 86 -106 11 -21
43 -57 72 -81 29 -23 59 -49 66 -58 16 -19 15 -68 -3 -106 -14 -29 -14 -27 -9
31 l6 61 -60 49 c-33 27 -66 59 -73 71 -6 12 -16 20 -20 17 -5 -3 -7 1 -4 8 7
17 -54 90 -67 82 -6 -4 -8 -3 -5 3 9 14 -32 55 -46 47 -7 -4 -9 -3 -4 1 4 5 0
16 -9 26 -9 10 -13 23 -9 28 7 13 16 15 13 4z m497 -33 c3 -5 -1 -10 -10 -10
-9 0 -13 5 -10 10 3 6 8 10 10 10 2 0 7 -4 10 -10z m435 -44 c0 -7 -10 -17
-22 -20 -20 -6 -17 -9 22 -22 25 -9 53 -16 63 -15 9 0 17 -4 17 -10 0 -5 -7
-9 -15 -9 -27 0 -165 44 -165 52 0 5 11 6 24 2 18 -4 28 0 38 15 15 24 38 28
38 7z m210 -71 c10 -13 9 -15 -9 -15 -12 0 -21 6 -21 15 0 8 4 15 9 15 5 0 14
-7 21 -15z m-55 -5 c-3 -5 -12 -7 -20 -3 -21 7 -19 13 6 13 11 0 18 -4 14 -10z
m-722 -71 c24 -27 18 -31 -24 -17 -44 16 -42 15 -34 27 10 18 39 13 58 -10z
m37 5 c0 -8 -5 -12 -10 -9 -6 4 -8 11 -5 16 9 14 15 11 15 -7z m740 -12 c0
-10 -22 -32 -32 -32 -5 0 -3 9 4 20 13 20 28 27 28 12z m2016 -37 c8 -13 12
-30 8 -36 -5 -9 -10 -5 -16 10 -4 13 -17 25 -28 28 -11 3 -17 9 -14 14 10 17
33 9 50 -16z m-2326 5 c0 -5 -20 -10 -44 -10 -25 0 -48 5 -51 10 -4 6 13 10
44 10 28 0 51 -4 51 -10z m1414 -6 c25 -10 19 -34 -9 -34 -14 0 -25 -4 -25
-10 0 -5 -7 -10 -15 -10 -20 0 -19 7 8 35 26 28 22 26 41 19z m-1144 -26 c0
-19 -18 -43 -25 -36 -4 3 -2 16 5 27 12 24 20 27 20 9z m573 -57 c5 -1 5 -6 2
-11 -4 -6 -15 -8 -26 -5 -12 4 -21 1 -25 -9 -9 -24 -21 -19 -21 9 0 22 3 24
31 20 17 -2 35 -4 39 -4z m-607 -58 c-11 -11 -19 6 -11 24 8 17 8 17 12 0 3
-10 2 -21 -1 -24z m-328 5 c-6 -18 -28 -21 -28 -4 0 9 7 16 16 16 9 0 14 -5
12 -12z m1866 -85 c-4 -32 -11 -87 -16 -123 -20 -144 -20 -151 8 -188 25 -31
26 -40 21 -100 -6 -62 -12 -81 -21 -71 -3 2 -1 33 3 67 7 60 6 66 -21 99 -15
20 -28 44 -28 53 0 10 -10 25 -22 34 l-23 16 24 -2 c20 -2 26 3 32 27 12 48
29 214 22 230 -3 9 1 15 11 15 14 0 15 -9 10 -57z m259 40 c-7 -2 -21 -2 -30
0 -10 3 -4 5 12 5 17 0 24 -2 18 -5z m-871 -145 c-2 -5 -14 -8 -27 -8 -27 0
-98 -81 -148 -168 -16 -30 -36 -56 -45 -59 -12 -5 -12 -7 2 -15 27 -15 18 -28
-14 -21 -27 5 -30 3 -30 -18 0 -15 -13 -35 -32 -52 -31 -26 -32 -28 -14 -40
11 -7 37 -29 58 -49 22 -20 48 -40 59 -43 11 -4 19 -15 19 -28 l0 -21 -16 22
c-8 12 -21 22 -29 22 -7 0 -27 17 -43 38 -27 33 -33 36 -51 25 -11 -7 -29 -13
-40 -13 -10 0 -24 -7 -31 -15 -7 -8 -16 -12 -21 -9 -5 2 6 18 24 34 30 28 31
29 10 30 -13 0 -23 2 -23 4 0 14 56 100 71 109 17 11 14 13 -28 22 -38 8 -49
15 -51 33 -4 29 -44 30 -71 1 -23 -24 -57 -19 -66 11 -6 18 -8 19 -31 4 -13
-9 -32 -32 -40 -51 -20 -41 -47 -41 -52 0 -2 15 -7 27 -12 27 -4 0 -28 -23
-52 -52 -40 -47 -86 -96 -119 -125 -8 -7 -20 -19 -27 -28 -19 -22 -107 -21
-118 3 -4 9 -6 20 -6 25 1 4 -4 7 -12 7 -8 0 -18 5 -21 10 -4 6 7 10 24 10 24
0 31 -4 31 -19 0 -10 7 -24 15 -31 12 -10 15 -10 15 3 0 18 39 30 55 17 7 -6
15 -7 18 -3 13 13 7 23 -15 24 l-23 2 23 4 c12 2 22 9 22 14 0 5 9 9 19 9 11
0 28 14 40 34 26 41 26 46 1 46 -26 0 -26 17 1 25 12 4 18 12 15 21 -3 8 1 14
8 14 17 0 48 35 39 43 -3 4 -15 7 -25 7 -23 0 -23 5 2 30 26 26 42 18 68 -35
12 -25 26 -45 31 -45 5 0 14 -12 19 -27 l10 -28 14 33 c8 18 27 40 42 48 35
18 31 18 56 -8 l22 -23 21 26 c12 14 34 33 50 42 32 20 35 37 7 37 -11 0 -20
5 -20 10 0 6 8 10 18 10 21 0 42 38 42 78 0 15 5 34 11 42 8 11 9 6 4 -22 -5
-31 -2 -37 14 -43 45 -14 -3 -96 -78 -132 -26 -13 -26 -13 5 -7 29 5 32 2 37
-26 6 -30 7 -30 75 -30 73 0 92 11 122 69 7 13 33 53 59 89 25 35 45 69 43 74
-1 5 2 7 7 4 5 -4 12 -2 16 4 3 5 17 10 31 10 22 0 24 4 26 53 l1 52 6 -55 c4
-30 5 -58 3 -62z m428 107 c0 -15 -103 -53 -159 -58 -35 -3 -68 -10 -74 -16
-6 -6 -24 -11 -40 -11 -15 0 -26 -4 -23 -9 4 -5 -3 -7 -14 -4 -11 3 -20 9 -20
13 0 10 160 50 202 50 18 1 49 9 68 20 34 19 60 25 60 15z m-3074 -97 c32 -35
62 -62 67 -60 4 1 7 -3 7 -9 0 -5 5 -7 10 -4 6 3 10 1 10 -4 0 -6 9 -11 20
-11 11 0 20 5 20 11 0 5 4 8 8 5 5 -3 33 7 63 21 30 15 58 25 64 24 33 -8 184
-11 189 -3 3 6 23 6 48 1 24 -4 60 -8 81 -9 20 0 37 -5 37 -11 0 -8 -23 -10
-77 -5 -43 3 -104 2 -136 -2 -32 -5 -60 -5 -63 0 -14 22 -144 0 -144 -24 0 -5
-5 -6 -10 -3 -6 4 -26 -2 -44 -13 -45 -27 -74 -13 -153 71 -64 69 -82 78 -103
52 -7 -8 -20 -15 -29 -15 -21 0 38 49 60 50 9 0 43 -28 75 -62z m4792 26 c18
-4 34 -15 41 -30 14 -31 14 -67 1 -59 -5 3 -10 14 -10 24 0 25 -27 45 -62 47
-39 2 -63 24 -26 24 14 0 39 -3 56 -6z m-3936 -39 c0 -5 -5 -11 -11 -13 -6 -2
-11 4 -11 13 0 9 5 15 11 13 6 -2 11 -8 11 -13z m2522 -11 c9 -3 16 -14 16
-23 0 -20 36 -45 45 -31 3 6 11 10 17 10 7 0 6 -5 -1 -14 -10 -12 -8 -13 8 -9
12 3 21 1 21 -6 0 -6 -11 -13 -25 -17 -18 -4 -32 0 -50 17 -13 13 -25 29 -25
35 0 7 -7 14 -15 18 -8 3 -15 10 -15 16 0 12 3 12 24 4z m-2375 -29 c2 -13 -1
-16 -14 -11 -11 4 -28 -3 -47 -19 -32 -27 -45 -30 -68 -14 -12 9 -11 10 7 6
15 -3 34 5 60 29 41 36 56 38 62 9z m691 5 c0 -8 -52 -21 -59 -14 -2 2 1 10 8
18 12 14 51 11 51 -4z m-876 -15 c-6 -14 -35 -35 -48 -35 -16 0 -3 32 17 40
32 13 37 12 31 -5z m915 -69 c1 -41 -2 -77 -7 -80 -5 -3 -9 -39 -9 -79 0 -41
-6 -83 -12 -93 -10 -15 -11 -7 -7 41 7 72 -6 103 -25 61 -12 -25 -17 -27 -56
-24 -39 3 -43 1 -43 -19 0 -12 -4 -25 -10 -28 -6 -4 -10 7 -10 24 0 17 -5 31
-11 31 -5 0 -8 4 -5 8 3 5 29 7 58 4 l53 -4 23 46 c12 26 22 49 22 51 0 3 -19
5 -42 6 -67 1 -95 17 -31 18 28 1 55 6 58 11 3 6 15 10 26 10 21 0 25 20 8 37
-11 11 -2 66 11 58 4 -3 8 -38 9 -79z m-405 53 c6 -5 -14 -8 -47 -6 -55 2 -65
6 -50 21 9 9 84 -3 97 -15z m456 -43 c0 -40 2 -44 33 -54 l32 -10 -37 -1 -38
-1 0 -57 c0 -32 -5 -65 -10 -73 -6 -10 -8 9 -6 60 2 41 4 101 5 133 1 68 21
70 21 3z m-385 5 c-4 -17 -11 -29 -15 -26 -5 3 -7 12 -5 20 3 8 7 22 10 31 9
28 17 7 10 -25z m-560 -22 c12 -19 -5 -23 -22 -6 -16 16 -16 17 -1 17 9 0 20
-5 23 -11z m384 -3 c15 -8 33 -22 40 -30 20 -24 31 -86 19 -106 -15 -23 43
-151 75 -165 33 -16 59 -7 55 18 -2 14 2 22 12 22 8 0 14 -6 12 -12 -3 -17 1
-16 43 7 20 11 41 18 46 14 6 -3 -17 -19 -50 -35 -91 -43 -77 -71 26 -50 31 6
58 9 61 6 11 -11 -57 -27 -113 -27 -50 0 -56 -2 -37 -10 12 -6 22 -15 22 -20
0 -12 -24 -10 -37 3 -9 9 -19 6 -41 -10 -31 -22 -58 -28 -47 -11 4 6 -5 5 -19
-2 -23 -10 -37 -30 -18 -26 4 1 20 -2 35 -7 18 -5 33 -3 40 4 13 13 27 14 27
3 0 -14 -46 -31 -71 -26 l-24 5 23 -10 c15 -7 31 -7 48 -1 23 9 25 8 19 -7 -4
-10 -9 -33 -12 -50 -9 -55 -31 -32 -24 25 1 7 -10 12 -31 11 -18 -1 -25 -3
-15 -6 12 -3 15 -11 11 -29 -4 -17 -1 -26 10 -30 23 -9 20 -21 -6 -19 -15 1
-25 10 -28 26 -5 18 -8 9 -14 -33 -8 -62 -8 -63 -35 -48 -16 8 -18 5 -13 -39
3 -39 0 -57 -20 -90 -14 -23 -28 -38 -31 -34 -4 3 3 21 14 39 20 33 27 80 16
119 -3 11 -6 23 -6 27 -1 4 -7 5 -15 2 -10 -4 -14 2 -12 20 1 28 11 34 19 14
3 -8 6 -6 6 5 1 9 -5 17 -12 17 -12 0 -22 16 -61 100 -14 29 -47 37 -66 15 -8
-10 -9 -15 -1 -15 6 0 11 5 11 10 0 16 27 11 34 -6 8 -22 8 -54 -1 -54 -18 1
-63 50 -63 68 0 16 13 23 68 36 83 21 104 32 79 42 -23 9 -22 24 3 24 24 0 24
3 4 41 -21 41 -9 50 13 10 10 -17 21 -31 24 -31 12 0 31 49 23 62 -6 10 -4 10
9 -1 10 -8 21 -11 24 -7 4 4 2 10 -4 14 -8 5 -9 13 -3 22 16 25 11 33 -16 27
-19 -3 -24 -1 -20 10 4 10 1 11 -14 3 -10 -5 -29 -10 -41 -10 -21 0 -21 -1 -5
-19 11 -12 24 -17 34 -13 14 5 15 4 2 -10 -14 -15 -18 -14 -48 15 -27 26 -30
33 -17 40 8 4 20 5 25 2 6 -4 26 3 45 14 25 15 36 17 42 8 5 -8 10 -3 14 13
14 52 12 56 -31 54 -33 -2 -40 1 -40 17 0 10 5 19 10 19 6 0 10 -3 10 -7 0 -5
11 -9 25 -9 34 -2 28 15 -15 44 -36 24 -108 30 -155 12 -25 -10 -85 -67 -85
-82 0 -10 32 2 48 19 7 7 28 17 47 22 55 15 117 -23 102 -61 -4 -8 -8 -5 -12
8 -8 26 -69 39 -108 25 -31 -12 -57 -48 -57 -78 0 -12 -4 -25 -10 -28 -6 -4
-10 7 -10 26 0 18 -7 37 -17 44 -15 11 -13 16 16 53 18 22 47 48 65 56 39 20
138 21 175 2z m3615 -51 c25 -19 16 -28 -17 -20 -17 5 -24 12 -20 21 6 17 13
17 37 -1z m-3261 -5 c4 0 7 -5 7 -11 0 -8 -14 -9 -42 -5 -24 3 -69 6 -100 8
-32 1 -63 5 -70 10 -8 6 28 7 92 4 58 -3 108 -6 113 -6z m946 -37 c8 -20 23
-45 35 -55 11 -9 16 -17 9 -18 -17 0 -44 30 -59 67 -16 38 -17 43 -6 43 4 0
14 -17 21 -37z m1031 -4 c0 -14 -11 -11 -32 8 -27 24 -22 36 7 17 14 -9 25
-20 25 -25z m-2449 -116 c12 -38 26 -74 32 -81 12 -15 1 -30 -12 -16 -10 11
-51 132 -51 151 0 27 9 11 31 -54z m349 31 c0 -14 -3 -14 -15 -4 -8 7 -15 14
-15 16 0 2 7 4 15 4 8 0 15 -7 15 -16z m77 -6 c-3 -8 -6 -5 -6 6 -1 11 2 17 5
13 3 -3 4 -12 1 -19z m-646 -1 c-1 -12 -15 -9 -19 4 -3 6 1 10 8 8 6 -3 11 -8
11 -12z m170 -40 c-1 -12 -15 -9 -19 4 -3 6 1 10 8 8 6 -3 11 -8 11 -12z m409
-17 c0 -5 -7 -10 -15 -10 -8 0 -15 5 -15 10 0 6 7 10 15 10 8 0 15 -4 15 -10z
m-494 -49 c-1 -16 -8 -37 -17 -48 -9 -10 -14 -25 -12 -33 2 -8 -5 -4 -16 9
-27 30 -26 41 2 33 20 -5 21 -4 7 12 -13 16 -12 20 9 37 30 24 29 24 27 -10z
m2371 -31 c4 0 15 8 26 17 15 14 35 17 92 16 40 0 81 -6 92 -11 13 -8 -5 -9
-68 -5 -79 5 -88 4 -108 -16 -11 -11 -25 -21 -30 -21 -18 0 -29 26 -23 55 l7
30 3 -32 c2 -18 6 -33 9 -33z m-85 25 c-5 -28 -22 -44 -22 -21 0 21 11 46 20
46 4 0 5 -11 2 -25z m-1102 5 c8 -5 12 -12 9 -15 -8 -8 -39 5 -39 16 0 11 11
11 30 -1z m-1106 -9 c3 -5 -2 -11 -12 -14 -9 -2 -25 -8 -34 -12 -13 -5 -18 -2
-18 8 0 9 10 18 23 20 12 2 25 5 29 6 4 0 9 -3 12 -8z m1546 -1 c23 -8 23 -8
-8 -9 -18 -1 -42 -6 -53 -11 -24 -14 -26 5 -1 19 20 12 28 12 62 1z m-1540
-30 c0 -5 -2 -10 -4 -10 -3 0 -8 5 -11 10 -3 6 -1 10 4 10 6 0 11 -4 11 -10z
m-230 -62 c0 -20 -4 -40 -10 -43 -6 -4 -10 16 -10 52 0 41 3 54 10 43 5 -8 10
-32 10 -52z m-46 8 c3 -13 2 -35 -3 -48 l-10 -23 -1 25 c0 14 -3 35 -6 48 -4
12 -2 22 4 22 5 0 13 -11 16 -24z m-104 -25 c0 -16 -13 -20 -26 -6 -22 21 -18
38 6 25 11 -6 20 -14 20 -19z m1751 19 c19 -11 27 -60 10 -60 -5 0 -7 9 -4 19
3 13 -2 21 -16 26 -12 3 -21 11 -21 16 0 12 7 11 31 -1z m-1421 -30 c0 -5 -16
-10 -35 -10 -19 0 -35 5 -35 10 0 6 16 10 35 10 19 0 35 -4 35 -10z m-105 -7
c-27 -7 -32 -17 -27 -58 4 -34 6 -35 48 -36 24 -1 50 -2 57 -3 7 -1 13 13 15
32 2 20 9 32 18 32 11 0 12 -4 4 -19 -15 -28 -12 -51 5 -51 8 0 15 -4 15 -10
0 -5 -6 -10 -14 -10 -23 0 -13 -56 15 -79 19 -16 21 -20 7 -21 -24 0 -70 61
-57 77 19 22 -1 33 -57 33 -36 0 -54 -4 -54 -12 0 -7 -12 -21 -26 -33 -17 -13
-25 -30 -26 -52 -1 -22 -5 -30 -15 -26 -16 6 -51 -22 -64 -52 -5 -11 -20 -34
-32 -51 -12 -18 -28 -40 -34 -50 -11 -16 -11 -14 -3 10 6 16 19 41 30 56 11
16 20 35 20 43 0 8 18 27 40 42 39 27 50 48 31 59 -5 4 -12 0 -15 -6 -3 -7 -3
2 0 19 5 27 3 32 -10 27 -9 -3 -16 -1 -16 4 0 6 9 14 20 17 16 5 18 10 10 25
-6 10 -10 23 -10 29 0 16 29 13 46 -4 25 -25 34 -17 34 30 0 44 0 45 33 44 21
-1 25 -3 12 -6z m-190 -33 c-3 -5 -12 -10 -20 -10 -8 0 -43 -25 -77 -56 -57
-51 -169 -114 -203 -114 -7 0 -20 -11 -29 -24 -14 -22 -96 -86 -110 -86 -16 0
-2 18 32 40 43 28 101 89 102 107 0 6 -6 14 -12 16 -8 3 -6 6 5 6 11 1 17 -6
17 -19 0 -24 -3 -24 54 0 25 12 46 28 46 36 0 11 6 13 19 9 21 -6 38 10 21 20
-19 12 -11 26 8 16 15 -8 28 -2 66 30 43 35 97 54 81 29z m726 -46 c12 -14 11
-16 -5 -13 -11 2 -21 10 -24 17 -5 17 13 15 29 -4z m973 0 c13 -5 14 -20 8
-97 -11 -151 -9 -211 9 -230 13 -12 19 -13 29 -4 10 10 11 9 4 -3 -5 -8 -7
-23 -5 -34 2 -12 -1 -16 -9 -11 -9 6 -9 2 -1 -13 15 -28 14 -64 -2 -86 -9 -13
-27 -17 -75 -17 -34 0 -64 -5 -67 -10 -8 -12 -35 -12 -35 0 0 14 31 23 92 26
66 4 78 9 78 36 0 12 -7 19 -20 19 -11 0 -20 4 -20 10 0 5 -7 7 -15 4 -10 -4
-15 0 -15 10 0 9 6 19 13 22 10 3 13 28 14 87 0 45 3 126 7 180 l7 99 -38 -2
c-56 -3 -64 2 -18 10 22 4 41 8 42 9 1 0 8 -2 17 -5z m-1274 -30 c8 -22 1 -54
-11 -54 -8 0 -13 15 -10 33 0 4 -4 7 -10 7 -8 0 -10 -15 -5 -46 4 -33 2 -50
-8 -60 -23 -23 -29 -16 -22 25 5 34 3 40 -17 46 -21 7 -21 7 -2 12 23 6 44 33
38 48 -2 7 5 11 18 10 13 -1 26 -10 29 -21z m405 16 c3 -5 -1 -10 -9 -10 -9 0
-16 5 -16 10 0 6 4 10 9 10 6 0 13 -4 16 -10z m56 -123 c-13 -13 -15 52 -3
104 6 29 7 25 10 -30 2 -36 -2 -69 -7 -74z m109 85 c24 -14 85 -62 136 -108
64 -58 116 -95 177 -125 48 -23 87 -46 87 -51 0 -13 -5 -11 -108 41 -67 34
-116 68 -160 110 -68 66 -141 120 -190 140 -18 8 -32 18 -32 23 0 13 36 1 90
-30z m-217 -41 c30 -44 47 -98 28 -87 -6 4 -11 13 -11 20 0 7 -13 32 -30 54
-32 45 -35 52 -21 52 4 0 20 -18 34 -39z m-43 -42 c0 -5 -7 -9 -15 -9 -9 0
-12 6 -9 15 6 15 24 11 24 -6z m-582 -69 c24 -26 36 -30 127 -40 55 -7 102
-14 104 -16 13 -13 -17 -13 -114 0 -98 13 -110 16 -131 42 -40 50 -29 61 14
14z m865 1 c5 -22 -1 -33 -14 -25 -12 7 -12 44 0 44 5 0 11 -9 14 -19z m-483
-15 c0 -8 8 -17 18 -19 13 -4 12 -5 -5 -6 -12 0 -23 -7 -26 -13 -8 -24 -18 -1
-11 26 7 27 24 36 24 12z m-323 -2 c-3 -3 -12 -4 -19 -1 -8 3 -5 6 6 6 11 1
17 -2 13 -5z m433 -49 c0 -8 -7 -15 -15 -15 -16 0 -20 12 -8 23 11 12 23 8 23
-8z m-3549 -15 c17 0 32 -6 36 -15 8 -21 3 -25 -43 -28 -21 -1 -45 -6 -52 -11
-7 -4 -20 -5 -28 -2 -8 3 -17 -1 -20 -9 -6 -15 -64 -22 -64 -7 0 4 7 15 15 26
10 13 21 17 39 12 15 -4 26 -2 26 3 0 6 7 8 15 5 9 -4 19 4 27 21 7 15 14 22
16 16 2 -6 17 -11 33 -11z m3838 -7 c28 -3 51 -10 51 -15 0 -5 -21 -6 -47 -3
-27 4 -73 8 -103 10 -68 3 -70 4 -42 15 12 5 28 7 36 4 8 -3 17 0 21 6 5 8 10
8 20 0 7 -6 36 -13 64 -17z m-559 -13 c0 -5 -9 -10 -19 -10 -11 0 -23 -5 -27
-12 -4 -7 -3 -8 4 -4 7 4 12 2 12 -3 0 -6 17 -11 37 -11 20 0 33 -3 29 -7 -4
-4 -24 -6 -45 -4 -32 2 -39 -1 -46 -21 -7 -21 -8 -20 -14 12 -4 24 -1 41 9 53
15 18 60 24 60 7z m1540 -5 c0 -8 -4 -15 -10 -15 -5 0 -7 7 -4 15 4 8 8 15 10
15 2 0 4 -7 4 -15z m40 -4 c0 -5 -7 -11 -15 -15 -9 -3 -15 0 -15 9 0 8 7 15
15 15 8 0 15 -4 15 -9z m-1474 -26 c5 -15 -23 -48 -34 -41 -15 9 -1 57 16 54
8 -2 17 -7 18 -13z m-531 -29 c-8 -12 -12 -25 -9 -28 3 -4 -4 -11 -15 -18 -12
-6 -21 -15 -21 -21 0 -6 -9 -24 -21 -40 -18 -26 -19 -30 -5 -45 15 -14 16 -14
16 1 0 9 5 13 10 10 6 -3 10 -17 10 -31 0 -29 -13 -31 -40 -4 -16 16 -20 17
-20 5 0 -8 -7 -15 -15 -15 -12 0 -11 7 4 40 10 22 21 43 24 47 4 3 7 10 7 14
0 17 -66 -32 -102 -74 -29 -35 -52 -50 -108 -71 -80 -29 -80 -29 -80 -17 0 5
33 20 73 33 59 20 77 32 102 64 17 22 57 58 90 80 33 21 69 53 80 70 11 18 23
30 27 27 4 -2 1 -14 -7 -27z m35 -6 c0 -5 -2 -10 -4 -10 -3 0 -8 5 -11 10 -3
6 -1 10 4 10 6 0 11 -4 11 -10z m920 -20 c0 -5 -2 -10 -4 -10 -3 0 -8 5 -11
10 -3 6 -1 10 4 10 6 0 11 -4 11 -10z m-470 -41 c0 -18 -2 -19 -15 -9 -15 12
-12 30 6 30 5 0 9 -10 9 -21z m918 -21 c-3 -7 4 -20 15 -29 21 -17 16 -39 -9
-39 -17 0 -19 17 -1 23 7 3 0 9 -15 16 -19 7 -36 7 -54 1 -22 -9 -25 -8 -20 6
3 8 6 19 6 22 0 4 18 8 41 10 29 2 40 -1 37 -10z m-1098 -22 c0 -13 -110 -200
-140 -236 -20 -25 -51 -66 -69 -92 -17 -27 -36 -48 -42 -48 -11 0 55 100 100
153 15 18 51 76 81 130 29 53 57 97 62 97 4 0 8 -2 8 -4z m640 -5 c0 -12 -20
-25 -27 -18 -7 7 6 27 18 27 5 0 9 -4 9 -9z m-1737 -38 c4 -3 2 -12 -4 -20 -9
-9 -8 -13 0 -13 6 0 11 5 11 10 0 6 7 10 15 10 8 0 15 -7 15 -15 0 -9 -9 -15
-21 -15 -18 0 -20 -4 -15 -25 5 -19 2 -25 -10 -25 -8 0 -14 6 -11 13 2 6 -3
20 -11 30 -14 16 -14 19 -2 27 8 6 11 10 7 10 -10 0 2 20 12 20 4 0 11 -3 14
-7z m1857 -47 c-14 -14 -22 -2 -14 18 5 14 9 15 15 4 4 -7 4 -17 -1 -22z m659
3 c12 -12 20 -24 17 -27 -3 -3 -14 2 -24 11 -13 12 -28 15 -50 11 -37 -7 -43
2 -9 16 33 13 41 12 66 -11z m-2316 -5 c20 -7 23 -24 5 -24 -15 1 -48 24 -48
34 0 4 6 5 13 2 6 -3 20 -9 30 -12z m570 4 c3 13 6 11 11 -9 6 -21 1 -32 -26
-60 -31 -32 -76 -45 -94 -27 -3 4 -14 0 -22 -9 -12 -12 -17 -13 -20 -3 -3 7 3
19 12 25 9 7 16 17 16 24 0 6 5 11 10 11 6 0 10 9 10 20 0 29 28 40 66 24 29
-12 33 -12 37 4z m-526 -57 c-4 -20 -2 -31 8 -35 11 -4 15 2 15 24 0 17 5 30
11 30 7 0 9 -11 6 -30 -6 -28 -4 -30 23 -30 17 0 30 -5 30 -11 0 -10 -63 -9
-99 2 -8 2 -16 -4 -19 -13 -6 -31 60 -48 195 -52 68 -2 129 -9 136 -15 10 -8
12 -2 10 27 -2 35 -2 35 5 7 5 -21 13 -29 25 -27 9 2 17 -3 17 -10 -1 -19 -49
-51 -66 -44 -12 4 -14 1 -9 -14 5 -14 2 -20 -9 -20 -9 0 -16 4 -16 9 0 5 -29
9 -65 9 -36 0 -71 5 -79 11 -17 14 -51 2 -83 -28 -23 -22 -40 -25 -67 -15 -23
9 -20 44 3 44 22 0 52 30 30 30 -8 1 -29 13 -47 29 -25 21 -33 36 -34 64 -1
21 2 40 5 44 4 3 7 -5 7 -18 0 -34 11 -69 21 -69 5 0 6 6 3 14 -3 8 2 28 10
45 9 16 16 39 16 51 0 11 5 20 11 20 7 0 9 -11 6 -29z m3238 16 c14 -11 16
-21 11 -42 -6 -23 -9 -26 -17 -14 -8 12 -9 12 -9 0 0 -13 -2 -13 -12 -2 -10
11 -10 14 0 18 19 7 14 23 -8 23 -11 0 -20 -4 -20 -10 0 -5 -4 -10 -9 -10 -4
0 -6 11 -3 25 5 28 36 34 67 12z m-3455 -62 c11 -13 8 -15 -21 -15 -32 1 -33
1 -15 15 24 18 21 18 36 0z m2470 -19 c0 -18 -9 -45 -20 -59 -11 -14 -20 -31
-20 -39 -1 -18 -39 -62 -47 -54 -3 3 1 14 9 23 26 30 31 60 11 72 -18 10 -16
12 22 15 16 1 21 9 23 39 4 46 22 49 22 3z m40 4 c0 -5 -2 -10 -4 -10 -3 0 -8
5 -11 10 -3 6 -1 10 4 10 6 0 11 -4 11 -10z m-800 -41 c-11 -39 -20 -49 -20
-23 0 31 12 64 20 59 5 -3 4 -19 0 -36z m440 14 c0 -8 16 -21 35 -29 66 -27
38 -84 -42 -86 -60 -1 -83 -15 -83 -51 0 -17 -4 -26 -11 -22 -6 4 -8 13 -5 21
3 8 -6 20 -23 29 l-29 14 -5 -37 c-6 -47 -37 -132 -47 -132 -8 0 5 49 21 82
16 31 10 86 -8 97 -17 10 -17 10 -1 11 11 0 15 5 12 15 -4 8 -1 15 4 15 6 0
13 -8 17 -19 3 -11 19 -21 36 -25 54 -10 53 5 -2 35 -38 21 -66 29 -102 29
-60 0 -58 7 4 15 40 5 52 2 95 -24 32 -20 69 -33 107 -37 55 -7 57 -6 57 17
-1 26 -35 71 -64 82 -9 4 -15 11 -12 16 9 14 46 1 46 -16z m440 -78 c0 -12
-10 -5 -29 23 -16 22 -35 43 -41 47 -5 3 -8 10 -5 15 8 13 75 -64 75 -85z
m-1490 80 c0 -11 -60 -34 -74 -29 -26 10 -18 27 8 20 14 -3 28 -2 31 4 6 10
35 14 35 5z m479 -97 c1 -10 -3 -18 -9 -18 -5 0 -10 17 -9 38 0 30 2 33 9 17
5 -11 9 -28 9 -37z m91 2 c0 -5 -7 -10 -16 -10 -8 0 -12 5 -9 10 3 6 10 10 16
10 5 0 9 -4 9 -10z m61 -30 c57 -25 75 -25 84 3 7 19 9 17 12 -17 4 -39 -3
-59 -15 -40 -4 6 -18 14 -32 18 -44 13 -100 39 -100 48 0 11 2 11 51 -12z
m179 -18 c0 -7 -4 -11 -9 -8 -5 3 -12 -4 -16 -17 -7 -21 -8 -21 -12 6 -5 33
15 66 28 45 5 -7 9 -19 9 -26z m738 -3 c13 -16 20 -29 16 -29 -11 0 -54 42
-54 52 0 16 15 7 38 -23z m-1039 -9 c4 0 8 -7 8 -15 0 -8 -6 -15 -14 -15 -7 0
-13 8 -13 17 0 14 -3 13 -16 -5 -9 -14 -25 -22 -42 -21 l-27 0 25 12 c14 6 29
18 33 25 5 7 16 11 24 8 8 -3 18 -6 22 -6z m-799 -10 c0 -5 -5 -10 -11 -10 -5
0 -7 5 -4 10 3 6 8 10 11 10 2 0 4 -4 4 -10z m-624 -9 c-3 -5 -22 -12 -41 -15
-19 -4 -35 -10 -35 -14 0 -4 -13 -22 -29 -40 -24 -26 -38 -32 -69 -32 -21 0
-80 -13 -131 -30 -51 -16 -108 -32 -127 -35 -19 -3 -50 -8 -70 -11 -20 -3 -33
-8 -30 -11 3 -3 -6 -14 -19 -25 -23 -18 -35 -58 -17 -58 4 0 6 -16 4 -35 -4
-33 22 -94 35 -82 7 7 41 -26 36 -36 -8 -13 -64 27 -81 58 -8 17 -15 44 -13
62 1 17 -3 34 -9 38 -5 3 -10 1 -10 -5 0 -6 -4 -9 -10 -5 -5 3 -25 -1 -45 -9
-19 -8 -35 -12 -35 -8 0 15 16 27 40 30 32 3 76 36 72 54 -2 7 -1 10 3 6 4 -4
17 4 29 16 15 17 41 26 96 35 41 6 77 15 80 19 3 4 10 7 15 8 25 2 75 17 75
23 0 3 15 7 33 8 95 6 117 14 148 53 17 21 41 41 53 43 39 8 57 7 52 -2z
m1272 -10 c3 -8 -1 -12 -9 -9 -7 2 -15 10 -17 17 -3 8 1 12 9 9 7 -2 15 -10
17 -17z m767 9 c3 -5 -3 -10 -14 -10 -11 0 -23 5 -26 10 -3 6 3 10 14 10 11 0
23 -4 26 -10z m55 0 c0 -5 -7 -10 -15 -10 -8 0 -15 5 -15 10 0 6 7 10 15 10 8
0 15 -4 15 -10z m-1497 -38 c-10 -15 -30 -51 -45 -80 -14 -28 -43 -68 -64 -87
-39 -37 -40 -44 -18 -177 4 -23 2 -38 -4 -38 -10 0 -17 32 -28 127 -6 51 -6
52 41 102 31 33 45 56 41 66 -3 9 -2 14 3 11 11 -7 23 22 15 35 -3 5 0 8 8 7
7 -2 12 5 12 14 -1 10 3 16 10 15 6 -1 11 5 10 13 -1 9 8 17 18 17 19 2 19 1
1 -25z m676 -5 c9 15 10 14 11 -13 0 -28 -3 -32 -25 -30 -21 1 -25 6 -25 31 1
28 2 29 14 12 14 -18 15 -18 25 0z m736 3 c3 -5 4 -14 0 -20 -8 -13 -35 -1
-35 16 0 16 26 19 35 4z m625 -134 c0 -6 -27 18 -60 53 -33 35 -60 69 -60 75
1 6 28 -18 60 -53 33 -35 60 -68 60 -75z m-603 69 c10 -22 9 -25 -8 -25 -14 0
-19 7 -19 25 0 32 12 32 27 0z m1309 -17 c-2 -18 -10 -79 -17 -135 -10 -89
-15 -103 -31 -103 -10 0 -18 -5 -18 -10 0 -6 -11 -8 -25 -4 -23 6 -25 4 -17
-17 11 -31 4 -59 -14 -59 -8 0 -22 -15 -31 -34 -15 -33 -15 -36 6 -71 18 -30
19 -36 6 -31 -9 3 -21 6 -26 6 -5 0 -9 20 -9 45 0 38 -3 45 -22 50 -13 3 -33
21 -45 40 -28 42 -30 65 -5 42 23 -21 104 -39 117 -26 5 5 9 24 10 42 0 27 3
32 23 30 12 -2 22 2 22 7 0 6 6 10 14 10 8 0 17 8 20 18 10 36 28 193 23 199
-5 4 13 32 21 33 2 0 1 -15 -2 -32z m-2341 12 c-4 -6 15 -10 49 -10 31 0 56
-4 56 -9 0 -6 -89 -7 -110 0 -3 1 -8 1 -12 0 -10 -1 -10 13 -1 22 10 11 25 8
18 -3z m-121 -29 c0 -13 5 -21 17 -21 9 0 27 -9 40 -21 21 -18 21 -20 4 -14
-11 4 -29 10 -40 12 -21 5 -58 57 -47 67 11 12 27 -1 26 -23z m1186 -31 c0
-12 -12 -22 -37 -30 -21 -7 -42 -16 -47 -21 -6 -5 -21 -9 -34 -9 -22 0 -24 -3
-19 -29 6 -27 2 -32 -35 -51 -26 -13 -50 -19 -65 -15 -32 8 -20 24 13 17 17
-3 25 -1 21 5 -4 6 3 13 14 16 16 4 19 10 14 28 -4 13 -3 19 3 15 5 -3 12 3
15 14 3 13 14 20 28 20 39 0 90 23 84 38 -8 21 2 31 25 25 11 -3 20 -13 20
-23z m-4633 4 c-3 -3 -12 -4 -19 -1 -8 3 -5 6 6 6 11 1 17 -2 13 -5z m4288
-14 c-3 -5 -25 -10 -48 -9 -33 0 -38 2 -22 9 28 12 78 12 70 0z m1130 -21 c8
-13 6 -15 -22 -23 -19 -6 -23 -3 -23 13 0 23 33 30 45 10z m-155 -9 c12 -8 11
-10 -7 -10 -12 0 -25 5 -28 10 -8 13 15 13 35 0z m-1610 -82 c0 -8 -99 -3
-107 6 -3 2 -2 9 1 14 6 10 106 -8 106 -20z m2283 -19 c4 1 19 1 35 0 23 0 24
-2 8 -8 -14 -5 -16 -10 -8 -15 7 -4 17 -4 22 -1 6 3 10 -1 10 -9 0 -8 -5 -18
-10 -21 -6 -4 -8 -11 -5 -16 4 -5 1 -9 -4 -9 -6 0 -11 -11 -11 -24 0 -30 -14
-40 -37 -27 -17 10 -17 10 -1 11 12 0 19 11 24 35 8 43 0 65 -26 72 -12 3 -20
13 -19 27 0 19 1 19 8 3 4 -10 10 -18 14 -18z m-2163 -70 c0 -5 -4 -8 -9 -4
-26 15 -11 -84 17 -113 6 -7 12 -22 12 -33 0 -14 6 -19 18 -17 21 4 29 47 10
59 -10 7 -10 9 0 9 6 0 12 5 12 10 0 6 -7 10 -15 10 -8 0 -15 5 -15 11 0 7 22
8 68 4 79 -9 113 -29 38 -23 -34 2 -50 -1 -52 -10 -1 -7 0 -8 3 -2 6 13 23 13
23 -1 0 -6 -7 -17 -15 -25 -24 -24 -18 -33 25 -40 30 -5 38 -10 30 -19 -5 -6
-7 -15 -3 -18 3 -4 -2 -9 -11 -13 -11 -4 -24 1 -37 15 -22 23 -58 28 -60 9 -2
-24 3 -42 16 -53 17 -14 26 -43 15 -50 -10 -6 5 -65 18 -74 5 -3 12 -13 15
-21 4 -12 6 -11 6 3 1 13 10 17 47 17 l45 0 -2 58 c-1 32 3 67 9 78 13 25 18
178 7 217 -4 15 -3 27 2 27 5 0 15 -26 23 -57 14 -52 18 -58 49 -66 18 -4 43
-14 55 -22 11 -7 38 -16 59 -19 20 -4 37 -11 37 -15 0 -13 -90 8 -131 30 -58
30 -65 26 -73 -38 -4 -31 -12 -63 -18 -70 -7 -8 -9 -41 -5 -88 3 -42 1 -75 -4
-75 -5 0 -9 5 -9 10 0 6 -16 10 -36 10 -35 0 -35 -1 -32 -37 l3 -38 74 -9 c64
-7 76 -6 86 8 9 11 31 16 78 18 90 2 95 -8 8 -17 -41 -4 -75 -13 -82 -21 -7
-9 -23 -13 -43 -10 -109 17 -126 17 -126 2 0 -19 -14 -28 -34 -20 -22 8 -20
26 2 22 12 -2 18 5 20 27 4 39 -26 75 -62 75 -14 0 -26 5 -26 11 0 5 5 7 10 4
12 -7 12 -5 14 59 1 37 -2 50 -14 53 -10 3 -17 17 -18 41 -2 20 -7 39 -12 40
-6 2 -8 8 -5 13 3 5 1 18 -6 30 -15 28 -25 12 -34 -53 -4 -26 -11 -48 -16 -48
-11 0 -12 -9 5 77 7 40 11 71 7 69 -11 -7 -25 7 -39 38 -15 34 0 60 29 51 11
-4 19 -2 19 4 0 6 7 11 15 11 8 0 15 -5 15 -11z m1463 -61 c-6 -7 -13 -26 -17
-41 -4 -15 -11 -25 -15 -22 -18 10 9 75 31 75 7 0 7 -4 1 -12z m-2224 -46 c-8
-24 -8 -45 1 -82 7 -27 15 -48 19 -46 8 5 10 -7 16 -94 7 -102 25 -187 40
-187 7 0 11 6 8 12 -3 11 25 31 32 23 8 -8 7 -35 0 -52 -6 -13 -3 -21 8 -28
22 -12 21 -30 -3 -61 -26 -32 -25 -35 5 -29 14 2 25 0 25 -6 0 -16 -61 -21
-67 -5 -3 7 -16 13 -30 13 -20 0 -83 50 -83 65 0 12 40 -11 45 -25 9 -27 63
-31 86 -7 23 25 24 36 4 43 -8 4 -15 12 -15 19 0 20 -38 22 -142 6 -94 -13
-97 -15 -108 -44 -5 -16 -10 -33 -10 -37 0 -4 28 -11 61 -14 34 -4 79 -14 100
-23 33 -13 37 -18 29 -34 -6 -10 -10 -22 -9 -26 1 -4 1 -14 0 -22 -1 -17 -46
-7 -79 20 l-25 19 42 0 c29 0 41 4 41 15 0 18 -60 35 -128 35 l-54 0 7 33 c18
81 14 78 145 97 41 6 76 13 78 15 8 7 -17 127 -29 141 -6 8 -20 14 -30 14 -23
0 -25 16 -3 24 12 4 14 13 10 31 -5 18 -2 27 8 31 8 3 12 12 9 20 -3 8 -8 12
-13 9 -4 -2 -5 7 -2 22 3 14 1 23 -4 20 -14 -8 -8 101 6 118 18 22 22 13 9
-23z m1979 -5 c3 -12 -4 -17 -22 -17 -24 0 -25 2 -14 20 15 23 31 21 36 -3z
m495 -74 c-19 -30 -43 -52 -56 -53 -4 0 9 20 29 45 41 49 56 53 27 8z m732
-13 c-3 -5 -16 -10 -28 -10 -18 0 -19 2 -7 10 20 13 43 13 35 0z m-155 -48 c0
-15 7 -26 20 -29 14 -4 20 -13 19 -32 0 -25 -1 -25 -9 -4 -5 12 -19 25 -32 27
-13 3 -32 7 -43 9 -15 4 -13 5 7 6 25 1 26 3 22 39 -4 28 -3 33 5 22 6 -8 11
-26 11 -38z m-4960 15 c0 -8 6 -14 14 -14 8 0 12 6 9 14 -3 7 2 13 11 13 9 0
16 -8 17 -17 0 -11 3 -13 6 -5 2 6 17 12 33 12 38 0 48 -29 18 -52 -27 -21
-68 -24 -68 -5 0 7 -12 14 -26 15 -32 2 -41 8 -54 33 -9 16 -7 19 15 19 14 0
25 -6 25 -13z m4290 3 c0 -5 -7 -10 -15 -10 -7 0 -19 -8 -24 -17 -9 -16 -10
-16 -11 4 0 15 7 23 23 26 12 2 23 5 25 6 1 0 2 -3 2 -9z m430 -40 c0 -11 -7
-20 -15 -20 -8 0 -15 9 -15 20 0 11 7 20 15 20 8 0 15 -9 15 -20z m76 -12 c-3
-13 -9 -42 -12 -65 -7 -47 -24 -59 -24 -17 0 37 21 104 33 104 5 0 6 -10 3
-22z m-606 -64 c0 -20 -6 -34 -16 -38 -25 -10 -32 4 -10 19 18 14 18 22 1 70
-7 20 -6 20 9 1 9 -11 16 -34 16 -52z m-4180 47 c0 -12 -20 -25 -27 -18 -7 7
6 27 18 27 5 0 9 -4 9 -9z m3100 -11 c-12 -23 -46 -43 -63 -37 -7 3 0 9 14 15
15 6 29 18 32 26 4 9 11 16 17 16 8 0 8 -6 0 -20z m-3056 -25 c-4 -8 -10 -15
-15 -15 -4 0 -6 7 -3 15 4 8 10 15 15 15 4 0 6 -7 3 -15z m-39 -15 c-3 -5 -10
-10 -16 -10 -5 0 -9 5 -9 10 0 6 7 10 16 10 8 0 12 -4 9 -10z m3400 -22 c38
-12 76 -28 83 -35 7 -7 18 -13 23 -13 5 0 9 -7 9 -15 0 -22 -31 -18 -37 5 -3
11 -13 20 -22 20 -9 0 -25 7 -35 15 -11 8 -29 15 -40 15 -21 1 -80 29 -61 30
5 0 41 -10 80 -22z m75 1 c0 -5 -7 -9 -15 -9 -15 0 -20 12 -9 23 8 8 24 -1 24
-14z m60 -14 c6 -8 9 -23 5 -35 -4 -12 -2 -20 5 -20 6 0 8 -5 5 -10 -10 -16
-27 0 -22 20 3 11 -1 21 -9 24 -15 6 -20 36 -5 36 5 0 14 -7 21 -15z m100 -7
c0 -10 -19 -9 -45 2 -16 7 -14 9 13 7 17 -1 32 -5 32 -9z m-1095 -8 c3 -5 -1
-10 -10 -10 -9 0 -13 5 -10 10 3 6 8 10 10 10 2 0 7 -4 10 -10z m2209 1 c3 -4
-18 -11 -47 -14 -46 -5 -57 -12 -95 -53 -24 -26 -49 -61 -56 -78 -17 -40 -56
-77 -56 -53 0 9 5 19 10 22 6 4 19 24 30 46 33 63 103 123 153 130 23 3 45 7
49 7 4 1 9 -2 12 -7z m-1034 -31 c0 -5 -7 -10 -15 -10 -8 0 -19 -9 -25 -20
-16 -29 -27 -24 -22 10 4 25 9 30 33 30 16 0 29 -4 29 -10z m-1180 -16 c0 -2
-7 -4 -15 -4 -8 0 -15 4 -15 10 0 5 7 7 15 4 8 -4 15 -8 15 -10z m184 -6 c9
-34 8 -36 -14 -48 -18 -10 -20 -8 -20 17 0 22 2 25 10 13 8 -12 10 -11 10 7 0
12 -6 24 -12 26 -8 4 -7 6 3 6 9 1 19 -9 23 -21z m762 -20 c8 -8 -18 -48 -32
-48 -6 0 -18 8 -25 17 -12 15 -12 16 4 10 9 -3 17 -2 17 3 0 6 -7 11 -15 11
-8 1 -19 3 -25 4 -5 1 -14 3 -20 4 -5 0 -10 5 -10 9 0 9 96 0 106 -10z m-1268
-57 c46 -28 58 -50 44 -78 -6 -10 -16 -51 -23 -90 -7 -40 -17 -73 -21 -73 -11
0 -1 71 19 137 18 60 15 67 -46 101 -33 19 -41 20 -41 8 0 -8 -4 -17 -8 -20
-5 -3 -9 8 -9 25 0 25 3 28 21 23 12 -3 40 -18 64 -33z m127 31 c14 -10 18
-62 5 -62 -9 0 -15 22 -11 43 1 5 -10 0 -25 -12 -34 -27 -55 -27 -26 -1 12 12
22 25 22 30 0 12 21 13 35 2z m3221 -26 c8 -14 28 -27 42 -29 22 -3 20 -4 -9
-6 -29 -1 -38 4 -47 24 -6 14 -16 25 -22 25 -6 0 -8 -5 -4 -11 4 -7 1 -10 -6
-7 -25 8 -22 28 4 28 16 0 31 -9 42 -24z m-3095 -23 c8 -16 21 -33 29 -40 13
-11 12 -12 -8 -13 -14 0 -22 -5 -20 -12 3 -8 27 -14 61 -16 59 -3 81 -22 26
-22 -25 0 -29 -3 -24 -19 8 -28 -5 -52 -25 -46 -9 3 -22 -1 -28 -8 -14 -17
-82 -10 -89 9 -3 8 -11 14 -19 14 -8 0 -14 5 -14 10 0 6 9 10 20 10 11 0 20
-4 20 -10 0 -21 16 -9 27 21 11 28 10 31 -13 40 -14 5 -31 9 -39 9 -8 0 -17 5
-21 12 -5 8 2 9 23 5 29 -6 31 -4 38 31 6 33 19 51 36 52 3 0 12 -12 20 -27z
m229 -125 c21 -26 17 -38 -12 -38 -14 0 -18 -5 -14 -15 3 -9 0 -15 -9 -15 -9
0 -12 6 -8 17 5 14 1 15 -27 9 -42 -8 -46 -12 -30 -30 6 -9 10 -21 8 -27 -2
-7 -11 3 -20 21 -17 35 -14 70 5 51 6 -6 15 -7 21 -2 6 5 27 11 45 13 33 3 34
4 17 21 -10 9 -12 17 -6 17 7 0 20 -10 30 -22z m-680 -24 c0 -8 -4 -12 -10 -9
-5 3 -10 10 -10 16 0 5 5 9 10 9 6 0 10 -7 10 -16z m70 -50 c0 -8 -4 -12 -10
-9 -5 3 -10 10 -10 16 0 5 5 9 10 9 6 0 10 -7 10 -16z m-270 -30 c0 -3 -7 -12
-15 -20 -8 -9 -15 -29 -15 -45 0 -16 -5 -29 -11 -29 -11 0 -6 71 7 92 6 9 34
11 34 2z m3673 -40 l87 -6 -2 -62 c-1 -53 -2 -55 -5 -16 -3 25 -7 48 -11 52
-9 9 -56 16 -131 20 -52 3 -54 2 -64 -27 -5 -16 -25 -47 -43 -68 -38 -42 -45
-88 -18 -119 15 -16 16 -22 2 -71 l-16 -54 50 -47 c47 -45 49 -48 38 -75 -10
-26 -9 -31 15 -55 14 -14 30 -26 35 -26 6 0 10 -4 10 -8 0 -4 10 -8 21 -9 28
-2 31 -7 26 -35 l-4 -23 -8 22 c-4 13 -11 20 -16 17 -5 -2 -20 3 -34 12 -23
15 -25 15 -25 0 0 -9 -8 -16 -20 -16 -14 0 -20 -6 -18 -17 2 -12 -10 -19 -51
-28 -61 -14 -86 -38 -45 -43 31 -4 39 -23 24 -52 -10 -19 -8 -26 19 -54 40
-41 40 -40 -3 -123 -9 -17 -16 -41 -16 -53 0 -13 -4 -18 -11 -14 -13 7 -3 52
16 74 24 27 29 79 10 100 -10 11 -22 17 -28 13 -7 -4 -8 10 -4 40 6 42 5 46
-16 49 -15 2 -23 11 -25 29 -3 29 28 49 79 49 22 0 32 6 38 24 5 13 17 26 25
29 25 10 21 40 -4 32 -15 -5 -20 -2 -20 14 0 11 5 31 11 45 10 21 8 29 -10 52
-22 28 -29 26 -10 -5 9 -13 9 -23 1 -37 -11 -18 -11 -18 -12 4 0 13 -6 22 -16
22 -24 0 -50 30 -35 40 11 6 10 12 0 31 -12 22 -15 12 -28 -99 -7 -67 -16
-120 -19 -117 -9 9 -1 149 9 162 6 6 9 24 6 40 -4 27 -4 27 -6 -4 -1 -32 -21
-48 -21 -17 0 11 -6 14 -21 9 -21 -7 -22 -5 -16 31 4 22 7 51 7 67 0 15 5 27
10 27 13 0 13 -51 0 -85 -8 -20 -7 -26 2 -23 7 3 14 15 16 29 6 44 14 56 21
29 l7 -25 18 28 c15 22 18 45 17 108 -2 79 -1 82 34 124 19 24 35 49 35 55 0
25 22 51 38 46 9 -3 56 -8 105 -12z m-3375 -62 c2 -7 -2 -10 -12 -6 -9 3 -16
11 -16 16 0 13 23 5 28 -10z m652 -37 c0 -9 -9 -15 -25 -15 -16 0 -25 6 -25
15 0 9 9 15 25 15 16 0 25 -6 25 -15z m-400 -64 c0 -7 11 -26 25 -43 14 -16
25 -24 25 -17 0 10 3 10 12 1 10 -10 10 -14 0 -21 -10 -6 -9 -18 7 -59 11 -28
26 -61 33 -72 11 -16 10 -22 -4 -37 -10 -9 -21 -13 -25 -9 -4 4 -1 11 6 16 12
7 12 13 -1 42 -8 18 -25 59 -37 90 -13 31 -31 64 -42 74 -11 10 -19 30 -19 48
0 24 3 27 10 16 5 -8 10 -21 10 -29z m3290 -51 c8 -4 47 -11 85 -14 94 -9 125
-16 125 -27 0 -5 -11 -7 -25 -3 -13 3 -41 8 -62 10 -89 9 -113 13 -147 25 -19
7 -37 11 -40 8 -2 -2 -11 -44 -19 -92 -14 -84 -21 -106 -32 -96 -5 6 30 183
40 199 6 10 44 5 75 -10z m-680 -165 c7 -8 23 -15 37 -15 14 0 21 -4 18 -10
-3 -5 1 -10 9 -10 9 0 16 -6 16 -13 0 -8 -7 -14 -15 -14 -8 0 -12 4 -9 9 8 13
-23 9 -33 -4 -6 -7 -16 -30 -23 -51 -17 -55 -25 -38 -9 22 11 43 10 52 -5 75
-18 28 -7 36 14 11z m-2635 -97 c7 -7 -10 -9 -60 -4 -38 4 -74 12 -80 18 -7 7
10 9 60 4 39 -4 75 -12 80 -18z m3334 -100 c1 14 91 17 91 3 0 -5 -14 -14 -31
-20 -40 -14 -42 -14 -33 0 5 8 1 8 -14 0 -22 -12 -32 -32 -32 -66 0 -39 -10
-54 -57 -87 -40 -27 -50 -30 -92 -23 -25 3 -62 9 -83 12 -21 3 -39 12 -42 21
-3 10 -9 23 -12 30 -3 6 -1 12 5 12 7 0 16 -11 21 -24 6 -16 17 -24 32 -24 13
-1 46 -4 75 -8 44 -5 56 -3 85 17 44 31 46 35 53 99 9 75 15 91 25 65 5 -11 9
-14 9 -7z m325 6 c4 -10 1 -14 -6 -12 -15 5 -23 28 -10 28 5 0 13 -7 16 -16z
m-694 -14 c0 -5 -4 -10 -10 -10 -5 0 -10 5 -10 10 0 6 5 10 10 10 6 0 10 -4
10 -10z m500 -30 c0 -5 -5 -10 -11 -10 -5 0 -7 5 -4 10 3 6 8 10 11 10 2 0 4
-4 4 -10z m-3970 -140 c0 -5 9 -10 20 -10 23 0 27 -15 5 -24 -8 -3 -12 -12 -9
-20 3 -9 -2 -23 -12 -33 -17 -17 -17 -17 -11 15 4 17 2 43 -3 57 -6 16 -6 25
0 25 6 0 10 -4 10 -10z m-520 -24 c0 -2 -8 -10 -17 -17 -16 -13 -17 -12 -4 4
13 16 21 21 21 13z m907 -12 c-3 -3 -12 -4 -19 -1 -8 3 -5 6 6 6 11 1 17 -2
13 -5z m-431 -88 c-11 -18 -12 -26 -3 -29 7 -2 3 -9 -11 -16 -13 -7 -22 -21
-22 -36 0 -23 -16 -42 -27 -31 -19 19 34 136 63 136 15 0 15 -2 0 -24z m-119
-228 c-3 -8 -6 -5 -6 6 -1 11 2 17 5 13 3 -3 4 -12 1 -19z m98 -130 c28 -13
35 -31 8 -21 -10 3 -22 9 -28 12 -5 3 -20 4 -32 2 -13 -1 -23 2 -23 8 0 14 43
14 75 -1z m51 -115 c22 -29 17 -49 -6 -23 -20 23 -26 40 -14 40 4 0 13 -8 20
-17z m-76 -3 c0 -5 -4 -10 -9 -10 -6 0 -13 5 -16 10 -3 6 1 10 9 10 9 0 16 -4
16 -10z m-100 -16 c0 -8 -4 -12 -10 -9 -5 3 -10 10 -10 16 0 5 5 9 10 9 6 0
10 -7 10 -16z m-100 -64 c0 -5 -5 -10 -11 -10 -5 0 -7 5 -4 10 3 6 8 10 11 10
2 0 4 -4 4 -10z m377 -64 c-2 -4 -19 -9 -40 -11 -28 -1 -34 1 -27 10 11 14 72
15 67 1z"/>
<path d="M6030 7614 c0 -8 5 -12 10 -9 6 4 8 11 5 16 -9 14 -15 11 -15 -7z"/>
<path d="M4990 4169 c-10 -18 -9 -20 7 -17 10 2 19 11 21 21 5 24 -15 21 -28
-4z"/>
<path d="M4655 4040 c0 -21 3 -36 7 -34 5 3 8 18 8 34 0 16 -3 31 -8 34 -4 2
-7 -13 -7 -34z"/>
<path d="M4620 4010 c0 -5 5 -10 11 -10 5 0 7 5 4 10 -3 6 -8 10 -11 10 -2 0
-4 -4 -4 -10z"/>
<path d="M5051 3944 c-20 -26 -27 -44 -16 -44 17 0 63 45 58 56 -8 21 -19 17
-42 -12z"/>
<path d="M5015 3880 c-3 -5 -1 -10 4 -10 6 0 11 5 11 10 0 6 -2 10 -4 10 -3 0
-8 -4 -11 -10z"/>
<path d="M4455 3820 c4 -6 11 -8 16 -5 14 9 11 15 -7 15 -8 0 -12 -5 -9 -10z"/>
<path d="M3986 3829 c-16 -15 -16 -20 -5 -36 13 -17 21 -19 55 -15 20 3 13 47
-10 58 -17 8 -26 6 -40 -7z"/>
<path d="M3927 3762 c4 -18 -31 -42 -62 -42 -21 0 -27 -17 -15 -39 6 -12 16
-18 25 -15 9 4 16 -3 21 -20 9 -39 38 -35 30 4 -5 27 -2 32 29 47 35 17 43 41
11 35 -19 -3 -22 14 -3 21 7 3 5 6 -5 6 -10 1 -18 6 -18 11 0 6 -4 10 -9 10
-5 0 -7 -8 -4 -18z"/>
<path d="M4028 3752 c-38 -23 -36 -36 2 -17 17 9 30 20 30 25 0 13 0 13 -32
-8z"/>
<path d="M3965 3660 c3 -5 10 -10 16 -10 5 0 9 5 9 10 0 6 -7 10 -16 10 -8 0
-12 -4 -9 -10z"/>
<path d="M3956 3628 c-17 -55 -14 -118 6 -118 6 0 8 14 4 35 -4 22 -3 35 4 35
13 0 13 47 0 55 -6 3 -12 0 -14 -7z"/>
<path d="M3530 3595 c7 -9 9 -26 5 -45 -7 -34 4 -39 29 -11 20 22 14 42 -20
58 -22 10 -24 10 -14 -2z"/>
<path d="M5120 3261 c0 -6 4 -13 10 -16 6 -3 7 1 4 9 -7 18 -14 21 -14 7z"/>
<path d="M3278 2953 c7 -3 16 -2 19 1 4 3 -2 6 -13 5 -11 0 -14 -3 -6 -6z"/>
<path d="M2813 2867 c5 -15 37 -22 37 -9 0 5 -9 12 -21 15 -13 3 -19 1 -16 -6z"/>
<path d="M2922 2848 c-7 -7 -12 -19 -12 -27 1 -14 3 -13 14 2 7 9 19 17 26 17
7 0 11 -3 7 -6 -11 -12 20 -33 41 -27 22 5 36 29 26 44 -8 13 -88 11 -102 -3z"/>
<path d="M2870 2824 c0 -14 4 -23 10 -19 6 3 10 15 10 26 0 10 -4 19 -10 19
-5 0 -10 -12 -10 -26z"/>
<path d="M3070 2830 c-12 -8 -10 -10 8 -10 13 0 20 4 17 10 -7 12 -6 12 -25 0z"/>
<path d="M2800 2780 c0 -5 7 -10 16 -10 8 0 12 5 9 10 -3 6 -10 10 -16 10 -5
0 -9 -4 -9 -10z"/>
<path d="M5935 2260 c-3 -5 -1 -10 4 -10 6 0 11 5 11 10 0 6 -2 10 -4 10 -3 0
-8 -4 -11 -10z"/>
<path d="M3950 2290 c0 -5 5 -10 11 -10 5 0 7 5 4 10 -3 6 -8 10 -11 10 -2 0
-4 -4 -4 -10z"/>
<path d="M1430 2075 c-7 -9 -8 -15 -2 -15 5 0 12 7 16 15 3 8 4 15 2 15 -2 0
-9 -7 -16 -15z"/>
<path d="M3787 1793 c-3 -5 -7 -21 -8 -38 -3 -22 0 -30 11 -30 10 0 16 12 18
38 3 33 -9 50 -21 30z"/>
<path d="M3794 1669 c-13 -26 -14 -33 -2 -40 17 -11 26 -11 33 1 3 6 15 10 26
10 21 0 24 12 9 41 -16 29 -47 23 -66 -12z"/>
</g>
</svg>
