<?xml version="1.0" standalone="no"?>
<!DOCTYPE svg PUBLIC "-//W3C//DTD SVG 20010904//EN"
 "http://www.w3.org/TR/2001/REC-SVG-20010904/DTD/svg10.dtd">
<svg version="1.0" xmlns="http://www.w3.org/2000/svg"
 width="800.000000pt" height="800.000000pt" viewBox="0 0 800.000000 800.000000"
 preserveAspectRatio="xMidYMid meet">
<metadata>
Created by potrace 1.16, written by Peter Selinger 2001-2019
</metadata>
<g transform="translate(0.000000,800.000000) scale(0.100000,-0.100000)"
fill="#000000" stroke="none">
<path d="M0 4000 l0 -4000 4000 0 4000 0 0 4000 0 4000 -4000 0 -4000 0 0
-4000z m4430 3670 c0 -5 -4 -10 -10 -10 -5 0 -10 5 -10 10 0 6 5 10 10 10 6 0
10 -4 10 -10z m78 -93 c2 -12 -1 -15 -12 -11 -19 7 -22 38 -3 32 6 -3 13 -12
15 -21z m2869 -369 c-2 -18 -4 -6 -4 27 0 33 2 48 4 33 2 -15 2 -42 0 -60z
m-6719 25 c-16 -4 -18 -19 -18 -132 0 -85 4 -131 12 -139 9 -9 8 -12 -5 -12
-15 0 -17 12 -17 99 0 90 -2 99 -20 104 -16 4 -20 13 -19 44 l2 38 6 -33 c8
-45 25 -45 29 1 3 31 7 37 25 36 17 -1 18 -2 5 -6z m1960 0 c-27 -2 -69 -2
-95 0 -27 2 -5 3 47 3 52 0 74 -1 48 -3z m4719 -205 c-2 -13 -4 -3 -4 22 0 25
2 35 4 23 2 -13 2 -33 0 -45z m-2442 -438 c3 -5 -1 -10 -9 -10 -8 0 -18 5 -21
10 -3 6 1 10 9 10 8 0 18 -4 21 -10z m-1678 -657 c-3 -10 -5 -4 -5 12 0 17 2
24 5 18 2 -7 2 -21 0 -30z m0 -115 c-2 -18 -4 -6 -4 27 0 33 2 48 4 33 2 -15
2 -42 0 -60z m602 66 c3 -3 0 -9 -5 -14 -7 -7 -17 -3 -30 11 -19 22 -19 22 6
14 14 -4 27 -9 29 -11z m436 -4 c3 -5 -3 -10 -14 -10 -11 0 -23 5 -26 10 -3 6
3 10 14 10 11 0 23 -4 26 -10z m-309 -31 c52 -1 60 -3 34 -8 -26 -4 -36 -12
-38 -28 -3 -22 0 -23 62 -23 37 0 66 -4 66 -10 0 -6 -27 -10 -60 -10 l-60 0 0
-35 c0 -34 -2 -35 -36 -35 -31 0 -36 -3 -31 -20 3 -11 1 -23 -4 -26 -5 -3 -9
22 -9 55 l0 61 -61 0 c-49 0 -60 3 -56 14 3 8 1 17 -6 19 -26 10 9 42 49 45
23 1 42 9 48 19 8 15 10 15 21 0 9 -13 29 -17 81 -18z m-301 -19 c-3 -5 -10
-10 -16 -10 -5 0 -9 5 -9 10 0 6 7 10 16 10 8 0 12 -4 9 -10z m-5 -35 c0 -8
-4 -15 -9 -15 -13 0 -22 16 -14 24 11 11 23 6 23 -9z m786 -5 c13 0 24 -4 24
-10 0 -5 -11 -10 -25 -10 -17 0 -25 -6 -26 -17 -1 -17 -2 -17 -6 0 -2 9 -11
17 -19 17 -8 0 -14 5 -14 10 0 6 7 10 15 10 8 0 15 6 16 13 0 10 2 10 6 0 2
-7 16 -13 29 -13z m2541 -6 c-3 -3 -12 -4 -19 -1 -8 3 -5 6 6 6 11 1 17 -2 13
-5z m-3750 -96 c-2 -18 -4 -6 -4 27 0 33 2 48 4 33 2 -15 2 -42 0 -60z m4170
-55 c-2 -16 -4 -3 -4 27 0 30 2 43 4 28 2 -16 2 -40 0 -55z m-924 -10 c-7 -2
-19 -2 -25 0 -7 3 -2 5 12 5 14 0 19 -2 13 -5z m-2396 -10 c-16 -4 -16 -6 3
-33 24 -34 25 -40 5 -40 -19 0 -19 -9 2 -32 9 -10 27 -18 40 -18 14 0 23 -6
23 -15 0 -10 10 -15 28 -15 32 0 46 -9 50 -32 7 -44 -71 -22 -87 24 -7 18 -17
28 -30 28 -11 0 -23 5 -26 10 -4 6 -11 8 -16 5 -5 -4 -9 4 -10 17 0 13 -3 17
-6 11 -11 -29 -23 -10 -23 36 0 50 7 60 45 59 17 0 17 -1 2 -5z m-607 -11 c0
-9 -25 -33 -50 -48 -8 -4 -4 6 10 23 25 32 40 41 40 25z m515 -42 c-3 -5 -13
-10 -21 -10 -8 0 -14 5 -14 10 0 6 9 10 21 10 11 0 17 -4 14 -10z m-70 -11
c10 -15 -1 -23 -20 -15 -9 3 -13 10 -10 16 8 13 22 13 30 -1z m-173 -66 c-2
-13 1 -23 7 -23 6 0 11 -7 11 -15 0 -9 -6 -12 -15 -9 -15 6 -38 71 -29 85 10
16 30 -15 26 -38z m881 17 c-5 -20 -33 -29 -33 -10 0 7 25 27 37 30 0 0 -1 -9
-4 -20z m207 6 c0 -16 -37 -28 -46 -15 -3 5 -20 2 -40 -6 -30 -12 -34 -12 -34
1 0 8 -4 13 -9 10 -12 -8 -41 3 -41 15 0 5 38 9 85 9 66 0 85 -3 85 -14z m49
-80 c-1 -55 -10 -40 -22 37 -5 33 -4 37 8 27 10 -8 15 -30 14 -64z m-455 46
c3 -5 33 -5 68 0 41 5 64 5 66 -2 2 -5 10 -10 18 -10 8 0 14 -4 14 -9 0 -5 13
-12 30 -16 27 -6 66 -43 56 -53 -6 -5 -50 21 -59 35 -4 7 -14 10 -22 7 -9 -4
-15 0 -15 10 0 17 -15 20 -95 16 -27 -1 -53 -6 -56 -11 -3 -6 -13 -7 -22 -4
-10 4 -20 -1 -27 -14 -6 -12 -7 -21 -1 -21 5 0 11 6 14 13 2 6 8 9 12 5 14
-14 -5 -38 -30 -38 -30 0 -30 1 -9 43 28 54 45 69 58 49z m-574 -141 c0 -5 3
-24 6 -42 8 -41 0 -36 -21 14 -14 33 -14 37 0 37 8 0 15 -4 15 -9z m204 -87
c9 -23 7 -44 -3 -44 -5 0 -14 14 -20 30 -8 24 -7 30 3 30 8 0 17 -7 20 -16z
m10 -90 c6 -15 36 -20 36 -6 0 4 -5 13 -12 20 -9 9 -7 12 10 12 18 0 22 -6 22
-30 0 -27 -3 -30 -34 -30 -21 0 -36 6 -40 15 -3 8 -13 15 -22 15 -13 0 -14 3
-4 14 13 17 36 12 44 -10z m111 9 c-19 -13 -31 -11 -21 5 3 5 13 9 22 9 15 0
15 -2 -1 -14z m3352 -40 c-3 -10 -5 -2 -5 17 0 19 2 27 5 18 2 -10 2 -26 0
-35z m-40 -100 c-3 -10 -5 -4 -5 12 0 17 2 24 5 18 2 -7 2 -21 0 -30z m-4370
-95 c-4 -28 -4 -28 59 -28 l63 0 30 -45 c18 -27 31 -60 33 -83 1 -20 8 -47 16
-59 13 -21 11 -44 -8 -88 -5 -11 -11 -32 -14 -47 -6 -24 -9 -26 -37 -18 -34
10 -68 1 -88 -24 -7 -9 -20 -16 -27 -16 -8 0 -14 -7 -14 -15 0 -10 10 -15 30
-15 43 0 100 -30 100 -53 0 -10 9 -26 20 -35 16 -14 19 -32 22 -112 1 -52 -2
-102 -7 -110 -12 -20 -7 -137 8 -181 11 -30 16 -34 47 -34 l35 0 3 -87 c1 -49
6 -88 9 -88 4 0 35 5 69 11 79 14 113 3 172 -51 48 -44 58 -48 65 -22 4 13 5
11 6 -5 1 -23 25 -31 47 -15 21 15 66 82 55 82 -7 0 -9 5 -6 10 3 6 -3 10 -14
10 -12 0 -18 6 -17 17 3 19 26 31 26 14 0 -6 6 -11 14 -11 8 0 16 -10 20 -23
5 -20 11 -22 40 -19 51 6 54 -15 4 -29 -53 -14 -70 -27 -63 -49 4 -13 -5 -20
-37 -29 -24 -7 -46 -18 -50 -25 -6 -8 -8 -7 -8 2 0 9 -7 11 -20 7 -15 -5 -30
5 -61 39 -59 64 -89 76 -177 70 -96 -6 -126 -24 -117 -72 4 -23 3 -32 -4 -27
-6 3 -11 12 -11 20 0 23 -20 28 -40 10 -20 -18 -170 -32 -170 -15 0 14 -93 25
-98 11 -2 -6 -12 -11 -22 -11 -9 0 -24 -7 -31 -16 -12 -15 -15 -14 -31 6 -10
12 -18 33 -18 46 0 27 -34 34 -44 9 -8 -22 -21 -18 -36 10 -16 29 -31 31 -66
8 -27 -17 -105 -27 -137 -17 -15 5 -17 12 -12 43 5 28 2 41 -9 51 -25 20 -19
46 14 60 35 14 35 16 19 171 -6 66 -7 114 -1 129 7 19 10 3 11 -65 0 -50 5
-106 11 -125 5 -19 10 -51 10 -70 0 -29 -5 -37 -30 -48 -32 -15 -38 -30 -17
-51 6 -7 12 -29 12 -49 l0 -36 45 3 c25 1 60 11 78 22 44 25 58 24 78 -7 15
-22 19 -23 26 -10 5 9 20 15 33 14 20 -2 25 -8 25 -30 0 -15 5 -28 10 -28 6 0
10 -7 10 -15 0 -12 6 -11 36 5 25 15 50 20 90 18 31 -1 58 -6 60 -10 3 -4 25
-8 50 -8 34 0 56 8 90 30 24 17 44 38 44 46 0 10 7 13 25 8 l25 -6 0 87 0 88
-35 -6 c-28 -5 -35 -3 -35 11 0 9 -7 30 -16 47 -10 21 -15 53 -13 108 1 43 -3
83 -8 88 -14 14 -4 59 13 59 10 0 14 13 14 43 0 59 -9 84 -31 90 -13 3 -19 14
-19 31 0 31 -30 46 -90 46 -38 0 -39 1 -34 29 5 23 2 29 -15 34 -17 4 -20 10
-15 36 5 26 3 31 -12 31 -14 0 -12 4 10 15 38 20 46 19 46 -5 0 -11 4 -20 9
-20 5 0 12 -12 14 -27 4 -27 4 -28 12 -5 4 13 13 21 19 19 21 -8 56 12 56 33
0 21 14 27 25 10 10 -16 21 -12 33 14 8 19 7 27 -6 41 -13 13 -14 19 -4 22 6
3 10 9 6 14 -3 5 -7 27 -9 49 -2 21 -16 57 -30 80 -24 39 -27 40 -78 39 -80
-2 -103 -11 -136 -53 -35 -43 -41 -97 -16 -130 8 -11 14 -36 14 -55 l-1 -36
-8 35 c-4 19 -15 49 -24 65 l-16 30 0 -57 c0 -32 -4 -58 -10 -58 -6 0 -10 28
-10 65 0 51 3 65 15 65 10 0 15 10 15 28 0 16 9 37 20 47 12 10 18 25 16 32
-3 7 2 16 10 21 13 7 14 16 6 45 -9 31 -8 36 10 40 13 4 22 -1 28 -16 8 -21 9
-21 9 -2 0 11 -3 27 -8 35 -6 8 -7 18 -4 23 9 15 35 -47 30 -75z m4370 -190
c-2 -13 -4 -5 -4 17 -1 22 1 32 4 23 2 -10 2 -28 0 -40z m-4582 2 c3 -5 -3
-10 -14 -10 -12 0 -21 5 -21 10 0 6 6 10 14 10 8 0 18 -4 21 -10z m885 -44 c0
-17 -14 -29 -23 -20 -8 8 3 34 14 34 5 0 9 -6 9 -14z m-3223 -58 c-3 -7 -5 -2
-5 12 0 14 2 19 5 13 2 -7 2 -19 0 -25z m6960 -5 c-3 -10 -5 -4 -5 12 0 17 2
24 5 18 2 -7 2 -21 0 -30z m-4572 -23 c-3 -5 -40 -10 -80 -10 l-75 0 -27 -52
c-19 -36 -29 -75 -34 -123 l-6 -70 -1 68 c-2 57 3 77 28 127 33 64 35 66 143
69 37 0 56 -3 52 -9z m616 -43 c31 -26 54 -66 43 -75 -4 -4 -9 -1 -11 6 -3 7
-16 26 -30 42 -19 23 -33 30 -61 30 -21 0 -44 5 -52 10 -11 7 -1 10 35 9 37 0
57 -6 76 -22z m439 -157 c16 -17 38 -30 52 -30 23 0 68 -32 68 -49 0 -5 -9
-30 -21 -55 -19 -44 -20 -50 -5 -81 19 -40 20 -82 2 -114 -10 -18 -12 -48 -8
-108 l5 -83 -94 2 -94 2 84 5 85 6 3 90 c6 174 6 190 -2 218 -5 19 -2 41 11
68 24 55 9 79 -58 93 -15 4 -36 20 -48 36 -28 39 -16 39 20 0z m-905 0 c-3 -5
-1 -10 4 -10 6 0 11 -9 11 -20 0 -18 -2 -19 -20 -8 -11 7 -18 19 -15 25 2 7
-1 12 -8 10 -7 -1 -15 -13 -18 -27 -6 -23 -7 -22 -8 8 -1 29 2 32 30 32 17 0
28 -4 24 -10z m-2612 -33 c-3 -5 -10 -4 -15 1 -6 6 -7 16 -3 22 6 9 9 9 16 -1
4 -7 5 -17 2 -22z m3187 -124 c0 -78 -3 -104 -11 -96 -8 8 -9 41 -4 107 4 53
9 96 11 96 2 0 4 -48 4 -107z m385 77 c-3 -5 -13 -10 -21 -10 -8 0 -12 5 -9
10 3 6 13 10 21 10 8 0 12 -4 9 -10z m-1432 -27 c-7 -2 -21 -2 -30 0 -10 3 -4
5 12 5 17 0 24 -2 18 -5z m2417 -23 c0 -5 -4 -10 -10 -10 -5 0 -10 5 -10 10 0
6 5 10 10 10 6 0 10 -4 10 -10z m-2226 -16 c3 -9 11 -12 18 -8 8 5 9 2 5 -10
-4 -10 -7 -22 -7 -27 0 -5 -11 -9 -25 -9 -21 0 -25 5 -25 28 0 41 22 58 34 26z
m696 -14 c0 -5 -9 -10 -19 -10 -11 0 -23 5 -26 10 -4 6 5 10 19 10 14 0 26 -4
26 -10z m3957 -142 c-2 -18 -4 -6 -4 27 0 33 2 48 4 33 2 -15 2 -42 0 -60z
m-2930 58 c-4 -9 3 -16 18 -20 20 -5 23 -10 16 -28 -8 -23 -31 -37 -31 -19 0
6 5 11 10 11 18 0 10 22 -10 27 -20 5 -26 23 -13 36 11 11 15 8 10 -7z m-1062
-16 c3 -5 -1 -10 -9 -10 -9 0 -16 5 -16 10 0 6 4 10 9 10 6 0 13 -4 16 -10z
m3275 0 c0 -5 -9 -10 -21 -10 -11 0 -17 5 -14 10 3 6 13 10 21 10 8 0 14 -4
14 -10z m-4697 -116 c5 -41 -5 -75 -19 -62 -9 10 -14 88 -7 112 7 26 19 4 26
-50z m3257 -9 c0 -43 -4 -75 -10 -75 -11 0 -14 133 -3 143 12 13 13 7 13 -68z
m-725 44 c4 -12 12 -18 21 -15 8 3 14 1 14 -4 0 -6 -4 -10 -10 -10 -18 0 -11
-18 10 -25 11 -3 20 -11 20 -17 0 -6 -11 -3 -25 6 -13 9 -31 16 -40 16 -11 0
-15 10 -15 35 0 38 15 47 25 14z m-945 -4 c0 -8 -4 -15 -10 -15 -5 0 -10 7
-10 15 0 8 5 15 10 15 6 0 10 -7 10 -15z m40 -13 c0 -13 -12 -22 -22 -16 -10
6 -1 24 13 24 5 0 9 -4 9 -8z m1820 -38 c0 -37 -14 -42 -33 -12 -7 11 -6 20 4
31 22 25 29 20 29 -19z m770 -1 c0 -41 -14 -72 -27 -60 -4 4 -2 17 5 27 7 11
12 31 12 45 0 14 2 25 5 25 3 0 5 -17 5 -37z m80 -30 c0 -7 -7 -13 -15 -13
-10 0 -15 10 -15 33 1 30 1 31 15 13 8 -11 15 -26 15 -33z m-2590 -3 c0 -5 -4
-10 -10 -10 -5 0 -10 5 -10 10 0 6 5 10 10 10 6 0 10 -4 10 -10z m60 -5 c0 -8
-4 -15 -10 -15 -5 0 -7 7 -4 15 4 8 8 15 10 15 2 0 4 -7 4 -15z m840 -5 c0 -5
6 -10 14 -10 15 0 20 -12 31 -72 6 -41 30 -60 63 -51 18 4 22 1 21 -18 0 -13
-3 -18 -6 -11 -7 17 -30 15 -37 -4 -3 -8 -1 -24 4 -34 11 -20 -5 -70 -22 -70
-12 0 -10 38 3 42 8 3 7 14 -5 35 -9 18 -16 39 -16 49 0 11 -5 14 -16 10 -11
-4 -15 0 -14 17 5 54 0 77 -17 77 -9 0 -13 3 -10 6 3 4 2 15 -4 25 -6 13 -6
19 1 19 5 0 10 -4 10 -10z m-880 -45 c0 -19 -4 -35 -10 -35 -5 0 -10 16 -10
35 0 19 5 35 10 35 6 0 10 -16 10 -35z m-57 -28 l22 -4 -22 -8 c-26 -8 -30
-23 -8 -31 19 -8 20 -24 1 -24 -10 0 -16 -13 -19 -37 l-4 -38 -1 41 c-2 34 -6
43 -24 49 l-23 8 23 4 c18 4 22 11 23 41 1 20 3 29 6 20 2 -9 14 -19 26 -21z
m3784 -139 c-2 -35 -3 -9 -3 57 0 66 1 94 3 63 2 -32 2 -86 0 -120z m-2270
127 c19 -19 10 -43 -19 -54 -25 -9 -36 4 -37 47 -1 26 32 31 56 7z m-1017 -13
c0 -10 -9 -25 -20 -35 -17 -14 -20 -14 -20 -2 0 8 5 15 11 15 6 0 8 9 4 20 -5
14 -2 20 9 20 9 0 16 -8 16 -18z m-2295 -2 c-3 -5 -15 -10 -26 -10 -11 0 -17
5 -14 10 3 6 15 10 26 10 11 0 17 -4 14 -10z m2215 -19 c0 -5 -9 -11 -20 -14
-27 -7 -27 -67 0 -122 23 -48 26 -113 5 -142 -23 -33 -101 -64 -175 -70 -36
-3 -70 -10 -77 -15 -7 -5 -14 -5 -18 2 -3 5 -15 10 -26 10 -10 0 -19 4 -19 9
0 5 46 11 103 13 84 2 111 7 152 28 50 25 50 26 53 77 2 33 -3 63 -12 82 -9
17 -16 46 -16 66 0 19 -2 35 -3 35 -2 0 -18 -7 -36 -16 -18 -9 -35 -14 -38
-11 -8 9 7 27 22 27 8 0 31 11 51 25 39 26 54 31 54 16z m317 -16 c-4 -8 -2
-17 3 -20 12 -7 13 -35 3 -35 -8 0 -33 47 -33 62 0 4 7 8 16 8 10 0 14 -6 11
-15z m-247 -45 c0 -13 -11 -13 -30 0 -12 8 -11 10 8 10 12 0 22 -4 22 -10z
m-477 -42 c-2 -45 -4 -47 -12 -18 -8 26 -4 50 8 50 3 0 5 -15 4 -32z m607 22
c13 -8 12 -10 -3 -10 -13 0 -16 -5 -11 -24 3 -14 2 -31 -2 -38 -6 -9 -10 -4
-15 17 -4 17 -10 38 -14 48 -5 13 -2 17 11 17 11 0 26 -5 34 -10z m172 -12
c-11 -11 -32 -3 -32 12 0 4 9 6 21 3 13 -4 17 -9 11 -15z m156 -13 c-4 -18 0
-26 13 -30 16 -5 28 -25 15 -25 -15 0 -138 64 -129 67 6 2 25 -3 41 -11 28
-14 30 -14 35 4 8 30 30 25 25 -5z m249 -132 c-2 -21 -4 -6 -4 32 0 39 2 55 4
38 2 -18 2 -50 0 -70z m213 73 c0 -14 -4 -28 -10 -31 -6 -4 -10 7 -10 24 0 17
5 31 10 31 6 0 10 -11 10 -24z m2377 -378 c-1 -73 -3 -16 -3 127 0 143 2 203
3 133 2 -70 2 -187 0 -260z m-3984 310 c-21 -55 -37 -73 -28 -33 8 39 26 75
37 75 4 0 0 -19 -9 -42z m1020 -39 c98 -1 118 -4 77 -8 -30 -4 -92 -5 -137 -3
l-83 5 2 41 1 41 4 -37 4 -38 132 -1z m-1191 -36 c7 -9 7 -13 -2 -13 -8 0 -11
-2 -9 -5 3 -2 91 -7 196 -11 l192 -6 3 33 c2 19 7 34 13 34 13 0 24 -71 14
-87 -7 -11 -9 -11 -9 0 0 10 -46 13 -212 12 -209 -1 -213 -1 -212 19 0 12 -3
21 -7 21 -4 0 -3 15 4 33 11 31 12 31 15 7 2 -14 9 -31 14 -37z m1188 -30 c0
-9 -11 -12 -30 -11 -46 3 -36 24 11 24 10 0 19 -6 19 -13z m-90 -33 c0 -5 -6
-10 -12 -10 -9 0 -8 -4 2 -10 20 -13 60 -13 60 0 0 6 -7 10 -15 10 -8 0 -15 5
-15 10 0 27 39 1 45 -30 5 -26 24 -42 38 -33 11 6 27 -15 27 -36 0 -11 -6 -10
-22 5 -32 28 -114 61 -139 56 -4 -1 -6 10 -6 23 0 18 5 25 18 25 11 0 19 -4
19 -10z m-963 -56 c-3 -3 -12 -4 -19 -1 -8 3 -5 6 6 6 11 1 17 -2 13 -5z
m1021 -27 c2 -10 -3 -17 -12 -17 -10 0 -16 9 -16 21 0 24 23 21 28 -4z m-518
-2 c0 -8 -7 -15 -15 -15 -8 0 -15 7 -15 15 0 8 7 15 15 15 8 0 15 -7 15 -15z
m596 -46 c14 -12 14 -14 -2 -26 -24 -17 -34 -16 -34 3 0 8 5 12 10 9 6 -3 10
-1 10 5 0 6 -8 10 -17 9 -31 -3 -43 1 -43 12 0 13 56 5 76 -12z m-2386 -48 c0
-5 -8 -8 -17 -7 -14 1 -18 -6 -16 -26 1 -16 -2 -28 -7 -28 -15 0 -21 18 -14
45 4 18 13 25 30 25 13 0 24 -4 24 -9z m1400 -70 c0 -6 -4 -13 -10 -16 -5 -3
-10 1 -10 9 0 9 5 16 10 16 6 0 10 -4 10 -9z m-1326 -36 c4 -10 -1 -15 -14
-15 -11 0 -20 7 -20 15 0 8 6 15 14 15 8 0 16 -7 20 -15z m5239 -45 c3 -11 1
-20 -4 -20 -5 0 -9 9 -9 20 0 11 2 20 4 20 2 0 6 -9 9 -20z m-2877 -6 c32 -15
34 -19 32 -63 -1 -42 -2 -43 -5 -9 -2 20 -10 41 -17 47 -19 16 -96 26 -96 12
0 -6 -4 -11 -10 -11 -5 0 -10 6 -10 14 0 9 13 16 33 19 17 2 34 5 35 5 2 1 19
-5 38 -14z m349 -28 c-4 -34 -23 -66 -40 -66 -18 0 -19 12 -3 28 9 9 6 11 -10
7 -25 -4 -30 13 -7 21 14 6 13 8 -2 20 -16 12 -14 13 23 14 38 0 41 -2 39 -24z
m2648 -33 c-13 -2 -33 -2 -45 0 -13 2 -3 4 22 4 25 0 35 -2 23 -4z m330 -173
c-26 -11 -30 -42 -8 -60 8 -7 15 -25 15 -41 0 -28 -2 -29 -45 -29 -41 0 -45 2
-45 24 0 14 -4 28 -10 31 -5 3 -10 21 -10 40 0 29 -4 34 -27 38 -16 2 13 4 62
5 63 0 83 -2 68 -8z m-4452 -43 c-6 -6 -11 -7 -11 -2 0 5 -6 0 -14 -10 -13
-18 -14 -18 -21 5 -10 32 20 56 43 34 11 -11 12 -18 3 -27z m-136 -7 c3 -5 0
-10 -8 -10 -16 0 -32 -29 -21 -39 4 -3 9 0 11 7 6 15 23 6 23 -14 0 -14 -26
-19 -54 -8 -12 5 -13 10 -3 32 17 39 39 53 52 32z m735 -30 c0 -13 7 -20 20
-20 11 0 20 -4 20 -10 0 -6 -30 -10 -70 -10 -40 0 -70 4 -70 10 0 6 18 10 40
10 33 0 40 3 40 20 0 11 5 20 10 20 6 0 10 -9 10 -20z m690 -28 c0 -21 4 -42
9 -47 14 -15 25 -125 13 -125 -6 0 -8 9 -5 20 3 11 0 27 -7 35 -6 8 -9 23 -5
35 4 13 1 22 -9 26 -18 7 -23 94 -6 94 6 0 10 -17 10 -38z m-950 8 c0 -5 -7
-10 -15 -10 -8 0 -15 5 -15 10 0 6 7 10 15 10 8 0 15 -4 15 -10z m14 -169 c-4
-19 -10 -29 -16 -23 -5 5 -4 20 2 37 14 36 22 28 14 -14z m99 -25 c-10 -56
-22 -51 -22 10 1 51 3 56 15 40 8 -11 11 -31 7 -50z m188 2 c-11 -30 -20 -10
-13 32 4 31 6 32 13 12 5 -12 5 -32 0 -44z m-701 22 c0 -5 -4 -10 -10 -10 -5
0 -10 5 -10 10 0 6 5 10 10 10 6 0 10 -4 10 -10z m470 -157 c0 -7 -4 -13 -10
-13 -5 0 -10 6 -10 14 0 8 -3 23 -6 33 -5 16 -4 16 10 -1 9 -11 16 -26 16 -33z
m80 -43 c0 -5 -5 -10 -11 -10 -5 0 -7 5 -4 10 3 6 8 10 11 10 2 0 4 -4 4 -10z
m-162 -18 c6 -18 -15 -14 -22 4 -4 10 -1 14 6 12 6 -2 14 -10 16 -16z m-3311
-559 c-2 -27 -3 -5 -3 47 0 52 1 74 3 48 2 -27 2 -69 0 -95z m3450 30 c-20 -2
-52 -2 -70 0 -17 2 0 4 38 4 39 0 53 -2 32 -4z m401 -25 c10 -10 15 -10 22 2
8 12 10 10 10 -7 0 -28 -14 -29 -42 -3 -12 11 -17 20 -12 20 6 0 16 -6 22 -12z
m7 -48 c4 -6 11 -8 16 -5 13 9 11 -29 -3 -43 -15 -15 -29 -15 -51 3 -15 10
-17 21 -12 44 6 26 9 29 25 21 10 -6 22 -15 25 -20z m-392 -20 l7 -30 110 0
c102 0 110 -1 110 -19 0 -11 6 -26 14 -33 8 -8 26 -38 40 -66 24 -48 25 -52 8
-61 -14 -9 -13 -10 11 -11 28 0 37 -14 15 -23 -7 -3 -3 -6 10 -6 40 -2 23 -21
-18 -21 -22 0 -40 -4 -40 -9 0 -5 6 -9 13 -8 6 0 28 -1 47 -2 l35 -1 -32 -16
c-34 -17 -45 -44 -18 -44 9 0 15 -6 14 -12 -3 -26 2 -37 19 -41 9 -3 0 -5 -20
-6 -23 -1 -38 -6 -38 -13 0 -9 -4 -8 -10 2 -6 10 -10 11 -10 3 0 -7 -9 -13
-20 -13 -16 0 -20 -7 -20 -30 0 -16 -4 -30 -10 -30 -5 0 -10 14 -10 30 0 29
-1 30 -52 31 -39 0 -48 3 -33 9 11 5 35 9 53 9 30 1 37 8 33 39 -1 7 5 19 14
28 22 22 19 44 -7 45 -13 0 -17 3 -10 6 6 2 12 20 12 39 0 22 5 34 13 34 8 0
22 9 31 19 17 18 17 21 0 53 -9 18 -20 35 -23 38 -3 3 -13 19 -21 35 l-16 30
-107 3 c-93 2 -107 5 -107 20 0 9 -3 28 -7 41 -4 15 -2 22 4 18 6 -4 13 -20
16 -37z m537 10 c-20 -13 -40 -13 -40 0 0 6 12 10 28 10 21 0 24 -2 12 -10z
m1743 -37 c-13 -2 -35 -2 -50 0 -16 2 -5 4 22 4 28 0 40 -2 28 -4z m-293 -13
c0 -5 -5 -10 -11 -10 -5 0 -7 5 -4 10 3 6 8 10 11 10 2 0 4 -4 4 -10z m-32
-32 c-2 -6 -10 -14 -16 -16 -7 -2 -10 2 -6 12 7 18 28 22 22 4z m-1528 -28 c0
-5 -23 -10 -51 -10 -31 0 -48 4 -44 10 3 6 26 10 51 10 24 0 44 -4 44 -10z
m1490 -31 c-7 -11 -14 -18 -17 -15 -8 8 5 36 17 36 7 0 7 -6 0 -21z m-1877
-36 c-24 -2 -62 -2 -85 0 -24 2 -5 4 42 4 47 0 66 -2 43 -4z m437 -28 c0 -19
-4 -35 -10 -35 -5 0 -10 16 -10 35 0 19 5 35 10 35 6 0 10 -16 10 -35z m24
-14 c-6 -48 -6 -49 20 -44 17 4 26 1 26 -7 0 -8 -13 -11 -40 -8 -22 2 -40 1
-40 -2 0 -3 12 -16 25 -29 26 -24 34 -74 15 -86 -6 -4 -10 6 -10 23 0 33 -34
74 -55 66 -10 -4 -15 0 -15 12 0 28 17 49 37 49 14 0 19 9 21 38 2 20 8 37 13
37 6 0 7 -19 3 -49z m1386 28 c-7 -11 -14 -19 -16 -16 -7 7 7 37 17 37 6 0 5
-9 -1 -21z m-1510 -4 c0 -8 -4 -15 -10 -15 -5 0 -10 7 -10 15 0 8 5 15 10 15
6 0 10 -7 10 -15z m1406 -21 c-3 -7 -1 -16 4 -19 5 -3 11 4 15 15 4 11 11 18
16 15 5 -4 9 0 9 7 1 7 6 4 13 -8 7 -12 18 -19 25 -17 20 7 14 -8 -13 -33 -24
-22 -63 -40 -78 -36 -5 1 -6 -2 -3 -7 3 -5 -1 -12 -9 -15 -10 -4 -19 2 -25 17
-5 12 -9 18 -9 14 -1 -4 -10 -3 -20 3 -13 6 -17 17 -14 30 3 11 9 17 14 14 5
-3 13 6 18 19 8 20 15 24 36 19 17 -3 24 -9 21 -18z m-258 -13 c10 -6 9 -10
-7 -14 -14 -3 -21 0 -21 9 0 16 9 18 28 5z m-1432 -158 c-10 -24 -26 -13 -21
15 2 15 8 54 12 87 l8 60 3 -74 c2 -41 1 -80 -2 -88z m314 147 c0 -5 -11 -10
-24 -10 -14 0 -28 5 -31 10 -4 6 7 10 24 10 17 0 31 -4 31 -10z m1170 -16 c0
-8 -4 -14 -10 -14 -5 0 -10 9 -10 21 0 11 5 17 10 14 6 -3 10 -13 10 -21z
m-1383 0 c-3 -3 -12 -4 -19 -1 -8 3 -5 6 6 6 11 1 17 -2 13 -5z m-144 -51 c-7
-2 -19 -2 -25 0 -7 3 -2 5 12 5 14 0 19 -2 13 -5z m127 -21 c0 -5 -7 -9 -15
-9 -8 0 -15 4 -15 9 0 4 7 8 15 8 8 0 15 -4 15 -8z m290 -46 c-12 -12 -30 2
-24 19 5 11 9 12 19 2 7 -7 10 -16 5 -21z m-50 -92 c0 -18 -5 -36 -11 -39 -7
-5 -8 4 -4 28 4 21 3 37 -4 41 -6 4 -11 15 -11 24 1 33 30 -20 30 -54z m1155
36 c3 -5 1 -10 -4 -10 -6 0 -11 5 -11 10 0 6 2 10 4 10 3 0 8 -4 11 -10z
m2402 -37 c-3 -10 -5 -2 -5 17 0 19 2 27 5 18 2 -10 2 -26 0 -35z m-3393 1 c8
-22 -4 -40 -15 -23 -11 18 -11 39 0 39 5 0 12 -7 15 -16z m-258 -5 c7 -12 -12
-29 -33 -29 -7 0 -13 9 -13 20 0 22 34 28 46 9z m-748 -46 c-10 -2 -28 -2 -40
0 -13 2 -5 4 17 4 22 1 32 -1 23 -4z m932 -43 c0 -5 -7 -10 -15 -10 -8 0 -15
5 -15 10 0 6 7 10 15 10 8 0 15 -4 15 -10z m-94 -148 c-12 -11 -18 7 -10 30
l8 23 4 -23 c2 -13 1 -26 -2 -30z m-382 -23 c-3 -5 -10 -7 -15 -3 -5 3 -7 10
-3 15 3 5 10 7 15 3 5 -3 7 -10 3 -15z m3943 -271 c-2 -13 -4 -3 -4 22 0 25 2
35 4 23 2 -13 2 -33 0 -45z m-6654 -705 c-13 -2 -35 -2 -50 0 -16 2 -5 4 22 4
28 0 40 -2 28 -4z m3714 -75 c-2 -13 -4 -3 -4 22 0 25 2 35 4 23 2 -13 2 -33
0 -45z m-3899 35 c-10 -2 -26 -2 -35 0 -10 3 -2 5 17 5 19 0 27 -2 18 -5z"/>
<path d="M3764 5814 c3 -9 6 -18 6 -21 0 -3 7 0 15 7 17 14 11 30 -12 30 -10
0 -13 -6 -9 -16z"/>
<path d="M3850 5800 c0 -5 5 -10 10 -10 6 0 10 5 10 10 0 6 -4 10 -10 10 -5 0
-10 -4 -10 -10z"/>
<path d="M3880 5745 c0 -20 5 -25 25 -25 20 0 25 5 25 25 0 20 -5 25 -25 25
-20 0 -25 -5 -25 -25z"/>
<path d="M3121 4554 c0 -11 3 -14 6 -6 3 7 2 16 -1 19 -3 4 -6 -2 -5 -13z"/>
<path d="M7884 2880 c3 -18 6 -45 6 -61 0 -25 4 -29 29 -29 31 0 46 21 29 38
-6 6 -13 25 -17 44 -5 25 -13 34 -30 36 -22 3 -23 1 -17 -28z"/>
<path d="M4220 1405 c0 -8 5 -15 10 -15 6 0 10 7 10 15 0 8 -4 15 -10 15 -5 0
-10 -7 -10 -15z"/>
</g>
</svg>
