<?xml version="1.0" standalone="no"?>
<!DOCTYPE svg PUBLIC "-//W3C//DTD SVG 20010904//EN"
 "http://www.w3.org/TR/2001/REC-SVG-20010904/DTD/svg10.dtd">
<svg version="1.0" xmlns="http://www.w3.org/2000/svg"
 width="800.000000pt" height="800.000000pt" viewBox="0 0 800.000000 800.000000"
 preserveAspectRatio="xMidYMid meet">
<metadata>
Created by potrace 1.16, written by Peter Selinger 2001-2019
</metadata>
<g transform="translate(0.000000,800.000000) scale(0.100000,-0.100000)"
fill="#000000" stroke="none">
<path d="M0 4000 l0 -4000 4000 0 4000 0 0 4000 0 4000 -4000 0 -4000 0 0
-4000z m2360 2860 c-11 -20 -30 -28 -30 -12 0 11 22 32 32 32 5 0 4 -9 -2 -20z
m-40 -39 c0 -12 -20 -25 -27 -18 -7 7 6 27 18 27 5 0 9 -4 9 -9z m-42 -43 c-3
-7 -13 -15 -24 -17 -16 -3 -17 -1 -5 13 16 19 34 21 29 4z m-38 -37 c0 -13
-29 -35 -37 -28 -7 8 15 37 28 37 5 0 9 -4 9 -9z m-37 -66 c-5 -13 -23 -22
-23 -11 0 15 14 35 21 31 4 -3 6 -12 2 -20z m-28 -46 c-4 -5 -13 -9 -22 -9
-13 0 -13 3 -3 15 13 15 35 11 25 -6z m-75 1 c0 -5 -9 -10 -19 -10 -11 0 -23
5 -26 10 -4 6 5 10 19 10 14 0 26 -4 26 -10z m20 -35 c-7 -8 -16 -12 -21 -9
-13 8 -1 24 18 24 13 0 13 -3 3 -15z m1046 1 c10 -8 16 -17 12 -21 -7 -7 -48
16 -48 27 0 12 14 9 36 -6z m-595 -33 c13 -16 12 -17 -3 -4 -17 13 -22 21 -14
21 2 0 10 -8 17 -17z m582 -68 c-3 -9 -8 -14 -10 -11 -3 3 -2 9 2 15 9 16 15
13 8 -4z m-149 -21 c10 -25 1 -27 -19 -4 -15 17 -16 20 -3 20 9 0 19 -7 22
-16z m68 -59 c-2 -25 1 -59 7 -77 16 -44 4 -49 -14 -5 -17 42 -19 66 -5 101
13 36 16 33 12 -19z m56 -195 c-2 -7 -10 1 -17 16 -12 27 -11 28 4 12 10 -9
16 -21 13 -28z m92 -91 c0 -15 -16 -11 -32 9 -31 35 -31 45 0 23 18 -12 32
-27 32 -32z m52 -49 c-2 -7 2 -56 9 -109 16 -139 17 -161 8 -167 -5 -3 -9 0
-9 7 0 13 -58 8 -180 -18 -60 -12 -143 -15 -419 -15 -225 1 -348 5 -354 11 -8
8 99 11 349 11 329 0 369 2 479 23 l120 22 -4 50 c-1 28 -9 85 -15 128 -11 70
-11 77 3 74 9 -2 15 -9 13 -17z m35 -362 c-3 -7 -5 -2 -5 12 0 14 2 19 5 13 2
-7 2 -19 0 -25z m3 -39 c0 -11 -4 -17 -10 -14 -5 3 -10 13 -10 21 0 8 5 14 10
14 6 0 10 -9 10 -21z m12 -114 c-2 -19 -6 -35 -8 -35 -2 0 -4 16 -4 35 0 19 4
35 8 35 4 0 6 -16 4 -35z m-2588 -20 c-34 -26 -51 -16 -19 10 17 14 32 20 34
14 1 -6 -5 -17 -15 -24z m2603 -27 c-3 -8 -6 -5 -6 6 -1 11 2 17 5 13 3 -3 4
-12 1 -19z m30 -110 c-3 -8 -6 -5 -6 6 -1 11 2 17 5 13 3 -3 4 -12 1 -19z
m870 -90 c-3 -8 -6 -5 -6 6 -1 11 2 17 5 13 3 -3 4 -12 1 -19z m-804 -113 c20
-66 41 -150 46 -186 11 -69 129 -369 159 -403 12 -14 13 -17 2 -10 -8 5 -23 9
-34 9 -13 0 -44 44 -113 165 -52 91 -106 184 -119 207 l-25 43 46 27 c50 31
51 34 31 89 -7 22 -11 45 -9 52 3 7 -2 33 -11 59 -15 42 -21 83 -12 72 2 -2
19 -58 39 -124z m-144 -369 c27 -42 26 -44 -4 -38 -33 6 -51 37 -33 57 7 8 14
14 15 15 1 0 11 -15 22 -34z m400 -355 c61 -106 63 -113 47 -129 -16 -16 -17
-16 -10 1 4 12 -15 53 -60 128 -36 61 -66 113 -66 116 0 2 5 3 12 1 6 -2 41
-55 77 -117z m-14 89 c10 -11 16 -20 13 -20 -3 0 -13 9 -23 20 -10 11 -16 20
-13 20 3 0 13 -9 23 -20z m-141 -142 l56 -113 -33 -13 c-17 -8 -33 -15 -35
-17 -2 -2 6 -22 18 -45 12 -23 19 -45 16 -48 -9 -9 -22 8 -44 61 l-21 47 35
15 c18 7 34 16 34 19 0 10 -72 150 -92 179 -16 22 -16 27 -5 27 9 0 38 -46 71
-112z m187 85 c13 -16 12 -17 -3 -4 -17 13 -22 21 -14 21 2 0 10 -8 17 -17z
m99 -126 c1 -22 -27 4 -48 44 l-23 44 35 -40 c20 -22 35 -44 36 -48z m269 12
c-5 -10 -15 -21 -22 -25 -8 -6 -8 -3 1 9 8 9 11 20 8 25 -3 5 1 9 9 9 10 0 11
-5 4 -18z m-125 -126 l41 6 1 -80 c1 -44 4 -83 8 -86 3 -3 50 2 104 11 97 16
191 21 180 10 -4 -3 -39 -10 -79 -15 -40 -5 -74 -10 -75 -12 -2 -2 3 -41 11
-87 13 -75 13 -102 1 -89 -3 3 -12 43 -22 90 l-17 86 -61 -13 c-38 -8 -112
-40 -196 -84 -74 -39 -156 -80 -182 -92 -26 -11 -45 -25 -42 -32 4 -12 -113
-79 -120 -68 -3 4 16 19 42 32 43 23 45 25 20 28 -24 3 -37 23 -38 60 0 19 27
14 49 -9 20 -22 20 -22 63 -3 24 11 112 55 195 98 135 69 152 81 148 100 -3
11 -7 47 -8 79 l-2 58 -36 -6 c-33 -6 -38 -3 -72 39 -51 62 -47 82 5 22 40
-46 43 -48 82 -43z m-274 33 c0 -17 -78 -81 -88 -72 -3 4 14 24 38 46 52 45
50 44 50 26z m-406 -423 c9 -67 42 -168 55 -166 5 2 41 11 80 22 39 11 73 16
75 12 3 -4 -31 -18 -74 -31 -44 -12 -80 -28 -80 -34 0 -6 13 -53 29 -104 16
-50 25 -94 21 -97 -12 -7 -14 -2 -45 100 -15 50 -31 95 -36 101 -5 6 -6 14 -3
17 4 3 -3 37 -14 74 -27 89 -37 153 -25 153 6 0 13 -21 17 -47z m920 -73 c-5
-4 -40 -18 -77 -30 -54 -17 -68 -26 -64 -39 19 -60 74 -188 137 -319 40 -83
70 -155 67 -159 -4 -3 -8 -4 -9 -2 -28 46 -164 342 -172 373 -4 15 -18 51 -31
79 -25 51 -34 124 -15 112 6 -3 10 -15 10 -26 0 -23 -4 -23 72 -2 43 12 62 23
66 36 5 18 6 18 15 2 5 -9 5 -20 1 -25z m-331 -74 c7 -21 6 -30 -4 -37 -11 -7
-12 -12 -1 -29 16 -27 15 -41 -3 -34 -8 4 -15 4 -15 2 0 -2 25 -51 55 -108 30
-57 55 -106 55 -107 0 -10 -81 -39 -247 -88 l-192 -58 14 -34 c11 -26 11 -34
2 -31 -6 3 -17 20 -23 39 -10 27 -9 36 2 42 9 5 12 17 8 33 -5 21 -3 24 20 24
20 0 26 -5 26 -21 0 -14 5 -19 15 -16 8 4 85 27 172 53 172 51 194 61 170 79
-8 6 -34 48 -57 95 -23 47 -44 87 -45 88 -6 6 -75 -30 -75 -39 0 -5 -18 -18
-41 -29 l-41 -21 7 20 c3 12 2 21 -3 21 -5 0 -12 13 -14 30 -4 23 0 31 16 37
28 9 48 5 61 -14 10 -13 17 -14 48 -3 l36 13 -25 50 c-14 27 -24 50 -22 52 6
6 73 23 82 21 6 -1 14 -15 19 -30z m-307 -31 c7 -42 8 -41 -29 -50 -32 -8 -38
10 -6 20 16 6 19 12 14 36 -4 17 -2 29 4 29 5 0 13 -16 17 -35z m-376 -85 c13
-9 12 -13 -7 -29 -12 -10 -20 -21 -17 -23 2 -3 -3 -11 -12 -19 -14 -12 -19
-10 -40 16 -38 47 -32 57 36 63 14 1 32 -3 40 -8z m890 -441 c49 -97 59 -126
41 -114 -11 6 -111 201 -111 216 0 25 24 -10 70 -102z m355 61 c23 -9 25 -13
15 -25 -10 -13 -8 -15 13 -15 13 0 31 -8 38 -17 12 -15 12 -16 -1 -8 -8 5 -26
8 -41 7 -18 -2 -29 4 -39 23 -12 22 -19 25 -44 20 l-31 -6 25 15 c30 18 32 19
65 6z m-565 -20 c0 -5 -6 -10 -14 -10 -8 0 -21 -3 -30 -6 -9 -3 -16 -1 -16 4
0 9 9 13 53 21 4 0 7 -3 7 -9z m-2712 -33 c-11 -9 -14 -18 -7 -28 5 -8 9 -18
9 -22 0 -15 -21 5 -29 27 -9 22 2 36 29 36 12 -1 12 -3 -2 -13z m48 -24 c-4
-4 -11 -1 -16 7 -16 25 -11 35 7 17 9 -9 13 -20 9 -24z m-96 18 c0 -5 -7 -14
-15 -21 -12 -10 -15 -10 -15 2 0 8 3 18 7 21 9 10 23 9 23 -2z m-113 -18 c-9
-9 -20 -13 -24 -9 -4 4 -1 11 7 16 25 16 35 11 17 -7z m258 7 c3 -5 -1 -10 -9
-10 -9 0 -16 5 -16 10 0 6 4 10 9 10 6 0 13 -4 16 -10z m3105 -20 c0 -28 -19
-34 -41 -14 -19 17 -19 17 3 29 28 14 38 10 38 -15z m-3305 10 c3 -5 -1 -10
-9 -10 -8 0 -18 5 -21 10 -3 6 1 10 9 10 8 0 18 -4 21 -10z m3480 -20 c10 -11
16 -20 13 -20 -3 0 -13 9 -23 20 -10 11 -16 20 -13 20 3 0 13 -9 23 -20z
m-3533 -22 c-11 -11 -32 -3 -32 12 0 4 9 6 21 3 13 -4 17 -9 11 -15z m2618 -6
c0 -26 -3 -28 -41 -27 -29 0 -45 6 -53 18 -15 23 6 37 57 37 34 0 37 -2 37
-28z m-2430 -8 c0 -8 -4 -12 -10 -9 -5 3 -10 13 -10 21 0 8 5 12 10 9 6 -3 10
-13 10 -21z m-30 -12 c0 -4 -9 -13 -20 -20 -22 -13 -27 -3 -8 16 14 14 28 16
28 4z m3415 -36 c-19 -14 -19 -15 -2 -33 22 -25 23 -57 1 -49 -8 3 -12 2 -9
-4 3 -5 -6 -17 -21 -26 -22 -15 -25 -23 -21 -51 6 -34 -9 -93 -23 -93 -4 0
-28 36 -54 79 l-47 80 -47 -30 c-26 -16 -49 -36 -52 -44 -3 -10 -10 -11 -20
-5 -10 6 -12 12 -5 19 15 15 276 171 286 171 5 0 6 8 2 18 -6 16 -5 16 13 0
18 -17 18 -18 -1 -32z m-581 -32 c8 -20 -1 -34 -20 -34 -10 0 -13 -8 -9 -29 7
-39 -28 -56 -67 -33 -16 9 -28 19 -28 23 0 4 18 14 41 23 23 9 37 21 34 27 -4
6 1 17 11 24 25 19 31 18 38 -1z m-214 -102 c0 -5 10 -8 23 -7 12 1 29 -6 38
-16 9 -10 19 -16 23 -12 3 3 6 1 6 -6 0 -7 7 -19 15 -27 24 -24 19 -47 -7 -40
-13 3 -29 6 -35 6 -7 0 -13 6 -13 14 0 8 6 16 13 19 6 2 3 3 -9 1 -22 -4 -59
27 -47 39 3 4 -1 7 -9 7 -9 0 -18 7 -22 15 -3 9 0 15 9 15 8 0 15 -4 15 -8z
m1058 -187 c30 -9 86 -36 126 -60 40 -25 151 -78 246 -119 173 -75 187 -82
179 -90 -8 -8 -332 136 -419 187 -71 40 -130 65 -227 93 -7 2 -13 8 -13 13 0
9 8 8 108 -24z m-635 -196 c27 -31 16 -44 -57 -68 -77 -25 -90 -26 -83 -7 3 8
1 17 -6 19 -24 9 29 49 66 50 20 0 39 7 41 14 7 18 19 16 39 -8z m-639 -20
c18 17 26 20 26 10 0 -18 -56 -100 -67 -99 -4 1 -9 -3 -11 -9 -2 -6 3 -11 11
-11 13 0 47 -50 47 -69 0 -3 -17 -6 -38 -5 -67 2 -65 0 -60 49 4 32 2 48 -8
53 -12 6 -11 14 4 42 33 65 33 65 53 39 l18 -24 25 24z m-391 -71 c6 -20 -6
-37 -25 -38 -4 0 -14 14 -23 30 l-16 30 30 0 c21 0 30 -6 34 -22z m4164 -314
c-3 -3 -12 -4 -19 -1 -8 3 -5 6 6 6 11 1 17 -2 13 -5z m-1239 -131 c-10 -2
-28 -2 -40 0 -13 2 -5 4 17 4 22 1 32 -1 23 -4z m-345 -60 c-7 -2 -21 -2 -30
0 -10 3 -4 5 12 5 17 0 24 -2 18 -5z m-1660 -86 c-4 -6 -8 -15 -8 -19 0 -19
-13 -15 -26 8 -12 23 -12 27 6 40 17 12 20 12 28 -1 4 -8 5 -21 0 -28z m-2083
-127 c0 -5 -4 -10 -9 -10 -6 0 -13 5 -16 10 -3 6 1 10 9 10 9 0 16 -4 16 -10z
m-217 -107 c-7 -2 -19 -2 -25 0 -7 3 -2 5 12 5 14 0 19 -2 13 -5z m5284 -765
c-2 -18 -4 -4 -4 32 0 36 2 50 4 33 2 -18 2 -48 0 -65z m-2450 -45 c17 -26 2
-31 -18 -7 -10 12 -24 15 -59 10 -30 -4 -52 -2 -63 6 -15 11 -6 13 54 13 63 0
73 -3 86 -22z"/>
<path d="M3425 5054 c-11 -9 -26 -19 -34 -23 -11 -7 7 -45 84 -180 54 -94 99
-170 101 -168 2 2 -19 57 -47 122 -28 65 -55 144 -61 174 -16 88 -19 93 -43
75z"/>
<path d="M3515 2460 c3 -5 8 -10 11 -10 2 0 4 5 4 10 0 6 -5 10 -11 10 -5 0
-7 -4 -4 -10z"/>
<path d="M3495 2380 c-3 -5 3 -10 14 -10 12 0 21 5 21 10 0 6 -6 10 -14 10 -8
0 -18 -4 -21 -10z"/>
</g>
</svg>
