<?xml version="1.0" standalone="no"?>
<!DOCTYPE svg PUBLIC "-//W3C//DTD SVG 20010904//EN"
 "http://www.w3.org/TR/2001/REC-SVG-20010904/DTD/svg10.dtd">
<svg version="1.0" xmlns="http://www.w3.org/2000/svg"
 width="800.000000pt" height="800.000000pt" viewBox="0 0 800.000000 800.000000"
 preserveAspectRatio="xMidYMid meet">
<metadata>
Created by potrace 1.16, written by Peter Selinger 2001-2019
</metadata>
<g transform="translate(0.000000,800.000000) scale(0.100000,-0.100000)"
fill="#000000" stroke="none">
<path d="M0 4000 l0 -4000 4000 0 4000 0 0 4000 0 4000 -4000 0 -4000 0 0
-4000z m4290 3735 c7 -8 9 -15 4 -16 -86 -9 -122 -1 -87 20 26 15 69 13 83 -4z
m-612 -277 c-2 -51 1 -110 6 -130 12 -56 -8 -47 -23 10 -13 52 -5 212 11 212
5 0 8 -41 6 -92z m512 18 c0 -8 -4 -18 -10 -21 -5 -3 -10 3 -10 14 0 12 5 21
10 21 6 0 10 -6 10 -14z m1167 -22 c-3 -3 -12 -4 -19 -1 -8 3 -5 6 6 6 11 1
17 -2 13 -5z m-1181 -193 c-9 -76 -16 -141 -16 -144 0 -4 -4 -7 -10 -7 -5 0
-10 9 -10 20 0 11 -6 20 -12 20 -8 1 -6 6 5 14 27 21 22 64 -8 72 -14 3 -25
13 -25 23 0 9 -3 26 -6 39 -5 19 -2 22 19 22 14 0 31 -8 37 -17 8 -14 9 -7 4
30 -4 32 -3 47 5 47 6 0 11 11 11 23 0 13 3 27 8 31 14 15 13 -37 -2 -173z
m-346 89 c0 -5 -9 -10 -20 -10 -11 0 -20 5 -20 10 0 6 9 10 20 10 11 0 20 -4
20 -10z m2477 -182 c-23 -15 -27 -8 -27 45 0 73 12 79 26 15 9 -40 9 -55 1
-60z m-2527 2 c0 -5 -4 -10 -10 -10 -5 0 -10 5 -10 10 0 6 5 10 10 10 6 0 10
-4 10 -10z m1885 0 c3 -5 -1 -10 -10 -10 -9 0 -13 5 -10 10 3 6 8 10 10 10 2
0 7 -4 10 -10z m780 -17 c10 -16 49 -58 89 -95 39 -38 66 -68 61 -68 -17 0
-126 96 -145 128 -10 16 -23 33 -29 36 -6 4 -11 11 -11 17 0 18 18 9 35 -18z
m-2335 -3 c0 -5 -5 -10 -11 -10 -5 0 -7 5 -4 10 3 6 8 10 11 10 2 0 4 -4 4
-10z m-751 -16 c92 -10 73 -25 -22 -18 l-83 7 -37 -43 c-20 -24 -40 -41 -43
-37 -3 3 11 26 32 51 42 50 45 51 153 40z m711 -3 c0 -5 -7 -11 -15 -15 -15
-5 -20 5 -8 17 9 10 23 9 23 -2z m1470 -18 c0 -39 -13 -93 -22 -93 -5 0 -6 19
-2 45 5 38 4 45 -10 45 -9 0 -16 5 -16 10 0 6 11 10 25 10 17 0 25 -5 25 -17z
m211 -46 c-1 -12 -15 -9 -19 4 -3 6 1 10 8 8 6 -3 11 -8 11 -12z m701 -109
c65 -39 63 -37 56 -44 -3 -3 -29 9 -57 26 -46 28 -55 31 -83 21 -36 -13 -65
-14 -54 -3 4 4 24 12 44 18 20 7 38 12 39 13 2 1 26 -13 55 -31z m-182 -16 c0
-5 -27 -16 -60 -25 -70 -20 -70 -20 -70 -8 0 5 26 16 58 24 71 19 72 19 72 9z
m-2275 -12 c3 -5 2 -10 -4 -10 -5 0 -13 5 -16 10 -3 6 -2 10 4 10 5 0 13 -4
16 -10z m-17 -38 c2 -7 -7 -12 -23 -12 -24 0 -26 2 -15 15 14 17 31 16 38 -3z
m2612 2 c0 -12 -4 -14 -12 -7 -7 6 -20 13 -28 16 -9 3 -3 6 13 6 19 1 27 -4
27 -15z m-2670 -3 c0 -6 -4 -13 -10 -16 -5 -3 -10 1 -10 9 0 9 5 16 10 16 6 0
10 -4 10 -9z m1460 -81 c-29 -19 -41 -12 -28 15 11 23 13 24 27 10 14 -14 14
-17 1 -25z m140 -126 c16 -48 5 -55 -14 -9 -19 44 -19 45 -7 45 5 0 15 -16 21
-36z m-490 -14 c0 -5 -2 -10 -4 -10 -3 0 -8 5 -11 10 -3 6 -1 10 4 10 6 0 11
-4 11 -10z m-950 -91 c0 -5 -7 -9 -15 -9 -15 0 -20 12 -9 23 8 8 24 -1 24 -14z
m-143 -64 c-4 -8 -14 -15 -23 -15 -16 0 -16 2 1 20 20 22 31 20 22 -5z m-112
-54 c7 -12 -12 -24 -25 -16 -11 7 -4 25 10 25 5 0 11 -4 15 -9z m205 -3 c0 -4
-9 -8 -20 -8 -11 0 -20 4 -20 8 0 4 9 8 20 8 11 0 20 -4 20 -8z m963 -125 c-7
-2 -21 -2 -30 0 -10 3 -4 5 12 5 17 0 24 -2 18 -5z m-773 -73 c0 -13 -30 -18
-143 -23 -131 -6 -112 12 24 22 57 5 107 9 112 10 4 0 7 -3 7 -9z m-355 -115
c12 -3 10 -9 -9 -30 -30 -32 -38 -32 -26 0 8 20 6 25 -6 25 -8 0 -13 4 -9 10
3 5 12 7 20 5 8 -3 22 -7 30 -10z m900 -25 c-3 -5 -10 -10 -16 -10 -5 0 -9 5
-9 10 0 6 7 10 16 10 8 0 12 -4 9 -10z m-935 -50 c0 -5 -10 -10 -22 -10 -19 0
-20 2 -8 10 19 13 30 13 30 0z m880 -16 c0 -8 -4 -14 -10 -14 -5 0 -10 9 -10
21 0 11 5 17 10 14 6 -3 10 -13 10 -21z m104 -141 c-3 -10 -8 -58 -13 -108
l-8 -90 -2 108 c-1 86 2 107 13 107 8 0 12 -7 10 -17z m-968 -16 c2 -7 -2 -32
-11 -56 -8 -24 -15 -65 -15 -92 0 -42 -3 -48 -20 -46 -17 1 -20 8 -20 47 0 25
5 63 11 85 10 34 13 37 20 20 l8 -20 2 20 c1 11 2 28 1 38 -2 20 16 23 24 4z
m-246 -6 c0 -6 -4 -13 -10 -16 -5 -3 -10 1 -10 9 0 9 5 16 10 16 6 0 10 -4 10
-9z m964 -87 c9 -37 14 -69 11 -72 -7 -8 -9 -3 -25 62 -22 87 -40 85 -41 -6
-1 -40 -3 -83 -4 -95 -2 -21 2 -23 50 -23 39 0 54 -4 59 -16 8 -21 -16 -204
-27 -204 -5 0 -6 23 -3 50 3 28 9 73 12 100 l6 50 -49 0 c-44 0 -48 -2 -49
-26 -2 -24 -11 -43 -16 -33 -2 2 -2 66 0 142 l3 137 28 0 c27 0 30 -4 45 -66z
m916 26 c0 -13 -7 -20 -20 -20 -13 0 -20 7 -20 20 0 13 7 20 20 20 13 0 20 -7
20 -20z m-750 -55 c0 -19 0 -19 -15 1 -8 12 -28 27 -44 34 -17 7 -28 16 -25
21 9 15 84 -34 84 -56z m-2620 -5 c-24 -15 -37 -11 -16 5 11 8 22 12 25 9 3
-3 -1 -9 -9 -14z m-237 -17 c-7 -2 -21 -2 -30 0 -10 3 -4 5 12 5 17 0 24 -2
18 -5z m4824 -60 c-3 -10 -5 -2 -5 17 0 19 2 27 5 18 2 -10 2 -26 0 -35z
m-2837 -25 c0 -19 -2 -20 -10 -8 -13 19 -13 30 0 30 6 0 10 -10 10 -22z m1740
-8 c0 -5 -4 -10 -10 -10 -5 0 -10 5 -10 10 0 6 5 10 10 10 6 0 10 -4 10 -10z
m-1555 -70 c7 -21 0 -40 -16 -40 -5 0 -9 14 -9 30 0 34 15 40 25 10z m849 -59
c-5 -23 -2 -29 18 -34 43 -12 57 -8 64 18 8 33 23 32 16 -1 -3 -15 1 -29 7
-34 26 -16 -15 -16 -94 -1 -44 8 -70 17 -58 19 16 2 24 12 29 38 3 18 10 31
15 29 4 -3 6 -18 3 -34z m-1094 -80 c-36 -4 -80 -15 -98 -24 -31 -17 -32 -19
-16 -32 17 -12 15 -16 -23 -59 -44 -50 -52 -84 -45 -181 4 -40 7 -45 28 -45
18 0 33 -16 71 -79 41 -66 59 -85 118 -124 105 -69 123 -73 183 -43 37 19 73
27 141 32 l91 7 0 31 c0 24 3 27 10 16 5 -8 10 -24 10 -35 0 -14 17 -29 50
-48 28 -15 54 -37 59 -50 18 -49 22 -67 13 -67 -5 0 -14 18 -21 40 -10 33 -20
44 -59 64 -46 23 -148 40 -157 26 -2 -4 -17 -5 -33 -2 -19 2 -50 -7 -89 -27
-58 -29 -62 -29 -106 -16 -57 17 -107 43 -107 55 0 5 -14 17 -31 27 -17 10
-51 50 -75 90 -57 90 -77 97 -161 55 -32 -16 -78 -36 -101 -43 l-44 -13 4 -75
c3 -42 8 -84 12 -93 5 -11 4 -18 -2 -18 -17 0 -32 60 -32 126 l0 64 -67 0
c-89 0 -113 -7 -113 -33 0 -21 0 -21 16 -1 14 18 15 18 10 -11 -2 -16 -9 -48
-14 -69 -13 -49 -2 -61 64 -70 46 -7 51 -5 61 16 11 22 12 22 12 -10 l1 -33
-47 6 c-27 3 -58 8 -70 11 -15 3 -24 -2 -28 -16 -3 -11 -10 -20 -15 -20 -5 0
-7 7 -4 15 7 18 3 19 -31 3 -35 -16 -31 -36 8 -41 24 -3 21 -4 -10 -3 l-41 1
-18 -60 c-18 -60 -60 -155 -69 -155 -3 0 4 18 15 40 11 22 28 68 36 103 19 73
29 93 60 128 29 31 44 107 41 209 -2 73 -3 75 -32 84 -83 25 -82 24 -90 82 -6
54 -1 79 15 69 4 -3 6 -14 3 -25 -5 -19 0 -20 65 -20 39 0 74 -4 77 -10 11
-18 34 -11 65 20 20 20 41 30 60 30 20 0 30 5 30 15 0 8 4 15 9 15 5 0 11 -7
15 -15 8 -21 62 -20 70 1 8 20 8 21 -26 29 -20 5 -27 3 -31 -12 -3 -12 -5 -9
-6 10 -1 24 2 27 22 22 12 -3 55 -12 95 -19 l72 -14 19 27 c10 14 17 36 16 49
-1 13 2 25 6 28 5 2 6 10 3 17 -9 25 75 56 151 55 l70 -1 -65 -6z m410 -46 c0
-36 4 -45 18 -46 14 0 14 -2 -3 -8 -11 -5 -23 -7 -27 -4 -12 6 -9 103 2 103 6
0 10 -20 10 -45z m100 24 c0 -5 -4 -9 -9 -9 -5 0 -9 -6 -8 -12 1 -35 -4 -58
-13 -58 -5 0 -10 13 -10 28 0 15 -6 34 -12 40 -10 10 -10 15 1 21 15 10 51 3
51 -10z m-1050 -71 c-1 -22 -27 -48 -48 -48 -11 0 -32 -4 -45 -9 -14 -5 -35
-7 -47 -4 -19 5 -17 8 22 31 68 39 118 52 118 30z m790 2 c0 -5 -7 -10 -17
-10 -9 0 -14 -3 -10 -6 3 -4 -1 -14 -10 -23 -12 -11 -17 -13 -21 -3 -11 33
-76 -4 -92 -53 -15 -44 -61 -83 -108 -90 -20 -3 -50 -10 -65 -15 -21 -6 -27
-6 -24 3 3 11 30 19 105 33 12 2 22 11 22 19 0 8 8 15 18 15 12 0 25 15 38 46
17 42 25 49 79 69 68 26 85 29 85 15z m-650 -41 c0 -6 -4 -7 -10 -4 -5 3 -10
11 -10 16 0 6 5 7 10 4 6 -3 10 -11 10 -16z m-270 -38 c0 -5 -7 -12 -16 -15
-22 -9 -24 -8 -24 9 0 8 9 15 20 15 11 0 20 -4 20 -9z m635 -161 c3 -5 -3 -10
-14 -10 -12 0 -21 5 -21 10 0 6 6 10 14 10 8 0 18 -4 21 -10z m185 -134 c0
-12 24 -25 54 -30 5 0 11 -7 14 -14 3 -11 -3 -10 -26 2 -17 9 -37 16 -45 16
-16 0 -30 24 -20 34 11 11 23 6 23 -8z m-466 -212 c9 -22 -3 -32 -14 -14 -12
19 -12 30 -1 30 5 0 12 -7 15 -16z m-44 -24 c0 -5 -5 -10 -11 -10 -5 0 -7 5
-4 10 3 6 8 10 11 10 2 0 4 -4 4 -10z m100 0 c0 -5 -5 -10 -11 -10 -5 0 -7 5
-4 10 3 6 8 10 11 10 2 0 4 -4 4 -10z m906 -55 c20 -8 41 -12 48 -8 6 3 8 3 5
-1 -10 -11 79 -90 128 -115 26 -13 61 -21 91 -21 27 0 69 -7 93 -15 24 -9 50
-13 59 -10 12 5 13 4 2 -6 -10 -11 -21 -11 -57 -1 -25 7 -61 12 -80 12 -60 0
-143 36 -194 83 -26 25 -69 54 -94 65 -26 12 -47 23 -47 26 0 9 7 7 46 -9z
m-186 -5 c0 -5 -4 -10 -10 -10 -5 0 -10 5 -10 10 0 6 5 10 10 10 6 0 10 -4 10
-10z m584 -26 c9 -24 7 -62 -4 -69 -6 -4 -8 -11 -5 -16 3 -5 -1 -6 -9 -3 -20
8 -20 23 0 45 14 16 13 19 -7 38 -22 21 -22 21 -2 21 11 0 24 -7 27 -16z
m-1104 -24 c0 -11 -4 -20 -9 -20 -7 0 -8 17 -2 38 4 10 11 -2 11 -18z m-350
-20 c0 -5 -5 -10 -11 -10 -5 0 -7 5 -4 10 3 6 8 10 11 10 2 0 4 -4 4 -10z
m-341 -178 c36 -25 55 -32 93 -32 26 0 48 -4 48 -10 0 -5 -24 -10 -54 -10 -60
0 -55 7 -72 -92 -6 -35 -64 -108 -86 -108 -4 0 -8 -9 -8 -19 0 -24 -10 -51
-19 -51 -4 0 -5 15 -3 34 2 18 -1 43 -8 55 -6 12 -8 26 -4 33 4 6 11 0 18 -16
l11 -27 41 38 c38 35 42 44 49 103 l7 64 -36 32 c-20 17 -36 37 -36 45 0 9 3
10 8 4 4 -6 27 -25 51 -43z m-56 -22 c-7 -28 -13 -25 -13 6 0 14 4 23 9 20 5
-3 7 -15 4 -26z m542 -29 c-3 -6 -11 -11 -17 -11 -6 0 -6 6 2 15 14 17 26 13
15 -4z m-338 -207 c-9 -9 -28 6 -21 18 4 6 10 6 17 -1 6 -6 8 -13 4 -17z
m2014 -201 c12 -15 12 -16 -4 -10 -15 5 -16 4 -7 -13 12 -23 13 -30 1 -30 -13
0 -22 30 -16 51 8 23 9 23 26 2z m29 -53 c0 -16 -4 -30 -10 -30 -5 0 -10 14
-10 30 0 17 5 30 10 30 6 0 10 -13 10 -30z m2251 -7 c13 -16 12 -17 -3 -4 -10
7 -18 15 -18 17 0 8 8 3 21 -13z m-2251 -75 c0 -5 -4 -8 -10 -8 -5 0 -10 10
-10 23 0 18 2 19 10 7 5 -8 10 -18 10 -22z m-2146 6 c9 -24 7 -28 -9 -14 -17
14 -20 30 -6 30 5 0 12 -7 15 -16z m-46 -6 c-6 -18 -28 -21 -28 -4 0 9 7 16
16 16 9 0 14 -5 12 -12z m-38 -28 c0 -5 -11 -10 -25 -10 -14 0 -25 5 -25 10 0
6 11 10 25 10 14 0 25 -4 25 -10z m140 0 c0 -5 -6 -10 -14 -10 -8 0 -18 5 -21
10 -3 6 3 10 14 10 12 0 21 -4 21 -10z m2110 -32 c0 -5 -4 -8 -10 -8 -5 0 -10
10 -10 23 0 18 2 19 10 7 5 -8 10 -18 10 -22z m-2073 -14 c-9 -9 -27 6 -27 22
0 13 2 13 16 -1 9 -9 14 -18 11 -21z m-1519 -103 c-11 -4 -128 108 -128 122 0
5 31 -20 69 -55 38 -34 64 -65 59 -67z m2169 58 c17 -15 46 -30 65 -34 33 -7
78 -40 78 -57 0 -5 -12 -1 -27 10 -16 11 -42 23 -60 26 -32 7 -123 79 -123 98
0 11 11 4 67 -43z m1407 16 c-4 -8 -10 -15 -15 -15 -4 0 -6 7 -3 15 4 8 10 15
15 15 4 0 6 -7 3 -15z m-33 -78 c-13 -13 -15 1 -4 30 7 17 8 17 11 -1 2 -10
-1 -23 -7 -29z m-2031 -77 c-24 -15 -37 -11 -16 5 11 8 22 12 25 9 3 -3 -1 -9
-9 -14z m2080 -30 c0 -5 -7 -10 -16 -10 -8 0 -12 5 -9 10 3 6 10 10 16 10 5 0
9 -4 9 -10z m-2075 -20 c10 -11 16 -20 13 -20 -3 0 -13 9 -23 20 -10 11 -16
20 -13 20 3 0 13 -9 23 -20z m1483 -92 c8 -8 15 -8 27 2 8 7 19 10 22 6 4 -4
1 -11 -7 -16 -11 -7 -12 -11 0 -24 16 -21 5 -33 -15 -16 -12 10 -18 10 -30 0
-8 -7 -15 -19 -15 -26 0 -8 7 -14 15 -14 19 0 19 -3 -4 -49 -22 -42 -75 -87
-124 -103 -18 -6 -65 -45 -108 -90 -42 -43 -81 -78 -88 -78 -14 0 157 175 179
182 27 9 -10 39 -99 80 -100 47 -97 61 14 66 71 4 77 3 135 -33 34 -20 63 -36
64 -34 2 2 8 14 15 26 10 19 8 22 -19 28 -34 7 -50 25 -24 25 10 0 28 10 41
22 21 20 22 23 6 40 -17 19 -5 26 15 6z m-3410 -126 c-4 -22 -24 -25 -24 -4 0
10 6 19 14 19 7 0 12 -7 10 -15z m2467 -222 c3 -5 1 -10 -4 -10 -6 0 -11 5
-11 10 0 6 2 10 4 10 3 0 8 -4 11 -10z"/>
<path d="M4120 7270 c0 -23 15 -27 23 -6 3 8 -1 17 -9 20 -9 4 -14 -1 -14 -14z"/>
<path d="M3490 5261 c0 -11 -3 -27 -7 -36 -5 -14 -2 -16 15 -10 42 13 21 -14
-30 -39 -49 -25 -54 -25 -65 -9 -7 9 -13 25 -13 36 0 10 -4 15 -10 12 -5 -3
-10 -1 -10 4 0 16 -46 13 -60 -4 -9 -11 -3 -23 35 -64 26 -28 44 -55 40 -61
-9 -15 22 -60 42 -60 10 0 52 16 95 37 l78 36 0 82 0 82 -37 7 c-61 10 -73 8
-73 -13z"/>
<path d="M3082 5164 c3 -27 7 -29 58 -35 30 -4 90 -12 133 -19 43 -7 81 -9 85
-6 3 4 -8 21 -26 38 -25 26 -40 32 -74 33 -24 1 -74 5 -111 10 l-69 8 4 -29z"/>
<path d="M3200 5068 l0 -35 92 -7 c50 -3 94 -4 96 -1 13 13 -43 53 -81 59 -23
4 -57 9 -74 12 -32 6 -33 5 -33 -28z m40 12 c0 -5 -4 -10 -10 -10 -5 0 -10 5
-10 10 0 6 5 10 10 10 6 0 10 -4 10 -10z"/>
<path d="M3181 4844 c-12 -27 -11 -28 4 -12 10 9 16 21 13 28 -2 7 -10 -1 -17
-16z"/>
<path d="M4425 3350 l-50 -5 59 -27 c32 -16 61 -28 65 -28 3 0 18 -14 32 -31
l26 -32 32 30 33 29 -53 29 c-68 38 -83 41 -144 35z"/>
</g>
</svg>
