<?xml version="1.0" standalone="no"?>
<!DOCTYPE svg PUBLIC "-//W3C//DTD SVG 20010904//EN"
 "http://www.w3.org/TR/2001/REC-SVG-20010904/DTD/svg10.dtd">
<svg version="1.0" xmlns="http://www.w3.org/2000/svg"
 width="800.000000pt" height="800.000000pt" viewBox="0 0 800.000000 800.000000"
 preserveAspectRatio="xMidYMid meet">
<metadata>
Created by potrace 1.16, written by Peter Selinger 2001-2019
</metadata>
<g transform="translate(0.000000,800.000000) scale(0.100000,-0.100000)"
fill="#000000" stroke="none">
<path d="M0 6154 l0 -1845 23 6 c29 9 30 11 60 70 15 30 28 77 32 118 4 37 11
67 17 67 5 0 7 -12 4 -27 -3 -16 -8 -52 -12 -82 -9 -73 -50 -143 -92 -156 -37
-11 -37 -10 -16 -103 12 -53 19 -69 30 -65 8 3 14 0 14 -6 0 -6 -5 -11 -11
-11 -6 0 5 -18 25 -40 31 -34 45 -60 33 -60 -13 0 -91 108 -97 134 -5 17 -8
-911 -9 -2062 l-1 -2092 2142 2 2141 3 146 215 c80 119 163 236 184 262 39 48
184 155 194 144 8 -7 12 -4 -69 -58 -89 -58 -118 -93 -292 -351 l-147 -217
1850 0 1851 0 0 323 -1 322 -29 35 c-22 25 -45 83 -85 206 -91 283 -172 468
-253 577 l-69 92 -137 425 c-76 234 -141 445 -146 470 -6 34 -3 67 12 135 20
90 37 137 38 105 0 -8 -9 -53 -21 -100 -12 -51 -18 -101 -15 -125 3 -22 68
-235 145 -472 l139 -431 70 -93 c58 -79 81 -122 140 -269 39 -96 91 -240 116
-320 25 -80 57 -161 71 -180 l25 -34 0 1348 0 1347 -58 -6 c-31 -4 -129 -25
-217 -48 -106 -27 -193 -42 -257 -46 l-96 -6 127 -132 c69 -73 121 -133 116
-133 -6 0 -24 13 -40 30 -15 16 -31 28 -35 27 -5 -1 -9 3 -9 8 -3 21 -196 205
-226 215 l-30 10 35 -32 c19 -17 28 -28 19 -25 -13 4 -18 -5 -23 -50 -3 -30
-15 -72 -26 -94 -17 -32 -25 -39 -48 -38 -19 1 -21 3 -7 6 34 7 65 74 65 141
0 48 -4 62 -22 80 -21 18 -33 20 -116 18 -62 -2 -97 -7 -102 -16 -4 -7 -9 -8
-11 -2 -2 5 -57 12 -121 15 -110 5 -143 13 -178 42 -21 17 -104 36 -108 25 -2
-5 -12 -4 -22 3 -28 17 -90 -17 -182 -103 -70 -64 -77 -75 -83 -118 -3 -26
-13 -65 -20 -87 -8 -22 -21 -76 -30 -120 -8 -44 -26 -118 -40 -165 -14 -47
-29 -105 -32 -130 -3 -25 -12 -52 -19 -61 -8 -8 -17 -38 -20 -65 -8 -56 -32
-96 -74 -120 -20 -12 -30 -28 -35 -53 -4 -20 -17 -52 -28 -72 -27 -44 -167
-164 -223 -192 -33 -16 -47 -32 -72 -83 -18 -36 -32 -68 -32 -73 0 -5 16 -5
38 0 31 7 39 5 52 -12 14 -17 19 -18 49 -8 29 10 36 10 47 -5 6 -9 12 -32 12
-49 0 -33 -23 -76 -34 -64 -4 4 -2 13 5 21 9 11 9 15 0 18 -9 3 -8 10 2 26 20
31 0 50 -36 34 -27 -13 -65 -2 -65 18 0 6 -16 8 -40 4 -21 -4 -47 -3 -57 0
-17 7 -17 8 0 17 9 6 17 15 17 21 0 6 12 36 28 66 20 40 37 59 67 74 46 24
185 137 215 175 11 15 27 50 36 79 12 41 23 58 49 74 38 24 65 74 65 123 0 19
7 40 15 47 7 6 17 33 21 58 3 26 22 99 41 162 26 86 33 126 29 157 -3 27 -1
47 7 55 21 23 37 68 44 127 6 55 8 57 88 130 45 41 104 85 130 98 46 24 50 24
114 12 36 -7 69 -12 74 -11 4 1 7 -2 7 -7 0 -5 15 -18 33 -29 28 -18 49 -20
185 -20 83 0 152 3 152 7 0 4 -5 12 -12 19 -6 6 -9 15 -5 18 4 4 14 -3 24 -14
19 -22 101 -33 135 -18 12 5 34 -1 64 -18 71 -40 150 -36 352 17 90 23 160 45
157 48 -3 4 6 4 21 1 16 -3 24 -1 21 4 -3 6 9 8 29 6 19 -2 50 -1 69 2 l35 7
0 1016 c0 999 0 1015 -19 1002 -30 -22 -228 -159 -305 -211 -69 -48 -99 -61
-76 -33 7 9 15 13 18 10 3 -2 10 2 16 10 6 8 90 68 186 133 l175 119 3 1286 2
1287 -4000 0 -4000 0 0 -1846z m2160 583 c0 -1 -26 -27 -57 -57 l-58 -55 55
58 c50 53 60 62 60 54z m3886 -212 c-71 -82 -81 -113 -50 -161 12 -18 15 -37
10 -70 -4 -35 0 -59 20 -110 28 -70 28 -99 -1 -168 -22 -53 -31 -38 -11 20 21
63 20 79 -9 153 -19 51 -23 71 -16 101 6 26 4 44 -5 61 -7 13 -13 46 -14 72 0
47 3 52 67 118 36 38 68 67 71 64 3 -2 -25 -39 -62 -80z m-2824 -171 l37 -66
-24 -26 c-14 -15 -25 -23 -25 -18 0 5 7 17 15 26 14 16 13 23 -20 76 -35 60
-41 74 -27 74 4 0 24 -30 44 -66z m-32 -114 c12 -8 11 -10 -7 -10 -12 0 -25 5
-28 10 -8 13 15 13 35 0z m1924 -30 c8 -10 2 -11 -29 -5 -47 8 -44 8 -71 6
-16 -1 -25 -16 -43 -66 -35 -97 -69 -139 -151 -180 -59 -30 -75 -44 -111 -97
-51 -77 -48 -73 -55 -66 -3 4 15 37 41 75 39 59 55 74 105 98 83 39 122 84
155 179 l29 78 59 -5 c33 -3 64 -11 71 -17z m53 -71 c15 -39 11 -46 -28 -54
-41 -9 -50 2 -11 16 28 9 30 13 21 35 -11 31 -11 34 -1 34 4 0 13 -14 19 -31z
m-793 -235 c9 -22 -3 -32 -14 -14 -12 19 -12 30 -1 30 5 0 12 -7 15 -16z
m1771 -612 c3 -16 24 -57 45 -93 28 -45 40 -75 40 -102 0 -24 5 -40 15 -43 18
-7 10 -24 -11 -24 -9 0 -36 -15 -62 -32 -25 -18 -50 -36 -55 -39 -7 -5 81
-217 98 -237 1 -1 10 1 20 4 14 6 16 14 11 45 -4 24 -2 39 4 39 5 0 10 -13 10
-30 0 -35 6 -37 40 -9 55 44 110 79 110 71 0 -5 -31 -33 -70 -61 -62 -47 -70
-56 -70 -86 0 -25 7 -37 28 -50 15 -10 31 -25 37 -34 10 -17 11 -23 13 -88 2
-36 5 -40 22 -36 11 3 20 0 20 -6 0 -6 -13 -11 -30 -11 l-30 0 0 60 c0 36 -4
60 -11 60 -5 0 -7 4 -4 10 3 5 -10 20 -29 32 -27 17 -36 30 -36 51 0 17 -5 27
-15 27 -9 0 -12 -6 -9 -15 4 -8 2 -15 -4 -15 -6 0 -12 5 -14 11 -2 6 -15 0
-30 -14 -14 -13 -33 -27 -42 -30 -9 -4 -49 -29 -91 -57 -41 -27 -79 -50 -86
-50 -6 0 -49 -32 -94 -70 l-83 -71 13 -50 c10 -38 28 -65 69 -109 31 -32 56
-63 56 -69 0 -16 32 -1 68 32 36 35 41 67 17 124 -8 20 -14 38 -12 40 9 8 28
-28 41 -75 l13 -51 -39 -38 -39 -38 33 -8 c18 -5 43 -18 56 -30 l22 -20 0 21
c0 12 5 22 10 22 6 0 10 -11 10 -23 0 -19 9 -28 40 -40 23 -9 40 -22 40 -31 0
-21 -6 -20 -32 4 -12 11 -28 20 -36 20 -8 0 -34 10 -57 21 l-43 21 -30 -22
c-25 -18 -29 -27 -22 -41 26 -48 -2 -31 -36 22 -13 21 -28 39 -33 39 -5 0 -29
-12 -55 -26 l-46 -26 26 -34 c15 -19 24 -34 21 -34 -2 0 -70 64 -149 143 -133
131 -205 217 -179 217 5 0 19 -17 31 -38 12 -21 70 -84 130 -140 l108 -102 49
27 c26 14 50 28 52 30 2 2 -1 13 -7 26 -6 12 -13 31 -15 42 -2 11 -8 19 -14
18 -18 -4 -50 57 -63 121 l-12 58 41 42 40 41 -19 25 c-12 15 -20 41 -20 65 0
28 -11 58 -36 99 -19 32 -34 66 -32 74 2 9 76 57 165 108 90 51 192 113 228
138 36 25 71 46 76 46 20 0 -2 103 -30 140 -26 35 -61 113 -61 138 0 23 18 3
25 -26z m-2345 -13 c7 -11 10 -22 8 -23 -70 -50 -198 -136 -203 -136 -16 0 13
24 95 81 79 53 88 63 79 80 -6 13 -6 19 0 19 6 0 15 -9 21 -21z m390 -142 c32
5 47 -1 111 -43 41 -27 115 -69 164 -92 87 -42 92 -46 145 -125 64 -96 65 -97
51 -97 -6 0 -34 37 -62 81 -52 81 -53 82 -148 126 -53 25 -124 65 -158 89 -50
36 -70 44 -105 44 -42 0 -68 13 -68 34 0 6 7 3 16 -6 11 -11 27 -14 54 -11z
m3376 -22 c-21 -16 -32 -13 -21 4 3 6 14 11 23 11 15 -1 15 -2 -2 -15z m-46
-30 c-7 -8 -20 -15 -29 -15 -13 1 -13 3 3 15 26 19 42 19 26 0z m-3645 -24
c-16 -14 -187 -82 -193 -76 -8 8 -4 10 88 48 84 36 123 46 105 28z m3591 -10
c-4 -6 -44 -35 -89 -64 -45 -30 -138 -104 -207 -163 -115 -101 -163 -146 -247
-235 -47 -51 -101 -99 -111 -99 -12 0 -62 -119 -62 -148 0 -22 -43 -72 -61
-72 -5 0 -9 -11 -9 -25 0 -24 -65 -133 -112 -187 -25 -30 -145 -98 -171 -98
-9 0 -17 -5 -17 -10 0 -6 -6 -10 -12 -8 -7 1 -34 -10 -61 -26 -51 -30 -126
-56 -163 -56 -12 0 -29 -6 -36 -13 -7 -8 -18 -12 -23 -11 -16 5 -46 -43 -52
-82 -5 -27 -1 -39 16 -55 24 -22 23 -21 15 -43 -10 -25 -21 -19 -29 17 -7 28
-9 29 -12 10 -3 -14 -12 -23 -23 -23 -16 0 -18 -5 -14 -29 5 -21 -2 -45 -26
-90 -35 -65 -40 -69 -63 -47 -11 12 -15 -3 -26 -103 -7 -64 -9 -124 -6 -133
10 -25 77 -57 108 -51 16 3 27 1 27 -5 0 -6 -12 -13 -27 -15 -27 -4 -26 -4 4
-6 17 0 39 -8 47 -17 9 -8 16 -11 16 -5 0 6 20 11 45 11 l46 0 -6 -37 c-4 -21
-18 -61 -31 -89 -13 -28 -24 -60 -24 -70 -1 -54 -76 -164 -112 -164 -12 0 -18
-8 -18 -24 0 -14 -4 -28 -10 -31 -5 -3 -10 3 -10 14 0 34 -242 -156 -288 -227
-20 -32 -47 -65 -58 -74 -12 -10 -25 -34 -29 -54 -3 -20 -18 -54 -32 -75 -22
-33 -25 -46 -19 -86 8 -60 -6 -75 -92 -104 -51 -17 -80 -36 -131 -83 -36 -33
-74 -73 -83 -87 -9 -15 -40 -50 -67 -78 -28 -28 -51 -57 -51 -64 0 -13 -241
-149 -249 -141 -3 3 1 9 9 14 12 8 10 10 -7 10 l-23 0 19 -47 c46 -116 60
-141 81 -148 19 -6 21 -12 17 -40 -6 -36 27 -119 56 -144 21 -17 67 -18 77 -1
4 6 10 11 14 11 25 -4 46 0 42 8 -3 5 2 8 12 7 9 0 16 4 15 10 -1 7 5 11 15
10 9 0 16 5 14 12 -1 8 2 11 8 7 6 -4 27 3 46 14 39 23 44 25 44 13 0 -4 -16
-16 -35 -26 -33 -18 -34 -19 -20 -47 19 -35 19 -49 1 -49 -8 0 -36 -9 -62 -21
-27 -11 -50 -16 -52 -11 -11 35 -28 43 -70 34 -24 -6 -39 -6 -36 -1 3 5 -1 9
-8 9 -29 0 -78 98 -78 156 0 34 -1 35 -22 20 -12 -9 -37 -16 -54 -16 -36 0
-84 -47 -84 -81 0 -11 -16 -92 -35 -179 -19 -87 -35 -165 -35 -173 0 -8 42
-60 93 -115 l94 -101 10 -98 c8 -83 8 -100 -5 -110 -17 -14 -32 -8 -32 12 0 8
6 12 13 9 10 -4 12 9 6 63 -5 37 -8 78 -8 90 -1 29 -58 94 -77 86 -8 -3 -14 0
-14 6 0 6 5 11 12 11 7 0 -13 26 -44 57 -60 62 -87 103 -68 103 6 0 10 10 9
23 -2 12 -1 27 3 32 11 18 39 156 33 165 -3 5 -1 11 4 14 11 7 34 133 26 146
-4 6 1 10 9 10 8 0 23 10 33 23 11 14 31 24 53 25 19 2 38 6 42 10 3 4 -18 65
-48 136 -38 89 -51 132 -43 136 14 9 -15 70 -34 70 -6 0 -48 -11 -92 -25 -44
-14 -95 -25 -113 -25 -18 0 -65 -11 -104 -25 -39 -14 -90 -25 -114 -25 -26 0
-46 -6 -55 -17 -12 -14 -68 -43 -84 -43 -14 0 -2 20 16 25 12 4 37 18 56 31
24 16 50 24 79 24 23 0 63 9 89 20 l46 20 -107 114 c-101 108 -108 114 -128
100 -11 -8 -30 -14 -42 -14 -29 0 -49 -26 -63 -82 -13 -55 -13 -72 0 -40 8 22
29 22 29 1 0 -6 -4 -7 -10 -4 -6 3 -10 -1 -10 -9 0 -22 -16 -20 -40 6 -16 18
-20 35 -20 94 0 63 4 80 30 125 42 70 90 178 90 200 0 11 4 19 9 19 4 0 20 9
34 20 l25 20 -26 63 c-15 34 -30 64 -34 65 -5 2 -8 7 -8 12 0 10 88 32 100 25
9 -5 26 43 34 95 2 14 4 7 5 -17 2 -63 -16 -93 -53 -93 -59 0 -62 -11 -28 -84
17 -36 33 -66 35 -66 2 0 37 15 78 34 41 19 88 37 106 41 22 4 30 11 26 21 -3
8 0 14 6 14 6 0 11 -4 11 -10 0 -19 31 -10 133 41 128 64 147 81 147 131 0 29
-4 38 -17 38 -9 0 -30 12 -45 27 l-28 27 -88 -17 c-118 -23 -150 -16 -197 40
-34 41 -36 46 -21 61 8 9 19 12 23 8 4 -4 1 -11 -7 -16 -12 -7 -8 -16 19 -44
44 -45 82 -52 172 -32 96 22 106 21 141 -14 16 -16 38 -30 49 -30 15 0 19 -7
19 -36 0 -19 -5 -44 -11 -56 -10 -18 -8 -19 12 -13 13 4 29 14 37 21 7 8 21
14 29 14 13 0 12 -5 -7 -25 -13 -14 -31 -25 -39 -25 -29 0 -104 -31 -211 -86
-59 -30 -119 -54 -134 -54 -42 0 -176 -65 -176 -86 0 -12 -3 -14 -13 -6 -19
16 -78 -23 -70 -46 4 -9 35 -48 70 -86 35 -38 61 -71 58 -74 -3 -3 -39 27 -80
68 -41 41 -76 72 -78 69 -3 -2 -14 -25 -25 -51 l-20 -47 98 -100 c54 -56 102
-101 106 -101 4 0 49 39 99 88 49 48 159 152 243 231 123 115 150 146 141 157
-8 9 -8 14 -1 14 6 0 14 -5 17 -10 4 -6 22 3 43 21 48 40 184 97 168 70 -4 -5
0 -12 6 -15 7 -3 1 -4 -13 -1 -14 2 -34 -2 -45 -10 -19 -14 -18 -14 4 -37 17
-17 21 -19 16 -5 -5 13 -2 16 10 11 9 -4 24 0 34 8 9 9 29 18 44 22 19 4 25
11 22 21 -8 20 90 105 104 90 4 -4 2 -10 -5 -12 -7 -2 -24 -13 -38 -25 l-25
-20 29 -40 30 -41 -25 -30 c-14 -17 -40 -42 -58 -56 -57 -46 -96 -84 -96 -93
0 -14 61 22 130 76 156 125 242 187 248 181 4 -4 -6 -18 -21 -31 -30 -25 -31
-61 -2 -50 16 6 19 -3 7 -19 -4 -6 -26 -25 -49 -44 -48 -37 -59 -24 -13 16 33
27 37 41 16 49 -11 4 -254 -178 -346 -259 -21 -19 -107 -77 -114 -77 -17 0 -1
18 39 45 46 31 54 45 33 63 -10 7 -31 -4 -82 -41 -38 -29 -78 -58 -90 -64 -11
-7 -16 -13 -11 -13 6 0 2 -5 -9 -11 -15 -10 -27 -3 -76 46 l-58 57 -146 -137
c-81 -76 -145 -141 -144 -145 2 -4 27 -35 57 -69 65 -72 67 -73 206 -31 55 17
114 33 130 35 19 4 48 24 80 57 52 55 183 140 281 183 72 32 181 121 214 174
23 38 40 52 40 34 0 -5 -13 -27 -29 -51 -39 -59 -140 -138 -229 -179 -41 -18
-93 -46 -115 -62 -23 -15 -52 -31 -64 -35 -11 -4 -26 -13 -33 -21 -9 -11 -7
-12 9 -8 12 3 21 1 21 -5 0 -11 -28 -24 -39 -17 -4 2 -27 -16 -51 -40 -24 -25
-52 -45 -62 -45 -21 0 -21 -2 -7 -33 10 -23 13 -24 38 -11 14 8 47 14 72 14
38 0 55 7 95 37 27 21 55 43 63 51 11 11 16 10 30 -2 22 -20 34 -11 90 66 23
32 50 62 61 68 11 6 18 15 15 21 -4 5 0 9 8 9 7 0 26 14 42 30 16 17 46 35 66
41 28 9 35 16 32 29 -4 13 4 21 31 30 20 6 36 18 36 26 0 8 5 14 11 14 7 0 9
10 5 26 -5 19 1 38 23 72 16 26 33 64 36 84 4 23 16 43 31 53 31 20 49 54 36
67 -7 7 4 25 34 57 34 35 43 51 39 69 -6 23 10 32 18 10 6 -19 141 77 188 134
23 27 35 49 29 53 -5 3 -10 11 -10 17 0 7 6 6 15 -2 21 -18 19 -27 -15 -70
-40 -50 -38 -62 3 -22 18 18 36 29 40 25 8 -7 87 65 87 80 0 4 -5 5 -11 1 -8
-4 -8 0 0 15 7 11 16 21 21 21 6 0 10 9 10 20 0 17 -3 19 -19 10 -23 -12 -51
-13 -51 -2 0 4 14 13 30 19 28 10 43 43 20 43 -5 0 -10 7 -10 15 0 8 7 15 15
15 8 0 15 -7 15 -15 0 -8 5 -15 10 -15 16 0 23 27 16 65 -6 30 -11 35 -34 35
-45 0 -103 26 -115 51 -14 27 -36 29 -95 10 -47 -16 -47 -21 -11 -93 11 -21
15 -38 9 -38 -5 0 -21 23 -35 50 -14 28 -28 50 -31 50 -3 0 -2 -4 1 -10 3 -5
2 -10 -4 -10 -5 0 -11 6 -14 13 -3 9 -14 9 -53 -1 -58 -16 -60 -17 -45 -35 9
-12 6 -14 -16 -14 -16 0 -37 -3 -47 -8 -14 -6 -17 -5 -12 3 9 16 -7 15 -22 0
-9 -9 -12 -9 -12 0 0 9 -8 9 -29 -2 -16 -9 -48 -18 -71 -22 -25 -4 -44 -13
-48 -23 -3 -9 -11 -20 -19 -24 -7 -4 -13 -17 -13 -27 0 -13 -7 -20 -18 -20
-10 0 -24 -6 -30 -12 -10 -10 -15 -10 -22 2 -7 11 -5 19 7 27 9 7 13 16 9 20
-4 5 -16 -2 -26 -14 -30 -37 -61 -38 -134 -2 -36 18 -66 36 -66 41 0 4 -14 8
-31 8 -23 0 -39 -9 -58 -31 -14 -17 -38 -44 -54 -59 l-27 -28 -33 29 c-17 16
-37 27 -44 25 -7 -3 -12 0 -10 7 3 18 -101 27 -115 10 -8 -11 -7 -12 8 -6 17
6 17 5 5 -10 -15 -19 -20 -20 -40 -8 -12 8 -12 13 -3 24 10 12 8 14 -11 10
-13 -3 -39 1 -58 9 -23 9 -56 11 -99 7 -36 -3 -60 -6 -53 -7 26 -4 82 -48 83
-64 0 -10 -5 -18 -11 -18 -6 0 -9 7 -6 14 6 16 -26 32 -43 21 -5 -3 -10 0 -10
8 0 16 -27 30 -41 21 -5 -3 -19 -7 -31 -9 -12 -3 -38 -20 -58 -40 -40 -39 -54
-44 -46 -17 4 12 -1 25 -13 36 -18 17 -21 16 -72 -12 -74 -43 -286 -220 -309
-259 -17 -29 -17 -33 -3 -41 14 -8 14 -14 -1 -59 -14 -41 -38 -70 -146 -177
-72 -70 -128 -132 -124 -137 3 -5 1 -8 -3 -7 -5 2 -36 -21 -68 -50 l-58 -53
20 -21 c19 -18 25 -19 58 -8 21 7 54 27 74 45 20 18 50 39 66 48 17 8 50 34
75 57 36 33 51 41 73 37 22 -3 31 1 37 17 4 12 6 24 3 28 -2 5 4 21 14 38 l17
30 -39 40 c-44 45 -39 54 7 15 25 -21 33 -23 45 -13 14 11 15 8 8 -20 -4 -19
-13 -45 -21 -60 -8 -15 -14 -36 -14 -48 0 -28 -19 -44 -54 -44 -17 0 -40 -9
-53 -21 l-22 -22 76 -81 c41 -45 80 -82 84 -84 5 -2 13 8 19 22 27 68 33 80
36 70 3 -6 -11 -52 -30 -102 -19 -50 -38 -119 -42 -152 -6 -58 -6 -62 12 -57
33 10 81 -43 90 -99 4 -30 3 -45 -3 -41 -6 4 -13 22 -16 40 -6 39 -46 87 -72
87 -14 0 -16 -6 -11 -32 3 -18 6 -71 7 -117 1 -74 -1 -86 -19 -100 -11 -9 -37
-46 -56 -82 -36 -65 -53 -79 -99 -79 -10 0 -33 -11 -51 -25 -30 -23 -41 -25
-142 -25 -60 0 -147 -7 -194 -15 -100 -18 -113 -18 -105 -5 3 5 15 10 25 10
11 0 42 5 69 11 l51 11 -26 34 c-15 19 -35 34 -46 34 -15 0 -18 5 -13 23 4 12
9 30 11 40 3 9 2 17 -2 17 -13 0 -44 -33 -44 -47 0 -7 -20 -23 -44 -35 -45
-21 -45 -21 -105 -3 -50 15 -63 16 -76 5 -14 -12 -13 -16 11 -42 15 -15 34
-28 41 -28 7 0 13 -4 13 -10 0 -19 -20 -10 -60 27 -29 25 -38 39 -30 47 33 33
-34 38 -133 9 -45 -12 -108 -23 -140 -23 l-59 0 -85 77 c-46 42 -93 93 -103
113 -10 20 -35 49 -56 65 l-37 29 -53 -60 -53 -59 59 -60 c33 -33 60 -65 60
-69 0 -16 -33 -46 -50 -46 -9 0 -27 -11 -40 -25 -23 -24 -23 -25 -5 -45 10
-11 24 -20 32 -20 17 0 17 -15 -2 -30 -8 -7 -15 -8 -15 -3 0 6 -42 51 -92 101
-51 50 -89 94 -85 98 4 4 34 -19 67 -51 l60 -59 23 22 c13 12 33 22 45 22 11
0 25 8 31 17 8 15 -2 30 -54 83 l-63 65 69 74 69 75 45 -44 c24 -24 56 -62 71
-84 14 -23 59 -70 99 -105 l74 -65 59 3 c33 1 89 11 124 22 35 10 87 19 115
19 51 0 53 1 67 34 18 43 137 216 149 216 10 0 7 -5 -70 -117 -35 -51 -65
-104 -66 -119 -2 -24 4 -29 49 -44 47 -16 52 -16 80 -1 33 18 91 78 120 127
11 17 47 56 80 87 60 56 62 59 89 159 22 79 35 107 58 127 l29 27 -71 76 c-69
74 -71 77 -51 91 11 7 17 16 14 19 -3 3 1 5 8 5 7 -1 84 70 170 159 121 123
155 163 146 172 -9 9 -9 12 -1 12 7 0 15 -5 18 -11 9 -14 31 17 40 59 9 41
-14 44 -44 5 -12 -14 -24 -23 -28 -19 -3 3 3 16 14 29 12 12 34 43 50 68 28
44 224 219 271 242 18 8 21 16 17 41 -3 17 -2 36 3 43 10 16 52 5 52 -14 0
-11 7 -14 21 -10 13 4 32 -2 50 -15 l29 -22 22 21 c13 11 39 29 58 38 19 10
37 19 38 21 10 8 -35 64 -50 64 -10 0 -18 5 -18 11 0 6 7 9 15 5 13 -4 13 -2
5 14 -5 10 -10 39 -10 63 0 32 -6 49 -21 63 -16 14 -23 15 -26 7 -3 -7 -9 -13
-14 -13 -4 0 -6 7 -2 16 4 10 -1 17 -16 21 -11 3 -21 9 -21 15 0 5 9 4 21 -2
38 -21 32 -2 -29 86 -47 67 -74 95 -121 125 -47 29 -61 35 -61 23 0 -14 -2
-15 -17 -3 -15 13 -15 12 -5 -8 9 -17 9 -22 -3 -27 -8 -3 -15 -16 -15 -29 0
-23 -16 -47 -32 -47 -14 0 -8 38 7 44 8 3 15 10 15 16 0 6 -7 4 -16 -5 -9 -9
-26 -15 -39 -13 -15 2 -45 -18 -98 -66 -43 -38 -77 -73 -77 -78 0 -5 17 -8 37
-6 l38 3 5 -45 c7 -57 13 -66 61 -90 l39 -20 10 42 c11 42 66 116 77 104 4 -3
-5 -19 -20 -34 -29 -30 -47 -71 -47 -108 0 -31 -11 -30 -75 6 -50 29 -53 32
-59 81 l-7 51 -34 -6 c-19 -4 -35 -2 -37 4 -2 6 -70 -57 -152 -139 l-148 -148
55 -59 c30 -32 69 -76 87 -97 23 -27 36 -35 43 -28 6 6 18 11 27 10 10 0 7 -4
-7 -11 -13 -6 -23 -14 -23 -18 0 -4 29 -33 64 -64 55 -48 65 -54 70 -38 4 10
20 28 36 40 17 13 30 29 30 37 0 8 7 15 16 15 11 0 14 6 9 20 -7 23 10 27 19
4 6 -15 -4 -28 -88 -115 l-39 -40 -39 38 c-22 21 -92 95 -156 166 l-115 128
-29 -27 c-15 -15 -31 -25 -34 -21 -4 3 31 43 77 88 46 45 83 85 82 89 -1 4 23
31 53 61 29 29 54 49 54 45 0 -5 9 -1 20 9 11 10 17 21 15 25 -2 4 4 15 15 25
11 10 20 15 20 10 0 -4 48 39 108 96 59 56 106 105 105 109 -1 4 4 7 12 7 8 0
29 10 48 23 31 21 34 28 31 58 -3 19 -7 39 -10 43 -3 5 0 9 6 9 6 0 13 -13 17
-30 5 -28 23 -43 23 -19 0 6 7 8 16 5 9 -3 36 8 65 28 l49 33 -38 36 c-20 19
-50 57 -65 82 l-28 47 -57 -7 c-70 -9 -82 -15 -155 -77 -32 -28 -61 -47 -65
-43 -6 6 117 124 128 123 3 -1 12 2 20 5 8 3 34 10 58 14 24 4 44 10 45 13 3
9 -43 125 -58 144 -14 19 -16 19 -52 2 -21 -10 -70 -20 -110 -23 -40 -3 -70
-10 -67 -14 3 -5 16 -9 30 -9 13 0 24 -5 24 -11 0 -7 -14 -9 -37 -6 -36 4 -42
1 -120 -76 -45 -45 -86 -78 -90 -74 -3 4 10 24 30 45 l37 38 -45 44 c-25 24
-45 52 -45 61 0 12 -21 22 -77 39 -43 13 -84 25 -92 28 -11 4 -11 0 2 -18 19
-27 21 -40 9 -40 -5 0 -14 11 -20 25 -21 46 -57 46 -249 -2 -13 -3 -23 -1 -23
5 0 6 28 17 63 25 l62 15 -72 1 c-48 1 -73 -3 -77 -11 -5 -10 -7 -10 -12 0 -3
6 -11 12 -17 12 -6 0 -20 9 -32 20 l-21 20 -54 -50 c-33 -31 -50 -53 -45 -59
6 -5 44 -21 85 -36 42 -15 88 -39 106 -56 17 -16 34 -26 39 -22 4 5 5 3 2 -3
-4 -7 19 -47 51 -90 32 -45 62 -98 69 -124 13 -53 9 -65 -9 -24 -6 16 -13 31
-15 33 -1 2 -22 -10 -47 -26 -42 -28 -56 -31 -163 -38 -65 -4 -138 -10 -162
-14 l-44 -6 103 -108 c56 -59 100 -110 97 -113 -3 -4 -72 62 -152 144 l-146
151 -138 -142 c-75 -78 -157 -163 -180 -189 -39 -43 -68 -62 -59 -39 2 4 82
90 178 191 96 100 176 185 178 189 1 3 -34 46 -79 94 -44 48 -77 87 -73 87 5
0 46 -37 91 -82 l82 -81 58 44 c32 24 93 79 137 123 l78 78 -68 29 c-57 24
-86 47 -174 133 l-105 104 -130 47 c-178 65 -215 85 -299 163 -66 62 -80 70
-173 100 -56 18 -123 35 -150 38 -26 3 -173 -1 -326 -10 -327 -19 -299 -18
-293 -7 3 4 40 9 82 10 43 1 80 4 83 6 4 2 87 6 186 10 99 4 198 10 220 14 23
4 47 4 55 0 8 -4 69 -24 135 -44 66 -20 128 -44 138 -53 15 -14 17 -14 17 1 0
10 5 17 10 17 6 0 10 -12 10 -26 0 -25 54 -82 73 -76 5 1 6 -2 3 -7 -7 -11 1
-14 97 -36 38 -8 73 -13 78 -9 5 3 9 0 9 -7 0 -6 8 -9 20 -6 11 3 20 1 20 -5
0 -6 9 -8 20 -5 11 3 20 1 20 -4 0 -5 5 -9 12 -9 7 0 35 -22 63 -49 44 -42 67
-54 191 -100 152 -55 163 -57 183 -38 10 10 16 8 28 -10 15 -22 21 -23 165
-23 l149 0 166 -50 c92 -28 173 -48 181 -45 8 3 58 8 111 11 81 5 181 27 181
41 0 2 -16 28 -36 58 -20 29 -34 59 -32 66 2 6 22 -16 43 -49 38 -59 59 -72
80 -54 9 7 37 15 138 37 l28 6 -31 44 c-42 61 -21 57 23 -4 20 -27 44 -52 54
-55 10 -4 35 -29 56 -56 30 -38 57 -59 130 -96 147 -75 217 -96 340 -103 68
-4 109 -2 111 4 3 6 8 4 14 -3 7 -11 40 -13 146 -9 75 2 139 7 143 10 3 3 -16
40 -42 82 l-47 76 -36 -22 -37 -21 -52 58 c-57 63 -61 74 -38 98 13 13 13 15
-4 21 -11 3 -36 17 -57 31 -25 17 -45 24 -60 20 -22 -6 -24 -4 -24 36 1 42 3
44 67 88 74 51 83 55 83 43 0 -4 -30 -28 -65 -52 -53 -36 -65 -49 -65 -71 0
-24 3 -27 25 -22 14 2 25 0 25 -6 0 -6 21 -22 48 -37 39 -22 52 -25 75 -17 38
14 34 -2 -8 -28 -19 -12 -35 -27 -35 -34 0 -6 20 -32 45 -56 l46 -45 30 18
c17 9 34 17 38 17 5 0 32 -38 61 -85 59 -95 56 -93 178 -76 29 4 55 4 58 0 2
-4 23 -10 47 -14 24 -4 54 -18 70 -34 33 -30 71 -100 82 -148 8 -38 15 -41 40
-13 21 23 44 27 24 4 -11 -13 2 -29 88 -115 l101 -100 7 58 c4 32 16 91 27
130 17 67 18 75 4 95 -9 12 -16 26 -16 29 0 21 97 117 147 145 41 23 58 38 58
53 0 29 19 27 23 -3 l3 -26 88 44 c48 25 104 48 125 51 l37 8 -6 71 -7 72 119
115 c66 62 126 125 133 139 19 36 87 110 140 149 53 41 60 49 60 75 0 18 -6
19 -127 12 -86 -5 -125 -4 -118 3 6 5 63 13 128 17 l119 7 21 33 c25 38 77 68
77 45 0 -5 -9 -13 -20 -16 -29 -9 -70 -74 -70 -112 0 -27 -9 -39 -57 -76 -32
-25 -76 -68 -98 -97 -22 -29 -63 -78 -92 -108 l-52 -54 15 -72 c11 -52 12 -85
6 -114 -12 -53 7 -63 42 -21 21 25 24 34 15 51 -9 17 -8 19 9 14 26 -9 66 55
63 102 -1 25 2 32 17 32 10 0 27 9 38 21 16 17 16 22 4 30 -13 8 -13 11 3 23
9 7 17 17 17 21 0 21 55 111 86 140 36 34 36 36 29 90 -4 37 -3 55 4 55 6 0
11 -21 11 -50 0 -27 4 -50 10 -50 11 0 55 46 77 80 8 14 36 43 62 65 26 22 97
84 157 137 95 85 282 220 293 212 1 -1 0 -7 -3 -13z m-3029 -178 c-2 -21 -4
-4 -4 37 0 41 2 58 4 38 2 -21 2 -55 0 -75z m-4232 -28 c16 -13 26 -27 22 -32
-4 -4 -22 7 -40 25 -37 37 -25 42 18 7z m2796 -22 c13 -16 12 -17 -3 -4 -17
13 -22 21 -14 21 2 0 10 -8 17 -17z m1839 -13 c0 -5 -12 -10 -27 -10 -22 0
-25 2 -13 10 20 13 40 13 40 0z m-66 -16 c10 -25 -1 -29 -14 -5 -6 12 -7 21
-1 21 5 0 12 -7 15 -16z m2186 -4 c0 -5 -4 -10 -10 -10 -5 0 -10 5 -10 10 0 6
5 10 10 10 6 0 10 -4 10 -10z m-3356 -110 c38 -61 66 -114 62 -117 -3 -4 -8
-4 -10 -2 -8 9 -136 219 -136 224 0 21 25 -10 84 -105z m1236 90 c-20 -13 -33
-13 -25 0 3 6 14 10 23 10 15 0 15 -2 2 -10z m2086 -56 c-15 -14 -16 -13 -16
9 0 30 11 42 23 22 5 -10 3 -21 -7 -31z m-2091 -6 c10 -18 54 -87 97 -154 43
-66 78 -131 78 -143 0 -13 10 -36 21 -53 14 -20 18 -33 11 -40 -5 -5 -7 -18
-5 -29 4 -14 11 -17 29 -13 37 9 90 -14 128 -57 20 -21 36 -43 36 -49 0 -5 15
-1 33 10 17 11 37 20 42 20 6 0 39 -48 75 -105 57 -92 68 -105 88 -100 12 3
22 1 22 -5 0 -9 -48 -26 -54 -19 -1 2 -31 49 -65 104 -35 55 -65 102 -66 103
-5 5 -94 -48 -101 -59 -3 -6 0 -16 6 -24 7 -8 8 -15 3 -15 -11 0 -48 38 -42
43 2 2 14 10 26 19 l23 15 -36 46 c-38 49 -72 63 -123 52 -26 -5 -30 -3 -40
26 -7 21 -8 36 -2 42 7 7 3 19 -9 35 -11 14 -20 35 -20 47 0 13 -41 87 -91
165 -50 78 -93 148 -96 156 -10 27 13 13 32 -18z m326 -210 c46 -68 99 -140
118 -161 18 -21 31 -40 28 -44 -3 -3 -18 8 -32 25 -17 21 -31 29 -42 25 -12
-5 -15 -2 -10 10 4 11 -20 55 -73 132 -97 142 -93 135 -82 135 5 0 47 -55 93
-122z m-3961 32 c0 -5 -9 -10 -20 -10 -11 0 -20 5 -20 10 0 6 9 10 20 10 11 0
20 -4 20 -10z m50 0 c-19 -13 -30 -13 -30 0 0 6 10 10 23 10 18 0 19 -2 7 -10z
m-150 -10 c0 -5 -9 -10 -21 -10 -11 0 -17 5 -14 10 3 6 13 10 21 10 8 0 14 -4
14 -10z m2209 -27 c35 -42 37 -50 16 -50 -8 0 -12 3 -10 7 2 4 -9 20 -25 35
-17 16 -30 32 -30 37 0 18 20 6 49 -29z m-2384 17 c4 -6 -6 -10 -22 -9 -25 0
-26 1 -8 9 11 5 21 9 22 9 1 1 5 -3 8 -9z m60 0 c-3 -5 -12 -10 -20 -10 -8 0
-17 5 -20 10 -4 6 5 10 20 10 15 0 24 -4 20 -10z m58 3 c-7 -2 -21 -2 -30 0
-10 3 -4 5 12 5 17 0 24 -2 18 -5z m-178 -13 c-3 -5 -12 -10 -20 -10 -8 0 -17
5 -20 10 -4 6 5 10 20 10 15 0 24 -4 20 -10z m-60 -10 c-3 -5 -13 -10 -21 -10
-8 0 -12 5 -9 10 3 6 13 10 21 10 8 0 12 -4 9 -10z m3497 -15 c8 -18 17 -24
30 -19 24 7 23 -8 -1 -30 -19 -18 -20 -17 -35 18 -8 20 -20 36 -26 36 -6 0
-39 -17 -73 -39 -58 -36 -137 -60 -137 -41 0 10 26 20 53 20 12 0 49 18 82 40
70 46 91 49 107 15z m-3557 -5 c-3 -5 -13 -10 -21 -10 -8 0 -12 5 -9 10 3 6
13 10 21 10 8 0 12 -4 9 -10z m-60 -20 c-3 -5 -13 -10 -21 -10 -8 0 -12 5 -9
10 3 6 13 10 21 10 8 0 12 -4 9 -10z m-55 -20 c-19 -13 -30 -13 -30 0 0 6 10
10 23 10 18 0 19 -2 7 -10z m2740 -11 c0 -5 5 -7 10 -4 6 4 10 3 9 -2 -3 -19
2 -34 9 -29 5 3 9 0 9 -7 0 -7 21 -42 47 -80 26 -37 46 -73 44 -79 -3 -7 -20
11 -40 40 -19 28 -38 49 -42 44 -4 -4 -7 -2 -6 3 5 22 -1 36 -12 29 -6 -4 -8
-3 -5 3 4 5 -5 25 -18 43 -27 36 -31 50 -15 50 6 0 10 -5 10 -11z m-2795 -9
c-3 -5 -13 -10 -21 -10 -8 0 -12 5 -9 10 3 6 13 10 21 10 8 0 12 -4 9 -10z
m-56 -31 c-22 -14 -33 -10 -19 6 7 8 17 12 22 9 6 -4 5 -10 -3 -15z m-49 -34
c-7 -8 -17 -15 -22 -15 -6 0 -5 7 2 15 7 8 17 15 22 15 6 0 5 -7 -2 -15z
m5907 9 c-3 -3 -12 -4 -19 -1 -8 3 -5 6 6 6 11 1 17 -2 13 -5z m-2717 -63 c-1
-25 -2 -25 -20 9 -25 45 -25 58 0 35 11 -10 20 -30 20 -44z m-3235 20 c-3 -6
-14 -11 -23 -11 -15 1 -15 2 2 15 21 16 32 13 21 -4z m-45 -30 c0 -5 -7 -12
-16 -15 -24 -9 -28 -7 -14 9 14 17 30 20 30 6z m4570 -15 c0 -3 -4 -8 -10 -11
-5 -3 -10 -1 -10 4 0 6 5 11 10 11 6 0 10 -2 10 -4z m1470 -11 c0 -8 -4 -15
-10 -15 -5 0 -10 7 -10 15 0 8 5 15 10 15 6 0 10 -7 10 -15z m-6100 -20 c-7
-9 -15 -13 -17 -11 -7 7 7 26 19 26 6 0 6 -6 -2 -15z m6245 1 c8 -7 11 -16 8
-20 -11 -11 -21 -6 -26 14 -6 23 -1 25 18 6z m-2954 -39 c-13 -13 -15 1 -4 30
7 17 8 17 11 -1 2 -10 -1 -23 -7 -29z m-3339 1 c-6 -6 -15 -8 -19 -4 -4 4 -1
11 7 16 19 12 27 3 12 -12z m-37 -28 c-3 -5 -13 -10 -21 -10 -8 0 -12 5 -9 10
3 6 13 10 21 10 8 0 12 -4 9 -10z m-55 -9 c0 -5 -9 -11 -20 -14 -22 -6 -28 8
-7 16 19 8 27 8 27 -2z m-70 -21 c-19 -13 -30 -13 -30 0 0 6 10 10 23 10 18 0
19 -2 7 -10z m3590 -49 c0 -5 3 -18 7 -28 6 -16 5 -16 -10 -4 -19 15 -23 41
-7 41 6 0 10 -4 10 -9z m145 -22 c9 -17 14 -36 12 -42 -2 -7 -14 7 -26 31 -12
23 -17 42 -11 42 5 0 17 -14 25 -31z m-175 2 c0 -12 -20 -25 -27 -18 -7 7 6
27 18 27 5 0 9 -4 9 -9z m130 1 c0 -8 -43 -32 -55 -32 -14 0 -2 18 18 28 28
13 37 14 37 4z m1756 -69 c81 -133 104 -157 104 -111 0 21 1 22 18 5 16 -17
16 -19 0 -28 -26 -15 -23 -22 32 -82 27 -30 47 -57 43 -60 -10 -11 -123 120
-166 191 -22 37 -46 74 -53 83 -16 18 -18 29 -4 29 5 0 17 -12 26 -27z m2191
1 c-3 -3 -12 -4 -19 -1 -8 3 -5 6 6 6 11 1 17 -2 13 -5z m-4238 -180 c14 -12
-20 -15 -128 -8 -67 4 -121 11 -121 16 0 9 239 1 249 -8z m531 -149 c0 -5 -16
-28 -34 -50 -22 -25 -31 -44 -25 -49 16 -17 10 -27 -10 -17 -14 8 -24 6 -41
-9 -26 -22 -45 -25 -55 -9 -12 18 -42 -19 -50 -59 l-7 -37 -24 28 -24 29 -19
-24 c-11 -13 -23 -20 -27 -15 -11 11 37 57 60 57 12 1 34 12 50 25 24 19 34
22 49 13 16 -8 28 -1 78 48 33 32 59 61 59 64 0 4 -13 22 -30 40 -44 49 -37
60 10 15 22 -21 40 -44 40 -50z m2044 30 c-4 -8 -7 -15 -9 -15 -2 0 -5 7 -9
15 -3 9 0 15 9 15 9 0 12 -6 9 -15z m-49 -104 c-7 -22 13 -40 24 -22 4 6 29
14 56 17 37 6 46 4 41 -5 -5 -7 -14 -10 -22 -7 -7 3 -16 1 -19 -4 -4 -6 -17
-10 -31 -10 -13 0 -24 -5 -24 -11 0 -9 -37 -4 -49 7 -7 7 10 54 20 54 6 0 8
-9 4 -19z m-5840 -21 c14 -16 15 -20 4 -20 -16 0 -39 19 -39 32 0 14 16 9 35
-12z m4012 -126 c-9 -9 -28 6 -21 18 4 6 10 6 17 -1 6 -6 8 -13 4 -17z m-57
-4 c-8 -5 -18 -6 -24 -3 -5 4 -1 10 10 13 24 9 34 2 14 -10z m-3799 -7 c13
-16 12 -17 -3 -4 -10 7 -18 15 -18 17 0 8 8 3 21 -13z m3754 7 c3 -5 -3 -10
-14 -10 -12 0 -21 5 -21 10 0 6 6 10 14 10 8 0 18 -4 21 -10z m109 -35 c3 -9
0 -15 -9 -15 -8 0 -15 7 -15 15 0 8 4 15 9 15 5 0 11 -7 15 -15z m26 -56 c0
-11 5 -17 10 -14 6 3 10 -1 10 -9 0 -22 -23 -20 -45 4 -17 18 -17 20 -2 14 9
-3 17 -2 17 4 0 6 -6 13 -12 15 -8 3 -6 6 5 6 11 1 17 -6 17 -20z m-612 -108
c-15 -5 -21 7 -13 26 7 17 8 17 15 -2 4 -11 3 -22 -2 -24z m2297 -111 c3 -5 1
-10 -4 -10 -6 0 -11 5 -11 10 0 6 2 10 4 10 3 0 8 -4 11 -10z m-2100 -24 c12
-12 12 -16 0 -26 -20 -17 -2 -40 31 -40 13 0 24 -4 24 -10 0 -5 -10 -10 -23
-10 -23 0 -47 -16 -47 -32 0 -4 13 -5 29 -2 24 5 29 2 34 -18 10 -36 9 -38
-20 -39 -24 -2 -25 -2 -5 -6 14 -3 22 -12 22 -26 0 -20 -1 -20 -16 -5 -25 24
-51 5 -46 -33 3 -18 0 -29 -7 -29 -7 0 -11 6 -10 13 1 6 -5 29 -14 49 -21 46
-21 52 -2 44 10 -4 8 4 -7 25 -19 26 -20 31 -8 39 8 5 11 10 5 10 -5 1 1 6 14
11 16 6 22 15 18 28 -2 10 0 26 5 35 6 12 5 16 -6 16 -8 0 -17 -8 -19 -17 -4
-14 -5 -13 -6 4 -2 31 31 43 54 19z m2855 -5 c0 -11 -26 -22 -34 -14 -12 12
-5 23 14 23 11 0 20 -4 20 -9z m-19 -74 c-18 -18 -38 8 -21 28 12 15 14 15 23
0 6 -11 5 -21 -2 -28z m-873 21 c-6 -18 -28 -21 -28 -4 0 9 7 16 16 16 9 0 14
-5 12 -12z m-178 -28 c0 -5 -4 -10 -10 -10 -5 0 -10 5 -10 10 0 6 5 10 10 10
6 0 10 -4 10 -10z m324 -16 c9 -24 7 -44 -4 -44 -5 0 -10 10 -10 22 0 19 -2
20 -12 7 -13 -15 -93 -69 -103 -69 -17 0 1 19 43 45 26 16 51 35 55 42 11 18
24 16 31 -3z m677 -18 c-16 -34 -48 -62 -59 -52 -3 3 4 16 16 29 12 13 22 29
22 36 0 7 5 9 10 6 6 -3 10 -1 10 4 0 6 4 11 9 11 5 0 1 -15 -8 -34z m-1134
-33 c80 -95 77 -91 62 -109 -8 -9 -12 -27 -11 -40 4 -25 -20 -34 -33 -14 -3 6
-18 7 -33 4 -30 -7 -26 -2 31 40 l38 27 -43 51 c-64 75 -81 98 -70 98 6 0 32
-26 59 -57z m-1445 20 c-6 -10 -25 -31 -43 -48 -36 -33 -30 -19 15 37 30 39
46 45 28 11z m1658 -13 c0 -6 -7 -13 -15 -16 -23 -9 -18 -26 5 -19 11 3 20 2
20 -3 0 -13 -22 -29 -40 -29 -8 -1 -24 -4 -35 -8 -19 -8 -18 -6 3 17 12 13 19
28 15 31 -3 4 2 14 13 22 23 17 34 19 34 5z m110 -82 c0 -5 -7 -8 -14 -8 -26
0 -66 -44 -55 -61 17 -27 9 -32 -16 -9 -26 25 -34 53 -12 44 7 -2 23 7 36 22
22 26 23 28 7 55 -9 15 -16 31 -16 36 0 10 69 -69 70 -79z m161 39 c-8 -8 -11
-7 -11 4 0 20 13 34 18 19 3 -7 -1 -17 -7 -23z m-66 13 c-3 -5 -10 -10 -16
-10 -5 0 -9 5 -9 10 0 6 7 10 16 10 8 0 12 -4 9 -10z m735 3 c-1 -5 -29 -39
-64 -78 l-64 -69 129 -134 c72 -74 127 -137 124 -140 -3 -3 -23 12 -46 34 -32
31 -42 36 -49 24 -5 -8 -12 -11 -16 -7 -4 3 -2 12 4 20 10 12 -28 58 -167 201
-34 35 -37 64 -4 33 17 -15 22 -11 78 53 56 64 76 80 75 63z m-5769 -20 c13
-16 12 -17 -3 -4 -10 7 -18 15 -18 17 0 8 8 3 21 -13z m4994 -2 c-3 -6 -14
-11 -23 -11 -15 1 -15 2 2 15 21 16 32 13 21 -4z m1475 -22 c0 -5 -4 -9 -10
-9 -5 0 -10 7 -10 16 0 8 5 12 10 9 6 -3 10 -10 10 -16z m-1900 1 c0 -17 -34
-27 -110 -33 -41 -2 -76 -10 -78 -16 -5 -16 -22 -14 -22 3 0 20 25 27 104 31
38 2 74 9 80 15 13 13 26 13 26 0z m566 -1 c3 -6 2 -15 -4 -21 -6 -6 -11 -2
-15 11 -5 22 7 29 19 10z m-2046 -14 c-7 -8 -17 -15 -22 -15 -6 0 -5 7 2 15 7
8 17 15 22 15 6 0 5 -7 -2 -15z m210 -4 c0 -5 -7 -11 -15 -15 -9 -3 -15 0 -15
9 0 8 7 15 15 15 8 0 15 -4 15 -9z m-400 -31 c0 -5 -7 -10 -15 -10 -8 0 -15 5
-15 10 0 6 7 10 15 10 8 0 15 -4 15 -10z m1490 -98 c0 -22 -59 -61 -101 -67
-58 -9 -60 -10 -93 -67 -15 -27 -32 -48 -38 -48 -5 0 2 21 16 46 31 56 31 54
5 54 -11 0 -17 5 -14 10 3 6 18 10 32 10 44 0 143 23 143 33 0 6 7 15 16 22
15 11 15 14 0 37 -9 13 -13 28 -9 31 6 7 43 -46 43 -61z m1161 -33 c-22 -28
-38 -55 -35 -61 3 -5 1 -15 -5 -22 -8 -10 -6 -17 7 -30 18 -15 20 -15 37 4 10
11 24 20 30 20 7 0 40 -30 74 -66 l61 -65 -17 -30 c-35 -59 -40 -59 -106 13
-108 116 -128 143 -115 156 9 9 6 17 -10 35 -29 31 -28 43 1 24 23 -15 25 -13
66 35 56 64 66 54 12 -13z m-1061 31 c-6 -11 -15 -20 -21 -20 -6 0 -6 7 1 20
6 11 15 20 21 20 6 0 6 -7 -1 -20z m120 -41 c0 -14 -5 -19 -14 -16 -22 9 -37
-13 -20 -30 8 -8 14 -20 14 -26 0 -8 -3 -8 -11 0 -9 9 -27 1 -71 -34 -33 -25
-62 -42 -65 -39 -3 3 7 16 23 28 16 13 42 35 59 51 23 21 25 26 10 21 -13 -4
-7 7 19 30 45 41 56 44 56 15z m-170 -106 c-1 -5 -7 -19 -14 -32 -11 -21 -14
-21 -20 -6 -3 10 -1 24 5 31 12 15 29 19 29 7z m1138 -171 l118 -118 -39 -58
c-48 -70 -62 -67 -17 4 l33 52 -111 111 c-101 101 -123 127 -107 127 3 0 58
-53 123 -118z m-1408 64 c0 -3 -4 -8 -10 -11 -5 -3 -10 -1 -10 4 0 6 5 11 10
11 6 0 10 -2 10 -4z m-250 -41 c13 -14 20 -28 17 -32 -4 -3 -8 -4 -9 -2 -2 2
-14 16 -27 32 -31 34 -13 36 19 2z m-3090 -129 c0 -2 -8 -10 -17 -17 -16 -13
-17 -12 -4 4 13 16 21 21 21 13z m2688 -25 c3 -8 -1 -12 -9 -9 -7 2 -15 10
-17 17 -3 8 1 12 9 9 7 -2 15 -10 17 -17z m1768 -28 c-7 -7 -26 7 -26 19 0 6
6 6 15 -2 9 -7 13 -15 11 -17z m-1786 -8 c19 -22 7 -41 -13 -21 -18 19 -22 36
-8 36 5 0 14 -7 21 -15z m730 -55 c0 -5 -4 -10 -10 -10 -5 0 -10 5 -10 10 0 6
5 10 10 10 6 0 10 -4 10 -10z m-1530 -139 c0 -12 -20 -25 -27 -18 -7 7 6 27
18 27 5 0 9 -4 9 -9z m1470 -50 c0 -12 -20 -25 -27 -18 -7 7 6 27 18 27 5 0 9
-4 9 -9z m2137 -23 c-3 -8 -6 -5 -6 6 -1 11 2 17 5 13 3 -3 4 -12 1 -19z
m-1532 -78 c-3 -5 -15 -10 -26 -10 -25 0 -52 -14 -99 -50 -19 -15 -47 -30 -62
-34 -14 -3 -33 -9 -42 -12 -10 -4 -16 -1 -16 9 0 9 14 16 40 20 26 3 56 18 83
40 23 19 51 37 62 40 36 9 66 7 60 -3z m-1075 -51 c-6 -11 -18 -19 -26 -17
-23 5 -18 22 8 30 13 3 24 6 26 7 1 1 -2 -8 -8 -20z m-360 -28 c0 -12 -20 -25
-27 -18 -7 7 6 27 18 27 5 0 9 -4 9 -9z m-30 -80 c0 -5 -9 -11 -20 -14 -22 -6
-28 8 -7 16 19 8 27 8 27 -2z m1707 -91 c12 0 14 -7 10 -35 -4 -25 -2 -35 7
-35 13 0 36 -41 36 -65 0 -25 67 -35 123 -19 9 3 17 1 17 -5 0 -5 -24 -13 -54
-16 -42 -6 -59 -3 -80 10 -16 11 -25 24 -22 32 3 8 -5 25 -19 39 -15 15 -25
36 -25 54 0 17 -4 30 -10 30 -5 0 -12 16 -16 35 -3 19 -11 35 -17 35 -6 0 -2
6 9 14 18 14 19 12 22 -30 2 -32 7 -44 19 -44z m-79 40 c-14 -22 -24 -19 -15
5 4 8 11 15 17 15 6 0 6 -7 -2 -20z m-83 -100 c32 -32 63 -56 68 -53 6 3 7 1
3 -5 -7 -11 37 -57 55 -57 17 0 8 -20 -12 -27 -11 -4 -18 -4 -15 0 3 5 -35 49
-85 98 -49 48 -89 92 -89 96 0 18 19 5 75 -52z m1606 33 c13 -16 12 -17 -3 -4
-10 7 -18 15 -18 17 0 8 8 3 21 -13z m-1326 -82 c-3 -6 -14 -11 -23 -11 -15 1
-15 2 2 15 21 16 32 13 21 -4z m-2755 -161 c0 -12 -17 -12 -45 0 -17 7 -15 9
13 9 17 1 32 -3 32 -9z m2050 -37 c0 -7 -4 -13 -10 -13 -5 0 -10 12 -10 28 0
21 2 24 10 12 5 -8 10 -21 10 -27z m730 -72 c0 -12 -150 -105 -157 -97 -8 8
-11 6 77 60 82 51 80 50 80 37z m-725 -176 c61 -54 105 -70 105 -40 0 8 5 15
10 15 6 0 10 -6 10 -13 0 -11 53 -5 243 25 133 21 251 37 262 37 l20 0 -20 -9
c-11 -5 -128 -25 -260 -45 -132 -19 -255 -38 -272 -41 -18 -2 -36 -11 -40 -18
-12 -20 -46 -34 -66 -27 -18 7 -18 8 -1 21 13 11 18 12 21 3 5 -15 33 -5 33
11 0 6 -24 35 -53 64 -45 45 -58 52 -80 47 -15 -4 -30 -18 -37 -36 -14 -34
-36 -38 -45 -9 -9 27 -29 25 -78 -9 -37 -25 -42 -33 -41 -64 1 -20 7 -43 14
-52 23 -28 1 -29 -28 -2 -16 15 -38 27 -50 27 -13 0 -22 6 -22 15 0 18 -3 17
39 5 33 -9 33 -9 28 19 -6 27 -1 32 56 70 43 28 65 37 73 30 8 -7 14 -6 17 3
3 8 8 3 14 -12 10 -24 10 -24 17 -3 6 17 33 35 64 42 2 1 32 -24 67 -54z
m-355 -68 c0 -5 -9 -6 -20 -2 -16 5 -19 3 -14 -12 5 -15 4 -15 -4 -3 -9 12
-14 11 -34 -5 -13 -11 -25 -21 -27 -22 -2 -1 7 -18 19 -37 28 -47 14 -46 -27
2 -39 45 -40 52 -8 52 13 0 28 6 32 14 14 23 67 46 75 33 4 -7 8 -16 8 -20z
m1336 -196 c32 -55 62 -97 67 -94 6 3 7 1 3 -6 -4 -6 0 -23 8 -36 12 -19 13
-25 4 -25 -7 0 -24 20 -37 45 -13 24 -28 42 -34 38 -6 -3 -7 -1 -3 6 4 6 -8
37 -27 69 -50 83 -59 102 -48 102 5 0 35 -45 67 -99z m-5346 66 c0 -2 -12 -14
-27 -28 l-28 -24 24 28 c23 25 31 32 31 24z m4740 -216 c0 -5 3 -18 6 -28 5
-16 4 -16 -10 1 -18 23 -20 36 -6 36 6 0 10 -4 10 -9z m10 -65 c0 -8 -4 -18
-10 -21 -5 -3 -10 3 -10 14 0 12 5 21 10 21 6 0 10 -6 10 -14z m-10 -53 c0 -5
-5 -15 -10 -23 -8 -12 -10 -11 -10 8 0 12 5 22 10 22 6 0 10 -3 10 -7z m-17
-68 c-7 -21 -13 -19 -13 6 0 11 4 18 10 14 5 -3 7 -12 3 -20z m2077 10 c0 -8
-4 -15 -10 -15 -5 0 -10 7 -10 15 0 8 5 15 10 15 6 0 10 -7 10 -15z m20 -50
c7 -8 11 -15 9 -16 -35 -7 -39 -6 -39 12 0 23 13 25 30 4z m-2110 -15 c0 -11
-4 -20 -9 -20 -5 0 -7 9 -4 20 3 11 7 20 9 20 2 0 4 -9 4 -20z m2071 -53 c-8
-8 -11 -7 -11 4 0 20 13 34 18 19 3 -7 -1 -17 -7 -23z m79 18 c7 -8 8 -15 2
-15 -5 0 -15 7 -22 15 -7 8 -8 15 -2 15 5 0 15 -7 22 -15z m-2120 -145 c39
-156 50 -211 39 -204 -5 3 -9 -3 -9 -13 -1 -20 -27 -59 -35 -51 -3 3 3 24 14
47 l18 42 -38 152 c-42 165 -44 176 -30 162 5 -6 24 -66 41 -135z m2159 123
c-8 -9 -9 -14 -3 -10 7 4 16 1 21 -6 13 -17 14 -55 1 -63 -7 -4 -6 -9 3 -15 7
-4 10 -11 6 -15 -3 -4 -13 -1 -21 5 -12 10 -12 16 0 39 11 21 11 28 1 31 -27
8 -38 23 -26 37 6 8 16 14 21 14 6 0 4 -8 -3 -17z m-181 -21 c5 5 18 8 27 6
12 -2 3 -12 -29 -32 -25 -16 -46 -34 -46 -40 0 -6 5 -4 10 4 7 12 11 8 16 -17
4 -18 11 -33 17 -33 6 0 7 -3 4 -6 -8 -9 -38 16 -32 26 3 4 -7 11 -21 14 -29
8 -28 27 4 41 23 10 29 30 12 40 -5 3 -10 12 -10 18 1 7 9 2 19 -10 13 -15 21
-19 29 -11z m-63 -3 c-4 -5 -13 -9 -20 -9 -9 0 -12 -6 -9 -15 7 -17 -11 -21
-21 -5 -7 12 36 51 48 43 4 -2 5 -9 2 -14z m174 -15 c3 -16 1 -17 -13 -5 -19
16 -21 34 -3 29 6 -3 14 -13 16 -24z m-39 -6 c0 -4 -9 -8 -20 -8 -11 0 -20 4
-20 9 0 6 9 9 20 8 11 -1 20 -5 20 -9z m83 -25 c-7 -2 -19 -2 -25 0 -7 3 -2 5
12 5 14 0 19 -2 13 -5z m-926 -69 c-3 -3 -12 -4 -19 -1 -8 3 -5 6 6 6 11 1 17
-2 13 -5z m170 -20 c-3 -3 -12 -4 -19 -1 -8 3 -5 6 6 6 11 1 17 -2 13 -5z"/>
<path d="M5935 4854 c-82 -47 -156 -92 -164 -99 -12 -12 -9 -23 22 -75 26 -43
37 -73 37 -101 0 -22 7 -51 16 -64 l16 -24 34 27 c19 15 34 33 34 40 0 9 7 11
20 7 13 -4 42 10 97 46 42 29 72 54 65 57 -24 8 -11 21 16 17 17 -4 35 1 49
12 l21 18 -53 113 c-30 61 -55 112 -57 112 -2 -1 -70 -39 -153 -86z m-5 -64
c0 -5 -5 -10 -11 -10 -5 0 -7 5 -4 10 3 6 8 10 11 10 2 0 4 -4 4 -10z"/>
<path d="M5880 4181 c0 -5 7 -15 17 -22 15 -13 15 -12 4 9 -12 23 -21 28 -21
13z"/>
<path d="M5933 4147 c-17 -9 -19 -16 -12 -29 12 -22 29 -23 54 -4 16 12 17 16
6 30 -16 19 -19 19 -48 3z"/>
<path d="M2383 4329 c25 -15 230 -90 234 -86 1 2 -8 14 -21 26 -15 14 -60 32
-117 47 -103 26 -123 29 -96 13z"/>
<path d="M6428 4218 c-57 -58 -58 -59 -58 -117 0 -78 9 -121 27 -121 7 0 41
14 74 31 50 25 59 33 49 44 -8 10 -10 30 -6 60 7 43 -10 167 -23 163 -3 -1
-32 -28 -63 -60z"/>
<path d="M2786 4105 c42 -46 82 -86 89 -89 12 -4 93 70 84 78 -2 2 -59 24
-126 49 l-122 45 75 -83z"/>
<path d="M4095 4067 c-33 -12 -62 -26 -64 -30 -3 -10 39 -98 56 -115 15 -15
17 -26 4 -18 -5 4 -7 -3 -4 -14 3 -11 9 -17 14 -15 4 3 48 -16 96 -43 164 -91
140 -87 217 -36 75 50 73 37 21 117 -8 12 -33 33 -57 45 -24 13 -58 44 -77 69
-54 69 -99 78 -206 40z"/>
<path d="M6218 3955 c-64 -33 -86 -49 -82 -60 4 -9 19 -15 35 -15 41 0 119 40
119 61 0 10 5 21 10 24 6 3 10 -1 10 -10 0 -23 36 -2 43 25 9 33 -37 24 -135
-25z"/>
<path d="M3629 3946 c43 -44 46 -45 65 -29 54 45 65 56 61 64 -8 12 -44 -2
-48 -20 -4 -14 -5 -14 -6 2 0 9 -9 17 -18 17 -10 0 -36 3 -58 6 l-40 7 44 -47z"/>
<path d="M2985 3902 c-19 -20 -35 -40 -35 -44 0 -4 -45 -44 -100 -88 -55 -45
-100 -86 -100 -90 0 -5 14 -20 31 -34 35 -30 48 -31 244 -13 120 11 134 14
172 42 l41 31 -65 89 c-82 114 -89 122 -124 134 -26 9 -32 6 -64 -27z"/>
<path d="M4473 3885 c17 -27 25 -31 39 -24 27 15 22 24 -21 41 l-40 16 22 -33z"/>
<path d="M6035 3880 c-27 -16 -71 -52 -96 -81 l-45 -52 43 -40 c23 -21 49 -37
56 -34 9 3 17 29 21 65 5 48 13 66 40 95 19 21 41 37 50 37 19 0 21 11 4 28
-16 16 -16 16 -73 -18z"/>
<path d="M4531 3851 c-21 -16 -22 -20 -11 -42 8 -14 15 -19 18 -11 5 16 17 15
37 -4 12 -13 13 -19 4 -30 -9 -11 -9 -21 0 -40 l11 -25 45 31 c25 17 45 27 45
22 0 -5 -18 -22 -40 -37 l-40 -27 25 -42 c24 -40 40 -49 40 -23 0 16 33 40 45
32 6 -3 10 -1 10 6 0 17 29 -22 30 -39 0 -7 -4 -11 -9 -7 -5 3 -16 -2 -24 -10
-9 -8 -22 -12 -30 -9 -8 3 -18 1 -22 -5 -3 -6 1 -14 9 -17 9 -3 16 -13 16 -22
0 -12 3 -13 11 -5 7 7 24 10 38 8 33 -6 119 52 174 117 l40 48 -27 40 c-14 22
-26 43 -26 48 0 5 -48 12 -107 15 -70 4 -129 13 -167 26 -71 25 -65 25 -95 2z
m239 -177 c0 -8 -4 -14 -10 -14 -5 0 -10 9 -10 21 0 11 5 17 10 14 6 -3 10
-13 10 -21z"/>
<path d="M4122 3841 c7 -11 16 -17 20 -15 4 3 8 -3 8 -13 0 -10 16 -36 36 -58
19 -22 33 -34 29 -28 -4 8 -1 11 9 7 8 -3 18 -14 21 -25 6 -18 8 -17 40 4 19
12 35 25 35 28 0 3 -21 17 -47 31 -165 89 -163 88 -151 69z"/>
<path d="M5306 3838 c-32 -4 -61 -10 -63 -12 -2 -2 15 -35 40 -72 112 -176
197 -327 197 -349 0 -19 5 -25 21 -25 15 0 19 -5 15 -15 -3 -8 -1 -25 4 -37 5
-13 9 -17 9 -10 1 14 41 17 41 2 0 -5 7 -7 15 -4 8 4 15 1 15 -6 0 -7 8 -10
20 -7 11 3 20 1 20 -4 0 -18 2 -24 12 -36 6 -7 17 -13 24 -13 8 0 23 -9 35
-21 43 -43 29 -7 -37 97 -37 58 -74 113 -82 120 -18 19 -8 31 12 14 9 -6 35
-43 58 -81 34 -54 44 -65 50 -52 15 39 6 68 -41 134 l-49 70 -47 -36 c-26 -20
-49 -34 -53 -31 -8 8 27 44 49 51 15 5 17 10 9 26 -9 15 -15 17 -30 9 -24 -13
-33 -13 -25 0 3 6 0 10 -7 10 -8 1 -7 5 5 14 17 13 13 22 -58 134 -41 66 -81
124 -88 129 -7 5 -37 6 -71 1z"/>
<path d="M5410 3832 c0 -15 44 -72 56 -72 7 0 11 -6 9 -12 -6 -16 74 -149 95
-158 8 -4 25 -12 38 -19 12 -6 22 -7 22 -2 0 5 10 11 22 14 18 5 19 8 9 21 -8
9 -22 14 -35 11 -21 -6 -29 8 -76 132 -12 33 -60 85 -60 65 0 -7 -4 -12 -10
-12 -5 0 -10 6 -10 14 0 8 -13 16 -30 18 -16 3 -30 2 -30 0z"/>
<path d="M5140 3818 c-36 -5 -102 -6 -148 -3 l-83 5 16 -27 c40 -68 38 -67 93
-34 49 31 95 40 107 21 4 -6 15 -4 29 6 23 14 25 13 45 -15 27 -38 26 -47 -5
-67 -20 -14 -27 -15 -34 -5 -8 14 -2 52 9 48 7 -2 11 7 11 24 0 7 -11 4 -27
-6 -18 -12 -28 -14 -31 -7 -6 20 -53 13 -99 -13 -23 -14 -43 -28 -43 -31 0 -3
18 -32 41 -65 22 -33 39 -65 37 -71 -2 -6 -23 19 -47 56 -24 36 -46 66 -50 65
-3 0 -25 -23 -48 -51 l-41 -50 34 -48 c19 -26 34 -50 34 -53 0 -3 42 -70 93
-150 50 -80 97 -153 103 -163 10 -17 13 -16 38 9 l27 27 -22 38 c-13 20 -29
47 -37 60 -8 12 -10 22 -4 22 16 0 77 -102 79 -133 0 -15 -2 -25 -7 -22 -12 8
-39 -51 -30 -66 6 -9 22 -4 62 21 29 19 63 42 75 53 19 17 27 18 50 9 15 -6
46 -14 68 -18 22 -4 48 -11 57 -15 11 -6 19 -5 24 3 4 6 2 14 -5 16 -7 2 -8 8
-3 15 5 7 12 31 16 53 4 32 2 43 -9 48 -8 3 -15 12 -15 21 0 8 -9 24 -20 35
-11 11 -20 33 -20 49 0 16 -7 35 -16 42 -14 11 -20 9 -44 -18 -15 -17 -32 -39
-38 -49 -6 -11 -13 -16 -17 -12 -9 9 47 86 68 94 10 3 17 9 15 14 -8 20 -214
350 -218 349 -3 -1 -34 -6 -70 -11z m155 -488 c10 9 15 9 15 1 0 -6 -3 -11 -8
-11 -4 0 -12 -10 -17 -22 -6 -12 -17 -24 -25 -26 -13 -5 -13 -3 -1 12 11 13
11 20 3 28 -17 17 -15 33 3 18 12 -10 18 -10 30 0z"/>
<path d="M4417 3780 c-49 -33 -55 -39 -38 -45 21 -6 61 -50 61 -66 0 -18 -17
-8 -28 16 -11 24 -52 36 -52 15 0 -5 -5 -10 -11 -10 -6 0 -9 9 -6 20 7 26 4
26 -49 -11 -44 -30 -45 -32 -28 -50 18 -20 44 -26 44 -9 0 6 5 10 10 10 6 0
10 -7 10 -15 0 -15 10 -18 83 -30 21 -3 44 -8 52 -11 7 -3 16 3 20 15 3 12 26
35 51 52 24 16 42 35 39 40 -4 5 -11 7 -16 4 -5 -4 -9 1 -9 10 0 24 -50 105
-63 104 -7 0 -38 -18 -70 -39z"/>
<path d="M5911 3646 c-13 -54 -14 -69 -2 -62 5 3 12 -1 15 -9 3 -9 -1 -18 -9
-21 -17 -7 -20 -40 -5 -49 5 -3 21 17 35 45 29 57 27 96 -4 124 -17 16 -19 14
-30 -28z"/>
<path d="M4540 3645 c-19 -14 -29 -25 -22 -25 7 0 12 -4 12 -10 0 -5 -7 -10
-16 -10 -29 0 16 -60 46 -61 14 0 19 -3 13 -6 -17 -6 -16 -23 1 -23 9 0 12 -7
9 -21 -5 -18 -1 -17 41 11 25 17 46 35 46 40 0 5 -14 22 -31 39 -17 17 -28 35
-25 39 6 10 -21 52 -32 52 -4 -1 -23 -12 -42 -25z m30 -70 c11 -13 14 -13 27
2 13 17 14 16 10 -4 -4 -18 -1 -23 16 -23 19 0 20 -2 6 -15 -14 -14 -19 -12
-54 20 -22 19 -34 35 -28 35 6 0 16 -7 23 -15z"/>
<path d="M4183 3625 c-29 -19 -59 -35 -68 -35 -30 0 -14 -19 48 -58 44 -28 74
-56 96 -91 25 -39 39 -51 58 -51 23 0 25 3 19 34 -6 29 -3 34 16 39 28 8 68
-17 68 -41 -1 -14 -4 -13 -19 6 -21 24 -36 28 -46 12 -4 -6 1 -7 12 -4 17 5
17 5 1 -9 -10 -8 -18 -22 -18 -32 0 -9 -9 -19 -19 -22 -19 -5 -19 -7 7 -45
l27 -41 16 38 c19 44 107 104 151 105 36 0 45 18 19 36 -12 8 -21 22 -21 30 0
8 -4 13 -9 9 -5 -3 -13 0 -17 6 -4 8 -3 9 4 5 7 -4 12 -1 12 8 0 9 -8 16 -17
16 -9 0 -29 12 -45 27 -33 32 -47 25 -23 -11 12 -18 15 -34 9 -58 -4 -18 -8
-36 -8 -40 -2 -16 -14 -17 -26 -3 -11 13 -11 22 3 49 16 34 14 43 -19 85 -2 2
-27 8 -55 12 -34 5 -61 17 -78 33 l-27 26 -51 -35z m187 -54 c0 -6 -4 -13 -10
-16 -5 -3 -10 1 -10 9 0 9 5 16 10 16 6 0 10 -4 10 -9z m128 -99 c8 8 15 9 22
2 20 -20 -14 -36 -44 -23 -14 7 -26 16 -26 21 0 5 8 4 18 -1 13 -7 23 -6 30 1z"/>
<path d="M4695 3630 c-3 -5 1 -10 9 -10 8 0 18 5 21 10 3 6 -1 10 -9 10 -8 0
-18 -4 -21 -10z"/>
<path d="M4805 3560 c-27 -16 -58 -27 -67 -24 -24 7 -99 -39 -142 -87 -24 -26
-44 -39 -62 -39 -14 0 -48 -12 -74 -27 -58 -32 -85 -79 -70 -119 6 -14 10 -44
10 -67 0 -28 10 -59 30 -93 l29 -52 83 -5 c46 -3 124 -7 174 -10 97 -5 122
-14 167 -55 25 -24 29 -25 43 -10 14 14 14 18 0 47 -9 17 -24 31 -34 31 -9 0
-24 5 -32 10 -11 7 -6 10 20 10 29 0 39 -6 54 -31 l18 -31 23 28 c20 25 30 29
76 30 45 0 55 4 75 29 l22 28 -31 56 c-17 31 -67 112 -111 181 -45 69 -87 137
-94 151 -8 14 -23 38 -35 52 l-22 27 -50 -30z m-198 -375 c-4 -8 -11 -15 -17
-15 -14 0 -13 27 3 33 16 6 21 1 14 -18z m-83 -44 c-8 -9 -34 10 -34 25 0 16
2 16 19 -2 10 -10 17 -21 15 -23z m96 4 c0 -9 -6 -12 -15 -9 -8 4 -15 10 -15
15 0 5 7 9 15 9 8 0 15 -7 15 -15z m-154 -22 c-10 -10 -19 5 -10 18 6 11 8 11
12 0 2 -7 1 -15 -2 -18z"/>
<path d="M5662 3560 l-22 -19 95 -143 c53 -79 100 -144 106 -146 17 -7 9 18
-11 30 -23 15 -27 33 -6 25 17 -7 24 10 30 70 4 41 2 43 -80 122 -46 45 -84
81 -86 81 -2 -1 -13 -9 -26 -20z"/>
<path d="M4007 3515 c-20 -14 -37 -28 -37 -32 0 -3 6 0 13 6 8 6 16 9 18 8 2
-2 15 7 28 20 31 30 25 29 -22 -2z"/>
<path d="M5735 3335 c-3 -8 -7 -22 -9 -29 -3 -8 5 -33 17 -55 22 -40 43 -46
70 -21 8 7 -59 120 -70 120 -2 0 -6 -7 -8 -15z"/>
<path d="M3739 3293 c-13 -16 -12 -17 4 -4 16 13 21 21 13 21 -2 0 -10 -8 -17
-17z"/>
<path d="M3635 3188 l-50 -53 53 50 c48 46 57 55 49 55 -1 0 -25 -24 -52 -52z"/>
<path d="M5554 3226 c-3 -9 -3 -23 0 -32 3 -8 2 -23 -4 -33 -7 -15 -4 -20 16
-30 14 -6 26 -11 27 -11 1 0 2 11 2 24 0 13 -4 22 -9 18 -5 -3 -7 2 -3 11 3
10 2 17 -3 17 -6 0 -10 4 -10 10 0 5 8 9 18 8 9 -1 30 0 46 0 33 2 27 17 -7
18 -12 0 -32 4 -45 8 -16 5 -24 3 -28 -8z"/>
<path d="M5835 3220 c-8 -13 5 -13 25 0 13 8 13 10 -2 10 -9 0 -20 -4 -23 -10z"/>
<path d="M5705 3199 c10 -15 43 -30 49 -21 3 4 -8 13 -25 19 -16 6 -27 7 -24
2z"/>
<path d="M5628 3193 c-20 -5 -24 -28 -8 -38 6 -4 26 -1 46 5 28 10 33 14 23
26 -11 14 -28 16 -61 7z"/>
<path d="M5336 3182 c-3 -6 -35 -27 -71 -48 -36 -21 -65 -41 -65 -46 0 -14 42
-78 52 -78 5 0 12 9 15 20 4 15 11 18 34 13 22 -4 29 -2 29 11 0 9 6 16 13 16
7 0 26 14 42 30 23 25 35 29 57 25 15 -4 34 -2 43 3 23 12 2 27 -60 39 -27 6
-57 14 -66 17 -10 4 -20 3 -23 -2z m-86 -117 c7 -8 8 -15 2 -15 -5 0 -15 7
-22 15 -7 8 -8 15 -2 15 5 0 15 -7 22 -15z"/>
<path d="M6091 3114 c0 -11 3 -14 6 -6 3 7 2 16 -1 19 -3 4 -6 -2 -5 -13z"/>
<path d="M5409 3093 c-11 -12 -8 -13 17 -7 37 9 39 10 15 17 -11 3 -26 -2 -32
-10z"/>
<path d="M5180 3056 c0 -14 -3 -16 -13 -8 -8 7 -17 7 -29 -2 -16 -11 -12 -15
32 -36 28 -13 53 -21 56 -17 3 3 -6 23 -20 44 -18 26 -26 32 -26 19z"/>
<path d="M4180 2995 c0 -17 5 -25 13 -22 6 2 12 12 12 22 0 10 -6 20 -12 23
-8 2 -13 -6 -13 -23z"/>
<path d="M5839 2753 c-13 -16 -12 -17 4 -4 16 13 21 21 13 21 -2 0 -10 -8 -17
-17z"/>
<path d="M5760 2699 c-57 -42 -88 -69 -60 -54 22 13 120 87 120 91 0 6 -3 5
-60 -37z"/>
<path d="M5162 2526 c2 -14 -12 -27 -54 -49 -32 -16 -58 -33 -58 -39 0 -13 42
-68 52 -68 5 0 33 24 62 54 l54 54 -29 33 c-22 26 -29 29 -27 15z"/>
<path d="M4835 2382 c-55 -49 -112 -102 -127 -118 l-27 -29 50 -58 51 -57 21
31 c12 18 31 37 42 43 11 6 52 35 92 64 40 30 77 51 83 47 12 -7 13 5 2 23 -5
8 -16 10 -28 5 -17 -6 -17 -5 -5 10 12 15 11 20 -4 37 -10 11 -15 23 -11 28 4
4 16 -3 26 -16 13 -15 24 -20 37 -15 15 6 16 4 5 -9 -10 -12 -10 -18 2 -27 10
-9 16 -8 25 3 10 12 9 20 -4 40 -10 14 -24 26 -32 26 -8 0 -12 4 -8 9 3 5 1
12 -4 15 -5 4 -12 -2 -14 -11 -3 -11 -5 -8 -6 10 -1 20 -6 27 -20 27 -11 0
-26 2 -33 5 -8 3 -56 -32 -113 -83z m67 31 c-6 -2 -10 -9 -6 -14 3 -5 1 -9 -5
-9 -5 0 -12 4 -15 9 -6 9 10 19 29 19 6 0 4 -2 -3 -5z m44 -18 c-23 -17 -36
-19 -36 -6 0 11 18 19 40 20 11 0 10 -3 -4 -14z"/>
<path d="M5016 2271 c-12 -13 -14 -21 -6 -26 13 -8 52 24 44 36 -8 14 -19 11
-38 -10z"/>
<path d="M3729 2231 c-25 -14 -63 -41 -83 -58 -20 -18 -48 -36 -61 -39 -14 -3
-25 -9 -25 -13 0 -10 149 -174 173 -189 12 -8 39 -31 59 -50 l37 -35 27 22
c15 11 32 21 39 21 12 0 25 51 25 103 0 24 -4 27 -34 27 -29 0 -33 -3 -29 -20
3 -11 0 -20 -6 -20 -6 0 -11 9 -11 20 0 11 -4 20 -10 20 -5 0 -10 -4 -10 -10
0 -5 -3 -10 -7 -10 -5 0 -8 32 -8 70 0 49 4 70 13 70 6 0 12 6 12 13 0 6 5 4
11 -7 8 -13 8 -20 -1 -26 -6 -4 -12 -22 -13 -40 -2 -31 1 -34 33 -41 44 -10
67 -3 81 23 9 18 4 27 -38 70 -44 45 -51 49 -83 43 l-35 -6 23 18 23 19 -28
25 -28 26 -46 -26z"/>
<path d="M5438 2197 c-16 -6 -28 -15 -28 -20 0 -11 41 2 60 19 17 16 7 16 -32
1z"/>
<path d="M4111 2087 c-24 -43 -31 -66 -31 -108 0 -59 13 -93 24 -64 3 9 6 27
6 39 0 35 28 66 59 66 15 0 35 8 44 18 16 17 14 21 -27 61 l-44 43 -31 -55z"/>
<path d="M3583 1988 c-11 -13 -30 -63 -43 -113 -21 -83 -27 -94 -79 -148 -31
-32 -55 -60 -53 -62 6 -13 1 -24 -11 -19 -18 7 -40 -37 -41 -83 -1 -31 6 -44
46 -85 l47 -48 109 0 c105 0 110 1 148 30 26 19 51 30 74 30 33 0 38 4 65 58
30 58 33 85 13 109 -9 11 -17 10 -45 -7 -20 -11 -52 -20 -76 -20 -37 0 -48 6
-87 45 -37 37 -41 46 -30 60 7 8 9 15 4 15 -5 0 -1 5 9 11 9 5 17 17 17 24 0
8 4 15 9 15 4 0 24 24 43 53 l35 52 -58 53 c-31 28 -61 52 -66 52 -5 0 -19
-10 -30 -22z m16 -185 c-2 -39 -14 -63 -31 -63 -5 0 -4 8 1 19 6 10 8 21 5 23
-5 5 16 58 23 58 2 0 3 -17 2 -37z m-49 -83 c0 -4 -8 -14 -17 -21 -15 -12 -16
-12 -10 4 4 11 1 20 -8 23 -8 4 -15 10 -15 15 0 5 11 3 25 -3 14 -6 25 -14 25
-18z m-70 -44 c0 -9 -13 -7 -29 3 -7 5 -10 14 -7 20 5 8 11 7 22 -3 8 -8 14
-17 14 -20z m30 -12 c0 -8 -4 -12 -10 -9 -5 3 -10 10 -10 16 0 5 5 9 10 9 6 0
10 -7 10 -16z m-76 -60 c4 -10 1 -14 -6 -12 -15 5 -23 28 -10 28 5 0 13 -7 16
-16z m261 6 c-3 -5 -11 -10 -16 -10 -6 0 -7 5 -4 10 3 6 11 10 16 10 6 0 7 -4
4 -10z m155 1 c0 -12 -20 -25 -27 -18 -7 7 6 27 18 27 5 0 9 -4 9 -9z m-136
-27 c9 -3 16 -12 16 -19 0 -8 9 -17 21 -20 14 -5 18 -10 11 -17 -10 -10 -27 3
-61 45 -14 18 -12 21 13 11z m126 -14 c0 -4 -13 -10 -30 -12 -30 -5 -44 16
-17 25 16 5 47 -3 47 -13z m-340 -22 c0 -5 -9 -8 -20 -8 -11 0 -20 2 -20 4 0
2 -3 11 -6 20 -5 13 -2 13 20 3 14 -7 26 -15 26 -19z m-20 -28 c0 -5 -9 -10
-20 -10 -11 0 -20 5 -20 10 0 6 9 10 20 10 11 0 20 -4 20 -10z m52 -22 c-15
-15 -24 -6 -16 16 5 12 10 14 17 7 8 -8 8 -14 -1 -23z m41 -22 c4 -9 -3 -16
-16 -20 -27 -7 -33 0 -17 19 16 19 26 19 33 1z m37 0 c0 -3 -4 -8 -10 -11 -5
-3 -10 -1 -10 4 0 6 5 11 10 11 6 0 10 -2 10 -4z"/>
<path d="M4998 1858 c-47 -34 -67 -42 -115 -46 -62 -5 -106 -32 -96 -59 4 -10
9 -11 16 -4 16 16 47 13 47 -4 0 -8 2 -15 6 -15 3 0 45 21 94 48 60 31 90 53
90 64 0 10 9 23 20 30 11 7 20 16 20 20 0 17 -27 5 -82 -34z"/>
<path d="M3720 1845 l-31 -44 54 -36 c30 -20 59 -47 66 -61 9 -20 16 -24 29
-18 9 4 33 8 52 9 l35 0 -3 75 c-2 41 -5 81 -7 88 -7 19 -36 14 -62 -10 l-23
-22 -33 32 c-18 18 -36 32 -39 32 -4 0 -21 -20 -38 -45z"/>
<path d="M3672 1768 c-16 -16 -15 -28 2 -28 21 0 31 -21 16 -30 -8 -5 -20 0
-31 13 -14 17 -18 18 -19 7 0 -23 72 -90 97 -90 32 0 74 22 68 34 -3 6 -8 19
-11 28 -3 10 -28 31 -55 48 -57 35 -52 33 -67 18z m69 -61 c-6 -8 -8 -17 -5
-20 4 -3 4 -14 0 -23 -6 -16 -8 -15 -22 5 -15 21 -15 23 2 36 24 18 40 19 25
2z m44 -27 c-3 -5 -13 -10 -21 -10 -8 0 -12 5 -9 10 3 6 13 10 21 10 8 0 12
-4 9 -10z"/>
<path d="M3895 1660 c3 -5 1 -10 -4 -10 -6 0 -11 -7 -11 -17 0 -14 2 -14 20 2
24 22 26 35 4 35 -8 0 -12 -4 -9 -10z"/>
<path d="M5132 1348 c-23 -16 -40 -34 -37 -39 10 -15 33 -10 53 11 12 13 25
18 37 14 15 -6 16 -4 5 17 -7 13 -13 25 -14 26 0 0 -20 -12 -44 -29z"/>
<path d="M3790 2970 c0 -5 5 -10 11 -10 5 0 7 5 4 10 -3 6 -8 10 -11 10 -2 0
-4 -4 -4 -10z"/>
<path d="M6421 2586 c-16 -29 -8 -46 52 -104 l44 -44 22 28 22 27 -28 31 c-51
56 -83 86 -91 86 -5 0 -14 -11 -21 -24z"/>
</g>
</svg>
