<?xml version="1.0" standalone="no"?>
<!DOCTYPE svg PUBLIC "-//W3C//DTD SVG 20010904//EN"
 "http://www.w3.org/TR/2001/REC-SVG-20010904/DTD/svg10.dtd">
<svg version="1.0" xmlns="http://www.w3.org/2000/svg"
 width="800.000000pt" height="800.000000pt" viewBox="0 0 800.000000 800.000000"
 preserveAspectRatio="xMidYMid meet">
<metadata>
Created by potrace 1.16, written by Peter Selinger 2001-2019
</metadata>
<g transform="translate(0.000000,800.000000) scale(0.100000,-0.100000)"
fill="#000000" stroke="none">
<path d="M0 4000 l0 -4000 2104 0 2103 0 91 70 c50 39 94 70 99 70 4 0 22 16
38 36 30 36 31 36 77 27 42 -9 49 -8 65 11 10 11 41 87 68 168 27 82 53 148
57 148 13 0 10 -13 -25 -114 -19 -53 -30 -96 -26 -96 4 0 14 -3 22 -6 11 -4
20 13 37 68 18 62 98 274 107 287 2 2 6 2 9 -2 3 -3 -12 -53 -35 -110 -22 -57
-52 -141 -67 -186 l-26 -81 -34 6 c-33 6 -34 5 -40 -34 -4 -25 -17 -50 -33
-66 -24 -23 -30 -24 -71 -15 -42 10 -45 9 -75 -21 -16 -17 -68 -59 -115 -93
l-85 -62 179 -3 c194 -3 196 -2 196 52 0 39 21 106 33 106 5 0 6 -8 2 -17 -6
-16 -25 -117 -25 -135 0 -5 758 -8 1685 -8 l1685 0 0 4000 0 4000 -4000 0
-4000 0 0 -4000z m5224 3645 c9 -14 21 -23 26 -20 6 3 7 0 5 -7 -6 -15 161
-189 178 -185 6 1 11 -5 12 -13 0 -25 106 -211 116 -205 5 4 6 0 3 -8 -6 -16
100 -114 118 -109 5 1 7 -2 4 -7 -4 -5 13 -40 36 -77 41 -65 42 -70 49 -178 4
-61 7 -133 7 -161 0 -49 0 -49 -9 -15 -5 19 -11 85 -14 146 -2 61 -9 122 -14
136 -19 49 -88 144 -142 195 -37 35 -72 83 -108 150 -42 77 -77 122 -160 209
-101 106 -153 174 -133 174 5 0 17 -11 26 -25z m2101 -637 c-12 -134 -33 -210
-82 -305 -26 -51 -51 -93 -55 -93 -13 0 -10 9 37 94 48 88 70 170 80 299 4 42
11 77 16 77 7 0 8 -28 4 -72z m-5491 -425 c4 -9 2 -20 -5 -23 -8 -6 -8 -9 0
-14 7 -5 4 -14 -9 -28 -16 -17 -22 -19 -35 -8 -19 16 -19 34 1 54 8 9 12 20 9
26 -3 5 3 10 13 10 11 0 23 -8 26 -17z m-56 -75 c19 -19 14 -30 -8 -18 -11 6
-20 15 -20 20 0 14 14 12 28 -2z m4206 -120 c30 -52 59 -115 65 -143 5 -28 36
-107 69 -176 57 -121 62 -128 133 -185 134 -108 149 -125 149 -178 0 -26 -5
-46 -11 -46 -6 0 -10 15 -8 33 1 17 1 39 0 48 0 9 -49 54 -107 100 l-106 84
-65 135 c-35 74 -69 159 -74 188 -6 30 -25 77 -43 105 -66 105 -77 127 -67
127 5 0 35 -42 65 -92z m1172 -14 c-3 -9 -6 -24 -6 -35 0 -10 -4 -19 -10 -19
-11 0 -13 30 -4 54 3 9 11 16 16 16 6 0 7 -7 4 -16z m-20 -90 c-3 -9 -6 -18
-6 -20 0 -3 -4 -3 -10 1 -11 7 -2 35 12 35 6 0 7 -7 4 -16z m-16 -61 c0 -19
-3 -24 -10 -17 -6 6 -8 18 -4 27 9 24 14 21 14 -10z m-1606 11 c23 -9 20 -23
-4 -17 -11 3 -20 9 -20 14 0 11 3 11 24 3z m61 -34 c3 -5 -1 -10 -9 -10 -9 0
-16 5 -16 10 0 6 4 10 9 10 6 0 13 -4 16 -10z m1538 -40 c-7 -28 -13 -25 -13
6 0 14 4 23 9 20 5 -3 7 -15 4 -26z m-1673 -41 c0 -11 -4 -17 -10 -14 -5 3
-10 13 -10 21 0 8 5 14 10 14 6 0 10 -9 10 -21z m1663 -14 c-8 -22 -22 -18
-16 5 3 11 9 17 14 15 4 -3 6 -12 2 -20z m-13 -42 c0 -5 -7 -17 -15 -27 -15
-20 -20 -10 -9 18 6 16 24 22 24 9z m-34 -71 c-2 -4 -16 -52 -31 -107 -15 -55
-45 -134 -65 -175 -46 -93 -60 -155 -60 -272 0 -109 -16 -252 -37 -328 -18
-67 -53 -162 -65 -175 -14 -16 -9 12 13 66 34 89 59 237 69 409 9 180 16 213
65 311 18 36 40 91 49 122 9 31 23 82 31 112 9 31 20 53 26 50 5 -4 8 -9 5
-13z m-760 -893 c3 -6 0 -15 -7 -20 -22 -14 -29 -11 -29 11 0 21 24 27 36 9z
m-836 -119 c0 -5 -4 -10 -10 -10 -5 0 -10 5 -10 10 0 6 5 10 10 10 6 0 10 -4
10 -10z m232 -183 c3 -33 2 -53 -2 -45 -11 20 -21 136 -11 118 5 -8 11 -41 13
-73z m-1515 16 c3 -10 13 -26 21 -35 24 -28 8 -48 -39 -48 l-42 0 7 38 c3 20
6 43 6 50 0 19 40 14 47 -5z m-341 -51 c-10 -10 -29 15 -21 28 6 9 10 8 17 -4
6 -10 7 -20 4 -24z m2760 -13 c4 -7 -1 -16 -10 -21 -9 -5 -16 -15 -16 -22 0
-8 -11 -13 -24 -13 -22 0 -24 2 -15 25 5 14 12 29 15 33 8 13 42 11 50 -2z
m-3556 -24 c16 -20 9 -37 -18 -42 -24 -3 -25 0 -16 35 7 26 17 28 34 7z m3230
-20 c5 -14 16 -25 25 -25 8 0 15 -5 15 -10 0 -6 -10 -8 -23 -5 -21 6 -26 -1
-52 -69 -16 -42 -33 -76 -37 -76 -4 0 -8 -8 -8 -18 0 -10 -5 -23 -12 -30 -8
-8 -8 -15 2 -27 11 -14 8 -21 -21 -51 -19 -20 -43 -40 -55 -44 -12 -5 -40 -36
-64 -71 -25 -36 -36 -59 -26 -56 21 8 21 -21 1 -48 -15 -19 -16 -19 -37 2
l-21 22 35 43 c41 51 70 103 61 112 -4 3 -2 6 4 6 6 0 24 21 39 48 15 26 47
73 70 105 45 60 84 150 84 192 0 32 8 32 20 0z m-557 1 c6 -16 -2 -28 -14 -20
-12 7 -11 34 0 34 5 0 11 -6 14 -14z m-383 -41 c0 -20 -42 -125 -50 -125 -9 0
-32 111 -24 119 8 9 24 -22 24 -49 1 -23 2 -22 15 9 8 18 15 42 15 53 0 10 5
16 10 13 6 -3 10 -12 10 -20z m455 1 c45 -16 55 -31 26 -41 -11 -3 -33 -19
-50 -34 -16 -15 -81 -54 -143 -85 -62 -32 -127 -66 -144 -77 -22 -13 -58 -21
-122 -25 l-92 -7 0 -42 c0 -22 -6 -49 -13 -59 -11 -15 -7 -24 36 -67 26 -27
53 -49 60 -49 7 0 46 26 87 56 82 62 162 104 198 104 33 0 18 -17 -22 -24 -31
-6 -80 -35 -201 -121 -27 -19 -56 -35 -63 -35 -7 0 -37 22 -66 50 -38 36 -56
46 -63 39 -8 -8 -14 -5 -22 10 -10 18 -9 21 7 21 23 0 42 39 42 84 0 31 -4 35
-52 54 -33 13 -85 22 -136 25 -45 2 -88 9 -94 15 -14 14 -14 15 105 12 68 -1
100 -7 136 -24 43 -20 57 -21 138 -15 73 6 99 13 139 37 28 16 110 60 184 98
111 57 130 70 116 78 -60 37 -57 45 9 22z m775 -26 c0 -5 -7 -10 -15 -10 -8 0
-15 5 -15 10 0 6 7 10 15 10 8 0 15 -4 15 -10z m-2414 -39 c11 9 14 8 14 -5 0
-20 -27 -33 -41 -19 -5 5 -6 18 -2 29 7 18 8 18 11 1 3 -14 7 -16 18 -6z
m2364 -11 c0 -5 -4 -10 -10 -10 -5 0 -10 5 -10 10 0 6 5 10 10 10 6 0 10 -4
10 -10z m-1830 -60 c0 -6 -7 -25 -16 -41 -8 -17 -14 -32 -12 -34 2 -1 35 -12
73 -25 90 -28 175 -67 175 -80 0 -6 -18 -1 -40 10 -46 23 -60 25 -60 7 0 -7
-14 -25 -32 -41 -40 -35 -27 -46 56 -46 51 0 64 4 88 27 36 34 51 21 15 -14
-20 -20 -40 -28 -82 -33 -49 -5 -75 0 -223 48 -92 29 -171 59 -177 65 -27 32
-69 49 -108 44 -37 -5 -39 -4 -23 11 17 17 45 13 121 -18 27 -11 37 -9 97 19
36 17 74 31 83 31 10 0 23 16 32 40 15 37 33 54 33 30z m-500 -145 c7 -9 10
-18 7 -22 -8 -7 -37 15 -37 28 0 14 16 11 30 -6z m-1440 -56 c0 -10 -4 -19
-10 -19 -5 0 -10 12 -10 26 0 14 4 23 10 19 6 -3 10 -15 10 -26z m1470 11 c0
-5 -4 -10 -10 -10 -5 0 -10 5 -10 10 0 6 5 10 10 10 6 0 10 -4 10 -10z m-1360
-30 c0 -5 -6 -10 -14 -10 -8 0 -18 5 -21 10 -3 6 3 10 14 10 12 0 21 -4 21
-10z m2286 -65 c-23 -44 -35 -56 -64 -66 -21 -6 -41 -15 -46 -19 -4 -5 22 -45
58 -90 45 -56 68 -94 72 -119 6 -36 8 -37 67 -53 88 -23 119 -37 112 -48 -4
-7 -13 -6 -26 1 -11 6 -28 8 -37 4 -15 -5 -13 -9 8 -25 32 -24 24 -31 -18 -13
-28 11 -31 16 -22 33 9 17 7 22 -17 31 -15 6 -65 13 -110 16 -88 6 -105 23
-22 23 30 0 49 4 49 11 0 12 -55 8 -117 -7 -25 -7 -27 -6 -14 9 10 12 30 17
72 17 71 0 71 4 -9 103 -55 68 -60 70 -104 52 -11 -4 -18 -3 -18 4 0 6 7 11
15 11 8 0 15 5 15 10 0 6 -7 10 -16 10 -11 0 -14 6 -9 21 5 15 4 19 -4 15 -6
-4 -11 -16 -11 -27 0 -18 -19 -28 -21 -11 -11 73 -3 91 32 69 22 -15 26 -14
48 2 17 13 35 17 60 14 34 -4 38 -2 64 42 38 64 47 49 13 -20z m-1319 -10 c-3
-30 -2 -55 2 -55 18 0 33 31 27 55 -4 14 -2 25 4 25 12 0 24 -45 17 -65 -6
-13 -87 -59 -94 -51 -2 1 4 19 12 39 8 20 15 49 15 65 0 27 7 42 18 42 3 0 2
-25 -1 -55z m-307 10 c0 -8 -4 -15 -10 -15 -5 0 -10 7 -10 15 0 8 5 15 10 15
6 0 10 -7 10 -15z m775 5 c3 -5 -1 -10 -9 -10 -9 0 -16 5 -16 10 0 6 4 10 9
10 6 0 13 -4 16 -10z m285 1 c0 -5 -10 -28 -22 -50 -14 -27 -25 -38 -32 -31
-6 6 -6 17 1 32 6 13 14 31 17 41 5 17 36 24 36 8z m205 -19 c0 -18 -20 -15
-23 4 -3 10 1 15 10 12 7 -3 13 -10 13 -16z m-2385 -89 c0 -6 3 -18 6 -27 3
-9 2 -16 -3 -16 -6 0 -15 17 -22 38 -7 20 -15 44 -17 52 -3 8 4 4 15 -10 11
-14 21 -30 21 -37z m3190 17 c0 -5 -4 -10 -10 -10 -5 0 -10 5 -10 10 0 6 5 10
10 10 6 0 10 -4 10 -10z m-1720 -24 c0 -14 -4 -28 -10 -31 -6 -4 -10 7 -10 24
0 17 5 31 10 31 6 0 10 -11 10 -24z m430 14 c0 -5 -9 -10 -21 -10 -11 0 -17 5
-14 10 3 6 13 10 21 10 8 0 14 -4 14 -10z m27 -32 c-3 -7 -5 -2 -5 12 0 14 2
19 5 13 2 -7 2 -19 0 -25z m473 2 c0 -5 -8 -10 -17 -10 -15 0 -16 2 -3 10 19
12 20 12 20 0z m-947 -37 c22 -14 36 -27 33 -31 -8 -7 -116 50 -116 61 0 12
39 -2 83 -30z m458 -27 c2 -1 34 -19 70 -39 53 -29 71 -46 88 -79 l20 -42 -30
-53 c-17 -29 -35 -53 -40 -53 -14 0 -10 11 20 59 l27 45 -19 38 c-14 28 -34
46 -69 64 -48 24 -50 24 -63 7 -35 -48 -146 -263 -140 -273 6 -10 78 -50 89
-50 3 0 24 34 47 75 22 41 45 75 51 75 5 0 -12 -39 -38 -87 -65 -120 -70 -129
-102 -203 -43 -96 -47 -128 -19 -150 30 -25 15 -37 -16 -13 -21 15 -24 24 -20
53 5 34 50 150 78 201 14 26 14 27 -37 54 l-51 28 -19 -27 c-33 -44 -32 -45
-84 137 -4 13 -17 17 -60 17 -30 0 -54 -1 -55 -2 0 -2 -13 -90 -29 -196 -16
-107 -30 -196 -33 -198 -7 -8 -107 27 -107 38 0 5 8 8 18 5 9 -3 31 -10 48
-15 l30 -10 28 195 c32 221 33 218 -46 207 -59 -7 -63 9 -6 22 l43 9 21 78
c12 44 27 84 34 90 15 14 7 -26 -21 -118 -10 -32 -16 -62 -13 -64 3 -3 38 -7
78 -9 l73 -4 24 43 c13 23 30 45 38 47 10 3 5 -11 -13 -42 l-27 -46 44 0 c37
0 48 5 61 25 9 14 21 25 26 25 18 0 10 -31 -15 -55 -18 -19 -35 -25 -70 -25
-25 0 -45 -5 -45 -10 0 -31 35 -129 43 -121 5 5 48 80 97 167 74 134 85 160
74 172 -15 14 -19 54 -7 66 5 4 11 -7 14 -24 4 -17 8 -32 10 -34z m-2331 44
c0 -5 7 -10 15 -10 8 0 15 -9 15 -20 0 -11 7 -20 15 -20 8 0 15 -4 15 -10 0
-5 -7 -10 -15 -10 -8 0 -15 -9 -15 -21 0 -12 4 -18 11 -13 6 3 15 1 19 -6 12
-20 30 -2 30 30 0 40 30 55 110 55 l65 0 20 -40 c11 -22 20 -41 20 -42 0 -1
20 3 44 8 24 5 46 7 50 4 9 -10 -22 -25 -51 -25 -17 0 -39 -12 -58 -30 -23
-23 -40 -30 -69 -30 -21 0 -52 -3 -68 -6 -22 -4 -37 0 -60 20 -43 36 -109 36
-151 1 -35 -29 -38 -30 -46 -10 -3 8 -2 14 2 12 4 -1 19 7 33 18 20 16 24 25
18 42 -7 19 -4 21 24 19 28 -1 32 2 32 24 1 45 -39 55 -57 15 -16 -35 -29 -31
-17 5 7 19 18 30 30 30 10 0 19 5 19 10 0 6 5 10 10 10 6 0 10 -4 10 -10z
m2360 -25 c-7 -8 -17 -12 -22 -9 -6 4 -5 10 3 15 22 14 33 10 19 -6z m1497
-134 c42 -43 42 -43 27 -73 -15 -28 -14 -31 5 -52 12 -12 21 -29 21 -38 0 -20
-122 -221 -160 -265 -16 -18 -40 -51 -52 -73 -22 -37 -38 -51 -38 -31 0 5 23
43 50 85 28 42 50 78 50 80 0 6 -151 98 -154 95 -24 -28 -54 -92 -50 -104 4
-10 0 -15 -12 -15 -11 -1 1 -11 29 -26 26 -13 47 -29 47 -35 0 -14 -28 -80
-41 -95 -11 -13 -39 -9 -39 6 0 4 8 10 18 12 10 3 23 21 29 40 l10 36 -49 23
c-61 29 -80 49 -47 50 13 0 18 3 12 6 -7 2 -13 9 -13 15 0 6 7 8 14 5 10 -4
25 11 46 45 29 46 30 52 15 68 -8 9 -31 26 -50 36 -19 10 -35 24 -35 31 0 16
-3 16 -35 1 -22 -10 -25 -17 -25 -60 0 -47 -1 -48 -25 -42 -30 7 -31 -2 -5
-36 17 -21 21 -23 29 -10 16 24 20 7 9 -43 -5 -26 -14 -44 -19 -41 -6 3 -7 14
-4 25 4 10 3 19 -2 19 -5 0 -22 25 -38 55 -31 57 -51 71 -85 60 -26 -8 -25 -1
3 28 12 13 30 38 39 55 15 29 20 31 43 22 43 -17 47 -13 43 42 -2 35 1 53 10
55 8 3 12 -6 12 -26 0 -25 4 -31 21 -31 13 0 25 -11 34 -33 17 -40 100 -103
118 -89 7 6 20 25 31 44 l18 33 -25 -30 c-43 -51 -40 -21 4 44 24 33 41 62 38
64 -2 2 -30 23 -63 47 -32 25 -53 46 -48 48 9 3 119 -67 156 -99 5 -5 -2 -25
-17 -48 -25 -37 -25 -41 -9 -50 9 -5 14 -13 10 -17 -4 -4 -14 -2 -22 5 -11 10
-18 6 -34 -17 -12 -16 -22 -34 -24 -40 -2 -6 30 -34 71 -61 l74 -49 55 85 55
85 -42 36 c-31 27 -41 42 -36 55 10 24 24 21 31 -7 3 -14 16 -33 27 -43 22
-18 22 -18 5 3 -22 25 -22 38 -2 68 14 22 14 25 -4 38 -29 20 -112 124 -112
140 1 7 15 -5 33 -27 17 -22 50 -60 74 -84z m-1178 73 c6 -14 11 -29 11 -34 0
-17 -50 -11 -57 6 -3 10 -8 12 -12 5 -9 -14 -51 -2 -51 15 0 8 9 14 19 14 11
0 22 3 25 8 2 4 15 8 29 10 17 1 27 -6 36 -24z m-2224 6 c-3 -5 -13 -10 -21
-10 -8 0 -12 5 -9 10 3 6 13 10 21 10 8 0 12 -4 9 -10z m2759 -249 c21 -8 30
-51 10 -51 -6 0 -19 11 -28 25 -24 37 -21 41 18 26z m-364 -21 c0 -11 -7 -20
-15 -20 -15 0 -21 21 -8 33 12 13 23 7 23 -13z m915 -30 c3 -6 0 -10 -7 -10
-15 0 -38 19 -38 32 0 10 36 -8 45 -22z m190 -114 c-5 -40 -3 -71 4 -84 8 -16
8 -23 -1 -29 -7 -4 -23 -30 -36 -56 -13 -28 -28 -47 -35 -44 -7 2 -37 10 -67
18 -30 7 -56 13 -56 13 -1 1 -5 11 -8 24 -6 18 -3 22 13 22 12 0 29 -8 39 -18
11 -11 33 -24 51 -30 29 -10 32 -9 45 16 7 15 19 73 26 130 7 56 17 102 22
102 6 0 7 -25 3 -64z m-271 -12 c3 -8 10 -12 16 -9 19 12 15 -43 -5 -64 -19
-20 -58 -5 -50 20 4 11 2 19 -4 19 -15 0 -14 23 1 38 17 17 35 15 42 -4z
m-504 -8 c0 -15 -27 -25 -47 -19 -20 7 -4 29 22 31 16 1 25 -3 25 -12z m-1615
-37 c-3 -4 -12 -6 -20 -3 -8 4 -13 10 -10 15 3 4 12 6 20 3 8 -4 13 -10 10
-15z m1565 -19 c0 -11 -4 -20 -10 -20 -5 0 -10 2 -10 4 0 2 -3 11 -6 20 -4 11
-1 16 10 16 9 0 16 -8 16 -20z m-82 -18 c3 -9 -2 -13 -14 -10 -9 1 -19 9 -22
16 -3 9 2 13 14 10 9 -1 19 -9 22 -16z m-1292 -14 c4 -5 -6 -8 -22 -6 -15 2
-29 8 -31 14 -5 14 44 6 53 -8z m1034 6 c0 -22 -33 -114 -41 -114 -6 0 -8 8
-5 18 2 9 10 36 17 60 7 23 16 42 21 42 4 0 8 -3 8 -6z m693 -45 c-15 -28 -56
-83 -91 -121 -34 -38 -60 -73 -58 -77 3 -5 19 -14 36 -21 16 -7 30 -17 30 -22
0 -5 -3 -8 -7 -6 -5 2 -25 10 -45 18 -26 9 -38 20 -38 33 0 15 -5 18 -24 13
-35 -9 -42 10 -9 22 l28 10 -27 1 c-32 1 -35 12 -12 35 19 20 33 20 40 2 18
-47 86 -6 135 82 39 69 49 82 61 82 5 0 -3 -23 -19 -51z m-1183 -9 c-20 -12
-33 -1 -19 16 9 11 15 12 23 4 8 -8 7 -13 -4 -20z m1680 -10 c0 -5 -4 -10 -9
-10 -6 0 -13 5 -16 10 -3 6 1 10 9 10 9 0 16 -4 16 -10z m-291 -74 c19 -7 30
-15 25 -19 -13 -8 -84 13 -84 25 0 11 18 9 59 -6z m191 -5 c0 -9 -47 -21 -83
-21 -30 0 -8 18 28 23 53 7 55 7 55 -2z m-1225 -31 c3 -5 -1 -10 -9 -10 -9 0
-16 5 -16 10 0 6 4 10 9 10 6 0 13 -4 16 -10z m-61 -9 c3 -4 3 -11 0 -14 -8
-8 -34 3 -34 14 0 11 27 12 34 0z m290 -24 c-3 -9 -10 -17 -15 -17 -11 0 -12
34 -2 44 11 11 24 -9 17 -27z m946 25 c0 -13 -12 -22 -22 -16 -10 6 -1 24 13
24 5 0 9 -4 9 -8z m-122 -200 c4 -23 -4 -27 -27 -13 -17 11 -7 45 12 39 6 -3
13 -14 15 -26z m-1398 4 c0 -8 -6 -21 -13 -28 -7 -7 -30 -55 -52 -105 l-39
-93 -67 -21 c-36 -11 -79 -32 -94 -45 -33 -28 -30 -28 -44 -10 -10 12 -2 19
45 40 31 14 74 31 96 38 47 14 57 27 100 132 32 80 46 105 61 106 4 0 7 -6 7
-14z m300 -6 c0 -5 -2 -10 -4 -10 -3 0 -8 5 -11 10 -3 6 -1 10 4 10 6 0 11 -4
11 -10z m-4 -59 c-4 -6 -11 -11 -15 -11 -11 0 -21 37 -13 45 9 9 35 -22 28
-34z m-488 -104 c12 -11 22 -27 22 -36 0 -10 -8 -7 -27 11 -16 15 -40 30 -55
33 -16 4 -25 11 -22 16 8 13 56 -1 82 -24z m754 -31 c-2 -30 0 -68 6 -84 8
-22 3 -60 -25 -178 -37 -162 -87 -410 -98 -488 -5 -32 -17 -59 -36 -81 l-28
-32 87 -17 c48 -9 110 -26 137 -37 28 -12 64 -24 80 -28 17 -5 48 -20 69 -34
21 -15 42 -27 47 -27 4 0 11 15 15 34 3 19 22 53 41 75 31 36 39 41 78 41 40
0 51 6 120 66 72 62 75 67 75 108 0 27 -6 48 -15 56 -8 7 -20 31 -27 54 -7 25
-28 56 -54 81 -23 22 -46 52 -49 68 -9 35 2 77 20 77 8 0 29 16 46 35 18 19
39 35 48 35 9 0 23 5 31 10 12 7 11 13 -10 35 -19 20 -30 24 -51 20 -17 -4
-40 0 -58 9 -38 20 -80 20 -86 1 -3 -8 -7 -22 -10 -31 -10 -30 -16 -7 -10 30
7 33 10 36 42 36 19 0 48 -7 65 -16 20 -10 42 -14 63 -10 29 6 37 2 64 -31 28
-34 29 -38 14 -55 -9 -10 -26 -18 -38 -18 -12 0 -32 -12 -46 -26 -13 -14 -34
-30 -46 -35 -41 -15 -19 -99 34 -132 28 -17 43 -40 43 -64 0 -14 12 -42 26
-60 22 -30 25 -41 20 -76 -5 -27 -18 -53 -38 -74 -18 -18 -27 -33 -20 -33 7 0
12 -5 12 -11 0 -6 -9 -9 -19 -6 -12 3 -27 -3 -38 -15 -28 -31 -68 -48 -112
-48 -34 0 -44 -5 -66 -35 -15 -19 -29 -51 -32 -72 l-4 -38 86 -45 c48 -25 91
-46 95 -48 34 -13 261 475 311 665 17 68 35 120 39 118 10 -6 -52 -251 -74
-293 -8 -16 -47 -100 -86 -188 -39 -87 -109 -223 -156 -301 -47 -78 -101 -182
-120 -230 -19 -48 -60 -144 -89 -213 -30 -69 -70 -170 -90 -224 -19 -55 -38
-102 -42 -105 -4 -3 -9 -13 -11 -21 -5 -26 -124 -325 -133 -334 -15 -16 -10
27 6 54 22 38 18 46 -30 64 -25 10 -45 22 -45 28 0 6 8 7 18 3 44 -19 46 -17
86 75 21 49 42 87 47 84 5 -3 9 -1 9 4 0 6 -17 17 -37 25 -21 9 -55 22 -75 31
l-36 16 -33 -90 c-17 -50 -36 -90 -40 -90 -14 0 -11 15 22 97 17 42 28 85 26
95 -3 11 0 18 8 18 8 0 16 8 20 19 3 10 19 21 35 25 17 3 30 12 30 20 0 14
-20 22 -105 42 -60 14 -83 31 -78 58 3 14 10 23 15 20 5 -3 7 -12 4 -20 -3 -8
1 -14 9 -14 8 0 15 -4 15 -8 0 -5 35 -16 78 -26 42 -10 80 -20 84 -22 4 -3 2
-18 -4 -35 -7 -21 -19 -32 -39 -36 -54 -10 -42 -31 38 -68 42 -19 78 -33 81
-30 3 3 5 27 5 55 -1 27 3 50 8 50 5 0 9 -6 9 -14 0 -9 7 -12 18 -9 12 3 25
24 36 61 10 31 43 116 73 187 31 72 69 168 84 213 16 46 46 115 68 153 l40 68
-86 46 c-66 35 -88 43 -95 33 -4 -7 -8 -16 -8 -20 0 -5 -5 -8 -11 -8 -6 0 -8
11 -5 28 6 27 3 29 -106 80 -62 29 -118 52 -123 52 -6 0 -20 -36 -31 -80 -11
-44 -17 -80 -14 -80 4 0 5 -13 2 -29 -4 -26 -1 -29 34 -37 21 -5 39 -15 41
-21 3 -8 -7 -8 -38 -1 -30 8 -47 8 -60 0 -15 -9 -26 -8 -54 5 -59 28 -42 40
23 16 6 -3 12 2 12 10 0 16 -40 27 -95 27 -19 0 -35 6 -38 13 -2 7 -31 -12
-74 -50 -39 -34 -73 -60 -76 -56 -4 3 -3 11 1 17 3 6 7 18 7 26 0 8 9 15 20
15 15 0 20 7 20 27 1 15 4 30 7 33 11 11 138 18 138 7 0 -9 88 -28 96 -20 2 2
14 45 28 95 l24 91 -26 5 c-17 4 -31 0 -38 -9 -16 -20 -26 -18 -19 5 5 15 -3
20 -51 29 -31 7 -60 10 -64 7 -4 -3 -13 2 -19 9 -12 15 1 32 17 22 4 -2 22 8
39 22 29 25 34 36 48 124 8 54 15 104 15 112 0 10 -22 18 -71 27 -77 14 -72 6
-53 84 5 20 1 27 -20 35 -24 9 -25 12 -14 37 23 56 41 66 115 66 37 0 74 -2
82 -4 10 -3 20 23 37 96 25 106 30 170 15 180 -14 8 3 125 18 125 4 0 6 -24 3
-54z m-460 -30 c1 -26 -4 -52 -10 -58 -16 -16 -27 -2 -12 16 8 10 10 29 5 56
-6 34 -10 40 -26 35 -10 -4 -19 -2 -19 4 0 15 33 19 48 6 8 -7 14 -33 14 -59z
m1385 -86 c-11 -27 -22 -48 -24 -47 -6 6 31 106 38 101 4 -2 -2 -26 -14 -54z
m-1127 -81 c0 -5 -9 -9 -20 -9 -19 0 -26 11 -14 23 8 8 34 -3 34 -14z m1091
-6 c-12 -20 -14 -14 -5 12 4 9 9 14 11 11 3 -2 0 -13 -6 -23z m-22 -62 c-6
-18 -13 -30 -15 -28 -2 2 1 18 7 36 6 18 13 30 15 28 2 -2 -1 -18 -7 -36z
m-1539 -177 c0 -8 -52 -54 -60 -54 -15 0 -12 13 12 41 12 15 28 25 35 22 7 -3
13 -7 13 -9z m8 -46 c-6 -18 -28 -21 -28 -4 0 9 7 16 16 16 9 0 14 -5 12 -12z
m32 -49 c0 -15 -21 -20 -35 -9 -11 9 -12 17 -3 33 10 20 11 20 24 2 8 -10 14
-22 14 -26z m-122 -16 c2 -8 -6 -13 -22 -13 -17 0 -26 5 -26 16 0 19 41 16 48
-3z m-1026 -195 c-7 -7 -12 -8 -12 -2 0 14 12 26 19 19 2 -3 -1 -11 -7 -17z
m1464 -65 c-7 -7 -26 7 -26 19 0 6 6 6 15 -2 9 -7 13 -15 11 -17z m894 1 c0
-17 -22 -14 -28 4 -2 7 3 12 12 12 9 0 16 -7 16 -16z m-952 -72 c2 -7 -3 -12
-12 -12 -9 0 -16 7 -16 16 0 17 22 14 28 -4z m-62 -121 c-10 -16 -36 -13 -36
3 0 17 21 27 34 16 4 -5 5 -13 2 -19z m-3079 13 c-3 -3 -12 -4 -19 -1 -8 3 -5
6 6 6 11 1 17 -2 13 -5z m3153 -43 c7 -14 7 -22 -1 -27 -14 -8 -43 21 -35 35
11 17 24 13 36 -8z m92 -26 c0 -5 -5 -11 -11 -13 -6 -2 -11 4 -11 13 0 9 5 15
11 13 6 -2 11 -8 11 -13z m-52 -50 c0 -8 -4 -15 -9 -15 -13 0 -22 16 -14 24
11 11 23 6 23 -9z m-25 -16 c10 -15 -1 -23 -20 -15 -9 3 -13 10 -10 16 8 13
22 13 30 -1z m120 -9 c-3 -5 -11 -10 -16 -10 -6 0 -7 5 -4 10 3 6 11 10 16 10
6 0 7 -4 4 -10z m-845 -35 c0 -8 -4 -15 -9 -15 -13 0 -22 16 -14 24 11 11 23
6 23 -9z m820 -6 c0 -6 -4 -7 -10 -4 -5 3 -10 11 -10 16 0 6 5 7 10 4 6 -3 10
-11 10 -16z m480 -219 c0 -11 -4 -20 -10 -20 -5 0 -10 9 -10 20 0 11 5 20 10
20 6 0 10 -9 10 -20z m-198 -95 c6 -14 17 -25 24 -25 17 0 25 -27 9 -34 -7 -2
-19 2 -26 10 -10 12 -13 12 -24 -2 -14 -20 -20 -12 -29 39 -6 33 -5 37 14 37
12 0 25 -10 32 -25z m168 -15 c0 -5 -2 -10 -4 -10 -3 0 -8 5 -11 10 -3 6 -1
10 4 10 6 0 11 -4 11 -10z m-414 -111 c-3 -17 -6 -38 -6 -45 0 -29 -18 -13
-24 21 -8 40 -2 55 21 55 12 0 14 -7 9 -31z m388 -50 c-3 -5 -10 -7 -15 -3 -5
3 -7 10 -3 15 3 5 10 7 15 3 5 -3 7 -10 3 -15z m-1204 -26 c-1 -18 -18 -35
-24 -24 -4 6 -4 16 -1 21 7 12 25 13 25 3z m1182 -48 c-2 -14 -8 -28 -13 -31
-10 -6 -12 39 -2 49 13 14 20 6 15 -18z m-1332 -34 c0 -12 -20 -25 -27 -18 -7
7 6 27 18 27 5 0 9 -4 9 -9z m40 -11 c0 -5 -5 -10 -11 -10 -5 0 -7 5 -4 10 3
6 8 10 11 10 2 0 4 -4 4 -10z m567 -56 c-3 -3 -12 -4 -19 -1 -8 3 -5 6 6 6 11
1 17 -2 13 -5z m136 -1 c-7 -2 -21 -2 -30 0 -10 3 -4 5 12 5 17 0 24 -2 18 -5z
m-206 -9 c-3 -3 -12 -4 -19 -1 -8 3 -5 6 6 6 11 1 17 -2 13 -5z m70 -10 c-3
-3 -12 -4 -19 -1 -8 3 -5 6 6 6 11 1 17 -2 13 -5z m70 -149 c18 -5 22 -3 17 9
-4 10 -1 16 9 16 8 0 28 3 45 6 28 6 33 3 48 -29 16 -34 16 -37 0 -61 -17 -27
-40 -34 -51 -16 -12 20 -26 10 -15 -10 8 -16 6 -30 -10 -63 -19 -40 -20 -41
-15 -9 2 17 0 32 -5 32 -5 0 -7 6 -4 13 2 7 -5 23 -17 36 -18 19 -28 22 -58
16 -28 -5 -33 -4 -24 5 6 7 29 11 52 8 33 -3 41 0 39 12 -2 8 -12 16 -23 18
-23 4 -45 29 -45 51 0 12 4 11 18 -5 9 -12 27 -25 39 -29z m-87 -185 c0 -6
-11 -23 -25 -38 -16 -17 -21 -28 -13 -33 8 -5 6 -12 -6 -24 -22 -22 -30 -14
-21 24 10 47 65 107 65 71z m540 -53 c0 -14 -64 -129 -67 -121 -5 16 44 124
56 124 6 0 11 -1 11 -3z m-592 -256 c-24 -25 -58 -62 -75 -82 -20 -25 -35 -34
-44 -29 -9 6 9 30 66 89 43 44 82 78 87 75 6 -4 -10 -27 -34 -53z"/>
<path d="M4555 4423 c-16 -9 -46 -22 -65 -29 l-34 -12 42 -13 c34 -10 47 -10
66 0 20 11 46 49 46 66 0 10 -26 4 -55 -12z"/>
<path d="M4626 4415 c-3 -13 -17 -35 -31 -47 l-25 -23 75 -24 75 -23 27 33
c36 41 50 64 34 54 -7 -4 -20 0 -29 8 -13 11 -103 47 -118 47 -1 0 -5 -11 -8
-25z"/>
<path d="M5000 4190 c-11 -8 -5 -9 20 -5 19 3 36 8 39 11 9 9 -45 3 -59 -6z"/>
<path d="M2086 4051 c-2 -3 -9 -24 -15 -45 -15 -56 -3 -66 78 -66 58 0 71 3
90 24 21 23 21 24 5 59 l-17 35 -69 0 c-38 -1 -70 -4 -72 -7z"/>
<path d="M5645 3823 l-17 -28 23 22 c12 12 20 25 17 28 -3 3 -13 -7 -23 -22z"/>
<path d="M5410 3800 c0 -13 5 -18 15 -14 8 4 15 12 15 20 0 8 -7 14 -15 14 -8
0 -15 -9 -15 -20z"/>
<path d="M5301 3744 c-9 -20 -6 -25 21 -38 45 -23 58 -20 58 12 0 22 -6 29
-34 38 -31 10 -35 8 -45 -12z"/>
<path d="M4648 2563 c-25 -4 -58 -35 -58 -55 0 -13 28 -9 33 5 2 8 28 12 77
12 83 1 104 17 43 34 -38 11 -46 11 -95 4z"/>
<path d="M4642 2501 c-5 -3 -11 -20 -14 -37 -4 -32 14 -54 46 -54 19 0 22 6
30 56 7 40 7 41 -23 41 -17 0 -34 -3 -39 -6z"/>
<path d="M4724 2459 c-5 -34 -13 -54 -27 -64 -22 -15 -23 -14 27 -29 13 -4 21
18 40 116 2 9 -4 18 -15 21 -16 4 -20 -3 -25 -44z"/>
<path d="M4615 2400 c-3 -5 -1 -10 4 -10 6 0 11 5 11 10 0 6 -2 10 -4 10 -3 0
-8 -4 -11 -10z"/>
<path d="M4910 943 c-50 -107 -59 -133 -47 -133 10 0 28 37 75 152 2 4 0 8 -6
8 -5 0 -15 -12 -22 -27z"/>
<path d="M4840 1431 c0 -5 5 -13 10 -16 6 -3 10 -2 10 4 0 5 -4 13 -10 16 -5
3 -10 2 -10 -4z"/>
<path d="M4380 911 c-15 -29 -13 -35 17 -49 23 -10 30 -10 42 3 12 11 12 19 3
40 -14 30 -47 33 -62 6z"/>
</g>
</svg>
