<?xml version="1.0" standalone="no"?>
<!DOCTYPE svg PUBLIC "-//W3C//DTD SVG 20010904//EN"
 "http://www.w3.org/TR/2001/REC-SVG-20010904/DTD/svg10.dtd">
<svg version="1.0" xmlns="http://www.w3.org/2000/svg"
 width="800.000000pt" height="800.000000pt" viewBox="0 0 800.000000 800.000000"
 preserveAspectRatio="xMidYMid meet">
<metadata>
Created by potrace 1.16, written by Peter Selinger 2001-2019
</metadata>
<g transform="translate(0.000000,800.000000) scale(0.100000,-0.100000)"
fill="#000000" stroke="none">
<path d="M0 6179 c0 -1376 3 -1818 12 -1813 8 5 9 0 3 -17 -4 -13 -10 -53 -12
-89 l-4 -66 158 -51 c87 -28 168 -54 180 -58 13 -3 23 -10 23 -15 0 -5 -6 -7
-12 -5 -49 17 -333 105 -339 105 -5 0 -9 -938 -9 -2085 l0 -2085 4000 0 4000
0 0 1596 0 1596 -57 -32 c-96 -54 -123 -76 -163 -129 -21 -27 -40 -47 -43 -44
-3 3 -21 7 -39 8 -23 2 -33 8 -32 19 2 14 35 74 66 117 9 13 6 23 -17 53 -28
37 -18 51 12 16 10 -11 23 -20 30 -20 7 0 10 -6 8 -12 -3 -7 6 -26 18 -42 l24
-29 64 38 c35 21 69 42 75 47 9 6 5 26 -14 73 -14 35 -28 63 -31 60 -4 -2 -7
4 -8 13 -1 9 -4 26 -8 37 -5 16 -2 21 16 22 31 3 37 13 15 29 -34 24 -51 16
-85 -40 -22 -37 -42 -58 -63 -65 -38 -13 -38 -13 -38 -1 0 6 7 10 16 10 19 0
76 58 69 71 -3 4 4 13 15 19 16 9 18 15 10 30 -8 15 -8 20 1 20 6 0 8 7 5 16
-9 23 4 64 20 64 17 0 18 -12 3 -27 -6 -6 -9 -23 -7 -38 2 -21 11 -30 39 -39
20 -7 50 -23 68 -35 l31 -22 0 91 0 91 -22 -15 c-12 -9 -32 -16 -43 -15 -20 1
-20 1 0 7 33 11 65 45 65 70 0 27 -20 50 -38 44 -6 -2 -12 1 -12 7 0 6 5 11
10 11 6 0 10 7 10 16 0 8 -5 12 -10 9 -6 -3 -10 0 -10 9 0 8 6 17 13 19 9 4 9
8 -2 15 -10 7 -10 14 -2 30 13 24 1 35 -24 25 -13 -4 -16 -2 -13 8 2 7 15 16
29 19 27 7 40 40 15 40 -10 0 -16 9 -16 24 0 27 22 40 39 23 8 -8 11 2 11 38
-1 44 -2 48 -14 33 -18 -24 -35 -23 -29 2 3 11 9 20 14 20 5 0 9 4 9 10 0 5
-10 9 -22 7 -17 -2 -23 5 -31 35 l-9 37 -45 -20 c-51 -22 -53 -22 -53 -11 0 4
16 14 35 21 24 8 35 19 35 32 0 16 6 20 26 17 23 -2 33 -12 51 -47 1 -1 7 0
13 4 9 6 9 9 0 15 -7 4 -9 13 -6 19 4 6 13 8 19 4 7 -4 5 2 -3 12 -11 14 -12
19 -2 22 9 4 12 397 12 1924 l0 1919 -4000 0 -4000 0 0 -1821z m6740 1591 c-7
-24 -37 -73 -71 -113 -7 -9 -103 36 -114 53 -12 20 -26 10 -19 -12 4 -13 7
-35 6 -50 -2 -23 5 -31 36 -47 36 -18 40 -19 55 -4 9 9 20 14 23 10 12 -12
-40 -46 -56 -37 -8 4 -32 15 -52 23 -35 15 -37 18 -28 41 6 17 6 35 -1 53 -8
20 -6 30 5 42 14 13 17 13 33 -1 10 -9 37 -25 60 -37 l43 -21 24 37 c14 21 30
53 37 70 14 40 31 34 19 -7z m-3733 -216 c-3 -3 -12 -4 -19 -1 -8 3 -5 6 6 6
11 1 17 -2 13 -5z m973 -552 c-51 -48 -108 -98 -127 -111 -56 -41 -47 -17 14
35 32 27 89 77 127 112 37 35 71 60 74 57 3 -3 -36 -45 -88 -93z m1845 8 c3
-5 2 -10 -4 -10 -5 0 -13 5 -16 10 -3 6 -2 10 4 10 5 0 13 -4 16 -10z m-1455
-190 c25 -54 22 -81 -4 -31 -25 48 -36 81 -27 81 4 0 18 -22 31 -50z m-2223 8
c-3 -8 -6 -5 -6 6 -1 11 2 17 5 13 3 -3 4 -12 1 -19z m3708 -58 c3 -5 1 -10
-4 -10 -6 0 -11 5 -11 10 0 6 2 10 4 10 3 0 8 -4 11 -10z m-1855 -165 c0 -15
-62 -125 -70 -125 -5 0 5 29 22 65 18 36 36 65 40 65 4 0 8 -2 8 -5z m2080
-81 c0 -8 -2 -14 -5 -14 -6 0 -35 56 -35 67 1 14 40 -39 40 -53z m-2710 26 c0
-5 -2 -10 -4 -10 -3 0 -8 5 -11 10 -3 6 -1 10 4 10 6 0 11 -4 11 -10z m1508
-52 c8 -10 11 -18 6 -18 -17 0 -34 23 -33 45 0 14 2 16 6 5 3 -8 12 -23 21
-32z m-843 -48 c3 -5 1 -10 -4 -10 -6 0 -11 5 -11 10 0 6 2 10 4 10 3 0 8 -4
11 -10z m1885 -165 c-7 -9 -15 -13 -17 -11 -7 7 7 26 19 26 6 0 6 -6 -2 -15z
m-45 -15 c-3 -6 4 -10 16 -10 12 0 20 -3 16 -6 -9 -9 -77 5 -77 16 0 6 12 10
26 10 14 0 23 -4 19 -10z m-393 -17 c-6 -2 -10 -8 -7 -13 3 -4 -4 -6 -15 -3
-25 7 -16 23 13 22 12 0 16 -3 9 -6z m-562 -53 c0 -5 -5 -10 -11 -10 -5 0 -7
5 -4 10 3 6 8 10 11 10 2 0 4 -4 4 -10z m-670 -130 c0 -5 -2 -10 -4 -10 -3 0
-8 5 -11 10 -3 6 -1 10 4 10 6 0 11 -4 11 -10z m58 -100 c13 -33 22 -65 20
-72 -2 -6 -13 13 -25 43 -12 30 -24 62 -28 72 -4 9 -3 17 1 17 5 0 20 -27 32
-60z m-218 -30 c0 -5 -5 -10 -11 -10 -5 0 -7 5 -4 10 3 6 8 10 11 10 2 0 4 -4
4 -10z m3455 -72 c-36 -20 -50 -23 -86 -19 -26 3 5 20 35 19 18 -1 41 4 52 10
10 6 24 11 29 11 6 0 -8 -10 -30 -21z m135 -13 c0 -11 -19 -4 -41 15 l-24 21
33 -16 c17 -8 32 -18 32 -20z m140 -13 c0 -5 -9 -17 -20 -27 -16 -14 -20 -15
-20 -4 0 16 19 39 32 39 4 0 8 -4 8 -8z m-3813 -36 c-9 -18 -15 -22 -25 -14
-14 12 1 38 23 38 10 0 11 -5 2 -24z m3428 4 c-3 -5 -11 -10 -16 -10 -6 0 -7
5 -4 10 3 6 11 10 16 10 6 0 7 -4 4 -10z m-3385 -20 c0 -5 -7 -10 -16 -10 -8
0 -12 5 -9 10 3 6 10 10 16 10 5 0 9 -4 9 -10z m-93 -37 c-3 -10 -5 -4 -5 12
0 17 2 24 5 18 2 -7 2 -21 0 -30z m3931 -26 c3 -27 -4 -32 -32 -21 -16 6 -22
35 -9 48 15 14 38 0 41 -27z m-2828 5 c0 -14 -48 -32 -65 -26 -8 4 -29 1 -46
-6 -40 -17 -49 -5 -10 14 18 10 41 14 55 10 14 -3 33 -1 43 5 22 13 23 13 23
3z m2370 -22 c0 -5 -4 -10 -10 -10 -5 0 -10 5 -10 10 0 6 5 10 10 10 6 0 10
-4 10 -10z m-449 -33 c-5 -5 -17 -7 -26 -3 -13 5 -14 8 -3 20 9 10 17 11 26 3
8 -6 9 -14 3 -20z m-1204 -19 c-3 -7 -5 -2 -5 12 0 14 2 19 5 13 2 -7 2 -19 0
-25z m248 22 c-3 -5 -10 -10 -16 -10 -5 0 -9 5 -9 10 0 6 7 10 16 10 8 0 12
-4 9 -10z m1005 -20 c6 -11 9 -20 7 -20 -2 0 -12 9 -22 20 -10 11 -13 20 -7
20 6 0 16 -9 22 -20z m760 0 c0 -5 -5 -10 -11 -10 -5 0 -7 5 -4 10 3 6 8 10
11 10 2 0 4 -4 4 -10z m-2430 -24 c0 -3 -4 -8 -10 -11 -5 -3 -10 -1 -10 4 0 6
5 11 10 11 6 0 10 -2 10 -4z m2044 -41 c-6 -16 -24 -21 -24 -7 0 11 11 22 21
22 5 0 6 -7 3 -15z m81 -5 c3 -5 -1 -10 -9 -10 -9 0 -16 5 -16 10 0 6 4 10 9
10 6 0 13 -4 16 -10z m-3155 -41 c0 -6 -4 -7 -10 -4 -5 3 -10 11 -10 16 0 6 5
7 10 4 6 -3 10 -11 10 -16z m1035 1 c3 -5 1 -10 -4 -10 -6 0 -11 5 -11 10 0 6
2 10 4 10 3 0 8 -4 11 -10z m2438 -31 c15 -17 21 -19 34 -7 13 10 17 10 20 1
3 -7 14 -13 26 -13 11 0 17 -3 14 -7 -4 -4 5 -19 20 -35 15 -15 22 -28 16 -28
-5 0 -18 9 -28 20 -10 11 -31 20 -47 20 -15 0 -28 4 -28 9 0 5 -9 11 -19 14
-10 2 -24 14 -30 26 -15 27 -1 27 22 0z m167 -49 c0 -5 -5 -10 -11 -10 -5 0
-7 5 -4 10 3 6 8 10 11 10 2 0 4 -4 4 -10z m-3611 -63 c24 -43 24 -46 8 -71
-10 -14 -23 -26 -29 -26 -6 0 -2 10 10 23 l21 22 -24 44 c-25 43 -32 67 -17
57 4 -2 18 -25 31 -49z m1621 -47 c21 -42 27 -90 10 -90 -5 0 -10 14 -10 31 0
18 -9 47 -21 65 -11 19 -16 34 -10 34 6 0 20 -18 31 -40z m-646 4 c31 -30 13
-33 -24 -4 -19 15 -21 20 -8 20 9 0 24 -7 32 -16z m410 -59 c-4 -8 -10 -15
-15 -15 -5 0 -9 7 -9 15 0 8 7 15 15 15 9 0 12 -6 9 -15z m160 0 c-4 -8 -10
-12 -15 -9 -14 8 -10 24 6 24 9 0 12 -6 9 -15z m50 -20 c-4 -8 -8 -15 -10 -15
-2 0 -4 7 -4 15 0 8 4 15 10 15 5 0 7 -7 4 -15z m-1336 -13 c3 -9 -2 -13 -14
-10 -9 1 -19 9 -22 16 -3 9 2 13 14 10 9 -1 19 -9 22 -16z m-88 -42 c0 -5 -4
-10 -10 -10 -5 0 -10 5 -10 10 0 6 5 10 10 10 6 0 10 -4 10 -10z m1800 -49 c0
-21 -26 -36 -35 -21 -6 10 14 39 28 40 4 0 7 -9 7 -19z m263 12 c-7 -2 -19 -2
-25 0 -7 3 -2 5 12 5 14 0 19 -2 13 -5z m585 -22 c-1 -6 -19 -20 -38 -33 -19
-13 -36 -33 -38 -45 -2 -15 -8 -20 -19 -16 -14 5 -15 0 -10 -31 3 -21 16 -52
29 -69 13 -18 34 -53 47 -78 25 -48 73 -78 96 -59 7 6 16 5 23 -2 9 -9 15 -9
24 0 7 7 16 12 21 12 5 0 1 -7 -7 -16 -21 -21 -20 -35 3 -41 15 -4 41 -47 41
-67 0 -1 -8 -2 -18 -3 -13 -1 -27 15 -46 54 -20 42 -30 52 -40 44 -7 -6 -28
-9 -47 -8 -40 2 -73 37 -76 78 0 15 -22 57 -47 95 -36 54 -43 70 -32 78 23 18
24 40 4 69 -22 31 -10 37 17 7 17 -19 18 -19 59 10 42 30 60 37 54 21z m-768
-20 c0 -5 -7 -14 -15 -21 -16 -14 -18 -10 -9 14 6 17 24 22 24 7z m617 -73
c-3 -7 -5 -2 -5 12 0 14 2 19 5 13 2 -7 2 -19 0 -25z m-1697 -103 c103 -106
235 -277 223 -289 -10 -10 -23 -7 -23 7 0 6 -23 37 -50 66 -28 30 -50 61 -50
67 0 7 -38 52 -85 100 -47 49 -85 90 -85 91 0 2 -16 17 -35 34 -19 17 -32 35
-29 41 6 10 44 -23 134 -117z m-1688 73 c-7 -7 -12 -8 -12 -2 0 6 3 14 7 17 3
4 9 5 12 2 2 -3 -1 -11 -7 -17z m176 -37 c3 -8 -1 -12 -9 -9 -7 2 -15 10 -17
17 -3 8 1 12 9 9 7 -2 15 -10 17 -17z m2132 9 c0 -5 -4 -10 -10 -10 -5 0 -10
5 -10 10 0 6 5 10 10 10 6 0 10 -4 10 -10z m-1300 -11 c0 -6 -9 -8 -20 -4 -11
4 -20 2 -20 -4 0 -6 -7 -11 -15 -11 -9 0 -12 6 -9 15 7 17 64 21 64 4z m-760
-24 c14 -16 10 -18 -14 -9 -9 3 -16 10 -16 15 0 14 16 11 30 -6z m524 -37 c8
-5 7 -8 -1 -8 -7 0 -10 -7 -7 -15 4 -10 0 -15 -12 -15 -9 0 -14 3 -11 7 4 3 2
12 -4 20 -9 10 -8 17 2 29 11 13 14 13 18 3 2 -8 9 -17 15 -21z m666 -30 c0
-10 7 -32 15 -48 9 -17 12 -30 7 -30 -15 0 -32 24 -32 45 0 11 -7 33 -15 49
-20 38 -19 43 5 21 11 -10 20 -27 20 -37z m-1150 14 c0 -15 -2 -15 -10 -2 -13
20 -13 33 0 25 6 -3 10 -14 10 -23z m429 -8 c8 -18 8 -30 1 -39 -6 -7 -7 -21
-3 -31 6 -17 5 -17 -10 -5 -10 8 -16 19 -14 25 2 6 -6 18 -17 27 -20 16 -21
16 -28 1 -6 -12 -7 -10 -5 8 1 14 7 25 14 25 6 0 15 3 19 8 14 14 31 7 43 -19z
m-379 -14 c0 -5 -9 -10 -20 -10 -11 0 -20 5 -20 10 0 6 9 10 20 10 11 0 20 -4
20 -10z m140 -19 c0 -5 -9 -7 -20 -4 -11 3 -20 7 -20 9 0 2 9 4 20 4 11 0 20
-4 20 -9z m1887 3 c-3 -3 -12 -4 -19 -1 -8 3 -5 6 6 6 11 1 17 -2 13 -5z
m1024 -59 c-3 -5 -7 -2 -9 8 -2 9 -8 17 -13 17 -14 0 -11 28 4 33 13 4 27 -41
18 -58z m-3581 45 c0 -5 -2 -10 -4 -10 -3 0 -8 5 -11 10 -3 6 -1 10 4 10 6 0
11 -4 11 -10z m786 -38 c-9 -8 -26 10 -26 26 1 15 2 15 15 -2 8 -11 13 -21 11
-24z m78 23 c-7 -16 -59 -21 -69 -6 -5 8 11 13 62 20 7 0 10 -5 7 -14z m1391
5 c-3 -5 -11 -10 -16 -10 -6 0 -7 5 -4 10 3 6 11 10 16 10 6 0 7 -4 4 -10z
m-1052 -30 c-9 -11 -23 -15 -36 -12 -18 5 -18 6 -4 17 9 7 14 14 11 17 -2 3 6
3 20 1 22 -5 23 -6 9 -23z m-519 -1 c-8 -14 -24 -10 -24 6 0 9 6 12 15 9 8 -4
12 -10 9 -15z m91 -4 c18 -14 17 -15 -15 -13 -19 1 -43 -2 -52 -6 -10 -5 -18
-4 -18 1 0 5 12 14 28 20 36 14 34 14 57 -2z m200 5 c8 -13 -15 -13 -35 0 -12
8 -11 10 7 10 12 0 25 -4 28 -10z m-1365 -10 c0 -5 -5 -10 -11 -10 -5 0 -7 5
-4 10 3 6 8 10 11 10 2 0 4 -4 4 -10z m3700 -20 c0 -5 -2 -10 -4 -10 -3 0 -8
5 -11 10 -3 6 -1 10 4 10 6 0 11 -4 11 -10z m-3215 -40 c3 -5 1 -10 -4 -10 -6
0 -11 5 -11 10 0 6 2 10 4 10 3 0 8 -4 11 -10z m3345 1 c0 -5 -9 -12 -20 -15
-11 -3 -29 -9 -40 -12 -34 -9 -22 12 13 24 43 13 47 14 47 3z m200 -6 c0 -16
-9 -19 -35 -9 -13 5 -14 8 -3 15 20 13 38 11 38 -6z m-299 -38 c10 -37 -7 -34
-20 4 -8 23 -8 30 1 27 7 -3 15 -16 19 -31z m-3206 13 c-3 -5 -10 -10 -16 -10
-5 0 -9 5 -9 10 0 6 7 10 16 10 8 0 12 -4 9 -10z m315 -40 c-36 -12 -70 -12
-70 0 0 6 21 10 48 9 38 -1 42 -2 22 -9z m585 0 c3 -5 2 -10 -4 -10 -5 0 -13
5 -16 10 -3 6 -2 10 4 10 5 0 13 -4 16 -10z m-718 -6 c-3 -3 -12 -4 -19 -1 -8
3 -5 6 6 6 11 1 17 -2 13 -5z m50 0 c-3 -3 -12 -4 -19 -1 -8 3 -5 6 6 6 11 1
17 -2 13 -5z m-2422 -13 c3 -5 1 -12 -5 -16 -5 -3 -10 1 -10 9 0 18 6 21 15 7z
m-731 -79 c4 -29 16 -46 45 -70 53 -42 57 -74 18 -132 -38 -57 -36 -54 -43
-47 -3 3 8 26 26 51 38 56 34 76 -20 126 -30 27 -40 45 -45 79 -5 27 -4 41 3
37 5 -3 12 -23 16 -44z m3196 31 c0 -20 70 -17 86 5 12 16 13 16 14 -4 0 -31
-34 -34 -325 -32 -187 1 -229 3 -165 9 47 4 147 7 223 8 107 1 137 4 137 14 0
8 7 14 15 14 8 0 15 -6 15 -14z m2080 2 c0 -8 -2 -15 -4 -15 -2 0 -12 -3 -21
-6 -15 -6 -15 -4 -4 15 16 25 29 27 29 6z m-4670 -25 c0 -5 -4 -10 -10 -10 -5
0 -10 5 -10 10 0 6 5 10 10 10 6 0 10 -4 10 -10z m1180 0 c0 -5 -7 -10 -15
-10 -8 0 -15 5 -15 10 0 6 7 10 15 10 8 0 15 -4 15 -10z m1820 -10 c0 -5 -11
-10 -25 -10 -14 0 -25 5 -25 10 0 6 11 10 25 10 14 0 25 -4 25 -10z m-1920
-10 c0 -5 -2 -10 -4 -10 -3 0 -8 5 -11 10 -3 6 -1 10 4 10 6 0 11 -4 11 -10z
m420 1 c0 -6 -4 -13 -10 -16 -5 -3 -10 1 -10 9 0 9 5 16 10 16 6 0 10 -4 10
-9z m-750 -35 c0 -3 -4 -8 -10 -11 -5 -3 -10 -1 -10 4 0 6 5 11 10 11 6 0 10
-2 10 -4z m1385 -17 c5 -14 2 -25 -6 -30 -22 -14 8 -11 75 6 33 9 61 14 63 12
9 -10 -81 -36 -155 -46 -71 -9 -87 -8 -105 4 -12 8 -30 15 -40 15 -10 0 -29 7
-42 16 -55 36 -241 -29 -282 -98 -20 -33 -133 -98 -199 -114 -16 -3 -54 -30
-84 -59 -65 -62 -113 -82 -144 -61 -26 17 -71 11 -301 -41 -160 -37 -170 -40
-174 -63 -4 -30 -17 -40 -51 -39 l-25 1 28 11 c30 12 38 47 10 47 -9 0 -45 -5
-80 -11 -63 -11 -63 -11 -63 -44 0 -19 -5 -37 -10 -40 -6 -4 -10 8 -10 30 0
30 -3 35 -17 31 -19 -6 -440 -96 -448 -96 -2 0 -2 -7 1 -15 4 -8 1 -15 -5 -15
-6 0 -11 5 -11 10 0 6 -11 10 -24 10 -29 0 -27 7 -57 -225 -15 -119 -27 -176
-38 -190 -10 -11 -28 -45 -41 -75 -13 -30 -31 -61 -39 -67 -18 -16 -80 -17
-101 -2 -12 8 -8 9 15 8 77 -5 81 -3 109 64 15 34 34 69 42 78 14 15 71 386
61 396 -2 2 -42 -5 -88 -16 -72 -17 -95 -18 -169 -9 -201 24 -333 47 -349 62
-24 22 -42 20 -83 -8 -23 -15 -40 -21 -49 -15 -15 9 -15 9 31 31 25 12 29 17
15 17 -11 0 -29 -6 -39 -14 -22 -17 -36 -19 -36 -7 0 17 110 58 119 44 26 -34
75 -50 211 -70 265 -38 251 -38 478 13 12 3 22 12 22 20 0 12 4 13 18 4 14 -9
42 -7 123 10 57 12 111 25 119 28 8 3 26 7 40 9 55 7 176 37 185 45 5 5 23 9
41 9 30 0 294 50 449 85 39 9 86 18 105 20 19 3 50 7 68 10 25 5 32 2 32 -10
0 -34 62 -6 130 59 30 30 62 53 70 53 8 0 54 18 101 40 70 33 89 46 100 73 18
41 120 94 213 111 58 10 69 9 85 -5 10 -9 25 -16 35 -16 9 0 27 -7 41 -16 33
-22 90 -15 90 11 1 43 29 60 40 24z m1220 1 c3 -5 -1 -10 -10 -10 -9 0 -13 5
-10 10 3 6 8 10 10 10 2 0 7 -4 10 -10z m-3055 -20 c0 -5 -5 -10 -11 -10 -5 0
-7 5 -4 10 3 6 8 10 11 10 2 0 4 -4 4 -10z m5302 -55 c2 -19 1 -35 -2 -35 -9
0 -29 68 -22 74 10 11 20 -5 24 -39z m-4222 31 c0 -3 -4 -8 -10 -11 -5 -3 -10
-1 -10 4 0 6 5 11 10 11 6 0 10 -2 10 -4z m4293 -46 c-15 -22 -35 -40 -43 -40
-9 0 -11 3 -5 8 6 4 21 22 34 40 12 17 27 32 32 32 6 0 -2 -18 -18 -40z
m-5743 -14 c0 -9 -13 -7 -29 3 -7 5 -10 14 -7 20 5 8 11 7 22 -3 8 -8 14 -17
14 -20z m3999 -11 c23 -25 47 -45 54 -45 7 0 31 -18 52 -41 22 -22 53 -50 68
-61 27 -20 29 -20 42 -2 8 11 15 26 15 36 0 35 82 169 95 156 3 -3 -12 -34
-34 -68 -23 -35 -41 -73 -41 -85 0 -34 -38 -77 -61 -70 -11 4 -19 2 -19 -4 0
-6 -5 -11 -11 -11 -6 0 -9 9 -6 20 4 14 -9 32 -44 65 -26 25 -54 45 -62 45
-12 0 -44 30 -91 88 -35 41 1 22 43 -23z m-147 13 c-7 -7 -12 -8 -12 -2 0 6 3
14 7 17 3 4 9 5 12 2 2 -3 -1 -11 -7 -17z m-32 4 c0 -5 -31 -16 -69 -25 -56
-13 -80 -14 -135 -5 -36 6 -66 15 -66 19 0 11 -3 11 58 -1 36 -6 69 -5 119 5
84 16 93 17 93 7z m-3230 -48 c0 -8 -4 -14 -10 -14 -5 0 -10 9 -10 21 0 11 5
17 10 14 6 -3 10 -13 10 -21z m1930 -5 c0 -6 -4 -7 -10 -4 -5 3 -10 11 -10 16
0 6 5 7 10 4 6 -3 10 -11 10 -16z m315 1 c-3 -5 -10 -10 -16 -10 -5 0 -9 5 -9
10 0 6 7 10 16 10 8 0 12 -4 9 -10z m2865 -21 c17 -30 11 -34 -15 -9 -14 13
-25 27 -25 31 0 14 30 -2 40 -22z m-5080 -9 c0 -5 -5 -10 -11 -10 -5 0 -7 5
-4 10 3 6 8 10 11 10 2 0 4 -4 4 -10z m3280 0 c0 -5 -2 -10 -4 -10 -3 0 -8 5
-11 10 -3 6 -1 10 4 10 6 0 11 -4 11 -10z m-3260 -116 c-11 -55 -28 -105 -37
-114 -14 -14 -15 -13 -8 5 15 39 44 170 45 200 0 20 3 26 10 19 8 -8 5 -41
-10 -110z m2595 96 c3 -5 1 -10 -4 -10 -6 0 -11 5 -11 10 0 6 2 10 4 10 3 0 8
-4 11 -10z m-3755 -10 c0 -5 -19 -36 -43 -67 -83 -111 -147 -210 -147 -227 0
-11 -5 -16 -14 -13 -8 3 -32 11 -55 18 -23 7 -41 16 -41 21 0 11 0 11 50 -7
52 -18 50 -18 50 -2 0 8 27 53 60 101 34 48 58 92 54 98 -4 6 -3 8 4 5 5 -4
23 13 39 38 27 43 43 56 43 35z m4470 -10 c0 -5 -9 -10 -20 -10 -17 0 -19 -4
-14 -26 7 -26 6 -26 -15 -8 -27 23 -27 32 2 44 30 12 47 12 47 0z m2435 -19
c-6 -5 -21 -12 -35 -15 l-25 -7 25 15 c28 17 50 21 35 7z m135 -16 c-7 -8 -14
-15 -15 -15 -2 0 -5 7 -9 15 -4 10 1 15 16 15 17 0 18 -2 8 -15z m-4015 -15
c-10 -11 -20 -18 -23 -15 -7 6 18 35 31 35 5 0 2 -9 -8 -20z m273 -8 c-17 -3
-18 -6 -7 -13 11 -7 9 -9 -8 -9 -32 0 -38 18 -8 26 14 3 25 11 25 18 0 6 5 4
10 -4 7 -11 4 -16 -12 -18z m3922 8 c-20 -13 -60 -13 -60 0 0 6 17 10 38 10
27 0 33 -3 22 -10z m-620 -26 c0 -14 -21 -19 -33 -7 -9 9 13 34 24 27 5 -3 9
-12 9 -20z m-3470 -4 c12 -8 11 -10 -7 -10 -13 0 -23 5 -23 10 0 13 11 13 30
0z m110 4 c0 -3 -6 -12 -14 -19 -17 -18 -29 -8 -13 11 12 14 27 18 27 8z
m4004 -9 c3 -8 1 -15 -4 -15 -6 0 -10 7 -10 15 0 8 2 15 4 15 2 0 6 -7 10 -15z
m-4214 -10 c0 -8 -4 -15 -10 -15 -5 0 -10 7 -10 15 0 8 5 15 10 15 6 0 10 -7
10 -15z m50 6 c0 -12 -20 -25 -27 -18 -7 7 6 27 18 27 5 0 9 -4 9 -9z m2395
-1 c3 -5 1 -10 -4 -10 -6 0 -11 5 -11 10 0 6 2 10 4 10 3 0 8 -4 11 -10z
m1415 0 c0 -5 -2 -10 -4 -10 -3 0 -8 5 -11 10 -3 6 -1 10 4 10 6 0 11 -4 11
-10z m-3715 -27 c-22 -16 -55 -17 -55 -2 0 6 8 8 19 4 12 -3 21 0 25 10 3 9
11 13 17 9 9 -5 6 -11 -6 -21z m2595 12 c0 -8 -7 -15 -15 -15 -16 0 -20 12 -8
23 11 12 23 8 23 -8z m-317 -15 c5 -4 6 -18 2 -30 -6 -18 -12 -20 -33 -15 -33
8 -31 5 -25 38 4 23 9 26 27 21 11 -3 25 -10 29 -14z m1077 -31 c0 -5 11 -9
24 -9 29 0 37 -16 24 -50 -7 -19 -11 -21 -18 -11 -4 8 -6 20 -3 27 2 6 -9 20
-26 30 -32 19 -43 38 -16 28 8 -4 15 -10 15 -15z m-6923 5 c-3 -3 -12 -4 -19
-1 -8 3 -5 6 6 6 11 1 17 -2 13 -5z m5990 0 c-3 -3 -12 -4 -19 -1 -8 3 -5 6 6
6 11 1 17 -2 13 -5z m883 -14 c4 0 10 -9 13 -20 4 -17 0 -20 -29 -20 -26 0
-34 4 -34 18 0 24 10 34 28 27 7 -3 17 -5 22 -5z m590 0 c-20 -13 -43 -13 -35
0 3 6 16 10 28 10 18 0 19 -2 7 -10z m19 -34 c8 -13 10 -29 7 -35 -12 -19 -42
-12 -54 14 -9 20 -8 26 6 34 24 15 27 14 41 -13z m-544 4 c-3 -5 -10 -10 -16
-10 -5 0 -9 5 -9 10 0 6 7 10 16 10 8 0 12 -4 9 -10z m-6948 -6 c-3 -3 -12 -4
-19 -1 -8 3 -5 6 6 6 11 1 17 -2 13 -5z m1643 -84 c-19 -13 -30 -13 -30 0 0 6
10 10 23 10 18 0 19 -2 7 -10z m5283 -4 c3 -8 -1 -20 -9 -26 -8 -7 -14 -19
-14 -27 0 -20 -72 -131 -89 -138 -19 -7 -29 4 -13 14 9 5 11 17 6 34 -4 16 -2
27 4 27 6 0 12 -8 14 -17 2 -12 11 -5 31 25 l27 42 -40 25 c-61 39 -54 55 26
55 36 0 54 -4 57 -14z m237 4 c0 -13 -20 -13 -40 0 -12 8 -9 10 13 10 15 0 27
-4 27 -10z m70 -35 c0 -9 -9 -15 -25 -15 -24 0 -32 10 -18 23 12 13 43 7 43
-8z m429 -4 c6 -10 8 -28 6 -40 -2 -13 1 -21 11 -21 8 0 14 -4 14 -10 0 -5 -9
-10 -19 -10 -11 0 -21 -6 -24 -12 -10 -29 -15 0 -7 37 6 25 6 41 0 43 -13 5
-13 32 0 32 5 0 14 -8 19 -19z m-2931 -55 c22 -24 45 -52 51 -64 6 -11 38 -41
72 -66 57 -43 62 -45 86 -32 22 11 33 11 75 -2 64 -21 62 -35 -3 -16 -37 11
-55 12 -62 5 -21 -21 -55 -10 -109 34 -64 52 -77 54 -213 25 -95 -19 -108 -29
-131 -94 -7 -20 -8 -43 -1 -68 7 -30 4 -51 -18 -118 -15 -45 -24 -84 -20 -88
4 -4 10 -1 12 6 6 17 23 15 23 -3 0 -10 -10 -15 -34 -15 l-33 0 29 81 28 82
-30 -6 c-38 -8 -40 9 -2 18 28 6 29 8 28 68 -1 50 4 69 23 98 23 33 31 37 111
52 48 10 103 17 124 17 l37 0 -18 31 c-24 41 -83 90 -103 85 -31 -9 -205 -18
-197 -11 7 9 108 21 188 24 43 1 50 -3 87 -43z m1706 28 c9 -24 -3 -35 -25
-24 -16 9 -17 13 -7 25 17 19 25 18 32 -1z m1046 -34 c0 -5 -5 -10 -11 -10 -5
0 -7 5 -4 10 3 6 8 10 11 10 2 0 4 -4 4 -10z m-7203 -6 c-3 -3 -12 -4 -19 -1
-8 3 -5 6 6 6 11 1 17 -2 13 -5z m6773 -4 c-20 -13 -33 -13 -25 0 3 6 14 10
23 10 15 0 15 -2 2 -10z m-2862 -18 c2 -7 -5 -12 -17 -12 -14 0 -19 5 -14 15
6 17 25 15 31 -3z m-3928 -2 c0 -5 -5 -10 -11 -10 -5 0 -7 5 -4 10 3 6 8 10
11 10 2 0 4 -4 4 -10z m6310 -10 c0 -5 -5 -10 -11 -10 -5 0 -7 5 -4 10 3 6 8
10 11 10 2 0 4 -4 4 -10z m-32 -22 c7 -7 12 -19 11 -27 0 -12 -4 -11 -15 5
-13 19 -20 21 -52 13 -39 -9 -48 -6 -37 10 9 15 78 14 93 -1z m-1583 -8 c-3
-5 -10 -10 -16 -10 -5 0 -9 5 -9 10 0 6 7 10 16 10 8 0 12 -4 9 -10z m1414
-19 c-15 -5 -22 6 -14 19 6 9 10 9 16 -1 5 -8 4 -15 -2 -18z m-3729 15 c0 -3
-4 -8 -10 -11 -5 -3 -10 -1 -10 4 0 6 5 11 10 11 6 0 10 -2 10 -4z m3820 -26
c0 -5 -2 -10 -4 -10 -3 0 -8 5 -11 10 -3 6 -1 10 4 10 6 0 11 -4 11 -10z m325
-66 c-22 -31 -41 -51 -43 -45 -4 13 68 115 76 106 3 -3 -12 -30 -33 -61z
m-5655 46 c0 -5 -4 -10 -10 -10 -5 0 -10 5 -10 10 0 6 5 10 10 10 6 0 10 -4
10 -10z m3250 -75 c-7 -8 -17 -15 -23 -15 -5 0 -2 9 8 20 21 23 35 19 15 -5z
m3174 -10 c3 -8 12 -15 19 -15 8 0 20 7 27 15 14 17 40 20 40 4 0 -6 -23 -20
-51 -32 -48 -21 -50 -23 -44 -52 21 -90 21 -103 9 -120 -8 -10 -17 -16 -20
-12 -4 4 -2 13 4 20 9 10 8 28 -3 71 -8 31 -15 60 -15 63 0 10 -55 -29 -77
-56 -16 -18 -22 -22 -23 -10 0 16 56 79 71 79 4 0 20 5 36 11 25 9 26 12 11
20 -10 6 -18 14 -18 19 0 16 27 11 34 -5z m-6414 -35 c0 -18 -19 -11 -30 11
-11 19 -10 20 9 9 12 -6 21 -15 21 -20z m5570 2 c0 -4 -27 -34 -60 -67 -33
-33 -60 -53 -60 -45 0 8 23 38 52 67 50 50 68 63 68 45z m-4865 -34 c-5 -18
-10 -55 -11 -83 -2 -27 -6 -67 -10 -87 -3 -21 -1 -51 4 -68 7 -18 7 -32 1 -35
-5 -4 -9 -19 -9 -35 0 -21 -8 -33 -29 -46 -17 -10 -32 -28 -36 -41 -3 -15 -24
-33 -58 -50 -69 -37 -67 -36 -67 -26 0 5 23 20 51 34 36 16 55 32 61 51 5 15
20 34 34 43 14 9 24 25 24 38 0 13 4 27 10 33 6 6 5 25 -2 52 -8 33 -8 53 2
82 7 21 10 45 7 54 -8 19 15 116 27 116 5 0 5 -14 1 -32z m3015 2 c0 -11 -4
-20 -10 -20 -5 0 -10 9 -10 20 0 11 5 20 10 20 6 0 10 -9 10 -20z m580 10 c0
-11 -35 -27 -154 -71 -90 -33 -86 -32 -86 -21 0 5 42 23 94 41 52 18 103 39
113 47 22 16 33 18 33 4z m2160 0 c0 -5 -5 -10 -11 -10 -5 0 -7 5 -4 10 3 6 8
10 11 10 2 0 4 -4 4 -10z m-6455 -10 c3 -5 -1 -10 -9 -10 -9 0 -16 5 -16 10 0
6 4 10 9 10 6 0 13 -4 16 -10z m3415 6 c0 -3 -4 -8 -10 -11 -5 -3 -10 -1 -10
4 0 6 5 11 10 11 6 0 10 -2 10 -4z m585 -46 c-10 -11 -20 -18 -23 -15 -3 3 3
14 13 25 10 11 20 18 23 15 3 -3 -3 -14 -13 -25z m2555 -16 c0 -8 -4 -12 -10
-9 -5 3 -10 13 -10 21 0 8 5 12 10 9 6 -3 10 -13 10 -21z m-4645 -23 c-3 -6
-11 -11 -17 -11 -6 0 -6 6 2 15 14 17 26 13 15 -4z m2265 1 c0 -9 -60 -32 -81
-31 -8 0 4 9 26 19 46 21 55 23 55 12z m2020 -12 c0 -5 -9 -10 -20 -10 -11 0
-20 5 -20 10 0 6 9 10 20 10 11 0 20 -4 20 -10z m-4380 -20 c0 -5 -9 -10 -20
-10 -11 0 -20 5 -20 10 0 6 9 10 20 10 11 0 20 -4 20 -10z m55 0 c-3 -5 -14
-10 -23 -10 -15 0 -15 2 -2 10 20 13 33 13 25 0z m-2437 -18 c2 -7 -2 -10 -12
-6 -9 3 -16 11 -16 16 0 13 23 5 28 -10z m4052 -2 c0 -11 -4 -20 -10 -20 -5 0
-10 9 -10 20 0 11 5 20 10 20 6 0 10 -9 10 -20z m-4185 0 c3 -5 1 -10 -4 -10
-6 0 -11 5 -11 10 0 6 2 10 4 10 3 0 8 -4 11 -10z m2465 0 c0 -5 -7 -10 -15
-10 -8 0 -15 5 -15 10 0 6 7 10 15 10 8 0 15 -4 15 -10z m-2470 -35 c0 -8 -9
-15 -20 -15 -17 0 -19 2 -8 15 17 19 28 19 28 0z m4800 -20 c0 -8 5 -15 10
-15 17 0 11 -23 -14 -61 -16 -24 -37 -39 -64 -47 -29 -9 -43 -20 -52 -42 -15
-37 -37 -39 -50 -5 -5 14 -12 25 -14 25 -11 0 -36 -60 -36 -85 0 -14 -4 -25
-9 -25 -5 0 -16 -3 -24 -6 -9 -3 -27 7 -43 23 l-28 28 42 5 c33 4 47 12 62 35
25 37 25 55 2 55 -17 0 -48 37 -39 47 3 3 11 -5 17 -17 8 -15 18 -20 32 -17
14 4 22 0 25 -14 4 -14 12 -19 24 -16 16 4 18 1 13 -19 -8 -32 2 -30 20 4 10
19 28 32 55 40 45 14 54 23 45 46 -4 11 -13 15 -27 10 -17 -5 -19 -3 -12 12 4
11 10 27 12 37 7 21 53 24 53 2z m-260 -26 c0 -5 -4 -9 -10 -9 -5 0 -10 7 -10
16 0 8 5 12 10 9 6 -3 10 -10 10 -16z m1084 -30 c14 -12 -11 -36 -50 -49 -32
-11 -48 -40 -21 -40 6 0 4 -5 -6 -11 -24 -14 -29 -7 -21 26 4 17 18 32 37 40
18 7 25 15 18 19 -6 4 -11 14 -11 22 0 11 6 14 23 9 12 -4 26 -11 31 -16z
m-1414 -9 c0 -5 -4 -10 -10 -10 -5 0 -10 5 -10 10 0 6 5 10 10 10 6 0 10 -4
10 -10z m320 -10 c0 -5 -2 -10 -4 -10 -3 0 -8 5 -11 10 -3 6 -1 10 4 10 6 0
11 -4 11 -10z m405 0 c3 -5 -1 -10 -9 -10 -9 0 -16 5 -16 10 0 6 4 10 9 10 6
0 13 -4 16 -10z m-800 -40 c-5 -8 -11 -8 -17 -2 -6 6 -7 16 -3 22 5 8 11 8 17
2 6 -6 7 -16 3 -22z m1470 -20 c3 -5 -1 -10 -9 -10 -9 0 -16 5 -16 10 0 6 4
10 9 10 6 0 13 -4 16 -10z m122 -23 c6 2 13 -6 15 -18 2 -13 17 -29 38 -40 34
-19 34 -19 8 -19 -15 0 -30 5 -33 10 -4 6 -10 8 -15 5 -15 -9 -40 7 -40 25 0
11 -4 22 -10 25 -18 11 -11 26 8 17 9 -5 22 -7 29 -5z m1261 -9 c17 -36 24
-68 15 -68 -5 0 -16 20 -25 45 -17 46 -10 63 10 23z m-7172 -25 c-10 -10 -19
5 -10 18 6 11 8 11 12 0 2 -7 1 -15 -2 -18z m7094 7 c0 -5 -5 -10 -11 -10 -5
0 -7 5 -4 10 3 6 8 10 11 10 2 0 4 -4 4 -10z m-3620 -31 c0 -5 -7 -9 -15 -9
-15 0 -20 12 -9 23 8 8 24 -1 24 -14z m3429 7 c18 -22 -21 -41 -50 -26 -20 11
-20 12 -2 25 23 18 38 18 52 1z m131 1 c-23 -18 -42 -65 -28 -69 13 -5 2 -28
-13 -28 -5 0 -9 7 -9 15 0 12 -13 15 -58 15 -52 0 -61 -3 -89 -32 -30 -31 -31
-36 -23 -78 6 -32 5 -48 -3 -55 -7 -5 -12 -16 -13 -22 -1 -7 -2 -17 -2 -22 -1
-5 -24 -11 -52 -15 -27 -4 -50 -10 -50 -13 0 -4 8 -32 17 -64 l17 -56 115 3
116 2 -110 -7 c-60 -5 -123 -10 -140 -13 -16 -3 -25 -3 -18 -1 12 4 10 43 -5
98 -9 29 -10 30 -63 27 -58 -4 -62 6 -7 17 28 6 33 11 34 36 0 17 -4 36 -9 43
-7 8 -4 12 10 12 11 0 32 14 49 31 20 22 23 28 8 19 -13 -8 -29 -10 -40 -5
-25 11 -30 12 -54 14 -11 0 -20 6 -20 12 0 6 9 13 20 16 11 3 20 11 20 18 0
15 60 15 60 0 0 -5 4 -4 9 4 8 12 14 12 40 2 l30 -13 -24 -32 c-14 -18 -23
-36 -20 -39 3 -4 2 -5 -1 -2 -9 6 -64 -64 -64 -82 0 -21 22 -25 64 -11 32 11
41 20 53 57 8 24 12 53 9 63 -15 59 47 108 137 108 43 0 57 3 54 13 -5 15 30
47 52 47 14 -1 14 -2 1 -13z m-2746 -33 c-7 -25 -5 -26 30 -22 20 2 36 1 36
-3 0 -4 8 -10 18 -12 9 -3 -7 -5 -35 -6 -29 0 -53 -5 -53 -9 0 -4 15 -6 33 -5
17 2 39 -1 47 -7 13 -9 13 -11 0 -20 -13 -8 -12 -10 3 -10 9 0 17 5 17 10 0 6
5 10 10 10 6 0 5 -8 -2 -20 -8 -13 -26 -20 -58 -23 l-45 -3 52 -2 c45 -2 52
-5 55 -24 3 -20 10 -23 56 -26 49 -3 52 -2 52 21 0 17 7 27 23 31 38 10 47 7
47 -18 0 -13 7 -26 15 -30 12 -4 15 3 15 34 0 38 2 40 30 40 36 0 41 -27 10
-50 -26 -19 -25 -30 1 -30 15 0 20 -5 17 -22 -2 -12 -9 -24 -17 -26 -10 -3
-12 0 -8 11 5 13 -10 16 -111 19 -64 1 -156 1 -203 0 l-86 -4 1 -66 c1 -39 -3
-67 -9 -67 -5 0 -9 6 -9 13 1 6 -2 12 -7 12 -5 0 -6 7 -2 16 5 13 2 15 -14 10
-15 -5 -22 -1 -26 13 -3 15 2 20 23 25 23 4 27 9 23 26 -4 16 -13 20 -43 20
-63 0 -63 48 0 119 43 50 48 32 5 -19 -58 -70 -40 -87 90 -89 l70 -1 -38 25
c-36 25 -37 27 -37 90 0 35 3 70 6 79 10 27 25 18 18 -10z m-828 -41 c-11 -11
-19 6 -11 24 8 17 8 17 12 0 3 -10 2 -21 -1 -24z m1471 1 c-3 -3 -12 -4 -19
-1 -8 3 -5 6 6 6 11 1 17 -2 13 -5z m2423 -14 c0 -5 -4 -10 -10 -10 -5 0 -10
5 -10 10 0 6 5 10 10 10 6 0 10 -4 10 -10z m-3886 -49 c-9 -10 -26 18 -18 30
5 9 9 8 14 -7 4 -10 6 -21 4 -23z m2985 2 c13 13 15 -4 2 -18 -5 -6 -11 -19
-14 -30 -5 -19 -5 -19 -12 3 -4 12 -20 29 -36 38 -16 8 -29 19 -29 24 0 6 17
2 39 -9 29 -15 41 -17 50 -8z m-2943 -11 c0 -4 4 -15 9 -25 4 -10 5 -21 1 -24
-3 -3 -9 3 -13 13 -3 10 -11 22 -16 25 -5 4 -6 12 -2 19 7 11 19 6 21 -8z
m1218 -33 c-13 -15 -15 -22 -6 -31 19 -19 14 -30 -8 -18 -11 6 -20 15 -20 21
0 19 44 73 48 60 2 -7 -4 -21 -14 -32z m-3979 21 c3 -5 -1 -10 -9 -10 -9 0
-16 5 -16 10 0 6 4 10 9 10 6 0 13 -4 16 -10z m645 -25 c0 -19 -4 -35 -10 -35
-11 0 -14 53 -3 63 11 12 13 8 13 -28z m2186 -1 c-23 -16 -36 -18 -36 -4 0 6
9 10 20 10 14 0 18 5 13 18 -5 14 -4 15 8 4 12 -11 11 -15 -5 -28z m2836 -43
c-4 -11 -8 -10 -19 5 -7 10 -13 24 -13 33 0 11 4 10 19 -5 10 -10 16 -25 13
-33z m-4456 12 c-10 -10 -19 5 -10 18 6 11 8 11 12 0 2 -7 1 -15 -2 -18z
m5009 -3 c37 14 55 12 55 -5 0 -8 4 -15 9 -15 9 0 37 -59 30 -63 -2 -2 -31
-11 -63 -21 -52 -16 -68 -17 -138 -6 -43 7 -78 16 -78 19 0 8 68 7 90 -2 39
-14 77 -13 117 4 48 20 53 33 22 59 -15 14 -27 16 -49 10 -34 -10 -40 -5 -39
29 0 25 0 26 9 4 8 -20 13 -21 35 -13z m-619 5 c-23 -17 -36 -19 -36 -6 0 5 8
12 18 14 32 9 37 6 18 -8z m-1148 -21 c23 -16 29 -48 11 -60 -6 -3 -9 -15 -6
-25 3 -12 -4 -26 -19 -38 -13 -10 -24 -28 -24 -39 0 -12 -4 -24 -10 -27 -6 -4
-10 6 -10 24 0 20 8 36 26 50 14 11 23 25 19 32 -4 6 -2 22 5 35 12 21 10 26
-11 43 -28 24 -13 28 19 5z m-2406 -9 c0 -5 -5 -11 -10 -13 -5 -1 -9 4 -9 13
0 9 4 14 9 13 5 -2 10 -8 10 -13z m1264 -21 c-10 -14 -20 -23 -23 -21 -2 3 3
17 13 31 9 15 19 24 22 22 2 -3 -3 -17 -12 -32z m2644 16 c0 -5 -4 -10 -10
-10 -5 0 -10 5 -10 10 0 6 5 10 10 10 6 0 10 -4 10 -10z m-5320 -32 c0 -12 7
-30 16 -40 16 -17 15 -21 -23 -75 -44 -63 -67 -121 -58 -145 8 -20 -36 -29
-53 -11 -10 10 -9 13 8 13 21 0 24 4 34 51 3 15 24 54 47 88 38 58 40 63 25
80 -17 19 -23 76 -6 66 6 -3 10 -16 10 -27z m1380 22 c0 -5 -5 -10 -11 -10 -5
0 -7 5 -4 10 3 6 8 10 11 10 2 0 4 -4 4 -10z m65 -24 l-27 -27 19 -32 c20 -33
20 -57 1 -57 -6 0 -9 3 -5 6 3 4 -1 23 -9 42 -17 41 -5 88 24 95 26 5 25 1 -3
-27z m3615 20 c0 -8 6 -16 13 -19 6 -2 -7 -5 -31 -5 -24 0 -40 3 -37 9 4 5 13
9 21 9 8 0 14 5 14 10 0 6 5 10 10 10 6 0 10 -6 10 -14z m-6565 -6 c3 -5 1
-10 -4 -10 -6 0 -11 5 -11 10 0 6 2 10 4 10 3 0 8 -4 11 -10z m735 1 c0 -6 -4
-13 -10 -16 -5 -3 -10 1 -10 9 0 9 5 16 10 16 6 0 10 -4 10 -9z m4026 -33 c-3
-13 -6 -74 -6 -135 0 -69 -4 -113 -10 -113 -6 0 -10 41 -10 104 0 113 7 166
22 166 6 0 8 -10 4 -22z m-628 -35 c-8 -10 -24 -29 -34 -42 -38 -49 -217 -236
-233 -244 -9 -5 -42 -37 -73 -70 -32 -34 -57 -57 -58 -51 0 16 88 113 120 133
29 18 210 207 253 265 16 20 31 35 35 32 3 -3 -2 -14 -10 -23z m3188 -38 c1
-36 -3 -65 -8 -65 -5 0 -7 -4 -3 -9 10 -18 -11 -20 -51 -6 -21 8 -59 15 -84
16 -25 1 -35 4 -22 6 13 3 22 12 22 23 0 13 7 18 20 17 22 -1 28 -27 8 -28 -7
0 -2 -5 12 -10 14 -6 40 -8 58 -4 29 5 32 9 32 43 0 31 9 82 14 82 0 0 2 -29
2 -65z m-456 45 c0 -5 -5 -10 -11 -10 -5 0 -7 5 -4 10 3 6 8 10 11 10 2 0 4
-4 4 -10z m-6489 -60 c26 -20 62 -55 80 -76 25 -29 18 -25 -26 16 -33 31 -77
66 -97 79 -21 12 -38 24 -38 27 0 9 39 -13 81 -46z m3519 1 c-6 -12 -20 -21
-33 -20 l-22 0 22 11 c12 6 25 22 29 37 5 19 8 22 11 9 2 -9 -1 -26 -7 -37z
m2840 39 c0 -5 -4 -10 -10 -10 -5 0 -10 5 -10 10 0 6 5 10 10 10 6 0 10 -4 10
-10z m-2200 -21 c0 -6 -4 -7 -10 -4 -5 3 -10 11 -10 16 0 6 5 7 10 4 6 -3 10
-11 10 -16z m2420 1 c0 -11 -4 -20 -10 -20 -5 0 -10 9 -10 20 0 11 5 20 10 20
6 0 10 -9 10 -20z m-3714 -15 c-21 -16 -32 -13 -21 4 3 6 14 11 23 11 15 -1
15 -2 -2 -15z m824 5 c0 -5 -2 -10 -4 -10 -3 0 -8 5 -11 10 -3 6 -1 10 4 10 6
0 11 -4 11 -10z m415 -6 c-19 -14 -19 -15 5 -12 22 3 25 -1 28 -31 2 -21 0
-31 -7 -26 -6 3 -11 15 -11 26 0 12 -7 19 -20 19 -11 0 -20 6 -20 13 0 18 10
27 29 27 13 -1 12 -4 -4 -16z m2625 6 c0 -5 -4 -10 -9 -10 -5 0 -16 -3 -25 -6
-11 -4 -16 -1 -16 10 0 10 9 16 25 16 14 0 25 -4 25 -10z m-1100 -7 c0 -11
-33 -43 -44 -43 -6 1 -1 9 12 20 20 17 21 19 5 23 -14 4 -13 5 5 6 12 0 22 -2
22 -6z m-6029 -20 c13 -16 12 -17 -3 -4 -17 13 -22 21 -14 21 2 0 10 -8 17
-17z m3219 7 c0 -5 -5 -10 -11 -10 -5 0 -7 5 -4 10 3 6 8 10 11 10 2 0 4 -4 4
-10z m810 -10 c0 -5 -2 -10 -4 -10 -3 0 -8 5 -11 10 -3 6 -1 10 4 10 6 0 11
-4 11 -10z m550 -49 c0 -21 -16 -2 -24 29 -7 24 -6 24 8 6 9 -11 16 -27 16
-35z m340 19 c0 -5 6 -7 14 -4 13 5 32 -24 22 -34 -11 -10 -65 20 -59 34 6 16
23 19 23 4z m790 -16 c0 -19 -4 -25 -15 -20 -12 4 -13 2 -2 -14 9 -16 9 -24
-1 -40 -6 -11 -12 -26 -12 -34 0 -9 -9 -13 -25 -12 -14 0 -25 4 -25 7 0 3 -11
4 -25 1 -24 -4 -25 -2 -25 42 0 49 19 66 21 19 1 -17 3 -21 6 -10 2 9 9 17 14
17 6 0 7 5 4 10 -3 6 3 10 14 10 12 0 21 7 21 15 0 13 25 34 43 35 4 0 7 -12
7 -26z m-2610 6 c0 -5 -7 -10 -16 -10 -8 0 -12 5 -9 10 3 6 10 10 16 10 5 0 9
-4 9 -10z m406 -27 c-7 -7 -26 7 -26 19 0 6 6 6 15 -2 9 -7 13 -15 11 -17z
m284 17 c0 -5 -2 -10 -4 -10 -3 0 -8 5 -11 10 -3 6 -1 10 4 10 6 0 11 -4 11
-10z m2210 1 c0 -9 -24 -21 -43 -21 -6 0 -2 7 9 15 22 17 34 19 34 6z m803 2
c-7 -2 -13 -11 -13 -18 0 -7 -9 -15 -20 -18 -19 -5 -19 -4 2 19 13 13 28 23
33 23 6 0 4 -3 -2 -6z m-5843 -33 c0 -5 -4 -10 -9 -10 -6 0 -13 5 -16 10 -3 6
1 10 9 10 9 0 16 -4 16 -10z m2690 -5 c-7 -8 -17 -15 -22 -15 -6 0 -5 7 2 15
7 8 17 15 22 15 6 0 5 -7 -2 -15z m3071 -16 c-12 -11 -20 -26 -18 -32 2 -7 -5
-20 -16 -29 -26 -23 -35 -23 -14 0 10 10 17 28 17 41 0 13 9 25 23 31 32 13
33 12 8 -11z m-1683 -2 c-7 -8 -20 -12 -30 -9 -25 6 -12 22 18 22 20 0 23 -2
12 -13z m-3643 -7 c3 -5 2 -10 -4 -10 -5 0 -13 5 -16 10 -3 6 -2 10 4 10 5 0
13 -4 16 -10z m2195 -10 c0 -5 -4 -10 -10 -10 -5 0 -10 5 -10 10 0 6 5 10 10
10 6 0 10 -4 10 -10z m1080 -10 c0 -5 -6 -10 -14 -10 -8 0 -18 5 -21 10 -3 6
3 10 14 10 12 0 21 -4 21 -10z m60 0 c0 -5 -9 -10 -20 -10 -11 0 -20 5 -20 10
0 6 9 10 20 10 11 0 20 -4 20 -10z m1515 -20 c3 -6 15 -10 25 -10 29 0 34 -19
8 -29 -16 -6 -25 -5 -31 5 -4 8 -15 14 -23 14 -24 0 -45 25 -32 38 12 12 41 1
53 -18z m-315 1 c0 -5 -7 -11 -15 -15 -15 -5 -20 5 -8 17 9 10 23 9 23 -2z
m33 -11 c-3 -11 -7 -20 -9 -20 -2 0 -4 9 -4 20 0 11 4 20 9 20 5 0 7 -9 4 -20z
m-1320 -5 c4 -8 2 -17 -3 -20 -6 -4 -10 -4 -10 -1 0 2 -3 11 -6 20 -3 9 -2 16
4 16 5 0 12 -7 15 -15z m147 -5 c0 -21 45 -50 80 -50 11 0 20 -4 20 -10 0 -9
-8 -11 -35 -10 -3 0 -18 -6 -34 -14 -25 -13 -29 -22 -34 -73 -4 -35 -2 -60 4
-64 17 -10 -32 -19 -101 -17 l-65 2 70 5 70 6 3 62 c2 38 8 66 17 73 27 22 16
29 -40 27 -57 -3 -65 4 -40 36 7 11 11 25 8 33 -4 11 5 14 36 14 34 0 41 -3
41 -20z m-3307 -5 c28 -18 547 -146 560 -138 6 3 7 1 4 -4 -8 -13 38 -23 99
-23 24 0 44 -4 44 -10 0 -21 -87 -8 -270 41 -105 28 -198 48 -206 45 -10 -4
-12 -2 -8 6 5 7 -1 9 -19 6 -15 -3 -24 -2 -22 2 2 3 -31 15 -73 24 -84 20
-142 43 -142 57 0 13 7 11 33 -6z m3077 5 c0 -5 -2 -10 -4 -10 -3 0 -8 5 -11
10 -3 6 -1 10 4 10 6 0 11 -4 11 -10z m1330 -10 c0 -5 -10 -10 -22 -10 -19 0
-20 2 -8 10 19 13 30 13 30 0z m-2065 -10 c-3 -5 -10 -10 -16 -10 -5 0 -9 5
-9 10 0 6 7 10 16 10 8 0 12 -4 9 -10z m2005 -12 c0 -19 -2 -20 -10 -8 -13 19
-13 30 0 30 6 0 10 -10 10 -22z m819 18 c-2 -2 -15 -9 -29 -16 -23 -12 -24
-12 -11 3 7 10 20 17 29 17 8 0 13 -2 11 -4z m-3039 -26 c0 -5 -4 -10 -10 -10
-5 0 -10 5 -10 10 0 6 5 10 10 10 6 0 10 -4 10 -10z m1060 -23 c0 -5 -4 -5
-10 -2 -5 3 -10 14 -10 23 0 15 2 15 10 2 5 -8 10 -19 10 -23z m1315 23 c3 -5
-3 -10 -14 -10 -11 0 -23 5 -26 10 -3 6 3 10 14 10 11 0 23 -4 26 -10z m413 3
c-10 -2 -28 -2 -40 0 -13 2 -5 4 17 4 22 1 32 -1 23 -4z m-5381 -9 c-3 -3 -12
-4 -19 -1 -8 3 -5 6 6 6 11 1 17 -2 13 -5z m5301 -1 c-10 -2 -26 -2 -35 0 -10
3 -2 5 17 5 19 0 27 -2 18 -5z m198 -4 c4 -7 22 -9 48 -5 29 4 37 3 26 -4 -21
-13 -48 -12 -95 5 -35 12 -37 14 -13 15 15 0 30 -5 34 -11z m-271 -6 c-100
-21 -146 -38 -160 -59 -9 -13 -22 -24 -31 -24 -26 0 48 57 96 73 25 9 61 16
80 15 19 0 26 -2 15 -5z m-425 -11 c0 -10 -22 -32 -32 -32 -5 0 -3 9 4 20 13
20 28 27 28 12z m-3715 -33 c-10 -15 -25 -10 -19 6 4 8 10 12 15 9 5 -3 7 -10
4 -15z m2315 11 c0 -5 -5 -10 -11 -10 -5 0 -7 5 -4 10 3 6 8 10 11 10 2 0 4
-4 4 -10z m-514 -39 c-7 -11 -95 -36 -102 -28 -5 5 71 35 94 36 7 1 11 -3 8
-8z m77 -1 c9 0 17 -4 17 -10 0 -5 -7 -10 -16 -10 -13 0 -15 -7 -10 -30 3 -16
2 -30 -3 -30 -10 0 -34 51 -27 58 3 3 -2 11 -12 19 -16 13 -15 14 8 9 14 -3
33 -6 43 -6z m1394 -20 c-3 -11 -1 -17 4 -14 5 3 16 -2 25 -10 14 -15 14 -16
-4 -16 -36 0 -82 12 -82 22 0 6 7 7 16 4 11 -4 18 1 21 14 3 11 10 20 15 20 6
0 8 -9 5 -20z m-1470 -22 c-3 -8 -6 -5 -6 6 -1 11 2 17 5 13 3 -3 4 -12 1 -19z
m1693 2 c0 -5 -4 -10 -10 -10 -5 0 -10 5 -10 10 0 6 5 10 10 10 6 0 10 -4 10
-10z m200 0 c0 -5 -2 -10 -4 -10 -3 0 -8 5 -11 10 -3 6 -1 10 4 10 6 0 11 -4
11 -10z m-2080 -30 c0 -5 -4 -10 -10 -10 -16 0 -160 -141 -160 -156 0 -7 10
-20 23 -28 20 -14 29 -14 81 0 32 8 60 13 62 11 4 -4 -156 -47 -173 -47 -4 0
-1 5 7 10 13 9 13 12 -2 21 -32 18 -19 45 66 127 78 77 106 96 106 72z m1956
-24 c-5 -28 -3 -35 11 -39 10 -3 29 -9 42 -12 14 -4 21 -3 18 2 -4 6 4 8 19 5
19 -3 22 -7 13 -18 -18 -22 -173 -18 -285 8 -52 12 -92 23 -90 25 4 4 103 -12
155 -24 20 -5 23 -3 18 11 -5 13 -2 15 17 10 36 -9 69 13 63 42 -3 17 0 24 10
24 12 0 14 -8 9 -34z m248 10 c-6 -15 -81 -52 -89 -44 -4 4 66 47 92 57 1 1 0
-5 -3 -13z m-114 -5 c0 -13 -25 -20 -40 -11 -10 6 -8 9 6 13 31 8 34 7 34 -2z
m-757 -8 c-46 -2 -120 -2 -165 0 -46 1 -9 3 82 3 91 0 128 -2 83 -3z m-1113
-24 c0 -11 -4 -17 -10 -14 -5 3 -10 13 -10 21 0 8 5 14 10 14 6 0 10 -9 10
-21z m1425 11 l30 -8 -30 0 c-16 0 -50 3 -75 7 l-45 8 45 1 c25 0 59 -4 75 -8z
m-805 -10 c-30 -5 -75 -8 -100 -7 -45 0 -45 0 10 7 30 4 75 7 100 7 44 0 44 0
-10 -7z m-1010 -14 c0 -3 -4 -8 -10 -11 -5 -3 -10 -1 -10 4 0 6 5 11 10 11 6
0 10 -2 10 -4z m838 -3 c-10 -2 -28 -2 -40 0 -13 2 -5 4 17 4 22 1 32 -1 23
-4z m-75 -10 c-7 -2 -21 -2 -30 0 -10 3 -4 5 12 5 17 0 24 -2 18 -5z m-953 -8
c0 -21 -35 -142 -43 -150 -6 -7 -8 -2 -4 15 4 14 12 51 18 83 6 31 16 57 20
57 5 0 9 -2 9 -5z m84 -4 c3 -5 -1 -11 -9 -15 -9 -3 -15 0 -15 9 0 16 16 20
24 6z m793 3 c-3 -3 -12 -4 -19 -1 -8 3 -5 6 6 6 11 1 17 -2 13 -5z m-50 -10
c-3 -3 -12 -4 -19 -1 -8 3 -5 6 6 6 11 1 17 -2 13 -5z m-1250 -56 c-2 -13 -4
-5 -4 17 -1 22 1 32 4 23 2 -10 2 -28 0 -40z m1190 46 c-3 -3 -12 -4 -19 -1
-8 3 -5 6 6 6 11 1 17 -2 13 -5z m-577 -8 c0 -3 -4 -8 -10 -11 -5 -3 -10 -1
-10 4 0 6 5 11 10 11 6 0 10 -2 10 -4z m517 -2 c-3 -3 -12 -4 -19 -1 -8 3 -5
6 6 6 11 1 17 -2 13 -5z m-824 -31 c6 -32 3 -38 -12 -28 -13 8 -15 55 -2 55 5
0 11 -12 14 -27z m167 17 c0 -5 -5 -10 -11 -10 -5 0 -7 5 -4 10 3 6 8 10 11
10 2 0 4 -4 4 -10z m541 -8 c-7 -2 -18 1 -23 6 -8 8 -4 9 13 5 13 -4 18 -8 10
-11z m-491 -18 c0 -8 -4 -12 -10 -9 -5 3 -10 10 -10 16 0 5 5 9 10 9 6 0 10
-7 10 -16z m447 10 c-3 -3 -12 -4 -19 -1 -8 3 -5 6 6 6 11 1 17 -2 13 -5z
m-44 -11 c-7 -2 -19 -2 -25 0 -7 3 -2 5 12 5 14 0 19 -2 13 -5z m-797 -11 c-7
-11 -114 -37 -122 -29 -7 6 80 35 109 36 10 1 16 -3 13 -7z m434 -2 c0 -5 -5
-10 -11 -10 -5 0 -7 5 -4 10 3 6 8 10 11 10 2 0 4 -4 4 -10z m313 3 c-7 -2
-19 -2 -25 0 -7 3 -2 5 12 5 14 0 19 -2 13 -5z m-50 -10 c-7 -2 -19 -2 -25 0
-7 3 -2 5 12 5 14 0 19 -2 13 -5z m-523 -43 c0 -5 -2 -10 -4 -10 -3 0 -8 5
-11 10 -3 6 -1 10 4 10 6 0 11 -4 11 -10z m200 0 c0 -5 -5 -10 -11 -10 -5 0
-7 5 -4 10 3 6 8 10 11 10 2 0 4 -4 4 -10z m-9 -51 c-40 -16 -75 -28 -78 -26
-5 6 118 56 137 56 8 0 -18 -13 -59 -30z m-113 9 c-3 -7 -13 -15 -24 -17 -16
-3 -17 -1 -5 13 16 19 34 21 29 4z m-36 -82 c-27 -25 -40 -32 -49 -24 -18 14
-16 31 2 24 8 -3 18 1 22 8 7 12 26 20 55 25 4 0 -9 -14 -30 -33z m-132 -6 c0
-5 -14 -10 -31 -10 -17 0 -28 4 -24 10 3 6 17 10 31 10 13 0 24 -4 24 -10z
m57 -6 c-3 -3 -12 -4 -19 -1 -8 3 -5 6 6 6 11 1 17 -2 13 -5z m-196 -26 c28 7
54 11 56 8 2 -2 -18 -9 -44 -15 -26 -7 -56 -14 -65 -17 -14 -4 -18 0 -18 18 0
18 2 20 9 9 8 -12 18 -13 62 -3z"/>
<path d="M4320 4921 c0 -6 5 -13 10 -16 6 -3 10 1 10 9 0 9 -4 16 -10 16 -5 0
-10 -4 -10 -9z"/>
<path d="M6096 4192 c-3 -6 -1 -14 5 -17 15 -10 25 3 12 16 -7 7 -13 7 -17 1z"/>
<path d="M7127 4033 c-18 -5 -17 -6 3 -20 16 -12 24 -12 35 -3 27 22 6 34 -38
23z"/>
<path d="M5230 3260 c0 -5 7 -10 15 -10 8 0 15 5 15 10 0 6 -7 10 -15 10 -8 0
-15 -4 -15 -10z"/>
<path d="M4833 3153 c9 -2 23 -2 30 0 6 3 -1 5 -18 5 -16 0 -22 -2 -12 -5z"/>
<path d="M4900 3093 c0 -13 5 -23 10 -23 13 0 13 11 0 30 -8 12 -10 11 -10 -7z"/>
<path d="M5060 3095 c0 -8 5 -15 10 -15 6 0 10 7 10 15 0 8 -4 15 -10 15 -5 0
-10 -7 -10 -15z"/>
<path d="M6050 2750 c0 -5 5 -10 10 -10 6 0 10 5 10 10 0 6 -4 10 -10 10 -5 0
-10 -4 -10 -10z"/>
<path d="M6000 2420 c0 -5 7 -10 15 -10 8 0 15 5 15 10 0 6 -7 10 -15 10 -8 0
-15 -4 -15 -10z"/>
<path d="M6050 2419 c0 -5 9 -9 20 -9 11 0 20 2 20 4 0 2 -9 6 -20 9 -11 3
-20 1 -20 -4z"/>
<path d="M7931 4100 c0 -8 4 -24 9 -35 5 -13 9 -14 9 -5 0 8 -4 24 -9 35 -5
13 -9 14 -9 5z"/>
<path d="M7984 4059 c-3 -6 -1 -16 5 -22 8 -8 11 -5 11 11 0 24 -5 28 -16 11z"/>
<path d="M7993 3700 c0 -25 2 -35 4 -22 2 12 2 32 0 45 -2 12 -4 2 -4 -23z"/>
<path d="M7940 3380 c0 -5 -7 -10 -15 -10 -21 0 -19 -10 16 -95 43 -102 59
-99 59 10 0 73 -3 86 -19 95 -25 13 -41 13 -41 0z"/>
<path d="M7722 3085 c-38 -58 -39 -63 -7 -71 19 -5 30 0 49 23 30 34 31 44 8
73 l-18 23 -32 -48z"/>
</g>
</svg>
