<?xml version="1.0" standalone="no"?>
<!DOCTYPE svg PUBLIC "-//W3C//DTD SVG 20010904//EN"
 "http://www.w3.org/TR/2001/REC-SVG-20010904/DTD/svg10.dtd">
<svg version="1.0" xmlns="http://www.w3.org/2000/svg"
 width="800.000000pt" height="800.000000pt" viewBox="0 0 800.000000 800.000000"
 preserveAspectRatio="xMidYMid meet">
<metadata>
Created by potrace 1.16, written by Peter Selinger 2001-2019
</metadata>
<g transform="translate(0.000000,800.000000) scale(0.100000,-0.100000)"
fill="#000000" stroke="none">
<path d="M0 4775 c0 -2502 3 -3225 12 -3225 9 0 9 -3 0 -12 -9 -9 -12 -114
-12 -411 l0 -399 25 4 c14 3 28 1 31 -3 3 -5 -2 -9 -11 -9 -12 0 -15 -6 -10
-19 4 -14 0 -21 -15 -26 -16 -5 -20 -15 -20 -53 0 -45 2 -48 38 -63 l38 -16
22 38 c18 31 20 42 11 69 -6 17 -9 34 -5 37 3 3 11 -7 17 -24 10 -30 11 -30
50 -21 31 8 39 15 39 34 0 12 -4 26 -10 29 -17 11 -11 20 15 21 24 2 35 -11
15 -18 -6 -2 -7 -14 -1 -35 9 -31 9 -31 -40 -43 -43 -11 -52 -18 -70 -52 -11
-22 -19 -41 -17 -42 33 -20 108 -56 117 -56 6 0 42 -15 81 -34 38 -19 70 -32
70 -28 0 3 6 -2 13 -11 21 -27 262 -153 329 -171 65 -17 118 -49 105 -62 -4
-4 -15 0 -24 8 -10 9 -55 27 -99 42 -45 15 -150 65 -234 111 -83 47 -153 85
-155 85 -2 0 -59 27 -127 59 -68 33 -135 62 -150 66 l-28 7 0 -276 0 -276
3119 0 c2486 0 3121 3 3125 13 5 9 7 9 12 0 4 -10 189 -13 875 -13 l869 0 0
2513 c0 1941 -3 2516 -12 2525 -9 9 -9 12 0 12 9 0 12 334 12 1475 l0 1475
-4000 0 -4000 0 0 -3225z m7457 3073 c-3 -8 -6 -5 -6 6 -1 11 2 17 5 13 3 -3
4 -12 1 -19z m-2198 -628 c52 -43 61 -56 61 -84 0 -59 21 -100 86 -166 l63
-65 -11 -43 c-9 -36 -18 -47 -65 -75 -42 -25 -56 -40 -65 -69 -6 -21 -14 -38
-19 -38 -14 0 -18 30 -5 42 7 7 17 21 22 31 6 10 32 32 59 50 36 23 51 41 58
66 8 32 5 36 -49 90 -62 61 -78 92 -89 164 -6 41 -14 52 -55 85 -26 20 -56 42
-66 49 -17 11 -17 12 -2 12 9 1 44 -22 77 -49z m-259 -23 c0 -2 -15 -16 -32
-33 l-33 -29 29 33 c28 30 36 37 36 29z m-129 -127 c5 0 9 -4 9 -9 0 -5 -11
-8 -24 -8 -23 0 -24 1 -13 25 9 20 13 22 15 9 2 -9 8 -17 13 -17z m-56 -111
c4 -6 -3 -21 -16 -35 -17 -18 -25 -21 -36 -13 -19 17 -16 26 10 25 16 -1 21 4
19 17 -3 19 13 23 23 6z m-95 -37 c0 -14 -66 -73 -73 -65 -4 4 7 22 25 40 31
32 48 41 48 25z m860 -422 c0 -5 -5 -10 -11 -10 -5 0 -7 5 -4 10 3 6 8 10 11
10 2 0 4 -4 4 -10z m1440 -310 c13 -8 13 -10 -2 -10 -9 0 -20 5 -23 10 -8 13
5 13 25 0z m-5400 -9 c0 -13 -41 -41 -60 -41 -9 0 -4 9 15 25 32 26 45 31 45
16z m5927 -53 c-3 -8 -6 -5 -6 6 -1 11 2 17 5 13 3 -3 4 -12 1 -19z m-5947 2
c0 -5 -4 -10 -10 -10 -5 0 -10 5 -10 10 0 6 5 10 10 10 6 0 10 -4 10 -10z
m2270 -114 c0 -2 -8 -10 -17 -17 -16 -13 -17 -12 -4 4 13 16 21 21 21 13z
m-129 -99 c-13 -13 -15 11 -4 40 7 16 8 15 11 -6 2 -13 -1 -28 -7 -34z m2256
1 c-3 -8 -6 -5 -6 6 -1 11 2 17 5 13 3 -3 4 -12 1 -19z m-3137 -103 c0 -8 -4
-15 -10 -15 -5 0 -7 7 -4 15 4 8 8 15 10 15 2 0 4 -7 4 -15z m-970 -126 c0 -5
-4 -9 -10 -9 -5 0 -10 7 -10 16 0 8 5 12 10 9 6 -3 10 -10 10 -16z m1390 1 c0
-5 -7 -10 -16 -10 -8 0 -12 5 -9 10 3 6 10 10 16 10 5 0 9 -4 9 -10z m3450
-18 c0 -5 -9 -17 -20 -27 -22 -20 -26 -14 -10 16 11 19 30 26 30 11z m-3566
-17 c-4 -8 -10 -15 -14 -15 -4 0 -13 7 -20 15 -11 13 -8 15 13 15 19 0 25 -4
21 -15z m45 1 c9 -11 7 -15 -9 -19 -22 -6 -35 7 -25 23 9 14 20 13 34 -4z m28
-18 c-3 -8 -6 -5 -6 6 -1 11 2 17 5 13 3 -3 4 -12 1 -19z m113 -38 c7 -13 7
-20 1 -20 -6 0 -15 9 -21 20 -7 13 -7 20 -1 20 6 0 15 -9 21 -20z m26 -35 c-3
-9 -10 -13 -16 -10 -6 4 -5 11 3 20 15 16 22 11 13 -10z m134 -68 c0 -5 -8 -7
-17 -5 -10 2 -17 10 -15 16 2 14 0 14 -21 6 -11 -4 -2 -17 33 -50 27 -25 51
-56 54 -70 9 -36 -17 -84 -90 -163 -36 -39 -64 -78 -64 -90 0 -23 27 -43 83
-61 36 -11 38 -14 31 -43 -11 -56 -29 -67 -109 -67 l-73 0 -11 -44 c-6 -25
-11 -51 -11 -59 0 -8 36 -38 79 -66 81 -54 91 -65 91 -106 0 -37 -36 -55 -109
-55 -46 0 -70 -5 -83 -17 -24 -21 -23 -43 2 -43 11 0 20 -5 20 -11 0 -7 -10
-9 -25 -5 -23 6 -25 4 -25 -30 l0 -37 -57 9 c-61 9 -180 10 -189 2 -3 -3 2
-21 10 -39 8 -19 17 -47 21 -62 5 -26 9 -28 35 -22 37 8 41 -12 5 -21 -38 -10
-51 0 -65 50 -12 45 -14 46 -32 30 -11 -11 -16 -25 -12 -36 4 -13 -2 -21 -21
-30 -22 -10 -26 -17 -21 -40 5 -28 -8 -48 -17 -26 -4 9 -6 8 -6 -3 -1 -23 49
-66 87 -74 20 -4 38 -16 47 -33 8 -15 14 -23 15 -19 0 13 -22 51 -34 59 -6 4
-7 10 -3 14 3 4 13 1 22 -6 13 -11 15 -9 15 14 0 15 4 25 9 22 15 -10 52 -87
46 -97 -4 -5 7 -9 23 -9 16 0 35 -7 42 -15 7 -9 15 -13 18 -11 2 3 13 -5 22
-17 17 -20 19 -21 25 -4 4 10 14 16 24 13 9 -2 26 -7 39 -11 18 -5 22 -2 22
16 0 12 6 30 14 38 8 9 16 25 18 36 4 27 65 78 84 71 8 -3 12 -2 9 3 -3 5 -1
12 5 16 15 9 12 25 -5 25 -19 0 -19 5 3 37 9 15 12 24 5 20 -18 -12 -23 6 -7
33 10 20 13 21 14 7 0 -11 4 -15 11 -11 8 5 10 -2 6 -21 -2 -16 0 -37 7 -47 8
-14 8 -20 -2 -27 -11 -6 -10 -12 5 -26 17 -18 18 -18 23 14 3 17 7 30 10 29 3
-2 13 4 22 12 14 13 14 16 1 24 -10 5 -18 4 -22 -3 -9 -14 -27 24 -27 54 1 24
36 34 36 11 0 -9 -4 -16 -10 -16 -5 0 -10 -4 -10 -9 0 -6 8 -9 19 -8 28 2 22
43 -8 57 -18 8 -21 14 -12 23 9 9 16 9 31 -1 26 -16 25 -9 -2 31 -54 76 -85
75 -108 -3 -16 -54 -18 -56 -94 -98 -43 -24 -81 -41 -84 -38 -7 8 -9 6 80 55
74 40 77 43 83 85 9 59 15 65 68 72 43 6 47 5 41 -11 -5 -13 -4 -16 4 -11 7 4
24 -6 42 -26 22 -23 33 -29 41 -21 8 8 8 17 0 30 -8 17 -5 25 18 47 18 18 31
24 35 17 4 -6 12 -11 19 -11 8 0 8 3 -1 12 -26 26 -10 30 17 4 20 -19 30 -24
33 -15 3 10 14 11 52 2 l47 -11 -27 29 c-20 20 -23 29 -13 29 19 0 65 -47 56
-57 -4 -3 3 -17 15 -30 22 -24 13 -32 -12 -10 -8 6 -12 8 -8 3 4 -5 0 -22 -8
-38 -12 -23 -13 -33 -3 -44 15 -19 27 -18 32 4 3 10 5 7 6 -10 1 -20 -3 -26
-14 -22 -21 9 -19 -6 7 -33 l21 -23 -59 -87 c-32 -47 -84 -114 -114 -147 -49
-53 -54 -64 -46 -83 14 -30 34 -36 41 -12 4 10 14 19 23 18 11 0 12 -3 5 -6
-7 -2 -13 -11 -13 -19 0 -8 -8 -18 -17 -21 -10 -4 -21 -11 -24 -16 -10 -14
-51 12 -43 26 4 7 4 9 -1 5 -4 -4 -13 -4 -19 1 -7 6 -26 -4 -54 -30 -43 -41
-52 -59 -29 -59 7 0 32 -48 56 -110 40 -105 52 -123 66 -100 8 13 25 13 25 1
0 -5 -9 -13 -20 -16 -11 -3 -20 -13 -20 -21 0 -8 -2 -14 -4 -14 -2 0 -13 -3
-23 -7 -15 -6 -16 -4 -6 8 10 13 7 29 -15 88 -15 39 -30 69 -33 66 -6 -5 -69
69 -69 81 0 4 14 -5 30 -21 17 -16 30 -23 30 -16 0 7 -15 25 -32 42 l-33 29
68 62 c60 54 65 62 50 73 -15 11 -15 13 5 19 12 4 26 5 31 1 14 -8 78 51 117
109 25 37 30 52 21 58 -6 4 -8 8 -3 8 5 0 3 7 -4 15 -10 12 -9 15 8 15 11 0
22 -5 24 -12 3 -7 16 5 31 27 l26 38 -22 31 c-12 17 -21 37 -19 43 2 7 -2 13
-8 13 -6 0 -8 -5 -4 -11 4 -7 0 -9 -14 -5 -12 4 -22 1 -25 -7 -6 -16 -59 -29
-82 -21 -11 4 -12 11 -5 24 6 12 20 17 45 15 24 -1 35 3 35 12 0 20 -49 63
-71 63 -21 0 -26 26 -6 33 8 3 6 7 -6 12 -10 4 -24 2 -32 -5 -19 -16 -19 -31
0 -24 11 5 14 2 9 -12 -11 -30 -51 -64 -68 -58 -12 5 -16 -1 -16 -22 0 -22 3
-25 10 -14 8 12 10 12 16 -3 10 -26 -5 -87 -32 -134 -20 -35 -30 -43 -54 -43
-16 0 -32 -5 -35 -10 -5 -8 -11 -7 -21 1 -12 10 -14 8 -12 -11 2 -13 -2 -25
-8 -27 -7 -2 -11 4 -10 14 2 34 -29 18 -52 -26 -27 -52 -28 -111 0 -106 10 2
20 0 23 -5 8 -14 -19 -57 -34 -52 -11 4 -12 -2 -7 -23 7 -26 6 -27 -10 -14
-16 12 -17 12 -11 -3 6 -18 -15 -43 -27 -31 -4 4 -11 1 -16 -7 -7 -11 -12 -12
-21 -3 -6 6 -18 9 -25 6 -17 -6 -18 9 -2 25 9 9 8 12 -5 12 -9 0 -22 -10 -28
-22 -6 -13 -13 -24 -14 -26 -2 -2 -15 9 -30 24 -26 26 -27 28 -9 41 11 8 27
12 37 9 19 -5 23 19 7 44 -6 9 -5 17 3 22 8 5 4 8 -9 8 -13 0 -24 8 -27 20 -4
16 -14 20 -46 20 -34 0 -42 -4 -46 -23 -4 -13 -3 -36 0 -52 14 -69 16 -79 21
-87 3 -4 0 -8 -5 -8 -10 0 -15 14 -12 33 0 4 -4 7 -9 7 -13 0 -13 -4 5 -47 24
-56 20 -108 -10 -127 -13 -9 -36 -16 -50 -16 -17 0 -25 -5 -25 -17 0 -15 -2
-16 -10 -3 -19 30 -42 -26 -25 -62 10 -25 31 -22 39 5 5 19 8 20 16 6 5 -9 23
-22 40 -29 16 -7 27 -16 24 -21 -3 -5 -13 -5 -24 1 -25 13 -29 13 -26 -6 4
-27 56 -63 103 -70 39 -6 46 -11 61 -45 9 -22 20 -39 24 -39 14 0 40 74 28 78
-6 2 -4 10 7 18 11 8 13 13 6 14 -21 0 -15 20 6 20 21 0 45 -25 37 -38 -3 -6
7 -12 22 -15 15 -3 29 -1 30 4 6 15 22 10 22 -6 0 -8 4 -15 8 -15 13 0 31
-100 18 -100 -6 0 -1 -9 12 -18 21 -16 22 -20 8 -31 -8 -7 -21 -9 -28 -5 -7 4
-5 -2 5 -13 9 -11 17 -24 17 -29 0 -5 -5 -2 -10 6 -7 11 -10 12 -10 2 0 -8 8
-16 18 -19 14 -3 18 -11 15 -28 -3 -12 0 -25 5 -29 6 -4 8 3 5 16 -4 21 -3 21
7 5 9 -13 9 -26 0 -50 -15 -43 -3 -167 16 -167 8 0 14 -5 14 -11 0 -6 -7 -9
-15 -5 -18 6 -18 5 -5 -28 6 -16 6 -27 -1 -31 -5 -4 -7 -21 -3 -40 6 -32 2
-38 -52 -89 -56 -53 -89 -69 -47 -23 12 13 19 31 17 45 -4 23 10 30 21 11 5
-7 14 -4 27 8 15 14 19 26 15 55 -3 21 -1 41 4 44 5 3 5 13 -1 24 -5 10 -10
33 -10 50 0 23 -4 31 -14 27 -7 -3 -19 0 -25 6 -8 8 -11 8 -11 -1 0 -19 -14
-14 -28 9 -13 20 -12 20 34 16 l47 -5 -7 76 c-6 73 -14 100 -23 75 -6 -16 -39
-17 -48 -3 -9 15 -27 0 -21 -17 4 -11 2 -13 -9 -10 -8 4 -17 2 -20 -3 -4 -6
-19 -10 -36 -10 -16 0 -39 -5 -52 -12 -50 -25 -52 -25 -75 1 -17 20 -24 23
-31 12 -6 -10 -10 -10 -16 -1 -4 6 1 17 11 25 18 13 18 14 0 34 -11 12 -24 21
-29 21 -6 0 -7 -3 -4 -7 4 -3 0 -15 -9 -24 -15 -17 -15 -20 -1 -43 10 -14 12
-26 6 -28 -10 -3 46 -153 68 -179 15 -18 17 -33 3 -24 -6 4 -10 -5 -10 -20 0
-18 -6 -29 -20 -32 -11 -3 -20 -9 -20 -14 0 -5 -7 -6 -15 -3 -8 4 -15 2 -15
-4 0 -5 -13 -8 -30 -6 -16 2 -41 -1 -54 -6 -17 -6 -26 -5 -29 3 -6 17 -44 -49
-52 -90 -6 -31 -2 -39 40 -84 62 -66 51 -74 -14 -12 l-52 49 11 51 c14 64 90
168 90 123 0 -13 81 -13 113 -1 32 12 40 37 24 69 -8 17 -23 29 -42 32 -26 5
-27 7 -10 13 26 9 25 36 -5 116 l-23 63 -13 -29 c-11 -26 -12 -26 -13 -5 -2
39 39 105 100 160 46 42 59 60 59 83 0 16 -5 29 -12 30 -7 0 -33 11 -58 24
-25 13 -55 29 -67 34 -13 6 -23 15 -23 20 0 5 -15 32 -34 59 -24 37 -32 58
-28 77 3 17 0 30 -9 36 -11 7 -11 9 3 9 9 0 19 -6 22 -12 3 -7 4 -1 3 14 -4
23 1 29 34 42 22 9 39 18 39 20 0 2 -12 31 -28 63 l-27 59 -48 -14 c-37 -10
-47 -18 -48 -35 -1 -18 -2 -18 -6 -4 -3 11 -11 16 -21 13 -9 -2 -39 -9 -65
-16 -74 -20 -67 -4 11 21 l69 22 9 191 9 192 48 55 c45 52 52 57 110 67 41 8
75 8 102 2 50 -12 64 -12 46 -1 -21 14 -6 39 26 43 19 2 29 10 31 23 5 26 41
54 70 55 20 0 21 2 10 22 -7 13 -18 27 -24 33 -17 15 -24 57 -12 72 19 23 47
14 94 -29 35 -32 45 -48 41 -65 -6 -32 21 -30 33 2 14 36 1 51 -89 110 -73 48
-76 51 -73 85 2 19 8 52 13 73 l10 37 79 0 c68 0 81 3 90 19 18 36 11 49 -36
65 -89 30 -97 77 -25 145 64 60 111 128 111 159 0 36 -76 105 -107 97 -33 -8
-28 8 14 45 l36 32 18 -23 c10 -13 19 -28 19 -32z m54 -25 c-6 -4 -14 -16 -18
-26 -5 -15 -9 -17 -19 -7 -9 10 -7 17 12 32 13 11 26 17 30 14 3 -3 1 -9 -5
-13z m814 -22 c2 -23 1 -23 -9 -6 -10 15 -19 17 -68 11 -38 -4 -53 -3 -46 3
10 11 63 20 100 18 14 -1 21 -9 23 -26z m-2278 -1 c0 -6 -4 -7 -10 -4 -5 3
-10 11 -10 16 0 6 5 7 10 4 6 -3 10 -11 10 -16z m1694 -43 c-7 -28 -24 -36
-24 -11 0 8 5 15 10 15 6 0 9 3 9 8 -3 14 1 25 6 20 4 -3 3 -17 -1 -32z m589
7 c2 -5 -9 -18 -24 -31 -30 -24 -37 -16 -19 19 11 19 35 26 43 12z m-1068 -14
c10 -15 2 -19 -24 -12 -17 4 -19 8 -9 14 18 12 26 11 33 -2z m-1105 -51 c0 -6
-7 -5 -15 2 -8 7 -15 17 -15 22 0 6 7 5 15 -2 8 -7 15 -17 15 -22z m1059 27
c-13 -13 -99 -22 -108 -11 -7 8 8 12 52 14 33 1 58 0 56 -3z m403 -17 c9 -7
19 -23 23 -35 6 -21 5 -21 -24 5 -30 26 -39 42 -23 42 5 0 15 -6 24 -12z
m-1102 -46 c0 -33 -4 -39 -30 -49 -30 -11 -30 -11 -30 22 0 22 7 37 23 48 33
23 37 21 37 -21z m1270 24 c0 -25 83 -65 96 -45 3 5 0 9 -5 9 -6 0 -11 5 -11
10 0 7 6 8 16 2 9 -5 25 -7 34 -5 9 3 33 -2 53 -11 30 -12 37 -20 37 -43 0
-49 -44 -74 -53 -30 -4 18 -5 17 -6 -7 -1 -24 -3 -26 -16 -16 -8 6 -20 10 -27
7 -8 -4 -7 -6 5 -6 10 -1 17 -9 17 -21 0 -30 -13 -24 -29 12 -13 29 -15 30
-22 11 -4 -12 -12 -24 -18 -28 -6 -3 -11 -18 -11 -33 -1 -25 -1 -26 -12 -7 -6
11 -19 26 -27 33 -15 11 -15 13 0 25 18 13 39 50 39 66 0 6 -7 11 -15 11 -8 0
-15 5 -15 12 0 8 -3 9 -10 2 -6 -6 -6 -21 0 -42 12 -42 -12 -55 -43 -23 l-21
21 22 0 c12 0 22 4 22 10 0 6 -9 6 -24 0 -13 -5 -27 -6 -31 -2 -4 4 -4 -3 -1
-15 6 -18 4 -22 -8 -17 -11 4 -13 11 -7 22 4 10 6 23 3 31 -3 10 0 12 11 8 11
-4 18 1 22 14 6 17 9 18 23 7 15 -12 16 -11 3 5 -13 16 -15 16 -32 1 -18 -16
-19 -16 -19 4 0 13 6 22 15 22 8 0 15 5 15 10 0 6 7 10 15 10 8 0 15 -6 15
-14z m60 -17 c0 -11 -3 -11 -24 -3 -23 9 -20 23 4 17 11 -3 20 -9 20 -14z
m560 12 c0 -12 -20 -25 -27 -18 -7 7 6 27 18 27 5 0 9 -4 9 -9z m-2214 -38
c-4 -4 -11 -1 -16 7 -16 25 -11 35 7 17 9 -9 13 -20 9 -24z m451 -59 c-12 -12
-37 5 -30 21 5 15 7 15 21 1 9 -9 13 -18 9 -22z m807 -18 c-6 -16 -24 -23 -24
-8 0 10 22 33 27 28 2 -2 1 -11 -3 -20z m-1134 -11 c7 -8 8 -15 2 -15 -5 0
-15 7 -22 15 -7 8 -8 15 -2 15 5 0 15 -7 22 -15z m1320 -34 c0 -16 -7 -37 -16
-45 -8 -9 -11 -16 -5 -16 6 0 11 -7 11 -16 0 -8 5 -12 10 -9 6 3 10 -1 10 -9
0 -8 -5 -18 -10 -21 -19 -12 -40 23 -40 64 0 23 -4 41 -10 41 -5 0 -10 5 -10
11 0 6 9 8 20 4 14 -5 20 -2 20 9 0 9 5 16 10 16 6 0 10 -13 10 -29z m-224
-18 c-11 -11 -19 6 -11 24 8 17 8 17 12 0 3 -10 2 -21 -1 -24z m-1046 12 c7
-8 8 -15 2 -15 -5 0 -15 7 -22 15 -7 8 -8 15 -2 15 5 0 15 -7 22 -15z m1296
-10 c-3 -8 3 -16 12 -19 12 -3 12 -4 -3 -3 -13 1 -21 11 -23 26 -3 15 0 21 8
16 6 -4 9 -13 6 -20z m118 -7 c7 -18 12 -34 11 -36 -7 -9 -63 13 -73 29 -16
25 -7 39 24 39 18 0 27 -8 38 -32z m2354 7 c-3 -3 -42 -12 -88 -20 -46 -8 -84
-16 -85 -17 -1 -2 -16 -24 -33 -49 -17 -25 -44 -52 -60 -58 -16 -7 -46 -37
-67 -66 -20 -30 -49 -62 -63 -71 -15 -10 -57 -47 -95 -82 -37 -36 -70 -62 -74
-59 -6 7 103 111 160 154 16 12 44 44 62 70 18 27 48 57 66 67 19 10 48 39 65
64 31 47 31 47 120 63 85 15 104 16 92 4z m-3724 -21 c9 -3 14 -10 11 -15 -7
-10 -35 0 -35 12 0 11 3 11 24 3z m1036 -4 c12 -8 11 -10 -7 -10 -13 0 -23 5
-23 10 0 13 11 13 30 0z m-980 -46 c0 -18 -14 -18 -30 1 -9 11 -9 15 -1 15 7
0 9 5 5 13 -5 8 -2 8 9 -2 9 -7 17 -20 17 -27z m1035 16 c8 -13 -5 -13 -25 0
-13 8 -13 10 2 10 9 0 20 -4 23 -10z m205 -28 c0 -7 -4 -10 -10 -7 -5 3 -10
16 -10 28 0 18 2 19 10 7 5 -8 10 -21 10 -28z m2100 23 c0 -8 -4 -15 -10 -15
-5 0 -10 7 -10 15 0 8 5 15 10 15 6 0 10 -7 10 -15z m2055 -16 c-6 -16 -9 -18
-16 -8 -4 8 -3 19 3 26 15 18 21 9 13 -18z m-3985 1 c23 -23 26 -40 6 -40 -7
0 -16 10 -20 23 -5 18 -8 19 -15 7 -12 -18 -26 -7 -18 15 8 20 23 19 47 -5z
m340 0 c0 -4 2 -23 5 -41 l6 -34 -13 35 c-11 29 -19 36 -46 38 -18 2 -30 7
-28 11 6 9 76 1 76 -9z m-1710 -42 c0 -6 -7 -5 -15 2 -8 7 -15 17 -15 22 0 6
7 5 15 -2 8 -7 15 -17 15 -22z m1010 6 c0 -8 -4 -14 -10 -14 -5 0 -10 9 -10
21 0 11 5 17 10 14 6 -3 10 -13 10 -21z m272 9 c27 -24 22 -32 -17 -26 -28 4
-35 2 -35 -10 0 -24 -25 -10 -27 14 -2 16 1 18 11 10 17 -14 29 -2 15 16 -17
20 30 17 53 -4z m4123 7 c3 -5 -3 -10 -14 -10 -12 0 -21 5 -21 10 0 6 6 10 14
10 8 0 18 -4 21 -10z m-4656 -32 c-8 -14 -14 -18 -17 -10 -4 13 17 46 25 38 3
-2 -1 -15 -8 -28z m-1294 1 c-4 -5 -1 -9 4 -9 20 0 11 -16 -9 -17 -25 -2 -35
14 -20 32 13 16 34 10 25 -6z m585 -14 c7 -8 8 -15 2 -15 -5 0 -15 7 -22 15
-7 8 -8 15 -2 15 5 0 15 -7 22 -15z m5230 5 c0 -5 -4 -10 -10 -10 -5 0 -10 5
-10 10 0 6 5 10 10 10 6 0 10 -4 10 -10z m-4277 -30 c-6 -23 -40 -50 -61 -50
-8 0 1 15 20 34 39 40 48 43 41 16z m4237 -10 c-8 -5 -21 -10 -29 -10 -11 0
-10 5 4 20 13 15 22 17 29 10 8 -8 6 -14 -4 -20z m-3470 -97 c0 -32 5 -45 20
-53 23 -12 18 -32 -6 -23 -9 3 -14 0 -12 -8 2 -9 -6 -14 -20 -14 -13 0 -30 -9
-37 -18 -7 -10 -16 -14 -19 -9 -8 14 4 43 15 36 5 -3 9 1 9 8 0 21 -16 39 -31
36 -8 -2 -12 3 -10 12 2 8 4 27 4 43 0 16 6 27 14 27 7 0 12 -3 12 -7 -3 -19
2 -33 12 -33 5 0 9 8 8 18 -3 30 1 37 12 22 8 -12 9 -10 5 10 -16 70 -16 74 4
35 11 -22 20 -59 20 -82z m-140 97 c0 -5 -7 -10 -15 -10 -8 0 -15 5 -15 10 0
6 7 10 15 10 8 0 15 -4 15 -10z m-323 -19 c1 -14 -3 -18 -13 -14 -17 6 -18 20
-1 26 6 3 12 6 12 6 1 1 1 -8 2 -18z m-1867 -11 c0 -5 -4 -10 -9 -10 -6 0 -13
5 -16 10 -3 6 1 10 9 10 9 0 16 -4 16 -10z m1410 -10 c0 -5 -6 -10 -14 -10 -8
0 -18 5 -21 10 -3 6 3 10 14 10 12 0 21 -4 21 -10z m60 0 c0 -5 -9 -10 -20
-10 -11 0 -20 5 -20 10 0 6 9 10 20 10 11 0 20 -4 20 -10z m393 -113 c11 0 16
-4 13 -12 -2 -7 1 -18 7 -24 6 -6 7 -11 2 -11 -17 1 -65 48 -65 64 0 10 -6 13
-15 10 -14 -6 -16 -1 -15 54 0 4 8 7 17 7 9 0 19 7 22 15 3 8 8 -12 11 -45 4
-50 8 -60 23 -58z m-506 66 c-3 -10 -5 -4 -5 12 0 17 2 24 5 18 2 -7 2 -21 0
-30z m-655 5 c-7 -7 -12 -8 -12 -2 0 6 3 14 7 17 3 4 9 5 12 2 2 -3 -1 -11 -7
-17z m1188 2 c0 -5 -5 -10 -11 -10 -5 0 -7 5 -4 10 3 6 8 10 11 10 2 0 4 -4 4
-10z m3996 -37 c-7 -7 -26 7 -26 19 0 6 6 6 15 -2 9 -7 13 -15 11 -17z m-5218
-3 c-9 -13 -16 -16 -23 -9 -7 7 -5 13 5 19 24 15 31 11 18 -10z m1516 -1 c15
-12 25 -23 23 -26 -5 -4 -77 36 -77 43 0 11 30 2 54 -17z m-2184 -9 c0 -5 -4
-10 -10 -10 -5 0 -10 5 -10 10 0 6 5 10 10 10 6 0 10 -4 10 -10z m424 -6 c9
-24 2 -26 -12 -4 -7 11 -8 20 -3 20 5 0 12 -7 15 -16z m2321 -39 c24 -42 26
-73 4 -59 -5 3 -7 9 -4 14 7 12 -25 61 -35 55 -4 -3 -7 6 -6 19 1 31 8 26 41
-29z m-2115 26 c0 -5 -7 -12 -16 -15 -24 -9 -28 -7 -14 9 14 17 30 20 30 6z
m1415 -28 c-7 -44 -13 -52 -25 -33 -6 9 -5 17 3 22 7 4 8 8 4 8 -8 0 10 40 19
40 3 0 3 -17 -1 -37z m-2181 12 c-4 -8 -10 -12 -15 -9 -14 8 -10 24 6 24 9 0
12 -6 9 -15z m1106 -5 c-30 -8 -58 -1 -40 10 6 4 23 5 38 2 l27 -6 -25 -6z
m-1321 -19 c-15 -5 -22 6 -14 19 6 9 10 9 16 -1 5 -8 4 -15 -2 -18z m2574 -21
c3 -11 2 -22 -2 -25 -10 -5 -32 41 -24 49 9 9 20 -2 26 -24z m-433 10 c0 -5
-4 -10 -9 -10 -6 0 -13 5 -16 10 -3 6 1 10 9 10 9 0 16 -4 16 -10z m920 -16
c0 -8 -5 -12 -10 -9 -6 4 -8 11 -5 16 9 14 15 11 15 -7z m-592 -22 c2 -14 -2
-22 -12 -22 -19 0 -29 17 -22 36 8 22 30 12 34 -14z m-2498 -12 c0 -16 -2 -30
-4 -30 -2 0 -6 14 -8 30 -3 17 -1 30 4 30 4 0 8 -13 8 -30z m85 8 c-3 -13 -9
-33 -12 -45 -5 -20 -23 -33 -23 -17 0 21 25 84 33 84 5 0 6 -10 2 -22z m6045
8 c0 -3 -4 -8 -10 -11 -5 -3 -10 -1 -10 4 0 6 5 11 10 11 6 0 10 -2 10 -4z
m-3415 -25 c-3 -6 -11 -8 -17 -5 -6 4 -5 9 3 15 16 10 23 4 14 -10z m596 -20
c-18 -32 -31 -25 -19 10 7 20 14 27 20 21 6 -6 6 -17 -1 -31z m-1031 8 c0 -11
-4 -17 -10 -14 -5 3 -10 13 -10 21 0 8 5 14 10 14 6 0 10 -9 10 -21z m850 -15
c-18 -21 -24 -10 -9 18 8 14 14 18 17 10 2 -7 -2 -19 -8 -28z m-2443 -42 c14
-31 37 -71 50 -88 19 -26 23 -43 23 -104 0 -92 13 -110 71 -103 32 5 44 1 64
-17 41 -39 76 -173 79 -307 1 -62 10 -75 34 -51 9 9 12 8 12 -4 0 -9 -4 -19
-10 -23 -11 -7 -3 -33 18 -57 8 -10 12 -25 8 -35 -6 -14 -9 -15 -16 -3 -5 8
-6 18 -4 22 3 4 0 8 -6 8 -6 0 -16 14 -21 30 -6 17 -15 30 -20 30 -5 0 -9 28
-7 63 3 94 -41 284 -73 313 -19 17 -55 12 -44 -6 3 -5 1 -10 -5 -10 -7 0 -10
7 -6 15 6 17 -9 21 -19 5 -4 -6 -18 -1 -35 12 -27 22 -29 28 -29 96 -1 81 -18
123 -57 141 -16 7 -21 16 -17 30 3 12 -4 36 -16 56 -11 20 -21 41 -21 46 0 22
21 -5 47 -59z m1873 42 c0 -8 -9 -14 -20 -14 -22 0 -23 1 -14 24 7 18 34 10
34 -10z m-400 6 c0 -5 -16 -10 -35 -10 -19 0 -35 5 -35 10 0 6 16 10 35 10 19
0 35 -4 35 -10z m-850 -10 c-20 -13 -33 -13 -25 0 3 6 14 10 23 10 15 0 15 -2
2 -10z m1485 -11 c4 -5 18 -15 32 -20 14 -5 23 -12 20 -16 -3 -3 -14 -2 -24 2
-10 5 -22 9 -28 10 -20 3 -45 17 -45 26 0 13 37 11 45 -2z m-325 -44 c0 -14
-4 -25 -10 -25 -5 0 -10 11 -10 25 0 14 5 25 10 25 6 0 10 -11 10 -25z m-200
5 c0 -5 -4 -10 -10 -10 -5 0 -10 5 -10 10 0 6 5 10 10 10 6 0 10 -4 10 -10z
m710 1 c0 -20 -13 -41 -21 -35 -5 3 -9 0 -9 -5 0 -6 -4 -11 -10 -11 -5 0 -19
-9 -30 -20 -20 -20 -56 -28 -45 -10 3 6 1 10 -5 10 -7 0 -9 -12 -4 -34 6 -33
5 -34 -18 -29 -19 5 -21 4 -11 -8 6 -8 9 -26 6 -40 -4 -24 -9 -26 -46 -25 -24
0 -42 -4 -45 -12 -2 -6 -9 -12 -15 -12 -8 0 -7 4 1 12 20 20 15 40 -8 33 -13
-4 -22 -1 -26 9 -3 8 -12 12 -21 9 -11 -4 -14 -2 -11 8 3 8 12 14 20 14 9 0
25 8 35 17 14 13 22 15 30 7 7 -7 15 -6 26 5 12 12 17 13 20 3 2 -6 3 0 1 15
-4 31 14 48 27 27 7 -11 9 -10 9 4 0 9 5 17 11 17 5 0 7 5 4 10 -3 6 1 10 9
10 9 0 16 -7 16 -15 0 -12 4 -13 18 -5 9 5 29 14 45 20 15 5 27 16 27 25 0 8
5 15 10 15 6 0 10 -4 10 -9z m346 -39 c-8 -9 -19 -12 -23 -8 -4 4 -1 11 6 15
8 5 10 14 6 21 -5 9 -4 11 3 6 7 -4 13 -1 13 6 1 7 3 5 6 -6 3 -10 -2 -25 -11
-34z m-2486 7 c0 -11 -5 -19 -11 -19 -16 0 -41 28 -35 39 10 16 46 0 46 -20z
m387 11 c-3 -11 -1 -20 5 -20 14 0 38 -26 31 -34 -11 -11 -23 -6 -23 10 0 8
-4 13 -10 9 -6 -3 -6 -15 0 -30 8 -21 7 -23 -11 -17 -11 5 -19 12 -17 17 2 4
-13 14 -32 21 -19 7 -27 13 -17 13 9 1 17 7 17 14 0 11 32 33 54 36 4 0 6 -8
3 -19z m1183 -15 c0 -8 -2 -15 -4 -15 -2 0 -6 7 -10 15 -3 8 -1 15 4 15 6 0
10 -7 10 -15z m258 -5 c3 -7 0 -10 -6 -7 -5 4 -13 -3 -17 -16 -6 -19 -8 -20
-12 -4 -10 39 23 64 35 27z m-1348 -26 c0 -8 -4 -12 -10 -9 -5 3 -10 10 -10
16 0 5 5 9 10 9 6 0 10 -7 10 -16z m1402 -6 c-6 -6 -15 -8 -19 -4 -4 4 -1 11
7 16 19 12 27 3 12 -12z m-2062 4 c0 -13 -12 -22 -22 -16 -10 6 -1 24 13 24 5
0 9 -4 9 -8z m2457 -24 c1 -18 -2 -26 -5 -18 -3 8 -9 18 -15 21 -5 4 -6 12 -3
18 13 20 23 11 23 -21z m-1949 -10 c20 -20 13 -32 -7 -14 -22 20 -43 14 -35
-9 4 -8 9 -13 13 -11 4 3 12 1 19 -3 9 -5 9 -12 -2 -26 -14 -19 -15 -19 -27 8
-7 15 -16 27 -21 27 -5 0 -4 9 2 20 12 22 40 26 58 8z m1304 -20 c-9 -9 -12
-7 -12 12 0 19 3 21 12 12 9 -9 9 -15 0 -24z m423 3 c-3 -6 -11 -11 -17 -11
-6 0 -6 6 2 15 14 17 26 13 15 -4z m-579 -15 c10 -8 17 -17 14 -19 -3 -3 -16
3 -30 13 -29 22 -14 27 16 6z m-1641 -16 c3 -5 1 -10 -4 -10 -6 0 -11 5 -11
10 0 6 2 10 4 10 3 0 8 -4 11 -10z m1819 4 c14 -5 14 -9 4 -22 -12 -13 -10
-14 10 -3 12 7 32 9 42 6 12 -4 20 -2 20 5 0 6 5 8 10 5 22 -13 -10 -32 -57
-34 -33 -1 -54 -8 -70 -23 -13 -12 -23 -17 -23 -11 0 6 7 16 15 23 8 7 15 20
15 30 0 14 8 30 16 30 1 0 10 -3 18 -6z m-614 -8 c0 -2 -3 -11 -6 -20 -5 -13
-8 -13 -20 -1 -19 19 -18 25 6 25 11 0 20 -2 20 -4z m500 -11 c0 -8 -4 -15 -9
-15 -13 0 -22 16 -14 24 11 11 23 6 23 -9z m-330 -30 c0 -8 -2 -15 -4 -15 -2
0 -6 7 -10 15 -3 8 -1 15 4 15 6 0 10 -7 10 -15z m290 -10 c-7 -9 -15 -13 -18
-10 -3 2 1 11 8 20 7 9 15 13 18 10 3 -2 -1 -11 -8 -20z m1504 8 c4 -9 1 -20
-6 -25 -18 -11 -21 -10 -44 8 -18 15 -18 15 4 10 18 -3 22 -1 18 10 -3 8 1 14
8 14 8 0 17 -8 20 -17z m-2718 -22 c18 15 20 -11 2 -30 -11 -12 -10 -13 6 -7
22 8 56 -19 56 -43 -1 -13 -3 -12 -15 4 -9 10 -28 19 -43 20 -20 0 -26 4 -24
18 2 9 -2 17 -8 17 -5 0 -10 10 -10 23 1 20 2 20 11 4 8 -14 14 -16 25 -6z
m1448 3 c9 -22 8 -24 -9 -24 -8 0 -15 9 -15 20 0 24 15 27 24 4z m-953 -10 c6
-3 5 -12 -3 -21 -6 -8 -11 -28 -10 -44 1 -16 -2 -29 -8 -29 -5 0 -10 7 -10 15
0 10 -10 15 -31 15 -19 0 -28 4 -24 11 4 5 -1 20 -11 32 -11 12 -15 19 -10 15
5 -4 14 -1 22 6 12 13 65 13 85 0z m-1201 -4 c0 -5 -2 -10 -4 -10 -3 0 -8 5
-11 10 -3 6 -1 10 4 10 6 0 11 -4 11 -10z m2200 0 c0 -6 13 -8 31 -5 21 4 28
2 24 -6 -5 -8 0 -9 16 -5 22 6 23 6 7 -7 -10 -8 -18 -19 -18 -24 0 -13 -58
-15 -65 -2 -4 5 -20 9 -36 9 -18 0 -28 4 -24 10 3 6 15 10 26 10 10 0 19 7 19
15 0 8 5 15 10 15 6 0 10 -5 10 -10z m185 0 c-3 -5 -11 -10 -16 -10 -6 0 -7 5
-4 10 3 6 11 10 16 10 6 0 7 -4 4 -10z m-501 -24 c-3 -9 -10 -13 -16 -10 -5 3
-4 12 3 20 15 18 22 13 13 -10z m186 14 c10 -6 12 -12 5 -19 -7 -7 -14 -4 -23
9 -13 21 -6 25 18 10z m-747 -7 c-7 -2 -19 -2 -25 0 -7 3 -2 5 12 5 14 0 19
-2 13 -5z m69 -29 c-3 -16 1 -29 9 -35 20 -12 4 -22 -26 -15 -27 7 -34 31 -10
40 8 3 15 12 15 21 0 8 4 15 9 15 4 0 6 -12 3 -26z m548 16 c0 -5 -9 -10 -21
-10 -11 0 -17 5 -14 10 3 6 13 10 21 10 8 0 14 -4 14 -10z m48 -22 c9 -9 12
-9 12 0 0 7 5 12 11 12 6 0 8 -9 4 -20 -5 -14 -2 -20 9 -20 9 0 16 -4 16 -10
0 -19 -27 -10 -55 20 -27 28 -24 45 3 18z m91 -4 c3 -3 0 -9 -7 -16 -8 -8 -15
-7 -26 5 -9 9 -16 18 -16 22 0 6 40 -3 49 -11z m232 -35 c16 -16 23 -17 41 -8
16 9 22 8 29 -2 6 -11 0 -15 -29 -17 -20 -2 -38 1 -40 7 -2 6 -10 11 -17 11
-15 0 -27 38 -17 54 4 7 8 4 10 -7 2 -11 13 -28 23 -38z m-411 32 c0 -12 -20
-25 -27 -18 -7 7 6 27 18 27 5 0 9 -4 9 -9z m-1866 -9 c2 -4 1 -14 -5 -22 -5
-8 -9 -11 -9 -6 0 5 -8 2 -17 -5 -15 -12 -16 -12 -10 3 5 15 3 16 -18 6 -15
-7 -21 -16 -18 -25 5 -13 3 -13 -17 -3 -22 12 -22 12 16 35 41 24 69 30 78 17z
m2469 -12 c4 -16 0 -20 -20 -20 -25 0 -26 0 -8 20 10 11 19 20 20 20 2 0 5 -9
8 -20z m-1358 -30 c-3 -6 -13 -10 -21 -10 -17 0 -19 37 -1 43 14 5 31 -19 22
-33z m468 1 c5 -22 -13 -34 -32 -21 -10 6 -10 12 0 28 15 23 24 21 32 -7z
m-1534 0 c9 -6 10 -11 2 -15 -6 -4 -15 -5 -20 -1 -5 3 -16 -1 -24 -9 -8 -8
-17 -12 -21 -9 -7 7 24 42 39 42 6 0 16 -3 24 -8z m646 -61 c15 0 26 7 30 21
5 15 10 18 18 10 7 -7 16 -7 30 1 17 9 19 8 14 -7 -4 -9 -7 -21 -7 -27 0 -6
-7 -8 -15 -5 -8 4 -17 1 -21 -4 -3 -6 -17 -9 -30 -6 -13 2 -24 0 -24 -4 0 -15
-15 -10 -27 9 -6 10 -8 31 -5 48 l7 29 3 -32 c3 -27 8 -33 27 -33z m-420 29
c-6 -16 -4 -20 6 -14 12 7 12 6 1 -6 -11 -12 -15 -11 -28 5 -11 16 -11 22 -1
28 21 13 29 9 22 -13z m664 -5 c2 -2 2 -7 -2 -10 -8 -9 -47 6 -47 17 0 9 37 3
49 -7z m1468 -27 c1 -30 -1 -35 -5 -17 -4 14 -13 25 -19 26 -31 2 -34 4 -22
17 26 28 44 17 46 -26z m-1998 -21 c1 -59 -10 -71 -55 -60 -18 5 -24 3 -22 -7
2 -8 -7 -15 -22 -17 -22 -2 -23 -1 -7 8 9 6 15 16 12 21 -4 5 -11 7 -16 4 -5
-4 -9 3 -9 14 0 16 6 21 25 21 14 0 25 -4 25 -9 0 -5 12 -11 26 -14 22 -4 25
-2 20 17 -3 11 -6 24 -6 29 0 4 -4 7 -10 7 -5 0 -7 -7 -4 -15 7 -18 -4 -19
-42 -5 l-27 11 23 21 c19 17 26 19 42 9 15 -9 20 -9 24 4 12 30 21 14 23 -39z
m1116 44 c3 -5 1 -10 -4 -10 -6 0 -11 5 -11 10 0 6 2 10 4 10 3 0 8 -4 11 -10z
m132 -7 c2 -6 -3 -13 -12 -16 -10 -5 -15 0 -15 14 0 21 21 22 27 2z m-1617 -3
c0 -12 -84 -70 -102 -70 -7 0 12 18 42 40 62 44 60 43 60 30z m1707 -42 c-3
-8 -6 -5 -6 6 -1 11 2 17 5 13 3 -3 4 -12 1 -19z m-1712 -18 c-5 -12 -4 -13 6
-2 7 6 17 12 22 12 13 0 -12 -29 -36 -42 -17 -8 -19 -8 -14 6 3 8 2 18 -3 21
-17 10 -11 21 10 21 14 0 19 -5 15 -16z m2106 3 c32 -17 33 -18 10 -21 -14 -2
-32 4 -45 17 -25 26 -11 27 35 4z m249 1 c0 -11 6 -13 19 -9 23 7 39 -13 17
-21 -12 -5 -13 -11 -4 -32 18 -43 30 -50 26 -18 -4 39 15 44 29 6 8 -22 8 -32
-1 -40 -7 -5 -16 -7 -19 -3 -11 11 -8 -8 13 -77 24 -77 23 -73 8 -67 -7 2 -34
-6 -60 -20 -39 -19 -48 -21 -48 -8 0 8 9 15 19 15 19 0 35 25 26 40 -3 4 2 10
10 14 8 3 15 0 15 -6 0 -8 3 -9 10 -2 10 10 2 47 -20 99 -5 11 -16 37 -24 57
-8 20 -24 41 -35 48 -17 9 -19 13 -9 25 17 19 28 19 28 -1z m-2223 -24 c-12
-31 -27 -40 -27 -16 0 13 25 46 35 46 2 0 -2 -13 -8 -30z m583 -21 c0 -6 -4
-7 -10 -4 -5 3 -10 11 -10 16 0 6 5 7 10 4 6 -3 10 -11 10 -16z m1470 11 c0
-5 -4 -10 -10 -10 -5 0 -10 5 -10 10 0 6 5 10 10 10 6 0 10 -4 10 -10z m331
-10 c9 0 22 -7 29 -15 10 -12 5 -11 -29 2 -23 9 -41 21 -41 27 0 6 5 5 12 -2
7 -7 20 -12 29 -12z m-2611 -5 c10 -12 16 -13 27 -3 11 9 16 9 23 -3 8 -11 13
-12 29 -2 18 11 19 10 16 -15 -1 -15 2 -35 7 -44 10 -20 8 -21 -16 -12 -9 3
-16 13 -16 20 0 21 -27 29 -45 14 -9 -7 -19 -9 -23 -5 -4 4 -1 10 6 12 19 7 3
23 -24 23 -23 0 -31 10 -17 23 10 11 19 8 33 -8z m1850 5 c0 -5 -5 -10 -11
-10 -5 0 -7 5 -4 10 3 6 8 10 11 10 2 0 4 -4 4 -10z m-1377 -36 c-3 -8 0 -14
6 -14 6 0 11 -7 11 -15 0 -18 12 -19 27 -4 8 8 13 8 17 0 4 -6 2 -11 -4 -11
-7 0 -10 -7 -6 -15 7 -18 -5 -20 -22 -3 -9 9 -12 8 -12 -5 0 -9 -6 -17 -12
-17 -16 1 -53 50 -38 50 6 0 13 -7 16 -15 4 -8 10 -15 15 -15 5 0 3 13 -6 30
-8 16 -16 33 -16 37 0 5 -12 6 -27 5 -18 -3 -24 0 -17 6 26 26 80 15 68 -14z
m1092 17 c-3 -6 -11 -11 -17 -11 -6 0 -6 6 2 15 14 17 26 13 15 -4z m2217 -3
c2 -13 9 -22 16 -20 18 3 15 -16 -5 -27 -15 -8 -15 -11 -3 -26 11 -13 11 -18
1 -24 -8 -5 -10 -18 -5 -34 4 -17 2 -27 -5 -27 -6 0 -11 10 -11 23 0 12 -7 33
-16 45 -8 12 -12 22 -8 22 3 0 0 7 -7 16 -11 14 -11 18 4 29 9 7 17 20 17 29
0 24 18 19 22 -6z m-2282 -20 c0 6 4 12 9 12 18 0 -1 -38 -25 -49 -37 -16 -54
-14 -54 9 0 12 5 17 13 14 8 -3 20 2 27 11 11 13 15 13 21 3 7 -10 9 -10 9 0z
m756 1 c3 -6 -2 -18 -11 -27 -17 -16 -17 -16 -12 1 5 12 1 17 -11 17 -15 0
-15 2 -2 10 20 13 27 12 36 -1z m509 -5 c17 -17 17 -35 0 -36 -6 0 -18 -6 -29
-14 -16 -11 -22 -10 -43 3 l-23 16 26 13 c31 17 37 17 29 4 -3 -5 1 -10 9 -10
19 0 21 11 4 28 -8 8 -9 12 -1 12 6 0 19 -7 28 -16z m-160 -8 c8 -7 11 -17 7
-21 -4 -4 4 -4 18 0 24 7 24 7 7 -11 -17 -18 -19 -18 -28 -2 -5 9 -16 24 -25
33 -9 9 -11 15 -4 15 6 0 18 -6 25 -14z m-1765 -6 c0 -5 -4 -10 -10 -10 -5 0
-10 5 -10 10 0 6 5 10 10 10 6 0 10 -4 10 -10z m1610 0 c11 -6 17 -17 14 -25
-4 -8 -1 -15 5 -15 6 0 11 -16 11 -35 0 -26 -4 -33 -15 -29 -8 3 -14 9 -13 12
2 21 -4 32 -17 32 -20 0 -36 41 -23 58 13 15 14 15 38 2z m-2285 -10 c3 -5 0
-10 -9 -10 -8 0 -16 -6 -19 -12 -2 -7 -8 -10 -12 -6 -8 8 12 38 26 38 4 0 11
-4 14 -10z m2415 -6 c0 -17 -22 -14 -28 4 -2 7 3 12 12 12 9 0 16 -7 16 -16z
m-799 -21 c-8 -15 -10 -15 -11 -2 0 17 10 32 18 25 2 -3 -1 -13 -7 -23z m379
-14 c0 -12 -7 -19 -19 -19 -16 0 -19 6 -17 28 2 15 4 29 5 31 3 11 31 -24 31
-40z m990 -1 c0 -15 -4 -30 -10 -33 -6 -4 -9 4 -7 17 1 17 -3 23 -15 22 -10
-1 -18 1 -18 5 0 12 8 17 30 17 15 0 20 -7 20 -28z m-490 12 c0 -5 -4 -10 -10
-10 -5 0 -10 5 -10 10 0 6 5 10 10 10 6 0 10 -4 10 -10z m-2100 -15 c0 -8 -2
-15 -4 -15 -2 0 -6 7 -10 15 -3 8 -1 15 4 15 6 0 10 -7 10 -15z m1798 -23 c2
-7 -2 -10 -12 -6 -9 3 -16 11 -16 16 0 13 23 5 28 -10z m641 -1 c9 -17 6 -19
-27 -24 -45 -5 -47 -4 -32 22 13 26 46 27 59 2z m-3170 -7 c-18 -22 -20 -42
-4 -48 8 -3 11 -15 8 -30 -9 -45 -21 -38 -28 16 -6 43 -5 54 11 65 24 18 29
16 13 -3z m2048 1 c9 -25 -4 -29 -17 -6 -7 15 -7 21 0 21 6 0 13 -7 17 -15z
m178 5 c3 -5 -1 -10 -10 -10 -9 0 -13 5 -10 10 3 6 8 10 10 10 2 0 7 -4 10
-10z m-1085 -31 c0 -5 -4 -9 -10 -9 -5 0 -10 7 -10 16 0 8 5 12 10 9 6 -3 10
-10 10 -16z m1380 10 c0 -5 5 -7 10 -4 6 3 10 -1 10 -9 0 -24 -18 -28 -29 -7
-14 25 -14 31 -1 31 6 0 10 -5 10 -11z m-1870 -3 c0 -3 -4 -8 -10 -11 -5 -3
-10 -1 -10 4 0 6 5 11 10 11 6 0 10 -2 10 -4z m1836 -63 c-10 -11 -26 18 -25
47 0 24 1 23 16 -7 9 -18 13 -36 9 -40z m254 47 c0 -5 -5 -10 -11 -10 -5 0 -7
5 -4 10 3 6 8 10 11 10 2 0 4 -4 4 -10z m-3120 -10 c0 -5 -4 -10 -10 -10 -5 0
-10 5 -10 10 0 6 5 10 10 10 6 0 10 -4 10 -10z m2359 -66 c-43 -56 -66 -61
-33 -7 19 31 66 75 73 68 2 -3 -16 -30 -40 -61z m344 35 c-4 -13 -9 -17 -16
-10 -12 12 -1 45 12 37 5 -3 7 -15 4 -27z m1678 19 c4 -35 -3 -71 -16 -85 -21
-20 -41 -11 -47 21 -4 21 -1 26 14 26 10 0 18 6 17 13 -3 26 2 37 16 37 8 0
16 -6 16 -12z m-95 -24 c-4 -9 -9 -15 -11 -12 -3 3 -3 13 1 22 4 9 9 15 11 12
3 -3 3 -13 -1 -22z m-4296 -15 c0 -10 -4 -19 -10 -19 -5 0 -10 12 -10 26 0 14
4 23 10 19 6 -3 10 -15 10 -26z m510 21 c0 -5 -4 -10 -10 -10 -5 0 -10 5 -10
10 0 6 5 10 10 10 6 0 10 -4 10 -10z m605 -18 c-3 -3 0 -11 5 -17 7 -9 6 -14
-4 -18 -10 -4 -18 4 -24 23 -12 32 -5 45 15 28 7 -6 11 -13 8 -16z m593 0 c6
-18 -15 -14 -22 4 -4 10 -1 14 6 12 6 -2 14 -10 16 -16z m81 9 c10 -7 11 -13
2 -27 -6 -11 -11 -14 -11 -7 0 6 -7 19 -16 27 -17 18 0 23 25 7z m859 0 c11
-6 10 -11 -3 -25 -22 -21 -25 -20 -25 9 0 26 6 30 28 16z m140 -12 c-2 -6 -8
-10 -13 -10 -5 0 -11 4 -13 10 -2 6 4 11 13 11 9 0 15 -5 13 -11z m-2800 -58
c-7 -9 -13 -17 -14 -19 -1 -1 -9 0 -18 4 -16 6 -16 8 0 25 21 23 51 15 32 -10z
m3132 15 c0 -3 -4 -8 -10 -11 -5 -3 -10 -1 -10 4 0 6 5 11 10 11 6 0 10 -2 10
-4z m125 -81 c-8 -19 -20 -37 -25 -40 -15 -10 -12 41 4 54 7 6 17 26 21 44 l8
32 4 -28 c3 -16 -3 -44 -12 -62z m-2188 43 c-3 -8 -6 -5 -6 6 -1 11 2 17 5 13
3 -3 4 -12 1 -19z m853 -11 c0 -4 -8 -7 -17 -5 -10 2 -18 -4 -19 -12 -2 -33
-5 -38 -21 -44 -10 -3 -24 -9 -30 -12 -8 -4 -13 2 -13 15 0 14 6 21 20 21 21
0 27 15 10 25 -18 11 -10 34 13 37 23 4 57 -11 57 -25z m100 17 c0 -14 -3 -14
-15 -4 -8 7 -15 14 -15 16 0 2 7 4 15 4 8 0 15 -7 15 -16z m990 -3 c0 -6 -12
-16 -27 -23 -21 -11 -28 -20 -26 -41 1 -19 -3 -27 -14 -27 -11 0 -14 8 -11 30
4 24 1 29 -11 26 -47 -14 -75 -18 -66 -9 9 9 74 30 118 39 11 2 22 6 25 9 8 8
12 6 12 -4z m1370 -11 c0 -11 -2 -20 -4 -20 -2 0 -11 -3 -20 -6 -19 -7 -21 11
-3 31 17 20 27 18 27 -5z m-3100 -29 c0 -12 -20 -25 -27 -18 -7 7 6 27 18 27
5 0 9 -4 9 -9z m940 -11 c0 -5 -4 -10 -10 -10 -5 0 -10 5 -10 10 0 6 5 10 10
10 6 0 10 -4 10 -10z m317 -16 c-9 -9 -28 6 -21 18 4 6 10 6 17 -1 6 -6 8 -13
4 -17z m-1187 7 c0 -5 -7 -17 -16 -25 -8 -9 -12 -16 -7 -16 4 0 -6 -9 -24 -20
-29 -18 -35 -18 -67 -5 -32 14 -36 13 -75 -15 -22 -17 -51 -30 -63 -30 -29 1
-74 25 -61 33 5 3 15 2 23 -4 27 -16 60 -9 101 21 39 28 43 29 73 16 27 -11
37 -11 58 0 15 8 29 23 33 34 6 20 25 28 25 11z m990 -1 c0 -5 -4 -10 -10 -10
-5 0 -10 5 -10 10 0 6 5 10 10 10 6 0 10 -4 10 -10z m437 -12 c-2 -21 2 -23
46 -21 38 1 47 -2 47 -15 0 -15 14 -17 129 -14 93 2 131 0 137 -9 5 -9 1 -10
-14 -7 -23 6 -32 -17 -10 -24 7 -3 9 -11 3 -24 -7 -17 -9 -15 -18 14 -8 26
-15 32 -38 32 -19 0 -29 -5 -29 -15 0 -8 -4 -15 -10 -15 -5 0 -10 7 -10 15 0
12 -13 15 -57 14 -32 0 -76 -3 -98 -7 -34 -7 -37 -9 -17 -14 30 -8 26 -42 -4
-46 -16 -2 -23 4 -28 22 -7 27 -36 36 -36 12 0 -8 -7 -17 -16 -20 -12 -5 -15
-2 -10 10 6 16 -14 16 -91 -3 -13 -3 -23 -1 -23 5 0 6 33 16 73 22 78 14 96
26 66 48 -23 16 -26 62 -4 62 9 0 14 -8 12 -22z m278 10 c37 -17 32 -38 -10
-38 -19 0 -35 5 -35 10 0 6 7 10 16 10 14 0 14 3 4 15 -15 18 -9 19 25 3z
m325 5 c-1 -12 -50 -45 -50 -34 0 5 7 17 16 25 16 17 34 21 34 9z m1213 -25
c11 -15 17 -31 12 -35 -4 -5 -10 -2 -13 6 -3 8 -16 26 -29 39 -18 18 -20 23
-7 20 9 -2 26 -15 37 -30z m-3750 14 c3 -4 -5 -19 -18 -34 -24 -28 -48 -21
-25 7 6 8 9 19 5 25 -3 5 2 10 14 10 11 0 22 -3 24 -8z m1187 4 c0 -2 -7 -9
-15 -16 -12 -10 -15 -10 -15 4 0 9 7 16 15 16 8 0 15 -2 15 -4z m270 -11 c0
-8 -4 -15 -10 -15 -5 0 -7 7 -4 15 4 8 8 15 10 15 2 0 4 -7 4 -15z m2710 -5
c0 -5 -4 -10 -9 -10 -6 0 -13 5 -16 10 -3 6 1 10 9 10 9 0 16 -4 16 -10z
m-3130 -15 c0 -8 -7 -15 -15 -15 -16 0 -20 12 -8 23 11 12 23 8 23 -8z m850 5
c0 13 1 13 10 0 15 -23 12 -30 -10 -30 -14 0 -20 7 -20 23 0 18 2 19 10 7 9
-13 10 -13 10 0z m583 -15 c-7 -21 -13 -19 -13 6 0 11 4 18 10 14 5 -3 7 -12
3 -20z m-2308 5 c-3 -5 0 -10 7 -11 7 0 3 -4 -10 -10 -13 -5 -20 -13 -17 -19
3 -5 -1 -10 -9 -10 -19 0 -22 46 -3 53 21 9 38 7 32 -3z m135 0 c0 -5 -4 -10
-10 -10 -5 0 -10 5 -10 10 0 6 5 10 10 10 6 0 10 -4 10 -10z m345 -10 c3 -5 1
-10 -4 -10 -6 0 -11 5 -11 10 0 6 2 10 4 10 3 0 8 -4 11 -10z m655 -6 c0 -9
-5 -12 -12 -8 -10 6 -10 4 0 -7 6 -7 12 -17 12 -21 0 -12 -35 -9 -48 4 -14 14
-16 42 -3 33 5 -3 12 -1 16 5 10 16 35 12 35 -6z m1080 6 c0 -5 -4 -10 -9 -10
-6 0 -13 5 -16 10 -3 6 1 10 9 10 9 0 16 -4 16 -10z m65 0 c-3 -5 -11 -10 -16
-10 -6 0 -7 5 -4 10 3 6 11 10 16 10 6 0 7 -4 4 -10z m-1505 -32 c0 -19 -2
-20 -10 -8 -13 19 -13 30 0 30 6 0 10 -10 10 -22z m828 -18 c-1 -32 2 -31 -98
-34 -19 -1 -41 -7 -48 -14 -8 -7 -24 -9 -38 -6 -20 5 -26 2 -31 -15 -8 -30
-21 -26 -15 4 4 23 15 29 51 27 8 0 21 7 27 16 10 13 16 14 24 5 17 -16 67 1
91 32 25 30 38 25 37 -15z m-1278 15 c0 -8 -2 -15 -4 -15 -2 0 -6 7 -10 15 -3
8 -1 15 4 15 6 0 10 -7 10 -15z m130 5 c0 -5 -4 -10 -10 -10 -5 0 -10 5 -10
10 0 6 5 10 10 10 6 0 10 -4 10 -10z m-240 -15 c14 -16 10 -18 -14 -9 -9 3
-16 10 -16 15 0 14 16 11 30 -6z m478 3 c-2 -6 -10 -14 -16 -16 -7 -2 -10 2
-6 12 7 18 28 22 22 4z m-948 -13 c-7 -8 -42 -24 -79 -35 -55 -16 -75 -29
-121 -75 -58 -59 -94 -77 -44 -22 16 17 40 44 53 59 l24 28 -26 -13 c-14 -6
-23 -15 -21 -18 2 -4 -4 -13 -13 -20 -14 -12 -15 -11 -9 8 5 15 2 25 -11 33
-15 10 -14 11 10 7 24 -4 28 -2 24 15 -4 14 -2 16 6 10 20 -16 67 -11 67 7 0
13 2 13 9 2 7 -11 17 -11 60 -1 28 6 54 16 57 21 3 5 10 9 16 9 7 0 6 -5 -2
-15z m774 -2 c10 4 16 1 16 -9 0 -9 5 -12 13 -8 6 4 2 -4 -10 -17 -12 -13 -22
-28 -22 -34 1 -19 -19 -15 -24 6 -3 11 -10 18 -15 15 -6 -3 -12 0 -15 8 -7 18
25 59 34 44 4 -6 14 -8 23 -5z m526 7 c0 -5 -10 -10 -23 -10 -12 0 -33 -7 -45
-16 -19 -13 -22 -13 -22 0 0 8 12 19 28 24 36 14 62 14 62 2z m1150 -21 c0 -5
-4 -9 -10 -9 -5 0 -10 7 -10 16 0 8 5 12 10 9 6 -3 10 -10 10 -16z m1390 0 c0
-6 9 -9 20 -6 21 5 70 -12 70 -25 0 -5 -18 -8 -40 -8 -22 0 -40 5 -40 10 0 6
-6 10 -13 10 -8 0 -14 7 -14 15 0 8 4 15 9 15 4 0 8 -5 8 -11z m-2475 -9 c-3
-5 -10 -10 -16 -10 -5 0 -9 5 -9 10 0 6 7 10 16 10 8 0 12 -4 9 -10z m240 -11
c5 -5 -12 -9 -41 -9 -30 0 -59 -7 -74 -17 -22 -16 -23 -16 -17 1 4 10 7 20 7
22 0 2 9 4 20 4 11 0 20 4 20 9 0 11 71 2 85 -10z m705 5 c-8 -8 -9 -14 -4
-12 5 2 10 -1 12 -7 7 -22 -25 -14 -36 10 -11 23 -10 25 14 25 23 0 25 -2 14
-16z m177 -11 l-5 -28 18 23 c22 27 25 27 49 3 19 -19 19 -19 1 -24 -12 -3
-21 1 -24 12 -3 9 -4 -1 -1 -21 2 -24 0 -38 -8 -38 -8 0 -8 -3 1 -12 17 -17
15 -28 -5 -28 -14 0 -15 -2 -4 -9 7 -5 25 -4 41 2 21 8 25 13 16 23 -6 6 -14
10 -18 7 -5 -2 -8 3 -8 12 0 13 5 15 18 9 9 -4 27 -8 40 -8 26 -1 26 -4 10
-54 -11 -37 -12 -38 -30 -20 -18 18 -39 24 -37 11 1 -5 0 -10 -1 -13 -1 -3 -3
-20 -5 -38 -3 -31 -2 -32 15 -17 10 9 27 15 37 13 10 -2 23 3 30 12 11 13 12
12 13 -6 0 -31 -33 -94 -38 -71 -2 10 -13 17 -26 17 -17 0 -21 -6 -21 -25 1
-14 5 -28 8 -32 21 -21 -15 -35 -53 -21 -23 9 -24 10 -7 22 21 16 22 26 2 26
-8 0 -15 5 -15 10 0 6 7 10 15 10 8 0 15 5 15 11 0 6 -7 9 -15 6 -8 -4 -17 -2
-20 3 -4 6 1 10 9 10 9 0 16 7 16 15 0 8 -4 15 -10 15 -5 0 -10 5 -10 11 0 6
7 9 15 6 8 -4 17 -2 20 3 3 5 -5 12 -19 16 -14 3 -25 9 -24 13 0 3 0 21 -1 39
-1 23 -6 32 -18 32 -10 0 -14 4 -8 8 6 4 11 14 13 22 4 24 24 70 29 70 3 0 3
-12 0 -27z m-1947 -7 c0 -17 9 -28 30 -38 31 -13 40 -41 18 -55 -7 -4 -13 -16
-14 -25 -3 -57 -5 -68 -15 -68 -7 0 -9 11 -5 30 3 19 2 29 -4 25 -6 -3 -10
-13 -10 -21 0 -8 -5 -14 -11 -14 -8 0 -8 -5 1 -15 7 -8 20 -15 30 -15 20 0 53
-45 47 -63 -2 -6 -12 3 -22 20 -16 27 -23 31 -49 27 -23 -4 -27 -3 -17 4 12 9
11 13 -10 22 -14 6 -26 20 -26 32 -2 16 3 19 23 15 16 -3 24 0 24 9 0 8 -4 14
-10 14 -5 0 -10 9 -10 20 0 27 16 25 25 -2 7 -22 8 -22 12 5 5 34 -2 57 -18
57 -8 0 -8 -4 1 -15 10 -12 9 -15 -7 -15 -12 0 -24 -11 -30 -27 -10 -24 -11
-18 -7 36 2 38 9 68 16 73 24 14 38 8 38 -16z m730 14 c0 -4 -6 -11 -12 -13
-10 -4 -9 -8 2 -16 8 -5 12 -13 8 -16 -7 -8 -38 23 -38 39 0 6 9 12 20 13 11
1 20 -2 20 -7z m-945 -10 c3 -5 1 -10 -4 -10 -6 0 -11 -4 -11 -10 0 -5 7 -10
15 -10 9 0 20 -10 25 -22 5 -13 9 -17 9 -8 1 11 13 15 54 14 49 0 52 -2 50
-25 -1 -13 -7 -37 -14 -54 -9 -24 -13 -26 -16 -12 -3 12 -10 16 -24 12 -16 -5
-19 -2 -18 22 0 24 2 25 8 8 7 -18 8 -17 13 6 4 20 0 25 -19 27 -13 1 -23 -3
-23 -8 0 -6 -7 -10 -16 -10 -10 0 -14 -6 -11 -14 8 -19 -31 -32 -47 -16 -8 10
-5 11 14 5 l25 -7 -21 20 c-12 12 -25 27 -28 34 -5 10 -7 10 -12 0 -3 -6 -10
-10 -14 -7 -16 10 11 54 29 48 12 -3 11 -1 -3 11 -19 16 -19 16 6 16 15 0 30
-4 33 -10z m1568 -30 c-3 -11 -9 -20 -14 -20 -10 0 -12 33 -3 43 12 12 22 -3
17 -23z m197 -5 c0 -8 -4 -15 -10 -15 -5 0 -10 7 -10 15 0 8 5 15 10 15 6 0
10 -7 10 -15z m286 -92 c-6 -92 -12 -119 -39 -178 -28 -60 -32 -80 -32 -150 0
-44 2 -86 5 -94 3 -7 -1 -16 -7 -18 -8 -3 -13 4 -13 19 0 13 -4 28 -9 34 -16
17 9 166 36 213 33 57 47 189 19 178 -23 -9 -22 38 2 55 10 7 21 21 25 31 15
40 20 10 13 -90z m-2641 77 c28 -31 8 -37 -23 -7 -19 20 -22 27 -11 27 9 0 24
-9 34 -20z m925 -10 c17 -17 18 -21 6 -26 -8 -3 -12 -12 -9 -20 3 -8 1 -14 -3
-14 -8 0 -23 25 -41 68 -8 19 25 14 47 -8z m873 6 c4 -10 -5 -16 -29 -21 -30
-5 -33 -8 -20 -20 8 -8 19 -15 25 -15 6 0 11 -5 11 -11 0 -7 -9 -9 -22 -5 -13
3 -29 6 -36 6 -7 0 -10 5 -7 10 3 6 -2 10 -12 10 -13 0 -18 8 -18 25 0 25 10
34 17 14 2 -7 15 -6 38 4 45 20 47 20 53 3z m1225 -11 c9 -20 9 -25 -2 -25
-13 0 -26 20 -26 41 0 18 17 8 28 -16z m-1478 -6 c0 -5 -4 -9 -10 -9 -5 0 -10
7 -10 16 0 8 5 12 10 9 6 -3 10 -10 10 -16z m2416 -20 c14 -15 14 -21 4 -34
-17 -21 -30 -19 -30 5 0 11 -4 20 -8 20 -5 0 -9 6 -9 13 0 19 24 17 43 -4z
m-3318 -25 c6 -29 21 -41 32 -24 8 12 10 11 10 -7 0 -15 5 -21 14 -17 17 7 25
-14 15 -46 -5 -19 -7 -20 -8 -6 -1 11 -4 16 -8 13 -3 -4 -15 0 -25 10 -17 15
-18 15 -19 -8 -1 -19 -2 -20 -6 -5 -4 15 -7 16 -14 5 -6 -10 -9 -6 -9 14 0 16
4 26 10 22 6 -3 10 -2 10 4 0 5 -5 11 -11 13 -5 2 -12 16 -13 31 -4 31 17 32
22 1z m1268 5 c10 -17 -13 -36 -27 -22 -12 12 -4 33 11 33 5 0 12 -5 16 -11z
m-845 -16 c7 -7 5 -14 -3 -21 -16 -13 -59 4 -66 26 -4 14 53 11 69 -5z m1326
-19 c-3 -23 -23 -36 -21 -14 1 6 2 19 3 31 0 11 6 17 11 14 6 -4 9 -18 7 -31z
m-2475 -9 c4 -26 21 -22 30 7 6 22 6 22 7 -3 1 -28 -21 -53 -40 -47 -7 2 -14
22 -16 43 -4 41 11 40 19 0z m455 5 c8 -11 9 -21 3 -25 -8 -5 -30 24 -30 39 0
13 16 5 27 -14z m1479 -22 c26 -38 29 -41 32 -20 5 34 22 26 17 -8 -3 -24 2
-34 20 -46 23 -15 26 -14 55 6 17 12 36 20 42 18 7 -3 -4 -16 -25 -29 l-37
-26 92 -79 c51 -43 109 -96 129 -117 41 -41 99 -61 99 -33 0 9 5 16 11 16 6 0
8 -8 5 -18 -5 -14 4 -24 34 -41 21 -12 63 -40 91 -63 l52 -41 19 23 c10 13 23
30 28 39 5 9 12 13 16 9 4 -4 -5 -25 -19 -47 l-26 -40 49 -36 c44 -32 62 -55
44 -55 -4 0 -29 16 -56 37 l-50 36 -23 -29 -23 -29 31 -45 c18 -25 30 -51 29
-57 -2 -7 2 -13 8 -13 6 0 16 -11 22 -25 6 -14 17 -25 25 -25 7 0 13 -7 13
-15 0 -8 -7 -15 -15 -15 -12 0 -14 -7 -9 -27 5 -23 4 -26 -7 -16 -10 10 -16 9
-31 -4 -16 -14 -18 -14 -18 -1 0 9 -12 23 -26 33 -14 9 -23 19 -20 22 3 3 17
-2 31 -11 39 -26 47 -10 14 26 -16 18 -29 35 -29 38 0 4 -13 16 -28 27 l-28
21 -1 -37 c-1 -20 3 -41 9 -48 5 -7 8 -18 6 -25 -3 -7 -12 1 -22 20 -10 19
-15 41 -12 49 7 18 -68 135 -79 125 -5 -4 -6 0 -2 9 3 9 0 22 -6 28 -6 6 -8
14 -4 18 4 3 14 -2 23 -13 10 -13 17 -15 20 -7 3 7 12 9 20 6 8 -3 14 0 14 6
0 19 17 12 23 -9 7 -29 32 -25 56 9 l21 29 -86 62 c-47 34 -106 69 -132 76
-33 10 -58 28 -88 62 -33 36 -45 44 -54 35 -7 -6 -19 -9 -26 -6 -22 8 -16 22
6 16 11 -3 20 -3 20 0 0 2 -34 34 -76 71 -62 55 -78 64 -94 56 -28 -15 -35
-12 -17 8 16 18 15 20 -22 50 -37 29 -90 112 -72 112 5 0 21 -19 37 -42z
m-1371 13 c-3 -6 -11 -11 -17 -11 -6 0 -6 6 2 15 14 17 26 13 15 -4z m125 -7
c0 -8 -4 -12 -10 -9 -5 3 -10 13 -10 21 0 8 5 12 10 9 6 -3 10 -13 10 -21z
m2824 1 c-7 -16 -24 -21 -24 -6 0 8 7 13 27 20 1 1 0 -6 -3 -14z m46 -29 c0
-5 -7 -3 -15 4 -8 7 -15 9 -15 5 0 -5 -2 -6 -5 -3 -3 3 -3 13 1 22 6 15 7 15
20 -1 7 -10 14 -22 14 -27z m-1920 24 c8 -5 11 -10 5 -10 -5 0 1 -9 15 -20 20
-15 22 -21 13 -31 -7 -7 -14 -11 -15 -8 -2 2 -13 18 -26 36 -30 44 -27 56 8
33z m230 -5 c0 -8 -6 -15 -14 -15 -17 0 -28 14 -19 24 12 12 33 6 33 -9z m300
5 c0 -5 -2 -10 -4 -10 -3 0 -8 5 -11 10 -3 6 -1 10 4 10 6 0 11 -4 11 -10z
m247 -14 c-3 -7 -1 -18 4 -23 7 -7 5 -16 -5 -26 -9 -9 -16 -20 -16 -26 0 -26
-37 -4 -40 24 -6 50 -2 55 54 64 4 0 6 -5 3 -13z m-2804 -22 c3 -3 3 -13 0
-21 -5 -12 -7 -12 -14 -1 -15 23 -4 40 14 22z m2907 -4 c0 -5 -12 -10 -26 -10
-14 0 -23 4 -19 10 3 6 15 10 26 10 10 0 19 -4 19 -10z m978 -17 c-2 -23 1
-29 20 -31 15 -2 22 -9 18 -17 -2 -7 1 -19 9 -25 10 -8 15 -7 19 7 4 16 5 15
4 -2 0 -11 1 -22 2 -25 1 -3 3 -13 5 -22 5 -25 -12 -23 -20 2 -3 11 -11 20
-16 20 -5 0 -9 7 -9 15 0 8 -3 15 -7 15 -5 1 -19 10 -32 21 -22 18 -23 22 -11
44 17 32 21 31 18 -2z m-2659 8 c8 -5 9 -11 3 -15 -5 -3 -15 1 -22 9 -14 16
-3 20 19 6z m211 -69 c0 -26 5 -53 12 -60 6 -6 8 -15 4 -19 -16 -16 -36 32
-34 79 4 62 18 62 18 0z m80 33 c0 -9 -6 -12 -15 -9 -8 4 -15 10 -15 15 0 5 7
9 15 9 8 0 15 -7 15 -15z m1005 -12 c-9 -37 -20 -47 -42 -39 -17 7 -16 9 5 26
12 10 22 23 22 29 0 6 5 11 11 11 7 0 9 -10 4 -27z m-1655 -2 c-11 -21 -29
-36 -35 -29 -3 2 2 14 11 26 19 28 39 30 24 3z m2325 -1 c-3 -5 -11 -10 -16
-10 -6 0 -7 5 -4 10 3 6 11 10 16 10 6 0 7 -4 4 -10z m-2281 -21 c-3 -5 -10
-7 -15 -3 -5 3 -7 10 -3 15 3 5 10 7 15 3 5 -3 7 -10 3 -15z m1156 6 c0 -8 -2
-15 -4 -15 -2 0 -12 -3 -21 -7 -15 -5 -16 -3 -6 15 13 25 31 29 31 7z m650 0
c-12 -15 -80 -38 -88 -30 -10 10 23 36 40 32 10 -3 21 -1 24 4 3 5 12 9 21 9
12 0 13 -3 3 -15z m290 0 c0 -8 -4 -15 -10 -15 -5 0 -10 7 -10 15 0 8 5 15 10
15 6 0 10 -7 10 -15z m-75 -31 c18 7 40 -29 25 -39 -15 -9 -43 2 -36 14 4 5
-7 4 -24 -2 -34 -13 -38 -22 -12 -36 11 -6 24 -6 35 1 21 11 67 3 67 -12 0
-13 -17 -13 -25 0 -4 7 -13 6 -27 -1 -40 -21 -72 -19 -84 6 -8 17 -8 27 -1 34
8 8 5 11 -8 11 -19 1 -19 1 -2 11 9 5 17 16 17 24 0 11 5 11 30 -2 17 -8 37
-12 45 -9z m-965 -30 c0 -8 -4 -14 -10 -14 -5 0 -10 9 -10 21 0 11 5 17 10 14
6 -3 10 -13 10 -21z m1029 19 c0 -5 -4 -17 -9 -28 -8 -18 -9 -17 -9 8 -1 15 4
27 9 27 6 0 10 -3 9 -7z m571 -12 c0 -11 -4 -23 -10 -26 -5 -3 -10 -2 -10 4 0
5 -3 16 -6 25 -4 11 -1 16 10 16 9 0 16 -8 16 -19z m315 13 c9 -4 21 -18 26
-31 8 -21 14 -24 36 -18 23 5 25 4 14 -9 -9 -11 -10 -16 -2 -16 6 0 11 -5 11
-11 0 -21 -45 3 -82 44 -21 22 -38 42 -38 44 0 5 17 4 35 -3z m-3270 -14 c-3
-5 -10 -10 -16 -10 -5 0 -9 5 -9 10 0 6 7 10 16 10 8 0 12 -4 9 -10z m259 -5
c-6 -16 -24 -21 -24 -7 0 11 11 22 21 22 5 0 6 -7 3 -15z m1536 -17 c0 -6 -7
-8 -14 -5 -9 4 -18 -2 -22 -15 -6 -19 -7 -20 -16 -4 -14 24 19 61 39 45 7 -6
13 -16 13 -21z m1774 0 c-4 -5 -1 -13 5 -17 8 -5 5 -13 -9 -26 -17 -15 -20
-16 -20 -2 0 8 -6 17 -12 20 -7 2 -10 8 -6 12 4 4 14 2 23 -5 13 -11 14 -10 9
6 -4 10 -12 25 -18 33 -9 12 -7 12 12 2 12 -7 20 -17 16 -23z m-825 5 c-1 -25
-17 -70 -19 -58 -8 34 -3 75 8 75 6 0 12 -8 11 -17z m-1178 -18 c15 5 19 1 19
-19 0 -14 5 -26 10 -26 6 0 10 -4 10 -10 0 -17 -20 -11 -47 14 -15 14 -30 23
-35 20 -13 -8 -9 21 5 35 10 10 13 9 15 -4 3 -11 10 -14 23 -10z m159 4 c0 -5
-4 -9 -10 -9 -5 0 -10 7 -10 16 0 8 5 12 10 9 6 -3 10 -10 10 -16z m-1016 -10
c-8 -14 -24 -10 -24 6 0 9 6 12 15 9 8 -4 12 -10 9 -15z m2776 5 c0 -2 -7 -4
-15 -4 -8 0 -15 4 -15 10 0 5 7 7 15 4 8 -4 15 -8 15 -10z m-976 -20 c16 -6
23 -44 8 -44 -16 0 -52 32 -47 41 7 11 17 11 39 3z m380 -19 c4 -10 -1 -15
-14 -15 -13 0 -18 5 -14 15 4 8 10 15 14 15 4 0 10 -7 14 -15z m566 -5 c-8 -6
-24 -9 -35 -9 l-20 1 20 5 c11 3 24 9 29 14 5 5 12 6 15 3 3 -3 -1 -9 -9 -14z
m-1806 -42 c19 8 38 0 32 -13 -3 -8 -1 -15 5 -15 5 0 12 7 16 16 3 8 12 13 19
10 8 -3 14 1 14 8 0 8 -5 16 -12 18 -12 4 -3 28 12 28 5 0 24 -13 42 -30 18
-16 36 -30 40 -30 5 0 8 -9 8 -20 0 -14 -7 -20 -21 -20 -22 0 -52 -24 -42 -33
3 -4 14 -2 23 3 15 8 20 4 29 -22 14 -39 14 -41 -1 -32 -10 6 -10 5 -1 -8 7
-8 10 -18 6 -21 -3 -4 -1 -7 5 -7 5 0 12 6 15 13 3 8 14 2 33 -17 16 -16 23
-26 17 -22 -9 5 -13 -1 -13 -21 0 -22 -2 -25 -10 -13 -8 12 -10 11 -10 -7 0
-23 -14 -31 -25 -14 -3 5 -19 12 -35 16 -17 4 -28 11 -24 16 3 5 0 9 -5 9 -6
0 -11 -5 -11 -11 0 -5 -4 -7 -10 -4 -16 10 -12 19 15 32 22 10 25 9 23 -4 -4
-22 38 -37 46 -16 5 11 2 14 -9 9 -11 -4 -19 3 -25 20 -6 14 -14 23 -19 20 -5
-3 -14 0 -20 8 -9 11 -6 15 14 20 26 7 33 20 15 31 -5 3 -10 0 -10 -7 0 -19
-66 -20 -81 -2 -14 17 -5 18 22 4 14 -8 19 -7 20 2 0 7 2 21 4 31 2 9 -1 17
-6 17 -5 0 -9 -7 -9 -16 0 -23 -25 -11 -25 12 -1 10 -6 18 -12 17 -7 -2 -24 4
-39 11 -27 14 -54 12 -54 -5 0 -5 -6 -9 -13 -9 -8 0 -14 11 -14 28 0 22 5 28
21 28 15 -1 22 6 25 24 l4 25 12 -30 c7 -16 16 -29 19 -27z m-744 26 c0 -8 -4
-12 -10 -9 -5 3 -10 10 -10 16 0 5 5 9 10 9 6 0 10 -7 10 -16z m-552 -28 c2
-9 -2 -24 -9 -32 -10 -13 -14 -12 -30 2 -19 17 -25 45 -13 57 10 10 49 -10 52
-27z m2824 17 c21 -19 23 -33 6 -33 -7 0 -18 11 -25 25 -13 29 -7 32 19 8z
m-1996 -3 c13 0 24 -5 24 -11 0 -15 -73 -6 -78 10 -3 10 0 12 12 8 10 -4 29
-7 42 -7z m294 -19 c0 -6 -5 -13 -11 -17 -8 -5 -7 -10 4 -16 16 -8 13 -38 -3
-38 -8 0 -23 38 -21 53 1 4 -3 7 -9 7 -5 0 -10 5 -10 10 0 6 11 10 25 10 14 0
25 -4 25 -9z m610 -1 c0 -5 -4 -10 -10 -10 -5 0 -10 5 -10 10 0 6 5 10 10 10
6 0 10 -4 10 -10z m-119 -19 c13 -11 21 -22 18 -26 -4 -3 -20 5 -35 19 -34 29
-18 35 17 7z m-1301 -11 c0 -5 -7 -10 -15 -10 -8 0 -15 5 -15 10 0 6 7 10 15
10 8 0 15 -4 15 -10z m238 -2 c-2 -6 -10 -14 -16 -16 -7 -2 -10 2 -6 12 7 18
28 22 22 4z m292 -3 c0 -8 -4 -15 -10 -15 -5 0 -10 7 -10 15 0 8 5 15 10 15 6
0 10 -7 10 -15z m70 0 c-7 -8 -14 -15 -15 -15 -2 0 -5 7 -9 15 -4 10 1 15 16
15 17 0 18 -2 8 -15z m1515 -26 c8 -15 15 -37 15 -48 0 -10 6 -22 13 -24 9 -4
8 -8 -3 -16 -13 -10 -13 -12 0 -21 8 -5 20 -10 26 -10 6 0 21 -11 34 -25 20
-22 31 -25 85 -23 34 1 66 -1 72 -5 5 -3 27 3 49 13 21 11 52 20 69 21 16 1
41 5 55 9 24 8 24 8 3 9 -13 1 -23 6 -23 12 0 7 12 10 30 7 28 -4 29 -3 25 23
-3 17 0 29 8 32 10 4 12 -4 10 -27 l-4 -31 17 30 c19 33 32 19 14 -14 -8 -16
-8 -21 1 -21 6 0 9 -6 6 -14 -8 -21 33 -28 60 -10 21 13 23 13 23 -5 0 -24
-31 -31 -78 -17 -25 7 -31 14 -26 28 7 25 -22 24 -35 -1 -8 -14 -27 -20 -73
-25 -36 -4 -73 -15 -87 -25 -19 -15 -31 -17 -55 -9 -17 5 -52 8 -78 6 -36 -1
-54 4 -80 23 -52 39 -89 53 -99 37 -14 -21 -10 -48 6 -48 8 0 15 -5 15 -11 0
-6 -7 -8 -16 -5 -15 6 -16 0 -10 -40 3 -26 6 -57 6 -69 0 -18 4 -22 19 -18 11
3 22 11 25 18 3 9 -2 11 -16 7 -15 -4 -19 -1 -16 9 3 8 11 13 17 12 6 -2 11
10 11 26 0 20 6 30 20 34 11 3 20 1 20 -4 0 -5 -4 -9 -8 -9 -8 0 -10 -65 -2
-73 3 -2 27 -8 54 -12 48 -7 49 -6 44 19 -3 14 -2 26 2 26 4 0 10 -13 14 -30
3 -16 10 -30 15 -30 14 0 83 -42 77 -47 -2 -2 -19 3 -38 13 -33 17 -98 36 -98
28 0 -2 9 -13 20 -24 11 -11 20 -15 20 -10 0 18 18 10 23 -10 3 -11 1 -18 -3
-15 -5 3 -10 0 -12 -7 -3 -9 -9 -8 -22 5 -10 9 -22 15 -27 12 -5 -4 -9 1 -9 9
0 8 -14 25 -31 37 l-32 22 -41 -21 c-23 -12 -54 -22 -71 -22 l-29 0 22 -16
c28 -20 28 -35 -3 -64 -25 -23 -37 -16 -13 8 7 7 8 12 3 12 -6 0 -3 5 5 11 13
9 13 11 1 16 -35 14 -71 67 -71 105 0 27 -4 38 -15 38 -8 0 -14 3 -13 8 2 4
-7 24 -20 44 -23 36 -24 37 -72 31 -34 -4 -50 -2 -50 6 0 7 20 11 55 11 49 0
56 -3 72 -27 9 -16 27 -38 40 -51 16 -16 23 -34 23 -61 0 -44 19 -66 50 -56
l22 7 -21 22 c-11 12 -23 36 -27 53 -5 25 -2 31 15 36 14 3 19 10 15 21 -4 11
-1 16 11 16 9 0 13 5 10 10 -3 6 -15 10 -25 10 -10 0 -22 5 -26 12 -5 8 3 9
29 5 30 -5 37 -3 37 11 0 9 11 35 23 58 32 54 21 80 -39 89 -58 8 -57 21 1 17
38 -3 48 -9 60 -33z m-1130 21 c3 -5 -1 -10 -9 -10 -9 0 -16 5 -16 10 0 6 4
10 9 10 6 0 13 -4 16 -10z m285 -51 c0 -10 -27 -19 -34 -12 -3 4 -6 15 -6 25
0 16 3 16 20 6 11 -7 20 -16 20 -19z m-756 5 c10 -27 7 -44 -9 -44 -18 0 -30
24 -21 45 7 20 22 19 30 -1z m913 -9 c2 -11 0 -14 -3 -7 -6 13 -34 17 -34 5 0
-5 9 -21 19 -36 10 -17 16 -38 13 -50 -4 -17 -2 -20 8 -10 7 6 19 9 26 6 17
-6 19 -26 2 -20 -7 2 -21 -2 -30 -11 -16 -14 -18 -13 -18 1 0 10 -6 17 -14 17
-21 0 -27 27 -10 45 9 8 11 15 5 15 -12 0 -14 29 -5 55 9 22 38 15 41 -10z
m189 3 c3 -5 4 -12 1 -14 -7 -7 -47 15 -47 25 0 11 38 2 46 -11z m-1173 -43
c-2 -26 -4 -50 -7 -52 -2 -2 -15 -1 -30 3 -32 8 -35 38 -6 56 11 7 20 21 20
31 0 11 6 17 13 14 8 -2 11 -21 10 -52z m1580 34 c-4 -15 -9 -17 -17 -9 -8 8
-7 13 4 20 8 5 16 10 17 10 0 0 -1 -9 -4 -21z m-153 -14 c0 -1 -7 -8 -15 -15
-13 -10 -15 -9 -15 8 0 15 5 20 15 16 8 -4 15 -7 15 -9z m1160 -5 c7 -13 7
-20 1 -20 -6 0 -15 9 -21 20 -7 13 -7 20 -1 20 6 0 15 -9 21 -20z m-1725 0 c3
-5 2 -10 -4 -10 -5 0 -13 5 -16 10 -3 6 -2 10 4 10 5 0 13 -4 16 -10z m1874 1
c7 -5 9 -11 4 -14 -6 -4 -19 0 -29 8 -15 11 -16 14 -4 15 8 0 21 -4 29 -9z
m-2854 -21 c33 13 48 3 20 -13 -39 -22 -86 -13 -70 13 6 9 9 9 15 1 5 -9 14
-9 35 -1z m1165 -25 c-21 -26 -31 -16 -13 11 9 15 19 21 21 15 2 -6 -2 -18 -8
-26z m755 5 c-3 -5 -11 -10 -16 -10 -6 0 -7 5 -4 10 3 6 11 10 16 10 6 0 7 -4
4 -10z m829 -16 c8 -21 3 -26 -18 -18 -20 8 -21 34 -2 34 8 0 17 -7 20 -16z
m-3434 -10 c0 -14 -3 -14 -15 -4 -8 7 -15 14 -15 16 0 2 7 4 15 4 8 0 15 -7
15 -16z m306 -25 c3 -6 2 -15 -3 -20 -5 -5 -14 0 -21 11 -10 17 -10 20 2 20 8
0 18 -5 22 -11z m94 1 c0 -5 -5 -10 -11 -10 -5 0 -7 5 -4 10 3 6 8 10 11 10 2
0 4 -4 4 -10z m460 -12 c0 -19 -2 -20 -10 -8 -13 19 -13 30 0 30 6 0 10 -10
10 -22z m75 3 c-3 -6 -11 -8 -17 -5 -6 4 -5 9 3 15 16 10 23 4 14 -10z m-575
-36 c0 -28 33 -111 52 -132 11 -12 18 -27 16 -33 -7 -22 -55 53 -72 112 -19
65 -20 82 -6 73 6 -3 10 -13 10 -20z m410 15 c0 -5 -4 -10 -10 -10 -5 0 -10 5
-10 10 0 6 5 10 10 10 6 0 10 -4 10 -10z m1584 4 c24 -9 19 -24 -9 -24 -18 0
-23 4 -19 15 7 17 7 17 28 9z m576 -4 c14 0 21 -33 8 -42 -24 -15 -41 -9 -35
12 3 11 1 20 -4 20 -5 0 -9 5 -9 11 0 6 7 8 16 5 9 -3 19 -6 24 -6z m-2220 -4
c0 -11 -19 -15 -25 -6 -3 5 1 10 9 10 9 0 16 -2 16 -4z m2363 -33 l41 -37 7
25 c5 15 7 18 8 7 1 -10 0 -20 -1 -24 -2 -3 12 -12 31 -21 27 -13 31 -19 19
-27 -7 -6 -12 -20 -10 -31 l5 -20 7 20 c5 14 7 6 6 -22 0 -23 3 -45 7 -50 4
-4 35 0 67 8 33 9 60 12 60 9 0 -10 -48 -28 -96 -35 l-40 -6 -23 74 c-21 65
-27 75 -55 85 -17 7 -44 27 -59 47 -36 45 -25 45 26 -2z m-1773 16 c0 -6 -5
-19 -11 -30 -9 -19 -9 -19 10 -10 25 14 35 0 27 -34 -5 -19 -12 -24 -32 -23
-16 2 -30 11 -36 23 -12 27 -62 47 -77 32 -16 -16 -26 0 -12 17 7 8 19 12 27
9 8 -3 14 0 14 6 0 6 10 11 21 11 19 0 20 -2 8 -17 -12 -15 -12 -16 4 -10 10
4 21 7 23 7 2 0 4 7 4 15 0 8 7 15 15 15 8 0 15 -5 15 -11z m1850 1 c8 -5 11
-10 5 -10 -5 0 -17 5 -25 10 -8 5 -10 10 -5 10 6 0 17 -5 25 -10z m-1626 -15
c-6 -16 -24 -21 -24 -7 0 11 11 22 21 22 5 0 6 -7 3 -15z m-577 -30 c-7 -14
-17 -23 -24 -21 -14 6 -37 -20 -29 -32 8 -13 -23 -37 -48 -37 -23 0 -23 -8 -9
-79 5 -23 16 -43 28 -50 11 -6 22 -12 24 -13 2 -2 -8 -14 -23 -28 -17 -16 -30
-41 -34 -68 -4 -23 -11 -41 -15 -39 -4 1 -13 2 -20 2 -13 0 -16 14 -17 76 -1
24 -6 33 -22 38 -12 3 -19 8 -16 12 4 3 21 1 38 -4 28 -10 32 -9 40 14 13 32
12 41 -2 80 -7 20 -20 34 -32 36 -10 2 -21 9 -24 16 -2 7 2 10 11 6 20 -7 58
13 54 29 -1 7 3 11 10 10 7 -2 10 4 6 13 -5 13 -2 15 13 10 15 -4 29 4 54 29
37 38 54 38 37 0z m59 -11 c-5 -12 -10 -14 -18 -6 -6 6 -17 8 -24 5 -8 -3 -14
0 -14 6 0 6 7 11 15 11 8 0 15 8 15 17 0 16 1 16 16 1 10 -10 14 -23 10 -34z
m1835 37 c-12 -8 -13 -14 -3 -36 17 -37 15 -54 -3 -28 -13 18 -20 20 -45 13
-23 -7 -30 -5 -30 6 0 8 -7 14 -15 14 -8 0 -15 4 -15 10 0 5 6 7 14 4 7 -3 29
2 47 10 40 17 73 22 50 7z m1679 -16 c13 -14 21 -25 18 -25 -2 0 -15 11 -28
25 -13 14 -21 25 -18 25 2 0 15 -11 28 -25z m-4064 -40 c-2 -7 0 -17 5 -22 6
-6 6 -19 0 -36 -14 -36 -24 -34 -16 2 5 22 2 32 -11 39 -15 9 -16 13 -5 26 15
18 35 11 27 -9z m284 10 c0 -8 -4 -15 -10 -15 -5 0 -10 7 -10 15 0 8 5 15 10
15 6 0 10 -7 10 -15z m-149 -97 c-12 -18 -37 -49 -56 -68 -32 -31 -34 -36 -20
-46 15 -11 15 -15 0 -43 -8 -17 -20 -31 -26 -31 -7 0 -4 11 6 27 16 24 16 27
1 38 -25 19 -25 20 73 132 40 46 54 41 22 -9z m1616 27 c-4 -8 -11 -15 -17
-15 -7 0 -7 6 0 21 13 23 26 19 17 -6z m775 -22 c-5 -14 -22 -18 -22 -5 0 4
-3 18 -7 32 -6 25 -6 25 14 5 11 -11 18 -26 15 -32z m-2037 0 c7 -29 -1 -44
-11 -19 -3 9 -12 16 -19 16 -7 0 -18 6 -24 13 -9 11 -5 14 18 15 23 0 30 -5
36 -25z m1874 11 c1 -1 1 -7 0 -13 -2 -5 -15 -1 -29 10 l-25 20 25 -7 c14 -3
27 -8 29 -10z m-2285 -9 c-4 -8 -10 -15 -15 -15 -4 0 -6 7 -3 15 4 8 10 15 15
15 4 0 6 -7 3 -15z m346 -10 c0 -8 -4 -15 -10 -15 -5 0 -10 7 -10 15 0 8 5 15
10 15 6 0 10 -7 10 -15z m1107 9 c-3 -3 -12 -4 -19 -1 -8 3 -5 6 6 6 11 1 17
-2 13 -5z m-959 -22 c-4 -14 10 -24 76 -50 89 -36 137 -67 120 -79 -6 -5 -14
-17 -18 -28 -7 -19 -8 -19 -17 -2 -6 9 -21 17 -34 17 -21 0 -23 3 -15 29 8 28
6 30 -38 47 -33 12 -47 14 -50 6 -2 -7 -16 -12 -30 -12 -23 -1 -25 -2 -9 -11
25 -14 22 -32 -3 -19 -11 6 -25 8 -30 5 -6 -3 -10 -1 -10 6 0 7 -11 10 -30 7
-38 -6 -50 9 -15 18 16 4 28 15 31 31 l6 24 22 -20 c23 -22 46 -28 46 -12 0 5
-8 12 -18 15 -26 9 -26 46 0 46 15 0 19 -5 16 -18z m1137 8 c-3 -5 -13 -10
-21 -10 -8 0 -12 5 -9 10 3 6 13 10 21 10 8 0 12 -4 9 -10z m81 -5 c4 -8 14
-15 23 -15 9 0 12 -3 6 -8 -5 -4 -10 -11 -11 -17 -2 -43 -35 -105 -55 -105 -4
0 -6 21 -4 48 2 26 4 62 4 80 1 34 26 46 37 17z m-1175 -22 c13 -15 12 -15 -8
-4 -24 12 -29 21 -14 21 5 0 15 -7 22 -17z m1669 -17 c0 -27 -11 -46 -51 -91
-29 -30 -54 -53 -57 -51 -2 3 16 28 42 57 31 34 46 60 46 78 0 25 7 41 17 41
2 0 3 -15 3 -34z m-3750 17 c0 -12 -62 -59 -88 -67 l-22 -7 17 35 c15 28 25
36 53 39 19 2 36 4 38 5 1 1 2 -1 2 -5z m2276 -40 c-3 -7 -1 -13 4 -13 5 0 7
-7 3 -15 -5 -14 -7 -14 -22 -1 -13 12 -20 13 -29 4 -6 -6 -15 -9 -19 -5 -3 4
2 13 12 21 13 9 15 15 6 20 -6 4 -9 11 -6 16 9 14 57 -12 51 -27z m1618 11 c9
-22 -3 -32 -14 -14 -12 19 -12 30 -1 30 5 0 12 -7 15 -16z m-1564 -10 c0 -8
-5 -12 -10 -9 -6 4 -8 11 -5 16 9 14 15 11 15 -7z m826 -22 c-9 -8 -26 10 -26
26 1 15 2 15 15 -2 8 -11 13 -21 11 -24z m-1468 -1 c12 -6 27 -9 32 -6 6 3 10
2 10 -3 0 -5 -16 -22 -36 -37 -27 -21 -38 -25 -44 -15 -4 7 -17 10 -29 7 -27
-7 -29 25 -3 51 19 20 37 21 70 3z m1443 -27 c12 -15 11 -16 -11 -9 -22 7 -23
6 -12 -8 8 -9 20 -13 27 -11 19 8 41 -34 25 -50 -16 -16 -83 64 -68 82 14 16
23 15 39 -4z m69 -35 c0 -5 -9 -4 -20 3 -11 7 -20 22 -20 33 1 19 2 19 20 -4
11 -13 20 -27 20 -32z m205 24 c-5 -10 -7 -23 -6 -29 1 -7 -10 -11 -24 -10
-31 1 -31 4 2 38 28 30 40 30 28 1z m-2371 -5 c18 -25 21 -58 6 -58 -5 0 -10
5 -10 10 0 6 -9 10 -21 10 -15 0 -19 4 -15 16 3 9 6 22 6 30 0 21 17 17 34 -8z
m1363 7 c9 -24 -1 -27 -15 -5 -8 13 -8 20 -2 20 6 0 13 -7 17 -15z m1098 -5
c-3 -5 -13 -10 -21 -10 -8 0 -12 5 -9 10 3 6 13 10 21 10 8 0 12 -4 9 -10z
m55 -12 c0 -13 -23 -5 -28 10 -2 7 2 10 12 6 9 -3 16 -11 16 -16z m-550 -8 c0
-5 -4 -10 -10 -10 -5 0 -10 5 -10 10 0 6 5 10 10 10 6 0 10 -4 10 -10z m-904
-15 c6 -14 -11 -45 -25 -45 -3 0 -11 11 -17 25 -9 18 -9 25 0 29 22 9 37 6 42
-9z m934 -20 c-9 -10 -7 -14 7 -18 17 -4 17 -4 -1 -12 -18 -8 -43 14 -27 25 4
3 11 14 15 25 6 13 10 16 13 7 3 -7 0 -19 -7 -27z m-1459 -16 c-13 -11 -27
-17 -30 -14 -3 4 5 15 19 25 32 24 42 14 11 -11z m829 10 c0 -11 -5 -19 -10
-19 -6 0 -8 -15 -4 -40 4 -27 3 -40 -5 -40 -6 0 -11 11 -11 25 0 14 -3 25 -7
25 -5 0 -8 15 -9 34 0 29 3 34 23 34 16 0 23 -6 23 -19z m930 -5 c0 -22 -2
-24 -14 -14 -8 6 -12 18 -9 26 9 23 23 16 23 -12z m-1094 1 c-26 -19 -42 -19
-26 0 7 8 20 15 29 15 13 -1 13 -3 -3 -15z m-205 -83 c-9 -25 -9 -24 -10 18 0
36 2 41 10 27 7 -12 7 -27 0 -45z m272 51 c-7 -2 -19 -2 -25 0 -7 3 -2 5 12 5
14 0 19 -2 13 -5z m227 -23 c0 -11 -2 -20 -4 -20 -2 0 -6 9 -9 20 -3 11 -1 20
4 20 5 0 9 -9 9 -20z m372 -24 c-23 -6 -31 -14 -27 -25 4 -12 -2 -16 -25 -15
-34 1 -79 28 -66 40 5 5 11 4 13 -3 6 -16 43 -17 43 -2 0 6 10 19 22 29 21 16
24 16 47 1 l25 -16 -32 -9z m-1783 -30 c23 -35 49 -67 57 -70 26 -10 68 -6 94
9 14 8 37 14 51 15 22 0 27 -5 27 -25 0 -29 -13 -33 -27 -8 -9 16 -13 17 -43
4 -86 -35 -110 -26 -168 59 -41 60 -67 74 -88 48 -5 -7 -12 -74 -15 -148 -6
-135 -32 -300 -49 -300 -4 0 -6 10 -3 23 26 113 35 186 35 290 1 134 7 152 55
160 17 2 31 5 31 6 1 0 20 -28 43 -63z m467 41 c8 3 26 -5 39 -17 13 -12 28
-19 33 -16 6 3 13 -1 16 -10 4 -11 13 -14 31 -10 20 5 25 3 25 -11 -1 -35 -23
-48 -78 -48 -47 0 -52 2 -50 20 2 14 -4 21 -20 23 -29 4 -42 31 -30 62 6 14
12 20 15 13 2 -7 11 -9 19 -6z m918 -18 c-4 -6 -11 -6 -20 2 -21 17 -17 31 6
19 11 -6 18 -15 14 -21z m766 6 c7 -8 20 -15 29 -16 10 0 12 -2 3 -6 -6 -2
-10 -9 -6 -14 3 -5 -1 -9 -8 -9 -15 0 -48 20 -34 20 5 0 1 9 -9 20 -15 17 -16
20 -3 20 9 0 21 -7 28 -15z m-1390 -30 c0 -8 -4 -15 -10 -15 -5 0 -7 7 -4 15
4 8 8 15 10 15 2 0 4 -7 4 -15z m-70 -15 c0 -5 -4 -10 -10 -10 -5 0 -10 5 -10
10 0 6 5 10 10 10 6 0 10 -4 10 -10z m240 -15 c-7 -8 -22 -15 -34 -14 -18 0
-16 3 9 14 39 18 40 18 25 0z m-218 -85 c1 -25 7 -49 14 -55 7 -5 24 -32 39
-60 14 -27 40 -65 57 -82 18 -18 27 -33 21 -33 -7 0 -15 5 -18 10 -10 17 -25
11 -35 -12 -24 -57 -49 -70 -87 -43 -12 8 -29 12 -38 9 -10 -4 -21 -1 -26 7
-7 11 -9 11 -9 -3 0 -10 -5 -18 -11 -18 -5 0 -8 4 -5 9 4 5 0 12 -6 14 -21 9
9 24 42 22 16 -1 29 1 28 4 -2 20 4 31 16 31 8 0 16 5 18 12 5 15 28 1 28 -17
0 -8 -9 -19 -20 -25 -23 -12 -16 -40 10 -40 10 0 24 15 35 40 15 33 16 44 5
70 -13 30 -13 30 -70 16 -16 -4 -5 20 11 26 14 5 18 4 13 -4 -4 -7 -3 -8 4 -4
19 11 14 33 -11 53 -18 14 -22 29 -24 77 -2 38 1 56 7 50 6 -6 11 -30 12 -54z
m417 13 c0 -16 -3 -22 -6 -14 -5 11 -7 11 -14 0 -6 -10 -9 -11 -9 -1 0 6 -10
12 -22 12 -28 0 -12 17 22 23 14 2 26 5 28 6 1 0 2 -11 1 -26z m-787 -6 c-15
-7 -21 -16 -17 -28 4 -11 -1 -22 -14 -28 -11 -6 -27 -18 -36 -28 -14 -13 -18
-14 -25 -3 -5 8 -7 17 -4 21 2 4 -3 9 -10 12 -9 4 -17 -1 -19 -11 -3 -11 -5
-7 -6 9 -1 34 8 42 26 23 17 -16 37 -14 39 4 1 7 2 16 3 22 0 5 7 7 14 4 8 -3
19 2 26 10 7 8 20 12 29 9 13 -6 12 -8 -6 -16z m858 -13 c0 -13 -4 -24 -10
-24 -5 0 -10 14 -10 31 0 17 4 28 10 24 6 -3 10 -17 10 -31z m990 -30 c-23
-27 -30 -14 -12 23 15 31 17 33 20 14 2 -12 -2 -29 -8 -37z m2987 9 c-3 -10
-5 -4 -5 12 0 17 2 24 5 18 2 -7 2 -21 0 -30z m-4111 12 c4 -10 20 -15 51 -15
36 0 44 -3 41 -17 -2 -9 -9 -18 -17 -21 -8 -3 -11 0 -7 7 5 7 -6 11 -34 11
-25 0 -39 -4 -35 -10 3 -5 -1 -10 -9 -10 -24 0 -30 20 -10 36 11 8 15 14 9 13
-21 -3 -35 1 -35 11 0 16 40 12 46 -5z m-72 -1 c9 -3 16 -13 16 -21 0 -20 -34
-12 -38 10 -4 19 -1 20 22 11z m446 -39 c-11 -14 -34 -11 -57 7 -10 8 -10 13
0 23 18 19 74 -10 57 -30z m-490 26 c0 -23 -14 -41 -31 -41 -10 0 -19 4 -19
10 0 5 7 7 15 4 8 -4 15 -1 15 5 0 6 -5 11 -11 11 -5 0 -7 5 -4 10 8 13 35 13
35 1z m-60 -11 c0 -5 -12 -10 -26 -10 -14 0 -23 4 -19 10 3 6 15 10 26 10 10
0 19 -4 19 -10z m-726 -42 c-63 -71 -61 -70 -69 -51 -3 10 -3 15 0 11 4 -3 25
14 47 38 22 24 45 44 50 44 6 0 -7 -19 -28 -42z m-344 12 c0 -11 -4 -20 -9
-20 -5 0 -7 9 -4 20 3 11 7 20 9 20 2 0 4 -9 4 -20z m813 4 c48 -8 48 -19 -1
-20 -20 0 -52 -3 -69 -7 -38 -8 -45 9 -10 23 28 11 33 11 80 4z m187 -24 c0
-27 -12 -30 -32 -8 -15 15 -15 18 -3 18 8 0 15 5 15 11 0 5 5 7 10 4 6 -3 10
-15 10 -25z m284 24 c23 -9 20 -23 -4 -17 -11 3 -20 9 -20 14 0 11 3 11 24 3z
m-204 -40 c0 -11 -5 -14 -16 -10 -9 3 -22 6 -30 6 -9 0 -12 5 -9 10 10 17 55
12 55 -6z m143 -4 c-3 -11 -9 -20 -14 -20 -11 0 -11 3 -3 24 9 23 23 20 17 -4z
m-1237 -37 c-11 -11 -17 4 -9 23 7 18 8 18 11 1 2 -10 1 -21 -2 -24z m863 -17
c-4 -5 -26 -9 -48 -10 -21 -1 -43 -4 -47 -8 -10 -10 -24 0 -24 18 0 11 6 13
21 9 15 -5 19 -4 15 4 -10 15 37 14 52 -1 10 -10 14 -8 19 12 6 22 7 22 14 4
3 -10 3 -23 -2 -28z m-359 14 c4 -7 4 -26 0 -41 -5 -16 -6 -29 -2 -29 4 0 0
-4 -8 -10 -9 -6 -17 -5 -22 3 -4 6 -3 14 3 18 13 8 0 39 -16 39 -17 0 -27 27
-12 33 20 8 48 1 57 -13z m760 -10 c8 -16 8 -18 -4 -14 -17 6 -30 34 -16 34 5
0 14 -9 20 -20z m-910 -29 c0 -17 -4 -33 -10 -36 -5 -3 -10 -14 -10 -25 0 -10
-15 -27 -36 -39 -45 -27 -71 -22 -29 5 19 12 29 26 27 36 -2 10 8 24 23 34 18
11 25 23 22 36 -3 10 -1 18 4 18 5 0 9 -13 9 -29z m209 3 c10 -23 9 -26 -4
-21 -10 5 -15 0 -15 -14 0 -16 5 -19 23 -14 20 6 21 5 5 -8 -10 -8 -18 -19
-18 -26 0 -6 -5 -11 -11 -11 -7 0 -9 9 -6 21 3 12 0 22 -9 26 -17 6 -18 27 -4
54 14 26 25 24 39 -7z m-578 -37 c-8 -8 -11 -4 -11 14 0 33 14 47 18 19 2 -12
-1 -27 -7 -33z m421 41 c-12 -6 -22 -16 -21 -22 3 -23 -1 -36 -11 -36 -15 0
-12 57 3 63 6 3 21 5 32 6 18 0 18 -1 -3 -11z m280 -10 c27 -13 37 -28 19 -28
-15 0 -71 34 -71 44 0 8 6 7 52 -16z m-224 -61 c2 -10 -3 -17 -12 -17 -10 0
-16 9 -16 21 0 24 23 21 28 -4z m4218 -15 c-10 -10 -29 15 -21 28 6 9 10 8 17
-4 6 -10 7 -20 4 -24z m-4702 7 c-3 -6 -1 -15 6 -19 10 -6 10 -12 -4 -25 -9
-10 -19 -15 -22 -12 -9 9 6 67 17 67 6 0 7 -5 3 -11z m1126 -9 c0 -5 -4 -10
-10 -10 -5 0 -10 5 -10 10 0 6 5 10 10 10 6 0 10 -4 10 -10z m3569 -9 c8 -5 9
-11 3 -15 -5 -3 -15 1 -22 9 -14 16 -3 20 19 6z m248 3 c-3 -3 -12 -4 -19 -1
-8 3 -5 6 6 6 11 1 17 -2 13 -5z m-2340 -29 c-4 -8 -11 -15 -17 -15 -6 0 -6 7
2 20 14 22 24 19 15 -5z m-2367 5 c0 -5 -9 -10 -20 -10 -11 0 -20 5 -20 10 0
6 9 10 20 10 11 0 20 -4 20 -10z m3674 -6 c8 -22 8 -24 -7 -24 -7 0 -13 9 -13
20 0 24 11 26 20 4z m-3034 -35 c0 -4 8 -10 18 -12 12 -3 11 -5 -6 -6 -13 0
-32 4 -43 9 -16 9 -17 14 -8 32 11 21 12 21 25 3 8 -10 14 -22 14 -26z m-834
-17 c-11 -10 -15 4 -8 28 l7 25 3 -23 c2 -13 1 -26 -2 -30z m254 28 c0 -5 -5
-10 -11 -10 -5 0 -7 5 -4 10 3 6 8 10 11 10 2 0 4 -4 4 -10z m-316 -24 c-3 -9
-10 -16 -15 -16 -6 0 -5 9 1 21 13 24 24 20 14 -5z m1261 -19 c13 -4 9 -5 -9
-4 -16 1 -32 9 -34 17 -4 12 -2 13 9 4 8 -7 23 -14 34 -17z m-2767 -9 c7 -7
12 -17 12 -23 0 -15 -58 -47 -71 -39 -7 4 1 12 20 20 18 8 30 18 26 24 -4 7
-12 7 -25 0 -25 -13 -27 -13 -34 6 -4 11 -2 15 7 11 8 -3 20 -1 28 4 19 12 23
11 37 -3z m1490 -20 c-3 -7 -13 -15 -24 -17 -16 -3 -17 -1 -5 13 16 19 34 21
29 4z m360 -29 c17 -16 32 -34 32 -39 0 -10 -102 -108 -129 -124 -10 -6 -28
-17 -40 -24 -14 -8 -21 -9 -21 -2 0 7 -9 5 -22 -4 -31 -22 -47 -20 -60 9 -10
21 -8 29 10 48 12 13 22 27 22 33 -1 14 -33 50 -58 63 -12 6 -22 16 -22 22 0
17 56 -19 76 -48 21 -32 19 -62 -4 -79 -9 -6 -13 -18 -9 -28 5 -14 10 -14 26
-4 11 7 17 16 15 20 -3 4 -1 8 5 8 5 0 13 -4 16 -10 3 -5 12 -10 19 -10 13 0
96 72 96 83 0 4 -18 7 -41 7 -24 0 -38 4 -34 10 3 6 16 10 29 10 12 0 35 13
51 30 24 25 26 30 11 36 -9 3 -29 3 -44 0 -37 -9 -42 -9 -84 -8 -64 3 -42 21
30 25 37 2 74 4 82 5 8 1 30 -12 48 -29z m722 16 c27 -15 20 -19 -17 -9 -13 4
-23 10 -23 15 0 12 11 11 40 -6z m-1310 -15 c0 -5 -6 -10 -14 -10 -8 0 -18 5
-21 10 -3 6 3 10 14 10 12 0 21 -4 21 -10z m60 -6 c0 -2 -9 -4 -21 -4 -11 0
-18 4 -14 10 5 8 35 3 35 -6z m115 -3 c-3 -6 -14 -11 -23 -11 -15 1 -15 2 2
15 21 16 32 13 21 -4z m-421 3 c9 -3 16 -10 16 -14 0 -10 -38 -1 -46 11 -6 10
7 12 30 3z m186 -4 c-19 -13 -30 -13 -30 0 0 6 10 10 23 10 18 0 19 -2 7 -10z
m180 0 c0 -5 -6 -10 -14 -10 -8 0 -18 5 -21 10 -3 6 3 10 14 10 12 0 21 -4 21
-10z m-235 -10 c-3 -5 -13 -10 -21 -10 -8 0 -14 5 -14 10 0 6 9 10 21 10 11 0
17 -4 14 -10z m-55 -10 c0 -5 -9 -10 -20 -10 -11 0 -20 5 -20 10 0 6 9 10 20
10 11 0 20 -4 20 -10z m3359 -42 c22 -29 38 -54 36 -57 -3 -2 -29 21 -59 52
-41 43 -50 57 -36 57 11 0 36 -22 59 -52z m-1829 19 c0 -26 -9 -39 -20 -32
-10 6 0 55 11 55 5 0 9 -10 9 -23z m1200 4 c0 -5 -16 -19 -36 -32 -33 -20 -40
-21 -71 -9 -49 17 -56 2 -66 -140 -2 -27 -4 -15 -5 30 -1 41 3 92 9 112 l10
38 39 -20 40 -20 37 24 c45 29 43 29 43 17z m-1842 -45 c12 -4 22 -12 22 -17
0 -6 -10 -5 -22 2 -13 7 -24 11 -26 10 -1 -1 -10 2 -19 7 -10 6 -13 14 -8 22
6 10 10 10 19 -2 6 -8 21 -18 34 -22z m2322 25 c0 -27 -23 -69 -36 -64 -19 7
-18 38 2 57 17 17 34 21 34 7z m-1701 -32 c36 -6 76 -13 88 -15 l22 -4 -22
-34 c-15 -23 -32 -36 -55 -41 -35 -6 -60 -44 -39 -57 16 -10 -37 -28 -62 -21
-14 4 -20 11 -17 20 3 8 6 19 6 25 0 6 7 5 16 -3 14 -11 18 -10 30 6 8 10 14
29 14 42 0 13 5 23 10 23 6 0 10 -7 10 -14 0 -21 51 -2 67 23 11 17 9 20 -19
26 -23 5 -33 3 -40 -9 -8 -14 -11 -13 -28 4 -16 16 -25 18 -45 10 -25 -9 -37
3 -12 13 6 3 -1 6 -16 6 -16 1 -26 -3 -22 -8 3 -5 1 -12 -5 -16 -5 -3 -10 -4
-10 -1 0 2 -3 11 -6 20 -8 20 36 21 135 5z m631 -30 c0 -5 -4 -9 -10 -9 -5 0
-10 7 -10 16 0 8 5 12 10 9 6 -3 10 -10 10 -16z m-1182 -7 c2 -7 -2 -10 -12
-6 -9 3 -16 11 -16 16 0 13 23 5 28 -10z m-1560 -50 c6 -9 12 -23 12 -32 0 -9
11 -30 25 -46 29 -33 31 -44 10 -44 -8 0 -15 -7 -15 -15 0 -8 -8 -15 -17 -15
-9 0 -13 3 -9 7 4 4 -14 12 -41 18 -35 7 -51 17 -60 35 -9 18 -19 24 -35 22
-19 -3 -21 -1 -10 9 6 7 12 27 12 44 0 18 3 34 6 38 12 11 109 -5 122 -21z
m1408 19 c-3 -5 3 -11 13 -14 12 -3 22 1 25 9 3 8 10 14 16 14 7 0 8 -6 0 -19
-5 -11 -7 -27 -4 -35 4 -12 0 -16 -15 -16 -12 0 -21 6 -21 15 0 8 -7 15 -16
15 -11 0 -14 -5 -10 -17 8 -19 -9 -33 -41 -33 -33 0 -28 20 5 21 23 0 24 2 8
8 -18 7 -18 8 -3 14 9 3 17 16 17 27 0 11 7 20 16 20 8 0 13 -4 10 -9z m-693
-58 c6 -38 13 -52 28 -56 19 -5 27 -37 9 -37 -5 0 -10 7 -10 14 0 13 -4 13
-35 0 -33 -14 -45 -9 -26 12 18 19 21 73 5 89 -8 8 -12 20 -9 25 14 22 30 2
38 -47z m3197 27 c0 -5 -2 -10 -4 -10 -3 0 -8 5 -11 10 -3 6 -1 10 4 10 6 0
11 -4 11 -10z m-2403 -62 c4 -43 -13 -92 -27 -83 -16 10 -41 -15 -35 -34 3
-12 -2 -16 -20 -17 -32 -2 -32 13 0 38 14 11 23 24 20 29 -4 5 0 9 8 9 24 0
42 29 31 48 -13 21 -6 54 9 49 7 -2 13 -20 14 -39z m4154 15 c13 -16 12 -17
-3 -4 -10 7 -18 15 -18 17 0 8 8 3 21 -13z m-5351 -23 c0 -5 -4 -10 -9 -10 -6
0 -13 5 -16 10 -3 6 1 10 9 10 9 0 16 -4 16 -10z m960 -17 c0 -17 -32 -16 -55
1 -17 12 -16 13 18 12 22 0 37 -6 37 -13z m-1148 -74 c5 -33 -7 -39 -15 -8 -4
16 -11 20 -26 16 -11 -2 -22 1 -24 7 -3 8 7 12 28 13 29 1 34 -3 37 -28z m128
21 c0 -5 -7 -10 -16 -10 -8 0 -12 5 -9 10 3 6 10 10 16 10 5 0 9 -4 9 -10z
m471 -23 c-16 -16 -26 0 -10 19 9 11 15 12 17 4 2 -6 -1 -17 -7 -23z m-214
-24 c-17 -18 -22 -8 -11 22 5 12 10 13 17 6 8 -8 6 -16 -6 -28z m4273 17 c0
-5 -5 -10 -11 -10 -5 0 -7 5 -4 10 3 6 8 10 11 10 2 0 4 -4 4 -10z m-4390 -42
c0 -5 -7 -8 -15 -8 -15 0 -20 21 -8 33 7 7 23 -11 23 -25z m130 -39 c0 -12
-49 -43 -56 -36 -8 7 28 43 44 43 6 1 12 -3 12 -7z m767 -13 c-3 -6 -10 -10
-16 -8 -6 1 -11 -3 -11 -8 0 -6 8 -10 18 -8 11 2 16 -3 14 -14 -2 -12 3 -18
15 -18 12 0 14 3 6 8 -7 4 -9 13 -4 21 14 22 28 4 23 -29 -2 -16 -6 -30 -9
-30 -2 0 -22 9 -44 21 -31 15 -39 24 -34 37 4 9 9 25 12 34 3 10 11 14 19 11
8 -3 13 -11 11 -17z m-1066 -11 c-1 -15 -24 -12 -29 3 -3 9 2 13 12 10 10 -1
17 -7 17 -13z m2749 11 c0 -2 3 -11 6 -20 9 -23 -9 -20 -24 4 -10 17 -10 20 3
20 8 0 15 -2 15 -4z m-3500 -123 c18 -65 35 -124 38 -130 2 -7 0 -13 -5 -13
-5 0 -24 53 -43 118 -18 64 -35 123 -38 130 -2 6 0 12 5 12 6 0 25 -53 43
-117z m4220 92 c10 -12 10 -15 -4 -15 -9 0 -16 7 -16 15 0 8 2 15 4 15 2 0 9
-7 16 -15z m130 -26 c0 -5 -4 -9 -10 -9 -5 0 -10 7 -10 16 0 8 5 12 10 9 6 -3
10 -10 10 -16z m-3582 -85 c-9 -9 -21 -13 -27 -9 -16 10 -3 25 22 25 20 0 20
-1 5 -16z m1608 -90 c-4 -9 -9 -15 -11 -12 -3 3 -3 13 1 22 4 9 9 15 11 12 3
-3 3 -13 -1 -22z m-31 -14 c-4 -12 -9 -19 -12 -17 -3 3 -2 15 2 27 4 12 9 19
12 17 3 -3 2 -15 -2 -27z m195 14 c0 -8 -4 -12 -10 -9 -5 3 -10 10 -10 16 0 5
5 9 10 9 6 0 10 -7 10 -16z m-1320 -19 c-7 -9 -15 -13 -18 -10 -3 2 1 11 8 20
7 9 15 13 18 10 3 -2 -1 -11 -8 -20z m1240 15 c0 -5 -7 -10 -16 -10 -8 0 -12
5 -9 10 3 6 10 10 16 10 5 0 9 -4 9 -10z m-1340 -4 c0 -2 -8 -10 -17 -17 -16
-13 -17 -12 -4 4 13 16 21 21 21 13z m-180 -50 c-15 -15 -33 4 -19 20 10 12
14 12 20 2 5 -7 4 -17 -1 -22z m385 24 c-3 -5 -13 -10 -21 -10 -8 0 -12 5 -9
10 3 6 13 10 21 10 8 0 12 -4 9 -10z m-55 -20 c-20 -13 -43 -13 -35 0 3 6 16
10 28 10 18 0 19 -2 7 -10z m-57 -7 c4 -3 2 -12 -4 -20 -9 -10 -6 -13 12 -13
19 0 21 -2 9 -10 -21 -13 -23 -13 -38 10 -17 28 0 54 21 33z m72 -13 c-3 -5
-14 -10 -23 -10 -15 0 -15 2 -2 10 20 13 33 13 25 0z m4566 -4 c5 3 9 0 9 -5
0 -6 -9 -11 -20 -11 -14 0 -18 5 -13 17 4 11 8 13 11 5 2 -7 8 -10 13 -6z
m-4701 -16 c-16 -11 -40 -13 -40 -5 0 8 44 24 50 18 2 -2 -2 -8 -10 -13z
m-160 7 c0 -2 -12 -14 -27 -28 l-28 -24 24 28 c23 25 31 32 31 24z m-290 -77
c0 -5 -2 -10 -4 -10 -3 0 -8 5 -11 10 -3 6 -1 10 4 10 6 0 11 -4 11 -10z m-40
-25 c0 -8 -4 -15 -10 -15 -5 0 -7 7 -4 15 4 8 8 15 10 15 2 0 4 -7 4 -15z
m115 5 c3 -5 1 -10 -4 -10 -6 0 -11 5 -11 10 0 6 2 10 4 10 3 0 8 -4 11 -10z
m-147 -95 c1 -16 -2 -15 -14 8 -9 17 -12 36 -8 50 7 21 8 20 15 -8 4 -16 7
-39 7 -50z m-635 53 c83 -196 100 -278 73 -342 -12 -29 -13 -42 -5 -52 14 -17
-2 -19 -18 -3 -9 9 -7 24 7 59 17 43 18 53 5 111 -7 35 -29 103 -48 152 -19
48 -32 87 -27 87 4 0 10 -6 13 -12z m4931 -40 c-3 -10 0 -26 7 -34 6 -8 9 -17
6 -21 -4 -3 -2 -12 4 -19 9 -11 6 -16 -12 -22 -19 -8 -27 -4 -45 22 l-21 31
20 37 c21 38 53 43 41 6z m-4586 -25 c0 -10 3 -27 7 -38 5 -15 0 -13 -20 9
-21 22 -24 31 -13 37 20 13 27 11 26 -8z m312 -31 c0 -5 -11 -19 -25 -32 -19
-18 -31 -21 -55 -16 -27 5 -37 1 -63 -25 -25 -25 -28 -33 -16 -40 46 -31 46
-31 120 26 39 30 73 55 75 55 18 0 -8 -27 -71 -75 l-75 -58 -40 27 c-43 28
-51 51 -22 60 11 4 24 16 31 29 10 19 18 22 56 19 36 -3 45 0 54 17 12 21 31
29 31 13z m217 -42 c-14 -16 -28 -42 -32 -58 -6 -28 -65 -96 -65 -76 0 6 11
21 24 33 13 12 27 36 30 54 6 31 41 77 59 77 5 0 -2 -13 -16 -30z m4129 -85
c4 -20 10 -32 17 -28 6 3 7 1 3 -5 -8 -13 42 -84 54 -77 9 5 45 -33 53 -57 3
-9 0 -19 -9 -22 -8 -3 -14 -12 -14 -21 0 -8 -2 -15 -4 -15 -8 0 -63 59 -59 63
2 3 -7 27 -20 55 -14 28 -27 63 -31 79 -4 15 -9 36 -12 46 -3 9 -1 17 5 17 5
0 13 -16 17 -35z m-5583 -12 c-7 -2 -19 -2 -25 0 -7 3 -2 5 12 5 14 0 19 -2
13 -5z m60 0 c-7 -2 -19 -2 -25 0 -7 3 -2 5 12 5 14 0 19 -2 13 -5z m1046
-141 c-51 -53 -95 -98 -96 -101 -2 -2 -6 -1 -10 3 -4 4 38 51 92 106 54 55
101 97 104 94 3 -2 -38 -48 -90 -102z m148 -14 c-3 -8 -6 -5 -6 6 -1 11 2 17
5 13 3 -3 4 -12 1 -19z m-1022 2 c3 -5 1 -10 -4 -10 -6 0 -11 5 -11 10 0 6 2
10 4 10 3 0 8 -4 11 -10z m40 -20 c3 -5 2 -10 -4 -10 -5 0 -13 5 -16 10 -3 6
-2 10 4 10 5 0 13 -4 16 -10z m5622 -13 c4 -7 -6 -8 -30 -4 -27 4 -35 2 -31
-7 8 -22 -27 -29 -42 -9 -11 15 -11 20 0 28 17 13 94 7 103 -8z m-147 -133 c0
-14 -3 -14 -15 -4 -8 7 -15 14 -15 16 0 2 7 4 15 4 8 0 15 -7 15 -16z m-4830
-37 c0 -2 -10 -12 -22 -23 l-23 -19 19 23 c18 21 26 27 26 19z m-410 -36 c0
-6 -4 -13 -10 -16 -5 -3 -10 1 -10 9 0 9 5 16 10 16 6 0 10 -4 10 -9z m5227
-18 c-9 -9 -20 -13 -24 -9 -4 4 -1 11 7 16 25 16 35 11 17 -7z m-4947 -27 c0
-2 -8 -10 -17 -17 -16 -13 -17 -12 -4 4 13 16 21 21 21 13z m3624 -200 c27 -1
33 -26 7 -26 -12 0 -24 -7 -27 -15 -10 -24 -25 -17 -18 9 4 16 1 25 -10 29 -9
4 -16 11 -16 17 0 7 8 7 23 -2 12 -6 31 -12 41 -12z m2567 -53 c13 -16 12 -17
-3 -4 -10 7 -18 15 -18 17 0 8 8 3 21 -13z"/>
<path d="M3293 4754 c-6 -17 22 -51 66 -77 28 -17 32 -17 37 -2 5 11 -6 30
-32 56 -41 42 -61 48 -71 23z"/>
<path d="M3751 4601 c-11 -7 -10 -11 7 -20 17 -9 19 -8 15 9 -3 11 -6 20 -7
20 0 0 -7 -4 -15 -9z"/>
<path d="M3720 4560 c0 -5 5 -10 11 -10 5 0 7 5 4 10 -3 6 -8 10 -11 10 -2 0
-4 -4 -4 -10z"/>
<path d="M2945 4458 c-40 -47 -55 -77 -55 -111 1 -15 6 -9 15 18 8 22 15 41
15 42 0 1 8 0 18 -3 13 -4 14 -4 4 4 -11 7 -7 17 18 46 18 20 30 39 28 42 -3
3 -22 -14 -43 -38z"/>
<path d="M3526 4325 c-3 -8 -1 -15 4 -15 13 0 22 18 11 24 -5 3 -11 -1 -15 -9z"/>
<path d="M2880 4281 c0 -5 7 -12 16 -15 14 -5 15 -4 4 9 -14 17 -20 19 -20 6z"/>
<path d="M2886 4227 c-5 -21 -9 -197 -3 -197 20 1 133 44 139 53 23 37 -6 127
-41 127 -9 0 -33 9 -53 19 l-36 20 -6 -22z m34 -42 c0 -8 -4 -15 -10 -15 -5 0
-7 7 -4 15 4 8 8 15 10 15 2 0 4 -7 4 -15z m40 -69 c0 -11 -19 -15 -25 -6 -3
5 1 10 9 10 9 0 16 -2 16 -4z"/>
<path d="M3052 4150 c0 -14 2 -19 5 -12 2 6 2 18 0 25 -3 6 -5 1 -5 -13z"/>
<path d="M3248 4082 c-10 -2 -18 -11 -17 -20 0 -11 2 -12 6 -4 8 20 23 14 23
-9 0 -17 3 -19 13 -10 8 6 17 8 20 4 10 -10 8 10 -3 27 -9 13 -10 13 -11 0 0
-13 -1 -13 -7 0 -4 9 -15 14 -24 12z"/>
<path d="M3003 4050 l-22 -9 27 -59 c15 -33 30 -58 34 -56 4 3 10 -1 14 -7 4
-8 -5 -22 -22 -36 -28 -24 -28 -25 -4 -18 41 11 53 29 45 65 -4 17 -13 34 -22
37 -8 3 -12 12 -9 19 6 17 -4 74 -13 73 -3 0 -16 -4 -28 -9z"/>
<path d="M3080 3633 c8 -3 32 -14 53 -25 20 -10 37 -14 37 -9 0 14 -28 27 -70
35 -19 3 -28 3 -20 -1z"/>
<path d="M3250 3580 c0 -5 5 -10 10 -10 6 0 10 5 10 10 0 6 -4 10 -10 10 -5 0
-10 -4 -10 -10z"/>
<path d="M3354 3582 c-12 -8 -25 -38 -29 -69 -2 -15 1 -20 12 -16 8 3 12 12 9
19 -3 9 1 14 11 14 13 0 14 3 5 12 -7 7 -8 17 -1 30 11 20 10 21 -7 10z"/>
<path d="M3190 3538 c0 -18 18 -34 28 -24 3 4 -2 14 -11 23 -16 16 -17 16 -17
1z"/>
<path d="M3240 3540 c0 -5 5 -10 11 -10 5 0 7 5 4 10 -3 6 -8 10 -11 10 -2 0
-4 -4 -4 -10z"/>
<path d="M3190 3485 c-7 -8 -16 -12 -22 -9 -5 3 -23 -8 -41 -26 -27 -26 -30
-33 -19 -48 7 -9 17 -29 23 -44 11 -29 23 -35 34 -18 4 6 11 7 17 4 6 -4 6 1
-1 14 -6 11 -11 23 -11 26 0 8 57 36 61 31 8 -8 51 64 44 74 -9 16 -35 13 -41
-3 -3 -8 -12 -12 -21 -9 -12 5 -12 7 -1 14 8 5 9 9 2 9 -6 0 -17 -7 -24 -15z
m-20 -40 c0 -8 -4 -15 -10 -15 -5 0 -10 7 -10 15 0 8 5 15 10 15 6 0 10 -7 10
-15z m-40 -35 c0 -5 -4 -10 -10 -10 -5 0 -10 5 -10 10 0 6 5 10 10 10 6 0 10
-4 10 -10z"/>
<path d="M3355 3481 c-3 -5 -1 -12 5 -16 5 -3 10 1 10 9 0 18 -6 21 -15 7z"/>
<path d="M3274 3423 c-20 -27 -42 -54 -47 -60 -7 -10 -2 -13 19 -13 19 0 45
14 74 40 l45 39 -22 20 c-12 12 -24 21 -26 21 -3 0 -22 -21 -43 -47z m6 -53
c0 -5 -4 -10 -10 -10 -5 0 -10 5 -10 10 0 6 5 10 10 10 6 0 10 -4 10 -10z"/>
<path d="M2535 5307 c-8 -19 -2 -31 13 -26 5 2 6 13 2 24 -7 19 -8 19 -15 2z"/>
<path d="M3960 5282 c0 -5 7 -17 15 -28 15 -19 20 -8 9 20 -6 17 -24 22 -24 8z"/>
<path d="M4001 5285 c-1 -15 37 -61 44 -54 3 4 -5 20 -19 35 -14 16 -25 25
-25 19z"/>
<path d="M3940 5253 c0 -23 15 -39 24 -25 3 5 -1 18 -9 28 -14 18 -14 18 -15
-3z"/>
<path d="M3890 5189 c0 -5 5 -7 10 -4 6 3 10 8 10 11 0 2 -4 4 -10 4 -5 0 -10
-5 -10 -11z"/>
<path d="M4291 4874 c0 -11 3 -14 6 -6 3 7 2 16 -1 19 -3 4 -6 -2 -5 -13z"/>
<path d="M4291 4814 c0 -11 3 -14 6 -6 3 7 2 16 -1 19 -3 4 -6 -2 -5 -13z"/>
<path d="M4404 4485 c-5 -11 -11 -12 -24 -5 -25 13 -30 13 -25 -2 3 -7 19 -14
35 -15 24 -2 30 2 30 17 0 24 -8 26 -16 5z"/>
<path d="M3165 4391 c-3 -5 -1 -12 4 -15 5 -3 11 1 15 9 6 16 -9 21 -19 6z"/>
<path d="M4660 3571 c0 -5 5 -13 10 -16 6 -3 10 -2 10 4 0 5 -4 13 -10 16 -5
3 -10 2 -10 -4z"/>
<path d="M2610 3534 c0 -8 5 -12 10 -9 6 3 10 10 10 16 0 5 -4 9 -10 9 -5 0
-10 -7 -10 -16z"/>
<path d="M4351 2814 c0 -11 3 -14 6 -6 3 7 2 16 -1 19 -3 4 -6 -2 -5 -13z"/>
<path d="M4400 2725 c7 -9 15 -13 17 -11 7 7 -7 26 -19 26 -6 0 -6 -6 2 -15z"/>
<path d="M4205 3410 c3 -5 8 -10 11 -10 2 0 4 5 4 10 0 6 -5 10 -11 10 -5 0
-7 -4 -4 -10z"/>
<path d="M3805 3160 c-3 -5 -1 -10 4 -10 6 0 11 5 11 10 0 6 -2 10 -4 10 -3 0
-8 -4 -11 -10z"/>
<path d="M2375 3140 c3 -5 8 -10 11 -10 2 0 4 5 4 10 0 6 -5 10 -11 10 -5 0
-7 -4 -4 -10z"/>
<path d="M4740 2841 c0 -11 11 -33 25 -48 l25 -28 -2 45 c-3 38 -6 45 -25 48
-17 3 -23 -2 -23 -17z"/>
<path d="M3532 2601 c-11 -6 -10 -10 4 -15 20 -8 32 0 18 14 -5 5 -15 5 -22 1z"/>
<path d="M4580 2690 c0 -19 3 -21 12 -12 9 9 9 15 0 24 -9 9 -12 7 -12 -12z"/>
<path d="M4588 2654 c-5 -4 -8 -19 -8 -33 1 -23 2 -24 11 -8 11 19 9 53 -3 41z"/>
<path d="M2360 2570 c0 -5 5 -10 10 -10 6 0 10 5 10 10 0 6 -4 10 -10 10 -5 0
-10 -4 -10 -10z"/>
<path d="M2546 1831 c-11 -12 -14 -21 -7 -26 10 -6 15 1 12 18 0 4 4 7 9 7 6
0 10 -5 10 -12 0 -9 3 -9 11 -1 11 11 5 33 -10 33 -4 0 -16 -9 -25 -19z"/>
<path d="M1110 1656 c0 -31 6 -34 13 -6 3 11 1 23 -4 26 -5 3 -9 -6 -9 -20z"/>
<path d="M1185 1670 c3 -5 11 -10 16 -10 6 0 7 5 4 10 -3 6 -11 10 -16 10 -6
0 -7 -4 -4 -10z"/>
<path d="M1130 1630 c0 -5 13 -10 29 -10 17 0 33 5 36 10 4 6 -8 10 -29 10
-20 0 -36 -4 -36 -10z"/>
<path d="M1136 1601 c-3 -5 0 -14 8 -20 16 -14 71 3 61 19 -8 12 -62 13 -69 1z"/>
<path d="M5580 876 c0 -8 5 -18 10 -21 6 -3 10 1 10 9 0 8 -4 18 -10 21 -5 3
-10 -1 -10 -9z"/>
<path d="M5765 540 c4 -6 11 -8 16 -5 14 9 11 15 -7 15 -8 0 -12 -5 -9 -10z"/>
</g>
</svg>
