<?xml version="1.0" standalone="no"?>
<!DOCTYPE svg PUBLIC "-//W3C//DTD SVG 20010904//EN"
 "http://www.w3.org/TR/2001/REC-SVG-20010904/DTD/svg10.dtd">
<svg version="1.0" xmlns="http://www.w3.org/2000/svg"
 width="800.000000pt" height="800.000000pt" viewBox="0 0 800.000000 800.000000"
 preserveAspectRatio="xMidYMid meet">
<metadata>
Created by potrace 1.16, written by Peter Selinger 2001-2019
</metadata>
<g transform="translate(0.000000,800.000000) scale(0.100000,-0.100000)"
fill="#000000" stroke="none">
<path d="M0 4000 l0 -4000 4000 0 4000 0 0 4000 0 4000 -4000 0 -4000 0 0
-4000z m3737 3144 c-3 -3 -12 -4 -19 -1 -8 3 -5 6 6 6 11 1 17 -2 13 -5z
m2823 -472 c0 -14 -39 -46 -47 -39 -3 4 2 16 12 27 19 21 35 26 35 12z m65
-106 c32 -26 32 -39 0 -30 -25 7 -62 54 -43 54 7 0 27 -11 43 -24z m-885
-1498 c10 -6 0 -7 -30 -3 -28 3 -65 0 -98 -10 -29 -9 -58 -13 -64 -9 -6 4 18
15 53 25 63 17 109 16 139 -3z m-1256 -629 c-3 -6 -12 -8 -20 -5 -16 6 -64
-59 -64 -86 0 -9 -4 -20 -10 -23 -21 -13 -9 43 15 69 14 15 25 33 25 41 0 7
10 15 23 17 27 5 39 0 31 -13z m-114 -185 c-16 -37 -19 -57 -13 -89 8 -43 8
-58 -2 -148 -5 -43 -14 -67 -34 -90 -41 -48 -52 -82 -40 -114 6 -15 8 -42 4
-59 -5 -28 -2 -33 25 -44 35 -14 70 -59 70 -87 0 -11 -11 -57 -25 -104 -14
-46 -30 -115 -35 -153 -7 -61 -13 -72 -39 -94 -17 -13 -38 -37 -47 -54 -8 -16
-18 -27 -21 -24 -12 11 20 66 53 91 28 21 34 33 34 63 0 20 9 69 21 107 12 39
26 96 31 127 13 68 5 81 -59 109 -42 18 -42 19 -31 50 8 22 8 41 0 67 -13 40
0 73 48 129 23 26 29 45 35 105 4 47 3 90 -5 118 -11 41 -10 48 16 97 35 64
42 63 14 -3z m2850 -344 c0 -4 -7 -13 -15 -20 -8 -7 -15 -17 -15 -22 0 -11
-58 -82 -129 -160 -25 -27 -51 -58 -59 -69 -12 -17 -16 -18 -23 -8 -13 20 -11
29 6 29 9 0 18 6 21 14 6 15 39 55 114 134 47 50 70 85 70 108 0 8 6 11 15 8
8 -4 15 -10 15 -14z m-2987 -82 c-3 -16 -9 -28 -14 -28 -5 0 -6 7 -4 15 3 8 7
22 10 31 8 26 14 12 8 -18z m1134 -80 c-3 -8 -6 -5 -6 6 -1 11 2 17 5 13 3 -3
4 -12 1 -19z m660 -20 c-3 -8 -6 -5 -6 6 -1 11 2 17 5 13 3 -3 4 -12 1 -19z
m-725 -254 c20 -22 40 -33 70 -38 68 -10 191 -57 219 -83 22 -20 36 -24 73
-22 43 3 47 1 72 -37 14 -21 28 -40 29 -42 2 -2 72 10 156 27 132 27 175 32
158 18 -2 -2 -56 -14 -119 -26 -190 -37 -185 -35 -199 -83 -7 -24 -22 -53 -33
-65 -31 -33 -41 -105 -24 -169 8 -30 10 -56 6 -59 -10 -6 -30 81 -30 129 0 43
18 96 41 121 10 12 22 35 25 53 6 32 6 32 -20 22 -14 -5 -61 -38 -104 -73 -71
-60 -84 -66 -168 -86 -50 -11 -111 -21 -134 -21 -26 0 -56 -8 -78 -22 -33 -20
-34 -22 -14 -29 12 -5 51 -38 87 -73 64 -64 65 -67 65 -119 0 -55 9 -71 56
-95 17 -9 39 -1 128 44 106 55 245 109 254 99 6 -6 -47 -28 -108 -46 -25 -7
-56 -20 -70 -29 -14 -9 -54 -32 -90 -50 -36 -17 -67 -35 -70 -39 -3 -3 -15
-15 -28 -25 -16 -14 -21 -15 -17 -5 3 9 -10 30 -35 54 -36 35 -40 44 -40 88 0
44 -4 52 -52 104 -29 30 -65 61 -80 69 l-28 14 -68 -92 c-38 -51 -95 -130
-127 -175 -32 -46 -63 -83 -69 -83 -5 0 -21 -11 -35 -24 -33 -31 -174 -116
-181 -110 -3 3 4 12 14 20 17 12 18 14 2 20 -9 4 -23 22 -31 40 -8 19 -29 43
-49 55 -19 11 -38 29 -41 39 -10 32 -53 70 -79 70 -18 0 -30 9 -41 30 -9 17
-24 30 -33 30 -20 0 -64 29 -46 30 41 1 76 -15 89 -41 11 -20 25 -30 50 -35
35 -6 95 -62 95 -87 0 -7 14 -21 30 -30 17 -10 37 -32 46 -49 28 -55 34 -57
79 -31 73 40 162 131 254 259 50 69 91 129 91 133 0 17 -74 21 -97 6 -27 -18
-33 -19 -33 -2 0 22 58 40 109 33 37 -5 51 -3 61 9 39 47 119 73 282 90 52 6
65 12 135 71 109 90 117 98 109 128 -6 24 -11 26 -62 26 -48 0 -60 4 -84 29
-30 30 -111 64 -195 81 -53 12 -85 32 -104 68 -6 12 -17 22 -24 22 -19 1 -79
59 -72 71 7 10 75 -47 127 -107z m1041 41 c21 -20 37 -41 37 -48 0 -6 -17 6
-38 26 -22 21 -43 37 -48 36 -21 -4 -28 2 -14 11 22 14 23 13 63 -25z m82
-105 c3 -5 2 -10 -4 -10 -5 0 -13 5 -16 10 -3 6 -2 10 4 10 5 0 13 -4 16 -10z
m-2393 -73 c-12 -13 -22 -29 -22 -35 0 -7 -5 -12 -11 -12 -16 0 1 41 25 61 29
24 34 14 8 -14z m2627 -27 c-29 -36 -49 -50 -49 -34 0 13 56 73 68 73 7 1 -2
-17 -19 -39z m91 5 c-7 -8 -17 -15 -23 -15 -6 0 -2 7 9 15 25 19 30 19 14 0z
m-590 -13 c0 -35 -59 -170 -101 -229 -47 -68 -67 -107 -83 -160 -6 -18 -3 -23
11 -23 47 -1 34 -15 -15 -17 -46 -2 -53 -1 -40 10 8 6 25 41 38 77 12 36 33
76 45 90 38 42 85 122 85 147 0 26 40 113 52 113 4 0 8 -4 8 -8z m125 -160
c-7 -7 -6 -8 -43 74 -18 39 -32 77 -31 85 0 8 18 -24 40 -70 22 -46 37 -86 34
-89z m-1085 108 c0 -5 -4 -10 -9 -10 -6 0 -13 5 -16 10 -3 6 1 10 9 10 9 0 16
-4 16 -10z m1046 -80 c12 -40 12 -61 -1 -48 -12 12 -33 99 -23 96 6 -2 17 -24
24 -48z m-2057 -27 c-35 -58 -59 -89 -116 -148 -29 -30 -54 -58 -54 -62 -1 -5
-2 -42 -3 -83 -2 -61 -8 -85 -31 -128 -31 -57 -71 -100 -82 -89 -3 4 6 20 22
37 17 17 25 35 22 44 -4 9 -1 16 6 16 25 0 41 45 44 124 3 86 20 125 70 162
15 12 46 48 68 80 35 51 62 83 73 84 2 0 -7 -17 -19 -37z m151 -53 c0 -5 -2
-10 -4 -10 -3 0 -8 5 -11 10 -3 6 -1 10 4 10 6 0 11 -4 11 -10z m720 -60 c0
-13 -1 -13 -10 0 -5 8 -10 22 -10 30 0 13 1 13 10 0 5 -8 10 -22 10 -30z
m-920 -389 c0 -16 -79 -73 -95 -69 -9 2 -15 8 -13 13 1 6 7 9 13 8 6 -2 26 10
45 27 37 31 50 36 50 21z m308 -3 c-3 -7 -16 -14 -30 -16 -24 -3 -26 -6 -21
-45 6 -48 -11 -41 -20 8 -8 46 -1 53 66 64 5 0 7 -5 5 -11z m119 -4 c-3 -3
-12 -4 -19 -1 -8 3 -5 6 6 6 11 1 17 -2 13 -5z m831 -17 c-61 -51 -148 -107
-225 -145 -62 -32 -101 -61 -165 -124 -45 -46 -92 -100 -103 -120 -17 -34 -45
-54 -100 -74 -44 -15 -52 -13 -66 19 -12 26 -13 41 -4 82 10 44 9 53 -7 74
-10 13 -18 28 -18 32 0 16 15 8 38 -21 22 -28 22 -33 11 -89 -15 -77 -7 -90
48 -79 37 8 52 20 111 91 93 111 180 184 287 241 50 27 117 68 150 92 64 46
87 58 43 21z m-1498 -2 c0 -9 -62 -75 -72 -75 -5 0 6 18 23 40 28 35 49 50 49
35z m1160 -14 c0 -11 -50 -24 -58 -16 -8 8 19 25 41 25 9 0 17 -4 17 -9z
m-655 -90 c3 -5 1 -12 -5 -16 -5 -3 -10 1 -10 9 0 18 6 21 15 7z m-104 -98
c-27 -55 -53 -64 -130 -48 -34 7 -65 16 -69 20 -6 7 9 6 110 -11 35 -6 38 -4
69 40 39 54 48 54 20 -1z m-323 -25 c2 -21 -3 -29 -25 -40 -16 -7 -29 -23 -31
-36 -2 -14 -10 -22 -23 -22 -23 0 -23 0 -3 50 9 22 22 40 29 40 8 0 17 9 20
21 9 27 29 19 33 -13z m244 10 c-7 -7 -12 -8 -12 -2 0 14 12 26 19 19 2 -3 -1
-11 -7 -17z m340 -30 c-15 -15 -26 -4 -18 18 5 13 9 15 18 6 9 -9 9 -15 0 -24z
m248 2 c-16 -11 -40 -13 -40 -5 0 8 44 24 50 18 2 -2 -2 -8 -10 -13z m-1018
-29 c7 -10 23 -21 36 -25 12 -4 22 -12 22 -18 0 -13 -52 -1 -65 15 -5 7 -18
11 -29 9 -10 -2 -23 1 -29 7 -8 8 -5 11 11 11 12 0 22 5 22 10 0 16 18 11 32
-9z m778 -26 c0 -8 -4 -15 -10 -15 -5 0 -10 7 -10 15 0 8 5 15 10 15 6 0 10
-7 10 -15z m-880 -15 c0 -18 -50 -110 -60 -110 -10 0 41 119 53 120 4 0 7 -5
7 -10z m254 -27 c-25 -55 27 -204 78 -222 15 -6 28 -15 28 -21 0 -8 15 -9 45
-4 27 4 45 2 45 -4 0 -13 -94 -25 -98 -12 -2 6 -17 17 -33 25 -32 17 -74 83
-84 135 -4 19 -12 41 -19 49 -8 11 -8 15 2 18 6 3 12 13 12 22 0 20 8 31 23
31 5 0 6 -7 1 -17z m666 -38 c7 -9 10 -18 7 -21 -9 -9 -48 16 -42 27 9 13 21
11 35 -6z m-130 -94 c0 -41 -3 -50 -21 -54 -20 -5 -79 21 -79 36 0 11 8 9 35
-9 33 -22 55 -12 55 25 0 23 -6 32 -27 39 l-28 10 33 1 c32 1 32 1 32 -48z
m-760 7 c0 -6 -8 -21 -17 -32 -18 -21 -18 -21 2 -4 31 25 75 34 75 14 0 -8 -6
-13 -13 -10 -19 7 -64 -45 -75 -88 -11 -41 3 -53 28 -23 16 19 57 19 90 0 14
-8 38 -14 53 -15 18 0 26 -4 21 -11 -7 -12 -43 -5 -92 18 -31 15 -36 15 -62 0
-29 -17 -95 -14 -84 4 3 5 10 7 15 4 5 -4 9 17 9 48 0 36 5 59 15 67 8 7 15
19 15 26 0 8 5 14 10 14 6 0 10 -5 10 -12z m194 -30 c-3 -13 -12 -36 -20 -53
l-13 -30 2 37 c1 21 5 38 10 38 4 0 7 7 7 15 0 8 5 15 11 15 6 0 8 -9 3 -22z
m844 -8 c-7 -11 -19 -20 -27 -20 -8 0 -4 8 10 20 30 25 32 25 17 0z m-113 -60
c3 -5 -1 -10 -9 -10 -9 0 -16 5 -16 10 0 6 4 10 9 10 6 0 13 -4 16 -10z m40 0
c-3 -5 -12 -10 -18 -10 -7 0 -6 4 3 10 19 12 23 12 15 0z m-474 -60 c-9 -33
-19 -60 -24 -60 -9 0 1 66 14 91 5 9 5 19 2 23 -3 3 0 6 9 6 13 0 13 -7 -1
-60z m395 31 c-4 -5 -27 -19 -52 -31 -25 -12 -52 -32 -60 -45 -14 -21 -21 -22
-105 -20 -54 1 -94 6 -102 14 -9 9 -3 11 28 7 135 -18 163 -17 169 1 3 10 32
33 63 50 64 36 67 37 59 24z m-541 -41 c-3 -5 -19 -10 -35 -10 -16 0 -32 5
-35 10 -4 6 10 10 35 10 25 0 39 -4 35 -10z m-138 -6 c-3 -3 -12 -4 -19 -1 -8
3 -5 6 6 6 11 1 17 -2 13 -5z m196 -1 c-7 -2 -21 -2 -30 0 -10 3 -4 5 12 5 17
0 24 -2 18 -5z m43 -30 c-7 -7 -26 7 -26 19 0 6 6 6 15 -2 9 -7 13 -15 11 -17z"/>
<path d="M5730 3250 c0 -5 5 -10 11 -10 5 0 7 5 4 10 -3 6 -8 10 -11 10 -2 0
-4 -4 -4 -10z"/>
</g>
</svg>
