<?xml version="1.0" standalone="no"?>
<!DOCTYPE svg PUBLIC "-//W3C//DTD SVG 20010904//EN"
 "http://www.w3.org/TR/2001/REC-SVG-20010904/DTD/svg10.dtd">
<svg version="1.0" xmlns="http://www.w3.org/2000/svg"
 width="800.000000pt" height="800.000000pt" viewBox="0 0 800.000000 800.000000"
 preserveAspectRatio="xMidYMid meet">
<metadata>
Created by potrace 1.16, written by Peter Selinger 2001-2019
</metadata>
<g transform="translate(0.000000,800.000000) scale(0.100000,-0.100000)"
fill="#000000" stroke="none">
<path d="M0 4000 l0 -4000 2111 0 c1837 0 2110 2 2099 15 -16 19 -3 57 18 53
12 -2 17 -14 17 -36 l0 -32 1877 0 1878 0 0 2370 c0 2363 0 2370 -20 2370 -11
0 -20 5 -20 10 0 6 9 10 20 10 22 0 24 8 11 62 -6 24 -5 40 2 47 7 7 7 11 1
11 -5 0 -18 14 -27 30 -14 22 -26 30 -47 30 -16 0 -31 -4 -34 -9 -9 -14 -46
-1 -46 16 0 23 20 54 31 48 15 -10 10 32 -6 45 -25 21 -17 32 10 13 13 -10 25
-26 25 -36 0 -10 11 -28 24 -40 40 -36 66 -57 71 -57 3 0 5 693 5 1540 l0
1540 -2862 -2 -2863 -3 3 -39 c3 -26 0 -36 -7 -32 -6 4 -11 18 -11 32 0 16 -6
24 -17 24 -15 0 -16 2 -3 10 10 6 -381 10 -1112 10 l-1128 0 0 -4000z m1228
3770 c-13 -20 -28 -27 -28 -12 0 10 22 32 32 32 5 0 3 -9 -4 -20z m62 -42 c0
-19 -2 -20 -10 -8 -13 19 -13 30 0 30 6 0 10 -10 10 -22z m-80 -38 c12 -8 10
-10 -8 -10 -19 0 -22 -4 -17 -20 4 -11 2 -20 -4 -20 -6 0 -11 14 -11 30 0 31
13 37 40 20z m70 0 c0 -5 -4 -10 -9 -10 -6 0 -13 5 -16 10 -3 6 1 10 9 10 9 0
16 -4 16 -10z m-26 -31 c-4 -8 1 -9 17 -4 l24 7 -25 -28 c-14 -16 -27 -32 -30
-36 -3 -4 -6 10 -6 32 -1 29 3 40 13 40 8 0 11 -5 7 -11z m83 -5 c-3 -3 -12
-4 -19 -1 -8 3 -5 6 6 6 11 1 17 -2 13 -5z m-117 -24 c0 -5 -5 -10 -11 -10 -6
0 -8 -9 -4 -20 3 -11 2 -20 -3 -20 -15 0 -21 37 -9 49 14 14 27 14 27 1z m76
-47 c-7 -7 -26 7 -26 19 0 6 6 6 15 -2 9 -7 13 -15 11 -17z m-46 -13 c0 -5 -7
-10 -16 -10 -8 0 -12 5 -9 10 3 6 10 10 16 10 5 0 9 -4 9 -10z m55 -20 c-3 -5
-11 -10 -16 -10 -6 0 -7 5 -4 10 3 6 11 10 16 10 6 0 7 -4 4 -10z m2913 -72
c-4 -18 -19 -27 -35 -21 -18 7 -16 21 5 26 29 8 32 7 30 -5z m-2685 -65 c-3
-6 -11 -14 -19 -17 -11 -4 -14 -1 -9 13 3 11 1 22 -5 26 -6 3 -8 11 -4 16 8
14 43 -22 37 -38z m1497 16 c0 -11 -3 -11 -24 -3 -23 9 -20 23 4 17 11 -3 20
-9 20 -14z m1195 2 c-3 -6 -11 -11 -17 -11 -6 0 -6 6 2 15 14 17 26 13 15 -4z
m-1140 -21 c3 -5 -1 -10 -9 -10 -8 0 -18 5 -21 10 -3 6 1 10 9 10 8 0 18 -4
21 -10z m64 -29 c14 -10 42 -26 61 -34 31 -14 32 -15 11 -16 -21 -1 -121 53
-121 65 0 10 24 2 49 -15z m136 -61 c3 -5 -1 -10 -9 -10 -9 0 -16 5 -16 10 0
6 4 10 9 10 6 0 13 -4 16 -10z m105 -29 c0 -5 -9 -7 -20 -4 -11 3 -20 7 -20 9
0 2 9 4 20 4 11 0 20 -4 20 -9z m758 -18 c2 -8 -5 -13 -17 -13 -12 0 -21 6
-21 16 0 18 31 15 38 -3z m662 -24 c0 -12 7 -19 19 -19 21 0 39 -41 33 -77 -7
-45 -47 -21 -54 32 l-4 30 -10 -34 c-17 -61 -35 -50 -30 17 2 34 7 65 10 71
10 16 36 1 36 -20z m848 -28 c3 -8 -1 -12 -9 -9 -7 2 -15 10 -17 17 -3 8 1 12
9 9 7 -2 15 -10 17 -17z m-45 -21 c-3 -11 -9 -18 -13 -15 -5 3 -6 14 -3 25 3
11 9 18 13 15 5 -3 6 -14 3 -25z m-2250 0 c9 0 17 -4 17 -10 0 -5 -7 -10 -15
-10 -10 0 -15 -11 -16 -32 0 -18 -3 -27 -6 -20 -2 6 -11 12 -19 12 -8 0 -14 9
-14 21 0 11 -4 17 -10 14 -12 -7 -12 -3 -4 20 5 11 14 15 28 11 11 -3 29 -6
39 -6z m2352 -20 c16 -18 16 -20 2 -20 -10 0 -17 5 -17 11 0 5 -4 8 -9 5 -5
-3 -14 1 -21 9 -20 24 23 19 45 -5z m1264 -320 c6 -80 11 -199 12 -265 1 -85
6 -129 16 -150 8 -16 51 -63 94 -103 43 -41 79 -78 79 -83 0 -17 -165 132
-182 165 -13 26 -19 83 -28 262 -6 126 -14 254 -17 284 -3 36 -2 52 5 45 5 -5
15 -75 21 -155z m761 102 c0 -11 -22 -32 -32 -32 -5 0 -4 9 2 20 11 20 30 28
30 12z m85 -32 c3 -5 2 -10 -4 -10 -5 0 -13 5 -16 10 -3 6 -2 10 4 10 5 0 13
-4 16 -10z m-5295 -55 c0 -8 -5 -17 -10 -20 -6 -4 -8 -11 -5 -16 4 -5 2 -9 -4
-9 -5 0 -9 15 -8 34 1 22 6 32 15 29 6 -3 12 -11 12 -18z m-11 -94 c25 -22 42
-43 38 -47 -7 -7 -157 126 -157 139 0 10 52 -31 119 -92z m188 68 c-9 -6 -13
-17 -10 -29 6 -23 -9 -27 -26 -7 -8 10 -6 19 10 36 11 12 25 18 31 15 7 -4 5
-10 -5 -15z m3100 -37 c-21 -23 -22 -46 -2 -62 12 -10 13 -16 4 -27 -9 -10 -9
-20 0 -40 6 -14 9 -28 7 -31 -3 -3 2 -11 12 -18 15 -12 15 -13 -4 -8 -18 5
-24 17 -33 72 -6 37 -13 78 -16 92 -5 20 -1 27 17 36 30 13 35 9 15 -14z
m-3356 -40 c16 3 29 1 29 -4 0 -4 -15 -8 -32 -8 -25 0 -36 6 -44 25 -9 18 -9
25 0 28 6 2 12 -7 14 -21 3 -20 8 -23 33 -20z m-1531 -2 c0 -10 -4 -22 -10
-25 -6 -4 -10 7 -10 25 0 18 4 29 10 25 6 -3 10 -15 10 -25z m1777 14 c-3 -3
-12 -4 -19 -1 -8 3 -5 6 6 6 11 1 17 -2 13 -5z m-32 -29 l50 -14 -57 2 c-32 1
-58 5 -58 8 0 5 12 20 14 19 1 -1 24 -7 51 -15z m-215 -15 c0 -5 -4 -10 -10
-10 -5 0 -10 5 -10 10 0 6 5 10 10 10 6 0 10 -4 10 -10z m237 -66 c18 -8 37
-23 43 -33 16 -30 11 -38 -9 -15 -9 12 -35 31 -57 43 -46 24 -74 45 -74 56 0
4 15 -3 33 -15 17 -12 46 -28 64 -36z m-17 -36 c0 -6 -7 -7 -16 -4 -9 3 -20 6
-25 6 -5 0 -9 4 -9 9 0 4 11 6 25 3 14 -2 25 -9 25 -14z m-796 -10 c11 -41 7
-49 -18 -42 -13 3 -27 1 -31 -5 -3 -6 -11 -9 -16 -5 -9 5 38 72 52 73 4 1 9
-9 13 -21z m2937 -18 c21 0 39 -4 39 -8 0 -4 -16 -6 -35 -4 -21 3 -35 0 -35
-7 0 -6 -9 -11 -20 -11 -13 0 -20 7 -20 19 0 20 22 35 28 20 2 -5 21 -9 43 -9z
m-2031 -20 c8 -5 11 -12 7 -16 -4 -4 -15 0 -24 9 -18 18 -8 23 17 7z m3220
-30 c0 -5 -10 -10 -22 -9 -22 0 -22 1 -3 9 11 5 21 9 23 9 1 1 2 -3 2 -9z
m-3169 -16 c12 -14 11 -16 -5 -13 -11 2 -21 10 -24 17 -5 17 13 15 29 -4z m59
-24 c0 -13 -11 -13 -30 0 -12 8 -11 10 8 10 12 0 22 -4 22 -10z m-2638 -92 c2
-26 -2 -42 -10 -45 -9 -4 -11 3 -7 24 3 15 2 22 -1 16 -10 -22 -24 -14 -24 12
0 14 5 25 11 25 5 0 7 5 4 10 -4 6 -4 19 0 28 6 15 8 14 16 -6 5 -13 10 -41
11 -64z m2762 26 c21 -20 20 -31 -1 -43 -10 -6 -13 -11 -7 -11 7 0 14 -8 17
-17 2 -10 8 -27 13 -38 7 -18 6 -18 -9 -6 -9 7 -17 20 -17 27 0 18 -38 56 -49
49 -14 -8 -22 26 -10 41 15 19 44 18 63 -2z m759 -6 c16 -17 20 -45 8 -52 -5
-4 -12 7 -16 23 -3 17 -14 32 -23 34 -15 4 -15 5 1 6 10 0 24 -5 30 -11z m665
-107 c3 -8 -1 -12 -9 -9 -7 2 -15 10 -17 17 -3 8 1 12 9 9 7 -2 15 -10 17 -17z
m2560 -55 c-1 -35 6 -55 31 -95 30 -46 31 -52 18 -72 -9 -12 -13 -28 -10 -36
3 -7 -1 -21 -9 -31 -8 -9 -18 -25 -21 -34 -3 -9 -22 -24 -41 -33 l-36 -17 -45
37 c-25 20 -45 41 -45 46 0 6 20 -6 45 -26 29 -24 50 -35 62 -31 25 8 76 74
70 90 -3 8 1 23 10 35 13 20 12 25 -16 70 -31 47 -36 75 -25 119 10 34 14 26
12 -22z m-6248 -1 c13 -14 21 -25 18 -25 -2 0 -15 11 -28 25 -13 14 -21 25
-18 25 2 0 15 -11 28 -25z m800 12 c0 -2 -10 -12 -22 -23 l-23 -19 19 23 c18
21 26 27 26 19z m5039 -28 c18 -6 30 -16 28 -23 -2 -6 5 -24 16 -39 10 -16 17
-30 14 -33 -5 -5 -31 25 -53 62 -10 16 -15 17 -30 7 -11 -6 -18 -16 -16 -22 3
-14 -15 -14 -23 -1 -4 7 21 57 31 60 1 0 15 -5 33 -11z m-5769 -44 c0 -8 -9
-19 -20 -25 -14 -8 -20 -8 -20 0 0 6 7 13 16 17 8 3 13 12 10 20 -3 8 -1 11 4
8 6 -3 10 -13 10 -20z m2323 -25 c-4 -4 -25 -11 -45 -14 -32 -6 -38 -4 -38 11
0 11 3 14 10 7 6 -6 24 -9 40 -6 24 3 30 9 31 31 2 25 2 25 6 2 3 -13 1 -27
-4 -31z m3762 10 c3 -5 -1 -10 -10 -10 -9 0 -13 5 -10 10 3 6 8 10 10 10 2 0
7 -4 10 -10z m353 -9 c3 -10 0 -12 -12 -8 -9 4 -16 2 -16 -3 0 -6 8 -10 17
-10 13 0 14 -3 5 -12 -18 -18 -56 19 -39 38 15 17 39 14 45 -5z m-420 -2 c-2
-6 -8 -10 -13 -10 -5 0 -11 4 -13 10 -2 6 4 11 13 11 9 0 15 -5 13 -11z m-128
-34 c8 -9 8 -15 2 -15 -18 0 -42 12 -42 21 0 14 26 10 40 -6z m100 -57 c0 -11
5 -16 10 -13 12 7 70 -16 70 -27 0 -10 -1 -10 -41 3 -19 7 -47 23 -63 38 -27
24 -28 24 -17 4 9 -19 9 -23 -2 -23 -8 0 -18 10 -24 22 -8 19 -6 25 11 34 25
13 56 -8 56 -38z m183 16 c3 -4 -1 -13 -9 -21 -18 -18 -27 -13 -18 11 6 17 16
20 27 10z m-2978 -24 c3 -5 1 -10 -4 -10 -6 0 -11 5 -11 10 0 6 2 10 4 10 3 0
8 -4 11 -10z m3201 -7 c13 -17 20 -62 8 -50 -3 3 -4 8 -2 10 2 3 -8 17 -21 31
-15 16 -19 26 -11 26 7 0 19 -8 26 -17z m-411 -22 c7 -13 -2 -17 -55 -26 -49
-8 -48 3 3 22 41 15 45 15 52 4z m-2630 -111 c-6 -17 -9 -19 -22 -9 -13 11
-13 14 3 26 22 16 28 11 19 -17z m2880 20 c3 -5 -1 -10 -9 -10 -9 0 -16 5 -16
10 0 6 4 10 9 10 6 0 13 -4 16 -10z m-421 -23 c-1 -9 2 -14 7 -11 5 3 9 0 9
-5 0 -6 -2 -11 -4 -11 -2 0 -11 -2 -18 -5 -10 -4 -14 4 -16 26 -2 21 1 29 10
26 7 -2 12 -11 12 -20z m70 -12 c-6 -16 -24 -21 -24 -7 0 11 11 22 21 22 5 0
6 -7 3 -15z m116 -29 c0 -3 -4 -8 -10 -11 -5 -3 -10 -1 -10 4 0 6 5 11 10 11
6 0 10 -2 10 -4z m-2472 -34 c16 16 15 -2 -1 -21 -24 -29 -42 -84 -29 -89 18
-6 14 -28 -5 -31 -50 -6 -85 1 -104 20 -29 29 -18 53 21 44 38 -8 39 2 3 16
-27 10 -27 11 -8 21 11 7 40 10 65 9 36 -2 43 0 33 10 -7 7 -13 20 -13 29 1
13 3 12 14 -2 10 -13 15 -15 24 -6z m52 8 c0 -5 -4 -10 -9 -10 -6 0 -13 5 -16
10 -3 6 1 10 9 10 9 0 16 -4 16 -10z m-1440 -10 c0 -5 -4 -10 -10 -10 -5 0
-10 5 -10 10 0 6 5 10 10 10 6 0 10 -4 10 -10z m-2943 -22 c-3 -8 -6 -5 -6 6
-1 11 2 17 5 13 3 -3 4 -12 1 -19z m6872 1 c26 14 81 14 81 0 0 -6 -9 -8 -22
-4 -22 6 -22 6 -4 -9 11 -9 23 -16 28 -16 17 0 7 -18 -12 -23 -13 -3 -28 2
-40 15 -21 23 -50 18 -50 -7 0 -19 46 -111 60 -120 16 -10 12 -25 -5 -18 -9 3
-29 31 -44 61 l-28 56 -28 -28 c-15 -15 -29 -26 -31 -24 -9 10 10 45 29 54 17
7 21 16 19 43 -2 29 0 32 12 22 11 -9 20 -10 35 -2z m-3809 -20 c0 -5 -4 -9
-10 -9 -5 0 -10 7 -10 16 0 8 5 12 10 9 6 -3 10 -10 10 -16z m1696 4 c4 -10 7
-21 6 -25 -2 -11 58 -58 74 -58 15 0 19 -12 8 -23 -19 -18 -133 91 -119 113 9
15 22 12 31 -7z m-112 -30 c-9 -39 -13 -43 -34 -43 -13 0 -17 5 -14 15 3 8 11
13 17 12 7 -1 12 8 11 21 0 12 5 22 13 22 10 0 12 -8 7 -27z m-1564 -12 c0 -5
-6 -11 -12 -14 -9 -3 -8 -10 6 -26 21 -23 16 -27 -15 -11 -22 12 -24 25 -6 45
14 16 27 19 27 6z m1050 -27 c0 -9 -6 -14 -12 -11 -7 2 -23 0 -35 -4 -27 -10
-30 -1 -5 17 24 18 52 17 52 -2z m676 -111 c-1 -26 2 -54 7 -60 7 -9 5 -13 -7
-13 -12 0 -16 10 -16 39 0 31 -5 42 -26 56 -14 9 -23 19 -20 23 4 3 12 0 18
-6 7 -7 16 -12 20 -12 16 0 7 20 -22 50 -16 17 -30 36 -30 43 0 7 18 -7 40
-30 37 -39 39 -46 36 -90z m-136 107 c0 -5 -4 -10 -10 -10 -5 0 -10 5 -10 10
0 6 5 10 10 10 6 0 10 -4 10 -10z m-726 -79 c-4 -17 -11 -31 -16 -31 -6 0 -7
7 -4 16 3 9 6 30 6 47 1 25 3 29 10 15 6 -9 7 -30 4 -47z m176 34 c-7 -8 -17
-15 -22 -15 -6 0 -5 7 2 15 7 8 17 15 22 15 6 0 5 -7 -2 -15z m-902 -68 c1
-87 -18 -119 -33 -54 -17 77 -9 122 20 111 8 -3 13 -24 13 -57z m3143 40 c-13
-13 -26 -3 -16 12 3 6 11 8 17 5 6 -4 6 -10 -1 -17z m217 -21 c3 -12 -1 -17
-10 -14 -7 3 -15 13 -16 22 -3 12 1 17 10 14 7 -3 15 -13 16 -22z m-4793 -16
c10 -11 16 -20 13 -20 -3 0 -13 9 -23 20 -10 11 -16 20 -13 20 3 0 13 -9 23
-20z m1496 -31 c-13 -11 -26 -17 -29 -14 -7 6 29 34 43 34 6 0 -1 -9 -14 -20z
m1489 1 c0 -11 -4 -20 -10 -20 -5 0 -10 2 -10 4 0 2 -3 11 -6 20 -4 11 -1 16
10 16 9 0 16 -8 16 -20z m-716 -22 c-4 -13 -10 -25 -15 -28 -13 -9 -28 -57
-23 -76 3 -13 -3 -23 -21 -31 -22 -10 -25 -9 -25 8 0 10 7 19 15 19 8 0 15 7
15 15 0 8 -4 15 -9 15 -5 0 -4 14 2 30 6 17 17 30 24 30 7 0 17 9 23 20 14 27
23 25 14 -2z m504 -20 c7 -16 8 -28 2 -28 -12 0 -30 34 -30 56 0 22 12 9 28
-28z m-254 17 c-4 -8 -1 -15 6 -15 8 0 11 -11 8 -30 -3 -18 1 -35 9 -41 20
-17 16 -35 -12 -53 -26 -17 -34 -9 -12 13 10 10 8 15 -7 26 -10 8 -16 21 -13
29 3 8 -1 20 -9 26 -17 15 -18 32 -2 48 17 17 39 15 32 -3z m-1674 -11 c0 -2
-9 -4 -21 -4 -11 0 -18 4 -14 10 5 8 35 3 35 -6z m1980 -18 c0 -60 -37 -106
-87 -106 -10 0 -23 -10 -28 -22 -7 -17 -20 -24 -47 -26 -22 -2 -38 1 -38 7 0
6 16 11 35 11 31 0 35 3 35 25 0 22 4 25 34 25 40 0 76 37 76 76 0 13 5 24 10
24 6 0 10 -6 10 -14z m-3640 -28 c0 -13 -32 -6 -37 9 -3 7 3 9 16 6 12 -3 21
-10 21 -15z m3150 -4 c-31 -13 -32 -16 -27 -54 6 -50 -8 -53 -17 -4 -8 39 4
61 39 74 34 13 39 -2 5 -16z m-955 -18 c15 6 16 4 6 -14 -7 -14 -8 -23 -1 -27
6 -4 8 -11 4 -16 -3 -6 -16 1 -28 15 -12 15 -28 26 -36 25 -11 0 -11 -2 -2 -6
15 -6 16 -33 2 -33 -14 0 -30 44 -19 48 5 2 7 8 4 13 -4 5 1 6 9 3 10 -4 16
-1 16 7 1 10 5 9 14 -4 9 -11 20 -15 31 -11z m1506 -29 c23 3 23 2 5 -12 -19
-15 -19 -15 3 -15 12 0 19 -4 16 -10 -3 -5 -15 -10 -27 -10 -20 0 -20 -4 -13
-72 3 -40 13 -87 20 -105 16 -37 22 -104 11 -121 -15 -24 -24 -11 -19 27 3 22
-1 59 -10 87 -9 27 -18 75 -21 107 -18 182 -18 174 -3 147 9 -18 20 -24 38
-23z m-450 11 c16 10 19 10 19 -3 0 -9 -10 -19 -23 -24 -29 -11 -51 -37 -38
-45 11 -7 2 -46 -11 -46 -5 0 -8 6 -7 13 4 28 -2 37 -26 37 -14 0 -25 5 -25
10 0 6 11 10 24 10 30 0 48 21 36 40 -17 26 -11 34 11 14 17 -15 23 -16 40 -6z
m3163 -13 c7 -19 -33 -67 -50 -61 -7 3 -19 -3 -26 -13 -16 -22 -58 -37 -58
-21 0 17 104 118 117 113 6 -3 14 -11 17 -18z m-4303 -20 c10 7 11 -1 3 -32
-4 -13 -13 -21 -25 -20 -22 1 -24 8 -6 26 10 11 9 13 -5 8 -12 -4 -18 -1 -18
10 0 9 8 22 18 29 15 11 17 10 20 -7 2 -11 8 -17 13 -14z m-451 -26 c0 -5 5
-7 12 -3 6 4 8 3 5 -3 -8 -12 -57 -5 -57 8 0 5 9 9 20 9 11 0 20 -5 20 -11z
m640 4 c0 -3 -7 -14 -16 -24 -14 -16 -14 -18 5 -24 12 -3 21 -11 21 -16 0 -11
0 -11 -39 2 -31 11 -44 39 -17 39 8 0 16 7 20 15 5 15 26 21 26 8z m30 -18 c0
-8 -4 -15 -10 -15 -5 0 -10 7 -10 15 0 8 5 15 10 15 6 0 10 -7 10 -15z m678
-59 c17 -6 52 -78 52 -108 0 -12 11 -19 35 -24 29 -5 34 -10 33 -30 -2 -23
-10 -29 -33 -24 -5 1 -7 -2 -3 -6 9 -8 -9 -34 -24 -34 -5 0 -4 9 2 20 7 14 8
26 1 38 -10 16 -10 16 -11 -2 0 -24 -18 -81 -38 -122 -12 -25 -13 -40 -5 -72
8 -31 8 -46 -2 -58 -10 -14 -10 -22 1 -42 7 -14 19 -29 26 -33 10 -7 9 -9 -3
-9 -9 0 -23 10 -32 23 -20 29 -34 14 -17 -19 11 -19 19 -24 37 -19 26 6 31
-10 7 -23 -23 -13 0 -26 32 -18 26 7 33 26 9 26 -8 0 -15 5 -15 10 0 12 0 12
40 -2 18 -6 41 -19 52 -30 13 -13 33 -18 74 -18 49 0 58 -3 79 -29 42 -49 76
-57 146 -35 36 12 59 25 59 33 0 12 -3 12 -12 3 -18 -18 -38 -15 -39 6 0 14
-2 14 -9 -3 -7 -19 -8 -18 -14 6 -4 14 -19 34 -33 45 -15 10 -37 30 -50 44
-13 14 -31 33 -40 42 -9 10 -14 21 -10 24 4 4 26 -14 50 -40 l43 -47 27 27
c26 26 27 26 53 9 28 -18 28 -18 52 22 4 7 24 14 44 16 26 2 44 12 58 30 12
15 28 27 37 27 11 0 6 -10 -16 -32 -17 -17 -31 -36 -31 -42 0 -6 -12 -20 -27
-31 l-26 -22 36 -33 c50 -45 47 -60 -3 -18 -22 18 -40 39 -40 46 0 6 -8 12
-17 12 -15 0 -16 -2 -3 -10 8 -5 11 -10 6 -10 -4 0 2 -9 15 -19 24 -19 24 -19
5 -40 -13 -14 -22 -18 -26 -10 -5 7 -10 4 -14 -7 -9 -25 21 -49 41 -32 7 6 16
8 19 5 10 -9 -6 -27 -24 -27 -14 -1 -14 -4 5 -19 12 -10 21 -26 20 -37 -2 -13
7 -22 31 -29 38 -11 40 -26 10 -68 -15 -21 -18 -32 -10 -35 7 -2 12 -12 12
-23 0 -10 4 -19 8 -19 4 0 27 -17 52 -39 l43 -38 -21 -34 c-22 -36 -20 -67 8
-134 7 -16 13 -33 12 -37 -1 -5 3 -8 8 -8 6 0 10 -7 10 -16 0 -14 -1 -14 -16
0 -8 9 -18 16 -22 16 -4 0 -8 10 -9 23 -1 12 -8 47 -15 77 -10 42 -17 55 -30
52 -9 -2 -19 2 -23 8 -4 7 0 10 11 8 14 -2 18 2 16 17 -2 19 -2 19 11 2 13
-16 16 -16 28 -1 17 21 2 45 -37 57 -28 9 -44 27 -52 54 -13 51 -13 71 3 86
17 18 13 37 -9 37 -16 0 -39 26 -42 47 -1 8 -14 26 -28 40 -25 25 -27 25 -90
13 -77 -14 -96 -9 -142 38 -32 33 -41 37 -89 38 -30 0 -61 6 -69 13 -12 11
-19 11 -30 2 -8 -7 -20 -11 -28 -10 -30 4 -42 -3 -20 -11 24 -10 31 -33 8 -28
-17 4 -18 -5 -7 -52 14 -54 22 -160 12 -160 -9 0 -21 72 -21 124 0 18 -7 41
-15 52 -12 14 -14 15 -9 2 8 -22 -28 -13 -52 13 -9 10 -21 19 -26 19 -14 0 -9
-22 10 -36 15 -12 15 -13 1 -14 -9 0 -22 7 -29 15 -9 11 -16 13 -24 5 -17 -17
-24 -12 -37 28 -17 54 -19 56 -44 32 l-22 -21 -33 31 -32 30 23 20 c13 11 32
22 42 25 16 6 15 11 -9 56 -29 52 -27 79 1 35 19 -28 35 -26 35 5 0 10 5 19
10 19 16 0 11 -48 -6 -58 -14 -8 -14 -12 1 -44 14 -28 22 -34 41 -30 24 4 44
22 25 22 -6 0 -6 11 0 32 8 30 6 35 -38 75 -25 24 -44 46 -40 49 3 3 23 -10
43 -30 36 -35 54 -44 54 -28 0 4 -16 23 -35 42 -19 18 -32 36 -30 40 6 10 64
-46 88 -83 17 -27 20 -28 37 -12 15 14 16 22 7 58 -5 23 -17 50 -25 59 -8 10
-12 24 -9 32 3 8 -1 29 -10 46 -21 44 -10 48 15 6 12 -20 18 -44 15 -55 -3
-12 -1 -21 5 -21 15 0 31 24 38 59 4 17 10 34 14 36 8 5 5 48 -6 124 -3 19
-18 45 -34 60 -24 22 -27 31 -21 61 l6 35 3 -37 c2 -24 9 -39 20 -42z m2139
57 c5 -11 -5 -27 -32 -50 -46 -40 -62 -41 -77 -8 -13 29 -4 43 32 50 13 2 28
9 34 15 15 15 36 12 43 -7z m83 -18 c0 -13 -7 -25 -15 -29 -8 -3 -15 -1 -15 4
0 6 5 10 11 10 5 0 8 4 4 10 -3 5 -12 7 -20 3 -18 -6 -20 8 -4 24 17 17 39 4
39 -22z m-1952 13 c21 -21 15 -48 -10 -47 -18 1 -19 2 -5 6 17 4 17 6 2 29
-16 25 -8 33 13 12z m-1581 -45 c-9 -8 -48 8 -42 18 4 5 14 5 26 -2 12 -6 18
-13 16 -16z m841 -1 c19 -6 32 -7 32 -1 0 6 9 5 21 -2 20 -10 19 -12 -22 -36
-40 -23 -62 -29 -113 -32 -14 -1 -17 -6 -13 -23 8 -28 -22 -78 -47 -78 -17 0
-16 -3 8 -26 14 -15 26 -29 26 -33 -1 -14 -16 -29 -38 -35 -19 -6 -21 -10 -11
-23 17 -19 19 -53 4 -53 -7 0 -18 -7 -25 -15 -9 -10 -9 -15 -1 -15 6 0 11 -5
11 -11 0 -6 -6 -9 -14 -6 -8 3 -16 -2 -19 -14 -5 -17 0 -19 39 -19 24 0 44 -4
44 -10 0 -6 -30 -10 -71 -10 -67 0 -74 -2 -100 -30 -16 -16 -29 -34 -29 -40 0
-5 -5 -10 -11 -10 -7 0 -9 -10 -5 -25 4 -14 2 -25 -3 -25 -5 0 -19 -19 -31
-42 -16 -30 -18 -43 -9 -48 6 -5 9 -17 6 -29 -3 -12 -2 -23 2 -25 4 -3 6 -24
5 -48 -1 -23 2 -51 8 -61 11 -21 -15 -111 -40 -139 -10 -12 -16 -44 -18 -92
-4 -67 -2 -75 22 -101 l26 -28 -21 -27 c-19 -27 -19 -29 -2 -44 30 -27 43 -20
35 20 -5 27 -4 35 5 30 6 -4 11 -16 11 -27 0 -31 19 -22 29 14 8 29 9 30 10 6
1 -35 -21 -80 -37 -74 -17 6 -28 -25 -12 -35 10 -6 9 -17 -8 -50 -11 -23 -18
-49 -15 -58 4 -10 2 -13 -5 -8 -7 4 -12 4 -13 -1 -4 -50 -8 -73 -17 -89 -11
-18 -11 -18 -11 1 0 11 4 39 8 62 8 40 6 43 -34 83 -26 25 -45 38 -49 31 -8
-12 6 -42 28 -61 9 -7 16 -20 16 -29 -1 -17 -15 -3 -58 56 -16 22 -22 24 -40
14 -27 -15 -28 -27 -2 -34 20 -5 29 -37 10 -37 -5 0 -10 7 -10 15 0 8 -6 15
-14 15 -8 0 -21 3 -29 6 -27 10 -26 -24 4 -71 28 -45 31 -46 67 -40 37 6 85
-15 70 -31 -4 -4 -14 -1 -23 6 -9 7 -25 10 -41 6 -14 -4 -34 -4 -44 -1 -24 8
-70 89 -70 124 0 23 7 30 49 45 52 18 77 39 67 54 -9 15 -56 1 -69 -19 -7 -11
-17 -19 -24 -19 -22 0 -14 14 20 38 l32 22 -35 2 c-19 1 -45 1 -57 0 -13 0
-23 3 -23 7 0 13 44 21 54 11 11 -11 49 -13 59 -3 4 3 -16 19 -44 35 -49 28
-50 30 -47 71 l3 42 -45 8 c-25 5 -67 10 -93 10 l-49 2 5 35 c3 19 8 43 12 53
4 10 3 17 -4 17 -6 0 -11 -6 -11 -13 0 -19 -60 -71 -87 -75 -17 -2 -24 1 -21
10 3 7 -5 20 -16 29 -12 10 -19 20 -16 23 11 11 48 -6 53 -25 6 -22 27 -26 27
-5 0 8 8 17 19 21 27 8 40 44 29 84 -7 22 -6 37 1 44 8 8 11 2 11 -21 0 -20 6
-35 15 -38 17 -7 21 -79 5 -89 -5 -3 -7 -12 -3 -21 4 -11 14 -13 34 -9 15 4
38 1 51 -6 33 -18 81 -17 95 1 17 21 18 149 1 132 -24 -24 -148 -9 -148 18 0
7 6 8 19 0 11 -5 34 -10 51 -10 25 0 31 3 26 16 -3 9 -6 21 -6 28 0 7 -17 17
-37 23 -38 11 -38 11 20 10 35 0 61 -5 68 -14 16 -19 53 -17 45 2 -3 8 -1 15
4 15 6 0 10 -2 10 -4 0 -2 3 -11 6 -20 4 -11 1 -16 -10 -16 -13 0 -16 -14 -16
-90 0 -53 -4 -90 -10 -90 -21 0 -9 -28 27 -65 23 -23 33 -40 25 -43 -16 -5
-16 -42 1 -42 6 0 21 -14 32 -30 13 -20 25 -28 35 -24 8 3 24 8 35 11 18 4 17
2 -4 -17 l-25 -21 26 -26 c22 -21 29 -23 47 -14 14 8 21 8 21 1 0 -6 -7 -13
-15 -16 -8 -4 -12 -10 -9 -15 8 -14 18 -10 37 17 17 22 17 29 6 57 -13 32 -49
74 -49 58 0 -5 -15 -8 -32 -7 -18 2 -42 4 -52 5 -16 1 -17 4 -8 13 19 19 14
58 -13 116 -26 56 -33 102 -15 102 6 0 10 -11 10 -24 0 -13 11 -49 25 -80 14
-32 26 -69 27 -83 3 -35 23 -40 53 -12 28 28 31 46 10 76 -20 28 -19 177 1
194 7 6 22 36 31 67 18 55 18 55 -5 70 -12 8 -22 20 -22 27 0 8 -14 17 -32 20
-49 11 -77 45 -38 45 11 0 20 5 20 10 0 6 16 10 35 10 19 0 35 5 35 10 0 6 -3
10 -7 10 -14 0 -8 65 9 98 13 26 15 39 6 63 -6 16 -8 32 -5 35 7 7 -30 44 -44
44 -8 0 -8 5 1 15 7 9 21 13 35 9 15 -4 24 0 28 10 4 11 1 16 -11 16 -43 1 24
23 81 26 68 4 90 22 81 67 -4 20 -2 27 10 27 10 0 13 6 10 15 -5 11 1 15 24
15 43 0 49 18 18 46 -14 14 -26 28 -26 32 0 4 15 14 33 22 27 13 32 20 32 52
1 20 3 40 7 43 3 4 27 8 53 10 26 1 52 8 58 14 13 13 11 14 -31 2 -23 -7 -32
-6 -32 2 0 7 -3 23 -7 35 -5 21 -3 23 13 14 10 -5 34 -14 52 -20z m162 -4 c0
-5 -4 -8 -10 -8 -5 0 -10 10 -10 23 0 18 2 19 10 7 5 -8 10 -18 10 -22z m-954
-45 c-26 -15 -36 -16 -36 -3 0 6 7 10 15 10 8 0 15 8 15 18 0 29 14 36 21 10
4 -17 0 -26 -15 -35z m454 25 c-6 -7 -17 -22 -25 -33 -18 -27 -24 -17 -13 22
4 17 16 33 26 35 21 5 27 -7 12 -24z m2462 -5 c18 -30 68 -139 68 -150 0 -2
-4 -3 -10 -3 -5 0 -10 6 -10 13 0 6 -20 47 -44 89 -37 65 -45 88 -30 88 1 0
13 -17 26 -37z m-2695 -9 c-3 -3 -12 -4 -19 -1 -8 3 -5 6 6 6 11 1 17 -2 13
-5z m730 -26 c-3 -7 -5 -2 -5 12 0 14 2 19 5 13 2 -7 2 -19 0 -25z m-337 12
c0 -5 -4 -10 -10 -10 -5 0 -10 5 -10 10 0 6 5 10 10 10 6 0 10 -4 10 -10z
m2612 -52 c-12 -12 -24 -19 -28 -15 -4 3 4 15 17 26 31 25 39 17 11 -11z
m-2252 -20 c0 -6 -7 -5 -15 2 -8 7 -15 17 -15 22 0 6 7 5 15 -2 8 -7 15 -17
15 -22z m830 22 c0 -5 7 -10 15 -10 8 0 15 -7 15 -15 0 -8 -6 -15 -13 -15 -8
0 -13 -13 -13 -35 0 -20 5 -35 12 -35 13 0 28 -30 19 -38 -6 -7 -65 54 -65 68
0 5 5 10 10 10 16 0 12 40 -5 46 -8 4 -15 11 -15 16 0 6 7 7 16 4 8 -3 12 -2
9 4 -3 6 -1 10 4 10 6 0 11 -4 11 -10z m-2216 -25 c-4 -8 -10 -15 -15 -15 -4
0 -6 7 -3 15 4 8 10 15 15 15 4 0 6 -7 3 -15z m3736 -15 c-24 -15 -37 -11 -16
5 11 8 22 12 25 9 3 -3 -1 -9 -9 -14z m98 8 c-6 -18 -28 -21 -28 -4 0 9 7 16
16 16 9 0 14 -5 12 -12z m-3034 -72 c22 -22 36 -35 32 -28 -11 18 9 15 27 -5
20 -23 33 -73 19 -73 -6 0 -12 12 -14 28 -2 17 -8 26 -18 25 -8 -2 -33 15 -54
37 -23 24 -48 40 -62 40 -26 0 -36 11 -26 26 12 19 37 22 47 7 6 -9 28 -34 49
-57z m605 57 c-13 -15 -11 -16 14 -11 15 3 27 1 27 -3 0 -5 -6 -9 -12 -9 -7 0
-23 -3 -35 -6 -26 -7 -32 13 -11 34 18 18 32 14 17 -5z m-1443 -40 c-11 -11
-19 6 -11 24 8 17 8 17 12 0 3 -10 2 -21 -1 -24z m673 20 c-6 -7 -8 -18 -4
-25 4 -7 -1 -4 -9 6 -21 26 -20 35 3 33 15 -1 17 -4 10 -14z m859 -11 c2 -7
-2 -10 -12 -6 -9 3 -16 11 -16 16 0 13 23 5 28 -10z m1542 10 c0 -4 -37 -30
-82 -57 -98 -59 -102 -61 -97 -46 4 11 156 108 172 110 4 1 7 -2 7 -7z m755
-2 c3 -5 1 -10 -4 -10 -6 0 -11 5 -11 10 0 6 2 10 4 10 3 0 8 -4 11 -10z m-87
-20 c3 -9 -1 -11 -12 -7 -10 4 -15 3 -11 -3 3 -6 1 -10 -4 -10 -12 0 -15 23
-4 34 10 9 26 2 31 -14z m-1590 -24 c7 -18 21 -41 31 -51 16 -14 18 -21 9 -41
-6 -13 -15 -24 -20 -24 -10 0 -10 11 1 29 7 11 1 26 -20 52 -16 20 -29 41 -29
47 0 6 -6 13 -12 15 -7 3 -4 6 7 6 15 1 25 -9 33 -33z m-2068 3 c0 -7 8 -18
18 -25 16 -12 15 -14 -7 -38 -27 -29 -53 -36 -29 -8 31 36 31 43 1 36 -39 -9
-49 -20 -33 -39 14 -16 3 -20 -19 -6 -17 11 1 47 28 56 12 4 18 12 14 21 -3 8
1 14 11 14 9 0 16 -5 16 -11z m3185 1 c-10 -16 -65 -42 -65 -31 0 6 12 17 28
25 32 18 46 20 37 6z m-3292 -20 c-3 -11 -7 -20 -9 -20 -2 0 -4 9 -4 20 0 11
4 20 9 20 5 0 7 -9 4 -20z m-83 -6 c0 -2 -9 -4 -21 -4 -11 0 -18 4 -14 10 5 8
35 3 35 -6z m2332 1 c0 -5 -5 -11 -10 -13 -5 -1 -9 4 -9 13 0 9 4 14 9 13 5
-2 10 -8 10 -13z m325 -2 c-9 -9 -20 -13 -24 -9 -4 4 -1 11 7 16 25 16 35 11
17 -7z m1357 2 c3 -8 1 -15 -4 -15 -6 0 -10 7 -10 15 0 8 2 15 4 15 2 0 6 -7
10 -15z m-2564 -5 c0 -5 -7 -10 -16 -10 -8 0 -12 5 -9 10 3 6 10 10 16 10 5 0
9 -4 9 -10z m-1410 -10 c12 -8 11 -10 -7 -10 -13 0 -23 5 -23 10 0 13 11 13
30 0z m2200 1 c0 -5 -7 -11 -15 -15 -15 -5 -20 5 -8 17 9 10 23 9 23 -2z m237
-13 c-3 -8 -6 -5 -6 6 -1 11 2 17 5 13 3 -3 4 -12 1 -19z m1076 8 c5 -14 -2
-24 -30 -39 -7 -5 -9 0 -6 13 3 11 10 20 15 20 5 0 6 5 3 10 -3 6 -2 10 3 10
6 0 12 -6 15 -14z m-3593 -3 c0 -5 -5 -15 -10 -23 -8 -12 -10 -11 -10 8 0 12
5 22 10 22 6 0 10 -3 10 -7z m138 -52 c-12 -4 -28 17 -28 39 0 10 7 7 20 -10
11 -15 15 -26 8 -29z m3395 -19 c11 -10 24 -8 62 8 56 24 61 25 45 5 -7 -8
-16 -15 -21 -15 -4 0 -19 -4 -33 -10 -23 -8 -25 -13 -16 -35 11 -29 3 -33 -16
-7 -13 16 -16 15 -38 -10 -14 -16 -34 -28 -45 -28 -11 0 -23 -4 -26 -10 -3 -5
-15 -10 -26 -10 -15 0 -19 -5 -15 -18 5 -14 -1 -22 -20 -31 -32 -14 -44 -7
-15 9 26 13 27 30 4 30 -10 0 -24 4 -32 9 -15 10 -24 81 -10 81 5 0 9 -6 9
-14 0 -20 29 -48 42 -40 6 4 13 2 17 -4 5 -8 15 -7 35 3 16 8 34 15 42 15 19
0 28 20 15 33 -19 19 -12 31 8 13 14 -13 21 -14 26 -6 4 7 3 15 -2 19 -15 9
-33 48 -32 68 0 12 5 8 14 -13 8 -17 20 -36 28 -42z m-2751 26 c-9 -9 -12 -7
-12 12 0 19 3 21 12 12 9 -9 9 -15 0 -24z m1971 19 c4 3 7 1 7 -5 0 -15 -36
-52 -50 -52 -7 0 -6 8 2 23 7 12 11 29 9 36 -2 12 0 12 12 3 7 -6 17 -9 20 -5z
m-2643 -27 c0 -14 -9 -12 -26 4 -20 21 -17 28 6 16 11 -6 20 -15 20 -20z
m1835 10 c3 -5 -3 -10 -15 -10 -17 0 -19 -4 -14 -25 3 -14 2 -25 -4 -25 -15 0
-22 54 -9 62 17 11 35 10 42 -2z m1290 0 c3 -5 -1 -10 -9 -10 -9 0 -16 5 -16
10 0 6 4 10 9 10 6 0 13 -4 16 -10z m509 -13 c-11 -5 -34 -25 -53 -43 -33 -33
-98 -70 -107 -61 -3 2 15 16 39 30 24 15 60 42 80 62 21 21 41 33 48 29 8 -4
6 -10 -7 -17z m-3744 -13 c0 -8 -4 -12 -10 -9 -5 3 -10 13 -10 21 0 8 5 12 10
9 6 -3 10 -13 10 -21z m54 0 c3 -8 0 -13 -7 -11 -8 1 -11 -11 -9 -41 3 -35 1
-41 -12 -36 -9 3 -16 10 -16 16 0 5 5 6 10 3 6 -3 10 -2 10 4 0 5 -8 14 -17
19 -15 9 -15 11 0 26 9 9 14 23 10 31 -3 11 -1 13 10 9 9 -3 18 -12 21 -20z
m2894 2 c4 -17 -34 -55 -55 -56 -15 0 -17 16 -3 25 6 3 10 15 10 26 0 11 5 17
10 14 6 -3 10 -1 10 5 0 18 25 6 28 -14z m-2748 4 c0 -6 -7 -13 -15 -16 -8 -4
-12 -10 -9 -15 3 -5 0 -9 -5 -9 -6 0 -11 5 -11 10 0 7 -6 7 -20 0 -11 -6 -20
-7 -20 -3 0 13 40 34 50 28 6 -4 10 -1 10 4 0 6 5 11 10 11 6 0 10 -5 10 -10z
m920 6 c0 -3 -4 -8 -10 -11 -5 -3 -10 -1 -10 4 0 6 5 11 10 11 6 0 10 -2 10
-4z m2050 0 c0 -3 -4 -8 -10 -11 -5 -3 -10 -1 -10 4 0 6 5 11 10 11 6 0 10 -2
10 -4z m630 -11 c-7 -8 -19 -15 -27 -15 -13 0 -13 3 -3 15 7 8 19 15 27 15 13
0 13 -3 3 -15z m90 -12 c11 -10 20 -21 20 -26 0 -5 9 -20 20 -34 28 -35 15
-44 -14 -10 -26 30 -38 35 -29 11 10 -28 -21 -11 -35 19 -8 17 -21 27 -35 27
-20 1 -20 2 -4 11 9 6 14 15 11 21 -10 16 42 1 66 -19z m-2325 -13 c-10 -11
-25 -20 -34 -20 -11 1 -7 8 14 25 34 28 47 25 20 -5z m-675 0 c0 -5 -9 -10
-21 -10 -31 0 -83 -40 -70 -53 12 -12 15 -47 4 -47 -12 0 -32 50 -27 65 6 15
80 55 102 55 6 0 12 -4 12 -10z m2380 0 c0 -5 -2 -10 -4 -10 -3 0 -8 5 -11 10
-3 6 -1 10 4 10 6 0 11 -4 11 -10z m-1826 -24 c-12 -9 -15 -22 -12 -44 3 -22
0 -32 -9 -32 -20 0 -17 70 4 86 10 7 21 10 26 7 5 -3 1 -11 -9 -17z m1601 3
c-8 -12 -35 -12 -35 0 0 11 22 20 33 14 4 -2 5 -9 2 -14z m345 14 c0 -5 -5
-15 -10 -23 -8 -12 -10 -11 -10 8 0 12 5 22 10 22 6 0 10 -3 10 -7z m-3320
-18 c0 -8 -4 -15 -10 -15 -5 0 -7 7 -4 15 4 8 8 15 10 15 2 0 4 -7 4 -15z
m3536 -12 c-10 -10 -19 5 -10 18 6 11 8 11 12 0 2 -7 1 -15 -2 -18z m-3496 7
c0 -5 -8 -10 -17 -10 -15 0 -16 2 -3 10 19 12 20 12 20 0z m101 -11 c11 -11
18 -28 16 -37 -4 -14 -6 -13 -12 6 -5 16 -13 21 -26 17 -21 -7 -22 -5 -13 19
8 20 10 20 35 -5z m1289 11 c0 -5 -2 -10 -4 -10 -3 0 -8 5 -11 10 -3 6 -1 10
4 10 6 0 11 -4 11 -10z m-24 -25 c1 -8 -2 -15 -7 -15 -5 0 -9 10 -9 22 0 23
12 17 16 -7z m1821 -47 c20 -23 6 -23 -19 -1 -19 17 -24 44 -10 57 4 4 9 -3
10 -16 2 -12 11 -31 19 -40z m-3136 -1 c-8 -8 -11 -5 -11 11 0 15 -5 20 -15
16 -8 -4 -15 -2 -15 4 0 19 25 19 39 0 10 -15 10 -23 2 -31z m2740 26 c-12 -8
-21 -25 -21 -38 0 -17 -9 -29 -30 -40 -34 -17 -40 -18 -40 -6 0 5 9 13 21 16
11 4 25 19 32 33 15 37 38 63 49 56 5 -3 0 -13 -11 -21z m1837 12 c-8 -9 -210
-46 -216 -40 -9 9 1 12 108 32 100 18 120 20 108 8z m-2738 -10 c0 -3 -5 -14
-12 -24 -12 -19 -5 -51 11 -51 5 0 11 10 13 22 2 12 8 23 14 25 7 2 9 -8 6
-29 -4 -26 0 -36 24 -54 15 -13 26 -26 22 -29 -3 -3 -19 6 -36 20 -16 14 -35
25 -42 25 -14 0 -40 25 -40 39 0 20 20 61 30 61 5 0 10 -2 10 -5z m-1895 -34
c-3 -6 -11 -11 -17 -11 -6 0 -6 6 2 15 14 17 26 13 15 -4z m835 -3 c0 -17 -3
-19 -12 -10 -7 7 -25 12 -40 12 -15 0 -28 5 -28 10 0 6 18 10 40 10 35 0 40
-3 40 -22z m1716 -16 l28 -38 27 30 c21 23 28 27 29 14 0 -9 -3 -18 -8 -20 -4
-1 -29 -29 -57 -60 -51 -60 -78 -78 -48 -31 17 26 17 26 -2 16 -21 -12 -60 1
-69 23 -6 16 38 64 61 64 13 0 14 3 5 12 -14 14 -16 28 -3 28 5 0 22 -17 37
-38z m1282 -7 c27 -55 15 -59 -15 -5 -25 42 -27 50 -15 50 4 0 18 -20 30 -45z
m-3678 14 c0 -5 -4 -9 -10 -9 -5 0 -10 7 -10 16 0 8 5 12 10 9 6 -3 10 -10 10
-16z m3510 -10 c0 -5 -7 -9 -15 -9 -9 0 -15 9 -15 21 0 18 2 19 15 9 8 -7 15
-16 15 -21z m-816 5 c9 -24 7 -28 -9 -14 -17 14 -20 30 -6 30 5 0 12 -7 15
-16z m2846 -4 c0 -5 -7 -10 -15 -10 -8 0 -15 5 -15 10 0 6 7 10 15 10 8 0 15
-4 15 -10z m-5660 -15 c-7 -8 -17 -15 -22 -15 -6 0 -5 7 2 15 7 8 17 15 22 15
6 0 5 -7 -2 -15z m-60 -15 c-24 -15 -37 -11 -16 5 11 8 22 12 25 9 3 -3 -1 -9
-9 -14z m170 -15 c-7 -9 -15 -13 -18 -10 -3 2 1 11 8 20 7 9 15 13 18 10 3 -2
-1 -11 -8 -20z m290 15 c0 -5 -4 -10 -10 -10 -5 0 -10 5 -10 10 0 6 5 10 10
10 6 0 10 -4 10 -10z m370 -10 c0 -5 -7 -7 -15 -4 -8 4 -12 10 -9 15 6 11 24
2 24 -11z m2347 -5 c7 -21 46 -40 145 -71 75 -24 107 -44 108 -68 0 -5 -8 -2
-18 7 -10 10 -22 14 -25 10 -4 -3 -15 1 -24 9 -10 9 -43 23 -73 33 -48 16
-147 60 -160 72 -5 5 20 23 33 23 4 0 10 -7 14 -15z m363 -10 c-7 -8 -20 -15
-29 -15 -13 1 -13 3 3 15 26 19 42 19 26 0z m-3500 -16 c0 -10 -4 -19 -10 -19
-5 0 -10 4 -10 10 0 5 -7 7 -15 4 -8 -4 -12 -11 -8 -18 4 -8 3 -8 -6 0 -18 16
-4 39 24 40 18 2 25 -3 25 -17z m3358 -33 c-5 -6 -12 -6 -19 1 -6 6 -18 9 -27
6 -10 -4 -13 -2 -8 5 4 7 13 12 21 12 7 0 16 8 20 18 7 15 9 13 15 -8 4 -14 3
-29 -2 -34z m32 28 c0 -8 -4 -12 -10 -9 -5 3 -10 10 -10 16 0 5 5 9 10 9 6 0
10 -7 10 -16z m386 -11 c-3 -8 -1 -11 4 -8 16 10 18 -29 3 -65 l-10 -24 -12
22 c-6 12 -8 22 -4 22 4 0 0 5 -9 11 -22 12 -23 29 -2 29 8 0 12 5 9 10 -8 14
4 32 16 24 6 -3 8 -13 5 -21z m1879 17 c3 -5 17 -10 31 -10 28 0 31 -12 8 -34
-21 -22 -34 -20 -34 4 0 11 -7 23 -15 26 -16 7 -21 24 -6 24 6 0 13 -4 16 -10z
m-4265 -9 c0 -5 -7 -11 -15 -15 -15 -5 -20 5 -8 17 9 10 23 9 23 -2z m-139
-15 c-9 -11 -4 -13 30 -9 28 4 39 2 35 -5 -7 -12 -94 -28 -102 -19 -7 6 27 47
39 47 5 0 4 -6 -2 -14z m-146 -6 c-3 -5 -19 -10 -35 -10 -16 0 -32 -4 -35 -10
-3 -5 -17 -10 -29 -10 -20 0 -25 -6 -28 -37 -6 -46 -3 -51 22 -35 10 6 21 8
24 3 8 -13 -20 -33 -41 -29 -23 4 -31 89 -11 105 10 9 67 22 131 32 5 0 5 -3
2 -9z m2374 -20 c6 0 11 -4 11 -9 0 -15 -19 -23 -32 -14 -7 4 -15 8 -18 9 -17
3 -40 17 -40 24 0 15 44 17 56 3 6 -7 16 -13 23 -13z m-3394 10 c3 -5 -3 -29
-14 -52 -14 -32 -20 -37 -20 -21 -1 12 3 24 8 27 5 3 11 15 14 26 4 17 3 19
-9 9 -11 -9 -14 -8 -14 5 0 17 25 22 35 6z m-140 -10 c-3 -5 3 -10 14 -10 12
0 21 5 21 10 0 6 11 10 25 10 24 0 35 -15 16 -22 -4 -1 -12 -14 -16 -26 -6
-21 -4 -23 14 -17 27 8 30 -22 4 -32 -15 -6 -14 -8 7 -14 21 -5 22 -7 8 -13
-21 -9 -81 33 -74 51 3 7 -6 20 -19 29 -28 18 -33 44 -9 44 8 0 12 -4 9 -10z
m3192 -69 c1 -11 -9 -23 -23 -30 -36 -16 -44 -14 -44 14 0 42 64 57 67 16z
m-474 3 c10 -10 -17 -44 -35 -44 -23 0 -32 18 -18 35 13 15 42 20 53 9z m536
-65 c23 -40 40 -77 38 -83 -4 -11 -87 125 -87 143 0 21 9 10 49 -60z m-1599
44 c0 -10 -32 -43 -42 -43 -5 0 -1 11 8 25 15 23 34 33 34 18z m-276 -19 c18
-18 21 -34 6 -34 -5 0 -10 7 -10 15 0 8 -4 15 -10 15 -5 0 -10 5 -10 10 0 14
6 13 24 -6z m1096 6 c0 -5 -2 -10 -4 -10 -3 0 -8 5 -11 10 -3 6 -1 10 4 10 6
0 11 -4 11 -10z m-2029 -17 c0 -11 3 -13 6 -5 5 14 23 17 23 3 0 -4 -9 -20
-21 -35 -18 -23 -22 -24 -35 -11 -24 23 -31 18 -45 -30 -14 -48 -36 -64 -24
-17 13 53 30 77 53 75 16 -2 22 3 22 17 0 25 20 27 21 3z m359 -6 c0 -13 5
-28 12 -35 6 -6 8 -15 4 -19 -4 -5 -14 1 -22 11 -16 23 -19 66 -4 66 6 0 10
-10 10 -23z m2101 10 c-1 -12 -15 -9 -19 4 -3 6 1 10 8 8 6 -3 11 -8 11 -12z
m119 -6 c0 -4 11 -6 25 -3 35 6 31 -6 -7 -23 -36 -15 -61 -4 -51 21 6 15 33
20 33 5z m-570 -23 c0 -16 -3 -19 -11 -11 -6 6 -8 16 -5 22 11 17 16 13 16
-11z m1060 12 c0 -5 -7 -10 -16 -10 -8 0 -12 5 -9 10 3 6 10 10 16 10 5 0 9
-4 9 -10z m-1490 -12 c0 -7 3 -22 6 -33 3 -11 -1 -28 -8 -38 -11 -15 -13 -11
-14 33 0 27 3 50 8 50 4 0 8 -6 8 -12z m-2358 -23 c3 -14 1 -25 -3 -25 -5 0
-9 11 -9 25 0 14 2 25 4 25 2 0 6 -11 8 -25z m1914 -2 c-7 -7 -26 7 -26 19 0
6 6 6 15 -2 9 -7 13 -15 11 -17z m740 -23 c47 -41 28 -45 -21 -4 -22 18 -34
34 -26 34 7 0 28 -13 47 -30z m-1029 -38 c-22 -27 -27 -50 -12 -62 19 -16 54
-3 65 23 l9 22 0 -22 c1 -12 -6 -26 -16 -31 -14 -8 -12 -14 18 -50 22 -26 36
-36 41 -29 8 13 13 0 21 -45 5 -36 -19 -59 -50 -47 -27 10 -29 21 -8 52 13 21
12 25 -11 52 -15 17 -23 23 -20 13 3 -10 1 -18 -4 -18 -6 0 -10 5 -10 10 0 6
-10 15 -22 20 -16 6 -18 9 -6 9 12 1 7 10 -18 35 -20 20 -34 44 -33 58 l0 23
10 -25 c10 -24 11 -24 32 23 17 37 23 43 25 27 2 -12 -3 -29 -11 -38z m263
-24 c8 -3 12 -9 8 -13 -9 -10 -54 19 -84 54 -36 42 -16 44 24 2 20 -21 44 -40
52 -43z m-113 18 c-2 -17 0 -39 5 -48 6 -12 5 -18 -2 -18 -6 0 -13 7 -16 15
-8 19 -24 9 -24 -15 0 -10 -4 -21 -9 -25 -17 -10 -20 11 -5 40 14 27 13 30
-13 57 -32 34 -11 39 25 6 23 -22 24 -22 22 -3 -3 30 -1 37 11 29 6 -3 9 -20
6 -38z m-1244 -25 c12 -9 15 -17 9 -23 -6 -6 -8 -17 -5 -24 3 -9 -2 -14 -17
-14 -13 0 -29 -8 -36 -17 -11 -15 -13 -16 -14 -2 0 19 19 43 44 57 19 9 18 10
-2 16 -16 5 -22 15 -22 34 1 25 1 26 12 7 6 -11 20 -26 31 -34z m687 39 c0 -5
-5 -10 -10 -10 -6 0 -8 -11 -4 -25 4 -15 2 -25 -5 -25 -6 0 -11 8 -12 18 0 9
-3 12 -5 5 -8 -18 -34 -3 -34 19 0 15 5 19 20 15 11 -3 20 -1 20 4 0 5 7 9 15
9 8 0 15 -4 15 -10z m2286 -22 c4 -5 1 -15 -5 -21 -7 -7 -16 -5 -31 8 -11 10
-17 21 -15 25 6 10 43 1 51 -12z m-646 2 c0 -5 -4 -10 -9 -10 -6 0 -13 5 -16
10 -3 6 1 10 9 10 9 0 16 -4 16 -10z m283 -5 c-6 -17 -25 -15 -31 3 -2 7 5 12
17 12 14 0 19 -5 14 -15z m-1053 -5 c0 -5 -2 -10 -4 -10 -3 0 -8 5 -11 10 -3
6 -1 10 4 10 6 0 11 -4 11 -10z m1992 -32 c28 -34 36 -58 18 -58 -5 0 -10 7
-10 15 0 8 -4 15 -10 15 -5 0 -16 14 -25 30 -20 39 -8 38 27 -2z m-164 -3 c0
-22 -4 -24 -31 -19 -37 6 -47 12 -47 26 0 6 9 8 19 5 10 -2 25 -1 32 4 22 14
27 11 27 -16z m116 -1 c9 -36 -1 -43 -14 -10 -12 33 -12 36 -1 36 5 0 12 -12
15 -26z m-884 -9 c-11 -13 -60 -9 -60 5 0 10 39 18 58 12 9 -3 9 -8 2 -17z
m-475 5 c3 -5 1 -10 -6 -10 -8 0 -10 -15 -7 -50 3 -27 2 -50 -3 -50 -10 0 -23
96 -14 110 8 13 22 13 30 0z m1105 -5 c0 -8 -4 -15 -10 -15 -5 0 -10 7 -10 15
0 8 5 15 10 15 6 0 10 -7 10 -15z m-2274 -11 c-5 -12 -1 -14 16 -8 19 6 21 5
11 -8 -7 -8 -10 -17 -7 -21 3 -3 -4 -3 -15 0 -14 3 -26 0 -34 -11 -8 -10 -17
-13 -26 -7 -11 7 -6 16 20 40 39 35 43 37 35 15z m1894 -14 c0 -5 -4 -10 -9
-10 -6 0 -13 5 -16 10 -3 6 1 10 9 10 9 0 16 -4 16 -10z m340 0 c0 -5 -5 -10
-11 -10 -5 0 -7 5 -4 10 3 6 8 10 11 10 2 0 4 -4 4 -10z m-3160 -36 c0 -3 -10
-2 -22 1 -16 5 -20 4 -13 -3 6 -5 19 -12 30 -15 14 -3 11 -5 -10 -5 -16 -1
-41 5 -55 13 l-25 14 28 1 c15 0 27 5 27 10 0 7 6 7 20 0 11 -6 20 -13 20 -16z
m1236 1 c-3 -9 -11 -13 -16 -10 -8 5 -7 11 1 21 14 18 24 11 15 -11z m-636
-69 c0 -5 -9 -1 -20 9 -11 10 -20 25 -20 34 0 12 6 9 20 -9 11 -14 20 -29 20
-34z m1254 12 c3 -15 2 -30 -4 -33 -5 -3 -10 2 -10 12 0 10 -3 29 -6 43 -5 17
-3 22 3 15 6 -5 13 -22 17 -37z m1186 33 c0 -5 -7 -11 -15 -15 -9 -3 -15 0
-15 9 0 8 7 15 15 15 8 0 15 -4 15 -9z m-2210 -11 c0 -5 -4 -10 -9 -10 -6 0
-13 5 -16 10 -3 6 1 10 9 10 9 0 16 -4 16 -10z m-815 -20 c3 -6 -1 -7 -9 -4
-18 7 -21 14 -7 14 6 0 13 -4 16 -10z m1355 0 c0 -5 -4 -10 -9 -10 -6 0 -13 5
-16 10 -3 6 1 10 9 10 9 0 16 -4 16 -10z m1260 -14 c0 -6 16 -27 35 -46 50
-49 43 -60 -9 -14 -27 24 -44 48 -45 62 -1 13 3 20 9 17 6 -3 10 -12 10 -19z
m-884 -1 c-3 -9 0 -15 9 -15 11 0 15 -12 15 -45 0 -34 -5 -47 -20 -55 -25 -13
-40 -5 -40 20 0 10 -4 21 -10 25 -16 10 1 36 20 30 10 -3 21 -1 25 5 3 5 2 10
-2 10 -5 0 -14 9 -21 20 -11 18 -10 20 9 20 15 0 19 -5 15 -15z m-916 -20 c0
-16 -6 -25 -15 -25 -15 0 -21 31 -8 43 13 14 23 6 23 -18z m1225 -16 c-7 -11
-35 -12 -35 -1 0 4 9 8 20 9 11 1 18 -2 15 -8z m-1216 -30 c-8 -16 -14 -18
-22 -10 -9 9 -8 14 3 21 24 16 31 11 19 -11z m1308 15 c-3 -3 -12 -4 -19 -1
-8 3 -5 6 6 6 11 1 17 -2 13 -5z m-2139 -26 c-3 -25 -38 -33 -45 -10 -3 6 2
12 11 12 9 0 16 5 16 10 0 6 5 10 11 10 6 0 9 -10 7 -22z m2158 -33 c4 -21 3
-27 -4 -20 -6 6 -14 24 -18 40 -4 21 -3 27 4 20 6 -5 14 -23 18 -40z m769 26
c3 -5 1 -12 -5 -16 -5 -3 -10 1 -10 9 0 18 6 21 15 7z m-2010 -21 c3 -5 1 -10
-4 -10 -6 0 -11 5 -11 10 0 6 2 10 4 10 3 0 8 -4 11 -10z m154 -46 c-23 -24
-45 -42 -47 -39 -7 7 72 93 81 88 5 -3 -10 -25 -34 -49z m1571 39 c0 -10 -32
-43 -42 -43 -15 0 -8 29 10 39 20 12 32 14 32 4z m-1370 -13 c0 -5 -4 -10 -10
-10 -5 0 -10 5 -10 10 0 6 5 10 10 10 6 0 10 -4 10 -10z m727 4 c-3 -3 -12 -4
-19 -1 -8 3 -5 6 6 6 11 1 17 -2 13 -5z m-457 -30 c0 -8 -5 -12 -10 -9 -6 4
-8 11 -5 16 9 14 15 11 15 -7z m250 -11 c0 -9 7 -21 16 -28 20 -14 15 -38 -4
-26 -7 4 -17 24 -22 44 -4 22 -4 35 1 31 5 -3 9 -12 9 -21z m343 10 c-7 -2
-21 -2 -30 0 -10 3 -4 5 12 5 17 0 24 -2 18 -5z m-2263 -23 c0 -12 7 -20 17
-20 13 0 14 3 5 12 -17 17 -15 33 3 18 8 -7 15 -20 15 -29 0 -9 5 -22 12 -29
6 -6 9 -15 5 -19 -4 -3 -13 2 -21 12 -12 16 -16 17 -30 6 -9 -7 -13 -17 -10
-22 3 -5 1 -9 -5 -9 -5 0 -13 10 -17 23 -4 12 -12 25 -18 29 -7 5 -4 8 7 8 9
0 16 3 16 8 -3 18 2 32 11 32 6 0 10 -9 10 -20z m1240 4 c0 -8 -4 -12 -10 -9
-5 3 -10 10 -10 16 0 5 5 9 10 9 6 0 10 -7 10 -16z m265 -23 c-13 -14 -17 -13
-32 2 -15 15 -16 19 -4 26 9 6 21 5 32 -2 17 -10 17 -13 4 -26z m575 -11 c0
-21 -3 -45 -6 -54 -12 -33 -19 -14 -16 44 4 65 22 73 22 10z m-800 30 c0 -14
-43 -80 -52 -80 -13 0 -9 14 12 40 11 14 20 31 20 38 0 14 20 17 20 2z m-280
-23 c0 -17 -58 -73 -66 -64 -7 7 46 75 59 76 4 1 7 -5 7 -12z m620 3 c-19 -13
-30 -13 -30 0 0 6 10 10 23 10 18 0 19 -2 7 -10z m1470 -11 c0 -5 -4 -9 -10
-9 -5 0 -10 -7 -10 -15 0 -8 -4 -15 -10 -15 -11 0 -14 43 -4 53 8 8 34 -3 34
-14z m-1275 -9 c3 -5 -1 -10 -10 -10 -9 0 -13 5 -10 10 3 6 8 10 10 10 2 0 7
-4 10 -10z m1365 0 c12 -8 11 -10 -7 -10 -12 0 -25 5 -28 10 -8 13 15 13 35 0z
m-1530 -10 c0 -5 -4 -10 -10 -10 -5 0 -10 5 -10 10 0 6 5 10 10 10 6 0 10 -4
10 -10z m-324 -11 c3 -6 2 -15 -3 -20 -5 -5 -14 0 -21 11 -10 17 -10 20 2 20
8 0 18 -5 22 -11z m139 -31 c-4 -19 -4 -29 1 -25 9 9 10 13 13 42 0 8 5 15 10
15 6 0 7 -17 5 -37 -4 -29 -3 -34 5 -23 10 13 12 13 20 0 5 -8 7 -18 5 -22 -3
-5 -7 -22 -9 -38 -4 -28 -2 -30 30 -30 33 0 35 2 35 35 0 19 5 35 11 35 8 0 9
-13 5 -40 -4 -29 -3 -40 6 -41 10 0 10 -2 1 -6 -22 -8 -14 -23 12 -23 15 0 25
5 24 13 -4 30 3 41 12 19 5 -13 7 -28 3 -33 -3 -5 9 -9 25 -9 17 0 31 -5 31
-11 0 -8 -19 -10 -64 -5 -66 7 -76 1 -76 -39 0 -20 51 -65 72 -65 10 0 17 -3
16 -7 -6 -19 38 -53 68 -53 24 0 33 -5 37 -21 6 -22 -24 -42 -31 -21 -2 7 -22
12 -44 12 -39 0 -40 -1 -35 -29 4 -19 2 -31 -6 -35 -7 -2 -4 -5 6 -5 10 -1 28
-8 42 -17 19 -12 23 -21 18 -48 -7 -47 21 -57 37 -13 15 40 26 18 12 -23 -8
-20 -8 -32 -1 -36 6 -3 8 -17 5 -30 -8 -31 10 -31 48 -1 21 17 29 32 28 54 0
22 6 34 23 43 28 15 55 7 55 -15 0 -12 -4 -13 -18 -6 -11 6 -24 6 -33 0 -10
-6 -10 -9 -1 -9 18 0 15 -25 -8 -71 -16 -30 -18 -44 -10 -59 6 -11 16 -19 23
-17 8 1 12 -11 11 -35 -1 -31 3 -38 27 -49 16 -6 29 -15 29 -19 0 -5 7 -16 16
-24 12 -13 39 -16 125 -16 61 0 108 -4 105 -9 -3 -4 -51 -6 -106 -4 l-100 4
31 -60 c25 -48 29 -64 20 -75 -9 -11 -7 -18 13 -34 14 -10 22 -22 18 -26 -3
-4 1 -4 11 0 13 5 17 1 17 -19 0 -13 7 -38 15 -53 17 -34 19 -54 5 -54 -5 0
-10 -7 -10 -16 0 -8 4 -12 10 -9 11 7 62 -37 66 -57 2 -7 5 -23 8 -35 6 -29
-5 -30 -22 -2 -8 12 -19 18 -28 15 -8 -3 -14 -1 -14 3 0 5 -13 14 -29 19 -30
10 -69 57 -58 69 4 3 18 -9 32 -26 16 -18 35 -31 48 -30 18 1 18 2 4 6 -22 6
-47 54 -47 92 0 16 -5 33 -10 36 -6 4 -8 14 -5 24 3 11 -5 25 -25 39 -17 13
-30 32 -30 43 0 16 -5 20 -20 16 -22 -6 -35 21 -25 53 7 22 -10 60 -28 60 -9
0 -9 -2 1 -8 15 -10 5 -42 -13 -42 -14 0 -65 100 -65 128 0 10 -19 34 -43 54
-43 36 -43 36 -155 39 -70 3 -113 1 -116 -6 -3 -5 -5 7 -5 28 l-1 39 -36 -22
c-19 -12 -38 -19 -42 -15 -4 4 -1 10 6 12 7 3 54 36 104 74 89 67 147 97 79
40 l-35 -29 42 -7 c65 -11 53 -29 -14 -21 -63 7 -84 -3 -84 -39 0 -21 5 -23
93 -27 50 -3 93 -4 95 -2 11 8 -14 98 -30 114 -15 14 -18 26 -13 48 5 25 3 31
-16 37 -13 4 -24 2 -29 -5 -5 -8 -24 -11 -54 -8 -54 6 -58 9 -58 43 0 19 -6
25 -23 25 -17 0 -22 5 -18 18 2 10 -3 24 -11 31 -13 11 -16 11 -16 -3 0 -9 -4
-16 -10 -16 -5 0 -10 6 -10 14 0 22 -21 33 -77 40 l-53 7 0 -45 c0 -25 -5 -48
-11 -52 -9 -5 -10 8 -7 45 3 28 7 54 10 56 3 3 21 6 40 7 32 1 34 2 19 17 -22
22 -84 51 -110 51 -12 0 -21 6 -21 15 0 8 7 15 15 15 8 0 15 -4 15 -10 0 -5
11 -10 24 -10 13 0 29 -7 36 -15 7 -8 17 -15 22 -15 5 0 16 -7 24 -15 9 -8 26
-15 40 -15 14 0 27 -6 30 -14 5 -13 24 -17 178 -31 l50 -5 -40 35 c-21 19 -44
35 -51 35 -6 0 -14 6 -16 13 -3 6 -6 -3 -6 -20 -1 -18 -5 -33 -10 -33 -6 0 -8
25 -7 55 2 30 0 55 -5 55 -5 0 -9 5 -9 11 0 6 7 9 15 5 8 -3 15 -2 15 3 0 9
-79 26 -172 37 -48 5 -58 10 -58 25 0 17 -8 19 -60 19 -38 0 -60 4 -60 11 0 8
26 10 93 5 50 -4 100 -9 110 -12 14 -4 17 1 17 30 0 20 5 36 10 36 6 0 10 16
10 35 0 19 5 35 11 35 7 0 8 -12 4 -32z m803 -24 c-18 -31 -23 -34 -35 -21
-13 13 -13 19 1 46 14 26 20 30 36 21 19 -10 19 -11 -2 -46z m399 -4 c1 -33
-2 -60 -7 -60 -11 0 -16 35 -11 83 5 57 16 44 18 -23z m-1577 30 c0 -5 -5 -10
-11 -10 -5 0 -7 5 -4 10 3 6 8 10 11 10 2 0 4 -4 4 -10z m-740 -80 c7 -24 29
-58 57 -87 55 -57 78 -91 68 -101 -4 -4 -10 -1 -13 7 -3 8 -31 41 -63 74 -40
40 -59 68 -59 84 0 15 -12 37 -30 53 -38 36 -38 45 0 25 21 -11 32 -27 40 -55z
m758 44 c28 -3 52 -11 52 -16 0 -7 -21 -9 -61 -5 l-60 7 3 -32 c2 -22 10 -36
27 -44 l23 -12 -21 -11 c-32 -17 -51 7 -51 63 l0 46 -56 0 c-38 0 -53 3 -48
11 6 11 47 9 192 -7z m192 12 c0 -3 -4 -8 -10 -11 -5 -3 -10 -1 -10 4 0 6 5
11 10 11 6 0 10 -2 10 -4z m566 -106 c14 0 32 -7 41 -16 11 -11 19 -12 26 -5
8 8 7 15 -1 23 -18 18 -14 30 8 23 14 -5 20 -2 20 10 0 12 -6 15 -20 10 -12
-4 -20 -2 -20 5 0 6 14 13 30 17 17 3 35 14 41 24 12 22 34 26 25 4 -3 -8 0
-15 6 -15 6 0 3 -9 -7 -20 -18 -20 -17 -20 8 -20 24 0 27 4 27 35 0 30 3 35
24 35 14 0 28 -4 31 -10 3 -5 1 -10 -5 -10 -6 0 -8 -5 -5 -11 10 -15 -2 -56
-18 -62 -7 -3 -32 -2 -55 3 -38 7 -42 5 -37 -10 3 -10 0 -24 -8 -31 -19 -19
-35 -84 -49 -197 -1 -7 -7 -11 -14 -8 -8 3 -16 1 -19 -4 -3 -5 -13 -7 -23 -4
-16 5 -16 5 1 -9 9 -8 18 -23 18 -33 1 -17 2 -17 6 -1 2 9 11 17 18 17 10 0
12 -10 8 -37 -6 -43 -26 -72 -37 -54 -4 6 0 11 8 11 9 0 16 7 16 15 0 26 -45
18 -58 -10 -6 -14 -16 -25 -22 -25 -7 0 -7 7 0 23 10 21 10 21 -4 3 -11 -13
-12 -25 -6 -42 7 -19 6 -24 -5 -24 -8 0 -15 7 -15 16 0 8 -4 12 -10 9 -5 -3
-10 0 -10 9 0 8 -6 17 -12 19 -8 3 -6 6 4 6 11 1 15 6 12 16 -4 8 1 26 10 40
22 33 20 48 -4 40 -14 -4 -20 -2 -20 8 0 8 9 17 20 20 13 3 20 14 20 30 0 25
23 42 42 31 7 -5 4 -12 -7 -21 -26 -18 -5 -17 22 2 12 9 20 22 17 29 -3 8 0
24 6 36 10 18 8 25 -9 41 -27 26 -82 25 -99 -1 -15 -25 -42 -15 -42 16 0 22 4
24 38 22 20 -2 38 2 40 7 1 6 -13 11 -33 13 -19 2 -35 6 -35 10 0 4 18 6 40 4
l40 -4 2 58 2 59 3 -57 c4 -54 6 -58 29 -58z m64 90 c0 -7 -13 -7 -38 -1 -2 1
-1 5 3 11 6 10 35 2 35 -10z m658 -11 c12 0 9 -3 -7 -10 -30 -12 -35 -7 -25
23 6 19 9 20 12 6 2 -10 11 -18 20 -19z m-2142 13 c22 10 28 10 32 0 2 -6 10
-12 18 -12 17 0 19 -16 2 -23 -9 -4 -2 -16 19 -36 17 -16 31 -39 30 -50 -1
-16 -7 -19 -34 -15 -24 3 -33 0 -33 -11 0 -8 -4 -15 -10 -15 -5 0 -10 7 -10
15 0 16 -39 77 -53 83 -4 2 -5 8 -1 13 3 5 -1 9 -9 9 -10 0 -13 8 -9 25 3 19
8 23 17 15 9 -7 21 -7 41 2z m1258 -16 c-6 -16 -24 -23 -24 -8 0 10 22 33 27
28 2 -2 1 -11 -3 -20z m1596 4 c0 -5 -4 -10 -10 -10 -5 0 -10 5 -10 10 0 6 5
10 10 10 6 0 10 -4 10 -10z m-3330 -22 c-1 -30 -70 -78 -70 -49 0 6 8 11 18
11 11 0 24 11 30 25 12 27 22 33 22 13z m1440 -3 c0 -8 -4 -15 -10 -15 -5 0
-10 7 -10 15 0 8 5 15 10 15 6 0 10 -7 10 -15z m500 -31 c0 -8 -7 -14 -15 -14
-15 0 -21 21 -9 33 10 9 24 -2 24 -19z m-1810 -24 c0 -5 -2 -10 -4 -10 -3 0
-8 5 -11 10 -3 6 -1 10 4 10 6 0 11 -4 11 -10z m2100 0 c0 -5 -5 -10 -11 -10
-5 0 -7 5 -4 10 3 6 8 10 11 10 2 0 4 -4 4 -10z m-1325 -10 c3 -5 2 -10 -4
-10 -5 0 -13 5 -16 10 -3 6 -2 10 4 10 5 0 13 -4 16 -10z m1473 -30 c8 -16 11
-34 7 -40 -4 -6 -1 -26 5 -46 11 -33 10 -38 -13 -62 -13 -15 -31 -41 -40 -59
-13 -27 -13 -34 -1 -44 7 -6 22 -8 31 -5 10 4 14 4 10 0 -4 -4 3 -12 15 -18
26 -13 39 -42 15 -33 -10 4 -17 -1 -20 -14 -3 -11 -4 -8 -3 8 1 22 -4 28 -29
35 -18 4 -38 20 -48 38 -15 25 -24 30 -58 30 -44 0 -48 -10 -24 -56 8 -15 12
-30 10 -32 -7 -7 -25 9 -25 24 0 25 -19 15 -23 -13 -3 -21 -4 -17 -6 13 -1 45
12 62 67 84 20 8 32 19 32 31 0 14 9 19 47 21 36 2 49 7 51 21 3 14 -5 17 -52
17 -31 0 -56 5 -56 10 0 6 23 10 50 10 l50 0 0 34 c0 18 -7 39 -15 46 -18 15
-19 30 -2 30 6 0 18 -13 25 -30z m-1988 -19 c0 -10 -7 -24 -15 -31 -9 -8 -12
-22 -8 -41 3 -18 1 -29 -6 -29 -15 0 -14 59 2 93 14 31 27 35 27 8z m675 10
c3 -5 1 -12 -5 -16 -5 -3 -10 1 -10 9 0 18 6 21 15 7z m-935 -26 c9 -11 16
-13 24 -5 16 16 30 12 16 -5 -17 -21 14 -32 51 -18 16 6 29 9 29 6 0 -12 -36
-32 -56 -33 -21 0 -93 48 -94 63 0 12 17 8 30 -8z m950 -38 c0 -18 -2 -19 -10
-7 -13 20 -13 43 0 35 6 -3 10 -16 10 -28z m993 26 c-7 -2 -21 -2 -30 0 -10 3
-4 5 12 5 17 0 24 -2 18 -5z m47 -3 c0 -5 -5 -10 -11 -10 -5 0 -7 5 -4 10 3 6
8 10 11 10 2 0 4 -4 4 -10z m-1710 -10 c0 -5 -2 -10 -4 -10 -3 0 -8 5 -11 10
-3 6 -1 10 4 10 6 0 11 -4 11 -10z m224 -9 c9 -10 14 -25 10 -35 -7 -19 -16
-20 -31 -5 -22 22 -35 -2 -31 -57 3 -29 1 -51 -4 -48 -4 3 -8 40 -8 82 1 62 3
74 13 61 13 -16 47 -33 47 -22 0 4 -7 15 -17 25 -9 10 -12 18 -6 18 5 0 17 -8
27 -19z m1726 9 c0 -5 -4 -10 -10 -10 -5 0 -10 5 -10 10 0 6 5 10 10 10 6 0
10 -4 10 -10z m-559 -35 c16 -35 16 -35 -7 -35 -14 0 -28 9 -35 22 -9 17 -9
20 4 15 11 -4 13 0 10 14 -9 32 11 21 28 -16z m59 25 c0 -5 -7 -10 -15 -10 -8
0 -15 5 -15 10 0 6 7 10 15 10 8 0 15 -4 15 -10z m-640 -10 c0 -5 -4 -10 -10
-10 -5 0 -10 5 -10 10 0 6 5 10 10 10 6 0 10 -4 10 -10z m-1090 -10 c8 -5 11
-12 7 -17 -5 -4 -12 -1 -17 6 -4 8 -14 11 -22 8 -8 -3 -21 -1 -29 4 -10 6 -5
9 16 9 17 0 37 -4 45 -10z m1330 -21 c0 -5 -9 -9 -20 -9 -19 0 -27 20 -13 33
7 8 33 -11 33 -24z m620 21 c0 -5 -9 -10 -19 -10 -11 0 -23 5 -26 10 -4 6 5
10 19 10 14 0 26 -4 26 -10z m-2410 -20 c0 -5 -4 -10 -10 -10 -5 0 -10 5 -10
10 0 6 5 10 10 10 6 0 10 -4 10 -10z m1020 -40 c-15 -35 -7 -62 15 -54 8 3 15
1 15 -5 0 -6 -6 -11 -14 -11 -18 0 -30 -65 -30 -162 0 -43 -3 -78 -8 -78 -4 0
-8 16 -8 35 0 28 -4 35 -19 35 -11 0 -23 5 -26 10 -3 6 5 10 19 10 18 0 24 4
20 14 -3 8 -1 30 4 50 6 21 7 36 1 36 -5 0 -9 13 -9 29 0 21 -6 32 -20 36 -11
3 -20 11 -20 17 0 5 6 8 13 5 47 -19 47 -19 47 1 0 15 -9 22 -30 27 -42 9 -38
27 4 20 29 -6 34 -4 40 17 5 14 9 18 13 10 3 -7 0 -26 -7 -42z m-377 3 c4 -19
2 -33 -3 -33 -6 0 -10 17 -10 37 0 43 5 41 13 -4z m777 -53 c0 -53 -4 -90 -10
-90 -6 0 -10 37 -10 90 0 53 4 90 10 90 6 0 10 -37 10 -90z m170 69 c0 -11 -4
-17 -10 -14 -5 3 -10 13 -10 21 0 8 5 14 10 14 6 0 10 -9 10 -21z m1565 1 c3
-5 -3 -10 -14 -10 -12 0 -21 5 -21 10 0 6 6 10 14 10 8 0 18 -4 21 -10z m-355
-10 c0 -5 -4 -10 -10 -10 -5 0 -10 5 -10 10 0 6 5 10 10 10 6 0 10 -4 10 -10z
m-1639 -23 c-8 -11 -5 -20 14 -41 26 -28 33 -56 14 -56 -6 0 -9 5 -7 12 7 20
-31 49 -60 46 -22 -2 -28 -9 -30 -35 -2 -18 -8 -33 -14 -33 -6 0 -7 15 -3 40
6 37 5 40 -16 40 -38 0 -11 13 29 14 20 1 38 5 39 11 2 10 35 25 42 19 2 -2
-1 -10 -8 -17z m997 11 c-6 -18 -28 -21 -28 -4 0 9 7 16 16 16 9 0 14 -5 12
-12z m387 2 c3 -5 -3 -10 -14 -10 -12 0 -21 5 -21 10 0 6 6 10 14 10 8 0 18
-4 21 -10z m-195 -26 c0 -8 -7 -14 -15 -14 -17 0 -18 2 -9 24 7 18 24 12 24
-10z m-1530 0 c0 -17 -22 -14 -28 4 -2 7 3 12 12 12 9 0 16 -7 16 -16z m740 6
c0 -5 -2 -10 -4 -10 -3 0 -8 5 -11 10 -3 6 -1 10 4 10 6 0 11 -4 11 -10z
m-1600 -36 c0 -8 -5 -12 -10 -9 -6 4 -8 11 -5 16 9 14 15 11 15 -7z m1664 7
c8 -13 -4 -42 -15 -35 -12 7 -12 44 0 44 6 0 12 -4 15 -9z m-114 -11 c0 -5 -4
-10 -10 -10 -5 0 -10 5 -10 10 0 6 5 10 10 10 6 0 10 -4 10 -10z m-661 -60 c1
-13 0 -13 -9 0 -5 8 -9 26 -9 40 l1 25 8 -25 c4 -14 8 -32 9 -40z m-845 5 c3
-8 1 -15 -3 -15 -5 0 -11 7 -15 15 -3 8 -1 15 3 15 5 0 11 -7 15 -15z m256 0
c0 -8 -7 -15 -15 -15 -8 0 -15 7 -15 15 0 8 7 15 15 15 8 0 15 -7 15 -15z
m1540 -25 c0 -22 -4 -40 -9 -40 -9 0 -20 67 -12 75 13 14 21 1 21 -35z m690
36 c0 -3 -4 -8 -10 -11 -5 -3 -10 -1 -10 4 0 6 5 11 10 11 6 0 10 -2 10 -4z
m-1190 -26 c0 -21 16 -28 22 -9 5 16 43 -4 52 -27 6 -14 1 -16 -31 -10 -21 3
-48 6 -61 6 -13 0 -21 4 -17 9 3 5 1 13 -5 16 -8 5 -7 11 1 21 17 20 39 17 39
-6z m-481 -32 c1 -5 -3 -8 -9 -8 -5 0 -10 12 -9 28 0 24 1 25 9 7 5 -11 9 -23
9 -27z m1527 19 c9 12 13 14 14 5 0 -9 11 -12 32 -10 18 2 33 -2 35 -9 3 -9
-7 -13 -31 -13 -32 0 -36 -3 -36 -25 0 -14 -4 -25 -10 -25 -5 0 -10 11 -10 25
0 18 -5 25 -20 25 -15 0 -20 6 -19 28 l0 27 16 -23 c15 -21 16 -21 29 -5z
m594 -57 c0 -40 -4 -70 -10 -70 -5 0 -10 24 -10 54 0 33 -5 56 -12 58 -15 5
-1 28 18 28 11 0 14 -16 14 -70z m-2940 41 c0 -12 -20 -25 -27 -18 -7 7 6 27
18 27 5 0 9 -4 9 -9z m1170 5 c0 -3 -4 -8 -10 -11 -5 -3 -10 -1 -10 4 0 6 5
11 10 11 6 0 10 -2 10 -4z m-70 -21 c-12 -15 -30 -12 -30 6 0 5 10 9 21 9 18
0 19 -2 9 -15z m732 -7 c-7 -7 -12 -8 -12 -2 0 6 3 14 7 17 3 4 9 5 12 2 2 -3
-1 -11 -7 -17z m48 7 c0 -8 -7 -15 -15 -15 -8 0 -15 7 -15 15 0 8 7 15 15 15
8 0 15 -7 15 -15z m-997 -16 c-8 -8 -16 -8 -30 0 -16 9 -14 10 12 11 21 0 26
-3 18 -11z m1117 1 c0 -5 -4 -10 -10 -10 -5 0 -10 5 -10 10 0 6 5 10 10 10 6
0 10 -4 10 -10z m890 -39 c0 -28 -4 -53 -10 -56 -6 -4 -10 15 -10 49 0 31 5
56 10 56 6 0 10 -22 10 -49z m-1290 -10 c0 -21 6 -32 20 -36 11 -3 21 -12 21
-18 5 -54 9 -87 13 -115 4 -29 3 -32 -9 -22 -10 8 -15 32 -15 71 0 54 -2 61
-25 71 -19 9 -25 19 -25 45 0 18 5 33 10 33 6 0 10 -13 10 -29z m1060 20 c0
-5 3 -18 7 -28 6 -16 5 -16 -10 -4 -19 15 -23 41 -7 41 6 0 10 -4 10 -9z
m-725 -11 c3 -5 -1 -10 -9 -10 -9 0 -16 5 -16 10 0 6 4 10 9 10 6 0 13 -4 16
-10z m435 -70 c0 -21 -4 -42 -10 -45 -6 -4 -10 13 -10 45 0 32 4 49 10 45 6
-3 10 -24 10 -45z m94 27 c0 -9 -1 -42 -2 -72 -3 -85 -22 -66 -22 21 0 56 3
75 13 72 6 -3 12 -12 11 -21z m226 -1 c0 -3 -4 -8 -10 -11 -5 -3 -10 -1 -10 4
0 6 5 11 10 11 6 0 10 -2 10 -4z m45 -6 c3 -5 2 -10 -4 -10 -5 0 -13 5 -16 10
-3 6 -2 10 4 10 5 0 13 -4 16 -10z m305 -24 c17 -3 37 -3 46 1 14 5 16 2 11
-18 -4 -13 -7 -36 -7 -51 0 -16 -4 -28 -10 -28 -5 0 -10 17 -10 39 0 35 -3 39
-30 43 -16 3 -30 1 -30 -4 0 -4 -7 -8 -15 -8 -14 0 -14 7 2 48 5 15 7 15 10 1
2 -9 17 -19 33 -23z m-2200 9 c0 -8 -2 -15 -4 -15 -2 0 -6 7 -10 15 -3 8 -1
15 4 15 6 0 10 -7 10 -15z m923 5 c9 0 17 -5 17 -11 0 -5 -4 -8 -9 -4 -12 7
-33 -29 -24 -39 3 -3 -1 -6 -10 -6 -20 0 -31 16 -17 25 20 12 10 25 -20 25
-16 0 -30 5 -30 11 0 8 13 10 38 5 20 -3 45 -6 55 -6z m83 -17 c-10 -10 -19 5
-10 18 6 11 8 11 12 0 2 -7 1 -15 -2 -18z m784 -13 c0 -19 5 -30 14 -30 7 0
20 -7 27 -16 11 -14 11 -18 -1 -28 -19 -14 -60 -96 -60 -117 0 -9 -7 -23 -17
-30 -15 -13 -16 -11 -9 16 4 17 17 49 28 72 21 42 19 68 -4 45 -7 -7 -22 -12
-35 -12 -18 0 -23 6 -23 25 0 24 18 33 34 18 12 -13 47 -10 42 3 -13 35 -17
84 -7 84 6 0 11 -13 11 -30z m-1578 -25 c-5 -28 -22 -24 -22 6 0 10 6 19 14
19 9 0 12 -8 8 -25z m-456 -31 c-9 -8 -16 -21 -16 -29 0 -7 -7 -16 -16 -19
-23 -9 -28 -1 -9 14 8 7 15 19 15 28 0 17 33 45 38 31 2 -5 -4 -16 -12 -25z
m484 -34 c0 -5 -2 -10 -4 -10 -3 0 -8 5 -11 10 -3 6 -1 10 4 10 6 0 11 -4 11
-10z m780 -19 c0 -19 -17 -38 -26 -28 -3 2 -6 14 -9 26 -3 16 1 21 16 21 12 0
19 -7 19 -19z m215 -1 c-3 -5 -10 -10 -16 -10 -5 0 -9 5 -9 10 0 6 7 10 16 10
8 0 12 -4 9 -10z m-1381 -15 c-4 -8 -11 -12 -16 -9 -6 4 -5 10 3 15 19 12 19
11 13 -6z m1221 -9 c-9 -13 -35 -36 -58 -52 -23 -15 -62 -44 -87 -64 -56 -46
-70 -54 -70 -41 0 5 42 41 93 80 52 38 99 77 107 85 20 25 32 18 15 -8z m255
4 c0 -5 -4 -10 -10 -10 -5 0 -10 5 -10 10 0 6 5 10 10 10 6 0 10 -4 10 -10z
m-1545 -20 c3 -5 -1 -10 -9 -10 -9 0 -16 5 -16 10 0 6 4 10 9 10 6 0 13 -4 16
-10z m85 -26 c0 -8 -4 -12 -10 -9 -5 3 -10 13 -10 21 0 8 5 12 10 9 6 -3 10
-13 10 -21z m2075 16 c3 -5 1 -10 -4 -10 -6 0 -11 5 -11 10 0 6 2 10 4 10 3 0
8 -4 11 -10z m93 4 c32 -9 28 -28 -5 -19 -32 7 -55 25 -32 25 7 0 24 -3 37 -6z
m-1667 -65 c25 -15 -9 -11 -41 6 -30 16 -42 39 -15 29 10 -4 15 0 16 12 0 14
4 11 13 -9 7 -16 19 -33 27 -38z m156 9 c9 -10 10 -18 4 -22 -5 -3 -17 8 -25
25 -18 36 -21 65 -4 34 6 -11 17 -27 25 -37z m1113 42 c0 -5 -4 -10 -10 -10
-5 0 -10 5 -10 10 0 6 5 10 10 10 6 0 10 -4 10 -10z m-770 -30 c0 -5 -2 -10
-4 -10 -3 0 -8 5 -11 10 -3 6 -1 10 4 10 6 0 11 -4 11 -10z m264 -5 c-4 -8
-10 -12 -15 -9 -14 8 -10 24 6 24 9 0 12 -6 9 -15z m700 -27 c3 -18 7 -46 9
-63 2 -16 5 -4 6 28 1 76 21 74 21 -2 0 -50 4 -64 26 -88 l25 -28 -4 25 c-2
14 -8 33 -12 43 -4 10 -3 17 4 17 6 0 11 -8 12 -17 0 -14 2 -13 9 5 12 28 50
30 50 2 0 -11 7 -20 15 -20 25 0 12 -44 -15 -48 -12 -2 -25 -12 -27 -23 -8
-31 -36 -22 -66 21 -16 22 -34 40 -40 40 -7 0 -20 12 -31 26 -14 21 -16 28 -6
34 9 5 11 20 7 44 -3 20 -2 36 3 36 5 0 11 -15 14 -32z m-1949 13 c3 -5 1 -12
-5 -16 -5 -3 -10 1 -10 9 0 18 6 21 15 7z m575 -45 c0 -44 0 -45 38 -48 30 -2
45 4 82 33 45 36 90 47 90 21 0 -7 -4 -11 -9 -8 -13 9 -24 -68 -17 -122 5 -47
5 -47 -9 -17 -8 17 -14 38 -15 48 0 27 -25 48 -47 40 -10 -3 -37 -24 -61 -45
l-42 -39 33 -14 c34 -14 94 -81 83 -92 -3 -3 -15 6 -27 21 -34 44 -50 56 -69
56 -10 0 -22 5 -25 10 -4 6 -19 0 -37 -15 -17 -14 -33 -23 -37 -19 -3 3 8 18
26 33 21 17 31 33 28 46 -2 11 -4 28 -4 38 -2 33 -21 17 -21 -18 0 -19 -4 -35
-10 -35 -5 0 -10 18 -10 39 0 32 -4 40 -22 45 -30 8 -63 34 -55 42 3 4 18 -1
31 -10 34 -21 46 -20 46 4 0 26 20 49 43 50 14 0 17 -9 17 -44z m1189 8 c-12
-15 -39 -19 -39 -6 0 15 22 30 36 25 11 -4 12 -9 3 -19z m-2035 -21 c-13 -14
-17 -14 -25 -2 -6 10 -3 16 9 20 26 10 34 0 16 -18z m686 -19 c-14 -35 -12
-44 5 -38 9 4 15 0 15 -10 0 -18 -35 -22 -45 -6 -8 13 13 80 26 80 5 0 4 -11
-1 -26z m3243 19 c-7 -2 -19 -2 -25 0 -7 3 -2 5 12 5 14 0 19 -2 13 -5z
m-2098 -33 c3 -5 1 -10 -4 -10 -6 0 -11 5 -11 10 0 6 2 10 4 10 3 0 8 -4 11
-10z m-2955 -21 c0 -5 -4 -9 -10 -9 -5 0 -10 7 -10 16 0 8 5 12 10 9 6 -3 10
-10 10 -16z m2860 5 c0 -17 -22 -14 -28 4 -2 7 3 12 12 12 9 0 16 -7 16 -16z
m2308 9 c-10 -2 -26 -2 -35 0 -10 3 -2 5 17 5 19 0 27 -2 18 -5z m-2388 -33
c0 -5 -22 -10 -50 -10 -27 0 -50 5 -50 10 0 6 23 10 50 10 28 0 50 -4 50 -10z
m406 -24 c2 -16 -7 -30 -27 -45 -22 -17 -29 -18 -29 -7 0 8 5 18 10 21 6 3 10
14 10 24 0 18 20 44 28 36 3 -3 6 -16 8 -29z m159 -24 c24 -41 55 -123 55
-144 0 -5 -4 -8 -10 -8 -5 0 -10 6 -10 14 0 8 -7 22 -16 31 -9 8 -13 22 -10
31 3 8 -8 39 -24 68 -17 29 -30 56 -30 60 0 16 20 -7 45 -52z m-3547 41 c-15
-2 -42 -2 -60 0 -18 2 -6 4 27 4 33 0 48 -2 33 -4z m2580 -32 c-14 -5 -31 15
-23 29 5 8 11 6 20 -7 9 -11 10 -19 3 -22z m558 -10 c-4 -6 -14 -11 -22 -11
-12 0 -12 3 -2 20 7 11 16 16 21 11 5 -5 6 -14 3 -20z m84 -6 c0 -14 -8 -29
-20 -35 -17 -9 -20 -6 -28 22 -7 29 -6 34 12 39 28 8 36 2 36 -26z m1280 25
c0 -5 -4 -10 -10 -10 -5 0 -10 5 -10 10 0 6 5 10 10 10 6 0 10 -4 10 -10z
m-1730 -71 c0 -27 5 -49 10 -49 6 0 10 -7 10 -15 0 -8 -5 -15 -11 -15 -8 0 -9
-25 -4 -81 6 -69 4 -83 -11 -100 -17 -18 -16 -19 19 -19 l37 0 2 63 1 62 6
-60 c4 -40 10 -59 19 -58 6 2 12 -3 12 -11 0 -8 -6 -16 -12 -19 -19 -6 -128 4
-128 13 0 4 9 15 20 25 17 15 20 31 20 97 l0 78 -65 0 c-37 0 -65 4 -65 10 0
6 27 10 60 10 l60 0 0 66 c0 41 4 63 10 59 6 -3 10 -28 10 -56z m705 51 c4 -6
-4 -9 -17 -7 -18 2 -23 -2 -21 -20 3 -27 -9 -30 -28 -7 -11 14 -10 18 6 30 22
16 51 18 60 4z m-3245 -27 c0 -10 -4 -14 -8 -8 -4 6 -11 13 -16 18 -5 4 -2 7
7 7 10 0 17 -8 17 -17z m2920 -60 c0 -10 -20 -13 -75 -13 l-75 0 0 -55 c0 -43
3 -55 16 -55 22 0 14 -44 -8 -48 -16 -3 -18 5 -18 60 l0 64 -32 2 c-45 4 -49
12 -5 12 41 0 42 2 26 32 -14 26 -4 35 16 14 12 -11 34 -16 76 -16 l59 0 -5
28 c-6 26 -6 26 9 8 9 -11 16 -26 16 -33z m-520 11 c0 -17 -22 -14 -28 4 -2 7
3 12 12 12 9 0 16 -7 16 -16z m779 -35 c-16 -10 -23 -4 -14 10 3 6 11 8 17 5
6 -4 5 -9 -3 -15z m-369 -9 c0 -5 -4 -10 -10 -10 -5 0 -10 5 -10 10 0 6 5 10
10 10 6 0 10 -4 10 -10z m-330 -50 c0 -5 -11 -10 -25 -10 -14 0 -25 -4 -25
-10 0 -17 -19 -11 -30 10 -10 19 -8 20 35 20 25 0 45 -4 45 -10z m-120 -30 c0
-5 -4 -10 -10 -10 -5 0 -10 5 -10 10 0 6 5 10 10 10 6 0 10 -4 10 -10z m634
-64 c-3 -9 -10 -13 -16 -10 -5 3 -4 12 3 20 15 18 22 13 13 -10z m181 -92
c-10 -16 -25 -24 -43 -24 -15 1 -39 -2 -53 -5 -22 -6 -27 -3 -33 19 -5 21 -12
26 -36 26 -41 0 -38 14 4 17 29 2 35 -1 40 -22 7 -26 29 -32 56 -15 9 5 19 5
27 -2 10 -8 13 -6 13 6 0 9 7 16 15 16 9 0 16 10 16 28 2 24 2 24 6 4 3 -13
-3 -34 -12 -48z m-841 35 c-3 -5 -10 -7 -15 -3 -5 3 -7 10 -3 15 3 5 10 7 15
3 5 -3 7 -10 3 -15z m628 -64 c-3 -27 -8 -51 -11 -53 -4 -1 -5 -18 -3 -37 3
-21 0 -35 -7 -35 -6 0 -11 -6 -11 -13 0 -7 -11 -21 -24 -31 -14 -10 -28 -32
-31 -48 -4 -17 -15 -33 -25 -35 -12 -3 -16 -11 -13 -23 4 -15 1 -18 -16 -15
-13 2 -26 -4 -34 -15 -12 -17 -19 -18 -48 -10 -49 14 -59 13 -59 -10 0 -13 -7
-20 -19 -20 -13 0 -21 -10 -25 -34 -7 -36 -39 -80 -50 -69 -10 10 -88 3 -103
-9 -8 -6 -16 -8 -20 -5 -3 4 -13 1 -21 -6 -12 -9 -16 -9 -19 1 -3 6 -9 12 -14
12 -16 0 -69 42 -63 51 2 4 -17 22 -43 39 -26 18 -42 25 -35 17 9 -10 10 -17
2 -22 -5 -3 -10 0 -11 7 0 9 -2 10 -5 1 -13 -30 -69 32 -57 63 5 14 8 13 24
-7 16 -20 20 -22 28 -9 8 12 14 10 31 -13 12 -15 29 -27 39 -27 19 0 49 -31
44 -46 -2 -6 13 -18 33 -27 37 -18 97 -16 151 4 13 5 25 4 28 -1 10 -15 35 16
46 55 6 20 16 35 24 35 8 0 15 9 15 20 0 27 22 34 68 23 28 -7 41 -6 49 3 7 6
9 15 5 19 -4 5 3 6 14 3 17 -4 20 -2 17 12 -4 13 2 19 19 22 17 2 24 10 26 32
2 17 11 30 22 33 10 3 21 12 25 21 5 14 4 15 -6 5 -19 -19 -26 -16 -33 13 -7
28 28 82 53 83 21 1 -19 30 -41 31 -13 0 -18 8 -18 28 0 39 7 43 60 40 l47 -3
-5 -50z m2948 36 c0 -10 -24 -21 -43 -21 -7 0 -3 7 7 15 22 17 36 19 36 6z
m-3645 -224 c-4 -8 -15 -15 -26 -14 -22 2 -26 17 -4 17 8 0 14 3 14 8 -3 18 2
25 11 16 6 -6 8 -18 5 -27z m1562 -14 c-3 -10 -5 -4 -5 12 0 17 2 24 5 18 2
-7 2 -21 0 -30z m1163 -33 c12 -8 11 -10 -7 -10 -13 0 -23 5 -23 10 0 13 11
13 30 0z m-4356 -295 c4 -11 -1 -15 -19 -15 -18 0 -23 4 -19 15 4 8 12 15 19
15 7 0 15 -7 19 -15z m-914 -20 c0 -8 -7 -15 -15 -15 -9 0 -12 6 -9 15 4 8 10
15 15 15 5 0 9 -7 9 -15z m4950 -130 c-7 -8 -17 -15 -23 -15 -5 0 -2 9 8 20
21 23 35 19 15 -5z m-916 -33 c2 -4 1 -14 -3 -21 -6 -9 -10 -7 -14 8 -5 20 7
29 17 13z m-614 -18 c0 -8 -4 -12 -10 -9 -5 3 -10 10 -10 16 0 5 5 9 10 9 6 0
10 -7 10 -16z m620 -40 c0 -14 -3 -15 -17 -3 -10 7 -20 15 -22 16 -2 2 5 3 17
3 14 0 22 -6 22 -16z m-1623 -96 c-3 -8 -6 -5 -6 6 -1 11 2 17 5 13 3 -3 4
-12 1 -19z m-1627 -98 c0 -11 -4 -20 -10 -20 -5 0 -10 9 -10 20 0 11 5 20 10
20 6 0 10 -9 10 -20z m2080 -15 c0 -14 -4 -25 -10 -25 -5 0 -10 11 -10 25 0
14 5 25 10 25 6 0 10 -11 10 -25z m-40 -15 c0 -12 -8 -12 -35 0 -18 8 -17 9 8
9 15 1 27 -3 27 -9z m-2040 -30 c0 -11 -4 -20 -10 -20 -5 0 -10 9 -10 20 0 11
5 20 10 20 6 0 10 -9 10 -20z m2080 -10 c0 -11 -4 -20 -10 -20 -5 0 -10 9 -10
20 0 11 5 20 10 20 6 0 10 -9 10 -20z m2484 -161 c16 25 26 7 23 -44 -3 -67
-22 -71 -54 -10 -13 24 3 78 16 56 6 -9 11 -10 15 -2z m206 -95 c0 -8 -4 -12
-10 -9 -5 3 -10 13 -10 21 0 8 5 12 10 9 6 -3 10 -13 10 -21z m-5855 -34 c3
-5 -3 -10 -14 -10 -12 0 -21 5 -21 10 0 6 6 10 14 10 8 0 18 -4 21 -10z m-20
-49 c3 -5 1 -12 -5 -16 -5 -3 -10 1 -10 9 0 18 6 21 15 7z m5922 -57 c-3 -4
-14 -3 -24 0 -15 6 -15 8 -3 16 16 10 39 -4 27 -16z m-5834 -14 c-3 -11 -7
-20 -9 -20 -2 0 -4 9 -4 20 0 11 4 20 9 20 5 0 7 -9 4 -20z m57 11 c0 -5 -9
-7 -20 -4 -11 3 -20 7 -20 9 0 2 9 4 20 4 11 0 20 -4 20 -9z m0 -45 c0 -8 -4
-18 -10 -21 -5 -3 -10 3 -10 14 0 12 5 21 10 21 6 0 10 -6 10 -14z m-10 -61
c0 -14 -4 -25 -9 -25 -4 0 -6 11 -3 25 2 14 6 25 8 25 2 0 4 -11 4 -25z m6246
-321 c15 -25 24 -47 21 -51 -6 -6 -67 85 -67 100 0 16 20 -5 46 -49z m-716
-239 c-7 -9 -15 -13 -18 -10 -3 2 1 11 8 20 7 9 15 13 18 10 3 -2 -1 -11 -8
-20z m-9 -68 c-13 -13 -15 1 -4 30 7 17 8 17 11 -1 2 -10 -1 -23 -7 -29z
m-1814 11 c-3 -8 -6 -5 -6 6 -1 11 2 17 5 13 3 -3 4 -12 1 -19z m-973 -33 c3
-9 0 -15 -9 -15 -8 0 -15 7 -15 15 0 8 4 15 9 15 5 0 11 -7 15 -15z"/>
<path d="M4780 7250 c0 -5 5 -10 11 -10 5 0 7 5 4 10 -3 6 -8 10 -11 10 -2 0
-4 -4 -4 -10z"/>
<path d="M4827 7203 c-12 -12 -7 -40 9 -54 14 -11 15 -9 11 20 -6 37 -11 44
-20 34z"/>
<path d="M4210 5792 c0 -14 21 -28 55 -36 29 -7 29 -7 11 13 -10 11 -23 18
-28 15 -5 -3 -15 0 -23 6 -9 7 -15 8 -15 2z"/>
<path d="M3922 4921 c-3 -36 24 -50 30 -16 5 22 -7 45 -22 45 -3 0 -7 -13 -8
-29z"/>
<path d="M4540 4880 c0 -5 7 -7 15 -4 8 4 15 8 15 10 0 2 -7 4 -15 4 -8 0 -15
-4 -15 -10z"/>
<path d="M3789 4841 c-23 -19 -23 -21 -6 -38 16 -17 18 -17 37 3 13 12 18 27
14 37 -8 22 -16 21 -45 -2z"/>
<path d="M3929 4788 c-19 -18 -37 -31 -41 -30 -4 1 -5 -5 -1 -14 5 -13 8 -13
26 3 52 46 67 61 67 67 0 14 -20 4 -51 -26z"/>
<path d="M4500 4811 c0 -14 18 -23 31 -15 8 4 7 9 -2 15 -18 11 -29 11 -29 0z"/>
<path d="M4470 4789 c0 -5 5 -7 10 -4 6 3 10 8 10 11 0 2 -4 4 -10 4 -5 0 -10
-5 -10 -11z"/>
<path d="M3971 4776 c-9 -10 -8 -16 4 -26 20 -16 38 -1 29 23 -8 21 -18 22
-33 3z"/>
<path d="M6061 5401 c-7 -5 -12 -14 -9 -21 2 -7 10 -4 22 9 19 21 12 28 -13
12z"/>
<path d="M3330 5065 c0 -18 4 -22 20 -18 11 3 20 11 20 18 0 7 -9 15 -20 18
-16 4 -20 0 -20 -18z"/>
<path d="M3245 4990 c-3 -5 -13 -10 -21 -10 -9 0 -22 -7 -30 -15 -14 -13 -13
-15 8 -15 13 0 33 7 44 15 10 8 29 15 42 15 13 0 20 4 17 10 -3 6 -17 10 -30
10 -13 0 -27 -4 -30 -10z"/>
<path d="M3266 4962 c-3 -5 1 -9 9 -9 8 0 15 4 15 9 0 4 -4 8 -9 8 -6 0 -12
-4 -15 -8z"/>
<path d="M3146 4918 c30 -36 36 -38 56 -13 10 13 18 26 18 29 0 3 -21 6 -47 6
l-46 0 19 -22z"/>
<path d="M2860 4468 c0 -38 14 -51 32 -31 15 17 14 19 -8 36 -24 18 -24 18
-24 -5z"/>
<path d="M2902 4211 c2 -22 11 -39 26 -49 20 -13 22 -13 22 6 0 12 -11 34 -25
49 l-25 28 2 -34z"/>
<path d="M3050 5220 c0 -5 5 -10 11 -10 5 0 7 5 4 10 -3 6 -8 10 -11 10 -2 0
-4 -4 -4 -10z"/>
<path d="M4768 4883 c-20 -5 -23 -18 -7 -29 6 -3 18 0 26 9 17 16 7 26 -19 20z"/>
<path d="M4720 4850 c0 -5 5 -10 11 -10 5 0 7 5 4 10 -3 6 -8 10 -11 10 -2 0
-4 -4 -4 -10z"/>
<path d="M2244 4713 c2 -10 6 -17 10 -16 15 3 16 11 2 22 -12 10 -14 9 -12 -6z"/>
<path d="M5345 4700 c-3 -5 1 -10 9 -10 9 0 16 5 16 10 0 6 -4 10 -9 10 -6 0
-13 -4 -16 -10z"/>
<path d="M3788 3983 c7 -3 16 -2 19 1 4 3 -2 6 -13 5 -11 0 -14 -3 -6 -6z"/>
<path d="M3680 3961 c0 -6 15 -11 34 -11 18 0 55 -3 82 -6 36 -5 46 -4 39 5
-15 16 -155 27 -155 12z"/>
<path d="M3880 3708 c0 -20 5 -23 48 -33 29 -6 32 -5 32 18 0 22 -5 25 -40 29
-33 3 -40 0 -40 -14z"/>
<path d="M3890 3645 c0 -12 8 -16 33 -13 17 2 32 8 32 13 0 6 -15 11 -32 13
-25 3 -33 -1 -33 -13z"/>
<path d="M4082 3428 c5 -15 28 -23 28 -10 0 5 -7 13 -16 16 -10 4 -14 1 -12
-6z"/>
<path d="M4146 3401 c-4 -6 -1 -21 6 -33 l13 -23 3 24 c4 26 -12 49 -22 32z"/>
<path d="M4222 3273 c-13 -26 -5 -42 19 -36 13 4 19 12 17 26 -4 27 -24 33
-36 10z"/>
<path d="M4307 3153 c-11 -10 -8 -20 8 -27 10 -4 15 1 15 14 0 20 -11 26 -23
13z"/>
<path d="M4401 3004 c0 -11 3 -14 6 -6 3 7 2 16 -1 19 -3 4 -6 -2 -5 -13z"/>
<path d="M4170 3940 c0 -7 44 -40 54 -40 2 0 2 9 -1 19 -5 18 -53 37 -53 21z"/>
<path d="M4215 3776 c-10 -7 -16 -18 -14 -24 3 -6 13 -3 27 8 26 21 14 36 -13
16z"/>
<path d="M4165 3721 c-3 -5 -1 -12 5 -16 5 -3 10 1 10 9 0 18 -6 21 -15 7z"/>
<path d="M4171 3674 c0 -11 3 -14 6 -6 3 7 2 16 -1 19 -3 4 -6 -2 -5 -13z"/>
<path d="M2825 3940 c3 -5 11 -10 16 -10 6 0 7 5 4 10 -3 6 -11 10 -16 10 -6
0 -7 -4 -4 -10z"/>
<path d="M3245 3630 c3 -5 8 -10 11 -10 2 0 4 5 4 10 0 6 -5 10 -11 10 -5 0
-7 -4 -4 -10z"/>
<path d="M3230 3180 c0 -16 5 -30 10 -30 6 0 10 14 10 30 0 17 -4 30 -10 30
-5 0 -10 -13 -10 -30z"/>
<path d="M3270 3100 l0 -31 30 22 c16 13 29 23 27 24 -1 1 -14 5 -29 9 -26 6
-28 4 -28 -24z"/>
<path d="M4255 2675 c0 -14 3 -25 8 -25 4 0 7 4 7 9 0 5 3 16 6 25 4 10 1 16
-7 16 -8 0 -14 -11 -14 -25z"/>
<path d="M4210 2669 c0 -5 5 -7 10 -4 6 3 10 8 10 11 0 2 -4 4 -10 4 -5 0 -10
-5 -10 -11z"/>
<path d="M4232 2584 c-12 -8 -22 -24 -22 -36 0 -16 3 -18 13 -9 8 6 16 8 19 5
3 -2 8 3 12 12 5 12 2 15 -11 10 -15 -6 -15 -4 2 14 22 24 17 26 -13 4z"/>
<path d="M7860 4976 c0 -2 7 -7 16 -10 8 -3 12 -2 9 4 -6 10 -25 14 -25 6z"/>
</g>
</svg>
