<?xml version="1.0" standalone="no"?>
<!DOCTYPE svg PUBLIC "-//W3C//DTD SVG 20010904//EN"
 "http://www.w3.org/TR/2001/REC-SVG-20010904/DTD/svg10.dtd">
<svg version="1.0" xmlns="http://www.w3.org/2000/svg"
 width="800.000000pt" height="800.000000pt" viewBox="0 0 800.000000 800.000000"
 preserveAspectRatio="xMidYMid meet">
<metadata>
Created by potrace 1.16, written by Peter Selinger 2001-2019
</metadata>
<g transform="translate(0.000000,800.000000) scale(0.100000,-0.100000)"
fill="#000000" stroke="none">
<path d="M0 4000 l0 -4000 1418 1 1417 0 26 32 c14 18 48 74 75 125 l49 93
-25 19 c-24 18 -25 22 -25 144 0 111 2 128 21 153 12 15 32 29 45 31 67 8 69
9 69 60 0 36 -7 60 -30 96 -18 29 -35 44 -42 40 -7 -4 -8 -3 -4 5 9 14 -28 63
-39 53 -5 -4 -5 -1 -1 5 10 17 -12 55 -27 47 -7 -4 -9 -4 -5 1 4 4 -6 33 -22
64 -17 31 -30 63 -30 72 0 9 -22 61 -50 117 -27 56 -45 102 -39 102 5 0 31
-45 58 -99 27 -55 51 -97 54 -94 3 3 3 -5 0 -18 -4 -15 -3 -20 5 -15 8 5 10 1
5 -10 -4 -12 -3 -15 5 -10 8 5 10 1 5 -10 -4 -12 -3 -15 5 -10 8 5 10 1 5 -10
-4 -12 -3 -15 5 -10 8 5 10 1 5 -10 -4 -12 -3 -15 5 -10 7 4 10 2 7 -7 -9 -21
33 -67 61 -67 14 0 43 9 65 21 22 11 46 18 52 16 19 -6 -69 -47 -103 -47 -16
0 -30 -4 -30 -9 0 -4 15 -28 33 -52 50 -65 67 -103 67 -148 l0 -40 62 -3 62
-3 28 -55 c15 -30 39 -97 54 -148 l26 -92 -26 -45 c-17 -28 -36 -47 -53 -51
-27 -7 -183 1 -219 12 -19 5 -28 -6 -73 -90 -29 -52 -56 -98 -61 -101 -6 -3
-15 -15 -20 -26 -11 -19 -3 -19 502 -19 398 0 509 3 500 12 -19 19 -14 28 16
27 17 -1 21 -3 9 -6 -14 -4 -16 -8 -6 -19 8 -10 33 -14 81 -14 l70 0 -7 42
c-4 24 -10 45 -14 48 -3 3 -7 19 -8 35 -6 95 -17 175 -23 175 -11 0 -70 56
-65 62 12 12 -36 136 -58 151 -13 8 -29 33 -35 56 -7 22 -24 53 -37 67 -17 18
-23 34 -19 52 3 20 -9 47 -49 109 -30 46 -57 80 -61 76 -4 -4 -4 0 0 10 3 9 2
17 -4 17 -6 0 -8 9 -5 19 5 19 -24 81 -38 81 -3 0 -4 11 -1 25 6 31 22 33 22
3 0 -13 9 -36 20 -53 11 -16 20 -38 20 -47 0 -27 22 -68 33 -61 6 3 8 2 4 -3
-6 -10 76 -147 84 -139 3 2 3 -12 1 -31 -3 -26 1 -41 16 -57 11 -12 26 -41 33
-65 8 -29 17 -41 26 -38 9 4 11 1 7 -6 -5 -8 -2 -9 10 -5 10 4 15 3 11 -3 -3
-6 -2 -10 4 -10 6 0 8 -7 5 -15 -4 -8 -1 -15 6 -15 6 0 9 -4 6 -9 -11 -18 26
-116 52 -138 14 -12 29 -20 34 -17 4 3 5 -1 2 -9 -3 -8 -1 -18 4 -21 6 -3 8
-15 5 -27 -7 -24 17 -169 27 -169 4 0 5 -11 2 -25 -2 -14 0 -25 6 -25 6 0 8
-9 5 -20 -5 -20 2 -20 1966 -20 l1971 0 0 4000 0 4000 -709 0 c-690 0 -710 -1
-716 -19 -3 -11 -12 -25 -20 -31 -13 -10 -15 -8 -13 13 1 14 6 23 10 21 4 -3
8 0 8 5 0 8 -186 11 -605 11 l-605 0 5 -27 6 -28 -21 28 -22 27 -579 0 c-318
0 -579 -2 -579 -5 0 -3 7 -17 16 -30 10 -16 12 -25 5 -25 -6 0 -16 -11 -23
-24 -10 -23 -5 -31 80 -112 50 -48 89 -91 85 -97 -8 -12 38 -108 49 -101 5 3
7 1 6 -3 -5 -17 55 -132 65 -126 6 3 7 1 3 -5 -14 -22 -26 -12 -53 42 -15 31
-31 52 -37 49 -6 -3 -8 -3 -4 2 4 4 -6 34 -22 66 -17 32 -30 65 -30 73 0 17
-128 142 -142 138 -5 -1 -7 2 -3 8 3 5 2 10 -4 10 -13 0 -23 -127 -18 -237 3
-51 1 -90 -4 -88 -4 3 -11 -10 -15 -30 -6 -33 -2 -40 43 -88 33 -34 56 -71 67
-105 20 -60 27 -59 73 14 26 41 43 55 43 36 0 -12 -51 -85 -69 -100 -11 -9
-16 -30 -16 -70 0 -52 -6 -67 -63 -165 -36 -61 -60 -113 -56 -120 4 -6 4 -9
-1 -5 -11 11 -38 -29 -29 -44 4 -6 3 -8 -3 -5 -6 4 -23 -10 -39 -30 -16 -20
-56 -66 -88 -102 -33 -36 -63 -70 -67 -75 -5 -5 -12 -7 -15 -3 -4 3 26 43 66
87 40 44 70 80 68 80 -2 0 -58 -22 -124 -48 l-119 -48 -17 -51 c-13 -43 -14
-64 -6 -132 l11 -81 -70 -92 c-86 -115 -84 -110 -118 -241 -22 -85 -33 -112
-52 -124 -31 -21 -44 -7 -15 16 18 13 31 46 54 132 24 91 38 125 71 168 22 30
40 60 40 67 0 7 4 11 8 8 11 -6 30 31 21 41 -4 3 0 5 8 3 9 -2 14 4 14 14 -1
10 2 15 7 12 11 -7 11 24 0 102 -8 56 -14 66 -57 105 -26 24 -51 43 -56 41 -5
-1 -7 2 -4 6 3 5 -17 28 -44 51 -39 33 -50 49 -50 72 0 16 -4 29 -9 29 -4 0
-6 11 -3 25 8 42 -54 132 -107 156 -25 11 -51 17 -58 14 -8 -2 -12 -1 -9 4 7
11 -22 23 -36 14 -6 -3 -8 -1 -4 5 3 5 0 12 -6 15 -7 2 -10 7 -7 10 3 4 44
-10 91 -30 79 -33 89 -41 117 -88 17 -28 36 -77 42 -110 12 -59 49 -117 72
-112 6 1 11 -3 12 -9 0 -6 26 -35 57 -63 62 -56 70 -55 72 9 1 16 3 28 6 27
14 -4 118 48 113 56 -3 6 -1 7 5 3 12 -7 182 61 195 78 42 60 160 279 164 306
3 23 -4 61 -21 110 -21 58 -38 86 -76 125 -52 52 -58 73 -39 122 10 25 11 88
6 235 -1 25 1 44 5 41 5 -2 8 7 8 21 0 13 3 31 6 40 5 12 0 16 -17 16 -24 0
-149 69 -149 82 0 12 8 10 54 -17 24 -14 46 -22 51 -17 4 4 5 2 2 -4 -6 -11
21 -24 50 -24 20 0 35 39 28 71 l-7 29 -2069 0 -2069 0 0 -4000z m6030 3851
c12 -24 13 -41 1 -41 -5 0 -11 9 -14 20 -6 23 -27 25 -95 9 -62 -15 -88 -41
-123 -119 -28 -62 -75 -110 -107 -110 -7 0 -12 -6 -12 -14 0 -22 -70 -29 -92
-9 -10 9 -42 18 -71 21 -39 3 -57 9 -66 24 -17 28 -6 34 16 9 13 -16 29 -21
63 -21 26 0 55 -6 65 -14 18 -13 55 -11 55 4 0 4 12 11 26 14 48 12 77 40 105
101 42 90 65 114 129 129 81 20 108 19 120 -3z m-2330 -49 c0 -4 -16 -23 -35
-42 -41 -40 -46 -33 -9 16 25 32 44 44 44 26z m63 -136 c4 -10 1 -13 -9 -9
-15 6 -19 23 -5 23 5 0 11 -7 14 -14z m951 2 c-3 -4 -9 -8 -15 -8 -5 0 -9 4
-9 8 0 5 7 9 15 9 8 0 12 -4 9 -9z m176 -133 c-13 -14 -26 -23 -28 -20 -7 7
29 45 41 45 6 0 0 -11 -13 -25z m-1310 -195 c0 -5 -6 -13 -13 -17 -7 -4 -22
-19 -32 -33 -11 -14 -29 -26 -40 -28 -11 -2 -30 -10 -42 -18 -26 -16 -33 -17
-33 -6 0 5 25 21 56 37 31 16 63 39 71 52 16 23 33 31 33 13z m974 -6 c3 -8
11 -12 16 -9 6 4 9 3 8 -2 -5 -15 34 -63 46 -56 6 3 8 3 4 -2 -9 -10 110 -145
126 -142 6 1 10 -3 9 -9 -3 -18 258 -268 295 -283 17 -8 32 -17 32 -22 0 -14
-17 -11 -52 10 -17 11 -36 17 -42 14 -6 -3 -9 -4 -6 0 8 8 -292 313 -305 309
-5 -2 -7 0 -3 4 9 8 -82 110 -94 106 -5 -1 -7 1 -6 6 5 14 -34 62 -46 55 -6
-3 -8 -3 -4 2 4 4 3 14 -3 22 -9 10 -8 13 4 13 8 0 18 -7 21 -16z m-1338 -454
c-25 -27 -51 -61 -58 -75 -15 -34 -30 -32 -17 3 11 28 97 122 112 122 6 0 -11
-22 -37 -50z m2334 -22 c-1 -19 -37 -64 -45 -56 -4 4 3 21 15 37 23 34 30 38
30 19z m-535 -59 c16 -6 13 -8 -15 -8 -60 -1 -170 12 -170 20 0 9 157 -1 185
-12z m-774 -8 l24 -20 -25 -24 c-26 -26 -90 -46 -90 -29 0 5 15 13 33 16 18 3
38 15 45 26 7 11 10 20 8 20 -2 0 -11 3 -20 6 -10 4 -16 1 -16 -9 0 -15 -28
-32 -38 -23 -5 6 39 56 49 56 4 0 17 -9 30 -19z m1164 -43 c7 -7 -13 -8 -65
-3 -41 3 -79 11 -85 17 -7 7 13 8 65 3 41 -3 80 -11 85 -17z m-2155 -38 c0 -5
-5 -10 -11 -10 -5 0 -7 5 -4 10 3 6 8 10 11 10 2 0 4 -4 4 -10z m-109 -136
c-17 -19 -28 -40 -25 -46 4 -7 2 -8 -4 -4 -7 4 -12 2 -12 -3 0 -17 -17 -13
-24 6 -4 10 -4 15 -1 11 4 -3 23 11 42 33 19 21 40 39 45 39 6 0 -4 -16 -21
-36z m871 -31 c53 -35 70 -53 50 -53 -4 0 -31 16 -59 35 -29 19 -54 35 -57 35
-2 0 -16 -19 -29 -43 -15 -26 -33 -44 -44 -44 -20 0 -53 25 -53 40 0 6 11 0
25 -13 21 -19 25 -21 25 -7 0 9 5 17 10 17 6 0 20 16 31 35 12 19 26 35 32 35
6 0 37 -17 69 -37z m1572 -175 c-16 -52 -24 -68 -35 -68 -6 0 -9 3 -7 8 2 4
10 24 18 45 15 40 36 52 24 15z m-274 -276 c-6 -37 -16 -86 -22 -109 -8 -31
-7 -60 2 -108 l13 -66 63 6 c70 8 119 0 108 -16 -3 -6 -15 -9 -25 -6 -21 6
-23 -4 -13 -65 6 -32 12 -39 43 -49 91 -30 141 -96 141 -188 0 -33 2 -61 5
-61 2 0 70 16 151 35 179 43 212 43 295 6 53 -24 87 -31 194 -40 72 -6 141
-14 155 -16 19 -4 42 7 95 48 39 29 69 58 68 64 -1 6 14 14 34 18 36 6 40 4
88 -49 113 -125 146 -179 166 -272 11 -48 17 -89 15 -92 -8 -8 -24 38 -36 108
-10 56 -20 75 -75 145 -88 111 -121 145 -142 145 -16 -1 -16 -3 4 -19 12 -10
39 -43 61 -74 22 -31 43 -53 47 -49 5 4 5 1 1 -5 -4 -7 4 -32 18 -56 31 -52
32 -67 7 -98 -19 -23 -19 -24 0 -72 22 -55 22 -57 10 -57 -4 0 -16 21 -26 48
-10 26 -26 52 -34 59 -9 7 -11 13 -5 13 6 0 23 9 38 21 l26 21 -32 56 c-52 93
-107 171 -129 182 -17 10 -26 6 -57 -22 -79 -71 -105 -81 -195 -75 l-82 6 100
-49 c55 -27 106 -47 113 -45 8 3 10 0 6 -7 -5 -8 -1 -9 12 -4 10 4 15 4 12 0
-11 -10 40 -46 53 -38 7 4 9 3 6 -3 -4 -6 12 -23 36 -38 23 -16 36 -30 29 -33
-6 -2 -41 17 -77 42 -73 53 -192 109 -207 99 -6 -3 -8 -2 -5 4 3 5 -26 25 -65
44 -64 31 -77 34 -152 32 -56 -2 -103 4 -154 18 -41 11 -80 18 -88 15 -8 -3
-13 -2 -9 3 7 12 -16 20 -35 11 -86 -39 -115 -59 -160 -111 -34 -39 -80 -76
-136 -109 -114 -68 -183 -102 -196 -98 -6 2 45 35 113 72 143 79 174 103 158
123 -9 10 -7 13 11 13 21 0 106 77 96 87 -7 7 -165 -36 -190 -52 -38 -25 -32
-2 8 28 29 22 34 33 38 79 5 43 2 59 -16 85 -31 44 -70 73 -119 88 l-42 12 -3
63 -3 62 -37 -6 c-20 -3 -44 -6 -53 -6 -12 0 -17 -10 -17 -37 0 -21 -1 -40 -3
-43 -1 -3 -7 -57 -13 -120 -7 -70 -15 -113 -21 -110 -5 3 -9 14 -8 25 20 199
6 465 -25 465 -8 0 -11 -7 -7 -19 3 -10 -1 -24 -10 -31 -22 -18 -31 -4 -18 29
l10 29 -128 22 c-70 12 -133 19 -140 14 -8 -4 -9 -3 -5 4 4 7 3 12 -2 12 -5 0
-49 7 -96 15 -48 9 -92 13 -97 10 -5 -4 -9 -2 -9 3 0 5 -39 14 -87 21 -85 12
-153 35 -153 53 0 12 8 10 35 -8 15 -10 37 -14 55 -12 16 3 30 2 30 -2 0 -7
189 -42 241 -45 14 -1 30 -4 35 -7 14 -9 364 -71 369 -66 3 2 12 40 20 84 20
97 25 114 32 96 3 -7 0 -43 -7 -80z m-424 16 c27 -17 44 -33 38 -35 -13 -5
-104 46 -104 58 0 15 14 10 66 -23z m-2305 -132 c112 -64 156 -96 130 -96 -6
0 -11 -12 -12 -27 -1 -25 -3 -23 -13 12 -12 37 -22 45 -121 102 -59 34 -113
59 -119 57 -6 -2 -30 -47 -53 -100 l-42 -96 39 -15 c38 -15 40 -18 40 -58 l0
-42 83 -17 c46 -10 89 -21 94 -24 7 -5 -19 -84 -72 -220 -46 -118 -81 -220
-79 -227 3 -7 -1 -15 -9 -18 -9 -3 -18 -19 -22 -36 -6 -30 -25 -53 -25 -32 0
6 -9 11 -20 11 -11 0 -20 7 -20 15 0 18 17 20 23 3 11 -31 27 6 207 469 8 20
4 23 -86 44 l-96 23 4 40 c4 38 2 40 -39 58 -48 21 -49 10 11 143 34 74 60
109 75 101 3 -2 58 -33 122 -70z m204 54 c3 -6 -1 -13 -9 -16 -9 -3 -14 -10
-11 -14 3 -5 1 -11 -5 -15 -11 -7 -12 0 -4 33 7 23 19 29 29 12z m2660 -57
c-5 -10 -10 -46 -13 -80 -5 -69 -22 -87 -22 -23 0 29 -4 40 -15 40 -8 0 -15 6
-15 14 0 9 7 12 19 9 14 -3 20 2 24 26 4 17 12 31 18 31 7 0 8 -7 4 -17z
m-1964 -6 c-13 -16 -43 -99 -37 -104 2 -2 18 8 35 23 18 14 34 24 37 21 6 -6
-25 -37 -75 -75 -17 -13 -28 -28 -25 -34 4 -7 2 -8 -4 -4 -11 7 -38 -32 -34
-47 1 -5 -2 -6 -6 -3 -5 3 -16 -2 -24 -12 -27 -30 -87 -155 -81 -165 3 -6 1
-7 -5 -3 -6 3 -13 -3 -17 -14 -3 -11 -11 -20 -16 -20 -9 0 -109 -69 -109 -76
0 -2 13 -1 28 2 27 6 28 5 24 -30 -2 -20 -9 -39 -14 -42 -6 -4 -8 5 -3 25 6
30 6 31 -26 24 -23 -4 -30 -3 -25 5 4 7 5 12 2 12 -14 0 -149 -204 -149 -226
0 -7 -3 -11 -7 -9 -9 6 -44 -57 -70 -127 -23 -61 -54 -107 -65 -96 -4 3 2 19
14 35 11 15 30 55 42 88 12 33 45 96 74 140 28 44 64 102 80 128 19 34 54 68
115 113 85 62 137 124 124 146 -4 6 -3 8 3 5 12 -8 56 81 47 95 -4 6 -3 8 3 5
11 -7 49 42 45 56 -1 5 2 6 6 3 14 -8 40 25 56 72 l15 41 -25 -9 c-31 -12 -34
-12 -34 0 0 5 12 13 27 16 15 4 36 18 46 31 10 13 23 23 29 23 7 0 7 -4 -1
-13z m-728 -27 c-3 -11 -9 -20 -14 -20 -11 0 -11 3 -3 24 9 23 23 20 17 -4z
m607 -39 c0 -5 -15 -12 -32 -16 -27 -6 -144 -41 -500 -151 -10 -3 -18 -1 -18
5 0 5 14 12 30 16 17 4 28 11 25 16 -4 5 0 6 8 3 8 -3 108 24 223 60 264 81
264 81 264 67z m-1010 -147 c0 -2 -7 -4 -15 -4 -8 0 -15 4 -15 10 0 5 7 7 15
4 8 -4 15 -8 15 -10z m450 -19 c0 -7 -37 -21 -80 -30 -45 -9 -29 9 20 23 41
12 60 14 60 7z m-64 -302 c-11 -11 -19 6 -11 24 8 17 8 17 12 0 3 -10 2 -21
-1 -24z m156 -78 c0 -5 -5 -11 -11 -13 -6 -2 -11 4 -11 13 0 9 5 15 11 13 6
-2 11 -8 11 -13z m-189 -11 c3 -4 -1 -13 -9 -21 -8 -9 -13 -22 -10 -30 3 -8 1
-11 -4 -8 -5 3 -15 -15 -21 -40 -11 -44 -29 -62 -29 -29 0 21 50 134 60 134 4
0 9 -3 13 -6z m386 -53 c6 -19 9 -36 7 -39 -8 -7 -31 21 -32 38 -1 8 -4 26 -9
40 -6 22 -5 23 8 10 8 -8 19 -30 26 -49z m2031 39 c0 -5 -2 -10 -4 -10 -3 0
-8 5 -11 10 -3 6 -1 10 4 10 6 0 11 -4 11 -10z m-2586 -35 c4 -10 -1 -15 -14
-15 -11 0 -20 7 -20 15 0 8 6 15 14 15 8 0 16 -7 20 -15z m62 -20 c18 -14 17
-14 -13 -15 -25 0 -31 4 -27 15 8 19 15 19 40 0z m252 -42 c-16 -38 -28 -51
-28 -29 0 22 18 56 30 56 6 0 5 -12 -2 -27z m-353 -3 c3 -5 -1 -10 -9 -10 -9
0 -16 5 -16 10 0 6 4 10 9 10 6 0 13 -4 16 -10z m643 -35 c14 -29 17 -42 8
-39 -11 4 -46 65 -46 79 0 18 20 -2 38 -40z m1992 28 c0 -4 -17 -24 -37 -45
l-37 -38 60 0 c47 0 67 5 97 26 43 29 63 25 26 -5 -42 -34 -132 -68 -137 -51
-5 13 -48 13 -73 0 -10 -6 -19 -19 -19 -30 0 -10 -4 -22 -10 -25 -6 -3 -10 4
-10 18 0 15 22 48 61 90 56 61 79 79 79 60z m230 -38 c0 -12 -98 -157 -150
-220 -51 -64 -60 -82 -100 -210 -31 -99 -47 -174 -56 -260 -33 -295 -58 -485
-64 -485 -12 0 -20 142 -10 161 6 10 10 29 10 43 0 13 6 27 13 29 7 3 5 6 -5
6 -18 1 -26 21 -9 21 15 0 32 99 30 177 -1 39 1 75 5 81 3 5 -9 20 -27 32 -18
12 -52 55 -75 95 -93 160 -135 201 -330 324 -135 85 -157 96 -202 106 -19 4
-56 23 -81 41 -71 51 -87 47 -162 -43 -36 -42 -70 -93 -77 -114 -10 -28 -22
-41 -51 -55 -22 -9 -43 -22 -48 -28 -7 -8 24 -49 93 -126 57 -63 107 -128 113
-145 9 -29 13 -30 79 -36 93 -8 153 -26 189 -54 40 -32 25 -43 -17 -13 -37 28
-134 53 -188 49 -19 -2 -36 -4 -38 -5 -1 -2 4 -18 12 -37 18 -46 30 -139 16
-139 -5 0 -10 1 -10 3 0 2 -5 30 -11 63 -19 108 -58 188 -124 261 -56 61 -62
65 -81 53 -12 -7 -33 -38 -48 -68 -17 -35 -31 -52 -40 -49 -8 3 -19 0 -25 -6
-6 -6 -11 -8 -11 -4 0 4 -12 -3 -27 -17 -39 -37 -40 -24 -2 23 27 31 37 37 51
30 14 -8 21 -2 39 33 12 24 33 56 48 72 14 16 20 25 12 21 -9 -5 -12 -4 -8 2
3 5 -9 24 -27 42 l-34 33 -20 -20 c-11 -11 -28 -46 -38 -76 -10 -31 -22 -56
-27 -56 -5 0 -6 8 -2 18 3 9 12 37 18 61 7 24 23 53 39 66 21 18 24 24 13 29
-23 8 -18 25 5 19 11 -3 20 -10 20 -15 0 -5 23 3 50 18 38 21 55 38 69 68 10
23 35 61 55 86 21 25 47 57 59 72 31 39 89 38 143 -1 21 -16 59 -34 84 -41 55
-14 280 -152 373 -229 67 -55 102 -100 166 -213 32 -57 76 -102 91 -93 4 3 15
47 24 97 28 154 78 293 102 284 15 -6 90 84 147 175 36 59 57 83 57 64z
m-2053 -47 c-3 -8 -6 -5 -6 6 -1 11 2 17 5 13 3 -3 4 -12 1 -19z m-517 -46 c0
-21 -49 -127 -60 -130 -7 -3 -11 -1 -9 4 2 5 15 37 29 72 22 54 40 79 40 54z
m4053 -62 c43 -55 49 -69 93 -232 29 -109 33 -136 28 -195 -4 -48 -1 -86 10
-129 19 -72 19 -74 7 -74 -16 0 -41 127 -41 207 0 54 -11 120 -34 215 -31 125
-38 143 -80 195 -24 31 -42 61 -39 66 6 10 5 11 56 -53z m-3813 29 c0 -16 -33
-69 -43 -69 -5 0 -7 3 -5 8 3 4 11 22 18 40 14 31 30 43 30 21z m-440 -23 c0
-25 -15 -37 -37 -28 -14 4 -18 34 -6 45 3 4 15 7 25 7 12 0 18 -7 18 -24z
m911 4 c9 0 56 -19 105 -41 97 -45 206 -79 254 -79 16 0 30 -4 30 -10 0 -14
-56 -12 -116 4 l-52 14 -12 -112 c-9 -82 -9 -127 -1 -170 13 -72 14 -86 2 -86
-4 0 -14 39 -21 88 -9 67 -10 105 -1 159 19 123 18 128 -36 151 -76 32 -174
63 -217 68 -50 6 -60 14 -18 14 17 0 34 5 38 11 4 8 9 8 17 0 6 -6 18 -11 28
-11z m-1019 -6 c9 -9 -7 -57 -20 -62 -8 -2 -12 9 -12 32 0 33 15 47 32 30z
m-112 -14 c0 -5 -2 -10 -4 -10 -3 0 -8 5 -11 10 -3 6 -1 10 4 10 6 0 11 -4 11
-10z m782 -18 c-16 -15 -32 -37 -36 -50 -6 -19 -26 -32 -26 -17 0 15 41 84 52
88 33 13 37 5 10 -21z m1668 -2 c0 -5 -7 -10 -16 -10 -8 0 -12 5 -9 10 3 6 10
10 16 10 5 0 9 -4 9 -10z m190 -40 c0 -16 -4 -30 -10 -30 -5 0 -10 14 -10 30
0 17 5 30 10 30 6 0 10 -13 10 -30z m435 11 c-25 -5 -36 -19 -68 -83 -33 -65
-43 -77 -68 -80 -29 -5 -45 3 -32 16 3 3 16 6 28 6 16 0 26 9 35 30 7 16 25
50 41 75 25 39 33 45 61 44 l33 -1 -30 -7z m-2941 -67 c9 -33 5 -37 -25 -25
-16 6 -18 10 -7 10 11 1 15 7 11 21 -3 11 -1 20 5 20 5 0 13 -12 16 -26z m586
11 c0 -3 -7 -22 -15 -42 l-15 -36 79 -142 c78 -141 80 -144 89 -239 7 -70 6
-133 -4 -229 -7 -73 -14 -138 -14 -144 0 -7 19 -25 42 -40 24 -14 38 -28 32
-30 -19 -6 -84 38 -89 61 -10 50 -11 86 -2 86 5 0 7 20 5 45 -2 25 0 45 4 45
5 0 8 29 8 64 0 70 -6 76 -77 76 -17 0 -35 5 -39 12 -5 8 9 10 54 5 l61 -7 -6
72 c-5 60 -13 84 -50 149 -23 42 -43 79 -43 82 0 3 -16 33 -35 66 -40 68 -42
81 -18 122 15 26 33 38 33 24z m-320 -55 c0 -6 -7 -27 -16 -48 -16 -38 -84
-251 -84 -264 0 -5 15 -15 33 -23 l32 -15 -37 4 -36 4 -22 -89 c-12 -49 -20
-96 -16 -104 3 -9 2 -14 -3 -11 -11 7 -25 -80 -15 -96 5 -7 3 -8 -6 -3 -10 6
-12 0 -8 -23 2 -17 1 -29 -4 -26 -4 3 -8 -1 -8 -9 0 -8 12 -18 27 -21 14 -4
39 -21 55 -38 15 -16 28 -25 28 -19 0 6 5 11 10 11 6 0 10 -11 10 -25 0 -14
-4 -25 -8 -25 -8 0 -32 -256 -32 -341 0 -28 6 -51 14 -59 17 -13 70 -148 80
-200 3 -20 2 -57 -3 -83 -8 -43 -6 -51 24 -99 18 -29 39 -72 46 -96 10 -33 23
-51 58 -74 24 -17 50 -31 57 -31 7 0 12 -5 11 -10 -3 -13 107 -69 138 -71 13
0 21 -4 19 -8 -2 -3 12 -12 31 -18 19 -6 35 -16 35 -21 0 -12 -2 -12 -60 11
-28 11 -56 17 -62 14 -6 -4 -8 -2 -5 3 4 7 -7 16 -26 22 -44 16 -147 79 -178
110 -14 14 -31 47 -38 73 -14 49 -53 112 -64 102 -3 -3 -4 34 -2 82 3 78 0
100 -26 173 -16 47 -38 95 -50 107 -20 21 -21 31 -17 118 4 103 3 106 -52 106
-16 0 -32 5 -36 12 -5 8 6 10 43 5 l51 -6 6 37 c3 20 6 67 6 103 0 51 -4 70
-18 82 -10 10 -22 14 -27 10 -4 -5 -5 -2 0 6 6 11 3 13 -14 8 -13 -3 -20 -3
-17 0 4 4 -43 19 -104 33 -61 15 -113 30 -117 34 -16 15 9 13 94 -8 l92 -24
11 55 c7 30 9 61 6 69 -3 9 -1 12 4 9 6 -3 10 3 10 14 0 11 14 76 31 145 16
69 27 131 23 138 -4 6 -3 8 3 5 5 -3 24 41 42 101 38 126 63 192 74 192 4 0 7
-5 7 -10z m-540 -80 c0 -5 -4 -10 -10 -10 -5 0 -10 5 -10 10 0 6 5 10 10 10 6
0 10 -4 10 -10z m1599 -132 c-11 -29 -27 -63 -35 -75 -14 -22 -13 -23 16 -23
16 0 30 -5 30 -11 0 -7 -12 -10 -32 -7 -44 7 -56 2 -74 -34 -8 -16 -18 -27
-21 -25 -7 8 36 85 68 124 15 17 32 47 39 67 6 20 16 36 21 36 5 0 -1 -24 -12
-52z m81 -58 c8 -5 11 -12 8 -16 -10 -9 -38 3 -38 16 0 12 10 13 30 0z m220
-35 c0 -3 -21 -15 -46 -26 -28 -14 -55 -36 -69 -59 -13 -21 -35 -46 -49 -56
-20 -14 -29 -32 -35 -72 -11 -74 -25 -79 -18 -7 5 52 11 64 41 92 19 18 42 46
50 62 18 35 126 92 126 66z m1062 -107 c-20 -72 -19 -138 1 -138 5 0 3 -8 -6
-18 -10 -10 -14 -22 -10 -26 4 -4 0 -4 -10 0 -14 5 -17 0 -18 -27 -1 -58 -5
-75 -21 -98 -10 -15 -15 -35 -11 -55 2 -17 0 -42 -5 -56 -8 -21 -10 -15 -10
34 0 35 6 72 15 89 12 23 12 35 4 54 -17 36 -14 51 16 81 21 21 26 35 24 64
-1 21 5 64 14 95 22 80 25 87 31 80 3 -3 -3 -38 -14 -79z m-2387 42 c3 -5 -1
-10 -9 -10 -9 0 -16 5 -16 10 0 6 4 10 9 10 6 0 13 -4 16 -10z m139 -118 c80
-67 100 -92 77 -92 -6 0 -12 4 -15 9 -3 5 -15 7 -26 4 -21 -6 -29 12 -8 19 6
2 -20 30 -58 62 -65 56 -90 83 -66 75 6 -2 49 -37 96 -77z m1209 -34 c-3 -46
-12 -98 -19 -117 -12 -30 -12 -36 1 -51 17 -19 19 -30 5 -30 -5 0 -17 11 -25
24 -14 20 -14 29 -4 48 7 12 16 60 20 105 7 75 13 103 24 103 3 0 2 -37 -2
-82z m-659 61 c2 -2 -1 -26 -7 -52 -8 -38 -14 -46 -26 -41 -9 4 -27 7 -41 7
-14 -1 -33 3 -42 8 -19 10 -25 49 -8 49 6 0 10 10 10 21 0 20 4 21 55 17 30
-3 57 -7 59 -9z m328 -6 l-34 -16 33 -11 c31 -11 52 -36 30 -36 -6 0 -11 -9
-11 -19 0 -11 -9 -23 -20 -26 -11 -3 -20 -13 -20 -21 0 -16 -9 -18 -30 -4 -13
9 -12 12 5 25 11 8 28 22 38 32 18 17 17 18 -13 31 -22 9 -30 18 -26 28 3 9 6
20 6 25 0 5 17 9 38 9 l37 0 -33 -17z m-99 -4 c20 -5 37 -15 37 -20 0 -10 -16
-7 -67 12 -22 8 -31 19 -15 19 4 0 24 -5 45 -11z m-63 -89 c0 -5 -8 -10 -18
-10 -10 0 -28 -7 -40 -16 -32 -22 -41 -9 -11 15 25 21 69 28 69 11z m366 -16
c-3 -9 -9 -33 -12 -55 -4 -25 -12 -39 -21 -39 -8 0 -12 6 -9 13 2 6 10 31 17
55 6 23 16 42 21 42 6 0 7 -7 4 -16z m-2032 -50 c185 -57 259 -107 347 -238
43 -64 45 -66 127 -92 45 -15 82 -31 82 -36 0 -11 2 -11 -65 12 -75 26 -78 25
-71 -7 l7 -28 -21 25 c-11 14 -20 29 -20 33 0 20 -107 162 -151 201 -49 44
-161 96 -248 115 -24 5 -51 17 -60 27 -15 16 -15 16 3 10 11 -4 43 -14 70 -22z
m1554 13 c11 5 13 3 7 -6 -4 -8 -2 -17 6 -21 8 -6 0 -11 -25 -15 -45 -9 -53
-3 -37 31 8 19 15 24 23 16 6 -6 17 -8 26 -5z m1653 -12 c-1 -15 -24 -12 -29
3 -3 9 2 13 12 10 10 -1 17 -7 17 -13z m-661 -75 c0 -33 -3 -41 -10 -30 -5 8
-10 35 -10 60 0 33 3 41 10 30 5 -8 10 -35 10 -60z m145 11 c-10 -10 -34 10
-29 24 6 14 8 13 19 -2 8 -10 12 -20 10 -22z m-39 -82 l28 -29 -32 -33 c-18
-17 -32 -27 -32 -21 0 7 7 17 15 24 20 16 19 30 -5 60 -13 16 -19 39 -19 65
l1 40 8 -38 c4 -21 20 -51 36 -68z m-706 -48 c0 -27 -5 -51 -10 -53 -6 -2 21
-14 60 -27 38 -13 70 -28 70 -33 0 -12 -12 -10 -85 17 -60 23 -66 24 -63 8 2
-13 18 -21 51 -27 26 -5 47 -13 47 -18 0 -4 -6 -8 -12 -8 -22 0 -114 27 -134
38 -18 11 -18 11 4 12 13 0 22 6 22 15 0 8 -4 15 -10 15 -5 0 -10 5 -10 11 0
6 7 9 14 6 15 -6 19 2 31 61 10 49 25 38 25 -17z m470 29 c0 -5 -7 -10 -16
-10 -8 0 -12 5 -9 10 3 6 10 10 16 10 5 0 9 -4 9 -10z m-680 -70 c0 -5 -4 -10
-10 -10 -5 0 -10 5 -10 10 0 6 5 10 10 10 6 0 10 -4 10 -10z m386 -25 c6 -24
0 -44 -10 -34 -11 11 -17 59 -7 59 6 0 13 -11 17 -25z m1003 -62 c-6 -18 -7
-42 -4 -54 10 -30 -13 -67 -45 -74 -26 -6 -27 -8 -20 -42 5 -19 6 -41 4 -48
-4 -9 12 -14 55 -17 55 -4 81 -12 70 -22 -2 -2 -33 0 -67 5 -35 5 -68 6 -73 3
-5 -3 -9 -31 -9 -63 0 -45 -7 -75 -31 -126 -29 -60 -31 -73 -26 -138 3 -40 1
-97 -5 -127 -8 -48 -6 -63 12 -109 28 -71 17 -78 -13 -9 -30 67 -57 83 -58 35
0 -25 -9 -39 -43 -67 -25 -20 -47 -48 -52 -65 -8 -29 -8 -29 -11 12 -4 42 -4
42 -24 22 -16 -16 -33 -19 -103 -19 -47 0 -88 -5 -91 -10 -4 -6 -10 -8 -15 -5
-11 7 -20 -20 -20 -57 0 -25 3 -29 18 -23 34 14 92 18 92 6 0 -6 -17 -11 -39
-11 -23 0 -48 -8 -64 -20 -14 -11 -27 -20 -30 -20 -5 0 0 71 9 129 l5 34 93
-5 c67 -4 100 -1 117 8 24 13 24 13 -8 14 -18 0 -33 5 -33 10 0 6 31 10 73 10
65 0 76 3 96 24 30 32 24 59 -14 67 l-30 6 33 8 c29 7 32 11 32 44 0 60 -12
69 -58 43 -48 -27 -48 -27 -55 -3 -6 25 2 34 20 20 17 -15 81 32 88 64 4 23
25 161 25 171 0 3 -20 6 -45 6 -45 0 -95 17 -95 32 0 11 11 10 40 -7 14 -8 42
-14 62 -15 41 0 40 -4 58 134 8 60 7 81 -1 87 -9 5 -8 12 4 24 10 9 17 26 18
38 0 12 5 31 10 42 6 13 7 1 3 -37 -5 -44 -3 -58 7 -58 9 0 8 -4 -3 -12 -11
-9 -18 -37 -22 -89 -6 -74 -16 -152 -34 -274 -5 -33 -8 -71 -7 -85 2 -14 4
-40 4 -57 1 -22 6 -33 16 -33 21 0 29 42 21 124 -6 67 -4 78 24 140 24 54 30
82 30 136 0 53 4 69 16 74 13 5 15 15 9 55 -6 48 -6 49 24 59 37 13 38 16 45
107 3 39 6 77 7 85 0 8 5 2 10 -15 5 -19 5 -42 -2 -62z m-166 27 c-5 -19 -23
-29 -23 -12 0 7 20 32 26 32 1 0 0 -9 -3 -20z m-147 -7 c8 -11 13 -42 12 -83
l-2 -65 -3 54 c-2 30 -11 64 -19 75 -24 35 -13 52 12 19z m459 7 c3 -5 -3 -10
-15 -10 -12 0 -18 5 -15 10 3 6 10 10 15 10 5 0 12 -4 15 -10z m-201 -26 c25
-10 19 -31 -9 -31 -18 0 -25 5 -25 18 0 20 8 23 34 13z m-1014 -14 c0 -5 -4
-10 -10 -10 -5 0 -10 5 -10 10 0 6 5 10 10 10 6 0 10 -4 10 -10z m1130 0 c0
-5 -4 -10 -10 -10 -5 0 -10 5 -10 10 0 6 5 10 10 10 6 0 10 -4 10 -10z m-731
-31 c-12 -24 -29 -25 -29 -1 0 24 8 32 26 25 10 -4 11 -10 3 -24z m-561 15
c24 -7 31 -24 9 -24 -15 0 -57 29 -42 30 6 0 20 -3 33 -6z m1522 -14 c0 -5 -4
-10 -10 -10 -5 0 -10 5 -10 10 0 6 5 10 10 10 6 0 10 -4 10 -10z m-1404 -12
c4 -6 2 -14 -4 -16 -7 -2 -12 -10 -12 -18 0 -8 -4 -14 -10 -14 -11 0 -12 6 -4
38 7 24 19 28 30 10z m-126 -7 c0 -6 -4 -13 -10 -16 -5 -3 -10 1 -10 9 0 9 5
16 10 16 6 0 10 -4 10 -9z m395 -10 c-4 -15 0 -21 17 -24 17 -3 14 -5 -11 -6
-26 -1 -32 2 -27 15 3 9 6 20 6 25 0 5 5 9 11 9 6 0 8 -8 4 -19z m-160 -11 c3
-5 1 -10 -4 -10 -6 0 -11 5 -11 10 0 6 2 10 4 10 3 0 8 -4 11 -10z m1087 -42
c-6 -6 -15 -8 -19 -4 -4 4 -1 11 7 16 8 5 17 7 19 4 3 -2 -1 -10 -7 -16z m137
-3 c68 -12 87 -13 99 -3 13 11 15 10 9 -12 -4 -14 -8 -52 -9 -85 l-1 -60 -6
64 -6 65 -102 19 c-57 10 -103 23 -103 29 0 5 8 7 18 4 9 -3 55 -12 101 -21z
m-1328 -102 c-18 -63 -19 -74 -6 -148 7 -44 23 -118 35 -165 25 -100 23 -119
-30 -229 -22 -46 -38 -87 -34 -92 3 -5 0 -9 -6 -9 -15 0 -80 -142 -80 -174 0
-14 -5 -28 -12 -32 -30 -19 6 94 76 235 41 83 78 166 81 184 4 20 -2 66 -15
117 -13 47 -28 123 -34 170 -11 76 -10 92 7 150 27 93 29 99 34 78 2 -9 -5
-47 -16 -85z m-1537 -53 c11 -72 24 -122 34 -134 16 -18 16 -19 0 -13 -12 4
-18 1 -18 -9 0 -8 -5 -12 -11 -8 -6 3 -8 15 -6 26 3 11 -3 70 -14 131 -21 123
-24 162 -10 137 4 -8 16 -67 25 -130z m-739 49 c69 -17 125 -35 125 -40 0 -12
11 -13 -140 21 -73 17 -134 30 -136 30 -2 0 -4 5 -4 10 0 15 20 13 155 -21z
m3122 17 c-3 -8 -1 -16 4 -18 13 -4 3 -46 -16 -72 -23 -30 -29 -12 -10 28 9
19 14 40 10 45 -3 6 -3 16 0 21 9 15 18 12 12 -4z m-262 -45 c7 -12 -12 -24
-25 -16 -11 7 -4 25 10 25 5 0 11 -4 15 -9z m710 -17 c28 -8 85 -14 128 -14
50 0 76 -4 72 -10 -14 -22 -200 -5 -279 26 -25 10 -19 26 7 18 12 -4 45 -13
72 -20z m-1172 -44 c-15 -24 -29 -37 -31 -31 -2 7 8 31 24 54 15 23 29 36 31
30 2 -6 -8 -30 -24 -53z m-2212 17 c3 -4 19 -9 35 -10 16 -1 31 -4 34 -7 7 -7
76 -46 137 -77 63 -32 73 -63 42 -124 l-20 -40 27 -82 c16 -45 32 -84 36 -85
5 -2 6 -8 2 -13 -16 -27 45 -126 70 -112 6 3 8 3 4 -2 -7 -8 78 -80 133 -112
30 -18 49 -72 49 -140 0 -31 6 -42 29 -58 23 -15 37 -40 62 -110 17 -49 33
-91 34 -93 2 -2 20 5 42 16 50 25 134 49 205 57 54 7 62 5 125 -30 40 -22 69
-33 71 -26 2 6 8 11 14 11 6 0 8 -6 5 -14 -8 -20 39 -27 75 -12 15 7 25 16 21
21 -5 4 -2 5 5 1 19 -11 55 3 44 17 -19 24 -22 64 -7 77 13 11 15 7 15 -23 0
-32 7 -42 61 -87 56 -46 71 -55 92 -51 5 1 6 -2 3 -7 -2 -4 18 -20 45 -35 27
-16 49 -33 49 -39 0 -15 -18 -6 -117 58 -48 32 -92 57 -96 56 -5 -1 -6 2 -3 7
4 5 0 11 -6 14 -17 5 -49 -3 -44 -12 2 -3 -6 -7 -17 -8 -139 -14 -142 -14
-159 -44 l-17 -29 37 -9 c20 -5 66 -15 102 -22 36 -7 85 -22 110 -34 32 -16
70 -24 135 -28 50 -3 101 -8 115 -13 l25 -7 -28 30 c-23 25 -25 31 -13 36 9 4
15 3 13 -2 -1 -4 18 -27 43 -52 51 -49 220 -297 220 -322 0 -9 14 -59 30 -110
17 -52 30 -110 30 -131 0 -20 3 -36 8 -36 4 0 7 -17 8 -37 2 -81 28 -303 35
-303 5 0 6 -7 3 -14 -7 -19 47 -98 79 -115 14 -8 33 -11 41 -8 9 4 16 2 16 -3
0 -4 35 -11 78 -14 92 -6 112 -9 107 -14 -2 -3 5 -22 15 -43 22 -43 24 -49 11
-49 -5 0 -14 14 -21 30 -7 17 -22 37 -34 45 -20 15 -66 21 -66 9 0 -13 43
-149 49 -154 3 -3 7 -18 8 -35 1 -16 7 -31 12 -33 5 -2 8 -9 5 -15 -7 -20 31
-122 45 -119 7 1 10 -2 7 -7 -3 -5 8 -26 24 -46 17 -21 31 -45 31 -54 5 -47 3
-91 -3 -91 -41 0 42 -285 107 -365 21 -25 33 -45 27 -45 -6 0 -14 5 -17 10 -4
6 -12 7 -18 4 -7 -4 -9 -4 -5 1 4 4 -3 20 -16 36 -13 16 -45 90 -70 166 l-46
139 16 53 c8 29 13 65 9 79 -8 32 -40 74 -50 64 -3 -4 -6 -2 -4 3 4 17 -12 45
-22 39 -5 -3 -8 -2 -7 3 4 12 -44 173 -51 173 -3 0 -7 14 -7 32 -1 18 -6 34
-13 36 -6 2 -9 8 -6 13 3 4 -1 33 -10 63 l-16 54 -52 4 c-29 2 -54 3 -56 2 -2
-2 2 -18 9 -36 18 -52 32 -147 30 -216 -1 -35 2 -75 5 -90 7 -29 110 -120 129
-114 6 2 8 1 5 -3 -4 -3 -1 -30 7 -58 8 -29 12 -63 10 -77 -3 -14 -7 -42 -11
-64 -3 -21 -9 -35 -13 -31 -10 10 -8 79 2 87 5 3 4 30 -4 65 -12 53 -18 62
-76 111 -35 29 -64 60 -64 68 0 8 -5 14 -11 14 -5 0 -7 5 -4 11 4 5 0 18 -9
28 -43 48 -98 291 -66 291 6 0 10 -22 10 -49 0 -51 43 -206 60 -216 6 -4 10
25 10 75 0 45 -3 79 -7 77 -5 -3 -8 9 -9 27 0 17 -8 47 -17 65 -9 19 -17 39
-17 46 0 6 -12 22 -26 36 -53 49 -71 97 -78 204 -4 54 -10 102 -14 105 -4 3
-9 39 -11 80 -2 41 -6 80 -9 85 -4 6 -5 20 -3 33 3 26 -18 94 -27 88 -4 -2 -8
6 -8 17 -4 69 -29 144 -67 201 -23 35 -51 77 -62 94 -10 17 -24 28 -30 25 -5
-4 -7 -3 -3 2 4 4 -6 27 -22 50 -27 39 -34 43 -97 55 -37 7 -106 16 -153 20
-47 4 -97 12 -111 18 -14 5 -71 22 -127 37 l-101 27 -56 -21 c-63 -24 -75 -25
-75 -11 0 6 7 10 15 10 31 0 110 49 128 78 l17 30 -32 20 c-18 11 -55 27 -81
37 -48 18 -50 18 -144 -5 -77 -19 -105 -31 -149 -65 -106 -82 -139 -151 -119
-247 4 -21 11 -38 17 -38 5 0 6 -4 3 -10 -12 -19 -35 -10 -35 14 0 26 -33 41
-83 37 -34 -3 -97 17 -97 31 0 6 8 7 18 3 9 -4 32 -9 50 -11 17 -2 48 -6 67
-8 l35 -5 0 44 c0 59 15 91 68 147 l45 46 -33 96 c-27 77 -40 101 -67 122 -28
21 -33 31 -33 67 0 86 -14 106 -117 182 -53 39 -100 69 -105 67 -4 -1 -7 1 -6
5 4 15 -24 83 -33 83 -6 0 -7 4 -4 10 8 13 -24 120 -36 120 -6 0 -8 4 -5 9 4
5 1 22 -4 37 -9 22 -7 37 10 76 12 27 19 57 16 66 -6 17 -114 79 -129 74 -5
-1 -6 2 -2 7 5 9 -69 35 -158 57 -15 3 -30 10 -33 16 -7 11 68 7 77 -5z m3149
-19 c0 -5 -4 -8 -10 -8 -5 0 -10 10 -10 23 0 18 2 19 10 7 5 -8 10 -18 10 -22z
m-576 -13 c8 -22 148 -21 170 1 15 14 18 14 33 -1 16 -16 17 -16 30 1 7 9 16
14 20 10 4 -4 1 -11 -6 -15 -9 -6 -10 -11 -2 -15 6 -4 11 -16 11 -27 0 -12 7
-19 19 -19 11 0 23 -4 26 -10 12 -19 -32 -10 -51 11 -12 14 -25 18 -41 14 -16
-4 -23 -1 -23 10 0 10 -10 15 -30 15 -20 0 -30 -5 -30 -15 0 -8 -8 -15 -17
-15 -23 0 -66 -75 -58 -99 3 -10 -3 -29 -14 -43 -15 -19 -17 -28 -9 -36 9 -9
8 -12 -4 -12 -22 0 -30 26 -12 40 16 14 19 60 4 60 -18 0 -11 22 8 27 10 2 28
24 40 49 l22 44 -40 0 c-32 0 -48 -7 -79 -35 -21 -19 -41 -35 -45 -35 -14 0 2
44 19 50 19 7 19 7 0 17 -16 9 -17 13 -6 27 17 20 57 21 65 1z m69 8 c-7 -2
-19 -2 -25 0 -7 3 -2 5 12 5 14 0 19 -2 13 -5z m60 0 c-7 -2 -21 -2 -30 0 -10
3 -4 5 12 5 17 0 24 -2 18 -5z m187 -3 c0 -5 -7 -10 -15 -10 -8 0 -15 5 -15
10 0 6 7 10 15 10 8 0 15 -4 15 -10z m-260 -49 c0 -8 -52 -23 -59 -16 -1 2 0
8 4 14 8 13 55 15 55 2z m-1530 -5 c0 -2 3 -11 6 -20 4 -11 0 -16 -12 -16 -9
0 -26 -8 -36 -17 -18 -16 -18 -17 9 -29 l28 -12 -33 -12 c-19 -7 -54 -23 -80
-36 -25 -13 -48 -22 -50 -20 -9 10 20 45 32 40 8 -3 31 4 53 15 21 11 31 20
22 21 -9 0 -19 9 -22 20 -4 15 0 20 16 20 16 0 18 3 9 9 -11 7 -11 9 2 14 9 4
23 4 31 1 8 -4 15 -1 15 6 0 6 -4 9 -9 5 -5 -3 -12 -1 -16 5 -3 5 3 10 14 10
12 0 21 -2 21 -4z m-1310 -36 c0 -5 -21 -26 -46 -47 -53 -44 -89 -101 -99
-158 -4 -21 -13 -52 -21 -67 -8 -15 -14 -31 -14 -37 0 -25 294 -246 313 -234
6 3 7 2 4 -4 -3 -5 11 -20 33 -32 49 -27 59 -41 26 -39 -14 1 -23 4 -20 7 2 2
-42 35 -98 71 -57 37 -147 104 -201 149 -84 70 -96 84 -83 94 21 16 46 79 46
116 0 16 5 33 11 36 6 4 8 14 4 23 -3 9 -3 14 0 10 3 -3 33 23 67 58 59 62 78
75 78 54z m2026 -32 c-7 -45 -13 -58 -25 -58 -4 0 -3 23 3 50 12 60 31 68 22
8z m749 32 c-3 -5 -10 -10 -16 -10 -5 0 -9 5 -9 10 0 6 7 10 16 10 8 0 12 -4
9 -10z m-665 -35 c18 -19 20 -25 8 -25 -9 0 -23 11 -32 25 -9 14 -13 25 -8 25
5 0 19 -11 32 -25z m810 5 c0 -5 -4 -10 -10 -10 -5 0 -10 5 -10 10 0 6 5 10
10 10 6 0 10 -4 10 -10z m-183 -32 c-3 -7 -5 -2 -5 12 0 14 2 19 5 13 2 -7 2
-19 0 -25z m923 12 c0 -5 -6 -10 -14 -10 -7 0 -28 -3 -45 -6 -19 -4 -31 -2
-31 4 0 10 24 16 73 21 9 0 17 -3 17 -9z m65 0 c-3 -5 -17 -10 -31 -10 -13 0
-24 5 -24 10 0 6 14 10 31 10 17 0 28 -4 24 -10z m-3616 -46 c2 -2 2 -7 -2
-10 -9 -9 -107 7 -107 17 0 9 99 2 109 -7z m1530 0 c9 -9 -6 -11 -36 -7 -18 3
-33 10 -33 15 0 9 58 2 69 -8z m1231 6 c0 -5 -4 -10 -10 -10 -5 0 -10 5 -10
10 0 6 5 10 10 10 6 0 10 -4 10 -10z m-430 -39 c0 -24 -3 -28 -20 -24 -11 3
-18 8 -16 12 1 3 6 14 9 24 10 27 27 20 27 -12z m-640 -37 c0 -2 -3 -4 -8 -4
-12 0 -33 40 -26 51 5 8 34 -32 34 -47z m487 20 c-9 -10 -38 16 -31 28 4 6 13
4 22 -6 9 -8 13 -19 9 -22z m734 14 c30 -33 23 -47 -15 -32 -9 3 -16 17 -16
30 0 30 7 30 31 2z m-285 -11 c-4 -16 1 -26 14 -35 27 -17 25 -30 -5 -38 -24
-6 -25 -9 -19 -55 5 -38 3 -49 -7 -50 -8 -1 13 -5 46 -9 42 -5 68 -3 87 7 34
16 48 17 48 0 0 -15 -7 -16 -119 -23 -90 -6 -131 -23 -131 -55 0 -11 5 -19 11
-19 6 0 9 -6 6 -12 -2 -7 0 -24 5 -38 7 -20 11 -22 18 -10 5 8 7 23 4 33 -3 9
-1 17 4 17 14 0 21 -35 10 -54 -5 -9 -6 -25 -3 -36 5 -16 15 -20 46 -20 l39 0
0 -45 c0 -25 -4 -45 -10 -45 -5 0 -10 17 -10 38 0 37 -1 38 -29 34 -16 -2 -32
1 -36 8 -5 8 -14 5 -31 -11 -13 -12 -27 -20 -30 -16 -4 4 3 14 15 24 l22 18
-21 42 c-21 45 -28 133 -9 133 14 0 6 25 -9 26 -7 1 -16 2 -22 3 -11 1 -14 31
-2 31 4 -1 18 -7 32 -15 36 -21 40 -19 40 20 0 19 5 35 11 35 7 0 9 12 7 30
-3 17 -1 33 4 36 4 3 8 21 8 40 0 19 5 34 11 34 7 0 9 -9 5 -23z m-3206 -42
c8 -9 8 -15 2 -15 -18 0 -42 12 -42 21 0 14 26 10 40 -6z m2565 -35 c-3 -5
-32 -10 -63 -10 -41 0 -53 3 -42 10 20 13 113 13 105 0z m-1906 -125 c7 -47
16 -85 20 -85 3 0 7 -18 8 -40 1 -43 -13 -55 -21 -17 -14 61 -36 196 -36 216
0 50 17 6 29 -74z m1941 65 c0 -5 -4 -10 -10 -10 -5 0 -10 5 -10 10 0 6 5 10
10 10 6 0 10 -4 10 -10z m700 -10 c0 -5 -7 -10 -15 -10 -8 0 -15 5 -15 10 0 6
7 10 15 10 8 0 15 -4 15 -10z m760 -47 c0 -13 -70 -55 -83 -50 -7 2 6 15 28
30 42 27 55 32 55 20z m210 -11 c0 -4 -6 -14 -12 -20 -7 -7 -28 -70 -46 -140
-18 -70 -40 -152 -49 -182 -10 -37 -16 -96 -17 -180 l-1 -125 -55 3 c-34 2
-65 11 -82 23 -21 14 -44 19 -96 19 -38 0 -89 7 -112 15 -65 23 -147 20 -187
-7 l-33 -23 36 -30 c34 -29 73 -112 74 -158 0 -35 -17 -7 -34 52 -13 45 -25
67 -51 88 -88 71 -100 82 -92 89 4 4 17 -2 30 -14 l22 -21 79 60 c82 61 128
82 66 29 l-35 -29 41 -1 c22 0 65 -8 95 -19 38 -13 71 -17 112 -13 48 4 64 1
85 -15 15 -11 49 -22 76 -25 l49 -6 -6 89 c-7 92 7 194 38 271 16 42 47 169
42 174 -2 2 -24 -33 -49 -79 -32 -58 -51 -83 -66 -85 -12 -2 -29 -16 -38 -31
-13 -22 -29 -31 -73 -41 -37 -8 -74 -26 -111 -55 -74 -57 -150 -95 -150 -76 0
5 15 14 33 22 17 7 64 36 104 65 51 36 86 54 117 58 51 8 72 30 107 113 12 26
42 83 67 126 40 66 50 77 69 72 12 -3 25 -1 28 5 7 12 25 13 25 2z m-1100 -47
c0 -8 -4 -15 -10 -15 -5 0 -10 7 -10 15 0 8 5 15 10 15 6 0 10 -7 10 -15z
m144 -10 c-6 -16 -24 -21 -24 -7 0 11 11 22 21 22 5 0 6 -7 3 -15z m-254 -2
c-1 -12 -73 -64 -79 -57 -3 3 10 19 29 35 35 29 50 35 50 22z m-162 -139 c-21
-19 -43 -34 -50 -34 -7 0 7 18 32 39 55 48 70 43 18 -5z m522 -64 c0 -5 -4
-10 -10 -10 -5 0 -10 5 -10 10 0 6 5 10 10 10 6 0 10 -4 10 -10z m-1380 -10
c0 -6 26 -10 58 -10 40 0 81 -9 137 -30 43 -17 108 -40 144 -51 36 -11 75 -24
86 -29 11 -5 54 -15 95 -24 88 -18 123 -13 229 32 85 37 87 37 87 15 0 -10 4
-28 8 -40 4 -13 3 -23 -2 -23 -6 0 -13 11 -16 25 -6 24 -26 35 -26 14 0 -5 -5
-7 -10 -4 -6 3 -39 -5 -74 -19 -119 -48 -209 -34 -520 83 -122 46 -140 49
-156 24 -9 -14 -12 -15 -17 -5 -4 10 -11 8 -28 -8 l-23 -22 1 41 c1 25 7 41
15 41 6 0 12 -4 12 -10z m-1180 -20 c0 -5 -4 -10 -10 -10 -5 0 -10 5 -10 10 0
6 5 10 10 10 6 0 10 -4 10 -10z m2816 -37 c-10 -10 -19 5 -10 18 6 11 8 11 12
0 2 -7 1 -15 -2 -18z m-686 9 c0 -10 -80 -36 -87 -28 -6 5 54 34 75 35 6 1 12
-3 12 -7z m208 -63 c45 -33 49 -39 30 -39 -16 0 -97 69 -82 70 5 0 29 -14 52
-31z m-2348 -9 c0 -5 -4 -10 -9 -10 -6 0 -13 5 -16 10 -3 6 1 10 9 10 9 0 16
-4 16 -10z m1780 0 c0 -5 -4 -10 -10 -10 -5 0 -10 5 -10 10 0 6 5 10 10 10 6
0 10 -4 10 -10z m-1781 -58 c7 -17 32 -40 61 -57 28 -16 50 -33 50 -37 0 -13
-8 -10 -57 19 -43 25 -83 73 -83 101 0 20 16 6 29 -26z m519 -38 c18 -37 31
-69 28 -71 -3 -3 -21 27 -40 66 -20 39 -33 71 -28 71 4 0 22 -30 40 -66z
m2092 56 c0 -5 -11 -10 -25 -10 -14 0 -25 5 -25 10 0 6 11 10 25 10 14 0 25
-4 25 -10z m-1040 -10 c0 -5 -2 -10 -4 -10 -3 0 -8 5 -11 10 -3 6 -1 10 4 10
6 0 11 -4 11 -10z m151 -31 c39 -19 98 -75 99 -93 0 -5 -19 9 -42 31 -24 21
-58 45 -75 52 -18 7 -33 17 -33 22 0 13 6 11 51 -12z m1029 -8 c19 -3 34 -11
32 -16 -6 -20 -102 5 -102 26 0 7 7 8 18 4 9 -4 33 -11 52 -14z m-2915 -1 c3
-5 2 -10 -2 -10 -14 0 -54 -90 -47 -102 4 -6 3 -8 -2 -5 -6 3 -27 -23 -48 -58
-34 -55 -55 -74 -167 -152 -70 -48 -125 -92 -121 -97 3 -5 1 -6 -5 -3 -13 8
-105 -58 -95 -68 4 -5 2 -6 -3 -2 -13 7 -117 -67 -108 -77 5 -4 3 -7 -2 -5 -6
1 -18 -1 -28 -6 -40 -17 -24 5 32 47 34 25 57 48 53 52 -4 4 -2 6 3 4 12 -4
105 54 100 62 -2 4 1 7 8 7 7 0 61 34 121 76 59 42 116 79 125 82 18 6 87 110
83 126 -1 6 1 8 6 5 10 -6 65 102 57 114 -3 4 1 11 7 13 20 8 26 8 33 -3z
m1515 -50 c0 -5 -11 -10 -24 -10 -14 0 -28 5 -31 10 -4 6 7 10 24 10 17 0 31
-4 31 -10z m1000 -18 c0 -10 -256 -75 -273 -69 -17 7 -2 12 133 46 127 33 140
35 140 23z m30 -14 c0 -7 -7 -38 -15 -68 -8 -30 -15 -77 -15 -103 0 -30 -4
-46 -10 -42 -18 11 -12 163 7 196 18 30 33 38 33 17z m-2180 -50 c0 -12 -13
-10 -38 8 -33 23 -27 38 8 17 17 -9 30 -21 30 -25z m2490 -98 c0 -5 -4 -10
-10 -10 -5 0 -10 5 -10 10 0 6 5 10 10 10 6 0 10 -4 10 -10z m-2025 -10 c-3
-5 -13 -10 -21 -10 -8 0 -14 5 -14 10 0 6 9 10 21 10 11 0 17 -4 14 -10z
m1945 5 c0 -9 -110 -78 -116 -72 -3 3 18 21 48 41 50 34 68 42 68 31z m-1910
-44 c0 -5 -16 -15 -36 -21 -36 -12 -58 -47 -48 -75 8 -19 -16 -20 -42 0 -17
13 -17 14 -2 15 10 0 24 14 32 33 9 24 23 37 47 44 45 14 49 15 49 4z m-180
-51 c0 -5 -4 -10 -10 -10 -5 0 -10 5 -10 10 0 6 5 10 10 10 6 0 10 -4 10 -10z
m-529 -92 c33 -39 39 -42 108 -49 67 -7 131 -33 117 -46 -3 -3 -17 2 -30 11
-14 9 -38 16 -54 16 -85 0 -119 12 -149 51 -15 21 -40 43 -55 48 -16 6 -28 13
-28 17 0 19 60 -13 91 -48z m2349 17 c0 -45 -21 -125 -33 -125 -5 0 -6 15 -3
33 4 17 10 53 13 80 7 55 23 63 23 12z m-1850 -1 c0 -8 -5 -12 -10 -9 -6 4 -8
11 -5 16 9 14 15 11 15 -7z m-1610 -33 c47 -17 91 -29 97 -26 7 2 12 -1 10 -7
-1 -6 13 -16 31 -21 17 -5 32 -14 32 -18 0 -13 -16 -11 -57 6 -20 9 -44 13
-52 10 -9 -3 -12 -3 -8 1 10 11 -131 66 -145 58 -7 -4 -8 -2 -4 4 4 7 1 12 -8
12 -8 0 -18 5 -22 11 -9 16 20 9 126 -30z m3990 9 c0 -16 -4 -30 -10 -30 -32
0 -56 -103 -53 -222 1 -38 -1 -68 -6 -68 -12 0 -22 86 -15 132 5 29 3 42 -7
49 -11 7 -10 9 4 9 12 0 17 8 17 31 0 17 11 45 25 63 14 18 25 40 25 49 0 10
5 17 10 17 6 0 10 -13 10 -30z m-2270 10 c0 -5 -2 -10 -4 -10 -3 0 -8 5 -11
10 -3 6 -1 10 4 10 6 0 11 -4 11 -10z m-120 -60 c0 -16 -4 -30 -10 -30 -5 0
-10 14 -10 30 0 17 5 30 10 30 6 0 10 -13 10 -30z m-125 -62 c14 -12 25 -26
25 -31 0 -10 -59 34 -59 46 -1 12 7 8 34 -15z m135 -58 c0 -5 -4 -10 -10 -10
-5 0 -10 5 -10 10 0 6 5 10 10 10 6 0 10 -4 10 -10z m349 -34 c21 -28 39 -42
50 -39 19 5 111 -34 111 -47 0 -14 -6 -13 -50 10 -22 11 -50 20 -64 20 -17 0
-36 14 -60 44 -20 23 -36 46 -36 50 0 17 19 2 49 -38z m-2189 4 c0 -5 -4 -10
-10 -10 -5 0 -10 5 -10 10 0 6 5 10 10 10 6 0 10 -4 10 -10z m3680 0 c0 -5 -4
-10 -10 -10 -5 0 -10 5 -10 10 0 6 5 10 10 10 6 0 10 -4 10 -10z m3160 -15 c0
-2 -3 -10 -6 -19 -9 -24 -19 -19 -19 8 0 15 5 22 13 19 6 -3 12 -7 12 -8z
m-5020 1 c0 -2 -7 -39 -16 -82 -20 -94 -16 -139 25 -302 29 -116 63 -202 79
-202 13 -1 105 -90 99 -96 -7 -8 -32 10 -92 65 -55 51 -79 108 -121 293 -19
81 -24 128 -20 168 8 80 26 160 37 160 5 0 9 -2 9 -4z m-1690 -26 c28 -11 66
-20 85 -20 19 0 35 -4 35 -10 0 -26 -168 10 -178 38 -5 16 -1 15 58 -8z m1487
-182 c-2 -24 -4 -5 -4 42 0 47 2 66 4 43 2 -24 2 -62 0 -85z m855 86 c13 -12
30 -24 38 -27 11 -4 9 -6 -5 -6 -11 -1 -32 7 -45 16 -13 10 -31 18 -40 18 -8
1 -25 2 -37 3 -43 3 -23 19 21 18 30 -1 52 -8 68 -22z m-2352 -10 c34 -14 43
-14 58 -3 9 7 14 9 10 5 -4 -5 16 -20 44 -33 29 -13 55 -28 58 -32 9 -14 68
-41 90 -41 12 0 28 -12 39 -30 10 -16 21 -28 24 -25 4 3 5 2 2 -1 -2 -4 3 -20
11 -36 9 -17 13 -32 10 -35 -3 -3 0 -15 6 -27 7 -11 19 -61 28 -111 l15 -90
114 -77 c63 -43 119 -74 124 -71 6 3 7 1 3 -5 -5 -9 15 -12 73 -12 93 0 178
-17 186 -37 4 -12 -3 -14 -32 -9 -21 3 -82 8 -137 12 -95 6 -101 8 -170 52
-39 25 -99 67 -133 95 l-63 49 0 88 c0 49 -4 90 -9 92 -5 2 -25 35 -44 74
l-36 72 -158 67 c-87 36 -162 71 -167 76 -15 14 9 11 54 -7z m3630 -116 c0
-12 -13 -10 -38 8 -33 23 -27 38 8 17 17 -9 30 -21 30 -25z m2830 16 c0 -7
-52 -25 -57 -20 -10 10 22 33 39 28 10 -2 18 -6 18 -8z m-2475 -34 c-3 -5 -11
-10 -16 -10 -6 0 -7 5 -4 10 3 6 11 10 16 10 6 0 7 -4 4 -10z m-3548 -85 c16
-22 33 -44 38 -50 24 -22 37 -45 27 -45 -13 0 -132 157 -132 173 0 13 22 -13
67 -78z m3557 3 c3 -16 2 -28 -3 -28 -9 0 -21 33 -21 60 0 22 16 -1 24 -32z
m2352 -30 c4 -6 3 -8 -3 -5 -6 4 -24 -11 -42 -33 -18 -22 -39 -40 -48 -40 -13
0 -9 9 15 33 18 18 29 37 25 42 -5 4 -3 5 4 1 6 -3 14 -2 18 4 8 13 22 13 31
-2z m-2296 -144 c0 -95 -14 -254 -23 -254 -9 0 -2 176 10 240 4 26 -15 72 -28
65 -4 -3 -5 5 -2 16 6 21 6 21 24 -2 11 -14 19 -41 19 -65z m-4100 72 c0 -2
-8 -10 -17 -17 -16 -13 -17 -12 -4 4 13 16 21 21 21 13z m2266 -70 c-18 -24
-60 -53 -126 -87 -59 -30 -97 -55 -93 -61 3 -7 1 -8 -5 -4 -14 8 -55 -18 -45
-28 4 -4 0 -4 -10 0 -11 4 -19 0 -23 -10 -6 -15 -24 -13 -24 3 0 9 141 96 225
139 33 16 73 44 89 61 38 40 46 31 12 -13z m3723 -62 c-7 -13 -16 -24 -21 -24
-11 0 -10 28 2 35 6 3 10 16 10 28 1 21 1 21 11 3 8 -13 8 -25 -2 -42z m-1903
-241 c-11 -62 -26 -101 -41 -107 -29 -11 -74 -142 -75 -218 0 -5 -5 -8 -11 -8
-7 0 -9 10 -5 25 9 36 1 31 -28 -20 -15 -25 -31 -45 -36 -45 -15 0 -14 2 35
81 25 40 45 78 45 85 0 24 40 100 59 111 13 9 24 32 32 73 13 65 36 86 25 23z
m-3691 -73 c39 -40 23 -51 -18 -13 -34 32 -92 57 -109 47 -11 -7 -29 16 -22
27 9 14 121 -32 149 -61z m3439 -37 c26 -56 27 -61 18 -151 -5 -51 -12 -96
-16 -99 -4 -4 -28 -1 -54 6 -26 7 -54 14 -62 15 -8 0 -19 7 -23 14 -5 7 -13
10 -18 6 -5 -3 -8 0 -7 8 2 7 -3 12 -9 11 -7 -2 -12 0 -11 5 3 15 -24 66 -42
79 -55 39 -151 128 -140 131 6 2 22 -5 34 -17 12 -12 26 -18 31 -14 4 5 5 3 2
-4 -7 -11 90 -90 106 -85 4 1 6 -1 6 -6 -6 -38 49 -96 112 -117 28 -10 53 -14
57 -11 3 4 9 41 13 83 7 71 6 81 -21 140 -37 81 -15 87 24 6z m-3091 20 c37
-10 67 -21 67 -26 0 -5 -8 -6 -17 -3 -10 3 -40 10 -68 17 -27 6 -54 16 -59 20
-14 13 0 11 77 -8z m3037 8 c0 -20 -88 -96 -113 -98 -15 -1 -27 2 -27 8 0 5 5
9 11 9 5 0 8 4 5 9 -4 5 3 7 13 4 13 -3 32 8 60 36 42 42 51 48 51 32z m-3416
-117 c9 -24 7 -28 -9 -14 -17 14 -20 30 -6 30 5 0 12 -7 15 -16z m2018 -37
c-18 -18 -30 -36 -27 -40 3 -4 0 -3 -7 3 -9 7 -4 18 17 40 16 16 33 30 39 30
5 0 -5 -15 -22 -33z m1154 -12 c-4 -14 -11 -25 -16 -25 -13 0 -13 16 1 42 14
26 23 16 15 -17z m-1575 -18 c9 -1 15 -7 12 -14 -6 -16 -8 -16 -43 2 -35 18
-40 30 -7 20 12 -4 29 -7 38 -8z m2208 -63 c12 -11 -14 -13 -82 -8 -43 4 -77
11 -77 16 0 8 149 0 159 -8z m-209 -34 c0 -6 -8 -27 -19 -48 -10 -20 -21 -61
-25 -90 l-7 -53 28 3 c24 3 29 8 33 41 6 46 26 49 22 4 -4 -51 -9 -57 -46 -57
-29 0 -37 -4 -40 -22 -12 -57 -37 -261 -33 -265 3 -2 14 0 25 6 24 13 42 14
42 4 0 -5 -18 -15 -39 -24 -37 -16 -39 -19 -45 -75 -7 -52 -13 -65 -51 -104
-45 -47 -70 -94 -59 -112 4 -6 2 -8 -4 -4 -6 3 -13 2 -17 -4 -3 -5 -13 -10
-22 -10 -14 0 -13 4 5 23 12 13 22 29 22 36 0 7 22 36 49 64 43 46 50 59 58
115 l10 62 -39 0 c-21 0 -38 5 -38 10 0 6 18 10 40 10 22 0 40 1 40 3 0 8 30
224 35 255 5 27 3 32 -15 32 -11 0 -20 5 -20 11 0 6 9 9 19 6 15 -3 20 2 25
25 3 17 6 41 6 54 0 27 40 114 52 114 4 0 8 -5 8 -10z m2471 -17 c13 -16 12
-17 -3 -4 -10 7 -18 15 -18 17 0 8 8 3 21 -13z m-1540 -20 c13 -16 12 -17 -3
-4 -10 7 -18 15 -18 17 0 8 8 3 21 -13z m409 -63 c8 -5 12 -11 9 -14 -3 -3
-14 1 -25 9 -21 16 -8 20 16 5z m-2030 -65 c19 -19 32 -35 29 -35 -3 0 -20 16
-39 35 -19 19 -32 35 -29 35 3 0 20 -16 39 -35z m-1973 -72 c-3 -10 -5 -4 -5
12 0 17 2 24 5 18 2 -7 2 -21 0 -30z m0 -90 c-3 -10 -5 -4 -5 12 0 17 2 24 5
18 2 -7 2 -21 0 -30z m-436 -24 c23 -11 39 -23 36 -26 -8 -7 -97 28 -97 38 0
14 18 11 61 -12z m3202 -15 c-18 -13 -20 -20 -12 -41 14 -38 3 -40 -16 -2 -16
31 -16 33 1 46 10 7 25 13 33 12 12 0 10 -4 -6 -15z m-4513 -24 c30 0 93 -9
138 -20 46 -11 88 -18 93 -14 5 3 9 0 9 -7 0 -6 8 -9 20 -6 11 3 20 1 20 -5 0
-6 11 -8 25 -6 13 3 22 2 20 -3 -3 -4 12 -10 33 -14 39 -6 70 -21 62 -28 -3
-3 -83 14 -179 38 -136 34 -201 45 -300 50 -120 7 -127 6 -145 -14 -20 -22
-56 -29 -56 -11 0 6 6 10 13 10 8 0 22 9 32 20 13 14 33 20 79 22 33 2 65 0
71 -4 5 -5 34 -8 65 -8z m1208 -41 l157 -2 -185 -12 c-155 -10 -192 -15 -227
-33 -48 -25 -53 -26 -53 -12 0 15 122 71 138 65 8 -3 84 -6 170 -6z m2992 -35
c0 -8 -4 -12 -10 -9 -5 3 -10 10 -10 16 0 5 5 9 10 9 6 0 10 -7 10 -16z
m-3490 -53 c73 -16 84 -20 77 -27 -5 -5 -143 13 -177 23 -11 3 -9 8 10 18 14
7 27 10 30 6 3 -5 30 -14 60 -20z m3840 -248 c0 -5 -9 -19 -20 -33 l-20 -25 2
27 c1 15 6 24 10 22 4 -3 8 0 8 5 0 6 5 11 10 11 6 0 10 -3 10 -7z"/>
<path d="M5980 5454 c47 -13 96 -24 110 -24 20 0 16 5 -23 25 -37 19 -63 25
-110 24 l-62 0 85 -25z"/>
<path d="M4915 3180 c3 -5 13 -10 21 -10 8 0 14 5 14 10 0 6 -9 10 -21 10 -11
0 -17 -4 -14 -10z"/>
<path d="M5403 3058 c-42 -68 -77 -147 -68 -156 7 -7 4 -11 68 107 62 113 61
111 48 111 -5 0 -26 -28 -48 -62z"/>
<path d="M3086 588 c-11 -6 -29 -22 -41 -36 -20 -23 -23 -38 -24 -150 -1 -68
-3 -129 -4 -134 -1 -6 4 -13 11 -15 8 -3 12 9 12 41 0 25 5 46 10 46 6 0 10
-20 10 -44 0 -44 12 -55 59 -56 14 0 12 36 -4 73 -4 9 -3 17 2 17 12 0 33 -45
33 -70 0 -17 7 -20 50 -20 48 0 50 1 76 45 l26 45 -26 91 c-15 50 -38 111 -52
135 -25 42 -28 44 -72 44 -26 0 -56 -6 -66 -12z m4 -165 c0 -13 -4 -23 -9 -23
-10 0 -22 51 -14 64 8 12 23 -15 23 -41z"/>
<path d="M2998 583 c-62 -16 -70 -313 -8 -313 6 0 10 53 10 134 0 120 2 136
21 160 20 26 16 30 -23 19z"/>
</g>
</svg>
