<?xml version="1.0" standalone="no"?>
<!DOCTYPE svg PUBLIC "-//W3C//DTD SVG 20010904//EN"
 "http://www.w3.org/TR/2001/REC-SVG-20010904/DTD/svg10.dtd">
<svg version="1.0" xmlns="http://www.w3.org/2000/svg"
 width="800.000000pt" height="800.000000pt" viewBox="0 0 800.000000 800.000000"
 preserveAspectRatio="xMidYMid meet">
<metadata>
Created by potrace 1.16, written by Peter Selinger 2001-2019
</metadata>
<g transform="translate(0.000000,800.000000) scale(0.100000,-0.100000)"
fill="#000000" stroke="none">
<path d="M0 4000 l0 -4000 1720 0 c1713 0 1720 0 1720 20 0 13 -7 20 -19 20
-19 0 -34 41 -24 67 6 16 30 17 35 2 2 -6 16 -12 30 -12 23 -2 28 -8 34 -42 3
-22 12 -43 18 -47 20 -14 51 -8 63 11 6 10 24 21 40 24 89 19 96 20 89 8 -4
-6 -18 -11 -31 -11 -13 0 -27 -5 -30 -10 -4 -6 -15 -8 -24 -5 -10 3 -24 -1
-31 -10 -11 -13 -3 -15 64 -15 66 0 76 2 76 18 1 16 1 16 14 0 12 -16 35 -18
215 -18 l201 0 0 35 c0 68 -22 142 -77 257 -30 64 -53 122 -51 130 3 7 32 -44
66 -114 59 -120 80 -195 82 -290 0 -15 10 -18 60 -18 75 0 107 15 122 57 7 18
16 33 22 33 5 0 20 10 33 22 36 34 27 5 -12 -36 -19 -21 -35 -43 -35 -51 0 -7
-6 -16 -12 -18 -7 -3 49 -6 125 -6 102 -1 136 2 131 11 -4 7 -3 8 5 4 17 -11
142 24 148 41 3 8 -2 31 -11 51 -16 35 -16 40 4 104 14 47 26 69 40 73 11 4
24 14 29 24 5 9 28 39 50 66 23 27 41 57 41 66 0 25 20 36 78 44 62 8 58 -1
67 180 3 72 11 174 18 228 8 53 12 97 10 97 -2 0 -19 -7 -38 -15 -20 -8 -54
-14 -78 -15 -51 0 -193 22 -203 32 -10 11 14 10 133 -4 94 -11 105 -10 145 8
43 19 105 80 100 97 -1 4 2 5 8 2 7 -4 14 2 17 14 3 12 9 21 14 21 16 0 9 -37
-10 -54 -12 -11 -17 -25 -14 -34 5 -11 2 -14 -9 -10 -8 4 -20 3 -27 -1 -13 -9
-46 -264 -55 -428 l-6 -112 42 -3 c37 -3 43 -7 50 -33 9 -34 13 -31 -104 -106
-43 -27 -78 -54 -78 -59 0 -6 18 -10 40 -10 29 0 40 4 40 15 0 22 17 18 23 -5
9 -34 8 -35 -26 -32 -24 2 -28 0 -17 -7 12 -9 11 -11 -7 -11 -12 0 -24 6 -27
13 -4 6 -4 -3 -1 -21 3 -24 1 -32 -8 -30 -6 3 -13 17 -15 31 -2 15 -8 27 -13
27 -15 0 -10 42 8 62 15 17 14 18 -16 18 -53 0 -26 16 31 19 36 1 58 8 70 21
10 10 28 22 40 25 35 11 46 24 41 45 -4 16 -14 20 -53 20 -98 0 -141 -11 -153
-39 -17 -40 -110 -161 -128 -166 -10 -3 -23 -29 -33 -64 -15 -55 -15 -62 0
-101 16 -39 18 -41 48 -35 17 4 44 13 59 20 23 12 34 12 66 0 l39 -13 17 44
c9 24 21 44 26 44 5 0 1 -18 -8 -41 -13 -35 -14 -42 -2 -50 18 -11 25 3 34 69
6 44 4 52 -9 52 -9 0 -16 5 -16 10 0 6 13 10 28 10 l29 0 -13 -63 c-17 -76
-17 -87 -3 -87 5 0 8 4 5 9 -4 5 3 7 14 4 12 -3 35 6 62 26 23 17 50 31 60 31
10 0 42 -15 70 -34 41 -28 57 -33 86 -29 25 5 33 3 28 -6 -4 -6 -11 -9 -16 -6
-17 11 -21 -17 -5 -35 15 -17 32 -19 192 -17 l176 2 33 48 c19 27 32 52 31 57
-1 4 1 7 5 6 13 -2 58 48 58 66 0 10 5 18 11 18 20 0 0 -54 -29 -78 -15 -12
-26 -27 -24 -32 1 -6 -2 -10 -8 -10 -5 0 -10 -5 -10 -12 0 -7 -12 -25 -27 -40
l-27 -28 1122 0 1122 0 0 4000 0 4001 -1265 -1 c-1075 -1 -1265 -3 -1265 -15
0 -18 24 -31 73 -38 34 -5 37 -4 37 19 0 41 17 26 24 -21 7 -46 3 -65 -15 -65
-6 0 -8 3 -5 8 10 16 -21 40 -61 46 l-41 7 19 -68 c31 -109 28 -120 -44 -191
-54 -53 -63 -68 -59 -90 2 -15 10 -34 17 -42 7 -8 16 -25 19 -37 4 -13 15 -23
24 -24 9 0 42 -12 72 -27 63 -31 78 -64 41 -92 -21 -15 -21 -16 -4 -50 21 -41
18 -70 -8 -88 -10 -7 -19 -21 -19 -31 0 -10 -7 -24 -15 -31 -16 -14 -21 -45
-5 -35 6 3 7 -1 4 -10 -4 -8 -2 -21 4 -28 16 -19 4 -90 -17 -105 -18 -12 -18
-16 -5 -47 18 -43 6 -73 -49 -131 -29 -31 -37 -47 -32 -62 8 -27 96 -92 124
-92 12 0 21 -6 21 -15 0 -8 6 -15 14 -15 8 0 17 -11 20 -25 4 -16 11 -23 18
-19 6 4 8 3 5 -3 -4 -6 2 -18 13 -28 12 -11 18 -26 15 -39 -4 -16 5 -27 40
-49 25 -16 52 -26 60 -23 8 3 17 1 20 -4 13 -21 -58 -9 -89 15 -23 18 -35 22
-43 14 -8 -8 -11 1 -10 31 2 31 -3 46 -20 62 -13 12 -23 26 -23 31 0 11 -42
46 -56 47 -6 0 -32 16 -57 35 l-45 34 -7 -36 c-4 -21 -2 -40 4 -46 12 -12 15
-80 4 -90 -3 -4 -14 0 -24 9 -23 21 -154 40 -172 25 -11 -8 -18 -6 -32 9 -10
11 -24 20 -32 20 -7 0 -13 5 -13 11 0 14 42 1 56 -17 6 -7 13 -11 16 -9 10 10
140 7 151 -4 23 -23 40 -13 32 22 -3 17 -6 58 -5 89 l1 57 -32 -9 c-27 -8 -54
-25 -79 -50 -15 -15 -92 -9 -129 9 -31 16 -46 19 -65 11 -17 -6 -35 -6 -53 1
-18 7 -30 6 -37 -1 -5 -5 -21 -10 -34 -10 -13 0 -66 -17 -118 -37 -77 -30 -94
-40 -94 -58 0 -19 4 -20 73 -17 39 2 77 8 83 13 6 5 15 4 21 -2 8 -8 20 -6 41
5 17 9 44 16 61 16 16 0 33 5 36 10 4 7 18 -1 33 -17 26 -26 26 -29 10 -44
-11 -10 -28 -14 -44 -11 -17 3 -22 7 -14 12 21 13 1 30 -34 30 -35 0 -62 -21
-51 -40 3 -5 -3 -10 -14 -10 -11 0 -24 7 -29 16 -8 14 -15 15 -41 6 -18 -6
-45 -9 -61 -5 -20 4 -30 2 -30 -7 0 -7 -8 -10 -20 -7 -16 4 -20 0 -20 -19 0
-13 -4 -24 -10 -24 -5 0 -10 11 -10 25 0 27 -9 32 -27 14 -8 -8 -13 -8 -17 0
-12 19 -32 12 -55 -20 -22 -29 -22 -31 -4 -44 23 -17 11 -30 -15 -16 -16 8
-24 5 -43 -15 l-23 -25 59 7 c82 8 85 9 85 42 0 26 3 29 25 24 29 -5 34 -22 8
-23 -11 0 -13 -3 -5 -6 7 -2 28 5 48 16 40 24 44 25 44 12 0 -5 -22 -23 -49
-39 -37 -23 -65 -32 -124 -37 -71 -7 -78 -9 -102 -41 -14 -19 -31 -34 -38 -34
-17 -1 -121 -144 -108 -148 18 -6 13 -22 -7 -22 -18 0 -68 -82 -65 -107 0 -7
-3 -11 -7 -8 -4 3 -13 -9 -19 -25 -5 -17 -15 -30 -20 -30 -14 0 -2 30 53 129
25 46 46 87 46 91 0 12 -60 31 -73 23 -5 -3 -7 -1 -4 4 8 13 -50 36 -67 26 -6
-3 -7 -2 -3 2 10 11 -141 68 -155 59 -7 -4 -8 -2 -4 4 7 11 -7 16 -41 15 -7
-1 -13 3 -13 7 0 5 -8 11 -17 13 -12 3 -10 5 7 6 14 0 78 -19 143 -44 66 -25
123 -42 128 -39 5 3 9 1 9 -4 0 -8 88 -52 104 -52 11 0 75 93 70 101 -3 5 -1
8 6 7 6 -2 27 18 46 45 20 26 31 47 25 47 -8 0 -10 12 -6 38 4 20 3 33 -2 27
-9 -12 -123 -15 -123 -4 0 4 27 11 59 15 38 4 62 12 65 21 10 26 23 5 22 -37
-1 -22 2 -40 5 -40 8 0 35 32 32 37 -2 1 0 3 3 2 13 -2 21 23 16 48 -3 14 -17
33 -33 42 -33 18 -39 35 -9 26 11 -3 20 -4 20 -1 0 3 -44 19 -98 35 -53 17
-106 37 -117 45 -29 22 -9 19 74 -9 41 -13 77 -22 81 -20 5 3 10 2 12 -2 1 -5
22 -18 46 -30 39 -20 42 -20 42 -3 0 30 34 17 41 -16 4 -16 7 -21 8 -11 0 9 5
17 9 17 5 0 20 15 33 33 17 22 32 32 52 32 35 1 35 -8 -1 -21 -16 -6 -39 -26
-52 -45 l-24 -34 25 21 c44 38 141 78 264 107 6 1 16 6 22 10 7 4 21 4 31 -2
10 -5 36 -7 58 -4 27 3 51 0 72 -11 34 -18 92 -22 92 -6 0 5 6 7 13 4 7 -2 28
7 47 21 19 14 38 25 43 25 11 0 110 100 105 106 -2 1 -35 -21 -73 -51 -74 -58
-114 -75 -55 -24 19 17 34 35 32 40 -1 6 2 8 8 4 14 -9 100 64 100 85 0 28
-11 51 -21 44 -18 -11 -8 6 16 29 25 23 38 72 25 92 -4 6 -10 26 -14 46 -5 28
-3 38 9 43 8 3 15 14 15 24 0 11 7 26 16 33 29 24 32 51 11 86 -18 31 -18 35
-3 52 9 10 13 21 9 26 -5 4 -2 5 5 1 7 -4 12 -1 12 9 0 20 -55 54 -102 61 -30
5 -39 12 -48 37 -5 17 -16 38 -24 46 -7 9 -16 28 -19 42 -6 21 3 35 58 89 55
54 65 70 65 99 0 41 -40 191 -51 191 -5 0 -6 7 -3 15 5 12 -3 15 -36 15 -33 0
-41 -3 -36 -15 3 -8 1 -15 -4 -15 -6 0 -10 7 -10 15 0 13 -29 15 -200 15 -110
0 -200 -2 -200 -4 0 -2 -7 -40 -15 -83 -8 -43 -15 -96 -15 -118 0 -23 -15 -72
-33 -114 -31 -70 -35 -75 -67 -79 -52 -5 -69 -28 -72 -93 -2 -32 -6 -55 -9
-53 -3 2 -21 -44 -39 -101 -25 -82 -31 -117 -28 -160 3 -31 1 -55 -5 -55 -10
0 -6 -27 15 -83 8 -20 18 -34 22 -30 4 4 4 0 1 -8 -8 -20 11 -101 34 -150 11
-21 16 -41 11 -44 -11 -7 -57 102 -65 155 -4 25 -13 60 -21 78 -7 18 -14 70
-15 115 -2 72 3 98 39 207 23 69 42 141 43 160 3 45 23 68 65 76 19 3 37 11
41 17 4 6 1 7 -7 2 -9 -5 -11 -4 -6 4 4 6 12 9 17 6 14 -9 59 102 59 145 0 21
7 74 15 117 8 43 15 81 15 86 0 4 -30 7 -66 7 -61 0 -72 -4 -141 -45 -42 -26
-78 -44 -81 -40 -7 7 -7 7 63 49 l60 36 -243 0 -242 0 -12 -25 c-6 -14 -15
-25 -20 -25 -11 0 -10 7 2 31 10 18 7 19 -74 19 -77 0 -86 -2 -97 -21 -6 -12
-29 -41 -51 -65 -22 -24 -38 -44 -35 -44 3 0 -5 -12 -19 -27 -20 -22 -25 -36
-23 -73 1 -25 -2 -53 -6 -62 -4 -10 -5 -25 -2 -33 4 -8 1 -17 -4 -21 -6 -3 -9
-17 -6 -30 2 -13 1 -24 -4 -24 -4 0 -19 -18 -32 -40 -13 -22 -27 -37 -30 -33
-4 3 -7 0 -7 -7 0 -7 -3 -11 -6 -7 -9 9 -104 -41 -104 -55 0 -6 -3 -8 -6 -5
-4 4 -19 -2 -34 -13 -34 -24 -36 -24 -44 -4 -3 8 -2 12 4 9 13 -8 52 19 42 30
-4 5 -2 5 4 2 6 -3 21 3 32 14 12 11 22 17 22 14 0 -14 100 48 118 73 21 29
39 115 40 190 1 45 17 73 84 151 21 24 36 46 33 49 -2 3 3 11 13 18 14 11 1
13 -90 14 -125 0 -178 -17 -178 -57 0 -14 -4 -21 -10 -18 -5 3 -10 22 -10 41
l0 34 -57 -1 c-61 -1 -61 -3 0 -14 21 -3 36 -9 33 -13 -5 -8 -58 -8 -72 0 -5
3 -48 11 -95 18 l-86 13 -35 -38 c-33 -37 -38 -39 -93 -37 -49 1 -64 -3 -99
-27 -22 -16 -58 -32 -78 -35 -42 -8 -47 -23 -23 -66 16 -29 20 -74 5 -65 -5 3
-10 16 -10 28 0 13 -7 33 -16 45 -9 14 -14 33 -10 46 5 19 15 25 51 30 26 4
49 14 55 24 5 9 10 14 10 10 0 -4 16 4 36 17 27 19 41 22 54 15 33 -18 66 -11
95 20 l29 30 -1737 0 -1737 0 0 -4000z m5707 3958 c-3 -8 -6 -5 -6 6 -1 11 2
17 5 13 3 -3 4 -12 1 -19z m-486 -15 c13 -16 12 -17 -3 -4 -10 7 -18 15 -18
17 0 8 8 3 21 -13z m-966 -23 c4 -6 3 -10 -2 -9 -22 4 -31 -3 -36 -29 -5 -26
-9 -27 -46 -24 -23 2 -41 8 -41 13 0 9 20 13 51 10 8 -1 21 10 27 24 12 26 36
33 47 15z m299 -91 c-49 -49 -86 -79 -93 -74 -8 4 2 17 26 37 21 16 38 35 38
41 1 7 6 11 11 10 6 -1 26 14 44 32 19 19 39 35 44 35 6 0 -26 -37 -70 -81z
m-1424 31 c0 -5 -11 -10 -25 -10 -14 0 -25 5 -25 10 0 6 11 10 25 10 14 0 25
-4 25 -10z m947 -85 c-1 -51 -6 -83 -12 -81 -10 3 -8 143 2 159 10 17 12 2 10
-78z m248 45 c3 -5 1 -10 -4 -10 -6 0 -11 5 -11 10 0 6 2 10 4 10 3 0 8 -4 11
-10z m653 -55 c6 -14 8 -25 3 -25 -4 0 -13 11 -19 25 -6 14 -8 25 -3 25 4 0
13 -11 19 -25z m-128 -10 c-14 -7 -27 -11 -30 -9 -6 7 22 24 40 23 9 0 5 -6
-10 -14z m255 -15 c-3 -5 -23 -10 -43 -9 -33 1 -34 2 -12 9 36 12 62 12 55 0z
m-2557 -99 c4 -41 -14 -33 -20 9 -3 19 -1 29 6 27 6 -2 12 -18 14 -36z m2439
2 c-3 -10 -5 -4 -5 12 0 17 2 24 5 18 2 -7 2 -21 0 -30z m-282 17 c3 -5 -1
-10 -9 -10 -9 0 -16 5 -16 10 0 6 4 10 9 10 6 0 13 -4 16 -10z m-604 -42 c6
-38 -5 -133 -16 -135 -6 -1 -9 29 -7 78 3 75 15 105 23 57z m409 2 c0 -5 -7
-10 -15 -10 -8 0 -15 5 -15 10 0 6 7 10 15 10 8 0 15 -4 15 -10z m-1816 -25
c-6 -16 -24 -21 -24 -7 0 11 11 22 21 22 5 0 6 -7 3 -15z m-54 -10 c11 -13 8
-14 -20 -8 -27 5 -36 2 -51 -18 -15 -19 -19 -20 -19 -7 0 41 64 64 90 33z
m1860 -57 c0 -8 -17 -6 -90 13 -22 6 -36 5 -41 -2 -3 -6 -10 -11 -15 -11 -17
-1 -53 -35 -46 -43 4 -5 2 -5 -4 -2 -6 3 -20 -2 -31 -13 -12 -10 -23 -17 -26
-14 -18 18 -143 -68 -130 -90 3 -6 3 -8 -2 -4 -12 11 -52 -48 -59 -87 -4 -19
-11 -37 -17 -41 -11 -7 -2 59 12 87 4 8 13 45 19 82 7 37 16 67 21 67 8 0 6
-24 -6 -83 -3 -18 -3 -18 15 -2 11 10 17 23 13 29 -3 6 -3 8 2 4 4 -4 15 1 24
11 9 11 40 27 69 36 29 9 76 36 104 59 l51 42 69 -15 c37 -8 68 -18 68 -23z
m402 -19 c10 -16 14 -28 9 -25 -7 5 -17 -25 -23 -71 -1 -7 -7 -14 -15 -17 -18
-7 -16 -48 5 -93 9 -21 19 -40 22 -43 3 -3 6 -11 8 -18 1 -9 -2 -10 -16 -1
-19 12 -52 92 -52 126 0 10 11 35 25 55 26 38 33 82 15 93 -5 3 -10 10 -10 16
0 18 15 8 32 -22z m-2287 -1 c14 -6 25 -15 25 -20 0 -11 -17 -10 -25 2 -3 6
-17 10 -31 10 -13 0 -24 5 -24 10 0 13 23 13 55 -2z m-69 -55 c-11 -11 -19 6
-11 24 8 17 8 17 12 0 3 -10 2 -21 -1 -24z m299 7 c3 -5 1 -10 -4 -10 -6 0
-11 5 -11 10 0 6 2 10 4 10 3 0 8 -4 11 -10z m1017 -93 c-18 -17 -24 -18 -56
-7 -51 17 -67 8 -60 -32 5 -31 5 -32 -10 -14 -21 25 -20 32 3 55 17 17 25 18
56 10 50 -14 65 -6 65 34 0 48 14 57 18 11 2 -27 -2 -43 -16 -57z m-211 -2
c43 -16 62 -32 53 -47 -3 -4 -10 -8 -15 -8 -6 0 -7 5 -4 10 3 6 -4 14 -17 19
-95 36 -110 58 -17 26z m-1078 -22 c-7 -2 -19 -2 -25 0 -7 3 -2 5 12 5 14 0
19 -2 13 -5z m803 -6 c17 -10 174 -29 199 -24 14 2 28 0 31 -4 9 -15 24 -10
25 9 1 16 2 16 6 0 3 -11 14 -18 29 -18 13 0 24 -4 24 -10 0 -5 -11 -10 -25
-10 -28 0 -33 -21 -10 -40 25 -21 27 -48 5 -97 -14 -34 -31 -54 -55 -67 -30
-16 -35 -24 -35 -54 0 -44 -12 -35 -16 13 -3 32 0 37 30 52 32 15 76 75 76
105 0 7 -8 25 -17 38 -10 14 -18 32 -18 40 0 12 -23 18 -100 26 -135 16 -235
34 -235 44 0 9 72 6 86 -3z m1674 5 c0 -9 -73 -32 -102 -32 -15 1 -5 8 27 20
56 20 75 24 75 12z m-1336 -75 c-4 -10 16 -13 83 -13 107 1 178 -10 198 -30
19 -20 20 -45 1 -38 -9 3 -12 12 -9 21 5 13 2 15 -15 11 -12 -4 -22 -2 -22 3
0 5 -7 9 -15 9 -8 0 -15 -8 -15 -19 0 -10 -3 -47 -6 -82 -6 -59 -5 -62 9 -43
29 39 108 97 118 87 6 -6 19 -48 30 -95 21 -88 42 -131 56 -113 9 11 133 15
133 4 0 -3 14 -9 30 -12 17 -4 30 -11 30 -16 0 -5 -23 -3 -52 5 -53 14 -148
10 -148 -6 0 -20 40 -100 50 -100 6 0 9 -4 6 -8 -2 -4 2 -22 10 -39 14 -28 21
-31 90 -42 41 -7 74 -17 74 -22 0 -5 -10 -7 -22 -4 -125 27 -138 26 -197 -7
-57 -33 -114 -39 -136 -16 -7 7 3 9 34 5 36 -5 51 -1 92 25 46 28 62 48 38 48
-5 0 -8 4 -4 9 7 12 -15 61 -27 61 -5 0 -6 5 -3 10 3 6 1 10 -5 10 -6 0 -9 4
-6 9 7 11 -32 103 -48 113 -6 4 -7 8 -2 8 5 0 3 6 -3 13 -6 8 -8 16 -5 19 6 6
-15 99 -26 111 -10 11 -80 -48 -107 -91 -19 -31 -22 -50 -22 -117 1 -101 -10
-198 -25 -207 -7 -5 -7 -8 3 -8 11 0 12 -23 6 -124 -5 -87 -4 -125 4 -130 16
-10 13 -61 -4 -76 -10 -9 -15 -31 -15 -73 l0 -61 55 54 c30 29 52 57 50 61 -3
4 5 5 16 2 20 -6 16 -11 -37 -62 -32 -31 -57 -60 -56 -64 1 -5 -2 -6 -7 -3 -5
4 -12 2 -16 -4 -16 -27 -25 -3 -25 69 0 58 4 82 15 91 17 14 20 46 4 55 -10 7
-10 37 7 405 l5 115 -21 -25 c-11 -14 -28 -37 -37 -52 -18 -30 -39 -39 -29
-13 4 10 -1 15 -14 15 -11 0 -20 -6 -20 -14 0 -8 -14 -19 -30 -25 -56 -19 -84
-118 -65 -226 5 -28 4 -28 -16 10 -14 26 -18 40 -10 43 6 2 11 8 11 13 0 6 -4
7 -10 4 -5 -3 -10 0 -10 7 0 8 -13 21 -29 31 -23 14 -45 16 -107 12 -63 -4
-74 -3 -54 5 26 12 144 9 170 -3 13 -6 14 3 8 75 -10 122 -9 168 2 168 6 0 10
-28 11 -62 1 -35 4 -88 8 -118 l7 -55 14 40 c8 22 13 44 12 48 -1 5 2 6 8 2 5
-3 10 -2 10 4 0 6 11 13 25 17 14 3 25 12 25 20 0 9 12 14 35 14 31 0 39 6 70
53 30 45 36 64 45 151 6 54 9 105 5 113 -4 13 -21 15 -100 11 -53 -3 -97 -2
-100 2 -7 11 7 50 16 45 4 -3 6 -11 3 -18z m1251 -28 c10 -15 -1 -23 -20 -15
-9 3 -13 10 -10 16 8 13 22 13 30 -1z m-445 -9 c0 -5 -7 -10 -15 -10 -8 0 -15
5 -15 10 0 6 7 10 15 10 8 0 15 -4 15 -10z m-420 -20 c0 -5 -11 -10 -25 -10
-14 0 -25 5 -25 10 0 6 11 10 25 10 14 0 25 -4 25 -10z m-1240 -70 c0 -5 -2
-10 -4 -10 -3 0 -8 5 -11 10 -3 6 -1 10 4 10 6 0 11 -4 11 -10z m-138 -52 c2
-13 9 -22 16 -20 6 1 12 -2 12 -8 0 -5 -9 -10 -21 -10 -11 0 -17 5 -14 10 3 6
1 10 -4 10 -6 0 -11 9 -11 20 0 27 18 25 22 -2z m1888 -53 c0 -4 -6 -18 -14
-34 -14 -26 -13 -30 41 -97 65 -82 67 -84 56 -84 -5 0 -37 34 -72 76 l-63 76
18 34 c16 30 34 45 34 29z m-1405 -59 c-4 -25 -11 -46 -17 -46 -8 0 -3 53 8
89 9 29 15 1 9 -43z m-174 -69 c13 -13 45 -29 72 -37 26 -7 47 -17 47 -21 0
-11 3 -12 -57 6 -50 15 -130 75 -100 75 8 0 25 -10 38 -23z m-237 -102 c9 -13
32 -40 51 -60 27 -27 31 -35 18 -34 -15 0 -103 97 -103 113 0 15 19 4 34 -19z
m556 6 c0 -4 -39 -11 -86 -14 -57 -3 -89 -10 -95 -18 -5 -8 -6 -38 -2 -66 4
-39 2 -53 -7 -53 -8 0 -11 9 -7 26 2 15 -2 31 -10 40 -13 12 -12 18 4 47 16
27 26 33 68 38 80 9 135 10 135 0z m-4 -68 c-11 -11 -17 4 -9 23 7 18 8 18 11
1 2 -10 1 -21 -2 -24z m1464 -13 c0 -5 -2 -10 -4 -10 -3 0 -8 5 -11 10 -3 6
-1 10 4 10 6 0 11 -4 11 -10z m-157 -32 c-6 -29 -17 -36 -28 -17 -4 5 1 19 11
30 21 24 24 22 17 -13z m-38 12 c-3 -5 -13 -10 -21 -10 -8 0 -12 5 -9 10 3 6
13 10 21 10 8 0 12 -4 9 -10z m-1245 -15 c-7 -8 -14 -15 -15 -15 -2 0 -5 7 -9
15 -4 10 1 15 16 15 17 0 18 -2 8 -15z m988 -20 c-5 -5 -112 -45 -120 -45 -5
0 -8 5 -8 10 0 6 7 10 15 10 8 0 15 5 15 11 0 5 4 8 9 5 5 -3 24 0 42 8 28 12
59 12 47 1z m-1438 -33 c0 -4 -14 -16 -31 -26 -25 -15 -33 -16 -42 -6 -7 7 -7
10 -2 7 6 -3 22 3 35 14 27 20 40 24 40 11z m390 -36 c0 -22 -20 -70 -26 -63
-8 8 7 77 17 77 5 0 9 -6 9 -14z m344 -1 c3 -8 1 -15 -4 -15 -6 0 -10 7 -10
15 0 8 2 15 4 15 2 0 6 -7 10 -15z m-871 -9 c7 -17 -2 -56 -12 -56 -4 0 -7 16
-7 35 1 36 10 46 19 21z m1177 -13 c0 -14 -19 -38 -25 -32 -8 8 5 39 16 39 5
0 9 -3 9 -7z m-410 -12 c0 -11 -59 -36 -67 -27 -3 3 9 12 28 20 41 18 39 18
39 7z m950 -21 c0 -5 -4 -10 -10 -10 -5 0 -10 5 -10 10 0 6 5 10 10 10 6 0 10
-4 10 -10z m-810 -29 c21 -10 14 -11 -42 -7 l-68 5 0 -29 c0 -17 -4 -30 -9
-30 -14 0 -20 25 -11 41 5 7 5 18 0 24 -12 15 97 12 130 -4z m1205 9 c-3 -5
-17 -10 -31 -10 -14 0 -22 4 -19 10 3 6 17 10 31 10 14 0 22 -4 19 -10z
m-1460 -35 c100 -16 113 -20 102 -31 -5 -6 -106 8 -165 23 -18 4 -24 0 -33
-26 -8 -23 -17 -31 -35 -31 -22 0 -23 -3 -14 -20 6 -12 21 -20 35 -20 14 0 25
-4 25 -10 0 -5 -12 -10 -26 -10 -24 0 -25 -2 -20 -37 15 -102 18 -153 8 -153
-5 0 -13 36 -17 80 -4 44 -10 80 -14 80 -4 0 -6 14 -3 30 3 19 0 30 -7 30 -7
0 -10 4 -6 9 3 5 1 12 -5 16 -17 11 0 25 29 25 20 0 30 6 34 20 4 15 0 20 -13
20 -11 0 -22 -4 -25 -10 -3 -5 -19 -10 -36 -10 -16 0 -29 5 -29 10 0 6 13 10
28 10 16 0 37 8 48 19 11 10 23 15 29 10 6 -4 55 -15 110 -24z m-241 -25 c-5
-5 -52 -11 -103 -13 -56 -2 -96 -8 -98 -14 -2 -6 -13 -9 -23 -6 -11 3 -20 1
-20 -5 0 -10 120 -24 190 -23 47 1 110 -9 110 -19 0 -14 -197 0 -380 27 -63 9
-69 22 -10 23 30 1 89 11 130 23 54 16 94 21 143 19 40 -2 66 -7 61 -12z
m1066 11 c0 -14 -60 -54 -68 -46 -4 3 1 11 11 16 9 6 23 16 30 24 14 16 27 19
27 6z m770 -11 c0 -5 -4 -10 -10 -10 -5 0 -10 5 -10 10 0 6 5 10 10 10 6 0 10
-4 10 -10z m-2290 -30 c-8 -5 -34 -10 -58 -10 -24 0 -41 -4 -38 -9 3 -4 -6 -6
-19 -3 -31 6 -32 19 -2 25 47 9 132 7 117 -3z m1026 -1 c84 -16 102 -30 31
-25 -32 2 -61 6 -64 10 -4 3 -17 6 -30 6 -12 0 -23 5 -23 10 0 13 12 13 86 -1z
m1088 -5 c4 -10 1 -14 -6 -12 -15 5 -23 28 -10 28 5 0 13 -7 16 -16z m526 -9
c0 -8 -4 -15 -10 -15 -5 0 -10 7 -10 15 0 8 5 15 10 15 6 0 10 -7 10 -15z
m-1716 -29 c-7 -17 -74 -71 -74 -59 0 10 62 73 72 73 4 0 5 -7 2 -14z m266 4
c0 -5 -2 -10 -4 -10 -3 0 -8 5 -11 10 -3 6 -1 10 4 10 6 0 11 -4 11 -10z
m1690 -10 c10 0 56 -13 101 -29 46 -16 87 -27 91 -25 4 3 8 0 8 -6 0 -7 7 -10
15 -6 8 3 15 1 15 -4 0 -6 7 -10 15 -10 17 0 20 -16 5 -25 -5 -3 -10 -1 -10 4
0 6 -5 11 -11 11 -6 0 -54 16 -106 36 -53 19 -102 33 -109 30 -8 -3 -14 -1
-14 4 0 6 -11 10 -25 10 -14 0 -25 4 -25 9 0 12 24 20 28 10 2 -5 12 -9 22 -9z
m-2195 0 c3 -5 1 -10 -4 -10 -6 0 -11 5 -11 10 0 6 2 10 4 10 3 0 8 -4 11 -10z
m1245 3 c0 -9 -105 -103 -115 -103 -3 0 -3 6 2 13 4 6 8 17 8 22 1 6 6 9 11 8
6 -1 26 14 44 32 33 34 50 43 50 28z m400 -24 c0 -11 -21 -12 -45 -3 -12 5
-13 9 -5 14 15 9 50 1 50 -11z m-2080 -10 c0 -16 -74 -122 -78 -110 -2 5 11
31 29 57 18 26 32 53 32 60 0 7 4 11 9 8 4 -3 8 -9 8 -15z m1870 6 c0 -4 -7
-19 -15 -36 l-16 -30 28 7 c15 4 36 11 45 15 9 5 24 9 33 9 32 0 5 -17 -56
-35 -44 -13 -64 -25 -72 -42 -5 -13 -14 -23 -19 -23 -12 0 -10 6 12 49 10 21
16 41 13 45 -4 3 -1 6 5 6 6 0 14 9 17 20 6 18 25 29 25 15z m481 -161 c-12
-21 -21 -46 -21 -54 0 -9 -13 -29 -30 -45 -16 -16 -30 -23 -30 -17 0 7 9 20
20 30 11 9 23 34 27 54 3 21 12 43 19 49 8 6 14 21 14 34 0 32 14 41 18 12 2
-14 -6 -42 -17 -63z m56 80 c-3 -3 -12 -4 -19 -1 -8 3 -5 6 6 6 11 1 17 -2 13
-5z m-731 -114 c-14 -44 -26 -95 -27 -113 0 -30 -1 -31 -10 -8 -10 26 0 75 33
159 31 78 33 56 4 -38z m-1756 55 c0 -10 -45 -75 -52 -75 -12 0 -10 8 15 45
19 31 37 45 37 30z m1880 -29 c0 -16 -7 -27 -20 -31 -11 -3 -20 -13 -20 -20 0
-9 -6 -12 -15 -9 -8 4 -15 1 -15 -6 0 -6 -4 -9 -9 -5 -5 3 -12 -7 -14 -22 -3
-23 -4 -21 -6 10 -1 27 3 37 14 37 22 0 75 41 75 57 0 7 2 13 5 13 3 0 5 -11
5 -24z m-289 -56 c19 0 41 -5 49 -10 11 -7 3 -10 -30 -10 -25 0 -52 4 -60 10
-9 6 -20 5 -30 -3 -12 -9 -13 -9 -3 2 6 7 9 21 6 30 -6 14 -4 14 14 -1 11 -10
35 -18 54 -18z m-1786 -10 c3 -5 -3 -10 -14 -10 -12 0 -21 5 -21 10 0 6 6 10
14 10 8 0 18 -4 21 -10z m99 -49 c1 -22 -2 -37 -5 -35 -4 2 -9 -28 -11 -67 -6
-75 -22 -110 -30 -65 -3 14 -1 23 3 20 5 -3 9 14 9 37 0 48 21 161 29 154 2
-3 5 -23 5 -44z m996 23 c0 -8 -7 -14 -15 -14 -8 0 -24 -6 -35 -12 -15 -10
-25 -10 -38 -2 -31 20 -20 39 28 44 52 7 60 4 60 -16z m463 -13 c-10 -10 -25
-18 -34 -18 -10 -1 -36 -11 -60 -22 -29 -14 -46 -18 -53 -11 -5 5 -20 10 -32
10 -12 0 -24 6 -27 13 -4 11 5 11 45 3 31 -7 52 -7 56 -1 4 6 14 11 22 13 32
6 70 25 65 32 -3 5 4 6 15 3 20 -5 20 -6 3 -22z m427 -66 c-9 -10 -7 -21 5
-44 14 -28 14 -34 1 -60 -9 -16 -14 -30 -12 -32 1 -2 -6 -12 -16 -21 -24 -23
-23 -7 2 42 19 37 19 42 5 70 -12 23 -13 35 -5 50 6 11 8 20 5 20 -4 0 -3 5 1
11 5 8 10 6 16 -5 6 -11 6 -22 -2 -31z m-930 27 c0 -4 -9 -13 -20 -20 -22 -13
-23 -12 -14 12 6 16 34 23 34 8z m284 -9 c4 -10 4 -14 0 -11 -4 4 -15 -4 -26
-17 -16 -21 -23 -23 -40 -14 -11 6 -36 9 -54 7 -19 -2 -34 -1 -34 3 0 4 -20
10 -45 13 -24 4 -47 12 -51 18 -4 7 7 8 37 2 24 -4 54 -8 66 -9 13 -1 26 -5
30 -8 14 -15 70 -6 88 13 22 24 21 24 29 3z m230 -90 c-4 -21 -20 -57 -36 -81
-16 -23 -26 -47 -22 -54 4 -6 3 -8 -3 -5 -13 8 -46 -40 -38 -54 4 -5 2 -8 -4
-7 -5 2 -17 -6 -26 -17 -16 -20 -16 -19 -10 5 4 14 7 30 7 37 1 7 6 11 12 10
6 -1 10 6 10 15 -1 10 2 16 6 13 11 -7 76 104 85 143 9 46 28 41 19 -5z m179
-45 c-3 -18 -10 -34 -15 -36 -4 -2 -8 -14 -8 -27 0 -22 -17 -35 -43 -35 -7 0
-4 5 6 11 9 5 17 19 17 29 0 11 5 20 10 20 6 0 10 10 10 23 0 19 16 47 27 47
1 0 0 -15 -4 -32z m-63 -19 c0 -6 -4 -7 -10 -4 -5 3 -10 11 -10 16 0 6 5 7 10
4 6 -3 10 -11 10 -16z m-69 -29 c5 0 9 6 10 13 0 6 5 2 11 -11 12 -24 2 -45
-11 -23 -6 8 -16 11 -31 6 -12 -4 -20 -3 -18 1 3 5 9 18 13 29 7 18 9 18 12 3
3 -10 9 -18 14 -18z m-391 -46 c0 -14 4 -23 10 -19 15 9 12 -12 -7 -48 -12
-22 -19 -65 -23 -141 -4 -81 -9 -111 -19 -114 -9 -3 -11 0 -6 7 4 7 6 57 6
111 -1 58 3 101 9 105 5 3 10 33 10 66 0 33 4 59 10 59 6 0 10 -12 10 -26z
m645 0 c14 -9 25 -21 25 -27 0 -5 -8 -3 -18 6 -10 10 -25 17 -33 17 -8 0 -21
5 -29 10 -12 8 -11 10 8 10 12 0 34 -7 47 -16z m-1975 -13 c0 -12 -20 -25 -27
-18 -7 7 6 27 18 27 5 0 9 -4 9 -9z m1760 5 c0 -2 -7 -6 -15 -10 -8 -3 -15 -1
-15 4 0 6 7 10 15 10 8 0 15 -2 15 -4z m-55 -16 c-3 -5 -15 -10 -25 -10 -15 0
-20 -10 -25 -47 -10 -78 -25 -97 -18 -23 6 67 20 89 56 90 10 0 15 -4 12 -10z
m225 -30 c-11 -21 -20 -46 -20 -53 0 -16 63 -33 80 -22 6 3 10 -1 10 -9 0 -19
-7 -19 -66 -5 -33 9 -44 16 -44 31 0 25 38 98 50 98 6 0 1 -18 -10 -40z m-394
-67 c-35 -113 -55 -196 -50 -205 4 -7 2 -8 -4 -4 -7 4 -12 3 -12 -3 0 -6 -20
-35 -44 -64 -33 -40 -41 -58 -33 -66 8 -8 5 -11 -14 -11 -25 0 -62 -38 -106
-108 -19 -31 -20 -38 -9 -71 13 -36 13 -36 82 -41 38 -3 78 -10 89 -16 11 -7
46 -17 78 -24 31 -7 57 -17 57 -22 0 -11 -58 -1 -134 23 -33 10 -81 19 -107
19 l-47 0 -6 -67 c-7 -90 -7 -91 -27 -86 -9 3 -26 0 -37 -6 -26 -14 -36 -101
-20 -171 10 -45 17 -54 49 -71 21 -10 45 -19 54 -19 8 0 15 -4 15 -9 0 -14
-52 -8 -68 7 -7 6 -19 12 -25 12 -12 -1 -60 -95 -72 -141 -7 -30 21 -103 37
-93 7 4 8 3 4 -5 -4 -6 0 -24 9 -38 23 -35 114 -125 148 -147 19 -13 27 -27
27 -47 l0 -29 55 31 c31 18 64 29 77 27 22 -4 22 -5 3 -12 -11 -4 -45 -20 -75
-36 -40 -21 -54 -34 -52 -47 2 -10 6 -31 9 -47 7 -36 -17 -85 -72 -144 -48
-52 -68 -89 -61 -108 3 -9 1 -12 -4 -9 -6 3 -10 -2 -10 -13 0 -13 10 -22 32
-28 17 -5 33 -15 36 -22 3 -9 -3 -10 -23 -2 -51 20 -55 16 -56 -62 -1 -40 -4
-85 -8 -99 -7 -30 -87 -126 -96 -117 -4 4 12 27 35 52 25 27 39 50 34 57 -4 7
-3 9 4 5 7 -4 10 22 9 90 l-2 96 -38 13 c-21 7 -56 11 -79 7 -31 -4 -39 -2
-34 7 9 14 146 12 146 -1 0 -4 5 -8 11 -8 6 0 9 9 6 20 -3 11 -1 18 3 15 11
-7 33 62 24 76 -4 7 -3 9 3 6 10 -6 38 18 45 38 2 6 6 9 10 8 8 -3 56 60 67
89 6 16 4 35 -5 57 -8 18 -14 51 -14 72 0 34 -5 42 -34 60 -19 11 -37 27 -40
35 -3 9 -11 12 -17 8 -7 -4 -9 -3 -6 3 4 6 -2 18 -13 28 -18 16 -20 16 -26 1
-9 -22 -39 -20 -109 9 -77 32 -108 32 -129 0 -21 -32 -21 -34 14 -46 17 -6 30
-15 30 -20 0 -5 8 -9 18 -9 10 0 52 -20 94 -44 43 -24 79 -41 82 -39 3 3 13 2
23 -2 10 -5 22 -7 26 -6 5 1 6 -3 2 -9 -11 -18 -60 -11 -98 16 -54 36 -117 64
-149 64 -15 0 -48 7 -73 16 -42 14 -49 14 -70 0 -27 -18 -130 -23 -120 -6 3 6
28 10 55 10 27 0 51 4 54 9 9 14 -74 42 -95 31 -10 -6 -38 -10 -63 -10 -41 0
-46 -3 -46 -22 -1 -17 -13 -29 -48 -45 -26 -12 -60 -25 -77 -29 -16 -4 -34 -9
-39 -12 -5 -3 -27 -7 -50 -9 -30 -2 -49 -12 -71 -36 -19 -20 -41 -33 -60 -35
-29 -2 -29 -2 -11 13 11 8 24 15 28 15 5 0 25 15 44 34 25 25 41 32 59 28 14
-2 25 0 25 4 0 5 18 10 40 11 43 3 130 38 130 53 0 5 -9 12 -20 15 -11 3 -20
11 -20 16 0 12 7 11 31 -1 15 -8 19 -7 19 5 0 12 12 15 55 15 31 0 69 7 86 15
29 15 55 12 44 -5 -5 -9 18 -20 43 -20 12 0 8 8 -13 30 -43 45 -20 49 25 5
l40 -39 39 42 c45 49 60 51 143 17 70 -29 87 -31 94 -11 7 17 -30 79 -41 68
-5 -4 -5 -2 -2 4 3 6 -3 29 -14 52 -23 46 -19 70 28 168 23 49 23 54 11 110
-7 33 -12 87 -10 122 3 63 3 64 40 79 42 17 56 34 39 45 -9 6 -9 10 2 17 14 9
12 76 -5 159 -5 27 0 42 29 86 l36 54 -27 5 c-17 3 -30 -1 -39 -11 -11 -16
-12 -16 -13 0 0 15 -7 17 -45 13 -34 -3 -58 -14 -90 -41 -25 -20 -45 -39 -45
-43 0 -3 14 -12 30 -19 33 -15 42 -37 11 -27 -30 9 -54 -33 -45 -79 4 -24 2
-36 -5 -36 -6 0 -11 17 -11 40 0 42 -8 47 -41 29 -11 -6 -25 -8 -32 -6 -7 2
14 17 46 33 31 15 57 32 57 36 0 13 -18 9 -23 -4 -3 -7 -6 -1 -6 13 -1 19 13
39 49 73 27 25 57 47 67 48 10 0 23 2 30 2 6 1 15 4 18 8 4 4 13 4 20 2 19 -8
38 33 31 67 -3 16 -2 29 3 29 12 0 19 -54 10 -78 -6 -16 -1 -21 29 -31 34 -10
39 -9 55 11 10 13 37 42 59 65 23 25 36 47 32 54 -4 7 -3 9 4 5 13 -8 47 89
36 105 -4 7 -3 9 3 6 6 -4 17 21 28 58 9 36 22 65 27 65 5 0 7 -8 4 -17z
m-638 -15 c-9 -13 -41 -31 -78 -43 -61 -20 -64 -23 -79 -67 -19 -54 -37 -77
-27 -33 18 74 38 97 102 117 34 10 67 25 74 33 19 23 24 18 8 -7z m522 -8 c0
-5 -9 -10 -20 -10 -11 0 -20 5 -20 10 0 6 9 10 20 10 11 0 20 -4 20 -10z m547
-45 c-4 -8 -11 -15 -17 -15 -6 0 -6 7 2 20 14 22 24 19 15 -5z m-77 -54 c0 -5
-21 -12 -47 -16 -26 -4 -60 -13 -75 -21 -31 -16 -48 -18 -48 -5 0 5 11 12 25
15 14 4 25 11 25 17 0 6 3 8 8 6 4 -3 25 -1 47 3 57 11 65 11 65 1z m195 -27
c-30 -22 -104 -16 -81 7 3 2 26 5 53 6 43 1 46 0 28 -13z m-395 -38 c0 -3 -4
-8 -10 -11 -5 -3 -10 -1 -10 4 0 6 5 11 10 11 6 0 10 -2 10 -4z m-970 -21
c-10 -12 -10 -18 0 -30 7 -9 10 -19 6 -22 -4 -4 -10 -3 -14 2 -13 19 -51 35
-57 25 -3 -6 -17 -10 -31 -10 -14 0 -22 4 -19 10 3 6 17 10 31 10 13 0 24 5
24 11 0 5 4 7 10 4 5 -3 18 -1 27 4 26 15 37 13 23 -4z m3170 -15 c0 -5 -2
-10 -4 -10 -3 0 -8 5 -11 10 -3 6 -1 10 4 10 6 0 11 -4 11 -10z m-3072 -86 c2
-10 8 -30 15 -43 9 -19 9 -25 0 -28 -9 -3 -10 -10 -4 -21 5 -9 12 -36 16 -59
4 -27 12 -43 21 -43 8 0 14 5 14 10 0 6 -3 10 -7 10 -10 0 -11 66 -2 75 4 3
10 -14 13 -39 4 -24 14 -50 22 -57 8 -7 11 -15 6 -18 -6 -4 -6 -53 0 -125 8
-105 7 -120 -8 -137 -19 -21 -13 -72 12 -100 14 -16 14 -24 -5 -94 -12 -42
-19 -80 -16 -85 3 -4 0 -10 -7 -12 -8 -3 -12 -25 -12 -61 0 -54 -14 -82 -18
-34 -4 53 -3 82 4 87 3 3 9 23 13 44 6 28 5 37 -4 32 -6 -4 -11 -3 -11 2 0 16
31 72 40 72 11 0 7 25 -8 43 -15 17 -14 127 1 127 9 0 3 149 -9 209 -4 20 -14
36 -25 38 -11 3 -21 18 -25 38 l-6 33 -28 -31 c-15 -18 -52 -50 -82 -71 -30
-22 -72 -65 -94 -95 -62 -88 -113 -139 -145 -146 -16 -4 -29 -11 -29 -16 0 -6
-4 -8 -9 -5 -5 4 -19 -10 -32 -30 -15 -24 -24 -32 -29 -23 -11 17 45 76 85 89
27 9 100 70 83 70 -3 0 8 15 25 33 18 19 47 52 65 75 18 23 62 62 97 87 54 39
82 73 78 95 0 3 -4 29 -7 59 -4 29 -9 58 -13 64 -3 5 0 8 8 5 8 -3 15 -13 17
-24z m1048 -51 c7 -10 13 -25 13 -33 1 -10 -6 -6 -19 10 -11 14 -20 28 -20 33
0 12 12 8 26 -10z m-1001 -2 c3 -5 1 -12 -5 -16 -5 -3 -10 1 -10 9 0 18 6 21
15 7z m975 -20 c0 -11 -4 -23 -10 -26 -6 -4 -10 5 -10 19 0 14 5 26 10 26 6 0
10 -9 10 -19z m-590 -61 c0 -5 -4 -10 -10 -10 -5 0 -10 5 -10 10 0 6 5 10 10
10 6 0 10 -4 10 -10z m-240 -10 c0 -5 -4 -10 -10 -10 -5 0 -10 5 -10 10 0 6 5
10 10 10 6 0 10 -4 10 -10z m-559 -21 c-33 -13 -188 -16 -200 -4 -7 7 29 11
107 12 81 1 110 -2 93 -8z m2798 -71 c-30 -57 -35 -35 -7 28 14 31 23 43 26
32 2 -9 -7 -36 -19 -60z m-1604 -180 c7 -7 -6 -9 -44 -5 -30 4 -59 12 -65 18
-8 9 3 10 44 5 30 -4 60 -12 65 -18z m-168 -19 c5 -17 11 -20 34 -15 16 3 29
2 29 -3 0 -16 -32 -21 -71 -11 -35 10 -38 12 -26 30 15 26 27 25 34 -1z m203
-20 c0 -5 -4 -9 -10 -9 -5 0 -10 7 -10 16 0 8 5 12 10 9 6 -3 10 -10 10 -16z
m-1341 -162 c-39 -18 -60 -38 -52 -51 3 -6 3 -8 -2 -4 -10 10 -35 -10 -35 -28
0 -11 10 -13 42 -8 30 5 39 4 34 -4 -4 -7 -18 -12 -31 -12 -21 0 -22 -2 -14
-37 9 -40 6 -49 -10 -38 -6 3 -11 19 -11 36 0 16 -5 29 -11 29 -8 0 -9 -19 -5
-62 12 -100 17 -120 32 -114 8 3 14 1 14 -3 0 -5 -5 -11 -11 -13 -8 -3 -8 -19
0 -59 8 -39 9 -64 2 -82 -15 -38 -24 -33 -17 7 4 20 2 37 -4 41 -6 3 -8 10 -6
14 5 8 -31 231 -39 239 -3 3 -5 -2 -5 -11 0 -9 -4 -17 -9 -17 -6 0 -7 16 -4
35 4 27 2 35 -9 35 -8 0 -35 13 -59 30 -24 16 -60 33 -79 36 -29 6 -31 8 -15
14 23 8 54 -3 113 -43 50 -33 67 -29 32 8 -13 14 -19 25 -14 25 14 0 39 -21
53 -45 7 -11 10 -14 8 -6 -2 8 12 28 30 44 18 16 30 34 26 40 -3 5 -1 7 5 3 6
-3 13 -2 17 4 3 5 18 10 33 9 l27 -1 -26 -11z m-395 -48 c-3 -5 -23 -9 -46 -9
-32 0 -38 3 -30 13 12 15 85 11 76 -4z m1540 -71 c-15 -23 -33 -103 -25 -111
5 -4 5 -27 1 -50 -5 -22 -6 -56 -3 -74 4 -21 0 -41 -11 -58 -9 -14 -13 -25 -9
-25 9 -1 -38 -29 -48 -30 -3 0 -6 7 -6 15 0 8 4 12 8 10 3 -3 12 2 19 10 7 8
9 15 4 15 -4 0 0 6 10 13 13 9 17 23 14 52 -3 40 -4 40 -68 61 -58 19 -67 20
-82 6 -10 -8 -18 -10 -18 -5 0 6 7 16 16 24 13 10 27 9 84 -8 l68 -20 -1 51
c0 80 27 166 46 147 5 -5 6 -15 1 -23z m-714 -18 c0 -5 -4 -10 -9 -10 -6 0
-13 5 -16 10 -3 6 1 10 9 10 9 0 16 -4 16 -10z m-480 -85 c0 -8 -4 -15 -10
-15 -5 0 -10 7 -10 15 0 8 5 15 10 15 6 0 10 -7 10 -15z m-542 -10 c-9 -10
-148 -22 -148 -14 0 9 43 17 105 21 42 3 52 1 43 -7z m32 -4 c0 -5 25 -12 55
-16 30 -3 55 -11 55 -16 0 -9 -31 -7 -96 6 -22 5 -42 35 -24 35 6 0 10 -4 10
-9z m220 -1 c0 -5 -9 -10 -20 -10 -19 0 -19 -1 1 -35 12 -19 16 -35 10 -35 -9
0 -51 69 -51 85 0 3 14 5 30 5 17 0 30 -4 30 -10z m79 -74 c-13 -36 -27 -66
-31 -66 -10 0 -10 1 6 46 28 79 37 97 42 91 4 -3 -4 -35 -17 -71z m340 -31 c0
-15 -5 -11 -19 15 -11 19 -19 44 -19 55 0 15 5 11 19 -15 11 -19 19 -44 19
-55z m1136 48 c-3 -16 -11 -32 -17 -38 -8 -7 -9 -2 -4 15 3 14 6 31 6 38 0 6
5 12 11 12 7 0 9 -10 4 -27z m-1986 -70 c0 -52 -3 -72 -9 -63 -17 27 -12 140
6 140 2 0 3 -35 3 -77z m525 -43 c18 0 41 -7 52 -15 17 -13 14 -14 -33 -8 -49
5 -53 4 -53 -15 0 -37 49 -133 90 -178 40 -43 40 -43 40 -16 0 31 37 118 47
109 3 -4 0 -20 -7 -36 -7 -17 -10 -38 -6 -46 3 -9 11 -46 16 -82 10 -62 47
-130 64 -117 3 2 4 1 1 -2 -2 -4 4 -19 14 -33 10 -14 31 -50 45 -79 26 -52 28
-53 46 -37 11 10 17 22 13 28 -3 5 -1 7 4 4 6 -4 18 10 27 33 10 26 25 44 43
51 14 5 55 30 90 54 69 49 86 56 58 25 -22 -25 -138 -100 -153 -100 -7 0 -13
-7 -13 -15 -1 -8 -2 -20 -3 -26 -1 -16 -57 -73 -84 -88 -19 -10 -22 -9 -22 8
0 11 -7 26 -15 34 -8 8 -11 17 -8 21 4 3 0 6 -7 6 -7 0 -10 3 -7 6 16 17 -84
149 -123 163 -28 9 -29 9 -46 -42 -10 -29 -19 -46 -22 -39 -2 7 3 33 12 59 23
67 21 77 -11 68 -15 -3 -30 -10 -33 -13 -3 -4 -11 -8 -18 -10 -39 -8 -212
-150 -212 -173 0 -6 -8 -8 -17 -6 -10 3 -42 11 -70 18 -29 7 -53 16 -53 20 0
13 18 20 25 9 3 -5 17 -10 31 -10 14 0 34 -4 44 -10 14 -8 27 -1 66 38 26 26
47 51 46 55 -1 5 2 6 7 3 5 -4 16 2 23 11 7 10 19 19 27 21 8 2 28 13 44 24
16 12 46 27 66 34 71 24 45 75 -49 93 -33 7 -60 17 -60 22 0 6 8 8 18 5 9 -3
29 -8 44 -12 l28 -6 -26 58 c-26 58 -39 128 -27 148 4 6 8 6 11 -2 2 -7 18
-12 36 -12z m-199 -70 c3 -5 -3 -10 -14 -10 -12 0 -21 5 -21 10 0 6 6 10 14
10 8 0 18 -4 21 -10z m2580 -20 c-4 -11 -6 -69 -6 -128 0 -104 -1 -110 -38
-187 -21 -44 -41 -87 -44 -96 -3 -10 -21 -22 -40 -28 -24 -8 -37 -20 -41 -37
-7 -26 9 -58 24 -49 4 3 14 -3 21 -12 8 -9 9 -14 2 -10 -6 4 -13 1 -16 -5 -3
-9 -12 -6 -29 10 -29 26 -41 27 -62 6 -9 -8 -16 -12 -16 -7 0 5 -40 44 -90 88
-49 43 -87 83 -83 88 3 5 22 -7 42 -27 21 -20 41 -33 46 -29 4 5 5 3 2 -3 -9
-15 75 -84 102 -84 14 0 25 11 35 35 10 23 26 40 46 49 33 13 75 79 64 98 -4
6 -3 8 3 5 13 -8 63 105 62 141 0 23 -2 24 -8 8 -4 -10 -5 23 -3 75 2 52 9
100 14 107 15 18 20 15 13 -8z m-2895 -45 c0 -25 -4 -45 -10 -45 -5 0 -10 20
-10 45 0 25 5 45 10 45 6 0 10 -20 10 -45z m1160 17 c0 -22 53 -75 65 -65 4 5
6 3 2 -2 -3 -6 39 -42 93 -80 l99 -70 6 -72 c4 -39 5 -77 2 -85 -4 -13 -11 17
-22 104 -6 44 -9 48 -83 100 -42 29 -81 52 -85 50 -5 -1 -6 2 -2 8 3 5 2 10
-3 10 -19 0 -92 78 -92 98 0 12 5 22 10 22 6 0 10 -8 10 -18z m-30 -42 c0 -5
-7 -10 -15 -10 -8 0 -15 5 -15 10 0 6 7 10 15 10 8 0 15 -4 15 -10z m-785
-130 c-28 -12 -57 -12 -50 0 3 6 21 10 38 9 27 0 29 -2 12 -9z m1738 -165 c-5
-13 -23 -22 -23 -11 0 15 14 35 21 31 4 -3 6 -12 2 -20z m-723 -56 c0 -5 -8
-9 -19 -9 -13 0 -20 -10 -25 -31 -3 -18 -10 -28 -16 -24 -6 4 -8 16 -4 27 5
15 3 20 -7 16 -8 -3 -44 -15 -81 -27 -44 -15 -72 -30 -83 -47 -22 -34 -83 -63
-94 -45 -5 7 -5 25 -2 40 6 21 15 27 47 32 42 6 229 64 254 78 16 9 30 5 30
-10z m-3 -64 c9 -25 -4 -29 -17 -6 -7 15 -7 21 0 21 6 0 13 -7 17 -15z m113
-20 c0 -8 10 -16 23 -16 22 -2 22 -2 -1 -6 -24 -5 -24 -5 -17 -100 11 -140 10
-163 -5 -163 -6 0 -10 31 -11 73 0 39 -4 93 -8 119 -9 52 -3 108 10 108 5 0 9
-7 9 -15z m335 3 c26 -12 36 -34 10 -24 -8 3 -15 0 -15 -7 -1 -13 -30 21 -30
35 0 11 4 10 35 -4z m-988 -98 c3 -11 8 -20 12 -20 3 0 7 -12 8 -26 0 -15 5
-29 10 -33 4 -3 8 -18 9 -33 2 -113 3 -118 26 -118 35 0 88 47 88 78 1 26 21
64 34 63 24 -3 27 3 25 39 -2 21 0 42 4 46 4 4 7 -4 7 -17 0 -13 4 -31 9 -38
12 -19 -4 -51 -24 -51 -22 0 -18 -17 7 -34 12 -9 19 -18 16 -21 -3 -3 -17 4
-31 16 l-27 20 0 -25 c0 -29 -64 -95 -92 -96 -21 0 -22 -8 -8 -44 5 -14 6 -26
1 -26 -17 0 -54 105 -52 145 1 35 -19 118 -44 178 -4 11 -3 17 5 17 6 0 14 -9
17 -20z m3633 11 c0 -13 -46 -41 -54 -33 -4 3 3 14 16 24 26 19 38 23 38 9z
m-736 -28 c-7 -31 -12 -38 -18 -32 -7 7 6 59 15 59 5 0 6 -12 3 -27z m-2470
-8 c4 -14 13 -25 21 -25 20 0 20 -49 0 -56 -8 -4 -13 -10 -10 -14 3 -5 1 -11
-5 -15 -5 -3 -10 3 -10 15 0 11 7 23 15 26 19 8 20 24 1 24 -8 0 -18 11 -23
25 -8 24 -9 24 -31 10 -15 -11 -22 -26 -22 -48 0 -44 -15 -66 -32 -49 -10 10
-10 17 0 32 6 11 12 29 12 40 0 12 13 28 33 40 41 25 44 25 51 -5z m-683 -5
c-23 -20 -41 -26 -41 -14 0 11 34 33 50 33 10 0 8 -6 -9 -19z m859 -20 c0 -5
-9 -10 -20 -10 -11 0 -20 5 -20 10 0 6 9 10 20 10 11 0 20 -4 20 -10z m-50
-10 c0 -5 -4 -10 -10 -10 -5 0 -10 5 -10 10 0 6 5 10 10 10 6 0 10 -4 10 -10z
m-880 -15 c0 -9 -6 -12 -15 -9 -8 4 -15 1 -15 -6 0 -6 -4 -9 -9 -6 -5 3 -28
-1 -51 -9 -50 -18 -50 -18 -50 -6 0 9 101 49 128 50 6 1 12 -6 12 -14z m1471
2 c-1 -4 -1 -14 -1 -23 0 -9 -6 -14 -12 -11 -13 4 -18 25 -10 40 5 10 24 5 23
-6z m-836 -7 c-3 -5 -10 -10 -16 -10 -5 0 -9 5 -9 10 0 6 7 10 16 10 8 0 12
-4 9 -10z m290 -29 c-3 -6 -11 -8 -17 -5 -6 4 -5 9 3 15 16 10 23 4 14 -10z
m-1120 -21 c-3 -4 2 -26 9 -48 10 -26 13 -60 9 -95 -5 -54 -5 -54 27 -65 18
-7 70 -17 116 -24 46 -7 84 -16 84 -20 0 -5 -15 -7 -32 -4 -140 22 -166 14
-78 -22 28 -12 50 -25 50 -31 0 -5 -25 2 -56 16 -46 21 -58 23 -65 12 -5 -8
-9 -17 -9 -21 0 -13 103 -88 113 -81 5 3 7 2 4 -4 -7 -12 28 -44 39 -35 4 4 4
2 1 -5 -4 -6 5 -25 19 -42 16 -20 21 -31 12 -31 -7 0 -19 9 -26 20 -7 12 -18
18 -24 14 -6 -4 -8 -3 -5 2 3 6 2 16 -3 23 -6 11 -18 6 -55 -19 -25 -17 -49
-30 -51 -27 -3 3 13 18 35 33 22 16 41 32 41 36 0 8 -96 88 -106 88 -5 0 -35
-42 -66 -92 -47 -76 -58 -101 -58 -136 0 -26 -4 -41 -10 -37 -5 3 -10 23 -10
43 0 29 14 60 60 132 33 52 60 100 60 105 0 6 -12 23 -26 39 -15 16 -23 31
-17 35 16 10 24 139 11 188 -11 45 -11 45 -47 38 -20 -4 -38 -10 -41 -13 -5
-6 -39 -10 -110 -11 -47 -1 -141 7 -147 13 -4 3 46 6 110 6 76 0 117 4 117 11
0 5 4 7 10 4 14 -9 90 14 90 27 0 7 5 6 15 -2 8 -7 13 -16 10 -20z m1085 10
c0 -10 8 -23 17 -29 14 -7 15 -13 6 -34 -9 -18 -9 -27 0 -36 20 -20 -4 -12
-58 19 -41 23 -54 27 -58 17 -3 -8 -26 -19 -52 -26 -26 -7 -49 -19 -52 -29 -8
-20 -33 -47 -33 -35 0 33 28 64 69 76 67 19 65 37 -3 30 -36 -4 -56 -2 -56 5
0 5 26 12 58 14 46 4 65 0 99 -19 23 -13 45 -23 49 -23 3 0 4 20 2 45 -3 25
-2 45 3 45 5 0 9 -9 9 -20z m2230 -32 c0 -10 -4 -18 -9 -18 -5 0 -11 8 -13 18
-3 11 0 19 8 19 8 0 14 -9 14 -19z m-2064 -51 c-17 -69 -36 -95 -103 -138 -37
-23 -105 -76 -149 -116 -45 -40 -85 -73 -88 -73 -19 0 3 27 74 87 44 37 80 74
80 81 0 9 6 12 16 8 10 -4 27 5 46 24 16 17 35 30 42 30 20 0 43 31 57 78 12
43 36 61 25 19z m-796 -26 c0 -21 -32 -81 -40 -76 -6 4 -4 20 5 42 8 19 15 37
15 39 0 2 5 4 10 4 6 0 10 -4 10 -9z m370 -11 c0 -5 -4 -10 -10 -10 -5 0 -10
5 -10 10 0 6 5 10 10 10 6 0 10 -4 10 -10z m940 -9 c5 -11 10 -28 10 -37 0
-23 39 -64 61 -64 9 0 22 -7 29 -15 7 -9 20 -13 29 -10 8 3 12 3 9 -1 -12 -11
70 -64 100 -64 36 0 68 23 76 55 4 14 11 25 16 25 9 0 -6 -57 -22 -76 -14 -19
-78 -24 -113 -9 -19 7 -36 10 -40 7 -4 -4 -5 0 -3 8 2 9 -4 14 -14 14 -10 -1
-15 2 -12 7 3 5 -2 9 -11 9 -8 0 -18 7 -21 15 -4 8 -14 15 -23 15 -10 0 -30
13 -46 30 -15 16 -31 28 -34 26 -3 -2 -6 10 -6 27 0 44 -29 46 -83 7 -49 -35
-63 -39 -36 -9 49 55 115 75 134 40z m-645 -1 c3 -5 1 -10 -4 -10 -6 0 -11 5
-11 10 0 6 2 10 4 10 3 0 8 -4 11 -10z m-925 -31 c0 -6 -4 -7 -10 -4 -5 3 -10
11 -10 16 0 6 5 7 10 4 6 -3 10 -11 10 -16z m860 -5 c0 -8 -4 -14 -9 -14 -11
0 -22 26 -14 34 9 9 23 -3 23 -20z m-634 -106 c-4 -40 -9 -86 -11 -103 -9 -53
5 -135 22 -135 12 0 13 -3 4 -14 -9 -11 -10 -25 -2 -50 9 -34 8 -37 -20 -51
-18 -10 -29 -23 -29 -36 0 -13 4 -18 12 -13 8 5 9 0 5 -17 -4 -13 -7 -34 -7
-46 0 -13 -4 -23 -10 -23 -5 0 -10 12 -10 26 0 20 -4 25 -16 20 -9 -3 -22 -6
-30 -6 -8 0 -14 -9 -14 -20 0 -11 -5 -20 -11 -20 -6 0 -9 14 -7 33 3 28 6 32
31 29 17 -2 29 2 33 12 7 19 -44 88 -60 79 -6 -3 -8 -3 -4 2 4 4 -6 25 -23 46
-33 42 -33 45 6 27 18 -8 32 -8 48 -1 14 7 30 8 38 2 11 -6 6 -11 -18 -20 -38
-13 -39 -16 -13 -47 14 -18 23 -21 37 -14 10 5 24 7 32 4 11 -4 13 3 7 34 -23
120 -26 181 -13 251 l7 42 -47 7 c-27 3 -55 12 -63 19 -8 7 -22 15 -30 18 -10
4 -8 6 6 6 12 1 35 -6 50 -14 16 -8 41 -15 57 -15 23 0 27 4 27 30 0 17 5 30
11 30 9 0 10 -21 5 -72z m54 51 c0 -5 -4 -9 -10 -9 -5 0 -10 7 -10 16 0 8 5
12 10 9 6 -3 10 -10 10 -16z m1120 12 c0 -5 -19 -12 -42 -15 -24 -4 -58 -15
-76 -24 -42 -23 -144 -140 -136 -155 4 -7 3 -9 -1 -4 -5 4 -17 -1 -27 -10 -15
-14 -21 -14 -31 -3 -7 8 -8 11 -1 7 7 -4 30 18 55 50 48 63 84 97 135 129 19
11 32 23 30 25 -2 2 18 5 45 6 27 2 49 -1 49 -6z m-935 -11 c3 -5 1 -10 -4
-10 -6 0 -11 5 -11 10 0 6 2 10 4 10 3 0 8 -4 11 -10z m155 -16 c0 -3 -27 -33
-61 -67 -33 -34 -79 -92 -102 -129 -23 -38 -45 -68 -50 -68 -16 0 72 137 131
202 19 21 29 38 23 38 -6 0 -11 4 -11 9 0 4 11 6 25 3 15 -2 25 0 25 7 0 6 5
11 10 11 6 0 10 -2 10 -6z m-220 -14 c0 -5 -4 -10 -10 -10 -5 0 -10 5 -10 10
0 6 5 10 10 10 6 0 10 -4 10 -10z m127 -8 c-9 -8 -23 -12 -31 -9 -26 10 -18
22 15 23 27 1 29 0 16 -14z m2473 9 c0 -12 -20 -27 -47 -35 -14 -5 -23 -3 -23
3 0 6 6 11 14 11 7 0 19 7 26 15 14 17 30 20 30 6z m-2570 -63 c-1 -29 -9 -78
-20 -108 -23 -65 -23 -70 -10 -106 l11 -28 72 71 72 71 68 5 c52 5 67 3 64 -6
-2 -7 -15 -12 -28 -13 -13 -1 -42 -2 -64 -3 -35 -1 -46 -8 -97 -63 -32 -33
-58 -64 -58 -68 0 -4 15 -18 33 -30 41 -28 77 -89 77 -129 0 -21 5 -31 15 -31
8 0 15 -4 15 -10 0 -5 -4 -10 -10 -10 -5 0 -10 -9 -10 -19 0 -11 -4 -23 -10
-26 -5 -3 -10 -17 -10 -30 0 -13 -4 -27 -10 -30 -19 -12 -10 -33 22 -48 31
-15 33 -15 40 4 4 10 13 19 20 19 13 0 53 -69 45 -76 -2 -2 -23 2 -45 10 -42
15 -42 15 -42 -8 0 -13 -8 -27 -17 -30 -14 -6 -15 -9 -3 -16 16 -10 22 -37 10
-45 -4 -3 -15 6 -24 19 -11 18 -21 23 -37 19 -15 -4 -20 -3 -15 5 4 7 14 12
23 12 12 0 9 10 -12 46 -26 43 -26 46 -9 65 13 15 14 19 3 20 -8 0 -3 5 11 10
24 10 24 11 6 25 -19 14 -45 20 -33 8 3 -3 -5 -18 -18 -32 -18 -19 -21 -29
-13 -39 8 -9 7 -18 -3 -30 -13 -15 -12 -15 8 -4 21 11 22 10 19 -18 -2 -17 2
-32 8 -34 6 -2 0 -6 -12 -9 -17 -5 -22 -2 -22 13 0 10 -7 19 -15 19 -9 0 -15
-9 -15 -25 0 -18 5 -25 20 -25 16 0 18 -4 11 -22 -9 -25 -41 -37 -41 -16 -1 7
-5 33 -9 57 -7 37 -6 44 8 48 9 2 22 13 29 23 10 17 9 20 -13 26 -24 6 -35 24
-15 24 26 0 50 41 50 85 0 42 -13 60 -23 33 -4 -10 -7 -10 -18 0 -7 6 -24 12
-39 12 -19 0 -22 -2 -10 -10 12 -7 12 -12 -4 -29 -11 -12 -31 -21 -45 -22 -23
-1 -22 -2 9 -12 34 -10 50 -23 50 -41 0 -4 -12 -1 -26 9 -15 9 -23 12 -20 6 4
-6 0 -11 -8 -11 -9 0 -16 5 -16 11 0 5 -4 7 -10 4 -5 -3 -10 -42 -10 -87 0
-69 2 -79 16 -74 38 15 64 18 64 7 0 -6 -12 -14 -27 -17 -16 -4 -38 -14 -50
-22 -22 -14 -23 -21 -23 -135 0 -66 -3 -118 -6 -114 -4 3 -6 50 -5 104 1 109
-5 129 -40 119 -46 -13 -113 -146 -79 -158 5 -1 13 -18 16 -37 5 -25 4 -32 -4
-27 -7 4 -12 14 -12 22 0 8 -4 13 -9 10 -5 -3 -12 15 -16 40 -5 39 -3 51 19
85 14 21 26 43 26 49 0 15 -39 3 -64 -19 -18 -15 -19 -15 -13 2 4 9 2 17 -3
17 -6 0 -10 9 -10 20 0 17 3 19 20 8 13 -9 27 -9 47 -2 26 9 28 14 29 65 1 31
4 61 8 68 4 6 5 15 2 20 -3 5 1 14 8 20 18 15 34 -5 17 -22 -6 -6 -11 -40 -11
-75 l0 -63 38 3 37 3 3 53 c2 31 -1 52 -7 52 -6 0 -11 12 -11 26 0 14 -7 32
-15 41 -16 15 -11 38 6 27 6 -3 7 5 3 22 -4 15 -3 25 2 22 5 -3 15 0 22 8 11
12 10 15 -2 20 -9 3 -14 10 -11 14 3 5 1 11 -5 15 -20 13 -9 21 32 22 41 2 67
21 46 34 -8 5 -6 12 4 23 9 8 18 12 22 9 3 -4 6 1 6 9 0 8 10 28 21 42 20 25
21 31 9 67 -12 36 -11 46 8 102 12 34 22 86 22 115 0 28 5 52 10 52 6 0 10
-24 10 -52z m565 31 c-4 -5 -13 -9 -22 -9 -13 0 -13 3 -3 15 13 15 35 11 25
-6z m-895 -79 c0 -5 -4 -10 -10 -10 -5 0 -10 5 -10 10 0 6 5 10 10 10 6 0 10
-4 10 -10z m65 -10 c3 -5 1 -10 -4 -10 -6 0 -11 5 -11 10 0 6 2 10 4 10 3 0 8
-4 11 -10z m184 -21 c-19 -12 -24 -2 -8 17 9 11 14 13 17 4 3 -7 -2 -16 -9
-21z m1746 22 c3 -5 25 -9 49 -8 24 1 42 6 39 10 -3 5 9 1 26 -7 17 -9 31 -18
31 -19 0 -6 -146 -1 -157 6 -6 4 -14 3 -18 -3 -3 -5 -21 -9 -38 -9 -22 1 -25
3 -10 6 12 2 27 11 33 19 14 16 36 19 45 5z m-2442 -8 c-24 -2 -62 -2 -85 0
-24 2 -5 4 42 4 47 0 66 -2 43 -4z m2697 -3 c0 -5 -8 -10 -17 -10 -10 0 -29
-3 -43 -6 -24 -5 -24 -5 -6 10 22 18 66 22 66 6z m-1510 -10 c0 -5 -4 -10 -10
-10 -5 0 -10 5 -10 10 0 6 5 10 10 10 6 0 10 -4 10 -10z m231 -47 c15 -40 14
-97 -1 -88 -5 3 -7 12 -3 20 3 8 -2 33 -11 55 -18 47 -19 50 -8 50 5 0 15 -17
23 -37z m76 -1 c8 -5 3 -11 -13 -19 -19 -9 -24 -8 -24 1 0 24 16 31 37 18z
m-1335 -44 c2 -18 -1 -59 -6 -92 -7 -41 -5 -73 3 -108 17 -65 7 -73 -13 -10
-12 34 -15 66 -11 104 5 42 3 58 -9 68 -9 7 -16 17 -16 22 0 6 7 5 15 -2 13
-11 15 -8 15 19 0 41 18 40 22 -1z m508 0 c0 -19 -2 -20 -10 -8 -13 19 -13 30
0 30 6 0 10 -10 10 -22z m424 -77 c9 -49 13 -96 10 -105 -9 -23 -26 -20 -19 4
4 11 2 35 -4 53 -16 51 -24 137 -13 137 5 0 17 -40 26 -89z m171 79 c3 -5 -1
-10 -10 -10 -9 0 -13 5 -10 10 3 6 8 10 10 10 2 0 7 -4 10 -10z m-545 -90 c0
-5 -7 -10 -15 -10 -9 0 -12 -6 -9 -15 4 -8 2 -15 -4 -15 -5 0 -12 6 -15 14 -4
9 -14 12 -26 9 -12 -3 -21 -1 -21 5 0 11 25 18 68 21 12 0 22 -3 22 -9z m222
-32 c-6 -6 -15 -8 -19 -4 -4 4 -1 11 7 16 19 12 27 3 12 -12z m-302 -57 c0 -5
-9 -11 -20 -14 -22 -6 -28 8 -7 16 19 8 27 8 27 -2z m625 -41 c-3 -5 -19 -10
-35 -10 -45 0 -63 -10 -49 -26 16 -19 3 -30 -16 -14 -21 18 -19 35 8 48 28 14
100 15 92 2z m-906 -30 c-13 -9 -39 -2 -39 10 0 4 12 5 26 2 17 -3 22 -7 13
-12z m602 7 c-1 -12 -15 -9 -19 4 -3 6 1 10 8 8 6 -3 11 -8 11 -12z m-657 -22
c-3 -8 -21 -20 -39 -26 -23 -9 -31 -17 -28 -28 5 -12 3 -13 -7 -4 -16 15 -6
29 38 53 20 10 38 19 39 20 1 0 0 -7 -3 -15z m946 1 c0 -3 -4 -8 -10 -11 -5
-3 -10 -1 -10 4 0 6 5 11 10 11 6 0 10 -2 10 -4z m-230 -16 c0 -5 -18 -10 -40
-10 -22 0 -40 5 -40 10 0 6 18 10 40 10 22 0 40 -4 40 -10z m-622 -17 c-30 -8
-21 -33 11 -33 16 0 42 -3 58 -6 25 -5 31 -2 36 14 4 17 -1 22 -27 25 -27 3
-26 4 10 5 70 3 83 -30 31 -83 -32 -33 -33 -33 -100 -28 -37 3 -67 10 -67 14
0 5 -7 9 -15 9 -16 0 -18 12 -9 48 4 12 14 22 25 22 10 0 21 5 24 10 3 6 14 9
23 9 15 -1 15 -2 0 -6z m928 -45 c0 -29 3 -73 8 -98 12 -65 -8 -38 -23 30 -11
53 -6 120 9 120 3 0 6 -24 6 -52z m2529 42 c-3 -5 -13 -10 -21 -10 -8 0 -12 5
-9 10 3 6 13 10 21 10 8 0 12 -4 9 -10z m-3100 -30 c3 -5 -1 -10 -10 -10 -9 0
-13 5 -10 10 3 6 8 10 10 10 2 0 7 -4 10 -10z m231 -27 c-2 -16 -5 -30 -5 -33
-1 -3 -6 3 -12 13 -5 9 -22 17 -36 17 -17 0 -23 4 -17 9 8 8 19 11 67 20 4 0
6 -11 3 -26z m1794 13 c0 -3 -4 -8 -10 -11 -5 -3 -10 -1 -10 4 0 6 5 11 10 11
6 0 10 -2 10 -4z m-56 -21 c-4 -8 -8 -15 -10 -15 -2 0 -4 7 -4 15 0 8 4 15 10
15 5 0 7 -7 4 -15z m1106 -20 c0 -13 5 -27 10 -30 6 -4 8 -10 5 -15 -3 -4 2
-38 10 -75 9 -37 15 -90 14 -118 -1 -29 1 -84 6 -123 6 -57 4 -76 -9 -102 -9
-18 -18 -46 -19 -62 -1 -17 -5 -30 -9 -30 -4 0 -16 -17 -27 -38 -11 -21 -27
-44 -35 -51 -9 -7 -23 -40 -32 -72 -9 -32 -21 -59 -25 -59 -5 0 -9 -7 -9 -15
0 -18 -70 -55 -105 -55 -14 0 -25 -4 -25 -10 0 -5 -11 -10 -24 -10 -13 0 -29
-7 -36 -15 -14 -17 -75 -21 -65 -5 3 6 17 10 31 10 15 0 23 4 19 10 -4 6 -3
10 2 9 4 -1 15 0 23 4 8 3 41 13 74 22 71 20 107 56 125 125 7 27 19 54 26 60
25 21 77 122 72 141 -3 11 -2 19 3 19 23 0 43 121 25 151 -4 6 -7 45 -7 87 1
72 -19 198 -36 232 -10 19 -3 52 9 45 5 -4 9 -17 9 -30z m-2883 0 c8 -9 13
-18 11 -21 -9 -9 -38 8 -38 22 0 18 8 18 27 -1z m-42 -43 c-8 -8 -25 10 -19
20 4 6 9 5 15 -3 4 -7 6 -15 4 -17z m-175 8 c0 -5 -4 -10 -9 -10 -6 0 -13 5
-16 10 -3 6 1 10 9 10 9 0 16 -4 16 -10z m2442 -43 c-29 -29 -49 -57 -45 -62
5 -4 3 -6 -2 -2 -6 3 -29 -8 -52 -23 -23 -16 -62 -32 -88 -35 -25 -4 -44 -10
-41 -12 3 -3 -2 -12 -10 -20 -8 -9 -13 -20 -11 -27 2 -6 -3 -17 -10 -25 -8 -7
-12 -19 -9 -27 3 -7 1 -14 -3 -16 -14 -5 -102 -188 -96 -198 4 -6 2 -10 -4
-10 -6 0 -13 -11 -17 -25 -3 -13 -12 -29 -20 -36 -8 -6 -11 -16 -7 -23 3 -6 3
-8 -1 -4 -5 4 -18 -5 -31 -20 -13 -15 -27 -24 -31 -20 -4 4 12 28 35 53 23 25
41 51 38 58 -2 6 0 16 5 22 16 19 119 238 114 243 -3 2 2 11 10 19 8 9 13 22
10 29 -3 8 -1 14 4 14 5 0 12 9 15 20 5 14 15 20 38 20 42 0 78 10 72 20 -3 4
7 11 23 15 33 8 84 54 75 68 -3 6 -2 7 4 4 5 -3 20 7 32 23 12 17 29 30 38 30
12 0 0 -17 -35 -53z m-2477 23 c3 -5 -1 -10 -9 -10 -9 0 -16 5 -16 10 0 6 4
10 9 10 6 0 13 -4 16 -10z m885 -143 c0 -31 -4 -46 -10 -42 -6 4 -10 23 -10
43 1 20 -1 48 -5 62 -6 24 -6 24 9 6 10 -12 16 -39 16 -69z m-255 4 c-14 -12
-77 -32 -83 -26 -3 2 10 11 29 19 38 17 68 21 54 7z m-295 -11 c0 -5 -2 -10
-4 -10 -3 0 -8 5 -11 10 -3 6 -1 10 4 10 6 0 11 -4 11 -10z m394 -21 c-3 -5
-9 -7 -14 -4 -12 7 -140 -24 -167 -41 -12 -8 -36 -14 -53 -14 -22 0 -38 -9
-57 -30 -37 -44 -50 -36 -14 9 24 30 40 40 69 44 20 2 51 9 67 15 98 35 185
45 169 21z m-204 1 c0 -5 -9 -10 -21 -10 -11 0 -17 5 -14 10 3 6 13 10 21 10
8 0 14 -4 14 -10z m-330 -20 c0 -5 -4 -10 -10 -10 -5 0 -10 5 -10 10 0 6 5 10
10 10 6 0 10 -4 10 -10z m-101 -66 c6 -45 9 -49 34 -47 34 2 36 -14 2 -23 -16
-4 -25 -13 -25 -25 0 -10 -4 -19 -9 -19 -5 0 -11 26 -14 58 -4 31 -9 73 -13
92 -5 27 -4 32 5 24 7 -6 16 -33 20 -60z m231 30 c0 -8 -4 -12 -10 -9 -5 3
-10 10 -10 16 0 5 5 9 10 9 6 0 10 -7 10 -16z m-520 -34 c0 -11 -4 -20 -10
-20 -5 0 -10 9 -10 20 0 11 5 20 10 20 6 0 10 -9 10 -20z m264 -5 c3 -8 1 -15
-4 -15 -6 0 -10 7 -10 15 0 8 2 15 4 15 2 0 6 -7 10 -15z m446 -5 c0 -5 -4
-10 -10 -10 -5 0 -10 5 -10 10 0 6 5 10 10 10 6 0 10 -4 10 -10z m413 -10 c-3
-11 -9 -20 -14 -20 -5 0 -9 9 -9 20 0 11 6 20 14 20 9 0 12 -7 9 -20z m-416
-89 c-6 -44 -26 -96 -33 -88 -3 3 -1 22 5 44 6 21 11 51 11 66 0 18 4 26 11
21 7 -4 9 -22 6 -43z m-329 -3 c-6 -18 -28 -21 -28 -4 0 9 7 16 16 16 9 0 14
-5 12 -12z m1422 -25 c0 -13 3 -15 8 -5 6 9 12 6 22 -12 14 -28 40 -42 40 -23
0 19 37 47 63 47 26 -1 57 -22 57 -39 0 -8 -7 -7 -22 3 -32 23 -55 20 -74 -9
-12 -18 -24 -25 -45 -23 -15 1 -27 5 -27 8 2 24 -5 31 -29 29 -16 -2 -33 -7
-40 -12 -9 -6 -9 -1 0 22 12 34 47 43 47 14z m-1473 -86 c-2 -7 -13 8 -24 33
-11 25 -18 49 -15 55 7 12 45 -72 39 -88z m-354 26 c3 -24 1 -43 -4 -43 -5 0
-9 21 -9 47 0 56 5 54 13 -4z m127 37 c0 -5 -4 -10 -10 -10 -5 0 -10 5 -10 10
0 6 5 10 10 10 6 0 10 -4 10 -10z m125 -78 c-7 -7 -65 19 -65 29 0 5 16 1 35
-8 19 -9 33 -19 30 -21z m515 28 c0 -5 -4 -10 -10 -10 -5 0 -10 5 -10 10 0 6
5 10 10 10 6 0 10 -4 10 -10z m-374 -111 c13 -21 33 -43 45 -49 11 -7 27 -28
36 -48 18 -43 52 -84 65 -76 12 8 68 -6 68 -17 0 -4 -14 -6 -32 -2 -28 5 -31
4 -24 -13 4 -10 16 -46 28 -79 11 -33 23 -64 27 -70 5 -5 18 -71 31 -145 l22
-135 62 -63 c33 -35 74 -73 89 -84 l28 -20 15 21 c12 17 25 21 70 21 30 0 54
-4 54 -10 0 -5 -22 -10 -48 -10 -36 0 -54 -5 -66 -19 -17 -19 -17 -20 3 -30
13 -8 22 -26 27 -56 l6 -45 44 0 c34 0 42 3 38 15 -4 8 -1 15 5 15 6 0 11 -5
11 -11 0 -7 12 -10 30 -7 17 3 30 1 30 -3 0 -14 -74 -33 -117 -30 -37 2 -43 0
-43 -18 0 -11 -4 -23 -10 -26 -5 -3 -10 3 -10 14 0 19 -6 21 -55 21 -50 0 -54
2 -45 18 5 9 14 29 20 45 13 37 38 36 32 -2 -4 -27 -2 -29 19 -24 15 4 20 3
15 -5 -4 -7 -2 -12 3 -12 6 0 11 17 11 38 0 48 -27 77 -65 70 -25 -5 -36 7
-12 15 7 2 -25 40 -74 88 l-85 84 -24 140 c-12 77 -27 145 -31 151 -5 6 -19
42 -32 80 l-23 69 -39 -3 c-53 -5 -85 -19 -85 -37 0 -8 -4 -15 -9 -15 -6 0 -8
9 -6 19 3 17 -1 19 -29 14 l-32 -5 5 44 c4 40 5 41 10 13 8 -40 36 -44 55 -8
15 27 15 27 16 4 0 -22 3 -23 41 -18 22 3 43 8 46 11 3 3 -6 19 -21 36 -14 17
-26 37 -26 43 0 7 -18 29 -40 51 -22 21 -40 43 -40 47 0 5 -6 9 -12 9 -14 0
-21 46 -11 70 5 11 8 8 11 -9 2 -13 15 -41 28 -62z m-336 -109 c12 -23 16 -41
10 -45 -19 -12 -87 172 -75 203 5 12 13 -4 26 -51 11 -38 28 -86 39 -107z
m440 160 c0 -5 -8 -10 -17 -10 -15 0 -16 2 -3 10 19 12 20 12 20 0z m-283 -15
c0 -8 -9 -15 -19 -15 -23 0 -24 17 0 23 9 3 17 5 18 6 0 0 1 -6 1 -14z m493
-10 c0 -14 -4 -25 -10 -25 -5 0 -10 11 -10 25 0 14 5 25 10 25 6 0 10 -11 10
-25z m-400 -48 c0 -5 -7 -4 -15 3 -8 7 -15 20 -15 29 1 13 3 13 15 -3 8 -11
15 -24 15 -29z m2340 -14 c0 -7 -4 -13 -10 -13 -5 0 -10 12 -10 28 0 21 2 24
10 12 5 -8 10 -21 10 -27z m-160 -32 c0 -5 -31 -25 -70 -45 -38 -21 -70 -38
-70 -40 0 -2 21 1 48 5 26 4 81 8 123 8 70 1 77 3 104 31 16 17 33 30 39 30 5
0 0 -10 -12 -23 -12 -13 -19 -27 -15 -32 5 -4 3 -5 -3 -2 -7 4 -15 0 -18 -9
-4 -10 -14 -14 -26 -11 -22 6 -196 -8 -250 -19 -31 -7 -34 -6 -22 8 10 13 10
17 0 21 -8 3 -5 6 7 7 11 0 49 18 85 40 69 41 80 45 80 31z m-940 -66 c0 -28
-12 -32 -30 -10 -14 16 -6 35 16 35 8 0 14 -10 14 -25z m700 15 c0 -5 -4 -10
-10 -10 -5 0 -10 5 -10 10 0 6 5 10 10 10 6 0 10 -4 10 -10z m-1710 -15 c0 -8
-4 -15 -10 -15 -5 0 -10 7 -10 15 0 8 5 15 10 15 6 0 10 -7 10 -15z m2134 -11
c4 -10 1 -14 -6 -12 -15 5 -23 28 -10 28 5 0 13 -7 16 -16z m-469 -23 c-3 -11
-14 -19 -25 -18 -26 2 -35 27 -10 27 10 0 22 5 25 11 11 16 18 3 10 -20z m92
5 c1 -1 -2 -21 -7 -44 -7 -42 -6 -45 24 -63 17 -10 34 -19 38 -19 3 0 15 -19
27 -42 22 -47 26 -95 15 -202 -5 -45 -4 -67 3 -63 6 4 8 -3 5 -18 -2 -14 3
-36 13 -51 9 -15 12 -24 7 -20 -9 6 -29 -48 -24 -67 1 -4 -4 -6 -10 -5 -8 2
-14 -9 -16 -24 -2 -16 -8 -28 -13 -28 -15 0 -10 39 11 80 20 40 27 86 11 76
-4 -3 -7 59 -6 137 2 146 -11 217 -36 201 -8 -4 -9 -3 -5 4 4 7 3 12 -3 12 -5
0 -30 16 -55 35 -26 19 -50 35 -54 35 -16 0 -61 -46 -64 -65 -2 -11 -9 -26
-15 -33 -7 -7 -13 -26 -13 -42 0 -34 -9 -60 -20 -60 -14 0 0 71 23 125 22 50
51 88 60 78 3 -2 11 5 17 17 l12 22 24 -23 c13 -12 26 -20 29 -17 11 10 -7 58
-21 58 -8 0 -14 5 -14 10 0 8 44 5 57 -4z m-1029 -32 c8 5 10 2 6 -8 -7 -19
-4 -19 -44 0 -27 14 -39 15 -65 5 -41 -14 -45 -14 -45 4 0 20 110 26 126 6 6
-8 16 -11 22 -7z m-990 -18 c3 -20 0 -27 -10 -24 -7 3 -12 12 -10 22 4 22 -36
21 -62 -3 -25 -21 -106 -44 -106 -29 0 5 9 12 20 15 11 3 18 9 15 13 -2 4 6 5
18 3 14 -3 30 3 42 17 14 15 28 20 54 18 31 -3 36 -7 39 -32z m492 14 c0 -5
-9 -10 -20 -10 -11 0 -20 5 -20 10 0 6 9 10 20 10 11 0 20 -4 20 -10z m-376
-104 c-10 -51 -23 -53 -21 -4 1 32 6 44 15 40 9 -3 11 -14 6 -36z m766 9 c0
-8 -4 -15 -10 -15 -5 0 -10 7 -10 15 0 8 5 15 10 15 6 0 10 -7 10 -15z m130
-5 c0 -5 -7 -10 -15 -10 -8 0 -15 -7 -15 -15 0 -21 -39 -40 -53 -26 -8 8 -8
11 1 11 7 0 12 9 12 19 0 14 8 21 28 24 15 2 30 5 35 6 4 0 7 -3 7 -9z m1970
-34 c0 -3 -4 -8 -10 -11 -5 -3 -10 -1 -10 4 0 6 5 11 10 11 6 0 10 -2 10 -4z
m-1161 -158 c-6 -18 -10 -50 -10 -70 0 -21 -4 -40 -10 -43 -13 -8 -11 75 2
114 15 41 30 40 18 -1z m-1620 -17 c-25 -32 -56 -48 -67 -36 -4 4 -1 10 7 13
7 2 28 17 45 32 39 35 46 31 15 -9z m248 -28 c-14 -15 -30 -23 -34 -19 -4 4 5
19 21 32 37 32 48 21 13 -13z m443 -13 c0 -11 -4 -20 -10 -20 -5 0 -10 9 -10
20 0 11 5 20 10 20 6 0 10 -9 10 -20z m1950 10 c0 -5 -4 -10 -10 -10 -5 0 -10
5 -10 10 0 6 5 10 10 10 6 0 10 -4 10 -10z m-2670 -98 c0 -4 -22 -18 -50 -29
-61 -26 -66 -15 -7 14 47 24 57 27 57 15z m837 -42 c3 -16 9 -30 14 -30 5 0 8
-3 7 -7 0 -5 2 -16 6 -25 4 -9 3 -25 -3 -35 -9 -16 -10 -15 -11 8 0 15 -9 38
-21 53 -12 15 -17 31 -13 38 5 7 -9 0 -30 -16 -20 -15 -40 -25 -44 -21 -4 3 0
10 8 15 8 4 26 18 39 29 32 28 40 27 48 -9z m-257 -90 c0 -5 -4 -10 -10 -10
-5 0 -10 5 -10 10 0 6 5 10 10 10 6 0 10 -4 10 -10z m275 -34 c17 -14 24 -25
17 -26 -15 0 -82 51 -82 63 0 10 27 -5 65 -37z m2175 13 c0 -5 -4 -9 -10 -9
-5 0 -10 7 -10 16 0 8 5 12 10 9 6 -3 10 -10 10 -16z m-2721 -15 c25 -32 26
-40 5 -48 -21 -8 -33 2 -16 13 9 6 7 12 -8 26 -11 10 -20 22 -20 27 0 16 19 8
39 -18z m-269 -40 c0 -21 -4 -33 -10 -29 -5 3 -10 19 -10 36 0 16 5 29 10 29
6 0 10 -16 10 -36z m662 -21 c18 -15 35 -28 37 -30 2 -2 2 -6 -2 -9 -3 -3 -21
6 -40 20 -19 14 -41 26 -50 26 -10 0 -17 5 -17 10 0 19 39 10 72 -17z m208
-24 c0 -14 -26 -39 -34 -32 -3 3 -2 11 2 17 4 6 7 14 8 19 1 4 2 10 3 13 2 9
21 -6 21 -17z m1960 -29 c0 -5 -13 -10 -29 -10 -17 0 -33 5 -36 10 -4 6 8 10
29 10 20 0 36 -4 36 -10z m-2830 -30 c0 -5 -5 -10 -11 -10 -5 0 -7 5 -4 10 3
6 8 10 11 10 2 0 4 -4 4 -10z m66 -47 c13 -38 11 -54 -5 -37 -12 11 -27 92
-15 81 4 -4 13 -24 20 -44z m363 -58 c0 -5 -4 -3 -9 5 -5 8 -9 22 -9 30 0 16
17 -16 18 -35z m-310 -29 c22 -35 27 -91 11 -116 -11 -17 -12 -11 -10 46 1 26
-4 45 -14 53 -14 12 -23 51 -12 51 2 0 14 -15 25 -34z m331 -16 c10 -20 10
-23 0 -13 -9 9 -19 9 -32 2 -11 -6 -23 -7 -26 -3 -4 4 -1 9 6 11 7 3 18 11 25
18 7 7 13 12 13 11 1 0 7 -12 14 -26z m54 -120 c15 -30 15 -32 1 -15 -9 11
-23 19 -31 17 -8 -2 -14 1 -14 6 0 8 22 34 26 29 1 -1 9 -18 18 -37z m988 -11
c1 -28 1 -53 -2 -56 -3 -2 -12 -50 -22 -106 -9 -56 -18 -111 -20 -122 -1 -11
-9 -26 -16 -34 -7 -7 -11 -18 -9 -25 2 -6 -3 -17 -10 -25 -8 -7 -12 -18 -10
-25 4 -13 -17 -36 -32 -36 -6 0 -11 5 -11 10 0 6 4 10 9 10 14 0 74 170 77
219 1 25 5 53 8 61 11 31 24 139 19 159 -3 12 -1 21 5 21 5 0 12 -23 14 -51z
m-852 12 c0 -17 -3 -18 -25 -8 -32 15 -32 27 0 27 18 0 25 -5 25 -19z m-31
-44 c6 -8 8 -17 4 -20 -7 -8 -33 11 -33 24 0 13 16 11 29 -4z m0 -53 c5 -4 -9
-24 -17 -24 -4 0 -13 9 -20 21 -12 19 -12 20 10 14 13 -4 25 -9 27 -11z m52
-17 c-16 -16 -26 0 -10 19 9 11 15 12 17 4 2 -6 -1 -17 -7 -23z m-457 -38 c47
-64 109 -115 127 -104 6 4 7 20 4 36 -6 24 -3 29 13 29 10 0 24 11 32 24 11
21 15 23 31 13 25 -16 24 -31 -1 -24 -13 3 -20 0 -20 -10 0 -8 -9 -17 -21 -20
-11 -3 -17 -9 -12 -12 4 -3 16 -23 25 -43 l18 -38 -24 0 c-20 0 -23 -4 -19
-22 3 -13 16 -33 29 -44 32 -29 30 -34 -11 -34 l-35 0 0 48 c0 78 -1 83 -11
77 -18 -12 -110 55 -122 88 -4 11 -12 15 -18 11 -7 -4 -9 -3 -5 4 15 24 -14
19 -52 -9 -23 -17 -42 -26 -42 -21 0 6 18 24 40 40 35 25 38 31 25 42 -8 7
-15 16 -15 21 0 22 22 4 64 -52z m136 41 c0 -13 -11 -13 -30 0 -12 8 -11 10 8
10 12 0 22 -4 22 -10z m760 -10 c6 -11 17 -20 25 -20 8 0 15 -2 15 -5 0 -12
-75 -135 -82 -135 -12 0 -10 5 22 60 17 28 30 55 30 60 0 5 -11 17 -25 28 -13
11 -21 22 -18 26 11 11 22 6 33 -14z m-855 -10 c-3 -5 -10 -10 -16 -10 -5 0
-9 5 -9 10 0 6 7 10 16 10 8 0 12 -4 9 -10z m520 -9 c5 -1 5 -5 -1 -11 -11
-11 -54 -2 -54 11 0 5 10 7 23 5 12 -3 26 -5 32 -5z m-225 -10 c0 -5 -7 -12
-16 -15 -24 -9 -28 -7 -14 9 14 17 30 20 30 6z m375 -12 c5 -5 -3 -9 -20 -9
-46 0 -105 12 -105 21 0 10 112 -1 125 -12z m1295 6 c-7 -8 -17 -15 -22 -15
-6 0 -5 7 2 15 7 8 17 15 22 15 6 0 5 -7 -2 -15z m-1027 -25 c3 -11 1 -20 -4
-20 -5 0 -9 2 -9 4 0 2 -3 11 -6 20 -3 9 -2 16 4 16 5 0 12 -9 15 -20z m-878
-10 c3 -5 1 -10 -4 -10 -6 0 -11 5 -11 10 0 6 2 10 4 10 3 0 8 -4 11 -10z
m1855 -7 c0 -4 -17 -24 -37 -45 l-37 -38 29 -30 c16 -16 26 -33 22 -36 -4 -4
-19 7 -34 23 l-28 30 -86 -73 c-48 -41 -110 -100 -138 -131 -28 -33 -51 -51
-51 -42 0 8 13 28 30 44 16 15 26 33 23 39 -3 6 -3 8 1 5 7 -7 33 16 191 166
94 89 115 105 115 88z m-1570 -28 c17 -20 3 -39 -16 -21 -16 16 -19 36 -5 36
5 0 14 -7 21 -15z m-170 -45 c0 -5 -4 -10 -10 -10 -5 0 -10 5 -10 10 0 6 5 10
10 10 6 0 10 -4 10 -10z m247 -47 c-8 -10 -16 -22 -15 -26 0 -5 -3 -11 -6 -14
-3 -4 -6 5 -6 20 0 23 10 34 34 36 5 1 2 -7 -7 -16z m2216 -20 c3 -16 3 -30 1
-33 -7 -7 -24 23 -24 43 0 27 17 20 23 -10z m-2078 -22 c3 -5 1 -12 -5 -16 -5
-3 -10 1 -10 9 0 18 6 21 15 7z m-297 -50 c0 -17 -7 -36 -18 -46 -17 -16 -19
-15 -30 4 -9 18 -7 25 16 46 15 14 28 25 29 25 1 0 2 -13 3 -29z m98 21 c14
-10 74 -98 74 -110 0 -5 -16 -12 -35 -14 -19 -2 -35 0 -35 4 0 4 12 8 26 8 14
0 24 3 22 8 -13 29 -56 83 -70 88 -10 3 -18 10 -18 15 0 11 21 12 36 1z m424
-2 c0 -5 -4 -10 -10 -10 -5 0 -10 5 -10 10 0 6 5 10 10 10 6 0 10 -4 10 -10z
m-592 -89 c-2 -9 6 -23 17 -33 11 -9 17 -20 13 -24 -4 -4 -15 -1 -25 7 -11 9
-14 10 -9 1 4 -7 -4 -23 -23 -40 -30 -27 -30 -28 -10 -40 27 -17 17 -27 -11
-12 -25 14 -42 3 -64 -40 -10 -21 -11 -31 -2 -41 8 -9 6 -11 -11 -6 -23 5 -33
-8 -33 -44 0 -17 -3 -18 -20 -7 -22 14 -27 38 -7 38 6 0 20 12 29 28 9 15 26
42 38 60 13 18 19 32 14 31 -21 -4 -35 2 -29 11 4 6 11 8 16 5 5 -4 9 1 9 9 0
8 -4 18 -10 21 -16 10 -12 23 7 21 9 0 26 14 37 31 14 22 27 32 39 29 14 -4
16 0 11 17 -6 20 -5 20 10 8 9 -8 15 -21 14 -30z m96 -28 c-34 -17 -38 -13
-18 16 13 17 19 20 30 10 12 -10 10 -14 -12 -26z m1786 17 c0 -5 -5 -10 -11
-10 -5 0 -7 5 -4 10 3 6 8 10 11 10 2 0 4 -4 4 -10z m-310 -20 c-8 -5 -39 -15
-68 -21 -33 -8 -57 -20 -63 -31 -14 -26 -49 -61 -55 -55 -13 13 26 74 52 84
78 29 167 44 134 23z m311 -63 c-8 -8 -11 0 -10 29 1 39 1 39 11 11 7 -21 7
-32 -1 -40z m-1701 33 c0 -5 -5 -10 -11 -10 -5 0 -7 5 -4 10 3 6 8 10 11 10 2
0 4 -4 4 -10z m722 -2 c-7 -7 -12 -36 -12 -65 0 -41 -3 -53 -15 -53 -13 0 -14
4 -5 20 6 11 7 20 2 20 -11 0 -3 61 10 78 6 6 15 12 21 12 7 0 7 -4 -1 -12z
m-832 -18 c0 -5 -2 -10 -4 -10 -3 0 -8 5 -11 10 -3 6 -1 10 4 10 6 0 11 -4 11
-10z m70 -18 c0 -4 -20 -32 -44 -61 -25 -30 -42 -59 -39 -64 3 -5 21 -7 39 -4
19 3 34 2 34 -4 0 -8 -23 -13 -57 -12 -23 1 -13 -12 17 -24 17 -6 30 -17 30
-23 0 -8 -6 -9 -17 -4 -10 4 -35 8 -55 8 -40 0 -47 7 -24 28 12 11 11 15 -8
25 l-21 12 21 1 c34 0 37 35 5 50 -25 11 -25 12 -6 26 21 16 45 18 45 5 0 -5
-6 -12 -12 -15 -7 -3 -2 -3 12 0 14 4 25 7 26 8 15 36 54 71 54 48z m153 -25
c9 -3 17 -13 17 -21 0 -10 -6 -13 -17 -9 -30 10 -43 25 -43 47 1 18 2 19 13 5
7 -8 20 -18 30 -22z m1097 -37 c0 -5 -4 -10 -10 -10 -5 0 -10 5 -10 10 0 6 5
10 10 10 6 0 10 -4 10 -10z m-142 -6 c25 -7 30 -31 7 -31 -8 0 -15 6 -15 13 0
10 -10 12 -32 8 -25 -4 -29 -3 -18 5 17 12 26 13 58 5z m-858 -54 c13 -24 13
-40 0 -40 -5 0 -10 9 -10 19 0 12 -11 25 -27 33 -14 7 -28 18 -30 25 -7 19 55
-15 67 -37z m-365 20 c3 -5 -1 -10 -10 -10 -9 0 -13 5 -10 10 3 6 8 10 10 10
2 0 7 -4 10 -10z m-57 -22 c13 -13 17 -58 4 -58 -4 0 -16 11 -26 25 -10 14
-26 25 -35 26 -9 1 -5 5 9 9 35 11 35 11 48 -2z m307 -16 c29 -25 57 -71 50
-82 -11 -18 -22 -10 -28 19 -4 18 -18 36 -36 47 -16 10 -28 21 -25 26 7 12 17
9 39 -10z m1345 8 c0 -5 -4 -10 -10 -10 -5 0 -10 5 -10 10 0 6 5 10 10 10 6 0
10 -4 10 -10z m-735 -8 c6 -4 7 -24 4 -47 l-6 -40 -2 38 c-1 25 -6 37 -15 37
-8 0 -18 5 -21 10 -7 11 25 13 40 2z m775 -2 c0 -5 -7 -10 -15 -10 -8 0 -15 5
-15 10 0 6 7 10 15 10 8 0 15 -4 15 -10z m-1580 -90 c0 -5 -4 -10 -10 -10 -5
0 -10 5 -10 10 0 6 5 10 10 10 6 0 10 -4 10 -10z"/>
<path d="M3550 4290 c0 -9 59 -25 66 -18 2 3 -12 9 -31 15 -19 6 -35 7 -35 3z"/>
<path d="M2821 4058 c-1 -15 4 -30 9 -33 12 -7 12 12 0 40 -8 18 -9 17 -9 -7z"/>
<path d="M2790 4056 c0 -8 5 -18 10 -21 6 -3 10 1 10 9 0 8 -4 18 -10 21 -5 3
-10 -1 -10 -9z"/>
<path d="M3236 3744 c-4 -9 -5 -19 -3 -21 7 -6 57 19 57 29 0 15 -48 8 -54 -8z"/>
<path d="M2500 3305 c0 -9 9 -15 25 -15 14 0 25 5 25 11 0 6 -9 9 -20 6 -11
-3 -18 -1 -14 4 3 5 0 9 -5 9 -6 0 -11 -7 -11 -15z"/>
<path d="M2505 3260 c3 -5 10 -10 16 -10 5 0 9 5 9 10 0 6 -7 10 -16 10 -8 0
-12 -4 -9 -10z"/>
<path d="M3090 2955 c0 -8 -7 -15 -15 -15 -9 0 -12 -6 -9 -15 4 -9 0 -15 -10
-15 -10 0 -13 -6 -10 -15 4 -8 2 -15 -3 -15 -4 0 -17 -15 -27 -34 -10 -19 -26
-36 -36 -39 -28 -7 -14 -47 16 -47 12 0 26 5 29 10 3 6 -1 10 -9 10 -23 0 13
58 41 65 12 3 28 12 36 20 8 7 26 17 41 21 21 5 25 3 20 -10 -3 -8 -15 -14
-26 -13 -32 3 -33 -21 -2 -29 15 -4 39 -13 53 -20 24 -13 26 -12 29 7 6 33
-27 96 -64 124 -37 29 -54 32 -54 10z"/>
<path d="M3159 2780 c-4 -47 6 -58 31 -35 24 22 26 40 3 31 -9 -4 -20 -1 -25
6 -6 10 -8 10 -9 -2z"/>
<path d="M3290 2616 c0 -9 5 -16 10 -16 6 0 10 4 10 9 0 6 -4 13 -10 16 -5 3
-10 -1 -10 -9z"/>
<path d="M3203 2604 c-9 -4 -9 -11 -1 -29 13 -29 28 -23 28 11 0 24 -4 27 -27
18z"/>
<path d="M2687 2710 c4 -14 14 -20 33 -20 19 0 29 6 33 20 4 17 0 20 -33 20
-33 0 -37 -3 -33 -20z"/>
<path d="M2790 2700 c0 -23 25 -27 33 -6 7 16 -1 26 -20 26 -7 0 -13 -9 -13
-20z"/>
<path d="M3657 300 c-11 -11 -14 -20 -8 -24 5 -4 15 3 21 15 15 27 10 31 -13
9z"/>
<path d="M4736 6595 c-3 -8 -1 -15 4 -15 6 0 10 7 10 15 0 8 -2 15 -4 15 -2 0
-6 -7 -10 -15z"/>
<path d="M4647 6584 c-4 -4 -7 -14 -7 -23 0 -11 3 -12 11 -4 6 6 10 16 7 23
-2 6 -7 8 -11 4z"/>
<path d="M5177 92 c-15 -10 -24 -22 -20 -27 5 -4 2 -5 -5 -1 -7 4 -18 3 -25
-2 -7 -6 -23 -12 -36 -14 -16 -2 -25 -11 -27 -25 l-4 -23 156 0 c178 0 179 1
70 72 -68 44 -71 44 -109 20z"/>
<path d="M4840 50 c-30 -10 -77 -25 -105 -33 -49 -15 -45 -15 128 -16 170 -1
177 0 177 19 0 14 -10 22 -37 29 -77 20 -108 20 -163 1z"/>
</g>
</svg>
