<?xml version="1.0" standalone="no"?>
<!DOCTYPE svg PUBLIC "-//W3C//DTD SVG 20010904//EN"
 "http://www.w3.org/TR/2001/REC-SVG-20010904/DTD/svg10.dtd">
<svg version="1.0" xmlns="http://www.w3.org/2000/svg"
 width="800.000000pt" height="800.000000pt" viewBox="0 0 800.000000 800.000000"
 preserveAspectRatio="xMidYMid meet">
<metadata>
Created by potrace 1.16, written by Peter Selinger 2001-2019
</metadata>
<g transform="translate(0.000000,800.000000) scale(0.100000,-0.100000)"
fill="#000000" stroke="none">
<path d="M0 5980 c0 -2013 0 -2020 20 -2020 11 0 20 -5 20 -11 0 -6 -9 -8 -20
-4 -19 6 -20 2 -20 -133 0 -103 3 -142 13 -146 10 -5 10 -7 0 -12 -16 -7 -19
-264 -4 -264 5 0 11 -12 13 -27 2 -19 13 -32 33 -43 17 -8 33 -19 36 -23 3 -5
10 -8 15 -8 5 1 11 -41 14 -92 6 -107 16 -127 66 -127 23 0 41 -8 54 -23 48
-53 55 -62 55 -69 0 -3 3 -10 7 -14 12 -11 10 -54 -2 -54 -5 0 -10 7 -10 16 0
9 -12 30 -27 48 -17 20 -24 24 -19 11 4 -11 17 -44 29 -73 13 -35 23 -49 28
-40 6 9 10 7 14 -7 17 -52 28 -75 35 -75 4 0 11 -12 14 -26 5 -20 10 -23 20
-15 10 9 16 5 25 -16 10 -25 85 -83 105 -83 5 0 -8 22 -27 48 -19 27 -38 64
-42 83 -4 19 -25 53 -49 79 -36 37 -47 59 -65 130 -22 82 -78 199 -163 339
-22 35 -37 66 -34 69 3 3 7 3 9 1 12 -17 87 -141 87 -145 0 -3 20 -40 44 -82
25 -43 56 -116 69 -166 22 -76 32 -95 71 -135 34 -35 46 -54 46 -77 0 -19 13
-49 35 -80 l35 -49 0 31 c0 19 8 38 21 50 12 10 25 29 30 42 5 13 13 20 19 17
6 -4 10 5 10 19 0 14 4 26 9 26 4 0 6 11 3 25 -3 21 -1 24 12 19 11 -4 15 -12
10 -23 -14 -35 -16 -51 -5 -51 6 0 11 -7 11 -15 0 -8 4 -15 9 -15 5 0 7 -9 4
-20 -7 -28 -23 -25 -23 4 0 14 -4 28 -10 31 -5 3 -10 -2 -10 -11 0 -10 -15
-31 -32 -46 -18 -16 -28 -27 -22 -24 14 7 29 -21 33 -61 0 -7 7 -13 14 -13 16
0 38 47 30 66 -7 19 31 19 47 -1 10 -12 10 -15 -1 -15 -8 0 -20 -9 -26 -19
-17 -27 5 -23 37 7 28 26 36 27 44 6 9 -23 -41 -66 -64 -54 -29 15 -58 1 -62
-31 -3 -16 -1 -29 3 -29 21 0 138 43 164 60 27 18 47 20 173 20 88 0 142 -4
142 -10 0 -6 -54 -10 -141 -10 -125 0 -144 -2 -169 -20 -15 -11 -38 -24 -51
-29 l-24 -10 24 0 c13 -1 39 9 58 20 19 12 36 19 39 16 12 -11 -64 -55 -106
-62 -25 -4 -55 -13 -67 -21 -30 -19 -40 -18 -46 6 -3 11 -12 20 -21 20 -13 0
-15 -7 -10 -39 5 -33 3 -41 -17 -55 -33 -22 -49 -20 -21 4 30 25 28 85 -3 85
-11 0 -20 5 -20 10 -2 32 -19 54 -45 60 -17 4 -30 10 -30 13 -1 4 -17 25 -36
47 -20 22 -33 32 -30 22 3 -11 9 -30 13 -44 10 -40 -14 -19 -27 25 -7 20 -19
42 -27 49 -8 6 -12 16 -9 21 3 5 -8 27 -25 50 -36 49 -89 176 -86 205 2 19 -4
23 -48 27 -35 4 -49 9 -47 19 1 7 -4 23 -12 36 -8 12 -18 59 -21 104 -7 79
-14 93 -45 97 -8 1 -23 5 -32 9 -16 6 -18 0 -18 -53 0 -48 4 -61 17 -67 17 -6
17 -7 0 -19 -16 -12 -17 -38 -16 -307 l1 -294 59 3 c38 3 59 0 59 -7 0 -7 -23
-11 -60 -11 l-60 0 0 -113 c0 -77 4 -117 12 -126 11 -11 10 -13 0 -7 -10 6
-12 -216 -12 -1148 l1 -1156 3632 2 c3551 3 3633 3 3678 22 29 12 53 16 65 11
16 -6 12 -9 -20 -17 -22 -4 -42 -11 -45 -13 -2 -3 47 -5 109 -5 62 0 111 3
107 6 -3 3 -1 11 4 18 5 6 17 20 25 31 l15 20 -4 -20 c-3 -11 -8 -28 -12 -37
-7 -17 3 -18 125 -18 115 0 131 2 126 16 -3 8 -2 12 4 9 13 -8 13 21 1 44 -6
10 -11 57 -12 104 -1 48 -6 87 -10 87 -5 0 -9 -4 -9 -9 0 -5 -14 -14 -30 -21
-17 -7 -39 -23 -49 -36 -11 -13 -21 -24 -24 -24 -11 0 0 51 13 63 10 9 11 9 6
0 -14 -24 14 -13 30 12 9 14 26 25 38 25 25 0 103 112 113 161 6 34 100 142
114 133 5 -3 9 514 9 1265 0 699 -3 1271 -7 1271 -23 0 -92 -34 -86 -43 3 -6
1 -7 -6 -3 -15 10 -172 -55 -164 -67 3 -6 1 -7 -6 -3 -6 4 -24 -2 -40 -13 -16
-12 -42 -21 -58 -21 -17 0 -38 -9 -48 -20 -12 -13 -25 -18 -38 -14 -13 4 -24
-1 -34 -16 -12 -17 -21 -20 -46 -15 -18 4 -42 16 -54 27 -12 11 -33 21 -46 22
-14 0 -23 4 -21 7 6 10 -76 40 -88 33 -6 -4 -8 -2 -4 4 4 6 -7 16 -26 22 -27
10 -36 21 -49 64 -14 42 -15 69 -8 160 l9 108 -32 44 c-17 24 -35 41 -40 38
-5 -3 -7 0 -6 8 2 7 -4 13 -13 12 -9 -1 -16 4 -17 10 0 6 -4 21 -7 34 -5 14
-3 22 4 22 6 0 11 -5 11 -11 0 -7 15 -26 33 -44 17 -17 44 -49 58 -71 26 -38
27 -41 19 -151 -6 -78 -5 -122 4 -145 16 -48 26 -60 43 -54 8 3 12 2 9 -3 -8
-12 72 -43 86 -35 6 4 8 2 5 -3 -8 -13 69 -46 84 -37 5 3 9 2 8 -3 -4 -22 3
-31 27 -37 20 -5 33 -1 49 14 14 13 28 18 40 14 14 -6 16 -4 10 7 -4 8 -5 11
0 7 4 -4 17 -1 29 7 11 8 30 15 41 15 28 0 176 75 167 85 -4 5 -1 5 6 1 14 -8
173 54 167 65 -3 4 3 6 13 5 16 -1 17 128 20 2437 l2 2437 -4000 0 -4000 0 0
-2020z m3800 1305 c36 -4 38 -6 10 -14 -27 -8 -80 7 -80 22 0 5 10 6 23 2 12
-4 33 -8 47 -10z m-416 -120 c5 -15 -28 -35 -58 -35 -18 0 -41 29 -31 38 4 4
10 1 12 -5 7 -19 53 -16 53 2 0 20 16 19 24 0z m-171 -291 c-26 -43 -35 -50
-86 -65 -45 -13 -69 -15 -119 -8 -35 5 -71 10 -80 11 -9 1 -15 5 -12 9 2 4 -6
9 -19 12 -12 2 -31 8 -41 12 -15 7 -17 5 -11 -6 4 -8 4 -11 0 -6 -5 4 -24 -7
-42 -25 -39 -38 -44 -23 -7 21 14 16 25 33 25 36 -1 3 0 4 2 4 1 -1 21 8 44
19 23 12 44 18 47 13 3 -4 -6 -13 -21 -20 -30 -14 -26 -20 25 -39 79 -30 143
-34 202 -15 49 16 58 24 80 65 14 26 28 44 33 39 4 -4 -5 -30 -20 -57z m-523
-195 c0 -11 -69 -43 -77 -35 -3 2 12 14 34 25 46 24 43 23 43 10z m2340 -173
c0 -2 -8 -10 -17 -17 -16 -13 -17 -12 -4 4 13 16 21 21 21 13z m79 -193 c7 -5
-61 -73 -73 -73 -5 0 5 15 23 34 l33 34 -31 7 c-17 4 -29 10 -26 15 5 7 61 -5
74 -17z m58 -18 c20 -8 33 -18 30 -21 -7 -8 -77 18 -77 28 0 11 5 10 47 -7z
m-1631 -42 c3 9 10 14 15 11 5 -3 7 -10 4 -15 -4 -5 1 -12 9 -15 9 -3 13 -10
10 -16 -3 -5 -11 -4 -20 3 -11 9 -14 9 -14 0 0 -7 -16 0 -35 15 -19 14 -32 31
-29 36 3 5 17 0 30 -13 21 -19 24 -20 30 -6z m1444 -90 c0 -7 -6 -13 -12 -12
-31 4 -69 -2 -64 -9 3 -5 -8 -6 -24 -4 -41 6 -28 20 25 28 25 3 43 10 40 14
-3 5 4 6 15 3 11 -3 20 -12 20 -20z m50 17 c0 -5 -9 -10 -20 -10 -11 0 -20 5
-20 10 0 6 9 10 20 10 11 0 20 -4 20 -10z m201 -68 c-6 -12 -7 -23 -1 -30 7
-9 7 -9 -2 -2 -7 6 -16 6 -25 -1 -10 -9 -13 -8 -13 4 0 8 7 20 15 27 8 7 15
25 15 40 0 14 3 30 8 34 11 12 14 -51 3 -72z m44 -72 c10 -11 16 -20 13 -20
-3 0 -13 9 -23 20 -10 11 -16 20 -13 20 3 0 13 -9 23 -20z m-725 -39 c-58 -39
-64 -48 -65 -94 0 -25 -3 -43 -7 -40 -10 6 -10 -1 2 -31 6 -18 6 -26 -1 -26
-6 0 -13 9 -16 20 -3 11 -10 17 -15 14 -6 -4 -5 3 2 16 6 12 12 43 13 70 1 26
4 46 6 44 8 -8 41 18 35 28 -4 6 -3 8 3 5 6 -4 19 0 29 7 10 8 23 12 28 8 5
-3 -1 -13 -14 -21z m1320 -86 c-7 -8 -19 -15 -27 -15 -13 0 -13 3 -3 15 7 8
19 15 27 15 13 0 13 -3 3 -15z m-3770 -22 c0 -2 -7 -12 -16 -21 -15 -15 -15
-17 5 -30 20 -13 32 -40 12 -28 -5 3 -21 -6 -37 -21 -26 -24 -70 -41 -59 -22
3 4 -10 12 -28 19 -17 7 -27 14 -20 17 7 2 21 0 32 -6 33 -18 54 -14 48 9 -3
11 -2 18 2 15 9 -5 32 65 26 76 -3 4 4 5 15 2 11 -3 20 -7 20 -10z m114 -39
c14 -5 15 -17 10 -73 -4 -36 -11 -70 -16 -76 -7 -7 -8 8 -4 43 7 51 6 52 -19
52 -14 0 -25 4 -25 9 0 4 11 6 25 3 18 -3 25 0 25 12 0 9 -6 16 -14 16 -8 0
-18 5 -21 10 -7 11 15 13 39 4z m-249 -114 c3 -5 -1 -10 -10 -10 -9 0 -13 5
-10 10 3 6 8 10 10 10 2 0 7 -4 10 -10z m1772 -72 c-3 -7 -5 -2 -5 12 0 14 2
19 5 13 2 -7 2 -19 0 -25z m-1603 -23 c-4 -8 -1 -15 5 -15 6 0 11 -4 11 -10 0
-12 -10 -13 -28 -2 -13 9 -6 42 9 42 4 0 6 -7 3 -15z m3700 -66 c-6 -11 -24
-2 -24 11 0 5 7 7 15 4 8 -4 12 -10 9 -15z m-2014 -59 c0 -5 -7 -10 -15 -10
-11 0 -12 -5 -5 -26 6 -14 8 -29 5 -34 -3 -5 1 -10 7 -13 7 -2 9 -8 5 -13 -11
-11 -30 21 -38 63 -5 27 -2 33 15 36 12 2 22 5 24 6 1 0 2 -3 2 -9z m2104 -18
c-5 -4 -20 -24 -33 -44 -16 -28 -29 -38 -47 -38 -36 0 -64 -18 -64 -41 0 -23
-22 -34 -47 -24 -16 7 -15 9 7 14 15 4 27 16 30 31 5 20 15 27 53 34 42 7 49
12 54 38 3 17 15 33 27 38 23 8 37 3 20 -8z m-3911 -21 c23 -16 68 -37 100
-47 31 -10 57 -21 57 -24 0 -14 83 -62 99 -57 14 3 17 -1 13 -19 -4 -24 -17
-32 -24 -16 -1 5 -25 23 -53 42 -27 18 -52 37 -55 40 -3 4 -26 14 -52 23 -58
19 -161 87 -132 87 3 0 24 -13 47 -29z m1424 7 c-3 -8 -6 -5 -6 6 -1 11 2 17
5 13 3 -3 4 -12 1 -19z m318 3 c-3 -6 -16 -11 -28 -11 -21 1 -21 1 3 15 27 14
36 13 25 -4z m290 -4 c17 -13 17 -14 -5 -20 -12 -3 -19 -3 -16 0 3 4 1 12 -5
20 -15 17 2 17 26 0z m-712 -14 c-7 -2 -19 -2 -25 0 -7 3 -2 5 12 5 14 0 19
-2 13 -5z m-943 -23 c0 -5 -5 -10 -11 -10 -5 0 -7 5 -4 10 3 6 8 10 11 10 2 0
4 -4 4 -10z m980 -23 c8 -17 21 -31 27 -30 7 2 10 -4 7 -11 -6 -16 -34 -10
-34 6 0 6 -7 8 -15 4 -8 -3 -15 -1 -15 4 0 6 4 10 10 10 6 0 6 9 0 25 -14 36
2 30 20 -8z m230 -8 c0 -16 -4 -29 -10 -29 -5 0 -10 16 -10 36 0 21 4 33 10
29 6 -3 10 -19 10 -36z m-1245 11 c-3 -5 -11 -10 -16 -10 -6 0 -7 5 -4 10 3 6
11 10 16 10 6 0 7 -4 4 -10z m1475 -34 c0 -8 -4 -18 -10 -21 -5 -3 -10 3 -10
14 0 12 5 21 10 21 6 0 10 -6 10 -14z m490 -24 c0 -4 -6 -14 -12 -21 -11 -10
-9 -11 7 -6 19 6 19 6 1 -7 -10 -7 -26 -21 -34 -30 -12 -12 -20 -14 -34 -7
-10 5 -18 14 -18 20 0 6 4 8 9 4 5 -3 22 8 38 24 28 30 43 38 43 23z m-440
-14 c0 -5 -11 -8 -25 -8 -14 0 -25 4 -25 9 0 5 11 8 25 7 14 0 25 -4 25 -8z
m38 -16 c2 -7 -5 -12 -17 -12 -14 0 -19 5 -14 15 6 17 25 15 31 -3z m-558 4
c0 -3 -4 -8 -10 -11 -5 -3 -10 -1 -10 4 0 6 5 11 10 11 6 0 10 -2 10 -4z m648
-14 c-10 -2 -18 -8 -18 -13 0 -5 -5 -9 -10 -9 -7 0 -7 6 0 20 7 13 16 17 28
12 16 -6 16 -7 0 -10z m86 -18 c9 -3 14 -10 11 -14 -3 -5 4 -15 16 -24 20 -13
23 -12 50 15 15 16 31 29 35 29 11 0 43 -45 44 -62 0 -10 5 -18 10 -18 9 0 14
14 11 33 0 4 11 6 27 6 16 -1 20 -3 10 -6 -21 -5 -23 -14 -6 -31 9 -9 7 -12
-12 -14 -14 0 -35 0 -48 1 -29 2 -25 -15 11 -48 28 -26 28 -26 12 -70 -12 -36
-13 -46 -3 -53 7 -4 16 -8 19 -8 3 0 4 -33 1 -72 -3 -57 0 -85 16 -125 11 -29
16 -53 11 -53 -14 0 -29 45 -43 122 -6 37 -15 70 -19 74 -5 5 -5 0 -1 -11 7
-18 6 -19 -10 -6 -19 16 -17 38 11 125 15 48 15 50 -7 68 -27 22 -34 22 -54 2
-18 -18 -21 -61 -5 -66 15 -5 41 -68 28 -68 -5 0 -14 11 -19 25 -5 14 -16 25
-24 25 -19 0 -10 77 12 102 15 18 10 48 -7 48 -6 0 -20 -13 -33 -30 -12 -16
-29 -32 -39 -35 -9 -3 -16 -11 -16 -18 1 -23 -27 -77 -41 -77 -7 0 -15 -7 -18
-15 -4 -8 -13 -15 -21 -15 -10 0 -3 14 21 40 33 37 41 51 37 73 -1 4 9 12 21
18 13 6 31 21 41 35 l18 24 -30 0 c-22 0 -29 4 -25 14 11 29 -41 39 -96 18
-24 -9 -28 -9 -62 -11 l-33 -2 45 -24 45 -24 22 27 c16 19 23 22 23 11 0 -9
-9 -24 -20 -34 -20 -18 -22 -18 -75 8 -30 15 -61 24 -70 21 -8 -4 -15 -1 -15
5 0 6 6 11 13 11 18 0 67 23 67 32 0 4 15 4 33 2 24 -4 94 11 114 25 1 0 8 -2
17 -5z m421 -34 c-3 -5 -15 -10 -26 -10 -11 0 -17 5 -14 10 3 6 15 10 26 10
11 0 17 -4 14 -10z m1555 7 c0 -1 -24 -25 -52 -52 l-53 -50 50 53 c46 48 55
57 55 49z m-4090 -15 c0 -9 60 -37 118 -55 34 -10 172 -124 172 -142 0 -3 12
-22 28 -43 41 -57 122 -253 122 -295 0 -10 5 -38 11 -62 l11 -44 30 15 c16 8
35 13 41 11 7 -2 -3 -11 -20 -21 -18 -9 -33 -18 -33 -21 0 -2 12 -36 26 -75
25 -68 26 -73 11 -103 l-15 -32 5 35 c8 57 -51 193 -65 150 -3 -9 -9 -5 -17
11 -11 20 -10 25 4 36 13 9 14 15 4 30 -6 10 -17 17 -25 15 -7 -1 -5 4 5 12
22 17 18 47 -20 141 -54 134 -94 203 -161 274 -58 62 -76 75 -136 96 -42 15
-91 25 -125 25 -32 0 -61 4 -67 10 -6 6 -35 -11 -81 -48 -67 -52 -71 -58 -57
-74 18 -19 9 -42 -13 -33 -13 4 -13 3 -4 -9 9 -11 7 -15 -8 -19 -10 -2 -25 -1
-32 4 -11 6 -7 15 14 37 18 19 24 31 17 34 -7 2 25 34 70 70 75 62 85 67 126
65 24 -1 44 1 44 6 0 4 5 7 10 7 6 0 10 -4 10 -8z m1784 -6 c-3 -8 5 -28 17
-45 17 -24 26 -28 36 -20 9 8 13 8 13 1 0 -6 -6 -15 -14 -19 -8 -4 -15 -11
-16 -15 0 -4 -3 -15 -6 -23 -11 -26 -21 -16 -16 16 3 21 -2 40 -17 59 -28 39
-28 47 6 59 1 1 0 -5 -3 -13z m686 -6 c-19 -13 -30 -13 -30 0 0 6 10 10 23 10
18 0 19 -2 7 -10z m-95 -10 c3 -5 -1 -10 -9 -10 -9 0 -16 5 -16 10 0 6 4 10 9
10 6 0 13 -4 16 -10z m2124 -14 c17 -16 18 -76 1 -76 -5 0 -6 9 -3 20 7 27
-11 47 -52 54 -19 4 -37 11 -40 16 -9 15 75 3 94 -14z m-551 -17 c14 -5 22
-17 22 -31 0 -13 14 -48 30 -78 67 -122 93 -188 76 -190 -5 -1 -20 24 -33 56
-13 32 -29 65 -37 73 -7 9 -19 33 -26 54 -6 20 -16 37 -21 37 -5 0 -9 11 -9
24 0 29 -17 44 -58 52 -18 4 -32 11 -32 16 0 10 45 3 88 -13z m182 1 c0 -5
-10 -10 -22 -10 -22 -1 -23 -1 -4 -15 19 -15 19 -15 -2 -15 -24 0 -29 19 -10
38 15 15 38 16 38 2z m-2427 -48 c27 -46 -1 -42 -31 4 -19 30 -20 35 -5 32 9
-2 25 -18 36 -36z m727 12 c0 -2 -7 -4 -15 -4 -8 0 -15 4 -15 10 0 5 7 7 15 4
8 -4 15 -8 15 -10z m17 -36 c-3 -7 -5 -2 -5 12 0 14 2 19 5 13 2 -7 2 -19 0
-25z m-2470 -2 c0 -8 -6 -12 -15 -8 -9 3 -13 1 -9 -4 3 -5 -5 -11 -17 -12 -14
-1 -23 4 -23 13 0 8 3 12 7 10 3 -2 12 0 20 6 22 13 37 11 37 -5z m1665 -13
c-11 -16 -27 -45 -35 -65 -11 -25 -22 -38 -34 -37 -10 0 -13 3 -5 6 7 3 12 23
12 48 0 41 20 78 20 38 1 -14 5 -13 21 10 11 15 25 27 31 27 5 0 1 -12 -10
-27z m3478 -27 c13 -46 21 -51 107 -59 11 -1 19 -5 17 -8 -2 -3 2 -20 8 -36
13 -34 61 -68 80 -57 6 4 8 3 5 -3 -3 -5 7 -17 24 -27 16 -9 29 -21 29 -27 0
-5 7 -9 15 -9 8 0 15 5 15 10 0 6 7 10 16 10 8 0 12 -4 9 -10 -3 -5 1 -10 9
-10 9 0 16 -4 16 -10 0 -5 -18 -10 -39 -10 -29 0 -47 7 -71 30 -18 17 -37 30
-43 30 -20 0 -75 49 -81 73 -7 30 -44 47 -105 47 -26 0 -51 3 -55 7 -16 16
-50 11 -80 -12 -34 -26 -46 -30 -46 -17 0 5 21 23 48 42 26 18 41 35 35 37
-15 5 -17 23 -4 23 6 0 16 -12 23 -27 9 -19 22 -29 40 -31 l28 -3 -15 42 c-17
47 -19 63 -6 55 4 -3 14 -25 21 -50z m-970 -9 c7 -21 9 -41 6 -44 -6 -6 -22
31 -32 75 -10 40 11 15 26 -31z m-2445 -7 c9 -14 42 -12 49 3 5 10 7 10 12 0
3 -7 21 -13 39 -13 20 0 35 -6 38 -15 8 -20 -7 -27 -35 -16 -26 10 -76 4 -95
-12 -7 -5 -13 -27 -13 -48 0 -22 -4 -39 -10 -39 -14 0 -13 73 2 88 9 9 9 18 0
37 -11 24 0 36 13 15z m785 -10 c8 -5 12 -11 9 -14 -7 -8 -49 5 -49 15 0 12
21 11 40 -1z m-1460 -17 c0 -17 -15 -16 -30 1 -9 12 -8 15 9 13 12 -1 21 -7
21 -14z m1390 -8 c-7 -9 -15 -13 -17 -11 -7 7 7 26 19 26 6 0 6 -6 -2 -15z
m-2830 -15 c0 -11 -97 -80 -136 -96 -52 -22 -74 -15 -24 7 73 32 121 70 115
89 -4 14 -1 16 20 12 14 -2 25 -8 25 -12z m2870 5 c7 -9 8 -15 2 -15 -5 0 -12
7 -16 15 -3 8 -4 15 -2 15 2 0 9 -7 16 -15z m-60 -40 c0 -14 -4 -25 -10 -25
-11 0 -14 33 -3 43 11 11 13 8 13 -18z m-880 -67 c0 -5 -9 -6 -20 -3 -12 4
-28 1 -36 -6 -10 -8 -18 -9 -25 -2 -8 8 -5 13 10 18 12 3 18 11 15 17 -4 6 0
14 7 19 14 9 49 -22 49 -43z m986 27 c1 -8 -2 -15 -7 -15 -5 0 -9 10 -9 22 0
23 12 17 16 -7z m-926 8 c0 -10 -32 -43 -42 -43 -5 0 -1 11 9 25 17 23 33 32
33 18z m-1067 -98 c4 -57 3 -82 -2 -69 -11 26 -18 175 -7 163 2 -2 6 -44 9
-94z m807 75 c0 -5 -4 -10 -10 -10 -5 0 -10 5 -10 10 0 6 5 10 10 10 6 0 10
-4 10 -10z m942 -22 c-9 -9 -12 -7 -12 12 0 19 3 21 12 12 9 -9 9 -15 0 -24z
m3228 12 c0 -5 -4 -10 -9 -10 -6 0 -13 5 -16 10 -3 6 1 10 9 10 9 0 16 -4 16
-10z m-5960 -30 c0 -9 -36 -20 -68 -20 -19 0 -20 3 -11 18 8 13 20 17 45 14
19 -2 34 -8 34 -12z m1645 -57 c-26 -18 -32 -7 -9 18 12 14 20 17 23 8 2 -7
-4 -18 -14 -26z m4350 23 c13 -9 16 -20 12 -36 -3 -13 -1 -30 5 -37 6 -8 7
-13 0 -13 -18 0 -31 26 -25 49 4 17 1 23 -16 28 -11 3 -18 9 -15 14 7 12 17
11 39 -5z m-715 -6 c0 -14 -72 -60 -83 -53 -5 3 10 18 34 34 52 33 49 32 49
19z m-2189 -27 c13 -16 12 -17 -3 -4 -10 7 -18 15 -18 17 0 8 8 3 21 -13z
m-1321 -2 c0 -6 -4 -13 -10 -16 -5 -3 -10 1 -10 9 0 9 5 16 10 16 6 0 10 -4
10 -9z m-64 -13 c4 4 5 1 2 -7 -2 -8 -21 -14 -46 -15 -29 -2 -38 0 -27 6 8 5
13 13 10 18 -3 5 7 5 24 0 16 -4 33 -5 37 -2z m3190 -65 c-4 -4 -16 2 -27 15
-10 13 -23 21 -28 18 -5 -4 -12 -2 -15 3 -4 5 -2 12 4 16 6 4 7 12 4 18 -4 7
11 -5 32 -25 21 -21 34 -41 30 -45z m-1821 57 c-3 -5 -14 -10 -23 -10 -15 0
-15 2 -2 10 20 13 33 13 25 0z m-1605 -8 c0 -4 -4 -12 -9 -17 -14 -15 -53
-185 -47 -202 5 -12 17 -14 56 -11 29 3 53 1 57 -5 8 -14 -318 0 -332 14 -7 7
20 9 90 7 l100 -3 26 102 c15 55 30 106 33 112 8 13 26 15 26 3z m3714 -24
c-26 -44 -37 -57 -45 -52 -11 6 27 64 42 64 6 0 7 -6 3 -12z m-3614 -115 c33
-103 53 -135 76 -126 9 3 14 -2 14 -14 0 -11 52 -70 124 -142 69 -67 127 -129
130 -137 8 -20 -13 -7 -37 22 -9 13 -27 24 -40 26 -14 2 -21 9 -19 19 1 9 -9
24 -24 34 -25 16 -26 16 -21 -2 3 -10 8 -44 12 -76 4 -34 11 -55 16 -51 19 11
91 14 110 4 24 -13 25 -37 2 -43 -14 -3 -12 -6 10 -15 25 -11 38 -32 19 -32
-5 0 -29 -14 -55 -31 -26 -17 -51 -28 -57 -24 -14 9 -13 -11 6 -80 18 -71 36
-102 63 -107 15 -2 17 -7 9 -27 -6 -19 -11 -22 -20 -13 -7 7 -22 12 -35 12
-12 0 -31 9 -42 21 -18 20 -20 20 -29 2 -9 -14 -13 -15 -23 -6 -10 10 -9 14 4
18 20 8 11 35 -12 35 -13 0 -13 2 -2 9 12 8 11 15 -3 50 -14 37 -14 42 -1 47
22 9 19 45 -4 51 -11 3 -21 13 -24 24 -5 20 -57 28 -57 9 0 -16 -23 -11 -50
10 -34 27 -53 26 -45 -2 10 -32 45 -68 67 -68 10 0 17 -3 16 -7 -1 -5 4 -19
11 -31 9 -16 19 -22 32 -19 24 6 35 -9 12 -17 -12 -5 -14 -9 -5 -18 7 -7 12
-27 12 -44 0 -18 5 -36 11 -40 6 -3 8 -15 6 -26 -4 -13 -1 -18 7 -15 7 3 18
-4 25 -15 11 -17 10 -22 -1 -29 -7 -5 -16 -9 -20 -9 -5 0 -8 -4 -8 -9 0 -5 8
-8 18 -6 9 1 12 0 6 -2 -16 -6 -26 -76 -12 -84 8 -5 7 -12 -5 -23 -8 -9 -18
-16 -20 -16 -3 0 -3 27 0 59 6 62 -10 173 -33 229 -10 24 -19 32 -38 32 -15 0
-26 5 -26 10 0 6 7 10 15 10 8 0 15 4 15 9 0 17 -225 218 -268 240 -23 12 -75
33 -115 47 -111 39 -177 73 -170 90 4 11 26 14 91 14 75 0 94 4 154 32 37 17
67 33 65 35 -2 2 -35 -4 -74 -13 -64 -14 -73 -14 -108 0 -20 9 -61 16 -89 16
-28 0 -58 6 -67 13 -39 29 -57 131 -20 108 7 -5 10 -14 7 -20 -4 -6 -4 -25 -1
-42 6 -24 9 -28 21 -18 11 9 14 7 14 -10 0 -19 6 -21 57 -21 31 0 71 -5 89
-12 27 -10 49 -8 123 9 89 20 90 20 121 0 38 -24 75 -25 100 -2 19 17 20 17
20 -3 0 -11 -4 -23 -10 -27 -16 -10 6 -49 31 -56 13 -4 39 -7 58 -8 22 -1 31
-5 28 -13 -17 -41 -33 -68 -39 -68 -12 0 -10 28 2 35 20 12 9 23 -34 34 -25 6
-47 11 -50 11 -8 0 -8 -56 0 -113 8 -53 29 -67 105 -67 85 0 88 4 73 106 l-13
87 -82 83 c-77 77 -84 88 -106 161 -28 91 -38 133 -30 133 4 0 20 -44 37 -97z
m30 87 c0 -5 -5 -10 -11 -10 -5 0 -7 5 -4 10 3 6 8 10 11 10 2 0 4 -4 4 -10z
m414 -27 c-4 -16 -2 -28 6 -33 9 -5 9 -13 2 -25 -9 -17 -10 -17 -20 2 -12 23
-4 96 9 87 5 -3 6 -17 3 -31z m-354 -7 c0 -19 5 -38 10 -41 6 -3 10 -1 10 5 0
7 5 6 14 -2 10 -9 11 -17 4 -26 -8 -10 -6 -11 8 -5 17 6 17 5 5 -11 -8 -9 -20
-15 -27 -12 -7 3 -18 -2 -25 -10 -19 -23 -24 -8 -24 67 0 48 4 69 13 69 7 0
12 -14 12 -34z m190 7 c0 -7 5 -13 11 -13 6 0 8 -7 5 -17 -4 -9 -1 -20 6 -24
17 -11 -1 -28 -35 -35 -32 -5 -35 6 -7 26 23 17 27 42 5 34 -9 -4 -15 0 -15
10 0 9 -4 16 -10 16 -5 0 -10 4 -10 9 0 5 11 8 25 7 14 0 25 -7 25 -13z m790
-25 c0 -6 -10 -8 -22 -5 -18 5 -26 0 -35 -19 -6 -14 -9 -32 -6 -39 10 -27 -39
-131 -72 -153 -43 -30 -94 -15 -95 27 0 10 7 8 21 -8 23 -24 64 -25 64 -1 1
21 15 41 24 35 13 -8 44 72 39 99 -3 15 1 31 8 37 8 6 14 19 14 28 0 14 7 17
30 13 17 -2 30 -9 30 -14z m2160 6 c0 -8 -5 -12 -10 -9 -6 4 -8 11 -5 16 9 14
15 11 15 -7z m-3768 -25 c-2 -7 3 -16 10 -20 10 -7 9 -9 -4 -9 -10 0 -24 13
-33 30 -15 29 -15 29 7 21 13 -5 22 -15 20 -22z m5168 -11 c0 -6 -7 -5 -15 2
-8 7 -15 17 -15 22 0 6 7 5 15 -2 8 -7 15 -17 15 -22z m-5130 2 c0 -5 -2 -10
-4 -10 -3 0 -8 5 -11 10 -3 6 -1 10 4 10 6 0 11 -4 11 -10z m711 -63 c-16 -16
-26 0 -10 19 9 11 15 12 17 4 2 -6 -1 -17 -7 -23z m-615 -7 c8 0 14 -4 14 -10
0 -5 -4 -10 -10 -10 -5 0 -10 -11 -10 -25 0 -22 3 -24 19 -15 24 12 31 13 31
2 0 -10 -45 -32 -65 -32 -10 0 -12 9 -8 37 l6 36 -37 -6 c-32 -5 -36 -4 -26 8
7 8 20 15 30 15 10 0 21 8 25 18 8 16 8 16 12 0 3 -10 11 -18 19 -18z m3544
20 c0 -5 -7 -10 -16 -10 -8 0 -12 5 -9 10 3 6 10 10 16 10 5 0 9 -4 9 -10z
m-2860 -10 c0 -5 -4 -10 -10 -10 -5 0 -10 5 -10 10 0 6 5 10 10 10 6 0 10 -4
10 -10z m-117 -7 c-7 -2 -19 -2 -25 0 -7 3 -2 5 12 5 14 0 19 -2 13 -5z m167
-3 c0 -5 -4 -10 -10 -10 -5 0 -10 5 -10 10 0 6 5 10 10 10 6 0 10 -4 10 -10z
m4398 -30 c12 0 22 -4 22 -10 0 -19 -59 -11 -70 9 -15 29 -12 36 8 18 10 -10
28 -17 40 -17z m-4578 -1 c0 -6 -4 -7 -10 -4 -5 3 -10 11 -10 16 0 6 5 7 10 4
6 -3 10 -11 10 -16z m381 -12 c-6 -8 -8 -17 -4 -20 3 -4 1 -7 -5 -7 -7 0 -12
-11 -12 -25 0 -14 -4 -25 -10 -25 -5 0 -10 11 -10 25 0 14 5 25 12 25 6 0 8 3
5 7 -8 8 11 33 25 33 7 0 6 -5 -1 -13z m106 -7 c1 -11 -4 -20 -13 -20 -14 0
-19 21 -7 33 11 12 19 7 20 -13z m-258 -30 c-1 -3 7 -24 16 -47 17 -43 17 -90
0 -85 -5 2 -9 13 -7 26 5 35 -15 77 -33 70 -9 -4 -15 0 -15 9 0 8 6 18 13 20
6 3 -1 6 -16 6 -15 1 -39 -6 -53 -15 -13 -9 -27 -14 -31 -11 -3 4 8 14 26 24
17 10 31 21 31 25 0 4 16 2 35 -5 19 -7 34 -14 34 -17z m81 19 c0 -5 -5 -7
-12 -3 -8 5 -9 2 -5 -9 6 -17 -4 -23 -16 -10 -8 7 11 33 24 33 5 0 9 -5 9 -11z
m823 -59 c6 -24 53 -37 78 -22 10 7 25 9 34 6 27 -11 16 -19 -27 -21 -52 -3
-65 -16 -81 -79 -10 -39 -17 -50 -35 -52 -21 -3 -22 -1 -12 17 10 20 8 21 -34
21 -29 0 -46 -5 -49 -14 -4 -9 1 -16 11 -19 13 -3 10 -7 -10 -15 -16 -6 -28
-18 -28 -26 0 -8 -14 -19 -30 -25 -28 -9 -29 -9 -20 9 6 11 17 20 24 20 8 0
16 9 19 20 3 13 0 20 -10 20 -8 0 -11 -4 -8 -10 3 -6 -4 -10 -16 -10 -21 0
-21 1 -4 20 9 10 22 18 27 17 6 -1 13 4 15 11 3 7 -4 12 -16 12 -22 0 -95 -59
-73 -60 7 0 10 -5 7 -10 -4 -7 -14 -6 -28 2 -21 12 -25 13 -44 17 -5 1 -1 6 7
12 13 9 13 10 0 6 -8 -2 -15 -13 -15 -25 0 -11 -4 -24 -8 -28 -4 -4 -7 2 -7
14 0 15 -5 20 -15 16 -10 -4 -20 7 -32 38 -10 23 -17 46 -15 51 1 4 -3 7 -8 7
-5 0 -10 5 -10 10 0 6 18 10 40 10 42 0 54 -14 20 -25 -49 -15 -5 -49 66 -49
30 -1 54 2 54 5 0 17 58 29 103 20 l47 -8 0 45 c0 36 3 42 13 33 8 -6 16 -8
20 -5 3 3 12 -3 19 -15 16 -26 25 -27 33 -2 6 19 -10 59 -30 73 -6 5 -3 8 6 8
9 0 19 -9 22 -20z m-1083 0 c0 -5 -9 -10 -21 -10 -11 0 -17 5 -14 10 3 6 13
10 21 10 8 0 14 -4 14 -10z m359 0 c9 0 8 -46 -1 -56 -5 -4 -8 -2 -8 4 0 6 -7
9 -15 6 -11 -5 -14 -15 -9 -39 3 -18 1 -35 -4 -39 -6 -3 -12 11 -14 34 -2 22
0 40 5 40 5 0 6 9 2 20 -8 25 3 43 22 36 8 -3 18 -6 22 -6z m-249 -10 c0 -5
-4 -10 -10 -10 -5 0 -10 5 -10 10 0 6 5 10 10 10 6 0 10 -4 10 -10z m-85 -20
c-3 -5 -14 -10 -23 -10 -15 0 -15 2 -2 10 20 13 33 13 25 0z m4125 -40 c0 -4
13 -22 28 -38 17 -18 26 -36 22 -42 -6 -9 -9 -9 -14 -1 -4 6 -12 8 -18 5 -6
-4 -8 -2 -4 4 3 6 -3 17 -15 26 -12 8 -18 19 -15 24 9 15 -50 25 -71 13 -15
-9 -13 -10 10 -5 33 7 37 -11 5 -22 -37 -11 -88 -92 -88 -138 0 -14 -9 -31
-20 -39 -11 -8 -18 -16 -15 -18 13 -14 -55 0 -82 16 -25 14 -34 30 -43 67 -7
26 -16 51 -21 54 -23 14 -48 -10 -68 -66 l-22 -60 -63 6 c-35 4 -93 1 -133 -6
-75 -12 -113 -3 -113 28 0 9 -6 12 -16 8 -8 -3 -13 -2 -9 3 3 5 -8 12 -25 16
-17 4 -28 11 -25 15 6 10 92 -13 108 -29 6 -6 25 -5 53 4 37 11 51 10 111 -6
97 -27 99 -26 118 30 18 54 27 65 68 80 21 8 26 8 21 -1 -5 -7 -2 -9 9 -5 12
4 14 2 10 -10 -5 -12 -3 -14 7 -8 9 5 11 4 6 -3 -14 -22 13 -88 40 -101 27
-12 68 -6 59 9 -3 5 -1 11 5 15 5 3 10 17 10 31 0 40 46 120 81 140 32 19 109
21 109 4z m-4101 -21 c-8 -5 -15 -4 -17 1 -2 6 -8 8 -13 4 -5 -3 -9 0 -9 6 0
7 7 10 15 7 8 -4 18 -1 22 5 5 9 8 8 11 -1 2 -7 -2 -17 -9 -22z m113 -1 c-6
-6 -15 -7 -22 -3 -8 5 -6 11 7 20 20 15 32 0 15 -17z m-967 -55 c-11 -30 -18
-78 -10 -71 4 4 15 -2 25 -14 11 -14 31 -23 55 -24 100 -8 287 -59 364 -98 24
-13 36 -14 46 -6 10 8 22 2 52 -28 51 -51 109 -125 105 -135 -1 -4 11 -33 26
-65 30 -60 58 -181 48 -207 -10 -27 -28 -17 -21 13 7 35 -9 82 -30 82 -19 0
-20 19 0 26 19 8 19 21 0 41 -13 12 -24 13 -66 4 -61 -13 -59 -13 -59 -1 0 6
9 10 20 10 23 0 27 29 8 48 -9 9 -8 12 5 12 9 0 17 -6 17 -14 0 -20 13 -27 30
-16 12 7 12 13 1 34 -11 20 -17 23 -32 15 -23 -12 -24 -2 -3 22 14 16 13 18
-20 30 -20 7 -31 16 -26 19 17 11 -28 60 -47 53 -12 -5 -15 -2 -10 10 12 31
-2 18 -19 -18 -9 -19 -20 -32 -25 -29 -17 10 -49 -17 -68 -61 -11 -25 -24 -45
-30 -45 -19 0 22 79 66 124 25 26 43 49 41 50 -26 24 -184 79 -288 101 -59 13
-66 13 -77 -2 -7 -9 -13 -27 -13 -39 0 -13 6 -29 13 -36 6 -7 19 -22 27 -32
13 -18 13 -19 0 -11 -8 4 -25 17 -37 28 l-23 20 -19 -21 c-18 -21 -34 -71 -45
-139 -4 -22 -1 -33 9 -37 18 -7 20 -42 3 -49 -9 -4 -7 -6 3 -6 9 -1 21 -12 27
-26 6 -13 29 -37 50 -52 l38 -28 -20 -22 c-18 -19 -24 -20 -38 -9 -10 7 -18
20 -18 28 0 8 -13 32 -29 54 -16 21 -32 49 -35 62 -4 12 -11 22 -16 22 -20 0
-38 -13 -34 -24 3 -7 -1 -18 -9 -24 -10 -9 -22 -3 -51 27 l-38 38 31 11 c23 8
32 7 42 -4 13 -16 19 -17 37 -5 12 7 11 14 -3 41 -9 18 -15 41 -12 51 3 11 2
19 -3 19 -13 0 -32 -28 -26 -39 3 -5 -1 -12 -10 -15 -13 -5 -15 6 -11 82 3 78
6 90 30 116 15 16 27 35 27 42 0 8 9 23 20 34 13 13 15 20 7 20 -7 0 -13 9
-14 20 -2 22 23 28 30 8 2 -7 7 2 11 20 4 17 12 32 18 32 6 0 7 -8 3 -17z
m5080 -2 c-3 -5 5 -11 17 -13 12 -2 23 -9 26 -15 5 -18 -30 -16 -54 2 -16 13
-17 16 -4 25 19 12 23 13 15 1z m-4318 -21 c-1 -22 -12 -26 -23 -9 -3 6 0 15
7 20 18 12 18 12 16 -11z m583 -4 c0 -15 -18 -31 -26 -23 -7 7 7 37 17 37 5 0
9 -6 9 -14z m4090 -26 c22 -31 24 -40 12 -40 -5 0 -15 11 -22 25 -7 13 -21 27
-32 31 -25 7 -23 23 2 17 11 -3 29 -18 40 -33z m-4434 10 c12 0 19 -19 15 -42
0 -5 6 -8 15 -8 12 0 15 7 12 25 -4 18 0 26 15 31 25 8 69 -15 63 -33 -5 -13
4 -17 37 -14 10 2 17 -4 17 -14 0 -9 13 -24 30 -33 43 -24 37 -32 -20 -25 -47
5 -52 4 -80 -26 -29 -30 -30 -31 -8 -32 13 0 17 -3 11 -6 -7 -2 -13 -13 -13
-23 0 -20 -22 -32 -44 -24 -13 5 -28 54 -31 100 0 12 -9 29 -18 38 -20 21 -21
28 -4 45 10 11 9 13 -4 8 -13 -4 -16 -1 -11 15 3 14 1 19 -6 14 -13 -8 -16 6
-5 18 4 4 9 2 11 -3 2 -6 10 -11 18 -11z m254 -10 c0 -5 -4 -10 -10 -10 -5 0
-10 5 -10 10 0 6 5 10 10 10 6 0 10 -4 10 -10z m356 -12 c4 -13 7 -31 5 -41
-2 -18 -1 -18 23 -2 14 10 26 13 26 7 0 -5 -7 -12 -15 -16 -19 -7 -19 -31 1
-61 9 -14 12 -25 6 -25 -6 0 -19 14 -29 30 -9 17 -21 30 -25 30 -5 0 -7 14 -6
32 1 17 -3 33 -9 35 -13 5 -6 33 7 33 5 0 12 -10 16 -22z m-316 3 c0 -5 -7
-14 -15 -21 -16 -14 -18 -10 -9 14 6 17 24 22 24 7z m80 -12 c0 -5 5 -7 11 -3
7 4 10 -1 7 -11 -5 -29 -25 -28 -30 0 -3 14 -1 25 3 25 5 0 9 -5 9 -11z
m-3780 -14 c0 -9 -9 -15 -22 -15 -22 1 -23 1 -4 15 25 19 26 19 26 0z m4170
-15 c-8 -6 -22 -10 -30 -9 -9 0 -5 6 10 14 27 14 44 10 20 -5z m44 14 c23 -9
20 -24 -4 -24 -11 0 -20 7 -20 15 0 17 2 18 24 9z m1995 -4 c29 0 32 -2 21
-15 -8 -9 -29 -15 -56 -15 -67 0 -120 -31 -79 -46 40 -16 -9 -99 -55 -92 -11
2 -30 17 -41 34 -17 28 -18 32 -4 38 10 4 19 -2 25 -18 11 -31 25 -39 38 -23
14 17 3 60 -13 53 -15 -5 -14 11 0 35 14 24 87 59 110 54 11 -3 35 -5 54 -5z
m-1869 -6 c0 -4 -8 -13 -17 -20 -15 -10 -16 -15 -5 -25 6 -7 12 -17 12 -21 0
-13 -28 -9 -32 4 -3 7 -12 9 -22 5 -12 -5 -15 -13 -11 -27 8 -25 -1 -41 -20
-34 -13 5 -12 11 0 42 12 28 13 37 3 44 -9 5 -6 8 10 8 12 0 22 -6 22 -12 0
-7 6 -4 12 7 16 28 48 47 48 29z m-470 -32 c0 -4 25 -6 55 -5 56 3 60 0 55
-40 -1 -15 3 -17 20 -12 16 5 21 3 18 -6 -3 -8 -16 -15 -31 -17 -23 -3 -26 0
-24 25 2 27 0 28 -43 29 -25 1 -53 -3 -63 -8 -10 -5 -23 -7 -30 -4 -7 3 -3 8
10 11 13 4 20 12 16 21 -3 8 0 14 6 14 6 0 11 -3 11 -8z m-155 -21 c-3 -6 -14
-11 -23 -11 -15 1 -15 2 2 15 21 16 32 13 21 -4z m205 -32 c11 -19 10 -20 -10
-9 -11 6 -18 15 -15 21 9 13 13 11 25 -12z m2025 -15 c-19 -38 -19 -39 10
-115 14 -35 24 -71 22 -79 -1 -8 -16 19 -32 60 -31 81 -34 138 -8 157 23 18
26 11 8 -23z m-2085 1 c-7 -8 -17 -15 -23 -15 -5 0 -2 9 8 20 21 23 35 19 15
-5z m-96 -32 c8 -45 9 -94 2 -101 -3 -3 -23 -6 -44 -7 -35 -2 -40 1 -60 37
-16 30 -18 38 -7 34 8 -3 15 -1 15 4 0 12 -27 12 -55 0 -18 -7 -18 -8 8 -15
18 -5 25 -11 19 -17 -6 -6 -18 -6 -32 2 -12 6 -31 10 -41 7 -32 -9 -21 11 21
38 44 28 82 26 100 -4 8 -14 9 -13 10 7 0 12 5 22 10 22 6 0 10 -7 10 -15 0
-8 5 -15 10 -15 6 0 10 14 10 30 0 42 17 37 24 -7z m-2427 -14 c35 -23 63 -45
63 -50 0 -5 -13 -36 -30 -68 -24 -48 -27 -60 -15 -65 8 -3 15 -10 15 -16 0 -7
-6 -8 -17 -2 -14 7 -25 0 -50 -34 -28 -38 -30 -44 -14 -44 10 0 35 11 55 25
21 14 36 19 36 12 0 -7 -15 -20 -33 -31 -18 -11 -27 -21 -19 -23 19 -7 14 -23
-8 -23 -11 0 -20 7 -20 15 0 29 -45 15 -100 -30 -56 -46 -71 -50 -78 -24 -2
10 -1 10 5 2 6 -8 24 1 60 32 l53 43 -54 46 -54 46 -82 -80 c-85 -83 -137
-114 -60 -35 24 24 42 46 39 49 -2 2 -25 13 -51 25 -44 20 -65 37 -56 46 2 2
34 -11 70 -30 63 -32 67 -33 80 -16 7 10 32 42 56 71 23 28 39 57 35 62 -3 7
-1 8 6 4 6 -4 14 1 19 12 8 22 75 121 81 122 3 0 33 -19 68 -41z m2774 10 c21
-18 21 -20 4 -14 -35 12 -49 10 -53 -7 -3 -14 3 -18 23 -18 22 0 24 -2 13 -14
-9 -9 -17 -11 -25 -4 -8 6 -20 5 -34 -3 -16 -8 -24 -9 -27 -1 -2 6 -9 10 -15
8 -7 -1 -9 -1 -4 1 4 3 5 9 2 13 -3 5 9 7 26 5 25 -4 30 -1 25 12 -7 18 10 43
29 43 7 0 23 -9 36 -21z m-3172 -8 c13 -10 19 -21 14 -24 -6 -4 -21 5 -33 18
-27 29 -16 33 19 6z m2161 -1 c-19 -12 -30 -12 -30 -1 0 10 31 20 40 14 2 -2
-2 -8 -10 -13z m36 -37 c-3 -3 -13 0 -22 8 -15 12 -14 14 3 20 17 6 32 -15 19
-28z m1349 2 c39 -40 46 -62 14 -43 -39 23 -71 57 -64 67 9 16 11 15 50 -24z
m-2035 4 c0 -5 -4 -9 -10 -9 -5 0 -10 7 -10 16 0 8 5 12 10 9 6 -3 10 -10 10
-16z m180 11 c0 -5 -8 -14 -18 -19 -14 -8 -18 -6 -19 10 -1 13 5 19 18 19 10
0 19 -4 19 -10z m1550 -20 c0 -5 -6 -7 -14 -4 -8 3 -16 -4 -19 -17 -9 -34 -20
-15 -12 20 6 27 9 29 26 21 10 -6 19 -15 19 -20z m1080 27 c0 -2 -12 -14 -27
-28 l-28 -24 24 28 c23 25 31 32 31 24z m-3030 -31 c0 -13 6 -27 13 -29 8 -4
7 -6 -3 -6 -8 -1 -28 -22 -44 -48 -16 -27 -31 -43 -33 -36 -2 6 7 30 21 52 14
22 26 52 26 66 0 14 5 25 10 25 6 0 10 -11 10 -24z m1137 17 c-4 -3 1 -12 11
-19 13 -11 14 -15 4 -22 -8 -6 -11 -18 -7 -35 6 -21 2 -28 -24 -41 -35 -18
-41 -19 -41 -7 0 5 14 14 31 21 23 10 27 16 18 24 -8 8 -13 8 -16 -1 -7 -21
-33 -15 -33 7 0 11 -4 20 -10 20 -5 0 -7 7 -4 15 7 18 25 20 22 3 -2 -6 5 -14
14 -16 13 -2 16 1 12 12 -8 20 2 46 17 46 7 0 9 -3 6 -7z m1060 -8 c9 -24 -4
-30 -34 -15 -26 12 -27 13 -8 21 29 11 35 11 42 -6z m-1902 -17 l20 2 -20 -9
c-32 -15 -55 -13 -49 4 4 8 11 12 18 8 6 -4 20 -7 31 -5z m361 -15 c-10 -10
-19 5 -10 18 6 11 8 11 12 0 2 -7 1 -15 -2 -18z m-446 7 c0 -5 -7 -10 -16 -10
-8 0 -12 5 -9 10 3 6 10 10 16 10 5 0 9 -4 9 -10z m1081 -21 c-21 -17 -22 -23
-12 -45 13 -30 14 -34 3 -34 -5 0 -14 10 -20 23 -6 12 -11 16 -11 10 -1 -21
-4 -27 -17 -40 -15 -15 -28 -17 -19 -4 3 5 -2 11 -11 13 -14 3 -13 5 3 20 10
10 35 34 56 54 21 20 41 33 45 29 4 -4 -4 -15 -17 -26z m713 25 c25 -10 19
-23 -9 -19 -15 1 -29 -4 -35 -14 -4 -9 -11 -13 -14 -10 -7 7 22 49 34 49 4 0
15 -3 24 -6z m-124 -14 c0 -5 -5 -10 -11 -10 -5 0 -7 5 -4 10 3 6 8 10 11 10
2 0 4 -4 4 -10z m-1277 -30 c3 -12 0 -20 -7 -20 -6 0 -12 9 -13 20 -1 11 2 20
6 20 5 0 11 -9 14 -20z m1138 -13 c-13 -13 -26 -3 -16 12 3 6 11 8 17 5 6 -4
6 -10 -1 -17z m-1526 3 c-3 -5 -14 -10 -23 -10 -15 0 -15 2 -2 10 20 13 33 13
25 0z m435 -10 c0 -5 -4 -10 -10 -10 -5 0 -10 5 -10 10 0 6 5 10 10 10 6 0 10
-4 10 -10z m80 0 c0 -5 -8 -10 -17 -10 -15 0 -16 2 -3 10 19 12 20 12 20 0z
m457 -12 c-3 -8 -6 -5 -6 6 -1 11 2 17 5 13 3 -3 4 -12 1 -19z m273 15 c0 -5
3 -18 6 -30 9 -33 -8 -28 -28 7 -16 29 -16 30 2 30 11 0 20 -3 20 -7z m450 -9
c0 -2 -7 -4 -15 -4 -8 0 -15 4 -15 10 0 5 7 7 15 4 8 -4 15 -8 15 -10z m-1615
-4 c-3 -5 -13 -10 -21 -10 -8 0 -12 5 -9 10 3 6 13 10 21 10 8 0 12 -4 9 -10z
m1545 -5 c0 -8 -4 -15 -10 -15 -5 0 -10 7 -10 15 0 8 5 15 10 15 6 0 10 -7 10
-15z m208 -10 c17 -22 24 -24 46 -15 14 5 26 6 26 1 0 -12 -96 -42 -113 -35
-17 6 -31 49 -22 64 11 18 43 10 63 -15z m202 4 c0 -5 -4 -9 -10 -9 -5 0 -10
-6 -10 -13 0 -11 -49 -47 -64 -47 -3 0 -6 8 -6 18 0 11 8 18 22 19 21 2 40 21
33 33 -2 3 5 7 16 7 10 1 19 -2 19 -8z m-4270 -19 c9 -18 8 -20 -15 -20 -14 0
-25 5 -25 10 0 6 5 10 11 10 5 0 7 5 4 10 -3 6 -2 10 4 10 6 0 15 -9 21 -20z
m3655 0 c4 -13 15 -20 30 -20 20 0 23 -5 22 -27 -2 -24 2 -29 26 -31 31 -4 34
4 10 30 -11 12 -13 22 -6 29 13 13 43 1 37 -15 -3 -8 10 -17 35 -24 53 -16
102 -78 109 -138 6 -53 22 -56 98 -23 41 19 59 21 128 16 44 -4 84 -11 90 -17
18 -18 55 -11 72 15 9 14 20 22 25 19 5 -3 0 -19 -12 -36 -23 -32 -27 -32
-114 -9 -68 18 -159 14 -187 -8 -13 -11 -39 -21 -57 -23 l-32 -3 38 -55 c21
-30 44 -56 51 -56 7 -1 15 -2 18 -3 11 -2 -42 -40 -70 -51 -14 -5 -26 -14 -26
-19 0 -19 101 20 171 66 31 20 35 28 33 59 -3 29 0 35 12 30 9 -3 29 -6 45 -6
37 0 30 -15 -11 -23 -16 -4 -30 -11 -30 -17 0 -7 6 -8 18 -1 10 5 45 7 79 4
l61 -6 5 29 c4 28 4 28 12 6 7 -20 13 -23 38 -18 17 3 39 14 49 23 17 15 18
15 18 0 0 -10 4 -17 10 -17 5 0 7 -7 4 -15 -4 -8 -12 -15 -19 -15 -11 0 -11
-8 -4 -32 12 -42 11 -58 -1 -58 -5 0 -10 15 -10 33 0 38 -6 48 -25 41 -9 -4
-10 -15 -4 -42 12 -51 12 -52 -11 -52 -16 0 -19 4 -12 16 5 9 7 27 4 40 -4 23
-8 24 -78 24 -52 0 -73 -4 -72 -12 2 -6 -4 -13 -14 -15 -9 -3 -18 3 -20 13 -2
14 -12 9 -51 -24 -27 -23 -53 -42 -59 -42 -6 0 -9 -2 -7 -5 3 -2 33 4 67 14
34 11 72 17 84 14 17 -3 19 -2 9 5 -17 12 1 23 19 11 8 -5 26 -9 40 -9 25 -1
25 -1 5 -16 -13 -10 -31 -13 -49 -10 -25 5 -28 3 -23 -14 3 -12 0 -20 -8 -20
-7 0 -15 9 -18 20 -5 19 -5 19 -73 0 -38 -11 -70 -20 -72 -20 -2 0 0 -9 3 -20
3 -11 3 -20 -2 -20 -12 0 -43 37 -36 43 2 3 -13 1 -34 -4 -49 -11 -66 -11 -59
0 3 5 -8 14 -24 20 -35 12 -42 -5 -7 -19 21 -8 21 -9 1 -9 -11 -1 -30 8 -42
19 -12 11 -35 23 -52 26 -25 6 -29 4 -24 -10 3 -9 1 -16 -5 -16 -6 0 -11 5
-11 10 0 7 -22 8 -60 5 -39 -4 -60 -2 -60 5 0 13 -37 13 -45 0 -4 -6 -11 -8
-16 -5 -5 3 -1 18 8 32 13 20 14 28 5 31 -7 2 -9 8 -6 13 3 6 11 5 20 -2 16
-13 18 -1 8 37 -14 53 -64 -8 -64 -77 0 -22 -5 -29 -20 -29 -11 0 -22 0 -25 0
-3 0 -5 3 -4 6 0 4 -5 10 -11 14 -18 11 -1 33 21 27 12 -3 19 0 19 9 0 13 -12
18 -32 15 -13 -2 -9 34 4 47 9 9 8 12 -6 12 -9 0 -14 5 -11 10 4 7 23 8 49 5
37 -6 172 7 233 22 18 4 21 9 13 23 -8 15 -5 19 16 24 18 5 24 12 20 22 -3 9
-6 29 -6 45 0 31 -23 41 -34 14 -3 -8 -1 -15 5 -15 6 0 8 -3 6 -7 -3 -5 -39
-7 -81 -5 -43 2 -74 8 -71 13 4 5 21 9 38 9 27 1 29 2 14 11 -30 17 -76 28
-82 19 -8 -12 -43 0 -50 17 -8 23 -2 25 45 14 25 -5 39 -6 33 0 -5 5 -37 12
-71 15 -68 7 -95 24 -39 24 30 0 34 3 30 20 -4 14 0 20 12 20 11 0 15 -5 11
-15 -3 -8 -2 -15 3 -15 5 0 11 10 14 21 4 15 11 20 21 16 12 -5 16 0 16 18 0
30 16 33 25 5z m685 -15 c0 -8 -4 -15 -10 -15 -5 0 -10 7 -10 15 0 8 -4 15
-10 15 -5 0 -10 5 -10 10 0 7 6 7 20 0 11 -6 20 -17 20 -25z m-4543 19 c-3 -3
-12 -4 -19 -1 -8 3 -5 6 6 6 11 1 17 -2 13 -5z m113 -4 c24 -8 24 -8 -7 -9
-17 -1 -35 4 -38 9 -7 11 9 11 45 0z m2455 0 c-3 -5 -11 -10 -16 -10 -6 0 -7
5 -4 10 3 6 11 10 16 10 6 0 7 -4 4 -10z m1215 1 c0 -5 -7 -11 -15 -15 -9 -3
-15 0 -15 9 0 8 7 15 15 15 8 0 15 -4 15 -9z m-966 -22 c-9 -15 -34 -10 -28 5
3 8 12 12 20 9 8 -3 11 -9 8 -14z m96 11 c0 -5 -4 -10 -9 -10 -6 0 -13 5 -16
10 -3 6 1 10 9 10 9 0 16 -4 16 -10z m494 -30 c-3 -24 0 -30 16 -30 10 0 22 5
26 11 4 8 27 9 69 5 51 -5 64 -3 69 9 4 11 20 15 58 15 41 0 49 -3 40 -12 -7
-7 -29 -12 -50 -11 -34 1 -34 1 -8 -5 16 -4 31 -12 33 -17 2 -7 -29 -8 -98 -2
-70 6 -104 5 -114 -3 -15 -13 -26 -60 -14 -60 5 0 9 9 9 20 0 13 7 20 20 20
11 0 20 4 20 8 0 11 159 2 183 -10 18 -9 24 -58 7 -58 -5 0 -10 6 -10 14 0 10
-9 13 -27 11 -16 -2 -32 -4 -36 -4 -5 -1 -5 -5 -2 -11 4 -6 -7 -10 -24 -10
-17 0 -31 4 -31 9 0 12 -27 21 -45 15 -12 -5 -11 -10 6 -27 11 -12 17 -27 15
-34 -3 -6 11 -26 30 -43 21 -18 32 -35 28 -43 -5 -9 -4 -9 5 -1 16 15 51 6 51
-12 0 -8 5 -14 10 -14 6 0 10 -4 10 -9 0 -6 -17 -11 -37 -13 -25 -2 -38 -8
-39 -18 -1 -8 -2 -39 -2 -67 -2 -48 -4 -53 -25 -53 -19 0 -23 5 -22 30 0 17 5
30 12 30 7 0 13 5 13 10 0 6 -7 10 -16 10 -14 0 -14 3 -4 15 7 9 10 18 7 22
-4 3 -2 12 4 20 9 10 8 13 -1 13 -16 0 -60 51 -54 62 6 10 34 -16 34 -31 0 -6
7 -11 15 -11 8 0 15 5 15 10 0 6 -3 10 -8 10 -4 0 -12 10 -17 23 -7 15 -18 21
-33 20 -14 -2 -22 3 -22 12 0 11 -5 12 -25 5 -21 -8 -25 -7 -25 10 0 21 -16
35 -24 21 -4 -5 -1 -13 5 -17 8 -4 7 -9 -2 -15 -10 -6 -11 -9 -1 -9 6 0 12 -4
12 -10 0 -5 -11 -10 -25 -10 -19 0 -25 -5 -25 -21 0 -11 -5 -19 -11 -17 -13 4
-13 3 -4 52 5 27 4 41 -5 46 -10 6 -9 19 6 59 10 28 21 51 25 51 3 0 9 18 13
40 7 47 25 46 20 0z m2138 -2 c14 -13 29 -33 33 -45 5 -18 14 -23 43 -23 28
-1 42 -7 55 -25 19 -27 8 -35 -13 -10 -7 9 -29 15 -51 15 -35 0 -40 4 -66 49
l-27 49 -29 -21 c-16 -12 -50 -33 -76 -47 -31 -17 -47 -32 -49 -48 -3 -21 -1
-22 17 -12 43 23 19 -9 -34 -43 -50 -34 -55 -35 -64 -19 -8 15 -4 22 18 35 17
10 32 31 40 56 9 33 21 45 66 71 30 17 58 29 63 26 4 -2 14 -1 22 5 21 12 24
12 52 -13z m-4012 -15 c0 -13 -9 -15 -46 -9 -26 3 -60 6 -75 6 -16 0 -29 5
-29 11 0 8 17 10 55 6 30 -3 57 -2 60 3 8 14 35 0 35 -17z m2510 17 c0 -5 -7
-10 -15 -10 -8 0 -15 5 -15 10 0 6 7 10 15 10 8 0 15 -4 15 -10z m525 -10 c3
-5 0 -10 -8 -10 -7 0 -20 -11 -27 -25 -7 -14 -18 -25 -23 -25 -5 0 -3 10 5 23
8 12 18 28 22 35 9 15 23 16 31 2z m-625 -10 c0 -5 -4 -10 -9 -10 -6 0 -13 5
-16 10 -3 6 1 10 9 10 9 0 16 -4 16 -10z m167 2 c7 -4 9 -13 4 -21 -10 -16
-31 -6 -31 15 0 16 9 18 27 6z m-1332 -23 c-8 -12 -35 -12 -35 0 0 11 22 20
33 14 4 -2 5 -9 2 -14z m1525 1 c0 -5 -9 -10 -20 -10 -11 0 -20 5 -20 10 0 6
9 10 20 10 11 0 20 -4 20 -10z m455 -20 c17 -33 18 -40 7 -40 -5 0 -16 16 -25
35 -20 42 -4 47 18 5z m-3219 -7 c28 -18 33 -76 10 -108 -13 -18 -14 -15 -9
28 7 55 -9 81 -44 74 -13 -2 -23 -1 -23 3 0 13 -38 18 -49 7 -8 -8 -11 -6 -11
7 0 17 6 18 51 12 28 -4 62 -14 75 -23z m1278 6 c-9 -15 -34 -10 -28 5 3 8 12
12 20 9 8 -3 11 -9 8 -14z m422 -1 c-3 -13 -6 -60 -6 -105 0 -76 -2 -83 -20
-83 -22 0 -26 10 -9 27 6 6 14 50 16 97 3 47 10 86 16 86 5 0 7 -10 3 -22z
m1720 7 c-7 -20 4 -19 20 3 12 15 13 15 14 -9 0 -19 -6 -28 -22 -33 -34 -9
-48 -7 -48 5 0 5 5 7 10 4 6 -4 10 5 10 19 0 14 5 26 11 26 6 0 9 -7 5 -15z
m-1916 -5 c0 -5 -5 -10 -11 -10 -5 0 -7 5 -4 10 3 6 8 10 11 10 2 0 4 -4 4
-10z m267 2 c8 -5 9 -20 2 -52 -5 -25 -13 -67 -18 -95 l-9 -50 -1 56 c0 31 6
73 14 93 l15 36 -26 0 c-23 0 -25 -3 -20 -25 4 -14 2 -25 -3 -25 -5 0 -11 10
-14 21 -9 36 28 61 60 41z m-577 -22 c0 -5 -5 -10 -11 -10 -7 0 -17 -7 -24
-16 -9 -13 -16 -14 -31 -6 -18 11 -18 11 2 12 12 0 27 7 34 15 14 17 30 20 30
5z m272 -5 c0 -5 -5 -11 -11 -13 -6 -2 -11 4 -11 13 0 9 5 15 11 13 6 -2 11
-8 11 -13z m-863 -9 c9 -11 8 -15 -5 -20 -23 -9 -24 -8 -24 14 0 23 13 26 29
6z m716 -5 c3 -5 1 -12 -5 -16 -5 -3 -10 1 -10 9 0 18 6 21 15 7z m1670 -1
c-3 -5 -21 -10 -38 -9 -27 0 -29 2 -12 9 28 12 57 12 50 0z m-345 -10 c0 -5
-5 -10 -11 -10 -5 0 -7 5 -4 10 3 6 8 10 11 10 2 0 4 -4 4 -10z m465 0 c-3 -5
-10 -10 -16 -10 -5 0 -9 5 -9 10 0 6 7 10 16 10 8 0 12 -4 9 -10z m774 -27
c-13 -16 -25 -30 -26 -32 -2 -2 -6 -1 -10 2 -8 8 36 57 50 57 6 0 0 -12 -14
-27z m341 23 c0 -2 -8 -10 -17 -17 -16 -13 -17 -12 -4 4 13 16 21 21 21 13z
m-3356 -38 c-3 -5 -12 -4 -20 3 -7 6 -11 15 -8 21 3 5 12 4 20 -3 7 -6 11 -15
8 -21z m1782 11 c3 -5 2 -13 -1 -19 -6 -10 -55 16 -55 30 0 10 49 0 56 -11z
m409 3 c-3 -3 -11 0 -18 7 -9 10 -8 11 6 5 10 -3 15 -9 12 -12z m1089 -41 c-7
-7 -54 41 -48 50 3 5 16 -3 29 -19 13 -15 21 -29 19 -31z m-2834 37 c0 -9 3
-9 12 0 16 16 41 15 35 0 -2 -7 -12 -12 -21 -10 -9 2 -19 -4 -22 -13 -3 -8
-10 -15 -16 -15 -5 0 -6 5 -3 11 4 6 -1 17 -11 24 -18 14 -18 14 4 15 12 0 22
-5 22 -12z m411 -11 c-13 -13 -26 -3 -16 12 3 6 11 8 17 5 6 -4 6 -10 -1 -17z
m1994 -14 c-11 -70 -16 -84 -25 -78 -5 3 -5 18 0 35 10 36 10 34 10 60 0 11 5
20 10 20 7 0 9 -14 5 -37z m-2692 -2 c-10 -1 -25 -10 -35 -18 -12 -11 -18 -11
-24 -2 -4 7 2 19 15 30 18 15 26 16 42 6 18 -11 18 -12 2 -16z m381 14 c-6
-16 -24 -21 -24 -7 0 11 11 22 21 22 5 0 6 -7 3 -15z m1756 -11 c0 -8 -4 -12
-10 -9 -5 3 -10 13 -10 21 0 8 5 12 10 9 6 -3 10 -13 10 -21z m89 13 c-2 -1
-13 -9 -24 -17 -19 -14 -19 -14 -6 3 7 9 18 17 24 17 6 0 8 -1 6 -3z m-4698
-47 c14 0 34 7 46 15 15 11 28 12 45 5 23 -9 23 -9 2 -15 -16 -5 -20 -13 -16
-31 2 -14 0 -24 -7 -24 -6 0 -12 12 -12 28 -1 16 -3 20 -6 10 -2 -10 -9 -18
-14 -18 -5 0 -9 -7 -9 -15 0 -18 -5 -19 -32 -4 -19 10 -20 9 -15 -10 6 -26 -3
-27 -25 -2 -35 42 -41 62 -21 76 15 12 20 12 29 0 6 -8 22 -15 35 -15z m849
15 c0 -8 -7 -15 -15 -15 -9 0 -12 6 -9 15 4 8 10 15 15 15 5 0 9 -7 9 -15z
m2050 5 c0 -5 -5 -10 -11 -10 -5 0 -7 5 -4 10 3 6 8 10 11 10 2 0 4 -4 4 -10z
m600 0 c0 -5 -4 -10 -10 -10 -5 0 -10 5 -10 10 0 6 5 10 10 10 6 0 10 -4 10
-10z m1040 4 c0 -7 -27 -34 -33 -34 -3 0 -3 9 0 20 5 17 33 30 33 14z m-1360
-29 c0 -8 -4 -15 -10 -15 -5 0 -10 7 -10 15 0 8 5 15 10 15 6 0 10 -7 10 -15z
m1070 5 c0 -5 -4 -10 -10 -10 -5 0 -10 5 -10 10 0 6 5 10 10 10 6 0 10 -4 10
-10z m368 -39 c2 -11 7 -21 12 -21 12 0 70 -50 70 -61 0 -5 -21 7 -46 26 -25
19 -51 35 -59 35 -12 0 -25 29 -25 59 0 22 44 -12 48 -38z m-2738 31 c0 -14
-87 -55 -100 -47 -9 6 0 15 31 31 46 24 69 29 69 16z m665 -17 c40 -20 89 -80
79 -96 -3 -5 -1 -9 4 -9 5 0 14 -11 20 -25 8 -17 8 -25 1 -25 -6 0 -7 -5 -4
-11 9 -14 -3 -59 -15 -59 -6 0 -10 7 -10 15 0 8 -4 15 -10 15 -5 0 -7 12 -4
28 4 21 -1 34 -25 60 -17 17 -38 32 -47 32 -12 0 -15 6 -10 26 6 24 5 26 -17
20 -19 -4 -26 0 -35 20 -7 14 -12 26 -12 28 0 9 50 -2 85 -19z m2785 17 c0 -9
-64 -42 -80 -42 -21 0 -9 17 23 33 36 18 57 21 57 9z m-4300 -23 c0 -6 -4 -7
-10 -4 -5 3 -10 11 -10 16 0 6 5 7 10 4 6 -3 10 -11 10 -16z m1785 11 c3 -5
-3 -10 -15 -10 -12 0 -18 5 -15 10 3 6 10 10 15 10 5 0 12 -4 15 -10z m105
-10 c0 -5 -4 -10 -10 -10 -5 0 -10 5 -10 10 0 6 5 10 10 10 6 0 10 -4 10 -10z
m1780 -52 c18 -13 41 -40 51 -60 11 -21 25 -38 33 -38 7 0 21 20 30 43 21 55
61 96 78 79 9 -9 6 -18 -14 -39 -29 -31 -51 -80 -42 -94 6 -10 56 -1 65 12 9
14 100 29 96 15 -2 -6 -17 -12 -33 -14 -16 -2 -43 -10 -61 -18 -17 -8 -53 -17
-80 -20 -26 -4 -54 -13 -60 -22 -7 -9 -13 -11 -13 -5 0 6 -11 14 -25 17 -27 7
-35 36 -9 36 8 0 12 5 9 10 -3 6 -1 10 4 10 6 0 11 -5 11 -12 0 -6 3 -9 6 -6
16 17 -75 138 -103 138 -11 0 -11 3 -1 14 11 12 14 11 20 -4 4 -10 21 -29 38
-42z m207 36 c-9 -9 -28 6 -21 18 4 6 10 6 17 -1 6 -6 8 -13 4 -17z m-2517 12
c0 -3 -4 -8 -10 -11 -5 -3 -10 -1 -10 4 0 6 5 11 10 11 6 0 10 -2 10 -4z m950
-6 c0 -5 -4 -10 -10 -10 -5 0 -10 5 -10 10 0 6 5 10 10 10 6 0 10 -4 10 -10z
m-680 -54 c0 -5 -7 -1 -15 10 -8 10 -14 24 -14 29 0 6 6 1 14 -9 8 -11 15 -24
15 -30z m210 34 c0 -5 -4 -10 -10 -10 -5 0 -10 5 -10 10 0 6 5 10 10 10 6 0
10 -4 10 -10z m2360 5 c0 -6 -64 -33 -97 -41 -40 -10 -25 11 20 28 43 16 77
22 77 13z m-2877 -12 c-7 -2 -19 -2 -25 0 -7 3 -2 5 12 5 14 0 19 -2 13 -5z
m473 -20 c-7 -7 -26 7 -26 19 0 6 6 6 15 -2 9 -7 13 -15 11 -17z m171 7 c-1
-11 -11 -32 -23 -47 -19 -24 -24 -26 -45 -16 l-24 12 27 0 c21 1 29 8 38 36
13 38 30 47 27 15z m1211 -32 c-11 -10 -27 -18 -36 -18 -13 0 -13 2 3 14 10 7
16 20 12 29 -9 23 2 27 23 9 17 -16 17 -18 -2 -34z m-1132 -14 c8 3 14 -1 14
-9 0 -8 -6 -15 -14 -15 -8 0 -20 -15 -27 -32 -11 -29 -13 -31 -16 -11 -2 12 1
31 6 42 6 11 12 35 13 53 l1 33 4 -33 c3 -24 8 -32 19 -28z m14 42 c0 -8 -4
-18 -10 -21 -5 -3 -10 3 -10 14 0 12 5 21 10 21 6 0 10 -6 10 -14z m112 -51
c-3 -35 0 -55 7 -55 6 0 11 -4 11 -10 0 -5 -7 -10 -15 -10 -11 0 -15 11 -15
40 0 27 -6 42 -17 49 -17 10 -17 10 0 11 9 0 17 7 17 15 0 8 3 15 8 15 4 0 5
-25 4 -55z m80 31 c-3 -14 1 -17 12 -13 10 4 16 1 16 -9 0 -10 -6 -14 -15 -10
-18 7 -21 -20 -2 -27 9 -4 9 -8 -2 -15 -11 -8 -10 -12 8 -21 12 -7 26 -9 31
-6 6 3 10 1 10 -6 0 -7 -12 -10 -32 -6 -18 2 -41 0 -52 -5 -14 -8 -17 -7 -10
3 10 17 12 119 2 119 -4 0 -8 5 -8 11 0 6 10 9 23 7 15 -2 21 -9 19 -22z
m1808 8 c0 -8 -4 -12 -10 -9 -5 3 -10 10 -10 16 0 5 5 9 10 9 6 0 10 -7 10
-16z m-2310 -14 c0 -5 -7 -10 -16 -10 -8 0 -12 5 -9 10 3 6 10 10 16 10 5 0 9
-4 9 -10z m615 0 c-3 -5 -10 -10 -16 -10 -5 0 -9 5 -9 10 0 6 7 10 16 10 8 0
12 -4 9 -10z m-1035 -37 c0 -21 -4 -33 -8 -28 -4 6 -17 10 -30 9 -16 -1 -21 3
-18 12 4 11 -4 14 -32 13 -23 -1 -29 -3 -14 -6 27 -5 29 -33 2 -33 -11 0 -20
-7 -20 -15 0 -8 -4 -15 -10 -15 -5 0 -10 16 -10 35 0 41 -15 45 -53 15 -26
-20 -47 -26 -47 -12 0 22 70 47 150 52 47 4 86 7 88 8 1 1 2 -15 2 -35z m1190
21 c-8 -8 -22 -20 -32 -25 -15 -8 -18 -6 -18 11 0 17 4 20 20 15 11 -4 20 -2
20 4 0 6 5 11 11 11 8 0 7 -5 -1 -16z m4040 -14 c0 -5 -9 -11 -19 -15 -11 -3
-21 -16 -23 -28 -2 -16 -13 -24 -43 -31 -22 -5 -46 -15 -53 -23 -21 -20 -39
-15 -46 13 -8 31 -13 25 52 58 63 32 70 21 7 -13 -44 -23 -60 -51 -30 -51 8 0
15 7 15 15 0 11 11 15 40 15 38 0 40 2 40 30 0 20 5 30 15 30 8 0 15 4 15 10
0 5 7 7 15 4 8 -4 15 -10 15 -14z m-2979 -23 c-5 -12 -17 -23 -27 -24 -11 -2
-13 0 -6 3 6 3 12 16 12 30 0 16 4 22 14 18 10 -4 12 -12 7 -27z m-1211 -22
c0 -34 -4 -45 -16 -45 -8 0 -12 5 -9 10 3 6 2 10 -3 10 -22 0 3 68 26 70 1 0
2 -20 2 -45z m-585 25 c3 -5 1 -10 -4 -10 -6 0 -11 5 -11 10 0 6 2 10 4 10 3
0 8 -4 11 -10z m341 1 c11 9 14 8 14 -4 0 -21 -25 -38 -44 -31 -19 7 -20 16
-4 32 9 9 14 9 16 2 3 -8 8 -7 18 1z m1309 -1 c3 -5 1 -10 -4 -10 -6 0 -11 5
-11 10 0 6 2 10 4 10 3 0 8 -4 11 -10z m-1549 -37 c-10 -10 -19 5 -10 18 6 11
8 11 12 0 2 -7 1 -15 -2 -18z m634 17 c0 -5 -2 -10 -4 -10 -3 0 -8 5 -11 10
-3 6 -1 10 4 10 6 0 11 -4 11 -10z m-40 -10 c0 -5 -4 -10 -10 -10 -5 0 -10 5
-10 10 0 6 5 10 10 10 6 0 10 -4 10 -10z m950 -10 c0 -11 -4 -20 -10 -20 -5 0
-10 9 -10 20 0 11 5 20 10 20 6 0 10 -9 10 -20z m-3934 -17 c-7 -7 -26 7 -26
19 0 6 6 6 15 -2 9 -7 13 -15 11 -17z m314 -156 c-11 -31 -20 -64 -20 -72 0
-8 -4 -15 -10 -15 -16 0 -12 35 11 92 16 42 20 65 15 109 -4 30 -3 59 1 63 5
4 11 -21 15 -56 6 -50 4 -74 -12 -121z m1260 167 c0 -8 -5 -12 -10 -9 -6 4 -8
11 -5 16 9 14 15 11 15 -7z m2590 10 c0 -13 -45 -41 -58 -37 -9 4 -5 11 15 24
29 19 43 24 43 13z m-1949 -33 c12 -11 16 -21 11 -25 -11 -7 -42 19 -42 35 0
14 9 11 31 -10z m789 15 c0 -2 -7 -7 -16 -10 -8 -3 -12 -2 -9 4 6 10 25 14 25
6z m30 0 c0 -3 -4 -8 -10 -11 -5 -3 -10 -1 -10 4 0 6 5 11 10 11 6 0 10 -2 10
-4z m1050 -16 c0 -5 -15 -10 -32 -10 -25 0 -29 3 -18 10 20 13 50 13 50 0z
m-2428 -12 c-9 -9 -15 -9 -24 0 -9 9 -7 12 12 12 19 0 21 -3 12 -12z m138 -3
c0 -8 -2 -15 -4 -15 -2 0 -6 7 -10 15 -3 8 -1 15 4 15 6 0 10 -7 10 -15z m97
-7 c-2 -18 4 -24 26 -26 15 -2 27 -8 27 -14 0 -6 -10 -8 -22 -4 -13 3 -35 6
-49 6 -23 0 -25 3 -21 30 5 37 43 44 39 8z m284 -23 c11 -25 26 -45 34 -45 8
0 15 -4 15 -9 0 -5 -20 -5 -47 0 -43 8 -49 7 -71 -16 -12 -14 -27 -25 -32 -25
-5 0 -11 -8 -15 -19 -4 -13 -12 -17 -30 -13 -16 3 -47 -8 -89 -32 -37 -20 -68
-31 -71 -26 -4 6 1 13 10 16 8 4 29 19 45 34 26 25 95 52 150 59 5 0 16 14 25
31 8 16 21 29 28 27 7 -1 13 11 15 31 2 17 5 32 8 32 3 0 14 -20 25 -45z
m1232 38 c-7 -2 -19 -2 -25 0 -7 3 -2 5 12 5 14 0 19 -2 13 -5z m-2883 -18
c15 -18 5 -34 -11 -18 -6 6 -19 9 -28 5 -14 -5 -14 -4 -2 11 17 21 25 21 41 2z
m1560 -1 c0 -2 -9 -4 -21 -4 -11 0 -18 4 -14 10 5 8 35 3 35 -6z m446 -4 c8 0
14 -4 14 -10 0 -11 -11 -13 -34 -4 -9 3 -12 12 -9 22 4 10 8 12 11 4 2 -7 10
-12 18 -12z m79 -9 c-3 -6 -14 -11 -23 -11 -13 0 -13 2 4 14 21 15 30 14 19
-3z m132 13 c-3 -3 -12 -4 -19 -1 -8 3 -5 6 6 6 11 1 17 -2 13 -5z m106 -9
c12 -11 17 -12 20 -2 3 6 6 -7 6 -31 1 -44 -21 -83 -34 -61 -4 6 -13 8 -21 5
-21 -8 -44 4 -44 23 0 9 -3 12 -8 6 -4 -6 -14 -10 -22 -9 -8 0 -23 2 -32 2
-10 1 -18 9 -18 17 0 11 14 15 58 16 31 1 47 4 35 6 -13 2 -23 9 -23 15 0 6
11 8 26 4 21 -6 25 -4 21 8 -8 21 17 21 36 1z m-1243 -5 c0 -5 -9 -10 -21 -10
-11 0 -17 5 -14 10 3 6 13 10 21 10 8 0 14 -4 14 -10z m1350 -19 c0 -36 9 -61
22 -61 5 0 7 4 3 9 -3 5 -1 12 4 15 5 3 11 -1 15 -9 3 -8 12 -15 21 -15 8 0
15 -8 15 -18 0 -16 -6 -18 -47 -12 -27 4 -56 11 -67 15 -16 7 -16 9 -2 17 20
11 21 48 1 48 -8 0 -15 9 -15 20 0 15 7 20 25 20 21 0 25 -5 25 -29z m130 19
c0 -5 -4 -10 -10 -10 -5 0 -10 5 -10 10 0 6 5 10 10 10 6 0 10 -4 10 -10z m50
-11 c0 -11 5 -17 10 -14 6 3 10 2 10 -4 0 -6 7 -8 15 -5 11 5 12 11 4 25 -8
16 -6 19 16 19 16 0 25 -6 25 -15 0 -8 -4 -15 -10 -15 -5 0 -6 -8 -3 -17 5
-12 2 -15 -10 -10 -13 5 -17 1 -17 -14 0 -17 5 -20 33 -17 28 3 32 7 35 37 2
21 0 31 -7 26 -6 -3 -11 1 -11 10 0 10 7 15 18 13 12 -3 17 -13 17 -39 0 -26
4 -35 13 -32 7 3 10 13 7 24 -6 17 -4 18 19 8 20 -9 33 -8 66 5 22 9 49 16 60
16 18 0 17 -2 -5 -26 -31 -33 -31 -47 -3 -74 l22 -20 -42 0 c-23 0 -42 2 -42
5 0 3 9 24 21 46 11 23 19 42 17 44 -2 2 -30 -8 -63 -21 -59 -24 -89 -49 -79
-65 10 -16 -113 -10 -130 6 -8 8 -21 15 -30 15 -8 0 -18 5 -21 10 -4 6 5 10
20 10 26 0 27 2 23 45 -2 31 1 45 9 45 7 0 13 -9 13 -21z m822 14 c-6 -2 -9
-10 -5 -16 4 -6 0 -8 -9 -4 -9 3 -20 1 -24 -3 -12 -12 -38 5 -30 19 4 6 24 11
44 10 20 0 31 -3 24 -6z m-1532 -16 c0 -17 -29 -57 -41 -57 -5 0 -7 10 -5 23
2 14 9 21 20 19 10 -2 14 2 10 13 -3 8 -1 15 5 15 6 0 11 -6 11 -13z m250 4
c0 -15 -19 -23 -38 -16 -14 5 -14 7 -2 15 19 12 40 13 40 1z m900 -22 c0 -5
-4 -9 -10 -9 -5 0 -10 7 -10 16 0 8 5 12 10 9 6 -3 10 -10 10 -16z m40 -23 c0
-6 -7 -2 -15 8 -8 11 -15 25 -15 30 0 6 7 2 15 -8 8 -11 15 -25 15 -30z m170
34 c-8 -5 -19 -10 -25 -10 -5 0 -3 5 5 10 8 5 20 10 25 10 6 0 3 -5 -5 -10z
m-1496 -8 c3 -5 -1 -9 -9 -9 -8 0 -12 4 -9 9 3 4 7 8 9 8 2 0 6 -4 9 -8z m183
-19 c-6 -15 -22 -37 -34 -49 -13 -14 -20 -29 -17 -38 4 -10 1 -16 -9 -16 -8 0
-18 -7 -21 -16 -5 -13 0 -16 27 -12 44 5 63 -14 30 -29 -12 -6 -23 -8 -23 -3
0 15 -84 18 -107 4 -12 -8 -39 -14 -60 -14 l-38 1 35 19 c19 11 45 19 58 20
24 0 42 16 120 109 24 28 45 51 48 51 2 0 -2 -12 -9 -27z m623 -3 c-9 -6 -19
-5 -25 1 -6 6 -5 13 5 19 9 6 19 5 25 -1 6 -6 5 -13 -5 -19z m414 15 c-6 -16
-64 -22 -64 -6 0 4 11 7 25 6 14 -2 25 1 25 6 0 5 4 9 10 9 5 0 7 -7 4 -15z
m596 5 c0 -5 -4 -10 -10 -10 -5 0 -10 5 -10 10 0 6 5 10 10 10 6 0 10 -4 10
-10z m-2320 -15 c0 -8 -7 -15 -15 -15 -9 0 -12 6 -9 15 4 8 10 15 15 15 5 0 9
-7 9 -15z m1450 -1 c0 -8 -4 -12 -10 -9 -5 3 -10 10 -10 16 0 5 5 9 10 9 6 0
10 -7 10 -16z m-2003 -10 c24 -9 43 -21 43 -25 0 -5 -2 -9 -4 -9 -8 0 -96 41
-96 45 0 8 13 6 57 -11z m2839 -20 c0 -32 -1 -34 -13 -18 -7 10 -13 26 -13 36
0 10 6 18 13 18 8 0 13 -13 13 -36z m-1569 -4 c-1 -11 -6 -20 -13 -20 -7 0 -9
10 -6 25 5 29 21 24 19 -5z m1184 17 c-7 -7 -14 -8 -21 -1 -6 6 -2 10 12 11
16 2 18 -1 9 -10z m82 -44 c3 -27 3 -50 1 -52 -2 -3 -20 3 -40 13 l-36 17 22
19 c13 11 20 20 16 20 -8 0 16 29 25 30 4 0 9 -21 12 -47z m-4073 27 c0 -5 -4
-10 -10 -10 -5 0 -10 5 -10 10 0 6 5 10 10 10 6 0 10 -4 10 -10z m1930 0 c0
-5 -5 -10 -11 -10 -5 0 -7 5 -4 10 3 6 8 10 11 10 2 0 4 -4 4 -10z m1930 -19
c0 -39 -16 -48 -23 -13 -6 29 -1 42 14 42 5 0 9 -13 9 -29z m-2300 -1 c0 -5
-4 -10 -10 -10 -5 0 -10 5 -10 10 0 6 5 10 10 10 6 0 10 -4 10 -10z m469 -20
c-6 -16 -15 -30 -21 -30 -5 0 -7 -4 -4 -9 9 -14 -55 -34 -68 -21 -6 6 -6 10 0
10 5 0 2 5 -6 10 -13 9 -11 13 10 30 14 11 35 20 47 20 12 0 25 5 28 10 14 22
23 8 14 -20z m991 20 c0 -5 -7 -7 -15 -4 -8 4 -15 8 -15 10 0 2 7 4 15 4 8 0
15 -4 15 -10z m608 4 c34 -9 29 -36 -5 -28 -35 9 -43 13 -43 25 0 10 15 11 48
3z m182 -10 c0 -8 -5 -12 -10 -9 -6 4 -8 11 -5 16 9 14 15 11 15 -7z m-1050
-14 c0 -11 -4 -20 -10 -20 -5 0 -10 9 -10 20 0 11 5 20 10 20 6 0 10 -9 10
-20z m176 -11 c-3 -17 -6 -38 -6 -45 0 -8 -7 -14 -15 -14 -8 0 -15 7 -15 15 0
8 5 15 11 15 6 0 9 7 5 15 -7 19 3 45 16 45 6 0 8 -13 4 -31z m1042 17 c7 -4
12 -14 12 -23 0 -12 -6 -14 -27 -8 -33 8 -55 24 -48 35 6 9 46 7 63 -4z m446
-2 c4 -10 1 -14 -6 -12 -15 5 -23 28 -10 28 5 0 13 -7 16 -16z m-1334 -4 c0
-5 -7 -7 -15 -4 -8 4 -15 8 -15 10 0 2 7 4 15 4 8 0 15 -4 15 -10z m-1530 -10
c0 -5 -5 -10 -11 -10 -5 0 -7 5 -4 10 3 6 8 10 11 10 2 0 4 -4 4 -10z m2260
-6 c0 -2 -11 -4 -25 -4 -14 0 -25 4 -25 9 0 4 11 6 25 3 14 -2 25 -6 25 -8z
m-947 -6 c6 -17 -5 -42 -20 -45 -7 -2 -13 4 -13 12 0 8 4 15 10 15 5 0 7 7 4
15 -4 8 -2 15 4 15 5 0 12 -6 15 -12z m210 -9 c31 -6 57 -15 57 -19 0 -4 7 -7
16 -6 9 0 19 -5 21 -11 3 -8 -4 -13 -17 -13 -13 0 -24 -8 -27 -20 -3 -11 -10
-20 -15 -20 -6 0 -8 9 -5 20 4 17 0 20 -31 20 -21 0 -48 3 -62 6 -20 4 -22 3
-10 -5 12 -8 8 -11 -18 -11 -27 0 -33 4 -30 18 3 14 14 17 73 15 l70 -2 -40
14 c-22 7 -48 14 -57 14 -9 1 -20 6 -24 13 -5 8 0 9 17 5 13 -4 50 -12 82 -18z
m-918 -15 c-11 -8 -31 -24 -45 -35 l-25 -20 25 6 25 6 -21 -18 c-12 -10 -30
-23 -39 -28 -13 -8 -16 -17 -11 -33 l7 -22 29 20 c29 21 60 27 60 11 0 -5 -12
-17 -27 -26 -16 -10 -32 -24 -36 -32 -4 -7 -15 -13 -25 -13 -9 0 -37 -21 -63
-46 -40 -40 -46 -49 -36 -65 6 -10 8 -22 4 -26 -5 -4 -12 -1 -16 6 -7 10 -12
8 -25 -10 -9 -13 -16 -29 -16 -35 0 -7 -7 -15 -16 -18 -9 -3 -14 -12 -11 -19
2 -6 -2 -26 -9 -44 -8 -17 -17 -65 -20 -105 -4 -40 -11 -79 -17 -86 -15 -19
-5 -23 32 -12 24 7 33 6 37 -5 3 -8 13 -11 21 -8 13 5 13 3 4 -15 -14 -26 -19
-27 -42 -6 -20 18 -39 11 -39 -16 0 -29 61 -43 77 -17 15 22 63 61 63 50 0 -7
-14 -25 -31 -42 -17 -17 -26 -31 -20 -31 6 0 11 -5 11 -11 0 -11 -71 -6 -104
7 -8 3 -12 -9 -12 -38 0 -86 -11 -126 -58 -219 -11 -22 -11 -27 3 -37 14 -9
13 -11 -7 -11 -13 -1 -43 -21 -71 -48 -35 -36 -78 -62 -168 -103 l-120 -55 1
-71 c1 -80 -12 -105 -70 -129 -35 -14 -59 -48 -50 -71 3 -8 -1 -14 -10 -14
-26 0 -104 -51 -104 -68 0 -21 -17 -48 -25 -41 -3 4 -1 18 4 32 7 18 7 27 -2
30 -7 2 24 38 68 79 44 42 81 72 83 67 6 -16 61 21 77 51 17 32 19 59 8 87 -6
13 -9 3 -13 -31 -7 -69 -25 -69 -25 -1 0 44 3 55 16 55 19 0 29 20 29 55 0 14
9 29 19 35 21 11 54 3 46 -11 -6 -8 76 26 144 61 20 10 56 37 80 61 l44 42
-34 28 -34 28 -55 -54 c-45 -44 -72 -60 -148 -89 -52 -20 -105 -36 -119 -36
-25 0 -26 -1 -20 -55 3 -30 2 -55 -3 -55 -10 0 -30 56 -30 86 0 23 -3 24 -67
24 -60 0 -65 1 -48 14 11 7 56 16 100 20 169 13 345 90 337 146 -3 20 -1 22
10 12 18 -14 29 -6 21 16 -5 11 -2 14 10 9 26 -10 73 76 81 149 6 58 5 62 -16
69 -22 7 -22 8 -2 12 19 4 22 15 32 116 9 92 41 226 59 247 2 2 8 -2 13 -10 8
-12 10 -10 10 8 0 12 -4 22 -10 22 -5 0 -10 5 -10 10 0 6 6 10 13 8 8 -2 27
13 43 32 16 19 22 29 13 23 -9 -7 -19 -10 -22 -6 -9 9 12 33 29 33 8 0 13 3
12 8 -5 18 14 50 37 62 13 7 23 18 22 24 -1 6 5 11 13 11 8 0 35 13 60 28 44
26 45 27 15 27 -26 0 -128 -21 -177 -36 -10 -3 -18 -2 -18 3 0 5 46 19 103 32
108 24 137 35 176 63 13 10 26 18 30 18 3 0 -3 -8 -14 -16z m1172 10 c-3 -3
-12 -4 -19 -1 -8 3 -5 6 6 6 11 1 17 -2 13 -5z m103 -14 c0 -11 5 -20 10 -20
6 0 10 7 10 15 0 8 5 15 10 15 6 0 10 -4 10 -9 0 -4 19 -5 43 0 59 11 67 11
67 -5 0 -8 5 -18 12 -22 7 -5 9 -2 5 8 -7 19 19 28 83 28 40 -1 43 -2 28 -14
-23 -17 -23 -26 1 -26 10 0 21 7 24 15 4 9 16 13 37 10 18 -2 43 0 56 5 13 5
26 5 29 0 3 -4 -8 -11 -24 -15 -19 -4 -28 -11 -25 -20 3 -7 1 -16 -5 -20 -6
-3 -11 -1 -11 6 0 7 -3 9 -7 6 -3 -4 0 -18 7 -32 15 -29 14 -31 -23 -40 -17
-5 -27 -3 -27 4 0 6 8 12 18 12 9 1 -1 5 -23 8 -22 3 -43 3 -46 -2 -14 -19
-39 7 -40 42 -2 27 -3 30 -6 10 -2 -15 -15 -32 -29 -39 -29 -16 -39 -9 -26 17
9 16 6 18 -28 17 -20 -1 -43 -5 -51 -9 -7 -5 -14 -4 -17 3 -5 17 -62 15 -62
-2 0 -9 8 -12 24 -9 14 3 25 -1 28 -9 4 -10 -10 -13 -63 -14 -72 -2 -88 7 -41
24 26 10 27 11 5 17 -13 4 -23 11 -23 16 0 6 10 14 23 19 18 7 18 9 4 9 -27 1
-10 21 19 21 17 0 24 -5 24 -20z m-156 -14 c55 -7 67 -13 47 -26 -9 -5 -12
-17 -8 -31 6 -23 5 -23 -8 -5 -8 11 -15 23 -15 28 0 4 -4 8 -10 8 -5 0 -10
-10 -10 -23 0 -19 -5 -23 -35 -24 -37 -1 -45 12 -22 36 10 11 10 13 0 7 -8 -4
-13 -1 -13 8 0 23 12 48 19 38 3 -5 28 -12 55 -16z m-854 -1 c9 0 21 -4 28 -9
25 -15 -1 -26 -61 -25 -55 2 -116 -13 -187 -45 -11 -4 -16 0 -17 14 -2 25 35
46 97 55 25 4 49 11 55 16 5 5 23 6 40 3 16 -4 37 -8 45 -9z m1605 5 c3 -5 -1
-10 -10 -10 -9 0 -13 5 -10 10 3 6 8 10 10 10 2 0 7 -4 10 -10z m449 -26 c-14
-20 -14 -24 -2 -24 25 0 38 -42 22 -71 -16 -29 -18 -42 -4 -34 6 4 10 3 9 -2
-3 -19 2 -34 9 -29 5 3 9 0 9 -7 0 -7 2 -16 4 -22 6 -18 -12 -85 -22 -85 -6 0
-6 -7 1 -20 13 -25 -5 -28 -19 -3 -7 13 -6 22 4 33 22 25 21 63 -2 101 -20 32
-28 83 -12 73 11 -6 18 22 9 36 -7 11 -11 11 -23 1 -9 -6 -18 -8 -20 -4 -9 14
31 95 43 88 6 -4 4 -15 -6 -31z m-74 6 c0 -14 -17 -28 -62 -51 -59 -30 -92
-35 -173 -28 -11 0 -32 0 -47 -2 l-26 -3 20 -29 c27 -38 16 -46 -13 -8 -28 38
-54 28 -63 -24 -4 -20 -14 -39 -22 -42 -7 -3 -14 -12 -14 -20 0 -8 -13 -25
-29 -39 -17 -14 -33 -34 -36 -44 -4 -11 -12 -20 -18 -20 -14 0 -20 57 -7 65 6
4 10 -1 10 -10 0 -9 4 -14 10 -10 5 3 6 13 3 22 -4 11 -2 14 8 11 8 -3 19 1
26 8 17 17 16 24 -3 24 -15 0 -15 2 0 25 21 32 21 49 -1 40 -10 -4 -25 -10
-33 -13 -8 -3 -1 9 17 26 24 24 40 32 68 32 21 0 49 9 65 20 16 11 32 19 37
18 4 -1 19 4 32 11 21 12 23 11 18 -3 -4 -10 -1 -16 8 -16 8 0 15 6 15 13 1 7
6 5 14 -5 7 -10 26 -18 44 -18 39 0 142 58 135 77 -3 7 0 13 6 13 6 0 11 -9
11 -20z m-2485 0 c3 -5 -1 -10 -10 -10 -9 0 -13 5 -10 10 3 6 8 10 10 10 2 0
7 -4 10 -10z m-1315 -9 c0 -17 -18 -21 -24 -6 -3 9 0 15 9 15 8 0 15 -4 15 -9z
m3435 -1 c3 -5 1 -10 -4 -10 -6 0 -11 5 -11 10 0 6 2 10 4 10 3 0 8 -4 11 -10z
m-979 -27 c-8 -8 -36 5 -36 17 0 7 6 7 21 0 11 -7 18 -14 15 -17z m932 -9 c-6
-32 -25 -26 -20 6 3 21 8 28 14 22 6 -6 8 -18 6 -28z m-2929 -10 c12 -20 20
-38 18 -40 -2 -2 -20 14 -41 36 -32 34 -35 40 -18 40 12 0 28 -14 41 -36z
m2881 26 c0 -5 -4 -10 -10 -10 -5 0 -10 5 -10 10 0 6 5 10 10 10 6 0 10 -4 10
-10z m-1110 -20 c0 -11 5 -20 11 -20 6 0 9 7 6 14 -4 10 -1 13 9 9 8 -3 13
-11 10 -19 -3 -7 0 -15 7 -18 9 -3 8 -7 -2 -15 -13 -8 -11 -13 10 -30 13 -11
27 -20 32 -21 13 0 8 12 -10 26 -12 9 -13 13 -5 14 9 0 10 5 2 19 -12 24 -13
31 -2 31 10 0 42 -65 42 -84 0 -18 27 -28 51 -21 13 5 19 1 19 -10 0 -14 -7
-16 -35 -13 -32 4 -35 2 -35 -23 0 -17 9 -34 23 -44 l22 -17 -30 6 c-16 4 -49
9 -73 13 l-44 6 -75 -82 c-42 -44 -82 -81 -89 -81 -7 0 -19 -10 -25 -22 l-12
-22 -8 22 c-5 12 -13 22 -18 22 -17 0 -44 63 -43 99 1 19 -5 48 -13 64 -8 17
-15 36 -15 43 0 19 -22 64 -29 60 -3 -2 -6 18 -7 45 0 47 1 49 27 49 22 0 27
-4 22 -16 -3 -8 -12 -13 -19 -10 -16 6 -17 4 -8 -18 8 -21 30 -20 44 2 10 16
10 15 8 -3 -1 -11 1 -26 6 -33 12 -19 -1 -27 -19 -12 -23 19 -29 6 -15 -35
l12 -37 27 26 c14 14 35 39 45 57 l18 31 -22 -12 c-27 -14 -36 -8 -14 10 14
12 12 16 -18 31 l-33 18 33 1 c18 0 35 -6 38 -14 3 -8 15 -11 31 -8 19 4 24 2
18 -8 -4 -7 -3 -15 3 -19 5 -3 12 -15 14 -26 2 -16 -3 -21 -27 -23 l-29 -4 24
-19 25 -20 -35 6 c-29 5 -39 2 -58 -18 -23 -24 -23 -25 -6 -68 22 -58 33 -69
45 -46 14 24 33 22 19 -2 -16 -30 -12 -41 13 -41 30 0 59 22 55 40 -2 10 3 14
15 12 21 -3 22 11 3 27 -8 7 -13 20 -11 29 2 9 4 20 4 25 1 4 10 16 22 28 19
19 20 22 4 46 -14 21 -15 27 -4 34 19 12 39 11 39 -1 0 -5 -7 -10 -16 -10 -13
0 -11 -7 10 -34 14 -19 26 -44 26 -56 0 -17 4 -20 18 -15 9 5 33 11 52 14 27
5 36 11 37 29 2 17 -2 23 -15 21 -44 -6 -113 36 -98 59 3 6 -5 17 -19 26 -23
15 -25 46 -3 46 6 0 8 -7 4 -15 -3 -8 -1 -15 4 -15 6 0 10 9 10 20 0 11 5 20
10 20 6 0 10 -9 10 -20z m320 10 c0 -5 -5 -10 -11 -10 -5 0 -7 5 -4 10 3 6 8
10 11 10 2 0 4 -4 4 -10z m904 -6 c9 -22 -3 -32 -14 -14 -12 19 -12 30 -1 30
5 0 12 -7 15 -16z m-1060 -9 c-4 -8 -10 -12 -15 -9 -14 8 -10 24 6 24 9 0 12
-6 9 -15z m-2384 -71 c-5 -13 -6 -24 -2 -24 4 0 2 -4 -4 -8 -19 -12 -85 -138
-77 -147 5 -4 3 -5 -4 -1 -8 4 -16 -12 -24 -54 -13 -67 -24 -83 -31 -45 -3 14
-1 25 5 25 5 0 7 11 5 25 -3 14 -2 25 2 25 8 0 25 49 22 63 -1 4 2 7 8 7 5 0
21 23 35 50 14 28 23 50 19 50 -3 0 2 7 10 16 9 8 16 30 16 48 0 18 3 36 7 40
12 12 22 -44 13 -70z m1850 53 c0 -7 15 -44 33 -82 28 -58 35 -86 39 -159 7
-112 24 -140 90 -144 53 -3 88 21 139 94 21 31 34 42 47 38 14 -5 14 -4 3 4
-39 28 73 67 124 44 21 -10 22 -14 12 -36 -13 -27 -31 -24 -24 5 5 20 -7 26
-18 9 -3 -5 -13 -6 -21 -3 -11 4 -14 1 -12 -10 2 -10 -18 -32 -51 -56 -30 -23
-50 -41 -43 -41 6 0 14 5 17 10 4 6 13 4 23 -6 15 -15 14 -18 -7 -35 -28 -23
-41 -24 -41 -4 0 10 -6 12 -17 8 -16 -6 -16 -5 -4 10 23 29 -4 19 -34 -13 -16
-16 -37 -30 -47 -30 -12 0 -18 -7 -18 -24 0 -21 -6 -24 -40 -28 -45 -4 -51 15
-7 20 30 4 37 22 9 22 -27 0 -80 57 -92 98 -5 21 -10 57 -10 81 0 41 -1 43
-25 37 -33 -8 -32 8 1 23 l26 12 -27 25 c-21 19 -34 24 -56 19 -16 -4 -32 -12
-36 -18 -5 -7 -29 -22 -55 -34 -44 -21 -65 -53 -35 -53 6 0 -1 -12 -16 -25
-15 -14 -33 -25 -40 -25 -7 0 -4 7 6 14 17 13 23 36 9 36 -4 0 -9 12 -10 28
-1 20 0 23 8 12 8 -13 12 -12 25 8 9 12 24 22 34 22 11 0 21 6 24 14 3 8 16
16 29 18 13 2 23 10 23 18 0 21 17 31 32 19 31 -26 40 25 16 88 -4 11 -2 14 5
9 7 -4 12 -13 12 -19z m1565 13 c3 -5 -1 -10 -9 -10 -9 0 -16 5 -16 10 0 6 4
10 9 10 6 0 13 -4 16 -10z m-2185 -10 c-8 -5 -35 -12 -60 -16 -25 -4 -74 -18
-109 -31 -35 -13 -69 -22 -75 -20 -15 6 31 24 134 52 93 26 136 32 110 15z
m402 -13 c-12 -6 -25 -7 -29 -3 -11 10 18 25 35 18 13 -4 11 -8 -6 -15z m848
7 c0 -2 -9 -4 -21 -4 -11 0 -18 4 -14 10 5 8 35 3 35 -6z m830 -14 c0 -11 -2
-20 -4 -20 -2 0 -6 9 -9 20 -3 11 -1 20 4 20 5 0 9 -9 9 -20z m-783 4 c-3 -3
-12 -4 -19 -1 -8 3 -5 6 6 6 11 1 17 -2 13 -5z m72 -24 c10 -29 30 -41 32 -20
1 6 2 16 3 23 1 6 10 10 21 9 27 -5 31 -10 17 -24 -7 -7 -12 -21 -12 -31 0
-16 3 -17 15 -7 13 11 15 8 15 -14 0 -14 6 -26 13 -27 6 0 2 -4 -10 -9 -28
-12 -30 -40 -3 -40 11 0 19 5 18 12 -2 6 5 14 15 16 11 2 17 -3 17 -15 0 -20
18 -43 32 -43 5 0 13 11 18 24 6 16 16 24 35 24 l27 0 -33 -34 c-31 -32 -32
-35 -16 -51 14 -14 21 -15 36 -6 15 9 21 9 23 1 3 -7 21 -12 41 -12 38 0 48
-9 21 -20 -14 -5 -14 -7 0 -22 18 -17 22 -39 6 -29 -5 3 -10 -1 -10 -9 0 -21
-6 -20 -30 4 -24 24 -25 31 -5 24 8 -4 15 -1 15 4 0 17 -20 25 -34 13 -12 -10
-41 3 -74 36 -7 7 -18 13 -23 13 -16 0 -9 -19 13 -34 26 -19 7 -22 -22 -4 -28
18 -72 -24 -63 -60 l6 -25 -26 19 -26 19 51 51 c32 33 46 54 38 59 -6 4 -18 4
-26 1 -8 -3 -17 1 -20 9 -4 8 -10 15 -15 15 -14 0 -11 -48 4 -53 23 -8 -1 -18
-48 -20 -42 -2 -49 1 -75 33 -16 19 -30 40 -30 46 0 7 -7 11 -16 10 -30 -2
-25 21 8 37 32 15 53 14 43 -3 -3 -5 0 -12 7 -16 7 -4 10 -4 6 1 -4 4 -3 14 3
21 8 10 2 14 -25 19 -39 8 -61 27 -53 47 4 8 6 7 6 -4 1 -22 8 -23 27 -3 9 8
13 15 9 15 -3 0 -3 5 0 10 4 6 11 8 16 4 6 -4 1 -16 -12 -30 -26 -28 -17 -32
16 -6 21 17 22 20 9 50 -11 27 -11 32 1 32 7 0 18 -13 24 -30z m221 -41 c0
-46 -2 -49 -25 -49 -21 0 -25 5 -25 30 0 17 5 30 10 30 6 0 10 8 10 18 0 10 3
22 6 25 15 14 24 -7 24 -54z m60 51 c0 -5 -11 -10 -25 -10 -14 0 -25 5 -25 10
0 6 11 10 25 10 14 0 25 -4 25 -10z m114 -6 c9 -8 16 -11 16 -6 0 13 45 21 61
11 24 -14 -10 -41 -43 -34 -30 7 -39 -9 -11 -19 29 -11 -3 -30 -55 -32 -27 -1
-58 -7 -70 -13 -25 -13 -30 0 -7 19 8 7 12 16 9 21 -3 5 -1 9 5 9 5 0 18 14
28 30 19 33 43 38 67 14z m216 5 c0 6 5 11 11 11 6 0 8 -8 6 -17 -18 -66 -18
-75 3 -80 11 -3 20 -9 20 -14 0 -12 2 -13 -76 19 -59 24 -69 32 -72 55 -5 37
14 34 22 -3 3 -16 10 -30 16 -30 6 0 9 4 5 9 -3 5 -1 12 5 16 5 3 10 1 10 -4
0 -6 11 -11 25 -11 16 0 25 6 25 15 0 8 -9 15 -19 15 -11 0 -22 4 -25 9 -9 13
17 20 32 8 8 -6 12 -6 12 2z m-1375 -9 c3 -5 2 -10 -4 -10 -5 0 -13 5 -16 10
-3 6 -2 10 4 10 5 0 13 -4 16 -10z m1449 -21 c3 -17 6 -45 6 -62 l0 -30 -25
28 c-22 23 -24 29 -13 43 11 12 11 16 0 20 -10 3 -10 7 -1 18 18 21 26 17 33
-17z m-4214 11 c0 -5 -4 -10 -10 -10 -5 0 -10 5 -10 10 0 6 5 10 10 10 6 0 10
-4 10 -10z m2598 -7 c-5 -25 -28 -28 -28 -4 0 12 6 21 16 21 9 0 14 -7 12 -17z
m1088 -9 c-4 -9 -9 -15 -11 -12 -3 3 -3 13 1 22 4 9 9 15 11 12 3 -3 3 -13 -1
-22z m112 -22 c2 -12 -1 -22 -7 -22 -6 0 -8 7 -4 15 3 9 2 15 -3 14 -18 -3
-25 1 -19 12 10 16 30 5 33 -19z m-3778 -15 c0 -18 -2 -19 -10 -7 -13 20 -13
43 0 35 6 -3 10 -16 10 -28z m2640 29 c0 -11 -19 -15 -25 -6 -3 5 1 10 9 10 9
0 16 -2 16 -4z m-834 -52 c-26 -26 -50 -44 -53 -40 -9 8 69 86 86 86 8 0 -7
-21 -33 -46z m1574 8 c-6 -2 -17 2 -26 9 -12 10 -12 14 -2 20 8 6 18 2 26 -9
8 -11 9 -18 2 -20z m-1384 6 c5 -17 0 -28 -27 -50 -45 -38 -63 -35 -21 3 23
21 32 37 29 50 -7 27 10 24 19 -3z m389 12 c-3 -5 -11 -10 -16 -10 -6 0 -7 5
-4 10 3 6 11 10 16 10 6 0 7 -4 4 -10z m-30 -28 c-8 -8 -25 10 -19 20 4 6 9 5
15 -3 4 -7 6 -15 4 -17z m805 18 c0 -5 -4 -10 -10 -10 -5 0 -10 5 -10 10 0 6
5 10 10 10 6 0 10 -4 10 -10z m836 -16 c-11 -7 -22 -11 -25 -8 -3 3 3 12 13
20 11 7 22 11 25 8 3 -3 -3 -12 -13 -20z m-1514 -16 c-15 -15 -26 -4 -18 18 5
13 9 15 18 6 9 -9 9 -15 0 -24z m1478 2 c0 -14 -15 -19 -29 -10 -17 10 -5 31
14 23 8 -3 15 -9 15 -13z m-925 0 c3 -5 -1 -10 -10 -10 -9 0 -13 5 -10 10 3 6
8 10 10 10 2 0 7 -4 10 -10z m265 0 c0 -5 -4 -10 -10 -10 -5 0 -9 -4 -7 -9 1
-5 -1 -9 -5 -10 -8 -1 -8 6 -1 27 6 14 23 16 23 2z m97 4 c-3 -3 -12 -4 -19
-1 -8 3 -5 6 6 6 11 1 17 -2 13 -5z m489 -21 c-10 -10 -19 5 -10 18 6 11 8 11
12 0 2 -7 1 -15 -2 -18z m-3561 -3 c3 -5 -3 -10 -14 -10 -12 0 -21 5 -21 10 0
6 6 10 14 10 8 0 18 -4 21 -10z m1737 -33 c-12 -22 -18 -64 -20 -134 -2 -61
-8 -103 -14 -103 -18 0 -5 210 15 248 10 18 22 30 27 27 4 -3 1 -20 -8 -38z
m1943 33 c3 -5 -1 -10 -9 -10 -9 0 -16 5 -16 10 0 6 4 10 9 10 6 0 13 -4 16
-10z m40 -1 c11 -17 -1 -21 -15 -4 -8 9 -8 15 -2 15 6 0 14 -5 17 -11z m-2235
-24 c0 -8 -4 -15 -9 -15 -13 0 -22 16 -14 24 11 11 23 6 23 -9z m1964 -10 c-4
-8 -10 -15 -15 -15 -5 0 -9 7 -9 15 0 8 7 15 15 15 9 0 12 -6 9 -15z m-1096
-13 c6 -18 -15 -14 -22 4 -4 10 -1 14 6 12 6 -2 14 -10 16 -16z m262 8 c0 -5
-2 -10 -4 -10 -3 0 -8 5 -11 10 -3 6 -1 10 4 10 6 0 11 -4 11 -10z m496 -55
c35 -36 64 -71 64 -78 -1 -7 -6 -5 -13 5 -9 11 -18 14 -28 7 -20 -13 -35 -11
-21 3 8 8 8 17 1 30 -8 14 -14 16 -29 8 -27 -15 -25 -27 10 -60 29 -27 70 -34
98 -16 17 11 15 -5 -5 -26 -15 -17 -15 -18 0 -18 20 0 23 -17 5 -23 -7 -2 0
-3 16 -1 23 3 26 1 17 -9 -6 -8 -8 -17 -4 -20 3 -4 0 -14 -7 -23 -12 -13 -11
-17 1 -24 11 -7 11 -12 1 -22 -18 -18 -15 -79 7 -102 13 -14 16 -27 11 -41 -6
-17 -8 -16 -14 13 -7 28 -15 36 -36 34 -3 0 -3 29 -2 64 5 88 -27 169 -72 184
-32 10 -86 69 -86 93 0 8 -9 22 -20 32 -11 10 -20 22 -20 26 0 6 34 22 58 28
2 1 32 -28 68 -64z m-966 39 c0 -8 -4 -12 -10 -9 -5 3 -10 10 -10 16 0 5 5 9
10 9 6 0 10 -7 10 -16z m-130 -4 c0 -5 -4 -10 -10 -10 -5 0 -10 5 -10 10 0 6
5 10 10 10 6 0 10 -4 10 -10z m1700 -10 c0 -5 -5 -10 -11 -10 -5 0 -7 5 -4 10
3 6 8 10 11 10 2 0 4 -4 4 -10z m-1760 -37 c0 -7 -4 -13 -9 -13 -10 0 -21 36
-13 45 7 7 22 -15 22 -32z m520 33 c0 -6 -61 -36 -72 -36 -15 0 3 21 26 30 23
10 46 12 46 6z m-2725 -36 c17 -33 18 -40 7 -40 -9 0 -32 44 -32 60 0 18 9 10
25 -20z m3263 -51 c28 -44 50 -69 60 -68 38 3 62 -13 61 -40 -1 -14 2 -38 6
-53 4 -17 3 -28 -3 -28 -5 0 -13 16 -16 35 -4 19 -11 35 -16 35 -5 0 -16 -16
-24 -35 -8 -19 -20 -35 -25 -35 -14 0 -14 17 -1 25 19 11 10 23 -12 18 l-23
-6 22 19 23 19 -45 69 c-25 39 -52 77 -60 86 -18 20 -19 30 -2 30 6 0 32 -32
55 -71z m842 46 c-7 -9 -15 -13 -18 -10 -3 2 1 11 8 20 7 9 15 13 18 10 3 -2
-1 -11 -8 -20z m-2695 5 c3 -5 -3 -10 -14 -10 -11 0 -23 -4 -26 -10 -9 -15 26
-12 55 5 29 16 40 18 40 7 0 -11 -60 -41 -90 -44 -17 -2 -25 -9 -24 -20 1 -10
-2 -16 -6 -13 -4 2 -12 -7 -18 -20 -9 -19 -19 -25 -42 -25 -16 0 -30 5 -30 10
0 6 11 10 25 10 17 0 29 9 41 31 12 24 13 30 2 27 -7 -2 -17 -13 -22 -25 -9
-19 -16 -20 -101 -15 -117 6 -147 -7 -165 -73 -7 -25 -17 -45 -21 -45 -22 0 6
81 37 111 23 21 37 25 127 29 58 3 102 9 102 15 0 21 16 33 37 28 13 -4 25 0
32 9 10 13 31 25 48 27 4 1 10 -3 13 -9z m825 -16 c0 -8 -4 -14 -10 -14 -5 0
-10 9 -10 21 0 11 5 17 10 14 6 -3 10 -13 10 -21z m2539 17 c21 -14 -4 -54
-30 -46 -15 5 -19 2 -19 -14 0 -12 -4 -21 -10 -21 -13 0 -13 -57 0 -65 14 -9
7 -63 -8 -57 -7 2 -12 12 -10 21 2 10 -5 30 -16 45 -10 16 -14 31 -10 35 5 3
18 23 28 44 11 20 23 37 29 37 5 0 7 7 3 15 -6 17 20 20 43 6z m-2232 -23 c-3
-8 -6 -5 -6 6 -1 11 2 17 5 13 3 -3 4 -12 1 -19z m-349 0 c17 -17 15 -28 -7
-28 -19 0 -35 23 -24 34 9 9 18 7 31 -6z m1872 -3 c10 -12 10 -15 -3 -15 -8 0
-17 7 -21 15 -3 8 -2 15 3 15 5 0 14 -7 21 -15z m-1718 -58 c-10 -12 -24 -30
-29 -41 -6 -10 -13 -14 -16 -9 -4 6 8 30 25 54 19 26 33 38 36 31 2 -8 -5 -23
-16 -35z m60 21 c-7 -7 -12 -8 -12 -2 0 6 3 14 7 17 3 4 9 5 12 2 2 -3 -1 -11
-7 -17z m1848 15 c0 -3 -7 -14 -16 -24 -10 -11 -12 -19 -5 -24 6 -3 11 -1 11
6 0 8 5 7 17 -2 15 -12 16 -12 10 4 -5 14 -1 17 23 17 34 0 38 -15 12 -46 -28
-33 -94 -62 -77 -34 9 15 -2 12 -31 -6 -30 -20 -34 -17 -37 33 -2 38 -4 40
-31 39 -49 -2 -41 21 11 30 66 12 113 15 113 7z m-3920 -24 c0 -11 7 -27 15
-36 9 -8 14 -17 12 -19 -8 -8 -34 7 -35 19 0 7 -4 22 -7 35 -5 14 -3 22 4 22
6 0 11 -9 11 -21z m2146 2 c0 -16 -7 -20 -38 -19 -21 0 -38 2 -38 4 0 5 54 33
65 34 6 0 11 -9 11 -19z m1585 -24 c-8 -8 -11 -7 -11 4 0 20 13 34 18 19 3 -7
-1 -17 -7 -23z m-276 -8 c-7 -20 -8 -21 -17 -4 -8 12 -7 20 3 26 18 11 22 5
14 -22z m-85 -5 c0 -22 -3 -25 -22 -20 -13 3 -34 6 -48 6 -23 1 -23 2 -7 11
10 6 27 9 38 6 12 -3 19 0 19 9 0 8 5 14 10 14 6 0 10 -12 10 -26z m-1470 7
c0 -5 3 -23 6 -40 4 -18 2 -31 -4 -31 -5 0 -12 18 -14 40 -2 22 0 40 4 40 5 0
8 -4 8 -9z m890 -1 c0 -5 -2 -10 -4 -10 -3 0 -8 5 -11 10 -3 6 -1 10 4 10 6 0
11 -4 11 -10z m-1920 -9 c0 -4 -21 -11 -47 -14 -52 -6 -88 -37 -80 -69 3 -10
1 -16 -4 -12 -5 3 -9 0 -9 -5 0 -6 -22 -22 -50 -36 -27 -14 -50 -21 -50 -15 0
5 18 19 40 30 29 15 45 32 56 61 9 22 28 46 43 54 29 16 101 20 101 6z m2383
-28 c11 -15 -1 -17 -21 -5 -8 5 -10 16 -6 27 6 15 9 16 12 4 3 -7 9 -20 15
-26z m337 12 c-7 -8 -17 -15 -23 -15 -5 0 -2 9 8 20 21 23 35 19 15 -5z
m-2080 6 c0 -12 -80 -64 -88 -57 -6 7 -8 6 43 39 44 30 45 30 45 18z m560 -23
c0 -5 -7 -8 -15 -8 -15 0 -20 21 -8 33 7 7 23 -11 23 -25z m241 -23 c9 -30 12
-55 7 -55 -10 0 -22 29 -33 78 -11 54 9 36 26 -23z m1207 26 c3 -8 -1 -12 -9
-9 -7 2 -15 10 -17 17 -3 8 1 12 9 9 7 -2 15 -10 17 -17z m-1388 -1 c0 -5 -4
-10 -10 -10 -5 0 -10 5 -10 10 0 6 5 10 10 10 6 0 10 -4 10 -10z m580 -19 c0
-5 -7 -12 -16 -15 -21 -8 -24 -8 -24 5 0 5 5 7 10 4 6 -3 10 -1 10 4 0 6 5 11
10 11 6 0 10 -4 10 -9z m630 -11 c0 -5 -4 -10 -10 -10 -5 0 -10 5 -10 10 0 6
5 10 10 10 6 0 10 -4 10 -10z m-143 -22 c-3 -8 -6 -5 -6 6 -1 11 2 17 5 13 3
-3 4 -12 1 -19z m-1285 -18 c-2 -16 -6 -30 -8 -30 -2 0 -4 14 -4 30 0 17 4 30
8 30 5 0 7 -13 4 -30z m2209 -42 c5 1 9 -2 9 -7 0 -5 3 -17 7 -27 11 -29 -50
13 -93 64 l-38 45 53 -39 c29 -21 57 -38 62 -36z m210 51 c8 -17 8 -20 -2 -17
-7 2 -13 12 -15 21 -3 23 3 21 17 -4z m111 -11 c-7 -7 -10 -5 -7 8 5 29 6 30
12 16 3 -8 1 -18 -5 -24z m-1592 2 c0 -5 -4 -10 -10 -10 -5 0 -20 -18 -32 -40
-25 -44 -30 -47 -48 -25 -10 12 -8 20 10 42 25 33 80 55 80 33z m398 -18 c2
-7 -3 -12 -12 -12 -9 0 -16 7 -16 16 0 17 22 14 28 -4z m597 8 c-3 -5 -10 -10
-16 -10 -5 0 -9 5 -9 10 0 6 7 10 16 10 8 0 12 -4 9 -10z m458 -23 c-3 -5 -9
-3 -14 4 -4 7 -5 17 -2 22 3 5 9 3 14 -4 4 -7 5 -17 2 -22z m-1695 6 c5 -18
-10 -16 -34 2 -18 15 -18 15 5 13 14 -2 26 -9 29 -15z m758 -9 c-17 -32 -28
-35 -32 -7 -3 20 5 26 38 32 4 0 1 -11 -6 -25z m-506 7 c0 -6 -4 -13 -10 -16
-5 -3 -10 1 -10 9 0 9 5 16 10 16 6 0 10 -4 10 -9z m690 -29 c-12 -4 -41 23
-34 31 3 3 14 -2 25 -11 11 -9 15 -18 9 -20z m-1988 -15 c21 -17 35 -34 32
-39 -6 -9 -94 59 -94 74 0 11 13 4 62 -35z m718 22 c0 -5 -4 -9 -10 -9 -5 0
-10 7 -10 16 0 8 5 12 10 9 6 -3 10 -10 10 -16z m950 -5 c0 -8 -7 -14 -15 -14
-8 0 -15 9 -15 20 0 13 5 18 15 14 8 -4 15 -12 15 -20z m180 6 c10 -19 10 -20
-9 -8 -11 6 -17 16 -15 20 8 12 12 10 24 -12z m-1550 0 c0 -5 -4 -10 -10 -10
-5 0 -10 5 -10 10 0 6 5 10 10 10 6 0 10 -4 10 -10z m340 -17 c0 -10 -6 -13
-16 -9 -9 3 -20 6 -25 6 -16 0 -9 18 9 23 23 5 32 -1 32 -20z m324 11 c11 -27
7 -37 -9 -24 -16 14 -20 40 -6 40 5 0 12 -7 15 -16z m736 6 c0 -5 -5 -10 -11
-10 -5 0 -7 5 -4 10 3 6 8 10 11 10 2 0 4 -4 4 -10z m475 -9 c-3 -6 -14 -11
-23 -11 -13 0 -13 2 4 14 21 15 30 14 19 -3z m-1609 -5 c16 -17 19 -56 4 -56
-5 0 -10 11 -10 24 0 13 -7 27 -16 30 -11 4 -15 2 -11 -7 3 -8 1 -20 -4 -28
-6 -11 -11 -11 -21 -1 -9 9 -9 12 0 12 7 0 12 5 12 10 0 6 -7 10 -15 10 -8 0
-15 5 -15 10 0 15 60 12 76 -4z m-176 -17 c-7 -11 -14 -18 -17 -15 -8 8 5 36
17 36 7 0 7 -6 0 -21z m1089 -69 c1 -41 -13 -60 -38 -53 -16 4 -17 9 -6 51 7
26 16 58 21 72 l8 25 7 -30 c4 -16 7 -46 8 -65z m754 41 c-9 -69 -25 -77 -21
-10 2 35 7 56 15 56 9 0 10 -14 6 -46z m-1479 17 c-12 -39 -44 -51 -44 -18 0
17 21 34 48 39 2 1 0 -9 -4 -21z m186 -23 c0 -25 -4 -45 -10 -45 -5 0 -10 20
-10 45 0 25 5 45 10 45 6 0 10 -20 10 -45z m-2710 16 c-5 -11 -10 -33 -10 -50
0 -16 -4 -33 -10 -36 -14 -9 -13 78 2 93 19 19 30 14 18 -7z m90 -23 c0 -19 9
-41 22 -55 26 -28 19 -40 -10 -16 -24 20 -43 103 -23 103 6 0 11 -14 11 -32z
m2138 9 c5 -24 -15 -21 -21 4 -3 13 -1 19 6 16 7 -2 13 -11 15 -20z m1262 13
c0 -5 -5 -10 -11 -10 -5 0 -7 5 -4 10 3 6 8 10 11 10 2 0 4 -4 4 -10z m-1825
-20 c-10 -11 -23 -20 -28 -20 -6 0 -2 9 8 20 10 11 23 20 28 20 6 0 2 -9 -8
-20z m1105 11 c0 -12 -20 -25 -27 -18 -7 7 6 27 18 27 5 0 9 -4 9 -9z m811
-15 c-22 -23 -22 -26 -6 -32 9 -4 20 -2 25 5 5 9 16 10 41 3 l34 -10 -31 -1
c-17 -1 -37 -8 -44 -16 -9 -11 -16 -12 -31 -2 -15 9 -23 9 -39 -1 -11 -6 -26
-12 -34 -12 -7 0 -19 -7 -26 -15 -10 -12 -9 -15 6 -16 18 0 18 -1 -1 -9 -29
-12 -32 -12 -32 8 0 24 16 42 38 42 11 0 19 3 19 8 0 4 10 12 23 17 14 6 21
18 20 31 -2 16 5 20 30 22 l31 3 -23 -25z m-3721 4 c0 -5 -4 -10 -10 -10 -5 0
-10 5 -10 10 0 6 5 10 10 10 6 0 10 -4 10 -10z m3595 -17 c-11 -46 -25 -51
-25 -10 0 27 4 37 16 37 13 0 15 -6 9 -27z m335 12 c0 -10 -9 -15 -27 -14 -17
1 -21 3 -10 6 9 2 17 9 17 14 0 5 5 9 10 9 6 0 10 -7 10 -15z m88 -13 c-10
-11 -10 -16 -1 -19 8 -3 9 -13 2 -36 -5 -18 -9 -34 -9 -36 0 -2 11 0 25 3 14
4 25 2 25 -3 0 -5 -9 -11 -21 -14 -18 -5 -19 -8 -7 -26 7 -11 19 -22 28 -24
10 -2 1 -12 -25 -28 -22 -14 -53 -34 -70 -45 -16 -10 -41 -20 -55 -21 -76 -8
-110 -16 -110 -28 0 -7 -6 -18 -14 -24 -12 -10 -19 -8 -35 8 -16 16 -21 33
-20 74 0 28 3 46 6 40 6 -16 33 -17 33 -2 0 8 5 8 15 -1 24 -20 18 -30 -15
-26 -30 3 -42 -15 -20 -29 6 -3 10 -3 10 2 0 4 10 8 23 9 44 2 129 15 152 24
30 11 51 46 32 53 -9 4 -9 8 2 15 8 6 10 15 5 23 -5 8 -7 22 -5 32 2 15 -2 18
-21 12 -13 -4 -27 -11 -33 -16 -5 -5 -18 -9 -30 -9 -20 1 -20 1 0 16 11 8 36
19 57 25 30 8 38 15 38 32 0 28 18 47 36 40 12 -4 12 -8 2 -21z m-1578 8 c0
-5 -4 -10 -10 -10 -5 0 -10 5 -10 10 0 6 5 10 10 10 6 0 10 -4 10 -10z m865 0
c3 -5 -3 -10 -14 -10 -12 0 -21 5 -21 10 0 6 6 10 14 10 8 0 18 -4 21 -10z
m530 -10 c3 -5 1 -10 -4 -10 -6 0 -11 5 -11 10 0 6 2 10 4 10 3 0 8 -4 11 -10z
m-3545 -31 c0 -11 -4 -17 -10 -14 -5 3 -10 15 -10 26 0 11 5 17 10 14 6 -3 10
-15 10 -26z m1626 5 c-4 -9 -9 -15 -11 -12 -3 3 -3 13 1 22 4 9 9 15 11 12 3
-3 3 -13 -1 -22z m554 6 c0 -5 -7 -10 -15 -10 -8 0 -15 5 -15 10 0 6 7 10 15
10 8 0 15 -4 15 -10z m-650 -26 c0 -8 -7 -14 -15 -14 -15 0 -21 21 -9 33 10 9
24 -2 24 -19z m452 -6 c-15 -15 -24 -6 -16 16 5 12 10 14 17 7 8 -8 8 -14 -1
-23z m719 0 c9 -16 8 -19 -3 -15 -7 2 -12 10 -10 16 1 6 -7 11 -18 11 -11 0
-20 4 -20 9 0 16 40 -1 51 -21z m-1267 -44 c-15 -26 -30 -42 -32 -35 -4 13 47
96 55 88 2 -3 -8 -27 -23 -53z m1756 16 c0 -21 -4 -28 -14 -24 -8 3 -17 1 -21
-5 -3 -6 -17 -8 -31 -5 -14 4 -31 1 -41 -7 -15 -12 -16 -12 -10 4 4 10 7 23 7
28 0 13 34 11 47 -2 18 -18 43 -2 43 26 0 15 4 24 10 20 6 -3 10 -19 10 -35z
m1700 10 c-28 -22 -55 -25 -66 -8 -5 7 -2 9 8 6 8 -4 28 2 44 12 36 24 47 15
14 -10z m-1389 -23 c32 5 39 3 39 -11 0 -14 4 -15 21 -6 11 7 24 9 27 5 3 -3
-4 -8 -16 -12 -12 -3 -22 -9 -22 -13 0 -13 -61 -5 -69 9 -6 8 -15 9 -33 2 -25
-10 -38 -6 -38 11 0 4 7 8 15 8 8 0 15 8 15 18 0 29 15 37 18 9 3 -23 6 -25
43 -20z m-1428 20 c5 -14 -40 -73 -49 -64 -3 3 2 17 11 31 l17 26 -33 1 -34 2
35 7 c19 4 38 8 41 9 4 0 9 -5 12 -12z m217 -31 c-25 -24 -46 -42 -48 -41 -7
6 23 55 33 55 7 0 18 7 25 15 7 8 17 15 24 15 6 0 -10 -20 -34 -44z m1090 14
c0 -5 -4 -10 -10 -10 -5 0 -10 5 -10 10 0 6 5 10 10 10 6 0 10 -4 10 -10z
m-1434 -27 c-10 -10 -19 5 -10 18 6 11 8 11 12 0 2 -7 1 -15 -2 -18z m688 10
c16 6 30 -19 19 -35 -3 -7 -1 -8 5 -4 7 4 12 18 12 32 0 13 5 24 10 24 6 0 10
-13 10 -29 0 -30 -24 -52 -68 -64 -19 -4 -22 -2 -17 14 4 11 0 30 -9 43 -17
26 -10 42 10 25 8 -6 20 -9 28 -6z m710 -14 c-10 -4 -15 -8 -10 -8 5 -1 3 -8
-4 -16 -11 -13 -8 -15 14 -15 19 0 29 7 36 25 11 28 23 35 13 8 -11 -32 -25
-43 -54 -43 -23 0 -29 4 -29 21 0 24 29 51 44 41 5 -3 1 -9 -10 -13z m-356
-37 c-38 -40 -68 -82 -68 -94 0 -4 11 -7 25 -6 20 2 25 7 23 23 -2 11 0 25 5
30 4 6 14 19 22 30 11 16 16 18 27 7 10 -10 7 -17 -15 -35 -20 -16 -26 -27
-21 -40 6 -17 8 -17 30 4 13 12 24 18 24 12 0 -6 -7 -16 -15 -23 -23 -19 -18
-46 16 -80 17 -17 29 -34 25 -37 -3 -4 -28 17 -55 46 -27 29 -52 48 -55 43 -3
-6 7 -20 24 -32 16 -11 37 -34 47 -51 10 -16 34 -40 53 -53 20 -13 47 -44 60
-70 14 -25 28 -46 32 -46 13 0 -11 51 -43 91 -17 22 -26 39 -20 39 15 0 81
-90 81 -111 0 -11 6 -19 13 -20 10 0 10 -2 0 -6 -7 -2 -13 -12 -13 -21 0 -15
-2 -15 -10 -2 -7 11 -10 7 -10 -17 0 -18 -4 -33 -10 -33 -5 0 -10 11 -10 24 0
13 -6 27 -12 29 -10 4 -10 7 0 14 10 7 7 17 -11 44 -13 19 -29 33 -36 31 -7
-1 -10 1 -7 6 8 14 -23 52 -38 46 -8 -3 -16 4 -20 19 -7 28 -69 87 -91 87 -8
0 -15 6 -15 14 0 8 -7 17 -16 20 -14 5 -13 11 7 43 26 44 100 125 108 118 2
-3 -11 -22 -31 -43z m-1418 18 c7 -13 7 -20 1 -20 -6 0 -15 9 -21 20 -7 13 -7
20 -1 20 6 0 15 -9 21 -20z m2054 1 c11 -12 14 -21 7 -26 -14 -8 -33 3 -26 16
4 5 1 9 -4 9 -6 0 -11 5 -11 10 0 16 15 12 34 -9z m-1474 -1 c0 -5 -4 -10 -10
-10 -5 0 -10 -6 -10 -14 0 -10 -9 -14 -27 -13 -18 1 -27 -3 -25 -10 1 -7 -2
-13 -8 -13 -5 0 -10 5 -10 10 0 17 -14 11 -55 -25 -56 -50 -95 -78 -95 -68 0
10 101 103 112 103 4 0 4 8 1 17 -5 12 -2 15 10 10 9 -3 35 0 59 8 55 17 58
17 58 5z m1050 0 c0 -5 -4 -10 -10 -10 -5 0 -10 5 -10 10 0 6 5 10 10 10 6 0
10 -4 10 -10z m228 -26 c2 -15 1 -16 -7 -5 -8 13 -12 13 -27 0 -16 -13 -16
-12 -3 9 16 25 33 24 37 -4z m-1001 10 c-3 -3 -12 -4 -19 -1 -8 3 -5 6 6 6 11
1 17 -2 13 -5z m1098 -4 c3 -5 -1 -10 -10 -10 -9 0 -13 5 -10 10 3 6 8 10 10
10 2 0 7 -4 10 -10z m-328 -6 c-3 -3 -12 -4 -19 -1 -8 3 -5 6 6 6 11 1 17 -2
13 -5z m-1622 -25 c9 -26 -4 -39 -16 -17 -9 16 -12 15 -47 -5 -23 -14 -63 -24
-107 -29 -38 -3 -83 -9 -100 -13 l-30 -6 35 20 c24 14 54 20 95 21 46 0 70 6
100 25 49 30 62 31 70 4z m2010 11 c-3 -5 -11 -10 -16 -10 -6 0 -7 5 -4 10 3
6 11 10 16 10 6 0 7 -4 4 -10z m-1735 -10 c0 -5 -4 -10 -10 -10 -5 0 -10 5
-10 10 0 6 5 10 10 10 6 0 10 -4 10 -10z m740 3 c0 -14 -19 -38 -25 -32 -8 8
5 39 16 39 5 0 9 -3 9 -7z m200 -2 c0 -5 -7 -11 -15 -15 -15 -5 -20 5 -8 17 9
10 23 9 23 -2z m-3022 -20 c-9 -15 -9 -23 1 -35 14 -17 12 -19 -13 -10 -19 7
-21 50 -3 57 23 10 27 7 15 -12z m4242 -17 c0 -12 10 -30 22 -38 12 -9 19 -18
15 -22 -3 -3 -19 3 -36 15 -16 12 -36 18 -45 15 -12 -5 -15 -2 -10 10 4 10 13
15 21 11 12 -4 14 0 9 20 -5 19 -3 23 9 19 8 -4 15 -17 15 -30z m-1880 11 c20
-24 6 -28 -15 -5 -10 11 -13 20 -8 20 6 0 16 -7 23 -15z m-40 -15 c0 -5 -4
-10 -10 -10 -5 0 -10 5 -10 10 0 6 5 10 10 10 6 0 10 -4 10 -10z m1750 -20 c0
-11 -4 -20 -9 -20 -5 0 -7 9 -4 20 3 11 7 20 9 20 2 0 4 -9 4 -20z m-3941 -20
c-6 -16 -15 -30 -19 -30 -5 0 -4 14 1 30 6 17 15 30 19 30 5 0 4 -13 -1 -30z
m1931 14 c0 -8 -4 -12 -10 -9 -5 3 -10 10 -10 16 0 5 5 9 10 9 6 0 10 -7 10
-16z m1532 1 c0 -5 -5 -11 -11 -13 -6 -2 -11 4 -11 13 0 9 5 15 11 13 6 -2 11
-8 11 -13z m-152 -26 c0 -6 -7 -6 -20 1 -11 6 -20 15 -20 21 0 6 7 6 20 -1 11
-6 20 -15 20 -21z m-1060 17 c0 -11 -19 -15 -25 -6 -3 5 1 10 9 10 9 0 16 -2
16 -4z m-42 -29 c5 -24 -15 -21 -21 4 -3 13 -1 19 6 16 7 -2 13 -11 15 -20z
m667 -17 c-22 -25 -31 -25 -31 -2 0 12 9 19 25 20 24 2 24 2 6 -18z m1147 -4
c4 -6 8 -17 8 -25 0 -11 -4 -9 -15 5 -8 10 -15 14 -15 8 0 -6 7 -17 15 -24 19
-16 19 -40 0 -40 -9 0 -20 12 -26 28 -6 15 -15 35 -20 44 -5 10 -9 20 -9 23 0
9 55 -8 62 -19z m-103 -28 c1 -5 -3 -8 -8 -8 -11 0 -21 37 -13 45 6 5 20 -19
21 -37z m-3969 -74 c0 -54 -4 -83 -10 -79 -11 7 -14 148 -3 158 12 13 13 7 13
-79z m3330 76 c0 -5 -5 -10 -11 -10 -5 0 -7 5 -4 10 3 6 8 10 11 10 2 0 4 -4
4 -10z m850 0 c0 -5 -2 -10 -4 -10 -3 0 -8 5 -11 10 -3 6 -1 10 4 10 6 0 11
-4 11 -10z m-1305 -19 c-3 -6 -11 -11 -17 -11 -6 0 -6 6 2 15 14 17 26 13 15
-4z m595 9 c0 -5 -4 -10 -10 -10 -5 0 -10 5 -10 10 0 6 5 10 10 10 6 0 10 -4
10 -10z m-512 -35 c24 -37 26 -45 15 -45 -8 0 -53 65 -53 75 0 15 18 1 38 -30z
m-140 -5 c19 0 32 -3 28 -7 -9 -9 -96 -11 -96 -2 0 12 25 29 28 19 2 -5 20
-10 40 -10z m1172 -10 c0 -10 8 -23 17 -29 10 -5 15 -13 11 -17 -4 -4 -14 -1
-23 6 -12 10 -15 10 -15 -2 0 -11 -7 -14 -27 -10 -23 4 -24 6 -10 17 10 7 17
19 17 27 0 8 3 18 7 21 12 13 23 7 23 -13z m-2171 -26 c-18 -20 -43 -40 -54
-46 -11 -6 0 10 25 36 24 25 49 46 54 46 5 0 -6 -16 -25 -36z m907 1 c-21 -16
-32 -13 -21 4 3 6 14 11 23 11 15 -1 15 -2 -2 -15z m-1502 -18 c-8 -22 -32
-29 -55 -17 -15 9 -28 5 -65 -21 -26 -18 -43 -36 -40 -44 6 -16 -65 -65 -94
-65 -19 0 -20 -2 -6 -29 25 -47 44 -111 35 -111 -5 0 -21 27 -36 60 -14 33
-30 60 -35 60 -14 0 -110 -51 -144 -76 -21 -17 -44 -24 -74 -24 -24 0 -40 3
-36 7 4 4 22 6 40 5 34 -3 67 20 46 33 -18 11 -12 27 7 17 17 -10 114 28 114
44 0 11 47 36 57 30 4 -2 52 29 106 69 80 59 103 72 121 65 13 -5 27 -3 40 6
22 16 28 13 19 -9z m1846 3 c0 -5 -7 -10 -15 -10 -8 0 -15 5 -15 10 0 6 7 10
15 10 8 0 15 -4 15 -10z m-395 -10 c-3 -5 -13 -10 -21 -10 -8 0 -12 5 -9 10 3
6 13 10 21 10 8 0 12 -4 9 -10z m-168 -32 c-3 -8 -6 -5 -6 6 -1 11 2 17 5 13
3 -3 4 -12 1 -19z m113 2 c-8 -6 -22 -10 -30 -9 -9 0 -5 6 10 14 27 14 44 10
20 -5z m1260 10 c0 -5 -5 -10 -11 -10 -5 0 -7 5 -4 10 3 6 8 10 11 10 2 0 4
-4 4 -10z m-868 -43 c5 -26 0 -47 -12 -47 -9 0 -20 51 -13 62 9 15 21 8 25
-15z m-512 4 c0 -5 -7 -12 -16 -15 -24 -9 -28 -7 -14 9 14 17 30 20 30 6z
m-2083 -17 c1 -5 -2 -16 -7 -24 -9 -13 -11 -13 -19 -1 -5 8 -7 20 -4 28 6 15
25 13 30 -3z m2033 -13 c0 -5 -7 -12 -16 -15 -24 -9 -28 -7 -14 9 14 17 30 20
30 6z m790 -18 c0 -11 -36 -32 -54 -33 -18 0 -18 2 3 24 20 21 51 26 51 9z
m-824 -28 c14 -14 22 -26 19 -26 -3 -1 -10 -2 -15 -3 -15 -2 -29 -27 -23 -42
2 -6 0 -15 -6 -19 -6 -3 -11 -2 -11 3 0 5 -11 7 -25 4 -14 -2 -22 -9 -19 -14
4 -5 -11 -27 -32 -49 -31 -32 -45 -39 -75 -39 -21 0 -44 -7 -53 -15 -20 -20
-23 -19 -31 13 -12 41 -13 62 -3 68 4 3 8 -5 8 -18 0 -35 16 -56 32 -40 6 6
25 12 42 12 28 0 96 42 96 60 0 5 -9 12 -21 15 -11 4 -19 11 -17 17 2 5 6 8
10 6 3 -2 17 7 30 18 13 12 33 25 44 28 16 5 20 12 17 26 -7 27 3 25 33 -5z
m575 15 c18 0 8 -15 -18 -27 -32 -15 -37 -12 -28 17 4 14 12 19 22 16 8 -3 19
-6 24 -6z m-77 -42 c9 -35 8 -38 -15 -38 -15 0 -19 4 -15 16 3 9 6 22 6 30 0
22 17 16 24 -8z m-94 0 c0 -19 -18 -44 -25 -36 -4 3 0 15 7 27 15 24 18 26 18
9z m489 -50 c-5 -18 -9 -34 -9 -35 0 -2 9 -3 20 -3 11 0 20 -4 20 -10 0 -5
-13 -10 -30 -10 -28 0 -30 2 -30 39 0 35 8 47 32 50 4 1 2 -14 -3 -31z m45 6
c7 -25 8 -26 65 -19 42 5 60 3 68 -7 9 -11 -3 -13 -65 -13 -58 0 -76 3 -80 15
-3 8 -9 18 -15 21 -10 7 -1 29 13 29 4 0 11 -12 14 -26z m2085 2 c9 -11 7 -15
-9 -19 -15 -4 -20 0 -20 14 0 22 13 25 29 5z m-4781 -35 c3 -8 -1 -12 -9 -9
-7 2 -15 10 -17 17 -3 8 1 12 9 9 7 -2 15 -10 17 -17z m4305 -1 c24 -12 29
-12 42 6 11 14 14 15 15 4 0 -34 -16 -44 -49 -31 -17 7 -36 20 -43 29 -7 9 -8
14 -3 11 6 -3 22 -11 38 -19z m-3793 -11 c0 -14 -21 -21 -46 -15 -35 9 -29 22
11 22 19 0 35 -3 35 -7z m3940 -13 c0 -2 -8 -10 -17 -17 -16 -13 -17 -12 -4 4
13 16 21 21 21 13z m-1860 -27 c0 -5 -4 -9 -10 -9 -5 0 -10 7 -10 16 0 8 5 12
10 9 6 -3 10 -10 10 -16z m-2604 -81 c-36 -45 -68 -96 -72 -113 -7 -30 -79
-103 -118 -118 -13 -5 -42 1 -88 20 -88 36 -89 51 -1 17 38 -14 77 -22 88 -19
32 8 105 83 105 107 0 29 136 206 148 193 2 -2 -25 -41 -62 -87z m2677 85
c-13 -2 -33 -2 -45 0 -13 2 -3 4 22 4 25 0 35 -2 23 -4z m-1857 -68 c-26 -19
-42 -19 -26 0 7 8 20 15 29 15 13 -1 13 -3 -3 -15z m-559 -37 c-8 -5 -5 -8 8
-8 17 -1 16 -3 -5 -11 -14 -6 -33 -8 -42 -5 -13 3 -18 -2 -18 -15 0 -15 7 -19
36 -19 21 0 50 -10 72 -25 20 -14 30 -25 22 -25 -8 0 -26 9 -40 20 -19 15 -41
20 -97 20 -72 0 -127 15 -117 32 3 5 12 4 20 -3 8 -6 27 -9 44 -7 17 3 30 0
30 -6 0 -12 20 14 20 27 0 4 -8 7 -17 7 -16 1 -16 2 2 16 11 8 25 12 32 10 7
-3 13 -1 13 4 0 13 34 18 42 6 4 -6 2 -14 -5 -18z m-97 18 c0 -2 -8 -10 -17
-17 -16 -13 -17 -12 -4 4 13 16 21 21 21 13z m680 -16 c0 -11 -4 -20 -10 -20
-5 0 -10 9 -10 20 0 11 5 20 10 20 6 0 10 -9 10 -20z m53 -17 c-7 -2 -21 -2
-30 0 -10 3 -4 5 12 5 17 0 24 -2 18 -5z m-364 -59 c43 -56 34 -69 -10 -15
-25 32 -39 41 -63 41 -17 0 -38 -4 -46 -10 -9 -6 -19 -5 -29 3 -12 10 -8 13
20 18 80 15 92 11 128 -37z m407 19 c-7 -7 -26 7 -26 19 0 6 6 6 15 -2 9 -7
13 -15 11 -17z m274 12 c0 -9 -6 -12 -15 -9 -8 4 -15 10 -15 15 0 5 7 9 15 9
8 0 15 -7 15 -15z m-50 -5 c0 -5 -9 -10 -21 -10 -11 0 -17 5 -14 10 3 6 13 10
21 10 8 0 14 -4 14 -10z m-60 -10 c0 -5 -10 -10 -22 -9 -22 0 -22 1 -3 9 11 5
21 9 23 9 1 1 2 -3 2 -9z m232 -12 c-6 -6 -15 -8 -19 -4 -4 4 -1 11 7 16 19
12 27 3 12 -12z m-352 3 c0 -5 -7 -11 -15 -15 -15 -5 -20 5 -8 17 9 10 23 9
23 -2z m53 2 c-7 -2 -19 -2 -25 0 -7 3 -2 5 12 5 14 0 19 -2 13 -5z m-1037
-19 c-9 -8 -16 -20 -16 -25 0 -5 -4 -9 -9 -9 -4 0 -6 11 -3 25 3 17 11 25 24
25 18 0 18 -1 4 -16z m1238 -23 c-6 -6 -24 19 -24 34 1 6 7 1 15 -9 8 -11 12
-22 9 -25z m46 9 c-24 -15 -37 -11 -16 5 11 8 22 12 25 9 3 -3 -1 -9 -9 -14z
m-1025 -10 c3 -5 2 -10 -4 -10 -5 0 -13 5 -16 10 -3 6 -2 10 4 10 5 0 13 -4
16 -10z m4895 -52 c0 -5 -17 -1 -37 8 -21 9 -44 18 -50 21 -7 3 -10 9 -8 14 6
10 95 -31 95 -43z m-4855 -27 c-4 -3 -10 1 -15 9 -12 19 -24 -30 -15 -59 4
-12 2 -21 -4 -21 -6 0 -11 -11 -11 -24 0 -35 -12 -86 -19 -86 -7 0 15 188 25
219 3 10 10 8 24 -9 11 -13 18 -26 15 -29z m4649 23 c17 -43 -2 -90 -27 -65
-8 8 -7 11 5 11 13 0 14 6 8 35 -8 35 2 49 14 19z m-59 -54 c-3 -5 -10 -10
-16 -10 -5 0 -9 5 -9 10 0 6 7 10 16 10 8 0 12 -4 9 -10z m-70 -150 c-3 -5
-11 -10 -16 -10 -6 0 -7 5 -4 10 3 6 11 10 16 10 6 0 7 -4 4 -10z m-12 -60
c-3 -11 -10 -20 -15 -20 -6 0 -7 7 -4 16 3 9 6 20 6 25 0 6 4 8 9 5 5 -3 7
-15 4 -26z m-4552 -177 c13 -16 12 -17 -3 -4 -10 7 -18 15 -18 17 0 8 8 3 21
-13z m-1107 -434 c-3 -5 -20 3 -39 18 -44 35 -34 51 11 17 18 -14 31 -30 28
-35z m7296 -483 c-4 -19 -15 -44 -24 -57 -22 -33 -21 -35 25 -47 31 -8 50 -7
79 3 35 12 39 12 37 -3 -1 -17 -7 -18 -77 -22 -51 -2 -110 10 -110 24 1 6 14
36 30 66 17 30 30 61 30 68 0 7 4 11 9 8 5 -3 5 -21 1 -40z m250 -14 c0 -7
-25 -21 -101 -60 -4 -1 -9 4 -12 11 -3 9 1 14 11 13 9 0 16 5 14 12 -1 8 2 11
8 7 5 -3 22 1 37 9 32 17 43 19 43 8z"/>
<path d="M4210 5288 c0 -7 -3 -24 -7 -38 -6 -22 -5 -24 10 -11 19 15 23 46 7
56 -5 3 -10 0 -10 -7z"/>
<path d="M2928 4443 c6 -2 18 -2 25 0 6 3 1 5 -13 5 -14 0 -19 -2 -12 -5z"/>
<path d="M3035 4430 c-8 -13 5 -13 25 0 13 8 13 10 -2 10 -9 0 -20 -4 -23 -10z"/>
<path d="M2890 4420 c-19 -4 -52 -14 -74 -23 -24 -11 -67 -17 -115 -17 l-76
-1 36 -19 c19 -10 64 -28 100 -40 97 -32 173 -73 231 -124 36 -32 54 -42 56
-32 2 8 -1 60 -6 117 -9 96 -11 104 -38 126 -30 23 -53 26 -114 13z"/>
<path d="M3044 4393 c4 -9 10 -53 13 -98 8 -95 20 -71 22 43 1 67 0 72 -20 72
-16 0 -19 -4 -15 -17z"/>
<path d="M3084 4198 c-12 -19 23 -35 88 -42 43 -4 69 -13 87 -29 l26 -22 -21
25 c-12 14 -19 31 -17 38 3 9 -10 12 -49 12 -29 0 -65 7 -80 14 -19 10 -30 11
-34 4z"/>
<path d="M3310 4198 c0 -16 40 -98 49 -98 6 0 8 6 5 14 -4 10 8 19 43 29 l48
14 -39 8 c-27 5 -40 4 -46 -5 -6 -10 -15 -6 -34 16 -14 16 -26 26 -26 22z"/>
<path d="M3267 4168 c-3 -9 3 -14 14 -14 11 0 18 5 16 10 -5 16 -24 18 -30 4z"/>
<path d="M3286 4087 c3 -10 9 -15 12 -12 3 3 0 11 -7 18 -10 9 -11 8 -5 -6z"/>
<path d="M3301 4024 c0 -11 3 -14 6 -6 3 7 2 16 -1 19 -3 4 -6 -2 -5 -13z"/>
<path d="M3265 4020 c-3 -5 -2 -10 4 -10 5 0 13 5 16 10 3 6 2 10 -4 10 -5 0
-13 -4 -16 -10z"/>
<path d="M3326 3926 c8 -20 49 -45 42 -25 -2 7 -14 19 -26 27 -20 13 -22 13
-16 -2z"/>
<path d="M3170 4659 c0 -5 5 -7 10 -4 6 3 10 8 10 11 0 2 -4 4 -10 4 -5 0 -10
-5 -10 -11z"/>
<path d="M4300 4399 c0 -16 3 -28 8 -26 4 2 15 7 25 10 16 6 16 8 -3 27 -27
27 -30 25 -30 -11z"/>
<path d="M7296 4374 c-5 -14 -4 -15 9 -4 17 14 19 20 6 20 -5 0 -12 -7 -15
-16z"/>
<path d="M6795 4233 c-38 -9 -34 -18 5 -15 22 2 40 8 40 13 0 9 -12 10 -45 2z"/>
<path d="M2495 4210 c3 -5 12 -7 20 -3 21 7 19 13 -6 13 -11 0 -18 -4 -14 -10z"/>
<path d="M2465 4190 c3 -5 8 -10 11 -10 2 0 4 5 4 10 0 6 -5 10 -11 10 -5 0
-7 -4 -4 -10z"/>
<path d="M2447 4104 c-28 -72 -34 -110 -17 -99 6 3 10 18 10 32 0 15 9 46 21
70 11 23 19 48 17 54 -2 6 -16 -20 -31 -57z"/>
<path d="M2371 4119 c-13 -39 -15 -92 -2 -69 8 15 22 100 16 100 -2 0 -8 -14
-14 -31z"/>
<path d="M2397 4103 c-9 -51 -2 -52 23 -4 20 39 20 41 2 41 -15 0 -21 -10 -25
-37z"/>
<path d="M2355 3900 c10 -11 20 -20 22 -20 2 0 -1 9 -7 20 -6 11 -16 20 -22
20 -6 0 -3 -9 7 -20z"/>
<path d="M3100 3890 c-9 -6 -10 -10 -3 -10 6 0 15 5 18 10 8 12 4 12 -15 0z"/>
<path d="M3538 4253 c7 -3 16 -2 19 1 4 3 -2 6 -13 5 -11 0 -14 -3 -6 -6z"/>
<path d="M3525 4190 c-7 -11 9 -11 45 0 24 8 24 8 -7 9 -17 1 -35 -3 -38 -9z"/>
<path d="M6146 4157 c3 -10 9 -15 12 -12 3 3 0 11 -7 18 -10 9 -11 8 -5 -6z"/>
<path d="M3755 4060 c-10 -16 15 -40 41 -40 18 0 24 6 24 21 0 16 -4 19 -20
14 -11 -4 -20 -2 -20 4 0 14 -17 14 -25 1z"/>
<path d="M1276 4022 l-66 -97 53 -47 c28 -26 55 -48 59 -48 4 0 21 20 38 45
17 25 26 45 20 45 -5 0 -10 5 -10 11 0 6 6 9 13 6 9 -3 23 15 41 51 26 53 27
57 10 69 -16 12 -20 9 -38 -24 -10 -21 -21 -33 -23 -26 -2 6 3 25 12 42 8 17
13 31 11 31 -3 0 -13 -14 -21 -30 -9 -17 -20 -28 -25 -25 -5 3 0 21 11 40 20
33 20 34 0 44 -17 10 -26 0 -85 -87z"/>
<path d="M3890 3890 c0 -6 7 -10 15 -10 8 0 15 2 15 4 0 2 -7 6 -15 10 -8 3
-15 1 -15 -4z"/>
<path d="M4060 3821 c-68 -32 -65 -30 -57 -37 3 -4 25 5 49 19 24 13 52 26 63
29 11 2 16 6 10 10 -5 3 -35 -6 -65 -21z"/>
<path d="M4098 3803 c7 -3 12 -25 13 -56 0 -45 2 -49 10 -27 14 35 3 90 -19
89 -10 0 -12 -3 -4 -6z"/>
<path d="M4140 3805 c0 -5 5 -17 10 -25 5 -8 10 -10 10 -5 0 6 -5 17 -10 25
-5 8 -10 11 -10 5z"/>
<path d="M4171 3763 c0 -6 -4 -20 -7 -30 -5 -14 -4 -15 5 -7 7 7 11 20 8 30
-3 11 -5 14 -6 7z"/>
<path d="M4126 3695 c-3 -9 -6 -22 -5 -28 0 -7 5 -1 10 12 5 13 8 26 5 28 -2
2 -6 -3 -10 -12z"/>
<path d="M4178 3662 c-23 -4 -26 -29 -11 -81 17 -59 39 -74 75 -53 16 9 28 20
28 25 0 5 -17 32 -37 61 -25 33 -44 50 -55 48z"/>
<path d="M4014 3622 c-6 -4 -14 -17 -18 -29 -6 -18 -4 -22 8 -17 9 3 16 10 16
15 0 5 8 9 19 9 10 0 24 7 31 15 11 13 8 15 -16 15 -16 0 -34 -4 -40 -8z"/>
<path d="M4121 3625 c1 -19 18 -51 18 -35 0 8 -4 22 -9 30 -5 8 -9 11 -9 5z"/>
<path d="M3910 3590 c0 -21 24 -28 35 -10 4 6 1 9 -7 8 -7 -2 -12 3 -10 10 1
6 -2 12 -8 12 -5 0 -10 -9 -10 -20z"/>
<path d="M4070 3595 c-7 -8 -9 -15 -4 -15 5 0 1 -7 -10 -15 -11 -8 -30 -12
-47 -8 -22 4 -29 2 -29 -10 0 -24 -33 -31 -48 -10 -13 17 -13 16 -10 -6 3 -22
8 -23 85 -27 69 -3 82 -1 89 14 11 27 13 42 5 42 -5 0 -6 11 -3 25 5 28 -9 33
-28 10z"/>
<path d="M3797 3593 c-18 -5 -18 -5 0 -18 17 -13 32 -5 33 18 0 7 -4 8 -33 0z"/>
<path d="M4478 3583 c6 -2 18 -2 25 0 6 3 1 5 -13 5 -14 0 -19 -2 -12 -5z"/>
<path d="M4548 3573 c12 -2 30 -2 40 0 9 3 -1 5 -23 4 -22 0 -30 -2 -17 -4z"/>
<path d="M4142 3515 c0 -16 2 -22 5 -12 2 9 2 23 0 30 -3 6 -5 -1 -5 -18z"/>
<path d="M3585 3830 c3 -5 8 -10 11 -10 2 0 4 5 4 10 0 6 -5 10 -11 10 -5 0
-7 -4 -4 -10z"/>
<path d="M5515 3880 c-16 -11 -25 -20 -19 -20 11 0 64 39 54 40 -3 0 -18 -9
-35 -20z"/>
<path d="M5019 3603 c-13 -16 -12 -17 4 -4 16 13 21 21 13 21 -2 0 -10 -8 -17
-17z"/>
<path d="M3537 3379 c7 -7 15 -10 18 -7 3 3 -2 9 -12 12 -14 6 -15 5 -6 -5z"/>
<path d="M2411 3136 c-9 -11 -10 -20 -2 -35 14 -26 42 -17 37 12 -3 12 -5 25
-5 30 -1 12 -18 8 -30 -7z"/>
<path d="M2373 3108 c-6 -7 -18 -29 -28 -48 -10 -19 -35 -56 -56 -81 -22 -26
-39 -57 -39 -69 0 -12 -11 -41 -25 -64 -23 -39 -55 -199 -55 -271 1 -35 21 10
22 48 1 18 5 34 9 37 7 5 15 61 18 129 1 7 7 11 16 7 12 -4 14 0 9 19 -4 18 5
39 39 87 25 35 46 66 46 71 1 4 1 12 1 18 0 5 4 8 8 5 4 -2 14 9 21 25 7 16
16 27 21 24 11 -7 20 34 11 57 -6 16 -9 17 -18 6z"/>
<path d="M2219 2642 c-3 -20 -2 -29 4 -23 5 5 7 19 5 32 -3 20 -5 19 -9 -9z"/>
<path d="M2164 2470 c-5 -57 -13 -79 -40 -117 l-33 -47 29 -30 c17 -16 32 -27
34 -25 9 10 36 69 36 79 0 5 -7 10 -15 10 -19 0 -19 9 2 32 11 13 16 33 14 63
-1 36 1 45 14 45 28 0 1 59 -27 60 -4 0 -10 -32 -14 -70z"/>
<path d="M1640 1744 l-45 -47 48 32 c26 18 47 38 47 46 0 8 -1 15 -3 15 -2 0
-23 -21 -47 -46z"/>
<path d="M4161 3224 c0 -11 3 -14 6 -6 3 7 2 16 -1 19 -3 4 -6 -2 -5 -13z"/>
<path d="M4080 3210 c0 -5 4 -10 9 -10 6 0 13 5 16 10 3 6 -1 10 -9 10 -9 0
-16 -4 -16 -10z"/>
<path d="M4408 3123 c-19 -5 -24 -18 -9 -27 4 -3 16 3 26 14 18 20 16 22 -17
13z"/>
<path d="M4390 3070 c-8 -5 -11 -12 -7 -16 4 -4 15 0 24 9 18 18 8 23 -17 7z"/>
<path d="M3056 3115 c-3 -9 0 -15 9 -15 8 0 15 7 15 15 0 8 -4 15 -9 15 -5 0
-11 -7 -15 -15z"/>
<path d="M3240 2909 c0 -5 5 -7 10 -4 6 3 10 8 10 11 0 2 -4 4 -10 4 -5 0 -10
-5 -10 -11z"/>
<path d="M3620 3067 c0 -8 6 -14 13 -14 8 0 14 6 14 14 0 7 -6 13 -14 13 -7 0
-13 -6 -13 -13z"/>
<path d="M3610 2945 c0 -8 2 -15 4 -15 2 0 6 7 10 15 3 8 1 15 -4 15 -6 0 -10
-7 -10 -15z"/>
<path d="M3970 3105 c7 -8 17 -12 22 -9 6 4 5 10 -3 15 -22 14 -33 10 -19 -6z"/>
<path d="M3942 3075 c-11 -12 -10 -15 3 -15 8 0 15 7 15 15 0 18 -2 18 -18 0z"/>
<path d="M3460 2918 c0 -7 5 -20 10 -28 7 -12 12 -12 21 -3 9 9 9 16 -1 28
-15 18 -30 20 -30 3z"/>
<path d="M3500 2744 c0 -8 5 -12 10 -9 6 4 8 11 5 16 -9 14 -15 11 -15 -7z"/>
<path d="M3905 2280 c3 -5 10 -10 16 -10 5 0 9 5 9 10 0 6 -7 10 -16 10 -8 0
-12 -4 -9 -10z"/>
<path d="M3070 2400 c0 -11 2 -20 4 -20 2 0 6 9 9 20 3 11 1 20 -4 20 -5 0 -9
-9 -9 -20z"/>
<path d="M1330 2005 c-11 -13 -10 -14 4 -9 9 3 16 10 16 15 0 13 -6 11 -20 -6z"/>
<path d="M556 2703 c-12 -12 -6 -43 9 -43 8 0 15 9 15 19 0 21 -13 34 -24 24z"/>
<path d="M717 2694 c-4 -4 -7 -14 -7 -23 0 -11 3 -12 11 -4 6 6 10 16 7 23 -2
6 -7 8 -11 4z"/>
<path d="M566 2643 c-3 -4 -1 -12 5 -19 6 -8 8 -21 5 -30 -4 -10 -1 -14 6 -12
19 6 22 54 5 61 -8 3 -18 3 -21 0z"/>
<path d="M508 2633 c7 -3 16 -2 19 1 4 3 -2 6 -13 5 -11 0 -14 -3 -6 -6z"/>
<path d="M531 2604 c0 -11 3 -14 6 -6 3 7 2 16 -1 19 -3 4 -6 -2 -5 -13z"/>
<path d="M630 2560 c0 -13 20 -13 40 0 12 8 9 10 -12 10 -16 0 -28 -4 -28 -10z"/>
<path d="M7963 522 c-35 -30 -73 -88 -73 -112 0 -8 -18 -42 -40 -75 l-41 -60
7 -90 c6 -102 12 -128 24 -120 5 3 5 -9 -1 -27 -5 -18 -9 -34 -9 -35 0 -2 38
-3 85 -3 l85 0 0 275 c0 151 -1 275 -2 275 -2 0 -17 -13 -35 -28z m-33 -227
c10 -12 10 -15 -3 -15 -9 0 -21 -9 -27 -21 -17 -31 -24 -15 -9 20 16 35 21 37
39 16z"/>
</g>
</svg>
