<?xml version="1.0" standalone="no"?>
<!DOCTYPE svg PUBLIC "-//W3C//DTD SVG 20010904//EN"
 "http://www.w3.org/TR/2001/REC-SVG-20010904/DTD/svg10.dtd">
<svg version="1.0" xmlns="http://www.w3.org/2000/svg"
 width="800.000000pt" height="800.000000pt" viewBox="0 0 800.000000 800.000000"
 preserveAspectRatio="xMidYMid meet">
<metadata>
Created by potrace 1.16, written by Peter Selinger 2001-2019
</metadata>
<g transform="translate(0.000000,800.000000) scale(0.100000,-0.100000)"
fill="#000000" stroke="none">
<path d="M1 4718 c0 -1806 3 -3277 6 -3270 5 12 45 17 56 6 3 -4 2 -14 -3 -24
-7 -13 -4 -20 15 -28 14 -7 25 -18 25 -27 0 -8 6 -15 14 -15 8 0 18 -5 21 -10
8 -13 -4 -50 -16 -50 -6 0 -8 9 -4 19 4 14 0 21 -15 26 -11 3 -20 12 -20 19 0
19 -34 46 -58 46 l-22 0 0 -705 0 -705 759 0 c598 0 761 3 765 13 5 9 7 9 12
0 4 -10 666 -13 3235 -13 l3229 0 0 275 0 275 -33 0 c-19 0 -67 -11 -108 -26
-44 -15 -86 -23 -104 -20 -54 8 -133 31 -142 40 -10 11 85 -2 109 -15 26 -14
60 -11 124 12 32 11 79 24 104 27 l45 7 3 580 2 579 -42 43 c-26 27 -48 41
-57 38 -9 -3 -12 -3 -8 1 4 4 -16 32 -45 61 -84 85 -41 61 60 -33 l92 -86 0
1169 c0 896 -3 1172 -12 1181 -9 9 -9 12 0 12 9 0 12 438 12 1940 l0 1940
-1453 0 -1453 0 -22 -137 c-12 -76 -25 -159 -28 -185 -6 -44 -24 -68 -24 -33
0 15 46 301 54 338 4 16 -60 17 -1232 16 -681 -1 -1229 -3 -1219 -6 11 -3 16
-11 13 -19 -3 -8 1 -14 9 -14 17 0 20 -27 6 -49 -14 -22 -40 4 -37 37 6 51 -9
52 -565 52 -389 0 -509 -3 -509 -12 0 -9 -3 -9 -12 0 -9 9 -194 12 -770 12
l-758 0 1 -3282z m2687 3153 c3 -8 -1 -12 -9 -9 -7 2 -15 10 -17 17 -3 8 1 12
9 9 7 -2 15 -10 17 -17z m36 -37 c9 -22 -3 -32 -14 -14 -12 19 -12 30 -1 30 5
0 12 -7 15 -16z m44 -66 c27 -31 56 -97 48 -106 -9 -8 -26 10 -26 27 0 10 -13
35 -30 56 -46 58 -39 79 8 23z m112 -124 c0 -3 -6 -12 -14 -19 -10 -10 -16
-11 -25 -2 -18 18 -13 27 14 27 14 0 25 -3 25 -6z m36 -51 c-4 -4 -11 -1 -16
7 -16 25 -11 35 7 17 9 -9 13 -20 9 -24z m-46 -15 c0 -16 -3 -19 -11 -11 -6 6
-8 16 -5 22 11 17 16 13 16 -11z m70 -8 c0 -5 -4 -10 -10 -10 -5 0 -10 5 -10
10 0 6 5 10 10 10 6 0 10 -4 10 -10z m-29 -37 c12 -15 12 -16 -3 -10 -10 3
-18 2 -18 -3 0 -6 -4 -10 -10 -10 -5 0 -10 9 -10 20 0 24 23 26 41 3z m534 -3
c-3 -5 -15 -10 -26 -10 -10 0 -19 5 -19 10 0 6 12 10 26 10 14 0 23 -4 19 -10z
m-535 -66 c0 -8 -4 -12 -10 -9 -5 3 -10 13 -10 21 0 8 5 12 10 9 6 -3 10 -13
10 -21z m637 4 c25 -27 75 -119 69 -126 -3 -2 -23 4 -44 14 -39 17 -46 37 -18
56 11 8 -33 58 -51 58 -7 0 -13 5 -13 10 0 18 36 10 57 -12z m-614 -53 c4 -8
2 -17 -3 -20 -6 -4 -10 -4 -10 -1 0 2 -3 11 -6 20 -3 9 -2 16 4 16 5 0 12 -7
15 -15z m586 -125 c22 -37 26 -50 13 -50 -18 0 -52 87 -51 130 l1 45 8 -45 c4
-25 17 -61 29 -80z m-555 58 c-4 -6 -10 -5 -15 3 -14 22 -10 33 6 19 8 -7 12
-17 9 -22z m30 -34 c9 -22 -3 -32 -14 -14 -12 19 -12 30 -1 30 5 0 12 -7 15
-16z m111 -82 c6 -54 4 -172 -3 -172 -2 0 -12 5 -23 10 -14 8 -19 7 -19 -2 0
-10 -2 -10 -9 1 -13 20 -242 65 -253 49 -4 -7 -8 -8 -8 -3 0 22 18 37 38 31
11 -4 33 -9 48 -11 16 -3 58 -11 94 -19 36 -9 76 -15 90 -16 25 0 25 1 25 78
0 42 -4 93 -8 112 -7 32 -7 33 7 17 8 -10 17 -44 21 -75z m-75 38 c8 -5 12
-12 9 -15 -8 -8 -39 5 -39 16 0 11 11 11 30 -1z m1740 -25 c0 -7 7 -21 16 -30
9 -8 13 -22 10 -30 -3 -8 -1 -17 3 -19 12 -8 13 -106 1 -106 -6 0 -10 13 -10
30 0 16 -6 47 -14 67 -20 54 -30 117 -17 108 6 -3 11 -12 11 -20z m-2476 -45
c7 -24 6 -24 -8 -6 -9 11 -16 29 -16 40 1 17 2 18 9 6 5 -8 12 -26 15 -40z
m781 39 c11 -17 -1 -21 -15 -4 -8 9 -8 15 -2 15 6 0 14 -5 17 -11z m308 -5
c15 -1 41 -2 57 -3 17 0 30 -6 30 -12 0 -9 -20 -10 -69 -5 l-70 6 6 -37 c3
-21 10 -46 15 -56 10 -20 0 -107 -12 -107 -4 0 -8 26 -8 58 0 31 -3 77 -8 102
-8 41 -12 45 -41 48 -18 2 -33 8 -33 14 0 6 18 7 53 2 28 -4 64 -9 80 -10z
m605 -19 c11 -13 34 -66 52 -117 78 -220 90 -247 108 -241 13 4 14 3 6 -6 -19
-21 -43 -1 -62 52 -10 29 -38 105 -62 170 -23 65 -49 125 -57 133 -20 20 -67
17 -114 -7 -22 -11 -48 -18 -57 -16 -30 6 91 53 145 56 12 1 30 -10 41 -24z
m-323 5 c4 -6 -8 -10 -29 -10 -19 0 -46 -4 -60 -10 -14 -5 -28 -5 -31 0 -7 11
41 28 82 29 17 1 35 -3 38 -9z m-1331 -46 c4 -10 1 -14 -6 -12 -15 5 -23 28
-10 28 5 0 13 -7 16 -16z m1396 12 c0 -3 -4 -8 -10 -11 -5 -3 -10 -1 -10 4 0
6 5 11 10 11 6 0 10 -2 10 -4z m-141 -42 c8 -29 6 -42 -11 -72 -29 -54 -38
-62 -62 -61 -11 0 -15 3 -8 6 6 2 10 9 7 13 -3 5 -12 7 -19 4 -9 -3 -16 6 -20
28 -4 20 -2 34 4 36 7 3 7 8 -1 18 -17 21 4 18 45 -7 53 -31 66 -13 40 55 -3
9 -1 16 4 16 6 0 16 -16 21 -36z m-2499 -5 c0 -16 -4 -19 -16 -15 -10 4 -25
-1 -35 -10 -20 -18 -23 -16 -13 10 3 9 10 13 15 10 5 -3 9 -1 9 5 0 5 8 12 18
14 9 3 18 5 20 6 1 0 2 -8 2 -20z m1970 -5 c0 -8 -4 -12 -10 -9 -5 3 -10 13
-10 21 0 8 5 12 10 9 6 -3 10 -13 10 -21z m-696 0 c9 -22 -3 -32 -14 -14 -12
19 -12 30 -1 30 5 0 12 -7 15 -16z m1350 1 c-4 -8 -10 -15 -15 -15 -5 0 -9 7
-9 15 0 8 7 15 15 15 9 0 12 -6 9 -15z m-2569 -25 c3 -5 -1 -10 -9 -10 -8 0
-18 5 -21 10 -3 6 1 10 9 10 8 0 18 -4 21 -10z m2585 -32 c0 -6 -7 -5 -15 2
-8 7 -15 17 -15 22 0 6 7 5 15 -2 8 -7 15 -17 15 -22z m-2535 11 c11 -17 0
-20 -21 -4 -17 13 -17 14 -2 15 9 0 20 -5 23 -11z m5704 5 l31 -6 0 -78 c0
-97 -12 -112 -65 -81 l-35 20 -6 -25 c-4 -13 -4 -38 0 -54 5 -29 -6 -41 -19
-20 -9 14 3 101 16 120 8 13 11 13 22 -1 16 -21 53 -40 61 -32 3 3 6 32 6 64
0 65 -18 83 -53 52 -19 -17 -19 -17 -15 2 2 11 -3 25 -12 32 -13 11 -11 12 11
13 15 0 41 -3 58 -6z m-5888 -28 c-7 -9 44 -35 203 -104 118 -51 218 -92 224
-92 16 0 23 46 12 76 -12 31 -9 37 14 28 13 -5 14 -9 5 -20 -14 -16 2 -19 18
-3 8 8 17 8 33 -1 20 -11 22 -17 16 -67 l-6 -54 52 -24 c29 -13 110 -49 181
-80 140 -61 136 -61 207 -3 38 31 60 38 39 11 -26 -31 -92 -73 -116 -73 -18 0
-896 371 -911 385 -7 6 23 43 30 38 5 -2 4 -10 -1 -17z m288 -23 c15 -11 15
-12 -1 -13 -9 0 -24 8 -34 18 -10 9 -19 16 -21 15 -8 -7 -23 -2 -23 6 0 5 8 7
19 4 10 -3 23 1 27 9 7 10 9 8 12 -7 3 -11 12 -25 21 -32z m1057 31 c-3 -9 -6
-18 -6 -20 0 -3 -4 -3 -10 1 -11 7 -2 35 12 35 6 0 7 -7 4 -16z m1424 -24 c0
-5 -6 -10 -14 -10 -8 0 -18 5 -21 10 -3 6 3 10 14 10 12 0 21 -4 21 -10z
m-690 -22 c0 -13 -23 -5 -28 10 -2 7 2 10 12 6 9 -3 16 -11 16 -16z m747 -4
c-7 -7 -37 7 -37 17 0 6 9 5 21 -1 11 -7 19 -14 16 -16z m-1501 -19 c-3 -8
-10 -15 -16 -15 -7 0 -8 5 -3 13 4 6 8 15 9 20 4 19 6 21 11 9 3 -7 2 -19 -1
-27z m802 14 c5 -11 11 -20 15 -20 4 1 6 -2 5 -6 -1 -5 -8 -7 -15 -5 -7 2 -13
-2 -13 -8 0 -18 -17 -11 -23 10 -3 11 -1 20 4 20 4 0 6 7 3 15 -4 8 -1 15 5
15 7 0 15 -9 19 -21z m-1778 1 c8 -5 12 -12 9 -15 -8 -8 -39 5 -39 16 0 11 11
11 30 -1z m60 -32 c0 -6 -7 -7 -16 -4 -9 3 -18 6 -20 6 -3 0 -3 4 1 10 7 11
35 2 35 -12z m2465 12 c3 -5 -1 -10 -9 -10 -8 0 -18 5 -21 10 -3 6 1 10 9 10
8 0 18 -4 21 -10z m50 -11 c11 -17 0 -20 -21 -4 -17 13 -17 14 -2 15 9 0 20
-5 23 -11z m3693 -1 c-2 -6 -10 -14 -16 -16 -7 -2 -10 2 -6 12 7 18 28 22 22
4z m-4418 -8 c8 -5 12 -12 9 -15 -8 -8 -39 5 -39 16 0 11 11 11 30 -1z m380
-9 c0 -12 -28 -22 -34 -12 -3 5 -3 11 1 15 9 9 33 7 33 -3z m2310 3 c0 -3 -9
-18 -20 -34 -11 -15 -24 -39 -30 -54 -5 -14 -14 -26 -19 -26 -6 0 -33 -44 -60
-97 -28 -54 -65 -113 -82 -132 -17 -19 -32 -41 -33 -48 -3 -16 -14 -15 -39 2
-11 8 -14 15 -8 19 5 4 13 2 16 -4 13 -20 82 74 140 190 50 101 107 189 123
189 6 1 12 -2 12 -5z m-2740 -25 c0 -11 -4 -17 -10 -14 -5 3 -10 13 -10 21 0
8 5 14 10 14 6 0 10 -9 10 -21z m680 11 c0 -5 -11 -10 -25 -10 -14 0 -25 5
-25 10 0 6 11 10 25 10 14 0 25 -4 25 -10z m-580 -20 c6 -11 7 -20 2 -20 -10
0 -32 21 -32 32 0 16 19 8 30 -12z m280 10 c0 -5 -11 -10 -25 -10 -14 0 -25 5
-25 10 0 6 11 10 25 10 14 0 25 -4 25 -10z m350 -10 c-11 -11 -22 -20 -25 -20
-3 0 -5 9 -5 20 0 15 7 20 25 20 l25 0 -20 -20z m70 6 c0 -8 -4 -18 -10 -21
-5 -3 -10 3 -10 14 0 12 5 21 10 21 6 0 10 -6 10 -14z m1600 5 c0 -10 -30 -24
-37 -17 -3 3 -2 9 2 15 8 13 35 15 35 2z m-2447 -21 c-3 -11 -9 -17 -14 -15
-10 7 -1 35 11 35 5 0 6 -9 3 -20z m500 -1 c3 -13 1 -19 -6 -16 -15 5 -22 37
-9 37 5 0 12 -9 15 -21z m3981 6 c-6 -16 -24 -21 -24 -7 0 11 11 22 21 22 5 0
6 -7 3 -15z m-6636 -35 c7 -11 8 -20 2 -20 -5 0 -14 9 -20 20 -6 11 -7 20 -3
20 5 0 14 -9 21 -20z m2202 -11 c0 -11 -4 -17 -10 -14 -5 3 -10 13 -10 21 0 8
5 14 10 14 6 0 10 -9 10 -21z m811 -29 c10 0 19 -4 19 -10 0 -5 -7 -10 -16
-10 -10 0 -14 -6 -10 -15 9 -25 -10 -17 -22 10 -6 14 -17 25 -24 25 -8 0 -6 5
5 11 9 5 18 18 18 27 1 9 4 5 6 -10 3 -20 10 -28 24 -28z m1559 25 c0 -14 -4
-25 -10 -25 -11 0 -14 33 -3 43 11 11 13 8 13 -18z m-2430 -12 c0 -20 -3 -24
-11 -16 -7 7 -9 19 -6 27 10 24 17 19 17 -11z m560 5 c0 -13 -23 -5 -28 10 -2
7 2 10 12 6 9 -3 16 -11 16 -16z m230 2 c0 -22 -1 -23 -24 -14 -12 5 -13 9 -3
20 17 19 27 17 27 -6z m3668 8 c-2 -6 -10 -14 -16 -16 -7 -2 -10 2 -6 12 7 18
28 22 22 4z m-5430 -23 c10 -10 -3 -13 -35 -8 -18 3 -33 10 -33 15 0 10 58 4
68 -7z m2777 5 c3 -5 -1 -10 -9 -10 -9 0 -16 5 -16 10 0 6 4 10 9 10 6 0 13
-4 16 -10z m-1205 -26 c0 -8 -4 -12 -10 -9 -5 3 -10 13 -10 21 0 8 5 12 10 9
6 -3 10 -13 10 -21z m-2700 1 c7 -8 8 -15 2 -15 -5 0 -15 7 -22 15 -7 8 -8 15
-2 15 5 0 15 -7 22 -15z m2138 -28 c-7 -6 -25 -13 -39 -13 -21 -1 -26 2 -22
17 6 21 18 25 28 9 10 -16 22 -11 30 13 6 19 8 19 12 5 2 -10 -1 -24 -9 -31z
m912 33 c0 -5 -9 -10 -20 -10 -11 0 -20 5 -20 10 0 6 9 10 20 10 11 0 20 -4
20 -10z m57 -5 c3 -9 3 -19 -1 -22 -7 -7 -36 16 -36 28 0 15 30 10 37 -6z
m417 6 c8 -13 -3 -19 -24 -14 -11 3 -17 9 -14 14 7 11 31 12 38 0z m2990 3 c9
-3 14 -10 11 -15 -7 -10 -35 0 -35 12 0 11 3 11 24 3z m-2938 -31 c-10 -10
-46 -11 -40 -1 3 4 15 8 26 8 12 0 18 -3 14 -7z m-3538 -15 c19 -19 14 -30 -8
-18 -11 6 -20 15 -20 20 0 14 14 12 28 -2z m2690 -24 c-10 -10 -28 6 -28 24 0
15 1 15 17 -1 9 -9 14 -19 11 -23z m897 26 c3 -5 -1 -10 -9 -10 -8 0 -18 5
-21 10 -3 6 1 10 9 10 8 0 18 -4 21 -10z m-2520 -29 c-3 -6 -14 -11 -23 -11
-15 1 -15 2 2 15 21 16 32 13 21 -4z m1170 -3 c-4 -13 -17 -39 -30 -59 -14
-21 -20 -40 -15 -45 13 -13 112 -325 106 -331 -6 -6 -20 26 -45 107 -15 46
-21 55 -39 53 -26 -3 -28 5 -6 22 15 11 15 16 -3 71 -16 48 -24 59 -42 58 -29
-1 -19 31 19 63 16 13 31 37 35 53 4 17 11 30 16 30 6 0 7 -10 4 -22z m505 2
c12 -8 11 -10 -7 -10 -13 0 -23 5 -23 10 0 13 11 13 30 0z m200 -16 c0 -8 -4
-14 -10 -14 -5 0 -10 9 -10 21 0 11 5 17 10 14 6 -3 10 -13 10 -21z m313 14
c2 -7 2 -29 -1 -48 -5 -33 -6 -34 -13 -10 -10 36 -10 70 0 70 5 0 11 -6 14
-12z m347 -15 c0 -20 -3 -24 -11 -16 -7 7 -9 19 -6 27 10 24 17 19 17 -11z
m-1550 -3 c0 -11 -4 -20 -10 -20 -5 0 -10 9 -10 20 0 11 5 20 10 20 6 0 10 -9
10 -20z m750 0 c12 -8 11 -10 -7 -10 -12 0 -25 5 -28 10 -8 13 15 13 35 0z
m-2805 -29 c5 -24 16 -32 74 -55 75 -29 221 -118 204 -123 -6 -2 -38 14 -71
35 -34 22 -92 52 -129 67 -37 16 -73 33 -79 39 -15 15 -27 66 -15 66 5 0 12
-13 16 -29z m1025 20 c0 -5 -7 -11 -15 -15 -15 -5 -20 5 -8 17 9 10 23 9 23
-2z m3560 5 c0 -2 -12 -25 -27 -51 -22 -40 -24 -51 -14 -67 7 -11 10 -22 7
-25 -8 -9 -36 17 -36 34 0 21 49 113 60 113 6 0 10 -2 10 -4z m-1720 -16 c0
-5 -6 -10 -14 -10 -8 0 -18 5 -21 10 -3 6 3 10 14 10 12 0 21 -4 21 -10z
m1253 -10 c-3 -11 -9 -20 -13 -20 -5 0 -6 9 -3 20 3 11 9 20 13 20 5 0 6 -9 3
-20z m-1198 -1 c-7 -11 -35 -12 -35 -1 0 4 9 8 20 9 11 1 18 -2 15 -8z m775
-8 c0 -5 -8 -12 -17 -14 -10 -3 12 -5 49 -6 37 0 70 -6 73 -12 5 -6 47 -10
114 -9 58 1 115 1 126 0 l20 -1 -20 -9 c-11 -5 -69 -9 -129 -9 -84 -1 -111 -4
-120 -16 -6 -8 -35 -21 -63 -27 -39 -9 -53 -17 -53 -30 0 -10 -4 -18 -10 -18
-5 0 -10 11 -10 25 0 24 -2 25 -75 25 -73 0 -75 1 -75 25 0 22 5 25 33 25 38
0 62 13 52 29 -5 8 2 10 22 6 25 -5 26 -4 6 4 -35 16 -28 21 27 21 28 0 50 -4
50 -9z m-2720 -16 c-7 -8 -17 -15 -22 -15 -6 0 -5 7 2 15 7 8 17 15 22 15 6 0
5 -7 -2 -15z m1104 -30 c3 -11 6 -30 6 -42 0 -19 6 -23 31 -23 16 0 28 -4 24
-9 -3 -6 -17 -6 -35 -1 -34 10 -36 6 -15 -33 13 -26 13 -30 -5 -50 l-20 -21 0
61 c0 39 -5 63 -12 67 -10 5 -10 7 0 12 15 7 16 24 1 24 -14 0 -34 -21 -35
-37 -2 -28 -4 -33 -13 -33 -16 0 -7 55 12 68 9 7 15 18 11 23 -3 6 -3 17 0 25
7 20 42 -1 50 -31z m56 5 c0 -5 -6 -10 -14 -10 -8 0 -18 5 -21 10 -3 6 3 10
14 10 12 0 21 -4 21 -10z m1980 0 c0 -5 -10 -10 -22 -10 -19 0 -20 2 -8 10 19
13 30 13 30 0z m-3184 -15 c-21 -16 -32 -13 -21 4 3 6 14 11 23 11 15 -1 15
-2 -2 -15z m2334 -11 c0 -8 -4 -14 -10 -14 -5 0 -10 9 -10 21 0 11 5 17 10 14
6 -3 10 -13 10 -21z m-1673 0 c9 -23 -13 -40 -32 -24 -8 7 -15 17 -15 23 0 5
10 2 23 -9 12 -10 16 -12 10 -4 -7 8 -13 18 -13 22 0 14 20 8 27 -8z m3740 -6
c-3 -13 -13 -65 -22 -116 -15 -91 -15 -94 5 -135 30 -59 38 -69 94 -106 36
-25 50 -30 56 -21 6 10 16 8 44 -9 41 -25 40 -25 25 -49 -11 -17 -19 -14 -105
45 -64 44 -100 76 -115 103 -13 22 -28 40 -35 40 -13 0 -181 -69 -240 -99 -22
-10 -82 -36 -134 -56 -52 -21 -123 -50 -157 -66 -99 -45 -134 -59 -151 -59
-26 0 6 26 53 43 22 8 78 31 125 50 47 19 116 47 154 62 38 15 85 35 105 45
20 9 82 37 138 60 93 39 102 45 107 74 32 179 40 216 48 216 6 0 8 -10 5 -22z
m-3410 -13 c-4 -8 -11 -15 -17 -15 -7 0 -7 6 0 21 13 23 26 19 17 -6z m203 15
c0 -5 -8 -10 -17 -10 -15 0 -16 2 -3 10 19 12 20 12 20 0z m-1240 -9 c0 -5 -7
-11 -15 -15 -15 -5 -20 5 -8 17 9 10 23 9 23 -2z m4804 -16 c3 -10 -1 -15 -14
-15 -20 0 -33 13 -23 24 11 11 31 6 37 -9z m-2401 -46 c24 -65 14 -76 -13 -15
-22 51 -24 66 -12 66 4 0 15 -23 25 -51z m-2448 12 c-3 -12 -11 -21 -16 -21
-6 0 -8 3 -6 8 2 4 7 16 11 26 9 25 20 13 11 -13z m791 -8 c-4 -4 -11 -1 -16
7 -16 25 -11 35 7 17 9 -9 13 -20 9 -24z m223 -3 c-38 -32 -61 -40 -36 -12 10
10 17 24 17 31 0 7 4 10 8 7 4 -2 14 -1 22 4 30 18 22 -2 -11 -30z m4016 20
c-3 -5 -19 -10 -36 -10 -16 0 -29 5 -29 10 0 6 16 10 36 10 21 0 33 -4 29 -10z
m-4262 -15 c4 -8 2 -17 -3 -20 -6 -4 -10 -4 -10 -1 0 2 -3 11 -6 20 -3 9 -2
16 4 16 5 0 12 -7 15 -15z m4417 -10 c0 -17 -5 -25 -18 -25 -10 0 -25 -9 -35
-20 -19 -22 -33 -25 -42 -9 -4 6 3 13 16 17 l24 6 -25 7 c-23 6 -23 7 8 8 19
1 39 9 49 21 22 25 23 25 23 -5z m-3854 -22 c-4 -4 -11 -1 -16 7 -16 25 -11
35 7 17 9 -9 13 -20 9 -24z m2958 29 c21 -12 -23 -20 -88 -16 -70 5 -72 4
-110 -31 -27 -24 -34 -35 -23 -35 10 0 17 -5 17 -11 0 -6 -8 -8 -18 -5 -14 5
-24 -4 -40 -31 -41 -71 -57 -84 -94 -77 -35 7 -92 33 -86 39 2 2 27 -3 57 -11
63 -19 70 -15 116 70 17 31 35 56 41 56 7 0 19 11 28 24 8 14 26 27 38 29 30
6 151 6 162 -1z m66 -2 c0 -5 -11 -10 -25 -10 -14 0 -25 5 -25 10 0 6 11 10
25 10 14 0 25 -4 25 -10z m-3160 -32 c0 -5 -4 -8 -10 -8 -5 0 -10 10 -10 23 0
18 2 19 10 7 5 -8 10 -18 10 -22z m-380 6 c0 -8 -4 -12 -10 -9 -5 3 -10 10
-10 16 0 5 5 9 10 9 6 0 10 -7 10 -16z m3430 -33 c0 -17 -20 -23 -35 -11 -11
9 -12 17 -4 31 9 17 12 18 24 5 8 -8 15 -19 15 -25z m-3445 19 c5 -8 11 -8 20
0 9 8 19 0 39 -31 27 -41 29 -70 2 -33 -12 15 -17 17 -27 7 -19 -19 -29 -16
-29 8 0 11 5 17 10 14 6 -3 10 -1 10 4 0 6 -6 11 -14 11 -7 0 -19 7 -26 15 -8
9 -9 15 -2 15 6 0 14 -5 17 -10z m575 0 c0 -5 -10 -10 -22 -10 -19 0 -20 2 -8
10 19 13 30 13 30 0z m1460 -10 c0 -11 -4 -20 -10 -20 -5 0 -10 9 -10 20 0 11
5 20 10 20 6 0 10 -9 10 -20z m-1884 -12 c-10 -6 -20 -7 -24 -3 -9 8 20 25 31
18 5 -3 2 -10 -7 -15z m3219 10 c-11 -6 -23 -16 -27 -22 -5 -6 -8 -1 -8 12 0
17 6 22 28 22 25 -1 26 -1 7 -12z m-2955 -34 c0 -8 -4 -12 -10 -9 -5 3 -10 13
-10 21 0 8 5 12 10 9 6 -3 10 -13 10 -21z m1540 16 c12 -8 9 -10 -12 -10 -16
0 -28 5 -28 10 0 13 20 13 40 0z m-1855 -10 c-3 -5 -10 -10 -16 -10 -5 0 -9 5
-9 10 0 6 7 10 16 10 8 0 12 -4 9 -10z m380 0 c3 -5 2 -10 -4 -10 -5 0 -13 5
-16 10 -3 6 -2 10 4 10 5 0 13 -4 16 -10z m216 -7 c13 -16 12 -17 -3 -4 -10 7
-18 15 -18 17 0 8 8 3 21 -13z m1324 7 c3 -5 -3 -10 -14 -10 -12 0 -21 5 -21
10 0 6 6 10 14 10 8 0 18 -4 21 -10z m-1490 -10 c-3 -5 -13 -10 -21 -10 -8 0
-12 5 -9 10 3 6 13 10 21 10 8 0 12 -4 9 -10z m3809 -10 c4 -5 0 -13 -11 -18
-10 -6 -35 -26 -56 -46 -37 -34 -57 -45 -57 -28 0 4 15 17 34 30 18 13 33 28
33 35 -1 41 3 48 26 42 12 -4 26 -11 31 -15z m-4137 -10 c32 -19 36 -36 24
-88 -1 -1 -19 15 -42 38 -25 25 -39 46 -35 55 7 20 15 19 53 -5z m249 -5 c1
-8 -2 -15 -7 -15 -5 0 -9 -7 -9 -16 0 -8 -4 -12 -10 -9 -5 3 -10 15 -10 26 0
11 5 17 10 14 6 -3 10 2 10 11 0 20 13 11 16 -11z m2881 1 c-4 -9 -13 -13 -22
-10 -20 8 -19 22 3 26 22 5 26 2 19 -16z m103 15 c0 -5 -7 -12 -16 -15 -24 -9
-28 -7 -14 9 14 17 30 20 30 6z m-1770 -46 c0 -25 -4 -45 -10 -45 -11 0 -14
49 -4 74 10 26 14 18 14 -29z m1720 26 c0 -5 -9 -11 -20 -14 -22 -6 -26 3 -8
21 11 11 28 7 28 -7z m-3290 -21 c0 -5 -4 -10 -10 -10 -5 0 -10 5 -10 10 0 6
5 10 10 10 6 0 10 -4 10 -10z m101 -63 c10 -23 19 -53 18 -67 l0 -25 -14 25
c-8 14 -14 21 -15 15 0 -5 9 -23 20 -40 11 -16 20 -38 20 -48 0 -25 70 -92 92
-89 13 2 22 -8 34 -36 12 -32 20 -39 37 -37 61 10 62 10 65 -12 4 -27 8 -27
42 -8 29 17 40 18 40 6 0 -5 -15 -14 -32 -22 -18 -7 -35 -14 -36 -15 -2 -1 21
-32 51 -68 31 -35 63 -76 73 -91 16 -24 16 -27 0 -44 -17 -18 -99 -37 -143
-33 -22 3 -23 -1 -23 -59 0 -66 21 -125 48 -132 12 -3 11 -5 -5 -6 -35 -2 -68
61 -65 125 2 42 -2 55 -15 63 -17 9 -17 11 -1 27 13 13 20 14 30 6 17 -14 128
-4 152 14 17 12 14 19 -46 96 -50 65 -75 88 -115 107 -42 20 -56 33 -68 63 -9
24 -21 38 -33 38 -10 0 -25 8 -34 18 -10 9 -29 28 -43 42 -14 13 -25 30 -25
37 0 7 -10 31 -21 53 -18 35 -20 45 -9 64 16 31 1 59 -39 76 -17 7 -28 16 -25
21 11 18 66 -23 85 -64z m290 53 c5 0 9 -4 9 -10 0 -14 -43 -6 -48 10 -3 9 1
11 12 7 10 -4 22 -7 27 -7z m-31 -46 c0 -8 -4 -12 -10 -9 -5 3 -10 13 -10 21
0 8 5 12 10 9 6 -3 10 -13 10 -21z m80 11 c7 -8 8 -15 2 -15 -5 0 -15 7 -22
15 -7 8 -8 15 -2 15 5 0 15 -7 22 -15z m-2220 -10 c20 -24 6 -28 -15 -5 -10
11 -13 20 -8 20 6 0 16 -7 23 -15z m2297 -2 c-9 -9 -19 -14 -23 -11 -10 10 6
28 24 28 15 0 15 -1 -1 -17z m3286 -52 c60 -57 42 -58 -23 -1 -33 29 -60 57
-60 63 0 11 21 -5 83 -62z m-3753 -11 c13 -47 -6 -44 -24 3 -9 23 -16 49 -16
57 0 21 30 -24 40 -60z m110 24 c0 -8 -4 -14 -10 -14 -5 0 -10 9 -10 21 0 11
5 17 10 14 6 -3 10 -13 10 -21z m320 18 c0 -4 -9 -14 -20 -22 -11 -8 -20 -20
-20 -26 0 -7 -8 -10 -20 -7 -26 7 -26 23 1 23 16 0 19 4 14 20 -5 16 -2 20 19
20 14 0 26 -4 26 -8z m-95 -30 c-8 -8 -25 10 -19 20 4 6 9 5 15 -3 4 -7 6 -15
4 -17z m1195 0 c0 -15 -80 -34 -111 -27 -47 11 -44 25 4 19 26 -4 53 -2 63 5
23 13 44 14 44 3z m-1044 -18 c-4 -12 -2 -15 9 -10 9 3 15 0 15 -9 0 -19 -29
-19 -36 -1 -3 8 -12 12 -20 9 -8 -3 -22 -2 -31 3 -17 7 1 14 61 23 4 0 5 -6 2
-15z m-346 -16 c0 -6 -7 -7 -16 -4 -9 3 -18 6 -20 6 -3 0 -3 4 1 10 7 11 35 2
35 -12z m56 -25 c-8 -8 -36 5 -36 17 0 7 6 7 21 0 11 -7 18 -14 15 -17z m3804
-2 c0 -11 -26 -22 -34 -14 -12 12 -5 23 14 23 11 0 20 -4 20 -9z m-3755 -11
c3 -5 -1 -10 -9 -10 -8 0 -18 5 -21 10 -3 6 1 10 9 10 8 0 18 -4 21 -10z m75
-4 c0 -8 -4 -18 -10 -21 -5 -3 -10 -1 -10 4 0 6 -7 11 -15 11 -8 0 -15 5 -15
10 0 6 11 10 25 10 15 0 25 -6 25 -14z m30 4 c0 -5 13 -7 30 -3 28 5 30 3 30
-23 l0 -29 -19 24 -18 24 -7 -28 c-8 -31 5 -45 42 -45 18 0 22 6 22 30 0 20 5
30 15 30 18 0 18 -1 5 -34 -8 -23 -7 -26 10 -26 11 0 20 -5 20 -11 0 -6 -9 -9
-20 -6 -24 6 -28 -18 -5 -27 25 -9 18 -28 -7 -21 -86 25 -208 100 -133 81 21
-5 26 -2 31 21 5 17 3 28 -4 31 -15 5 -16 22 -2 22 6 0 10 -4 10 -10z m3530
-25 c-7 -8 -17 -15 -23 -15 -5 0 -2 9 8 20 21 23 35 19 15 -5z m55 15 c-3 -5
-13 -10 -21 -10 -8 0 -12 5 -9 10 3 6 13 10 21 10 8 0 12 -4 9 -10z m-1125 -5
c0 -9 -122 -66 -133 -62 -7 2 15 18 48 35 56 29 85 38 85 27z m2287 -22 c-9
-9 -20 -13 -24 -9 -4 4 1 14 11 22 25 18 35 8 13 -13z m-42 -32 c-3 -6 -14
-11 -23 -11 -15 1 -15 2 2 15 21 16 32 13 21 -4z m-741 -16 c-4 -8 -10 -15
-15 -15 -4 0 -6 7 -3 15 4 8 10 15 15 15 4 0 6 -7 3 -15z m126 -10 c20 -24 6
-28 -15 -5 -10 11 -13 20 -8 20 6 0 16 -7 23 -15z m560 -5 c-19 -12 -30 -12
-30 -1 0 10 31 20 40 14 2 -2 -2 -8 -10 -13z m-5370 -12 c30 -12 56 -23 58
-24 4 -2 -50 -148 -60 -158 -14 -17 -9 10 16 79 l24 66 -62 29 c-72 34 -55 40
24 8z m5320 2 c0 -5 -9 -10 -21 -10 -11 0 -17 5 -14 10 3 6 13 10 21 10 8 0
14 -4 14 -10z m-6046 -116 c187 -80 264 -118 304 -151 30 -24 57 -41 60 -38 3
3 25 51 48 108 23 56 47 103 53 105 5 2 -14 -56 -43 -128 -51 -126 -57 -134
-137 -218 -95 -98 -135 -129 -346 -271 -152 -101 -203 -147 -203 -181 0 -28
20 -173 26 -190 11 -30 14 -130 4 -130 -5 0 -10 18 -10 39 0 34 -4 42 -30 55
-24 11 -37 12 -60 4 -17 -5 -27 -14 -24 -19 3 -5 2 -9 -3 -10 -4 0 -18 -2 -31
-3 -22 -3 -91 -66 -72 -66 10 0 6 -72 -5 -89 -3 -6 -13 -11 -22 -11 -15 0 -14
2 0 18 23 25 21 50 -4 71 -22 17 -21 17 30 55 29 20 69 45 89 54 20 9 39 19
42 22 7 8 31 6 53 -4 10 -5 19 -7 21 -5 2 2 -3 49 -10 104 -7 55 -11 112 -8
126 6 32 38 62 124 120 36 24 70 47 75 51 6 4 51 35 100 67 124 83 197 144
272 228 l65 72 -62 48 c-60 47 -332 173 -372 173 -10 0 -18 4 -18 9 0 4 -40
25 -90 46 -49 21 -90 42 -90 47 0 6 6 8 13 5 6 -3 124 -53 261 -113z m5619 56
c-3 -12 -23 -10 -23 3 0 8 -7 17 -15 21 -8 3 -15 13 -15 22 0 13 7 10 27 -12
15 -16 26 -31 26 -34z m-223 30 c0 -11 -4 -20 -10 -20 -5 0 -10 9 -10 20 0 11
5 20 10 20 6 0 10 -9 10 -20z m-10 -48 c0 -11 -22 -32 -32 -32 -5 0 -4 9 2 20
11 20 30 28 30 12z m-439 -39 c-10 -17 -10 -16 -11 3 0 23 13 41 18 25 2 -6
-1 -18 -7 -28z m449 -24 c0 -5 -8 -10 -17 -11 -10 0 -23 -2 -30 -2 -6 -1 -19
-9 -30 -18 -10 -9 -22 -17 -28 -17 -5 -1 -10 -6 -10 -12 0 -16 -32 -35 -42
-25 -4 4 1 14 12 23 11 8 19 18 18 23 -2 5 6 14 17 20 11 6 20 8 20 5 0 -4 7
1 16 10 9 9 23 14 30 11 8 -3 14 -1 14 4 0 5 7 7 15 4 8 -4 15 -10 15 -15z
m-430 -29 c0 -11 -4 -20 -10 -20 -5 0 -10 9 -10 20 0 11 5 20 10 20 6 0 10 -9
10 -20z m-1400 2 c0 -5 -36 -23 -80 -41 -44 -19 -83 -38 -86 -42 -3 -5 -13 -9
-23 -9 -29 0 -57 -39 -115 -165 l-55 -120 23 -20 c47 -42 246 -195 249 -193 7
6 37 -24 32 -32 -3 -4 3 -14 12 -21 21 -18 69 -124 87 -196 8 -30 23 -64 33
-75 14 -16 15 -22 5 -25 -10 -4 -8 -9 5 -20 17 -14 17 -14 -1 -9 -10 4 -25 1
-32 -5 -11 -9 -8 -21 16 -69 l29 -58 -40 -34 c-36 -30 -42 -42 -64 -128 -14
-52 -25 -115 -26 -140 0 -34 -2 -40 -9 -25 -4 11 -7 29 -5 40 15 86 15 125 0
125 -8 0 -15 5 -15 10 0 6 8 10 18 10 10 0 22 3 25 7 9 9 -43 63 -60 63 -8 0
-11 4 -8 10 3 5 1 19 -5 31 -11 19 -13 19 -29 5 -15 -14 -26 -9 -121 55 -58
39 -118 78 -133 87 -16 9 -68 42 -116 73 -47 30 -93 53 -100 51 -10 -3 -11 0
-1 18 15 28 9 33 -79 60 -76 24 -144 26 -161 5 -23 -28 -31 -15 -10 15 21 29
24 30 73 24 29 -3 84 -17 123 -30 79 -27 84 -28 84 -15 0 6 25 65 56 133 65
142 99 238 87 247 -66 54 -104 81 -114 81 -6 0 -29 5 -50 12 -31 9 -37 14 -28
25 9 10 15 10 25 2 11 -9 14 -8 14 1 0 10 5 9 18 -3 9 -8 35 -19 57 -22 22 -4
45 -12 52 -17 7 -5 21 -7 32 -3 29 9 35 -11 9 -34 -12 -12 -18 -21 -12 -21 25
1 56 45 103 148 28 62 59 121 69 132 10 10 65 39 122 64 114 48 120 50 120 38z
m1551 -45 c-16 -16 -26 0 -10 19 9 11 15 12 17 4 2 -6 -1 -17 -7 -23z m-1818
-1 c3 -7 0 -19 -6 -25 -8 -8 -8 -11 0 -11 6 0 9 -9 6 -20 -7 -25 -39 -22 -35
3 2 9 -2 17 -8 17 -15 0 -12 16 6 34 19 20 30 20 37 2z m1653 -23 c-11 -11
-19 6 -11 24 8 17 8 17 12 0 3 -10 2 -21 -1 -24z m154 -23 c0 -11 -4 -20 -10
-20 -5 0 -10 9 -10 20 0 11 5 20 10 20 6 0 10 -9 10 -20z m130 -15 c-7 -8 -16
-15 -21 -15 -14 0 -10 17 8 36 20 20 32 1 13 -21z m-274 -1 c-3 -9 -2 -12 5
-9 6 4 19 -1 30 -11 27 -24 25 -84 -6 -144 -14 -27 -25 -54 -25 -60 0 -7 -18
-42 -40 -80 -22 -38 -40 -76 -40 -85 0 -9 -7 -29 -15 -43 -8 -15 -26 -65 -40
-112 -52 -180 -64 -198 -155 -229 -36 -13 -74 -27 -85 -33 -12 -5 -28 -10 -38
-12 -9 -1 -20 -5 -23 -9 -4 -4 -16 -7 -27 -7 -18 0 -17 3 7 25 16 15 39 25 56
25 36 0 138 37 164 59 18 16 71 111 68 122 -1 4 12 47 29 95 16 49 33 103 38
119 4 17 25 58 45 92 20 34 36 66 36 71 0 8 -26 21 -52 26 -19 3 -6 21 18 24
17 2 24 0 19 -7 -3 -7 2 -11 14 -11 23 0 29 16 9 22 -9 3 -8 9 5 22 9 10 17
27 17 38 0 16 -5 19 -25 16 -16 -3 -25 -1 -25 7 0 7 16 15 35 17 19 2 35 0 35
-6 0 -5 2 -7 5 -4 8 7 -16 58 -27 58 -5 0 -11 -7 -14 -15 -4 -8 -10 -15 -15
-15 -5 0 -9 7 -9 15 0 8 -4 15 -10 15 -5 0 -10 -10 -10 -22 -1 -22 -1 -23 -15
-4 -21 28 -19 34 15 41 17 4 30 11 30 16 0 5 5 9 11 9 6 0 8 -7 5 -16z m-3926
-20 c0 -3 -37 -22 -82 -43 -46 -21 -123 -62 -173 -90 -49 -29 -98 -51 -108
-49 -24 4 -17 23 8 21 11 -2 14 0 8 3 -23 10 -14 26 12 20 17 -4 42 4 90 31
36 21 76 43 87 48 12 6 46 22 77 37 55 26 81 33 81 22z m4080 -14 c8 -5 12
-12 9 -15 -8 -8 -39 5 -39 16 0 11 11 11 30 -1z m110 6 c0 -16 -14 -36 -26
-36 -14 0 -19 22 -7 33 7 8 33 10 33 3z m-55 -38 c30 -14 32 -33 4 -49 -19
-10 -20 -8 -14 10 4 14 1 23 -9 27 -9 3 -16 10 -16 15 0 12 4 11 35 -3z
m-6612 -80 c25 -84 74 -180 152 -298 26 -39 46 -83 50 -109 9 -54 -9 -49 -20
6 -3 20 -19 55 -34 77 -36 54 -112 183 -130 221 -14 31 -51 145 -51 158 0 4 3
7 8 7 4 0 15 -28 25 -62z m2707 -2 c0 -10 -28 -7 -35 4 -11 18 5 31 21 16 8
-8 14 -17 14 -20z m3680 15 c0 -12 -20 -25 -27 -18 -7 7 6 27 18 27 5 0 9 -4
9 -9z m216 -26 c-9 -13 -16 -33 -16 -45 0 -11 -5 -20 -10 -20 -11 0 -8 59 4
78 4 7 14 12 23 12 14 0 14 -3 -1 -25z m-409 -1 c-3 -3 -12 -4 -19 -1 -8 3 -5
6 6 6 11 1 17 -2 13 -5z m-4253 -81 c3 -27 9 -80 12 -120 5 -54 11 -73 23 -76
11 -3 9 -5 -6 -6 -26 -1 -29 9 -38 114 -3 44 -8 92 -11 108 -3 15 -1 27 4 27
5 0 12 -21 16 -47z m-2015 -118 c27 -43 31 -57 31 -122 0 -49 7 -90 20 -125
21 -56 27 -128 10 -128 -5 0 -10 18 -10 40 0 21 -9 63 -21 92 -16 40 -20 68
-16 113 5 68 -5 93 -77 190 -24 33 -42 64 -39 68 5 9 55 -53 102 -128z m4467
98 c-9 -33 12 -49 31 -25 13 16 14 15 11 -3 -3 -21 -34 -31 -56 -17 -14 10 -6
72 10 72 6 0 7 -11 4 -27z m2180 -20 c-11 -11 -17 4 -9 23 7 18 8 18 11 1 2
-10 1 -21 -2 -24z m-2091 17 c3 -5 -1 -10 -9 -10 -8 0 -18 5 -21 10 -3 6 1 10
9 10 8 0 18 -4 21 -10z m-1735 -21 c95 -11 100 -13 100 -35 0 -15 -6 -24 -15
-24 -8 0 -15 9 -15 19 0 15 -9 20 -47 25 -27 3 -71 8 -99 11 l-51 6 -24 -63
c-13 -35 -24 -66 -24 -70 0 -15 -15 -16 -103 -4 l-92 13 0 -39 c0 -21 -4 -38
-9 -38 -12 0 -19 77 -13 139 6 64 24 68 20 4 l-3 -47 85 -12 c46 -7 87 -11 91
-8 4 2 18 33 31 69 26 75 15 71 168 54z m1778 -17 c2 -7 -2 -10 -12 -6 -9 3
-16 11 -16 16 0 13 23 5 28 -10z m2046 -14 c-10 -32 -41 -71 -48 -59 -3 5 1
14 9 21 8 7 15 20 15 30 0 18 8 30 22 30 5 0 6 -10 2 -22z m-1994 -20 c0 -13
-23 -5 -28 10 -2 7 2 10 12 6 9 -3 16 -11 16 -16z m-1356 -93 c43 -56 90 -107
109 -117 l32 -17 -30 0 c-25 0 -37 9 -70 54 -29 39 -45 52 -58 49 -9 -3 -24 1
-32 9 -13 13 -13 16 0 27 13 11 11 18 -15 50 -16 20 -27 40 -23 44 3 3 7 5 9
4 1 -2 36 -48 78 -103z m1284 73 c14 -14 16 -28 2 -28 -5 0 -14 9 -20 20 -12
22 -1 27 18 8z m2109 -79 c-5 -27 -13 -47 -17 -44 -4 3 -4 24 0 47 5 24 4 50
-1 59 -4 9 -5 19 -2 23 17 17 29 -37 20 -85z m-107 20 c-7 -11 -14 -18 -17
-15 -8 8 5 36 17 36 7 0 7 -6 0 -21z m-3200 -20 c0 -5 -7 -9 -15 -9 -15 0 -20
12 -9 23 8 8 24 -1 24 -14z m3168 -21 c-2 -6 -10 -14 -16 -16 -7 -2 -10 2 -6
12 7 18 28 22 22 4z m-4291 -10 c51 0 90 -5 87 -9 -3 -5 -12 -9 -20 -9 -16 0
-16 -2 -4 -135 11 -125 15 -135 51 -135 34 0 39 -17 7 -22 -30 -5 113 -38 161
-38 27 1 47 10 81 40 24 22 47 37 50 34 3 -4 -17 -26 -45 -50 -33 -29 -59 -44
-77 -44 -33 0 -39 -29 -8 -37 11 -3 20 -12 20 -19 0 -8 9 -14 20 -14 24 0 24
-3 5 -39 -16 -33 -10 -45 16 -31 13 7 20 6 26 -3 16 -27 43 -28 55 -2 13 28
38 41 38 20 0 -8 -3 -15 -8 -15 -4 0 -16 -17 -27 -37 -11 -21 -33 -50 -50 -65
-27 -26 -28 -28 -8 -28 14 0 23 -8 27 -25 7 -26 25 -32 42 -15 18 18 64 -9 64
-37 0 -17 6 -23 23 -23 20 -1 20 -2 5 -14 -16 -11 -15 -14 8 -39 14 -15 23
-31 20 -36 -3 -5 1 -15 10 -22 14 -12 13 -15 -11 -35 l-27 -21 31 -13 c17 -7
31 -16 31 -21 0 -13 -6 -11 -52 12 -22 11 -64 23 -92 25 -28 2 -69 5 -90 6
-25 2 -41 -2 -43 -9 -3 -9 6 -13 26 -13 17 0 31 -4 31 -10 0 -6 -30 -10 -70
-10 -67 0 -71 -1 -81 -27 -5 -14 -16 -31 -23 -37 -18 -14 -158 -332 -161 -366
-2 -14 -10 -49 -18 -78 -19 -69 -13 -96 68 -318 47 -128 72 -183 81 -180 7 3
14 1 16 -4 2 -5 21 0 42 11 22 10 42 19 44 19 3 0 2 -23 -1 -50 -5 -41 -3 -52
10 -57 9 -4 21 1 28 10 16 22 35 22 35 1 0 -21 29 -43 56 -44 12 0 33 10 48
21 15 12 30 18 34 14 4 -3 -4 -14 -17 -24 -13 -10 -20 -20 -15 -23 5 -3 67
-24 138 -48 71 -23 135 -44 143 -47 7 -3 -10 43 -37 103 -31 65 -47 111 -41
117 8 8 111 -191 111 -214 0 -21 42 -6 89 31 28 23 55 38 60 35 5 -3 24 23 41
58 18 34 55 103 83 152 66 119 130 246 125 250 -16 14 -211 104 -218 100 -4
-3 -21 6 -37 19 -36 30 -278 151 -321 161 -27 5 -33 11 -30 28 2 15 11 23 29
25 24 3 38 26 138 233 61 126 115 229 120 229 9 0 -73 -178 -178 -388 -46 -91
-54 -102 -73 -96 -14 4 -18 3 -13 -6 4 -6 16 -9 27 -6 13 3 71 -20 159 -65 76
-38 151 -69 165 -69 23 0 26 -3 22 -25 -4 -17 -1 -25 9 -25 7 0 36 -11 63 -25
27 -14 51 -21 53 -17 21 39 19 41 -163 132 -99 50 -180 94 -180 99 0 10 83
-27 305 -134 72 -34 134 -64 140 -65 5 -1 27 32 48 74 20 42 41 76 47 76 5 0
17 14 26 31 8 17 11 28 5 25 -6 -4 -11 0 -11 8 0 8 -6 13 -12 11 -7 -2 -77 -6
-155 -9 -117 -5 -143 -3 -143 8 0 13 9 14 319 29 20 1 35 7 38 17 6 20 48 117
88 206 92 199 148 321 155 334 4 8 17 16 29 18 27 4 27 20 -1 31 -25 10 -96
82 -149 150 l-33 45 -9 -35 c-36 -148 -36 -249 -1 -235 9 3 27 9 41 12 22 6
24 4 19 -13 -5 -15 0 -25 19 -37 22 -14 38 -64 18 -54 -43 22 -126 58 -133 58
-5 0 -12 -20 -16 -45 -9 -62 -24 -57 -17 6 l6 50 -29 -7 c-37 -9 -64 -23 -63
-32 4 -22 -2 -42 -12 -42 -6 0 -8 7 -5 16 9 23 -3 54 -20 54 -8 0 -20 13 -27
28 -7 16 -18 27 -24 25 -12 -4 -18 19 -15 59 1 13 -4 15 -31 8 -17 -4 -71 -11
-119 -15 l-87 -6 12 25 c8 17 13 21 15 11 2 -10 15 -15 35 -14 28 0 29 1 11 9
-30 12 -39 29 -19 37 10 3 20 1 24 -6 6 -9 35 -10 83 -2 4 0 8 11 11 24 3 21
4 21 15 -6 15 -35 46 -33 50 4 3 23 6 25 50 24 26 -1 50 2 53 7 4 6 20 -3 37
-20 23 -22 29 -35 25 -56 -6 -30 -5 -29 -55 -15 -31 8 -38 15 -38 35 0 21 -2
23 -14 12 -8 -7 -12 -16 -9 -20 2 -5 -6 -8 -19 -8 -39 -1 0 -16 75 -30 37 -7
70 -16 72 -21 13 -20 33 6 39 49 4 26 10 62 13 80 l5 32 -55 0 c-31 0 -59 5
-62 10 -3 6 3 10 13 10 20 0 32 18 32 50 0 13 7 17 25 16 14 0 25 -4 25 -8 0
-4 11 -3 24 2 22 8 31 1 105 -90 45 -55 91 -105 103 -111 19 -10 25 -8 50 21
15 18 25 36 23 40 -2 3 29 49 69 101 56 73 71 100 65 115 -11 26 -10 34 0 34
5 0 13 -12 18 -27 9 -25 3 -37 -59 -119 -37 -50 -68 -94 -68 -98 0 -4 -13 -27
-30 -50 -16 -24 -26 -46 -23 -49 3 -4 1 -12 -5 -20 -9 -10 16 -17 126 -35 141
-24 163 -33 254 -104 23 -18 35 -34 31 -43 -8 -22 -33 -18 -33 5 0 11 -12 27
-27 37 -16 10 -34 23 -41 30 -41 39 -47 35 -74 -48 -19 -58 -23 -79 -13 -79 7
0 20 -11 29 -25 16 -25 16 -25 -18 -25 -19 0 -42 -3 -50 -6 -13 -5 -8 18 23
105 22 61 37 111 33 112 -4 0 -16 2 -27 5 -11 2 -64 11 -118 21 -109 19 -120
16 -150 -34 l-17 -30 116 -104 c64 -57 142 -125 173 -151 43 -35 70 -71 118
-155 98 -171 113 -181 211 -135 34 17 92 35 129 42 49 10 61 15 49 22 -9 5
-16 17 -16 27 0 11 -7 22 -16 25 -8 3 -13 10 -10 14 3 5 -5 8 -17 8 -18 -1
-22 5 -24 41 -3 37 -1 43 31 62 24 15 55 23 99 25 59 3 71 8 153 61 l88 57 22
-28 c23 -28 37 -53 49 -89 l7 -20 8 20 c15 36 11 74 -10 87 -19 12 -19 13 7
40 42 44 94 35 93 -15 0 -7 -8 -2 -18 10 -15 20 -20 21 -42 10 -14 -7 -25 -19
-25 -27 0 -19 65 -32 83 -17 10 8 16 7 23 -4 14 -23 11 -31 -11 -24 -15 5 -18
3 -14 -9 3 -9 1 -16 -5 -16 -6 0 -11 7 -11 15 0 8 -9 15 -19 15 -25 0 -32 -40
-11 -57 8 -6 12 -15 8 -19 -4 -4 -15 -1 -24 7 -15 12 -17 12 -13 0 3 -8 -3
-23 -14 -34 -14 -14 -17 -27 -12 -53 3 -19 3 -34 0 -34 -15 0 -34 30 -29 44 5
12 2 15 -10 10 -19 -7 -22 12 -3 20 7 3 6 5 -3 3 -9 -1 -73 -38 -143 -82 -138
-86 -138 -86 -38 -99 30 -4 73 -18 96 -32 23 -13 48 -24 56 -24 8 0 33 18 54
40 24 25 45 38 54 35 20 -8 112 37 107 52 -3 6 2 14 10 17 23 9 36 7 29 -3 -3
-5 5 -12 17 -14 l23 -4 -22 -8 c-13 -4 -23 -11 -23 -15 0 -4 -17 -10 -37 -14
-21 -3 -49 -14 -62 -25 -21 -16 -22 -21 -13 -52 22 -69 33 -121 28 -126 -9 -9
-26 8 -26 25 0 9 -7 30 -15 46 -8 15 -13 32 -10 36 3 5 2 15 -1 24 -4 12 -14
6 -43 -25 -43 -45 -76 -50 -125 -20 -69 43 -220 66 -298 46 -32 -8 -32 -9 -17
-37 15 -29 3 -35 -19 -8 l-18 22 -44 -20 c-25 -12 -54 -24 -65 -27 -19 -7 -19
-7 3 -18 12 -5 22 -14 22 -19 0 -11 -4 -10 -35 4 -27 12 -32 27 -14 45 7 7 2
13 -19 21 -17 6 -40 24 -53 41 -27 37 -32 37 -70 10 -29 -20 -29 -21 -12 -44
10 -12 25 -33 33 -45 8 -12 21 -28 28 -36 17 -18 16 -24 -15 -50 -33 -29 -31
-28 -79 -6 -49 22 -85 52 -78 66 3 6 -1 3 -10 -8 -8 -10 -20 -15 -26 -11 -9 6
-9 10 1 16 11 6 10 12 -4 27 -19 21 -24 43 -5 24 19 -19 26 -14 30 16 3 23 8
27 41 30 41 4 45 9 20 28 -15 11 -15 13 -3 14 8 0 21 -4 29 -9 15 -10 64 9 75
28 12 19 -87 172 -142 219 -31 26 -105 93 -166 149 -61 57 -114 103 -119 103
-9 0 -217 -420 -217 -440 0 -13 2 -13 9 -1 8 12 17 10 53 -15 41 -28 42 -29
18 -32 -14 -2 -39 4 -55 12 -32 17 -39 13 -49 -21 -7 -20 2 -27 89 -70 l96
-48 19 25 c23 30 38 20 22 -15 -11 -24 -9 -26 37 -49 l48 -25 23 40 c12 22 25
38 28 35 4 -5 -27 -72 -43 -94 -1 -1 -15 3 -29 10 -22 9 -29 9 -35 0 -12 -20
-43 -3 -38 20 12 46 -18 5 -58 -79 l-43 -91 31 -13 c18 -8 32 -9 34 -3 13 38
73 130 87 132 16 3 16 1 1 -35 -9 -21 -17 -42 -18 -47 -1 -5 64 -43 144 -85
80 -42 152 -81 160 -88 10 -8 27 -9 54 -3 22 5 41 7 43 5 2 -1 -3 -14 -10 -27
-7 -12 -14 -25 -15 -27 -1 -1 -8 1 -15 5 -17 11 -32 12 -39 1 -12 -16 -51 3
-46 23 3 14 -25 33 -144 94 -145 75 -148 76 -159 56 -14 -25 -17 -22 40 -50
25 -12 46 -23 47 -24 2 -2 -29 -63 -68 -137 -39 -74 -75 -144 -80 -157 -5 -13
-23 -45 -41 -70 -40 -59 -37 -56 -44 -49 -3 3 3 19 15 36 12 17 42 69 66 116
l44 85 -39 20 c-22 11 -41 20 -43 20 -2 0 -18 -31 -37 -70 -19 -38 -39 -70
-46 -70 -12 0 -30 -37 -26 -53 7 -26 -100 -188 -121 -184 -6 1 -13 -7 -15 -18
-2 -11 -13 -30 -24 -42 -29 -31 -19 -48 25 -45 22 2 37 -1 37 -7 0 -6 -4 -11
-10 -11 -5 0 -10 -5 -10 -11 0 -6 -7 -17 -15 -25 -13 -13 -18 -12 -46 8 l-31
23 -19 -24 c-15 -18 -22 -21 -33 -12 -11 10 -16 8 -21 -8 -3 -12 -10 -21 -15
-21 -10 0 -25 -39 -22 -56 1 -6 -16 -50 -39 -98 -39 -84 -40 -88 -22 -102 32
-26 -44 -6 -118 32 l-66 33 -20 -43 -21 -43 64 -31 c35 -17 70 -29 78 -26 8 3
23 -4 33 -16 16 -19 133 -86 137 -78 64 136 164 326 171 327 6 0 26 -13 45
-30 23 -19 36 -25 38 -17 12 44 34 77 47 72 8 -4 15 -2 15 4 0 6 -5 12 -11 14
-6 2 -8 14 -4 31 6 22 13 27 36 27 33 0 35 -5 15 -26 -8 -8 -20 -39 -27 -69
-9 -41 -17 -55 -30 -55 -35 0 -28 -17 13 -33 23 -9 43 -15 45 -13 2 2 39 133
82 292 80 292 100 353 147 445 25 50 25 51 6 67 -15 12 -17 19 -8 38 11 24 34
39 44 29 4 -3 1 -19 -5 -35 -8 -21 -8 -30 0 -33 7 -2 -6 -41 -35 -103 -31 -64
-43 -102 -37 -110 5 -6 53 -31 107 -54 114 -52 108 -48 96 -60 -6 -6 -46 6
-113 36 -57 25 -107 42 -111 37 -4 -4 -18 -51 -32 -103 -14 -52 -47 -177 -74
-277 -55 -207 -50 -200 -143 -163 l-51 20 -11 -23 c-7 -12 -20 -28 -30 -34
-30 -22 -64 -93 -174 -363 -59 -146 -110 -267 -112 -269 -1 -2 -6 -2 -9 1 -3
4 12 49 34 102 32 79 37 96 24 101 -8 3 -16 4 -17 3 -7 -8 -155 -397 -155
-408 0 -6 64 -40 76 -40 2 0 0 10 -7 21 -9 17 -8 23 2 30 25 16 31 9 27 -27
-4 -36 -4 -37 60 -65 35 -16 75 -32 88 -35 13 -3 24 -12 24 -20 0 -8 -1 -14
-3 -14 -22 0 -130 41 -198 76 l-87 43 -31 -74 c-17 -41 -31 -77 -31 -80 0 -4
72 -5 160 -3 88 2 160 0 160 -3 0 -14 -50 -19 -184 -19 l-138 0 5 -45 c6 -43
-3 -59 -19 -34 -5 8 -9 7 -15 -4 -12 -20 -1 -47 15 -41 7 3 19 -2 26 -11 12
-14 11 -18 0 -25 -12 -7 -12 -10 3 -15 13 -6 14 -11 6 -26 -8 -15 -6 -19 8
-19 17 -1 17 -1 0 -11 -16 -9 -16 -12 -4 -22 14 -12 40 -97 32 -105 -10 -10
-86 -19 -91 -11 -3 5 1 9 9 9 8 0 20 6 26 14 10 11 0 16 -56 25 -37 7 -83 14
-100 17 -28 5 -33 3 -33 -13 0 -32 -19 -44 -45 -27 -13 8 -46 16 -75 16 -28 1
-53 5 -56 10 -3 5 -10 6 -15 3 -5 -4 -9 -2 -9 4 0 5 -26 19 -57 31 -43 16 -69
20 -103 16 -25 -4 -51 -7 -57 -8 -7 -1 -13 -4 -13 -7 0 -3 -4 -12 -9 -20 -8
-12 -12 -12 -26 2 -13 13 -14 18 -3 21 7 2 35 11 62 20 66 21 82 20 154 -9 34
-14 74 -25 90 -25 15 0 32 -4 38 -9 5 -6 27 -13 50 -17 32 -5 42 -3 47 9 4 12
-6 17 -52 22 -31 4 -63 10 -69 14 -9 5 -2 45 26 148 24 87 35 148 30 156 -6
12 1 15 42 15 28 1 55 4 61 8 15 9 -95 120 -141 143 -19 10 -42 16 -51 14 -10
-2 -54 -52 -100 -111 -154 -199 -223 -282 -234 -282 -6 0 -33 -29 -60 -65 -27
-36 -53 -65 -58 -65 -4 0 -5 6 -1 12 10 17 124 163 168 214 l36 42 -58 23
c-96 38 -193 89 -187 99 3 5 56 -16 118 -46 61 -29 119 -54 128 -54 17 0 138
148 176 215 l22 40 -300 164 c-164 90 -299 166 -299 168 0 3 9 3 20 0 14 -4
20 0 20 12 0 9 5 22 10 27 8 8 -10 20 -59 42 -38 17 -73 37 -77 44 -6 10 -4
10 9 0 9 -8 21 -11 27 -7 6 4 35 -7 66 -25 47 -26 60 -29 89 -21 30 8 200 107
250 146 11 9 32 25 48 37 38 30 34 50 -19 87 -25 18 -43 38 -41 45 23 60 23
60 -30 53 -47 -5 -54 -3 -104 35 -53 40 -80 71 -43 50 13 -7 22 -6 33 6 15 14
16 14 19 -1 2 -9 8 -17 13 -17 5 0 9 -9 9 -20 0 -26 29 -38 41 -17 9 16 49 13
49 -4 0 -23 17 -5 33 36 19 45 44 64 32 24 -6 -19 -4 -21 14 -16 13 3 19 1 15
-5 -3 -5 -15 -8 -25 -5 -17 4 -19 -1 -19 -40 0 -24 -5 -53 -10 -63 -9 -16 -3
-24 34 -52 25 -18 45 -41 46 -51 0 -14 5 -17 21 -12 21 7 21 7 3 -18 -11 -15
-23 -26 -29 -25 -25 2 -35 -3 -35 -17 0 -8 -6 -15 -13 -15 -8 0 -14 -6 -14
-14 0 -10 285 -154 383 -193 6 -2 29 30 50 71 l39 76 -21 14 c-12 8 -66 53
-122 99 -69 58 -98 88 -92 97 6 9 16 5 41 -18 60 -53 133 -112 141 -112 5 0 8
-6 8 -14 0 -13 48 -52 55 -44 1 2 30 57 63 124 l60 120 -135 68 c-74 37 -138
64 -141 61 -3 -3 4 -8 16 -12 12 -3 22 -11 22 -18 0 -8 3 -20 6 -28 4 -11 -2
-14 -23 -13 -36 2 -55 14 -47 29 5 9 3 9 -6 0 -11 -10 -16 -7 -27 14 -16 31
-16 30 3 37 9 4 23 1 32 -6 12 -11 14 -11 11 0 -6 19 -177 104 -261 131 -21 7
-38 17 -38 22 0 6 9 7 21 4 27 -9 39 8 39 58 l0 37 -88 0 -89 0 -12 -40 c-10
-33 -16 -40 -31 -35 -19 6 -31 -15 -35 -60 -2 -16 -8 -19 -31 -17 -16 2 -30 4
-31 5 -5 6 30 97 38 97 4 0 14 18 20 40 l12 40 96 -1 c91 0 156 -8 210 -25 15
-4 22 -3 18 2 -3 6 -2 16 4 24 6 11 9 7 9 -15 0 -29 6 -33 159 -107 l159 -76
-10 -43 c-6 -24 -17 -49 -25 -56 -13 -10 -10 -14 17 -28 17 -9 40 -13 50 -10
14 5 18 2 15 -7 -4 -9 10 -21 37 -35 l43 -20 88 163 c48 90 87 168 87 175 0 6
8 24 17 40 13 22 14 32 6 40 -9 9 -9 18 -2 32 6 10 7 23 2 27 -9 10 -126 50
-131 46 -1 -2 2 -15 7 -30 7 -16 18 -26 31 -26 23 0 25 -6 8 -24 -17 -18 -46
-8 -50 17 -3 17 -11 20 -58 22 -58 1 -80 9 -80 27 0 7 15 9 42 5 23 -3 36 -2
29 2 -16 11 15 24 32 14 7 -3 9 -2 5 2 -6 6 -377 133 -394 135 -1 0 -5 -30
-10 -67 -4 -38 -9 -61 -11 -52 -7 31 -44 30 -85 -2 -21 -17 -43 -29 -48 -27
-6 2 11 20 38 40 34 27 54 35 70 31 12 -3 22 -1 22 5 0 5 -19 13 -42 16 -41 6
-44 9 -58 54 -13 39 -19 47 -37 45 -13 -2 -23 2 -23 7 0 6 4 10 10 10 5 0 7 7
4 15 -4 8 -14 15 -23 15 -12 0 -30 38 -67 138 -44 118 -54 137 -72 135 -11 -1
-23 4 -26 12 -4 10 1 15 15 15 13 0 19 5 16 13 -15 41 -37 127 -37 152 -1 17
3 48 9 70 16 60 14 75 -9 75 -11 0 -20 5 -20 10 0 6 11 10 24 10 21 0 32 19
101 178 42 97 83 182 89 187 7 6 18 20 25 33 11 22 9 24 -56 54 -83 38 -78 34
-63 53 17 20 34 19 26 -2 -5 -16 -4 -15 9 1 8 10 17 24 20 30 4 8 6 8 10 0 3
-6 13 -20 21 -30 14 -18 14 -18 4 4 -13 26 -6 57 10 47 6 -4 10 6 10 24 0 17
4 31 8 31 4 0 14 20 21 44 7 25 18 52 25 62 12 16 14 16 32 -2 19 -19 20 -18
68 30 l48 49 -30 13 c-17 7 -40 10 -51 7 -17 -4 -22 0 -27 26 -4 17 -11 31
-15 31 -5 0 -6 12 -3 26 5 20 2 26 -14 31 -13 3 -22 15 -24 31 -4 31 -44 45
-116 40 -46 -3 -46 -4 -19 -16 32 -14 35 -22 8 -22 -22 0 -54 27 -46 40 3 5
-1 48 -10 96 -8 47 -15 108 -15 135 0 93 -3 95 -131 102 -65 3 -116 11 -123
17 -8 9 4 11 54 6 36 -4 107 -7 157 -8z m4250 -48 c-17 -28 -29 -25 -15 5 6
13 15 22 19 19 5 -3 3 -14 -4 -24z m-2018 11 c16 -10 6 -31 -14 -31 -17 0 -28
17 -20 30 8 12 16 12 34 1z m-1295 -59 c3 -5 -44 -44 -104 -88 -107 -77 -116
-88 -110 -137 1 -17 -1 -17 -37 1 -34 18 -41 18 -58 5 -11 -8 -27 -18 -35 -23
-12 -7 -9 -13 15 -34 l30 -26 -27 0 c-28 0 -39 -22 -18 -35 6 -4 5 -12 -4 -21
-19 -18 -26 -18 -26 1 0 9 -9 15 -25 15 -18 0 -23 -4 -19 -15 7 -16 -8 -18
-60 -6 -28 6 -28 6 -10 29 24 28 455 341 471 342 6 0 14 -4 17 -8z m2316 -50
c0 -25 -19 -42 -47 -42 -26 0 -47 -33 -40 -61 3 -10 2 -21 -3 -24 -13 -8 -20
55 -8 74 14 23 63 53 72 44 3 -3 6 1 6 10 0 10 5 17 10 17 6 0 10 -8 10 -18z
m-1485 -23 c1 -8 6 -24 13 -35 6 -12 14 -40 18 -63 6 -39 6 -41 -20 -41 -25 0
-27 3 -25 43 1 23 -1 59 -6 81 -6 31 -5 38 6 34 8 -3 14 -11 14 -19z m-271
-25 c21 -8 20 -27 -2 -40 -23 -15 -55 6 -46 30 6 17 22 20 48 10z m-236 -26
c-2 -6 -10 -14 -16 -16 -7 -2 -10 2 -6 12 7 18 28 22 22 4z m130 -25 c-3 -32
-32 -43 -42 -17 -4 10 1 22 11 30 27 20 35 17 31 -13z m-3675 -54 c-9 -9 -26
-9 -65 -2 l-53 10 64 2 c49 1 62 -2 54 -10z m330 -89 c35 -62 19 -67 -17 -6
-28 47 -30 56 -18 56 4 0 20 -23 35 -50z m6007 41 c0 -12 -63 -61 -78 -61 -46
0 -241 -119 -250 -152 -5 -19 -60 -48 -91 -48 -10 0 -39 -14 -65 -30 -60 -39
-84 -34 -26 4 95 63 143 87 136 71 -4 -11 -2 -15 6 -12 7 2 12 11 12 20 -2 21
132 108 229 149 40 16 81 38 92 49 21 21 35 24 35 10z m-432 -41 c-2 -18 -28
-34 -138 -82 -234 -103 -257 -109 -336 -83 -18 5 -24 0 -37 -32 -15 -37 -14
-38 6 -48 12 -5 26 -16 31 -23 6 -11 10 -11 15 -3 8 12 41 5 41 -9 0 -4 -12
-10 -27 -13 -20 -4 -36 2 -57 20 -30 25 -46 19 -46 -19 0 -10 -4 -18 -8 -18
-5 0 -9 -6 -9 -14 0 -8 6 -12 15 -9 12 5 12 2 3 -14 -6 -11 -17 -23 -25 -26
-8 -3 -12 -14 -9 -25 4 -15 -1 -19 -26 -19 -16 0 -28 4 -25 8 9 15 -17 21 -33
8 -13 -11 -15 -11 -12 6 4 20 45 30 55 14 3 -5 11 -9 17 -9 7 0 7 4 -2 9 -12
8 -9 11 13 17 19 4 24 10 17 17 -7 7 -7 16 0 29 6 11 8 26 5 34 -3 8 -1 14 5
14 6 0 7 5 4 10 -3 6 -2 10 3 10 5 0 19 23 30 50 18 43 19 52 7 57 -8 3 -13 9
-10 14 3 4 12 6 20 3 7 -3 18 4 25 15 14 26 56 28 69 2 6 -10 7 -21 4 -25 -3
-3 3 -6 15 -6 12 0 22 -5 22 -11 0 -12 43 -1 48 12 2 5 11 9 21 9 9 0 77 27
151 59 121 54 135 62 138 87 2 18 7 23 14 16 5 -5 8 -20 6 -32z m112 19 c0
-20 -63 -25 -78 -6 -8 9 0 12 34 12 24 0 44 -3 44 -6z m-6050 -30 c0 -11 -4
-17 -10 -14 -5 3 -10 15 -10 26 0 11 5 17 10 14 6 -3 10 -15 10 -26z m5276
-36 c-7 -7 -26 7 -26 19 0 6 6 6 15 -2 9 -7 13 -15 11 -17z m-5238 -11 c6 -18
-15 -14 -22 4 -4 10 -1 14 6 12 6 -2 14 -10 16 -16z m206 -9 c11 -15 28 -45
38 -67 16 -40 17 -41 58 -38 52 3 101 -12 125 -38 23 -26 11 -25 -32 1 -26 16
-46 20 -91 17 l-57 -3 -18 51 c-16 45 -22 51 -40 46 -20 -5 -20 -4 -8 11 11
14 11 18 -2 23 -9 3 -24 1 -36 -5 -25 -14 -34 -14 -26 0 7 10 41 27 59 28 4 1
18 -11 30 -26z m5095 -9 c1 -1 0 -7 -4 -13 -7 -13 -45 4 -45 20 0 9 37 4 49
-7z m-1196 -33 c-5 -33 -2 -40 16 -46 22 -7 26 -21 12 -44 -7 -11 -13 -12 -23
-3 -11 8 -17 6 -26 -9 -9 -15 -19 -18 -35 -13 -30 9 -29 7 -21 49 6 35 8 37
36 31 28 -6 29 -5 23 24 -7 30 -1 50 15 50 4 0 6 -18 3 -39z m-4065 10 c3 -8
-1 -12 -9 -9 -7 2 -15 10 -17 17 -3 8 1 12 9 9 7 -2 15 -10 17 -17z m2855 -16
c61 -31 63 -35 46 -67 -9 -18 -8 -24 6 -34 24 -18 54 -12 74 13 12 16 24 20
48 16 18 -3 30 -9 27 -14 -3 -5 2 -19 10 -31 20 -28 20 -46 2 -50 -8 -2 2 -11
22 -22 37 -18 37 -18 20 1 -24 26 -23 40 1 19 18 -17 20 -16 26 3 6 18 25 30
25 16 0 -6 -29 -66 -35 -73 -8 -9 -85 40 -85 53 0 8 -4 15 -8 15 -15 0 -32
-24 -32 -44 0 -23 -27 -56 -47 -56 -15 0 -53 -35 -53 -50 0 -5 9 -10 19 -10
11 0 23 5 26 10 3 6 11 10 18 10 8 0 8 -3 -1 -12 -7 -7 -12 -23 -12 -36 0 -15
-7 -26 -20 -29 -14 -4 -20 -14 -20 -34 0 -19 -5 -29 -15 -29 -18 0 -17 -3 -6
36 10 36 6 44 -33 64 -32 16 -37 33 -10 38 9 2 14 -1 10 -6 -3 -6 -1 -14 5
-18 20 -12 29 19 11 40 -9 11 -12 16 -5 13 6 -4 34 4 62 18 43 22 51 30 51 54
0 16 7 48 15 72 l15 44 -21 -24 c-24 -29 -54 -34 -92 -14 -28 14 -29 19 -10
68 2 6 -21 23 -52 38 -30 15 -55 32 -55 38 0 6 3 9 8 7 4 -2 33 -17 65 -33z
m2437 10 c14 -16 10 -18 -14 -9 -9 3 -16 10 -16 15 0 14 16 11 30 -6z m-5170
-14 c0 -12 -20 -25 -27 -18 -7 7 6 27 18 27 5 0 9 -4 9 -9z m6705 -1 c-28 -12
-37 -12 -30 0 3 6 16 10 28 9 21 0 21 -1 2 -9z m55 -11 c0 -11 -4 -17 -10 -14
-5 3 -10 13 -10 21 0 8 5 14 10 14 6 0 10 -9 10 -21z m-3865 1 c3 -5 3 -15 -1
-21 -6 -11 -23 6 -24 24 0 10 18 9 25 -3z m-2595 -10 c0 -5 -2 -10 -4 -10 -3
0 -8 5 -11 10 -3 6 -1 10 4 10 6 0 11 -4 11 -10z m5710 0 c0 -5 -7 -10 -16
-10 -8 0 -12 5 -9 10 3 6 10 10 16 10 5 0 9 -4 9 -10z m800 -15 c14 -16 10
-18 -14 -9 -9 3 -16 10 -16 15 0 14 16 11 30 -6z m-6854 -32 c-11 -11 -17 4
-9 23 7 18 8 18 11 1 2 -10 1 -21 -2 -24z m2249 27 c4 -6 -6 -10 -22 -9 -25 0
-26 1 -8 9 11 5 21 9 22 9 1 1 5 -3 8 -9z m55 0 c0 -5 -9 -10 -20 -10 -11 0
-20 5 -20 10 0 6 9 10 20 10 11 0 20 -4 20 -10z m60 -10 c0 -5 -6 -10 -14 -10
-8 0 -18 5 -21 10 -3 6 3 10 14 10 12 0 21 -4 21 -10z m-2330 -36 c0 -8 -4
-12 -10 -9 -5 3 -10 10 -10 16 0 5 5 9 10 9 6 0 10 -7 10 -16z m2364 0 c4 -10
1 -14 -6 -12 -15 5 -23 28 -10 28 5 0 13 -7 16 -16z m2766 -14 c0 -5 -9 -10
-21 -10 -11 0 -17 5 -14 10 3 6 13 10 21 10 8 0 14 -4 14 -10z m60 -12 c0 -6
-7 -7 -16 -4 -9 3 -18 6 -20 6 -3 0 -3 4 1 10 7 11 35 2 35 -12z m-123 -5 c-9
-9 -19 -14 -23 -11 -10 10 6 28 24 28 15 0 15 -1 -1 -17z m-5057 -35 c0 -5 -4
-8 -10 -8 -5 0 -10 10 -10 23 0 18 2 19 10 7 5 -8 10 -18 10 -22z m661 -6
c-13 -19 -17 -32 -11 -38 7 -7 5 -16 -3 -28 -16 -22 -50 -11 -42 14 4 13 -2
19 -27 26 l-33 8 43 3 c29 3 47 11 55 24 6 10 18 19 25 19 9 0 7 -8 -7 -28z
m5559 17 c0 6 8 11 17 11 15 0 14 -2 -3 -19 -19 -18 -44 -12 -44 11 0 6 7 5
15 -2 10 -9 15 -9 15 -1z m90 1 c0 -5 -6 -10 -14 -10 -8 0 -18 5 -21 10 -3 6
3 10 14 10 12 0 21 -4 21 -10z m-6036 -16 c9 -24 7 -28 -9 -14 -17 14 -20 30
-6 30 5 0 12 -7 15 -16z m4746 -4 c0 -19 -11 -26 -23 -14 -8 8 3 34 14 34 5 0
9 -9 9 -20z m220 -19 c0 -11 -4 -23 -10 -26 -5 -3 -10 -1 -10 5 0 6 -4 8 -10
5 -11 -7 -14 18 -3 28 13 14 33 6 33 -12z m370 10 c0 -5 -7 -12 -16 -15 -24
-9 -28 -7 -14 9 14 17 30 20 30 6z m310 -33 c0 -14 -18 -9 -24 8 -11 28 -6 39
9 20 8 -11 15 -23 15 -28z m-5894 -12 c-3 -14 -11 -26 -17 -26 -7 0 -8 7 -4
18 4 9 7 26 7 36 -1 14 2 16 10 8 6 -6 8 -22 4 -36z m314 34 c0 -5 -9 -10 -20
-10 -11 0 -20 5 -20 10 0 6 9 10 20 10 11 0 20 -4 20 -10z m67 -16 c13 -14 22
-28 20 -30 -8 -9 -37 9 -37 22 0 8 -7 14 -15 14 -8 0 -15 5 -15 10 0 18 22 10
47 -16z m4123 -4 c0 -4 -43 -27 -96 -51 -53 -24 -90 -45 -82 -48 7 -2 36 -15
63 -28 39 -19 44 -23 20 -19 -16 2 -52 14 -79 26 -48 20 -49 21 -30 39 10 10
21 17 22 15 10 -8 98 40 123 67 24 26 32 29 44 19 8 -7 15 -16 15 -20z m831 9
c11 -11 18 -23 15 -26 -9 -9 -57 27 -51 37 9 14 12 13 36 -11z m963 6 c3 -9 0
-15 -9 -15 -8 0 -15 7 -15 15 0 8 4 15 9 15 5 0 11 -7 15 -15z m-3238 -81
c-15 -16 -26 -7 -26 22 0 14 -7 27 -15 30 -8 4 -15 14 -15 23 0 10 12 2 34
-23 25 -30 30 -43 22 -52z m3289 76 c-3 -5 -14 -10 -23 -10 -15 0 -15 2 -2 10
20 13 33 13 25 0z m-830 -19 c-3 -6 -14 -11 -23 -11 -15 1 -15 2 2 15 21 16
32 13 21 -4z m95 -21 c0 -13 -1 -13 -10 0 -5 8 -10 22 -10 30 0 13 1 13 10 0
5 -8 10 -22 10 -30z m-5160 21 c0 -5 -7 -11 -15 -15 -15 -5 -20 5 -8 17 9 10
23 9 23 -2z m4658 -9 c6 -18 -15 -14 -22 4 -4 10 -1 14 6 12 6 -2 14 -10 16
-16z m292 8 c13 -8 12 -10 -4 -10 -11 0 -30 -10 -43 -22 -13 -12 -23 -16 -23
-10 0 6 9 17 20 25 11 8 17 17 13 20 -10 11 20 8 37 -3z m60 -10 c-19 -13 -30
-13 -30 0 0 6 10 10 23 10 18 0 19 -2 7 -10z m445 -9 c-3 -6 -14 -11 -23 -11
-13 0 -13 2 4 14 21 15 30 14 19 -3z m-5421 -7 c9 -23 7 -44 -3 -44 -5 0 -11
14 -13 30 -5 32 6 41 16 14z m2206 6 c0 -5 -12 -10 -27 -10 -22 0 -25 2 -13
10 20 13 40 13 40 0z m3200 -36 c0 -8 -4 -12 -10 -9 -5 3 -10 10 -10 16 0 5 5
9 10 9 6 0 10 -7 10 -16z m-690 -14 c8 -5 11 -12 7 -16 -4 -4 -15 0 -24 9 -18
18 -8 23 17 7z m-930 -5 c0 -6 -56 -35 -67 -35 -14 1 39 40 53 40 8 0 14 -2
14 -5z m1401 -21 c12 -14 11 -16 -5 -13 -11 2 -21 10 -24 17 -5 17 13 15 29
-4z m-5161 -13 c0 -11 6 -21 13 -24 6 -2 9 -8 5 -12 -9 -10 -38 19 -38 39 0 9
5 16 10 16 6 0 10 -9 10 -19z m2568 -17 c-10 -10 -28 6 -28 24 0 15 1 15 17
-1 9 -9 14 -19 11 -23z m1942 25 c0 -6 9 -8 22 -3 21 6 20 5 -5 -25 -15 -18
-27 -39 -27 -47 0 -8 -4 -14 -10 -14 -14 0 -13 37 1 46 8 5 7 9 -1 14 -7 4
-10 15 -7 24 7 18 27 22 27 5z m887 -4 c9 -25 -4 -29 -17 -6 -7 15 -7 21 0 21
6 0 13 -7 17 -15z m-5074 -52 c-3 -27 -9 -64 -13 -83 -7 -31 -8 -28 -9 25 -1
64 7 105 19 105 4 0 5 -21 3 -47z m-218 27 c-3 -5 -10 -10 -16 -10 -5 0 -9 5
-9 10 0 6 7 10 16 10 8 0 12 -4 9 -10z m3255 -26 c0 -24 -4 -34 -12 -31 -7 2
-12 10 -10 16 1 6 -5 11 -13 11 -8 0 -15 5 -15 10 0 6 7 10 15 10 8 0 15 5 15
10 0 6 5 10 10 10 6 0 10 -16 10 -36z m-3310 0 c0 -8 7 -14 15 -14 8 0 15 -5
15 -11 0 -6 -10 -9 -22 -7 -17 2 -24 11 -26 32 -2 18 0 26 7 21 6 -3 11 -13
11 -21z m4540 -15 c0 -12 -43 6 -48 20 -3 9 2 9 22 0 14 -7 26 -16 26 -20z
m855 21 c-3 -5 -12 -10 -20 -10 -8 0 -17 5 -20 10 -4 6 5 10 20 10 15 0 24 -4
20 -10z m479 -15 c-4 -8 -12 -15 -20 -15 -20 0 -17 18 4 23 9 3 18 5 19 6 1 0
0 -6 -3 -14z m-429 -5 c3 -5 -3 -10 -14 -10 -12 0 -21 5 -21 10 0 6 6 10 14
10 8 0 18 -4 21 -10z m55 0 c0 -5 -6 -10 -14 -10 -8 0 -18 5 -21 10 -3 6 3 10
14 10 12 0 21 -4 21 -10z m-1160 -26 c0 -8 -4 -14 -10 -14 -5 0 -10 9 -10 21
0 11 5 17 10 14 6 -3 10 -13 10 -21z m1475 7 c-3 -6 -14 -11 -23 -11 -15 1
-15 2 2 15 21 16 32 13 21 -4z m105 9 c0 -5 -6 -10 -14 -10 -8 0 -18 5 -21 10
-3 6 3 10 14 10 12 0 21 -4 21 -10z m-6123 -19 c3 -13 17 -21 41 -26 46 -8 85
-32 76 -47 -4 -5 0 -14 7 -19 9 -6 10 -12 4 -16 -6 -5 -16 -19 -23 -33 -11
-22 -12 -19 -7 28 5 42 3 54 -10 58 -23 9 -28 0 -29 -51 -1 -25 -6 -45 -11
-45 -17 0 -35 22 -35 43 0 15 -5 18 -22 13 -13 -3 -43 -9 -68 -12 -57 -7 -34
11 28 21 47 8 51 14 22 40 -23 21 -25 36 -8 53 17 17 29 15 35 -7z m5359 -19
c-9 -8 -26 10 -26 26 1 15 2 15 15 -2 8 -11 13 -21 11 -24z m389 18 c-3 -5
-13 -10 -21 -10 -8 0 -14 5 -14 10 0 6 9 10 21 10 11 0 17 -4 14 -10z m-349
-57 c-12 -12 -34 18 -28 39 5 20 6 19 19 -7 8 -15 12 -29 9 -32z m404 47 c0
-5 -6 -10 -14 -10 -8 0 -18 5 -21 10 -3 6 3 10 14 10 12 0 21 -4 21 -10z m164
-14 c-6 -16 -24 -23 -24 -8 0 10 22 33 27 28 2 -2 1 -11 -3 -20z m-3742 -4 c3
-10 -8 -61 -23 -112 -16 -52 -29 -105 -29 -117 0 -24 22 -43 28 -25 2 7 8 12
13 12 4 0 6 -7 3 -15 -4 -8 -2 -15 4 -15 11 0 4 -90 -9 -104 -5 -6 -22 -11
-38 -12 -24 -2 -31 2 -36 24 l-7 27 -14 -35 c-8 -19 -17 -43 -20 -52 -6 -17
-24 -25 -24 -12 0 14 120 395 130 414 9 16 8 18 -5 14 -15 -6 -21 7 -8 19 12
13 31 7 35 -11z m3621 -15 c-3 -4 -11 -3 -19 4 -7 6 -11 15 -8 20 3 5 11 3 18
-4 8 -6 12 -16 9 -20z m-1405 -4 c5 -18 -10 -16 -34 2 -18 15 -18 15 5 13 14
-2 26 -9 29 -15z m1337 6 c4 -5 4 -18 0 -27 -6 -14 -9 -13 -17 8 -6 14 -12 20
-14 14 -3 -6 -16 -9 -29 -6 -14 2 -23 8 -20 12 7 11 73 11 80 -1z m237 -21
c-6 -6 -15 -8 -19 -4 -4 4 -1 11 7 16 8 5 17 7 19 4 3 -2 -1 -10 -7 -16z m-78
-12 c-6 -16 -24 -23 -24 -8 0 10 22 33 27 28 2 -2 1 -11 -3 -20z m-74 -5 c0
-22 -27 -48 -38 -36 -4 4 -1 10 6 12 6 3 12 13 12 24 0 10 5 19 10 19 6 0 10
-8 10 -19z m120 -6 c0 -14 -4 -25 -10 -25 -11 0 -14 33 -3 43 11 11 13 8 13
-18z m-566 -24 c-9 -10 -26 18 -18 30 5 9 9 8 14 -7 4 -10 6 -21 4 -23z
m-2084 9 c0 -5 7 -10 15 -10 13 0 13 -3 3 -20 -7 -11 -18 -20 -24 -20 -13 0
-23 29 -17 48 5 14 23 16 23 2z m2460 1 c0 -5 -7 -11 -14 -14 -10 -4 -13 -1
-9 9 6 15 23 19 23 5z m113 -21 c-4 -15 -8 -17 -23 -8 -22 14 -15 37 9 31 12
-3 17 -11 14 -23z m-4535 10 c6 0 12 -5 12 -10 0 -6 -10 -8 -24 -4 -49 12
-137 -16 -199 -64 l-59 -45 -112 8 c-141 11 -289 12 -296 3 -6 -8 -158 -13
-165 -6 -3 3 30 9 75 12 44 4 80 11 80 15 0 8 164 4 291 -7 105 -9 122 -5 190
46 53 39 131 65 174 56 11 -2 26 -4 33 -4z m-841 -50 c-10 -49 -27 -69 -27
-30 0 25 -28 26 -46 3 -7 -10 -14 -21 -14 -24 0 -9 51 -30 60 -24 4 3 10 -2
14 -10 8 -22 -11 -28 -36 -11 -34 24 -41 19 -17 -14 12 -16 26 -27 31 -24 5 4
8 -7 6 -22 -5 -45 -33 -42 -58 5 -16 32 -26 41 -46 41 -30 0 -64 16 -64 31 0
6 9 8 20 4 14 -5 20 -2 20 9 0 9 -9 16 -20 16 -15 0 -22 -9 -26 -30 -7 -35
-10 -35 -65 -14 -35 14 -42 15 -50 3 -6 -10 -2 -15 16 -17 14 -2 25 -7 25 -11
0 -13 -51 -20 -100 -13 -25 4 -96 6 -157 4 l-113 -3 0 -45 c0 -37 -3 -44 -19
-44 -16 0 -21 -9 -27 -45 -3 -25 -11 -45 -16 -45 -6 0 -8 10 -4 23 3 12 6 35
6 50 0 20 6 30 20 34 16 4 20 14 20 43 l0 38 67 8 c36 3 108 7 159 8 81 0 93
3 98 19 2 10 -4 27 -15 38 -20 20 -25 39 -10 39 5 0 11 -7 15 -15 5 -13 106
-65 126 -65 5 0 11 27 15 60 4 36 11 57 17 54 5 -4 8 -17 5 -30 -3 -20 0 -24
21 -24 21 0 24 4 19 26 -4 24 -2 26 29 22 22 -3 34 0 34 8 0 8 13 10 40 7 26
-4 40 -2 40 6 0 6 4 11 9 11 4 0 4 -22 -2 -50z m4763 40 c0 -5 -4 -10 -9 -10
-6 0 -13 5 -16 10 -3 6 1 10 9 10 9 0 16 -4 16 -10z m157 -17 c-3 -26 -37 -47
-37 -24 0 6 5 11 10 11 6 0 10 9 10 20 0 11 5 20 10 20 6 0 9 -12 7 -27z m523
-9 c0 -3 -8 0 -17 7 -15 12 -16 12 -10 -3 4 -12 2 -18 -8 -18 -18 0 -20 21 -4
37 9 9 15 8 25 -2 8 -7 14 -17 14 -21z m-640 16 c-20 -13 -33 -13 -25 0 3 6
14 10 23 10 15 0 15 -2 2 -10z m158 -13 c0 -13 -7 -24 -14 -24 -17 0 -18 34
-1 40 6 3 13 6 13 6 1 1 2 -9 2 -22z m-5773 3 c3 -5 -3 -10 -15 -10 -12 0 -18
5 -15 10 3 6 10 10 15 10 5 0 12 -4 15 -10z m4899 -6 c9 -24 7 -28 -9 -14 -17
14 -20 30 -6 30 5 0 12 -7 15 -16z m81 -14 c-5 -16 -10 -19 -18 -11 -7 7 -6
15 3 26 17 20 24 13 15 -15z m690 20 c3 -5 -1 -10 -9 -10 -8 0 -18 5 -21 10
-3 6 1 10 9 10 8 0 18 -4 21 -10z m480 1 c3 -5 1 -12 -5 -16 -5 -3 -10 -15
-10 -26 0 -10 -3 -18 -7 -16 -5 1 -9 -2 -10 -8 -1 -5 5 -9 14 -7 9 2 13 -2 10
-10 -2 -7 -13 -12 -23 -11 -10 1 -22 -3 -25 -9 -4 -6 -12 -8 -18 -4 -12 8 6
56 22 56 5 0 1 12 -8 27 -15 23 -15 25 -2 20 9 -3 19 -2 22 3 8 13 32 13 40 1z
m-6390 -11 c3 -5 -1 -10 -9 -10 -8 0 -18 5 -21 10 -3 6 1 10 9 10 8 0 18 -4
21 -10z m185 0 c0 -5 -9 -10 -20 -10 -11 0 -20 5 -20 10 0 6 9 10 20 10 11 0
20 -4 20 -10z m110 -11 c11 -19 10 -20 -9 -9 -12 6 -21 15 -21 20 0 18 19 11
30 -11z m3809 -26 c2 -2 1 -6 -2 -10 -8 -8 -57 36 -57 50 0 6 12 0 28 -14 15
-13 29 -25 31 -26z m2081 37 c0 -5 -9 -10 -21 -10 -11 0 -17 5 -14 10 3 6 13
10 21 10 8 0 14 -4 14 -10z m-6060 -10 c0 -5 -9 -10 -20 -10 -11 0 -20 5 -20
10 0 6 9 10 20 10 11 0 20 -4 20 -10z m610 -5 c0 -8 -4 -15 -10 -15 -5 0 -7 7
-4 15 4 8 8 15 10 15 2 0 4 -7 4 -15z m5408 -5 c11 -18 10 -20 -13 -20 -27 0
-28 1 -19 24 8 21 17 20 32 -4z m-6078 0 c0 -13 -11 -13 -30 0 -12 8 -11 10 8
10 12 0 22 -4 22 -10z m3768 -6 c-5 -25 -35 -41 -49 -27 -18 18 -3 43 26 43
19 0 26 -5 23 -16z m1262 -10 c0 -8 -4 -14 -10 -14 -5 0 -10 9 -10 21 0 11 5
17 10 14 6 -3 10 -13 10 -21z m1315 -32 c-13 -13 -23 22 -12 42 11 20 12 20
15 -7 2 -16 1 -32 -3 -35z m-6569 12 c-11 -7 -22 -11 -25 -8 -3 3 3 12 13 20
11 7 22 11 25 8 3 -3 -3 -12 -13 -20z m5328 10 c9 -24 7 -28 -9 -14 -17 14
-20 30 -6 30 5 0 12 -7 15 -16z m886 7 c0 -5 10 -7 23 -4 16 4 19 3 11 -6 -6
-7 -23 -9 -42 -5 -35 7 -44 24 -12 24 11 0 20 -4 20 -9z m-6147 -8 c-7 -2 -19
-2 -25 0 -7 3 -2 5 12 5 14 0 19 -2 13 -5z m5331 -9 c9 -22 -3 -32 -14 -14
-12 19 -12 30 -1 30 5 0 12 -7 15 -16z m1220 10 c13 -5 13 -8 1 -20 -19 -19
-25 -18 -25 6 0 22 1 23 24 14z m-308 -43 c-12 -19 -22 -12 -24 16 -2 25 -1
26 14 11 9 -9 13 -21 10 -27z m-1096 3 c0 -8 -4 -14 -10 -14 -5 0 -10 9 -10
21 0 11 5 17 10 14 6 -3 10 -13 10 -21z m50 9 c0 -5 -5 -15 -10 -23 -8 -12
-10 -11 -10 8 0 12 5 22 10 22 6 0 10 -3 10 -7z m100 -43 c0 -16 -5 -32 -11
-35 -15 -10 -17 -4 -11 37 5 43 22 41 22 -2z m844 24 c5 -12 2 -15 -10 -10 -8
3 -18 6 -20 6 -3 0 -2 5 1 10 9 15 22 12 29 -6z m52 1 c-21 -16 -32 -13 -21 4
3 6 14 11 23 11 15 -1 15 -2 -2 -15z m124 -10 c0 -7 10 -16 23 -18 l22 -4 -23
-2 c-12 0 -25 5 -28 13 -3 8 -15 11 -30 8 -15 -3 -24 0 -24 8 0 7 8 10 20 7
11 -3 20 -1 20 5 0 5 5 6 10 3 6 -3 10 -12 10 -20z m-954 -22 c-4 -4 -11 -1
-16 7 -16 25 -11 35 7 17 9 -9 13 -20 9 -24z m1054 7 c0 -5 -9 -10 -20 -10
-11 0 -20 5 -20 10 0 6 9 10 20 10 11 0 20 -4 20 -10z m1250 -16 c0 -8 -4 -14
-9 -14 -11 0 -22 26 -14 34 9 9 23 -3 23 -20z m-4556 10 c11 -4 13 -12 6 -29
-5 -13 -6 -26 -3 -29 4 -3 -1 -6 -10 -6 -22 0 -31 18 -17 35 6 8 9 19 5 25 -7
11 -3 12 19 4z m4516 1 c0 -2 -9 -9 -20 -15 -16 -9 -20 -8 -20 5 0 8 9 15 20
15 11 0 20 -2 20 -5z m145 -5 c3 -5 -3 -10 -14 -10 -12 0 -21 5 -21 10 0 6 6
10 14 10 8 0 18 -4 21 -10z m-6819 -43 c8 -4 14 -13 14 -19 0 -7 11 -23 24
-37 25 -26 50 -131 29 -118 -6 4 -13 24 -17 45 -3 22 -13 45 -22 53 -9 7 -21
25 -27 39 l-10 25 -7 -30 c-4 -16 -8 -60 -9 -97 0 -37 -6 -70 -12 -73 -7 -5
-9 28 -4 111 7 124 14 166 23 129 2 -11 10 -24 18 -28z m4248 28 c3 -8 1 -15
-3 -15 -5 0 -11 7 -15 15 -3 8 -1 15 3 15 5 0 11 -7 15 -15z m2372 6 c-8 -12
-46 -21 -46 -11 0 9 18 18 38 19 7 1 11 -3 8 -8z m139 -10 c-3 -6 -14 -11 -23
-11 -15 1 -15 2 2 15 21 16 32 13 21 -4z m-2310 -29 c-8 -9 -35 20 -28 31 4 6
11 3 19 -8 8 -10 12 -21 9 -23z m2425 28 c0 -5 -9 -10 -20 -10 -11 0 -20 5
-20 10 0 6 9 10 20 10 11 0 20 -4 20 -10z m-6527 -47 c59 -18 107 -37 107 -42
0 -4 -57 9 -127 31 -71 21 -134 38 -140 38 -7 0 -13 5 -13 11 0 14 34 6 173
-38z m4061 -15 l35 -52 -22 -39 c-43 -77 -91 -122 -146 -136 -37 -9 -51 -18
-51 -30 0 -28 8 -30 62 -12 62 19 137 84 163 140 16 36 36 55 35 34 -3 -50
-140 -193 -185 -193 -12 0 -26 -5 -33 -12 -6 -6 -35 -13 -63 -14 -28 -1 -54
-6 -58 -11 -3 -4 -31 -9 -61 -11 -30 -1 -80 -10 -110 -19 -30 -10 -61 -17 -67
-16 -7 0 -13 -4 -13 -10 0 -13 -31 -36 -48 -37 -7 0 -20 -7 -28 -15 -9 -8 -24
-15 -34 -15 -10 0 -20 -7 -24 -15 -3 -8 -15 -15 -26 -15 -11 0 -20 -4 -20 -8
0 -5 -17 -18 -38 -30 -21 -11 -51 -36 -67 -54 -63 -69 -176 -240 -197 -295
-12 -32 -32 -74 -44 -93 -34 -53 -104 -224 -104 -254 0 -36 -30 -108 -55 -128
-11 -10 -47 -33 -80 -52 -33 -19 -68 -43 -78 -54 -17 -19 -16 -20 17 -50 25
-22 33 -36 29 -51 -3 -12 -10 -21 -15 -21 -6 0 -8 10 -5 21 6 23 -13 49 -36
49 -7 0 -18 -15 -24 -33 -13 -42 -5 -97 13 -97 16 0 17 -9 5 -29 -8 -13 -12
-13 -27 -1 -14 13 -16 27 -10 102 3 51 2 88 -3 88 -17 0 -32 -70 -30 -137 3
-75 -16 -184 -39 -223 -9 -16 -1 -10 22 14 20 22 36 34 36 26 0 -12 -37 -61
-80 -105 -35 -36 -49 -86 -43 -152 4 -39 11 -64 19 -67 9 -3 14 2 14 14 0 29
12 25 32 -10 16 -29 16 -30 -2 -30 -15 0 -20 -7 -20 -26 0 -14 -4 -23 -10 -19
-6 3 -7 17 -4 31 4 14 2 24 -5 24 -6 0 -11 -3 -11 -7 -1 -5 -7 -73 -14 -153
-8 -80 -12 -147 -10 -149 2 -2 4 3 4 12 0 20 11 22 28 5 23 -23 14 -38 -20
-31 -18 3 -33 6 -34 7 0 1 5 62 12 136 17 178 17 173 -5 187 -18 11 -20 7 -36
-60 -26 -110 -25 -109 -43 -102 -8 3 -19 0 -24 -7 -12 -20 -10 -28 7 -22 19 8
20 -13 1 -31 -12 -12 -15 -12 -20 0 -3 8 -12 15 -21 15 -8 0 -15 5 -15 10 0 6
4 10 9 10 5 0 16 13 24 29 13 25 13 31 1 35 -28 11 -13 25 19 19 l33 -5 13 57
c7 31 11 57 9 58 -32 17 -43 27 -46 43 -3 18 -2 18 11 2 22 -28 45 -22 52 15
4 17 9 40 11 50 6 21 -12 22 -32 2 -9 -8 -20 -15 -25 -15 -17 0 -9 20 12 32
12 7 29 30 39 51 10 22 21 34 24 28 13 -21 26 -10 54 47 44 87 55 148 47 260
-4 56 -3 107 3 122 5 14 11 30 13 35 13 38 136 124 158 110 15 -9 50 26 56 55
7 31 25 51 25 27 0 -41 -24 -79 -64 -99 -66 -34 -126 -78 -126 -93 0 -19 16
-19 23 -1 3 8 37 33 75 55 38 23 78 51 90 64 21 23 42 86 63 192 6 32 18 69
25 80 8 12 16 35 17 51 5 39 42 109 86 163 34 41 34 44 16 57 -17 13 -20 11
-31 -15 -7 -16 -28 -47 -48 -68 -48 -54 -95 -173 -101 -258 -4 -61 -6 -66 -16
-59 -9 5 -10 -1 -5 -20 6 -25 4 -27 -16 -24 -13 2 -22 9 -20 17 2 8 -1 17 -5
20 -4 3 -14 23 -21 44 -13 35 -12 39 12 68 14 17 26 34 26 38 0 18 43 62 50
52 3 -7 11 4 17 23 10 31 9 36 -8 41 -11 4 -19 16 -19 27 0 17 4 20 29 15 24
-5 31 -2 36 13 8 25 -1 41 -19 34 -23 -9 -25 9 -6 51 11 22 19 48 20 59 0 13
3 16 13 9 6 -6 26 -15 42 -20 29 -10 31 -8 61 44 56 97 178 218 276 275 49 28
91 55 94 59 3 5 13 9 23 9 10 0 43 11 72 24 30 13 141 45 247 72 144 35 201
54 226 73 37 29 86 99 86 124 0 8 -16 36 -35 61 -24 31 -30 46 -20 46 8 0 30
-23 49 -52z m-3849 13 c-4 -13 -15 -21 -30 -21 -15 0 -25 -8 -30 -22 -8 -22
-8 -22 -12 5 -3 22 -11 29 -36 34 -27 6 -28 7 -10 14 12 4 38 3 58 -4 32 -9
38 -9 47 7 13 23 22 14 13 -13z m6330 8 c11 -17 -1 -21 -15 -4 -8 9 -8 15 -2
15 6 0 14 -5 17 -11z m-2415 -20 c0 -11 -4 -17 -10 -14 -5 3 -10 13 -10 21 0
8 5 14 10 14 6 0 10 -9 10 -21z m-4296 3 c8 -13 -5 -82 -15 -82 -5 0 -8 20 -7
45 1 42 10 56 22 37z m3996 -12 c0 -5 -4 -10 -10 -10 -5 0 -10 5 -10 10 0 6 5
10 10 10 6 0 10 -4 10 -10z m-940 -35 c0 -9 -7 -18 -15 -21 -8 -4 -15 -16 -15
-29 0 -18 -4 -22 -21 -18 -12 4 -18 11 -15 20 3 8 6 20 6 26 0 7 10 17 23 23
31 16 37 16 37 -1z m-2500 -20 c0 -14 -4 -25 -10 -25 -11 0 -14 33 -3 43 11
11 13 8 13 -18z m3750 5 c0 -11 -4 -20 -10 -20 -5 0 -10 9 -10 20 0 11 5 20
10 20 6 0 10 -9 10 -20z m-5120 -25 c0 -14 -4 -25 -10 -25 -5 0 -10 11 -10 25
0 14 5 25 10 25 6 0 10 -11 10 -25z m645 6 c3 -5 1 -12 -5 -16 -5 -3 -10 1
-10 9 0 18 6 21 15 7z m132 -17 c-3 -3 -12 -4 -19 -1 -8 3 -5 6 6 6 11 1 17
-2 13 -5z m23 -34 c0 -22 -4 -40 -10 -40 -11 0 -13 39 -4 64 10 26 14 19 14
-24z m2376 -15 c-9 -19 -13 -21 -31 -11 -11 6 -21 12 -23 13 -2 0 2 10 9 21
10 16 17 18 34 10 19 -8 21 -13 11 -33z m-912 1 c-4 -11 -7 -30 -7 -41 1 -11
-1 -14 -4 -7 -3 6 -14 12 -25 12 -14 0 -18 5 -14 16 3 9 6 21 6 27 0 7 11 13
25 13 22 2 25 -1 19 -20z m-2148 -23 c-10 -10 -19 5 -10 18 6 11 8 11 12 0 2
-7 1 -15 -2 -18z m2244 -33 c-6 -11 -10 -23 -9 -27 3 -19 -2 -33 -12 -33 -11
0 -5 63 8 83 10 17 23 -5 13 -23z m-1095 0 c-3 -5 -17 -10 -31 -10 -13 0 -24
5 -24 10 0 6 14 10 31 10 17 0 28 -4 24 -10z m-489 -89 l-7 -58 111 -13 c60
-6 122 -15 137 -20 27 -8 27 -8 -7 -9 -19 0 -81 6 -137 13 -57 7 -103 9 -103
6 0 -4 -3 -22 -6 -39 -6 -30 -5 -31 28 -31 18 0 58 -7 88 -15 30 -8 103 -27
162 -42 l107 -27 182 17 c116 12 189 23 204 33 27 17 45 56 44 92 0 15 -3 21
-6 15 -8 -22 -25 -14 -21 10 2 12 9 21 16 19 8 -1 11 2 8 6 -3 5 -16 7 -30 5
-28 -6 -44 13 -26 30 10 9 14 9 17 -1 3 -6 9 -10 14 -6 14 8 1 24 -21 24 -10
0 -20 7 -24 15 -9 24 19 18 53 -11 30 -25 44 -21 19 5 -11 10 -10 11 4 6 9 -4
19 -17 22 -30 3 -13 9 -31 12 -42 5 -15 4 -16 -6 -3 -9 12 -10 9 -5 -15 7 -36
-23 -104 -59 -132 -34 -27 -360 -60 -438 -44 -29 6 -62 12 -73 14 -11 2 -45
11 -75 19 -30 9 -69 19 -86 22 l-32 5 -6 -59 c-6 -49 -11 -60 -29 -66 -29 -9
-37 -22 -37 -61 0 -18 -4 -33 -10 -33 -16 0 -12 63 6 88 8 12 21 22 29 22 13
0 22 28 28 90 2 23 -2 25 -40 28 -34 2 -42 0 -37 -11 4 -11 -4 -14 -33 -13
-30 1 -44 -5 -65 -27 -32 -33 -33 -37 -14 -37 22 0 24 -19 6 -56 -17 -38 -22
-40 -46 -17 -11 11 -13 18 -5 21 14 5 14 32 0 32 -8 0 -8 4 0 14 8 10 9 16 1
21 -33 20 16 123 65 137 14 3 25 3 25 -2 0 -4 8 -10 18 -14 9 -3 22 -8 28 -11
8 -4 16 23 24 77 13 94 19 118 27 118 3 0 3 -26 -1 -59z m509 10 c4 -28 13
-52 21 -55 8 -3 14 -10 14 -16 0 -12 -39 7 -96 45 -35 23 -39 24 -61 10 -28
-19 -31 -5 -3 20 19 18 21 17 71 -14 49 -30 51 -31 36 -8 -15 24 -13 67 3 67
5 0 11 -22 15 -49z m-220 29 c3 -6 -4 -10 -18 -10 -14 0 -39 -3 -56 -6 -19 -4
-31 -2 -31 4 0 6 19 13 43 15 23 2 45 4 49 5 4 1 10 -2 13 -8z m2684 -11 c-16
-10 -15 -11 39 -38 23 -12 42 -17 42 -12 0 5 9 7 20 4 12 -3 19 -11 17 -17 -2
-6 44 -37 102 -69 104 -57 147 -87 124 -87 -7 0 -33 13 -60 29 -26 16 -114 63
-195 105 -82 43 -148 82 -148 87 0 6 8 5 21 -2 13 -6 19 -7 15 -1 -3 6 0 12 6
15 19 7 32 -4 17 -14z m-3489 4 c0 -5 -5 -15 -10 -23 -8 -12 -10 -11 -10 8 0
12 5 22 10 22 6 0 10 -3 10 -7z m3728 -43 c32 -19 55 -27 70 -23 28 7 29 -13
2 -22 -20 -6 -140 51 -140 67 0 14 19 8 68 -22z m-3712 -36 c-4 -18 -11 -34
-16 -34 -9 0 -5 47 7 80 9 26 16 -8 9 -46z m1608 39 c2 -10 7 -28 11 -40 5
-19 3 -23 -18 -23 -18 0 -26 6 -29 23 -6 32 2 57 17 57 8 0 16 -8 19 -17z
m416 -95 c-12 -40 -26 -77 -31 -82 -15 -17 -10 12 18 103 33 103 44 84 13 -21z
m-2650 79 c0 -5 6 -4 14 2 11 9 15 8 20 -5 4 -10 3 -20 -1 -23 -5 -3 -14 -17
-21 -31 l-12 -25 3 27 4 27 -28 -20 c-33 -23 -43 -13 -28 29 7 21 17 30 30 29
10 -1 19 -5 19 -10z m691 -27 c23 -13 24 -20 4 -46 -15 -18 -16 -18 -13 5 4
32 -16 38 -30 9 -8 -17 -11 -19 -11 -6 -1 23 9 48 21 48 5 0 18 -5 29 -10z
m3419 -32 c-11 -22 -10 -22 4 -4 9 11 16 23 16 28 0 17 18 7 23 -12 3 -11 0
-20 -6 -20 -7 0 -23 -12 -37 -27 -24 -25 -25 -25 -28 -5 -4 24 29 93 35 75 2
-7 -1 -22 -7 -35z m-1344 24 c7 -4 8 -15 3 -29 -11 -31 -38 -20 -31 13 5 25
10 28 28 16z m-1676 -14 c0 -7 -5 -20 -10 -28 -8 -12 -10 -9 -10 13 0 15 5 27
10 27 6 0 10 -6 10 -12z m2255 1 c11 -17 0 -20 -21 -4 -17 13 -17 14 -2 15 9
0 20 -5 23 -11z m1176 -39 c22 -12 37 -25 34 -30 -5 -8 -95 36 -95 46 0 9 23
3 61 -16z m-3740 -77 c67 -36 91 -54 96 -73 8 -30 -13 -230 -25 -242 -5 -5
-36 -8 -68 -6 l-59 3 -27 130 c-15 72 -26 135 -23 142 2 8 15 9 42 3 21 -4 61
-11 88 -14 l50 -7 -82 46 c-73 41 -106 65 -88 65 3 0 46 -21 96 -47z m-168
-108 c-45 -190 -53 -226 -53 -230 0 -2 39 -29 86 -60 61 -40 88 -64 96 -85 10
-31 26 -38 45 -19 8 8 17 6 33 -9 12 -11 35 -26 51 -32 16 -7 29 -16 29 -21 0
-5 -2 -9 -4 -9 -9 0 -72 29 -79 37 -5 4 -24 8 -42 8 l-34 0 -46 -120 c-118
-313 -111 -297 -149 -319 -26 -16 -41 -35 -57 -74 -16 -39 -32 -60 -60 -78
-43 -27 -45 -32 -27 -80 9 -24 8 -46 -2 -93 -7 -34 -17 -64 -23 -68 -6 -4 -7
8 -1 33 13 60 11 143 -4 153 -19 11 0 40 45 69 23 15 43 42 59 77 16 37 33 59
53 70 34 17 41 28 74 116 13 35 47 125 76 199 30 79 50 144 47 156 -7 26 -130
109 -147 98 -8 -4 -9 -3 -5 4 4 6 -5 17 -22 26 -16 8 -35 22 -42 31 -12 14
-11 16 12 10 24 -6 26 -4 41 67 44 207 52 237 58 221 3 -10 0 -45 -8 -78z
m1988 42 c-8 -8 -11 -5 -11 9 0 27 14 41 18 19 2 -9 -1 -22 -7 -28z m1539 13
c0 -5 -5 -10 -11 -10 -5 0 -7 5 -4 10 3 6 8 10 11 10 2 0 4 -4 4 -10z m-2770
-13 c0 -2 -7 -54 -15 -117 -8 -62 -14 -114 -12 -114 28 -9 129 -68 169 -98 29
-22 74 -50 99 -63 64 -33 102 -67 159 -143 52 -69 137 -132 225 -169 46 -18
63 -40 23 -27 -95 29 -200 105 -266 192 -35 45 -77 87 -102 102 -23 14 -85 53
-136 88 -52 34 -98 62 -103 62 -5 0 -14 6 -20 14 -7 8 -27 17 -46 20 -30 6
-33 9 -26 29 5 12 14 68 21 125 7 56 16 102 21 102 5 0 9 -1 9 -3z m3037 -5
c17 -11 -10 -44 -31 -36 -18 7 -18 7 -10 28 7 17 22 20 41 8z m-1155 -79 c4
-48 -9 -72 -38 -73 -19 0 -14 78 5 83 29 8 31 7 33 -10z m-464 -37 c-4 -19 0
-26 16 -30 20 -6 20 -7 4 -20 -10 -7 -18 -20 -18 -29 0 -9 -4 -19 -10 -22 -6
-4 -10 5 -10 20 0 18 -6 29 -20 32 -11 3 -20 9 -20 14 0 5 9 9 20 9 13 0 20 7
20 18 0 18 8 32 18 32 2 0 2 -11 0 -24z m-705 -37 c34 -11 66 -25 72 -30 14
-14 -13 -11 -38 5 -12 8 -43 17 -70 21 -26 3 -45 10 -42 16 8 12 6 12 78 -12z
m2818 -39 c4 -18 5 -39 2 -47 -8 -20 -37 -33 -53 -23 -11 7 -12 11 0 24 11 14
10 16 -4 10 -10 -4 -16 -1 -16 8 0 7 -14 22 -32 33 -18 10 -27 20 -21 22 7 3
23 -3 37 -13 17 -10 26 -12 26 -5 0 7 5 9 10 6 6 -3 13 1 16 10 10 25 28 12
35 -25z m-4910 -13 c-8 -8 -11 -5 -11 9 0 27 14 41 18 19 2 -9 -1 -22 -7 -28z
m2227 36 c-10 -2 -28 -2 -40 0 -13 2 -5 4 17 4 22 1 32 -1 23 -4z m-1075 -15
c53 -30 88 -78 57 -78 -5 0 -10 -7 -10 -15 0 -8 7 -15 15 -15 8 0 15 6 15 14
0 19 14 28 34 20 11 -4 14 -13 10 -29 -5 -21 -2 -23 30 -22 19 0 37 -1 39 -4
3 -2 0 -37 -6 -76 -12 -89 -33 -100 -24 -13 l7 60 -40 0 c-23 0 -55 6 -73 13
-18 8 -38 12 -44 10 -7 -3 -13 2 -13 11 0 15 -6 17 -52 20 -25 1 -51 42 -43
67 4 12 19 22 36 26 16 3 29 9 29 14 0 12 6 11 33 -3z m1157 -8 c0 -5 -7 -7
-15 -4 -8 4 -15 8 -15 10 0 2 7 4 15 4 8 0 15 -4 15 -10z m-2310 -60 c0 -11
-4 -20 -10 -20 -5 0 -10 9 -10 20 0 11 5 20 10 20 6 0 10 -9 10 -20z m10 -61
c0 -11 -4 -17 -10 -14 -5 3 -10 15 -10 26 0 11 5 17 10 14 6 -3 10 -15 10 -26z
m1980 -29 c11 -7 6 -10 -20 -10 -30 0 -45 -10 -99 -64 -70 -71 -71 -67 9 -79
14 -3 -3 -5 -37 -6 -47 -1 -63 2 -63 13 0 7 34 46 75 85 74 70 101 83 135 61z
m-1970 -10 c0 -5 -5 -10 -11 -10 -5 0 -7 5 -4 10 3 6 8 10 11 10 2 0 4 -4 4
-10z m2640 -101 c0 -17 -4 -28 -10 -24 -5 3 -10 17 -10 31 0 13 5 24 10 24 6
0 10 -14 10 -31z m-1454 -217 c174 -110 224 -143 224 -149 0 -5 -27 11 -75 44
-11 7 -26 13 -34 13 -14 0 -271 167 -271 176 0 12 28 -3 156 -84z m2510 64
c10 -8 16 -17 13 -20 -3 -4 -17 2 -30 13 -27 23 -13 28 17 7z m-1526 -51 c0
-30 4 -55 9 -55 4 0 20 -11 35 -25 24 -22 25 -27 14 -47 l-13 -23 -3 23 c-2
13 -10 26 -18 29 -8 3 -11 9 -8 14 3 5 1 9 -4 9 -10 0 -34 -115 -34 -165 0
-19 -4 -35 -8 -35 -14 0 -17 22 -7 69 4 25 11 94 14 154 5 110 23 150 23 52z
m1470 26 c0 -5 -6 -14 -14 -20 -16 -13 -32 2 -21 19 8 12 35 13 35 1z m780
-81 c0 -14 -14 -12 -28 2 -19 19 -14 30 8 18 11 -6 20 -15 20 -20z m-753 -2
c-3 -8 -6 -5 -6 6 -1 11 2 17 5 13 3 -3 4 -12 1 -19z m650 -2 c-4 -9 1 -17 11
-19 9 -3 4 -5 -12 -6 -21 -1 -27 3 -23 13 4 9 -1 17 -11 19 -9 3 -4 5 12 6 21
1 27 -3 23 -13z m-2653 -266 c5 -5 -7 -3 -25 3 -52 19 -147 80 -152 99 -3 11
24 -2 82 -39 47 -30 90 -59 95 -63z m2102 63 c-12 -43 -29 -109 -30 -123 -2
-8 -5 -22 -9 -30 -3 -8 -13 -41 -22 -72 -9 -32 -21 -58 -26 -58 -6 0 -8 8 -5
18 3 9 19 71 36 137 18 66 34 126 36 133 2 6 8 12 14 12 6 0 9 -8 6 -17z
m1100 -33 c10 -16 30 -34 45 -40 15 -7 30 -18 33 -26 3 -8 13 -14 23 -14 47
-1 71 -60 36 -86 -16 -11 -16 -13 10 -25 20 -9 27 -19 27 -41 0 -17 -4 -27
-10 -23 -5 3 -10 14 -10 24 0 10 -14 24 -32 32 l-32 15 23 23 c29 29 24 55
-13 59 -18 2 -30 11 -33 23 -3 10 -12 19 -19 19 -8 0 -34 20 -60 45 -37 36
-41 45 -25 45 11 0 27 -12 37 -30z m-2978 -171 c28 -17 52 -33 52 -35 0 -9
-53 18 -102 52 -64 45 -87 66 -38 35 19 -12 59 -36 88 -52z m3333 -196 c10 6
22 8 26 4 10 -11 -18 -28 -42 -25 -11 1 -26 -1 -32 -5 -16 -10 -17 5 -1 21 7
7 16 8 21 3 6 -6 17 -5 28 2z m-3151 -10 c0 -12 -141 -64 -152 -57 -6 4 20 19
58 34 73 30 94 35 94 23z m2105 -13 c3 -11 15 -20 26 -20 10 0 19 -3 19 -8 0
-4 -27 -7 -60 -7 -33 0 -60 2 -60 5 0 3 3 15 6 28 8 30 60 31 69 2z m-2669
-155 c18 -49 16 -59 -9 -49 -10 3 -16 16 -15 32 1 15 -2 35 -6 45 -5 10 -4 17
2 17 6 0 18 -20 28 -45z m-38 -60 c7 -14 12 -29 12 -33 -1 -10 -40 38 -40 49
0 18 17 8 28 -16z m-74 -61 c9 -22 -3 -32 -14 -14 -12 19 -12 30 -1 30 5 0 12
-7 15 -16z m-1081 -101 c26 -163 45 -223 74 -234 45 -17 118 -11 138 11 10 11
24 20 32 20 7 0 26 13 41 30 20 23 43 33 92 44 36 7 109 35 164 61 90 42 104
46 160 43 45 -2 64 1 73 12 11 13 12 13 13 0 0 -10 32 -32 81 -55 100 -49 151
-101 173 -178 9 -30 16 -61 16 -68 0 -26 -18 7 -34 62 -32 113 -158 192 -326
206 -51 4 -66 0 -164 -46 -60 -28 -122 -51 -138 -51 -42 0 -99 -27 -105 -49
-3 -11 -17 -21 -35 -25 -19 -4 -32 -13 -35 -27 -6 -20 -11 -21 -80 -16 -40 3
-73 2 -73 -1 0 -4 9 -22 20 -39 26 -43 19 -56 -35 -72 -25 -7 -45 -17 -45 -22
0 -5 -4 -9 -10 -9 -23 0 -7 27 23 38 58 22 61 25 46 66 -7 20 -16 36 -20 36
-5 0 -1 -16 7 -35 9 -21 10 -35 4 -35 -6 0 -13 14 -17 30 -6 33 -15 35 -60 20
-25 -9 -40 -7 -89 15 -69 30 -177 47 -231 35 -54 -13 -64 1 -11 15 57 14 181
-3 250 -34 39 -18 54 -20 88 -12 23 5 44 12 47 15 3 3 -2 29 -11 59 -14 45
-56 261 -56 288 0 5 4 9 8 9 4 0 16 -48 25 -107z m1561 -5 c-63 -147 -66 -153
-70 -142 -3 6 9 42 25 80 16 38 36 86 44 107 9 20 21 37 26 37 6 0 -6 -37 -25
-82z m2041 56 c8 3 15 2 15 -2 0 -4 -13 -13 -30 -19 -28 -11 -30 -10 -30 14 0
21 2 23 15 13 8 -7 22 -10 30 -6z m-269 -98 c-29 -94 -33 -131 -13 -123 7 3
21 -1 32 -9 17 -13 14 -14 -33 -14 -49 0 -51 1 -43 23 5 12 21 63 36 112 34
117 36 123 42 108 2 -7 -7 -50 -21 -97z m234 40 c0 -8 -4 -18 -10 -21 -5 -3
-10 3 -10 14 0 12 5 21 10 21 6 0 10 -6 10 -14z m-10 -72 c0 -8 -4 -14 -10
-14 -5 0 -10 9 -10 21 0 11 5 17 10 14 6 -3 10 -13 10 -21z m17 -49 c9 -25 -4
-29 -17 -6 -7 15 -7 21 0 21 6 0 13 -7 17 -15z m-2803 -30 c11 -8 17 -18 13
-21 -4 -4 -13 -2 -21 5 -17 14 -66 -5 -66 -26 0 -7 -6 -13 -14 -13 -20 0 2 44
29 57 28 15 37 14 59 -2z m2844 -24 c3 -8 -1 -12 -9 -9 -7 2 -15 10 -17 17 -3
8 1 12 9 9 7 -2 15 -10 17 -17z m-3603 -11 c3 -5 -3 -10 -14 -10 -12 0 -21 5
-21 10 0 6 6 10 14 10 8 0 18 -4 21 -10z m767 -40 c-49 -46 -91 -70 -63 -36 7
8 9 26 6 43 -6 26 -5 27 9 9 15 -18 16 -18 46 8 56 46 57 27 2 -24z m-827 30
c-3 -5 -12 -10 -20 -10 -8 0 -17 5 -20 10 -4 6 5 10 20 10 15 0 24 -4 20 -10z
m3435 -10 c0 -5 -4 -10 -9 -10 -6 0 -13 5 -16 10 -3 6 1 10 9 10 9 0 16 -4 16
-10z m177 -12 c12 1 24 -2 27 -7 9 -14 -34 -21 -60 -9 -27 13 -33 34 -6 23 9
-4 27 -7 39 -7z m-377 -58 c7 -17 19 -34 28 -39 17 -10 8 -31 -15 -31 -10 0
-14 6 -10 20 4 16 1 18 -24 13 -32 -6 -35 2 -17 42 15 33 23 32 38 -5z m330
15 c-7 -8 -17 -15 -22 -15 -6 0 -5 7 2 15 7 8 17 15 22 15 6 0 5 -7 -2 -15z
m74 -1 c9 -24 7 -28 -9 -14 -17 14 -20 30 -6 30 5 0 12 -7 15 -16z m46 -16 c0
-6 -7 -5 -15 2 -8 7 -15 17 -15 22 0 6 7 5 15 -2 8 -7 15 -17 15 -22z m-164
-37 c-15 -17 -15 -19 -1 -25 9 -3 26 -6 36 -6 12 0 17 -4 13 -11 -3 -6 -17 -9
-30 -6 -27 5 -33 -6 -26 -51 3 -26 8 -31 23 -27 11 4 19 2 19 -4 0 -6 -3 -11
-7 -11 -5 0 -18 -3 -30 -6 -19 -5 -24 0 -37 47 -21 69 -21 66 15 100 34 32 54
32 25 0z m144 10 c0 -5 8 -17 17 -27 12 -11 14 -19 6 -21 -6 -2 -9 -13 -6 -23
3 -11 1 -20 -5 -20 -5 0 -12 15 -14 33 -3 17 -8 40 -13 50 -4 10 -3 17 4 17 6
0 11 -4 11 -9z m54 -7 c9 -22 -3 -32 -14 -14 -12 19 -12 30 -1 30 5 0 12 -7
15 -16z m-299 -14 c3 -6 -4 -10 -17 -10 -18 0 -20 2 -8 10 19 12 18 12 25 0z
m195 -5 c-7 -8 -17 -12 -22 -9 -6 4 -5 10 3 15 22 14 33 10 19 -6z m-2300 -50
c-4 -26 -13 -51 -20 -58 -10 -10 -11 -7 -5 13 4 14 9 40 12 58 3 17 8 32 13
32 4 0 4 -20 0 -45z m1040 35 c0 -5 -7 -10 -15 -10 -8 0 -15 5 -15 10 0 6 7
10 15 10 8 0 15 -4 15 -10z m1388 -17 c8 -13 5 -21 -12 -33 -25 -20 -102 -37
-91 -21 3 6 16 11 29 11 12 0 31 6 41 14 16 12 17 16 6 30 -11 14 -11 16 2 16
9 0 20 -8 25 -17z m-2592 -51 c8 -20 29 -54 45 -75 17 -21 28 -41 24 -45 -13
-13 -105 122 -105 155 0 23 19 4 36 -35z m1278 23 c4 -11 -1 -15 -19 -15 -24
0 -32 10 -18 23 11 12 31 8 37 -8z m1356 -35 c0 -4 -11 -7 -25 -7 -27 0 -31 7
-13 25 12 12 38 -1 38 -18z m-175 -10 c-3 -5 -13 -10 -21 -10 -8 0 -14 5 -14
10 0 6 9 10 21 10 11 0 17 -4 14 -10z m-1487 -16 c5 3 15 -1 22 -9 10 -12 7
-14 -17 -12 -19 2 -29 9 -31 22 -2 15 -1 17 6 6 6 -7 14 -11 20 -7z m1606 0
c5 -12 2 -15 -10 -10 -8 3 -25 6 -37 7 -21 0 -21 1 -2 9 30 13 42 12 49 -6z
m80 -10 c9 -22 -3 -32 -14 -14 -12 19 -12 30 -1 30 5 0 12 -7 15 -16z m-148
-52 c-12 -11 -18 7 -10 30 l8 23 4 -23 c2 -13 1 -26 -2 -30z m-2070 23 c19
-14 19 -14 -1 -15 -30 0 -65 11 -65 21 0 14 44 10 66 -6z m662 -4 c-7 -9 -14
-18 -15 -20 -2 -2 -3 5 -3 16 0 11 7 20 15 20 12 0 12 -3 3 -16z m1286 -33 c7
-30 -8 -39 -18 -12 -3 8 -10 12 -16 9 -6 -4 -8 -11 -5 -16 4 -5 -2 -9 -11 -9
-10 0 -26 -7 -36 -17 -12 -10 -18 -12 -18 -4 0 8 -7 10 -19 6 -22 -7 -61 29
-61 54 1 12 6 9 21 -9 12 -14 29 -24 40 -22 11 2 19 -2 19 -9 0 -7 16 2 35 21
19 19 35 41 35 49 0 24 26 -8 34 -41z m226 18 c0 -5 -7 -3 -15 4 -8 7 -12 17
-9 22 7 10 24 -9 24 -26z m-1621 1 c12 -15 5 -27 -16 -27 -7 0 -13 9 -13 20 0
23 13 26 29 7z m1695 -3 c9 -22 -3 -32 -14 -14 -12 19 -12 30 -1 30 5 0 12 -7
15 -16z m-1784 -29 c46 -23 92 -56 87 -62 -3 -2 -34 12 -71 33 l-66 36 -20
-24 c-11 -12 -19 -26 -20 -30 0 -5 -9 -8 -19 -8 -13 0 -18 -5 -15 -17 3 -11
-26 -56 -75 -118 l-79 -100 84 -3 c71 -2 100 2 183 28 115 35 123 36 176 10
25 -12 62 -19 98 -20 31 0 57 -4 57 -10 0 -16 -113 -12 -137 5 -43 30 -94 29
-196 -4 -80 -26 -114 -31 -191 -31 l-94 0 -62 -77 c-34 -43 -57 -79 -51 -81
16 -5 13 -22 -4 -22 -8 0 -22 -11 -31 -25 -9 -14 -23 -25 -30 -25 -25 0 -28
30 -5 51 11 11 21 26 21 34 0 8 8 15 18 15 23 0 189 205 184 227 -2 8 1 12 6
9 6 -3 25 12 42 34 17 22 28 40 23 40 -4 0 -14 -9 -21 -21 -8 -12 -19 -18 -28
-15 -8 3 -14 0 -15 -7 0 -7 -5 2 -11 18 -6 17 -24 44 -40 61 -20 22 -28 39
-26 55 l4 24 11 -25 c6 -14 23 -36 37 -49 14 -14 26 -30 26 -37 0 -25 23 -27
41 -5 10 12 23 20 29 16 6 -4 17 10 26 31 16 38 105 128 114 114 3 -4 21 -15
40 -25z m137 8 c-9 -9 -20 -13 -24 -9 -4 4 -1 11 7 16 25 16 35 11 17 -7z
m253 11 c0 -3 -21 -33 -47 -67 -29 -37 -42 -62 -35 -65 23 -7 12 -21 -18 -20
-34 1 -38 -9 40 97 40 54 60 72 60 55z m-215 -14 c-3 -5 -11 -10 -16 -10 -6 0
-7 5 -4 10 3 6 11 10 16 10 6 0 7 -4 4 -10z m725 -16 c0 -2 -9 -4 -21 -4 -11
0 -18 4 -14 10 5 8 35 3 35 -6z m810 -4 c0 -11 -4 -20 -10 -20 -5 0 -10 9 -10
20 0 11 5 20 10 20 6 0 10 -9 10 -20z m105 -28 c-8 -9 -25 20 -18 31 3 5 10 2
15 -7 6 -10 7 -20 3 -24z m-2340 19 c6 -11 -40 -83 -48 -74 -4 3 1 19 9 35 8
16 12 33 9 38 -3 6 1 10 9 10 8 0 17 -4 21 -9z m1325 -15 c0 -11 -19 -15 -25
-6 -3 5 1 10 9 10 9 0 16 -2 16 -4z m270 -16 c0 -16 -7 -20 -32 -20 -38 0 -66
14 -50 24 6 3 13 2 17 -4 9 -15 42 -12 49 5 8 21 16 19 16 -5z m-2442 -9 c20
-11 51 -25 68 -31 18 -6 45 -30 62 -56 39 -55 24 -58 -19 -4 -22 27 -47 44
-79 55 -26 9 -56 25 -65 35 -23 25 -14 25 33 1z m3082 2 c0 -5 -5 -15 -10 -23
-8 -12 -10 -11 -10 8 0 12 5 22 10 22 6 0 10 -3 10 -7z m110 -23 c0 -11 -4
-20 -10 -20 -5 0 -10 9 -10 20 0 11 5 20 10 20 6 0 10 -9 10 -20z m-2165 -39
c-3 -6 -14 -11 -23 -11 -15 1 -15 2 2 15 21 16 32 13 21 -4z m55 4 c14 -16 10
-18 -14 -9 -9 3 -16 10 -16 15 0 14 16 11 30 -6z m-1993 -48 c41 -55 28 -64
-14 -9 -41 51 -48 65 -33 60 6 -2 28 -25 47 -51z m1883 43 c12 -8 9 -10 -12
-10 -16 0 -28 5 -28 10 0 13 20 13 40 0z m780 0 c0 -5 -9 -10 -20 -10 -11 0
-20 5 -20 10 0 6 9 10 20 10 11 0 20 -4 20 -10z m1220 0 c0 -5 -11 -10 -25
-10 -30 0 -31 -9 -4 -44 11 -14 19 -31 17 -37 -2 -6 -19 9 -37 32 -33 40 -33
43 -16 55 22 16 65 19 65 4z m92 -15 c-2 -14 -6 -25 -8 -25 -2 0 -4 11 -4 25
0 14 4 25 9 25 4 0 6 -11 3 -25z m-1268 9 c9 -3 14 -10 11 -15 -7 -10 -35 0
-35 12 0 11 3 11 24 3z m707 -19 c63 -18 97 -35 69 -35 -29 0 -160 43 -160 53
0 5 6 7 13 4 7 -3 42 -13 78 -22z m679 4 c-7 -11 -14 -18 -17 -15 -8 8 5 36
17 36 7 0 7 -6 0 -21z m-1340 -9 c0 -5 -2 -10 -4 -10 -3 0 -8 5 -11 10 -3 6
-1 10 4 10 6 0 11 -4 11 -10z m934 -31 c-6 -35 -4 -41 15 -46 11 -3 21 -10 21
-15 0 -6 -7 -7 -16 -4 -9 3 -19 6 -24 6 -9 0 -21 80 -14 92 14 22 24 4 18 -33z
m256 31 c0 -5 -9 -10 -19 -10 -11 0 -23 5 -26 10 -4 6 5 10 19 10 14 0 26 -4
26 -10z m-1263 -71 c13 -5 28 -3 40 6 27 21 39 18 18 -5 -36 -40 -115 -16 -99
31 l8 24 5 -24 c4 -13 16 -27 28 -32z m1373 36 c-7 -8 -17 -15 -22 -15 -6 0
-5 7 2 15 7 8 17 15 22 15 6 0 5 -7 -2 -15z m-1166 -10 c-5 -12 -10 -13 -20
-4 -19 15 -18 19 6 19 13 0 18 -5 14 -15z m1349 -17 c15 -12 15 -15 -4 -45
-24 -38 -50 -35 -45 7 6 49 19 60 49 38z m-223 -13 c-7 -8 -17 -15 -22 -15 -6
0 -5 7 2 15 7 8 17 15 22 15 6 0 5 -7 -2 -15z m-72 -56 c23 -25 42 -52 42 -59
0 -7 -15 4 -33 25 -26 30 -37 36 -55 31 -22 -7 -22 -8 12 -44 48 -49 35 -55
-14 -7 -45 44 -49 55 -19 62 14 4 19 11 16 25 -7 26 2 20 51 -33z m27 31 c3
-6 -4 -10 -17 -10 -18 0 -20 2 -8 10 19 12 18 12 25 0z m-2739 -47 c-8 -8 -36
5 -36 17 0 7 6 7 21 0 11 -7 18 -14 15 -17z m54 -23 c0 -5 -6 -10 -14 -10 -8
0 -18 5 -21 10 -3 6 3 10 14 10 12 0 21 -4 21 -10z m60 -10 c0 -5 -9 -10 -20
-10 -11 0 -20 5 -20 10 0 6 9 10 20 10 11 0 20 -4 20 -10z m1305 0 c4 -6 -7
-10 -25 -10 -18 0 -29 4 -25 10 3 6 15 10 25 10 10 0 22 -4 25 -10z m401 -5
c11 -11 11 -15 -1 -25 -18 -15 -91 -9 -87 8 1 6 -2 12 -8 12 -5 0 -10 4 -10 9
0 14 91 11 106 -4z m-1646 -16 c0 -11 -3 -11 -24 -3 -23 9 -20 23 4 17 11 -3
20 -9 20 -14z m2440 6 c0 -3 -9 -23 -19 -44 -11 -21 -28 -90 -38 -154 -15 -98
-21 -117 -35 -117 -16 0 -17 10 -11 123 5 90 10 125 21 133 13 9 12 12 -4 18
-18 7 -18 8 -1 18 14 7 22 6 32 -8 12 -18 14 -17 26 9 11 23 29 37 29 22z
m-2379 -21 c17 -8 29 -17 27 -19 -7 -7 -78 18 -78 27 0 12 18 10 51 -8z m1236
-7 c-39 -9 -46 -14 -41 -29 3 -10 1 -18 -5 -18 -16 0 -23 18 -16 40 5 17 15
20 58 19 l52 -2 -48 -10z m-1268 -29 c0 -13 -6 -58 -13 -100 l-12 -77 51 -11
c44 -9 51 -14 53 -36 1 -14 -2 -23 -8 -19 -6 3 -10 12 -10 20 0 12 -76 33 -85
23 -2 -2 -9 -35 -15 -73 -6 -38 -13 -71 -15 -74 -6 -5 -35 19 -35 30 0 5 6 6
14 3 9 -4 15 8 20 42 11 80 10 82 -31 89 -21 4 -49 10 -63 15 l-25 8 28 11
c19 7 29 20 34 41 6 30 86 130 104 130 5 0 9 -10 8 -22z m111 -10 c0 -13 -23
-5 -28 10 -2 7 2 10 12 6 9 -3 16 -11 16 -16z m40 -17 c0 -6 -4 -13 -10 -16
-5 -3 -10 1 -10 9 0 9 5 16 10 16 6 0 10 -4 10 -9z m3310 -11 c0 -23 -4 -24
-31 -10 -27 15 -24 30 6 30 18 0 25 -5 25 -20z m-2181 -52 c-10 -35 -19 -66
-19 -70 0 -3 13 -9 30 -13 32 -7 51 -25 26 -25 -8 0 -26 4 -39 9 -22 9 -25 6
-35 -27 -10 -32 -9 -39 10 -59 29 -31 14 -42 -17 -13 -16 15 -23 30 -19 42 3
12 0 18 -10 18 -9 0 -16 5 -16 11 0 6 7 9 15 6 22 -9 29 13 9 28 -18 14 -18
14 3 15 17 0 25 12 42 70 12 39 26 70 30 70 5 0 1 -28 -10 -62z m-1159 23 c0
-12 -20 -25 -27 -18 -7 7 6 27 18 27 5 0 9 -4 9 -9z m1280 0 c0 -6 -4 -12 -9
-15 -5 -3 -11 -19 -13 -35 -3 -22 0 -31 14 -34 19 -5 24 -42 9 -66 -8 -12 -12
-12 -26 2 -9 10 -21 15 -26 12 -5 -4 -9 -2 -9 4 0 15 28 120 35 131 8 13 25
13 25 1z m890 -10 c0 -12 -20 -25 -27 -18 -7 7 6 27 18 27 5 0 9 -4 9 -9z
m-2210 -30 c0 -5 -7 -12 -16 -15 -24 -9 -28 -7 -14 9 14 17 30 20 30 6z m-389
-27 c12 -14 11 -16 -5 -13 -11 2 -21 10 -24 17 -5 17 13 15 29 -4z m329 -23
c-6 -12 -16 -19 -21 -15 -6 4 -4 13 7 25 21 24 29 18 14 -10z m338 13 c12 -8
22 -19 22 -23 0 -15 -45 -59 -67 -65 -13 -4 -36 -24 -52 -44 -17 -20 -33 -33
-37 -29 -4 3 5 20 19 36 14 17 29 45 32 63 9 40 33 78 49 78 6 0 22 -7 34 -16z
m-548 -4 c12 -8 11 -10 -7 -10 -13 0 -23 5 -23 10 0 13 11 13 30 0z m-50 -10
c0 -5 -6 -10 -14 -10 -8 0 -18 5 -21 10 -3 6 3 10 14 10 12 0 21 -4 21 -10z
m1799 -6 c2 -2 2 -6 -1 -9 -8 -9 -68 7 -62 16 5 8 52 2 63 -7z m-1689 -31 c0
-14 -19 -38 -25 -32 -8 8 5 39 16 39 5 0 9 -3 9 -7z m-246 -49 c9 -3 16 -11
16 -16 0 -6 -6 -8 -14 -5 -8 3 -17 -1 -20 -10 -9 -23 -19 -8 -11 16 7 23 7 23
29 15z m224 -13 c3 -8 -1 -12 -9 -9 -7 2 -15 10 -17 17 -3 8 1 12 9 9 7 -2 15
-10 17 -17z m267 -100 c-3 -2 -11 3 -18 13 -11 15 -16 12 -57 -29 -24 -25 -49
-45 -54 -45 -6 0 14 24 43 54 31 31 52 61 51 72 -5 40 2 37 20 -10 11 -28 17
-52 15 -55z m2055 78 c0 -5 -5 -8 -11 -6 -13 2 -59 -78 -59 -104 0 -21 -28
-33 -46 -19 -9 9 -15 7 -22 -7 -5 -10 -7 -24 -5 -30 5 -15 -13 -17 -22 -3 -10
16 14 51 83 122 58 61 82 74 82 47z m-2490 -9 c8 -5 11 -12 7 -16 -4 -4 -15 0
-24 9 -18 18 -8 23 17 7z m210 0 c8 -5 11 -12 7 -16 -4 -4 -15 0 -24 9 -18 18
-8 23 17 7z m-304 -26 c-3 -9 -6 -18 -6 -20 0 -2 -4 -4 -9 -4 -5 0 -7 9 -4 20
3 11 10 20 15 20 6 0 7 -7 4 -16z m754 6 c0 -5 -4 -10 -10 -10 -5 0 -10 5 -10
10 0 6 5 10 10 10 6 0 10 -4 10 -10z m-605 -21 c12 -19 -5 -23 -22 -6 -16 16
-16 17 -1 17 9 0 20 -5 23 -11z m585 -6 c0 -14 -19 -38 -25 -32 -8 8 5 39 16
39 5 0 9 -3 9 -7z m120 -3 c0 -5 -5 -10 -11 -10 -5 0 -7 5 -4 10 3 6 8 10 11
10 2 0 4 -4 4 -10z m1410 1 c0 -5 -7 -12 -16 -15 -22 -9 -24 -8 -24 9 0 8 9
15 20 15 11 0 20 -4 20 -9z m-2064 -38 c-8 -8 -36 5 -36 17 0 7 6 7 21 0 11
-7 18 -14 15 -17z m204 5 c0 -13 -23 -5 -28 10 -2 7 2 10 12 6 9 -3 16 -11 16
-16z m1430 13 c0 -5 -7 -14 -16 -22 -14 -12 -14 -14 2 -26 16 -12 16 -13 -8
-13 -21 0 -47 -24 -128 -115 -107 -121 -152 -153 -59 -42 176 208 209 243 209
218z m-1860 -22 c-7 -11 -14 -18 -17 -15 -8 8 5 36 17 36 7 0 7 -6 0 -21z
m603 -11 c-5 -10 -33 10 -33 23 0 5 9 4 19 -3 11 -7 17 -16 14 -20z m251 8
c-6 -16 -24 -23 -24 -8 0 10 22 33 27 28 2 -2 1 -11 -3 -20z m-124 -5 c0 -5
-7 -14 -15 -21 -16 -14 -18 -10 -9 14 6 17 24 22 24 7z m-462 -20 c3 -8 -1
-12 -9 -9 -7 2 -15 10 -17 17 -3 8 1 12 9 9 7 -2 15 -10 17 -17z m382 -13 c0
-13 -23 -5 -28 10 -2 7 2 10 12 6 9 -3 16 -11 16 -16z m-679 -21 c-8 -8 -11
-7 -11 4 0 20 13 34 18 19 3 -7 -1 -17 -7 -23z m849 18 c0 -8 -7 -15 -15 -15
-26 0 -18 20 13 29 1 1 2 -6 2 -14z m-50 -5 c0 -5 -9 -10 -20 -10 -11 0 -20 5
-20 10 0 6 9 10 20 10 11 0 20 -4 20 -10z m-455 -11 c11 -17 0 -20 -21 -4 -17
13 -17 14 -2 15 9 0 20 -5 23 -11z m105 2 c0 -13 -26 -32 -33 -24 -8 7 11 33
24 33 5 0 9 -4 9 -9z m290 6 c0 -2 -9 -12 -20 -22 -19 -18 -20 -17 -20 3 0 15
6 22 20 22 11 0 20 -2 20 -3z m2950 -53 c-13 -32 -5 -130 11 -139 5 -4 9 -14
9 -23 0 -14 -2 -15 -15 -1 -31 30 -39 153 -12 187 15 20 19 8 7 -24z m-3296
13 c16 -12 16 -14 2 -26 -19 -16 -28 -10 -33 19 -3 23 6 25 31 7z m-404 -4 c0
-14 -19 -38 -25 -32 -8 8 5 39 16 39 5 0 9 -3 9 -7z m699 -29 c-15 -18 -22
-13 -13 10 3 9 10 13 16 10 5 -3 4 -12 -3 -20z m-349 6 c0 -5 -9 -10 -21 -10
-11 0 -17 5 -14 10 3 6 13 10 21 10 8 0 14 -4 14 -10z m-60 -10 c0 -5 -9 -10
-20 -10 -11 0 -20 5 -20 10 0 6 9 10 20 10 11 0 20 -4 20 -10z m160 -5 c14
-16 10 -18 -14 -9 -9 3 -16 10 -16 15 0 14 16 11 30 -6z m-220 -5 c0 -5 -6
-10 -14 -10 -8 0 -16 -4 -18 -9 -4 -12 -68 -1 -68 11 0 6 14 8 30 6 17 -3 30
-1 30 4 0 4 9 8 20 8 11 0 20 -4 20 -10z m-249 -30 c5 0 9 -4 9 -10 0 -5 -9
-10 -20 -10 -21 0 -24 8 -13 37 7 17 8 17 11 1 2 -10 8 -18 13 -18z m389 21
c0 -12 -20 -25 -27 -18 -7 7 6 27 18 27 5 0 9 -4 9 -9z m3060 -1 c12 -8 9 -10
-13 -10 -16 0 -26 4 -22 10 8 12 16 12 35 0z m-3320 -10 c0 -5 -9 -10 -21 -10
-11 0 -17 5 -14 10 3 6 13 10 21 10 8 0 14 -4 14 -10z m559 -16 c-17 -21 -31
-17 -19 6 6 11 15 18 21 14 6 -4 6 -11 -2 -20z m2702 -7 c-8 -8 -11 -7 -11 4
0 20 13 34 18 19 3 -7 -1 -17 -7 -23z m-3321 13 c0 -5 -9 -10 -21 -10 -11 0
-17 5 -14 10 3 6 13 10 21 10 8 0 14 -4 14 -10z m445 -1 c11 -17 -1 -21 -15
-4 -8 9 -8 15 -2 15 6 0 14 -5 17 -11z m2985 1 c8 -5 12 -12 9 -15 -8 -8 -39
5 -39 16 0 11 11 11 30 -1z m-3540 -19 c0 -11 -31 -24 -39 -16 -3 3 1 10 9 15
19 12 30 12 30 1z m300 -1 c8 -5 11 -12 7 -16 -4 -4 -15 0 -24 9 -18 18 -8 23
17 7z m90 1 c0 -12 -20 -25 -27 -18 -7 7 6 27 18 27 5 0 9 -4 9 -9z m217 -28
c-8 -7 -37 9 -31 19 3 5 12 4 20 -3 8 -6 13 -14 11 -16z m2803 6 c0 -11 -4
-17 -10 -14 -5 3 -10 13 -10 21 0 8 5 14 10 14 6 0 10 -9 10 -21z m-3480 -9
c-19 -12 -30 -12 -30 -1 0 10 31 20 40 14 2 -2 -2 -8 -10 -13z m767 -5 c-4 -8
-11 -15 -17 -15 -7 0 -7 6 0 21 13 23 26 19 17 -6z m-823 -15 c-10 -4 -21 -6
-24 -3 -8 7 24 22 34 16 5 -4 1 -10 -10 -13z m481 9 c12 -19 -5 -23 -22 -6
-16 16 -16 17 -1 17 9 0 20 -5 23 -11z m299 -18 c18 -19 15 -41 -5 -41 -6 0
-7 5 -4 11 4 5 -1 19 -11 30 -9 10 -13 19 -7 19 5 0 18 -9 27 -19z m-824 0 c0
-11 -31 -24 -39 -16 -3 3 1 10 9 15 19 12 30 12 30 1z m3592 -35 c-3 -5 -9 -1
-12 10 -4 10 -5 23 -2 28 3 5 9 1 12 -10 4 -10 5 -23 2 -28z m-3018 3 c-4 -6
-11 -6 -20 2 -21 17 -17 31 6 19 11 -6 18 -15 14 -21z m-634 12 c0 -11 -31
-24 -39 -16 -3 3 1 10 9 15 19 12 30 12 30 1z m2765 -20 c47 -30 91 -69 84
-75 -3 -3 -29 12 -58 34 -29 22 -63 40 -75 40 -11 0 -28 5 -36 10 -11 7 -6 10
20 10 19 0 49 -9 65 -19z m-2830 -10 c-3 -6 -14 -11 -23 -11 -15 1 -15 2 2 15
21 16 32 13 21 -4z m745 -13 c0 -13 -23 -5 -28 10 -2 7 2 10 12 6 9 -3 16 -11
16 -16z m2990 -14 c0 -8 -4 -14 -10 -14 -5 0 -10 9 -10 21 0 11 5 17 10 14 6
-3 10 -13 10 -21z m-2800 7 c0 -5 -7 -14 -15 -21 -16 -14 -18 -10 -9 14 6 17
24 22 24 7z m-145 -22 c12 -19 -5 -23 -22 -6 -16 16 -16 17 -1 17 9 0 20 -5
23 -11z m46 -35 c12 -14 11 -16 -5 -13 -11 2 -21 10 -24 17 -5 17 13 15 29 -4z
m48 -21 c-30 -51 -39 -60 -39 -41 0 9 6 23 13 30 7 7 16 21 20 31 3 9 11 17
18 17 6 0 1 -17 -12 -37z m2865 21 c8 -21 8 -24 -3 -24 -5 0 -11 9 -14 20 -6
24 8 27 17 4z m16 -65 c0 -11 -4 -17 -10 -14 -5 3 -10 13 -10 21 0 8 5 14 10
14 6 0 10 -9 10 -21z m-2936 -43 c-3 -9 -10 -13 -16 -10 -5 3 -4 12 3 20 15
18 22 13 13 -10z m2954 -19 c5 -24 -15 -21 -21 4 -3 13 -1 19 6 16 7 -2 13
-11 15 -20z"/>
<path d="M3492 7070 c0 -14 2 -19 5 -12 2 6 2 18 0 25 -3 6 -5 1 -5 -13z"/>
<path d="M3520 7073 c0 -25 15 -38 25 -22 4 6 0 18 -9 27 -15 15 -16 15 -16
-5z"/>
<path d="M1489 6921 c-9 -9 -19 -27 -22 -41 -5 -22 -2 -28 23 -37 l30 -11 0
48 c0 55 -8 65 -31 41z"/>
<path d="M4636 6669 c-22 -11 -47 -18 -57 -16 -11 3 -19 1 -19 -4 0 -5 20 -10
45 -11 25 -1 53 -2 62 -2 19 -1 30 31 16 45 -5 5 -25 0 -47 -12z"/>
<path d="M4730 6645 c0 -16 9 -19 34 -9 25 9 19 24 -9 24 -16 0 -25 -6 -25
-15z"/>
<path d="M3092 6061 c-11 -6 -10 -10 4 -15 20 -8 32 0 18 14 -5 5 -15 5 -22 1z"/>
<path d="M4894 5533 c-11 -27 -21 -51 -22 -55 -2 -5 4 -5 14 -1 14 5 16 3 10
-13 -5 -10 -11 -27 -13 -36 -3 -10 -10 -18 -15 -18 -6 0 -8 7 -4 15 3 8 2 15
-3 15 -5 0 -16 -17 -24 -37 -8 -21 -29 -67 -46 -103 -16 -36 -36 -83 -44 -106
l-14 -41 85 -54 c46 -30 96 -64 111 -76 14 -13 29 -23 33 -23 4 0 48 -27 99
-60 69 -44 99 -58 116 -54 15 4 25 1 29 -9 7 -19 36 -15 43 6 5 13 10 10 24
-14 14 -26 15 -30 2 -25 -8 3 -22 3 -31 -1 -13 -5 -12 -9 7 -29 28 -30 35 -30
43 -1 3 12 21 33 40 47 25 19 31 28 24 38 -6 7 -17 11 -25 10 -9 -2 -19 7 -24
20 -5 13 -5 21 0 18 16 -10 20 22 5 35 -13 10 -11 16 12 40 26 27 26 29 11 61
-8 18 -18 48 -22 67 -14 65 -57 147 -102 193 -26 26 -51 44 -56 41 -6 -3 -7
-1 -3 5 7 12 -199 178 -220 176 -8 -1 -11 2 -8 7 3 5 1 9 -4 9 -5 0 -18 -21
-28 -47z m40 -53 c18 -19 24 -30 15 -30 -14 0 -59 42 -59 54 0 13 16 4 44 -24z
m56 -55 c14 -16 10 -18 -14 -9 -9 3 -16 10 -16 15 0 14 16 11 30 -6z m38 -53
c6 -18 -15 -14 -22 4 -4 10 -1 14 6 12 6 -2 14 -10 16 -16z m26 -48 c9 -22 -3
-32 -14 -14 -12 19 -12 30 -1 30 5 0 12 -7 15 -16z m36 -49 c7 -8 8 -15 2 -15
-5 0 -15 7 -22 15 -7 8 -8 15 -2 15 5 0 15 -7 22 -15z m48 -43 c2 -7 -2 -10
-12 -6 -9 3 -16 11 -16 16 0 13 23 5 28 -10z m42 -37 c7 -8 8 -15 2 -15 -5 0
-15 7 -22 15 -7 8 -8 15 -2 15 5 0 15 -7 22 -15z m34 -41 c9 -23 8 -27 -9 -20
-18 6 -20 -5 -3 -22 6 -6 9 -15 5 -19 -9 -9 -30 12 -33 33 -3 16 15 43 27 44
4 0 10 -7 13 -16z m-59 -61 c-4 -52 -4 -52 -22 -19 -14 27 -14 30 3 43 24 17
23 18 19 -24z m89 1 c4 -10 1 -14 -6 -12 -15 5 -23 28 -10 28 5 0 13 -7 16
-16z m-17 -45 c-4 -14 0 -19 14 -19 12 0 16 5 13 15 -10 25 13 17 31 -11 17
-27 17 -27 -9 -22 -31 6 -31 7 -6 -22 24 -27 25 -36 6 -43 -10 -4 -13 -1 -10
7 3 8 1 17 -5 20 -5 4 -12 -3 -16 -14 -3 -11 -11 -20 -17 -20 -5 0 -8 7 -4 15
3 8 1 15 -4 15 -6 0 -10 -8 -10 -17 -1 -17 -1 -17 -14 -1 -10 13 -15 15 -24 6
-7 -7 -12 -8 -12 -2 0 5 13 21 28 36 23 21 28 33 24 59 -3 23 -1 30 8 24 6 -4
10 -16 7 -26z m-130 -35 c-10 -10 -37 16 -37 34 0 13 4 12 22 -5 12 -13 19
-25 15 -29z m103 14 c0 -13 -23 -5 -28 10 -2 7 2 10 12 6 9 -3 16 -11 16 -16z
m-77 -52 c22 -17 22 -26 -2 -26 -10 0 -21 9 -24 20 -6 23 1 25 26 6z m197
-101 c-7 -8 -17 -15 -22 -15 -6 0 -5 7 2 15 7 8 17 15 22 15 6 0 5 -7 -2 -15z"/>
<path d="M5220 4995 c0 -9 6 -12 15 -9 8 4 12 10 9 15 -8 14 -24 10 -24 -6z"/>
<path d="M3852 4915 c-10 -12 -10 -15 2 -15 7 0 16 7 20 15 7 19 -5 19 -22 0z"/>
<path d="M3800 4910 c0 -5 5 -10 11 -10 5 0 7 5 4 10 -3 6 -8 10 -11 10 -2 0
-4 -4 -4 -10z"/>
<path d="M3743 4801 c3 -15 -1 -21 -17 -24 -12 -2 -4 -5 17 -6 40 -1 42 1 27
30 -14 25 -34 25 -27 0z"/>
<path d="M2720 4718 c-7 -24 -17 -47 -22 -52 -4 -6 -8 -22 -8 -38 0 -15 -7
-31 -16 -36 -14 -8 -13 -12 8 -37 l25 -28 43 41 c23 23 46 42 51 42 19 0 8 21
-16 30 -23 9 -25 14 -20 44 7 33 -7 76 -24 76 -4 0 -14 -19 -21 -42z"/>
<path d="M2804 4737 c-17 -20 -26 -79 -11 -75 6 3 17 15 23 27 7 13 17 28 23
34 6 6 11 15 11 19 0 12 -34 9 -46 -5z"/>
<path d="M2938 4700 c-7 -24 -3 -38 8 -28 3 4 4 17 2 30 l-3 23 -7 -25z"/>
<path d="M3648 4713 c7 -3 16 -2 19 1 4 3 -2 6 -13 5 -11 0 -14 -3 -6 -6z"/>
<path d="M2892 4690 c-6 -11 -12 -25 -12 -32 0 -10 2 -10 9 0 4 8 12 13 17 12
5 0 10 8 12 20 4 26 -10 26 -26 0z"/>
<path d="M3708 4703 c6 -2 18 -2 25 0 6 3 1 5 -13 5 -14 0 -19 -2 -12 -5z"/>
<path d="M2840 4690 c0 -5 5 -10 11 -10 5 0 7 5 4 10 -3 6 -8 10 -11 10 -2 0
-4 -4 -4 -10z"/>
<path d="M3675 4680 c3 -5 25 -10 48 -9 36 1 38 2 17 9 -36 12 -72 12 -65 0z"/>
<path d="M3818 4683 c7 -3 16 -2 19 1 4 3 -2 6 -13 5 -11 0 -14 -3 -6 -6z"/>
<path d="M4060 4679 c0 -5 5 -7 10 -4 6 3 10 8 10 11 0 2 -4 4 -10 4 -5 0 -10
-5 -10 -11z"/>
<path d="M2826 4635 c4 -8 11 -15 16 -15 6 0 5 6 -2 15 -7 8 -14 15 -16 15 -2
0 -1 -7 2 -15z"/>
<path d="M2880 4630 c-13 -8 -12 -10 3 -10 9 0 17 5 17 10 0 12 -1 12 -20 0z"/>
<path d="M2948 4623 c7 -3 16 -2 19 1 4 3 -2 6 -13 5 -11 0 -14 -3 -6 -6z"/>
<path d="M2840 4600 c0 -5 5 -10 10 -10 6 0 10 5 10 10 0 6 -4 10 -10 10 -5 0
-10 -4 -10 -10z"/>
<path d="M2870 4576 c0 -10 9 -16 21 -16 24 0 21 23 -4 28 -10 2 -17 -3 -17
-12z"/>
<path d="M2747 4538 c-20 -22 -37 -43 -37 -45 0 -3 12 -3 28 -1 22 2 28 9 30
33 2 17 8 36 14 43 6 6 9 12 6 12 -2 0 -20 -19 -41 -42z"/>
<path d="M2827 4561 c-4 -17 -3 -21 5 -13 5 5 8 16 6 23 -3 8 -7 3 -11 -10z"/>
<path d="M2796 4553 c-6 -14 -5 -15 5 -6 7 7 10 15 7 18 -3 3 -9 -2 -12 -12z"/>
<path d="M2606 4551 c-4 -6 8 -18 26 -27 l32 -17 -15 24 c-18 27 -35 34 -43
20z"/>
<path d="M2930 4545 c13 -16 67 -20 88 -6 9 5 1 10 -25 14 -64 11 -77 9 -63
-8z"/>
<path d="M2850 4540 c0 -5 5 -10 10 -10 6 0 10 5 10 10 0 6 -4 10 -10 10 -5 0
-10 -4 -10 -10z"/>
<path d="M2890 4525 c0 -8 9 -15 20 -15 24 0 27 15 4 24 -22 9 -24 8 -24 -9z"/>
<path d="M5028 4351 c-94 -60 -107 -83 -60 -104 15 -6 30 -15 33 -19 6 -9 127
66 146 91 17 23 16 32 -10 62 l-22 27 -87 -57z"/>
<path d="M4840 4259 c0 -5 5 -7 10 -4 6 3 10 8 10 11 0 2 -4 4 -10 4 -5 0 -10
-5 -10 -11z"/>
<path d="M4941 4196 c-15 -9 -20 -16 -12 -20 6 -4 20 -1 32 7 27 19 11 29 -20
13z"/>
<path d="M5175 4050 c-21 -22 -44 -40 -51 -40 -6 0 -40 13 -75 30 -47 22 -84
31 -139 34 -67 5 -69 4 -20 -3 78 -12 140 -30 178 -52 50 -29 78 -24 117 19
30 32 42 52 32 52 -2 0 -21 -18 -42 -40z"/>
<path d="M4758 4063 c7 -3 16 -2 19 1 4 3 -2 6 -13 5 -11 0 -14 -3 -6 -6z"/>
<path d="M4670 4030 l-25 -21 28 12 c15 7 27 16 27 21 0 11 -1 10 -30 -12z"/>
<path d="M3729 3949 c-35 -71 -41 -92 -30 -98 17 -11 5 -32 -14 -25 -7 3 -18
-4 -25 -15 -6 -12 -8 -21 -5 -21 3 0 -6 -23 -20 -50 l-25 -50 35 -17 c19 -9
36 -15 38 -12 10 12 156 297 161 316 6 18 1 25 -32 42 l-39 20 -44 -90z"/>
<path d="M3829 3902 c-24 -47 -46 -90 -47 -94 -3 -7 98 -58 113 -58 3 0 5 6 5
14 0 7 12 30 26 52 25 36 25 39 8 51 -10 7 -22 13 -26 13 -5 0 -4 9 3 21 8 17
17 20 40 15 48 -9 34 17 -24 46 l-54 26 -44 -86z"/>
<path d="M3622 3825 c-9 -20 -9 -25 2 -25 13 0 26 20 26 41 0 18 -17 8 -28
-16z"/>
<path d="M3732 3714 c-18 -37 -32 -68 -30 -69 2 -1 45 -24 97 -50 105 -52 94
-55 141 36 l28 55 -91 47 c-51 26 -97 47 -102 47 -6 0 -25 -30 -43 -66z"/>
<path d="M3947 3610 l-38 -69 50 -25 50 -26 40 73 40 72 -42 22 c-23 12 -46
22 -52 22 -5 1 -27 -30 -48 -69z"/>
<path d="M3577 3628 c-13 -24 -59 -114 -101 -201 -68 -139 -77 -164 -74 -205
2 -35 7 -48 20 -50 13 -3 43 48 133 227 63 127 115 233 115 236 0 4 -55 35
-64 35 -2 0 -15 -19 -29 -42z"/>
<path d="M3586 3422 c-57 -114 -124 -247 -150 -296 -25 -48 -46 -91 -46 -95 0
-4 26 -19 57 -35 54 -26 58 -27 70 -10 7 10 16 15 19 11 4 -3 49 47 100 111
72 89 112 152 169 264 41 81 75 151 75 155 0 5 -43 30 -95 56 l-95 47 -104
-208z"/>
<path d="M2677 3443 c-4 -3 -7 -11 -7 -17 0 -6 5 -5 12 2 6 6 9 14 7 17 -3 3
-9 2 -12 -2z"/>
<path d="M2722 3345 c12 -27 23 -31 34 -13 4 6 -1 17 -11 25 -28 20 -36 16
-23 -12z"/>
<path d="M3322 3260 c-34 -25 -49 -42 -40 -45 56 -20 101 -35 102 -33 1 2 -1
29 -4 61 l-5 58 -53 -41z"/>
<path d="M2410 3046 c0 -2 9 -6 20 -9 11 -3 20 -1 20 4 0 5 -9 9 -20 9 -11 0
-20 -2 -20 -4z"/>
<path d="M2400 3005 c-5 -14 -14 -25 -20 -25 -5 0 -10 -7 -10 -15 0 -22 18
-18 25 5 3 11 15 20 25 20 28 0 34 17 10 30 -17 9 -22 7 -30 -15z"/>
<path d="M2666 3023 c-3 -4 -6 -26 -6 -49 0 -38 4 -45 30 -59 l30 -16 0 54 c0
47 -3 55 -24 65 -13 6 -27 8 -30 5z"/>
<path d="M2740 2940 c0 -52 16 -72 51 -63 11 3 19 0 19 -6 0 -6 41 -31 91 -57
101 -50 113 -49 125 11 5 28 2 32 -52 58 -57 28 -64 28 -77 -8 -3 -5 -7 -7
-11 -3 -4 3 -3 16 4 27 10 20 7 23 -37 41 -26 11 -60 27 -75 35 -14 8 -29 15
-32 15 -3 0 -6 -22 -6 -50z"/>
<path d="M3340 2927 c-32 -61 -33 -63 -16 -89 13 -19 27 -27 57 -30 38 -3 41
-1 55 30 12 29 12 36 -3 59 -16 23 -16 26 0 35 9 5 17 13 17 18 0 10 -52 40
-68 40 -4 0 -23 -28 -42 -63z"/>
<path d="M2360 2919 c0 -11 4 -18 10 -14 5 3 7 12 3 20 -7 21 -13 19 -13 -6z"/>
<path d="M3633 2710 c-29 -55 -53 -102 -53 -105 0 -3 6 -5 13 -5 7 0 21 17 32
37 11 21 34 54 50 73 60 69 60 69 39 85 -10 8 -21 15 -24 15 -3 0 -29 -45 -57
-100z"/>
<path d="M3350 2771 c0 -5 -3 -16 -6 -25 -10 -26 12 -18 24 9 10 21 9 25 -3
25 -8 0 -15 -4 -15 -9z"/>
<path d="M3133 2525 l-62 -123 28 -26 c15 -15 39 -26 54 -26 25 0 26 -2 15
-20 -17 -27 -24 -25 -65 10 -18 17 -37 30 -41 30 -4 0 -27 -38 -51 -85 -23
-46 -46 -85 -50 -87 -4 -2 -21 -29 -39 -60 l-32 -57 58 -34 c105 -64 312 -161
321 -151 5 5 21 43 36 84 63 172 84 227 104 270 l20 45 -22 12 c-12 6 -25 9
-29 7 -5 -3 -8 0 -8 5 0 6 -7 11 -15 11 -17 0 -19 9 -6 29 6 9 15 11 27 6 11
-5 21 -9 24 -10 3 -1 13 -5 23 -10 10 -4 19 -6 21 -4 6 8 56 139 56 147 0 5
-27 21 -60 37 -33 16 -67 40 -76 53 -11 17 -18 21 -24 12 -5 -8 -26 -2 -77 23
l-69 35 -61 -123z m182 -211 c13 -13 14 -19 4 -25 -19 -12 -37 0 -32 22 6 23
7 23 28 3z m-18 -240 c17 -17 16 -22 -3 -20 -24 2 -28 -19 -8 -38 12 -13 14
-20 5 -29 -6 -6 -11 -17 -11 -25 0 -8 -8 -24 -18 -37 l-19 -23 -28 24 c-15 13
-36 24 -45 24 -33 0 -42 84 -12 107 22 16 38 11 34 -11 -2 -9 1 -16 6 -16 6 0
13 16 16 36 7 34 9 35 39 28 17 -3 37 -12 44 -20z"/>
<path d="M3221 2016 c-8 -10 -8 -16 2 -24 17 -14 42 2 34 22 -8 20 -21 20 -36
2z"/>
<path d="M3556 2563 c-30 -59 -96 -226 -96 -244 0 -11 6 -19 13 -19 12 0 117
240 117 267 0 25 -20 22 -34 -4z"/>
<path d="M2475 2386 c-117 -79 -180 -117 -201 -122 -13 -3 -24 -10 -24 -15 0
-4 28 -24 63 -42 34 -19 156 -87 272 -150 115 -64 213 -113 217 -109 20 20
138 265 131 272 -4 3 -90 46 -189 93 -186 89 -227 100 -269 73z"/>
<path d="M2847 1994 l-27 -55 20 -17 c12 -10 48 -28 81 -42 35 -15 59 -31 59
-40 0 -31 92 -108 153 -129 54 -19 58 -19 64 -3 3 9 18 47 33 83 l27 66 -90
44 c-50 24 -133 68 -186 97 -52 28 -98 52 -101 52 -3 0 -18 -25 -33 -56z m233
-153 c0 -24 -15 -35 -36 -27 -12 4 -13 10 -4 26 14 26 40 26 40 1z"/>
<path d="M3012 1701 c-23 -4 -47 -12 -53 -18 -11 -11 -75 -260 -68 -267 2 -2
20 -7 39 -11 l36 -6 18 78 c22 92 39 117 78 109 25 -5 28 -2 33 32 3 20 8 45
10 55 2 12 -5 21 -21 28 -14 5 -26 8 -27 8 -1 -1 -21 -5 -45 -8z"/>
<path d="M3126 1679 c-2 -8 -9 -36 -16 -64 -7 -27 -14 -58 -17 -67 -4 -12 0
-18 11 -18 10 0 16 9 16 23 0 17 2 19 10 7 8 -13 10 -13 14 0 11 32 27 102 24
104 -2 1 -11 8 -20 15 -15 11 -18 11 -22 0z"/>
<path d="M3025 1549 c-4 -6 -5 -12 -2 -15 2 -3 7 2 10 11 7 17 1 20 -8 4z"/>
<path d="M3083 1503 c-20 -7 -15 -19 12 -31 14 -6 25 -8 25 -3 0 5 3 16 6 25
6 16 -15 21 -43 9z"/>
<path d="M3001 1464 c0 -11 3 -14 6 -6 3 7 2 16 -1 19 -3 4 -6 -2 -5 -13z"/>
<path d="M3160 1456 c0 -10 9 -16 21 -16 24 0 21 23 -4 28 -10 2 -17 -3 -17
-12z"/>
<path d="M3055 1450 c-11 -17 3 -28 30 -22 28 5 33 17 9 26 -22 8 -32 8 -39
-4z"/>
<path d="M3036 1405 c-3 -8 -1 -15 4 -15 6 0 10 7 10 15 0 8 -2 15 -4 15 -2 0
-6 -7 -10 -15z"/>
<path d="M3132 1393 l-23 -24 28 3 c20 2 29 9 31 26 4 28 -7 27 -36 -5z"/>
<path d="M3183 1389 c-10 -26 -9 -29 8 -29 10 0 19 4 19 9 0 5 3 16 6 24 3 8
-1 17 -9 20 -8 3 -17 -6 -24 -24z"/>
<path d="M2980 1400 c0 -5 7 -10 16 -10 8 0 12 5 9 10 -3 6 -10 10 -16 10 -5
0 -9 -4 -9 -10z"/>
<path d="M3065 1390 c-3 -5 1 -10 10 -10 9 0 13 5 10 10 -3 6 -8 10 -10 10 -2
0 -7 -4 -10 -10z"/>
<path d="M5621 4910 c-14 -8 -8 -40 7 -40 5 0 15 6 21 14 15 17 -8 39 -28 26z"/>
<path d="M3140 4560 c0 -5 5 -10 10 -10 6 0 10 5 10 10 0 6 -4 10 -10 10 -5 0
-10 -4 -10 -10z"/>
<path d="M710 4479 c0 -5 5 -7 10 -4 6 3 10 8 10 11 0 2 -4 4 -10 4 -5 0 -10
-5 -10 -11z"/>
<path d="M732 4440 c7 -11 16 -20 20 -20 5 0 8 -9 8 -20 0 -11 5 -20 10 -20 6
0 10 15 10 34 0 26 -5 35 -22 40 -36 9 -39 7 -26 -14z"/>
<path d="M2881 4164 c0 -11 3 -14 6 -6 3 7 2 16 -1 19 -3 4 -6 -2 -5 -13z"/>
<path d="M2915 4170 c3 -5 8 -10 11 -10 2 0 4 5 4 10 0 6 -5 10 -11 10 -5 0
-7 -4 -4 -10z"/>
<path d="M1127 4263 c-13 -12 -7 -23 13 -23 11 0 20 7 20 15 0 15 -21 21 -33
8z"/>
<path d="M6560 4330 c0 -5 5 -10 10 -10 6 0 10 5 10 10 0 6 -4 10 -10 10 -5 0
-10 -4 -10 -10z"/>
<path d="M5185 3858 c-38 -11 -97 -25 -130 -32 -112 -24 -312 -122 -388 -190
-34 -30 -36 -35 -21 -47 15 -12 21 -8 54 29 35 39 60 57 44 30 -4 -6 25 6 65
28 40 21 67 40 61 42 -17 6 -11 19 11 25 15 4 19 2 15 -8 -3 -9 0 -12 10 -8 7
3 14 11 14 17 0 17 127 56 252 76 60 10 111 20 114 22 8 9 -8 38 -20 37 -6 -1
-42 -10 -81 -21z m-345 -148 c-20 -13 -33 -13 -25 0 3 6 14 10 23 10 15 0 15
-2 2 -10z m-54 -35 c-21 -16 -32 -13 -21 4 3 6 14 11 23 11 15 -1 15 -2 -2
-15z"/>
<path d="M4584 3551 c-17 -20 -52 -68 -77 -108 -38 -59 -43 -72 -30 -77 19 -8
14 -13 52 55 34 60 65 94 78 86 5 -3 16 7 25 23 15 26 15 30 0 43 -15 12 -21
10 -48 -22z"/>
<path d="M4584 3478 c-4 -7 -14 -23 -22 -35 -22 -35 -7 -27 22 12 15 19 23 35
17 35 -5 0 -13 -6 -17 -12z"/>
<path d="M4371 3361 c-7 -5 -9 -11 -4 -14 5 -3 15 -2 22 2 7 5 9 11 4 14 -5 3
-15 2 -22 -2z"/>
<path d="M4411 3327 c-13 -21 -12 -21 5 -5 10 10 16 20 13 22 -3 3 -11 -5 -18
-17z"/>
<path d="M4360 3325 c0 -15 18 -40 24 -34 3 3 -1 14 -9 25 -8 10 -14 15 -15 9z"/>
<path d="M4453 3258 c-17 -21 -65 -120 -60 -124 5 -5 48 60 65 100 14 31 11
44 -5 24z"/>
<path d="M3901 2164 c0 -11 3 -14 6 -6 3 7 2 16 -1 19 -3 4 -6 -2 -5 -13z"/>
<path d="M3906 2084 c-9 -24 -7 -54 4 -54 6 0 10 16 10 35 0 38 -4 44 -14 19z"/>
<path d="M780 3594 c1 -18 48 -235 51 -238 2 -2 25 -7 51 -11 l47 -7 7 37 c5
27 3 40 -7 46 -22 14 -28 11 -22 -13 4 -18 3 -20 -6 -12 -7 7 -9 22 -5 38 7
28 19 34 27 14 3 -9 8 -10 15 -3 11 10 20 110 11 119 -3 3 -35 10 -71 16 -37
5 -74 13 -82 16 -9 3 -16 2 -16 -2z"/>
<path d="M1167 3351 c-4 -15 -1 -18 12 -14 29 11 33 15 20 24 -21 13 -26 11
-32 -10z"/>
<path d="M1327 3303 c-4 -3 -7 -11 -7 -17 0 -6 5 -5 12 2 6 6 9 14 7 17 -3 3
-9 2 -12 -2z"/>
<path d="M3900 856 c0 -18 -2 -62 -5 -97 l-4 -64 14 70 c17 84 18 125 5 125
-5 0 -10 -15 -10 -34z"/>
<path d="M1513 862 c-37 -32 -60 -107 -36 -116 42 -16 50 -8 62 65 6 40 10 73
8 75 -2 2 -17 -9 -34 -24z"/>
<path d="M2635 7930 c3 -5 8 -10 11 -10 2 0 4 5 4 10 0 6 -5 10 -11 10 -5 0
-7 -4 -4 -10z"/>
</g>
</svg>
