<?xml version="1.0" standalone="no"?>
<!DOCTYPE svg PUBLIC "-//W3C//DTD SVG 20010904//EN"
 "http://www.w3.org/TR/2001/REC-SVG-20010904/DTD/svg10.dtd">
<svg version="1.0" xmlns="http://www.w3.org/2000/svg"
 width="800.000000pt" height="800.000000pt" viewBox="0 0 800.000000 800.000000"
 preserveAspectRatio="xMidYMid meet">
<metadata>
Created by potrace 1.16, written by Peter Selinger 2001-2019
</metadata>
<g transform="translate(0.000000,800.000000) scale(0.100000,-0.100000)"
fill="#000000" stroke="none">
<path d="M0 4930 c0 -2719 2 -3071 15 -3076 8 -4 15 -11 15 -16 0 -6 -7 -8
-15 -4 -13 5 -15 -12 -15 -117 l1 -122 82 -65 c45 -36 110 -89 146 -119 35
-30 129 -92 208 -139 l145 -84 22 21 c24 23 36 26 36 11 0 -14 -83 -89 -99
-90 -11 0 -10 5 3 24 l15 24 -129 75 c-71 42 -185 120 -252 175 -68 54 -135
107 -150 116 l-28 18 0 -781 0 -781 215 0 215 0 -16 25 c-9 14 -20 25 -25 25
-12 0 -102 69 -112 86 -4 8 -15 14 -22 14 -8 0 -15 6 -15 14 0 12 -8 11 -44
-5 -24 -10 -51 -16 -60 -13 -22 8 -10 24 18 24 13 0 35 6 49 13 l25 13 -29 32
c-17 18 -41 34 -54 37 -14 3 -36 7 -50 10 -14 3 -25 9 -25 14 0 12 89 -6 116
-24 27 -17 74 -77 74 -93 0 -7 4 -12 9 -12 5 0 31 -20 57 -45 27 -25 57 -45
67 -45 10 0 21 -8 24 -17 10 -28 25 -34 66 -27 30 5 37 3 37 -10 0 -15 330
-16 3740 -16 l3740 0 0 1774 0 1774 -41 -11 c-37 -9 -40 -12 -36 -36 3 -14 -1
-42 -10 -62 -12 -29 -25 -39 -63 -53 -46 -17 -48 -19 -40 -46 7 -24 3 -35 -21
-66 -16 -20 -29 -40 -29 -45 0 -4 -18 -26 -40 -49 -22 -22 -44 -50 -51 -61 -9
-18 -17 -20 -49 -15 -21 3 -41 2 -44 -3 -6 -9 -97 4 -131 18 -11 5 -40 18 -65
30 -25 11 -57 23 -72 26 -16 4 -28 16 -32 29 -4 18 -11 21 -45 18 -21 -2 -49
2 -62 9 -13 7 -29 12 -35 11 -6 -1 -17 5 -24 13 -7 9 -21 13 -35 9 -27 -7
-105 13 -105 26 0 6 -7 10 -15 10 -8 0 -23 7 -32 15 -10 9 -34 29 -54 45 -27
22 -39 43 -52 89 -15 52 -20 60 -44 63 -21 2 -29 11 -41 46 -9 28 -19 42 -27
38 -8 -3 -31 -8 -52 -12 -50 -9 -63 -20 -63 -55 0 -22 -7 -32 -30 -44 -35 -18
-36 -26 -11 -108 31 -99 33 -107 24 -107 -8 0 -69 181 -88 263 -8 32 -15 33
-90 7 -72 -25 -95 -25 -95 -2 -1 42 -12 44 -113 16 l-97 -28 20 -33 c21 -36
25 -53 12 -53 -4 0 -16 17 -27 38 -10 20 -20 38 -21 40 -2 3 -85 -20 -236 -64
-29 -9 -21 -24 46 -88 35 -33 71 -75 80 -93 9 -18 25 -37 36 -43 30 -16 24
-45 -19 -91 -22 -22 -38 -46 -35 -53 2 -6 29 -31 59 -55 33 -27 52 -48 48 -57
-7 -18 -23 -18 -23 0 0 21 -77 79 -95 72 -12 -4 -14 0 -9 18 3 13 1 27 -5 30
-6 4 -11 2 -11 -3 0 -6 -7 -11 -17 -11 -9 0 -13 3 -10 7 4 3 0 15 -10 25 -17
19 -5 26 13 8 15 -15 64 5 91 38 12 15 22 30 23 34 0 9 -57 86 -102 137 -28
31 -30 32 -43 15 -7 -10 -16 -36 -19 -56 -4 -21 -11 -38 -16 -38 -6 0 -10 5
-10 10 0 6 -22 10 -50 10 -66 0 -94 -25 -79 -70 12 -32 6 -60 -11 -60 -7 0 -9
8 -5 19 3 10 1 30 -4 44 -9 22 -6 31 13 54 19 22 33 27 84 31 44 3 62 8 62 18
0 8 -4 14 -10 14 -5 0 -10 7 -10 16 0 11 6 14 20 9 17 -5 20 -2 20 20 0 21 -4
25 -19 20 -15 -4 -18 -2 -15 12 10 43 -8 43 -148 -1 -154 -50 -208 -63 -193
-48 12 12 228 80 550 173 132 39 284 83 337 100 l97 29 -15 48 c-8 26 -18 58
-23 72 -4 14 -4 35 0 45 6 17 8 15 14 -12 7 -32 19 -42 29 -24 8 12 69 8 73
-5 3 -9 -9 -17 -59 -42 -5 -2 -8 4 -8 14 0 13 -3 15 -11 7 -13 -13 8 -93 24
-93 6 0 34 8 64 17 55 17 55 18 36 71 -3 6 -1 12 5 12 6 0 13 -14 17 -30 4
-17 7 -30 8 -30 1 0 31 9 67 20 74 23 80 23 80 11 0 -4 -28 -16 -62 -26 -81
-22 -79 -20 -66 -55 11 -32 36 -43 83 -38 25 3 29 -1 39 -36 10 -35 36 -63 36
-38 0 15 37 21 51 8 9 -8 10 -8 5 2 -4 7 -1 12 8 12 9 0 16 -7 16 -15 0 -8 -4
-15 -9 -15 -15 0 -23 -56 -13 -94 12 -40 37 -70 72 -85 35 -15 64 -34 73 -48
11 -17 77 -28 97 -16 11 8 21 7 35 -3 11 -8 29 -11 44 -7 21 4 24 3 14 -7 -21
-22 12 -38 64 -30 33 5 46 4 49 -6 2 -8 6 -21 9 -29 2 -8 14 -15 25 -15 11 0
31 -6 43 -14 46 -30 148 -55 215 -54 60 1 69 4 94 31 16 16 28 33 28 38 0 5 9
14 20 21 11 7 20 17 20 21 0 5 12 24 26 43 24 30 26 40 20 86 -6 43 -5 50 7
40 10 -8 23 -8 51 0 43 13 69 60 60 106 -5 26 -2 29 43 43 l48 15 3 502 c2
558 3 552 -60 424 -25 -51 -42 -72 -73 -89 -44 -25 -55 -28 -55 -14 0 5 17 18
38 28 27 13 45 33 69 78 17 33 43 70 57 82 l26 22 0 480 c0 374 -3 480 -12
484 -10 4 -10 6 0 6 9 1 12 87 12 394 0 330 -2 396 -15 413 -8 10 -15 31 -15
47 0 15 -4 27 -8 27 -5 0 -112 -33 -238 -74 -262 -84 -284 -90 -284 -78 0 5
28 17 63 27 34 9 121 37 192 60 72 24 169 55 217 69 l87 27 1 206 c0 184 -2
207 -18 219 -16 13 -16 13 1 14 15 0 17 13 17 125 l0 125 -25 0 c-14 0 -25 5
-25 10 0 6 11 10 25 10 l26 0 -3 157 c-3 141 -5 158 -20 161 -14 3 -18 -3 -18
-23 0 -14 4 -34 9 -43 4 -9 11 -36 15 -59 5 -34 3 -43 -8 -43 -10 0 -12 -7 -8
-22 3 -13 1 -19 -5 -15 -18 12 -22 47 -6 56 11 6 13 13 5 27 -5 10 -13 43 -17
72 -6 45 -10 53 -33 59 -38 9 -114 9 -141 -1 -17 -6 -22 -5 -19 5 7 22 67 31
127 21 31 -6 59 -8 64 -5 4 2 7 18 7 35 0 29 26 98 42 108 8 6 -12 100 -36
169 -19 51 -19 51 -7 51 5 0 19 -24 30 -52 l20 -53 0 102 1 103 -712 -1 c-392
-1 -705 -3 -695 -6 9 -2 15 -9 11 -14 -9 -14 15 -39 32 -32 16 6 20 -22 3 -32
-7 -5 -4 -14 7 -26 19 -21 13 -24 -17 -9 -10 6 -19 18 -19 28 0 9 -11 29 -25
44 -14 15 -25 32 -25 38 0 6 -46 10 -130 10 -80 0 -130 -4 -130 -10 0 -5 -7
-10 -16 -10 -12 0 -15 -6 -10 -22 4 -13 13 -57 21 -98 8 -41 31 -122 49 -180
19 -58 33 -106 31 -108 -9 -10 -23 11 -35 52 -10 35 -16 43 -31 39 -10 -3 -19
-14 -19 -25 0 -10 -4 -16 -10 -13 -5 3 -10 15 -10 25 0 10 -6 21 -12 24 -7 3
0 4 15 2 38 -5 43 12 24 87 -9 34 -19 78 -22 97 -4 19 -11 52 -16 73 l-10 37
-64 -6 c-46 -5 -65 -3 -65 5 0 6 17 11 38 12 20 1 48 5 62 9 14 4 -161 8 -387
9 -227 1 -413 -1 -413 -3 0 -1 4 -16 9 -32 6 -16 46 -145 91 -287 71 -225 86
-286 65 -265 -4 4 -62 183 -158 491 l-30 97 -2699 0 -2698 0 0 -3070z m6543
2988 c12 -13 23 -37 24 -53 2 -26 -2 -31 -22 -33 -16 -1 -28 6 -35 19 -7 12
-18 18 -26 15 -7 -3 -18 3 -24 13 -8 16 -5 20 16 25 14 4 27 13 30 21 8 20 11
19 37 -7z m-323 -40 c0 -13 7 -32 15 -42 16 -21 20 -46 7 -46 -4 0 -13 13 -19
30 -6 17 -23 34 -37 40 -14 5 -26 14 -26 20 0 14 13 13 28 -2 9 -9 12 -8 12 5
0 9 5 17 10 17 6 0 10 -10 10 -22z m-589 -20 c1 -7 2 -22 3 -33 0 -11 11 -22
26 -26 25 -7 25 -7 3 -14 -13 -4 -20 -11 -17 -16 3 -5 0 -9 -5 -9 -6 0 -11 5
-11 12 0 9 -3 9 -12 0 -21 -21 -31 -13 -14 12 17 27 12 56 -10 56 -20 0 -17
18 4 23 29 8 32 7 33 -5z m-4221 -27 c0 -13 -28 -22 -35 -11 -3 4 1 11 7 13
20 8 28 8 28 -2z m50 -12 c0 -11 -4 -17 -10 -14 -5 3 -10 4 -10 1 0 -2 -3 -13
-6 -23 -4 -14 -4 -15 4 -4 5 7 15 10 21 7 19 -12 12 -26 -11 -26 -18 0 -20 -2
-8 -9 8 -6 18 -7 22 -5 12 8 9 -11 -4 -24 -9 -9 -8 -12 5 -12 9 0 17 -4 17
-10 0 -5 -11 -10 -24 -10 -14 0 -28 -5 -32 -12 -4 -7 -3 -8 4 -4 17 10 15 -3
-3 -20 -8 -9 -19 -12 -25 -9 -5 3 -10 -2 -10 -12 -1 -17 -1 -17 -15 0 -19 26
-9 46 18 39 19 -5 20 -3 9 10 -11 14 -10 17 10 21 21 4 21 5 -9 18 -43 18 -53
40 -12 29 22 -7 29 -5 29 6 0 8 -10 14 -25 14 -18 0 -23 4 -19 15 4 10 13 13
24 10 13 -4 19 1 24 20 8 30 36 34 36 4z m-100 -16 c0 -10 -7 -27 -15 -37 -12
-16 -15 -17 -20 -4 -7 19 -3 41 10 50 16 12 25 9 25 -9z m4470 -132 c32 -105
35 -121 21 -121 -4 0 -21 44 -36 98 -15 53 -30 103 -32 110 -3 6 0 12 6 12 5
0 24 -44 41 -99z m-4455 31 c-6 -7 -35 18 -35 31 0 5 9 2 20 -8 11 -10 18 -20
15 -23z m6511 22 c-3 -9 1 -25 9 -37 8 -12 15 -29 15 -39 0 -14 -4 -16 -24 -8
-17 6 -26 5 -29 -3 -4 -9 -7 -9 -17 0 -11 10 -11 15 0 28 9 11 10 19 3 26 -8
8 -13 7 -17 0 -9 -14 -26 -14 -26 -1 0 9 64 46 84 49 4 1 5 -6 2 -15z m-1287
-10 c2 -2 -5 -4 -17 -4 -30 0 -35 -15 -17 -49 17 -34 20 -71 5 -71 -5 0 -10 9
-10 19 0 11 -9 40 -19 64 -11 25 -17 48 -14 51 5 5 64 -3 72 -10z m-669 -74
c0 -5 -4 -10 -9 -10 -5 0 -16 -3 -25 -6 -9 -3 -16 -1 -16 4 0 9 16 17 43 21 4
0 7 -3 7 -9z m-4486 -16 c9 -23 7 -36 -4 -29 -5 3 -10 1 -10 -4 0 -6 -7 -11
-16 -11 -10 0 -14 -6 -11 -14 6 -15 -18 -30 -33 -21 -5 3 -11 1 -15 -5 -3 -5
-11 -10 -17 -10 -7 0 -6 6 2 15 7 8 20 15 30 15 13 0 16 6 12 26 -3 20 0 26
17 31 11 3 21 9 21 14 0 15 17 10 24 -7z m6376 6 c0 -5 -7 -10 -15 -10 -8 0
-15 5 -15 10 0 6 7 10 15 10 8 0 15 -4 15 -10z m-6355 -70 c-3 -5 -15 -10 -26
-10 -10 0 -19 5 -19 10 0 6 12 10 26 10 14 0 23 -4 19 -10z m5891 -35 c-10 -8
-24 -16 -30 -18 -7 -3 -2 -14 12 -29 12 -13 22 -36 22 -51 0 -28 15 -44 25
-27 7 12 35 13 35 2 0 -5 -11 -14 -24 -22 -21 -11 -27 -10 -40 3 -9 9 -16 25
-16 37 0 12 -11 36 -25 54 -20 26 -23 35 -13 43 16 13 39 21 58 22 11 0 10 -3
-4 -14z m-1071 -37 c20 -107 39 -174 52 -184 11 -10 8 -15 -20 -33 -38 -24
-47 -26 -47 -11 0 6 7 10 16 10 11 0 14 6 9 20 -3 11 -2 20 3 20 4 0 1 30 -8
68 -23 92 -30 142 -20 142 5 0 11 -15 15 -32z m1218 -47 c-20 -17 -63 -30 -68
-20 -7 11 55 40 68 32 5 -3 5 -8 0 -12z m-1880 -76 c19 -41 20 -45 9 -45 -7 0
-42 63 -42 75 0 17 19 -1 33 -30z m-3438 -3 c0 -9 -4 -23 -8 -29 -6 -9 12 -13
65 -15 67 -3 73 -5 76 -25 2 -15 10 -23 23 -23 10 0 19 -7 19 -15 0 -8 -7 -15
-15 -15 -18 0 -21 -54 -5 -95 9 -22 13 -25 25 -15 13 10 13 14 -1 27 -23 24
-8 28 20 6 l25 -20 -34 -33 c-19 -19 -36 -32 -38 -29 -6 9 -27 100 -27 119 0
11 -4 20 -9 20 -17 0 -29 -26 -29 -65 0 -36 -6 -45 -52 -86 -35 -32 -57 -45
-71 -42 -20 6 -27 23 -8 23 6 0 8 8 4 19 -3 11 -1 22 5 26 15 9 12 58 -5 81
-14 18 -14 18 -15 0 0 -14 -5 -17 -22 -12 -13 3 -27 6 -32 6 -5 0 -3 7 4 15
10 12 7 27 -11 80 -13 36 -29 65 -36 65 -7 0 -13 5 -13 10 0 6 17 10 39 10 21
0 52 7 67 15 39 20 61 19 59 -3z m4220 -203 c-15 -112 -21 -189 -16 -210 12
-50 44 -153 51 -161 3 -4 113 25 245 64 432 128 570 169 588 175 11 3 17 0 17
-9 0 -9 -17 -19 -42 -25 -112 -27 -214 -56 -221 -63 -6 -6 151 -524 189 -623
3 -9 2 -17 -4 -17 -5 0 -14 12 -20 28 -10 24 -171 525 -187 580 -8 29 10 32
-265 -50 -118 -36 -231 -69 -250 -74 -46 -13 -45 -19 26 -246 31 -101 59 -196
62 -213 7 -45 -13 -19 -31 40 -8 28 -54 178 -101 334 l-86 283 20 157 c27 208
30 225 40 215 4 -5 -2 -88 -15 -185z m1345 1 c0 -11 -259 -95 -267 -86 -10 10
-4 12 127 54 140 46 140 46 140 32z m114 -35 c11 -8 16 -15 11 -15 -4 0 0 -9
10 -20 21 -23 21 -23 -24 -39 -39 -13 -41 -12 -44 18 -1 15 -6 19 -19 15 -10
-3 -18 -1 -18 5 0 6 5 11 10 11 6 0 10 7 10 16 0 10 6 14 15 10 8 -3 15 -1 15
4 0 14 12 12 34 -5z m-2085 -228 c53 -169 66 -227 47 -206 -9 10 -133 409
-128 414 11 11 21 -13 81 -208z m1606 -142 c41 -129 78 -242 81 -250 4 -8 1
-15 -4 -15 -9 0 -172 471 -172 495 0 3 4 5 9 5 6 0 44 -106 86 -235z m489 177
c15 -44 27 -53 74 -55 23 -1 42 -4 42 -8 0 -13 -33 -15 -70 -6 -19 4 -46 11
-60 14 -37 8 -50 22 -50 54 0 29 14 39 23 17 3 -8 6 -5 6 5 1 28 23 15 35 -21z
m-2479 -53 c10 -14 1 -21 -19 -13 -9 3 -13 10 -10 15 7 12 21 11 29 -2z m70
-56 c27 -30 30 -40 16 -62 -17 -26 -101 11 -101 46 0 7 -9 13 -21 13 -12 0
-17 4 -13 11 3 6 15 9 25 6 10 -3 22 -1 25 4 10 17 43 9 69 -18z m-135 -29 c0
-8 -4 -14 -10 -14 -5 0 -10 9 -10 21 0 11 5 17 10 14 6 -3 10 -13 10 -21z m48
-64 c7 0 12 -5 12 -11 0 -6 -6 -9 -13 -6 -10 4 -13 -2 -9 -20 6 -32 -14 -23
-21 9 -2 13 -8 32 -12 43 -8 19 -8 19 12 3 11 -10 25 -18 31 -18z m-223 -25
c49 -45 49 -45 36 -80 -14 -41 -3 -65 30 -65 11 0 19 -4 19 -10 0 -14 -33 -12
-54 3 -19 14 -23 47 -11 83 4 15 1 26 -10 35 -9 8 -28 24 -42 37 -17 16 -31
21 -46 16 -19 -6 -20 -5 -8 10 20 24 33 20 86 -29z m279 9 c23 -9 20 -23 -4
-17 -11 3 -20 9 -20 14 0 11 3 11 24 3z m71 -24 c3 -5 -3 -10 -14 -10 -12 0
-21 5 -21 10 0 6 6 10 14 10 8 0 18 -4 21 -10z m60 -20 c8 -13 -15 -13 -35 0
-12 8 -11 10 7 10 12 0 25 -4 28 -10z m270 -2 c-11 -6 -34 -23 -51 -37 -17
-14 -40 -33 -50 -41 -144 -113 -264 -212 -263 -218 0 -4 19 -59 42 -122 33
-89 47 -115 62 -118 50 -7 63 -13 67 -30 3 -11 15 -22 27 -25 17 -4 21 -2 17
9 -3 8 0 14 5 14 7 0 9 -11 7 -25 -6 -28 10 -45 22 -25 6 9 12 10 26 1 18 -10
18 -10 -3 -11 -13 0 -23 -4 -23 -10 0 -5 4 -10 9 -10 5 0 12 -11 15 -24 3 -13
9 -31 12 -40 3 -9 2 -16 -4 -16 -5 0 -13 12 -17 27 -3 15 -34 53 -68 85 -47
44 -69 58 -92 58 -30 0 -31 2 -76 133 -25 72 -50 146 -56 162 -8 26 -13 30
-41 27 -28 -2 -32 1 -32 23 0 14 5 25 12 25 9 0 9 3 0 12 -14 14 -16 48 -3 48
5 0 11 -6 14 -14 3 -8 16 -16 28 -18 34 -5 36 -27 3 -25 -20 1 -29 -3 -32 -15
-3 -16 0 -16 45 -3 56 17 63 18 63 6 0 -4 -13 -12 -28 -17 -25 -8 -27 -11 -16
-32 11 -22 13 -21 126 70 65 52 113 98 111 105 -4 10 -10 10 -26 2 -17 -10
-19 -9 -14 5 3 8 2 18 -3 21 -6 4 -10 10 -10 15 0 12 53 -11 63 -27 9 -14 43
4 84 44 12 13 32 23 45 23 22 -1 22 -1 3 -12z m-215 -20 c0 -6 -7 -7 -16 -4
-9 3 -18 6 -20 6 -3 0 -3 4 1 10 7 11 35 2 35 -12z m-236 -30 c-3 -4 -12 -8
-20 -8 -12 0 -12 4 -2 20 8 13 15 16 19 8 4 -7 5 -16 3 -20z m2581 22 c-3 -5
-13 -10 -21 -10 -8 0 -12 5 -9 10 3 6 13 10 21 10 8 0 12 -4 9 -10z m-45 -10
c0 -5 -11 -10 -25 -10 -14 0 -25 5 -25 10 0 6 11 10 25 10 14 0 25 -4 25 -10z
m-2582 -22 c-3 -7 -13 -15 -24 -17 -16 -3 -17 -1 -5 13 16 19 34 21 29 4z m42
-39 c0 -11 -4 -17 -10 -14 -5 3 -10 13 -10 21 0 8 5 14 10 14 6 0 10 -9 10
-21z m-100 -4 c-7 -8 -16 -12 -21 -9 -13 8 -1 24 18 24 13 0 13 -3 3 -15z
m352 -7 c-6 -6 -15 -8 -19 -4 -4 4 -1 11 7 16 19 12 27 3 12 -12z m-50 -30
c-6 -6 -15 -8 -19 -4 -4 4 -1 11 7 16 19 12 27 3 12 -12z m-46 -33 c-21 -16
-32 -13 -21 4 3 6 14 11 23 11 15 -1 15 -2 -2 -15z m1339 -35 c8 0 15 -4 15
-10 0 -15 -36 -12 -50 5 -6 8 -8 19 -4 26 5 8 9 7 16 -5 5 -9 16 -16 23 -16z
m-119 -192 c-3 -15 -1 -30 4 -33 6 -3 10 -17 10 -30 0 -31 27 -57 51 -50 10 4
19 2 19 -3 0 -5 -10 -12 -22 -16 -26 -7 -68 32 -68 64 0 10 -16 37 -35 60 -36
43 -45 66 -22 57 8 -3 20 -1 28 4 20 13 41 -20 35 -53z m-4083 38 c8 -21 -3
-27 -19 -11 -18 17 -18 25 0 25 8 0 16 -6 19 -14z m4266 -27 c1 -4 -8 -9 -19
-12 -23 -6 -25 5 -8 36 11 21 11 21 19 2 4 -11 8 -23 8 -26z m-4199 -9 c0 -5
-14 -10 -31 -10 -17 0 -28 4 -24 10 3 6 17 10 31 10 13 0 24 -4 24 -10z m3167
-12 c-2 -7 2 -21 11 -30 14 -16 13 -18 -2 -18 -19 0 -31 23 -22 45 7 18 20 20
13 3z m1368 -175 c20 -65 38 -126 41 -135 3 -10 1 -18 -4 -18 -8 0 -50 119
-88 253 -3 9 -1 17 4 17 6 0 27 -53 47 -117z m-4609 60 c7 -30 13 -37 29 -34
19 3 19 2 2 -16 -9 -11 -17 -28 -17 -39 -1 -18 -1 -18 -11 -2 -5 10 -9 24 -8
30 3 29 -14 58 -34 58 -20 0 -20 0 -1 19 26 27 29 26 40 -16z m54 10 c0 -20
-3 -24 -11 -16 -7 7 -9 19 -6 27 10 24 17 19 17 -11z m3419 20 c12 10 14 9 8
-5 -4 -11 -2 -18 6 -18 8 0 8 -3 -2 -9 -7 -5 -10 -14 -7 -20 4 -6 4 -11 1 -11
-12 0 -32 26 -40 50 -6 20 -5 23 6 13 10 -10 16 -10 28 0z m-444 -43 c3 -5 -3
-10 -15 -10 -12 0 -18 5 -15 10 3 6 10 10 15 10 5 0 12 -4 15 -10z m-2955 -30
c9 -16 8 -20 -5 -20 -8 0 -15 9 -15 20 0 11 2 20 5 20 2 0 9 -9 15 -20z m4100
0 c0 -5 -4 -10 -10 -10 -13 0 -13 -44 1 -91 10 -33 14 -37 31 -28 14 7 23 6
35 -7 22 -21 26 -61 7 -68 -9 -3 -12 -11 -8 -17 4 -8 0 -9 -14 -5 -21 7 -21 7
-5 -41 9 -26 17 -49 18 -51 2 -2 31 8 66 22 68 28 79 31 79 17 0 -4 -34 -21
-75 -37 -41 -16 -74 -33 -72 -39 49 -141 64 -175 74 -175 7 0 13 -7 13 -15 0
-17 14 -19 40 -5 11 6 21 6 24 1 3 -5 -7 -14 -24 -21 -37 -15 -40 -32 -19
-103 11 -36 13 -57 7 -55 -13 5 -38 81 -38 116 0 26 -1 26 -43 8 -50 -23 -80
-53 -74 -76 10 -39 -12 -30 -24 10 -10 32 -17 40 -36 40 -12 0 -23 5 -23 10 0
6 9 10 20 10 11 0 20 1 20 3 0 2 -11 37 -25 77 -26 77 -30 100 -17 100 4 0 22
-47 40 -105 36 -116 36 -116 95 -60 15 14 32 23 39 19 7 -5 9 -2 6 7 -3 8 -20
59 -38 114 -18 55 -34 101 -35 103 -2 2 -33 -5 -70 -16 -43 -13 -65 -16 -62
-9 2 6 30 20 62 29 32 10 61 20 63 23 3 3 -2 31 -11 62 -63 230 -68 257 -44
266 20 9 27 8 27 -3z m380 -35 c0 -8 7 -15 15 -15 23 0 18 -17 -6 -23 -22 -6
-79 2 -79 10 0 2 5 13 10 24 13 23 60 26 60 4z m-4440 -10 c0 -8 -4 -15 -9
-15 -5 0 -11 7 -15 15 -3 9 0 15 9 15 8 0 15 -7 15 -15z m3027 1 c-3 -8 1 -17
9 -20 8 -3 14 -14 14 -24 0 -14 7 -19 29 -19 15 0 39 -9 52 -21 30 -29 36 -28
54 8 20 39 19 50 -5 50 -11 0 -20 5 -20 10 0 6 8 10 18 10 10 0 23 5 29 11 8
8 13 8 17 0 4 -6 2 -11 -3 -11 -6 0 -11 -12 -11 -27 0 -47 -10 -69 -39 -86
-27 -16 -29 -15 -47 7 -24 29 -53 39 -70 25 -20 -16 1 -49 31 -49 13 0 27 -4
30 -10 4 -6 -6 -10 -24 -10 -23 0 -29 -4 -25 -15 6 -14 -15 -15 -66 -5 -3 0 3
5 12 11 17 9 16 12 -2 47 -30 55 -27 72 9 52 15 -8 17 -6 13 15 -2 14 -10 25
-17 25 -14 0 -27 25 -18 34 12 12 35 6 30 -8z m-3117 -68 c0 -5 -4 -8 -10 -8
-5 0 -10 10 -10 23 0 18 2 19 10 7 5 -8 10 -18 10 -22z m60 11 c-7 -11 -14
-18 -17 -15 -8 8 5 36 17 36 7 0 7 -6 0 -21z m5015 0 c4 -6 5 -12 2 -15 -7 -7
-37 7 -37 17 0 13 27 11 35 -2z m-53 -17 c-7 -2 -12 -13 -12 -25 -1 -22 -1
-22 -15 -3 -19 26 -19 34 3 39 20 4 42 -5 24 -11z m-1257 -66 c13 -49 27 -74
56 -102 31 -30 41 -35 53 -25 15 13 31 57 27 79 -1 6 2 12 8 12 15 0 19 -23 8
-45 -7 -13 -6 -20 2 -23 12 -4 16 -62 4 -62 -47 -1 -30 -64 33 -130 35 -36 46
-56 54 -100 6 -30 20 -64 32 -77 l22 -23 -22 -45 c-17 -35 -19 -50 -12 -70 14
-38 -7 -31 -23 7 -11 28 -11 34 5 50 22 22 23 38 3 38 -17 0 -20 17 -5 22 7 2
5 16 -5 40 -8 21 -15 48 -15 60 0 30 -44 95 -69 103 -12 3 -23 23 -32 52 -8
32 -31 67 -68 108 -53 59 -91 137 -91 189 0 35 18 5 35 -58z m-2123 47 c13
-15 34 -91 52 -184 5 -27 -66 -61 -119 -58 -24 2 -47 0 -51 -4 -4 -4 -1 -7 7
-7 8 0 28 -17 45 -38 25 -29 31 -46 29 -73 -4 -50 -30 -45 -30 6 1 55 -30 89
-82 88 -21 -1 -31 1 -23 4 8 4 26 17 40 30 14 13 31 21 38 18 44 -17 63 -16
92 5 30 22 37 48 24 97 -5 20 -9 21 -28 11 -11 -6 -26 -18 -32 -26 -6 -8 -16
-12 -23 -8 -8 5 -4 13 11 27 l23 19 -35 -5 c-38 -6 -30 0 40 29 l35 14 -44 1
c-32 1 -42 4 -38 15 3 7 1 18 -5 24 -6 6 -7 15 -4 21 11 17 61 13 78 -6z
m3328 8 c0 -9 -24 -21 -41 -21 -16 0 -10 18 9 23 28 8 32 7 32 -2z m-4976 -7
c28 -11 17 -24 -16 -19 -24 4 -27 3 -14 -3 18 -8 18 -9 2 -15 -26 -10 -34 -9
-32 6 5 33 26 44 60 31z m86 -16 c0 -19 -2 -20 -10 -8 -13 19 -13 30 0 30 6 0
10 -10 10 -22z m5015 -16 c-8 -9 -25 20 -18 31 3 5 10 2 15 -7 6 -10 7 -20 3
-24z m-5075 -19 c0 -5 -5 -15 -10 -23 -8 -12 -10 -11 -10 8 0 12 5 22 10 22 6
0 10 -3 10 -7z m80 -13 c0 -11 -4 -20 -10 -20 -5 0 -10 9 -10 20 0 11 5 20 10
20 6 0 10 -9 10 -20z m4594 -162 c32 -101 61 -189 64 -197 2 -8 -1 -12 -8 -9
-7 2 -37 78 -66 169 -61 187 -69 219 -57 219 5 0 35 -82 67 -182z m66 162 c-6
-11 -13 -20 -15 -20 -3 0 -5 9 -5 20 0 11 7 20 15 20 13 0 14 -4 5 -20z m260
-2 c0 -19 -2 -20 -10 -8 -13 19 -13 30 0 30 6 0 10 -10 10 -22z m110 2 c0 -5
-6 -10 -14 -10 -8 0 -18 5 -21 10 -3 6 3 10 14 10 12 0 21 -4 21 -10z m50 6
c0 -11 -19 -15 -25 -6 -3 5 1 10 9 10 9 0 16 -2 16 -4z m-25 -36 c-28 -12 -37
-12 -30 0 3 6 16 10 28 9 21 0 21 -1 2 -9z m-5135 -14 c0 -15 -18 -31 -26 -23
-7 7 7 37 17 37 5 0 9 -6 9 -14z m5006 -23 c-11 -11 -19 6 -11 24 8 17 8 17
12 0 3 -10 2 -21 -1 -24z m-4936 5 c0 -16 -3 -19 -11 -11 -6 6 -8 16 -5 22 11
17 16 13 16 -11z m4800 8 c0 -8 -10 -13 -25 -13 -26 0 -34 12 -12 20 23 10 37
7 37 -7z m-1585 -5 c-16 -15 -589 -200 -599 -193 -10 6 554 198 589 201 11 0
15 -3 10 -8z m1205 -21 c0 -5 -6 -10 -14 -10 -8 0 -16 -10 -18 -22 -2 -16 -10
-24 -28 -25 -14 -1 -18 0 -7 3 9 3 17 10 17 16 0 5 -7 8 -15 4 -9 -3 -15 0
-15 9 0 8 15 19 33 24 43 12 47 13 47 1z m-4496 -25 c3 -8 1 -15 -3 -15 -5 0
-11 7 -15 15 -3 8 -1 15 3 15 5 0 11 -7 15 -15z m69 -10 c-5 -13 -23 -22 -23
-11 0 15 14 35 21 31 4 -3 6 -12 2 -20z m4956 -10 c-7 -7 -13 -5 -19 5 -15 24
-11 31 10 18 13 -9 16 -16 9 -23z m-1899 -102 c23 -88 39 -130 40 -105 0 14
46 17 54 3 3 -4 17 -6 31 -3 15 2 25 0 25 -7 0 -6 -8 -11 -17 -12 -12 -1 -9
-4 7 -9 22 -6 23 -8 8 -15 -19 -8 -31 -4 -63 19 -13 10 -25 12 -34 7 -17 -11
-15 -21 73 -276 36 -104 66 -196 66 -203 0 -36 -21 11 -64 137 -43 127 -49
139 -66 129 -12 -8 -18 -24 -18 -50 -1 -21 -3 -42 -7 -47 -3 -5 0 -13 6 -16
37 -23 69 -183 39 -193 -11 -3 -12 -2 -4 7 19 21 -3 86 -34 102 -22 10 -24 13
-9 16 22 6 22 22 0 53 -10 14 -16 33 -15 43 2 10 -2 25 -8 33 -9 10 -9 14 -1
14 6 0 11 12 11 26 0 21 -4 25 -20 21 -24 -6 -27 8 -4 17 24 9 46 7 39 -4 -3
-5 1 -10 10 -10 25 0 27 23 7 76 -16 40 -92 312 -92 329 0 3 4 5 9 5 4 0 18
-39 31 -87z m299 11 c12 -42 21 -77 19 -79 -2 -1 -13 -5 -24 -9 -28 -9 -41 31
-17 49 21 15 7 38 -18 30 -23 -8 -26 10 -3 19 12 4 14 14 9 36 -4 16 -2 30 3
30 5 0 19 -34 31 -76z m1629 57 c3 -8 -1 -12 -9 -9 -7 2 -15 10 -17 17 -3 8 1
12 9 9 7 -2 15 -10 17 -17z m-4978 -17 c0 -8 -4 -12 -10 -9 -5 3 -10 13 -10
21 0 8 5 12 10 9 6 -3 10 -13 10 -21z m3520 -34 c0 -16 -4 -30 -10 -30 -5 0
-10 14 -10 30 0 17 5 30 10 30 6 0 10 -13 10 -30z m-3496 -16 c4 -10 1 -14 -6
-12 -15 5 -23 28 -10 28 5 0 13 -7 16 -16z m19 -44 c3 -11 1 -20 -4 -20 -5 0
-9 9 -9 20 0 11 2 20 4 20 2 0 6 -9 9 -20z m2930 -10 c4 -15 0 -20 -14 -20
-10 0 -19 -4 -19 -10 0 -5 -4 -10 -10 -10 -15 0 -12 13 8 38 21 27 28 27 35 2z
m561 4 c9 -24 7 -28 -9 -14 -17 14 -20 30 -6 30 5 0 12 -7 15 -16z m85 -42
c-5 -2 -9 -12 -9 -23 0 -11 -7 -22 -15 -25 -8 -4 -15 -12 -15 -20 0 -25 -18
-15 -22 14 -3 15 -8 36 -12 47 -7 18 -6 18 12 -2 26 -29 32 -29 32 0 0 30 9
39 25 24 7 -7 9 -13 4 -15z m375 -38 c9 -22 -3 -32 -14 -14 -12 19 -12 30 -1
30 5 0 12 -7 15 -16z m1173 0 c-16 -8 -36 -13 -45 -11 -14 3 -12 6 8 15 14 6
34 11 45 11 16 0 15 -3 -8 -15z m-87 -53 c5 -11 7 -33 4 -49 -5 -23 -1 -33 17
-46 l23 -16 -31 0 c-18 0 -35 5 -38 10 -3 6 -2 10 3 10 13 0 8 73 -5 77 -13 5
-6 33 8 33 4 0 13 -9 19 -19z m-302 -326 c114 -362 118 -375 105 -375 -5 0
-32 75 -61 168 -29 92 -77 245 -107 341 -30 96 -55 182 -55 190 0 41 26 -30
118 -324z m-4908 295 c0 -5 -12 -10 -27 -10 -22 0 -25 2 -13 10 20 13 40 13
40 0z m170 -1 c0 -8 -72 -17 -89 -11 -26 9 -7 17 39 18 28 0 50 -3 50 -7z m30
-3 c0 -8 -4 -17 -9 -21 -6 -3 -9 4 -8 15 1 23 17 28 17 6z m-160 -11 c-7 -8
-17 -12 -22 -9 -6 4 -5 10 3 15 22 14 33 10 19 -6z m4625 -19 c26 17 34 8 13
-15 -11 -10 -9 -16 10 -31 26 -21 28 -30 7 -30 -7 0 -18 8 -24 18 -8 14 -12
15 -22 5 -19 -19 -31 -16 -24 7 4 11 2 20 -4 20 -6 0 -11 7 -11 15 0 8 -5 15
-11 15 -5 0 -7 5 -3 12 5 8 13 4 25 -11 17 -21 19 -21 44 -5z m-4505 4 c0 -5
-9 -10 -21 -10 -11 0 -17 5 -14 10 3 6 13 10 21 10 8 0 14 -4 14 -10z m-2113
-52 c-3 -7 -5 -2 -5 12 0 14 2 19 5 13 2 -7 2 -19 0 -25z m4833 6 c0 -8 -4
-14 -10 -14 -5 0 -10 -9 -10 -21 0 -13 -5 -19 -13 -16 -7 3 -21 -1 -32 -9 -10
-8 -25 -14 -32 -14 -14 0 -18 38 -5 55 12 16 52 36 62 30 5 -3 11 -1 15 5 8
13 25 3 25 -16z m224 -36 c4 -12 16 -18 36 -18 16 0 30 -4 30 -9 0 -5 -17 -7
-38 -4 -33 4 -38 3 -39 -17 -3 -30 -8 -33 -32 -18 -21 13 -21 13 6 35 23 20
25 26 15 47 -6 13 -8 27 -4 31 6 6 13 -6 26 -47z m-5694 11 c0 -11 -4 -17 -10
-14 -5 3 -10 15 -10 26 0 11 5 17 10 14 6 -3 10 -15 10 -26z m4599 22 c9 -6
12 -19 9 -36 -4 -19 0 -30 13 -38 23 -15 25 -53 2 -61 -12 -5 -14 -9 -5 -18 7
-7 12 -22 12 -34 0 -12 6 -24 13 -27 15 -6 42 -95 32 -105 -4 -4 -10 -1 -12 6
-7 20 -51 14 -63 -9 -7 -11 -18 -18 -25 -15 -10 3 -11 -2 -5 -22 14 -47 188
-607 257 -827 36 -115 70 -214 76 -220 7 -7 7 -5 2 4 -6 10 -4 12 5 6 14 -9
132 24 125 36 -3 4 3 5 12 3 10 -3 38 2 62 11 50 17 61 18 61 7 0 -5 -85 -35
-190 -67 -113 -35 -187 -62 -183 -68 4 -6 1 -7 -6 -2 -15 9 -103 -14 -96 -25
3 -5 -5 -6 -17 -2 -11 3 -19 1 -16 -4 4 -5 -7 -9 -23 -10 -41 -2 -46 -11 -27
-44 14 -25 15 -31 3 -37 -12 -7 -12 -16 1 -61 19 -65 13 -102 -19 -102 -20 1
-21 2 -4 14 9 7 17 20 17 28 0 19 -42 32 -51 16 -8 -13 -39 -4 -39 12 0 5 18
10 40 10 29 0 40 4 40 15 0 8 -4 15 -9 15 -11 0 -9 39 3 58 8 13 -7 47 -21 47
-4 0 -7 3 -6 7 2 4 -16 0 -38 -8 -49 -17 -49 -17 -49 -5 0 6 25 18 55 27 30
10 52 21 50 25 -3 4 4 5 15 2 23 -6 26 8 9 56 -7 20 -18 31 -30 31 -32 0 -39
31 -18 74 21 43 24 72 9 81 -5 3 -35 -5 -67 -18 -84 -35 -129 -49 -187 -56
l-51 -6 2 -59 c2 -46 0 -57 -10 -47 -7 7 -11 36 -11 66 2 65 -7 70 -75 44 -55
-21 -71 -23 -71 -11 0 4 26 17 58 29 50 19 63 20 108 10 45 -9 62 -8 130 13
84 24 135 46 146 63 6 10 4 16 -25 75 -10 19 -15 38 -12 43 3 4 -1 21 -9 37
-8 16 -16 51 -18 78 -2 38 -8 51 -24 58 -11 5 -31 30 -45 55 -20 38 -28 45
-49 43 -30 -4 -342 -102 -352 -111 -4 -4 13 -67 37 -141 24 -74 45 -149 45
-166 0 -16 -16 -86 -35 -155 -25 -89 -35 -144 -35 -196 0 -40 1 -73 3 -73 2 0
82 25 177 55 95 30 182 55 192 55 53 0 -5 -24 -219 -90 -131 -40 -276 -86
-322 -101 -47 -16 -93 -29 -104 -29 -10 0 -33 -6 -50 -14 -59 -26 -198 -68
-205 -61 -11 10 17 23 126 57 106 34 124 51 74 73 -27 12 -29 25 -3 25 18 0
19 3 9 33 -15 45 -28 58 -49 52 -9 -3 -20 -1 -23 4 -4 5 3 12 14 16 11 4 18
10 15 15 -3 5 0 10 6 12 6 2 12 19 13 38 4 48 5 50 15 50 5 0 7 -9 4 -20 -7
-25 -5 -25 48 0 59 26 76 25 83 -6 4 -15 14 -33 22 -41 18 -18 13 -26 -9 -17
-9 3 -20 19 -26 36 -9 25 -14 28 -33 23 -30 -10 -30 -8 -17 -43 9 -28 14 -31
42 -26 l32 4 -34 -16 c-23 -10 -36 -12 -41 -5 -10 17 -43 -12 -45 -40 -1 -13
4 -39 12 -57 7 -18 12 -36 9 -40 -3 -5 -2 -13 2 -19 5 -8 46 0 137 29 l131 41
-4 66 c-2 39 2 90 11 125 l16 58 -29 -6 c-23 -4 -28 -2 -23 9 3 8 10 15 15 15
6 0 17 8 24 18 13 16 13 16 14 -3 2 -31 40 106 40 144 0 26 -45 197 -55 209
-1 1 -33 -7 -70 -19 -49 -15 -64 -23 -54 -30 11 -7 9 -9 -8 -9 -13 0 -23 -5
-23 -11 0 -6 -6 -9 -14 -6 -8 3 -22 -1 -33 -8 -10 -9 -13 -14 -5 -15 17 0 15
-20 -2 -20 -8 0 -17 -14 -21 -31 -5 -20 -18 -37 -36 -48 -16 -9 -29 -22 -29
-28 0 -7 -4 -13 -9 -13 -6 0 -4 -18 3 -42 8 -25 18 -42 26 -40 8 2 10 -3 6
-13 -3 -9 -6 -24 -6 -34 0 -25 -113 -80 -117 -57 -1 5 -7 12 -14 17 -23 14 -3
20 24 8 22 -10 30 -8 56 10 16 12 28 27 26 34 -2 7 -9 31 -15 54 -8 33 -14 41
-27 36 -11 -4 -14 -3 -9 5 4 7 2 12 -4 12 -6 0 -8 5 -5 10 4 6 1 18 -6 26 -10
13 -7 15 22 13 39 -3 74 13 89 41 14 26 13 30 -6 23 -14 -5 -15 -3 -5 15 18
34 14 51 -11 44 -13 -3 -27 -11 -33 -17 -14 -18 -43 -26 -50 -15 -4 6 -1 10 5
10 7 0 23 9 37 20 14 11 39 20 55 20 20 0 27 4 22 12 -5 8 0 9 14 6 19 -5 22
-2 22 25 0 55 -9 58 -79 37 -34 -11 -76 -20 -92 -20 -16 0 -29 -4 -29 -10 0
-8 -117 -50 -141 -50 -26 0 -2 18 51 39 33 13 60 28 60 34 0 5 6 7 13 4 25
-10 107 14 107 30 0 11 4 13 13 5 18 -15 57 4 57 28 0 11 -4 20 -9 20 -5 0 -8
6 -8 13 3 31 -25 98 -46 108 -12 6 -32 23 -44 38 l-23 26 -20 -24 c-11 -13
-23 -21 -27 -18 -3 4 -12 2 -20 -4 -11 -10 -11 -14 2 -23 10 -7 13 -18 9 -29
-8 -23 -17 -21 -29 6 -7 15 -18 21 -34 19 -18 -2 -22 2 -17 14 4 9 1 23 -5 30
-9 11 -6 14 15 14 17 0 25 -4 20 -11 -4 -7 2 -9 17 -7 14 2 23 9 21 17 -2 8 3
11 12 8 8 -3 21 2 30 12 18 20 21 36 6 26 -5 -3 -23 2 -39 11 -25 15 -34 16
-56 6 -32 -15 -89 -16 -80 -2 3 6 17 10 30 10 34 0 39 15 18 60 -19 41 -31 48
-51 28 -9 -9 -15 -9 -24 0 -9 9 -5 14 19 22 25 9 29 15 25 36 -3 19 -7 22 -18
13 -8 -6 -14 -10 -15 -8 -6 42 -4 78 4 70 7 -7 18 2 34 30 27 48 29 66 7 90
-14 16 -21 15 -112 -18 -53 -19 -169 -56 -257 -83 -88 -26 -205 -64 -260 -84
-107 -39 -115 -40 -115 -28 0 5 93 39 208 76 114 37 296 97 405 133 108 35
201 62 206 59 5 -3 14 1 21 9 7 8 18 15 24 15 6 0 162 49 346 109 184 60 367
119 405 131 39 12 77 24 85 27 8 3 0 -9 -19 -27 -23 -21 -41 -30 -54 -26 -33
8 -67 -11 -67 -38 0 -14 5 -28 11 -32 6 -3 9 -17 6 -31 -3 -19 2 -27 24 -39
36 -18 37 -26 2 -18 -25 7 -26 6 -20 -29 4 -25 1 -39 -9 -48 -18 -15 -18 -33
3 -72 9 -18 16 -38 15 -44 -2 -7 6 -25 18 -40 11 -16 25 -55 30 -88 6 -33 20
-79 31 -102 21 -48 23 -57 10 -48 -16 9 -26 -65 -12 -87 6 -10 9 -23 6 -28 -4
-6 -1 -10 4 -10 6 0 10 -3 9 -7 -2 -5 3 -23 11 -41 12 -30 15 -31 27 -15 12
17 13 16 14 -4 0 -25 31 -46 53 -37 8 3 18 1 22 -5 4 -7 -4 -11 -21 -11 -22 0
-24 -3 -15 -14 8 -10 9 -16 1 -21 -17 -10 -12 -73 6 -83 11 -6 15 -18 12 -35
-3 -17 1 -33 12 -45 10 -10 20 -28 22 -38 3 -16 11 -19 49 -17 25 1 77 13 116
25 l70 23 -151 483 -150 484 -33 -6 c-18 -3 -49 -9 -70 -13 -58 -10 -31 12 32
26 58 13 62 19 44 70 -6 17 -8 43 -5 56 12 46 96 81 135 56z m-4629 -28 c0
-19 -3 -24 -10 -17 -6 6 -8 18 -4 27 9 24 14 21 14 -10z m6186 -22 c26 -21 22
-31 -14 -31 -19 0 -22 3 -13 13 8 10 7 17 -1 25 -19 19 1 14 28 -7z m-6136
-21 c0 -5 -4 -10 -10 -10 -5 0 -10 5 -10 10 0 6 5 10 10 10 6 0 10 -4 10 -10z
m6278 -18 c14 -10 6 -42 -11 -42 -6 0 -7 3 -4 6 3 4 2 15 -4 25 -10 20 -3 24
19 11z m699 -46 c5 -22 15 -42 22 -44 10 -3 12 0 8 11 -3 9 0 18 9 21 8 3 14
0 14 -7 0 -7 6 -23 13 -37 18 -34 29 -90 18 -90 -5 0 -12 12 -15 26 -5 17 -11
23 -17 17 -6 -6 -2 -28 12 -62 17 -39 19 -55 11 -63 -9 -9 -12 -8 -12 6 0 10
-13 48 -30 85 -16 37 -34 80 -40 96 -9 23 -13 26 -20 15 -8 -13 -10 -12 -10 3
0 21 -10 22 -36 2 -27 -20 -31 -19 -31 15 0 17 4 30 9 30 4 0 8 -4 8 -9 0 -5
16 -9 35 -8 32 1 34 3 28 26 -4 19 -2 23 5 16 6 -6 15 -28 19 -49z m913 49 c0
-10 -62 -36 -78 -32 -12 2 -7 8 18 19 36 17 60 22 60 13z m-7853 -90 c7 -22
18 -42 24 -46 8 -5 8 -9 -1 -14 -15 -9 -18 -6 -41 55 -13 34 -15 50 -8 48 7
-2 18 -22 26 -43z m7278 5 c4 -6 11 -7 17 -4 6 4 9 1 6 -7 -3 -8 -13 -13 -23
-11 -16 3 -17 -2 -11 -40 4 -24 22 -75 41 -115 21 -43 35 -87 35 -110 0 -22 9
-53 22 -73 12 -19 27 -50 34 -68 11 -31 11 -32 -10 -26 -29 9 -33 14 -18 23 9
6 3 13 -20 24 -27 13 -30 17 -15 22 28 11 8 27 -25 20 -27 -6 -29 -5 -23 14 4
14 2 21 -6 21 -11 0 -11 2 0 13 10 10 15 9 25 -5 19 -26 22 -23 20 26 -2 51
-11 69 -30 62 -17 -6 -18 6 -3 21 8 8 6 19 -7 42 -12 21 -21 27 -25 19 -5 -7
-11 -9 -15 -5 -4 3 -1 13 5 21 10 11 7 17 -11 30 -18 13 -19 16 -5 16 25 0 21
35 -5 53 l-23 16 23 0 c13 1 22 7 22 16 0 17 16 20 25 5z m-650 -50 c5 -22 10
-27 23 -22 16 6 16 4 0 -19 -9 -14 -18 -36 -20 -50 -1 -13 -7 -22 -13 -19 -5
3 -8 11 -7 18 2 8 -2 20 -9 28 -9 11 -8 14 5 14 13 0 15 6 10 28 -4 15 -11 35
-15 44 -13 25 -11 32 5 19 8 -7 18 -25 21 -41z m-3675 10 c0 -11 -4 -20 -8
-20 -4 0 -8 9 -9 20 -1 11 2 20 8 20 5 0 9 -9 9 -20z m3430 -27 c0 -3 -9 -3
-20 0 -11 3 -20 2 -20 -3 0 -4 11 -11 25 -14 14 -4 25 -11 25 -16 0 -12 -2
-12 -34 0 -20 7 -26 6 -26 -5 0 -20 -22 -65 -31 -65 -4 0 -3 14 3 32 9 26 8
33 -5 43 -19 14 -12 26 9 18 10 -4 14 3 14 20 0 25 1 25 30 11 17 -9 30 -18
30 -21z m-3505 -4 c12 -19 -3 -22 -27 -5 l-22 16 21 0 c12 0 25 -5 28 -11z
m83 -21 c-2 -6 -10 -14 -16 -16 -7 -2 -10 2 -6 12 7 18 28 22 22 4z m-43 -19
c11 -17 0 -20 -21 -4 -17 13 -17 14 -2 15 9 0 20 -5 23 -11z m3767 -91 c0 -13
2 -36 3 -51 1 -15 7 -33 14 -40 14 -14 14 -27 1 -27 -15 0 -27 31 -35 88 -5
35 -3 52 4 52 6 0 12 -10 13 -22z m-584 -110 c7 1 12 -2 12 -7 0 -4 11 -6 25
-3 25 4 36 -13 13 -20 -25 -9 5 -30 33 -24 23 4 29 2 29 -12 0 -15 -7 -17 -35
-14 -22 3 -40 12 -46 23 -11 22 -35 25 -42 7 -4 -10 -8 -9 -16 2 -7 10 -7 16
0 18 6 3 4 13 -5 26 -17 27 -36 93 -28 100 3 3 15 -18 27 -47 12 -28 27 -51
33 -49z m-2718 62 c-24 -15 -31 -11 -18 10 9 13 16 16 23 9 7 -7 5 -13 -5 -19z
m2170 1 c0 -5 12 -24 27 -42 15 -17 28 -45 29 -61 1 -16 5 -41 9 -56 4 -15 8
-44 10 -65 5 -50 35 -117 53 -117 9 0 30 12 49 26 45 34 177 93 230 103 47 9
71 -5 26 -15 -69 -15 -181 -61 -232 -96 -31 -21 -60 -39 -66 -41 -6 -2 -1 -33
13 -75 19 -60 30 -78 67 -108 25 -20 45 -43 45 -50 0 -20 -1 -19 -57 34 -42
38 -55 60 -73 117 -13 39 -24 71 -25 72 -1 2 -35 -8 -75 -22 -40 -14 -80 -25
-89 -25 -28 0 3 17 74 40 39 13 73 25 77 27 5 2 -1 22 -12 44 -12 22 -23 63
-26 91 -9 93 -34 109 -132 88 -112 -24 -108 -25 -120 7 -5 15 -13 36 -17 46
-4 10 -3 17 4 17 6 0 18 -16 26 -36 9 -22 20 -34 28 -31 37 14 135 28 164 24
23 -4 33 -2 33 8 0 15 -59 29 -84 19 -9 -3 -16 -1 -16 5 0 6 -17 11 -40 11
-23 0 -40 5 -40 11 0 12 84 8 140 -6 14 -4 20 -3 14 2 -11 8 -34 47 -34 57 0
3 5 6 10 6 6 0 10 -4 10 -9z m-2412 -110 c18 -59 15 -70 -31 -130 -24 -31 -46
-64 -50 -73 -3 -9 4 -47 16 -85 l22 -69 77 24 c72 22 80 28 115 75 20 29 38
47 40 40 5 -15 -48 -92 -64 -93 -7 0 -13 -4 -13 -10 0 -5 -33 -19 -72 -31 -40
-11 -74 -22 -76 -23 -1 -2 14 -52 33 -112 34 -108 44 -157 26 -138 -5 5 -36
98 -70 207 -68 221 -68 214 0 299 42 53 42 56 23 132 -10 41 12 30 24 -13z
m2642 16 c63 -10 75 -15 75 -31 0 -11 -6 -21 -14 -24 -10 -3 -12 0 -8 11 6 16
-1 19 -92 33 -30 4 -46 2 -51 -6 -10 -17 -40 -5 -40 15 0 18 25 18 130 2z
m574 -38 c-16 -17 -16 -19 0 -25 9 -4 32 -4 51 -1 21 4 35 1 38 -6 2 -8 34
-12 97 -12 91 0 94 -1 102 -26 12 -35 120 -93 134 -72 12 19 46 22 52 4 3 -10
0 -12 -11 -8 -10 4 -22 -2 -31 -15 -15 -20 -15 -20 -80 16 -36 20 -73 49 -82
66 -15 24 -21 27 -38 18 -14 -8 -44 -7 -105 1 -79 11 -145 22 -163 26 -5 2
-11 3 -15 4 -5 1 -2 5 5 10 12 7 18 24 21 54 1 4 10 3 22 -3 20 -11 20 -13 3
-31z m-1870 -46 c20 -57 20 -57 0 -49 -9 4 -25 -1 -34 -9 -16 -14 -18 -14 -23
0 -4 8 -13 15 -22 15 -27 0 -16 17 18 27 26 7 32 14 32 36 -1 41 11 33 29 -20z
m1329 13 c10 3 17 1 17 -5 0 -6 -5 -11 -11 -11 -6 0 -8 -9 -4 -20 3 -11 3 -20
-2 -20 -14 1 -44 50 -37 61 5 8 8 8 14 0 3 -7 14 -9 23 -5z m-298 -46 c3 -5
11 -7 18 -4 7 2 18 -5 25 -17 12 -19 11 -20 -7 -14 -17 5 -21 2 -21 -15 0 -17
-4 -19 -25 -14 -15 4 -25 2 -25 -5 0 -6 -16 -11 -35 -11 -19 0 -35 5 -35 10 0
6 9 10 20 10 23 0 26 10 8 28 -9 9 -8 12 5 12 10 0 20 -6 23 -14 3 -8 13 -12
25 -9 22 6 22 8 9 34 -11 19 3 28 15 9z m-2681 -45 c22 -17 17 -29 -7 -19 -16
6 -32 34 -19 34 4 0 16 -7 26 -15z m-2836 -7 c7 -7 12 -16 12 -20 0 -15 -15
-8 -28 12 -13 22 -3 27 16 8z m6472 -7 c0 -10 7 -31 14 -47 13 -25 13 -29 -2
-40 -25 -20 -39 -17 -45 9 -2 12 -8 30 -12 40 -5 12 -3 17 9 17 9 0 16 8 16
20 0 11 5 20 10 20 6 0 10 -8 10 -19z m-3570 -1 c0 -5 11 -10 25 -10 14 0 28
-7 31 -15 4 -8 12 -15 20 -15 8 0 14 -4 14 -10 0 -16 -20 -12 -47 10 -14 11
-31 20 -38 20 -7 0 -15 7 -19 15 -3 8 -1 15 4 15 6 0 10 -4 10 -10z m4734
-140 c20 -63 39 -121 41 -128 3 -8 0 -12 -7 -10 -6 2 -22 33 -34 69 -12 35
-23 58 -23 51 -1 -7 -5 -10 -11 -7 -5 3 -10 -1 -10 -9 0 -9 -4 -16 -10 -16 -5
0 -10 4 -10 10 0 13 -33 0 -43 -17 -10 -17 -30 -17 -22 0 4 6 0 4 -8 -6 -13
-15 -19 -16 -36 -7 -26 13 -28 33 -2 25 11 -3 26 1 36 12 10 9 29 17 44 18 14
0 26 5 26 12 0 6 3 15 8 19 4 4 7 2 7 -4 0 -7 7 -12 15 -12 19 0 19 -4 -4 63
-18 51 -18 79 0 60 4 -5 23 -60 43 -123z m-7589 100 c3 -5 -1 -10 -9 -10 -8 0
-18 5 -21 10 -3 6 1 10 9 10 8 0 18 -4 21 -10z m4465 -28 c0 -10 -110 -46
-117 -38 -3 3 0 8 8 11 103 38 109 39 109 27z m-4440 -17 c7 -8 8 -15 2 -15
-5 0 -15 7 -22 15 -7 8 -8 15 -2 15 5 0 15 -7 22 -15z m4492 -12 c11 -13 13
-25 7 -40 -11 -31 -24 -29 -39 6 -19 46 2 67 32 34z m-4452 -25 c0 -19 -2 -20
-10 -8 -13 19 -13 30 0 30 6 0 10 -10 10 -22z m50 -8 c0 -5 -9 -10 -21 -10
-11 0 -17 5 -14 10 3 6 13 10 21 10 8 0 14 -4 14 -10z m5678 -17 c6 -16 14
-56 17 -91 4 -34 11 -65 16 -68 12 -7 11 -51 -1 -59 -6 -4 -4 -16 6 -31 9 -13
12 -24 6 -24 -14 0 -52 63 -52 87 0 10 5 24 11 30 16 16 -24 53 -56 53 -18 0
-28 7 -35 26 -12 31 -12 34 -2 34 5 0 14 -11 20 -25 9 -19 19 -25 42 -25 27 0
30 3 30 33 0 17 -7 41 -15 51 -17 22 -19 36 -6 36 5 0 13 -12 19 -27z m1264
11 c17 -9 47 -17 67 -18 28 -1 36 -5 36 -21 0 -23 43 -95 56 -95 5 0 9 -4 9
-10 0 -24 -31 -7 -47 27 -24 49 -46 62 -71 40 -24 -22 -32 -22 -83 8 -36 20
-40 25 -21 25 13 0 35 -9 49 -19 23 -19 25 -19 42 -3 20 19 18 32 -4 32 -8 0
-29 9 -47 20 -24 14 -43 18 -73 14 -30 -4 -36 -3 -25 5 22 16 77 13 112 -5z
m-6902 -14 c0 -11 -4 -20 -10 -20 -5 0 -10 9 -10 20 0 11 5 20 10 20 6 0 10
-9 10 -20z m2193 -18 c-2 -10 5 -26 16 -36 21 -19 28 -46 14 -46 -22 1 -53 13
-53 22 0 5 10 6 21 3 l22 -7 -22 23 c-11 12 -21 26 -21 31 0 4 -16 0 -35 -9
-36 -17 -49 -57 -23 -65 8 -3 4 -9 -10 -17 -18 -9 -21 -16 -12 -25 8 -11 5
-15 -15 -18 -29 -6 -29 -8 -11 39 8 21 16 47 18 57 2 11 21 30 43 42 49 29 75
31 68 6z m-2173 -44 c0 -6 -7 -5 -15 2 -8 7 -15 17 -15 22 0 6 7 5 15 -2 8 -7
15 -17 15 -22z m6545 -168 c54 -175 57 -193 47 -229 -7 -21 -12 -57 -12 -80 0
-29 -4 -40 -11 -35 -8 4 -9 24 -4 58 4 28 8 71 9 95 l3 43 -61 -5 c-34 -3 -73
-9 -89 -13 -22 -5 -26 -3 -21 9 6 18 -9 52 -39 85 -18 19 -19 25 -7 32 17 11
30 4 30 -16 0 -19 11 -18 68 11 28 14 55 25 61 25 14 0 16 -7 -19 105 -34 110
-33 105 -22 105 5 0 35 -86 67 -190z m180 180 c3 -5 -3 -10 -15 -10 -12 0 -18
5 -15 10 3 6 10 10 15 10 5 0 12 -4 15 -10z m-6715 -56 c0 -8 -4 -12 -10 -9
-5 3 -10 13 -10 21 0 8 5 12 10 9 6 -3 10 -13 10 -21z m-40 -34 c0 -5 -4 -10
-10 -10 -5 0 -10 -7 -10 -15 0 -8 -9 -15 -20 -15 -26 0 -25 7 3 31 25 21 37
24 37 9z m33 -27 c-5 -13 -25 -18 -36 -7 -3 3 2 14 11 25 17 20 35 8 25 -18z
m2564 -21 c-17 -16 -59 -50 -92 -77 -59 -49 -60 -49 -26 -10 43 50 133 125
143 119 4 -3 -7 -17 -25 -32z m4883 29 c0 -10 -110 -49 -150 -52 -40 -4 -130
13 -130 24 0 6 19 7 53 2 71 -10 94 -8 158 14 64 23 69 24 69 12z m-7420 -51
c8 -5 12 -12 9 -15 -8 -8 -39 5 -39 16 0 11 11 11 30 -1z m65 -10 c-3 -5 -13
-10 -21 -10 -8 0 -14 5 -14 10 0 6 9 10 21 10 11 0 17 -4 14 -10z m6015 2 c0
-9 -164 -62 -190 -62 -30 0 8 19 85 43 89 28 105 31 105 19z m-5990 -48 c0 -8
-4 -12 -10 -9 -5 3 -10 13 -10 21 0 8 5 12 10 9 6 -3 10 -13 10 -21z m6760
-12 c0 -10 -230 -86 -237 -78 -9 9 -6 10 102 49 101 36 135 44 135 29z m450
-1 c0 -19 -22 -23 -38 -7 -15 15 -14 16 11 16 15 0 27 -4 27 -9z m-7172 -30
c3 -8 -1 -12 -9 -9 -7 2 -15 10 -17 17 -3 8 1 12 9 9 7 -2 15 -10 17 -17z
m2362 10 c0 -4 -22 -29 -50 -54 -51 -47 -54 -54 -43 -95 5 -20 10 -23 32 -17
14 3 71 10 126 14 103 8 195 38 256 83 15 12 56 27 91 34 35 7 96 20 137 29
40 8 76 14 78 11 11 -11 -26 -34 -46 -29 -11 3 -29 2 -38 -1 -16 -7 -15 -9 7
-27 l25 -21 -28 7 c-17 3 -35 1 -43 -6 -9 -7 -14 -8 -14 -1 0 6 5 14 10 17 23
14 8 23 -21 13 -28 -10 -30 -13 -24 -44 3 -21 2 -34 -5 -34 -5 0 -10 8 -10 18
0 9 -4 23 -9 31 -11 17 -63 2 -109 -33 -17 -12 -59 -31 -92 -41 -72 -22 -73 5
10 -261 33 -103 57 -190 54 -193 -10 -10 -21 20 -84 225 l-64 204 -73 0 c-70
0 -139 -15 -287 -61 -35 -11 -64 -15 -69 -10 -5 5 18 17 55 28 l63 18 3 42 c2
23 -1 51 -7 61 -11 21 -7 27 34 62 l30 25 -29 -33 c-23 -25 -27 -35 -18 -44 7
-7 12 -33 12 -60 0 -36 3 -46 14 -42 10 4 14 20 12 52 -1 44 2 50 49 94 49 47
65 56 65 39z m780 -31 c-19 -12 -30 -12 -30 -1 0 10 31 20 40 14 2 -2 -2 -8
-10 -13z m-3124 -25 c-3 -9 -11 -13 -16 -10 -8 5 -7 11 1 21 14 18 24 11 15
-11z m6090 -45 c-1 -45 -3 -47 -21 -23 -10 14 -10 21 2 40 9 13 16 23 18 23 1
0 2 -18 1 -40z m1064 30 c0 -5 -4 -10 -10 -10 -5 0 -10 5 -10 10 0 6 5 10 10
10 6 0 10 -4 10 -10z m-3590 -9 c0 -5 -6 -11 -14 -14 -11 -4 -12 -14 -6 -41 6
-28 5 -36 -6 -36 -8 0 -14 10 -14 25 0 18 -5 25 -20 25 -29 0 -24 13 13 32 37
19 47 21 47 9z m-3572 -19 c2 -7 -2 -10 -12 -6 -9 3 -16 11 -16 16 0 13 23 5
28 -10z m92 -7 c-7 -9 -15 -13 -18 -10 -3 2 1 11 8 20 7 9 15 13 18 10 3 -2
-1 -11 -8 -20z m220 15 c0 -5 -10 -10 -22 -10 -19 0 -20 2 -8 10 19 13 30 13
30 0z m3105 -10 c16 0 40 -28 32 -37 -4 -3 -13 0 -22 7 -9 8 -29 10 -50 7 -40
-7 -48 9 -10 19 14 3 25 11 26 18 0 7 2 7 6 -1 2 -7 10 -13 18 -13z m-3265 -5
c14 -16 10 -18 -14 -9 -9 3 -16 10 -16 15 0 14 16 11 30 -6z m209 -6 c11 -19
11 -21 -4 -15 -9 3 -19 6 -21 6 -2 0 -4 7 -4 15 0 21 13 19 29 -6z m-304 -9
c4 -6 -5 -10 -20 -10 -15 0 -24 4 -20 10 3 6 12 10 20 10 8 0 17 -4 20 -10z
m155 -2 c0 -15 -18 -17 -30 -3 -9 11 -8 14 9 12 12 -1 21 -5 21 -9z m37 -5
c-9 -9 -19 -14 -23 -11 -10 10 6 28 24 28 15 0 15 -1 -1 -17z m5383 5 c0 -9 3
-9 8 -2 4 6 21 10 37 9 41 -3 44 -6 15 -14 -14 -4 -24 -13 -22 -19 1 -7 -5
-12 -13 -12 -8 0 -15 -4 -15 -10 0 -5 -7 -6 -17 -3 -12 5 -14 3 -8 -7 6 -10 4
-12 -8 -7 -10 4 -17 2 -17 -5 0 -7 -6 -6 -16 2 -12 11 -15 11 -12 1 2 -7 -7
-15 -20 -17 -14 -2 -21 0 -17 6 3 5 1 10 -4 10 -6 0 -11 -7 -11 -16 0 -11 -6
-14 -22 -8 -31 9 -31 9 -18 34 9 16 15 19 23 11 14 -14 30 -15 22 -1 -8 13 22
43 35 35 5 -3 10 0 10 7 1 8 7 5 17 -7 14 -18 15 -18 9 -1 -5 14 -2 17 9 12 8
-3 15 -1 15 4 0 6 5 10 10 10 6 0 10 -6 10 -12z m-5191 -48 c12 0 21 -5 21
-11 0 -6 -7 -8 -16 -5 -9 3 -19 6 -23 6 -15 0 -51 37 -43 44 3 4 14 -2 23 -13
10 -12 27 -21 38 -21z m2216 0 c3 -5 25 -10 48 -10 30 0 38 -3 30 -11 -16 -16
-103 -2 -103 17 0 16 16 19 25 4z m3352 -80 c12 -41 21 -76 18 -78 -3 -3 -83
4 -275 28 -41 5 -78 9 -82 9 -4 1 -5 8 -2 16 6 16 34 21 34 6 0 -5 24 -11 53
-14 28 -3 94 -11 145 -18 50 -7 95 -10 98 -6 5 5 -11 63 -34 126 -3 9 0 12 9
9 7 -2 24 -38 36 -78z m-2864 0 c3 -11 1 -20 -4 -20 -5 0 -9 2 -9 4 0 2 -3 11
-6 20 -3 9 -2 16 4 16 5 0 12 -9 15 -20z m-1093 1 c0 -8 -141 -61 -163 -61
-42 0 101 66 151 69 6 1 12 -3 12 -8z m216 -141 c24 -74 44 -143 44 -152 0
-23 -16 -23 -24 -1 -6 15 -9 15 -28 -5 -17 -17 -19 -24 -9 -35 8 -10 9 -22 2
-40 -12 -30 -31 -44 -31 -23 0 8 5 18 10 21 18 11 10 32 -17 45 -26 12 -27 13
-8 20 12 4 27 15 34 24 7 9 20 16 27 16 18 0 17 1 -2 72 -17 59 -32 73 -41 38
-3 -11 -9 -20 -14 -20 -5 0 -9 -9 -9 -20 0 -11 -5 -20 -10 -20 -6 0 -8 -17 -5
-42 l5 -43 -14 40 c-11 34 -11 42 0 56 8 8 17 30 20 47 5 22 12 32 25 32 23 0
23 -5 -1 65 -23 68 -23 68 -9 63 5 -2 30 -64 55 -138z m1104 130 c0 -5 -6 -10
-12 -10 -7 0 -23 -3 -35 -6 -13 -4 -23 -2 -23 4 0 11 20 19 53 21 9 0 17 -3
17 -9z m-853 -86 c1 -29 -2 -34 -16 -28 -9 3 -26 9 -38 11 -30 7 -29 19 2 27
14 4 25 11 25 16 0 6 6 10 13 10 8 0 13 -14 14 -36z m263 26 c0 -5 -5 -10 -11
-10 -6 0 -9 -14 -7 -32 2 -26 -1 -33 -17 -36 -17 -4 -18 -2 -6 11 15 19 5 45
-12 28 -16 -16 -37 -14 -37 3 0 8 13 17 30 21 16 4 32 11 35 16 8 12 25 12 25
-1z m2835 -130 c3 -5 1 -10 -4 -10 -6 0 -11 5 -11 10 0 6 2 10 4 10 3 0 8 -4
11 -10z m-3135 -70 c0 -5 -4 -10 -8 -10 -5 0 -7 -15 -4 -32 3 -22 1 -30 -6
-23 -17 17 -23 63 -9 68 20 9 27 8 27 -3z m1323 -41 c5 -17 11 -20 31 -15 34
8 33 -2 0 -14 -23 -9 -26 -15 -21 -40 5 -24 1 -33 -23 -50 -26 -19 -30 -19
-30 -5 0 9 9 19 20 22 24 6 25 13 4 39 -15 19 -15 18 -11 -3 4 -16 0 -23 -10
-23 -12 0 -14 8 -10 37 4 21 11 39 17 41 5 2 10 10 10 18 0 22 17 17 23 -7z
m-963 -58 c3 -1 -5 -6 -18 -12 -18 -7 -22 -14 -17 -29 6 -17 2 -20 -29 -20
-37 0 -42 -5 -28 -27 6 -10 17 -10 46 -2 44 12 66 6 66 -17 0 -13 -3 -14 -15
-4 -8 6 -22 9 -33 6 -37 -12 -144 -17 -137 -6 3 5 13 10 21 10 8 0 14 7 14 15
0 10 -10 15 -27 15 -22 0 -25 2 -13 10 8 5 28 10 44 10 21 0 27 4 22 16 -5 12
-1 14 15 9 15 -5 22 -2 26 13 4 15 12 20 31 17 15 -1 29 -4 32 -4z m-1005 -51
c7 -23 45 -27 45 -5 0 8 5 15 10 15 6 0 10 -8 10 -18 0 -10 6 -24 12 -30 10
-10 5 -13 -27 -11 -22 1 -50 -2 -62 -6 -26 -8 -33 9 -8 19 22 8 18 24 -6 31
-17 6 -19 9 -8 16 21 13 27 11 34 -11z m1745 -52 c0 -10 -5 -18 -11 -18 -5 0
-7 -4 -4 -10 3 -5 -1 -10 -10 -10 -8 0 -18 8 -22 18 -3 9 -15 25 -27 35 l-21
18 25 -7 c14 -3 31 -11 38 -16 9 -8 12 -4 12 13 0 19 2 21 10 9 5 -8 10 -23
10 -32z m805 13 c-6 -5 -41 -19 -80 -31 -44 -15 -80 -34 -97 -52 -24 -26 -169
-98 -196 -98 -16 0 -4 -101 14 -121 24 -26 57 -140 44 -153 -7 -7 -10 -6 -10
3 0 7 -7 37 -16 66 -12 42 -19 53 -31 48 -10 -4 -14 -2 -10 4 10 15 -15 83
-30 83 -8 0 -30 -7 -50 -15 -42 -18 -43 -18 -43 -6 0 5 22 17 50 26 27 9 52
20 55 25 9 14 -36 60 -58 60 -12 0 -44 -7 -71 -15 -27 -8 -52 -13 -54 -10 -9
9 3 14 71 32 66 17 66 17 90 -5 13 -12 27 -18 33 -13 5 4 46 22 90 40 75 30
141 78 129 94 -3 4 -3 5 0 3 3 -2 38 7 78 19 78 25 107 30 92 16z m-2041 -51
c6 0 21 7 33 15 14 10 24 11 28 5 3 -5 -5 -15 -19 -22 -16 -6 -26 -19 -26 -32
0 -20 0 -20 -14 0 -13 17 -18 18 -45 7 -20 -7 -31 -8 -31 -1 0 5 9 12 20 15
10 3 23 15 27 27 6 18 7 18 11 4 2 -10 9 -18 16 -18z m-95 -30 c0 -9 -4 -8 -9
5 -5 11 -9 27 -9 35 0 9 4 8 9 -5 5 -11 9 -27 9 -35z m1196 10 c10 -11 14 -20
8 -20 -5 0 -18 9 -28 20 -10 11 -14 20 -8 20 5 0 18 -9 28 -20z m-677 -180
c36 -123 42 -154 26 -138 -10 11 -91 277 -86 283 11 11 20 -12 60 -145z m-378
134 c0 -14 -41 -41 -79 -54 -34 -11 -42 -18 -47 -46 -3 -18 -3 -37 1 -43 3 -6
2 -11 -4 -11 -11 0 -19 28 -19 71 0 23 7 28 55 43 30 10 57 24 60 32 5 14 33
20 33 8z m3460 -9 c0 -10 -10 -15 -30 -15 -16 0 -30 -5 -30 -11 0 -7 -10 -9
-26 -5 -17 5 -23 3 -19 -4 3 -5 2 -10 -3 -10 -6 0 -8 -9 -5 -20 3 -11 1 -20
-5 -20 -5 0 -13 12 -16 26 -7 25 12 52 39 54 41 5 68 10 73 14 10 11 22 6 22
-9z m-3379 -25 c15 -17 18 -17 38 -4 17 12 25 13 36 4 17 -14 47 -71 41 -78
-7 -7 -26 8 -26 21 0 7 -9 18 -20 25 -17 10 -25 10 -43 -3 -26 -19 -57 -21
-39 -3 9 9 8 16 -5 30 -9 10 -22 18 -30 18 -7 0 -13 5 -13 11 0 15 42 1 61
-21z m629 21 c0 -11 -31 -24 -39 -16 -3 3 1 10 9 15 19 12 30 12 30 1z m46
-70 c3 -45 1 -71 -6 -71 -5 0 -10 18 -10 39 0 22 -5 52 -10 67 -8 20 -8 29 2
35 18 11 19 8 24 -70z m2130 33 c-3 -9 -6 -18 -6 -20 0 -3 -4 -3 -10 1 -11 7
-2 35 12 35 6 0 7 -7 4 -16z m-2236 -19 c-7 -9 -15 -13 -18 -10 -3 2 1 11 8
20 7 9 15 13 18 10 3 -2 -1 -11 -8 -20z m-69 -7 c0 -13 3 -17 6 -10 2 6 9 12
14 12 6 0 6 -7 0 -18 -7 -14 -4 -32 14 -70 13 -29 20 -52 14 -52 -6 0 -21 25
-35 54 -17 39 -29 53 -40 49 -7 -3 -14 0 -14 6 0 6 5 11 10 11 6 0 10 9 10 20
0 28 20 25 21 -2z m1966 -4 c-2 -3 -35 -13 -73 -24 -100 -29 -96 -27 -84 -50
12 -22 1 -27 -19 -7 -12 10 -13 8 -7 -8 5 -11 9 -30 11 -43 3 -29 4 -30 45
-33 42 -4 60 6 60 31 0 26 -14 32 -46 20 -15 -6 -29 -8 -33 -5 -10 10 23 25
56 25 29 0 33 -4 39 -34 7 -39 0 -56 -23 -56 -9 0 -13 -6 -9 -15 3 -8 1 -15
-3 -15 -5 0 -11 7 -15 15 -4 11 -18 14 -53 12 -46 -3 -48 -4 -51 -35 -1 -18
-3 -38 -3 -44 -2 -22 119 -425 150 -503 20 -50 50 -159 45 -167 -13 -20 18 -4
72 37 57 45 88 59 64 30 -17 -21 -140 -102 -174 -115 -24 -9 -27 -8 -23 4 8
21 -82 91 -144 111 -27 9 -49 20 -49 25 0 17 -32 40 -57 40 -24 0 -25 -2 -20
-36 4 -20 19 -55 34 -77 19 -28 24 -42 15 -45 -6 -2 -10 -7 -8 -11 12 -18 -16
-29 -90 -35 -86 -6 -146 -27 -203 -70 -19 -14 -39 -26 -44 -26 -4 0 -23 -11
-41 -25 -18 -14 -36 -25 -39 -25 -8 0 -165 -117 -199 -148 -23 -21 -32 -24
-73 -18 -47 8 -58 4 -195 -69 -50 -27 -75 -32 -46 -10 11 8 27 15 36 15 9 0
27 11 39 24 13 14 33 26 45 28 11 2 21 10 21 18 0 8 4 21 8 27 10 15 -26 54
-72 77 -30 16 -31 16 -31 -4 0 -14 -6 -20 -17 -18 -12 2 -17 -3 -15 -14 2 -13
-4 -18 -21 -18 -51 0 -66 -47 -37 -116 19 -44 19 -48 4 -65 -10 -11 -22 -19
-27 -19 -6 0 -2 9 7 19 16 18 16 22 2 50 -9 16 -16 37 -16 46 0 8 -7 15 -16
15 -11 0 -14 5 -10 16 3 9 6 21 6 26 0 6 3 8 7 5 9 -9 53 33 53 50 0 7 9 13
20 13 11 0 24 8 27 18 4 9 12 21 20 25 25 15 15 47 -17 54 -16 3 -30 9 -30 13
0 5 -16 8 -36 7 -21 -1 -39 5 -45 13 -7 13 -9 13 -9 0 -1 -12 -3 -11 -11 3
-14 23 -39 22 -39 -3 0 -11 5 -20 11 -20 8 0 8 -5 -1 -15 -7 -8 -10 -24 -7
-36 3 -13 1 -19 -6 -16 -7 2 -15 19 -18 38 -4 27 -7 30 -13 16 -5 -11 -2 -27
9 -43 20 -31 12 -44 -13 -20 -21 18 -52 12 -52 -11 0 -8 -4 -11 -10 -8 -5 3
-10 -1 -10 -9 0 -9 -4 -16 -10 -16 -5 0 -10 -7 -10 -16 0 -8 -4 -13 -9 -9 -5
3 -19 -9 -31 -26 -18 -24 -21 -40 -17 -75 6 -55 9 -59 37 -44 18 10 24 9 31
-1 18 -29 9 -39 -35 -39 -29 0 -43 4 -43 13 1 6 -3 34 -7 61 -6 33 -5 55 3 68
6 10 11 20 11 22 0 3 -28 38 -61 78 l-61 73 36 15 c41 17 42 26 6 108 -13 29
-25 42 -39 42 -34 0 -51 27 -51 82 0 48 1 50 24 44 32 -8 76 12 76 35 0 10 4
20 10 24 6 4 6 15 0 31 -8 19 -7 25 2 22 22 -8 25 -51 6 -85 l-19 -31 113 35
c62 19 114 36 115 37 2 2 -46 161 -91 304 -4 13 -3 22 3 22 6 0 33 -72 61
-160 43 -134 54 -160 68 -156 9 3 42 14 73 23 l56 18 -38 125 c-39 127 -47
162 -30 144 7 -7 54 -150 87 -266 4 -13 -10 -21 -68 -39 -40 -13 -77 -26 -81
-30 -5 -3 3 -43 16 -88 14 -44 21 -83 17 -86 -5 -3 -21 33 -35 80 -14 47 -30
85 -34 85 -5 0 -59 -16 -121 -35 -73 -22 -126 -33 -151 -30 l-39 4 0 -40 c0
-36 3 -41 35 -54 38 -16 48 -31 75 -110 l18 -54 -29 -6 c-16 -4 -31 -10 -34
-15 -3 -4 21 -36 52 -71 37 -42 55 -56 51 -41 -3 12 -2 22 4 22 15 0 35 24 30
38 -2 7 6 12 22 12 24 0 26 3 21 28 -6 25 -5 25 8 10 15 -18 37 -24 37 -10 0
4 -5 13 -12 20 -7 7 -8 12 -3 12 4 0 0 9 -10 20 -10 11 -24 20 -32 20 -11 0
-18 19 -14 43 0 4 -2 7 -6 7 -5 0 -9 11 -9 25 -2 21 1 24 12 14 13 -11 18 -5
15 15 -1 5 5 6 14 2 9 -3 21 -6 26 -6 5 0 9 -9 9 -19 0 -15 -5 -18 -21 -14
-20 6 -21 3 -15 -23 4 -16 16 -36 26 -46 23 -19 60 -13 60 9 0 9 6 13 15 9 8
-3 15 -2 15 3 0 4 11 6 25 3 14 -2 22 -9 18 -15 -3 -5 -1 -7 5 -3 6 3 22 2 37
-4 15 -6 32 -7 38 -3 7 4 26 8 42 9 51 2 55 4 49 19 -4 9 0 15 8 15 23 0 39
45 28 76 -12 31 -12 34 -1 34 10 0 25 -48 22 -72 -1 -11 8 -18 29 -23 17 -4
34 -4 37 -1 4 3 1 41 -5 84 -7 42 -14 106 -17 142 -3 35 -7 65 -8 66 -1 1 -15
6 -31 10 -21 5 -27 4 -22 -5 5 -7 0 -11 -13 -11 -11 0 -22 -9 -26 -20 -5 -17
-25 -29 -25 -16 0 2 -3 11 -6 20 -4 11 -1 16 10 16 9 0 16 5 16 11 0 7 -9 9
-21 6 -12 -3 -19 -1 -16 6 6 19 49 24 102 12 l50 -10 6 -60 c3 -33 20 -143 37
-245 17 -102 33 -202 35 -224 6 -49 23 -60 59 -38 32 19 34 30 13 58 -20 26
-19 33 8 43 30 12 37 12 38 4 1 -5 5 -16 10 -26 14 -24 27 -13 21 18 -2 15 0
25 7 25 6 0 11 -7 11 -15 0 -8 7 -15 16 -15 10 0 13 6 9 19 -5 15 1 20 31 26
20 3 48 14 61 22 20 13 23 22 18 47 l-6 31 21 -25 22 -25 -6 42 c-9 64 -56
204 -69 208 -7 2 -25 6 -40 10 -17 3 -35 18 -45 35 -9 17 -25 33 -34 36 -10 3
-31 19 -48 35 -21 22 -36 29 -50 24 -14 -5 -20 -2 -20 9 0 9 -7 16 -16 16 -9
0 -29 9 -44 20 -16 11 -35 18 -43 14 -9 -3 -16 3 -20 17 -4 13 -4 25 -2 27 2
2 25 -10 50 -28 28 -19 60 -32 80 -33 19 0 32 -4 29 -8 -5 -9 67 -53 84 -50 6
1 12 -3 12 -10 0 -22 60 -87 85 -91 14 -3 25 -2 25 2 0 5 -20 76 -45 159 -25
83 -45 158 -45 168 0 26 17 3 27 -36 9 -35 33 -55 33 -27 0 16 18 31 27 23 2
-3 8 -22 13 -41 7 -32 6 -36 -11 -36 -33 0 -32 -23 5 -141 19 -63 45 -154 57
-204 26 -107 35 -122 59 -100 9 8 21 15 26 15 15 1 78 59 72 66 -6 6 27 44 38
44 3 0 3 -8 0 -17 -9 -29 7 -42 57 -49 44 -6 47 -5 58 22 8 21 8 33 0 44 -16
21 -37 70 -45 102 -5 24 -3 29 21 35 36 9 51 6 86 -19 27 -19 30 -19 95 -3
103 25 100 17 57 144 -24 72 -42 111 -51 111 -8 0 -14 5 -14 11 0 5 5 7 10 4
14 -9 12 29 -2 43 -7 7 -9 12 -6 12 13 0 -24 105 -39 114 -11 6 -12 10 -4 15
13 9 -24 141 -39 141 -6 0 -10 13 -10 29 0 33 -19 91 -29 91 -8 0 -82 -22
-326 -98 -88 -28 -163 -48 -166 -46 -4 2 -10 25 -14 51 -9 60 -38 139 -61 164
-9 11 -14 22 -10 27 18 17 67 -82 86 -171 7 -35 16 -54 23 -52 17 6 490 152
662 204 78 24 117 29 102 15z m-3107 -9 c-7 -8 -22 -15 -33 -15 -25 0 -12 16
18 23 11 3 22 5 24 6 2 0 -2 -6 -9 -14z m60 -14 c-6 -12 -8 -27 -4 -33 5 -8 2
-9 -9 -5 -11 4 -22 -1 -29 -13 -7 -11 -21 -20 -30 -20 -12 0 -3 14 30 49 49
51 62 58 42 22z m3671 19 c10 0 19 -5 19 -11 0 -7 -12 -10 -29 -7 -17 2 -28 1
-25 -4 3 -4 18 -8 35 -8 16 0 29 -4 29 -10 0 -16 -66 -12 -80 5 -16 19 -5 49
16 41 9 -3 24 -6 35 -6z m-3466 -10 c3 -5 2 -10 -4 -10 -5 0 -16 -3 -25 -6
-11 -4 -16 -1 -16 10 0 18 35 22 45 6z m1608 -30 c-4 -4 -39 -18 -78 -30 -38
-12 -80 -32 -92 -43 -13 -11 -26 -17 -30 -13 -14 14 37 48 113 75 73 25 108
30 87 11z m-2057 -7 c16 -21 18 -37 4 -28 -5 3 -10 1 -10 -4 0 -6 11 -11 25
-11 14 0 41 -6 60 -14 20 -9 49 -12 70 -9 24 4 35 2 35 -7 0 -7 -6 -10 -12 -7
-7 2 -22 1 -33 -3 -12 -5 -40 0 -70 11 -27 11 -57 19 -66 19 -9 0 -19 7 -23
15 -6 15 -36 21 -36 7 0 -5 7 -17 15 -28 21 -28 18 -40 -5 -19 -11 10 -20 26
-20 37 0 24 -16 23 -37 -2 -25 -29 -44 -27 -30 4 9 18 23 26 54 31 23 3 45 10
48 16 9 13 16 11 31 -8z m184 7 c-20 -13 -40 -13 -40 0 0 6 12 10 28 10 21 0
24 -2 12 -10z m220 -15 c28 0 35 -4 35 -20 0 -14 -13 -24 -50 -37 -62 -22 -62
-22 -70 3 -5 15 -13 20 -30 16 -15 -2 -26 1 -30 11 -7 20 -6 20 34 14 22 -3
35 -11 39 -24 5 -22 26 -19 30 4 2 9 -6 18 -18 21 -11 3 -20 10 -20 17 0 7 8
9 23 4 12 -5 38 -8 57 -9z m563 0 c4 -8 2 -17 -2 -20 -5 -2 -11 4 -14 15 -6
23 8 27 16 5z m-305 -7 c-7 -20 -198 -191 -205 -184 -8 7 185 195 200 196 5 0
7 -5 5 -12z m3848 1 c3 -6 -2 -18 -11 -27 -16 -16 -17 -16 -12 -1 3 9 0 22 -6
28 -8 8 -7 11 5 11 9 0 20 -5 24 -11z m-3498 -55 c-10 -10 -28 6 -28 24 0 15
1 15 17 -1 9 -9 14 -19 11 -23z m3132 1 c0 -19 -5 -35 -10 -35 -16 0 -29 43
-18 58 18 21 28 13 28 -23z m160 20 c16 -19 43 -19 81 1 17 8 36 13 42 11 7
-3 -4 -12 -23 -20 -38 -16 -90 -85 -90 -118 0 -11 -4 -17 -10 -14 -17 10 -11
51 10 70 22 20 26 35 8 35 -14 0 -48 30 -48 42 0 13 16 9 30 -7z m-615 -33
c-8 -9 -25 20 -18 31 3 5 10 2 15 -7 6 -10 7 -20 3 -24z m405 18 c0 -5 -4 -10
-10 -10 -5 0 -10 5 -10 10 0 6 5 10 10 10 6 0 10 -4 10 -10z m380 1 c0 -15
-17 -22 -36 -14 -16 6 -16 7 2 14 27 11 34 10 34 0z m-3420 -31 c0 -5 -9 -10
-20 -10 -11 0 -20 5 -20 10 0 6 9 10 20 10 11 0 20 -4 20 -10z m750 -9 c0 -6
-39 -22 -87 -36 -49 -14 -108 -33 -132 -41 -55 -17 -69 -18 -53 -2 10 10 237
85 265 87 4 1 7 -3 7 -8z m-707 -8 c-7 -2 -19 -2 -25 0 -7 3 -2 5 12 5 14 0
19 -2 13 -5z m761 -25 c32 -72 34 -72 128 -44 89 27 112 31 104 18 -3 -5 -40
-19 -83 -32 -43 -12 -79 -24 -81 -25 -1 -1 7 -31 18 -66 22 -72 23 -79 12 -79
-4 0 -18 31 -30 69 l-23 70 -41 -15 c-47 -16 -58 -17 -58 -5 0 5 16 15 35 21
19 6 35 13 35 16 0 2 -9 18 -20 36 -18 30 -27 68 -15 68 3 0 11 -15 19 -32z
m1839 12 c3 -11 1 -20 -4 -20 -5 0 -9 9 -9 20 0 11 2 20 4 20 2 0 6 -9 9 -20z
m-2502 -52 c0 -13 3 -34 5 -48 3 -15 1 -21 -5 -15 -14 16 -24 85 -11 85 5 0
10 -10 11 -22z m-448 -28 c3 -11 2 -31 -1 -44 -7 -24 -7 -24 -31 -5 -13 10
-20 20 -17 20 3 1 12 2 19 3 6 1 11 11 9 24 -4 27 14 29 21 2z m1957 -30 c7
-13 7 -20 1 -20 -6 0 -15 9 -21 20 -7 13 -7 20 -1 20 6 0 15 -9 21 -20z
m-2170 -16 c0 -8 -9 -14 -20 -14 -23 0 -25 6 -7 24 14 16 27 11 27 -10z m1940
-30 c0 -8 -4 -14 -10 -14 -5 0 -10 9 -10 21 0 11 5 17 10 14 6 -3 10 -13 10
-21z m-2080 -2 c0 -9 9 -23 20 -30 11 -7 20 -19 20 -28 0 -14 3 -14 15 -4 9 8
15 8 15 2 0 -6 3 -18 7 -28 5 -13 3 -16 -10 -11 -21 8 -22 10 8 -68 19 -52 21
-65 10 -65 -8 0 -15 -7 -15 -15 0 -32 -20 -13 -31 30 -6 25 -15 45 -19 45 -9
0 -21 34 -26 70 -1 14 -5 46 -9 73 -3 29 -2 47 5 47 5 0 10 -8 10 -18z m-246
-46 c9 3 16 1 16 -5 0 -6 -8 -12 -17 -12 -17 -1 -17 -2 0 -6 21 -5 23 -23 2
-23 -9 0 -15 -9 -15 -25 0 -14 -4 -25 -10 -25 -5 0 -10 16 -10 35 0 30 -3 35
-24 35 -14 0 -28 5 -32 11 -5 8 1 10 20 7 19 -4 26 -1 26 10 0 11 3 12 14 3 7
-6 21 -9 30 -5z m146 -20 c0 -8 -4 -18 -10 -21 -5 -3 -10 3 -10 14 0 12 5 21
10 21 6 0 10 -6 10 -14z m-1120 -49 c0 -7 -50 1 -60 10 -2 2 2 8 9 13 14 8 51
-8 51 -23z m1184 -42 c-4 -9 -19 -15 -35 -15 -34 0 -39 17 -6 23 42 8 46 7 41
-8z m-784 -24 c0 -14 6 -17 24 -14 35 7 41 -14 6 -22 -28 -6 -43 -25 -20 -25
16 0 12 -17 -6 -24 -26 -10 -43 15 -30 43 8 18 8 25 -1 28 -9 3 -10 9 -1 23
14 22 28 17 28 -9z m2588 4 c-12 -9 -68 -22 -68 -15 0 10 52 29 63 23 5 -3 7
-6 5 -8z m-558 -3 c0 -11 -300 -103 -313 -95 -5 3 59 28 144 54 168 52 169 52
169 41z m-1444 -31 c11 9 14 8 14 -3 0 -20 -205 -234 -212 -222 -4 5 34 52 82
104 78 84 87 96 72 108 -9 6 -25 12 -36 12 -24 0 -177 -49 -189 -60 -13 -12
15 -91 34 -99 12 -4 14 -11 8 -28 -9 -24 -32 -32 -28 -10 2 6 -5 29 -14 51 -9
21 -17 41 -17 45 0 3 -4 12 -8 19 -7 10 -18 8 -53 -7 -60 -25 -99 -34 -99 -21
0 6 13 13 30 16 26 6 29 10 25 33 -2 14 -19 38 -37 53 -18 15 -27 28 -21 28 7
0 30 -15 50 -33 21 -19 45 -36 54 -39 9 -4 54 7 100 24 46 16 107 35 134 42
45 12 52 12 74 -5 18 -15 27 -16 37 -8z m3387 -1 c-3 -11 -9 -17 -14 -14 -14
8 -10 34 5 34 9 0 12 -7 9 -20z m72 -10 c-13 -14 -14 -23 -6 -39 13 -24 5 -50
-39 -115 -35 -51 -50 -57 -25 -10 9 17 13 40 9 57 -6 31 3 35 21 10 11 -15 13
-13 20 16 6 28 3 37 -22 63 -24 27 -25 30 -7 24 13 -4 26 -1 34 9 7 8 17 12
22 9 5 -3 2 -14 -7 -24z m-3282 -16 c-3 -9 -12 -12 -25 -8 -14 4 -21 0 -25
-15 -7 -26 -19 -27 -33 -2 -14 28 -14 28 27 29 21 1 39 6 41 12 2 6 8 8 12 5
5 -3 7 -12 3 -21z m215 4 c-6 -18 -28 -21 -28 -4 0 9 7 16 16 16 9 0 14 -5 12
-12z m2156 -3 c-4 -8 -1 -15 5 -15 6 0 11 -10 11 -22 l-1 -23 -12 23 c-10 17
-15 20 -25 10 -18 -18 -14 3 5 24 20 22 24 23 17 3z m-1078 -20 c-21 -16 -32
-13 -21 4 3 6 14 11 23 11 15 -1 15 -2 -2 -15z m1934 -18 c0 -18 -2 -19 -10
-7 -13 20 -13 43 0 35 6 -3 10 -16 10 -28z m-4520 -33 c22 -51 25 -70 11 -78
-14 -9 -41 4 -41 19 0 7 -6 16 -12 19 -10 3 -9 8 4 18 10 9 14 23 11 41 -8 41
4 32 27 -19z m2593 6 c3 -11 1 -20 -4 -20 -5 0 -9 2 -9 4 0 2 -3 11 -6 20 -3
9 -2 16 4 16 5 0 12 -9 15 -20z m1135 -9 c3 -8 -1 -12 -9 -9 -7 2 -15 10 -17
17 -3 8 1 12 9 9 7 -2 15 -10 17 -17z m67 -31 c-9 -10 -15 -26 -12 -35 8 -18
-3 -19 -37 -4 -26 12 -27 33 -1 23 7 -3 18 4 25 15 6 12 18 21 27 21 14 0 14
-2 -2 -20z m-1178 -15 c9 -25 -4 -29 -17 -6 -7 15 -7 21 0 21 6 0 13 -7 17
-15z m-3378 -107 c5 -18 28 -94 51 -168 22 -74 43 -143 46 -152 3 -10 1 -18
-5 -18 -5 0 -18 26 -27 58 -10 31 -24 62 -31 68 -8 7 -10 14 -5 15 5 2 -3 44
-19 93 -15 50 -30 100 -34 113 -9 36 12 27 24 -9z m607 -180 c26 -87 52 -158
56 -158 4 0 17 9 28 20 11 11 16 20 10 20 -5 0 -10 5 -10 10 0 7 6 7 19 0 29
-15 32 -13 26 18 -6 26 -6 26 9 8 16 -20 16 -20 31 0 13 17 14 17 15 2 0 -10
5 -18 10 -18 6 0 10 -4 10 -10 0 -5 -9 -10 -20 -10 -13 0 -18 -5 -14 -15 4 -8
1 -15 -5 -15 -6 0 -11 5 -11 10 0 6 -4 10 -10 10 -5 0 -7 -7 -3 -16 5 -14 2
-16 -20 -10 -20 5 -27 3 -27 -8 0 -8 -9 -16 -19 -18 -19 -3 -18 -6 6 -81 21
-70 25 -102 8 -85 -3 3 -22 57 -41 119 -19 63 -36 119 -39 126 -8 23 -66 -10
-97 -54 -30 -45 -65 -69 -113 -77 -15 -3 -30 -7 -32 -10 -3 -2 2 -29 11 -59
18 -63 20 -86 7 -71 -8 8 -39 108 -44 144 -1 11 11 16 45 20 51 6 89 34 114
82 9 18 28 31 54 39 25 8 40 18 40 28 0 9 -14 59 -30 111 -17 51 -30 101 -30
109 0 37 21 -15 66 -161z m-181 132 c3 -5 -1 -10 -9 -10 -8 0 -18 5 -21 10 -3
6 1 10 9 10 8 0 18 -4 21 -10z m3715 -19 c0 -10 48 -25 68 -22 6 1 12 -5 12
-14 0 -8 4 -15 8 -15 5 0 17 -7 28 -15 18 -14 17 -14 -11 -13 -16 1 -35 9 -41
17 -6 8 -26 21 -44 30 -33 16 -52 41 -31 41 6 0 11 -4 11 -9z m-4383 -26 c9
-25 -4 -29 -17 -6 -7 15 -7 21 0 21 6 0 13 -7 17 -15z m1252 -54 c7 -13 18
-17 36 -14 15 3 25 1 25 -6 0 -6 -9 -11 -19 -11 -39 0 -50 -10 -41 -35 6 -15
6 -27 0 -30 -12 -7 -24 40 -16 61 3 8 1 24 -4 35 -7 12 -7 19 -1 19 6 0 15 -8
20 -19z m-1229 -12 c0 -11 -4 -17 -10 -14 -5 3 -10 13 -10 21 0 8 5 14 10 14
6 0 10 -9 10 -21z m784 -70 c-8 -13 -48 -11 -62 3 -15 15 -16 48 -2 49 6 1 14
2 19 3 5 0 13 4 17 9 9 9 36 -51 28 -64z m-764 9 c0 -5 -4 -8 -10 -8 -5 0 -10
10 -10 23 0 18 2 19 10 7 5 -8 10 -18 10 -22z m2270 -1 c0 -16 -35 -1 -38 16
-3 16 -1 17 17 5 12 -7 21 -17 21 -21z m-2060 6 c0 -14 -19 -38 -25 -32 -8 8
5 39 16 39 5 0 9 -3 9 -7z m-316 -12 c3 -5 -1 -12 -10 -15 -20 -8 -29 -1 -19
13 8 13 22 14 29 2z m2376 -20 c0 -11 -25 -21 -51 -21 -29 0 -23 18 9 23 15 2
30 5 35 6 4 0 7 -3 7 -8z m-2369 -18 c13 -15 12 -16 -9 -10 -18 4 -22 2 -18
-9 6 -16 -10 -19 -19 -3 -5 8 17 35 31 39 1 0 8 -8 15 -17z m112 -3 c3 -11 1
-20 -4 -20 -5 0 -9 2 -9 4 0 2 -3 11 -6 20 -3 9 -2 16 4 16 5 0 12 -9 15 -20z
m149 -12 c-6 -6 -15 -8 -19 -4 -4 4 -1 11 7 16 19 12 27 3 12 -12z m-232 -29
c0 -8 5 -8 15 1 8 7 15 8 15 2 0 -5 11 -12 25 -14 14 -3 25 -1 25 3 0 14 12
11 49 -12 l34 -20 -32 -31 c-37 -36 -56 -30 -21 7 13 14 22 25 19 25 -2 1 -21
3 -42 6 -30 5 -42 2 -53 -13 -14 -17 -15 -16 -10 9 5 22 3 26 -9 22 -8 -3 -12
-10 -9 -15 8 -13 -20 -11 -34 3 -15 15 -16 32 -2 23 6 -3 10 -1 10 4 0 6 5 11
10 11 6 0 10 -5 10 -11z m200 2 c0 -6 -5 -13 -12 -17 -7 -5 -5 -11 7 -21 18
-12 18 -13 -2 -13 -23 0 -37 32 -20 49 13 13 27 14 27 2z m-286 -43 c5 -10 7
-10 12 0 5 10 9 10 20 1 8 -6 14 -16 14 -21 0 -6 -6 -6 -14 1 -11 9 -15 9 -19
-1 -4 -10 -7 -10 -18 -1 -9 9 -16 10 -26 2 -16 -14 -17 3 -1 19 15 15 25 15
32 0z m1864 -32 c-3 -24 -1 -50 3 -59 5 -9 5 -18 1 -21 -5 -3 -15 6 -22 19 -7
14 -19 25 -25 25 -8 0 -10 10 -7 25 4 24 22 36 22 14 0 -5 5 -7 10 -4 6 3 10
15 10 26 0 10 3 19 6 19 4 0 4 -20 2 -44z m-1210 22 c7 -7 12 -20 12 -29 0
-27 -54 -9 -58 19 -4 25 25 31 46 10z m-488 -7 c0 -5 -7 -14 -15 -21 -16 -14
-18 -10 -9 14 6 17 24 22 24 7z m2200 -15 c0 -8 -10 -18 -22 -22 -13 -4 -26
-12 -30 -18 -4 -6 -10 -7 -14 -3 -9 9 15 37 32 37 8 0 14 5 14 10 0 6 5 10 10
10 6 0 10 -6 10 -14z m-2407 -39 c-4 -6 -12 -3 -20 8 -20 28 -16 41 7 20 11
-10 17 -22 13 -28z m147 38 c0 -11 -54 -26 -69 -19 -14 5 -13 7 4 14 23 10 65
13 65 5z m10 -40 c-7 -8 -17 -12 -23 -8 -6 4 -3 11 8 19 23 17 32 10 15 -11z
m40 -10 c-7 -9 -15 -13 -17 -11 -7 7 7 26 19 26 6 0 6 -6 -2 -15z m-136 -11
c9 -24 7 -28 -9 -14 -17 14 -20 30 -6 30 5 0 12 -7 15 -16z m-26 -12 c6 -18
-15 -14 -22 4 -4 10 -1 14 6 12 6 -2 14 -10 16 -16z m75 -7 c-22 -17 -30 -11
-13 10 7 8 17 12 22 9 5 -3 1 -12 -9 -19z m47 -10 c-7 -8 -17 -15 -22 -15 -6
0 -5 7 2 15 7 8 17 15 22 15 6 0 5 -7 -2 -15z m-57 -36 c11 8 14 5 14 -19 l0
-30 -31 24 c-17 13 -32 32 -34 42 -2 16 0 16 18 -5 15 -18 23 -21 33 -12z
m1398 3 c-18 -26 -199 -202 -208 -202 -1 0 -3 4 -3 10 0 16 201 220 217 220
11 0 10 -6 -6 -28z m275 -102 c41 -128 48 -160 36 -160 -5 0 -21 39 -35 88
-15 48 -34 109 -42 135 -9 30 -10 47 -4 45 6 -2 26 -51 45 -108z m-470 65
c-32 -30 -36 -31 -36 -6 0 18 10 23 54 30 5 0 -3 -10 -18 -24z m-1251 -15
c-10 -11 -20 -18 -23 -15 -7 6 18 35 31 35 5 0 2 -9 -8 -20z m1895 1 c0 -11 4
-23 10 -26 6 -4 5 -13 -2 -25 -9 -14 -10 -28 -3 -47 12 -33 8 -73 -7 -73 -6 0
-8 10 -4 25 5 19 2 25 -9 25 -11 0 -14 6 -9 25 4 15 2 25 -5 25 -6 0 -11 5
-11 10 0 6 6 10 14 10 11 0 13 9 9 35 -4 23 -2 35 6 35 6 0 11 -9 11 -19z
m-1780 -23 c0 -13 -23 -5 -28 10 -2 7 2 10 12 6 9 -3 16 -11 16 -16z m55 -18
c3 -5 -1 -10 -9 -10 -8 0 -18 5 -21 10 -3 6 1 10 9 10 8 0 18 -4 21 -10z
m2452 -14 c-15 -12 -17 -18 -7 -36 6 -12 8 -25 4 -28 -4 -4 -9 -1 -11 6 -3 6
-9 9 -15 6 -5 -3 -2 -14 8 -25 14 -16 15 -23 4 -49 -18 -43 -1 -61 37 -38 36
22 39 34 11 42 -17 6 -19 9 -8 13 8 4 20 13 26 21 9 13 12 9 18 -21 4 -20 10
-38 15 -41 4 -3 72 15 151 39 78 24 146 42 150 40 3 -2 30 3 59 11 28 9 58 14
64 11 7 -3 22 -30 32 -61 15 -45 23 -56 41 -56 13 0 24 -8 27 -20 5 -20 8 -19
54 12 26 18 52 39 56 46 4 6 14 12 22 12 7 0 24 13 37 28 15 18 41 33 68 39
43 10 126 11 136 1 10 -11 -59 -17 -76 -8 -13 7 -21 7 -25 0 -3 -5 -18 -10
-31 -10 -16 0 -36 -12 -52 -30 -15 -16 -32 -30 -40 -30 -7 0 -15 -7 -18 -15
-3 -8 -14 -17 -24 -20 -10 -3 -35 -19 -55 -35 -44 -35 -61 -37 -68 -10 -3 12
-14 20 -25 20 -13 0 -23 9 -27 23 -4 12 -13 41 -22 64 l-15 41 -42 -14 c-22
-8 -57 -17 -77 -19 -49 -5 -282 -76 -292 -90 -5 -6 -12 -4 -21 7 -12 17 -14
17 -32 -3 -13 -15 -26 -19 -46 -15 -25 5 -28 2 -28 -20 0 -36 -22 -39 -103
-16 -40 11 -84 18 -99 15 -17 -3 -28 -1 -28 6 0 6 9 11 20 11 11 0 19 3 19 8
-3 20 2 24 14 10 6 -9 44 -25 84 -36 l72 -20 11 70 c11 66 11 71 -9 92 -27 28
-26 34 2 38 14 2 23 11 25 26 2 15 10 22 25 22 21 -1 21 -1 4 -14z m-2067 -5
c0 -19 -22 -23 -38 -7 -15 15 -14 16 11 16 15 0 27 -4 27 -9z m1714 -33 c-3
-5 2 -8 10 -8 16 0 21 -12 10 -23 -7 -7 -74 32 -74 43 0 5 8 13 17 19 13 7 20
5 29 -7 7 -9 10 -20 8 -24z m1449 17 l32 6 -28 -15 c-15 -8 -34 -13 -41 -10
-8 3 -17 1 -21 -5 -8 -14 -45 -14 -45 -1 0 6 7 10 15 10 8 0 20 9 27 20 11 17
14 17 21 4 6 -11 17 -13 40 -9z m-2223 11 c0 -2 -8 -10 -17 -17 -16 -13 -17
-12 -4 4 13 16 21 21 21 13z m2480 -11 c0 -8 15 -21 33 -29 42 -19 25 -19 -38
-2 -27 8 -42 15 -31 15 12 1 16 6 12 16 -3 9 0 15 9 15 8 0 15 -7 15 -15z
m-2762 -36 c-10 -6 -18 -16 -18 -23 0 -14 -29 -30 -38 -22 -2 3 3 13 13 22 9
9 14 25 12 35 -6 23 14 31 33 12 13 -13 13 -15 -2 -24z m-418 11 c0 -5 -5 -10
-11 -10 -5 0 -7 5 -4 10 3 6 8 10 11 10 2 0 4 -4 4 -10z m-478 -101 c20 -11
20 -11 -2 -26 -19 -14 -23 -13 -35 3 -10 14 -10 21 -2 26 15 10 15 10 39 -3z
m527 -58 c23 -74 26 -101 12 -85 -12 13 -50 142 -43 149 9 8 9 8 31 -64z m701
60 c0 -12 -20 -25 -27 -18 -7 7 6 27 18 27 5 0 9 -4 9 -9z m-850 -20 c22 -6
23 -8 7 -14 -22 -8 -67 1 -67 14 0 10 23 10 60 0z m409 -10 c9 -6 10 -11 2
-15 -13 -8 -31 1 -31 15 0 11 11 11 29 0z m830 -48 c-6 -7 -8 -24 -5 -39 6
-23 0 -34 -41 -76 -50 -51 -63 -58 -63 -33 0 8 -6 15 -12 15 -7 0 0 11 17 24
16 13 33 22 37 19 5 -2 8 0 8 5 0 5 9 12 21 15 17 5 19 10 13 41 -4 22 -2 36
4 36 6 0 8 10 5 23 -4 21 -4 21 11 3 12 -14 13 -23 5 -33z m-1719 18 c0 -5 -9
-11 -20 -14 -22 -6 -28 8 -7 16 19 8 27 8 27 -2z m60 -11 c0 -11 -6 -20 -14
-20 -21 0 -31 21 -15 31 22 14 29 11 29 -11z m2060 10 c0 -5 -6 -10 -14 -10
-8 0 -18 5 -21 10 -3 6 3 10 14 10 12 0 21 -4 21 -10z m-60 -10 c0 -5 -4 -10
-10 -10 -5 0 -10 -13 -10 -30 0 -16 -4 -30 -10 -30 -15 0 -12 67 3 73 20 9 27
8 27 -3z m-1950 -32 c0 -6 -7 -7 -16 -4 -9 3 -18 6 -20 6 -3 0 -3 4 1 10 7 11
35 2 35 -12z m1146 7 c-2 -6 -32 -9 -72 -7 -54 3 -78 -1 -116 -19 -26 -12 -48
-28 -48 -35 0 -7 -7 -20 -16 -28 -17 -18 -44 -21 -44 -6 0 6 6 10 13 10 8 0
19 11 25 25 6 13 33 36 59 49 41 22 59 25 125 23 47 -1 76 -6 74 -12z m-1126
-61 c0 -8 -4 -12 -10 -9 -5 3 -10 13 -10 21 0 8 5 12 10 9 6 -3 10 -13 10 -21z
m534 -20 c8 -21 8 -24 -3 -24 -5 0 -11 9 -14 20 -6 24 8 27 17 4z m-498 -31
c-8 -8 -36 5 -36 17 0 7 6 7 21 0 11 -7 18 -14 15 -17z m24 -23 c8 -5 11 -12
8 -16 -10 -9 -38 3 -38 16 0 12 10 13 30 0z m290 -14 c0 -3 -4 -8 -10 -11 -5
-3 -10 -1 -10 4 0 6 5 11 10 11 6 0 10 -2 10 -4z m1110 -45 c0 -4 -18 -21 -40
-36 -22 -15 -48 -46 -61 -71 -11 -25 -41 -64 -65 -88 -24 -25 -44 -51 -44 -59
0 -8 -7 -20 -15 -27 -8 -7 -15 -19 -15 -27 0 -7 -8 -17 -17 -20 -9 -4 -27 -18
-38 -32 -15 -16 -24 -21 -29 -13 -4 7 -2 12 4 12 6 0 2 10 -10 22 -23 25 -17
40 7 15 15 -15 18 -15 45 4 15 11 28 29 28 40 0 10 4 19 9 19 5 0 14 14 20 31
6 17 19 33 30 36 11 3 22 12 26 21 6 16 -13 34 -30 28 -41 -14 -55 -16 -55 -7
0 14 35 23 78 19 34 -3 38 0 57 36 23 46 40 64 81 88 34 21 34 20 34 9z
m-1440 -277 c0 -4 -8 -13 -17 -21 -16 -13 -16 -14 -1 -9 23 7 41 -17 26 -32
-12 -12 -68 -17 -68 -6 0 3 5 14 10 25 9 17 7 19 -17 19 -16 0 -23 4 -17 9 16
15 84 27 84 15z m988 -91 c-4 -24 -23 -27 -25 -3 -1 12 4 20 13 20 9 0 14 -7
12 -17z m-1328 -44 c0 -6 -7 -8 -16 -5 -8 3 -25 1 -36 -5 -23 -12 -39 -2 -18
11 21 13 70 12 70 -1z m1330 -16 c0 -6 -81 -175 -124 -258 -36 -70 -45 -87
-54 -98 -6 -7 -21 -33 -34 -60 -14 -26 -39 -64 -56 -85 -58 -68 -132 -167
-160 -211 -15 -24 -39 -59 -54 -78 -20 -25 -28 -47 -28 -75 0 -33 -3 -39 -19
-36 -13 2 -34 -18 -71 -67 -55 -74 -67 -85 -88 -85 -7 0 4 17 24 38 41 42 99
123 87 121 -22 -4 -23 3 -5 26 20 26 19 65 -2 65 -21 1 28 30 51 30 13 0 23 5
23 10 0 6 9 20 20 32 11 12 20 28 20 35 0 7 8 13 18 13 19 0 83 70 125 137 14
22 38 53 52 67 14 15 31 40 37 56 5 17 14 30 19 30 5 0 9 6 9 14 0 8 6 21 13
28 27 27 120 234 122 271 3 43 12 58 24 38 6 -9 12 -4 22 18 13 28 29 42 29
24z m-617 -37 c3 -8 -1 -17 -9 -20 -21 -8 -39 -8 -31 1 4 3 2 12 -4 20 -9 10
-6 13 14 13 14 0 27 -6 30 -14z m-213 -117 c14 -26 7 -35 -10 -14 -25 30 -41
18 -34 -25 4 -27 3 -40 -5 -40 -6 0 -11 9 -11 21 0 11 -5 29 -10 40 -9 16 -7
21 12 29 35 14 46 12 58 -11z m156 -24 c20 -19 34 -39 30 -42 -4 -4 -15 2 -24
13 -9 12 -27 27 -39 33 -23 12 -31 31 -14 31 5 0 26 -16 47 -35z m319 -285 c4
-6 -5 -10 -20 -10 -15 0 -24 4 -20 10 3 6 12 10 20 10 8 0 17 -4 20 -10z
m-306 -57 c-2 -15 -89 -86 -97 -79 -4 4 12 25 35 47 39 36 64 49 62 32z m9
-96 c-23 -9 -26 -15 -21 -35 5 -21 3 -24 -11 -19 -9 4 -16 2 -16 -2 0 -5 -7
-11 -15 -15 -19 -7 -15 24 5 51 14 16 13 17 -1 5 -14 -10 -18 -10 -22 2 -8 21
-1 24 56 24 47 -1 49 -2 25 -11z m-122 -59 c8 -13 -22 -38 -48 -38 -24 0 -35
29 -17 41 20 12 57 11 65 -3z m151 -31 c11 -24 7 -31 -41 -62 -23 -16 -29 -16
-37 -4 -6 10 -1 16 22 22 28 7 31 11 25 38 -7 36 16 41 31 6z m-27 -189 c0 -6
8 -20 17 -30 12 -14 14 -21 5 -30 -9 -9 -15 -3 -27 25 -18 43 -18 47 -5 47 6
0 10 -5 10 -12z"/>
<path d="M6505 7890 c4 -6 11 -8 16 -5 14 9 11 15 -7 15 -8 0 -12 -5 -9 -10z"/>
<path d="M6520 7862 c0 -5 7 -13 16 -16 10 -4 14 -1 12 6 -5 15 -28 23 -28 10z"/>
<path d="M7860 7693 c0 -6 8 -17 18 -24 16 -13 16 -13 2 6 -8 11 -16 22 -17
24 -2 2 -3 0 -3 -6z"/>
<path d="M2118 7342 c-22 -14 -25 -21 -16 -30 7 -7 16 -12 22 -12 5 0 17 -7
27 -16 14 -12 15 -20 6 -43 -9 -24 -7 -32 7 -47 15 -15 17 -29 13 -76 -3 -33
-1 -56 4 -52 5 3 9 11 9 18 0 8 7 26 15 42 13 25 13 30 0 44 -8 9 -15 23 -15
31 0 8 10 2 25 -15 27 -32 26 -55 -4 -90 -16 -19 -15 -19 11 -2 30 19 38 45
33 99 -3 32 0 39 23 52 l27 14 -32 -5 c-18 -4 -40 -3 -50 2 -14 6 -7 9 26 13
25 3 46 12 49 19 3 11 -12 13 -69 12 -97 -3 -94 -4 -76 24 25 38 8 46 -35 18z"/>
<path d="M2087 7262 c12 -38 22 -52 36 -52 18 0 17 2 -4 38 -39 66 -50 71 -32
14z"/>
<path d="M7845 6910 c-3 -5 1 -10 10 -10 9 0 13 5 10 10 -3 6 -8 10 -10 10 -2
0 -7 -4 -10 -10z"/>
<path d="M5400 6818 c0 -22 14 -36 43 -43 34 -9 38 16 5 39 -27 19 -48 21 -48
4z"/>
<path d="M6720 6291 c0 -12 5 -21 10 -21 6 0 10 6 10 14 0 8 -4 18 -10 21 -5
3 -10 -3 -10 -14z"/>
<path d="M6850 5921 c0 -6 4 -13 10 -16 6 -3 7 1 4 9 -7 18 -14 21 -14 7z"/>
<path d="M7185 6050 c3 -5 11 -10 16 -10 6 0 7 5 4 10 -3 6 -11 10 -16 10 -6
0 -7 -4 -4 -10z"/>
<path d="M6586 5781 c-4 -7 -5 -15 -2 -18 9 -9 19 4 14 18 -4 11 -6 11 -12 0z"/>
<path d="M4280 5950 c14 -4 32 -8 40 -9 13 -1 13 0 0 9 -8 5 -26 9 -40 9 l-25
-1 25 -8z"/>
<path d="M6110 5620 c0 -5 5 -10 10 -10 6 0 10 5 10 10 0 6 -4 10 -10 10 -5 0
-10 -4 -10 -10z"/>
<path d="M5452 5358 c-14 -14 -16 -28 -2 -28 5 0 14 9 20 20 12 22 1 27 -18 8z"/>
<path d="M4590 5355 c0 -9 5 -15 11 -13 6 2 11 8 11 13 0 5 -5 11 -11 13 -6 2
-11 -4 -11 -13z"/>
<path d="M4544 5339 c-10 -17 13 -36 27 -22 12 12 4 33 -11 33 -5 0 -12 -5
-16 -11z"/>
<path d="M4615 5330 c-8 -14 32 -70 51 -70 22 0 17 19 -15 51 -17 17 -32 25
-36 19z"/>
<path d="M4569 5293 c-10 -12 -11 -17 -2 -20 7 -2 10 -10 7 -17 -8 -22 22 -39
45 -26 22 11 20 21 -12 63 -17 21 -21 21 -38 0z"/>
<path d="M4271 5264 c-46 -20 -61 -37 -50 -55 5 -8 9 -21 9 -28 0 -22 -20 1
-25 29 -2 12 -6 24 -7 26 -13 12 -494 -148 -491 -163 2 -9 -7 -11 -27 -6 -18
3 -30 1 -30 -5 0 -6 -10 -14 -22 -18 -38 -11 -50 -25 -37 -40 9 -11 8 -14 -5
-14 -9 0 -16 -5 -16 -10 0 -6 -10 -31 -22 -56 -21 -46 -21 -47 -4 -120 12 -49
23 -74 32 -74 8 0 14 -7 14 -15 0 -20 27 -6 78 39 39 35 82 55 82 37 0 -6 -12
-17 -27 -26 -16 -8 -44 -29 -63 -45 -34 -30 -34 -32 -16 -46 23 -16 46 -19 46
-4 0 6 5 10 10 10 6 0 10 -9 10 -21 0 -29 36 -76 71 -94 17 -9 29 -24 29 -35
0 -11 3 -19 8 -19 26 4 32 -1 20 -20 -9 -15 -9 -25 0 -46 7 -15 10 -31 7 -36
-7 -10 28 -13 38 -2 4 3 2 12 -5 20 -17 21 -1 29 20 10 10 -10 27 -17 37 -17
31 0 95 23 95 34 0 32 -42 142 -61 162 -13 14 -40 27 -62 31 -21 3 -35 9 -30
14 12 12 81 -6 104 -27 10 -9 31 -54 45 -99 l27 -82 96 29 c135 42 192 59 219
65 26 6 27 10 7 29 -17 17 -20 44 -5 44 15 0 12 37 -6 72 -14 28 -19 30 -54
25 -47 -6 -97 -40 -112 -76 -11 -25 -12 -25 -15 -3 -4 21 -33 32 -33 12 0 -5
-4 -10 -9 -10 -12 0 -6 79 7 92 8 8 22 8 52 -2 32 -10 48 -11 80 -1 57 17 86
6 104 -40 9 -21 13 -51 11 -66 -7 -35 7 -59 26 -47 20 13 26 151 9 168 -6 6
-10 27 -10 47 0 38 -22 103 -45 129 -7 8 -13 22 -13 30 0 8 -9 37 -19 63 -17
46 -17 49 0 61 20 15 23 56 4 56 -7 0 -50 -13 -95 -30 -92 -34 -92 -34 -92
-21 0 5 19 17 43 26 35 13 43 21 44 43 1 36 13 72 24 72 12 0 12 -27 0 -34
-11 -7 -2 -56 10 -56 6 0 12 7 15 15 4 9 13 13 24 10 24 -8 32 27 17 82 -12
47 -16 48 -66 27z m-131 -193 c0 -5 -9 -12 -20 -16 -11 -3 -28 -17 -38 -30
-19 -23 -151 -80 -161 -69 -8 8 18 22 74 40 27 10 63 32 81 50 30 32 64 45 64
25z m-353 -174 c-2 -7 -11 2 -20 19 -9 17 -13 34 -10 38 9 9 35 -42 30 -57z
m116 12 c-15 -26 -33 -38 -33 -24 0 18 32 65 41 60 5 -4 2 -18 -8 -36z m277
31 c0 -5 7 -10 16 -10 20 0 10 -34 -17 -61 -15 -15 -19 -16 -19 -4 0 8 -9 24
-20 35 -25 25 -25 29 3 40 30 12 37 12 37 0z m-45 -130 c-3 -5 -1 -10 4 -10 6
0 11 -4 11 -8 0 -4 -17 -9 -37 -9 l-37 -1 24 19 c27 20 45 25 35 9z m-57 -69
c3 -9 -2 -11 -17 -6 -11 3 -21 2 -21 -3 0 -6 -10 -8 -21 -5 -21 6 -21 6 2 19
28 16 51 14 57 -5z m-138 -293 c-32 -12 -51 -3 -20 10 14 5 29 7 34 4 5 -3 -1
-9 -14 -14z"/>
<path d="M4160 4921 c0 -6 4 -13 10 -16 6 -3 7 1 4 9 -7 18 -14 21 -14 7z"/>
<path d="M4621 5204 c-27 -18 -31 -25 -19 -29 10 -4 14 -14 11 -25 -5 -20 17
-80 29 -80 5 0 8 4 8 9 0 5 12 11 27 13 35 4 41 30 14 57 -12 12 -21 32 -21
45 0 35 -10 37 -49 10z"/>
<path d="M3550 5024 c0 -8 5 -12 10 -9 6 3 10 10 10 16 0 5 -4 9 -10 9 -5 0
-10 -7 -10 -16z"/>
<path d="M4154 4704 c3 -9 6 -18 6 -20 0 -2 6 -4 14 -4 15 0 28 24 19 34 -4 3
-15 6 -26 6 -13 0 -17 -5 -13 -16z"/>
<path d="M3958 4401 c-59 -19 -78 -30 -78 -43 0 -10 7 -18 15 -18 8 0 15 -4
15 -10 0 -5 -4 -10 -10 -10 -5 0 -10 -6 -10 -14 0 -12 19 -8 89 15 l90 30 -11
32 c-6 18 -13 35 -17 38 -3 3 -41 -6 -83 -20z"/>
<path d="M3830 4230 c0 -11 2 -20 4 -20 2 0 6 9 9 20 3 11 1 20 -4 20 -5 0 -9
-9 -9 -20z"/>
<path d="M4805 4185 c-22 -8 -66 -20 -98 -26 l-57 -12 6 -32 c4 -22 1 -41 -9
-56 -26 -40 -25 -62 2 -69 18 -4 28 -17 39 -48 7 -23 19 -42 25 -42 32 0 227
65 223 74 -2 6 -19 59 -37 119 -19 59 -38 107 -44 107 -5 -1 -28 -7 -50 -15z"/>
<path d="M3741 3808 c-13 -33 1 -41 37 -21 37 21 37 35 -1 40 -21 3 -29 -2
-36 -19z"/>
<path d="M7085 5170 c3 -5 10 -10 16 -10 5 0 9 5 9 10 0 6 -7 10 -16 10 -8 0
-12 -4 -9 -10z"/>
<path d="M6576 4625 c4 -8 8 -15 10 -15 2 0 4 7 4 15 0 8 -4 15 -10 15 -5 0
-7 -7 -4 -15z"/>
<path d="M6864 4271 c3 -5 -11 -11 -32 -15 -20 -3 -47 -14 -60 -24 -21 -16
-22 -21 -12 -44 11 -24 15 -25 47 -16 20 5 46 7 60 3 13 -3 28 -3 33 0 10 6
-20 105 -32 105 -5 0 -7 -4 -4 -9z"/>
<path d="M5203 3260 c-26 -10 -28 -22 -12 -71 6 -19 13 -41 16 -49 4 -13 6
-12 14 3 6 9 17 17 25 17 12 0 15 8 11 38 -7 44 -17 72 -26 71 -3 0 -16 -4
-28 -9z"/>
<path d="M5302 2512 c-53 -15 -64 -34 -24 -40 11 -2 38 -20 60 -41 31 -30 42
-36 59 -28 20 9 20 10 3 65 -10 32 -24 58 -31 58 -8 1 -38 -5 -67 -14z m55
-54 c-3 -7 -5 -2 -5 12 0 14 2 19 5 13 2 -7 2 -19 0 -25z"/>
<path d="M4365 2279 c-4 -6 -13 -8 -21 -5 -8 3 -14 -1 -14 -10 0 -9 -6 -14
-12 -11 -7 2 -23 1 -36 -4 -22 -8 -22 -10 -8 -44 8 -19 12 -35 9 -35 -6 0 32
-36 80 -76 19 -16 29 -18 37 -10 8 8 13 7 20 -4 7 -11 3 -18 -16 -28 -14 -8
-23 -16 -20 -19 3 -3 12 -1 20 6 8 7 25 9 40 5 14 -3 26 -2 26 3 0 20 -40 225
-45 234 -8 12 -52 12 -60 -2z"/>
<path d="M2550 3250 c-13 -8 -13 -10 2 -10 9 0 20 5 23 10 8 13 -5 13 -25 0z"/>
<path d="M2560 2925 c0 -15 4 -24 10 -20 6 3 10 12 10 20 0 8 -4 17 -10 20 -6
4 -10 -5 -10 -20z"/>
<path d="M2600 2813 c0 -23 15 -39 23 -26 3 5 -1 17 -9 28 -14 18 -14 18 -14
-2z"/>
<path d="M1180 2663 c0 -4 5 -15 10 -23 8 -13 10 -13 10 2 0 9 -4 20 -10 23
-5 3 -10 3 -10 -2z"/>
<path d="M950 2335 c7 -8 20 -15 29 -15 13 1 13 3 -3 15 -26 19 -42 19 -26 0z"/>
<path d="M1939 1583 c-13 -16 -12 -17 4 -4 16 13 21 21 13 21 -2 0 -10 -8 -17
-17z"/>
<path d="M630 380 c-13 -8 -12 -10 3 -10 9 0 17 5 17 10 0 12 -1 12 -20 0z"/>
<path d="M7984 7634 c-4 -14 -2 -30 5 -37 8 -8 11 -1 11 26 0 43 -7 48 -16 11z"/>
<path d="M7968 7562 c-6 -23 -1 -32 19 -32 17 0 17 11 0 35 -13 17 -14 17 -19
-3z"/>
<path d="M7993 6425 c0 -22 2 -30 4 -17 2 12 2 30 0 40 -3 9 -5 -1 -4 -23z"/>
<path d="M6516 3654 c-22 -8 -41 -15 -42 -17 -3 -3 27 -110 40 -144 4 -10 11
-10 31 -1 19 9 25 19 25 44 0 23 6 37 19 44 17 9 21 35 12 83 -2 11 -42 7 -85
-9z"/>
<path d="M6368 3608 c-57 -19 -66 -30 -50 -56 7 -9 24 -8 79 9 64 19 69 23 65
45 -5 29 -18 29 -94 2z"/>
</g>
</svg>
