<?xml version="1.0" standalone="no"?>
<!DOCTYPE svg PUBLIC "-//W3C//DTD SVG 20010904//EN"
 "http://www.w3.org/TR/2001/REC-SVG-20010904/DTD/svg10.dtd">
<svg version="1.0" xmlns="http://www.w3.org/2000/svg"
 width="800.000000pt" height="800.000000pt" viewBox="0 0 800.000000 800.000000"
 preserveAspectRatio="xMidYMid meet">
<metadata>
Created by potrace 1.16, written by Peter Selinger 2001-2019
</metadata>
<g transform="translate(0.000000,800.000000) scale(0.100000,-0.100000)"
fill="#000000" stroke="none">
<path d="M1 7670 c1 -181 6 -330 11 -330 4 0 8 -9 8 -20 0 -11 -4 -20 -10 -20
-16 0 -13 -197 3 -203 9 -3 9 -9 0 -25 -10 -16 -13 -188 -13 -725 l0 -704 46
-77 c57 -92 52 -114 -5 -24 l-41 63 0 -77 c0 -51 4 -78 13 -82 10 -5 10 -7 0
-12 -10 -4 -13 -558 -13 -2720 l0 -2714 4000 0 4000 0 0 4000 0 4000 -3381 0
c-2244 0 -3378 -3 -3374 -10 3 -6 2 -10 -4 -10 -5 0 -13 5 -16 10 -3 6 -24 10
-47 10 -32 0 -39 -3 -34 -15 6 -16 -9 -21 -18 -6 -3 5 -16 7 -28 3 -14 -3 -19
-2 -14 6 5 9 -128 12 -539 12 l-546 0 2 -330z m1289 278 c0 -6 -7 -5 -15 2 -8
7 -15 17 -15 22 0 6 7 5 15 -2 8 -7 15 -17 15 -22z m-200 -2 c0 -8 -4 -18 -10
-21 -5 -3 -10 3 -10 14 0 12 5 21 10 21 6 0 10 -6 10 -14z m86 -24 c-9 -8 -26
10 -26 26 1 15 2 15 15 -2 8 -11 13 -21 11 -24z m152 -18 c-10 -10 -28 6 -28
24 0 15 1 15 17 -1 9 -9 14 -19 11 -23z m-248 -12 c0 -4 -5 -13 -12 -20 -7 -7
-8 -12 -4 -12 5 0 3 -7 -4 -15 -7 -8 -20 -15 -29 -15 -13 1 -13 3 4 16 11 8
19 18 19 22 -2 13 8 32 17 32 5 0 9 -4 9 -8z m124 -8 c4 -10 1 -14 -6 -12 -15
5 -23 28 -10 28 5 0 13 -7 16 -16z m146 -28 c-14 -14 -24 0 -16 21 6 15 8 15
16 3 6 -9 5 -19 0 -24z m-115 -27 c4 -11 12 -18 19 -16 8 3 13 -5 13 -24 0
-34 -13 -38 -23 -7 -3 12 -13 28 -20 36 -16 15 -18 32 -5 32 5 0 13 -9 16 -21z
m83 9 c-3 -7 -13 -15 -24 -17 -16 -3 -17 -1 -5 13 16 19 34 21 29 4z m-288
-37 c0 -12 -20 -25 -27 -18 -7 7 6 27 18 27 5 0 9 -4 9 -9z m-44 -40 c-4 -5 0
-11 6 -14 9 -3 7 -7 -6 -12 -11 -5 -21 -3 -26 6 -11 16 -4 29 16 29 8 0 13 -4
10 -9z m-43 -25 c5 -13 -12 -26 -34 -26 -14 0 -11 28 4 33 20 9 25 8 30 -7z
m347 -1 c0 -8 -7 -15 -15 -15 -9 0 -12 6 -9 15 4 8 10 15 15 15 5 0 9 -7 9
-15z m-250 -10 c7 -8 8 -15 2 -15 -5 0 -15 7 -22 15 -7 8 -8 15 -2 15 5 0 15
-7 22 -15z m-150 -15 c22 -22 26 -40 10 -40 -5 0 -10 5 -10 11 0 6 -8 9 -19 6
-14 -3 -18 1 -18 19 0 29 11 30 37 4z m-62 -4 c-18 -14 -25 -32 -9 -21 5 3 12
1 15 -3 3 -5 -10 -14 -29 -20 -34 -10 -51 2 -20 14 8 4 15 12 15 19 0 13 15
23 35 24 6 0 2 -6 -7 -13z m277 -6 c3 -5 -3 -10 -14 -10 -11 0 -23 5 -26 10
-3 6 3 10 14 10 11 0 23 -4 26 -10z m131 -5 c-21 -16 -32 -13 -21 4 3 6 14 11
23 11 15 -1 15 -2 -2 -15z m-106 -30 c0 -8 -4 -15 -8 -15 -5 0 -9 7 -9 15 0 8
4 15 9 15 4 0 8 -7 8 -15z m65 5 c-3 -5 -10 -10 -16 -10 -5 0 -9 5 -9 10 0 6
7 10 16 10 8 0 12 -4 9 -10z m-453 -32 c-6 -6 -15 -8 -19 -4 -4 4 -1 11 7 16
19 12 27 3 12 -12z m178 -8 c0 -11 -4 -20 -10 -20 -5 0 -10 9 -10 20 0 11 5
20 10 20 6 0 10 -9 10 -20z m-160 -46 c0 -8 -4 -12 -10 -9 -5 3 -10 13 -10 21
0 8 5 12 10 9 6 -3 10 -13 10 -21z m160 -9 c0 -8 -2 -15 -4 -15 -2 0 -6 7 -10
15 -3 8 -1 15 4 15 6 0 10 -7 10 -15z m-105 -15 c3 -5 -1 -10 -9 -10 -8 0 -18
5 -21 10 -3 6 1 10 9 10 8 0 18 -4 21 -10z m7155 -45 c-7 -9 -15 -13 -18 -10
-3 2 1 11 8 20 7 9 15 13 18 10 3 -2 -1 -11 -8 -20z m-32 -37 c-2 -6 -10 -14
-16 -16 -7 -2 -10 2 -6 12 7 18 28 22 22 4z m-47 -61 c-16 -16 -26 0 -10 19 9
11 15 12 17 4 2 -6 -1 -17 -7 -23z m-31 -32 c-7 -8 -17 -15 -22 -15 -6 0 -5 7
2 15 7 8 17 15 22 15 6 0 5 -7 -2 -15z m-41 -51 c-17 -21 -31 -17 -19 6 6 11
15 18 21 14 6 -4 6 -11 -2 -20z m-39 -44 c-6 -11 -15 -18 -21 -14 -6 4 -6 11
2 20 17 21 31 17 19 -6z m-7763 -42 c-3 -7 -5 -2 -5 12 0 14 2 19 5 13 2 -7 2
-19 0 -25z m7723 13 c0 -12 -20 -25 -27 -18 -7 7 6 27 18 27 5 0 9 -4 9 -9z
m-53 -48 c-9 -9 -19 -14 -23 -11 -10 10 6 28 24 28 15 0 15 -1 -1 -17z m-7657
-7 c0 -8 -5 -18 -10 -21 -6 -3 -10 3 -10 14 0 12 5 21 10 21 6 0 10 -6 10 -14z
m7620 -16 c0 -12 -40 -34 -48 -26 -3 4 3 13 14 21 22 17 34 19 34 5z m-7620
-44 c0 -8 -5 -18 -10 -21 -6 -3 -10 3 -10 14 0 12 5 21 10 21 6 0 10 -6 10
-14z m7550 5 c0 -5 -7 -11 -15 -15 -15 -5 -20 5 -8 17 9 10 23 9 23 -2z m-50
-30 c0 -11 -31 -24 -39 -16 -3 3 1 10 9 15 19 12 30 12 30 1z m-63 -38 c-9 -9
-20 -13 -24 -9 -4 4 -1 11 7 16 25 16 35 11 17 -7z m-51 -28 c-21 -16 -32 -13
-21 4 3 6 14 11 23 11 15 -1 15 -2 -2 -15z m-46 -24 c0 -5 -7 -11 -15 -15 -15
-5 -20 5 -8 17 9 10 23 9 23 -2z m-55 -30 c-3 -6 -14 -11 -23 -11 -15 1 -15 2
2 15 21 16 32 13 21 -4z m-5695 -53 c0 -14 -18 -9 -24 8 -11 28 -6 39 9 20 8
-11 15 -23 15 -28z m5645 23 c-3 -6 -14 -11 -23 -11 -15 1 -15 2 2 15 21 16
32 13 21 -4z m-72 -42 c-40 -27 -53 -23 -20 6 16 14 33 22 39 19 5 -4 -3 -15
-19 -25z m-5549 -15 c9 -24 7 -28 -9 -14 -17 14 -20 30 -6 30 5 0 12 -7 15
-16z m5506 -23 c0 -5 -7 -14 -15 -21 -12 -10 -15 -10 -15 2 0 8 3 18 7 21 9
10 23 9 23 -2z m-5476 -27 c9 -24 7 -28 -9 -14 -17 14 -20 30 -6 30 5 0 12 -7
15 -16z m5436 -23 c0 -12 -20 -25 -27 -18 -7 7 6 27 18 27 5 0 9 -4 9 -9z
m-5394 -49 c-9 -8 -26 10 -26 26 1 15 2 15 15 -2 8 -11 13 -21 11 -24z m5348
-6 c-6 -16 -24 -23 -24 -8 0 10 22 33 27 28 2 -2 1 -11 -3 -20z m-5318 -44
c-9 -8 -26 10 -26 26 1 15 2 15 15 -2 8 -11 13 -21 11 -24z m5278 -6 c-3 -9
-10 -13 -16 -10 -5 3 -4 12 3 20 15 18 22 13 13 -10z m-5248 -44 c-9 -8 -26
10 -26 26 1 15 2 15 15 -2 8 -11 13 -21 11 -24z m5214 3 c-7 -8 -17 -15 -22
-15 -6 0 -5 7 2 15 7 8 17 15 22 15 6 0 5 -7 -2 -15z m-5186 -41 c4 -10 1 -14
-6 -12 -15 5 -23 28 -10 28 5 0 13 -7 16 -16z m5156 7 c0 -5 -7 -14 -15 -21
-16 -14 -18 -10 -9 14 6 17 24 22 24 7z m-54 -59 c-8 -9 -19 -13 -22 -9 -10 9
16 38 28 31 6 -4 4 -13 -6 -22z m-5065 -11 c11 -27 -6 -19 -22 11 -8 16 -8 19
2 16 6 -2 16 -14 20 -27z m5029 -10 c0 -5 -7 -12 -16 -15 -24 -9 -28 -7 -14 9
14 17 30 20 30 6z m-55 -41 c-3 -5 -13 -10 -21 -10 -8 0 -12 5 -9 10 3 6 13
10 21 10 8 0 12 -4 9 -10z m-3688 -26 c-3 -3 -12 -4 -19 -1 -8 3 -5 6 6 6 11
1 17 -2 13 -5z m3638 -4 c-3 -5 -13 -10 -21 -10 -8 0 -12 5 -9 10 3 6 13 10
21 10 8 0 12 -4 9 -10z m-62 -35 c-22 -17 -30 -11 -13 10 7 8 17 12 22 9 5 -3
1 -12 -9 -19z m-53 -30 c-7 -8 -17 -12 -22 -9 -6 4 -5 10 3 15 22 14 33 10 19
-6z m-3770 -15 c11 -11 27 -20 35 -20 8 0 15 -5 15 -11 0 -7 -10 -9 -26 -5
-27 7 -27 3 -7 -51 3 -7 0 -13 -5 -13 -6 0 -14 9 -17 20 -3 11 -17 23 -31 26
-13 3 -21 10 -19 15 3 4 13 5 22 2 14 -5 15 -1 10 25 -8 37 -4 39 23 12z
m3720 -15 c-7 -8 -16 -12 -21 -9 -13 8 -1 24 18 24 13 0 13 -3 3 -15z m-54
-30 c-21 -16 -32 -13 -21 4 3 6 14 11 23 11 15 -1 15 -2 -2 -15z m-50 -30
c-21 -16 -32 -13 -21 4 3 6 14 11 23 11 15 -1 15 -2 -2 -15z m-2173 -30 c26
-3 45 -10 43 -14 -3 -4 -49 -2 -103 5 -94 12 -100 12 -177 -13 -145 -45 -219
-81 -238 -114 -10 -16 -25 -32 -35 -36 -10 -4 -23 -13 -29 -21 -19 -25 -24 2
-12 60 16 79 7 105 -44 118 -40 11 -55 10 -105 -5 -37 -12 -26 10 12 24 40 14
110 7 140 -15 16 -12 20 -26 20 -79 0 -74 12 -83 42 -32 15 25 38 39 101 66
138 57 227 79 286 70 28 -4 72 -10 99 -14z m2123 0 c-21 -16 -32 -13 -21 4 3
6 14 11 23 11 15 -1 15 -2 -2 -15z m-50 -30 c-21 -16 -32 -13 -21 4 3 6 14 11
23 11 15 -1 15 -2 -2 -15z m-46 -24 c0 -13 -28 -22 -35 -11 -3 4 1 11 7 13 20
8 28 8 28 -2z m-5535 -11 c-3 -5 -12 -10 -20 -10 -8 0 -17 5 -20 10 -4 6 5 10
20 10 15 0 24 -4 20 -10z m-59 -37 c-11 -11 -17 4 -9 23 7 18 8 18 11 1 2 -10
1 -21 -2 -24z m100 -1 c-9 -8 -26 10 -26 26 1 15 2 15 15 -2 8 -11 13 -21 11
-24z m5444 17 c0 -4 -10 -11 -22 -15 -12 -3 -28 -13 -36 -20 -15 -16 -32 -18
-32 -5 0 5 9 13 21 16 11 4 18 12 16 19 -3 8 5 13 24 13 16 0 29 -4 29 -8z
m-2072 -26 c-10 -2 -28 -2 -40 0 -13 2 -5 4 17 4 22 1 32 -1 23 -4z m-3719
-27 c13 -7 29 -27 36 -43 11 -27 11 -34 -6 -59 -23 -35 -24 -48 -4 -40 11 4
15 -2 15 -20 0 -19 -4 -25 -15 -20 -9 3 -15 0 -15 -10 0 -12 -5 -14 -17 -8
-10 4 -34 8 -53 9 -19 2 -44 6 -55 10 -11 5 -17 5 -13 0 10 -10 -10 -45 -25
-45 -9 0 -9 2 -1 8 21 13 19 47 -4 80 -13 17 -31 32 -40 32 -9 0 -24 5 -32 10
-12 8 -9 10 13 10 20 0 41 -12 70 -40 38 -38 81 -59 93 -47 4 3 17 2 30 -3 23
-9 30 0 25 32 0 4 6 23 14 42 8 19 15 41 14 48 0 7 -4 4 -9 -7 l-8 -20 -7 20
c-21 63 -23 65 -57 60 -26 -4 -29 -3 -13 4 27 13 36 13 64 -3z m241 0 c0 -8
-4 -18 -10 -21 -5 -3 -10 3 -10 14 0 12 5 21 10 21 6 0 10 -6 10 -14z m134 -2
c4 -10 1 -14 -6 -12 -15 5 -23 28 -10 28 5 0 13 -7 16 -16z m5303 -11 c-9 -9
-20 -13 -24 -9 -4 4 -1 11 7 16 25 16 35 11 17 -7z m-5739 -90 c7 -12 12 -28
12 -35 -1 -7 -10 5 -21 27 -12 22 -28 46 -37 53 -14 11 -14 12 1 12 9 0 17 6
18 13 1 6 4 -1 8 -18 4 -16 13 -40 19 -52z m257 67 c-3 -5 -13 -10 -21 -10 -8
0 -14 5 -14 10 0 6 9 10 21 10 11 0 17 -4 14 -10z m208 -11 c3 -13 1 -19 -6
-16 -15 5 -22 37 -9 37 5 0 12 -9 15 -21z m123 -17 c-9 -8 -26 10 -26 26 1 15
2 15 15 -2 8 -11 13 -21 11 -24z m5101 21 c-9 -9 -20 -13 -24 -9 -4 4 -1 11 7
16 25 16 35 11 17 -7z m-5146 -26 c-16 -16 -26 0 -10 19 9 11 15 12 17 4 2 -6
-1 -17 -7 -23z m5133 -19 c-3 -5 -11 -5 -19 2 -7 6 -20 8 -29 4 -21 -8 -21 5
2 22 14 10 20 10 34 -3 10 -9 15 -20 12 -25z m-5456 20 c-3 -7 -13 -15 -24
-17 -16 -3 -17 -1 -5 13 16 19 34 21 29 4z m-42 -35 c-8 -8 -36 5 -36 17 0 7
6 7 21 0 11 -7 18 -14 15 -17z m334 17 c0 -5 -9 -10 -20 -10 -11 0 -20 5 -20
10 0 6 9 10 20 10 11 0 20 -4 20 -10z m117 -3 c0 -9 -9 -12 -25 -9 -17 3 -20
7 -10 13 19 13 35 11 35 -4z m-513 -21 c-6 -16 -24 -23 -24 -8 0 10 22 33 27
28 2 -2 1 -11 -3 -20z m5474 12 c-3 -7 -13 -15 -24 -17 -16 -3 -17 -1 -5 13
16 19 34 21 29 4z m-48 -27 c0 -5 -7 -12 -16 -15 -24 -9 -28 -7 -14 9 14 17
30 20 30 6z m-4984 -36 c16 -12 16 -14 3 -15 -9 0 -22 7 -29 15 -16 19 0 19
26 0z m4934 6 c0 -5 -7 -12 -16 -15 -24 -9 -28 -7 -14 9 14 17 30 20 30 6z
m-50 -30 c0 -5 -7 -12 -16 -15 -24 -9 -28 -7 -14 9 14 17 30 20 30 6z m-4841
-27 c3 -16 1 -17 -13 -5 -19 16 -21 34 -3 29 6 -3 14 -13 16 -24z m1581 6
c-14 -10 -41 -22 -60 -25 -19 -4 -86 -38 -148 -77 -62 -39 -116 -68 -119 -64
-8 8 -13 4 102 77 91 57 196 105 235 108 9 0 6 -7 -10 -19z m-2080 -31 c0 -11
-4 -17 -10 -14 -5 3 -10 15 -10 26 0 11 5 17 10 14 6 -3 10 -15 10 -26z m5279
10 c-22 -14 -33 -10 -19 6 7 8 17 12 22 9 6 -4 5 -10 -3 -15z m-4753 -25 c-3
-9 -6 -18 -6 -20 0 -3 -4 -3 -10 1 -11 7 -2 35 12 35 6 0 7 -7 4 -16z m4696
-6 c-6 -6 -15 -8 -19 -4 -4 4 -1 11 7 16 19 12 27 3 12 -12z m-47 -27 c-3 -6
-14 -11 -23 -11 -15 1 -15 2 2 15 21 16 32 13 21 -4z m-4641 -27 c4 -10 1 -14
-6 -12 -15 5 -23 28 -10 28 5 0 13 -7 16 -16z m4591 -3 c-3 -6 -14 -11 -23
-11 -15 1 -15 2 2 15 21 16 32 13 21 -4z m-50 -31 c-3 -5 -13 -10 -21 -10 -8
0 -12 5 -9 10 3 6 13 10 21 10 8 0 12 -4 9 -10z m-4511 -32 c-4 -6 -10 -5 -15
3 -14 22 -10 33 6 19 8 -7 12 -17 9 -22z m4452 -3 c-21 -16 -32 -13 -21 4 3 6
14 11 23 11 15 -1 15 -2 -2 -15z m-4416 -54 c-1 -13 -3 -13 -15 3 -19 26 -19
42 0 26 8 -7 15 -20 15 -29z m4366 24 c-21 -16 -32 -13 -21 4 3 6 14 11 23 11
15 -1 15 -2 -2 -15z m-61 -34 c-3 -6 -14 -11 -23 -11 -15 1 -15 2 2 15 21 16
32 13 21 -4z m-50 -30 c-3 -6 -14 -11 -23 -11 -15 1 -15 2 2 15 21 16 32 13
21 -4z m-2745 -21 c0 -5 -6 -10 -14 -10 -8 0 -18 5 -21 10 -3 6 3 10 14 10 12
0 21 -4 21 -10z m-60 -10 c0 -5 -10 -10 -22 -10 -19 0 -20 2 -8 10 19 13 30
13 30 0z m108 -9 c3 -8 -1 -12 -9 -9 -7 2 -15 10 -17 17 -3 8 1 12 9 9 7 -2
15 -10 17 -17z m2647 9 c-3 -5 -13 -10 -21 -10 -8 0 -12 5 -9 10 3 6 13 10 21
10 8 0 12 -4 9 -10z m-2805 -30 c0 -13 -28 -25 -38 -16 -3 4 0 11 8 16 20 13
30 12 30 0z m2746 -5 c-21 -16 -32 -13 -21 4 3 6 14 11 23 11 15 -1 15 -2 -2
-15z m-2550 -32 c-4 -4 -11 -1 -16 7 -16 25 -11 35 7 17 9 -9 13 -20 9 -24z
m2500 2 c-21 -16 -32 -13 -21 4 3 6 14 11 23 11 15 -1 15 -2 -2 -15z m-2479
-42 c-3 -15 -1 -36 5 -46 12 -23 3 -34 -16 -18 -11 9 -15 9 -19 -1 -4 -10 -8
-10 -16 2 -7 10 -6 17 2 22 8 5 6 13 -7 27 -21 23 -15 27 15 11 16 -9 19 -7
19 10 0 11 5 20 11 20 7 0 9 -11 6 -27z m2423 12 c-7 -9 -15 -13 -17 -11 -7 7
7 26 19 26 6 0 6 -6 -2 -15z m-50 -25 c-19 -12 -30 -12 -30 -1 0 10 31 20 40
14 2 -2 -2 -8 -10 -13z m-90 -10 c0 -5 -11 -10 -25 -10 -14 0 -25 5 -25 10 0
6 11 10 25 10 14 0 25 -4 25 -10z m40 0 c0 -5 -4 -10 -10 -10 -5 0 -10 5 -10
10 0 6 5 10 10 10 6 0 10 -4 10 -10z m-5020 -79 c0 -5 -7 -12 -16 -15 -24 -9
-28 -7 -14 9 14 17 30 20 30 6z m2720 -12 c0 -11 -4 -17 -10 -14 -5 3 -10 13
-10 21 0 8 5 14 10 14 6 0 10 -9 10 -21z m-720 -37 c0 -4 -11 -9 -25 -10 -14
-1 -25 3 -25 8 0 6 11 10 25 10 14 0 25 -4 25 -8z m2018 -5 c6 0 12 -3 12 -7
0 -4 -21 -5 -47 -3 -43 4 -60 -2 -166 -55 -64 -33 -125 -66 -134 -73 -9 -8
-18 -13 -20 -11 -11 8 -33 0 -27 -10 5 -7 2 -9 -8 -5 -9 3 -20 1 -25 -4 -5 -5
-23 -12 -39 -15 -16 -3 -30 -9 -32 -15 -2 -5 -11 -9 -20 -8 -11 0 -12 2 -4 6
6 2 12 11 12 18 0 7 16 16 36 19 20 4 113 45 207 92 151 75 176 85 207 78 19
-3 41 -7 48 -7z m72 -16 c0 -5 -9 -7 -20 -4 -11 3 -20 7 -20 9 0 2 9 4 20 4
11 0 20 -4 20 -9z m60 -1 c0 -5 -9 -10 -20 -10 -11 0 -20 5 -20 10 0 6 9 10
20 10 11 0 20 -4 20 -10z m60 -10 c0 -13 -11 -13 -30 0 -12 8 -11 10 8 10 12
0 22 -4 22 -10z m50 0 c12 -8 11 -10 -7 -10 -13 0 -23 5 -23 10 0 13 11 13 30
0z m-2271 -26 c12 -27 7 -45 -8 -28 -14 14 -23 54 -13 54 5 0 14 -12 21 -26z
m2394 -1 c-7 -2 -19 -2 -25 0 -7 3 -2 5 12 5 14 0 19 -2 13 -5z m-2433 -48
c-7 -8 -17 -12 -23 -8 -6 4 -3 11 8 19 23 17 32 10 15 -11z m-550 5 c0 -13
-20 -13 -40 0 -12 8 -9 10 13 10 15 0 27 -4 27 -10z m50 0 c8 -5 12 -12 9 -15
-8 -8 -39 5 -39 16 0 11 11 11 30 -1z m584 -16 c9 -8 20 -12 26 -9 20 12 9 -7
-20 -37 -22 -21 -30 -25 -30 -13 0 8 7 18 16 22 13 5 12 9 -7 29 -25 26 -10
34 15 8z m224 -8 c2 -9 -2 -16 -9 -16 -7 0 -3 -9 10 -21 25 -23 21 -40 -5 -19
-13 12 -17 11 -25 -1 -5 -8 -9 -22 -9 -32 0 -10 -5 -15 -11 -12 -5 4 -24 1
-40 -5 -40 -17 -48 -5 -10 14 26 14 29 19 21 40 -14 39 7 74 45 71 18 -1 31
-9 33 -19z m-348 -5 c0 -11 -31 -24 -39 -16 -3 3 1 10 9 15 19 12 30 12 30 1z
m220 -13 c0 -13 -32 -6 -37 9 -3 7 3 9 16 6 12 -3 21 -10 21 -15z m-635 1 c12
-19 -5 -23 -22 -6 -16 16 -16 17 -1 17 9 0 20 -5 23 -11z m365 -18 c0 -5 -7
-12 -16 -15 -24 -9 -28 -7 -14 9 14 17 30 20 30 6z m-320 -21 c13 -8 13 -10
-2 -10 -9 0 -20 5 -23 10 -8 13 5 13 25 0z m270 -9 c0 -5 -7 -12 -16 -15 -24
-9 -28 -7 -14 9 14 17 30 20 30 6z m-87 -18 c-5 -12 -2 -15 10 -10 26 10 29
-9 3 -21 -19 -8 -23 -7 -23 6 -2 21 5 42 11 42 3 0 2 -8 -1 -17z m-139 -9 c4
-10 1 -14 -6 -12 -15 5 -23 28 -10 28 5 0 13 -7 16 -16z m460 0 c9 -24 7 -28
-9 -14 -17 14 -20 30 -6 30 5 0 12 -7 15 -16z m1375 0 c2 -2 -6 -4 -18 -4 -14
0 -25 -7 -28 -19 -2 -10 -20 -25 -39 -35 -43 -20 -54 -20 -54 0 0 29 -25 8
-28 -24 -2 -20 -9 -32 -18 -32 -11 0 -14 -16 -14 -75 0 -41 4 -75 9 -75 8 0
29 -86 35 -145 8 -66 43 -153 65 -159 9 -3 51 -3 94 -2 43 1 102 -3 130 -11
28 -7 79 -13 113 -13 83 0 119 -13 120 -45 2 -32 -10 -32 -24 0 -11 23 -16 25
-87 25 -41 0 -83 -5 -93 -11 -15 -9 -35 -7 -92 11 -58 18 -80 21 -101 13 -15
-6 -31 -7 -36 -3 -4 5 -28 15 -53 23 -37 12 -46 20 -53 48 -5 19 -13 39 -17
44 -9 11 -27 107 -34 180 -5 56 13 236 25 251 12 15 91 55 114 58 8 1 17 5 21
9 6 6 53 -1 63 -9z m56 6 c3 -5 -3 -10 -14 -10 -12 0 -21 5 -21 10 0 6 6 10
14 10 8 0 18 -4 21 -10z m-2025 -42 c0 -14 -18 -9 -24 8 -11 28 -6 39 9 20 8
-11 15 -23 15 -28z m195 12 c3 -5 -3 -10 -14 -10 -12 0 -21 5 -21 10 0 6 6 10
14 10 8 0 18 -4 21 -10z m50 -10 c-3 -5 -13 -10 -21 -10 -8 0 -12 5 -9 10 3 6
13 10 21 10 8 0 12 -4 9 -10z m-221 -36 c9 -24 7 -28 -9 -14 -17 14 -20 30 -6
30 5 0 12 -7 15 -16z m34 -46 c7 -7 12 -16 12 -20 0 -15 -15 -8 -28 12 -13 22
-3 27 16 8z m36 -54 c4 -10 1 -14 -6 -12 -15 5 -23 28 -10 28 5 0 13 -7 16
-16z m30 -50 c9 -22 -3 -32 -14 -14 -12 19 -12 30 -1 30 5 0 12 -7 15 -16z
m32 -71 c-4 -4 -11 -1 -16 7 -16 25 -11 35 7 17 9 -9 13 -20 9 -24z m684 -120
c34 -56 60 -107 58 -114 -5 -14 -138 198 -138 220 0 22 11 8 80 -106z m1736
-274 c16 -17 47 -40 69 -51 22 -11 59 -36 82 -54 23 -19 68 -44 100 -56 36
-14 89 -48 140 -90 45 -38 92 -72 104 -76 12 -5 42 -4 66 2 32 7 57 6 89 -2
69 -19 175 -12 142 9 -9 6 -10 11 -2 17 6 4 14 14 17 22 3 10 6 7 6 -8 1 -16
11 -27 35 -37 18 -8 36 -21 39 -30 7 -18 -4 -20 -21 -3 -6 6 -2 -12 8 -40 11
-29 20 -60 20 -70 -1 -15 -2 -15 -15 2 -8 11 -18 34 -21 52 -9 49 -28 59 -113
60 -42 1 -100 4 -128 9 -45 6 -53 5 -53 -8 0 -8 -5 -17 -11 -19 -16 -5 7 -58
26 -58 9 0 13 -4 10 -10 -13 -22 -43 -10 -50 19 -5 24 -12 30 -37 33 -17 2
-33 8 -35 14 -2 7 6 10 22 7 33 -7 32 2 -4 20 -15 8 -64 44 -108 80 -48 40
-104 76 -137 88 -31 12 -76 39 -101 61 -24 21 -61 45 -82 54 -54 22 -126 94
-95 94 5 0 21 -14 38 -31z m854 -87 c0 -13 -23 -32 -37 -32 -11 0 -11 5 -3 20
10 19 40 28 40 12z m-2347 -65 c24 -76 21 -108 -13 -158 -18 -27 -30 -57 -30
-77 0 -20 -4 -31 -10 -27 -20 12 -10 70 20 109 34 45 38 82 15 146 -17 48 -18
60 -7 60 5 0 16 -24 25 -53z m1887 33 c0 -13 -20 -13 -40 0 -12 8 -9 10 13 10
15 0 27 -4 27 -10z m461 -23 c-8 -8 -11 -7 -11 4 0 20 13 34 18 19 3 -7 -1
-17 -7 -23z m-406 13 c3 -5 -3 -10 -14 -10 -12 0 -21 5 -21 10 0 6 6 10 14 10
8 0 18 -4 21 -10z m39 -59 c-3 -3 -9 0 -13 7 -4 8 -15 10 -27 6 -16 -6 -15 -3
6 20 l25 27 7 -27 c4 -16 5 -30 2 -33z m352 -8 c-11 -11 -17 4 -9 23 7 18 8
18 11 1 2 -10 1 -21 -2 -24z m-311 -14 c12 -19 -5 -23 -22 -6 -16 16 -16 17
-1 17 9 0 20 -5 23 -11z m295 -30 c0 -14 -7 -19 -27 -18 -17 1 -21 3 -10 6 9
2 17 13 17 24 0 11 5 17 10 14 6 -3 10 -15 10 -26z m-250 1 c8 -5 11 -12 7
-16 -4 -4 -15 0 -24 9 -18 18 -8 23 17 7z m70 -20 c0 -5 -9 -10 -20 -10 -11 0
-20 5 -20 10 0 6 9 10 20 10 11 0 20 -4 20 -10z m106 -5 c-21 -16 -32 -13 -21
4 3 6 14 11 23 11 15 -1 15 -2 -2 -15z m-46 -5 c0 -5 -6 -10 -14 -10 -8 0 -17
-7 -20 -16 -9 -24 -19 -10 -11 15 6 21 45 30 45 11z m156 -17 c-7 -7 -26 7
-26 19 0 6 6 6 15 -2 9 -7 13 -15 11 -17z m54 -25 c0 -13 -23 -5 -28 10 -2 7
2 10 12 6 9 -3 16 -11 16 -16z m73 -16 c17 9 18 8 8 -10 -9 -16 -5 -25 23 -53
18 -19 31 -40 28 -47 -5 -15 -22 -16 -22 -2 0 12 -4 17 -54 76 -38 43 -49 69
-18 41 13 -12 22 -13 35 -5z m434 -110 c23 -48 44 -118 63 -208 15 -74 30
-137 32 -139 4 -4 330 98 546 170 44 14 72 19 70 13 -4 -12 -108 -48 -563
-193 -148 -48 -332 -107 -408 -132 -118 -38 -165 -48 -146 -29 2 3 109 38 238
80 128 41 235 77 237 79 4 4 -23 150 -33 177 -3 8 -7 31 -9 50 -2 19 -19 67
-38 105 -47 94 -57 125 -49 138 4 6 10 1 16 -14 5 -13 24 -57 44 -97z m-377
-55 c0 -18 -2 -19 -10 -7 -13 20 -13 43 0 35 6 -3 10 -16 10 -28z m207 16 c8
-10 12 -13 10 -8 -3 6 11 11 35 11 34 1 39 -1 35 -17 -3 -11 0 -22 6 -26 7 -4
3 -9 -9 -14 -13 -5 -24 -1 -35 14 -20 25 -44 15 -29 -14 6 -10 18 -19 27 -19
14 0 14 -2 -2 -20 -20 -22 -35 -18 -35 10 0 21 -28 40 -47 33 -7 -3 -13 0 -13
6 0 6 5 11 11 11 6 0 8 7 5 17 -4 9 -1 20 6 25 18 11 19 10 35 -9z m-187 -58
c-7 -8 -16 -15 -21 -15 -5 0 -6 7 -3 15 4 8 13 15 21 15 13 0 13 -3 3 -15z
m-30 -40 c0 -17 -27 -32 -37 -21 -4 3 2 13 13 21 24 18 24 18 24 0z m186 -53
c-12 -11 -18 7 -10 30 l8 23 4 -23 c2 -13 1 -26 -2 -30z m214 -3 c0 -6 -9 -13
-21 -16 -18 -5 -20 -11 -16 -41 4 -19 3 -32 0 -28 -3 3 -12 1 -20 -5 -13 -12
-13 -11 -17 34 -1 6 -5 15 -11 20 -12 9 12 27 37 27 9 0 20 5 23 10 8 13 25
13 25 -1z m-189 -18 c-7 -5 -10 -14 -7 -20 4 -6 0 -11 -8 -11 -9 0 -16 9 -16
20 0 14 7 20 23 20 16 0 18 -3 8 -9z m68 -34 c-9 -7 -14 -18 -11 -26 3 -10 0
-12 -12 -8 -9 4 -16 2 -16 -4 0 -6 -4 -7 -10 -4 -5 3 -10 15 -10 25 0 18 16
27 55 29 18 0 18 -1 4 -12z m-805 -157 c-5 -23 -3 -30 10 -30 9 0 16 -4 16
-10 0 -5 -6 -10 -14 -10 -8 0 -18 5 -21 10 -10 15 -23 12 -29 -7 -2 -10 -4 -4
-3 12 1 17 -3 36 -7 44 -7 10 -4 12 13 6 12 -4 21 -2 21 4 0 6 4 11 10 11 5 0
7 -13 4 -30z m-2454 10 c0 -5 -4 -10 -10 -10 -5 0 -10 5 -10 10 0 6 5 10 10
10 6 0 10 -4 10 -10z m44 -94 c-5 -13 -9 -14 -20 -5 -8 6 -11 15 -8 20 3 5 0
17 -5 27 -17 32 1 35 21 3 10 -15 15 -36 12 -45z m44 2 c-6 -18 -28 -21 -28
-4 0 9 7 16 16 16 9 0 14 -5 12 -12z m-388 -45 c0 -67 9 -77 61 -71 24 3 52 9
62 13 9 4 17 3 17 -2 0 -12 -68 -33 -108 -33 -27 0 -32 5 -41 38 -14 47 -14
102 -1 102 6 0 10 -21 10 -47z m332 -15 c-15 -15 -24 -6 -16 16 5 12 10 14 17
7 8 -8 8 -14 -1 -23z m71 7 c4 -8 2 -17 -3 -20 -6 -4 -10 -4 -10 -1 0 2 -3 11
-6 20 -3 9 -2 16 4 16 5 0 12 -7 15 -15z m-133 -44 c0 -10 -7 -22 -16 -25 -14
-5 -14 -9 -3 -23 12 -15 12 -16 -4 -10 -10 4 -28 0 -43 -9 -37 -25 -29 -1 11
30 19 16 35 34 35 42 0 8 5 14 10 14 6 0 10 -9 10 -19z m45 9 c-3 -5 -13 -10
-21 -10 -8 0 -12 5 -9 10 3 6 13 10 21 10 8 0 12 -4 9 -10z m115 -20 c0 -11
-4 -20 -10 -20 -5 0 -10 9 -10 20 0 11 5 20 10 20 6 0 10 -9 10 -20z m590 -29
c-6 -16 -9 -35 -4 -42 4 -7 3 -10 -3 -6 -6 4 -30 -42 -58 -111 -85 -209 -93
-226 -104 -230 -8 -3 144 385 165 419 13 21 16 -1 4 -30z m74 -8 c3 -10 24
-121 46 -248 22 -126 44 -244 48 -261 l7 -31 140 45 c165 52 185 57 185 45 0
-5 -74 -31 -165 -58 -150 -45 -164 -51 -160 -69 17 -71 84 -460 80 -464 -11
-11 -17 13 -56 229 -22 123 -42 229 -44 236 -3 10 -14 9 -47 -3 -24 -8 -122
-39 -218 -69 -96 -29 -305 -94 -465 -144 -159 -50 -298 -94 -307 -97 -10 -3
-18 -1 -18 5 0 5 24 16 53 25 29 8 161 49 292 91 132 42 312 98 400 125 88 27
192 59 230 72 l70 24 -2 39 c-3 39 -77 457 -89 503 -7 26 12 31 20 5z m-644
-13 c8 -5 11 -12 7 -16 -4 -4 -15 0 -24 9 -18 18 -8 23 17 7z m-161 -23 c6 -8
8 -17 4 -20 -7 -8 -33 11 -33 24 0 13 16 11 29 -4z m202 -23 c12 -14 11 -16
-5 -13 -11 2 -21 10 -24 17 -5 17 13 15 29 -4z m-151 -25 c0 -11 -27 -12 -34
0 -3 4 -3 11 0 14 8 8 34 -3 34 -14z m60 -9 c0 -5 -6 -10 -14 -10 -8 0 -18 5
-21 10 -3 6 3 10 14 10 12 0 21 -4 21 -10z m120 -10 c0 -11 -4 -20 -10 -20 -5
0 -10 9 -10 20 0 11 5 20 10 20 6 0 10 -9 10 -20z m-110 -35 c0 -8 -4 -15 -10
-15 -5 0 -10 7 -10 15 0 8 5 15 10 15 6 0 10 -7 10 -15z m126 -42 c-4 -4 -11
-1 -16 7 -16 25 -11 35 7 17 9 -9 13 -20 9 -24z m-108 -3 c0 -16 -4 -30 -9
-30 -10 0 -12 43 -2 53 10 10 10 10 11 -23z m57 -20 c8 -13 -15 -13 -35 0 -12
8 -11 10 7 10 12 0 25 -4 28 -10z m60 0 c-3 -5 -16 -10 -28 -10 -18 0 -19 2
-7 10 20 13 43 13 35 0z m95 -64 c0 -30 27 -41 76 -31 21 3 34 2 34 -5 0 -5
-11 -10 -24 -10 -32 0 -39 -12 -26 -44 6 -16 6 -27 0 -31 -6 -4 -10 -1 -10 4
0 6 -11 11 -25 11 -18 0 -25 5 -25 20 0 11 -3 20 -7 20 -5 0 -8 20 -9 45 0 25
3 45 8 45 4 0 8 -11 8 -24z m1920 -1 c-7 -8 -17 -15 -22 -15 -6 0 -5 7 2 15 7
8 17 15 22 15 6 0 5 -7 -2 -15z m-37 -45 c-3 -11 -9 -20 -14 -20 -10 0 -12 24
-2 33 13 13 21 7 16 -13z m-13 -60 c0 -11 -4 -20 -10 -20 -5 0 -10 9 -10 20 0
11 5 20 10 20 6 0 10 -9 10 -20z m15 -72 c4 -17 3 -28 -3 -28 -12 0 -22 24
-22 53 0 27 16 11 25 -25z m3493 -464 c14 -28 18 -44 10 -40 -7 3 -20 9 -29
12 -15 5 -25 74 -11 74 4 0 17 -21 30 -46z m52 -69 c7 -8 19 -15 26 -15 18 0
18 -5 -3 -38 -32 -50 -52 -53 -64 -8 -5 19 -4 26 4 23 7 -2 11 -12 11 -21 -2
-22 13 -20 25 3 8 14 6 22 -8 35 -15 13 -20 14 -24 4 -2 -7 -7 -10 -11 -7 -10
9 4 39 19 39 7 0 18 -7 25 -15z m-200 -195 c0 -5 -3 -10 -7 -10 -5 0 -18 -3
-30 -6 -13 -4 -23 -2 -23 4 0 10 19 18 48 21 6 0 12 -3 12 -9z m-710 -219 c0
-11 -407 -147 -416 -138 -4 4 -5 9 -3 11 6 5 393 134 407 135 6 1 12 -3 12 -8z
m121 -41 c15 0 10 -17 -8 -24 -9 -4 -20 -1 -25 6 -12 21 -9 31 8 24 9 -3 20
-6 25 -6z m-21 -65 c0 -8 -9 -15 -20 -15 -20 0 -26 11 -13 23 12 13 33 7 33
-8z m-50 -34 c0 -6 -4 -12 -10 -16 -5 -3 -7 -12 -3 -20 3 -8 1 -15 -5 -15 -5
0 -12 14 -14 30 -4 24 -1 30 14 30 10 0 18 -4 18 -9z m32 -84 c23 5 22 4 -2
-16 -14 -11 -33 -23 -44 -27 -14 -5 -17 -13 -12 -34 4 -23 2 -29 -12 -28 -9 0
-23 -1 -31 -3 -10 -3 -15 4 -15 21 0 19 9 30 37 45 20 11 37 27 36 35 -2 28 2
35 11 18 6 -10 18 -14 32 -11z m-2 -149 c0 -4 -6 -8 -14 -8 -7 0 -19 -7 -26
-15 -7 -8 -16 -12 -22 -9 -5 3 -15 0 -23 -6 -9 -8 -15 -8 -15 -2 0 6 -3 18 -7
27 -5 15 -3 16 15 6 27 -15 32 -14 26 4 -5 11 2 14 30 13 20 -1 36 -5 36 -10z
m-130 -27 c0 -5 -14 -11 -31 -15 -27 -5 -30 -8 -19 -21 22 -26 3 -28 -30 -3
-31 22 -31 23 -8 26 12 2 27 8 33 13 12 12 55 12 55 0z m-3630 -541 c0 -5 -10
-10 -22 -10 -19 0 -20 2 -8 10 19 13 30 13 30 0z m-60 -20 c-20 -13 -40 -13
-40 0 0 6 12 10 28 10 21 0 24 -2 12 -10z m-55 -10 c-3 -5 -16 -10 -28 -10
-18 0 -19 2 -7 10 20 13 43 13 35 0z m-65 -20 c-19 -13 -30 -13 -30 0 0 6 10
10 23 10 18 0 19 -2 7 -10z m-50 -10 c0 -5 -9 -10 -21 -10 -11 0 -17 5 -14 10
3 6 13 10 21 10 8 0 14 -4 14 -10z m-70 -20 c-19 -12 -30 -12 -30 -1 0 10 31
20 40 14 2 -2 -2 -8 -10 -13z m-50 -10 c0 -5 -9 -10 -21 -10 -11 0 -17 5 -14
10 3 6 13 10 21 10 8 0 14 -4 14 -10z m-64 -22 c-10 -6 -20 -7 -24 -3 -9 8 20
25 31 18 5 -3 2 -10 -7 -15z m-51 -8 c-3 -5 -13 -10 -21 -10 -8 0 -12 5 -9 10
3 6 13 10 21 10 8 0 12 -4 9 -10z m-65 -20 c-19 -12 -30 -12 -30 -1 0 10 31
20 40 14 2 -2 -2 -8 -10 -13z m-50 -10 c0 -5 -9 -10 -21 -10 -11 0 -17 5 -14
10 3 6 13 10 21 10 8 0 14 -4 14 -10z m-70 -20 c-19 -12 -30 -12 -30 -1 0 10
31 20 40 14 2 -2 -2 -8 -10 -13z m-45 -10 c-3 -5 -15 -10 -26 -10 -11 0 -17 5
-14 10 3 6 15 10 26 10 11 0 17 -4 14 -10z m-69 -25 c-21 -16 -32 -13 -21 4 3
6 14 11 23 11 15 -1 15 -2 -2 -15z m-49 -32 c-9 -9 -19 -14 -23 -11 -10 10 6
28 24 28 15 0 15 -1 -1 -17z m-43 -37 c-6 -16 -24 -23 -24 -8 0 10 22 33 27
28 2 -2 1 -11 -3 -20z m-37 -51 c-4 -8 -11 -15 -17 -15 -7 0 -7 6 0 21 13 23
26 19 17 -6z m-31 -62 c-11 -11 -17 4 -9 23 7 18 8 18 11 1 2 -10 1 -21 -2
-24z m-16 -30 c0 -5 -5 -15 -10 -23 -8 -12 -10 -11 -10 8 0 12 5 22 10 22 6 0
10 -3 10 -7z m-25 -53 c3 -5 1 -10 -4 -10 -6 0 -11 5 -11 10 0 6 2 10 4 10 3
0 8 -4 11 -10z m-24 -75 c-9 -25 -19 -45 -23 -45 -12 0 -10 13 7 54 22 52 36
45 16 -9z m-35 -92 c-11 -11 -17 4 -9 23 7 18 8 18 11 1 2 -10 1 -21 -2 -24z
m-25 -56 c-8 -8 -11 -7 -11 4 0 20 13 34 18 19 3 -7 -1 -17 -7 -23z m-21 -22
c7 -8 9 -22 5 -32 -6 -15 -8 -15 -12 -3 -3 8 -12 23 -21 33 -14 15 -14 17 0
17 9 0 21 -7 28 -15z m-9 -92 c-9 -16 -10 -14 -11 12 0 21 3 26 11 18 8 -8 8
-16 0 -30z m-8 -53 c-7 -28 -13 -25 -13 6 0 14 4 23 9 20 5 -3 7 -15 4 -26z
m-7 -67 c-11 -11 -19 6 -11 24 8 17 8 17 12 0 3 -10 2 -21 -1 -24z m4 -42 c0
-11 -4 -23 -10 -26 -6 -4 -10 5 -10 19 0 14 5 26 10 26 6 0 10 -9 10 -19z
m-13 -78 c-3 -10 -5 -4 -5 12 0 17 2 24 5 18 2 -7 2 -21 0 -30z m-1 -60 c-11
-11 -19 6 -11 24 8 17 8 17 12 0 3 -10 2 -21 -1 -24z"/>
<path d="M515 6160 c3 -5 8 -10 11 -10 2 0 4 5 4 10 0 6 -5 10 -11 10 -5 0 -7
-4 -4 -10z"/>
<path d="M3310 4758 c0 -9 5 -20 10 -23 13 -8 13 5 0 25 -8 13 -10 13 -10 -2z"/>
<path d="M3330 4690 c0 -8 5 -22 10 -30 9 -13 10 -13 10 0 0 8 -5 22 -10 30
-9 13 -10 13 -10 0z"/>
<path d="M2502 3119 c2 -7 10 -15 17 -17 8 -3 12 1 9 9 -2 7 -10 15 -17 17 -8
3 -12 -1 -9 -9z"/>
</g>
</svg>
