<?xml version="1.0" standalone="no"?>
<!DOCTYPE svg PUBLIC "-//W3C//DTD SVG 20010904//EN"
 "http://www.w3.org/TR/2001/REC-SVG-20010904/DTD/svg10.dtd">
<svg version="1.0" xmlns="http://www.w3.org/2000/svg"
 width="800.000000pt" height="800.000000pt" viewBox="0 0 800.000000 800.000000"
 preserveAspectRatio="xMidYMid meet">
<metadata>
Created by potrace 1.16, written by Peter Selinger 2001-2019
</metadata>
<g transform="translate(0.000000,800.000000) scale(0.100000,-0.100000)"
fill="#000000" stroke="none">
<path d="M0 4000 l0 -4000 1240 0 c1046 0 1240 2 1240 14 0 7 -7 45 -16 84
l-16 70 32 78 c17 43 35 109 40 147 8 64 22 97 41 97 14 0 10 -15 -8 -35 -13
-13 -17 -30 -15 -62 4 -37 -6 -80 -33 -146 -5 -12 -2 -17 10 -17 12 0 15 -5
11 -16 -3 -9 -6 -18 -6 -22 0 -3 -6 3 -14 14 -14 18 -15 18 -21 -9 -4 -16 -1
-66 6 -110 l15 -82 1551 -3 1552 -2 -8 22 c-5 13 -16 22 -25 22 -18 -2 -21 7
-6 22 6 6 4 18 -7 34 -10 14 -18 31 -19 38 -2 7 -8 20 -15 29 -7 8 -14 22 -15
30 -2 8 -10 23 -20 34 -9 10 -14 19 -9 19 4 0 0 11 -9 25 -9 13 -16 31 -16 39
0 8 -6 21 -12 28 -7 7 -19 31 -27 53 -7 22 -31 77 -52 121 -21 45 -39 93 -39
108 0 15 -6 29 -14 32 -8 3 -17 17 -21 31 -5 22 1 32 37 65 53 50 87 72 94 65
3 -3 -24 -27 -60 -53 -36 -26 -66 -52 -66 -56 0 -11 6 -8 82 44 59 39 68 43
68 31 0 -5 -27 -26 -61 -47 -54 -35 -60 -42 -54 -65 18 -74 139 -352 238 -548
l62 -123 1183 0 1182 0 -1 2338 c-1 1285 -3 2329 -6 2320 -2 -10 -10 -18 -16
-18 -8 0 -8 -3 1 -8 13 -9 6 -42 -9 -42 -5 0 -9 -7 -9 -16 0 -8 -17 -32 -37
-52 l-38 -36 30 -6 c28 -5 28 -7 11 -17 -15 -8 -29 -7 -59 3 -22 8 -48 14 -58
14 -11 0 -19 5 -19 11 0 6 9 9 20 6 11 -3 20 0 20 6 0 6 3 8 6 4 8 -8 28 12
37 37 4 11 13 16 22 12 8 -3 14 0 12 7 -1 7 4 11 11 9 6 -1 12 7 12 19 0 15 4
19 16 15 13 -5 15 -2 11 16 -4 14 2 31 19 50 19 24 24 41 24 86 l0 56 -41 -39
c-23 -22 -83 -93 -135 -158 -52 -64 -99 -117 -104 -117 -7 0 -7 6 -1 19 6 10
7 22 3 26 -4 3 -1 5 6 3 10 -3 162 177 162 192 0 3 -20 26 -45 50 -39 38 -50
44 -100 48 -30 2 -58 8 -61 13 -3 5 -9 9 -14 9 -12 0 -330 -397 -323 -404 4
-3 1 -6 -6 -6 -9 0 -11 -8 -7 -26 5 -18 3 -24 -7 -22 -7 2 -30 -14 -51 -35
-89 -90 -33 5 106 177 l67 83 -144 107 c-79 59 -154 121 -168 139 -13 18 -48
56 -77 85 -29 29 -50 56 -47 59 8 8 65 -41 108 -93 l36 -43 123 162 c68 89
124 164 126 166 2 1 7 1 13 0 6 -2 -47 -80 -119 -173 l-129 -169 37 -30 c20
-16 52 -37 70 -45 l34 -17 131 68 c73 37 140 67 150 67 10 0 16 4 12 9 -3 5
-1 12 5 16 5 3 10 -1 10 -9 0 -14 38 -43 44 -34 128 161 196 249 210 271 19
29 36 35 36 14 0 -7 20 -33 45 -57 l45 -44 0 104 -1 105 -25 -29 c-37 -42 -42
-23 -5 22 l31 40 0 388 0 387 -117 119 c-116 116 -143 135 -143 101 0 -10 -36
-47 -83 -85 -88 -71 -230 -218 -296 -307 -22 -29 -55 -67 -74 -86 l-34 -33
-26 25 -25 26 -26 -29 c-14 -16 -23 -36 -20 -45 2 -9 -2 -22 -11 -29 -18 -15
-20 0 -2 19 9 11 9 12 0 7 -7 -4 -18 -16 -24 -28 -7 -13 -7 -18 -1 -14 6 3 13
2 16 -3 4 -5 -4 -13 -16 -17 -13 -4 -26 -11 -29 -16 -7 -11 -39 0 -39 14 0 6
7 8 15 4 8 -3 15 -2 15 3 0 4 -17 12 -38 17 -26 6 -37 15 -36 27 1 9 -3 14 -9
10 -7 -4 -8 0 -4 11 4 10 7 20 7 22 0 2 6 4 14 4 8 0 18 5 21 10 4 6 1 9 -6 8
-6 -2 -14 3 -17 11 -3 10 0 12 12 8 14 -6 16 -3 11 13 -8 25 -4 25 40 0 19
-11 35 -16 35 -11 0 6 -9 12 -20 16 -11 3 -29 19 -40 36 -27 37 -36 37 -44 -3
-13 -65 -68 -96 -112 -63 -33 25 -51 18 -61 -22 -4 -20 -14 -38 -21 -41 -9 -3
-10 3 -2 23 14 37 12 65 -4 65 -7 0 -30 18 -50 40 -20 22 -39 40 -43 40 -3 0
-21 12 -40 26 -33 25 -35 25 -49 8 -20 -28 -29 -67 -16 -72 19 -6 14 -19 -8
-25 -15 -4 -21 -1 -19 11 5 56 -1 57 -46 7 -24 -28 -44 -58 -45 -67 0 -10 -4
-18 -10 -18 -14 0 -60 -53 -60 -68 0 -8 -11 -27 -25 -44 l-25 -29 185 -181
c102 -99 185 -185 185 -190 0 -5 -83 71 -185 169 -102 98 -189 179 -193 180
-4 2 -17 -12 -30 -30 -54 -77 -46 -74 -97 -33 -56 47 -93 58 -126 40 -32 -18
-42 -17 -35 2 4 11 2 15 -8 11 -8 -3 -20 1 -26 9 -9 9 -33 14 -74 14 -60 0
-110 19 -93 36 4 4 13 2 19 -4 7 -7 18 -12 25 -12 7 0 -1 13 -19 29 -35 31
-48 26 -40 -15 2 -14 0 -24 -7 -24 -6 0 -11 7 -11 15 0 9 -6 12 -16 8 -14 -5
-15 -3 -5 15 6 11 16 24 21 27 6 3 10 10 10 15 0 12 -90 66 -122 74 -15 3 -35
19 -45 34 -9 15 -30 42 -47 60 -21 22 -25 32 -14 32 16 0 104 -90 100 -102 -1
-5 5 -8 13 -8 8 0 15 5 15 10 0 6 11 10 25 10 14 0 25 -4 25 -9 0 -5 9 -11 20
-14 11 -3 20 -11 20 -17 0 -8 -8 -7 -26 5 -14 9 -29 14 -32 10 -4 -4 2 -11 13
-18 11 -6 43 -33 72 -60 33 -31 66 -52 90 -58 51 -12 73 -11 73 2 0 6 9 24 21
40 l20 29 -30 0 c-16 0 -33 5 -36 11 -5 7 -15 5 -31 -6 -23 -15 -24 -14 -24 6
0 20 3 21 58 14 31 -4 61 -8 66 -8 5 -1 10 3 12 9 3 6 -11 10 -31 11 -25 1
-43 9 -61 28 -19 21 -28 25 -37 16 -18 -18 -31 -13 -15 7 16 18 13 42 -6 54
-7 5 -4 8 7 8 9 0 17 -5 17 -11 0 -6 8 -8 19 -4 14 4 21 -1 29 -25 10 -29 27
-36 70 -31 6 1 12 -5 12 -14 0 -21 17 -19 30 4 16 31 13 36 -47 76 -32 21 -53
40 -46 42 6 2 34 -12 63 -33 l51 -36 49 23 c28 13 50 29 50 34 0 6 -23 37 -52
69 l-52 58 -42 -48 c-23 -27 -46 -45 -50 -41 -5 4 -3 11 3 15 6 4 25 24 41 45
l30 38 -41 39 -42 39 -41 -47 -42 -47 -53 50 c-55 51 -67 65 -53 65 5 0 29
-20 55 -46 l46 -45 38 42 38 43 -56 51 c-31 29 -54 55 -50 58 3 4 15 0 25 -10
10 -9 18 -11 18 -5 0 6 -4 14 -10 17 -5 3 -10 10 -10 16 0 5 30 -7 66 -27 36
-20 69 -32 73 -28 5 5 33 41 64 81 l56 71 -45 37 c-44 37 -74 41 -74 10 0 -8
-4 -15 -10 -15 -5 0 -10 3 -10 6 0 15 38 70 63 92 15 13 27 28 27 34 0 6 18
28 40 49 42 41 54 35 20 -9 -18 -23 -19 -27 -5 -34 8 -5 20 -6 25 -3 6 3 10 0
10 -8 0 -14 20 -27 39 -27 5 0 18 26 30 58 11 33 30 67 41 77 21 19 20 19 -72
107 -51 48 -96 88 -99 88 -4 0 -26 -25 -49 -55 -41 -53 -60 -67 -60 -45 0 12
100 140 109 140 3 0 33 -27 67 -61 l62 -61 41 54 c22 30 41 60 41 66 0 7 4 12
9 12 7 0 150 176 176 218 6 9 17 23 26 32 9 8 46 51 82 96 l66 81 -183 190
c-101 104 -189 200 -196 213 -7 13 -16 54 -20 91 -5 45 -15 78 -30 99 l-22 31
-24 -22 c-19 -18 -24 -19 -24 -7 0 9 7 21 15 28 12 10 13 16 4 26 -10 12 -221
14 -1292 14 l-1281 0 64 -65 c35 -35 61 -68 57 -72 -4 -4 -40 26 -79 65 l-72
72 -191 0 -190 0 -68 -87 c-37 -48 -67 -93 -67 -101 0 -8 77 -88 170 -179 148
-144 190 -193 163 -193 -4 0 -84 77 -179 170 -94 94 -177 170 -185 170 -7 0
-29 -18 -49 -41 l-35 -41 -42 36 c-45 39 -67 48 -38 16 17 -18 17 -21 1 -45
-14 -21 -20 -23 -36 -15 -37 20 -34 33 27 109 2 3 21 -13 43 -34 l40 -39 25
24 c48 45 45 55 -56 156 l-94 94 -942 0 c-519 0 -943 -4 -943 -8 0 -4 -9 -8
-20 -8 -11 0 -20 4 -20 8 0 4 -220 8 -490 8 l-490 0 0 -4000z m1020 3955 c7
-8 8 -15 2 -15 -5 0 -15 7 -22 15 -7 8 -8 15 -2 15 5 0 15 -7 22 -15z m30 -51
c0 -8 -4 -14 -10 -14 -5 0 -10 9 -10 21 0 11 5 17 10 14 6 -3 10 -13 10 -21z
m-20 -33 c0 -5 -7 -12 -16 -15 -24 -9 -28 -7 -14 9 14 17 30 20 30 6z m-10
-46 c7 -8 8 -15 2 -15 -5 0 -15 7 -22 15 -7 8 -8 15 -2 15 5 0 15 -7 22 -15z
m40 -40 c7 -8 8 -15 2 -15 -5 0 -15 7 -22 15 -7 8 -8 15 -2 15 5 0 15 -7 22
-15z m200 -25 c0 -5 -4 -10 -10 -10 -5 0 -10 5 -10 10 0 6 5 10 10 10 6 0 10
-4 10 -10z m-150 -32 c0 -6 -7 -5 -15 2 -8 7 -15 17 -15 22 0 6 7 5 15 -2 8
-7 15 -17 15 -22z m141 -31 c-8 -8 -11 -7 -11 4 0 20 13 34 18 19 3 -7 -1 -17
-7 -23z m-101 -9 c0 -6 -7 -5 -15 2 -8 7 -15 17 -15 22 0 6 7 5 15 -2 8 -7 15
-17 15 -22z m138 -44 c-10 -10 -28 6 -28 24 0 15 1 15 17 -1 9 -9 14 -19 11
-23z m-93 15 c12 -19 -5 -23 -22 -6 -16 16 -16 17 -1 17 9 0 20 -5 23 -11z
m245 -24 c0 -9 -6 -12 -15 -9 -8 4 -12 10 -9 15 8 14 24 10 24 -6z m2173 -105
c-73 -94 -93 -113 -93 -91 0 17 164 214 168 203 2 -6 -32 -56 -75 -112z
m-2816 81 c8 -13 19 -18 33 -14 11 3 20 2 19 -3 -1 -5 1 -17 5 -26 4 -9 6 -25
4 -35 -3 -14 -7 -10 -18 15 -16 35 -36 41 -55 15 -11 -15 -13 -11 -17 25 -4
45 9 55 29 23z m438 8 c12 -19 -5 -23 -22 -6 -16 16 -16 17 -1 17 9 0 20 -5
23 -11z m83 -12 c5 -24 -15 -21 -21 4 -3 13 -1 19 6 16 7 -2 13 -11 15 -20z
m177 13 c3 -5 -3 -10 -14 -10 -12 0 -21 5 -21 10 0 6 6 10 14 10 8 0 18 -4 21
-10z m50 -30 c3 -5 -1 -10 -9 -10 -8 0 -18 5 -21 10 -3 6 1 10 9 10 8 0 18 -4
21 -10z m-267 -19 c3 -8 -1 -12 -9 -9 -7 2 -15 10 -17 17 -3 8 1 12 9 9 7 -2
15 -10 17 -17z m322 9 c8 -5 12 -12 9 -15 -8 -8 -39 5 -39 16 0 11 11 11 30
-1z m-266 -25 c3 -8 2 -15 -3 -15 -5 0 -14 7 -21 15 -10 12 -10 15 3 15 8 0
17 -7 21 -15z m316 -5 c8 -5 11 -12 7 -16 -4 -4 -15 0 -24 9 -18 18 -8 23 17
7z m-330 -20 c6 -11 7 -20 2 -20 -10 0 -32 21 -32 32 0 16 19 8 30 -12z m375
-10 c4 -6 14 -8 23 -5 11 3 22 -3 30 -15 10 -17 10 -20 -4 -20 -19 0 -74 31
-74 42 0 12 18 10 25 -2z m195 -26 c0 -8 -4 -14 -10 -14 -5 0 -10 9 -10 21 0
11 5 17 10 14 6 -3 10 -13 10 -21z m-82 -33 c3 -8 -1 -12 -9 -9 -7 2 -15 10
-17 17 -3 8 1 12 9 9 7 -2 15 -10 17 -17z m4790 -52 c-1 -25 -3 -26 -36 -18
-51 11 -68 32 -54 64 l12 26 39 -23 c31 -18 39 -28 39 -49z m-4678 52 c0 -12
-20 -25 -27 -18 -7 7 6 27 18 27 5 0 9 -4 9 -9z m-50 -11 c0 -5 -9 -10 -20
-10 -11 0 -20 5 -20 10 0 6 9 10 20 10 11 0 20 -4 20 -10z m4576 -267 c-8 -8
-36 5 -36 17 0 7 6 7 21 0 11 -7 18 -14 15 -17z m60 -20 c-8 -8 -36 5 -36 17
0 7 6 7 21 0 11 -7 18 -14 15 -17z m58 -17 c-7 -19 -35 -18 -41 1 -2 6 6 13
19 15 29 5 30 4 22 -16z m-364 -362 c0 -3 -12 -21 -27 -40 -22 -29 -24 -37
-13 -44 8 -5 19 -5 25 -1 17 13 55 20 55 10 0 -5 -8 -12 -17 -16 -10 -3 -25
-12 -33 -19 -13 -11 -20 -9 -45 10 l-29 23 33 42 c29 36 51 52 51 35z m90 -71
c-1 -14 -40 -56 -47 -49 -4 3 4 17 17 31 25 26 30 30 30 18z m-350 -278 c16
10 7 -52 -11 -76 -15 -20 -22 -22 -36 -13 -24 14 -30 64 -9 64 9 0 21 9 28 20
7 11 14 16 16 10 2 -6 8 -8 12 -5z m-110 -390 c18 22 32 19 18 -5 -17 -27 -3
-35 20 -12 11 11 29 19 39 17 10 -2 20 -4 22 -4 3 -1 -11 -17 -30 -38 -18 -20
-29 -33 -22 -29 12 7 49 -51 39 -61 -8 -8 -48 5 -70 22 -19 14 -19 16 -2 28
17 12 16 14 -9 31 -32 21 -74 67 -75 80 0 6 13 -3 28 -18 26 -24 30 -25 42
-11z m-25 -75 c19 -36 19 -40 0 -40 -9 0 -15 9 -15 21 0 12 -8 28 -17 35 -17
13 -17 13 -1 14 10 0 24 -13 33 -30z m-3875 -66 c0 -9 -5 -14 -12 -12 -18 6
-21 28 -4 28 9 0 16 -7 16 -16z m-40 -4 c0 -5 -12 -13 -27 -16 -15 -4 -38 -20
-51 -36 -13 -15 -28 -25 -33 -22 -5 3 1 14 13 24 15 12 18 19 9 20 -11 0 -11
3 -1 15 7 9 20 13 29 10 9 -2 23 0 31 5 19 12 30 13 30 0z m31 -63 c-8 -8 -11
-7 -11 4 0 20 13 34 18 19 3 -7 -1 -17 -7 -23z m4669 -4 c0 -20 -3 -24 -11
-16 -7 7 -9 19 -6 27 10 24 17 19 17 -11z m59 -35 c1 -5 -3 -8 -9 -8 -5 0 -10
12 -9 28 0 24 1 25 9 7 5 -11 9 -23 9 -27z m-719 6 c0 -17 -4 -21 -20 -17 -14
4 -20 0 -20 -11 0 -9 -4 -16 -10 -16 -5 0 -10 4 -10 9 0 6 5 13 10 16 15 9 12
25 -5 25 -8 0 -15 4 -15 10 0 5 16 9 35 8 29 -1 35 -5 35 -24z m-4035 -3 c-3
-6 -11 -11 -17 -11 -6 0 -6 6 2 15 14 17 26 13 15 -4z m-97 -9 c6 -18 -15 -14
-22 4 -4 10 -1 14 6 12 6 -2 14 -10 16 -16z m4881 -38 c3 -16 1 -17 -13 -5
-19 16 -21 34 -3 29 6 -3 14 -13 16 -24z m-4813 -21 c-11 -11 -19 6 -11 24 8
17 8 17 12 0 3 -10 2 -21 -1 -24z m-58 7 c7 -11 9 -20 4 -20 -10 0 -32 22 -32
32 0 15 15 8 28 -12z m1102 5 c0 -8 -4 -15 -10 -15 -5 0 -10 7 -10 15 0 8 5
15 10 15 6 0 10 -7 10 -15z m3876 -1 c-4 -9 -1 -23 5 -30 6 -8 7 -14 2 -14 -8
0 -43 36 -43 44 0 3 8 7 18 9 9 3 19 5 21 6 2 0 0 -6 -3 -15z m88 10 c9 -3 16
-14 16 -24 0 -24 -34 -52 -54 -44 -22 8 -20 23 2 17 10 -2 24 3 31 11 11 13
11 17 -3 22 -9 3 -16 10 -16 15 0 11 3 11 24 3z m55 -15 c-16 -10 -23 -4 -14
10 3 6 11 8 17 5 6 -4 5 -9 -3 -15z m86 -9 c8 0 17 -5 21 -11 5 -9 -1 -10 -20
-5 -15 4 -26 2 -26 -4 0 -16 -20 -12 -26 5 -4 8 0 22 7 31 11 14 13 14 21 0 5
-9 15 -16 23 -16z m-275 10 c0 -5 -9 -10 -20 -10 -11 0 -20 5 -20 10 0 6 9 10
20 10 11 0 20 -4 20 -10z m-4886 -59 c-9 -10 -26 18 -18 30 5 9 9 8 14 -7 4
-10 6 -21 4 -23z m-38 -8 c-11 -11 -19 6 -11 24 8 17 8 17 12 0 3 -10 2 -21
-1 -24z m1114 11 c0 -8 -4 -12 -10 -9 -5 3 -10 13 -10 21 0 8 5 12 10 9 6 -3
10 -13 10 -21z m4210 11 c0 -8 -7 -15 -15 -15 -26 0 -18 20 13 29 1 1 2 -6 2
-14z m-1342 -31 c-9 -10 -21 -13 -29 -8 -9 5 -8 9 7 15 31 12 39 10 22 -7z
m-3928 -11 c0 -14 -19 -38 -25 -32 -8 8 5 39 16 39 5 0 9 -3 9 -7z m-98 -12
c27 14 36 2 12 -15 -20 -15 -45 -5 -43 18 0 7 2 6 6 -1 3 -10 10 -10 25 -2z
m1158 -11 c0 -11 -4 -20 -10 -20 -5 0 -10 9 -10 20 0 11 5 20 10 20 6 0 10 -9
10 -20z m2930 13 c0 -14 -19 -38 -25 -32 -8 8 5 39 16 39 5 0 9 -3 9 -7z
m-4020 -40 c0 -3 -7 -11 -15 -20 -12 -12 -19 -13 -30 -3 -22 18 -18 25 15 26
17 1 30 -1 30 -3z m1070 -12 c0 -5 -7 -14 -15 -21 -12 -10 -15 -10 -15 2 0 8
3 18 7 21 9 10 23 9 23 -2z m2940 -17 c0 -8 7 -14 15 -14 8 0 15 -7 15 -15 0
-8 8 -15 17 -15 14 0 15 -2 4 -12 -10 -11 -18 -7 -42 20 -16 17 -33 32 -39 32
-14 0 -12 17 3 23 16 6 27 -1 27 -19z m-2696 -23 c-7 -7 -34 21 -28 31 3 5 12
1 19 -9 7 -10 12 -20 9 -22z m2941 18 c12 -18 -3 -22 -20 -5 -14 14 -14 16 -1
16 8 0 18 -5 21 -11z m-4245 -24 c7 -8 8 -15 2 -15 -5 0 -15 7 -22 15 -7 8 -8
15 -2 15 5 0 15 -7 22 -15z m3960 8 c-1 -14 -27 -43 -39 -43 -16 0 -14 11 7
31 18 19 32 24 32 12z m240 -8 c-7 -8 -17 -15 -22 -15 -6 0 -5 7 2 15 7 8 17
15 22 15 6 0 5 -7 -2 -15z m-3182 -7 c-2 -6 -10 -14 -16 -16 -7 -2 -10 2 -6
12 7 18 28 22 22 4z m3250 -16 c2 -7 -2 -10 -12 -6 -9 3 -16 11 -16 16 0 13
23 5 28 -10z m-2932 -3 c3 -6 2 -15 -4 -21 -6 -6 -11 -2 -15 11 -5 22 7 29 19
10z m-1296 -14 c7 -8 8 -15 2 -15 -5 0 -15 7 -22 15 -7 8 -8 15 -2 15 5 0 15
-7 22 -15z m4115 -4 c-3 -6 -11 -11 -17 -11 -6 0 -6 6 2 15 14 17 26 13 15 -4z
m-3181 -22 c-9 -11 -19 -17 -21 -15 -8 7 21 45 30 39 4 -3 1 -14 -9 -24z
m3005 -5 c3 -16 1 -17 -13 -5 -19 16 -21 34 -3 29 6 -3 14 -13 16 -24z m321 0
c0 -8 -4 -12 -10 -9 -5 3 -10 13 -10 21 0 8 5 12 10 9 6 -3 10 -13 10 -21z
m-366 0 c4 -10 1 -14 -6 -12 -15 5 -23 28 -10 28 5 0 13 -7 16 -16z m-3844
-26 c0 -6 -7 -5 -15 2 -8 7 -15 17 -15 22 0 6 7 5 15 -2 8 -7 15 -17 15 -22z
m1269 18 c8 -9 8 -16 2 -20 -6 -4 -15 3 -21 14 -12 23 2 27 19 6z m2326 2 c4
-3 2 -9 -3 -12 -5 -3 -15 1 -21 8 -10 11 -9 14 3 12 9 -1 18 -5 21 -8z m429
-12 c-6 -16 -24 -23 -24 -8 0 10 22 33 27 28 2 -2 1 -11 -3 -20z m-75 -41 c19
-19 29 -35 24 -35 -6 0 -16 7 -23 15 -8 9 -22 13 -39 9 -23 -5 -24 -4 -9 9 13
10 15 16 6 25 -7 7 -8 12 -2 12 5 0 24 -16 43 -35z m-71 7 c6 -18 -15 -14 -22
4 -4 10 -1 14 6 12 6 -2 14 -10 16 -16z m-2578 -18 c0 -8 -4 -14 -10 -14 -5 0
-10 9 -10 21 0 11 5 17 10 14 6 -3 10 -13 10 -21z m100 16 c0 -5 -4 -10 -10
-10 -5 0 -10 5 -10 10 0 6 5 10 10 10 6 0 10 -4 10 -10z m2610 -14 c0 -8 -4
-18 -10 -21 -5 -3 -10 3 -10 14 0 12 5 21 10 21 6 0 10 -6 10 -14z m-2640 -4
c0 -19 -40 -54 -55 -48 -22 8 -19 25 4 19 13 -3 21 2 26 16 6 20 25 30 25 13z
m4105 -43 c4 -6 17 -14 29 -19 18 -7 18 -9 3 -9 -23 -1 -57 17 -57 29 0 13 17
13 25 -1z m-2329 -486 c117 -117 217 -213 223 -213 29 0 21 33 -19 76 -23 25
-40 51 -37 57 40 101 61 138 109 194 45 51 55 69 47 80 -6 7 -15 13 -19 13 -4
0 -28 -29 -52 -65 -25 -35 -48 -62 -51 -59 -3 4 12 33 33 65 40 58 46 71 33
67 -5 -2 -10 2 -13 7 -4 9 -50 31 -158 74 -52 21 -99 56 -90 66 5 5 16 1 25
-7 26 -23 197 -98 222 -98 31 0 71 -23 110 -64 45 -47 74 -47 88 -1 8 25 8 35
-1 38 -6 2 -8 8 -3 12 4 5 13 3 19 -3 7 -7 31 -12 54 -12 38 0 48 5 85 45 46
49 59 54 80 29 7 -8 29 -24 48 -34 29 -16 32 -19 14 -20 -12 0 -36 12 -54 27
-30 25 -31 26 -25 5 5 -13 3 -22 -3 -22 -6 0 -11 7 -11 15 0 24 -17 17 -40
-16 -13 -17 -33 -34 -46 -39 -31 -12 -30 -25 1 -46 33 -22 32 -27 -10 -40 -38
-12 -44 -8 -17 12 13 10 14 15 5 25 -10 10 -16 9 -30 -3 -10 -8 -27 -18 -38
-22 -17 -6 -10 -16 55 -81 41 -41 78 -75 82 -75 3 0 35 38 70 84 66 89 100
112 145 102 16 -3 34 -8 41 -9 17 -4 182 -169 177 -177 -5 -8 129 -142 136
-136 3 3 33 -23 68 -58 35 -35 59 -66 53 -69 -5 -4 -100 85 -212 197 -111 113
-217 212 -235 222 -59 31 -70 21 -251 -214 -92 -119 -182 -235 -200 -258 l-33
-40 63 -63 c35 -35 66 -58 70 -53 3 6 23 16 44 23 48 15 79 44 87 80 4 16 11
29 17 29 14 0 -1 -61 -21 -84 -9 -10 -40 -29 -68 -42 -29 -12 -53 -25 -53 -28
0 -3 79 -84 175 -181 97 -96 171 -175 164 -175 -9 0 -187 169 -405 385 -98 97
-80 99 -167 -12 -41 -54 -82 -107 -91 -118 -69 -86 -148 -191 -157 -206 -8
-16 -5 -21 16 -29 14 -5 29 -9 33 -9 29 5 51 -5 71 -32 22 -29 22 -31 5 -50
-16 -18 -16 -20 1 -39 23 -25 14 -37 -10 -13 -10 9 -25 18 -34 18 -9 1 -27 2
-41 3 l-25 2 30 25 c34 27 54 33 35 10 -7 -9 -10 -19 -6 -23 4 -4 16 4 26 18
17 22 17 27 4 41 -8 9 -36 20 -62 24 -26 4 -52 11 -58 16 -11 9 -68 -51 -129
-137 -16 -23 -68 -90 -115 -149 -47 -59 -89 -114 -95 -124 -5 -9 -16 -20 -22
-24 -7 -4 -13 -15 -13 -22 0 -8 -4 -15 -8 -15 -4 0 -27 -27 -51 -61 -42 -59
-42 -61 -44 -150 -1 -49 1 -89 5 -89 3 0 9 -48 12 -107 3 -60 8 -126 11 -149
5 -30 3 -43 -9 -53 -11 -10 -13 -19 -5 -38 13 -34 20 -285 8 -277 -5 3 -9 -2
-9 -10 0 -18 -16 -22 -22 -6 -2 6 -16 -3 -33 -20 l-29 -30 42 0 c79 0 42 -17
-47 -22 -88 -5 -90 -6 -121 -42 -18 -20 -45 -54 -61 -76 -18 -25 -46 -47 -78
-61 -45 -19 -52 -26 -67 -72 -12 -37 -37 -72 -93 -132 -42 -44 -107 -120 -145
-168 -61 -77 -86 -100 -86 -81 0 13 138 182 212 262 43 45 80 95 84 110 12 56
24 72 84 102 33 17 60 34 60 40 0 5 25 36 55 68 46 50 62 61 98 66 33 5 55 19
99 61 55 52 56 54 47 92 -5 21 -9 75 -9 120 0 45 -4 85 -10 88 -6 4 -4 15 6
30 13 21 14 36 5 112 -6 48 -11 109 -11 135 0 26 -5 50 -10 53 -6 4 -8 16 -4
28 7 21 6 118 0 125 -6 5 -121 -120 -185 -201 -45 -57 -60 -83 -56 -97 4 -12
2 -20 -4 -20 -6 0 -11 5 -11 10 0 6 -40 10 -99 10 -102 0 -161 7 -161 20 0 4
46 5 103 2 58 -2 113 1 129 6 14 6 64 56 110 112 45 56 104 127 131 159 l47
56 -5 155 c-8 210 -8 215 -49 234 -19 9 -48 16 -65 16 -25 0 -32 -5 -37 -27
-5 -17 -3 -28 4 -31 7 -2 12 -15 12 -28 0 -35 -18 -20 -26 21 -7 41 -13 43
-43 11 l-22 -23 25 4 c16 3 26 1 26 -6 0 -6 -7 -11 -16 -11 -10 0 -14 -6 -10
-15 9 -24 -6 -17 -46 22 -44 43 -46 50 -15 55 13 2 21 9 18 18 -8 37 -4 90 8
102 11 11 13 9 8 -10 -3 -12 -1 -20 3 -17 5 3 19 1 33 -4 18 -7 30 -6 46 5 11
8 21 11 21 5 0 -5 -4 -13 -10 -16 -5 -3 -10 -15 -10 -26 0 -15 7 -19 34 -19
18 0 48 -3 65 -6 l31 -6 0 46 c0 26 5 56 11 67 5 11 13 52 16 92 3 40 10 80
15 90 7 15 4 17 -27 17 -19 0 -35 4 -35 8 0 5 14 9 30 9 18 0 36 7 45 19 13
18 0 33 -193 226 -113 114 -203 210 -199 214 4 4 16 -1 26 -10 19 -17 20 -17
30 2 8 14 7 24 -4 38 -23 30 -18 73 15 131 17 29 39 92 50 139 11 48 29 99 40
114 11 16 20 32 20 38 0 17 81 92 106 98 13 3 41 -1 62 -9 40 -16 68 -10 91
17 12 15 10 21 -18 50 -17 18 -28 35 -25 39 8 8 136 -114 440 -420z m1434 397
c8 -5 12 -12 9 -15 -8 -8 -39 5 -39 16 0 11 11 11 30 -1z m-250 -19 c0 -6 -4
-13 -10 -16 -5 -3 -10 1 -10 9 0 9 5 16 10 16 6 0 10 -4 10 -9z m210 0 c0 -12
-20 -25 -27 -18 -7 7 6 27 18 27 5 0 9 -4 9 -9z m90 -16 c14 -16 10 -18 -14
-9 -9 3 -16 10 -16 15 0 14 16 11 30 -6z m-1197 -36 c52 -26 57 -30 27 -25
-19 4 -43 7 -52 7 -10 0 -18 7 -18 15 0 11 -16 14 -70 14 -86 0 -93 14 -9 18
51 2 70 -3 122 -29z m1062 21 c4 -6 -6 -10 -22 -10 -22 0 -25 2 -13 10 19 12
27 12 35 0z m-334 -37 c-10 -17 -10 -16 -11 3 0 23 13 41 18 25 2 -6 -1 -18
-7 -28z m49 5 c0 -6 -7 -5 -15 2 -8 7 -15 17 -15 22 0 6 7 5 15 -2 8 -7 15
-17 15 -22z m97 -25 c-3 -3 -14 0 -24 6 -10 6 -13 11 -6 11 6 0 15 10 20 23 7
21 8 21 11 -6 2 -16 1 -31 -1 -34z m133 53 c0 -2 -9 -6 -20 -9 -11 -3 -20 -1
-20 4 0 5 9 9 20 9 11 0 20 -2 20 -4z m236 -33 c-7 -7 -26 7 -26 19 0 6 6 6
15 -2 9 -7 13 -15 11 -17z m-279 -18 c-4 -8 -11 -15 -17 -15 -7 0 -7 6 0 21
13 23 26 19 17 -6z m-1221 3 c-3 -7 -9 -21 -12 -30 -8 -22 -14 -22 -39 -5 -20
15 -12 42 11 33 7 -3 16 -1 19 4 9 15 28 12 21 -2z m1084 -8 c0 -5 -6 -10 -14
-10 -8 0 -18 5 -21 10 -3 6 3 10 14 10 12 0 21 -4 21 -10z m460 -22 c0 -6 -7
-5 -15 2 -8 7 -15 17 -15 22 0 6 7 5 15 -2 8 -7 15 -17 15 -22z m-351 -4 c1
-1 0 -7 -4 -13 -10 -18 -32 -12 -38 9 -4 18 -2 20 16 14 12 -3 24 -8 26 -10z
m29 -33 c3 -8 -1 -12 -9 -9 -7 2 -15 10 -17 17 -3 8 1 12 9 9 7 -2 15 -10 17
-17z m302 -3 c0 -16 -3 -19 -11 -11 -6 6 -8 16 -5 22 11 17 16 13 16 -11z
m-474 -4 c-9 -8 -20 -12 -26 -9 -19 12 -10 25 16 25 23 0 24 -1 10 -16z m67 9
c-7 -2 -19 -2 -25 0 -7 3 -2 5 12 5 14 0 19 -2 13 -5z m118 -63 c-9 -5 -7 -11
4 -20 12 -10 19 -10 27 -2 18 18 30 14 19 -6 -7 -13 -6 -23 2 -31 9 -10 7 -12
-13 -9 -23 3 -25 0 -23 -31 1 -30 0 -32 -14 -18 -12 12 -13 21 -5 45 15 44 -9
49 -48 11 -38 -38 -38 -54 -1 -70 l29 -13 -23 -22 c-23 -21 -75 -44 -101 -44
-8 0 -14 11 -14 25 0 14 5 25 11 25 6 0 8 -8 4 -20 -6 -17 -3 -18 22 -9 15 5
37 16 48 25 19 14 19 14 -3 30 -33 23 -27 45 28 98 28 27 51 56 51 65 1 12 2
12 6 -3 3 -10 0 -22 -6 -26z m289 10 c0 -11 -4 -20 -10 -20 -5 0 -10 9 -10 20
0 11 5 20 10 20 6 0 10 -9 10 -20z m-190 0 c0 -5 -9 -10 -21 -10 -11 0 -17 5
-14 10 3 6 13 10 21 10 8 0 14 -4 14 -10z m50 -32 c0 -6 -7 -5 -15 2 -8 7 -15
17 -15 22 0 6 7 5 15 -2 8 -7 15 -17 15 -22z m986 -9 c3 -6 0 -15 -7 -20 -12
-8 -12 -11 1 -19 8 -5 18 -11 22 -12 4 -2 10 -19 13 -38 6 -33 5 -34 -9 -16
-8 10 -17 23 -19 29 -7 23 -27 -6 -27 -39 0 -21 -4 -33 -10 -29 -5 3 -10 17
-10 30 0 13 -10 31 -22 39 -12 9 -19 19 -15 22 4 4 13 1 22 -6 8 -7 22 -9 31
-6 15 6 14 9 -6 31 -20 21 -21 25 -7 25 9 0 17 5 17 10 0 13 17 13 26 -1z
m-943 -6 c-7 -2 -19 -2 -25 0 -7 3 -2 5 12 5 14 0 19 -2 13 -5z m51 -14 c-6
-11 -24 -2 -24 11 0 5 7 7 15 4 8 -4 12 -10 9 -15z m-365 -2 c6 -8 8 -17 4
-20 -7 -8 -33 11 -33 24 0 13 16 11 29 -4z m-1006 -149 c-19 -19 -35 -27 -46
-22 -35 13 -13 49 40 63 39 11 41 -5 6 -41z m1520 -181 c-14 -25 -133 -175
-148 -187 -8 -7 -15 -20 -15 -29 0 -23 212 -231 235 -231 9 0 26 11 37 25 17
22 27 25 81 25 55 0 64 3 94 32 44 43 56 27 13 -17 -31 -32 -39 -35 -91 -35
-65 0 -89 -7 -89 -25 0 -8 25 -14 73 -19 39 -4 89 -15 109 -26 22 -11 40 -15
43 -10 3 6 11 10 16 10 5 0 3 -11 -6 -24 -14 -20 -14 -25 -1 -35 8 -7 19 -10
24 -7 5 3 34 -21 64 -54 53 -58 56 -60 106 -60 28 0 62 -4 76 -10 29 -11 44 3
26 25 -7 9 -8 15 0 20 28 17 42 -33 14 -55 -13 -12 -7 -21 47 -76 35 -35 59
-67 55 -71 -4 -4 -29 15 -55 42 -26 28 -54 49 -62 47 -8 -1 -24 -18 -36 -37
-14 -21 -34 -37 -50 -41 -16 -3 -37 -10 -48 -15 -35 -16 -67 -15 -78 3 -6 9
-8 21 -4 25 5 4 12 1 17 -6 7 -12 15 -12 54 3 54 21 62 31 44 53 -11 14 -11
16 4 11 9 -4 19 -4 22 -1 9 9 -24 43 -43 44 -9 1 -5 4 9 8 23 7 22 8 -12 12
-31 4 -35 3 -25 -9 9 -11 7 -13 -8 -11 -11 2 -33 -5 -48 -15 -37 -25 -47 -12
-13 15 l28 22 -68 68 -67 68 -39 -50 c-22 -27 -42 -49 -44 -49 -12 0 0 23 36
68 22 27 40 52 40 56 0 15 -63 35 -132 41 -85 8 -95 1 -61 -39 13 -15 10 -14
-10 3 -15 14 -27 30 -27 38 0 7 -5 13 -12 13 -7 0 -30 17 -52 38 -27 26 -37
31 -32 17 5 -14 -5 -8 -31 17 l-37 37 -21 -37 c-12 -22 -29 -38 -42 -40 -14
-2 -20 -8 -16 -18 3 -8 -1 -14 -11 -14 -8 0 -20 -9 -26 -19 -6 -12 -17 -17
-29 -14 -10 3 -22 -1 -26 -8 -6 -9 2 -11 33 -6 29 3 42 1 42 -7 0 -6 -16 -44
-35 -84 -19 -40 -30 -72 -25 -72 6 0 10 -4 10 -10 0 -5 -6 -10 -12 -10 -7 0
-34 -41 -60 -91 l-48 -91 36 -43 c19 -24 46 -46 60 -49 14 -4 22 -11 19 -16
-9 -15 -37 0 -82 43 -24 23 -44 39 -47 36 -2 -2 -47 -89 -101 -192 -61 -119
-94 -194 -90 -205 5 -14 7 -14 15 -2 8 13 10 12 10 -2 0 -9 8 -22 18 -27 16
-10 16 -10 0 -11 -10 0 -30 -18 -45 -41 -24 -37 -26 -44 -16 -81 11 -40 8 -68
-6 -68 -4 0 -7 10 -7 23 1 16 -4 21 -17 19 -15 -3 -17 0 -8 17 14 25 14 28 -3
34 -18 7 -178 -295 -170 -318 4 -9 0 -15 -7 -15 -21 0 -62 -67 -62 -100 0 -16
-4 -27 -9 -24 -5 3 -26 -32 -47 -78 -35 -75 -37 -85 -23 -100 9 -11 10 -18 4
-18 -6 0 -14 5 -18 11 -7 13 -64 -85 -64 -111 0 -10 -6 -23 -14 -29 -15 -12
-69 -110 -86 -157 -9 -23 -2 -33 82 -120 50 -51 87 -94 82 -94 -5 0 -54 45
-109 100 -97 98 -100 100 -116 81 -20 -24 -32 -16 -18 11 8 15 6 25 -7 41 -32
38 -228 237 -235 237 -3 0 -41 -38 -84 -85 l-77 -86 68 -74 c38 -40 96 -103
129 -139 l59 -66 28 27 c52 49 29 4 -48 -94 -91 -117 -92 -118 -100 -110 -3 3
19 38 50 78 31 40 56 76 56 79 0 4 -21 29 -48 56 -26 27 -66 74 -89 104 -23
30 -59 72 -80 92 l-39 38 -119 -120 c-100 -100 -145 -136 -145 -117 0 2 56 59
125 127 l125 124 -30 31 c-42 43 -38 56 5 15 l35 -34 61 59 c33 33 70 73 81
88 l21 29 -32 31 -31 32 -123 -121 c-67 -66 -141 -136 -165 -154 -24 -18 -66
-63 -93 -99 l-50 -66 58 -55 c32 -30 110 -103 173 -162 63 -58 112 -109 108
-113 -4 -4 -85 65 -180 154 l-173 161 -23 -28 c-12 -15 -47 -64 -77 -109 -30
-45 -66 -90 -80 -99 -31 -21 -31 -26 4 -99 31 -67 42 -76 151 -124 105 -47
244 -117 290 -146 22 -14 42 -25 44 -25 2 0 27 30 54 68 63 83 123 142 129
125 6 -17 40 -17 46 0 2 6 8 9 12 5 5 -5 1 -16 -8 -26 -22 -24 -21 -29 3 -35
11 -3 20 -10 20 -16 0 -18 -15 -13 -45 14 -21 20 -30 23 -41 14 -8 -6 -14 -8
-14 -4 0 4 -7 2 -15 -5 -8 -7 -14 -20 -13 -29 2 -8 -4 -16 -12 -16 -8 0 -15
-7 -15 -15 0 -9 -10 -30 -23 -47 -12 -17 -22 -37 -22 -45 0 -8 -5 -19 -11 -25
-29 -29 11 -442 50 -528 5 -11 17 -45 27 -75 17 -55 45 -105 70 -126 11 -9 10
-14 -5 -28 -19 -17 -20 -16 -44 21 -13 21 -20 41 -15 44 5 3 6 13 2 22 -5 13
-10 14 -25 6 -10 -5 -20 -6 -20 -2 -2 11 -4 22 -13 68 -52 264 -56 298 -56
452 l0 156 -25 -23 c-29 -27 -47 -19 -21 9 18 19 16 21 -40 57 -88 57 -281
144 -318 144 -31 0 -32 -2 -28 -32 3 -17 17 -42 31 -54 14 -13 21 -24 15 -24
-6 0 -23 11 -38 25 -20 18 -26 34 -26 65 0 25 5 40 13 40 6 0 -3 9 -21 20 -23
14 -42 40 -64 88 -17 37 -33 69 -35 71 -1 2 -32 -8 -67 -23 -66 -28 -87 -47
-200 -176 l-66 -75 191 -187 192 -188 49 27 c26 14 52 31 57 37 6 7 -37 53
-122 131 -214 196 -242 223 -236 229 6 6 14 -1 242 -212 l139 -127 69 4 c41 2
69 -1 69 -7 0 -5 -28 -11 -63 -14 -50 -3 -71 -10 -110 -36 -63 -44 -117 -67
-117 -50 0 7 -84 95 -187 195 l-188 181 -177 -176 c-98 -97 -180 -173 -184
-169 -4 3 72 86 169 184 l175 177 -112 107 c-61 59 -108 110 -103 115 4 4 54
-38 111 -94 57 -56 108 -102 114 -102 6 0 37 30 69 67 111 127 145 157 211
183 34 14 62 28 62 33 0 4 -16 25 -36 45 -19 20 -31 38 -25 40 6 2 29 -16 51
-39 l40 -43 26 25 c14 13 54 64 88 112 33 49 65 95 71 102 11 16 3 23 -80 79
-59 40 -132 113 -122 123 4 4 27 -12 51 -36 l43 -42 71 123 c55 96 93 146 172
231 88 93 106 107 134 107 18 0 41 -7 52 -15 17 -14 15 -15 -31 -10 l-50 6
-91 -98 c-83 -90 -130 -158 -210 -300 -15 -29 -26 -54 -24 -56 3 -2 29 -20 59
-41 l53 -37 16 22 c32 46 79 94 142 144 79 63 243 230 279 283 42 63 159 161
233 196 38 18 71 29 73 25 6 -9 -31 -33 -79 -50 -40 -15 -190 -138 -200 -165
-5 -12 26 -50 106 -133 172 -177 251 -252 258 -244 4 5 15 28 25 53 10 25 31
63 47 84 15 22 28 47 28 56 0 9 5 21 11 27 16 16 -9 47 -125 162 -94 94 -95
95 -116 76 -26 -23 -26 -11 1 26 11 16 25 27 30 23 5 -3 7 -9 5 -13 -5 -8 222
-237 228 -230 2 2 9 15 16 28 11 22 6 30 -106 142 -65 66 -113 119 -106 119 6
0 60 -50 119 -111 124 -128 109 -129 174 20 23 53 50 107 61 120 11 14 16 32
12 43 -4 12 -1 18 8 16 19 -4 169 293 156 309 -7 9 -6 15 6 19 26 10 48 58 33
74 -10 10 -9 12 5 7 13 -5 24 8 47 55 17 34 31 72 31 85 0 13 4 22 9 19 11 -7
32 40 25 59 -4 9 0 15 8 15 13 0 147 238 156 277 6 22 -16 15 -29 -9 -13 -25
-92 -131 -121 -162 -25 -27 -36 -11 -12 18 89 112 115 149 142 203 18 34 33
75 34 92 1 18 8 31 16 31 17 0 8 -48 -19 -102 -13 -24 -15 -39 -8 -43 14 -9
12 -11 53 75 35 73 36 75 16 84 -28 13 -25 28 4 20 35 -8 40 11 11 40 -29 29
-31 46 -9 87 12 24 20 30 36 26 15 -4 27 2 40 19 11 13 27 24 37 24 11 0 25
15 36 41 l19 40 -47 47 c-25 25 -48 44 -51 42 -25 -26 -176 -237 -176 -246 0
-7 -18 -27 -40 -44 -29 -23 -40 -27 -40 -16 0 8 9 20 19 25 10 6 44 48 75 93
31 46 77 111 101 145 l46 61 -41 38 c-42 39 -50 54 -25 50 19 -3 76 -57 70
-66 -3 -4 3 -14 13 -21 15 -12 16 -12 5 2 -11 13 -6 24 30 65 23 28 64 80 92
116 27 36 53 64 58 61 4 -2 4 -10 0 -16z m667 -156 c0 -5 -7 -12 -16 -15 -24
-9 -28 -7 -14 9 14 17 30 20 30 6z m46 -29 c-9 -8 -26 10 -26 26 1 15 2 15 15
-2 8 -11 13 -21 11 -24z m-1806 18 c0 -5 -4 -10 -10 -10 -5 0 -10 -6 -10 -14
0 -16 -30 -16 -47 1 -19 17 -16 21 15 26 49 7 52 7 52 -3z m2330 0 c0 -5 -4
-10 -10 -10 -5 0 -10 5 -10 10 0 6 5 10 10 10 6 0 10 -4 10 -10z m-438 -22
c-6 -6 -15 -8 -19 -4 -4 4 -1 11 7 16 8 5 17 7 19 4 3 -2 -1 -10 -7 -16z
m-1727 -26 c-6 -7 -35 18 -35 31 0 5 9 2 20 -8 11 -10 18 -20 15 -23z m1802
23 c16 4 25 3 21 0 -4 -4 -1 -14 7 -22 24 -23 18 -33 -17 -29 -18 2 -40 14
-50 26 -22 27 -24 47 -3 30 9 -7 25 -10 42 -5z m-117 -4 c0 -11 -31 -24 -39
-16 -3 3 1 10 9 15 19 12 30 12 30 1z m-3353 -33 c-3 -7 -5 -2 -5 12 0 14 2
19 5 13 2 -7 2 -19 0 -25z m1708 1 c11 -17 -1 -21 -15 -4 -8 9 -8 15 -2 15 6
0 14 -5 17 -11z m1775 -103 c0 -2 -9 -23 -20 -48 -13 -29 -21 -79 -26 -152 -7
-107 -7 -108 13 -95 12 7 19 18 16 25 -3 8 4 10 22 7 22 -5 24 -8 13 -21 -10
-12 -10 -14 0 -8 14 9 16 -3 2 -24 -8 -13 -11 -13 -22 2 -10 14 -16 15 -29 5
-11 -8 -18 -37 -22 -96 -4 -46 -12 -89 -18 -97 -6 -7 -8 -18 -4 -24 4 -7 -5
-25 -21 -41 -15 -16 -24 -29 -20 -29 4 0 -5 -16 -20 -35 -20 -27 -34 -35 -59
-35 -19 0 -39 -8 -50 -20 -10 -11 -22 -17 -26 -14 -5 3 -9 1 -9 -5 0 -6 -13
-31 -29 -57 -17 -25 -33 -59 -36 -74 -3 -15 -15 -36 -25 -45 -18 -16 -19 -15
-25 19 -7 34 -3 40 68 118 42 46 108 114 148 153 39 38 78 80 86 92 21 31 30
187 13 208 -7 8 -8 15 -3 15 5 0 14 46 19 103 10 96 35 177 55 177 5 0 9 -2 9
-4z m-136 -50 c-7 -29 -19 -34 -28 -11 -3 9 -18 15 -35 15 -23 0 -34 -7 -45
-29 -12 -22 -24 -30 -51 -33 -19 -2 -35 0 -35 4 0 4 -6 8 -14 8 -8 0 -17 4
-21 10 -3 5 14 7 44 3 47 -5 51 -4 60 19 12 32 32 40 82 32 28 -5 39 -3 39 6
0 8 2 11 5 8 4 -3 3 -17 -1 -32z m-299 -36 c-3 -5 -12 -10 -20 -10 -8 0 -17 5
-20 10 -4 6 5 10 20 10 15 0 24 -4 20 -10z m50 0 c3 -5 -1 -10 -9 -10 -8 0
-18 5 -21 10 -3 6 1 10 9 10 8 0 18 -4 21 -10z m162 -56 c-9 -10 -38 16 -31
28 4 6 13 4 22 -6 9 -8 13 -19 9 -22z m41 -33 c3 -8 -1 -12 -9 -9 -7 2 -15 10
-17 17 -3 8 1 12 9 9 7 -2 15 -10 17 -17z m40 -40 c3 -8 -1 -12 -9 -9 -7 2
-15 10 -17 17 -3 8 1 12 9 9 7 -2 15 -10 17 -17z m202 -8 c0 -5 -5 -15 -10
-23 -8 -12 -10 -11 -10 8 0 12 5 22 10 22 6 0 10 -3 10 -7z m-204 -50 c-11
-11 -19 6 -11 24 8 17 8 17 12 0 3 -10 2 -21 -1 -24z m54 15 c0 -13 -23 -5
-28 10 -2 7 2 10 12 6 9 -3 16 -11 16 -16z m-604 -30 l29 -33 -32 29 c-18 17
-33 31 -33 33 0 8 8 1 36 -29z m-1332 3 c26 -29 2 -34 -24 -6 -18 19 -20 25
-8 25 8 0 23 -9 32 -19z m1925 -14 c8 -10 7 -17 -1 -25 -18 -18 -23 -15 -24
13 -2 28 8 32 25 12z m-1842 -74 c26 -31 70 -77 97 -103 29 -28 44 -50 38 -54
-9 -5 -192 181 -200 205 -10 26 22 3 65 -48z m1073 42 c0 -10 -69 -42 -79 -36
-24 15 0 39 40 39 21 1 39 -1 39 -3z m147 -42 l22 -8 -25 -12 c-19 -9 -24 -8
-24 3 0 8 -4 14 -10 14 -5 0 -10 10 -10 22 0 20 1 20 13 5 6 -9 22 -20 34 -24z
m723 15 c0 -15 -18 -17 -30 -3 -9 11 -8 14 9 12 12 -1 21 -5 21 -9z m-2218
-131 c4 -33 0 -48 -19 -71 -13 -16 -35 -50 -48 -76 -23 -46 -55 -82 -55 -62 0
14 49 101 80 142 21 28 26 43 22 73 -2 21 -10 37 -17 37 -7 0 -16 7 -19 16 -4
9 -13 14 -21 10 -9 -3 -15 0 -15 8 0 26 13 24 50 -5 31 -25 39 -39 42 -72z
m1678 -208 c0 -3 -13 -6 -30 -7 -26 -1 -28 1 -18 18 9 14 15 16 30 7 10 -7 18
-15 18 -18z m-3010 1 c0 -5 -4 -10 -10 -10 -5 0 -10 -7 -10 -15 0 -8 -8 -15
-19 -15 -10 0 -30 -10 -45 -21 -30 -23 -93 -42 -101 -29 -5 9 18 20 42 20 8 0
38 18 65 40 49 39 78 50 78 30z m2885 -70 c4 -6 -5 -10 -19 -10 -14 0 -26 5
-26 10 0 6 9 10 19 10 11 0 23 -4 26 -10z m-1192 -423 c-3 -5 -86 71 -184 169
-98 98 -175 182 -172 187 3 5 86 -71 184 -169 98 -98 175 -182 172 -187z m627
329 c0 -6 -5 -18 -10 -26 -8 -13 -11 -12 -23 4 -8 11 -19 16 -25 12 -7 -4 -12
-3 -12 3 0 11 11 15 45 17 14 1 25 -3 25 -10z m265 -176 c71 -71 126 -133 122
-137 -8 -7 -186 164 -239 230 -59 73 -11 35 117 -93z m-2855 32 c0 -5 -9 -17
-20 -27 -19 -17 -19 -19 -4 -37 14 -15 20 -16 32 -5 13 10 15 9 10 -10 -9 -33
10 -39 38 -12 l24 22 25 -23 c14 -13 25 -20 25 -16 0 4 5 4 10 1 8 -5 7 -11 0
-20 -9 -11 -7 -18 9 -32 19 -16 29 -43 15 -43 -10 0 -43 45 -44 59 0 16 -29
51 -41 51 -5 0 -20 -12 -34 -27 -16 -18 -28 -24 -33 -17 -36 52 -68 84 -84 84
-17 0 -18 3 -8 15 7 8 18 15 25 15 7 0 18 7 25 15 14 16 30 20 30 7z m-3 -155
c13 5 13 3 2 -16 -8 -11 -17 -21 -20 -21 -11 0 -20 31 -12 43 5 8 8 8 10 0 3
-7 11 -9 20 -6z m2157 -87 c5 -5 6 -13 1 -17 -4 -5 -10 -2 -12 5 -3 6 -18 12
-34 12 -16 0 -29 5 -29 11 0 13 59 4 74 -11z m-2080 -49 c9 -14 -76 -74 -133
-93 -30 -10 -65 -28 -77 -39 -13 -12 -24 -16 -28 -11 -10 16 49 59 90 66 40 8
109 50 118 72 6 16 22 19 30 5z m2673 -181 c2 -2 8 2 13 10 5 8 12 11 16 7 9
-9 -5 -23 -31 -31 -16 -4 -23 1 -34 24 -7 17 -10 38 -6 48 5 13 9 10 22 -18 9
-19 18 -37 20 -40z m13 44 c0 -8 -4 -12 -10 -9 -5 3 -10 13 -10 21 0 8 5 12
10 9 6 -3 10 -13 10 -21z m-2015 3 c10 -8 15 -19 11 -25 -10 -16 -33 -15 -39
1 -3 6 -3 -4 0 -23 4 -32 3 -35 -21 -36 -24 -2 -25 0 -12 18 8 11 12 27 9 34
-5 14 13 44 26 44 4 0 15 -6 26 -13z m-1201 -63 c10 -25 7 -34 -9 -34 -9 0
-18 -6 -21 -14 -9 -22 -45 -16 -38 6 4 14 0 18 -20 18 -14 0 -28 5 -32 11 -4
7 6 10 30 8 19 -2 41 2 48 9 17 17 35 15 42 -4z m2942 -231 c-8 -9 -236 224
-236 241 0 6 55 -44 122 -111 67 -67 119 -126 114 -130z m-6070 175 l29 -33
-32 29 c-31 28 -38 36 -30 36 2 0 16 -15 33 -32z m1705 -5 c6 -21 16 -43 21
-50 5 -7 7 -17 4 -22 -7 -10 93 -110 125 -125 10 -5 21 -17 24 -27 8 -24 128
-141 155 -151 28 -10 26 -31 -2 -23 -27 8 -168 144 -168 162 0 7 -11 18 -24
25 -14 7 -49 37 -79 65 -39 38 -54 58 -50 72 3 10 0 22 -6 25 -6 4 -11 15 -11
24 0 36 -14 43 -48 27 -64 -32 -90 -116 -52 -165 21 -27 26 -60 9 -60 -6 0 -9
6 -6 14 3 8 -5 24 -19 37 -18 17 -24 33 -24 64 0 22 5 46 12 53 9 9 9 12 0 12
-7 0 -12 5 -12 10 0 6 8 10 19 10 10 0 24 7 31 15 7 8 18 15 25 15 7 0 18 7
25 15 21 25 38 17 51 -22z m1515 -28 c4 -8 15 -15 25 -15 11 0 19 -7 19 -16 0
-8 -5 -12 -11 -8 -8 4 -9 0 -4 -15 5 -16 2 -21 -12 -20 -46 1 -63 28 -26 40 8
3 8 9 -3 23 -11 16 -17 17 -26 8 -17 -17 -33 -15 -18 3 7 8 21 15 32 15 10 0
21 -7 24 -15z m-1685 -48 c-13 -13 -15 1 -4 30 7 17 8 17 11 -1 2 -10 -1 -23
-7 -29z m1779 13 c0 -11 -6 -20 -14 -20 -7 0 -16 9 -19 20 -4 15 0 20 14 20
12 0 19 -7 19 -20z m-170 -5 c-7 -9 -15 -13 -17 -11 -7 7 7 26 19 26 6 0 6 -6
-2 -15z m36 -1 c-3 -9 -6 -18 -6 -20 0 -3 -4 -3 -10 1 -11 7 -2 35 12 35 6 0
7 -7 4 -16z m134 -34 c0 -5 -9 -10 -20 -10 -11 0 -20 5 -20 10 0 6 9 10 20 10
11 0 20 -4 20 -10z m48 -9 c3 -8 -1 -12 -9 -9 -7 2 -15 10 -17 17 -3 8 1 12 9
9 7 -2 15 -10 17 -17z m443 -131 c16 0 29 -4 29 -10 0 -5 -17 -8 -37 -6 -28 3
-44 -2 -60 -17 -27 -24 -30 -16 -7 19 10 15 23 23 31 20 8 -4 28 -6 44 -6z
m1434 -197 c-6 -28 -55 -83 -55 -63 0 17 44 90 54 90 4 0 5 -12 1 -27z m595
-51 c0 -5 -11 -19 -25 -32 -29 -27 -32 -21 -9 15 16 24 34 33 34 17z m-3853
-24 c15 -7 30 -13 32 -15 6 -4 -49 -73 -58 -73 -5 0 -11 9 -14 21 -3 11 -15
23 -26 26 -26 7 -26 10 2 34 26 22 28 22 64 7z m3398 -45 c-4 -10 -8 -24 -8
-30 0 -7 -3 -13 -7 -13 -4 0 -18 -21 -33 -48 -14 -26 -37 -58 -51 -71 -18 -17
-24 -31 -20 -44 5 -16 3 -19 -10 -14 -11 5 -30 -11 -63 -51 -50 -61 -93 -99
-93 -84 0 5 29 42 64 81 44 49 63 77 59 88 -5 12 -2 15 10 10 19 -7 83 73 117
146 12 26 27 47 32 47 6 0 7 -8 3 -17z m-3695 -127 c0 -15 -18 -31 -26 -23 -7
7 7 37 17 37 5 0 9 -6 9 -14z m-995 -66 c10 -11 16 -20 13 -20 -3 0 -13 9 -23
20 -10 11 -16 20 -13 20 3 0 13 -9 23 -20z m1324 -56 c13 -2 29 -8 35 -15 8
-8 3 -9 -20 -5 -28 6 -37 1 -92 -54 -34 -33 -68 -60 -76 -60 -8 0 12 25 45 57
32 31 59 65 59 75 0 12 4 17 12 12 7 -4 23 -9 37 -10z m-1184 -84 c21 -22 37
-40 34 -40 -3 0 -23 18 -44 40 -21 22 -37 40 -34 40 3 0 23 -18 44 -40z m3965
20 c0 -5 -7 -10 -15 -10 -8 0 -15 5 -15 10 0 6 7 10 15 10 8 0 15 -4 15 -10z
m-63 -36 c13 -4 21 -10 18 -13 -6 -10 -65 -1 -65 10 0 10 16 11 47 3z m343
-43 c0 -13 -29 -35 -37 -28 -7 8 15 37 28 37 5 0 9 -4 9 -9z m-3210 -10 c0 -6
-5 -13 -11 -16 -6 -4 -8 -14 -5 -22 5 -11 2 -13 -9 -9 -9 3 -33 -3 -54 -14
-39 -19 -56 -43 -52 -69 2 -9 -3 -12 -13 -8 -9 4 -25 -6 -41 -25 -14 -17 -28
-28 -32 -25 -3 3 18 32 46 64 33 37 50 64 47 76 -4 18 9 24 19 7 7 -12 54 10
74 34 15 18 31 21 31 7z m-180 -55 c0 -9 -30 -14 -35 -6 -4 6 3 10 14 10 12 0
21 -2 21 -4z m97 -103 c-9 -9 -19 -14 -22 -11 -3 3 2 13 11 22 9 9 19 14 22
11 3 -3 -2 -13 -11 -22z m233 -3 c24 -24 25 -30 5 -30 -8 0 -19 9 -25 19 -19
37 -10 41 20 11z m0 -50 c11 -11 16 -20 10 -20 -5 0 -10 -16 -10 -35 0 -36 -5
-41 -28 -26 -17 10 -11 47 6 44 7 -2 12 2 12 7 0 6 -4 10 -10 10 -5 0 -10 9
-10 20 0 11 2 20 5 20 3 0 14 -9 25 -20z m56 -7 c15 -20 18 -37 7 -30 -5 3
-13 -1 -20 -8 -10 -11 -10 -14 0 -18 7 -2 9 -7 6 -11 -3 -3 -13 -4 -22 0 -18
7 -19 44 -1 44 7 0 10 8 7 20 -7 25 5 26 23 3z m1774 -8 c-13 -14 -26 -23 -28
-20 -7 7 29 45 41 45 6 0 0 -11 -13 -25z m-2191 -6 c12 -20 11 -21 -11 -16
-12 4 -27 7 -32 7 -5 0 -3 7 4 15 17 20 23 19 39 -6z m-64 -29 c-3 -5 -14 -10
-23 -10 -15 0 -15 2 -2 10 20 13 33 13 25 0z m104 -13 c6 -8 8 -17 4 -20 -7
-8 -33 11 -33 24 0 13 16 11 29 -4z m-159 -22 c-7 -8 -17 -12 -22 -9 -5 3 -1
12 9 19 22 17 30 11 13 -10z m591 -45 c5 0 9 -7 9 -16 0 -10 -5 -12 -12 -7 -7
4 -24 6 -37 4 -15 -2 -21 1 -17 8 4 6 14 11 23 11 10 0 13 6 9 16 -3 9 -3 21
1 27 5 7 9 1 11 -15 2 -16 8 -28 13 -28z m-394 14 c-9 -9 -28 6 -21 18 4 6 10
6 17 -1 6 -6 8 -13 4 -17z m290 -7 c-6 -18 -37 -21 -37 -3 0 10 -6 13 -15 10
-8 -4 -15 -12 -15 -19 0 -8 -4 -17 -10 -20 -5 -3 -10 2 -10 12 0 26 49 54 73
42 10 -6 16 -16 14 -22z m-530 -2 c-4 -8 -11 -15 -17 -15 -7 0 -7 6 0 21 13
23 26 19 17 -6z m-30 -50 c-4 -8 -11 -15 -17 -15 -7 0 -7 6 0 21 13 23 26 19
17 -6z m628 5 c3 -6 -4 -10 -17 -10 -18 0 -20 2 -8 10 19 12 18 12 25 0z m114
-6 c-11 -14 -34 -13 -49 2 -7 7 2 10 25 10 25 0 32 -3 24 -12z m51 6 c0 -5 -4
-10 -10 -10 -5 0 -10 5 -10 10 0 6 5 10 10 10 6 0 10 -4 10 -10z m-415 -10 c4
-6 1 -18 -6 -26 -10 -12 -9 -18 4 -32 11 -10 17 -12 17 -4 0 17 35 15 49 -2
11 -12 5 -14 -33 -12 -34 3 -46 0 -46 -10 0 -8 -4 -14 -8 -14 -11 0 -13 78 -1
85 5 4 7 11 4 16 -4 5 -2 9 4 9 5 0 13 -5 16 -10z m205 0 c0 -5 -4 -10 -9 -10
-6 0 -13 5 -16 10 -3 6 1 10 9 10 9 0 16 -4 16 -10z m-117 -20 c-3 -11 -9 -23
-14 -26 -10 -6 -12 29 -2 39 13 13 21 7 16 -13z m218 7 c-1 -12 -15 -9 -19 4
-3 6 1 10 8 8 6 -3 11 -8 11 -12z m-56 -8 c12 -19 -5 -23 -22 -6 -16 16 -16
17 -1 17 9 0 20 -5 23 -11z m2055 -44 c68 -69 61 -82 -8 -15 -51 49 -53 50
-80 36 -15 -8 -36 -23 -46 -35 -23 -25 -34 -26 -56 -6 -16 14 -50 12 -50 -4 0
-17 83 -92 107 -97 31 -6 69 -31 61 -39 -3 -3 -18 1 -34 9 -16 8 -41 19 -55
24 -15 6 -43 31 -64 56 -37 45 -37 47 -20 66 22 24 33 25 56 4 16 -14 21 -13
69 20 29 20 55 36 59 36 4 0 31 -25 61 -55z m-2720 36 c0 -5 -7 -11 -15 -15
-15 -5 -20 5 -8 17 9 10 23 9 23 -2z m530 5 c0 -3 -4 -8 -10 -11 -5 -3 -10 -1
-10 4 0 6 5 11 10 11 6 0 10 -2 10 -4z m-581 -52 c-17 -21 -31 -17 -19 6 6 11
15 18 21 14 6 -4 6 -11 -2 -20z m1074 11 c-4 -15 -36 -12 -41 3 -3 9 3 13 19
10 13 -1 23 -7 22 -13z m-650 -16 c-14 -14 5 -39 24 -32 7 3 13 -2 13 -11 0
-9 -7 -16 -16 -16 -9 0 -14 -6 -12 -12 2 -7 -6 -24 -19 -37 l-23 -24 0 30 c0
20 -6 33 -17 38 -16 6 -16 8 6 26 13 10 20 19 16 19 -4 0 -2 7 5 15 7 8 17 15
23 15 8 0 8 -3 0 -11z m683 -36 c-4 -4 -11 -1 -16 7 -16 25 -11 35 7 17 9 -9
13 -20 9 -24z m629 17 c10 -11 23 -19 29 -17 6 2 23 1 37 -4 16 -4 31 -3 38 4
6 6 14 7 18 3 16 -16 -27 -35 -59 -25 -30 8 -30 8 -13 -11 20 -22 13 -39 -8
-22 -8 7 -18 8 -22 4 -5 -4 -5 -2 -2 4 3 6 -7 24 -23 39 -17 16 -30 32 -30 37
0 14 16 9 35 -12z m-1771 -24 c-6 -16 -24 -23 -24 -8 0 10 22 33 27 28 2 -2 1
-11 -3 -20z m561 -6 c3 -5 -1 -10 -10 -10 -9 0 -13 5 -10 10 3 6 8 10 10 10 2
0 7 -4 10 -10z m597 -42 c-9 -9 -12 -7 -12 12 0 19 3 21 12 12 9 -9 9 -15 0
-24z m-1182 13 c0 -5 -7 -14 -15 -21 -16 -14 -18 -10 -9 14 6 17 24 22 24 7z
m1220 -31 c0 -5 -4 -10 -10 -10 -5 0 -10 5 -10 10 0 6 5 10 10 10 6 0 10 -4
10 -10z m-1261 -36 c-15 -18 -22 -13 -13 10 3 9 10 13 16 10 5 -3 4 -12 -3
-20z m551 2 c0 -8 -4 -18 -10 -21 -5 -3 -10 3 -10 14 0 12 5 21 10 21 6 0 10
-6 10 -14z m1530 -121 c51 -53 90 -98 87 -102 -4 -3 -14 0 -22 7 -14 12 -28 1
-106 -76 -49 -49 -89 -83 -89 -76 0 7 37 51 82 98 l82 85 -60 62 c-71 73 -90
97 -77 97 5 0 51 -43 103 -95z m-2106 70 c-6 -16 -24 -21 -24 -7 0 11 11 22
21 22 5 0 6 -7 3 -15z m551 -4 c-3 -6 -11 -11 -17 -11 -6 0 -6 6 2 15 14 17
26 13 15 -4z m1275 -4 c0 -1 -26 -27 -57 -57 l-58 -55 55 58 c50 53 60 62 60
54z m-1870 -42 c-7 -9 -15 -13 -18 -10 -3 2 1 11 8 20 7 9 15 13 18 10 3 -2
-1 -11 -8 -20z m570 8 c0 -14 -19 -38 -25 -32 -8 8 5 39 16 39 5 0 9 -3 9 -7z
m-600 -36 c0 -2 -10 -12 -21 -23 -22 -19 -22 -19 -10 4 10 18 31 31 31 19z
m550 -12 c-7 -9 -15 -13 -17 -11 -7 7 7 26 19 26 6 0 6 -6 -2 -15z m50 -50
c13 -14 21 -25 18 -25 -2 0 -15 11 -28 25 -13 14 -21 25 -18 25 2 0 15 -11 28
-25z m1180 11 c0 -2 -8 -10 -17 -17 -16 -13 -17 -12 -4 4 13 16 21 21 21 13z
m220 -91 c0 -8 -4 -17 -10 -20 -6 -4 -10 5 -10 20 0 15 4 24 10 20 6 -3 10
-12 10 -20z m579 0 c-31 -31 -179 -44 -179 -15 0 5 9 6 22 1 21 -7 132 10 145
23 4 3 11 6 17 6 6 0 4 -7 -5 -15z m-594 -56 c-4 -5 -13 -9 -22 -9 -13 0 -13
3 -3 15 13 15 35 11 25 -6z m-61 -5 c22 -8 20 -21 -4 -27 -15 -4 -20 0 -20 14
0 21 1 22 24 13z m-983 -174 c18 0 48 -19 90 -56 91 -80 92 -81 82 -87 -5 -3
-42 23 -81 59 -43 37 -82 64 -95 64 -22 0 -197 164 -197 185 0 5 39 -30 88
-78 65 -65 94 -87 113 -87z m869 150 c12 -8 11 -10 -7 -10 -13 0 -23 5 -23 10
0 13 11 13 30 0z m60 0 c-19 -13 -30 -13 -30 0 0 6 10 10 23 10 18 0 19 -2 7
-10z m-80 -46 c0 -14 -4 -23 -10 -19 -5 3 -10 15 -10 26 0 10 5 19 10 19 6 0
10 -12 10 -26z m-784 -91 c-10 -10 -19 5 -10 18 6 11 8 11 12 0 2 -7 1 -15 -2
-18z m-886 -43 c0 -5 -7 -10 -16 -10 -8 0 -12 5 -9 10 3 6 10 10 16 10 5 0 9
-4 9 -10z m1370 -194 c0 -8 -4 -18 -10 -21 -5 -3 -10 3 -10 14 0 12 5 21 10
21 6 0 10 -6 10 -14z m-39 -49 c-8 -8 -11 -5 -11 9 0 27 14 41 18 19 2 -9 -1
-22 -7 -28z m209 -30 c0 -18 -98 -112 -107 -104 -4 4 14 29 40 55 26 26 47 53
47 60 0 7 5 10 10 7 6 -3 10 -12 10 -18z m-1600 -287 c0 -5 -4 -10 -9 -10 -6
0 -13 5 -16 10 -3 6 1 10 9 10 9 0 16 -4 16 -10z"/>
<path d="M6522 7438 c6 -16 36 -34 44 -25 9 9 -15 37 -33 37 -8 0 -13 -5 -11
-12z"/>
<path d="M5895 6390 c-11 -17 5 -32 21 -19 7 6 11 15 8 20 -7 12 -21 11 -29
-1z"/>
<path d="M4701 5186 c-23 -27 -64 -35 -107 -20 -56 19 -60 18 -104 -26 l-41
-41 21 -28 c27 -39 25 -49 -4 -22 l-25 23 -20 -32 c-10 -18 -25 -62 -31 -99
-7 -36 -26 -92 -41 -123 l-29 -57 22 -16 c12 -8 29 -15 37 -15 11 0 12 -3 4
-11 -8 -8 -17 -8 -33 1 -32 17 -43 0 -24 -38 14 -29 14 -34 0 -54 -15 -21 -14
-24 10 -49 l26 -27 39 26 c26 17 43 39 53 66 29 79 65 212 80 294 26 136 44
159 154 191 39 12 72 25 72 30 0 9 -33 41 -42 41 -3 0 -11 -6 -17 -14z"/>
<path d="M4691 5111 c-97 -34 -115 -58 -140 -186 -10 -55 -24 -113 -30 -128
-14 -36 -14 -37 2 -37 7 0 29 -8 49 -18 l36 -19 5 26 c3 14 0 29 -6 33 -8 5
-4 10 11 14 12 4 22 10 22 15 0 5 4 9 10 9 5 0 7 -7 4 -15 -7 -16 21 -20 64
-8 21 5 23 11 20 54 -1 27 0 49 3 49 13 0 17 55 6 62 -9 6 -8 8 2 8 8 0 11 7
8 20 -3 11 -1 20 3 20 8 0 30 85 30 115 0 19 -10 18 -99 -14z"/>
<path d="M4806 5099 c-14 -38 -47 -232 -44 -256 3 -26 6 -24 58 45 49 64 70
84 70 66 0 -4 -22 -35 -50 -70 -27 -35 -50 -66 -50 -69 0 -3 10 -5 21 -5 12 0
39 -5 60 -11 29 -9 42 -9 52 0 16 12 47 5 47 -11 0 -6 -7 -7 -16 -4 -9 4 -23
1 -30 -5 -10 -8 -26 -7 -63 4 -51 15 -54 14 -99 -19 -2 -1 -5 -19 -7 -41 -2
-21 -8 -65 -13 -98 -11 -68 -9 -75 20 -75 11 0 22 -8 25 -18 4 -18 54 -42 86
-42 9 0 19 -5 22 -11 5 -7 -5 -9 -29 -5 -44 7 -96 32 -96 47 0 5 -11 14 -24
18 -19 8 -24 19 -30 64 -3 31 -9 64 -13 74 -6 16 -5 16 10 4 14 -11 18 -11 23
2 3 8 4 27 2 42 -3 23 -18 8 -130 -132 l-127 -158 82 -83 82 -83 12 53 c22 92
0 146 -54 134 l-28 -6 29 24 c31 26 40 23 64 -19 6 -11 12 -14 12 -7 0 6 5 12
11 12 7 0 8 -7 4 -17 -16 -40 -15 -96 3 -109 16 -12 15 -13 -5 -14 -20 0 -23
-5 -23 -39 0 -36 9 -48 111 -155 61 -64 105 -116 97 -116 -7 0 -56 45 -107
101 -111 119 -115 119 -131 -18 -5 -51 -15 -105 -21 -120 -9 -24 -5 -244 6
-393 2 -14 3 -41 4 -60 l1 -35 33 37 c39 44 201 250 317 403 47 61 99 129 117
151 120 148 323 413 323 422 0 5 -30 38 -67 74 -38 36 -89 87 -114 114 -180
188 -429 426 -433 413z m432 -482 l33 -72 -21 -17 c-27 -22 -86 -24 -93 -3 -5
11 0 13 25 8 17 -3 29 -2 27 3 -22 46 -44 84 -51 84 -5 0 -13 -12 -19 -26 -15
-41 -22 -21 -8 25 14 47 43 83 62 75 6 -3 27 -37 45 -77z m-289 -436 c10 -7
11 -13 2 -30 -14 -25 -21 -26 -46 -7 -16 12 -17 16 -6 30 15 18 29 20 50 7z
m-126 -295 c-3 -4 -9 -2 -14 5 -7 11 -9 10 -9 -3 0 -10 -4 -18 -10 -18 -13 0
-13 23 1 37 13 13 41 -5 32 -21z m-49 -57 c-21 -24 -29 -18 -14 10 6 12 16 19
21 15 6 -4 4 -13 -7 -25z"/>
<path d="M5173 4668 c-7 -9 0 -30 24 -71 44 -74 60 -65 23 14 -34 72 -34 73
-47 57z"/>
<path d="M5560 5066 c0 -23 27 -26 46 -5 17 18 16 19 -14 19 -21 0 -32 -5 -32
-14z"/>
<path d="M5376 4972 c-31 -36 -66 -93 -80 -126 l-25 -61 35 -35 c33 -33 36
-34 49 -17 11 15 11 23 -2 48 -14 28 -14 31 3 44 29 22 36 18 21 -11 -13 -24
-12 -29 4 -45 11 -11 19 -24 19 -31 0 -6 -3 -8 -7 -5 -10 11 -43 -24 -43 -46
0 -11 -7 -28 -15 -37 -13 -14 -9 -22 45 -75 37 -36 63 -55 69 -50 5 6 34 43
65 83 54 71 63 98 29 85 -11 -4 -14 -2 -11 8 3 8 -11 31 -30 52 -20 20 -31 37
-26 37 6 0 23 -14 39 -30 20 -21 35 -28 48 -24 13 4 17 1 15 -9 -6 -31 14 -16
62 45 52 67 52 88 1 88 -18 0 -39 12 -60 34 -21 22 -39 32 -49 28 -12 -4 -14
-1 -9 12 5 13 -1 21 -27 31 -36 15 -52 32 -42 42 3 3 12 0 20 -6 8 -7 17 -8
20 -3 3 4 -10 15 -29 24 l-34 15 -55 -65z m149 -303 c11 -17 -1 -21 -15 -4 -8
9 -8 15 -2 15 6 0 14 -5 17 -11z"/>
<path d="M6040 4945 c47 -47 87 -85 90 -85 2 0 -33 38 -80 85 -47 47 -87 85
-90 85 -2 0 33 -38 80 -85z"/>
<path d="M5512 4988 c3 -7 14 -17 26 -23 12 -5 22 -14 22 -19 0 -17 62 -75 75
-70 7 3 -13 29 -50 65 -61 58 -80 71 -73 47z"/>
<path d="M4630 4750 c-6 -11 -7 -20 -2 -20 5 0 17 9 27 20 16 18 16 20 2 20
-9 0 -21 -9 -27 -20z"/>
<path d="M4665 4730 c-27 -30 -12 -34 15 -5 13 14 19 25 13 25 -5 0 -18 -9
-28 -20z"/>
<path d="M4486 4678 c-14 -50 -26 -71 -61 -104 l-44 -41 43 -42 43 -43 86 105
85 105 -37 36 c-20 19 -50 38 -67 42 -30 6 -30 5 -48 -58z"/>
<path d="M6325 4660 c33 -33 62 -60 64 -60 3 0 -21 27 -54 60 -33 33 -62 60
-64 60 -3 0 21 -27 54 -60z"/>
<path d="M4378 3905 c-10 -10 4 -55 17 -55 46 0 63 43 23 54 -28 7 -33 7 -40
1z"/>
<path d="M5190 4845 c-8 -9 -8 -15 -2 -15 12 0 26 19 19 26 -2 2 -10 -2 -17
-11z"/>
<path d="M6480 4507 c0 -2 15 -16 33 -33 l32 -29 -29 33 c-28 30 -36 37 -36
29z"/>
<path d="M6645 4340 c44 -44 82 -80 85 -80 2 0 -31 36 -75 80 -44 44 -82 80
-85 80 -2 0 31 -36 75 -80z"/>
<path d="M6515 4103 c2 -10 4 -20 4 -23 2 -7 21 23 21 33 0 4 -6 7 -14 7 -8 0
-13 -8 -11 -17z"/>
<path d="M7332 3933 c6 -8 6 -19 -2 -33 -6 -12 -8 -25 -4 -28 4 -4 9 -1 12 7
3 8 16 25 30 38 27 25 27 25 -17 27 -22 1 -27 -2 -19 -11z"/>
<path d="M6167 3300 c-21 -49 -21 -61 -1 -35 26 34 33 51 25 63 -4 7 -13 -4
-24 -28z"/>
<path d="M7445 3700 c-17 -18 -17 -20 -1 -20 9 0 19 7 23 15 9 25 -2 27 -22 5z"/>
<path d="M7257 3502 c-12 -13 -13 -22 -6 -32 9 -13 10 -13 6 0 -2 8 2 23 11
33 20 22 10 22 -11 -1z"/>
<path d="M2155 2240 c-4 -6 7 -10 27 -10 25 0 29 3 18 10 -19 13 -37 13 -45 0z"/>
<path d="M2180 2210 c0 -5 5 -10 10 -10 6 0 10 5 10 10 0 6 -4 10 -10 10 -5 0
-10 -4 -10 -10z"/>
<path d="M1995 1290 c-19 -8 -19 -9 3 -9 12 -1 22 4 22 9 0 6 -1 10 -2 9 -2 0
-12 -4 -23 -9z"/>
<path d="M2970 7965 c37 -38 40 -38 70 5 l21 30 -62 0 -63 0 34 -35z"/>
<path d="M3090 7985 c10 -12 9 -15 -6 -15 -10 0 -28 -12 -39 -26 l-21 -27 41
-38 c23 -22 48 -39 56 -39 12 1 48 44 118 141 13 18 10 19 -74 19 -77 0 -86
-2 -75 -15z"/>
<path d="M6317 7986 c-3 -8 1 -20 9 -27 27 -22 42 -62 49 -132 7 -64 11 -72
62 -132 l55 -64 24 28 c13 16 38 31 55 35 17 3 47 19 66 36 18 16 39 30 46 30
7 -1 -5 -16 -25 -34 -38 -33 -48 -56 -26 -56 9 0 9 -3 0 -12 -18 -18 -15 -25
15 -33 20 -5 31 -2 40 11 17 24 16 44 -2 44 -8 0 -15 5 -15 10 0 6 7 10 15 10
8 0 15 7 15 15 0 8 5 15 10 15 6 0 10 -9 10 -19 0 -12 9 -21 25 -25 28 -7 35
-43 10 -52 -8 -4 -15 -12 -15 -20 0 -8 -7 -14 -15 -14 -9 0 -12 6 -9 15 7 17
-11 20 -22 4 -9 -15 35 -48 64 -49 12 0 22 -4 22 -10 0 -16 -32 -12 -66 9 -19
11 -31 14 -30 8 2 -23 -19 -22 -22 1 -2 15 -14 27 -32 34 -19 6 -31 19 -35 37
-5 24 -10 27 -31 23 -23 -4 -62 -47 -53 -57 2 -2 89 -90 193 -194 128 -128
204 -197 234 -211 24 -12 45 -20 47 -18 25 31 49 228 27 228 -6 0 -13 -6 -16
-12 -5 -10 -7 -10 -12 0 -3 6 -12 12 -20 12 -8 0 -14 10 -14 24 0 14 -5 28
-10 31 -6 4 -8 11 -4 16 3 6 -2 16 -12 23 -16 12 -15 17 22 59 37 45 69 62 58
33 -9 -23 37 -32 49 -10 6 11 23 30 39 44 l28 24 -32 33 c-38 39 -26 45 13 7
l27 -26 38 25 c22 14 56 30 76 37 21 6 49 26 62 43 23 29 24 34 11 54 -22 34
-18 37 14 11 15 -13 26 -26 24 -31 -2 -4 5 -19 16 -33 12 -15 21 -22 21 -17 0
5 -4 13 -8 19 -5 5 -6 20 -1 34 5 18 7 20 8 7 1 -26 39 -77 57 -77 8 0 14 -6
14 -13 0 -16 32 -47 48 -47 7 0 12 6 12 14 0 7 7 19 15 26 9 7 13 20 11 29 -2
9 -7 26 -11 39 -6 19 -3 22 22 22 43 0 136 49 128 67 -7 19 12 43 34 43 15 1
81 53 81 65 0 3 -333 5 -739 5 -631 0 -740 -2 -744 -14z m774 -49 c-8 -8 -11
-3 -11 19 1 25 2 27 11 11 8 -14 8 -22 0 -30z m-82 14 c10 -6 10 -10 1 -16 -7
-4 -19 0 -28 9 -14 13 -14 16 -2 16 8 0 21 -4 29 -9z m-29 -216 c16 -19 0 -19
-26 0 -16 12 -16 14 -3 15 9 0 22 -7 29 -15z"/>
<path d="M7765 7929 c-38 -38 -82 -77 -97 -87 -15 -9 -30 -28 -33 -43 -4 -15
-13 -30 -21 -33 -8 -3 -14 -13 -14 -21 0 -9 -5 -13 -11 -9 -18 11 -68 -57 -63
-86 4 -22 3 -23 -7 -9 -11 15 -16 12 -40 -25 l-28 -41 31 -32 c26 -27 44 -34
107 -45 59 -10 83 -19 105 -40 16 -16 32 -28 37 -28 15 0 57 64 51 78 -4 11
-1 14 10 9 21 -7 58 32 58 62 0 29 -20 102 -33 119 -5 7 -17 10 -26 7 -14 -4
-16 1 -13 30 3 21 10 35 18 35 7 0 28 9 46 20 18 11 36 20 41 20 16 0 5 -16
-22 -31 -31 -18 -33 -34 -12 -114 6 -22 12 -51 13 -65 3 -22 11 -14 71 61 l67
87 0 82 c0 80 -1 82 -18 67 -26 -24 -36 -21 -18 5 22 31 20 43 -11 73 -21 19
-38 25 -73 25 -42 0 -49 -5 -115 -71z m-205 -324 c0 -8 -4 -15 -10 -15 -5 0
-10 7 -10 15 0 8 5 15 10 15 6 0 10 -7 10 -15z m18 -53 c6 -18 -15 -14 -22 4
-4 10 -1 14 6 12 6 -2 14 -10 16 -16z m72 -32 c0 -5 -9 -10 -20 -10 -11 0 -20
5 -20 10 0 6 9 10 20 10 11 0 20 -4 20 -10z m60 0 c0 -5 -9 -10 -20 -10 -11 0
-20 5 -20 10 0 6 9 10 20 10 11 0 20 -4 20 -10z m60 -10 c0 -13 -11 -13 -30 0
-12 8 -11 10 8 10 12 0 22 -4 22 -10z"/>
<path d="M7962 7989 c10 -5 22 -17 27 -27 9 -14 10 -13 11 11 0 23 -4 27 -27
27 -24 -1 -25 -2 -11 -11z"/>
<path d="M7595 7790 c-3 -5 -1 -10 4 -10 6 0 11 5 11 10 0 6 -2 10 -4 10 -3 0
-8 -4 -11 -10z"/>
<path d="M7313 7762 c-13 -18 -38 -33 -65 -41 -24 -7 -54 -20 -67 -30 l-23
-18 32 -27 c36 -30 36 -31 -1 -39 -19 -5 -31 -1 -44 13 -23 26 -46 13 -80 -44
-18 -31 -25 -57 -25 -94 0 -50 0 -51 35 -58 19 -3 35 -11 35 -17 0 -6 3 -7 7
-3 4 3 12 -8 18 -26 8 -27 15 -32 33 -30 14 2 29 -4 38 -15 8 -10 13 -13 14
-6 0 7 10 13 23 13 12 0 57 0 100 0 59 -1 77 2 71 11 -5 9 0 10 17 6 13 -4 30
-7 37 -7 7 0 10 -4 7 -10 -3 -5 -1 -10 4 -10 6 0 11 7 11 15 0 9 6 12 15 9 8
-4 15 -1 15 5 0 6 -11 11 -24 11 -13 0 -30 8 -37 17 -12 15 -12 16 2 11 13 -5
16 -2 12 15 -5 20 -3 20 21 -5 15 -16 30 -28 35 -28 4 0 15 18 24 40 8 22 20
40 26 40 21 0 -46 -134 -71 -142 -7 -2 -58 -1 -113 2 -55 3 -105 4 -112 1 -20
-10 -83 -95 -83 -113 0 -21 17 -22 75 -7 72 18 128 19 173 2 l44 -16 21 26
c12 15 45 42 74 60 28 17 70 55 92 83 l40 51 -32 30 c-25 23 -48 33 -104 42
-71 12 -73 14 -137 81 -62 66 -65 72 -72 130 -4 34 -14 70 -23 81 -16 20 -16
20 -38 -9z m38 -150 c-12 -22 3 -42 31 -42 25 0 42 -35 23 -50 -10 -8 -12 -17
-5 -29 9 -18 -4 -51 -16 -39 -10 10 -46 -11 -39 -23 4 -5 1 -8 -7 -7 -7 2 -12
-5 -12 -14 2 -20 -11 -24 -21 -8 -4 6 0 21 8 34 13 20 15 31 8 65 -1 2 -7 -2
-15 -8 -10 -9 -16 -8 -26 4 -13 16 -7 30 13 30 13 0 10 45 -3 59 -5 5 5 16 23
26 43 23 50 24 38 2z m-151 -88 c0 -7 -12 -14 -26 -17 -20 -4 -24 -1 -18 12 4
9 9 30 12 46 l5 30 13 -30 c7 -16 13 -35 14 -41z m-120 26 c0 -5 -4 -10 -10
-10 -5 0 -10 5 -10 10 0 6 5 10 10 10 6 0 10 -4 10 -10z m50 -10 c12 -7 12
-12 3 -21 -9 -9 -16 -9 -27 1 -26 21 -5 39 24 20z m130 -7 c0 -11 -12 -26 -32
-42 -16 -12 -18 -11 -18 8 0 13 6 21 18 21 14 0 15 2 2 10 -12 8 -11 10 8 10
12 0 22 -3 22 -7z m193 -90 c-7 -3 -9 -11 -6 -19 6 -16 -5 -18 -26 -5 -8 5
-11 16 -6 30 5 18 9 19 28 9 13 -6 17 -13 10 -15z m-173 -78 c-7 -9 -15 -13
-18 -10 -3 2 1 11 8 20 7 9 15 13 18 10 3 -2 -1 -11 -8 -20z m10 -65 c0 -5 -2
-10 -4 -10 -3 0 -8 5 -11 10 -3 6 -1 10 4 10 6 0 11 -4 11 -10z m40 -25 c10
-12 10 -15 -4 -15 -9 0 -16 7 -16 15 0 8 2 15 4 15 2 0 9 -7 16 -15z m40 -30
c0 -8 -4 -15 -10 -15 -5 0 -10 7 -10 15 0 8 5 15 10 15 6 0 10 -7 10 -15z"/>
<path d="M7320 7551 c0 -18 18 -21 30 -6 10 13 9 15 -9 15 -11 0 -21 -4 -21
-9z"/>
<path d="M7375 7539 c-10 -15 3 -25 16 -12 7 7 7 13 1 17 -6 3 -14 1 -17 -5z"/>
<path d="M7345 7500 c4 -6 11 -8 16 -5 14 9 11 15 -7 15 -8 0 -12 -5 -9 -10z"/>
<path d="M7560 7780 c0 -5 5 -10 10 -10 6 0 10 5 10 10 0 6 -4 10 -10 10 -5 0
-10 -4 -10 -10z"/>
<path d="M7790 7750 c0 -5 5 -10 11 -10 5 0 7 5 4 10 -3 6 -8 10 -11 10 -2 0
-4 -4 -4 -10z"/>
<path d="M2921 7737 c-9 -11 -8 -17 3 -26 11 -9 15 -8 20 5 9 23 -8 38 -23 21z"/>
<path d="M7395 7695 c4 -41 12 -66 26 -80 l20 -20 19 25 c14 19 16 29 8 44 -9
16 -8 18 8 13 11 -4 2 7 -18 24 -20 16 -40 30 -44 29 -4 -1 -11 4 -16 12 -6 8
-7 -8 -3 -47z m51 -2 c-7 -7 -26 7 -26 19 0 6 6 6 15 -2 9 -7 13 -15 11 -17z"/>
<path d="M7945 7643 c-27 -37 -72 -88 -99 -115 -33 -32 -46 -53 -42 -64 4 -12
2 -15 -9 -11 -8 4 -21 -3 -29 -14 -13 -20 -9 -26 67 -100 l82 -79 43 48 44 47
-48 43 c-27 23 -57 42 -67 42 -10 0 -15 5 -12 10 8 14 -8 13 -22 -1 -6 -6 -17
-9 -24 -7 -8 3 0 11 18 20 18 9 36 12 44 7 8 -4 16 -3 20 3 9 15 29 1 29 -21
0 -22 19 -41 42 -41 17 0 18 12 18 150 0 83 -1 150 -2 150 -2 0 -25 -30 -53
-67z m-77 -142 c3 -8 -1 -12 -9 -9 -7 2 -15 10 -17 17 -3 8 1 12 9 9 7 -2 15
-10 17 -17z"/>
<path d="M6730 7649 c0 -5 5 -7 10 -4 6 3 10 8 10 11 0 2 -4 4 -10 4 -5 0 -10
-5 -10 -11z"/>
<path d="M7155 7630 c3 -5 10 -10 16 -10 5 0 9 5 9 10 0 6 -7 10 -16 10 -8 0
-12 -4 -9 -10z"/>
<path d="M6957 7555 c-23 -32 -15 -45 27 -45 28 0 34 4 39 25 3 18 -1 29 -14
35 -26 14 -32 12 -52 -15z"/>
<path d="M6975 7480 c27 -12 35 -12 35 0 0 6 -12 10 -27 9 -25 0 -26 -1 -8 -9z"/>
<path d="M6970 7450 c0 -5 5 -10 10 -10 6 0 10 5 10 10 0 6 -4 10 -10 10 -5 0
-10 -4 -10 -10z"/>
<path d="M7034 7316 c-8 -87 -8 -93 7 -80 15 13 17 13 22 -6 3 -12 13 -20 25
-20 12 0 23 -4 26 -9 7 -11 -47 -9 -55 2 -8 11 -49 -1 -49 -14 0 -5 25 -9 56
-9 42 0 61 5 71 18 14 16 14 16 9 0 -4 -13 0 -18 14 -18 15 0 20 7 20 26 0 14
-4 23 -10 19 -5 -3 -10 1 -10 9 0 9 3 16 8 16 4 0 15 12 25 25 16 22 16 27 3
40 -8 8 -21 13 -28 10 -16 -6 -58 26 -58 44 0 6 -4 11 -10 11 -5 0 -10 7 -10
15 0 9 -9 15 -23 15 -22 0 -24 -5 -33 -94z"/>
<path d="M7693 7346 c-35 -44 -108 -104 -143 -118 -4 -2 -19 -21 -34 -42 -26
-39 -34 -76 -16 -76 6 0 10 -7 10 -15 0 -8 4 -15 9 -15 5 0 11 -15 15 -32 5
-25 9 -29 16 -19 7 12 10 8 16 -15 4 -16 13 -36 21 -46 13 -15 18 -15 48 -2
19 8 48 14 65 14 16 0 30 3 30 7 0 4 -19 26 -42 50 -57 58 -45 61 19 4 62 -54
59 -70 -14 -82 -26 -5 -62 -11 -79 -14 -26 -6 -34 -2 -56 27 -14 18 -35 52
-47 76 -12 23 -26 42 -31 42 -11 0 -40 -53 -40 -72 0 -9 3 -9 10 2 12 19 40 4
57 -32 20 -41 41 -51 96 -51 78 1 163 9 176 17 8 5 11 -3 8 -28 -4 -38 -22
-66 -42 -66 -8 0 -12 -14 -11 -37 1 -32 -3 -39 -21 -41 -12 -2 -27 5 -35 16
-18 26 -58 39 -58 18 0 -19 -2 -19 -34 -5 -22 10 -28 8 -48 -15 -22 -25 -26
-26 -96 -19 -77 6 -95 19 -75 52 8 12 7 22 -2 34 -12 16 -18 13 -69 -34 l-57
-52 48 -50 c73 -75 128 -107 185 -107 48 0 147 33 197 67 14 10 31 18 36 19 6
2 37 14 70 28 86 36 126 34 174 -9 21 -19 41 -35 45 -35 3 0 6 102 6 228 l0
227 -128 128 c-70 70 -130 127 -132 127 -3 0 -24 -24 -47 -54z m172 -196 c4
-6 16 -8 27 -4 18 5 19 4 8 -16 -7 -12 -9 -36 -6 -52 5 -26 4 -29 -9 -18 -8 7
-15 23 -15 35 0 12 -7 28 -15 35 -8 7 -15 16 -15 21 0 12 17 11 25 -1z"/>
<path d="M6750 7305 c0 -8 -4 -15 -9 -15 -19 0 -133 -150 -127 -166 4 -12 2
-15 -9 -10 -25 9 -17 -18 15 -49 17 -16 30 -32 30 -37 0 -16 40 -47 54 -42 8
3 17 1 20 -5 4 -5 -3 -13 -14 -16 -27 -9 -68 18 -76 49 -3 13 -19 33 -35 45
l-30 22 -29 -33 c-17 -18 -33 -42 -36 -53 -4 -11 -11 -23 -17 -27 -6 -4 -4
-13 7 -24 14 -13 20 -14 26 -5 5 10 9 9 13 -3 7 -19 -14 -21 -44 -6 -14 8 -19
8 -17 -1 2 -6 -3 -14 -9 -16 -7 -3 -13 0 -13 7 0 6 -4 8 -10 5 -37 -23 21 -59
72 -44 63 18 80 12 149 -50 l66 -60 50 52 c27 29 67 73 88 100 38 47 58 60 53
32 -2 -10 12 -22 37 -34 46 -20 173 -21 211 0 19 10 26 9 39 -1 8 -7 15 -19
15 -27 0 -8 4 -11 10 -8 5 3 20 -1 32 -10 l23 -17 -27 6 c-19 4 -28 2 -28 -6
-1 -18 -39 33 -40 52 -1 12 -4 11 -15 -4 -7 -10 -18 -15 -24 -11 -6 3 -15 3
-21 0 -5 -3 15 -26 45 -51 l55 -44 68 57 c74 62 85 78 125 171 31 73 32 82 12
82 -8 0 -19 17 -25 41 l-11 41 -42 -6 c-23 -3 -58 -8 -77 -11 -19 -2 -66 -9
-105 -16 -85 -14 -77 -14 -150 0 -33 6 -66 12 -72 13 -7 1 -13 5 -13 10 0 5
-12 1 -26 -9 -15 -9 -22 -19 -15 -21 14 -5 15 -32 1 -32 -6 0 -13 7 -16 15 -4
9 -14 13 -28 10 -11 -3 -34 -2 -50 3 -38 10 -46 31 -10 24 19 -3 25 -1 20 7
-5 7 0 11 13 11 11 0 22 8 24 18 4 16 5 16 6 -1 0 -10 -4 -27 -9 -38 -7 -13
-7 -19 0 -19 5 0 10 4 10 9 0 5 10 11 23 13 12 2 22 8 22 14 0 11 -134 134
-147 134 -4 0 -8 -7 -8 -15z m10 -101 c0 -8 -4 -14 -10 -14 -5 0 -10 2 -10 4
0 2 -3 12 -6 20 -5 12 -2 15 10 10 9 -3 16 -12 16 -20z m-20 -35 c0 -5 -4 -9
-10 -9 -5 0 -10 7 -10 16 0 8 5 12 10 9 6 -3 10 -10 10 -16z m-34 -36 c-8 -8
-36 5 -36 17 0 7 6 7 21 0 11 -7 18 -14 15 -17z m274 17 c0 -5 -4 -10 -10 -10
-5 0 -10 5 -10 10 0 6 5 10 10 10 6 0 10 -4 10 -10z m-200 -10 c13 -8 13 -10
-2 -10 -9 0 -20 5 -23 10 -8 13 5 13 25 0z m315 -11 c4 -6 -1 -17 -11 -24 -11
-9 -14 -14 -6 -15 14 0 17 -30 2 -30 -5 0 -10 5 -10 10 0 6 -7 10 -15 10 -18
0 -20 -16 -2 -23 6 -3 2 -6 -10 -6 -36 -1 -39 20 -7 46 16 12 36 23 44 23 13
0 13 1 0 10 -9 6 -10 10 -3 10 6 0 15 -5 18 -11z m285 -15 c0 -21 -17 -17 -23
5 -3 14 -1 18 9 14 8 -3 14 -11 14 -19z m-622 -2 c2 -7 -2 -10 -12 -6 -9 3
-16 11 -16 16 0 13 23 5 28 -10z m258 -10 c-9 -9 -37 8 -31 18 5 8 11 7 21 -1
8 -6 12 -14 10 -17z m124 18 c-20 -13 -33 -13 -25 0 3 6 14 10 23 10 15 0 15
-2 2 -10z m-316 -17 c6 -15 -8 -32 -26 -33 -13 0 -9 18 5 23 7 3 4 6 -6 6 -10
1 -15 6 -12 11 10 16 32 12 39 -7z m49 10 c-7 -2 -19 -2 -25 0 -7 3 -2 5 12 5
14 0 19 -2 13 -5z m330 0 c-7 -2 -19 -2 -25 0 -7 3 -2 5 12 5 14 0 19 -2 13
-5z m141 -7 c-3 -7 2 -16 10 -19 16 -6 11 -47 -6 -47 -6 0 -8 6 -5 14 3 8 0
17 -8 20 -14 5 -9 46 6 46 5 0 6 -6 3 -14z m-399 -16 c-3 -5 -14 -6 -25 -3
-11 3 -18 9 -15 13 3 5 14 6 25 3 11 -3 18 -9 15 -13z m-295 0 c8 -5 12 -11 9
-14 -3 -3 -14 1 -25 9 -21 16 -8 20 16 5z m240 1 c0 -11 -31 -24 -39 -16 -3 3
1 10 9 15 19 12 30 12 30 1z m-174 -28 c-8 -8 -36 5 -36 17 0 7 6 7 21 0 11
-7 18 -14 15 -17z m284 17 c0 -13 -11 -13 -30 0 -12 8 -11 10 8 10 12 0 22 -4
22 -10z m-230 -4 c0 -9 -30 -14 -35 -6 -4 6 3 10 14 10 12 0 21 -2 21 -4z
m363 -17 c-6 -6 -17 -8 -24 -3 -9 5 -8 9 7 14 23 9 31 3 17 -11z m60 10 c-8
-8 -16 -8 -30 0 -16 9 -14 10 12 11 21 0 26 -3 18 -11z m48 -25 c12 -14 11
-16 -5 -13 -11 2 -21 10 -24 17 -5 17 13 15 29 -4z m-361 -34 c-19 -13 -30
-13 -30 0 0 6 10 10 23 10 18 0 19 -2 7 -10z m464 -5 c-4 -8 -10 -15 -15 -15
-4 0 -6 7 -3 15 4 8 10 15 15 15 4 0 6 -7 3 -15z m-416 -14 c3 -8 -1 -12 -9
-9 -7 2 -15 10 -17 17 -3 8 1 12 9 9 7 -2 15 -10 17 -17z m339 4 c9 -25 -4
-29 -17 -6 -7 15 -7 21 0 21 6 0 13 -7 17 -15z m-412 -15 c4 -6 -7 -10 -27
-10 -25 0 -29 3 -18 10 19 13 37 13 45 0z m-82 -7 c-7 -2 -19 -2 -25 0 -7 3
-2 5 12 5 14 0 19 -2 13 -5z m550 0 c8 -7 -11 -33 -24 -33 -5 0 -9 9 -9 20 0
19 20 27 33 13z m-103 -12 c0 -12 -28 -22 -34 -12 -3 5 -3 11 1 15 9 9 33 7
33 -3z m50 -33 c0 -6 -7 -7 -16 -4 -9 3 -18 6 -20 6 -3 0 -3 4 1 10 7 11 35 2
35 -12z"/>
<path d="M7961 7282 l-30 -39 34 -33 35 -34 0 72 c0 40 -2 72 -4 72 -2 0 -18
-17 -35 -38z"/>
<path d="M7425 7163 c10 -42 24 -51 41 -29 19 27 18 31 -11 44 -36 17 -38 16
-30 -15z"/>
<path d="M7444 6986 c-3 -9 -10 -14 -15 -11 -7 5 -39 -44 -39 -59 0 -3 18 -11
40 -17 22 -7 40 -16 40 -22 0 -5 -8 -6 -17 -2 -41 15 -76 18 -72 6 4 -12 96
-24 111 -14 5 2 -4 15 -20 28 -15 13 -24 27 -19 31 4 4 20 -5 35 -19 16 -15
33 -27 40 -27 7 0 12 -7 12 -15 0 -9 -6 -12 -17 -9 -15 5 -16 4 -3 -5 8 -6 22
-8 32 -5 9 2 19 0 23 -6 3 -5 11 -10 17 -10 6 0 3 9 -6 19 -22 24 -5 37 26 20
13 -7 25 -15 28 -18 14 -17 69 -49 74 -44 11 12 6 33 -9 33 -9 0 -12 6 -9 15
4 8 15 15 25 15 10 0 19 5 19 10 0 6 -4 10 -10 10 -5 0 -10 5 -10 10 0 6 11 8
25 4 19 -5 25 -2 25 10 0 15 -8 16 -62 10 -135 -15 -181 -12 -210 15 -16 14
-28 30 -28 37 0 20 -19 27 -26 10z"/>
<path d="M6848 6876 c-12 -17 -21 -37 -20 -43 2 -7 -3 -10 -11 -8 -7 3 -27
-11 -45 -34 l-33 -41 33 -13 c18 -8 39 -21 47 -30 12 -15 17 -13 55 30 79 90
125 166 99 162 -5 -1 -10 0 -13 1 -3 2 -24 4 -47 4 -36 2 -45 -2 -65 -28z"/>
<path d="M6362 6822 l-42 -56 32 -33 32 -33 64 62 c35 35 68 71 74 82 9 17 7
18 -26 12 -23 -4 -45 -2 -63 7 -28 14 -29 14 -71 -41z"/>
<path d="M6545 6848 c-4 -13 -26 -42 -48 -65 -32 -33 -38 -46 -29 -55 9 -9 17
-7 35 10 13 12 28 22 34 22 6 0 16 7 23 15 19 23 32 18 18 -7 -7 -13 -11 -27
-10 -31 1 -5 -6 -8 -15 -7 -32 4 -34 0 -17 -25 21 -32 9 -47 -12 -17 -8 12
-20 20 -25 16 -6 -4 -3 -14 7 -25 9 -10 12 -19 6 -19 -6 0 -14 5 -17 10 -7 12
-16 12 -33 1 -22 -14 48 -107 78 -103 18 2 20 -1 12 -11 -9 -10 -4 -22 19 -50
32 -39 55 -47 61 -22 3 13 6 13 30 1 32 -17 37 -12 36 33 -1 20 -8 37 -20 44
-10 7 -18 17 -18 23 0 11 -39 51 -46 47 -2 -2 -12 -3 -21 -3 -21 0 -6 15 23
24 16 5 23 0 32 -19 7 -14 17 -22 25 -19 8 3 20 -2 27 -11 10 -12 10 -15 0
-15 -10 0 -10 -3 0 -15 15 -18 50 -20 50 -2 0 7 13 28 29 48 29 35 29 36 10
49 -10 8 -19 20 -19 27 0 7 -9 13 -19 13 -11 0 -23 5 -27 11 -4 7 -18 0 -38
-19 -27 -27 -33 -29 -50 -17 -10 8 -15 19 -11 25 5 8 11 8 21 -1 17 -14 48 7
40 27 -3 7 2 14 11 16 21 4 -99 118 -126 118 -12 0 -22 -9 -26 -22z m40 -158
c3 -5 3 -15 -1 -21 -6 -11 -23 6 -24 24 0 10 18 9 25 -3z m12 -91 c-1 -12 -7
-18 -17 -17 -23 5 -24 33 -1 35 14 1 19 -4 18 -18z"/>
<path d="M7014 6863 c-12 -2 -35 -23 -52 -47 l-31 -43 79 -78 c44 -44 81 -77
83 -74 2 2 31 39 65 81 l62 76 -46 41 c-47 41 -64 49 -64 31 0 -5 5 -10 11
-10 6 0 4 -9 -5 -21 -8 -12 -12 -28 -9 -35 8 -22 -11 -17 -35 9 -12 13 -22 35
-22 50 0 15 -3 26 -7 26 -5 -1 -18 -4 -29 -6z"/>
<path d="M7393 6839 c-30 -31 1 -49 84 -49 34 0 55 23 37 40 -17 15 -108 22
-121 9z"/>
<path d="M7070 6825 c0 -9 5 -15 11 -13 6 2 11 8 11 13 0 5 -5 11 -11 13 -6 2
-11 -4 -11 -13z"/>
<path d="M6881 6713 c-31 -37 -31 -38 -10 -47 15 -7 23 -6 31 5 7 11 11 11 15
2 2 -7 14 -13 25 -13 11 0 36 -10 55 -21 19 -12 37 -18 40 -15 7 7 -106 126
-118 126 -4 0 -21 -17 -38 -37z"/>
<path d="M7211 6728 c-5 -14 -5 -28 1 -35 13 -16 -4 -17 -20 -1 -9 9 -13 7
-18 -6 -4 -10 -17 -29 -30 -41 -16 -16 -21 -30 -17 -41 5 -13 3 -15 -8 -10 -8
4 0 -4 16 -18 31 -27 94 -50 123 -44 9 2 18 12 18 23 2 27 31 92 45 100 13 9
-68 95 -88 95 -8 0 -17 -10 -22 -22z m-30 -128 c5 0 9 -4 9 -10 0 -13 -27 -13
-35 0 -4 6 -3 19 1 28 7 16 7 16 11 0 3 -10 9 -18 14 -18z m64 -20 c3 -5 -3
-10 -14 -10 -12 0 -21 5 -21 10 0 6 6 10 14 10 8 0 18 -4 21 -10z"/>
<path d="M7831 6730 c8 -6 8 -9 -1 -15 -6 -4 -16 -3 -22 3 -12 12 -98 -25 -98
-43 0 -13 23 -46 55 -81 29 -31 35 -70 18 -105 -11 -24 -10 -27 11 -37 21 -9
27 -6 55 28 17 21 31 43 31 48 0 5 -11 19 -25 32 -14 13 -25 28 -25 34 0 5 15
-5 34 -23 19 -18 39 -30 44 -27 6 3 13 3 16 -2 2 -4 -25 -37 -61 -72 -109
-109 -110 -97 20 -230 l112 -114 3 264 2 264 -37 38 -37 38 -33 -32 c-37 -35
-45 -25 -12 16 l20 26 -41 -2 c-22 -1 -36 -5 -29 -8z m-76 -50 c3 -5 2 -10 -4
-10 -5 0 -13 5 -16 10 -3 6 -2 10 4 10 5 0 13 -4 16 -10z m115 -39 c0 -13 -29
-35 -37 -28 -7 8 15 37 28 37 5 0 9 -4 9 -9z"/>
<path d="M6417 6702 c-22 -24 -21 -32 2 -32 22 0 45 25 36 40 -9 15 -20 12
-38 -8z"/>
<path d="M6362 6647 c-11 -12 -30 -51 -43 -87 -12 -36 -38 -85 -56 -109 -42
-56 -33 -69 58 -77 130 -10 188 -22 217 -43 l30 -21 29 37 c17 21 33 44 37 51
6 9 -19 42 -75 101 -46 48 -92 100 -102 114 -10 15 -31 34 -46 42 -26 13 -30
13 -49 -8z m158 -126 c0 -13 -26 -32 -33 -24 -8 7 11 33 24 33 5 0 9 -4 9 -9z
m-100 -41 c0 -13 -20 -13 -40 0 -12 8 -9 10 13 10 15 0 27 -4 27 -10z m66 -14
c21 -21 17 -27 -11 -20 -22 5 -25 3 -25 -21 0 -18 -4 -25 -13 -22 -7 3 -21 -1
-31 -9 -19 -14 -36 -11 -36 7 0 5 5 9 12 9 16 0 58 41 58 57 0 17 28 17 46 -1z
m64 -28 c0 -13 -23 -5 -28 10 -2 7 2 10 12 6 9 -3 16 -11 16 -16z"/>
<path d="M7602 6626 c-45 -24 -82 -39 -82 -35 0 5 -19 9 -43 9 -26 0 -63 10
-91 24 l-47 24 -13 -22 c-8 -11 -17 -31 -20 -43 -3 -13 -8 -31 -11 -42 -5 -15
1 -20 27 -25 44 -9 55 -19 112 -99 47 -67 49 -67 85 -61 20 4 51 20 69 35 40
35 78 46 104 30 16 -10 22 -8 38 11 19 23 19 23 0 40 -11 9 -20 23 -20 32 0 9
-8 16 -19 16 -11 0 -23 5 -26 10 -3 6 -1 10 6 10 8 0 8 4 -1 15 -8 9 -9 15 -2
15 6 0 14 -5 17 -11 4 -6 13 -8 21 -5 9 3 14 -1 14 -11 0 -14 4 -13 21 6 l21
23 -24 26 c-14 15 -31 37 -39 49 l-15 21 -82 -42z"/>
<path d="M6860 6638 c0 -4 5 -10 10 -13 7 -4 7 -13 0 -26 -13 -24 -33 -15 -25
11 3 10 1 21 -5 25 -16 10 -50 -23 -72 -70 -11 -22 -28 -55 -40 -73 l-20 -33
22 -24 c12 -13 28 -21 36 -18 10 4 12 0 8 -11 -9 -23 22 -31 51 -12 31 20 32
20 38 -4 3 -11 10 -20 15 -20 17 0 84 88 77 100 -3 5 0 10 7 10 13 1 83 85 94
114 5 12 0 16 -20 16 -15 0 -38 7 -51 16 -25 16 -125 26 -125 12z m-46 -59
c-4 -8 1 -9 16 -4 15 5 20 4 16 -4 -4 -6 -3 -11 3 -11 5 0 12 6 14 13 4 8 8 8
14 2 4 -5 14 -10 22 -10 8 0 16 -5 18 -12 3 -7 -4 -9 -18 -6 -13 4 -20 2 -16
-4 4 -5 -6 -8 -24 -5 -16 2 -36 -2 -45 -9 -14 -11 -15 -10 -12 7 2 14 -2 18
-17 15 -20 -3 -20 -3 -1 18 20 22 42 29 30 10z"/>
<path d="M7069 6553 c-13 -14 -18 -23 -10 -18 9 5 12 3 9 -6 -3 -8 -10 -13
-16 -12 -5 1 -16 -4 -22 -12 -10 -12 -9 -16 4 -21 24 -9 19 -22 -7 -17 -14 3
-29 -2 -38 -13 -8 -11 -9 -15 -2 -10 9 5 11 2 7 -7 -3 -8 -15 -18 -27 -21 -19
-5 -18 -8 19 -37 67 -53 64 -54 128 24 33 39 51 67 40 62 -31 -14 -98 -6 -83
10 3 2 29 6 58 9 60 4 66 8 57 33 -7 17 -8 17 -21 -1 -14 -19 -45 -16 -45 5 0
6 7 9 15 5 25 -9 17 11 -14 33 l-28 20 -24 -26z"/>
<path d="M6146 6529 l-27 -39 32 -28 c53 -45 60 -47 80 -21 17 22 16 24 -3 41
-11 9 -17 22 -13 27 3 6 2 11 -4 11 -6 0 -8 6 -6 13 3 6 -3 17 -13 23 -15 10
-22 6 -46 -27z"/>
<path d="M7735 6510 c-7 -12 2 -30 16 -30 5 0 9 9 9 20 0 21 -15 27 -25 10z"/>
<path d="M7210 6497 c0 -8 6 -17 13 -20 9 -3 9 -7 -2 -20 -15 -18 -35 -13 -25
6 12 20 -1 6 -70 -77 -36 -44 -66 -82 -66 -85 0 -3 26 -6 58 -6 36 -1 68 -7
83 -16 32 -22 44 -19 40 10 -2 15 1 21 8 17 6 -4 11 -15 11 -26 0 -19 25 -34
41 -24 5 3 9 11 9 18 0 7 11 23 25 36 22 20 23 25 10 33 -8 4 -13 13 -9 19 8
13 -55 71 -71 64 -19 -7 -28 23 -13 41 11 13 15 12 30 -7 10 -12 29 -23 43
-24 14 0 25 -5 25 -9 0 -17 29 -37 44 -31 20 8 20 10 -4 49 -24 38 -49 51
-123 60 -48 6 -57 5 -57 -8z"/>
<path d="M6630 6451 c0 -12 29 -23 41 -15 18 10 9 24 -16 24 -14 0 -25 -4 -25
-9z"/>
<path d="M7746 6423 c-15 -21 -16 -27 -5 -38 12 -11 17 -10 32 11 10 13 13 24
7 24 -6 0 -9 4 -5 9 13 22 -12 17 -29 -6z"/>
<path d="M6686 6423 c-5 -12 11 -35 56 -80 34 -35 67 -63 72 -63 6 0 5 5 -2
12 -14 14 -16 42 -2 33 6 -3 10 -2 10 4 0 6 -9 15 -21 21 -11 6 -36 29 -56 51
-39 43 -48 47 -57 22z"/>
<path d="M7598 6374 c-23 -20 -45 -38 -48 -41 -15 -14 59 13 82 30 24 18 31
19 54 8 36 -16 45 -4 15 20 -33 27 -53 24 -103 -17z"/>
<path d="M6620 6344 c-18 -25 -29 -49 -24 -54 25 -24 138 -110 144 -110 9 0
60 65 60 77 0 8 -134 133 -143 133 -2 0 -18 -21 -37 -46z"/>
<path d="M6922 6369 c-8 -12 -10 -24 -5 -28 27 -23 81 -58 96 -64 13 -5 20 0
26 15 7 19 2 26 -34 49 -24 15 -46 32 -49 38 -10 16 -20 14 -34 -10z"/>
<path d="M7415 6355 c35 -28 45 -31 45 -10 0 9 -12 20 -26 25 -43 17 -50 11
-19 -15z"/>
<path d="M6146 6299 l-56 -73 41 -42 42 -43 24 37 c14 20 33 46 43 57 26 30
31 53 15 69 -8 8 -15 19 -15 24 0 5 -8 17 -19 26 -18 16 -21 14 -75 -55z"/>
<path d="M6300 6344 c0 -15 26 -19 34 -5 3 5 -3 11 -14 14 -13 3 -20 0 -20 -9z"/>
<path d="M6830 6345 c7 -8 16 -12 21 -9 13 8 1 24 -18 24 -13 0 -13 -3 -3 -15z"/>
<path d="M7667 6343 c5 -13 2 -15 -12 -10 -9 4 -23 3 -29 -2 -7 -6 -29 -11
-49 -13 -27 -1 -36 -6 -32 -16 20 -53 18 -63 -26 -103 -40 -37 -42 -40 -24
-53 17 -12 22 -11 41 3 12 9 18 18 13 19 -15 6 -10 22 6 22 8 0 15 8 16 18 0
16 1 16 7 0 6 -14 18 -8 75 39 65 54 84 79 50 66 -13 -5 -15 -2 -9 12 4 11 2
22 -6 27 -20 12 -28 9 -21 -9z"/>
<path d="M6347 6332 c-16 -17 -14 -21 28 -61 25 -24 45 -38 45 -32 0 6 5 11
10 11 6 0 10 -6 10 -13 0 -8 8 -21 18 -30 16 -15 20 -13 59 38 l42 54 -42 19
c-23 11 -67 23 -98 26 -46 5 -59 3 -72 -12z"/>
<path d="M7375 6330 c-3 -11 -10 -20 -15 -20 -11 0 -65 -80 -72 -108 -4 -12
-2 -24 2 -27 16 -10 59 6 63 23 4 14 6 12 12 -5 4 -13 13 -23 21 -23 31 0 0
-29 -34 -32 -29 -2 -36 -7 -34 -20 2 -14 -3 -17 -28 -14 -38 4 -38 -4 0 -32
47 -35 74 -29 110 23 25 36 28 45 14 45 -13 0 -14 3 -4 15 7 8 20 15 30 15 10
0 37 17 60 38 42 37 43 38 31 75 -14 41 -33 47 -63 20 -14 -13 -21 -14 -30 -5
-9 9 -9 12 3 12 7 0 1 9 -16 20 -37 25 -42 25 -50 0z"/>
<path d="M6270 6330 c0 -25 16 -44 25 -30 4 7 0 19 -9 28 -13 14 -16 14 -16 2z"/>
<path d="M6849 6297 c-10 -18 -18 -34 -18 -37 1 -3 27 -29 58 -57 l57 -53 39
20 c22 11 45 20 52 20 40 0 11 66 -32 73 -41 6 -76 -8 -69 -28 3 -8 1 -15 -5
-15 -8 0 -11 16 -9 47 3 43 1 47 -25 54 -25 7 -31 4 -48 -24z"/>
<path d="M6282 6258 c-26 -34 -30 -44 -19 -57 10 -12 9 -14 -7 -8 -10 4 -25 2
-33 -4 -11 -10 -8 -17 19 -41 31 -27 31 -28 8 -22 -34 9 -31 9 -63 -4 -41 -17
-44 -38 -10 -66 17 -14 41 -41 54 -60 13 -20 29 -36 35 -36 18 0 115 108 102
113 -8 3 -6 6 4 6 19 1 90 89 85 105 -2 6 -22 20 -45 32 -23 11 -41 23 -39 25
1 3 -8 -6 -21 -19 -13 -13 -25 -23 -27 -21 -9 10 9 58 23 61 12 2 10 7 -9 20
-26 16 -26 16 -57 -24z m28 -77 c0 -6 -4 -13 -10 -16 -15 -9 -12 -25 5 -25 8
0 15 -5 15 -11 0 -5 4 -8 9 -5 5 3 15 -2 22 -11 10 -11 11 -17 3 -20 -7 -2 -9
-13 -6 -25 4 -15 2 -19 -7 -13 -7 4 -11 16 -8 26 7 25 -9 34 -21 13 -24 -43
-54 34 -31 79 10 18 29 23 29 8z"/>
<path d="M6535 6236 c-29 -35 -35 -50 -29 -68 6 -19 5 -21 -8 -11 -12 11 -20
6 -46 -27 -31 -38 -40 -59 -24 -61 57 -5 76 -9 92 -24 12 -11 26 -14 40 -10
19 6 21 4 16 -13 -4 -11 -2 -23 4 -27 6 -3 10 3 10 15 0 12 4 19 9 15 9 -5 81
74 81 90 0 4 -25 4 -57 0 -52 -6 -55 -6 -40 9 9 9 20 16 24 15 27 -5 35 1 23
16 -16 20 0 19 28 -1 18 -12 26 -13 37 -4 8 7 15 15 15 19 0 6 -44 42 -122 99
-14 10 -21 6 -53 -32z m12 -83 c-4 -3 -3 -11 2 -17 17 -22 20 -59 5 -73 -12
-13 -14 -10 -14 22 0 20 -4 34 -9 31 -4 -3 -7 5 -6 17 3 28 3 27 17 27 6 0 8
-3 5 -7z m63 -83 c-8 -5 -17 -7 -19 -4 -3 3 1 9 9 14 8 5 17 7 19 4 3 -3 -1
-9 -9 -14z"/>
<path d="M5980 6252 c0 -5 13 -21 29 -36 28 -27 30 -27 40 -8 8 16 7 21 -5 26
-9 3 -19 4 -24 1 -4 -3 -10 2 -14 10 -6 16 -26 21 -26 7z"/>
<path d="M7066 6251 c-9 -14 55 -64 67 -52 5 5 23 7 39 4 26 -5 29 -3 26 13
-2 10 -14 24 -28 31 -29 15 -96 17 -104 4z"/>
<path d="M7250 6230 c0 -5 5 -10 10 -10 6 0 10 5 10 10 0 6 -4 10 -10 10 -5 0
-10 -4 -10 -10z"/>
<path d="M6797 6191 c-22 -33 -24 -41 -12 -51 8 -7 20 -27 26 -45 12 -32 32
-45 72 -45 9 0 17 6 17 13 0 6 7 25 15 41 15 28 14 31 -12 59 -16 16 -40 37
-54 48 l-27 19 -25 -39z"/>
<path d="M7220 6211 c0 -12 5 -21 10 -21 6 0 10 6 10 14 0 8 -4 18 -10 21 -5
3 -10 -3 -10 -14z"/>
<path d="M6061 6192 c-8 -15 -3 -26 30 -58 39 -38 41 -38 55 -20 12 17 12 22
-2 37 -13 14 -21 16 -35 8 -22 -11 -25 0 -6 20 10 11 8 13 -11 8 -18 -4 -22
-2 -18 9 8 20 -2 17 -13 -4z"/>
<path d="M7065 6190 c-4 -6 -19 -16 -33 -21 -26 -10 -25 -11 28 -30 30 -11 65
-20 77 -21 16 -2 21 -7 18 -19 -4 -10 4 -23 20 -33 15 -10 45 -36 67 -58 l41
-41 24 27 23 27 -83 56 c-45 31 -98 68 -117 83 -50 38 -58 42 -65 30z"/>
<path d="M7162 6161 c25 -20 29 -21 44 -7 14 15 13 16 -9 16 -14 0 -34 3 -44
7 -11 4 -7 -3 9 -16z"/>
<path d="M7230 6142 c-21 -17 -21 -19 -6 -25 13 -5 19 -1 23 13 5 19 7 20 23
5 16 -14 18 -14 23 0 4 8 2 15 -2 15 -5 0 -16 2 -24 5 -7 3 -24 -3 -37 -13z"/>
<path d="M6732 6115 c-7 -15 -8 -25 -2 -25 6 0 10 -5 10 -11 0 -6 -9 -8 -20
-4 -11 3 -20 3 -20 -2 0 -4 -11 -20 -25 -35 l-25 -27 32 -26 31 -26 24 40 c13
22 32 43 43 46 26 8 25 35 -1 69 -25 32 -33 33 -47 1z m58 -45 c0 -5 -7 -10
-15 -10 -8 0 -15 5 -15 10 0 6 7 10 15 10 8 0 15 -4 15 -10z"/>
<path d="M6970 6132 c0 -4 46 -54 103 -110 87 -87 105 -101 116 -89 6 8 23 18
36 21 14 4 25 10 25 15 0 5 -23 30 -51 54 -48 42 -157 94 -186 89 -7 -2 -13 4
-13 13 0 8 -7 15 -15 15 -8 0 -15 -3 -15 -8z"/>
<path d="M7421 6092 c-17 -27 -42 -54 -56 -60 -14 -6 -25 -18 -25 -26 0 -7 -7
-19 -15 -26 -16 -14 -20 -56 -6 -64 5 -4 24 13 42 36 18 24 57 69 87 100 50
51 53 58 39 72 -24 24 -32 20 -66 -32z"/>
<path d="M6706 6113 c-6 -14 -5 -15 5 -6 7 7 10 15 7 18 -3 3 -9 -2 -12 -12z"/>
<path d="M6943 6071 l-22 -18 50 -52 c27 -28 53 -51 58 -51 5 0 21 -16 35 -35
28 -36 53 -44 73 -24 9 9 -10 35 -75 105 -47 52 -88 94 -92 94 -3 -1 -15 -9
-27 -19z"/>
<path d="M6401 6056 c2 -2 15 -9 29 -15 24 -11 24 -11 6 3 -16 13 -49 24 -35
12z"/>
<path d="M6345 6003 c-19 -21 -35 -47 -35 -58 0 -19 1 -19 18 2 14 19 22 21
47 14 24 -7 27 -10 13 -16 -9 -4 -21 -4 -26 -1 -5 3 -17 -3 -26 -13 -20 -22
-19 -22 51 -45 28 -10 57 -23 63 -31 10 -12 17 -9 45 21 19 20 31 42 28 50 -4
10 0 12 12 8 15 -6 16 -2 11 27 -7 33 -6 33 9 14 16 -19 17 -19 13 -1 -3 21
-70 60 -90 53 -7 -3 0 -10 17 -17 l30 -12 -24 -9 c-17 -7 -27 -5 -35 6 -6 8
-28 21 -49 30 l-38 16 -34 -38z"/>
<path d="M6770 6010 c-38 -40 -37 -51 1 -95 32 -36 59 -46 59 -21 0 8 13 24
29 35 21 15 28 27 24 41 -3 11 -9 20 -13 20 -5 0 -10 10 -12 23 -5 37 -52 35
-88 -3z"/>
<path d="M6897 6001 c-7 -29 6 -42 51 -46 23 -2 42 -2 42 0 0 9 -66 65 -76 65
-7 0 -14 -9 -17 -19z"/>
<path d="M6595 5974 c-9 -15 -12 -23 -6 -20 11 7 35 46 28 46 -3 0 -12 -12
-22 -26z"/>
<path d="M7234 5936 c-45 -20 -48 -30 -18 -65 27 -33 54 -41 54 -16 0 8 6 12
14 9 20 -8 28 25 14 57 -14 33 -20 34 -64 15z"/>
<path d="M6870 5916 c-33 -23 -34 -39 -2 -44 11 -2 26 -10 32 -18 20 -24 54
-17 73 15 18 30 22 60 10 62 -54 8 -86 3 -113 -15z"/>
<path d="M6220 5904 c-19 -8 -38 -20 -42 -27 -9 -14 84 -113 113 -120 21 -6
25 3 8 20 -9 9 -5 14 15 19 16 4 32 2 39 -5 13 -13 31 -15 23 -2 -3 5 0 11 8
14 7 3 16 17 18 31 5 23 0 27 -58 46 -35 12 -66 26 -69 31 -8 12 -13 11 -55
-7z"/>
<path d="M7146 5871 c-18 -20 -14 -41 7 -41 7 0 18 9 24 19 19 30 -8 48 -31
22z"/>
<path d="M6137 5829 c-12 -16 -12 -27 -4 -52 5 -18 12 -38 14 -46 2 -7 10 -11
17 -8 8 3 16 1 18 -4 2 -7 12 -7 29 1 35 16 31 51 -10 94 -41 42 -45 43 -64
15z"/>
<path d="M7060 5830 c0 -5 10 -10 23 -10 18 0 19 2 7 10 -19 13 -30 13 -30 0z"/>
<path d="M6416 5808 c-10 -38 -7 -44 10 -19 11 15 13 26 6 33 -6 6 -11 1 -16
-14z"/>
<path d="M7125 5810 c3 -5 8 -10 11 -10 2 0 4 5 4 10 0 6 -5 10 -11 10 -5 0
-7 -4 -4 -10z"/>
<path d="M7032 5786 c-12 -27 -10 -30 29 -39 19 -5 31 -1 44 13 21 24 13 35
-31 44 -26 6 -32 3 -42 -18z"/>
<path d="M6095 5771 c-9 -16 26 -78 52 -90 37 -17 37 -14 4 20 -18 17 -31 41
-31 55 0 24 -14 32 -25 15z"/>
<path d="M6335 5750 c-18 -20 -18 -21 4 -43 l22 -22 24 30 c18 21 21 32 13 42
-15 19 -42 16 -63 -7z"/>
<path d="M6260 5734 c0 -11 -6 -26 -12 -33 -10 -11 -10 -14 0 -18 6 -3 12 -9
12 -15 0 -6 -7 -7 -16 -4 -9 3 -24 0 -34 -7 -18 -12 -17 -14 13 -38 61 -48 53
-50 107 22 l19 26 -44 43 c-37 37 -45 41 -45 24z"/>
<path d="M6061 5722 c-14 -27 -14 -32 3 -32 18 0 30 30 17 43 -6 6 -13 1 -20
-11z"/>
<path d="M6096 5681 c-4 -5 -2 -12 3 -15 5 -4 12 -2 15 3 4 5 2 12 -3 15 -5 4
-12 2 -15 -3z"/>
<path d="M7786 5019 c-58 -74 -104 -138 -103 -144 2 -5 30 -13 61 -16 53 -6
63 -11 110 -58 l52 -51 47 48 47 48 0 100 0 100 -54 53 -54 53 -106 -133z"/>
<path d="M7460 4833 c-57 -31 -118 -59 -134 -62 l-30 -7 64 -48 c36 -27 72
-57 81 -66 15 -17 21 -10 107 97 73 91 90 118 81 129 -21 25 -63 14 -169 -43z"/>
</g>
</svg>
