<?xml version="1.0" standalone="no"?>
<!DOCTYPE svg PUBLIC "-//W3C//DTD SVG 20010904//EN"
 "http://www.w3.org/TR/2001/REC-SVG-20010904/DTD/svg10.dtd">
<svg version="1.0" xmlns="http://www.w3.org/2000/svg"
 width="800.000000pt" height="800.000000pt" viewBox="0 0 800.000000 800.000000"
 preserveAspectRatio="xMidYMid meet">
<metadata>
Created by potrace 1.16, written by Peter Selinger 2001-2019
</metadata>
<g transform="translate(0.000000,800.000000) scale(0.100000,-0.100000)"
fill="#000000" stroke="none">
<path d="M0 7920 c0 -94 10 -100 78 -48 42 33 59 70 47 108 -5 17 -15 20 -66
20 l-59 0 0 -80z"/>
<path d="M144 7974 c10 -37 -10 -89 -39 -102 -14 -7 -25 -16 -25 -21 0 -5 -15
-14 -34 -21 -21 -7 -36 -19 -40 -33 -3 -12 -6 -136 -6 -275 l0 -253 63 36 c35
19 69 35 76 35 25 0 -2 -21 -70 -55 l-69 -35 0 -114 0 -114 30 -12 c28 -11 55
-4 338 87 169 55 309 98 311 96 13 -10 -39 -29 -314 -118 -264 -85 -304 -96
-333 -87 l-32 10 1 -164 1 -164 24 6 c32 8 31 -4 -1 -16 -25 -9 -25 -11 -25
-125 0 -63 2 -115 4 -115 2 0 43 18 92 41 49 23 121 54 159 69 134 53 431 189
678 309 136 66 247 115 247 110 0 -6 -74 -46 -165 -90 -91 -44 -165 -83 -165
-88 0 -20 33 -33 90 -36 52 -3 63 -7 85 -33 36 -43 31 -51 -8 -14 -20 20 -40
30 -49 27 -8 -3 -34 -2 -57 4 l-42 9 20 -31 c88 -141 86 -135 82 -235 -2 -84
0 -96 23 -135 34 -57 83 -107 106 -107 12 0 21 10 25 29 7 33 28 53 105 103
71 46 121 71 127 64 5 -4 -65 -52 -93 -63 -11 -4 -12 -9 -4 -18 7 -8 7 -15 1
-19 -5 -3 -11 0 -13 6 -7 21 -88 -39 -103 -75 -15 -36 -12 -47 14 -47 52 0
136 -118 181 -257 18 -54 41 -108 52 -120 11 -12 45 -31 76 -42 48 -18 63 -31
95 -76 l38 -54 106 80 c107 81 134 96 182 104 14 2 53 11 85 20 73 20 114 14
151 -25 26 -27 29 -28 41 -12 7 9 16 14 20 9 4 -4 -1 -13 -11 -21 -10 -7 -15
-18 -12 -23 5 -7 -6 -11 -29 -10 -29 1 -33 3 -20 12 14 11 13 14 -7 33 -31 30
-76 30 -182 3 -66 -17 -104 -34 -142 -63 -53 -39 -65 -52 -39 -42 8 3 17 1 21
-5 3 -6 -2 -11 -12 -12 -10 0 -5 -5 12 -10 17 -5 37 -6 46 -4 16 5 52 -27 62
-57 4 -12 -3 -25 -23 -39 -15 -12 -45 -46 -66 -76 -48 -70 -85 -91 -98 -57 -4
12 -1 14 13 9 15 -5 32 9 75 64 31 38 60 73 66 76 13 8 13 42 1 50 -5 3 -16
-2 -24 -10 -21 -20 -30 -19 -23 3 5 13 0 18 -19 20 -14 1 -25 -3 -25 -8 0 -5
-7 -7 -15 -4 -8 4 -17 -1 -21 -9 -3 -9 -20 -19 -37 -23 -18 -3 -40 -13 -49
-22 -10 -8 -18 -11 -18 -6 0 19 16 33 45 40 35 8 65 31 65 51 0 20 -9 16 -64
-25 -60 -46 -94 -56 -119 -37 -21 15 -61 4 -85 -25 -11 -13 -12 -11 -10 10 2
14 8 25 13 26 33 4 75 18 75 25 0 17 17 9 27 -13 5 -12 12 -17 16 -11 3 5 -8
31 -26 56 -25 36 -44 51 -87 68 -30 12 -65 31 -77 43 -12 12 -40 72 -62 135
-47 130 -102 214 -158 238 -19 8 -36 13 -37 11 -2 -2 -8 -18 -16 -36 -16 -40
-77 -85 -185 -133 -60 -27 -79 -40 -77 -53 3 -14 -1 -15 -15 -8 -26 13 -265
-101 -257 -122 4 -11 20 -14 59 -13 30 1 57 5 60 9 4 4 13 4 20 2 7 -3 16 -1
20 5 3 6 30 11 59 11 47 0 55 -3 87 -37 20 -21 49 -56 65 -78 16 -21 41 -51
55 -65 29 -27 187 -203 232 -259 16 -19 26 -40 23 -47 -3 -7 2 -15 9 -18 26
-10 58 -86 52 -126 -6 -45 3 -62 48 -90 40 -25 47 -45 10 -28 -14 6 -25 15
-25 20 0 4 -7 8 -15 8 -9 0 -18 7 -21 15 -8 21 -24 19 -24 -2 0 -25 -49 -127
-57 -119 -3 3 3 27 14 54 28 66 44 112 50 145 7 34 -23 104 -47 112 -10 3 -18
16 -17 30 0 17 -36 63 -118 155 -64 71 -119 130 -121 130 -1 0 -13 -5 -26 -10
-19 -9 -23 -18 -22 -54 0 -23 4 -48 8 -54 10 -17 -9 -15 -24 3 -7 8 -9 23 -4
37 4 13 7 33 5 45 -2 16 5 26 22 34 l25 11 -35 46 c-100 131 -98 129 -150 121
-55 -8 -151 -43 -170 -61 -10 -11 -8 -25 9 -73 12 -33 26 -62 30 -65 4 -3 10
-21 12 -40 3 -19 12 -57 20 -85 22 -70 21 -83 -20 -171 -40 -89 -52 -106 -66
-98 -5 4 -4 13 5 22 18 23 77 158 77 178 0 29 -79 271 -111 339 -25 52 -35 65
-48 59 -9 -4 -23 -7 -31 -6 -8 0 -40 1 -71 3 -64 3 -86 -6 -68 -27 15 -18 2
-18 -17 0 -19 20 -19 22 20 40 20 10 46 14 63 10 l29 -6 24 104 c13 56 24 119
25 139 0 19 10 54 22 77 l20 41 -60 21 c-34 11 -73 20 -87 20 -32 0 -136 -53
-161 -83 -15 -18 -18 -19 -19 -5 0 23 48 61 98 77 23 8 42 18 42 23 0 15 79 8
131 -12 28 -12 53 -19 54 -18 2 2 0 27 -2 56 -5 45 -9 53 -29 58 -28 7 -28 6
-9 67 12 39 12 47 1 47 -8 0 -17 7 -20 16 -12 31 -6 37 14 16 12 -12 30 -22
40 -22 11 0 20 -4 20 -10 0 -5 -6 -10 -13 -10 -8 0 -19 -17 -25 -37 -11 -35
-10 -39 13 -58 20 -16 25 -31 27 -77 2 -44 7 -58 20 -61 10 -3 22 1 29 9 6 8
16 14 21 14 6 0 79 34 163 75 l153 75 4 77 5 78 -56 92 c-52 86 -71 108 -71
83 0 -5 -5 -10 -11 -10 -6 0 -71 -29 -143 -64 -151 -72 -176 -82 -176 -67 0 6
4 11 10 11 25 0 326 156 323 167 -3 9 -22 3 -63 -17 -71 -36 -379 -173 -540
-240 -65 -27 -143 -61 -174 -76 l-56 -26 0 -54 0 -55 30 16 c23 12 30 13 30 2
0 -7 -13 -18 -30 -24 l-30 -11 0 -106 0 -105 95 44 c55 25 95 39 95 32 0 -7
-25 -23 -55 -36 l-55 -23 35 -47 c44 -57 77 -119 72 -134 -2 -6 -18 14 -35 44
-17 31 -44 71 -59 91 -27 33 -29 34 -61 21 l-32 -13 0 -90 c0 -86 2 -95 40
-170 44 -87 45 -90 30 -90 -6 0 -24 28 -40 63 l-29 62 0 -272 c-1 -288 -2
-280 45 -267 16 4 19 12 16 35 -2 16 0 29 5 29 11 0 26 -100 17 -109 -3 -3
-10 2 -15 12 -6 10 -22 17 -39 17 l-30 0 0 -63 c0 -57 3 -67 34 -103 38 -44
86 -113 86 -124 0 -3 -27 -19 -60 -35 -40 -19 -60 -35 -60 -46 0 -31 43 -47
69 -26 12 10 14 9 8 -5 -3 -10 -2 -18 2 -18 5 0 11 6 14 13 10 26 29 -10 22
-42 -8 -39 -25 -50 -25 -18 0 16 -7 26 -20 30 -29 7 -32 -5 -10 -39 14 -21 30
-31 57 -34 33 -5 43 -2 75 29 25 23 38 30 38 20 0 -8 -14 -28 -31 -45 -17 -16
-39 -43 -50 -61 -23 -37 -69 -56 -116 -47 -47 9 -44 -16 11 -73 l43 -47 72 14
c43 8 71 18 71 26 0 7 8 10 20 7 36 -10 4 -30 -75 -48 l-74 -16 105 -127 c111
-134 130 -172 165 -315 22 -90 22 -87 11 -87 -5 0 -14 26 -21 58 -13 57 -35
103 -49 101 -19 -3 -32 2 -32 12 0 6 7 9 15 5 20 -7 19 -4 -10 55 -22 43 -28
48 -45 39 -26 -14 -33 -13 -26 5 3 9 0 15 -9 15 -8 0 -15 5 -15 11 0 7 11 8
31 4 30 -7 31 -7 17 19 -7 14 -63 83 -123 153 l-110 127 -3 -38 c-2 -21 2 -61
8 -89 7 -34 7 -54 0 -61 -6 -6 -10 -81 -10 -193 0 -147 3 -184 14 -190 20 -11
66 -93 66 -118 1 -14 21 -33 66 -60 103 -63 104 -65 57 -127 -41 -53 -84 -131
-82 -145 8 -46 -28 -129 -47 -110 -4 4 0 15 9 24 19 21 31 68 22 82 -3 6 -26
-4 -55 -27 l-49 -37 0 -942 c-1 -619 2 -943 9 -943 5 0 124 27 262 61 563 136
1194 277 1202 269 5 -5 -1 -11 -15 -15 -13 -3 -238 -54 -499 -114 -261 -60
-584 -136 -717 -168 l-243 -58 0 -792 0 -793 4000 0 4000 0 0 3862 0 3862 -35
-34 c-50 -49 -57 -28 -7 23 43 44 51 72 32 108 -7 13 -7 19 0 19 5 0 10 21 10
46 0 41 -2 45 -16 34 -8 -7 -14 -23 -13 -34 2 -35 -3 -43 -10 -16 -7 23 -12
25 -54 23 -30 -2 -47 1 -47 9 0 6 -7 4 -18 -5 -23 -21 -36 -22 -28 -2 3 9 0
15 -8 15 -16 0 -30 31 -19 39 4 3 17 16 27 29 l20 23 -385 -3 c-211 -1 -374
-4 -361 -6 12 -2 22 -8 22 -13 0 -14 -46 -11 -59 4 -7 9 -34 14 -71 14 -51 1
-59 -1 -49 -13 6 -8 18 -14 26 -14 8 0 12 -4 9 -9 -3 -5 -16 -7 -29 -4 l-22 5
23 -16 c27 -21 29 -40 3 -31 -11 3 -22 1 -26 -5 -11 -18 -35 -11 -35 11 0 18
-4 20 -25 15 -14 -4 -25 -2 -25 3 0 5 17 13 37 18 23 5 39 15 41 26 3 15 -7
17 -83 17 -103 0 -115 -8 -115 -75 0 -28 -4 -44 -10 -40 -6 3 -10 22 -10 41 0
37 -19 48 -21 12 -1 -18 -2 -19 -6 -5 -2 9 -9 15 -14 12 -5 -4 -9 1 -9 11 0
16 -11 16 -52 -1 -10 -4 -18 -3 -18 3 0 16 55 34 83 27 14 -4 34 -2 44 4 13 7
-41 10 -199 11 -163 0 -218 -3 -222 -12 -5 -10 -7 -10 -12 0 -4 9 -627 12
-3066 12 l-3060 0 6 -26z m7326 6 c8 -5 11 -12 7 -16 -4 -4 -15 0 -24 9 -18
18 -8 23 17 7z m-422 -30 c27 -36 28 -49 3 -26 -12 11 -21 13 -24 6 -3 -6 -4
-5 -3 2 2 7 -1 21 -6 31 -14 28 6 19 30 -13z m-798 -2 c0 -16 -3 -19 -11 -11
-6 6 -8 16 -5 22 11 17 16 13 16 -11z m1278 -7 c3 -8 -1 -12 -9 -9 -7 2 -15
10 -17 17 -3 8 1 12 9 9 7 -2 15 -10 17 -17z m-1274 -42 c-27 -11 -34 -10 -34
0 0 11 31 20 44 13 5 -3 1 -9 -10 -13z m1306 -1 c0 -19 -2 -20 -10 -8 -13 19
-13 30 0 30 6 0 10 -10 10 -22z m-454 -26 c-9 -8 -26 10 -26 26 1 15 2 15 15
-2 8 -11 13 -21 11 -24z m-106 7 c0 -15 -5 -19 -15 -15 -8 3 -15 2 -16 -2 -6
-53 -3 -69 16 -84 15 -13 17 -17 5 -18 -29 0 -49 36 -44 77 8 57 12 63 34 63
14 0 20 -7 20 -21z m800 -8 c0 -12 -20 -25 -27 -18 -7 7 6 27 18 27 5 0 9 -4
9 -9z m-1620 -10 c0 -12 -20 -25 -27 -18 -7 7 6 27 18 27 5 0 9 -4 9 -9z
m1418 -9 c2 -7 -2 -10 -12 -6 -9 3 -16 11 -16 16 0 13 23 5 28 -10z m-1388
-23 c0 -11 -4 -17 -10 -14 -5 3 -10 15 -10 26 0 11 5 17 10 14 6 -3 10 -15 10
-26z m920 16 c0 -8 -4 -15 -10 -15 -5 0 -10 7 -10 15 0 8 5 15 10 15 6 0 10
-7 10 -15z m40 -15 c0 -5 -8 -10 -17 -10 -15 0 -16 2 -3 10 19 12 20 12 20 0z
m598 -8 c2 -7 -2 -10 -12 -6 -9 3 -16 11 -16 16 0 13 23 5 28 -10z m122 8 c0
-5 -2 -10 -4 -10 -2 0 -12 -3 -20 -6 -12 -5 -15 -2 -10 10 7 17 34 22 34 6z
m-960 -31 c0 -10 -4 -19 -10 -19 -5 0 -10 12 -10 26 0 14 4 23 10 19 6 -3 10
-15 10 -26z m710 16 c7 -8 8 -15 2 -15 -5 0 -15 7 -22 15 -7 8 -8 15 -2 15 5
0 15 -7 22 -15z m175 4 c10 -14 1 -21 -19 -13 -9 3 -13 10 -10 15 7 12 21 11
29 -2z m-1640 -21 c4 -14 8 -18 12 -10 5 13 23 17 23 5 0 -5 -4 -14 -9 -22 -8
-12 -12 -12 -24 -2 -19 15 -24 7 -28 -43 -3 -29 0 -41 12 -45 14 -5 14 -11 4
-41 -13 -36 -16 -34 -31 25 -4 17 -8 35 -10 40 -2 6 -6 20 -10 33 -4 14 -2 22
6 22 10 0 10 3 0 15 -10 13 -9 15 9 15 12 0 21 6 21 15 0 23 17 18 25 -7z
m949 7 c-4 -8 -10 -15 -15 -15 -5 0 -9 7 -9 15 0 8 7 15 15 15 9 0 12 -6 9
-15z m596 -10 c-7 -9 -15 -13 -18 -10 -3 2 1 11 8 20 7 9 15 13 18 10 3 -2 -1
-11 -8 -20z m-485 -33 c-6 -7 -35 18 -35 31 0 5 9 2 20 -8 11 -10 18 -20 15
-23z m449 22 c9 -24 7 -28 -9 -14 -17 14 -20 30 -6 30 5 0 12 -7 15 -16z m170
0 c8 -20 8 -24 -1 -24 -17 0 -35 19 -29 29 10 16 23 14 30 -5z m126 7 c0 -6
-4 -13 -10 -16 -5 -3 -10 1 -10 9 0 9 5 16 10 16 6 0 10 -4 10 -9z m-938 -23
c-9 -9 -15 -9 -24 0 -9 9 -7 12 12 12 19 0 21 -3 12 -12z m58 2 c0 -5 -4 -10
-10 -10 -5 0 -10 -8 -10 -17 0 -15 -2 -16 -10 -3 -16 24 -12 40 10 40 11 0 20
-4 20 -10z m-187 -64 c19 -72 21 -86 9 -86 -4 0 -16 29 -25 64 -19 72 -21 86
-9 86 4 0 16 -29 25 -64z m35 42 c-3 -20 1 -23 25 -21 24 2 27 0 17 -13 -15
-17 -46 -18 -57 -1 -13 20 -13 41 0 49 18 11 19 10 15 -14z m326 -14 c4 -10 1
-14 -6 -12 -15 5 -23 28 -10 28 5 0 13 -7 16 -16z m586 1 c7 -8 8 -15 2 -15
-5 0 -15 7 -22 15 -7 8 -8 15 -2 15 5 0 15 -7 22 -15z m-1663 -20 c-4 -8 -11
-15 -17 -15 -7 0 -7 6 0 21 13 23 26 19 17 -6z m848 -23 c-6 -7 -35 18 -35 31
0 5 9 2 20 -8 11 -10 18 -20 15 -23z m852 24 c-3 -7 0 -19 6 -25 8 -8 8 -11 0
-11 -20 0 -34 25 -21 38 16 16 21 15 15 -2z m-787 -10 c0 -8 -4 -18 -10 -21
-5 -3 -10 3 -10 14 0 12 5 21 10 21 6 0 10 -6 10 -14z m210 -28 c0 -6 -7 -5
-15 2 -8 7 -15 17 -15 22 0 6 7 5 15 -2 8 -7 15 -17 15 -22z m-340 -14 c0 -8
-4 -14 -10 -14 -5 0 -10 9 -10 21 0 11 5 17 10 14 6 -3 10 -13 10 -21z m94 0
c9 -22 -3 -32 -14 -14 -12 19 -12 30 -1 30 5 0 12 -7 15 -16z m286 -26 c0 -6
-7 -5 -15 2 -8 7 -15 17 -15 22 0 6 7 5 15 -2 8 -7 15 -17 15 -22z m-250 1 c0
-5 -4 -9 -10 -9 -5 0 -10 7 -10 16 0 8 5 12 10 9 6 -3 10 -10 10 -16z m-54
-46 c-11 -11 -19 6 -11 24 8 17 8 17 12 0 3 -10 2 -21 -1 -24z m114 27 c0 -13
-11 -13 -30 0 -12 8 -11 10 8 10 12 0 22 -4 22 -10z m44 -20 c-10 -4 -23 -5
-28 -2 -5 3 -1 9 10 12 10 4 23 5 28 2 5 -3 1 -9 -10 -12z m180 4 c9 -24 7
-28 -9 -14 -17 14 -20 30 -6 30 5 0 12 -7 15 -16z m-124 -15 c0 -5 -7 -9 -15
-9 -8 0 -15 7 -15 15 0 9 6 12 15 9 8 -4 15 -10 15 -15z m-1090 -25 c0 -8 -4
-14 -10 -14 -5 0 -10 9 -10 21 0 11 5 17 10 14 6 -3 10 -13 10 -21z m870 -3
c0 -12 -20 -25 -27 -18 -7 7 6 27 18 27 5 0 9 -4 9 -9z m360 -17 c0 -8 -4 -14
-10 -14 -5 0 -10 9 -10 21 0 11 5 17 10 14 6 -3 10 -13 10 -21z m-120 -10 c0
-8 -4 -14 -10 -14 -5 0 -10 9 -10 21 0 11 5 17 10 14 6 -3 10 -13 10 -21z
m-1100 -26 c0 -19 -2 -20 -10 -8 -13 19 -13 30 0 30 6 0 10 -10 10 -22z m838
-10 c-2 -12 -8 -23 -14 -25 -7 -2 -10 6 -7 22 6 30 26 34 21 3z m302 2 c0 -5
-9 -10 -21 -10 -11 0 -17 5 -14 10 3 6 13 10 21 10 8 0 14 -4 14 -10z m90 0
c0 -5 -2 -10 -4 -10 -3 0 -8 5 -11 10 -3 6 -1 10 4 10 6 0 11 -4 11 -10z m-50
-13 c0 -19 -27 -53 -36 -45 -4 4 -1 14 5 22 7 8 10 20 6 26 -3 5 1 10 9 10 9
0 16 -6 16 -13z m70 -14 c0 -14 -19 -38 -25 -32 -8 8 5 39 16 39 5 0 9 -3 9
-7z m-1230 -24 c0 -11 -4 -17 -10 -14 -5 3 -10 13 -10 21 0 8 5 14 10 14 6 0
10 -9 10 -21z m1106 -6 c-8 -8 -36 5 -36 17 0 7 6 7 21 0 11 -7 18 -14 15 -17z
m-42 -26 c5 -21 3 -28 -6 -25 -7 3 -14 20 -16 39 -4 40 12 30 22 -14z m61 3
c-3 -5 -13 -10 -21 -10 -8 0 -12 5 -9 10 3 6 13 10 21 10 8 0 12 -4 9 -10z
m35 -26 c0 -8 -4 -14 -10 -14 -5 0 -10 9 -10 21 0 11 5 17 10 14 6 -3 10 -13
10 -21z m-17 -49 c-5 -13 -23 -22 -23 -11 0 15 14 35 21 31 4 -3 6 -12 2 -20z
m12 -53 c-7 -8 -35 7 -35 18 0 6 7 6 20 -2 10 -7 17 -14 15 -16z m49 -17 c3
-8 2 -15 -3 -15 -5 0 -14 7 -21 15 -10 12 -10 15 3 15 8 0 17 -7 21 -15z m31
-36 c11 -17 -1 -21 -15 -4 -8 9 -8 15 -2 15 6 0 14 -5 17 -11z m-6346 -70 c-8
-5 -21 -9 -29 -9 -12 1 -11 4 4 15 10 8 23 12 29 8 5 -3 3 -9 -4 -14z m61 11
c0 -5 8 -10 19 -10 10 0 21 -9 24 -20 4 -15 -1 -22 -18 -26 -31 -8 -47 3 -40
27 4 13 2 19 -9 19 -9 0 -16 5 -16 10 0 6 9 10 20 10 11 0 20 -4 20 -10z m90
-20 c12 -8 11 -10 -7 -10 -13 0 -23 5 -23 10 0 13 11 13 30 0z m-206 -15 c-6
-16 -24 -21 -24 -7 0 11 11 22 21 22 5 0 6 -7 3 -15z m257 5 c18 -10 18 -12 3
-28 -13 -12 -19 -13 -22 -4 -2 7 -8 10 -13 6 -11 -6 -11 -2 -3 20 7 19 9 19
35 6z m57 -42 c-2 -14 -13 -24 -32 -29 -31 -9 -71 6 -61 21 4 6 13 5 24 -2 13
-8 23 -8 37 0 11 7 13 12 6 12 -18 0 -4 20 14 20 10 0 14 -8 12 -22z m-328
-30 c0 -4 -4 -8 -10 -8 -5 0 -10 5 -10 10 0 6 -7 10 -15 10 -18 0 -20 16 -2
23 12 5 37 -19 37 -35z m4277 5 c-9 -9 -19 -14 -22 -11 -3 3 2 13 11 22 9 9
19 14 22 11 3 -3 -2 -13 -11 -22z m-4356 -16 c-16 -16 -26 0 -10 19 9 11 15
12 17 4 2 -6 -1 -17 -7 -23z m429 -18 c0 -11 -4 -17 -10 -14 -5 3 -10 15 -10
26 0 11 5 17 10 14 6 -3 10 -15 10 -26z m-474 -4 c-21 -16 -32 -13 -21 4 3 6
14 11 23 11 15 -1 15 -2 -2 -15z m4374 6 c0 -5 -7 -14 -15 -21 -12 -10 -15
-10 -15 2 0 8 3 18 7 21 9 10 23 9 23 -2z m-4412 -33 c-3 -7 -13 -15 -24 -17
-16 -3 -17 -1 -5 13 16 19 34 21 29 4z m499 -23 c-4 -8 -11 -15 -17 -15 -7 0
-7 6 0 21 13 23 26 19 17 -6z m-557 5 c0 -5 -9 -10 -21 -10 -11 0 -17 5 -14
10 3 6 13 10 21 10 8 0 14 -4 14 -10z m4424 -14 c-3 -9 -10 -16 -15 -16 -14 0
-11 28 4 33 16 6 19 3 11 -17z m-4485 -13 c-7 -10 -23 -27 -35 -38 -13 -11
-24 -29 -26 -39 -2 -11 -9 -21 -17 -24 -8 -3 -11 0 -8 5 4 6 -2 19 -12 29 -17
18 -16 26 7 63 2 4 43 12 96 20 5 0 2 -7 -5 -16z m532 -35 c-28 -12 -31 -9
-29 22 l2 30 22 -22 c18 -20 19 -24 5 -30z m-861 33 c0 -12 -20 -25 -27 -18
-7 7 6 27 18 27 5 0 9 -4 9 -9z m920 -8 c0 -14 -19 -38 -25 -32 -8 8 5 39 16
39 5 0 9 -3 9 -7z m-973 -40 c-9 -9 -19 -14 -23 -11 -10 10 6 28 24 28 15 0
15 -1 -1 -17z m933 -14 c0 -6 -8 -13 -18 -16 -10 -2 -19 -14 -19 -25 -3 -30
-23 -48 -23 -20 0 15 -5 20 -15 16 -8 -4 -15 -1 -15 4 0 6 9 14 20 17 11 3 20
10 20 15 0 7 17 15 43 19 4 0 7 -4 7 -10z m-949 -34 c10 4 19 2 19 -4 0 -5
-10 -11 -22 -13 -15 -2 -22 -9 -20 -20 1 -9 -7 -22 -18 -28 -20 -11 -30 3 -10
15 5 3 7 12 3 20 -3 8 0 15 6 15 6 0 12 10 12 23 1 17 2 18 6 4 3 -12 10 -16
24 -12z m131 -20 c-4 -24 -21 -33 -35 -18 -7 6 22 41 34 42 3 1 4 -10 1 -24z
m-62 5 c0 -5 -10 -10 -22 -10 -19 0 -20 2 -8 10 19 13 30 13 30 0z m396 -21
c15 -17 15 -19 1 -19 -9 0 -19 5 -22 10 -8 14 -62 13 -71 -1 -12 -20 -153 -80
-208 -89 -29 -4 -99 -30 -157 -55 -82 -38 -260 -105 -276 -105 -2 0 -3 4 -3 9
0 5 30 19 68 31 90 30 202 81 202 93 0 5 -7 4 -15 -3 -13 -11 -15 -8 -15 14 0
30 23 35 50 11 15 -14 22 -13 64 5 26 11 61 20 77 20 29 0 162 53 189 76 41
35 86 36 116 3z m415 -56 c-10 -17 -10 -16 -11 3 0 23 13 41 18 25 2 -6 -1
-18 -7 -28z m-878 6 c7 -25 -17 -37 -38 -19 -15 13 -10 35 6 25 5 -4 9 -1 9 4
0 19 18 12 23 -10z m-73 -34 c-7 -9 -15 -13 -18 -10 -3 2 1 11 8 20 7 9 15 13
18 10 3 -2 -1 -11 -8 -20z m-40 -26 c-7 -11 -14 -18 -17 -15 -8 8 5 36 17 36
7 0 7 -6 0 -21z m-202 -10 c-2 -6 -8 -10 -13 -10 -5 0 -11 4 -13 10 -2 6 4 11
13 11 9 0 15 -5 13 -11z m54 -11 c-11 -11 -32 -3 -32 12 0 4 9 6 21 3 13 -4
17 -9 11 -15z m58 12 c0 -5 -9 -10 -21 -10 -11 0 -17 5 -14 10 3 6 13 10 21
10 8 0 14 -4 14 -10z m50 -10 c8 -5 12 -12 9 -15 -8 -8 -39 5 -39 16 0 11 11
11 30 -1z m-72 -37 c-2 -10 3 -23 12 -30 13 -11 12 -12 -7 -13 -13 0 -23 5
-23 10 0 6 -12 15 -27 21 -17 7 -23 13 -15 16 7 3 19 0 26 -6 10 -9 15 -8 20
4 8 21 18 19 14 -2z m952 -38 c7 -8 8 -15 2 -15 -5 0 -15 7 -22 15 -7 8 -8 15
-2 15 5 0 15 -7 22 -15z m34 -50 c4 -14 11 -23 16 -20 5 3 11 1 15 -5 3 -5 -1
-10 -10 -10 -9 0 -14 -4 -10 -9 3 -5 1 -12 -3 -15 -8 -4 -32 56 -32 78 0 17
19 3 24 -19z m-309 -15 c-3 -5 -14 -10 -23 -11 -11 0 -12 -3 -4 -6 17 -7 15
-23 -3 -23 -13 0 -14 -4 -5 -20 15 -29 -5 -25 -24 5 -21 32 -20 40 7 53 28 14
60 15 52 2z m495 -59 c0 -10 -30 -24 -37 -17 -3 3 -2 9 2 15 8 13 35 15 35 2z
m50 -16 c14 -16 10 -18 -14 -9 -9 3 -16 10 -16 15 0 14 16 11 30 -6z m28 -53
c6 -18 -15 -14 -22 4 -4 10 -1 14 6 12 6 -2 14 -10 16 -16z m551 -28 c3 -16 1
-17 -13 -5 -19 16 -21 34 -3 29 6 -3 14 -13 16 -24z m-521 -49 c-11 -12 -38 8
-38 28 l0 21 22 -21 c12 -13 19 -25 16 -28z m62 -44 c0 -17 -18 -21 -24 -6 -3
9 0 15 9 15 8 0 15 -4 15 -9z m-179 -37 c12 -14 11 -16 -5 -13 -11 2 -21 10
-24 17 -5 17 13 15 29 -4z m207 -3 c3 -8 -1 -12 -9 -9 -7 2 -15 10 -17 17 -3
8 1 12 9 9 7 -2 15 -10 17 -17z m-162 -45 c1 -16 7 -32 15 -37 11 -6 11 -11 2
-20 -18 -18 -27 -4 -27 36 0 19 -4 35 -8 35 -4 0 -8 5 -8 11 0 24 25 0 26 -25z
m204 -8 c0 -6 -7 -5 -15 2 -8 7 -15 17 -15 22 0 6 7 5 15 -2 8 -7 15 -17 15
-22z m-150 7 c-7 -8 -16 -15 -21 -15 -5 0 -6 7 -3 15 4 8 13 15 21 15 13 0 13
-3 3 -15z m200 -37 c0 -6 -7 -5 -15 2 -8 7 -15 17 -15 22 0 6 7 5 15 -2 8 -7
15 -17 15 -22z m56 -25 c-8 -8 -36 5 -36 17 0 7 6 7 21 0 11 -7 18 -14 15 -17z
m-336 -7 c0 -9 -30 -14 -35 -6 -4 6 3 10 14 10 12 0 21 -2 21 -4z m390 -6 c0
-5 -6 -10 -14 -10 -8 0 -18 5 -21 10 -3 6 3 10 14 10 12 0 21 -4 21 -10z m90
-29 c-11 -7 -20 -20 -20 -27 0 -8 -5 -14 -11 -14 -7 0 -9 10 -5 24 5 20 1 26
-16 32 -22 7 -21 8 7 14 17 3 38 1 48 -5 17 -9 17 -11 -3 -24z m71 19 c5 0 9
-9 9 -20 0 -11 -4 -20 -10 -20 -5 0 -10 7 -10 15 0 8 -7 15 -15 15 -8 0 -15 5
-15 11 0 6 7 8 16 5 9 -3 20 -6 25 -6z m59 -10 c0 -5 -9 -10 -20 -10 -11 0
-20 5 -20 10 0 6 9 10 20 10 11 0 20 -4 20 -10z m60 -8 c0 -9 -35 -31 -49 -32
-11 0 -12 3 -4 11 6 6 9 17 7 24 -4 9 3 11 20 8 14 -3 26 -8 26 -11z m110 -2
c12 -8 11 -10 -7 -10 -13 0 -23 5 -23 10 0 13 11 13 30 0z m-50 -10 c0 -5 -6
-10 -14 -10 -8 0 -18 5 -21 10 -3 6 3 10 14 10 12 0 21 -4 21 -10z m110 -10
c0 -5 -6 -10 -14 -10 -8 0 -18 5 -21 10 -3 6 3 10 14 10 12 0 21 -4 21 -10z
m39 -46 c3 -16 1 -17 -13 -5 -19 16 -21 34 -3 29 6 -3 14 -13 16 -24z m-482
-8 c17 -14 35 -43 42 -68 7 -24 15 -51 17 -60 3 -10 1 -18 -5 -18 -6 0 -17 24
-26 54 -9 29 -27 63 -40 76 -24 22 -27 23 -82 10 -32 -7 -64 -15 -70 -17 -7
-3 -13 0 -13 5 0 12 81 39 122 41 15 1 39 -10 55 -23z m517 -32 c4 -10 1 -14
-6 -12 -15 5 -23 28 -10 28 5 0 13 -7 16 -16z m85 -28 c13 -53 14 -106 2 -106
-4 0 -11 24 -14 53 -4 28 -9 62 -13 75 -3 12 -2 22 4 22 5 0 15 -20 21 -44z
m-65 -22 c8 -21 8 -24 -3 -24 -5 0 -11 9 -14 20 -6 24 8 27 17 4z m-1273 -26
c10 -24 21 -34 42 -36 23 -3 28 0 25 15 -2 11 5 22 17 28 16 9 24 6 42 -15
l22 -25 1 24 c0 19 3 21 14 12 12 -10 19 -8 35 8 11 11 23 16 26 12 3 -5 14
-7 25 -4 11 3 20 0 20 -6 0 -6 -9 -11 -20 -11 -25 0 -73 -21 -83 -37 -11 -18
-27 -16 -50 5 -11 9 -18 12 -14 6 7 -12 -33 -34 -61 -34 -10 0 -24 -6 -31 -12
-11 -11 -12 -9 -6 10 3 12 3 22 -2 22 -4 0 -13 16 -19 35 -14 44 -2 46 17 3z
m1279 -25 c0 -5 -5 -15 -10 -23 -8 -12 -10 -11 -10 8 0 12 5 22 10 22 6 0 10
-3 10 -7z m2490 -60 c7 -32 20 -84 31 -116 10 -32 16 -66 13 -75 -5 -14 -4
-15 5 -2 5 8 13 11 17 7 4 -4 -2 -17 -13 -30 -11 -12 -19 -30 -18 -39 2 -10 0
-18 -4 -18 -4 0 -7 -10 -8 -21 -1 -12 -7 -27 -14 -33 -9 -8 -10 -6 -5 8 6 18
5 19 -11 4 -10 -8 -31 -20 -48 -26 -16 -6 -23 -11 -14 -11 9 -1 20 -8 23 -17
9 -24 7 -28 -9 -14 -12 10 -15 10 -15 -3 0 -18 -27 -30 -35 -17 -4 6 -1 10 4
10 6 0 11 9 11 20 0 11 -4 20 -9 20 -5 0 -12 14 -16 30 -6 29 -19 36 -48 24
-12 -4 -13 -12 -7 -35 7 -22 6 -29 -3 -26 -12 4 -75 250 -76 300 -1 33 -16 36
-26 5 -3 -13 -9 -18 -11 -11 -10 22 16 53 43 53 14 0 31 7 37 16 11 15 129 51
173 53 18 1 23 -7 33 -56z m-2519 -16 c-16 -16 -26 0 -10 19 9 11 15 12 17 4
2 -6 -1 -17 -7 -23z m2595 -2 c-3 -9 3 -19 14 -25 11 -6 20 -15 20 -21 0 -6
-9 -5 -22 3 -13 7 -29 11 -35 10 -16 -3 -16 3 -3 29 12 22 35 26 26 4z m-3546
-25 c0 -14 -67 -40 -101 -40 -19 0 -29 -5 -29 -15 0 -8 -4 -15 -10 -15 -5 0
-10 4 -10 9 0 4 -19 13 -42 18 l-43 10 28 13 c24 12 30 12 37 0 7 -12 12 -11
29 4 12 11 21 14 21 8 0 -7 14 -12 30 -12 17 0 30 5 30 11 0 5 4 7 10 4 5 -3
18 -1 27 4 23 13 23 13 23 1z m-866 -96 c-4 -22 0 -49 10 -74 10 -24 15 -65
14 -103 l-1 -62 -7 60 c-4 33 -14 79 -23 103 -9 24 -14 55 -11 71 4 16 1 32
-5 35 -6 4 -9 12 -5 17 13 22 34 -13 28 -47z m4045 14 c1 -5 -6 -8 -14 -8 -8
0 -15 -5 -15 -12 0 -6 -8 -20 -17 -30 -13 -14 -14 -21 -5 -30 18 -18 14 -25
-13 -25 -21 0 -24 3 -19 21 3 11 12 28 18 36 7 8 20 33 30 55 16 35 19 38 27
20 4 -11 8 -23 8 -27z m402 9 c-8 -8 -11 -7 -11 4 0 20 13 34 18 19 3 -7 -1
-17 -7 -23z m-2761 13 c0 -6 -7 -13 -17 -17 -9 -3 -32 -24 -51 -45 -19 -21
-36 -37 -38 -35 -8 8 22 57 37 62 9 3 24 14 34 25 20 22 35 26 35 10z m138
-55 c47 -59 97 -84 135 -64 13 8 22 8 30 0 14 -14 -16 -26 -72 -26 -40 0 -47
4 -93 55 -59 66 -74 90 -56 90 7 0 32 -25 56 -55z m-2028 27 c0 -9 -113 -72
-129 -72 -26 0 -7 18 52 47 66 34 77 37 77 25z m4631 -35 c-8 -8 -11 -7 -11 4
0 20 13 34 18 19 3 -7 -1 -17 -7 -23z m-3006 13 c-3 -5 -13 -10 -21 -10 -8 0
-14 5 -14 10 0 6 9 10 21 10 11 0 17 -4 14 -10z m45 -10 c8 -5 11 -12 7 -16
-4 -4 -15 0 -24 9 -18 18 -8 23 17 7z m115 -9 c-3 -6 -14 -11 -23 -11 -15 1
-15 2 2 15 21 16 32 13 21 -4z m-1505 -1 c0 -5 -9 -10 -20 -10 -11 0 -20 5
-20 10 0 6 9 10 20 10 11 0 20 -4 20 -10z m1455 -10 c-3 -5 -12 -10 -20 -10
-8 0 -17 5 -20 10 -4 6 5 10 20 10 15 0 24 -4 20 -10z m2425 -73 c0 -2 -8 -13
-17 -23 -20 -21 -47 -30 -41 -14 2 7 7 10 11 8 5 -2 13 5 18 15 9 14 29 24 29
14z m-3556 -49 c5 -4 14 -4 18 -2 4 3 16 0 25 -5 16 -9 16 -10 -4 -11 -13 0
-23 -4 -23 -10 0 -19 -16 -10 -33 19 -9 16 -17 35 -17 43 0 7 5 4 12 -7 6 -11
16 -23 22 -27z m3516 -59 c0 -9 10 -24 23 -33 21 -15 20 -15 -22 -9 -47 6 -48
4 -26 -49 4 -10 3 -18 -3 -18 -13 0 -36 66 -27 80 3 5 13 10 21 10 12 0 14 8
9 38 -6 35 -5 36 9 18 9 -11 16 -27 16 -37z m-3424 4 c-4 -4 -11 -1 -16 7 -16
25 -11 35 7 17 9 -9 13 -20 9 -24z m64 -13 c20 -15 21 -19 8 -20 -9 0 -20 5
-23 10 -4 6 -16 8 -27 4 -17 -5 -20 -3 -15 11 4 9 7 21 7 26 0 6 5 6 13 -1 6
-5 23 -19 37 -30z m3780 25 c0 -13 -35 -75 -43 -75 -5 0 -7 3 -5 8 3 4 10 22
17 40 7 17 17 32 22 32 5 0 9 -2 9 -5z m350 -26 c0 -22 5 -32 20 -36 35 -9 22
-26 -15 -19 -25 5 -35 3 -35 -5 0 -7 -10 -23 -22 -37 -20 -21 -21 -25 -8 -35
9 -8 14 -24 12 -46 -3 -24 0 -31 9 -25 9 5 11 1 7 -14 -4 -14 -2 -20 5 -15 7
4 8 0 4 -11 -4 -10 -7 -24 -7 -32 0 -9 -4 -12 -10 -9 -5 3 -10 16 -10 28 0 13
-24 43 -62 80 -35 33 -70 70 -79 84 l-16 24 -21 -26 c-11 -14 -23 -22 -26 -17
-2 4 6 21 18 37 21 26 26 28 40 16 14 -12 19 -11 36 4 11 10 20 13 20 8 0 -6
-7 -16 -15 -23 -21 -17 -19 -23 13 -56 37 -38 77 -62 70 -42 -16 40 -18 57 -8
63 5 3 10 15 10 26 0 10 5 19 10 19 6 0 10 8 10 19 0 10 7 24 15 31 8 7 15 19
15 26 0 8 5 14 10 14 6 0 10 -14 10 -31z m-3567 -157 c14 -15 30 -22 44 -19
32 6 29 -5 -7 -25 -17 -9 -30 -25 -30 -34 0 -10 -9 -27 -20 -39 l-20 -22 27
-36 c32 -42 62 -47 121 -20 20 9 40 15 45 15 4 -1 4 17 1 39 -5 31 -4 40 4 35
7 -4 12 -16 12 -27 0 -13 4 -18 12 -13 8 5 9 2 5 -9 -5 -12 -1 -17 12 -17 28
0 31 22 11 68 -13 30 -25 42 -40 42 -11 0 -20 7 -20 15 0 18 2 18 34 4 13 -7
30 -24 36 -40 7 -16 16 -26 21 -23 5 3 6 -2 3 -10 -3 -8 3 -19 15 -26 23 -12
29 -66 11 -101 -15 -28 -68 -26 -72 2 -4 31 -36 49 -51 29 -8 -10 -31 -16 -62
-16 -27 -1 -62 -5 -77 -9 -18 -5 -28 -3 -28 4 0 6 5 11 11 11 5 0 7 5 3 11
-14 23 -28 -11 -25 -63 3 -60 -6 -59 -20 3 -8 33 -7 45 5 58 13 14 14 23 4 49
-10 26 -9 34 5 50 9 10 17 27 17 38 0 11 5 25 10 30 7 7 2 18 -15 34 -26 24
-31 54 -17 100 6 21 8 18 10 -20 2 -29 11 -53 25 -68z m125 84 c-4 -18 0 -26
14 -29 19 -5 26 -37 8 -37 -5 0 -10 5 -10 10 0 6 -7 10 -15 10 -10 0 -15 11
-15 35 0 19 5 35 11 35 7 0 9 -10 7 -24z m3033 -29 c-8 -8 -11 -7 -11 4 0 20
13 34 18 19 3 -7 -1 -17 -7 -23z m-1 -47 c0 -11 -4 -20 -10 -20 -5 0 -10 9
-10 20 0 11 5 20 10 20 6 0 10 -9 10 -20z m-4336 -55 c41 -18 41 -17 20 -51
-9 -13 -14 -27 -11 -31 4 -3 -1 -11 -9 -18 -14 -10 -14 -15 -4 -34 6 -13 9
-34 6 -47 -6 -21 -1 -27 31 -40 50 -22 309 -207 294 -212 -6 -2 -65 35 -131
82 -133 95 -169 116 -200 116 -19 0 -20 -6 -20 -95 0 -52 -3 -95 -6 -95 -3 0
-11 6 -18 13 -19 19 -136 168 -136 173 0 18 27 -7 79 -72 59 -74 61 -75 61
-45 0 25 -4 31 -22 32 -15 0 -18 2 -8 6 8 3 21 12 28 21 14 18 16 62 3 62 -16
0 2 105 27 154 24 47 24 50 6 63 -10 7 -21 13 -26 13 -4 0 -8 5 -8 10 0 13 1
13 44 -5z m4329 -9 c-5 -26 -38 -66 -53 -66 -15 0 -12 7 15 34 14 14 25 32 25
41 0 8 4 15 9 15 4 0 6 -11 4 -24z m-63 -15 c-6 -12 -16 -19 -21 -15 -6 4 -4
13 7 25 21 24 29 18 14 -10z m-30 -40 c0 -5 -7 -14 -15 -21 -12 -10 -15 -10
-15 2 0 8 3 18 7 21 9 10 23 9 23 -2z m-53 -59 c-10 -10 -17 -24 -17 -30 0 -7
-10 -12 -22 -12 l-23 1 23 18 c12 11 22 24 22 29 0 11 22 22 29 16 2 -2 -3
-12 -12 -22z m243 -12 c0 -5 -10 -10 -22 -10 -21 -1 -22 -2 -6 -14 18 -13 42
-96 27 -96 -4 0 -11 16 -15 35 -4 24 -18 45 -42 65 l-37 30 48 0 c26 0 47 -4
47 -10z m-325 -39 c-3 -6 -14 -11 -23 -11 -15 1 -15 2 2 15 21 16 32 13 21 -4z
m-55 -26 c-7 -8 -17 -15 -22 -15 -6 0 -5 7 2 15 7 8 17 15 22 15 6 0 5 -7 -2
-15z m934 -4 c-13 -12 -215 -64 -222 -57 -9 10 -1 13 113 44 107 28 129 31
109 13z m-974 -30 c0 -5 -7 -11 -15 -15 -15 -5 -20 5 -8 17 9 10 23 9 23 -2z
m-50 -30 c0 -11 -31 -24 -39 -16 -3 3 1 10 9 15 19 12 30 12 30 1z m-2460 -32
c0 -6 -7 -6 -20 1 -11 6 -20 15 -20 21 0 6 7 6 20 -1 11 -6 20 -15 20 -21z
m2400 22 c0 -12 -20 -25 -27 -18 -7 7 6 27 18 27 5 0 9 -4 9 -9z m580 -11 c0
-5 -14 -19 -31 -31 -19 -13 -29 -17 -25 -8 3 8 9 21 12 29 6 17 44 25 44 10z
m249 -15 c66 -39 81 -58 100 -129 11 -41 29 -79 44 -94 l25 -25 30 34 c17 19
36 51 43 71 15 47 42 73 66 63 17 -7 16 -8 -3 -17 -12 -5 -32 -31 -44 -58 -27
-57 -97 -132 -146 -155 -50 -24 -344 -88 -374 -81 -14 3 -53 13 -88 22 -34 9
-64 15 -66 13 -6 -6 38 -201 51 -224 6 -11 16 -58 22 -105 7 -47 16 -101 21
-120 37 -142 85 -338 99 -407 9 -45 20 -85 23 -88 12 -13 88 24 158 78 79 60
109 97 130 162 21 68 49 103 151 191 86 75 128 125 185 220 7 10 15 16 19 12
11 -10 -59 -120 -109 -171 l-42 -44 23 -27 c23 -27 23 -27 55 -9 18 10 65 20
105 23 83 6 87 1 70 -74 -11 -48 -16 -52 -47 -36 -22 12 -50 3 -50 -16 0 -10
-12 -14 -39 -14 -22 0 -43 -4 -46 -10 -13 -21 -31 -9 -47 33 -10 23 -18 49
-18 57 0 23 -37 42 -59 31 -40 -22 -118 -120 -130 -164 -7 -24 -25 -63 -40
-86 -31 -46 -154 -143 -219 -173 -42 -19 -44 -21 -37 -55 3 -19 9 -41 12 -49
3 -8 -1 -14 -10 -14 -10 0 -17 15 -21 45 -8 53 -17 55 -113 26 -78 -24 -123
-51 -145 -88 -16 -28 -16 -30 14 -78 27 -43 32 -47 42 -32 11 14 15 13 38 -13
18 -21 31 -27 47 -23 11 3 21 1 21 -5 0 -5 -9 -12 -20 -15 -11 -3 -23 -12 -26
-21 -8 -21 23 -57 42 -49 8 3 14 -1 14 -8 0 -7 12 -26 27 -41 19 -20 37 -28
62 -28 34 -1 35 -1 13 -13 l-23 -13 24 -22 c13 -12 27 -19 30 -15 4 3 7 1 7
-5 0 -6 -4 -14 -10 -17 -5 -3 -10 -16 -10 -28 0 -18 -2 -19 -10 -7 -5 8 -10
25 -10 37 0 24 -115 130 -136 125 -7 -1 -15 7 -19 18 -4 11 -11 18 -16 15 -5
-4 -9 3 -9 14 0 11 -4 23 -10 26 -5 3 -10 2 -10 -4 0 -5 -9 -13 -20 -16 -11
-3 -20 -13 -20 -21 0 -8 -4 -14 -10 -14 -5 0 -10 4 -10 9 0 5 -3 17 -6 26 -5
12 -2 16 12 13 14 -2 20 4 22 24 3 22 0 27 -12 22 -9 -3 -16 -2 -16 4 0 6 4
12 9 14 4 2 -4 23 -19 47 l-27 43 -31 -44 c-16 -24 -46 -53 -66 -63 -20 -11
-36 -27 -35 -35 3 -29 -1 -34 -14 -16 -12 16 -20 17 -60 8 -27 -5 -50 -6 -53
-1 -6 10 0 12 61 29 62 16 117 51 149 97 28 41 28 43 12 68 -14 21 -20 23 -36
15 -27 -14 -207 -13 -193 1 7 7 44 11 92 10 45 -1 91 4 103 10 18 10 24 8 39
-12 l17 -23 50 45 c40 36 66 50 141 72 75 23 91 31 87 45 -2 9 -10 41 -16 70
-7 28 -15 54 -20 57 -4 2 -90 -16 -191 -40 -101 -25 -197 -44 -214 -43 -30 2
-280 -57 -304 -71 -21 -13 0 -74 30 -82 l24 -7 -23 -7 c-15 -5 -21 -13 -18
-24 15 -49 17 -71 8 -71 -5 0 -14 17 -19 38 -9 37 -10 37 -56 35 -61 -4 -100
-28 -91 -57 7 -21 7 -21 -15 -2 l-22 20 28 22 c15 13 54 29 86 35 45 9 56 15
53 28 -3 9 -8 28 -11 42 l-7 26 -131 -33 c-140 -35 -161 -39 -153 -26 3 5 73
26 156 48 85 22 149 43 147 49 -2 5 -15 54 -28 108 -26 108 -21 104 -111 83
-32 -8 -60 -10 -63 -6 -6 9 44 26 108 36 20 4 37 8 37 9 0 2 -13 62 -30 135
-34 152 -33 140 -21 140 5 0 21 -53 36 -117 38 -166 32 -154 63 -147 15 4 37
12 49 20 12 7 69 25 127 40 71 18 106 31 106 40 0 38 -60 215 -73 214 -1 0
-27 -7 -57 -15 -62 -17 -114 -20 -105 -6 3 5 20 12 38 16 17 4 135 32 260 62
126 30 231 52 234 49 10 -9 8 -10 -172 -56 -93 -23 -171 -44 -173 -45 -2 -1 6
-22 17 -46 28 -63 124 -397 118 -413 -17 -45 31 -39 316 35 45 12 46 18 13
154 -36 147 -41 158 -67 145 -11 -7 -24 -8 -27 -4 -4 4 -2 9 4 11 42 15 44 23
25 123 -10 52 -17 99 -15 105 3 6 -2 27 -10 46 -7 18 -22 72 -31 119 -9 47
-18 86 -19 87 -1 2 -72 -13 -156 -33 -135 -32 -159 -34 -193 -24 -33 10 -42
19 -64 66 -14 31 -22 58 -18 62 4 4 10 1 12 -6 3 -6 15 -31 27 -54 34 -65 53
-67 242 -22 180 43 199 45 282 20 l60 -19 123 28 c167 36 224 53 249 73 l21
17 -29 35 c-18 21 -35 58 -43 93 -13 59 -16 63 -88 110 -19 12 -36 28 -39 36
-5 15 -2 14 47 -14z m-874 -5 c-3 -5 -13 -10 -21 -10 -8 0 -12 5 -9 10 3 6 13
10 21 10 8 0 12 -4 9 -10z m-2291 -49 c-6 -7 -44 31 -44 43 0 6 11 -1 24 -14
13 -14 22 -27 20 -29z m2239 14 c-5 -13 -23 -22 -23 -11 0 15 14 35 21 31 4
-3 6 -12 2 -20z m702 14 c11 -17 0 -20 -21 -4 -17 13 -17 14 -2 15 9 0 20 -5
23 -11z m38 -39 c3 -11 1 -20 -4 -20 -5 0 -9 2 -9 4 0 2 -3 11 -6 20 -3 9 -2
16 4 16 5 0 12 -9 15 -20z m-773 -25 c-7 -8 -17 -15 -22 -15 -6 0 -5 7 2 15 7
8 17 15 22 15 6 0 5 -7 -2 -15z m-1480 -19 c0 -2 -21 -20 -47 -39 -43 -32 -57
-53 -138 -216 -49 -100 -95 -181 -102 -181 -7 0 -13 3 -13 6 0 4 43 90 95 193
85 165 101 190 137 214 38 24 68 34 68 23z m1440 -5 c0 -5 -7 -14 -15 -21 -12
-10 -15 -10 -15 2 0 8 3 18 7 21 9 10 23 9 23 -2z m830 -12 c0 -11 -4 -17 -10
-14 -5 3 -10 13 -10 21 0 8 5 14 10 14 6 0 10 -9 10 -21z m-3167 -26 c11 -20
17 -83 7 -83 -5 0 -10 7 -10 16 0 9 -10 24 -22 35 -28 22 -45 25 -28 4 7 -8 9
-15 4 -15 -11 1 -44 25 -44 33 0 13 86 22 93 10z m2297 -3 c0 -5 -9 -14 -20
-20 -16 -9 -20 -8 -20 5 0 9 4 14 9 10 5 -3 12 -1 16 5 8 13 15 13 15 0z
m1397 -12 c-3 -8 -6 -5 -6 6 -1 11 2 17 5 13 3 -3 4 -12 1 -19z m-497 2 c0 -5
-4 -10 -10 -10 -5 0 -10 -7 -10 -16 0 -14 -2 -14 -17 1 -14 14 -14 18 -2 26
19 12 39 11 39 -1z m-4150 -31 c0 -5 -7 -9 -15 -9 -15 0 -20 12 -9 23 8 8 24
-1 24 -14z m-117 -13 c10 3 17 1 17 -5 0 -6 -8 -12 -17 -13 -10 0 -23 -2 -30
-2 -6 -1 -15 -5 -19 -9 -11 -10 -34 -9 -34 3 0 6 9 10 19 10 10 0 22 8 25 17
5 13 9 14 15 5 4 -7 15 -10 24 -6z m77 4 c0 -5 -9 -10 -20 -10 -11 0 -20 5
-20 10 0 6 9 10 20 10 11 0 20 -4 20 -10z m920 -4 c0 -2 -9 -6 -20 -9 -11 -3
-20 -1 -20 4 0 5 9 9 20 9 11 0 20 -2 20 -4z m55 -16 c3 -5 -1 -10 -9 -10 -8
0 -18 5 -21 10 -3 6 1 10 9 10 8 0 18 -4 21 -10z m3732 -12 c-3 -8 -6 -5 -6 6
-1 11 2 17 5 13 3 -3 4 -12 1 -19z m-3846 -5 c-7 -13 -5 -21 7 -30 15 -11 15
-12 -5 -13 -14 0 -23 -6 -23 -15 0 -8 -5 -15 -11 -15 -7 0 -9 8 -4 23 3 12 9
32 12 45 3 12 12 22 20 22 10 0 11 -4 4 -17z m2409 -3 c-6 -11 -15 -20 -20
-20 -14 0 -12 6 6 24 21 22 27 20 14 -4z m-3434 -15 c4 -14 3 -29 0 -33 -4 -3
-9 3 -12 15 -4 15 -12 19 -27 16 -22 -4 -22 -4 -3 11 27 22 35 20 42 -9z
m-130 -32 c-9 -9 -38 26 -31 38 5 6 13 3 22 -11 8 -12 13 -24 9 -27z m3524
-14 c-7 -11 -14 -18 -17 -15 -8 8 5 36 17 36 7 0 7 -6 0 -21z m1509 -29 c0 -9
-4 -8 -9 5 -5 11 -9 27 -9 35 0 9 4 8 9 -5 5 -11 9 -27 9 -35z m-4929 -65 c16
-16 40 -46 54 -65 76 -105 82 -118 95 -207 14 -97 35 -170 55 -198 17 -23 74
-14 113 19 33 28 73 42 73 27 0 -6 -4 -11 -8 -11 -5 0 -29 -14 -55 -31 -54
-35 -105 -46 -128 -27 -23 18 -48 97 -64 206 -15 93 -31 138 -59 161 -14 12
-16 10 -16 -13 0 -14 -4 -26 -10 -26 -5 0 -10 20 -10 44 0 39 -6 52 -54 108
-57 68 -79 102 -69 111 3 3 17 -11 30 -31 14 -20 38 -50 53 -67z m1108 87 c2
-7 -2 -10 -12 -6 -9 3 -16 11 -16 16 0 13 23 5 28 -10z m-66 -37 c-2 -14 -8
-25 -13 -25 -14 0 -11 38 4 43 6 3 13 6 13 6 1 1 -1 -10 -4 -24z m120 3 c-11
-11 -32 -3 -32 12 0 4 9 6 21 3 13 -4 17 -9 11 -15z m2228 -3 c-7 -8 -17 -15
-22 -15 -6 0 -5 7 2 15 7 8 17 15 22 15 6 0 5 -7 -2 -15z m-3640 -45 c0 -11
-4 -20 -9 -20 -5 0 -7 9 -4 20 3 11 7 20 9 20 2 0 4 -9 4 -20z m1310 -22 c0
-5 -4 -8 -10 -8 -5 0 -10 10 -10 23 0 18 2 19 10 7 5 -8 10 -18 10 -22z m2300
23 c0 -12 -20 -25 -27 -18 -7 7 6 27 18 27 5 0 9 -4 9 -9z m-50 -30 c0 -5 -7
-11 -15 -15 -15 -5 -20 5 -8 17 9 10 23 9 23 -2z m-2793 -90 c-6 -78 -36 -147
-70 -161 -37 -16 -149 -41 -155 -36 -9 10 2 15 69 32 35 9 74 22 86 30 25 16
53 102 53 163 0 24 5 41 11 41 9 0 10 -20 6 -69z m553 43 c0 -8 -4 -14 -10
-14 -5 0 -10 9 -10 21 0 11 5 17 10 14 6 -3 10 -13 10 -21z m2176 11 c-11 -8
-22 -12 -25 -9 -6 6 19 24 34 24 6 -1 1 -7 -9 -15z m-3750 -22 c-7 -7 -26 7
-26 19 0 6 6 6 15 -2 9 -7 13 -15 11 -17z m3701 -10 c-9 -9 -20 -13 -24 -9 -4
4 -1 11 7 16 25 16 35 11 17 -7z m-2137 -33 c0 -11 -4 -20 -10 -20 -5 0 -10 9
-10 20 0 11 5 20 10 20 6 0 10 -9 10 -20z m2100 0 c0 -5 -8 -10 -17 -10 -14 0
-15 -2 -5 -9 12 -7 11 -14 -2 -39 -9 -17 -16 -37 -16 -44 -1 -7 -35 -29 -77
-48 -97 -45 -94 -44 -88 -28 3 7 35 26 71 42 52 24 69 37 84 67 14 26 16 39 8
41 -19 7 -1 38 22 38 11 0 20 -4 20 -10z m-3646 -55 c-3 -7 4 -23 16 -35 27
-27 18 -40 -10 -15 -23 20 -34 50 -25 65 9 15 25 2 19 -15z m2246 -49 c-21
-41 -46 -89 -55 -106 -31 -60 -33 -19 -2 48 45 96 67 132 83 132 9 0 1 -24
-26 -74z m3217 37 c-3 -10 -5 -4 -5 12 0 17 2 24 5 18 2 -7 2 -21 0 -30z
m-3927 7 c0 -11 -4 -20 -10 -20 -5 0 -10 9 -10 20 0 11 5 20 10 20 6 0 10 -9
10 -20z m1860 -11 c0 -6 9 -9 20 -6 11 3 20 1 20 -4 0 -12 -38 -31 -43 -22
-12 23 -15 43 -7 43 6 0 10 -5 10 -11z m-2850 -16 c0 -62 56 -482 65 -491 2
-3 33 3 69 12 113 28 174 19 230 -32 l29 -27 -7 58 c-7 67 9 78 18 12 7 -44 7
-45 42 -39 26 4 34 2 34 -9 0 -19 -29 -30 -44 -18 -7 6 -17 6 -26 1 -12 -7 -5
-19 35 -59 l49 -51 23 22 c29 27 44 15 16 -14 l-22 -21 71 -78 c71 -78 126
-116 154 -105 10 4 13 13 8 31 -6 23 -3 25 26 25 17 0 29 -4 25 -10 -3 -5 -13
-6 -21 -3 -14 5 -14 3 -6 -14 8 -14 8 -23 0 -31 -9 -9 -8 -12 3 -13 7 -1 21
-3 29 -4 8 -1 27 -3 42 -4 19 -1 26 -5 22 -15 -7 -19 167 -101 203 -94 10 2
25 -4 33 -12 8 -8 49 -28 90 -44 89 -35 84 -32 76 -45 -6 -10 -153 38 -192 64
-11 7 -59 29 -106 49 -47 19 -101 44 -119 55 -46 28 -56 26 -64 -9 -4 -16 -11
-30 -17 -30 -6 0 -8 9 -5 21 7 26 -19 53 -66 68 -33 11 -83 57 -164 150 l-30
35 -31 -25 c-27 -21 -31 -30 -31 -76 -1 -41 3 -53 14 -53 8 0 15 -4 15 -8 0
-5 13 -7 29 -4 15 2 43 -4 60 -13 18 -9 41 -13 51 -10 13 4 28 -1 42 -15 l23
-21 -45 7 c-25 4 -58 13 -73 21 -16 8 -41 14 -55 13 -64 -4 -87 21 -80 86 l3
29 -119 7 c-117 8 -121 9 -153 40 -18 17 -35 29 -38 26 -7 -6 72 -79 153 -140
37 -29 62 -55 62 -67 0 -10 7 -35 15 -54 18 -44 18 -47 3 -47 -66 0 -129 -195
-71 -217 8 -3 12 -11 9 -18 -3 -8 4 -10 20 -7 13 2 31 -1 40 -9 21 -17 64 -21
64 -5 0 17 -24 38 -40 34 -7 -2 -15 3 -17 10 -3 7 1 11 9 10 7 -2 12 3 11 10
-5 20 18 14 24 -8 6 -23 35 -34 63 -25 15 5 19 12 15 26 -5 13 -2 19 7 17 17
-4 23 49 7 68 -16 20 -5 28 19 15 15 -8 22 -8 25 2 2 6 8 8 13 4 5 -5 -1 -17
-13 -27 -14 -11 -23 -29 -23 -47 0 -37 -24 -71 -53 -75 -14 -2 -23 -11 -25
-25 -2 -13 -8 -23 -15 -23 -6 0 -3 -6 6 -12 17 -14 14 -58 -5 -58 -5 0 -6 9
-3 21 5 16 3 20 -12 19 -31 -4 -39 0 -23 10 13 8 11 11 -7 16 -12 3 -24 12
-27 20 -6 16 -52 19 -60 5 -9 -14 21 -133 35 -142 7 -4 9 -14 6 -23 -4 -9 -2
-16 3 -16 5 0 10 -10 12 -22 2 -18 9 -23 31 -23 17 1 27 -4 27 -14 0 -7 7 -19
15 -25 12 -9 11 -14 -5 -35 -14 -16 -25 -21 -37 -15 -16 7 -15 8 5 11 29 6 28
29 -3 49 -20 13 -28 14 -40 4 -12 -10 -15 -6 -21 29 -7 44 -21 61 -34 41 -4
-7 -13 -9 -19 -6 -16 10 -14 26 3 26 24 0 28 17 16 78 -11 56 -13 59 -37 54
-18 -3 -24 -1 -19 7 4 6 14 11 23 11 11 0 14 6 9 23 -17 62 -18 136 -2 184 18
53 18 73 1 85 -15 11 9 30 28 22 9 -3 17 -10 17 -15 0 -5 7 -9 16 -9 12 0 15
6 10 23 -4 12 -9 35 -13 50 -4 20 -28 46 -82 88 -141 108 -179 162 -168 237 4
30 10 20 23 -43 7 -31 13 -39 28 -37 10 2 30 -8 45 -22 31 -30 93 -45 179 -46
62 0 78 11 43 30 -29 15 -36 65 -15 97 17 27 17 27 -21 60 -47 40 -84 48 -161
33 -32 -6 -106 -18 -164 -26 -101 -13 -107 -13 -157 7 -28 11 -54 27 -57 35
-6 15 13 54 26 54 5 0 8 6 8 13 0 7 14 18 32 25 34 12 47 5 48 -28 0 -8 3 -24
6 -36 3 -13 -1 -28 -11 -38 -26 -25 -12 -30 57 -20 74 11 70 -12 40 224 -32
252 -36 300 -23 300 6 0 11 -8 11 -17z m980 -20 c0 -14 -19 -38 -25 -32 -8 8
5 39 16 39 5 0 9 -3 9 -7z m3970 -28 c0 -5 -5 -3 -10 5 -5 8 -10 20 -10 25 0
6 5 3 10 -5 5 -8 10 -19 10 -25z m-2119 -8 c-8 -8 -11 -7 -11 4 0 20 13 34 18
19 3 -7 -1 -17 -7 -23z m-86 -7 c3 -6 17 -7 30 -4 12 3 26 1 29 -5 5 -7 -4
-11 -23 -11 -17 0 -31 -4 -31 -9 0 -5 -6 -11 -14 -14 -10 -4 -15 4 -18 24 -4
29 13 41 27 19z m-1796 -26 c-17 -21 -31 -17 -19 6 6 11 15 18 21 14 6 -4 6
-11 -2 -20z m-434 -4 c-3 -5 -13 -10 -21 -10 -8 0 -12 5 -9 10 3 6 13 10 21
10 8 0 12 -4 9 -10z m55 -10 c12 -8 11 -10 -7 -10 -13 0 -23 5 -23 10 0 13 11
13 30 0z m-116 -24 c-3 -9 -10 -13 -16 -10 -5 3 -4 12 3 20 15 18 22 13 13
-10z m176 14 c12 -8 9 -10 -13 -10 -16 0 -26 4 -22 10 8 12 16 12 35 0z m280
-15 c-7 -8 -17 -15 -22 -15 -6 0 -5 7 2 15 7 8 17 15 22 15 6 0 5 -7 -2 -15z
m366 -18 c-3 -18 -3 -36 0 -40 10 -10 34 4 34 21 0 12 3 13 11 5 18 -18 2 -43
-26 -43 -14 0 -25 -4 -25 -10 0 -5 -4 -10 -9 -10 -12 0 -22 44 -11 48 6 2 10
17 10 33 0 16 5 29 11 29 7 0 9 -12 5 -33z m1614 24 c0 -5 -7 -14 -15 -21 -12
-10 -15 -10 -15 2 0 8 3 18 7 21 9 10 23 9 23 -2z m-3350 -11 c0 -5 -9 -10
-21 -10 -11 0 -17 5 -14 10 3 6 13 10 21 10 8 0 14 -4 14 -10z m60 -15 c0 -3
-9 -5 -20 -5 -11 0 -20 7 -20 15 0 13 4 14 20 5 11 -6 20 -13 20 -15z m1087 8
c3 -7 -3 -9 -16 -6 -12 3 -21 10 -21 15 0 13 32 6 37 -9z m2013 2 c-7 -8 -17
-15 -22 -15 -6 0 -5 7 2 15 7 8 17 15 22 15 6 0 5 -7 -2 -15z m-84 -23 c-8 -9
-19 -13 -22 -9 -10 9 16 38 28 31 6 -4 4 -13 -6 -22z m-1874 -4 c-11 -11 -32
-3 -32 12 0 4 9 6 21 3 13 -4 17 -9 11 -15z m63 12 c4 -6 -6 -10 -22 -9 -25 0
-26 1 -8 9 11 5 21 9 22 9 1 1 5 -3 8 -9z m60 0 c-3 -5 -12 -10 -20 -10 -8 0
-17 5 -20 10 -4 6 5 10 20 10 15 0 24 -4 20 -10z m-1361 -16 c8 -21 8 -24 -3
-24 -5 0 -11 9 -14 20 -6 24 8 27 17 4z m926 9 c0 -14 -19 -38 -25 -32 -8 8 5
39 16 39 5 0 9 -3 9 -7z m2226 -23 c13 25 13 25 14 3 0 -27 -2 -27 43 -8 31
13 36 13 48 -1 7 -8 18 -13 26 -10 7 3 13 1 13 -5 0 -18 -31 -22 -47 -7 -13
14 -19 14 -54 -1 -30 -12 -43 -25 -55 -58 -13 -34 -22 -42 -49 -47 -18 -4 -35
-13 -38 -20 -3 -8 -24 -15 -46 -18 -40 -3 -40 -3 -47 35 -6 40 0 51 65 115 41
41 35 14 -8 -33 -22 -24 -41 -49 -41 -54 0 -5 12 -12 26 -15 19 -5 33 -1 48
13 26 25 40 27 32 6 -6 -17 -4 -18 18 -9 9 3 16 14 16 23 0 9 6 23 12 29 10
10 10 17 0 32 -6 10 -8 27 -4 37 6 15 7 14 10 -7 l4 -24 14 24z m181 3 c-9 -9
-20 -13 -24 -9 -4 4 -1 11 7 16 25 16 35 11 17 -7z m-3292 -33 c-3 -5 -13 -10
-21 -10 -8 0 -14 5 -14 10 0 6 9 10 21 10 11 0 17 -4 14 -10z m45 -5 c14 -16
10 -18 -14 -9 -9 3 -16 10 -16 15 0 14 16 11 30 -6z m60 -5 c0 -5 -10 -10 -22
-10 -19 0 -20 2 -8 10 19 13 30 13 30 0z m764 -5 c3 -8 1 -15 -3 -15 -5 0 -11
7 -15 15 -3 8 -1 15 3 15 5 0 11 -7 15 -15z m752 -2 c-4 -4 -58 -19 -119 -33
-80 -19 -111 -30 -109 -40 2 -7 6 -41 9 -76 5 -55 8 -63 30 -69 13 -3 28 -3
33 0 6 4 10 2 10 -4 0 -5 -5 -13 -11 -17 -8 -5 -6 -10 5 -16 18 -10 21 -45 6
-68 -8 -13 -10 -12 -10 3 0 9 -4 17 -10 17 -5 0 -10 7 -10 15 0 8 -4 15 -8 15
-5 0 -14 11 -20 25 -6 14 -19 25 -28 25 -11 0 -14 5 -9 18 10 25 10 31 1 90
-8 52 -9 53 -37 47 -18 -4 -29 -3 -29 4 0 6 9 11 20 11 10 0 24 8 29 18 7 11
13 13 18 6 6 -7 36 -4 103 11 100 24 148 30 136 18z m-787 -60 c37 -72 91
-116 172 -141 66 -21 82 -23 150 -14 89 11 171 -2 210 -33 33 -26 63 -105 56
-144 -4 -19 -1 -33 8 -41 21 -17 19 -23 -15 -42 -34 -19 -38 -14 -13 14 12 14
14 21 5 30 -6 6 -8 23 -5 39 11 56 -38 149 -78 149 -10 0 -30 5 -44 12 -19 8
-48 8 -117 0 -88 -11 -95 -10 -167 15 -83 29 -140 73 -172 135 -19 36 -24 58
-14 58 2 0 13 -17 24 -37z m76 17 c3 -5 -1 -10 -9 -10 -8 0 -18 5 -21 10 -3 6
1 10 9 10 8 0 18 -4 21 -10z m2531 -81 c10 -45 23 -83 31 -86 7 -3 43 2 79 11
64 16 110 14 98 -5 -3 -5 -10 -6 -16 -3 -14 9 -169 -29 -165 -41 17 -46 109
-466 104 -471 -4 -4 -8 -5 -10 -3 -4 5 -158 661 -157 672 0 4 4 7 9 7 5 0 17
-36 27 -81z m-2486 39 c0 -13 -23 -5 -28 10 -2 7 2 10 12 6 9 -3 16 -11 16
-16z m244 -20 c9 -34 7 -45 -7 -51 -9 -3 -12 7 -12 34 0 43 9 51 19 17z m-204
-13 c7 -8 8 -15 2 -15 -5 0 -15 7 -22 15 -7 8 -8 15 -2 15 5 0 15 -7 22 -15z
m48 -44 c3 -8 -1 -12 -9 -9 -7 2 -15 10 -17 17 -3 8 1 12 9 9 7 -2 15 -10 17
-17z m222 9 c12 -8 11 -10 -7 -10 -13 0 -23 5 -23 10 0 13 11 13 30 0z m65 -9
c-4 -13 0 -20 15 -24 11 -3 20 -11 20 -17 0 -9 -8 -7 -25 4 -13 9 -31 16 -40
16 -8 0 -15 5 -15 10 0 6 7 10 15 10 8 0 15 5 15 10 0 6 5 10 11 10 6 0 8 -8
4 -19z m-185 -16 c-7 -9 -15 -13 -18 -10 -3 2 1 11 8 20 7 9 15 13 18 10 3 -2
-1 -11 -8 -20z m-40 -5 c0 -5 -9 -10 -20 -10 -11 0 -20 5 -20 10 0 6 9 10 20
10 11 0 20 -4 20 -10z m1710 -140 c0 -5 -9 -10 -20 -10 -11 0 -20 5 -20 10 0
6 9 10 20 10 11 0 20 -4 20 -10z m-100 -17 c0 -7 -8 -13 -18 -13 -10 0 -31
-18 -48 -40 -16 -22 -32 -40 -36 -40 -13 0 -9 25 6 45 8 11 12 25 9 32 -4 9 0
11 11 7 9 -4 18 0 22 9 6 18 54 17 54 0z m144 8 c3 -5 -1 -11 -9 -15 -9 -3
-15 0 -15 9 0 16 16 20 24 6z m-1401 -21 c3 -11 1 -23 -4 -26 -5 -3 -9 6 -9
20 0 31 6 34 13 6z m3817 5 c-7 -8 -17 -15 -22 -15 -6 0 -5 7 2 15 7 8 17 15
22 15 6 0 5 -7 -2 -15z m-2510 -1 c0 -10 -52 -74 -61 -74 -11 0 43 79 54 80 4
0 7 -3 7 -6z m2475 -30 c29 11 23 -9 -6 -21 -32 -13 -55 -9 -31 6 7 4 12 12
11 17 -3 19 4 28 8 11 3 -10 11 -16 18 -13z m65 12 c0 -17 -14 -29 -23 -20 -8
8 3 34 14 34 5 0 9 -6 9 -14z m-3580 -10 c6 -8 18 -12 26 -9 8 3 14 -1 14 -11
0 -20 -33 -21 -50 -1 -7 8 -19 15 -27 15 -8 0 -11 5 -8 10 9 14 31 12 45 -4z
m1095 4 c-3 -5 -13 -10 -21 -10 -8 0 -12 5 -9 10 3 6 13 10 21 10 8 0 12 -4 9
-10z m-1175 -20 c-8 -5 -18 -6 -24 -3 -5 4 -1 10 10 13 24 9 34 2 14 -10z
m-1212 -32 c-3 -15 0 -28 6 -28 5 0 0 -9 -12 -20 -26 -25 -27 -28 -6 -51 9
-10 11 -19 5 -23 -5 -3 -18 5 -29 19 -11 14 -27 25 -36 25 -9 0 -16 5 -16 10
0 6 11 10 24 10 37 0 38 13 6 49 -17 18 -30 33 -30 34 0 1 21 2 46 2 44 1 46
0 42 -27z m1062 10 c0 -13 -23 -5 -28 10 -2 7 2 10 12 6 9 -3 16 -11 16 -16z
m1285 12 c3 -5 -1 -23 -9 -39 -20 -38 -23 -120 -5 -151 31 -56 80 -109 94
-104 12 5 14 0 9 -23 -5 -25 -1 -31 34 -50 21 -13 65 -26 97 -29 50 -6 60 -5
73 12 9 12 16 15 19 8 5 -14 84 3 95 20 5 7 8 4 8 -6 0 -12 -13 -21 -40 -28
-47 -13 -44 -35 3 -25 18 4 36 11 42 16 5 5 18 9 28 9 18 0 105 25 135 39 8 3
13 10 12 15 -2 9 19 26 33 26 19 0 -30 -61 -53 -66 -37 -8 -47 -11 -139 -38
-68 -21 -87 -23 -105 -14 -11 7 -51 13 -88 13 -83 2 -152 34 -182 86 -12 20
-38 56 -59 81 -32 39 -39 56 -46 116 -5 39 -13 77 -17 84 -6 10 -5 11 8 1 12
-11 17 -9 26 11 7 17 7 27 -1 35 -8 8 -7 11 5 11 9 0 20 -4 23 -10z m-2575
-20 c-16 -11 -40 -13 -40 -5 0 8 44 24 50 18 2 -2 -2 -8 -10 -13z m1395 10
c-3 -5 -13 -10 -21 -10 -8 0 -12 5 -9 10 3 6 13 10 21 10 8 0 12 -4 9 -10z
m-349 -20 c0 -11 -3 -20 -7 -20 -10 0 -19 27 -12 34 12 11 19 6 19 -14z m738
-6 c5 -17 0 -33 -14 -51 -13 -17 -18 -33 -14 -47 6 -20 5 -19 -20 4 -24 21
-25 26 -12 36 9 6 13 14 9 18 -4 4 3 9 15 13 12 3 22 12 22 19 0 17 -92 19
-139 3 -34 -12 -81 -5 -81 12 0 6 13 7 33 4 17 -4 43 -2 57 4 14 5 50 10 81
10 53 1 57 -1 63 -25z m3406 14 c0 -7 3 -24 7 -38 6 -21 4 -23 -9 -13 -23 19
-29 4 -7 -18 19 -19 20 -19 72 21 30 22 68 43 85 46 43 9 41 -2 -4 -21 -50
-21 -129 -86 -170 -139 -28 -38 -45 -49 -92 -62 -69 -21 -101 -21 -169 -1 -30
9 -68 13 -88 10 -39 -6 -41 -1 19 -63 20 -20 20 -20 -2 -20 -13 0 -22 -6 -22
-16 0 -8 -5 -12 -11 -8 -6 3 -8 17 -5 30 5 17 2 24 -9 24 -8 0 -15 -8 -15 -18
0 -10 -12 -22 -30 -29 -17 -6 -30 -7 -30 -2 0 5 11 14 25 19 22 8 24 12 13 35
-9 20 -18 25 -50 25 -30 0 -47 8 -78 36 -22 20 -37 40 -34 46 3 5 11 5 19 -2
11 -9 16 -6 26 12 14 26 27 38 88 79 58 38 125 41 135 7 8 -33 7 -48 -4 -48
-5 0 -10 11 -10 25 0 61 -141 8 -191 -72 l-20 -32 26 -17 c25 -17 32 -17 111
-1 75 14 90 14 140 1 31 -8 60 -17 65 -20 4 -2 38 3 75 13 56 15 72 24 101 60
21 25 33 49 29 58 -6 17 -22 20 -30 6 -7 -11 -46 -2 -46 11 0 5 5 6 11 2 14
-8 58 44 59 69 0 19 20 24 20 5z m-5243 -30 c-3 -7 -5 -2 -5 12 0 14 2 19 5
13 2 -7 2 -19 0 -25z m1393 23 c0 -12 -28 -22 -34 -12 -3 5 -3 11 1 15 9 9 33
7 33 -3z m1164 -27 c4 -10 1 -14 -6 -12 -15 5 -23 28 -10 28 5 0 13 -7 16 -16z
m-1494 -29 c-7 -9 -15 -13 -18 -10 -3 2 1 11 8 20 7 9 15 13 18 10 3 -2 -1
-11 -8 -20z m-1020 5 c8 -5 11 -12 7 -16 -4 -4 -15 0 -24 9 -18 18 -8 23 17 7z
m60 -32 c0 -6 -7 -5 -15 2 -8 7 -15 17 -15 22 0 6 7 5 15 -2 8 -7 15 -17 15
-22z m1200 13 c0 -5 -7 -11 -15 -15 -8 -3 -15 -12 -15 -21 0 -9 -7 -27 -16
-40 -16 -24 -16 -25 10 -25 14 0 26 -5 26 -12 0 -6 -3 -9 -6 -5 -3 3 -26 -3
-50 -13 -25 -11 -46 -15 -49 -10 -8 14 3 30 21 30 8 0 14 5 14 11 0 6 9 22 20
36 11 14 17 30 13 36 -3 5 2 16 12 24 22 15 35 17 35 4z m-254 -39 c-9 -8 -26
10 -26 26 1 15 2 15 15 -2 8 -11 13 -21 11 -24z m114 -2 c0 -5 -4 -10 -9 -10
-5 0 -16 -3 -25 -6 -9 -3 -16 -1 -16 4 0 9 16 17 43 21 4 0 7 -3 7 -9z m1057
-10 c24 -19 26 -19 40 -3 12 17 13 16 11 -7 -4 -31 -33 -29 -85 6 -31 21 -33
24 -13 24 12 0 33 -9 47 -20z m-377 -35 c0 -13 6 -28 13 -32 12 -7 53 -72 82
-128 6 -11 23 -21 38 -23 28 -3 38 -22 12 -22 -9 0 -21 -4 -28 -10 -61 -50
-78 -60 -99 -60 -14 0 -34 11 -47 23 -19 21 -20 26 -7 36 12 10 15 8 18 -11 5
-34 50 -36 89 -4 22 19 27 28 17 31 -8 3 -15 16 -16 30 -2 23 -29 72 -70 125
-25 33 -34 89 -12 75 6 -3 10 -17 10 -30z m-244 10 c-3 -9 0 -15 9 -15 18 0
20 -16 3 -24 -10 -5 -10 -7 0 -12 16 -8 16 -24 -1 -24 -7 0 -23 13 -35 30 -26
34 -27 41 -7 34 9 -4 15 0 15 10 0 9 5 16 11 16 6 0 9 -7 5 -15z m864 -36 c0
-6 -17 -28 -37 -49 -32 -31 -59 -44 -168 -79 -71 -23 -137 -45 -145 -48 -8 -3
-22 -7 -30 -8 -8 -1 -27 -6 -42 -10 -22 -6 -28 -4 -28 9 0 11 9 16 28 16 35 0
282 75 334 101 22 11 47 33 56 50 17 29 32 38 32 18z m-2036 -15 c3 -9 6 -24
6 -34 0 -12 8 -18 28 -18 15 0 30 5 34 12 5 6 8 1 8 -13 0 -21 -3 -23 -30 -18
-19 4 -34 1 -44 -8 -19 -19 -32 -19 -40 1 -9 22 3 32 14 14 7 -11 10 -6 10 19
0 21 -7 39 -17 47 -17 12 -17 13 3 14 12 0 25 -7 28 -16z m3486 -35 c0 -42
-16 -36 -18 6 -1 21 3 33 8 30 6 -3 10 -19 10 -36z m-3955 20 c4 -5 -1 -19
-11 -30 -17 -19 -17 -20 4 -26 21 -5 22 -7 7 -29 -8 -13 -15 -31 -15 -41 0
-29 -19 -1 -23 34 -2 17 -11 39 -20 48 -20 19 -14 33 17 45 29 12 34 12 41 -1z
m1005 -45 c0 -8 -4 -12 -10 -9 -5 3 -10 10 -10 16 0 5 5 9 10 9 6 0 10 -7 10
-16z m-1210 -18 c0 -2 -6 -19 -14 -37 -7 -19 -11 -50 -9 -69 4 -25 2 -32 -5
-25 -24 23 -8 135 19 135 5 0 9 -2 9 -4z m4126 -5 c-7 -11 -46 -21 -46 -12 0
13 13 21 32 21 11 0 17 -4 14 -9z m-3872 -17 c9 -24 7 -28 -9 -14 -17 14 -20
30 -6 30 5 0 12 -7 15 -16z m4976 -1 c0 -10 -32 -43 -42 -43 -14 0 -9 22 10
36 19 15 32 18 32 7z m-1173 -20 c-9 -9 -19 -14 -23 -11 -10 10 6 28 24 28 15
0 15 -1 -1 -17z m-3747 -3 c8 -5 12 -12 9 -15 -8 -8 -39 5 -39 16 0 11 11 11
30 -1z m3820 -16 c0 -8 -4 -14 -10 -14 -5 0 -10 9 -10 21 0 11 5 17 10 14 6
-3 10 -13 10 -21z m-120 -19 c-7 -8 -17 -12 -23 -8 -6 4 -3 11 8 19 23 17 32
10 15 -11z m-110 -20 c6 -15 15 -23 23 -19 8 3 14 -2 14 -11 0 -8 -5 -15 -10
-15 -14 0 -47 40 -47 57 0 21 10 15 20 -12z m62 -7 c-7 -7 -12 -8 -12 -2 0 6
3 14 7 17 3 4 9 5 12 2 2 -3 -1 -11 -7 -17z m-3769 -9 c-4 -13 -9 -17 -15 -11
-11 11 -3 32 12 32 4 0 6 -9 3 -21z m3971 12 c3 -5 -3 -11 -13 -14 -12 -3 -22
1 -25 9 -6 16 29 20 38 5z m-2882 -14 c-15 -17 3 -86 24 -94 7 -3 11 -9 8 -14
-3 -5 4 -21 15 -35 22 -28 28 -64 11 -64 -5 0 -10 6 -11 13 0 10 -2 10 -6 0
-10 -27 -23 -11 -23 27 0 22 -4 40 -8 40 -5 0 -15 25 -22 55 -10 42 -18 55
-32 55 -26 0 -22 18 5 23 45 9 50 8 39 -6z m1095 -12 c9 -25 -4 -29 -17 -6 -7
15 -7 21 0 21 6 0 13 -7 17 -15z m2499 0 c8 -8 22 -11 32 -8 15 6 15 5 3 -10
-7 -9 -18 -14 -24 -10 -6 4 -8 0 -4 -10 3 -9 11 -35 17 -59 23 -83 8 -80 207
-32 161 39 197 45 181 28 -4 -3 -71 -21 -150 -40 -78 -19 -157 -39 -175 -45
l-31 -10 25 -92 c14 -50 35 -125 47 -167 13 -41 25 -81 27 -89 2 -7 -1 -15 -7
-18 -6 -2 -20 29 -33 74 -13 43 -38 130 -57 193 -39 134 -83 310 -77 310 2 0
11 -7 19 -15z m-2913 -47 c15 -6 41 -8 57 -5 18 4 32 1 40 -8 11 -13 4 -14
-46 -12 -69 4 -184 44 -184 63 0 11 12 9 53 -7 28 -12 65 -26 80 -31z m-1700
3 c-2 -6 6 -11 18 -11 11 0 17 5 14 10 -3 6 -1 10 4 10 6 0 11 -9 11 -19 0
-15 -9 -20 -46 -23 -25 -2 -48 0 -50 4 -3 5 4 8 15 8 12 0 21 5 21 10 0 16
-33 26 -38 12 -5 -17 -19 -15 -26 5 -4 9 -1 20 6 24 15 10 74 -15 71 -30z
m2162 9 c3 -5 22 -10 42 -10 57 0 163 -21 163 -32 0 -7 -13 -8 -32 -4 -18 4
-62 10 -98 13 -40 4 -74 13 -89 25 -17 13 -19 18 -8 18 9 0 19 -4 22 -10z
m1540 0 c3 -5 1 -10 -4 -10 -6 0 -11 5 -11 10 0 6 2 10 4 10 3 0 8 -4 11 -10z
m1635 -10 c0 -5 -10 -10 -22 -10 -19 0 -20 2 -8 10 19 13 30 13 30 0z m-1535
-19 c-3 -6 -14 -11 -23 -11 -15 1 -15 2 2 15 21 16 32 13 21 -4z m1495 -17 c0
-8 -4 -14 -10 -14 -5 0 -10 9 -10 21 0 11 5 17 10 14 6 -3 10 -13 10 -21z m88
8 c2 -7 -2 -10 -12 -6 -9 3 -16 11 -16 16 0 13 23 5 28 -10z m-2881 2 c-3 -3
-12 -4 -19 -1 -8 3 -5 6 6 6 11 1 17 -2 13 -5z m1243 -4 c0 -5 -6 -10 -14 -10
-8 0 -18 5 -21 10 -3 6 3 10 14 10 12 0 21 -4 21 -10z m-978 -26 c76 -11 124
-22 119 -27 -12 -12 -279 27 -294 43 -9 9 -5 11 18 7 17 -3 87 -14 157 -23z
m2438 9 c0 -14 -19 -38 -25 -32 -8 8 5 39 16 39 5 0 9 -3 9 -7z m40 -19 c0 -8
-4 -14 -10 -14 -5 0 -10 9 -10 21 0 11 5 17 10 14 6 -3 10 -13 10 -21z m190 4
c0 -13 -23 -5 -28 10 -2 7 2 10 12 6 9 -3 16 -11 16 -16z m36 -15 c-11 -11
-17 4 -9 23 7 18 8 18 11 1 2 -10 1 -21 -2 -24z m-2521 7 c3 -5 -3 -10 -14
-10 -12 0 -21 5 -21 10 0 6 6 10 14 10 8 0 18 -4 21 -10z m65 -10 c0 -5 -9
-10 -20 -10 -11 0 -20 5 -20 10 0 6 9 10 20 10 11 0 20 -4 20 -10z m2293 -10
c3 -11 1 -20 -4 -20 -5 0 -9 2 -9 4 0 2 -3 11 -6 20 -3 9 -2 16 4 16 5 0 12
-9 15 -20z m-4478 -11 c9 -27 0 -34 -27 -21 -13 6 -17 11 -10 11 6 1 12 8 12
16 0 22 18 18 25 -6z m2240 0 c-7 -10 -35 -1 -35 11 0 5 9 6 20 3 11 -3 17 -9
15 -14z m-2169 -15 c-3 -9 -6 -18 -6 -20 0 -2 -12 -4 -26 -4 -14 0 -23 4 -19
10 3 6 15 10 26 10 11 0 17 5 14 10 -3 6 -1 10 5 10 7 0 9 -7 6 -16z m2224 6
c0 -5 -6 -10 -14 -10 -8 0 -18 5 -21 10 -3 6 3 10 14 10 12 0 21 -4 21 -10z
m1890 1 c0 -5 3 -16 6 -25 4 -12 0 -16 -15 -16 -20 0 -30 28 -14 43 9 10 23 9
23 -2z m180 -11 c0 -11 -4 -20 -10 -20 -5 0 -10 9 -10 20 0 11 5 20 10 20 6 0
10 -9 10 -20z m40 0 c0 -11 -4 -20 -10 -20 -5 0 -10 9 -10 20 0 11 5 20 10 20
6 0 10 -9 10 -20z m-2060 -15 c14 -16 10 -18 -14 -9 -9 3 -16 10 -16 15 0 14
16 11 30 -6z m2150 -9 c0 -8 -4 -18 -10 -21 -5 -3 -10 3 -10 14 0 12 5 21 10
21 6 0 10 -6 10 -14z m-2100 -16 c8 -5 12 -12 9 -15 -8 -8 -39 5 -39 16 0 11
11 11 30 -1z m1820 -26 c0 -8 -4 -12 -10 -9 -5 3 -10 13 -10 21 0 8 5 12 10 9
6 -3 10 -13 10 -21z m130 11 c-7 -8 -17 -15 -22 -15 -6 0 -5 7 2 15 7 8 17 15
22 15 6 0 5 -7 -2 -15z m73 0 c4 -8 2 -17 -3 -20 -6 -4 -10 -4 -10 -1 0 2 -3
11 -6 20 -3 9 -2 16 4 16 5 0 12 -7 15 -15z m-239 -34 c-9 -10 -26 18 -18 30
5 9 9 8 14 -7 4 -10 6 -21 4 -23z m-1734 19 c8 -5 11 -12 7 -16 -4 -4 -15 0
-24 9 -18 18 -8 23 17 7z m2025 0 c-3 -5 -13 -10 -21 -10 -8 0 -14 5 -14 10 0
6 9 10 21 10 11 0 17 -4 14 -10z m-175 -15 c-7 -8 -16 -12 -21 -9 -16 9 -10
20 12 21 17 2 18 -1 9 -12z m-4219 -26 c28 -30 43 -99 19 -84 -6 4 -8 16 -5
27 5 14 1 21 -13 25 -12 3 -19 10 -16 17 5 13 -40 39 -50 28 -14 -13 -46 -11
-46 3 0 11 11 15 41 15 33 0 47 -6 70 -31z m2427 3 c2 -7 -2 -10 -12 -6 -9 3
-16 11 -16 16 0 13 23 5 28 -10z m1726 -9 c10 -25 -4 -30 -20 -9 -8 11 -14 23
-14 28 0 13 28 -3 34 -19z m-4604 -43 c24 0 70 -24 67 -34 -2 -5 -22 -16 -46
-25 -49 -20 -62 -37 -54 -68 3 -14 1 -23 -6 -23 -6 0 -11 4 -11 9 0 5 -3 22
-6 39 -6 27 -3 31 29 41 38 13 58 41 29 41 -10 0 -34 11 -55 25 -20 14 -42 23
-47 20 -6 -3 -10 -2 -10 4 0 19 26 17 60 -6 19 -12 42 -23 50 -23z m2924 34
c9 -3 14 -10 11 -15 -7 -10 -35 0 -35 12 0 11 3 11 24 3z m1726 -4 c0 -5 -7
-10 -15 -10 -8 0 -15 5 -15 10 0 6 7 10 15 10 8 0 15 -4 15 -10z m-3975 -50
c10 -43 2 -51 -72 -74 -40 -13 -25 10 18 27 38 15 40 18 34 47 -4 18 -3 30 3
30 6 0 13 -13 17 -30z m2307 21 c13 -5 32 -12 43 -16 16 -5 17 -8 5 -15 -14
-9 -63 11 -75 30 -8 12 -2 13 27 1z m108 -51 c0 -5 -4 -10 -9 -10 -6 0 -13 5
-16 10 -3 6 1 10 9 10 9 0 16 -4 16 -10z m55 -10 c3 -5 -3 -10 -14 -10 -12 0
-21 5 -21 10 0 6 6 10 14 10 8 0 18 -4 21 -10z m-3025 -22 c0 -19 -2 -20 -10
-8 -13 19 -13 30 0 30 6 0 10 -10 10 -22z m3074 16 c9 -3 13 -11 8 -18 -4 -6
-12 -31 -18 -56 l-12 -45 -1 43 c-1 32 -5 42 -18 42 -15 0 -14 2 3 19 23 24
19 22 38 15z m170 0 c22 -9 10 -23 -14 -17 -11 3 -17 9 -14 14 6 11 8 11 28 3z
m-104 -14 c0 -5 -9 -10 -21 -10 -11 0 -17 5 -14 10 3 6 13 10 21 10 8 0 14 -4
14 -10z m60 6 c0 -9 -40 -13 -46 -5 -3 5 6 9 20 9 14 0 26 -2 26 -4z m106 -33
c-8 -8 -36 5 -36 17 0 7 6 7 21 0 11 -7 18 -14 15 -17z m-3291 -41 c-8 -9 -25
20 -18 31 3 5 10 2 15 -7 6 -10 7 -20 3 -24z m3329 -4 c-4 -6 -10 -5 -15 3
-14 22 -10 33 6 19 8 -7 12 -17 9 -22z m-2973 -10 c0 -10 2 -10 6 0 7 17 23
15 23 -3 0 -34 -49 -26 -50 8 0 12 20 8 21 -5z m-328 -85 c8 -41 -5 -43 -20
-3 -14 38 -43 40 -43 3 0 -42 -18 -15 -25 37 -6 42 -5 43 8 22 13 -22 15 -23
30 -7 10 9 17 22 18 28 1 17 25 -43 32 -80z m3310 57 c3 -11 1 -23 -4 -26 -5
-3 -9 6 -9 20 0 31 6 34 13 6z m85 -20 c1 -43 29 -95 84 -155 26 -29 48 -62
48 -73 0 -28 19 -75 33 -84 8 -5 4 -8 -9 -8 -17 0 -23 10 -34 58 -9 40 -24 69
-50 97 -70 77 -90 111 -90 154 0 47 17 57 18 11z m-3552 -5 c9 -8 12 -20 8
-26 -3 -6 0 -15 7 -20 7 -4 10 -11 6 -15 -11 -11 -35 16 -42 49 -8 30 -1 34
21 12z m3474 -31 c0 -8 -5 -12 -10 -9 -6 4 -8 11 -5 16 9 14 15 11 15 -7z
m-313 -74 c-2 -22 -6 -42 -8 -44 -2 -2 -21 -1 -41 2 -41 5 -52 22 -15 22 28 0
47 17 47 42 0 10 5 18 11 18 6 0 8 -16 6 -40z m-2987 0 c0 -11 -4 -20 -10 -20
-5 0 -10 9 -10 20 0 11 5 20 10 20 6 0 10 -9 10 -20z m600 13 c0 -5 -5 -15
-10 -23 -8 -12 -10 -11 -10 8 0 12 5 22 10 22 6 0 10 -3 10 -7z m3335 -105
c-23 -75 -37 -97 -77 -118 -48 -25 -56 -25 -35 -2 16 17 14 32 -4 32 -4 0 -38
-51 -75 -112 -78 -131 -72 -123 -80 -116 -3 4 29 65 71 136 44 76 74 136 70
143 -5 7 -3 10 6 7 8 -3 14 -13 14 -24 0 -14 7 -19 25 -19 18 0 25 5 25 20 0
28 26 86 35 80 5 -3 11 -1 15 5 16 25 22 6 10 -32z m-965 2 c0 -11 -4 -20 -10
-20 -5 0 -10 9 -10 20 0 11 5 20 10 20 6 0 10 -9 10 -20z m7 -55 c-4 -8 -11
-15 -17 -15 -7 0 -7 6 0 21 13 23 26 19 17 -6z m433 18 c0 -5 -4 -14 -9 -22
-6 -9 -5 -24 0 -39 11 -29 8 -35 -14 -27 -15 6 -28 60 -20 83 5 13 43 17 43 5z
m-450 -70 c0 -20 -3 -24 -11 -16 -7 7 -9 19 -6 27 10 24 17 19 17 -11z m493
-30 c-5 -12 -2 -15 10 -10 8 3 31 9 49 12 l33 6 0 -75 c0 -42 -3 -76 -7 -76
-12 0 -20 39 -17 80 4 44 2 45 -41 36 -27 -5 -30 -9 -30 -46 0 -25 -4 -39 -10
-35 -11 7 -14 94 -4 119 3 9 10 14 15 11 4 -3 5 -13 2 -22z m-477 -40 c-4 -4
-11 -1 -16 7 -16 25 -11 35 7 17 9 -9 13 -20 9 -24z m4 -32 c0 -12 -20 -25
-27 -18 -7 7 6 27 18 27 5 0 9 -4 9 -9z m230 -33 c0 -12 -14 -10 -28 4 -19 19
-14 29 8 16 11 -7 20 -16 20 -20z m40 17 c-7 -8 -10 -21 -7 -29 3 -8 0 -17 -8
-20 -8 -3 -11 -13 -8 -25 3 -12 1 -21 -6 -21 -6 0 -11 7 -11 15 0 8 -5 15 -10
15 -6 0 0 18 12 40 13 22 29 40 37 40 11 0 11 -3 1 -15z m246 -161 l7 -141 41
8 c59 12 63 11 69 -11 6 -22 -8 -95 -25 -127 -6 -12 -11 -44 -12 -72 -1 -27
-4 -47 -8 -44 -11 6 -10 -58 3 -116 10 -47 12 -49 34 -39 15 6 29 7 40 1 24
-14 65 -4 65 16 0 12 5 10 19 -8 16 -21 24 -23 65 -18 25 4 46 3 46 -2 0 -14
-36 -20 -81 -14 -28 4 -40 3 -36 -4 4 -6 0 -16 -8 -23 -12 -10 -15 -9 -15 4 0
9 -8 16 -20 16 -11 0 -20 -4 -20 -9 0 -17 -34 -22 -42 -6 -13 23 -31 19 -18
-4 5 -11 10 -40 10 -65 0 -44 1 -46 28 -46 15 0 90 15 167 33 l140 33 0 45 c0
33 8 56 28 86 19 28 27 48 22 62 -4 15 0 21 17 26 13 3 56 18 96 32 58 21 73
30 69 44 -3 11 4 21 19 28 13 6 24 15 24 21 0 6 4 9 10 5 5 -3 1 -19 -10 -37
-10 -17 -16 -36 -14 -43 3 -8 -8 -15 -29 -19 -21 -4 -41 -16 -51 -31 -9 -14
-33 -32 -54 -41 -20 -9 -31 -18 -24 -21 20 -8 14 -26 -7 -20 -12 3 -22 -1 -25
-9 -3 -8 -12 -14 -20 -14 -23 0 -35 -31 -27 -71 l6 -36 180 44 c99 23 197 45
218 48 21 3 110 24 199 46 137 34 186 41 167 25 -2 -1 -74 -20 -159 -41 -85
-21 -166 -43 -180 -50 -14 -6 -32 -10 -40 -8 -8 2 -158 -30 -332 -72 -174 -41
-336 -78 -360 -81 -24 -4 -49 -11 -55 -17 -7 -5 -13 -6 -14 -1 0 5 -5 0 -10
-11 -8 -17 -9 -15 -5 9 2 17 0 40 -5 53 -5 14 -5 23 1 23 6 0 10 15 9 33 -1
31 -1 31 -10 7 -8 -23 -8 -22 -4 6 2 18 1 35 -2 38 -4 4 -8 12 -9 19 -2 7 -8
39 -15 71 -10 47 -10 74 0 131 10 62 10 82 -5 139 -9 36 -21 66 -26 66 -6 0
-7 -8 -3 -17 4 -10 9 -51 12 -90 5 -59 3 -73 -8 -73 -11 0 -14 17 -14 76 0 61
-3 78 -17 88 -16 12 -18 32 -18 172 0 196 16 195 26 -2z m-542 130 c10 -25 -1
-29 -14 -5 -6 12 -7 21 -1 21 5 0 12 -7 15 -16z m157 -35 c19 -38 23 -41 54
-36 35 6 75 -1 75 -12 0 -3 -27 -6 -59 -6 -59 0 -60 0 -80 38 -21 38 -26 57
-16 57 2 0 14 -19 26 -41z m-211 -130 c0 -10 -4 -19 -10 -19 -5 0 -10 12 -10
26 0 14 4 23 10 19 6 -3 10 -15 10 -26z m1620 -39 c0 -6 12 -9 26 -8 15 2 29
-2 31 -8 2 -6 -9 -11 -27 -11 -32 0 -109 -21 -124 -35 -6 -4 -17 -8 -25 -8
-24 0 39 59 74 69 41 12 45 13 45 1z m-1630 -21 c-7 -11 -14 -18 -17 -15 -8 8
5 36 17 36 7 0 7 -6 0 -21z m-34 -66 c-11 -11 -19 6 -11 24 8 17 8 17 12 0 3
-10 2 -21 -1 -24z m-21 -23 c-3 -5 -15 -10 -26 -10 -10 0 -19 5 -19 10 0 6 12
10 26 10 14 0 23 -4 19 -10z m1676 -50 c17 0 28 -4 25 -9 -3 -5 -25 -7 -47 -4
-36 5 -44 3 -60 -18 l-19 -24 0 23 c0 24 33 45 58 36 8 -2 27 -4 43 -4z m-171
-9 c0 -5 -15 -11 -32 -13 -18 -3 -41 -8 -50 -13 -13 -5 -18 -3 -18 10 0 9 4
14 8 11 4 -2 14 -1 22 5 19 11 70 12 70 0z m60 -1 c0 -5 -9 -10 -20 -10 -11 0
-20 5 -20 10 0 6 9 10 20 10 11 0 20 -4 20 -10z m-1360 -85 c0 -8 14 -17 35
-21 19 -3 38 -11 42 -17 4 -6 -6 -7 -29 -3 -39 7 -68 0 -68 -17 0 -6 15 -27
33 -46 17 -18 25 -31 16 -28 -9 3 -22 0 -28 -6 -8 -8 -11 -7 -11 6 0 19 -19
58 -35 70 -6 5 -4 12 6 20 17 13 19 18 19 42 0 8 5 15 10 15 6 0 10 -7 10 -15z
m1285 -14 c7 -12 -12 -24 -25 -16 -11 7 -4 25 10 25 5 0 11 -4 15 -9z m-565
-140 c0 -12 -20 -25 -27 -18 -7 7 6 27 18 27 5 0 9 -4 9 -9z m906 -196 c4 -8
12 -15 19 -15 13 0 25 -21 25 -46 0 -8 -4 -14 -10 -14 -5 0 -10 9 -10 20 0 11
-5 20 -11 20 -7 0 -18 8 -25 18 -12 16 -15 15 -46 -14 -33 -31 -78 -53 -78
-37 0 4 15 15 33 24 17 9 32 22 32 30 0 27 62 39 71 14z m-1076 -126 c0 -11
-4 -18 -10 -14 -5 3 -7 12 -3 20 7 21 13 19 13 -6z m0 -59 c0 -11 -4 -20 -10
-20 -5 0 -10 9 -10 20 0 11 5 20 10 20 6 0 10 -9 10 -20z m0 -50 c0 -5 -4 -10
-10 -10 -5 0 -10 5 -10 10 0 6 5 10 10 10 6 0 10 -4 10 -10z m-14 -87 c-11
-11 -19 6 -11 24 8 17 8 17 12 0 3 -10 2 -21 -1 -24z m4 -43 c0 -11 -4 -20
-10 -20 -5 0 -10 9 -10 20 0 11 5 20 10 20 6 0 10 -9 10 -20z m-7 -60 c-3 -11
-7 -20 -9 -20 -2 0 -4 9 -4 20 0 11 4 20 9 20 5 0 7 -9 4 -20z m-3 -60 c0 -11
-4 -20 -10 -20 -5 0 -10 9 -10 20 0 11 5 20 10 20 6 0 10 -9 10 -20z m0 -61
c0 -11 -4 -17 -10 -14 -5 3 -10 13 -10 21 0 8 5 14 10 14 6 0 10 -9 10 -21z
m57 -41 c-3 -8 -6 -5 -6 6 -1 11 2 17 5 13 3 -3 4 -12 1 -19z m-43 -14 c4 -10
1 -14 -6 -12 -15 5 -23 28 -10 28 5 0 13 -7 16 -16z m16 -56 c0 -19 -2 -20
-10 -8 -13 19 -13 30 0 30 6 0 10 -10 10 -22z m-3 -70 c-3 -7 -5 -2 -5 12 0
14 2 19 5 13 2 -7 2 -19 0 -25z m13 -60 c0 -5 -4 -8 -10 -8 -5 0 -10 10 -10
23 0 18 2 19 10 7 5 -8 10 -18 10 -22z m0 -50 c0 -19 -2 -20 -10 -8 -13 19
-13 30 0 30 6 0 10 -10 10 -22z m2510 -18 c0 -5 -7 -10 -15 -10 -8 0 -15 5
-15 10 0 6 7 10 15 10 8 0 15 -4 15 -10z m-55 -10 c-3 -5 -13 -10 -21 -10 -8
0 -14 5 -14 10 0 6 9 10 21 10 11 0 17 -4 14 -10z m-61 -6 c-7 -3 -9 -15 -6
-27 5 -22 5 -22 -16 -3 -29 26 -28 36 6 35 15 0 22 -3 16 -5z m-2384 -25 c0
-11 -4 -17 -10 -14 -5 3 -10 13 -10 21 0 8 5 14 10 14 6 0 10 -9 10 -21z
m2325 11 c-3 -5 -15 -10 -26 -10 -11 0 -17 5 -14 10 3 6 15 10 26 10 11 0 17
-4 14 -10z m185 -10 c0 -13 -28 -25 -38 -16 -3 4 0 11 8 16 20 13 30 12 30 0z
m-60 -18 c0 -13 -12 -22 -22 -16 -10 6 -1 24 13 24 5 0 9 -4 9 -8z m-65 -50
c-8 -9 -25 20 -18 31 3 5 10 2 15 -7 6 -10 7 -20 3 -24z m-2365 7 c0 -11 -4
-17 -10 -14 -5 3 -10 13 -10 21 0 8 5 14 10 14 6 0 10 -9 10 -21z m2470 6 c0
-8 -4 -15 -9 -15 -5 0 -11 7 -15 15 -3 9 0 15 9 15 8 0 15 -7 15 -15z m-2450
-61 c0 -8 -4 -14 -10 -14 -5 0 -10 9 -10 21 0 11 5 17 10 14 6 -3 10 -13 10
-21z m2374 20 c9 -3 14 -10 11 -15 -7 -10 -35 0 -35 12 0 11 3 11 24 3z m66
-4 c0 -5 -9 -10 -21 -10 -11 0 -17 5 -14 10 3 6 13 10 21 10 8 0 14 -4 14 -10z
m-2420 -76 c0 -8 -4 -12 -10 -9 -5 3 -10 13 -10 21 0 8 5 12 10 9 6 -3 10 -13
10 -21z m20 -60 c0 -8 -4 -12 -10 -9 -5 3 -10 13 -10 21 0 8 5 12 10 9 6 -3
10 -13 10 -21z m13 -64 c-7 -8 -22 24 -16 34 4 5 10 1 13 -10 4 -10 6 -21 3
-24z m7 -40 c0 -11 -4 -20 -10 -20 -5 0 -10 9 -10 20 0 11 5 20 10 20 6 0 10
-9 10 -20z m0 -60 c0 -11 -4 -20 -10 -20 -5 0 -10 9 -10 20 0 11 5 20 10 20 6
0 10 -9 10 -20z m-14 -77 c-11 -11 -17 4 -9 23 7 18 8 18 11 1 2 -10 1 -21 -2
-24z m-6 -43 c0 -11 -4 -20 -10 -20 -5 0 -10 9 -10 20 0 11 5 20 10 20 6 0 10
-9 10 -20z m-10 -47 c0 -5 -5 -15 -10 -23 -8 -12 -10 -11 -10 8 0 12 5 22 10
22 6 0 10 -3 10 -7z"/>
<path d="M4668 5893 c-33 -5 -42 -35 -32 -110 7 -60 24 -83 59 -83 14 0 25 -7
28 -19 6 -25 -4 -40 -28 -39 -11 0 -28 -3 -37 -7 -13 -5 -18 0 -22 27 -20 138
-23 167 -19 192 5 25 4 27 -23 20 -16 -4 -39 -16 -52 -27 l-23 -21 22 -8 c11
-4 23 -17 26 -28 3 -11 9 -20 14 -20 17 0 9 -45 -10 -62 -17 -14 -20 -15 -25
-1 -10 25 -7 41 9 45 14 3 14 5 0 26 -15 21 -45 31 -45 15 0 -5 11 -53 24
-108 24 -102 26 -106 71 -92 16 6 23 1 32 -23 7 -20 18 -30 31 -30 19 0 24 21
9 36 -11 11 -8 54 3 54 6 0 10 -5 10 -11 0 -5 5 -7 10 -4 14 9 12 -9 -2 -23
-10 -10 -10 -15 2 -22 20 -12 29 -1 50 61 17 49 17 54 -1 118 -10 36 -23 85
-29 109 -6 23 -14 41 -18 41 -4 -1 -19 -4 -34 -6z m-8 -93 c0 -5 -4 -10 -10
-10 -5 0 -10 5 -10 10 0 6 5 10 10 10 6 0 10 -4 10 -10z m10 -39 c0 -6 -4 -13
-10 -16 -5 -3 -10 1 -10 9 0 9 5 16 10 16 6 0 10 -4 10 -9z m-61 -89 c-1 -15
2 -35 6 -44 4 -11 3 -18 -4 -18 -6 0 -11 9 -11 19 0 11 -4 21 -9 23 -5 2 -7
15 -4 30 7 35 24 26 22 -10z"/>
<path d="M4650 5665 c0 -8 2 -15 4 -15 2 0 6 7 10 15 3 8 1 15 -4 15 -6 0 -10
-7 -10 -15z"/>
<path d="M4680 5670 c0 -5 7 -10 15 -10 8 0 15 5 15 10 0 6 -7 10 -15 10 -8 0
-15 -4 -15 -10z"/>
<path d="M1764 5155 c-4 -8 -12 -15 -19 -15 -8 0 -10 -9 -7 -26 3 -19 10 -24
26 -22 16 2 22 11 24 41 3 37 -13 52 -24 22z"/>
<path d="M321 5124 c0 -11 3 -14 6 -6 3 7 2 16 -1 19 -3 4 -6 -2 -5 -13z"/>
<path d="M5451 4080 c-24 -11 -49 -20 -57 -20 -8 0 -14 -4 -14 -10 0 -5 4 -10
9 -10 5 0 12 -13 16 -30 7 -31 19 -38 30 -19 4 5 17 9 29 7 15 -2 32 7 49 27
18 20 29 26 34 18 5 -6 17 -13 28 -15 15 -2 20 4 26 35 l6 37 -56 0 c-34 0
-73 -8 -100 -20z"/>
<path d="M4250 3976 c-47 -13 -99 -30 -117 -39 -18 -9 -39 -17 -47 -17 -8 0
-18 -5 -21 -10 -7 -12 33 -200 45 -213 4 -4 63 6 131 24 68 17 138 31 156 30
29 0 32 2 31 32 0 18 -11 74 -26 125 -30 106 -21 102 -152 68z"/>
<path d="M4670 3387 c0 -7 9 -18 20 -25 16 -10 20 -10 20 1 0 14 -20 37 -32
37 -4 0 -8 -6 -8 -13z"/>
<path d="M495 3970 c-3 -5 -1 -10 4 -10 6 0 11 5 11 10 0 6 -2 10 -4 10 -3 0
-8 -4 -11 -10z"/>
<path d="M500 3933 c0 -5 5 -15 10 -23 8 -12 10 -11 10 8 0 12 -4 22 -10 22
-5 0 -10 -3 -10 -7z"/>
<path d="M460 3923 c0 -5 7 -18 15 -29 15 -18 15 -18 13 5 -3 23 -28 44 -28
24z"/>
<path d="M435 3900 c3 -5 8 -10 11 -10 2 0 4 5 4 10 0 6 -5 10 -11 10 -5 0 -7
-4 -4 -10z"/>
<path d="M992 3778 c-20 -20 -13 -53 18 -83 22 -21 33 -26 41 -18 8 8 8 13 0
17 -18 11 -13 26 9 26 25 0 25 12 1 34 -11 10 -25 14 -36 10 -12 -5 -16 -4
-11 4 9 15 -9 23 -22 10z"/>
<path d="M555 3710 c3 -5 8 -10 11 -10 2 0 4 5 4 10 0 6 -5 10 -11 10 -5 0 -7
-4 -4 -10z"/>
<path d="M4528 2033 c-21 -5 -21 -6 -4 -63 l13 -45 11 50 c11 53 8 64 -20 58z"/>
<path d="M5018 1761 c-35 -13 -45 -20 -38 -31 7 -12 12 -11 28 3 10 9 26 17
34 17 9 0 18 7 22 15 3 8 4 14 3 14 -1 -1 -23 -9 -49 -18z"/>
<path d="M7825 7964 c-21 -28 -22 -33 -8 -38 9 -4 24 -4 34 -1 11 4 19 2 19
-5 0 -18 81 -2 104 21 19 18 19 19 1 39 -15 16 -29 20 -72 19 -47 -2 -56 -6
-78 -35z"/>
<path d="M7985 7990 c3 -5 8 -10 11 -10 2 0 4 5 4 10 0 6 -5 10 -11 10 -5 0
-7 -4 -4 -10z"/>
<path d="M6897 7931 c-4 -17 -3 -21 5 -13 5 5 8 16 6 23 -3 8 -7 3 -11 -10z"/>
<path d="M910 6352 c-14 -10 -81 -44 -150 -76 -143 -67 -150 -71 -128 -88 20
-17 113 -216 105 -225 -9 -8 -3 -18 -62 105 -38 78 -57 108 -79 119 -27 14
-31 14 -43 -3 -17 -23 -33 -80 -33 -119 0 -16 -11 -71 -24 -122 -17 -64 -20
-93 -12 -96 6 -2 32 4 58 14 87 34 452 211 495 241 64 44 83 92 41 104 -25 6
-82 72 -111 129 -22 40 -23 41 -57 17z"/>
<path d="M590 5795 c0 -19 19 -19 44 0 19 14 18 15 -12 15 -22 0 -32 -5 -32
-15z"/>
<path d="M0 5018 c0 -49 2 -88 4 -88 2 0 24 9 50 20 46 21 46 21 31 48 -8 15
-30 45 -50 67 l-35 40 0 -87z"/>
<path d="M0 4799 c0 -42 17 -69 44 -69 9 0 16 2 16 5 0 10 -50 105 -55 105 -3
0 -5 -18 -5 -41z"/>
<path d="M1 4724 c0 -11 3 -14 6 -6 3 7 2 16 -1 19 -3 4 -6 -2 -5 -13z"/>
<path d="M58 4718 c-16 -5 -28 -14 -28 -19 0 -5 -7 -9 -15 -9 -8 0 -15 -6 -15
-12 0 -9 15 -12 51 -9 40 2 52 7 56 22 3 10 12 19 19 19 8 0 14 5 14 10 0 13
-46 12 -82 -2z"/>
<path d="M0 3862 c0 -132 1 -142 19 -142 15 0 21 14 34 77 13 69 13 82 0 125
-9 26 -24 55 -34 64 -18 17 -19 13 -19 -124z"/>
<path d="M71 3800 c-6 -28 -11 -60 -11 -71 0 -26 40 -119 51 -119 5 0 20 21
34 48 14 26 35 60 48 75 l22 29 -29 23 c-15 12 -45 32 -66 44 l-38 21 -11 -50z"/>
<path d="M23 3702 c-22 -3 -23 -8 -23 -93 0 -100 4 -103 63 -41 29 30 29 30
11 63 -9 19 -20 43 -23 54 -4 14 -13 19 -28 17z"/>
</g>
</svg>
