<?xml version="1.0" standalone="no"?>
<!DOCTYPE svg PUBLIC "-//W3C//DTD SVG 20010904//EN"
 "http://www.w3.org/TR/2001/REC-SVG-20010904/DTD/svg10.dtd">
<svg version="1.0" xmlns="http://www.w3.org/2000/svg"
 width="800.000000pt" height="800.000000pt" viewBox="0 0 800.000000 800.000000"
 preserveAspectRatio="xMidYMid meet">
<metadata>
Created by potrace 1.16, written by Peter Selinger 2001-2019
</metadata>
<g transform="translate(0.000000,800.000000) scale(0.100000,-0.100000)"
fill="#000000" stroke="none">
<path d="M0 6876 l0 -1124 45 -6 c25 -4 50 -4 57 0 7 4 8 3 4 -4 -4 -7 -6 -12
-4 -12 11 -2 208 -22 230 -23 14 -1 25 -4 23 -7 -2 -3 10 -12 26 -19 35 -15
38 -29 5 -27 -13 0 -22 4 -20 7 6 10 -45 21 -58 13 -6 -4 -8 -3 -4 4 8 14 -29
21 -135 24 -48 2 -85 6 -83 9 4 6 -45 19 -72 19 -11 0 -14 -40 -14 -220 0
-121 4 -220 8 -220 5 0 17 -7 28 -15 18 -15 18 -15 -8 -9 l-28 6 0 -228 0
-227 53 -58 c28 -32 66 -75 82 -95 28 -33 36 -36 94 -40 49 -4 71 -10 93 -29
32 -27 44 -30 53 -15 3 6 13 10 22 10 9 0 25 7 35 17 10 9 18 12 18 6 0 -15
-31 -39 -69 -52 -31 -10 -36 -9 -69 20 -27 24 -42 30 -65 26 -17 -2 -46 -1
-64 3 -18 5 -33 4 -33 0 0 -10 45 -49 131 -113 35 -26 83 -62 106 -80 23 -18
53 -40 68 -50 14 -10 46 -54 72 -98 40 -69 52 -82 97 -103 60 -29 179 -133
169 -149 -4 -6 -14 -1 -27 14 -33 37 -106 93 -161 123 -41 22 -57 39 -94 102
-24 41 -54 82 -68 92 -13 9 -64 49 -112 87 -49 39 -111 86 -137 105 -39 28
-57 51 -85 110 -20 41 -53 91 -73 110 l-37 35 2 -201 c1 -198 2 -201 20 -183
10 10 28 19 39 19 17 0 19 -3 8 -19 -7 -11 -16 -17 -20 -15 -19 12 -29 -9 -12
-27 9 -11 14 -22 11 -26 -4 -4 -13 2 -21 12 -10 14 -15 15 -21 5 -5 -8 -4 -15
3 -18 8 -2 8 -8 0 -22 -9 -14 -9 -22 2 -35 8 -10 10 -19 4 -23 -12 -9 -12 -75
0 -84 6 -4 5 -15 -2 -30 -14 -25 -12 -138 2 -138 5 0 3 -6 -3 -14 -8 -10 -10
-227 -9 -801 l3 -788 30 -10 c66 -20 193 -70 235 -93 72 -38 271 -106 326
-111 48 -4 58 -1 178 65 186 104 203 107 272 49 16 -13 49 -34 74 -47 25 -12
66 -38 93 -57 52 -38 73 -38 83 2 5 21 1 30 -17 43 -13 9 -40 31 -59 48 -46
41 -172 104 -208 104 -32 0 -117 52 -126 77 -10 25 3 29 20 5 21 -30 29 -28
55 14 51 84 125 95 215 34 33 -22 68 -40 79 -40 10 0 61 25 112 56 52 30 99
54 105 52 7 -3 -28 -29 -77 -59 l-89 -54 54 -6 c64 -7 118 -29 143 -59 19 -22
19 -22 84 22 l43 29 -25 49 c-29 57 -30 61 -11 54 9 -4 16 7 21 33 11 53 8 70
-27 117 -24 33 -28 48 -24 76 21 128 26 108 -60 245 -57 91 -96 142 -141 181
-47 42 -74 77 -112 147 -56 104 -62 138 -41 234 13 60 13 64 -8 90 -12 16 -34
53 -47 83 -14 30 -31 58 -38 62 -6 4 -8 10 -5 13 13 13 30 -8 58 -70 16 -35
37 -68 48 -74 28 -15 33 -49 17 -111 -23 -86 -19 -114 30 -210 37 -70 60 -100
115 -149 38 -34 79 -80 92 -102 20 -36 25 -39 51 -33 19 4 27 3 23 -4 -3 -6 3
-13 14 -17 24 -7 26 -30 5 -51 -13 -13 -11 -21 15 -63 35 -56 36 -66 14 -136
l-16 -51 32 -53 c30 -48 32 -57 26 -107 -7 -58 4 -94 29 -94 18 0 20 -17 3
-23 -7 -2 -23 7 -36 22 l-23 26 21 -42 c11 -23 20 -44 20 -47 0 -12 -112 -76
-133 -76 -12 0 -28 9 -35 20 -20 32 -81 53 -177 60 -83 5 -94 9 -141 43 -28
20 -63 37 -77 37 -43 0 -91 -29 -114 -69 l-22 -38 25 -12 c14 -6 38 -11 55
-11 26 0 146 -52 159 -69 3 -4 33 -31 68 -60 60 -52 79 -90 52 -106 -23 -14 4
-24 84 -30 68 -6 95 -4 133 10 26 9 75 20 108 25 71 9 218 -5 260 -25 17 -8
55 -23 85 -33 30 -11 70 -26 88 -33 28 -12 36 -11 66 5 111 59 120 105 50 245
l-46 91 12 92 c6 51 20 151 31 221 11 70 19 133 16 140 -4 12 15 37 29 37 3 0
3 -15 0 -32 -8 -38 -43 -265 -58 -381 l-11 -78 43 -83 c24 -48 44 -103 47
-130 6 -46 5 -48 -43 -93 -59 -55 -81 -64 -125 -53 -52 14 -160 54 -198 74
-47 25 -266 26 -330 2 -31 -11 -77 -16 -159 -16 l-116 0 -27 -32 c-15 -18 -31
-30 -35 -25 -4 4 4 20 19 35 l27 28 -53 39 c-28 22 -72 49 -97 61 -25 12 -62
35 -84 53 -21 17 -44 31 -51 31 -26 0 -81 -25 -202 -92 -119 -65 -129 -69
-177 -65 -28 2 -80 17 -116 32 -36 16 -79 29 -97 29 -18 0 -30 2 -27 5 9 9
-237 117 -318 139 l-38 10 0 -1194 0 -1194 4000 0 4000 0 0 4000 0 4000 -3691
0 -3691 0 17 -26 c23 -36 10 -43 -16 -10 -16 20 -28 27 -45 23 -13 -2 -24 0
-24 4 0 5 -124 9 -275 9 l-275 0 0 -1124z m788 1086 c6 -18 -15 -14 -22 4 -4
10 -1 14 6 12 6 -2 14 -10 16 -16z m-294 -21 c15 -15 28 -39 30 -53 1 -13 6
-30 11 -37 6 -11 2 -12 -18 -7 -22 5 -30 1 -51 -30 -26 -39 -24 -56 15 -115
31 -44 33 -75 9 -99 -16 -16 -21 -31 -18 -57 2 -20 -2 -38 -7 -40 -6 -2 -11
15 -12 39 -2 31 4 49 19 65 l21 22 -32 65 c-17 36 -31 72 -31 81 0 20 28 64
58 90 27 23 22 46 -14 70 -23 15 -32 35 -16 35 5 0 21 -13 36 -29z m297 -22
c-13 -11 -26 -17 -29 -14 -8 8 20 35 37 35 12 -1 11 -5 -8 -21z m519 -11 c0
-12 -14 -10 -28 4 -19 19 -14 29 8 16 11 -7 20 -16 20 -20z m60 -8 c0 -5 -9
-10 -20 -10 -11 0 -20 5 -20 10 0 6 9 10 20 10 11 0 20 -4 20 -10z m50 -9 c0
-10 -26 -9 -36 2 -4 4 2 7 14 7 12 0 22 -4 22 -9z m55 -11 c3 -5 -3 -10 -14
-10 -12 0 -21 5 -21 10 0 6 6 10 14 10 8 0 18 -4 21 -10z m58 -21 c-8 -8 -16
-8 -30 0 -16 9 -14 10 12 11 21 0 26 -3 18 -11z m40 -29 c3 -14 1 -20 -6 -17
-7 2 -14 14 -15 26 -4 28 13 20 21 -9z m-513 -19 c0 -11 -31 -24 -39 -16 -3 3
1 10 9 15 19 12 30 12 30 1z m-430 -8 c0 -14 -19 -38 -25 -32 -8 8 5 39 16 39
5 0 9 -3 9 -7z m350 -4 c0 -3 10 -11 23 -17 18 -9 10 -11 -45 -10 -72 1 -86
10 -40 26 30 11 62 11 62 1z m195 -18 c3 -5 1 -12 -5 -16 -5 -3 -10 1 -10 9 0
18 6 21 15 7z m423 -14 c5 -24 -15 -21 -21 4 -3 13 -1 19 6 16 7 -2 13 -11 15
-20z m-384 -22 c3 -8 2 -15 -3 -15 -5 0 -14 7 -21 15 -10 12 -10 15 3 15 8 0
17 -7 21 -15z m401 -43 c-8 -9 -25 20 -18 31 3 5 10 2 15 -7 6 -10 7 -20 3
-24z m-361 -21 c-6 -6 -24 19 -24 34 1 6 7 1 15 -9 8 -11 12 -22 9 -25z m394
-19 c6 -18 -15 -14 -22 4 -4 10 -1 14 6 12 6 -2 14 -10 16 -16z m-368 -21 c-6
-12 -15 -19 -21 -16 -15 10 -10 33 9 37 24 6 25 3 12 -21z m380 -18 c0 -14
-19 -38 -25 -32 -8 8 5 39 16 39 5 0 9 -3 9 -7z m-350 -30 c0 -13 -3 -13 -15
-3 -8 7 -12 16 -9 21 8 13 24 1 24 -18z m30 -43 c0 -12 7 -20 18 -20 14 0 14
-2 3 -9 -8 -5 -11 -16 -8 -25 3 -8 2 -18 -2 -21 -11 -6 -23 23 -15 36 3 5 0 9
-5 9 -6 0 -11 11 -11 25 0 14 5 25 10 25 6 0 10 -9 10 -20z m293 0 c-3 -11 -9
-20 -14 -20 -10 0 -12 24 -2 33 13 13 21 7 16 -13z m-27 -67 c-11 -11 -19 6
-11 24 8 17 8 17 12 0 3 -10 2 -21 -1 -24z m-1106 -55 c0 -21 -5 -28 -20 -28
-21 0 -37 38 -26 65 9 26 46 -4 46 -37z m890 22 c8 -5 11 -12 7 -16 -4 -4 -15
0 -24 9 -18 18 -8 23 17 7z m206 -16 c-4 -9 -9 -15 -11 -12 -3 3 -3 13 1 22 4
9 9 15 11 12 3 -3 3 -13 -1 -22z m-98 -3 c3 -8 -1 -12 -9 -9 -7 2 -15 10 -17
17 -3 8 1 12 9 9 7 -2 15 -10 17 -17z m165 -3 c6 -21 2 -36 -7 -27 -10 11 -16
49 -8 49 5 0 12 -10 15 -22z m-210 -5 c-7 -2 -21 -2 -30 0 -10 3 -4 5 12 5 17
0 24 -2 18 -5z m107 -3 c0 -5 -6 -10 -14 -10 -8 0 -18 5 -21 10 -3 6 3 10 14
10 12 0 21 -4 21 -10z m-489 -603 c61 -38 109 -81 109 -98 0 -9 11 -22 25 -29
14 -7 25 -16 25 -20 0 -4 17 -25 39 -48 33 -36 42 -41 68 -36 24 5 33 1 47
-21 15 -23 16 -33 6 -75 -7 -27 -9 -53 -6 -58 2 -4 -4 -21 -14 -37 -18 -28
-18 -29 1 -53 10 -14 19 -30 19 -36 0 -16 39 -38 52 -30 7 5 9 2 6 -7 -3 -8 0
-26 8 -40 18 -32 17 -59 -1 -59 -9 0 -15 6 -13 13 5 29 -14 66 -47 88 -19 13
-35 32 -35 41 0 9 -4 20 -10 23 -15 9 -12 43 6 70 9 14 12 25 6 25 -6 0 -4 20
6 51 20 64 10 84 -44 85 -31 1 -43 7 -64 35 -14 19 -42 50 -62 69 -21 20 -38
40 -38 47 0 14 -74 74 -125 101 -28 15 -34 21 -20 22 11 0 36 -10 56 -23z
m3095 -374 c-11 -11 -19 6 -11 24 8 17 8 17 12 0 3 -10 2 -21 -1 -24z m17 -33
c-3 -11 -9 -20 -14 -20 -14 0 -11 28 4 33 6 3 13 6 14 6 0 1 -1 -8 -4 -19z
m37 -10 c0 -5 -7 -10 -15 -10 -8 0 -15 5 -15 10 0 6 7 10 15 10 8 0 15 -4 15
-10z m6 -57 c-11 -11 -19 6 -11 24 8 17 8 17 12 0 3 -10 2 -21 -1 -24z m-2976
-45 c0 -14 -18 -9 -24 8 -11 28 -6 39 9 20 8 -11 15 -23 15 -28z m2973 7 c4
-8 2 -17 -3 -20 -6 -4 -10 3 -10 14 0 25 6 27 13 6z m50 -22 c-7 -2 -19 -2
-25 0 -7 3 -2 5 12 5 14 0 19 -2 13 -5z m-3003 -23 c0 -11 -4 -20 -10 -20 -5
0 -10 9 -10 20 0 11 5 20 10 20 6 0 10 -9 10 -20z m3000 -10 c0 -11 -4 -20
-10 -20 -5 0 -10 9 -10 20 0 11 5 20 10 20 6 0 10 -9 10 -20z m60 -6 c0 -8 -4
-12 -10 -9 -5 3 -10 10 -10 16 0 5 5 9 10 9 6 0 10 -7 10 -16z m-3077 -44 c-3
-11 -9 -20 -14 -20 -11 0 -11 3 -3 24 9 23 23 20 17 -4z m3037 -15 c-26 -27
-31 -38 -22 -47 7 -7 12 -38 12 -70 0 -56 19 -114 43 -129 5 -4 7 -15 3 -25
-12 -33 -65 82 -66 143 0 29 -5 64 -12 78 -10 23 -8 28 23 55 47 41 60 37 19
-5z m170 -15 c-20 -13 -40 -13 -40 0 0 6 12 10 28 10 21 0 24 -2 12 -10z m65
0 c7 0 15 -9 18 -20 3 -11 1 -20 -4 -20 -5 0 -9 4 -9 10 0 5 -11 12 -25 16
-14 3 -25 11 -25 16 0 6 7 7 16 4 9 -3 21 -6 29 -6z m-3295 -9 c0 -5 -7 -12
-16 -15 -24 -9 -28 -7 -14 9 14 17 30 20 30 6z m3344 -7 c9 -24 7 -28 -9 -14
-17 14 -20 30 -6 30 5 0 12 -7 15 -16z m-3108 -41 c-11 -11 -19 6 -11 24 8 17
8 17 12 0 3 -10 2 -21 -1 -24z m-286 8 c0 -12 -20 -25 -27 -18 -7 7 6 27 18
27 5 0 9 -4 9 -9z m3423 -31 c3 -11 2 -20 -3 -20 -8 0 -20 24 -20 41 0 17 17
1 23 -21z m-3149 -23 c-9 -24 -23 -11 -17 14 3 12 9 17 15 11 5 -5 6 -16 2
-25z m-327 6 c-9 -9 -19 -14 -23 -11 -10 10 6 28 24 28 15 0 15 -1 -1 -17z
m-37 -17 c0 -9 -40 -13 -46 -5 -3 5 6 9 20 9 14 0 26 -2 26 -4z m-57 -18 c3
-8 -4 -13 -19 -13 -26 0 -32 10 -11 18 20 9 25 8 30 -5z m407 -7 c0 -5 -7 -14
-15 -21 -12 -10 -15 -10 -15 2 0 8 3 18 7 21 9 10 23 9 23 -2z m-470 -11 c0
-5 -10 -10 -22 -10 -19 0 -20 2 -8 10 19 13 30 13 30 0z m-65 -20 c-3 -5 -13
-10 -21 -10 -8 0 -12 5 -9 10 3 6 13 10 21 10 8 0 12 -4 9 -10z m-61 -20 c-10
-4 -21 -6 -24 -3 -8 7 24 22 34 16 5 -4 1 -10 -10 -13z m508 -23 c10 -20 10
-21 -6 -8 -15 13 -20 12 -38 -7 -12 -11 -22 -29 -23 -39 -1 -10 -8 -31 -15
-48 l-13 -30 -8 29 c-7 24 -2 36 33 82 42 56 50 58 70 21z m48 26 c0 -5 -4
-15 -10 -23 -11 -18 -25 -7 -17 15 6 15 27 21 27 8z m-600 -12 c0 -5 -9 -11
-20 -14 -22 -6 -28 8 -7 16 19 8 27 8 27 -2z m-65 -30 c-3 -6 -14 -11 -23 -11
-15 1 -15 2 2 15 21 16 32 13 21 -4z m-54 -44 c-16 -16 -26 0 -10 19 9 11 15
12 17 4 2 -6 -1 -17 -7 -23z m3566 11 c-3 -8 -6 -5 -6 6 -1 11 2 17 5 13 3 -3
4 -12 1 -19z m-3597 -37 c0 -12 -20 -25 -27 -18 -7 7 6 27 18 27 5 0 9 -4 9
-9z m3720 -108 c0 -12 5 -25 10 -28 14 -9 12 -57 -4 -97 -19 -44 -11 -75 20
-82 22 -6 24 -10 18 -44 -3 -20 -1 -62 4 -93 7 -47 6 -61 -11 -90 -14 -25 -17
-28 -12 -9 4 14 6 57 4 95 -1 39 -3 81 -3 95 0 14 -8 31 -18 38 -10 7 -18 19
-18 26 0 8 -10 17 -22 20 l-23 7 22 9 c12 5 25 21 29 35 8 33 -4 131 -22 174
-20 49 -16 53 7 6 10 -22 19 -50 19 -62z m-3769 44 c-16 -16 -26 0 -10 19 9
11 15 12 17 4 2 -6 -1 -17 -7 -23z m-37 -41 c-6 -16 -24 -23 -24 -8 0 10 22
33 27 28 2 -2 1 -11 -3 -20z m-34 -41 c-7 -8 -17 -15 -22 -15 -6 0 -5 7 2 15
7 8 17 15 22 15 6 0 5 -7 -2 -15z m309 -37 c7 -11 9 -23 5 -26 -4 -4 -9 -1
-11 6 -7 18 -23 4 -23 -21 0 -16 -3 -18 -12 -9 -8 8 -9 18 0 36 9 19 8 25 -4
30 -8 3 -14 10 -14 15 0 16 44 -7 59 -31z m3935 -6 c-1 -17 -25 -83 -54 -147
-48 -106 -52 -120 -47 -168 9 -78 -6 -172 -32 -208 -12 -16 -25 -47 -28 -67
-3 -20 -19 -75 -35 -122 -20 -59 -27 -94 -23 -115 24 -115 45 -255 51 -340 4
-64 14 -117 26 -147 20 -46 20 -49 2 -172 -9 -70 -21 -126 -26 -126 -11 0 -11
8 8 138 16 109 16 114 -4 160 -12 30 -22 82 -26 147 -6 99 -9 121 -42 283 -15
78 -15 88 1 138 9 29 13 59 9 66 -4 7 -3 9 1 5 12 -11 45 60 45 97 0 19 10 40
26 57 26 27 27 32 27 151 l0 123 51 110 c27 60 50 125 50 142 1 18 6 31 11 29
6 -2 9 -17 9 -34z m-4274 9 c0 -5 -7 -14 -15 -21 -16 -14 -18 -10 -9 14 6 17
24 22 24 7z m587 -36 c-41 -38 -70 -95 -61 -119 4 -10 1 -16 -9 -16 -8 0 -20
-13 -25 -30 -9 -25 -8 -30 8 -35 15 -5 18 -17 19 -73 1 -91 -19 -146 -54 -150
-34 -4 -40 -23 -20 -61 11 -22 23 -31 40 -31 14 0 25 -4 25 -10 0 -17 -46 -11
-63 8 -14 15 -47 83 -47 95 0 3 17 7 38 11 33 5 41 11 53 43 10 26 13 49 7 73
-4 19 -5 41 -3 48 3 8 -1 20 -9 27 -12 12 -21 6 -62 -38 -27 -29 -48 -55 -46
-59 1 -4 -4 -5 -11 -2 -22 8 -67 -35 -67 -64 0 -19 -3 -23 -11 -15 -22 22 0
62 54 96 53 34 127 111 127 131 0 6 8 27 19 46 10 19 21 46 26 60 8 30 74 99
95 99 9 1 -1 -14 -23 -34z m-627 -13 c0 -11 -22 -32 -32 -32 -5 0 -4 9 2 20
11 20 30 28 30 12z m-410 -57 c7 -9 10 -18 7 -22 -8 -7 -37 15 -37 28 0 14 16
11 30 -6z m4250 5 c-20 -13 -40 -13 -40 0 0 6 12 10 28 10 21 0 24 -2 12 -10z
m-4209 -61 c11 -11 18 -28 16 -37 -3 -15 -5 -14 -12 3 -5 11 -14 24 -22 28
-12 8 -18 27 -8 27 3 0 14 -9 26 -21z m54 11 c-3 -5 -11 -10 -16 -10 -6 0 -7
5 -4 10 3 6 11 10 16 10 6 0 7 -4 4 -10z m3565 -10 c-19 -13 -30 -13 -30 0 0
6 10 10 23 10 18 0 19 -2 7 -10z m329 -109 c17 -60 14 -85 -25 -168 -27 -58
-37 -96 -41 -150 -6 -70 -5 -73 16 -73 11 0 21 -4 21 -10 0 -11 -30 -13 -52
-5 -24 10 3 175 42 258 38 79 36 126 -5 189 -33 50 -31 58 4 24 15 -15 33 -44
40 -65z m-3919 40 c0 -10 -24 -21 -43 -21 -7 0 -3 7 7 15 22 17 36 19 36 6z
m4360 -195 c0 -13 -7 -26 -15 -30 -8 -3 -15 -14 -15 -25 0 -24 -16 -36 -26
-20 -5 8 -3 9 6 4 9 -5 10 -2 5 14 -4 14 -1 23 9 27 23 9 20 22 -6 27 -23 4
-23 4 2 15 36 16 40 15 40 -12z m-3583 -106 c36 -21 211 -157 261 -204 21 -19
55 -75 87 -143 l53 -113 6 -167 c3 -128 11 -197 30 -288 14 -66 26 -129 26
-140 0 -11 -13 -47 -28 -80 -22 -48 -27 -67 -21 -95 8 -37 4 -49 -10 -34 -19
19 -14 71 13 140 l28 72 -27 128 c-21 100 -28 166 -31 294 l-4 165 -59 120
c-50 101 -66 126 -104 152 -24 18 -48 29 -52 25 -5 -4 -5 -2 -1 5 8 14 -27 36
-39 25 -5 -4 -5 -2 -2 4 8 14 -92 94 -156 125 -48 24 -64 46 -24 34 12 -4 36
-15 54 -25z m3518 -100 c24 0 25 -28 0 -34 -30 -8 -40 -34 -19 -57 12 -14 13
-22 4 -38 -14 -28 -22 -27 -14 3 4 16 1 25 -10 29 -23 9 -20 30 9 57 17 16 22
27 15 34 -5 5 -9 21 -9 36 2 25 2 25 6 -2 2 -16 10 -28 18 -28z m-3455 -77 c0
-6 6 -13 13 -16 6 -2 9 -7 5 -11 -3 -4 -19 -1 -35 6 -15 8 -37 12 -48 10 -16
-4 -17 -2 -7 10 14 18 72 18 72 1z m2493 -55 c8 -30 0 -36 -18 -12 -18 24 -19
34 -1 34 7 0 16 -10 19 -22z m903 0 c-8 -13 -17 -39 -21 -58 -4 -19 -14 -45
-22 -57 -9 -13 -13 -29 -10 -38 5 -10 25 4 78 53 74 70 89 81 89 64 0 -6 -27
-35 -61 -65 l-60 -55 31 -18 c17 -10 28 -24 26 -31 -4 -8 3 -13 17 -13 18 0
19 -2 7 -10 -12 -8 -13 -13 -2 -30 14 -24 16 -74 2 -65 -6 4 -10 -6 -10 -22 0
-19 -3 -24 -9 -14 -7 10 -13 11 -30 1 -26 -13 -57 -6 -65 17 -8 20 2 32 13 14
14 -22 22 4 15 48 -4 22 -12 49 -19 58 -13 17 -15 17 -39 -6 -20 -18 -23 -27
-14 -33 10 -6 10 -10 -2 -18 -8 -5 -20 -10 -26 -10 -7 0 -14 -7 -18 -15 -3 -9
0 -15 10 -15 8 0 12 -4 9 -10 -3 -5 -15 -10 -27 -10 -30 0 -16 42 35 101 33
38 41 55 39 80 -2 16 4 46 13 64 8 19 17 49 18 67 2 34 12 48 35 48 10 0 9 -5
-2 -22z m71 0 c-3 -8 -6 -5 -6 6 -1 11 2 17 5 13 3 -3 4 -12 1 -19z m-53 -52
c-3 -9 -10 -16 -15 -16 -6 0 -5 9 1 21 13 24 24 20 14 -5z m-900 -12 c8 -21 8
-24 -3 -24 -5 0 -11 9 -14 20 -6 24 8 27 17 4z m169 -4 c3 -11 1 -20 -4 -20
-5 0 -9 2 -9 4 0 2 -3 11 -6 20 -3 9 -2 16 4 16 5 0 12 -9 15 -20z m-43 -31
c0 -6 9 -8 20 -4 11 3 20 2 20 -3 0 -15 -43 -23 -52 -9 -11 17 -10 27 2 27 6
0 10 -5 10 -11z m742 -11 c-7 -7 -12 -8 -12 -2 0 6 3 14 7 17 3 4 9 5 12 2 2
-3 -1 -11 -7 -17z m-846 -26 c-9 -8 -26 10 -26 26 1 15 2 15 15 -2 8 -11 13
-21 11 -24z m74 19 c0 -5 -7 -12 -16 -15 -24 -9 -28 -7 -14 9 14 17 30 20 30
6z m-2560 -26 c0 -8 7 -15 16 -15 29 0 120 -48 136 -72 19 -29 31 -78 19 -78
-5 0 -12 12 -15 26 -10 39 -36 74 -55 74 -10 0 -26 7 -37 15 -10 8 -28 15 -39
15 -12 0 -26 5 -33 12 -15 15 -16 38 -2 38 6 0 10 -7 10 -15z m5950 -1 c0 -3
-68 -34 -76 -34 -1 0 -2 8 -1 19 1 13 7 17 21 13 11 -3 17 -1 13 5 -4 6 3 8
18 5 14 -2 25 -6 25 -8z m-6322 -23 c4 -22 3 -22 -16 -4 -20 19 -19 37 1 30 7
-2 13 -14 15 -26z m2970 20 c8 -5 12 -16 10 -24 -2 -13 -7 -12 -27 8 -23 25
-12 35 17 16z m-88 -10 c0 -12 -20 -25 -27 -18 -7 7 6 27 18 27 5 0 9 -4 9 -9z
m-2817 -31 c-3 -11 -10 -20 -17 -20 -6 0 -4 -4 4 -10 18 -11 9 -23 -12 -15 -9
4 -15 17 -15 30 0 14 3 22 8 20 4 -3 10 -1 14 5 11 18 23 11 18 -10z m3097
-11 c0 -6 -4 -7 -10 -4 -5 3 -10 11 -10 16 0 6 5 7 10 4 6 -3 10 -11 10 -16z
m3154 15 c9 -4 16 -17 15 -33 l-1 -26 -11 25 c-9 18 -18 24 -36 22 -15 -2 -21
0 -17 7 8 12 26 14 50 5z m-3214 -19 c0 -8 -7 -15 -15 -15 -26 0 -18 20 13 29
1 1 2 -6 2 -14z m3045 5 c-3 -5 -13 -10 -21 -10 -8 0 -12 -4 -9 -10 3 -5 0 -7
-9 -4 -16 6 -194 -41 -239 -63 -16 -8 -49 -30 -74 -49 -24 -19 -56 -34 -69
-34 -14 0 -23 -4 -20 -9 3 -4 -6 -6 -19 -3 -14 2 -25 8 -25 12 0 9 36 20 65
20 11 0 36 13 55 29 41 33 109 71 128 71 7 0 11 4 8 9 -4 5 2 7 11 5 10 -3 54
6 98 20 87 26 130 32 120 16z m-1995 -15 c0 -7 -9 -20 -20 -30 -11 -10 -20
-23 -20 -28 0 -11 -51 -57 -62 -57 -11 0 -10 4 7 36 8 16 15 25 15 21 0 -5 5
-5 10 -2 7 4 7 11 2 18 -5 7 -12 22 -15 35 -5 21 -3 23 39 21 25 -2 44 -8 44
-14z m-4068 -27 c-9 -9 -12 -7 -12 12 0 19 3 21 12 12 9 -9 9 -15 0 -24z
m2878 23 c0 -5 -7 -11 -15 -15 -15 -5 -20 5 -8 17 9 10 23 9 23 -2z m701 -34
c-8 -8 -11 -7 -11 4 0 20 13 34 18 19 3 -7 -1 -17 -7 -23z m2619 12 c0 -11 -4
-17 -10 -14 -5 3 -10 13 -10 21 0 8 5 14 10 14 6 0 10 -9 10 -21z m-6160 -24
c0 -7 -13 -11 -32 -10 -18 1 -36 -3 -40 -9 -5 -6 -8 -2 -8 10 0 18 6 21 40 21
24 0 40 -4 40 -12z m2070 -4 c0 -12 -39 -21 -45 -11 -3 5 3 11 12 13 29 8 33
7 33 -2z m4154 -16 c-4 -8 -10 -13 -15 -10 -4 3 -6 12 -3 20 4 8 10 13 15 10
4 -3 6 -12 3 -20z m-34 -16 c0 -5 -7 -6 -15 -3 -8 4 -15 13 -15 21 0 13 3 13
15 3 8 -7 15 -16 15 -21z m-2650 -9 c0 -5 -9 -10 -20 -10 -11 0 -20 5 -20 10
0 6 9 10 20 10 11 0 20 -4 20 -10z m-1459 -53 c-8 -8 -11 -5 -11 9 0 27 14 41
18 19 2 -9 -1 -22 -7 -28z m723 27 c8 -21 8 -24 -3 -24 -5 0 -11 9 -14 20 -6
24 8 27 17 4z m146 -14 c0 -14 -14 -12 -28 2 -19 19 -14 30 8 18 11 -6 20 -15
20 -20z m500 -14 c0 -8 -4 -18 -10 -21 -5 -3 -10 3 -10 14 0 12 5 21 10 21 6
0 10 -6 10 -14z m2040 -4 c0 -4 -20 -13 -44 -20 -31 -8 -55 -24 -84 -57 -23
-26 -43 -41 -47 -36 -9 15 87 108 116 114 41 8 59 7 59 -1z m-2520 -17 c-7 -8
-17 -15 -22 -15 -6 0 -5 7 2 15 7 8 17 15 22 15 6 0 5 -7 -2 -15z m-146 -11
c8 -21 8 -24 -3 -24 -5 0 -11 9 -14 20 -6 24 8 27 17 4z m-2469 -14 c3 -5 1
-10 -4 -10 -6 0 -11 5 -11 10 0 6 2 10 4 10 3 0 8 -4 11 -10z m3101 -28 c-9
-8 -26 10 -26 26 1 15 2 15 15 -2 8 -11 13 -21 11 -24z m-3086 -9 c0 -14 -19
-38 -25 -32 -8 8 5 39 16 39 5 0 9 -3 9 -7z m2473 -8 c4 -8 2 -17 -2 -20 -5
-2 -11 4 -14 15 -6 23 8 27 16 5z m69 -52 c-9 -7 -24 -13 -33 -13 -10 0 -19
-6 -22 -12 -3 -7 -5 2 -4 20 0 31 12 43 19 20 3 -7 12 -9 22 -5 9 4 14 11 11
17 -3 5 -3 16 1 22 6 9 10 5 15 -12 4 -17 1 -29 -9 -37z m548 28 c0 -19 -17
-38 -25 -29 -7 7 7 48 16 48 5 0 9 -9 9 -19z m-3138 -23 c-6 -6 -15 -8 -19 -4
-4 4 -1 11 7 16 19 12 27 3 12 -12z m-508 -4 c9 -24 7 -28 -9 -14 -17 14 -20
30 -6 30 5 0 12 -7 15 -16z m456 -19 c-7 -8 -17 -12 -23 -8 -6 4 -3 11 8 19
23 17 32 10 15 -11z m-910 5 c13 -8 13 -10 -2 -10 -9 0 -20 5 -23 10 -8 13 5
13 25 0z m58 -8 c2 -7 -2 -10 -12 -6 -9 3 -16 11 -16 16 0 13 23 5 28 -10z
m652 -2 c0 -11 -6 -23 -14 -26 -8 -3 -12 -12 -9 -20 4 -10 0 -12 -11 -8 -19 7
-19 9 -6 34 8 16 8 18 -5 14 -8 -4 -15 -3 -15 0 0 6 37 24 53 25 4 1 7 -8 7
-19z m3425 10 c3 -5 3 -16 -2 -22 -4 -7 -6 -22 -4 -33 2 -11 0 -17 -5 -12 -4
4 -8 23 -9 42 -1 34 8 45 20 25z m-4145 -42 c0 -6 -7 -5 -15 2 -8 7 -15 17
-15 22 0 6 7 5 15 -2 8 -7 15 -17 15 -22z m870 12 c-19 -12 -30 -12 -30 -1 0
10 31 20 40 14 2 -2 -2 -8 -10 -13z m3227 -12 c-3 -7 -5 -2 -5 12 0 14 2 19 5
13 2 -7 2 -19 0 -25z m-3591 -16 c-9 -8 -26 10 -26 26 1 15 2 15 15 -2 8 -11
13 -21 11 -24z m133 -14 l-12 -22 -9 24 c-7 19 -5 27 9 38 15 11 18 11 21 -2
2 -8 -2 -25 -9 -38z m2886 22 c-5 -16 -10 -19 -18 -11 -7 7 -6 15 3 26 7 8 15
13 17 11 3 -2 2 -14 -2 -26z m-3399 4 c-3 -9 -6 -20 -6 -25 0 -5 -7 -9 -15 -9
-9 0 -12 6 -8 16 3 9 0 20 -8 25 -10 6 -6 9 15 9 22 0 27 -4 22 -16z m58 -11
c14 -14 24 -28 22 -30 -6 -6 -66 39 -66 49 0 15 17 8 44 -19z m636 19 c0 -5
-11 -14 -25 -20 -14 -6 -25 -16 -25 -22 0 -5 -4 -10 -9 -10 -4 0 -6 11 -3 25
2 14 7 23 11 21 4 -3 13 -1 21 5 19 11 30 11 30 1z m5075 -2 c3 -5 1 -10 -4
-10 -6 0 -11 -8 -11 -17 0 -15 -2 -15 -9 -4 -7 11 -13 12 -23 3 -8 -6 -116
-64 -241 -130 -125 -65 -224 -122 -220 -126 4 -4 -1 -4 -11 0 -11 4 -17 3 -14
-2 3 -5 -11 -10 -33 -11 -21 -1 -80 -18 -131 -37 -127 -47 -178 -60 -191 -47
-6 6 5 13 34 20 161 39 455 153 443 173 -3 4 3 5 12 1 12 -4 15 -3 10 5 -5 8
-1 10 10 5 13 -5 15 -3 9 7 -5 9 -4 11 3 6 16 -10 234 103 226 116 -4 7 -2 8
4 4 6 -4 35 7 64 24 59 33 64 35 73 20z m-2127 -7 c-10 -2 -28 -2 -40 0 -13 2
-5 4 17 4 22 1 32 -1 23 -4z m-3730 -32 c3 -8 -1 -12 -9 -9 -7 2 -15 10 -17
17 -3 8 1 12 9 9 7 -2 15 -10 17 -17z m-16 -22 c17 -1 18 -3 6 -6 -10 -2 -18
-13 -18 -24 0 -10 -4 -19 -10 -19 -5 0 -10 11 -10 24 0 15 -7 26 -20 29 -11 3
-20 11 -20 17 0 9 8 7 25 -4 13 -9 35 -17 47 -17z m526 13 c2 -7 -2 -10 -12
-6 -9 3 -16 11 -16 16 0 13 23 5 28 -10z m3574 -4 c11 -13 17 -18 14 -11 -4 6
-2 14 4 18 5 3 10 -3 10 -14 0 -12 -5 -21 -11 -21 -8 0 -8 -5 1 -15 10 -12 10
-15 -3 -15 -19 0 -34 18 -42 53 -9 33 0 34 27 5z m-4026 -36 c2 -40 -6 -40
-28 -3 -18 32 -16 40 10 37 11 -2 17 -13 18 -34z m44 28 c8 -5 12 -12 9 -15
-8 -8 -39 5 -39 16 0 11 11 11 30 -1z m3388 -14 c-3 -13 0 -23 6 -22 18 2 19
-18 1 -29 -11 -7 -18 -6 -24 4 -5 8 -14 10 -21 6 -9 -5 -11 -4 -6 3 5 8 0 12
-13 12 -11 0 -23 -4 -26 -10 -3 -5 0 -10 7 -10 7 0 19 -9 25 -19 10 -16 9 -20
-8 -24 -12 -3 -19 0 -19 9 0 8 -6 13 -12 12 -7 -2 -12 3 -10 10 1 6 -2 12 -8
12 -5 0 -10 4 -10 8 0 12 47 32 75 32 16 0 25 6 25 15 0 8 5 15 11 15 7 0 9
-10 7 -24z m2402 -8 c0 -6 -7 -5 -15 2 -8 7 -15 17 -15 22 0 6 7 5 15 -2 8 -7
15 -17 15 -22z m-5680 2 c0 -6 -67 -7 -80 0 -3 1 9 5 25 9 32 8 55 4 55 -9z
m350 -2 c0 -13 -23 -5 -28 10 -2 7 2 10 12 6 9 -3 16 -11 16 -16z m450 2 c0
-5 -10 -10 -22 -10 -19 0 -20 2 -8 10 19 13 30 13 30 0z m4816 -38 c-11 -10
-15 4 -8 28 l7 25 3 -23 c2 -13 1 -26 -2 -30z m115 28 c13 -7 19 -7 19 0 0 5
7 10 15 10 26 0 16 -14 -23 -32 -38 -19 -59 -11 -49 16 7 19 12 19 38 6z
m-5331 -31 c0 -5 -9 -4 -19 3 -11 7 -17 16 -14 20 5 10 33 -10 33 -23z m420
22 c0 -5 -7 -14 -15 -21 -12 -10 -15 -10 -15 2 0 8 3 18 7 21 9 10 23 9 23 -2z
m-83 -18 c-9 -9 -19 -14 -23 -11 -10 10 6 28 24 28 15 0 15 -1 -1 -17z m3187
-21 c5 -3 1 -9 -10 -12 -23 -9 -34 -4 -34 15 0 13 17 12 44 -3z m-4154 -7 c0
-8 -4 -15 -9 -15 -5 0 -11 7 -15 15 -3 9 0 15 9 15 8 0 15 -7 15 -15z m110 0
c7 -8 8 -15 2 -15 -5 0 -15 7 -22 15 -7 8 -8 15 -2 15 5 0 15 -7 22 -15z m560
0 c7 -8 8 -15 2 -15 -5 0 -15 7 -22 15 -7 8 -8 15 -2 15 5 0 15 -7 22 -15z
m255 -4 c-4 -12 0 -21 12 -25 10 -4 19 -2 21 3 6 19 22 12 22 -9 0 -11 -4 -20
-9 -20 -4 0 -6 -12 -3 -27 3 -19 1 -25 -6 -18 -5 6 -12 19 -14 30 -3 13 -11
19 -25 18 -18 -2 -20 2 -18 30 3 39 3 37 16 37 6 0 8 -8 4 -19z m2615 -3 c0
-19 -2 -20 -10 -8 -13 19 -13 30 0 30 6 0 10 -10 10 -22z m-2510 2 c0 -5 -4
-10 -10 -10 -5 0 -10 -7 -10 -15 0 -8 -4 -15 -10 -15 -5 0 -10 11 -10 25 0 18
5 25 20 25 11 0 20 -4 20 -10z m2690 -11 c0 -10 -12 -11 -34 -3 -9 3 -14 10
-11 14 6 10 45 1 45 -11z m2253 -15 c-7 -18 -19 -18 -26 0 -7 18 1 26 18 19 8
-2 11 -11 8 -19z m-2293 -16 c0 -6 -7 -5 -15 2 -8 7 -15 17 -15 22 0 6 7 5 15
-2 8 -7 15 -17 15 -22z m-3520 12 c12 -8 11 -10 -7 -10 -13 0 -23 5 -23 10 0
13 11 13 30 0z m928 -11 c17 -26 14 -29 -20 -22 -19 4 -28 12 -28 24 0 26 32
24 48 -2z m1668 6 c10 -8 15 -15 9 -15 -6 0 -5 -4 1 -8 6 -4 15 -25 18 -47 7
-38 6 -41 -18 -43 -15 -1 -26 -1 -26 1 0 1 4 17 9 35 9 30 8 32 -15 32 -13 0
-24 5 -24 10 0 6 5 10 11 10 6 0 8 9 4 20 -8 24 4 26 31 5z m627 -5 c-5 -20
-21 -36 -28 -28 -5 4 23 48 30 48 2 0 1 -9 -2 -20z m785 -16 c-10 -10 -28 6
-28 24 0 15 1 15 17 -1 9 -9 14 -19 11 -23z m-4168 6 c0 -11 -4 -20 -10 -20
-5 0 -10 9 -10 20 0 11 5 20 10 20 6 0 10 -9 10 -20z m704 4 c4 -10 1 -14 -6
-12 -15 5 -23 28 -10 28 5 0 13 -7 16 -16z m2826 -20 c-18 -21 -24 -10 -9 18
8 14 14 18 17 10 2 -7 -2 -19 -8 -28z m-3305 -4 c4 -6 -2 -7 -16 -1 -13 4 -25
14 -27 20 -3 10 0 10 16 2 12 -6 24 -16 27 -21z m3501 -7 c-7 -7 -26 7 -26 19
0 6 6 6 15 -2 9 -7 13 -15 11 -17z m-2842 2 c-6 -16 -24 -21 -24 -7 0 11 11
22 21 22 5 0 6 -7 3 -15z m146 6 c0 -5 8 -8 18 -7 9 2 22 -4 28 -12 9 -13 5
-19 -26 -34 -30 -15 -37 -23 -33 -41 4 -20 3 -21 -9 -5 -13 16 -16 16 -44 -3
-41 -27 -46 -24 -40 19 3 20 5 43 6 50 0 7 5 10 10 7 6 -4 9 -22 7 -41 -4 -33
-4 -34 14 -18 11 10 19 23 19 31 0 14 16 18 22 4 2 -4 11 -5 22 -2 17 7 17 8
2 23 -18 19 -21 38 -6 38 6 0 10 -4 10 -9z m3184 -22 c-4 -6 -11 -6 -20 2 -21
17 -17 31 6 19 11 -6 18 -15 14 -21z m1789 21 c7 0 3 -7 -7 -15 -21 -16 -36
-11 -36 12 0 10 6 13 16 9 9 -3 21 -6 27 -6z m-5283 -30 c0 -11 -4 -20 -10
-20 -5 0 -10 9 -10 20 0 11 5 20 10 20 6 0 10 -9 10 -20z m2660 5 c11 -13 9
-15 -11 -13 -20 3 -24 -1 -22 -19 3 -27 -5 -29 -23 -5 -15 20 -18 36 -5 28 5
-3 11 1 15 9 7 19 30 19 46 0z m-3362 -13 c6 -18 -15 -14 -22 4 -4 10 -1 14 6
12 6 -2 14 -10 16 -16z m882 3 c-7 -9 -15 -13 -17 -11 -7 7 7 26 19 26 6 0 6
-6 -2 -15z m1834 6 c3 -5 0 -20 -7 -34 -13 -25 -13 -25 -37 -7 -26 20 -26 21
5 38 25 14 32 15 39 3z m1036 -4 c0 -27 -54 -65 -102 -72 -61 -9 -57 -5 -233
-233 l-19 -25 49 -41 c182 -153 315 -275 315 -290 0 -5 -11 1 -24 13 -26 25
-66 22 -66 -4 0 -9 6 -12 16 -8 12 4 15 2 12 -8 -6 -19 -35 -24 -53 -9 -22 18
-19 28 15 49 l30 18 -107 96 c-60 52 -132 114 -161 137 -35 28 -50 46 -44 54
124 159 206 256 218 256 8 0 24 11 36 25 11 13 25 22 30 19 5 -3 1 -12 -9 -20
-17 -14 -16 -15 7 -8 14 3 34 14 44 25 19 18 19 18 -2 12 -12 -3 -22 -1 -22 5
0 9 20 17 58 21 6 0 12 -5 12 -12z m503 -11 c18 -14 18 -15 1 -42 -20 -30 -32
-17 -14 15 8 17 8 21 -4 21 -8 0 -18 5 -21 10 -9 15 17 12 38 -4z m-4323 -11
c-7 -8 -16 -15 -21 -15 -5 0 -6 7 -3 15 4 8 13 15 21 15 13 0 13 -3 3 -15z
m-40 -16 c0 -5 -7 -9 -15 -9 -15 0 -20 12 -9 23 8 8 24 -1 24 -14z m6119 5 c6
-6 -43 -22 -51 -17 -5 2 -8 11 -8 19 0 11 7 13 28 8 15 -4 29 -8 31 -10z
m-6031 -6 c-2 -5 -8 -9 -13 -9 -5 0 -11 4 -13 9 -1 5 4 9 13 9 9 0 14 -4 13
-9z m6155 -31 c-3 -5 4 -6 18 -2 17 5 21 4 14 -3 -15 -16 -65 -26 -65 -13 0 6
5 11 10 11 6 0 8 12 5 28 -6 26 -6 26 9 8 8 -10 13 -23 9 -29z m-5422 3 c5 0
9 -4 9 -10 0 -5 -7 -7 -15 -4 -8 4 -14 16 -14 28 1 16 2 17 6 4 2 -10 9 -18
14 -18z m5099 -1 c0 -10 -4 -19 -10 -19 -5 0 -10 12 -10 26 0 14 4 23 10 19 6
-3 10 -15 10 -26z m220 -15 c0 -8 -4 -12 -10 -9 -5 3 -10 13 -10 21 0 8 5 12
10 9 6 -3 10 -13 10 -21z m178 9 c-2 -9 -10 -19 -18 -21 -12 -4 -13 -3 -3 10
7 8 10 18 6 21 -3 4 -1 7 6 7 7 0 11 -8 9 -17z m-254 -17 c-6 -16 -24 -23 -24
-8 0 10 22 33 27 28 2 -2 1 -11 -3 -20z m121 -5 c-3 -6 -14 -11 -23 -11 -13 0
-13 2 4 14 21 15 30 14 19 -3z m141 -16 c-10 -8 -24 -16 -30 -18 -6 -3 4 -21
23 -41 31 -32 36 -34 51 -21 18 16 40 20 40 7 0 -4 -9 -13 -20 -20 -27 -16
-15 -35 16 -28 13 4 24 2 24 -3 0 -5 -7 -11 -15 -13 -12 -2 -3 -19 34 -65 53
-65 75 -119 59 -146 -12 -22 7 -58 27 -51 8 4 15 2 15 -4 0 -16 -41 -22 -61
-9 -21 13 -25 27 -8 27 5 0 7 5 4 10 -4 6 -2 17 5 25 16 20 1 68 -40 119 -24
31 -40 43 -52 40 -20 -6 -25 12 -5 19 7 3 -17 33 -60 74 -40 37 -73 73 -73 80
0 6 -6 14 -12 17 -7 3 -4 4 7 1 11 -2 34 2 50 9 36 16 48 10 21 -9z m-5211 4
c11 -17 -1 -21 -15 -4 -8 9 -8 15 -2 15 6 0 14 -5 17 -11z m3335 -24 c14 -7
33 -22 43 -33 18 -20 18 -23 -4 -95 -25 -84 -26 -85 -134 -116 -69 -21 -70
-21 -115 -91 l-45 -70 -43 4 c-47 4 -54 -3 -67 -62 -5 -26 -3 -36 12 -47 22
-16 15 -26 -15 -19 -19 5 -21 11 -16 49 3 25 0 46 -6 50 -5 3 -10 11 -10 16 0
6 5 7 11 4 5 -4 18 2 27 12 19 21 60 27 78 12 8 -6 26 12 62 64 l51 74 81 23
c68 19 84 28 96 52 13 25 13 28 0 28 -9 0 -13 6 -10 13 3 8 0 26 -5 40 -14 35
2 35 19 0 12 -26 13 -27 21 -8 14 36 10 50 -20 68 -40 23 -45 22 -91 -19 -26
-24 -47 -34 -62 -32 -22 3 -40 38 -19 38 6 0 11 -7 11 -15 0 -24 13 -18 53 23
30 31 35 40 25 51 -11 10 -7 11 17 5 17 -4 41 -12 55 -19z m1482 13 c3 -7 -1
-23 -7 -36 -10 -19 -14 -20 -24 -8 -10 11 -9 19 1 35 15 24 24 26 30 9z
m-1652 -41 c0 -5 -7 -4 -15 3 -8 7 -15 20 -15 29 1 13 3 13 15 -3 8 -11 15
-24 15 -29z m290 23 c0 -5 -4 -10 -10 -10 -5 0 -10 5 -10 10 0 6 5 10 10 10 6
0 10 -4 10 -10z m1526 1 c-8 -12 -46 -21 -46 -11 0 9 18 18 38 19 7 1 11 -3 8
-8z m-5238 -18 c-2 -10 -20 -27 -41 -38 -46 -24 -68 -79 -49 -121 16 -33 15
-39 -3 -24 -15 13 -20 75 -9 116 3 13 22 29 45 39 21 10 39 24 39 32 0 7 5 13
11 13 6 0 9 -8 7 -17z m6362 -13 c0 -5 -10 -10 -22 -10 -19 0 -20 2 -8 10 19
13 30 13 30 0z m-3320 -20 c-6 -11 -15 -20 -21 -20 -6 0 -6 7 1 20 6 11 15 20
21 20 6 0 6 -7 -1 -20z m290 -12 c0 -6 -7 -5 -15 2 -8 7 -15 17 -15 22 0 6 7
5 15 -2 8 -7 15 -17 15 -22z m1746 -3 c-3 -29 -16 -46 -16 -22 0 10 -4 17 -10
17 -17 0 -11 18 8 23 9 3 18 5 19 6 1 0 0 -10 -1 -24z m1234 15 c0 -5 -10 -10
-22 -10 -19 0 -20 2 -8 10 19 13 30 13 30 0z m-60 -9 c0 -5 -7 -12 -16 -15
-24 -9 -28 -7 -14 9 14 17 30 20 30 6z m-1050 -47 c0 -8 -4 -14 -10 -14 -5 0
-10 9 -10 21 0 11 5 17 10 14 6 -3 10 -13 10 -21z m144 -156 c64 -3 140 3 151
12 12 10 65 1 65 -10 0 -5 -30 -12 -67 -16 -38 -3 -71 -11 -74 -16 -4 -6 -15
-6 -29 2 -13 7 -43 10 -72 8 -43 -5 -48 -3 -43 13 8 23 -11 59 -30 59 -8 0
-15 5 -15 10 0 6 4 10 9 10 5 0 4 13 -2 29 -6 16 -15 28 -21 27 -6 -2 -8 -1
-3 1 4 3 7 14 7 26 1 12 19 -17 42 -65 l41 -88 41 -2z m876 143 c0 -11 -4 -22
-9 -25 -5 -3 -8 5 -7 19 1 29 16 34 16 6z m-1178 -8 c3 -15 5 -15 21 2 16 15
20 16 28 4 5 -9 4 -15 -4 -18 -7 -2 -16 -8 -22 -15 -7 -8 -17 -3 -37 17 -23
23 -24 27 -8 27 10 0 20 -8 22 -17z m-1717 -4 c10 -14 1 -21 -19 -13 -9 3 -13
10 -10 15 7 12 21 11 29 -2z m1655 2 c0 -6 -4 -13 -10 -16 -5 -3 -10 1 -10 9
0 9 5 16 10 16 6 0 10 -4 10 -9z m180 5 c0 -9 -30 -14 -35 -6 -4 6 3 10 14 10
12 0 21 -2 21 -4z m-1866 -32 c9 -3 13 -11 9 -18 -3 -6 -1 -6 8 2 15 14 29 16
29 3 0 -5 -13 -14 -30 -20 -20 -6 -30 -7 -30 0 0 6 -4 7 -10 4 -12 -7 -12 -3
-4 19 7 18 7 18 28 10z m1697 -3 c-11 -7 -11 -18 -2 -61 6 -29 9 -67 5 -84 -7
-39 27 -89 54 -79 14 6 15 4 4 -9 -10 -12 -9 -18 3 -28 8 -7 15 -19 15 -27 0
-8 5 -11 10 -8 6 3 10 -1 10 -9 0 -24 -28 -19 -35 7 -4 12 -17 33 -30 47 -39
43 -48 72 -51 159 -3 87 -1 101 19 101 8 0 7 -3 -2 -9z m94 -11 c-4 -6 5 -23
19 -37 14 -14 23 -30 20 -35 -3 -5 -18 4 -33 19 -19 20 -25 33 -19 46 5 9 11
17 14 17 3 0 2 -5 -1 -10z m-1161 -26 c11 -28 6 -39 -9 -20 -8 11 -15 23 -15
28 0 14 18 9 24 -8z m-674 -13 c0 -11 -31 -24 -39 -16 -3 3 1 10 9 15 19 12
30 12 30 1z m2138 -24 c5 -24 -15 -21 -21 4 -3 13 -1 19 6 16 7 -2 13 -11 15
-20z m-5441 -2 c9 -25 -4 -29 -17 -6 -7 15 -7 21 0 21 6 0 13 -7 17 -15z m283
11 c0 -3 -4 -8 -10 -11 -5 -3 -10 -1 -10 4 0 6 5 11 10 11 6 0 10 -2 10 -4z
m3710 -36 c0 -11 4 -20 9 -20 5 0 12 -15 15 -32 3 -18 13 -45 20 -60 11 -21
12 -28 3 -28 -13 0 -32 40 -47 95 -4 17 -11 38 -15 48 -4 10 -3 17 4 17 6 0
11 -9 11 -20z m-3732 -2 c-3 -7 -13 -15 -24 -17 -16 -3 -17 -1 -5 13 16 19 34
21 29 4z m4516 -4 c9 -22 -3 -32 -14 -14 -12 19 -12 30 -1 30 5 0 12 -7 15
-16z m46 6 c0 -5 -7 -10 -15 -10 -8 0 -15 5 -15 10 0 6 7 10 15 10 8 0 15 -4
15 -10z m389 -26 c3 -16 1 -17 -13 -5 -19 16 -21 34 -3 29 6 -3 14 -13 16 -24z
m-5179 -4 c6 -11 7 -20 3 -20 -15 1 -43 27 -36 33 11 12 22 8 33 -13z m162
-12 c-6 -6 -15 -8 -19 -4 -4 4 -1 11 7 16 19 12 27 3 12 -12z m4808 3 c0 -5
-7 -11 -15 -15 -15 -5 -20 5 -8 17 9 10 23 9 23 -2z m-4924 -26 c-3 -10 1 -15
12 -15 13 0 12 -4 -8 -20 -30 -23 -44 -25 -36 -5 3 9 0 15 -9 15 -8 0 -15 5
-15 10 0 9 14 14 33 11 4 0 7 4 7 9 0 6 5 10 11 10 6 0 9 -7 5 -15z m74 6 c0
-13 -28 -22 -35 -11 -3 4 1 11 7 13 20 8 28 8 28 -2z m2606 -63 c0 -21 -3 -38
-7 -38 -11 0 -21 38 -14 50 4 6 1 17 -5 25 -6 8 -8 19 -4 26 11 18 29 -20 30
-63z m2038 56 c8 -22 8 -26 -4 -19 -5 3 -10 2 -10 -3 0 -5 -9 -12 -20 -15 -11
-3 -20 -1 -20 5 0 5 9 12 21 15 12 3 18 11 15 19 -3 8 -1 14 3 14 5 0 12 -7
15 -16z m436 -5 c0 -11 -4 -17 -10 -14 -5 3 -10 13 -10 21 0 8 5 14 10 14 6 0
10 -9 10 -21z m-1583 -4 c-4 -8 -2 -17 3 -20 6 -4 10 -11 10 -17 0 -6 -9 -3
-21 8 -17 15 -22 16 -29 4 -5 -8 -12 -11 -16 -8 -12 13 4 36 28 41 13 2 25 5
27 6 2 0 1 -6 -2 -14z m-3457 -11 c0 -8 -4 -12 -10 -9 -5 3 -10 10 -10 16 0 5
5 9 10 9 6 0 10 -7 10 -16z m1564 0 c9 -3 16 -10 16 -16 0 -5 -4 -7 -9 -4 -5
3 -14 -1 -21 -9 -7 -8 -18 -15 -24 -15 -7 0 -28 -13 -46 -30 -38 -34 -55 -39
-41 -12 5 9 14 29 19 44 8 20 17 26 33 23 11 -2 28 2 36 10 17 17 16 17 37 9z
m-1620 -38 c-4 -18 -1 -27 15 -36 28 -14 26 -24 -6 -39 -30 -14 -33 -14 -32
-5 0 4 -5 11 -13 16 -11 7 -10 11 2 21 9 6 14 20 12 31 -2 10 2 22 10 27 19
12 19 12 12 -15z m-38 -24 c-9 -8 -26 10 -26 26 1 15 2 15 15 -2 8 -11 13 -21
11 -24z m84 31 c0 -14 -19 -38 -25 -32 -8 8 5 39 16 39 5 0 9 -3 9 -7z m398
-20 c-1 -10 1 -24 5 -31 15 -23 -2 -72 -25 -72 -17 0 -18 2 -8 15 10 12 10 15
-1 15 -10 1 -10 4 3 13 12 9 14 17 7 30 -7 11 -6 17 1 17 5 0 10 7 10 15 0 8
3 15 6 15 3 0 4 -8 2 -17z m1227 7 c-3 -5 -13 -10 -21 -10 -8 0 -14 5 -14 10
0 6 9 10 21 10 11 0 17 -4 14 -10z m60 0 c3 -5 -3 -10 -14 -10 -11 0 -23 5
-26 10 -3 6 3 10 14 10 11 0 23 -4 26 -10z m50 -21 c-3 -4 -12 -6 -20 -3 -8 4
-13 10 -10 15 3 4 12 6 20 3 8 -4 13 -10 10 -15z m1779 5 c4 -10 1 -14 -6 -12
-15 5 -23 28 -10 28 5 0 13 -7 16 -16z m-3019 -4 c-3 -5 -10 -10 -16 -10 -5 0
-9 5 -9 10 0 6 7 10 16 10 8 0 12 -4 9 -10z m1095 -10 c13 -11 20 -23 16 -27
-4 -4 -10 -2 -15 5 -9 15 -71 -6 -71 -25 0 -7 -5 -13 -11 -13 -6 0 -8 7 -5 16
3 9 6 18 6 20 0 2 8 4 17 4 9 0 13 3 10 7 -7 7 11 33 23 33 4 0 17 -9 30 -20z
m1952 -50 c-2 -3 -10 4 -18 14 -11 15 -11 22 -1 34 10 13 13 11 18 -14 3 -16
3 -31 1 -34z m-3082 41 c0 -5 -7 -12 -16 -15 -24 -9 -28 -7 -14 9 14 17 30 20
30 6z m-440 -11 c0 -5 -4 -10 -10 -10 -5 0 -10 5 -10 10 0 6 5 10 10 10 6 0
10 -4 10 -10z m5579 -36 c2 -2 -23 -4 -57 -4 -33 0 -64 -4 -67 -10 -3 -6 1 -7
9 -4 9 3 16 2 16 -4 0 -5 -9 -12 -20 -15 -13 -3 -20 0 -20 10 0 11 -7 13 -27
9 -119 -23 -514 -54 -498 -38 6 5 82 15 170 21 189 14 309 27 350 40 27 8 133
4 144 -5z m-1879 -12 c0 -10 -7 -13 -20 -9 -17 4 -20 2 -15 -14 8 -24 0 -24
-25 1 -26 26 -25 28 8 32 48 6 52 5 52 -10z m-3742 -10 c6 -18 -15 -14 -22 4
-4 10 -1 14 6 12 6 -2 14 -10 16 -16z m4404 3 c27 -3 77 -19 113 -36 68 -31
98 -35 155 -20 48 13 254 23 217 11 -16 -5 -35 -6 -43 -3 -8 3 -20 1 -27 -5
-14 -11 -130 -25 -202 -24 -33 0 -75 11 -125 32 -64 28 -86 32 -160 33 -60 0
-104 -7 -150 -22 -68 -22 -150 -28 -150 -11 0 5 17 9 38 9 20 -1 71 8 112 19
82 23 124 30 155 26 11 -2 41 -6 67 -9z m-2862 -4 c0 -12 -20 -25 -27 -18 -7
7 6 27 18 27 5 0 9 -4 9 -9z m2058 3 c29 -8 28 -21 -3 -26 -14 -3 -25 -4 -25
-2 0 1 -3 9 -6 18 -7 17 -1 19 34 10z m152 -22 c0 -5 -9 -17 -20 -27 -16 -14
-20 -15 -20 -4 0 16 19 39 32 39 4 0 8 -4 8 -8z m-3714 -26 c33 -18 42 -66 12
-66 -10 0 -18 7 -18 15 0 8 -4 15 -9 15 -5 0 -11 11 -13 25 -6 29 -8 29 28 11z
m2624 4 c0 -5 -4 -10 -10 -10 -5 0 -10 5 -10 10 0 6 5 10 10 10 6 0 10 -4 10
-10z m2850 -16 c0 -8 -4 -12 -10 -9 -5 3 -10 13 -10 21 0 8 5 12 10 9 6 -3 10
-13 10 -21z m-2375 -25 c5 -22 2 -36 -9 -47 -15 -15 -16 -14 -16 14 0 16 -6
36 -12 43 -11 11 -10 13 4 8 13 -4 15 -2 11 10 -4 10 -2 14 5 10 6 -4 14 -21
17 -38z m-3235 21 c0 -5 0 -13 0 -17 0 -5 -12 -11 -26 -15 -17 -4 -24 -3 -21
5 2 7 9 13 15 13 25 3 27 5 12 14 -13 8 -12 10 3 10 9 0 17 -4 17 -10z m3005
-20 c11 -17 26 -28 33 -25 13 5 15 -5 6 -30 -5 -13 -8 -14 -15 -3 -6 8 -9 -3
-9 -31 0 -34 -3 -42 -15 -38 -8 4 -17 2 -20 -3 -11 -17 -24 -11 -37 18 -8 16
-23 28 -38 30 -13 2 -42 19 -64 38 -22 19 -43 34 -47 34 -3 0 -33 -34 -65 -75
-57 -73 -94 -103 -59 -47 42 64 111 141 128 141 10 1 38 -14 61 -33 30 -25 46
-32 56 -26 10 7 11 10 3 10 -7 0 -13 4 -13 10 0 5 7 7 15 4 17 -7 19 4 5 26
-9 15 -8 15 50 29 3 0 14 -13 25 -29z m37 8 c-6 -6 -15 -8 -19 -4 -4 4 -1 11
7 16 19 12 27 3 12 -12z m28 -8 c0 -5 -5 -10 -11 -10 -5 0 -7 5 -4 10 3 6 8
10 11 10 2 0 4 -4 4 -10z m2564 -16 c9 -24 7 -28 -9 -14 -17 14 -20 30 -6 30
5 0 12 -7 15 -16z m-1474 -9 c0 -8 0 -16 -1 -17 0 -2 13 -41 30 -88 30 -81 31
-88 21 -158 -15 -111 -13 -156 11 -197 21 -35 22 -56 4 -127 -7 -27 -6 -28 34
-28 22 0 41 -4 41 -10 0 -15 -63 -12 -85 4 -18 13 -18 18 -7 48 17 49 15 75
-10 119 -21 38 -21 42 -9 158 11 102 11 122 -2 147 -15 30 -47 134 -47 153 0
6 5 11 10 11 6 0 10 -7 10 -15z m-4050 -5 c0 -10 -26 -20 -34 -13 -11 12 -6
19 14 20 11 1 20 -2 20 -7z m140 -33 c11 3 20 1 20 -5 0 -5 -14 -12 -31 -16
-30 -6 -32 -26 -3 -26 8 0 15 -3 15 -7 10 -64 9 -75 -6 -63 -8 6 -17 21 -20
31 -5 14 -12 18 -25 14 -23 -7 -37 13 -15 21 14 6 14 9 0 30 -13 20 -13 27 -3
38 11 12 16 11 30 -4 10 -11 25 -16 38 -13z m6010 13 c0 -5 -7 -10 -16 -10 -8
0 -12 5 -9 10 3 6 10 10 16 10 5 0 9 -4 9 -10z m-584 -15 c3 -8 -1 -21 -9 -29
-13 -13 -17 -13 -31 3 -21 23 -20 32 1 24 11 -4 14 -3 9 5 -4 7 -1 12 9 12 8
0 18 -7 21 -15z m-1472 -11 c4 -10 1 -14 -6 -12 -15 5 -23 28 -10 28 5 0 13
-7 16 -16z m152 1 c-3 -9 0 -15 9 -15 8 0 15 6 15 13 0 9 10 12 30 9 17 -2 30
-8 30 -12 0 -11 40 -25 59 -21 26 5 72 -22 88 -52 21 -41 40 -60 54 -52 5 4
19 -1 30 -11 13 -12 19 -13 19 -4 0 10 4 10 18 -2 9 -8 25 -18 35 -21 9 -4 17
-13 17 -22 0 -11 6 -14 24 -9 14 3 33 1 43 -5 16 -9 15 -10 -8 -11 -14 0 -30
-5 -36 -11 -9 -9 -19 -3 -42 21 -18 20 -35 31 -44 27 -9 -3 -21 1 -27 9 -7 8
-21 14 -30 14 -10 0 -29 14 -42 31 -53 71 -65 79 -112 79 -32 0 -48 5 -54 17
-8 13 -15 15 -38 6 -32 -11 -114 -11 -115 0 -2 24 8 31 24 18 16 -12 21 -9 18
12 0 4 8 7 20 7 15 0 19 -5 15 -15z m-4221 -5 c3 -5 -3 -10 -13 -10 -11 0 -22
-7 -26 -15 -3 -8 -12 -15 -21 -15 -12 0 -11 5 7 24 25 27 43 32 53 16z m5720
0 c3 -5 -3 -10 -14 -10 -12 0 -21 5 -21 10 0 6 6 10 14 10 8 0 18 -4 21 -10z
m394 -6 c5 4 13 1 16 -5 5 -7 -2 -10 -21 -7 -27 3 -47 -17 -21 -24 9 -2 11
-11 6 -28 l-6 -25 -10 24 c-6 16 -12 20 -17 13 -9 -15 -36 -16 -36 -2 0 6 7
10 15 10 8 0 15 8 15 18 0 27 21 44 36 31 7 -6 18 -8 23 -5z m-4050 -57 c31
-29 81 -65 112 -80 46 -21 66 -40 115 -106 32 -45 61 -81 64 -81 3 0 38 52 79
115 70 109 91 137 91 118 0 -5 -36 -64 -80 -132 -75 -117 -85 -141 -57 -141
11 0 59 -50 187 -192 23 -26 40 -53 38 -59 -2 -7 -24 12 -49 41 -24 30 -68 78
-96 107 -29 30 -53 58 -53 63 0 19 -65 36 -76 19 -8 -13 -24 -11 -24 2 0 7 7
17 15 23 13 9 8 21 -30 75 -62 89 -68 94 -142 132 -37 19 -87 54 -113 78 -46
43 -46 43 -125 45 -111 2 -110 22 1 24 l87 2 56 -53z m721 43 c-19 -13 -30
-13 -30 0 0 6 10 10 23 10 18 0 19 -2 7 -10z m2794 -6 c4 -10 1 -14 -6 -12
-15 5 -23 28 -10 28 5 0 13 -7 16 -16z m182 -31 c-4 -4 -11 -1 -16 7 -16 25
-11 35 7 17 9 -9 13 -20 9 -24z m159 27 c-3 -5 -13 -10 -21 -10 -8 0 -12 5 -9
10 3 6 13 10 21 10 8 0 12 -4 9 -10z m-1797 -10 c24 0 30 -111 7 -130 -9 -8
-15 -8 -15 -2 0 6 5 14 10 17 17 10 11 44 -10 65 -12 12 -18 25 -15 30 9 14
-9 12 -23 -2 -13 -13 -15 -8 -6 17 4 9 13 14 21 11 8 -3 22 -6 31 -6z m-4205
-25 c-3 -8 -11 -15 -19 -15 -12 0 -12 4 -2 19 13 22 30 18 21 -4z m6041 9 c9
-24 7 -28 -9 -14 -17 14 -20 30 -6 30 5 0 12 -7 15 -16z m-3894 -107 c0 -16
-17 -2 -59 46 -22 27 -41 54 -41 60 1 13 99 -93 100 -106z m1010 91 c-3 -38
-1 -39 30 -23 33 17 40 18 40 8 0 -11 -58 -43 -76 -43 -8 0 -14 -6 -14 -13 0
-12 -20 -28 -68 -54 -21 -11 -27 -8 -64 27 -22 22 -38 40 -35 40 15 0 63 -26
74 -40 20 -26 65 9 87 69 20 55 29 64 26 29z m2805 -16 c-8 -9 -25 20 -18 31
3 5 10 2 15 -7 6 -10 7 -20 3 -24z m-290 -10 c-8 -9 -25 20 -18 31 3 5 10 2
15 -7 6 -10 7 -20 3 -24z m421 26 c-3 -7 -9 -21 -12 -30 -4 -10 -10 -18 -15
-18 -13 0 -11 34 3 48 16 16 31 15 24 0z m-200 -7 c-3 -5 -15 -7 -26 -4 -28 7
-25 13 6 13 14 0 23 -4 20 -9z m34 -26 c7 -8 8 -15 2 -15 -5 0 -15 7 -22 15
-7 8 -8 15 -2 15 5 0 15 -7 22 -15z m275 5 c3 -5 -8 -16 -25 -25 -16 -8 -30
-12 -30 -8 0 13 14 30 30 36 8 3 16 6 17 6 1 1 4 -3 8 -9z m-2633 -22 c-7 -7
-12 -8 -12 -2 0 6 3 14 7 17 3 4 9 5 12 2 2 -3 -1 -11 -7 -17z m-222 -13 c13
-14 21 -25 18 -25 -2 0 -15 11 -28 25 -13 14 -21 25 -18 25 2 0 15 -11 28 -25z
m2440 10 c0 -9 -9 -15 -22 -15 -22 1 -23 1 -4 15 25 19 26 19 26 0z m210 -5
c6 -11 7 -20 3 -20 -4 0 1 -7 11 -15 11 -8 17 -18 13 -21 -4 -4 -14 -1 -23 7
-10 8 -25 13 -34 11 -19 -3 -35 24 -20 33 6 4 10 1 10 -4 0 -6 5 -11 11 -11 6
0 8 9 4 20 -4 11 -2 20 4 20 6 0 15 -9 21 -20z m-5762 -12 c2 -12 -5 -13 -47
-4 -59 12 -58 26 2 21 27 -2 43 -8 45 -17z m5490 12 c15 0 15 -2 2 -10 -25
-16 -60 -12 -53 6 3 8 12 13 20 10 8 -3 22 -6 31 -6z m527 -11 c-7 -10 -35 -1
-35 11 0 5 9 6 20 3 11 -3 17 -9 15 -14z m-205 2 c0 -12 -20 -25 -27 -18 -7 7
6 27 18 27 5 0 9 -4 9 -9z m74 -15 c-6 -16 -24 -23 -24 -8 0 10 22 33 27 28 2
-2 1 -11 -3 -20z m161 4 c3 -5 1 -10 -4 -10 -6 0 -11 5 -11 10 0 6 2 10 4 10
3 0 8 -4 11 -10z m-5935 -22 c0 -16 -23 -19 -38 -4 -15 15 -14 16 11 14 15 -1
27 -6 27 -10z m5993 5 c4 -3 2 -12 -4 -20 -9 -10 -15 -10 -25 -2 -8 6 -14 15
-14 20 0 10 34 12 43 2z m-6056 -27 c-2 -6 -13 -12 -25 -14 -24 -4 -25 -2 -16
21 6 17 47 11 41 -7z m1843 -9 c0 -18 -2 -19 -10 -7 -13 20 -13 43 0 35 6 -3
10 -16 10 -28z m3580 13 c0 -11 -4 -20 -10 -20 -5 0 -10 9 -10 20 0 11 5 20
10 20 6 0 10 -9 10 -20z m376 -5 c-1 -9 -5 -15 -9 -15 -4 0 -15 0 -24 0 -16 1
-16 2 1 15 25 19 35 19 32 0z m-3076 -5 c0 -5 -7 -10 -15 -10 -8 0 -15 5 -15
10 0 6 7 10 15 10 8 0 15 -4 15 -10z m3378 -8 c2 -8 -2 -10 -15 -5 -16 6 -16
5 -4 -10 7 -9 9 -17 4 -17 -16 0 -32 22 -26 37 6 16 34 14 41 -5z m-6077 -6
c-6 -7 -9 -21 -5 -30 3 -9 2 -16 -4 -16 -13 0 -23 27 -16 45 4 8 13 15 21 15
12 0 13 -3 4 -14z m5377 -5 c12 -11 22 -25 22 -33 0 -25 -25 -50 -46 -45 -18
5 -17 5 4 12 28 9 28 32 0 62 -26 28 -12 30 20 4z m442 -11 c12 -8 11 -10 -7
-10 -13 0 -23 5 -23 10 0 13 11 13 30 0z m50 -20 c8 -5 11 -12 7 -16 -4 -4
-15 0 -24 9 -18 18 -8 23 17 7z m230 -15 c7 -8 8 -15 2 -15 -5 0 -15 7 -22 15
-7 8 -8 15 -2 15 5 0 15 -7 22 -15z m-2990 -4 c0 -5 -6 -11 -12 -14 -9 -3 -6
-12 10 -29 12 -13 22 -32 22 -41 0 -18 16 -23 22 -7 2 6 9 1 16 -10 10 -17 10
-20 -3 -20 -19 0 -19 -24 0 -40 12 -10 20 -8 41 9 15 12 30 19 33 15 3 -3 -7
-15 -22 -26 -20 -15 -26 -25 -21 -41 3 -11 1 -37 -6 -58 -8 -22 -9 -45 -4 -56
4 -10 9 -25 9 -33 1 -8 3 -21 4 -28 0 -8 8 -11 19 -8 12 4 23 -3 35 -23 9 -16
33 -43 52 -60 19 -17 35 -32 35 -34 0 -2 -13 -4 -30 -4 -19 0 -30 5 -30 14 0
8 -4 11 -10 8 -6 -3 -7 1 -4 9 5 14 -8 30 -77 92 -24 22 -31 72 -18 125 11 44
11 48 -14 81 -15 19 -27 40 -27 46 0 7 -9 21 -20 32 -11 11 -23 40 -27 65 -5
38 -3 45 11 45 9 0 16 -4 16 -9z m-3086 -17 c9 -24 7 -28 -9 -14 -17 14 -20
30 -6 30 5 0 12 -7 15 -16z m5896 -16 c0 -6 -7 -5 -15 2 -8 7 -15 17 -15 22 0
6 7 5 15 -2 8 -7 15 -17 15 -22z m785 13 c-3 -6 -14 -11 -23 -11 -15 1 -15 2
2 15 21 16 32 13 21 -4z m-5532 -31 c4 -15 0 -20 -14 -20 -17 0 -18 3 -9 20 6
11 12 20 14 20 2 0 6 -9 9 -20z m4247 5 c0 -8 -4 -15 -10 -15 -5 0 -10 7 -10
15 0 8 5 15 10 15 6 0 10 -7 10 -15z m718 -3 c6 -18 -15 -14 -22 4 -4 10 -1
14 6 12 6 -2 14 -10 16 -16z m522 9 c0 -11 -31 -24 -39 -16 -3 3 1 10 9 15 19
12 30 12 30 1z m-5183 -40 c58 -47 131 -121 118 -121 -6 0 -41 27 -78 60 -38
33 -82 67 -98 75 -34 18 -37 25 -10 25 11 0 41 -17 68 -39z m2488 14 c0 -26
-4 -29 -29 -19 -20 8 -21 24 -1 24 8 0 15 5 15 10 0 6 3 10 8 10 4 0 7 -11 7
-25z m-3907 -10 c3 -11 0 -15 -7 -11 -6 4 -20 4 -32 1 -17 -6 -19 -12 -14 -37
5 -21 4 -28 -4 -24 -6 4 -11 13 -11 21 0 8 -8 19 -17 24 -12 7 -13 10 -5 11 8
0 25 9 40 20 29 23 45 22 50 -5z m5912 10 c10 -12 10 -15 -3 -15 -8 0 -20 7
-27 15 -10 12 -10 15 3 15 8 0 20 -7 27 -15z m-575 -4 c3 -6 -3 -15 -14 -20
-29 -16 -33 -14 -19 9 14 22 24 25 33 11z m1205 -1 c-19 -13 -30 -13 -30 0 0
6 10 10 23 10 18 0 19 -2 7 -10z m-425 -38 c-8 -9 -35 20 -28 31 4 6 11 3 19
-8 8 -10 12 -21 9 -23z m255 29 c0 -5 -9 -11 -20 -14 -22 -6 -28 8 -7 16 19 8
27 8 27 -2z m55 -1 c-3 -5 -13 -10 -21 -10 -8 0 -14 5 -14 10 0 6 9 10 21 10
11 0 17 -4 14 -10z m60 0 c-3 -5 -13 -10 -21 -10 -8 0 -14 5 -14 10 0 6 9 10
21 10 11 0 17 -4 14 -10z m-5403 -30 c-5 -43 -16 -42 -28 4 -6 24 -4 27 12 24
13 -3 18 -11 16 -28z m4874 -8 c-9 -8 -26 10 -26 26 1 15 2 15 15 -2 8 -11 13
-21 11 -24z m-6070 -57 l26 -26 -21 -16 c-22 -15 -51 -12 -51 5 0 5 9 13 19
18 19 9 18 10 -6 28 l-25 19 7 -24 c6 -22 6 -23 -9 -9 -13 13 -14 21 -4 48
l12 32 13 -25 c8 -13 25 -36 39 -50z m152 39 c-10 -10 -28 6 -28 24 0 15 1 15
17 -1 9 -9 14 -19 11 -23z m6272 27 c0 -5 -7 -11 -15 -15 -15 -5 -20 5 -8 17
9 10 23 9 23 -2z m-2374 -16 c4 -8 0 -22 -7 -31 -10 -13 -10 -17 1 -24 12 -7
11 -10 -3 -16 -9 -3 -17 -13 -17 -21 0 -8 -4 -12 -8 -9 -11 7 -13 96 -2 96 5
0 11 -6 14 -12 4 -7 4 -3 2 10 -5 25 11 30 20 7z m34 1 c0 -3 -4 -8 -10 -11
-5 -3 -10 -1 -10 4 0 6 5 11 10 11 6 0 10 -2 10 -4z m2175 -16 c10 -8 30 -14
44 -12 19 2 22 0 11 -6 -25 -16 -72 -24 -65 -12 4 6 -7 16 -24 23 -17 7 -28
16 -25 20 10 10 40 3 59 -13z m-2569 -12 c16 -13 44 -41 64 -62 19 -21 50 -45
68 -53 39 -16 42 -28 5 -18 -15 3 -60 35 -101 71 l-73 64 -30 -16 c-39 -20
-49 -11 -18 15 31 26 50 26 85 -1z m2424 12 c12 -8 11 -10 -7 -10 -13 0 -23 5
-23 10 0 13 11 13 30 0z m260 0 c0 -5 -10 -10 -22 -10 -19 0 -20 2 -8 10 19
13 30 13 30 0z m-5512 -29 c-7 -12 -19 -21 -27 -21 -11 0 -11 3 0 18 29 36 50
39 27 3z m4332 24 c0 -2 -18 -14 -40 -25 -44 -23 -56 -9 -12 14 27 15 52 20
52 11z m990 -5 c0 -13 -11 -13 -30 0 -12 8 -11 10 8 10 12 0 22 -4 22 -10z
m-6004 -37 c-4 -4 -11 -1 -16 7 -16 25 -11 35 7 17 9 -9 13 -20 9 -24z m2030
7 c12 0 12 -4 2 -20 -15 -24 -41 -35 -46 -21 -2 6 -8 9 -13 5 -15 -9 -10 5 14
37 16 23 23 27 25 15 2 -9 10 -16 18 -16z m4019 -19 c-3 -6 -14 -11 -23 -11
-15 1 -15 2 2 15 21 16 32 13 21 -4z m-6021 -17 c9 -24 7 -28 -9 -14 -17 14
-20 30 -6 30 5 0 12 -7 15 -16z m1563 -66 c131 -82 182 -120 183 -136 0 -7
-28 7 -62 32 -35 25 -92 63 -128 85 -58 35 -113 81 -97 81 3 0 50 -28 104 -62z
m4413 42 c-6 -11 -15 -18 -21 -14 -6 4 -6 11 2 20 17 21 31 17 19 -6z m-2830
1 c0 -12 -29 -35 -36 -28 -7 6 17 36 29 37 4 0 7 -4 7 -9z m-3537 -38 c46 -52
60 -73 53 -81 -4 -3 -14 5 -23 19 -10 13 -30 36 -45 51 -25 23 -37 48 -23 48
3 0 20 -16 38 -37z m433 -11 c-9 -8 -26 10 -26 26 1 15 2 15 15 -2 8 -11 13
-21 11 -24z m5894 3 c-7 -8 -17 -15 -22 -15 -6 0 -5 7 2 15 7 8 17 15 22 15 6
0 5 -7 -2 -15z m-4220 -20 c-13 -14 -26 -22 -29 -19 -3 3 5 14 18 25 33 27 39
24 11 -6z m-1644 -32 c-4 -4 -11 -1 -16 7 -16 25 -11 35 7 17 9 -9 13 -20 9
-24z m3484 5 c0 -12 -14 -10 -28 4 -19 19 -14 29 8 16 11 -7 20 -16 20 -20z
m-4940 12 c8 -5 12 -12 9 -15 -8 -8 -39 5 -39 16 0 11 11 11 30 -1z m1131 -73
c-5 -21 -6 -20 -9 4 -2 15 -12 35 -23 45 -10 9 -19 22 -19 28 1 6 14 -4 29
-22 21 -24 27 -40 22 -55z m249 68 c7 -9 10 -18 7 -22 -8 -7 -37 15 -37 28 0
14 16 11 30 -6z m5914 -10 c-6 -16 -24 -21 -24 -7 0 11 11 22 21 22 5 0 6 -7
3 -15z m-2240 -9 c-3 -7 -17 -19 -31 -25 -20 -9 -23 -15 -15 -23 24 -24 11
-31 -13 -8 -27 25 -33 45 -11 37 7 -3 26 3 42 14 35 23 35 23 28 5z m-4996 -2
c12 -4 22 -10 22 -15 0 -14 -30 -10 -46 6 -17 16 -12 18 24 9z m1367 -30 c10
-14 15 -14 34 -4 19 10 25 9 36 -7 16 -22 11 -30 -9 -14 -11 9 -17 8 -30 -5
-15 -15 -18 -14 -36 8 -11 12 -19 26 -20 31 0 12 12 8 25 -9z m5855 -4 c0 -11
-4 -20 -10 -20 -5 0 -10 9 -10 20 0 11 5 20 10 20 6 0 10 -9 10 -20z m-7166 4
c23 -9 20 -23 -4 -17 -11 3 -20 9 -20 14 0 11 3 11 24 3z m3273 -23 c56 -60
93 -79 166 -86 39 -4 80 -11 90 -16 21 -12 21 -12 2 41 -10 29 -11 40 -3 38 6
-2 26 -48 45 -103 18 -54 35 -100 37 -103 7 -6 96 19 96 27 0 3 -8 29 -19 56
-29 78 -33 95 -23 95 6 0 22 -34 37 -75 15 -41 31 -72 36 -69 5 3 1 23 -8 45
-8 22 -13 42 -10 45 8 9 35 -49 51 -109 8 -30 21 -68 30 -84 17 -34 56 -134
56 -145 0 -18 -19 -6 -25 15 -4 12 -22 58 -40 102 -18 44 -36 89 -39 99 -4 10
-9 16 -12 13 -3 -3 10 -49 30 -103 38 -104 41 -114 27 -114 -5 0 -23 42 -41
93 -17 50 -35 97 -38 103 -5 8 -43 -2 -119 -28 l-111 -40 29 -86 c33 -98 32
-92 20 -92 -4 0 -21 35 -36 78 -15 42 -30 80 -34 84 -4 5 -26 1 -49 -8 -51
-21 -61 -14 -86 56 -20 56 -31 65 -94 73 -24 3 -45 7 -48 9 -10 11 -50 135
-46 146 2 6 22 15 44 19 28 4 42 12 45 24 7 24 18 24 40 0z m-3201 -18 c-8 -8
-36 5 -36 17 0 7 6 7 21 0 11 -7 18 -14 15 -17z m921 -17 c-16 -18 -31 -8 -16
10 6 7 15 11 20 8 5 -3 3 -11 -4 -18z m-871 -13 c-8 -8 -36 5 -36 17 0 7 6 7
21 0 11 -7 18 -14 15 -17z m1300 -11 c-9 -8 -26 10 -26 26 1 15 2 15 15 -2 8
-11 13 -21 11 -24z m5744 18 c0 -11 -4 -20 -10 -20 -5 0 -10 9 -10 20 0 11 5
20 10 20 6 0 10 -9 10 -20z m-7000 -20 c8 -5 12 -12 9 -15 -8 -8 -39 5 -39 16
0 11 11 11 30 -1z m2385 -10 c-18 -20 -18 -21 29 -69 39 -40 51 -47 76 -43 18
3 30 0 30 -7 0 -6 -9 -11 -21 -11 -13 0 -18 -4 -13 -12 5 -8 2 -9 -9 -5 -10 4
-17 2 -17 -4 0 -6 -9 -9 -20 -6 -11 3 -34 -2 -51 -10 -27 -13 -70 -11 -56 4
13 13 -15 43 -39 43 -19 0 -25 4 -20 15 3 8 9 22 12 30 3 8 1 15 -6 15 -6 0
-8 5 -5 11 4 6 14 8 22 4 20 -7 53 3 53 17 0 15 30 48 43 48 6 0 2 -9 -8 -20z
m-1570 0 c3 -5 1 -10 -4 -10 -6 0 -11 5 -11 10 0 6 2 10 4 10 3 0 8 -4 11 -10z
m2155 -92 c0 -10 7 -18 15 -18 8 0 15 -5 15 -11 0 -6 -8 -8 -19 -4 -14 4 -20
1 -23 -12 -2 -14 -6 -12 -21 11 -14 20 -16 31 -7 41 8 10 4 20 -15 43 -14 16
-25 36 -25 43 1 20 80 -73 80 -93z m4040 60 c0 -19 -2 -20 -10 -8 -13 19 -13
30 0 30 6 0 10 -10 10 -22z m-7000 -19 c0 -11 -4 -17 -10 -14 -5 3 -10 13 -10
21 0 8 5 14 10 14 6 0 10 -9 10 -21z m3490 -18 c0 -11 -31 -24 -39 -16 -3 3 1
10 9 15 19 12 30 12 30 1z m3530 -22 c0 -11 -4 -17 -10 -14 -5 3 -10 15 -10
26 0 11 5 17 10 14 6 -3 10 -15 10 -26z m-7010 -15 c0 -8 -4 -14 -10 -14 -5 0
-10 9 -10 21 0 11 5 17 10 14 6 -3 10 -13 10 -21z m7030 -46 c0 -5 -4 -8 -10
-8 -5 0 -10 10 -10 23 0 18 2 19 10 7 5 -8 10 -18 10 -22z m-6985 12 c3 -5 -3
-10 -14 -10 -12 0 -21 5 -21 10 0 6 6 10 14 10 8 0 18 -4 21 -10z m53 -29 c3
-8 -1 -12 -9 -9 -7 2 -15 10 -17 17 -3 8 1 12 9 9 7 -2 15 -10 17 -17z m6932
-33 c0 -16 -3 -19 -11 -11 -6 6 -8 16 -5 22 11 17 16 13 16 -11z m-6937 -18
c-3 -11 -9 -20 -14 -20 -11 0 -11 3 -3 24 9 23 23 20 17 -4z m6933 -57 c-11
-11 -17 4 -9 23 7 18 8 18 11 1 2 -10 1 -21 -2 -24z m-6946 6 c0 -5 -4 -9 -10
-9 -5 0 -10 7 -10 16 0 8 5 12 10 9 6 -3 10 -10 10 -16z m6933 -49 c-3 -11 -9
-20 -14 -20 -11 0 -11 3 -3 24 9 23 23 20 17 -4z m-23 -37 c0 -14 -19 -38 -25
-32 -8 8 5 39 16 39 5 0 9 -3 9 -7z m-3350 -58 c0 -8 -9 -19 -20 -25 -17 -9
-22 -7 -29 12 -7 19 -5 24 13 29 26 7 36 2 36 -16z m3314 -9 c-6 -16 -24 -23
-24 -8 0 10 22 33 27 28 2 -2 1 -11 -3 -20z m-4696 -15 c3 -8 -1 -12 -9 -9 -7
2 -15 10 -17 17 -3 8 1 12 9 9 7 -2 15 -10 17 -17z m1070 -13 c14 -14 16 -28
2 -28 -5 0 -14 9 -20 20 -12 22 -1 27 18 8z m-1038 -22 c0 -8 -4 -18 -10 -21
-5 -3 -10 3 -10 14 0 12 5 21 10 21 6 0 10 -6 10 -14z m4634 -1 c-6 -16 -24
-21 -24 -7 0 11 11 22 21 22 5 0 6 -7 3 -15z m-3928 -21 c-38 -27 -3 -28 72
-2 48 18 80 24 86 18 10 -10 -66 -47 -117 -57 -16 -3 -31 -12 -34 -19 -6 -17
-65 -36 -86 -28 -20 7 -20 8 -2 54 13 33 14 33 21 13 9 -31 24 -29 24 2 0 17
7 28 23 34 29 11 37 3 13 -15z m417 -66 c26 -80 21 -112 -6 -35 -37 102 -46
140 -28 122 4 -6 20 -45 34 -87z m-1249 30 c-8 -46 10 -90 33 -81 15 6 16 4 5
-9 -15 -19 -2 -23 108 -34 83 -7 113 -19 150 -58 20 -22 24 -36 22 -75 -2 -40
3 -55 28 -85 16 -21 34 -54 41 -74 21 -65 28 -74 49 -62 14 7 20 7 20 0 0 -5
-4 -10 -10 -10 -24 0 -7 -19 22 -26 18 -3 42 -12 53 -19 38 -24 85 -25 172 -5
l86 20 43 -25 c33 -19 56 -25 104 -25 59 0 63 -1 113 -49 29 -26 72 -57 97
-68 25 -11 52 -29 61 -39 21 -24 40 -115 33 -153 -6 -27 0 -38 45 -87 28 -30
51 -60 51 -65 0 -20 -19 -7 -40 26 -12 19 -34 44 -50 55 -26 19 -28 24 -27 88
1 97 -18 134 -79 157 -30 10 -68 37 -97 66 -48 48 -50 49 -110 49 -46 0 -70 6
-103 25 l-43 25 -85 -20 c-64 -16 -94 -18 -125 -11 -22 5 -43 6 -46 2 -4 -3
-11 2 -16 11 -5 10 -25 20 -45 24 -40 7 -75 47 -94 109 -7 22 -26 56 -42 76
-24 30 -28 43 -26 87 2 41 -2 55 -17 67 -43 33 -74 44 -154 50 -66 6 -88 13
-111 32 -30 25 -47 85 -35 123 10 32 24 23 19 -12z m142 20 c12 -20 -8 -27
-37 -13 -16 9 -29 17 -29 20 0 7 61 2 66 -7z m4584 -18 c-6 -11 -15 -20 -21
-20 -6 0 -6 7 1 20 6 11 15 20 21 20 6 0 6 -7 -1 -20z m-5290 -9 c0 -5 -15
-13 -32 -16 -18 -4 -58 -18 -89 -31 -47 -19 -63 -22 -90 -13 -19 5 -64 7 -101
3 -61 -5 -71 -10 -125 -55 -98 -83 -169 -106 -216 -69 -15 12 -27 29 -27 38 0
12 7 9 29 -12 47 -45 77 -35 210 66 56 42 67 47 133 53 45 4 84 2 101 -4 21
-8 34 -8 50 1 25 13 126 47 145 47 6 1 12 -3 12 -8z m710 -16 c0 -5 -75 -45
-85 -45 -3 0 -5 5 -5 10 0 6 9 10 20 10 11 0 20 7 20 15 0 9 9 15 25 15 14 0
25 -2 25 -5z m4547 -30 c-4 -8 -11 -15 -17 -15 -7 0 -7 6 0 21 13 23 26 19 17
-6z m-29 -47 c-2 -6 -10 -14 -16 -16 -7 -2 -10 2 -6 12 7 18 28 22 22 4z
m-3943 -26 c3 -11 18 -25 33 -31 49 -22 232 -143 232 -153 0 -10 -38 11 -130
72 -30 21 -74 47 -97 59 -37 18 -63 46 -63 65 0 14 19 4 25 -12z m3915 -21 c0
-5 -7 -14 -15 -21 -16 -14 -18 -10 -9 14 6 17 24 22 24 7z m-3482 -24 c25 9
36 -5 12 -15 -18 -8 -20 -11 -7 -11 9 -1 17 -6 17 -12 0 -6 -9 -8 -20 -4 -16
5 -20 2 -20 -19 0 -24 -2 -25 -20 -14 -11 7 -16 14 -10 16 15 5 12 32 -5 38
-8 4 -15 13 -15 21 0 9 6 13 15 9 8 -3 15 0 15 7 1 7 5 6 13 -4 7 -9 18 -14
25 -12z m3452 -26 c0 -5 -7 -14 -15 -21 -12 -10 -15 -10 -15 2 0 8 3 18 7 21
9 10 23 9 23 -2z m-4039 -32 c25 -17 27 -23 18 -41 -11 -20 -11 -20 -23 3 -9
18 -18 23 -39 21 -22 -3 -27 1 -27 17 0 28 33 28 71 0z m-1681 -3 c0 -3 -4 -8
-10 -11 -5 -3 -10 -1 -10 4 0 6 5 11 10 11 6 0 10 -2 10 -4z m5680 -27 c-7
-11 -14 -18 -17 -15 -8 8 5 36 17 36 7 0 7 -6 0 -21z m-3892 -7 c6 -18 -15
-14 -22 4 -4 10 -1 14 6 12 6 -2 14 -10 16 -16z m-1815 -20 c-3 -12 -9 -22
-14 -22 -12 0 -11 7 2 32 13 25 20 19 12 -10z m1730 -42 c17 0 18 -3 9 -12 -9
-9 -17 -10 -30 -2 -22 14 -43 7 -35 -12 3 -7 9 -11 14 -8 5 3 9 0 9 -6 0 -6
-7 -13 -15 -16 -8 -4 -15 -15 -15 -25 0 -10 -5 -19 -11 -19 -7 0 -9 11 -5 30
3 19 1 30 -5 30 -8 0 -8 4 0 13 6 8 8 17 4 21 -4 4 -1 12 7 17 11 8 12 12 3
16 -7 2 -13 14 -13 26 0 19 4 16 31 -16 18 -21 39 -37 52 -37z m36 38 c-8 -14
-14 -17 -22 -9 -7 7 -6 15 3 25 17 22 32 9 19 -16z m80 -21 c1 -5 -3 -5 -9 -2
-5 3 -10 16 -9 28 0 21 1 21 9 2 5 -11 9 -24 9 -28z m2286 13 c3 -5 -3 -10
-14 -10 -12 0 -21 5 -21 10 0 6 6 10 14 10 8 0 18 -4 21 -10z m1536 -23 c-8
-8 -11 -7 -11 4 0 20 13 34 18 19 3 -7 -1 -17 -7 -23z m-1476 13 c3 -5 -3 -10
-14 -10 -12 0 -21 5 -21 10 0 6 6 10 14 10 8 0 18 -4 21 -10z m-2555 -9 c0 -6
-5 -13 -10 -16 -6 -4 -8 -10 -5 -15 3 -5 1 -11 -4 -15 -5 -3 -14 2 -19 12 -8
13 -6 21 6 30 20 15 32 16 32 4z m2615 -1 c3 -5 -3 -10 -14 -10 -12 0 -21 5
-21 10 0 6 6 10 14 10 8 0 18 -4 21 -10z m-2461 -6 c22 -9 20 -24 -3 -24 -21
0 -34 13 -24 24 8 7 8 7 27 0z m2559 -34 c11 -11 17 -23 14 -27 -4 -3 -17 3
-30 15 -13 12 -28 22 -35 22 -6 0 -14 5 -18 11 -11 19 44 1 69 -21z m1287 -5
c-7 -9 -15 -13 -18 -10 -3 2 1 11 8 20 7 9 15 13 18 10 3 -2 -1 -11 -8 -20z
m-725 -4 c-3 -6 -14 -11 -23 -11 -15 1 -15 2 2 15 21 16 32 13 21 -4z m65 0
c0 -5 -9 -7 -20 -4 -11 3 -20 7 -20 9 0 2 9 4 20 4 11 0 20 -4 20 -9z m50 -11
c8 -5 12 -12 9 -15 -8 -8 -39 5 -39 16 0 11 11 11 30 -1z m-3430 -9 c0 -11
-31 -24 -39 -16 -3 3 1 10 9 15 19 12 30 12 30 1z m3256 -6 c-21 -16 -32 -13
-21 4 3 6 14 11 23 11 15 -1 15 -2 -2 -15z m754 6 c0 -5 -7 -12 -16 -15 -24
-9 -28 -7 -14 9 14 17 30 20 30 6z m-2883 -47 c12 -26 23 -42 27 -35 10 15 36
14 36 -2 0 -7 -9 -18 -20 -25 -20 -12 -20 -12 0 -65 11 -28 20 -65 20 -80 0
-29 -4 -33 -101 -121 l-43 -38 -22 25 c-12 14 -54 47 -94 72 -56 36 -71 50
-67 65 3 11 0 21 -7 24 -6 2 -1 5 10 5 12 1 25 -6 28 -15 4 -11 15 -14 38 -10
37 6 61 -4 33 -14 -17 -6 -15 -8 8 -12 18 -4 34 0 44 11 9 9 19 14 22 11 3 -3
7 5 9 18 2 12 -1 22 -7 22 -6 0 -11 -7 -11 -16 0 -14 -3 -14 -15 -4 -10 9 -15
9 -15 1 0 -6 -5 -11 -11 -11 -7 0 -9 9 -5 24 4 16 1 26 -9 30 -8 3 -15 10 -15
16 0 6 5 8 10 5 6 -4 9 -3 8 2 -5 16 26 71 38 66 7 -2 15 0 19 6 8 13 25 14
25 2 0 -5 -9 -13 -20 -16 -28 -9 -26 -32 3 -29 12 1 29 3 38 3 8 1 23 7 33 14
26 19 4 62 -27 53 -11 -3 -27 0 -34 6 -16 13 -18 32 -2 23 6 -4 17 2 25 14 22
30 29 27 51 -25z m1683 36 c8 -5 12 -12 9 -15 -8 -8 -39 5 -39 16 0 11 11 11
30 -1z m685 -11 c-7 -10 -35 -1 -35 11 0 5 9 6 20 3 11 -3 17 -9 15 -14z
m-2511 -11 c-4 -5 -17 -8 -30 -5 -19 3 -24 -1 -29 -24 -9 -41 -32 -57 -53 -36
-15 16 -15 17 6 17 21 0 27 9 22 39 -1 8 3 17 9 20 16 10 82 0 75 -11z m2221
3 c-3 -6 -14 -11 -23 -11 -15 1 -15 2 2 15 21 16 32 13 21 -4z m561 -3 c-10
-6 -20 -7 -24 -3 -9 8 20 25 31 18 5 -3 2 -10 -7 -15z m-226 2 c12 -7 12 -12
2 -22 -10 -10 -15 -10 -22 2 -19 29 -9 39 20 20z m293 3 c-7 -2 -21 -2 -30 0
-10 3 -4 5 12 5 17 0 24 -2 18 -5z m62 -3 c-3 -5 -12 -10 -20 -10 -8 0 -17 5
-20 10 -4 6 5 10 20 10 15 0 24 -4 20 -10z m55 0 c-20 -13 -43 -13 -35 0 3 6
16 10 28 10 18 0 19 -2 7 -10z m-3966 -39 c-7 -7 -34 21 -28 31 3 5 12 1 19
-9 7 -10 12 -20 9 -22z m2876 29 c8 -5 12 -12 9 -15 -8 -8 -39 5 -39 16 0 11
11 11 30 -1z m-1830 -4 c0 -15 -14 -35 -21 -30 -15 9 -10 34 6 34 8 0 15 -2
15 -4z m2125 -6 c-3 -5 -13 -10 -21 -10 -8 0 -12 5 -9 10 3 6 13 10 21 10 8 0
12 -4 9 -10z m455 -11 c0 -11 -3 -11 -24 -3 -23 9 -20 23 4 17 11 -3 20 -9 20
-14z m110 12 c0 -11 -31 -24 -39 -16 -3 3 1 10 9 15 19 12 30 12 30 1z m-3650
-26 c0 -8 -7 -15 -15 -15 -16 0 -20 12 -8 23 11 12 23 8 23 -8z m888 3 c-2 -6
-10 -14 -16 -16 -7 -2 -10 2 -6 12 7 18 28 22 22 4z m277 2 c-3 -5 -10 -10
-16 -10 -5 0 -9 5 -9 10 0 6 7 10 16 10 8 0 12 -4 9 -10z m1445 -44 c36 -29
84 -76 107 -103 23 -28 62 -60 86 -71 35 -16 75 -57 181 -184 127 -152 143
-174 132 -180 -3 -2 -67 71 -143 161 -92 109 -151 172 -178 186 -22 11 -86 67
-143 123 -57 56 -108 102 -113 102 -5 0 -9 5 -9 10 0 19 15 10 80 -44z m245
44 c3 -5 -3 -10 -14 -10 -11 0 -23 5 -26 10 -3 6 3 10 14 10 11 0 23 -4 26
-10z m175 0 c0 -5 -9 -10 -21 -10 -11 0 -17 5 -14 10 3 6 13 10 21 10 8 0 14
-4 14 -10z m565 0 c4 -6 -5 -10 -20 -10 -15 0 -24 4 -20 10 3 6 12 10 20 10 8
0 17 -4 20 -10z m-682 -11 c-8 -8 -16 -8 -30 0 -16 9 -14 10 12 11 21 0 26 -3
18 -11z m57 1 c0 -5 -9 -10 -20 -10 -11 0 -20 5 -20 10 0 6 9 10 20 10 11 0
20 -4 20 -10z m-3014 -37 c-11 -11 -17 4 -9 23 7 18 8 18 11 1 2 -10 1 -21 -2
-24z m932 -6 c16 -19 -2 -42 -24 -32 -11 5 -22 7 -26 7 -10 -2 -10 22 -1 31
11 11 40 8 51 -6z m1057 -6 c-8 -13 -35 -15 -35 -2 0 5 8 11 18 13 21 5 26 2
17 -11z m45 -27 c0 -8 -4 -12 -10 -9 -5 3 -10 13 -10 21 0 8 5 12 10 9 6 -3
10 -13 10 -21z m-205 -52 c-9 -9 -35 8 -35 24 0 16 2 16 20 -1 11 -10 18 -20
15 -23z m-927 16 c-2 -6 -10 -14 -16 -16 -7 -2 -10 2 -6 12 7 18 28 22 22 4z
m1168 -26 c-9 -8 -26 10 -26 26 1 15 2 15 15 -2 8 -11 13 -21 11 -24z m-1136
3 c-7 -8 -17 -15 -22 -15 -6 0 -5 7 2 15 7 8 17 15 22 15 6 0 5 -7 -2 -15z
m940 -14 c0 -5 -8 -12 -17 -15 -12 -5 -14 -9 -5 -18 19 -19 14 -29 -8 -16 -22
14 -22 40 0 50 21 10 30 9 30 -1z m-2055 -11 c4 -7 13 -7 26 0 16 9 19 7 19
-10 0 -26 -31 -26 -55 0 -10 11 -13 20 -7 20 6 0 14 -5 17 -10z m2285 -22 c0
-6 -7 -5 -15 2 -8 7 -15 17 -15 22 0 6 7 5 15 -2 8 -7 15 -17 15 -22z m-170
-28 c-19 -37 -22 -39 -43 -28 -22 13 -22 13 -1 16 12 2 26 14 32 28 7 13 16
24 22 24 6 0 1 -18 -10 -40z m-2120 11 c0 -27 -9 -31 -50 -22 -30 7 -32 9 -15
15 11 4 27 11 35 16 23 14 30 12 30 -9z m2324 -7 c9 -22 -3 -32 -14 -14 -12
19 -12 30 -1 30 5 0 12 -7 15 -16z m-301 -8 c4 -9 -2 -13 -19 -13 -25 0 -32
12 -11 20 20 9 25 8 30 -7z m487 -22 c0 -8 -4 -14 -10 -14 -5 0 -10 9 -10 21
0 11 5 17 10 14 6 -3 10 -13 10 -21z m-143 -31 c-8 -7 -37 9 -31 19 3 5 12 4
20 -3 8 -6 13 -14 11 -16z m-341 -21 c-9 -8 -26 10 -26 26 1 15 2 15 15 -2 8
-11 13 -21 11 -24z m114 23 c14 -16 10 -18 -14 -9 -9 3 -16 10 -16 15 0 14 16
11 30 -6z m348 -7 c-3 -7 -13 -15 -24 -17 -16 -3 -17 -1 -5 13 16 19 34 21 29
4z m1942 3 c0 -6 -4 -13 -10 -16 -5 -3 -10 1 -10 9 0 9 5 16 10 16 6 0 10 -4
10 -9z m-2026 -27 c9 -24 7 -28 -9 -14 -17 14 -20 30 -6 30 5 0 12 -7 15 -16z
m-214 -16 c0 -13 -23 -5 -28 10 -2 7 2 10 12 6 9 -3 16 -11 16 -16z m-134 -26
c-9 -8 -26 10 -26 26 1 15 2 15 15 -2 8 -11 13 -21 11 -24z m392 10 c-1 -28
-43 -71 -56 -57 -4 3 1 11 11 16 9 6 15 14 12 19 -4 7 23 50 32 50 1 0 1 -12
1 -28z m1965 3 c-8 -22 -22 -18 -16 5 3 11 9 17 14 15 4 -3 6 -12 2 -20z
m-269 -85 c-50 -50 -97 -90 -105 -90 -7 0 27 41 76 90 49 50 96 90 105 90 8 0
-26 -41 -76 -90z m-1916 62 c6 -18 -15 -14 -22 4 -4 10 -1 14 6 12 6 -2 14
-10 16 -16z m272 -24 c0 -6 -7 -5 -15 2 -8 7 -15 17 -15 22 0 6 7 5 15 -2 8
-7 15 -17 15 -22z m-420 -3 c6 -8 10 -22 8 -32 -3 -14 -8 -11 -21 15 -18 32
-9 44 13 17z m2310 -1 c0 -8 -4 -12 -10 -9 -5 3 -10 10 -10 16 0 5 5 9 10 9 6
0 10 -7 10 -16z m-4406 -53 c-7 -9 -24 13 -24 32 0 21 1 21 13 -3 8 -14 12
-27 11 -29z m2147 33 c12 -14 11 -16 -5 -13 -11 2 -21 10 -24 17 -5 17 13 15
29 -4z m133 0 c4 -10 1 -14 -6 -12 -15 5 -23 28 -10 28 5 0 13 -7 16 -16z
m274 -13 c3 -8 -1 -12 -9 -9 -7 2 -15 10 -17 17 -3 8 1 12 9 9 7 -2 15 -10 17
-17z m-348 -1 c0 -5 -9 -10 -20 -10 -11 0 -20 5 -20 10 0 6 9 10 20 10 11 0
20 -4 20 -10z m177 -7 c-9 -9 -20 -13 -24 -9 -4 4 -1 11 7 16 25 16 35 11 17
-7z m2003 7 c0 -5 -11 -10 -25 -10 -14 0 -25 5 -25 10 0 6 11 10 25 10 14 0
25 -4 25 -10z m-2133 -37 c-8 -7 -37 9 -31 19 3 5 12 4 20 -3 8 -6 13 -14 11
-16z m-2626 -35 c-29 -27 -31 -34 -31 -99 0 -39 -4 -69 -10 -69 -6 0 -10 31
-10 74 0 73 1 75 38 110 20 20 39 31 41 25 2 -7 -11 -25 -28 -41z m2707 38
c-10 -7 -18 -18 -18 -24 0 -5 -9 -8 -20 -5 -21 6 -28 23 -9 23 5 0 8 4 5 8 -3
5 9 9 27 10 28 1 30 -1 15 -12z m202 -11 c-7 -9 -15 -13 -18 -10 -3 2 1 11 8
20 7 9 15 13 18 10 3 -2 -1 -11 -8 -20z m2620 15 c0 -4 -6 -10 -12 -13 -16 -5
-39 3 -34 12 7 10 46 11 46 1z m-5126 -16 c9 -22 -3 -32 -14 -14 -12 19 -12
30 -1 30 5 0 12 -7 15 -16z m2104 -2 c6 -18 -15 -14 -22 4 -4 10 -1 14 6 12 6
-2 14 -10 16 -16z m-1888 -17 c-7 -8 -17 -12 -23 -8 -6 4 -3 11 8 19 23 17 32
10 15 -11z m65 15 c3 -5 -3 -10 -14 -10 -12 0 -21 5 -21 10 0 6 6 10 14 10 8
0 18 -4 21 -10z m3991 -17 c-4 -9 -1 -20 6 -25 10 -7 9 -11 -4 -22 -10 -7 -18
-18 -18 -24 0 -6 -9 -16 -20 -22 -27 -15 -25 2 4 33 14 15 20 29 15 32 -5 4
-12 -1 -15 -9 -6 -17 -24 -22 -24 -7 0 10 46 61 56 61 3 0 3 -8 0 -17z m-1941
-4 c4 -6 5 -12 2 -15 -7 -7 -37 7 -37 17 0 13 27 11 35 -2z m143 -1 c-3 -7
-13 -15 -24 -17 -16 -3 -17 -1 -5 13 16 19 34 21 29 4z m-2418 -8 c0 -13 -11
-13 -30 0 -12 8 -11 10 8 10 12 0 22 -4 22 -10z m275 1 c10 -17 -12 -21 -25
-6 -10 12 -10 15 3 15 9 0 18 -4 22 -9z m1795 -11 c0 -5 -2 -10 -4 -10 -3 0
-8 5 -11 10 -3 6 -1 10 4 10 6 0 11 -4 11 -10z m-2030 -10 c8 -5 12 -12 9 -15
-8 -8 -39 5 -39 16 0 11 11 11 30 -1z m104 -21 c9 -47 8 -75 -3 -63 -15 14
-26 94 -14 94 6 0 13 -14 17 -31z m2160 5 c9 -22 -3 -32 -14 -14 -12 19 -12
30 -1 30 5 0 12 -7 15 -16z m-2010 -10 c9 -22 -3 -32 -14 -14 -12 19 -12 30
-1 30 5 0 12 -7 15 -16z m2102 -21 c-4 -4 -11 -1 -16 7 -16 25 -11 35 7 17 9
-9 13 -20 9 -24z m-2296 17 c0 -5 -8 -10 -18 -10 -11 0 -23 -10 -29 -22 -5
-12 -12 -17 -16 -12 -9 16 21 54 44 54 10 0 19 -4 19 -10z m2236 -57 c-4 -4
-11 -1 -16 7 -16 25 -11 35 7 17 9 -9 13 -20 9 -24z m1504 12 c-6 -15 -6 -26
0 -30 6 -4 10 -11 10 -16 0 -6 -4 -8 -9 -5 -5 4 -7 -3 -4 -14 4 -16 0 -20 -21
-20 -29 0 -45 25 -27 43 8 8 11 7 11 -7 0 -9 5 -14 10 -11 6 4 8 16 5 27 -4
12 0 27 11 39 23 25 25 24 14 -6z m-1420 -11 c0 -8 -4 -12 -10 -9 -5 3 -10 13
-10 21 0 8 5 12 10 9 6 -3 10 -13 10 -21z m-2102 -3 c3 -8 -1 -12 -9 -9 -7 2
-15 10 -17 17 -3 8 1 12 9 9 7 -2 15 -10 17 -17z m-142 -25 c10 -8 15 -18 11
-22 -4 -4 -17 2 -29 14 -25 25 -13 30 18 8z m199 -7 c-7 -10 -35 -1 -35 11 0
5 9 6 20 3 11 -3 17 -9 15 -14z m1989 5 c9 -24 7 -28 -9 -14 -17 14 -20 30 -6
30 5 0 12 -7 15 -16z m-1940 0 c9 -3 14 -10 11 -15 -7 -10 -35 0 -35 12 0 11
3 11 24 3z m-644 -30 c0 -12 -4 -13 -21 -3 -17 9 -19 13 -8 19 16 11 29 4 29
-16z m2660 0 c0 -8 -4 -12 -10 -9 -5 3 -10 13 -10 21 0 8 5 12 10 9 6 -3 10
-13 10 -21z m-2614 1 c-4 -12 -2 -13 12 -6 9 5 40 12 68 16 49 6 52 5 77 -25
15 -17 27 -42 27 -55 0 -13 11 -32 24 -42 74 -57 124 -206 88 -262 -15 -23
-15 -25 6 -39 21 -14 30 -32 15 -32 -5 1 -18 9 -31 20 -23 19 -23 20 -7 54 24
51 11 117 -37 189 -21 32 -48 63 -59 70 -11 7 -19 23 -19 38 0 14 -11 38 -24
52 -22 24 -27 25 -67 15 -24 -6 -48 -16 -54 -22 -8 -10 -47 -13 -75 -6 -5 1
52 50 59 50 2 0 1 -7 -3 -15z m414 -7 c0 -5 -10 -6 -22 -2 -20 6 -21 5 -9 -10
15 -18 1 -22 -17 -4 -9 9 -7 14 5 24 18 13 43 8 43 -8z m250 12 c0 -5 -6 -10
-14 -10 -8 0 -18 5 -21 10 -3 6 3 10 14 10 12 0 21 -4 21 -10z m-193 -27 c3
-7 -3 -9 -16 -6 -12 3 -21 10 -21 15 0 13 32 6 37 -9z m2103 -9 c0 -8 -4 -12
-10 -9 -5 3 -10 13 -10 21 0 8 5 12 10 9 6 -3 10 -13 10 -21z m958 -4 c12 -16
22 -37 22 -47 0 -15 2 -16 10 -3 8 13 10 12 10 -4 0 -15 -5 -17 -30 -12 -17 3
-30 1 -30 -4 0 -15 -37 -12 -43 3 -4 9 -8 8 -16 -3 -5 -8 -13 -11 -17 -7 -7 7
49 67 62 67 2 0 2 -11 -2 -25 -4 -15 -2 -25 5 -25 6 0 11 5 11 10 0 6 7 10 16
10 13 0 11 6 -10 26 -14 15 -26 31 -26 35 0 18 17 8 38 -21z m-2823 9 c12 -19
-5 -23 -22 -6 -16 16 -16 17 -1 17 9 0 20 -5 23 -11z m3234 -13 c-17 -17 -59
-30 -59 -19 0 9 63 42 69 36 3 -2 -2 -10 -10 -17z m-3413 -13 c-8 -8 -36 5
-36 17 0 7 6 7 21 0 11 -7 18 -14 15 -17z m2094 -12 c0 -10 12 -23 27 -30 19
-9 23 -15 15 -23 -7 -7 -13 -10 -14 -7 -2 2 -16 18 -32 36 -15 17 -25 36 -21
42 9 15 25 4 25 -18z m-2206 3 c9 -24 7 -28 -9 -14 -17 14 -20 30 -6 30 5 0
12 -7 15 -16z m166 6 c0 -5 -9 -10 -20 -10 -11 0 -20 5 -20 10 0 6 9 10 20 10
11 0 20 -4 20 -10z m60 0 c0 -5 -9 -10 -21 -10 -11 0 -17 5 -14 10 3 6 13 10
21 10 8 0 14 -4 14 -10z m-160 -10 c0 -5 -9 -10 -20 -10 -11 0 -20 5 -20 10 0
6 9 10 20 10 11 0 20 -4 20 -10z m223 3 c-7 -2 -21 -2 -30 0 -10 3 -4 5 12 5
17 0 24 -2 18 -5z m-178 -24 c12 -19 -5 -23 -22 -6 -16 16 -16 17 -1 17 9 0
20 -5 23 -11z m3555 1 c0 -5 -5 -10 -11 -10 -6 0 -3 -8 7 -17 12 -12 13 -18 4
-21 -6 -2 -16 0 -22 6 -8 8 -16 4 -29 -11 -16 -19 -18 -20 -19 -4 0 9 5 17 11
17 6 0 8 7 5 16 -3 9 -4 20 0 25 7 12 54 11 54 -1z m50 -21 c0 -4 -7 -6 -15
-3 -8 4 -15 10 -15 15 0 4 7 6 15 3 8 -4 15 -10 15 -15z m-3537 -65 c6 -31
-11 -31 -23 0 -5 13 -14 27 -19 31 -6 3 -11 13 -11 22 0 25 47 -22 53 -53z
m2037 37 c0 -11 -31 -24 -39 -16 -3 3 1 10 9 15 19 12 30 12 30 1z m73 -6 c4
-8 2 -17 -3 -20 -6 -4 -10 -4 -10 -1 0 2 -3 11 -6 20 -3 9 -2 16 4 16 5 0 12
-7 15 -15z m1407 -31 c0 -8 -4 -12 -10 -9 -5 3 -10 13 -10 21 0 8 5 12 10 9 6
-3 10 -13 10 -21z m-1530 7 c0 -13 -29 -35 -37 -28 -7 8 15 37 28 37 5 0 9 -4
9 -9z m-1956 -17 c9 -24 7 -28 -9 -14 -17 14 -20 30 -6 30 5 0 12 -7 15 -16z
m2112 -31 c-4 -4 -11 -1 -16 7 -16 25 -11 35 7 17 9 -9 13 -20 9 -24z m54 -23
c-9 -17 -14 -19 -33 -8 -21 12 -21 12 -2 16 11 2 24 11 29 20 14 24 20 -2 6
-28z m-2155 -6 c31 -34 33 -54 3 -28 -26 22 -38 36 -38 47 0 13 11 7 35 -19z
m35 4 c0 -13 -23 -5 -28 10 -2 7 2 10 12 6 9 -3 16 -11 16 -16z m-76 -4 c4
-10 1 -14 -6 -12 -15 5 -23 28 -10 28 5 0 13 -7 16 -16z m121 -23 c10 -17 -12
-21 -25 -6 -10 12 -10 15 3 15 9 0 18 -4 22 -9z m2105 -23 c0 -6 -7 -5 -15 2
-8 7 -15 17 -15 22 0 6 7 5 15 -2 8 -7 15 -17 15 -22z m-2200 -5 c0 -13 -3
-13 -15 -3 -8 7 -12 16 -9 21 8 13 24 1 24 -18z m-741 -12 c10 -17 8 -18 -13
-8 -14 7 -22 15 -20 19 9 14 23 9 33 -11z m811 -16 c0 -8 -4 -17 -10 -20 -6
-4 -10 5 -10 20 0 15 4 24 10 20 6 -3 10 -12 10 -20z m50 15 c8 -5 11 -12 7
-16 -4 -4 -15 0 -24 9 -18 18 -8 23 17 7z m2115 -11 c11 -17 -1 -21 -15 -4 -8
9 -8 15 -2 15 6 0 14 -5 17 -11z m125 1 c0 -5 -10 -10 -22 -10 -19 0 -20 2 -8
10 19 13 30 13 30 0z m40 6 c0 -3 -4 -8 -10 -11 -5 -3 -10 -1 -10 4 0 6 5 11
10 11 6 0 10 -2 10 -4z m-2360 -27 c0 -11 -27 -12 -34 0 -3 4 -3 11 0 14 8 8
34 -3 34 -14z m2263 1 c5 -21 -1 -24 -27 -14 -22 9 -20 34 3 34 10 0 21 -9 24
-20z m-2143 -21 c0 -6 -4 -7 -10 -4 -5 3 -10 11 -10 16 0 6 5 7 10 4 6 -3 10
-11 10 -16z m2198 -28 c3 -8 0 -11 -7 -7 -6 4 -11 2 -11 -5 0 -8 -4 -8 -15 1
-8 7 -15 17 -15 22 0 14 43 5 48 -11z m41 -24 c6 -8 8 -17 4 -20 -7 -8 -33 11
-33 24 0 13 16 11 29 -4z m-23 -35 c-9 -8 -26 10 -26 26 1 15 2 15 15 -2 8
-11 13 -21 11 -24z m44 -9 c-1 -18 -19 -35 -29 -28 -9 5 -9 10 0 21 12 15 29
19 29 7z m-1331 -45 c-8 -14 -14 -18 -17 -10 -4 13 17 46 25 38 3 -2 -1 -15
-8 -28z m51 17 c0 -8 -4 -15 -9 -15 -5 0 -11 7 -15 15 -3 9 0 15 9 15 8 0 15
-7 15 -15z m1248 -27 c-3 -7 -13 -15 -24 -17 -16 -3 -17 -1 -5 13 16 19 34 21
29 4z m-1257 -12 c5 3 9 -15 9 -40 0 -25 5 -46 10 -46 6 0 10 9 10 20 0 11 5
20 11 20 7 0 9 -11 6 -30 -4 -19 -2 -30 5 -30 6 0 9 -3 6 -6 -4 -3 -17 0 -30
7 -12 7 -29 12 -36 10 -11 -2 -12 6 -7 31 6 27 5 31 -6 21 -7 -7 -19 -13 -26
-13 -11 0 -11 4 -1 22 20 34 33 47 36 37 2 -5 8 -7 13 -3z m39 -16 c0 -5 -4
-10 -10 -10 -5 0 -10 5 -10 10 0 6 5 10 10 10 6 0 10 -4 10 -10z m1160 -25
c-7 -9 -15 -13 -18 -10 -3 2 1 11 8 20 7 9 15 13 18 10 3 -2 -1 -11 -8 -20z
m-1260 -46 c0 -11 -4 -17 -10 -14 -5 3 -10 15 -10 26 0 11 5 17 10 14 6 -3 10
-15 10 -26z m21 -12 c-8 -8 -11 -7 -11 4 0 20 13 34 18 19 3 -7 -1 -17 -7 -23z
m33 -33 c4 -10 1 -14 -6 -12 -15 5 -23 28 -10 28 5 0 13 -7 16 -16z m96 -38
c0 -8 -8 -20 -17 -27 -15 -12 -16 -12 -10 4 4 10 7 25 7 33 0 9 5 12 10 9 6
-3 10 -12 10 -19z m-47 7 c-7 -2 -13 -18 -13 -34 0 -17 -4 -28 -9 -24 -5 3 -9
19 -9 35 1 24 5 30 22 29 12 0 15 -3 9 -6z m-13 -95 c0 -7 -5 -20 -10 -28 -8
-12 -10 -9 -10 13 0 15 5 27 10 27 6 0 10 -6 10 -12z"/>
<path d="M4337 4720 c18 -31 33 -39 33 -17 -1 17 -25 47 -39 47 -8 0 -6 -10 6
-30z"/>
<path d="M4373 4675 c-26 -29 -9 -80 23 -73 20 3 34 58 15 58 -6 0 -11 7 -11
15 0 19 -11 19 -27 0z"/>
<path d="M4730 4695 c0 -8 4 -15 9 -15 5 0 11 7 15 15 3 9 0 15 -9 15 -8 0
-15 -7 -15 -15z"/>
<path d="M3860 3393 c1 -9 30 -49 31 -42 0 2 2 14 5 27 3 17 -1 22 -16 22 -11
0 -20 -3 -20 -7z"/>
<path d="M3385 2610 c4 -6 11 -8 16 -5 14 9 11 15 -7 15 -8 0 -12 -5 -9 -10z"/>
<path d="M3335 2589 c5 -15 4 -19 -4 -15 -6 4 -11 3 -11 -3 0 -19 20 -22 36
-6 19 18 12 45 -11 45 -12 0 -15 -6 -10 -21z"/>
<path d="M3420 2599 c0 -5 5 -7 10 -4 6 3 10 8 10 11 0 2 -4 4 -10 4 -5 0 -10
-5 -10 -11z"/>
<path d="M3432 2583 c-26 -5 -40 -29 -25 -44 6 -6 14 -4 23 6 7 8 21 15 32 15
11 0 18 5 16 12 -5 14 -15 17 -46 11z"/>
<path d="M3453 2540 c-28 -11 -29 -22 -3 -45 17 -16 20 -16 26 -2 3 9 3 21 -1
28 -4 6 -1 15 6 20 18 11 1 10 -28 -1z"/>
<path d="M3506 2520 c-20 -41 -20 -50 -1 -50 8 0 19 -9 25 -20 8 -16 15 -18
35 -10 19 7 25 6 29 -8 4 -9 24 -24 46 -34 48 -20 116 -6 104 21 -3 9 -13 34
-20 57 -17 46 -42 59 -140 70 l-61 6 -17 -32z"/>
<path d="M3340 2528 c0 -28 15 -39 35 -25 10 8 15 19 11 25 -10 16 -46 15 -46
0z"/>
<path d="M3381 2486 c-10 -11 -5 -15 28 -18 38 -3 39 -2 24 14 -19 22 -37 23
-52 4z"/>
<path d="M3495 2410 c3 -5 11 -10 16 -10 6 0 7 5 4 10 -3 6 -11 10 -16 10 -6
0 -7 -4 -4 -10z"/>
<path d="M3530 2375 c-19 -49 -16 -51 39 -31 l34 12 -31 23 -32 22 -10 -26z"/>
<path d="M3610 2386 c0 -2 7 -7 16 -10 8 -3 12 -2 9 4 -6 10 -25 14 -25 6z"/>
<path d="M2680 2535 c1 -16 69 -89 77 -81 4 4 -12 26 -35 49 -23 23 -42 37
-42 32z"/>
<path d="M2660 2506 c0 -2 14 -18 30 -36 34 -36 41 -26 9 14 -18 22 -39 35
-39 22z"/>
<path d="M2620 2491 c0 -6 5 -11 10 -11 6 0 22 -12 35 -27 13 -16 25 -23 25
-17 0 10 -33 44 -57 58 -7 4 -13 2 -13 -3z"/>
<path d="M4078 1522 c-10 -2 -18 -9 -18 -17 0 -7 -7 -15 -15 -19 -8 -3 -12
-12 -9 -20 4 -11 12 -12 35 -4 16 5 31 14 34 18 10 16 -10 46 -27 42z"/>
<path d="M3956 1494 c-8 -20 1 -34 21 -34 9 0 13 6 9 15 -3 8 -1 15 4 15 6 0
10 5 10 10 0 16 -37 11 -44 -6z"/>
<path d="M4086 1453 c-17 -4 -16 -6 5 -17 13 -6 25 -19 27 -29 3 -16 -6 -26
-67 -74 -10 -8 -12 -12 -4 -13 7 0 28 14 48 31 30 27 36 37 33 67 -3 37 -10
43 -42 35z"/>
<path d="M4080 1410 c0 -5 -3 -9 -7 -9 -26 4 -54 -3 -69 -18 -11 -12 -30 -16
-60 -14 -24 1 -44 0 -44 -3 0 -9 78 -56 92 -56 8 0 6 5 -4 11 -26 15 -22 27 7
21 20 -3 25 0 25 17 0 24 17 29 22 5 3 -14 7 -13 31 6 27 21 37 50 17 50 -5 0
-10 -4 -10 -10z"/>
<path d="M3995 1280 c4 -6 11 -8 16 -5 14 9 11 15 -7 15 -8 0 -12 -5 -9 -10z"/>
<path d="M1520 3065 c7 -9 15 -13 17 -11 7 7 -7 26 -19 26 -6 0 -6 -6 2 -15z"/>
</g>
</svg>
