<?xml version="1.0" standalone="no"?>
<!DOCTYPE svg PUBLIC "-//W3C//DTD SVG 20010904//EN"
 "http://www.w3.org/TR/2001/REC-SVG-20010904/DTD/svg10.dtd">
<svg version="1.0" xmlns="http://www.w3.org/2000/svg"
 width="800.000000pt" height="800.000000pt" viewBox="0 0 800.000000 800.000000"
 preserveAspectRatio="xMidYMid meet">
<metadata>
Created by potrace 1.16, written by Peter Selinger 2001-2019
</metadata>
<g transform="translate(0.000000,800.000000) scale(0.100000,-0.100000)"
fill="#000000" stroke="none">
<path d="M0 4469 l0 -3531 33 28 c17 15 31 30 30 34 -1 3 7 7 18 7 29 2 23 -8
-31 -52 l-49 -40 0 -457 -1 -458 4000 0 4000 0 0 4000 0 4000 -3509 0 c-2798
0 -3510 -3 -3514 -12 -4 -10 -6 -10 -6 0 -1 9 -105 12 -486 12 l-485 0 0
-3531z m4991 3488 c-8 -8 -11 -7 -11 4 0 20 13 34 18 19 3 -7 -1 -17 -7 -23z
m-4025 -24 c-11 -11 -19 6 -11 24 8 17 8 17 12 0 3 -10 2 -21 -1 -24z m4010
-30 c-11 -11 -17 4 -9 23 7 18 8 18 11 1 2 -10 1 -21 -2 -24z m-4055 -50 c-8
-15 -10 -15 -11 -2 0 17 10 32 18 25 2 -3 -1 -13 -7 -23z m4030 -6 c-8 -8 -11
-7 -11 4 0 20 13 34 18 19 3 -7 -1 -17 -7 -23z m-4031 -44 c0 -19 -3 -24 -10
-17 -6 6 -8 18 -4 27 9 24 14 21 14 -10z m4011 -16 c-13 -13 -15 1 -4 30 7 17
8 17 11 -1 2 -10 -1 -23 -7 -29z m-4021 -24 c0 -14 -19 -38 -25 -32 -8 8 5 39
16 39 5 0 9 -3 9 -7z m4004 -17 c-6 -16 -24 -23 -24 -8 0 10 22 33 27 28 2 -2
1 -11 -3 -20z m-34 -41 c-7 -8 -17 -15 -22 -15 -6 0 -5 7 2 15 7 8 17 15 22
15 6 0 5 -7 -2 -15z m-4000 -17 c0 -16 -3 -19 -11 -11 -6 6 -8 16 -5 22 11 17
16 13 16 -11z m3959 -34 c-15 -18 -22 -13 -13 10 3 9 10 13 16 10 5 -3 4 -12
-3 -20z m-3959 -25 c0 -11 -4 -17 -10 -14 -5 3 -10 13 -10 21 0 8 5 14 10 14
6 0 10 -9 10 -21z m3931 -36 c-8 -15 -10 -15 -11 -2 0 17 10 32 18 25 2 -3 -1
-13 -7 -23z m-3931 -24 c0 -11 -4 -17 -10 -14 -5 3 -10 13 -10 21 0 8 5 14 10
14 6 0 10 -9 10 -21z m3910 -24 c-7 -9 -15 -13 -18 -10 -3 2 1 11 8 20 7 9 15
13 18 10 3 -2 -1 -11 -8 -20z m-4003 -27 c-3 -7 -5 -2 -5 12 0 14 2 19 5 13 2
-7 2 -19 0 -25z m103 -20 c0 -5 -4 -8 -10 -8 -5 0 -10 10 -10 23 0 18 2 19 10
7 5 -8 10 -18 10 -22z m3860 7 c-7 -9 -15 -13 -17 -11 -7 7 7 26 19 26 6 0 6
-6 -2 -15z m-3850 -63 c0 -7 -4 -10 -10 -7 -5 3 -10 16 -10 28 0 18 2 19 10 7
5 -8 10 -21 10 -28z m3820 29 c0 -5 -7 -14 -15 -21 -16 -14 -18 -10 -9 14 6
17 24 22 24 7z m-45 -51 c-3 -5 -13 -10 -21 -10 -8 0 -12 5 -9 10 3 6 13 10
21 10 8 0 12 -4 9 -10z m-3779 -37 c-11 -11 -17 4 -9 23 7 18 8 18 11 1 2 -10
1 -21 -2 -24z m3714 12 c-7 -9 -15 -13 -17 -11 -7 7 7 26 19 26 6 0 6 -6 -2
-15z m-40 -40 c-7 -8 -17 -15 -22 -15 -6 0 -5 7 2 15 7 8 17 15 22 15 6 0 5
-7 -2 -15z m-3684 -32 c-11 -11 -17 4 -9 23 7 18 8 18 11 1 2 -10 1 -21 -2
-24z m3644 -2 c0 -12 -20 -25 -27 -18 -7 7 6 27 18 27 5 0 9 -4 9 -9z m-3654
-58 c-11 -11 -19 6 -11 24 8 17 8 17 12 0 3 -10 2 -21 -1 -24z m3604 12 c-7
-8 -17 -15 -22 -15 -6 0 -5 7 2 15 7 8 17 15 22 15 6 0 5 -7 -2 -15z m-45 -44
c-3 -6 -11 -11 -17 -11 -6 0 -6 6 2 15 14 17 26 13 15 -4z m-3560 -50 c-3 -2
-5 2 -5 10 -1 8 -11 -26 -24 -74 -13 -49 -29 -94 -35 -100 -6 -6 -11 -20 -11
-31 0 -15 -3 -17 -12 -8 -9 9 -7 20 9 49 11 21 28 72 38 113 23 105 26 110 36
76 5 -17 6 -32 4 -35z m3517 7 c-6 -6 -15 -8 -19 -4 -4 4 -1 11 7 16 19 12 27
3 12 -12z m-32 -27 c0 -5 -7 -12 -16 -15 -24 -9 -28 -7 -14 9 14 17 30 20 30
6z m-46 -56 c-6 -16 -24 -21 -24 -7 0 11 11 22 21 22 5 0 6 -7 3 -15z m-39
-54 c-3 -6 -11 -11 -17 -11 -6 0 -6 6 2 15 14 17 26 13 15 -4z m-35 -46 c-7
-9 -15 -13 -17 -11 -7 7 7 26 19 26 6 0 6 -6 -2 -15z m-45 -25 c-3 -5 -13 -10
-21 -10 -8 0 -12 5 -9 10 3 6 13 10 21 10 8 0 12 -4 9 -10z m-85 -20 c0 -5
-10 -10 -22 -10 -19 0 -20 2 -8 10 19 13 30 13 30 0z m-60 -10 c0 -5 -10 -10
-22 -10 -19 0 -20 2 -8 10 19 13 30 13 30 0z m-70 -25 c-7 -9 -15 -13 -18 -10
-3 2 1 11 8 20 7 9 15 13 18 10 3 -2 -1 -11 -8 -20z m-36 -40 c-6 -16 -24 -21
-24 -7 0 11 11 22 21 22 5 0 6 -7 3 -15z m-3177 -42 c-3 -10 -5 -4 -5 12 0 17
2 24 5 18 2 -7 2 -21 0 -30z m3130 0 c-9 -9 -20 -13 -24 -9 -4 4 -1 11 7 16
25 16 35 11 17 -7z m-51 -28 c-21 -16 -32 -13 -21 4 3 6 14 11 23 11 15 -1 15
-2 -2 -15z m-3076 -25 c0 -11 -4 -20 -10 -20 -5 0 -10 9 -10 20 0 11 5 20 10
20 6 0 10 -9 10 -20z m3040 -9 c0 -12 -20 -25 -27 -18 -7 7 6 27 18 27 5 0 9
-4 9 -9z m-3053 -63 c-3 -7 -5 -2 -5 12 0 14 2 19 5 13 2 -7 2 -19 0 -25z
m3013 23 c0 -5 -7 -14 -15 -21 -12 -10 -15 -10 -15 2 0 8 3 18 7 21 9 10 23 9
23 -2z m-50 -56 c-7 -8 -17 -15 -22 -15 -6 0 -5 7 2 15 7 8 17 15 22 15 6 0 5
-7 -2 -15z m-2960 -9 c0 -8 -4 -18 -10 -21 -5 -3 -10 3 -10 14 0 12 5 21 10
21 6 0 10 -6 10 -14z m2910 -16 c-20 -13 -33 -13 -25 0 3 6 14 10 23 10 15 0
15 -2 2 -10z m-55 -20 c-3 -5 -14 -10 -23 -10 -15 0 -15 2 -2 10 20 13 33 13
25 0z m-2872 -30 c-3 -11 -9 -20 -14 -20 -11 0 -11 3 -3 24 9 23 23 20 17 -4z
m2814 3 c-9 -9 -20 -13 -24 -9 -4 4 -1 11 7 16 25 16 35 11 17 -7z m-48 -34
c-22 -14 -33 -10 -19 6 7 8 17 12 22 9 6 -4 5 -10 -3 -15z m-2779 -16 c0 -5
-5 -15 -10 -23 -8 -12 -10 -11 -10 8 0 12 5 22 10 22 6 0 10 -3 10 -7z m2718
-28 c-12 -14 -24 -23 -26 -20 -6 6 28 45 39 45 5 0 -1 -11 -13 -25z m-2718
-47 c0 -19 -2 -20 -10 -8 -13 19 -13 30 0 30 6 0 10 -10 10 -22z m2675 -7 c-3
-6 -11 -11 -17 -11 -6 0 -6 6 2 15 14 17 26 13 15 -4z m-2655 -57 c0 -8 -4
-12 -10 -9 -5 3 -10 13 -10 21 0 8 5 12 10 9 6 -3 10 -13 10 -21z m2620 11
c-7 -8 -17 -15 -22 -15 -6 0 -5 7 2 15 7 8 17 15 22 15 6 0 5 -7 -2 -15z
m-2580 -35 c8 -5 11 -12 7 -16 -4 -4 -15 0 -24 9 -18 18 -8 23 17 7z m2550
-21 c-7 -11 -14 -18 -17 -15 -8 8 5 36 17 36 7 0 7 -6 0 -21z m-2500 -9 c8 -5
11 -12 7 -16 -4 -4 -15 0 -24 9 -18 18 -8 23 17 7z m60 -42 c0 -13 -23 -5 -28
10 -2 7 2 10 12 6 9 -3 16 -11 16 -16z m2410 1 c-7 -11 -14 -19 -16 -16 -7 7
7 37 17 37 6 0 5 -9 -1 -21z m-2360 -31 c0 -13 -23 -5 -28 10 -2 7 2 10 12 6
9 -3 16 -11 16 -16z m2334 -22 c-3 -9 -10 -16 -15 -16 -6 0 -5 9 1 21 13 24
24 20 14 -5z m-2279 -14 c-7 -8 -35 7 -35 18 0 6 7 6 20 -2 10 -7 17 -14 15
-16z m45 -22 c13 -8 13 -10 -2 -10 -9 0 -20 5 -23 10 -8 13 5 13 25 0z m2208
-12 c-2 -6 -10 -14 -16 -16 -7 -2 -10 2 -6 12 7 18 28 22 22 4z m-2160 -27 c3
-8 -1 -12 -9 -9 -7 2 -15 10 -17 17 -3 8 1 12 9 9 7 -2 15 -10 17 -17z m2123
-44 c-8 -8 -11 -7 -11 4 0 20 13 34 18 19 3 -7 -1 -17 -7 -23z m-2101 -4 c0
-20 -3 -24 -11 -16 -7 7 -9 19 -6 27 10 24 17 19 17 -11z m2090 -20 c0 -14
-19 -38 -25 -32 -8 8 5 39 16 39 5 0 9 -3 9 -7z m-2093 -50 c-3 -10 -5 -4 -5
12 0 17 2 24 5 18 2 -7 2 -21 0 -30z m2057 -18 c-4 -8 -10 -15 -15 -15 -4 0
-6 7 -3 15 4 8 10 15 15 15 4 0 6 -7 3 -15z m-2057 -42 c-3 -10 -5 -4 -5 12 0
17 2 24 5 18 2 -7 2 -21 0 -30z m2028 -12 c-3 -6 -11 -11 -17 -11 -6 0 -6 6 2
15 14 17 26 13 15 -4z m-2024 -54 c-8 -8 -11 -3 -11 19 1 25 2 27 11 11 8 -14
8 -22 0 -30z m1979 8 c-7 -9 -15 -13 -18 -10 -3 2 1 11 8 20 7 9 15 13 18 10
3 -2 -1 -11 -8 -20z m-1970 -51 c0 -8 -4 -14 -10 -14 -5 0 -10 9 -10 21 0 11
5 17 10 14 6 -3 10 -13 10 -21z m1930 11 c-7 -9 -15 -13 -17 -11 -7 7 7 26 19
26 6 0 6 -6 -2 -15z m-44 -40 c-21 -16 -32 -13 -21 4 3 6 14 11 23 11 15 -1
15 -2 -2 -15z m-1886 -30 c0 -8 -4 -15 -10 -15 -5 0 -10 7 -10 15 0 8 5 15 10
15 6 0 10 -7 10 -15z m1836 0 c-21 -16 -32 -13 -21 4 3 6 14 11 23 11 15 -1
15 -2 -2 -15z m-54 -37 c-6 -6 -15 -8 -19 -4 -4 4 -1 11 7 16 19 12 27 3 12
-12z m-1782 -25 c0 -20 -3 -24 -11 -16 -7 7 -9 19 -6 27 10 24 17 19 17 -11z
m1730 -3 c-8 -5 -18 -6 -24 -3 -5 4 -1 10 10 13 24 9 34 2 14 -10z m-50 -10
c-19 -13 -30 -13 -30 0 0 6 10 10 23 10 18 0 19 -2 7 -10z m-60 -10 c-19 -13
-30 -13 -30 0 0 6 10 10 23 10 18 0 19 -2 7 -10z m-60 -15 c-7 -8 -17 -15 -22
-15 -6 0 -5 7 2 15 7 8 17 15 22 15 6 0 5 -7 -2 -15z m-1563 -32 c-3 -10 -5
-4 -5 12 0 17 2 24 5 18 2 -7 2 -21 0 -30z m1513 -18 c-7 -9 -15 -13 -18 -10
-3 2 1 11 8 20 7 9 15 13 18 10 3 -2 -1 -11 -8 -20z m-1513 -42 c-3 -10 -5 -4
-5 12 0 17 2 24 5 18 2 -7 2 -21 0 -30z m1418 27 c4 -6 -6 -10 -22 -9 -25 0
-26 1 -8 9 11 5 21 9 22 9 1 1 5 -3 8 -9z m65 6 c0 -9 -40 -13 -46 -5 -3 5 6
9 20 9 14 0 26 -2 26 -4z m-116 -51 c-6 -16 -24 -21 -24 -7 0 11 11 22 21 22
5 0 6 -7 3 -15z m-1370 -29 c-3 -9 -10 -16 -15 -16 -6 0 -5 9 1 21 13 24 24
20 14 -5z m1333 -21 c-4 -8 -11 -15 -17 -15 -7 0 -7 6 0 21 13 23 26 19 17 -6z
m-1366 -48 c-8 -8 -11 -7 -11 4 0 20 13 34 18 19 3 -7 -1 -17 -7 -23z m1329
24 c0 -5 -7 -12 -16 -15 -24 -9 -28 -7 -14 9 14 17 30 20 30 6z m-60 -31 c-20
-13 -43 -13 -35 0 3 6 16 10 28 10 18 0 19 -2 7 -10z m-66 -20 c-10 -4 -21 -6
-24 -3 -8 7 24 22 34 16 5 -4 1 -10 -10 -13z m-1214 -10 c0 -11 -4 -20 -10
-20 -5 0 -10 9 -10 20 0 11 5 20 10 20 6 0 10 -9 10 -20z m1170 1 c0 -11 -31
-24 -39 -16 -3 3 1 10 9 15 19 12 30 12 30 1z m-460 -5 c0 -2 -7 -9 -15 -16
-12 -10 -15 -10 -15 4 0 9 7 16 15 16 8 0 15 -2 15 -4z m45 -7 c11 -17 -1 -21
-15 -4 -8 9 -8 15 -2 15 6 0 14 -5 17 -11z m355 -34 c-7 -9 -15 -13 -18 -10
-3 2 1 11 8 20 7 9 15 13 18 10 3 -2 -1 -11 -8 -20z m-1110 -15 c0 -11 -4 -20
-10 -20 -5 0 -10 9 -10 20 0 11 5 20 10 20 6 0 10 -9 10 -20z m666 -17 c-11
-11 -17 4 -9 23 7 18 8 18 11 1 2 -10 1 -21 -2 -24z m124 11 c0 -8 -4 -12 -10
-9 -5 3 -10 13 -10 21 0 8 5 12 10 9 6 -3 10 -13 10 -21z m270 -19 c-7 -9 -15
-13 -18 -10 -3 2 1 11 8 20 7 9 15 13 18 10 3 -2 -1 -11 -8 -20z m-105 5 c18
-8 17 -9 -7 -9 -16 -1 -28 4 -28 9 0 12 8 12 35 0z m-115 -10 c13 -8 13 -10
-2 -10 -9 0 -20 5 -23 10 -8 13 5 13 25 0z m65 0 c-3 -5 -16 -10 -28 -10 -18
0 -19 2 -7 10 20 13 43 13 35 0z m115 0 c0 -5 -9 -10 -20 -10 -11 0 -20 5 -20
10 0 6 9 10 20 10 11 0 20 -4 20 -10z m-1020 -42 c0 -5 -4 -8 -10 -8 -5 0 -10
10 -10 23 0 18 2 19 10 7 5 -8 10 -18 10 -22z m640 17 c-7 -9 -15 -13 -17 -11
-7 7 7 26 19 26 6 0 6 -6 -2 -15z m-43 -42 c-9 -9 -20 -13 -24 -9 -4 4 -1 11
7 16 25 16 35 11 17 -7z m-549 -28 c16 -17 16 -17 -3 -10 -11 4 -35 10 -52 13
-18 2 -33 8 -33 13 0 15 70 3 88 -16z m-113 5 c-3 -5 -13 -10 -21 -10 -8 0
-14 5 -14 10 0 6 9 10 21 10 11 0 17 -4 14 -10z m620 0 c-3 -5 -13 -10 -21
-10 -8 0 -12 5 -9 10 3 6 13 10 21 10 8 0 12 -4 9 -10z m-675 -10 c0 -5 -9
-10 -21 -10 -11 0 -17 5 -14 10 3 6 13 10 21 10 8 0 14 -4 14 -10z m620 -10
c0 -5 -5 -10 -11 -10 -5 0 -7 5 -4 10 3 6 8 10 11 10 2 0 4 -4 4 -10z m-380
-25 c35 -37 14 -44 -23 -7 -22 22 -27 32 -16 32 9 0 26 -11 39 -25z m336 0
c-11 -8 -22 -12 -25 -9 -6 6 19 24 34 24 6 -1 1 -7 -9 -15z m-626 -10 c-7 -8
-17 -15 -22 -15 -6 0 -5 7 2 15 7 8 17 15 22 15 6 0 5 -7 -2 -15z m603 -9 c16
-13 15 -14 -17 -13 -36 1 -47 11 -23 20 18 8 20 8 40 -7z m-643 -31 c-7 -8
-17 -15 -22 -15 -6 0 -5 7 2 15 7 8 17 15 22 15 6 0 5 -7 -2 -15z m570 6 c0
-11 -31 -24 -39 -16 -3 3 1 10 9 15 19 12 30 12 30 1z m-170 -11 c0 -13 -11
-13 -30 0 -12 8 -11 10 8 10 12 0 22 -4 22 -10z m293 -5 c4 -8 2 -17 -2 -20
-5 -2 -11 4 -14 15 -6 23 8 27 16 5z m-243 -5 c0 -5 -9 -10 -21 -10 -11 0 -17
5 -14 10 3 6 13 10 21 10 8 0 14 -4 14 -10z m60 0 c0 -5 -9 -10 -21 -10 -11 0
-17 5 -14 10 3 6 13 10 21 10 8 0 14 -4 14 -10z m-554 -38 c-8 -9 -19 -13 -22
-9 -10 9 16 38 28 31 6 -4 4 -13 -6 -22z m421 -104 c-2 -24 -4 -7 -4 37 0 44
2 63 4 43 2 -21 2 -57 0 -80z m323 81 c0 -11 -4 -17 -10 -14 -5 3 -10 13 -10
21 0 8 5 14 10 14 6 0 10 -9 10 -21z m-780 -20 c-7 -11 -14 -18 -17 -15 -8 8
5 36 17 36 7 0 7 -6 0 -21z m771 -42 c-8 -8 -11 -7 -11 4 0 20 13 34 18 19 3
-7 -1 -17 -7 -23z m-807 -11 c-3 -9 -10 -13 -16 -10 -5 3 -4 12 3 20 15 18 22
13 13 -10z m787 -49 c-8 -8 -11 -7 -11 4 0 20 13 34 18 19 3 -7 -1 -17 -7 -23z
m-811 14 c0 -5 -7 -14 -15 -21 -16 -14 -18 -10 -9 14 6 17 24 22 24 7z m-42
-61 c-14 -22 -24 -19 -15 5 4 8 11 15 17 15 6 0 6 -7 -2 -20z m852 -6 c0 -8
-4 -14 -10 -14 -5 0 -10 9 -10 21 0 11 5 17 10 14 6 -3 10 -13 10 -21z m-885
-43 c-3 -6 -11 -11 -17 -11 -6 0 -6 6 2 15 14 17 26 13 15 -4z m915 -8 c0 -13
-3 -13 -15 -3 -8 7 -15 16 -15 21 0 5 7 6 15 3 8 -4 15 -13 15 -21z m-373 -15
c-3 -8 -6 -5 -6 6 -1 11 2 17 5 13 3 -3 4 -12 1 -19z m-573 -23 c-6 -16 -24
-21 -24 -7 0 11 11 22 21 22 5 0 6 -7 3 -15z m976 -5 c0 -11 -4 -20 -10 -20
-5 0 -10 9 -10 20 0 11 5 20 10 20 6 0 10 -9 10 -20z m-1010 -29 c0 -11 -31
-24 -39 -16 -3 3 1 10 9 15 19 12 30 12 30 1z m-65 -30 c-3 -6 -14 -11 -23
-11 -15 1 -15 2 2 15 21 16 32 13 21 -4z m1065 -2 c0 -11 -4 -18 -10 -14 -5 3
-7 12 -3 20 7 21 13 19 13 -6z m-1120 -19 c-19 -13 -30 -13 -30 0 0 6 10 10
23 10 18 0 19 -2 7 -10z m-60 -20 c-19 -13 -30 -13 -30 0 0 6 10 10 23 10 18
0 19 -2 7 -10z m-60 -10 c-19 -13 -30 -13 -30 0 0 6 10 10 23 10 18 0 19 -2 7
-10z m1227 -22 c-3 -7 -5 -2 -5 12 0 14 2 19 5 13 2 -7 2 -19 0 -25z m-1337
12 c0 -5 -10 -10 -22 -9 -22 0 -22 1 -3 9 11 5 21 9 23 9 1 1 2 -3 2 -9z m53
3 c-7 -2 -19 -2 -25 0 -7 3 -2 5 12 5 14 0 19 -2 13 -5z m-118 -23 c-3 -5 -13
-10 -21 -10 -8 0 -12 5 -9 10 3 6 13 10 21 10 8 0 12 -4 9 -10z m-50 -20 c-3
-5 -14 -10 -23 -10 -15 0 -15 2 -2 10 20 13 33 13 25 0z m-62 -7 c-7 -2 -19
-2 -25 0 -7 3 -2 5 12 5 14 0 19 -2 13 -5z m1517 -8 c0 -8 -4 -15 -10 -15 -5
0 -10 7 -10 15 0 8 5 15 10 15 6 0 10 -7 10 -15z m30 -50 c7 -8 8 -15 2 -15
-5 0 -15 7 -22 15 -7 8 -8 15 -2 15 5 0 15 -7 22 -15z m50 -30 c14 -16 10 -18
-14 -9 -9 3 -16 10 -16 15 0 14 16 11 30 -6z m55 -35 c8 -13 -5 -13 -25 0 -13
8 -13 10 2 10 9 0 20 -4 23 -10z m43 -38 c6 -18 -15 -14 -22 4 -4 10 -1 14 6
12 6 -2 14 -10 16 -16z m2 -52 c0 -11 -4 -20 -10 -20 -5 0 -10 9 -10 20 0 11
5 20 10 20 6 0 10 -9 10 -20z m-3 -72 c-3 -7 -5 -2 -5 12 0 14 2 19 5 13 2 -7
2 -19 0 -25z m27 -44 c10 -25 -1 -29 -14 -5 -6 12 -7 21 -1 21 5 0 12 -7 15
-16z m30 -50 c10 -25 -1 -29 -14 -5 -6 12 -7 21 -1 21 5 0 12 -7 15 -16z m41
-45 c11 -17 -1 -21 -15 -4 -8 9 -8 15 -2 15 6 0 14 -5 17 -11z m50 -40 c11
-17 0 -20 -21 -4 -17 13 -17 14 -2 15 9 0 20 -5 23 -11z m45 -51 c0 -6 -7 -5
-15 2 -8 7 -15 17 -15 22 0 6 7 5 15 -2 8 -7 15 -17 15 -22z m50 -40 c0 -6 -7
-5 -15 2 -8 7 -15 17 -15 22 0 6 7 5 15 -2 8 -7 15 -17 15 -22z m41 -24 c12
-14 11 -16 -5 -13 -11 2 -21 10 -24 17 -5 17 13 15 29 -4z m45 -51 c-7 -7 -26
7 -26 19 0 6 6 6 15 -2 9 -7 13 -15 11 -17z m44 -28 c7 -8 8 -15 2 -15 -5 0
-15 7 -22 15 -7 8 -8 15 -2 15 5 0 15 -7 22 -15z m48 -44 c3 -8 -1 -12 -9 -9
-7 2 -15 10 -17 17 -3 8 1 12 9 9 7 -2 15 -10 17 -17z m37 -31 c3 -5 2 -10 -4
-10 -5 0 -13 5 -16 10 -3 6 -2 10 4 10 5 0 13 -4 16 -10z m43 -39 c3 -8 -1
-12 -9 -9 -7 2 -15 10 -17 17 -3 8 1 12 9 9 7 -2 15 -10 17 -17z m39 -36 c9
-25 -4 -29 -17 -6 -7 15 -7 21 0 21 6 0 13 -7 17 -15z m16 -55 c3 -11 1 -20
-4 -20 -5 0 -9 9 -9 20 0 11 2 20 4 20 2 0 6 -9 9 -20z m7 -62 c0 -18 -2 -20
-9 -8 -6 8 -7 18 -5 22 9 14 14 9 14 -14z m10 -59 c0 -11 -4 -17 -10 -14 -5 3
-10 13 -10 21 0 8 5 14 10 14 6 0 10 -9 10 -21z m10 -59 c0 -11 -4 -20 -10
-20 -5 0 -10 9 -10 20 0 11 5 20 10 20 6 0 10 -9 10 -20z m10 -66 c0 -8 -4
-14 -10 -14 -5 0 -10 9 -10 21 0 11 5 17 10 14 6 -3 10 -13 10 -21z m10 -55
c0 -11 -4 -17 -10 -14 -5 3 -10 13 -10 21 0 8 5 14 10 14 6 0 10 -9 10 -21z
m20 -71 c0 -5 -4 -8 -10 -8 -5 0 -10 10 -10 23 0 18 2 19 10 7 5 -8 10 -18 10
-22z m10 -50 c0 -19 -2 -20 -10 -8 -13 19 -13 30 0 30 6 0 10 -10 10 -22z m20
-54 c0 -8 -4 -14 -10 -14 -5 0 -10 9 -10 21 0 11 5 17 10 14 6 -3 10 -13 10
-21z m13 -54 c3 -11 2 -20 -3 -20 -4 0 -10 9 -13 20 -3 11 -2 20 3 20 4 0 10
-9 13 -20z m17 -61 c0 -11 -4 -17 -10 -14 -5 3 -10 13 -10 21 0 8 5 14 10 14
6 0 10 -9 10 -21z m255 -9 c-3 -5 -13 -10 -21 -10 -8 0 -12 5 -9 10 3 6 13 10
21 10 8 0 12 -4 9 -10z m42 -5 c9 -24 -1 -27 -15 -5 -8 13 -8 20 -2 20 6 0 13
-7 17 -15z m-97 -24 c0 -5 -7 -11 -15 -15 -15 -5 -20 5 -8 17 9 10 23 9 23 -2z
m-180 -33 c0 -5 -4 -8 -10 -8 -5 0 -10 10 -10 23 0 18 2 19 10 7 5 -8 10 -18
10 -22z m291 -11 c-8 -8 -11 -7 -11 4 0 20 13 34 18 19 3 -7 -1 -17 -7 -23z
m-166 4 c-3 -6 -11 -11 -17 -11 -6 0 -6 6 2 15 14 17 26 13 15 -4z m-99 -38
c-7 -7 -26 7 -26 19 0 6 6 6 15 -2 9 -7 13 -15 11 -17z m1034 17 c12 -8 11
-10 -6 -10 -14 0 -24 -9 -29 -22 -6 -19 -8 -20 -12 -6 -2 10 2 24 9 32 16 18
19 19 38 6z m-984 -15 c-11 -8 -22 -12 -25 -9 -6 6 19 24 34 24 6 -1 1 -7 -9
-15z m1034 -11 c0 -8 -4 -12 -10 -9 -5 3 -10 13 -10 21 0 8 5 12 10 9 6 -3 10
-13 10 -21z m-820 -27 c0 -5 -4 -5 -10 -2 -5 3 -10 14 -10 23 0 15 2 15 10 2
5 -8 10 -19 10 -23z m695 -27 c-10 -11 -20 -18 -23 -15 -7 6 18 35 31 35 5 0
2 -9 -8 -20z m132 -12 c-3 -7 -5 -2 -5 12 0 14 2 19 5 13 2 -7 2 -19 0 -25z
m-817 -10 c0 -18 -2 -20 -9 -8 -6 8 -7 18 -5 22 9 14 14 9 14 -14z m720 -8 c4
-3 11 -21 14 -40 l7 -35 -20 25 c-11 13 -19 28 -18 31 2 8 -12 9 -31 1 -7 -2
-16 -2 -19 2 -3 3 3 9 13 13 10 3 23 13 28 22 8 13 10 13 14 1 3 -8 8 -17 12
-20z m84 -24 c-8 -20 -25 -20 -50 0 -18 15 -18 15 8 10 15 -4 30 -1 33 5 10
15 17 5 9 -15z m861 -4 c-16 -14 -346 -124 -353 -118 -8 9 -9 8 163 68 152 53
211 69 190 50z m-1668 -34 c-3 -7 -5 -2 -5 12 0 14 2 19 5 13 2 -7 2 -19 0
-25z m697 7 c3 -9 -1 -18 -9 -21 -7 -3 -12 -11 -9 -19 3 -7 -3 -15 -12 -19
-22 -8 -33 2 -14 14 12 8 12 10 -3 10 -16 0 -18 -5 -12 -42 5 -29 4 -40 -3
-33 -6 6 -12 28 -14 50 -3 34 0 40 16 38 21 -1 49 21 39 31 -4 3 -2 6 4 6 6 0
14 -7 17 -15z m106 -14 c0 -24 -25 -34 -40 -15 -10 11 -9 14 4 14 9 0 16 5 16
10 0 6 5 10 10 10 6 0 10 -9 10 -19z m-820 -42 c-7 -11 -14 -19 -16 -16 -7 7
7 37 17 37 6 0 5 -9 -1 -21z m732 -42 c1 -15 8 -27 15 -27 7 0 13 -4 13 -10 0
-5 -9 -10 -20 -10 -14 0 -20 7 -20 23 0 18 -2 19 -10 7 -8 -12 -10 -9 -10 12
0 14 6 28 13 31 16 6 17 5 19 -26z m-762 -8 c-7 -11 -14 -19 -16 -16 -7 7 7
37 17 37 6 0 5 -9 -1 -21z m628 -62 c15 6 15 5 3 -11 -8 -9 -22 -15 -32 -13
-11 3 -16 0 -12 -8 2 -8 -7 -21 -21 -31 -26 -16 -26 -17 -10 -43 10 -14 26
-32 36 -39 20 -15 16 -32 -9 -32 -8 0 -13 6 -10 13 3 7 -6 23 -19 36 -13 13
-24 30 -24 38 0 8 -5 11 -11 7 -6 -3 -8 -16 -5 -29 4 -14 0 -28 -10 -36 -14
-11 -15 -7 -12 31 3 37 7 45 35 59 26 13 33 22 33 45 0 17 10 40 23 54 l22 24
3 -36 c3 -28 6 -34 20 -29z m28 15 c-11 -10 -15 4 -8 28 l7 25 3 -23 c2 -13 1
-26 -2 -30z m-680 -11 c-3 -24 1 -31 21 -36 30 -7 21 -25 -10 -18 -21 4 -21 4
-3 -11 11 -9 15 -20 10 -28 -5 -7 -9 -29 -10 -48 -1 -19 -2 -47 -3 -62 -1 -37
-21 -36 -21 1 0 16 -6 32 -12 34 -9 4 -9 8 -3 14 13 11 34 70 27 77 -3 3 -20
6 -39 6 -18 0 -33 5 -33 10 0 6 14 10 30 10 28 0 30 2 30 40 0 22 4 40 10 40
5 0 8 -13 6 -29z m-1783 2 c-7 -2 -19 -2 -25 0 -7 3 -2 5 12 5 14 0 19 -2 13
-5z m2631 -59 c4 -9 3 -20 0 -23 -4 -3 -9 0 -11 7 -3 6 -16 12 -29 12 -13 0
-24 5 -24 10 0 17 57 11 64 -6z m-754 -16 c0 -6 -7 -7 -16 -4 -9 3 -18 6 -20
6 -3 0 -3 4 1 10 7 11 35 2 35 -12z m-388 -140 c2 -73 1 -144 -3 -158 l-7 -25
-1 26 c-1 24 -5 27 -53 33 -29 3 -88 6 -131 6 -72 0 -81 -2 -106 -28 -15 -15
-30 -34 -33 -42 -3 -8 -8 -12 -12 -9 -13 12 18 60 52 81 32 19 43 20 159 15
l125 -6 -7 120 c-4 76 -3 119 3 119 6 0 11 -56 14 -132z m443 122 c3 -5 -1
-10 -9 -10 -8 0 -18 5 -21 10 -3 6 1 10 9 10 8 0 18 -4 21 -10z m-2392 -17
c-18 -2 -48 -2 -65 0 -18 2 -4 4 32 4 36 0 50 -2 33 -4z m175 0 c-21 -2 -57
-2 -80 0 -24 2 -7 4 37 4 44 0 63 -2 43 -4z m2262 -3 c8 -5 12 -11 9 -14 -3
-3 -14 1 -25 9 -21 16 -8 20 16 5z m650 -12 c0 -18 -2 -20 -9 -8 -6 8 -7 18
-5 22 9 14 14 9 14 -14z m-776 -60 c3 -29 6 -72 6 -96 0 -24 3 -41 8 -39 4 3
12 0 18 -7 8 -9 7 -15 -3 -24 -8 -8 -13 -9 -13 -2 0 5 -7 10 -15 10 -23 0 -30
-48 -11 -80 9 -17 16 -50 16 -83 0 -46 6 -63 34 -106 27 -39 36 -47 41 -33 3
9 1 18 -4 20 -6 2 -11 8 -11 13 0 4 7 6 15 3 9 -4 15 0 15 7 0 11 3 11 10 -1
13 -20 12 -26 -6 -44 -23 -23 -3 -19 49 9 53 30 66 44 76 81 4 15 12 29 18 31
8 3 8 -7 1 -37 -10 -37 -20 -48 -80 -86 -37 -24 -73 -44 -78 -44 -23 0 -7 -31
30 -61 39 -32 40 -34 40 -96 0 -59 2 -63 23 -63 28 0 238 28 241 32 2 2 1 63
-2 136 -4 123 -6 132 -23 127 -17 -6 -17 -4 -2 35 9 22 19 40 23 40 9 0 20
-129 20 -231 0 -70 14 -163 40 -259 9 -34 11 -35 52 -32 24 1 57 5 75 8 30 4
31 6 26 47 -3 23 -15 52 -26 64 -18 21 -22 21 -37 8 -33 -30 -33 -14 0 20 32
33 65 50 41 21 -9 -11 -6 -20 14 -44 14 -16 25 -42 25 -56 0 -26 1 -26 78 -26
85 0 125 7 116 21 -3 5 8 9 24 9 17 0 32 -6 36 -15 3 -8 16 -15 28 -15 15 0
-19 25 -97 71 -119 70 -159 99 -139 99 23 0 264 -152 264 -166 0 -7 4 -14 10
-14 5 0 7 -7 4 -15 -4 -8 -15 -15 -25 -15 -25 0 -25 -37 0 -67 21 -25 76 -32
83 -11 3 7 10 -2 16 -20 6 -19 7 -32 1 -32 -5 0 -18 -9 -29 -20 -18 -18 -18
-20 -2 -21 9 0 4 -5 -12 -9 -16 -5 -33 -7 -38 -4 -13 9 -9 24 7 24 8 0 15 3
16 8 0 4 2 15 4 25 4 19 -11 24 -18 5 -3 -10 -7 -10 -17 -1 -8 7 -21 8 -34 4
-12 -5 -33 -3 -51 5 -16 7 -26 13 -21 14 5 0 7 2 4 5 -3 3 -47 -10 -97 -30
-105 -40 -103 -39 -100 -22 4 18 -11 111 -20 125 -4 8 -29 9 -80 5 l-72 -6 6
-76 c3 -42 8 -86 10 -97 4 -18 -1 -22 -34 -28 -38 -6 -39 -7 -43 -52 -2 -33 1
-48 12 -55 8 -4 11 -8 5 -8 -18 0 -41 24 -55 58 -8 19 -16 29 -18 23 -2 -7 -8
-9 -13 -6 -6 3 -5 11 2 20 9 12 6 14 -22 15 -19 1 -39 1 -46 0 -6 -1 -14 3
-18 9 -4 7 29 10 96 10 95 0 101 1 83 16 -19 15 -18 15 4 11 21 -5 22 -2 22
51 0 90 -6 102 -49 102 -46 0 -61 14 -61 60 0 19 -9 46 -20 60 -11 14 -20 31
-20 39 0 10 -16 12 -82 6 -46 -4 -87 -8 -93 -9 -6 0 -11 30 -13 71 -3 70 -4
73 -42 106 -22 19 -40 41 -40 50 0 24 -34 38 -101 41 -73 4 -84 12 -30 21 23
4 39 11 35 16 -3 5 -1 9 5 9 5 0 11 -4 13 -10 4 -12 68 -32 68 -21 0 4 -13 25
-30 47 -25 33 -30 48 -30 99 0 36 -6 68 -15 79 -19 25 -19 65 0 90 18 24 19
46 3 46 -6 0 -26 -12 -45 -26 -31 -24 -39 -25 -98 -19 -36 4 -65 12 -65 17 0
6 25 7 65 3 60 -7 67 -5 95 19 18 14 38 26 46 26 13 0 14 12 8 70 -8 83 10 99
20 18z m175 39 c6 -8 8 -17 4 -20 -7 -8 -33 11 -33 24 0 13 16 11 29 -4z m542
-27 c5 0 9 -5 9 -11 0 -7 -7 -8 -17 -4 -10 4 -31 7 -48 7 -29 -1 -29 -1 -7 10
12 6 22 15 22 20 0 5 7 2 16 -6 8 -9 20 -16 25 -16z m46 3 c-9 -9 -19 -14 -23
-11 -10 10 6 28 24 28 15 0 15 -1 -1 -17z m-257 -9 c0 -2 -9 -4 -20 -4 -11 0
-20 4 -20 9 0 5 9 7 20 4 11 -3 20 -7 20 -9z m110 -4 c0 -5 -9 -6 -20 -3 -11
3 -17 9 -15 14 7 10 35 1 35 -11z m600 14 c0 -3 -12 -26 -26 -50 -24 -41 -26
-51 -20 -114 7 -64 5 -73 -24 -130 -41 -81 -72 -180 -56 -181 8 0 7 -2 -1 -5
-7 -3 -17 -21 -23 -40 l-12 -34 -64 0 -64 0 6 -55 c4 -33 3 -55 -3 -55 -7 0
-44 275 -43 328 0 8 -18 12 -56 12 l-57 0 7 -75 c16 -197 18 -230 12 -224 -4
4 -14 69 -22 145 -8 75 -16 139 -19 142 -2 2 -56 4 -120 3 -63 -1 -115 2 -115
7 0 5 88 12 196 15 l196 6 36 -24 c29 -19 49 -25 94 -25 l58 0 31 61 c29 57
30 67 24 130 -6 62 -5 72 22 118 24 44 43 64 43 45z m-990 -35 c0 -5 -7 -6
-15 -3 -8 4 -15 13 -15 21 0 13 3 13 15 3 8 -7 15 -16 15 -21z m173 4 c-7 -2
-21 -2 -30 0 -10 3 -4 5 12 5 17 0 24 -2 18 -5z m42 -3 c-3 -5 -10 -10 -16
-10 -5 0 -9 5 -9 10 0 6 7 10 16 10 8 0 12 -4 9 -10z m-160 -10 c3 -5 -1 -10
-9 -10 -8 0 -18 5 -21 10 -3 6 1 10 9 10 8 0 18 -4 21 -10z m65 6 c0 -2 -9 -6
-20 -9 -11 -3 -20 -1 -20 4 0 5 9 9 20 9 11 0 20 -2 20 -4z m1282 -28 c-18
-18 -14 -26 11 -22 12 2 50 5 85 8 75 5 79 -5 23 -59 -22 -21 -37 -44 -34 -51
5 -15 -46 -114 -59 -114 -5 0 1 18 12 40 11 22 17 40 13 40 -5 0 0 5 10 11 14
8 15 14 7 24 -9 11 -2 23 32 55 l43 42 -55 -8 c-30 -4 -66 -8 -80 -8 -14 -1
-34 -7 -44 -13 -18 -10 -16 -13 22 -37 23 -14 42 -31 42 -37 0 -5 -12 -26 -27
-44 -15 -19 -28 -40 -29 -47 -3 -34 -5 -38 -21 -38 -14 0 -15 2 -5 9 8 4 12
17 10 29 -2 11 8 32 22 46 l24 27 -31 31 c-27 27 -34 29 -47 18 -20 -16 -20
-29 -1 -50 14 -16 14 -18 -4 -23 -12 -3 -22 1 -25 10 -5 11 -8 12 -20 1 -8 -7
-13 -15 -11 -18 2 -3 -8 -10 -21 -17 -13 -6 -24 -9 -24 -7 0 20 180 228 189
219 2 -3 -1 -11 -7 -17z m-3898 -14 c10 -25 -1 -29 -14 -5 -6 12 -7 21 -1 21
5 0 12 -7 15 -16z m2706 -10 c0 -8 -4 -14 -10 -14 -5 0 -10 9 -10 21 0 11 5
17 10 14 6 -3 10 -13 10 -21z m-2677 -54 c3 -11 1 -20 -4 -20 -5 0 -9 2 -9 4
0 2 -3 11 -6 20 -3 9 -2 16 4 16 5 0 12 -9 15 -20z m22 -68 c-8 -9 -25 20 -18
31 3 5 10 2 15 -7 6 -10 7 -20 3 -24z m1632 32 c-3 -3 -12 -4 -19 -1 -8 3 -5
6 6 6 11 1 17 -2 13 -5z m682 -17 c13 -16 5 -27 -20 -27 -12 0 -16 6 -12 20 6
23 16 25 32 7z m901 -13 c0 -8 -4 -14 -10 -14 -5 0 -10 9 -10 21 0 11 5 17 10
14 6 -3 10 -13 10 -21z m-1520 -20 c0 -2 -7 -4 -15 -4 -8 0 -15 4 -15 10 0 5
7 7 15 4 8 -4 15 -8 15 -10z m-1670 -30 c0 -8 -4 -12 -10 -9 -5 3 -10 13 -10
21 0 8 5 12 10 9 6 -3 10 -13 10 -21z m24 -49 c3 -8 1 -15 -3 -15 -5 0 -11 7
-15 15 -3 8 -1 15 3 15 5 0 11 -7 15 -15z m1639 -18 c177 12 173 12 169 -17
-2 -14 -15 -36 -28 -50 -13 -14 -31 -47 -40 -73 -9 -26 -20 -47 -24 -47 -16 0
19 92 44 119 14 15 26 35 26 45 0 16 -6 17 -42 12 -24 -3 -100 -8 -170 -12
-71 -4 -135 -12 -143 -18 -13 -10 -13 -31 -4 -159 10 -131 8 -171 -5 -156 -2
2 -8 74 -14 159 -12 176 -13 174 64 186 31 4 44 11 45 23 1 13 2 13 6 -2 4
-17 14 -17 116 -10z m-1613 -43 c0 -8 -4 -12 -10 -9 -5 3 -10 13 -10 21 0 8 5
12 10 9 6 -3 10 -13 10 -21z m1497 -7 c-8 -22 48 -41 85 -28 46 16 88 14 88
-4 0 -11 -7 -14 -25 -9 -14 3 -31 2 -38 -4 -13 -11 -33 -10 -99 3 -42 8 -42 8
-28 36 12 21 25 26 17 6z m-1471 -55 c-9 -8 -26 10 -26 26 1 15 2 15 15 -2 8
-11 13 -21 11 -24z m1953 -24 c-11 -14 -19 -30 -19 -35 0 -5 -25 -21 -55 -36
-66 -32 -73 -20 -10 17 63 38 84 86 37 86 -14 0 -14 2 -3 9 8 5 20 7 27 4 6
-2 15 1 20 8 5 9 9 7 14 -7 5 -12 0 -29 -11 -46z m-202 20 c-3 -7 -5 -2 -5 12
0 14 2 19 5 13 2 -7 2 -19 0 -25z m1794 -74 c-14 -104 -14 -107 6 -123 23 -18
42 -81 24 -81 -6 0 -11 9 -11 20 0 12 -12 33 -26 47 l-26 26 12 101 c13 103
16 116 28 116 4 0 1 -48 -7 -106z m-4151 80 c0 -8 -4 -12 -10 -9 -5 3 -10 10
-10 16 0 5 5 9 10 9 6 0 10 -7 10 -16z m2695 -4 c-9 -14 -45 -19 -45 -5 0 7
11 13 25 13 13 0 23 -4 20 -8z m-310 -30 c4 -6 -6 -10 -22 -9 -25 0 -26 1 -8
9 11 5 21 9 22 9 1 1 5 -3 8 -9z m215 -30 c0 -5 -4 -10 -10 -10 -5 0 -10 5
-10 10 0 6 5 10 10 10 6 0 10 -4 10 -10z m1460 -15 c0 -8 -4 -15 -10 -15 -5 0
-7 7 -4 15 4 8 8 15 10 15 2 0 4 -7 4 -15z m-145 -5 c-3 -5 -13 -10 -21 -10
-8 0 -12 5 -9 10 3 6 13 10 21 10 8 0 12 -4 9 -10z m61 -4 c17 -13 21 -12 37
1 21 20 23 1 2 -21 -21 -21 -19 -29 5 -16 14 8 20 8 20 0 0 -25 -34 -23 -54 3
-12 15 -27 27 -34 27 -7 0 -12 5 -12 10 0 14 13 12 36 -4z m-106 -11 c0 -9 -9
-15 -25 -15 -29 0 -34 16 -7 23 30 8 32 7 32 -8z m-799 -42 c-10 -17 -10 -16
-11 3 0 23 13 41 18 25 2 -6 -1 -18 -7 -28z m748 -32 c10 -31 4 -63 -6 -33 -3
6 -13 12 -24 12 -10 0 -19 5 -19 10 0 6 7 10 15 10 12 0 14 7 9 28 -9 37 10
17 25 -27z m-1554 -23 c-4 -13 -9 -31 -11 -40 -11 -37 -21 -16 -12 22 6 22 15
40 20 40 5 0 6 -10 3 -22z m568 16 c8 -8 -14 -54 -26 -54 -5 0 -6 8 -2 18 4 9
8 23 8 30 0 13 10 16 20 6z m227 -4 c0 -5 7 -10 17 -10 15 0 15 -1 0 -18 -10
-10 -17 -29 -17 -41 0 -12 -4 -20 -8 -17 -12 7 -12 96 -1 96 5 0 9 -4 9 -10z
m60 -22 c0 -23 -3 -29 -9 -19 -5 7 -7 21 -6 30 5 22 4 21 10 21 3 0 5 -15 5
-32z m751 -56 c-17 -6 -13 -34 8 -66 16 -24 17 -31 6 -43 -20 -20 -28 -16 -21
12 4 17 2 25 -7 25 -16 0 -15 69 2 79 6 4 9 15 5 24 -3 9 -2 25 2 35 6 13 9 7
12 -23 2 -22 -1 -41 -7 -43z m-1161 38 c-24 -15 -37 -11 -16 5 11 8 22 12 25
9 3 -3 -1 -9 -9 -14z m319 -9 c-15 -5 -22 6 -14 19 6 9 10 9 16 -1 5 -8 4 -15
-2 -18z m-359 -11 c0 -4 -7 -11 -16 -14 -22 -8 -24 -8 -24 7 0 7 9 13 20 14
11 1 20 -2 20 -7z m136 -7 c-11 -11 -48 -14 -41 -3 3 5 16 10 27 10 12 0 18
-3 14 -7z m807 -14 c12 -45 -26 -67 -59 -35 -29 29 -16 56 27 56 19 0 28 -6
32 -21z m-863 -9 c0 -5 -12 -10 -26 -10 -14 0 -23 4 -19 10 3 6 15 10 26 10
10 0 19 -4 19 -10z m-550 -30 c0 -11 -4 -20 -9 -20 -5 0 -7 9 -4 20 3 11 7 20
9 20 2 0 4 -9 4 -20z m30 -87 c0 -70 16 -103 49 -103 9 0 26 -7 38 -15 19 -13
22 -26 25 -105 2 -66 0 -90 -9 -90 -9 0 -13 28 -15 93 l-3 92 -31 3 c-50 5
-65 30 -71 116 -4 53 -2 76 6 76 7 0 11 -24 11 -67z m-40 16 c0 -30 -6 -34
-29 -20 -8 5 -9 11 -3 15 6 3 8 15 5 26 -4 16 -2 19 11 14 10 -4 16 -18 16
-35z m1576 15 c-3 -9 -6 -19 -6 -24 0 -4 -9 -6 -19 -3 -17 4 -18 8 -8 24 14
23 42 26 33 3z m-1202 -116 c4 -62 9 -140 12 -173 l6 -60 97 7 c53 3 128 9
166 13 47 4 65 3 55 -4 -15 -9 -113 -20 -384 -41 -128 -10 -156 -6 -156 22 0
6 6 5 15 -2 10 -8 38 -10 101 -5 l87 8 -7 81 c-17 234 -18 266 -9 266 6 0 13
-49 17 -112z m876 82 c0 -5 -4 -10 -10 -10 -5 0 -10 5 -10 10 0 6 5 10 10 10
6 0 10 -4 10 -10z m427 -12 c6 15 23 6 23 -14 0 -11 -7 -13 -27 -8 -35 8 -37
10 -28 24 6 9 10 9 17 -1 7 -11 11 -11 15 -1z m-1889 -45 c-2 -9 -10 -19 -18
-21 -13 -4 -13 -3 -2 11 12 13 10 16 -15 20 -26 4 -26 4 5 6 26 1 33 -3 30
-16z m1909 -46 c-7 -20 -15 -37 -19 -37 -5 0 -8 -9 -8 -19 0 -21 -17 -37 -28
-26 -3 3 -1 9 5 13 6 4 12 21 14 37 3 25 37 80 45 72 1 -1 -3 -19 -9 -40z
m3198 33 c3 -5 1 -10 -4 -10 -6 0 -11 5 -11 10 0 6 2 10 4 10 3 0 8 -4 11 -10z
m-5125 -51 c0 -11 -4 -17 -10 -14 -5 3 -10 13 -10 21 0 8 5 14 10 14 6 0 10
-9 10 -21z m25 -67 c-8 -9 -25 20 -18 31 3 5 10 2 15 -7 6 -10 7 -20 3 -24z
m1832 -27 c-7 -16 -47 -21 -47 -5 0 6 9 10 20 10 11 0 20 5 20 12 0 6 3 9 6 5
4 -3 4 -13 1 -22z m-1801 -22 c-4 -4 -11 -1 -16 7 -16 25 -11 35 7 17 9 -9 13
-20 9 -24z m1565 24 c-1 -12 -15 -9 -19 4 -3 6 1 10 8 8 6 -3 11 -8 11 -12z
m-2291 -7 c0 -15 -61 -50 -87 -50 -13 0 -23 4 -23 9 0 4 -12 7 -27 5 l-28 -4
28 11 c19 8 32 8 40 1 9 -8 24 -4 52 13 49 28 45 27 45 15z m690 0 c0 -5 -10
-10 -22 -10 -19 0 -20 2 -8 10 19 13 30 13 30 0z m1680 -9 c0 -5 -16 -11 -35
-13 -19 -2 -35 -1 -35 3 0 4 15 10 33 12 17 2 33 5 35 5 1 1 2 -2 2 -7z
m-2310 -45 c0 -6 -7 -2 -15 8 -8 11 -15 25 -15 30 0 6 7 2 15 -8 8 -11 15 -25
15 -30z m574 19 c-4 -8 -1 -15 5 -15 6 0 11 -4 11 -10 0 -5 -8 -10 -19 -10
-13 0 -18 6 -16 23 3 27 3 27 15 27 5 0 7 -7 4 -15z m1636 7 c0 -15 -11 -21
-27 -15 -12 5 -12 7 -1 14 17 11 28 11 28 1z m-1530 -34 c0 -16 -3 -19 -11
-11 -6 6 -8 16 -5 22 11 17 16 13 16 -11z m1370 13 c0 -11 -80 -20 -86 -10 -2
4 6 10 18 12 42 8 68 7 68 -2z m-1400 -11 c0 -5 -9 -10 -21 -10 -11 0 -17 5
-14 10 3 6 13 10 21 10 8 0 14 -4 14 -10z m-630 -20 c0 -5 7 -10 15 -10 8 0
15 -4 15 -10 0 -13 -6 -13 -31 0 -20 11 -26 30 -9 30 6 0 10 -4 10 -10z m-161
-17 c-1 -10 1 -26 6 -36 9 -21 -8 -43 -24 -33 -15 10 -14 29 2 21 6 -4 4 0 -5
8 -10 8 -18 18 -18 22 0 7 30 34 38 35 2 0 2 -8 1 -17z m2091 -28 c-7 -9 -15
-13 -19 -10 -3 3 1 10 9 15 21 14 24 12 10 -5z m-795 -76 c-3 -5 1 -6 9 -3 19
7 21 -9 3 -24 -19 -16 -37 0 -30 26 3 12 9 19 14 16 5 -3 7 -10 4 -15z m-1624
-18 c-7 -5 -10 -14 -7 -20 8 -12 -42 -36 -52 -26 -4 3 4 8 17 12 17 4 22 11
18 29 -4 25 11 38 28 22 6 -6 5 -12 -4 -17z m49 15 c6 -8 17 -13 23 -11 18 7
43 -17 44 -42 2 -30 -15 -29 -23 1 -4 16 -11 22 -22 20 -10 -2 -25 7 -35 21
-19 26 -8 35 13 11z m-20 -61 c-7 -9 -15 -13 -17 -11 -7 7 7 26 19 26 6 0 6
-6 -2 -15z m-45 -45 c8 0 17 5 20 10 3 6 16 10 27 10 21 0 21 0 -2 -22 -14
-13 -35 -23 -47 -23 -25 -1 -40 26 -26 47 5 10 8 8 11 -4 2 -10 10 -18 17 -18z
m95 10 c0 -11 -2 -20 -4 -20 -2 0 -6 9 -9 20 -3 11 -1 20 4 20 5 0 9 -9 9 -20z
m3542 -362 c-7 -7 -12 -8 -12 -2 0 14 12 26 19 19 2 -3 -1 -11 -7 -17z"/>
<path d="M3291 2844 c0 -11 3 -14 6 -6 3 7 2 16 -1 19 -3 4 -6 -2 -5 -13z"/>
<path d="M3118 1933 c-23 -6 -23 -21 2 -58 11 -16 20 -47 20 -67 0 -23 5 -38
13 -39 14 -1 61 2 64 5 2 2 -13 74 -28 129 -10 38 -22 43 -71 30z"/>
<path d="M3568 1803 c17 -2 47 -2 65 0 17 2 3 4 -33 4 -36 0 -50 -2 -32 -4z"/>
<path d="M3423 1793 c15 -2 37 -2 50 0 12 2 0 4 -28 4 -27 0 -38 -2 -22 -4z"/>
<path d="M3443 1773 c-18 -2 -33 -8 -33 -13 0 -23 22 -110 28 -110 4 0 54 18
112 40 97 37 106 39 118 23 11 -16 12 -16 12 0 0 9 -4 17 -10 17 -5 0 -10 11
-10 25 0 25 0 25 -92 23 -51 0 -108 -3 -125 -5z"/>
<path d="M3152 1530 c0 -14 2 -19 5 -12 2 6 2 18 0 25 -3 6 -5 1 -5 -13z"/>
<path d="M3657 2330 c4 -14 14 -20 32 -20 l26 0 -25 20 c-32 25 -39 25 -33 0z"/>
<path d="M3723 2298 c-2 -5 -18 -8 -34 -8 -28 0 -30 -2 -25 -32 3 -18 8 -54
11 -80 5 -36 10 -45 23 -43 9 2 35 4 58 4 39 1 41 3 53 40 6 21 8 47 4 57 -4
12 -3 15 5 10 7 -4 12 -4 12 1 0 4 3 18 6 30 5 19 2 21 -51 25 -31 1 -59 0
-62 -4z m22 -18 c3 -5 2 -10 -4 -10 -5 0 -13 5 -16 10 -3 6 -2 10 4 10 5 0 13
-4 16 -10z m45 -30 c0 -13 -11 -13 -30 0 -12 8 -11 10 8 10 12 0 22 -4 22 -10z"/>
<path d="M3598 1973 c6 -2 18 -2 25 0 6 3 1 5 -13 5 -14 0 -19 -2 -12 -5z"/>
</g>
</svg>
