<?xml version="1.0" standalone="no"?>
<!DOCTYPE svg PUBLIC "-//W3C//DTD SVG 20010904//EN"
 "http://www.w3.org/TR/2001/REC-SVG-20010904/DTD/svg10.dtd">
<svg version="1.0" xmlns="http://www.w3.org/2000/svg"
 width="800.000000pt" height="800.000000pt" viewBox="0 0 800.000000 800.000000"
 preserveAspectRatio="xMidYMid meet">
<metadata>
Created by potrace 1.16, written by Peter Selinger 2001-2019
</metadata>
<g transform="translate(0.000000,800.000000) scale(0.100000,-0.100000)"
fill="#000000" stroke="none">
<path d="M0 4000 l0 -4000 423 0 422 0 146 208 c81 114 177 253 213 309 62 94
86 125 86 108 0 -4 -26 -46 -57 -93 -31 -48 -56 -94 -56 -104 1 -9 -5 -18 -13
-20 -18 -4 -186 -242 -173 -246 5 -2 9 -8 9 -14 0 -6 -7 -8 -15 -5 -9 4 -31
-17 -65 -63 -27 -38 -50 -72 -50 -75 0 -3 1198 -5 2661 -5 l2661 0 -7 22 c-12
39 -26 112 -26 134 1 28 -39 54 -82 54 -19 0 -37 3 -41 7 -4 5 -12 8 -17 8 -5
0 -10 5 -10 10 -3 16 -161 180 -171 177 -5 -1 -7 1 -4 6 12 20 -111 110 -129
94 -5 -4 -5 -2 -2 4 8 14 -86 107 -98 97 -4 -5 -5 -3 -2 3 11 20 -14 30 -127
52 -60 12 -111 24 -114 27 -14 13 10 12 93 -5 50 -11 99 -19 110 -20 13 0 -61
82 -235 257 l-255 258 257 -255 c142 -140 255 -256 253 -258 -2 -2 23 -26 55
-53 32 -27 65 -58 73 -69 7 -11 29 -26 48 -34 20 -9 85 -70 159 -150 118 -127
127 -135 163 -136 23 0 50 -9 67 -22 25 -18 30 -29 30 -62 0 -49 17 -116 30
-116 5 0 7 -7 4 -15 -5 -13 98 -15 890 -15 l896 0 0 1241 c0 979 -3 1245 -13
1257 -9 13 -9 14 1 8 9 -5 12 5 12 41 0 47 -3 51 -73 123 -40 41 -224 238
-410 437 l-338 362 -117 67 c-64 37 -128 75 -141 85 -13 10 -28 16 -34 12 -5
-3 -7 -1 -4 5 4 5 -16 27 -44 48 -28 20 -79 74 -113 119 -56 75 -66 95 -104
221 -24 77 -59 180 -78 229 -20 50 -45 111 -55 138 -10 26 -15 47 -10 47 12 0
105 -238 155 -401 41 -130 52 -154 103 -222 71 -93 168 -171 333 -268 l126
-74 354 -380 c195 -208 376 -402 402 -430 l47 -50 1 2018 c0 1109 -3 2017 -6
2017 -14 0 -44 -22 -39 -29 2 -5 -3 -8 -13 -7 -9 0 -16 -4 -15 -9 1 -6 -6 -11
-15 -12 -9 0 -57 -5 -107 -11 -49 -6 -155 -11 -235 -11 -80 0 -158 -1 -175 -1
-16 -1 -98 -1 -181 0 -146 1 -331 -21 -319 -40 2 -3 -9 -4 -26 -2 -51 7 -32
18 66 36 52 10 93 21 91 25 -2 3 66 2 152 -2 94 -6 169 -5 187 0 16 5 41 7 55
3 14 -3 115 -3 225 1 201 8 283 22 277 48 -1 7 2 10 8 6 5 -3 24 3 40 15 l30
21 0 660 0 659 -1038 0 -1039 0 -109 -94 c-60 -52 -120 -112 -134 -135 -14
-23 -32 -43 -40 -46 -29 -9 -108 -90 -131 -135 -12 -25 -25 -63 -28 -85 -5
-31 -13 -44 -38 -60 -22 -13 -32 -28 -33 -45 0 -22 -24 -64 -100 -172 -23 -35
-150 -108 -185 -108 -8 0 -15 -4 -15 -10 0 -5 -8 -10 -19 -10 -10 0 -29 -8
-42 -18 -33 -25 -123 -62 -151 -62 -38 0 -68 -12 -61 -23 4 -6 0 -8 -9 -4 -23
8 -58 -33 -65 -77 -5 -30 -2 -41 16 -57 13 -12 20 -28 17 -36 -3 -8 -6 -17 -6
-19 0 -2 -4 -4 -10 -4 -5 0 -10 9 -10 19 0 11 -4 23 -10 26 -6 3 -10 -1 -10
-9 0 -9 -9 -16 -20 -16 -16 0 -19 -5 -14 -28 4 -21 -3 -47 -25 -90 -34 -67
-34 -67 -60 -53 -15 9 -18 -1 -29 -97 -6 -59 -9 -117 -6 -129 8 -28 79 -66
111 -58 13 3 23 1 23 -5 0 -5 -12 -10 -27 -11 -22 -1 -19 -3 15 -11 25 -5 42
-15 42 -24 0 -8 4 -14 10 -14 5 0 9 6 7 13 -1 8 13 13 41 15 23 2 42 -1 42 -5
0 -26 -33 -130 -45 -143 -8 -9 -15 -28 -15 -42 0 -59 -58 -149 -107 -169 -13
-5 -23 -17 -23 -28 0 -11 -4 -23 -10 -26 -6 -3 -10 4 -10 17 0 13 -4 18 -8 12
-4 -6 -61 -51 -127 -101 -82 -62 -128 -104 -145 -133 -14 -24 -37 -55 -52 -69
-15 -15 -34 -48 -42 -73 -7 -26 -24 -61 -36 -78 -18 -25 -21 -39 -15 -78 8
-59 -3 -70 -100 -107 -55 -20 -83 -38 -125 -80 -29 -30 -57 -55 -61 -55 -4 0
-11 -10 -15 -22 -4 -12 -33 -48 -65 -80 -33 -32 -59 -64 -59 -71 0 -15 -239
-151 -248 -142 -4 3 0 10 8 15 12 8 12 10 -4 10 -19 0 -19 -20 -1 -62 4 -10 3
-18 -2 -18 -15 0 -62 127 -51 138 6 6 4 21 -6 41 -19 35 -31 35 -150 -6 -38
-12 -87 -23 -108 -23 -21 0 -61 -9 -90 -20 -29 -11 -74 -20 -99 -20 -31 0 -51
-6 -60 -17 -12 -14 -68 -43 -84 -43 -3 0 -5 5 -5 10 0 6 6 10 14 10 7 0 30 11
51 25 20 14 58 28 83 31 50 6 142 32 142 41 0 2 -48 56 -107 118 l-108 114
-20 -19 c-12 -11 -33 -20 -47 -20 -14 0 -30 -6 -35 -12 -15 -18 -27 -92 -14
-84 17 11 23 -13 7 -29 -19 -19 -21 -19 -46 7 -16 17 -20 35 -20 88 0 60 5 75
60 185 33 66 60 130 60 142 0 13 5 23 12 23 6 0 22 9 34 21 l22 20 -26 62
c-15 34 -30 64 -34 65 -27 12 39 39 83 34 19 -2 36 35 42 88 4 33 4 33 5 -7 3
-65 -12 -93 -48 -93 -21 0 -29 -4 -24 -12 4 -7 3 -8 -4 -4 -28 17 -30 -8 -6
-62 14 -31 29 -61 33 -65 5 -5 39 5 76 22 37 17 85 36 107 41 21 6 36 15 33
20 -3 5 -1 11 4 14 5 3 12 -1 15 -9 4 -13 27 -5 118 41 139 69 158 85 158 136
0 29 -4 38 -17 38 -9 0 -29 12 -45 26 l-27 27 -87 -17 c-117 -24 -151 -17
-199 41 -36 43 -37 47 -20 59 22 16 33 10 17 -9 -8 -10 -2 -22 24 -50 30 -31
42 -37 77 -37 23 1 69 7 102 15 82 20 88 19 125 -15 18 -16 41 -30 51 -30 16
0 19 -7 19 -43 0 -24 -6 -49 -12 -56 -11 -11 -8 -12 12 -6 14 4 27 11 30 15 6
9 50 23 50 16 0 -17 -38 -46 -60 -46 -14 0 -90 -32 -169 -70 -78 -38 -154 -70
-168 -70 -41 0 -174 -60 -182 -83 -5 -13 -10 -16 -15 -9 -11 18 -75 -28 -68
-48 3 -8 34 -46 69 -85 89 -98 78 -105 -17 -10 l-79 79 -24 -53 -25 -52 99
-100 c54 -55 101 -100 104 -100 3 0 108 95 233 212 125 117 236 220 246 230
16 15 17 21 6 33 -14 17 0 22 16 6 6 -6 22 0 46 20 20 16 64 42 98 56 52 23
63 25 71 13 14 -22 11 -31 -8 -21 -19 10 -63 -1 -63 -16 0 -5 9 -17 20 -27 17
-16 20 -16 15 -3 -5 13 -2 15 13 11 10 -2 26 2 34 10 8 8 26 17 39 19 14 2 23
9 21 17 -4 17 43 68 81 87 36 19 34 10 -5 -25 l-32 -29 27 -40 28 -40 -38 -38
c-22 -22 -63 -60 -93 -86 -56 -47 -64 -74 -13 -42 15 10 87 63 158 118 72 55
141 108 154 118 37 28 46 9 10 -21 -31 -26 -34 -55 -5 -49 28 7 15 -18 -30
-53 -55 -43 -76 -42 -27 2 20 18 30 34 27 44 -3 8 -9 15 -13 15 -3 0 -77 -56
-163 -125 -86 -69 -162 -125 -167 -125 -6 0 -11 -4 -11 -9 0 -9 -100 -81 -113
-81 -18 0 -3 17 38 43 46 30 55 47 32 65 -13 12 -52 -14 -148 -95 -27 -24 -53
-43 -57 -43 -3 0 -32 25 -63 56 l-57 56 -113 -107 c-63 -59 -129 -122 -148
-140 l-34 -33 58 -66 c65 -74 85 -80 166 -50 24 8 82 24 129 36 80 19 88 23
132 72 46 52 148 118 278 181 82 40 183 123 212 175 13 22 26 40 31 40 11 0 9
-9 -19 -56 -34 -58 -134 -136 -243 -189 -64 -31 -89 -48 -88 -61 1 -9 -5 -19
-13 -22 -13 -5 -13 -3 -1 11 18 23 11 21 -44 -9 -30 -18 -43 -29 -35 -34 18
-11 1 -33 -21 -27 -12 3 -31 -9 -58 -39 -22 -25 -49 -44 -60 -44 -24 0 -25 -6
-7 -39 8 -14 16 -19 20 -13 3 6 35 14 71 17 65 7 118 35 168 87 18 18 20 18
37 3 18 -16 20 -16 42 7 13 13 32 37 43 53 11 16 34 42 52 58 18 17 30 34 27
39 -3 4 1 8 9 8 7 0 26 13 41 29 15 15 45 34 67 41 26 9 38 18 35 27 -4 8 8
20 29 30 19 9 35 23 35 30 0 7 5 13 11 13 7 0 9 11 6 26 -3 19 4 41 23 71 16
25 31 62 35 84 4 23 14 43 26 49 28 16 54 59 42 71 -7 7 5 25 35 55 31 32 43
51 39 65 -3 10 -1 22 4 25 5 3 9 0 9 -5 0 -20 22 -11 93 40 74 53 145 133 127
144 -6 3 -10 11 -10 17 0 7 6 6 15 -2 21 -18 19 -27 -21 -84 l-37 -51 37 34
c19 19 46 35 58 36 12 1 34 16 50 34 28 31 38 58 16 45 -7 -4 -8 -3 -4 5 4 6
12 8 18 5 8 -5 9 -1 5 10 -4 10 -3 15 3 11 6 -4 10 6 10 21 0 22 -2 24 -14 14
-8 -6 -25 -10 -38 -7 -21 4 -21 5 10 18 30 12 46 49 22 49 -5 0 -10 7 -10 15
0 20 20 19 36 -2 12 -17 13 -17 19 0 4 9 4 33 1 52 -7 33 -9 35 -46 35 -21 0
-42 5 -45 10 -3 6 -15 10 -25 10 -11 0 -25 12 -32 28 -15 31 -42 34 -100 9
-41 -17 -41 -23 -3 -97 8 -16 11 -31 6 -34 -5 -3 -19 19 -32 49 -13 30 -28 55
-32 55 -5 0 -5 -4 -2 -10 3 -5 2 -10 -4 -10 -5 0 -13 5 -16 11 -7 11 -56 4
-88 -13 -15 -8 -16 -12 -6 -24 11 -13 9 -14 -13 -9 -15 4 -29 2 -32 -4 -4 -6
-14 -11 -22 -11 -8 0 -12 5 -9 10 9 14 -8 13 -23 -2 -8 -8 -12 -9 -12 -1 0 7
-15 4 -40 -8 -21 -10 -48 -19 -59 -19 -30 0 -51 -11 -51 -26 0 -8 -4 -14 -10
-14 -5 0 -12 -10 -15 -23 -6 -23 -64 -54 -74 -39 -9 12 -56 8 -56 -5 0 -6 -3
-15 -7 -19 -5 -4 -8 -2 -8 5 0 7 -5 9 -12 5 -6 -4 -8 -3 -4 4 3 6 -15 20 -47
35 -29 13 -60 32 -70 41 -30 30 -78 14 -114 -38 -31 -43 -73 -76 -73 -57 0 18
-97 72 -127 69 -16 -1 -34 1 -40 5 -6 4 -16 0 -23 -8 -11 -13 -10 -14 6 -9 17
6 18 5 3 -10 -19 -20 -56 -11 -39 9 12 14 -24 22 -145 32 l-70 5 19 -21 c10
-11 27 -23 37 -26 20 -7 27 -45 8 -45 -5 0 -7 5 -3 11 9 15 -17 30 -40 23 -15
-5 -18 -3 -13 11 6 15 1 16 -44 12 -42 -4 -58 -12 -88 -41 -41 -40 -55 -45
-47 -18 4 11 -1 25 -13 36 -17 16 -21 15 -77 -18 -76 -46 -272 -209 -302 -252
-19 -29 -20 -34 -6 -42 13 -7 14 -15 4 -53 -7 -24 -17 -50 -23 -57 -7 -9 -3
-20 18 -42 31 -32 50 -38 59 -17 3 6 3 -4 0 -23 -4 -19 -10 -39 -14 -45 -5 -5
-11 -27 -15 -47 -8 -44 -24 -59 -64 -62 -17 -1 -39 -10 -50 -20 -20 -18 -19
-19 62 -107 l82 -88 27 57 c36 78 35 42 -2 -47 -27 -66 -50 -159 -50 -203 0
-13 6 -18 18 -16 32 5 79 -44 90 -96 7 -34 7 -46 -2 -43 -6 2 -13 19 -17 38
-6 42 -52 94 -74 85 -10 -3 -14 -13 -11 -23 3 -10 6 -60 7 -110 2 -86 1 -95
-21 -118 -14 -14 -40 -54 -60 -88 -32 -55 -40 -62 -70 -65 -19 -2 -52 -17 -74
-33 -39 -29 -42 -29 -175 -29 -75 -1 -166 -7 -203 -14 -38 -7 -68 -9 -68 -5 0
9 18 15 75 24 78 12 78 12 49 51 -15 19 -35 34 -46 34 -15 0 -18 5 -13 23 4
12 9 30 11 40 9 29 -15 19 -36 -15 -11 -18 -38 -42 -62 -54 l-42 -21 -58 19
c-48 16 -61 18 -74 7 -13 -11 -11 -16 12 -41 15 -15 34 -28 41 -28 7 0 13 -4
13 -10 0 -19 -20 -10 -60 27 -29 25 -38 39 -30 47 5 5 10 14 10 18 0 14 -82 9
-135 -8 -27 -9 -84 -19 -125 -24 l-75 -8 -88 81 c-49 44 -97 96 -107 116 -10
20 -35 49 -55 64 l-36 29 -54 -59 -53 -58 63 -65 64 -65 -21 -25 c-11 -14 -28
-24 -37 -22 -9 1 -28 -9 -40 -22 -21 -22 -22 -28 -10 -42 7 -9 24 -20 38 -25
23 -9 23 -11 8 -26 -9 -9 -18 -15 -19 -12 -2 3 -46 48 -97 101 -52 54 -92 101
-88 105 4 4 36 -21 70 -55 l63 -63 24 26 c13 14 31 25 41 25 9 0 22 7 29 16
11 13 4 24 -50 79 -34 34 -61 68 -59 73 2 6 33 40 68 77 l64 66 44 -43 c25
-24 52 -57 61 -75 9 -17 55 -66 102 -108 l85 -77 55 7 c30 3 88 15 129 27 40
11 93 18 117 16 40 -3 45 -1 54 25 5 16 39 72 76 125 79 114 73 107 80 100 3
-3 -27 -52 -66 -108 -39 -56 -72 -113 -73 -127 -2 -22 4 -28 49 -43 47 -16 52
-16 82 -1 30 15 122 114 122 131 0 4 32 38 70 76 69 68 71 71 96 164 14 52 32
102 40 111 8 9 11 19 7 23 -5 4 -3 7 2 6 52 -11 45 7 -35 93 l-70 75 38 25
c42 27 144 140 137 151 -3 3 -2 4 2 1 4 -3 49 36 100 87 71 71 90 95 81 105
-13 16 3 18 19 2 12 -12 26 6 37 53 9 41 -12 44 -44 7 -20 -23 -29 -29 -30
-18 0 9 9 24 21 35 12 10 32 38 45 61 24 39 192 192 262 237 27 18 31 25 26
49 -3 15 -1 34 5 41 15 18 49 9 57 -16 4 -15 9 -17 19 -8 11 9 22 6 48 -14
l34 -26 19 23 c11 12 38 31 61 42 l40 19 -21 33 c-11 18 -29 33 -38 33 -10 0
-18 5 -18 11 0 6 7 9 15 5 13 -4 13 -2 5 14 -5 10 -10 38 -10 62 -1 43 -18 78
-39 78 -6 0 -11 -4 -11 -10 0 -5 -5 -10 -11 -10 -5 0 -7 4 -4 10 3 5 -3 15
-15 22 -26 17 -26 32 1 18 11 -7 23 -9 26 -6 3 2 -22 43 -55 91 -46 66 -75 95
-121 125 -70 46 -73 46 -64 23 6 -16 5 -17 -12 -3 -17 14 -18 14 -6 -8 10 -18
9 -23 -4 -28 -8 -3 -15 -14 -15 -24 0 -28 -11 -50 -25 -50 -8 0 -11 15 -10 44
1 25 -3 43 -7 40 -5 -3 -6 -14 -3 -25 5 -14 2 -19 -10 -19 -12 0 -15 5 -11 18
4 9 -34 -23 -84 -73 -49 -49 -90 -91 -90 -94 0 -2 16 -1 36 2 39 7 39 6 49
-63 5 -40 10 -48 46 -67 45 -25 59 -23 59 8 0 27 23 69 54 98 35 33 33 18 -3
-28 -16 -20 -33 -55 -36 -76 -4 -22 -9 -43 -12 -47 -2 -4 -30 9 -62 28 -56 33
-59 37 -65 84 -5 35 -11 50 -22 50 -8 0 -13 -4 -9 -9 3 -6 -7 -6 -27 -1 -31 9
-34 7 -175 -134 l-143 -143 86 -96 c73 -81 90 -95 105 -87 22 12 29 13 29 1 0
-5 -10 -11 -23 -13 -20 -4 -15 -11 43 -67 60 -58 65 -61 74 -42 5 11 17 23 27
26 10 3 24 19 31 35 7 17 19 30 26 30 9 0 11 7 7 20 -8 25 10 27 20 3 4 -12
-1 -24 -14 -35 -12 -9 -21 -20 -21 -26 0 -5 -21 -28 -46 -51 l-47 -42 -49 48
c-27 26 -97 101 -156 166 l-107 119 -26 -32 c-15 -17 -29 -27 -33 -22 -3 5
112 126 257 268 144 143 261 262 259 267 -1 4 1 6 5 5 5 -1 34 15 65 36 60 40
66 53 48 100 -5 14 -6 26 -1 26 5 0 14 -15 20 -32 10 -27 14 -30 22 -18 8 11
12 12 15 3 4 -8 23 0 60 24 52 34 54 37 38 55 -22 23 -31 24 -13 1 11 -16 11
-16 -1 -5 -8 7 -15 16 -15 20 0 4 -6 14 -13 22 -7 8 -26 36 -42 62 l-29 47
-58 -6 c-71 -7 -83 -13 -156 -76 -74 -64 -89 -52 -17 14 62 56 99 75 165 85
37 5 45 10 40 23 -4 9 -15 39 -26 66 -11 28 -26 58 -33 68 -13 17 -16 16 -61
-3 -31 -13 -69 -20 -112 -20 -58 0 -64 -2 -52 -16 7 -8 21 -13 31 -11 10 3 18
2 18 -3 0 -13 -43 -20 -56 -9 -9 7 -37 -14 -103 -77 -89 -84 -128 -107 -54
-32 l37 38 -48 49 c-27 27 -46 54 -42 59 4 6 -29 22 -76 38 -46 15 -89 29 -97
32 -10 4 -9 -2 4 -22 10 -15 15 -30 11 -34 -4 -4 -12 1 -17 10 -30 54 -45 57
-178 28 -52 -12 -96 -18 -99 -15 -9 8 0 12 68 28 l65 15 -77 1 c-53 1 -78 -3
-81 -11 -4 -9 -8 -9 -14 -3 -8 10 -38 30 -61 41 -15 7 -114 -84 -106 -97 2 -4
39 -19 83 -34 50 -16 88 -36 106 -55 15 -16 33 -27 38 -23 6 3 7 1 4 -4 -4 -6
18 -45 49 -88 31 -42 63 -97 70 -122 16 -53 11 -70 -8 -27 -6 16 -13 31 -14
32 -2 2 -22 -9 -46 -25 -40 -28 -53 -31 -203 -42 -88 -7 -161 -14 -163 -16 -2
-1 45 -53 104 -114 58 -61 101 -111 94 -111 -6 0 -77 66 -156 148 l-144 147
-190 -195 c-104 -107 -190 -189 -190 -182 0 6 57 72 128 145 164 170 226 237
230 245 1 4 -34 45 -77 92 -44 47 -77 87 -75 89 3 3 42 -32 88 -78 58 -58 88
-81 97 -76 35 21 173 141 214 187 l47 52 -35 12 c-71 25 -105 49 -207 149
l-105 103 -135 48 c-169 61 -209 83 -299 164 -55 51 -86 70 -139 88 -156 53
-169 54 -473 37 -310 -17 -335 -17 -327 -9 8 7 213 23 413 30 94 3 178 10 187
15 10 5 19 5 23 0 3 -5 20 -12 38 -16 62 -12 222 -68 240 -83 15 -14 17 -13
17 1 0 10 5 17 10 17 6 0 10 -10 10 -23 0 -14 16 -39 40 -62 22 -21 40 -35 40
-30 0 6 4 5 8 -1 4 -6 68 -26 142 -44 130 -31 137 -34 185 -80 44 -42 69 -55
200 -103 137 -50 151 -53 172 -40 20 13 23 13 35 -6 12 -20 22 -21 162 -21
l148 0 142 -46 c78 -26 161 -46 186 -47 138 -1 276 20 308 48 2 2 -13 28 -33
58 -21 31 -35 61 -33 68 2 6 23 -18 46 -54 34 -51 47 -64 62 -60 11 3 20 10
20 15 0 5 4 7 9 4 5 -3 28 1 51 9 23 8 55 15 71 15 35 0 36 4 6 44 -34 45 -39
56 -29 56 6 0 26 -22 45 -49 20 -27 44 -52 54 -56 10 -3 35 -28 55 -55 30 -39
56 -58 136 -98 54 -28 128 -61 163 -73 78 -27 269 -44 281 -26 6 9 10 9 16 0
9 -14 179 -18 259 -7 l41 6 -50 79 -50 79 -35 -21 -34 -21 -26 23 c-14 13 -38
40 -53 60 -26 32 -28 38 -16 61 13 25 12 27 -25 44 -22 9 -44 23 -51 31 -7 9
-21 12 -40 8 -27 -6 -28 -5 -28 34 0 38 3 42 63 84 78 55 87 60 87 49 0 -5
-29 -29 -65 -53 -54 -36 -65 -49 -65 -72 0 -24 3 -27 25 -21 15 4 25 2 25 -5
0 -6 23 -24 52 -40 47 -27 53 -28 74 -15 12 8 25 11 27 7 3 -5 -12 -20 -34
-33 -21 -14 -39 -29 -39 -35 0 -5 21 -31 45 -57 l45 -47 36 21 c19 11 38 17
42 13 4 -3 30 -43 58 -88 l51 -81 44 3 c24 1 63 6 87 11 23 4 45 4 47 0 3 -5
24 -11 48 -15 24 -4 54 -18 70 -34 33 -30 71 -100 82 -148 8 -38 15 -41 40
-13 21 23 44 27 24 4 -11 -13 1 -29 88 -116 l101 -100 7 48 c3 27 15 87 26
133 14 58 17 87 9 95 -5 7 -7 16 -3 19 3 4 1 7 -5 7 -21 0 -13 15 38 72 27 31
74 70 103 86 36 20 53 37 53 49 -2 30 18 30 24 1 l5 -28 85 44 c47 24 103 47
124 50 l39 7 -6 73 -6 73 122 120 c67 66 136 139 152 162 28 40 65 77 143 143
18 14 32 36 32 47 0 19 -5 21 -62 20 -35 0 -90 -4 -123 -8 -33 -5 -62 -7 -64
-5 -13 11 22 19 132 28 122 11 122 11 142 43 11 18 32 36 48 42 33 12 37 -5 4
-20 -33 -15 -67 -70 -67 -110 -1 -30 -8 -39 -58 -76 -31 -23 -75 -65 -97 -93
-22 -29 -63 -78 -92 -109 l-51 -56 15 -69 c12 -51 13 -80 6 -110 -14 -61 5
-75 41 -30 22 28 25 38 16 54 -11 21 3 29 15 9 4 -5 20 10 36 35 22 35 27 53
22 77 -4 23 -2 30 8 28 21 -3 48 11 60 32 5 11 6 19 2 18 -22 -4 -23 3 -4 27
12 15 21 32 21 38 0 23 42 89 77 121 35 32 36 34 29 89 -4 34 -2 56 3 56 6 0
11 -26 13 -57 l3 -58 35 39 c60 68 133 140 194 194 l60 52 -372 0 c-238 0
-377 -4 -385 -10 -7 -6 -40 -31 -74 -57 -54 -41 -63 -52 -63 -79 0 -24 7 -36
28 -49 44 -29 49 -41 51 -116 1 -46 3 -50 21 -44 11 3 20 2 20 -3 0 -11 -46
-22 -55 -14 -3 3 -5 32 -5 64 0 34 -4 58 -11 58 -5 0 -7 4 -4 10 3 5 -10 20
-29 32 -27 17 -36 30 -36 51 0 15 -4 27 -10 27 -5 0 -10 -10 -10 -21 0 -17 -3
-19 -14 -10 -11 9 -19 9 -35 -1 -12 -7 -21 -16 -21 -20 0 -5 -5 -8 -10 -8 -6
0 -44 -22 -84 -49 -40 -27 -88 -56 -107 -64 -19 -8 -65 -43 -103 -78 l-69 -64
8 -44 c6 -35 20 -57 66 -107 33 -35 59 -68 59 -74 0 -20 22 -9 66 33 l45 42
-14 45 c-8 25 -18 54 -22 65 -7 18 -6 19 9 5 9 -9 22 -40 30 -69 l14 -54 -42
-39 c-22 -22 -53 -44 -68 -50 -32 -11 -33 -16 -14 -41 14 -18 16 -18 40 -2 26
18 34 35 16 35 -5 0 -10 5 -10 11 0 16 61 0 86 -23 21 -19 21 -19 29 4 8 23 8
23 12 -3 3 -20 14 -30 44 -42 22 -9 39 -22 39 -31 0 -21 -6 -20 -32 4 -12 11
-30 20 -41 20 -11 0 -37 10 -59 22 -26 15 -41 19 -46 12 -4 -6 -17 -16 -30
-23 -19 -10 -20 -15 -11 -32 16 -31 4 -34 -18 -4 -10 14 -25 35 -34 47 l-16
21 -51 -28 -51 -28 26 -33 c14 -19 23 -34 20 -34 -2 0 -70 64 -150 143 -132
130 -204 217 -179 217 6 0 21 -19 35 -42 14 -24 73 -87 131 -141 l106 -99 48
28 c26 15 49 29 51 30 2 2 -1 14 -7 27 -6 12 -13 31 -15 42 -2 11 -8 19 -14
18 -19 -4 -50 57 -63 122 l-12 60 42 36 43 37 -22 30 c-13 18 -21 45 -21 69 0
26 -11 57 -35 97 -21 35 -33 65 -30 76 3 10 36 34 73 54 l67 35 -622 1 c-343
0 -623 -3 -623 -7 0 -3 7 -15 17 -25 9 -10 13 -21 9 -25 -4 -5 -20 7 -34 25
l-27 32 -1667 0 -1668 0 0 -4000z m3570 3970 c0 -5 -12 -10 -27 -9 -25 0 -26
1 -8 9 27 12 35 12 35 0z m-66 -16 c10 -25 -1 -29 -14 -5 -6 12 -7 21 -1 21 5
0 12 -7 15 -16z m2186 -4 c0 -5 -4 -10 -10 -10 -5 0 -10 5 -10 10 0 6 5 10 10
10 6 0 10 -4 10 -10z m-3356 -111 c37 -61 65 -113 62 -116 -3 -4 -8 -4 -10 -2
-10 12 -136 217 -136 223 0 22 24 -8 84 -105z m1241 91 c-3 -5 -13 -10 -21
-10 -8 0 -14 5 -14 10 0 6 9 10 21 10 11 0 17 -4 14 -10z m2088 -30 c3 -10 -1
-24 -9 -31 -11 -9 -14 -6 -14 20 0 34 15 42 23 11z m-2023 -153 c52 -83 97
-163 98 -177 2 -13 13 -37 24 -53 14 -19 17 -32 10 -39 -5 -5 -7 -18 -5 -29 4
-14 11 -17 29 -13 37 9 90 -14 128 -57 20 -21 36 -44 36 -50 0 -6 15 -1 34 10
18 12 37 21 42 21 5 0 38 -48 74 -105 57 -92 68 -105 88 -100 29 7 28 -9 -2
-23 -23 -10 -27 -6 -87 90 -35 56 -67 105 -70 110 -6 10 -109 -48 -109 -61 0
-4 5 -12 12 -19 7 -7 8 -12 2 -12 -6 0 -19 8 -28 19 -16 18 -16 20 9 37 l26
19 -33 43 c-38 50 -97 74 -129 54 -18 -11 -21 -9 -35 24 -12 29 -13 39 -3 44
9 6 6 15 -10 35 -11 15 -21 38 -21 51 0 13 -41 86 -90 163 -94 146 -108 171
-94 171 5 0 52 -69 104 -153z m250 -89 c45 -68 99 -140 118 -160 20 -21 32
-41 28 -45 -4 -4 -18 7 -32 24 -15 20 -30 30 -39 26 -11 -3 -13 -1 -10 10 4 8
-26 61 -73 128 -95 138 -95 139 -84 139 4 0 46 -55 92 -122z m-1849 -8 c18
-22 37 -37 43 -33 6 3 6 0 -1 -7 -9 -10 -15 -10 -26 -2 -8 7 -18 8 -22 4 -5
-4 -5 -2 -2 4 4 6 -5 22 -18 34 -14 13 -25 27 -25 32 0 19 21 6 51 -32z m994
-21 c13 -25 19 -28 31 -18 21 17 17 -5 -4 -24 -17 -16 -19 -15 -35 18 -9 19
-21 35 -25 35 -5 0 -38 -19 -73 -42 -35 -23 -73 -41 -83 -40 -11 0 -27 -3 -38
-9 -10 -6 -18 -6 -18 -1 0 16 29 35 47 30 10 -3 46 14 83 38 36 23 73 43 82
43 10 1 25 -13 33 -30z m-925 -64 c7 -13 18 -22 23 -18 6 3 7 2 4 -4 -4 -6 14
-39 39 -74 58 -82 68 -99 55 -99 -6 0 -26 22 -44 50 -19 27 -37 47 -42 42 -5
-4 -5 -2 -2 4 4 6 -9 33 -28 60 -19 27 -35 52 -35 56 0 17 17 7 30 -17z m2997
-51 c-3 -3 -12 -4 -19 -1 -8 3 -5 6 6 6 11 1 17 -2 13 -5z m-2717 -63 c-1 -25
-2 -25 -20 9 -25 45 -25 58 0 35 11 -10 20 -30 20 -44z m1290 -31 c0 -5 -4
-10 -10 -10 -5 0 -10 5 -10 10 0 6 5 10 10 10 6 0 10 -4 10 -10z m1466 -17
c-10 -10 -19 5 -10 18 6 11 8 11 12 0 2 -7 1 -15 -2 -18z m150 -7 c18 -18 18
-26 0 -26 -7 0 -16 9 -19 20 -6 24 -1 25 19 6z m-2955 -39 c-13 -13 -15 1 -4
30 7 17 8 17 11 -1 2 -10 -1 -23 -7 -29z m3839 -1 c0 -2 -8 -10 -17 -17 -16
-13 -17 -12 -4 4 13 16 21 21 21 13z m-3750 -105 c0 -5 3 -18 7 -28 6 -16 5
-16 -10 -4 -19 15 -23 41 -7 41 6 0 10 -4 10 -9z m150 -31 c11 -22 16 -40 10
-40 -5 0 -19 18 -30 40 -11 22 -16 40 -10 40 5 0 19 -18 30 -40z m-185 1 c-3
-6 -11 -11 -17 -11 -6 0 -6 6 2 15 14 17 26 13 15 -4z m135 9 c0 -11 -33 -30
-52 -30 -7 1 -3 9 11 20 25 22 41 26 41 10z m1794 -130 c46 -78 66 -92 66 -47
0 20 1 21 18 4 16 -17 16 -19 0 -31 -10 -7 -18 -16 -18 -20 0 -4 23 -32 52
-62 28 -30 48 -57 44 -61 -11 -12 -123 118 -172 199 -25 43 -50 81 -55 84 -5
3 -7 10 -3 15 9 15 18 5 68 -81z m2249 63 c-7 -2 -19 -2 -25 0 -7 3 -2 5 12 5
14 0 19 -2 13 -5z m557 -28 c0 -8 -4 -15 -10 -15 -5 0 -7 7 -4 15 4 8 8 15 10
15 2 0 4 -7 4 -15z m-4964 -145 c49 0 74 -4 74 -11 0 -9 -27 -10 -97 -6 -54 4
-111 7 -126 7 -18 0 -26 4 -21 11 4 7 23 9 52 5 25 -3 78 -6 118 -6z m600
-153 c4 -14 -5 -30 -31 -57 -23 -23 -33 -40 -26 -44 20 -12 12 -28 -8 -17 -14
8 -23 5 -41 -14 -18 -19 -27 -22 -41 -14 -29 15 -56 -5 -63 -47 -7 -35 -8 -35
-26 -19 -11 10 -17 22 -14 26 10 17 -10 9 -33 -13 -30 -28 -39 -18 -12 15 13
18 30 27 48 27 16 0 37 10 51 25 18 19 27 22 41 14 23 -12 39 -1 98 62 l43 48
-31 38 c-17 21 -31 42 -31 47 0 15 69 -55 76 -77z m2054 34 c0 -17 -18 -21
-24 -6 -3 9 0 15 9 15 8 0 15 -4 15 -9z m-55 -110 c-7 -23 11 -37 28 -22 20
16 102 27 93 12 -5 -7 -14 -10 -22 -7 -7 3 -16 1 -19 -4 -4 -6 -17 -10 -31
-10 -13 0 -24 -5 -24 -11 0 -6 -9 -8 -22 -3 -32 9 -33 11 -20 39 14 29 26 34
17 6z m-1825 -141 c0 -5 -4 -10 -9 -10 -6 0 -13 5 -16 10 -3 6 1 10 9 10 9 0
16 -4 16 -10z m-110 -10 c12 -8 11 -10 -7 -10 -13 0 -23 5 -23 10 0 13 11 13
30 0z m70 6 c0 -2 -9 -6 -20 -9 -11 -3 -20 -1 -20 4 0 5 9 9 20 9 11 0 20 -2
20 -4z m39 -55 c-15 -5 -22 6 -14 19 6 9 10 9 16 -1 5 -8 4 -15 -2 -18z m28
-42 c-4 -15 -2 -19 9 -15 8 3 14 -1 14 -9 0 -19 -24 -19 -39 -1 -9 11 -9 15 1
19 10 4 10 8 -2 16 -13 9 -12 11 4 11 14 0 17 -5 13 -21z m2435 7 c31 -8 59
-11 62 -8 3 3 6 0 6 -6 0 -5 15 -20 33 -31 29 -18 49 -20 185 -20 138 1 171 6
142 24 -6 4 -8 11 -4 16 3 6 12 2 20 -9 16 -23 110 -38 131 -21 10 9 27 5 66
-15 42 -20 69 -26 120 -26 69 0 169 19 162 30 -2 4 7 5 22 2 16 -3 24 -1 20 5
-4 6 4 8 20 5 16 -3 24 -1 20 5 -4 6 4 8 20 5 18 -3 24 -1 19 6 -4 7 -2 10 7
6 8 -3 50 4 93 15 93 23 269 38 278 23 3 -6 -37 -12 -104 -17 -61 -3 -108 -10
-105 -14 2 -5 -7 -6 -22 -3 -16 3 -24 1 -20 -5 4 -6 -4 -8 -20 -5 -18 3 -24 1
-19 -6 4 -7 2 -10 -7 -6 -8 3 -70 -9 -138 -27 -68 -18 -159 -35 -201 -38 l-77
-6 122 -128 c67 -71 120 -130 118 -133 -3 -2 -26 17 -53 43 -26 26 -48 43 -48
39 0 -5 -7 -3 -15 4 -8 7 -13 15 -10 19 7 12 -157 166 -190 179 l-30 12 35
-30 c24 -22 29 -30 17 -30 -13 0 -17 -9 -17 -43 0 -25 -9 -60 -24 -87 -19 -36
-29 -45 -52 -47 -18 -1 -21 1 -8 3 59 13 88 171 40 219 -23 23 -29 24 -117 20
-60 -3 -95 -9 -101 -17 -6 -10 -8 -10 -8 0 0 9 -28 12 -105 12 -105 0 -158 12
-195 44 -18 17 -110 37 -110 25 0 -5 -8 -4 -18 2 -27 17 -91 -19 -183 -104
-73 -65 -78 -73 -84 -120 -4 -28 -16 -76 -26 -107 -10 -30 -19 -65 -19 -78 0
-13 -18 -89 -40 -169 -22 -81 -40 -156 -40 -168 0 -13 -6 -28 -14 -34 -8 -7
-18 -38 -22 -69 -6 -50 -12 -61 -55 -103 -30 -29 -51 -60 -58 -85 -6 -21 -21
-53 -33 -71 -32 -44 -165 -156 -216 -182 -35 -18 -48 -34 -74 -86 -18 -35 -30
-67 -27 -69 2 -3 22 -1 43 4 33 7 39 6 43 -11 6 -22 21 -24 59 -7 23 11 28 10
40 -7 20 -27 17 -76 -6 -105 -14 -18 -20 -20 -20 -10 0 9 5 21 12 28 9 9 9 12
0 12 -9 0 -9 4 -1 19 14 22 4 55 -14 48 -47 -17 -57 -17 -76 2 -15 15 -26 18
-54 11 -19 -4 -42 -3 -50 2 -15 8 -14 11 3 28 11 11 20 27 20 35 0 32 54 103
94 123 55 26 197 147 218 186 10 17 22 49 27 71 8 29 20 46 42 59 41 24 69 72
69 119 0 24 8 49 20 64 11 14 20 39 20 56 0 17 16 85 36 151 27 90 34 132 30
163 -4 31 -1 46 10 58 20 20 44 97 44 141 0 28 12 43 85 111 83 75 153 122
185 122 8 0 41 -6 72 -13z m-3044 -115 c-15 -5 -21 7 -13 26 7 17 8 17 15 -2
4 -11 3 -22 -2 -24z m2297 -111 c3 -5 1 -10 -4 -10 -6 0 -11 5 -11 10 0 6 2
10 4 10 3 0 8 -4 11 -10z m-2100 -24 c12 -12 12 -16 0 -26 -20 -17 -2 -40 31
-40 13 0 24 -4 24 -10 0 -5 -10 -10 -23 -10 -23 0 -47 -17 -47 -33 0 -5 13 -7
29 -4 24 5 30 2 35 -16 9 -34 8 -37 -21 -38 -24 -2 -25 -2 -5 -6 14 -3 22 -12
22 -25 0 -17 -3 -18 -15 -8 -8 6 -22 9 -33 6 -14 -5 -17 -13 -14 -36 3 -19 0
-30 -7 -30 -7 0 -11 6 -10 13 1 6 -5 28 -14 47 -16 36 -14 55 5 44 6 -4 0 8
-13 25 -20 27 -21 33 -9 41 8 5 11 10 5 10 -5 1 0 5 13 11 14 5 22 16 20 26
-1 10 1 24 6 31 13 22 -4 29 -20 8 -14 -19 -14 -19 -14 1 0 31 32 42 55 19z
m2855 -5 c0 -14 -18 -23 -30 -16 -6 4 -8 11 -5 16 8 12 35 12 35 0z m2251 -8
c13 -16 12 -17 -3 -4 -10 7 -18 15 -18 17 0 8 8 3 21 -13z m-2261 -48 c0 -17
-17 -28 -30 -20 -6 4 -5 13 2 25 13 20 28 18 28 -5z m-880 0 c0 -8 -7 -15 -15
-15 -8 0 -15 7 -15 15 0 8 7 15 15 15 8 0 15 -7 15 -15z m-180 -25 c0 -5 -4
-10 -10 -10 -5 0 -10 5 -10 10 0 6 5 10 10 10 6 0 10 -4 10 -10z m326 -25 c6
-23 0 -45 -10 -34 -10 12 -15 59 -6 59 5 0 12 -11 16 -25z m676 -9 c-16 -32
-49 -62 -58 -53 -2 2 5 14 16 27 11 13 20 29 20 36 0 11 14 21 32 23 4 1 0
-14 -10 -33z m-1118 -53 c61 -71 65 -77 47 -89 -12 -9 -17 -21 -14 -39 4 -18
1 -25 -10 -25 -9 0 -19 5 -22 10 -3 6 -17 7 -31 4 -34 -9 -30 1 13 28 20 13
41 26 47 30 6 4 -10 31 -40 65 -71 84 -78 93 -66 93 6 0 40 -34 76 -77z
m-1454 55 c-1 -17 -68 -93 -76 -85 -5 5 64 97 73 97 2 0 3 -6 3 -12z m1870 2
c0 -10 -66 -55 -97 -67 -29 -11 -5 14 44 46 52 35 53 35 53 21z m-233 -44
c-23 -18 -22 -30 3 -23 11 3 20 2 20 -3 0 -13 -29 -32 -39 -26 -5 4 -12 2 -16
-4 -3 -5 -14 -10 -22 -10 -14 0 -13 4 5 21 12 11 20 24 17 29 -6 10 36 42 44
34 3 -3 -2 -11 -12 -18z m123 -68 c0 -5 -7 -8 -15 -8 -8 0 -25 -11 -38 -24
-22 -22 -23 -27 -10 -45 19 -27 5 -27 -24 1 -25 23 -31 51 -10 42 7 -2 24 7
37 21 23 25 23 26 7 54 -9 16 -17 33 -17 38 0 10 69 -69 70 -79z m100 57 c0
-2 -18 -14 -40 -25 -22 -11 -40 -16 -40 -11 0 13 35 32 44 24 3 -3 6 -1 6 5 0
7 7 12 15 12 8 0 15 -2 15 -5z m70 -4 c0 -6 -4 -13 -10 -16 -5 -3 -10 1 -10 9
0 9 5 16 10 16 6 0 10 -4 10 -9z m612 -59 c-29 -33 -58 -65 -67 -72 -13 -10 4
-32 115 -148 72 -74 128 -137 125 -140 -3 -3 -23 11 -44 32 -24 24 -41 34 -45
27 -12 -19 -28 -13 -17 7 8 14 -9 37 -94 127 -57 61 -101 114 -98 118 3 5 13
1 22 -7 17 -15 22 -11 81 54 34 39 65 69 67 66 3 -3 -17 -32 -45 -64z m748 17
c0 -5 -4 -9 -10 -9 -5 0 -10 7 -10 16 0 8 5 12 10 9 6 -3 10 -10 10 -16z
m-1911 -15 c-11 -10 -40 -16 -93 -18 -61 -2 -79 -7 -91 -22 -14 -18 -14 -18
-15 3 0 18 9 23 56 33 31 7 68 10 83 7 15 -3 34 1 45 9 24 17 35 9 15 -12z
m573 -6 c-9 -9 -12 -7 -12 12 0 19 3 21 12 12 9 -9 9 -15 0 -24z m-2042 2 c-6
-11 -15 -18 -21 -14 -6 4 -6 11 2 20 17 21 31 17 19 -6z m208 -2 c-6 -18 -28
-21 -28 -4 0 9 7 16 16 16 9 0 14 -5 12 -12z m-398 -28 c0 -5 -7 -10 -16 -10
-8 0 -12 5 -9 10 3 6 10 10 16 10 5 0 9 -4 9 -10z m1490 -98 c-1 -12 -48 -62
-59 -62 -6 0 -32 -5 -58 -10 -44 -10 -50 -15 -77 -65 -17 -30 -34 -52 -38 -49
-5 3 3 25 17 49 29 50 31 59 10 52 -8 -4 -17 -2 -20 3 -3 5 11 12 32 15 90 15
137 29 156 48 19 19 19 21 4 47 -9 15 -14 30 -10 34 6 6 43 -47 43 -62z m3921
51 c13 -16 12 -17 -3 -4 -10 7 -18 15 -18 17 0 8 8 3 21 -13z m-2722 -40 c-7
-10 -28 -35 -47 -56 -18 -21 -30 -42 -26 -48 3 -5 1 -16 -5 -23 -8 -10 -6 -17
7 -30 18 -15 20 -15 37 4 10 11 22 20 27 20 12 0 95 -78 119 -112 l21 -28 -30
-40 -29 -40 -64 70 c-110 119 -130 145 -117 158 9 9 6 17 -10 35 -29 31 -28
41 2 22 23 -15 25 -14 66 35 23 27 46 50 52 50 6 0 5 -8 -3 -17z m-1089 -1 c0
-10 -22 -32 -32 -32 -5 0 -3 9 4 20 13 20 28 27 28 12z m114 -54 c-1 -13 -3
-25 -3 -27 -1 -2 -7 1 -14 8 -10 8 -17 7 -25 -1 -9 -9 -7 -17 10 -35 12 -13
16 -23 10 -23 -6 0 -14 4 -17 10 -3 5 -33 -11 -65 -37 -71 -55 -92 -52 -25 2
25 21 44 44 41 51 -5 13 60 73 80 74 6 0 10 -10 8 -22z m1836 -123 c-18 -78
-20 -104 -11 -143 5 -26 71 -235 145 -464 l135 -417 72 -97 c67 -92 98 -148
86 -161 -3 -3 -13 11 -21 31 -8 20 -46 78 -83 128 l-69 93 -141 440 c-78 242
-144 455 -146 473 -3 29 10 103 39 212 4 14 9 19 11 13 3 -7 -5 -56 -17 -108z
m-2021 -9 c-11 -24 -14 -25 -22 -10 -7 13 -5 21 8 31 25 17 28 11 14 -21z
m1149 -145 l118 -119 -39 -57 c-48 -70 -62 -65 -17 5 l33 52 -111 111 c-100
101 -123 127 -107 127 2 0 58 -53 123 -119z m-1661 27 c24 -22 30 -38 14 -38
-5 0 -19 14 -31 30 -25 35 -16 39 17 8z m-400 -164 c-9 -9 -28 6 -21 18 4 6
10 6 17 -1 6 -6 8 -13 4 -17z m1773 -26 c0 -6 -7 -5 -15 2 -8 7 -15 17 -15 22
0 6 7 5 15 -2 8 -7 15 -17 15 -22z m-1782 -28 c-3 -9 -9 -8 -21 4 -9 10 -14
22 -11 28 4 6 12 4 21 -5 9 -8 13 -21 11 -27z m2547 0 c10 -11 16 -20 13 -20
-3 0 -13 9 -23 20 -10 11 -16 20 -13 20 3 0 13 -9 23 -20z m-1825 -30 c0 -5
-5 -10 -11 -10 -5 0 -7 5 -4 10 3 6 8 10 11 10 2 0 4 -4 4 -10z m-1535 -149
c-3 -6 -11 -11 -17 -11 -6 0 -6 6 2 15 14 17 26 13 15 -4z m3612 -63 c-3 -8
-6 -5 -6 6 -1 11 2 17 5 13 3 -3 4 -12 1 -19z m-1527 -77 c0 -5 -17 -11 -37
-15 -21 -3 -58 -22 -82 -41 -24 -19 -58 -37 -77 -41 -19 -3 -34 -11 -34 -17 0
-8 -3 -8 -11 0 -17 17 -2 33 31 33 17 0 47 14 76 36 59 45 134 70 134 45z
m-1082 -58 c-18 -17 -54 -11 -43 8 4 6 13 8 21 5 7 -3 16 -1 20 5 3 6 9 8 12
4 3 -3 -1 -13 -10 -22z m-358 -22 c0 -5 -7 -12 -16 -15 -14 -5 -15 -4 -4 9 14
17 20 19 20 6z m-40 -91 c-19 -12 -30 -12 -30 -1 0 10 31 20 40 14 2 -2 -2 -8
-10 -13z m1716 -80 c9 0 14 -11 14 -31 0 -17 7 -37 15 -46 9 -8 18 -28 22 -43
5 -30 39 -51 69 -45 44 10 94 12 94 5 0 -4 -27 -11 -60 -15 -75 -9 -124 7
-116 38 3 12 -4 28 -20 44 -14 14 -24 35 -24 53 0 17 -4 30 -10 30 -5 0 -12
16 -16 35 -3 19 -11 35 -17 35 -6 0 -2 6 9 14 18 14 19 12 22 -30 2 -30 8 -44
18 -44z m-66 54 c0 -3 -7 -12 -15 -20 -12 -13 -15 -13 -15 -1 0 7 3 17 7 20 8
8 23 9 23 1z m-57 -153 c59 -59 94 -102 88 -106 -6 -3 -8 -11 -5 -17 4 -7 2
-8 -5 -4 -6 4 -9 11 -7 15 3 4 -19 29 -47 57 -29 27 -43 38 -32 24 l20 -25
-22 19 c-13 10 -20 22 -18 26 2 4 -4 15 -15 25 -11 10 -20 14 -20 10 0 -5 -13
4 -29 19 -26 25 -32 56 -12 56 4 0 51 -45 104 -99z m-893 5 c10 -25 27 -47 39
-51 17 -5 21 -15 21 -51 0 -51 29 -115 62 -138 22 -15 61 -13 84 6 7 5 16 7
20 6 5 -2 27 8 49 22 22 13 48 28 58 32 10 4 16 12 12 18 -3 5 0 7 8 4 8 -3
18 -1 22 5 3 6 10 11 16 11 18 0 8 -16 -22 -34 -31 -18 -33 -29 -14 -78 4 -10
-7 -18 -35 -27 -22 -6 -39 -15 -36 -19 2 -4 -9 -7 -24 -8 -20 -1 -31 5 -38 21
-9 20 -16 22 -55 18 -37 -4 -48 -2 -67 18 -29 31 -60 103 -60 141 0 25 -3 29
-17 23 -10 -4 -35 -11 -56 -15 -54 -11 -74 -34 -87 -99 -6 -31 -22 -105 -35
-166 -43 -198 -49 -166 58 -283 l94 -103 10 -97 c8 -75 7 -100 -3 -111 -14
-15 -34 -7 -34 14 0 9 6 12 16 8 12 -5 15 -1 11 13 -3 10 -9 51 -12 90 -6 59
-12 78 -36 107 -21 25 -35 34 -47 30 -14 -6 -15 -4 -5 8 11 13 4 24 -42 68
-30 29 -56 58 -56 65 -5 40 -3 82 4 87 4 3 8 23 10 45 1 21 6 42 10 45 5 4 10
25 10 48 1 22 5 41 8 41 9 0 31 138 24 150 -3 5 1 10 9 10 8 0 23 10 33 23 10
13 26 21 36 19 22 -5 82 18 70 27 -10 7 -43 78 -43 91 0 21 12 8 30 -34z
m1135 -15 c-3 -6 -14 -11 -23 -11 -15 1 -15 2 2 15 21 16 32 13 21 -4z m-2755
-161 c0 -5 -11 -10 -24 -10 -14 0 -28 5 -31 10 -4 6 7 10 24 10 17 0 31 -4 31
-10z m2050 -31 c0 -10 -4 -19 -10 -19 -5 0 -10 12 -10 26 0 14 4 23 10 19 6
-3 10 -15 10 -26z m674 -125 c-38 -24 -73 -44 -77 -44 -5 0 -5 -4 -2 -10 3 -6
-1 -7 -9 -4 -9 3 -16 8 -16 10 0 10 155 102 163 97 5 -3 -22 -25 -59 -49z
m-582 -184 c16 0 27 4 23 9 -3 5 -1 12 5 16 5 3 10 -1 10 -10 0 -11 6 -14 23
-10 62 14 490 76 494 71 9 -9 -12 -13 -295 -57 -248 -38 -276 -44 -298 -66
-15 -15 -31 -22 -40 -19 -9 3 -20 6 -26 6 -5 0 -2 8 8 17 12 12 19 14 21 6 5
-15 33 -5 33 11 0 6 -24 35 -53 64 -47 47 -56 52 -78 44 -13 -6 -31 -22 -38
-36 -17 -32 -27 -33 -51 -4 l-17 22 -49 -32 c-44 -28 -49 -34 -48 -66 1 -19 7
-42 14 -51 23 -28 1 -29 -28 -2 -16 15 -38 27 -50 27 -13 0 -22 6 -22 15 0 18
-3 17 39 5 33 -9 33 -9 28 18 -5 24 1 31 58 69 46 31 65 39 74 30 8 -8 11 -8
11 2 0 7 4 10 9 7 5 -4 12 0 15 6 3 7 3 0 0 -17 -4 -28 -4 -29 7 -7 7 12 26
26 43 30 28 8 36 4 90 -45 43 -38 67 -53 88 -53z m-442 -7 c0 -9 -6 -13 -15
-9 -10 3 -15 -1 -15 -12 0 -13 -2 -14 -9 -4 -6 11 -14 8 -33 -11 l-25 -25 19
-31 c28 -44 6 -38 -31 8 -31 39 -31 51 0 51 10 0 22 6 26 13 10 16 66 45 76
40 4 -2 7 -11 7 -20z m2377 -80 c-3 -10 -5 -2 -5 17 0 19 2 27 5 18 2 -10 2
-26 0 -35z m-1076 -63 c12 -21 27 -36 32 -33 6 3 7 1 4 -5 -9 -14 54 -123 66
-115 6 3 7 1 3 -6 -4 -6 -1 -23 8 -36 9 -13 12 -26 7 -30 -5 -3 -22 17 -37 45
-15 27 -31 47 -37 43 -6 -3 -7 -1 -3 6 4 6 -8 37 -27 69 -50 83 -59 102 -48
102 5 0 20 -18 32 -40z m-567 -216 c9 -25 7 -72 -4 -79 -6 -4 -9 7 -8 27 1 18
-2 41 -6 51 -5 10 -4 17 2 17 5 0 13 -7 16 -16z m-864 -71 c0 -5 -30 -28 -67
-53 -36 -25 -81 -61 -100 -80 -29 -30 -322 -459 -945 -1385 -236 -350 -262
-387 -266 -376 -2 6 41 75 96 153 54 79 159 233 232 343 320 479 826 1223 857
1260 18 22 66 63 106 92 73 52 87 59 87 46z m860 -47 c0 -8 -4 -18 -10 -21 -5
-3 -10 3 -10 14 0 12 5 21 10 21 6 0 10 -6 10 -14z m2060 -58 c0 -16 -3 -19
-11 -11 -6 6 -8 16 -5 22 11 17 16 13 16 -11z m-2070 5 c0 -5 -5 -15 -10 -23
-8 -12 -10 -11 -10 8 0 12 5 22 10 22 6 0 10 -3 10 -7z m2088 -45 c18 -18 15
-27 -8 -25 -12 1 -20 8 -20 19 0 21 11 23 28 6z m-2105 -28 c-7 -28 -13 -25
-13 6 0 14 4 23 9 20 5 -3 7 -15 4 -26z m2073 -36 c-4 -9 -9 -15 -11 -12 -3 3
-3 13 1 22 4 9 9 15 11 12 3 -3 3 -13 -1 -22z m74 11 c7 -8 8 -15 2 -15 -5 0
-15 7 -22 15 -7 8 -8 15 -2 15 5 0 15 -7 22 -15z m-2115 -165 c37 -146 39
-188 12 -231 -22 -35 -25 -19 -7 29 l19 49 -40 149 c-42 160 -44 173 -30 159
5 -6 26 -75 46 -155z m2154 143 c-7 -10 -9 -15 -5 -11 10 8 36 -9 36 -23 0 -9
-28 -1 -48 14 -9 7 -9 13 -1 23 17 21 34 17 18 -3z m-199 -20 c8 -13 13 -14
16 -5 3 6 14 12 25 12 18 0 18 -1 -1 -20 -12 -12 -32 -25 -45 -30 -14 -5 -25
-15 -25 -22 0 -9 3 -9 9 1 8 12 11 8 17 -15 4 -16 12 -32 18 -36 7 -5 7 -8 -2
-8 -8 0 -16 9 -19 20 -3 11 -14 20 -24 20 -24 0 -36 20 -18 31 44 26 44 28 31
49 -7 11 -8 20 -3 20 6 0 15 -8 21 -17z m-45 -3 c-3 -5 -14 -10 -23 -10 -15 0
-15 2 -2 10 20 13 33 13 25 0z m175 -17 c0 -13 -3 -13 -15 -3 -8 7 -12 16 -9
21 8 13 24 1 24 -18z m-200 -15 c0 -13 -23 -5 -28 10 -2 7 2 10 12 6 9 -3 16
-11 16 -16z m153 5 c-7 -2 -19 -2 -25 0 -7 3 -2 5 12 5 14 0 19 -2 13 -5z
m143 -33 c-1 -32 -6 -36 -23 -19 -9 9 -9 16 0 30 17 27 24 23 23 -11z m-53 13
c-7 -2 -19 -2 -25 0 -7 3 -2 5 12 5 14 0 19 -2 13 -5z m-3932 -50 c13 -16 12
-17 -3 -4 -17 13 -22 21 -14 21 2 0 10 -8 17 -17z m3989 -17 c0 -2 -8 -10 -17
-17 -16 -13 -17 -12 -4 4 13 16 21 21 21 13z m-2205 -276 c3 -5 -3 -10 -14
-10 -12 0 -21 5 -21 10 0 6 6 10 14 10 8 0 18 -4 21 -10z m-51 -34 c-6 -16
-24 -23 -24 -8 0 10 22 33 27 28 2 -2 1 -11 -3 -20z m-14 -51 c-7 -8 -17 -15
-22 -15 -6 0 -5 7 2 15 7 8 17 15 22 15 6 0 5 -7 -2 -15z m1990 12 c0 -2 -12
-14 -27 -28 l-28 -24 24 28 c23 25 31 32 31 24z m-2728 -39 c-7 -7 -12 -8 -12
-2 0 6 3 14 7 17 3 4 9 5 12 2 2 -3 -1 -11 -7 -17z m698 3 c0 -5 -7 -12 -16
-15 -24 -9 -28 -7 -14 9 14 17 30 20 30 6z m0 -51 c8 -16 8 -18 -4 -14 -17 6
-30 34 -16 34 5 0 14 -9 20 -20z m1930 -64 c0 -2 -8 -10 -17 -17 -16 -13 -17
-12 -4 4 13 16 21 21 21 13z m-1947 -211 c4 3 5 2 2 -1 -7 -11 35 -85 45 -79
6 3 7 -1 4 -9 -10 -26 -21 -18 -53 39 -31 55 -42 96 -17 63 7 -10 16 -16 19
-13z m99 -183 c0 -26 4 -39 11 -35 5 3 7 1 4 -4 -9 -14 27 -95 37 -86 4 4 4 0
0 -10 -3 -9 -2 -17 2 -17 11 0 10 -202 -1 -255 -5 -22 -7 -44 -6 -50 2 -5 -1
-7 -5 -3 -4 4 -33 -32 -65 -81 -54 -84 -57 -92 -48 -128 5 -21 9 -64 9 -96 0
-55 1 -59 35 -79 20 -11 34 -23 31 -26 -8 -7 -66 19 -66 30 0 5 -4 7 -9 4 -4
-3 -9 28 -10 69 -1 40 -6 88 -11 107 -9 29 -6 39 27 88 20 30 36 60 36 67 0 7
4 10 9 7 8 -5 12 11 8 31 -1 5 2 7 6 3 9 -10 37 29 30 41 -4 5 -1 11 5 13 6 2
11 24 11 48 -1 199 0 196 -31 265 -17 37 -31 82 -31 100 0 18 -7 38 -15 45 -8
7 -12 17 -9 22 13 21 45 -28 46 -70z m-4143 -661 c43 -54 39 -62 -9 -16 -22
21 -40 43 -40 47 0 18 20 6 49 -31z m1681 -375 c-258 -375 -289 -418 -289
-401 0 6 109 168 242 360 293 425 288 417 294 411 3 -3 -108 -169 -247 -370z
m-1120 39 c19 -19 32 -35 29 -35 -3 0 -20 16 -39 35 -19 19 -32 35 -29 35 3 0
20 -16 39 -35z m290 -242 c0 -8 -9 0 -50 45 l-45 47 48 -45 c26 -24 47 -45 47
-47z m3290 -148 c-7 -9 -15 -13 -18 -10 -3 2 1 11 8 20 7 9 15 13 18 10 3 -2
-1 -11 -8 -20z m-40 -40 c-7 -9 -15 -13 -18 -10 -3 2 1 11 8 20 7 9 15 13 18
10 3 -2 -1 -11 -8 -20z m-2720 -46 c-7 -11 -14 -18 -17 -15 -8 8 5 36 17 36 7
0 7 -6 0 -21z m2680 6 c-7 -8 -17 -15 -22 -15 -6 0 -5 7 2 15 7 8 17 15 22 15
6 0 5 -7 -2 -15z m-40 -40 c-7 -8 -17 -15 -22 -15 -6 0 -5 7 2 15 7 8 17 15
22 15 6 0 5 -7 -2 -15z m-2672 -7 c-2 -6 -10 -14 -16 -16 -7 -2 -10 2 -6 12 7
18 28 22 22 4z m2036 -34 c3 -8 2 -13 -3 -10 -5 3 -11 -3 -14 -14 -3 -11 -11
-20 -17 -20 -10 0 -10 4 0 15 11 13 10 15 -6 9 -16 -5 -15 -2 5 15 28 25 27
25 35 5z m596 7 c0 -12 -20 -25 -27 -18 -7 7 6 27 18 27 5 0 9 -4 9 -9z
m-2674 -38 c-14 -29 -46 -62 -46 -49 0 4 12 25 26 47 29 46 44 47 20 2z m2634
-1 c0 -4 -9 -13 -20 -20 -22 -13 -27 -3 -8 16 14 14 28 16 28 4z m-2690 -80
c0 -10 -22 -32 -32 -32 -5 0 -3 9 4 20 13 20 28 27 28 12z m-45 -62 c-10 -11
-20 -18 -23 -15 -7 6 18 35 31 35 5 0 2 -9 -8 -20z m-35 -51 c-7 -11 -14 -18
-17 -15 -8 8 5 36 17 36 7 0 7 -6 0 -21z m-35 -48 c-3 -6 -11 -11 -17 -11 -6
0 -6 6 2 15 14 17 26 13 15 -4z m-35 -52 c-7 -11 -14 -18 -17 -15 -8 8 5 36
17 36 7 0 7 -6 0 -21z m666 -191 l29 -33 -32 29 c-31 28 -38 36 -30 36 2 0 16
-15 33 -32z m94 -33 c13 -14 21 -25 18 -25 -2 0 -15 11 -28 25 -13 14 -21 25
-18 25 2 0 15 -11 28 -25z"/>
<path d="M2520 6130 c0 -5 5 -10 11 -10 5 0 7 5 4 10 -3 6 -8 10 -11 10 -2 0
-4 -4 -4 -10z"/>
<path d="M5157 5752 c-10 -10 -17 -24 -17 -31 0 -13 98 -121 109 -121 4 0 14
12 23 28 16 27 16 28 -37 85 -29 31 -55 57 -58 57 -2 0 -11 -8 -20 -18z"/>
<path d="M4390 4785 c13 -14 26 -25 28 -25 3 0 -5 11 -18 25 -13 14 -26 25
-28 25 -3 0 5 -11 18 -25z"/>
<path d="M3858 4503 c-46 -32 -43 -58 5 -38 18 8 31 19 29 25 -2 7 5 9 19 5
18 -6 20 -5 10 14 -14 26 -17 26 -63 -6z"/>
<path d="M4577 7961 c-97 -54 -96 -50 -53 -121 26 -44 36 -73 36 -103 0 -24 8
-51 18 -64 l17 -23 33 26 c17 14 32 31 32 39 0 8 7 11 20 8 13 -4 46 11 95 43
71 46 89 64 64 64 -5 0 -7 5 -4 10 4 6 13 7 24 1 13 -7 24 -4 43 12 l26 22
-29 63 -29 62 -113 -1 c-110 0 -113 -1 -180 -38z m82 -22 c-16 -10 -23 -4 -14
10 3 6 11 8 17 5 6 -4 5 -9 -3 -15z"/>
<path d="M4918 7940 c31 -74 58 -79 56 -12 -1 50 13 57 18 7 l3 -34 64 49 63
50 -115 0 -116 0 27 -60z"/>
<path d="M1120 7484 c19 -9 82 -33 139 -54 l105 -39 -30 30 c-23 23 -51 34
-132 54 -119 29 -130 30 -82 9z"/>
<path d="M5161 7376 l-64 -64 5 -81 c3 -45 10 -87 15 -92 8 -8 30 0 77 26 53
29 64 40 56 51 -7 8 -9 33 -6 66 4 30 1 76 -6 106 l-13 53 -64 -65z"/>
<path d="M4610 7345 c0 -15 18 -40 24 -34 3 3 -1 14 -9 25 -8 10 -14 15 -15 9z"/>
<path d="M1478 7302 c32 -40 127 -132 137 -132 3 0 23 18 44 41 38 39 38 41
18 48 -12 5 -66 25 -120 45 -53 20 -100 36 -103 36 -3 0 8 -17 24 -38z"/>
<path d="M2823 7224 l-72 -25 25 -46 c13 -25 24 -52 24 -60 0 -8 5 -11 11 -8
6 4 10 1 8 -6 -4 -30 2 -50 13 -47 6 2 63 -24 126 -58 63 -34 121 -60 128 -57
8 3 12 8 9 12 -2 4 2 8 9 8 14 0 106 55 106 63 0 21 -67 98 -104 119 -24 15
-61 48 -81 74 -22 29 -42 46 -51 43 -7 -3 -16 -1 -19 4 -10 16 -55 10 -132
-16z"/>
<path d="M4952 7115 c-69 -33 -90 -48 -86 -60 8 -21 53 -19 107 4 33 14 46 26
52 48 6 24 8 26 14 9 7 -19 8 -19 29 2 57 57 3 55 -116 -3z"/>
<path d="M2362 7104 l48 -49 42 43 c42 42 42 42 16 42 -17 0 -28 -6 -31 -17
-4 -17 -5 -17 -6 0 0 9 -9 17 -18 17 -10 0 -36 3 -58 6 l-40 6 47 -48z"/>
<path d="M1703 7045 c-25 -30 -86 -87 -135 -127 -48 -40 -88 -76 -88 -79 0 -4
14 -19 31 -33 36 -30 47 -31 239 -15 125 11 138 14 177 42 l42 30 -21 31 c-82
117 -140 185 -168 194 -28 10 -32 9 -77 -43z"/>
<path d="M3202 7045 c26 -39 30 -41 48 -21 9 12 4 19 -30 36 l-41 21 23 -36z"/>
<path d="M4763 7037 c-28 -17 -70 -54 -94 -80 l-42 -49 41 -40 c52 -52 67 -47
77 28 7 56 45 124 70 124 6 0 16 4 24 9 12 8 12 12 2 25 -17 21 -18 21 -78
-17z"/>
<path d="M3261 7011 c-20 -15 -22 -21 -11 -40 9 -17 15 -20 25 -11 20 17 48
-15 35 -41 -8 -13 -7 -25 0 -39 12 -22 16 -21 68 18 17 13 32 20 32 14 0 -6
-18 -23 -39 -39 l-39 -29 25 -42 c14 -23 29 -39 35 -36 5 3 7 12 4 20 -3 8 1
14 9 14 8 0 15 5 15 11 0 6 7 9 15 5 8 -3 15 0 15 6 0 16 29 -23 30 -39 0 -7
-9 -13 -20 -13 -11 0 -20 -5 -20 -10 0 -6 -7 -10 -16 -8 -10 2 -19 -3 -21 -9
-3 -7 0 -13 6 -13 6 0 11 -7 11 -15 0 -12 4 -14 16 -7 9 5 25 7 35 5 26 -7
119 54 168 110 22 27 41 51 41 55 0 4 -11 24 -25 44 -14 20 -25 42 -25 47 0 7
-34 11 -92 11 -71 0 -112 6 -173 25 -44 14 -80 25 -80 25 0 0 -11 -9 -24 -19z
m239 -177 c0 -22 -16 -17 -17 6 -1 11 2 18 8 15 5 -4 9 -13 9 -21z"/>
<path d="M2853 6999 c6 -10 15 -15 19 -13 4 3 8 -2 8 -11 0 -25 60 -97 75 -91
8 3 16 -2 19 -10 9 -22 7 -26 -6 -18 -7 4 -8 3 -4 -4 5 -8 19 -3 46 15 22 14
40 29 40 32 0 4 -47 32 -104 63 -66 34 -100 48 -93 37z"/>
<path d="M3998 6993 c-16 -2 -28 -6 -28 -9 0 -2 19 -34 43 -71 117 -183 197
-325 197 -348 0 -19 5 -25 21 -25 15 0 19 -5 15 -15 -3 -8 -1 -25 4 -37 5 -13
9 -18 9 -13 1 18 41 15 41 -2 0 -13 3 -13 15 -3 12 10 15 10 15 0 0 -7 8 -10
19 -7 15 4 22 -2 30 -24 5 -16 15 -29 20 -29 6 0 13 0 16 0 3 0 14 -9 26 -21
11 -11 23 -18 26 -15 5 5 -71 130 -124 202 -18 24 -28 46 -23 49 9 6 39 -31
86 -107 23 -38 30 -44 36 -30 15 37 6 66 -40 132 l-49 68 -51 -39 c-34 -25
-52 -34 -52 -24 0 8 15 25 34 37 29 20 32 26 22 40 -11 15 -15 16 -33 3 -19
-13 -21 -13 -26 5 -3 12 1 23 10 28 12 7 0 32 -64 133 l-79 124 -44 1 c-25 1
-57 -1 -72 -3z"/>
<path d="M4157 6959 c10 -18 26 -34 36 -37 9 -2 16 -10 15 -17 -2 -8 17 -48
42 -89 33 -56 50 -76 65 -76 12 0 26 -5 33 -12 9 -9 12 -9 12 0 0 7 9 12 20
12 11 0 20 4 20 9 0 15 -22 26 -45 23 -21 -3 -23 0 -66 112 -23 61 -47 88 -71
80 -12 -3 -18 0 -18 10 0 11 -9 16 -31 16 l-30 0 18 -31z"/>
<path d="M3155 6944 c-53 -36 -66 -54 -42 -54 16 0 57 -45 57 -61 0 -18 -17
-8 -28 16 -11 24 -52 36 -52 15 0 -5 -5 -10 -11 -10 -7 0 -9 9 -6 21 6 22 13
25 -68 -27 -24 -16 -25 -18 -9 -35 19 -22 44 -25 44 -6 0 6 8 2 18 -9 12 -15
33 -24 70 -28 29 -4 59 -9 66 -12 8 -3 17 2 20 13 3 11 28 35 54 53 35 26 43
35 30 38 -10 2 -18 10 -18 18 0 23 -50 104 -63 103 -7 0 -34 -16 -62 -35z"/>
<path d="M3645 6971 c-3 -3 44 -81 50 -81 1 0 26 13 56 30 56 31 93 38 104 19
5 -7 14 -5 30 5 21 14 24 13 45 -16 24 -33 21 -51 -13 -72 -13 -8 -20 -8 -26
3 -9 14 -3 52 8 48 7 -2 11 7 11 23 0 6 -12 3 -27 -7 -19 -13 -28 -14 -31 -5
-6 20 -46 14 -96 -14 -25 -14 -46 -28 -46 -32 0 -3 19 -34 41 -69 23 -35 39
-66 37 -69 -3 -2 -25 25 -49 62 l-43 67 -47 -53 -47 -52 34 -48 c19 -26 34
-50 34 -53 0 -9 201 -322 209 -325 4 -1 18 9 30 22 l23 25 -23 38 c-12 21 -29
48 -37 61 -8 12 -10 22 -5 22 17 0 81 -105 81 -133 0 -15 -4 -27 -8 -27 -15 0
-38 -47 -30 -60 7 -11 27 -2 90 38 45 29 86 49 92 46 5 -3 33 -12 61 -19 29
-7 62 -17 75 -20 16 -6 22 -3 22 9 0 9 -6 16 -12 16 -9 0 -10 3 -2 8 14 9 27
102 14 102 -5 0 -12 9 -15 21 -4 12 -16 30 -27 41 -11 11 -18 28 -15 38 3 10
-2 28 -10 39 -18 26 -40 16 -74 -33 -13 -20 -28 -36 -32 -36 -13 0 26 60 56
86 l28 23 -104 168 -104 168 -152 0 c-84 0 -154 -2 -156 -4z m380 -481 c10 9
15 9 15 1 0 -6 -3 -11 -8 -11 -4 0 -12 -10 -17 -22 -6 -12 -17 -24 -25 -26
-13 -5 -13 -3 -1 12 11 13 11 20 3 28 -17 17 -15 33 3 18 12 -10 18 -10 30 0z"/>
<path d="M4647 6822 c-3 -17 -9 -43 -13 -58 -4 -16 -3 -26 1 -22 4 4 13 2 20
-5 9 -9 8 -15 -8 -28 -13 -10 -18 -22 -14 -33 9 -23 23 -13 48 36 24 47 20 95
-10 122 -17 16 -19 15 -24 -12z"/>
<path d="M3277 6806 c-19 -15 -26 -28 -21 -39 5 -14 2 -16 -12 -10 -17 6 -16
3 3 -28 16 -25 28 -33 45 -31 21 2 22 2 6 -11 -19 -15 -14 -29 7 -21 10 4 12
-1 8 -15 -6 -24 14 -29 23 -7 3 8 19 20 35 26 37 16 37 31 -2 69 -17 17 -28
35 -25 39 6 10 -21 52 -32 52 -4 -1 -20 -11 -35 -24z m52 -73 c10 10 12 8 9
-8 -2 -15 2 -19 17 -17 18 3 19 2 4 -13 -15 -15 -18 -14 -47 13 -18 17 -32 33
-32 38 0 4 8 0 18 -9 15 -13 21 -14 31 -4z"/>
<path d="M2909 6781 c-30 -20 -61 -35 -67 -33 -7 2 -12 -1 -12 -7 0 -6 29 -29
64 -51 44 -28 75 -57 96 -90 25 -38 38 -50 57 -50 23 0 25 3 19 34 -6 31 -4
34 21 39 16 3 34 0 42 -6 12 -9 13 -9 8 0 -5 7 -1 26 8 43 15 28 14 33 -2 60
-12 21 -27 31 -53 36 -69 11 -80 15 -102 39 l-23 24 -56 -38z m191 -50 c0 -6
-4 -13 -10 -16 -5 -3 -10 1 -10 9 0 9 5 16 10 16 6 0 10 -4 10 -9z"/>
<path d="M3425 6790 c-3 -5 1 -10 9 -10 8 0 18 5 21 10 3 6 -1 10 -9 10 -8 0
-18 -4 -21 -10z"/>
<path d="M3150 6743 c0 -5 7 -19 16 -31 11 -16 13 -32 8 -55 -4 -17 -7 -36 -6
-40 1 -4 -4 -17 -12 -29 l-14 -20 -14 21 c-14 22 -33 27 -43 11 -3 -6 1 -7 9
-4 9 3 16 2 16 -4 0 -5 -7 -12 -15 -16 -8 -3 -15 -15 -15 -26 0 -13 -7 -20
-20 -20 -19 0 -19 -2 7 -41 l27 -41 19 38 c21 43 110 104 152 104 33 0 39 16
15 40 -11 11 -20 25 -20 31 0 5 -4 8 -9 4 -5 -3 -13 -1 -16 5 -4 6 -3 9 2 8 4
-2 10 1 13 6 3 5 -3 10 -14 12 -10 1 -28 11 -40 22 -28 25 -46 35 -46 25z
m106 -114 c16 -27 -46 -33 -71 -7 -7 7 -3 9 12 5 13 -3 26 -1 29 4 7 12 21 11
30 -2z"/>
<path d="M3537 6719 c-30 -19 -55 -28 -67 -24 -24 8 -120 -52 -151 -94 -16
-22 -31 -31 -53 -32 -72 -2 -169 -95 -146 -140 6 -10 10 -39 10 -65 0 -33 9
-62 31 -103 l31 -56 72 -2 c39 -1 100 -3 136 -5 36 -2 84 -5 107 -6 30 -1 54
-12 88 -38 42 -31 49 -34 62 -21 22 22 -8 77 -42 77 -13 0 -27 5 -30 10 -4 6
8 10 27 10 27 0 37 -6 52 -32 l19 -31 23 28 c19 24 30 28 75 30 43 1 56 6 75
28 l23 27 -38 67 c-20 38 -70 120 -111 183 -41 63 -81 127 -88 141 -8 14 -23
38 -35 52 l-22 27 -48 -31z m-197 -369 c0 -11 -7 -20 -15 -20 -27 0 -18 30 13
39 1 1 2 -8 2 -19z m-101 -26 c18 -21 19 -25 5 -22 -9 1 -20 13 -25 26 -11 28
-8 28 20 -4z m111 -19 c0 -9 -6 -12 -15 -9 -8 4 -12 10 -9 15 8 14 24 10 24
-6z m-150 -10 c0 -8 -4 -15 -10 -15 -5 0 -7 7 -4 15 4 8 8 15 10 15 2 0 4 -7
4 -15z"/>
<path d="M4393 6719 l-21 -21 101 -151 c55 -83 103 -144 105 -137 3 7 -5 22
-18 32 -20 16 -19 22 2 19 9 -1 16 24 23 74 5 39 2 43 -58 101 -34 33 -73 69
-87 82 l-26 22 -21 -21z"/>
<path d="M4465 6495 c-3 -8 -7 -22 -10 -30 -3 -12 20 -65 41 -94 2 -2 17 2 34
9 31 13 31 13 12 34 -10 12 -29 38 -41 59 -25 41 -29 44 -36 22z"/>
<path d="M4276 6424 c-5 -14 -4 -15 9 -4 17 14 19 20 6 20 -5 0 -12 -7 -15
-16z"/>
<path d="M4286 6388 c-3 -7 -3 -31 -2 -53 4 -56 5 -59 13 -52 3 4 12 2 19 -4
11 -9 11 -4 4 22 -5 17 -7 36 -4 40 3 5 0 9 -5 9 -6 0 -11 5 -11 11 0 6 7 9
15 5 18 -7 78 4 70 13 -4 3 -16 6 -28 7 -12 0 -32 4 -45 8 -15 5 -23 3 -26 -6z"/>
<path d="M4560 6375 c-14 -8 -20 -14 -15 -14 6 0 21 6 35 14 14 8 21 14 15 14
-5 0 -21 -6 -35 -14z"/>
<path d="M4365 6352 c-20 -7 -26 -24 -13 -37 4 -4 23 -2 43 5 29 10 34 14 24
26 -12 15 -22 16 -54 6z"/>
<path d="M4450 6345 c7 -8 17 -15 22 -15 6 0 5 7 -2 15 -7 8 -17 15 -22 15 -6
0 -5 -7 2 -15z"/>
<path d="M4069 6343 c-2 -5 -24 -21 -49 -35 -25 -15 -56 -35 -69 -45 l-23 -19
22 -37 c15 -25 28 -36 37 -33 8 3 16 6 19 6 2 0 1 6 -2 14 -4 10 2 12 20 9 18
-4 28 0 32 11 3 9 10 16 16 16 5 0 24 12 43 27 25 20 43 27 69 25 19 -2 37 1
41 7 7 12 -16 23 -80 38 -22 6 -47 13 -56 17 -9 4 -18 3 -20 -1z m-89 -118 c7
-8 8 -15 2 -15 -5 0 -15 7 -22 15 -7 8 -8 15 -2 15 5 0 15 -7 22 -15z"/>
<path d="M4820 6275 c0 -8 2 -15 4 -15 2 0 6 7 10 15 3 8 1 15 -4 15 -6 0 -10
-7 -10 -15z"/>
<path d="M4135 6250 c-7 -12 12 -12 40 0 18 8 17 9 -7 9 -15 1 -30 -3 -33 -9z"/>
<path d="M3910 6216 c0 -14 -3 -16 -13 -8 -8 7 -18 6 -31 -4 -18 -12 -16 -15
29 -34 26 -11 52 -19 56 -18 5 2 -2 21 -16 43 -17 27 -24 34 -25 21z"/>
<path d="M2910 6155 c0 -27 1 -28 24 -19 12 5 13 10 5 25 -14 27 -29 24 -29
-6z"/>
<path d="M4014 6166 c-10 -8 -16 -17 -13 -20 3 -3 14 1 25 8 10 8 16 17 13 20
-3 3 -14 -1 -25 -8z"/>
<path d="M4503 5867 c-40 -29 -72 -55 -72 -60 -1 -4 33 18 74 49 64 48 84 66
73 64 -2 -1 -35 -24 -75 -53z"/>
<path d="M3894 5686 c7 -20 -18 -45 -46 -46 -9 0 -29 -10 -44 -23 l-27 -24 23
-31 c13 -18 28 -32 33 -32 5 0 33 24 63 53 l53 54 -30 34 c-19 21 -28 27 -25
15z"/>
<path d="M2415 5520 c-87 -89 -165 -165 -174 -170 -14 -7 -13 -11 3 -29 11
-12 25 -21 33 -21 23 0 75 30 116 66 20 19 44 34 53 34 8 0 39 22 67 49 41 39
59 49 80 47 29 -3 54 24 41 45 -3 6 3 23 14 39 l21 27 -38 37 c-20 20 -41 36
-47 36 -6 0 -82 -72 -169 -160z"/>
<path d="M3637 5602 c-22 -22 -24 -31 -14 -41 10 -10 7 -11 -13 -7 -21 5 -39
-7 -114 -77 l-89 -82 54 -59 c29 -32 55 -53 57 -47 2 6 8 9 13 6 5 -4 7 0 4 7
-2 7 11 24 31 38 20 14 66 49 102 77 37 29 73 51 81 48 9 -4 11 0 7 11 -3 8
-6 17 -6 19 0 2 -10 1 -22 -3 -21 -5 -22 -4 -9 11 12 15 11 20 -3 36 -11 12
-13 21 -7 25 5 4 15 -3 21 -14 8 -16 17 -19 33 -14 19 6 20 5 9 -8 -18 -22 11
-46 33 -28 13 11 12 16 -8 40 -12 15 -28 25 -36 22 -10 -4 -13 -1 -8 11 3 9 2
19 -3 22 -5 3 -11 -3 -13 -12 -3 -11 -5 -8 -6 10 -1 20 -6 27 -20 27 -11 0
-26 2 -33 5 -8 3 -26 -7 -41 -23z m39 -47 c-11 -8 -25 -15 -30 -15 -6 0 -2 7
8 15 11 8 25 15 30 15 6 0 2 -7 -8 -15z"/>
<path d="M3752 5434 c-12 -8 -20 -20 -17 -25 8 -12 16 -11 39 6 29 22 7 40
-22 19z"/>
<path d="M2500 5413 c0 -6 -17 -18 -37 -26 -21 -8 -47 -25 -58 -37 -11 -12
-42 -33 -68 -47 l-48 -24 40 -47 c52 -61 127 -137 185 -186 42 -35 48 -38 64
-24 9 9 27 19 39 22 17 6 23 17 28 61 8 64 3 75 -35 75 -23 0 -27 -3 -23 -20
3 -11 0 -20 -6 -20 -6 0 -11 9 -11 20 0 11 -4 20 -10 20 -5 0 -10 -7 -10 -17
0 -9 -3 -13 -7 -9 -8 8 -7 106 1 114 3 3 1 11 -5 19 -9 10 -8 13 5 13 9 0 16
5 16 10 0 6 4 10 8 10 11 0 11 -33 1 -40 -5 -4 -12 -20 -15 -38 -5 -27 -3 -33
19 -43 37 -17 93 -4 101 24 4 17 -5 33 -44 72 -47 47 -51 49 -80 38 -19 -7
-30 -8 -30 -1 0 5 9 12 20 15 27 7 25 14 -10 48 -16 16 -30 24 -30 18z"/>
<path d="M4168 5357 c-16 -6 -28 -15 -28 -20 0 -11 41 2 60 19 17 16 7 16 -32
1z"/>
<path d="M2841 5244 c-30 -56 -41 -127 -25 -168 9 -24 24 -9 24 23 0 37 35 81
64 81 13 0 30 8 39 18 16 17 14 21 -27 61 l-44 43 -31 -58z"/>
<path d="M2321 5153 c-14 -12 -31 -51 -48 -113 -22 -80 -33 -102 -67 -138 -25
-26 -33 -40 -22 -36 13 5 17 4 12 -4 -4 -7 -2 -12 3 -12 6 0 11 -4 11 -10 0
-5 -13 -7 -30 -3 -23 4 -30 2 -30 -10 0 -9 -5 -19 -12 -23 -8 -5 -9 -2 -5 9
10 26 1 20 -23 -13 -25 -35 -35 -130 -13 -130 6 0 27 -18 44 -40 l32 -40 111
0 c107 0 113 1 156 30 25 16 59 30 75 30 26 0 34 8 62 60 31 58 33 78 11 107
-7 9 -17 7 -41 -8 -19 -11 -50 -19 -77 -19 -41 0 -51 5 -88 43 -32 32 -40 47
-36 65 4 12 13 22 20 22 8 0 14 9 14 20 0 11 4 20 9 20 4 0 24 24 43 53 l35
52 -58 53 c-31 28 -59 52 -62 52 -3 0 -14 -8 -26 -17z m8 -190 c-2 -21 -7 -44
-12 -50 -12 -16 -31 -17 -21 -2 4 7 8 19 9 28 3 23 17 61 21 61 3 0 4 -17 3
-37z m-49 -89 c0 -7 -7 -15 -16 -18 -12 -5 -15 -2 -10 9 3 9 -1 18 -9 21 -8 4
-12 10 -9 15 6 11 44 -12 44 -27z m-40 -50 c0 -8 -4 -12 -10 -9 -5 3 -10 10
-10 16 0 5 5 9 10 9 6 0 10 -7 10 -16z m-76 -60 c4 -10 1 -14 -6 -12 -15 5
-23 28 -10 28 5 0 13 -7 16 -16z m271 6 c-3 -5 -13 -10 -21 -10 -8 0 -12 5 -9
10 3 6 13 10 21 10 8 0 12 -4 9 -10z m140 -9 c-3 -6 -11 -11 -17 -11 -6 0 -6
6 2 15 14 17 26 13 15 -4z m-131 -17 c9 -3 16 -12 16 -19 0 -8 9 -17 21 -20
15 -5 18 -10 10 -18 -11 -11 -22 -3 -60 46 -14 18 -12 21 13 11z m-221 -27 c4
3 7 1 7 -5 0 -7 -9 -12 -20 -12 -11 0 -20 2 -20 4 0 2 -3 13 -7 23 -6 17 -6
17 14 0 11 -9 23 -14 26 -10z m347 12 c0 -4 -13 -9 -30 -11 -20 -3 -30 0 -30
8 0 8 11 12 30 11 16 -1 30 -5 30 -8z m-360 -49 c0 -5 -10 -10 -22 -9 -22 0
-22 1 -3 9 11 5 21 9 23 9 1 1 2 -3 2 -9z m52 -22 c-15 -15 -24 -6 -16 16 5
12 10 14 17 7 8 -8 8 -14 -1 -23z m42 -23 c3 -8 1 -15 -3 -15 -5 0 -17 -3 -26
-6 -15 -6 -15 -4 -4 15 16 25 25 27 33 6z m36 1 c0 -3 -4 -8 -10 -11 -5 -3
-10 -1 -10 4 0 6 5 11 10 11 6 0 10 -2 10 -4z"/>
<path d="M3770 5046 c-6 -8 -33 -29 -59 -45 -38 -25 -58 -31 -103 -31 -45 0
-58 -4 -75 -24 -12 -14 -18 -29 -13 -36 5 -9 9 -9 14 -1 11 18 44 13 48 -8 3
-16 15 -12 98 35 62 35 94 59 92 68 -1 9 6 21 18 28 11 7 20 16 20 20 0 13
-27 9 -40 -6z"/>
<path d="M2450 5005 l-31 -44 54 -36 c30 -20 59 -47 66 -61 9 -20 16 -24 29
-18 9 5 34 8 54 8 32 0 37 3 33 21 -2 11 -4 50 -4 88 -1 62 -3 67 -23 67 -12
0 -32 -10 -44 -21 l-23 -22 -36 32 c-20 17 -38 31 -40 31 -2 0 -18 -20 -35
-45z"/>
<path d="M2395 4920 c-11 -12 -14 -20 -7 -21 7 -1 17 -2 24 -3 16 -1 21 -23 8
-31 -6 -4 -17 1 -25 11 -7 11 -17 16 -21 11 -4 -4 10 -25 31 -47 42 -43 83
-52 117 -26 26 19 5 55 -54 94 -26 18 -49 32 -51 32 -2 0 -12 -9 -22 -20z m76
-53 c-6 -8 -8 -17 -5 -20 4 -3 4 -14 0 -23 -6 -16 -8 -15 -22 5 -9 12 -14 24
-13 25 7 5 44 25 48 26 2 0 -2 -6 -8 -13z m49 -27 c0 -5 -9 -10 -21 -10 -11 0
-17 5 -14 10 3 6 13 10 21 10 8 0 14 -4 14 -10z"/>
<path d="M2619 4821 c9 -6 10 -11 2 -15 -6 -4 -11 -12 -11 -18 0 -6 9 -3 20 7
26 24 25 35 -2 35 -17 0 -19 -3 -9 -9z"/>
</g>
</svg>
