<?xml version="1.0" standalone="no"?>
<!DOCTYPE svg PUBLIC "-//W3C//DTD SVG 20010904//EN"
 "http://www.w3.org/TR/2001/REC-SVG-20010904/DTD/svg10.dtd">
<svg version="1.0" xmlns="http://www.w3.org/2000/svg"
 width="800.000000pt" height="800.000000pt" viewBox="0 0 800.000000 800.000000"
 preserveAspectRatio="xMidYMid meet">
<metadata>
Created by potrace 1.16, written by Peter Selinger 2001-2019
</metadata>
<g transform="translate(0.000000,800.000000) scale(0.100000,-0.100000)"
fill="#000000" stroke="none">
<path d="M0 4000 l0 -4000 1321 0 c891 0 1327 3 1340 10 13 7 19 7 19 0 0 -7
338 -10 1065 -10 940 0 1065 2 1065 15 0 8 5 15 10 15 6 0 10 -7 10 -15 0 -13
183 -15 1585 -15 l1585 0 0 4000 0 4000 -4000 0 -4000 0 0 -4000z m2066 2553
c-4 -4 -11 -1 -16 7 -16 25 -11 35 7 17 9 -9 13 -20 9 -24z m34 -39 c0 -8 -4
-12 -10 -9 -5 3 -10 13 -10 21 0 8 5 12 10 9 6 -3 10 -13 10 -21z m105 -4 c-3
-5 -11 -10 -16 -10 -6 0 -7 5 -4 10 3 6 11 10 16 10 6 0 7 -4 4 -10z m-57 -40
c-9 -14 -16 -16 -25 -8 -19 16 -16 23 12 26 22 2 24 0 13 -18z m28 -57 c-7 -7
-26 7 -26 19 0 6 6 6 15 -2 9 -7 13 -15 11 -17z m29 -34 c11 -17 -1 -21 -15
-4 -8 9 -8 15 -2 15 6 0 14 -5 17 -11z m1815 -229 c0 -5 -8 -10 -18 -10 -10 0
-27 -7 -39 -15 -14 -10 -24 -12 -28 -5 -4 6 9 17 27 25 39 17 58 19 58 5z
m-320 -179 c-1 -13 -4 -12 -15 3 -8 11 -15 27 -15 35 1 13 4 12 15 -3 8 -11
15 -27 15 -35z m207 1 c-32 -13 -57 -10 -57 7 0 5 9 7 19 4 11 -3 27 3 38 14
16 16 19 17 24 3 4 -10 -3 -19 -24 -28z m3776 -22 c3 -11 1 -20 -4 -20 -5 0
-9 2 -9 4 0 2 -3 11 -6 20 -3 9 -2 16 4 16 5 0 12 -9 15 -20z m-3739 -17 c-26
-19 -36 -16 -22 6 6 11 18 17 26 13 12 -4 12 -8 -4 -19z m-84 -68 c12 -38 32
-90 45 -115 12 -25 28 -63 35 -85 6 -22 28 -84 47 -137 36 -97 36 -98 69 -98
41 0 64 22 64 63 0 29 4 33 46 47 30 10 52 25 62 42 19 31 9 47 -17 31 -19
-12 -31 -8 -31 10 0 5 16 7 35 5 38 -4 38 -4 35 63 -1 36 0 37 49 50 28 7 51
15 50 18 0 3 -10 27 -22 53 l-22 47 -140 -58 c-77 -31 -159 -65 -182 -74 l-43
-17 0 29 c0 22 6 30 25 35 14 4 25 11 25 17 0 21 26 35 67 35 31 -1 48 5 63
22 25 27 50 29 50 3 0 -15 -12 -22 -52 -31 -29 -7 -55 -16 -58 -20 -3 -3 -16
-14 -30 -24 -32 -23 -29 -22 135 44 139 56 139 56 120 103 -4 10 -3 17 4 17 6
0 14 -12 17 -26 6 -22 11 -25 35 -20 16 3 29 1 29 -4 0 -6 -6 -10 -14 -10 -24
0 -28 -18 -14 -56 11 -32 15 -35 42 -30 15 3 37 6 47 6 15 0 17 5 13 29 -4 17
-1 32 6 36 17 10 32 -16 18 -32 -15 -19 -3 -27 20 -14 25 13 82 15 82 2 0 -5
-19 -11 -42 -14 -24 -3 -70 -12 -103 -20 -72 -17 -71 -8 -11 -170 24 -65 40
-119 36 -122 -4 -2 -22 37 -40 88 -60 166 -53 157 -100 145 -37 -10 -40 -13
-40 -44 0 -24 5 -34 15 -34 8 0 15 -5 15 -10 0 -6 -7 -10 -16 -8 -9 2 -20 -7
-25 -20 -8 -20 -6 -22 18 -16 18 5 24 4 19 -5 -4 -6 -13 -11 -21 -11 -7 0 -15
-7 -19 -15 -3 -8 -12 -15 -19 -15 -20 0 -41 -26 -27 -35 5 -3 10 -11 10 -17 0
-6 -8 -4 -18 5 -10 10 -29 17 -41 17 -20 0 -23 -4 -19 -30 3 -18 0 -31 -9 -34
-7 -3 -13 -12 -13 -19 0 -9 -15 -17 -40 -21 -26 -4 -40 -11 -40 -21 0 -20 1
-20 86 13 67 25 73 29 67 51 -4 17 -2 22 6 17 6 -4 11 -14 11 -21 0 -9 6 -12
15 -9 8 4 15 1 15 -5 0 -6 -4 -11 -10 -11 -15 0 -12 -33 5 -56 19 -25 19 -30
-2 -38 -10 -3 -24 -9 -32 -12 -9 -5 -11 -1 -7 14 4 11 2 23 -4 27 -7 4 -5 12
5 21 13 13 21 34 13 34 -8 0 -149 -57 -153 -62 -3 -3 0 -18 6 -34 28 -71 28
-82 6 -97 -31 -20 -85 -4 -97 29 -6 14 -14 23 -19 20 -5 -3 -12 5 -15 19 -6
23 -7 24 -41 9 -19 -7 -48 -14 -65 -14 -20 0 -29 -4 -24 -11 4 -8 0 -9 -15 -4
-12 4 -21 2 -21 -4 0 -6 -5 -11 -11 -11 -6 0 -8 9 -4 21 5 16 3 20 -6 17 -17
-6 -16 -68 1 -78 9 -5 9 -9 1 -14 -22 -14 0 -25 30 -14 43 15 49 1 6 -17 -19
-8 -38 -20 -41 -27 -5 -10 -7 -10 -12 0 -7 14 -54 16 -54 2 0 -6 -11 -3 -26 6
-24 16 -25 16 -31 -4 -3 -12 -9 -19 -14 -16 -5 3 -9 -1 -9 -8 -1 -8 -6 -6 -15
6 -8 10 -12 23 -9 27 3 5 -5 8 -17 6 -12 -1 -24 4 -26 11 -4 9 2 11 21 6 26
-6 26 -6 26 59 0 35 -7 84 -15 107 -16 44 -20 89 -8 76 16 -15 43 -124 43
-173 0 -51 13 -77 24 -48 6 18 67 9 79 -12 12 -19 29 -16 23 5 -3 9 -6 34 -8
55 -1 21 -8 43 -15 49 -19 15 -16 23 13 37 28 12 48 6 25 -8 -9 -6 -3 -12 20
-20 40 -14 67 -14 108 0 25 9 30 15 25 31 -4 13 -2 18 4 14 5 -3 12 1 15 8 3
8 26 23 51 34 l45 20 -11 36 c-13 40 -28 48 -29 14 0 -22 -1 -22 -8 -3 -5 11
-4 29 1 40 6 14 2 38 -15 83 l-23 62 -25 -27 c-26 -29 -41 -113 -20 -113 5 0
9 -8 9 -17 -1 -10 2 -28 6 -40 12 -37 -9 -26 -22 11 -13 36 -52 57 -52 28 -1
-16 -1 -15 -11 0 -5 9 -16 15 -24 12 -10 -4 -13 3 -13 25 1 18 6 31 14 31 7 0
15 6 17 13 8 19 26 -11 20 -34 -4 -13 0 -19 12 -19 15 0 17 7 13 45 -4 31 -2
45 6 45 7 0 25 14 41 30 22 23 26 33 17 42 -9 9 -91 -20 -355 -125 -189 -76
-360 -149 -380 -162 -19 -14 -43 -22 -51 -19 -14 5 -14 1 1 -40 10 -25 22 -46
28 -46 16 0 31 13 39 35 l8 20 8 -20 c6 -16 2 -22 -16 -28 -35 -12 -37 -38
-10 -109 13 -34 39 -105 57 -155 17 -51 33 -93 35 -93 2 0 38 14 80 30 42 17
79 29 81 26 11 -11 -11 -26 -70 -45 -34 -12 -67 -25 -73 -29 -8 -5 3 -44 35
-127 26 -66 53 -141 60 -168 8 -26 18 -47 23 -47 5 0 6 -4 3 -10 -9 -15 -4
-13 71 20 37 17 72 29 78 27 6 -3 -28 -23 -76 -45 -80 -38 -87 -43 -97 -79
-14 -50 -14 -53 4 -47 10 4 15 20 15 45 0 30 4 39 18 39 64 1 276 30 285 39 6
6 17 11 24 11 11 0 11 -4 1 -20 -7 -11 -21 -20 -30 -20 -10 0 -17 -3 -17 -7 3
-18 -4 -20 -48 -12 -101 19 -247 -11 -214 -44 17 -17 13 -25 -21 -43 -38 -19
-50 -34 -43 -52 3 -7 0 -10 -5 -7 -6 4 -10 -5 -10 -20 0 -14 3 -24 8 -22 4 3
5 -29 4 -70 -3 -55 1 -86 13 -113 l16 -37 132 18 c148 20 200 23 177 10 -8 -5
-73 -16 -145 -25 -71 -10 -139 -19 -151 -22 -17 -5 -24 3 -42 47 -13 29 -22
74 -22 103 -1 48 -2 50 -16 31 -8 -11 -18 -20 -22 -20 -12 -1 -70 -34 -74 -42
-7 -16 -105 -43 -155 -43 -49 0 -70 -12 -40 -23 9 -3 9 -9 2 -22 -15 -25 -28
-22 -45 11 -17 33 -34 48 -38 34 -6 -17 -66 -11 -97 10 -16 11 -40 20 -53 20
-13 0 -20 4 -17 10 3 6 15 10 26 10 26 0 24 15 -5 28 -19 8 -27 7 -44 -10 -20
-20 -21 -20 -66 -3 -25 10 -46 22 -46 26 0 12 3 11 49 -7 38 -15 40 -15 60 5
l20 20 73 -39 c89 -48 121 -56 221 -53 68 2 83 6 131 35 30 18 57 42 60 53 3
10 8 16 12 12 11 -11 34 13 34 35 0 10 11 41 25 68 26 51 33 86 15 75 -15 -9
-12 4 8 33 40 58 37 106 -7 124 -21 9 -23 12 -8 15 16 4 23 24 12 35 -3 3 -92
-29 -198 -72 -106 -42 -236 -94 -289 -114 -54 -21 -98 -41 -98 -46 0 -4 9 -36
19 -69 25 -82 8 -79 -19 3 l-21 64 -70 -28 c-38 -16 -96 -32 -129 -36 l-60 -7
-21 -59 c-12 -32 -26 -61 -31 -64 -15 -9 -23 5 -11 17 6 6 9 18 6 27 -4 9 -2
13 4 9 5 -3 15 9 20 28 8 24 8 34 0 32 -6 -1 -14 18 -19 43 -10 48 -46 90 -77
90 -20 0 -31 -26 -31 -77 0 -18 -4 -33 -10 -33 -5 0 -10 15 -10 33 0 18 -5 38
-12 45 -9 9 -9 12 0 12 17 0 36 40 24 52 -7 7 -20 3 -41 -11 -26 -19 -29 -25
-21 -47 14 -36 13 -51 -2 -36 -6 6 -12 34 -14 62 -2 47 -1 50 20 44 14 -3 27
1 35 10 19 23 28 20 40 -14 5 -16 17 -30 26 -30 9 0 29 -7 45 -15 21 -11 30
-24 35 -55 4 -22 10 -42 14 -44 4 -3 37 -1 74 4 45 5 124 31 237 76 154 61
170 70 164 88 -31 99 -71 192 -90 209 -13 11 -24 25 -24 31 0 6 7 2 15 -8 19
-25 19 -5 1 39 -8 19 -22 35 -30 35 -18 0 -21 -16 -6 -25 15 -9 12 -25 -6 -25
-8 0 -12 4 -9 10 3 5 -4 20 -15 32 -12 13 -44 60 -71 105 -28 45 -55 85 -60
89 -14 8 -60 115 -56 128 2 6 18 -18 35 -54 20 -42 29 -54 26 -35 -5 29 -5 29
10 11 9 -11 16 -23 16 -28 0 -4 12 -3 26 3 38 14 41 3 5 -16 -36 -18 -37 -14
33 -125 27 -44 42 -59 44 -47 4 19 22 24 22 5 0 -6 2 -9 5 -6 5 5 -82 254
-119 342 -18 44 -14 60 9 30 9 -12 18 -15 22 -9 5 6 19 11 33 13 14 1 67 19
119 39 l93 37 -63 22 c-40 13 -79 19 -104 17 -30 -4 -36 -2 -25 6 23 16 67 13
141 -11 58 -18 73 -20 106 -10 73 23 72 19 20 149 -26 65 -47 124 -47 131 0
15 20 16 20 1 0 -6 8 -8 19 -4 12 3 21 0 24 -9 4 -10 1 -13 -7 -10 -29 11 -25
-19 16 -119 l42 -104 27 10 c31 12 48 48 20 40 -14 -3 -16 2 -13 36 4 40 5 41
43 41 21 0 39 -4 39 -10 0 -5 -13 -10 -30 -10 -16 0 -30 -4 -30 -8 0 -14 25
-62 32 -62 7 0 84 30 313 124 89 36 109 48 107 63 -2 10 -8 20 -13 21 -5 2 -9
10 -9 18 0 8 -13 32 -28 53 -23 31 -32 37 -46 29 -15 -8 -16 -6 -10 19 4 15
10 30 14 33 4 3 10 14 12 25 3 14 7 10 12 -17 5 -21 12 -38 18 -38 5 0 6 -5 2
-11 -10 -17 18 -30 35 -16 12 10 14 9 8 -7 -8 -20 19 -116 32 -116 12 0 245
92 254 100 5 4 -1 26 -12 49 -19 37 -25 41 -59 42 l-37 1 35 14 35 14 -43 -4
c-39 -4 -43 -2 -39 15 7 26 -20 39 -77 39 -27 0 -46 5 -46 11 0 7 -10 9 -25 7
-28 -6 -34 6 -9 16 27 10 44 7 44 -9 0 -11 13 -15 54 -15 44 0 58 -4 70 -21
17 -25 62 -18 52 8 -3 8 -6 19 -6 25 0 6 -7 8 -15 4 -8 -3 -15 -1 -15 4 0 6 5
10 10 10 6 0 10 8 10 17 0 30 17 0 40 -72z m215 56 l20 -24 -22 7 c-16 5 -23
3 -24 -6 0 -7 -5 -2 -10 11 -7 18 -6 27 3 32 7 4 13 7 13 6 0 -1 9 -13 20 -26z
m897 -58 c4 -74 3 -92 -6 -82 -9 10 -17 159 -8 159 5 0 12 -35 14 -77z m2674
52 c-11 -8 -22 -12 -25 -9 -6 6 19 24 34 24 6 -1 1 -7 -9 -15z m-56 -25 c-24
-15 -37 -11 -16 5 11 8 22 12 25 9 3 -3 -1 -9 -9 -14z m-3616 -9 c3 -4 -6 -19
-19 -31 -25 -24 -36 -15 -12 9 10 11 6 13 -20 9 -32 -4 -41 1 -26 15 9 10 71
9 77 -2z m1146 -31 c0 -5 -4 -10 -10 -10 -5 0 -10 5 -10 10 0 6 5 10 10 10 6
0 10 -4 10 -10z m-1776 -34 c42 27 39 11 -4 -28 -21 -20 -41 -34 -44 -30 -3 3
-6 21 -6 41 1 33 2 34 14 18 14 -18 16 -18 40 -1z m384 -47 l-23 -19 28 0 c15
0 27 -4 27 -10 0 -5 -10 -10 -23 -10 -13 0 -29 -6 -36 -12 -11 -11 -12 -9 -6
10 4 16 2 22 -8 22 -10 0 -13 7 -11 18 4 12 16 17 41 18 l35 1 -24 -18z m505
-62 c-3 -5 -10 -4 -15 1 -6 6 -7 16 -3 22 6 9 9 9 16 -1 4 -7 5 -17 2 -22z
m-961 -9 c-6 -6 -15 -8 -19 -4 -4 4 -1 11 7 16 19 12 27 3 12 -12z m201 -50
c19 -59 14 -78 -7 -27 -22 55 -28 79 -19 79 5 0 17 -23 26 -52z m-219 33 c3
-5 -1 -12 -10 -15 -20 -8 -29 -1 -19 13 8 13 22 14 29 2z m89 -43 c-4 -21 -3
-22 10 -5 8 9 20 17 27 17 9 0 10 -3 1 -14 -6 -8 -11 -18 -10 -22 3 -14 -12
-44 -22 -44 -5 0 -9 7 -9 16 0 14 -3 14 -15 4 -9 -8 -15 -9 -15 -2 0 6 5 14
11 17 7 5 5 13 -6 25 -17 19 -14 22 27 29 3 0 4 -9 1 -21z m752 -27 c5 -41 10
-49 23 -44 10 4 6 -5 -10 -22 -16 -15 -28 -32 -28 -38 0 -6 -7 -2 -15 9 -8 10
-14 26 -14 34 0 11 3 10 15 -5 13 -18 14 -14 11 48 -4 78 8 90 18 18z m750 40
c7 -12 -9 -22 -41 -26 -30 -3 -31 8 -1 23 28 14 35 14 42 3z m-685 -41 c0 -5
-10 -10 -22 -10 -19 0 -20 2 -8 10 19 13 30 13 30 0z m20 -30 c0 -5 -9 -10
-20 -10 -11 0 -20 5 -20 10 0 6 9 10 20 10 11 0 20 -4 20 -10z m1058 -25 c0
-13 -4 -22 -9 -19 -5 3 -9 14 -9 25 0 10 4 19 9 19 5 0 9 -11 9 -25z m72 -7
c0 -19 -2 -20 -10 -8 -13 19 -13 30 0 30 6 0 10 -10 10 -22z m-2403 -7 c10
-16 9 -20 -13 -24 -20 -3 -24 0 -24 19 0 29 21 31 37 5z m2383 -23 c0 -11 -28
-10 -35 1 -3 6 4 9 15 8 11 -1 20 -5 20 -9z m-620 -105 c21 -56 31 -71 59 -85
32 -16 39 -28 83 -150 54 -149 51 -138 39 -138 -5 0 -23 39 -40 88 -46 127
-35 121 -142 79 -51 -20 -95 -34 -98 -32 -8 9 6 16 96 50 50 19 89 39 91 48 2
9 -15 25 -43 41 l-46 25 -84 -34 c-91 -38 -95 -39 -95 -27 0 4 37 23 83 41 85
35 124 59 76 47 -20 -4 -28 -2 -32 12 -2 9 -8 26 -13 36 -6 16 -4 18 19 14 23
-4 25 -3 17 13 -12 21 -13 39 -2 39 4 0 19 -30 32 -67z m-997 17 c6 -24 6 -24
-27 -7 -27 15 -25 27 5 27 9 0 19 -9 22 -20z m1270 -22 c3 -18 9 -42 13 -53 6
-17 4 -16 -18 5 -39 39 -42 75 -7 79 4 1 9 -14 12 -31z m-1093 5 c0 -11 -170
-77 -177 -69 -9 9 -7 10 82 44 86 34 95 36 95 25z m-362 -29 c-9 -9 -27 -14
-44 -12 -29 4 -29 4 -6 14 13 5 33 11 44 11 19 2 20 0 6 -13z m-111 -20 c0 -8
-5 -14 -10 -14 -5 0 -3 -7 4 -17 13 -15 12 -15 -7 -5 -12 6 -26 7 -35 1 -21
-13 -36 -11 -36 6 0 10 10 15 31 15 23 0 27 3 18 12 -18 18 -14 26 11 21 13
-3 24 -11 24 -19z m949 -53 c15 -25 22 -29 46 -24 21 4 28 2 28 -11 0 -9 -6
-16 -12 -17 -7 0 -4 -4 7 -8 18 -7 17 -10 -13 -25 -18 -10 -41 -15 -50 -13
-14 4 -13 6 6 12 13 4 22 15 22 27 0 10 -4 17 -9 13 -5 -3 -18 7 -29 22 -30
44 -34 53 -23 53 5 0 18 -13 27 -29z m-1056 -1 c-8 -5 -22 -10 -30 -10 -13 0
-13 1 0 10 8 5 22 10 30 10 13 0 13 -1 0 -10z m400 0 c12 -8 12 -12 2 -18 -7
-5 -10 -16 -6 -25 3 -10 1 -17 -5 -17 -6 0 -11 6 -11 13 0 6 -3 22 -6 35 -7
24 2 28 26 12z m-116 -26 c9 -22 -3 -32 -14 -14 -12 19 -12 30 -1 30 5 0 12
-7 15 -16z m342 -21 c-4 -9 -1 -20 6 -24 9 -6 8 -10 -5 -15 -12 -4 -23 0 -32
12 -12 16 -12 19 1 22 8 2 14 8 14 13 0 5 5 9 11 9 6 0 8 -7 5 -17z m-486 -43
c0 -5 -4 -10 -10 -10 -5 0 -10 5 -10 10 0 6 5 10 10 10 6 0 10 -4 10 -10z
m-80 -21 c0 -5 5 -7 10 -4 6 3 11 -4 11 -17 1 -20 2 -21 6 -3 9 39 21 36 25
-5 2 -23 0 -44 -4 -46 -4 -3 -8 0 -8 6 0 8 -9 10 -23 6 -20 -5 -23 -2 -22 22
0 20 -4 26 -17 24 -20 -3 -24 14 -5 21 20 9 27 8 27 -4z m807 -65 c-3 -3 -12
-4 -19 -1 -8 3 -5 6 6 6 11 1 17 -2 13 -5z m1183 -14 c0 -6 11 -8 28 -4 l27 7
-29 -27 c-15 -15 -29 -26 -31 -24 -9 12 -14 58 -5 58 5 0 10 -5 10 -10z
m-1797 -34 c-3 -16 -10 -23 -19 -19 -24 9 -15 43 11 43 8 0 10 -10 8 -24z
m191 -3 c-31 -33 -27 -57 9 -61 15 -2 27 -8 27 -13 0 -19 30 -8 46 16 19 29
40 34 24 6 -10 -21 6 -65 32 -83 10 -8 10 -11 1 -15 -20 -8 -15 -48 11 -96 19
-34 23 -52 19 -85 -4 -30 -2 -42 7 -42 7 0 10 -7 6 -16 -6 -15 -4 -15 20 1 14
9 29 14 32 10 4 -3 0 -10 -7 -14 -11 -7 -11 -15 -2 -41 13 -40 13 -40 1 -40
-5 0 -12 11 -16 25 -10 40 -20 29 -20 -21 0 -43 1 -45 26 -41 18 4 30 -1 45
-19 18 -23 23 -23 53 -12 29 11 33 10 48 -10 9 -13 23 -22 32 -21 10 1 24 0
32 -4 31 -11 109 -16 115 -7 3 6 22 10 40 10 25 0 33 4 29 14 -3 9 5 16 23 21
15 3 31 12 35 18 4 7 11 1 17 -16 14 -37 57 -38 71 -2 5 14 17 25 26 25 16 0
16 -1 1 -18 -24 -27 -21 -32 18 -32 31 0 35 3 35 27 0 33 12 22 26 -25 9 -27
12 -31 13 -14 1 30 21 28 21 -3 0 -15 10 -31 25 -41 22 -14 30 -15 50 -4 19
10 24 20 22 44 -2 29 0 31 31 29 39 -1 52 -11 33 -22 -22 -14 45 -26 124 -22
39 2 74 7 80 12 5 5 24 9 42 9 29 0 33 3 39 38 4 20 11 45 16 54 14 28 -1 71
-23 65 -21 -6 -25 3 -8 20 7 7 -2 12 -31 17 -47 7 -75 32 -85 74 -7 34 -35 52
-35 24 -1 -16 -1 -16 -14 1 -7 9 -18 17 -25 17 -6 0 -11 6 -11 14 0 8 -13 23
-30 33 -16 9 -30 21 -30 26 0 4 -5 5 -11 1 -6 -3 -15 0 -20 7 -14 22 -11 29
11 29 17 0 20 7 20 41 l0 42 25 -27 c21 -23 30 -49 27 -77 -2 -14 64 -64 80
-61 13 2 16 -1 12 -12 -3 -9 -1 -16 5 -16 6 0 11 -7 11 -15 0 -8 5 -15 12 -15
6 0 8 -3 5 -7 -12 -11 15 -33 40 -33 14 0 22 -4 18 -10 -4 -6 -15 -8 -26 -5
-11 4 -19 2 -19 -4 0 -6 20 -11 45 -11 43 0 45 -1 64 -45 15 -34 18 -52 11
-70 -7 -19 -6 -23 5 -18 8 3 15 1 15 -5 0 -5 -7 -13 -15 -16 -9 -3 -21 -19
-26 -36 -9 -23 -18 -31 -47 -36 -42 -8 -64 -22 -56 -36 3 -5 12 -1 20 9 14 17
15 17 12 -2 -4 -24 -48 -35 -48 -12 0 12 -12 15 -53 15 -28 0 -70 2 -92 6 -40
7 -61 1 -115 -29 -23 -13 -30 -12 -88 20 -37 21 -76 35 -95 34 -27 0 -29 -2
-12 -9 18 -8 17 -9 -7 -9 -16 -1 -28 3 -28 8 0 5 -13 12 -30 16 -16 4 -34 13
-38 21 -12 22 -46 4 -50 -25 -3 -33 -11 -39 -23 -18 -12 21 -27 22 -51 0 -14
-12 -23 -14 -41 -6 -12 5 -50 9 -85 8 -58 -2 -64 0 -73 21 -4 13 -13 24 -19
24 -9 0 -47 -16 -57 -25 -2 -1 24 -73 56 -161 l59 -159 76 2 c42 1 76 -3 76
-8 0 -5 -20 -9 -44 -9 -71 0 -107 -10 -102 -29 3 -9 10 -42 16 -73 10 -52 13
-57 30 -48 21 11 37 13 27 4 -3 -4 -2 -15 4 -26 9 -16 7 -18 -15 -12 -24 6
-24 6 -11 -33 16 -43 19 -87 6 -79 -4 3 -11 19 -14 34 -6 27 -10 29 -68 36
-34 3 -78 6 -98 7 -29 0 -32 2 -16 9 30 13 83 12 105 -2 17 -11 22 -10 29 1 5
7 14 10 21 6 9 -5 10 -3 2 11 -5 11 -15 54 -22 97 -7 43 -17 80 -21 83 -5 3
-65 2 -135 -2 -116 -7 -125 -8 -121 -26 4 -15 1 -18 -16 -12 -22 7 -37 22 -37
37 0 12 18 8 23 -5 3 -10 8 -10 21 1 11 9 57 16 137 21 65 4 121 9 123 11 3 2
-24 81 -59 174 -47 126 -67 169 -78 167 -9 -1 -18 2 -21 7 -3 5 -15 7 -26 4
-18 -5 -19 -2 -14 26 4 20 2 31 -4 31 -6 0 -9 7 -6 15 10 24 -46 19 -73 -7
-25 -24 -44 -18 -23 8 30 35 20 51 -33 57 -54 5 -67 17 -67 63 0 17 -13 61
-30 97 -16 37 -30 74 -30 83 0 9 -6 14 -13 11 -6 -2 -18 1 -24 8 -10 11 -8 19
8 40 12 14 19 34 16 45 -3 11 1 24 8 30 18 15 45 1 45 -24 -1 -20 -1 -20 -14
-3 -13 16 -14 16 -20 -8 -8 -32 -1 -45 24 -45 14 0 18 5 13 16 -4 11 -2 15 7
12 14 -4 21 -58 8 -58 -4 0 -8 4 -8 9 0 5 -9 7 -20 4 -24 -6 -20 -29 21 -122
16 -35 29 -81 29 -102 l0 -39 81 0 c79 0 80 0 73 23 -12 36 -13 81 -2 88 6 4
-2 20 -21 39 -32 34 -39 50 -21 50 15 0 12 76 -3 89 -8 6 -17 8 -20 4 -4 -3
-12 -1 -19 5 -7 5 -29 14 -48 19 -28 7 -36 15 -38 37 -4 31 21 76 43 76 10 0
6 -9 -11 -27z m762 3 c10 -21 9 -25 -9 -30 -23 -6 -40 4 -19 11 6 3 12 9 12
15 0 6 -7 8 -15 4 -15 -5 -20 5 -8 17 13 13 28 6 39 -17z m-796 5 c0 -5 -7
-14 -15 -21 -12 -10 -15 -10 -15 2 0 8 3 18 7 21 9 10 23 9 23 -2z m-47 -15
c4 -9 -3 -16 -20 -21 -30 -7 -38 -2 -30 20 8 19 43 20 50 1z m777 -120 c14
-45 29 -76 37 -76 18 0 17 -17 -2 -24 -8 -3 -15 -12 -15 -20 0 -7 -7 -16 -15
-20 -11 -4 -15 1 -15 19 0 14 5 25 12 25 6 0 9 2 6 5 -3 3 -16 1 -29 -4 -13
-5 -18 -10 -11 -10 30 -2 -4 -20 -110 -61 -62 -23 -117 -47 -123 -52 -5 -5 14
0 43 11 60 24 62 24 62 12 0 -5 -22 -17 -49 -27 -46 -16 -49 -19 -40 -41 5
-14 9 -31 9 -39 0 -25 -18 -6 -25 25 l-6 30 -41 -15 c-48 -17 -48 -17 -48 -4
0 5 18 14 41 20 23 6 39 14 36 17 -4 3 -20 0 -38 -6 -39 -13 -52 -14 -44 -2 3
5 19 12 35 16 16 4 32 10 35 15 3 4 -4 6 -15 3 -11 -3 -20 -2 -20 1 0 8 9 11
190 81 69 26 128 51 133 55 4 3 -2 33 -13 65 -21 61 -25 89 -12 81 4 -3 19
-39 32 -80z m136 70 c26 -19 14 -28 -24 -17 -17 5 -32 5 -34 1 -2 -5 -19 -5
-38 -1 l-35 8 45 10 c62 15 64 15 86 -1z m-266 -51 c-7 -9 -19 -14 -27 -11 -7
3 -13 0 -13 -7 0 -7 -11 -17 -24 -23 -20 -9 -26 -9 -31 4 -8 21 3 30 56 45 50
16 57 14 39 -8z m977 10 c12 -12 18 -13 29 -4 8 7 18 8 22 4 4 -4 1 -10 -5
-12 -7 -3 -13 -11 -13 -19 0 -8 -3 -14 -7 -14 -13 1 -53 38 -53 49 0 15 9 14
27 -4z m-1808 -72 c14 -11 13 -15 -5 -12 -4 0 -10 -5 -15 -12 -13 -22 -21 -3
-13 33 4 20 9 27 12 18 3 -8 12 -20 21 -27z m577 -2 c-4 -5 0 -12 6 -14 7 -3
-4 -6 -24 -6 -60 -1 -50 17 15 28 5 0 6 -3 3 -8z m1134 -49 c0 -8 -89 -42
-111 -42 -22 0 0 14 49 32 55 19 62 21 62 10z m360 -45 c0 -4 -6 -5 -12 0 -7
4 -20 6 -30 5 -9 -2 -19 2 -23 8 -3 6 3 10 14 10 12 0 21 6 21 13 1 13 30 -21
30 -36z m-187 7 c-4 -12 0 -14 23 -8 16 4 26 3 22 -1 -4 -5 -3 -14 3 -22 9
-10 8 -13 -4 -13 -9 0 -19 5 -22 10 -3 6 -15 10 -26 10 -20 0 -23 8 -13 34 3
9 10 14 15 11 4 -3 6 -12 2 -21z m-1317 -69 c-18 -9 -23 -7 -33 18 -18 40 -16
55 5 59 12 2 22 -8 33 -32 15 -33 14 -35 -5 -45z m1157 68 c3 -10 17 -48 31
-85 14 -38 22 -68 17 -68 -8 0 -71 145 -71 163 0 14 18 7 23 -10z m1607 -13
c0 -11 -4 -20 -10 -20 -5 0 -10 9 -10 20 0 11 5 20 10 20 6 0 10 -9 10 -20z
m-2424 -15 c-23 -17 -36 -19 -36 -6 0 11 18 19 40 20 11 0 10 -3 -4 -14z
m1184 -5 c0 -5 -4 -10 -10 -10 -5 0 -10 5 -10 10 0 6 5 10 10 10 6 0 10 -4 10
-10z m-1760 -36 c0 -8 -7 -14 -15 -14 -9 0 -18 -7 -21 -15 -10 -25 -24 -17
-24 13 0 23 4 27 30 28 19 1 30 -4 30 -12z m3109 -36 c19 2 31 0 31 -7 0 -6
-9 -11 -20 -11 -11 0 -20 -5 -20 -12 0 -9 -3 -9 -12 0 -9 9 -15 7 -25 -6 -13
-15 -14 -15 -9 0 5 17 -20 34 -26 18 -2 -6 -9 -6 -17 0 -12 7 -9 10 12 15 15
4 27 14 27 23 0 13 3 12 14 -4 11 -15 23 -20 45 -16z m-4119 10 c8 3 1 -7 -16
-21 -37 -32 -55 -36 -29 -7 10 11 13 20 7 20 -7 0 -12 5 -12 10 0 7 6 7 18 2
9 -5 24 -7 32 -4z m1740 -16 c0 -5 -16 -16 -35 -25 -39 -19 -47 -7 -13 17 24
17 48 21 48 8z m220 -11 c0 -10 -100 -51 -122 -51 -22 0 6 18 57 38 60 24 65
25 65 13z m-1240 -31 c0 -5 -4 -10 -10 -10 -5 0 -10 5 -10 10 0 6 5 10 10 10
6 0 10 -4 10 -10z m-50 -20 c16 -11 35 -17 44 -14 14 6 17 1 16 -23 -2 -22
-98 26 -99 50 -1 12 9 8 39 -13z m1497 -15 c10 -31 9 -37 -10 -50 -31 -22 -46
-18 -19 4 19 16 21 23 12 46 -12 32 -12 35 -2 35 5 0 13 -16 19 -35z m2053 26
c0 -8 -147 -41 -184 -41 -40 0 -1 16 77 31 102 21 107 21 107 10z m-3670 -21
c0 -5 -4 -10 -10 -10 -5 0 -10 5 -10 10 0 6 5 10 10 10 6 0 10 -4 10 -10z
m879 -52 c19 -51 22 -68 13 -68 -10 0 -32 52 -32 76 0 21 10 17 19 -8z m-1014
-15 c-4 -10 -10 -28 -12 -40 -6 -28 -4 -28 -49 -1 -38 22 -33 39 5 18 18 -9
23 -7 33 15 12 28 34 35 23 8z m-365 -25 c0 -13 58 -9 63 5 3 7 6 5 6 -5 1
-15 -8 -18 -50 -18 -28 0 -48 4 -44 9 3 5 1 12 -5 16 -5 3 -10 10 -10 16 0 5
9 4 20 -3 11 -7 20 -16 20 -20z m2108 6 c49 -6 83 -24 46 -24 -41 0 -144 23
-144 32 0 6 10 8 23 5 12 -3 46 -9 75 -13z m-1929 -114 c6 -22 16 -40 21 -40
5 0 7 -7 4 -15 -9 -23 -19 -18 -31 18 -21 61 -24 77 -15 77 5 0 14 -18 21 -40z
m1549 -3 c-20 -36 -28 -42 -61 -45 -21 -2 -35 -7 -32 -13 4 -5 2 -9 -4 -9 -5
0 -11 5 -13 11 -2 7 -12 7 -32 -1 -27 -10 -46 -7 -33 6 8 9 78 23 113 24 23 0
34 6 43 26 6 14 9 29 7 33 -3 4 4 8 15 8 19 2 19 0 -3 -40z m-628 23 c0 -5
-10 -10 -22 -10 -13 0 -40 -3 -60 -6 -24 -4 -38 -3 -38 4 0 10 30 17 93 20 15
1 27 -2 27 -8z m866 -14 c10 -8 15 -18 11 -22 -4 -5 -11 -4 -15 1 -4 6 -13 10
-21 10 -8 0 -16 6 -18 13 -6 16 19 15 43 -2z m-846 -15 c-24 -13 -140 -23
-140 -12 0 10 38 17 110 19 29 1 40 -2 30 -7z m713 -2 c19 -9 27 -23 36 -67
13 -66 14 -82 3 -82 -5 0 -14 27 -20 60 -7 42 -18 67 -34 80 -26 22 -20 25 15
9z m-2525 -70 c1 -29 -11 -38 -23 -19 -5 8 -11 7 -21 -1 -21 -17 -27 -6 -13
23 7 16 19 26 34 26 17 0 22 -6 23 -29z m2358 -37 c-9 -8 -26 10 -26 26 1 15
2 15 15 -2 8 -11 13 -21 11 -24z m-1011 -16 c-2 -13 1 -29 5 -36 4 -7 1 -25
-9 -41 -17 -31 -38 -40 -26 -11 5 9 10 33 13 52 l5 35 -22 -19 c-28 -25 -27
-9 1 21 27 29 36 29 33 -1z m1048 -8 l17 -28 -32 0 c-25 0 -29 3 -20 12 7 7
12 21 12 32 0 10 1 17 3 15 2 -2 11 -16 20 -31z m475 -3 c-8 -8 -190 -36 -196
-30 -9 9 4 15 49 24 49 10 155 14 147 6z m36 -55 c-4 -19 -2 -30 5 -30 6 0 11
-4 11 -10 0 -12 -10 -13 -28 -2 -13 9 -6 72 9 72 5 0 6 -13 3 -30z m-324 11
c0 -4 -36 -16 -81 -26 -44 -9 -96 -21 -116 -27 l-36 -10 49 -26 c49 -27 65
-55 45 -75 -8 -8 -11 -4 -11 14 0 18 -10 30 -45 48 -25 13 -45 27 -45 31 0 4
-12 5 -27 2 -16 -2 -25 -1 -21 3 6 6 255 73 281 74 4 1 7 -3 7 -8z m-320 -21
c0 -5 -9 -10 -21 -10 -11 0 -17 5 -14 10 3 6 13 10 21 10 8 0 14 -4 14 -10z
m-560 -29 c0 -8 -79 -21 -134 -21 -49 0 -16 18 39 23 28 2 60 4 73 5 12 1 22
-2 22 -7z m550 -7 c0 -2 -7 -4 -15 -4 -8 0 -15 4 -15 10 0 5 7 7 15 4 8 -4 15
-8 15 -10z m340 -18 c0 -13 11 -40 25 -60 26 -38 47 -125 28 -113 -6 4 -13 23
-16 43 -4 20 -15 46 -26 58 -23 25 -39 96 -22 96 6 0 11 -11 11 -24z m-2100
-15 c0 -3 -20 -6 -45 -7 -53 -1 -58 8 -12 22 30 9 57 2 57 -15z m2175 -50 c-4
-3 -11 2 -16 12 -6 9 -17 17 -24 17 -8 0 -15 5 -15 10 0 6 7 10 15 10 8 0 15
6 16 13 0 6 7 -3 15 -22 8 -18 12 -36 9 -40z m361 14 c16 -8 23 -15 16 -15
-11 0 -12 -10 -7 -41 5 -29 4 -40 -4 -35 -6 4 -11 16 -11 26 0 25 -17 35 -36
19 -8 -6 -17 -9 -21 -5 -4 3 2 13 13 22 18 15 18 15 -3 9 -13 -4 -23 -2 -23 3
0 5 10 14 23 20 12 6 23 11 23 11 1 1 15 -6 30 -14z m-1661 -65 c6 -17 12 -20
41 -14 33 6 34 5 36 -27 0 -19 1 -42 0 -51 -1 -9 7 -20 18 -23 21 -7 28 -25 9
-25 -6 0 -9 -7 -5 -15 3 -8 0 -15 -7 -16 -9 0 -9 -2 1 -6 6 -2 10 -9 6 -14
-10 -17 -24 -9 -24 16 0 17 -4 23 -15 19 -12 -5 -13 4 -8 60 4 45 2 66 -5 66
-6 0 -14 -4 -17 -10 -11 -17 -25 -11 -37 15 -6 14 -18 25 -27 25 -14 0 -14 2
-1 10 22 14 28 12 35 -10z m235 11 c0 -5 -8 -12 -17 -15 -15 -6 -15 -8 -3 -16
12 -7 12 -12 2 -22 -9 -9 -12 -9 -12 0 0 7 -9 12 -20 12 -28 0 -25 12 8 32 32
19 42 21 42 9z m230 -63 c0 -4 -13 -8 -30 -8 -16 0 -30 4 -30 8 0 5 14 9 30 9
17 0 30 -4 30 -9z m-1345 -18 c3 -5 2 -10 -3 -10 -6 0 -9 -8 -7 -17 11 -53 13
-113 6 -113 -5 0 -12 28 -16 63 -4 34 -12 68 -17 75 -8 9 -5 12 10 12 12 0 24
-4 27 -10z m1335 -70 c6 -11 8 -25 4 -31 -5 -8 -34 32 -34 47 0 12 21 1 30
-16z m786 11 c-3 -5 -36 -12 -73 -16 -38 -4 -62 -10 -56 -12 9 -3 11 -14 7
-30 -5 -20 -4 -24 6 -18 8 5 11 3 8 -5 -7 -22 -27 -23 -35 -3 -12 33 -38 59
-55 55 -22 -4 -22 -10 0 -47 25 -40 63 -155 52 -155 -5 0 -19 26 -30 58 -19
53 -24 58 -46 54 -13 -2 -24 -12 -25 -21 0 -10 -2 -11 -6 -3 -2 6 -13 12 -24
12 -10 0 -19 5 -19 10 0 6 9 10 21 10 26 0 51 25 47 48 -3 14 -17 18 -73 22
-83 6 -67 11 115 33 142 17 193 20 186 8z m-2931 -20 c-3 -6 -11 -11 -17 -11
-6 0 -6 6 2 15 14 17 26 13 15 -4z m895 -1 c0 -5 -9 -6 -20 -3 -11 3 -17 9
-15 14 7 10 35 1 35 -11z m675 -20 c-1 -22 -15 -40 -15 -20 0 10 -3 10 -15 0
-17 -15 -19 -7 -5 21 14 25 37 25 35 -1z m-1605 -9 c0 -12 -20 -25 -27 -18 -7
7 6 27 18 27 5 0 9 -4 9 -9z m1080 -21 c0 -5 -5 -10 -10 -10 -6 0 -10 -7 -8
-16 2 -10 -3 -19 -9 -21 -7 -3 -13 3 -13 12 0 13 -4 15 -12 8 -18 -14 -78 -12
-78 3 0 13 48 26 52 13 2 -5 14 -2 28 5 31 17 50 19 50 6z m660 -3 c0 -7 6
-21 13 -30 11 -16 21 -16 147 -2 154 17 203 19 196 6 -3 -4 -47 -11 -98 -15
-51 -4 -103 -10 -115 -13 -24 -5 -32 -37 -13 -48 8 -5 8 -11 1 -19 -12 -15 -5
-76 14 -122 7 -18 10 -36 5 -39 -16 -10 -50 113 -50 180 0 41 -2 45 -24 45
-39 0 -53 -9 -50 -33 2 -12 13 -77 24 -144 23 -138 24 -155 11 -134 -5 8 -19
79 -32 159 l-22 144 -29 -6 c-15 -3 -28 -1 -28 4 0 6 12 10 26 10 26 0 26 5 7
58 -3 6 0 12 6 12 6 0 11 -6 11 -13z m-1770 -19 c0 -7 -5 -20 -10 -28 -8 -12
-10 -9 -10 13 0 15 5 27 10 27 6 0 10 -6 10 -12z m2224 -25 c3 -21 17 -103 31
-182 23 -132 25 -164 10 -149 -3 3 -13 52 -21 109 -9 57 -22 135 -30 172 -16
80 -17 87 -5 87 5 0 11 -17 15 -37z m264 -20 c-3 -41 2 -51 22 -46 11 3 20 1
20 -5 0 -6 -8 -13 -17 -15 -10 -3 17 -5 60 -6 44 -1 77 -5 77 -11 0 -11 -7
-12 -72 -10 -54 2 -88 -7 -88 -22 0 -5 6 -8 14 -5 8 3 27 2 43 -3 15 -4 21 -9
13 -10 -10 -1 -9 -4 5 -10 20 -8 20 -8 1 -16 -13 -5 -21 -3 -24 4 -2 7 -8 12
-12 12 -7 0 -7 -98 -1 -117 1 -1 11 1 24 6 22 8 23 5 40 -70 16 -68 17 -88 6
-134 -7 -30 -16 -55 -21 -55 -8 0 -6 15 11 85 5 19 2 52 -9 90 -15 55 -19 60
-47 63 -28 3 -31 8 -43 58 -8 32 -19 54 -27 54 -19 0 -16 18 5 23 10 3 4 5
-13 6 l-30 2 24 13 23 13 -22 6 c-23 6 -19 27 6 27 16 0 20 50 4 66 -5 5 -7
19 -4 31 5 19 8 20 20 8 8 -7 13 -22 12 -32z m-1366 -15 c3 -36 9 -37 111 -22
21 3 37 2 37 -4 0 -9 -147 -28 -155 -20 -10 10 -16 78 -7 78 6 0 12 -15 14
-32z m-122 3 c0 -10 -9 -21 -20 -24 -12 -3 -21 -14 -21 -29 -2 -22 -2 -22 -6
-1 -4 22 22 73 38 73 5 0 9 -8 9 -19z m1365 10 c6 9 10 8 16 -7 13 -33 10 -44
-12 -44 -19 0 -20 2 -8 17 12 15 12 16 -3 10 -14 -5 -18 -1 -18 16 0 16 3 18
9 8 7 -11 10 -11 16 0z m-735 -10 c0 -5 -39 -12 -87 -15 -49 -4 -105 -9 -125
-12 -22 -3 -38 -2 -38 4 0 6 39 13 88 17 48 3 94 8 102 9 31 7 60 6 60 -3z
m-199 -89 c-6 -10 -22 -27 -36 -36 -14 -9 -25 -23 -25 -31 0 -8 -4 -15 -10
-15 -5 0 -7 -7 -3 -16 4 -11 1 -15 -13 -12 -10 2 -19 -1 -19 -7 0 -5 -5 -18
-10 -27 -9 -15 -11 -14 -22 8 -9 19 -8 24 2 24 31 0 35 26 10 63 -27 38 -30
47 -17 47 4 0 16 -13 25 -30 19 -32 37 -39 37 -15 0 8 6 15 13 15 7 0 26 13
42 30 31 32 43 33 26 2z m717 16 c9 -9 12 -9 12 0 0 7 7 12 15 12 19 0 19 -5
-1 -29 -16 -18 -17 -18 -35 0 -11 11 -19 21 -19 24 0 9 16 5 28 -7z m257 -98
c-4 -12 -2 -20 5 -20 6 0 8 -4 5 -10 -13 -21 -32 -9 -32 20 0 19 5 30 14 30
10 0 12 -6 8 -20z m-101 -268 c16 -51 26 -96 22 -99 -3 -3 -10 5 -15 18 -16
43 -51 166 -51 180 0 29 18 -10 44 -99z m-637 12 c-3 -4 4 -15 16 -25 24 -20
17 -25 -13 -9 -15 8 -24 6 -41 -11 -20 -20 -20 -21 -2 -34 10 -7 15 -17 10
-21 -4 -4 -18 3 -32 16 l-25 24 35 33 c19 18 40 33 47 33 6 0 9 -3 5 -6z
m-332 -58 c10 -10 11 -16 2 -25 -18 -18 -27 -13 -27 14 0 28 6 31 25 11z m64
-43 c39 -23 41 -39 1 -18 -16 8 -36 15 -45 15 -9 0 -13 5 -10 10 9 14 19 13
54 -7z m-1969 -357 c0 -2 -8 -10 -17 -17 -16 -13 -17 -12 -4 4 13 16 21 21 21
13z m0 -60 c0 -2 -8 -10 -17 -17 -16 -13 -17 -12 -4 4 13 16 21 21 21 13z
m696 -42 c-5 -14 -46 -20 -46 -7 0 4 10 18 23 31 18 20 23 21 25 7 2 -9 1 -23
-2 -31z m-56 -11 c0 -5 -5 -15 -10 -23 -8 -12 -10 -11 -10 8 0 12 5 22 10 22
6 0 10 -3 10 -7z m1370 -1237 c0 -2 -8 -10 -17 -17 -16 -13 -17 -12 -4 4 13
16 21 21 21 13z m2130 -56 c0 -11 -2 -20 -4 -20 -2 0 -6 9 -9 20 -3 11 -1 20
4 20 5 0 9 -9 9 -20z m-26 -24 c-6 -16 -24 -23 -24 -8 0 10 22 33 27 28 2 -2
1 -11 -3 -20z m126 -19 c0 -7 -13 -14 -30 -15 -16 -1 -30 3 -30 9 0 6 8 8 20
4 11 -4 20 -2 20 4 0 6 5 11 10 11 6 0 10 -6 10 -13z m-80 -18 c0 -5 -4 -9
-10 -9 -5 0 -10 7 -10 16 0 8 5 12 10 9 6 -3 10 -10 10 -16z m-76 -13 c-6 -16
-24 -23 -24 -8 0 10 22 33 27 28 2 -2 1 -11 -3 -20z m-114 -52 c0 -8 -4 -14
-10 -14 -5 0 -10 9 -10 21 0 11 5 17 10 14 6 -3 10 -13 10 -21z m45 6 c3 -5
-1 -10 -9 -10 -8 0 -18 5 -21 10 -3 6 1 10 9 10 8 0 18 -4 21 -10z m55 1 c0
-12 -20 -25 -27 -18 -7 7 6 27 18 27 5 0 9 -4 9 -9z m-120 -52 c0 -11 -4 -17
-10 -14 -5 3 -10 13 -10 21 0 8 5 14 10 14 6 0 10 -9 10 -21z m2747 -71 c-3
-8 -6 -5 -6 6 -1 11 2 17 5 13 3 -3 4 -12 1 -19z m-2737 -8 c0 -5 -10 -10 -22
-9 -22 0 -22 1 -3 9 11 5 21 9 23 9 1 1 2 -3 2 -9z m-100 -32 c0 -6 -7 -5 -15
2 -8 7 -15 17 -15 22 0 6 7 5 15 -2 8 -7 15 -17 15 -22z m33 25 c-7 -2 -19 -2
-25 0 -7 3 -2 5 12 5 14 0 19 -2 13 -5z m227 -8 c0 -8 -4 -15 -10 -15 -5 0 -7
7 -4 15 4 8 8 15 10 15 2 0 4 -7 4 -15z m-196 -37 c-4 -6 -10 -5 -15 3 -14 22
-10 33 6 19 8 -7 12 -17 9 -22z m188 -18 c-5 -36 -7 -35 -16 3 -4 19 -3 27 7
27 9 0 12 -9 9 -30z m-213 -6 c3 -16 1 -17 -13 -5 -19 16 -21 34 -3 29 6 -3
14 -13 16 -24z m59 -13 c3 -8 -1 -12 -9 -9 -7 2 -15 10 -17 17 -3 8 1 12 9 9
7 -2 15 -10 17 -17z m-42 -37 c-4 -9 -9 -15 -11 -12 -3 3 -3 13 1 22 4 9 9 15
11 12 3 -3 3 -13 -1 -22z m99 0 c14 -14 24 -29 21 -32 -7 -6 -56 37 -56 50 0
13 8 9 35 -18z m95 -13 c0 -11 -4 -23 -10 -26 -6 -4 -10 5 -10 19 0 14 5 26
10 26 6 0 10 -9 10 -19z m-226 -16 c-4 -8 -10 -15 -15 -15 -5 0 -9 7 -9 15 0
8 7 15 15 15 9 0 12 -6 9 -15z m82 0 c-21 -16 -32 -13 -21 4 3 6 14 11 23 11
15 -1 15 -2 -2 -15z m-23 -30 c15 -10 17 -18 8 -32 -10 -17 -10 -16 -11 5 0
13 -6 22 -15 22 -8 0 -15 5 -15 10 0 14 11 12 33 -5z m-53 -30 c0 -7 -7 -16
-16 -19 -25 -10 -54 -7 -54 5 0 7 10 9 25 7 20 -4 25 -1 25 14 0 11 5 16 10
13 6 -3 10 -12 10 -20z m-449 -28 c11 3 19 0 19 -7 0 -8 -10 -11 -30 -8 -21 3
-30 0 -33 -11 -3 -9 -5 -3 -6 12 -1 23 2 26 15 19 9 -5 25 -7 35 -5z m267 1
c16 -16 15 -33 -1 -22 -7 5 -5 2 5 -8 10 -9 18 -30 18 -46 0 -17 5 -32 12 -34
17 -6 0 -28 -23 -28 -10 0 -19 -7 -19 -15 0 -8 -4 -15 -10 -15 -5 0 -10 5 -10
11 0 6 -7 9 -15 5 -9 -3 -15 0 -15 10 0 12 7 15 23 11 12 -3 30 -2 40 2 17 6
17 8 -4 34 -11 16 -19 31 -15 34 3 3 -1 15 -9 25 -22 32 -3 62 23 36z m92 -3
c-7 -8 -17 -15 -22 -15 -6 0 -5 7 2 15 7 8 17 15 22 15 6 0 5 -7 -2 -15z m150
-5 c0 -5 -10 -10 -22 -9 -22 0 -22 1 -3 9 11 5 21 9 23 9 1 1 2 -3 2 -9z
m-102 -18 c2 -7 -2 -10 -12 -6 -9 3 -16 11 -16 16 0 13 23 5 28 -10z m52 -2
c0 -5 -9 -14 -20 -20 -24 -13 -26 -7 -4 14 18 18 24 20 24 6z m-132 -12 c-2
-6 -10 -14 -16 -16 -7 -2 -10 2 -6 12 7 18 28 22 22 4z m257 -59 c12 -4 -33
-8 -107 -8 -83 -1 -128 3 -128 9 0 13 204 12 235 -1z m-379 -106 c-11 -11 -17
4 -9 23 7 18 8 18 11 1 2 -10 1 -21 -2 -24z m-26 -33 c-20 -13 -33 -13 -25 0
3 6 14 10 23 10 15 0 15 -2 2 -10z m-40 -36 c0 -8 -4 -14 -10 -14 -5 0 -10 9
-10 21 0 11 5 17 10 14 6 -3 10 -13 10 -21z m773 -97 c8 -6 7 -7 -3 -4 -11 2
-15 18 -16 53 l-1 49 4 -45 c2 -24 10 -48 16 -53z m-737 58 c10 -8 14 -15 7
-15 -19 0 -43 11 -43 21 0 13 14 11 36 -6z m-1156 -65 c0 -5 -9 -10 -20 -10
-11 0 -20 5 -20 10 0 6 9 10 20 10 11 0 20 -4 20 -10z m60 0 c0 -5 -9 -10 -21
-10 -11 0 -17 5 -14 10 3 6 13 10 21 10 8 0 14 -4 14 -10z m60 0 c0 -5 -9 -10
-21 -10 -11 0 -17 5 -14 10 3 6 13 10 21 10 8 0 14 -4 14 -10z m1130 -4 c0 -9
17 -15 55 -18 30 -3 58 -8 62 -12 5 -4 7 -35 6 -69 -1 -49 2 -66 17 -82 29
-31 16 -61 -28 -69 -53 -8 -72 -7 -72 4 0 6 23 10 50 10 54 0 62 10 35 46 -9
12 -14 43 -15 87 l0 67 -34 0 c-19 0 -47 -5 -63 -11 -19 -7 -29 -7 -31 0 -4
13 -22 5 -22 -10 0 -14 78 -11 83 4 3 6 6 2 6 -10 1 -21 -4 -23 -48 -23 l-48
0 -12 -57 c-6 -31 -11 -119 -11 -195 0 -131 1 -138 20 -138 24 0 40 28 40 74
0 24 -5 36 -18 40 -14 5 -17 14 -14 46 5 45 11 49 31 19 10 -17 10 -23 1 -29
-7 -4 -9 -13 -6 -19 12 -19 26 -12 26 12 1 20 2 20 11 4 5 -9 8 -21 5 -26 -8
-13 14 -71 27 -71 20 0 -7 -18 -32 -22 -46 -6 -36 -28 13 -28 25 0 46 -4 46
-10 0 -7 -91 -8 -164 -1 -13 1 1 315 18 391 11 49 12 67 3 73 -7 4 0 5 16 3
22 -4 27 -1 27 15 0 10 5 19 10 19 6 0 10 -6 10 -14z m-1310 -6 c-20 -13 -43
-13 -35 0 3 6 16 10 28 10 18 0 19 -2 7 -10z m233 3 c-7 -2 -19 -2 -25 0 -7 3
-2 5 12 5 14 0 19 -2 13 -5z m60 0 c-7 -2 -19 -2 -25 0 -7 3 -2 5 12 5 14 0
19 -2 13 -5z m60 0 c-7 -2 -19 -2 -25 0 -7 3 -2 5 12 5 14 0 19 -2 13 -5z m60
0 c-7 -2 -19 -2 -25 0 -7 3 -2 5 12 5 14 0 19 -2 13 -5z m67 -3 c0 -5 -6 -10
-14 -10 -8 0 -18 5 -21 10 -3 6 3 10 14 10 12 0 21 -4 21 -10z m60 0 c0 -5 -6
-10 -14 -10 -8 0 -18 5 -21 10 -3 6 3 10 14 10 12 0 21 -4 21 -10z m60 0 c0
-5 -9 -10 -20 -10 -11 0 -20 5 -20 10 0 6 9 10 20 10 11 0 20 -4 20 -10z m60
0 c0 -5 -9 -10 -20 -10 -11 0 -20 5 -20 10 0 6 9 10 20 10 11 0 20 -4 20 -10z
m60 0 c0 -5 -9 -10 -21 -10 -11 0 -17 5 -14 10 3 6 13 10 21 10 8 0 14 -4 14
-10z m60 0 c0 -5 -9 -10 -21 -10 -11 0 -17 5 -14 10 3 6 13 10 21 10 8 0 14
-4 14 -10z m53 -7 c-7 -2 -19 -2 -25 0 -7 3 -2 5 12 5 14 0 19 -2 13 -5z m60
0 c-7 -2 -19 -2 -25 0 -7 3 -2 5 12 5 14 0 19 -2 13 -5z m327 -3 c0 -6 -28
-10 -65 -10 -37 0 -65 4 -65 10 0 6 28 10 65 10 37 0 65 -4 65 -10z m-1280
-10 c-19 -13 -30 -13 -30 0 0 6 10 10 23 10 18 0 19 -2 7 -10z m1840 -10 c11
-7 0 -10 -37 -10 -40 0 -53 -4 -53 -15 0 -8 -4 -15 -10 -15 -11 0 -13 11 -4
34 7 18 79 22 104 6z m2604 -5 c4 -10 -2 -19 -18 -25 -13 -4 -26 -16 -29 -24
-4 -11 -19 -16 -46 -16 -59 0 -91 18 -90 49 0 25 1 25 9 4 6 -15 22 -24 55
-31 42 -9 48 -8 71 15 13 13 24 28 24 33 0 16 17 11 24 -5z m-4504 -10 c-7 -9
-15 -13 -17 -11 -7 7 7 26 19 26 6 0 6 -6 -2 -15z m-48 -37 c-6 -6 -15 -8 -19
-4 -4 4 -1 11 7 16 19 12 27 3 12 -12z m-42 -27 c0 -5 -7 -11 -15 -15 -15 -5
-20 5 -8 17 9 10 23 9 23 -2z m-50 -36 c-7 -8 -17 -15 -22 -15 -6 0 -5 7 2 15
7 8 17 15 22 15 6 0 5 -7 -2 -15z m1985 -15 c13 -6 -9 -9 -67 -9 -53 -1 -88 3
-88 9 0 12 127 12 155 0z m-2039 -25 c-11 -8 -22 -12 -25 -9 -6 6 19 24 34 24
6 -1 1 -7 -9 -15z m-36 -24 c0 -5 -7 -12 -16 -15 -24 -9 -28 -7 -14 9 14 17
30 20 30 6z m-63 -48 c-9 -9 -20 -13 -24 -9 -4 4 -1 11 7 16 25 16 35 11 17
-7z m-42 -32 c-3 -6 -14 -11 -23 -11 -15 1 -15 2 2 15 21 16 32 13 21 -4z
m2265 -156 l0 -155 -87 6 c-56 4 -92 11 -99 20 -6 8 -29 14 -52 14 -32 0 -44
5 -53 21 -6 13 -17 19 -28 16 -10 -2 -23 4 -30 14 -6 11 -21 19 -34 19 -21 0
-21 1 3 13 22 11 26 11 32 -4 4 -9 20 -20 36 -24 17 -3 33 -13 36 -21 3 -9 20
-14 47 -14 26 0 46 -6 53 -16 8 -10 35 -17 87 -21 l74 -6 -5 74 c-4 41 -2 77
3 80 5 4 8 28 7 55 -3 60 -2 84 5 84 3 0 5 -70 5 -155z m-2310 126 c0 -5 -7
-11 -15 -15 -15 -5 -20 5 -8 17 9 10 23 9 23 -2z m-55 -40 c-3 -6 -11 -11 -17
-11 -6 0 -6 6 2 15 14 17 26 13 15 -4z m2276 -26 c7 18 8 18 8 2 1 -24 -26
-52 -32 -34 -2 6 -1 21 2 32 l5 20 4 -20 5 -20 8 20z m-2324 -12 c-9 -9 -20
-13 -24 -9 -4 4 -1 11 7 16 25 16 35 11 17 -7z m-37 -22 c0 -5 -7 -12 -16 -15
-24 -9 -28 -7 -14 9 14 17 30 20 30 6z m2230 -27 c0 -8 -4 -12 -10 -9 -5 3
-10 10 -10 16 0 5 5 9 10 9 6 0 10 -7 10 -16z m-2290 -19 c-7 -8 -17 -15 -22
-15 -6 0 -5 7 2 15 7 8 17 15 22 15 6 0 5 -7 -2 -15z m-45 -34 c-3 -6 -14 -11
-23 -11 -15 1 -15 2 2 15 21 16 32 13 21 -4z m2341 6 c8 3 14 -1 14 -10 0 -16
-37 -30 -45 -17 -3 5 -2 16 2 26 4 10 8 13 10 7 3 -7 11 -9 19 -6z m-2386 -36
c0 -5 -7 -11 -15 -15 -15 -5 -20 5 -8 17 9 10 23 9 23 -2z m-60 -46 c-7 -9
-15 -13 -18 -10 -3 2 1 11 8 20 7 9 15 13 18 10 3 -2 -1 -11 -8 -20z"/>
<path d="M3955 5750 c-8 -13 15 -13 35 0 12 8 11 10 -7 10 -12 0 -25 -4 -28
-10z"/>
<path d="M4000 5390 c0 -5 5 -10 10 -10 6 0 10 5 10 10 0 6 -4 10 -10 10 -5 0
-10 -4 -10 -10z"/>
<path d="M3980 5364 c0 -8 -4 -14 -9 -14 -21 0 -24 -44 -5 -60 11 -9 24 -25
30 -35 11 -18 28 -21 61 -10 19 6 -26 109 -54 122 -18 9 -23 8 -23 -3z"/>
<path d="M3063 5357 c-17 -10 -19 -15 -10 -27 13 -17 67 -43 67 -33 0 13 -24
73 -30 73 -3 -1 -15 -6 -27 -13z"/>
<path d="M2855 5273 c-77 -31 -141 -57 -142 -58 -1 0 18 -57 43 -126 25 -68
54 -146 63 -172 10 -27 20 -48 24 -48 4 1 16 1 27 1 11 0 20 7 20 15 0 8 10
19 21 26 17 9 20 8 15 -3 -3 -7 -9 -21 -12 -31 -4 -10 -20 -21 -35 -24 -16 -3
-29 -7 -29 -8 0 -1 5 -16 11 -33 9 -27 15 -31 35 -26 13 3 24 2 24 -4 0 -5 -9
-12 -20 -15 -19 -5 -18 -9 19 -114 26 -70 44 -107 53 -105 7 1 95 34 195 74
165 64 181 73 172 90 -12 22 -28 23 -35 3 -5 -11 -11 -12 -25 -4 -29 15 -23
27 15 31 l33 3 -30 80 c-16 44 -31 82 -33 84 -2 2 -50 -15 -106 -39 -57 -23
-109 -44 -115 -47 -7 -3 -13 -1 -13 5 0 5 52 30 114 57 l115 47 -35 96 c-20
54 -44 121 -54 150 -27 74 -27 74 -61 57 -16 -9 -29 -11 -29 -6 0 6 12 17 26
24 l26 14 -65 31 c-36 18 -67 32 -69 32 -2 -1 -66 -26 -143 -57z m139 21 c3
-8 10 -12 16 -9 5 3 10 -1 10 -9 0 -8 -4 -18 -10 -21 -5 -3 -10 -2 -10 3 0 5
-11 7 -25 4 -15 -2 -25 0 -25 7 0 6 5 11 10 11 6 0 10 7 10 15 0 20 16 19 24
-1z m49 -78 c21 -17 22 -46 1 -46 -11 0 -14 5 -10 16 5 13 1 15 -19 10 -17 -4
-25 -2 -25 7 0 29 24 35 53 13z m10 -232 c-4 -12 0 -14 21 -8 15 3 26 2 26 -4
0 -12 -24 -22 -52 -22 -15 0 -19 5 -15 20 3 10 0 21 -7 24 -6 2 -1 5 11 5 16
1 21 -3 16 -15z m156 -208 c9 -11 7 -15 -11 -19 -27 -7 -30 -5 -22 17 8 20 18
20 33 2z m-179 -28 c0 -14 -21 -19 -50 -13 -43 9 -37 23 10 21 22 0 40 -4 40
-8z m-3 -110 c5 13 23 17 23 4 0 -5 -6 -17 -14 -27 -12 -17 -15 -18 -30 -3
-22 23 -22 45 1 27 13 -11 17 -11 20 -1z"/>
<path d="M4638 5393 c7 -3 16 -2 19 1 4 3 -2 6 -13 5 -11 0 -14 -3 -6 -6z"/>
<path d="M3833 4643 c9 -2 25 -2 35 0 9 3 1 5 -18 5 -19 0 -27 -2 -17 -5z"/>
<path d="M4280 4820 c-8 -5 -10 -10 -5 -10 6 0 17 5 25 10 8 5 11 10 5 10 -5
0 -17 -5 -25 -10z"/>
<path d="M4230 4800 c-8 -5 -10 -10 -5 -10 6 0 17 5 25 10 8 5 11 10 5 10 -5
0 -17 -5 -25 -10z"/>
<path d="M4180 4780 c-8 -5 -10 -10 -5 -10 6 0 17 5 25 10 8 5 11 10 5 10 -5
0 -17 -5 -25 -10z"/>
<path d="M4880 215 c0 -5 5 -17 10 -25 5 -8 10 -10 10 -5 0 6 -5 17 -10 25 -5
8 -10 11 -10 5z"/>
</g>
</svg>
