<?xml version="1.0" standalone="no"?>
<!DOCTYPE svg PUBLIC "-//W3C//DTD SVG 20010904//EN"
 "http://www.w3.org/TR/2001/REC-SVG-20010904/DTD/svg10.dtd">
<svg version="1.0" xmlns="http://www.w3.org/2000/svg"
 width="800.000000pt" height="800.000000pt" viewBox="0 0 800.000000 800.000000"
 preserveAspectRatio="xMidYMid meet">
<metadata>
Created by potrace 1.16, written by Peter Selinger 2001-2019
</metadata>
<g transform="translate(0.000000,800.000000) scale(0.100000,-0.100000)"
fill="#000000" stroke="none">
<path d="M0 4000 l0 -4000 4000 0 4000 0 0 588 0 588 -82 39 c-51 25 -130 78
-207 139 -128 101 -255 173 -291 163 -11 -3 -18 -1 -15 3 3 5 -48 11 -112 14
-134 5 -153 7 -147 17 5 9 -95 85 -108 81 -5 -1 -7 2 -4 7 8 13 -73 83 -86 75
-6 -4 -8 -3 -4 4 7 11 -143 125 -185 140 -13 5 -48 12 -78 16 -59 8 -250 92
-287 127 -12 11 -38 63 -59 115 -22 56 -41 91 -48 87 -5 -3 -7 -1 -4 4 9 14
-32 65 -44 57 -5 -3 -8 -1 -7 4 5 17 -42 73 -55 66 -7 -4 -9 -4 -5 1 9 10 -10
47 -21 40 -5 -2 -8 3 -7 13 0 9 -3 16 -9 15 -5 -1 -11 10 -11 23 -2 32 8 30
28 -4 27 -46 110 -142 117 -137 4 2 8 -2 8 -9 0 -20 46 -75 63 -75 8 0 49 10
90 23 62 19 75 26 72 42 -2 18 -2 18 11 1 14 -16 23 -15 168 27 182 53 187 54
189 42 1 -5 -77 -31 -172 -58 -301 -83 -358 -101 -358 -113 0 -26 43 -114 53
-108 6 4 7 1 3 -6 -10 -16 19 -48 64 -71 38 -19 51 -14 65 29 5 18 2 24 -14
28 -11 3 -19 9 -16 13 3 5 14 6 25 3 11 -3 17 -9 14 -14 -3 -5 -2 -9 3 -9 14
0 29 14 36 34 6 15 10 16 22 6 9 -7 29 -13 45 -12 26 1 28 -1 18 -18 -7 -11
-9 -23 -5 -27 5 -4 12 -1 17 7 7 12 12 12 22 2 19 -19 -6 -40 -31 -25 -10 7
-28 9 -40 6 -17 -4 -24 0 -28 16 -3 11 -7 21 -9 21 -10 0 -44 -36 -44 -46 0
-7 -8 -15 -17 -19 -17 -6 -17 -7 2 -21 11 -8 25 -12 33 -9 7 2 11 1 8 -4 -8
-12 64 -40 120 -48 37 -5 44 -3 44 11 0 10 5 14 11 11 6 -4 8 -13 5 -20 -3 -8
5 -16 18 -19 31 -8 188 -122 269 -195 38 -34 73 -59 79 -55 6 4 8 3 4 -4 -8
-13 33 -44 47 -35 6 3 7 1 3 -5 -12 -20 19 -27 149 -33 129 -5 131 -6 215 -48
47 -25 129 -80 185 -126 62 -50 137 -101 193 -129 l92 -46 0 3400 0 3400
-4000 0 -4000 0 0 -4000z m1330 3195 c-7 -8 -17 -15 -22 -15 -6 0 -5 7 2 15 7
8 17 15 22 15 6 0 5 -7 -2 -15z m60 -5 c12 -8 11 -10 -7 -10 -12 0 -25 5 -28
10 -8 13 15 13 35 0z m34 -46 c4 -10 1 -14 -6 -12 -15 5 -23 28 -10 28 5 0 13
-7 16 -16z m26 -55 c0 -11 -4 -17 -10 -14 -5 3 -10 13 -10 21 0 8 5 14 10 14
6 0 10 -9 10 -21z m36 -56 c-8 -8 -36 5 -36 17 0 7 6 7 21 0 11 -7 18 -14 15
-17z m54 -13 c0 -13 -11 -13 -30 0 -12 8 -11 10 8 10 12 0 22 -4 22 -10z m-16
-44 c-6 -16 -24 -23 -24 -8 0 10 22 33 27 28 2 -2 1 -11 -3 -20z m-24 -35 c0
-5 -7 -14 -15 -21 -12 -10 -15 -10 -15 2 0 8 3 18 7 21 9 10 23 9 23 -2z m-30
-67 c0 -8 -4 -12 -10 -9 -5 3 -10 13 -10 21 0 8 5 12 10 9 6 -3 10 -13 10 -21z
m3520 -1297 c0 -8 -7 -14 -15 -14 -16 0 -19 9 -8 20 11 11 23 8 23 -6z m-57
-28 c-6 -6 -17 -8 -24 -3 -9 5 -8 9 7 14 23 9 31 3 17 -11z m-43 -8 c0 -11
-31 -24 -39 -16 -3 3 1 10 9 15 19 12 30 12 30 1z m130 -17 c0 -8 -4 -12 -10
-9 -5 3 -10 13 -10 21 0 8 5 12 10 9 6 -3 10 -13 10 -21z m-190 -11 c0 -5 -13
-16 -30 -25 -24 -13 -35 -14 -64 -6 -20 6 -36 15 -36 20 0 11 13 10 45 -2 20
-8 32 -6 48 5 23 16 37 19 37 8z m226 -51 c-9 -8 -26 10 -26 26 1 15 2 15 15
-2 8 -11 13 -21 11 -24z m-246 -2 c0 -11 -4 -20 -10 -20 -5 0 -10 9 -10 20 0
11 5 20 10 20 6 0 10 -9 10 -20z m276 -48 c-9 -8 -26 10 -26 26 1 15 2 15 15
-2 8 -11 13 -21 11 -24z m-273 -12 c3 -11 1 -20 -4 -20 -5 0 -9 9 -9 20 0 11
2 20 4 20 2 0 6 -9 9 -20z m301 -26 c4 -10 1 -14 -6 -12 -15 5 -23 28 -10 28
5 0 13 -7 16 -16z m-280 -30 c9 -22 -3 -32 -14 -14 -12 19 -12 30 -1 30 5 0
12 -7 15 -16z m309 -19 c4 -8 2 -17 -3 -20 -6 -4 -10 -4 -10 -1 0 2 -3 11 -6
20 -3 9 -2 16 4 16 5 0 12 -7 15 -15z m-309 -40 c-6 -16 -24 -21 -24 -7 0 11
11 22 21 22 5 0 6 -7 3 -15z m340 -11 c9 -22 -3 -32 -14 -14 -12 19 -12 30 -1
30 5 0 12 -7 15 -16z m-344 -49 c0 -14 -4 -25 -10 -25 -5 0 -10 11 -10 25 0
14 5 25 10 25 6 0 10 -11 10 -25z m374 -1 c9 -22 -3 -32 -14 -14 -12 19 -12
30 -1 30 5 0 12 -7 15 -16z m45 -103 c0 -24 -2 -22 -19 14 -24 52 -24 66 0 36
11 -13 20 -35 19 -50z m11 -55 c0 -8 -4 -18 -10 -21 -5 -3 -10 3 -10 14 0 12
5 21 10 21 6 0 10 -6 10 -14z m0 -61 c0 -8 -4 -17 -10 -20 -6 -4 -10 5 -10 20
0 15 4 24 10 20 6 -3 10 -12 10 -20z m-6 -84 c-9 -11 -21 13 -16 32 6 22 6 22
12 -3 4 -14 6 -27 4 -29z m2546 -34 c0 -1 -24 -25 -52 -52 l-53 -50 50 53 c46
48 55 57 55 49z m-6281 -46 c7 -5 12 -14 9 -21 -2 -7 -10 -4 -22 9 -19 21 -12
28 13 12z m6121 -34 c0 -2 -10 -12 -22 -23 l-23 -19 19 23 c18 21 26 27 26 19z
m-2684 -143 c-22 -16 -46 -19 -46 -5 0 10 52 31 60 24 3 -3 -4 -11 -14 -19z
m-3460 2 c7 -8 10 -16 6 -18 -5 -2 22 -104 60 -228 101 -336 131 -421 145
-416 7 3 15 1 18 -4 4 -6 -1 -10 -9 -10 -19 0 -20 -2 -2 -43 10 -25 36 -46
112 -92 88 -52 191 -123 321 -221 29 -22 49 -31 64 -27 18 5 20 3 14 -16 -4
-12 4 -57 19 -109 28 -100 32 -134 21 -179 -12 -53 -26 -38 -19 22 5 43 1 75
-21 155 -16 55 -31 100 -35 100 -3 0 -60 40 -125 89 -66 50 -172 122 -236 161
-89 53 -120 78 -132 103 -22 49 -91 266 -203 642 -31 106 -31 123 2 91z m798
-21 c9 -12 18 -13 44 -6 35 10 39 6 18 -21 -10 -13 -15 -15 -24 -6 -27 27 -9
-8 48 -92 57 -85 72 -120 50 -120 -5 0 -10 6 -10 13 0 7 -32 60 -71 118 -39
57 -73 110 -76 117 -7 17 7 15 21 -3z m246 5 c0 -5 -9 -10 -21 -10 -11 0 -17
5 -14 10 3 6 13 10 21 10 8 0 14 -4 14 -10z m47 -2 c6 14 43 16 43 2 0 -5 -6
-10 -14 -10 -8 0 -16 -7 -20 -15 -6 -16 9 -21 19 -5 6 10 35 2 35 -10 0 -11
-46 -21 -65 -14 -9 4 -14 13 -10 21 3 11 1 13 -10 9 -9 -3 -15 0 -15 8 0 20
13 28 23 14 7 -10 10 -10 14 0z m-102 -8 c3 -5 -3 -10 -14 -10 -12 0 -21 5
-21 10 0 6 6 10 14 10 8 0 18 -4 21 -10z m185 0 c9 -5 19 -5 27 2 10 8 13 6
13 -5 0 -9 -5 -19 -10 -22 -16 -10 18 -38 40 -32 11 3 22 1 25 -3 3 -5 -9 -11
-26 -15 -22 -5 -34 -3 -40 6 -6 10 -9 7 -9 -10 0 -18 -3 -21 -13 -13 -16 14
-73 8 -69 -7 3 -14 -25 -14 -34 0 -11 18 18 30 64 27 27 -2 42 1 42 8 0 8 -9
10 -22 7 -22 -6 -22 -6 2 15 19 16 21 21 9 22 -9 0 -19 7 -23 15 -6 17 2 19
24 5z m88 -8 c2 -7 -2 -10 -12 -6 -9 3 -16 11 -16 16 0 13 23 5 28 -10z
m-1208 -24 c0 -6 -7 -5 -15 2 -8 7 -15 17 -15 22 0 6 7 5 15 -2 8 -7 15 -17
15 -22z m880 22 c0 -5 -6 -10 -14 -10 -8 0 -18 5 -21 10 -3 6 3 10 14 10 12 0
21 -4 21 -10z m440 -11 c0 -11 -3 -11 -24 -3 -23 9 -20 23 4 17 11 -3 20 -9
20 -14z m-53 -24 c-2 -38 -8 -43 -26 -21 -9 10 -9 16 -1 21 8 5 5 11 -7 21
-17 12 -16 13 9 14 26 0 28 -3 25 -35z m103 5 c12 -16 18 -34 15 -40 -11 -18
-23 -11 -18 10 3 11 0 20 -5 20 -6 0 -16 9 -22 20 -17 31 6 24 30 -10z m-530
-26 c0 -8 -4 -14 -10 -14 -5 0 -10 2 -10 4 0 2 -3 12 -6 20 -5 12 -2 15 10 10
9 -3 16 -12 16 -20z m110 16 c0 -5 -9 -10 -20 -10 -11 0 -20 5 -20 10 0 6 9
10 20 10 11 0 20 -4 20 -10z m2596 3 c-10 -11 -36 -12 -36 -2 0 5 10 9 22 9
12 0 18 -3 14 -7z m64 -9 c0 -2 -12 -4 -26 -4 -14 0 -23 4 -20 9 6 8 46 4 46
-5z m-3570 -26 c0 -6 -7 -5 -15 2 -8 7 -15 17 -15 22 0 6 7 5 15 -2 8 -7 15
-17 15 -22z m955 18 c17 -12 17 -13 -8 -18 -21 -4 -27 -1 -27 13 0 22 10 24
35 5z m2490 4 c-3 -5 -13 -10 -21 -10 -8 0 -14 5 -14 10 0 6 9 10 21 10 11 0
17 -4 14 -10z m180 0 c4 -6 -5 -10 -19 -10 -14 0 -26 5 -26 10 0 6 9 10 19 10
11 0 23 -4 26 -10z m-2770 -10 c-3 -5 -13 -10 -21 -10 -8 0 -14 5 -14 10 0 6
9 10 21 10 11 0 17 -4 14 -10z m2535 1 c0 -5 -9 -11 -20 -14 -22 -6 -28 8 -7
16 19 8 27 8 27 -2z m290 -1 c0 -5 -6 -10 -14 -10 -8 0 -18 5 -21 10 -3 6 3
10 14 10 12 0 21 -4 21 -10z m60 0 c0 -5 -9 -10 -21 -10 -11 0 -17 5 -14 10 3
6 13 10 21 10 8 0 14 -4 14 -10z m-410 -10 c0 -5 -11 -10 -25 -10 -14 0 -25 5
-25 10 0 6 11 10 25 10 14 0 25 -4 25 -10z m470 0 c0 -5 -6 -10 -14 -10 -8 0
-18 5 -21 10 -3 6 3 10 14 10 12 0 21 -4 21 -10z m60 0 c0 -5 -9 -10 -20 -10
-11 0 -20 5 -20 10 0 6 9 10 20 10 11 0 20 -4 20 -10z m-2586 -19 c10 -11 25
-17 33 -14 11 4 14 0 11 -18 -2 -16 -9 -24 -21 -23 -9 1 -17 -1 -17 -5 0 -18
28 -31 70 -31 25 0 51 -5 58 -12 17 -17 112 -28 112 -12 0 7 5 14 11 16 7 2 7
12 -1 32 -11 30 -6 47 9 30 4 -5 14 -31 21 -58 9 -32 20 -50 32 -54 32 -8 19
-22 -22 -22 -25 0 -42 6 -48 15 -5 10 -25 17 -54 19 -26 1 -52 7 -60 13 -7 6
-34 13 -60 16 -51 7 -194 80 -166 85 9 2 28 -4 42 -13 28 -19 56 -14 56 9 0 8
-9 18 -20 21 -11 3 -20 11 -20 16 0 15 16 10 34 -10z m110 3 c9 -22 -3 -32
-14 -14 -12 19 -12 30 -1 30 5 0 12 -7 15 -16z m2529 9 c-7 -2 -19 -2 -25 0
-7 3 -2 5 12 5 14 0 19 -2 13 -5z m92 -3 c-3 -5 -19 -10 -36 -10 -16 0 -29 5
-29 10 0 6 16 10 36 10 21 0 33 -4 29 -10z m-1144 -354 c117 -195 217 -352
223 -349 5 3 6 1 2 -5 -4 -7 10 -41 31 -75 l38 -64 0 103 c0 56 3 100 6 98 4
-2 12 23 18 56 7 33 16 60 22 60 12 0 12 9 -12 -106 -16 -78 -19 -118 -14
-186 4 -60 3 -88 -4 -88 -6 0 -11 4 -11 8 0 4 -27 54 -60 110 -46 78 -66 102
-82 102 -17 0 -18 3 -8 14 9 12 -3 40 -66 145 -43 72 -82 127 -87 124 -6 -3
-7 -1 -3 5 9 15 -18 55 -29 44 -5 -4 -5 -2 -1 5 7 13 -70 143 -85 143 -5 0
-26 -7 -46 -15 -39 -17 -63 -19 -63 -7 0 5 25 16 55 26 l54 17 -54 88 c-44 74
-55 101 -40 101 1 0 98 -159 216 -354z m-2823 325 c3 -8 -1 -12 -9 -9 -7 2
-15 10 -17 17 -3 8 1 12 9 9 7 -2 15 -10 17 -17z m3982 9 c0 -5 -7 -10 -16
-10 -8 0 -12 5 -9 10 3 6 10 10 16 10 5 0 9 -4 9 -10z m-2947 -7 c-7 -2 -21
-2 -30 0 -10 3 -4 5 12 5 17 0 24 -2 18 -5z m90 -14 c10 -11 17 -22 15 -23
-50 -37 -91 -50 -50 -16 26 21 22 40 -8 40 -10 0 -22 5 -25 10 -12 20 51 10
68 -11z m307 1 c0 -5 -10 -10 -22 -10 -19 0 -20 2 -8 10 19 13 30 13 30 0z
m44 -29 c-6 -6 -24 19 -24 34 1 6 7 1 15 -9 8 -11 12 -22 9 -25z m-110 16 c11
-8 17 -19 15 -24 -4 -12 -79 16 -79 29 0 13 45 9 64 -5z m2626 4 c0 -5 -7 -12
-16 -15 -24 -9 -28 -7 -14 9 14 17 30 20 30 6z m334 -1 c18 -7 26 -17 26 -34
0 -40 31 -49 150 -45 14 0 36 0 50 -2 14 -1 33 1 43 5 9 5 17 4 17 -1 0 -19
-49 -33 -76 -23 -37 14 -44 13 -44 -12 0 -19 -2 -20 -12 -6 -18 22 -108 33
-108 13 0 -8 -4 -15 -10 -15 -5 0 -10 9 -10 20 0 11 -4 28 -9 38 -5 9 -12 25
-15 35 -7 23 -52 22 -111 -3 -26 -11 -55 -20 -65 -20 -28 0 -145 -58 -170 -85
-28 -30 -37 -31 -65 -5 -20 19 -30 20 -91 14 -57 -6 -73 -12 -94 -34 -14 -15
-35 -32 -47 -39 -15 -8 -23 -21 -23 -39 -1 -25 -2 -25 -14 -9 -12 16 -18 14
-70 -30 -72 -61 -84 -93 -57 -161 23 -57 24 -95 3 -87 -7 3 -23 5 -35 5 -17 0
-19 2 -7 9 8 6 17 8 21 5 18 -11 18 18 0 64 -16 41 -18 57 -10 87 11 40 73
105 124 129 17 8 53 35 80 60 56 51 57 52 137 61 32 3 60 11 63 16 4 5 11 9
17 9 7 0 7 -4 -1 -13 -8 -11 -6 -18 9 -32 20 -18 21 -18 48 7 31 30 159 88
194 88 13 1 39 9 58 20 40 22 67 24 104 10z m-4288 -37 c-4 -4 -11 -1 -16 7
-16 25 -11 35 7 17 9 -9 13 -20 9 -24z m1284 7 c0 -5 -10 -10 -22 -10 -19 0
-20 2 -8 10 19 13 30 13 30 0z m110 -5 c0 -9 -6 -12 -15 -9 -8 4 -15 10 -15
15 0 5 7 9 15 9 8 0 15 -7 15 -15z m31 -28 c-8 -8 -11 -7 -11 4 0 20 13 34 18
19 3 -7 -1 -17 -7 -23z m2469 18 c-7 -8 -17 -15 -22 -15 -6 0 -5 7 2 15 7 8
17 15 22 15 6 0 5 -7 -2 -15z m-3856 -20 c3 -8 2 -15 -3 -15 -5 0 -14 7 -21
15 -10 12 -10 15 3 15 8 0 17 -7 21 -15z m35 -39 c7 -8 8 -17 3 -19 -4 -3 -13
3 -20 14 -14 22 0 26 17 5z m176 -51 c-20 -25 -45 -50 -57 -56 -19 -10 -19
-11 -2 -30 9 -10 12 -19 6 -19 -12 0 -74 72 -67 78 2 3 11 -1 19 -7 23 -20 51
-4 93 50 21 27 39 45 41 39 2 -6 -13 -31 -33 -55z m1319 9 c9 -22 -3 -32 -14
-14 -12 19 -12 30 -1 30 5 0 12 -7 15 -16z m1474 -6 c-1 -13 3 -38 7 -55 7
-30 5 -33 -15 -33 -13 0 -24 -8 -27 -20 -5 -20 -23 -28 -23 -10 0 14 -33 13
-48 -2 -14 -14 -17 -11 -25 23 -6 24 -3 26 51 40 45 11 57 18 57 34 1 19 12
45 20 45 1 0 3 -10 3 -22z m1312 -10 c0 -6 -7 -5 -15 2 -8 7 -15 17 -15 22 0
6 7 5 15 -2 8 -7 15 -17 15 -22z m-4240 7 c7 -8 8 -15 2 -15 -5 0 -15 7 -22
15 -7 8 -8 15 -2 15 5 0 15 -7 22 -15z m4374 -10 c4 -11 0 -12 -19 -3 -13 6
-22 15 -19 19 7 11 31 1 38 -16z m-2938 -97 c14 -43 20 -76 14 -82 -5 -5 -17
21 -29 61 -37 124 -23 142 15 21z m54 72 c8 -5 11 -12 7 -16 -4 -4 -15 0 -24
9 -18 18 -8 23 17 7z m2788 -9 c3 -8 -1 -12 -9 -9 -7 2 -15 10 -17 17 -3 8 1
12 9 9 7 -2 15 -10 17 -17z m-2728 -21 c0 -5 -6 -10 -14 -10 -8 0 -18 5 -21
10 -3 6 3 10 14 10 12 0 21 -4 21 -10z m2764 -16 c9 -24 7 -28 -9 -14 -17 14
-20 30 -6 30 5 0 12 -7 15 -16z m-2729 -22 c-8 -8 -25 10 -19 20 4 6 9 5 15
-3 4 -7 6 -15 4 -17z m3715 -6 c0 -2 -8 -10 -17 -17 -16 -13 -17 -12 -4 4 13
16 21 21 21 13z m-5181 -32 c3 -16 1 -17 -13 -5 -19 16 -21 34 -3 29 6 -3 14
-13 16 -24z m4241 11 c10 -12 10 -15 -3 -15 -8 0 -17 7 -21 15 -3 8 -2 15 3
15 5 0 14 -7 21 -15z m-836 -11 c8 -21 8 -24 -3 -24 -5 0 -11 9 -14 20 -6 24
8 27 17 4z m875 -40 c3 -16 1 -17 -13 -5 -19 16 -21 34 -3 29 6 -3 14 -13 16
-24z m-4241 -3 c3 -8 -1 -12 -9 -9 -7 2 -15 10 -17 17 -3 8 1 12 9 9 7 -2 15
-10 17 -17z m912 3 c0 -3 -49 -62 -110 -130 -60 -69 -110 -131 -110 -140 0 -8
12 -36 26 -60 15 -25 24 -47 21 -50 -3 -3 -56 -25 -119 -48 -175 -67 -198 -77
-191 -89 3 -6 1 -7 -6 -3 -6 4 -31 -4 -56 -18 -48 -29 -55 -31 -55 -16 0 13
205 111 316 151 l91 32 -23 41 c-13 23 -24 50 -24 61 0 12 47 75 112 148 99
114 128 141 128 121z m2470 -25 c0 -11 -4 -17 -10 -14 -5 3 -10 13 -10 21 0 8
5 14 10 14 6 0 10 -9 10 -21z m-3325 -20 c3 6 11 11 17 11 7 0 6 -6 -2 -15
-10 -12 -10 -18 0 -30 7 -9 10 -19 6 -23 -4 -4 -13 1 -20 11 -7 9 -18 17 -25
17 -6 0 -11 4 -11 9 0 5 -3 18 -7 28 -6 17 -6 17 14 0 14 -12 23 -15 28 -8z
m4220 11 c3 -5 2 -10 -4 -10 -5 0 -13 5 -16 10 -3 6 -2 10 4 10 5 0 13 -4 16
-10z m-881 -53 c2 -15 1 -27 -3 -27 -10 0 -21 47 -13 55 8 7 10 3 16 -28z
m-3389 -6 c-3 -6 -14 -11 -23 -11 -15 1 -15 2 2 15 21 16 32 13 21 -4z m-45
-20 c0 -5 -9 -11 -20 -14 -20 -5 -26 3 -13 16 9 10 33 8 33 -2z m156 -38 c-4
-4 -11 -1 -16 7 -16 25 -11 35 7 17 9 -9 13 -20 9 -24z m-216 17 c0 -5 -9 -10
-21 -10 -11 0 -17 5 -14 10 3 6 13 10 21 10 8 0 14 -4 14 -10z m1542 -14 c15
-14 30 -35 33 -48 9 -35 26 -53 72 -76 23 -12 44 -26 48 -32 11 -18 40 -11 99
25 76 46 142 55 188 27 18 -11 51 -40 73 -63 22 -23 70 -61 107 -85 66 -43
148 -118 148 -135 0 -14 -4 -12 -61 44 -30 29 -80 68 -111 86 -32 18 -58 36
-58 41 0 5 -28 32 -62 61 -59 49 -64 51 -112 47 -33 -3 -65 -14 -92 -31 -57
-38 -103 -50 -123 -33 -9 8 -36 23 -59 35 -33 17 -48 33 -63 66 -24 55 -52 75
-104 75 -29 0 -36 3 -25 10 26 17 74 10 102 -14z m-1607 -6 c-3 -5 -13 -10
-21 -10 -8 0 -12 5 -9 10 3 6 13 10 21 10 8 0 12 -4 9 -10z m321 -37 c-7 -7
-26 7 -26 19 0 6 6 6 15 -2 9 -7 13 -15 11 -17z m3960 8 c-3 -4 -44 -26 -90
-47 -47 -21 -82 -42 -79 -47 3 -6 1 -7 -5 -3 -6 4 -33 -2 -59 -13 -26 -11 -85
-30 -130 -42 -51 -13 -80 -25 -76 -32 3 -6 1 -7 -6 -3 -14 9 -113 -13 -106
-24 2 -4 -7 -5 -22 -2 -17 3 -24 1 -19 -6 3 -6 -1 -8 -11 -6 -10 3 -58 -7
-107 -21 -95 -28 -108 -37 -229 -153 -37 -36 -71 -62 -75 -57 -8 8 170 180
207 199 14 7 74 26 133 42 59 15 104 32 101 38 -4 5 -1 6 6 1 17 -10 292 65
284 78 -3 6 -1 7 6 3 14 -9 162 54 155 66 -3 4 1 6 8 3 7 -2 31 4 53 14 43 21
69 26 61 12z m-968 -30 c-7 -11 -16 -17 -20 -14 -10 5 10 33 23 33 5 0 4 -9
-3 -19z m-2950 -27 c-10 -10 -28 6 -28 24 0 15 1 15 17 -1 9 -9 14 -19 11 -23z
m2920 -16 c-2 -6 -10 -14 -16 -16 -7 -2 -10 2 -6 12 7 18 28 22 22 4z m-2878
-30 c0 -6 -7 -5 -15 2 -8 7 -15 17 -15 22 0 6 7 5 15 -2 8 -7 15 -17 15 -22z
m204 -106 c18 -35 20 -52 7 -52 -5 0 -12 11 -15 25 -4 17 -11 22 -22 18 -13
-5 -15 -2 -10 15 4 12 3 37 -2 56 -6 19 -7 38 -4 41 4 4 12 -11 18 -32 7 -22
19 -54 28 -71z m2636 98 c0 -10 -47 -26 -67 -22 -8 2 -13 -9 -13 -28 0 -16 -9
-57 -21 -90 -17 -50 -20 -73 -14 -131 5 -44 3 -69 -3 -69 -6 0 -13 33 -17 73
-6 61 -3 80 14 120 12 27 21 66 21 87 0 42 19 65 49 55 10 -3 22 -1 26 5 8 13
25 13 25 0z m-2800 -42 c0 -6 -7 -5 -15 2 -8 7 -15 17 -15 22 0 6 7 5 15 -2 8
-7 15 -17 15 -22z m330 12 c0 -5 -9 -10 -21 -10 -11 0 -17 5 -14 10 3 6 13 10
21 10 8 0 14 -4 14 -10z m1840 -8 c0 -5 -27 -17 -61 -27 -42 -13 -67 -28 -84
-49 -30 -38 -45 -28 -17 12 25 34 162 88 162 64z m-1905 -12 c-3 -5 -13 -10
-21 -10 -8 0 -12 5 -9 10 3 6 13 10 21 10 8 0 12 -4 9 -10z m-231 -26 c4 -10
1 -14 -6 -12 -15 5 -23 28 -10 28 5 0 13 -7 16 -16z m172 1 c-21 -16 -32 -13
-21 4 3 6 14 11 23 11 15 -1 15 -2 -2 -15z m-116 -52 c-21 -15 -40 -10 -40 11
0 8 10 11 30 8 30 -4 30 -5 10 -19z m19 -37 c8 -9 8 -16 2 -20 -6 -4 -15 3
-21 14 -12 23 2 27 19 6z m2226 -56 c4 -6 10 -8 15 -5 5 3 11 1 15 -4 3 -6 13
-8 23 -5 14 5 14 4 2 -4 -15 -10 -43 -15 -67 -13 -7 0 -13 10 -13 21 0 21 15
27 25 10z m-2149 -57 c-4 -4 -11 -1 -16 7 -16 25 -11 35 7 17 9 -9 13 -20 9
-24z m4328 -60 c13 -43 31 -80 53 -104 38 -42 218 -153 233 -144 6 4 19 24 30
45 28 55 94 105 200 150 51 22 112 51 135 65 24 14 46 25 49 25 3 0 3 -40 -1
-90 -6 -87 -5 -90 16 -90 11 0 21 -4 21 -10 0 -5 -14 -10 -31 -10 l-32 0 5 84
4 84 -66 -33 c-36 -18 -95 -45 -130 -59 -36 -15 -80 -41 -98 -59 -43 -41 -88
-117 -75 -125 38 -27 53 -43 76 -83 15 -25 27 -57 27 -71 0 -22 4 -25 23 -21
13 4 19 2 14 -3 -5 -5 -14 -9 -20 -9 -6 0 -25 -58 -43 -130 -30 -119 -33 -144
-35 -300 0 -101 3 -184 10 -205 14 -43 14 -43 -1 -38 -41 14 -45 348 -6 503
37 149 40 167 33 211 -5 35 -17 56 -52 92 -42 44 -46 46 -55 27 -9 -19 -106
-90 -158 -115 -14 -6 -38 -27 -55 -45 -27 -30 -48 -39 -190 -80 -88 -26 -236
-70 -330 -100 -258 -81 -277 -86 -272 -72 2 7 30 19 63 28 32 9 98 30 145 45
l86 29 -25 128 c-22 116 -27 129 -51 141 -23 12 -31 12 -61 -1 -23 -10 -83
-17 -168 -20 -132 -6 -133 -6 -175 -39 -46 -37 -68 -42 -91 -19 -13 14 -18 12
-40 -12 -31 -33 -35 -17 -6 20 26 33 26 35 -15 43 -19 3 -35 10 -35 14 0 4
-12 5 -26 2 -17 -3 -25 -1 -21 5 8 13 57 23 57 13 0 -4 15 -11 33 -14 22 -4
39 -16 50 -36 21 -35 46 -38 73 -9 35 39 73 52 138 47 70 -6 187 8 232 27 21
8 36 10 48 3 10 -5 19 -8 21 -6 10 9 -30 168 -42 168 -7 0 -88 -23 -180 -51
-283 -87 -433 -127 -439 -118 -3 5 1 11 8 14 21 7 356 103 598 171 124 36 250
73 281 83 l56 19 48 -61 c26 -33 79 -101 117 -150 38 -49 82 -105 99 -124 29
-34 31 -34 62 -22 40 17 139 85 149 104 11 19 -91 82 -103 63 -5 -7 -9 -17 -9
-21 0 -5 -9 -5 -20 -2 -13 4 -20 2 -20 -7 0 -10 -3 -9 -10 2 -16 25 -11 33 15
28 43 -9 31 27 -20 56 -54 32 -86 74 -110 141 -9 28 -21 58 -26 67 -12 23 -11
28 4 28 7 0 21 -30 31 -67z m-4288 10 c-4 -4 -11 -1 -16 7 -16 25 -11 35 7 17
9 -9 13 -20 9 -24z m3433 -9 c3 -16 1 -17 -13 -5 -19 16 -21 34 -3 29 6 -3 14
-13 16 -24z m-3389 -14 c0 -13 -11 -13 -30 0 -12 8 -11 10 8 10 12 0 22 -4 22
-10z m3510 -26 c0 -8 -4 -12 -10 -9 -5 3 -10 13 -10 21 0 8 5 12 10 9 6 -3 10
-13 10 -21z m-3466 0 c9 -22 -3 -32 -14 -14 -12 19 -12 30 -1 30 5 0 12 -7 15
-16z m3405 5 c15 2 21 -1 17 -8 -4 -6 -14 -11 -22 -11 -8 0 -14 -5 -14 -12 0
-6 -3 -8 -6 -5 -4 3 -15 2 -25 -4 -15 -7 -19 -6 -19 6 0 8 5 15 10 15 6 0 10
7 10 16 0 10 5 12 13 7 6 -4 23 -6 36 -4z m-2266 -49 c-4 -4 -42 -29 -83 -55
l-75 -48 165 -33 c186 -37 220 -40 220 -21 0 8 -7 36 -15 63 -18 59 -18 67 -4
62 6 -2 29 -67 51 -143 51 -183 77 -219 231 -319 62 -40 123 -85 136 -99 24
-27 40 -84 41 -150 0 -45 44 -137 65 -137 8 0 15 5 15 10 0 6 5 10 10 10 6 0
10 -9 10 -21 0 -16 -4 -19 -20 -14 -20 6 -19 2 17 -64 1 -2 9 -1 18 3 15 5 15
7 0 22 -22 22 -10 32 13 11 17 -16 20 -15 41 7 14 15 20 30 15 37 -5 8 -2 11
8 7 18 -7 98 69 98 93 0 8 13 28 29 43 17 16 27 35 24 43 -3 8 0 13 7 11 8 -2
17 12 22 36 5 22 19 47 34 58 16 14 24 27 21 39 -5 20 7 26 18 9 4 -6 12 -7
18 -3 7 4 -5 -12 -25 -36 -37 -44 -68 -115 -68 -157 0 -14 -9 -28 -22 -35 -13
-7 -26 -16 -29 -22 -22 -34 -112 -124 -151 -154 -49 -35 -57 -57 -38 -93 6
-11 6 -21 1 -24 -5 -3 -14 8 -21 24 -7 17 -19 30 -27 30 -9 0 -13 6 -9 15 6
15 -28 101 -43 107 -21 8 -61 109 -61 155 0 78 -16 117 -58 146 -37 25 -65 29
-91 13 -8 -5 -16 -4 -20 3 -11 17 -130 16 -186 -2 -27 -9 -126 -38 -220 -65
-135 -40 -169 -53 -167 -66 4 -20 -15 -22 -20 -2 -2 11 -26 7 -113 -20 -60
-19 -189 -57 -285 -85 -96 -28 -177 -53 -179 -55 -4 -3 19 -81 86 -293 l36
-114 66 7 c133 12 219 42 444 153 4 3 7 -1 7 -6 0 -15 -125 -76 -238 -116
-103 -36 -191 -55 -254 -55 -22 0 -49 -5 -61 -11 -29 -15 -232 -212 -229 -222
1 -5 -2 -6 -7 -3 -5 3 -45 -18 -88 -48 -140 -96 -329 -176 -520 -221 -67 -15
-120 -32 -117 -36 3 -5 -2 -6 -10 -3 -8 3 -48 -2 -88 -11 -88 -20 -278 -30
-278 -15 0 6 32 10 83 10 86 0 280 37 271 51 -3 5 2 6 10 3 18 -7 207 37 201
46 -3 4 7 5 22 2 19 -4 24 -2 18 8 -6 9 -4 11 4 5 15 -9 183 54 175 66 -3 5 1
6 9 3 21 -8 140 54 131 68 -4 7 -3 8 5 4 19 -12 166 98 284 211 59 56 114 103
122 103 8 0 15 3 15 6 0 6 -116 386 -188 614 -23 73 -45 126 -62 145 -72 80
-123 169 -146 248 -24 87 -20 112 16 90 16 -11 19 -9 25 17 4 17 10 30 14 30
15 0 20 -13 11 -31 -15 -27 -4 -44 43 -66 38 -19 59 -20 217 -18 164 2 179 3
235 28 146 63 237 110 330 170 55 36 104 63 108 60 5 -3 5 -9 0 -13z m2347 -6
c0 -8 -4 -14 -10 -14 -5 0 -10 9 -10 21 0 11 5 17 10 14 6 -3 10 -13 10 -21z
m-3456 0 c9 -24 7 -28 -9 -14 -17 14 -20 30 -6 30 5 0 12 -7 15 -16z m3576
-38 c0 -28 -17 -8 -25 29 -6 29 -6 29 9 11 9 -11 16 -29 16 -40z m-221 1 l26
-11 -30 -4 c-16 -2 -31 1 -33 7 -2 6 -11 11 -20 11 -15 1 -14 3 3 16 13 10 21
11 23 4 2 -6 16 -16 31 -23z m-3299 -19 c0 -6 -7 -5 -15 2 -8 7 -15 17 -15 22
0 6 7 5 15 -2 8 -7 15 -17 15 -22z m3365 22 c-3 -5 -13 -10 -21 -10 -8 0 -12
5 -9 10 3 6 13 10 21 10 8 0 12 -4 9 -10z m-3335 -56 c0 -8 -4 -12 -10 -9 -5
3 -10 13 -10 21 0 8 5 12 10 9 6 -3 10 -13 10 -21z m4078 6 c12 0 13 -3 5 -11
-14 -14 -33 -3 -32 19 0 11 3 12 6 5 2 -7 12 -13 21 -13z m86 -29 c3 -5 -8
-11 -24 -15 -31 -6 -63 1 -56 13 6 10 74 12 80 2z m-4114 -11 c0 -13 -11 -13
-30 0 -12 8 -11 10 8 10 12 0 22 -4 22 -10z m4110 -45 c7 -8 8 -15 2 -15 -5 0
-15 7 -22 15 -7 8 -8 15 -2 15 5 0 15 -7 22 -15z m63 -25 c-6 -22 -8 -23 -38
-10 -19 8 -19 8 5 18 36 15 39 14 33 -8z m-1504 -122 c-7 -13 -4 -20 11 -28
11 -6 18 -16 14 -21 -4 -6 -12 -4 -23 5 -10 9 -31 16 -47 17 l-29 1 28 10 c16
6 30 20 33 35 5 18 9 21 15 12 4 -7 3 -21 -2 -31z m-199 2 c0 -5 -6 -10 -14
-10 -8 0 -18 5 -21 10 -3 6 3 10 14 10 12 0 21 -4 21 -10z m60 -10 c0 -5 -9
-10 -20 -10 -11 0 -20 5 -20 10 0 6 9 10 20 10 11 0 20 -4 20 -10z m60 -10 c0
-5 -9 -10 -20 -10 -11 0 -20 5 -20 10 0 6 9 10 20 10 11 0 20 -4 20 -10z
m1955 -30 c-3 -5 -12 -10 -20 -10 -8 0 -17 5 -20 10 -4 6 5 10 20 10 15 0 24
-4 20 -10z m65 -11 c0 -10 -12 -11 -34 -3 -9 3 -14 10 -11 14 6 10 45 1 45
-11z m-2388 -29 c-23 -21 -53 -57 -67 -80 -14 -22 -30 -40 -36 -40 -11 0 0 21
50 92 21 29 66 63 90 67 2 1 -15 -17 -37 -39z m874 -19 c84 -55 91 -63 132
-140 24 -44 39 -81 34 -81 -6 0 -29 33 -51 74 -40 73 -91 124 -111 111 -6 -4
-9 -1 -8 7 2 7 -5 12 -14 12 -10 -1 -16 3 -15 10 1 6 -6 10 -15 10 -10 -1 -16
3 -15 10 1 6 -6 10 -16 10 -10 -1 -16 1 -13 4 3 3 1 11 -5 19 -23 27 11 12 97
-46z m1574 49 c0 -5 -9 -10 -21 -10 -11 0 -17 5 -14 10 3 6 13 10 21 10 8 0
14 -4 14 -10z m-1920 -10 c0 -13 -11 -13 -30 0 -12 8 -11 10 8 10 12 0 22 -4
22 -10z m1980 0 c0 -13 -11 -13 -30 0 -12 8 -11 10 8 10 12 0 22 -4 22 -10z
m60 0 c0 -5 -9 -10 -20 -10 -11 0 -20 5 -20 10 0 6 9 10 20 10 11 0 20 -4 20
-10z m53 -7 c-7 -2 -19 -2 -25 0 -7 3 -2 5 12 5 14 0 19 -2 13 -5z m67 -3 c0
-5 -6 -10 -14 -10 -8 0 -18 5 -21 10 -3 6 3 10 14 10 12 0 21 -4 21 -10z
m-2116 -6 c9 -3 14 -10 11 -15 -7 -10 -35 0 -35 12 0 11 3 11 24 3z m56 -34
c8 -5 11 -12 7 -16 -4 -4 -15 0 -24 9 -18 18 -8 23 17 7z m60 -30 c0 -5 -9
-10 -20 -10 -11 0 -20 5 -20 10 0 6 9 10 20 10 11 0 20 -4 20 -10z m55 -10 c3
-5 -3 -10 -14 -10 -12 0 -21 5 -21 10 0 6 6 10 14 10 8 0 18 -4 21 -10z m55
-10 c12 -8 11 -10 -7 -10 -13 0 -23 5 -23 10 0 13 11 13 30 0z m65 -22 c-11
-6 -23 -16 -27 -22 -10 -15 -20 -2 -12 18 4 9 17 16 33 16 24 -1 25 -1 6 -12z
m68 1 c-8 -8 -16 -8 -30 0 -16 9 -14 10 12 11 21 0 26 -3 18 -11z m960 -19
c-3 -11 -9 -20 -14 -20 -10 0 -12 24 -2 33 13 13 21 7 16 -13z m-353 -15 c0
-8 5 -15 11 -15 8 0 8 -4 0 -14 -7 -8 -10 -26 -7 -40 7 -37 -10 -32 -18 5 -9
46 -7 79 4 79 6 0 10 -7 10 -15z m-1507 -38 c-7 -11 -23 12 -23 33 1 12 4 11
15 -4 8 -10 12 -23 8 -29z m773 18 c-21 -16 -32 -13 -21 4 3 6 14 11 23 11 15
-1 15 -2 -2 -15z m687 -27 c-2 -5 -13 -8 -24 -8 -17 0 -18 3 -9 20 9 16 13 18
24 8 8 -7 12 -16 9 -20z m394 2 c-2 -35 -13 -39 -22 -9 -6 18 6 38 22 39 1 0
1 -13 0 -30z m-1090 -15 c9 -25 -4 -29 -17 -6 -7 15 -7 21 0 21 6 0 13 -7 17
-15z m635 -23 c10 -21 47 -64 83 -96 66 -58 76 -73 51 -73 -8 0 -14 3 -13 6 1
3 -22 28 -51 56 -59 55 -86 88 -96 123 -12 36 8 25 26 -16z m398 28 c-20 -13
-43 -13 -35 0 3 6 16 10 28 10 18 0 19 -2 7 -10z m-1006 -56 c9 -22 -3 -32
-14 -14 -12 19 -12 30 -1 30 5 0 12 -7 15 -16z m1066 -5 c0 -11 -4 -17 -10
-14 -5 3 -10 13 -10 21 0 8 5 14 10 14 6 0 10 -9 10 -21z m-1816 -15 c9 -22
-3 -32 -14 -14 -12 19 -12 30 -1 30 5 0 12 -7 15 -16z m-1095 -64 c73 -47 81
-50 106 -38 25 11 29 10 50 -16 20 -25 26 -28 64 -21 54 9 54 -9 -1 -23 -39
-10 -43 -9 -67 17 -22 23 -30 26 -52 19 -23 -8 -39 -1 -113 47 -47 30 -86 57
-86 60 0 13 28 1 99 -45z m1877 12 c-9 -8 -26 10 -26 26 1 15 2 15 15 -2 8
-11 13 -21 11 -24z m1044 4 c0 -14 -4 -28 -10 -31 -5 -3 -10 4 -10 16 0 16 -5
20 -20 16 -22 -6 -28 8 -7 16 30 13 47 7 47 -17z m-1806 -12 c4 -10 1 -14 -6
-12 -15 5 -23 28 -10 28 5 0 13 -7 16 -16z m1721 6 c-3 -5 -13 -10 -21 -10 -8
0 -14 5 -14 10 0 6 9 10 21 10 11 0 17 -4 14 -10z m-3125 -10 c0 -5 -9 -10
-20 -10 -11 0 -20 5 -20 10 0 6 9 10 20 10 11 0 20 -4 20 -10z m3060 -10 c-8
-5 -18 -6 -24 -3 -5 4 -1 10 10 13 24 9 34 2 14 -10z m-3000 -10 c0 -5 -6 -10
-14 -10 -8 0 -18 5 -21 10 -3 6 3 10 14 10 12 0 21 -4 21 -10z m2127 -5 c9
-25 -4 -29 -17 -6 -7 15 -7 21 0 21 6 0 13 -7 17 -15z m836 -5 c3 -11 1 -23
-4 -26 -5 -3 -9 2 -9 10 0 9 -9 16 -21 16 -11 0 -17 5 -14 10 11 17 42 11 48
-10z m-63 1 c0 -5 -9 -11 -20 -14 -22 -6 -28 8 -7 16 19 8 27 8 27 -2z m-1526
-16 c11 -8 17 -17 14 -21 -8 -8 -48 14 -48 26 0 14 12 12 34 -5z m1786 5 c0
-5 -4 -10 -10 -10 -5 0 -10 5 -10 10 0 6 5 10 10 10 6 0 10 -4 10 -10z m-3130
-10 c0 -5 -4 -10 -9 -10 -6 0 -13 5 -16 10 -3 6 1 10 9 10 9 0 16 -4 16 -10z
m1300 -25 c-7 -9 -15 -13 -17 -11 -7 7 7 26 19 26 6 0 6 -6 -2 -15z m116 -12
c-8 -8 -36 5 -36 17 0 7 6 7 21 0 11 -7 18 -14 15 -17z m708 11 c10 -25 -1
-29 -14 -5 -6 12 -7 21 -1 21 5 0 12 -7 15 -16z m86 6 c0 -5 -5 -10 -11 -10
-5 0 -7 5 -4 10 3 6 8 10 11 10 2 0 4 -4 4 -10z m535 0 c-3 -5 -12 -10 -19
-10 -9 0 -12 -9 -8 -26 3 -19 1 -25 -7 -20 -15 9 -14 39 1 54 14 14 42 16 33
2z m192 -15 c-4 -8 -2 -17 3 -20 13 -8 13 -25 0 -25 -13 0 -32 38 -25 50 10
16 28 12 22 -5z m-1467 -15 c0 -5 -9 -6 -20 -3 -11 3 -17 9 -15 14 7 10 35 1
35 -11z m745 -25 c20 -8 19 -9 -2 -12 -27 -5 -69 27 -50 39 7 4 16 2 22 -5 6
-7 19 -17 30 -22z m-954 -8 c-8 -8 -11 -7 -11 4 0 20 13 34 18 19 3 -7 -1 -17
-7 -23z m268 24 c8 -5 11 -16 7 -27 -6 -17 -5 -17 9 0 12 16 18 17 28 7 9 -10
8 -14 -6 -22 -9 -6 -15 -14 -12 -20 4 -5 2 -9 -2 -9 -15 0 -33 23 -33 42 0 18
-11 24 -23 11 -4 -3 -2 -12 4 -20 12 -14 4 -16 -24 -5 -16 7 -16 9 -2 30 17
24 32 27 54 13z m1366 -11 c-3 -5 -15 -10 -26 -10 -11 0 -17 5 -14 10 3 6 15
10 26 10 11 0 17 -4 14 -10z m-628 -26 c-3 -3 -12 -4 -19 -1 -8 3 -5 6 6 6 11
1 17 -2 13 -5z m466 -34 c-7 -8 -22 24 -16 34 4 5 10 1 13 -10 4 -10 6 -21 3
-24z m227 7 c0 -18 -2 -19 -10 -7 -13 20 -13 43 0 35 6 -3 10 -16 10 -28z
m-1723 -2 c-4 -8 -11 -15 -17 -15 -7 0 -7 6 0 21 13 23 26 19 17 -6z m993 -15
c12 -9 19 -39 11 -45 -5 -3 -12 2 -15 11 -3 8 -10 13 -14 10 -5 -3 -9 11 -10
32 -1 32 0 34 10 17 6 -11 14 -22 18 -25z m-614 -8 c-9 -8 -26 10 -26 26 1 15
2 15 15 -2 8 -11 13 -21 11 -24z m-411 -21 c-3 -6 -14 -11 -23 -11 -15 1 -15
2 2 15 21 16 32 13 21 -4z m459 -12 c-4 -6 -11 -6 -20 2 -21 17 -17 31 6 19
11 -6 18 -15 14 -21z m1086 11 c0 -11 -4 -20 -10 -20 -5 0 -10 9 -10 20 0 11
5 20 10 20 6 0 10 -9 10 -20z m-1590 -19 c0 -11 -31 -24 -39 -16 -3 3 1 10 9
15 19 12 30 12 30 1z m-520 -15 c0 -2 -9 -6 -20 -9 -11 -3 -20 -1 -20 4 0 5 9
9 20 9 11 0 20 -2 20 -4z m45 -15 c-3 -6 -11 -8 -17 -5 -6 4 -5 9 3 15 16 10
23 4 14 -10z m411 -3 c-10 -6 -20 -7 -24 -3 -9 8 20 25 31 18 5 -3 2 -10 -7
-15z m608 7 c3 -8 2 -15 -3 -15 -5 0 -14 7 -21 15 -10 12 -10 15 3 15 8 0 17
-7 21 -15z m572 -23 c-9 -8 -26 10 -26 26 1 15 2 15 15 -2 8 -11 13 -21 11
-24z m477 8 c3 -11 1 -20 -4 -20 -5 0 -9 9 -9 20 0 11 2 20 4 20 2 0 6 -9 9
-20z m-2193 -10 c0 -5 -9 -10 -20 -10 -11 0 -20 5 -20 10 0 6 9 10 20 10 11 0
20 -4 20 -10z m490 0 c0 -5 -7 -10 -16 -10 -8 0 -12 5 -9 10 3 6 10 10 16 10
5 0 9 -4 9 -10z m-550 -9 c0 -11 -31 -24 -39 -16 -3 3 1 10 9 15 19 12 30 12
30 1z m110 -25 c-13 -25 -38 -41 -49 -31 -3 3 1 10 9 15 10 7 11 10 3 10 -7 0
-13 5 -13 10 0 6 9 10 19 10 11 0 23 5 26 11 14 21 18 -2 5 -25z m1120 9 c7
-8 8 -15 2 -15 -5 0 -15 7 -22 15 -7 8 -8 15 -2 15 5 0 15 -7 22 -15z m578 3
c9 -9 12 -9 12 0 0 7 5 12 10 12 6 0 10 -8 10 -18 0 -10 5 -23 12 -30 6 -6 8
-15 4 -19 -4 -4 -12 0 -18 10 -5 10 -21 22 -34 27 -13 5 -24 14 -24 20 0 14
13 13 28 -2z m-1312 -13 c-23 -17 -36 -19 -36 -6 0 11 18 19 40 20 11 0 10 -3
-4 -14z m-891 -17 c11 -13 18 -27 17 -32 -2 -5 4 -3 13 4 8 7 19 9 23 5 4 -4
1 -10 -5 -12 -7 -3 -13 -11 -13 -19 0 -10 -5 -12 -12 -7 -21 13 -158 11 -158
-3 0 -6 11 -33 25 -60 14 -27 20 -41 13 -30 -48 69 -58 90 -53 107 7 20 30 26
40 9 4 -7 13 -6 27 1 11 6 31 8 44 5 22 -6 23 -4 14 20 -6 14 -10 27 -10 30 0
11 17 2 35 -18z m332 5 c-9 -9 -20 -13 -24 -9 -4 4 -1 11 7 16 25 16 35 11 17
-7z m2333 -9 c0 -8 -4 -14 -10 -14 -5 0 -10 9 -10 21 0 11 5 17 10 14 6 -3 10
-13 10 -21z m-2375 -4 c4 -6 -6 -10 -22 -9 -25 0 -26 1 -8 9 11 5 21 9 22 9 1
1 5 -3 8 -9z m405 -10 c14 -14 27 -18 50 -14 40 8 38 -6 -4 -33 -24 -16 -36
-19 -39 -10 -3 8 -11 6 -26 -7 -11 -11 -29 -24 -39 -30 -10 -6 -51 -33 -91
-60 -40 -26 -105 -64 -144 -83 -40 -19 -94 -48 -122 -64 -27 -15 -86 -40 -130
-55 -44 -15 -86 -31 -93 -37 -15 -12 -30 -1 -16 12 5 5 41 19 79 31 112 36
485 237 485 261 0 5 6 9 13 9 7 0 26 13 41 29 24 24 26 32 17 50 -15 26 -7 27
19 1z m130 5 c-14 -17 -40 -20 -40 -6 0 8 18 16 44 20 5 0 3 -6 -4 -14z m-655
-5 c4 -6 -5 -10 -20 -10 -15 0 -24 4 -20 10 3 6 12 10 20 10 8 0 17 -4 20 -10z
m60 0 c4 -6 -5 -10 -20 -10 -15 0 -24 4 -20 10 3 6 12 10 20 10 8 0 17 -4 20
-10z m205 0 c0 -5 -10 -10 -22 -10 -19 0 -20 2 -8 10 19 13 30 13 30 0z m1217
-5 c9 -25 -4 -29 -17 -6 -7 15 -7 21 0 21 6 0 13 -7 17 -15z m-1544 -2 c-7 -2
-21 -2 -30 0 -10 3 -4 5 12 5 17 0 24 -2 18 -5z m252 -23 c-10 -11 -22 -20
-26 -20 -5 0 -1 9 8 20 10 11 22 20 27 20 5 0 1 -9 -9 -20z m-3225 0 c8 -5 11
-12 7 -16 -4 -4 -15 0 -24 9 -18 18 -8 23 17 7z m5165 0 c3 -5 -3 -10 -14 -10
-12 0 -21 5 -21 10 0 6 6 10 14 10 8 0 18 -4 21 -10z m379 -6 c11 -28 6 -39
-9 -20 -8 11 -15 23 -15 28 0 14 18 9 24 -8z m-2426 -11 c-2 -10 -10 -17 -16
-15 -7 1 -12 -5 -12 -13 0 -8 -4 -15 -10 -15 -16 0 -11 30 6 37 13 5 13 7 2
14 -9 6 -6 9 10 9 17 0 22 -5 20 -17z m2090 -2 c3 -8 -1 -12 -9 -9 -7 2 -15
10 -17 17 -3 8 1 12 9 9 7 -2 15 -10 17 -17z m-2048 -11 c-19 -12 -30 -12 -30
-1 0 10 31 20 40 14 2 -2 -2 -8 -10 -13z m-3100 -21 c0 -5 -9 -4 -19 3 -11 7
-17 16 -14 20 5 10 33 -10 33 -23z m2860 -5 c0 -14 -4 -23 -10 -19 -5 3 -10
15 -10 26 0 10 5 19 10 19 6 0 10 -12 10 -26z m90 11 c0 -9 -6 -12 -15 -9 -8
4 -15 10 -15 15 0 5 7 9 15 9 8 0 15 -7 15 -15z m1555 -6 c11 -17 -1 -21 -15
-4 -8 9 -8 15 -2 15 6 0 14 -5 17 -11z m670 -27 c-8 -9 -25 20 -18 31 3 5 10
2 15 -7 6 -10 7 -20 3 -24z m-5130 7 c12 -19 -5 -23 -22 -6 -16 16 -16 17 -1
17 9 0 20 -5 23 -11z m2955 1 c0 -5 -9 -10 -20 -10 -11 0 -20 5 -20 10 0 6 9
10 20 10 11 0 20 -4 20 -10z m-60 -9 c0 -12 -20 -25 -27 -18 -7 7 6 27 18 27
5 0 9 -4 9 -9z m1600 -22 c0 -5 -4 -9 -10 -9 -5 0 -10 7 -10 16 0 8 5 12 10 9
6 -3 10 -10 10 -16z m687 4 c3 -7 -3 -9 -16 -6 -12 3 -21 10 -21 15 0 13 32 6
37 -9z m-5122 -3 c3 -5 -1 -10 -9 -10 -8 0 -18 5 -21 10 -3 6 1 10 9 10 8 0
18 -4 21 -10z m2785 -2 c0 -11 -28 -10 -35 1 -3 6 4 9 15 8 11 -1 20 -5 20 -9z
m-2742 -34 c-10 -10 -28 6 -28 24 0 15 1 15 17 -1 9 -9 14 -19 11 -23z m5426
24 c-5 -8 -2 -9 9 -5 9 3 19 2 22 -4 4 -6 -8 -8 -31 -7 -43 4 -60 28 -19 28
17 0 24 -4 19 -12z m-314 -17 c0 -5 10 -11 23 -14 20 -3 20 -4 4 -12 -13 -5
-25 -2 -40 14 -19 18 -19 21 -4 21 9 0 17 -4 17 -9z m400 -1 c0 -13 -11 -13
-30 0 -12 8 -11 10 8 10 12 0 22 -4 22 -10z m60 0 c0 -5 7 -10 15 -10 8 0 15
-7 15 -16 0 -13 -3 -14 -14 -5 -22 19 -47 3 -40 -26 6 -23 5 -24 -15 -11 -15
9 -24 10 -29 2 -4 -6 -14 -14 -22 -17 -12 -4 -11 -6 3 -6 9 -1 17 -6 17 -12 0
-7 -9 -9 -22 -5 -13 3 -29 6 -35 6 -7 0 -13 9 -13 20 0 13 -7 20 -19 20 -11 0
-23 5 -26 10 -4 6 8 10 29 10 20 0 36 -4 36 -10 0 -13 16 -9 55 11 18 10 29
23 27 33 -2 10 4 16 18 16 11 0 20 -4 20 -10z m-5530 -20 c8 -5 12 -12 9 -15
-8 -8 -39 5 -39 16 0 11 11 11 30 -1z m5435 0 c3 -5 -1 -10 -9 -10 -8 0 -18 5
-21 10 -3 6 1 10 9 10 8 0 18 -4 21 -10z m-5385 -30 c8 -5 12 -12 9 -15 -8 -8
-39 5 -39 16 0 11 11 11 30 -1z m5040 -11 c0 -11 -4 -17 -10 -14 -5 3 -10 13
-10 21 0 8 5 14 10 14 6 0 10 -9 10 -21z m450 7 c0 -8 -4 -18 -10 -21 -5 -3
-10 3 -10 14 0 12 5 21 10 21 6 0 10 -6 10 -14z m55 -7 c11 -17 -1 -21 -15 -4
-8 9 -8 15 -2 15 6 0 14 -5 17 -11z m-5485 -31 c0 -6 -7 -7 -16 -4 -9 3 -18 6
-20 6 -3 0 -3 4 1 10 7 11 35 2 35 -12z m2500 -45 c44 -83 44 -83 33 -83 -8 0
-83 130 -83 144 0 21 20 -3 50 -61z m2960 42 c10 -12 10 -15 -4 -15 -9 0 -16
7 -16 15 0 8 2 15 4 15 2 0 9 -7 16 -15z m-451 -8 c6 -8 8 -17 4 -20 -7 -8
-33 11 -33 24 0 13 16 11 29 -4z m421 1 c0 -4 -6 -8 -14 -8 -8 0 -21 -3 -30
-6 -10 -4 -16 -1 -16 9 0 11 9 15 30 15 17 -1 30 -5 30 -10z m-5380 -20 c0
-13 -23 -5 -28 10 -2 7 2 10 12 6 9 -3 16 -11 16 -16z m5160 12 c0 -5 -7 -10
-16 -10 -8 0 -12 5 -9 10 3 6 10 10 16 10 5 0 9 -4 9 -10z m295 -29 c-3 -12
-11 -21 -16 -21 -10 0 -12 21 -3 45 10 24 27 2 19 -24z m-5421 -6 c3 -8 1 -15
-4 -15 -6 0 -10 7 -10 15 0 8 2 15 4 15 2 0 6 -7 10 -15z m4946 -15 c0 -11 -4
-20 -10 -20 -5 0 -10 9 -10 20 0 11 5 20 10 20 6 0 10 -9 10 -20z m508 -12 c2
-11 -5 -15 -22 -15 -22 0 -23 2 -13 18 13 22 31 20 35 -3z m-2618 -15 c5 -191
2 -177 88 -408 53 -141 99 -404 88 -502 -5 -47 -3 -58 29 -112 37 -62 40 -71
27 -71 -4 0 -22 26 -40 59 -28 51 -32 68 -32 130 0 174 -51 410 -127 596 -16
39 -35 102 -41 140 -14 83 -14 185 -1 185 5 0 9 -8 9 -17z m2595 -22 c-3 -6
-12 -11 -20 -11 -7 0 -17 -9 -20 -20 -7 -21 -25 -28 -25 -9 0 6 -9 9 -20 6
-25 -6 -48 19 -32 35 9 9 15 7 26 -7 14 -19 15 -19 35 -1 12 11 21 16 21 12 0
-4 8 -3 17 3 20 11 28 7 18 -8z m-460 -12 c5 -14 10 -17 19 -10 9 8 12 2 13
-25 1 -29 -1 -33 -13 -23 -8 6 -14 17 -14 24 0 7 -7 18 -15 25 -17 14 -20 30
-6 30 5 0 13 -9 16 -21z m541 7 c5 -13 12 -13 51 -1 25 8 51 11 58 9 15 -6 38
-54 29 -63 -4 -3 -9 -1 -11 5 -13 37 -27 44 -70 33 -24 -7 -44 -18 -46 -28 -3
-12 -7 -9 -15 12 -6 15 -16 27 -22 27 -5 0 -10 5 -10 10 0 15 30 12 36 -4z
m-1213 -28 c-8 -42 -66 -81 -130 -86 -29 -2 -53 -8 -53 -12 0 -4 -18 -20 -40
-35 -22 -15 -42 -36 -45 -46 -9 -26 -25 -24 -74 11 -36 26 -111 50 -157 50 -8
0 -16 -11 -20 -24 -3 -14 -12 -27 -21 -30 -8 -3 -11 -11 -8 -17 4 -6 2 -31 -5
-55 -9 -32 -21 -49 -40 -59 -15 -8 -44 -37 -64 -65 -33 -45 -40 -50 -75 -50
-50 0 -71 8 -71 28 0 12 3 13 12 4 7 -7 27 -12 45 -12 26 0 33 4 33 19 0 12
23 34 65 61 36 23 66 47 67 54 0 6 2 36 4 66 5 101 16 170 25 164 5 -3 9 -18
9 -33 0 -27 2 -28 80 -39 62 -9 91 -19 125 -42 l43 -30 56 56 c48 47 61 55 84
50 33 -8 112 29 127 59 26 52 37 57 28 13z m58 5 c13 -16 12 -17 -3 -4 -10 7
-18 15 -18 17 0 8 8 3 21 -13z m-1481 -43 c0 -5 -7 -10 -15 -10 -8 0 -15 5
-15 10 0 6 7 10 15 10 8 0 15 -4 15 -10z m-3531 -26 c1 -1 1 -8 -1 -14 -2 -7
-13 -3 -28 11 l-25 21 25 -7 c14 -4 27 -9 29 -11z m5704 -7 c4 3 7 -1 7 -10 0
-9 -7 -17 -15 -17 -8 0 -15 2 -15 4 0 2 -3 13 -7 23 -6 15 -4 16 9 6 8 -7 18
-10 21 -6z m-5753 -32 c-7 -8 -17 -12 -22 -9 -5 3 -1 15 9 26 20 22 32 6 13
-17z m150 4 c-7 -11 -14 -18 -17 -15 -8 8 5 36 17 36 7 0 7 -6 0 -21z m-110
-26 c0 -20 -3 -24 -11 -16 -7 7 -9 19 -6 27 10 24 17 19 17 -11z m74 -7 c-6
-16 -24 -23 -24 -8 0 10 22 33 27 28 2 -2 1 -11 -3 -20z m5646 3 c0 -11 -4
-17 -10 -14 -5 3 -10 13 -10 21 0 8 5 14 10 14 6 0 10 -9 10 -21z m-5717 -49
c3 -11 1 -23 -4 -26 -5 -3 -9 6 -9 20 0 31 6 34 13 6z m67 3 c0 -5 -5 -15 -10
-23 -8 -12 -10 -11 -10 8 0 12 5 22 10 22 6 0 10 -3 10 -7z m130 -2 c0 -11
-31 -24 -39 -16 -3 3 1 10 9 15 19 12 30 12 30 1z m5540 -6 c10 -12 10 -15 -3
-15 -8 0 -17 7 -21 15 -3 8 -2 15 3 15 5 0 14 -7 21 -15z m-5940 -20 c0 -14
-4 -25 -10 -25 -5 0 -10 11 -10 25 0 14 5 25 10 25 6 0 10 -11 10 -25z m337
-12 c-9 -9 -19 -14 -23 -11 -10 10 6 28 24 28 15 0 15 -1 -1 -17z m5707 -3
c-10 -4 -21 -6 -24 -3 -8 7 24 22 34 16 5 -4 1 -10 -10 -13z m-5654 -4 c0 -8
-4 -18 -10 -21 -5 -3 -10 3 -10 14 0 12 5 21 10 21 6 0 10 -6 10 -14z m5600 4
c12 -8 11 -10 -7 -10 -13 0 -23 5 -23 10 0 13 11 13 30 0z m-5740 -21 c0 -15
-5 -16 -40 -7 -22 6 -40 14 -40 19 0 4 18 7 40 6 30 -1 40 -5 40 -18z m5846
-6 c-7 -7 -26 7 -26 19 0 6 6 6 15 -2 9 -7 13 -15 11 -17z m-6056 8 c0 -11
-31 -24 -39 -16 -3 3 1 10 9 15 19 12 30 12 30 1z m55 -1 c-3 -5 -13 -10 -21
-10 -8 0 -14 5 -14 10 0 6 9 10 21 10 11 0 17 -4 14 -10z m60 0 c3 -5 -3 -10
-14 -10 -12 0 -21 5 -21 10 0 6 6 10 14 10 8 0 18 -4 21 -10z m6046 -1 c16 -8
18 -13 9 -25 -10 -11 -7 -16 15 -24 14 -5 32 -10 39 -10 6 0 17 -5 23 -11 8
-8 15 -4 27 12 12 18 18 21 28 11 10 -10 10 -17 0 -32 -16 -26 -5 -98 18 -125
10 -12 20 -44 23 -79 3 -33 10 -62 14 -65 4 -3 9 -26 10 -50 2 -24 4 -46 6
-48 3 -2 17 1 32 7 53 20 74 -11 35 -50 -16 -16 -18 -25 -10 -45 13 -34 13
-35 -6 -35 -13 0 -15 -7 -10 -31 3 -17 6 -38 6 -45 0 -8 9 -14 20 -14 11 0 20
7 20 15 0 17 13 19 56 6 23 -6 50 -4 95 9 57 15 64 20 67 44 4 29 33 46 78 46
39 0 28 -18 -13 -22 -33 -3 -39 -7 -43 -32 -4 -26 -12 -32 -65 -48 -41 -13
-76 -17 -112 -13 -43 4 -53 2 -53 -10 0 -16 -36 -21 -56 -7 -6 4 -15 31 -19
60 -6 43 -4 52 8 52 12 0 14 8 10 33 -3 23 0 37 11 46 27 22 18 29 -29 23
l-45 -5 -1 39 c-1 22 -1 43 0 48 1 4 -3 14 -10 22 -6 7 -13 41 -16 74 -4 44
-11 65 -24 74 -14 9 -19 27 -21 64 -2 40 -6 52 -18 52 -9 0 -20 4 -26 10 -5 5
-24 10 -42 12 -37 3 -58 28 -40 46 9 9 6 12 -12 13 -32 2 -32 2 -52 -6 -10 -4
-18 -3 -18 3 0 10 21 17 58 21 7 0 22 -4 33 -10z m-5911 -14 c-7 -8 -17 -15
-22 -15 -6 0 -5 7 2 15 7 8 17 15 22 15 6 0 5 -7 -2 -15z m83 -35 c-3 -11 -9
-20 -14 -20 -11 0 -11 3 -3 24 9 23 23 20 17 -4z m6454 -166 c9 -9 19 -36 23
-60 6 -40 5 -44 -21 -54 -44 -19 -62 -9 -78 42 -14 46 -14 48 10 67 29 25 46
26 66 5z m-3242 -23 c3 -6 -2 -14 -11 -19 -9 -5 -14 -15 -10 -21 4 -6 12 -9
17 -5 6 3 7 -4 4 -18 -3 -13 5 -55 20 -97 35 -103 33 -124 -8 -139 -41 -15
-87 -16 -87 -2 0 6 14 10 31 10 39 0 69 16 69 38 0 28 -61 206 -78 224 -13 16
-13 19 9 27 31 13 37 13 44 2z"/>
<path d="M3131 4408 c-1 -16 4 -28 9 -28 12 0 12 8 0 35 -8 18 -9 17 -9 -7z"/>
<path d="M4685 4291 c-3 -6 -15 -11 -26 -11 -10 0 -19 -4 -19 -9 0 -4 11 -6
25 -3 25 4 41 19 32 28 -3 3 -8 1 -12 -5z"/>
<path d="M6440 3450 c-30 -10 -88 -28 -129 -40 l-74 -22 7 -45 c11 -82 26
-123 44 -123 15 -1 16 -2 1 -13 -15 -11 -14 -23 10 -139 14 -69 29 -129 32
-132 3 -4 26 1 50 9 24 9 116 36 204 61 88 25 170 52 182 59 38 25 38 52 1 94
-18 20 -76 92 -128 160 -52 68 -100 129 -106 137 -14 18 -26 17 -94 -6z m10
-121 c0 -12 7 -19 19 -19 11 0 23 -4 26 -10 3 -6 -5 -10 -19 -10 -14 0 -29 -8
-35 -17 -5 -10 -13 -15 -17 -10 -4 4 0 15 9 25 11 12 13 22 7 32 -13 20 -13
43 0 35 6 -3 10 -15 10 -26z m-56 -79 c-10 -4 -23 -5 -28 -2 -5 3 -1 9 10 12
10 4 23 5 28 2 5 -3 1 -9 -10 -12z m-49 -10 c-3 -5 -13 -10 -21 -10 -8 0 -12
5 -9 10 3 6 13 10 21 10 8 0 12 -4 9 -10z"/>
<path d="M3475 3310 c-22 -4 -83 -27 -136 -52 -53 -25 -114 -51 -135 -58 -42
-13 -61 -26 -52 -35 5 -6 142 -33 576 -116 l152 -29 43 27 c23 15 44 28 46 30
2 2 -1 13 -8 26 -6 12 -20 49 -29 81 -10 33 -24 63 -32 67 -18 9 -349 70 -370
68 -8 -1 -33 -5 -55 -9z"/>
<path d="M2680 3244 c0 -3 7 -33 16 -67 15 -59 70 -149 139 -227 24 -27 42
-71 76 -184 24 -82 49 -151 56 -153 16 -6 602 170 597 179 -3 4 1 5 8 3 8 -3
90 17 183 45 93 27 176 50 185 50 13 0 13 1 0 10 -10 6 34 8 123 7 75 -1 137
-1 137 0 0 1 -28 19 -62 39 -35 21 -82 56 -105 77 l-42 39 -55 -31 -55 -32
-163 31 c-90 16 -233 43 -318 60 -165 32 -206 36 -150 16 19 -7 40 -11 46 -9
6 2 15 -7 21 -19 8 -18 7 -26 -5 -37 -12 -12 -16 -12 -23 2 -11 19 -47 11 -70
-15 -23 -25 -29 -23 -29 12 0 27 3 30 24 24 16 -4 25 -1 29 10 7 19 -45 32
-70 17 -10 -6 -12 -11 -5 -11 20 0 13 -20 -8 -20 -25 0 -70 21 -70 33 0 5 11
2 25 -7 22 -14 25 -15 25 -1 0 8 5 15 12 15 9 0 9 3 0 12 -6 6 -25 11 -41 10
-19 0 -34 6 -40 15 -8 15 -10 15 -27 -2 -17 -17 -17 -17 4 -11 18 6 22 3 22
-14 0 -16 -4 -19 -23 -15 -29 8 -47 -13 -36 -40 6 -17 8 -17 8 -2 1 24 17 21
35 -5 14 -20 21 -18 17 5 -2 11 17 8 25 -4 3 -6 1 -15 -6 -19 -7 -4 -10 -15
-7 -24 8 -21 -2 -46 -18 -46 -12 0 -45 31 -45 42 0 4 9 4 20 1 16 -4 19 -2 14
11 -4 10 -15 16 -28 14 -15 -2 -24 5 -33 25 -7 16 -17 26 -22 23 -5 -4 -12 -2
-16 4 -3 6 0 13 8 16 9 3 12 14 9 30 -3 18 0 24 12 24 10 0 14 5 10 11 -4 8 1
9 16 4 15 -5 26 -2 31 6 8 11 13 10 27 -6 21 -25 68 -20 52 5 -8 12 -37 15
-157 16 -133 0 -152 2 -191 22 -54 29 -92 43 -92 36z m489 -203 c16 -10 6 -31
-15 -31 -17 0 -19 16 -1 24 6 4 2 4 -10 2 -13 -2 -26 0 -29 5 -7 12 37 12 55
0z m99 -29 c2 -7 -2 -10 -12 -6 -9 3 -16 11 -16 16 0 13 23 5 28 -10z m-148
-7 c0 -8 -4 -15 -10 -15 -5 0 -10 7 -10 15 0 8 5 15 10 15 6 0 10 -7 10 -15z
m205 -15 c3 -5 -1 -10 -9 -10 -8 0 -18 5 -21 10 -3 6 1 10 9 10 8 0 18 -4 21
-10z m288 -7 c3 -5 -1 -14 -9 -21 -12 -11 -14 -9 -14 8 0 20 14 27 23 13z
m-233 -13 c0 -13 -11 -13 -30 0 -12 8 -11 10 8 10 12 0 22 -4 22 -10z m-280
-21 c-7 -11 -14 -18 -17 -15 -8 8 5 36 17 36 7 0 7 -6 0 -21z m323 6 c4 -8 2
-17 -2 -20 -5 -2 -11 4 -14 15 -6 23 8 27 16 5z m246 6 c7 -5 9 -11 4 -14 -6
-4 -19 0 -29 8 -15 11 -16 14 -4 15 8 0 21 -4 29 -9z m61 -31 c0 -5 -9 -6 -20
-3 -20 5 -25 15 -13 26 7 8 33 -11 33 -23z m-194 -5 c14 -13 13 -16 -7 -23
-19 -7 -20 -10 -6 -15 10 -4 17 -11 17 -17 0 -7 -8 -6 -22 2 -13 7 -26 11 -29
10 -4 0 -9 10 -12 23 -4 26 8 35 16 13 3 -9 7 -7 12 5 9 21 12 21 31 2z m-72
-26 c-4 -6 -11 -6 -20 2 -21 17 -17 31 6 19 11 -6 18 -15 14 -21z m326 21 c0
-5 -6 -10 -14 -10 -8 0 -18 5 -21 10 -3 6 3 10 14 10 12 0 21 -4 21 -10z m120
-11 c0 -5 -11 -9 -25 -9 -14 0 -25 6 -25 14 0 9 8 12 25 8 14 -2 25 -8 25 -13z
m-60 1 c0 -5 -9 -10 -20 -10 -11 0 -20 5 -20 10 0 6 9 10 20 10 11 0 20 -4 20
-10z m-450 -14 c0 -23 -13 -25 -34 -5 -19 19 -19 19 7 19 17 0 27 -5 27 -14z
m56 -23 c-8 -8 -36 5 -36 17 0 7 6 7 21 0 11 -7 18 -14 15 -17z m121 12 c9
-25 -4 -29 -17 -6 -7 15 -7 21 0 21 6 0 13 -7 17 -15z m-17 -57 c0 -19 -2 -20
-10 -8 -13 19 -13 30 0 30 6 0 10 -10 10 -22z m40 -4 c0 -8 -4 -14 -10 -14 -5
0 -10 9 -10 21 0 11 5 17 10 14 6 -3 10 -13 10 -21z"/>
<path d="M2998 3133 c7 -3 16 -2 19 1 4 3 -2 6 -13 5 -11 0 -14 -3 -6 -6z"/>
<path d="M3178 3123 c6 -2 18 -2 25 0 6 3 1 5 -13 5 -14 0 -19 -2 -12 -5z"/>
<path d="M4995 1579 c-4 -6 -5 -12 -2 -15 2 -3 7 2 10 11 7 17 1 20 -8 4z"/>
<path d="M7292 1474 c-8 -9 -11 -22 -6 -32 4 -9 8 -24 8 -32 1 -17 34 -26 48
-12 12 12 -11 92 -26 92 -6 -1 -17 -8 -24 -16z"/>
<path d="M6605 2040 c-3 -5 1 -10 9 -10 9 0 16 5 16 10 0 6 -4 10 -9 10 -6 0
-13 -4 -16 -10z"/>
</g>
</svg>
