<?xml version="1.0" standalone="no"?>
<!DOCTYPE svg PUBLIC "-//W3C//DTD SVG 20010904//EN"
 "http://www.w3.org/TR/2001/REC-SVG-20010904/DTD/svg10.dtd">
<svg version="1.0" xmlns="http://www.w3.org/2000/svg"
 width="800.000000pt" height="800.000000pt" viewBox="0 0 800.000000 800.000000"
 preserveAspectRatio="xMidYMid meet">
<metadata>
Created by potrace 1.16, written by Peter Selinger 2001-2019
</metadata>
<g transform="translate(0.000000,800.000000) scale(0.100000,-0.100000)"
fill="#000000" stroke="none">
<path d="M0 4830 c0 -2457 3 -3170 12 -3170 9 0 9 -3 0 -12 -15 -15 -16 -122
-2 -149 7 -13 7 -19 0 -19 -7 0 -10 -237 -10 -740 l0 -740 4000 0 4000 0 0
4000 0 4000 -575 0 -575 0 -6 -24 c-5 -23 -31 -42 -42 -31 -3 2 3 7 12 11 9 3
16 15 16 25 0 19 -71 19 -3415 19 l-3415 0 0 -3170z m5440 2745 c0 -12 -19
-12 -23 0 -4 9 -1 12 9 8 7 -3 14 -7 14 -8z m-2503 -287 c-3 -8 -6 -5 -6 6 -1
11 2 17 5 13 3 -3 4 -12 1 -19z m2306 -425 c-7 -2 -19 -2 -25 0 -7 3 -2 5 12
5 14 0 19 -2 13 -5z m512 -173 c3 -5 -1 -10 -9 -10 -9 0 -16 5 -16 10 0 6 4
10 9 10 6 0 13 -4 16 -10z m65 -25 c0 -8 6 -15 13 -16 6 0 1 -6 -13 -12 -17
-8 -25 -20 -25 -36 0 -28 -25 -42 -26 -14 -1 12 -3 10 -8 -7 l-7 -25 -13 23
c-10 20 -9 23 11 32 22 8 20 11 -12 14 -8 0 -16 10 -18 21 -4 15 -2 17 10 8
10 -9 19 -7 38 7 30 24 50 25 50 5z m50 -6 c0 -11 -3 -11 -24 -3 -23 9 -20 23
4 17 11 -3 20 -9 20 -14z m-870 -379 c0 -5 -7 -7 -15 -4 -8 4 -15 8 -15 10 0
2 7 4 15 4 8 0 15 -4 15 -10z m200 -110 c0 -6 -11 -21 -25 -34 -14 -13 -25
-31 -25 -41 0 -38 -32 -73 -73 -79 -28 -5 -37 -11 -34 -21 3 -7 -4 -26 -15
-41 l-22 -27 32 5 c18 2 32 1 32 -4 0 -4 -5 -8 -10 -8 -6 0 -9 -13 -8 -28 1
-16 -8 -46 -20 -67 -24 -40 -22 -62 3 -29 13 16 16 17 24 4 6 -9 7 -16 1 -18
-5 -2 -7 -9 -4 -17 3 -8 12 -11 20 -8 19 7 18 -6 -3 -29 -9 -10 -14 -21 -11
-23 8 -8 133 -8 156 -1 14 5 21 1 24 -11 4 -17 -3 -18 -91 -12 -75 4 -106 10
-141 29 -25 13 -50 23 -56 22 -6 -1 -18 6 -28 16 -15 17 -15 22 -1 58 15 37
12 36 -54 -35 -39 -41 -74 -72 -78 -68 -4 4 20 35 53 68 49 49 56 61 44 70
-12 8 -10 9 9 7 13 -2 26 2 28 8 8 22 -48 5 -68 -21 -17 -20 -24 -23 -35 -14
-11 9 -22 6 -49 -15 -19 -15 -35 -30 -35 -35 0 -4 -18 -17 -40 -30 -22 -12
-40 -20 -40 -17 0 2 -3 13 -6 23 -5 15 -4 15 5 3 8 -12 13 -12 23 -2 9 9 9 12
0 12 -18 0 22 37 49 45 34 11 78 56 82 85 3 22 9 25 50 28 26 2 47 8 47 14 0
6 -3 8 -6 5 -10 -10 -45 13 -38 24 3 5 14 7 24 4 11 -3 20 0 24 10 3 8 15 15
26 15 13 0 20 7 20 20 0 11 5 20 10 20 6 0 10 10 10 22 0 12 3 18 7 14 4 -3
13 4 20 16 12 22 12 21 13 -14 0 -37 1 -38 38 -38 25 0 45 7 54 18 20 22 31
69 18 77 -5 3 -10 16 -10 28 1 22 1 22 14 -1 12 -22 14 -23 29 -7 10 9 17 21
17 26 0 5 5 9 10 9 6 0 10 -5 10 -10z m-483 -285 c-27 -14 -54 -25 -60 -25
-17 1 75 49 93 49 8 0 -7 -11 -33 -24z m-17 -57 c0 -9 3 -8 10 2 5 8 12 11 17
7 8 -9 -17 -28 -31 -24 -14 5 -20 27 -7 27 6 0 11 -6 11 -12z m1361 -41 c-8
-8 -11 -7 -11 4 0 9 3 19 7 23 4 4 9 2 11 -4 3 -7 -1 -17 -7 -23z m-1059 -136
c-26 -22 -28 -33 -5 -24 11 4 14 3 9 -6 -5 -7 -14 -10 -22 -7 -10 4 -13 -3
-10 -25 4 -32 -3 -42 -22 -30 -10 6 -9 16 4 47 20 49 32 64 52 64 11 0 10 -5
-6 -19z m104 -25 c4 -11 8 -29 9 -40 1 -10 9 -23 18 -28 18 -10 23 -28 8 -28
-5 0 -16 7 -24 15 -13 13 -16 13 -21 0 -3 -9 0 -15 8 -15 20 0 28 -27 10 -34
-8 -3 -14 -1 -14 4 0 6 -7 10 -16 10 -11 0 -13 -6 -9 -19 4 -14 0 -21 -14 -26
-10 -3 -25 -13 -33 -22 -11 -14 -11 -16 2 -8 13 8 13 7 1 -8 -16 -20 -35 -23
-28 -4 18 49 18 57 0 57 -16 1 -16 2 3 18 20 17 20 18 2 36 -23 25 -23 46 0
46 13 0 14 -2 3 -9 -9 -6 -2 -10 23 -13 26 -3 40 1 48 11 10 13 10 14 -1 4
-20 -18 -46 10 -32 34 9 16 10 15 11 -6 0 -18 3 -21 13 -12 8 6 17 8 20 4 4
-3 7 3 7 15 0 22 -15 27 -65 22 -19 -2 -19 -1 -1 13 25 18 64 10 72 -17z
m-562 -103 c-2 -30 -11 -53 -23 -65 -11 -10 -22 -18 -24 -18 -2 0 -3 21 0 46
2 32 10 52 26 65 12 10 23 18 23 19 1 0 0 -21 -2 -47z m376 43 c0 -2 -9 -6
-20 -9 -11 -3 -20 -1 -20 4 0 5 9 9 20 9 11 0 20 -2 20 -4z m-203 -96 c-1 -11
-7 -20 -14 -20 -15 0 -15 2 -7 24 9 23 23 20 21 -4z m293 -105 c-7 -8 -17 -15
-23 -15 -5 0 -2 9 8 20 21 23 35 19 15 -5z m-859 -153 c8 2 14 -4 14 -12 0 -8
-6 -15 -12 -14 -7 1 -26 2 -43 3 -16 0 -30 4 -30 9 0 11 44 29 51 19 3 -4 12
-7 20 -5z m-492 -136 c-9 -8 -10 -7 -5 7 3 10 7 24 7 30 1 7 3 4 6 -7 3 -10
-1 -23 -8 -30z m956 -46 c10 -11 13 -20 7 -20 -6 0 -13 4 -16 9 -3 5 -17 11
-32 14 -22 4 -28 0 -41 -30 -7 -19 -19 -60 -24 -91 -6 -32 -14 -70 -19 -87 -5
-16 -12 -47 -15 -68 -3 -21 -10 -35 -14 -33 -8 6 1 78 14 109 4 10 4 17 -1 16
-5 0 -20 2 -32 6 l-24 8 28 23 c34 30 36 30 28 -1 -4 -15 -2 -25 5 -25 6 0 11
13 11 30 0 16 10 59 21 95 21 62 23 65 54 65 19 0 39 -8 50 -20z m45 -72 c0
-7 -5 -20 -10 -28 -8 -12 -10 -9 -10 13 0 15 5 27 10 27 6 0 10 -6 10 -12z
m-206 -25 c-9 -39 -24 -52 -24 -22 0 21 16 49 27 49 2 0 0 -12 -3 -27z m-34
-42 c0 -6 -4 -13 -10 -16 -5 -3 -10 1 -10 9 0 9 5 16 10 16 6 0 10 -4 10 -9z
m4 -316 c-4 -8 -8 -15 -10 -15 -2 0 -4 7 -4 15 0 8 4 15 10 15 5 0 7 -7 4 -15z
m-24 -4 c0 -5 3 -17 7 -27 4 -11 3 -15 -4 -11 -14 9 -24 47 -12 47 5 0 9 -4 9
-9z m170 -381 c0 -25 -5 -61 -10 -80 -6 -19 -7 -61 -4 -92 6 -55 8 -58 34 -58
16 0 31 6 33 13 3 7 6 5 6 -5 1 -14 -7 -18 -34 -18 -33 0 -35 -2 -35 -32 0
-18 -3 -43 -6 -55 -5 -17 -2 -23 11 -23 21 0 48 -27 40 -39 -6 -11 4 -83 14
-98 3 -5 19 -13 34 -17 26 -6 28 -5 22 14 -4 11 -2 20 4 20 9 0 13 -15 11 -47
-1 -10 -49 -4 -72 8 -10 6 -18 18 -18 28 0 29 -11 32 -41 10 -26 -18 -29 -25
-24 -62 l4 -42 -11 36 c-8 26 -21 41 -52 57 -39 21 -93 21 -80 1 3 -5 1 -9 -5
-9 -5 0 -18 -3 -28 -7 -16 -6 -16 -5 -4 10 7 9 11 17 8 17 -8 0 -57 -72 -57
-82 0 -5 29 -8 65 -8 58 0 65 -2 65 -20 0 -11 7 -20 15 -20 10 0 15 -10 15
-30 0 -33 26 -50 76 -50 23 0 24 2 12 23 -7 12 -13 33 -15 47 -2 24 -1 24 11
-4 12 -27 14 -28 24 -10 10 16 11 17 12 2 0 -9 -5 -20 -10 -23 -8 -5 -8 -11
-1 -19 6 -7 8 -16 4 -20 -4 -4 0 -4 9 -1 13 5 15 2 11 -14 -5 -18 -7 -19 -25
-7 -11 8 -26 12 -32 10 -7 -3 -25 0 -39 5 -17 7 -27 7 -27 1 0 -6 -11 -10 -25
-10 -26 0 -34 -15 -12 -23 7 -4 3 -8 -10 -12 -13 -4 -23 -15 -23 -24 0 -10 -3
-20 -6 -23 -8 -9 -44 3 -44 14 0 6 7 8 15 4 10 -4 15 1 15 14 0 11 5 20 11 20
5 0 7 5 4 10 -9 15 14 40 36 40 27 0 26 55 -1 70 -11 6 -20 17 -20 24 0 9 -17
13 -62 12 -72 -1 -91 -10 -83 -36 3 -10 1 -21 -5 -25 -8 -5 -4 -12 9 -22 24
-16 28 -55 7 -72 -23 -19 -26 -60 -5 -66 11 -4 19 -11 19 -16 0 -12 -7 -11
-30 1 -16 9 -18 8 -14 -5 5 -11 2 -13 -10 -9 -18 7 -21 20 -6 29 6 3 10 15 10
25 0 18 -3 18 -27 7 -17 -8 -22 -13 -12 -15 11 -2 14 -11 11 -31 -3 -23 1 -29
20 -35 21 -6 21 -8 7 -19 -16 -12 -15 -14 1 -34 10 -12 20 -19 24 -16 3 4 6 1
6 -5 0 -7 -2 -12 -4 -12 -2 0 -11 -3 -19 -6 -9 -3 -16 3 -20 15 -4 17 -13 21
-42 21 -32 0 -36 2 -25 15 6 8 9 19 5 25 -11 18 -25 11 -25 -12 0 -44 -12 -68
-33 -68 -11 0 -28 -7 -38 -15 -18 -17 -61 -12 -78 9 -8 9 8 24 58 56 85 55
111 103 111 207 0 53 -31 217 -44 230 -1 1 -19 -2 -41 -7 -22 -5 -44 -5 -48
-1 -5 5 10 11 32 15 43 7 63 29 58 67 -1 16 4 24 17 27 11 2 16 0 12 -7 -4 -6
-3 -11 3 -11 5 0 18 -3 28 -6 17 -5 17 -5 1 9 -28 22 -21 29 12 12 50 -26 53
-22 48 61 -5 73 -18 108 -32 85 -4 -6 -4 -11 1 -11 4 0 8 -11 8 -25 0 -14 -3
-25 -7 -25 -5 0 -8 6 -8 14 0 21 -17 28 -24 10 -3 -8 -2 -12 4 -9 14 8 13 -18
-1 -32 -8 -8 -6 -17 10 -34 11 -12 19 -25 16 -28 -5 -4 -65 57 -65 66 0 8 50
82 59 87 14 9 41 -4 41 -19 0 -8 5 -17 12 -21 7 -5 8 -2 3 7 -6 11 -5 12 5 2
11 -10 11 -23 3 -58 -8 -36 -8 -45 3 -45 8 0 14 8 14 18 0 10 10 36 21 57 14
26 21 58 21 90 0 42 4 54 27 76 22 20 29 37 35 87 4 34 12 62 17 62 6 0 8 -12
5 -27 -3 -16 -8 -50 -12 -78 -4 -27 -10 -60 -15 -72 -7 -18 -4 -26 16 -39 14
-9 22 -20 19 -25 -9 -15 39 -49 65 -46 37 3 51 62 22 88 -22 21 -38 66 -26 77
3 4 13 -1 20 -11 15 -20 31 -6 21 18 -3 8 3 19 14 25 17 9 19 18 14 58 -4 35
-3 43 5 32 6 -8 11 -35 11 -60z m-90 20 c-5 -16 -6 -38 -3 -48 3 -12 -1 -19
-11 -19 -13 0 -15 8 -10 36 9 56 15 72 24 66 5 -3 5 -19 0 -35z m-96 5 c-4 -8
-8 -15 -10 -15 -2 0 -4 7 -4 15 0 8 4 15 10 15 5 0 7 -7 4 -15z m-534 -278 c0
-18 -2 -19 -10 -7 -13 20 -13 43 0 35 6 -3 10 -16 10 -28z m5 -47 c3 -5 -1
-10 -9 -10 -9 0 -16 5 -16 10 0 6 4 10 9 10 6 0 13 -4 16 -10z m-14 -63 c-8
-8 -11 -7 -11 4 0 20 13 34 18 19 3 -7 -1 -17 -7 -23z m-20 -54 c-10 -17 -10
-16 -11 3 0 23 13 41 18 25 2 -6 -1 -18 -7 -28z m159 23 c0 -3 -4 -8 -10 -11
-5 -3 -10 -1 -10 4 0 6 5 11 10 11 6 0 10 -2 10 -4z m48 -48 c-15 -5 -30 -18
-33 -29 -4 -10 -11 -19 -16 -19 -12 0 -12 17 1 25 6 4 8 16 4 27 -5 17 -3 20
10 15 9 -4 16 -2 16 4 0 6 9 5 22 -2 l23 -12 -27 -9z m-59 5 c0 -5 -4 -17 -9
-28 -8 -18 -9 -17 -9 8 -1 15 4 27 9 27 6 0 10 -3 9 -7z m-382 -47 c-3 -8 -1
-16 5 -18 8 -3 8 -10 1 -21 -9 -16 -11 -16 -28 4 -19 21 -19 21 0 35 24 18 29
18 22 0z m-822 -56 c10 -11 16 -20 13 -20 -3 0 -13 9 -23 20 -10 11 -16 20
-13 20 3 0 13 -9 23 -20z m1589 5 c-4 -8 -8 -15 -10 -15 -2 0 -4 7 -4 15 0 8
4 15 10 15 5 0 7 -7 4 -15z m-344 -8 c0 -8 -7 -14 -15 -14 -8 0 -15 6 -15 14
0 7 7 13 15 13 8 0 15 -6 15 -13z m650 3 c-20 -13 -33 -13 -25 0 3 6 14 10 23
10 15 0 15 -2 2 -10z m-1306 -15 c3 -8 1 -15 -3 -15 -5 0 -11 7 -15 15 -3 8
-1 15 3 15 5 0 11 -7 15 -15z m200 -7 c-9 -31 -10 -31 -31 -19 -17 10 -17 10
2 11 11 1 14 4 8 7 -20 8 -15 23 8 23 16 0 19 -4 13 -22z m201 2 c-3 -5 -1
-10 6 -10 21 0 -3 -18 -33 -25 -18 -5 -28 -3 -28 4 0 6 5 11 11 11 6 0 17 7
25 15 17 17 28 20 19 5z m560 -30 c-3 -5 -11 -10 -16 -10 -6 0 -7 5 -4 10 3 6
11 10 16 10 6 0 7 -4 4 -10z m-715 -26 c0 -14 -3 -14 -15 -4 -8 7 -15 14 -15
16 0 2 7 4 15 4 8 0 15 -7 15 -16z m242 -16 c-6 -6 -15 -8 -19 -4 -4 4 -1 11
7 16 19 12 27 3 12 -12z m573 -8 c17 -7 15 -9 -12 -9 -18 -1 -33 4 -33 9 0 12
17 12 45 0z m213 -8 c2 -7 -2 -10 -12 -6 -9 3 -16 11 -16 16 0 13 23 5 28 -10z
m-931 -118 c-3 -3 -12 -4 -19 -1 -8 3 -5 6 6 6 11 1 17 -2 13 -5z m753 -43 c2
-1 -1 -6 -8 -13 -21 -21 -14 -41 12 -34 20 5 26 1 35 -25 13 -38 11 -42 -34
-63 -19 -9 -35 -23 -35 -31 0 -8 -4 -15 -10 -15 -5 0 -10 11 -10 25 0 19 4 23
18 18 15 -6 15 -5 3 10 -7 9 -11 24 -7 32 3 8 3 15 0 15 -3 0 -10 -13 -15 -30
-13 -36 -29 -39 -29 -6 0 16 -7 27 -21 31 -17 6 -20 12 -15 38 8 37 6 36 37
39 15 2 23 -2 22 -9 -2 -7 2 -13 8 -13 6 0 9 8 7 18 -5 17 4 20 42 13z m40 -6
c-7 -9 -15 -13 -17 -11 -7 7 7 26 19 26 6 0 6 -6 -2 -15z m-174 -94 c3 -10 8
-10 17 -2 11 8 14 4 14 -19 0 -17 -4 -30 -9 -30 -4 0 -8 -7 -8 -15 0 -8 -4
-15 -9 -15 -13 0 -24 37 -15 51 4 8 3 9 -4 5 -13 -8 -16 21 -5 50 5 14 8 15
11 3 2 -7 6 -20 8 -28z m-1026 -11 c0 -11 -4 -20 -10 -20 -5 0 -10 9 -10 20 0
11 5 20 10 20 6 0 10 -9 10 -20z m1527 -22 c-3 -7 -5 -2 -5 12 0 14 2 19 5 13
2 -7 2 -19 0 -25z m-607 13 c0 -12 -28 -22 -34 -12 -3 5 -3 11 1 15 9 9 33 7
33 -3z m327 -27 c9 4 13 1 11 -6 -3 -7 -11 -14 -19 -16 -10 -2 -15 7 -16 30 0
22 1 25 4 10 3 -16 9 -22 20 -18z m133 26 c0 -5 -10 -10 -22 -10 -19 0 -20 2
-8 10 19 13 30 13 30 0z m60 -16 c0 -2 -9 -4 -20 -4 -11 0 -20 4 -20 9 0 5 9
7 20 4 11 -3 20 -7 20 -9z m36 -11 c-7 -7 -26 7 -26 19 0 6 6 6 15 -2 9 -7 13
-15 11 -17z m-156 -8 c-7 -8 -17 -15 -22 -15 -6 0 -5 7 2 15 7 8 17 15 22 15
6 0 5 -7 -2 -15z m-680 -15 c0 -5 -4 -10 -9 -10 -6 0 -13 5 -16 10 -3 6 1 10
9 10 9 0 16 -4 16 -10z m916 -17 c-7 -7 -26 7 -26 19 0 6 6 6 15 -2 9 -7 13
-15 11 -17z m-276 8 c0 -5 -7 -12 -16 -15 -24 -9 -28 -7 -14 9 14 17 30 20 30
6z m206 -17 c-4 -9 -9 -15 -11 -12 -3 3 -3 13 1 22 4 9 9 15 11 12 3 -3 3 -13
-1 -22z m-286 1 c-7 -9 -15 -13 -17 -11 -7 7 7 26 19 26 6 0 6 -6 -2 -15z
m-102 -6 c23 3 30 -13 12 -24 -8 -5 -7 -11 1 -21 9 -11 8 -14 -5 -14 -9 0 -16
6 -16 13 0 7 -9 18 -20 25 -11 7 -20 17 -20 23 0 6 5 7 13 2 6 -4 22 -6 35 -4z
m122 -19 c-24 -15 -37 -11 -16 5 11 8 22 12 25 9 3 -3 -1 -9 -9 -14z m330 2
c0 -15 -6 -18 -30 -14 -16 2 -27 9 -24 14 3 5 12 7 20 4 7 -3 16 -1 19 4 9 15
15 12 15 -8z m-393 -11 c-3 -15 -1 -18 11 -14 10 4 13 2 8 -5 -11 -19 -36 -14
-36 6 0 18 8 32 18 32 2 0 2 -9 -1 -19z m328 -11 c3 -5 -1 -10 -9 -10 -9 0
-16 5 -16 10 0 6 4 10 9 10 6 0 13 -4 16 -10z m-322 -60 c3 -11 1 -20 -4 -20
-5 0 -9 9 -9 20 0 11 2 20 4 20 2 0 6 -9 9 -20z m-253 -20 c0 -5 -10 -10 -22
-10 -19 0 -20 2 -8 10 19 13 30 13 30 0z m60 1 c0 -5 -9 -7 -20 -4 -11 3 -20
7 -20 9 0 2 9 4 20 4 11 0 20 -4 20 -9z m45 -12 c11 -17 -1 -21 -15 -4 -8 9
-8 15 -2 15 6 0 14 -5 17 -11z m1185 1 c0 -5 -4 -10 -9 -10 -6 0 -13 5 -16 10
-3 6 1 10 9 10 9 0 16 -4 16 -10z m-1095 -10 c3 -5 -3 -10 -14 -10 -12 0 -21
5 -21 10 0 6 6 10 14 10 8 0 18 -4 21 -10z m-249 -26 c-4 -9 -9 -15 -11 -12
-3 3 -3 13 1 22 4 9 9 15 11 12 3 -3 3 -13 -1 -22z m202 14 c-2 -6 -10 -14
-16 -16 -7 -2 -10 2 -6 12 7 18 28 22 22 4z m109 -20 c-3 -7 -5 -2 -5 12 0 14
2 19 5 13 2 -7 2 -19 0 -25z m-23 -3 c3 -8 1 -15 -3 -15 -5 0 -11 7 -15 15 -3
8 -1 15 3 15 5 0 11 -7 15 -15z m1056 -5 c0 -11 -4 -20 -10 -20 -5 0 -10 9
-10 20 0 11 5 20 10 20 6 0 10 -9 10 -20z m-1363 -35 c-4 -8 -11 -15 -17 -15
-6 0 -6 7 2 20 14 22 24 19 15 -5z m-952 5 c3 -5 1 -10 -4 -10 -6 0 -11 5 -11
10 0 6 2 10 4 10 3 0 8 -4 11 -10z m1295 -6 c0 -8 -4 -12 -10 -9 -5 3 -10 10
-10 16 0 5 5 9 10 9 6 0 10 -7 10 -16z m1010 -25 c0 -11 -4 -18 -10 -14 -5 3
-7 12 -3 20 7 21 13 19 13 -6z m-2333 -9 c-3 -12 -1 -34 3 -51 7 -23 6 -31 -7
-36 -10 -4 -13 -14 -10 -32 3 -14 -1 -34 -8 -44 -8 -11 -12 -33 -9 -55 5 -31
3 -34 -6 -19 -7 11 -9 32 -5 50 3 18 7 47 8 65 1 18 8 37 16 41 8 6 11 16 6
30 -7 23 1 71 11 71 4 0 4 -9 1 -20z m938 10 c-3 -5 -14 -10 -23 -10 -15 0
-15 2 -2 10 20 13 33 13 25 0z m1372 -45 c0 -8 -4 -15 -9 -15 -4 0 -8 7 -8 15
0 8 4 15 8 15 5 0 9 -7 9 -15z m-3658 -54 c24 -17 48 -20 193 -23 94 -2 164
-7 161 -12 -4 -5 -78 -6 -170 -3 -126 4 -169 9 -188 21 -36 23 -82 20 -134
-11 -77 -45 -177 -57 -200 -23 -16 24 -39 25 -69 4 -12 -8 -28 -13 -35 -11
-12 5 68 46 90 47 6 0 15 -9 18 -20 7 -24 52 -37 68 -21 6 6 26 11 44 11 19 0
57 13 86 30 60 35 98 38 136 11z m3696 8 c11 -17 2 -18 -19 -3 -17 12 -17 14
-4 14 9 0 20 -5 23 -11z m715 2 c0 -13 -29 -35 -37 -28 -7 8 15 37 28 37 5 0
9 -4 9 -9z m-670 -53 c0 -6 -7 -5 -15 2 -8 7 -15 17 -15 22 0 6 7 5 15 -2 8
-7 15 -17 15 -22z m-3335 12 c8 -13 -5 -13 -25 0 -13 8 -13 10 2 10 9 0 20 -4
23 -10z m60 -20 c3 -5 -1 -10 -9 -10 -8 0 -18 5 -21 10 -3 6 1 10 9 10 8 0 18
-4 21 -10z m51 -37 c-7 -7 -26 7 -26 19 0 6 6 6 15 -2 9 -7 13 -15 11 -17z
m-981 -2 c-3 -6 -11 -11 -17 -11 -6 0 -6 6 2 15 14 17 26 13 15 -4z m4215 -3
c0 -19 -2 -20 -10 -8 -13 19 -13 30 0 30 6 0 10 -10 10 -22z m-3196 -47 c-6
-6 -24 19 -24 34 1 6 7 1 15 -9 8 -11 12 -22 9 -25z m-1061 9 c-3 -11 -9 -20
-14 -20 -10 0 -12 24 -2 33 13 13 21 7 16 -13z m4269 -16 c-4 -23 -6 -24 -15
-9 -8 14 2 32 19 35 1 0 -1 -12 -4 -26z m-3166 -31 c-7 -7 -26 7 -26 19 0 6 6
6 15 -2 9 -7 13 -15 11 -17z m-1106 -14 c0 -11 -4 -17 -10 -14 -5 3 -10 13
-10 21 0 8 5 14 10 14 6 0 10 -9 10 -21z m2720 11 c0 -5 -5 -10 -11 -10 -5 0
-7 5 -4 10 3 6 8 10 11 10 2 0 4 -4 4 -10z m1560 -22 c0 -18 -2 -20 -9 -8 -6
8 -7 18 -5 22 9 14 14 9 14 -14z m-3150 -24 c0 -8 -4 -12 -10 -9 -5 3 -10 13
-10 21 0 8 5 12 10 9 6 -3 10 -13 10 -21z m1550 11 c-7 -8 -17 -15 -22 -15 -6
0 -5 7 2 15 7 8 17 15 22 15 6 0 5 -7 -2 -15z m-2970 -39 c0 -6 -7 -2 -15 8
-8 11 -15 25 -15 30 0 6 7 2 15 -8 8 -11 15 -25 15 -30z m286 -2 c-4 -9 -9
-15 -11 -12 -3 3 -3 13 1 22 4 9 9 15 11 12 3 -3 3 -13 -1 -22z m2634 16 c-20
-13 -33 -13 -25 0 3 6 14 10 23 10 15 0 15 -2 2 -10z m-2810 -3 c0 -2 -8 -19
-17 -38 -10 -19 -16 -43 -15 -54 2 -19 2 -19 -11 -2 -17 20 -28 23 -21 4 3 -8
-2 -20 -11 -27 -14 -12 -15 -10 -11 13 6 34 14 47 29 47 7 0 18 14 25 30 8 17
18 30 23 30 5 0 9 -2 9 -3z m55 -7 c3 -5 -3 -10 -14 -10 -12 0 -21 5 -21 10 0
6 6 10 14 10 8 0 18 -4 21 -10z m4418 -10 c3 -11 1 -20 -4 -20 -5 0 -9 9 -9
20 0 11 2 20 4 20 2 0 6 -9 9 -20z m-3138 -10 c3 -5 2 -10 -4 -10 -5 0 -13 5
-16 10 -3 6 -2 10 4 10 5 0 13 -4 16 -10z m-1425 -26 c0 -8 -4 -12 -10 -9 -5
3 -10 13 -10 21 0 8 5 12 10 9 6 -3 10 -13 10 -21z m2858 14 c-2 -6 -10 -14
-16 -16 -7 -2 -10 2 -6 12 7 18 28 22 22 4z m-2673 -8 c8 -13 -5 -13 -25 0
-13 8 -13 10 2 10 9 0 20 -4 23 -10z m60 0 c-3 -5 -14 -10 -23 -10 -15 0 -15
2 -2 10 20 13 33 13 25 0z m1215 -43 c0 -5 -4 -5 -10 -2 -5 3 -10 14 -10 23 0
15 2 15 10 2 5 -8 10 -19 10 -23z m3126 -4 c-4 -4 -11 -1 -16 7 -16 25 -11 35
7 17 9 -9 13 -20 9 -24z m-1842 12 c3 -8 1 -15 -4 -15 -6 0 -10 7 -10 15 0 8
2 15 4 15 2 0 6 -7 10 -15z m72 -22 c-11 -11 -17 4 -9 23 7 18 8 18 11 1 2
-10 1 -21 -2 -24z m-1316 -3 c8 -5 12 -11 9 -14 -3 -3 -14 1 -25 9 -21 16 -8
20 16 5z m60 -15 c0 -9 -6 -12 -15 -9 -8 4 -15 10 -15 15 0 5 7 9 15 9 8 0 15
-7 15 -15z m1200 -16 c0 -12 -5 -16 -15 -13 -8 4 -15 15 -15 25 0 12 5 16 15
13 8 -4 15 -15 15 -25z m1870 21 c0 -5 -4 -10 -9 -10 -6 0 -13 5 -16 10 -3 6
1 10 9 10 9 0 16 -4 16 -10z m-1810 -31 c0 -11 -4 -17 -10 -14 -5 3 -10 13
-10 21 0 8 5 14 10 14 6 0 10 -9 10 -21z m-2830 2 c0 -5 -7 -14 -15 -21 -16
-14 -18 -10 -9 14 6 17 24 22 24 7z m4677 -6 c9 -25 -4 -29 -17 -6 -7 15 -7
21 0 21 6 0 13 -7 17 -15z m-3087 -27 c0 -6 -7 -5 -15 2 -8 7 -15 17 -15 22 0
6 7 5 15 -2 8 -7 15 -17 15 -22z m1169 -15 c0 -25 -1 -25 -8 -8 -5 11 -7 23
-4 28 8 14 13 7 12 -20z m31 1 c0 -8 -4 -12 -10 -9 -5 3 -10 13 -10 21 0 8 5
12 10 9 6 -3 10 -13 10 -21z m70 -16 c0 -6 -7 -5 -15 2 -8 7 -15 17 -15 22 0
6 7 5 15 -2 8 -7 15 -17 15 -22z m-2908 0 c-7 -7 -12 -8 -12 -2 0 14 12 26 19
19 2 -3 -1 -11 -7 -17z m4721 2 c-3 -11 -9 -20 -14 -20 -11 0 -11 3 -3 24 9
23 23 20 17 -4z m-5453 -10 c0 -17 -2 -19 -14 -8 -14 13 -12 28 5 28 5 0 9 -9
9 -20z m160 5 c0 -9 -6 -12 -15 -9 -8 4 -12 10 -9 15 8 14 24 10 24 -6z m2235
4 c11 -17 0 -20 -21 -4 -17 13 -17 14 -2 15 9 0 20 -5 23 -11z m1215 -30 c0
-4 -7 -6 -15 -3 -8 4 -15 10 -15 15 0 4 7 6 15 3 8 -4 15 -10 15 -15z m-3593
-21 c-3 -7 -5 -2 -5 12 0 14 2 19 5 13 2 -7 2 -19 0 -25z m2440 6 c-7 -7 -37
7 -37 17 0 6 9 5 21 -1 11 -7 19 -14 16 -16z m1093 -6 c0 -5 -4 -8 -10 -8 -5
0 -10 10 -10 23 0 18 2 19 10 7 5 -8 10 -18 10 -22z m130 0 c0 -6 -7 -5 -15 2
-8 7 -15 17 -15 22 0 6 7 5 15 -2 8 -7 15 -17 15 -22z m-2979 -11 c-8 -8 -11
-7 -11 4 0 20 13 34 18 19 3 -7 -1 -17 -7 -23z m-578 3 c-3 -11 -7 -20 -9 -20
-2 0 -4 9 -4 20 0 11 4 20 9 20 5 0 7 -9 4 -20z m57 -12 c0 -5 -4 -8 -10 -8
-5 0 -10 10 -10 23 0 18 2 19 10 7 5 -8 10 -18 10 -22z m5241 -1 c-8 -8 -11
-7 -11 4 0 20 13 34 18 19 3 -7 -1 -17 -7 -23z m-2914 -3 c-7 -7 -37 7 -37 17
0 6 9 5 21 -1 11 -7 19 -14 16 -16z m1143 11 c7 -8 8 -15 2 -15 -5 0 -15 7
-22 15 -7 8 -8 15 -2 15 5 0 15 -7 22 -15z m-3560 -5 c0 -5 -7 -7 -15 -4 -8 4
-15 8 -15 10 0 2 7 4 15 4 8 0 15 -4 15 -10z m-15 -21 c3 -4 -7 -7 -21 -6 -15
1 -29 7 -31 13 -4 13 44 7 52 -7z m3489 6 c11 -8 17 -17 14 -20 -3 -3 -16 3
-29 14 -27 23 -14 28 15 6z m136 -1 c0 -15 -23 -44 -34 -44 -11 0 -6 31 7 45
16 19 27 19 27 -1z m-1144 -21 c-8 -8 -36 5 -36 17 0 7 6 7 21 0 11 -7 18 -14
15 -17z m-1859 -15 c-3 -7 -5 -2 -5 12 0 14 2 19 5 13 2 -7 2 -19 0 -25z
m4723 6 c0 -14 -4 -23 -9 -20 -5 3 -7 15 -4 26 7 28 13 25 13 -6z m-5240 9 c0
-5 -5 -15 -10 -23 -8 -12 -10 -11 -10 8 0 12 5 22 10 22 6 0 10 -3 10 -7z
m2425 -23 c3 -5 -1 -10 -9 -10 -8 0 -18 5 -21 10 -3 6 1 10 9 10 8 0 18 -4 21
-10z m1010 -1 c11 -17 -1 -21 -15 -4 -8 9 -8 15 -2 15 6 0 14 -5 17 -11z
m-909 -14 c-11 -8 -22 -12 -25 -9 -6 6 19 24 34 24 6 -1 1 -7 -9 -15z m1003
-27 c1 -5 -3 -8 -8 -8 -12 0 -22 30 -14 43 6 10 20 -13 22 -35z m-3025 8 c-3
-9 -10 -16 -15 -16 -6 0 -5 9 1 21 13 24 24 20 14 -5z m2089 17 c-7 -2 -21 -2
-30 0 -10 3 -4 5 12 5 17 0 24 -2 18 -5z m57 -3 c12 -8 11 -10 -7 -10 -13 0
-23 5 -23 10 0 13 11 13 30 0z m-170 -10 c0 -5 -6 -10 -14 -10 -8 0 -18 5 -21
10 -3 6 3 10 14 10 12 0 21 -4 21 -10z m220 -5 c-7 -8 -17 -12 -23 -8 -6 4 -3
9 9 14 27 11 28 11 14 -6z m2527 -22 c-3 -10 -5 -4 -5 12 0 17 2 24 5 18 2 -7
2 -21 0 -30z m-5240 5 c-3 -8 -6 -5 -6 6 -1 11 2 17 5 13 3 -3 4 -12 1 -19z
m2763 -20 c0 -6 -7 -5 -15 2 -8 7 -15 17 -15 22 0 6 7 5 15 -2 8 -7 15 -17 15
-22z m700 11 c0 -11 -4 -17 -10 -14 -5 3 -10 13 -10 21 0 8 5 14 10 14 6 0 10
-9 10 -21z m-2975 -28 c-3 -6 -11 -11 -17 -11 -6 0 -6 6 2 15 14 17 26 13 15
-4z m4751 -28 c-11 -11 -19 6 -11 24 8 17 8 17 12 0 3 -10 2 -21 -1 -24z
m-2463 7 c3 -11 1 -20 -4 -20 -5 0 -9 9 -9 20 0 11 2 20 4 20 2 0 6 -9 9 -20z
m718 -18 c-6 -2 -9 -8 -6 -13 3 -5 1 -35 -5 -67 -6 -37 -7 -69 -1 -88 17 -53
22 -84 13 -84 -5 0 -15 27 -22 60 -12 57 -10 121 6 165 6 16 5 18 -7 8 -7 -7
-18 -13 -23 -13 -6 1 -1 9 12 20 13 11 18 21 12 25 -5 3 -10 11 -10 17 0 6 9
3 21 -8 11 -10 16 -20 10 -22z m-3040 -19 c-8 -15 -10 -15 -11 -2 0 17 10 32
18 25 2 -3 -1 -13 -7 -23z m2369 -8 c7 -8 8 -15 2 -15 -5 0 -15 7 -22 15 -7 8
-8 15 -2 15 5 0 15 -7 22 -15z m2410 -5 c0 -11 -4 -20 -9 -20 -5 0 -7 9 -4 20
3 11 7 20 9 20 2 0 4 -9 4 -20z m-2160 0 c0 -5 -7 -7 -15 -4 -8 4 -15 8 -15
10 0 2 7 4 15 4 8 0 15 -4 15 -10z m-190 -10 c12 -8 11 -10 -7 -10 -13 0 -23
5 -23 10 0 13 11 13 30 0z m50 -10 c-8 -5 -18 -6 -24 -3 -5 4 -1 10 10 13 24
9 34 2 14 -10z m60 10 c13 -8 13 -10 -2 -10 -9 0 -20 5 -23 10 -8 13 5 13 25
0z m-2564 -26 c-4 -9 -9 -15 -11 -12 -3 3 -3 13 1 22 4 9 9 15 11 12 3 -3 3
-13 -1 -22z m2624 6 c0 -5 -7 -10 -15 -10 -8 0 -15 5 -15 10 0 6 7 10 15 10 8
0 15 -4 15 -10z m491 -23 c-7 -13 -11 -29 -9 -37 2 -8 -4 -15 -12 -17 -12 -3
-15 4 -12 36 3 29 8 38 18 34 8 -3 14 1 14 8 0 7 3 9 7 6 3 -4 1 -17 -6 -30z
m-461 3 c0 -11 -4 -20 -10 -20 -5 0 -10 9 -10 20 0 11 5 20 10 20 6 0 10 -9
10 -20z m160 10 c8 -5 12 -11 9 -14 -3 -3 -14 1 -25 9 -21 16 -8 20 16 5z
m1977 -32 c-3 -7 -5 -2 -5 12 0 14 2 19 5 13 2 -7 2 -19 0 -25z m-4818 -14
c-17 -21 -31 -17 -17 5 7 11 16 17 20 14 5 -2 4 -11 -3 -19z m2717 -32 c-9 -8
-26 10 -26 26 1 15 2 15 15 -2 8 -11 13 -21 11 -24z m2114 -8 c0 -8 -4 -14
-10 -14 -5 0 -10 9 -10 21 0 11 5 17 10 14 6 -3 10 -13 10 -21z m-4866 -8 c-6
-16 -24 -23 -24 -8 0 10 22 33 27 28 2 -2 1 -11 -3 -20z m2796 4 c-20 -13 -43
-13 -35 0 3 6 16 10 28 10 18 0 19 -2 7 -10z m369 -33 c0 -21 -1 -21 -9 -2
-12 28 -12 37 0 30 6 -3 10 -16 9 -28z m-336 8 c4 -8 2 -17 -2 -20 -5 -2 -11
4 -14 15 -6 23 8 27 16 5z m2024 -37 c-3 -7 -5 -2 -5 12 0 14 2 19 5 13 2 -7
2 -19 0 -25z m-4873 7 c-4 -8 -10 -15 -15 -15 -4 0 -6 7 -3 15 4 8 10 15 15
15 4 0 6 -7 3 -15z m2870 -30 c3 -8 1 -15 -3 -15 -5 0 -11 7 -15 15 -3 8 -1
15 3 15 5 0 11 -7 15 -15z m-2904 -11 c0 -8 -4 -12 -10 -9 -5 3 -10 10 -10 16
0 5 5 9 10 9 6 0 10 -7 10 -16z m4907 -26 c-3 -7 -5 -2 -5 12 0 14 2 19 5 13
2 -7 2 -19 0 -25z m-1705 -19 c3 -48 -14 -107 -32 -112 -12 -3 -19 -19 -24
-53 -9 -59 -34 -133 -53 -154 -11 -12 -13 -7 -13 33 0 34 -4 49 -16 54 -12 4
-13 8 -3 14 7 4 22 1 34 -7 21 -14 23 -13 29 8 3 13 6 37 6 55 0 20 10 44 27
64 22 26 27 42 27 85 0 52 15 63 18 13z m-3232 -4 c-7 -9 -15 -13 -18 -10 -3
2 1 11 8 20 7 9 15 13 18 10 3 -2 -1 -11 -8 -20z m2965 14 c11 -17 -1 -21 -15
-4 -8 9 -8 15 -2 15 6 0 14 -5 17 -11z m1995 -37 c0 -15 -2 -15 -10 -2 -13 20
-13 33 0 25 6 -3 10 -14 10 -23z m-5000 14 c0 -2 -7 -9 -15 -16 -12 -10 -15
-10 -15 4 0 9 7 16 15 16 8 0 15 -2 15 -4z m3046 -44 c-9 -8 -26 10 -26 26 1
15 2 15 15 -2 8 -11 13 -21 11 -24z m1659 -3 c-6 -9 -55 10 -55 22 0 4 13 3
30 -2 16 -6 28 -15 25 -20z m-3835 -29 c11 -32 23 -46 54 -62 23 -12 36 -23
29 -25 -26 -9 -74 29 -94 73 -20 49 -24 68 -11 60 5 -3 15 -24 22 -46z m-965
30 c-4 -6 4 -19 17 -30 13 -11 18 -19 13 -20 -6 0 -16 5 -23 12 -9 9 -12 8
-12 -5 0 -23 -17 -21 -30 3 -8 16 -8 20 4 20 7 0 16 7 20 15 3 8 8 15 11 15 4
0 3 -5 0 -10z m51 -6 c-3 -9 -6 -18 -6 -20 0 -3 -4 -3 -10 1 -11 7 -2 35 12
35 6 0 7 -7 4 -16z m-451 -15 c10 -30 0 -33 -13 -4 -6 14 -7 25 -2 25 5 0 12
-9 15 -21z m5255 11 c0 -5 -7 -10 -15 -10 -9 0 -12 -6 -9 -15 8 -19 0 -19 -16
0 -10 12 -8 16 11 24 13 5 25 10 27 10 1 1 2 -3 2 -9z m230 -5 c-7 -8 -17 -15
-22 -15 -6 0 -5 7 2 15 7 8 17 15 22 15 6 0 5 -7 -2 -15z m-1930 -25 c0 -11
-4 -20 -10 -20 -5 0 -10 9 -10 20 0 11 5 20 10 20 6 0 10 -9 10 -20z m1736
-17 c-4 -4 -11 -1 -16 7 -16 25 -11 35 7 17 9 -9 13 -20 9 -24z m144 -3 c-8
-5 -17 -7 -19 -4 -3 3 1 9 9 14 8 5 17 7 19 4 3 -3 -1 -9 -9 -14z m-5395 -11
c11 -17 -1 -21 -15 -4 -8 9 -8 15 -2 15 6 0 14 -5 17 -11z m5231 -16 c-7 -7
-26 7 -26 19 0 6 6 6 15 -2 9 -7 13 -15 11 -17z m74 17 c0 -5 -6 -10 -14 -10
-8 0 -18 5 -21 10 -3 6 3 10 14 10 12 0 21 -4 21 -10z m-4960 -14 c0 -8 -4
-18 -10 -21 -5 -3 -10 3 -10 14 0 12 5 21 10 21 6 0 10 -6 10 -14z m5000 -6
c-8 -5 -18 -6 -24 -3 -5 4 -1 10 10 13 24 9 34 2 14 -10z m-1843 -22 c-3 -7
-5 -2 -5 12 0 14 2 19 5 13 2 -7 2 -19 0 -25z m-3457 -3 c7 -8 8 -15 2 -15 -5
0 -15 7 -22 15 -7 8 -8 15 -2 15 5 0 15 -7 22 -15z m5240 -6 c0 -4 -7 -6 -15
-3 -8 4 -15 10 -15 15 0 4 7 6 15 3 8 -4 15 -10 15 -15z m-4926 -24 c3 -8 1
-15 -3 -15 -5 0 -11 7 -15 15 -3 8 -1 15 3 15 5 0 11 -7 15 -15z m-504 -17 c0
-19 -2 -20 -10 -8 -13 19 -13 30 0 30 6 0 10 -10 10 -22z m207 -10 c-3 -7 -5
-2 -5 12 0 14 2 19 5 13 2 -7 2 -19 0 -25z m3443 25 c0 -5 -5 -15 -10 -23 -8
-12 -10 -11 -10 8 0 12 5 22 10 22 6 0 10 -3 10 -7z m1800 -19 c0 -8 -4 -12
-10 -9 -5 3 -10 13 -10 21 0 8 5 12 10 9 6 -3 10 -13 10 -21z m-1768 -19 c-3
-18 4 -35 27 -60 30 -34 31 -39 29 -118 l-2 -82 -5 80 c-4 47 -10 80 -17 80
-13 0 -44 30 -44 43 0 6 -7 12 -15 16 -8 3 -15 13 -15 21 0 9 4 14 9 10 5 -3
12 4 16 15 9 29 23 25 17 -5z m-3152 -21 c0 -8 -4 -12 -10 -9 -5 3 -10 13 -10
21 0 8 5 12 10 9 6 -3 10 -13 10 -21z m-507 -24 c-7 -8 -22 24 -16 34 4 5 10
1 13 -10 4 -10 6 -21 3 -24z m207 15 c7 -8 8 -15 2 -15 -5 0 -15 7 -22 15 -7
8 -8 15 -2 15 5 0 15 -7 22 -15z m3617 -7 c-3 -8 -6 -5 -6 6 -1 11 2 17 5 13
3 -3 4 -12 1 -19z m1633 -9 c0 -5 -7 -6 -15 -3 -8 4 -15 13 -15 21 0 13 3 13
15 3 8 -7 15 -16 15 -21z m-5200 -4 c7 -8 8 -15 2 -15 -5 0 -15 7 -22 15 -7 8
-8 15 -2 15 5 0 15 -7 22 -15z m260 -14 c0 -12 -20 -25 -27 -18 -7 7 6 27 18
27 5 0 9 -4 9 -9z m-490 -34 c0 -5 -4 -5 -10 -2 -5 3 -10 14 -10 23 0 15 2 15
10 2 5 -8 10 -19 10 -23z m5466 6 c-7 -7 -26 7 -26 19 0 6 6 6 15 -2 9 -7 13
-15 11 -17z m-5005 -47 c-8 -13 -22 -27 -32 -29 -25 -7 -24 10 1 18 13 4 20
15 20 33 0 20 3 23 12 14 9 -9 9 -17 -1 -36z m-384 28 c-3 -3 -12 -4 -19 -1
-8 3 -5 6 6 6 11 1 17 -2 13 -5z m-37 -14 c0 -5 -6 -10 -14 -10 -8 0 -18 5
-21 10 -3 6 3 10 14 10 12 0 21 -4 21 -10z m5440 -12 c0 -19 -2 -20 -10 -8
-13 19 -13 30 0 30 6 0 10 -10 10 -22z m-5540 -14 c0 -8 -4 -12 -10 -9 -5 3
-10 13 -10 21 0 8 5 12 10 9 6 -3 10 -13 10 -21z m3819 -61 c1 -46 -1 -51 -19
-46 -24 6 -27 23 -4 23 10 0 14 6 10 18 -5 18 -9 71 -6 87 4 25 19 -35 19 -82z
m-3459 52 c0 -8 -4 -15 -10 -15 -5 0 -7 7 -4 15 4 8 8 15 10 15 2 0 4 -7 4
-15z m30 -20 c10 -12 10 -15 -4 -15 -9 0 -16 7 -16 15 0 8 2 15 4 15 2 0 9 -7
16 -15z m-345 -6 c11 -17 -1 -21 -15 -4 -8 9 -8 15 -2 15 6 0 14 -5 17 -11z
m405 -38 c-14 -27 -30 -27 -30 0 0 11 4 18 9 15 5 -3 12 4 16 17 6 18 8 19 12
5 2 -9 -1 -26 -7 -37z m5110 17 c0 -5 -4 -8 -10 -8 -5 0 -10 10 -10 23 0 18 2
19 10 7 5 -8 10 -18 10 -22z m-5428 -10 c-9 -9 -15 -9 -24 0 -9 9 -7 12 12 12
19 0 21 -3 12 -12z m48 -21 c0 -5 -4 -5 -10 -2 -5 3 -10 14 -10 23 0 15 2 15
10 2 5 -8 10 -19 10 -23z m-100 13 c12 -8 11 -10 -7 -10 -13 0 -23 5 -23 10 0
13 11 13 30 0z m5490 -36 c0 -8 -4 -12 -10 -9 -5 3 -10 13 -10 21 0 8 5 12 10
9 6 -3 10 -13 10 -21z m-5160 10 c0 -8 -58 -32 -64 -27 -15 16 -3 28 29 29 19
0 35 -1 35 -2z m-185 -14 c3 -5 -3 -10 -14 -10 -12 0 -21 5 -21 10 0 6 6 10
14 10 8 0 18 -4 21 -10z m3476 -43 c-13 -13 -15 1 -4 30 7 17 8 17 11 -1 2
-10 -1 -23 -7 -29z m-3433 4 c3 -8 -1 -12 -9 -9 -7 2 -15 10 -17 17 -3 8 1 12
9 9 7 -2 15 -10 17 -17z m52 9 c-20 -13 -33 -13 -25 0 3 6 14 10 23 10 15 0
15 -2 2 -10z m3553 -32 c2 -18 1 -40 -4 -48 -6 -11 -8 -6 -9 17 0 17 -3 38 -6
47 -3 9 -2 16 4 16 5 0 12 -15 15 -32z m1707 15 c-1 -20 -27 -59 -35 -52 -2 3
2 17 9 31 8 15 12 29 8 32 -3 3 0 6 6 6 7 0 12 -8 12 -17z m-1880 -39 c0 -8
-4 -12 -10 -9 -5 3 -10 10 -10 16 0 5 5 9 10 9 6 0 10 -7 10 -16z m23 -54 c3
-11 1 -20 -4 -20 -5 0 -9 2 -9 4 0 2 -3 11 -6 20 -3 9 -2 16 4 16 5 0 12 -9
15 -20z m1814 -12 c-3 -7 -5 -2 -5 12 0 14 2 19 5 13 2 -7 2 -19 0 -25z m0
-55 c-3 -10 -5 -4 -5 12 0 17 2 24 5 18 2 -7 2 -21 0 -30z m-1797 17 c0 -5 -2
-10 -4 -10 -3 0 -8 5 -11 10 -3 6 -1 10 4 10 6 0 11 -4 11 -10z m1800 -60 c0
-11 -4 -20 -9 -20 -5 0 -7 9 -4 20 3 11 7 20 9 20 2 0 4 -9 4 -20z m-4817 -10
c-3 -11 -7 -20 -9 -20 -2 0 -4 9 -4 20 0 11 4 20 9 20 5 0 7 -9 4 -20z m4810
-50 c3 -11 1 -20 -4 -20 -5 0 -9 2 -9 4 0 2 -3 11 -6 20 -3 9 -2 16 4 16 5 0
12 -9 15 -20z m-5316 -12 c-3 -8 -6 -5 -6 6 -1 11 2 17 5 13 3 -3 4 -12 1 -19z
m490 -10 c-3 -7 -5 -2 -5 12 0 14 2 19 5 13 2 -7 2 -19 0 -25z m4852 -51 c0
-21 -1 -21 -9 -2 -12 28 -12 37 0 30 6 -3 10 -16 9 -28z m-4836 -7 c-3 -11
-10 -23 -16 -27 -7 -4 -8 0 -4 11 4 10 7 24 7 32 0 9 4 13 9 10 5 -3 7 -15 4
-26z m3093 -27 c-11 -11 -17 4 -9 23 7 18 8 18 11 1 2 -10 1 -21 -2 -24z
m1754 -24 c0 -11 -4 -17 -10 -14 -5 3 -10 13 -10 21 0 8 5 14 10 14 6 0 10 -9
10 -21z m-4853 -31 c-3 -7 -5 -2 -5 12 0 14 2 19 5 13 2 -7 2 -19 0 -25z
m1328 2 c-4 -12 -9 -19 -12 -17 -3 3 -2 15 2 27 4 12 9 19 12 17 3 -3 2 -15
-2 -27z m1765 8 c0 -18 -2 -20 -9 -8 -6 8 -7 18 -5 22 9 14 14 9 14 -14z
m1757 -50 c-3 -7 -5 -2 -5 12 0 14 2 19 5 13 2 -7 2 -19 0 -25z m-4867 -14
c-18 -21 -24 -10 -9 18 8 14 14 18 17 10 2 -7 -2 -19 -8 -28z m3116 -11 c-11
-11 -19 6 -11 24 8 17 8 17 12 0 3 -10 2 -21 -1 -24z m1778 -9 c10 -25 -1 -29
-14 -5 -6 12 -7 21 -1 21 5 0 12 -7 15 -16z m-1769 -24 c3 -5 2 -10 -4 -10 -5
0 -13 5 -16 10 -3 6 -2 10 4 10 5 0 13 -4 16 -10z m1805 -42 c0 -13 -23 -5
-28 10 -2 7 2 10 12 6 9 -3 16 -11 16 -16z m45 -18 c3 -5 -1 -10 -9 -10 -8 0
-18 5 -21 10 -3 6 1 10 9 10 8 0 18 -4 21 -10z m65 -9 c0 -5 -9 -7 -20 -4 -11
3 -20 7 -20 9 0 2 9 4 20 4 11 0 20 -4 20 -9z m27 -36 c9 -25 -4 -29 -17 -6
-7 15 -7 21 0 21 6 0 13 -7 17 -15z m13 -59 c0 -8 -4 -18 -10 -21 -5 -3 -10 3
-10 14 0 12 5 21 10 21 6 0 10 -6 10 -14z m0 -67 c0 -11 -4 -17 -10 -14 -5 3
-10 13 -10 21 0 8 5 14 10 14 6 0 10 -9 10 -21z m20 -57 c0 -15 -2 -15 -10 -2
-13 20 -13 33 0 25 6 -3 10 -14 10 -23z m7 -58 c-9 -9 -28 6 -21 18 4 6 10 6
17 -1 6 -6 8 -13 4 -17z m30 -50 c-9 -9 -27 6 -27 22 0 13 2 13 16 -1 9 -9 14
-18 11 -21z m23 -34 c0 -11 -4 -20 -10 -20 -5 0 -10 9 -10 20 0 11 5 20 10 20
6 0 10 -9 10 -20z m26 -67 c-7 -7 -26 7 -26 19 0 6 6 6 15 -2 9 -7 13 -15 11
-17z m-1910 -10 c-7 -7 -26 7 -26 19 0 6 6 6 15 -2 9 -7 13 -15 11 -17z m-51
-2 c-3 -6 -11 -11 -17 -11 -6 0 -6 6 2 15 14 17 26 13 15 -4z m15 -33 c0 -4
-9 -8 -21 -8 -11 0 -18 4 -15 8 3 5 12 9 21 9 8 0 15 -4 15 -9z m1940 -92 c0
-8 -4 -18 -10 -21 -5 -3 -10 3 -10 14 0 12 5 21 10 21 6 0 10 -6 10 -14z
m-1920 -20 c0 -3 -4 -8 -10 -11 -5 -3 -10 -1 -10 4 0 6 5 11 10 11 6 0 10 -2
10 -4z m1910 -41 c0 -14 -4 -25 -9 -25 -4 0 -6 11 -3 25 2 14 6 25 8 25 2 0 4
-11 4 -25z m-1933 -17 c-3 -7 -5 -2 -5 12 0 14 2 19 5 13 2 -7 2 -19 0 -25z"/>
<path d="M5780 6650 c0 -5 5 -10 10 -10 6 0 10 5 10 10 0 6 -4 10 -10 10 -5 0
-10 -4 -10 -10z"/>
<path d="M4930 5942 c0 -10 22 -32 32 -32 4 0 8 9 8 20 0 13 -7 20 -20 20 -11
0 -20 -4 -20 -8z"/>
<path d="M5003 5913 c-7 -2 -13 -16 -13 -29 0 -22 3 -23 20 -14 11 6 20 20 20
30 0 20 -5 23 -27 13z"/>
<path d="M4956 5882 c-3 -6 -3 -17 0 -25 3 -8 -2 -29 -10 -45 -16 -31 -12 -66
7 -59 6 2 16 21 24 42 11 33 11 44 -1 68 -7 16 -16 24 -20 19z"/>
<path d="M4840 5860 c-13 -11 -19 -20 -13 -20 5 0 18 9 28 20 10 11 16 20 13
20 -3 0 -15 -9 -28 -20z"/>
<path d="M4990 5750 c0 -5 10 -15 23 -21 22 -12 22 -12 3 10 -21 23 -26 26
-26 11z"/>
<path d="M5035 5750 c3 -5 8 -10 11 -10 2 0 4 5 4 10 0 6 -5 10 -11 10 -5 0
-7 -4 -4 -10z"/>
<path d="M5020 5492 c0 -14 11 -21 26 -15 8 3 11 9 8 14 -7 11 -34 12 -34 1z"/>
<path d="M4361 4082 c-6 -12 -11 -29 -11 -39 1 -11 7 -4 16 16 16 37 12 55 -5
23z"/>
<path d="M4380 4015 c0 -9 6 -12 15 -9 8 4 15 7 15 9 0 2 -7 5 -15 9 -9 3 -15
0 -15 -9z"/>
<path d="M4387 3983 c-4 -3 1 -12 10 -18 12 -9 17 -28 17 -68 l1 -56 28 26
c15 15 27 34 27 43 0 9 5 21 12 28 9 9 7 12 -10 12 -13 0 -32 9 -44 20 -23 21
-31 24 -41 13z"/>
<path d="M4363 3938 c-41 -51 -35 -89 12 -81 26 5 33 22 27 66 -4 28 -23 36
-39 15z"/>
<path d="M4500 3930 c-11 -11 -20 -28 -20 -37 0 -9 -7 -25 -17 -35 -15 -17
-15 -18 5 -18 15 0 20 5 16 15 -4 10 0 15 16 15 14 0 19 4 14 12 -5 8 -2 9 9
5 14 -5 17 0 17 28 0 40 -11 44 -40 15z"/>
<path d="M4310 3819 c0 -24 3 -30 16 -25 9 3 24 6 34 6 10 0 21 7 24 16 9 25
-1 30 -22 11 -24 -22 -32 -21 -32 3 0 11 -4 20 -10 20 -5 0 -10 -14 -10 -31z"/>
<path d="M4265 3830 c-7 -12 2 -30 16 -30 5 0 9 9 9 20 0 21 -15 27 -25 10z"/>
<path d="M4439 3815 c-3 -2 -3 -19 -1 -38 3 -25 10 -36 31 -44 28 -10 28 -10
28 33 0 31 -3 41 -13 37 -8 -3 -14 0 -14 6 0 11 -22 15 -31 6z m31 -55 c0 -5
-4 -10 -10 -10 -5 0 -10 5 -10 10 0 6 5 10 10 10 6 0 10 -4 10 -10z"/>
<path d="M4510 3770 c0 -28 5 -50 10 -50 20 0 60 32 60 49 0 14 -2 14 -10 1
-8 -13 -10 -12 -10 3 0 20 -23 47 -39 47 -6 0 -11 -21 -11 -50z"/>
<path d="M4180 3790 c0 -5 9 -10 21 -10 12 0 19 -5 17 -12 -4 -11 20 -46 25
-37 1 2 8 15 15 28 12 20 12 25 0 32 -18 12 -78 11 -78 -1z"/>
<path d="M4146 3772 c-6 -11 12 -112 20 -112 6 0 -3 110 -9 117 -3 2 -8 0 -11
-5z"/>
<path d="M4181 3744 c0 -11 3 -14 6 -6 3 7 2 16 -1 19 -3 4 -6 -2 -5 -13z"/>
<path d="M4275 3740 c-3 -5 -1 -10 4 -10 6 0 11 5 11 10 0 6 -2 10 -4 10 -3 0
-8 -4 -11 -10z"/>
<path d="M4318 3743 c6 -2 18 -2 25 0 6 3 1 5 -13 5 -14 0 -19 -2 -12 -5z"/>
<path d="M4230 3710 c0 -5 5 -10 10 -10 6 0 10 5 10 10 0 6 -4 10 -10 10 -5 0
-10 -4 -10 -10z"/>
<path d="M4270 3710 c0 -5 14 -10 30 -10 17 0 30 5 30 10 0 6 -13 10 -30 10
-16 0 -30 -4 -30 -10z"/>
<path d="M4182 3690 c0 -14 2 -19 5 -12 2 6 2 18 0 25 -3 6 -5 1 -5 -13z"/>
<path d="M4200 3680 c0 -5 5 -10 11 -10 5 0 7 5 4 10 -3 6 -8 10 -11 10 -2 0
-4 -4 -4 -10z"/>
<path d="M4234 3664 c3 -9 6 -18 6 -20 0 -14 51 -1 60 16 10 19 8 20 -31 20
-33 0 -40 -3 -35 -16z"/>
<path d="M4188 3623 c6 -2 18 -2 25 0 6 3 1 5 -13 5 -14 0 -19 -2 -12 -5z"/>
<path d="M4235 3609 c-9 -29 2 -36 20 -13 18 24 19 34 1 34 -8 0 -18 -9 -21
-21z"/>
<path d="M4182 3598 c6 -18 28 -21 28 -4 0 9 -7 16 -16 16 -9 0 -14 -5 -12
-12z"/>
<path d="M4213 3543 c-4 -9 -1 -19 5 -21 17 -5 15 -42 -3 -42 -9 0 -15 -9 -15
-22 l1 -23 19 24 c23 27 35 65 26 86 -7 20 -25 19 -33 -2z m27 -3 c0 -5 -5
-10 -11 -10 -5 0 -7 5 -4 10 3 6 8 10 11 10 2 0 4 -4 4 -10z"/>
<path d="M4256 3495 c-9 -35 0 -43 21 -22 16 16 16 18 1 33 -14 14 -16 13 -22
-11z"/>
<path d="M4160 3370 c0 -15 40 -51 50 -45 5 3 -2 17 -14 30 -25 27 -36 31 -36
15z"/>
<path d="M4112 3317 c-8 -9 -34 -26 -58 -38 -41 -19 -43 -22 -27 -34 14 -11
19 -11 23 -1 12 29 34 43 52 33 22 -14 30 -5 26 29 -3 24 -4 26 -16 11z"/>
<path d="M4360 3336 c0 -9 5 -16 11 -16 5 0 7 -4 4 -10 -3 -5 -1 -10 4 -10 16
0 13 19 -4 36 -13 14 -15 14 -15 0z"/>
<path d="M4456 3288 c-10 -38 -6 -45 9 -18 17 29 18 40 6 40 -5 0 -11 -10 -15
-22z"/>
<path d="M3800 1581 c0 -5 5 -13 10 -16 6 -3 10 -2 10 4 0 5 -4 13 -10 16 -5
3 -10 2 -10 -4z"/>
</g>
</svg>
