<?xml version="1.0" standalone="no"?>
<!DOCTYPE svg PUBLIC "-//W3C//DTD SVG 20010904//EN"
 "http://www.w3.org/TR/2001/REC-SVG-20010904/DTD/svg10.dtd">
<svg version="1.0" xmlns="http://www.w3.org/2000/svg"
 width="800.000000pt" height="800.000000pt" viewBox="0 0 800.000000 800.000000"
 preserveAspectRatio="xMidYMid meet">
<metadata>
Created by potrace 1.16, written by Peter Selinger 2001-2019
</metadata>
<g transform="translate(0.000000,800.000000) scale(0.100000,-0.100000)"
fill="#000000" stroke="none">
<path d="M0 5280 c0 -2713 0 -2720 20 -2720 11 0 20 -4 20 -10 0 -5 -9 -10
-20 -10 -20 0 -20 -7 -20 -524 0 -410 3 -525 13 -529 9 -4 9 -7 -1 -15 -10 -7
-13 -38 -11 -126 2 -64 6 -116 10 -116 4 0 10 -7 13 -16 4 -12 2 -15 -9 -10
-13 4 -15 -8 -15 -78 l0 -84 47 -27 c39 -22 51 -24 66 -15 32 20 33 -1 2 -26
-33 -27 -50 -31 -42 -11 6 15 -29 41 -38 28 -3 -5 1 -12 7 -14 10 -4 9 -8 -2
-16 -11 -8 -18 -6 -28 6 -10 14 -12 -35 -10 -261 3 -236 5 -280 18 -286 62
-29 77 -39 89 -64 12 -27 11 -30 -27 -70 -21 -22 -42 -49 -45 -58 -10 -29 -24
-21 -23 12 1 23 7 32 24 37 32 8 64 51 56 77 -9 27 -35 47 -53 41 -7 -3 -20 0
-27 6 -11 9 -14 -23 -13 -195 l0 -206 4000 0 3999 0 0 1521 c0 837 -3 1519 -6
1516 -6 -6 -44 28 -44 39 0 3 11 3 25 0 l25 -6 0 2465 0 2465 -3504 0 -3504 0
-16 -22 -17 -23 5 23 4 22 -484 0 -484 0 0 -2720z m960 2663 c0 -14 -19 -38
-25 -32 -8 8 5 39 16 39 5 0 9 -3 9 -7z m-33 -68 c-4 -8 -11 -15 -17 -15 -7 0
-7 6 0 21 13 23 26 19 17 -6z m-27 -56 c-7 -11 -14 -18 -17 -15 -8 8 5 36 17
36 7 0 7 -6 0 -21z m-20 -36 c0 -14 -19 -38 -25 -32 -8 8 5 39 16 39 5 0 9 -3
9 -7z m-38 -75 c-7 -7 -12 -8 -12 -2 0 14 12 26 19 19 2 -3 -1 -11 -7 -17z
m-17 -38 c-3 -5 -13 -10 -21 -10 -8 0 -12 5 -9 10 3 6 13 10 21 10 8 0 12 -4
9 -10z m-55 -20 c0 -5 -4 -10 -10 -10 -5 0 -10 5 -10 10 0 6 5 10 10 10 6 0
10 -4 10 -10z m-50 -20 c-19 -12 -30 -12 -30 -1 0 10 31 20 40 14 2 -2 -2 -8
-10 -13z m-48 -32 c-6 -6 -15 -8 -19 -4 -4 4 -1 11 7 16 19 12 27 3 12 -12z
m-50 -40 c-6 -6 -15 -8 -19 -4 -4 4 -1 11 7 16 19 12 27 3 12 -12z m-32 -32
c0 -19 -4 -23 -19 -19 -13 3 -24 -5 -40 -30 -23 -37 -27 -52 -11 -42 6 3 10
-1 10 -9 0 -10 -9 -16 -21 -16 -18 0 -20 -4 -14 -32 5 -30 5 -31 -9 -15 -14
18 -15 18 -27 -5 -7 -13 -14 -18 -16 -11 -8 23 114 200 140 202 4 1 7 -10 7
-23z m2450 -11 c0 -2 -7 -23 -16 -45 -11 -27 -14 -54 -10 -83 5 -32 3 -44 -6
-44 -7 0 -24 -3 -36 -7 -21 -7 -23 -5 -18 12 5 14 1 21 -14 25 -20 5 -25 25
-21 74 1 18 -2 21 -16 16 -12 -4 -9 4 11 25 25 27 37 32 78 32 26 0 48 -2 48
-5z m-2440 -54 c0 -19 -19 -32 -48 -30 -13 0 -11 3 6 11 12 6 22 17 22 25 0 7
5 13 10 13 6 0 10 -9 10 -19z m-230 -25 c0 -3 -4 -8 -10 -11 -5 -3 -10 -1 -10
4 0 6 5 11 10 11 6 0 10 -2 10 -4z m-40 -31 c-7 -8 -17 -15 -22 -15 -6 0 -5 7
2 15 7 8 17 15 22 15 6 0 5 -7 -2 -15z m270 8 c0 -5 -5 -15 -10 -23 -8 -12
-10 -11 -10 8 0 12 5 22 10 22 6 0 10 -3 10 -7z m-315 -42 c-3 -6 -14 -11 -23
-11 -15 1 -15 2 2 15 21 16 32 13 21 -4z m-48 -36 c0 -8 -4 -15 -8 -15 -4 0
-9 -8 -12 -17 -4 -17 -4 -17 -11 -1 -5 10 -2 23 6 32 17 20 25 20 25 1z m348
-5 c-3 -5 -10 -10 -16 -10 -5 0 -9 5 -9 10 0 6 7 10 16 10 8 0 12 -4 9 -10z
m-338 -47 c-1 -18 3 -27 11 -25 6 1 12 -2 12 -8 0 -5 -4 -10 -10 -10 -5 0 -10
-6 -10 -13 0 -8 -11 -14 -29 -14 -25 0 -28 4 -27 26 1 20 37 68 53 71 1 0 1
-12 0 -27z m2643 18 c0 -5 3 -18 6 -28 5 -16 4 -16 -10 1 -18 23 -20 36 -6 36
6 0 10 -4 10 -9z m125 -51 c16 -16 26 -33 22 -36 -7 -7 -86 47 -87 59 0 18 39
4 65 -23z m-2860 6 c15 -15 10 -26 -12 -26 -7 0 -13 9 -13 20 0 24 6 25 25 6z
m314 -53 c-7 -10 -15 -20 -16 -22 -2 -2 -3 5 -3 17 0 14 6 22 16 22 14 0 15
-3 3 -17z m-99 2 c0 -14 -32 -65 -40 -65 -6 0 -9 -3 -9 -7 1 -5 0 -19 -1 -33
-2 -19 -3 -21 -7 -7 -3 13 -10 16 -21 11 -32 -13 -90 -14 -95 -1 -3 9 7 11 38
9 33 -3 48 1 62 16 33 35 53 62 53 72 0 6 5 10 10 10 6 0 10 -2 10 -5z m285
-85 c3 -5 2 -10 -4 -10 -5 0 -13 5 -16 10 -3 6 -2 10 4 10 5 0 13 -4 16 -10z
m-75 -21 c0 -5 -4 -9 -10 -9 -5 0 -10 7 -10 16 0 8 5 12 10 9 6 -3 10 -10 10
-16z m-150 -9 c0 -11 -4 -20 -10 -20 -5 0 -10 -7 -10 -17 0 -9 -3 -14 -6 -10
-9 8 6 67 17 67 5 0 9 -9 9 -20z m170 -8 c0 -15 -28 -47 -35 -40 -8 8 13 48
25 48 6 0 10 -4 10 -8z m-250 -12 c0 -5 -4 -10 -10 -10 -5 0 -10 5 -10 10 0 6
5 10 10 10 6 0 10 -4 10 -10z m190 -30 c0 -5 -9 -10 -21 -10 -11 0 -17 5 -14
10 3 6 13 10 21 10 8 0 14 -4 14 -10z m-139 -43 c-8 -8 -11 -7 -11 4 0 20 13
34 18 19 3 -7 -1 -17 -7 -23z m534 13 c-3 -5 -13 -10 -21 -10 -8 0 -12 5 -9
10 3 6 13 10 21 10 8 0 12 -4 9 -10z m1885 -10 c0 -5 -12 -10 -27 -9 -25 0
-26 1 -8 9 27 12 35 12 35 0z m-1945 -10 c-3 -5 -13 -10 -21 -10 -8 0 -12 5
-9 10 3 6 13 10 21 10 8 0 12 -4 9 -10z m85 -16 c0 -8 -4 -12 -10 -9 -5 3 -10
13 -10 21 0 8 5 12 10 9 6 -3 10 -13 10 -21z m-564 -41 c-11 -11 -19 6 -11 24
8 17 8 17 12 0 3 -10 2 -21 -1 -24z m584 -25 c0 -5 -4 -8 -10 -8 -5 0 -10 10
-10 23 0 18 2 19 10 7 5 -8 10 -18 10 -22z m2090 23 c0 -5 3 -16 6 -25 4 -11
1 -16 -10 -16 -9 0 -16 -4 -16 -10 0 -5 -11 -10 -25 -10 -14 0 -25 5 -25 10 0
6 6 10 14 10 8 0 17 11 20 25 6 23 36 36 36 16z m-2670 -47 c0 -8 -4 -12 -10
-9 -5 3 -10 13 -10 21 0 8 5 12 10 9 6 -3 10 -13 10 -21z m594 -20 c8 -21 8
-24 -3 -24 -5 0 -11 9 -14 20 -6 24 8 27 17 4z m-603 -24 c6 -16 15 -28 19
-25 11 7 16 -3 24 -45 l6 -35 -15 30 c-13 27 -14 28 -15 8 0 -14 -6 -23 -15
-23 -17 0 -19 -9 -5 -30 8 -13 10 -12 10 3 0 21 7 22 27 1 14 -14 14 -16 -5
-21 -11 -2 -23 -15 -27 -26 -7 -23 -9 -18 -29 65 -3 10 3 18 17 22 12 3 18 9
14 13 -11 11 -37 12 -37 2 0 -5 -12 -9 -27 -9 -25 1 -26 2 -11 14 13 10 15 15
6 24 -9 9 -8 12 5 12 9 0 17 -4 17 -10 0 -5 10 -10 22 -10 17 0 19 3 10 12
-12 12 -17 58 -6 58 3 0 10 -13 15 -30z m619 -40 c0 -11 -4 -20 -10 -20 -5 0
-10 9 -10 20 0 11 5 20 10 20 6 0 10 -9 10 -20z m-720 -17 c0 -26 0 -26 -19
-7 -12 13 -15 21 -7 26 20 13 26 9 26 -19z m110 -157 c0 -8 -4 -18 -10 -21 -5
-3 -10 3 -10 14 0 12 5 21 10 21 6 0 10 -6 10 -14z m14 -52 c9 -22 -3 -32 -14
-14 -12 19 -12 30 -1 30 5 0 12 -7 15 -16z m90 -30 c21 -21 20 -34 -3 -34 -11
0 -26 -3 -35 -6 -9 -3 -16 -2 -16 4 0 5 11 13 25 16 34 9 23 25 -11 18 -19 -3
-25 -1 -20 7 10 16 42 14 60 -5z m6 -54 c0 -5 -10 -10 -22 -10 -19 0 -20 2 -8
10 19 13 30 13 30 0z m600 -135 c14 -16 10 -18 -14 -9 -9 3 -16 10 -16 15 0
14 16 11 30 -6z m-50 -5 c-19 -13 -30 -13 -30 0 0 6 10 10 23 10 18 0 19 -2 7
-10z m-60 -20 c-19 -12 -30 -12 -30 -1 0 10 31 20 40 14 2 -2 -2 -8 -10 -13z
m134 -15 c-6 -16 -24 -21 -24 -7 0 11 11 22 21 22 5 0 6 -7 3 -15z m-150 -20
c3 -8 1 -15 -3 -15 -5 0 -11 7 -15 15 -3 8 -1 15 3 15 5 0 11 -7 15 -15z
m5846 -34 c0 -5 -11 -12 -24 -15 -13 -3 -31 -9 -40 -12 -9 -3 -16 -2 -16 3 0
6 15 15 33 21 42 13 47 14 47 3z m-5834 -10 c-8 -12 -46 -21 -46 -11 0 9 18
18 38 19 7 1 11 -3 8 -8z m6691 -68 c-3 -10 -5 -2 -5 17 0 19 2 27 5 18 2 -10
2 -26 0 -35z m-6687 -43 c0 -5 -9 -10 -21 -10 -16 0 -20 -5 -17 -27 2 -20 -2
-29 -14 -31 -10 -2 -18 1 -18 7 0 6 5 11 10 11 6 0 10 8 10 18 0 10 5 23 12
30 15 15 38 16 38 2z m74 -22 c-7 -11 -83 -30 -97 -24 -7 2 -2 8 11 11 12 4
22 10 22 14 0 4 15 7 34 7 19 0 33 -3 30 -8z m16 -43 c0 -8 11 -17 24 -21 25
-6 28 -26 8 -46 -9 -9 -16 -9 -28 3 -17 18 -30 94 -14 84 5 -3 10 -13 10 -20z
m-188 -17 c-6 -6 -15 -8 -19 -4 -4 4 -1 11 7 16 19 12 27 3 12 -12z m98 -20
c0 -5 -12 -8 -27 -7 -24 0 -25 2 -9 8 14 5 16 10 8 15 -7 4 -10 12 -6 17 6 10
33 -17 34 -33z m178 -7 c3 -8 -1 -12 -9 -9 -7 2 -15 10 -17 17 -3 8 1 12 9 9
7 -2 15 -10 17 -17z m49 4 c9 -25 -4 -29 -17 -6 -7 15 -7 21 0 21 6 0 13 -7
17 -15z m-294 -2 c-7 -2 -21 -2 -30 0 -10 3 -4 5 12 5 17 0 24 -2 18 -5z m127
-8 c0 -9 -6 -12 -15 -9 -8 4 -22 1 -30 -6 -12 -10 -15 -10 -15 2 0 21 10 28
37 28 14 0 23 -6 23 -15z m220 5 c0 -5 -10 -10 -22 -10 -19 0 -20 2 -8 10 19
13 30 13 30 0z m-294 -47 c-2 -10 -13 -19 -24 -21 -27 -4 -28 6 -4 24 23 18
31 17 28 -3z m94 -19 c0 -8 -4 -12 -10 -9 -5 3 -10 13 -10 21 0 8 5 12 10 9 6
-3 10 -13 10 -21z m80 16 c0 -13 -11 -13 -30 0 -12 8 -11 10 8 10 12 0 22 -4
22 -10z m40 -10 c0 -5 -4 -10 -10 -10 -5 0 -10 5 -10 10 0 6 5 10 10 10 6 0
10 -4 10 -10z m-270 -10 c0 -5 -9 -10 -21 -10 -11 0 -17 5 -14 10 3 6 13 10
21 10 8 0 14 -4 14 -10z m70 -22 c0 -19 -2 -20 -10 -8 -13 19 -13 30 0 30 6 0
10 -10 10 -22z m215 -8 c-3 -5 -13 -10 -21 -10 -8 0 -12 5 -9 10 3 6 13 10 21
10 8 0 12 -4 9 -10z m-121 -43 c-20 -12 -25 -6 -17 22 6 23 7 23 20 5 11 -15
11 -19 -3 -27z m61 23 c-3 -5 -13 -10 -21 -10 -8 0 -12 5 -9 10 3 6 13 10 21
10 8 0 12 -4 9 -10z m-105 -31 c0 -7 -42 -20 -47 -16 -1 2 0 13 3 24 5 19 9
20 25 10 10 -6 19 -15 19 -18z m-60 -19 c0 -5 -7 -10 -16 -10 -8 0 -12 5 -9
10 3 6 10 10 16 10 5 0 9 -4 9 -10z m-56 -26 c5 -12 2 -15 -10 -10 -8 3 -18 6
-20 6 -3 0 -2 5 1 10 9 15 22 12 29 -6z m-65 -24 c-21 -17 -22 -19 -6 -20 10
0 15 -4 12 -10 -10 -16 -32 -11 -32 8 -2 30 6 42 28 42 21 0 21 0 -2 -20z
m-39 0 c0 -5 -6 -10 -12 -11 -10 0 -10 -2 -1 -6 18 -7 -3 -43 -25 -43 -16 1
-15 2 1 14 17 13 17 14 1 18 -17 3 -17 4 0 21 19 19 36 22 36 7z m105 -10 c-3
-5 -13 -10 -21 -10 -8 0 -12 5 -9 10 3 6 13 10 21 10 8 0 12 -4 9 -10z m-168
-32 c-3 -28 -8 -34 -40 -41 -28 -7 -37 -14 -37 -30 -1 -21 -2 -21 -14 -4 -7 9
-19 17 -27 18 -10 0 -11 2 -1 6 20 8 15 33 -5 26 -45 -16 7 17 57 35 72 27 72
27 67 -10z m-147 -27 c0 -5 3 -16 6 -25 3 -9 1 -16 -5 -16 -6 0 -11 7 -11 16
0 11 -6 14 -20 9 -11 -3 -20 -2 -20 4 0 8 16 16 43 20 4 0 7 -3 7 -8z m7210
-79 c0 -8 -475 -162 -501 -162 -27 0 8 17 81 40 41 13 149 47 240 76 184 58
180 57 180 46z m-760 -246 c-5 -5 -38 -10 -72 -11 -45 -1 -104 -15 -203 -47
-607 -199 -922 -301 -981 -319 -73 -22 -152 -47 -749 -234 -603 -190 -588
-186 -597 -172 -4 6 -8 15 -8 20 0 11 18 9 22 -3 2 -5 28 -2 63 9 33 11 148
47 255 81 281 88 457 144 875 275 204 64 478 152 610 195 602 197 663 215 730
215 40 0 60 -4 55 -9z m-3965 -86 c-3 -5 -21 -10 -38 -10 -24 0 -28 3 -17 10
20 13 63 13 55 0z m-175 -49 c0 -11 -167 -63 -188 -58 -9 2 26 17 78 35 108
35 110 35 110 23z m-2104 -66 c-21 -16 -32 -13 -21 4 3 6 14 11 23 11 15 -1
15 -2 -2 -15z m97 -15 c-3 -11 -7 -20 -9 -20 -2 0 -4 9 -4 20 0 11 4 20 9 20
5 0 7 -9 4 -20z m35 -15 c2 -21 -2 -35 -9 -35 -6 0 -9 6 -6 14 3 7 1 18 -5 24
-6 6 -7 15 -4 21 13 20 22 11 24 -24z m1757 26 c-6 -5 -95 -35 -200 -67 -104
-31 -194 -61 -198 -65 -8 -6 25 -121 145 -504 50 -162 154 -482 164 -510 4 -8
1 -15 -4 -15 -12 0 -74 184 -207 615 -48 154 -96 308 -107 343 -12 39 -24 62
-31 59 -61 -22 -119 -38 -129 -35 -16 6 103 49 342 125 189 59 245 73 225 54z
m-1862 -31 c-7 -28 -13 -25 -13 6 0 14 4 23 9 20 5 -3 7 -15 4 -26z m-128 0
c3 -5 -3 -10 -15 -10 -12 0 -18 5 -15 10 3 6 10 10 15 10 5 0 12 -4 15 -10z
m75 -15 c0 -29 -17 -32 -46 -9 -18 15 -18 15 4 11 15 -4 25 0 29 9 8 21 13 17
13 -11z m-135 -5 c-3 -5 -14 -10 -23 -10 -15 0 -15 2 -2 10 20 13 33 13 25 0z
m238 3 c-7 -2 -21 -2 -30 0 -10 3 -4 5 12 5 17 0 24 -2 18 -5z m322 -13 c-3
-5 -13 -10 -21 -10 -8 0 -14 5 -14 10 0 6 9 10 21 10 11 0 17 -4 14 -10z
m-380 -10 c-3 -5 -14 -10 -23 -10 -15 0 -15 2 -2 10 20 13 33 13 25 0z m315
-10 c-19 -12 -30 -12 -30 -1 0 10 31 20 40 14 2 -2 -2 -8 -10 -13z m-530 -10
c-20 -13 -43 -13 -35 0 3 6 16 10 28 10 18 0 19 -2 7 -10z m470 -10 c-8 -5
-18 -6 -24 -3 -5 4 -1 10 10 13 24 9 34 2 14 -10z m-45 -10 c-3 -5 -13 -10
-21 -10 -8 0 -12 5 -9 10 3 6 13 10 21 10 8 0 12 -4 9 -10z m-60 -20 c-3 -5
-13 -10 -21 -10 -8 0 -12 5 -9 10 3 6 13 10 21 10 8 0 12 -4 9 -10z m-60 -20
c-3 -5 -13 -10 -21 -10 -8 0 -12 5 -9 10 3 6 13 10 21 10 8 0 12 -4 9 -10z
m-61 -20 c-10 -4 -21 -6 -24 -3 -8 7 24 22 34 16 5 -4 1 -10 -10 -13z m-44
-10 c0 -5 -4 -10 -9 -10 -5 0 -16 -3 -25 -6 -9 -3 -16 -1 -16 4 0 9 16 17 43
21 4 0 7 -3 7 -9z m6150 -128 c0 -7 -4 -10 -10 -7 -5 3 -10 16 -10 28 0 18 2
19 10 7 5 -8 10 -21 10 -28z m-1557 -32 c-7 -8 -22 24 -16 34 4 5 10 1 13 -10
4 -10 6 -21 3 -24z m1577 -26 c0 -8 -4 -12 -10 -9 -5 3 -10 13 -10 21 0 8 5
12 10 9 6 -3 10 -13 10 -21z m-1557 -14 c3 -11 1 -20 -4 -20 -5 0 -9 2 -9 4 0
2 -3 11 -6 20 -3 9 -2 16 4 16 5 0 12 -9 15 -20z m1577 -42 c0 -5 -4 -8 -10
-8 -5 0 -10 10 -10 23 0 18 2 19 10 7 5 -8 10 -18 10 -22z m-1560 -20 c0 -19
-2 -20 -10 -8 -13 19 -13 30 0 30 6 0 10 -10 10 -22z m1574 -24 c8 -21 8 -24
-3 -24 -5 0 -11 9 -14 20 -6 24 8 27 17 4z m362 -31 c-10 -10 -19 5 -10 18 6
11 8 11 12 0 2 -7 1 -15 -2 -18z m-1916 -4 c0 -11 -4 -17 -10 -14 -5 3 -10 13
-10 21 0 8 5 14 10 14 6 0 10 -9 10 -21z m1573 -29 c3 -11 1 -20 -4 -20 -5 0
-9 2 -9 4 0 2 -3 11 -6 20 -3 9 -2 16 4 16 5 0 12 -9 15 -20z m351 -6 c9 -22
8 -24 -9 -24 -8 0 -15 9 -15 20 0 24 15 27 24 4z m-1904 -32 c0 -7 -4 -10 -10
-7 -5 3 -10 16 -10 28 0 18 2 19 10 7 5 -8 10 -21 10 -28z m2040 29 c0 -5 -9
-11 -20 -14 -22 -6 -28 8 -7 16 19 8 27 8 27 -2z m-64 -36 c1 -14 0 -25 -3
-25 -11 0 -29 26 -25 38 7 22 27 13 28 -13z m74 -18 c0 -18 -2 -19 -10 -7 -13
20 -13 43 0 35 6 -3 10 -16 10 -28z m-4763 -24 c-3 -10 -5 -2 -5 17 0 19 2 27
5 18 2 -10 2 -26 0 -35z m4623 27 c0 -5 7 -7 15 -4 11 5 13 2 9 -10 -4 -11
-13 -15 -26 -10 -15 4 -18 3 -13 -6 5 -9 4 -11 -3 -6 -17 10 -15 46 3 46 8 0
15 -4 15 -10z m110 -20 c0 -5 -9 -10 -21 -10 -11 0 -17 5 -14 10 3 6 13 10 21
10 8 0 14 -4 14 -10z m50 -33 c0 -16 -47 -20 -56 -6 -4 7 1 9 15 4 15 -5 21
-2 21 10 0 9 5 13 10 10 6 -3 10 -12 10 -18z m199 -65 c-12 -2 -19 -12 -19
-25 -1 -21 -1 -21 -14 -4 -10 13 -21 16 -42 11 -41 -9 -18 11 29 26 23 7 37
18 37 28 1 12 5 10 15 -8 12 -23 12 -25 -6 -28z m-4719 9 c-10 -35 9 -68 33
-58 9 3 21 -1 29 -10 11 -14 10 -16 -9 -11 -32 8 -29 -7 8 -43 19 -19 29 -37
27 -51 -2 -18 -10 -12 -42 35 -23 33 -47 57 -57 57 -29 0 -49 -11 -49 -27 0
-11 -3 -13 -13 -5 -8 7 -18 7 -27 2 -11 -7 -12 -10 -2 -10 7 0 11 -4 8 -9 -3
-4 6 -50 20 -100 14 -51 23 -98 21 -104 -3 -8 -6 -7 -10 3 -19 54 -20 56 -24
38 -4 -15 -23 -27 -23 -14 0 2 -3 11 -6 20 -4 11 -1 16 10 16 19 0 20 21 2 80
-12 41 -16 45 -52 51 -21 3 -31 7 -21 8 21 1 21 5 1 36 -10 15 -12 25 -6 25 6
0 16 -10 23 -21 8 -16 13 -18 19 -9 4 7 12 10 17 7 5 -3 28 3 51 13 36 16 43
25 53 64 6 25 15 46 19 46 5 0 5 -13 0 -29z m4605 19 c-3 -5 -10 -10 -16 -10
-5 0 -9 5 -9 10 0 6 7 10 16 10 8 0 12 -4 9 -10z m-45 -5 c0 -10 -52 -25 -63
-18 -7 4 -3 9 9 14 23 9 54 11 54 4z m-90 -35 c-8 -5 -18 -6 -24 -3 -5 4 -1
10 10 13 24 9 34 2 14 -10z m-1614 -35 c-1 -36 -10 -46 -19 -21 -7 17 2 56 13
56 4 0 6 -16 6 -35z m1560 20 c-23 -17 -36 -19 -36 -6 0 11 18 19 40 20 11 0
10 -3 -4 -14z m307 -70 c7 -16 -17 -68 -26 -59 -4 4 -2 15 4 26 6 11 8 26 5
34 -3 8 -1 14 3 14 5 0 11 -7 14 -15z m-4679 -68 c13 -35 2 -43 -29 -23 -22
14 -23 19 -13 36 16 25 30 21 42 -13z m4710 7 c9 -22 -3 -32 -14 -14 -12 19
-12 30 -1 30 5 0 12 -7 15 -16z m-4874 -30 c12 -32 12 -34 0 -34 -5 0 -10 7
-10 15 0 9 -7 18 -15 21 -20 8 -19 24 0 24 9 0 20 -12 25 -26z m870 3 c0 -14
35 -47 50 -47 6 0 10 -5 10 -11 0 -7 -9 -9 -21 -6 -11 3 -22 0 -24 -6 -14 -48
-14 -67 2 -82 20 -20 28 -75 11 -75 -6 0 -8 3 -5 6 8 8 -11 44 -22 44 -5 0 -5
-17 -1 -37 5 -21 5 -44 0 -52 -5 -9 -10 -11 -11 -6 -4 21 -6 41 -8 66 -1 24
-6 27 -53 35 l-53 8 51 4 50 3 13 48 c8 34 9 55 1 75 -13 35 -13 59 0 51 6 -3
10 -12 10 -18z m-1178 -6 c-1 -6 5 -14 13 -17 19 -8 10 -24 -13 -24 -12 0 -17
9 -18 30 -1 19 3 29 10 27 6 -3 10 -10 8 -16z m5158 -2 c0 -11 -4 -18 -10 -14
-5 3 -7 12 -3 20 7 21 13 19 13 -6z m-7232 -32 c6 -24 5 -35 -7 -43 -12 -10
-13 -17 -4 -37 10 -20 9 -26 -3 -31 -8 -3 -21 -3 -29 0 -8 4 -15 1 -15 -5 0
-6 -4 -11 -10 -11 -18 0 -10 19 11 25 13 5 17 10 11 18 -5 7 -12 24 -16 40 -5
20 -3 27 9 27 8 0 14 3 13 8 -4 15 14 52 23 47 5 -3 12 -20 17 -38z m-48 26
c0 -5 -5 -15 -10 -23 -7 -12 -12 -12 -22 -2 -10 10 -10 15 2 22 18 12 30 13
30 3z m7275 -47 c-32 -32 -38 -33 -23 -1 6 13 15 22 20 19 5 -3 12 5 16 17 4
18 7 20 10 7 2 -9 -9 -28 -23 -42z m-5047 -32 c14 -49 15 -72 4 -58 -10 10
-32 84 -32 105 0 23 16 -4 28 -47z m382 26 c0 -5 -4 -10 -10 -10 -5 0 -7 -14
-3 -32 8 -44 -12 -25 -22 20 -6 28 -4 32 14 32 12 0 21 -4 21 -10z m647 -2 c0
-7 4 -20 7 -29 6 -14 1 -16 -23 -15 -30 1 -45 15 -18 17 9 0 9 2 -1 6 -10 4
-10 8 -1 19 14 17 36 18 36 2z m-974 -41 c3 -8 -3 -13 -14 -13 -22 0 -25 12
-6 19 6 3 13 6 13 6 1 1 4 -5 7 -12z m717 -46 c0 -5 -5 -11 -11 -13 -9 -3 -9
-10 0 -27 9 -16 18 -20 29 -16 36 15 52 17 52 6 0 -6 -6 -11 -12 -11 -7 0 -25
-6 -40 -14 -29 -15 -38 -12 -38 14 0 10 -7 23 -16 31 -14 12 -14 14 2 26 21
15 34 17 34 4z m-535 -71 c4 -19 13 -38 19 -42 7 -5 4 -12 -9 -22 -27 -21 -39
-20 -30 2 9 22 9 28 1 82 -8 52 7 36 19 -20z m981 25 c0 -37 -10 -46 -20 -17
-3 9 -9 23 -12 31 -4 9 -2 11 5 7 6 -4 11 -2 11 3 0 6 4 11 8 11 4 0 8 -16 8
-35z m322 -49 c44 -84 50 -104 42 -141 -6 -29 -4 -48 11 -83 11 -25 18 -50 16
-56 -7 -18 -47 83 -47 119 0 18 -5 35 -12 37 -8 3 -7 9 4 18 14 13 14 18 0 47
-9 18 -19 33 -24 33 -4 0 -8 6 -8 14 0 18 -33 30 -60 21 -24 -8 -26 3 -3 20
21 16 65 0 81 -29z m292 15 c0 -12 -11 -23 -30 -30 -16 -5 -30 -6 -30 -1 0 5
9 12 20 15 11 3 20 13 20 21 0 8 5 14 10 14 6 0 10 -9 10 -19z m-3660 -11 c0
-16 7 -20 31 -20 38 0 63 -23 54 -50 -3 -11 -3 -20 2 -20 4 0 15 -5 23 -10 13
-8 12 -11 -5 -24 -29 -22 -32 -20 -41 22 l-8 37 -5 -34 c-4 -26 -15 -40 -39
-54 -31 -18 -62 -16 -33 2 20 12 4 51 -21 51 -12 0 -18 5 -15 13 3 7 -1 24 -9
38 -20 36 -17 45 19 57 46 14 47 14 47 -8z m3595 1 c-14 -12 -75 -22 -75 -11
0 8 25 16 65 19 11 0 15 -3 10 -8z m-1465 -8 c-1 -5 -7 -51 -14 -103 -11 -76
-11 -101 -1 -130 16 -44 29 -44 180 4 148 47 258 77 263 71 9 -8 91 -269 87
-274 -8 -8 -12 1 -55 132 -23 70 -42 127 -44 127 -6 0 -111 -32 -117 -36 -4
-2 15 -72 42 -155 27 -82 49 -155 49 -162 0 -30 -21 19 -59 136 -23 70 -46
139 -51 152 l-9 24 -73 -24 c-40 -13 -99 -31 -130 -40 -32 -8 -58 -19 -58 -23
0 -5 16 -55 35 -112 40 -119 38 -110 25 -110 -5 0 -32 71 -61 158 -49 150 -51
160 -45 234 8 97 16 138 27 138 5 0 9 -3 9 -7z m1060 -23 c0 -11 -4 -20 -10
-20 -5 0 -10 9 -10 20 0 11 5 20 10 20 6 0 10 -9 10 -20z m80 -28 c0 -15 -24
-32 -44 -32 -20 0 -19 2 4 20 27 21 40 25 40 12z m-360 -32 c-19 -13 -30 -13
-30 0 0 6 10 10 23 10 18 0 19 -2 7 -10z m800 0 c0 -5 -4 -10 -10 -10 -5 0 -6
-8 -3 -17 6 -16 5 -16 -10 -4 -23 18 -21 41 3 41 11 0 20 -4 20 -10z m-920 -8
c0 -5 -26 -16 -57 -26 -32 -10 -64 -21 -70 -23 -7 -3 -13 -1 -13 5 0 6 28 19
63 30 72 24 77 25 77 14z m58 -24 c16 -16 15 -25 -4 -32 -21 -8 -45 11 -37 30
6 17 25 18 41 2z m-1041 -116 c27 -90 30 -108 17 -115 -20 -11 -162 -126 -169
-136 -2 -5 4 -33 14 -62 16 -49 21 -54 50 -57 17 -2 29 -7 26 -12 -3 -5 4 -11
15 -15 11 -3 20 -15 20 -26 0 -10 5 -19 11 -19 6 0 9 6 6 14 -3 8 1 17 9 20
13 5 19 -5 15 -26 0 -5 5 -8 11 -8 7 0 24 -3 37 -7 20 -5 22 -3 17 14 -5 14
-1 23 10 27 9 4 19 5 21 3 8 -8 -28 -77 -37 -72 -6 4 -23 -3 -39 -14 -37 -27
-41 -26 -41 4 0 14 -4 24 -8 23 -4 -2 -23 14 -40 34 -18 20 -43 38 -54 40 -17
2 -27 19 -46 77 -17 51 -30 75 -43 78 -15 4 -19 15 -19 44 0 22 5 39 10 39 6
0 10 -7 10 -15 0 -9 11 -21 25 -27 19 -9 22 -14 14 -25 -24 -28 8 -10 51 29
25 22 39 37 31 33 -9 -5 -12 -3 -9 6 3 8 -2 19 -11 26 -15 11 -15 12 0 13 9 0
19 -3 23 -7 13 -13 39 -12 61 3 l23 15 -29 96 c-16 53 -29 103 -29 111 0 32
15 -3 47 -106z m1800 76 c12 -24 22 -35 22 -25 1 29 28 19 40 -14 15 -43 13
-58 -4 -35 -8 11 -21 16 -30 13 -11 -5 -22 7 -40 43 -27 54 -29 60 -17 60 4 0
18 -19 29 -42z m-757 -52 c0 -8 15 -17 33 -21 41 -9 17 -19 -28 -11 -35 7 -54
34 -33 47 15 9 28 2 28 -15z m2810 -61 c12 -38 36 -109 52 -157 l30 -87 30 22
c22 16 28 27 23 44 -4 18 -1 23 15 23 12 0 19 -4 16 -9 -3 -4 7 -6 22 -4 l27
4 -25 -18 c-13 -10 -39 -31 -57 -46 -57 -50 -63 -42 -138 183 -19 57 -35 111
-35 119 0 29 17 -4 40 -74z m-2714 28 c-4 -4 -13 -1 -19 8 -7 9 -19 14 -27 11
-13 -5 -13 -3 -1 12 13 16 16 16 35 -3 11 -11 16 -24 12 -28z m-1308 -6 c6 3
12 -2 12 -10 0 -9 3 -22 6 -31 9 -23 -22 -20 -46 4 -10 10 -22 15 -25 11 -8
-14 6 -41 21 -41 8 0 14 -5 14 -11 0 -5 -5 -7 -11 -3 -7 4 -9 -2 -7 -17 2 -19
-2 -25 -22 -27 -22 -2 -23 -1 -8 8 16 10 17 14 3 46 -13 32 -13 37 0 51 8 8
15 22 15 30 0 14 2 15 18 1 9 -9 23 -13 30 -11z m2118 8 c-3 -9 0 -15 9 -15 8
0 15 -5 15 -11 0 -6 -10 -9 -22 -7 -28 4 -39 48 -13 48 11 0 15 -5 11 -15z
m-52 -63 c9 -25 16 -52 16 -61 0 -23 -16 -1 -29 41 -7 21 -21 40 -32 43 -32
10 -22 37 11 28 11 -3 25 -23 34 -51z m-94 16 c0 -5 -4 -8 -10 -8 -5 0 -10 10
-10 23 0 18 2 19 10 7 5 -8 10 -18 10 -22z m2434 -208 c63 -203 76 -239 76
-212 0 7 7 12 17 12 15 0 15 -2 -1 -19 -22 -24 -12 -66 19 -87 21 -13 21 -17
10 -61 -13 -50 -28 -65 -39 -36 -4 10 -2 19 3 21 6 2 8 8 5 13 -3 6 0 17 7 26
11 13 10 17 -3 27 -16 12 -29 44 -61 151 -9 28 -38 124 -66 214 -49 156 -63
217 -42 181 5 -8 39 -112 75 -230z m-3084 210 c0 -6 9 -6 25 0 19 7 23 6 18
-5 -7 -20 -63 -20 -63 0 0 8 5 15 10 15 6 0 10 -4 10 -10z m2620 -11 c0 -5 -4
-9 -10 -9 -5 0 -10 7 -10 16 0 8 5 12 10 9 6 -3 10 -10 10 -16z m-4093 -21
c13 -12 23 -33 23 -49 0 -23 3 -26 23 -22 18 4 19 3 7 -6 -25 -18 -40 -12 -40
16 0 29 -25 63 -47 63 -8 0 -11 5 -8 10 9 15 16 13 42 -12z m1449 -33 c-10
-10 -17 -12 -21 -4 -4 5 1 16 11 24 23 17 31 1 10 -20z m875 10 c50 11 31 -11
-25 -28 l-54 -17 10 -40 c11 -42 22 -50 32 -25 3 8 13 15 22 15 14 0 14 3 4
15 -11 13 -14 13 -25 -2 -8 -10 -17 -14 -22 -10 -4 5 3 17 17 27 25 19 25 19
42 -3 10 -12 18 -30 18 -39 0 -10 8 -18 18 -18 15 -1 15 -2 1 -13 -9 -7 -14
-17 -12 -24 5 -14 -28 -54 -39 -47 -4 3 -8 -6 -8 -20 0 -16 -6 -26 -15 -26 -8
0 -15 5 -15 10 0 6 5 10 10 10 16 0 12 46 -6 61 -14 12 -14 14 3 20 14 6 13 8
-9 8 -15 1 -37 -4 -50 -9 -20 -10 -23 -17 -20 -55 3 -28 0 -45 -7 -45 -7 0
-11 20 -11 50 0 45 3 51 30 65 28 14 30 19 24 54 -5 32 -2 43 15 57 11 10 21
28 21 39 1 19 1 19 11 2 8 -14 18 -17 40 -12z m-2141 5 c12 -8 11 -10 -7 -10
-13 0 -23 5 -23 10 0 13 11 13 30 0z m1817 -32 c-7 -10 -15 -18 -19 -18 -11 0
-10 5 4 35 8 17 14 22 19 14 4 -7 2 -20 -4 -31z m2427 16 c4 -9 9 -14 12 -11
4 3 13 0 20 -8 13 -12 12 -17 -3 -35 -10 -11 -22 -20 -28 -20 -13 0 -32 49
-27 73 4 22 18 22 26 1z m-3024 -4 c0 -5 -12 -10 -27 -10 -22 0 -25 2 -13 10
20 13 40 13 40 0z m304 -21 c3 -17 1 -39 -4 -49 -17 -31 19 -32 82 -2 44 22
66 27 100 23 39 -5 40 -6 11 -9 -26 -3 -33 -9 -38 -34 -5 -19 -3 -33 4 -38 7
-3 9 -13 6 -22 -3 -8 17 -73 45 -145 l51 -131 37 9 c47 11 52 11 52 0 0 -5
-18 -12 -40 -16 -22 -4 -40 -10 -40 -14 0 -12 81 -215 88 -223 8 -8 142 29
142 39 0 3 -33 58 -72 121 -88 140 -96 158 -96 208 0 23 -6 42 -16 50 -9 6
-16 18 -16 26 0 24 -27 41 -54 34 -34 -8 -43 20 -14 44 25 20 38 9 18 -16 -11
-12 -10 -13 4 -8 20 8 45 -12 57 -44 5 -13 13 -20 19 -17 5 3 10 -1 10 -9 0
-8 8 -19 18 -25 14 -8 15 -12 5 -22 -18 -18 -16 -68 2 -75 8 -4 13 -10 10 -14
-5 -8 80 -154 110 -190 7 -8 20 -36 30 -62 10 -27 22 -48 26 -48 5 0 9 -4 9
-10 0 -5 -7 -10 -15 -10 -17 0 -19 -9 -7 -28 7 -10 15 -10 36 -2 34 12 36 12
36 0 0 -12 -72 -32 -81 -22 -3 4 -11 26 -17 48 l-12 42 -61 -16 c-63 -17 -66
-22 -44 -74 4 -11 3 -18 -3 -18 -6 0 -15 15 -22 34 l-11 33 -82 -25 -83 -25
25 -68 c22 -56 31 -69 56 -77 25 -8 27 -10 8 -11 -33 -1 -28 -21 5 -22 l27 0
-23 -12 c-24 -11 -25 -16 -6 -87 4 -17 3 -22 -3 -15 -6 6 -25 57 -43 115 -18
58 -35 108 -39 113 -12 13 -100 -23 -95 -38 3 -8 11 -12 17 -9 7 2 19 0 27 -5
12 -8 12 -13 -4 -30 -22 -24 -15 -70 16 -97 11 -11 29 -36 39 -56 11 -21 24
-38 29 -38 6 0 8 -11 4 -27 -6 -23 -4 -25 15 -20 11 3 21 1 21 -4 0 -5 -6 -9
-12 -10 -7 0 -1 -5 14 -10 15 -6 29 -20 32 -35 4 -14 17 -30 30 -35 13 -6 30
-22 37 -36 l14 -25 27 33 c15 18 31 30 35 26 3 -4 -6 -20 -20 -35 -38 -40 -35
-69 9 -88 41 -17 76 -11 67 13 -5 13 -3 14 17 3 12 -7 35 -9 51 -6 16 3 29 2
29 -3 0 -5 -17 -12 -37 -15 -21 -4 -46 -9 -55 -12 -21 -6 -12 -34 11 -34 9 0
26 -7 38 -15 14 -10 32 -13 47 -9 22 5 23 10 19 47 -6 46 -27 70 -55 61 -26
-8 -22 3 10 31 15 13 52 31 82 40 30 9 68 21 83 27 25 10 26 12 12 28 -20 22
-37 120 -21 125 6 2 39 12 74 24 49 16 69 18 92 9 17 -5 30 -15 30 -22 0 -6
12 -28 26 -49 19 -29 30 -36 45 -32 10 4 19 2 19 -3 0 -5 -10 -12 -22 -15 -17
-5 -29 2 -50 26 -15 18 -27 38 -28 44 0 7 -11 20 -25 29 -23 15 -29 14 -89 -6
l-65 -21 6 -37 c3 -20 17 -49 31 -64 14 -15 24 -29 21 -31 -9 -7 -115 -47
-144 -53 -16 -4 -36 -14 -44 -21 -12 -12 -10 -16 9 -30 14 -10 20 -22 17 -34
-3 -12 5 -31 19 -48 l24 -29 -35 -6 c-19 -4 -35 -11 -35 -16 0 -14 14 -12 28
2 7 7 12 8 12 2 0 -6 -11 -20 -25 -32 -14 -12 -25 -26 -25 -32 0 -15 -31 -12
-64 5 -46 24 -75 19 -87 -14 -9 -26 -21 -33 -87 -55 -42 -13 -108 -32 -147
-42 -38 -10 -80 -24 -92 -32 -15 -9 -35 -12 -57 -8 -18 4 -45 2 -60 -3 -17 -7
-43 -7 -80 1 -44 8 -56 15 -60 33 -5 18 -16 25 -46 30 -25 4 -40 12 -40 21 0
18 -46 37 -71 29 -13 -4 -19 -16 -19 -35 0 -21 -6 -29 -25 -34 -14 -4 -25 -14
-25 -23 0 -29 -77 -120 -106 -126 -34 -6 -154 29 -171 50 -6 8 -16 12 -22 8
-6 -3 -21 1 -33 9 -12 9 -34 16 -49 16 -41 0 -116 56 -124 92 -4 17 -15 32
-25 35 -10 3 -20 13 -23 24 -5 19 -27 27 -27 9 0 -5 -7 -7 -15 -4 -11 4 -15 0
-15 -16 0 -13 -8 -28 -17 -35 -15 -11 -15 -17 -3 -59 11 -41 30 -63 30 -36 0
6 5 10 10 10 14 0 13 -27 -1 -36 -7 -4 -21 -8 -33 -9 -11 -1 -24 -3 -28 -4 -3
0 -9 -15 -13 -31 -4 -17 -11 -30 -16 -30 -11 0 -11 3 1 35 8 20 7 27 -5 31
-25 10 -17 25 9 18 41 -10 44 2 23 78 -12 40 -22 74 -22 75 -1 1 -18 -3 -39
-9 -30 -9 -39 -9 -46 1 -5 10 -19 12 -46 6 -52 -9 -56 -13 -44 -36 8 -13 7
-19 -1 -19 -6 0 -13 9 -16 21 -3 11 -11 18 -17 16 -6 -2 -34 -12 -63 -21 l-52
-17 54 -56 55 -55 -26 -31 -26 -31 31 -25 c42 -35 39 -47 -4 -19 -46 30 -50
46 -21 77 l24 26 -33 38 c-35 40 -44 36 -46 -21 -1 -17 -3 -21 -6 -9 -5 20
-46 23 -61 5 -5 -7 -12 -22 -15 -33 -3 -12 -5 -5 -6 16 -1 35 0 37 40 43 40 6
41 8 23 22 -17 14 -17 15 -1 10 19 -6 21 2 8 23 -8 12 -29 8 -133 -24 -111
-34 -124 -40 -126 -61 -1 -19 3 -24 21 -23 17 1 18 2 5 6 -27 7 -22 23 7 23
25 0 31 -13 19 -43 -4 -11 -15 -14 -40 -10 -29 5 -34 3 -34 -13 0 -46 32 -167
60 -225 16 -35 30 -71 30 -79 0 -8 4 -21 9 -29 7 -11 13 -10 35 4 15 10 29 15
32 12 4 -3 -18 -21 -47 -40 -51 -33 -54 -33 -64 -15 -5 11 -34 32 -62 49 -56
31 -65 26 -41 -26 15 -34 1 -47 -49 -47 -40 1 -123 -44 -215 -117 -28 -21 -61
-38 -79 -39 -35 -3 -79 -23 -126 -58 -21 -16 -41 -23 -55 -20 -13 3 -44 7 -70
10 -25 2 -51 7 -57 10 -5 4 -12 2 -15 -2 -3 -5 -32 -9 -65 -9 -61 0 -66 -2
-135 -57 -33 -26 -39 -28 -61 -16 -13 7 -27 26 -30 42 -4 17 -12 27 -19 25
-28 -11 -173 -50 -191 -52 -34 -4 -65 -17 -65 -27 0 -9 -25 -7 -98 7 -9 2 -19
4 -22 4 -3 1 1 5 9 10 7 5 32 3 58 -5 l46 -14 -6 48 c-6 42 -4 49 18 65 14 10
25 13 25 8 0 -5 -5 -13 -11 -16 -6 -4 -8 -13 -5 -20 2 -7 -1 -18 -7 -24 -8 -8
-8 -14 0 -22 14 -14 34 -3 27 15 -3 8 -1 17 5 21 6 3 11 -1 11 -9 0 -8 4 -17
10 -21 7 -4 154 32 206 52 6 2 15 -10 20 -28 15 -51 36 -58 79 -23 57 45 77
54 123 54 26 0 42 5 42 12 0 9 3 9 11 1 22 -22 45 -4 44 37 0 29 -8 47 -30 70
-27 29 -28 32 -12 41 25 15 21 39 -14 75 -23 24 -29 37 -24 53 3 12 11 19 16
15 16 -9 39 16 39 43 0 15 4 22 11 17 6 -3 8 -17 5 -30 -4 -13 -3 -24 0 -24 6
0 86 22 91 25 2 1 -8 35 -22 75 -27 80 -29 90 -17 90 5 0 16 -26 26 -58 34
-106 31 -103 66 -91 31 11 33 22 9 87 -11 30 -12 69 -1 57 13 -15 43 -135 37
-146 -4 -5 -10 -9 -15 -9 -5 0 -20 -4 -34 -10 -25 -9 -25 -10 -11 -51 18 -49
18 -49 6 -49 -4 0 -14 20 -21 44 l-12 44 -52 -16 c-28 -9 -63 -16 -78 -16 -34
-1 -35 -12 -5 -45 13 -15 28 -38 35 -53 10 -24 9 -28 -9 -33 -21 -7 -21 -7 2
-31 19 -21 25 -22 38 -10 9 7 22 11 29 9 6 -3 12 0 12 5 0 6 -6 13 -12 15 -10
4 -10 7 0 15 10 7 10 11 -3 22 -22 18 -19 50 4 50 11 0 23 -4 26 -10 3 -5 -1
-10 -10 -10 -12 0 -14 -4 -5 -19 9 -18 12 -18 40 -5 16 9 35 12 41 8 19 -11
63 -10 77 3 6 6 12 24 12 40 l1 28 15 -27 c24 -45 30 -32 20 42 -8 58 -13 70
-25 64 -9 -3 -22 -9 -30 -12 -9 -3 -12 -1 -7 6 3 6 1 14 -6 18 -17 11 18 21
53 16 22 -3 29 -10 29 -27 0 -28 39 -257 44 -263 11 -11 23 10 18 33 -4 22 -1
25 22 25 39 0 99 27 90 41 -3 6 -2 14 4 18 12 7 -4 91 -18 91 -4 0 -27 16 -51
35 -24 19 -50 35 -56 35 -7 0 -13 4 -13 9 0 5 -13 14 -30 21 -17 7 -30 16 -30
21 0 13 12 11 34 -6 11 -8 28 -13 38 -9 12 3 18 0 18 -10 0 -9 4 -16 9 -16 6
0 24 -14 40 -32 17 -18 33 -29 37 -26 3 4 -4 36 -16 72 -22 68 -24 126 -2 76
6 -14 11 -19 11 -12 1 6 6 12 12 12 6 0 9 -7 5 -15 -3 -8 -1 -15 4 -15 6 0 10
-4 10 -10 0 -5 -6 -10 -14 -10 -12 0 -11 -10 4 -60 10 -33 21 -78 25 -100 8
-49 17 -55 52 -36 16 8 24 15 19 16 -12 0 14 30 26 30 6 0 8 -6 5 -14 -6 -14
12 -26 38 -26 15 0 13 29 -5 76 -14 35 -7 40 34 26 37 -14 95 -6 103 13 2 7
-6 33 -18 57 -12 23 -31 77 -41 118 -42 164 -41 161 -57 155 -15 -6 -189 -59
-219 -67 -9 -2 -22 19 -36 56 -12 33 -28 62 -35 64 -12 4 -11 -4 11 -92 5 -21
7 -40 4 -43 -7 -7 -36 65 -36 89 0 14 -5 18 -15 14 -8 -3 -22 -9 -30 -12 -8
-3 -15 -2 -15 4 0 5 12 13 26 16 42 11 22 31 -27 28 -51 -4 -47 6 7 18 24 6
41 5 44 -1 8 -11 76 15 105 41 29 25 126 56 99 31 -5 -5 -25 -14 -45 -20 -20
-7 -45 -21 -54 -31 -10 -11 -24 -20 -32 -20 -17 0 -17 -12 4 -71 11 -29 24
-49 33 -49 8 0 75 18 150 41 74 23 230 70 345 105 116 35 247 73 293 85 68 18
82 24 77 38 -14 35 -18 81 -6 81 6 0 11 -4 11 -9 0 -5 12 -12 28 -16 l27 -7
-22 -15 c-13 -9 -23 -22 -23 -29 0 -17 1 -17 34 -4 17 6 24 14 20 25 -3 8 -1
15 5 15 6 0 11 -5 11 -11 0 -7 14 -8 43 -4 28 5 39 4 32 -3 -5 -6 -19 -12 -30
-14 -11 -2 -21 -11 -23 -21 -3 -12 3 -17 22 -17 16 0 27 -7 31 -20 7 -22 31
-27 37 -8 3 7 10 8 17 4 9 -6 10 -11 2 -19 -6 -6 -11 -23 -11 -38 0 -36 78
-86 133 -84 26 1 37 -3 37 -13 0 -11 8 -13 29 -9 22 5 30 2 33 -11 5 -19 51
-36 124 -48 40 -6 42 -5 77 44 21 27 37 61 37 76 0 14 3 25 8 25 31 -5 42 3
42 30 0 25 6 31 37 42 25 8 38 8 40 2 2 -6 12 -9 23 -6 13 4 19 -1 22 -18 2
-19 12 -25 46 -32 31 -6 42 -13 42 -27 0 -23 4 -25 53 -34 35 -7 37 -5 37 19
0 19 5 25 21 25 19 0 19 -1 5 -16 -15 -14 -21 -34 -12 -34 3 0 16 4 29 9 14 6
38 6 54 2 36 -10 79 14 62 35 -9 11 -8 14 4 14 8 0 17 -5 19 -11 6 -18 83 3
83 21 0 22 -67 25 -105 5 -33 -17 -60 -14 -60 6 0 6 7 9 15 5 8 -3 30 1 49 9
52 22 103 19 116 -5 6 -11 18 -20 28 -20 20 0 89 23 98 33 4 4 18 7 31 7 16 0
23 6 23 19 0 11 7 27 16 35 19 19 77 21 93 3 15 -19 55 -14 59 6 2 11 -6 21
-22 27 -14 5 -26 14 -26 20 0 5 -9 10 -20 10 -11 0 -30 11 -42 25 -12 14 -29
25 -38 25 -8 0 -26 7 -39 16 -18 13 -28 14 -47 5 -39 -17 -42 -13 -10 14 28
22 29 26 16 49 -7 14 -18 23 -23 19 -6 -3 -7 -1 -3 6 5 7 -5 17 -27 26 -29 12
-34 18 -30 39 4 21 1 25 -36 31 -22 4 -45 4 -51 0 -17 -10 -11 7 6 20 12 8 14
17 7 31 -48 99 -62 119 -82 122 -20 3 -31 22 -12 22 16 0 -16 85 -36 95 -11 6
-18 15 -16 21 2 7 -8 9 -27 6 -16 -2 -30 -8 -30 -12 0 -4 -14 -13 -31 -19 -38
-13 -39 -13 -39 -3 0 5 31 21 70 37 65 26 69 30 63 54 -3 14 -14 38 -24 52
-10 14 -16 29 -12 33 3 3 1 6 -6 6 -12 0 -50 38 -51 50 0 3 13 7 28 8 21 2 32
-4 42 -22 7 -14 10 -31 7 -38 -2 -7 6 -27 18 -42 22 -27 24 -28 40 -13 9 10
24 17 34 17 10 0 20 2 23 5 2 3 -16 65 -41 138 -42 120 -48 132 -69 129 -12
-2 -22 2 -22 7 0 6 7 11 16 11 17 0 16 28 -1 73 -4 9 -3 17 4 17 5 0 16 -18
22 -40 7 -22 16 -40 21 -40 11 0 11 4 -13 84 -30 102 -60 142 -40 54 5 -21 5
-38 0 -38 -4 0 -13 17 -18 38 -5 20 -14 56 -20 78 -15 56 -28 66 -74 53 -20
-5 -37 -13 -37 -18 0 -4 16 -54 35 -111 40 -118 38 -110 26 -110 -9 0 -77 195
-101 288 -6 24 -14 50 -17 58 -3 8 -1 14 5 14 5 0 15 -21 22 -47 7 -27 16 -52
21 -57 8 -9 78 10 94 27 7 7 6 8 -2 3 -6 -3 -14 -2 -18 3 -3 6 -12 8 -20 4 -8
-3 -15 0 -15 6 0 6 6 11 14 11 8 0 24 12 36 27 16 21 20 35 15 60 -3 18 -2 33
3 33 5 0 12 -14 16 -31z m-109 11 c-3 -5 -10 -10 -16 -10 -5 0 -9 5 -9 10 0 6
7 10 16 10 8 0 12 -4 9 -10z m-1390 -49 c-3 -6 -11 -11 -17 -11 -6 0 -6 6 2
15 14 17 26 13 15 -4z m1265 -11 c0 -5 -11 -12 -25 -16 -34 -8 -32 -32 9 -86
19 -24 40 -63 47 -86 10 -33 15 -40 26 -31 10 9 13 7 13 -10 0 -12 -4 -19 -10
-16 -5 3 -10 1 -10 -5 0 -25 -18 2 -30 45 -7 24 -30 68 -51 97 -22 28 -39 58
-39 65 0 16 -17 12 -154 -34 -85 -28 -122 -35 -105 -19 4 4 309 104 322 105 4
1 7 -3 7 -9z m2724 -6 c9 -22 -3 -32 -14 -14 -12 19 -12 30 -1 30 5 0 12 -7
15 -16z m-3333 -10 c12 -14 11 -16 -5 -13 -11 2 -21 10 -24 17 -5 17 13 15 29
-4z m3058 -26 c18 -49 22 -68 14 -68 -9 0 -33 57 -33 78 0 19 10 14 19 -10z
m-1839 -8 c0 -5 -6 -10 -14 -10 -8 0 -18 5 -21 10 -3 6 3 10 14 10 12 0 21 -4
21 -10z m-1280 -52 c0 -39 11 -67 29 -71 11 -3 9 -5 -6 -6 -14 -1 -24 7 -29
22 -3 12 -14 30 -22 40 -14 16 -14 19 -2 27 23 15 30 12 30 -12z m-2024 -3
c10 -8 14 -15 8 -15 -5 0 -19 7 -30 15 -10 8 -14 15 -8 15 5 0 19 -7 30 -15z
m2114 0 c0 -8 -7 -15 -15 -15 -9 0 -12 6 -9 15 4 8 10 15 15 15 5 0 9 -7 9
-15z m1390 -16 c0 -11 -4 -17 -10 -14 -5 3 -10 13 -10 21 0 8 5 14 10 14 6 0
10 -9 10 -21z m2200 -15 c-7 -18 -18 -30 -30 -31 -26 -2 -25 1 7 37 31 35 37
34 23 -6z m157 20 c5 -14 -11 -33 -28 -34 -14 0 -19 34 -7 42 19 12 28 10 35
-8z m-4253 -10 c9 -22 -3 -32 -14 -14 -12 19 -12 30 -1 30 5 0 12 -7 15 -16z
m3764 -38 c15 4 40 16 55 27 35 24 51 12 17 -13 -25 -19 -108 -45 -117 -37 -2
3 -6 22 -9 43 l-4 39 15 -33 c13 -28 19 -31 43 -26z m141 -54 c13 -46 20 -86
17 -90 -3 -3 -7 -3 -9 -1 -7 9 -47 158 -47 175 0 36 18 -2 39 -84z m-1179 52
c0 -23 -13 -22 -31 0 -25 32 -24 36 6 23 14 -7 25 -17 25 -23z m-2060 3 c0 -7
22 -82 50 -166 44 -136 52 -177 35 -159 -3 2 -22 58 -43 124 -37 118 -38 119
-70 122 -37 4 -39 28 -3 26 20 -1 22 3 16 39 -5 28 -4 38 4 33 6 -4 11 -13 11
-19z m-2283 -14 c6 23 23 22 23 -2 0 -27 -29 -35 -50 -14 -12 13 -13 21 -6 29
8 9 13 6 20 -10 8 -18 10 -19 13 -3z m3643 -29 c0 -2 -9 -4 -19 -4 -23 0 -35
28 -20 46 10 12 14 10 25 -12 8 -14 14 -28 14 -30z m474 -57 c38 -118 42 -142
26 -132 -5 3 -10 15 -10 26 0 10 -1 19 -2 19 -2 0 -46 -14 -98 -30 -52 -16
-102 -30 -109 -30 -32 0 8 19 97 45 66 20 92 33 92 44 0 9 -9 45 -20 79 -20
62 -25 92 -16 92 3 0 21 -51 40 -113z m333 46 c-2 -16 -4 -5 -4 22 0 28 2 40
4 28 2 -13 2 -35 0 -50z m-2717 36 c0 -24 -23 -21 -28 4 -2 10 3 17 12 17 10
0 16 -9 16 -21z m337 -30 c-8 -30 2 -49 25 -49 17 0 19 -4 14 -27 -15 -62 -12
-66 42 -49 13 4 22 3 22 -3 0 -5 -16 -15 -35 -21 l-34 -11 17 -47 c13 -34 24
-48 42 -52 25 -6 25 -7 3 -14 -19 -6 -21 -11 -13 -32 6 -14 10 -32 10 -40 0
-25 -17 -6 -23 26 -6 28 -8 29 -31 19 -14 -7 -27 -21 -29 -33 -4 -21 -5 -21
-12 2 -4 12 -14 22 -21 22 -8 0 -14 3 -14 8 0 4 -3 18 -7 31 -4 15 -2 22 4 18
5 -4 8 6 5 25 -3 21 -1 29 7 24 6 -4 11 -15 11 -24 1 -9 6 -30 13 -46 12 -28
12 -28 35 -10 22 19 22 20 6 67 -9 27 -21 46 -28 44 -38 -15 -56 -17 -56 -9 0
6 14 15 31 21 26 9 30 14 25 33 -4 13 -8 30 -10 38 -1 8 -6 32 -10 52 -4 20
-5 41 -1 47 11 18 18 12 12 -10z m-990 -131 c-2 -29 -3 -8 -3 47 0 55 1 79 3
53 2 -26 2 -71 0 -100z m2357 92 c-7 -6 -24 22 -23 40 0 9 6 5 14 -10 7 -14
11 -27 9 -30z m-3403 7 c-8 -8 -11 -7 -11 4 0 20 13 34 18 19 3 -7 -1 -17 -7
-23z m3937 15 c2 -7 -5 -12 -17 -12 -14 0 -19 5 -14 15 6 17 25 15 31 -3z
m-3969 -53 c1 -12 -5 -15 -26 -11 -23 4 -24 6 -10 17 10 7 17 23 18 36 l1 24
8 -25 c4 -14 8 -32 9 -41z m3660 45 c2 -2 -4 -10 -12 -19 -17 -17 -57 -21 -57
-5 0 6 7 10 16 10 11 0 14 5 10 16 -5 12 -1 14 17 8 12 -3 24 -8 26 -10z
m-1119 -26 c0 -19 -2 -20 -10 -8 -13 19 -13 30 0 30 6 0 10 -10 10 -22z m-665
-18 c7 -31 41 -80 56 -80 5 0 9 11 9 25 0 14 5 25 11 25 8 0 10 -17 5 -54 -5
-49 -4 -56 17 -73 29 -23 61 -111 47 -128 -6 -7 -8 -20 -4 -29 3 -9 2 -16 -4
-16 -14 0 -20 21 -16 59 4 35 -19 101 -35 101 -6 0 -19 19 -29 43 -10 23 -26
48 -36 56 -16 14 -46 73 -46 92 0 22 19 6 25 -21z m625 3 c-1 -24 -2 -25 -11
-11 -5 10 -16 15 -24 12 -8 -4 -15 -1 -15 4 0 9 16 17 43 21 4 0 7 -11 7 -26z
m1688 -9 c-10 -10 -28 6 -28 24 0 15 1 15 17 -1 9 -9 14 -19 11 -23z m1047
-21 c10 -32 31 -105 49 -163 l32 -105 28 30 c28 30 75 65 89 65 16 0 5 -18
-18 -28 -14 -6 -25 -15 -24 -19 4 -22 -4 -30 -36 -43 -37 -15 -51 -46 -15 -35
15 5 20 2 20 -10 0 -11 -5 -15 -15 -11 -18 7 -18 10 1 -48 12 -35 20 -45 33
-42 9 3 35 10 59 16 24 6 50 14 58 17 8 3 14 1 14 -4 0 -9 -38 -24 -97 -38
-13 -3 -31 -7 -41 -10 -13 -4 -22 3 -31 21 -19 41 -51 142 -52 161 0 16 -1 15
-8 -2 -6 -15 -10 -6 -14 35 -5 48 -43 201 -62 253 -4 9 -3 17 3 17 6 0 18 -26
27 -57z m-4417 35 c5 -7 15 -31 21 -53 9 -34 8 -42 -6 -52 -9 -7 -27 -13 -39
-13 -22 0 -23 -1 -8 -36 20 -47 10 -57 -12 -12 -13 28 -21 34 -38 30 -21 -5
-21 -5 -1 17 13 16 27 21 44 18 45 -9 63 9 42 42 -8 12 -12 12 -25 2 -9 -8
-16 -10 -17 -5 -5 61 -3 74 12 74 9 0 21 -6 27 -12z m3547 3 c-14 -13 -85 -34
-92 -27 -3 3 5 9 18 14 13 5 31 12 39 15 24 9 45 8 35 -2z m-4321 -17 c9 -22
-3 -32 -14 -14 -12 19 -12 30 -1 30 5 0 12 -7 15 -16z m5146 9 c0 -5 -4 -14
-9 -22 -9 -14 -31 -7 -31 10 0 6 5 7 10 4 6 -3 10 -1 10 4 0 6 5 11 10 11 6 0
10 -3 10 -7z m-2810 -23 c0 -5 -4 -10 -10 -10 -5 0 -10 5 -10 10 0 6 5 10 10
10 6 0 10 -4 10 -10z m190 2 c-23 -4 -24 -5 -5 -13 19 -8 19 -9 1 -6 -32 4
-31 27 1 26 27 -2 27 -2 3 -7z m1454 2 c23 -9 20 -23 -4 -21 -11 1 -20 7 -20
14 0 15 2 15 24 7z m216 -9 c0 -5 -24 -16 -67 -29 -33 -10 -28 10 5 22 30 12
62 15 62 7z m1570 -11 c0 -8 -3 -13 -8 -10 -11 7 -39 -17 -44 -39 -5 -19 -5
-20 -13 -1 -6 15 -2 25 21 43 34 27 44 29 44 7z m-3370 -9 c0 -8 -7 -15 -15
-15 -16 0 -20 12 -8 23 11 12 23 8 23 -8z m2197 9 c-3 -3 -12 -4 -19 -1 -8 3
-5 6 6 6 11 1 17 -2 13 -5z m-4627 -29 c0 -14 -4 -25 -10 -25 -5 0 -10 11 -10
25 0 14 5 25 10 25 6 0 10 -11 10 -25z m1636 18 c-4 -5 -26 -15 -50 -23 l-42
-15 14 -48 c7 -27 16 -46 19 -43 3 3 20 -2 37 -11 25 -14 27 -18 13 -21 -10
-2 -24 2 -32 8 -11 9 -15 9 -15 1 0 -10 54 -171 75 -223 4 -10 3 -18 -3 -18
-5 0 -16 19 -25 43 -9 23 -21 56 -28 72 l-12 30 -8 -29 c-6 -20 -4 -35 6 -50
8 -11 14 -36 14 -56 -1 -27 -3 -29 -6 -10 -2 14 -10 30 -17 35 -6 6 -13 23
-14 38 -1 16 -4 33 -8 38 -7 12 -41 12 -46 -1 -2 -6 -9 -5 -18 1 -11 8 -12 12
-2 16 6 2 12 14 12 26 0 19 1 20 13 3 11 -15 16 -16 41 -5 18 8 26 18 22 28
-3 9 -15 50 -27 91 -12 41 -22 76 -23 77 -2 2 -43 -11 -91 -27 -49 -17 -94
-28 -100 -26 -13 5 -8 6 150 60 128 44 166 53 151 39z m864 -15 c0 -19 -2 -20
-10 -8 -13 19 -13 30 0 30 6 0 10 -10 10 -22z m-2467 -8 c-3 -11 -7 -20 -9
-20 -2 0 -4 9 -4 20 0 11 4 20 9 20 5 0 7 -9 4 -20z m2207 10 c0 -5 -5 -10
-11 -10 -5 0 -7 -4 -4 -10 3 -5 -1 -10 -9 -10 -23 0 -28 18 -9 29 23 13 33 14
33 1z m1210 -9 c0 -5 -7 -12 -16 -15 -24 -9 -28 -7 -14 9 14 17 30 20 30 6z
m-1743 -53 c8 -50 7 -53 -9 -53 -7 0 -13 7 -13 15 0 8 -4 18 -10 23 -6 4 -5
10 3 15 7 5 10 16 6 25 -3 10 -1 17 5 17 6 0 14 -19 18 -42z m-1661 -16 c-9
-8 -26 10 -26 26 1 15 2 15 15 -2 8 -11 13 -21 11 -24z m1753 -10 c1 -7 -3
-10 -9 -7 -5 3 -10 18 -9 33 0 24 1 25 9 7 5 -11 9 -26 9 -33z m3781 18 c-8
-15 -4 -32 15 -76 14 -31 25 -63 25 -70 0 -20 27 -17 39 4 9 15 10 15 11 -5 0
-12 -6 -24 -12 -26 -7 -3 -2 -6 12 -6 28 -1 49 -29 69 -93 12 -38 39 -57 51
-37 4 6 10 7 13 2 3 -5 2 -15 -3 -23 -7 -12 -13 -12 -37 0 -15 7 -39 12 -52
11 -15 -2 -21 1 -17 8 4 6 14 11 22 11 15 0 14 10 -7 67 -10 26 -31 41 -37 25
-6 -18 -19 -14 -25 8 -3 12 -14 20 -26 20 -12 0 -21 3 -22 8 -1 4 -2 21 -4 37
-3 33 -38 109 -55 120 -16 10 -12 28 5 21 8 -3 15 -1 15 4 0 6 7 10 15 10 12
0 14 -4 5 -20z m-2796 -156 c46 -141 54 -177 37 -159 -10 11 -101 286 -101
306 0 32 21 -16 64 -147z m1395 68 c31 -83 39 -125 22 -106 -10 11 -61 163
-61 183 0 24 8 9 39 -77z m-2659 55 c0 -8 -7 -14 -15 -14 -16 0 -19 9 -8 20
11 11 23 8 23 -6z m1425 -6 c3 -12 12 -17 23 -14 13 3 18 -2 18 -17 0 -17 -5
-20 -23 -15 -17 4 -21 2 -17 -10 4 -8 2 -15 -4 -15 -11 0 -22 33 -22 68 0 27
16 29 25 3z m-2885 -1 c0 -5 -2 -10 -4 -10 -3 0 -8 5 -11 10 -3 6 -1 10 4 10
6 0 11 -4 11 -10z m1780 -14 c0 -13 -6 -26 -14 -29 -18 -7 -26 1 -26 27 0 17
2 18 10 6 8 -13 10 -12 10 3 0 9 5 17 10 17 6 0 10 -11 10 -24z m805 -6 c3 -5
-3 -10 -14 -10 -10 0 -26 -3 -35 -6 -9 -3 -16 -1 -16 4 0 18 55 28 65 12z
m2695 -16 c0 -11 -5 -14 -16 -10 -9 3 -18 6 -20 6 -3 0 -2 5 1 10 10 16 35 12
35 -6z m-2759 -42 c5 -26 3 -32 -10 -32 -13 0 -17 9 -17 35 0 43 18 41 27 -3z
m-200 -3 c11 -35 89 -291 95 -311 3 -10 1 -18 -4 -18 -6 0 -20 33 -32 73 -68
220 -86 287 -77 284 6 -2 14 -14 18 -28z m1724 6 c0 -14 -1 -25 -3 -25 -10 0
-28 27 -24 38 7 22 27 13 27 -13z m-4120 5 c4 -6 -5 -10 -20 -10 -15 0 -24 4
-20 10 3 6 12 10 20 10 8 0 17 -4 20 -10z m85 -10 c0 -4 -9 -10 -20 -13 -11
-3 -18 -1 -14 4 3 5 -5 9 -18 10 -21 0 -22 1 -3 8 22 9 55 3 55 -9z m2226 -3
c8 3 14 -1 14 -11 0 -9 5 -16 10 -16 6 0 10 -4 10 -10 0 -5 -7 -10 -15 -10 -8
0 -15 4 -15 10 0 5 -7 7 -15 4 -8 -4 -15 -2 -15 4 0 6 -3 19 -6 29 -6 14 -4
16 6 6 7 -6 19 -9 26 -6z m-898 -52 c-2 -1 -13 -6 -25 -9 -20 -6 -23 -4 -23
18 0 31 43 42 48 13 2 -10 2 -20 0 -22z m2457 35 c3 -5 -1 -10 -9 -10 -8 0
-18 5 -21 10 -3 6 1 10 9 10 8 0 18 -4 21 -10z m-2884 -10 c5 0 9 -8 9 -18 0
-10 6 -24 12 -30 10 -10 10 -15 -2 -22 -13 -8 -13 -13 3 -39 22 -38 22 -50 -2
-44 -33 8 -33 -29 -2 -128 16 -52 52 -167 80 -256 l52 -162 47 15 c76 24 102
28 102 15 0 -6 -5 -11 -12 -11 -6 0 -72 -19 -145 -42 -116 -36 -132 -44 -127
-60 3 -10 1 -18 -5 -18 -7 0 -7 -8 0 -27 11 -29 6 -53 -12 -53 -6 0 -8 7 -5
16 4 12 2 15 -9 11 -8 -4 -17 -2 -20 3 -4 6 2 10 12 10 14 0 18 7 17 32 -1 30
-4 33 -31 30 -20 -2 -30 2 -30 11 0 9 7 12 20 9 12 -3 18 -1 14 5 -4 6 3 8 18
5 32 -6 34 21 3 43 -18 12 -21 19 -12 33 19 31 6 42 -31 26 -19 -8 -50 -14
-70 -14 -34 0 -35 -1 -36 -37 l-1 -38 -11 34 c-10 30 -13 33 -44 28 -18 -3
-33 -2 -33 2 0 10 50 21 94 21 18 0 54 7 80 16 37 13 46 20 40 33 -4 9 -12 40
-18 69 -7 29 -23 67 -37 84 l-24 31 -88 -29 c-48 -15 -87 -33 -87 -39 0 -6 9
-39 21 -73 l21 -61 -21 -83 c-34 -132 -32 -136 72 -103 82 26 107 30 107 17 0
-5 -55 -25 -122 -45 -68 -21 -172 -53 -232 -72 -60 -19 -112 -32 -115 -29 -8
8 20 23 67 35 37 10 59 29 32 29 -5 0 -7 13 -3 30 5 26 3 30 -16 30 l-21 0 20
20 c23 23 27 55 6 47 -8 -3 -17 0 -19 8 -4 8 5 15 22 18 24 5 28 10 24 31 -3
14 -10 24 -16 23 -7 -1 -13 8 -15 19 -2 17 3 23 27 27 24 5 28 10 24 27 -6 22
-18 26 -28 10 -8 -12 -25 -13 -25 -1 0 12 68 43 79 37 5 -4 7 3 4 14 -4 15
-11 19 -25 14 -84 -26 -148 -41 -148 -34 0 9 54 31 83 35 11 1 22 7 26 14 4 6
15 9 24 5 21 -8 21 3 2 49 -18 44 -43 60 -62 41 -8 -8 -11 -18 -8 -24 11 -17
-10 -11 -33 10 -27 25 -29 43 -4 36 10 -4 27 1 38 10 18 14 16 15 -28 9 -31
-4 -48 -2 -48 4 0 6 7 11 16 11 25 0 12 33 -16 40 -24 6 -24 6 -5 18 11 6 14
12 8 12 -7 0 -13 9 -13 21 0 11 4 18 9 15 13 -8 24 45 12 57 -8 8 -11 4 -11
-11 0 -12 -5 -22 -11 -22 -6 0 -9 7 -5 15 7 19 -5 16 -193 -47 -80 -26 -147
-46 -149 -43 -9 8 -4 10 188 73 102 33 289 94 417 136 127 42 237 76 244 76 8
0 8 -4 -1 -15 -7 -8 -24 -15 -37 -15 -22 0 -24 -3 -18 -27 7 -30 25 -55 25
-36 0 6 13 14 28 18 25 5 28 9 24 37 -5 34 20 63 46 53 8 -3 18 -5 23 -5z
m3339 4 c0 -3 -7 -12 -16 -21 -11 -12 -18 -13 -27 -4 -8 8 -7 11 6 11 9 0 17
5 17 10 0 6 5 10 10 10 6 0 10 -3 10 -6z m-2553 -37 c-6 -20 -27 -19 -27 2 0
14 5 19 15 14 9 -3 14 -10 12 -16z m1793 5 c0 -13 -28 -47 -34 -42 -10 10 6
50 20 50 8 0 14 -4 14 -8z m1853 -17 c15 -14 27 -30 27 -35 0 -6 10 -10 23
-11 21 -1 21 -1 -3 -9 -14 -4 -19 -8 -12 -9 20 -2 13 -21 -8 -21 -19 0 -24 10
-21 38 1 6 -3 12 -9 12 -5 0 -10 7 -10 15 0 9 -7 18 -15 21 -15 6 -21 24 -7
24 4 0 20 -11 35 -25z m-3583 -6 c0 -11 -4 -17 -10 -14 -5 3 -10 13 -10 21 0
8 5 14 10 14 6 0 10 -9 10 -21z m4745 13 c-19 -17 -276 -125 -282 -118 -3 3
14 14 38 25 24 11 85 38 134 60 85 38 131 51 110 33z m-4395 -17 c0 -8 6 -15
13 -15 8 0 18 -16 24 -35 7 -20 7 -35 2 -35 -5 0 -6 -12 -3 -26 12 -46 -13
-18 -27 31 -13 42 -22 50 -56 46 -7 -1 -13 7 -13 19 0 11 5 20 10 20 6 0 10
-4 10 -10 0 -5 5 -10 10 -10 6 0 10 7 10 15 0 8 5 15 10 15 6 0 10 -7 10 -15z
m456 6 c-8 -12 -46 -21 -46 -11 0 9 18 18 38 19 7 1 11 -3 8 -8z m1489 -18
c-21 -15 -30 -10 -22 11 4 10 13 13 23 9 15 -6 15 -7 -1 -20z m-160 -12 c-4
-13 0 -23 12 -30 15 -8 16 -12 5 -23 -11 -11 -14 -10 -21 1 -5 7 -14 10 -20 7
-14 -9 -14 6 1 39 13 29 32 34 23 6z m2685 2 c-1 -13 -88 -53 -113 -53 -37 0
-119 -31 -151 -57 -38 -32 -45 -23 -9 13 27 27 99 55 153 59 30 2 80 25 80 37
0 4 9 8 20 8 11 0 20 -3 20 -7z m-4630 -29 c0 -8 5 -12 10 -9 14 9 12 -5 -5
-35 -9 -16 -15 -19 -15 -10 -1 8 -3 30 -6 48 -2 21 0 31 6 27 6 -3 10 -13 10
-21z m340 16 c0 -5 -4 -10 -10 -10 -16 0 -11 -40 9 -68 10 -15 20 -38 23 -52
3 -14 13 -42 22 -62 14 -33 14 -38 1 -38 -8 0 -15 3 -15 8 0 4 -11 20 -25 36
-29 34 -31 40 -10 32 21 -8 19 7 -11 59 -14 26 -23 53 -20 60 3 8 0 17 -6 21
-7 4 -6 9 3 15 19 12 39 11 39 -1z m-2183 -42 c-3 -7 -5 -2 -5 12 0 14 2 19 5
13 2 -7 2 -19 0 -25z m1724 11 c10 -20 9 -21 -15 -17 -22 5 -26 2 -21 -13 4
-11 2 -19 -4 -19 -15 0 -14 38 2 55 17 20 24 18 38 -6z m-1751 1 c8 -5 11 -12
7 -16 -4 -4 -15 0 -24 9 -18 18 -8 23 17 7z m5713 -44 c3 -8 21 -16 39 -19
l33 -4 -35 -1 c-34 -2 -60 12 -60 30 0 14 18 9 23 -6z m-183 -5 c0 -12 -20
-25 -27 -18 -7 7 6 27 18 27 5 0 9 -4 9 -9z m-3616 -53 c3 -16 2 -28 -3 -28
-10 0 -21 34 -21 65 1 16 2 17 9 5 5 -8 11 -27 15 -42z m-316 7 c6 -14 18 -25
27 -25 8 0 15 -4 15 -10 0 -5 7 -10 15 -10 8 0 15 -7 15 -15 0 -14 -4 -14 -36
0 -20 8 -39 15 -42 15 -3 0 -3 3 1 6 3 4 0 19 -9 35 -8 16 -11 29 -6 29 5 0
14 -11 20 -25z m2182 10 c0 -9 -6 -12 -15 -9 -8 4 -15 10 -15 15 0 5 7 9 15 9
8 0 15 -7 15 -15z m-2428 -27 c8 -18 21 -58 28 -89 l13 -56 41 22 c51 28 112
48 129 42 13 -5 17 -3 -73 -37 -30 -11 -63 -27 -73 -34 -16 -13 -17 -17 -4
-48 15 -35 57 -79 57 -60 0 6 -9 16 -20 22 -11 6 -20 18 -20 28 1 16 1 16 11
0 16 -29 32 -21 26 12 -4 17 -2 30 3 30 6 0 10 -1 10 -2 1 -2 7 -37 14 -78 8
-41 13 -76 11 -77 -1 -2 -25 18 -53 45 -34 31 -54 58 -58 80 -5 24 -11 31 -23
28 -54 -16 -74 -18 -67 -7 4 6 11 11 16 11 5 0 20 4 34 10 l25 9 -16 48 c-21
65 -25 68 -75 55 -37 -10 -45 -9 -55 5 -16 20 -17 43 -3 43 6 0 10 -6 10 -14
0 -20 12 -26 39 -19 l23 6 -23 13 c-23 13 -23 13 13 14 29 0 36 3 32 15 -12
30 14 14 28 -17z m4138 22 c0 -5 -9 -14 -21 -20 -19 -11 -20 -10 -9 9 11 22
30 29 30 11z m175 0 c3 -5 -1 -10 -9 -10 -11 0 -16 -10 -17 -27 0 -25 -1 -25
-8 -8 -5 11 -5 25 0 31 5 6 6 14 2 17 -3 4 1 7 10 7 9 0 19 -4 22 -10z m-2621
-16 c23 -9 20 -24 -4 -24 -11 0 -20 7 -20 15 0 17 2 18 24 9z m659 -1 c-7 -2
-21 -2 -30 0 -10 3 -4 5 12 5 17 0 24 -2 18 -5z m226 -65 c-1 -68 -6 -61 -11
15 -2 26 0 47 4 47 5 0 7 -28 7 -62z m1881 51 c0 -7 11 -9 30 -5 17 3 30 3 30
-1 0 -6 -40 -43 -47 -43 -10 0 -41 45 -36 52 7 12 23 9 23 -3z m-5677 -31 c4
-25 -1 -41 -20 -66 -22 -29 -23 -36 -13 -66 11 -33 11 -34 47 -23 19 6 42 21
50 34 20 31 36 29 21 -2 -10 -22 -62 -55 -87 -55 -14 0 -14 -4 8 -75 21 -66
37 -77 77 -50 26 17 41 15 29 -4 -3 -6 -13 -11 -21 -11 -9 0 -12 -5 -8 -11 5
-8 -3 -10 -25 -7 -23 3 -31 1 -32 -11 0 -14 -1 -14 -11 0 -11 16 -17 15 -67
-9 -31 -15 -58 -28 -59 -29 -2 -1 10 -47 27 -101 34 -111 35 -112 22 -112 -5
0 -17 29 -27 65 -9 36 -20 61 -24 55 -4 -7 -15 -8 -31 -1 l-24 9 27 12 c24 11
25 15 16 42 -11 30 -11 30 -68 25 -46 -5 -171 -39 -237 -64 -7 -3 -13 -1 -13
5 0 5 35 21 78 35 l77 25 -3 34 c-3 32 2 39 59 86 35 28 66 49 69 46 3 -3 -6
-15 -20 -27 -14 -12 -41 -35 -61 -52 -31 -26 -34 -34 -28 -60 6 -28 7 -29 8
-4 0 14 14 38 31 54 36 34 41 22 5 -15 -15 -16 -21 -30 -16 -38 12 -20 132 3
196 36 l52 28 -19 54 c-49 140 -51 168 -13 200 11 9 14 22 9 46 -4 20 -2 34 4
34 5 0 12 -15 15 -32z m1312 22 c38 -1 50 -16 37 -45 -12 -27 -32 -26 -32 1 0
8 5 12 10 9 6 -3 10 -1 10 4 0 10 -8 12 -64 15 -11 1 -21 7 -24 15 -3 10 1 12
19 8 13 -4 33 -7 44 -7z m4232 -7 c-9 -9 -19 -14 -23 -11 -10 10 6 28 24 28
15 0 15 -1 -1 -17z m-3937 -7 c0 -9 19 -15 62 -19 45 -4 66 -11 77 -25 21 -26
58 -45 66 -32 7 11 35 2 35 -12 0 -6 -6 -8 -14 -5 -8 3 -16 1 -19 -6 -4 -13
-53 14 -77 44 -12 14 -31 19 -88 21 -57 2 -71 5 -67 16 3 7 5 18 5 23 0 5 5 9
10 9 6 0 10 -6 10 -14z m3910 -23 c0 -5 -5 -15 -10 -23 -8 -12 -10 -11 -10 8
0 12 5 22 10 22 6 0 10 -3 10 -7z m-2890 -13 c0 -5 -6 -10 -14 -10 -8 0 -18 5
-21 10 -3 6 3 10 14 10 12 0 21 -4 21 -10z m-1413 -27 c5 -14 -74 -40 -85 -28
-4 4 -1 10 6 12 6 3 10 9 6 14 -3 5 -1 9 5 9 5 0 12 -6 14 -12 3 -8 6 -5 6 5
1 21 42 21 48 0z m-1361 -20 c-7 -7 -26 7 -26 19 0 6 6 6 15 -2 9 -7 13 -15
11 -17z m3881 -8 c-21 -20 -27 -19 -27 6 0 15 5 19 15 15 8 -3 15 0 16 7 0 9
2 9 6 0 2 -7 -2 -20 -10 -28z m-2065 5 c0 -11 1 -25 2 -32 2 -19 -21 -20 -28
-2 -8 20 2 54 15 54 5 0 10 -9 11 -20z m-1767 -2 c14 -6 25 -15 25 -20 0 -5
-13 -2 -30 7 -45 23 -41 34 5 13z m2650 -8 c9 -27 34 -25 44 3 8 18 10 19 16
6 4 -11 14 -15 28 -12 18 5 20 3 10 -8 -7 -7 -23 -14 -35 -16 -13 -1 -32 -5
-44 -8 -15 -3 -24 2 -32 21 -14 30 -15 34 -3 34 5 0 13 -9 16 -20z m-303 -61
l24 -72 35 34 c20 19 41 43 47 54 6 11 13 17 17 13 4 -3 -4 -22 -17 -42 -42
-65 -180 -117 -228 -86 -11 7 -3 10 30 9 25 -1 57 4 72 9 25 10 26 14 17 41
-8 23 -15 28 -32 23 -12 -2 -27 -9 -34 -14 -13 -10 -33 -3 -33 12 0 5 13 11
29 15 32 7 45 27 36 56 -4 11 -2 19 3 19 6 0 21 -32 34 -71z m2742 34 c3 -16
8 -38 12 -50 12 -44 -110 -75 -138 -34 -11 16 -29 20 -91 23 -42 1 -77 0 -77
-4 0 -4 5 -19 11 -35 22 -57 19 -78 -12 -95 -34 -20 -38 -8 -8 21 19 17 19 22
8 61 -7 23 -19 44 -26 47 -20 8 -88 -12 -85 -25 3 -14 -14 -16 -23 -2 -3 5
-12 7 -20 3 -8 -3 -15 0 -15 5 0 21 148 45 243 39 78 -4 92 -8 107 -26 15 -21
19 -22 64 -10 47 12 48 12 41 46 -3 19 -9 41 -12 49 -3 8 -1 14 5 14 5 0 12
-12 16 -27z m-2993 -26 c19 0 31 -10 48 -39 12 -21 17 -38 12 -38 -6 0 -15 9
-21 20 -7 14 -17 19 -29 15 -10 -3 -31 -1 -47 5 -23 9 -25 13 -14 20 12 8 10
10 -7 10 -13 0 -23 5 -23 10 0 6 11 8 27 4 15 -4 39 -7 54 -7z m-2354 -63 c-2
-3 -12 -2 -21 2 -11 4 -15 13 -10 26 5 18 4 18 -16 8 -12 -6 -19 -18 -16 -25
5 -14 -19 -53 -28 -44 -3 3 0 22 6 42 8 25 19 39 37 45 23 8 27 6 39 -21 7
-16 11 -31 9 -33z m3063 47 c0 -5 -11 -12 -24 -15 -13 -3 -31 -9 -40 -12 -9
-3 -16 -1 -16 5 0 6 15 15 33 20 43 12 47 13 47 2z m955 -1 c-3 -5 -11 -10
-16 -10 -6 0 -7 5 -4 10 3 6 11 10 16 10 6 0 7 -4 4 -10z m-751 -15 c-4 -8
-10 -15 -15 -15 -4 0 -6 7 -3 15 4 8 10 15 15 15 4 0 6 -7 3 -15z m-1100 -82
c27 -90 31 -133 16 -168 -6 -15 -9 -8 -9 28 l-1 49 -35 -4 c-31 -2 -38 2 -55
30 -26 42 -25 43 8 36 15 -3 35 1 45 8 17 12 17 16 2 57 -18 51 -18 51 -7 51
5 0 21 -39 36 -87z m93 81 c-3 -3 -12 -4 -19 -1 -8 3 -5 6 6 6 11 1 17 -2 13
-5z m2697 -78 c-6 -16 -24 -23 -24 -8 0 10 22 33 27 28 2 -2 1 -11 -3 -20z
m-3004 -5 c0 -8 -74 -31 -101 -31 -21 0 1 14 39 26 47 15 62 16 62 5z m380
-30 c0 -10 -83 -41 -108 -41 -24 0 -4 14 46 32 56 20 62 21 62 9z m225 -1 c-3
-5 -10 -10 -16 -10 -5 0 -9 5 -9 10 0 6 7 10 16 10 8 0 12 -4 9 -10z m-3577
-18 c6 -18 -15 -14 -22 4 -4 10 -1 14 6 12 6 -2 14 -10 16 -16z m5058 7 c3 -6
0 -15 -7 -20 -22 -14 -29 -11 -29 11 0 21 24 27 36 9z m914 -9 c0 -11 -7 -20
-15 -20 -17 0 -18 2 -9 24 9 23 24 20 24 -4z m-4400 0 c0 -5 -7 -10 -16 -10
-8 0 -12 5 -9 10 3 6 10 10 16 10 5 0 9 -4 9 -10z m3740 -6 c0 -2 -9 -4 -20
-4 -11 0 -20 4 -20 9 0 5 9 7 20 4 11 -3 20 -7 20 -9z m-70 -4 c-20 -13 -43
-13 -35 0 3 6 16 10 28 10 18 0 19 -2 7 -10z m780 -10 c0 -5 -10 -10 -22 -9
-22 0 -22 1 -3 9 11 5 21 9 23 9 1 1 2 -3 2 -9z m-2970 -20 c0 -11 -4 -20 -10
-20 -5 0 -10 9 -10 20 0 11 5 20 10 20 6 0 10 -9 10 -20z m-3042 -9 c3 -8 -1
-12 -9 -9 -7 2 -15 10 -17 17 -3 8 1 12 9 9 7 -2 15 -10 17 -17z m52 9 c-19
-13 -30 -13 -30 0 0 6 10 10 23 10 18 0 19 -2 7 -10z m115 0 c3 -5 -3 -10 -14
-10 -12 0 -21 5 -21 10 0 6 6 10 14 10 8 0 18 -4 21 -10z m-55 -12 c0 -11 -28
-10 -35 1 -3 6 4 9 15 8 11 -1 20 -5 20 -9z m2714 6 c25 -10 -22 -42 -73 -50
-51 -8 -56 13 -8 38 35 18 57 21 81 12z m2206 -10 c0 -8 -4 -12 -10 -9 -5 3
-10 10 -10 16 0 5 5 9 10 9 6 0 10 -7 10 -16z m-4810 -25 c0 -12 -37 -12 -44
0 -3 4 -3 11 0 14 8 7 44 -4 44 -14z m1125 1 c17 -7 15 -9 -12 -9 -18 -1 -33
4 -33 9 0 12 17 12 45 0z m1644 -31 c7 -23 11 -43 9 -45 -8 -7 -188 20 -188
28 0 5 12 7 28 4 15 -2 54 -8 86 -11 54 -6 58 -5 51 12 -15 36 -17 53 -8 53 6
0 15 -18 22 -41z m2871 14 c-46 -21 -210 -31 -210 -13 0 10 15 11 58 7 37 -4
73 -1 102 8 63 19 95 18 50 -2z m-4300 -19 c0 -8 -4 -12 -10 -9 -5 3 -10 10
-10 16 0 5 5 9 10 9 6 0 10 -7 10 -16z m-441 -61 c12 -38 25 -74 28 -82 4 -9
0 -11 -16 -6 -19 6 -21 3 -21 -44 0 -51 15 -75 31 -50 7 12 9 12 9 0 0 -11 3
-11 15 -1 9 7 19 9 23 5 4 -4 1 -10 -5 -12 -7 -3 -13 -10 -13 -17 0 -14 56
-37 75 -30 7 3 18 -4 25 -15 11 -22 -3 -31 -16 -10 -4 8 -9 8 -17 0 -15 -15
-27 -14 -27 4 0 18 -41 20 -71 5 -22 -12 -25 -36 -6 -43 7 -3 -8 -23 -38 -50
-63 -58 -83 -61 -28 -4 34 34 41 47 36 69 -4 22 0 29 26 43 36 18 34 35 -2 28
-22 -4 -24 -1 -30 47 -4 29 -14 61 -23 71 -15 17 -16 24 -4 59 7 22 17 40 21
40 5 0 4 12 -1 26 -12 31 -12 34 -2 34 4 0 18 -30 31 -67z m261 29 c0 -5 -6
-16 -12 -24 -11 -15 -15 -15 -26 -2 -11 11 -10 14 3 14 8 0 15 5 15 10 0 6 5
10 10 10 6 0 10 -4 10 -8z m1420 -72 c0 -5 -4 -10 -10 -10 -5 0 -10 5 -10 10
0 6 5 10 10 10 6 0 10 -4 10 -10z m-1571 -27 c0 -5 -4 -17 -9 -28 -8 -18 -9
-17 -9 8 -1 15 4 27 9 27 6 0 10 -3 9 -7z m3231 -13 c0 -5 -4 -10 -9 -10 -5 0
-16 -3 -25 -6 -9 -3 -16 -1 -16 4 0 9 16 17 43 21 4 0 7 -3 7 -9z m-2570 -10
c0 -5 8 -7 18 -3 16 6 16 5 -1 -14 -9 -11 -14 -23 -10 -27 7 -6 -14 -25 -28
-26 -7 0 -9 29 -3 58 4 21 24 32 24 12z m-480 -26 c0 -3 -10 -14 -22 -25 l-23
-19 24 3 c13 1 25 -2 27 -8 2 -6 -18 -11 -47 -13 -33 -2 -48 1 -44 8 3 5 0 10
-7 11 -7 0 -3 5 10 11 12 6 22 15 22 20 0 5 5 6 10 3 6 -3 10 -1 10 4 0 6 9
11 20 11 11 0 20 -3 20 -6z m-505 -24 c3 -5 12 -7 19 -4 7 3 16 -1 19 -9 4
-11 -4 -16 -26 -20 -37 -5 -48 0 -27 13 10 7 11 10 3 10 -7 0 -13 5 -13 10 0
13 17 13 25 0z m871 -22 c3 -4 3 -11 0 -17 -7 -11 -46 7 -46 20 0 7 38 5 46
-3z m-60 -45 c-7 -7 -26 7 -26 19 0 6 6 6 15 -2 9 -7 13 -15 11 -17z m-342
-81 c10 -35 15 -66 12 -69 -6 -6 -6 -5 -31 66 -16 48 -20 91 -6 76 4 -6 16
-39 25 -73z m1536 64 c0 -8 -11 -17 -25 -20 -14 -4 -25 -11 -25 -16 0 -6 -4
-10 -10 -10 -5 0 -10 9 -10 20 0 15 7 20 24 20 14 0 28 5 31 10 9 14 15 12 15
-4z m-1351 -38 c0 -33 -2 -38 -9 -23 -12 28 -12 65 0 65 6 0 10 -19 9 -42z
m-70 6 c6 4 11 3 11 -3 0 -5 -5 -11 -11 -13 -9 -3 -9 -10 0 -27 22 -40 6 -46
-18 -6 -12 21 -19 45 -16 54 5 12 8 13 14 2 5 -7 14 -10 20 -7z m-585 -16 c-5
-9 -2 -8 9 1 10 8 21 11 25 7 4 -4 -4 -16 -17 -27 -24 -20 -46 -26 -36 -10 3
5 1 12 -5 16 -17 11 -11 25 11 25 13 0 18 -4 13 -12z m131 2 c3 -5 -1 -10 -9
-10 -9 0 -16 5 -16 10 0 6 4 10 9 10 6 0 13 -4 16 -10z m1745 -5 c0 -8 -9 -15
-19 -15 -10 0 -21 7 -25 15 -4 11 1 15 19 15 16 0 25 -6 25 -15z m-940 -3 c0
-11 -98 -57 -106 -49 -3 3 16 17 43 31 52 27 63 30 63 18z m-1030 -10 c0 -12
46 -32 73 -32 20 -1 20 -2 5 -11 -13 -7 -26 -5 -47 6 -38 19 -52 19 -45 0 8
-20 -6 -19 -22 3 -12 15 -15 15 -23 2 -12 -18 -24 -8 -15 13 3 9 18 18 32 20
15 2 30 5 35 6 4 0 7 -3 7 -7z m220 -11 c0 -4 -11 -14 -25 -21 -19 -10 -27
-10 -39 -1 -8 7 -20 10 -26 6 -5 -3 -10 -2 -10 2 0 14 43 28 73 24 15 -2 27
-6 27 -10z m280 -13 c0 -6 -7 -5 -15 2 -8 7 -15 17 -15 22 0 6 7 5 15 -2 8 -7
15 -17 15 -22z m1570 -9 c0 -18 -2 -19 -15 -9 -15 12 -12 30 6 30 5 0 9 -10 9
-21z m-1524 -18 c-3 -5 -15 -7 -26 -4 -28 7 -25 13 6 13 14 0 23 -4 20 -9z
m354 0 c0 -11 -129 -55 -137 -47 -9 9 -5 11 62 34 71 24 75 25 75 13z m42 -22
c13 -20 17 -21 51 -10 20 7 43 11 50 8 10 -4 -7 -13 -62 -32 -9 -4 -11 -15 -7
-40 4 -19 3 -35 -2 -35 -5 0 -12 14 -16 31 -5 27 -9 30 -31 25 -30 -8 -34 10
-4 19 19 6 19 8 5 24 -9 10 -16 21 -16 24 0 14 18 6 32 -14z m913 0 c11 -17
-1 -21 -15 -4 -8 9 -8 15 -2 15 6 0 14 -5 17 -11z m-1234 -126 c12 -36 26 -63
34 -63 7 0 42 9 77 20 74 23 68 22 68 12 0 -8 -135 -52 -158 -52 -20 0 -69
189 -54 205 4 4 8 -8 10 -27 2 -18 12 -61 23 -95z m-247 76 c-9 -19 -11 -20
-23 -5 -9 11 -10 16 -2 16 6 0 11 8 11 17 0 13 3 14 12 5 8 -8 8 -18 2 -33z
m984 3 c6 -18 -15 -14 -22 4 -4 10 -1 14 6 12 6 -2 14 -10 16 -16z m-1093 -2
c3 -5 -1 -10 -10 -10 -9 0 -13 5 -10 10 3 6 8 10 10 10 2 0 7 -4 10 -10z m-65
-20 c0 -11 7 -20 15 -20 14 0 19 -11 16 -37 -1 -7 3 -21 8 -32 8 -14 7 -22 -4
-31 -11 -10 -17 -5 -30 26 -21 52 -30 114 -16 114 6 0 11 -9 11 -20z m1034 5
c3 -8 1 -15 -4 -15 -6 0 -10 7 -10 15 0 8 2 15 4 15 2 0 6 -7 10 -15z m-1154
-35 c0 -17 -12 -40 -21 -40 -5 0 -9 9 -9 20 0 12 -7 20 -17 21 -15 0 -15 2 2
8 22 9 45 4 45 -9z m70 -5 c0 -8 -4 -15 -10 -15 -5 0 -10 7 -10 15 0 8 5 15
10 15 6 0 10 -7 10 -15z m-570 -15 c12 -8 11 -10 -7 -10 -13 0 -23 5 -23 10 0
13 11 13 30 0z m210 -30 c0 -5 7 -10 15 -10 8 0 15 -4 15 -10 0 -5 -7 -10 -15
-10 -8 0 -15 -7 -15 -15 0 -8 -4 -15 -9 -15 -10 0 -22 51 -14 62 6 11 23 10
23 -2z m385 0 c-3 -5 -13 -10 -21 -10 -8 0 -14 5 -14 10 0 6 9 10 21 10 11 0
17 -4 14 -10z m900 -10 c-3 -5 -13 -10 -21 -10 -8 0 -12 5 -9 10 3 6 13 10 21
10 8 0 12 -4 9 -10z m-1190 -20 l21 -20 60 20 c55 20 124 21 124 2 0 -10 -103
-112 -113 -112 -5 0 10 22 32 49 23 27 41 52 41 56 0 9 -42 1 -84 -14 -27 -11
-28 -12 -12 -36 17 -25 14 -45 -5 -45 -6 0 -7 4 -4 10 3 5 1 19 -5 31 -11 20
-27 21 -74 3 -9 -3 -16 -1 -16 5 0 6 7 11 15 11 8 0 15 4 15 9 0 5 -7 14 -15
21 -16 13 -20 30 -8 30 4 0 16 -9 28 -20z m1915 10 c0 5 4 10 10 10 5 0 7 -14
3 -32 -6 -37 -33 -88 -45 -88 -12 0 -10 18 3 26 6 3 8 17 5 30 -4 14 -2 24 4
24 5 0 10 5 10 11 0 6 -7 9 -15 5 -9 -3 -15 0 -15 10 0 12 4 12 20 4 14 -7 20
-7 20 0z m-1646 -25 c-24 -18 -34 -19 -34 -1 0 8 10 16 23 18 31 5 34 0 11
-17z m126 11 c0 -3 -4 -8 -10 -11 -5 -3 -10 -1 -10 4 0 6 5 11 10 11 6 0 10
-2 10 -4z m1080 -5 c0 -5 -7 -11 -15 -15 -15 -5 -20 5 -8 17 9 10 23 9 23 -2z
m-539 -44 c-8 -8 -11 -3 -11 19 1 25 2 27 11 11 8 -14 8 -22 0 -30z m-1297 1
c7 -38 6 -40 -16 -24 -11 8 -15 20 -11 34 8 31 19 27 27 -10z m1886 2 c5 8 11
12 14 9 7 -7 -5 -49 -14 -49 -15 0 -40 31 -40 48 1 15 3 14 16 -3 12 -17 16
-18 24 -5z m-2246 -137 c29 -98 30 -103 16 -103 -5 0 -10 6 -10 13 0 7 -11 48
-25 91 -28 90 -28 86 -17 86 5 0 21 -39 36 -87z m280 -14 c12 -40 29 -75 37
-77 8 -3 11 -1 7 3 -9 10 18 36 34 33 36 -8 23 -39 -21 -53 -23 -7 -24 -15 -5
-77 3 -10 1 -18 -4 -18 -5 0 -17 27 -27 60 -10 34 -22 63 -27 66 -5 3 -23 -11
-40 -30 -17 -20 -40 -36 -50 -36 -21 0 -22 -8 -8 -44 5 -14 6 -26 1 -26 -10 0
-31 53 -31 76 0 8 11 14 25 14 16 0 32 11 47 30 12 17 30 30 40 30 22 0 22 -3
3 50 -15 42 -20 89 -9 77 3 -3 16 -38 28 -78z m-87 55 c-3 -3 -12 -4 -19 -1
-8 3 -5 6 6 6 11 1 17 -2 13 -5z m1907 -35 l20 -19 -22 0 c-12 0 -22 4 -22 9
0 5 -9 13 -20 16 -11 3 -20 11 -20 16 0 14 39 0 64 -22z m-1600 -32 c-8 -4
-14 -16 -15 -25 -1 -11 -4 -8 -9 8 -14 45 -12 49 14 37 20 -9 22 -14 10 -20z
m-241 -7 c5 -21 -8 -26 -32 -11 -7 5 -10 14 -7 20 11 18 33 13 39 -9z m755
-12 c3 -16 -26 -33 -37 -22 -3 4 -1 9 6 11 7 2 9 11 6 20 -4 11 -2 14 8 11 8
-3 15 -12 17 -20z m-1028 2 c0 -5 -7 -10 -16 -10 -8 0 -12 5 -9 10 3 6 10 10
16 10 5 0 9 -4 9 -10z m144 -76 c4 -9 4 -19 1 -22 -6 -6 -35 18 -35 29 0 16
28 10 34 -7z m603 -18 c-1 -30 -3 -32 -19 -23 -19 12 -20 37 -3 49 18 14 23 8
22 -26z m238 4 c-10 -11 -20 -18 -23 -15 -7 6 18 35 31 35 5 0 2 -9 -8 -20z
m-435 -47 c0 -12 -112 -114 -118 -108 -7 6 98 115 110 115 4 0 8 -3 8 -7z
m125 -44 c19 -55 29 -105 17 -94 -16 17 -52 137 -40 133 6 -2 17 -20 23 -39z
m-215 24 c-8 -3 -18 -11 -22 -17 -9 -14 -22 -1 -13 13 3 6 16 11 28 10 15 0
17 -2 7 -6z m313 -16 c2 -7 2 -30 -2 -52 l-7 -40 -11 32 c-12 32 -7 73 7 73 4
0 10 -6 13 -13z m-678 -27 c-3 -5 -10 -10 -16 -10 -5 0 -9 5 -9 10 0 6 7 10
16 10 8 0 12 -4 9 -10z m330 -10 c8 -12 -12 -40 -28 -40 -8 0 -8 3 0 11 6 6 9
18 6 25 -6 16 13 19 22 4z m539 -5 c6 -16 -3 -19 -28 -9 -22 8 -20 24 3 24 10
0 21 -7 25 -15z m-704 -139 c0 -11 -3 -16 -7 -12 -10 9 -33 78 -32 96 1 21 38
-61 39 -84z m330 84 c0 -5 -5 -10 -11 -10 -5 0 -7 5 -4 10 3 6 8 10 11 10 2 0
4 -4 4 -10z m-410 -10 c0 -5 -11 -10 -25 -10 -14 0 -25 5 -25 10 0 6 11 10 25
10 14 0 25 -4 25 -10z m198 -9 c3 -8 -1 -12 -9 -9 -7 2 -15 10 -17 17 -3 8 1
12 9 9 7 -2 15 -10 17 -17z m391 -77 c-12 -13 -28 -24 -36 -24 -22 0 -14 26
12 40 18 10 25 22 26 44 l1 31 10 -34 c8 -29 6 -37 -13 -57z m194 59 c-14 -3
-20 -9 -16 -19 3 -8 0 -14 -6 -14 -6 0 -11 9 -11 20 0 15 6 20 28 19 22 -1 23
-2 5 -6z m-444 -12 c-25 -4 -58 -17 -73 -29 -43 -33 -56 -26 -16 8 29 25 42
30 85 29 l50 -2 -46 -6z m-493 -78 c-4 -4 -11 -1 -16 7 -16 25 -11 35 7 17 9
-9 13 -20 9 -24z m144 13 c0 -3 -4 -8 -10 -11 -5 -3 -10 -1 -10 4 0 6 5 11 10
11 6 0 10 -2 10 -4z m550 -32 c0 -3 -27 -36 -60 -74 -33 -39 -67 -81 -76 -95
-20 -31 -30 -32 -37 -3 -7 26 1 38 12 20 5 -9 17 0 40 28 29 36 30 40 11 40
-11 0 -20 5 -20 10 0 6 13 10 30 10 21 0 36 9 57 35 25 32 43 44 43 29z m-230
-184 c0 -5 -2 -10 -4 -10 -3 0 -8 5 -11 10 -3 6 -1 10 4 10 6 0 11 -4 11 -10z
m3 -40 c-3 -11 -9 -20 -13 -20 -5 0 -21 -33 -36 -72 -43 -116 -279 -446 -301
-424 -4 3 1 14 10 24 10 11 14 27 11 42 -5 24 -5 24 10 6 15 -18 21 -15 17 8
-1 4 3 14 10 22 6 7 8 18 4 24 -3 5 -2 10 4 10 6 0 22 12 37 28 21 22 25 23
20 7 -23 -66 132 178 160 252 24 63 52 112 66 113 3 0 4 -9 1 -20z m-305 -2
c-6 -18 -28 -21 -28 -4 0 9 7 16 16 16 9 0 14 -5 12 -12z m-104 -64 c4 -12 2
-15 -9 -10 -10 4 -15 -1 -15 -15 0 -11 -4 -17 -10 -14 -14 9 -12 42 3 48 21 9
25 8 31 -9z m91 -32 c-7 -7 -45 29 -45 41 0 6 11 0 25 -13 14 -13 23 -26 20
-28z m140 -122 c3 -5 -1 -10 -9 -10 -9 0 -16 5 -16 10 0 6 4 10 9 10 6 0 13
-4 16 -10z m-162 -50 c-17 -13 -19 -19 -9 -23 7 -3 19 0 26 6 10 9 11 7 6 -10
-4 -12 -2 -24 4 -28 18 -11 11 -31 -15 -43 -16 -7 -25 -8 -25 -1 0 5 7 12 15
15 22 9 18 27 -5 21 -15 -4 -20 0 -20 13 0 11 -5 22 -12 26 -7 5 -2 15 17 30
16 13 32 21 35 18 3 -3 -5 -14 -17 -24z m-43 -59 c0 -5 -7 -12 -16 -15 -22 -9
-24 -8 -24 9 0 8 9 15 20 15 11 0 20 -4 20 -9z"/>
<path d="M2958 7488 c-21 -18 -29 -46 -15 -52 9 -3 9 -7 -1 -14 -7 -5 -10 -16
-7 -24 9 -22 45 -11 45 13 0 11 7 35 14 54 14 32 14 35 -3 35 -9 0 -24 -6 -33
-12z"/>
<path d="M2976 7363 c-6 -14 -5 -15 5 -6 7 7 10 15 7 18 -3 3 -9 -2 -12 -12z"/>
<path d="M215 7240 c-3 -6 1 -7 9 -4 18 7 21 14 7 14 -6 0 -13 -4 -16 -10z"/>
<path d="M1105 6030 c3 -5 8 -10 11 -10 2 0 4 5 4 10 0 6 -5 10 -11 10 -5 0
-7 -4 -4 -10z"/>
<path d="M685 5749 c-10 -14 -1 -21 19 -13 9 3 13 10 10 15 -7 12 -21 11 -29
-2z"/>
<path d="M865 4060 c-3 -5 -1 -10 4 -10 6 0 11 5 11 10 0 6 -2 10 -4 10 -3 0
-8 -4 -11 -10z"/>
<path d="M856 4017 c3 -10 9 -15 12 -12 3 3 0 11 -7 18 -10 9 -11 8 -5 -6z"/>
<path d="M891 4008 c1 -13 5 -34 10 -48 8 -22 8 -21 4 8 -4 31 8 45 18 20 4
-10 6 -10 6 0 1 13 -22 42 -33 42 -3 0 -6 -10 -5 -22z"/>
<path d="M2730 3360 c0 -5 4 -10 9 -10 6 0 13 5 16 10 3 6 -1 10 -9 10 -9 0
-16 -4 -16 -10z"/>
<path d="M4700 3566 c0 -9 5 -16 10 -16 6 0 10 4 10 9 0 6 -4 13 -10 16 -5 3
-10 -1 -10 -9z"/>
<path d="M4175 3624 c-16 -8 -43 -28 -58 -45 -33 -34 -30 -51 15 -113 16 -22
38 -70 49 -108 13 -42 26 -68 35 -68 8 0 14 7 14 15 0 8 4 15 9 15 5 0 14 -7
21 -15 7 -8 25 -15 40 -15 l27 0 -54 143 c-40 105 -53 151 -49 175 5 37 -4 40
-49 16z m115 -298 c-14 -14 -24 0 -16 21 6 15 8 15 16 3 6 -9 5 -19 0 -24z"/>
<path d="M4248 3263 c-15 -4 -16 -8 -7 -26 6 -12 25 -37 42 -54 17 -18 28 -36
24 -39 -8 -8 -74 62 -82 87 -4 10 -15 19 -27 19 -12 0 -18 -5 -16 -12 3 -7 25
-68 49 -136 l43 -123 30 7 c16 3 50 14 77 23 l47 16 -46 123 -46 122 -36 -1
c-19 -1 -43 -3 -52 -6z m49 -216 c-5 -14 -37 59 -36 82 0 9 10 -3 20 -27 11
-24 18 -49 16 -55z"/>
<path d="M4218 2938 c-16 -5 -28 -16 -28 -24 0 -8 -5 -14 -12 -14 -6 0 -9 -2
-6 -5 3 -3 26 0 52 7 33 9 46 17 46 30 0 20 -12 21 -52 6z"/>
<path d="M3067 2213 c-13 -3 -16 -11 -11 -31 9 -34 13 -42 25 -42 5 0 9 8 9
19 0 10 7 24 15 31 27 22 6 35 -38 23z"/>
<path d="M2995 2185 c-16 -7 -23 -14 -15 -14 25 -1 60 11 60 20 0 12 -9 11
-45 -6z"/>
<path d="M2408 2015 c-9 -9 4 -55 13 -49 11 7 12 54 1 54 -5 0 -11 -2 -14 -5z"/>
<path d="M2460 1640 c-13 -8 -12 -11 5 -24 36 -27 53 -19 39 18 -7 18 -22 20
-44 6z m40 -21 c0 -5 -4 -9 -10 -9 -5 0 -10 7 -10 16 0 8 5 12 10 9 6 -3 10
-10 10 -16z"/>
<path d="M1973 1516 c-17 -8 -21 -16 -17 -31 9 -29 36 -56 50 -51 6 2 17 -1
23 -7 14 -14 14 -10 0 53 -11 51 -18 56 -56 36z"/>
<path d="M1843 1479 c-3 -16 -11 -28 -18 -27 -20 5 -75 -43 -75 -66 0 -20 38
-46 67 -46 7 0 13 6 13 13 0 6 5 4 11 -5 14 -25 49 -23 49 1 0 11 -7 26 -15
35 -18 17 -20 36 -4 36 13 0 73 59 67 65 -2 2 -23 8 -46 13 -42 10 -43 10 -49
-19z"/>
<path d="M1934 1435 c-3 -8 -12 -15 -20 -15 -9 0 -14 -11 -14 -30 0 -35 1 -35
46 -14 39 18 45 47 14 64 -16 9 -22 8 -26 -5z"/>
<path d="M2126 3037 c3 -10 9 -15 12 -12 3 3 0 11 -7 18 -10 9 -11 8 -5 -6z"/>
<path d="M2097 3021 c3 -12 10 -21 15 -21 13 0 6 32 -9 37 -7 3 -9 -3 -6 -16z"/>
<path d="M1930 2998 c0 -19 2 -20 10 -8 8 13 10 13 10 -2 0 -11 5 -15 15 -12
8 4 15 15 15 25 0 14 -7 19 -25 19 -19 0 -25 -5 -25 -22z"/>
<path d="M1795 2973 c-60 -19 -115 -41 -121 -49 -7 -8 -16 -14 -20 -13 -27 5
-41 -5 -57 -41 -20 -47 -21 -60 -5 -95 14 -30 15 -30 53 -5 17 11 33 20 38 20
16 0 6 -16 -20 -32 -22 -14 -24 -18 -10 -18 14 0 17 -5 12 -20 -3 -11 -2 -20
3 -20 16 0 74 -59 67 -69 -3 -6 -1 -19 5 -28 10 -15 11 -15 6 -1 -3 10 3 18
17 22 27 7 36 -2 17 -15 -12 -9 -12 -10 3 -5 10 3 23 6 29 6 14 0 -1 61 -20
83 -8 9 -23 17 -34 17 -10 0 -18 5 -18 11 0 13 47 4 67 -13 7 -5 15 -25 19
-44 3 -19 10 -36 14 -39 4 -2 41 7 82 21 69 23 75 27 72 50 -2 26 -21 54 -35
54 -4 0 -20 -12 -34 -27 -14 -15 -25 -22 -25 -16 0 7 -7 10 -17 6 -13 -5 -15
-2 -10 11 4 10 7 22 7 28 0 6 9 8 21 5 12 -3 32 -2 45 3 32 13 64 -14 64 -53
0 -17 4 -26 11 -22 16 10 0 110 -28 173 -13 30 -21 63 -18 73 8 23 7 23 -40 3
-53 -22 -62 -3 -10 20 6 3 6 8 -1 13 -7 4 -13 15 -15 24 -4 14 -18 12 -114
-18z m83 -55 c-3 -7 -24 -23 -48 -35 -24 -13 -51 -30 -60 -38 -23 -21 -33 -19
-20 6 6 11 31 29 55 39 23 10 46 23 49 29 10 15 29 14 24 -1z m-174 -63 c3 -8
1 -15 -3 -15 -5 0 -11 7 -15 15 -3 8 -1 15 3 15 5 0 11 -7 15 -15z m216 -2 c0
-5 -7 -16 -15 -26 -13 -18 -14 -18 -24 2 -15 28 -14 31 14 31 14 0 25 -3 25
-7z m-36 -58 c4 -10 -1 -15 -15 -15 -17 0 -18 2 -7 15 16 18 15 18 22 0z m-34
-35 c0 -5 -11 -10 -25 -10 -14 0 -25 5 -25 10 0 6 11 10 25 10 14 0 25 -4 25
-10z"/>
<path d="M2120 2971 c0 -20 17 -37 27 -28 7 8 -7 47 -18 47 -5 0 -9 -9 -9 -19z"/>
<path d="M2024 2968 c-31 -15 -38 -61 -15 -106 10 -20 22 -53 26 -72 4 -19 12
-41 18 -48 8 -10 7 -16 -2 -22 -28 -16 17 -100 53 -100 9 0 16 -4 16 -10 0 -5
-4 -10 -9 -10 -5 0 -11 -6 -14 -13 -6 -17 15 -87 26 -87 5 0 5 -4 2 -10 -8
-13 24 -13 66 1 19 7 35 13 37 14 2 2 -25 92 -59 201 -34 110 -66 216 -71 237
-11 40 -31 46 -74 25z m90 -180 c8 -32 7 -40 -3 -34 -5 4 -11 1 -13 -6 -3 -9
-10 -8 -23 5 -17 18 -17 18 3 24 13 3 19 10 15 19 -3 8 -1 14 5 14 5 0 12 -10
16 -22z m27 -88 c10 -6 19 -20 19 -30 0 -26 -17 -26 -25 0 -5 17 -13 20 -43
15 l-37 -5 30 15 c37 17 33 17 56 5z"/>
<path d="M1783 2588 c-31 -10 -45 -28 -22 -28 5 0 7 -5 3 -12 -5 -8 -2 -9 10
-5 10 4 29 10 42 13 27 7 26 6 18 28 -7 18 -7 18 -51 4z"/>
<path d="M1810 2535 c-14 -8 -33 -18 -42 -21 -10 -3 -18 -10 -18 -14 0 -4 -12
-19 -26 -33 -30 -30 -28 -58 4 -72 30 -13 28 -18 -13 -35 -26 -12 -32 -19 -25
-30 8 -13 13 -13 31 -1 20 12 24 11 36 -5 22 -30 15 -41 -34 -48 -13 -3 -18
-11 -16 -35 0 -18 3 -34 5 -37 3 -2 32 5 65 17 l61 20 4 55 c2 38 -1 54 -9 54
-19 0 -16 8 12 36 28 28 32 64 13 125 -13 44 -13 44 -48 24z m37 -85 c0 -35
-7 -38 -24 -10 -12 17 -4 30 23 40 0 0 1 -13 1 -30z m-63 5 c19 -14 18 -15
-17 -15 -36 0 -50 13 -24 23 18 8 20 8 41 -8z"/>
<path d="M2188 2473 c-40 -14 -47 -20 -51 -47 -2 -17 -1 -33 3 -36 4 -3 12
-15 18 -27 8 -14 18 -20 32 -16 11 3 18 9 15 13 -3 5 5 6 17 2 13 -3 19 -1 15
5 -5 7 0 9 13 6 11 -3 20 -2 20 2 0 9 -31 115 -33 114 -1 0 -23 -8 -49 -16z"/>
<path d="M1725 2311 c-6 -11 9 -23 19 -14 9 9 7 23 -3 23 -6 0 -12 -4 -16 -9z"/>
<path d="M1685 2290 c-3 -5 -2 -10 4 -10 5 0 13 5 16 10 3 6 2 10 -4 10 -5 0
-13 -4 -16 -10z"/>
<path d="M3418 2643 c7 -3 16 -2 19 1 4 3 -2 6 -13 5 -11 0 -14 -3 -6 -6z"/>
<path d="M3212 2509 c-21 -8 -28 -32 -9 -30 4 1 18 1 31 1 19 0 23 4 19 20 -6
22 -8 23 -41 9z"/>
<path d="M1166 2284 c-8 -22 -8 -44 2 -44 19 1 31 18 25 38 -6 26 -18 29 -27
6z"/>
<path d="M0 1010 c0 -6 7 -10 15 -10 8 0 15 2 15 4 0 2 -7 6 -15 10 -8 3 -15
1 -15 -4z"/>
</g>
</svg>
