<?xml version="1.0" standalone="no"?>
<!DOCTYPE svg PUBLIC "-//W3C//DTD SVG 20010904//EN"
 "http://www.w3.org/TR/2001/REC-SVG-20010904/DTD/svg10.dtd">
<svg version="1.0" xmlns="http://www.w3.org/2000/svg"
 width="800.000000pt" height="800.000000pt" viewBox="0 0 800.000000 800.000000"
 preserveAspectRatio="xMidYMid meet">
<metadata>
Created by potrace 1.16, written by Peter Selinger 2001-2019
</metadata>
<g transform="translate(0.000000,800.000000) scale(0.100000,-0.100000)"
fill="#000000" stroke="none">
<path d="M0 4000 l0 -4000 4000 0 4000 0 0 4000 0 4000 -4000 0 -4000 0 0
-4000z m3119 2188 c1 -11 -5 -15 -19 -11 -23 6 -24 12 -9 50 l12 28 7 -25 c5
-14 8 -32 9 -42z m171 4 c-6 -2 -8 -8 -4 -13 3 -6 -17 -7 -50 -3 l-56 7 0 -82
c0 -47 -4 -81 -10 -81 -6 0 -10 35 -10 84 0 77 2 85 21 91 11 4 32 4 45 1 16
-4 30 -1 41 9 13 13 17 14 24 3 5 -7 4 -14 -1 -16z m412 -107 c-3 -18 -11 -25
-28 -25 -13 0 -24 5 -24 10 0 6 7 10 15 10 9 0 18 7 21 15 10 24 22 17 16 -10z
m-444 -65 c2 -5 20 -19 39 -31 27 -17 49 -22 85 -20 31 2 48 -2 48 -9 0 -7
-14 -10 -37 -8 -35 3 -39 0 -58 -35 -16 -30 -17 -39 -7 -46 10 -6 9 -10 -7
-14 -31 -8 -25 -33 14 -60 19 -13 32 -27 29 -30 -4 -3 -23 5 -43 18 -19 14
-42 25 -51 25 -8 0 -24 8 -35 16 -19 16 -19 16 7 12 33 -6 52 13 43 42 -4 14
-2 20 8 20 15 0 27 20 27 44 0 7 -16 21 -35 32 -19 10 -35 22 -35 26 0 5 -9 8
-19 8 -10 0 -22 7 -25 16 -5 13 -1 15 21 9 16 -3 29 -10 31 -15z m-268 -45
c21 7 29 -10 8 -18 -8 -3 -3 -9 11 -14 15 -6 20 -12 13 -17 -18 -11 16 -45 39
-39 29 8 23 -5 -11 -22 -23 -12 -30 -22 -30 -45 0 -17 7 -33 18 -39 15 -9 15
-12 2 -21 -8 -5 -19 -10 -25 -10 -16 0 -17 80 -2 104 13 19 12 25 -18 59 -28
33 -37 37 -71 35 -22 -2 -41 2 -44 7 -3 6 8 10 24 10 16 1 32 7 34 13 3 10 7
10 17 2 8 -7 23 -9 35 -5z m663 -85 c-7 -26 -51 -28 -49 -2 1 16 33 33 48 25
3 -1 4 -12 1 -23z m227 -50 c0 -26 -4 -30 -27 -30 -24 1 -26 2 -12 13 8 7 18
20 22 30 10 26 17 21 17 -13z m375 -31 c-4 -5 6 -9 22 -9 37 0 49 -10 49 -37
0 -31 -14 -29 -27 5 -10 26 -11 26 -25 8 -8 -11 -14 -26 -14 -33 0 -7 -4 -13
-9 -13 -6 0 -9 12 -8 27 2 22 -3 29 -20 31 -28 4 -30 22 -3 22 11 0 20 5 20
11 0 5 5 7 10 4 6 -4 8 -11 5 -16z m472 -68 c1 -11 -6 -21 -18 -24 -22 -6 -23
-3 -9 24 14 24 25 24 27 0z m-1378 -93 c-6 -21 -4 -28 7 -28 22 0 17 -17 -7
-23 -28 -7 -65 7 -73 28 -5 13 -14 16 -37 11 -22 -4 -29 -2 -27 7 3 6 19 13
36 15 23 2 32 8 32 22 0 24 39 30 61 10 11 -11 13 -23 8 -42z m1403 35 c16
-14 25 -43 14 -43 -2 0 -13 -3 -23 -7 -15 -6 -16 -4 -5 9 10 13 9 16 -8 21
-13 3 -18 10 -14 21 8 20 13 20 36 -1z m-772 -38 c0 -14 7 -28 15 -31 22 -9
18 -23 -5 -17 -11 3 -20 13 -20 23 0 10 -3 25 -6 34 -3 9 -1 16 5 16 6 0 11
-11 11 -25z m-527 -27 c-2 -5 -19 -7 -36 -7 -22 1 -25 3 -11 6 17 3 21 9 16
26 l-5 22 20 -20 c11 -11 19 -23 16 -27z m255 29 c6 -19 0 -37 -13 -37 -9 0
-18 -7 -21 -15 -4 -8 -10 -15 -15 -15 -4 0 -6 7 -2 16 3 9 0 20 -8 25 -11 7
-11 11 5 22 19 14 49 16 54 4z m-690 -64 c-2 -10 3 -23 12 -30 13 -11 13 -12
-1 -13 -25 0 -34 -59 -12 -77 17 -13 16 -14 -4 -10 -21 5 -23 1 -23 -38 0 -26
-6 -47 -15 -55 -8 -7 -15 -19 -15 -26 0 -19 -10 -18 -26 4 -19 24 -17 30 8 34
13 2 24 11 26 22 3 15 -1 18 -22 14 -29 -6 -36 8 -8 16 25 8 66 107 49 119 -9
7 -9 10 1 14 6 2 12 15 12 27 0 25 13 43 18 27 2 -6 2 -19 0 -28z m482 17 c12
-8 9 -10 -12 -10 -16 0 -28 5 -28 10 0 13 20 13 40 0z m556 -61 c13 -14 11
-16 -16 -16 -24 0 -29 4 -24 16 4 9 9 27 12 41 l6 25 4 -25 c2 -14 10 -32 18
-41z m-1386 -43 c0 -19 5 -38 10 -41 6 -3 10 -11 10 -16 0 -6 -4 -7 -10 -4 -5
3 -10 1 -10 -4 0 -6 8 -11 18 -11 16 -1 16 -1 0 -14 -12 -8 -18 -27 -18 -50 0
-22 -4 -35 -10 -31 -5 3 -10 19 -10 36 0 30 -9 36 -27 18 -7 -7 -13 -8 -17 0
-4 6 4 13 19 17 18 4 25 13 25 30 0 20 -5 24 -31 24 -17 0 -28 4 -24 10 3 6
17 10 31 10 20 0 24 5 24 30 0 17 5 30 10 30 6 0 10 -15 10 -34z m1545 -36
c-3 -5 1 -10 9 -10 9 0 16 5 16 10 0 6 4 10 9 10 5 0 7 -9 4 -20 -3 -13 -14
-20 -29 -20 -15 0 -24 -6 -24 -16 0 -13 7 -15 30 -10 32 6 34 3 20 -29 -7 -17
-9 -17 -9 -2 -1 9 -5 17 -11 17 -5 0 -10 -8 -10 -17 0 -15 -4 -13 -20 7 -22
28 -26 60 -8 78 15 15 32 16 23 2z m85 -5 c0 -9 9 -15 25 -15 14 0 25 -4 25
-10 0 -5 -8 -10 -17 -10 -10 0 -27 -3 -39 -6 -21 -6 -21 -6 -15 49 2 14 21 7
21 -8z m-340 -20 c0 -8 4 -16 9 -19 16 -10 41 5 41 25 0 10 5 19 10 19 6 0 10
-4 10 -10 0 -5 13 -10 29 -10 31 0 49 -14 31 -25 -5 -3 -10 -1 -10 4 0 6 -12
11 -26 11 -21 0 -24 -4 -19 -20 4 -11 2 -20 -4 -20 -6 0 -11 6 -11 13 -1 6 -9
2 -19 -10 -23 -27 -31 -29 -31 -7 0 14 -3 14 -15 4 -12 -10 -15 -10 -15 4 0 9
-8 16 -20 16 -11 0 -20 5 -20 10 0 6 9 10 20 10 11 0 20 7 20 16 0 8 5 12 10
9 6 -3 10 -12 10 -20z m191 15 c5 0 9 -4 9 -10 0 -14 -13 -12 -36 6 -17 14
-17 15 -1 10 10 -3 23 -6 28 -6z m-1662 -157 c1 -17 7 -34 14 -37 10 -5 10 -7
0 -12 -20 -9 -15 -21 10 -29 l22 -8 -22 -4 c-22 -4 -28 -15 -23 -38 1 -5 1
-61 1 -123 l-1 -115 40 6 c23 3 40 1 40 -5 0 -5 8 -7 19 -3 13 4 20 0 24 -15
4 -17 13 -20 56 -20 28 0 51 -4 51 -10 0 -10 63 -6 93 5 12 5 26 1 40 -12 37
-34 44 -34 39 -2 -3 17 -15 37 -28 46 -13 8 -24 24 -24 34 0 23 20 36 20 12 1
-10 16 -35 34 -57 33 -38 33 -38 64 -22 36 18 68 21 77 6 4 -6 15 -8 26 -5 15
5 17 3 12 -11 -4 -10 0 -22 11 -29 9 -7 16 -17 15 -21 -6 -37 3 -52 33 -56 21
-4 36 0 43 9 15 20 89 -11 104 -44 11 -25 31 -23 31 3 0 8 5 14 11 14 6 0 9
-7 5 -15 -9 -24 26 -18 68 10 20 14 50 25 66 25 17 0 30 5 30 10 0 6 11 10 25
10 15 0 25 -6 25 -14 0 -22 15 -27 44 -16 15 6 28 6 31 0 3 -5 -5 -12 -19 -16
-35 -8 -23 -29 32 -55 25 -13 40 -25 33 -27 -22 -7 -101 33 -101 52 0 3 -11
16 -25 30 -14 14 -25 21 -25 16 0 -5 -16 -6 -35 -3 -34 6 -35 5 -35 -29 0 -33
-2 -35 -35 -36 -19 -1 -37 3 -40 8 -7 11 -36 2 -47 -14 -4 -6 -8 -23 -8 -38 0
-16 -5 -28 -11 -28 -7 0 -8 11 -4 30 5 22 3 30 -7 30 -7 0 -20 5 -28 10 -13 8
-13 11 -1 19 22 14 -24 55 -52 46 -28 -8 -34 -9 -79 -7 -32 2 -37 6 -43 32 -7
32 -19 39 -29 15 -3 -8 -13 -15 -23 -15 -17 1 -17 2 1 15 11 8 16 21 13 30 -4
8 -1 15 5 15 6 0 3 9 -7 20 -10 11 -23 20 -29 19 -6 0 -6 -3 2 -6 25 -10 11
-18 -27 -15 -41 4 -81 -19 -81 -47 0 -10 -14 -2 -37 21 l-38 36 -91 -10 c-98
-12 -144 -6 -144 18 0 8 -6 14 -12 13 -7 -1 -22 -1 -33 1 l-20 1 20 8 c20 8
20 8 -1 15 -12 3 -32 2 -45 -3 l-24 -10 25 -1 c24 -1 24 -1 3 -10 -20 -8 -22
-16 -25 -152 -4 -160 2 -182 53 -196 27 -6 29 -9 16 -20 -13 -11 -21 -8 -51
19 l-36 31 0 163 0 163 -31 11 c-24 8 -43 8 -73 -1 -38 -11 -39 -12 -13 -16
29 -4 37 -28 15 -50 -10 -10 -10 -15 2 -22 10 -7 11 -10 3 -10 -15 0 -17 -36
-3 -45 16 -10 12 -25 -5 -19 -8 4 -15 16 -15 28 0 12 -4 26 -10 32 -6 6 -4 20
5 38 9 16 14 31 11 33 -2 2 -23 -3 -47 -11 -24 -9 -55 -15 -69 -15 -25 0 -25
0 -2 10 66 27 69 29 40 23 -15 -3 -34 -2 -43 3 -14 8 -13 11 5 28 17 16 24 17
40 7 27 -17 50 -15 50 4 0 12 4 14 13 7 6 -5 23 -7 37 -3 14 4 38 2 53 -3 15
-5 31 -7 34 -4 3 3 5 106 5 229 0 123 4 212 8 198 5 -14 8 -39 9 -57z m691
-93 c0 -16 -4 -30 -10 -30 -5 0 -10 14 -10 30 0 17 5 30 10 30 6 0 10 -13 10
-30z m-570 16 c0 -3 -4 -8 -10 -11 -5 -3 -10 -1 -10 4 0 6 5 11 10 11 6 0 10
-2 10 -4z m-30 -16 c0 -5 -6 -10 -14 -10 -8 0 -18 5 -21 10 -3 6 3 10 14 10
12 0 21 -4 21 -10z m4207 -56 c-3 -3 -12 -4 -19 -1 -8 3 -5 6 6 6 11 1 17 -2
13 -5z m996 -1 c-7 -2 -19 -2 -25 0 -7 3 -2 5 12 5 14 0 19 -2 13 -5z m-5598
-123 c-3 -6 -1 -10 4 -10 6 0 11 -4 11 -10 0 -5 -6 -10 -14 -10 -17 0 -29 -41
-16 -54 13 -13 13 -46 0 -46 -5 0 -10 9 -10 21 0 12 -8 23 -20 26 -10 3 -22
14 -25 24 -4 10 -15 19 -26 19 -10 0 -19 5 -19 11 0 6 9 9 19 6 12 -3 22 1 25
9 3 8 17 14 31 14 19 0 25 5 25 23 1 20 2 20 11 4 5 -9 7 -22 4 -27z m-276 0
c5 0 6 -11 3 -25 -5 -29 -17 -33 -26 -7 -3 9 -9 23 -12 31 -5 10 -2 12 10 8
10 -4 21 -7 25 -7z m336 -30 c3 -5 -1 -10 -9 -10 -9 0 -16 5 -16 10 0 6 4 10
9 10 6 0 13 -4 16 -10z m-778 -192 c-3 -7 -5 -2 -5 12 0 14 2 19 5 13 2 -7 2
-19 0 -25z m802 -48 c6 8 13 11 18 7 4 -4 2 -17 -5 -27 -15 -24 -16 -57 -2
-65 6 -3 13 1 17 11 6 16 7 16 19 -1 12 -17 16 -16 51 14 21 18 49 41 62 52
13 11 26 17 30 14 3 -4 -7 -18 -24 -32 -16 -13 -42 -36 -57 -49 -22 -20 -40
-25 -95 -28 -37 -2 -79 -7 -93 -10 -21 -6 -27 -3 -39 24 -10 25 -11 37 -1 60
7 17 19 30 26 30 19 0 18 -7 -6 -32 -23 -26 -24 -27 -5 -52 15 -20 35 -14 35
12 0 14 2 13 13 -3 23 -31 40 -9 33 44 -4 32 -3 41 4 31 9 -13 11 -13 19 0z
m1456 -90 c4 -6 -5 -10 -20 -10 -15 0 -24 4 -20 10 3 6 12 10 20 10 8 0 17 -4
20 -10z m45 -4 c0 -11 -19 -15 -25 -6 -3 5 1 10 9 10 9 0 16 -2 16 -4z m-1227
-203 c-40 -27 -28 -103 16 -103 49 0 67 -11 80 -46 9 -25 17 -34 28 -30 10 4
18 -4 26 -24 8 -21 18 -30 33 -30 16 0 23 -8 28 -30 4 -21 11 -30 26 -30 25 0
27 -17 3 -23 -15 -3 -13 -6 7 -14 14 -6 32 -18 40 -27 9 -12 22 -15 41 -11 15
3 43 3 62 0 29 -6 34 -10 31 -31 -3 -30 12 -32 19 -3 5 20 7 21 23 5 14 -14
19 -15 25 -4 7 10 11 11 17 0 5 -7 16 -10 25 -6 11 4 17 1 17 -7 0 -18 56 -50
75 -43 11 5 15 -2 15 -28 0 -19 -4 -38 -9 -43 -4 -6 -6 -26 -4 -45 4 -30 10
-37 38 -46 27 -9 35 -8 40 3 9 25 35 -10 28 -37 -5 -20 -3 -22 13 -16 10 5 26
10 34 13 19 5 132 -66 124 -78 -2 -5 3 -23 12 -41 10 -18 20 -51 23 -73 5 -34
10 -40 37 -46 35 -7 94 -45 94 -60 0 -5 -10 -14 -22 -19 -18 -7 -19 -9 -5 -9
9 -1 17 -6 17 -12 0 -6 -9 -9 -20 -6 -13 3 -24 -1 -30 -14 -6 -10 -23 -25 -38
-33 -26 -14 -25 -14 31 -11 49 3 57 1 57 -14 0 -17 56 -51 84 -51 7 0 26 -10
41 -22 24 -19 27 -26 22 -67 -3 -25 -9 -56 -12 -68 -5 -17 -2 -25 11 -30 10
-4 19 -2 22 5 2 7 9 12 15 12 7 0 25 7 40 15 15 8 44 17 63 21 33 6 36 9 30
35 -6 33 4 38 21 11 6 -11 28 -27 48 -37 31 -14 39 -15 46 -4 4 7 11 11 14 7
4 -3 -5 -28 -19 -55 -14 -26 -26 -45 -27 -40 -1 4 -2 12 -3 18 -3 31 -125 65
-141 40 -3 -5 -19 -12 -35 -16 -16 -4 -34 -13 -38 -22 -5 -8 -19 -13 -33 -11
-23 3 -24 5 -21 83 3 76 2 81 -20 92 -13 5 -51 23 -85 38 -35 16 -63 32 -63
37 0 4 -18 8 -40 8 -29 0 -40 4 -40 15 0 9 8 19 18 22 20 8 51 43 52 59 0 7 7
15 16 18 15 6 15 8 -1 26 -10 11 -29 20 -42 20 -43 0 -63 18 -63 56 0 19 -9
53 -20 74 -11 22 -17 40 -14 40 4 0 -1 9 -11 20 -10 11 -23 20 -28 20 -6 0
-19 8 -29 17 -15 14 -24 15 -51 6 -18 -6 -47 -11 -66 -11 -30 -1 -33 2 -29 23
4 19 -1 26 -23 34 -21 7 -29 18 -35 45 -6 33 -9 36 -40 36 -32 0 -47 14 -23
22 6 2 -7 12 -31 23 -35 16 -43 17 -50 4 -7 -10 -12 -11 -21 -2 -6 6 -18 9
-25 6 -8 -3 -20 0 -27 5 -8 7 -18 7 -27 2 -17 -10 -100 -2 -115 11 -5 5 -23 9
-41 9 -19 0 -34 6 -38 15 -3 8 -17 20 -31 27 -19 9 -25 19 -25 45 0 26 -4 33
-20 33 -11 0 -20 5 -20 10 0 6 12 10 26 10 19 0 28 7 37 30 7 18 19 30 29 30
10 0 18 7 18 15 0 9 -9 15 -21 15 -12 0 -23 8 -26 20 -3 11 -14 20 -24 20 -11
0 -22 13 -30 35 -13 36 -24 42 -84 47 -27 3 -31 8 -39 46 -11 52 6 92 38 91
21 0 21 0 -1 -16z m97 -225 c0 -7 -5 -20 -10 -28 -8 -12 -10 -9 -10 13 0 15 5
27 10 27 6 0 10 -6 10 -12z m260 -42 c0 -11 -19 -15 -25 -6 -3 5 1 10 9 10 9
0 16 -2 16 -4z m-45 -25 c-8 -13 -35 -15 -35 -2 0 5 8 11 18 13 21 5 26 2 17
-11z m3807 -32 c17 -2 19 -2 53 6 29 6 29 6 10 -10 -11 -9 -19 -21 -17 -26 3
-13 -9 -11 -43 7 -16 8 -40 12 -52 9 -28 -7 -31 11 -3 20 11 3 20 14 21 23 0
12 3 11 9 -5 5 -13 15 -24 22 -24z m-312 -17 c0 -5 9 -18 21 -30 18 -20 18
-24 5 -37 -8 -8 -24 -15 -35 -15 -15 0 -19 -6 -18 -26 1 -19 -3 -27 -15 -29
-19 -3 -25 20 -8 30 20 12 10 26 -17 25 -43 -3 -51 2 -18 9 26 6 30 11 29 38
-1 22 2 30 11 27 7 -3 16 -1 20 5 7 13 25 15 25 3z m641 -49 c1 -16 0 -41 -1
-58 -2 -25 0 -27 13 -16 13 10 16 8 22 -9 9 -28 3 -33 -28 -21 -25 10 -27 8
-32 -27 -12 -69 -13 -71 -58 -74 -42 -3 -42 -3 -45 -46 -2 -32 0 -42 8 -37 7
4 16 1 21 -6 7 -11 12 -12 29 -1 11 7 20 8 20 3 0 -5 12 -11 28 -13 25 -3 27
-6 28 -50 0 -27 -3 -48 -8 -48 -4 0 -8 18 -8 40 l0 40 -40 0 c-41 0 -49 -7
-28 -28 9 -9 8 -16 -5 -30 -9 -10 -17 -23 -17 -29 0 -5 -16 -26 -35 -46 -19
-20 -35 -43 -35 -52 0 -8 -6 -15 -13 -15 -25 0 -14 33 27 77 47 51 52 69 16
65 -20 -3 -23 -1 -13 9 9 9 11 34 6 87 -7 85 3 102 64 102 28 0 33 3 33 24 0
13 3 31 6 39 4 12 0 14 -15 10 -15 -4 -21 -1 -21 12 0 11 5 15 15 11 10 -3 18
1 22 12 3 9 11 23 17 31 6 7 9 26 8 42 -2 16 1 29 7 29 6 0 11 -12 12 -27z
m-924 -45 c-3 -8 -6 -5 -6 6 -1 11 2 17 5 13 3 -3 4 -12 1 -19z m643 -204
c-18 -21 -24 -10 -9 18 8 14 14 18 17 10 2 -7 -2 -19 -8 -28z m450 26 c22 -7
21 -8 -12 -9 -24 -1 -40 -7 -47 -18 -5 -10 -13 -15 -17 -10 -9 8 25 47 40 46
6 -1 22 -5 36 -9z m-450 -70 c0 -11 -4 -20 -10 -20 -5 0 -10 5 -10 10 0 6 -7
10 -15 10 -8 0 -15 5 -15 10 0 6 11 10 25 10 18 0 25 -5 25 -20z m10 -44 c0
-11 -13 -36 -19 -36 -3 0 -12 9 -19 20 -11 18 -10 20 13 20 14 0 25 -2 25 -4z
m-375 -16 c13 11 15 5 15 -46 -1 -53 -2 -57 -15 -41 -14 19 -55 16 -55 -4 0
-5 -4 -9 -10 -9 -5 0 -10 14 -10 30 0 20 5 30 15 30 10 0 15 10 15 26 0 22 2
25 15 14 12 -10 18 -10 30 0z m362 -95 c0 -41 -3 -55 -13 -55 -15 0 -19 46 -8
88 11 39 20 24 21 -33z m-1597 -16 c0 -10 -4 -19 -10 -19 -5 0 -10 12 -10 26
0 14 4 23 10 19 6 -3 10 -15 10 -26z m-510 -281 l0 -162 -37 -38 c-20 -21 -43
-38 -50 -38 -20 0 -16 7 27 46 l40 36 0 159 c0 99 4 159 10 159 6 0 10 -61 10
-162z m44 11 c7 -135 5 -171 -8 -158 -10 10 -18 309 -9 309 6 0 13 -62 17
-151z m2126 126 c0 -20 5 -25 24 -25 22 0 76 -43 76 -61 0 -16 -17 -9 -31 12
-8 11 -30 24 -49 28 -30 6 -35 11 -38 39 -2 18 1 32 7 32 6 0 11 -11 11 -25z
m-2974 -100 c6 -19 8 -35 3 -35 -10 0 -13 8 -24 55 -9 38 5 25 21 -20z m2979
-130 c0 -22 -5 -25 -35 -26 -19 0 -64 -2 -100 -4 -61 -3 -63 -2 -36 12 18 10
40 12 66 8 47 -8 80 1 80 21 0 8 6 14 13 14 6 0 12 -11 12 -25z m-210 -62
c-17 -38 -11 -67 15 -74 14 -4 21 -8 15 -9 -10 -1 73 -30 89 -30 5 0 -8 14
-29 30 -22 17 -31 30 -22 30 8 0 18 11 21 25 4 14 11 25 17 25 6 0 8 -9 4 -22
-12 -38 -11 -43 9 -40 14 3 17 -1 13 -12 -4 -10 -1 -16 8 -16 7 0 17 9 20 20
3 11 11 20 16 20 12 0 11 -10 -5 -39 -8 -14 -12 -31 -9 -39 6 -14 -8 -12 -94
13 -23 7 -44 10 -47 7 -4 -3 -6 -21 -6 -39 0 -31 -3 -34 -24 -31 -31 4 -86
-36 -86 -62 0 -11 -13 -35 -30 -53 -16 -19 -30 -44 -30 -55 0 -12 -5 -24 -10
-27 -7 -4 -9 -24 -5 -48 7 -52 0 -62 -49 -73 -48 -11 -53 -23 -20 -47 19 -14
28 -16 39 -7 16 13 77 10 82 -5 2 -7 -13 -9 -38 -7 -38 4 -41 3 -34 -17 6 -21
-8 -30 -20 -11 -11 18 -22 11 -44 -25 -11 -19 -27 -35 -36 -35 -8 0 -15 -7
-15 -15 0 -8 7 -15 16 -15 8 0 13 -4 10 -9 -3 -5 1 -11 9 -15 23 -8 18 -25 -6
-19 -20 5 -20 4 -9 -18 7 -13 18 -28 24 -32 8 -6 7 -10 -1 -14 -7 -2 -13 -13
-13 -22 0 -24 35 -55 51 -45 9 5 10 1 5 -17 -17 -54 -17 -68 -1 -98 18 -35 34
-36 51 -3 6 13 14 18 20 12 5 -4 26 -12 47 -15 l37 -7 0 46 c0 25 5 46 10 46
6 0 10 -20 10 -45 0 -33 4 -45 15 -45 8 0 15 7 15 16 0 8 4 13 9 10 5 -3 7
-14 4 -25 -3 -13 6 -24 32 -40 28 -16 36 -18 32 -7 -4 9 -2 18 3 21 5 3 12 -7
16 -22 4 -15 11 -34 17 -40 7 -9 5 -13 -7 -13 -9 0 -16 5 -16 10 0 6 -5 10
-10 10 -11 0 -70 39 -81 52 -3 5 -32 11 -66 14 -49 5 -67 3 -93 -12 -31 -19
-32 -19 -46 1 -19 26 -36 89 -28 109 4 10 -2 23 -16 34 -15 12 -23 31 -25 58
-2 21 -10 56 -19 78 -23 52 -18 90 12 94 13 2 26 11 28 20 3 9 9 24 14 33 6
12 3 22 -11 35 -18 16 -20 16 -39 -1 -22 -19 -28 -7 -7 14 10 10 9 14 -4 21
-30 18 -64 48 -58 54 3 3 21 -5 39 -19 35 -26 65 -32 75 -15 3 6 19 10 35 10
74 0 50 79 -45 146 -33 24 -63 43 -67 43 -4 1 -23 18 -43 39 -89 94 -113 114
-160 137 -58 29 -112 71 -103 81 4 3 21 -5 37 -19 16 -13 51 -35 78 -48 26
-13 77 -53 113 -89 90 -90 140 -127 151 -109 6 10 10 7 18 -13 11 -28 49 -60
63 -52 4 3 8 14 8 24 0 11 14 33 30 50 17 17 30 40 30 51 0 12 11 30 25 41 21
17 24 23 13 35 -10 13 -7 14 27 11 36 -3 40 0 43 21 2 13 -4 38 -14 56 -15 28
-16 37 -4 64 7 17 17 31 22 31 6 0 7 -8 3 -17z m435 7 c0 -5 -5 -10 -11 -10
-5 0 -7 5 -4 10 3 6 8 10 11 10 2 0 4 -4 4 -10z m-2359 -28 c-5 -10 -33 -40
-61 -66 -34 -32 -48 -51 -40 -56 8 -5 4 -9 -10 -13 -36 -9 -35 20 2 50 18 15
49 44 68 65 36 40 57 50 41 20z m-463 -19 c-12 -11 -20 -12 -44 -2 l-29 12 30
7 c42 9 61 2 43 -17z m29 -3 c-4 -15 0 -20 15 -20 11 0 16 -4 12 -11 -3 -6
-14 -9 -24 -6 -13 3 -17 0 -13 -9 3 -8 10 -14 15 -14 6 0 8 -12 4 -30 -3 -17
-2 -29 3 -26 5 3 12 -2 16 -11 3 -10 2 -19 -4 -21 -5 -2 -8 -9 -5 -16 4 -10
15 -12 37 -7 18 4 43 4 57 0 39 -11 50 -10 48 4 -2 7 7 11 25 10 15 -1 25 2
22 7 -3 4 3 11 12 15 10 3 19 1 21 -4 2 -6 15 -11 28 -11 18 0 24 -5 24 -22 0
-19 -2 -20 -10 -8 -8 12 -13 13 -29 3 -13 -8 -21 -9 -23 -2 -2 7 -14 6 -33 -2
-17 -7 -43 -14 -60 -16 -16 -3 -34 -8 -40 -13 -8 -7 -81 11 -89 22 -1 1 -10
33 -20 69 -16 61 -20 67 -49 75 l-32 8 33 3 c17 3 32 10 32 17 0 11 19 36 28
36 2 0 2 -9 -1 -20z m2818 -20 c13 0 27 5 30 10 7 11 35 -12 35 -29 0 -6 4
-11 9 -11 11 0 44 -50 37 -57 -3 -3 -32 8 -65 26 -43 22 -61 27 -65 18 -5 -9
-7 -9 -12 2 -5 11 -8 11 -15 0 -11 -18 -21 -6 -13 15 3 9 11 13 16 10 6 -4 8
2 3 15 -3 11 -3 26 2 33 6 9 9 6 11 -9 2 -17 10 -23 27 -23z m-685 -5 c0 -8 7
-15 15 -15 18 0 20 -16 3 -23 -8 -3 -2 -9 14 -15 14 -6 29 -16 34 -23 5 -9 2
-10 -9 -6 -8 3 -32 9 -51 13 -31 5 -36 4 -36 -12 -1 -18 -1 -18 -14 -2 -7 10
-15 16 -18 13 -2 -3 -5 9 -5 25 0 27 2 29 17 15 28 -25 42 -19 35 15 -4 19 -3
30 4 30 6 0 11 -7 11 -15z m-1556 -64 c2 -3 -18 -4 -45 -3 -27 2 -47 7 -45 11
5 8 84 2 90 -8z m36 -11 c0 -11 3 -20 8 -20 4 0 7 -16 8 -35 1 -39 -11 -38
-19 2 -3 16 -8 38 -12 51 -5 14 -3 22 4 22 6 0 11 -9 11 -20z m1960 -22 c0 -6
-7 -5 -15 2 -8 7 -15 17 -15 22 0 6 7 5 15 -2 8 -7 15 -17 15 -22z m178 13
c-7 -11 -16 -17 -20 -14 -10 5 10 33 23 33 5 0 4 -9 -3 -19z m-38 -46 c-7 -9
-15 -13 -17 -11 -7 7 7 26 19 26 6 0 6 -6 -2 -15z m-30 -56 c-7 -11 -14 -19
-16 -16 -7 7 7 37 17 37 6 0 5 -9 -1 -21z m-2353 0 c-14 -8 -22 -8 -30 0 -8 8
-3 11 19 11 25 -1 27 -2 11 -11z m84 -16 c12 -16 12 -17 -1 -7 -8 6 -22 14
-30 17 -13 5 -12 6 1 6 9 1 23 -7 30 -16z m2418 1 c-8 -9 -19 -38 -26 -63 -7
-25 -15 -56 -19 -68 -7 -27 16 -32 40 -8 18 18 26 19 26 2 0 -7 14 -18 32 -25
27 -10 36 -9 66 10 23 14 33 17 30 8 -2 -8 -21 -22 -42 -33 -31 -17 -37 -24
-32 -43 4 -15 2 -24 -5 -24 -7 0 -10 12 -7 30 4 25 1 31 -19 36 -12 4 -29 4
-37 1 -8 -3 -16 -1 -18 5 -3 8 -14 8 -39 -1 -20 -6 -43 -9 -52 -5 -19 7 -23
-11 -6 -21 5 -4 9 -21 7 -38 -3 -29 -1 -32 23 -29 15 1 29 -3 32 -11 3 -9 -6
-13 -32 -14 -50 -2 -66 13 -47 42 13 20 13 25 1 35 -8 6 -19 9 -25 5 -15 -9
-12 3 7 36 17 29 33 38 33 19 0 -5 9 -10 20 -10 25 0 40 48 19 61 -8 5 -20 7
-26 4 -7 -2 -13 2 -13 10 0 18 1 18 34 5 23 -8 26 -7 32 18 11 51 26 82 41 82
13 0 13 -2 2 -16z m-1654 -4 c-3 -5 4 -11 15 -15 11 -3 20 -13 20 -21 0 -8 -5
-12 -10 -9 -6 4 -18 1 -27 -7 -14 -11 -15 -10 -9 8 9 28 -29 40 -60 19 -18
-11 -34 -12 -84 -4 l-63 10 -42 -45 c-41 -42 -46 -44 -87 -40 -23 3 -52 7 -62
9 -11 2 -32 -5 -48 -16 -15 -11 -28 -16 -28 -10 0 6 11 18 25 27 20 13 40 16
89 11 68 -6 65 -7 124 57 16 17 31 24 45 22 71 -15 107 -16 107 -4 0 9 17 14
50 15 27 0 48 -3 45 -7z m1486 -53 c-8 -8 -11 -5 -11 9 0 27 14 41 18 19 2 -9
-1 -22 -7 -28z m-2193 -2 c-3 -3 -9 2 -12 12 -6 14 -5 15 5 6 7 -7 10 -15 7
-18z m115 -30 c-3 -9 -8 -14 -10 -11 -3 3 -2 9 2 15 9 16 15 13 8 -4z m2073
-22 c-11 -11 -19 6 -11 24 8 17 8 17 12 0 3 -10 2 -21 -1 -24z m-2191 -25
c-10 -36 -38 -99 -42 -95 -4 5 38 117 44 117 2 0 2 -10 -2 -22z m145 -10 c0
-6 -7 -5 -15 2 -8 7 -15 17 -15 22 0 6 7 5 15 -2 8 -7 15 -17 15 -22z m1368
-4 c-10 -10 -28 6 -28 24 0 15 1 15 17 -1 9 -9 14 -19 11 -23z m37 -22 c-8 -8
-25 10 -25 27 0 30 14 34 22 5 4 -16 6 -30 3 -32z m-125 33 c14 -16 10 -18
-14 -9 -9 3 -16 10 -16 15 0 14 16 11 30 -6z m766 -32 c-11 -11 -19 6 -11 24
8 17 8 17 12 0 3 -10 2 -21 -1 -24z m-1356 -72 c0 -90 2 -102 23 -124 21 -23
25 -23 127 -16 162 11 453 10 465 -2 7 -7 -50 -10 -178 -8 -103 1 -189 0 -192
-2 -2 -3 -5 -25 -7 -51 -2 -28 -7 -44 -14 -41 -7 3 -10 20 -7 46 l5 42 -94 -3
c-82 -3 -97 -1 -118 16 -23 19 -25 28 -28 131 -3 77 -1 111 7 111 7 0 11 -33
11 -99z m630 69 c-32 -25 -43 -25 -30 0 6 11 21 20 33 20 22 0 22 -1 -3 -20z
m-1225 0 c3 -6 -1 -7 -9 -4 -18 7 -21 14 -7 14 6 0 13 -4 16 -10z m1950 -49
c-3 -12 -11 -21 -16 -21 -6 0 -8 3 -6 8 2 4 7 16 11 26 9 25 20 13 11 -13z
m-1724 -2 c24 -12 79 -86 79 -106 0 -7 -4 -13 -10 -13 -5 0 -10 5 -10 12 0 14
-61 96 -77 102 -6 3 -26 1 -45 -4 -18 -5 -45 -12 -60 -15 -27 -5 -26 -7 52
-81 51 -49 89 -95 106 -130 14 -30 33 -54 40 -54 11 0 14 -11 12 -36 -3 -52
28 -76 77 -61 29 8 38 7 53 -6 10 -10 26 -17 35 -17 9 0 17 -4 17 -10 0 -12
-29 -2 -52 18 -25 21 -71 8 -63 -18 4 -12 2 -20 -4 -20 -6 0 -11 4 -11 9 0 5
-12 18 -27 29 l-28 20 3 -43 c2 -23 -3 -70 -12 -105 -9 -34 -16 -62 -16 -63 0
-1 18 -1 40 -1 28 2 43 -3 49 -14 7 -13 9 -10 8 11 -1 15 -6 27 -11 27 -4 0
-6 7 -2 15 4 11 -1 15 -19 15 -14 0 -25 5 -25 10 0 6 12 10 26 10 21 0 24 4
19 20 -4 11 -2 20 4 20 6 0 11 -4 11 -10 0 -14 33 -12 49 3 11 10 14 10 18 0
3 -7 12 -13 20 -13 9 0 13 -6 9 -15 -3 -9 0 -15 9 -15 8 0 15 5 15 10 0 6 5
10 10 10 6 0 10 -10 10 -23 0 -24 26 -52 57 -60 12 -3 9 -5 -9 -6 -16 0 -28 4
-28 10 0 23 -20 -4 -21 -29 -1 -31 -5 -22 -13 29 -5 30 -11 37 -29 36 -12 0
-30 3 -39 7 -13 6 -18 4 -18 -8 0 -9 -4 -16 -9 -16 -5 0 -8 -16 -5 -35 2 -21
0 -35 -7 -35 -7 0 -10 -23 -7 -65 l3 -66 -57 -59 c-31 -33 -62 -60 -68 -60
-19 0 -50 83 -50 136 0 27 11 88 25 135 18 62 25 108 25 175 0 91 -21 184 -42
184 -6 0 -8 6 -5 13 7 19 -25 53 -117 127 -97 77 -114 79 -170 16 -45 -49 -56
-55 -56 -31 0 8 6 15 14 15 8 0 25 13 38 29 13 15 37 37 54 47 16 10 32 23 36
28 3 5 33 9 65 8 32 -2 65 2 73 8 19 13 37 13 61 -1z m959 -4 c0 -7 -7 -18
-16 -23 -11 -6 -13 -11 -5 -16 6 -4 11 -12 11 -19 0 -8 -3 -8 -12 1 -17 17
-39 15 -54 -5 -10 -13 -13 -14 -14 -4 0 8 -8 20 -17 28 -17 13 -16 14 5 10 28
-7 82 13 82 30 0 7 5 13 10 13 6 0 10 -7 10 -15z m-1360 -99 c19 -17 26 -26
15 -22 -11 5 -34 12 -52 16 -31 7 -32 7 -38 -31 -4 -22 -12 -39 -20 -39 -7 0
-18 -7 -25 -15 -7 -8 -21 -15 -31 -15 -24 0 -76 68 -54 70 2 1 20 7 40 16 19
8 35 10 35 5 0 -5 -9 -12 -19 -16 -21 -6 -34 -31 -25 -46 9 -15 37 -10 62 10
17 15 22 30 22 70 l0 51 28 -12 c15 -7 43 -26 62 -42z m2900 44 c0 -5 7 -10
16 -10 23 0 11 -24 -13 -28 -16 -2 -20 2 -20 22 0 15 3 26 8 26 5 0 9 -4 9
-10z m-1420 -31 c-7 -11 -14 -18 -17 -15 -8 8 5 36 17 36 7 0 7 -6 0 -21z
m-1460 -54 c33 10 23 -11 -12 -26 -24 -10 -33 -10 -36 -1 -2 7 -11 12 -20 12
-15 1 -14 3 2 15 14 11 23 12 32 4 7 -6 22 -8 34 -4z m1443 -5 c-3 -11 -9 -20
-14 -20 -11 0 -11 3 -3 24 9 23 23 20 17 -4z m329 -24 c-18 -37 -27 -38 -35
-6 -3 14 -1 20 6 17 7 -2 18 2 25 10 22 21 23 15 4 -21z m-1326 -4 c-17 -16
-18 -16 -5 5 7 12 15 20 18 17 3 -2 -3 -12 -13 -22z m-1122 -37 c-19 -45 -18
-65 4 -82 16 -13 16 -14 -2 -11 -29 5 -39 48 -21 91 8 20 19 37 25 37 5 0 2
-16 -6 -35z m2946 -6 c0 -6 7 -8 16 -5 11 4 15 2 11 -8 -6 -16 12 -26 49 -26
13 0 24 -6 24 -13 0 -9 -14 -13 -40 -12 -25 0 -40 5 -40 13 0 6 -8 12 -17 12
-12 0 -18 8 -19 25 -1 14 2 25 7 25 5 0 9 -5 9 -11z m-510 -26 c0 -20 -3 -24
-11 -16 -7 7 -9 19 -6 27 10 24 17 19 17 -11z m860 -72 c0 -5 9 -12 19 -16 10
-3 22 -16 25 -28 3 -13 18 -28 33 -34 24 -9 20 -10 -33 -9 -58 1 -60 2 -56 25
3 15 -1 27 -12 33 -9 5 -16 15 -16 23 0 8 -6 12 -14 9 -8 -3 -16 3 -19 16 -4
16 -11 20 -30 16 -29 -5 -41 3 -44 27 -1 15 4 18 24 14 14 -3 27 1 29 8 5 13
94 -66 94 -84z m315 69 c4 -16 11 -30 16 -30 14 0 11 -28 -3 -33 -10 -3 -9
-12 5 -35 10 -18 19 -58 21 -99 2 -37 7 -80 11 -94 5 -20 1 -32 -16 -48 -13
-11 -30 -21 -39 -21 -10 0 -38 -11 -64 -25 -52 -28 -56 -29 -56 -16 0 8 46 33
124 65 37 16 38 18 31 54 -4 20 -9 63 -10 95 -2 64 -24 102 -47 79 -16 -16
-53 -15 -65 1 -8 9 -11 101 -4 128 0 3 21 6 45 8 42 2 45 0 51 -29z m-3700 10
c3 -5 -3 -10 -14 -10 -11 0 -23 5 -26 10 -3 6 3 10 14 10 11 0 23 -4 26 -10z
m46 -26 c12 -14 11 -16 -5 -13 -11 2 -21 10 -24 17 -5 17 13 15 29 -4z m2479
-41 c0 -20 -3 -24 -11 -16 -7 7 -9 19 -6 27 10 24 17 19 17 -11z m-790 -8 c0
-32 -84 -85 -136 -85 -6 0 -30 -14 -52 -30 -43 -31 -55 -30 -27 0 14 16 14 18
-5 23 -16 4 -20 0 -20 -18 0 -13 -5 -27 -12 -31 -8 -5 -9 3 -5 29 6 39 -2 47
-23 22 -7 -8 -18 -15 -24 -15 -6 0 2 12 17 25 27 24 29 24 59 9 25 -13 38 -14
67 -5 20 5 47 13 61 17 35 9 80 43 80 60 0 8 5 14 10 14 6 0 10 -7 10 -15z
m-1595 -13 c6 -4 26 -36 44 -72 19 -36 42 -79 52 -96 30 -55 36 -67 71 -145
35 -80 83 -144 114 -152 14 -3 11 -5 -8 -6 -20 -1 -35 9 -60 42 -36 44 -98
166 -98 191 0 8 -4 17 -9 21 -6 3 -31 47 -57 98 -25 50 -53 100 -62 110 -15
17 -6 23 13 9z m2381 -49 c-11 -11 -19 6 -11 24 8 17 8 17 12 0 3 -10 2 -21
-1 -24z m442 -16 c8 -9 3 -18 -19 -32 -16 -11 -29 -25 -29 -31 0 -23 28 -22
51 2 23 24 49 32 49 14 0 -5 -6 -10 -14 -10 -14 0 -46 -36 -46 -52 0 -13 22
-9 41 8 10 9 26 14 36 11 16 -4 16 -6 -4 -12 -12 -4 -24 -13 -27 -21 -3 -8
-12 -14 -20 -14 -21 0 -30 -19 -16 -35 10 -13 8 -15 -13 -15 -30 0 -48 -37
-26 -51 12 -8 12 -10 0 -18 -7 -5 -11 -13 -7 -19 4 -6 -4 -20 -16 -32 -14 -12
-24 -16 -26 -10 -2 6 4 17 14 24 16 13 17 15 2 37 -13 21 -13 26 -2 37 8 7 14
20 14 29 0 12 -7 14 -37 8 -21 -4 -51 -9 -66 -10 -15 -1 -33 -7 -39 -13 -14
-14 -32 -16 -24 -3 3 5 -1 11 -9 15 -8 3 -15 12 -15 21 0 17 16 20 25 5 8 -13
65 -13 121 1 44 11 55 22 32 33 -10 4 -10 7 -1 12 18 8 0 58 -23 60 -10 0 -37
1 -60 2 -30 2 -41 6 -41 18 0 16 24 16 85 -2 16 -5 22 -2 22 10 0 9 5 16 10
16 6 0 10 -4 10 -9 0 -5 9 -7 20 -4 10 3 19 8 18 12 -4 31 12 41 30 18z
m-3201 -194 c-3 -10 -8 -34 -11 -53 l-6 -36 -91 -12 c-101 -14 -119 -21 -142
-55 -17 -26 -20 -46 -18 -129 1 -48 4 -58 19 -58 28 -1 52 -23 37 -36 -9 -9
-15 -7 -23 7 -7 11 -19 19 -27 19 -22 0 -18 -33 6 -48 27 -17 17 -27 -11 -12
-32 17 -40 0 -40 -94 0 -59 3 -77 13 -73 6 3 19 8 28 12 10 4 19 0 22 -9 5
-11 0 -16 -15 -16 -32 0 -2 -30 31 -31 24 0 25 -1 5 -9 -20 -8 -22 -15 -19
-75 2 -61 -7 -91 -18 -63 -3 7 -6 3 -6 -9 -1 -13 -6 -23 -12 -23 -7 0 -9 10
-7 25 4 20 1 25 -16 26 -20 1 -20 2 -1 6 44 10 46 12 35 33 -8 15 -8 25 -1 34
8 10 7 17 -4 26 -8 7 -15 18 -15 25 0 25 -50 4 -56 -24 -10 -40 -24 -54 -40
-40 -16 13 -19 49 -4 49 6 0 10 -7 10 -15 0 -8 5 -15 10 -15 6 0 10 9 10 21 0
19 -5 20 -62 19 -135 -3 -179 0 -172 11 5 8 31 10 83 6 84 -6 168 5 139 18
-19 8 -25 25 -9 25 5 0 16 -7 25 -15 16 -16 30 -20 22 -6 -4 5 0 12 6 14 10 4
10 7 1 14 -7 5 -11 29 -10 61 l3 53 -43 -5 c-43 -4 -43 -4 -43 29 0 41 21 59
60 51 23 -4 36 0 51 15 16 16 18 23 9 29 -9 6 -9 12 0 29 9 17 9 26 -1 37 -10
12 -10 20 -1 35 7 10 8 19 3 19 -5 0 -7 9 -4 20 3 11 10 20 15 20 5 0 6 5 3
10 -8 13 14 42 26 34 5 -3 9 4 9 15 0 12 5 21 10 21 7 0 7 6 0 19 -12 24 -13
41 -1 41 5 0 12 -10 16 -22 8 -22 8 -22 12 5 2 15 10 27 17 27 6 0 12 -12 11
-27 0 -27 2 -28 54 -31 86 -5 98 1 105 53 4 25 12 45 17 45 6 0 8 -8 6 -17z
m183 -18 c94 -26 130 -31 130 -16 0 5 8 12 18 16 13 5 14 3 5 -6 -6 -6 -9 -18
-6 -27 6 -13 -2 -14 -53 -8 -32 3 -84 15 -114 26 -30 11 -63 19 -72 20 -19 0
-26 20 -7 20 5 0 50 -11 99 -25z m3360 -80 c0 -14 11 -19 38 -16 18 3 15 -5
-14 -34 -21 -21 -24 -28 -13 -41 23 -28 68 -44 123 -44 45 0 58 4 70 22 l16
22 0 -26 c0 -21 -6 -27 -34 -32 -27 -5 -35 -12 -39 -35 -12 -60 -139 -130
-169 -94 -6 7 -7 17 -3 21 4 4 10 2 12 -4 3 -8 15 -9 39 -4 39 9 64 26 64 45
0 7 9 15 20 18 11 3 20 14 20 24 0 14 -12 22 -47 31 -27 8 -58 14 -71 15 -16
1 -22 7 -19 19 3 9 -6 27 -19 39 -29 27 -29 33 -6 64 20 28 32 32 32 10z
m-616 -51 c9 -24 7 -28 -9 -14 -17 14 -20 30 -6 30 5 0 12 -7 15 -16z m161 -4
c-3 -5 -14 -10 -23 -10 -15 0 -15 2 -2 10 20 13 33 13 25 0z m85 -32 c0 -9 -4
-20 -10 -23 -5 -3 -9 9 -8 30 1 35 18 29 18 -7z m-37 17 c-3 -9 -8 -14 -10
-11 -3 3 -2 9 2 15 9 16 15 13 8 -4z m-93 -2 c0 -5 -3 -18 -6 -31 -5 -18 -9
-20 -20 -11 -17 14 -18 36 -1 42 19 8 27 8 27 0z m33 -50 c-22 -17 -33 -16
-33 1 0 9 10 13 25 12 23 -1 24 -2 8 -13z m127 -19 c0 -8 -4 -14 -10 -14 -5 0
-10 9 -10 21 0 11 5 17 10 14 6 -3 10 -13 10 -21z m-46 -21 c14 -17 16 -23 5
-23 -25 0 -40 16 -33 34 4 9 7 16 8 14 1 -2 10 -13 20 -25z m172 -12 c-12 -19
-24 -12 -19 10 4 13 9 17 15 11 6 -6 7 -15 4 -21z m-226 12 c0 -13 -50 -32
-66 -26 -8 3 -14 -1 -14 -11 0 -10 -8 -16 -22 -16 -20 0 -19 2 7 24 16 14 32
23 37 20 4 -3 8 0 8 5 0 6 11 11 25 11 14 0 25 -3 25 -7z m190 -8 c-7 -8 -17
-15 -22 -15 -6 0 -5 7 2 15 7 8 17 15 22 15 6 0 5 -7 -2 -15z m-316 -29 c-3
-9 -10 -13 -16 -10 -5 3 -4 12 3 20 15 18 22 13 13 -10z m234 3 c12 -18 11
-20 -5 -17 -10 2 -19 11 -21 21 -5 23 10 21 26 -4z m52 -9 c0 -5 -4 -10 -10
-10 -5 0 -10 5 -10 10 0 6 5 10 10 10 6 0 10 -4 10 -10z m40 0 c0 -5 -5 -10
-11 -10 -5 0 -7 5 -4 10 3 6 8 10 11 10 2 0 4 -4 4 -10z m-45 -41 c12 -19 -5
-23 -22 -6 -16 16 -16 17 -1 17 9 0 20 -5 23 -11z m33 -41 c19 -19 14 -30 -8
-18 -11 6 -20 15 -20 20 0 14 14 12 28 -2z m-2318 -243 c10 -12 10 -15 -4 -15
-9 0 -16 -5 -16 -11 0 -5 9 -9 20 -7 10 2 19 0 20 -4 2 -38 -1 -47 -15 -42 -8
4 -12 11 -9 16 5 7 -5 9 -25 6 -30 -4 -41 4 -21 17 6 3 7 17 4 31 -5 19 -2 24
14 24 11 0 25 -7 32 -15z m-1379 -105 c59 4 69 2 69 -11 0 -6 -9 -9 -20 -6
-18 5 -20 0 -20 -42 0 -46 -1 -48 -30 -49 -16 0 -32 4 -35 9 -4 5 -14 5 -26
-2 -24 -12 -38 -4 -22 12 6 6 30 11 52 11 39 -1 41 1 41 30 0 29 -1 30 -37 24
-45 -7 -145 -7 -152 0 -10 10 24 23 45 18 12 -3 35 1 50 9 19 10 31 12 35 5 4
-5 26 -9 50 -8z m209 10 c0 -5 37 -11 83 -12 l82 -3 -53 -9 c-51 -8 -53 -10
-48 -37 2 -16 0 -29 -5 -29 -5 0 -9 5 -9 10 0 6 -16 10 -35 10 -32 0 -35 2
-29 24 3 13 1 27 -5 31 -6 3 -9 11 -6 16 8 12 25 12 25 -1z m-40 -97 c0 -20
-3 -24 -11 -16 -7 7 -9 19 -6 27 10 24 17 19 17 -11z m886 12 c14 -13 13 -15
-10 -15 -18 0 -24 4 -20 15 4 8 8 15 11 15 2 0 11 -7 19 -15z m-917 -32 c0
-16 -3 -22 -6 -15 -2 6 -11 12 -19 12 -20 0 -17 18 4 23 9 3 18 5 20 6 1 0 2
-11 1 -26z m959 15 c-2 -6 -10 -14 -16 -16 -7 -2 -10 2 -6 12 7 18 28 22 22 4z
m-52 -22 c10 -8 16 -18 11 -22 -8 -8 -57 15 -57 28 0 13 24 9 46 -6z m-880
-31 c-3 -9 -11 -13 -16 -10 -8 5 -7 11 1 21 14 18 24 11 15 -11z m3584 -448
c0 -1 -24 -25 -52 -52 l-53 -50 50 53 c46 48 55 57 55 49z"/>
<path d="M3292 5643 c2 -10 10 -18 18 -18 8 0 16 8 18 18 2 12 -3 17 -18 17
-15 0 -20 -5 -18 -17z"/>
<path d="M3390 4720 c-12 -8 -11 -10 8 -10 12 0 22 5 22 10 0 13 -11 13 -30 0z"/>
<path d="M2136 5001 c-4 -7 -5 -15 -2 -18 9 -9 19 4 14 18 -4 11 -6 11 -12 0z"/>
<path d="M2700 4151 c0 -5 -3 -16 -6 -24 -4 -12 0 -14 15 -10 33 8 25 -14 -9
-26 -16 -5 -30 -17 -30 -25 0 -16 77 -66 101 -66 8 0 -5 12 -28 26 -24 14 -43
32 -43 40 0 21 18 17 30 -6 6 -11 15 -18 19 -16 5 3 16 -3 26 -14 9 -10 22
-16 29 -14 7 3 19 -3 27 -12 12 -15 12 -16 -9 -10 -13 5 -22 3 -22 -3 0 -6 20
-11 45 -11 25 0 45 5 45 10 0 6 -6 10 -13 8 -22 -5 -67 38 -67 65 0 18 -8 30
-27 39 -16 7 -29 23 -31 36 -3 16 -10 22 -28 22 -13 0 -24 -4 -24 -9z"/>
<path d="M2830 4053 c0 -23 22 -25 43 -4 l21 21 -32 -3 c-18 -1 -32 -7 -32
-14z"/>
<path d="M2902 4052 c-9 -15 -10 -28 -3 -40 9 -16 10 -16 16 0 4 9 5 27 3 40
l-3 23 -13 -23z"/>
<path d="M2985 4023 c-20 -5 -44 -31 -45 -46 0 -5 21 -8 48 -7 64 3 64 3 106
-25 38 -26 66 -24 66 5 0 18 -27 31 -70 34 -14 0 -35 11 -47 24 -13 12 -26 21
-30 21 -5 -1 -17 -4 -28 -6z"/>
<path d="M3230 3790 c0 -5 5 -10 10 -10 6 0 10 5 10 10 0 6 -4 10 -10 10 -5 0
-10 -4 -10 -10z"/>
<path d="M3935 3200 c-3 -5 1 -10 10 -10 9 0 13 5 10 10 -3 6 -8 10 -10 10 -2
0 -7 -4 -10 -10z"/>
<path d="M3985 3170 c3 -5 11 -10 16 -10 6 0 7 5 4 10 -3 6 -11 10 -16 10 -6
0 -7 -4 -4 -10z"/>
<path d="M6314 4075 c-4 -10 -1 -21 7 -26 23 -14 31 -10 27 13 -4 27 -26 35
-34 13z"/>
<path d="M6870 3710 c0 -13 18 -22 24 -11 3 5 -1 11 -9 15 -8 3 -15 1 -15 -4z"/>
<path d="M6330 3680 c-13 -8 -12 -10 3 -10 9 0 17 5 17 10 0 12 -1 12 -20 0z"/>
<path d="M7046 3076 c21 -15 30 -14 19 3 -3 6 -14 11 -23 11 -13 0 -13 -2 4
-14z"/>
<path d="M4950 2639 c0 -5 5 -7 10 -4 6 3 10 8 10 11 0 2 -4 4 -10 4 -5 0 -10
-5 -10 -11z"/>
<path d="M5000 2596 c0 -2 8 -10 18 -17 15 -13 16 -12 3 4 -13 16 -21 21 -21
13z"/>
<path d="M5211 2354 c0 -11 3 -14 6 -6 3 7 2 16 -1 19 -3 4 -6 -2 -5 -13z"/>
<path d="M5347 2149 c7 -7 15 -10 18 -7 3 3 -2 9 -12 12 -14 6 -15 5 -6 -5z"/>
<path d="M5186 2028 c-30 -50 -28 -177 5 -212 4 -5 28 12 53 40 44 47 45 51
46 113 0 50 -3 61 -12 53 -14 -11 -43 10 -31 22 4 3 -6 6 -20 6 -17 0 -32 -8
-41 -22z"/>
<path d="M4677 2589 c7 -7 15 -10 18 -7 3 3 -2 9 -12 12 -14 6 -15 5 -6 -5z"/>
<path d="M7386 2305 c4 -8 10 -15 15 -15 4 0 6 7 3 15 -4 8 -10 15 -15 15 -4
0 -6 -7 -3 -15z"/>
<path d="M7620 2409 c0 -11 27 -12 34 -1 2 4 -4 9 -15 9 -10 1 -19 -2 -19 -8z"/>
<path d="M7620 2345 c0 -27 26 -35 48 -13 21 21 13 38 -18 38 -25 0 -30 -4
-30 -25z"/>
<path d="M6920 2139 c0 -11 5 -17 10 -14 6 3 10 13 10 21 0 8 -4 14 -10 14 -5
0 -10 -9 -10 -21z"/>
<path d="M3376 1675 c-6 -18 16 -30 39 -21 8 3 15 12 15 21 0 20 -46 20 -54 0z"/>
<path d="M7272 1948 c6 -18 28 -21 28 -4 0 9 -7 16 -16 16 -9 0 -14 -5 -12
-12z"/>
<path d="M3578 1318 c9 -9 15 -9 24 0 9 9 7 12 -12 12 -19 0 -21 -3 -12 -12z"/>
</g>
</svg>
