<?xml version="1.0" standalone="no"?>
<!DOCTYPE svg PUBLIC "-//W3C//DTD SVG 20010904//EN"
 "http://www.w3.org/TR/2001/REC-SVG-20010904/DTD/svg10.dtd">
<svg version="1.0" xmlns="http://www.w3.org/2000/svg"
 width="800.000000pt" height="800.000000pt" viewBox="0 0 800.000000 800.000000"
 preserveAspectRatio="xMidYMid meet">
<metadata>
Created by potrace 1.16, written by Peter Selinger 2001-2019
</metadata>
<g transform="translate(0.000000,800.000000) scale(0.100000,-0.100000)"
fill="#000000" stroke="none">
<path d="M0 7375 l0 -625 28 -5 c15 -3 57 -12 94 -21 37 -8 71 -13 76 -10 4 2
8 -4 9 -14 1 -11 -3 -23 -9 -26 -6 -4 -8 -2 -4 4 8 13 -48 27 -65 16 -7 -4 -9
-3 -5 4 4 7 -7 13 -31 17 -21 3 -50 8 -65 10 l-28 5 0 -170 c0 -164 1 -171 23
-190 12 -12 30 -28 40 -37 9 -9 20 -34 23 -55 4 -21 13 -43 20 -49 8 -6 14
-26 14 -45 0 -30 3 -34 38 -39 70 -12 152 -38 152 -47 0 -6 -6 -8 -13 -5 -6 2
-37 10 -67 17 -30 7 -68 16 -84 21 -34 11 -32 12 -40 -27 -6 -27 -2 -36 23
-60 17 -16 31 -34 31 -40 0 -6 9 -23 20 -37 14 -17 17 -28 10 -32 -6 -4 -12
-5 -13 -4 -1 2 -8 14 -14 26 -7 13 -13 28 -13 34 0 16 -48 59 -66 59 -7 0 -14
5 -14 10 0 6 4 10 9 10 15 0 30 133 17 150 -22 29 -36 60 -36 78 0 18 -19 40
-47 56 -10 6 -13 -644 -13 -3173 l0 -3181 4000 0 4000 0 0 4000 0 4000 -4000
0 -4000 0 0 -625z m345 -1084 c-5 -32 -2 -46 16 -71 20 -26 21 -34 11 -48 -7
-9 -15 -25 -18 -34 -7 -20 -34 -33 -34 -16 0 7 9 21 20 33 l20 22 -24 27 c-24
28 -24 44 -1 114 10 28 16 9 10 -27z m62 -18 c-3 -10 -5 -4 -5 12 0 17 2 24 5
18 2 -7 2 -21 0 -30z m-264 14 c5 -14 82 -41 95 -33 4 2 19 -4 32 -15 20 -14
21 -19 8 -19 -9 0 -20 4 -23 10 -3 5 -16 9 -28 9 -28 -2 -89 25 -107 45 -10
13 -10 16 3 16 8 0 17 -6 20 -13z m2024 -173 c-3 -3 -12 -4 -19 -1 -8 3 -5 6
6 6 11 1 17 -2 13 -5z m-1935 -225 c36 -26 31 -35 -8 -13 -39 22 -79 6 -101
-40 -9 -19 -20 -33 -25 -30 -12 8 32 79 56 91 32 16 45 15 78 -8z m-65 -71
c-2 -7 8 -24 22 -37 16 -14 19 -21 9 -18 -9 3 -22 -1 -29 -10 -12 -13 -14 -12
-20 11 -8 30 -1 66 13 66 5 0 8 -6 5 -12z m4028 -928 l-15 -45 6 44 c5 46 15
72 21 55 2 -5 -4 -29 -12 -54z m-1153 -97 c-3 -16 -14 -36 -26 -46 l-20 -18
31 -24 c24 -19 29 -30 25 -50 -3 -18 3 -36 17 -55 11 -16 21 -38 21 -49 0 -11
5 -23 10 -26 6 -4 8 -15 5 -26 -4 -13 -2 -19 9 -19 9 0 16 5 16 10 0 6 5 10
10 10 22 0 8 -22 -20 -33 -33 -13 -39 -28 -29 -74 5 -23 3 -33 -5 -33 -18 0
-39 -51 -27 -63 12 -12 -3 -63 -25 -88 -15 -17 -14 -18 21 -25 29 -5 39 -3 50
12 17 22 20 11 4 -18 -11 -20 -21 -20 -83 -2 -16 5 -17 2 -11 -24 7 -36 -12
-148 -31 -179 -7 -11 -29 -26 -49 -33 -41 -14 -55 -35 -55 -84 0 -24 5 -36 14
-36 8 0 17 -7 20 -16 5 -12 2 -15 -10 -10 -8 3 -22 -1 -30 -8 -12 -13 -18 -13
-42 1 -27 16 -30 15 -85 -20 -48 -31 -66 -37 -113 -37 -30 0 -65 -5 -76 -11
-13 -7 -24 -7 -30 -1 -11 11 13 17 107 28 33 3 67 12 75 19 34 29 96 51 122
44 25 -7 26 -5 33 49 6 47 4 58 -11 69 -10 7 -14 14 -8 14 24 3 31 5 67 19 42
16 43 19 22 60 -14 28 -14 30 20 66 33 34 34 38 19 55 -14 16 -14 20 3 46 10
15 23 33 28 38 6 6 17 23 23 38 11 26 10 29 -8 34 -25 7 -25 11 3 37 12 11 28
41 35 65 8 23 16 49 19 57 3 9 -2 14 -13 14 -16 0 -16 3 6 21 17 14 21 22 13
26 -7 2 -13 17 -13 32 0 15 -9 35 -21 45 -17 14 -20 24 -15 51 6 29 3 36 -24
55 -35 25 -38 45 -10 60 12 6 20 21 20 35 0 14 6 25 14 25 9 0 12 -8 8 -27z
m1523 -23 c-3 -5 -11 -10 -16 -10 -6 0 -7 5 -4 10 3 6 11 10 16 10 6 0 7 -4 4
-10z m-1041 -39 c-9 -10 -26 18 -18 30 5 9 9 8 14 -7 4 -10 6 -21 4 -23z
m1039 -1 c3 -11 -2 -25 -11 -32 -13 -11 -15 -10 -9 4 3 10 2 20 -4 23 -10 7
-3 25 10 25 5 0 11 -9 14 -20z m-1007 -28 c16 -10 28 -52 15 -52 -6 0 -8 -7
-5 -15 4 -10 0 -15 -15 -15 -24 0 -25 1 -9 35 10 22 9 27 -8 40 -14 11 -15 14
-4 15 8 0 20 -4 26 -8z m964 -12 c0 -5 -5 -10 -11 -10 -7 0 -9 -9 -5 -23 4
-19 0 -26 -19 -35 -15 -7 -25 -20 -25 -32 0 -18 6 -20 58 -19 103 1 162 -3
162 -12 0 -5 -13 -9 -30 -9 -17 0 -34 -7 -40 -17 -10 -16 -11 -16 -7 3 4 21 1
21 -90 20 -86 -1 -94 -3 -89 -19 5 -18 -27 -60 -38 -50 -3 3 -12 0 -21 -7 -9
-7 -18 -10 -22 -6 -4 3 1 12 11 19 24 17 12 67 -16 67 -11 0 -28 4 -38 10 -20
11 -46 12 -140 6 -84 -6 -103 -10 -108 -24 -2 -7 -8 -12 -14 -12 -6 0 -6 6 2
15 11 13 6 15 -34 15 -25 0 -46 4 -46 9 0 5 19 8 43 7 23 -1 94 2 157 6 74 6
122 5 135 -1 11 -6 31 -11 45 -13 18 -2 28 -12 35 -34 12 -36 38 -35 29 1 -5
19 -1 24 18 27 18 2 24 10 26 36 2 18 9 32 16 32 8 0 16 14 20 30 5 27 36 44
36 20z m-613 -75 c2 -6 -31 -10 -85 -11 -93 -1 -159 -17 -179 -43 -19 -24 -16
-28 20 -25 l32 3 -27 -11 c-23 -10 -27 -17 -25 -45 1 -20 7 -33 16 -33 8 0 11
-6 7 -16 -3 -9 -6 -22 -6 -30 0 -8 -7 -14 -15 -14 -8 0 -15 -8 -16 -17 0 -10
-2 -30 -4 -44 -3 -24 0 -27 33 -31 20 -3 38 -1 40 3 2 5 25 -2 50 -15 26 -13
71 -31 100 -40 28 -10 52 -22 52 -27 0 -13 1 -13 -81 22 -45 19 -97 33 -134
36 -33 2 -66 10 -75 17 -19 16 -184 51 -199 42 -6 -4 -11 -22 -11 -39 0 -25
-6 -36 -27 -49 -25 -14 -36 -14 -113 -1 -84 15 -157 42 -132 51 7 2 18 -1 25
-6 22 -19 184 -44 206 -33 22 12 36 60 26 91 -5 15 -3 18 9 14 22 -8 32 42 16
80 -6 17 -15 47 -19 66 -5 27 -12 36 -31 38 -13 2 -29 -2 -34 -10 -13 -16 -68
-20 -63 -4 2 6 9 12 15 12 34 4 34 7 3 15 -52 16 -32 19 39 8 56 -10 77 -8
153 10 111 26 147 27 147 4 0 -11 3 -14 8 -7 11 17 42 27 117 40 81 14 157 13
162 -1z m178 -95 c3 -5 -1 -10 -9 -10 -8 0 -18 5 -21 10 -3 6 1 10 9 10 8 0
18 -4 21 -10z m50 -21 c12 -19 -5 -23 -22 -6 -16 16 -16 17 -1 17 9 0 20 -5
23 -11z m431 -14 c15 -11 16 -14 3 -15 -8 0 -24 7 -35 15 -15 11 -16 14 -3 15
8 0 24 -7 35 -15z m109 -21 c-8 -45 -25 -74 -43 -74 -8 0 -22 -10 -33 -22 -13
-17 -18 -19 -18 -8 0 22 28 55 47 55 12 0 20 13 26 43 11 52 31 57 21 6z
m-495 1 c7 -8 8 -15 2 -15 -5 0 -15 7 -22 15 -7 8 -8 15 -2 15 5 0 15 -7 22
-15z m609 -39 c-18 -51 -4 -74 87 -134 44 -28 88 -60 99 -71 11 -10 78 -60
149 -111 l128 -93 23 29 c13 16 54 70 92 121 90 123 133 142 239 107 58 -20
171 -87 155 -92 -6 -2 -33 10 -59 27 -91 58 -175 75 -230 47 -15 -8 -70 -70
-121 -139 l-94 -125 -131 95 c-72 53 -144 108 -161 123 -16 14 -52 39 -79 54
-61 36 -126 100 -126 126 0 24 29 84 37 77 3 -3 -1 -21 -8 -41z m-463 19 c-8
-8 -17 -15 -20 -15 -3 0 -3 7 0 15 4 8 13 15 21 15 12 0 12 -2 -1 -15z m231
-27 c-6 -4 -15 -2 -19 5 -14 21 -9 28 12 15 13 -9 16 -14 7 -20z m-372 2 c-3
-5 -13 -10 -21 -10 -8 0 -14 5 -14 10 0 6 9 10 21 10 11 0 17 -4 14 -10z m317
-20 c-9 -16 -20 -30 -24 -30 -18 0 -6 -30 20 -49 16 -12 21 -20 13 -21 -8 0
-25 10 -37 21 -22 21 -22 23 -7 53 19 39 33 56 44 56 4 0 0 -13 -9 -30z m-198
-5 c-4 -8 -13 -15 -21 -15 -13 0 -13 3 -3 15 7 8 16 15 21 15 5 0 6 -7 3 -15z
m-125 -40 c7 -20 23 -43 37 -51 35 -23 30 -38 -6 -17 -17 10 -35 32 -41 51 -6
18 -16 31 -23 29 -6 -2 -37 -13 -69 -23 -45 -14 -66 -27 -94 -61 -46 -57 -56
-47 -12 10 29 38 45 48 109 70 41 14 77 26 80 26 4 1 12 -15 19 -34z m74 18
c-7 -2 -21 -2 -30 0 -10 3 -4 5 12 5 17 0 24 -2 18 -5z m381 -133 c19 0 22
-16 4 -23 -7 -3 0 -10 16 -16 18 -7 26 -15 20 -21 -11 -11 -54 -2 -54 11 0 18
-17 8 -28 -16 -11 -23 -16 -24 -79 -23 -52 1 -78 7 -111 26 -31 18 -46 22 -51
13 -10 -15 -66 -3 -86 19 -17 19 -11 50 11 50 12 0 70 -30 139 -72 20 -12 50
-18 88 -18 70 0 91 16 90 69 -1 31 0 33 12 18 6 -9 20 -17 29 -17z m1176 -575
c0 -13 6 -28 13 -32 23 -14 27 -43 12 -78 -13 -32 -12 -38 9 -75 12 -22 43
-56 68 -76 26 -19 49 -42 52 -50 8 -20 46 -18 62 4 12 16 13 15 14 -5 0 -14
-6 -23 -15 -23 -8 0 -20 -9 -27 -20 -18 -28 -26 -25 -44 18 -9 21 -35 52 -62
73 -26 20 -57 55 -69 80 -20 39 -21 46 -8 66 19 28 19 52 1 72 -20 22 -31 71
-17 71 6 0 11 -11 11 -25z m-110 -155 c-19 -13 -30 -13 -30 0 0 6 10 10 23 10
18 0 19 -2 7 -10z m-61 -17 c-7 -10 -15 -20 -16 -22 -2 -2 -3 5 -3 17 0 14 6
22 16 22 14 0 15 -3 3 -17z m111 -23 c0 -5 -2 -10 -4 -10 -3 0 -8 5 -11 10 -3
6 -1 10 4 10 6 0 11 -4 11 -10z m-47 -102 c-9 -10 -13 -18 -9 -18 4 0 -14 -18
-39 -40 -25 -22 -52 -40 -60 -40 -8 0 -17 -5 -21 -12 -11 -18 -13 -131 -2
-145 16 -20 26 -81 16 -91 -7 -7 -2 -18 12 -32 12 -12 19 -24 16 -28 -15 -15
-45 35 -47 78 -1 25 -7 54 -12 65 -6 11 -10 49 -8 85 2 90 2 90 20 90 43 1
137 98 126 129 -3 11 0 9 10 -3 13 -18 13 -22 -2 -38z m807 -398 c-8 -5 -17
-7 -19 -4 -3 3 1 9 9 14 8 5 17 7 19 4 3 -3 -1 -9 -9 -14z m-20 -40 c0 -5 -10
-10 -22 -10 -19 0 -20 2 -8 10 19 13 30 13 30 0z m-40 -28 c0 -5 -7 -17 -16
-28 -14 -17 -15 -17 -10 -1 3 10 6 23 6 28 0 5 5 9 10 9 6 0 10 -4 10 -8z
m-3263 -1449 c-3 -10 -5 -2 -5 17 0 19 2 27 5 18 2 -10 2 -26 0 -35z m0 -215
c-3 -8 -6 -5 -6 6 -1 11 2 17 5 13 3 -3 4 -12 1 -19z m50 -180 c-3 -8 -6 -5
-6 6 -1 11 2 17 5 13 3 -3 4 -12 1 -19z m-230 -250 c-3 -7 -5 -2 -5 12 0 14 2
19 5 13 2 -7 2 -19 0 -25z m-1651 -220 l29 -33 -32 29 c-31 28 -38 36 -30 36
2 0 16 -15 33 -32z m4941 -285 c-3 -10 -5 -4 -5 12 0 17 2 24 5 18 2 -7 2 -21
0 -30z m-2559 -5 c-14 -22 -54 -32 -64 -16 -3 4 6 8 21 8 14 0 28 7 31 15 4 8
11 15 16 15 6 0 4 -10 -4 -22z m-441 -205 c-3 -10 -5 -4 -5 12 0 17 2 24 5 18
2 -7 2 -21 0 -30z m50 15 c-3 -8 -6 -5 -6 6 -1 11 2 17 5 13 3 -3 4 -12 1 -19z"/>
<path d="M2985 4161 c-3 -5 -1 -12 5 -16 5 -3 10 1 10 9 0 18 -6 21 -15 7z"/>
<path d="M2966 4077 c-17 -17 -23 -32 -19 -46 9 -35 36 -21 45 23 11 50 5 54
-26 23z"/>
<path d="M3483 4568 c-53 -13 -83 -25 -83 -34 0 -7 9 -38 20 -68 12 -30 20
-67 18 -82 -3 -26 0 -28 52 -39 30 -6 68 -15 83 -19 19 -4 26 -3 22 4 -3 5 -2
10 3 10 5 0 12 23 16 50 4 28 11 48 15 46 5 -3 1 29 -8 72 -20 90 -18 89 -138
60z m107 -53 c0 -9 -9 -15 -21 -15 -18 0 -19 2 -9 15 7 8 16 15 21 15 5 0 9
-7 9 -15z"/>
<path d="M4289 4220 c25 -21 51 -26 51 -10 0 6 -1 10 -3 10 -1 0 -18 4 -37 10
l-35 9 24 -19z"/>
</g>
</svg>
