<?xml version="1.0" standalone="no"?>
<!DOCTYPE svg PUBLIC "-//W3C//DTD SVG 20010904//EN"
 "http://www.w3.org/TR/2001/REC-SVG-20010904/DTD/svg10.dtd">
<svg version="1.0" xmlns="http://www.w3.org/2000/svg"
 width="800.000000pt" height="800.000000pt" viewBox="0 0 800.000000 800.000000"
 preserveAspectRatio="xMidYMid meet">
<metadata>
Created by potrace 1.16, written by Peter Selinger 2001-2019
</metadata>
<g transform="translate(0.000000,800.000000) scale(0.100000,-0.100000)"
fill="#000000" stroke="none">
<path d="M0 4000 l0 -4000 4000 0 4000 0 0 4000 0 4000 -4000 0 -4000 0 0
-4000z m1361 3913 c13 -16 12 -17 -3 -4 -17 13 -22 21 -14 21 2 0 10 -8 17
-17z m414 -423 c10 -11 16 -20 13 -20 -3 0 -13 9 -23 20 -10 11 -16 20 -13 20
3 0 13 -9 23 -20z m4161 -18 c-11 -13 -16 -44 -19 -107 l-3 -90 -2 98 c-2 81
1 100 16 115 21 22 30 7 8 -16z m-4005 -59 c13 -16 12 -17 -3 -4 -17 13 -22
21 -14 21 2 0 10 -8 17 -17z m3859 -172 c0 -5 -15 -20 -34 -35 -32 -24 -34
-24 -28 -4 3 11 13 23 24 25 10 3 18 9 18 14 0 5 5 9 10 9 6 0 10 -4 10 -9z
m-3579 -198 c13 -16 12 -17 -3 -4 -10 7 -18 15 -18 17 0 8 8 3 21 -13z m3017
-755 c-2 -119 -8 -180 -17 -197 l-13 -23 50 7 c32 4 52 3 57 -4 3 -6 16 -11
28 -11 18 0 19 -2 7 -10 -12 -7 -12 -12 -2 -22 10 -10 15 -10 22 2 17 27 42
-16 75 -130 7 -25 21 -62 31 -83 14 -30 16 -42 7 -57 -13 -20 -20 -291 -8
-309 3 -6 36 -11 73 -11 48 0 75 -5 92 -17 14 -10 43 -18 64 -19 34 -1 40 -4
43 -26 2 -16 -10 -50 -32 -87 -31 -56 -46 -94 -77 -199 -5 -18 -7 -45 -3 -61
3 -16 2 -32 -4 -35 -5 -3 -12 -25 -16 -49 -4 -23 -13 -61 -21 -85 -8 -24 -12
-47 -9 -52 3 -4 -2 -27 -11 -51 -14 -38 -19 -55 -23 -90 -1 -4 -10 -9 -20 -12
-11 -3 -22 -17 -26 -35 -3 -17 -14 -41 -24 -54 -10 -13 -22 -36 -28 -52 -12
-37 -73 -71 -128 -70 -22 0 -86 6 -141 13 -149 20 -180 12 -255 -59 -68 -63
-89 -107 -89 -188 0 -36 4 -44 26 -52 40 -16 65 -12 71 10 3 11 10 20 15 20
11 0 -1 -43 -13 -48 -23 -9 -3 -19 59 -32 37 -7 96 -23 132 -35 58 -20 66 -25
74 -56 5 -19 14 -37 20 -41 6 -4 7 -10 4 -13 -12 -12 -27 5 -36 38 -7 29 -15
34 -87 59 -44 14 -96 29 -116 33 l-36 7 -6 -79 c-8 -108 -39 -195 -90 -251 -9
-10 -20 -34 -23 -53 -4 -19 -13 -45 -21 -57 -8 -13 -12 -26 -9 -29 3 -4 1 -12
-5 -19 -17 -21 37 -29 90 -14 70 19 101 23 101 12 0 -5 -17 -13 -37 -17 -21
-4 -42 -10 -48 -13 -5 -4 -36 -5 -68 -3 -48 2 -61 -1 -72 -16 -13 -16 -14 -15
-13 20 1 29 5 37 19 37 12 0 16 5 12 15 -3 9 1 23 10 33 8 9 19 34 23 56 3 21
15 47 25 57 11 11 19 24 19 30 0 6 11 24 25 40 13 16 22 36 18 44 -3 9 0 22 7
30 7 9 15 47 18 86 5 74 -7 113 -37 122 -9 3 -23 8 -32 11 -12 5 -20 -4 -32
-36 -10 -24 -17 -53 -17 -65 0 -12 -4 -23 -9 -25 -16 -6 -78 -141 -126 -273
-26 -71 -50 -134 -55 -140 -13 -17 -33 -98 -31 -130 1 -23 -1 -26 -9 -15 -8
12 -10 10 -11 -10 -1 -14 -1 -28 0 -32 0 -5 -3 -8 -7 -8 -5 0 -17 -18 -27 -40
-10 -22 -22 -40 -27 -40 -12 0 -10 6 16 58 20 40 61 163 71 212 2 8 4 15 5 15
1 0 3 9 5 20 4 24 93 244 122 300 11 22 24 56 28 75 4 19 18 57 32 83 l24 48
-23 19 c-13 11 -18 19 -11 20 6 0 15 -5 18 -10 4 -6 10 -8 15 -5 13 8 -61 77
-76 71 -8 -3 -19 4 -25 15 -13 24 -4 38 13 21 15 -15 32 -16 23 -2 -3 6 0 10
7 10 8 0 18 -15 23 -32 6 -18 17 -33 25 -34 9 -1 10 1 3 3 -17 6 -16 20 1 26
7 3 21 34 31 70 19 72 44 104 108 141 70 40 137 48 251 31 126 -19 160 -19
203 1 28 14 33 22 31 43 -3 23 -7 26 -38 24 -19 -1 -28 0 -20 4 8 3 20 13 26
21 8 11 13 12 18 4 11 -18 26 -14 26 6 0 11 30 90 66 178 72 174 113 324 88
324 -8 0 -14 -4 -14 -10 0 -5 -4 -10 -9 -10 -4 0 -6 11 -4 25 4 17 11 24 26
22 18 -2 22 7 35 65 11 53 19 68 36 72 25 7 73 103 59 117 -5 5 -23 10 -41 12
-17 2 -41 12 -51 21 -16 14 -37 18 -105 17 -80 -1 -86 1 -86 19 0 11 -4 20
-10 20 -5 0 -10 5 -10 11 0 6 7 9 15 5 12 -4 15 5 14 52 0 31 -3 51 -6 45 -8
-22 -21 -14 -19 12 0 16 6 23 14 20 9 -3 12 16 12 75 0 47 4 80 10 80 13 0 13
47 1 55 -5 3 -15 22 -21 43 -6 20 -21 62 -32 93 l-21 55 -56 -2 c-31 -1 -44 0
-28 2 31 6 34 15 10 37 -21 18 -106 25 -125 10 -18 -15 -80 -30 -153 -38 -137
-15 -211 -55 -234 -128 -6 -18 -31 -159 -56 -315 -44 -269 -45 -287 -36 -385
9 -100 0 -156 -13 -80 -28 167 -29 159 19 446 25 150 52 298 61 329 30 101 88
136 273 162 56 9 110 21 119 28 30 25 42 76 42 180 0 123 9 208 22 208 6 0 9
-66 6 -172z m14 -708 c15 -26 21 -29 47 -24 44 9 38 -1 -15 -27 -25 -13 -48
-27 -51 -32 -10 -16 21 -27 61 -20 28 4 37 3 32 -5 -4 -7 -32 -12 -63 -12 -49
0 -54 -2 -48 -17 4 -10 10 -30 13 -45 2 -16 9 -28 15 -28 7 0 7 -4 -1 -12 -17
-17 -15 -48 4 -48 10 0 14 -6 10 -15 -4 -10 1 -15 16 -15 17 0 18 2 8 15 -7 8
-8 15 -2 15 5 0 15 -6 21 -14 10 -11 9 -16 -5 -24 -15 -8 -14 -11 7 -25 12 -9
20 -20 16 -23 -9 -10 -74 37 -88 64 -8 14 -16 19 -22 13 -6 -6 -2 -22 10 -43
22 -36 39 -103 24 -93 -5 3 -12 -1 -14 -7 -3 -7 -6 6 -6 30 l-1 43 -30 -16
c-34 -18 -41 -5 -9 16 18 13 19 17 8 42 -7 15 -16 27 -21 27 -6 0 -8 6 -5 13
2 6 12 12 23 12 16 0 20 8 22 48 4 58 -3 61 -95 50 -52 -7 -67 -12 -64 -23 13
-53 13 -56 -1 -38 -7 9 -18 24 -24 34 -7 13 -22 17 -57 17 -26 -1 -49 3 -53 8
-5 9 22 13 67 10 21 -2 28 5 42 39 8 22 20 40 26 40 15 0 14 -11 -5 -31 -9
-10 -14 -25 -11 -34 11 -26 97 -15 97 13 0 14 2 13 13 -2 8 -11 19 -15 31 -10
14 5 17 14 12 38 -5 30 -5 30 10 11 15 -19 15 -18 13 20 -2 42 9 95 20 95 3 0
14 -14 23 -30z m238 -439 c0 -5 -7 -12 -16 -15 -8 -3 -12 -11 -8 -17 4 -7 0
-9 -13 -5 -29 9 -53 -3 -53 -27 0 -19 -1 -19 -18 -4 -16 15 -20 15 -51 -4 -29
-18 -33 -24 -29 -56 3 -27 -1 -42 -15 -56 -20 -20 -20 -19 -15 12 3 19 -1 36
-9 42 -18 16 -16 26 7 32 13 3 18 10 14 21 -4 10 -1 16 7 16 8 0 52 16 99 35
92 37 100 40 100 26z m-3020 -101 c0 -5 -4 -10 -10 -10 -5 0 -10 5 -10 10 0 6
5 10 10 10 6 0 10 -4 10 -10z m0 -50 c0 -11 -4 -20 -10 -20 -5 0 -10 9 -10 20
0 11 5 20 10 20 6 0 10 -9 10 -20z m3950 -40 c0 -5 -4 -10 -10 -10 -5 0 -19
-9 -29 -19 -16 -16 -21 -17 -25 -5 -3 8 5 20 22 28 32 18 42 19 42 6z m-3950
-20 c0 -11 -4 -20 -10 -20 -5 0 -10 9 -10 20 0 11 5 20 10 20 6 0 10 -9 10
-20z m2600 -10 c0 -5 7 -10 15 -10 8 0 15 -4 15 -10 0 -5 -9 -10 -20 -10 -11
0 -20 -7 -20 -15 0 -8 -5 -15 -11 -15 -6 0 -8 7 -5 16 3 9 6 24 6 35 0 10 5
19 10 19 6 0 10 -4 10 -10z m173 -15 c15 -4 27 -11 27 -17 0 -5 -9 -7 -19 -3
-11 3 -22 1 -25 -4 -7 -11 -37 -3 -48 13 -4 6 -12 5 -23 -4 -12 -10 -19 -10
-27 -2 -9 9 -7 12 9 12 12 0 25 5 28 10 4 6 10 8 15 5 5 -3 12 0 16 6 4 7 9 8
13 1 3 -6 19 -14 34 -17z m-2757 -23 c-8 -9 -19 -13 -22 -9 -10 9 16 38 28 31
6 -4 4 -13 -6 -22z m64 18 c0 -5 -9 -10 -20 -10 -11 0 -20 5 -20 10 0 6 9 10
20 10 11 0 20 -4 20 -10z m65 0 c-3 -5 -16 -10 -28 -9 -20 1 -20 2 3 9 14 4
26 8 28 9 2 1 0 -3 -3 -9z m3773 -32 c18 -18 15 -27 -8 -25 -12 1 -20 8 -20
19 0 21 11 23 28 6z m542 -44 c22 -9 40 -20 40 -25 0 -12 -2 -12 -54 11 -71
30 -59 43 14 14z m-2040 -28 c0 -14 -4 -28 -10 -31 -6 -4 -10 7 -10 24 0 17 5
31 10 31 6 0 10 -11 10 -24z m1477 -8 c-3 -7 -5 -2 -5 12 0 14 2 19 5 13 2 -7
2 -19 0 -25z m-57 -43 c0 -22 47 -19 53 3 4 13 5 11 6 -5 1 -17 7 -23 24 -23
13 0 28 5 35 12 14 14 27 4 16 -13 -9 -15 -12 -58 -4 -57 22 2 40 -4 40 -12 0
-5 -13 -10 -30 -10 -20 0 -30 -5 -30 -15 0 -10 10 -15 30 -15 17 0 30 -5 30
-11 0 -6 -16 -9 -37 -7 l-37 3 3 51 c2 50 2 51 -30 58 -17 3 -44 6 -60 6 -24
0 -29 4 -29 25 0 14 5 25 10 25 6 0 10 -7 10 -15z m-196 -24 c3 -5 -3 -11 -14
-14 -20 -5 -35 5 -23 17 9 9 31 7 37 -3z m-354 -11 c0 -5 -9 -10 -21 -10 -11
0 -17 5 -14 10 3 6 13 10 21 10 8 0 14 -4 14 -10z m53 3 c-7 -2 -19 -2 -25 0
-7 3 -2 5 12 5 14 0 19 -2 13 -5z m60 0 c-7 -2 -19 -2 -25 0 -7 3 -2 5 12 5
14 0 19 -2 13 -5z m47 -8 c0 -8 -2 -15 -4 -15 -2 0 -6 7 -10 15 -3 8 -1 15 4
15 6 0 10 -7 10 -15z m358 3 c-6 -18 -28 -21 -28 -4 0 9 7 16 16 16 9 0 14 -5
12 -12z m-215 -38 c-6 -22 -18 -26 -28 -10 -8 13 14 42 25 35 5 -3 6 -14 3
-25z m161 14 c11 -28 6 -39 -9 -20 -8 11 -15 23 -15 28 0 14 18 9 24 -8z
m-508 -10 c-3 -9 -6 -18 -6 -20 0 -3 -4 -3 -10 1 -11 7 -2 35 12 35 6 0 7 -7
4 -16z m824 -19 c0 -27 -6 -30 -29 -16 -12 8 -12 11 0 25 20 22 29 20 29 -9z
m-620 0 c0 -8 9 -15 20 -15 11 0 20 -4 20 -10 0 -11 -20 -13 -44 -4 -17 7 -22
44 -6 44 6 0 10 -7 10 -15z m350 -5 c0 -11 -4 -20 -9 -20 -11 0 -22 26 -14 34
12 12 23 5 23 -14z m-250 1 c0 -5 -7 -12 -16 -15 -24 -9 -28 -7 -14 9 14 17
30 20 30 6z m580 -1 c0 -5 -9 -10 -20 -10 -11 0 -20 5 -20 10 0 6 9 10 20 10
11 0 20 -4 20 -10z m170 -34 c0 -14 5 -28 10 -31 6 -3 10 -11 10 -17 0 -6 -8
-4 -18 5 -11 10 -26 14 -40 10 -13 -3 -22 -1 -22 6 0 6 9 11 20 11 13 0 20 7
20 20 0 11 5 20 10 20 6 0 10 -11 10 -24z m-1050 0 c0 -15 -18 -31 -26 -23 -7
7 7 37 17 37 5 0 9 -6 9 -14z m904 -2 c9 -24 7 -28 -9 -14 -17 14 -20 30 -6
30 5 0 12 -7 15 -16z m-351 -201 c4 -108 7 -232 7 -276 0 -73 2 -79 23 -85
l22 -6 -23 -5 c-21 -6 -20 -7 15 -36 41 -33 103 -46 145 -31 25 9 142 -5 156
-19 13 -12 -8 -13 -68 0 -44 9 -70 10 -83 4 -10 -6 -39 -10 -65 -9 -52 3 -132
-9 -132 -19 2 -22 58 -94 87 -109 13 -7 67 -12 132 -12 62 0 112 -4 116 -10 4
-6 -35 -10 -109 -10 -117 0 -186 17 -186 45 0 19 -37 49 -42 34 -7 -21 -30 2
-24 24 6 25 -46 94 -82 108 -38 15 -230 15 -244 1 -7 -7 -45 -12 -100 -12
-131 0 -218 -43 -218 -109 0 -10 6 -21 13 -24 6 -2 0 -8 -15 -12 -24 -6 -25
-9 -17 -38 9 -33 6 -43 -10 -32 -6 3 -11 18 -11 32 0 25 -1 25 -57 21 -38 -3
-93 -19 -160 -48 l-103 -44 0 -239 c0 -214 2 -239 16 -233 9 3 22 6 29 6 8 0
30 15 49 34 30 28 47 35 97 40 36 4 66 3 71 -2 6 -6 -16 -12 -58 -17 -56 -6
-72 -12 -93 -34 -31 -33 -63 -51 -90 -51 -21 0 -21 -4 -21 -295 0 -288 0 -295
20 -295 11 0 20 -4 20 -10 0 -5 -10 -10 -22 -10 -13 0 -218 -1 -456 -3 -284
-1 -431 1 -429 8 2 6 98 11 252 13 222 2 249 4 261 20 13 16 13 16 14 0 0 -16
14 -18 155 -18 l155 0 1 468 c1 540 5 696 20 724 16 30 24 13 10 -21 -7 -16
-11 -38 -9 -50 3 -19 5 -19 68 9 46 21 67 35 71 52 5 19 7 20 13 6 6 -13 13
-14 39 -6 18 5 59 13 92 16 58 7 60 8 63 37 8 72 109 125 236 125 50 0 87 5
94 12 7 7 12 31 12 55 0 38 3 43 22 43 17 0 19 -3 10 -12 -7 -7 -12 -25 -12
-40 0 -28 1 -28 68 -30 37 -1 84 -2 105 -2 20 0 37 -3 37 -8 0 -4 5 -8 11 -8
7 0 9 10 5 25 -8 30 10 34 19 5 7 -22 40 -27 48 -7 4 9 8 8 16 -3 13 -18 13
-17 11 90 -1 44 -6 78 -13 83 -9 6 -9 10 1 14 8 3 12 27 11 71 0 37 -3 61 -6
55 -2 -7 -9 -13 -14 -13 -13 0 -11 27 3 49 12 20 5 51 -12 51 -5 0 -10 -7 -10
-15 0 -12 -4 -14 -16 -7 -9 5 -26 7 -38 5 -17 -4 -18 -3 -6 6 13 9 12 12 -5
25 -20 14 -19 15 6 24 15 6 29 18 32 26 4 9 18 21 32 26 20 8 25 16 25 45 0
19 4 35 8 35 5 0 12 -88 15 -197z m267 172 c0 -14 -4 -25 -10 -25 -5 0 -10 7
-10 15 0 8 -4 15 -10 15 -5 0 -10 5 -10 10 0 6 9 10 20 10 15 0 20 -7 20 -25z
m55 15 c3 -5 -3 -10 -14 -10 -12 0 -21 5 -21 10 0 6 6 10 14 10 8 0 18 -4 21
-10z m90 -10 c3 -5 -3 -10 -14 -10 -12 0 -21 5 -21 10 0 6 6 10 14 10 8 0 18
-4 21 -10z m-995 -19 c0 -5 -7 -14 -15 -21 -12 -10 -15 -10 -15 2 0 8 3 18 7
21 9 10 23 9 23 -2z m930 -28 c0 -7 -4 -13 -10 -13 -5 0 -10 12 -10 28 0 21 2
24 10 12 5 -8 10 -21 10 -27z m-1488 -16 c-14 -17 -132 -22 -132 -6 0 7 10 9
24 7 14 -3 42 -2 63 2 56 11 56 11 45 -3z m518 -6 c0 -12 -20 -25 -27 -18 -7
7 6 27 18 27 5 0 9 -4 9 -9z m-380 -12 c0 -5 -7 -9 -15 -9 -8 0 -18 0 -22 -1
-4 0 -9 3 -10 8 -2 4 8 9 22 9 14 1 25 -2 25 -7z m1350 -29 c0 -16 -4 -30 -10
-30 -5 0 -10 14 -10 30 0 17 5 30 10 30 6 0 10 -13 10 -30z m-1005 -10 c-3 -5
-11 -10 -16 -10 -6 0 -7 5 -4 10 3 6 11 10 16 10 6 0 7 -4 4 -10z m-39 -46
c-30 -21 -44 -16 -17 7 13 11 27 17 30 13 3 -3 -3 -12 -13 -20z m1044 -14 c0
-11 -4 -20 -10 -20 -5 0 -10 9 -10 20 0 11 5 20 10 20 6 0 10 -9 10 -20z
m-1120 -45 c0 -14 -4 -25 -10 -25 -5 0 -10 11 -10 25 0 14 5 25 10 25 6 0 10
-11 10 -25z m60 15 c0 -5 -9 -10 -20 -10 -11 0 -20 5 -20 10 0 6 9 10 20 10
11 0 20 -4 20 -10z m1060 -30 c0 -11 -4 -20 -10 -20 -5 0 -10 9 -10 20 0 11 5
20 10 20 6 0 10 -9 10 -20z m-1390 -16 c0 -8 -4 -14 -10 -14 -5 0 -10 9 -10
21 0 11 5 17 10 14 6 -3 10 -13 10 -21z m1390 -44 c0 -11 -4 -20 -10 -20 -5 0
-10 9 -10 20 0 11 5 20 10 20 6 0 10 -9 10 -20z m-1560 0 c0 -5 9 -6 20 -3 26
7 26 -3 -1 -17 -15 -9 -24 -8 -35 1 -11 9 -18 9 -26 1 -18 -18 -30 -14 -19 7
10 18 61 27 61 11z m95 0 c-3 -5 -13 -10 -21 -10 -8 0 -14 5 -14 10 0 6 9 10
21 10 11 0 17 -4 14 -10z m75 -10 c0 -11 -4 -20 -10 -20 -5 0 -10 9 -10 20 0
11 5 20 10 20 6 0 10 -9 10 -20z m-2770 -25 c0 -14 -4 -25 -10 -25 -5 0 -10
11 -10 25 0 14 5 25 10 25 6 0 10 -11 10 -25z m-373 -35 c0 -16 -4 -30 -9 -30
-4 0 -8 14 -8 30 0 17 4 30 8 30 5 0 9 -13 9 -30z m345 -9 c4 11 8 10 22 -3
13 -14 15 -24 7 -50 -9 -31 -10 -31 -16 -10 -4 12 -15 22 -26 22 -12 0 -19 7
-19 20 0 23 -1 24 -35 8 -26 -12 -30 -24 -16 -47 7 -11 11 -10 19 5 6 10 14
16 17 12 4 -4 3 -13 -1 -20 -5 -7 -9 -15 -10 -18 0 -3 -6 -18 -12 -33 -7 -16
-12 -35 -12 -43 0 -8 -4 -12 -10 -9 -5 3 -7 19 -3 35 4 23 2 30 -11 30 -9 0
-16 -8 -16 -17 0 -10 -14 -26 -31 -36 -36 -20 -55 -13 -24 8 46 32 49 37 30
51 -9 7 -23 10 -31 7 -8 -3 -14 0 -14 6 0 15 -57 14 -64 -1 -5 -10 -7 -10 -12
0 -3 6 -10 10 -14 7 -5 -3 -11 -1 -15 5 -3 5 1 10 9 10 9 0 16 8 17 18 0 10 3
12 6 5 6 -15 63 -18 63 -3 0 6 5 10 10 10 6 0 10 -6 10 -14 0 -16 57 -39 65
-27 2 5 6 22 7 39 2 24 8 31 30 36 18 3 28 12 28 23 1 14 6 12 24 -11 16 -19
25 -24 28 -15z m98 24 c0 -8 7 -15 15 -15 8 0 15 -5 15 -10 0 -6 -11 -8 -25
-4 -34 8 -31 -7 5 -28 17 -9 30 -22 30 -28 0 -6 -12 -2 -26 9 -15 12 -35 21
-45 21 -23 0 -25 16 -4 24 8 3 15 15 15 26 0 11 5 20 10 20 6 0 10 -7 10 -15z
m4090 -5 c0 -11 -4 -20 -10 -20 -5 0 -10 9 -10 20 0 11 5 20 10 20 6 0 10 -9
10 -20z m-1623 -10 c1 -14 -4 -20 -18 -20 -22 0 -24 11 -7 28 17 17 24 15 25
-8z m-2336 -13 c-13 -13 -26 -3 -16 12 3 6 11 8 17 5 6 -4 6 -10 -1 -17z
m2099 -2 c7 -8 8 -15 2 -15 -5 0 -15 7 -22 15 -7 8 -8 15 -2 15 5 0 15 -7 22
-15z m300 -4 c0 -5 -9 -7 -20 -4 -11 3 -20 7 -20 9 0 2 9 4 20 4 11 0 20 -4
20 -9z m1160 -16 c0 -14 -4 -25 -10 -25 -5 0 -10 4 -10 9 0 5 -3 16 -6 25 -4
11 -1 16 10 16 10 0 16 -9 16 -25z m-3626 -1 c4 -9 4 -19 2 -21 -8 -8 -26 8
-26 23 0 19 16 18 24 -2z m2521 6 c4 -6 -5 -10 -20 -10 -15 0 -24 4 -20 10 3
6 12 10 20 10 8 0 17 -4 20 -10z m1890 0 c3 -5 15 -10 26 -10 12 0 19 -7 19
-20 0 -11 -4 -20 -10 -20 -5 0 -10 5 -10 10 0 6 -7 10 -15 10 -9 0 -15 -9 -15
-25 0 -19 5 -25 23 -25 19 -1 20 -2 6 -13 -9 -7 -14 -18 -12 -24 7 -19 -3 -16
-33 12 -17 16 -22 25 -12 25 10 0 14 12 13 45 -2 43 6 57 20 35z m-385 -20 c0
-11 -4 -20 -10 -20 -5 0 -10 9 -10 20 0 11 5 20 10 20 6 0 10 -9 10 -20z
m-3975 -17 c-3 -15 -12 -31 -18 -35 -22 -13 3 -21 27 -9 13 8 29 10 35 7 7 -4
11 1 11 13 0 12 5 21 10 21 6 0 10 -7 10 -15 0 -30 39 -15 59 23 18 33 26 19
11 -18 -8 -19 -20 -30 -32 -30 -11 0 -22 -9 -25 -20 -6 -24 -23 -27 -23 -4 0
11 -5 14 -17 9 -22 -8 -117 -24 -121 -20 -2 2 6 13 17 24 12 12 21 28 21 36 0
8 5 15 10 15 6 0 10 7 10 15 0 8 5 15 11 15 7 0 9 -10 4 -27z m4450 16 c11
-17 -1 -21 -15 -4 -8 9 -8 15 -2 15 6 0 14 -5 17 -11z m-1937 -18 c3 -8 -1
-12 -9 -9 -7 2 -15 10 -17 17 -3 8 1 12 9 9 7 -2 15 -10 17 -17z m62 9 c12 -8
9 -10 -12 -10 -16 0 -28 5 -28 10 0 13 20 13 40 0z m1930 0 c-20 -13 -33 -13
-25 0 3 6 14 10 23 10 15 0 15 -2 2 -10z m-813 -47 c-15 -16 -17 -16 -17 -1 0
9 6 18 13 21 20 7 22 -2 4 -20z m33 -10 c0 -20 -3 -24 -11 -16 -7 7 -9 19 -6
27 10 24 17 19 17 -11z m250 7 c0 -11 -4 -20 -10 -20 -5 0 -10 9 -10 20 0 11
5 20 10 20 6 0 10 -9 10 -20z m-250 -55 c0 -8 -7 -15 -16 -15 -14 0 -14 3 -4
15 7 8 14 15 16 15 2 0 4 -7 4 -15z m250 -11 c0 -8 -4 -14 -10 -14 -5 0 -10 9
-10 21 0 11 5 17 10 14 6 -3 10 -13 10 -21z m435 -12 c12 -9 21 -27 21 -39 0
-18 -4 -21 -28 -16 -23 5 -28 2 -28 -14 0 -27 10 -35 27 -21 7 6 17 7 21 3 4
-4 2 -10 -4 -12 -6 -2 -19 -9 -28 -16 -15 -11 -14 -14 8 -39 13 -16 31 -28 40
-28 13 0 16 -8 14 -37 -3 -33 0 -38 20 -41 24 -4 31 -22 7 -22 -19 0 -19 -10
0 -37 12 -18 13 -24 2 -35 -7 -7 -17 -22 -21 -33 -7 -19 -8 -19 -17 -2 -12 20
-4 37 17 37 17 0 17 0 -2 38 -8 18 -23 32 -32 32 -12 0 -13 3 -5 11 13 13 6
39 -11 39 -6 0 -17 14 -23 30 -8 22 -18 30 -36 30 -14 0 -27 6 -30 14 -3 8
-18 16 -34 19 l-28 4 30 2 c43 2 63 21 68 66 6 48 17 85 26 85 3 -1 15 -8 26
-18z m-4282 -32 c18 -43 37 -53 37 -20 0 11 5 20 11 20 7 0 10 -12 7 -30 -4
-25 -1 -31 19 -36 25 -7 32 -24 9 -24 -8 0 -22 -3 -32 -7 -14 -5 -16 -3 -11
11 5 13 -1 20 -23 28 -17 5 -30 13 -30 16 0 4 -4 24 -9 45 -12 49 0 47 22 -3z
m561 25 c-6 -16 -24 -21 -24 -7 0 11 11 22 21 22 5 0 6 -7 3 -15z m1146 5 c0
-5 -7 -10 -15 -10 -8 0 -31 -25 -52 -55 -36 -51 -53 -66 -53 -47 0 22 83 122
101 122 10 0 19 -4 19 -10z m-613 -92 c-2 -18 -4 -4 -4 32 0 36 2 50 4 33 2
-18 2 -48 0 -65z m2753 46 c0 -8 -4 -14 -10 -14 -5 0 -10 9 -10 21 0 11 5 17
10 14 6 -3 10 -13 10 -21z m-3300 -3 c0 -5 -7 -11 -15 -15 -15 -5 -20 5 -8 17
9 10 23 9 23 -2z m-55 -47 c-23 -17 -32 -10 -15 11 7 8 17 12 23 8 6 -4 3 -11
-8 -19z m-475 -29 c22 -36 34 -43 45 -25 3 6 12 10 18 10 14 -1 -43 -50 -58
-50 -6 0 -18 9 -28 20 -15 18 -15 21 -2 26 21 9 8 24 -21 24 -15 0 -24 6 -24
15 0 30 47 17 70 -20z m-520 5 c12 -8 11 -10 -7 -10 -12 0 -25 5 -28 10 -8 13
15 13 35 0z m955 -9 c-3 -6 -14 -11 -23 -11 -15 1 -15 2 2 15 21 16 32 13 21
-4z m-890 -1 c8 -13 -15 -13 -35 0 -12 8 -11 10 7 10 12 0 25 -4 28 -10z m845
-20 c0 -14 -14 -12 -28 2 -19 19 -14 30 8 18 11 -6 20 -15 20 -20z m-950 11
c0 -5 -9 -11 -20 -14 -22 -6 -28 8 -7 16 19 8 27 8 27 -2z m-10 -52 c0 -11 -4
-17 -10 -14 -5 3 -10 13 -10 21 0 8 5 14 10 14 6 0 10 -9 10 -21z m638 -7 c2
-7 -2 -10 -12 -6 -9 3 -16 11 -16 16 0 13 23 5 28 -10z m-658 -47 c0 -14 -4
-25 -10 -25 -11 0 -14 33 -3 43 11 11 13 8 13 -18z m1181 2 c-18 -18 -13 -27
17 -27 24 -1 25 -2 10 -14 -10 -7 -19 -25 -20 -39 -2 -23 -5 -25 -35 -20 -19
3 -39 0 -47 -6 -12 -10 -15 -9 -13 8 1 17 8 21 34 21 39 0 46 10 33 45 -10 27
5 59 23 48 5 -3 4 -10 -2 -16z m2195 -251 c0 -85 -4 -153 -8 -150 -10 6 -11
304 0 304 4 0 7 -70 8 -154z m734 117 c0 -7 -4 -13 -10 -13 -5 0 -10 12 -10
28 0 21 2 24 10 12 5 -8 10 -21 10 -27z m-3860 10 c0 -14 -19 -38 -25 -32 -8
8 5 39 16 39 5 0 9 -3 9 -7z m-15 -81 c-8 -9 -25 20 -18 31 3 5 10 2 15 -7 6
-10 7 -20 3 -24z m2113 31 c-10 -2 -26 -2 -35 0 -10 3 -2 5 17 5 19 0 27 -2
18 -5z m1742 -14 c-7 -11 -14 -18 -17 -15 -8 8 5 36 17 36 7 0 7 -6 0 -21z
m858 4 c6 -19 -25 -16 -32 3 -4 11 -1 14 11 12 9 -2 18 -9 21 -15z m-5278 -24
c0 -12 7 -19 20 -19 11 0 20 -5 20 -11 0 -5 5 -7 10 -4 6 3 10 -1 10 -9 0 -9
-6 -16 -12 -16 -8 0 -9 -3 -3 -8 6 -4 10 -33 10 -65 0 -61 -12 -78 -17 -24 -3
29 -6 32 -35 32 -34 0 -42 15 -23 45 8 12 10 11 10 -7 0 -30 16 -30 23 -1 4
14 1 26 -8 31 -8 4 -12 14 -9 22 4 8 1 15 -5 15 -6 0 -11 12 -11 26 0 14 4 23
10 19 6 -3 10 -15 10 -26z m5500 22 c0 -10 -24 -21 -43 -21 -7 0 -3 7 7 15 22
17 36 19 36 6z m-4570 -11 c0 -5 -4 -12 -10 -15 -6 -4 -4 -17 5 -35 14 -26 14
-29 0 -24 -8 4 -16 10 -16 15 -1 5 -2 13 -3 18 0 5 -4 13 -8 17 -14 14 -8 30
12 31 11 1 20 -2 20 -7z m4455 0 c3 -5 1 -10 -6 -10 -7 0 -27 -12 -46 -26 -19
-14 -41 -23 -48 -20 -21 8 -18 25 3 19 10 -2 27 6 41 21 26 27 46 33 56 16z
m-954 -40 c10 0 19 -4 19 -10 0 -5 -22 -10 -49 -10 -28 0 -53 5 -56 10 -3 6 5
10 19 10 14 0 28 5 32 12 6 9 9 9 12 0 2 -7 12 -12 23 -12z m829 0 c0 -11 -4
-20 -10 -20 -5 0 -10 9 -10 20 0 11 5 20 10 20 6 0 10 -9 10 -20z m165 -8 c-7
-8 -35 7 -35 18 0 6 7 6 20 -2 10 -7 17 -14 15 -16z m45 13 c-7 -8 -17 -15
-22 -15 -6 0 -5 7 2 15 7 8 17 15 22 15 6 0 5 -7 -2 -15z m-4894 -32 c-11 -11
-19 6 -11 24 8 17 8 17 12 0 3 -10 2 -21 -1 -24z m-486 2 c0 -18 5 -25 20 -25
11 0 20 -4 20 -10 0 -5 -9 -10 -20 -10 -14 0 -20 -7 -21 -22 -1 -13 -5 -5 -10
17 -11 55 -11 75 1 75 6 0 10 -11 10 -25z m1700 0 c0 -8 10 -16 23 -16 l22 -2
-22 -4 c-20 -4 -23 -11 -23 -49 0 -24 -4 -44 -10 -44 -5 0 -10 20 -10 45 0 40
-3 45 -22 46 l-23 0 23 9 c12 5 22 14 22 20 0 5 5 10 10 10 6 0 10 -7 10 -15z
m1115 -55 c8 -6 11 -18 9 -25 -9 -22 26 -65 51 -65 25 0 40 -35 29 -64 -11
-28 -24 -17 -17 14 5 28 4 30 -26 30 -23 0 -31 5 -31 18 0 20 -18 42 -35 42
-18 0 -48 -71 -36 -83 15 -15 14 -27 -3 -27 -19 0 -27 -25 -13 -39 6 -6 7 -14
2 -18 -4 -5 -10 -2 -12 5 -5 14 -23 7 -23 -9 0 -6 10 -9 23 -8 12 1 30 -1 40
-6 10 -4 23 -2 31 4 9 8 16 8 20 2 10 -16 36 -1 49 28 l11 26 3 -25 c3 -19 13
-28 41 -37 43 -14 49 -11 26 11 -24 25 -10 30 28 10 23 -13 28 -19 17 -22 -26
-5 -11 -39 23 -53 22 -9 32 -9 41 0 15 15 60 14 75 -1 20 -20 13 -55 -20 -103
-29 -41 -33 -44 -40 -25 -10 27 -36 36 -59 22 -10 -7 -26 -12 -35 -12 -11 0
-15 -6 -11 -20 5 -21 -7 -28 -18 -10 -9 15 -25 12 -25 -5 0 -9 10 -20 23 -24
22 -9 22 -9 -6 -20 -36 -14 -37 -14 -31 3 3 7 -2 21 -11 30 -13 12 -14 20 -6
30 8 9 5 18 -10 35 -11 12 -26 20 -32 18 -17 -5 -57 -78 -57 -104 0 -13 -4
-23 -10 -23 -16 0 -11 42 10 80 10 19 24 45 31 57 12 23 5 73 -11 73 -6 0 -10
-13 -10 -29 0 -35 -15 -48 -35 -31 -21 18 -18 39 8 62 12 11 16 16 8 13 -7 -4
-36 -10 -64 -14 -40 -5 -54 -11 -63 -29 -6 -13 -17 -29 -23 -35 -6 -6 -11 -21
-11 -33 0 -12 -7 -27 -15 -34 -20 -17 -19 -36 3 -50 16 -11 16 -11 0 -6 -18 5
-52 -20 -43 -34 2 -4 -31 -34 -75 -66 -76 -56 -83 -64 -131 -159 -55 -107
-111 -171 -138 -155 -9 5 -24 2 -38 -7 -15 -10 -23 -11 -23 -4 0 6 -11 11 -25
11 -14 0 -25 5 -25 11 0 7 11 9 27 6 42 -8 56 14 31 49 -17 24 -28 29 -62 30
-22 0 -47 -6 -54 -13 -12 -12 -60 -18 -104 -14 -14 2 -18 -5 -18 -33 0 -32 3
-36 25 -36 36 0 31 -17 -7 -25 -21 -5 -34 -3 -36 4 -2 7 -9 6 -19 -4 -8 -8
-19 -15 -24 -15 -17 0 -9 17 16 36 32 24 32 57 0 72 -28 13 -45 8 -94 -25 -58
-40 -98 -90 -142 -180 -23 -48 -44 -82 -47 -75 -2 7 -8 10 -13 6 -5 -3 -9 6
-9 19 0 14 -7 30 -15 37 -13 10 -15 9 -15 -9 0 -11 -4 -21 -10 -21 -6 0 -10
42 -10 105 l0 105 -180 0 c-113 0 -180 4 -180 10 0 6 68 10 185 10 l185 0 2
113 c1 61 3 95 5 75 3 -25 9 -38 19 -38 11 0 14 19 14 95 0 57 4 95 10 95 6 0
10 -38 10 -94 l0 -93 77 -7 c42 -3 107 -6 145 -6 45 0 68 -4 68 -12 0 -8 -38
-9 -145 -5 l-145 7 0 -41 c0 -24 -4 -38 -10 -34 -5 3 -10 22 -10 41 0 24 -5
34 -15 34 -12 0 -15 -14 -15 -65 l0 -65 58 -1 c87 -2 105 1 127 21 11 10 31
18 45 18 14 0 45 5 69 11 23 7 45 10 49 7 3 -3 11 2 18 12 8 10 13 12 14 5 0
-8 13 -13 29 -13 17 0 32 -4 35 -9 8 -12 75 21 76 37 0 15 47 14 69 -3 11 -7
13 -7 7 3 -4 7 2 32 14 57 12 24 19 49 15 54 -3 6 17 39 45 75 l50 64 -42 15
c-24 9 -56 20 -72 24 -17 5 -31 14 -34 21 -4 13 81 -9 132 -34 29 -14 31 -13
66 21 22 22 42 33 52 30 8 -3 26 3 39 14 l24 20 -24 1 c-16 0 -21 4 -17 15 10
28 -5 45 -40 45 -19 0 -34 5 -34 10 0 6 18 10 39 10 31 0 41 -4 46 -20 3 -11
11 -20 16 -20 5 0 9 -7 9 -15 0 -24 15 -17 28 13 11 26 12 26 8 -10 -4 -32 0
-41 30 -68 19 -16 39 -30 44 -30 15 0 60 66 60 88 0 12 4 22 10 22 5 0 17 16
26 36 10 20 26 39 36 42 13 3 15 8 8 22 -6 11 -4 24 6 38 8 11 14 25 13 29 -3
20 2 34 11 28 6 -3 10 3 10 15 0 29 28 81 53 102 21 16 21 17 4 36 -15 16 -16
23 -5 48 l12 29 4 -32 c2 -17 9 -37 17 -43z m1585 60 c0 -5 -4 -10 -10 -10 -5
0 -10 5 -10 10 0 6 5 10 10 10 6 0 10 -4 10 -10z m-3930 -29 c0 -10 -24 -21
-43 -21 -7 0 -3 7 7 15 22 17 36 19 36 6z m3853 -34 c-3 -5 -11 0 -18 10 -7
10 -11 21 -8 26 3 5 11 0 18 -10 7 -10 11 -21 8 -26z m597 33 c0 -14 43 -13
58 2 9 9 12 7 12 -9 0 -13 8 -24 19 -28 20 -6 20 -6 0 -26 -10 -10 -23 -19
-29 -19 -5 0 -9 -6 -7 -12 1 -7 -4 -12 -11 -10 -22 4 -4 -16 28 -32 21 -10 30
-11 30 -3 0 8 3 9 8 1 4 -6 16 -14 27 -19 18 -7 18 -9 3 -12 -10 -3 -18 -9
-18 -15 0 -5 -5 -8 -11 -6 -15 5 -71 -51 -63 -64 3 -5 -3 -16 -15 -24 -12 -9
-19 -20 -16 -25 4 -5 -5 -13 -19 -19 -16 -6 -25 -17 -24 -27 2 -33 -2 -53 -11
-53 -6 0 -9 12 -8 26 3 40 -17 39 -63 -2 -39 -36 -41 -36 -35 -12 9 34 -2 39
-52 26 -32 -8 -40 -14 -35 -27 5 -14 3 -14 -10 -3 -11 9 -18 10 -23 2 -3 -5
-17 -10 -31 -10 -13 0 -24 -4 -24 -10 0 -5 5 -10 10 -10 21 0 9 -18 -15 -22
-22 -5 -25 -2 -25 23 0 23 5 30 28 34 15 4 39 13 54 21 14 8 33 14 42 14 9 0
16 7 16 16 0 13 3 14 15 4 8 -6 18 -9 24 -6 5 3 21 2 35 -4 20 -7 26 -6 26 4
0 8 8 13 18 12 9 0 16 5 15 12 -2 6 5 12 15 12 29 0 62 28 55 47 -4 11 -3 14
6 9 15 -9 41 22 34 40 -3 8 2 11 15 7 12 -3 22 2 26 13 8 22 -13 44 -45 48
-29 3 -49 14 -49 27 0 5 7 9 15 9 8 0 15 6 15 14 0 8 11 17 25 20 39 10 31 34
-12 38 -27 2 -39 8 -41 21 -2 9 1 17 7 17 6 0 11 -4 11 -10z m-4840 -10 c0 -5
-4 -10 -10 -10 -5 0 -10 5 -10 10 0 6 5 10 10 10 6 0 10 -4 10 -10z m910 -134
c0 -3 -4 -8 -10 -11 -5 -3 -10 -1 -10 4 0 6 5 11 10 11 6 0 10 -2 10 -4z
m1548 -36 c17 0 15 -15 -3 -30 -10 -9 -15 -9 -15 -1 0 17 -33 13 -84 -9 -63
-27 -59 -48 8 -41 15 1 16 -2 7 -13 -13 -15 -61 -19 -61 -4 0 7 -5 7 -13 0 -7
-6 -22 -9 -32 -7 -11 2 -23 4 -27 4 -5 1 -8 5 -8 10 0 5 9 7 19 4 13 -3 25 3
36 21 9 14 37 33 61 42 25 9 50 26 55 36 10 18 12 18 28 4 10 -9 23 -16 29
-16z m-1582 -17 c-11 -11 -17 4 -9 23 7 18 8 18 11 1 2 -10 1 -21 -2 -24z
m1839 -13 c3 -5 1 -10 -4 -10 -6 0 -11 5 -11 10 0 6 2 10 4 10 3 0 8 -4 11
-10z m-1842 -6 c39 -7 51 -24 17 -24 -20 0 -26 -17 -22 -62 1 -10 -3 -18 -9
-18 -6 0 -9 14 -8 33 4 40 -6 57 -32 57 -10 0 -19 5 -19 10 0 11 19 12 73 4z
m-1717 -37 c7 2 10 -5 7 -22 -6 -29 -28 -33 -37 -7 -3 9 -9 23 -12 30 -5 11
-2 12 12 4 11 -5 24 -7 30 -5z m546 -13 c14 -16 27 -24 39 -21 21 6 35 -8 19
-18 -5 -3 -10 -23 -11 -43 -1 -37 -1 -37 -9 -8 -5 16 -23 46 -40 67 -16 21
-30 40 -30 43 0 13 13 5 32 -20z m86 14 c-2 -6 -10 -14 -16 -16 -7 -2 -10 2
-6 12 7 18 28 22 22 4z m2662 -13 c0 -21 -5 -25 -27 -24 -17 1 -21 3 -10 6 9
2 17 13 17 24 0 10 5 19 10 19 6 0 10 -11 10 -25z m-1990 -49 c0 -8 -5 -18
-11 -21 -11 -7 -6 -126 7 -146 3 -5 0 -16 -6 -24 -10 -12 -9 -15 9 -15 11 0
21 -4 21 -10 0 -5 -9 -10 -20 -10 -18 0 -20 -7 -20 -67 0 -36 -3 -63 -7 -60
-3 4 -5 41 -4 82 l2 75 -66 0 c-47 0 -65 4 -63 12 3 8 25 11 64 9 l59 -2 0 78
c0 43 3 86 7 96 9 21 28 23 28 3z m1980 9 c0 -3 -9 -14 -20 -25 -11 -11 -22
-20 -25 -20 -10 0 -4 19 11 34 15 15 34 21 34 11z m-1250 -83 c0 -5 -20 -9
-45 -9 -25 0 -45 4 -45 9 0 4 20 8 45 8 25 0 45 -4 45 -8z m723 -33 c59 -17
107 -36 107 -40 0 -5 -3 -9 -7 -9 -21 0 -223 65 -223 72 0 12 6 11 123 -23z
m-1929 -48 c69 -3 121 -10 123 -16 2 -8 -24 -8 -84 -3 -48 5 -119 7 -158 6
l-70 -3 -2 -55 c-1 -30 0 -49 3 -42 3 6 12 12 19 12 10 0 11 -5 2 -24 -7 -14
-17 -21 -27 -19 -10 3 -29 -10 -48 -32 -18 -19 -32 -31 -32 -25 0 5 -17 10
-37 10 -28 0 -34 -3 -23 -10 8 -5 13 -10 10 -11 -40 -6 -60 -6 -60 1 0 5 6 11
13 13 6 3 -16 6 -51 6 -58 1 -63 -1 -57 -18 4 -13 0 -20 -17 -24 -24 -7 -42 3
-20 10 15 6 16 33 1 33 -21 0 -70 -42 -65 -56 3 -8 1 -14 -3 -14 -5 0 -16 -3
-24 -6 -10 -4 -14 2 -14 20 0 14 3 23 8 20 13 -7 99 65 99 83 0 10 6 13 16 9
14 -5 15 0 10 38 -7 47 6 69 27 46 9 -10 9 -14 0 -17 -7 -3 -13 -9 -13 -14 0
-4 7 -6 15 -3 28 11 9 -45 -25 -73 -12 -10 -2 -12 57 -13 128 0 213 37 213 95
0 24 -2 25 -71 25 -44 0 -68 4 -64 10 3 6 37 10 76 10 39 0 69 4 69 10 0 6
-40 10 -100 10 -60 0 -100 -4 -100 -10 0 -5 -7 -10 -15 -10 -8 0 -15 5 -15 10
0 6 -35 10 -84 10 -47 0 -88 -4 -91 -10 -3 -5 -37 -10 -75 -10 -46 0 -70 -4
-73 -12 -2 -7 -7 -10 -11 -7 -3 3 -4 14 0 23 5 13 20 16 74 16 38 0 72 5 75
10 7 11 415 12 619 1z m2666 -13 c0 -9 3 -8 10 2 5 8 12 11 17 7 9 -9 -23 -64
-33 -57 -11 7 -13 60 -3 60 5 0 9 -6 9 -12z m-2110 -48 c0 -5 -9 -10 -20 -10
-11 0 -20 5 -20 10 0 6 9 10 20 10 11 0 20 -4 20 -10z m86 -6 c-3 -9 -6 -20
-6 -25 0 -5 -4 -9 -10 -9 -5 0 -10 7 -10 15 0 8 -9 15 -20 15 -11 0 -20 5 -20
10 0 6 16 10 36 10 29 0 35 -3 30 -16z m-762 -29 c3 -8 2 -15 -3 -15 -5 0 -14
7 -21 15 -10 12 -10 15 3 15 8 0 17 -7 21 -15z m91 1 c43 -18 46 -30 5 -21
-28 6 -30 5 -30 -24 0 -21 -5 -31 -15 -31 -8 0 -15 5 -15 10 0 6 4 10 9 10 6
0 7 16 4 35 -6 40 -5 40 42 21z m2922 8 c-3 -3 -12 -4 -19 -1 -8 3 -5 6 6 6
11 1 17 -2 13 -5z m2263 -4 c0 -5 -4 -10 -10 -10 -5 0 -10 5 -10 10 0 6 5 10
10 10 6 0 10 -4 10 -10z m-2203 -42 c-3 -8 -6 -5 -6 6 -1 11 2 17 5 13 3 -3 4
-12 1 -19z m-3060 -25 c-3 -10 -5 -4 -5 12 0 17 2 24 5 18 2 -7 2 -21 0 -30z
m743 17 c0 -11 -4 -20 -10 -20 -5 0 -10 9 -10 20 0 11 5 20 10 20 6 0 10 -9
10 -20z m2260 -10 c0 -5 -11 -10 -25 -10 -14 0 -25 5 -25 10 0 6 11 10 25 10
14 0 25 -4 25 -10z m70 -55 c0 -30 -4 -55 -10 -55 -5 0 -10 20 -10 45 0 33 -4
45 -15 45 -11 0 -15 -12 -16 -47 -2 -66 0 -75 19 -90 15 -11 15 -12 -5 -13
-12 0 -25 -4 -28 -10 -3 -5 -11 -10 -17 -10 -6 0 -3 9 7 20 18 20 17 20 -12
20 -26 0 -30 4 -30 25 0 21 3 23 26 19 26 -5 27 -4 23 35 -6 57 2 71 38 71 30
0 30 0 30 -55z m-300 -69 c0 -14 -4 -28 -10 -31 -6 -4 -10 7 -10 24 0 17 5 31
10 31 6 0 10 -11 10 -24z m-3305 -15 c-3 -6 -14 -11 -23 -11 -15 1 -15 2 2 15
21 16 32 13 21 -4z m245 8 c0 -4 -4 -11 -10 -14 -25 -16 -4 -25 56 -25 55 0
65 -2 55 -14 -9 -10 -8 -15 4 -20 8 -3 22 -3 30 0 19 8 19 0 -1 -20 -16 -17
-39 -22 -30 -7 7 11 -22 23 -35 15 -5 -3 -7 -10 -3 -15 3 -6 0 -9 -7 -8 -26 6
-58 -19 -52 -41 4 -17 0 -20 -24 -20 -25 0 -30 4 -29 23 3 37 -22 57 -72 57
-34 0 -43 -3 -39 -14 4 -9 -1 -15 -11 -15 -9 -1 -36 -4 -59 -7 -32 -5 -40 -10
-36 -21 5 -12 1 -14 -14 -9 -14 5 -30 -1 -51 -19 -32 -27 -52 -34 -33 -11 6 7
8 22 4 31 -5 14 -3 17 10 12 21 -8 47 1 47 17 0 8 17 13 46 15 50 1 67 8 59
21 -7 12 78 24 116 16 28 -5 30 -4 29 22 -4 52 -1 60 25 60 14 0 25 -4 25 -9z
m481 -54 c22 -19 50 -35 63 -35 13 0 29 -7 37 -16 7 -9 21 -13 34 -10 16 4 21
0 22 -14 2 -24 -16 -26 -43 -5 -10 8 -35 19 -55 25 -41 11 -84 42 -99 71 -16
28 -2 23 41 -16z m-771 16 c0 -5 -7 -12 -16 -15 -24 -9 -28 -7 -14 9 14 17 30
20 30 6z m-60 -46 c-7 -9 -15 -13 -18 -10 -3 2 1 11 8 20 7 9 15 13 18 10 3
-2 -1 -11 -8 -20z m785 -35 c8 -16 15 -33 15 -37 -1 -14 -40 39 -40 53 0 22 8
17 25 -16z m-831 -4 c-3 -9 -10 -16 -15 -16 -14 0 -11 28 4 33 16 6 19 3 11
-17z m1276 14 c0 -5 -7 -10 -15 -10 -8 0 -15 -4 -15 -9 0 -5 -12 -11 -27 -13
-24 -3 -29 -9 -36 -48 -10 -57 -4 -130 15 -199 9 -30 14 -61 11 -68 -6 -16
-25 -12 -31 7 -3 8 0 10 8 5 10 -6 11 -2 6 16 -4 13 -8 33 -10 44 -2 11 -9 33
-15 48 -6 16 -11 39 -11 53 0 13 -4 24 -10 24 -5 0 -10 -11 -10 -25 0 -14 -7
-28 -16 -32 -23 -9 -63 14 -74 42 -5 14 -20 27 -35 31 -37 9 -31 25 7 17 l33
-6 -17 25 -17 26 42 -5 c23 -3 56 -9 74 -13 34 -9 43 0 43 46 0 21 -5 24 -37
25 l-38 1 35 9 c19 4 49 6 66 3 18 -3 35 -1 38 5 9 14 36 14 36 1z m3328 4
c50 -4 89 -11 86 -15 -7 -12 -264 -11 -264 0 0 21 40 24 178 15z m-362 -20
c-8 -21 1 -34 20 -27 9 3 12 12 9 24 -5 14 -1 19 13 19 28 0 17 -44 -14 -59
-33 -15 -30 -31 6 -31 17 0 30 -4 30 -10 0 -5 -11 -10 -25 -10 -18 0 -25 -5
-25 -20 0 -11 -7 -20 -15 -20 -8 0 -15 8 -15 18 0 10 -5 23 -12 30 -9 9 -8 12
6 12 13 0 16 5 11 18 -4 9 -10 29 -13 45 -3 21 0 27 13 27 12 0 15 -5 11 -16z
m851 -18 c3 -3 26 -6 50 -6 24 0 43 -4 43 -10 0 -5 -11 -10 -25 -10 -14 0 -25
-4 -25 -10 0 -13 -37 -13 -45 -1 -3 5 3 11 12 13 15 3 14 5 -5 10 -16 5 -25 2
-30 -10 -12 -29 -39 -23 -39 8 0 24 4 27 29 25 16 -1 31 -5 35 -9z m163 -8 c0
-5 -6 -11 -14 -14 -18 -7 -9 -34 11 -34 10 0 13 -6 9 -16 -3 -9 -6 -30 -7 -47
-1 -34 -3 -30 -14 16 -5 25 -10 28 -30 23 -13 -3 -26 -2 -29 3 -3 5 4 11 15
14 15 4 20 11 15 21 -3 9 -8 22 -11 29 -4 10 3 14 25 14 16 0 30 -4 30 -9z
m50 -8 c0 -22 -8 -25 -30 -10 -13 9 -13 11 0 20 22 15 30 12 30 -10z m-2470
-19 c0 -18 -34 -31 -81 -31 -27 0 -24 20 4 21 21 1 21 1 -3 9 -24 7 -23 7 10
12 66 9 70 9 70 -11z m2505 -11 c3 -5 -3 -10 -13 -10 -11 0 -23 -8 -26 -17 -6
-15 -8 -15 -16 -3 -7 11 -5 19 7 28 20 15 40 16 48 2z m40 0 c3 -5 1 -10 -4
-10 -6 0 -11 5 -11 10 0 6 2 10 4 10 3 0 8 -4 11 -10z m875 -9 c0 5 9 9 19 9
14 0 18 -5 14 -21 -3 -12 -11 -18 -19 -15 -8 3 -14 1 -14 -4 0 -16 -37 -11
-44 5 -3 8 -10 15 -16 15 -5 0 -10 -7 -10 -15 0 -8 4 -15 9 -15 6 0 9 -9 8
-20 -1 -23 -42 -29 -50 -7 -3 8 -11 5 -24 -10 -11 -13 -24 -23 -28 -23 -5 0
-5 3 -2 6 3 4 2 15 -4 25 -8 15 -6 19 8 21 10 1 25 2 33 4 8 1 20 2 26 3 7 1
15 12 18 25 5 22 9 23 41 16 20 -4 35 -4 35 1z m-1101 -10 c9 -6 10 -11 2 -15
-13 -8 -31 1 -31 15 0 11 11 11 29 0z m1171 -21 c0 -11 -4 -20 -10 -20 -5 0
-10 9 -10 20 0 11 5 20 10 20 6 0 10 -9 10 -20z m-1020 -40 c0 -11 -4 -20 -10
-20 -5 0 -10 9 -10 20 0 11 5 20 10 20 6 0 10 -9 10 -20z m947 3 c-9 -9 -19
-14 -23 -11 -10 10 6 28 24 28 15 0 15 -1 -1 -17z m58 -3 c3 -5 -3 -10 -15
-10 -12 0 -18 5 -15 10 3 6 10 10 15 10 5 0 12 -4 15 -10z m-151 -37 c3 -10 9
-25 13 -33 5 -13 4 -13 -12 0 -10 8 -28 13 -41 12 -13 -2 -24 1 -24 7 0 6 7
11 15 11 8 0 15 5 15 10 0 17 27 11 34 -7z m88 -27 c-3 -5 -9 -1 -12 10 -4 10
-5 23 -2 28 3 5 9 1 12 -10 4 -10 5 -23 2 -28z m-17 -26 c-3 -5 -13 -10 -21
-10 -8 0 -14 5 -14 10 0 6 9 10 21 10 11 0 17 -4 14 -10z m-3945 -60 c0 -22
-4 -40 -10 -40 -11 0 -14 63 -3 73 11 12 13 8 13 -33z m60 -4 c0 -8 -4 -18
-10 -21 -5 -3 -10 3 -10 14 0 12 5 21 10 21 6 0 10 -6 10 -14z m103 -34 c-23
-3 -39 -34 -28 -52 3 -5 2 -10 -3 -10 -5 0 -9 -6 -10 -12 -2 -22 -19 -92 -27
-110 -8 -20 -14 -22 -34 -9 -20 13 4 42 26 34 13 -5 13 -3 4 16 -17 31 24 149
53 154 12 1 26 1 31 -2 6 -4 0 -7 -12 -9z m2955 -9 c12 -12 13 -18 4 -21 -8
-2 -12 -31 -12 -93 0 -58 -4 -88 -10 -84 -10 6 -15 215 -4 215 3 0 13 -8 22
-17z m-3088 -8 c-7 -8 -16 -15 -21 -15 -5 0 -6 7 -3 15 4 8 13 15 21 15 13 0
13 -3 3 -15z m468 -37 c10 -10 17 -10 32 0 28 17 31 15 18 -13 -6 -13 -14 -22
-19 -20 -4 3 -10 1 -14 -5 -8 -13 -45 -13 -45 0 0 6 5 10 12 10 6 0 3 9 -7 20
-14 16 -15 20 -4 20 8 0 21 -6 27 -12z m2880 -17 c6 -16 6 -34 1 -42 -12 -20
-11 -23 10 -48 11 -13 24 -20 30 -17 5 3 0 -12 -10 -34 -28 -58 -13 -75 44
-46 15 8 27 11 27 7 0 -5 26 -11 57 -15 31 -4 63 -12 70 -18 10 -8 13 -3 14
23 l1 34 11 -42 c11 -47 35 -63 54 -37 12 17 13 17 13 0 0 -15 3 -16 15 -6 10
8 13 21 9 39 -6 25 -6 25 12 9 15 -15 16 -21 6 -43 -7 -14 -20 -28 -29 -32
-26 -9 -33 -23 -33 -65 0 -42 -1 -42 34 -28 14 5 26 6 26 1 0 -13 -26 -32 -33
-25 -3 4 -18 4 -32 0 -18 -5 -25 -13 -25 -31 0 -14 -4 -25 -10 -25 -5 0 -10 6
-10 14 0 7 -7 19 -15 26 -22 19 -18 31 8 25 30 -8 50 15 42 48 -4 14 -15 27
-26 30 -10 3 -19 10 -19 16 0 8 6 9 19 1 43 -23 43 -1 0 24 -18 11 -29 14 -25
7 13 -20 -12 -12 -40 14 -29 27 -88 35 -98 13 -5 -10 -7 -10 -12 0 -9 19 -24
14 -24 -8 0 -11 -4 -20 -10 -20 -5 0 -10 7 -10 15 0 10 -10 15 -31 15 -20 0
-28 4 -23 12 4 7 3 8 -4 4 -7 -4 -12 -14 -12 -22 0 -8 -6 -14 -13 -14 -9 0
-11 12 -9 41 5 49 -7 65 -37 50 -14 -8 -21 -8 -21 -1 0 6 11 15 24 21 14 7 22
17 19 25 -3 8 1 14 8 14 11 0 11 3 -1 10 -22 14 -40 12 -40 -6 0 -8 -5 -12
-10 -9 -6 4 -8 10 -5 15 3 5 -5 10 -17 12 -13 2 -24 11 -26 23 -2 11 -14 28
-25 37 -22 17 -22 18 -1 18 24 0 44 -18 44 -41 0 -19 33 -34 50 -24 6 4 22 0
35 -9 13 -9 27 -16 30 -16 8 0 5 54 -4 69 -10 15 -4 41 9 41 4 0 13 -13 18
-29z m-3378 12 c0 -3 -20 -45 -44 -92 -24 -47 -51 -107 -61 -133 -13 -34 -22
-46 -36 -45 -10 1 -19 7 -19 14 0 7 -7 13 -15 13 -8 0 -19 9 -25 20 -8 15 -17
19 -31 15 -11 -4 -19 -2 -19 4 0 6 4 11 9 11 18 0 41 31 41 54 0 19 6 24 26
24 l25 0 -21 -23 c-27 -28 -25 -82 3 -77 11 2 17 -4 17 -18 0 -11 3 -20 8 -20
8 0 52 108 52 128 0 7 4 12 8 12 5 0 21 27 36 60 15 33 32 60 37 60 5 0 9 -3
9 -7z m-1362 -27 c5 -23 -29 -87 -43 -82 -5 1 -20 -1 -32 -5 -34 -13 -28 7 7
21 19 8 30 20 30 32 0 12 -11 23 -30 29 -43 16 -37 25 17 24 39 0 48 -4 51
-19z m532 -14 c0 -4 -24 -26 -53 -50 -91 -72 -107 -93 -113 -150 -6 -61 12
-85 72 -96 64 -12 104 -35 104 -60 0 -30 43 -68 111 -99 71 -31 207 -118 238
-151 13 -13 20 -29 17 -35 -6 -9 97 -101 113 -101 4 0 17 13 29 29 12 16 46
43 76 60 30 18 74 54 98 80 41 47 47 60 90 211 10 34 23 69 47 120 6 14 11 34
10 45 -1 26 24 95 34 95 12 0 21 -31 10 -39 -18 -11 -35 -52 -29 -68 4 -9 0
-23 -7 -32 -7 -9 -19 -36 -26 -61 -7 -25 -17 -55 -22 -68 -5 -13 -9 -34 -9
-47 0 -13 -4 -26 -9 -29 -4 -3 -14 -26 -21 -51 -9 -32 -29 -62 -66 -100 -53
-54 -63 -70 -45 -77 4 -1 5 -12 0 -23 -7 -19 -8 -19 -8 2 -1 12 -7 23 -13 26
-21 7 -77 -24 -71 -40 3 -7 -1 -21 -8 -29 -12 -15 -8 -22 31 -56 25 -22 61
-50 80 -63 82 -56 280 -74 365 -34 25 12 48 25 51 30 3 5 16 9 30 9 24 0 24 1
24 89 0 50 4 92 8 95 11 6 23 -384 15 -454 -11 -93 -23 -39 -23 105 0 89 -4
146 -10 150 -6 4 -23 -2 -38 -12 -55 -37 -83 -43 -203 -43 -146 0 -188 14
-294 101 -63 52 -77 60 -90 49 -8 -7 -15 -20 -15 -29 0 -9 -8 -21 -17 -27 -24
-15 -78 -124 -100 -201 -10 -35 -24 -65 -32 -68 -18 -7 -29 4 -14 13 12 8 43
87 43 111 0 8 17 43 38 79 20 36 46 81 57 101 l20 36 -60 47 c-45 35 -63 44
-73 36 -7 -6 -15 -8 -19 -5 -3 4 5 15 17 25 15 12 20 24 15 31 -12 21 -174
122 -250 157 -78 36 -102 58 -114 100 -6 25 -17 32 -73 49 -91 28 -98 35 -98
109 0 33 4 66 8 73 11 17 155 142 165 143 4 0 7 -3 7 -8z m1380 -22 c6 -11 9
-20 7 -20 -2 0 -12 9 -22 20 -10 11 -13 20 -7 20 6 0 16 -9 22 -20z m1564 -56
c4 -10 -2 -14 -19 -14 -29 0 -85 -31 -85 -47 0 -8 -13 -13 -31 -13 -22 0 -32
-5 -36 -20 -3 -12 -14 -20 -26 -20 -19 0 -19 1 -4 18 21 23 22 38 3 45 -12 5
-13 12 -4 35 11 29 11 29 104 30 72 1 94 -2 98 -14z m405 -57 c18 -27 32 -37
50 -37 36 0 71 -11 71 -21 0 -5 -9 -9 -20 -9 -19 0 -20 -2 -5 -37 16 -37 12
-60 -6 -33 -8 13 -10 13 -18 0 -6 -8 -13 -11 -17 -7 -4 3 -1 13 5 21 10 12 9
20 -6 40 -16 22 -26 25 -75 26 -32 0 -58 5 -58 10 0 6 18 10 40 10 33 0 38 3
33 18 -3 9 -15 28 -27 41 -14 16 -16 22 -6 19 8 -2 26 -21 39 -41z m326 -28
c12 -18 -3 -22 -20 -5 -14 14 -14 16 -1 16 8 0 18 -5 21 -11z m475 -19 c0 -5
-11 -10 -25 -10 -14 0 -25 5 -25 10 0 6 11 10 25 10 14 0 25 -4 25 -10z m-473
-34 c-7 -18 38 -62 48 -47 10 18 60 12 83 -9 12 -11 28 -20 37 -20 8 0 15 -4
15 -10 0 -5 -6 -10 -14 -10 -12 0 -12 -7 -5 -34 6 -22 6 -43 -1 -61 -13 -34
-13 -82 1 -90 5 -4 22 -4 36 0 24 6 25 9 19 48 -4 23 -11 46 -17 51 -15 16
-10 24 14 22 20 -1 22 -6 23 -68 1 -53 -2 -68 -13 -68 -8 0 -33 -9 -55 -20
-32 -15 -44 -17 -49 -8 -5 7 -4 17 1 22 6 6 10 27 10 47 0 42 -24 58 -59 40
-21 -12 -31 2 -31 40 0 28 -28 35 -45 13 -12 -16 -14 -17 -15 -3 0 10 -12 19
-30 23 -18 3 -30 12 -30 21 0 10 -10 15 -27 15 -26 1 -27 1 -9 15 13 10 17 22
14 40 -5 24 -3 25 38 25 37 0 44 3 44 20 0 11 5 20 11 20 6 0 9 -6 6 -14z
m653 -147 c19 -10 38 -15 43 -12 4 2 7 -5 7 -16 0 -20 30 -43 53 -40 27 3 37
-2 37 -21 0 -11 -6 -20 -14 -20 -17 0 -29 -27 -15 -36 6 -3 14 -17 19 -30 6
-14 18 -24 30 -24 24 0 25 -9 5 -36 -8 -10 -15 -28 -15 -39 0 -15 -3 -16 -12
-7 -7 7 -22 12 -35 12 -13 0 -23 4 -23 9 0 5 -9 13 -20 16 -11 3 -20 11 -20
16 0 14 17 11 34 -6 19 -19 66 -20 66 -1 0 7 -7 19 -15 26 -8 7 -15 19 -15 27
0 7 -6 16 -14 19 -10 4 -13 15 -9 39 5 30 2 36 -20 46 -13 6 -31 22 -38 35
-13 26 -24 30 -34 14 -4 -6 -10 -8 -15 -5 -5 3 -11 1 -15 -5 -8 -13 -45 -13
-45 0 0 6 11 10 25 10 28 0 33 21 10 40 -8 7 -15 22 -15 34 0 19 1 19 13 -4 7
-14 28 -32 47 -41z m-1225 -35 c-4 -26 -2 -40 7 -46 10 -7 9 -10 -4 -19 -14
-8 -18 -24 -18 -79 0 -45 4 -70 13 -73 10 -4 10 -7 0 -18 -7 -7 -13 -30 -13
-50 0 -21 6 -40 13 -43 10 -5 10 -7 0 -12 -8 -3 -13 -24 -13 -49 0 -25 5 -45
13 -48 9 -4 9 -8 0 -14 -6 -4 -13 -24 -16 -43 -2 -19 -5 64 -7 185 -1 121 -1
224 0 230 1 5 2 34 3 62 1 38 5 53 15 53 11 0 13 -9 7 -36z m919 -96 c5 -22
12 -28 32 -28 24 0 43 -24 29 -38 -4 -4 -10 -1 -12 6 -3 6 -9 12 -15 12 -6 0
-7 -19 -3 -52 9 -66 15 -76 31 -53 15 21 28 16 19 -7 -7 -19 -53 -41 -66 -32
-6 3 -7 24 -4 47 4 27 1 58 -9 86 -9 24 -16 58 -15 75 1 32 3 29 13 -16z m528
17 c-5 -28 -10 -30 -34 -11 -24 17 -23 24 5 29 12 2 25 5 28 6 3 0 4 -10 1
-24z m53 15 c3 -5 -1 -10 -9 -10 -8 0 -18 5 -21 10 -3 6 1 10 9 10 8 0 18 -4
21 -10z m5 -45 c0 -8 0 -18 1 -22 0 -4 -4 -9 -10 -11 -6 -2 -11 8 -11 22 0 14
5 26 10 26 6 0 10 -7 10 -15z m-40 -15 c0 -5 -9 -10 -20 -10 -11 0 -20 5 -20
10 0 6 9 10 20 10 11 0 20 -4 20 -10z m-58 -22 c-9 -9 -15 -9 -24 0 -9 9 -7
12 12 12 19 0 21 -3 12 -12z m98 -35 c0 -20 -3 -24 -11 -16 -7 7 -9 19 -6 27
10 24 17 19 17 -11z m-2172 -19 c5 -30 25 -67 47 -86 20 -17 19 -17 -10 -12
-28 5 -33 2 -50 -34 -18 -37 -22 -40 -52 -35 -40 7 -42 -5 -8 -41 29 -31 30
-36 10 -36 -9 0 -20 11 -25 25 -9 25 -50 36 -50 14 0 -5 -5 -7 -10 -4 -8 5 -7
11 1 21 8 10 8 14 0 14 -6 0 -11 5 -11 11 0 6 7 8 16 5 47 -18 88 30 63 75
-12 23 -3 41 10 21 6 -9 15 -3 34 22 16 20 23 37 17 41 -14 9 -12 27 3 23 6
-3 13 -13 15 -24z m1342 4 c0 -19 -2 -20 -10 -8 -13 19 -13 30 0 30 6 0 10
-10 10 -22z m317 -3 c9 -25 -4 -29 -17 -6 -7 15 -7 21 0 21 6 0 13 -7 17 -15z
m-1749 -32 c-16 -20 -28 -15 -28 12 0 22 2 24 19 13 15 -9 17 -15 9 -25z m62
17 c0 -5 -9 -10 -21 -10 -11 0 -17 5 -14 10 3 6 13 10 21 10 8 0 14 -4 14 -10z
m1006 -30 c-1 -31 -10 -38 -22 -18 -5 8 -10 6 -14 -8 -5 -13 -2 -21 9 -26 14
-6 13 -7 -2 -7 -13 -1 -17 -7 -15 -23 2 -18 9 -23 31 -21 15 1 27 -2 27 -8 0
-10 43 -12 78 -3 14 4 21 12 18 20 -6 15 6 19 18 7 7 -8 12 -9 54 -11 12 -1
22 -6 22 -11 0 -6 -16 -7 -35 -4 -32 5 -35 3 -35 -18 0 -13 -4 -19 -8 -13 -10
15 -121 13 -115 -3 3 -7 13 -15 24 -18 10 -4 19 -11 19 -16 0 -11 -11 -11 -29
0 -10 7 -19 4 -27 -7 -15 -20 -64 -24 -64 -5 0 8 -14 13 -37 14 -21 1 -51 5
-68 9 -24 6 -27 8 -13 14 10 5 30 4 45 -1 55 -18 92 17 39 37 -25 9 -42 28
-33 37 3 3 16 -2 29 -11 38 -27 44 -20 43 48 -1 36 2 63 7 60 4 -3 16 0 25 5
27 16 30 14 29 -19z m-2806 -60 c12 -8 9 -10 -12 -10 -16 0 -28 5 -28 10 0 13
20 13 40 0z m1333 -7 c12 -11 -27 -32 -40 -22 -7 7 -13 6 -17 0 -4 -5 -2 -12
4 -16 12 -8 13 -35 1 -35 -7 0 -31 51 -31 66 0 1 15 5 33 7 17 2 35 5 38 5 3
1 9 -1 12 -5z m2135 -12 c3 -8 -1 -12 -9 -9 -7 2 -15 10 -17 17 -3 8 1 12 9 9
7 -2 15 -10 17 -17z m350 -4 c-21 -16 -30 -58 -16 -74 8 -10 5 -13 -13 -11
-21 3 -24 -2 -27 -34 -2 -21 -7 -38 -13 -38 -16 0 -10 61 10 89 11 15 23 39
26 54 4 14 14 28 23 30 24 5 28 -1 10 -16z m-258 -3 c0 -3 -5 -14 -11 -25 -14
-27 -4 -53 27 -70 33 -17 46 -42 38 -74 -9 -37 -24 -31 -18 8 5 28 2 34 -25
50 -44 25 -56 52 -41 88 11 25 30 40 30 23z m-237 -30 c20 -7 22 -20 5 -27
-10 -4 -9 -8 2 -17 12 -9 12 -13 2 -17 -8 -3 -9 -9 -4 -16 5 -7 3 -22 -4 -37
l-14 -25 0 27 c0 32 -13 42 -41 33 -15 -5 -18 -10 -10 -18 6 -6 11 -18 11 -26
-1 -13 -3 -12 -11 2 -7 12 -14 15 -22 9 -15 -12 -67 -13 -67 -1 0 5 6 10 13
10 6 1 19 2 27 3 10 1 15 12 15 36 0 35 0 35 -42 33 -29 -1 -43 2 -43 11 0 10
17 12 65 10 51 -2 67 0 72 12 3 8 11 12 17 9 6 -3 19 -8 29 -11z m151 -10 c4
-9 4 -19 2 -21 -8 -8 -26 8 -26 23 0 19 16 18 24 -2z m-2174 -38 c0 -8 -10
-13 -25 -13 -20 0 -23 2 -14 13 6 8 18 14 25 14 8 0 14 -6 14 -14z m2152 -29
c-29 -30 -28 -47 2 -47 34 0 52 -25 38 -53 -10 -21 -11 -21 -11 6 -1 22 -6 27
-28 28 -30 0 -78 17 -54 18 10 1 12 9 8 31 -6 27 -4 30 18 30 13 0 27 5 30 11
4 6 10 8 13 5 3 -4 -4 -16 -16 -29z m-1236 -18 c3 -6 20 -19 38 -30 21 -13 26
-19 13 -19 -10 0 -29 7 -42 16 -24 16 -25 16 -25 -9 0 -14 5 -29 11 -33 7 -4
7 -10 1 -16 -6 -6 -8 -18 -4 -27 5 -14 4 -14 -11 -2 -10 8 -15 21 -12 31 5 15
-3 19 -55 25 -73 9 -70 26 5 22 30 -2 52 0 49 5 -7 11 5 48 16 48 5 0 12 -5
16 -11z m-1277 -75 c18 -4 30 -12 28 -18 -2 -6 0 -19 4 -28 6 -11 4 -21 -4
-30 -8 -7 -12 -19 -9 -26 4 -14 -7 -15 -26 -3 -16 10 -12 46 5 46 22 0 26 15
7 29 -22 16 -38 11 -30 -10 3 -8 1 -14 -4 -14 -5 0 -7 -7 -4 -15 5 -11 2 -13
-10 -9 -14 5 -16 20 -7 77 1 9 9 9 50 1z m1001 -149 c0 -30 -4 -55 -10 -55 -5
0 -10 25 -10 55 0 30 5 55 10 55 6 0 10 -25 10 -55z m-353 -27 c6 -7 13 -25
16 -39 6 -23 4 -26 -19 -26 -37 0 -48 -16 -40 -57 5 -24 12 -36 24 -36 16 -1
16 -2 0 -14 -20 -14 -23 -37 -9 -51 6 -6 4 -15 -5 -23 -16 -15 -21 -8 -26 38
-4 34 -35 39 -44 6 -6 -27 -31 -53 -40 -43 -3 3 -2 11 2 18 15 25 14 69 -1 75
-8 4 -15 14 -15 23 0 10 -3 21 -7 25 -4 4 -6 24 -5 44 6 72 6 72 86 72 47 0
77 -5 83 -12z m-1899 -13 c-2 -6 -13 -10 -26 -10 -13 -1 -44 -19 -70 -41 -26
-22 -55 -43 -64 -47 -12 -4 -18 -17 -18 -37 0 -27 -3 -30 -30 -30 -24 0 -30
-4 -30 -22 -1 -38 -211 -410 -237 -419 -14 -5 -23 -4 -23 1 0 6 6 10 14 10 15
0 208 344 229 408 8 26 19 38 35 40 16 3 22 10 22 28 0 18 8 27 28 35 15 6 43
26 63 45 43 42 117 69 107 39z m2430 -21 c2 -10 13 -29 24 -40 17 -19 17 -22
3 -27 -8 -4 -27 -2 -41 4 -15 5 -35 7 -45 4 -29 -9 -23 10 7 24 17 8 24 17 20
27 -3 9 -3 20 0 25 9 15 29 5 32 -17z m42 -94 c-6 -11 -15 -20 -20 -20 -14 0
-12 27 3 33 23 10 28 7 17 -13z m184 -140 l14 -30 -36 0 c-34 0 -35 -1 -16
-15 18 -13 17 -14 -17 -15 -37 0 -89 -31 -89 -53 0 -6 -10 -22 -22 -35 l-23
-24 29 -24 c33 -29 29 -43 -7 -19 -25 16 -25 16 -29 -20 -3 -27 1 -39 16 -50
20 -14 19 -15 -16 -9 -33 5 -38 4 -38 -13 0 -10 5 -24 12 -31 17 -17 2 -28
-17 -12 -20 16 -19 49 1 71 9 10 17 30 17 46 1 15 6 31 12 35 6 5 6 18 -2 38
-11 28 -10 30 7 25 13 -4 24 2 36 19 21 33 12 61 -15 46 -26 -14 -26 -14 -27
20 -1 16 2 27 7 25 4 -3 10 -1 14 5 11 17 23 11 18 -10 -4 -14 1 -21 20 -25
34 -9 45 -1 39 30 -2 15 0 25 7 25 6 0 11 -7 11 -15 0 -19 0 -19 38 1 18 8 32
22 32 30 0 22 7 17 24 -16z m-398 -111 c50 -13 57 -26 17 -31 -22 -2 -29 -9
-31 -30 -3 -25 0 -28 27 -28 17 0 31 -4 31 -10 0 -5 -6 -10 -14 -10 -9 0 -13
-8 -9 -22 4 -23 4 -23 -18 2 l-22 25 6 -32 c7 -37 -11 -47 -20 -12 -4 14 -8
17 -13 9 -4 -7 -13 -9 -19 -5 -9 5 -9 10 0 21 9 11 8 14 -5 14 -9 0 -16 5 -16
10 0 6 11 10 25 10 21 0 25 5 25 30 0 25 -4 30 -25 30 -14 0 -25 5 -25 10 0 6
7 10 15 10 8 0 15 5 15 10 0 12 1 12 56 -1z m-741 -79 c14 -6 4 -9 -37 -9 -32
-1 -58 -4 -58 -8 1 -31 15 -53 34 -53 20 -1 20 -2 4 -14 -14 -10 -18 -28 -18
-70 0 -31 -4 -56 -10 -56 -6 0 -10 27 -10 61 0 56 -2 60 -20 54 -11 -3 -20 -2
-20 4 0 5 9 13 20 16 23 7 25 18 7 33 -10 9 -19 7 -36 -4 -28 -20 -43 -8 -16
13 51 39 115 52 160 33z m445 -25 c-11 -13 -10 -18 6 -31 18 -14 17 -15 -16
-9 -19 3 -42 13 -50 22 -14 14 -13 15 8 10 18 -4 25 0 33 20 7 19 13 23 21 15
8 -8 8 -15 -2 -27z m-1133 -112 c-2 -16 -4 -3 -4 27 0 30 2 43 4 28 2 -16 2
-40 0 -55z m-1337 -22 c0 -12 -28 -22 -34 -12 -3 5 -3 11 1 15 9 9 33 7 33 -3z
m-20 -55 c0 -14 -5 -28 -11 -31 -15 -10 -18 -4 -12 28 7 34 23 36 23 3z m-46
-70 c-6 -16 -24 -23 -24 -8 0 10 22 33 27 28 2 -2 1 -11 -3 -20z m-27 -51 c-4
-8 -11 -15 -17 -15 -7 0 -7 6 0 21 13 23 26 19 17 -6z m2036 -12 c-24 -2 -62
-2 -85 0 -24 2 -5 4 42 4 47 0 66 -2 43 -4z m-2063 -22 c0 -5 -7 -14 -15 -21
-16 -14 -18 -10 -9 14 6 17 24 22 24 7z m-40 -50 c0 -12 -20 -25 -27 -18 -7 7
6 27 18 27 5 0 9 -4 9 -9z m-50 -30 c0 -12 -20 -25 -27 -18 -7 7 6 27 18 27 5
0 9 -4 9 -9z m-30 -50 c0 -5 -7 -11 -15 -15 -15 -5 -20 5 -8 17 9 10 23 9 23
-2z m-30 -38 c0 -5 -5 -15 -10 -23 -8 -12 -10 -11 -10 8 0 12 5 22 10 22 6 0
10 -3 10 -7z m-37 -63 c-7 -26 -13 -26 -13 0 0 11 4 20 9 20 5 0 7 -9 4 -20z"/>
<path d="M5556 4864 c-4 -9 -4 -19 -1 -22 2 -3 7 3 11 12 4 9 4 19 1 22 -2 3
-7 -3 -11 -12z"/>
<path d="M5506 4739 c-10 -24 -20 -50 -23 -56 -3 -7 0 -13 6 -13 6 0 11 5 11
11 0 6 7 26 16 45 9 18 14 39 12 46 -2 6 -12 -8 -22 -33z"/>
<path d="M5461 4626 c-6 -16 -10 -34 -8 -40 6 -17 29 33 24 52 -3 13 -7 10
-16 -12z"/>
<path d="M5216 5562 c-10 -17 7 -43 22 -33 9 6 9 11 -1 26 -10 12 -16 14 -21
7z"/>
<path d="M6216 4511 c-3 -5 1 -14 9 -21 13 -10 15 -9 15 9 0 21 -14 28 -24 12z"/>
<path d="M6184 4476 c-10 -26 0 -35 23 -23 22 12 22 13 3 25 -17 10 -21 10
-26 -2z"/>
<path d="M6212 3993 c8 -10 18 -27 22 -37 8 -23 11 -20 19 22 6 31 5 32 -25
32 -29 0 -30 -1 -16 -17z"/>
<path d="M6270 3985 c0 -18 5 -25 20 -25 22 0 26 20 8 38 -19 19 -28 14 -28
-13z"/>
<path d="M2320 4130 c0 -5 5 -10 11 -10 5 0 7 5 4 10 -3 6 -8 10 -11 10 -2 0
-4 -4 -4 -10z"/>
<path d="M7020 4010 c0 -5 5 -10 11 -10 5 0 7 5 4 10 -3 6 -8 10 -11 10 -2 0
-4 -4 -4 -10z"/>
<path d="M6970 3890 c0 -5 9 -10 21 -10 11 0 17 5 14 10 -3 6 -13 10 -21 10
-8 0 -14 -4 -14 -10z"/>
<path d="M4690 3210 c0 -5 7 -10 16 -10 8 0 12 5 9 10 -3 6 -10 10 -16 10 -5
0 -9 -4 -9 -10z"/>
<path d="M4800 3189 c0 -17 4 -28 10 -24 6 3 10 17 10 31 0 13 -4 24 -10 24
-5 0 -10 -14 -10 -31z"/>
<path d="M4837 3193 c-3 -16 -9 -40 -13 -55 -9 -39 20 -37 36 2 7 17 16 30 21
30 12 0 11 -6 -6 -40 -13 -26 -13 -30 -1 -30 8 0 21 -3 30 -6 11 -4 19 2 26
20 5 14 14 26 19 26 18 0 63 -20 77 -35 9 -8 19 -15 24 -15 13 0 30 35 30 60
0 28 -23 35 -54 15 -30 -20 -59 -12 -117 31 -44 32 -65 31 -72 -3z"/>
<path d="M4730 3139 c0 -11 4 -18 10 -14 5 3 7 12 3 20 -7 21 -13 19 -13 -6z"/>
<path d="M4946 3104 c-5 -12 -2 -15 10 -10 8 3 18 6 20 6 3 0 2 5 -1 10 -9 15
-22 12 -29 -6z"/>
<path d="M4380 3045 c-7 -8 -18 -15 -26 -15 -7 0 -37 -25 -66 -56 -44 -46 -56
-67 -71 -122 -14 -51 -28 -77 -58 -107 -21 -23 -39 -45 -39 -50 1 -17 54 -73
76 -79 25 -8 58 25 59 57 0 13 5 21 14 19 8 -2 11 3 8 12 -7 18 50 139 62 132
5 -4 11 4 13 16 2 12 10 24 18 26 13 5 13 3 0 -13 -8 -11 7 -4 33 15 54 39 64
50 45 50 -10 0 -9 3 2 10 9 6 17 5 22 -3 4 -7 8 -7 9 -2 0 6 2 20 3 33 2 17
-9 33 -37 58 -46 39 -50 40 -67 19z m36 -140 c-21 -16 -32 -13 -21 4 3 6 14
11 23 11 15 -1 15 -2 -2 -15z"/>
<path d="M4161 2846 c-8 -9 -7 -18 3 -31 13 -18 17 -15 29 17 7 20 -18 32 -32
14z"/>
<path d="M4050 2700 c0 -5 9 -10 21 -10 11 0 17 5 14 10 -3 6 -13 10 -21 10
-8 0 -14 -4 -14 -10z"/>
<path d="M3730 2640 c-8 -5 -10 -10 -5 -10 6 0 17 5 25 10 8 5 11 10 5 10 -5
0 -17 -5 -25 -10z"/>
<path d="M3665 2613 c-24 -6 -115 -82 -115 -96 0 -6 -7 -19 -17 -29 -15 -17
-15 -19 2 -38 15 -17 19 -17 32 -4 8 8 19 12 24 9 5 -4 9 -1 9 6 0 6 -8 9 -20
6 -11 -3 -20 -1 -20 4 0 5 4 9 9 9 5 0 12 9 16 20 3 11 25 32 47 47 23 16 45
38 49 51 5 12 7 21 6 21 -1 -1 -11 -4 -22 -6z"/>
<path d="M3510 2554 c0 -49 2 -55 15 -44 9 8 15 30 15 56 0 32 -4 44 -15 44
-12 0 -15 -13 -15 -56z"/>
<path d="M3560 2583 l0 -26 25 23 c14 13 25 25 25 27 0 2 -11 3 -25 3 -20 0
-25 -5 -25 -27z"/>
<path d="M1590 2685 c-10 -12 -10 -21 -1 -42 l12 -26 32 29 c17 16 34 30 37
32 9 6 -25 22 -46 22 -12 0 -27 -7 -34 -15z"/>
<path d="M2293 2523 c9 -9 19 -14 23 -11 10 10 -6 28 -24 28 -15 0 -15 -1 1
-17z"/>
<path d="M2335 2520 c3 -5 10 -10 16 -10 5 0 9 5 9 10 0 6 -7 10 -16 10 -8 0
-12 -4 -9 -10z"/>
<path d="M2287 2481 c7 -26 30 -34 37 -14 7 19 8 19 -21 27 -18 6 -20 4 -16
-13z"/>
<path d="M6860 2084 c-7 -17 -7 -31 -1 -37 14 -14 31 1 31 28 0 35 -18 40 -30
9z"/>
<path d="M5487 2104 c-14 -15 5 -22 34 -14 45 13 48 20 7 20 -19 0 -38 -3 -41
-6z"/>
<path d="M5442 2086 c1 -10 8 -17 13 -17 15 1 12 24 -3 29 -9 3 -13 -2 -10
-12z"/>
<path d="M6277 1924 c-9 -10 4 -34 19 -34 8 0 14 9 14 20 0 19 -19 27 -33 14z"/>
<path d="M6340 1920 c19 -13 30 -13 30 0 0 6 -10 10 -22 10 -19 0 -20 -2 -8
-10z"/>
<path d="M6413 1909 c-7 -7 -8 -18 -3 -28 5 -9 12 -33 15 -53 5 -29 11 -39 30
-44 34 -9 55 1 55 26 0 17 -4 20 -20 15 -19 -6 -19 -4 -9 19 24 52 -31 102
-68 65z"/>
<path d="M6325 1891 c-3 -5 -1 -12 5 -16 20 -12 10 -26 -11 -15 -11 7 -23 9
-26 6 -10 -9 41 -24 52 -15 6 4 17 4 25 -1 25 -16 38 2 21 29 -8 12 -12 12
-25 2 -13 -11 -16 -11 -16 3 0 17 -15 22 -25 7z"/>
<path d="M5096 1543 c-11 -11 -6 -23 9 -23 8 0 15 4 15 9 0 13 -16 22 -24 14z"/>
<path d="M5070 1484 c0 -22 2 -25 15 -14 8 7 15 19 15 26 0 8 -7 14 -15 14
-10 0 -15 -10 -15 -26z"/>
<path d="M6040 1402 c0 -18 18 -42 31 -42 11 0 19 29 13 45 -9 22 -44 19 -44
-3z"/>
<path d="M6580 1401 c0 -5 5 -13 10 -16 6 -3 10 -2 10 4 0 5 -4 13 -10 16 -5
3 -10 2 -10 -4z"/>
<path d="M6532 1388 c3 -7 13 -15 22 -16 12 -3 17 1 14 10 -3 7 -13 15 -22 16
-12 3 -17 -1 -14 -10z"/>
<path d="M4730 1021 c0 -65 11 -82 39 -57 10 9 22 16 27 16 5 0 17 14 26 30 9
17 24 30 33 30 8 0 15 9 15 20 0 18 -7 20 -70 20 l-70 0 0 -59z"/>
<path d="M4775 950 c-8 -13 3 -30 20 -30 11 0 25 20 25 36 0 9 -39 4 -45 -6z"/>
</g>
</svg>
