<?xml version="1.0" standalone="no"?>
<!DOCTYPE svg PUBLIC "-//W3C//DTD SVG 20010904//EN"
 "http://www.w3.org/TR/2001/REC-SVG-20010904/DTD/svg10.dtd">
<svg version="1.0" xmlns="http://www.w3.org/2000/svg"
 width="800.000000pt" height="800.000000pt" viewBox="0 0 800.000000 800.000000"
 preserveAspectRatio="xMidYMid meet">
<metadata>
Created by potrace 1.16, written by Peter Selinger 2001-2019
</metadata>
<g transform="translate(0.000000,800.000000) scale(0.100000,-0.100000)"
fill="#000000" stroke="none">
<path d="M0 5364 c0 -2314 2 -2635 15 -2631 8 4 17 2 20 -3 4 -6 -3 -10 -14
-10 l-21 0 0 -1360 0 -1360 4000 0 4000 0 0 1599 c0 1270 -3 1600 -12 1604
-10 4 -10 6 0 6 9 1 12 487 12 2396 l0 2395 -2815 0 c-1548 0 -2815 -2 -2815
-4 0 -2 26 -20 57 -41 37 -25 68 -38 85 -37 39 3 183 -54 221 -88 18 -15 50
-37 72 -48 35 -18 46 -32 80 -106 38 -81 42 -86 90 -106 40 -17 54 -29 69 -61
10 -23 30 -46 45 -52 36 -16 47 -33 61 -97 7 -30 22 -71 34 -91 17 -29 25 -35
41 -28 28 11 45 11 45 0 0 -5 -12 -12 -27 -16 -41 -9 -57 -25 -76 -73 -22 -54
-21 -82 0 -97 15 -11 16 -16 3 -41 -23 -46 -23 -47 -12 -40 6 4 8 -2 5 -14 -7
-25 -10 -25 -23 1 -9 16 -8 26 5 46 15 23 15 26 -1 44 -13 14 -15 27 -9 56 4
21 8 48 9 60 0 12 3 20 5 18 2 -2 11 6 21 17 17 21 16 24 -5 62 -13 23 -28 66
-34 97 -10 48 -17 60 -49 80 -20 13 -45 41 -55 61 -14 28 -29 41 -63 54 -42
16 -49 23 -90 105 -38 77 -50 91 -86 110 -24 12 -47 28 -51 35 -17 30 -175 94
-230 94 -19 0 -56 18 -103 50 l-73 50 -1166 0 -1165 0 0 -2636z m2511 2339
c13 -16 12 -17 -3 -4 -10 7 -18 15 -18 17 0 8 8 3 21 -13z m982 -331 c-5 -34
-15 -56 -39 -79 -17 -18 -34 -33 -38 -33 -10 0 39 69 49 70 6 0 10 24 10 55
-1 42 2 52 12 44 8 -8 10 -25 6 -57z m-117 -169 c-14 -15 -31 -43 -37 -60 -6
-18 -15 -33 -20 -33 -12 0 -12 1 7 46 17 41 67 99 72 84 2 -5 -8 -22 -22 -37z
m-53 -133 c-7 -28 -13 -25 -13 6 0 14 4 23 9 20 5 -3 7 -15 4 -26z m-136 -155
c9 -25 -4 -29 -17 -6 -7 15 -7 21 0 21 6 0 13 -7 17 -15z m43 -50 c7 -8 8 -15
2 -15 -5 0 -15 7 -22 15 -7 8 -8 15 -2 15 5 0 15 -7 22 -15z m39 -51 c3 -16 1
-17 -13 -5 -19 16 -21 34 -3 29 6 -3 14 -13 16 -24z m35 -40 c10 -25 -1 -29
-14 -5 -6 12 -7 21 -1 21 5 0 12 -7 15 -16z m26 -60 c0 -8 -4 -12 -10 -9 -5 3
-10 13 -10 21 0 8 5 12 10 9 6 -3 10 -13 10 -21z m28 -52 c6 -18 -15 -14 -22
4 -4 10 -1 14 6 12 6 -2 14 -10 16 -16z m26 -48 c9 -22 -3 -32 -14 -14 -12 19
-12 30 -1 30 5 0 12 -7 15 -16z m27 -49 c5 4 6 -1 3 -9 -8 -20 -24 -11 -23 12
0 11 2 12 6 4 2 -6 9 -10 14 -7z m23 -61 c9 -22 -3 -32 -14 -14 -12 19 -12 30
-1 30 5 0 12 -7 15 -16z m12 -71 c-11 -11 -17 4 -9 23 7 18 8 18 11 1 2 -10 1
-21 -2 -24z m34 -47 c0 -5 -7 -3 -15 4 -8 7 -12 17 -9 22 7 10 24 -9 24 -26z
m30 -44 c0 -15 -2 -15 -10 -2 -13 20 -13 33 0 25 6 -3 10 -14 10 -23z m-3 -64
c-3 -7 -5 -2 -5 12 0 14 2 19 5 13 2 -7 2 -19 0 -25z m23 -60 c0 -5 -4 -8 -10
-8 -5 0 -10 10 -10 23 0 18 2 19 10 7 5 -8 10 -18 10 -22z m-3088 -50 c-7 -7
-12 -8 -12 -2 0 14 12 26 19 19 2 -3 -1 -11 -7 -17z m3102 6 c8 -21 8 -24 -3
-24 -5 0 -11 9 -14 20 -6 24 8 27 17 4z m-3120 -49 c-6 -16 -24 -21 -24 -7 0
11 11 22 21 22 5 0 6 -7 3 -15z m3139 -25 c-7 -8 -22 24 -16 34 4 5 10 1 13
-10 4 -10 6 -21 3 -24z m-3186 -17 c-9 -9 -20 -13 -24 -9 -4 4 -1 11 7 16 25
16 35 11 17 -7z m-167 -3 c0 -5 -9 -10 -20 -10 -11 0 -20 5 -20 10 0 6 9 10
20 10 11 0 20 -4 20 -10z m60 0 c0 -5 -9 -10 -20 -10 -11 0 -20 5 -20 10 0 6
9 10 20 10 11 0 20 -4 20 -10z m60 0 c0 -5 -9 -10 -20 -10 -11 0 -20 5 -20 10
0 6 9 10 20 10 11 0 20 -4 20 -10z m3250 -9 c0 -5 3 -17 7 -27 5 -12 3 -15 -6
-9 -10 5 -11 2 -6 -14 4 -12 2 -21 -4 -21 -6 0 -11 4 -11 9 0 5 -3 17 -7 27
-5 12 -3 15 6 9 10 -5 11 -2 6 14 -4 12 -2 21 4 21 6 0 11 -4 11 -9z m-3433
-18 c-9 -9 -20 -13 -24 -9 -4 4 -1 11 7 16 25 16 35 11 17 -7z m3446 -88 c4
-8 2 -17 -3 -20 -6 -4 -10 -4 -10 -1 0 2 -3 11 -6 20 -3 9 -2 16 4 16 5 0 12
-7 15 -15z m33 -72 c-4 -4 -11 -1 -16 7 -16 25 -11 35 7 17 9 -9 13 -20 9 -24z
m28 -29 c9 -24 7 -28 -9 -14 -17 14 -20 30 -6 30 5 0 12 -7 15 -16z m30 -50
c9 -24 7 -28 -9 -14 -17 14 -20 30 -6 30 5 0 12 -7 15 -16z m30 -50 c10 -25
-1 -29 -14 -5 -6 12 -7 21 -1 21 5 0 12 -7 15 -16z m36 -60 c0 -8 -4 -12 -10
-9 -5 3 -10 13 -10 21 0 8 5 12 10 9 6 -3 10 -13 10 -21z m30 -50 c0 -8 -4
-12 -10 -9 -5 3 -10 13 -10 21 0 8 5 12 10 9 6 -3 10 -13 10 -21z m24 -50 c9
-22 -3 -32 -14 -14 -12 19 -12 30 -1 30 5 0 12 -7 15 -16z m171 -34 c3 -5 -3
-10 -15 -10 -12 0 -18 5 -15 10 3 6 10 10 15 10 5 0 12 -4 15 -10z m-150 -38
c-8 -9 -25 20 -18 31 3 5 10 2 15 -7 6 -10 7 -20 3 -24z m105 7 c0 -11 -4 -17
-10 -14 -5 3 -10 15 -10 26 0 11 5 17 10 14 6 -3 10 -15 10 -26z m98 3 c6 -18
-15 -14 -22 4 -4 10 -1 14 6 12 6 -2 14 -10 16 -16z m-188 -53 c0 -11 -4 -17
-10 -14 -5 3 -10 13 -10 21 0 8 5 14 10 14 6 0 10 -9 10 -21z m215 10 c11 -17
-1 -21 -15 -4 -8 9 -8 15 -2 15 6 0 14 -5 17 -11z m-115 -19 c0 -11 -4 -20
-10 -20 -5 0 -10 9 -10 20 0 11 5 20 10 20 6 0 10 -9 10 -20z m170 -21 c0 -4
-7 -6 -15 -3 -8 4 -15 10 -15 15 0 4 7 6 15 3 8 -4 15 -10 15 -15z m-250 -41
c0 -5 -4 -8 -10 -8 -5 0 -10 10 -10 23 0 18 2 19 10 7 5 -8 10 -18 10 -22z
m83 7 c4 -8 2 -17 -3 -20 -6 -4 -10 3 -10 14 0 25 6 27 13 6z m282 -31 c15
-16 19 -16 51 0 19 9 40 16 45 16 17 0 83 -56 97 -82 7 -13 37 -39 66 -57 43
-28 56 -43 69 -80 31 -88 34 -221 5 -221 -6 0 -7 10 -3 28 11 39 7 99 -12 166
-15 53 -21 61 -69 92 -28 18 -61 48 -73 67 -11 18 -35 42 -54 52 -32 17 -34
17 -75 -4 -40 -21 -69 -21 -57 0 4 5 -1 12 -9 15 -17 7 -22 24 -7 24 5 0 17
-7 26 -16z m-355 -25 c0 -11 -4 -17 -10 -14 -5 3 -10 13 -10 21 0 8 5 14 10
14 6 0 10 -9 10 -21z m101 5 c12 -14 11 -16 -5 -13 -11 2 -21 10 -24 17 -5 17
13 15 29 -4z m-11 -49 c0 -14 -4 -25 -10 -25 -11 0 -14 33 -3 43 11 11 13 8
13 -18z m-80 -15 c0 -11 -2 -20 -4 -20 -2 0 -6 9 -9 20 -3 11 -1 20 4 20 5 0
9 -9 9 -20z m32 -71 c15 -10 -3 -39 -25 -39 -20 0 -21 0 -1 16 13 11 15 17 7
20 -7 3 -13 15 -13 27 1 22 1 22 12 2 6 -11 15 -23 20 -26z m-122 -374 c14 -4
47 -25 73 -47 27 -23 67 -46 90 -53 36 -10 42 -16 44 -41 2 -27 2 -28 -8 -7
-7 12 -25 25 -42 29 -17 3 -58 28 -91 55 -34 27 -67 49 -75 49 -17 0 -101 79
-101 94 0 6 19 -8 43 -31 23 -22 53 -44 67 -48z m847 18 c4 -10 -37 -26 -45
-18 -3 3 1 12 8 20 14 17 31 16 37 -2z m-57 -58 c0 -27 -7 -30 -30 -15 -10 6
-11 10 -2 10 6 0 12 7 12 15 0 8 5 15 10 15 6 0 10 -11 10 -25z m40 -35 c0 -5
-7 -10 -15 -10 -8 0 -15 5 -15 10 0 6 7 10 15 10 8 0 15 -4 15 -10z m-1613
-26 c-3 -3 -12 -4 -19 -1 -8 3 -5 6 6 6 11 1 17 -2 13 -5z m2253 -13 c0 -15
-16 -22 -35 -15 -13 5 -14 8 -3 15 18 12 38 11 38 0z m-670 -182 c0 -5 -4 -9
-10 -9 -5 0 -10 7 -10 16 0 8 5 12 10 9 6 -3 10 -10 10 -16z m10 -29 c0 -5 -4
-10 -10 -10 -5 0 -10 5 -10 10 0 6 5 10 10 10 6 0 10 -4 10 -10z m14 -46 c8
-21 8 -24 -3 -24 -5 0 -11 9 -14 20 -6 24 8 27 17 4z m20 -60 c9 -23 7 -36 -3
-30 -12 8 -21 46 -11 46 4 0 11 -7 14 -16z m801 -53 c-3 -12 -18 -27 -33 -35
-33 -16 -302 -30 -302 -16 0 10 32 12 185 15 85 2 118 13 136 46 13 25 23 18
14 -10z m119 -108 c2 -49 4 -91 5 -94 1 -4 22 -12 49 -19 26 -7 39 -15 30 -17
-30 -7 -98 17 -99 35 0 9 -2 62 -4 117 -3 69 -1 95 6 83 5 -10 11 -57 13 -105z
m-544 55 c0 -10 -4 -18 -10 -18 -5 0 -10 15 -10 33 0 24 3 28 10 17 5 -8 10
-23 10 -32z m-306 -63 c9 -31 30 -77 46 -103 15 -26 34 -71 40 -100 13 -56 24
-66 82 -77 21 -4 42 -13 49 -21 6 -8 15 -11 20 -8 9 5 69 -23 69 -32 0 -4 -11
-3 -25 0 -28 7 -32 0 -11 -23 24 -28 136 -257 136 -279 0 -12 10 -30 22 -42
12 -11 17 -20 12 -20 -12 0 -31 -50 -27 -70 4 -18 77 -66 116 -75 44 -11 115
3 122 25 3 11 17 20 32 22 15 2 28 9 31 16 2 7 -2 11 -10 10 -9 -2 -14 11 -16
45 -2 33 0 47 7 42 6 -3 11 -22 11 -42 0 -27 3 -34 15 -29 11 4 15 -2 15 -24
0 -25 -4 -30 -25 -30 -14 0 -35 -10 -47 -22 -26 -26 -95 -40 -138 -28 -17 5
-52 21 -76 35 -48 28 -63 61 -46 100 6 14 7 27 3 30 -5 2 -12 21 -15 40 -4 19
-20 62 -35 95 l-29 60 -6 -35 c-4 -19 -12 -35 -17 -35 -6 0 -7 9 -4 23 4 12 7
24 7 27 0 22 -4 30 -17 30 -9 0 -32 27 -53 60 -20 32 -41 59 -46 60 -5 0 -31
-15 -58 -32 -45 -32 -47 -35 -48 -80 0 -38 3 -46 15 -42 8 4 15 1 15 -5 0 -6
7 -11 15 -11 8 0 15 -7 15 -16 0 -12 7 -15 30 -12 20 3 35 -1 45 -12 14 -15
13 -19 -6 -36 -21 -19 -22 -19 -15 2 6 18 2 22 -30 27 -22 4 -47 1 -63 -7 -14
-8 -42 -17 -61 -21 -86 -17 -109 -26 -115 -46 -4 -11 -24 -27 -46 -37 -29 -12
-39 -23 -39 -39 0 -13 -4 -23 -10 -23 -5 0 -10 11 -10 25 0 14 -5 25 -11 25
-6 0 -27 14 -46 30 -54 48 -58 43 -55 -70 2 -56 -1 -100 -6 -100 -5 0 -7 -22
-4 -50 4 -47 3 -50 -19 -50 -18 0 -20 3 -11 12 15 15 16 48 2 48 -6 0 -10 35
-10 85 0 67 3 87 15 91 9 4 15 19 15 35 l0 29 -62 -7 c-35 -3 -64 -10 -66 -15
-2 -4 -10 -8 -18 -8 -8 0 -14 -4 -14 -10 0 -5 -5 -10 -11 -10 -6 0 -8 7 -5 16
5 13 -3 15 -46 12 l-52 -3 -14 -48 c-13 -47 -47 -77 -87 -77 -9 0 -15 -9 -15
-22 0 -30 -12 -14 -27 35 -12 42 -9 63 7 37 7 -11 12 -9 29 11 17 20 20 21 21
7 0 -10 -4 -18 -10 -18 -5 0 -10 -7 -10 -15 0 -37 64 0 74 42 4 16 9 36 12 46
4 12 0 17 -13 17 -17 1 -17 2 2 16 12 9 21 11 23 4 2 -6 49 -10 120 -10 79 0
112 3 102 10 -11 7 -5 10 25 11 66 2 79 -1 110 -32 17 -16 36 -29 43 -29 19 0
14 40 -5 47 -10 3 -34 18 -53 33 -19 15 -48 29 -63 32 -30 6 -128 -14 -159
-32 -12 -7 -18 -7 -18 0 0 5 -8 7 -17 4 -15 -5 -16 -4 -3 5 13 9 13 16 -2 58
-10 30 -19 99 -24 181 -8 149 -18 173 -76 187 -32 8 -33 8 -6 12 26 4 26 6 22
61 -10 108 2 99 -124 94 -78 -3 -110 -1 -110 7 0 7 38 11 120 11 l120 0 0 -25
c0 -17 7 -28 22 -34 18 -6 19 -9 5 -14 -27 -10 -23 -89 7 -124 13 -15 27 -43
30 -60 7 -32 9 -33 60 -33 39 0 61 -6 80 -21 26 -20 34 -21 147 -14 83 5 119
4 119 -4 0 -18 -251 -15 -276 4 -11 8 -41 14 -73 15 l-54 0 7 -102 c4 -55 14
-114 22 -129 8 -15 14 -35 14 -45 0 -9 6 -14 13 -11 6 2 39 10 72 17 33 7 66
18 73 23 8 6 12 6 12 -1 0 -5 8 -12 18 -15 9 -3 37 -21 61 -39 30 -22 45 -29
48 -20 3 6 9 10 14 6 5 -3 9 -1 9 5 0 28 137 71 202 62 22 -3 30 28 26 104
l-3 60 -85 5 -85 4 85 6 c79 5 85 7 88 28 4 26 13 27 57 6 31 -14 35 -14 60 2
25 17 26 19 9 31 -10 7 -25 13 -34 13 -10 0 -31 5 -47 11 -27 9 -33 18 -48 77
-10 37 -29 83 -41 102 -13 19 -33 62 -44 94 -23 68 -23 66 -12 66 5 0 16 -25
26 -55z m568 -17 c-16 -16 -15 -45 1 -51 7 -3 5 -6 -5 -6 -14 -1 -18 7 -18 34
0 26 4 35 17 35 13 0 14 -3 5 -12z m-4432 -28 c0 -5 -10 -10 -22 -10 -19 0
-20 2 -8 10 19 13 30 13 30 0z m55 -10 c3 -5 -1 -10 -9 -10 -8 0 -18 5 -21 10
-3 6 1 10 9 10 8 0 18 -4 21 -10z m65 -20 c0 -13 -11 -13 -30 0 -12 8 -11 10
8 10 12 0 22 -4 22 -10z m50 -10 c12 -8 11 -10 -7 -10 -13 0 -23 5 -23 10 0
13 11 13 30 0z m4640 -60 c0 -5 -2 -10 -4 -10 -3 0 -8 5 -11 10 -3 6 -1 10 4
10 6 0 11 -4 11 -10z m-1104 -27 c-10 -10 -19 5 -10 18 6 11 8 11 12 0 2 -7 1
-15 -2 -18z m1144 7 c0 -11 -4 -20 -10 -20 -5 0 -10 9 -10 20 0 11 5 20 10 20
6 0 10 -9 10 -20z m-306 -10 c8 -8 -15 -40 -28 -40 -8 0 -46 43 -46 53 0 10
60 -1 74 -13z m-1296 -32 c-2 -6 -10 -14 -16 -16 -7 -2 -10 2 -6 12 7 18 28
22 22 4z m252 -14 c0 -8 -4 -12 -10 -9 -5 3 -10 10 -10 16 0 5 5 9 10 9 6 0
10 -7 10 -16z m290 6 c0 -5 -4 -10 -10 -10 -5 0 -10 5 -10 10 0 6 5 10 10 10
6 0 10 -4 10 -10z m409 -55 c8 0 15 -13 16 -32 3 -31 -9 -46 -17 -22 -2 6 -15
12 -28 13 -13 0 -25 7 -28 15 -3 10 0 12 12 8 22 -9 20 -1 -9 37 -36 47 -30
57 8 16 18 -19 39 -35 46 -35z m636 55 c-3 -5 -13 -10 -21 -10 -8 0 -12 5 -9
10 3 6 13 10 21 10 8 0 12 -4 9 -10z m-1565 -36 c0 -2 -11 -4 -25 -4 -14 0
-25 4 -25 9 0 4 11 6 25 3 14 -2 25 -6 25 -8z m1564 -10 c9 -23 7 -46 -3 -40
-11 7 -21 56 -11 56 4 0 11 -7 14 -16z m-417 -66 c-3 -7 -5 -2 -5 12 0 14 2
19 5 13 2 -7 2 -19 0 -25z m263 -8 c0 -5 -4 -10 -10 -10 -5 0 -10 5 -10 10 0
6 5 10 10 10 6 0 10 -4 10 -10z m-930 -36 c0 -8 -4 -12 -10 -9 -5 3 -10 13
-10 21 0 8 5 12 10 9 6 -3 10 -13 10 -21z m-3820 -14 c0 -5 -4 -10 -10 -10 -5
0 -10 5 -10 10 0 6 5 10 10 10 6 0 10 -4 10 -10z m3750 -5 c0 -8 -4 -15 -10
-15 -5 0 -10 7 -10 15 0 8 5 15 10 15 6 0 10 -7 10 -15z m1274 9 c25 -4 46
-11 46 -16 0 -6 -17 -7 -40 -3 -53 9 -162 9 -238 0 -41 -5 -62 -3 -62 3 0 17
206 28 294 16z m-4916 -46 c-2 -6 -10 -14 -16 -16 -7 -2 -10 2 -6 12 7 18 28
22 22 4z m3252 -17 c0 -8 -81 -15 -325 -26 -78 -4 -93 -2 -70 6 17 6 102 14
190 18 88 4 170 9 183 9 12 1 22 -2 22 -7z m-3244 -38 c-11 -11 -17 4 -9 23 7
18 8 18 11 1 2 -10 1 -21 -2 -24z m-39 2 c-4 -8 -11 -15 -17 -15 -7 0 -7 6 0
21 13 23 26 19 17 -6z m2278 -5 c3 -5 -1 -10 -9 -10 -9 0 -16 5 -16 10 0 6 4
10 9 10 6 0 13 -4 16 -10z m-2100 -10 c3 -5 -1 -10 -9 -10 -8 0 -18 5 -21 10
-3 6 1 10 9 10 8 0 18 -4 21 -10z m4479 -5 c-4 -8 -8 -15 -10 -15 -2 0 -4 7
-4 15 0 8 4 15 10 15 5 0 7 -7 4 -15z m-4564 -35 c-19 -21 -30 -27 -30 -17 0
15 49 61 57 54 2 -3 -10 -19 -27 -37z m-20 20 c0 -13 -11 -13 -30 0 -12 8 -11
10 8 10 12 0 22 -4 22 -10z m165 0 c8 -13 -15 -13 -35 0 -12 8 -11 10 7 10 12
0 25 -4 28 -10z m-241 -16 c8 -21 8 -24 -3 -24 -5 0 -11 9 -14 20 -6 24 8 27
17 4z m4446 -24 c0 -24 4 -30 21 -30 11 0 32 9 46 20 15 11 29 18 32 14 9 -9
-40 -42 -73 -48 -16 -3 -30 -5 -32 -4 -1 2 -5 20 -9 41 -5 25 -4 37 4 37 6 0
11 -13 11 -30z m191 -3 c-8 -8 -11 -7 -11 4 0 20 13 34 18 19 3 -7 -1 -17 -7
-23z m-1433 5 c2 -7 -7 -12 -22 -12 -27 0 -35 15 -13 23 17 7 30 3 35 -11z
m-438 -7 c0 -12 -24 -55 -32 -55 -12 0 -10 17 4 40 12 18 28 27 28 15z m-2747
-45 c-7 -8 -22 24 -16 34 4 5 10 1 13 -10 4 -10 6 -21 3 -24z m3197 20 c-8 -5
-18 -6 -24 -3 -5 4 -1 10 10 13 24 9 34 2 14 -10z m-3145 -20 c-4 -13 1 -22
15 -30 25 -14 20 -25 -7 -16 -13 4 -20 17 -21 42 -2 23 1 33 8 29 6 -4 8 -15
5 -25z m4535 10 c-19 -12 -30 -12 -30 -1 0 10 31 20 40 14 2 -2 -2 -8 -10 -13z
m-1617 -22 c6 -21 2 -36 -7 -27 -10 11 -16 49 -8 49 5 0 12 -10 15 -22z m-478
2 c3 -6 -5 -10 -19 -10 -14 0 -28 5 -31 10 -3 6 5 10 19 10 14 0 28 -4 31 -10z
m60 0 c-3 -5 -16 -10 -28 -10 -18 0 -19 2 -7 10 20 13 43 13 35 0z m750 -10
c-3 -5 -13 -10 -21 -10 -8 0 -12 5 -9 10 3 6 13 10 21 10 8 0 12 -4 9 -10z
m-3279 -9 c-3 -5 -15 -7 -26 -4 -28 7 -25 13 6 13 14 0 23 -4 20 -9z m3417 -8
c-7 -2 -19 -2 -25 0 -7 3 -2 5 12 5 14 0 19 -2 13 -5z m-3303 -25 c0 -6 -7 -7
-16 -4 -9 3 -18 6 -20 6 -3 0 -3 4 1 10 7 11 35 2 35 -12z m2885 12 c-3 -5
-12 -7 -20 -3 -21 7 -19 13 6 13 11 0 18 -4 14 -10z m55 -12 c0 -13 -23 -5
-28 10 -2 7 2 10 12 6 9 -3 16 -11 16 -16z m-2914 -35 c-11 -11 -17 4 -9 23 7
18 8 18 11 1 2 -10 1 -21 -2 -24z m3054 18 c0 -5 -7 -14 -15 -21 -16 -14 -18
-10 -9 14 6 17 24 22 24 7z m-110 -34 c0 -5 -4 -5 -10 -2 -5 3 -10 14 -10 23
0 15 2 15 10 2 5 -8 10 -19 10 -23z m-417 2 c-8 -8 -16 -8 -30 0 -16 9 -14 10
12 11 21 0 26 -3 18 -11z m261 -7 c5 -14 15 -16 50 -14 39 3 49 0 78 -27 41
-38 33 -48 -15 -16 -52 36 -116 32 -72 -5 8 -7 15 -16 15 -21 0 -20 -18 -7
-50 36 -31 41 -37 45 -77 45 -24 0 -43 5 -43 10 0 6 24 10 54 10 43 0 56 -4
60 -18z m-2810 -17 c-6 -16 -24 -21 -24 -7 0 11 11 22 21 22 5 0 6 -7 3 -15z
m3872 -33 c-12 -11 -18 7 -10 30 l8 23 4 -23 c2 -13 1 -26 -2 -30z m-3851 -23
c-7 -10 -35 -1 -35 11 0 5 9 6 20 3 11 -3 17 -9 15 -14z m3550 -9 c-5 -17 -2
-20 24 -20 17 0 31 -5 31 -11 0 -7 -10 -9 -24 -7 -15 3 -27 0 -30 -8 -3 -8
-11 -14 -18 -14 -9 0 -9 3 -1 11 7 7 9 25 6 40 -4 19 -1 29 6 29 8 0 10 -8 6
-20z m-3495 -10 c0 -13 -11 -13 -30 0 -12 8 -11 10 8 10 12 0 22 -4 22 -10z
m2869 -52 c-17 -32 -29 -68 -29 -90 0 -21 -4 -38 -10 -38 -14 0 -12 28 6 91 9
30 15 55 13 56 -5 3 34 32 43 33 3 0 -7 -24 -23 -52z m734 35 c6 -6 -21 -32
-35 -33 -3 0 -4 9 -1 20 5 20 23 26 36 13z m-3563 -13 c8 -5 11 -12 7 -16 -4
-4 -15 0 -24 9 -18 18 -8 23 17 7z m2873 -20 c3 -13 0 -20 -9 -20 -8 0 -14 9
-14 20 0 11 4 20 9 20 5 0 11 -9 14 -20z m1495 -67 c22 -49 45 -105 50 -125 6
-21 20 -50 31 -64 28 -36 27 -54 -5 -54 -30 0 -100 52 -109 81 -4 11 -1 42 5
69 12 48 8 72 -28 168 -2 6 0 12 5 12 6 0 28 -39 51 -87z m-945 30 c-3 -7 2
-16 11 -19 17 -7 22 -24 7 -24 -5 0 -16 7 -25 15 -15 15 -33 4 -22 -14 3 -5
-1 -14 -8 -20 -12 -10 -14 -6 -12 23 2 20 -1 36 -5 36 -5 0 -9 4 -9 8 0 4 15
8 34 8 24 0 32 -4 29 -13z m107 -4 c0 -11 -4 -17 -10 -14 -5 3 -10 13 -10 21
0 8 5 14 10 14 6 0 10 -9 10 -21z m-186 -15 c8 -20 -1 -34 -21 -34 -10 0 -13
6 -9 16 3 9 6 20 6 25 0 15 17 10 24 -7z m-284 -4 c0 -5 -4 -10 -10 -10 -5 0
-10 5 -10 10 0 6 5 10 10 10 6 0 10 -4 10 -10z m430 -35 c14 -16 10 -18 -14
-9 -9 3 -16 10 -16 15 0 14 16 11 30 -6z m52 -17 c-7 -7 -8 -17 -1 -30 5 -10
6 -18 1 -18 -11 0 -32 46 -25 54 4 3 13 6 22 6 11 0 12 -3 3 -12z m-178 -33
c-4 -8 -10 -12 -15 -9 -11 6 -2 24 11 24 5 0 7 -7 4 -15z m32 -62 c-4 -4 -11
-1 -16 7 -16 25 -11 35 7 17 9 -9 13 -20 9 -24z m144 17 c0 -5 -9 -10 -21 -10
-11 0 -17 5 -14 10 3 6 13 10 21 10 8 0 14 -4 14 -10z m2727 -16 c-3 -3 -12
-4 -19 -1 -8 3 -5 6 6 6 11 1 17 -2 13 -5z m-2827 -14 c12 -8 11 -10 -7 -10
-13 0 -23 5 -23 10 0 13 11 13 30 0z m60 -5 c0 -8 -7 -15 -15 -15 -26 0 -18
20 13 29 1 1 2 -6 2 -14z m2897 -21 c-3 -3 -12 -4 -19 -1 -8 3 -5 6 6 6 11 1
17 -2 13 -5z m-1927 -146 c0 -12 -24 -10 -38 4 -20 20 -13 28 13 16 14 -6 25
-15 25 -20z m-27 -48 c-3 -11 -9 -17 -14 -15 -10 7 -1 35 11 35 5 0 6 -9 3
-20z m-103 -9 c0 -6 -4 -13 -10 -16 -5 -3 -10 1 -10 9 0 9 5 16 10 16 6 0 10
-4 10 -9z m80 -30 c0 -13 -29 -35 -37 -28 -7 8 15 37 28 37 5 0 9 -4 9 -9z
m-100 -18 c0 -5 -5 -15 -10 -23 -8 -12 -10 -11 -10 8 0 12 5 22 10 22 6 0 10
-3 10 -7z m-1680 -11 c0 -9 -66 -32 -91 -32 -22 0 3 18 41 28 46 13 50 14 50
4z m-395 -49 c-7 -30 -13 -39 -19 -32 -8 8 6 59 16 59 6 0 7 -11 3 -27z m-92
10 c-7 -2 -19 -2 -25 0 -7 3 -2 5 12 5 14 0 19 -2 13 -5z m67 -3 c0 -5 -9 -10
-20 -10 -11 0 -20 5 -20 10 0 6 9 10 20 10 11 0 20 -4 20 -10z m-94 -35 c-21
-21 -26 -19 -26 10 0 23 2 24 20 15 18 -10 19 -13 6 -25z m364 15 c-24 -15
-37 -11 -16 5 11 8 22 12 25 9 3 -3 -1 -9 -9 -14z m1820 -2 c0 -19 -2 -20 -10
-8 -13 19 -13 30 0 30 6 0 10 -10 10 -22z m-2110 -6 c0 -5 10 -14 23 -20 l22
-11 -22 0 c-12 -1 -24 5 -26 12 -4 9 -8 9 -15 -2 -7 -10 -14 -11 -28 -2 -18
10 -18 10 -1 11 10 0 15 5 12 10 -3 6 3 10 14 10 12 0 21 -4 21 -8z m90 -21
c0 -12 -20 -25 -27 -18 -7 7 6 27 18 27 5 0 9 -4 9 -9z m118 -60 l-24 -49 48
-38 c43 -35 58 -54 42 -54 -3 0 -24 16 -47 35 -22 19 -48 35 -57 35 -26 0 -57
-41 -65 -85 -4 -22 -11 -46 -17 -52 -14 -18 -101 -16 -144 2 -37 15 -59 11
-84 -19 -7 -9 -25 -16 -41 -16 -16 0 -50 -13 -77 -30 -93 -57 -109 -61 -182
-41 -52 14 -71 26 -102 61 -21 24 -36 46 -32 49 3 3 22 -12 43 -35 27 -31 50
-45 91 -57 67 -19 87 -15 166 35 34 21 73 38 87 38 14 0 39 11 55 25 29 24 31
24 72 10 23 -8 64 -15 90 -15 50 0 59 10 60 65 0 12 18 39 41 60 22 22 52 65
66 95 14 30 27 50 30 43 2 -7 -6 -34 -19 -62z m1887 58 c4 -6 -8 -24 -26 -40
-40 -35 -62 -39 -29 -4 19 21 21 25 7 25 -25 0 -21 18 6 23 12 2 25 5 29 6 4
0 10 -4 13 -10z m-5329 -106 c-7 -7 -26 7 -26 19 0 6 6 6 15 -2 9 -7 13 -15
11 -17z m5244 18 c0 -12 -20 -25 -27 -18 -7 7 6 27 18 27 5 0 9 -4 9 -9z
m-5194 -58 c-7 -7 -26 7 -26 19 0 6 6 6 15 -2 9 -7 13 -15 11 -17z m5141 10
c-9 -9 -20 -13 -24 -9 -4 4 -1 11 7 16 25 16 35 11 17 -7z m-5102 -61 c-8 -9
-35 20 -28 31 4 6 11 3 19 -8 8 -10 12 -21 9 -23z m3362 24 c-3 -8 -1 -17 6
-19 7 -2 9 -8 4 -12 -11 -13 -31 11 -24 29 4 9 9 16 13 16 3 0 4 -6 1 -14z
m1694 -19 c-8 -8 -11 -7 -11 4 0 20 13 34 18 19 3 -7 -1 -17 -7 -23z m-1642
-39 c15 -42 6 -48 -13 -9 -18 35 -19 41 -7 41 5 0 14 -14 20 -32z m-3389 -4
c0 -8 -4 -12 -10 -9 -5 3 -10 13 -10 21 0 8 5 12 10 9 6 -3 10 -13 10 -21z
m5010 17 c0 -5 -7 -14 -15 -21 -16 -14 -18 -10 -9 14 6 17 24 22 24 7z m-50
-40 c0 -5 -7 -11 -15 -15 -15 -5 -20 5 -8 17 9 10 23 9 23 -2z m-4936 -27 c9
-22 -3 -32 -14 -14 -12 19 -12 30 -1 30 5 0 12 -7 15 -16z m3456 6 c0 -5 -9
-10 -20 -10 -11 0 -20 5 -20 10 0 6 9 10 20 10 11 0 20 -4 20 -10z m115 0 c4
-7 -101 -133 -116 -138 -5 -2 -9 -11 -9 -20 -1 -15 -2 -15 -15 2 -12 16 -17
17 -30 6 -19 -16 -20 -3 -1 16 8 8 25 14 38 15 15 0 37 17 65 52 l42 52 -40 3
c-21 2 -39 7 -39 13 0 10 98 10 105 -1z m1321 -37 c-11 -11 -19 6 -11 24 8 17
8 17 12 0 3 -10 2 -21 -1 -24z m-4558 -2 c3 -9 0 -11 -7 -7 -7 4 -19 2 -27 -5
-19 -16 -30 -4 -13 15 16 18 40 17 47 -3z m-308 -26 c0 -7 6 -16 13 -18 7 -4
6 -6 -4 -6 -9 -1 -20 6 -23 15 -9 23 -7 36 4 29 6 -3 10 -12 10 -20z m366 -2
c-8 -8 -36 5 -36 17 0 7 6 7 21 0 11 -7 18 -14 15 -17z m2038 -20 c-7 -50 -31
-109 -41 -99 -3 3 -1 18 5 33 6 15 14 44 18 63 13 68 28 70 18 3z m-1987 16
c-14 -8 -22 -8 -30 0 -8 8 -3 11 19 11 25 -1 27 -2 11 -11z m63 -10 c0 -11 -3
-11 -24 -3 -23 9 -20 23 4 17 11 -3 20 -9 20 -14z m4371 -32 c-8 -8 -11 -4
-11 14 0 33 14 47 18 19 2 -12 -1 -27 -7 -33z m-4591 33 c0 -5 -2 -10 -4 -10
-3 0 -8 5 -11 10 -3 6 -1 10 4 10 6 0 11 -4 11 -10z m300 -16 c0 -14 -3 -14
-15 -4 -8 7 -15 14 -15 16 0 2 7 4 15 4 8 0 15 -7 15 -16z m-53 -11 c-9 -9
-20 -13 -24 -9 -4 4 -1 11 7 16 25 16 35 11 17 -7z m-463 -9 c9 -22 -3 -32
-14 -14 -12 19 -12 30 -1 30 5 0 12 -7 15 -16z m223 -21 c-3 -10 -5 -4 -5 12
0 17 2 24 5 18 2 -7 2 -21 0 -30z m317 -4 c-8 -14 -24 -10 -24 6 0 9 6 12 15
9 8 -4 12 -10 9 -15z m-494 2 c0 -17 -18 -21 -24 -6 -3 9 0 15 9 15 8 0 15 -4
15 -9z m540 -24 c0 -5 -4 -5 -10 -2 -5 3 -10 14 -10 23 0 15 2 15 10 2 5 -8
10 -19 10 -23z m2600 23 c12 -8 11 -10 -7 -10 -13 0 -23 5 -23 10 0 13 11 13
30 0z m1610 1 c0 -5 -7 -14 -15 -21 -16 -14 -18 -10 -9 14 6 17 24 22 24 7z
m-1652 -22 c-2 -6 -8 -10 -13 -10 -5 0 -11 4 -13 10 -2 6 4 11 13 11 9 0 15
-5 13 -11z m102 1 c0 -5 -6 -10 -14 -10 -8 0 -18 5 -21 10 -3 6 3 10 14 10 12
0 21 -4 21 -10z m60 0 c0 -5 -7 -10 -15 -10 -8 0 -15 5 -15 10 0 6 7 10 15 10
8 0 15 -4 15 -10z m-3047 -31 c20 -1 20 -2 -3 -8 -26 -7 -44 13 -31 34 3 6 7
2 9 -7 2 -10 13 -18 25 -19z m57 22 c0 -12 -20 -25 -27 -18 -7 7 6 27 18 27 5
0 9 -4 9 -9z m-243 -16 c9 -25 -4 -29 -17 -6 -7 15 -7 21 0 21 6 0 13 -7 17
-15z m3043 -7 c0 -19 -2 -20 -10 -8 -13 19 -13 30 0 30 6 0 10 -10 10 -22z
m1634 -2 c-6 -16 -24 -23 -24 -8 0 10 22 33 27 28 2 -2 1 -11 -3 -20z m-4124
-7 c0 -11 -3 -11 -24 -3 -23 9 -20 23 4 17 11 -3 20 -9 20 -14z m-285 -10 c11
-17 -1 -21 -15 -4 -8 9 -8 15 -2 15 6 0 14 -5 17 -11z m-135 -6 c10 9 11 9 8
-3 -2 -8 10 -34 29 -58 18 -24 33 -52 33 -62 0 -11 10 -20 25 -24 24 -6 36
-26 16 -26 -31 0 -61 21 -61 43 0 31 -47 93 -82 108 -34 14 -38 32 -4 19 16
-6 28 -5 36 3z m437 -25 c-3 -7 -5 -2 -5 12 0 14 2 19 5 13 2 -7 2 -19 0 -25z
m1638 12 c-4 -11 -2 -20 4 -20 6 0 11 -12 10 -27 l0 -28 -12 25 c-6 14 -15 28
-20 31 -10 7 2 39 15 39 5 0 6 -9 3 -20z m-2175 -12 c0 -13 -23 -5 -28 10 -2
7 2 10 12 6 9 -3 16 -11 16 -16z m2125 12 c3 -5 1 -10 -4 -10 -6 0 -11 5 -11
10 0 6 2 10 4 10 3 0 8 -4 11 -10z m905 -32 c0 -5 -4 -8 -10 -8 -5 0 -10 10
-10 23 0 18 2 19 10 7 5 -8 10 -18 10 -22z m1590 11 c-7 -11 -14 -19 -16 -16
-7 7 7 37 17 37 6 0 5 -9 -1 -21z m-4366 -15 c4 -10 1 -14 -6 -12 -15 5 -23
28 -10 28 5 0 13 -7 16 -16z m282 -41 c-11 -11 -19 6 -11 24 8 17 8 17 12 0 3
-10 2 -21 -1 -24z m4055 -16 c-13 -13 -15 1 -4 30 7 17 8 17 11 -1 2 -10 -1
-23 -7 -29z m-1561 26 c0 -5 -5 -15 -10 -23 -8 -12 -10 -11 -10 8 0 12 5 22
10 22 6 0 10 -3 10 -7z m-2490 -43 c0 -5 -4 -10 -10 -10 -5 0 -10 5 -10 10 0
6 5 10 10 10 6 0 10 -4 10 -10z m4020 -15 c-7 -9 -15 -13 -18 -10 -3 2 1 11 8
20 7 9 15 13 18 10 3 -2 -1 -11 -8 -20z m-1530 -11 c0 -8 -4 -12 -10 -9 -5 3
-10 13 -10 21 0 8 5 12 10 9 6 -3 10 -13 10 -21z m-910 6 c0 -5 -7 -10 -15
-10 -8 0 -15 5 -15 10 0 6 7 10 15 10 8 0 15 -4 15 -10z m-2270 -4 c0 -2 -8
-10 -17 -17 -16 -13 -17 -12 -4 4 13 16 21 21 21 13z m4669 -32 c-15 -18 -22
-13 -13 10 3 9 10 13 16 10 5 -3 4 -12 -3 -20z m-2439 -4 c0 -5 -7 -10 -15
-10 -8 0 -15 5 -15 10 0 6 7 10 15 10 8 0 15 -4 15 -10z m954 -16 c9 -24 7
-28 -9 -14 -17 14 -20 30 -6 30 5 0 12 -7 15 -16z m-2508 -19 c-18 -28 -21
-39 -6 -30 13 8 13 -11 0 -55 -7 -25 -7 -36 2 -41 7 -5 9 -12 4 -16 -5 -4 -11
-2 -13 5 -3 6 -13 12 -23 12 -10 0 -22 5 -25 10 -3 6 3 10 13 10 14 0 21 9 26
31 3 17 3 36 0 41 -8 12 15 58 29 58 5 0 2 -11 -7 -25z m1518 9 c9 -22 8 -24
-9 -24 -8 0 -15 9 -15 20 0 24 15 27 24 4z m2446 -25 c-7 -11 -14 -18 -17 -15
-8 8 5 36 17 36 7 0 7 -6 0 -21z m-1406 -20 c-4 -6 -11 -6 -20 2 -21 17 -17
31 6 19 11 -6 18 -15 14 -21z m-1069 0 c-4 -5 -13 -9 -22 -9 -13 0 -13 3 -3
15 13 15 35 11 25 -6z m-59 -15 c-3 -9 -6 -18 -6 -20 0 -3 -4 -3 -10 1 -11 7
-2 35 12 35 6 0 7 -7 4 -16z m2495 -27 c-8 -8 -11 -7 -11 4 0 20 13 34 18 19
3 -7 -1 -17 -7 -23z m-1367 1 c-1 -13 -3 -25 -3 -27 -1 -3 -6 0 -12 6 -12 12
-6 43 9 43 5 0 8 -10 6 -22z m-1141 -38 c-7 -28 -13 -25 -13 6 0 14 4 23 9 20
5 -3 7 -15 4 -26z m-1580 -18 c34 -23 50 -52 27 -52 -5 0 -10 5 -10 11 0 16
-26 39 -44 39 -9 0 -16 4 -16 9 0 11 -291 3 -301 -8 -4 -3 -14 -27 -24 -53
-19 -53 -30 -61 -30 -24 0 13 2 22 5 20 2 -3 12 15 21 38 l17 43 138 5 c160 6
166 5 217 -28z m4067 23 c0 -8 -7 -15 -16 -15 -14 0 -14 3 -4 15 7 8 14 15 16
15 2 0 4 -7 4 -15z m-59 -9 c-10 -11 -8 -15 6 -18 16 -3 15 -5 -4 -16 -20 -11
-23 -10 -20 5 3 21 16 43 24 43 3 0 0 -6 -6 -14z m-3801 -26 c8 -5 11 -12 7
-16 -4 -4 -15 0 -24 9 -18 18 -8 23 17 7z m1107 -22 c-3 -8 -6 -5 -6 6 -1 11
2 17 5 13 3 -3 4 -12 1 -19z m263 2 c0 -11 -4 -20 -10 -20 -5 0 -10 9 -10 20
0 11 5 20 10 20 6 0 10 -9 10 -20z m-1343 -37 c-3 -10 -5 -4 -5 12 0 17 2 24
5 18 2 -7 2 -21 0 -30z m3740 24 c0 -7 -9 -14 -19 -14 -20 -2 -25 13 -5 20 20
9 24 8 24 -6z m-3897 -27 c12 -8 11 -10 -7 -10 -13 0 -23 5 -23 10 0 13 11 13
30 0z m1493 -30 c-7 -28 -13 -25 -13 6 0 14 4 23 9 20 5 -3 7 -15 4 -26z
m2347 15 c-7 -9 -15 -13 -17 -11 -7 7 7 26 19 26 6 0 6 -6 -2 -15z m-3800 -5
c0 -7 7 -7 21 1 17 9 20 8 17 -3 -3 -7 -13 -15 -24 -17 -10 -2 -22 -8 -26 -15
-4 -6 -8 1 -8 17 0 15 5 27 10 27 6 0 10 -5 10 -10z m100 0 c0 -5 -9 -10 -20
-10 -11 0 -20 5 -20 10 0 6 9 10 20 10 11 0 20 -4 20 -10z m-600 -36 c0 -8 -4
-12 -10 -9 -5 3 -10 10 -10 16 0 5 5 9 10 9 6 0 10 -7 10 -16z m4257 -1 c-9
-9 -20 -13 -24 -9 -4 4 -1 11 7 16 25 16 35 11 17 -7z m-2311 -40 c-11 -11
-19 6 -11 24 8 17 8 17 12 0 3 -10 2 -21 -1 -24z m2259 27 c-3 -5 -13 -10 -21
-10 -8 0 -14 5 -14 10 0 6 9 10 21 10 11 0 17 -4 14 -10z m-65 -15 c-7 -9 -15
-13 -17 -11 -7 7 7 26 19 26 6 0 6 -6 -2 -15z m-4116 -21 c9 -22 -3 -32 -14
-14 -12 19 -12 30 -1 30 5 0 12 -7 15 -16z m1886 -3 c0 -12 -20 -25 -27 -18
-7 7 6 27 18 27 5 0 9 -4 9 -9z m2201 -34 c-8 -8 -11 -7 -11 4 0 20 13 34 18
19 3 -7 -1 -17 -7 -23z m-4077 -51 c-20 -27 -34 -33 -34 -16 0 6 7 13 15 16 8
4 15 16 15 27 0 15 3 18 11 10 8 -8 6 -18 -7 -37z m1866 19 c0 -14 -2 -25 -4
-25 -2 0 -6 11 -8 25 -3 14 -1 25 3 25 5 0 9 -11 9 -25z m2200 -4 c0 -12 -20
-25 -27 -18 -7 7 6 27 18 27 5 0 9 -4 9 -9z m-55 -40 c-3 -6 -11 -11 -17 -11
-6 0 -6 6 2 15 14 17 26 13 15 -4z m545 15 c0 -2 -8 -10 -17 -17 -16 -13 -17
-12 -4 4 13 16 21 21 21 13z m-595 -45 c-3 -6 -14 -11 -23 -11 -15 1 -15 2 2
15 21 16 32 13 21 -4z m-4004 -24 c-8 -8 -11 -7 -11 4 0 20 13 34 18 19 3 -7
-1 -17 -7 -23z m3959 4 c0 -5 -7 -12 -16 -15 -24 -9 -28 -7 -14 9 14 17 30 20
30 6z m-60 -46 c-7 -9 -15 -13 -18 -10 -3 2 1 11 8 20 7 9 15 13 18 10 3 -2
-1 -11 -8 -20z m-3910 5 c0 -5 -5 -10 -11 -10 -5 0 -7 5 -4 10 3 6 8 10 11 10
2 0 4 -4 4 -10z m717 4 c-3 -3 -12 -4 -19 -1 -8 3 -5 6 6 6 11 1 17 -2 13 -5z
m-482 -24 c4 -6 -5 -10 -20 -10 -15 0 -24 4 -20 10 3 6 12 10 20 10 8 0 17 -4
20 -10z m55 0 c0 -5 -7 -10 -15 -10 -8 0 -15 5 -15 10 0 6 7 10 15 10 8 0 15
-4 15 -10z m57 -1 c-14 -8 -22 -8 -30 0 -8 8 -3 11 19 11 25 -1 27 -2 11 -11z
m58 -81 c-6 -94 -33 -218 -47 -218 -11 0 -10 12 7 61 23 64 32 228 14 240 -11
6 -8 9 9 9 23 0 23 -1 17 -92z m-385 72 c0 -5 -6 -10 -14 -10 -8 0 -18 5 -21
10 -3 6 3 10 14 10 12 0 21 -4 21 -10z m35 0 c-3 -5 -10 -10 -16 -10 -5 0 -9
5 -9 10 0 6 7 10 16 10 8 0 12 -4 9 -10z m65 6 c0 -9 -40 -13 -46 -5 -3 5 6 9
20 9 14 0 26 -2 26 -4z m53 -3 c-7 -2 -21 -2 -30 0 -10 3 -4 5 12 5 17 0 24
-2 18 -5z m3697 -18 c-7 -8 -17 -15 -22 -15 -6 0 -5 7 2 15 7 8 17 15 22 15 6
0 5 -7 -2 -15z m-40 -34 c0 -12 -20 -25 -27 -18 -7 7 6 27 18 27 5 0 9 -4 9
-9z m-110 -11 c-19 -13 -30 -13 -30 0 0 6 10 10 23 10 18 0 19 -2 7 -10z m60
-12 c0 -11 -28 -10 -35 1 -3 6 4 9 15 8 11 -1 20 -5 20 -9z m-100 -7 c0 -5 -7
-14 -15 -21 -16 -14 -18 -10 -9 14 6 17 24 22 24 7z m-50 -51 c-20 -13 -33
-13 -25 0 3 6 14 10 23 10 15 0 15 -2 2 -10z m-50 -19 c0 -13 -28 -22 -35 -11
-3 4 1 11 7 13 20 8 28 8 28 -2z m-40 -38 c0 -5 -5 -15 -10 -23 -8 -12 -10
-11 -10 8 0 12 5 22 10 22 6 0 10 -3 10 -7z m-38 -36 c-7 -8 -8 -18 -4 -22 4
-5 2 -5 -4 -2 -15 8 -56 -22 -48 -35 4 -6 2 -8 -3 -5 -6 4 -23 -3 -37 -14 -15
-12 -30 -18 -34 -15 -3 4 7 17 23 30 25 20 27 26 17 39 -11 13 -10 17 7 26 28
15 40 13 18 -3 -12 -9 -14 -16 -7 -21 6 -3 24 5 41 20 32 26 52 27 31 2z
m3509 -4 c13 -16 12 -17 -3 -4 -17 13 -22 21 -14 21 2 0 10 -8 17 -17z m-6061
-44 c0 -11 -4 -17 -10 -14 -5 3 -10 13 -10 21 0 8 5 14 10 14 6 0 10 -9 10
-21z m645 -9 c3 -5 -3 -10 -14 -10 -12 0 -21 5 -21 10 0 6 6 10 14 10 8 0 18
-4 21 -10z m-55 -20 c-19 -13 -30 -13 -30 0 0 6 10 10 23 10 18 0 19 -2 7 -10z
m-1069 -61 c52 -34 97 -66 100 -71 3 -5 10 -9 15 -8 5 1 10 -4 12 -10 6 -16
-21 -1 -133 73 -103 68 -114 77 -98 77 6 0 53 -28 104 -61z m467 16 c2 -46
-14 -63 -20 -22 -3 18 10 67 17 67 1 0 3 -20 3 -45z m547 25 c-3 -5 -13 -10
-21 -10 -8 0 -12 5 -9 10 3 6 13 10 21 10 8 0 12 -4 9 -10z m-152 -24 c4 -9
14 -13 29 -9 l23 5 -25 -20 c-13 -11 -28 -19 -31 -16 -4 2 -10 -2 -13 -8 -3
-7 -3 -1 0 15 4 15 3 27 0 27 -17 0 -129 -51 -152 -69 -19 -15 -41 -21 -76
-21 -28 0 -59 -7 -74 -16 -23 -16 -26 -16 -48 5 -20 19 -33 21 -147 21 l-124
0 -12 -27 c-26 -55 -3 -116 39 -105 17 4 20 2 14 -13 -4 -11 0 -25 10 -36 20
-22 39 -25 31 -6 -4 11 7 11 55 4 53 -9 63 -15 96 -54 20 -25 47 -49 60 -54
12 -5 22 -15 22 -24 0 -9 9 -15 25 -15 22 0 25 4 25 35 0 24 -5 35 -15 35 -8
0 -17 14 -21 35 -8 42 0 65 22 65 16 0 104 59 104 70 0 3 -5 11 -12 18 -6 6
-9 15 -5 19 4 3 13 -2 20 -11 19 -25 51 -7 76 42 11 21 31 43 45 50 33 15 33
7 -1 -27 -16 -15 -43 -47 -61 -69 -18 -23 -37 -42 -43 -42 -5 0 -31 -16 -58
-35 -26 -19 -53 -35 -59 -35 -29 0 -15 -51 18 -62 10 -3 13 -17 11 -54 -1 -27
-4 -51 -6 -52 -7 -7 -85 10 -85 18 0 5 -25 34 -56 66 -43 43 -66 59 -95 64
-34 6 -42 4 -55 -14 l-15 -21 -25 30 c-13 17 -24 36 -24 43 0 6 -8 12 -18 12
-25 0 -42 19 -42 47 0 13 -12 35 -27 49 -25 23 -26 26 -8 24 37 -4 45 0 45 25
l0 25 137 0 c125 0 139 -2 159 -21 21 -20 24 -20 46 -5 13 9 43 16 71 16 35 0
57 6 80 24 18 13 59 33 92 44 74 25 72 25 78 8z m97 4 c-20 -13 -43 -13 -35 0
3 6 16 10 28 10 18 0 19 -2 7 -10z m1760 -24 c0 -2 -8 -10 -17 -17 -16 -13
-17 -12 -4 4 13 16 21 21 21 13z m2227 -28 c-3 -8 -6 -5 -6 6 -1 11 2 17 5 13
3 -3 4 -12 1 -19z m-2354 -8 c-3 -11 -9 -20 -14 -20 -11 0 -11 3 -3 24 9 23
23 20 17 -4z m-2422 -37 c13 -16 12 -17 -3 -4 -10 7 -18 15 -18 17 0 8 8 3 21
-13z m-221 -13 c0 -13 -20 -13 -40 0 -12 8 -9 10 13 10 15 0 27 -4 27 -10z
m727 -154 c-1 -19 -4 -33 -8 -30 -4 2 -9 -2 -12 -8 -2 -7 -8 -10 -12 -6 -4 4
-2 14 5 23 7 8 10 21 7 29 -3 8 -3 17 0 20 14 14 21 4 20 -28z m6050 -8 c-3
-8 -6 -5 -6 6 -1 11 2 17 5 13 3 -3 4 -12 1 -19z m-5957 -148 c0 -12 -40 -34
-47 -26 -9 8 17 36 33 36 8 0 14 -4 14 -10z m4347 -562 c-3 -8 -6 -5 -6 6 -1
11 2 17 5 13 3 -3 4 -12 1 -19z m-40 -90 c-3 -8 -6 -5 -6 6 -1 11 2 17 5 13 3
-3 4 -12 1 -19z"/>
<path d="M4800 3907 c0 -7 -3 -23 -7 -36 l-6 -24 32 19 c35 21 36 33 3 45 -15
6 -22 5 -22 -4z"/>
<path d="M4912 3911 c17 -46 77 -130 95 -134 22 -4 22 -4 -4 42 -43 75 -64
101 -80 101 -8 0 -13 -4 -11 -9z"/>
<path d="M4674 3691 c-62 -6 -94 -22 -94 -47 0 -18 18 -17 115 5 71 16 125 35
125 45 0 5 -76 3 -146 -3z"/>
<path d="M4550 3586 c0 -24 1 -24 30 -10 44 22 46 34 6 34 -31 0 -36 -3 -36
-24z"/>
<path d="M4393 3475 c0 -33 2 -45 4 -27 2 18 2 45 0 60 -2 15 -4 0 -4 -33z"/>
<path d="M5487 3270 c-3 -8 -10 -32 -16 -53 -9 -35 -8 -39 26 -72 20 -19 45
-35 56 -35 20 0 20 0 1 21 -10 11 -28 51 -40 87 -13 40 -24 61 -27 52z"/>
</g>
</svg>
