<?xml version="1.0" standalone="no"?>
<!DOCTYPE svg PUBLIC "-//W3C//DTD SVG 20010904//EN"
 "http://www.w3.org/TR/2001/REC-SVG-20010904/DTD/svg10.dtd">
<svg version="1.0" xmlns="http://www.w3.org/2000/svg"
 width="800.000000pt" height="800.000000pt" viewBox="0 0 800.000000 800.000000"
 preserveAspectRatio="xMidYMid meet">
<metadata>
Created by potrace 1.16, written by Peter Selinger 2001-2019
</metadata>
<g transform="translate(0.000000,800.000000) scale(0.100000,-0.100000)"
fill="#000000" stroke="none">
<path d="M0 6120 l0 -1879 68 -4 67 -3 -67 -2 -68 -2 0 -1087 c0 -669 4 -1082
10 -1073 7 12 12 12 29 -4 19 -17 21 -17 21 -3 0 20 16 23 22 5 3 -8 9 -4 17
10 7 14 8 22 1 22 -5 0 -10 7 -10 15 0 27 16 16 27 -18 7 -25 7 -36 -4 -45 -7
-7 -17 -10 -22 -7 -5 3 -12 1 -16 -5 -9 -14 -42 -13 -48 3 -3 6 -6 2 -6 -10
-1 -12 -7 -23 -13 -25 -9 -3 -8 -9 5 -22 18 -18 23 -56 8 -56 -5 0 -12 10 -14
23 -2 12 -5 -422 -6 -966 l-1 -987 2491 0 c2209 0 2490 2 2479 15 -7 8 -8 15
-2 15 5 0 15 -7 22 -15 18 -22 130 -21 130 1 0 8 -13 20 -30 25 -44 16 -41 52
8 83 l38 24 18 158 c10 88 22 179 28 204 6 25 59 162 119 306 60 144 109 267
109 273 0 7 -7 26 -16 43 -15 29 -15 32 1 44 10 8 22 11 26 8 14 -8 95 165
122 261 31 113 40 168 25 159 -8 -5 -9 -1 -4 12 14 36 27 119 27 174 0 81 17
270 29 315 11 44 8 -27 -12 -290 -6 -77 -11 -161 -13 -187 -4 -69 -13 -113
-45 -218 -36 -116 -105 -251 -124 -244 -17 6 -31 -12 -16 -21 5 -3 10 -25 10
-48 0 -31 -29 -111 -110 -304 l-111 -262 -20 -178 c-25 -206 -32 -232 -71
-245 -34 -12 -40 -48 -7 -48 14 0 24 -10 32 -30 l11 -30 1073 0 1073 0 0 35
c0 19 5 35 10 35 6 0 10 -16 10 -35 l0 -35 175 0 175 0 0 146 c0 94 4 143 10
139 6 -4 10 -63 10 -146 l0 -139 84 0 83 0 7 92 c3 50 6 122 6 160 0 43 4 68
11 68 8 0 9 -46 4 -160 l-8 -160 67 0 66 0 0 1110 c0 956 -2 1111 -14 1116 -8
3 -90 -19 -182 -50 -93 -30 -172 -52 -176 -50 -13 8 1 24 20 24 9 0 92 25 184
56 l168 56 0 1836 0 1837 -70 -75 c-38 -41 -69 -70 -70 -64 0 6 32 47 70 90
l70 78 0 1018 0 1018 -4000 0 -4000 0 0 -1880z m4994 370 c-6 -5 -24 21 -24
34 0 6 6 1 14 -10 8 -10 12 -21 10 -24z m46 -26 c0 -2 -9 -4 -21 -4 -11 0 -18
4 -14 10 5 8 35 3 35 -6z m60 2 c0 -2 -9 -6 -20 -9 -11 -3 -20 -1 -20 4 0 5 9
9 20 9 11 0 20 -2 20 -4z m-67 -86 c-3 -11 -9 -23 -14 -26 -10 -6 -12 29 -2
39 13 13 21 7 16 -13z m-3 -65 c0 -8 -4 -17 -10 -20 -6 -4 -10 5 -10 20 0 15
4 24 10 20 6 -3 10 -12 10 -20z m0 -60 c0 -8 -4 -17 -10 -20 -6 -4 -10 5 -10
20 0 15 4 24 10 20 6 -3 10 -12 10 -20z m0 -60 c0 -8 -4 -17 -10 -20 -6 -4
-10 5 -10 20 0 15 4 24 10 20 6 -3 10 -12 10 -20z m0 -60 c0 -8 -4 -17 -10
-20 -6 -4 -10 5 -10 20 0 15 4 24 10 20 6 -3 10 -12 10 -20z m-13 -72 c-3 -10
-5 -4 -5 12 0 17 2 24 5 18 2 -7 2 -21 0 -30z m0 -60 c-3 -10 -5 -4 -5 12 0
17 2 24 5 18 2 -7 2 -21 0 -30z m0 -60 c-3 -10 -5 -4 -5 12 0 17 2 24 5 18 2
-7 2 -21 0 -30z m-4 -63 c-7 -8 -22 24 -16 34 4 5 10 1 13 -10 4 -10 6 -21 3
-24z m26 -34 c7 -8 8 -17 3 -19 -4 -3 -13 3 -20 14 -14 22 0 26 17 5z m31 -62
c0 -8 -4 -14 -10 -14 -5 0 -10 9 -10 21 0 11 5 17 10 14 6 -3 10 -13 10 -21z
m262 6 c-19 -8 -21 -13 -12 -29 16 -31 -7 -70 -25 -41 -3 6 -2 10 3 10 17 0 0
40 -17 41 -20 1 38 28 59 28 8 0 5 -4 -8 -9z m-72 -25 c0 -22 -48 -51 -63 -36
-8 8 -4 11 16 11 20 0 27 5 27 20 0 11 5 20 10 20 6 0 10 -7 10 -15z m-120
-81 c-18 -21 -24 -10 -9 18 8 14 14 18 17 10 2 -7 -2 -19 -8 -28z m-270 16 c0
-5 -9 -10 -20 -10 -11 0 -20 5 -20 10 0 6 9 10 20 10 11 0 20 -4 20 -10z m-72
-14 c-10 -7 -18 -19 -18 -26 0 -9 -3 -10 -13 -1 -8 6 -16 10 -18 8 -3 -1 4 6
14 16 11 9 27 17 36 17 14 -1 14 -2 -1 -14z m132 -6 c0 -11 -4 -20 -10 -20 -5
0 -10 2 -10 4 0 2 -3 11 -6 20 -4 11 -1 16 10 16 9 0 16 -8 16 -20z m174 -31
c-27 -11 -34 -10 -34 0 0 11 31 20 44 13 5 -3 1 -9 -10 -13z m2736 -10 c0 -5
14 -15 30 -20 28 -10 44 -49 20 -49 -5 0 -10 9 -10 20 0 20 -22 26 -54 14 -20
-8 -11 -24 14 -24 10 0 22 -5 26 -12 5 -8 -3 -9 -31 -5 -20 3 -39 8 -41 10 -9
8 10 47 23 47 9 0 13 6 9 15 -3 8 -1 15 4 15 6 0 10 -5 10 -11z m-2910 -19 c0
-11 -2 -20 -4 -20 -2 0 -6 9 -9 20 -3 11 -1 20 4 20 5 0 9 -9 9 -20z m-250
-30 c-6 -11 -13 -20 -16 -20 -2 0 0 9 6 20 6 11 13 20 16 20 2 0 0 -9 -6 -20z
m260 -30 c0 -11 -4 -20 -10 -20 -5 0 -10 9 -10 20 0 11 5 20 10 20 6 0 10 -9
10 -20z m2720 11 c0 -4 -68 -80 -151 -167 -83 -88 -162 -175 -176 -194 -29
-40 -69 -73 -83 -68 -12 4 391 438 407 438 2 0 3 -4 3 -9z m-3022 -61 c-22
-25 -42 -38 -58 -38 -17 -1 -20 2 -10 6 36 16 60 40 55 54 -5 11 1 16 19 16
l26 0 -32 -38z m107 30 c-3 -5 -17 -10 -31 -10 -13 0 -24 5 -24 10 0 6 14 10
31 10 17 0 28 -4 24 -10z m200 -60 c4 -30 13 -54 23 -60 16 -9 16 -9 0 -10
-27 0 -21 -27 7 -34 29 -7 34 -26 6 -26 -11 0 -26 -3 -34 -6 -12 -4 -15 10
-16 78 -1 46 -6 85 -11 86 -15 5 -12 22 4 22 9 0 16 -17 21 -50z m-328 -35 c9
-25 -4 -29 -17 -6 -7 15 -7 21 0 21 6 0 13 -7 17 -15z m-171 -50 c-3 -26 -16
-48 -16 -26 0 7 -5 9 -11 5 -7 -4 -21 -8 -33 -9 -11 -1 -24 -3 -28 -4 -5 0 -8
-11 -8 -22 0 -17 -3 -19 -13 -10 -8 6 -16 10 -18 8 -3 -1 9 10 25 24 17 15 35
25 41 22 7 -2 23 5 36 16 13 11 25 20 26 21 1 0 0 -11 -1 -25z m593 -17 c20
-27 31 -54 31 -75 0 -18 26 -122 59 -231 32 -108 62 -213 66 -232 9 -46 172
-440 189 -460 20 -21 81 -176 95 -235 6 -27 20 -138 31 -245 20 -198 26 -251
39 -373 4 -37 4 -72 0 -79 -4 -6 -4 -21 0 -32 5 -12 11 -68 15 -126 4 -58 14
-139 21 -180 8 -41 19 -97 24 -125 5 -27 10 -101 11 -164 0 -63 5 -146 10
-185 12 -89 12 -86 1 -86 -5 0 -12 26 -15 58 -13 115 -17 132 -33 132 -10 0
-13 6 -9 16 3 9 6 20 6 25 0 6 5 7 11 3 8 -4 10 14 8 62 -2 38 0 75 4 82 5 7
3 12 -6 12 -11 0 -16 20 -21 83 -3 45 -10 114 -16 152 -6 39 -13 103 -16 143
-5 55 -10 72 -21 72 -11 0 -13 4 -6 13 17 21 21 65 12 150 -5 45 -11 109 -14
142 -17 214 -40 399 -55 455 -23 84 -48 140 -61 140 -5 0 -7 -4 -4 -10 3 -5 1
-10 -4 -10 -6 0 -11 4 -11 9 0 17 -400 -182 -401 -198 0 -10 -2 -12 -6 -4 -3
9 -39 -5 -113 -42 -113 -57 -211 -97 -218 -91 -5 6 31 116 38 116 4 0 13 -11
20 -24 7 -14 19 -27 26 -30 7 -3 122 48 256 113 134 65 280 135 326 156 91 42
96 52 57 105 -13 18 -30 49 -36 68 -7 20 -38 98 -70 174 -33 77 -86 234 -119
350 -33 115 -70 237 -81 271 -11 33 -21 73 -21 89 -1 15 -5 28 -10 28 -4 0 -8
7 -8 15 0 9 -7 18 -15 21 -8 4 -12 10 -9 15 8 14 10 12 43 -33z m-421 10 c-2
-24 28 -78 43 -78 5 0 9 -12 9 -26 0 -21 4 -25 20 -21 35 9 22 -12 -17 -28
-21 -9 -66 -35 -100 -58 l-63 -42 5 -70 c3 -38 8 -145 11 -237 l6 -167 119 59
c126 63 129 65 129 52 0 -5 -56 -37 -125 -71 l-126 -63 7 -171 c4 -95 8 -173
9 -175 1 -2 19 5 40 15 l36 17 -1 91 c-2 122 1 127 14 18 l11 -92 72 34 c126
59 87 22 -47 -45 l-129 -64 6 -193 c4 -127 3 -193 -4 -193 -6 0 -12 70 -16
181 -3 99 -7 183 -10 186 -3 2 -95 -38 -204 -90 -308 -148 -376 -178 -387
-173 -6 2 58 37 142 77 l152 73 -1 95 c-1 53 -4 133 -7 178 l-7 82 -90 -40
c-49 -21 -122 -56 -162 -77 l-72 -37 20 -31 c21 -34 23 -44 11 -44 -4 0 -16
14 -26 30 -13 23 -23 29 -37 25 -21 -7 -25 5 -8 22 8 8 -7 39 -53 112 -34 55
-68 100 -75 101 -6 0 -35 21 -65 46 -29 25 -74 56 -99 68 l-47 23 -17 -36
c-11 -23 -18 -66 -20 -119 -3 -82 -2 -84 24 -95 14 -6 30 -17 34 -24 5 -8 12
-11 17 -8 4 3 10 -1 13 -9 3 -8 22 -19 41 -26 35 -11 43 -34 8 -24 -15 5 -15
4 1 -6 9 -6 15 -15 12 -21 -4 -5 -42 18 -86 51 -43 34 -79 56 -79 50 0 -6 -5
-8 -10 -5 -6 4 -7 13 -2 23 5 9 9 69 11 132 1 76 7 125 17 144 12 26 12 32 -1
53 -15 23 -15 23 9 17 26 -6 37 7 50 59 6 24 3 29 -24 40 l-30 13 35 17 c69
33 95 14 57 -41 -10 -15 -22 -36 -26 -46 -5 -16 -4 -17 9 -6 12 10 15 10 15
-4 0 -9 -6 -16 -14 -16 -17 0 -26 -22 -26 -66 0 -30 5 -37 33 -49 19 -8 54
-31 78 -51 24 -20 60 -47 80 -59 23 -15 58 -58 99 -124 l62 -100 82 44 c44 24
120 60 167 80 l86 36 -5 187 c-2 103 -8 191 -12 196 -7 7 -93 -44 -110 -65
-12 -15 -110 -58 -110 -49 0 5 23 21 52 36 28 14 57 31 63 38 13 13 56 44 290
209 88 63 187 131 220 152 33 22 62 40 64 42 11 7 -25 34 -41 30 -10 -3 -20
-2 -23 3 -3 4 5 10 17 13 20 6 20 7 5 31 -19 28 -23 76 -7 76 5 0 9 -10 8 -22z
m-338 -81 c0 -2 -10 -12 -22 -23 l-23 -19 19 23 c18 21 26 27 26 19z m-71 -65
c-6 -10 -19 -23 -29 -28 -54 -29 -119 -81 -115 -91 2 -7 -2 -13 -10 -13 -29 0
-15 25 29 53 24 15 63 43 87 62 51 40 53 41 38 17z m728 -29 c-3 -10 -5 -4 -5
12 0 17 2 24 5 18 2 -7 2 -21 0 -30z m-227 -33 c0 -11 -4 -20 -9 -20 -5 0 -7
9 -4 20 3 11 7 20 9 20 2 0 4 -9 4 -20z m240 -20 c0 -11 -4 -20 -10 -20 -5 0
-10 9 -10 20 0 11 5 20 10 20 6 0 10 -9 10 -20z m-257 -40 c-3 -11 -9 -20 -14
-20 -5 0 -9 -11 -9 -25 0 -14 -4 -25 -10 -25 -14 0 -12 17 6 56 18 37 35 46
27 14z m257 -20 c0 -11 -4 -20 -10 -20 -5 0 -10 9 -10 20 0 11 5 20 10 20 6 0
10 -9 10 -20z m-914 -15 c-21 -16 -32 -13 -21 4 3 6 14 11 23 11 15 -1 15 -2
-2 -15z m914 -45 c0 -11 -4 -20 -10 -20 -5 0 -10 9 -10 20 0 11 5 20 10 20 6
0 10 -9 10 -20z m-299 -29 c-7 -5 -8 -18 0 -45 6 -21 7 -47 2 -60 -8 -23 -8
-23 -27 -5 -17 17 -18 19 -3 19 18 0 20 11 11 47 -4 13 -11 20 -20 16 -8 -3
-14 0 -14 5 0 6 9 13 19 17 11 3 22 13 26 23 6 13 9 14 12 3 3 -7 0 -16 -6
-20z m-825 -10 c-3 -5 -26 -12 -51 -15 -25 -4 -45 -12 -45 -19 0 -8 -3 -8 -12
1 -25 25 -78 8 -90 -30 -2 -6 -9 -8 -16 -4 -8 5 -5 14 10 31 16 19 32 25 62
26 23 0 59 4 81 8 56 12 67 12 61 2z m1124 -21 c0 -11 -4 -20 -10 -20 -5 0
-10 9 -10 20 0 11 5 20 10 20 6 0 10 -9 10 -20z m149 -52 c-19 -12 -287 -148
-294 -148 -3 0 -5 4 -5 8 0 5 32 23 70 42 39 19 70 38 70 44 0 5 3 7 6 3 3 -3
38 12 77 33 39 21 75 36 80 33 5 -3 3 -10 -4 -15z m-149 -8 c0 -11 -4 -20 -10
-20 -5 0 -10 9 -10 20 0 11 5 20 10 20 6 0 10 -9 10 -20z m-225 -10 c4 -6 -5
-10 -19 -10 -14 0 -26 5 -26 10 0 6 9 10 19 10 11 0 23 -4 26 -10z m-1105 -24
c0 -8 -4 -18 -10 -21 -5 -3 -10 3 -10 14 0 12 5 21 10 21 6 0 10 -6 10 -14z
m1027 -58 c-3 -7 -5 -2 -5 12 0 14 2 19 5 13 2 -7 2 -19 0 -25z m-1027 -5 c-1
-24 -2 -26 -11 -10 -5 9 -7 22 -4 27 10 17 15 11 15 -17z m1327 -35 c-3 -7 -5
-2 -5 12 0 14 2 19 5 13 2 -7 2 -19 0 -25z m-279 0 c19 -19 15 -24 -24 -26
-23 -2 -33 1 -29 8 3 5 13 10 21 10 8 0 12 5 9 10 -9 14 8 13 23 -2z m-1115
-28 c-3 -11 -7 -20 -9 -20 -2 0 -4 9 -4 20 0 11 4 20 9 20 5 0 7 -9 4 -20z
m33 -27 c-11 -11 -17 4 -9 23 7 18 8 18 11 1 2 -10 1 -21 -2 -24z m380 -1 c-9
-8 -26 10 -26 26 1 15 2 15 15 -2 8 -11 13 -21 11 -24z m994 8 c0 -19 -11 -26
-23 -14 -8 8 3 34 14 34 5 0 9 -9 9 -20z m-300 0 c0 -5 -5 -10 -11 -10 -5 0
-7 5 -4 10 3 6 8 10 11 10 2 0 4 -4 4 -10z m-1110 -24 c0 -3 -4 -8 -10 -11 -5
-3 -10 -1 -10 4 0 6 5 11 10 11 6 0 10 -2 10 -4z m454 -27 c4 6 12 11 19 11 7
0 5 -7 -5 -16 -21 -22 -48 -11 -48 18 l1 23 13 -24 c8 -15 16 -20 20 -12z
m956 -9 c0 -11 -4 -20 -10 -20 -5 0 -10 9 -10 20 0 11 5 20 10 20 6 0 10 -9
10 -20z m-1960 -20 c0 -5 -7 -10 -15 -10 -8 0 -15 5 -15 10 0 6 7 10 15 10 8
0 15 -4 15 -10z m1000 -10 c0 -13 -12 -19 -26 -13 -21 8 -17 22 6 20 11 -1 20
-4 20 -7z m-1032 -12 c14 -14 16 -28 2 -28 -5 0 -14 9 -20 20 -12 22 -1 27 18
8z m1992 -13 c0 -8 -4 -15 -10 -15 -5 0 -10 7 -10 15 0 8 5 15 10 15 6 0 10
-7 10 -15z m-1772 -48 c-5 -22 -194 -185 -232 -201 -28 -12 -36 -20 -32 -33 2
-10 10 -38 17 -63 7 -25 19 -53 27 -63 9 -9 12 -20 8 -24 -13 -14 -39 26 -56
88 -16 59 -19 64 -44 61 -46 -5 -28 15 37 39 48 18 85 44 166 116 58 51 106
93 108 93 3 0 3 -6 1 -13z m1769 -19 c-3 -7 -5 -2 -5 12 0 14 2 19 5 13 2 -7
2 -19 0 -25z m-327 -3 c0 -8 -4 -17 -10 -20 -6 -4 -10 5 -10 20 0 15 4 24 10
20 6 -3 10 -12 10 -20z m470 -5 c0 -14 -240 -132 -259 -127 -9 2 11 17 47 35
45 24 62 38 62 53 0 11 4 18 10 14 5 -3 6 -13 3 -21 -4 -11 16 -5 63 20 81 41
74 39 74 26z m-130 -105 c0 -8 -4 -15 -10 -15 -5 0 -10 7 -10 15 0 8 5 15 10
15 6 0 10 -7 10 -15z m0 -55 c0 -11 -4 -20 -10 -20 -5 0 -10 9 -10 20 0 11 5
20 10 20 6 0 10 -9 10 -20z m-3 -72 c-3 -7 -5 -2 -5 12 0 14 2 19 5 13 2 -7 2
-19 0 -25z m13 -54 c0 -8 -4 -14 -10 -14 -5 0 -10 9 -10 21 0 11 5 17 10 14 6
-3 10 -13 10 -21z m437 -29 c9 -25 -4 -29 -17 -6 -7 15 -7 21 0 21 6 0 13 -7
17 -15z m-437 -25 c0 -11 -4 -20 -10 -20 -5 0 -10 9 -10 20 0 11 5 20 10 20 6
0 10 -9 10 -20z m0 -60 c0 -11 -4 -20 -10 -20 -5 0 -10 9 -10 20 0 11 5 20 10
20 6 0 10 -9 10 -20z m-1904 -22 c50 -53 71 -89 107 -184 70 -179 128 -307
145 -320 14 -11 14 -13 2 -14 -28 0 -39 16 -79 115 -124 310 -137 339 -190
389 -30 29 -39 46 -23 46 4 0 22 -15 38 -32z m1907 -98 c3 -11 1 -20 -4 -20
-5 0 -9 9 -9 20 0 11 2 20 4 20 2 0 6 -9 9 -20z m-3177 -24 c-11 -6 -28 -19
-38 -29 -18 -17 -44 -15 -33 4 9 13 79 48 85 42 3 -3 -4 -10 -14 -17z m3184
-36 c0 -11 -4 -20 -10 -20 -5 0 -10 9 -10 20 0 11 5 20 10 20 6 0 10 -9 10
-20z m450 -18 c0 -12 -478 -247 -486 -239 -4 4 -5 9 -3 10 12 11 466 235 477
236 6 0 12 -2 12 -7z m-450 -42 c0 -11 -4 -20 -10 -20 -5 0 -10 9 -10 20 0 11
5 20 10 20 6 0 10 -9 10 -20z m0 -61 c0 -11 -4 -17 -10 -14 -5 3 -10 13 -10
21 0 8 5 14 10 14 6 0 10 -9 10 -21z m-775 -118 c-19 -17 -245 -109 -250 -101
-6 9 211 108 240 109 11 1 15 -3 10 -8z m-115 -77 c0 -8 -5 -12 -10 -9 -6 4
-8 11 -5 16 9 14 15 11 15 -7z m0 -51 c-1 -24 -2 -26 -11 -10 -5 9 -7 22 -4
27 10 17 15 11 15 -17z m-720 -8 c14 -16 10 -18 -14 -9 -9 3 -16 10 -16 15 0
14 16 11 30 -6z m-260 -23 c7 2 15 -3 18 -11 2 -8 0 -11 -6 -7 -6 3 -14 1 -17
-5 -4 -5 -13 -8 -21 -5 -9 4 -14 -3 -15 -19 -1 -14 -2 -29 -3 -35 -1 -5 14
-21 33 -35 31 -22 32 -25 13 -25 -12 0 -22 4 -22 8 0 5 -12 14 -26 20 -20 10
-24 17 -18 35 4 12 7 29 8 37 2 23 30 60 37 49 3 -5 12 -9 19 -7z m310 -34 c0
-6 -7 -5 -15 2 -8 7 -15 17 -15 22 0 6 7 5 15 -2 8 -7 15 -17 15 -22z m686 -3
c12 -38 8 -51 -10 -32 -13 14 -20 67 -8 67 4 0 12 -16 18 -35z m-662 -54 c-6
-6 -24 19 -24 34 1 6 7 1 15 -9 8 -11 12 -22 9 -25z m-36 -58 c28 -43 65 -107
83 -143 33 -64 33 -67 39 -240 3 -96 9 -181 13 -187 5 -8 29 -13 57 -13 46 0
80 -17 80 -41 0 -14 -16 -11 -30 6 -8 9 -30 15 -59 15 -25 0 -52 4 -60 9 -11
7 -16 52 -21 198 -7 211 -4 198 -106 365 -48 76 -62 108 -50 108 2 0 26 -35
54 -77z m752 35 c0 -6 -7 -5 -15 2 -8 7 -15 17 -15 22 0 6 7 5 15 -2 8 -7 15
-17 15 -22z m-690 -20 c0 -5 -4 -8 -10 -8 -5 0 -10 10 -10 23 0 18 2 19 10 7
5 -8 10 -18 10 -22z m730 2 c8 -5 12 -12 9 -15 -8 -8 -39 5 -39 16 0 11 11 11
30 -1z m55 -30 c3 -5 -1 -10 -9 -10 -8 0 -18 5 -21 10 -3 6 1 10 9 10 8 0 18
-4 21 -10z m-1238 -37 c-3 -10 -5 -4 -5 12 0 17 2 24 5 18 2 -7 2 -21 0 -30z
m477 21 c9 -22 -3 -32 -14 -14 -12 19 -12 30 -1 30 5 0 12 -7 15 -16z m1601 7
c-21 -18 -196 -103 -202 -97 -9 8 -9 8 92 59 83 42 133 60 110 38z m-1835 -24
c0 -57 -54 -112 -75 -77 -3 6 2 10 12 10 10 0 23 11 29 25 11 23 11 23 -11 9
-13 -8 -26 -11 -29 -6 -2 4 8 16 25 26 16 9 29 21 29 27 0 5 5 9 10 9 6 0 10
-11 10 -23z m1890 -137 c1 -154 2 -148 -10 -130 -13 20 -13 277 -1 265 6 -6
10 -66 11 -135z m-1635 82 c-8 -9 -25 20 -18 31 3 5 10 2 15 -7 6 -10 7 -20 3
-24z m19 -38 c9 -22 -3 -32 -14 -14 -12 19 -12 30 -1 30 5 0 12 -7 15 -16z
m68 -94 c13 -11 18 -19 11 -20 -19 0 -73 50 -73 68 1 14 4 12 20 -6 10 -13 29
-32 42 -42z m832 13 c6 -15 -8 -32 -26 -33 -13 0 -9 18 5 23 6 3 1 6 -13 6
-20 1 -22 3 -10 11 22 14 37 12 44 -7z m56 -3 c0 -5 -9 -10 -20 -10 -11 0 -20
5 -20 10 0 6 9 10 20 10 11 0 20 -4 20 -10z m316 -14 c38 -13 97 -37 131 -55
43 -21 77 -31 108 -31 25 0 45 -4 45 -10 0 -5 -19 -10 -41 -10 l-42 0 7 -217
c5 -182 9 -470 6 -508 0 -5 -5 -3 -10 5 -5 8 -10 85 -10 170 0 85 -3 245 -7
356 l-6 200 -91 41 c-50 22 -108 46 -128 53 -21 6 -38 16 -38 21 0 12 -4 13
76 -15z m1416 -48 c87 -48 113 -68 123 -92 18 -43 31 -216 16 -216 -6 0 -11 7
-11 15 0 8 -3 15 -7 15 -4 0 -67 -30 -141 -66 -74 -36 -138 -62 -142 -57 -15
14 -25 213 -11 213 7 0 11 -20 12 -52 0 -29 4 -72 7 -95 l7 -42 72 34 c70 33
72 35 63 60 -12 33 -12 35 0 35 6 0 15 -11 20 -25 l10 -25 54 27 54 26 -5 61
c-8 93 -16 104 -133 169 -110 61 -133 77 -111 77 7 0 62 -28 123 -62z m-1654
30 c3 -15 -1 -16 -27 -7 -38 14 -40 29 -4 26 17 -2 29 -9 31 -19z m-185 -2 c3
-8 0 -19 -7 -26 -10 -8 -15 -6 -20 6 -7 17 0 34 14 34 4 0 10 -6 13 -14z
m-728 -16 c3 -5 -1 -10 -9 -10 -9 0 -16 5 -16 10 0 6 4 10 9 10 6 0 13 -4 16
-10z m895 -24 c0 -17 -24 -38 -33 -29 -11 10 -8 35 3 28 6 -3 10 -1 10 4 0 6
5 11 10 11 6 0 10 -6 10 -14z m-790 -16 c14 -10 22 -21 19 -25 -4 -3 -20 5
-35 19 -34 30 -21 35 16 6z m590 11 c0 -18 -12 -41 -22 -41 -5 0 -6 5 -3 10 3
6 1 10 -6 10 -8 0 -8 4 1 15 14 17 30 20 30 6z m240 -35 c0 -2 -6 -19 -14 -37
l-15 -34 -10 25 c-5 14 -10 19 -10 12 -1 -7 -5 -10 -11 -7 -17 11 -11 23 18
33 30 12 42 14 42 8z m-776 -22 c9 -22 -3 -32 -14 -14 -12 19 -12 30 -1 30 5
0 12 -7 15 -16z m387 6 c10 0 19 -4 19 -10 0 -5 -11 -10 -24 -10 -36 0 -56
-10 -56 -28 0 -12 -3 -13 -11 -5 -14 14 20 65 39 58 8 -3 22 -5 33 -5z m1924
-29 c-7 -12 52 -54 65 -46 16 10 11 -8 -8 -31 -19 -24 -53 -44 -75 -44 -11 0
-13 12 -10 53 5 64 9 77 23 77 6 0 9 -4 5 -9z m-1842 -33 c-2 -5 -10 -4 -17 1
-20 16 -76 -37 -79 -76 -4 -33 -43 -74 -84 -87 -13 -4 -23 -15 -23 -25 0 -23
-67 -101 -87 -101 -15 0 -15 2 -1 18 9 9 24 41 34 70 15 42 16 54 6 61 -7 4
-10 15 -6 24 8 22 24 22 25 0 0 -10 7 1 16 25 16 45 39 59 29 17 -4 -14 -2
-25 4 -25 5 0 10 5 10 11 0 5 5 7 11 3 8 -4 3 -12 -13 -20 -29 -15 -45 -44
-24 -44 24 0 63 39 79 79 9 21 32 52 53 69 30 25 40 28 55 19 10 -6 15 -15 12
-19z m77 18 c0 -2 -7 -7 -16 -10 -8 -3 -12 -2 -9 4 6 10 25 14 25 6z m207 -26
c6 0 16 -6 23 -14 9 -12 7 -15 -12 -14 -31 2 -48 16 -48 42 1 20 2 20 14 4 7
-10 18 -18 23 -18z m-723 4 c4 -10 1 -14 -6 -12 -15 5 -23 28 -10 28 5 0 13
-7 16 -16z m346 9 c-1 -14 -40 -56 -47 -50 -7 8 24 57 37 57 6 0 10 -3 10 -7z
m-300 -65 c0 -6 -7 -5 -15 2 -8 7 -15 17 -15 22 0 6 7 5 15 -2 8 -7 15 -17 15
-22z m-520 13 c0 -4 -36 -12 -81 -15 l-81 -8 7 -74 c5 -47 4 -74 -3 -74 -5 0
-13 34 -17 75 l-7 75 -154 -7 c-114 -4 -154 -3 -154 5 0 8 20 12 53 13 28 1
102 5 162 9 168 10 275 11 275 1z m1258 -30 c3 -8 -4 -12 -19 -9 -13 1 -25 11
-27 20 -3 15 1 16 19 9 13 -4 25 -13 27 -20z m-697 -7 c12 -14 11 -16 -5 -13
-11 2 -21 10 -24 17 -5 17 13 15 29 -4z m59 -24 c8 -5 12 -12 9 -15 -8 -8 -39
5 -39 16 0 11 11 11 30 -1z m668 -3 c20 -13 14 -29 -10 -25 -13 2 -24 11 -26
20 -3 17 13 19 36 5z m-497 -60 c-8 -8 -11 -7 -11 4 0 20 13 34 18 19 3 -7 -1
-17 -7 -23z m549 13 c8 -5 11 -12 7 -16 -3 -4 -13 -1 -21 5 -11 10 -15 9 -18
-6 -3 -16 -5 -15 -16 5 -12 20 -11 22 10 22 13 0 30 -4 38 -10z m139 -80 c23
-60 14 -89 -17 -56 -16 18 -16 19 1 13 11 -4 16 -3 12 4 -4 5 -15 7 -26 4 -10
-4 -29 -3 -41 1 -21 7 -19 9 12 14 37 5 39 10 25 65 -12 47 10 18 34 -45z
m-729 20 c-1 -12 -4 -11 -15 4 -8 10 -12 23 -8 29 7 11 23 -12 23 -33z m600
10 c0 -11 -2 -20 -5 -20 -2 0 -9 9 -15 20 -9 16 -8 20 5 20 8 0 15 -9 15 -20z
m-563 -22 c-3 -7 -5 -2 -5 12 0 14 2 19 5 13 2 -7 2 -19 0 -25z m-27 -28 c0
-11 -4 -20 -10 -20 -5 0 -10 9 -10 20 0 11 5 20 10 20 6 0 10 -9 10 -20z m614
4 c9 -22 -3 -32 -14 -14 -12 19 -12 30 -1 30 5 0 12 -7 15 -16z m-574 -24 c0
-11 -4 -20 -10 -20 -5 0 -10 9 -10 20 0 11 5 20 10 20 6 0 10 -9 10 -20z
m2034 14 c25 -9 19 -22 -9 -20 -14 0 -25 7 -25 14 0 13 10 15 34 6z m-2078
-71 c-11 -11 -19 6 -11 24 8 17 8 17 12 0 3 -10 2 -21 -1 -24z m634 23 c0 -23
-16 -27 -17 -5 -1 10 2 19 8 19 5 0 9 -6 9 -14z m-597 -26 c-3 -11 -9 -20 -14
-20 -11 0 -11 3 -3 24 9 23 23 20 17 -4z m731 4 c11 -30 6 -37 -14 -19 -11 10
-17 22 -14 26 8 14 21 11 28 -7z m-111 -24 c3 -11 1 -23 -4 -26 -5 -3 -9 -1
-9 5 0 5 -3 16 -6 25 -3 9 -2 16 4 16 5 0 12 -9 15 -20z m-657 -16 c-3 -9 -6
-18 -6 -20 0 -2 -4 -4 -9 -4 -5 0 -7 9 -4 20 3 11 10 20 15 20 6 0 7 -7 4 -16z
m24 -18 c0 -8 -4 -18 -10 -21 -5 -3 -10 3 -10 14 0 12 5 21 10 21 6 0 10 -6
10 -14z m135 -244 l10 -236 105 -21 c67 -13 121 -30 151 -48 25 -15 56 -27 68
-27 12 0 19 -4 16 -10 -11 -18 -44 -11 -99 20 -46 26 -172 60 -223 60 -12 0
-14 -18 -12 -119 2 -66 0 -123 -4 -127 -9 -9 -9 -12 -16 131 l-6 120 -54 8
c-45 8 -65 5 -132 -17 -43 -14 -91 -26 -107 -26 -26 0 -29 -3 -24 -25 2 -14 0
-25 -6 -25 -6 0 -8 9 -5 20 5 18 0 20 -51 20 -31 0 -56 5 -56 10 0 6 8 10 18
10 9 0 28 9 42 20 32 25 44 25 37 1 -4 -17 0 -18 37 -14 22 3 74 16 114 30 59
20 83 23 128 17 l56 -7 -7 244 c-4 138 -4 240 1 236 5 -5 14 -115 19 -245z
m529 206 c-4 -6 -10 -5 -15 3 -14 22 -10 33 6 19 8 -7 12 -17 9 -22z m-713
-21 c-8 -8 -11 -7 -11 4 0 20 13 34 18 19 3 -7 -1 -17 -7 -23z m32 -7 c-3 -11
-9 -18 -13 -15 -5 3 -6 14 -3 25 3 11 9 18 13 15 5 -3 6 -14 3 -25z m727 10
c-20 -13 -43 -13 -35 0 3 6 16 10 28 10 18 0 19 -2 7 -10z m-1170 -126 c0 -63
-4 -104 -10 -104 -6 0 -10 44 -10 111 0 71 4 108 10 104 6 -3 10 -52 10 -111z
m1924 61 c14 -36 17 -71 15 -186 -2 -77 -7 -143 -11 -145 -13 -9 -20 46 -9 74
10 27 2 237 -11 258 -6 9 -338 -144 -338 -156 0 -3 20 -13 45 -23 31 -13 45
-25 45 -38 0 -10 -4 -19 -10 -19 -5 0 -10 6 -10 13 0 15 -61 47 -91 47 -32 0
-161 -69 -201 -107 -27 -26 -46 -36 -72 -37 -44 -1 -53 18 -10 22 18 2 46 16
65 33 40 37 206 122 219 114 6 -4 10 -1 10 4 0 6 72 47 159 91 88 43 162 84
166 90 12 19 22 10 39 -35z m-1524 14 c0 -11 -4 -17 -10 -14 -5 3 -10 13 -10
21 0 8 5 14 10 14 6 0 10 -9 10 -21z m33 -9 c3 -11 1 -20 -4 -20 -5 0 -9 9 -9
20 0 11 2 20 4 20 2 0 6 -9 9 -20z m-895 -41 c-2 -18 -13 -25 -53 -36 -58 -15
-88 -17 -81 -5 3 5 30 14 61 21 50 11 55 15 55 39 0 19 3 23 11 15 6 -6 9 -21
7 -34z m4742 11 c0 -5 -7 -10 -16 -10 -8 0 -12 5 -9 10 3 6 10 10 16 10 5 0 9
-4 9 -10z m-3883 -32 c-3 -7 -5 -2 -5 12 0 14 2 19 5 13 2 -7 2 -19 0 -25z
m57 6 c8 -21 8 -24 -3 -24 -5 0 -11 9 -14 20 -6 24 8 27 17 4z m746 -70 c24
-79 24 -74 4 -74 -8 0 -13 4 -10 8 3 5 0 25 -6 45 -10 33 -13 35 -24 19 -7 -9
-16 -14 -19 -10 -4 4 0 14 9 23 11 11 14 25 10 42 -5 18 -3 24 4 19 6 -4 21
-36 32 -72z m3044 52 c-3 -9 -10 -16 -15 -16 -6 0 -5 9 1 21 13 24 24 20 14
-5z m-3834 -30 c0 -8 -4 -18 -10 -21 -5 -3 -10 3 -10 14 0 12 5 21 10 21 6 0
10 -6 10 -14z m3695 3 c4 -6 5 -12 2 -15 -7 -7 -37 7 -37 17 0 13 27 11 35 -2z
m-3649 -15 c-3 -9 -6 -18 -6 -20 0 -3 -4 -3 -10 1 -11 7 -2 35 12 35 6 0 7 -7
4 -16z m3704 6 c0 -5 -6 -10 -14 -10 -8 0 -18 5 -21 10 -3 6 3 10 14 10 12 0
21 -4 21 -10z m55 -10 c-3 -5 -13 -10 -21 -10 -8 0 -14 5 -14 10 0 6 9 10 21
10 11 0 17 -4 14 -10z m-115 -42 c0 -4 -11 -8 -24 -8 -22 0 -23 2 -13 25 11
23 13 23 25 8 6 -9 12 -20 12 -25z m-3715 12 c-3 -5 -13 -10 -21 -10 -8 0 -12
5 -9 10 3 6 13 10 21 10 8 0 12 -4 9 -10z m35 -15 c-7 -8 -17 -15 -22 -15 -6
0 -5 7 2 15 7 8 17 15 22 15 6 0 5 -7 -2 -15z m3720 -5 c12 -8 11 -10 -7 -10
-13 0 -23 5 -23 10 0 13 11 13 30 0z m83 -11 c-7 -7 -20 -8 -34 -3 -23 8 -23
8 6 14 35 7 43 4 28 -11z m-3873 -18 c0 -13 -7 -19 -22 -19 -35 -1 -120 -10
-188 -21 -77 -13 -120 -5 -120 20 0 11 5 19 10 19 6 0 10 -4 10 -9 0 -17 50
-21 122 -11 40 6 88 13 107 16 18 2 41 9 50 14 24 14 31 12 31 -9z m21 -14
c-8 -8 -11 -7 -11 4 0 20 13 34 18 19 3 -7 -1 -17 -7 -23z m3672 12 c-6 -6
-19 -9 -29 -6 -17 3 -16 5 6 14 28 12 39 8 23 -8z m197 -4 c0 -8 -4 -15 -9
-15 -13 0 -22 16 -14 24 11 11 23 6 23 -9z m-3903 -62 c-3 -10 -5 -4 -5 12 0
17 2 24 5 18 2 -7 2 -21 0 -30z m30 -5 c-3 -7 -5 -2 -5 12 0 14 2 19 5 13 2
-7 2 -19 0 -25z m-3507 -20 c0 -5 -9 -4 -20 2 -11 6 -18 15 -14 21 6 11 34 -7
34 -23z m3474 -23 c-4 -8 -10 -15 -15 -15 -4 0 -6 7 -3 15 4 8 10 15 15 15 4
0 6 -7 3 -15z m36 8 c0 -14 -19 -38 -25 -32 -8 8 5 39 16 39 5 0 9 -3 9 -7z
m-3430 -14 c0 -5 -9 -9 -20 -9 -11 0 -20 -4 -20 -10 0 -5 7 -10 15 -10 8 0 15
-7 15 -15 0 -21 -24 -8 -42 23 l-17 28 35 1 c19 1 34 -3 34 -8z m45 -10 c12
-19 -5 -23 -22 -6 -16 16 -16 17 -1 17 9 0 20 -5 23 -11z m115 -5 c0 -2 -12
-4 -26 -4 -14 0 -23 4 -20 9 6 8 46 4 46 -5z m-65 -13 c-3 -6 -14 -11 -23 -11
-15 1 -15 2 2 15 21 16 32 13 21 -4z m2748 7 c12 -7 23 -13 25 -14 11 -5 -14
-34 -30 -34 -15 0 -18 -5 -13 -20 4 -12 2 -20 -5 -20 -7 0 -10 18 -8 50 2 27
4 50 6 50 1 0 12 -6 25 -12z m517 -7 c0 -13 -28 -22 -35 -11 -3 4 1 11 7 13
20 8 28 8 28 -2z m-3170 -11 c8 -5 11 -12 7 -16 -4 -4 -15 0 -24 9 -18 18 -8
23 17 7z m3198 -2 c-3 -7 -13 -15 -24 -17 -16 -3 -17 -1 -5 13 16 19 34 21 29
4z m1077 -17 c-7 -23 -25 -29 -25 -8 0 14 21 39 28 33 2 -3 1 -14 -3 -25z
m178 -23 c-8 -14 -43 -8 -43 7 0 8 7 15 15 15 8 0 15 6 16 13 0 6 4 3 8 -8 5
-11 7 -23 4 -27z m2277 32 c0 -5 -11 -10 -24 -10 -14 0 -28 5 -31 10 -4 6 7
10 24 10 17 0 31 -4 31 -10z m-2416 -6 c9 -3 16 -13 16 -21 0 -10 -6 -13 -16
-9 -9 3 -18 6 -20 6 -2 0 -4 7 -4 15 0 17 2 18 24 9z m76 -19 c0 -8 -9 -15
-20 -15 -11 0 -20 7 -20 15 0 8 9 15 20 15 11 0 20 -7 20 -15z m125 -15 c4 -6
-5 -10 -19 -10 -14 0 -26 5 -26 10 0 6 9 10 19 10 11 0 23 -4 26 -10z m75
-164 c-7 -64 -16 -114 -20 -111 -5 3 -6 23 -3 44 3 22 1 54 -5 71 -9 24 -8 32
2 36 8 3 17 24 20 46 4 22 9 38 13 35 3 -3 0 -58 -7 -121z m-5350 79 c0 -16
-27 -32 -37 -22 -3 4 -3 13 0 22 8 20 37 20 37 0z m3884 -10 c-6 -16 -24 -21
-24 -7 0 11 11 22 21 22 5 0 6 -7 3 -15z m-47 -42 c-9 -9 -20 -13 -24 -9 -4 4
-1 11 7 16 25 16 35 11 17 -7z m-3847 -7 c0 -8 -5 -18 -10 -21 -6 -3 -10 3
-10 14 0 12 5 21 10 21 6 0 10 -6 10 -14z m3630 -5 c0 -5 -22 -28 -50 -51 -65
-55 -133 -155 -120 -179 6 -13 18 -16 39 -13 22 3 32 -1 41 -18 22 -42 10 -55
-55 -55 l-59 0 -7 -35 c-4 -19 -19 -44 -33 -55 -14 -11 -26 -30 -26 -40 0 -15
-2 -17 -9 -6 -7 11 -17 9 -52 -12 -24 -13 -57 -28 -73 -31 -38 -9 -99 -54
-217 -161 -95 -87 -99 -91 -99 -132 0 -28 -4 -43 -13 -43 -9 0 -11 13 -7 49 5
48 9 53 101 138 117 107 187 159 229 168 42 9 148 73 165 99 7 12 18 47 25 79
22 109 58 169 155 259 50 47 65 56 65 39z m190 -18 c0 -14 -19 -38 -25 -32 -8
8 5 39 16 39 5 0 9 -3 9 -7z m-3841 -22 c8 -5 11 -16 8 -25 -7 -17 -27 -22
-27 -7 0 5 -3 16 -6 25 -7 18 4 20 25 7z m3799 -33 c-3 -7 -13 -15 -24 -17
-16 -3 -17 -1 -5 13 16 19 34 21 29 4z m-38 -48 c0 -11 -4 -20 -10 -20 -5 0
-10 9 -10 20 0 11 5 20 10 20 6 0 10 -9 10 -20z m502 -52 c-19 -19 -14 -38 11
-39 18 0 16 -3 -13 -16 -19 -8 -38 -20 -42 -26 -12 -20 -20 0 -13 32 4 17 18
40 32 51 27 21 46 19 25 -2z m-512 -9 c-7 -11 -14 -18 -17 -15 -8 8 5 36 17
36 7 0 7 -6 0 -21z m-1583 -31 c-3 -8 -6 -5 -6 6 -1 11 2 17 5 13 3 -3 4 -12
1 -19z m1548 2 c-3 -5 -13 -10 -21 -10 -8 0 -12 5 -9 10 3 6 13 10 21 10 8 0
12 -4 9 -10z m683 -11 c2 -5 10 -9 17 -9 7 0 15 -7 19 -15 3 -8 2 -15 -3 -15
-5 0 -14 7 -21 15 -8 9 -29 15 -56 15 -39 0 -61 10 -48 22 8 8 89 -3 92 -13z
m-738 7 c0 -2 -7 -9 -15 -16 -12 -10 -15 -10 -15 4 0 9 7 16 15 16 8 0 15 -2
15 -4z m450 -36 c8 -5 12 -11 10 -14 -8 -7 -60 6 -60 15 0 12 31 11 50 -1z
m-473 -37 c-3 -10 -5 -4 -5 12 0 17 2 24 5 18 2 -7 2 -21 0 -30z m753 7 c0
-11 -4 -20 -10 -20 -5 0 -10 9 -10 20 0 11 5 20 10 20 6 0 10 -9 10 -20z m982
10 c6 0 8 -7 5 -15 -4 -8 6 -24 23 -39 37 -30 37 -36 5 -36 -18 0 -29 8 -38
28 -6 15 -14 29 -18 32 -3 3 -9 13 -12 24 -6 14 -4 17 9 12 8 -3 20 -6 26 -6z
m-1012 -9 c0 -5 -7 -14 -15 -21 -16 -14 -18 -10 -9 14 6 17 24 22 24 7z m-117
-18 c-3 -7 -2 -13 3 -11 5 2 10 0 12 -4 1 -5 0 -8 -3 -8 -3 0 -13 0 -24 0 -10
0 -21 8 -24 19 -3 14 1 19 18 19 16 0 22 -5 18 -15z m197 7 c0 -5 -10 -10 -22
-10 -19 0 -20 2 -8 10 19 13 30 13 30 0z m-465 -19 c-3 -6 -14 -11 -23 -11
-15 1 -15 2 2 15 21 16 32 13 21 -4z m-295 -6 c20 -24 6 -28 -15 -5 -10 11
-13 20 -8 20 6 0 16 -7 23 -15z m235 -4 c-3 -6 -14 -11 -23 -11 -15 1 -15 2 2
15 21 16 32 13 21 -4z m-106 -34 c-2 -2 -32 -16 -67 -32 -34 -16 -70 -37 -78
-46 -15 -17 -10 -21 72 -62 49 -24 96 -42 104 -39 8 3 12 1 8 -3 -5 -5 4 -24
18 -42 29 -38 23 -61 -6 -25 -10 12 -23 22 -29 22 -6 0 -11 6 -11 13 0 7 -16
21 -35 30 -35 17 -35 17 -25 -2 13 -25 13 -61 0 -61 -5 0 -10 11 -10 24 0 27
-15 42 -25 26 -10 -15 -35 -12 -35 5 0 8 -4 15 -8 15 -5 0 -18 18 -30 41 -27
51 -18 67 60 109 43 23 58 37 58 52 l0 22 21 -23 c12 -12 19 -23 18 -24z m562
1 c-4 -17 -12 -33 -19 -36 -14 -4 -16 14 -2 23 6 3 10 15 10 26 0 10 4 19 9
19 5 0 6 -14 2 -32z m39 11 c-7 -11 -14 -18 -17 -15 -8 8 5 36 17 36 7 0 7 -6
0 -21z m-540 2 c0 -5 -9 -11 -20 -14 -22 -6 -28 8 -7 16 19 8 27 8 27 -2z
m360 -21 c0 -13 -5 -18 -14 -14 -8 3 -12 12 -9 20 8 21 23 17 23 -6z m-262
-16 c12 -8 22 -12 23 -7 0 4 4 -2 9 -14 8 -21 16 -23 75 -23 37 0 65 -4 65
-10 0 -6 -30 -10 -70 -10 -65 0 -71 2 -81 24 -7 14 -23 26 -40 30 -16 3 -29
10 -29 16 0 15 22 12 48 -6z m312 -24 c0 -6 -7 -10 -15 -10 -8 0 -15 -4 -15
-10 0 -5 -4 -10 -10 -10 -5 0 -10 8 -10 18 0 12 8 18 25 20 14 1 25 -3 25 -8z
m50 6 c0 -2 -12 -11 -26 -21 -25 -16 -25 -16 -14 4 9 17 40 30 40 17z m3024
-13 c7 -18 -30 -55 -49 -49 -5 2 -20 -1 -33 -5 -13 -5 -30 -5 -39 0 -12 6 -10
10 13 16 16 4 39 9 51 10 32 4 43 14 36 30 -3 8 -1 15 5 15 5 0 13 -8 16 -17z
m127 -58 c3 -11 11 -19 17 -17 15 3 16 -14 2 -23 -6 -4 -10 -12 -9 -18 4 -22
-13 -47 -31 -47 -21 0 -46 26 -30 32 5 1 11 24 12 50 2 37 6 47 18 45 8 -1 18
-11 21 -22z m-3216 5 c-3 -5 -12 -10 -18 -10 -7 0 -6 4 3 10 19 12 23 12 15 0z
m995 -30 c0 -15 -31 -18 -230 -25 -102 -4 -205 -11 -230 -17 -36 -9 -130 -55
-149 -74 -7 -7 110 -123 147 -146 26 -16 48 -20 99 -19 48 1 64 -2 60 -11 -3
-9 -25 -13 -71 -11 -62 1 -70 4 -122 44 -77 59 -147 139 -135 153 5 6 44 29
85 50 81 42 98 44 456 59 41 2 78 4 83 5 4 1 7 -2 7 -8z m165 -61 c11 -11 -5
-11 -69 -3 -25 4 -46 11 -46 16 0 11 101 -1 115 -13z m-2069 -13 c16 -17 19
-36 4 -36 -5 0 -10 7 -10 15 0 8 -9 15 -21 15 -11 0 -17 5 -14 10 9 14 24 12
41 -4z m2433 3 c17 -6 31 -17 31 -24 0 -10 -9 -8 -35 5 -24 12 -48 16 -75 13
-26 -4 -40 -2 -40 6 0 14 77 15 119 0z m-2544 -19 c3 -5 -3 -10 -14 -10 -11 0
-23 5 -26 10 -3 6 3 10 14 10 11 0 23 -4 26 -10z m50 -10 c-3 -5 -13 -10 -21
-10 -8 0 -12 5 -9 10 3 6 13 10 21 10 8 0 12 -4 9 -10z m847 -217 c2 -126 1
-232 -1 -237 -3 -5 -8 -1 -12 10 -11 29 -11 454 1 454 5 0 10 -90 12 -227z
m2965 201 c-3 -3 -12 -4 -19 -1 -8 3 -5 6 6 6 11 1 17 -2 13 -5z m-784 -11
c-7 -2 -19 -2 -25 0 -7 3 -2 5 12 5 14 0 19 -2 13 -5z m480 0 c-13 -2 -33 -2
-45 0 -13 2 -3 4 22 4 25 0 35 -2 23 -4z m-2843 -23 c0 -5 -16 -10 -35 -10
-19 0 -35 5 -35 10 0 6 16 10 35 10 19 0 35 -4 35 -10z m-52 -138 c2 -6 -4
-12 -14 -12 -9 0 -23 -8 -30 -17 -12 -16 -13 -15 -14 14 0 28 3 32 27 30 14
-1 28 -8 31 -15z m-963 -82 c-10 -11 -23 -20 -29 -20 -6 1 0 10 13 20 30 26
39 26 16 0z m-107 3 c-27 -2 -69 -2 -95 0 -27 2 -5 3 47 3 52 0 74 -1 48 -3z
m19 -50 c-3 -10 -5 -4 -5 12 0 17 2 24 5 18 2 -7 2 -21 0 -30z m13 -59 c0 -8
-4 -14 -10 -14 -5 0 -10 9 -10 21 0 11 5 17 10 14 6 -3 10 -13 10 -21z m0 -54
c0 -11 -4 -20 -10 -20 -5 0 -10 9 -10 20 0 11 5 20 10 20 6 0 10 -9 10 -20z
m-97 -12 c-4 -7 -6 -21 -4 -31 2 -15 -2 -18 -21 -12 -34 11 -35 15 -8 35 29
22 45 26 33 8z m97 -48 c0 -11 -4 -20 -10 -20 -5 0 -10 9 -10 20 0 11 5 20 10
20 6 0 10 -9 10 -20z m1303 9 c-8 -8 -16 -8 -30 0 -16 9 -14 10 12 11 21 0 26
-3 18 -11z m47 -9 c8 -5 11 -12 7 -16 -4 -4 -15 0 -24 9 -18 18 -8 23 17 7z
m-1500 -9 c0 -5 -7 -12 -16 -15 -24 -9 -28 -7 -14 9 14 17 30 20 30 6z m-115
-11 c3 -5 -3 -10 -14 -10 -12 0 -21 5 -21 10 0 6 6 10 14 10 8 0 18 -4 21 -10z
m55 0 c12 -8 9 -10 -13 -10 -16 0 -26 4 -22 10 8 12 16 12 35 0z m-100 -26 c0
-8 -4 -12 -10 -9 -5 3 -10 13 -10 21 0 8 5 12 10 9 6 -3 10 -13 10 -21z m220
16 c0 -5 -7 -10 -15 -10 -8 0 -15 5 -15 10 0 6 7 10 15 10 8 0 15 -4 15 -10z
m520 -15 c0 -8 -4 -17 -10 -20 -6 -4 -10 5 -10 20 0 15 4 24 10 20 6 -3 10
-12 10 -20z m980 13 c0 -4 -9 -8 -20 -8 -11 0 -20 4 -20 9 0 6 9 9 20 8 11 -1
20 -5 20 -9z m-1455 -8 c-3 -5 -13 -10 -21 -10 -8 0 -12 5 -9 10 3 6 13 10 21
10 8 0 12 -4 9 -10z m45 -15 c0 -13 -29 -29 -37 -21 -3 2 -2 14 2 25 7 21 35
18 35 -4z m1480 -6 c0 -13 -58 -11 -66 3 -5 8 0 9 14 6 12 -4 22 -2 22 3 0 4
7 6 15 3 8 -4 15 -10 15 -15z m-1784 -46 c-11 -11 -19 6 -11 24 8 17 8 17 12
0 3 -10 2 -21 -1 -24z m1834 27 c8 -5 12 -12 9 -15 -8 -8 -39 5 -39 16 0 11
11 11 30 -1z m-1100 -25 c0 -8 -4 -17 -10 -20 -6 -4 -10 5 -10 20 0 15 4 24
10 20 6 -3 10 -12 10 -20z m-430 -5 c0 -22 -16 -27 -23 -7 -3 9 -8 9 -21 -2
-9 -8 -19 -11 -23 -7 -9 9 28 35 50 36 10 0 17 -7 17 -20z m1585 0 c3 -5 -1
-10 -9 -10 -8 0 -18 5 -21 10 -3 6 1 10 9 10 8 0 18 -4 21 -10z m-2038 -16
c20 -6 21 -8 7 -21 -8 -9 -16 -14 -17 -12 -2 2 -9 12 -16 22 -14 18 -9 20 26
11z m2098 -4 c3 -5 -3 -10 -14 -10 -12 0 -21 5 -21 10 0 6 6 10 14 10 8 0 18
-4 21 -10z m-2025 -10 c-20 -13 -43 -13 -35 0 3 6 16 10 28 10 18 0 19 -2 7
-10z m65 0 c-3 -5 -13 -10 -21 -10 -8 0 -14 5 -14 10 0 6 9 10 21 10 11 0 17
-4 14 -10z m235 3 c0 -14 -19 -38 -25 -32 -8 8 5 39 16 39 5 0 9 -3 9 -7z
m510 -23 c0 -11 -4 -20 -10 -20 -5 0 -10 9 -10 20 0 11 5 20 10 20 6 0 10 -9
10 -20z m1255 -22 c4 -16 4 -28 0 -28 -15 0 -32 34 -27 52 6 24 18 12 27 -24z
m-1685 22 c8 -5 11 -12 7 -16 -4 -4 -15 0 -24 9 -18 18 -8 23 17 7z m-450 -40
c0 -11 -4 -20 -10 -20 -5 0 -10 9 -10 20 0 11 5 20 10 20 6 0 10 -9 10 -20z
m320 5 c-7 -9 -15 -13 -17 -11 -7 7 7 26 19 26 6 0 6 -6 -2 -15z m190 -7 c0
-6 -7 -7 -16 -4 -9 3 -18 6 -20 6 -3 0 -3 4 1 10 7 11 35 2 35 -12z m370 -25
c0 -20 -3 -24 -11 -16 -7 7 -9 19 -6 27 10 24 17 19 17 -11z m-333 -8 c9 -25
-4 -29 -17 -6 -7 15 -7 21 0 21 6 0 13 -7 17 -15z m-227 -9 c0 -17 -14 -29
-23 -20 -8 8 3 34 14 34 5 0 9 -6 9 -14z m1840 4 c8 -5 11 -12 7 -16 -4 -4
-15 0 -24 9 -18 18 -8 23 17 7z m-2156 -16 c4 -10 1 -14 -6 -12 -15 5 -23 28
-10 28 5 0 13 -7 16 -16z m3286 13 c0 -2 -10 -12 -22 -23 l-23 -19 19 23 c18
21 26 27 26 19z m-1070 -17 c8 -5 12 -12 9 -15 -8 -8 -39 5 -39 16 0 11 11 11
30 -1z m-1635 -38 c-8 -8 -25 10 -25 26 0 13 2 13 14 -4 8 -10 13 -21 11 -22z
m295 13 c0 -21 -5 -25 -30 -25 -16 0 -30 5 -30 10 0 6 9 10 19 10 10 0 21 7
25 15 8 23 16 18 16 -10z m-606 -9 c-3 -9 -10 -13 -16 -10 -5 3 -4 12 3 20 15
18 22 13 13 -10z m2006 3 c0 -4 -7 -6 -15 -3 -8 4 -15 10 -15 15 0 4 7 6 15 3
8 -4 15 -10 15 -15z m-2266 -14 c-6 -16 -24 -21 -24 -7 0 11 11 22 21 22 5 0
6 -7 3 -15z m621 -5 c-3 -5 -12 -7 -20 -3 -21 7 -19 13 6 13 11 0 18 -4 14
-10z m161 -5 c-11 -8 -22 -12 -25 -9 -6 6 19 24 34 24 6 -1 1 -7 -9 -15z
m1532 -3 c2 -7 -2 -10 -12 -6 -9 3 -16 11 -16 16 0 13 23 5 28 -10z m-1643 -2
c3 -5 -1 -10 -9 -10 -8 0 -18 5 -21 10 -3 6 1 10 9 10 8 0 18 -4 21 -10z
m-719 -22 c-10 -6 -20 -7 -24 -3 -9 8 20 25 31 18 5 -3 2 -10 -7 -15z m297 -8
c-7 -28 -13 -25 -13 6 0 14 4 23 9 20 5 -3 7 -15 4 -26z m482 20 c-3 -5 -13
-10 -21 -10 -8 0 -14 5 -14 10 0 6 9 10 21 10 11 0 17 -4 14 -10z m4219 4 c25
-10 19 -26 -6 -19 -31 10 -47 25 -26 25 9 0 23 -3 32 -6z m-5054 -33 c-12 -24
-13 -61 -2 -61 17 0 22 13 10 27 -14 17 -2 31 14 15 9 -9 9 -18 0 -36 -9 -21
-9 -24 3 -19 8 3 15 0 15 -5 0 -6 -9 -14 -21 -17 -16 -5 -19 -12 -15 -31 8
-29 -10 -33 -19 -4 -20 64 -11 150 16 150 6 0 6 -7 -1 -19z m1947 -28 c-3 -10
-5 -2 -5 17 0 19 2 27 5 18 2 -10 2 -26 0 -35z m497 22 c3 -8 1 -15 -3 -15 -5
0 -11 7 -15 15 -3 8 -1 15 3 15 5 0 11 -7 15 -15z m-2109 -23 c4 -10 0 -12
-12 -8 -9 4 -20 1 -24 -6 -10 -16 -23 -3 -16 16 7 18 45 17 52 -2z m-235 -18
c0 -16 -30 -33 -47 -27 -7 3 -13 13 -13 23 0 14 7 18 30 18 18 -1 30 -6 30
-14z m36 -21 c-4 -4 -11 -1 -16 7 -16 25 -11 35 7 17 9 -9 13 -20 9 -24z
m2334 1 c0 -8 -4 -12 -10 -9 -5 3 -10 13 -10 21 0 8 5 12 10 9 6 -3 10 -13 10
-21z m-463 -181 c-2 -37 -3 -10 -3 62 0 72 1 102 3 68 2 -34 2 -93 0 -130z
m-1707 163 c0 -8 -4 -18 -10 -21 -5 -3 -10 3 -10 14 0 12 5 21 10 21 6 0 10
-6 10 -14z m257 -21 c-4 -8 -11 -15 -17 -15 -7 0 -7 6 0 21 13 23 26 19 17 -6z
m-403 0 c3 -8 1 -15 -3 -15 -5 0 -11 7 -15 15 -3 8 -1 15 3 15 5 0 11 -7 15
-15z m2341 -23 c-8 -9 -25 20 -18 31 3 5 10 2 15 -7 6 -10 7 -20 3 -24z
m-2285 18 c0 -13 -11 -13 -30 0 -12 8 -11 10 8 10 12 0 22 -4 22 -10z m50 -31
c0 -11 -27 -12 -34 0 -3 4 -3 11 0 14 8 8 34 -3 34 -14z m50 0 c0 -5 -7 -9
-15 -9 -15 0 -20 12 -9 23 8 8 24 -1 24 -14z m230 -20 c0 -11 -4 -17 -10 -14
-5 3 -10 13 -10 21 0 8 5 14 10 14 6 0 10 -9 10 -21z m1980 -15 c0 -8 -4 -14
-10 -14 -5 0 -10 9 -10 21 0 11 5 17 10 14 6 -3 10 -13 10 -21z m-1952 -50
c-10 -10 -28 6 -28 24 0 15 1 15 17 -1 9 -9 14 -19 11 -23z m1972 -10 c0 -8
-4 -12 -10 -9 -5 3 -10 13 -10 21 0 8 5 12 10 9 6 -3 10 -13 10 -21z m-1940
-14 c8 -5 11 -12 7 -16 -4 -4 -15 0 -24 9 -18 18 -8 23 17 7z m54 -16 c23 -9
20 -24 -4 -24 -11 0 -20 7 -20 15 0 17 2 18 24 9z m1883 -31 c-3 -10 -5 -4 -5
12 0 17 2 24 5 18 2 -7 2 -21 0 -30z m-1818 8 c7 -5 9 -11 4 -14 -6 -4 -19 0
-29 8 -15 11 -16 14 -4 15 8 0 21 -4 29 -9z m61 -20 c0 -9 -41 -23 -48 -16 -2
2 -1 8 3 14 8 13 45 15 45 2z m47 3 c-3 -3 -12 -4 -19 -1 -8 3 -5 6 6 6 11 1
17 -2 13 -5z m-173 -33 c-7 -8 -35 9 -29 19 4 6 11 5 20 -3 7 -6 11 -14 9 -16z
m56 20 c0 -11 -31 -24 -39 -16 -3 3 1 10 9 15 19 12 30 12 30 1z m127 -38 c-3
-10 -5 -4 -5 12 0 17 2 24 5 18 2 -7 2 -21 0 -30z m1713 12 c0 -8 -4 -17 -10
-20 -6 -4 -10 5 -10 20 0 15 4 24 10 20 6 -3 10 -12 10 -20z m-1760 -27 c0 -6
-7 -5 -15 2 -8 7 -15 17 -15 22 0 6 7 5 15 -2 8 -7 15 -17 15 -22z m1780 -18
c0 -11 -4 -20 -10 -20 -5 0 -10 9 -10 20 0 11 5 20 10 20 6 0 10 -9 10 -20z
m-1730 -7 c0 -7 -6 -13 -14 -13 -8 0 -16 6 -19 13 -3 8 3 13 14 13 11 0 19 -6
19 -13z m1740 -48 c14 -16 10 -18 -14 -9 -9 3 -16 10 -16 15 0 14 16 11 30 -6z"/>
<path d="M4695 3999 c-4 -5 -10 -7 -15 -4 -4 3 -11 -2 -14 -11 -5 -12 -1 -14
17 -8 41 12 51 20 33 27 -8 3 -18 2 -21 -4z"/>
<path d="M4390 5048 c-52 -38 -113 -80 -135 -95 l-41 -25 3 -132 c2 -72 6
-163 9 -202 l6 -72 136 63 137 64 -4 212 c-2 117 -6 222 -10 234 -6 20 -12 17
-101 -47z m-100 -253 c-7 -8 -17 -15 -23 -15 -5 0 -2 9 8 20 21 23 35 19 15
-5z m-30 -49 c0 -8 -4 -18 -10 -21 -5 -3 -10 3 -10 14 0 12 5 21 10 21 6 0 10
-6 10 -14z m-19 -79 c-8 -8 -11 -5 -11 9 0 27 14 41 18 19 2 -9 -1 -22 -7 -28z"/>
<path d="M3525 4901 c-3 -5 -1 -12 5 -16 5 -3 10 1 10 9 0 18 -6 21 -15 7z"/>
<path d="M3477 4707 c-4 -10 -7 -26 -7 -35 1 -15 2 -15 11 1 6 10 9 25 7 35
-3 16 -4 15 -11 -1z"/>
<path d="M4373 4565 c-73 -33 -135 -64 -138 -67 -3 -3 -3 -84 1 -181 l7 -175
138 67 138 66 -1 110 c0 61 -3 139 -7 175 l-6 66 -132 -61z"/>
<path d="M6130 2998 c0 -7 -3 -23 -6 -35 -8 -28 6 -29 36 -5 l22 18 -26 17
c-19 13 -26 14 -26 5z"/>
<path d="M4060 2809 c0 -5 5 -7 10 -4 6 3 10 8 10 11 0 2 -4 4 -10 4 -5 0 -10
-5 -10 -11z"/>
<path d="M3509 1664 c-12 -15 -12 -16 8 -10 12 4 24 2 28 -4 11 -18 47 -12 43
8 -4 24 -60 28 -79 6z"/>
<path d="M3710 1450 c0 -6 8 -14 18 -17 9 -4 19 -10 22 -14 3 -4 11 -5 18 0 8
5 0 13 -23 24 -19 9 -35 12 -35 7z"/>
<path d="M7502 1420 c0 -19 2 -27 5 -17 2 9 2 25 0 35 -3 9 -5 1 -5 -18z"/>
</g>
</svg>
