<?xml version="1.0" standalone="no"?>
<!DOCTYPE svg PUBLIC "-//W3C//DTD SVG 20010904//EN"
 "http://www.w3.org/TR/2001/REC-SVG-20010904/DTD/svg10.dtd">
<svg version="1.0" xmlns="http://www.w3.org/2000/svg"
 width="800.000000pt" height="800.000000pt" viewBox="0 0 800.000000 800.000000"
 preserveAspectRatio="xMidYMid meet">
<metadata>
Created by potrace 1.16, written by Peter Selinger 2001-2019
</metadata>
<g transform="translate(0.000000,800.000000) scale(0.100000,-0.100000)"
fill="#000000" stroke="none">
<path d="M0 4000 l0 -4000 4000 0 4000 0 0 4000 0 4000 -4000 0 -4000 0 0
-4000z m5445 1824 c-23 -17 -32 -10 -15 11 7 8 17 12 23 8 6 -4 3 -11 -8 -19z
m-2226 -52 c23 -76 31 -88 83 -126 32 -24 41 -40 73 -141 38 -117 41 -160 20
-276 -5 -27 -2 -44 11 -65 11 -15 17 -36 16 -47 -4 -20 69 -139 108 -176 24
-22 24 -23 4 -20 -12 2 -31 -4 -42 -14 -11 -10 -23 -14 -26 -9 -3 5 3 17 13
27 19 16 18 19 -30 93 -27 42 -48 83 -46 91 2 9 -5 31 -16 49 -14 24 -17 43
-13 70 21 121 19 165 -14 267 -29 91 -37 105 -85 150 -43 40 -56 61 -69 107
-9 32 -19 64 -22 73 -3 8 -1 15 5 15 5 0 19 -30 30 -68z m2177 10 c-8 -9 -19
-13 -22 -9 -10 9 16 38 28 31 6 -4 4 -13 -6 -22z m-36 -43 c-7 -11 -14 -18
-17 -15 -8 8 5 36 17 36 7 0 7 -6 0 -21z m-26 -44 c-4 -8 -13 -15 -21 -15 -13
0 -13 3 -3 15 7 8 16 15 21 15 5 0 6 -7 3 -15z m-44 -24 c0 -11 -31 -24 -39
-16 -3 3 1 10 9 15 19 12 30 12 30 1z m-60 -30 c0 -13 -28 -22 -35 -11 -3 4 1
11 7 13 20 8 28 8 28 -2z m-55 -30 c-3 -6 -14 -11 -23 -11 -15 1 -15 2 2 15
21 16 32 13 21 -4z m-59 -33 c-10 -6 -20 -7 -24 -3 -9 8 20 25 31 18 5 -3 2
-10 -7 -15z m-46 -18 c0 -5 -2 -10 -4 -10 -3 0 -8 5 -11 10 -3 6 -1 10 4 10 6
0 11 -4 11 -10z m-30 -10 c0 -13 -28 -25 -38 -16 -3 4 0 11 8 16 20 13 30 12
30 0z m-50 -29 c0 -11 -31 -24 -39 -16 -3 3 1 10 9 15 19 12 30 12 30 1z m-63
-48 c-9 -9 -20 -13 -24 -9 -4 4 -1 11 7 16 25 16 35 11 17 -7z m-47 -38 c-7
-8 -17 -12 -23 -8 -6 4 -3 11 8 19 23 17 32 10 15 -11z m-40 -24 c0 -12 -20
-25 -27 -18 -7 7 6 27 18 27 5 0 9 -4 9 -9z m-270 -21 c-19 -12 -30 -12 -30
-1 0 10 31 20 40 14 2 -2 -2 -8 -10 -13z m65 10 c-3 -5 -12 -10 -20 -10 -8 0
-17 5 -20 10 -4 6 5 10 20 10 15 0 24 -4 20 -10z m-15 -40 c0 -11 -4 -20 -10
-20 -5 0 -10 9 -10 20 0 11 5 20 10 20 6 0 10 -9 10 -20z m167 3 c-9 -9 -19
-14 -23 -11 -10 10 6 28 24 28 15 0 15 -1 -1 -17z m-217 -24 c0 -11 -4 -17
-10 -14 -5 3 -10 15 -10 26 0 11 5 17 10 14 6 -3 10 -15 10 -26z m180 2 c0
-13 -26 -32 -33 -24 -8 7 11 33 24 33 5 0 9 -4 9 -9z m-120 -41 c0 -11 4 -20
9 -20 8 0 8 -25 1 -60 0 -3 -6 4 -12 14 -15 27 -21 86 -8 86 5 0 10 -9 10 -20z
m-49 -25 c4 -39 -1 -65 -12 -65 -6 0 -9 9 -6 20 3 10 1 20 -3 22 -5 2 -6 16
-3 31 6 30 21 25 24 -8z m116 0 c1 -19 -3 -35 -8 -35 -5 0 -9 9 -9 19 0 11 -6
22 -12 24 -10 4 -9 8 2 16 23 16 26 14 27 -24z m-177 -25 c-19 -12 -30 -12
-30 -1 0 10 31 20 40 14 2 -2 -2 -8 -10 -13z m-50 1 c0 -5 -9 -11 -20 -14 -20
-5 -26 3 -13 16 9 10 33 8 33 -2z m-60 -20 c0 -11 -31 -24 -39 -16 -3 3 1 10
9 15 19 12 30 12 30 1z m283 -31 c-3 -11 -9 -20 -14 -20 -11 0 -11 3 -3 24 9
23 23 20 17 -4z m-67 -27 c-11 -11 -19 6 -11 24 8 17 8 17 12 0 3 -10 2 -21
-1 -24z m-66 3 c0 -8 -4 -18 -10 -21 -5 -3 -10 3 -10 14 0 12 5 21 10 21 6 0
10 -6 10 -14z m123 -35 c3 -12 -1 -22 -11 -26 -20 -7 -22 -4 -15 23 7 27 19
28 26 3z m-63 0 c0 -5 3 -16 6 -25 4 -12 0 -16 -16 -16 -16 0 -20 4 -16 16 3
9 6 20 6 25 0 5 5 9 10 9 6 0 10 -4 10 -9z m-63 -27 c14 -13 14 -17 2 -25 -23
-14 -29 -11 -29 16 0 29 5 31 27 9z m-52 -33 c-8 -13 -45 -15 -45 -2 0 5 10
11 23 13 27 5 31 3 22 -11z m-910 -182 c-3 -4 -12 -6 -20 -3 -8 4 -13 10 -10
15 3 4 12 6 20 3 8 -4 13 -10 10 -15z m-2160 -149 c14 -16 15 -20 4 -20 -16 0
-39 19 -39 32 0 14 16 9 35 -12z m50 -41 c12 -19 -5 -23 -22 -6 -16 16 -16 17
-1 17 9 0 20 -5 23 -11z m-70 -29 c3 -5 -3 -10 -14 -10 -12 0 -21 5 -21 10 0
6 6 10 14 10 8 0 18 -4 21 -10z m65 -10 c0 -5 -9 -10 -20 -10 -11 0 -20 5 -20
10 0 6 9 10 20 10 11 0 20 -4 20 -10z m-117 -25 c-3 -8 -9 -15 -14 -15 -10 0
-12 24 -3 33 11 11 24 -3 17 -18z m214 -20 c-4 -8 -11 -15 -17 -15 -7 0 -7 6
0 21 13 23 26 19 17 -6z m47 9 c9 -3 14 -10 11 -15 -7 -10 -35 0 -35 12 0 11
3 11 24 3z m-265 -38 c7 -8 8 -17 3 -19 -4 -3 -13 3 -20 14 -14 22 0 26 17 5z
m301 -22 c0 -8 -4 -12 -10 -9 -5 3 -10 13 -10 21 0 8 5 12 10 9 6 -3 10 -13
10 -21z m-70 -10 c0 -8 -4 -14 -10 -14 -5 0 -10 9 -10 21 0 11 5 17 10 14 6
-3 10 -13 10 -21z m-190 -24 c6 -11 7 -20 2 -20 -10 0 -32 21 -32 32 0 16 19
8 30 -12z m299 -16 c3 -16 1 -17 -13 -5 -19 16 -21 34 -3 29 6 -3 14 -13 16
-24z m-89 -15 c0 -11 -4 -17 -10 -14 -5 3 -10 13 -10 21 0 8 5 14 10 14 6 0
10 -9 10 -21z m126 -37 c-9 -8 -26 10 -26 26 1 15 2 15 15 -2 8 -11 13 -21 11
-24z m-100 -30 c-9 -8 -26 10 -26 26 1 15 2 15 15 -2 8 -11 13 -21 11 -24z
m118 -8 c9 -22 -3 -32 -14 -14 -12 19 -12 30 -1 30 5 0 12 -7 15 -16z m5866
-15 c15 -28 4 -38 -15 -13 -17 22 -19 34 -5 34 5 0 14 -9 20 -21z m-5966 -15
c9 -24 7 -28 -9 -14 -17 14 -20 30 -6 30 5 0 12 -7 15 -16z m56 -14 c0 -5 -9
-10 -21 -10 -11 0 -17 5 -14 10 3 6 13 10 21 10 8 0 14 -4 14 -10z m52 -13
c-7 -8 -8 -17 -4 -22 4 -4 -2 -6 -12 -4 -28 6 -30 24 -4 36 27 13 35 9 20 -10z
m5888 -11 c0 -8 -4 -18 -10 -21 -5 -3 -10 3 -10 14 0 12 5 21 10 21 6 0 10 -6
10 -14z m-5862 -62 c-10 -10 -28 6 -28 24 0 15 1 15 17 -1 9 -9 14 -19 11 -23z
m4262 -111 l0 -147 -46 -118 c-25 -65 -50 -116 -54 -113 -9 6 -3 26 49 160 29
76 31 86 31 222 0 89 4 143 10 143 6 0 10 -56 10 -147z m1578 94 c-1 -19 2
-39 6 -45 3 -6 2 -13 -3 -16 -10 -7 -22 59 -14 80 9 23 12 16 11 -19z m-5923
3 c3 -5 -3 -10 -14 -10 -12 0 -21 5 -21 10 0 6 6 10 14 10 8 0 18 -4 21 -10z
m95 -20 c-19 -12 -30 -12 -30 -1 0 10 31 20 40 14 2 -2 -2 -8 -10 -13z m-146
-14 c-6 -16 -24 -23 -24 -8 0 10 22 33 27 28 2 -2 1 -11 -3 -20z m96 -1 c7 -8
8 -15 2 -15 -5 0 -15 7 -22 15 -7 8 -8 15 -2 15 5 0 15 -7 22 -15z m-130 -33
c0 -11 -22 -32 -32 -32 -5 0 -4 9 2 20 11 20 30 28 30 12z m6020 -39 c-1 -24
-2 -26 -11 -10 -5 9 -7 22 -4 27 10 17 15 11 15 -17z m12 -77 c-2 -5 -9 -1
-14 8 -5 9 -6 21 -2 28 9 14 25 -22 16 -36z m11 -37 c3 -13 1 -19 -6 -16 -15
5 -22 37 -9 37 5 0 12 -9 15 -21z m10 -60 c3 -13 1 -19 -6 -16 -15 5 -22 37
-9 37 5 0 12 -9 15 -21z m10 -60 c3 -13 1 -19 -6 -16 -15 5 -22 37 -9 37 5 0
12 -9 15 -21z m-4816 -5 c-3 -3 -12 -4 -19 -1 -8 3 -5 6 6 6 11 1 17 -2 13 -5z
m4826 -54 c3 -11 1 -20 -4 -20 -5 0 -9 2 -9 4 0 2 -3 11 -6 20 -3 9 -2 16 4
16 5 0 12 -9 15 -20z m7 -47 c0 -14 -19 -38 -25 -32 -8 8 5 39 16 39 5 0 9 -3
9 -7z m-4800 -51 c0 -9 7 -13 19 -9 14 3 18 1 14 -9 -11 -29 -40 -14 -56 27
-16 41 -16 41 3 24 11 -10 20 -25 20 -33z m4780 -16 c0 -8 -4 -18 -10 -21 -5
-3 -10 3 -10 14 0 12 5 21 10 21 6 0 10 -6 10 -14z m-4700 -36 c-1 -12 -4 -11
-15 4 -8 10 -12 23 -8 29 7 11 23 -12 23 -33z m4687 -42 c-3 -7 -5 -2 -5 12 0
14 2 19 5 13 2 -7 2 -19 0 -25z m-4687 2 c0 -11 -4 -20 -10 -20 -5 0 -10 9
-10 20 0 11 5 20 10 20 6 0 10 -9 10 -20z m260 -77 c12 -54 25 -116 30 -138 5
-21 7 -41 4 -44 -11 -12 -23 22 -44 124 -12 61 -25 120 -27 133 -3 12 -1 22 5
22 6 0 20 -44 32 -97z m4430 26 c0 -11 -4 -17 -10 -14 -5 3 -10 13 -10 21 0 8
5 14 10 14 6 0 10 -9 10 -21z m0 -59 c0 -11 -4 -20 -10 -20 -5 0 -10 9 -10 20
0 11 5 20 10 20 6 0 10 -9 10 -20z m-4693 -12 c-3 -8 -6 -5 -6 6 -1 11 2 17 5
13 3 -3 4 -12 1 -19z m10 -50 c-3 -7 -5 -2 -5 12 0 14 2 19 5 13 2 -7 2 -19 0
-25z m4696 -11 c-7 -11 -23 12 -23 33 1 12 4 11 15 -4 8 -10 12 -23 8 -29z
m-4686 -29 c-3 -8 -6 -5 -6 6 -1 11 2 17 5 13 3 -3 4 -12 1 -19z m4669 -25
c-11 -11 -19 6 -11 24 8 17 8 17 12 0 3 -10 2 -21 -1 -24z m-4666 -91 c-11
-32 -11 -36 10 -52 13 -9 18 -20 13 -23 -6 -4 -20 3 -32 14 -17 16 -21 28 -16
48 4 14 11 29 17 32 6 4 7 17 4 30 -6 22 -6 22 5 5 9 -15 9 -27 -1 -54z m4660
48 c0 -11 -4 -20 -10 -20 -5 0 -10 9 -10 20 0 11 5 20 10 20 6 0 10 -9 10 -20z
m10 -62 c0 -19 -2 -20 -10 -8 -13 19 -13 30 0 30 6 0 10 -10 10 -22z m16 -68
c2 -17 0 -29 -5 -26 -10 7 -20 53 -13 61 9 8 14 -2 18 -35z m24 -66 c0 -8 -4
-12 -10 -9 -5 3 -10 13 -10 21 0 8 5 12 10 9 6 -3 10 -13 10 -21z m-4601 -36
c2 -12 -11 -8 -51 14 -20 12 -35 25 -32 30 6 9 80 -31 83 -44z m1801 36 c0 -3
-12 -26 -27 -52 -15 -26 -27 -48 -28 -49 0 -1 -18 -9 -38 -18 -24 -10 -37 -11
-37 -4 0 6 13 16 29 22 18 6 40 29 57 59 25 42 44 61 44 42z m2810 -48 c0 -8
-4 -18 -10 -21 -5 -3 -10 3 -10 14 0 12 5 21 10 21 6 0 10 -6 10 -14z m-13
-78 c-3 -7 -5 -2 -5 12 0 14 2 19 5 13 2 -7 2 -19 0 -25z m3 -48 c0 -11 -4
-20 -9 -20 -5 0 -7 9 -4 20 3 11 7 20 9 20 2 0 4 -9 4 -20z m-4145 -40 c3 -5
-3 -10 -14 -10 -10 0 -26 -3 -35 -6 -9 -3 -16 -1 -16 4 0 18 55 28 65 12z
m1790 0 c-3 -5 -10 -10 -16 -10 -5 0 -9 5 -9 10 0 6 7 10 16 10 8 0 12 -4 9
-10z m2355 -20 c0 -11 -4 -20 -10 -20 -5 0 -10 9 -10 20 0 11 5 20 10 20 6 0
10 -9 10 -20z m-2390 1 c0 -5 -7 -12 -16 -15 -24 -9 -28 -7 -14 9 14 17 30 20
30 6z m-50 -30 c0 -11 -31 -24 -39 -16 -3 3 1 10 9 15 19 12 30 12 30 1z m-60
-31 c0 -11 -4 -20 -10 -20 -5 0 -10 9 -10 20 0 11 5 20 10 20 6 0 10 -9 10
-20z m2500 0 c0 -11 -4 -20 -10 -20 -5 0 -10 9 -10 20 0 11 5 20 10 20 6 0 10
-9 10 -20z m-2500 -54 c0 -8 -4 -18 -10 -21 -5 -3 -10 3 -10 14 0 12 5 21 10
21 6 0 10 -6 10 -14z m2500 -6 c0 -11 -4 -20 -10 -20 -5 0 -10 9 -10 20 0 11
5 20 10 20 6 0 10 -9 10 -20z m-2510 -60 c0 -11 -4 -20 -10 -20 -5 0 -10 9
-10 20 0 11 5 20 10 20 6 0 10 -9 10 -20z m2510 0 c0 -11 -4 -20 -10 -20 -5 0
-10 9 -10 20 0 11 5 20 10 20 6 0 10 -9 10 -20z m-2540 -29 c0 -13 -26 -32
-33 -24 -8 7 11 33 24 33 5 0 9 -4 9 -9z m2540 -31 c0 -11 -4 -20 -10 -20 -5
0 -10 9 -10 20 0 11 5 20 10 20 6 0 10 -9 10 -20z m-2590 -9 c0 -12 -20 -25
-27 -18 -7 7 6 27 18 27 5 0 9 -4 9 -9z m-286 -36 c-6 -16 -24 -21 -24 -7 0
11 11 22 21 22 5 0 6 -7 3 -15z m236 5 c0 -5 -4 -10 -10 -10 -5 0 -10 5 -10
10 0 6 5 10 10 10 6 0 10 -4 10 -10z m-100 -10 c0 -5 -11 -10 -25 -10 -14 0
-25 5 -25 10 0 6 11 10 25 10 14 0 25 -4 25 -10z m2744 -6 c8 -21 8 -24 -3
-24 -5 0 -11 9 -14 20 -6 24 8 27 17 4z m-2673 -16 c21 -23 24 -38 10 -38 -5
0 -13 9 -16 20 -3 11 -13 20 -20 20 -8 0 -17 5 -20 10 -12 20 28 10 46 -12z
m-1776 -36 c-6 -7 -35 18 -35 31 0 5 9 2 20 -8 11 -10 18 -20 15 -23z m1569
12 c4 -9 4 -19 2 -21 -8 -8 -26 8 -26 23 0 19 16 18 24 -2z m2899 -19 c4 -8 2
-17 -3 -20 -6 -4 -10 -4 -10 -1 0 2 -3 11 -6 20 -3 9 -2 16 4 16 5 0 12 -7 15
-15z m-4426 -41 c-9 -10 -38 16 -31 28 4 6 13 4 22 -6 9 -8 13 -19 9 -22z
m1557 10 c9 -22 -3 -32 -14 -14 -12 19 -12 30 -1 30 5 0 12 -7 15 -16z m206
-5 c0 -11 -4 -17 -10 -14 -5 3 -10 13 -10 21 0 8 5 14 10 14 6 0 10 -9 10 -21z
m2680 -30 c0 -11 -4 -17 -10 -14 -5 3 -10 15 -10 26 0 11 5 17 10 14 6 -3 10
-15 10 -26z m-4402 -15 c-10 -10 -28 6 -28 24 0 15 1 15 17 -1 9 -9 14 -19 11
-23z m1519 -9 c-4 -8 -11 -15 -17 -15 -7 0 -7 6 0 21 13 23 26 19 17 -6z
m1403 16 c0 -12 -20 -25 -27 -18 -7 7 6 27 18 27 5 0 9 -4 9 -9z m38 -10 c3
-8 -1 -12 -9 -9 -7 2 -15 10 -17 17 -3 8 1 12 9 9 7 -2 15 -10 17 -17z m-1225
-11 c3 -11 1 -20 -4 -20 -5 0 -9 2 -9 4 0 2 -3 11 -6 20 -3 9 -2 16 4 16 5 0
12 -9 15 -20z m-1695 -19 c3 -8 -1 -12 -9 -9 -7 2 -15 10 -17 17 -3 8 1 12 9
9 7 -2 15 -10 17 -17z m121 -23 c7 -24 30 -70 52 -104 21 -33 46 -81 54 -105
13 -38 23 -49 61 -67 24 -12 57 -22 72 -22 16 0 33 -5 40 -12 8 -8 15 -8 27 2
12 10 15 10 15 -3 0 -25 -25 -40 -40 -22 -7 8 -25 15 -41 15 -16 0 -53 12 -83
27 -46 22 -55 32 -66 67 -6 23 -29 68 -50 101 -51 78 -83 165 -62 165 5 0 14
-19 21 -42z m4271 27 c10 -12 10 -15 -3 -15 -8 0 -17 7 -21 15 -3 8 -2 15 3
15 5 0 14 -7 21 -15z m-1554 -32 c-11 -11 -19 6 -11 24 8 17 8 17 12 0 3 -10
2 -21 -1 -24z m126 15 c-11 -11 -32 -3 -32 12 0 4 9 6 21 3 13 -4 17 -9 11
-15z m63 12 c4 -6 -6 -10 -22 -10 -22 0 -25 2 -13 10 19 12 27 12 35 0z m55 0
c12 -8 9 -10 -13 -10 -16 0 -26 4 -22 10 8 12 16 12 35 0z m-1639 -33 c-16
-16 -26 0 -10 19 9 11 15 12 17 4 2 -6 -1 -17 -7 -23z m1699 13 c0 -5 -9 -6
-20 -3 -11 3 -17 9 -15 14 7 10 35 1 35 -11z m-1474 -15 c-3 -9 -11 -13 -16
-10 -8 5 -7 11 1 21 14 18 24 11 15 -11z m-1632 -1 c9 -22 -3 -32 -14 -14 -12
19 -12 30 -1 30 5 0 12 -7 15 -16z m3155 3 c6 -8 8 -17 4 -20 -7 -8 -33 11
-33 24 0 13 16 11 29 -4z m1237 -24 c-4 -4 -11 -1 -16 7 -16 25 -11 35 7 17 9
-9 13 -20 9 -24z m-3076 17 c0 -5 -11 -10 -25 -10 -14 0 -25 5 -25 10 0 6 11
10 25 10 14 0 25 -4 25 -10z m60 0 c0 -5 -12 -10 -26 -10 -14 0 -23 4 -19 10
3 6 15 10 26 10 10 0 19 -4 19 -10z m1430 -30 c0 -11 -4 -20 -10 -20 -5 0 -10
9 -10 20 0 11 5 20 10 20 6 0 10 -9 10 -20z m-1200 1 c0 -12 -20 -25 -27 -18
-7 7 6 27 18 27 5 0 9 -4 9 -9z m1586 -29 c-9 -8 -26 10 -26 26 1 15 2 15 15
-2 8 -11 13 -21 11 -24z m-3206 14 c0 -8 -4 -17 -9 -21 -12 -7 -24 12 -16 25
9 15 25 12 25 -4z m4419 -23 c0 -25 -1 -26 -9 -8 -12 27 -12 35 0 35 6 0 10
-12 9 -27z m-2840 -19 c-17 -21 -31 -17 -19 6 6 11 15 18 21 14 6 -4 6 -11 -2
-20z m1211 19 c0 -14 -19 -38 -25 -32 -8 8 5 39 16 39 5 0 9 -3 9 -7z m-2755
-41 c-8 -9 -35 20 -28 31 4 6 11 3 19 -8 8 -10 12 -21 9 -23z m3192 13 c9 -25
-4 -29 -17 -6 -7 15 -7 21 0 21 6 0 13 -7 17 -15z m-1690 -32 c-9 -9 -20 -13
-24 -9 -4 4 -1 11 7 16 25 16 35 11 17 -7z m1226 -8 c-3 -8 -9 -15 -14 -15
-10 0 -12 24 -3 33 11 11 24 -3 17 -18z m-2705 -17 c2 -11 -4 -14 -28 -10 -33
5 -40 18 -12 25 25 7 37 2 40 -15z m1442 -6 c0 -4 -9 -13 -20 -20 -22 -13 -27
-3 -8 16 14 14 28 16 28 4z m1216 -14 c-10 -6 -20 -7 -24 -3 -9 8 20 25 31 18
5 -3 2 -10 -7 -15z m-2616 -8 c8 -5 11 -12 7 -16 -4 -4 -15 0 -24 9 -18 18 -8
23 17 7z m2570 0 c0 -5 -9 -10 -20 -10 -11 0 -20 5 -20 10 0 6 9 10 20 10 11
0 20 -4 20 -10z m-57 -35 c-3 -8 -9 -15 -14 -15 -10 0 -12 24 -3 33 11 11 24
-3 17 -18z m-2459 -16 c-4 -6 -11 -6 -20 2 -21 17 -17 31 6 19 11 -6 18 -15
14 -21z m45 -35 c3 -16 1 -17 -13 -5 -19 16 -21 34 -3 29 6 -3 14 -13 16 -24z
m261 17 c0 -5 -7 -14 -15 -21 -12 -10 -15 -10 -15 2 0 8 3 18 7 21 9 10 23 9
23 -2z m2137 -18 c-9 -9 -19 -14 -23 -11 -10 10 6 28 24 28 15 0 15 -1 -1 -17z
m-44 -38 c-3 -8 -9 -15 -14 -15 -10 0 -12 24 -3 33 11 11 24 -3 17 -18z
m-2325 -8 c5 -24 -15 -21 -21 4 -3 13 -1 19 6 16 7 -2 13 -11 15 -20z m16 -69
c-5 -8 -10 -5 -14 8 -10 25 0 41 12 20 5 -9 6 -21 2 -28z m142 26 c-3 -9 -6
-18 -6 -20 0 -3 -4 -3 -10 1 -11 7 -2 35 12 35 6 0 7 -7 4 -16z m2164 -4 c0
-11 -4 -20 -10 -20 -5 0 -10 9 -10 20 0 11 5 20 10 20 6 0 10 -9 10 -20z
m-2166 -72 c18 -15 19 -18 4 -18 -15 0 -16 -4 -8 -26 13 -34 13 -36 -8 -25
-11 6 -18 19 -17 33 1 13 -2 29 -7 35 -6 7 -7 21 -3 30 6 15 8 15 12 3 3 -8
15 -23 27 -32z m-134 7 c0 -8 -4 -17 -10 -20 -6 -4 -10 5 -10 20 0 15 4 24 10
20 6 -3 10 -12 10 -20z m2300 11 c0 -15 -18 -31 -26 -23 -7 7 7 37 17 37 5 0
9 -6 9 -14z m-2100 -48 c0 -6 -7 -7 -16 -4 -9 3 -18 6 -20 6 -3 0 -3 4 1 10 7
11 35 2 35 -12z m2070 3 c0 -13 -26 -32 -33 -24 -8 7 11 33 24 33 5 0 9 -4 9
-9z m-2245 -11 c3 -5 -3 -10 -14 -10 -12 0 -21 5 -21 10 0 6 6 10 14 10 8 0
18 -4 21 -10z m223 -19 c3 -8 -1 -12 -9 -9 -7 2 -15 10 -17 17 -3 8 1 12 9 9
7 -2 15 -10 17 -17z m1916 10 c3 -5 -1 -12 -10 -15 -20 -8 -29 -1 -19 13 8 13
22 14 29 2z m-2079 -11 c-3 -5 -12 -10 -20 -10 -8 0 -17 5 -20 10 -4 6 5 10
20 10 15 0 24 -4 20 -10z m2140 -10 c3 -5 -3 -10 -14 -10 -11 0 -23 5 -26 10
-3 6 3 10 14 10 11 0 23 -4 26 -10z m-105 -7 c0 -14 -19 -38 -25 -32 -8 8 5
39 16 39 5 0 9 -3 9 -7z m-1839 -36 c-8 -8 -11 -7 -11 4 0 20 13 34 18 19 3
-7 -1 -17 -7 -23z m-61 18 c0 -8 -44 -23 -53 -18 -14 8 4 23 29 23 13 0 24 -2
24 -5z m20 -45 c0 -11 -4 -20 -10 -20 -5 0 -10 9 -10 20 0 11 5 20 10 20 6 0
10 -9 10 -20z m1831 -13 c-16 -16 -26 0 -10 19 9 11 15 12 17 4 2 -6 -1 -17
-7 -23z m-1881 9 c0 -8 -4 -18 -10 -21 -5 -3 -10 3 -10 14 0 12 5 21 10 21 6
0 10 -6 10 -14z m100 -6 c0 -11 -4 -20 -10 -20 -5 0 -10 9 -10 20 0 11 5 20
10 20 6 0 10 -9 10 -20z m120 -5 c7 -9 10 -18 7 -22 -8 -7 -37 15 -37 28 0 14
16 11 30 -6z m-152 -38 c17 6 15 -12 -3 -27 -11 -9 -15 -9 -15 -1 0 7 -4 9
-10 6 -6 -4 -10 6 -10 22 1 24 2 26 13 12 7 -9 18 -14 25 -12z m1802 -2 c0 -8
-4 -17 -10 -20 -6 -4 -10 5 -10 20 0 15 4 24 10 20 6 -3 10 -12 10 -20z
m-1890 -2 c-1 -18 -18 -35 -24 -24 -4 6 -18 11 -32 11 -13 0 -24 5 -24 10 0 6
18 10 40 10 22 0 40 -3 40 -7z m280 -3 c0 -5 -9 -10 -19 -10 -11 0 -23 5 -26
10 -4 6 5 10 19 10 14 0 26 -4 26 -10z m20 -20 c-6 -11 -15 -20 -20 -20 -16 0
-11 18 8 29 24 14 24 14 12 -9z m-72 -2 c-2 -6 -10 -14 -16 -16 -7 -2 -10 2
-6 12 7 18 28 22 22 4z m-164 -41 c-3 -9 -10 -17 -15 -17 -11 0 -12 34 -2 44
11 11 24 -9 17 -27z m1816 24 c0 -5 -7 -14 -15 -21 -12 -10 -15 -10 -15 2 0 8
3 18 7 21 9 10 23 9 23 -2z m-1913 -21 c-3 -11 0 -20 6 -21 8 0 8 -2 0 -6 -7
-2 -13 -11 -13 -19 0 -8 -4 -14 -10 -14 -5 0 -10 7 -10 16 0 8 -4 12 -10 9 -5
-3 -10 -2 -10 3 0 6 7 12 15 16 8 3 15 12 15 21 0 8 5 15 11 15 6 0 9 -9 6
-20z m216 -22 c-10 -11 -19 -15 -21 -8 -5 15 18 41 30 34 5 -3 1 -15 -9 -26z
m107 12 c0 -5 -4 -10 -10 -10 -5 0 -10 5 -10 10 0 6 5 10 10 10 6 0 10 -4 10
-10z m1536 -28 c-8 -9 -19 -13 -22 -9 -10 9 16 38 28 31 6 -4 4 -13 -6 -22z
m-1783 -23 c-4 -13 -9 -17 -15 -11 -11 11 -3 32 12 32 4 0 6 -9 3 -21z m1744
-16 c-9 -9 -19 -14 -23 -11 -10 10 6 28 24 28 15 0 15 -1 -1 -17z m-1827 -23
c0 -11 -4 -20 -10 -20 -5 0 -10 9 -10 20 0 11 5 20 10 20 6 0 10 -9 10 -20z
m70 3 c0 -14 -19 -38 -25 -32 -8 8 5 39 16 39 5 0 9 -3 9 -7z m1718 -5 c-3 -7
-13 -15 -24 -17 -16 -3 -17 -1 -5 13 16 19 34 21 29 4z m-62 -43 c-21 -16 -32
-13 -21 4 3 6 14 11 23 11 15 -1 15 -2 -2 -15z m-1726 -15 c0 -11 -4 -20 -10
-20 -5 0 -10 9 -10 20 0 11 5 20 10 20 6 0 10 -9 10 -20z m338 -10 c-13 -20
-28 -27 -28 -12 0 10 22 32 32 32 5 0 3 -9 -4 -20z m1342 -5 c-7 -8 -16 -15
-21 -15 -5 0 -6 7 -3 15 4 8 13 15 21 15 13 0 13 -3 3 -15z m-4242 -58 c34
-64 39 -83 22 -72 -10 6 -70 118 -70 130 0 19 20 -4 48 -58z m2593 27 c12 -14
11 -16 -5 -13 -11 2 -21 10 -24 17 -5 17 13 15 29 -4z m265 -22 c-8 -9 -19
-13 -22 -9 -10 9 16 38 28 31 6 -4 4 -13 -6 -22z m1354 19 c0 -5 -7 -14 -15
-21 -16 -14 -18 -10 -9 14 6 17 24 22 24 7z m-1570 -21 c8 -5 12 -12 9 -15 -8
-8 -39 5 -39 16 0 11 11 11 30 -1z m55 -31 c11 -17 0 -20 -21 -4 -17 13 -17
14 -2 15 9 0 20 -5 23 -11z m129 -11 c-8 -27 -50 -72 -57 -61 -5 11 18 55 25
47 4 -3 9 4 13 15 3 12 11 21 16 21 6 0 7 -9 3 -22z m1340 -2 c-6 -16 -24 -23
-24 -8 0 10 22 33 27 28 2 -2 1 -11 -3 -20z m-1409 -6 c3 -5 -3 -10 -14 -10
-12 0 -21 5 -21 10 0 6 6 10 14 10 8 0 18 -4 21 -10z m120 -10 c3 -6 -4 -10
-17 -10 -18 0 -20 2 -8 10 19 12 18 12 25 0z m65 0 c0 -5 -9 -10 -20 -10 -11
0 -20 5 -20 10 0 6 9 10 20 10 11 0 20 -4 20 -10z m1190 -30 c-6 -11 -15 -18
-21 -14 -6 4 -6 11 2 20 17 21 31 17 19 -6z m-1360 -50 c0 -11 -4 -20 -10 -20
-5 0 -10 9 -10 20 0 11 5 20 10 20 6 0 10 -9 10 -20z m1330 11 c0 -12 -20 -25
-27 -18 -7 7 6 27 18 27 5 0 9 -4 9 -9z m-49 -64 c-16 -16 -26 0 -10 19 9 11
15 12 17 4 2 -6 -1 -17 -7 -23z m-2491 -3 c0 -14 -4 -23 -10 -19 -5 3 -10 15
-10 26 0 10 5 19 10 19 6 0 10 -12 10 -26z m1200 -4 c0 -11 -4 -20 -9 -20 -5
0 -7 9 -4 20 3 11 7 20 9 20 2 0 4 -9 4 -20z m-1144 -37 c-8 -8 -36 5 -36 17
0 7 6 7 21 0 11 -7 18 -14 15 -17z m2414 18 c0 -5 -7 -14 -15 -21 -12 -10 -15
-10 -15 2 0 8 3 18 7 21 9 10 23 9 23 -2z m-1260 -31 c8 -5 11 -12 8 -16 -10
-9 -38 3 -38 16 0 12 10 13 30 0z m-1110 -21 c11 -19 10 -20 -9 -9 -12 6 -21
15 -21 20 0 18 19 11 30 -11z m1165 0 c11 -17 0 -20 -21 -4 -17 13 -17 14 -2
15 9 0 20 -5 23 -11z m1165 2 c0 -5 -7 -14 -15 -21 -16 -14 -18 -10 -9 14 6
17 24 22 24 7z m-1113 -57 c-9 -10 -38 16 -31 28 4 6 13 4 22 -6 9 -8 13 -19
9 -22z m1068 -4 c-20 -23 -29 -21 -19 4 3 9 13 16 22 16 13 0 12 -3 -3 -20z
m-1015 0 c0 -5 -6 -10 -14 -10 -8 0 -18 5 -21 10 -3 6 3 10 14 10 12 0 21 -4
21 -10z m-1200 -105 c0 -8 -4 -15 -10 -15 -5 0 -10 7 -10 15 0 8 5 15 10 15 6
0 10 -7 10 -15z m-20 -59 c0 -8 -4 -18 -10 -21 -5 -3 -10 3 -10 14 0 12 5 21
10 21 6 0 10 -6 10 -14z m-17 -66 c-3 -11 -9 -20 -14 -20 -10 0 -11 12 -3 34
9 22 23 10 17 -14z m-13 -37 c0 -14 -19 -38 -25 -32 -8 8 5 39 16 39 5 0 9 -3
9 -7z m-35 -43 c4 -6 -5 -10 -20 -10 -15 0 -24 4 -20 10 3 6 12 10 20 10 8 0
17 -4 20 -10z m-115 -10 c0 -5 -11 -10 -25 -10 -14 0 -25 5 -25 10 0 6 11 10
25 10 14 0 25 -4 25 -10z m55 0 c-3 -5 -12 -10 -20 -10 -8 0 -17 5 -20 10 -4
6 5 10 20 10 15 0 24 -4 20 -10z m-2045 -611 c0 -6 -4 -7 -10 -4 -5 3 -10 11
-10 16 0 6 5 7 10 4 6 -3 10 -11 10 -16z m30 -19 c0 -5 -4 -10 -10 -10 -5 0
-10 5 -10 10 0 6 5 10 10 10 6 0 10 -4 10 -10z m25 -20 c3 -5 1 -10 -4 -10 -6
0 -11 5 -11 10 0 6 2 10 4 10 3 0 8 -4 11 -10z m55 -40 c0 -5 -5 -10 -11 -10
-5 0 -7 5 -4 10 3 6 8 10 11 10 2 0 4 -4 4 -10z m60 -44 c0 -3 -4 -8 -10 -11
-5 -3 -10 -1 -10 4 0 6 5 11 10 11 6 0 10 -2 10 -4z m20 -26 c0 -5 -2 -10 -4
-10 -3 0 -8 5 -11 10 -3 6 -1 10 4 10 6 0 11 -4 11 -10z m33 -24 c4 -10 1 -13
-9 -9 -7 3 -14 9 -14 14 0 14 17 10 23 -5z"/>
</g>
</svg>
