<?xml version="1.0" standalone="no"?>
<!DOCTYPE svg PUBLIC "-//W3C//DTD SVG 20010904//EN"
 "http://www.w3.org/TR/2001/REC-SVG-20010904/DTD/svg10.dtd">
<svg version="1.0" xmlns="http://www.w3.org/2000/svg"
 width="800.000000pt" height="800.000000pt" viewBox="0 0 800.000000 800.000000"
 preserveAspectRatio="xMidYMid meet">
<metadata>
Created by potrace 1.16, written by Peter Selinger 2001-2019
</metadata>
<g transform="translate(0.000000,800.000000) scale(0.100000,-0.100000)"
fill="#000000" stroke="none">
<path d="M0 4853 l1 -3148 50 55 c28 30 102 123 164 205 62 83 125 161 139
174 l26 24 -65 68 c-86 89 -84 112 3 26 37 -37 70 -67 74 -67 3 0 60 64 126
143 65 78 135 157 154 176 44 42 129 79 205 87 32 3 68 12 80 20 17 11 22 11
26 0 6 -15 -52 -36 -97 -36 -39 0 -108 -19 -131 -36 -18 -14 -10 -24 167 -202
106 -106 195 -204 206 -227 13 -26 22 -73 26 -135 4 -52 10 -104 12 -116 5
-18 0 -22 -36 -27 -23 -3 -44 -7 -46 -10 -2 -2 2 -17 11 -33 20 -39 19 -44
-10 -84 -23 -31 -71 -51 -62 -26 3 6 9 10 15 9 14 -3 52 45 52 66 -1 9 -11 28
-23 43 -21 25 -25 27 -59 17 -29 -7 -54 -30 -111 -98 l-75 -88 34 -26 c19 -16
35 -23 39 -17 11 18 21 10 20 -16 0 -21 9 -31 47 -51 29 -15 51 -35 58 -54 11
-26 16 -29 41 -24 18 4 29 2 29 -4 0 -6 -9 -11 -20 -11 -17 0 -20 -7 -20 -45
0 -42 -3 -47 -40 -73 -33 -22 -40 -32 -37 -55 2 -17 -1 -26 -7 -24 -6 2 -10
12 -10 21 1 9 -2 16 -6 16 -5 0 -22 12 -39 26 -37 31 -43 74 -10 74 16 0 20 5
16 20 -6 23 5 26 22 6 9 -11 5 -19 -18 -39 l-30 -25 25 -23 c13 -12 24 -17 24
-10 0 6 6 11 13 9 15 -3 58 21 74 41 18 24 16 61 -3 61 -10 0 -14 5 -10 15 6
17 -78 105 -100 105 -7 0 -14 6 -17 14 -4 10 -14 12 -29 8 -20 -5 -21 -3 -10
10 11 14 8 19 -17 37 l-29 21 -48 -55 c-26 -31 -56 -61 -66 -66 -10 -6 -60
-16 -110 -24 -72 -11 -96 -18 -115 -38 l-25 -24 197 -202 c109 -110 201 -201
206 -201 5 0 43 43 85 95 42 52 78 95 80 95 13 0 -5 -28 -71 -111 -99 -124
-99 -142 -4 -94 82 42 197 81 309 105 58 12 110 25 115 29 6 3 17 6 25 6 8 0
54 9 102 19 70 15 85 22 81 35 -3 11 -1 11 7 -2 7 -11 8 -22 4 -26 -5 -5 -49
-16 -97 -26 -86 -17 -88 -18 -60 -30 34 -16 320 -302 310 -311 -4 -4 -76 61
-160 144 -84 84 -160 152 -168 152 -8 0 -20 5 -25 10 -17 17 -246 -39 -386
-95 -10 -4 -15 -12 -11 -18 3 -5 1 -7 -5 -3 -12 7 -82 -23 -82 -36 0 -5 7 -20
16 -33 10 -15 12 -25 5 -25 -6 0 -18 11 -27 25 l-17 26 -23 -22 c-13 -12 -21
-26 -17 -32 3 -6 1 -7 -5 -3 -14 8 -74 -43 -65 -56 3 -6 1 -8 -4 -5 -14 9
-116 -110 -107 -124 4 -7 3 -9 -3 -6 -9 6 -322 -352 -553 -630 l-52 -63 2196
0 2196 0 19 39 c20 38 20 39 1 56 -24 22 -19 31 9 16 17 -9 22 -8 32 10 11 21
10 26 -21 89 -4 8 -18 21 -32 27 -21 11 -32 10 -64 -3 -22 -9 -55 -18 -74 -19
-19 -2 -63 -8 -97 -14 -48 -9 -67 -9 -82 1 -11 7 -24 8 -28 4 -4 -5 -3 -11 2
-13 64 -26 102 -52 116 -80 9 -18 19 -30 22 -26 4 3 5 -8 4 -25 -2 -37 -14
-44 -54 -33 l-28 8 27 11 c21 9 27 18 26 36 -2 19 -5 22 -15 14 -18 -14 -29
-2 -15 15 9 10 8 17 0 25 -15 15 -48 16 -48 2 0 -5 -4 -10 -10 -10 -5 0 -10 9
-10 20 0 11 -5 20 -10 20 -6 0 -15 10 -21 23 -6 12 -30 37 -53 54 -43 33 -79
42 -91 23 -9 -14 -27 -12 -23 2 3 7 15 15 27 18 32 7 26 24 -11 33 -18 5 -41
17 -51 28 -10 10 -24 19 -32 19 -8 0 -15 6 -15 14 0 8 -11 37 -26 65 -23 46
-28 51 -59 51 -19 0 -37 5 -40 10 -10 16 -35 -8 -28 -26 3 -9 -2 -14 -16 -14
-28 0 -27 15 4 45 26 27 40 31 50 15 3 -5 18 -10 33 -10 26 -1 62 -20 62 -34
0 -18 46 -106 55 -106 7 0 20 -9 30 -20 19 -21 69 -27 80 -10 13 21 24 9 15
-16 -6 -14 -10 -27 -10 -29 0 -2 21 -18 48 -37 77 -55 117 -63 220 -42 24 5
24 7 4 64 -7 22 17 -2 32 -32 13 -25 20 -26 88 -7 38 11 53 10 88 -1 33 -11
46 -11 61 -2 23 14 25 0 4 -22 -23 -23 -19 -26 34 -26 44 0 50 3 53 22 2 13
15 29 31 36 18 9 26 19 23 28 -9 23 15 64 38 64 19 0 19 -1 2 -13 -10 -7 -21
-29 -25 -47 -4 -22 -15 -39 -29 -45 -25 -11 -38 -35 -18 -35 18 0 33 -19 41
-53 5 -17 3 -27 -4 -27 -6 0 -11 8 -11 19 0 45 -54 50 -94 9 -10 -11 -24 -17
-30 -15 -8 3 -27 -24 -49 -69 l-37 -74 459 0 c297 0 462 4 466 10 3 6 17 7 30
4 12 -3 36 1 52 9 26 14 31 14 53 -4 34 -25 80 -25 80 0 0 17 18 31 41 31 5 0
4 -11 -1 -25 l-10 -25 79 0 79 0 7 30 c6 27 35 44 35 20 0 -5 8 -10 18 -10 12
0 8 -6 -13 -20 l-30 -20 283 0 c265 0 283 1 278 18 -3 9 -8 34 -12 55 -3 20
-10 39 -14 42 -5 3 -6 14 -3 25 3 11 2 28 -2 37 -9 21 -17 79 -16 111 0 12 -5
22 -12 22 -7 0 -4 5 5 11 9 5 15 16 12 24 -4 8 -10 12 -15 9 -5 -3 -9 -1 -9 5
0 5 5 11 11 13 14 5 -8 75 -26 81 -10 4 -124 -23 -156 -37 -13 -6 -20 4 -35
44 -21 58 -40 79 -89 95 -28 10 -32 10 -28 -3 5 -12 2 -12 -14 -4 -11 6 -23 9
-26 6 -3 -4 -6 2 -6 12 0 11 -3 30 -6 44 -16 72 -16 89 -1 124 17 41 14 65
-25 221 l-21 80 -36 0 c-34 0 -37 -3 -34 -25 3 -19 1 -22 -8 -14 -8 9 -22 8
-51 0 -22 -7 -40 -15 -40 -19 1 -4 1 -12 1 -17 0 -6 18 -17 40 -26 22 -9 40
-21 40 -26 0 -6 -8 -7 -17 -3 -10 4 -27 10 -37 13 -11 3 -27 13 -38 24 -21 21
-36 22 -73 8 -17 -6 -33 -7 -44 0 -16 8 -17 6 -13 -15 2 -15 0 -25 -7 -25 -6
0 -11 9 -11 20 0 28 -31 26 -60 -5 -13 -14 -30 -25 -39 -25 -11 0 -12 -3 -4
-11 13 -13 6 -46 -11 -52 -7 -3 -23 4 -37 14 l-24 19 28 0 c15 0 27 5 27 10 0
13 -2 13 -66 -6 -38 -11 -59 -12 -72 -5 -12 6 -30 7 -48 1 -64 -19 -167 -41
-172 -36 -7 7 42 25 103 38 28 5 58 14 67 19 10 5 29 4 47 -2 23 -8 45 -6 102
10 81 23 119 51 113 84 -2 12 -2 16 2 10 3 -7 10 -13 16 -13 14 0 -11 30 -26
30 -6 1 -23 19 -38 40 -35 51 -77 55 -69 7 1 -5 -8 -11 -19 -14 -24 -6 -25
-10 -4 -31 16 -15 15 -17 -12 -28 -39 -16 -47 -9 -39 37 6 32 4 39 -9 39 -9 0
-16 -5 -16 -11 0 -6 -10 -9 -22 -8 -13 2 -29 -1 -37 -6 -10 -5 -16 -4 -19 4
-3 8 -15 9 -38 5 -22 -4 -34 -2 -34 5 0 6 13 11 30 11 23 0 28 4 23 16 -6 15
-17 15 -55 -1 -10 -4 -18 -3 -18 3 0 5 14 15 30 22 27 11 41 30 23 30 -5 0 -8
16 -8 35 0 41 12 46 21 10 3 -14 10 -25 15 -25 5 0 6 -6 3 -13 -7 -20 14 -69
27 -61 6 3 14 1 18 -5 10 -16 71 -2 78 18 10 26 43 53 58 47 7 -2 16 0 19 7 3
9 5 9 5 0 1 -6 9 -9 20 -6 11 3 21 -2 24 -11 5 -13 12 -14 32 -6 34 13 65 13
65 0 0 -5 -10 -10 -22 -10 -33 0 -68 -11 -68 -21 0 -19 88 -99 108 -99 27 0
29 26 6 59 -16 22 -15 23 2 19 26 -4 44 -75 24 -88 -8 -5 -12 -12 -8 -15 13
-13 44 7 71 46 32 46 29 71 -10 96 -14 10 -32 31 -40 48 -16 35 -33 64 -50 83
-7 7 -13 17 -13 21 0 5 -20 14 -45 21 -36 10 -48 10 -60 0 -22 -18 -31 -4 -12
18 11 12 13 22 7 32 -14 22 -12 40 5 40 8 0 12 -6 9 -14 -9 -23 9 -26 34 -5
26 21 23 49 -8 84 -28 31 -60 97 -53 109 4 6 8 4 11 -4 9 -30 66 -113 70 -101
4 13 22 5 22 -10 0 -6 -4 -7 -10 -4 -13 8 -13 -1 0 -26 10 -18 12 -18 36 -2
16 10 21 19 14 23 -16 10 16 34 35 26 8 -3 15 -17 15 -33 -1 -27 -1 -27 -15
-9 -17 23 -20 14 -5 -15 6 -10 28 -28 50 -39 21 -11 45 -28 52 -38 25 -36 52
-43 98 -27 24 8 46 15 49 15 4 0 17 -33 30 -72 13 -40 30 -81 39 -90 14 -17
13 -18 -7 -18 -16 0 -21 -5 -19 -17 5 -23 62 -22 87 2 23 20 84 38 131 39 42
1 43 -28 -11 269 -22 122 -37 228 -33 242 4 14 7 39 8 56 1 16 6 30 11 32 12
3 25 -97 13 -101 -4 -2 -8 -8 -8 -13 0 -6 5 -7 10 -4 6 3 10 0 10 -9 0 -8 -5
-16 -11 -18 -7 -2 -1 -55 19 -158 17 -85 34 -176 37 -201 l7 -46 46 5 c26 3
91 20 144 38 54 19 101 33 105 32 5 -1 17 3 28 9 25 13 218 70 305 90 35 8 66
16 69 18 2 3 0 14 -5 26 -7 16 -5 38 10 80 25 69 15 116 -22 112 -12 -2 -22 2
-22 7 0 6 4 10 9 10 5 0 18 15 29 34 24 40 68 56 87 30 10 -14 17 -15 45 -6
18 7 36 9 41 7 14 -9 90 7 86 19 -2 6 -23 15 -48 21 -35 9 -47 17 -60 44 -25
54 -56 72 -111 64 l-48 -6 0 31 c0 18 9 46 19 63 14 24 17 38 10 55 -5 15 -5
24 1 24 19 0 24 -53 7 -83 -10 -16 -17 -37 -17 -48 0 -16 7 -19 45 -19 55 0
101 -30 110 -72 6 -23 13 -29 47 -34 32 -6 46 -15 71 -50 36 -49 51 -55 54
-21 6 78 9 87 29 67 7 -7 18 -5 35 8 13 11 30 17 37 14 11 -3 12 0 4 15 -6 11
-28 25 -49 31 -21 6 -54 27 -72 46 -30 31 -33 39 -27 75 5 36 3 42 -19 57 -13
9 -27 25 -30 36 -4 10 -16 23 -28 27 -17 6 -13 9 24 19 38 9 41 9 26 -3 -22
-16 -12 -43 29 -73 25 -17 26 -22 16 -51 -10 -29 -9 -37 14 -66 16 -21 43 -40
76 -52 28 -10 53 -24 55 -30 3 -7 16 -13 29 -13 27 0 28 -3 14 -31 -10 -17 -8
-19 17 -17 51 3 84 -2 78 -12 -3 -5 -33 -10 -65 -10 -50 0 -60 -3 -65 -20 -4
-13 -19 -22 -43 -26 -20 -3 -47 -12 -59 -20 -24 -15 -63 -19 -63 -6 0 5 -6 16
-13 26 -11 15 -18 16 -62 5 -77 -17 -138 -18 -151 -1 -15 20 -48 8 -62 -23
-10 -22 -9 -25 8 -25 10 0 22 -5 26 -11 3 -6 18 -8 33 -5 l26 6 -31 -27 c-21
-20 -36 -46 -47 -88 -16 -61 -16 -87 -2 -204 9 -73 -9 -80 -20 -8 -12 80 -11
79 -63 71 -26 -3 -51 -10 -57 -14 -5 -4 -32 -13 -60 -19 -115 -28 -455 -142
-455 -153 0 -15 -18 -8 -22 8 -3 13 -6 13 -21 2 -17 -13 -17 -20 -7 -81 l12
-66 35 14 c42 18 43 18 43 6 0 -10 -169 -78 -265 -107 -33 -10 -63 -20 -67
-23 -4 -3 0 -39 7 -80 13 -64 12 -78 0 -108 -18 -44 -19 -72 -1 -96 18 -24 25
-11 27 50 2 46 5 52 36 69 29 15 34 22 30 44 -5 23 -3 25 31 27 20 0 42 2 47
4 6 2 11 0 13 -6 1 -5 -12 -12 -30 -15 -24 -4 -32 -10 -30 -22 2 -11 -9 -23
-27 -33 -38 -19 -51 -43 -51 -94 0 -22 -4 -43 -10 -46 -5 -3 -10 -10 -10 -15
0 -10 90 -46 107 -42 17 4 52 -50 36 -55 -8 -3 -9 -12 -1 -34 5 -16 11 -29 12
-29 2 0 36 9 77 19 41 10 87 17 101 14 15 -3 42 0 61 6 35 12 67 6 67 -11 0
-5 -9 -6 -20 -3 -31 10 -90 -13 -90 -35 0 -23 33 -35 59 -21 27 15 28 15 29
-21 1 -39 -13 -58 -42 -59 -18 -1 -18 -2 5 -8 14 -5 35 -14 47 -20 12 -6 22
-8 22 -2 0 16 26 19 63 8 42 -13 47 -22 16 -30 -26 -7 -20 -28 12 -44 14 -7
31 -24 39 -38 7 -14 17 -25 22 -25 4 0 8 -9 8 -20 0 -11 -6 -20 -14 -20 -21 0
-31 -51 -12 -62 8 -4 17 -22 21 -39 l7 -30 136 2 c76 0 143 6 150 11 8 7 12 7
12 -1 0 -8 150 -11 550 -11 l550 0 -1 173 c0 133 -3 165 -11 142 -12 -33 -38
-68 -46 -60 -3 2 0 11 7 18 15 19 51 125 51 152 0 13 -10 30 -22 39 l-23 17
23 -5 c25 -5 30 9 5 18 -15 6 -15 8 1 19 15 11 17 23 13 68 -14 135 -24 153
-76 143 -40 -8 -48 -26 -27 -56 21 -29 20 -35 -5 -41 -25 -7 -16 -27 12 -27
12 0 19 -7 19 -19 0 -23 26 -48 32 -30 5 16 28 3 28 -16 0 -8 -9 -12 -26 -10
-27 3 -49 19 -49 37 0 6 -9 16 -20 22 -11 6 -23 15 -27 21 -13 18 -30 -12 -32
-54 -1 -35 -4 -40 -26 -43 -20 -2 -25 -9 -25 -32 -1 -32 -20 -48 -22 -19 -1
10 -4 28 -8 40 -6 18 -3 22 21 25 15 2 29 9 32 16 2 7 0 12 -5 11 -21 -4 -32
2 -27 15 3 8 13 12 25 9 13 -4 19 0 19 12 0 10 7 23 17 30 9 7 14 19 10 29 -8
20 -37 22 -37 2 0 -10 -12 -14 -40 -13 -45 2 -53 13 -15 23 16 4 25 13 25 25
0 10 5 19 10 19 6 0 10 -6 10 -14 0 -9 8 -12 25 -8 16 3 25 0 25 -8 0 -10 3
-10 14 0 8 6 12 18 9 26 -3 8 3 21 13 29 11 8 14 14 7 15 -32 0 -7 19 49 37
34 10 64 26 66 34 5 12 3 12 -11 0 -10 -7 -17 -9 -17 -3 0 5 7 15 15 22 13 11
15 74 15 456 l0 443 -42 -15 c-24 -8 -52 -14 -63 -13 -11 1 -33 -3 -48 -9 -16
-7 -34 -12 -41 -12 -7 0 -27 -15 -45 -34 -18 -19 -46 -36 -62 -40 -20 -4 -27
-10 -23 -21 7 -16 -11 -21 -21 -6 -3 6 -29 8 -58 5 -75 -8 -103 -14 -90 -22
16 -10 28 -82 14 -82 -7 0 -10 3 -8 8 3 4 1 17 -4 29 -7 20 -11 21 -39 12 -28
-10 -38 -37 -11 -31 6 1 11 -2 11 -6 0 -18 -13 -20 -36 -5 -22 14 -30 14 -91
-2 -38 -9 -101 -23 -141 -30 -83 -17 -128 -39 -136 -69 -8 -31 -7 -71 2 -81 5
-6 19 -46 32 -90 13 -44 33 -96 45 -115 12 -19 28 -56 35 -83 12 -44 15 -48
51 -53 21 -4 40 -12 43 -20 8 -20 -10 -26 -24 -9 -15 18 -54 20 -47 3 2 -7 23
-76 46 -153 23 -77 51 -152 62 -167 21 -29 23 -38 12 -38 -22 0 -57 86 -113
275 -34 116 -70 223 -81 238 -11 16 -31 65 -44 110 -13 45 -29 83 -35 85 -5 2
-10 32 -10 69 0 61 -1 64 -22 62 -13 -2 -29 0 -35 4 -7 5 -13 4 -13 -2 0 -7
-8 -7 -25 1 -14 6 -25 14 -25 18 0 6 67 7 80 0 15 -7 100 4 129 16 19 8 41 12
48 10 44 -17 106 51 84 93 -16 29 -14 50 3 29 7 -10 17 -14 22 -9 14 14 152
52 201 56 38 3 46 1 50 -16 8 -28 63 -27 63 1 0 11 5 20 10 20 6 0 10 -7 10
-15 0 -31 93 -5 140 40 33 31 55 40 125 51 17 3 49 10 73 16 l42 11 0 468 c0
258 -2 469 -3 469 -12 0 -74 -36 -84 -49 -11 -14 -12 -14 -13 -1 0 9 5 21 12
28 9 9 8 12 -3 16 -40 13 -42 14 -18 15 14 1 30 -4 36 -10 8 -8 19 -6 42 7 26
15 31 24 31 56 0 26 -4 38 -14 38 -7 0 -76 -18 -152 -41 -77 -22 -222 -62
-324 -89 -268 -71 -245 -62 -242 -96 1 -16 5 -35 7 -41 7 -20 40 -15 60 7 10
11 21 18 23 15 9 -9 -41 -55 -60 -55 -22 0 -25 -45 -3 -54 8 -3 15 -1 15 4 0
5 8 6 17 3 11 -4 12 -8 5 -11 -7 -2 -12 -11 -12 -20 0 -12 -3 -13 -12 -4 -7 7
-23 12 -36 12 -17 0 -22 4 -19 15 4 8 1 17 -5 21 -7 4 -7 9 1 14 8 5 10 23 5
59 l-7 52 -36 -6 c-20 -3 -52 -1 -71 5 -25 7 -50 7 -88 -2 -46 -10 -63 -21
-120 -78 -53 -53 -80 -72 -129 -90 -35 -12 -63 -26 -63 -30 0 -36 25 -120 36
-120 8 0 14 -4 14 -10 0 -5 -6 -10 -13 -10 -10 0 -11 -12 -7 -48 4 -37 9 -46
22 -44 10 2 31 -7 47 -19 25 -19 33 -20 46 -9 8 7 19 10 22 6 4 -4 1 -11 -7
-16 -12 -8 -17 -24 -22 -72 -1 -10 -5 -18 -9 -18 -12 0 -17 24 -8 42 7 12 1
23 -22 42 -39 33 -63 34 -56 3 15 -58 19 -107 9 -107 -10 0 -23 50 -37 135 -9
55 -11 56 -50 39 -24 -10 -41 -11 -60 -4 -14 5 -25 6 -25 2 0 -4 -7 1 -15 12
-9 12 -20 16 -32 12 -14 -6 -15 -9 -4 -15 11 -7 11 -10 0 -17 -7 -4 -14 -3
-17 4 -6 18 -20 14 -25 -5 -4 -17 -5 -17 -6 -1 -1 17 -3 17 -41 2 -51 -21 -61
-13 -16 11 l34 18 -29 25 c-41 34 -36 48 5 17 35 -26 35 -27 48 -6 16 25 30
28 21 4 -6 -16 -3 -15 17 2 20 17 22 17 17 3 -9 -24 70 -62 109 -52 25 7 26 8
9 15 -18 7 -18 8 -2 8 24 1 14 37 -19 68 -13 12 -24 28 -24 36 0 8 -7 20 -15
27 -20 17 -46 -4 -43 -34 2 -11 -1 -22 -7 -24 -5 -1 -11 8 -11 20 -1 12 -7 24
-13 26 -17 6 -13 22 7 22 18 1 52 22 52 34 0 3 -9 6 -21 6 -11 0 -17 5 -14 10
3 6 17 10 30 10 19 0 35 16 35 36 0 2 -25 1 -55 -2 -40 -5 -70 -2 -112 12 -32
10 -61 17 -66 16 -4 -1 -6 1 -5 5 4 12 -28 54 -35 47 -3 -3 -3 5 0 18 4 12 9
25 12 28 3 3 14 15 24 27 18 20 18 22 -3 63 -12 23 -19 47 -17 53 3 7 16 -13
30 -43 l26 -54 -24 -32 c-34 -44 -32 -57 15 -89 34 -23 53 -29 118 -32 52 -3
72 -1 63 5 -23 16 9 41 43 35 24 -5 27 -3 23 13 -3 11 -11 48 -17 84 -21 128
-19 123 -51 116 -17 -3 -70 6 -134 24 -122 35 -121 35 -105 15 8 -10 9 -15 2
-15 -10 0 -32 30 -32 44 0 10 84 -4 164 -27 93 -28 126 -25 126 9 0 12 -9 83
-19 156 -26 179 -28 201 -15 205 6 2 20 -67 38 -184 15 -103 28 -188 29 -190
3 -2 119 32 475 141 101 31 190 56 198 56 18 0 17 33 -4 135 -14 66 -21 82
-42 92 l-25 13 23 6 c25 7 27 21 8 47 -17 22 -21 22 -47 -5 l-22 -23 6 23 c4
16 -1 29 -14 40 -10 9 -19 20 -19 24 0 14 20 8 40 -12 12 -12 26 -17 36 -13
16 6 16 48 -2 119 -5 20 -3 25 7 22 9 -3 26 -69 50 -204 20 -109 40 -216 44
-236 7 -37 7 -37 -37 -48 -23 -6 -124 -36 -223 -67 -99 -30 -238 -72 -308 -93
-71 -21 -132 -41 -135 -44 -5 -6 44 -306 51 -313 6 -5 82 18 114 35 18 9 55
42 82 73 45 51 56 58 115 73 48 12 76 14 106 7 34 -8 58 -4 150 24 59 19 134
38 167 44 116 22 283 73 283 87 0 15 16 19 22 5 2 -5 54 5 115 23 l113 31 0
578 c0 378 -3 577 -10 577 -5 0 -10 -4 -10 -9 0 -11 -31 -24 -39 -16 -3 3 1
10 9 15 11 7 15 25 13 60 0 28 -3 54 -6 56 -3 3 -43 -6 -89 -20 -92 -29 -98
-30 -98 -18 0 4 39 18 86 32 47 13 88 29 91 36 2 7 -2 50 -11 96 -16 87 -106
615 -106 623 0 3 -9 5 -20 5 -23 0 -26 -10 -8 -28 17 -17 2 -15 -27 4 -14 9
-22 20 -19 25 3 5 -6 4 -21 -3 -22 -10 -27 -9 -40 8 -9 11 -13 29 -9 44 7 30
15 39 21 22 3 -8 11 -5 24 10 l18 23 1 -23 c0 -13 4 -21 10 -17 5 3 7 12 3 20
-3 8 0 15 6 15 6 0 12 -7 12 -15 2 -24 4 -29 16 -50 29 -51 26 10 -13 225
l-16 85 -77 0 c-64 0 -81 4 -105 23 -19 15 -42 22 -71 22 -64 0 -64 -4 3 -84
10 -12 2 -96 -9 -96 -5 0 -9 17 -9 38 0 27 -9 51 -30 80 -33 46 -36 47 -77 30
-15 -6 -32 -10 -37 -9 -5 1 -6 -5 -2 -14 4 -13 1 -15 -14 -10 -15 5 -20 2 -20
-12 0 -10 -7 -29 -16 -41 -11 -16 -14 -34 -10 -56 6 -29 3 -34 -16 -40 -13 -3
-33 -6 -45 -6 -24 0 -30 -19 -13 -36 8 -8 6 -15 -6 -25 -16 -12 -17 -12 -11 3
7 21 -27 58 -54 58 -10 0 -20 4 -24 10 -3 5 -11 7 -18 5 -18 -7 -53 83 -38 98
8 8 11 5 11 -11 0 -13 6 -22 15 -22 8 0 12 -6 9 -14 -7 -18 39 -46 76 -46 22
0 30 5 30 18 1 16 2 16 15 -1 21 -28 50 -18 50 18 1 17 8 44 17 60 22 41 32
67 29 83 -2 10 3 11 16 4 17 -9 18 -6 15 27 -3 30 0 39 15 43 10 3 26 9 36 13
11 5 17 3 17 -7 0 -24 43 -42 94 -39 48 3 76 18 76 41 0 6 5 8 13 3 15 -9 18
-10 59 -12 29 -1 30 -2 14 -14 -18 -13 -18 -14 0 -22 16 -7 14 -9 -14 -14 -18
-3 -33 -10 -33 -16 1 -12 74 -19 109 -10 23 6 24 8 17 62 -7 58 -23 112 -24
82 -1 -9 -9 -24 -20 -33 -18 -16 -19 -16 -26 11 -4 17 -2 29 4 31 6 2 11 10
11 19 0 10 6 12 20 8 11 -3 20 -3 20 2 0 4 -23 141 -51 303 -28 162 -83 490
-123 728 -40 238 -76 435 -78 438 -5 5 -90 -20 -522 -151 -169 -51 -216 -61
-216 -48 0 5 34 17 75 28 48 12 75 23 75 32 0 7 7 16 15 19 8 4 15 15 15 26 0
14 5 18 16 14 9 -3 18 -6 20 -6 2 0 4 -7 4 -16 0 -8 -14 -20 -31 -26 -16 -6
-29 -12 -27 -14 2 -1 62 15 133 37 72 21 186 55 255 75 69 21 129 40 133 44 4
4 -2 19 -14 34 -15 19 -24 24 -33 16 -7 -5 -16 -7 -20 -3 -4 4 3 15 16 25 21
17 22 19 6 29 -10 5 -18 16 -18 24 0 10 -7 12 -31 5 -23 -7 -39 -5 -60 5 -35
19 -67 18 -99 0 -24 -14 -24 -16 0 -19 6 0 10 -4 10 -8 0 -5 0 -14 0 -22 0 -9
-7 -12 -19 -9 -12 3 -17 11 -14 19 3 9 -2 14 -16 14 -25 0 -28 25 -4 38 20 12
26 42 10 60 -8 11 -7 16 6 24 16 9 16 10 0 33 -12 16 -28 24 -47 25 -17 0 -40
10 -53 22 -22 21 -24 21 -58 5 -45 -21 -85 -22 -85 -2 0 9 9 15 22 15 16 0 19
3 11 11 -6 6 -9 18 -6 25 3 8 0 20 -6 28 -13 15 -5 26 20 26 9 0 19 -10 23
-24 3 -14 16 -26 31 -30 14 -4 25 -11 25 -16 0 -6 5 -10 11 -10 7 0 17 -7 23
-16 14 -19 66 -9 66 12 0 12 4 12 20 2 14 -9 20 -22 18 -39 -1 -15 4 -34 12
-44 13 -15 12 -19 -3 -30 -12 -8 -14 -15 -8 -20 6 -3 8 -17 5 -32 -6 -20 -4
-24 7 -18 7 5 26 8 42 7 19 -2 36 5 47 18 18 21 18 21 25 -10 7 -31 12 -34 39
-24 20 8 1 51 -26 59 -10 4 -18 11 -18 17 0 6 3 8 7 5 3 -4 13 -2 20 5 11 9
16 9 22 -1 6 -10 10 -9 14 3 4 9 11 16 17 16 7 0 4 -12 -6 -29 -16 -28 -16
-30 5 -65 13 -20 27 -36 32 -36 5 0 9 -10 9 -22 0 -27 46 -88 67 -88 12 0 14
7 10 30 -8 36 10 41 19 5 4 -18 11 -24 23 -21 9 3 104 31 211 62 107 31 197
60 198 65 2 5 13 9 24 9 15 0 18 5 13 20 -5 14 -2 20 9 20 14 0 16 49 16 465
0 365 -3 465 -12 466 -7 0 -45 1 -85 0 -40 0 -75 4 -78 9 -4 6 -40 10 -81 10
-57 0 -76 -4 -80 -15 -4 -8 -10 -15 -15 -15 -4 0 -6 7 -3 15 5 13 -18 15 -175
15 -175 0 -181 -1 -181 -20 0 -13 -10 -24 -27 -31 -14 -5 -38 -22 -53 -37 -30
-30 -80 -114 -80 -134 0 -13 -86 -108 -97 -108 -4 0 -37 -32 -75 -71 -59 -61
-67 -74 -61 -97 8 -35 50 -90 74 -97 10 -4 19 -13 19 -22 0 -8 9 -17 20 -20
11 -3 20 -12 20 -20 0 -8 -4 -12 -9 -8 -5 3 -12 1 -16 -5 -4 -6 -22 -9 -41 -6
-24 2 -37 -1 -41 -10 -7 -19 -23 -18 -23 1 0 8 5 15 10 15 6 0 10 7 10 15 0 8
7 15 15 15 8 0 15 -4 15 -10 0 -5 9 -10 19 -10 17 0 18 3 8 25 -7 14 -18 25
-25 25 -7 0 -15 7 -18 15 -4 10 -15 12 -35 8 -18 -3 -29 -1 -29 6 0 6 9 11 20
11 24 0 26 13 5 30 -9 8 -15 29 -15 56 0 32 -4 44 -17 48 -28 8 -114 10 -153
2 -24 -4 -41 -2 -54 9 -27 20 -12 32 20 15 19 -11 32 -11 54 -3 19 7 43 8 67
3 20 -5 41 -6 46 -3 5 3 20 -1 34 -8 23 -12 27 -10 85 50 l60 62 -19 22 c-11
12 -27 34 -36 49 -17 27 -17 27 -58 13 -38 -14 -44 -14 -73 5 -18 10 -47 35
-65 55 -22 25 -36 33 -44 27 -20 -17 -218 -71 -214 -59 2 6 45 24 96 39 105
31 121 41 121 73 0 23 -19 85 -26 85 -2 0 -14 -6 -25 -12 -17 -10 -23 -10 -26
0 -4 9 -253 12 -1200 12 l-1195 0 6 -27 c3 -16 26 -145 51 -288 26 -143 60
-333 76 -422 33 -186 32 -173 20 -173 -5 0 -19 55 -31 123 -12 67 -24 129 -27
137 -4 8 -8 32 -9 53 -2 20 -21 133 -43 250 -21 116 -42 230 -45 252 -4 22 -9
52 -12 68 l-6 27 -349 0 c-237 0 -349 -3 -349 -10 0 -6 27 -173 60 -372 54
-325 61 -383 45 -367 -2 3 -32 169 -65 369 -34 200 -64 368 -66 372 -3 4 -795
8 -1760 8 l-1754 0 0 -3147z m7320 3042 c7 -25 17 -48 22 -51 4 -3 6 -9 3 -13
-2 -5 7 -18 20 -31 19 -18 32 -22 62 -17 58 8 113 35 113 55 0 20 85 120 94
111 4 -3 -12 -26 -33 -50 -22 -24 -43 -56 -46 -70 -5 -23 -16 -31 -68 -48 -73
-25 -90 -26 -122 -5 -14 9 -32 14 -40 10 -18 -6 -20 5 -4 21 13 13 4 33 -17
33 -16 0 -19 16 -5 25 6 3 6 18 0 38 -11 40 -11 50 0 43 4 -3 14 -26 21 -51z
m20 -184 c0 -4 -37 -19 -82 -33 -90 -26 -97 -34 -84 -104 l7 -33 41 15 c48 17
48 17 48 4 0 -5 -7 -10 -15 -10 -22 0 -18 -23 5 -38 25 -15 26 -28 1 -35 -15
-3 -20 2 -25 24 -5 28 -30 48 -42 36 -3 -3 3 -37 15 -77 13 -47 16 -70 8 -67
-14 4 -67 180 -67 222 0 45 10 54 91 80 81 26 99 29 99 16z m-2268 -37 c4 -3
-2 -24 -12 -47 -13 -29 -16 -45 -9 -54 6 -7 8 -21 5 -31 -4 -12 1 -25 14 -37
11 -10 20 -27 20 -37 0 -11 7 -26 15 -35 21 -21 12 -28 -14 -11 -13 8 -21 23
-21 39 0 14 -9 34 -20 44 -12 10 -19 24 -16 31 3 8 -1 11 -9 8 -8 -3 -15 -17
-17 -32 -2 -14 -9 -27 -16 -30 -9 -3 -11 4 -7 25 10 42 27 83 35 83 4 0 14 18
22 40 12 28 13 40 4 44 -6 2 -4 5 5 5 9 1 18 -2 21 -5z m98 -19 c0 -14 -4 -25
-10 -25 -5 0 -10 11 -10 25 0 14 5 25 10 25 6 0 10 -11 10 -25z m37 -37 c-1
-14 3 -22 11 -20 9 2 9 -5 -3 -28 -9 -16 -19 -30 -24 -30 -9 0 -13 78 -5 92
10 16 24 7 21 -14z m2151 -34 c-9 -9 -22 -14 -30 -11 -8 3 -4 8 12 15 35 15
37 14 18 -4z m-2102 -9 c-21 -16 -32 -13 -21 4 3 6 14 11 23 11 15 -1 15 -2
-2 -15z m2049 -5 c3 -5 1 -10 -4 -10 -6 0 -11 5 -11 10 0 6 2 10 4 10 3 0 8
-4 11 -10z m-2347 -93 c2 -12 -1 -15 -12 -11 -19 7 -22 38 -3 32 6 -3 13 -12
15 -21z m1880 -47 c27 -25 27 -25 2 -50 -27 -27 -33 -25 -27 5 3 18 -1 29 -15
36 -19 10 -16 29 6 29 7 0 22 -9 34 -20z m-2575 -50 c3 -13 0 -20 -9 -20 -8 0
-14 9 -14 20 0 11 4 20 9 20 5 0 11 -9 14 -20z m3412 -24 c11 -1 35 1 53 5 28
6 33 4 30 -9 -2 -12 -14 -17 -38 -17 -28 0 -35 -4 -40 -25 -7 -29 -38 -46
-111 -60 -54 -11 -89 -6 -89 11 0 6 8 8 18 5 27 -9 134 12 151 29 20 20 2 51
-28 48 -12 -2 -21 1 -21 5 0 16 15 23 35 17 11 -3 29 -7 40 -9z m-3389 -33
c-11 -11 -19 6 -11 24 8 17 8 17 12 0 3 -10 2 -21 -1 -24z m64 10 c0 -5 -6
-16 -14 -25 -10 -13 -15 -15 -24 -6 -17 17 -15 26 6 31 28 7 32 7 32 0z m870
-32 c0 -12 -29 -23 -41 -15 -18 10 -9 24 16 24 14 0 25 -4 25 -9z m219 -44 c0
-7 -4 -21 -8 -31 -10 -27 -25 -3 -15 26 6 21 6 21 -10 5 -17 -16 -36 -23 -36
-12 0 3 8 14 17 24 12 15 21 18 35 10 10 -5 18 -15 17 -22z m-3710 10 c6 -8 8
-17 4 -20 -7 -8 -33 11 -33 24 0 13 16 11 29 -4z m211 -34 c0 -7 -9 -13 -21
-13 -19 0 -21 -5 -17 -40 4 -40 -5 -53 -16 -24 -12 32 -6 63 15 74 11 7 18 14
15 17 -3 3 -16 -1 -29 -10 -18 -11 -27 -13 -35 -5 -14 14 -96 -38 -89 -56 3
-7 1 -19 -3 -26 -7 -11 -11 -11 -24 -1 -9 8 -16 10 -16 5 0 -5 -10 -10 -23
-10 -16 -1 -23 4 -24 17 -1 14 7 19 35 21 26 2 38 8 42 23 3 11 11 20 19 20 8
0 16 5 18 12 3 7 -4 9 -19 6 -19 -5 -21 -3 -10 8 10 10 17 11 31 2 14 -9 22
-8 34 4 13 13 19 14 31 3 13 -10 20 -10 38 3 21 14 24 14 36 -1 6 -9 12 -22
12 -29z m3310 16 c0 -10 -4 -19 -10 -19 -5 0 -10 4 -10 9 0 5 -6 8 -12 7 -7 0
-13 4 -13 9 0 6 5 9 12 7 7 -2 13 2 13 8 0 6 5 8 10 5 6 -3 10 -15 10 -26z
m-3574 6 c-21 -16 -32 -13 -21 4 3 6 14 11 23 11 15 -1 15 -2 -2 -15z m6242
-12 c2 -13 -1 -23 -6 -23 -6 0 -18 -3 -28 -7 -13 -5 -16 -3 -11 10 4 12 2 14
-10 10 -13 -5 -14 -3 -3 16 15 29 54 25 58 -6z m-6338 -3 c0 -5 -7 -10 -15
-10 -8 0 -15 -8 -15 -17 -1 -16 -2 -16 -11 1 -9 14 -8 20 2 27 19 12 39 11 39
-1z m55 -11 c-7 -10 -35 -1 -35 11 0 5 9 6 20 3 11 -3 17 -9 15 -14z m3729 -5
c9 -24 7 -28 -9 -14 -17 14 -20 30 -6 30 5 0 12 -7 15 -16z m-3844 -4 c0 -5
-4 -10 -10 -10 -5 0 -7 -6 -4 -13 4 -11 -32 -37 -51 -37 -15 0 -2 19 16 23 12
3 18 10 14 16 -8 14 3 31 21 31 8 0 14 -4 14 -10z m3940 1 c0 -5 -7 -14 -15
-21 -16 -14 -18 -10 -9 14 6 17 24 22 24 7z m2403 -23 c19 -22 22 -38 8 -38
-5 0 -12 9 -16 19 -8 26 -39 32 -88 15 -23 -7 -82 -27 -132 -43 -49 -17 -82
-30 -72 -30 27 -1 20 -21 -7 -21 -13 0 -26 -5 -28 -10 -3 -11 -68 9 -68 21 0
3 73 30 163 58 89 29 167 54 172 56 18 6 50 -7 68 -27z m-2449 -9 c-10 -16
-24 -9 -24 12 0 18 2 19 15 9 8 -7 12 -16 9 -21z m-150 5 c9 -22 -3 -32 -14
-14 -12 19 -12 30 -1 30 5 0 12 -7 15 -16z m-1026 -18 c-9 -17 -8 -19 3 -8 15
14 39 16 39 2 0 -16 -71 -24 -81 -9 -5 8 -9 10 -9 4 0 -10 -20 15 -20 25 0 3
18 5 39 6 37 0 39 -1 29 -20z m1114 -8 c-6 -6 -15 -8 -19 -4 -4 4 -1 11 7 16
19 12 27 3 12 -12z m-42 -7 c0 -5 -9 -11 -20 -14 -22 -6 -28 8 -7 16 19 8 27
8 27 -2z m-3870 -23 c0 -12 7 -30 17 -40 10 -11 12 -18 4 -18 -6 0 -14 7 -17
15 -4 10 -14 13 -30 9 -15 -4 -24 -2 -24 5 0 6 7 11 15 11 8 0 15 9 15 20 0
11 5 20 10 20 6 0 10 -10 10 -22z m5361 -9 c22 -25 17 -39 -11 -32 -11 3 -18
8 -16 12 3 4 1 13 -4 21 -9 15 -9 16 -25 -35 -2 -8 -9 -15 -15 -15 -9 0 -5 42
7 63 8 15 46 6 64 -14z m-4902 -43 c-2 -2 -21 -6 -41 -9 -45 -7 -51 8 -8 18
16 4 29 10 29 13 -3 22 4 24 13 4 6 -12 9 -24 7 -26z m5836 24 c16 0 25 -7 29
-25 4 -14 13 -25 21 -25 19 0 19 -14 2 -29 -8 -6 -33 -8 -64 -4 -36 4 -60 1
-82 -10 -26 -13 -31 -13 -31 -1 0 8 9 14 19 14 27 0 34 15 16 30 -8 7 -15 22
-15 34 0 17 5 15 31 -17 17 -20 35 -35 40 -31 5 3 7 24 4 47 -3 23 -2 36 1 30
3 -7 16 -13 29 -13z m-6219 -57 c-4 -4 -11 -1 -16 7 -16 25 -11 35 7 17 9 -9
13 -20 9 -24z m404 12 c-7 -9 -15 -13 -17 -11 -7 7 7 26 19 26 6 0 6 -6 -2
-15z m-324 -30 c-15 -11 -16 -15 -5 -15 8 0 24 7 35 15 10 8 24 15 30 15 19 0
24 -28 9 -44 -20 -19 -20 -47 0 -40 8 4 15 1 15 -5 0 -6 -11 -11 -25 -11 -14
0 -28 -7 -31 -15 -4 -8 -11 -15 -16 -15 -6 0 -8 7 -4 15 3 8 2 15 -1 15 -16 0
-73 -25 -73 -32 0 -4 7 -5 15 -2 9 4 15 0 15 -9 0 -9 -15 -21 -35 -27 -43 -14
-71 -7 -32 9 21 8 27 16 22 30 -4 14 0 20 19 25 45 11 75 56 38 56 -25 0 -59
26 -48 37 5 4 11 2 13 -4 6 -18 30 -16 37 2 3 8 13 15 23 15 17 -1 16 -2 -1
-15z m294 -11 c0 -8 -4 -14 -9 -14 -11 0 -22 26 -14 34 9 9 23 -3 23 -20z m35
-25 c10 -14 1 -21 -19 -13 -9 3 -13 10 -10 15 7 12 21 11 29 -2z m5731 -47
c-3 -2 -14 3 -26 11 -15 11 -18 16 -8 20 13 5 42 -22 34 -31z m-5746 11 c0 -5
-5 -15 -10 -23 -8 -12 -10 -11 -10 8 0 12 5 22 10 22 6 0 10 -3 10 -7z m5050
-37 c0 -8 -14 -19 -31 -25 -32 -11 -55 -5 -77 22 -10 11 -5 14 26 15 20 1 38
6 40 12 5 14 42 -7 42 -24z m-169 -36 c25 -48 36 -59 50 -55 11 4 19 2 19 -3
0 -13 -29 -24 -41 -16 -13 8 -69 106 -69 122 0 23 9 12 41 -48z m-5563 27 c25
-19 44 -75 35 -102 l-8 -26 -39 35 c-31 29 -37 40 -32 61 5 18 2 25 -9 25 -18
0 -20 17 -2 23 14 5 36 -2 55 -16z m682 -7 c0 -5 -5 -10 -11 -10 -5 0 -7 5 -4
10 3 6 8 10 11 10 2 0 4 -4 4 -10z m-340 -78 c0 -7 -4 -10 -10 -7 -5 3 -10 16
-10 28 0 18 2 19 10 7 5 -8 10 -21 10 -28z m2957 -338 c52 -283 203 -1178 203
-1199 0 -8 -4 -15 -8 -15 -4 0 -36 170 -71 378 -34 207 -78 465 -97 572 -84
466 -91 511 -81 507 6 -2 30 -111 54 -243z m2921 199 c-2 -13 -14 -19 -40 -21
-40 -3 -50 -16 -37 -49 10 -27 53 -31 85 -8 24 16 34 11 34 -17 0 -15 -7 -18
-37 -17 -79 2 -126 12 -144 30 -17 17 -21 17 -73 2 -33 -9 -56 -21 -56 -29 0
-16 -17 -19 -22 -4 -2 5 -36 -1 -79 -14 -48 -15 -82 -20 -90 -15 -22 14 -35
11 -67 -16 -30 -25 -72 -34 -72 -15 0 6 11 10 25 10 17 0 23 4 19 14 -4 11 6
16 40 21 25 4 52 5 60 2 20 -8 108 22 100 34 -3 5 3 9 12 9 15 0 15 2 -2 18
-31 28 -29 49 6 54 27 4 30 2 31 -21 1 -14 1 -29 0 -33 -3 -21 185 17 214 43
5 5 22 9 37 9 16 0 31 7 34 15 8 21 26 19 22 -2z m-3658 -160 c0 -5 13 -73 29
-153 16 -80 45 -248 66 -375 66 -409 145 -884 154 -925 9 -39 -2 -67 -13 -33
-10 31 -84 469 -126 738 -33 215 -103 613 -127 728 -3 17 -1 27 6 27 6 0 11
-3 11 -7z m3372 -195 c-7 -7 -12 -20 -12 -30 0 -21 -36 -43 -45 -28 -3 5 -16
10 -28 10 -20 1 -21 2 -4 14 9 7 17 19 17 25 0 7 4 10 9 7 5 -4 20 -2 33 3 33
14 44 13 30 -1z m286 -21 c6 -6 14 -26 18 -42 4 -17 11 -36 16 -42 6 -7 8 -19
5 -28 -4 -8 1 -21 9 -30 14 -13 12 -15 -18 -14 -49 1 -85 13 -70 23 6 4 12 16
12 27 0 13 4 18 12 13 7 -5 8 -3 3 6 -4 7 -2 15 4 20 8 4 10 17 5 34 -5 21
-11 26 -25 23 -21 -6 -26 8 -6 16 20 8 24 8 35 -6z m-450 -42 c11 -14 27 -25
37 -25 9 0 14 -4 11 -9 -3 -4 -24 -8 -46 -8 -29 0 -44 5 -50 18 -27 49 13 69
48 24z m-1378 -65 c0 -5 -4 -10 -10 -10 -5 0 -10 5 -10 10 0 6 5 10 10 10 6 0
10 -4 10 -10z m279 -7 c-3 -21 2 -33 16 -33 8 0 15 -4 15 -10 0 -17 -37 -11
-44 6 -6 16 -8 16 -24 0 -21 -18 -59 -21 -64 -5 -3 8 -16 8 -48 -1 -25 -6 -62
-16 -82 -21 -22 -6 -38 -16 -38 -24 0 -8 -7 -15 -16 -15 -16 0 -14 -23 8 -68
9 -17 9 -25 0 -34 -9 -9 -12 -7 -12 9 0 12 -4 25 -10 28 -5 3 -10 17 -10 29 0
30 -24 51 -47 41 -10 -5 -23 -9 -29 -10 -6 -2 -43 -13 -82 -26 -67 -21 -89
-41 -59 -52 6 -2 9 -7 6 -11 -13 -14 -40 7 -37 28 3 19 64 52 132 70 16 4 17
7 6 20 -7 9 -11 16 -9 16 2 0 19 4 37 9 24 7 35 6 46 -4 21 -21 66 -30 66 -13
0 9 30 22 93 37 50 13 98 25 106 28 10 4 12 1 8 -11 -4 -9 -2 -16 4 -16 6 0
13 9 16 20 3 13 14 20 29 20 13 0 23 -3 23 -7z m106 -64 c0 -8 6 -18 13 -22 6
-4 12 -18 12 -29 0 -22 0 -22 -18 -2 -24 25 -38 78 -20 72 7 -3 13 -11 13 -19z
m-595 1 c0 -5 -7 -10 -15 -10 -8 0 -15 5 -15 10 0 6 7 10 15 10 8 0 15 -4 15
-10z m1667 -26 c-25 -21 -35 -24 -75 -19 -30 4 -65 1 -97 -9 -49 -15 -62 -15
-51 2 9 14 115 34 149 28 22 -4 41 0 62 13 40 24 47 15 12 -15z m129 27 c5 -5
18 -11 29 -14 18 -4 18 -5 -2 -6 -18 -1 -23 -7 -23 -26 0 -19 -5 -25 -22 -25
-21 1 -21 2 -6 13 11 9 14 18 7 28 -18 29 -6 52 17 30z m-1386 -85 c0 -9 -7
-12 -20 -9 -11 3 -20 9 -20 14 0 5 9 9 20 9 11 0 20 -6 20 -14z m10 -40 c0 -8
-4 -18 -10 -21 -5 -3 -10 3 -10 14 0 12 5 21 10 21 6 0 10 -6 10 -14z m10 -68
c0 -5 -4 -8 -10 -8 -5 0 -10 10 -10 23 0 18 2 19 10 7 5 -8 10 -18 10 -22z
m106 -35 c-3 -3 -12 0 -21 7 -14 11 -13 14 2 26 16 11 18 10 21 -8 2 -11 1
-22 -2 -25z m44 37 c0 -5 -4 -10 -10 -10 -5 0 -10 5 -10 10 0 6 5 10 10 10 6
0 10 -4 10 -10z m-100 -19 c0 -15 -17 -22 -36 -14 -16 6 -16 7 2 14 27 11 34
10 34 0z m20 -31 c0 -5 -10 -10 -22 -10 -19 0 -20 2 -8 10 19 13 30 13 30 0z
m198 -20 c-8 -13 -15 -16 -19 -8 -10 15 -2 28 17 28 12 0 12 -4 2 -20z m1028
-86 c13 -19 21 -41 18 -49 -9 -23 22 -18 39 6 10 13 17 17 22 9 4 -6 2 -17 -4
-24 -12 -15 -5 -46 11 -46 5 0 12 9 15 20 3 11 12 20 19 20 17 0 18 -17 2 -24
-9 -3 -6 -11 9 -24 12 -11 24 -31 27 -46 2 -14 12 -36 20 -48 9 -12 16 -25 16
-29 0 -10 -39 -18 -45 -9 -3 5 2 10 10 12 13 2 10 12 -15 46 -18 23 -29 42
-25 42 4 0 2 7 -5 15 -15 19 -40 3 -40 -26 0 -15 -37 -39 -43 -27 -1 1 -11 21
-22 43 -19 38 -23 40 -63 38 -30 -1 -42 2 -39 10 2 7 17 12 33 13 59 2 61 2
56 34 -2 16 -15 41 -28 55 -28 31 -35 68 -8 40 9 -9 27 -32 40 -51z m254 27
c-26 -15 -80 -23 -80 -12 0 10 27 17 70 19 19 1 21 -1 10 -7z m86 -51 c8 0 14
-4 14 -10 0 -13 -37 -13 -45 0 -3 6 -17 7 -31 4 -13 -3 -24 -2 -24 4 0 5 -12
7 -26 4 -17 -3 -25 -1 -21 5 9 14 56 23 63 12 9 -15 24 -10 25 9 0 14 3 13 16
-5 8 -13 22 -23 29 -23z m-756 1 c0 -4 -21 -14 -47 -21 -27 -8 -52 -19 -56
-27 -4 -7 -16 -13 -25 -12 -10 0 -12 3 -4 6 6 2 12 10 12 18 0 7 24 19 53 28
64 19 67 19 67 8z m63 -21 c-3 -10 -16 -26 -29 -35 -22 -14 -24 -14 -24 0 0 9
7 18 15 21 8 4 15 12 15 20 0 8 6 14 14 14 9 0 12 -7 9 -20z m-591 -96 c-7
-12 -11 -13 -17 -4 -4 7 -2 16 6 21 18 11 23 4 11 -17z m58 0 c6 -14 10 -37 9
-52 0 -24 -1 -25 -8 -7 -5 11 -6 25 -4 31 2 6 -3 17 -12 24 -17 14 -20 30 -5
30 6 0 15 -12 20 -26z m410 -24 c15 0 22 -40 10 -55 -20 -24 -29 -17 -25 15 2
21 -1 30 -10 30 -17 0 -28 17 -20 30 4 6 12 4 21 -5 9 -8 19 -15 24 -15z
m-420 4 c0 -12 -31 -35 -40 -29 -15 10 -12 23 8 28 27 7 32 7 32 1z m270 -2
c0 -5 -19 -15 -42 -22 -24 -8 -47 -20 -51 -27 -11 -18 -30 -16 -24 2 5 12 2
12 -19 3 -33 -16 -27 -42 11 -46 20 -2 34 -11 40 -25 6 -12 20 -23 33 -25 12
-2 20 -7 17 -12 -3 -5 2 -27 11 -50 11 -27 13 -45 7 -51 -6 -6 -14 5 -22 32
-14 47 -65 103 -103 112 -15 4 -30 16 -33 27 -3 11 -10 20 -14 20 -10 0 -19
-71 -16 -123 1 -23 -2 -36 -9 -34 -6 2 -11 16 -11 32 0 15 -6 30 -14 33 -10 3
-12 -1 -8 -17 6 -24 -11 -29 -20 -6 -3 9 2 24 12 35 15 16 15 22 5 35 -15 18
1 20 18 3 9 -9 12 -8 12 4 0 9 -4 20 -10 23 -5 3 -10 11 -10 18 0 8 3 8 12 -1
9 -9 16 -6 30 16 10 15 18 22 18 15 0 -6 9 -9 20 -6 11 3 20 10 20 15 0 6 10
8 23 5 12 -3 38 0 57 8 43 16 60 18 60 7z m-260 -62 c12 -8 11 -10 -7 -10 -13
0 -23 5 -23 10 0 13 11 13 30 0z m371 -37 c-6 -21 -11 -53 -11 -71 0 -40 26
-83 46 -75 8 3 14 1 14 -5 0 -9 -23 -22 -40 -22 -4 0 -11 10 -15 23 -7 20 -8
19 -12 -10 -2 -18 -9 -33 -14 -33 -6 0 -8 -8 -5 -18 4 -12 -1 -26 -14 -37 -20
-18 -20 -18 10 -36 16 -10 30 -23 30 -27 0 -5 11 -7 25 -4 29 5 111 -30 83
-36 -10 -2 -28 4 -40 12 -28 20 -38 20 -38 1 0 -22 -8 -19 -50 19 -20 18 -43
36 -51 38 -11 4 -10 10 6 27 16 18 17 24 5 31 -11 7 -10 12 7 27 17 14 23 37
31 103 10 84 27 148 38 137 3 -3 1 -22 -5 -44z m364 15 c4 -13 9 -29 10 -37 2
-8 7 -26 10 -39 4 -15 0 -31 -9 -41 -14 -16 -13 -21 9 -52 14 -19 25 -43 23
-54 -1 -11 1 -26 5 -32 5 -8 3 -13 -7 -13 -11 0 -16 10 -16 33 0 17 -9 43 -20
57 -22 28 -26 55 -8 66 8 5 7 10 -4 18 -21 16 -31 51 -23 86 8 36 20 39 30 8z
m125 -63 c0 -9 6 -12 15 -9 8 4 15 2 15 -4 0 -5 -7 -13 -16 -16 -8 -3 -14 -14
-13 -23 2 -29 0 -43 -9 -43 -4 0 -9 27 -10 61 -2 39 1 58 8 54 5 -3 10 -13 10
-20z m-1670 -25 c0 -5 -20 -15 -45 -21 -25 -6 -45 -16 -45 -21 0 -5 -5 -6 -10
-3 -8 5 -96 -18 -241 -65 -53 -17 -109 -60 -128 -100 -10 -22 -15 -42 -10 -46
5 -3 9 -13 8 -22 0 -14 -3 -13 -16 6 -22 32 -30 28 -35 -20 -5 -46 4 -72 32
-100 10 -9 21 -23 24 -30 5 -10 7 -10 12 0 3 6 21 12 39 12 24 0 39 7 51 23
l16 22 -7 -29 c-3 -17 -2 -32 5 -36 19 -12 -9 -70 -33 -70 -45 0 -50 -16 -13
-38 29 -17 37 -18 46 -7 7 8 9 18 6 24 -3 5 1 11 9 15 16 6 25 -4 31 -38 3
-21 0 -24 -34 -28 -20 -3 -39 -2 -42 1 -10 13 -82 51 -96 51 -8 0 -12 5 -9 10
3 6 18 10 32 10 19 0 24 4 19 16 -3 9 -6 20 -6 25 0 5 -9 9 -20 9 -11 0 -20 5
-20 10 0 6 -8 18 -17 28 -10 10 -25 30 -33 45 -11 22 -19 27 -37 22 -17 -4
-21 -2 -17 10 4 10 0 15 -10 15 -18 0 -19 2 -10 24 8 22 21 20 29 -4 12 -37
35 -23 35 20 0 24 5 40 12 40 18 0 48 31 48 51 0 10 10 25 22 33 31 22 23 21
-124 -19 -112 -31 -155 -37 -137 -21 2 2 81 24 174 49 94 26 253 71 355 101
102 30 186 55 188 55 1 1 2 -3 2 -9z m1352 -132 c-17 -17 -15 -48 4 -48 8 0
12 -5 9 -10 -3 -6 -17 -7 -31 -4 -20 5 -24 2 -24 -15 0 -15 6 -21 21 -21 11 0
17 -4 14 -10 -10 -16 -42 -12 -49 6 -11 27 -7 54 9 60 26 10 16 24 -17 24 -38
0 -31 9 14 20 52 13 64 12 50 -2z m-518 -24 c11 -28 6 -39 -9 -20 -8 11 -15
23 -15 28 0 14 18 9 24 -8z m-1038 -10 c-5 -12 -2 -15 10 -10 10 4 14 2 11 -6
-2 -7 -12 -12 -22 -11 -13 1 -16 -5 -12 -23 2 -13 0 -24 -4 -24 -5 0 -9 5 -9
10 0 6 -11 10 -25 10 -14 0 -25 5 -25 10 0 6 9 10 20 10 13 0 20 7 20 19 0 11
8 22 18 24 9 3 19 5 21 6 2 0 0 -6 -3 -15z m1094 -13 c-5 -11 -7 -27 -4 -35 4
-11 1 -16 -10 -16 -11 0 -16 9 -16 31 0 17 4 28 10 24 6 -3 10 -1 10 4 0 6 5
11 10 11 7 0 7 -6 0 -19z m620 -42 c0 -23 34 -72 44 -62 3 3 6 -3 6 -14 0 -17
-12 -23 -67 -37 -38 -9 -76 -19 -85 -22 -10 -3 -18 -1 -18 5 0 6 19 16 43 23
23 7 48 18 54 24 7 7 17 14 23 16 6 2 3 17 -7 38 -14 27 -24 34 -41 32 -12 -2
-22 1 -22 7 0 6 16 11 35 11 29 0 35 -4 35 -21z m-2693 -28 c7 -10 9 -22 6
-25 -6 -6 -32 23 -33 37 0 14 15 7 27 -12z m2789 -48 c-6 -6 -36 21 -36 32 0
4 7 5 15 1 8 -3 16 0 16 7 1 7 4 1 6 -11 3 -13 2 -26 -1 -29z m-660 3 c19 -20
18 -23 -10 -30 -13 -3 -31 -9 -40 -12 -9 -3 -16 -2 -16 3 0 5 12 14 28 20 l27
11 -27 1 c-15 1 -30 6 -33 11 -10 16 55 12 71 -4z m-1036 -11 c0 -8 -9 -15
-19 -15 -24 0 -36 16 -19 23 24 10 38 7 38 -8z m-741 -28 c14 -18 5 -26 -25
-21 -13 2 -24 0 -24 -6 0 -5 -12 -10 -27 -9 l-28 1 28 11 c15 6 27 17 27 24 0
17 34 17 49 0z m636 -27 c-5 -14 -2 -20 9 -20 9 0 16 -4 16 -10 0 -5 -9 -10
-20 -10 -11 0 -20 -7 -20 -15 0 -8 -4 -15 -10 -15 -5 0 -10 9 -10 19 0 11 -3
26 -6 35 -4 11 -1 16 10 16 9 0 16 5 16 10 0 6 5 10 11 10 6 0 8 -9 4 -20z
m-581 -55 c-8 -20 -40 -28 -64 -15 -30 16 -21 40 20 54 31 10 36 9 42 -6 4
-10 5 -25 2 -33z m865 -77 c16 -81 17 -97 7 -100 -11 -3 -21 30 -31 101 -9 69
10 67 24 -1z m1461 -29 c0 -8 -57 -39 -73 -39 -5 0 -7 9 -4 20 3 11 1 20 -4
20 -21 0 -6 17 24 26 25 8 35 7 45 -5 6 -8 12 -18 12 -22z m-2714 6 c12 -19
14 -29 5 -38 -13 -17 -121 -70 -128 -64 -2 3 -4 23 -5 46 0 31 5 46 23 61 35
28 85 26 105 -5z m1198 -17 c-10 -12 -13 -18 -5 -13 11 6 13 4 8 -8 -3 -9 -1
-18 6 -21 9 -5 9 -7 0 -12 -7 -3 -13 -12 -13 -19 0 -13 -21 -25 -46 -25 -8 0
-14 8 -14 18 0 10 -3 21 -6 24 -11 11 -46 -5 -54 -26 -8 -19 -9 -19 -9 7 -1
23 4 29 28 33 20 4 28 11 24 20 -3 9 -13 12 -29 8 -15 -4 -24 -2 -24 5 0 11 5
12 73 16 20 1 40 5 44 8 3 4 13 7 21 7 12 0 11 -4 -4 -22z m2031 2 c10 -11 15
-20 11 -20 -14 0 -46 21 -46 30 0 16 16 11 35 -10z m-1879 -22 c17 -19 17 -21
2 -15 -10 4 -18 3 -18 -1 0 -4 -11 -8 -25 -8 -14 -1 -25 2 -25 7 0 5 7 9 15 9
8 0 15 7 15 15 0 21 14 19 36 -7z m-950 -7 c-4 -5 0 -11 6 -14 9 -3 7 -7 -5
-12 -10 -4 -20 -5 -24 -2 -8 9 5 37 17 37 6 0 9 -4 6 -9z m-302 -168 c31 -183
32 -198 6 -248 -22 -44 -38 -135 -23 -135 5 0 37 11 71 25 69 28 72 29 72 16
0 -18 -170 -72 -252 -81 -46 -4 -85 -6 -87 -4 -9 9 9 15 60 20 118 11 114 9
115 59 1 25 13 71 27 103 l25 57 -28 165 c-33 186 -34 198 -21 185 5 -6 21
-79 35 -162z m266 148 c20 -39 4 -43 -23 -6 -15 21 -16 25 -3 25 8 0 20 -9 26
-19z m1784 -23 c8 -38 1 -47 -14 -19 -19 36 -33 25 -26 -19 11 -67 -10 -42
-28 34 -5 22 -4 27 7 23 8 -3 20 -1 28 4 22 14 26 11 33 -23z m-1309 -22 c4
-25 15 -52 25 -61 17 -15 19 -15 28 1 6 10 12 13 16 6 3 -6 -5 -23 -19 -37
-13 -15 -27 -36 -30 -46 -9 -27 -27 -24 -20 4 4 15 -1 32 -14 49 -12 14 -21
37 -21 50 0 12 -4 18 -8 13 -8 -12 -113 -48 -119 -41 -3 2 5 14 17 26 14 14
28 19 40 15 26 -8 80 24 80 47 0 36 19 17 25 -26z m1041 -22 c-3 -8 -10 -14
-16 -14 -6 0 -9 4 -5 9 3 5 1 12 -5 16 -16 10 -12 23 8 27 18 4 27 -14 18 -38z
m1384 5 c0 -11 -4 -18 -10 -14 -5 3 -7 12 -3 20 7 21 13 19 13 -6z m-1215 -21
c3 -18 16 -96 30 -173 30 -172 65 -390 65 -407 0 -7 -3 -8 -9 -2 -4 5 -16 59
-25 119 -10 61 -31 184 -47 275 -16 91 -31 177 -34 193 -2 15 0 27 5 27 5 0
12 -15 15 -32z m1155 2 c7 -18 10 -44 5 -66 l-6 -36 50 42 c51 43 81 50 41 10
-18 -18 -21 -29 -15 -57 6 -31 4 -34 -14 -28 -16 5 -18 2 -14 -15 3 -11 0 -20
-6 -20 -6 0 -11 7 -11 15 0 8 -5 15 -11 15 -5 0 -8 -4 -4 -9 3 -5 1 -12 -4
-15 -5 -3 -12 2 -16 11 -3 10 -1 19 5 21 8 3 8 8 0 18 -10 11 -19 6 -51 -24
-26 -24 -39 -42 -36 -54 3 -10 1 -18 -4 -18 -15 0 -10 -30 6 -36 8 -4 15 -10
15 -15 0 -4 -7 -6 -16 -2 -10 4 -17 -1 -21 -15 -2 -11 -12 -23 -21 -26 -10 -3
-23 -9 -30 -12 -8 -4 -10 0 -6 9 3 8 14 17 25 20 16 4 19 14 19 55 0 35 -5 56
-17 68 -13 13 -14 19 -5 22 18 6 15 69 -4 76 -9 3 -21 3 -26 0 -7 -5 -9 3 -4
22 4 16 9 31 11 33 11 10 37 -12 46 -38 11 -30 41 -50 47 -32 6 17 22 13 22
-4 0 -13 4 -14 21 -4 18 9 20 17 16 47 -3 21 -8 45 -12 55 -4 9 -3 17 3 17 5
0 15 -13 22 -30z m-3197 -57 c3 -16 9 -36 12 -45 6 -14 2 -18 -15 -18 -17 0
-21 4 -17 20 3 10 1 18 -3 17 -10 -2 -12 12 -4 36 8 25 21 21 27 -10z m2361
12 c-4 -8 -7 -15 -8 -15 0 0 -32 -9 -70 -20 -59 -17 -71 -17 -88 -6 -13 9 -16
16 -8 21 6 4 16 2 23 -3 14 -12 127 15 127 30 0 4 7 8 15 8 9 0 12 -6 9 -15z
m1023 -11 c1 -18 -2 -23 -9 -16 -6 6 -26 8 -46 5 -25 -4 -33 -3 -28 5 4 7 18
12 31 12 13 0 27 5 30 10 11 18 20 11 22 -16z m-1717 -35 c0 -36 -2 -39 -27
-38 l-28 0 25 11 25 11 -30 7 c-16 4 -26 8 -21 9 5 0 3 8 -4 16 -10 13 -9 15
8 15 12 0 24 5 27 10 12 20 25 -1 25 -41z m-1360 16 c0 -18 -5 -25 -19 -25
-29 0 -35 29 -8 40 12 5 23 9 25 9 1 1 2 -10 2 -24z m40 15 c0 -5 -2 -10 -4
-10 -3 0 -8 5 -11 10 -3 6 -1 10 4 10 6 0 11 -4 11 -10z m0 -35 c0 -8 -7 -15
-16 -15 -14 0 -14 3 -4 15 7 8 14 15 16 15 2 0 4 -7 4 -15z m1064 -10 c-5 -13
-2 -14 21 -5 31 12 40 8 32 -14 -8 -20 -59 -24 -74 -6 -11 13 -12 12 -13 -5 0
-17 -2 -17 -10 -5 -15 22 -12 30 13 40 32 13 37 12 31 -5z m102 -33 c-9 -8
-26 10 -26 26 1 15 2 15 15 -2 8 -11 13 -21 11 -24z m1000 -29 c-7 -7 -86 19
-86 29 0 4 14 8 30 8 22 0 30 5 31 18 0 10 7 3 15 -17 8 -18 13 -35 10 -38z
m404 50 c0 -5 -11 -16 -24 -25 -20 -14 -28 -15 -50 -5 -30 14 -33 24 -8 30 29
8 82 7 82 0z m-300 -38 c0 -14 -4 -25 -10 -25 -5 0 -10 11 -10 25 0 14 5 25
10 25 6 0 10 -11 10 -25z m-4790 5 c0 -5 7 -7 15 -4 11 5 15 -1 14 -22 -1 -19
-3 -22 -6 -11 -3 12 -10 16 -20 13 -9 -4 -35 -11 -60 -17 -38 -10 -43 -14 -37
-33 6 -17 4 -19 -8 -9 -8 7 -25 10 -39 7 l-24 -6 23 20 c12 11 22 25 22 31 0
6 5 11 10 11 6 0 10 -4 10 -9 0 -13 71 11 77 26 6 15 23 18 23 3z m3093 -29
c-4 -16 -8 -19 -14 -10 -4 7 -3 19 3 26 14 18 19 12 11 -16z m647 -62 c23 -44
39 -83 36 -86 -8 -8 -9 -8 -52 77 -50 96 -47 90 -36 90 5 0 29 -36 52 -81z
m-549 -39 c20 0 7 -20 -16 -26 -14 -3 -25 -10 -25 -16 0 -5 -4 -7 -9 -4 -5 4
-11 2 -13 -3 -1 -4 -13 -12 -25 -15 -19 -6 -23 -3 -23 12 0 14 5 19 18 16 9
-2 28 4 41 15 24 18 24 20 8 44 -9 13 -13 28 -10 31 4 4 15 -7 26 -24 10 -16
23 -30 28 -30z m-3323 4 c-10 -10 -28 6 -28 24 0 15 1 15 17 -1 9 -9 14 -19
11 -23z m1932 21 c20 -24 -2 -39 -44 -31 -41 8 -44 13 -18 32 23 18 47 17 62
-1z m3314 -15 c-12 -12 -82 -26 -71 -14 10 10 70 32 76 27 3 -2 0 -8 -5 -13z
m-2864 4 c0 -16 -22 -44 -35 -44 -13 0 -35 28 -35 44 0 3 16 6 35 6 19 0 35
-3 35 -6z m-2360 -50 c0 -8 -4 -14 -10 -14 -5 0 -10 9 -10 21 0 11 5 17 10 14
6 -3 10 -13 10 -21z m2874 -44 c4 -34 10 -68 13 -76 3 -8 -1 -14 -10 -14 -10
0 -17 20 -24 73 -6 39 -8 75 -6 80 10 18 21 -7 27 -63z m1778 18 c17 17 31 15
24 -3 -4 -10 1 -15 14 -15 11 0 20 -4 20 -10 0 -5 -9 -10 -19 -10 -11 0 -23
-9 -26 -20 -3 -11 -13 -20 -21 -20 -8 0 -13 4 -10 9 3 5 -1 14 -9 21 -8 7 -15
24 -15 37 0 22 2 24 15 13 12 -10 19 -10 27 -2z m-4618 -14 c4 -10 1 -14 -6
-12 -15 5 -23 28 -10 28 5 0 13 -7 16 -16z m1903 -34 c2 -43 -8 -52 -23 -20
-12 26 -31 12 -34 -25 -3 -47 -1 -55 15 -55 8 0 15 -4 15 -10 0 -5 -4 -10 -10
-10 -5 0 -7 -7 -4 -15 4 -8 2 -15 -3 -15 -11 0 -33 65 -31 90 1 8 -2 33 -6 54
-7 35 -6 38 8 27 16 -13 56 -6 56 10 0 5 4 9 8 9 4 0 8 -18 9 -40z m1973 19
c0 -11 -4 -17 -10 -14 -5 3 -10 13 -10 21 0 8 5 14 10 14 6 0 10 -9 10 -21z
m-3870 -45 c-18 -21 -24 -10 -8 15 7 12 14 17 16 11 2 -6 -2 -17 -8 -26z
m3990 26 c0 -5 -9 -10 -21 -10 -11 0 -17 5 -14 10 3 6 13 10 21 10 8 0 14 -4
14 -10z m63 -1 c-8 -8 -16 -8 -30 0 -16 9 -14 10 12 11 21 0 26 -3 18 -11z
m-3953 -14 c0 -8 -4 -15 -9 -15 -13 0 -22 16 -14 24 11 11 23 6 23 -9z m3825
-1 c-11 -8 -19 -22 -17 -30 4 -22 -16 -17 -23 6 -9 28 2 40 33 40 26 -1 26 -1
7 -16z m725 6 c0 -5 -5 -10 -11 -10 -5 0 -7 5 -4 10 3 6 8 10 11 10 2 0 4 -4
4 -10z m100 -9 c0 -6 -4 -13 -10 -16 -5 -3 -10 1 -10 9 0 9 5 16 10 16 6 0 10
-4 10 -9z m-1080 -78 c0 -7 -4 -13 -10 -13 -5 0 -10 12 -10 28 0 21 2 24 10
12 5 -8 10 -21 10 -27z m-3148 -1 c16 -16 2 -28 -16 -13 -12 10 -15 7 -19 -16
-4 -27 -5 -27 -12 -6 -4 13 -11 20 -16 17 -16 -10 -9 9 8 21 20 15 38 14 55
-3z m2332 -13 c9 -46 8 -85 -3 -73 -13 13 -24 104 -13 104 5 0 12 -14 16 -31z
m92 16 c18 -15 18 -15 -10 -13 -16 2 -31 9 -34 16 -5 17 20 15 44 -3z m974 -6
c0 -11 -4 -17 -10 -14 -5 3 -10 13 -10 21 0 8 5 14 10 14 6 0 10 -9 10 -21z
m-3495 -8 c-8 -13 -35 -15 -35 -2 0 5 8 11 18 13 21 5 26 2 17 -11z m-55 -1
c0 -5 -9 -10 -19 -10 -11 0 -23 5 -26 10 -4 6 5 10 19 10 14 0 26 -4 26 -10z
m2680 -21 c0 -6 9 -9 20 -6 24 6 27 -8 4 -17 -10 -4 -14 -14 -11 -26 6 -24 -8
-27 -17 -4 -3 9 -12 14 -19 11 -8 -3 -20 -1 -28 4 -11 7 -9 10 9 15 12 4 22
13 22 20 0 8 5 14 10 14 6 0 10 -5 10 -11z m637 -14 c-15 -32 -27 -32 -27 0 0
18 5 25 19 25 17 0 18 -3 8 -25z m-3147 -11 c0 -8 -4 -14 -10 -14 -5 0 -10 9
-10 21 0 11 5 17 10 14 6 -3 10 -13 10 -21z m3390 -6 c0 -19 -2 -20 -10 -8
-13 19 -13 30 0 30 6 0 10 -10 10 -22z m900 12 c0 -5 -4 -10 -10 -10 -5 0 -10
-6 -10 -14 0 -16 -27 -29 -41 -20 -18 10 -9 30 19 41 36 14 42 15 42 3z
m-2553 -92 c10 -11 12 -18 5 -18 -8 0 -8 -10 2 -32 8 -18 19 -46 25 -61 9 -22
16 -27 29 -21 9 4 35 9 58 10 40 3 40 2 36 -29 -5 -29 -3 -31 12 -18 14 12 16
11 16 -2 0 -9 -10 -21 -21 -28 -17 -9 -25 -8 -37 5 -12 12 -13 16 -3 16 7 0 3
8 -10 19 -15 12 -28 16 -35 11 -15 -14 -53 0 -59 21 -4 12 -12 16 -22 12 -12
-5 -15 -2 -10 10 4 11 1 17 -9 17 -8 0 -14 -7 -12 -16 2 -10 -3 -19 -11 -22
-10 -3 -12 0 -8 11 3 9 1 19 -4 23 -6 4 -2 14 11 26 18 17 24 18 31 7 14 -22
10 3 -5 30 -8 15 -16 20 -20 12 -14 -22 -22 -11 -21 29 0 33 3 39 18 34 10 -3
18 0 18 8 1 7 4 2 6 -12 3 -14 12 -33 20 -42z m1469 36 c-3 -7 -1 -16 5 -19 6
-4 6 -13 0 -23 -7 -12 -5 -22 5 -33 8 -9 12 -24 8 -33 -9 -24 -24 -19 -24 9 0
16 -13 34 -40 56 -22 18 -40 39 -40 48 1 14 2 14 14 -1 18 -24 42 -23 49 3 3
12 10 18 17 14 6 -4 9 -13 6 -21z m-3223 -1 c10 -3 17 0 17 7 0 7 11 1 26 -15
30 -33 27 -39 -14 -24 -18 6 -49 12 -69 13 -20 0 -38 7 -41 14 -2 7 2 10 12 6
9 -4 16 -1 16 6 0 8 6 9 18 5 9 -4 25 -10 35 -12z m3417 -13 c0 -11 -4 -20
-10 -20 -5 0 -10 9 -10 20 0 11 5 20 10 20 6 0 10 -9 10 -20z m-3300 -10 c-19
-13 -30 -13 -30 0 0 6 10 10 23 10 18 0 19 -2 7 -10z m50 -6 c0 -14 -3 -14
-15 -4 -8 7 -15 14 -15 16 0 2 7 4 15 4 8 0 15 -7 15 -16z m2183 -5 c3 -13 1
-19 -6 -16 -15 5 -22 37 -9 37 5 0 12 -9 15 -21z m1118 -21 c11 -11 19 -25 19
-30 0 -4 16 -1 36 7 43 18 44 18 44 6 0 -5 -12 -14 -27 -19 -16 -5 -35 -13
-44 -16 -12 -5 -20 1 -29 23 -8 20 -20 31 -32 31 -10 0 -16 5 -13 10 10 16 26
12 46 -12z m307 -6 c2 -7 -3 -12 -12 -12 -9 0 -16 7 -16 16 0 17 22 14 28 -4z
m-3632 -7 c-21 -16 -32 -13 -21 4 3 6 14 11 23 11 15 -1 15 -2 -2 -15z m2218
-26 c9 -46 8 -75 -3 -63 -13 14 -25 94 -13 94 5 0 12 -14 16 -31z m-2234 -19
c0 -11 -4 -20 -9 -20 -5 0 -7 9 -4 20 3 11 7 20 9 20 2 0 4 -9 4 -20z m2422 3
c23 -21 23 -33 -1 -33 -11 0 -21 -6 -24 -12 -3 -8 -9 -3 -14 12 -7 16 -6 28 1
37 14 16 16 16 38 -4z m1358 -12 c0 -17 -6 -31 -15 -35 -12 -4 -14 0 -9 22 12
51 24 57 24 13z m-630 9 c0 -5 -4 -10 -9 -10 -6 0 -13 5 -16 10 -3 6 1 10 9
10 9 0 16 -4 16 -10z m416 -4 c8 -8 14 -20 14 -26 0 -7 12 -9 34 -5 25 5 35 3
39 -10 5 -10 -1 -19 -16 -25 l-22 -9 23 0 c28 -1 29 -21 1 -21 -19 0 -69 41
-69 56 0 3 -7 12 -15 20 -15 15 -20 34 -9 34 3 0 12 -6 20 -14z m-396 -36 c0
-5 -13 -17 -30 -27 -19 -11 -30 -25 -30 -39 0 -26 80 -107 123 -125 24 -10 27
-17 27 -59 0 -26 -6 -60 -14 -75 -8 -15 -12 -33 -9 -40 2 -7 -2 -26 -11 -42
-9 -19 -11 -34 -5 -44 13 -21 11 -63 -6 -85 -16 -21 -21 -79 -6 -69 5 3 12 1
16 -5 4 -6 -5 -10 -19 -10 -23 0 -26 4 -26 34 0 18 9 45 20 59 23 29 24 40 8
66 -9 15 -9 29 -1 58 26 88 33 122 33 155 0 29 -5 38 -27 47 -34 14 -113 87
-113 104 -1 32 -16 38 -54 22 -62 -26 -65 -10 -4 20 34 17 59 37 62 49 5 16 8
18 15 8 7 -12 11 -11 22 1 14 15 29 13 29 -3z m-3961 1 c9 -6 10 -11 2 -15
-16 -10 -14 -26 3 -26 19 0 28 -14 20 -34 -10 -27 -42 -19 -46 12 -2 15 -9 27
-18 28 -8 0 -23 4 -32 8 -9 4 -26 2 -38 -4 -13 -7 -50 -10 -89 -8 l-66 3 -3
-34 c-2 -18 1 -38 7 -44 13 -13 74 -16 83 -3 12 18 23 -4 11 -23 -11 -17 -7
-19 30 -25 23 -4 51 -16 63 -27 19 -17 22 -18 27 -5 4 9 16 16 27 16 24 0 25
4 4 35 -9 14 -12 25 -6 25 16 0 56 -61 46 -69 -9 -6 -14 -26 -17 -64 -2 -22
-16 -17 -35 11 -13 21 -13 22 9 22 16 0 20 3 12 11 -7 7 -21 3 -48 -15 -41
-28 -51 -31 -59 -17 -3 5 4 12 17 15 l22 6 -22 19 c-12 10 -40 21 -63 25 -23
3 -66 20 -97 36 -56 30 -77 31 -66 5 3 -8 0 -15 -6 -15 -6 0 -11 6 -12 13 0 6
-1 29 -3 50 -3 33 1 40 26 53 28 15 128 21 146 10 5 -3 38 3 73 13 77 23 80
23 98 12z m811 -16 c7 -8 8 -15 2 -15 -5 0 -15 7 -22 15 -7 8 -8 15 -2 15 5 0
15 -7 22 -15z m722 -10 c3 -14 1 -28 -3 -31 -5 -3 -9 -2 -9 3 0 4 -3 18 -6 31
-4 12 -2 22 4 22 5 0 12 -11 14 -25z m598 17 c21 -10 23 -32 3 -33 -66 -4 -77
-3 -80 6 -2 6 7 15 19 21 27 14 38 15 58 6z m1290 -12 c0 -5 11 -10 25 -10 14
0 25 -2 25 -4 0 -2 3 -12 7 -22 5 -13 3 -16 -10 -11 -11 4 -17 1 -17 -8 0 -8
-4 -15 -10 -15 -5 0 -10 8 -10 19 0 10 -7 24 -15 31 -17 14 -20 30 -5 30 6 0
10 -4 10 -10z m-1614 -45 l0 -35 -49 0 c-41 0 -48 3 -43 16 3 9 6 19 6 24 0 9
46 28 71 29 11 1 15 -9 15 -34z m477 15 c3 -11 13 -20 22 -20 9 0 13 -4 10
-10 -3 -5 -17 -10 -31 -10 -17 0 -24 -5 -24 -20 0 -16 7 -20 34 -20 29 0 33
-3 29 -19 -6 -25 -32 -35 -39 -16 -5 11 -11 12 -30 3 -13 -6 -24 -16 -24 -22
0 -7 -13 -13 -30 -14 -17 -1 -30 3 -30 9 0 8 -5 8 -15 -1 -20 -16 -32 -5 -16
14 9 10 9 16 1 21 -7 5 -5 11 7 20 17 13 17 15 0 44 -20 34 -14 40 14 15 20
-18 41 -11 32 11 -3 8 0 15 6 15 6 0 11 -7 11 -16 0 -11 8 -14 28 -12 22 2 26
7 24 26 -4 27 14 29 21 2z m760 -17 c7 -43 -4 -69 -14 -33 -10 36 -10 70 0 70
4 0 11 -16 14 -37z m1219 22 c13 -17 9 -25 -12 -25 -11 0 -20 5 -20 10 0 6 -9
10 -20 10 -11 0 -20 -7 -20 -15 0 -18 -37 -57 -44 -46 -3 4 3 17 14 28 10 12
16 24 12 27 -11 12 21 26 53 24 17 -1 33 -7 37 -13z m-3427 -16 c11 -17 0 -20
-21 -4 -17 13 -17 14 -2 15 9 0 20 -5 23 -11z m4409 -19 c4 0 4 5 0 11 -4 7
-1 10 7 7 8 -2 15 -18 17 -34 2 -18 0 -24 -6 -17 -4 7 -22 11 -41 8 -22 -2
-31 0 -27 8 3 7 9 21 13 31 6 17 7 18 18 2 7 -9 15 -16 19 -16z m-4609 -10 c3
-11 13 -20 21 -20 8 0 14 -3 14 -7 0 -12 51 -33 77 -33 13 0 23 -4 23 -9 0
-11 -26 -21 -42 -17 -7 1 -10 1 -5 -1 13 -8 7 -23 -9 -23 -12 0 -15 6 -10 25
6 23 4 25 -19 19 -19 -5 -30 -1 -40 12 -13 18 -14 18 -15 2 0 -11 -8 -18 -20
-18 -25 0 -27 20 -2 21 11 1 9 4 -8 9 -17 5 -19 8 -7 9 18 1 25 31 6 31 -5 0
-7 5 -4 10 10 17 33 11 40 -10z m4895 0 c0 -5 -4 -10 -10 -10 -5 0 -10 5 -10
10 0 6 5 10 10 10 6 0 10 -4 10 -10z m-4958 -35 l-4 -35 -29 17 c-31 18 -31
20 3 39 33 18 34 17 30 -21z m294 4 c3 -13 7 -44 9 -69 5 -39 3 -43 -10 -30
-8 8 -16 26 -17 40 -2 14 -7 29 -13 33 -6 6 -6 10 3 14 6 2 12 14 12 26 0 25
9 18 16 -14z m1759 12 c0 -8 -4 -16 -10 -18 -16 -5 -38 14 -30 26 9 16 40 9
40 -8z m2023 -18 c2 -15 -2 -23 -11 -23 -8 0 -29 -3 -46 -6 -27 -6 -30 -4 -25
11 6 15 4 16 -14 6 -15 -8 -22 -8 -22 -1 0 6 7 13 15 16 8 4 13 10 10 14 -3 4
17 7 43 6 41 -1 47 -4 50 -23z m-3089 -50 c0 -47 -3 -62 -9 -48 -12 28 -12
115 0 115 6 0 10 -29 9 -67z m-757 35 c-6 -6 -15 -8 -19 -4 -4 4 -1 11 7 16
19 12 27 3 12 -12z m2173 -34 c12 4 26 -1 42 -15 l23 -22 0 37 c0 22 4 35 10
31 15 -9 12 -61 -4 -74 -11 -9 -19 -9 -35 0 -17 11 -23 10 -39 -4 -20 -18 -62
-23 -62 -7 0 6 -7 10 -16 10 -14 0 -13 2 1 17 14 13 21 14 36 5 30 -19 32 -14
5 15 -14 15 -22 31 -19 36 3 5 14 -1 23 -13 12 -16 23 -21 35 -16z m2148 10
c-10 -7 -28 -14 -40 -14 -14 0 -23 -6 -23 -15 0 -8 9 -15 19 -15 11 0 23 -5
27 -11 4 -7 -1 -9 -12 -7 -11 2 -24 -3 -31 -12 -11 -13 -12 -12 -13 8 0 30
-40 47 -57 24 -15 -18 -15 -18 -30 26 -11 31 -6 41 13 23 5 -5 18 -10 29 -12
29 -3 105 12 111 22 3 5 10 7 15 3 6 -3 3 -12 -8 -20z m-5693 -1 c0 -10 7 -31
15 -47 18 -34 18 -36 4 -36 -11 0 -39 60 -39 85 0 8 5 15 10 15 6 0 10 -8 10
-17z m2570 -7 c0 -19 -5 -24 -20 -23 -14 1 -20 8 -20 24 0 16 6 23 20 23 15 0
20 -7 20 -24z m3764 -12 c8 -38 -10 -76 -24 -53 -6 8 -13 8 -29 0 -12 -7 -21
-8 -21 -2 0 5 6 12 13 14 7 3 5 6 -5 6 -22 1 -24 17 -3 25 8 3 15 12 15 20 0
12 12 19 41 25 4 0 10 -15 13 -35z m-1004 16 c0 -6 -13 -13 -30 -16 -33 -7
-39 -24 -15 -44 9 -7 13 -20 10 -28 -3 -10 0 -12 10 -8 8 3 15 1 15 -3 0 -5
-18 -11 -40 -13 -22 -2 -40 0 -40 4 0 5 5 8 12 8 9 0 9 3 0 12 -13 13 -16 57
-4 75 4 6 21 13 37 16 17 2 33 5 38 6 4 0 7 -4 7 -9z m-475 -40 c-10 -11 -20
-18 -23 -15 -3 3 3 14 13 25 10 11 20 18 23 15 3 -3 -3 -14 -13 -25z m-1865
10 c0 -5 -11 -12 -24 -16 -14 -3 -26 -12 -28 -19 -2 -11 -6 -11 -22 1 -23 17
-18 24 26 34 46 11 48 11 48 0z m328 -30 c28 -26 28 -42 0 -38 -14 2 -24 13
-29 31 -9 32 -1 34 29 7z m-2033 -102 c82 -63 101 -90 146 -200 64 -162 90
-192 369 -434 109 -95 139 -124 124 -124 -5 1 -61 46 -124 101 -63 55 -156
136 -207 180 -102 89 -114 105 -167 238 -39 98 -78 164 -124 206 -31 29 -49
32 -54 9 -2 -9 -19 -22 -38 -28 -34 -11 -35 -11 -38 -77 -3 -60 -1 -67 17 -72
26 -6 30 -62 6 -71 -13 -5 -15 -29 -11 -163 2 -87 2 -168 -1 -180 -12 -55 -18
-12 -20 150 -4 330 -5 362 -15 380 -6 12 -6 23 3 33 10 12 9 13 -4 8 -9 -3
-19 -14 -22 -25 -4 -10 -11 -19 -16 -19 -6 0 -7 9 -4 20 5 14 0 26 -15 38 -19
16 -20 19 -5 40 9 12 22 22 30 22 7 0 17 9 20 20 3 11 11 20 16 20 5 0 9 7 9
15 0 11 7 9 28 -9 15 -13 58 -48 97 -78z m213 83 c3 -8 -1 -12 -9 -9 -7 2 -15
10 -17 17 -3 8 1 12 9 9 7 -2 15 -10 17 -17z m4507 -23 c15 -17 19 -30 14 -48
l-6 -25 -8 30 c-11 44 -24 55 -61 55 -32 0 -42 9 -28 22 10 11 68 -12 89 -34z
m-4575 11 c-7 -11 -14 -18 -17 -15 -8 8 5 36 17 36 7 0 7 -6 0 -21z m4405 11
c-3 -5 -13 -10 -21 -10 -8 0 -14 5 -14 10 0 6 9 10 21 10 11 0 17 -4 14 -10z
m56 -15 c5 4 9 1 9 -4 0 -6 -6 -11 -14 -11 -7 0 -19 -7 -26 -15 -7 -8 -16 -15
-21 -15 -15 0 -10 29 9 48 13 15 19 15 25 5 5 -7 12 -11 18 -8z m-911 -1 c0
-8 -4 -12 -10 -9 -5 3 -10 10 -10 16 0 5 5 9 10 9 6 0 10 -7 10 -16z m800 6
c0 -5 -9 -10 -21 -10 -11 0 -17 5 -14 10 3 6 13 10 21 10 8 0 14 -4 14 -10z
m-5673 -95 c34 -50 62 -93 63 -97 1 -23 -22 0 -65 65 -78 115 -69 110 -123 77
-51 -31 -88 -41 -91 -25 -1 6 9 11 21 13 13 2 41 16 63 32 22 16 47 28 54 27
8 -1 43 -43 78 -92z m4918 85 c3 -5 1 -10 -6 -10 -8 0 -8 -4 1 -15 17 -21 3
-33 -16 -14 -8 9 -12 23 -8 32 7 19 20 22 29 7z m695 -10 c-20 -13 -43 -13
-35 0 3 6 16 10 28 10 18 0 19 -2 7 -10z m-4200 -11 c0 -6 8 -8 20 -4 13 4 28
-3 50 -23 16 -16 30 -32 30 -36 0 -12 -23 -6 -34 10 -9 12 -17 13 -40 4 -23
-8 -27 -8 -23 4 4 9 -3 16 -19 20 -20 5 -22 9 -12 21 15 17 28 19 28 4z m1236
-1 c10 -16 13 -68 3 -68 -4 0 -14 -3 -23 -6 -11 -4 -14 1 -13 18 0 12 6 26 12
30 6 5 3 8 -8 8 -15 0 -16 2 -5 15 16 18 25 19 34 3z m2296 -20 c-9 -9 -12 -7
-12 12 0 19 3 21 12 12 9 -9 9 -15 0 -24z m748 12 c-8 -5 -17 -7 -19 -4 -3 3
1 9 9 14 8 5 17 7 19 4 3 -3 -1 -9 -9 -14z m-4350 -5 c5 3 10 1 10 -5 0 -17
-31 -24 -41 -9 -14 22 -11 33 6 19 8 -6 19 -9 25 -5z m4215 5 c-3 -5 -13 -10
-21 -10 -8 0 -14 5 -14 10 0 6 9 10 21 10 11 0 17 -4 14 -10z m235 -22 c0 -5
-4 -8 -10 -8 -5 0 -10 10 -10 23 0 18 2 19 10 7 5 -8 10 -18 10 -22z m-80 3
c0 -5 -7 -12 -16 -15 -24 -9 -28 -7 -14 9 14 17 30 20 30 6z m-5033 -33 c-3
-7 -5 -2 -5 12 0 14 2 19 5 13 2 -7 2 -19 0 -25z m4979 12 c0 -11 -6 -20 -13
-20 -14 0 -18 22 -6 33 12 12 19 7 19 -13z m-4746 -20 c0 -25 -21 -31 -43 -12
-16 14 -16 16 5 27 28 14 38 10 38 -15z m705 11 c-3 -6 -14 -11 -23 -11 -15 1
-15 2 2 15 21 16 32 13 21 -4z m3945 9 c8 -5 13 -10 10 -10 -36 -6 -70 -6 -70
-1 0 22 34 28 60 11z m-4250 -15 c0 -9 -9 -15 -22 -15 -21 0 -21 0 -2 15 24
18 24 18 24 0z m4453 -10 c-8 -22 -22 -18 -16 5 3 11 9 17 14 15 4 -3 6 -12 2
-20z m-4209 0 c-4 -8 -10 -15 -15 -15 -4 0 -6 -6 -3 -14 3 -8 1 -17 -5 -21
-13 -7 -14 -35 -3 -53 7 -10 16 -10 48 1 53 17 94 11 94 -14 0 -23 -9 -24 -24
-3 -11 14 -18 14 -57 3 -24 -7 -47 -15 -52 -19 -4 -3 -11 -40 -15 -81 l-8 -74
-19 40 c-10 22 -21 44 -23 48 -2 5 5 4 16 -2 18 -10 21 -8 24 17 2 15 0 51 -5
81 -5 34 -4 58 3 66 6 7 10 17 9 21 -4 23 3 34 21 34 13 0 18 -5 14 -15z m96
-11 c0 -8 -4 -12 -10 -9 -5 3 -10 13 -10 21 0 8 5 12 10 9 6 -3 10 -13 10 -21z
m-1725 -9 c31 -32 31 -32 0 -32 -15 0 -25 5 -25 13 0 8 -7 14 -15 14 -8 0 -15
4 -15 9 0 8 5 12 27 20 1 1 14 -10 28 -24z m3940 15 c3 -5 -1 -10 -9 -10 -8 0
-18 5 -21 10 -3 6 1 10 9 10 8 0 18 -4 21 -10z m1701 -17 c-3 -3 -1 -14 4 -24
10 -18 11 -18 -53 -36 -16 -4 -18 -1 -12 16 4 13 2 21 -5 21 -6 0 -8 5 -5 10
3 6 15 10 25 10 14 0 18 5 13 16 -5 14 -3 15 16 4 13 -6 20 -14 17 -17z m54
10 c0 -7 -9 -13 -20 -13 -11 0 -20 6 -20 14 0 9 9 14 20 13 11 -1 20 -7 20
-14z m100 -2 c0 -12 -20 -25 -27 -18 -7 7 6 27 18 27 5 0 9 -4 9 -9z m-3260
-12 c0 -6 9 -9 20 -6 11 3 20 4 20 2 0 -2 3 -10 6 -18 6 -18 -27 -40 -49 -32
-14 6 -20 65 -5 65 4 0 8 -5 8 -11z m3205 -9 c-3 -5 -13 -10 -21 -10 -8 0 -14
5 -14 10 0 6 9 10 21 10 11 0 17 -4 14 -10z m-3985 -26 c0 -8 -4 -14 -10 -14
-5 0 -10 9 -10 21 0 11 5 17 10 14 6 -3 10 -13 10 -21z m500 16 c-19 -13 -30
-13 -30 0 0 6 10 10 23 10 18 0 19 -2 7 -10z m125 -8 c-3 -8 -5 -18 -5 -24 0
-6 -6 -5 -16 2 -12 11 -15 11 -12 -1 2 -8 -7 -15 -19 -17 -16 -2 -23 2 -23 12
0 9 -7 16 -15 16 -21 0 -19 18 3 22 9 2 34 3 55 3 27 0 36 -3 32 -13z m1590 8
c3 -5 2 -10 -4 -10 -5 0 -13 5 -16 10 -3 6 -2 10 4 10 5 0 13 -4 16 -10z
m1521 -5 c4 -8 12 -15 20 -15 11 0 13 -7 8 -27 -9 -38 -12 -40 -23 -10 -5 14
-15 27 -22 29 -18 6 -20 38 -3 38 8 0 17 -7 20 -15z m-3286 -5 c0 -5 -9 -10
-20 -10 -11 0 -20 5 -20 10 0 6 9 10 20 10 11 0 20 -4 20 -10z m-40 -30 c0 -5
-12 -10 -27 -10 -22 0 -25 2 -13 10 20 13 40 13 40 0z m-2010 -80 c13 -24 2
-50 -11 -29 -9 15 -12 49 -4 49 2 0 9 -9 15 -20z m1570 -7 c-1 -24 -2 -26 -11
-10 -5 9 -7 22 -4 27 10 17 15 11 15 -17z m3640 12 c0 -8 -4 -15 -10 -15 -5 0
-10 7 -10 15 0 8 5 15 10 15 6 0 10 -7 10 -15z m33 -15 c3 -11 2 -20 -3 -20
-8 0 -20 24 -20 41 0 17 17 1 23 -21z m-3639 -31 c21 18 54 4 71 -30 9 -16 21
-30 28 -30 80 -8 113 -50 102 -134 -6 -54 8 -85 39 -85 7 0 21 -9 31 -20 15
-17 27 -19 74 -15 l55 5 -22 -20 c-24 -23 -25 -24 -16 -58 4 -15 12 -21 21
-18 10 4 13 0 11 -11 -2 -9 -9 -18 -16 -21 -17 -5 -43 59 -35 88 6 21 4 22
-21 16 -21 -5 -38 1 -77 25 -27 18 -56 43 -64 56 -9 12 -22 23 -30 23 -8 0
-15 6 -15 14 0 10 7 12 22 8 15 -4 19 -2 13 7 -4 7 -2 24 5 37 11 19 10 27 -4
48 -9 14 -29 28 -44 31 -40 9 -56 19 -67 43 -12 27 -31 35 -56 22 -23 -13 -69
-2 -69 16 0 11 5 11 25 2 18 -8 28 -8 39 1z m3566 1 c0 -5 -7 -10 -16 -10 -8
0 -12 5 -9 10 3 6 10 10 16 10 5 0 9 -4 9 -10z m-1660 -26 c0 -8 -4 -12 -10
-9 -5 3 -10 10 -10 16 0 5 5 9 10 9 6 0 10 -7 10 -16z m1950 7 c0 -5 -11 -12
-25 -15 -14 -4 -23 -11 -20 -17 4 -5 15 -7 26 -4 25 8 24 -7 -1 -30 -13 -12
-18 -25 -14 -38 5 -16 3 -19 -10 -14 -9 4 -25 -1 -36 -11 -37 -34 -48 -41 -54
-35 -15 15 -4 33 19 33 15 0 25 6 25 14 0 22 -16 28 -30 11 -8 -9 -21 -13 -31
-10 -23 8 -37 -21 -20 -38 16 -16 14 -27 -4 -21 -8 4 -15 12 -15 19 0 7 -6 15
-12 18 -10 3 -8 9 5 24 9 11 17 23 17 28 0 11 32 34 50 35 8 0 33 14 55 30 39
29 75 39 75 21z m-3070 -16 c0 -8 11 -17 25 -21 23 -6 36 -24 16 -24 -5 0 -12
-10 -16 -22 -8 -22 -8 -22 -12 5 -4 22 -8 27 -24 22 -11 -4 -19 -2 -19 4 0 6
5 11 11 11 6 0 8 9 4 20 -4 11 -2 20 4 20 6 0 11 -7 11 -15z m3865 -55 c-4
-11 -12 -20 -19 -20 -15 0 -36 20 -36 34 0 6 5 5 12 -2 19 -19 28 -14 28 16 1
23 2 25 11 9 6 -9 7 -26 4 -37z m-2728 -27 c7 -38 8 -72 4 -76 -5 -5 -14 20
-20 55 -13 77 -14 88 -3 88 4 0 13 -30 19 -67z m2433 56 c0 -5 -3 -8 -7 -6
-13 8 -59 -13 -46 -21 21 -13 19 -35 -5 -37 -17 -1 -21 2 -16 17 3 10 0 18 -6
18 -21 0 -4 24 21 31 37 11 59 10 59 -2z m-5103 -33 c-1 -11 -6 -31 -12 -42
-11 -21 -11 -21 -44 8 -18 16 -31 31 -29 32 15 13 45 24 64 24 17 0 22 -6 21
-22z m607 -38 c-4 -6 -10 -5 -15 3 -14 22 -10 33 6 19 8 -7 12 -17 9 -22z m32
-55 c-4 -4 -11 -1 -16 7 -16 25 -11 35 7 17 9 -9 13 -20 9 -24z m3059 10 c-9
-36 -13 -39 -28 -24 -9 10 -9 15 0 18 7 2 9 11 6 19 -3 9 1 14 12 14 14 0 16
-6 10 -27z m920 16 c12 -19 -5 -23 -22 -6 -16 16 -16 17 -1 17 9 0 20 -5 23
-11z m52 -26 c-13 -13 -20 -14 -29 -5 -9 9 -8 15 8 26 26 20 44 2 21 -21z
m-3656 -38 c23 8 26 -10 3 -19 -9 -3 -19 -6 -24 -6 -14 0 -20 30 -13 58 8 27
8 27 11 -6 3 -27 7 -32 23 -27z m-671 37 c0 -5 -16 -17 -35 -28 -31 -17 -37
-17 -45 -4 -16 25 -11 33 14 26 14 -3 28 -2 31 4 7 12 35 13 35 2z m1370 -21
c0 -10 3 -21 7 -25 10 -9 14 -76 5 -76 -4 0 -12 10 -17 23 -6 12 -20 23 -33
25 -12 2 -20 7 -17 12 3 4 14 6 26 3 19 -5 20 -3 13 32 -5 27 -4 36 5 31 6 -4
11 -15 11 -25z m1898 -1 c-12 -18 -48 -29 -48 -14 0 10 33 33 48 34 10 0 10
-4 0 -20z m117 -18 c-8 -9 -25 20 -18 31 3 5 10 2 15 -7 6 -10 7 -20 3 -24z
m-3055 13 c14 -16 10 -18 -14 -9 -9 3 -16 10 -16 15 0 14 16 11 30 -6z m2860
5 c8 -5 11 -12 8 -16 -10 -9 -38 3 -38 16 0 12 10 13 30 0z m130 -10 c0 -5 -9
-10 -20 -10 -11 0 -20 5 -20 10 0 6 9 10 20 10 11 0 20 -4 20 -10z m-2950 -20
c0 -5 -4 -10 -10 -10 -5 0 -10 5 -10 10 0 6 5 10 10 10 6 0 10 -4 10 -10z
m1987 -61 c5 -38 6 -72 2 -75 -10 -6 -16 18 -25 89 -9 84 11 72 23 -14z m1043
31 c0 -11 -4 -20 -10 -20 -5 0 -10 9 -10 20 0 11 5 20 10 20 6 0 10 -9 10 -20z
m-2560 -46 c0 -8 -4 -14 -9 -14 -11 0 -22 26 -14 34 9 9 23 -3 23 -20z m3905
16 c3 -5 12 -7 20 -3 9 3 15 -1 15 -10 0 -9 13 -17 33 -21 78 -16 87 -19 87
-27 0 -12 -57 -11 -65 1 -9 15 -45 12 -51 -5 -9 -23 -26 -18 -19 5 5 16 3 19
-10 14 -12 -5 -16 -2 -13 12 2 13 -4 20 -20 22 -12 2 -20 8 -17 13 8 12 32 12
40 -1z m-5198 -32 c18 -18 33 -27 33 -20 0 7 5 12 10 12 6 0 10 -10 10 -21 0
-16 -5 -20 -20 -16 -11 3 -20 1 -20 -4 0 -5 -4 -9 -10 -9 -5 0 -7 6 -4 13 2 7
-6 23 -20 36 -20 18 -28 21 -44 12 -26 -14 -32 -14 -32 0 0 5 4 8 9 5 5 -3 14
1 21 9 18 22 30 19 67 -17z m4948 17 c-35 -16 -85 -19 -85 -6 0 5 14 9 30 9
17 -1 33 2 37 5 3 4 16 7 27 6 17 0 16 -3 -9 -14z m-5060 -23 c-2 -2 -13 -1
-26 3 -16 5 -18 9 -9 15 11 7 43 -10 35 -18z m3984 19 c9 -6 10 -11 2 -15 -13
-8 -31 1 -31 15 0 11 11 11 29 0z m851 -1 c0 -5 6 -7 14 -4 12 5 23 -12 30
-46 1 -3 -21 -6 -47 -7 -28 -1 -45 2 -42 7 4 6 12 10 19 10 9 0 12 9 8 25 -2
15 0 25 7 25 6 0 11 -4 11 -10z m-3430 -37 c0 -14 -19 -38 -25 -32 -8 8 5 39
16 39 5 0 9 -3 9 -7z m2620 -8 c14 -16 10 -18 -14 -9 -9 3 -16 10 -16 15 0 14
16 11 30 -6z m-3709 -53 c-6 -2 -12 -16 -12 -30 l-2 -27 -4 25 c-3 14 -10 31
-15 38 -8 9 -6 12 6 12 9 0 20 8 24 18 6 14 7 13 10 -8 2 -13 -1 -26 -7 -28z
m5413 34 c-4 -12 -53 -36 -70 -36 -15 0 2 19 29 33 41 20 48 21 41 3z m-5574
-16 c0 -5 -7 -10 -16 -10 -8 0 -12 5 -9 10 3 6 10 10 16 10 5 0 9 -4 9 -10z
m3900 -11 c0 -11 -4 -17 -10 -14 -5 3 -10 13 -10 21 0 8 5 14 10 14 6 0 10 -9
10 -21z m1120 12 c0 -5 -6 -11 -12 -14 -9 -3 -7 -9 6 -19 21 -17 7 -34 -19
-24 -8 3 -15 1 -15 -4 0 -6 -7 -10 -15 -10 -8 0 -15 6 -15 14 0 8 -2 21 -5 29
-4 9 5 17 27 24 44 14 48 15 48 4z m-4701 -47 c12 -15 21 -39 21 -55 0 -26
-22 -59 -40 -59 -5 0 -15 -3 -24 -6 -9 -3 -16 -1 -16 5 0 6 7 11 15 11 8 0 15
7 15 15 0 18 16 20 24 3 3 -7 4 7 2 31 -3 32 -10 49 -27 62 -19 15 -20 19 -7
19 9 0 26 -12 37 -26z m3718 -61 c-5 -12 -14 -23 -19 -23 -11 0 -10 14 2 26
17 17 1 42 -28 47 -24 4 -23 4 6 6 17 0 31 4 31 9 -4 26 4 21 11 -7 5 -21 4
-43 -3 -58z m530 47 c14 -37 13 -60 -2 -60 -9 0 -13 5 -9 11 3 6 1 21 -6 34
-7 13 -9 32 -5 42 6 15 8 15 12 3 3 -8 7 -22 10 -30z m-612 20 c4 -6 -5 -10
-20 -10 -15 0 -24 4 -20 10 3 6 12 10 20 10 8 0 17 -4 20 -10z m-1997 -40 c17
-21 32 -49 31 -62 l0 -23 -12 25 c-6 14 -17 29 -24 33 -16 10 -46 67 -36 67 5
0 23 -18 41 -40z m-1268 21 c0 -5 -33 -30 -40 -31 -3 0 -6 9 -7 19 -1 14 5 18
23 17 13 0 24 -3 24 -5z m4050 -52 c0 -10 -40 -23 -47 -16 -3 3 -3 10 0 14 7
11 47 12 47 2z m-3734 -61 c44 -49 138 -237 131 -265 -4 -17 -4 -17 -11 2 -28
77 -108 227 -140 262 -21 24 -34 43 -29 43 6 0 28 -19 49 -42z m4405 2 c13 0
19 -7 18 -22 0 -13 -3 -17 -6 -10 -2 6 -23 15 -46 19 l-40 6 24 20 c21 17 24
17 27 3 2 -9 12 -16 23 -16z m-4881 -6 c0 -8 -4 -14 -10 -14 -5 0 -10 -5 -10
-11 0 -7 10 -5 25 5 27 18 35 20 35 8 0 -5 -19 -19 -42 -32 -24 -12 -51 -30
-60 -38 -16 -14 -18 -13 -18 1 0 9 5 19 10 22 20 12 9 34 -17 37 -18 2 -29 10
-32 23 -3 15 0 17 10 8 29 -23 56 -25 62 -4 3 14 11 18 26 14 12 -3 21 -12 21
-19z m3510 6 c0 -11 -4 -20 -10 -20 -5 0 -10 9 -10 20 0 11 5 20 10 20 6 0 10
-9 10 -20z m-2654 -72 c-6 -77 -12 -91 -26 -68 -6 9 -5 19 0 24 14 14 13 59
-1 73 -8 8 -8 15 2 27 26 29 31 16 25 -56z m3813 10 c-12 -22 -24 -24 -15 -3
8 23 -26 36 -65 25 -41 -12 -39 -12 -39 -1 0 5 17 13 38 18 49 13 96 -10 81
-39z m-1152 0 c-3 -7 -5 -2 -5 12 0 14 2 19 5 13 2 -7 2 -19 0 -25z m-3477 7
c0 -8 0 -18 1 -22 0 -4 -4 -9 -10 -11 -6 -2 -11 8 -11 22 0 14 5 26 10 26 6 0
10 -7 10 -15z m3870 -15 c0 -10 6 -20 13 -23 27 -10 -3 -17 -34 -8 -19 5 -26
10 -16 10 11 1 17 9 17 27 0 14 4 23 10 19 6 -3 10 -15 10 -25z m-3580 -29 c0
-5 7 -17 16 -25 8 -9 12 -20 9 -26 -11 -18 -20 -11 -31 25 -6 19 -7 35 -3 35
5 0 9 -4 9 -9z m3200 5 c0 -2 -7 -9 -15 -16 -12 -10 -15 -10 -15 4 0 9 7 16
15 16 8 0 15 -2 15 -4z m1402 -26 c15 0 1 -13 -17 -16 -18 -3 -29 27 -13 37 8
5 14 3 16 -6 2 -8 8 -15 14 -15z m-702 -66 c0 -8 5 -14 10 -14 18 0 10 -18
-11 -23 -17 -5 -19 -9 -10 -26 6 -11 11 -30 10 -43 l-1 -23 -11 25 c-9 19 -18
24 -39 22 -16 -2 -28 1 -28 7 0 6 9 11 20 11 23 0 40 28 40 65 0 15 4 24 10
20 6 -3 10 -13 10 -21z m179 17 c12 -8 13 -12 1 -26 -10 -13 -15 -13 -21 -3
-20 30 -8 46 20 29z m-2649 -80 c0 -5 -42 -19 -92 -31 -51 -12 -101 -24 -110
-27 -10 -2 -18 0 -18 5 0 6 46 21 103 35 124 30 117 29 117 18z m-346 -31 c4
-21 11 -30 25 -30 14 0 18 -5 14 -20 -5 -17 -7 -17 -20 -5 -18 18 -25 19 -41
3 -6 -6 -15 -8 -19 -4 -4 4 -1 11 7 16 11 7 11 11 1 24 -9 11 -10 16 -2 16 6
0 11 7 11 15 0 27 17 16 24 -15z m3411 10 c9 0 16 -17 21 -45 5 -39 9 -45 25
-40 11 4 19 2 19 -3 0 -6 -12 -13 -26 -16 -19 -5 -24 -11 -19 -26 12 -37 -11
-20 -34 25 -22 45 -34 54 -46 35 -3 -5 -14 -10 -23 -10 -16 1 -16 2 1 14 9 7
17 19 17 25 0 8 8 10 20 6 23 -7 25 -2 9 27 -10 18 -9 20 6 15 9 -4 23 -7 30
-7z m-6644 -56 c12 -25 19 -48 16 -50 -2 -2 -14 18 -25 46 -26 63 -18 66 9 4z
m5852 -14 c35 3 40 1 29 -12 -6 -7 -10 -17 -10 -23 0 -5 -5 -11 -11 -13 -6 -2
-11 3 -11 11 0 8 -7 17 -15 21 -8 3 -15 1 -15 -3 0 -5 5 -11 11 -13 9 -3 8
-11 -2 -28 l-14 -25 -3 28 c-2 16 -9 27 -18 27 -11 0 -10 5 6 22 11 12 21 33
22 47 1 20 2 19 5 -7 4 -27 9 -33 26 -32z m-4575 25 c7 -14 12 -35 12 -46 0
-32 -25 -17 -28 17 -2 16 -8 35 -14 42 -8 9 -6 12 4 12 8 0 20 -11 26 -25z
m1732 3 c0 -6 8 -17 18 -25 15 -12 14 -13 -15 -8 -30 6 -33 4 -33 -18 0 -18
-8 -28 -32 -38 -44 -17 -44 -17 -22 -34 17 -13 17 -14 2 -15 -10 0 -18 -6 -18
-14 0 -19 -26 -27 -53 -17 -13 5 -36 7 -53 4 -22 -4 -26 -3 -18 6 6 7 32 13
58 14 41 1 46 4 46 24 0 13 9 28 19 35 10 6 17 18 14 25 -3 7 0 13 6 13 6 0
11 -4 11 -10 0 -23 19 -8 25 20 4 17 11 30 16 30 5 0 9 7 9 16 0 8 5 12 10 9
6 -3 10 -11 10 -17z m-243 -18 c-4 -20 -2 -30 5 -30 15 0 58 -40 58 -53 0 -6
-11 0 -24 12 -20 19 -24 20 -29 7 -4 -9 -11 -16 -16 -16 -6 0 -8 6 -5 14 3 8
-2 26 -11 40 -14 21 -15 27 -3 40 21 24 31 18 25 -14z m2443 20 c14 -3 -42
-25 -128 -50 -53 -16 -178 -59 -277 -95 -373 -139 -786 -267 -947 -295 -59
-10 -147 -35 -195 -54 -49 -19 -117 -42 -153 -51 -36 -9 -198 -55 -360 -102
-162 -47 -334 -96 -381 -108 -48 -13 -160 -46 -250 -74 -188 -58 -229 -68
-229 -53 0 5 16 13 35 16 22 5 33 11 29 18 -4 7 -2 8 5 4 17 -11 73 3 65 16
-4 6 -2 8 4 4 6 -3 61 10 124 29 62 19 286 84 498 144 212 60 398 114 413 120
16 6 41 11 57 11 16 0 74 18 128 39 54 22 121 44 148 49 52 11 128 31 236 63
63 18 67 21 66 49 -1 17 -5 30 -9 30 -4 0 -63 -16 -130 -35 -140 -40 -129 -37
-129 -27 0 5 28 16 63 26 34 10 93 27 131 39 l68 21 -5 48 c-8 61 12 62 28 2
9 -35 13 -39 38 -36 15 2 27 -1 27 -7 0 -5 -12 -11 -27 -13 -23 -2 -29 -8 -31
-35 -2 -18 0 -33 3 -33 21 0 536 169 648 212 155 60 396 136 417 132 8 -1 17
-3 20 -4z m-3540 -30 c0 -5 -9 -10 -21 -10 -11 0 -17 5 -14 10 3 6 13 10 21
10 8 0 14 -4 14 -10z m1550 -65 c0 -9 9 -15 25 -15 14 0 25 -4 25 -9 0 -5 3
-16 6 -25 3 -9 1 -16 -5 -16 -6 0 -11 7 -11 15 0 22 -31 18 -37 -5 -3 -11 -10
-20 -15 -20 -6 0 -7 7 -4 15 8 22 -18 29 -56 16 -20 -7 -35 -8 -41 -2 -12 12
68 35 90 27 11 -4 13 -1 8 14 -4 11 -2 20 4 20 6 0 11 -7 11 -15z m-3290 -36
c0 -10 -27 -19 -34 -12 -3 4 -6 15 -6 25 0 16 3 16 20 6 11 -7 20 -16 20 -19z
m6090 -8 c17 -33 11 -47 -10 -21 -11 14 -20 28 -20 33 0 14 20 7 30 -12z m422
-8 c20 -36 30 -94 19 -111 -10 -17 -19 1 -36 81 -14 62 -8 72 17 30z m-1186
-21 c-13 -14 -46 -7 -46 10 0 6 7 7 15 4 9 -3 18 1 22 10 5 13 7 13 14 2 5 -8
3 -18 -5 -26z m-5256 -43 c0 -10 -4 -19 -10 -19 -5 0 -10 12 -10 26 0 14 4 23
10 19 6 -3 10 -15 10 -26z m43 24 c-7 -2 -19 -2 -25 0 -7 3 -2 5 12 5 14 0 19
-2 13 -5z m-13 -22 c0 -6 -4 -13 -10 -16 -5 -3 -10 1 -10 9 0 9 5 16 10 16 6
0 10 -4 10 -9z m3156 -56 c15 -14 22 -25 15 -25 -6 0 -11 -7 -11 -15 0 -8 5
-15 11 -15 6 0 9 -6 7 -12 -5 -14 10 -32 31 -39 8 -3 -2 -15 -28 -32 -30 -20
-41 -23 -41 -13 0 8 9 18 20 21 11 3 20 11 20 16 0 12 -4 12 -47 -6 -41 -17
-53 -19 -53 -6 0 5 11 12 25 15 23 6 36 26 16 26 -12 0 -20 49 -10 56 5 3 9
16 9 30 0 30 3 30 36 -1z m2735 -7 c18 -29 20 -30 14 -8 -6 24 -5 24 19 -5 25
-29 26 -29 26 -7 0 15 6 22 19 22 18 0 19 -2 5 -30 -9 -16 -22 -30 -29 -30 -8
0 -15 -9 -17 -20 -2 -14 -7 -17 -17 -11 -12 8 -12 12 -2 25 8 9 9 16 4 16 -5
0 -24 18 -42 40 -23 29 -28 40 -16 40 8 0 25 -15 36 -32z m-5651 8 c-25 -15
-45 -12 -35 5 4 5 18 9 33 9 l27 -1 -25 -13z m73 7 c-7 -2 -19 -2 -25 0 -7 3
-2 5 12 5 14 0 19 -2 13 -5z m37 -10 c0 -5 -5 -15 -10 -23 -8 -12 -10 -11 -10
8 0 12 5 22 10 22 6 0 10 -3 10 -7z m-346 -38 c16 -24 16 -25 -4 -22 -32 5
-48 26 -30 37 8 5 16 10 16 10 1 0 9 -11 18 -25z m76 -10 c0 -5 -5 -3 -10 5
-5 8 -10 20 -10 25 0 6 5 3 10 -5 5 -8 10 -19 10 -25z m1408 7 c2 -12 -2 -22
-8 -22 -7 0 -10 6 -7 14 3 7 0 19 -6 26 -9 10 -9 11 3 8 8 -3 16 -14 18 -26z
m4952 13 c0 -8 -4 -15 -9 -15 -5 0 -22 -5 -38 -12 -39 -16 -63 -19 -63 -10 0
5 18 14 40 21 21 6 42 16 45 21 9 15 25 12 25 -5z m-286 -10 c-4 -8 -12 -15
-20 -15 -17 0 -18 17 -1 23 22 9 27 7 21 -8z m-49 -5 c-3 -5 -15 -10 -26 -10
-11 0 -17 5 -14 10 3 6 15 10 26 10 11 0 17 -4 14 -10z m425 -16 c0 -11 -5
-14 -17 -10 -9 4 -20 1 -24 -6 -10 -17 -23 -3 -16 17 9 21 57 20 57 -1z
m-6180 -14 c0 -11 -4 -20 -10 -20 -5 0 -10 9 -10 20 0 11 5 20 10 20 6 0 10
-9 10 -20z m6357 14 c-3 -3 -12 -4 -19 -1 -8 3 -5 6 6 6 11 1 17 -2 13 -5z
m-4910 -19 c8 -9 13 -18 11 -21 -9 -9 -38 8 -38 22 0 18 8 18 27 -1z m998 5
c17 -7 16 -9 -9 -9 -28 -1 -29 -1 -11 -21 10 -11 13 -20 7 -20 -6 0 -14 5 -17
10 -3 6 -15 10 -26 10 -24 0 -25 16 -1 29 20 12 30 12 57 1z m3820 -11 c-33
-10 -64 -18 -70 -18 -15 1 97 38 115 37 8 0 -12 -8 -45 -19z m-6505 -34 c0 -5
-5 -3 -10 5 -5 8 -10 20 -10 25 0 6 5 3 10 -5 5 -8 10 -19 10 -25z m2820 -5
c10 0 15 -10 16 -30 1 -17 -3 -30 -7 -30 -5 0 -9 6 -9 13 0 8 -9 22 -20 32
-11 10 -20 23 -20 29 0 6 5 5 12 -2 7 -7 19 -12 28 -12z m3065 -20 c3 -5 -1
-10 -11 -10 -13 0 -14 -3 -4 -14 6 -8 17 -13 25 -10 8 4 15 -7 19 -31 7 -35 8
-36 44 -30 22 3 6 -5 -38 -20 -41 -13 -79 -23 -85 -21 -5 2 5 6 23 10 18 4 30
11 27 16 -3 5 -1 11 5 15 21 13 8 36 -30 52 -37 16 -38 18 -23 35 18 20 39 23
48 8z m786 -3 c-8 -11 -5 -19 14 -35 26 -22 33 -42 15 -42 -5 0 -10 4 -10 9 0
5 -11 16 -25 25 -24 16 -26 16 -35 -8 -11 -30 -26 -40 -36 -25 -4 6 1 16 10
21 9 5 16 15 16 22 0 8 10 21 23 29 27 20 43 22 28 4z m-5581 -36 c0 -10 -168
-64 -272 -88 -40 -9 -97 -26 -126 -39 -79 -35 -184 -64 -228 -64 -22 0 -92
-15 -157 -34 -65 -18 -120 -30 -123 -25 -6 11 -10 9 127 49 59 16 124 30 145
30 46 0 102 16 222 64 48 19 123 41 167 50 44 9 112 27 150 40 77 27 95 30 95
17z m155 -21 c-5 -15 -3 -18 9 -14 9 3 16 1 16 -5 0 -6 -4 -11 -8 -11 -7 0
-32 -57 -32 -73 0 -4 7 -7 15 -7 8 0 15 -4 15 -9 0 -12 -54 -22 -58 -10 -2 5
-10 9 -18 9 -21 0 -17 14 8 25 34 16 45 41 30 66 -11 18 -11 23 5 35 24 18 25
17 18 -6z m4612 -96 c-3 -3 -12 -4 -19 -1 -8 3 -5 6 6 6 11 1 17 -2 13 -5z
m-5758 -59 c0 -5 -6 1 -14 15 -8 14 -14 30 -14 35 0 6 6 -1 14 -15 8 -14 14
-29 14 -35z m6041 -7 c0 -4 -5 -10 -12 -14 -6 -4 -8 -3 -5 3 4 6 0 13 -8 17
-8 3 -15 16 -15 28 l0 23 20 -25 c11 -14 20 -28 20 -32z m-3848 25 c-9 -3 -11
-16 -6 -41 7 -42 -9 -34 -20 9 -6 29 0 39 23 38 11 0 12 -2 3 -6z m448 -56 c0
-4 -9 -3 -20 3 -11 6 -20 21 -20 33 0 22 1 22 20 -3 11 -14 20 -29 20 -33z
m-570 -5 c0 -25 -9 -45 -35 -73 -28 -31 -35 -47 -35 -80 0 -24 -4 -38 -10 -34
-16 10 -11 -17 7 -37 21 -24 8 -37 -15 -15 -12 13 -17 34 -17 77 0 33 -3 60
-7 60 -5 0 -8 7 -8 15 0 8 6 12 14 9 7 -3 27 11 45 31 34 39 40 58 15 48 -14
-5 -15 -3 -6 13 6 11 20 20 31 20 17 0 21 -7 21 -34z m-2050 -7 c0 -5 -5 -3
-10 5 -5 8 -10 20 -10 25 0 6 5 3 10 -5 5 -8 10 -19 10 -25z m29 -70 c0 -5 -6
1 -14 15 -8 14 -14 30 -14 35 0 6 6 -1 14 -15 8 -14 14 -29 14 -35z m5825 0
c18 -14 18 -15 2 -21 -11 -4 -22 -1 -27 7 -19 31 -6 38 25 14z m-4364 -86 c0
-16 4 -29 9 -29 5 0 7 10 3 22 -3 14 -2 19 6 14 7 -4 12 -13 12 -21 0 -15 45
-29 61 -19 6 3 8 19 5 35 -7 35 11 39 20 4 7 -27 23 -32 42 -13 9 9 12 9 12 0
0 -9 14 -11 53 -7 38 5 48 4 37 -4 -8 -6 -23 -11 -33 -11 -22 0 -77 -37 -77
-51 0 -6 9 -8 19 -4 16 5 18 2 14 -16 -4 -15 -3 -20 5 -15 7 4 12 2 12 -3 0
-6 -7 -11 -16 -11 -11 0 -14 -6 -10 -17 4 -13 1 -12 -13 5 -23 27 -51 20 -51
-13 0 -13 -4 -27 -10 -30 -22 -14 -9 47 15 69 14 13 25 33 25 44 0 11 6 23 13
26 6 4 -6 4 -28 1 -25 -3 -45 -12 -54 -25 -18 -26 -34 -26 -26 1 7 20 5 21
-25 16 -17 -4 -43 -16 -57 -27 -29 -23 -53 -26 -54 -7 0 6 -5 1 -11 -13 -9
-20 -12 -22 -15 -8 -6 25 -35 30 -76 13 -47 -20 -49 -19 -42 8 5 19 5 20 -5 4
-6 -9 -16 -15 -21 -11 -6 4 -6 11 2 20 6 8 9 26 6 42 -5 23 -2 27 20 29 18 1
22 -2 14 -10 -15 -15 -14 -36 3 -53 17 -16 46 -9 46 12 0 17 -3 17 54 -2 40
-14 52 -14 72 -4 26 14 31 35 12 44 -10 5 -10 7 0 12 6 3 12 15 12 25 0 11 5
17 10 14 6 -3 10 -19 10 -36z m-1490 -43 c0 -8 4 -16 9 -18 5 -1 3 -12 -5 -22
-14 -20 -14 -20 -28 0 -8 10 -10 21 -5 22 5 2 9 10 9 18 0 8 5 14 10 14 6 0
10 -6 10 -14z m4308 -71 c7 -14 12 -30 12 -35 0 -17 -17 -11 -23 8 -2 9 -8 25
-12 35 -11 27 11 20 23 -8z m-4354 -27 c11 -2 23 -17 30 -38 8 -24 19 -36 36
-40 22 -5 23 -7 7 -13 -30 -11 -35 -9 -53 32 -25 56 -51 60 -91 14 -42 -47
-42 -32 -1 28 25 37 34 44 42 34 6 -7 19 -15 30 -17z m2556 -18 c0 -4 -8 -7
-17 -6 -15 1 -18 -6 -15 -39 2 -32 0 -37 -8 -22 -6 9 -18 17 -25 17 -8 0 -15
5 -15 10 0 6 5 10 11 10 6 0 9 9 6 19 -3 15 1 21 17 23 25 5 46 -1 46 -12z
m1495 0 c-3 -5 -15 -10 -26 -10 -11 0 -17 5 -14 10 3 6 15 10 26 10 11 0 17
-4 14 -10z m2455 -86 c0 -8 -4 -12 -10 -9 -5 3 -10 10 -10 16 0 5 5 9 10 9 6
0 10 -7 10 -16z m-2134 -9 c9 -8 12 -20 8 -26 -5 -9 -11 -6 -21 6 -23 33 -14
47 13 20z m256 -24 c-12 -21 -23 -29 -42 -28 -18 2 -25 -3 -25 -17 0 -10 -10
-23 -23 -27 -31 -12 -25 -44 7 -44 14 0 26 -6 29 -13 3 -9 -3 -11 -22 -6 -17
4 -26 2 -26 -6 0 -7 -8 -9 -22 -5 -29 9 -54 32 -45 42 4 3 13 1 19 -5 18 -18
27 -14 21 9 -5 17 -11 19 -37 13 -17 -3 -34 -11 -37 -17 -12 -17 -30 4 -23 26
9 28 22 37 57 37 16 0 38 10 52 25 14 13 25 20 25 15 0 -6 7 -10 16 -10 10 0
14 6 10 15 -5 15 8 19 47 16 9 -1 17 3 17 9 0 6 4 9 9 5 6 -3 3 -18 -7 -34z
m1848 29 c0 -5 -7 -10 -16 -10 -8 0 -12 5 -9 10 3 6 10 10 16 10 5 0 9 -4 9
-10z m-5328 -67 c2 -24 1 -43 -3 -43 -7 0 -19 51 -19 83 0 37 18 4 22 -40z
m-902 -18 c0 -5 -5 -3 -10 5 -5 8 -10 20 -10 25 0 6 5 3 10 -5 5 -8 10 -19 10
-25z m3600 21 c0 -2 -9 -6 -20 -9 -11 -3 -18 -1 -14 4 5 9 34 13 34 5z m815
-17 c4 -11 5 -22 3 -23 -1 -1 -15 -7 -29 -13 -28 -12 -49 -2 -49 23 0 14 28
27 41 18 5 -3 9 0 9 5 0 19 18 12 25 -10z m1690 11 c-3 -5 -18 -10 -33 -10
-21 0 -24 2 -12 10 20 13 53 13 45 0z m-295 -60 c23 -23 26 -34 6 -27 -7 3
-19 0 -25 -6 -8 -8 -11 -7 -11 5 0 9 -3 23 -6 32 -9 22 12 20 36 -4z m404 -25
c18 -10 27 -10 37 -1 9 8 10 7 5 -8 -3 -10 -1 -25 5 -33 7 -7 8 -17 4 -21 -4
-4 -10 -1 -12 6 -3 6 -10 12 -16 12 -17 0 -77 62 -77 79 1 13 3 13 15 -3 8
-10 25 -24 39 -31z m-84 -1 c0 -8 -4 -12 -10 -9 -5 3 -10 13 -10 21 0 8 5 12
10 9 6 -3 10 -13 10 -21z m-496 10 c23 -9 20 -23 -4 -17 -11 3 -20 9 -20 14 0
11 3 11 24 3z m-6514 -20 c0 -8 -4 -12 -10 -9 -5 3 -10 10 -10 16 0 5 5 9 10
9 6 0 10 -7 10 -16z m4768 -37 c2 -11 -3 -17 -16 -17 -15 0 -19 5 -15 20 6 24
26 21 31 -3z m-178 3 c0 -4 14 -13 30 -20 53 -22 39 -42 -40 -55 -41 -6 -55 1
-65 35 -4 14 -4 22 0 18 3 -3 15 2 24 11 17 17 51 24 51 11z m2113 -21 c3 -13
1 -19 -6 -16 -15 5 -22 37 -9 37 5 0 12 -9 15 -21z m62 -30 c-7 -10 -35 -1
-35 11 0 5 9 6 20 3 11 -3 17 -9 15 -14z m35 -35 c0 -7 8 -18 18 -23 9 -6 15
-11 12 -11 -56 -11 -93 -1 -53 14 12 5 14 9 5 18 -17 17 -15 28 3 22 8 -4 15
-12 15 -20z m-5830 -19 c0 -5 -5 -3 -10 5 -5 8 -10 20 -10 25 0 6 5 3 10 -5 5
-8 10 -19 10 -25z m-672 6 c3 -8 -1 -12 -9 -9 -7 2 -15 10 -17 17 -3 8 1 12 9
9 7 -2 15 -10 17 -17z m-38 -1 c0 -5 -7 -10 -15 -10 -19 0 -19 -10 1 -38 8
-12 13 -22 10 -22 -2 0 -12 -3 -22 -7 -14 -5 -16 -2 -11 18 3 13 2 31 -3 39
-6 9 -5 17 3 22 17 11 37 10 37 -2z m4600 -7 c2 -2 -1 -8 -8 -12 -7 -4 -12
-12 -11 -17 5 -27 -3 -25 -21 4 -11 18 -20 35 -20 37 0 6 52 -5 60 -12z m60
-8 c0 -7 12 -16 26 -19 33 -9 73 -96 44 -96 -5 0 -10 8 -10 18 0 34 -29 62
-66 62 -19 0 -34 5 -34 10 0 6 5 10 10 10 6 0 10 9 10 21 0 11 5 17 10 14 6
-3 10 -12 10 -20z m538 7 c4 -12 -37 -33 -50 -25 -15 8 -8 32 10 36 23 6 35 3
40 -11z m1405 -37 c4 -8 2 -17 -2 -20 -5 -2 -11 4 -14 15 -6 23 8 27 16 5z
m15 -45 c-7 -11 -15 -15 -17 -9 -2 6 3 15 10 20 20 12 21 11 7 -11z m-923 2
c-8 -6 -159 -55 -205 -66 -3 0 -6 4 -8 9 -3 12 150 63 193 64 16 1 25 -3 20
-7z m1105 -31 c0 -5 3 -16 6 -25 10 -26 -10 -18 -23 9 -9 20 -8 25 3 25 8 0
14 -4 14 -9z m-700 -11 c0 -5 -4 -10 -10 -10 -5 0 -10 5 -10 10 0 6 5 10 10
10 6 0 10 -4 10 -10z m514 -15 c3 -8 1 -15 -4 -15 -6 0 -10 7 -10 15 0 8 2 15
4 15 2 0 6 -7 10 -15z m-3464 -31 c0 -2 -11 -4 -25 -4 -14 0 -25 4 -25 9 0 4
11 6 25 3 14 -2 25 -6 25 -8z m3835 -42 c-4 -11 -8 -11 -20 2 -13 13 -14 20
-4 38 l12 22 9 -24 c5 -13 6 -30 3 -38z m-319 33 c4 -8 10 -12 15 -9 5 3 9 0
9 -5 0 -6 -2 -11 -4 -11 -2 0 -12 -3 -22 -7 -12 -4 -15 -2 -12 8 3 8 -2 19
-11 26 -14 11 -14 12 2 13 10 0 20 -7 23 -15z m59 -25 c3 -5 -1 -10 -10 -10
-9 0 -13 5 -10 10 3 6 8 10 10 10 2 0 7 -4 10 -10z m-3715 -11 c0 -8 -51 -31
-57 -25 -9 9 22 34 40 33 9 -1 17 -4 17 -8z m3860 2 c0 -5 -6 -11 -12 -14 -8
-3 1 -18 25 -42 20 -21 35 -30 31 -21 -4 12 0 16 15 16 17 0 21 -5 17 -24 -3
-14 2 -30 10 -37 8 -6 14 -16 14 -21 0 -14 -60 31 -102 77 -42 45 -49 75 -18
75 11 0 20 -4 20 -9z m-241 -18 c-7 -10 -15 -20 -16 -22 -2 -2 -3 5 -3 17 0
14 6 22 16 22 14 0 15 -3 3 -17z m321 -3 c0 -11 -4 -20 -10 -20 -5 0 -10 9
-10 20 0 11 5 20 10 20 6 0 10 -9 10 -20z m-46 -6 c4 -10 1 -14 -6 -12 -15 5
-23 28 -10 28 5 0 13 -7 16 -16z m116 1 c7 -9 10 -18 7 -22 -8 -7 -37 15 -37
28 0 14 16 11 30 -6z m-435 -15 c-3 -5 -15 -10 -26 -10 -11 0 -17 5 -14 10 3
6 15 10 26 10 11 0 17 -4 14 -10z m-1555 -20 c0 -5 -5 -10 -11 -10 -5 0 -7 5
-4 10 3 6 8 10 11 10 2 0 4 -4 4 -10z m2007 -25 c-4 -8 -11 -15 -17 -15 -7 0
-7 6 0 21 13 23 26 19 17 -6z m-4367 -20 c0 -1 -11 -5 -25 -7 -16 -3 -25 -1
-25 7 0 8 9 10 25 7 14 -2 25 -6 25 -7z m4364 -36 c-25 -17 -48 -28 -51 -25
-7 7 29 39 57 52 46 21 42 3 -6 -27z m-4474 22 c0 -5 -22 -11 -50 -15 -53 -7
-61 -18 -35 -52 12 -15 16 -16 23 -6 7 10 11 8 15 -9 3 -13 1 -29 -5 -36 -16
-20 30 -166 50 -158 7 3 18 5 23 5 5 0 9 10 10 23 0 21 0 21 12 2 7 -11 27
-34 45 -52 l32 -32 35 20 c19 12 40 19 47 17 7 -3 -2 -12 -20 -22 -25 -13 -32
-22 -27 -36 6 -18 5 -18 -26 -3 -25 13 -38 14 -61 5 -31 -11 -39 1 -10 17 27
16 2 47 -34 43 -16 -2 -30 -5 -32 -6 -1 -2 15 -52 36 -112 36 -99 42 -109 66
-112 15 -2 41 1 57 7 23 8 30 8 27 -2 -3 -6 -26 -16 -51 -21 -26 -5 -47 -13
-47 -17 0 -5 9 -33 21 -64 18 -49 20 -79 4 -63 -6 6 -169 469 -206 585 -12 40
-20 76 -16 79 15 16 117 29 117 15z m2380 -6 c0 -8 -4 -15 -10 -15 -5 0 -10 7
-10 15 0 8 5 15 10 15 6 0 10 -7 10 -15z m-2263 -12 c-9 -9 -20 -13 -24 -9 -4
4 -1 11 7 16 25 16 35 11 17 -7z m-2529 1 c35 -10 26 -26 -10 -19 -39 8 -61
25 -32 25 10 0 29 -3 42 -6z m2846 -9 c4 -10 -1 -15 -14 -15 -20 0 -26 11 -13
23 10 11 20 8 27 -8z m-364 -4 c0 -12 -20 -25 -27 -18 -7 7 6 27 18 27 5 0 9
-4 9 -9z m-390 -16 c0 -16 -9 -19 -36 -8 -16 6 -16 7 2 14 29 11 34 10 34 -6z
m120 -7 c0 -16 -3 -19 -11 -11 -6 6 -8 16 -5 22 11 17 16 13 16 -11z m-2140
-20 c0 -6 -7 -5 -15 2 -8 7 -15 17 -15 22 0 6 7 5 15 -2 8 -7 15 -17 15 -22z
m4374 -6 c-13 -2 -24 -10 -24 -18 0 -8 -7 -14 -15 -14 -12 0 -12 5 -4 24 15
32 52 49 60 27 4 -11 0 -17 -17 -19z m311 -19 c-12 -18 -14 -28 -6 -36 16 -16
14 -27 -3 -21 -8 3 -18 20 -22 37 -3 18 -11 35 -17 39 -6 4 -8 10 -4 14 4 4
13 2 19 -4 17 -17 26 -15 34 11 7 19 8 19 12 4 2 -10 -4 -29 -13 -44z m-2785
22 c-19 -7 -42 -13 -50 -13 -8 0 1 6 20 13 19 7 42 13 50 13 8 0 -1 -6 -20
-13z m280 -1 c0 -3 -6 -12 -14 -20 -14 -14 -46 -10 -46 6 0 7 10 11 53 19 4 0
7 -2 7 -5z m200 -3 c0 -5 -7 -11 -15 -15 -15 -5 -20 5 -8 17 9 10 23 9 23 -2z
m4490 0 c0 -5 -9 -11 -20 -14 -22 -6 -28 8 -7 16 19 8 27 8 27 -2z m-6860 -38
c-1 -24 -2 -26 -11 -10 -5 9 -7 22 -4 27 10 17 15 11 15 -17z m2024 -24 c-3
-5 -10 -7 -15 -3 -5 3 -7 10 -3 15 3 5 10 7 15 3 5 -3 7 -10 3 -15z m322 6
c-4 -24 -16 -30 -16 -7 0 12 4 22 9 22 5 0 8 -7 7 -15z m-2306 -37 c0 -6 -7
-5 -15 2 -8 7 -15 17 -15 22 0 6 7 5 15 -2 8 -7 15 -17 15 -22z m2173 -3 c-3
-8 -9 -15 -14 -15 -5 0 -9 -7 -9 -15 0 -9 -6 -12 -15 -9 -8 4 -15 15 -15 25 0
12 5 16 15 13 8 -4 17 1 21 10 3 9 10 14 15 11 4 -3 6 -12 2 -20z m2310 -27
c-5 -36 -4 -40 10 -35 19 7 21 4 8 -21 -5 -9 -15 -32 -21 -49 -7 -18 -16 -33
-21 -33 -13 0 -11 13 6 36 16 24 9 40 -11 23 -10 -8 -11 -1 -7 32 l6 42 -36
-7 c-22 -4 -38 -2 -42 4 -10 16 -2 21 34 22 17 1 38 9 47 19 24 26 33 15 27
-33z m102 42 c3 -5 -1 -10 -9 -10 -8 0 -18 5 -21 10 -3 6 1 10 9 10 8 0 18 -4
21 -10z m-2275 -41 c0 -11 -4 -17 -10 -14 -5 3 -10 13 -10 21 0 8 5 14 10 14
6 0 10 -9 10 -21z m-2270 -4 c7 -8 8 -15 2 -15 -5 0 -15 7 -22 15 -7 8 -8 15
-2 15 5 0 15 -7 22 -15z m1405 6 c-12 -10 -415 -134 -420 -129 -4 4 397 134
420 137 5 1 5 -2 0 -8z m1349 -38 c16 -73 16 -83 2 -83 -8 0 -19 -8 -25 -17
-5 -10 -13 -15 -17 -10 -4 4 1 17 12 29 19 21 19 21 -3 16 -13 -4 -25 -3 -28
2 -3 4 7 11 21 14 24 6 26 11 21 41 -7 41 9 47 17 8z m-2714 -8 c7 -8 8 -15 2
-15 -5 0 -15 7 -22 15 -7 8 -8 15 -2 15 5 0 15 -7 22 -15z m1003 -7 c-4 -19
-3 -20 6 -8 9 13 11 11 11 -7 0 -16 -8 -23 -31 -28 -17 -4 -32 -5 -34 -3 -6 5
36 68 45 68 4 0 6 -10 3 -22z m4307 -24 c0 -9 -10 -18 -21 -21 -21 -6 -22 -10
-15 -102 3 -53 9 -106 12 -118 4 -13 2 -23 -4 -23 -11 0 -19 45 -28 163 -6 77
-5 87 10 87 9 0 19 7 22 15 8 20 24 19 24 -1z m-5262 -30 c-10 -10 -28 6 -28
24 0 15 1 15 17 -1 9 -9 14 -19 11 -23z m1602 20 c0 -8 -5 -12 -10 -9 -6 4 -8
11 -5 16 9 14 15 11 15 -7z m1290 8 c0 -5 -10 -14 -22 -20 -22 -10 -21 -11 10
-11 17 -1 32 -6 32 -12 0 -6 -16 -9 -40 -8 -22 2 -45 -2 -52 -9 -7 -7 -19 -12
-27 -12 -11 0 -11 4 3 19 10 11 15 25 11 30 -4 7 3 11 17 11 13 0 30 5 38 10
19 12 30 13 30 2z m1997 -69 c-2 -16 -4 -3 -4 27 0 30 2 43 4 28 2 -16 2 -40
0 -55z m1543 61 c0 -8 -4 -12 -10 -9 -5 3 -10 10 -10 16 0 5 5 9 10 9 6 0 10
-7 10 -16z m-4800 -4 c0 -5 -4 -10 -10 -10 -5 0 -10 5 -10 10 0 6 5 10 10 10
6 0 10 -4 10 -10z m378 -15 c-4 -12 -25 -16 -44 -8 -25 9 -15 21 16 19 17 -1
29 -6 28 -11z m392 -21 c0 -8 -4 -12 -10 -9 -5 3 -10 13 -10 21 0 8 5 12 10 9
6 -3 10 -13 10 -21z m1666 -15 c7 -19 13 -45 13 -58 1 -24 1 -24 -14 -5 -8 10
-15 31 -15 46 0 15 -4 30 -10 33 -14 9 -13 28 2 23 6 -2 17 -20 24 -39z
m-4028 -5 c-10 -10 -28 6 -28 24 0 15 1 15 17 -1 9 -9 14 -19 11 -23z m4221 7
c11 -7 10 -11 -6 -20 -23 -12 -34 -6 -26 15 6 16 13 17 32 5z m-917 -28 c2
-22 8 -28 26 -26 23 3 31 -12 10 -20 -10 -3 -10 -7 1 -20 20 -24 44 -22 36 3
-4 11 -2 20 4 20 12 0 13 -3 16 -43 2 -24 -1 -27 -19 -21 -12 3 -31 15 -43 26
-12 12 -29 18 -37 15 -19 -7 -21 4 -5 20 9 9 3 16 -25 29 -20 10 -36 21 -36
26 0 11 18 10 25 -2 9 -15 25 -12 25 5 0 27 19 16 22 -12z m-3264 -12 c3 -8
-1 -12 -9 -9 -7 2 -15 10 -17 17 -3 8 1 12 9 9 7 -2 15 -10 17 -17z m2292 -13
c0 -13 -23 -5 -28 10 -2 7 2 10 12 6 9 -3 16 -11 16 -16z m-41 -13 c6 3 11 -1
11 -10 0 -14 -26 -32 -35 -24 -2 2 -6 18 -10 34 -6 28 -5 29 9 11 8 -10 19
-15 25 -11z m-2210 -8 c6 -8 8 -17 4 -20 -7 -8 -33 11 -33 24 0 13 16 11 29
-4z m2359 -6 c3 -8 -1 -12 -9 -9 -7 2 -15 10 -17 17 -3 8 1 12 9 9 7 -2 15
-10 17 -17z m3307 9 c3 -5 1 -10 -4 -10 -6 0 -11 5 -11 10 0 6 2 10 4 10 3 0
8 -4 11 -10z m-1195 -55 c42 -37 57 -45 90 -45 28 0 40 4 40 14 0 8 9 18 20
21 11 4 18 11 15 16 -4 5 -2 9 3 9 20 0 19 -13 -3 -53 -13 -22 -22 -44 -19
-48 5 -8 -59 -29 -89 -29 -10 0 -15 5 -12 11 4 6 13 8 21 5 8 -3 14 -1 14 4 0
6 9 10 20 10 11 0 20 5 20 10 0 6 -16 10 -35 10 -27 0 -46 10 -87 47 -50 44
-67 63 -54 63 3 0 28 -20 56 -45z m1273 35 c8 0 8 -3 1 -10 -12 -12 -44 -3
-44 12 0 6 7 7 16 4 9 -3 21 -6 27 -6z m-5696 -46 c-9 -10 -38 16 -31 28 4 6
13 4 22 -6 9 -8 13 -19 9 -22z m2333 16 c0 -5 -7 -10 -16 -10 -8 0 -12 5 -9
10 3 6 10 10 16 10 5 0 9 -4 9 -10z m-2035 -10 c3 -5 -1 -10 -9 -10 -8 0 -18
5 -21 10 -3 6 1 10 9 10 8 0 18 -4 21 -10z m4745 -46 c0 -2 -4 -4 -9 -4 -15 0
-41 30 -41 47 0 12 7 8 25 -11 14 -15 25 -29 25 -32z m-4796 5 c-19 -21 -73
-25 -105 -8 -15 7 -24 7 -34 -1 -17 -14 -80 -3 -96 16 -14 17 -5 18 38 2 27
-10 38 -10 55 1 14 9 23 10 31 2 17 -17 94 -14 101 5 3 8 11 12 17 9 7 -5 4
-13 -7 -26z m1478 19 c-19 -19 -14 -28 17 -28 18 0 31 -6 35 -16 9 -23 1 -28
-14 -9 -14 17 -56 20 -65 5 -6 -10 -60 -6 -95 7 -11 4 -8 8 10 13 14 4 31 2
38 -3 10 -8 20 -3 40 16 15 15 31 27 36 27 6 0 5 -5 -2 -12z m3921 -2 c6 -16
-2 -28 -14 -20 -12 7 -11 34 0 34 5 0 11 -6 14 -14z m-2523 -14 c0 -11 -67
-32 -75 -24 -3 4 9 12 27 18 41 15 48 16 48 6z m1707 -7 c14 -14 14 -18 -1
-33 -11 -13 -14 -28 -9 -57 4 -27 3 -36 -5 -31 -7 4 -12 16 -12 27 0 22 -4 23
-31 9 -24 -14 -25 2 0 24 10 9 21 30 25 47 6 33 11 35 33 14z m1093 -10 c0 -8
-7 -15 -15 -15 -8 0 -15 7 -15 15 0 8 7 15 15 15 8 0 15 -7 15 -15z m-3480
-37 c0 -11 -6 -10 -68 6 l-54 15 -10 -30 c-5 -16 -17 -29 -26 -29 -12 0 -13 3
-4 12 7 7 12 19 12 28 0 33 19 38 86 22 35 -9 64 -19 64 -24z m3896 16 c-18
-13 -19 -15 -2 -33 11 -12 13 -21 7 -25 -6 -4 -18 5 -27 20 -13 19 -24 24 -41
21 -42 -8 -24 12 25 26 52 16 67 13 38 -9z m-4506 -26 c0 -6 -7 -7 -16 -4 -9
3 -18 6 -20 6 -3 0 -3 4 1 10 7 11 35 2 35 -12z m2046 -13 c2 -30 5 -29 -36
-8 -30 15 -32 17 -14 24 36 14 49 10 50 -16z m-1973 -7 c24 3 27 0 27 -27 0
-16 6 -32 13 -34 9 -4 8 -8 -3 -16 -25 -18 -32 -12 -28 23 3 32 2 34 -22 31
-26 -3 -40 9 -40 35 1 13 2 13 13 0 7 -9 24 -14 40 -12z m4065 2 c11 -18 10
-20 -8 -20 -13 0 -20 7 -20 20 0 11 3 20 8 20 4 0 13 -9 20 -20z m-1653 -17
c-10 -9 -15 -26 -12 -40 2 -12 0 -23 -4 -23 -5 0 -9 9 -9 21 0 18 -4 20 -30
14 -16 -4 -30 -4 -30 0 0 3 14 11 30 16 17 6 30 15 30 20 0 5 9 9 21 9 19 0
19 -1 4 -17z m937 -24 c12 -19 17 -20 53 -10 46 12 57 3 53 -44 -3 -28 -6 -29
-73 -41 -38 -6 -72 -10 -74 -8 -9 8 7 15 50 22 35 6 45 12 47 30 3 19 0 21
-28 16 -26 -6 -32 -3 -37 15 -3 11 -9 21 -14 21 -5 0 -9 5 -9 10 0 17 17 11
32 -11z m-508 -41 c-7 -11 -52 -10 -59 2 -3 6 3 10 14 10 11 0 23 5 27 11 4 8
9 7 15 -2 4 -7 5 -17 3 -21z m-602 -30 c-9 -9 -15 -9 -24 0 -10 10 -10 15 2
22 20 12 38 -6 22 -22z m-82 -28 c6 0 10 -9 10 -20 0 -20 0 -20 -20 0 -11 11
-31 20 -45 20 -29 0 -32 8 -8 25 13 10 20 8 35 -7 10 -10 23 -18 28 -18z
m-1910 25 c0 -2 -9 -9 -20 -15 -16 -9 -20 -8 -20 5 0 8 9 15 20 15 11 0 20 -2
20 -5z m3753 -27 c6 -21 2 -36 -7 -27 -10 11 -16 49 -8 49 5 0 12 -10 15 -22z
m-3173 -48 c8 -5 11 -12 7 -16 -4 -4 -15 0 -24 9 -18 18 -8 23 17 7z m2445
-28 c-8 -9 -25 20 -18 31 3 5 10 2 15 -7 6 -10 7 -20 3 -24z m-2759 16 c-3 -7
-9 -21 -12 -30 -4 -10 -10 -18 -15 -18 -5 0 -9 -7 -9 -16 0 -14 -3 -14 -15 -4
-19 15 -19 30 -2 30 8 0 19 11 25 25 6 14 17 25 23 25 6 0 8 -6 5 -12z m1784
8 c0 -2 3 -11 6 -20 4 -10 1 -16 -9 -16 -8 0 -17 9 -20 20 -3 13 0 20 9 20 8
0 14 -2 14 -4z m-296 -58 c6 -26 -20 -22 -38 4 -22 31 -20 38 8 25 14 -7 27
-20 30 -29z m964 18 c28 0 31 -1 19 -14 -12 -11 -24 -12 -71 -2 -31 6 -80 11
-109 10 -67 -2 -78 0 -47 10 14 5 59 5 100 2 41 -4 90 -6 108 -6z m-2144 -5
c3 -5 -1 -12 -10 -15 -27 -11 -37 -7 -24 9 14 17 26 19 34 6z"/>
<path d="M7730 7071 c0 -20 13 -35 23 -25 7 8 -4 44 -14 44 -5 0 -9 -9 -9 -19z"/>
<path d="M1605 6981 c-6 -11 9 -23 19 -14 9 9 7 23 -3 23 -6 0 -12 -4 -16 -9z"/>
<path d="M6910 6920 c-8 -5 -10 -10 -5 -10 6 0 17 5 25 10 8 5 11 10 5 10 -5
0 -17 -5 -25 -10z"/>
<path d="M1200 6882 c0 -21 36 -59 46 -49 10 9 -19 67 -33 67 -7 0 -13 -8 -13
-18z"/>
<path d="M7336 6625 c4 -8 8 -15 10 -15 2 0 4 7 4 15 0 8 -4 15 -10 15 -5 0
-7 -7 -4 -15z"/>
<path d="M7120 6305 c-7 -9 -8 -15 -2 -15 5 0 12 7 16 15 3 8 4 15 2 15 -2 0
-9 -7 -16 -15z"/>
<path d="M7445 6190 c3 -5 11 -10 16 -10 6 0 7 5 4 10 -3 6 -11 10 -16 10 -6
0 -7 -4 -4 -10z"/>
<path d="M6960 6265 c7 -9 15 -13 17 -11 7 7 -7 26 -19 26 -6 0 -6 -6 2 -15z"/>
<path d="M5500 6130 c0 -5 7 -10 15 -10 8 0 15 5 15 10 0 6 -7 10 -15 10 -8 0
-15 -4 -15 -10z"/>
<path d="M7158 5704 c-7 -7 13 -74 23 -74 9 0 18 50 12 67 -5 13 -25 18 -35 7z"/>
<path d="M6960 5511 c0 -16 12 -41 20 -41 4 0 5 11 2 25 -4 23 -22 36 -22 16z"/>
<path d="M5024 5016 c-8 -21 3 -36 27 -36 15 0 20 6 17 22 -4 27 -35 37 -44
14z"/>
<path d="M4205 4940 c-14 -22 30 -45 56 -30 10 7 10 11 0 24 -15 18 -47 21
-56 6z"/>
<path d="M5420 4891 c0 -17 12 -41 21 -41 5 0 9 11 9 25 0 16 -6 25 -15 25 -8
0 -15 -4 -15 -9z"/>
<path d="M5115 4760 c21 -24 26 -25 19 -6 -3 8 -13 17 -22 21 -13 5 -13 2 3
-15z"/>
<path d="M7368 4677 c-8 -40 2 -46 30 -20 22 20 24 26 12 33 -24 16 -37 11
-42 -13z"/>
<path d="M1581 3997 c-8 -11 -6 -18 9 -32 20 -18 20 -17 20 13 0 34 -10 41
-29 19z"/>
<path d="M3640 3980 c0 -5 7 -10 15 -10 8 0 15 5 15 10 0 6 -7 10 -15 10 -8 0
-15 -4 -15 -10z"/>
<path d="M4083 3925 c0 -8 4 -15 9 -15 4 0 8 7 8 15 0 8 -4 15 -8 15 -5 0 -9
-7 -9 -15z"/>
<path d="M4090 3885 c0 -8 5 -15 10 -15 6 0 10 7 10 15 0 8 -4 15 -10 15 -5 0
-10 -7 -10 -15z"/>
<path d="M2500 3751 c0 -12 6 -21 15 -21 8 0 15 4 15 9 0 5 -7 14 -15 21 -13
10 -15 9 -15 -9z"/>
<path d="M2453 3738 c-37 -22 -41 -33 -16 -43 19 -7 53 26 53 51 0 17 3 17
-37 -8z"/>
<path d="M2528 3713 c-19 -5 -24 -18 -9 -27 14 -9 41 4 41 20 0 14 -3 15 -32
7z"/>
<path d="M6895 3406 c-29 -21 -6 -43 24 -24 21 13 23 29 5 35 -5 2 -19 -3 -29
-11z"/>
<path d="M6836 3381 c-4 -7 -5 -15 -2 -18 9 -9 19 4 14 18 -4 11 -6 11 -12 0z"/>
<path d="M7650 2580 c0 -5 5 -10 10 -10 6 0 10 5 10 10 0 6 -4 10 -10 10 -5 0
-10 -4 -10 -10z"/>
<path d="M4181 2284 c0 -11 3 -14 6 -6 3 7 2 16 -1 19 -3 4 -6 -2 -5 -13z"/>
<path d="M3284 1878 l-19 -23 23 19 c12 11 22 21 22 23 0 8 -8 2 -26 -19z"/>
<path d="M5163 1293 c-16 -6 -5 -33 13 -33 8 0 14 6 14 14 0 18 -11 25 -27 19z"/>
<path d="M6761 194 c0 -11 3 -14 6 -6 3 7 2 16 -1 19 -3 4 -6 -2 -5 -13z"/>
<path d="M6735 7983 c4 -10 10 -37 12 -60 5 -38 56 -113 68 -101 3 3 9 26 14
53 9 46 3 87 -12 86 -4 -1 -6 1 -4 4 5 9 -39 34 -62 35 -18 0 -22 -4 -16 -17z"/>
<path d="M6860 7987 c-17 -14 -27 -173 -12 -195 8 -11 18 -11 60 2 l51 15 21
-32 c11 -18 29 -43 40 -56 l21 -24 34 33 c19 19 35 42 35 52 0 40 104 174 142
182 16 3 28 12 28 21 0 13 -28 15 -202 15 -144 -1 -207 -4 -218 -13z"/>
<path d="M6970 7190 c0 -5 7 -10 15 -10 8 0 15 5 15 10 0 6 -7 10 -15 10 -8 0
-15 -4 -15 -10z"/>
<path d="M7130 7156 c0 -2 7 -7 16 -10 8 -3 12 -2 9 4 -6 10 -25 14 -25 6z"/>
<path d="M7933 6973 c-36 -11 -50 -19 -46 -29 6 -16 -5 -18 -25 -5 -9 5 -71
-8 -165 -36 -84 -25 -160 -48 -169 -50 -12 -4 -16 -12 -13 -27 13 -63 80 -453
170 -996 100 -606 178 -1062 214 -1264 17 -93 31 -172 31 -176 0 -4 16 -10 35
-12 l35 -4 0 218 0 219 -22 -12 c-17 -9 -24 -9 -33 5 -7 9 -16 16 -21 16 -16
0 -35 52 -24 66 7 8 7 26 1 55 -5 24 -8 45 -6 47 8 9 23 -37 30 -91 8 -60 23
-78 56 -70 18 5 19 21 19 309 0 217 -3 304 -11 304 -8 0 -9 15 -4 46 l7 46
-41 -4 c-34 -3 -41 0 -50 20 -15 31 -15 30 21 28 17 -1 33 -7 36 -14 2 -6 12
-12 23 -12 18 0 19 9 19 138 0 137 0 139 -22 138 -17 -1 -24 5 -26 22 -2 12
-8 22 -13 22 -5 0 -9 11 -9 25 0 13 -6 44 -14 67 -19 57 -27 150 -12 145 6 -2
11 -18 12 -36 1 -19 6 -36 11 -40 15 -10 23 -39 11 -43 -18 -6 12 -88 33 -88
9 0 20 7 23 16 3 9 6 142 6 295 0 276 0 280 -20 274 -11 -3 -20 -2 -20 4 0 5
10 13 22 17 l21 6 -24 19 c-29 23 -49 24 -49 4 0 -22 -47 -19 -59 4 -8 15 -7
20 6 25 14 6 10 11 -18 28 -19 12 -40 21 -46 20 -8 -2 -10 3 -7 13 5 13 0 12
-27 -4 -42 -25 -123 -37 -116 -19 2 7 15 12 28 10 37 -4 66 6 93 33 29 29 36
31 36 9 0 -13 3 -14 13 -5 16 13 28 5 21 -13 -3 -7 2 -19 11 -26 13 -11 20 -9
45 15 17 16 30 37 30 47 0 10 5 18 10 18 11 0 14 -33 4 -43 -11 -11 -12 -67
-2 -67 5 0 18 -10 29 -22 18 -23 19 -20 18 205 0 125 -4 227 -7 226 -4 0 -30
-7 -59 -16z m52 -40 c-5 -10 -7 -21 -7 -25 3 -15 -19 -8 -25 7 -3 9 2 22 13
30 23 16 29 12 19 -12z m-53 -15 c-6 -6 -15 -8 -19 -4 -4 4 -1 11 7 16 19 12
27 3 12 -12z m54 -134 c-5 -14 -8 -14 -22 0 -29 29 -110 20 -219 -24 -90 -37
-124 -43 -110 -19 4 5 14 9 24 9 9 0 56 16 104 35 80 32 94 35 152 29 52 -5
65 -4 66 7 1 8 3 6 6 -4 3 -10 2 -25 -1 -33z m-182 -60 c9 -23 7 -31 -6 -31
-7 -1 -29 -4 -48 -8 l-35 -6 38 21 c21 11 35 25 32 30 -4 6 -2 10 3 10 6 0 13
-7 16 -16z m23 -314 c2 0 3 -7 3 -15 0 -10 10 -15 30 -15 17 0 30 -4 30 -8 0
-8 -56 -9 -165 -3 -38 2 -45 4 -30 11 29 12 79 12 92 -1 7 -7 13 -7 17 0 8 13
-31 34 -49 27 -8 -3 -17 -1 -20 4 -8 13 26 17 60 8 16 -4 31 -8 32 -8z m-11
-165 c2 -19 -2 -25 -18 -25 -14 0 -18 5 -14 15 3 8 1 15 -4 15 -17 0 -11 18 8
22 22 5 25 3 28 -27z m97 -465 c3 -11 1 -20 -4 -20 -5 0 -9 2 -9 4 0 2 -3 11
-6 20 -3 9 -2 16 4 16 5 0 12 -9 15 -20z m77 -799 c0 -11 -4 -23 -10 -26 -5
-3 -10 -2 -10 4 0 5 -3 16 -6 25 -4 11 -1 16 10 16 9 0 16 -8 16 -19z"/>
<path d="M7915 6610 c-3 -5 -1 -10 4 -10 6 0 11 5 11 10 0 6 -2 10 -4 10 -3 0
-8 -4 -11 -10z"/>
<path d="M7900 6559 c0 -11 5 -17 10 -14 6 3 10 13 10 21 0 8 -4 14 -10 14 -5
0 -10 -9 -10 -21z"/>
<path d="M7370 5234 c0 -9 5 -12 12 -8 8 5 9 2 5 -9 -7 -19 -3 -20 31 -11 22
6 22 8 6 25 -21 23 -54 25 -54 3z"/>
<path d="M7600 5229 c0 -5 5 -7 10 -4 6 3 10 8 10 11 0 2 -4 4 -10 4 -5 0 -10
-5 -10 -11z"/>
<path d="M7765 4850 c3 -5 8 -10 11 -10 2 0 4 5 4 10 0 6 -5 10 -11 10 -5 0
-7 -4 -4 -10z"/>
<path d="M7940 4348 c0 -15 27 -181 36 -220 13 -63 24 -21 24 96 0 104 -3 125
-16 130 -25 10 -44 7 -44 -6z"/>
<path d="M7987 4038 c8 -59 13 -61 13 -5 0 26 -4 47 -9 47 -5 0 -7 -19 -4 -42z"/>
<path d="M661 2474 c-45 -51 -48 -59 -27 -71 8 -4 14 -17 13 -28 -1 -14 3 -19
17 -17 10 2 15 -1 12 -7 -12 -19 13 -53 35 -46 11 4 19 2 19 -4 0 -6 -4 -11
-10 -11 -20 0 -9 -27 24 -59 42 -41 55 -38 126 34 l54 55 -99 100 c-55 55
-105 100 -111 100 -7 0 -31 -21 -53 -46z m79 -86 c0 -5 -9 -8 -20 -8 -23 0
-26 10 -8 28 9 9 14 9 20 -1 4 -6 8 -15 8 -19z"/>
<path d="M6650 2460 c0 -5 4 -10 9 -10 13 0 5 -84 -8 -88 -7 -2 -6 -11 4 -25
8 -12 15 -29 15 -38 0 -20 29 -34 43 -20 9 9 -3 114 -19 174 -6 18 -44 24 -44
7z"/>
<path d="M455 2234 c-77 -92 -178 -216 -224 -278 -46 -61 -94 -124 -107 -139
l-24 -29 26 -30 c14 -17 90 -99 169 -182 l144 -150 29 27 c23 22 43 29 112 38
103 14 116 20 169 84 23 28 52 61 65 75 12 14 43 50 67 79 56 70 88 98 119
106 14 4 33 14 42 22 23 20 7 53 -26 53 -13 0 -31 9 -42 21 -18 20 -64 48 -81
50 -5 1 -17 6 -28 12 -11 6 -27 10 -34 8 -13 -2 -13 0 -2 13 11 13 16 14 29 4
13 -11 14 -9 7 12 -7 26 -11 32 -60 97 -40 52 -51 47 -139 -68 -60 -78 -86
-103 -86 -83 0 12 134 176 157 191 l24 16 -35 36 c-20 20 -36 45 -36 54 0 18
-15 23 -24 8 -8 -13 -46 -21 -46 -10 0 5 11 14 25 19 22 8 24 13 15 29 -5 11
-15 23 -20 26 -6 3 -10 14 -10 25 0 14 -20 32 -33 30 -1 0 -65 -75 -142 -166z
m112 -39 c-7 -19 -32 -10 -35 13 -3 21 -2 22 17 10 12 -7 20 -17 18 -23z
m-151 -136 c-20 -17 -36 -39 -36 -49 0 -23 37 -70 56 -70 8 0 14 -5 14 -11 0
-6 -7 -8 -16 -5 -9 3 -19 6 -24 6 -12 0 -50 64 -50 85 0 19 83 98 88 84 2 -4
-13 -22 -32 -40z m124 -134 c0 -14 -4 -25 -10 -25 -5 0 -10 11 -10 25 0 14 5
25 10 25 6 0 10 -11 10 -25z m-35 5 c-3 -5 -13 -10 -21 -10 -8 0 -14 5 -14 10
0 6 9 10 21 10 11 0 17 -4 14 -10z m-218 -162 c11 -13 25 -37 32 -55 l13 -31
20 20 c16 16 22 18 29 7 5 -9 2 -16 -10 -21 -10 -3 -21 -13 -24 -22 -7 -18
-62 -22 -72 -6 -3 6 5 10 19 10 24 0 24 2 13 28 -20 44 -41 72 -54 72 -7 0
-13 5 -13 10 0 18 26 11 47 -12z"/>
<path d="M900 2264 c-19 -20 -52 -49 -74 -65 -30 -23 -35 -30 -22 -35 9 -3 16
-11 16 -17 0 -6 11 -22 24 -36 13 -15 28 -39 34 -56 5 -16 15 -29 21 -27 7 1
11 -5 9 -15 -2 -11 9 -23 33 -34 19 -10 41 -24 48 -33 8 -9 24 -16 37 -16 25
0 44 -26 44 -59 0 -18 6 -21 41 -21 l42 0 -6 38 c-3 20 -9 71 -13 112 -9 97
-26 129 -121 223 l-79 77 -34 -36z m199 -226 c0 -28 -2 -30 -9 -13 -12 28 -12
45 0 45 6 0 10 -15 9 -32z m-129 -10 c0 -5 -10 -6 -22 -2 -31 9 -35 14 -18 24
15 9 40 -4 40 -22z"/>
<path d="M6721 2244 c0 -11 3 -14 6 -6 3 7 2 16 -1 19 -3 4 -6 -2 -5 -13z"/>
<path d="M41 1721 l-41 -49 0 -321 0 -321 65 -32 c36 -18 65 -36 65 -40 0 -14
-19 -9 -70 17 -27 14 -52 25 -55 25 -3 0 -5 -225 -5 -500 0 -395 3 -500 13
-500 6 0 53 48 102 107 360 430 636 746 691 792 l64 53 -79 87 c-44 47 -142
148 -218 224 l-139 138 -24 -27 c-32 -34 -72 -54 -108 -54 -30 0 -122 53 -122
70 0 12 5 10 59 -27 52 -35 94 -31 143 16 l42 39 -153 161 c-123 129 -157 159
-168 150 -18 -16 -29 -3 -14 15 7 9 8 17 2 20 -5 3 -28 -16 -50 -43z m76 -143
c-16 -25 -41 -3 -26 23 8 15 12 17 23 7 10 -9 10 -17 3 -30z m33 -134 c0 -19
-6 -18 -29 5 -13 13 -16 21 -8 24 15 6 37 -12 37 -29z m-77 -125 c-15 -15 -27
-19 -40 -14 -17 8 -17 8 2 13 11 2 24 8 30 13 20 19 28 8 8 -12z"/>
<path d="M7251 1725 c-26 -15 -41 -33 -41 -53 0 -8 5 -10 13 -5 12 7 17 9 48
11 10 1 18 14 21 32 5 33 -3 36 -41 15z"/>
<path d="M7448 1603 c7 -3 16 -2 19 1 4 3 -2 6 -13 5 -11 0 -14 -3 -6 -6z"/>
<path d="M7411 1571 c-9 -9 -36 -22 -59 -29 -35 -11 -47 -11 -60 0 -9 7 -14 9
-10 4 4 -4 2 -19 -3 -33 -9 -23 -8 -25 13 -19 13 4 37 9 53 12 53 10 135 46
135 59 0 20 -50 25 -69 6z"/>
<path d="M7345 1570 c3 -5 8 -10 11 -10 2 0 4 5 4 10 0 6 -5 10 -11 10 -5 0
-7 -4 -4 -10z"/>
<path d="M7305 1560 c3 -5 10 -10 16 -10 5 0 9 5 9 10 0 6 -7 10 -16 10 -8 0
-12 -4 -9 -10z"/>
<path d="M5541 1359 c-42 -17 -52 -29 -40 -50 5 -10 18 -19 29 -19 16 0 60
-47 60 -64 0 -13 64 -98 85 -112 27 -18 38 -63 21 -84 -7 -8 -16 -24 -20 -34
-5 -14 -3 -16 6 -9 7 6 30 16 51 22 20 7 37 19 37 26 0 10 17 17 50 21 44 6
50 10 50 30 0 12 -5 26 -11 30 -8 5 -7 9 4 15 14 8 14 16 -4 77 -10 37 -19 68
-19 69 0 1 -19 -4 -41 -12 -58 -21 -62 -20 -108 25 -22 22 -48 40 -56 40 -8 0
-23 9 -32 20 -19 22 -27 23 -62 9z m246 -221 c-4 -12 -1 -28 5 -35 13 -16 5
-26 -22 -28 -21 -2 -21 4 1 63 11 28 23 29 16 0z m-41 -3 c-19 -15 -46 -20
-46 -10 0 6 40 24 55 24 6 0 1 -6 -9 -14z"/>
<path d="M6045 1118 c-16 -6 -37 -17 -46 -24 -8 -8 -29 -17 -46 -20 -24 -5
-30 -10 -25 -23 5 -13 3 -14 -10 -3 -14 12 -15 9 -6 -25 8 -32 14 -38 39 -40
20 -2 29 2 29 12 0 8 -7 15 -15 15 -8 0 -15 5 -15 11 0 6 10 9 23 7 16 -2 23
-11 25 -30 4 -35 25 -36 107 -4 58 23 60 25 58 57 -4 53 -12 79 -24 79 -8 0
-7 -5 1 -15 16 -19 3 -19 -30 0 -29 17 -26 16 -65 3z"/>
<path d="M5365 1099 c-11 -17 1 -21 15 -4 8 9 8 15 2 15 -6 0 -14 -5 -17 -11z"/>
<path d="M5930 954 c0 -17 22 -14 28 4 2 7 -3 12 -12 12 -9 0 -16 -7 -16 -16z"/>
<path d="M7979 772 c-12 -5 -14 -13 -8 -28 14 -38 29 -38 29 0 0 20 -1 36 -2
35 -2 0 -10 -3 -19 -7z"/>
<path d="M7915 750 c-19 -8 -19 -9 3 -9 12 -1 22 4 22 9 0 6 -1 10 -2 9 -2 0
-12 -4 -23 -9z"/>
<path d="M6086 527 c3 -10 9 -15 12 -12 3 3 0 11 -7 18 -10 9 -11 8 -5 -6z"/>
<path d="M6358 383 c-21 -5 -24 -29 -5 -36 20 -7 37 4 37 24 0 19 -2 20 -32
12z"/>
<path d="M6347 293 c-32 -8 -6 -23 41 -23 l47 0 -29 15 c-15 8 -31 14 -35 14
-3 -1 -14 -3 -24 -6z"/>
<path d="M6465 290 c-4 -6 -3 -16 3 -22 6 -6 12 -6 17 2 4 6 3 16 -3 22 -6 6
-12 6 -17 -2z"/>
<path d="M6423 245 c-10 -10 -9 -16 2 -25 12 -10 16 -9 21 5 9 22 -8 37 -23
20z"/>
<path d="M6352 221 c2 -21 7 -25 28 -23 32 5 35 9 22 25 -7 8 -9 16 -6 19 2 3
-7 6 -21 6 -22 0 -26 -4 -23 -27z"/>
<path d="M6469 215 c-1 -3 -2 -8 -3 -12 -1 -5 -5 -14 -10 -21 -5 -8 -4 -18 3
-25 8 -8 11 -5 11 11 0 15 6 22 19 22 10 0 24 7 31 15 11 13 8 15 -19 15 -17
0 -32 -2 -32 -5z"/>
<path d="M6535 190 c-4 -6 -10 -8 -15 -5 -13 8 1 -69 14 -77 13 -9 24 16 25
54 1 29 -13 45 -24 28z"/>
<path d="M4521 174 c13 -16 39 -19 39 -5 0 5 -11 11 -25 13 -20 4 -23 3 -14
-8z"/>
<path d="M6412 163 c4 -24 24 -27 24 -3 0 11 -6 20 -14 20 -7 0 -12 -8 -10
-17z"/>
<path d="M6484 146 c-3 -9 -12 -12 -22 -8 -15 5 -15 4 -3 -11 20 -25 39 -21
37 8 -1 29 -4 31 -12 11z"/>
<path d="M6429 116 c9 -10 9 -16 1 -21 -6 -4 -14 -4 -17 -1 -4 3 -14 -1 -23
-9 -25 -22 -12 -79 17 -83 59 -9 86 59 43 106 -23 24 -40 31 -21 8z"/>
<path d="M6488 76 c10 -41 52 -50 52 -11 0 14 -3 25 -7 26 -5 0 -17 2 -29 3
-17 2 -20 -2 -16 -18z"/>
<path d="M6477 20 c-4 -16 0 -20 19 -20 29 0 31 15 5 29 -15 9 -20 7 -24 -9z"/>
<path d="M6552 28 c-18 -18 -14 -28 8 -28 11 0 20 6 20 14 0 21 -15 27 -28 14z"/>
<path d="M5478 3 c6 -2 18 -2 25 0 6 3 1 5 -13 5 -14 0 -19 -2 -12 -5z"/>
</g>
</svg>
