<?xml version="1.0" standalone="no"?>
<!DOCTYPE svg PUBLIC "-//W3C//DTD SVG 20010904//EN"
 "http://www.w3.org/TR/2001/REC-SVG-20010904/DTD/svg10.dtd">
<svg version="1.0" xmlns="http://www.w3.org/2000/svg"
 width="800.000000pt" height="800.000000pt" viewBox="0 0 800.000000 800.000000"
 preserveAspectRatio="xMidYMid meet">
<metadata>
Created by potrace 1.16, written by Peter Selinger 2001-2019
</metadata>
<g transform="translate(0.000000,800.000000) scale(0.100000,-0.100000)"
fill="#000000" stroke="none">
<path d="M0 7808 c0 -105 3 -188 7 -185 3 4 12 2 19 -4 10 -8 35 3 101 43 80
48 91 58 116 111 27 55 30 58 122 102 70 34 99 53 114 79 12 18 21 36 21 40 0
3 -112 6 -250 6 l-250 0 0 -192z"/>
<path d="M520 7987 c0 -7 -11 -29 -25 -48 -18 -27 -48 -48 -117 -82 -89 -43
-94 -48 -118 -99 -19 -40 -37 -60 -75 -85 -27 -17 -80 -52 -118 -77 l-67 -46
0 -86 0 -85 33 24 c82 61 136 61 268 -4 l103 -50 94 21 c56 13 107 19 126 16
20 -4 93 -52 185 -121 89 -66 159 -111 167 -108 8 3 14 -1 14 -10 0 -19 110
-80 170 -94 25 -6 84 -15 132 -18 82 -7 91 -10 130 -44 52 -45 81 -58 223
-104 77 -24 131 -35 182 -36 l72 -2 12 43 c6 24 8 66 5 95 -8 66 -55 170 -95
207 -17 17 -31 39 -31 51 0 12 -15 35 -33 53 -37 36 -47 39 -47 17 0 -8 -4
-15 -10 -15 -5 0 -10 9 -10 19 0 11 -15 31 -33 46 -17 15 -40 39 -49 53 -27
43 -254 461 -284 525 l-28 57 -112 0 c-81 0 -114 -4 -117 -12 -4 -10 -8 -10
-15 1 -8 11 -14 7 -28 -20 -9 -19 -19 -29 -21 -22 -2 7 1 21 7 32 11 21 10 21
-240 21 -195 0 -250 -3 -250 -13z"/>
<path d="M1320 7996 c0 -3 15 -34 34 -68 18 -35 71 -133 116 -218 46 -85 90
-164 98 -175 13 -19 14 -18 7 10 -3 17 -8 40 -9 53 -1 12 -25 53 -52 89 -82
112 -138 214 -144 263 -4 37 -9 46 -27 48 -13 2 -23 1 -23 -2z"/>
<path d="M1380 7968 c1 -36 90 -197 90 -163 0 17 7 20 48 20 26 0 55 4 65 9
10 5 17 4 17 -2 0 -15 -57 -35 -85 -30 -47 9 -42 -26 16 -105 29 -40 53 -84
54 -100 1 -15 4 -29 6 -32 10 -9 68 47 78 75 9 28 8 32 -14 42 -14 6 -25 15
-25 20 0 12 24 10 37 -3 7 -7 22 -13 35 -14 13 -1 26 -3 31 -4 4 0 7 -9 7 -19
0 -11 17 -28 42 -42 65 -37 115 -87 134 -136 15 -39 22 -46 63 -58 40 -12 50
-11 76 2 17 8 33 20 37 26 11 16 17 4 24 -47 5 -32 3 -47 -5 -47 -6 0 -11 11
-11 24 0 33 -14 40 -47 23 -23 -12 -35 -12 -70 -2 -40 12 -42 11 -45 -9 -2
-14 -11 1 -27 44 -27 75 -64 118 -138 163 -32 19 -53 39 -53 49 0 32 -19 19
-38 -26 -12 -25 -33 -51 -51 -62 -34 -20 -38 -39 -16 -68 8 -11 15 -28 15 -37
0 -11 21 -30 53 -48 102 -59 148 -110 211 -233 l58 -113 1 -100 c1 -55 7 -103
12 -107 6 -4 41 -8 79 -8 56 0 94 -9 211 -49 106 -37 145 -47 154 -38 8 8 11
7 11 -4 0 -9 30 -24 88 -43 48 -16 101 -34 117 -41 34 -14 118 -40 156 -49 31
-7 129 30 129 49 0 17 -94 140 -197 258 -149 169 -273 315 -273 321 0 21 32
-9 127 -121 59 -70 137 -158 171 -197 35 -38 91 -106 125 -150 33 -45 62 -83
65 -86 2 -3 12 6 23 19 l19 23 -39 28 c-46 34 -96 143 -52 116 5 -3 12 -20 16
-36 4 -17 22 -42 45 -60 l38 -30 21 29 c12 16 21 32 21 35 0 3 -29 26 -65 51
-36 26 -65 53 -65 61 0 8 -6 25 -14 37 -7 12 -21 64 -31 114 -10 51 -21 90
-26 87 -5 -3 -9 2 -9 10 0 15 18 32 25 24 3 -2 14 -51 26 -108 16 -76 30 -116
52 -147 27 -38 105 -103 124 -103 5 0 17 14 27 30 17 30 17 30 -15 71 -17 22
-28 43 -24 47 8 8 55 -47 55 -66 0 -8 15 -3 41 14 23 14 60 34 83 43 53 23
298 274 289 297 -4 11 -1 14 10 12 11 -2 52 36 111 102 75 82 100 118 117 165
12 33 48 120 82 193 58 128 59 134 51 185 l-9 52 -582 3 c-659 3 -615 9 -521
-78 40 -36 53 -59 73 -116 33 -101 34 -116 8 -120 -19 -3 -21 0 -16 34 8 59
-30 145 -82 189 -24 20 -49 49 -56 65 -17 43 -55 39 -63 -7 -10 -51 -30 -58
-21 -6 l7 41 -611 0 -611 0 0 -32z m1500 -318 c0 -5 -5 -10 -11 -10 -5 0 -7 5
-4 10 3 6 8 10 11 10 2 0 4 -4 4 -10z m10 -40 c0 -5 -4 -10 -10 -10 -5 0 -10
5 -10 10 0 6 5 10 10 10 6 0 10 -4 10 -10z m0 -30 c0 -5 -5 -10 -11 -10 -5 0
-7 5 -4 10 3 6 8 10 11 10 2 0 4 -4 4 -10z m-784 -57 c4 -29 3 -43 -5 -43 -6
0 -11 7 -11 15 0 8 -7 15 -15 15 -8 0 -15 5 -15 10 0 6 5 10 10 10 6 0 10 12
10 27 0 40 18 16 26 -34z m774 27 c0 -5 -5 -10 -11 -10 -5 0 -7 5 -4 10 3 6 8
10 11 10 2 0 4 -4 4 -10z m-20 -24 c0 -3 -4 -8 -10 -11 -5 -3 -10 -1 -10 4 0
6 5 11 10 11 6 0 10 -2 10 -4z m-30 -26 c0 -5 -4 -10 -10 -10 -5 0 -10 5 -10
10 0 6 5 10 10 10 6 0 10 -4 10 -10z m-33 -32 c-3 -8 -6 -5 -6 6 -1 11 2 17 5
13 3 -3 4 -12 1 -19z m3 -28 c0 -5 -4 -10 -10 -10 -5 0 -10 5 -10 10 0 6 5 10
10 10 6 0 10 -4 10 -10z m340 -30 c8 -5 12 -12 9 -15 -8 -8 -39 5 -39 16 0 11
11 11 30 -1z m40 -36 c0 -8 -5 -12 -10 -9 -6 4 -8 11 -5 16 9 14 15 11 15 -7z
m-550 -43 c0 -5 -9 -11 -20 -14 -20 -5 -26 3 -13 16 9 10 33 8 33 -2z"/>
<path d="M3885 7948 c4 -29 8 -54 9 -55 3 -4 240 49 341 77 l110 29 -207 1
c-146 0 -207 -3 -210 -11 -3 -9 -10 -9 -27 0 l-23 13 7 -54z"/>
<path d="M4425 7994 c-11 -3 -83 -21 -160 -41 -77 -19 -189 -45 -248 -58 -59
-12 -110 -24 -112 -27 -3 -2 9 -74 25 -159 33 -170 34 -179 21 -179 -5 0 -21
66 -36 148 -15 81 -31 153 -34 160 -7 12 -54 -84 -126 -260 -39 -95 -44 -102
-215 -289 -96 -105 -174 -198 -172 -206 2 -9 -2 -13 -10 -10 -7 2 -36 -17 -64
-44 -29 -26 -64 -51 -78 -55 -14 -3 -26 -13 -26 -21 0 -8 -4 -11 -10 -8 -15 9
-68 -22 -87 -51 -16 -25 -16 -27 0 -39 9 -7 17 -18 17 -26 0 -10 -3 -10 -12
-1 -7 7 -16 12 -20 12 -23 0 1 -22 85 -80 50 -36 108 -82 128 -102 l36 -38 39
19 c22 11 159 42 317 72 242 45 304 53 286 35 -2 -2 -125 -28 -274 -56 -328
-63 -369 -79 -356 -143 4 -18 1 -72 -5 -122 l-13 -90 39 -70 c21 -38 40 -70
42 -70 7 0 257 174 323 225 71 55 239 168 262 177 12 5 77 -56 244 -228 125
-129 230 -231 233 -228 3 3 13 53 22 110 15 98 14 165 -1 217 -5 13 -3 22 4
22 6 0 16 -21 24 -46 11 -38 11 -63 0 -148 -9 -70 -10 -115 -4 -146 5 -25 17
-86 26 -136 9 -50 20 -96 25 -103 6 -10 29 -7 105 13 53 14 123 26 156 26 l59
0 22 45 c12 25 26 45 30 45 12 0 10 -18 -7 -50 -8 -16 -11 -31 -7 -34 6 -4
505 -25 595 -26 4 0 7 -53 7 -117 l0 -118 -144 -87 c-79 -49 -147 -88 -152
-88 -5 0 -54 90 -109 199 l-100 199 -59 3 c-41 3 -60 0 -63 -8 -7 -18 -23 -16
-23 2 0 22 -53 19 -167 -10 -54 -14 -106 -25 -117 -25 -16 0 -18 -5 -13 -34 4
-24 1 -36 -8 -40 -18 -7 -25 3 -25 34 l0 28 -67 -15 c-64 -14 -141 -27 -308
-53 -38 -6 -77 -14 -85 -17 -8 -3 -21 -5 -28 -4 -8 1 -37 -4 -65 -13 -29 -8
-126 -29 -217 -47 -91 -17 -167 -33 -168 -35 -2 -1 26 -76 61 -166 36 -90 71
-191 78 -225 9 -44 18 -63 29 -64 10 0 11 -2 3 -6 -7 -2 -13 -11 -13 -19 0 -9
4 -13 9 -10 4 3 6 -6 3 -19 -2 -14 1 -32 8 -40 6 -8 9 -18 6 -23 -2 -4 -1 -26
4 -48 4 -21 11 -55 14 -76 7 -36 7 -36 49 -31 29 4 39 2 32 -5 -5 -6 -21 -12
-35 -14 -23 -3 -26 -8 -32 -72 -5 -56 -1 -97 23 -214 16 -80 29 -162 29 -183
0 -44 2 -44 108 -54 39 -4 72 -12 72 -17 0 -12 -130 -3 -197 14 -41 10 -59 28
-28 28 21 0 19 39 -10 150 -16 61 -27 138 -31 216 l-7 121 -41 -8 c-23 -4 -58
-15 -78 -23 -43 -18 -48 -19 -48 -7 0 10 102 48 140 53 14 2 24 9 23 15 -1 6
-10 51 -19 99 -39 207 -75 335 -132 472 -32 78 -61 145 -65 148 -10 10 -293
-64 -360 -94 -65 -30 -113 -80 -176 -184 -12 -21 -27 -38 -32 -38 -5 0 -27 11
-49 25 -45 29 -60 31 -60 11 0 -8 -5 -18 -11 -22 -8 -5 -10 1 -7 20 3 14 1 29
-4 32 -14 9 -51 -20 -71 -55 l-18 -30 26 -7 c27 -7 33 -21 11 -26 -11 -2 -10
-19 9 -90 34 -129 26 -121 85 -96 27 11 50 25 50 29 0 5 5 9 11 9 6 0 9 -7 7
-16 -2 -13 -105 -64 -128 -64 -4 0 -17 37 -29 83 -32 120 -42 147 -51 147 -15
0 -101 -149 -122 -210 -27 -80 -20 -103 45 -144 65 -42 123 -104 131 -142 3
-16 2 -44 -4 -63 -9 -32 -7 -37 40 -91 34 -39 50 -67 50 -85 0 -18 39 -88 112
-201 130 -201 120 -195 271 -174 128 18 257 14 310 -10 23 -11 53 -20 66 -20
l23 0 -5 268 c-4 241 -7 272 -26 320 -21 53 -28 94 -13 76 5 -5 19 -34 31 -64
21 -50 24 -77 31 -314 4 -143 5 -267 3 -276 -4 -14 12 -19 104 -34 186 -28
286 -38 335 -34 26 3 49 2 50 -2 4 -10 204 -26 493 -41 l230 -12 77 36 c42 20
143 74 225 119 81 45 176 97 211 116 37 20 68 44 75 60 22 44 21 115 -2 161
-22 42 -29 141 -11 141 6 0 10 -15 10 -34 0 -19 10 -56 21 -83 15 -34 21 -65
19 -108 -1 -33 -2 -70 -2 -82 0 -13 -6 -23 -14 -23 -8 0 -17 -7 -20 -15 -4 -8
-11 -15 -17 -15 -6 0 -83 -40 -171 -89 -89 -49 -192 -105 -231 -125 -94 -49
-101 -54 -78 -72 16 -12 16 -13 1 -14 -9 0 -29 -16 -44 -35 -54 -72 -68 -75
-259 -65 -256 14 -394 34 -374 54 3 3 44 -1 92 -9 49 -8 159 -17 246 -19 87
-3 166 -8 175 -12 18 -7 82 30 96 56 23 43 18 45 -158 47 -92 1 -252 9 -357
17 -104 9 -244 21 -310 26 -66 5 -172 17 -235 27 -63 9 -131 17 -150 18 l-35
0 -17 -105 c-9 -58 -17 -119 -17 -135 l-1 -31 232 -37 c146 -23 234 -33 236
-27 5 14 23 13 19 -2 -1 -7 66 -23 198 -45 196 -32 202 -33 287 -19 52 9 116
28 159 48 l71 33 -28 11 c-16 6 -81 14 -144 18 -63 3 -206 20 -318 38 -176 28
-205 30 -214 18 -8 -13 -9 -13 -5 1 4 13 -20 19 -154 40 -88 13 -165 27 -172
31 -29 18 10 16 158 -8 87 -14 164 -23 171 -20 7 3 14 2 16 -3 4 -11 406 -70
523 -77 55 -3 123 -12 150 -18 l50 -13 110 53 c61 29 116 53 123 53 28 2 122
66 117 80 -4 9 0 11 11 7 18 -7 53 15 135 85 31 27 96 70 145 96 104 57 166
98 159 105 -9 9 20 161 31 165 10 3 2 -97 -12 -139 -9 -29 7 -21 88 45 72 59
86 65 195 97 65 18 122 36 126 40 5 4 15 234 23 511 8 277 17 568 20 647 l6
143 62 77 c78 98 131 149 177 173 21 10 45 29 54 41 15 22 57 151 110 334 l25
91 -37 99 c-42 112 -48 196 -20 249 29 52 24 57 -40 49 -32 -3 -60 -8 -61 -10
-2 -1 13 -11 34 -22 20 -10 33 -22 28 -25 -11 -7 -264 103 -264 114 0 15 16
10 96 -26 42 -19 80 -35 85 -35 4 0 18 10 29 23 18 18 20 29 15 67 -6 37 -4
43 7 32 7 -7 13 -33 13 -58 0 -24 1 -44 3 -44 20 0 78 102 68 119 -3 5 12 16
34 26 22 10 40 25 40 33 0 8 6 12 14 9 8 -3 19 0 25 7 9 10 6 12 -14 8 -15 -2
-25 0 -25 7 0 6 9 11 20 11 16 0 20 7 20 34 0 19 -4 37 -9 41 -12 7 -51 -33
-51 -52 0 -7 -4 -13 -10 -13 -5 0 -10 7 -10 15 0 9 -10 15 -26 15 -21 0 -24 4
-19 20 8 24 4 24 -98 9 -66 -10 -81 -9 -145 10 -40 12 -72 26 -72 31 0 12 -6
13 70 -10 51 -16 80 -19 133 -14 62 6 67 8 67 30 0 13 5 24 11 24 6 0 9 7 5
15 -3 8 3 19 12 25 13 7 9 8 -15 4 -36 -7 -47 10 -12 19 18 5 19 10 13 44 -4
21 -13 42 -20 46 -25 14 -15 27 11 15 14 -6 25 -19 25 -30 0 -10 7 -18 15 -18
18 0 20 -17 3 -22 -6 -2 -9 -12 -5 -21 4 -12 18 -17 47 -17 l40 0 0 45 c0 32
4 45 14 45 9 0 12 -7 9 -20 -7 -25 20 -36 52 -22 14 6 26 23 30 41 4 17 11 31
16 31 12 0 11 -11 -6 -61 -17 -48 -14 -69 10 -69 10 0 13 -5 9 -12 -4 -7 -3
-8 4 -4 7 4 12 22 12 39 0 18 5 39 10 47 7 11 10 7 10 -17 0 -18 5 -33 11 -33
8 0 8 -4 1 -13 -6 -7 -9 -23 -5 -35 4 -18 13 -22 42 -22 34 0 36 2 35 32 -1
30 -4 33 -30 30 -25 -2 -27 -1 -13 10 9 7 19 23 23 36 8 25 26 30 26 7 0 -9 6
-12 17 -8 12 5 15 2 10 -10 -4 -11 -2 -14 9 -10 22 8 17 -20 -6 -35 -20 -12
-20 -12 1 -33 15 -15 24 -18 32 -10 17 17 24 13 29 -14 3 -14 1 -25 -3 -25
-18 0 -8 -16 20 -33 34 -20 63 -22 60 -4 -4 34 0 41 19 25 29 -24 76 -41 80
-28 3 8 9 7 20 -2 13 -11 14 -10 9 14 -7 25 -4 27 44 37 61 13 69 14 69 2 0
-6 -20 -13 -45 -17 -35 -5 -45 -10 -45 -25 0 -12 7 -19 19 -19 29 0 33 -28 9
-60 -17 -23 -25 -27 -39 -20 -24 14 -29 13 -29 -6 0 -9 -6 -14 -12 -11 -7 2
-12 10 -10 16 1 6 -8 11 -21 11 -13 0 -33 9 -45 20 l-22 21 0 -26 c0 -14 -4
-25 -10 -25 -5 0 -10 14 -10 31 0 35 -23 36 -28 2 -4 -26 -78 -108 -86 -95 -8
14 -46 3 -46 -14 0 -7 5 -16 10 -19 15 -9 2 -25 -15 -18 -10 3 -15 -1 -15 -12
0 -9 -4 -14 -9 -11 -5 4 -11 2 -13 -4 -1 -5 -21 -11 -43 -14 l-40 -5 -2 49 -2
50 38 6 c33 5 37 9 33 30 -2 14 0 24 7 24 6 0 11 -9 11 -20 0 -15 7 -20 29
-20 50 0 81 18 96 55 20 47 19 65 -5 65 -11 0 -20 -7 -20 -15 0 -8 -5 -15 -10
-15 -6 0 -8 -11 -4 -25 4 -15 2 -25 -4 -25 -6 0 -13 14 -17 30 -5 22 -12 30
-28 30 -32 0 -49 -14 -41 -33 8 -22 -14 -22 -36 -2 -16 14 -22 14 -59 -1 -34
-13 -41 -21 -41 -44 0 -18 7 -30 23 -38 19 -9 20 -11 3 -11 -10 -1 -27 8 -37
20 -18 21 -18 21 -38 -20 -25 -48 -26 -61 -7 -61 8 0 18 -5 22 -11 4 -7 -1
-10 -12 -7 -14 2 -29 -19 -67 -96 -56 -113 -56 -108 -2 -268 l37 -107 -58
-197 c-64 -214 -79 -247 -125 -272 -17 -9 -46 -28 -64 -43 -45 -35 -175 -189
-180 -214 -4 -21 -24 -635 -34 -1050 l-6 -250 -133 -40 c-117 -35 -140 -46
-195 -90 -81 -66 -171 -126 -282 -188 -49 -27 -115 -71 -145 -97 -64 -55 -214
-154 -250 -165 -14 -4 -113 -49 -220 -101 -168 -81 -209 -97 -287 -110 -90
-15 -93 -15 -279 15 -104 16 -202 32 -219 35 -16 2 -128 20 -248 40 -246 41
-247 41 -247 24 -1 -7 -7 -26 -16 -43 l-14 -30 5 47 4 47 -47 6 c-26 3 -55 8
-64 10 -10 2 -18 -1 -18 -7 0 -5 -10 -2 -22 6 -12 9 -35 16 -50 16 -24 0 -28
-4 -28 -30 0 -58 -17 -29 -26 43 -8 64 -12 72 -31 75 -28 4 -31 22 -4 22 17 0
18 4 9 40 -7 27 -7 49 1 71 16 46 14 53 -16 66 -23 10 -40 10 -88 -2 -33 -8
-74 -14 -92 -15 -17 0 -33 -5 -35 -11 -4 -11 -179 -51 -188 -43 -9 10 24 22
96 34 41 7 74 16 74 20 0 4 -39 12 -86 17 -77 10 -89 14 -122 45 -21 19 -69
58 -108 86 l-71 52 -170 0 c-246 0 -442 38 -568 110 -65 37 -89 37 -197 1
-112 -38 -115 -40 -241 -139 l-109 -85 -121 27 c-197 42 -324 59 -446 60 -82
1 -115 5 -118 14 -4 9 20 12 97 12 118 0 258 -19 449 -61 l133 -29 107 84
c125 97 128 100 239 137 113 38 149 37 225 -5 65 -35 135 -60 202 -71 22 -3
49 -9 60 -12 19 -5 19 -4 -2 19 -13 13 -32 51 -43 83 -11 32 -30 70 -43 84
-20 22 -273 150 -719 362 -179 85 -190 89 -255 89 -37 0 -160 -16 -273 -35
-113 -19 -223 -35 -245 -35 -22 0 -50 -3 -61 -6 -21 -6 -21 -6 2 -29 30 -30
30 -47 -1 -133 -31 -87 -31 -98 2 -162 23 -45 27 -66 32 -178 8 -170 3 -284
-12 -279 -9 3 -12 59 -12 198 0 191 0 195 -27 253 -33 70 -34 85 -8 161 11 32
20 73 20 90 0 30 -5 34 -62 60 -52 23 -99 32 -272 51 -159 18 -218 29 -243 44
l-33 19 0 -2524 0 -2525 4000 0 4000 0 0 3599 c0 2692 -3 3600 -11 3603 -9 3
-9 9 0 25 8 15 11 135 11 397 l0 376 -220 0 -220 0 -20 -40 c-11 -21 -20 -49
-20 -61 0 -29 45 -88 76 -99 21 -8 34 -30 19 -30 -18 0 -64 33 -87 64 -33 42
-35 73 -8 126 l20 40 -129 0 c-94 0 -131 -3 -135 -12 -5 -10 -7 -10 -12 0 -4
9 -89 12 -373 12 l-368 0 -90 -117 c-113 -149 -109 -141 -87 -158 15 -12 16
-16 6 -23 -17 -11 -6 -57 21 -94 15 -20 24 -25 33 -17 9 7 12 1 11 -26 -1 -19
-3 -35 -6 -35 -13 1 -74 95 -83 129 -9 31 -12 33 -18 16 -10 -26 -50 -63 -50
-46 0 7 9 25 21 39 l21 27 -54 7 c-29 3 -297 7 -596 7 -635 1 -577 -9 -692
126 -54 64 -76 83 -82 73 -6 -9 -7 -5 -3 10 6 20 0 26 -52 50 -55 25 -67 27
-218 29 -88 1 -169 -1 -180 -3z m2855 -74 c0 -5 -4 -10 -10 -10 -5 0 -10 5
-10 10 0 6 5 10 10 10 6 0 10 -4 10 -10z m-450 -30 c0 -5 -4 -10 -10 -10 -5 0
-10 5 -10 10 0 6 5 10 10 10 6 0 10 -4 10 -10z m470 0 c0 -5 -4 -10 -10 -10
-5 0 -10 5 -10 10 0 6 5 10 10 10 6 0 10 -4 10 -10z m-477 -34 c4 -10 1 -13
-8 -9 -8 3 -12 9 -9 14 7 12 11 11 17 -5z m1157 -6 c0 -5 -2 -10 -4 -10 -3 0
-8 5 -11 10 -3 6 -1 10 4 10 6 0 11 -4 11 -10z m-30 -10 c0 -5 -5 -10 -11 -10
-5 0 -7 5 -4 10 3 6 8 10 11 10 2 0 4 -4 4 -10z m-30 -20 c0 -5 -5 -10 -11
-10 -5 0 -7 5 -4 10 3 6 8 10 11 10 2 0 4 -4 4 -10z m-1306 -30 c31 -24 50
-30 88 -30 26 0 48 -4 48 -10 0 -5 -9 -10 -20 -10 -11 0 -20 -4 -20 -10 0 -5
4 -10 9 -10 5 0 11 -9 14 -20 3 -11 1 -20 -5 -20 -5 0 -12 9 -15 19 -5 20 -52
35 -67 21 -4 -5 -25 -6 -45 -4 -25 3 -30 2 -17 -4 13 -6 -5 -8 -52 -7 -39 1
-75 4 -78 8 -12 11 45 27 99 27 74 0 87 12 43 39 -20 13 -36 27 -36 32 0 15
13 10 54 -21z m786 10 c0 -5 -4 -10 -10 -10 -5 0 -10 5 -10 10 0 6 5 10 10 10
6 0 10 -4 10 -10z m500 -10 c0 -5 -4 -10 -10 -10 -5 0 -10 5 -10 10 0 6 5 10
10 10 6 0 10 -4 10 -10z m-475 -10 c3 -5 1 -10 -4 -10 -6 0 -11 5 -11 10 0 6
2 10 4 10 3 0 8 -4 11 -10z m55 -50 c0 -5 -2 -10 -4 -10 -3 0 -8 5 -11 10 -3
6 -1 10 4 10 6 0 11 -4 11 -10z m30 -20 c0 -5 -4 -10 -10 -10 -5 0 -10 5 -10
10 0 6 5 10 10 10 6 0 10 -4 10 -10z m330 0 c0 -5 -4 -10 -10 -10 -5 0 -10 5
-10 10 0 6 5 10 10 10 6 0 10 -4 10 -10z m-730 -18 c0 -13 -71 -102 -81 -102
-15 0 -10 12 24 62 29 42 57 62 57 40z m425 -2 c3 -5 1 -10 -4 -10 -6 0 -11 5
-11 10 0 6 2 10 4 10 3 0 8 -4 11 -10z m-1055 -4 c0 -2 -7 -9 -15 -16 -12 -10
-15 -10 -15 4 0 9 7 16 15 16 8 0 15 -2 15 -4z m1340 0 c0 -3 -4 -8 -10 -11
-5 -3 -10 -1 -10 4 0 6 5 11 10 11 6 0 10 -2 10 -4z m-260 -26 c0 -5 -2 -10
-4 -10 -3 0 -8 5 -11 10 -3 6 -1 10 4 10 6 0 11 -4 11 -10z m-810 -10 c0 -5 6
-10 14 -10 17 0 41 -28 32 -37 -3 -3 -15 2 -26 12 -11 10 -20 14 -20 9 0 -11
-20 17 -20 29 0 4 5 7 10 7 6 0 10 -4 10 -10z m1060 0 c0 -5 -5 -10 -11 -10
-5 0 -7 5 -4 10 3 6 8 10 11 10 2 0 4 -4 4 -10z m-1360 -7 c0 -14 -19 -38 -25
-32 -8 8 5 39 16 39 5 0 9 -3 9 -7z m1140 -3 c0 -5 -4 -10 -10 -10 -5 0 -10 5
-10 10 0 6 5 10 10 10 6 0 10 -4 10 -10z m25 -20 c3 -5 1 -10 -4 -10 -6 0 -11
5 -11 10 0 6 2 10 4 10 3 0 8 -4 11 -10z m205 -4 c0 -3 -4 -8 -10 -11 -5 -3
-10 -1 -10 4 0 6 5 11 10 11 6 0 10 -2 10 -4z m-180 -16 c0 -5 -5 -10 -11 -10
-5 0 -7 5 -4 10 3 6 8 10 11 10 2 0 4 -4 4 -10z m180 -20 c0 -5 -4 -10 -10
-10 -5 0 -10 5 -10 10 0 6 5 10 10 10 6 0 10 -4 10 -10z m-150 -10 c0 -5 -2
-10 -4 -10 -3 0 -8 5 -11 10 -3 6 -1 10 4 10 6 0 11 -4 11 -10z m-740 -10 c0
-5 -5 -10 -11 -10 -5 0 -7 5 -4 10 3 6 8 10 11 10 2 0 4 -4 4 -10z m55 -20
c-20 -22 -31 -20 -22 5 4 8 14 15 23 15 16 0 16 -2 -1 -20z m715 10 c0 -5 -4
-10 -10 -10 -5 0 -10 5 -10 10 0 6 5 10 10 10 6 0 10 -4 10 -10z m-632 -49 c3
-8 -1 -12 -9 -9 -7 2 -15 10 -17 17 -3 8 1 12 9 9 7 -2 15 -10 17 -17z m682 9
c0 -5 -5 -10 -11 -10 -5 0 -7 5 -4 10 3 6 8 10 11 10 2 0 4 -4 4 -10z m60 0
c0 -5 -4 -10 -10 -10 -5 0 -10 5 -10 10 0 6 5 10 10 10 6 0 10 -4 10 -10z
m-20 -30 c8 -5 11 -12 8 -16 -4 -3 -14 1 -23 10 -18 17 -9 21 15 6z m-1070
-10 c0 -5 -5 -10 -11 -10 -5 0 -7 5 -4 10 3 6 8 10 11 10 2 0 4 -4 4 -10z m70
0 c0 -5 -4 -10 -10 -10 -5 0 -10 5 -10 10 0 6 5 10 10 10 6 0 10 -4 10 -10z
m-100 -10 c0 -5 -4 -10 -10 -10 -5 0 -10 5 -10 10 0 6 5 10 10 10 6 0 10 -4
10 -10z m140 6 c0 -3 -4 -8 -10 -11 -5 -3 -10 -1 -10 4 0 6 5 11 10 11 6 0 10
-2 10 -4z m30 -16 c0 -5 -5 -10 -11 -10 -5 0 -7 5 -4 10 3 6 8 10 11 10 2 0 4
-4 4 -10z m-265 -30 c3 -5 1 -10 -4 -10 -6 0 -11 5 -11 10 0 6 2 10 4 10 3 0
8 -4 11 -10z m-2185 -20 c0 -5 -4 -10 -10 -10 -5 0 -10 5 -10 10 0 6 5 10 10
10 6 0 10 -4 10 -10z m1160 0 c0 -5 -16 -10 -35 -10 -19 0 -35 5 -35 10 0 6
16 10 35 10 19 0 35 -4 35 -10z m70 -55 c0 -8 -4 -17 -10 -20 -6 -4 -10 5 -10
20 0 15 4 24 10 20 6 -3 10 -12 10 -20z m1320 5 c0 -5 -4 -10 -10 -10 -5 0
-10 5 -10 10 0 6 5 10 10 10 6 0 10 -4 10 -10z m-2170 -8 c0 -7 -63 -42 -75
-42 -3 0 -5 4 -5 10 0 5 15 16 33 24 39 17 47 19 47 8z m2344 -14 c9 -35 7
-68 -4 -68 -5 0 -10 16 -10 35 0 19 -2 35 -4 35 -2 0 -22 -7 -46 -15 -29 -10
-40 -11 -38 -3 4 11 60 36 84 37 7 1 14 -9 18 -21z m159 -83 c3 -16 0 -24 -7
-22 -14 4 -21 47 -8 47 5 0 12 -11 15 -25z m-2035 -20 l53 -24 -34 -68 c-34
-68 -87 -298 -87 -378 0 -19 -4 -37 -10 -40 -5 -3 -10 -1 -10 4 0 7 -23 11
-55 11 -30 0 -55 5 -55 10 0 6 25 10 55 10 54 0 55 0 55 30 0 60 58 307 84
359 l27 52 -51 22 c-27 11 -50 25 -50 29 0 14 23 9 78 -17z m1252 -23 c0 -4
-5 -13 -11 -19 -8 -8 -3 -13 20 -18 35 -8 37 -11 16 -31 -14 -14 -19 -11 -16
9 2 13 -56 7 -69 -8 -15 -18 -33 -20 -27 -2 2 6 -5 22 -16 34 -24 27 -15 43
11 20 24 -22 35 -21 57 3 19 21 35 26 35 12z m790 -21 c0 -11 -4 -22 -9 -25
-5 -3 -8 6 -8 19 0 14 3 25 8 25 5 0 9 -9 9 -19z m-2710 -25 c0 -3 -4 -8 -10
-11 -5 -3 -10 -1 -10 4 0 6 5 11 10 11 6 0 10 -2 10 -4z m1680 -5 c0 -5 3 -18
7 -28 6 -16 5 -16 -10 -4 -19 15 -23 41 -7 41 6 0 10 -4 10 -9z m340 -1 c0 -5
-9 -10 -20 -10 -11 0 -20 5 -20 10 0 6 9 10 20 10 11 0 20 -4 20 -10z m-2060
-4 c0 -3 -4 -8 -10 -11 -5 -3 -10 -1 -10 4 0 6 5 11 10 11 6 0 10 -2 10 -4z
m3260 -6 c0 -5 -4 -10 -10 -10 -5 0 -10 5 -10 10 0 6 5 10 10 10 6 0 10 -4 10
-10z m-692 -29 c-7 -12 -16 -21 -21 -21 -14 0 -3 35 13 41 21 9 23 4 8 -20z
m82 25 c0 -3 -4 -8 -10 -11 -5 -3 -10 -1 -10 4 0 6 5 11 10 11 6 0 10 -2 10
-4z m-2600 -16 c0 -5 -2 -10 -4 -10 -3 0 -8 5 -11 10 -3 6 -1 10 4 10 6 0 11
-4 11 -10z m1800 1 c0 -8 -74 -31 -99 -31 -28 0 -6 18 32 27 56 14 67 15 67 4z
m1340 -1 c0 -5 -4 -10 -10 -10 -5 0 -10 5 -10 10 0 6 5 10 10 10 6 0 10 -4 10
-10z m100 0 c0 -5 -4 -10 -10 -10 -5 0 -10 5 -10 10 0 6 5 10 10 10 6 0 10 -4
10 -10z m-620 -21 c0 -6 -4 -7 -10 -4 -5 3 -10 11 -10 16 0 6 5 7 10 4 6 -3
10 -11 10 -16z m490 17 c0 -3 -4 -8 -10 -11 -5 -3 -10 -1 -10 4 0 6 5 11 10
11 6 0 10 -2 10 -4z m-2810 -21 c0 -8 -4 -15 -10 -15 -5 0 -10 7 -10 15 0 8 5
15 10 15 6 0 10 -7 10 -15z m1650 11 c0 -3 -4 -8 -10 -11 -5 -3 -10 -1 -10 4
0 6 5 11 10 11 6 0 10 -2 10 -4z m700 -6 c0 -5 -4 -10 -10 -10 -5 0 -10 5 -10
10 0 6 5 10 10 10 6 0 10 -4 10 -10z m108 -25 c28 -20 52 -40 52 -45 0 -15 -6
-13 -60 26 -35 25 -56 34 -70 29 -21 -7 -28 10 -7 18 23 10 32 7 85 -28z m312
25 c0 -5 -2 -10 -4 -10 -3 0 -8 5 -11 10 -3 6 -1 10 4 10 6 0 11 -4 11 -10z
m-2820 -10 c0 -5 -7 -10 -16 -10 -8 0 -12 5 -9 10 3 6 10 10 16 10 5 0 9 -4 9
-10z m777 4 c-3 -3 -12 -4 -19 -1 -8 3 -5 6 6 6 11 1 17 -2 13 -5z m143 -4 c0
-5 -4 -10 -10 -10 -5 0 -10 5 -10 10 0 6 5 10 10 10 6 0 10 -4 10 -10z m1870
0 c0 -5 -4 -10 -10 -10 -5 0 -10 5 -10 10 0 6 5 10 10 10 6 0 10 -4 10 -10z
m-2836 -9 c6 -9 -35 -24 -43 -15 -6 5 18 24 31 24 4 0 9 -4 12 -9z m856 -1 c0
-5 -2 -10 -4 -10 -3 0 -8 5 -11 10 -3 6 -1 10 4 10 6 0 11 -4 11 -10z m1260
-10 c0 -5 -5 -10 -11 -10 -5 0 -7 5 -4 10 3 6 8 10 11 10 2 0 4 -4 4 -10z
m170 6 c0 -3 -4 -8 -10 -11 -5 -3 -10 -1 -10 4 0 6 5 11 10 11 6 0 10 -2 10
-4z m525 -6 c3 -5 1 -10 -4 -10 -6 0 -11 5 -11 10 0 6 2 10 4 10 3 0 8 -4 11
-10z m-25 -30 c0 -5 -4 -10 -10 -10 -5 0 -10 5 -10 10 0 6 5 10 10 10 6 0 10
-4 10 -10z m-559 -10 c5 0 9 -9 9 -20 0 -24 -8 -25 -32 -3 -22 20 -24 37 -2
29 9 -3 20 -6 25 -6z m-291 -24 c0 -3 -4 -8 -10 -11 -5 -3 -10 -1 -10 4 0 6 5
11 10 11 6 0 10 -2 10 -4z m299 -57 c-19 -12 -24 -2 -8 17 9 11 14 13 17 4 3
-7 -2 -16 -9 -21z m-1347 -11 c-7 -7 -12 -8 -12 -2 0 14 12 26 19 19 2 -3 -1
-11 -7 -17z m2121 -28 c-14 -13 -63 -21 -63 -10 0 5 11 12 24 16 13 3 27 15
31 27 7 22 8 22 12 -2 3 -13 1 -27 -4 -31z m-779 -29 c5 -29 4 -32 -9 -21 -8
7 -15 26 -15 43 0 38 15 25 24 -22z m-1354 35 c0 -3 -4 -8 -10 -11 -5 -3 -10
-1 -10 4 0 6 5 11 10 11 6 0 10 -2 10 -4z m1080 -43 c0 -7 -4 -13 -10 -13 -5
0 -10 12 -10 28 0 21 2 24 10 12 5 -8 10 -21 10 -27z m720 27 c0 -5 -2 -10 -4
-10 -3 0 -8 5 -11 10 -3 6 -1 10 4 10 6 0 11 -4 11 -10z m-1820 -14 c0 -3 -4
-8 -10 -11 -5 -3 -10 -1 -10 4 0 6 5 11 10 11 6 0 10 -2 10 -4z m1810 -10 c0
-3 -4 -8 -10 -11 -5 -3 -10 -1 -10 4 0 6 5 11 10 11 6 0 10 -2 10 -4z m-3750
-16 c0 -5 -17 -12 -37 -15 -21 -3 -48 -8 -60 -11 -13 -2 -23 0 -23 5 0 6 17
13 38 16 20 4 44 8 52 10 28 5 30 5 30 -5z m1915 0 c3 -5 1 -10 -4 -10 -6 0
-11 5 -11 10 0 6 2 10 4 10 3 0 8 -4 11 -10z m-30 -20 c3 -5 1 -10 -4 -10 -6
0 -11 5 -11 10 0 6 2 10 4 10 3 0 8 -4 11 -10z m1855 0 c0 -5 -4 -10 -10 -10
-5 0 -10 5 -10 10 0 6 5 10 10 10 6 0 10 -4 10 -10z m-1890 -10 c0 -5 -5 -10
-11 -10 -5 0 -7 5 -4 10 3 6 8 10 11 10 2 0 4 -4 4 -10z m1175 0 c-3 -5 -13
-10 -21 -10 -8 0 -14 5 -14 10 0 6 9 10 21 10 11 0 17 -4 14 -10z m-1329 -26
c-9 -9 -20 -14 -23 -10 -4 3 2 13 13 20 25 18 31 12 10 -10z m49 16 c-3 -5
-11 -10 -16 -10 -6 0 -7 5 -4 10 3 6 11 10 16 10 6 0 7 -4 4 -10z m35 6 c0 -3
-4 -8 -10 -11 -5 -3 -10 -1 -10 4 0 6 5 11 10 11 6 0 10 -2 10 -4z m1190 0 c0
-2 -3 -11 -6 -20 -9 -23 -24 -20 -24 4 0 11 7 20 15 20 8 0 15 -2 15 -4z m570
-26 c0 -5 -11 -10 -25 -10 -14 0 -25 5 -25 10 0 6 11 10 25 10 14 0 25 -4 25
-10z m-2250 -20 c0 -5 -4 -10 -10 -10 -5 0 -7 -7 -4 -15 4 -8 1 -15 -5 -15 -6
0 -11 4 -11 9 0 5 -3 16 -6 25 -4 12 0 16 15 16 12 0 21 -4 21 -10z m2430 -30
c0 -5 -4 -10 -10 -10 -5 0 -10 5 -10 10 0 6 5 10 10 10 6 0 10 -4 10 -10z
m-2215 -20 c3 -5 1 -10 -4 -10 -6 0 -11 5 -11 10 0 6 2 10 4 10 3 0 8 -4 11
-10z m179 -11 c-3 -5 -10 -7 -15 -3 -5 3 -7 10 -3 15 3 5 10 7 15 3 5 -3 7
-10 3 -15z m-394 7 c0 -3 -4 -8 -10 -11 -5 -3 -10 -1 -10 4 0 6 5 11 10 11 6
0 10 -2 10 -4z m360 0 c0 -3 -4 -8 -10 -11 -5 -3 -10 -1 -10 4 0 6 5 11 10 11
6 0 10 -2 10 -4z m-700 -16 c0 -5 -13 -10 -30 -10 -16 0 -30 5 -30 10 0 6 14
10 30 10 17 0 30 -4 30 -10z m2770 6 c0 -3 -4 -8 -10 -11 -5 -3 -10 -1 -10 4
0 6 5 11 10 11 6 0 10 -2 10 -4z m-2260 -30 c0 -3 -4 -8 -10 -11 -5 -3 -10 -1
-10 4 0 6 5 11 10 11 6 0 10 -2 10 -4z m-10 -36 c0 -5 -5 -10 -11 -10 -5 0 -7
5 -4 10 3 6 8 10 11 10 2 0 4 -4 4 -10z m0 -34 c0 -3 -4 -8 -10 -11 -5 -3 -10
-1 -10 4 0 6 5 11 10 11 6 0 10 -2 10 -4z m-10 -36 c0 -5 -4 -10 -10 -10 -5 0
-10 5 -10 10 0 6 5 10 10 10 6 0 10 -4 10 -10z m-385 -81 c11 -16 44 -9 50 11
5 16 15 20 50 20 26 0 50 6 59 16 9 8 20 12 26 9 20 -12 -20 -36 -70 -42 -40
-5 -50 -10 -50 -24 0 -15 -7 -19 -33 -19 -25 0 -42 9 -71 39 -33 33 -44 39
-67 34 -17 -3 -29 -1 -29 5 0 24 55 17 92 -11 21 -16 40 -33 43 -38z m225 51
c0 -5 -5 -10 -11 -10 -5 0 -7 5 -4 10 3 6 8 10 11 10 2 0 4 -4 4 -10z m35 0
c3 -5 1 -10 -4 -10 -6 0 -11 5 -11 10 0 6 2 10 4 10 3 0 8 -4 11 -10z m75 -10
c0 -5 -4 -10 -10 -10 -5 0 -10 5 -10 10 0 6 5 10 10 10 6 0 10 -4 10 -10z m50
0 c0 -5 -9 -10 -21 -10 -11 0 -17 5 -14 10 3 6 13 10 21 10 8 0 14 -4 14 -10z
m-484 -97 c-11 -11 -17 4 -9 23 7 18 8 18 11 1 2 -10 1 -21 -2 -24z m284 -3
c0 -5 -7 -10 -15 -10 -8 0 -15 5 -15 10 0 6 7 10 15 10 8 0 15 -4 15 -10z
m-294 -68 c-12 -11 -18 7 -10 30 l8 23 4 -23 c2 -13 1 -26 -2 -30z m834 -42
c0 -5 -9 -10 -20 -10 -27 0 -26 -29 2 -39 14 -5 17 -10 10 -15 -20 -12 -13
-34 13 -40 14 -4 25 -11 25 -16 0 -6 -11 -8 -25 -4 -15 4 -32 1 -40 -6 -19
-16 -33 -4 -17 12 14 14 16 28 4 28 -13 0 -32 -47 -32 -80 0 -16 -4 -32 -10
-35 -21 -13 -9 71 16 114 20 37 23 49 15 73 -10 27 -9 28 25 28 18 0 34 -4 34
-10z m30 -50 c0 -5 -5 -10 -11 -10 -5 0 -7 5 -4 10 3 6 8 10 11 10 2 0 4 -4 4
-10z m-140 -150 c0 -11 -4 -20 -10 -20 -5 0 -10 9 -10 20 0 11 5 20 10 20 6 0
10 -9 10 -20z m-730 0 c0 -5 -13 -10 -30 -10 -16 0 -30 5 -30 10 0 6 14 10 30
10 17 0 30 -4 30 -10z m730 -59 c0 -11 -4 -23 -10 -26 -6 -4 -10 5 -10 19 0
14 5 26 10 26 6 0 10 -9 10 -19z m690 -101 c0 -5 -4 -10 -10 -10 -5 0 -10 5
-10 10 0 6 5 10 10 10 6 0 10 -4 10 -10z m57 -70 c0 -35 -3 -40 -22 -40 -25 0
-49 -22 -37 -35 4 -4 -8 0 -26 9 -23 12 -37 14 -46 7 -8 -7 -25 -6 -54 1 -40
10 -58 28 -28 28 8 0 17 8 19 18 4 15 6 15 12 -3 5 -17 13 -20 41 -17 24 3 34
9 33 21 0 10 -2 11 -6 4 -8 -22 -24 -14 -21 10 2 13 -2 21 -9 20 -7 -2 -13 2
-13 7 0 15 21 12 43 -7 18 -17 19 -17 28 0 15 25 27 21 21 -8 -2 -14 -8 -25
-13 -25 -5 0 -9 -7 -9 -15 0 -25 20 -17 33 13 7 16 18 27 25 25 7 -3 12 4 12
17 0 12 4 19 9 16 4 -3 8 -24 8 -46z m63 25 c0 -8 -4 -15 -10 -15 -5 0 -10 7
-10 15 0 8 5 15 10 15 6 0 10 -7 10 -15z m60 -95 c0 -5 -7 -10 -15 -10 -8 0
-15 5 -15 10 0 6 7 10 15 10 8 0 15 -4 15 -10z m-280 -14 c0 -17 -14 -29 -23
-20 -8 8 3 34 14 34 5 0 9 -6 9 -14z m-52 -63 c-15 -15 -31 -24 -34 -20 -10
10 26 47 45 47 11 0 8 -7 -11 -27z m-1536 -2 c11 -11 18 -25 15 -33 -2 -7 14
-32 36 -55 l41 -43 -40 -34 -39 -34 -36 34 c-19 19 -38 32 -41 29 -3 -3 -8 3
-11 14 -3 14 3 25 22 38 l26 17 -25 7 c-42 12 -50 10 -50 -13 -1 -22 -1 -22
-15 -4 -17 23 -45 14 -45 -14 0 -11 -4 -20 -10 -20 -5 0 -10 7 -10 15 0 8 -4
15 -10 15 -5 0 -10 7 -10 15 0 9 6 15 13 14 24 -4 72 14 97 36 14 13 34 25 45
28 11 3 21 5 23 6 2 0 12 -8 24 -18z m-182 -17 c0 -18 -8 -18 -26 0 -19 20
-18 25 6 19 11 -3 20 -12 20 -19z m-300 -29 c0 -14 -4 -25 -10 -25 -5 0 -10
11 -10 25 0 14 5 25 10 25 6 0 10 -11 10 -25z m931 12 c-13 -16 -5 -28 14 -21
7 3 15 -3 19 -12 8 -20 -2 -33 -12 -17 -9 15 -35 12 -56 -6 -14 -11 -16 -11
-16 2 0 9 4 18 9 22 6 3 8 13 6 23 -2 13 4 18 22 20 20 2 23 -1 14 -11z m-751
-7 c0 -5 -5 -10 -11 -10 -5 0 -7 5 -4 10 3 6 8 10 11 10 2 0 4 -4 4 -10z m10
-40 c0 -5 -4 -10 -10 -10 -5 0 -10 5 -10 10 0 6 5 10 10 10 6 0 10 -4 10 -10z
m760 -20 c0 -5 7 -7 15 -4 22 9 18 -9 -4 -23 -16 -10 -20 -9 -25 3 -9 23 -7
34 4 34 6 0 10 -4 10 -10z m-36 -26 c9 -22 -3 -32 -14 -14 -12 19 -12 30 -1
30 5 0 12 -7 15 -16z m-714 -21 c0 -17 -19 -37 -27 -29 -4 5 -2 11 5 13 6 3
10 9 6 14 -3 5 0 9 5 9 6 0 11 -3 11 -7z m-10 -53 c0 -5 -4 -10 -10 -10 -5 0
-10 5 -10 10 0 6 5 10 10 10 6 0 10 -4 10 -10z m1170 -91 c0 -5 -4 -9 -10 -9
-5 0 -10 7 -10 16 0 8 5 12 10 9 6 -3 10 -10 10 -16z m1980 -18 c0 -6 -4 -13
-10 -16 -5 -3 -10 1 -10 9 0 9 5 16 10 16 6 0 10 -4 10 -9z m-1880 -11 c0 -5
-5 -10 -11 -10 -5 0 -7 5 -4 10 3 6 8 10 11 10 2 0 4 -4 4 -10z m-520 -4 c0
-3 -4 -8 -10 -11 -5 -3 -10 -1 -10 4 0 6 5 11 10 11 6 0 10 -2 10 -4z m-720
-10 c0 -3 -4 -8 -10 -11 -5 -3 -10 -1 -10 4 0 6 5 11 10 11 6 0 10 -2 10 -4z
m1170 -16 c0 -5 -4 -10 -10 -10 -5 0 -10 5 -10 10 0 6 5 10 10 10 6 0 10 -4
10 -10z m1930 0 c0 -5 -5 -10 -11 -10 -5 0 -7 5 -4 10 3 6 8 10 11 10 2 0 4
-4 4 -10z m-2410 -10 c0 -5 -5 -10 -11 -10 -5 0 -7 5 -4 10 3 6 8 10 11 10 2
0 4 -4 4 -10z m-690 -10 c0 -5 -5 -10 -11 -10 -5 0 -7 5 -4 10 3 6 8 10 11 10
2 0 4 -4 4 -10z m3010 -10 c0 -5 -4 -10 -10 -10 -5 0 -10 5 -10 10 0 6 5 10
10 10 6 0 10 -4 10 -10z m-3000 -30 c0 -5 -4 -10 -10 -10 -5 0 -10 5 -10 10 0
6 5 10 10 10 6 0 10 -4 10 -10z m1230 -20 c0 -5 -4 -10 -10 -10 -5 0 -10 5
-10 10 0 6 5 10 10 10 6 0 10 -4 10 -10z m-1220 -50 c0 -5 -2 -10 -4 -10 -3 0
-8 5 -11 10 -3 6 -1 10 4 10 6 0 11 -4 11 -10z m-360 -10 c0 -5 -4 -10 -10
-10 -5 0 -10 5 -10 10 0 6 5 10 10 10 6 0 10 -4 10 -10z m1580 -10 c0 -5 -4
-10 -10 -10 -5 0 -10 5 -10 10 0 6 5 10 10 10 6 0 10 -4 10 -10z m-1210 -10
c0 -5 -4 -10 -10 -10 -5 0 -10 5 -10 10 0 6 5 10 10 10 6 0 10 -4 10 -10z
m1210 -30 c0 -5 -7 -10 -16 -10 -8 0 -12 5 -9 10 3 6 10 10 16 10 5 0 9 -4 9
-10z m0 -30 c0 -5 -5 -10 -11 -10 -5 0 -7 5 -4 10 3 6 8 10 11 10 2 0 4 -4 4
-10z m-1200 -10 c0 -5 -2 -10 -4 -10 -3 0 -8 5 -11 10 -3 6 -1 10 4 10 6 0 11
-4 11 -10z m3060 -37 c0 -13 -3 -13 -15 -3 -8 7 -15 19 -15 27 0 13 3 13 15 3
8 -7 15 -19 15 -27z m-3055 7 c3 -5 1 -10 -4 -10 -6 0 -11 5 -11 10 0 6 2 10
4 10 3 0 8 -4 11 -10z m-645 -40 c0 -33 3 -38 17 -33 13 5 15 3 7 -13 -5 -11
-8 -186 -7 -406 1 -381 -8 -502 -20 -270 -15 266 -20 762 -9 762 7 0 12 -16
12 -40z m3730 -11 c0 -6 -4 -7 -10 -4 -5 3 -10 11 -10 16 0 6 5 7 10 4 6 -3
10 -11 10 -16z m-2420 1 c0 -5 -5 -10 -11 -10 -5 0 -7 5 -4 10 3 6 8 10 11 10
2 0 4 -4 4 -10z m-650 -20 c0 -5 -4 -10 -10 -10 -5 0 -10 5 -10 10 0 6 5 10
10 10 6 0 10 -4 10 -10z m260 0 c0 -5 -7 -10 -15 -10 -8 0 -15 5 -15 10 0 6 7
10 15 10 8 0 15 -4 15 -10z m-90 -36 c0 -12 -4 -12 -19 -2 -11 7 -18 15 -15
20 7 11 34 -3 34 -18z m480 16 c0 -5 -4 -10 -10 -10 -5 0 -10 5 -10 10 0 6 5
10 10 10 6 0 10 -4 10 -10z m-530 -10 c0 -5 -4 -10 -10 -10 -5 0 -10 5 -10 10
0 6 5 10 10 10 6 0 10 -4 10 -10z m-110 -15 c0 -8 -4 -15 -10 -15 -5 0 -10 7
-10 15 0 8 5 15 10 15 6 0 10 -7 10 -15z m35 -5 c3 -5 -1 -10 -9 -10 -9 0 -16
5 -16 10 0 6 4 10 9 10 6 0 13 -4 16 -10z m2135 -61 c0 -33 -4 -59 -10 -59 -6
0 -10 29 -10 66 0 41 4 63 10 59 6 -3 10 -33 10 -66z m-2210 51 c0 -5 -5 -10
-11 -10 -5 0 -7 5 -4 10 3 6 8 10 11 10 2 0 4 -4 4 -10z m1220 0 c0 -5 -5 -10
-11 -10 -5 0 -7 5 -4 10 3 6 8 10 11 10 2 0 4 -4 4 -10z m-1250 -10 c0 -5 -4
-10 -10 -10 -5 0 -10 5 -10 10 0 6 5 10 10 10 6 0 10 -4 10 -10z m-70 -10 c0
-5 -4 -10 -10 -10 -5 0 -10 5 -10 10 0 6 5 10 10 10 6 0 10 -4 10 -10z m310 0
c0 -5 -2 -10 -4 -10 -3 0 -8 5 -11 10 -3 6 -1 10 4 10 6 0 11 -4 11 -10z
m-380 -10 c0 -5 -4 -10 -10 -10 -5 0 -10 5 -10 10 0 6 5 10 10 10 6 0 10 -4
10 -10z m30 0 c0 -5 -2 -10 -4 -10 -3 0 -8 5 -11 10 -3 6 -1 10 4 10 6 0 11
-4 11 -10z m220 0 c0 -5 -2 -10 -4 -10 -3 0 -8 5 -11 10 -3 6 -1 10 4 10 6 0
11 -4 11 -10z m600 0 c0 -5 -4 -10 -10 -10 -5 0 -10 5 -10 10 0 6 5 10 10 10
6 0 10 -4 10 -10z m520 0 c0 -5 -4 -10 -10 -10 -5 0 -10 5 -10 10 0 6 5 10 10
10 6 0 10 -4 10 -10z m-1400 -4 c0 -3 -4 -8 -10 -11 -5 -3 -10 -1 -10 4 0 6 5
11 10 11 6 0 10 -2 10 -4z m-40 -16 c0 -5 -2 -10 -4 -10 -3 0 -8 5 -11 10 -3
6 -1 10 4 10 6 0 11 -4 11 -10z m460 0 c0 -5 -4 -10 -10 -10 -5 0 -10 5 -10
10 0 6 5 10 10 10 6 0 10 -4 10 -10z m-135 -10 c3 -5 1 -10 -4 -10 -6 0 -11 5
-11 10 0 6 2 10 4 10 3 0 8 -4 11 -10z m1300 -10 c-3 -5 -12 -10 -18 -10 -7 0
-6 4 3 10 19 12 23 12 15 0z m-35 -10 c0 -5 -7 -10 -16 -10 -8 0 -12 5 -9 10
3 6 10 10 16 10 5 0 9 -4 9 -10z m-670 -20 c0 -5 -4 -10 -10 -10 -5 0 -10 5
-10 10 0 6 5 10 10 10 6 0 10 -4 10 -10z m-430 -4 c0 -3 -4 -8 -10 -11 -5 -3
-10 -1 -10 4 0 6 5 11 10 11 6 0 10 -2 10 -4z m-150 -26 c0 -5 -5 -10 -11 -10
-5 0 -7 5 -4 10 3 6 8 10 11 10 2 0 4 -4 4 -10z m320 0 c0 -5 -4 -10 -10 -10
-5 0 -10 5 -10 10 0 6 5 10 10 10 6 0 10 -4 10 -10z m30 0 c0 -5 -5 -10 -11
-10 -5 0 -7 5 -4 10 3 6 8 10 11 10 2 0 4 -4 4 -10z m140 -10 c0 -5 -2 -10 -4
-10 -3 0 -8 5 -11 10 -3 6 -1 10 4 10 6 0 11 -4 11 -10z m40 0 c0 -5 -4 -10
-10 -10 -5 0 -10 5 -10 10 0 6 5 10 10 10 6 0 10 -4 10 -10z m70 1 c0 -5 -11
-8 -25 -7 -33 1 -33 16 0 16 14 0 25 -4 25 -9z m70 -1 c0 -5 -4 -10 -10 -10
-5 0 -10 5 -10 10 0 6 5 10 10 10 6 0 10 -4 10 -10z m70 0 c0 -5 -4 -10 -10
-10 -5 0 -10 5 -10 10 0 6 5 10 10 10 6 0 10 -4 10 -10z m30 0 c0 -5 -5 -10
-11 -10 -5 0 -7 5 -4 10 3 6 8 10 11 10 2 0 4 -4 4 -10z m35 0 c3 -5 1 -10 -4
-10 -6 0 -11 5 -11 10 0 6 2 10 4 10 3 0 8 -4 11 -10z m35 0 c0 -5 -5 -10 -11
-10 -5 0 -7 5 -4 10 3 6 8 10 11 10 2 0 4 -4 4 -10z m1360 0 c0 -5 -5 -10 -11
-10 -5 0 -7 5 -4 10 3 6 8 10 11 10 2 0 4 -4 4 -10z m-1150 -10 c0 -5 -2 -10
-4 -10 -3 0 -8 5 -11 10 -3 6 -1 10 4 10 6 0 11 -4 11 -10z m40 6 c0 -3 -4 -8
-10 -11 -5 -3 -10 -1 -10 4 0 6 5 11 10 11 6 0 10 -2 10 -4z m70 -6 c0 -5 -4
-10 -10 -10 -5 0 -10 5 -10 10 0 6 5 10 10 10 6 0 10 -4 10 -10z m100 -2 c0
-4 -11 -8 -25 -8 -14 0 -25 4 -25 10 0 5 11 9 25 8 14 -1 25 -6 25 -10z m140
-8 c0 -5 -2 -10 -4 -10 -3 0 -8 5 -11 10 -3 6 -1 10 4 10 6 0 11 -4 11 -10z
m40 0 c0 -5 -4 -10 -10 -10 -5 0 -10 5 -10 10 0 6 5 10 10 10 6 0 10 -4 10
-10z m70 0 c0 -5 -4 -10 -10 -10 -5 0 -10 5 -10 10 0 6 5 10 10 10 6 0 10 -4
10 -10z m65 0 c3 -5 1 -10 -4 -10 -6 0 -11 5 -11 10 0 6 2 10 4 10 3 0 8 -4
11 -10z m35 0 c0 -5 -5 -10 -11 -10 -5 0 -7 5 -4 10 3 6 8 10 11 10 2 0 4 -4
4 -10z m560 0 c0 -5 -4 -10 -10 -10 -5 0 -10 5 -10 10 0 6 5 10 10 10 6 0 10
-4 10 -10z m-2160 -4 c0 -3 -4 -8 -10 -11 -5 -3 -10 -1 -10 4 0 6 5 11 10 11
6 0 10 -2 10 -4z m570 -6 c0 -5 -4 -10 -10 -10 -5 0 -10 5 -10 10 0 6 5 10 10
10 6 0 10 -4 10 -10z m1170 0 c0 -5 -2 -10 -4 -10 -3 0 -8 5 -11 10 -3 6 -1
10 4 10 6 0 11 -4 11 -10z m40 0 c0 -5 -4 -10 -10 -10 -5 0 -10 5 -10 10 0 6
5 10 10 10 6 0 10 -4 10 -10z m70 0 c0 -5 -4 -10 -10 -10 -5 0 -10 5 -10 10 0
6 5 10 10 10 6 0 10 -4 10 -10z m70 0 c0 -5 -4 -10 -10 -10 -5 0 -10 5 -10 10
0 6 5 10 10 10 6 0 10 -4 10 -10z m30 0 c0 -5 -5 -10 -11 -10 -5 0 -7 5 -4 10
3 6 8 10 11 10 2 0 4 -4 4 -10z m35 0 c3 -5 1 -10 -4 -10 -6 0 -11 5 -11 10 0
6 2 10 4 10 3 0 8 -4 11 -10z m35 0 c0 -5 -5 -10 -11 -10 -5 0 -7 5 -4 10 3 6
8 10 11 10 2 0 4 -4 4 -10z m35 0 c3 -5 1 -10 -4 -10 -6 0 -11 5 -11 10 0 6 2
10 4 10 3 0 8 -4 11 -10z m35 0 c0 -5 -5 -10 -11 -10 -5 0 -7 5 -4 10 3 6 8
10 11 10 2 0 4 -4 4 -10z m35 0 c3 -5 1 -10 -4 -10 -6 0 -11 5 -11 10 0 6 2
10 4 10 3 0 8 -4 11 -10z m-1560 -30 c3 -5 1 -10 -4 -10 -6 0 -11 5 -11 10 0
6 2 10 4 10 3 0 8 -4 11 -10z m515 -10 c0 -5 -4 -10 -10 -10 -5 0 -10 5 -10
10 0 6 5 10 10 10 6 0 10 -4 10 -10z m150 -10 c0 -5 -5 -10 -11 -10 -5 0 -7 5
-4 10 3 6 8 10 11 10 2 0 4 -4 4 -10z m-1077 -15 c147 -16 174 -21 164 -31 -8
-9 -397 29 -397 38 0 12 76 10 233 -7z m1077 -25 c0 -5 -4 -10 -10 -10 -5 0
-10 5 -10 10 0 6 5 10 10 10 6 0 10 -4 10 -10z m-1260 -20 c0 -5 -2 -10 -4
-10 -3 0 -8 5 -11 10 -3 6 -1 10 4 10 6 0 11 -4 11 -10z m2979 -154 c-24 -75
-47 -136 -52 -136 -4 0 -4 12 0 28 4 15 7 39 7 55 -1 15 2 27 7 27 4 0 15 24
25 53 26 78 44 120 51 114 3 -3 -14 -67 -38 -141z m-2979 124 c0 -5 -4 -10
-10 -10 -5 0 -10 5 -10 10 0 6 5 10 10 10 6 0 10 -4 10 -10z m1097 -12 c-3 -8
-6 -5 -6 6 -1 11 2 17 5 13 3 -3 4 -12 1 -19z m-1097 -22 c0 -3 -4 -8 -10 -11
-5 -3 -10 -1 -10 4 0 6 5 11 10 11 6 0 10 -2 10 -4z m340 -11 c0 -8 -4 -15
-10 -15 -5 0 -10 7 -10 15 0 8 5 15 10 15 6 0 10 -7 10 -15z m1490 -25 c0 -5
-4 -10 -10 -10 -5 0 -10 5 -10 10 0 6 5 10 10 10 6 0 10 -4 10 -10z m-1240
-30 c0 -5 -5 -10 -11 -10 -5 0 -7 5 -4 10 3 6 8 10 11 10 2 0 4 -4 4 -10z
m-600 -40 c0 -5 -4 -10 -10 -10 -5 0 -10 5 -10 10 0 6 5 10 10 10 6 0 10 -4
10 -10z m600 0 c0 -5 -4 -10 -10 -10 -5 0 -10 5 -10 10 0 6 5 10 10 10 6 0 10
-4 10 -10z m-600 -34 c0 -3 -4 -8 -10 -11 -5 -3 -10 -1 -10 4 0 6 5 11 10 11
6 0 10 -2 10 -4z m600 -36 c0 -5 -4 -10 -10 -10 -5 0 -10 5 -10 10 0 6 5 10
10 10 6 0 10 -4 10 -10z m0 -40 c0 -5 -9 -10 -20 -10 -11 0 -20 5 -20 10 0 6
9 10 20 10 11 0 20 -4 20 -10z m-1070 -20 c0 -5 -5 -10 -11 -10 -5 0 -7 5 -4
10 3 6 8 10 11 10 2 0 4 -4 4 -10z m35 0 c3 -5 1 -10 -4 -10 -6 0 -11 5 -11
10 0 6 2 10 4 10 3 0 8 -4 11 -10z m-205 -4 c0 -3 -4 -8 -10 -11 -5 -3 -10 -1
-10 4 0 6 5 11 10 11 6 0 10 -2 10 -4z m1240 -6 c0 -5 -4 -10 -10 -10 -5 0
-10 5 -10 10 0 6 5 10 10 10 6 0 10 -4 10 -10z m1590 -10 c0 -5 -9 -10 -20
-10 -11 0 -20 5 -20 10 0 6 9 10 20 10 11 0 20 -4 20 -10z m60 0 c0 -5 -9 -10
-20 -10 -11 0 -20 5 -20 10 0 6 9 10 20 10 11 0 20 -4 20 -10z m55 0 c3 -5 -3
-10 -14 -10 -12 0 -21 5 -21 10 0 6 6 10 14 10 8 0 18 -4 21 -10z m-175 -9 c0
-12 -20 -25 -27 -18 -7 7 6 27 18 27 5 0 9 -4 9 -9z m-4337 -21 c16 0 18 -5
12 -32 -4 -18 -9 -36 -12 -40 -6 -12 -33 -10 -33 2 0 6 5 10 10 10 15 0 12 36
-5 50 -8 7 -15 17 -15 23 0 7 4 7 12 -1 7 -7 20 -12 31 -12z m2097 10 c0 -5
-2 -10 -4 -10 -3 0 -8 5 -11 10 -3 6 -1 10 4 10 6 0 11 -4 11 -10z m35 0 c3
-5 1 -10 -4 -10 -6 0 -11 5 -11 10 0 6 2 10 4 10 3 0 8 -4 11 -10z m670 0 c3
-5 1 -10 -4 -10 -6 0 -11 5 -11 10 0 6 2 10 4 10 3 0 8 -4 11 -10z m1535 -81
c0 -25 -5 -39 -16 -43 -22 -8 -31 1 -16 16 18 18 14 37 -7 31 -14 -3 -20 2
-23 22 -3 15 -4 35 -1 44 4 16 8 15 34 -8 22 -19 29 -34 29 -62z m-2150 72 c0
-5 -9 -7 -20 -4 -11 3 -20 7 -20 9 0 2 9 4 20 4 11 0 20 -4 20 -9z m2363 -6
c4 -8 2 -17 -3 -20 -6 -4 -10 -4 -10 -1 0 2 -3 11 -6 20 -3 9 -2 16 4 16 5 0
12 -7 15 -15z m-2363 -25 c0 -5 -4 -10 -10 -10 -5 0 -10 5 -10 10 0 6 5 10 10
10 6 0 10 -4 10 -10z m-3516 -31 c-3 -5 -10 -7 -15 -3 -5 3 -7 10 -3 15 3 5
10 7 15 3 5 -3 7 -10 3 -15z m36 11 c0 -5 -4 -10 -10 -10 -5 0 -10 5 -10 10 0
6 5 10 10 10 6 0 10 -4 10 -10z m5895 -30 c21 -22 36 -43 32 -47 -8 -7 -87 65
-87 79 0 17 17 7 55 -32z m-1095 16 c0 -3 -4 -8 -10 -11 -5 -3 -10 -1 -10 4 0
6 5 11 10 11 6 0 10 -2 10 -4z m15 -26 c3 -5 1 -10 -4 -10 -6 0 -11 5 -11 10
0 6 2 10 4 10 3 0 8 -4 11 -10z m-3005 -35 c0 -8 -4 -15 -10 -15 -5 0 -10 7
-10 15 0 8 5 15 10 15 6 0 10 -7 10 -15z m1660 -5 c0 -5 -4 -10 -10 -10 -5 0
-10 5 -10 10 0 6 5 10 10 10 6 0 10 -4 10 -10z m620 -20 c0 -5 -4 -10 -10 -10
-5 0 -10 5 -10 10 0 6 5 10 10 10 6 0 10 -4 10 -10z m-625 -10 c3 -5 1 -10 -4
-10 -6 0 -11 5 -11 10 0 6 2 10 4 10 3 0 8 -4 11 -10z m-1649 -58 c-14 -14
-16 -14 -16 -1 0 20 23 44 29 28 2 -6 -4 -18 -13 -27z m2274 -2 c0 -5 -4 -10
-10 -10 -5 0 -10 5 -10 10 0 6 5 10 10 10 6 0 10 -4 10 -10z m-630 -10 c0 -5
-4 -10 -10 -10 -5 0 -10 5 -10 10 0 6 5 10 10 10 6 0 10 -4 10 -10z m-1600
-10 c0 -5 -6 -10 -14 -10 -8 0 -18 5 -21 10 -3 6 3 10 14 10 12 0 21 -4 21
-10z m538 -70 c2 -23 1 -24 -11 -7 -8 9 -19 17 -26 17 -6 0 -11 5 -11 11 0 6
10 9 23 7 15 -2 23 -11 25 -28z m1067 0 c3 -5 -1 -10 -9 -10 -9 0 -16 5 -16
10 0 6 4 10 9 10 6 0 13 -4 16 -10z m75 -10 c0 -5 -4 -10 -10 -10 -5 0 -10 5
-10 10 0 6 5 10 10 10 6 0 10 -4 10 -10z m70 -10 c0 -5 -5 -10 -11 -10 -5 0
-7 5 -4 10 3 6 8 10 11 10 2 0 4 -4 4 -10z m-150 -4 c0 -3 -4 -8 -10 -11 -5
-3 -10 -1 -10 4 0 6 5 11 10 11 6 0 10 -2 10 -4z m190 0 c0 -3 -4 -8 -10 -11
-5 -3 -10 -1 -10 4 0 6 5 11 10 11 6 0 10 -2 10 -4z m30 -6 c0 -5 -5 -10 -11
-10 -5 0 -7 5 -4 10 3 6 8 10 11 10 2 0 4 -4 4 -10z m-330 -11 c27 -6 50 -15
50 -20 0 -12 -5 -11 -73 2 -31 7 -57 16 -57 20 0 12 19 11 80 -2z m370 7 c0
-3 -4 -8 -10 -11 -5 -3 -10 -1 -10 4 0 6 5 11 10 11 6 0 10 -2 10 -4z m30 -6
c0 -5 -4 -10 -10 -10 -5 0 -10 5 -10 10 0 6 5 10 10 10 6 0 10 -4 10 -10z
m570 0 c0 -5 -2 -10 -4 -10 -3 0 -8 5 -11 10 -3 6 -1 10 4 10 6 0 11 -4 11
-10z m35 0 c3 -5 1 -10 -4 -10 -6 0 -11 5 -11 10 0 6 2 10 4 10 3 0 8 -4 11
-10z m-565 -4 c0 -3 -4 -8 -10 -11 -5 -3 -10 -1 -10 4 0 6 5 11 10 11 6 0 10
-2 10 -4z m290 -6 c0 -5 -4 -10 -10 -10 -5 0 -10 5 -10 10 0 6 5 10 10 10 6 0
10 -4 10 -10z m350 6 c0 -3 -4 -8 -10 -11 -5 -3 -10 -1 -10 4 0 6 5 11 10 11
6 0 10 -2 10 -4z m30 -6 c0 -5 -2 -10 -4 -10 -3 0 -8 5 -11 10 -3 6 -1 10 4
10 6 0 11 -4 11 -10z m40 6 c0 -3 -4 -8 -10 -11 -5 -3 -10 -1 -10 4 0 6 5 11
10 11 6 0 10 -2 10 -4z m-912 -41 c14 -13 -11 -15 -69 -5 -103 17 -114 21
-100 29 12 8 158 -13 169 -24z m492 -105 c0 -5 -4 -10 -10 -10 -5 0 -10 5 -10
10 0 6 5 10 10 10 6 0 10 -4 10 -10z m-650 -10 c0 -5 -4 -10 -10 -10 -5 0 -10
5 -10 10 0 6 5 10 10 10 6 0 10 -4 10 -10z m3250 -18 c0 -5 -7 -9 -15 -9 -8 0
-15 4 -15 9 0 4 7 8 15 8 8 0 15 -4 15 -8z m-3916 -27 c-4 -8 -8 -15 -10 -15
-2 0 -4 7 -4 15 0 8 4 15 10 15 5 0 7 -7 4 -15z m3876 5 c0 -5 7 -7 16 -3 14
5 14 3 3 -16 -8 -11 -19 -21 -25 -21 -7 0 -10 -8 -7 -20 6 -22 -4 -25 -27 -10
-13 8 -12 10 3 10 14 0 16 4 7 19 -15 28 -12 35 6 20 15 -12 16 -11 10 9 -5
13 -3 22 3 22 6 0 11 -4 11 -10z m-4354 -55 c15 -30 33 -55 40 -55 10 0 14
-13 14 -40 0 -22 -3 -40 -8 -40 -7 0 -34 54 -69 138 l-15 37 -24 -28 c-25 -30
-30 -52 -14 -62 6 -3 10 -13 10 -22 0 -14 -3 -14 -20 2 -11 10 -20 24 -20 32
0 7 -4 13 -10 13 -5 0 -10 5 -10 10 0 6 5 10 11 10 6 0 24 14 39 30 15 17 33
30 39 30 6 0 23 -25 37 -55z m2891 33 c-3 -8 -6 -5 -6 6 -1 11 2 17 5 13 3 -3
4 -12 1 -19z m953 12 c0 -5 -4 -10 -10 -10 -5 0 -10 5 -10 10 0 6 5 10 10 10
6 0 10 -4 10 -10z m40 0 c0 -5 -4 -10 -10 -10 -5 0 -10 5 -10 10 0 6 5 10 10
10 6 0 10 -4 10 -10z m30 0 c0 -5 -5 -10 -11 -10 -5 0 -7 5 -4 10 3 6 8 10 11
10 2 0 4 -4 4 -10z m-3520 -30 c0 -5 -4 -10 -10 -10 -5 0 -10 5 -10 10 0 6 5
10 10 10 6 0 10 -4 10 -10z m3880 -19 c0 -5 -7 -12 -16 -15 -14 -5 -15 -4 -4
9 14 17 20 19 20 6z m20 -31 c0 -5 -5 -10 -11 -10 -5 0 -7 5 -4 10 3 6 8 10
11 10 2 0 4 -4 4 -10z m30 0 c0 -5 -5 -10 -11 -10 -5 0 -7 5 -4 10 3 6 8 10
11 10 2 0 4 -4 4 -10z m-3900 -4 c0 -3 -4 -8 -10 -11 -5 -3 -10 -1 -10 4 0 6
5 11 10 11 6 0 10 -2 10 -4z m700 0 c0 -3 -4 -8 -10 -11 -5 -3 -10 -1 -10 4 0
6 5 11 10 11 6 0 10 -2 10 -4z m-805 -18 c25 -11 34 -28 15 -28 -16 0 -60 23
-60 32 0 11 14 10 45 -4z m130 2 c3 -5 1 -10 -4 -10 -6 0 -11 5 -11 10 0 6 2
10 4 10 3 0 8 -4 11 -10z m35 -20 c0 -5 -4 -10 -10 -10 -5 0 -10 5 -10 10 0 6
5 10 10 10 6 0 10 -4 10 -10z m130 0 c0 -5 -4 -10 -10 -10 -5 0 -10 5 -10 10
0 6 5 10 10 10 6 0 10 -4 10 -10z m500 0 c0 -5 -5 -10 -11 -10 -5 0 -7 5 -4
10 3 6 8 10 11 10 2 0 4 -4 4 -10z m-600 -20 c0 -5 -2 -10 -4 -10 -3 0 -8 5
-11 10 -3 6 -1 10 4 10 6 0 11 -4 11 -10z m489 -6 c2 -2 2 -7 -2 -10 -9 -9
-77 5 -77 16 0 8 69 2 79 -6z m-1370 -37 c17 -4 31 -12 31 -18 0 -6 -6 -9 -14
-6 -34 13 -86 19 -86 9 0 -10 63 -62 76 -62 5 0 18 12 31 28 14 17 22 22 22
12 0 -8 -9 -26 -19 -39 -26 -30 -54 -23 -103 24 -20 19 -41 35 -47 35 -5 0
-10 5 -10 10 0 6 11 10 25 10 15 0 29 8 36 22 12 22 12 22 20 2 4 -13 20 -24
38 -27z m911 33 c0 -5 -5 -10 -11 -10 -5 0 -7 5 -4 10 3 6 8 10 11 10 2 0 4
-4 4 -10z m60 0 c0 -5 -5 -10 -11 -10 -5 0 -7 5 -4 10 3 6 8 10 11 10 2 0 4
-4 4 -10z m510 -4 c0 -3 -4 -8 -10 -11 -5 -3 -10 -1 -10 4 0 6 5 11 10 11 6 0
10 -2 10 -4z m-540 -16 c0 -5 -2 -10 -4 -10 -3 0 -8 5 -11 10 -3 6 -1 10 4 10
6 0 11 -4 11 -10z m2300 -4 c0 -3 -4 -8 -10 -11 -5 -3 -10 -1 -10 4 0 6 5 11
10 11 6 0 10 -2 10 -4z m-2395 -16 c3 -5 -1 -10 -9 -10 -9 0 -16 5 -16 10 0 6
4 10 9 10 6 0 13 -4 16 -10z m625 0 c0 -5 -4 -10 -10 -10 -5 0 -10 5 -10 10 0
6 5 10 10 10 6 0 10 -4 10 -10z m1750 -20 c0 -5 -4 -10 -10 -10 -5 0 -10 5
-10 10 0 6 5 10 10 10 6 0 10 -4 10 -10z m-2373 -30 c0 -16 -5 -30 -11 -30 -6
0 -3 -5 8 -11 14 -9 20 -8 27 2 5 8 9 10 9 4 0 -22 -18 -38 -35 -31 -10 3 -28
0 -42 -9 -26 -17 -43 -13 -43 11 0 11 6 13 19 9 11 -3 22 -1 26 5 3 5 1 10 -4
10 -6 0 -11 5 -11 10 0 6 7 10 15 10 8 0 15 7 15 15 0 8 -7 15 -15 15 -8 0
-15 5 -15 10 0 6 13 10 28 10 25 0 29 -4 29 -30z m108 20 c3 -5 1 -10 -4 -10
-6 0 -11 5 -11 10 0 6 2 10 4 10 3 0 8 -4 11 -10z m505 -40 c0 -5 -4 -10 -10
-10 -5 0 -10 5 -10 10 0 6 5 10 10 10 6 0 10 -4 10 -10z m1730 -10 c0 -5 -4
-10 -10 -10 -5 0 -10 5 -10 10 0 6 5 10 10 10 6 0 10 -4 10 -10z m-2240 -20
c0 -5 -4 -10 -10 -10 -5 0 -10 5 -10 10 0 6 5 10 10 10 6 0 10 -4 10 -10z
m-260 -9 c0 -6 -4 -13 -10 -16 -5 -3 -10 1 -10 9 0 9 5 16 10 16 6 0 10 -4 10
-9z m760 0 c0 -6 -4 -13 -10 -16 -5 -3 -10 1 -10 9 0 9 5 16 10 16 6 0 10 -4
10 -9z m1725 -1 c3 -5 1 -10 -4 -10 -6 0 -11 5 -11 10 0 6 2 10 4 10 3 0 8 -4
11 -10z m-1735 -75 c0 -8 -4 -15 -10 -15 -5 0 -10 7 -10 15 0 8 5 15 10 15 6
0 10 -7 10 -15z m975 -37 c4 -29 13 -63 21 -75 25 -40 15 -45 -20 -9 -18 20
-41 36 -50 36 -9 0 -16 5 -16 10 0 6 6 10 13 10 8 0 8 3 -2 9 -12 8 -10 15 10
39 13 17 27 31 31 31 3 1 9 -23 13 -51z m735 48 c0 -3 -4 -8 -10 -11 -5 -3
-10 -1 -10 4 0 6 5 11 10 11 6 0 10 -2 10 -4z m-2195 -26 c3 -5 1 -10 -4 -10
-6 0 -11 5 -11 10 0 6 2 10 4 10 3 0 8 -4 11 -10z m475 -30 c0 -5 -4 -10 -10
-10 -5 0 -10 5 -10 10 0 6 5 10 10 10 6 0 10 -4 10 -10z m-460 -4 c0 -3 -4 -8
-10 -11 -5 -3 -10 -1 -10 4 0 6 5 11 10 11 6 0 10 -2 10 -4z m1311 -8 c1 -7 3
-25 5 -40 2 -24 -1 -28 -22 -28 -24 0 -32 14 -14 25 6 3 10 17 10 31 0 24 19
35 21 12z m839 3 c0 -6 -4 -13 -10 -16 -5 -3 -10 1 -10 9 0 9 5 16 10 16 6 0
10 -4 10 -9z m-4640 -8 c-1 -21 -30 -41 -72 -49 -25 -5 -23 17 2 23 11 3 20 9
20 13 0 5 8 11 18 13 28 7 32 7 32 0z m-137 -23 c8 0 8 -3 1 -10 -12 -12 -44
-3 -44 12 0 6 7 7 16 4 9 -3 21 -6 27 -6z m37 -25 c0 -13 -4 -27 -10 -30 -6
-4 -10 8 -10 30 0 22 4 34 10 30 6 -3 10 -17 10 -30z m2600 25 c0 -5 -4 -10
-10 -10 -5 0 -10 5 -10 10 0 6 5 10 10 10 6 0 10 -4 10 -10z m-2290 -19 c0
-12 -20 -25 -27 -18 -7 7 6 27 18 27 5 0 9 -4 9 -9z m2730 -11 c0 -5 -4 -10
-10 -10 -5 0 -10 5 -10 10 0 6 5 10 10 10 6 0 10 -4 10 -10z m-2935 -10 c3 -5
15 -10 26 -10 11 0 17 -4 14 -10 -3 -5 -18 -10 -32 -10 -15 0 -23 -3 -20 -7 8
-7 -11 -33 -24 -33 -16 0 -10 40 7 47 8 3 13 12 10 19 -6 16 10 19 19 4z m150
-9 c-3 -6 -14 -11 -23 -11 -15 1 -15 2 2 15 21 16 32 13 21 -4z m-212 -11 c3
-13 0 -20 -8 -20 -17 0 -28 17 -20 30 10 16 22 12 28 -10z m162 0 c-3 -5 -12
-10 -20 -10 -8 0 -17 5 -20 10 -4 6 5 10 20 10 15 0 24 -4 20 -10z m2830 0 c3
-5 1 -10 -4 -10 -6 0 -11 5 -11 10 0 6 2 10 4 10 3 0 8 -4 11 -10z m-3041 -59
c-20 -22 -29 -5 -14 26 12 26 13 27 20 8 5 -13 3 -25 -6 -34z m3924 10 c-14
-5 -31 15 -23 29 5 8 11 6 20 -7 9 -11 10 -19 3 -22z m112 3 c0 -13 -42 -74
-51 -74 -13 0 -11 7 14 45 20 32 37 45 37 29z m-46 -19 c-4 -8 -15 -15 -25
-15 -27 0 -24 18 4 23 12 2 23 5 24 6 1 0 0 -6 -3 -14z m-954 -5 c0 -5 -4 -10
-10 -10 -5 0 -10 5 -10 10 0 6 5 10 10 10 6 0 10 -4 10 -10z m-2996 -9 c17 -7
26 -7 29 2 3 9 7 9 17 0 7 -6 10 -19 6 -30 -4 -10 -10 -13 -14 -8 -4 6 -20 10
-37 10 -20 0 -31 6 -33 18 -4 20 -2 20 32 8z m2596 -56 c0 -37 6 -60 20 -78
11 -14 20 -40 20 -59 0 -74 122 -179 144 -123 6 17 76 21 76 5 0 -5 -13 -10
-30 -10 -38 0 -38 -9 2 -42 18 -14 30 -30 26 -33 -4 -4 -21 4 -38 19 -17 14
-43 26 -57 26 -14 0 -38 10 -55 21 l-29 21 -30 -28 c-16 -15 -29 -35 -29 -44
0 -20 -37 -56 -47 -47 -3 4 1 15 10 25 10 10 17 26 17 35 0 9 16 28 35 43 l35
27 -25 33 c-14 18 -25 46 -25 63 0 17 -9 48 -20 68 -11 21 -20 54 -20 74 0 24
-5 39 -15 43 -25 9 -17 24 10 18 23 -4 25 -9 25 -57z m990 25 c0 -5 -4 -10 -9
-10 -6 0 -13 5 -16 10 -3 6 1 10 9 10 9 0 16 -4 16 -10z m70 -10 c0 -5 -4 -10
-10 -10 -5 0 -10 5 -10 10 0 6 5 10 10 10 6 0 10 -4 10 -10z m65 -10 c3 -5 1
-10 -4 -10 -6 0 -11 5 -11 10 0 6 2 10 4 10 3 0 8 -4 11 -10z m35 -10 c0 -5
-2 -10 -4 -10 -3 0 -8 5 -11 10 -3 6 -1 10 4 10 6 0 11 -4 11 -10z m-2303 -77
c-9 -9 -19 -14 -23 -11 -10 10 6 28 24 28 15 0 15 -1 -1 -17z m103 -88 c30
-31 101 -88 158 -127 103 -72 119 -85 108 -95 -3 -3 -22 8 -43 24 -21 16 -66
49 -101 72 -66 44 -192 157 -192 172 0 19 18 7 70 -46z m3414 -56 c-3 -5 -10
-7 -15 -3 -5 3 -7 10 -3 15 3 5 10 7 15 3 5 -3 7 -10 3 -15z m-3576 -1 c-5
-16 -48 -24 -48 -9 0 8 17 16 43 20 5 0 7 -5 5 -11z m1542 -78 c0 -5 -4 -10
-10 -10 -5 0 -10 5 -10 10 0 6 5 10 10 10 6 0 10 -4 10 -10z m0 -40 c0 -5 -4
-10 -10 -10 -5 0 -10 5 -10 10 0 6 5 10 10 10 6 0 10 -4 10 -10z m-211 -99
c42 -32 85 -76 95 -97 1 -1 11 -5 24 -9 23 -7 23 -6 8 24 -24 46 -21 61 12 56
15 -3 60 -9 100 -14 69 -9 91 -16 81 -25 -2 -2 -45 2 -96 8 l-92 12 15 -34
c20 -48 18 -55 -11 -48 -24 6 -25 5 -25 -42 0 -47 -17 -84 -50 -109 -25 -19
-23 -7 8 36 25 35 28 45 22 84 -8 52 -35 89 -112 152 -32 25 -58 51 -58 57 0
7 4 7 13 1 6 -6 36 -29 66 -52z m-849 31 c0 -5 -6 -17 -14 -28 -19 -25 -31
-12 -14 15 13 21 28 28 28 13z m175 -161 c-3 -6 -11 -11 -17 -11 -6 0 -6 6 2
15 14 17 26 13 15 -4z m-32 -46 c-5 -13 -23 -22 -23 -11 0 15 14 35 21 31 4
-3 6 -12 2 -20z m-73 -25 c0 -5 -4 -10 -10 -10 -5 0 -10 5 -10 10 0 6 5 10 10
10 6 0 10 -4 10 -10z m64 -6 c25 -10 19 -22 -9 -16 -14 2 -25 8 -25 13 0 10
12 11 34 3z m336 -65 c0 -11 -4 -17 -10 -14 -5 3 -10 13 -10 21 0 8 5 14 10
14 6 0 10 -9 10 -21z m264 -1 c3 -13 6 -34 6 -48 -1 -32 -14 -10 -25 38 -7 36
9 45 19 10z m2607 -46 c-5 -10 -7 -30 -4 -43 l6 -24 -24 20 c-13 11 -25 20
-27 21 -1 1 10 15 25 32 29 31 42 28 24 -6z m-1801 -174 c0 -19 -18 -43 -25
-36 -4 3 -2 16 5 27 12 24 20 27 20 9z m90 -158 c0 -5 -4 -10 -10 -10 -5 0
-10 5 -10 10 0 6 5 10 10 10 6 0 10 -4 10 -10z"/>
<path d="M4317 5734 c-16 -16 -5 -24 34 -24 28 0 39 4 37 13 -5 13 -60 22 -71
11z"/>
<path d="M4366 5658 c-15 -21 -14 -24 14 -53 l30 -30 22 23 22 22 -29 30 c-34
36 -39 37 -59 8z"/>
<path d="M4821 7996 c2 -2 14 -8 25 -14 17 -9 25 -8 34 3 11 13 7 15 -25 15
-21 0 -36 -2 -34 -4z"/>
<path d="M4910 7985 c0 -8 -4 -15 -10 -15 -18 0 4 -36 79 -123 41 -49 87 -95
102 -103 20 -10 66 -14 167 -14 l139 0 11 83 c7 45 12 106 12 135 l0 52 -250
0 c-216 0 -250 -2 -250 -15z m70 -89 c0 -3 -4 -8 -10 -11 -5 -3 -10 -1 -10 4
0 6 5 11 10 11 6 0 10 -2 10 -4z"/>
<path d="M5437 7993 c-2 -5 -5 -35 -6 -67 -2 -33 -7 -85 -12 -115 -5 -31 -9
-61 -9 -67 0 -7 141 -11 450 -13 377 -2 450 0 450 12 0 7 41 67 91 133 l91
119 -308 3 c-239 2 -310 -1 -317 -10 -7 -10 -10 -10 -14 0 -3 9 -55 12 -208
12 -112 0 -206 -3 -208 -7z m123 -103 c0 -5 -4 -10 -10 -10 -5 0 -10 5 -10 10
0 6 5 10 10 10 6 0 10 -4 10 -10z m35 0 c3 -5 1 -10 -4 -10 -6 0 -11 5 -11 10
0 6 2 10 4 10 3 0 8 -4 11 -10z m35 0 c0 -5 -5 -10 -11 -10 -5 0 -7 5 -4 10 3
6 8 10 11 10 2 0 4 -4 4 -10z m35 0 c3 -5 1 -10 -4 -10 -6 0 -11 5 -11 10 0 6
2 10 4 10 3 0 8 -4 11 -10z m45 0 c0 -5 -7 -10 -16 -10 -8 0 -12 5 -9 10 3 6
10 10 16 10 5 0 9 -4 9 -10z m-150 -90 c0 -5 -4 -10 -10 -10 -5 0 -10 5 -10
10 0 6 5 10 10 10 6 0 10 -4 10 -10z m40 0 c0 -5 -4 -10 -10 -10 -5 0 -10 5
-10 10 0 6 5 10 10 10 6 0 10 -4 10 -10z m30 0 c0 -5 -4 -10 -10 -10 -5 0 -10
5 -10 10 0 6 5 10 10 10 6 0 10 -4 10 -10z m50 -2 c0 -4 -7 -8 -15 -8 -8 0
-15 4 -15 8 0 5 7 9 15 9 8 0 15 -4 15 -9z"/>
<path d="M1596 7477 c3 -10 9 -15 12 -12 3 3 0 11 -7 18 -10 9 -11 8 -5 -6z"/>
<path d="M105 7423 c-11 -3 -39 -19 -63 -35 l-42 -29 2 -522 3 -522 39 -6 c32
-5 50 -17 87 -60 l47 -53 56 49 c129 114 196 171 300 251 91 71 120 88 183
107 63 18 89 33 157 89 122 102 145 116 252 154 54 20 113 44 130 55 17 10 34
16 37 12 16 -16 -33 -45 -134 -78 -114 -38 -146 -57 -276 -163 -61 -50 -96
-69 -158 -90 -65 -22 -100 -42 -182 -106 -56 -44 -100 -83 -97 -87 2 -5 33
-23 67 -42 86 -46 157 -89 261 -159 l89 -60 43 12 c72 21 191 -17 259 -81 26
-24 42 -29 105 -35 63 -6 85 -14 139 -46 34 -22 90 -49 124 -62 65 -24 83 -44
48 -53 -12 -3 -21 -12 -21 -20 0 -12 -8 -14 -37 -9 -65 12 -93 27 -93 50 0 53
-109 112 -188 102 -40 -5 -48 -2 -100 38 -32 24 -74 51 -96 60 -45 19 -119 21
-166 5 -31 -11 -37 -9 -211 110 -204 139 -219 146 -257 128 -15 -8 -35 -12
-45 -9 -12 2 -43 -20 -90 -64 -40 -37 -73 -71 -75 -75 -4 -10 137 -86 175 -94
19 -4 56 -30 93 -65 47 -44 72 -59 102 -64 123 -20 257 -98 623 -366 110 -80
238 -169 284 -198 92 -58 245 -123 332 -141 73 -15 140 -41 247 -96 125 -63
169 -96 208 -154 19 -28 39 -51 43 -51 27 0 41 15 41 42 0 35 -14 63 -48 100
-14 15 -23 30 -20 33 9 9 55 -34 67 -64 10 -22 23 -32 54 -40 36 -9 46 -8 69
9 15 11 29 16 32 11 7 -11 -23 -37 -54 -46 -51 -15 -70 -34 -70 -70 0 -19 -4
-35 -10 -35 -5 0 -10 14 -10 30 0 27 -2 30 -20 20 -19 -10 -19 -11 7 -54 25
-42 29 -44 86 -50 33 -3 85 -6 117 -6 l56 0 84 -87 c56 -60 91 -106 108 -145
13 -32 30 -58 37 -58 62 0 59 46 -5 117 -43 47 -49 58 -43 81 17 60 8 91 -38
138 -24 25 -61 54 -81 65 -20 10 -42 27 -47 36 -9 15 -10 12 -11 -16 0 -42
-17 -31 -22 14 -2 23 -7 29 -22 27 -14 -3 -17 1 -12 13 3 9 6 22 6 28 0 8 4 7
12 -1 20 -20 24 -15 43 51 11 34 40 96 65 137 26 41 63 105 84 141 l36 67 -67
15 c-38 9 -99 19 -138 22 -153 14 -425 63 -425 76 0 12 12 11 125 -10 55 -11
163 -27 240 -36 77 -9 169 -23 204 -31 48 -11 66 -12 71 -4 4 7 11 46 14 88 5
57 4 77 -6 84 -9 6 -10 10 -2 16 6 4 20 28 32 54 17 40 30 52 94 87 82 46 124
95 133 157 5 32 -7 78 -63 244 -38 113 -73 233 -77 267 l-7 62 -56 21 c-32 11
-63 23 -71 25 -7 3 -10 12 -7 20 4 11 -1 15 -19 15 -13 0 -95 25 -182 55 -172
60 -183 62 -183 41 0 -8 -5 -18 -11 -22 -7 -4 -10 3 -7 21 3 27 0 29 -96 61
-55 19 -101 32 -103 30 -18 -18 -101 -191 -127 -266 -19 -52 -37 -93 -42 -90
-5 3 -18 34 -31 70 -12 36 -32 91 -46 123 l-23 57 -32 -39 c-18 -22 -32 -49
-32 -59 0 -27 -25 -45 -51 -37 -14 5 -25 2 -30 -6 -14 -23 -44 3 -45 39 0 36
-48 102 -72 102 -9 0 -28 -9 -42 -20 l-25 -19 23 -63 c33 -87 36 -98 25 -98
-4 0 -21 34 -37 76 -25 64 -32 75 -51 72 -12 -1 -38 8 -58 22 l-37 25 6 60 6
60 -36 13 c-20 7 -36 18 -36 24 0 6 7 7 18 3 9 -4 30 -10 46 -13 l29 -5 -6
-65 c-4 -58 -3 -67 17 -83 29 -25 54 -23 101 6 22 13 49 24 60 25 29 0 85 -72
85 -109 0 -31 14 -49 25 -31 4 6 18 9 33 8 20 -2 27 2 30 17 2 11 19 40 38 64
37 48 39 61 23 127 l-11 44 -67 0 c-101 0 -346 84 -405 138 -40 37 -49 40
-117 46 -187 17 -249 46 -492 228 -86 65 -170 121 -186 124 -16 3 -72 -4 -125
-16 l-95 -21 -101 50 c-99 50 -137 58 -195 44z m395 -112 c0 -13 -28 -22 -35
-11 -3 4 1 11 7 13 20 8 28 8 28 -2z m-66 -21 c-10 -4 -23 -5 -28 -2 -5 3 -1
9 10 12 10 4 23 5 28 2 5 -3 1 -9 -10 -12z m-251 0 c8 0 8 -3 1 -10 -12 -12
-44 -3 -44 12 0 6 7 7 16 4 9 -3 21 -6 27 -6z m207 0 c0 -6 -15 -11 -32 -12
-73 -4 -84 -6 -111 -13 -18 -5 -33 -3 -40 4 -8 8 -7 11 6 12 29 2 35 4 41 10
11 10 136 9 136 -1z m820 -350 c0 -5 -4 -10 -10 -10 -5 0 -10 5 -10 10 0 6 5
10 10 10 6 0 10 -4 10 -10z m-20 -30 c0 -5 -5 -10 -11 -10 -5 0 -7 5 -4 10 3
6 8 10 11 10 2 0 4 -4 4 -10z m640 -126 c0 -7 -27 -34 -34 -34 -3 0 -10 9 -16
20 -10 18 -8 20 20 20 16 0 30 -3 30 -6z m4 -70 c9 -22 -3 -32 -14 -14 -12 19
-12 30 -1 30 5 0 12 -7 15 -16z m-14 -41 c0 -5 -4 -15 -10 -23 -11 -18 -25 -7
-17 15 6 15 27 21 27 8z m-372 -15 c-3 -7 -13 -15 -24 -17 -16 -3 -17 -1 -5
13 16 19 34 21 29 4z m-38 -37 c0 -13 -29 -35 -37 -28 -7 8 15 37 28 37 5 0 9
-4 9 -9z m414 -7 c9 -24 7 -28 -9 -14 -17 14 -20 30 -6 30 5 0 12 -7 15 -16z
m-114 -242 c0 -14 -39 -46 -47 -39 -3 4 2 16 12 27 19 21 35 26 35 12z m-10
-507 c0 -8 -4 -17 -10 -20 -6 -4 -10 5 -10 20 0 15 4 24 10 20 6 -3 10 -12 10
-20z m30 -35 c0 -5 -4 -10 -10 -10 -5 0 -10 5 -10 10 0 6 5 10 10 10 6 0 10
-4 10 -10z m60 -36 c0 -18 5 -24 22 -24 21 0 21 0 2 15 -19 14 -18 14 4 15 12
0 22 -4 22 -9 0 -5 6 -9 13 -8 30 1 47 -4 47 -13 0 -6 -10 -8 -24 -4 -13 3
-27 1 -30 -5 -4 -6 0 -11 8 -11 23 0 62 -47 76 -92 10 -35 9 -43 -4 -56 -19
-19 -34 -8 -17 12 10 12 8 24 -8 60 -21 48 -65 76 -121 76 -16 0 -42 11 -58
25 -29 24 -31 24 -73 10 -34 -12 -44 -13 -51 -3 -11 18 -10 28 2 28 6 0 10 -4
10 -9 0 -6 21 -3 46 6 45 15 46 15 75 -13 31 -30 51 -26 31 6 -16 26 -15 29 8
23 13 -3 20 -14 20 -29z m140 -4 c0 -5 -5 -10 -11 -10 -5 0 -7 5 -4 10 3 6 8
10 11 10 2 0 4 -4 4 -10z m614 -719 c3 -5 -1 -11 -9 -15 -15 -6 -29 7 -18 18
9 9 21 8 27 -3z"/>
<path d="M1670 7381 c19 -16 43 -32 53 -35 29 -7 4 17 -45 43 l-43 23 35 -31z"/>
<path d="M6650 7385 c0 -8 6 -15 14 -15 22 0 28 17 10 24 -22 9 -24 8 -24 -9z"/>
<path d="M6678 7352 c-12 -2 -18 -13 -18 -33 0 -26 4 -29 30 -29 26 0 30 3 30
29 0 30 -13 40 -42 33z"/>
<path d="M6544 7339 c-3 -6 -2 -14 3 -18 5 -3 12 -14 16 -23 8 -24 24 -23 32
1 3 11 12 22 20 25 8 3 15 10 15 16 0 14 -77 13 -86 -1z"/>
<path d="M1784 7299 c14 -20 26 -42 26 -51 0 -8 14 -27 31 -44 l32 -29 -28 50
c-15 28 -42 64 -58 80 l-30 30 27 -36z"/>
<path d="M6744 7298 c3 -13 6 -35 6 -50 0 -17 5 -28 13 -28 19 0 47 33 47 54
0 14 -5 17 -24 12 -14 -3 -28 -2 -31 4 -3 5 3 10 14 10 12 0 21 5 21 10 0 6
-12 10 -26 10 -22 0 -25 -3 -20 -22z"/>
<path d="M6617 7303 c-12 -12 -7 -22 8 -17 8 4 15 10 15 15 0 11 -14 12 -23 2z"/>
<path d="M6908 7292 c-35 -3 -38 -6 -38 -33 0 -27 2 -29 28 -23 63 15 71 61
10 56z"/>
<path d="M6520 7280 c0 -5 7 -10 16 -10 8 0 12 5 9 10 -3 6 -10 10 -16 10 -5
0 -9 -4 -9 -10z"/>
<path d="M6830 7275 c0 -8 5 -15 10 -15 6 0 10 7 10 15 0 8 -4 15 -10 15 -5 0
-10 -7 -10 -15z"/>
<path d="M6710 7258 c0 -13 5 -30 10 -38 7 -11 10 -5 10 23 0 20 -4 37 -10 37
-5 0 -10 -10 -10 -22z"/>
<path d="M6680 7254 c0 -10 5 -26 10 -34 8 -11 9 -7 4 15 -8 37 -14 45 -14 19z"/>
<path d="M6580 7245 c-9 -10 -9 -15 -1 -15 6 0 11 4 11 9 0 5 10 12 23 14 21
4 21 4 1 6 -12 0 -27 -6 -34 -14z"/>
<path d="M6830 7230 c0 -5 5 -10 10 -10 6 0 10 5 10 10 0 6 -4 10 -10 10 -5 0
-10 -4 -10 -10z"/>
<path d="M7080 7224 c0 -8 5 -12 10 -9 6 4 8 11 5 16 -9 14 -15 11 -15 -7z"/>
<path d="M7111 7207 c-15 -19 -4 -27 36 -27 24 0 33 5 33 16 0 11 -5 14 -16
10 -9 -4 -22 -2 -29 4 -9 7 -16 6 -24 -3z"/>
<path d="M7215 7200 c4 -6 11 -8 16 -5 14 9 11 15 -7 15 -8 0 -12 -5 -9 -10z"/>
<path d="M6698 7183 c7 -3 16 -2 19 1 4 3 -2 6 -13 5 -11 0 -14 -3 -6 -6z"/>
<path d="M6594 7075 c-12 -9 -14 -14 -6 -15 7 0 10 -5 7 -11 -4 -6 -10 -8 -13
-5 -4 5 -42 -66 -42 -79 0 -1 9 -5 19 -8 20 -5 41 26 41 61 0 9 7 26 15 36 17
22 19 36 7 36 -5 0 -17 -7 -28 -15z"/>
<path d="M6808 7082 c-31 -3 -38 -7 -38 -25 0 -44 14 -51 54 -25 34 22 46 43
29 50 -5 2 -25 2 -45 0z"/>
<path d="M1937 6808 c-13 -45 -6 -74 42 -198 l49 -125 12 45 c7 25 38 97 71
160 39 77 55 118 48 125 -5 5 -56 12 -113 13 -101 4 -103 3 -109 -20z"/>
<path d="M3016 6779 c-10 -17 -16 -32 -14 -33 1 -2 57 -44 124 -94 l121 -90
28 22 c27 22 27 23 11 48 -16 25 -225 178 -243 178 -5 0 -17 -14 -27 -31z"/>
<path d="M2963 6703 c-14 -20 -19 -47 -20 -93 -1 -51 0 -58 6 -30 6 28 9 31
15 17 5 -10 6 -30 3 -46 -5 -21 0 -34 17 -50 12 -11 35 -48 51 -82 l29 -60 26
49 c14 27 48 69 75 92 28 24 51 46 53 50 2 6 -176 143 -224 173 -8 4 -19 -3
-31 -20z"/>
<path d="M2850 6618 l-45 -20 39 -14 c22 -8 40 -13 41 -12 3 5 15 68 12 67 -1
0 -22 -10 -47 -21z"/>
<path d="M2911 6574 c0 -11 3 -14 6 -6 3 7 2 16 -1 19 -3 4 -6 -2 -5 -13z"/>
<path d="M3885 6507 c-50 -34 -128 -90 -173 -124 -46 -35 -91 -67 -100 -72
-13 -8 -14 -12 -3 -25 15 -18 62 -21 77 -6 7 7 18 4 34 -10 22 -19 25 -19 47
-4 32 20 45 8 16 -14 -17 -13 -20 -21 -13 -32 12 -19 13 -30 2 -30 -5 0 -14
12 -21 26 -10 22 -16 25 -41 21 -16 -4 -32 -2 -35 3 -12 19 -45 11 -45 -11 0
-17 -4 -20 -22 -15 -13 3 -29 6 -35 6 -7 0 -13 5 -13 11 0 7 10 9 25 5 14 -4
25 -4 25 -1 0 6 -19 46 -26 54 -1 2 -41 -24 -88 -58 l-85 -62 33 -57 c18 -31
41 -91 51 -132 10 -41 31 -109 47 -150 17 -41 34 -85 38 -97 l9 -21 83 18 c46
10 109 23 141 30 l58 12 -6 39 c-9 49 11 53 21 4 3 -20 12 -35 20 -35 7 0 82
12 166 26 84 14 191 31 238 39 90 14 209 41 216 48 9 9 -18 143 -33 167 -32
48 -486 510 -502 509 -9 0 -57 -28 -106 -62z m145 -487 c0 -5 -4 -10 -10 -10
-5 0 -10 5 -10 10 0 6 5 10 10 10 6 0 10 -4 10 -10z m10 -40 c0 -5 -4 -10 -10
-10 -5 0 -10 5 -10 10 0 6 5 10 10 10 6 0 10 -4 10 -10z m10 -70 c0 -5 -2 -10
-4 -10 -3 0 -8 5 -11 10 -3 6 -1 10 4 10 6 0 11 -4 11 -10z m5 -30 c3 -5 1
-10 -4 -10 -6 0 -11 5 -11 10 0 6 2 10 4 10 3 0 8 -4 11 -10z"/>
<path d="M3283 6549 c-8 -8 -7 -20 3 -45 8 -18 15 -55 15 -81 l2 -48 8 45 c19
109 7 164 -28 129z"/>
<path d="M3186 6478 c-43 -32 -66 -58 -87 -100 -16 -32 -33 -58 -37 -58 -4 0
-22 33 -40 74 -19 41 -43 83 -54 93 -20 18 -20 17 -13 -32 4 -28 39 -142 77
-255 57 -170 68 -212 62 -245 -7 -43 -83 -166 -99 -161 -17 6 -104 -43 -119
-67 -8 -12 -18 -35 -21 -52 l-7 -30 20 24 c18 23 20 23 45 6 41 -26 37 -47 -4
-22 -17 10 -23 9 -26 -1 -3 -7 -11 -19 -19 -26 -7 -8 -16 -32 -19 -55 -3 -23
-7 -59 -10 -81 -4 -33 -2 -40 12 -40 10 0 45 -13 78 -29 l61 -28 64 86 c63 83
68 88 165 135 81 39 122 52 218 69 87 15 116 24 113 34 -3 7 -28 84 -56 170
-27 87 -63 181 -80 210 l-30 52 -106 -75 c-97 -67 -144 -89 -144 -65 0 5 10
11 23 15 12 3 60 33 107 67 47 33 90 64 97 67 8 5 -1 33 -33 95 -37 74 -44 98
-44 146 0 57 -15 121 -29 121 -4 0 -33 -19 -65 -42z"/>
<path d="M392 6358 c-19 -19 -14 -30 8 -18 11 6 20 15 20 20 0 14 -14 12 -28
-2z"/>
<path d="M1 5973 c0 -318 1 -318 19 -278 10 22 19 52 19 67 1 21 5 25 21 21
11 -3 20 -6 20 -8 0 -1 -18 -46 -40 -100 l-40 -98 0 -247 c0 -243 0 -247 23
-267 31 -29 74 -40 207 -53 63 -6 131 -13 150 -16 28 -3 18 5 -51 38 -67 34
-97 56 -139 103 -28 33 -81 92 -116 132 -35 39 -64 77 -64 84 0 18 63 -46 162
-162 79 -94 87 -100 173 -138 50 -22 122 -50 160 -61 86 -26 136 -23 420 26
110 19 230 34 266 34 75 0 81 -2 339 -127 96 -47 274 -132 395 -190 121 -58
234 -119 251 -135 19 -17 37 -51 48 -86 35 -112 81 -142 215 -142 53 0 61 2
61 19 0 25 63 106 156 201 l73 75 -65 73 -66 72 -81 0 c-93 1 -156 12 -167 32
-5 7 -37 54 -72 104 -67 97 -103 126 -243 197 -97 49 -140 66 -215 83 -129 30
-270 93 -405 182 -165 109 -317 215 -352 248 -16 14 -89 68 -163 118 -131 90
-226 135 -346 166 -27 6 -59 27 -94 61 -36 34 -72 57 -107 70 -82 28 -166 83
-235 155 -47 48 -69 64 -90 64 l-28 0 1 -317z"/>
<path d="M655 6233 c15 -15 195 -134 195 -129 0 7 -117 89 -165 117 -22 12
-35 18 -30 12z"/>
<path d="M4480 6130 c0 -8 5 -22 10 -30 9 -13 10 -13 10 0 0 8 -5 22 -10 30
-9 13 -10 13 -10 0z"/>
<path d="M933 6123 c9 -2 23 -2 30 0 6 3 -1 5 -18 5 -16 0 -22 -2 -12 -5z"/>
<path d="M1208 6003 c7 -3 16 -2 19 1 4 3 -2 6 -13 5 -11 0 -14 -3 -6 -6z"/>
<path d="M1438 5925 c6 -11 13 -28 16 -37 3 -9 22 -22 43 -27 32 -9 40 -8 51
6 11 16 7 19 -39 35 -28 10 -58 23 -67 30 -13 11 -14 10 -4 -7z"/>
<path d="M5053 5888 c8 -18 50 -101 94 -185 l79 -152 125 75 c68 42 130 80
137 86 8 7 12 41 12 103 l0 92 -122 6 c-66 4 -170 7 -230 7 l-108 0 13 -32z"/>
<path d="M2370 4995 c0 -9 6 -12 15 -9 8 4 12 10 9 15 -8 14 -24 10 -24 -6z"/>
<path d="M2674 4577 c-103 -106 -144 -158 -144 -184 0 -22 2 -23 98 -23 l97
-1 105 -78 c94 -70 105 -76 108 -57 2 17 -171 393 -190 411 -2 3 -36 -28 -74
-68z"/>
<path d="M2858 4523 c-10 -2 -18 -6 -18 -9 0 -2 27 -59 61 -126 47 -93 60
-129 57 -155 -4 -31 -2 -33 29 -38 18 -3 49 -7 68 -11 35 -5 35 -4 29 23 -8
29 -190 317 -202 319 -4 1 -15 0 -24 -3z"/>
<path d="M3392 4173 c-30 -59 -33 -107 -14 -188 l19 -80 43 -8 c32 -7 45 -5
51 5 7 10 11 10 21 -4 9 -11 32 -18 67 -20 l55 -3 21 138 21 137 -20 0 c-12 0
-41 9 -65 20 -59 27 -186 29 -199 3z m128 -203 c0 -5 -4 -10 -10 -10 -5 0 -10
5 -10 10 0 6 5 10 10 10 6 0 10 -4 10 -10z m-10 -40 c0 -5 -2 -10 -4 -10 -3 0
-8 5 -11 10 -3 6 -1 10 4 10 6 0 11 -4 11 -10z"/>
</g>
</svg>
