<?xml version="1.0" standalone="no"?>
<!DOCTYPE svg PUBLIC "-//W3C//DTD SVG 20010904//EN"
 "http://www.w3.org/TR/2001/REC-SVG-20010904/DTD/svg10.dtd">
<svg version="1.0" xmlns="http://www.w3.org/2000/svg"
 width="800.000000pt" height="800.000000pt" viewBox="0 0 800.000000 800.000000"
 preserveAspectRatio="xMidYMid meet">
<metadata>
Created by potrace 1.16, written by Peter Selinger 2001-2019
</metadata>
<g transform="translate(0.000000,800.000000) scale(0.100000,-0.100000)"
fill="#000000" stroke="none">
<path d="M0 4000 l0 -4000 499 0 c460 0 506 2 596 20 111 23 115 23 115 11 0
-5 -21 -13 -48 -19 -32 -6 668 -10 2151 -11 l2197 -1 -6 28 c-17 67 -21 77
-30 77 -5 0 -12 -13 -15 -30 -5 -25 -7 -27 -14 -12 -4 9 -5 26 -2 37 6 23 4
23 -41 11 -25 -8 -32 -7 -29 2 2 7 26 17 53 24 37 8 42 11 20 12 -16 1 -35 9
-43 19 -13 16 -14 15 -8 -5 4 -13 2 -23 -3 -23 -5 0 -12 9 -15 20 -5 21 7 34
33 36 8 1 26 2 39 3 23 1 23 3 18 53 -4 28 -12 55 -19 59 -7 4 -9 11 -5 15 12
13 37 -18 37 -47 0 -15 4 -30 9 -33 5 -3 7 -26 5 -51 -4 -45 -4 -45 23 -39 37
9 44 14 38 24 -3 4 2 11 11 14 23 9 27 8 21 -7 -4 -10 2 -13 19 -9 13 2 24 0
24 -5 0 -6 -27 -16 -61 -23 -33 -7 -63 -18 -65 -24 -2 -6 2 -36 9 -66 l12 -55
113 -3 c95 -2 112 0 112 13 0 8 5 15 10 15 6 0 10 -7 10 -15 0 -13 80 -15 661
-15 656 0 660 0 654 20 -3 11 -2 20 3 20 5 0 12 -9 15 -20 4 -17 14 -20 61
-20 37 0 56 4 56 12 0 9 3 9 12 0 13 -13 66 -16 92 -6 19 7 22 64 4 82 -16 16
-2 28 16 13 9 -7 25 -10 38 -6 l23 6 -22 -20 c-15 -12 -23 -31 -23 -50 l0 -31
111 0 c102 0 111 1 104 18 -4 9 -10 27 -13 40 -2 13 -13 29 -23 35 -11 7 -19
15 -19 20 0 4 4 5 10 2 5 -3 18 -1 29 5 13 7 22 7 26 0 3 -5 1 -10 -4 -10 -6
0 -11 -9 -11 -20 0 -29 21 -70 37 -70 7 0 13 -4 13 -10 0 -6 70 -10 190 -10
l190 0 0 63 -1 62 -72 32 c-40 18 -108 49 -152 70 -44 20 -93 42 -108 49 -27
13 -28 12 -34 -16 -3 -17 -10 -30 -15 -30 -6 0 -7 11 -4 26 4 15 3 23 -2 20
-6 -3 -15 1 -22 9 -7 8 -31 24 -54 34 -26 11 -70 48 -116 99 l-73 81 -31 -27
c-27 -24 -31 -33 -29 -75 0 -27 3 -51 6 -53 8 -8 109 -26 154 -28 27 -1 45 -7
52 -18 10 -16 7 -17 -37 -11 -26 3 -55 10 -65 15 -10 5 -31 8 -46 6 -15 -1
-39 5 -54 15 -21 13 -26 26 -29 63 l-3 47 -90 4 c-49 2 -100 4 -113 4 -13 1
-37 14 -55 30 -17 16 -36 29 -42 29 -13 -1 65 -73 143 -133 35 -26 64 -53 66
-60 1 -7 9 -33 18 -58 l14 -46 -38 -22 c-31 -18 -40 -31 -53 -76 -9 -30 -21
-55 -26 -55 -12 0 -12 -2 7 56 9 27 24 58 33 68 10 13 11 17 2 11 -14 -8 -31
9 -31 33 0 18 38 14 49 -5 15 -28 35 -3 22 28 -5 13 -12 35 -15 49 -4 17 -32
44 -83 80 -124 88 -150 123 -167 218 -6 37 11 44 19 7 3 -14 7 -36 10 -50 4
-17 12 -25 27 -25 12 0 33 -11 47 -24 38 -34 193 -60 229 -38 9 6 6 14 -13 32
-27 26 -31 55 -13 95 10 23 9 29 -13 50 -44 44 -85 54 -164 39 -38 -8 -116
-19 -172 -26 -90 -10 -106 -10 -146 6 -24 9 -52 25 -62 36 -16 18 -16 20 -1
26 9 3 16 11 16 16 0 21 73 69 85 56 2 -2 8 -23 14 -47 8 -36 7 -45 -9 -61
-12 -12 -15 -20 -7 -23 12 -4 126 9 132 15 2 2 -2 44 -10 94 -21 129 -53 408
-48 417 12 21 21 -11 28 -95 7 -97 50 -406 56 -412 2 -2 44 5 92 16 100 24
142 18 195 -27 17 -14 33 -25 37 -25 4 0 4 24 0 53 -5 35 -4 49 3 42 6 -5 12
-23 14 -40 3 -27 7 -30 41 -33 41 -4 48 -16 18 -32 -13 -7 -22 -7 -26 0 -9 14
-35 12 -35 -3 0 -7 20 -33 45 -57 42 -41 45 -43 63 -27 30 27 49 21 23 -7
l-23 -25 68 -76 c74 -82 136 -124 158 -106 14 12 10 57 -5 67 -5 3 -9 13 -8
22 0 14 3 13 16 -6 8 -12 24 -22 34 -22 11 0 19 -4 19 -10 0 -5 -6 -10 -12
-10 -7 0 -13 -13 -14 -30 -1 -29 0 -30 49 -30 40 0 48 -3 43 -15 -4 -11 9 -22
42 -38 80 -40 160 -69 171 -63 6 4 19 -2 31 -14 11 -11 27 -20 35 -20 13 0 15
49 15 385 0 303 -3 384 -12 380 -7 -2 -57 -13 -111 -25 l-98 -22 8 -36 c4 -21
8 -53 8 -72 0 -37 21 -55 60 -51 19 1 18 0 -4 -19 -22 -19 -22 -20 -3 -20 27
0 35 -15 28 -46 -7 -26 -26 -33 -26 -9 0 8 -5 15 -11 15 -6 0 -9 7 -5 15 3 9
0 15 -8 15 -8 0 -16 9 -19 20 -3 11 -12 20 -21 20 -13 0 -15 7 -10 38 3 20 1
55 -3 77 -8 34 -13 40 -36 40 -39 1 -43 12 -8 20 20 4 31 13 31 23 0 14 2 15
9 3 8 -13 25 -11 118 10 l108 24 3 298 c2 260 0 297 -13 297 -8 0 -15 6 -15
14 0 16 -46 67 -53 59 -3 -3 -3 -12 0 -20 5 -13 3 -13 -16 -2 -36 23 -26 36
33 43 23 3 36 0 37 -7 2 -28 8 -50 18 -60 8 -8 11 33 11 140 0 140 -1 151 -19
156 -11 2 -21 15 -23 28 -4 29 -37 38 -51 14 -7 -13 -11 -14 -17 -5 -5 8 -15
10 -26 5 -11 -4 -41 -9 -69 -10 -27 -2 -44 -1 -37 2 6 2 9 9 6 14 -4 6 -11 6
-19 -1 -8 -7 -11 -25 -7 -55 3 -30 1 -45 -7 -45 -6 0 -11 15 -11 33 0 18 -5
38 -10 43 -7 7 -4 16 9 28 19 17 19 20 5 48 -15 28 -14 31 5 52 12 12 21 29
21 37 0 8 5 20 11 26 9 9 4 18 -17 36 -24 21 -28 31 -25 68 1 24 7 49 13 54 7
7 9 -5 6 -37 -5 -41 -2 -50 21 -72 20 -19 33 -24 51 -19 28 7 22 -4 -12 -21
-13 -6 -28 -25 -33 -42 -6 -17 -16 -38 -23 -47 -11 -13 -8 -20 17 -49 23 -27
36 -34 64 -33 20 1 47 9 61 19 15 9 31 14 35 11 5 -3 7 14 5 37 -4 38 -3 40 7
21 7 -13 16 -23 22 -23 5 0 6 -7 3 -16 -4 -11 -1 -14 12 -12 39 7 13 108 -28
108 -11 0 -20 7 -20 15 0 18 2 18 34 4 14 -7 30 -24 35 -38 7 -19 10 9 10 103
1 122 0 128 -17 114 -30 -26 -39 -28 -53 -11 -12 15 -12 16 4 10 13 -5 26 1
43 20 22 23 24 34 23 112 0 47 -3 80 -6 74 -2 -7 -10 -13 -18 -13 -7 0 -18 -7
-25 -15 -7 -8 -20 -15 -29 -15 -9 0 -28 -7 -43 -14 -16 -8 -28 -11 -28 -7 0
13 24 31 41 31 19 0 69 37 69 51 0 16 -22 9 -59 -19 -20 -16 -51 -36 -70 -45
-32 -16 -36 -16 -53 0 -17 15 -21 15 -56 -2 -20 -11 -40 -21 -44 -23 -3 -2 -4
6 -1 16 4 18 47 36 81 35 6 0 12 7 12 16 0 12 5 10 20 -9 35 -46 30 -14 -6 37
-29 42 -45 54 -93 72 -31 11 -66 31 -78 43 -11 13 -37 72 -57 133 -42 123
-102 218 -150 235 -41 14 -42 14 -56 -21 -17 -41 -82 -89 -185 -135 -71 -32
-84 -41 -79 -57 5 -16 3 -17 -14 -8 -16 9 -41 0 -138 -45 -66 -31 -121 -58
-123 -60 -12 -11 20 -23 64 -24 49 -1 64 1 95 13 8 3 36 7 63 10 47 5 48 4 92
-47 25 -28 109 -123 188 -211 155 -174 190 -218 179 -229 -4 -4 1 -12 11 -18
29 -16 59 -96 52 -139 -6 -35 -4 -38 40 -70 26 -18 41 -35 35 -37 -6 -2 -19 3
-29 12 -10 9 -22 16 -28 16 -6 0 -18 10 -26 22 -15 22 -16 22 -17 3 0 -28 -47
-125 -60 -125 -6 0 1 22 15 50 14 27 25 60 25 73 0 13 7 32 15 43 8 10 15 27
15 36 0 34 -31 95 -55 106 -17 8 -22 17 -18 31 4 16 -22 51 -111 151 -65 71
-122 130 -127 130 -34 0 -45 -19 -43 -75 1 -41 -1 -54 -9 -46 -6 6 -11 34 -12
62 -1 41 2 52 19 61 12 6 23 12 25 14 4 3 -36 57 -92 126 -36 44 -41 47 -80
44 -23 -2 -53 -8 -67 -13 -14 -6 -44 -19 -68 -29 -24 -9 -45 -21 -48 -26 -6
-10 37 -132 48 -136 4 -2 8 -16 8 -31 0 -15 9 -54 20 -87 13 -37 19 -70 15
-89 -8 -41 -77 -178 -91 -183 -6 -1 3 28 21 65 63 133 62 122 15 268 -23 72
-55 159 -71 195 l-30 65 -92 -1 c-51 0 -101 -4 -112 -9 -18 -7 -19 -7 -4 9 9
10 38 20 64 24 l49 7 23 90 c12 50 23 106 23 125 1 31 11 67 34 121 5 12 -9
20 -67 38 l-74 24 -67 -33 c-37 -18 -74 -42 -81 -54 -17 -23 -34 -13 -19 12
13 22 142 90 171 91 12 1 45 -8 73 -19 73 -29 76 -28 71 31 -3 50 -4 52 -48
65 -10 2 -9 13 2 45 17 47 19 73 6 65 -5 -3 -12 1 -15 10 -11 29 -6 37 12 21
9 -9 29 -20 42 -26 15 -6 18 -10 9 -10 -20 -1 -47 -83 -30 -89 29 -10 41 -36
41 -87 0 -43 4 -56 19 -65 13 -7 20 -7 23 0 2 6 60 37 129 69 69 32 147 71
173 86 l46 27 0 80 c0 78 -1 80 -52 161 -62 98 -60 95 -65 79 -3 -6 -9 -9 -14
-6 -6 3 -15 1 -22 -4 -13 -11 -292 -142 -301 -142 -15 0 -4 19 14 25 11 3 82
36 157 73 76 36 146 69 155 72 11 3 14 10 10 17 -6 9 -66 -14 -217 -83 -116
-53 -273 -122 -350 -154 -77 -32 -166 -70 -199 -84 -56 -26 -80 -30 -54 -9 7
6 85 41 173 78 237 100 511 222 585 260 136 70 403 195 408 191 2 -3 -70 -42
-162 -88 -181 -90 -201 -110 -123 -124 23 -4 56 -8 73 -8 22 -1 39 -10 58 -34
32 -37 24 -43 -13 -8 -19 17 -42 25 -83 29 l-58 6 15 -27 c9 -15 31 -52 50
-82 33 -53 34 -59 35 -155 0 -86 3 -105 23 -136 64 -104 111 -128 130 -70 13
36 48 65 165 133 73 44 85 32 13 -13 -37 -22 -48 -34 -44 -46 5 -13 2 -15 -11
-10 -27 11 -86 -30 -103 -71 -16 -40 -19 -36 29 -55 57 -24 118 -115 163 -244
35 -100 66 -153 87 -153 5 0 30 -9 56 -20 34 -15 57 -34 81 -70 19 -28 36 -50
38 -50 3 0 40 26 84 57 l79 57 0 66 c0 36 -4 70 -9 75 -4 6 -14 31 -21 57 -7
26 -23 57 -36 69 -24 22 -42 23 -131 4 -19 -5 -33 -3 -33 2 0 11 87 33 129 33
34 0 66 -32 85 -85 l15 -40 0 63 c1 35 -4 72 -9 82 -7 13 -7 21 0 25 17 10 11
25 -10 25 -11 0 -20 5 -20 11 0 6 9 9 20 6 20 -5 20 0 20 2519 l0 2524 -2100
0 c-1860 0 -2100 -2 -2100 -15 0 -8 -4 -15 -9 -15 -5 0 -14 7 -21 15 -10 12
-36 15 -115 15 l-102 0 -12 -102 c-27 -242 -26 -278 4 -376 16 -53 32 -89 38
-85 6 4 7 1 3 -6 -10 -16 75 -262 87 -254 6 3 7 1 3 -6 -9 -15 44 -172 55
-165 5 3 6 -1 3 -9 -2 -7 7 -45 21 -84 28 -79 32 -108 11 -81 -7 10 -17 14
-21 10 -5 -4 -5 -1 -1 6 10 17 -44 173 -57 165 -6 -4 -7 -1 -3 6 10 16 -55
202 -68 194 -5 -3 -6 -1 -2 6 8 13 -94 332 -104 326 -4 -2 -6 47 -6 110 1 83
-2 115 -11 115 -6 0 -15 5 -19 12 -5 7 -1 9 13 6 22 -6 22 -6 39 150 l7 62
-1767 0 -1766 0 0 -4000z m3443 3975 c4 -8 2 -17 -3 -20 -6 -4 -10 3 -10 14 0
25 6 27 13 6z m315 -17 c-2 -6 -10 -14 -16 -16 -7 -2 -10 2 -6 12 7 18 28 22
22 4z m-355 -18 c3 -13 0 -20 -9 -20 -8 0 -14 9 -14 20 0 11 4 20 9 20 5 0 11
-9 14 -20z m369 -22 c-6 -6 -19 -7 -29 -3 -15 6 -15 8 -3 13 8 3 19 12 25 21
8 14 10 14 13 -3 2 -10 -1 -23 -6 -28z m58 -22 c0 -14 -5 -28 -11 -31 -16 -11
-23 3 -10 19 10 11 8 17 -6 25 -16 9 -16 10 5 11 17 0 22 -6 22 -24z m-410 0
c0 -8 -4 -18 -10 -21 -5 -3 -10 3 -10 14 0 12 5 21 10 21 6 0 10 -6 10 -14z
m344 -12 c22 -8 20 -21 -4 -27 -22 -6 -35 7 -25 23 7 12 8 12 29 4z m-344 -54
c0 -11 -4 -20 -10 -20 -5 0 -10 9 -10 20 0 11 5 20 10 20 6 0 10 -9 10 -20z
m320 -7 c0 -17 -32 -16 -56 1 -18 14 -16 15 18 13 23 -1 38 -7 38 -14z m-50
-24 c0 -6 -9 -13 -19 -16 -12 -3 -17 -11 -14 -19 6 -16 -15 -18 -37 -4 -13 8
-13 10 2 10 9 0 20 9 23 20 7 21 45 28 45 9z m-240 -9 c0 -5 -9 -10 -20 -10
-11 0 -20 5 -20 10 0 6 9 10 20 10 11 0 20 -4 20 -10z m255 -1432 c21 3 35 0
35 -7 0 -6 -11 -8 -30 -4 -23 4 -30 2 -30 -11 0 -9 -4 -16 -10 -16 -5 0 -10 7
-10 16 0 8 -4 12 -10 9 -5 -3 -16 -3 -22 1 -9 6 -5 10 12 14 14 4 26 4 28 0 1
-3 18 -4 37 -2z m75 2 c0 -5 -7 -10 -15 -10 -8 0 -15 5 -15 10 0 6 7 10 15 10
8 0 15 -4 15 -10z m-295 -20 c-3 -5 -13 -10 -21 -10 -8 0 -14 5 -14 10 0 6 9
10 21 10 11 0 17 -4 14 -10z m65 0 c0 -5 -9 -10 -20 -10 -11 0 -20 5 -20 10 0
6 9 10 20 10 11 0 20 -4 20 -10z m60 6 c0 -9 -40 -13 -46 -5 -3 5 6 9 20 9 14
0 26 -2 26 -4z m-180 -15 c0 -5 -7 -12 -16 -15 -24 -9 -28 -7 -14 9 14 17 30
20 30 6z m-63 -48 c-9 -9 -20 -13 -24 -9 -4 4 -1 11 7 16 25 16 35 11 17 -7z
m327 1 c4 -10 1 -14 -6 -12 -15 5 -23 28 -10 28 5 0 13 -7 16 -16z m231 -4 c3
-5 1 -10 -4 -10 -6 0 -11 5 -11 10 0 6 2 10 4 10 3 0 8 -4 11 -10z m-605 -10
c0 -5 -9 -10 -21 -10 -11 0 -17 5 -14 10 3 6 13 10 21 10 8 0 14 -4 14 -10z
m630 -44 c0 -5 -7 -3 -15 4 -8 7 -12 17 -9 22 7 10 24 -9 24 -26z m-680 3 c-7
-11 -14 -18 -17 -15 -8 8 5 36 17 36 7 0 7 -6 0 -21z m710 -45 c0 -8 -4 -14
-9 -14 -11 0 -22 26 -14 34 9 9 23 -3 23 -20z m-711 -26 c1 -5 -3 -8 -8 -8
-11 0 -21 37 -13 45 6 5 20 -19 21 -37z m725 -24 c9 -22 -3 -32 -14 -14 -12
19 -12 30 -1 30 5 0 12 -7 15 -16z m6 -64 c0 -11 -4 -20 -10 -20 -5 0 -10 9
-10 20 0 11 5 20 10 20 6 0 10 -9 10 -20z m0 -60 c0 -11 -4 -20 -10 -20 -5 0
-10 9 -10 20 0 11 5 20 10 20 6 0 10 -9 10 -20z m10 -55 c7 -8 8 -15 2 -15 -5
0 -15 7 -22 15 -7 8 -8 15 -2 15 5 0 15 -7 22 -15z m1916 -72 c16 -32 39 -73
51 -92 13 -18 20 -38 17 -43 -4 -5 -31 34 -60 88 -59 106 -58 104 -45 104 5 0
22 -26 37 -57z m-1871 37 c3 -5 -1 -10 -9 -10 -8 0 -18 5 -21 10 -3 6 1 10 9
10 8 0 18 -4 21 -10z m13 -38 c6 -18 -15 -14 -22 4 -4 10 -1 14 6 12 6 -2 14
-10 16 -16z m2 -52 c0 -11 -4 -20 -10 -20 -5 0 -10 9 -10 20 0 11 5 20 10 20
6 0 10 -9 10 -20z m0 -54 c0 -8 -4 -18 -10 -21 -5 -3 -10 3 -10 14 0 12 5 21
10 21 6 0 10 -6 10 -14z m1442 -24 c-13 -10 -30 -43 -42 -80 -10 -35 -29 -72
-41 -83 -20 -17 -21 -21 -8 -51 8 -18 12 -39 11 -45 -2 -8 8 -13 24 -13 26 0
26 -2 20 -41 -6 -36 -4 -40 10 -35 9 3 27 -3 41 -14 14 -11 32 -20 39 -20 7 0
19 -6 26 -12 42 -40 46 -41 82 -18 19 11 50 22 68 23 18 2 44 10 58 18 20 13
42 15 105 10 44 -4 134 -3 200 1 112 7 122 9 143 33 25 29 27 47 11 96 -27 79
-113 135 -166 108 -13 -7 -29 -8 -40 -4 -16 8 -15 9 7 13 14 2 30 8 36 13 28
23 88 -5 148 -67 32 -33 36 -43 36 -91 0 -107 -19 -116 -274 -120 -116 -1
-193 -7 -201 -13 -8 -6 -32 -13 -54 -15 -23 -2 -59 -15 -81 -27 l-41 -23 -24
27 c-25 29 -75 48 -75 29 0 -18 -51 -12 -115 14 -71 29 -65 28 -65 11 0 -8 16
-33 35 -56 44 -53 52 -84 60 -250 7 -126 9 -139 41 -201 24 -48 46 -76 79
-100 25 -18 45 -36 45 -41 0 -10 -10 -5 -51 23 -22 15 -16 -1 43 -117 37 -74
68 -144 68 -157 0 -12 -12 -44 -26 -71 l-27 -50 23 -18 c12 -10 28 -18 36 -18
8 0 14 -6 14 -12 0 -7 12 2 26 20 28 35 74 45 74 16 0 -13 -3 -14 -14 -5 -10
9 -19 7 -37 -9 l-24 -20 35 -30 c39 -33 35 -38 -12 -14 -22 11 -33 13 -41 5
-6 -6 -24 -11 -39 -11 -25 0 -27 2 -16 19 9 15 8 23 -9 44 l-20 26 -22 -29
c-47 -65 -45 -66 -206 136 l-147 186 -52 -49 c-28 -27 -85 -81 -127 -121 -54
-50 -71 -72 -58 -72 10 0 19 -4 19 -10 0 -12 -6 -13 -29 0 -15 7 -32 -5 -95
-66 -43 -41 -81 -72 -86 -69 -9 5 75 90 139 143 24 18 24 19 7 68 -9 27 -34
69 -56 93 -38 41 -42 43 -80 37 -132 -21 -117 -23 -160 24 -22 24 -40 50 -40
59 0 10 17 -2 44 -31 24 -27 51 -48 60 -48 39 0 103 23 114 41 11 17 9 19 -12
19 -47 0 -40 39 8 44 28 3 72 36 48 36 -7 0 -12 4 -12 9 0 5 11 8 25 7 24 -1
37 -26 13 -26 -9 0 -9 -3 -1 -11 13 -13 -3 -59 -20 -59 -5 0 -7 -6 -4 -14 3
-8 1 -17 -6 -20 -8 -3 -6 -11 8 -23 34 -30 85 -100 85 -115 0 -8 6 -22 13 -31
11 -15 25 -4 127 92 109 102 114 109 100 128 -8 12 -45 59 -81 105 -36 46 -69
97 -73 111 -9 37 -43 65 -118 98 -46 20 -80 46 -125 93 -34 36 -66 66 -71 66
-5 0 -36 -58 -70 -129 -55 -116 -87 -161 -124 -173 -12 -4 11 -55 49 -106 14
-18 22 -36 19 -39 -10 -10 -32 15 -61 69 -15 29 -29 55 -31 57 -6 7 -114 -54
-114 -64 0 -6 17 -28 38 -50 50 -52 67 -97 82 -221 14 -113 26 -135 85 -160
35 -14 38 -14 26 0 -7 9 -9 16 -3 16 15 0 35 -28 27 -40 -3 -5 1 -10 9 -10 9
0 16 -5 16 -12 0 -9 3 -9 12 0 17 17 31 15 24 -3 -3 -8 -2 -15 3 -15 5 0 11
-9 14 -20 3 -13 10 -18 21 -14 11 4 16 1 16 -10 0 -9 8 -16 17 -16 13 0 14 -3
6 -11 -6 -6 -9 -18 -6 -25 9 -24 23 -15 24 14 1 29 3 24 13 -21 5 -22 11 -26
29 -23 90 19 97 18 97 -8 0 -20 4 -24 18 -20 9 3 -3 -12 -27 -34 -41 -37 -43
-41 -36 -80 13 -79 20 -80 117 -12 82 57 108 70 108 53 0 -5 -43 -36 -96 -71
-70 -46 -94 -67 -90 -79 5 -11 2 -14 -11 -9 -10 4 -44 -8 -85 -30 -38 -20 -73
-33 -76 -29 -4 4 -2 9 4 12 5 2 38 20 73 40 52 31 61 41 56 58 -17 54 -26 101
-22 116 3 12 -1 15 -17 12 -23 -5 -22 -4 39 45 15 12 26 24 23 27 -11 12 -104
-15 -119 -34 -15 -18 -136 -91 -152 -91 -23 0 1 20 53 45 33 16 68 37 77 47
14 16 15 20 1 36 -9 9 -19 27 -22 40 -9 28 -17 28 -46 -3 -12 -13 -27 -22 -32
-19 -5 4 1 17 13 30 19 21 20 24 5 24 -10 0 -23 14 -31 33 -7 18 -22 40 -32
49 -19 17 -93 52 -98 46 -1 -2 6 -50 16 -108 21 -120 23 -158 10 -144 -10 9
-61 301 -76 429 -10 82 -38 152 -82 203 l-38 43 -90 -42 c-49 -23 -92 -45 -95
-49 -3 -4 -42 -24 -87 -45 l-81 -37 23 -53 c23 -52 23 -55 10 -140 -15 -90
-14 -105 10 -105 7 0 15 -5 17 -11 2 -7 13 -7 33 2 38 17 126 77 143 98 11 14
12 14 10 -4 -3 -21 -113 -103 -140 -104 -23 -1 -28 -22 -10 -49 8 -12 12 -26
8 -30 -7 -6 -13 1 -35 37 -7 11 -12 11 -32 0 -13 -7 -28 -13 -32 -14 -12 0
-27 -28 -27 -50 0 -18 10 -23 70 -34 38 -7 79 -10 90 -6 11 4 20 2 20 -4 0
-18 -48 -24 -95 -12 -72 18 -75 17 -75 -36 0 -59 10 -99 20 -83 5 9 15 8 38
-4 43 -22 46 -21 61 22 16 44 48 82 70 82 12 -1 11 -5 -6 -19 -23 -19 -63
-100 -63 -126 0 -7 13 -43 30 -79 35 -78 8 -82 248 38 95 47 176 86 180 86 8
0 48 -238 41 -244 -2 -2 -74 -39 -159 -81 -157 -79 -210 -110 -210 -124 0 -5
16 -21 35 -36 l36 -27 70 58 c38 31 74 64 79 73 10 19 15 15 24 -21 6 -25 -8
-41 -16 -19 -1 5 -15 -1 -31 -13 -25 -20 -26 -25 -16 -54 10 -30 27 -40 43
-25 4 4 19 8 34 10 26 3 26 3 7 -12 -10 -8 -34 -21 -52 -27 -18 -7 -33 -16
-33 -21 0 -16 50 -57 68 -57 13 0 14 2 3 9 -10 6 -5 13 19 25 44 22 57 20 35
-4 -10 -11 -14 -20 -8 -20 5 0 19 -8 31 -18 16 -14 18 -22 10 -30 -9 -9 -9
-12 0 -12 7 0 16 -10 21 -23 12 -32 100 -167 109 -167 16 -1 83 -70 77 -80 -4
-6 1 -20 11 -31 21 -23 11 -38 -12 -18 -15 12 -16 11 -10 -9 5 -13 3 -22 -4
-22 -6 0 -13 13 -16 30 -6 25 -33 54 -103 107 -2 2 -1 6 2 9 4 4 28 -9 53 -30
26 -20 51 -36 56 -36 18 0 5 16 -36 47 -24 17 -65 65 -92 105 -27 40 -57 75
-67 76 -15 3 -18 0 -12 -17 8 -26 -6 -27 -30 -1 -28 31 -79 43 -154 35 -61 -6
-74 -11 -122 -51 -30 -24 -58 -44 -64 -44 -12 0 84 94 105 103 13 5 12 8 -4
21 -27 22 -33 20 -45 -16 -15 -41 -25 -30 -13 15 6 21 6 40 0 50 -10 18 6 25
17 7 7 -11 45 5 45 18 0 4 -20 15 -44 24 l-44 16 -36 -91 c-34 -87 -35 -92
-18 -110 16 -19 16 -19 -5 -13 -21 7 -23 4 -23 -29 0 -24 10 -51 29 -78 16
-23 30 -50 32 -61 4 -17 5 -17 31 3 26 21 48 27 48 14 0 -5 -16 -18 -35 -31
-33 -21 -35 -25 -35 -78 0 -63 -8 -83 -57 -138 -54 -60 -73 -110 -73 -197 0
-90 -22 -164 -49 -166 -31 -2 -74 47 -146 167 -37 63 -82 135 -99 160 -17 25
-52 85 -77 133 l-45 88 -38 -30 c-20 -16 -41 -31 -47 -33 -5 -2 -7 -17 -3 -35
4 -21 11 -30 20 -26 8 3 14 0 14 -6 0 -6 -7 -11 -15 -11 -8 0 -22 -11 -31 -25
-13 -20 -14 -31 -5 -56 15 -44 13 -48 -10 -20 -23 27 -75 33 -89 10 -8 -11
-12 -10 -23 6 -8 10 -13 25 -10 32 3 8 -3 13 -16 13 -14 0 -19 5 -14 15 8 21
-25 55 -45 47 -15 -5 -15 -3 -4 10 15 19 3 31 -18 17 -23 -14 -32 -11 -25 10
9 29 -9 33 -52 14 -21 -10 -40 -18 -42 -20 -1 -1 9 -17 23 -36 36 -47 42 -93
21 -157 -15 -44 -15 -58 -5 -96 18 -64 26 -67 100 -34 36 16 71 30 78 30 26 0
1 -19 -64 -49 -57 -27 -64 -33 -55 -49 6 -11 23 -27 38 -37 15 -10 40 -28 54
-42 24 -22 67 -24 53 -2 -3 5 1 9 8 9 8 0 31 15 51 34 20 18 37 30 37 25 0 -5
7 -6 15 -3 20 8 19 -6 -2 -22 -17 -13 -17 -14 4 -20 41 -11 15 -32 -34 -26
-33 3 -44 2 -39 -7 5 -7 0 -11 -13 -11 -14 0 -19 -5 -15 -15 5 -12 2 -14 -12
-8 -23 8 -24 9 85 -120 56 -66 71 -91 62 -97 -14 -8 -25 5 -160 178 -27 35
-62 72 -78 84 -15 12 -44 36 -63 54 l-35 32 -92 -43 c-71 -33 -92 -47 -87 -59
7 -17 -6 -21 -22 -7 -5 6 -37 -4 -79 -24 -38 -18 -74 -30 -79 -27 -12 7 157
102 183 102 5 0 45 17 88 38 l79 38 -18 40 c-18 38 -19 87 -2 157 5 23 3 27
-14 27 -13 0 -22 9 -26 25 -4 14 -11 23 -16 20 -6 -3 -10 -1 -10 5 0 7 -7 9
-15 6 -8 -3 -22 -9 -31 -12 -26 -11 -6 47 28 79 l29 28 -66 85 c-37 46 -70 82
-75 79 -5 -3 -20 13 -33 35 -27 45 -39 41 -52 -17 -5 -26 -3 -33 8 -33 11 0
13 -7 9 -22 -5 -23 -5 -23 16 -4 26 23 28 36 6 36 -14 0 -14 3 -4 15 11 13 14
13 25 -2 9 -12 10 -23 3 -36 -6 -12 -6 -23 2 -31 8 -11 5 -15 -13 -20 -21 -5
-24 -11 -21 -37 4 -30 3 -31 -14 -16 -17 15 -19 14 -41 -27 -21 -37 -23 -52
-19 -119 6 -93 -8 -114 -99 -146 -98 -34 -120 -24 -220 103 -46 57 -83 108
-83 113 0 15 39 47 47 39 4 -3 -3 -16 -14 -28 l-21 -21 60 -76 c62 -77 94
-111 107 -111 4 0 30 29 58 64 46 56 93 90 93 65 0 -13 28 1 34 18 4 9 -5 30
-20 50 -15 19 -23 41 -20 50 4 10 2 14 -8 10 -7 -3 -19 0 -25 6 -8 8 -11 7
-11 -5 0 -29 12 -48 30 -48 11 0 22 -4 25 -10 3 -5 -1 -10 -9 -10 -9 0 -16 -4
-16 -10 0 -5 7 -7 15 -4 22 9 18 -14 -4 -26 -16 -8 -21 -6 -26 11 -4 11 -5 23
-2 25 8 9 -39 54 -57 54 -9 0 -16 5 -16 10 0 6 6 10 14 10 9 0 12 7 9 20 -3
11 0 20 6 20 6 0 11 -10 11 -22 0 -18 2 -20 9 -8 6 8 7 18 5 22 -3 4 6 13 20
20 16 7 26 19 26 32 0 15 3 17 11 9 14 -14 42 -5 32 10 -3 5 -6 25 -5 44 1 18
-1 33 -3 33 -20 0 -115 -52 -110 -60 13 -21 -33 -9 -55 15 -13 14 -29 25 -36
25 -8 0 -11 7 -7 18 5 13 1 12 -16 -5 -11 -12 -21 -27 -21 -33 0 -12 -27 -13
-35 -1 -3 5 2 17 11 25 8 9 12 16 8 16 -5 0 9 9 31 20 48 24 45 24 45 -1 0
-13 8 -23 21 -26 12 -3 18 -11 15 -19 -3 -8 1 -14 9 -14 50 0 72 105 27 125
-12 5 -22 13 -22 17 0 11 28 10 34 -1 9 -14 45 -1 65 25 10 13 21 21 24 18 3
-3 11 4 17 16 15 28 0 45 -91 106 -37 24 -83 64 -104 89 -26 32 -44 45 -58 43
-24 -4 -47 -35 -32 -46 6 -4 16 -20 23 -35 7 -15 16 -26 21 -22 5 3 16 -3 23
-14 10 -14 18 -17 28 -10 19 11 30 11 30 1 0 -15 -48 -33 -56 -20 -4 7 -13 2
-25 -13 -10 -13 -21 -21 -25 -17 -4 4 -1 14 5 22 10 12 9 21 -5 46 -10 16 -21
30 -25 30 -12 0 -27 -25 -34 -58 -6 -31 -5 -33 14 -27 12 4 21 2 21 -4 0 -10
-17 -15 -47 -14 -7 1 -13 -2 -13 -6 0 -4 -7 -16 -15 -27 -15 -19 -16 -19 -13
2 2 13 -11 39 -30 63 -29 36 -36 40 -49 29 -14 -11 -15 -10 -9 10 6 18 -3 34
-45 82 -29 33 -49 63 -45 67 4 4 19 -8 34 -27 15 -19 36 -46 48 -59 l21 -25
28 22 c36 29 48 17 14 -12 -22 -19 -24 -25 -14 -39 7 -9 18 -17 25 -17 7 0 10
-3 7 -7 -11 -10 23 -42 39 -36 8 3 14 15 14 27 0 11 9 34 19 50 19 28 18 62 0
50 -14 -9 -39 16 -39 38 0 11 -16 38 -35 61 -19 22 -35 44 -35 49 0 4 -10 8
-21 8 -19 0 -20 2 -8 16 7 9 24 20 37 25 19 7 29 3 57 -26 37 -37 44 -51 21
-42 -8 3 -19 0 -25 -7 -13 -16 9 -39 52 -55 17 -7 25 -16 21 -22 -4 -8 1 -9
17 -4 33 10 34 11 13 38 -11 13 -53 69 -95 123 -43 55 -146 168 -231 252 -86
84 -151 155 -146 158 19 12 292 -273 447 -465 130 -162 166 -200 215 -230 34
-20 80 -60 104 -91 25 -30 55 -67 68 -82 l22 -28 86 46 c60 32 83 49 79 60 -3
7 -16 14 -28 14 -13 0 -27 4 -30 10 -3 5 -16 10 -28 9 -12 0 -40 4 -62 9 -38
9 -38 10 -10 12 17 1 35 1 40 0 6 -2 21 -4 35 -5 32 -2 100 -32 100 -45 0 -6
5 -10 11 -10 13 0 219 101 219 107 0 2 -5 13 -11 25 -16 29 -2 34 20 7 l19
-24 101 50 c56 27 101 52 101 55 0 3 -21 26 -46 50 -52 51 -74 93 -74 145 0
19 -3 35 -7 35 -5 0 -37 -11 -73 -24 -71 -26 -77 -40 -38 -82 11 -13 15 -24
10 -28 -11 -7 -48 34 -57 63 -9 31 -127 4 -215 -48 -39 -24 -69 -45 -66 -48 2
-3 15 2 28 11 31 22 38 20 25 -8 -6 -13 -17 -22 -23 -19 -23 9 -24 -16 -2 -74
12 -32 24 -61 27 -65 3 -3 22 2 41 13 25 14 28 19 12 15 -15 -3 -22 0 -19 7 2
7 17 12 34 13 36 1 53 10 53 28 0 8 11 14 26 14 l25 0 -26 -28 c-25 -26 -25
-27 -5 -45 11 -10 17 -22 14 -27 -4 -6 -16 2 -28 17 l-22 27 -39 -26 c-60 -41
-74 -34 -113 62 -19 45 -32 88 -29 95 3 8 37 33 77 56 55 33 98 49 183 68 62
14 124 31 139 39 15 8 38 14 52 14 54 0 38 108 -35 227 l-20 32 -37 -21 c-20
-12 -46 -30 -57 -40 -21 -17 -21 -17 -53 47 -32 66 -41 118 -22 130 7 4 10 -6
9 -27 -2 -20 9 -54 25 -87 l27 -53 22 19 c12 11 30 23 40 26 31 11 29 34 -7
91 -43 67 -47 119 -15 160 l21 26 -40 73 c-22 39 -43 71 -48 70 -10 -1 -141
-63 -431 -204 -101 -48 -185 -84 -188 -80 -2 4 60 40 139 78 l143 71 -4 49 -5
49 63 38 c35 22 96 57 136 78 40 21 75 43 78 48 3 5 1 19 -5 30 -6 12 -9 26
-7 33 2 7 14 -8 27 -33 12 -25 54 -102 92 -171 l69 -127 240 117 c131 64 239
121 239 128 0 12 -23 57 -72 143 -14 25 -36 71 -49 103 -16 39 -25 53 -32 45
-6 -10 -10 -10 -13 -1 -4 9 -11 9 -31 0 -20 -9 -24 -17 -21 -39 3 -15 1 -28
-4 -28 -4 0 -8 5 -8 10 0 18 -42 -10 -47 -31 -4 -13 -9 -16 -17 -10 -7 6 -25
-3 -54 -30 -23 -22 -42 -44 -42 -49 0 -5 -6 -7 -14 -4 -8 3 -37 -6 -66 -21
-28 -14 -57 -24 -63 -22 -7 2 16 18 51 36 34 17 62 38 62 46 0 17 17 20 22 4
2 -6 20 6 40 25 20 20 33 36 28 36 -6 0 -10 5 -10 11 0 6 7 9 15 5 8 -3 15 -1
15 5 0 5 6 9 13 8 35 -4 72 23 63 48 -3 8 -1 11 4 8 6 -3 10 -1 10 5 0 6 5 8
10 5 6 -3 10 -1 10 5 0 6 5 8 12 4 6 -4 17 1 24 11 17 23 16 23 51 -50 91
-188 102 -206 124 -195 11 6 25 9 32 7 7 -2 0 -10 -15 -17 -26 -12 -27 -14
-12 -41 l14 -29 221 110 220 111 -51 61 c-28 33 -48 63 -45 67 7 6 23 -11 80
-83 l31 -38 102 51 101 51 70 145 c39 80 74 145 78 145 10 0 49 -37 108 -100
25 -27 67 -55 111 -76 72 -33 101 -59 123 -112 7 -16 24 -34 37 -41 31 -14 37
-14 28 0 -5 8 1 10 20 7 32 -6 45 7 15 15 -15 4 -20 11 -15 22 4 10 -3 19 -19
27 -14 6 -22 14 -18 17 4 3 13 15 19 26 6 11 20 22 30 24 37 7 61 41 29 41 -8
0 -15 4 -15 9 0 9 38 25 75 30 6 1 1 10 -10 19 -21 19 -55 77 -55 94 0 5 -10
18 -22 29 -23 19 -23 19 -3 34 11 9 27 21 35 28 17 14 40 12 40 -4 0 -5 -6 -9
-14 -9 -20 0 -65 -39 -46 -40 8 0 22 -5 30 -10 13 -9 13 -11 0 -19 -12 -8 -11
-14 10 -35 13 -15 30 -26 38 -26 8 0 12 -6 9 -14 -3 -8 1 -22 8 -33 9 -11 14
-13 15 -5 0 8 5 10 12 6 6 -4 33 -8 60 -9 l48 -2 0 56 c0 81 -14 118 -71 194
-51 68 -62 75 -89 57 -12 -7 -13 -13 -3 -27 6 -10 16 -17 22 -15 19 4 12 -17
-11 -29 -18 -9 -20 -9 -15 4 7 18 -17 42 -33 32 -5 -3 -10 -15 -10 -26 0 -23
-9 -24 -24 -3 -10 13 -14 13 -35 -5 -26 -22 -51 -28 -51 -11 0 6 6 10 14 10
25 0 27 18 4 39 -12 12 -17 21 -12 21 5 0 10 9 11 20 2 23 -8 20 -45 -14 l-24
-21 -19 24 c-10 13 -19 27 -19 32 0 17 17 9 26 -12 l9 -21 19 21 c19 21 19 21
-5 22 -23 0 -23 1 -4 10 28 13 -40 1 -78 -13 -27 -10 -27 -11 -11 -35 22 -35
7 -43 -20 -10 -13 16 -32 27 -46 27 -35 0 -57 15 -36 23 9 4 22 4 29 1 8 -3
36 4 63 14 27 11 66 22 87 26 36 7 38 9 32 37 -4 17 -2 29 3 29 6 0 13 -13 17
-28 5 -24 11 -28 38 -28 18 1 44 -2 58 -6 23 -7 28 -4 38 20 9 21 31 38 83 63
100 48 116 62 134 125 12 42 23 60 47 75 40 24 50 24 19 1z m-1452 -42 c0 -11
-4 -20 -10 -20 -5 0 -10 9 -10 20 0 11 5 20 10 20 6 0 10 -9 10 -20z m1490
-43 c0 -6 -9 -2 -20 8 -11 10 -17 22 -13 28 6 10 33 -19 33 -36z m-1504 -34
c-11 -11 -17 4 -9 23 7 18 8 18 11 1 2 -10 1 -21 -2 -24z m4 -30 c0 -5 -5 -15
-10 -23 -8 -12 -10 -11 -10 8 0 12 5 22 10 22 6 0 10 -3 10 -7z m1550 -33 c0
-19 -11 -26 -23 -14 -8 8 3 34 14 34 5 0 9 -9 9 -20z m-3705 -31 c105 -12 192
-23 194 -25 16 -15 -31 -13 -201 6 -106 11 -203 23 -215 26 -33 6 -28 24 5 19
15 -3 113 -14 217 -26z m3185 17 c0 -3 -4 -8 -10 -11 -5 -3 -10 -1 -10 4 0 6
5 11 10 11 6 0 10 -2 10 -4z m-1040 -26 c0 -11 -4 -20 -10 -20 -5 0 -10 9 -10
20 0 11 5 20 10 20 6 0 10 -9 10 -20z m-14 -77 c-11 -11 -19 6 -11 24 8 17 8
17 12 0 3 -10 2 -21 -1 -24z m-4 -48 c-2 -14 -6 -25 -8 -25 -2 0 -4 11 -4 25
0 14 4 25 9 25 4 0 6 -11 3 -25z m688 -16 c0 -6 -4 -7 -10 -4 -5 3 -10 11 -10
16 0 6 5 7 10 4 6 -3 10 -11 10 -16z m377 -56 c2 -6 -14 -18 -36 -27 l-41 -16
21 -37 c12 -21 25 -42 30 -47 11 -12 12 -36 1 -36 -4 0 -13 13 -20 28 -6 16
-20 37 -30 48 -29 30 -34 54 -14 60 53 17 71 27 65 36 -3 6 0 9 7 6 8 -2 15
-9 17 -15z m763 8 c0 -12 -20 -25 -27 -18 -7 7 6 27 18 27 5 0 9 -4 9 -9z m60
-1 c0 -5 -9 -10 -21 -10 -11 0 -17 5 -14 10 3 6 13 10 21 10 8 0 14 -4 14 -10z
m60 -20 c0 -5 -9 -10 -20 -10 -11 0 -20 5 -20 10 0 6 9 10 20 10 11 0 20 -4
20 -10z m60 -9 c0 -5 -9 -7 -20 -4 -11 3 -20 7 -20 9 0 2 9 4 20 4 11 0 20 -4
20 -9z m40 -17 c0 -8 -4 -14 -10 -14 -5 0 -10 9 -10 21 0 11 5 17 10 14 6 -3
10 -13 10 -21z m-250 -11 c0 -20 -3 -24 -11 -16 -7 7 -9 19 -6 27 10 24 17 19
17 -11z m230 -22 c0 -5 -9 -13 -20 -16 -11 -3 -20 -15 -20 -26 0 -10 -4 -19
-10 -19 -18 0 -11 32 12 51 23 21 38 24 38 10z m-225 -53 c4 -16 4 -28 0 -28
-15 0 -32 34 -27 52 6 24 18 12 27 -24z m-105 12 c0 -5 -10 -10 -22 -9 -22 0
-22 1 -3 9 11 5 21 9 23 9 1 1 2 -3 2 -9z m60 0 c0 -5 -9 -10 -20 -10 -11 0
-20 5 -20 10 0 6 9 10 20 10 11 0 20 -4 20 -10z m-110 -32 c0 -5 -12 -8 -27
-8 -26 0 -26 0 -8 20 14 16 20 17 27 8 4 -7 8 -16 8 -20z m300 12 c0 -5 -10
-18 -22 -30 -12 -11 -16 -20 -10 -20 16 0 15 -40 0 -41 -83 -6 -108 -5 -108 2
0 4 9 10 20 14 10 3 41 24 67 46 52 43 53 43 53 29z m-2026 -27 c-16 -70 -61
-103 -115 -84 -17 6 -45 11 -60 11 -16 0 -29 5 -29 10 0 13 30 13 84 -2 57
-15 90 4 100 56 4 20 11 36 17 36 5 0 7 -12 3 -27z m1782 -10 c-8 -8 -36 5
-36 17 0 7 6 7 21 0 11 -7 18 -14 15 -17z m-100 -30 c-11 -11 -19 6 -11 24 8
17 8 17 12 0 3 -10 2 -21 -1 -24z m219 9 c-9 -2 -24 -1 -33 3 -13 5 -14 8 -3
15 9 5 22 3 33 -3 16 -10 16 -12 3 -15z m-72 11 c-7 -2 -19 -2 -25 0 -7 3 -2
5 12 5 14 0 19 -2 13 -5z m-153 -57 c0 -8 -4 -18 -10 -21 -5 -3 -10 3 -10 14
0 12 5 21 10 21 6 0 10 -6 10 -14z m5 -46 c3 -5 1 -10 -4 -10 -6 0 -11 5 -11
10 0 6 2 10 4 10 3 0 8 -4 11 -10z m-105 -110 c10 -11 21 -37 25 -57 3 -20 13
-46 21 -59 8 -12 11 -25 6 -28 -11 -6 -38 50 -47 97 -4 20 -13 38 -21 41 -8 3
-14 10 -14 16 0 16 11 12 30 -10z m800 -52 c0 -5 11 -19 24 -31 31 -29 49
-110 33 -148 -14 -32 -82 -89 -106 -89 -9 0 -22 -13 -28 -30 -6 -16 -16 -30
-22 -30 -8 0 -9 6 -1 19 15 29 12 41 -12 50 -18 7 -13 9 22 8 37 -2 52 4 87
32 23 18 44 43 47 55 7 29 -8 89 -28 112 -9 11 -25 30 -35 44 -15 20 -26 24
-62 22 -65 -4 -191 -43 -185 -57 2 -7 -1 -18 -7 -24 -8 -8 -4 -11 17 -11 16 0
35 8 42 18 12 16 13 16 14 0 0 -9 8 -19 18 -21 14 -4 14 -6 -5 -12 -13 -4 -23
-11 -23 -16 0 -10 -91 -51 -98 -44 -3 3 0 5 6 5 6 0 9 7 6 15 -5 11 1 15 24
15 17 0 34 5 38 11 5 8 -6 10 -35 7 -28 -2 -41 0 -41 9 0 25 20 64 37 70 10 4
28 13 41 21 13 9 36 16 50 18 15 1 52 6 82 11 42 7 60 6 78 -5 12 -8 22 -18
22 -24z m-170 -49 c0 -11 -4 -17 -10 -14 -5 3 -10 13 -10 21 0 8 5 14 10 14 6
0 10 -9 10 -21z m-150 -76 c0 -6 -14 -15 -32 -18 -24 -6 -35 -3 -44 10 -16 21
-9 36 11 29 7 -3 22 -1 32 4 18 11 33 0 33 -25z m-2710 -98 c-14 -8 -29 -14
-35 -14 -5 0 1 6 15 14 14 8 30 14 35 14 6 0 -1 -6 -15 -14z m2594 6 c11 -4
15 -10 10 -14 -14 -8 -54 3 -54 14 0 11 17 11 44 0z m-2359 -51 c5 -16 10 -17
31 -10 23 9 24 7 24 -25 0 -19 -4 -35 -10 -35 -5 0 -10 9 -10 21 0 12 -5 19
-12 16 -7 -2 -11 -14 -10 -27 3 -17 0 -21 -12 -17 -10 4 -16 1 -16 -9 0 -8 -5
-12 -11 -8 -6 3 -8 15 -6 26 4 14 2 18 -10 14 -9 -4 -13 -1 -10 6 2 7 0 21 -5
31 -6 11 -5 17 2 17 6 0 13 -7 16 -15 10 -25 27 -17 20 10 -7 29 10 34 19 5z
m2392 -52 c-3 -8 -6 -5 -6 6 -1 11 2 17 5 13 3 -3 4 -12 1 -19z m-2814 -48
c-8 -8 -33 32 -26 43 3 5 12 -1 19 -14 7 -13 10 -26 7 -29z m1651 9 c60 -26
53 -37 -10 -15 -48 16 -74 13 -41 -5 38 -21 14 -28 -25 -7 -32 16 -38 23 -25
26 12 2 16 9 13 19 -8 19 17 14 88 -18z m-1274 12 c0 -11 -31 -24 -39 -16 -3
3 1 10 9 15 19 12 30 12 30 1z m2730 1 c0 -5 -7 -17 -15 -28 -15 -19 -20 -8
-9 20 6 17 24 22 24 8z m-303 -159 c-2 -16 -4 -3 -4 27 0 30 2 43 4 28 2 -16
2 -40 0 -55z m-3098 -20 c1 -18 -6 -16 -31 7 -34 31 -41 9 -18 -54 12 -31 20
-62 18 -68 -3 -7 -15 16 -29 51 -25 65 -59 101 -59 61 0 -11 -4 -20 -10 -20
-5 0 -10 9 -10 20 0 21 27 40 59 40 12 0 21 5 21 11 0 15 59 -33 59 -48z
m2245 26 c-12 -13 -20 -16 -22 -9 -3 7 2 16 9 21 25 16 32 9 13 -12z m1056
-14 c0 -8 -4 -15 -10 -15 -5 0 -10 7 -10 15 0 8 5 15 10 15 6 0 10 -7 10 -15z
m-1020 -11 c0 -2 -9 -4 -20 -4 -11 0 -20 4 -20 9 0 5 9 7 20 4 11 -3 20 -7 20
-9z m1040 -34 c0 -11 -4 -20 -10 -20 -5 0 -10 9 -10 20 0 11 5 20 10 20 6 0
10 -9 10 -20z m-295 -38 c6 -22 5 -23 -17 -17 -32 10 -35 15 -18 25 8 6 11 10
7 10 -5 0 -5 5 -1 11 8 13 19 2 29 -29z m-1535 -3 c0 -6 9 -8 20 -4 14 5 20 2
20 -10 0 -8 -6 -18 -14 -21 -7 -3 -12 -16 -10 -32 2 -17 1 -20 -3 -7 -3 11 -9
22 -13 25 -12 9 -21 60 -10 60 5 0 10 -5 10 -11z m94 -8 c3 -5 -1 -12 -10 -15
-25 -10 -34 -7 -34 9 0 16 35 21 44 6z m1746 -12 c0 -11 -4 -17 -10 -14 -5 3
-10 13 -10 21 0 8 5 14 10 14 6 0 10 -9 10 -21z m-620 -19 c5 8 10 12 10 8 0
-5 -1 -10 -2 -12 -2 -2 5 -13 15 -24 11 -12 14 -22 8 -26 -6 -4 -8 -13 -4 -21
3 -8 1 -15 -5 -15 -6 0 -12 5 -14 12 -3 8 -12 4 -25 -9 -12 -12 -24 -19 -27
-15 -3 3 -6 -4 -6 -16 0 -14 5 -20 14 -16 8 3 20 -4 28 -15 8 -11 27 -25 44
-32 16 -6 24 -13 17 -16 -7 -2 -21 1 -32 7 -17 9 -21 8 -21 -4 0 -8 8 -20 18
-25 15 -9 15 -12 2 -21 -19 -12 -30 -13 -30 0 0 5 -8 7 -17 3 -15 -5 -16 -3
-5 8 18 19 15 38 -12 70 -25 30 -36 28 -36 -5 0 -19 -1 -19 -16 -4 -16 15 -16
18 0 33 22 22 20 29 -9 45 -34 18 -31 30 6 30 20 0 28 4 23 12 -5 7 -2 9 8 5
21 -7 56 17 39 27 -6 4 -8 12 -5 18 4 6 10 5 15 -3 8 -12 11 -11 19 1z m-1240
-15 c0 -8 -11 -17 -24 -21 -14 -3 -27 -12 -30 -20 -3 -8 -13 -14 -22 -14 -12
0 -5 11 22 35 43 38 54 42 54 20z m1884 -11 c9 -24 7 -28 -9 -14 -17 14 -20
30 -6 30 5 0 12 -7 15 -16z m-1104 -34 c0 -5 -7 -10 -15 -10 -8 0 -15 5 -15
10 0 6 7 10 15 10 8 0 15 -4 15 -10z m60 1 c0 -11 -31 -24 -39 -16 -3 3 1 10
9 15 19 12 30 12 30 1z m30 -22 c0 -6 -4 -7 -10 -4 -5 3 -10 11 -10 16 0 6 5
7 10 4 6 -3 10 -11 10 -16z m1031 -22 c-8 -8 -11 -3 -11 19 1 25 2 27 11 11 8
-14 8 -22 0 -30z m-1180 0 c-8 -8 -11 -7 -11 4 0 20 13 34 18 19 3 -7 -1 -17
-7 -23z m1107 16 c-2 -10 -11 -19 -21 -21 -16 -3 -17 -1 -5 17 16 25 31 27 26
4z m-4063 -26 c53 -14 83 -26 73 -29 -9 -4 -51 3 -94 14 -79 20 -132 21 -266
2 -31 -4 -48 -3 -48 4 0 11 113 29 195 30 28 1 90 -9 140 -21z m3150 12 c12
-19 -5 -23 -22 -6 -16 16 -16 17 -1 17 9 0 20 -5 23 -11z m205 -23 c0 -5 -7
-3 -15 4 -8 7 -12 17 -9 22 7 10 24 -9 24 -26z m990 4 c0 -6 -75 -47 -167 -92
-93 -44 -175 -89 -184 -98 -16 -16 -8 -21 112 -81 71 -35 138 -63 149 -62 11
1 153 45 316 98 263 84 322 100 302 79 -10 -10 -593 -195 -618 -196 -14 -1
-59 14 -100 32 -174 76 -173 75 -178 62 -7 -22 -24 -13 -19 11 5 18 -1 26 -33
44 l-40 21 -6 -24 c-9 -35 -24 -29 -24 10 0 50 52 92 138 111 19 4 32 3 32 -3
0 -6 -18 -13 -41 -17 -23 -4 -45 -15 -52 -26 -6 -10 -17 -19 -24 -19 -21 0
-15 -16 10 -27 19 -9 51 4 217 88 107 54 198 98 203 98 4 1 7 -4 7 -9z m-276
-6 c23 -9 20 -23 -4 -17 -11 3 -20 9 -20 14 0 11 3 11 24 3z m55 -25 c-19 -12
-24 -2 -8 17 9 11 14 13 17 4 3 -7 -2 -16 -9 -21z m-949 -9 c-28 -21 -33 -20
-24 4 3 9 16 16 28 16 20 0 20 -1 -4 -20z m-250 -41 c0 -11 -4 -17 -10 -14 -5
3 -10 13 -10 21 0 8 5 14 10 14 6 0 10 -9 10 -21z m500 -11 c0 -5 -6 -8 -14
-8 -9 0 -12 7 -9 21 4 16 8 17 14 7 5 -7 9 -16 9 -20z m175 22 c3 -5 2 -10 -4
-10 -5 0 -13 5 -16 10 -3 6 -2 10 4 10 5 0 13 -4 16 -10z m-12 -69 c9 12 19
20 22 17 7 -6 -34 -78 -44 -78 -7 0 -31 59 -31 76 0 5 9 -2 19 -15 l18 -24 16
24z m-58 -27 c9 -9 14 -18 11 -21 -7 -7 -46 16 -46 27 0 15 17 12 35 -6z
m1765 7 c0 -11 -31 -24 -39 -16 -3 3 1 10 9 15 19 12 30 12 30 1z m73 0 c36
-14 42 -39 12 -53 -33 -15 -52 1 -36 30 9 18 8 21 -12 25 -13 3 -15 5 -5 6 9
0 28 -3 41 -8z m-134 -37 c-14 -18 -24 -11 -15 11 3 9 11 13 16 10 8 -5 7 -11
-1 -21z m234 15 c20 -5 37 -14 37 -20 0 -6 -4 -7 -10 -4 -6 3 -7 -1 -4 -9 3
-9 1 -16 -5 -16 -6 0 -11 5 -11 10 0 6 -7 10 -16 10 -8 0 -12 5 -9 10 3 6 -3
10 -14 10 -11 0 -23 5 -26 10 -8 13 10 13 58 -1z m-4186 -24 c-4 -8 -11 -15
-17 -15 -7 0 -7 6 0 21 13 23 26 19 17 -6z m4273 -24 c0 -25 -60 -43 -85 -25
-22 17 -13 30 11 16 22 -12 62 -3 42 9 -11 7 -10 11 2 18 18 12 30 5 30 -18z
m-342 -22 c4 -24 4 -24 -16 -4 -20 21 -19 39 1 32 7 -2 14 -14 15 -28z m-1371
-26 c24 -27 45 -55 48 -65 3 -9 31 -35 61 -58 30 -23 63 -55 73 -71 12 -19 21
-25 28 -18 7 7 18 6 36 -2 28 -13 34 -24 17 -34 -5 -3 -10 -2 -10 2 0 5 -15 7
-33 5 -30 -3 -35 0 -47 28 -7 17 -31 44 -54 60 -60 43 -81 63 -89 83 -4 11
-16 21 -26 24 -11 3 -17 11 -14 18 2 8 -7 24 -21 36 -25 22 -33 39 -19 39 4 0
26 -21 50 -47z m-2587 16 c-7 -11 -14 -18 -17 -15 -8 8 5 36 17 36 7 0 7 -6 0
-21z m2640 -11 c0 -6 -7 -5 -15 2 -8 7 -15 17 -15 22 0 6 7 5 15 -2 8 -7 15
-17 15 -22z m1260 23 c0 -12 -20 -25 -27 -18 -7 7 6 27 18 27 5 0 9 -4 9 -9z
m420 -43 c0 -5 -4 -8 -10 -8 -5 0 -10 10 -10 23 0 18 2 19 10 7 5 -8 10 -18
10 -22z m-1635 3 c-3 -6 -14 -11 -23 -11 -15 1 -15 2 2 15 21 16 32 13 21 -4z
m1161 -3 c-10 -6 -20 -7 -24 -3 -9 8 20 25 31 18 5 -3 2 -10 -7 -15z m-3875
-31 c-8 -8 -11 -7 -11 4 0 20 13 34 18 19 3 -7 -1 -17 -7 -23z m3826 -4 c-9
-9 -20 -13 -24 -9 -4 4 -1 11 7 16 25 16 35 11 17 -7z m513 0 c0 -14 -19 -38
-25 -32 -8 8 5 39 16 39 5 0 9 -3 9 -7z m-4794 -38 c-9 -14 -21 -25 -27 -25
-6 0 -1 14 11 31 26 36 40 31 16 -6z m4229 25 c-3 -5 -13 -10 -21 -10 -8 0
-14 5 -14 10 0 6 9 10 21 10 11 0 17 -4 14 -10z m-3799 -37 c-11 -11 -19 6
-11 24 8 17 8 17 12 0 3 -10 2 -21 -1 -24z m3744 28 c0 -5 -15 -25 -34 -46
-19 -20 -32 -44 -29 -51 8 -21 -5 -17 -34 12 -14 15 -22 29 -16 33 5 3 12 14
16 24 4 12 17 17 41 17 19 0 38 5 41 10 8 12 15 13 15 1z m-4414 -16 c-21 -16
-32 -13 -21 4 3 6 14 11 23 11 15 -1 15 -2 -2 -15z m4951 -7 c-2 -41 -37 -52
-37 -12 0 19 4 25 15 20 8 -3 15 -1 15 4 0 6 2 10 4 10 3 0 4 -10 3 -22z
m-4907 1 c0 -5 4 -8 9 -5 5 3 28 -13 51 -37 24 -23 47 -41 51 -40 5 2 8 -7 6
-20 -2 -20 3 -23 53 -27 30 -3 69 -13 87 -23 37 -19 84 -24 131 -13 45 11 42
-9 -4 -24 -20 -7 -54 -10 -76 -7 -83 11 -87 -8 -18 -97 61 -80 49 -88 -15 -10
-54 67 -65 99 -40 118 17 12 15 14 -15 24 -42 15 -72 15 -105 0 -14 -6 -28 -8
-33 -3 -4 4 -1 10 6 12 24 9 11 47 -29 85 -38 37 -42 38 -55 21 -13 -17 -13
-17 -14 4 0 12 -3 28 -6 37 -3 9 -1 16 5 16 6 0 11 -5 11 -11z m2391 -62 c14
-34 2 -51 -32 -44 l-24 4 23 8 c12 4 22 9 22 10 0 17 -18 39 -42 51 -28 15
-29 16 -11 29 16 12 20 11 35 -8 10 -12 23 -35 29 -50z m1639 58 c-7 -8 -17
-12 -22 -9 -6 4 -5 10 3 15 22 14 33 10 19 -6z m920 -15 c-6 -11 -15 -18 -21
-14 -6 4 -6 11 2 20 17 21 31 17 19 -6z m-4340 -10 c0 -5 -4 -10 -10 -10 -5 0
-10 5 -10 10 0 6 5 10 10 10 6 0 10 -4 10 -10z m3367 -17 c-15 -16 -17 -16
-17 -1 0 9 6 18 13 21 20 7 22 -2 4 -20z m926 -23 c-12 -9 -22 -25 -24 -35 -2
-10 -10 -20 -17 -23 -8 -2 -10 2 -5 14 5 13 3 16 -10 11 -9 -3 -17 -4 -17 0 0
8 46 50 62 56 24 8 31 -6 11 -23z m-932 -20 c11 0 17 -4 14 -10 -8 -13 -42
-13 -50 0 -4 6 -3 19 1 28 7 16 7 16 11 0 3 -10 13 -18 24 -18z m126 -30 c0
-34 -3 -36 -24 -14 -14 14 -14 16 3 29 11 8 19 15 20 15 0 0 1 -13 1 -30z
m-3517 10 c0 -5 -4 -10 -10 -10 -5 0 -10 5 -10 10 0 6 5 10 10 10 6 0 10 -4
10 -10z m3455 0 c-3 -5 -13 -10 -21 -10 -8 0 -12 5 -9 10 3 6 13 10 21 10 8 0
12 -4 9 -10z m386 -9 c13 -11 21 -23 17 -27 -5 -4 -17 1 -27 10 -21 19 -53 15
-82 -11 -25 -22 -177 -83 -207 -83 -15 0 -74 -21 -132 -46 -98 -43 -264 -104
-282 -104 -22 0 -4 19 25 26 17 4 26 9 18 12 -7 2 -21 12 -31 22 -10 10 -24
20 -31 22 -8 3 -11 9 -7 13 4 4 15 2 24 -6 13 -11 18 -11 21 -1 3 6 9 12 15
12 5 0 6 -9 3 -21 -6 -18 -4 -21 13 -17 15 4 19 2 15 -8 -7 -18 -7 -18 58 5
106 37 109 39 109 88 0 23 -4 43 -10 43 -5 0 -10 5 -10 11 0 6 7 9 15 5 8 -3
15 -1 15 4 0 6 5 10 10 10 14 0 13 -37 -1 -42 -7 -2 1 -12 16 -22 27 -18 32
-18 79 -3 28 9 68 19 88 22 21 3 82 28 135 55 54 28 103 50 109 50 7 0 22 -9
35 -19z m-477 -8 c7 -16 -8 -33 -31 -33 -8 0 -8 6 0 25 14 29 22 31 31 8z
m-774 -30 c0 -7 -4 -13 -10 -13 -5 0 -10 7 -10 16 0 10 -6 14 -17 10 -10 -2
-53 -8 -95 -12 -54 -4 -78 -10 -78 -19 0 -8 -15 -23 -34 -35 -19 -11 -37 -26
-40 -33 -2 -7 -5 -3 -5 9 -1 13 8 25 24 32 14 7 30 23 35 37 8 22 16 25 62 26
29 0 76 4 103 8 49 6 65 0 65 -26z m-2547 14 c4 3 7 2 7 -4 0 -6 -7 -16 -15
-23 -9 -8 -15 -8 -15 -2 0 6 -3 19 -7 29 -6 15 -4 16 9 6 8 -7 18 -10 21 -6z
m2707 -22 c10 -13 9 -15 -11 -14 -13 1 -44 -8 -69 -19 -32 -16 -65 -22 -115
-22 -65 0 -79 -4 -188 -57 l-119 -57 -18 24 c-11 14 -15 27 -9 29 6 1 16 -4
23 -14 11 -15 22 -11 125 39 104 51 120 56 181 56 50 0 81 6 121 24 65 30 64
30 79 11z m1526 -1 c-3 -9 -6 -18 -6 -20 0 -2 -4 -4 -9 -4 -5 0 -7 9 -4 20 3
11 10 20 15 20 6 0 7 -7 4 -16z m-4199 -18 c-3 -7 0 -19 6 -25 17 -17 -15 -14
-39 4 -17 13 -17 14 -1 15 9 0 17 5 17 10 0 6 5 10 11 10 6 0 9 -6 6 -14z
m1663 6 c0 -5 -25 -26 -56 -47 -53 -37 -56 -41 -52 -74 3 -20 1 -52 -4 -71
-21 -86 -21 -88 25 -95 23 -4 64 -19 91 -32 28 -14 87 -31 135 -38 110 -17
141 -25 141 -37 0 -5 -8 -7 -17 -4 -46 14 -111 26 -144 26 -20 0 -53 7 -73 15
-33 14 -38 14 -52 0 -9 -8 -19 -15 -24 -15 -16 0 -23 22 -9 31 21 13 -2 30
-51 36 -33 5 -45 2 -52 -11 -10 -17 -48 -22 -48 -6 0 6 -4 10 -10 10 -5 0 -10
-7 -10 -15 0 -8 -4 -15 -10 -15 -5 0 -10 11 -10 24 0 14 -5 28 -11 31 -6 4 -8
12 -6 19 3 6 -2 40 -9 76 -14 68 -18 117 -8 108 3 -4 13 -44 23 -90 9 -45 20
-82 24 -80 4 1 20 2 36 2 24 0 31 6 45 41 11 28 15 55 11 83 -7 45 2 58 80
110 44 29 45 29 45 18z m480 -2 c0 -5 -17 -12 -37 -16 -31 -6 -58 -17 -92 -40
-1 -2 9 -18 23 -37 15 -20 23 -38 18 -41 -5 -3 -23 14 -41 38 l-31 44 36 23
c50 30 124 48 124 29z m775 0 c3 -5 -1 -10 -9 -10 -8 0 -18 5 -21 10 -3 6 1
10 9 10 8 0 18 -4 21 -10z m46 -26 c12 -14 11 -16 -5 -13 -11 2 -21 10 -24 17
-5 17 13 15 29 -4z m287 4 c-3 -7 -13 -15 -24 -17 -16 -3 -17 -1 -5 13 16 19
34 21 29 4z m-51 -33 c-4 -8 -11 -15 -17 -15 -7 0 -7 6 0 21 13 23 26 19 17
-6z m-205 -17 c-6 -6 -15 -8 -19 -4 -4 4 -1 11 7 16 8 5 17 7 19 4 3 -2 -1
-10 -7 -16z m53 2 c3 -5 -1 -10 -9 -10 -8 0 -18 5 -21 10 -3 6 1 10 9 10 8 0
18 -4 21 -10z m60 0 c-3 -5 -13 -10 -21 -10 -8 0 -14 5 -14 10 0 6 9 10 21 10
11 0 17 -4 14 -10z m-990 -10 c3 -5 1 -10 -4 -10 -6 0 -11 5 -11 10 0 6 2 10
4 10 3 0 8 -4 11 -10z m1050 0 c3 -5 -3 -10 -14 -10 -12 0 -21 5 -21 10 0 6 6
10 14 10 8 0 18 -4 21 -10z m-170 -39 c-3 -6 -14 -11 -23 -11 -15 1 -15 2 2
15 21 16 32 13 21 -4z m-869 -58 c-9 -9 -27 39 -20 55 5 13 9 9 16 -17 5 -18
7 -35 4 -38z m764 52 c0 -11 -79 -44 -85 -35 -3 5 9 16 27 24 34 15 58 20 58
11z m1149 -24 c8 -5 9 -11 3 -15 -5 -3 -15 1 -22 9 -14 16 -3 20 19 6z m31
-57 c0 -8 6 -14 14 -14 8 0 18 -5 22 -12 5 -8 2 -9 -9 -5 -12 4 -17 1 -17 -10
0 -27 -17 -2 -25 36 -5 23 -4 31 4 27 6 -4 11 -14 11 -22z m-4959 -17 c-8 -8
-11 -7 -11 4 0 20 13 34 18 19 3 -7 -1 -17 -7 -23z m4659 14 c0 -5 -10 -11
-22 -15 -19 -5 -21 -8 -8 -16 12 -8 10 -10 -9 -10 -20 0 -22 -3 -13 -12 7 -7
12 -19 12 -27 0 -11 -6 -9 -20 9 -27 35 -25 49 13 65 38 17 47 18 47 6z
m-4283 -37 c-9 -9 -28 6 -21 18 4 6 10 6 17 -1 6 -6 8 -13 4 -17z m2744 -68
c27 -34 52 -72 56 -86 3 -14 18 -38 34 -55 15 -16 42 -60 59 -97 33 -74 34
-78 21 -78 -4 0 -22 30 -39 68 -16 37 -40 76 -52 87 -12 11 -32 43 -45 70 -12
28 -47 77 -78 110 -32 33 -57 63 -57 67 0 18 55 -29 101 -86z m-3086 64 c3 -5
1 -10 -4 -10 -6 0 -11 -7 -11 -16 0 -20 -16 -9 -23 16 -4 15 0 20 13 20 11 0
22 -4 25 -10z m295 1 c0 -11 -31 -24 -39 -16 -3 3 1 10 9 15 19 12 30 12 30 1z
m-40 -42 c0 -10 -4 -19 -10 -19 -5 0 -10 5 -10 10 0 6 -8 10 -17 10 -17 1 -16
2 1 15 22 17 36 11 36 -16z m4860 22 c0 -10 -30 -24 -37 -17 -3 3 -2 9 2 15 8
13 35 15 35 2z m50 -33 c0 -6 -7 -5 -15 2 -8 7 -15 17 -15 22 0 6 7 5 15 -2 8
-7 15 -17 15 -22z m-5148 -3 c-2 -14 -11 -25 -18 -25 -17 0 -18 16 -1 35 18
21 25 18 19 -10z m62 9 c24 -9 19 -24 -6 -21 -18 2 -23 -3 -21 -20 3 -27 -12
-31 -21 -7 -4 10 1 25 10 35 19 22 17 21 38 13z m106 -4 c0 -6 -11 -15 -26
-20 l-25 -10 25 -25 c15 -14 26 -34 26 -44 0 -29 -63 -33 -100 -7 -36 26 -38
36 -5 36 18 0 23 -4 19 -15 -7 -16 4 -19 31 -9 9 4 12 10 7 13 -5 3 -12 17
-15 31 -5 20 -1 29 21 42 33 20 42 21 42 8z m20 -45 c-7 -9 -15 -13 -18 -10
-3 2 1 11 8 20 7 9 15 13 18 10 3 -2 -1 -11 -8 -20z m50 21 c0 -12 -13 -36
-19 -36 -4 0 -7 9 -8 20 -1 11 4 20 13 20 8 0 14 -2 14 -4z m4934 -12 c9 -22
-3 -32 -14 -14 -12 19 -12 30 -1 30 5 0 12 -7 15 -16z m-4884 -30 c0 -9 -5
-14 -12 -12 -18 6 -21 28 -4 28 9 0 16 -7 16 -16z m-35 -14 c3 -5 -3 -10 -14
-10 -10 0 -21 -5 -23 -12 -2 -6 -10 -8 -17 -4 -9 6 -9 11 0 22 13 16 45 19 54
4z m4943 -29 c15 -22 15 -22 -11 -10 -15 7 -27 19 -27 26 0 20 20 12 38 -16z
m-2298 -46 c50 -30 93 -55 95 -55 3 0 130 -76 144 -87 2 -2 2 -6 -2 -9 -3 -4
-22 4 -41 16 -20 12 -36 20 -36 18 0 -13 45 -97 63 -115 15 -17 17 -26 9 -36
-10 -11 -72 -153 -72 -162 0 -2 15 -6 33 -9 18 -3 48 -19 67 -35 l34 -28 -29
-39 c-15 -22 -30 -41 -32 -43 -2 -2 -6 -2 -9 2 -4 3 4 22 16 42 20 33 21 38 7
52 -20 20 -34 10 -42 -29 -4 -17 -16 -40 -26 -51 -18 -19 -18 -22 -2 -39 9
-10 13 -21 8 -26 -4 -4 -10 -1 -12 6 -3 6 -12 12 -20 12 -9 0 -22 8 -29 18
-12 16 -15 16 -41 2 -39 -22 -44 -67 -9 -76 14 -3 31 -4 38 -1 16 5 60 -16 77
-37 8 -9 18 -16 24 -16 5 0 2 9 -7 19 -10 11 -15 25 -11 30 10 17 25 13 25 -6
0 -21 66 -82 98 -90 54 -13 130 7 252 67 67 34 125 58 129 55 3 -4 -2 -11 -12
-16 -9 -6 -15 -14 -12 -19 3 -5 -17 -21 -45 -35 -28 -14 -50 -31 -47 -38 2 -7
25 -17 52 -24 64 -16 148 -74 131 -90 -3 -3 -21 8 -40 25 -35 31 -118 61 -192
69 l-40 5 -51 -73 -51 -74 32 -37 c26 -32 42 -40 101 -53 39 -8 80 -18 93 -20
15 -4 22 -1 22 10 0 8 5 15 10 15 6 0 10 -8 10 -19 0 -18 39 -31 97 -31 24 0
37 32 48 122 7 52 25 74 52 62 16 -7 16 -8 -4 -11 -18 -4 -23 -14 -30 -66 -8
-58 -6 -88 4 -59 8 21 23 13 23 -13 0 -14 -4 -25 -9 -25 -5 0 -11 -7 -14 -15
-5 -11 -1 -12 19 -5 14 6 45 10 69 10 43 0 44 0 47 38 3 37 3 37 16 -17 8 -36
9 -58 3 -64 -7 -7 -13 -5 -17 6 -9 24 -114 25 -114 2 0 -27 41 -98 95 -165 50
-62 81 -110 73 -113 -2 -1 -34 -17 -72 -35 -65 -31 -68 -34 -51 -51 19 -22 53
-33 61 -20 9 15 24 10 18 -6 -4 -8 -2 -15 4 -15 6 0 12 6 15 13 3 9 7 9 17 0
10 -9 10 -18 -1 -42 -15 -34 -30 -42 -22 -12 5 22 -11 35 -33 27 -13 -5 -13
-9 0 -35 12 -23 24 -30 60 -35 42 -7 47 -5 75 26 16 18 33 30 37 25 4 -4 -6
-22 -23 -40 -16 -17 -42 -49 -58 -69 -29 -40 -74 -59 -119 -51 -38 8 -32 23
10 23 43 0 74 15 74 36 0 8 4 13 9 9 5 -3 12 -1 15 4 4 5 -3 13 -14 16 -21 7
-84 -17 -95 -35 -3 -5 -12 -7 -21 -3 -11 4 -12 9 -3 19 9 11 8 15 -5 20 -9 3
-16 10 -16 15 0 15 28 10 38 -6 5 -10 15 -13 25 -9 15 5 14 11 -8 52 -23 45
-99 132 -113 132 -4 -1 -24 -16 -44 -33 l-37 -33 38 -45 c20 -24 49 -64 64
-89 47 -78 51 -84 85 -128 44 -56 63 -65 110 -53 20 5 50 12 65 15 15 4 25 10
23 15 -3 5 6 9 19 9 14 0 25 -4 25 -9 0 -13 -29 -25 -90 -38 -30 -7 -61 -14
-68 -17 -7 -2 29 -54 93 -130 72 -88 111 -144 125 -182 28 -74 59 -211 50
-217 -4 -3 -15 26 -25 62 -18 76 -29 93 -56 93 -11 0 -19 5 -19 11 0 6 7 9 15
6 11 -5 9 7 -9 46 -21 47 -26 52 -52 49 -22 -2 -26 0 -14 8 13 9 13 10 0 11
-8 1 -18 1 -22 0 -5 0 -8 4 -8 10 0 7 10 9 25 7 52 -10 28 25 -161 238 -39 45
-73 87 -76 95 -7 22 -248 -55 -248 -80 0 -5 11 -22 24 -38 39 -47 53 -84 81
-209 27 -117 49 -186 69 -212 5 -8 35 -26 66 -42 45 -23 61 -38 83 -78 15 -27
27 -58 27 -68 0 -12 21 -31 60 -53 33 -19 69 -44 80 -56 l21 -22 -36 -43 c-51
-61 -77 -116 -86 -179 -4 -30 -15 -61 -23 -69 -21 -22 -33 -6 -13 16 15 17 24
82 12 82 -17 0 -192 -150 -260 -223 -76 -80 -84 -86 -153 -107 -41 -12 -76
-19 -79 -17 -7 8 27 24 67 32 54 12 91 34 136 83 33 38 39 49 28 59 -7 7 -19
13 -28 13 -8 0 -18 5 -21 10 -10 17 37 11 57 -7 17 -15 21 -13 71 33 29 27 79
71 110 97 31 27 57 54 57 61 0 8 -9 34 -21 60 -16 38 -24 46 -39 41 -11 -3
-48 -9 -82 -13 -53 -6 -63 -10 -63 -26 0 -13 -8 -20 -23 -21 -28 -2 -28 6 2
38 18 19 34 26 67 26 24 1 60 4 79 9 32 7 35 11 47 67 7 33 12 76 12 95 1 53
-37 111 -91 140 -93 51 -95 54 -147 254 -20 77 -42 141 -48 144 -7 2 -13 -4
-13 -14 0 -13 -3 -15 -11 -7 -12 12 -72 -5 -94 -28 -17 -16 -37 -109 -24 -109
4 0 11 5 14 10 8 13 45 13 45 0 0 -5 -11 -10 -24 -10 -18 0 -27 -8 -35 -33 -9
-24 -14 -28 -20 -18 -7 10 -23 12 -60 9 -33 -3 -51 -1 -51 6 0 6 -7 3 -14 -6
-7 -10 -16 -15 -19 -11 -4 3 -13 0 -22 -7 -10 -8 -15 -9 -15 -1 0 6 9 16 20
23 11 7 20 18 20 25 0 7 7 13 15 13 8 0 15 -5 15 -11 0 -6 20 -9 52 -7 41 2
54 7 56 20 3 16 -5 18 -62 18 -37 0 -66 4 -66 10 0 6 18 10 40 10 33 0 40 3
40 20 0 13 -9 22 -25 26 -27 7 -85 -12 -85 -27 0 -5 -5 -9 -11 -9 -7 0 -27 -9
-45 -21 l-34 -20 17 -32 c8 -18 21 -35 27 -39 7 -5 3 -13 -13 -24 -21 -15 -21
-18 -7 -26 9 -5 16 -16 16 -25 0 -13 -3 -14 -12 -5 -17 17 -49 15 -64 -5 -13
-17 -13 -17 -14 -1 0 10 11 25 24 33 37 24 40 59 12 113 -30 59 -38 82 -27 82
5 0 14 -14 20 -30 l10 -31 51 35 c28 19 58 37 68 40 15 5 42 48 42 68 0 14
-30 9 -199 -32 -171 -42 -202 -47 -185 -30 8 8 209 57 472 116 13 2 39 20 59
38 l36 33 -44 56 c-37 47 -48 54 -69 50 -14 -3 -32 -11 -40 -18 -8 -7 -22 -15
-30 -18 -13 -5 -12 -6 1 -6 19 -1 45 -28 36 -38 -4 -3 -13 -1 -20 5 -8 7 -17
9 -20 5 -12 -11 -7 -40 8 -53 17 -14 20 -50 5 -50 -5 0 -10 6 -10 13 0 7 -6
19 -12 26 -7 6 -13 31 -13 54 0 39 -2 42 -25 38 -14 -1 -28 -8 -32 -15 -6 -8
-10 -8 -16 2 -5 7 -16 10 -26 6 -13 -5 -16 -13 -11 -35 8 -35 -10 -40 -19 -6
l-6 24 -60 -16 c-40 -10 -60 -21 -60 -31 0 -12 -2 -13 -9 -1 -9 13 -35 12
-108 -6 -13 -3 -23 -1 -23 5 0 5 41 18 92 27 77 15 89 20 70 28 -12 6 -22 14
-22 19 0 5 3 8 8 6 4 -2 19 -10 34 -17 24 -12 34 -12 75 4 58 21 69 30 49 38
-9 4 -16 1 -16 -5 0 -7 -5 -6 -15 2 -8 7 -15 17 -15 23 0 8 3 8 11 0 6 -6 18
-9 26 -6 11 4 9 9 -7 20 -11 8 -20 21 -20 30 0 21 45 -23 54 -54 5 -17 15 -23
34 -23 34 0 59 15 43 25 -7 4 -19 1 -27 -6 -8 -6 -18 -9 -22 -5 -4 4 1 12 11
17 21 12 22 37 2 58 -8 9 -23 26 -35 39 -21 23 -27 52 -10 52 6 0 10 -8 10
-18 0 -9 9 -23 20 -30 11 -7 20 -18 20 -26 0 -8 7 -17 16 -20 9 -3 14 -12 11
-20 -3 -8 4 -22 16 -33 21 -18 24 -18 54 -3 l32 17 -60 72 c-32 40 -59 75 -59
77 0 18 28 -7 81 -72 l62 -77 124 5 c68 3 123 2 123 -2 0 -9 -107 -21 -179
-20 l-53 1 38 -50 c27 -34 44 -48 54 -44 8 4 64 23 123 44 60 21 111 40 114
43 3 3 -2 12 -11 21 -9 10 -24 31 -33 48 -33 66 -114 146 -189 189 -67 38 -89
58 -65 58 10 0 94 -48 144 -82 l28 -19 46 41 c45 39 47 40 71 24 24 -15 28
-15 83 12 33 15 59 33 59 40 0 6 -25 42 -56 79 -30 38 -64 85 -74 106 -27 51
-75 85 -134 94 -27 3 -54 9 -61 11 -9 4 -17 -12 -24 -46 -6 -29 -25 -72 -42
-96 -27 -36 -31 -49 -26 -81 4 -25 1 -44 -8 -57 -18 -24 -39 -12 -25 14 5 10
10 35 10 55 0 25 10 51 31 80 31 42 52 114 40 132 -3 5 -45 17 -93 27 -79 17
-89 21 -117 57 l-32 38 -43 -21 -43 -21 53 -113 c58 -122 58 -124 46 -124 -5
0 -33 51 -63 114 l-54 113 -61 -30 -62 -30 -9 -60 c-9 -56 -9 -60 16 -87 14
-15 43 -33 63 -41 33 -11 39 -11 58 6 17 15 20 16 20 3 0 -9 -7 -21 -16 -29
-23 -19 -103 4 -131 39 l-23 27 0 -30 c0 -24 -5 -31 -20 -32 -11 -1 -20 4 -20
13 0 8 4 14 8 14 5 0 14 41 21 90 7 50 18 96 25 103 7 6 62 36 122 65 104 52
111 57 153 119 l43 66 -65 -7 c-36 -3 -76 -2 -91 4 -22 8 -31 5 -61 -22 -20
-17 -39 -27 -43 -23 -4 3 3 15 16 25 31 25 28 43 -10 63 -18 9 -44 25 -58 36
-20 15 -47 20 -127 24 l-103 5 -13 -26 c-6 -15 -35 -42 -62 -59 -28 -18 -51
-37 -53 -42 -4 -11 35 -59 96 -117 l42 -42 -29 -25 c-28 -24 -29 -26 -12 -41
10 -9 29 -16 44 -16 14 0 29 -5 33 -11 4 -8 9 -8 17 0 17 17 28 13 16 -6 -13
-23 12 -87 41 -105 20 -13 28 -38 12 -38 -14 0 -41 34 -65 81 -12 23 -29 46
-37 49 -8 4 -33 16 -55 26 l-40 20 -165 -87 c-91 -48 -182 -97 -202 -108 -20
-12 -59 -28 -85 -37 -26 -9 -49 -17 -51 -19 -12 -11 153 -244 258 -363 l81
-93 41 36 c37 31 58 43 58 31 0 -2 -31 -35 -69 -74 -65 -65 -119 -137 -79
-104 13 10 17 10 22 -4 10 -26 7 -38 -6 -26 -9 7 -52 -10 -146 -57 l-133 -67
45 -55 c30 -37 50 -73 60 -110 7 -30 12 -56 9 -59 -7 -8 -21 21 -27 59 -4 21
-26 61 -54 97 l-48 61 -104 -52 c-92 -46 -107 -57 -127 -95 -48 -90 -130 -187
-186 -219 -57 -32 -67 -36 -67 -23 0 4 25 20 54 36 56 30 127 111 176 201 12
22 27 46 33 53 6 8 96 57 200 109 219 109 234 119 288 191 35 46 39 55 27 70
-7 9 -60 73 -116 142 -88 106 -166 213 -207 285 -10 17 -12 17 -44 1 -39 -21
-31 -35 22 -38 30 -3 36 -6 31 -21 -3 -10 -1 -24 5 -31 8 -10 3 -13 -24 -14
-30 -1 -37 3 -56 38 -26 45 -29 47 -57 23 -20 -18 -36 -75 -25 -87 4 -4 8 -12
10 -19 1 -7 7 -32 14 -56 8 -29 9 -45 2 -50 -7 -3 -11 -48 -10 -110 1 -98 2
-104 24 -114 48 -22 27 -41 -126 -115 -157 -76 -267 -116 -277 -101 -10 16 5
26 31 21 18 -3 25 -1 23 9 -2 10 5 13 21 11 21 -3 23 -1 17 21 -3 14 -2 37 3
51 l10 25 -34 -21 c-22 -13 -35 -16 -35 -8 0 7 9 14 20 17 23 6 26 19 8 26 -8
4 -7 6 3 6 18 1 35 44 19 49 -5 2 -7 9 -4 17 4 10 -9 15 -53 19 -32 4 -86 11
-119 16 -81 13 -84 13 -84 -7 -1 -17 -1 -17 -14 0 -28 36 -25 15 5 -35 17 -29
37 -68 45 -85 8 -19 24 -35 37 -38 13 -4 23 -14 24 -26 2 -23 -12 -25 -21 -3
-4 10 -13 14 -22 10 -10 -4 -18 3 -26 24 -5 17 -14 30 -19 30 -4 0 -6 -6 -3
-14 3 -8 1 -17 -5 -21 -6 -3 -11 1 -11 9 0 9 -4 16 -10 16 -5 0 -10 5 -10 10
0 6 7 10 15 10 22 0 18 19 -15 78 -27 46 -33 51 -50 42 -23 -12 -28 4 -6 17 7
4 13 19 12 32 0 13 4 26 11 28 7 3 10 -3 6 -15 -6 -24 16 -40 28 -21 7 11 11
11 17 2 12 -19 98 -28 117 -13 12 10 15 10 15 -2 0 -14 50 -25 150 -33 24 -1
93 -11 152 -20 22 -4 26 -1 21 13 -6 16 -5 16 14 0 11 -10 31 -18 45 -18 24 0
26 4 33 55 3 31 3 70 -1 88 -6 30 -7 31 -15 9 -9 -23 -26 -32 -99 -51 -25 -7
-60 -16 -79 -21 -29 -7 -41 -4 -92 28 -45 28 -63 47 -79 82 -12 25 -40 74 -63
110 -38 58 -42 70 -41 125 1 33 4 80 8 105 12 75 2 77 -115 20 -108 -52 -119
-56 -119 -42 0 5 61 37 136 72 129 61 135 65 131 90 -7 32 5 53 25 45 8 -3 22
1 31 9 21 21 27 20 27 -4 0 -13 -7 -20 -19 -20 -19 0 -48 -26 -38 -36 3 -3 28
6 55 20 28 14 72 30 99 36 26 5 87 29 135 52 83 40 87 43 71 60 -11 13 -20 15
-27 8 -5 -5 -18 -10 -28 -10 -9 0 -38 -7 -64 -16 -35 -12 -53 -13 -70 -5 -19
8 -24 7 -29 -9 -8 -24 -23 -27 -21 -4 1 17 -11 25 -61 42 -30 9 -32 9 -23 -9
11 -20 -3 -28 -15 -8 -5 7 -15 5 -30 -5 -22 -14 -23 -14 -27 14 -4 24 -1 30
14 30 10 0 18 5 18 10 0 6 -3 10 -8 10 -12 0 -86 -52 -95 -67 -7 -11 -13 -10
-37 3 -31 19 -30 19 -102 -36 l-28 -22 0 29 c0 17 3 23 8 16 9 -15 72 31 72
53 0 8 5 14 10 14 6 0 10 -4 10 -10 0 -14 32 -12 53 4 30 23 21 37 -20 31
l-38 -6 28 16 c15 9 27 20 27 25 0 19 17 10 28 -15 7 -16 17 -23 27 -19 8 3
15 1 15 -6 0 -6 5 -8 10 -5 6 4 8 10 5 15 -6 10 23 35 32 26 4 -4 1 -11 -7
-16 -13 -8 -12 -10 3 -10 10 0 27 5 38 10 23 13 27 -5 3 -18 -13 -7 -12 -11
10 -26 18 -11 32 -14 44 -8 22 11 78 -1 75 -16 -4 -19 44 -25 68 -8 13 9 33
13 49 9 32 -6 49 13 29 32 -8 7 -43 22 -79 32 -47 14 -99 43 -180 99 -62 43
-117 78 -122 77 -4 -2 -8 2 -8 7 0 15 9 12 42 -11 24 -18 34 -20 53 -11 19 9
23 8 19 -2 -3 -8 18 -30 53 -55 43 -31 64 -40 82 -36 21 5 23 4 12 -8 -9 -12
-8 -16 5 -21 9 -3 20 -4 25 0 5 3 9 1 9 -4 0 -5 21 -15 48 -22 26 -7 53 -17
60 -23 8 -7 12 -5 12 7 0 9 6 16 13 15 21 -4 67 23 67 40 0 13 4 12 18 -5 9
-12 38 -35 64 -52 25 -18 55 -43 65 -57 13 -18 28 -26 51 -27 20 -1 32 -6 32
-15 0 -21 14 -15 35 17 23 34 28 36 49 14 11 -11 25 -14 46 -9 16 4 29 10 29
13 -5 32 5 50 37 67 20 10 44 30 54 43 11 13 23 21 28 18 6 -3 15 1 22 9 11
13 8 21 -16 48 -16 17 -30 34 -32 36 -1 3 -18 -3 -37 -12 -40 -19 -55 -21 -55
-8 0 5 14 14 30 21 17 7 32 16 35 20 9 15 -121 330 -137 330 -3 0 -95 -43
-205 -96 -109 -53 -250 -121 -312 -151 -63 -30 -128 -61 -143 -69 -24 -12 -28
-12 -28 0 0 7 19 21 43 31 49 20 618 295 630 305 4 3 -5 30 -19 60 -18 37 -22
55 -14 60 6 4 9 17 5 32 -4 17 -2 29 7 34 7 4 10 4 6 -1 -4 -4 3 -29 16 -54
13 -25 51 -103 84 -172 59 -125 94 -169 133 -169 11 0 19 -4 19 -8 0 -4 20
-18 45 -30 l44 -21 42 49 c23 27 46 47 51 44 5 -3 -10 -27 -32 -54 -22 -27
-37 -51 -33 -53 18 -11 126 -38 130 -33 3 3 -8 13 -26 23 -36 21 -38 27 -13
45 10 7 21 21 25 31 3 9 13 17 22 17 8 0 15 5 15 11 0 8 4 8 13 1 16 -14 58
-4 73 16 6 9 18 13 26 9 10 -3 27 6 44 24 15 16 22 29 15 29 -12 0 -150 57
-160 66 -2 2 -2 7 2 10 3 4 31 -4 61 -17 31 -12 57 -21 59 -18 1 2 18 39 36
81 l33 78 -26 30 c-14 17 -30 48 -36 68 -5 21 -15 45 -22 53 -15 18 -214 139
-228 139 -6 0 -10 5 -10 10 0 18 18 11 110 -45z m2361 -8 c-1 -12 -15 -9 -19
4 -3 6 1 10 8 8 6 -3 11 -8 11 -12z m-5111 -7 c0 -5 -7 -10 -16 -10 -8 0 -12
5 -9 10 3 6 10 10 16 10 5 0 9 -4 9 -10z m3710 -9 c0 -4 -31 -22 -70 -40 -38
-17 -70 -35 -70 -40 0 -5 -16 -15 -35 -21 -19 -6 -37 -16 -40 -20 -5 -8 71
-160 79 -160 2 0 60 27 129 60 134 63 137 65 137 52 0 -4 -25 -20 -56 -35
l-56 -28 36 -47 c46 -60 79 -122 70 -130 -4 -4 -8 -2 -11 3 -3 11 -64 103 -95
145 l-17 23 -65 -31 -65 -31 24 -55 c13 -30 47 -100 74 -155 30 -59 47 -103
41 -106 -6 -4 -25 26 -44 67 -48 105 -174 357 -197 395 l-20 32 46 31 c43 29
180 99 198 100 4 0 7 -4 7 -9z m-3620 -33 c0 -6 -7 -5 -15 2 -8 7 -15 17 -15
22 0 6 7 5 15 -2 8 -7 15 -17 15 -22z m5057 -4 c-9 -10 -38 16 -31 28 4 6 13
4 22 -6 9 -8 13 -19 9 -22z m-5192 16 c-3 -5 -13 -10 -21 -10 -8 0 -14 5 -14
10 0 6 9 10 21 10 11 0 17 -4 14 -10z m4983 -9 c3 -8 -1 -12 -9 -9 -7 2 -15
10 -17 17 -3 8 1 12 9 9 7 -2 15 -10 17 -17z m-4708 -21 c0 -5 -6 -10 -14 -10
-8 0 -18 5 -21 10 -3 6 3 10 14 10 12 0 21 -4 21 -10z m4758 -9 c3 -8 -1 -12
-9 -9 -7 2 -15 10 -17 17 -3 8 1 12 9 9 7 -2 15 -10 17 -17z m-4861 -2 c8 -8
13 -8 17 0 13 20 23 11 18 -14 -5 -29 -11 -30 -38 -10 -22 17 -38 20 -29 5 3
-5 2 -10 -4 -10 -17 0 -24 22 -10 31 19 12 33 11 46 -2z m4903 -14 c-7 -9 -15
-13 -18 -10 -3 2 1 11 8 20 7 9 15 13 18 10 3 -2 -1 -11 -8 -20z m155 14 c12
-19 -5 -23 -22 -6 -16 16 -16 17 -1 17 9 0 20 -5 23 -11z m-175 -50 c0 -4 -7
-12 -15 -19 -8 -7 -15 -9 -15 -4 0 5 -3 20 -7 32 -5 22 -4 23 16 11 11 -8 21
-17 21 -20z m220 21 c8 -5 12 -12 9 -15 -8 -8 -39 5 -39 16 0 11 11 11 30 -1z
m-5090 -40 c0 -23 -10 -26 -28 -8 -18 18 -15 28 8 28 13 0 20 -7 20 -20z
m2154 11 c3 -4 3 -11 0 -14 -8 -8 -34 3 -34 14 0 11 27 12 34 0z m2996 -13 c0
-13 -23 -5 -28 10 -2 7 2 10 12 6 9 -3 16 -11 16 -16z m-330 -8 c0 -5 -12 -10
-26 -10 -14 0 -23 4 -19 10 3 6 15 10 26 10 10 0 19 -4 19 -10z m380 0 c8 -5
12 -12 9 -15 -8 -8 -39 5 -39 16 0 11 11 11 30 -1z m-2796 -55 c-4 -8 -10 -15
-15 -15 -4 0 -6 7 -3 15 4 8 10 15 15 15 4 0 6 -7 3 -15z m501 -95 c-9 -16
-20 -30 -25 -30 -14 0 -12 12 6 38 23 33 37 27 19 -8z m1576 -72 c10 -25 20
-33 39 -33 20 0 25 4 22 24 -1 17 2 22 12 18 8 -3 16 -1 19 6 2 7 15 0 31 -18
26 -28 27 -29 20 -6 -5 20 -3 23 11 17 24 -9 57 3 49 16 -5 8 -1 9 10 5 10 -4
27 -7 37 -7 33 0 12 -17 -29 -24 -22 -3 -45 -13 -52 -21 -15 -18 -42 -19 -58
-3 -9 9 -12 9 -12 -1 0 -7 -4 -9 -10 -6 -5 3 -10 2 -10 -4 0 -6 -17 -15 -37
-20 -49 -14 -60 -14 -45 1 9 9 9 15 -2 27 -18 21 -30 61 -18 61 4 0 15 -15 23
-32z m-3366 -87 c19 -2 19 -2 2 -12 -10 -6 -21 -9 -24 -6 -2 3 -25 -5 -49 -18
-24 -13 -44 -19 -44 -14 0 19 -29 8 -32 -13 -2 -12 -9 -23 -17 -26 -9 -3 -11
1 -7 16 4 12 1 26 -9 35 -22 23 -19 27 15 21 21 -5 30 -3 30 7 0 10 3 10 12 1
16 -16 47 -15 54 1 3 8 15 12 27 11 12 -1 31 -3 42 -3z m3665 -39 c0 -10 -60
-32 -87 -32 -30 0 -54 -10 -48 -20 3 -5 1 -11 -5 -15 -5 -3 -10 0 -10 8 0 10
-7 13 -19 10 -10 -3 -22 0 -25 6 -4 5 -13 8 -21 4 -8 -3 -15 -1 -15 5 0 6 14
15 31 21 26 9 30 8 25 -4 -7 -20 9 -19 30 2 13 13 19 14 22 5 4 -14 52 -17 52
-3 0 5 12 12 28 14 15 2 30 5 35 6 4 0 7 -3 7 -7z m-910 -22 c0 -5 -2 -10 -4
-10 -3 0 -8 5 -11 10 -3 6 -1 10 4 10 6 0 11 -4 11 -10z m-2868 -22 c-7 -7
-12 -25 -12 -41 0 -20 -4 -28 -13 -24 -7 3 -21 -1 -32 -9 -19 -14 -75 -20 -61
-7 4 4 21 12 39 18 18 6 31 16 30 23 -2 7 1 12 6 12 5 0 13 9 16 20 3 11 14
20 23 20 12 0 13 -3 4 -12z m2901 -10 c7 -6 11 -26 9 -44 -2 -18 3 -55 12 -80
18 -53 22 -144 6 -144 -5 0 -10 25 -10 55 0 30 -7 73 -16 95 -10 25 -14 54
-11 75 3 19 2 35 -4 35 -5 0 -9 5 -9 10 0 13 8 13 23 -2z m-193 -28 c0 -10
-120 -80 -139 -80 -24 0 2 21 67 55 78 40 72 38 72 25z m-1740 -8 c0 -5 -9
-18 -19 -29 -11 -11 -21 -33 -24 -49 -4 -27 -5 -27 -12 -7 -7 21 -7 21 -27 1
-22 -22 -23 -22 -31 13 -5 20 -1 28 23 43 17 9 30 14 30 11 0 -3 10 1 22 9 25
18 38 20 38 8z m-864 -17 c-3 -8 -2 -15 3 -15 4 0 13 -12 20 -26 7 -17 17 -24
26 -20 19 7 19 -4 0 -30 -8 -12 -11 -24 -8 -28 12 -12 43 -6 43 9 0 8 8 15 17
15 13 0 14 -3 5 -12 -16 -16 -15 -48 1 -48 8 0 7 -4 -3 -10 -21 -13 -30 -12
-27 3 1 7 -11 13 -31 15 -18 2 -30 7 -27 12 3 5 -4 14 -15 20 -11 6 -20 15
-20 21 0 6 7 6 20 -1 16 -9 20 -8 20 6 0 13 -7 15 -33 10 -30 -6 -35 -3 -49
27 -16 33 -7 58 19 50 6 -2 14 1 18 6 10 17 28 13 21 -4z m1911 -40 c-1 -19
-3 -35 -6 -35 -14 1 -65 50 -58 56 3 4 13 2 20 -5 11 -9 17 -8 27 4 17 21 18
20 17 -20z m960 19 c-3 -3 -12 -4 -19 -1 -8 3 -5 6 6 6 11 1 17 -2 13 -5z
m321 -114 c7 -11 23 -20 37 -20 14 0 25 -5 25 -11 0 -6 -9 -9 -20 -6 -14 4
-20 0 -20 -11 -1 -14 -3 -13 -12 3 -6 11 -14 22 -18 25 -10 8 -20 40 -12 40 4
0 13 -9 20 -20z m-4123 0 c3 -5 3 -10 -1 -10 -4 0 -273 -56 -598 -125 -519
-110 -665 -137 -606 -112 14 7 1162 254 1187 256 6 1 15 -3 18 -9z m1115 7 c0
-2 -10 -12 -22 -23 l-23 -19 19 23 c18 21 26 27 26 19z m3110 -58 c0 -8 5 -8
15 1 12 10 15 10 15 -2 0 -8 11 -20 25 -26 14 -6 25 -17 25 -23 0 -8 -6 -7
-17 3 -10 9 -23 13 -30 11 -6 -2 -21 4 -32 14 -23 19 -27 33 -11 33 6 0 10 -5
10 -11z m-3000 -19 c0 -5 -5 -10 -11 -10 -5 0 -7 5 -4 10 3 6 8 10 11 10 2 0
4 -4 4 -10z m-340 -45 c-14 -8 -29 -14 -35 -14 -5 0 1 6 15 14 14 8 30 14 35
14 6 0 -1 -6 -15 -14z m548 -17 c19 -19 14 -30 -8 -18 -11 6 -20 15 -20 20 0
14 14 12 28 -2z m3546 -33 c-5 -21 -3 -25 15 -25 22 0 29 -24 11 -35 -5 -3
-10 -1 -10 4 0 6 -6 11 -14 11 -8 0 -17 4 -21 10 -8 12 5 60 16 60 5 0 7 -11
3 -25z m-4234 -54 c21 -40 1 -44 -24 -6 -14 21 -14 25 -2 25 9 0 20 -9 26 -19z
m-525 -8 c7 -17 8 -16 16 2 8 17 9 16 6 -7 -2 -15 1 -29 7 -32 7 -3 7 -5 0 -5
-5 -1 -20 13 -32 29 -13 17 -18 30 -13 30 5 0 12 -8 16 -17z m86 -19 c15 -19
21 -91 8 -100 -12 -7 -39 14 -39 30 0 6 7 3 14 -7 8 -11 17 -14 20 -8 4 5 -6
21 -21 35 -15 14 -22 26 -15 26 6 0 12 5 12 10 0 6 -7 10 -16 10 -8 0 -12 5
-9 10 9 15 31 12 46 -6z m365 -30 c-11 -7 -22 -11 -25 -8 -3 3 3 12 13 20 11
7 22 11 25 8 3 -3 -3 -12 -13 -20z m150 -47 c67 -102 106 -187 85 -187 -5 0
-20 24 -34 53 -13 28 -44 82 -69 119 -41 60 -47 78 -29 78 4 0 25 -28 47 -63z
m90 48 c-21 -16 -32 -13 -21 4 3 6 14 11 23 11 15 -1 15 -2 -2 -15z m2774 -20
c28 -14 28 -16 15 -43 -23 -44 -28 -65 -28 -108 0 -51 6 -60 38 -68 29 -7 295
-195 295 -208 0 -15 -12 -8 -114 65 -154 112 -178 127 -208 127 l-28 0 0 -77
c0 -80 -8 -107 -26 -95 -12 8 -134 161 -134 168 0 18 27 -7 79 -72 59 -74 61
-75 61 -45 0 24 -4 31 -20 31 -11 0 -20 5 -20 10 0 6 9 10 19 10 17 0 19 8 20
85 0 71 4 95 25 140 14 29 26 56 26 58 0 3 -11 8 -25 11 -14 4 -25 11 -25 16
0 14 16 12 50 -5z m-5114 -14 c-3 -4 -25 -11 -48 -15 -24 -4 -285 -58 -580
-121 -296 -63 -546 -115 -555 -115 -61 0 54 29 437 110 239 51 494 105 565
120 136 30 190 36 181 21z m1784 -11 c0 -5 -4 -10 -10 -10 -5 0 -10 5 -10 10
0 6 5 10 10 10 6 0 10 -4 10 -10z m59 -49 c13 -23 5 -31 -30 -31 -19 0 -34 -8
-45 -25 -22 -34 -38 -27 -45 18 -4 26 -2 37 7 37 7 0 14 -9 16 -20 2 -15 7
-17 18 -10 13 9 13 11 0 20 -13 9 -13 11 0 20 25 16 68 12 79 -9z m-137 -49
c-10 -3 -10 -7 0 -20 11 -13 11 -14 -2 -10 -8 3 -20 -2 -26 -10 -12 -16 -84
-24 -84 -10 0 4 12 10 28 14 48 10 54 14 49 28 -4 9 1 16 11 19 20 4 41 -5 24
-11z m2258 -23 c0 -4 -7 -6 -15 -3 -8 4 -15 10 -15 15 0 4 7 6 15 3 8 -4 15
-10 15 -15z m-2160 1 c8 -5 12 -12 9 -15 -8 -8 -39 5 -39 16 0 11 11 11 30 -1z
m50 -45 c-8 -10 -6 -13 7 -11 12 0 19 -7 21 -22 4 -29 44 -72 66 -72 22 0 15
-24 -7 -28 -10 -2 -17 3 -17 13 0 9 -4 14 -9 10 -6 -3 -15 5 -22 17 -7 13 -15
25 -19 28 -3 3 -16 22 -29 42 -24 40 -21 69 5 47 10 -8 11 -15 4 -24z m-290 5
c-8 -6 -24 -10 -34 -10 -11 0 -28 -7 -38 -17 -20 -18 -32 -14 -23 9 3 8 27 19
53 24 51 11 65 8 42 -6z m-112 -22 c-5 -15 -35 -34 -43 -27 -3 4 -3 14 1 23 7
18 48 23 42 4z m-64 -20 c-8 -29 -10 -31 -23 -23 -8 4 -8 12 -1 26 15 27 33
24 24 -3z m637 -5 c-12 -8 -21 -23 -21 -33 0 -23 -18 -36 -31 -23 -11 11 50
85 64 76 5 -3 -1 -12 -12 -20z m1926 -8 c-4 -8 -11 -15 -17 -15 -7 0 -7 6 0
21 13 23 26 19 17 -6z m413 -29 c0 -5 7 -18 17 -28 9 -10 13 -21 9 -26 -4 -4
-17 6 -28 21 -11 15 -33 34 -49 43 -16 8 -27 19 -24 24 7 11 75 -19 75 -34z
m-2006 12 c3 -13 6 -60 6 -106 0 -63 -3 -83 -12 -80 -9 3 -14 36 -16 106 -2
95 8 132 22 80z m-964 -18 c0 -5 -10 -10 -22 -10 -19 0 -20 2 -8 10 19 13 30
13 30 0z m2533 -20 c-3 -11 -9 -18 -13 -15 -5 3 -6 14 -3 25 3 11 9 18 13 15
5 -3 6 -14 3 -25z m-2592 1 c-12 -7 -12 -13 -3 -24 15 -18 3 -31 -15 -16 -22
19 -16 49 10 49 17 0 19 -2 8 -9z m2549 -46 c-7 -9 -15 -13 -18 -10 -3 2 1 11
8 20 7 9 15 13 18 10 3 -2 -1 -11 -8 -20z m-2512 -33 c6 -18 -15 -14 -22 4 -4
10 -1 14 6 12 6 -2 14 -10 16 -16z m2504 -9 c10 -9 18 -21 18 -26 0 -6 -9 -2
-20 8 -11 10 -20 13 -20 7 0 -20 -17 -13 -23 8 -6 25 19 27 45 3z m-2466 -51
c-9 -8 -26 10 -26 26 1 15 2 15 15 -2 8 -11 13 -21 11 -24z m2411 1 c-9 -9
-20 -13 -24 -9 -4 4 -1 11 7 16 25 16 35 11 17 -7z m-2393 -39 c9 -22 -3 -32
-14 -14 -12 19 -12 30 -1 30 5 0 12 -7 15 -16z m936 -81 c0 -114 -11 -223 -21
-223 -10 0 -12 180 -3 258 10 82 24 61 24 -35z m3180 67 c0 -5 -3 -10 -7 -11
-16 -1 -38 -7 -55 -14 -11 -4 -18 -3 -18 4 0 6 9 11 19 11 11 0 23 5 26 10 3
6 13 10 21 10 8 0 14 -4 14 -10z m-1450 -31 c0 -5 -4 -9 -10 -9 -5 0 -7 -7 -4
-15 4 -8 2 -15 -3 -15 -11 0 -34 46 -27 53 8 7 44 -4 44 -14z m1349 5 c2 -2
-2 -5 -10 -7 -8 -2 -29 -9 -48 -15 -32 -11 -63 -5 -33 5 7 3 18 11 25 18 10
12 52 11 66 -1z m976 6 c4 -6 -5 -10 -20 -10 -15 0 -24 4 -20 10 3 6 12 10 20
10 8 0 17 -4 20 -10z m-5022 -19 c-13 -11 -24 -27 -24 -38 -1 -17 -2 -17 -6 0
-5 19 22 57 41 57 6 -1 1 -9 -11 -19z m5061 13 c23 -9 20 -23 -4 -17 -11 3
-20 9 -20 14 0 11 3 11 24 3z m-3904 -19 c9 -11 22 -14 42 -10 16 4 28 2 28
-4 0 -5 -10 -12 -22 -14 -19 -4 -18 -4 5 -6 24 -1 27 -4 22 -22 -5 -14 -3 -19
3 -15 6 3 13 2 17 -4 3 -5 1 -10 -5 -10 -7 0 -10 -7 -6 -15 7 -19 -5 -19 -30
0 -10 8 -13 15 -7 15 7 0 -8 19 -32 41 -43 40 -55 59 -36 59 5 0 14 -7 21 -15z
m1580 -7 c0 -19 -2 -20 -10 -8 -13 19 -13 30 0 30 6 0 10 -10 10 -22z m2225 3
c-3 -11 -1 -22 5 -26 15 -9 12 -25 -4 -19 -8 3 -16 -4 -19 -17 -4 -13 -9 -20
-13 -16 -8 8 18 97 29 97 5 0 6 -9 2 -19z m-1025 -10 c0 -5 3 -16 6 -25 3 -9
1 -16 -5 -16 -6 0 -11 7 -11 16 0 11 -6 14 -20 9 -21 -7 -28 10 -7 18 20 9 37
8 37 -2z m-133 -20 c7 -10 9 -21 6 -24 -7 -8 -33 18 -33 32 0 17 14 13 27 -8z
m-1091 -39 c-9 -8 -26 10 -26 26 1 15 2 15 15 -2 8 -11 13 -21 11 -24z m112 6
c-2 -6 -10 -14 -16 -16 -7 -2 -10 2 -6 12 7 18 28 22 22 4z m2198 -15 c-7 -7
-26 7 -26 19 0 6 6 6 15 -2 9 -7 13 -15 11 -17z m-5050 -9 c-4 -9 -9 -15 -11
-12 -3 3 -3 13 1 22 4 9 9 15 11 12 3 -3 3 -13 -1 -22z m2434 6 c-24 -15 -37
-11 -16 5 11 8 22 12 25 9 3 -3 -1 -9 -9 -14z m1447 -2 c6 -13 33 -49 59 -81
129 -151 140 -172 149 -265 7 -74 40 -189 60 -211 18 -19 70 -5 110 31 23 19
42 28 57 26 l23 -4 -25 -11 c-14 -6 -31 -18 -38 -26 -21 -25 -101 -51 -126
-39 -27 12 -60 106 -77 224 -9 65 -19 98 -41 130 l-28 43 0 -33 c0 -23 -4 -32
-12 -30 -8 3 -13 23 -13 49 -1 39 -7 52 -63 118 -57 68 -75 101 -54 101 5 0
13 -10 19 -22z m-3917 -7 c0 -10 -30 -24 -37 -17 -3 3 -2 9 2 15 8 13 35 15
35 2z m5020 -33 c0 -5 -4 -8 -10 -8 -5 0 -10 10 -10 23 0 18 2 19 10 7 5 -8
10 -18 10 -22z m115 22 c3 -5 -1 -10 -9 -10 -8 0 -18 5 -21 10 -3 6 1 10 9 10
8 0 18 -4 21 -10z m-2675 -42 c0 -5 -11 -8 -25 -8 -14 0 -25 5 -25 10 0 6 7
10 15 10 8 0 15 6 15 13 0 13 20 -12 20 -25z m1270 -18 c0 -11 -4 -20 -10 -20
-5 0 -10 9 -10 20 0 11 5 20 10 20 6 0 10 -9 10 -20z m1304 -6 c9 -22 -3 -32
-14 -14 -12 19 -12 30 -1 30 5 0 12 -7 15 -16z m-2564 -30 c0 -8 9 -14 20 -14
15 0 20 -7 20 -27 0 -14 -3 -23 -7 -19 -5 4 -8 13 -8 19 0 7 -10 11 -22 9 -16
-2 -22 2 -21 15 0 10 -3 27 -8 38 -7 18 -6 18 9 6 9 -7 17 -20 17 -27z m37 25
c-14 -8 -22 -8 -30 0 -8 8 -3 11 19 11 25 -1 27 -2 11 -11z m391 -18 c3 -8 -1
-12 -9 -9 -7 2 -15 10 -17 17 -3 8 1 12 9 9 7 -2 15 -10 17 -17z m1598 -82
c-6 -64 -33 -136 -57 -156 -21 -17 -171 -54 -166 -40 2 6 35 19 73 29 69 17
122 56 108 79 -3 6 -1 16 6 24 6 7 14 39 17 69 3 31 10 56 16 56 6 0 7 -23 3
-61z m544 41 c0 -11 -2 -20 -4 -20 -2 0 -6 9 -9 20 -3 11 -1 20 4 20 5 0 9 -9
9 -20z m-3150 -17 c0 -10 -6 -13 -16 -9 -9 3 -21 6 -27 6 -7 0 -3 7 7 15 21
16 36 11 36 -12z m436 12 c-3 -10 1 -15 14 -15 10 0 22 -4 25 -10 3 -5 2 -10
-4 -10 -6 0 -8 -6 -5 -14 3 -9 -4 -15 -20 -18 -27 -5 -36 6 -13 16 8 3 7 8 -5
16 -28 17 -22 42 11 49 2 1 1 -6 -3 -14z m1139 4 c11 -17 -1 -21 -15 -4 -8 9
-8 15 -2 15 6 0 14 -5 17 -11z m-2495 -8 c0 -5 8 -11 18 -14 16 -4 16 -4 -2
-12 -12 -5 -21 -3 -27 6 -12 19 -11 29 1 29 6 0 10 -4 10 -9z m970 -1 c0 -5
-6 -10 -14 -10 -8 0 -18 5 -21 10 -3 6 3 10 14 10 12 0 21 -4 21 -10z m60 0
c0 -5 -9 -10 -20 -10 -11 0 -20 5 -20 10 0 6 9 10 20 10 11 0 20 -4 20 -10z
m420 1 c0 -11 -31 -24 -39 -16 -3 3 1 10 9 15 19 12 30 12 30 1z m30 -21 c-6
-11 -15 -20 -21 -20 -6 0 -6 7 1 20 6 11 15 20 21 20 6 0 6 -7 -1 -20z m-640
-20 c-20 -16 -22 -20 -8 -20 16 0 55 -57 45 -66 -9 -9 -38 9 -33 22 3 8 -6 15
-25 19 -16 4 -26 11 -23 16 3 6 -26 -6 -65 -26 -39 -19 -71 -31 -71 -25 0 11
192 111 200 103 3 -2 -6 -13 -20 -23z m-770 -26 c0 -6 34 -56 75 -109 70 -92
87 -121 66 -113 -5 2 -39 41 -76 88 -69 87 -108 157 -98 174 7 10 33 -21 33
-40z m2404 -7 c2 -15 0 -29 -5 -33 -15 -9 -119 6 -119 16 0 5 23 6 50 3 l50
-6 0 39 c1 42 15 31 24 -19z m1596 36 c0 -5 -5 -15 -10 -23 -8 -12 -10 -11
-10 8 0 12 5 22 10 22 6 0 10 -3 10 -7z m-1523 -109 c17 -13 17 -13 0 -14 -23
0 -61 61 -44 72 8 5 14 -2 19 -18 4 -14 15 -32 25 -40z m1513 42 c0 -8 -4 -18
-10 -21 -5 -3 -10 3 -10 14 0 12 5 21 10 21 6 0 10 -6 10 -14z m-2520 -56 c0
-5 -13 -10 -29 -10 -16 0 -31 -6 -34 -13 -7 -19 55 -83 78 -79 20 3 20 2 0
-13 -19 -15 -22 -14 -57 27 -40 45 -46 66 -26 86 14 14 68 16 68 2z m2500 -11
c-7 -11 -14 -18 -17 -15 -8 8 5 36 17 36 7 0 7 -6 0 -21z m-7535 -19 c-3 -11
-3 -20 2 -20 5 0 17 -14 27 -31 17 -30 17 -30 -4 -49 -13 -11 -27 -17 -32 -14
-5 3 -1 13 10 22 20 16 20 16 0 44 -10 15 -25 28 -33 28 -8 0 -11 7 -8 20 3
11 14 20 25 20 15 0 18 -5 13 -20z m4945 8 c0 -3 -13 -9 -30 -13 -16 -4 -32
-11 -35 -16 -11 -17 -23 -9 -21 14 1 19 6 22 43 22 24 0 43 -3 43 -7z m274
-49 c-6 -11 -44 8 -44 21 0 6 10 5 25 -2 13 -6 22 -15 19 -19z m2286 6 c-7 -9
-15 -13 -18 -10 -3 2 1 11 8 20 7 9 15 13 18 10 3 -2 -1 -11 -8 -20z m-2770
-17 c0 -5 -9 -8 -19 -8 -27 0 -37 -37 -17 -59 25 -27 20 -48 -10 -48 -15 0
-30 -6 -34 -13 -10 -17 -24 5 -16 26 3 8 2 12 -3 9 -5 -3 -12 -1 -16 5 -3 5 6
15 20 22 16 7 28 23 32 40 3 15 12 28 20 28 7 0 16 7 20 16 5 13 7 13 14 2 5
-7 9 -16 9 -20z m2350 23 c0 -11 -31 -24 -39 -16 -3 3 1 10 9 15 19 12 30 12
30 1z m-6960 -11 c0 -5 -4 -10 -10 -10 -5 0 -10 5 -10 10 0 6 5 10 10 10 6 0
10 -4 10 -10z m5150 0 c0 -5 -9 -10 -21 -10 -11 0 -17 5 -14 10 3 6 13 10 21
10 8 0 14 -4 14 -10z m1860 -12 c0 -6 -7 -7 -16 -4 -9 3 -18 6 -20 6 -3 0 -3
4 1 10 7 11 35 2 35 -12z m-2290 -18 c0 -11 -4 -20 -10 -20 -5 0 -10 9 -10 20
0 11 5 20 10 20 6 0 10 -9 10 -20z m2174 5 c-6 -16 -24 -21 -24 -7 0 11 11 22
21 22 5 0 6 -7 3 -15z m176 5 c0 -5 -9 -10 -20 -10 -11 0 -20 5 -20 10 0 6 9
10 20 10 11 0 20 -4 20 -10z m269 -21 c-19 -12 -24 -2 -8 17 9 11 14 13 17 4
3 -7 -2 -16 -9 -21z m-7373 2 c-10 -11 -15 -24 -12 -30 4 -5 2 -12 -3 -15 -17
-11 -21 39 -4 52 26 19 38 14 19 -7z m6004 -1 c-19 -12 -30 -12 -30 -1 0 10
31 20 40 14 2 -2 -2 -8 -10 -13z m1156 -7 c-8 -8 -36 5 -36 17 0 7 6 7 21 0
11 -7 18 -14 15 -17z m-1096 -5 c0 -13 -23 -5 -28 10 -2 7 2 10 12 6 9 -3 16
-11 16 -16z m1270 2 c0 -5 -10 -10 -22 -10 -19 0 -20 2 -8 10 19 13 30 13 30
0z m-1354 -38 c-9 -8 -26 10 -26 26 1 15 2 15 15 -2 8 -11 13 -21 11 -24z
m917 13 c-5 -13 -23 -22 -23 -11 0 15 14 35 21 31 4 -3 6 -12 2 -20z m312 15
c3 -5 -1 -10 -9 -10 -8 0 -18 5 -21 10 -3 6 1 10 9 10 8 0 18 -4 21 -10z m65
0 c0 -5 -9 -10 -20 -10 -11 0 -20 5 -20 10 0 6 9 10 20 10 11 0 20 -4 20 -10z
m-2522 -21 c-15 -4 -31 -10 -37 -13 -5 -4 -12 -2 -16 3 -6 11 55 31 70 23 5
-3 -3 -9 -17 -13z m422 6 c-11 -13 -10 -18 6 -29 10 -8 15 -18 11 -23 -5 -4
-14 -1 -20 8 -8 10 -24 15 -45 13 -17 -1 -35 2 -38 7 -3 5 8 9 24 9 16 0 35 7
42 15 7 8 17 15 22 15 6 0 5 -7 -2 -15z m-362 -17 c15 -15 16 -38 2 -38 -5 0
-10 7 -10 15 0 8 -4 15 -10 15 -5 0 -10 5 -10 10 0 14 13 13 28 -2z m-4808
-40 c0 -5 -4 -8 -10 -8 -5 0 -10 10 -10 23 0 18 2 19 10 7 5 -8 10 -18 10 -22z
m6060 0 c0 -6 -7 -5 -15 2 -8 7 -15 17 -15 22 0 6 7 5 15 -2 8 -7 15 -17 15
-22z m-58 10 c-9 -9 -15 -9 -24 0 -9 9 -7 12 12 12 19 0 21 -3 12 -12z m881
-9 c3 -13 1 -19 -6 -16 -15 5 -22 37 -9 37 5 0 12 -9 15 -21z m-768 1 c-3 -5
-13 -10 -21 -10 -8 0 -14 5 -14 10 0 6 9 10 21 10 11 0 17 -4 14 -10z m-6109
-55 c-13 -28 -26 -23 -26 10 0 18 4 22 19 18 15 -4 17 -8 7 -28z m6843 -12
c33 -64 89 -110 166 -136 65 -22 77 -23 163 -14 171 18 249 -32 251 -161 1
-23 9 -55 19 -69 9 -15 12 -24 6 -20 -7 4 -17 0 -24 -8 -7 -8 -20 -15 -29 -15
-12 1 -11 5 8 20 18 16 21 23 12 34 -7 8 -9 25 -5 40 8 31 -18 107 -44 128
-38 31 -91 40 -201 33 -99 -6 -111 -5 -176 20 -38 15 -85 41 -103 58 -36 34
-89 127 -72 127 5 0 18 -17 29 -37z m71 16 c0 -4 -7 -6 -15 -3 -8 4 -15 10
-15 15 0 4 7 6 15 3 8 -4 15 -10 15 -15z m-2010 -24 c0 -8 7 -15 15 -15 9 0
15 -6 13 -12 -1 -7 2 -23 6 -36 6 -19 12 -22 37 -17 37 8 38 -3 0 -16 -22 -8
-28 -15 -24 -30 3 -10 0 -19 -6 -19 -6 0 -11 7 -11 15 0 8 -5 15 -11 15 -6 0
-8 8 -4 19 7 23 -3 51 -19 51 -6 0 -12 14 -13 30 -1 17 2 30 7 30 6 0 10 -7
10 -15z m2055 -6 c12 -19 -5 -23 -22 -6 -16 16 -16 17 -1 17 9 0 20 -5 23 -11z
m245 -21 c0 -7 3 -23 6 -35 5 -19 2 -23 -16 -23 -17 0 -20 3 -12 13 6 7 9 23
5 35 -3 13 -1 22 6 22 6 0 11 -6 11 -12z m-2970 -23 c0 -8 -2 -15 -4 -15 -2 0
-6 7 -10 15 -3 8 -1 15 4 15 6 0 10 -7 10 -15z m130 0 c14 -16 10 -18 -14 -9
-9 3 -16 10 -16 15 0 14 16 11 30 -6z m2640 0 c7 -8 8 -15 2 -15 -5 0 -15 7
-22 15 -7 8 -8 15 -2 15 5 0 15 -7 22 -15z m-2590 -30 c10 -12 10 -15 -4 -15
-9 0 -16 7 -16 15 0 8 2 15 4 15 2 0 9 -7 16 -15z m490 -11 c0 -8 -9 -14 -20
-14 -23 0 -25 6 -7 24 14 16 27 11 27 -10z m2150 -5 c0 -5 -7 -6 -15 -3 -8 4
-15 13 -15 21 0 13 3 13 15 3 8 -7 15 -16 15 -21z m-2000 11 c0 -5 -9 -10 -21
-10 -11 0 -17 5 -14 10 3 6 13 10 21 10 8 0 14 -4 14 -10z m2220 0 c0 -5 -6
-10 -14 -10 -8 0 -18 5 -21 10 -3 6 3 10 14 10 12 0 21 -4 21 -10z m84 -32
c28 -24 4 -23 -35 1 -28 17 -29 20 -12 29 13 8 19 7 22 -1 2 -7 13 -20 25 -29z
m-194 23 c0 -5 -7 -12 -16 -15 -24 -9 -28 -7 -14 9 14 17 30 20 30 6z m-2690
-17 c0 -2 -9 -4 -21 -4 -11 0 -18 4 -14 10 5 8 35 3 35 -6z m-240 -4 c-20 -13
-40 -13 -40 0 0 6 12 10 28 10 21 0 24 -2 12 -10z m310 -7 c0 -10 -5 -25 -10
-33 -8 -13 -11 -12 -24 5 -21 28 -20 38 4 30 11 -4 20 -2 20 4 0 6 2 11 5 11
3 0 5 -8 5 -17z m2557 6 c-14 -8 -22 -8 -30 0 -8 8 -3 11 19 11 25 -1 27 -2
11 -11z m-1777 -69 c0 -5 -9 -10 -20 -10 -11 0 -20 5 -20 10 0 6 9 10 20 10
11 0 20 -4 20 -10z m30 -10 c0 -11 -4 -20 -9 -20 -7 0 -8 17 -2 38 4 10 11 -2
11 -18z m-90 0 c0 -5 -9 -10 -21 -10 -11 0 -17 5 -14 10 3 6 13 10 21 10 8 0
14 -4 14 -10z m246 -26 c-3 -9 -6 -19 -6 -24 0 -12 -40 -19 -63 -11 -18 7 -16
9 16 15 23 4 37 13 37 21 0 8 5 15 11 15 6 0 8 -7 5 -16z m-356 -4 c0 -5 -11
-10 -25 -10 -14 0 -25 5 -25 10 0 6 11 10 25 10 14 0 25 -4 25 -10z m97 -2
c29 -7 53 -17 53 -21 0 -5 -9 -7 -20 -4 -11 3 -20 1 -20 -5 0 -14 -26 -38 -34
-31 -3 3 -1 13 6 20 14 17 -4 33 -39 33 -13 0 -23 5 -23 10 0 13 13 13 77 -2z
m173 3 c0 -5 -7 -11 -15 -15 -18 -7 -20 -33 -2 -39 6 -2 9 -7 6 -11 -9 -10
-39 4 -39 19 0 7 -11 16 -25 19 -30 8 -33 26 -5 26 11 0 20 -4 20 -10 0 -5 5
-10 10 -10 6 0 10 7 10 15 0 8 9 15 20 15 11 0 20 -4 20 -9z m-5150 -45 c0 -9
-322 -257 -328 -252 -8 9 -2 14 160 142 123 98 168 127 168 110z m5234 -12 c4
-9 4 -19 2 -21 -8 -8 -26 8 -26 23 0 19 16 18 24 -2z m1956 -5 c0 -11 -4 -17
-10 -14 -5 3 -10 13 -10 21 0 8 5 14 10 14 6 0 10 -9 10 -21z m-2006 -16 c-12
-9 -21 -10 -28 -3 -14 14 11 31 32 22 12 -4 12 -7 -4 -19z m-164 -17 c-13 -13
-35 7 -25 24 5 8 11 8 21 -1 10 -8 12 -15 4 -23z m109 -33 c23 -18 30 -16 41
10 l9 22 7 -23 c5 -19 11 -22 34 -17 20 4 29 2 33 -9 4 -9 18 -16 31 -16 18 0
24 4 20 14 -5 13 -1 13 25 3 32 -12 44 -47 17 -47 -8 0 -21 -3 -30 -6 -11 -4
-16 -1 -16 11 0 15 -7 17 -44 13 -32 -4 -46 -2 -50 8 -7 17 -67 19 -84 2 -6
-6 -15 -8 -19 -3 -5 4 -2 10 5 12 26 10 10 23 -27 23 -33 0 -39 -4 -43 -24 -4
-22 -3 -23 18 -16 14 6 26 5 29 0 4 -6 -1 -10 -9 -10 -8 0 -22 -10 -31 -22
-13 -20 -17 -21 -25 -8 -6 8 -7 28 -4 44 3 16 8 36 9 45 2 9 4 17 4 18 1 1 14
-2 31 -7 25 -7 30 -5 37 13 7 21 7 21 11 2 2 -11 12 -25 21 -32z m161 11 c0
-11 -6 -14 -16 -10 -9 3 -18 6 -20 6 -2 0 -4 9 -4 20 0 18 3 19 20 10 11 -6
20 -18 20 -26z m875 -18 c3 -20 1 -36 -4 -36 -14 0 -21 -43 -9 -57 6 -8 8 -17
4 -21 -4 -4 -18 5 -30 21 -12 15 -30 27 -39 27 -11 0 -15 5 -11 11 3 6 17 8
30 5 33 -9 32 19 -1 50 -33 30 -32 37 4 29 17 -4 32 -2 36 5 10 16 15 8 20
-34z m1060 23 c11 -17 0 -20 -21 -4 -17 13 -17 14 -2 15 9 0 20 -5 23 -11z
m95 -9 c-8 -5 -17 -7 -19 -4 -3 3 1 9 9 14 8 5 17 7 19 4 3 -3 -1 -9 -9 -14z
m-1380 1 c0 -11 -31 -24 -39 -16 -3 3 1 10 9 15 19 12 30 12 30 1z m1040 -18
c0 -20 -3 -24 -11 -16 -7 7 -9 19 -6 27 10 24 17 19 17 -11z m-1090 -14 c0
-11 -4 -17 -10 -14 -5 3 -10 13 -10 21 0 8 5 14 10 14 6 0 10 -9 10 -21z
m1385 11 c-3 -5 -13 -10 -21 -10 -8 0 -14 5 -14 10 0 6 9 10 21 10 11 0 17 -4
14 -10z m-1865 -4 c0 -2 3 -11 6 -20 4 -11 0 -16 -14 -16 -15 0 -20 6 -19 20
1 11 7 20 14 20 7 0 13 -2 13 -4z m1540 -41 c-7 -8 -17 -15 -22 -15 -6 0 -5 7
2 15 7 8 17 15 22 15 6 0 5 -7 -2 -15z m-1015 -5 c3 -5 -1 -10 -9 -10 -8 0
-18 5 -21 10 -3 6 1 10 9 10 8 0 18 -4 21 -10z m-639 -14 c10 -8 16 -18 12
-22 -4 -4 -14 -1 -23 6 -32 27 -27 -2 6 -30 31 -27 39 -30 85 -25 39 5 54 2
64 -9 7 -9 20 -16 29 -16 19 0 45 -36 36 -50 -10 -16 -25 -11 -19 5 7 18 -44
41 -59 26 -10 -10 -57 6 -57 20 0 4 -9 5 -19 2 -12 -3 -33 5 -53 20 -30 22
-42 24 -122 23 -57 -1 -91 -5 -93 -12 -2 -7 8 -14 22 -18 14 -4 25 -11 25 -16
0 -13 -1 -13 -46 6 -22 9 -33 19 -26 21 6 3 12 11 12 19 0 19 41 28 93 20 53
-8 77 0 77 25 0 23 28 25 56 5z m694 -8 c0 -6 -7 -7 -16 -4 -9 3 -18 6 -20 6
-3 0 -3 4 1 10 7 11 35 2 35 -12z m1187 -2 c-9 -7 -17 -19 -17 -26 0 -6 -10
-26 -22 -42 l-22 -31 26 6 c41 11 41 -5 1 -20 -68 -26 -73 -26 -73 -10 0 9 9
19 20 22 11 3 20 12 20 19 0 8 7 19 15 26 8 7 15 22 15 35 0 13 9 26 23 32 28
13 38 6 14 -11z m-1679 -4 c6 -18 -15 -14 -22 4 -4 10 -1 14 6 12 6 -2 14 -10
16 -16z m-98 -7 c0 -8 5 -15 10 -15 6 0 10 -5 10 -11 0 -7 -7 -8 -17 -4 -10 4
-30 7 -45 6 -15 -1 -29 3 -33 9 -4 6 5 10 19 10 14 0 28 5 31 10 9 15 25 12
25 -5z m-436 -26 c-6 -11 -44 8 -44 21 0 6 10 5 25 -2 13 -6 22 -15 19 -19z
m591 21 c-3 -5 -13 -10 -21 -10 -8 0 -14 5 -14 10 0 6 9 10 21 10 11 0 17 -4
14 -10z m-521 -6 c27 -10 18 -20 -19 -21 -34 -1 -47 10 -22 20 18 8 23 8 41 1z
m2026 1 c0 -2 -13 -11 -30 -20 -18 -9 -30 -11 -30 -5 0 6 10 15 23 20 26 10
37 12 37 5z m-1585 -25 c8 -13 -5 -13 -25 0 -13 8 -13 10 2 10 9 0 20 -4 23
-10z m95 1 c0 -5 -7 -14 -15 -21 -16 -14 -18 -10 -9 14 6 17 24 22 24 7z m-40
-31 c0 -5 -6 -10 -14 -10 -8 0 -18 5 -21 10 -3 6 3 10 14 10 12 0 21 -4 21
-10z m774 -36 c9 -8 16 -24 16 -34 0 -24 40 -31 58 -10 11 13 12 11 10 -10 -3
-22 -7 -25 -34 -22 -19 2 -38 -3 -48 -13 -19 -20 -36 -12 -36 17 0 17 2 18 15
8 13 -11 15 -8 15 13 0 14 -7 32 -15 41 -8 8 -15 17 -15 20 0 11 19 6 34 -10z
m-461 -21 c4 -3 0 -14 -9 -24 -16 -18 -11 -44 7 -34 12 8 11 -2 -3 -42 -16
-43 -25 -42 -33 6 -4 22 -13 45 -21 52 -20 16 -17 28 9 39 27 11 42 12 50 3z
m-575 -24 c11 -18 11 -23 -5 -34 -16 -12 -16 -15 -2 -32 22 -25 30 -51 19 -58
-6 -4 -10 1 -10 9 0 15 -33 56 -45 56 -3 0 -5 -9 -5 -21 0 -13 -4 -18 -12 -13
-7 4 -28 9 -47 11 -47 5 -50 10 -10 21 28 7 34 13 34 35 -1 34 13 35 21 2 3
-14 9 -25 13 -25 12 0 31 39 25 55 -9 22 9 18 24 -6z m1582 -25 c0 -8 -4 -12
-10 -9 -5 3 -10 10 -10 16 0 5 5 9 10 9 6 0 10 -7 10 -16z m-1226 -46 c-10
-19 -14 -44 -11 -65 7 -41 -8 -44 -17 -3 -6 34 20 113 35 104 5 -3 2 -19 -7
-36z m270 7 c3 -8 2 -15 -3 -15 -5 0 -14 7 -21 15 -10 12 -10 15 3 15 8 0 17
-7 21 -15z m50 -21 c9 -3 16 -10 16 -14 0 -10 -38 -1 -46 11 -6 10 7 12 30 3z
m-418 -39 c16 -12 16 -14 3 -15 -9 0 -22 7 -29 15 -16 19 0 19 26 0z m-442
-21 c8 -20 8 -19 -23 -29 -20 -6 -23 -4 -18 10 4 9 7 21 7 26 0 16 28 10 34
-7z m742 -21 c-11 -11 -19 6 -11 24 8 17 8 17 12 0 3 -10 2 -21 -1 -24z m64
-33 c11 -11 29 -20 40 -20 11 0 20 -7 20 -15 0 -18 -5 -18 -31 -5 -13 7 -19 7
-19 0 0 -5 -12 -10 -27 -10 -26 1 -27 2 -9 15 19 15 14 35 -10 35 -8 0 -14 -8
-14 -17 -1 -17 -1 -17 -11 0 -22 38 26 52 61 17z"/>
<path d="M5381 5555 c1 -22 16 -48 22 -38 3 5 0 19 -8 29 -8 10 -14 15 -14 9z"/>
<path d="M5325 5533 c-59 -30 -74 -43 -69 -58 4 -8 12 -15 20 -15 8 0 13 -6
12 -12 -2 -8 9 -14 24 -16 23 -3 30 2 38 24 6 15 8 29 6 32 -3 2 -1 12 4 21
15 29 -2 41 -35 24z"/>
<path d="M5376 5475 c-4 -10 1 -15 14 -15 11 0 20 7 20 15 0 8 -6 15 -14 15
-8 0 -16 -7 -20 -15z"/>
<path d="M5420 5451 c0 -21 23 -45 33 -34 13 12 7 41 -9 47 -23 9 -24 8 -24
-13z"/>
<path d="M5116 5435 c4 -8 13 -15 21 -15 9 0 13 -6 10 -14 -3 -7 0 -19 6 -25
8 -8 7 -11 -6 -11 -22 0 -22 -9 0 -25 13 -10 23 -9 50 7 18 11 33 24 33 28 0
5 9 12 20 15 26 8 16 25 -14 25 -13 0 -29 7 -36 15 -7 9 -29 15 -51 15 -30 0
-37 -3 -33 -15z m94 -34 c0 -11 -31 -24 -39 -16 -3 3 1 10 9 15 19 12 30 12
30 1z"/>
<path d="M5360 5413 c0 -9 110 -56 116 -50 3 2 -13 16 -34 31 -36 24 -82 35
-82 19z"/>
<path d="M5315 5400 c3 -5 10 -10 16 -10 5 0 9 5 9 10 0 6 -7 10 -16 10 -8 0
-12 -4 -9 -10z"/>
<path d="M5275 5052 c-2 -2 -2 -9 1 -15 2 -7 -11 -19 -29 -27 -31 -15 -32 -17
-31 -75 1 -33 7 -61 13 -63 6 -2 9 -8 5 -13 -14 -24 22 -5 50 26 18 19 39 35
48 35 21 0 42 -26 28 -35 -5 -3 -10 -1 -10 4 0 18 -25 13 -44 -8 -14 -15 -15
-24 -6 -40 11 -21 2 -29 -15 -12 -6 6 -27 6 -55 0 -25 -6 -59 -9 -77 -7 l-31
4 29 -41 c17 -22 44 -57 62 -78 l32 -37 102 102 102 103 -14 40 c-8 22 -14 63
-15 92 l0 52 -71 -2 c-38 -1 -72 -4 -74 -5z"/>
<path d="M5235 5040 c3 -5 8 -10 11 -10 2 0 4 5 4 10 0 6 -5 10 -11 10 -5 0
-7 -4 -4 -10z"/>
<path d="M5165 4960 c-6 -10 22 -46 30 -38 7 6 -7 48 -16 48 -4 0 -11 -5 -14
-10z"/>
<path d="M5358 4757 c-54 -54 -98 -101 -98 -104 0 -4 207 -269 260 -332 19
-22 21 -23 39 -7 31 28 81 131 81 167 0 39 -94 220 -102 198 -4 -11 -9 -12
-27 -1 -40 24 -70 5 -63 -40 3 -16 0 -28 -7 -28 -6 0 -11 14 -11 30 0 33 -3
35 -31 20 -10 -6 -19 -7 -19 -2 0 13 88 72 92 62 2 -5 18 -13 36 -16 l34 -7
-41 82 c-23 44 -42 80 -44 79 -1 -1 -46 -46 -99 -101z"/>
<path d="M4865 4689 c-4 -6 -5 -13 -2 -16 7 -7 27 6 27 18 0 12 -17 12 -25 -2z"/>
<path d="M3710 4426 c-167 -83 -308 -158 -314 -167 -15 -26 1 -61 56 -121 46
-48 56 -55 76 -47 16 6 48 -1 123 -28 l100 -36 112 53 c62 29 112 53 113 54 1
1 4 17 7 36 6 32 6 34 -8 16 -13 -17 -18 -18 -40 -6 -14 8 -23 20 -21 27 3 8
-2 13 -12 13 -10 0 -28 7 -40 16 -25 17 -61 13 -84 -9 -20 -20 -130 -49 -168
-45 -26 2 -39 10 -51 33 -22 40 -15 44 17 10 23 -25 30 -27 74 -22 53 6 103
28 82 35 -6 2 -12 8 -12 14 0 6 7 8 15 4 10 -3 15 1 16 12 0 10 3 12 6 5 6
-17 18 -16 38 4 9 9 20 12 23 7 22 -29 112 -60 124 -41 6 9 10 9 17 -2 17 -26
51 -21 57 8 3 14 8 33 10 42 3 9 11 55 19 103 13 83 13 88 -8 135 l-22 48
-305 -151z m120 -62 c0 -15 -37 -50 -49 -46 -7 2 -18 -2 -23 -9 -7 -10 -11
-11 -14 -2 -3 7 -12 9 -20 6 -20 -7 -18 7 3 23 11 7 22 9 29 3 7 -5 18 -2 30
11 18 18 44 27 44 14z"/>
<path d="M3193 4523 c-35 -19 -63 -39 -63 -44 0 -4 7 -6 15 -3 8 4 15 1 15 -5
0 -6 -5 -11 -12 -11 -9 0 -9 -3 0 -12 14 -14 16 -42 3 -33 -5 3 -17 -2 -26
-11 -19 -19 -33 -11 -17 9 7 8 9 17 5 21 -4 4 -2 10 4 14 8 5 9 13 3 22 -8 12
-11 12 -27 -2 -10 -8 -37 -25 -60 -37 -35 -17 -43 -27 -43 -49 0 -55 11 -56
104 -10 47 23 86 48 86 55 0 7 5 13 11 13 5 0 7 -5 4 -10 -5 -8 68 22 113 46
5 3 -42 84 -48 83 -3 0 -33 -16 -67 -36z"/>
<path d="M4060 4260 c0 -5 5 -10 10 -10 6 0 10 5 10 10 0 6 -4 10 -10 10 -5 0
-10 -4 -10 -10z"/>
<path d="M4700 4251 c0 -6 4 -13 10 -16 6 -3 7 1 4 9 -7 18 -14 21 -14 7z"/>
<path d="M3425 4125 c32 -53 43 -67 48 -58 3 5 -10 27 -30 48 -29 33 -32 35
-18 10z"/>
<path d="M3882 4066 c-112 -56 -115 -63 -37 -85 22 -6 47 -20 56 -32 16 -22
16 -22 64 -4 l47 19 -7 50 c-3 28 -11 56 -16 62 -7 8 -6 14 3 17 9 3 10 8 3
15 -7 7 -43 -6 -113 -42z"/>
<path d="M4919 4083 c-13 -16 -12 -17 4 -4 16 13 21 21 13 21 -2 0 -10 -8 -17
-17z"/>
<path d="M3537 4072 c-15 -3 -17 -10 -12 -30 6 -26 6 -26 -14 -8 -36 33 -34
11 9 -75 l42 -82 -7 -109 -7 -108 59 -61 59 -61 162 81 162 81 -20 40 c-21 42
-33 49 -47 28 -4 -7 -23 -18 -42 -25 -28 -10 -39 -10 -63 3 -30 16 -48 12 -48
-11 0 -8 -7 -11 -20 -8 -26 7 -25 19 3 27 19 5 20 8 7 19 -47 38 -46 46 15 72
31 14 64 32 72 40 8 8 19 15 24 15 13 0 11 36 -3 47 -7 6 -30 13 -50 17 -21 4
-42 15 -48 25 -5 10 -20 21 -32 23 -13 3 -59 19 -103 35 -44 16 -88 28 -98 25z
m29 -99 c-4 -4 -11 -1 -16 7 -16 25 -11 35 7 17 9 -9 13 -20 9 -24z m54 -13
c0 -5 -10 -10 -22 -10 -19 0 -20 2 -8 10 19 13 30 13 30 0z m40 -15 c7 -8 8
-15 2 -15 -5 0 -15 7 -22 15 -7 8 -8 15 -2 15 5 0 15 -7 22 -15z m40 -51 c0
-8 -4 -14 -10 -14 -5 0 -10 9 -10 21 0 11 5 17 10 14 6 -3 10 -13 10 -21z
m-24 -61 c-11 -11 -19 6 -11 24 8 17 8 17 12 0 3 -10 2 -21 -1 -24z m-3 -43
c-6 -22 -23 -38 -23 -21 0 17 12 41 20 41 5 0 6 -9 3 -20z m37 -42 c0 -13 -23
-5 -28 10 -2 7 2 10 12 6 9 -3 16 -11 16 -16z m210 -17 c0 -5 -7 -12 -16 -15
-24 -9 -28 -7 -14 9 14 17 30 20 30 6z m-116 -27 c9 -22 -3 -32 -14 -14 -12
19 -12 30 -1 30 5 0 12 -7 15 -16z m6 -51 c0 -5 -5 -15 -10 -23 -8 -12 -10
-11 -10 8 0 12 5 22 10 22 6 0 10 -3 10 -7z"/>
<path d="M4053 3934 c4 -20 16 -70 28 -110 l22 -73 38 20 c22 11 39 22 39 24
0 3 -13 32 -30 65 -16 33 -30 66 -30 75 0 9 -12 20 -26 25 -42 16 -47 13 -41
-26z"/>
<path d="M4392 3870 l-184 -89 20 -33 c10 -18 33 -59 51 -90 l32 -57 155 77
c124 62 154 81 153 97 -2 55 -25 179 -34 181 -5 2 -93 -37 -193 -86z"/>
<path d="M3967 3924 c-26 -14 -52 -22 -57 -19 -6 3 -10 1 -10 -6 0 -7 -23 -37
-52 -67 l-52 -55 27 -14 c25 -13 31 -12 72 13 39 23 44 29 39 52 l-5 27 18
-21 18 -21 43 20 c23 12 42 26 42 31 0 22 -21 86 -28 86 -4 -1 -29 -12 -55
-26z"/>
<path d="M3773 3827 c-28 -12 -29 -23 -3 -37 17 -9 20 -7 26 15 8 32 5 35 -23
22z"/>
<path d="M4018 3819 c-43 -22 -44 -25 -22 -73 l17 -34 36 16 c20 9 37 17 39
18 10 5 -13 33 -31 38 -20 5 -20 6 -5 18 10 7 14 18 10 25 -5 8 -17 6 -44 -8z"/>
<path d="M4155 3753 c-40 -21 -39 -19 -26 -52 7 -16 22 -32 34 -35 18 -5 20
-8 7 -16 -13 -8 -12 -12 6 -31 22 -22 28 -20 83 18 5 3 -62 133 -69 133 -3 -1
-18 -8 -35 -17z"/>
<path d="M3893 3622 c-106 -53 -193 -100 -193 -105 0 -17 79 -43 117 -39 38 5
38 5 11 14 -16 5 -28 14 -28 19 0 5 12 12 28 15 15 4 30 12 34 18 4 6 15 11
25 11 10 1 28 4 41 9 21 7 21 8 5 24 -15 15 -15 17 -1 20 16 3 58 -26 58 -39
0 -4 -14 -10 -31 -14 -17 -4 -39 -15 -49 -25 -11 -11 -27 -16 -39 -13 -12 3
-21 1 -21 -6 0 -18 52 -25 99 -12 27 7 59 26 78 44 29 29 30 33 16 50 -9 9
-22 17 -30 17 -7 0 -13 5 -13 10 0 6 8 10 19 10 10 0 21 9 24 20 3 11 11 20
19 20 16 0 45 -53 52 -94 7 -38 24 -56 35 -37 7 10 13 10 29 2 55 -29 55 -4 1
52 -23 23 -46 54 -51 70 -10 26 -28 37 -28 16 0 -5 -4 -8 -9 -5 -5 3 -7 15 -4
26 3 11 4 20 2 19 -2 0 -91 -44 -196 -97z"/>
<path d="M2467 3646 c13 -18 21 -21 31 -14 16 14 -3 38 -30 38 -18 0 -18 -1
-1 -24z"/>
<path d="M4060 3634 c0 -8 5 -12 10 -9 6 4 8 11 5 16 -9 14 -15 11 -15 -7z"/>
<path d="M4237 3601 c-25 -17 -26 -19 -11 -32 21 -17 18 -18 42 4 11 11 18 25
15 33 -6 17 -11 17 -46 -5z"/>
<path d="M4070 3601 c0 -5 5 -13 10 -16 6 -3 10 -2 10 4 0 5 -4 13 -10 16 -5
3 -10 2 -10 -4z"/>
<path d="M4059 3543 c-8 -9 -9 -14 -4 -11 12 8 42 -8 34 -17 -4 -3 -25 -7 -47
-10 -23 -2 -55 -11 -72 -20 l-31 -16 18 -30 c28 -47 73 -89 125 -115 38 -19
48 -21 48 -9 0 9 -6 12 -17 8 -13 -5 -15 -2 -10 18 4 13 7 28 7 32 0 5 6 5 13
0 6 -4 21 -9 32 -10 17 -3 25 10 48 74 15 42 25 78 23 80 -2 3 -15 -6 -27 -18
-15 -15 -18 -24 -11 -27 17 -5 15 -32 -3 -32 -7 0 -19 8 -24 18 -9 15 -12 15
-21 2 -8 -13 -11 -13 -19 -1 -10 16 -31 6 -31 -15 0 -8 -7 -14 -15 -14 -10 0
-15 -10 -15 -30 0 -16 5 -30 10 -30 6 0 10 -7 10 -15 0 -19 -7 -19 -26 -1 -7
8 -19 17 -26 20 -10 5 -10 7 0 12 18 9 15 35 -4 27 -9 -3 -20 0 -24 8 -11 16
8 42 23 32 5 -3 7 -1 3 5 -10 17 10 24 24 8 10 -13 14 -12 31 5 10 10 19 26
19 34 0 8 5 15 12 15 6 0 3 9 -7 20 -22 24 -29 25 -46 3z"/>
<path d="M2530 3542 c0 -5 7 -15 15 -22 8 -7 15 -8 15 -2 0 5 -7 15 -15 22 -8
7 -15 8 -15 2z"/>
<path d="M4390 3490 c-19 -16 -29 -29 -22 -30 6 0 12 6 12 13 0 6 8 2 18 -11
15 -19 20 -20 34 -10 13 11 14 18 4 40 l-12 28 -34 -30z"/>
<path d="M3554 3457 l-102 -52 55 -80 c30 -44 82 -126 116 -181 57 -96 62
-101 86 -94 33 9 66 -3 83 -30 28 -44 82 -17 203 100 50 48 100 90 111 94 12
4 24 17 26 31 4 21 -1 28 -41 46 -26 13 -78 54 -119 97 l-72 74 -65 -7 c-61
-6 -69 -5 -120 24 -30 17 -56 31 -57 30 -2 0 -49 -23 -104 -52z m294 -137 c3
-9 -1 -11 -11 -7 -8 3 -23 0 -34 -8 -17 -13 -17 -14 6 -39 19 -20 27 -23 38
-14 12 10 13 7 8 -18 -11 -50 -14 -54 -37 -54 -13 0 -34 -7 -46 -16 -13 -9
-26 -13 -29 -10 -11 11 13 28 49 35 24 5 33 12 33 26 0 13 -6 19 -15 16 -31
-7 -43 -6 -47 7 -3 7 1 10 11 6 19 -7 19 -4 6 30 -8 21 -5 28 17 46 28 22 44
22 51 0z m-166 -50 c27 -25 31 -33 22 -48 -12 -19 -44 -29 -44 -13 0 5 7 16
15 24 8 8 11 17 8 21 -9 9 -43 7 -43 -2 0 -4 -9 -8 -20 -8 -27 0 -26 29 3 42
12 7 23 12 24 13 1 0 17 -13 35 -29z"/>
<path d="M4251 3488 c-5 -13 -6 -26 -2 -30 12 -13 59 -20 65 -9 4 6 0 11 -9
11 -11 0 -15 5 -12 14 6 14 -10 36 -25 36 -5 0 -13 -10 -17 -22z"/>
<path d="M4329 3434 c-12 -14 -11 -16 5 -13 11 2 21 10 24 17 5 17 -13 15 -29
-4z"/>
<path d="M4425 3421 c-3 -5 -1 -12 5 -16 5 -3 10 1 10 9 0 18 -6 21 -15 7z"/>
<path d="M4352 3405 c-17 -12 -20 -23 -16 -52 2 -20 5 -38 7 -39 1 -2 32 0 67
4 l65 7 -51 47 c-47 45 -52 47 -72 33z"/>
<path d="M3351 3356 l-64 -33 52 -7 c31 -4 60 -15 71 -26 25 -25 25 -30 2 -30
-23 0 -52 -82 -32 -88 7 -3 20 -12 30 -22 24 -24 50 -32 65 -20 9 8 14 6 19
-5 6 -17 51 -14 70 5 21 21 28 9 22 -32 l-6 -43 19 23 20 23 -51 82 c-80 131
-132 207 -143 206 -5 0 -39 -15 -74 -33z"/>
<path d="M4543 3363 c-7 -3 -13 -9 -13 -15 0 -5 6 -8 13 -5 6 2 20 0 30 -5 11
-5 17 -5 17 1 0 14 -32 29 -47 24z"/>
<path d="M4140 3343 c0 -4 5 -15 10 -23 8 -13 10 -13 10 2 0 9 -4 20 -10 23
-5 3 -10 3 -10 -2z"/>
<path d="M4495 3340 c3 -5 8 -10 11 -10 2 0 4 5 4 10 0 6 -5 10 -11 10 -5 0
-7 -4 -4 -10z"/>
<path d="M4540 3320 c0 -5 10 -10 23 -10 18 0 19 2 7 10 -19 13 -30 13 -30 0z"/>
<path d="M3234 3302 c-5 -4 -20 -23 -32 -43 -12 -19 -32 -47 -44 -61 -13 -14
-35 -40 -51 -58 l-27 -33 62 -81 c34 -44 62 -82 63 -84 1 -1 23 7 49 19 34 15
46 25 42 36 -3 8 -6 17 -6 19 0 2 -6 4 -14 4 -10 0 -12 7 -9 21 4 14 0 26 -9
33 -8 6 -15 18 -16 26 0 8 -7 34 -13 57 -13 44 -3 73 26 73 15 0 29 -30 19
-39 -4 -3 -9 0 -11 7 -8 21 -23 13 -23 -12 0 -36 10 -55 26 -49 8 3 14 0 14
-7 0 -17 30 -39 53 -40 17 0 15 6 -12 55 -35 62 -25 77 11 17 13 -22 29 -37
36 -35 16 6 15 -3 -4 -32 -18 -28 -45 -32 -64 -10 -7 8 -20 15 -29 15 -11 0
-12 -3 -4 -8 6 -4 21 -29 32 -55 l21 -48 29 16 c33 17 78 19 100 6 20 -13 97
26 110 56 14 31 14 33 -4 33 -8 0 -15 -8 -15 -18 0 -20 -38 -42 -70 -42 -11 0
-20 5 -20 10 0 6 9 10 19 10 30 0 51 11 51 26 0 16 -26 19 -35 4 -9 -14 -25
-12 -25 3 0 7 -12 18 -27 25 -57 26 -72 37 -77 55 -5 19 11 75 25 92 15 15 10
28 -8 21 -9 -4 -19 -3 -22 2 -8 12 -103 24 -117 14z m13 -37 c8 -22 -6 -33
-17 -15 -13 20 -12 30 0 30 6 0 13 -7 17 -15z"/>
<path d="M2914 3273 c13 -24 -14 -53 -58 -64 -50 -12 -76 -48 -50 -70 11 -9
23 -9 55 4 31 12 40 13 36 3 -3 -7 -1 -19 3 -27 5 -7 5 -18 -1 -25 -7 -9 -5
-22 5 -43 9 -17 12 -32 7 -36 -5 -3 -12 -1 -16 5 -6 11 -65 -27 -65 -42 0 -5
16 -6 36 -2 27 5 35 4 30 -5 -4 -6 -14 -11 -22 -11 -8 0 -14 -8 -14 -18 0 -19
26 -61 32 -52 30 45 40 80 44 157 4 64 11 96 25 115 10 15 19 31 19 35 -1 4
-17 26 -36 48 -20 22 -33 34 -30 28z"/>
<path d="M3103 3239 c-46 -21 -83 -43 -83 -48 0 -6 11 -23 24 -38 l24 -28 26
24 c14 14 26 30 26 37 0 7 8 18 19 23 18 10 56 60 49 65 -2 2 -40 -14 -85 -35z"/>
<path d="M2865 3250 c-27 -18 -28 -20 -9 -20 12 0 27 7 34 15 20 24 7 26 -25
5z"/>
<path d="M4041 3140 c-38 -33 -79 -73 -91 -91 -22 -30 -94 -69 -130 -69 -10 0
-32 13 -48 29 -21 21 -36 28 -51 24 -11 -3 -21 -10 -21 -15 0 -12 74 -153 95
-182 14 -19 20 -17 157 48 79 37 167 84 196 103 59 41 60 47 11 124 -16 25
-29 55 -29 67 0 12 -4 22 -10 22 -5 0 -41 -27 -79 -60z m-71 -220 c0 -5 -4
-10 -10 -10 -5 0 -10 5 -10 10 0 6 5 10 10 10 6 0 10 -4 10 -10z"/>
<path d="M3601 3053 c-22 -21 -22 -23 -5 -23 19 -1 19 -1 0 -15 -27 -21 -53
-20 -36 0 17 20 7 19 -40 -5 -40 -20 -40 -21 -24 -45 9 -14 18 -25 20 -25 21
0 84 37 110 64 32 33 33 35 16 54 -17 19 -17 19 -41 -5z"/>
<path d="M2961 3030 c0 -29 1 -32 10 -17 7 11 7 23 0 35 -9 14 -10 11 -10 -18z"/>
<path d="M3353 2988 c-23 -11 -30 -32 -15 -41 11 -7 95 28 100 42 5 14 -55 14
-85 -1z"/>
<path d="M4163 2975 c-17 -14 -102 -59 -188 -101 -151 -74 -155 -77 -142 -98
7 -11 37 -61 67 -111 29 -49 54 -91 55 -93 1 -1 14 3 28 9 15 7 34 8 44 4 41
-18 43 -15 43 50 0 79 21 140 64 185 47 49 68 94 64 140 l-3 40 -32 -25z"/>
<path d="M3415 2951 c-22 -11 -34 -20 -27 -20 6 -1 12 -9 12 -19 0 -20 29 -52
47 -52 6 0 10 -8 9 -17 0 -10 5 -17 12 -15 6 1 12 -2 12 -7 0 -4 11 -6 24 -4
17 4 23 10 19 20 -4 10 0 14 13 11 22 -4 44 35 37 63 -4 16 -11 19 -32 14 -21
-4 -33 0 -51 20 -28 30 -25 29 -75 6z"/>
<path d="M3177 2896 c-16 -24 -7 -46 18 -46 7 0 17 -11 23 -25 12 -25 42 -35
42 -13 0 10 -58 108 -65 108 -1 0 -10 -11 -18 -24z"/>
<path d="M2870 2800 c-17 -13 -28 -16 -37 -8 -14 11 -18 8 -76 -65 -33 -41
-36 -48 -21 -54 19 -7 118 24 146 47 15 12 19 25 16 57 l-3 42 -25 -19z"/>
<path d="M3995 2560 c3 -5 10 -10 16 -10 5 0 9 5 9 10 0 6 -7 10 -16 10 -8 0
-12 -4 -9 -10z"/>
<path d="M4005 2510 l29 -30 14 26 c7 14 11 28 9 31 -3 2 -8 -5 -12 -16 -7
-24 -23 -27 -31 -7 -3 8 -13 17 -22 21 -10 4 -4 -7 13 -25z"/>
<path d="M3535 2470 c3 -5 8 -10 11 -10 2 0 4 5 4 10 0 6 -5 10 -11 10 -5 0
-7 -4 -4 -10z"/>
<path d="M5895 5130 c-3 -5 1 -10 9 -10 9 0 16 5 16 10 0 6 -4 10 -9 10 -6 0
-13 -4 -16 -10z"/>
<path d="M5480 4190 c-13 -8 -13 -10 2 -10 9 0 20 5 23 10 8 13 -5 13 -25 0z"/>
<path d="M6570 3499 c0 -5 5 -7 10 -4 6 3 10 8 10 11 0 2 -4 4 -10 4 -5 0 -10
-5 -10 -11z"/>
<path d="M4753 3313 c-34 -4 -46 -23 -15 -23 28 0 62 12 62 21 0 5 -3 8 -7 7
-5 0 -23 -3 -40 -5z"/>
<path d="M4857 2825 c9 -19 18 -33 21 -31 4 5 -26 66 -33 66 -3 0 3 -16 12
-35z"/>
<path d="M4881 2777 c-1 -4 16 -42 38 -85 21 -42 46 -102 56 -132 10 -30 24
-70 32 -88 l13 -32 62 31 62 31 -34 19 c-19 10 -45 18 -58 19 -13 0 -21 3 -19
8 3 4 -10 18 -28 32 -21 16 -50 58 -78 115 -25 50 -46 87 -46 82z"/>
<path d="M5510 2620 c-8 -5 -12 -12 -9 -15 4 -3 12 1 19 10 14 17 11 19 -10 5z"/>
<path d="M5457 2578 c-18 -9 -18 -10 0 -24 23 -17 30 -17 36 0 8 22 -14 37
-36 24z"/>
<path d="M5340 2501 c0 -20 17 -37 27 -28 7 8 -7 47 -18 47 -5 0 -9 -9 -9 -19z"/>
<path d="M5105 2459 c-27 -16 -54 -30 -60 -32 -5 -2 8 -24 30 -50 l38 -46 59
45 c60 47 61 51 25 92 -25 27 -30 27 -92 -9z"/>
<path d="M5225 2460 c3 -5 8 -10 11 -10 2 0 4 5 4 10 0 6 -5 10 -11 10 -5 0
-7 -4 -4 -10z"/>
<path d="M5049 2289 c-24 -16 -45 -33 -45 -39 -1 -5 -2 -14 -3 -20 0 -5 -6
-10 -12 -10 -6 0 -9 7 -5 15 4 12 2 13 -14 2 -11 -6 -20 -18 -20 -25 0 -7 5
-10 10 -7 14 9 12 -4 -3 -19 -24 -24 -56 -36 -96 -36 -23 0 -41 -4 -41 -9 0
-15 -49 -19 -67 -5 -10 7 -25 13 -33 13 -10 0 -11 -2 -2 -6 20 -8 14 -20 -13
-27 -14 -4 -25 -12 -25 -19 0 -7 -13 -34 -30 -60 -16 -26 -27 -47 -25 -47 3 0
77 36 165 80 87 44 162 75 165 70 3 -5 -61 -43 -142 -84 -196 -100 -179 -85
-157 -140 10 -25 25 -46 32 -46 23 0 127 40 153 59 14 11 89 51 165 90 76 38
148 76 158 84 19 14 19 15 -5 22 -55 16 -99 41 -96 54 3 19 27 26 27 8 0 -21
70 -53 80 -37 6 9 10 7 18 -6 10 -18 11 -18 31 0 20 18 20 18 -12 50 -18 17
-51 52 -73 78 l-41 46 -44 -29z"/>
<path d="M4515 2260 c-3 -5 2 -10 12 -10 17 -1 17 -2 -1 -15 -15 -12 -22 -12
-27 -3 -5 7 -11 10 -14 6 -4 -4 4 -21 17 -38 22 -31 24 -31 83 -25 91 11 94
16 33 58 -52 37 -91 46 -103 27z"/>
<path d="M4025 2210 c-16 -11 -25 -20 -20 -20 10 0 64 39 55 40 -3 0 -18 -9
-35 -20z"/>
<path d="M4240 2190 c0 -5 5 -10 11 -10 5 0 7 5 4 10 -3 6 -8 10 -11 10 -2 0
-4 -4 -4 -10z"/>
<path d="M4603 2161 c-28 -4 -54 -9 -58 -12 -9 -9 58 -129 70 -126 6 2 20 21
32 42 19 35 20 40 6 50 -14 11 -14 12 1 18 16 6 24 38 9 36 -5 -1 -31 -5 -60
-8z"/>
<path d="M4415 2099 c-44 -21 -88 -39 -97 -39 -9 0 -20 -4 -23 -10 -8 -13 54
-88 80 -96 34 -11 70 -52 100 -114 16 -33 33 -60 38 -60 5 0 6 23 3 54 -6 46
-4 57 12 73 11 10 22 25 25 33 4 11 6 10 6 -4 1 -11 -6 -27 -14 -36 -12 -14
-14 -28 -8 -64 l8 -46 56 33 56 32 -69 143 c-38 78 -75 142 -81 141 -7 0 -48
-18 -92 -40z"/>
<path d="M6140 2075 c-7 -9 -8 -15 -2 -15 5 0 12 7 16 15 3 8 4 15 2 15 -2 0
-9 -7 -16 -15z"/>
<path d="M4234 2033 c11 -11 48 -14 41 -3 -3 5 -16 10 -27 10 -12 0 -18 -3
-14 -7z"/>
<path d="M4138 1989 c-57 -29 -66 -41 -49 -68 5 -7 5 -28 1 -46 -9 -38 3 -55
37 -55 18 0 23 6 23 25 0 49 18 24 23 -32 5 -66 2 -76 -13 -41 -8 16 -25 28
-52 35 l-40 11 4 -53 c3 -41 14 -66 51 -122 26 -39 53 -85 61 -103 18 -45 104
-98 145 -92 28 4 31 8 31 39 l0 36 -62 -7 c-44 -5 -58 -4 -48 4 8 5 22 10 30
10 30 1 44 19 46 59 1 29 -2 41 -12 41 -8 0 -14 5 -14 11 0 6 8 9 18 6 9 -2
30 3 46 11 22 11 27 19 23 38 -2 13 -1 24 4 24 13 0 29 -36 28 -62 0 -22 -1
-22 -9 -3 -5 11 -9 15 -9 9 -1 -6 -13 -17 -28 -24 -26 -11 -26 -13 -8 -20 18
-6 18 -7 2 -16 -15 -9 -16 -15 -6 -42 9 -26 14 -30 25 -21 11 9 14 7 14 -14 0
-19 -4 -25 -14 -21 -11 4 -13 0 -9 -14 4 -17 11 -20 41 -15 78 12 92 38 72
134 -11 49 -16 58 -30 54 -11 -3 -20 1 -24 10 -3 8 -1 15 5 15 6 0 9 11 7 25
-4 35 16 35 23 -1 5 -23 7 -19 8 22 1 35 -6 65 -24 100 -36 72 -62 93 -131
105 -50 9 -63 16 -84 44 -14 19 -29 34 -35 34 -5 0 -36 -13 -67 -30z"/>
<path d="M4261 1989 c5 -11 14 -19 19 -19 4 0 15 -3 24 -6 10 -4 16 -1 16 9 0
19 -13 28 -45 32 -21 2 -23 0 -14 -16z"/>
<path d="M4502 1730 c0 -19 2 -27 5 -17 2 9 2 25 0 35 -3 9 -5 1 -5 -18z"/>
<path d="M4502 1660 c0 -8 4 -26 8 -40 6 -20 8 -21 8 -5 0 11 -3 29 -8 40 -5
12 -8 14 -8 5z"/>
<path d="M4310 1346 c5 -5 10 -16 10 -24 0 -12 -3 -12 -16 -1 -13 10 -17 10
-25 -2 -13 -21 -11 -37 9 -48 11 -7 13 -13 6 -18 -16 -11 -25 -56 -15 -72 8
-12 14 -12 40 -1 17 7 31 19 31 26 0 8 7 14 15 14 8 0 15 4 15 10 0 5 7 6 17
3 12 -5 14 -3 8 7 -6 10 -4 12 8 7 9 -3 18 1 22 11 5 13 8 14 14 3 6 -10 22
-6 70 18 55 29 83 49 46 35 -8 -4 -15 -2 -15 4 0 5 -30 12 -67 16 -38 3 -94 9
-126 14 -38 5 -54 5 -47 -2z"/>
<path d="M5921 1296 c-13 -14 -32 -28 -43 -32 -21 -6 -22 -18 -5 -58 11 -25
15 -27 27 -15 8 8 24 15 36 16 11 1 33 7 48 12 30 12 28 21 -16 74 l-23 28
-24 -25z"/>
<path d="M5777 1233 c-12 -3 -16 -10 -13 -20 4 -9 0 -25 -7 -37 -14 -20 -12
-21 26 -24 49 -3 76 20 67 58 -6 25 -33 34 -73 23z"/>
<path d="M5837 1135 c-10 -7 -17 -22 -15 -32 3 -15 6 -14 22 10 22 32 19 41
-7 22z"/>
<path d="M6316 631 c-4 -5 -9 -37 -13 -71 -5 -51 -2 -69 17 -110 13 -28 27
-50 30 -50 4 0 14 14 21 32 7 17 28 51 46 75 19 24 31 48 28 52 -6 10 -110 81
-119 81 -2 0 -7 -4 -10 -9z"/>
<path d="M4610 2470 c-9 -6 -10 -10 -3 -10 6 0 15 5 18 10 8 12 4 12 -15 0z"/>
<path d="M3794 2464 c3 -9 6 -18 6 -21 0 -3 7 0 15 7 17 14 11 30 -12 30 -10
0 -13 -6 -9 -16z"/>
<path d="M6550 1926 c0 -8 5 -18 10 -21 6 -3 10 1 10 9 0 8 -4 18 -10 21 -5 3
-10 -1 -10 -9z"/>
<path d="M3275 2000 c-3 -5 3 -10 15 -10 12 0 18 5 15 10 -3 6 -10 10 -15 10
-5 0 -12 -4 -15 -10z"/>
<path d="M4950 970 c0 -5 5 -10 10 -10 6 0 10 5 10 10 0 6 -4 10 -10 10 -5 0
-10 -4 -10 -10z"/>
<path d="M6795 510 c-3 -5 -1 -10 4 -10 6 0 11 5 11 10 0 6 -2 10 -4 10 -3 0
-8 -4 -11 -10z"/>
<path d="M7020 3084 c-80 -41 -149 -75 -155 -77 -6 -2 -5 -10 3 -19 12 -15
112 -214 112 -224 0 -2 -5 -4 -10 -4 -6 0 -33 47 -60 104 -45 98 -68 126 -103
126 -18 0 -47 -69 -47 -113 0 -17 -11 -75 -25 -127 -30 -115 -29 -110 -6 -110
25 0 84 26 434 194 99 48 177 109 177 140 0 9 -10 20 -23 25 -28 11 -78 66
-109 121 -13 22 -27 39 -33 38 -5 -1 -75 -34 -155 -74z"/>
<path d="M6826 2585 c5 -12 10 -12 27 -3 33 16 33 18 -1 18 -24 0 -30 -4 -26
-15z"/>
<path d="M7975 2520 c-3 -5 1 -10 9 -10 9 0 16 5 16 10 0 6 -4 10 -9 10 -6 0
-13 -4 -16 -10z"/>
<path d="M7978 1935 c-8 -8 3 -55 13 -55 5 0 9 14 9 30 0 28 -9 38 -22 25z"/>
<path d="M6730 760 c0 -5 5 -10 10 -10 6 0 10 5 10 10 0 6 -4 10 -10 10 -5 0
-10 -4 -10 -10z"/>
<path d="M6740 716 c0 -9 5 -16 10 -16 6 0 10 4 10 9 0 6 -4 13 -10 16 -5 3
-10 -1 -10 -9z"/>
<path d="M6700 713 c0 -5 4 -15 10 -23 11 -18 25 -7 17 15 -6 15 -27 21 -27 8z"/>
<path d="M6670 700 c0 -5 5 -10 11 -10 5 0 7 5 4 10 -3 6 -8 10 -11 10 -2 0
-4 -4 -4 -10z"/>
<path d="M7219 559 c-9 -17 -7 -26 8 -47 23 -31 50 -49 59 -39 4 3 2 13 -5 21
-9 11 -6 15 15 20 25 7 26 8 8 27 -11 12 -24 17 -36 13 -12 -3 -18 0 -18 10 0
23 -17 20 -31 -5z"/>
<path d="M5425 170 c3 -5 12 -7 20 -3 21 7 19 13 -6 13 -11 0 -18 -4 -14 -10z"/>
</g>
</svg>
