<?xml version="1.0" standalone="no"?>
<!DOCTYPE svg PUBLIC "-//W3C//DTD SVG 20010904//EN"
 "http://www.w3.org/TR/2001/REC-SVG-20010904/DTD/svg10.dtd">
<svg version="1.0" xmlns="http://www.w3.org/2000/svg"
 width="800.000000pt" height="800.000000pt" viewBox="0 0 800.000000 800.000000"
 preserveAspectRatio="xMidYMid meet">
<metadata>
Created by potrace 1.16, written by Peter Selinger 2001-2019
</metadata>
<g transform="translate(0.000000,800.000000) scale(0.100000,-0.100000)"
fill="#000000" stroke="none">
<path d="M0 6330 l0 -1669 33 34 c17 19 45 53 62 75 38 53 123 99 197 108 l56
7 -139 260 c-76 143 -139 267 -139 274 0 25 16 1 74 -109 30 -58 95 -179 143
-270 l89 -165 65 -6 c35 -3 73 -9 84 -12 35 -12 237 -37 292 -37 44 0 53 3 53
18 0 10 -68 144 -151 298 -83 153 -210 389 -281 524 -72 135 -136 252 -143
260 -16 19 -127 224 -195 359 l-52 104 -9 245 c-4 135 -6 248 -4 251 13 12 16
-23 24 -251 l9 -245 108 -204 c59 -112 119 -222 134 -244 14 -22 82 -145 150
-273 l124 -233 347 3 c191 2 350 6 354 10 10 10 -25 78 -41 78 -8 0 -23 -5
-33 -12 -10 -6 -25 -9 -32 -6 -19 7 -132 225 -121 232 5 3 19 -17 32 -44 13
-28 26 -50 30 -50 3 0 19 -27 35 -60 22 -46 33 -59 44 -54 9 3 30 10 48 14 17
4 44 16 60 27 15 11 100 50 188 86 188 78 436 185 442 191 4 4 -100 63 -437
246 -247 134 -236 127 -227 136 6 7 55 -19 429 -223 179 -98 234 -125 228
-109 -16 41 -138 323 -148 342 -5 10 -21 48 -35 84 -14 36 -46 113 -71 172
-24 58 -41 109 -38 113 4 3 2 9 -4 13 -17 11 -46 72 -35 72 6 0 17 -12 24 -27
14 -26 14 -25 27 40 7 37 17 67 22 67 6 0 8 -12 4 -27 -3 -16 -9 -57 -12 -93
-7 -72 -29 -13 221 -599 l82 -193 249 -138 c137 -75 251 -136 253 -134 4 4
-59 165 -69 177 -4 4 -33 -3 -65 -17 -32 -15 -61 -26 -65 -26 -4 0 -20 30 -36
68 -38 91 -169 396 -242 563 -74 171 -77 181 -52 204 11 10 20 27 20 37 0 23
-64 196 -96 260 -13 26 -24 52 -24 58 0 15 408 216 453 223 23 4 46 15 57 30
10 13 48 37 84 53 36 16 67 34 70 40 2 6 -4 30 -15 54 -26 57 -24 69 17 153
46 93 65 112 146 153 73 37 78 38 78 26 0 -5 -24 -19 -52 -33 -78 -36 -109
-68 -153 -159 l-40 -81 33 -62 c18 -34 32 -67 32 -74 0 -7 11 -28 24 -48 14
-20 26 -41 29 -48 5 -14 107 19 189 59 48 24 78 30 78 16 0 -6 -162 -93 -238
-128 -8 -4 164 -334 174 -334 13 0 1009 497 1161 580 l112 61 21 -41 c11 -22
22 -40 24 -40 2 0 24 11 47 25 47 27 59 30 59 17 0 -13 -313 -180 -660 -352
-168 -84 -306 -156 -308 -161 -2 -5 -10 -9 -17 -9 -11 0 -383 -175 -393 -185
-2 -2 26 -66 62 -142 71 -146 70 -139 21 -168 -16 -9 -15 -15 11 -68 25 -50
32 -57 51 -52 27 6 30 -3 8 -19 -14 -10 -13 -18 8 -67 14 -30 32 -61 41 -68 9
-7 16 -21 16 -30 0 -23 58 -143 67 -139 54 25 83 43 83 50 0 5 -9 27 -21 49
-11 22 -18 46 -16 52 2 7 16 -11 30 -39 l26 -51 52 8 c32 5 59 4 71 -2 33 -18
31 15 -6 88 -20 39 -36 75 -36 82 0 15 -4 14 -51 -10 -23 -11 -43 -18 -46 -15
-5 4 49 42 72 49 5 2 2 15 -8 30 -10 16 -13 28 -7 32 5 3 15 -6 22 -20 8 -18
16 -24 27 -19 9 3 25 8 36 11 17 4 17 2 -5 -16 -20 -17 -22 -23 -11 -30 8 -5
12 -18 8 -30 -3 -14 0 -21 9 -21 14 0 18 12 15 38 -1 6 2 12 8 12 5 0 11 -6
14 -12 2 -7 8 -9 13 -5 12 11 -27 82 -46 83 -33 3 -34 5 -10 19 24 13 26 12
55 -39 17 -29 45 -70 63 -90 26 -30 31 -41 21 -52 -6 -8 -16 -14 -21 -14 -6 0
-6 6 1 14 9 11 7 20 -12 42 l-24 27 -36 -22 c-21 -12 -37 -27 -37 -33 0 -18
52 -98 64 -98 23 0 25 12 10 41 -12 24 -12 29 -1 29 8 0 19 -17 26 -37 7 -21
19 -46 26 -57 13 -18 15 -18 42 2 15 10 119 71 230 135 l202 115 32 -56 c17
-32 33 -59 35 -61 5 -5 54 30 99 70 17 15 80 71 141 125 61 55 173 165 248
246 115 122 156 159 249 221 62 40 122 79 135 86 l22 12 -20 40 -21 40 -92
-49 c-691 -371 -733 -393 -864 -457 -40 -19 -73 -31 -73 -25 0 5 32 26 71 46
l71 35 -23 25 c-12 13 -20 27 -16 30 3 4 17 -6 30 -21 l23 -28 185 98 c305
162 664 356 670 363 4 4 -33 90 -82 192 -49 102 -89 188 -89 193 -1 32 31 -24
124 -220 60 -126 112 -232 116 -236 4 -5 43 10 87 32 44 22 108 45 144 51 35
6 72 13 81 16 13 4 -9 56 -128 300 -79 163 -158 313 -175 335 -17 21 -59 54
-97 74 -65 35 -69 36 -121 26 -33 -7 -135 -51 -258 -113 -112 -56 -205 -99
-208 -96 -7 7 52 42 175 103 52 26 96 49 98 50 2 1 -9 27 -24 58 l-27 55 37
52 38 52 -28 29 c-16 16 -46 35 -69 41 -52 15 -83 35 -90 59 -6 18 -51 19
-1956 19 l-1949 0 20 -40 c22 -43 24 -50 12 -50 -4 0 -18 20 -30 45 l-22 45
-225 0 -225 0 0 -1670z m2679 1519 c8 -24 7 -37 -4 -60 -16 -30 -39 -41 -28
-14 5 13 2 14 -21 4 -28 -13 -33 -28 -14 -47 6 -6 8 -15 4 -19 -4 -4 -12 0
-17 10 -8 14 -14 15 -30 6 -11 -6 -28 -8 -37 -4 -15 6 -15 8 3 22 11 8 46 28
78 44 31 16 57 31 57 33 0 3 -4 16 -10 30 -5 14 -6 26 -1 26 5 0 14 -14 20
-31z m-2269 -375 c105 -213 188 -389 185 -392 -3 -3 -7 -3 -9 -1 -6 6 -386
768 -386 774 0 33 49 -55 210 -381z m4055 -14 c-9 -27 4 -25 14 3 8 19 10 20
16 5 11 -28 -2 -50 -27 -46 -28 4 -40 58 -13 58 12 0 15 -6 10 -20z m-245 -8
c0 -12 -78 -47 -86 -39 -7 7 55 47 74 47 6 0 12 -4 12 -8z m-864 -137 c-21
-16 -32 -13 -21 4 3 6 14 11 23 11 15 -1 15 -2 -2 -15z m-456 -144 c12 -24 13
-41 2 -41 -8 0 -32 43 -32 55 0 13 21 3 30 -14z m-827 -42 c-5 -18 -13 -17
-41 4 -17 13 2 27 28 20 12 -3 16 -11 13 -24z m857 -29 c0 -5 -4 -10 -9 -10
-6 0 -13 5 -16 10 -3 6 1 10 9 10 9 0 16 -4 16 -10z m1230 -76 c0 -8 -7 -14
-15 -14 -15 0 -21 21 -9 33 10 9 24 -2 24 -19z m-2910 -73 c0 -3 -12 -12 -27
-18 -22 -11 -28 -10 -38 4 -10 13 -8 21 13 45 l25 28 14 -26 c7 -15 13 -29 13
-33z m2295 5 c17 -17 9 -26 -22 -26 -34 0 -30 31 5 39 2 1 10 -5 17 -13z
m-3300 -46 c-3 -5 1 -12 9 -17 13 -7 11 -14 -10 -41 -32 -40 -44 -41 -44 -2 0
17 4 30 10 30 5 0 12 11 16 25 3 14 10 22 15 19 5 -3 7 -9 4 -14z m1399 -83
c11 -10 10 -15 -1 -25 -7 -7 -13 -8 -13 -3 0 5 -3 16 -6 25 -7 19 3 21 20 3z
m-441 -68 c-4 -4 -18 -10 -29 -13 -17 -5 -23 -1 -27 16 -4 13 -7 25 -8 28 -1
3 9 10 21 17 21 10 25 9 37 -14 8 -15 10 -30 6 -34z m127 -140 c0 -11 -4 -17
-10 -14 -5 3 -10 13 -10 21 0 8 5 14 10 14 6 0 10 -9 10 -21z m-152 -51 c-2
-7 -70 -47 -150 -88 -106 -54 -150 -82 -159 -100 -7 -15 -13 -20 -16 -12 -3 6
-11 12 -19 12 -8 0 -14 5 -14 10 0 6 6 10 14 10 8 0 16 5 18 11 4 12 294 166
316 168 8 0 12 -5 10 -11z m158 -109 c8 -13 -14 -29 -32 -22 -6 2 -15 0 -19
-6 -7 -13 -25 -15 -25 -3 0 8 50 41 62 42 4 0 10 -5 14 -11z m-463 -364 c4 -8
2 -17 -3 -20 -6 -4 -10 -4 -10 -1 0 2 -3 11 -6 20 -3 9 -2 16 4 16 5 0 12 -7
15 -15z m47 -66 c0 -4 -5 -11 -11 -15 -15 -9 -28 14 -21 39 5 19 6 19 19 2 7
-11 13 -22 13 -26z m20 -66 c0 -7 -4 -13 -8 -13 -12 0 -32 46 -24 55 8 8 32
-24 32 -42z"/>
<path d="M4400 7981 c12 -24 16 -26 55 -35 l30 -8 -29 31 c-34 36 -74 44 -56
12z"/>
<path d="M4502 7945 c45 -58 189 -180 247 -210 l34 -17 281 140 281 141 -443
0 -443 1 43 -55z"/>
<path d="M5103 7857 c-161 -78 -292 -145 -293 -148 0 -3 23 -16 50 -29 91 -42
112 -73 265 -386 79 -160 146 -301 150 -314 6 -18 12 -21 38 -16 18 3 79 10
137 17 105 11 105 11 259 96 84 46 158 82 164 80 9 -3 -172 -110 -282 -167
-13 -7 -76 -18 -140 -26 -156 -19 -161 -20 -161 -46 0 -12 -5 -35 -11 -52 -10
-28 -5 -43 55 -169 40 -83 72 -140 83 -143 43 -14 56 -21 47 -26 -5 -3 -25 -1
-44 6 -29 9 -40 23 -76 96 -24 47 -55 113 -70 148 -27 62 -27 62 -9 102 26 57
15 63 -78 45 -95 -18 -182 -61 -362 -180 -117 -76 -160 -112 -258 -215 -133
-138 -132 -133 -83 -235 21 -43 22 -51 10 -58 -20 -11 -44 -1 -44 18 0 8 -6
15 -14 15 -8 0 -17 10 -20 23 -15 56 -20 54 -131 -44 -59 -52 -119 -104 -134
-116 -16 -14 -22 -25 -16 -30 6 -5 16 -21 23 -36 12 -28 10 -31 -29 -66 l-42
-37 43 -80 c69 -127 87 -147 124 -140 67 12 422 138 441 156 11 11 31 48 45
82 29 72 56 94 129 108 38 7 59 17 73 36 60 76 146 35 261 -122 45 -63 78 -75
112 -42 12 13 24 32 26 43 3 11 17 26 32 33 15 7 27 20 27 28 0 8 10 14 25 14
29 0 35 -29 10 -50 -8 -7 -15 -18 -15 -25 0 -6 -9 -20 -20 -30 -12 -11 -28
-35 -37 -54 -22 -49 -43 -71 -65 -71 -13 0 -24 -11 -31 -29 -16 -44 -56 -60
-179 -77 -140 -18 -232 -43 -340 -93 -46 -21 -108 -45 -138 -52 -30 -8 -88
-31 -129 -52 l-75 -38 -160 -6 c-89 -3 -179 -6 -200 -7 -34 -1 -40 2 -48 27
-9 24 -5 33 31 76 30 36 52 51 86 61 40 11 46 17 56 51 12 37 10 42 -52 151
-45 81 -63 123 -63 148 l0 36 -81 -42 c-44 -22 -145 -79 -225 -126 -138 -81
-263 -154 -412 -240 l-68 -39 26 -52 c17 -33 22 -53 15 -55 -6 -2 -11 -17 -11
-33 0 -19 -5 -29 -15 -29 -8 0 -15 -5 -15 -11 0 -5 -17 -17 -37 -25 -21 -8
-46 -19 -55 -24 -10 -6 -24 -10 -33 -10 -8 0 -43 -13 -77 -30 -35 -16 -160
-68 -278 -115 -194 -76 -216 -83 -227 -68 -17 23 -9 30 27 25 20 -3 55 5 93
21 34 13 77 30 95 37 18 7 35 17 39 23 3 6 1 7 -5 3 -7 -4 -12 -1 -12 9 0 9
-5 13 -10 10 -6 -4 -8 -11 -5 -16 4 -5 -1 -9 -9 -9 -21 0 -31 21 -15 31 19 12
59 11 59 -1 0 -5 5 -10 10 -10 6 0 4 13 -5 30 -18 34 -18 40 -5 40 6 0 16 -11
22 -25 9 -21 17 -24 44 -21 18 2 52 16 77 30 45 27 73 34 62 16 -3 -5 -4 -10
-1 -10 13 0 116 55 116 62 0 11 -7 10 -32 -3 -16 -9 -19 -8 -16 3 2 7 47 34
99 61 51 26 95 51 97 56 2 6 -5 25 -15 45 l-18 35 -85 -50 c-47 -27 -99 -65
-117 -84 -18 -19 -36 -35 -42 -35 -5 0 -16 -3 -25 -6 -9 -3 -16 -2 -16 3 0 5
14 14 31 20 17 7 33 21 36 33 3 12 26 31 53 45 26 13 72 39 102 57 l56 33 -27
53 -26 52 -30 -20 c-23 -15 -26 -20 -11 -20 15 0 16 -3 6 -15 -6 -8 -8 -20 -4
-27 5 -7 10 -21 11 -31 4 -25 -28 -19 -42 8 -24 47 -25 47 -70 20 -44 -25 -81
-33 -70 -15 4 6 28 23 55 38 l48 27 -18 35 c-10 19 -27 53 -38 75 -10 22 -26
46 -35 54 -24 20 -21 32 7 25 19 -4 24 -2 23 12 -1 11 6 20 18 22 15 3 17 1 9
-8 -15 -16 11 -70 34 -70 12 0 13 -3 5 -11 -14 -14 10 -69 29 -69 9 0 9 -3 0
-12 -31 -31 3 -39 39 -10 l22 19 -28 61 c-16 34 -32 62 -37 62 -4 0 -8 6 -8
14 0 8 -31 80 -69 161 l-70 146 -183 -92 c-101 -50 -184 -95 -186 -100 -8 -21
-20 -5 -52 66 -40 92 -33 111 9 26 17 -34 33 -61 35 -61 7 0 321 154 344 168
l22 14 -35 67 c-37 70 -38 67 11 97 17 10 14 20 -43 137 -34 70 -65 127 -68
127 -3 0 -20 -7 -37 -16 -30 -16 -32 -15 -49 7 -10 13 -19 28 -19 33 0 16 -61
-3 -158 -49 -100 -47 -112 -51 -112 -35 0 6 37 28 82 49 46 21 120 56 164 77
l82 39 -83 170 c-45 94 -98 195 -118 225 -21 30 -37 60 -37 66 0 6 -6 16 -13
22 -18 16 -135 -40 -165 -79 -16 -20 -32 -29 -53 -29 -16 0 -106 -38 -206 -87
-98 -49 -179 -88 -181 -89 -1 0 14 -36 34 -78 19 -43 84 -193 144 -335 98
-231 131 -308 199 -465 l22 -49 32 31 c18 18 39 32 47 32 10 -1 7 -8 -10 -23
-65 -57 -65 -57 -30 -139 18 -40 56 -131 85 -203 63 -155 114 -264 151 -324
16 -26 21 -42 13 -39 -8 2 -25 24 -38 48 l-24 43 -190 -6 c-104 -3 -191 -8
-194 -11 -5 -5 15 -45 69 -139 l39 -68 54 31 c71 41 79 23 9 -19 -45 -27 -53
-35 -43 -47 6 -8 9 -18 5 -22 -4 -4 -13 1 -20 10 -11 15 -17 14 -72 -16 -38
-22 -59 -40 -60 -52 -2 -36 -4 -38 -17 -20 -13 18 -16 18 -58 -7 -47 -27 -205
-97 -220 -97 -25 0 -4 19 39 35 26 10 86 38 134 61 99 50 95 35 42 155 l-26
56 -66 -27 c-91 -38 -112 -43 -112 -31 0 6 6 11 13 11 7 0 21 6 30 13 15 11
14 16 -5 60 -17 38 -25 46 -39 42 -11 -4 -19 -2 -19 5 0 7 -8 9 -19 5 -15 -5
-21 0 -26 25 -4 17 -12 33 -19 36 -6 2 -109 3 -229 2 l-218 -3 77 -152 c42
-84 80 -153 85 -153 4 0 58 28 119 61 61 34 112 60 113 58 11 -18 23 -69 17
-69 -5 0 -12 9 -15 21 -4 11 -12 19 -18 17 -26 -7 -197 -104 -197 -112 0 -13
129 -253 172 -320 39 -61 45 -80 28 -91 -5 -3 -21 16 -35 42 -14 26 -34 62
-44 78 -10 17 -48 87 -85 156 l-66 127 -65 -35 c-53 -28 -65 -39 -65 -59 0
-17 5 -24 20 -24 22 0 27 -15 8 -23 -8 -4 -4 -8 10 -12 12 -4 22 -14 22 -21 0
-17 14 -18 41 -4 12 7 19 7 19 1 0 -5 -9 -12 -20 -16 -17 -5 -18 -9 -7 -32 9
-21 8 -27 -8 -39 -10 -8 -28 -14 -39 -14 -19 1 -19 2 -4 11 25 14 22 26 -4 25
-15 -1 -24 6 -26 19 -3 11 -9 23 -15 27 -6 3 -12 19 -14 35 -2 15 -12 36 -21
45 -16 17 -26 13 -177 -72 -88 -49 -168 -89 -177 -90 -12 0 -15 -5 -11 -17 4
-10 11 -21 16 -24 5 -4 0 -12 -11 -18 -19 -10 -22 -8 -28 14 -3 14 -10 25 -16
25 -5 0 -7 4 -4 9 3 5 -43 11 -102 13 l-107 4 -153 -84 c-84 -46 -156 -81
-159 -78 -8 8 -17 2 142 92 122 69 136 79 110 82 -16 1 -63 9 -103 18 -40 9
-121 16 -180 17 -96 2 -112 0 -156 -23 -27 -14 -63 -42 -80 -64 -17 -21 -46
-55 -64 -76 -30 -35 -31 -39 -14 -44 21 -7 52 1 52 13 0 10 46 31 65 31 8 0
15 -4 15 -10 0 -5 -9 -10 -20 -10 -10 0 -29 -10 -42 -23 -33 -33 -57 -40 -75
-22 -24 25 -33 8 -33 -64 0 -67 0 -68 25 -63 15 2 25 0 25 -7 0 -6 -7 -11 -15
-11 -8 0 -15 -4 -15 -10 0 -5 1 -10 3 -10 3 0 213 114 294 160 24 13 46 21 50
17 3 -4 4 -9 2 -11 -9 -7 -296 -165 -331 -182 l-38 -18 1 -1015 c1 -887 3
-1009 15 -961 8 30 39 177 69 325 31 149 61 294 67 323 6 28 15 52 19 52 13 0
11 -14 -11 -110 -26 -113 -25 -122 10 -142 34 -19 44 -46 11 -28 -26 13 -40
-6 -17 -23 15 -11 15 -15 2 -32 -12 -16 -16 -17 -30 -6 -9 8 -18 12 -20 10 -2
-2 -16 -67 -30 -144 -15 -77 -40 -191 -56 -254 l-30 -114 0 -1153 0 -1154
2633 0 c2035 0 2636 3 2645 12 9 9 12 9 12 0 0 -9 308 -12 1355 -12 l1355 0
-2 2482 -3 2483 -22 10 c-17 7 -25 24 -36 85 l-14 75 -2 -87 c-1 -58 -5 -88
-12 -88 -8 0 -9 36 -5 128 10 175 13 191 39 190 12 -1 30 -8 40 -16 16 -14 17
51 17 1361 l0 1377 -1302 -1 -1303 -1 -292 -141z m1037 14 c10 -29 14 -53 9
-57 -5 -3 -11 1 -14 8 -24 70 -32 98 -27 103 8 8 11 2 32 -54z m-420 -1160 c0
-5 3 -18 7 -28 6 -16 5 -16 -10 -5 -9 8 -21 11 -27 7 -17 -11 -32 5 -19 21 13
16 49 19 49 5z m-3473 -124 c-5 -17 -37 -21 -37 -5 0 8 9 14 21 15 12 1 19 -3
16 -10z m272 -98 c6 -20 9 -43 6 -51 -7 -19 20 -42 40 -34 8 3 15 1 15 -3 0
-10 -24 -21 -46 -21 -12 0 -38 46 -64 114 -10 28 -8 32 19 32 13 0 22 -11 30
-37z m114 5 c2 -14 -2 -31 -10 -40 -19 -18 -27 -18 -19 1 3 8 -2 18 -10 23
-19 11 -8 42 16 42 11 0 19 -10 23 -26z m77 -67 c28 -58 26 -75 -15 -94 -29
-14 -37 -14 -50 -3 -9 8 -14 22 -12 32 3 10 1 21 -4 24 -14 8 -10 34 5 34 22
0 46 29 39 47 -13 33 17 1 37 -40z m3230 28 c25 -27 22 -37 -13 -42 -12 -2
-46 -7 -76 -12 -57 -9 -91 -5 -91 11 0 5 12 9 28 8 71 -5 101 0 96 15 -6 15
11 45 25 45 4 0 18 -11 31 -25z m-3690 -14 c0 -5 -10 -13 -21 -16 -15 -5 -18
-10 -9 -15 8 -5 7 -9 -5 -14 -25 -9 -55 -7 -55 4 0 6 5 10 10 10 6 0 19 9 30
20 21 21 50 27 50 11z m3288 -37 c14 -15 17 -15 27 0 15 20 29 20 49 0 25 -25
19 -34 -22 -34 -37 0 -82 22 -82 41 0 13 9 11 28 -7z m-3035 -69 c1 -5 -13
-14 -30 -20 -37 -10 -44 -25 -12 -25 12 0 17 -4 14 -11 -4 -5 25 6 64 25 38
20 72 32 75 28 3 -5 -26 -24 -65 -42 -68 -34 -69 -34 -63 -67 9 -47 -20 -45
-36 2 -6 19 -20 40 -31 45 -21 12 -26 40 -6 40 6 0 23 9 37 20 26 20 50 23 53
5z m145 -80 c15 -32 0 -77 -23 -69 -8 3 -15 11 -15 17 0 6 -7 19 -17 29 -9 10
-13 21 -10 24 9 9 37 -15 37 -32 0 -8 5 -14 11 -14 11 0 9 16 -6 53 -11 27 10
20 23 -8z m3295 -403 c15 -9 27 -20 27 -24 0 -9 115 -88 129 -88 6 0 11 -5 11
-11 0 -9 36 -10 135 -5 89 5 135 4 135 -3 0 -6 17 -15 38 -20 20 -6 60 -25 87
-42 37 -24 92 -42 210 -71 234 -57 379 -99 387 -112 14 -21 8 -26 -14 -12 -29
18 -127 46 -323 91 -168 39 -217 55 -253 82 -18 13 -48 27 -67 30 -20 3 -38
10 -41 14 -10 17 -29 9 -29 -13 -1 -13 -4 -33 -9 -45 -6 -18 -4 -22 8 -17 9 3
16 2 16 -4 0 -6 -5 -12 -11 -14 -7 -2 -9 -15 -5 -33 l6 -30 84 3 c64 3 112 -2
202 -23 65 -14 120 -28 123 -31 16 -15 -22 -12 -122 10 -117 27 -243 34 -276
16 -10 -5 -24 -23 -31 -40 -7 -16 -17 -30 -22 -30 -5 0 -4 8 2 19 19 36 3 51
-56 51 -36 0 -54 -4 -55 -12 0 -10 -2 -10 -6 0 -3 8 -28 12 -74 12 -39 0 -69
4 -69 10 0 6 53 10 140 10 153 0 150 -1 129 59 -9 24 -9 35 0 44 12 12 15 56
3 74 -5 7 -52 12 -137 15 -124 3 -132 4 -170 31 l-40 29 -3 -36 c-4 -44 -22
-38 -22 7 0 50 -58 70 -122 42 -10 -4 -18 -3 -18 3 0 15 57 35 86 29 21 -4 23
-2 12 8 -7 7 -27 17 -45 23 -28 9 -39 7 -80 -15 -40 -21 -57 -24 -105 -20 -53
5 -58 3 -86 -27 -16 -17 -38 -47 -47 -66 -10 -19 -31 -54 -47 -77 -26 -39 -28
-45 -15 -69 l14 -26 21 26 c11 15 23 32 25 39 2 7 8 9 12 5 4 -4 -1 -20 -11
-35 -10 -15 -17 -33 -16 -40 1 -6 -5 -14 -15 -17 -10 -4 -31 -25 -48 -47 -16
-22 -31 -35 -33 -30 -2 6 8 26 23 45 22 29 25 38 15 56 -11 21 -12 21 -49 -19
-21 -23 -46 -41 -57 -41 -19 1 -19 1 0 15 10 8 22 16 26 17 9 4 99 139 135
203 16 28 42 65 59 83 28 30 35 32 95 32 46 1 77 7 101 20 39 22 86 19 133 -8z
m-2046 -32 c17 -21 16 -26 -12 -44 -25 -17 -25 -16 -20 7 4 15 1 28 -9 36 -17
15 -18 12 -20 -54 -1 -24 -5 -30 -23 -30 -13 0 -22 -4 -22 -8 0 -16 -42 -60
-84 -87 -71 -45 -199 -110 -216 -110 -11 0 -16 10 -17 30 -1 32 10 40 20 15 7
-19 36 -20 36 0 0 8 6 12 14 9 16 -6 173 78 202 109 11 12 19 28 17 34 -5 14
33 36 47 28 13 -8 13 8 -2 40 -10 22 -8 28 13 48 22 22 26 22 44 8 11 -9 25
-23 32 -31z m1903 -58 c0 -5 -26 -20 -57 -33 -32 -13 -75 -39 -96 -58 -21 -19
-40 -32 -42 -29 -13 13 42 60 107 92 73 37 88 42 88 28z m-3154 -97 c-3 -8 -1
-15 5 -15 15 0 -6 -33 -22 -36 -8 -1 -22 -5 -31 -9 -11 -4 -18 -3 -18 5 0 7
-7 10 -15 6 -8 -3 -15 -2 -15 2 0 7 30 26 63 38 9 3 17 10 17 15 0 5 5 9 11 9
6 0 9 -7 5 -15z m749 -146 c4 -12 12 -18 21 -15 8 3 14 1 14 -5 0 -8 -58 -39
-75 -39 -15 0 -2 18 16 23 17 5 19 9 10 26 -13 24 -14 31 -2 31 5 0 13 -9 16
-21z m2815 -49 c8 -5 11 -12 7 -16 -4 -4 -15 0 -24 9 -18 18 -8 23 17 7z
m1000 -1 c0 -9 -40 -15 -67 -11 -41 6 -24 19 22 18 25 -1 45 -4 45 -7z m-954
-57 c-9 -8 -26 10 -26 26 1 15 2 15 15 -2 8 -11 13 -21 11 -24z m-1430 -4 c5
-8 2 -9 -11 -4 -25 9 -55 -2 -49 -19 4 -10 -17 -25 -71 -50 -42 -20 -78 -35
-80 -33 -1 2 -6 13 -9 25 -6 19 -1 24 51 40 32 9 60 20 63 24 22 27 93 39 106
17z m1534 -24 c0 -8 -4 -14 -10 -14 -5 0 -10 9 -10 21 0 11 5 17 10 14 6 -3
10 -13 10 -21z m-74 -9 c18 -15 18 -15 -5 -13 -14 2 -26 9 -29 16 -5 17 10 15
34 -3z m-3989 -30 c0 -8 -6 -15 -13 -15 -8 0 -11 6 -8 15 4 8 9 15 13 15 4 0
8 -7 8 -15z m3133 -4 c0 -5 -16 -9 -35 -8 -19 1 -35 5 -35 9 0 4 16 8 35 8 19
0 35 -4 35 -9z m830 -10 c0 -11 -4 -23 -10 -26 -6 -4 -10 5 -10 19 0 14 5 26
10 26 6 0 10 -9 10 -19z m60 5 c0 -8 7 -16 15 -20 10 -4 15 1 15 15 0 11 5 17
10 14 14 -9 12 -45 -2 -45 -9 0 -8 -4 2 -10 13 -8 12 -10 -3 -10 -49 0 -81
-83 -66 -167 6 -26 7 -64 4 -84 -6 -34 -4 -37 26 -48 18 -6 34 -9 37 -6 9 8 2
96 -8 115 -13 25 -3 49 26 56 27 7 53 -4 35 -16 -17 -10 -3 -107 18 -127 12
-12 13 -17 3 -21 -20 -6 -14 -31 11 -37 26 -6 421 -63 424 -60 1 0 -3 31 -9
67 -12 76 -7 98 22 98 14 0 20 6 20 23 -1 30 -36 106 -53 112 -7 3 -59 -1
-116 -10 -56 -8 -109 -12 -117 -7 -23 13 198 40 338 41 74 1 109 20 87 47 -7
8 -9 18 -5 22 4 4 16 -4 27 -17 21 -26 25 -46 7 -35 -8 5 -9 -3 -4 -32 4 -21
11 -74 15 -117 5 -62 3 -80 -8 -92 -11 -10 -11 -15 -3 -15 7 0 12 -9 12 -20 0
-28 -14 -25 -28 5 -7 15 -8 25 -2 25 6 0 10 5 10 10 0 6 -7 10 -15 10 -8 0
-15 -5 -15 -11 0 -5 -5 -7 -11 -4 -5 4 -9 17 -8 28 1 12 -3 33 -8 47 -6 14 -7
27 -3 30 4 3 7 20 6 37 -1 31 -3 33 -32 27 -24 -4 -36 -1 -52 16 l-20 21 5
-48 c3 -26 11 -93 19 -147 8 -55 14 -105 14 -112 0 -7 28 -17 71 -25 60 -11
72 -10 81 2 8 11 9 10 4 -4 -4 -12 -2 -17 6 -15 14 5 12 88 -2 153 -12 51 -12
88 -1 81 4 -3 13 -47 20 -98 21 -162 23 -148 -20 -148 -21 0 -61 5 -89 11 -28
6 -54 9 -56 6 -3 -3 3 -53 14 -111 10 -58 15 -106 11 -106 -10 0 -15 19 -34
130 -9 52 -17 95 -18 96 -9 5 -248 36 -251 33 -3 -2 2 -40 10 -83 14 -71 13
-99 -1 -84 -3 3 -12 42 -20 88 -8 46 -16 84 -17 85 -2 1 -70 12 -153 24 -82
12 -151 27 -153 32 -2 5 -11 9 -19 9 -11 0 -13 -3 -5 -12 14 -18 28 -133 14
-125 -5 4 -13 32 -17 62 -4 39 -12 58 -23 62 -19 7 -37 22 -85 70 -28 27 -44
33 -123 46 -82 12 -96 12 -132 -2 -23 -9 -46 -21 -51 -26 -10 -12 -41 -176
-41 -221 0 -17 7 -48 15 -67 17 -42 18 -47 7 -47 -4 0 -16 23 -26 51 -17 45
-17 59 -6 127 27 170 25 168 83 192 50 22 56 22 152 10 93 -12 102 -15 131
-46 17 -19 35 -34 41 -34 18 0 24 66 13 137 -18 109 -18 110 -46 117 -21 6
-24 9 -14 21 7 8 17 12 24 8 6 -4 20 -7 31 -8 12 0 19 -6 17 -15 -2 -9 5 -6
18 8 17 18 19 27 11 35 -14 14 -15 47 -1 47 6 0 10 -6 10 -14z m-4055 -65
c-10 -16 -25 -3 -25 22 0 20 1 20 16 5 9 -9 13 -21 9 -27z m3007 4 c3 -13 1
-22 -3 -19 -5 3 -9 1 -9 -5 0 -6 -6 -8 -14 -5 -8 3 -12 12 -9 20 3 9 -1 14
-12 14 -12 0 -15 -5 -10 -21 9 -29 -13 -15 -24 15 -8 19 -4 22 28 26 45 7 48
6 53 -25z m-847 5 c14 -6 -6 -9 -65 -11 -47 -2 -95 -2 -107 -1 -18 0 -23 -5
-23 -23 0 -13 5 -36 12 -50 l12 -26 93 7 c61 4 93 3 93 -3 0 -15 -50 -23 -135
-23 l-72 0 -12 41 -12 40 -167 -6 c-252 -10 -462 -38 -462 -63 0 -10 35 -89
45 -100 2 -2 35 13 75 33 86 43 90 24 5 -22 -33 -17 -61 -35 -62 -40 -1 -4 53
-125 121 -268 68 -143 122 -262 120 -264 -9 -10 -27 24 -145 273 -68 142 -125
254 -127 248 -1 -5 52 -124 119 -263 157 -328 170 -357 160 -363 -5 -3 -22 25
-39 62 -39 87 -260 544 -266 549 -6 6 -176 -80 -176 -90 0 -10 232 -501 312
-661 27 -54 47 -101 43 -104 -12 -12 1 -38 -320 636 -32 67 -63 122 -67 122
-5 0 -40 -16 -78 -35 -71 -36 -90 -41 -90 -27 0 5 34 23 75 41 42 19 78 38 82
43 3 6 -9 42 -28 79 -25 53 -37 68 -49 63 -8 -3 -30 -8 -49 -11 -19 -2 -40
-12 -47 -21 -13 -16 -13 -16 -14 1 0 20 -3 20 -44 7 -17 -5 -43 -12 -58 -15
-19 -4 -26 -10 -22 -20 4 -10 0 -15 -12 -16 -99 -7 -154 -20 -164 -39 -6 -11
-17 -17 -24 -14 -8 3 -17 1 -20 -5 -4 -6 -13 -8 -21 -4 -8 3 -15 1 -15 -5 0
-6 -9 -8 -20 -5 -33 9 -33 -20 -1 -83 88 -175 421 -886 421 -899 0 -3 -4 -5
-9 -5 -4 0 -20 26 -34 58 -30 69 -378 805 -383 811 -2 2 -6 2 -9 -1 -5 -5 16
-50 251 -541 68 -142 124 -263 124 -268 0 -5 -4 -9 -10 -9 -5 0 -10 4 -10 9 0
4 -47 104 -104 222 -57 118 -141 293 -186 389 -45 96 -85 178 -89 182 -4 5
-50 -11 -103 -33 -83 -36 -95 -44 -91 -63 4 -19 3 -20 -10 -4 -13 17 -28 12
-228 -74 -118 -50 -228 -100 -246 -110 -31 -19 -31 -20 -17 -53 7 -19 10 -36
5 -39 -5 -3 -14 7 -21 23 -6 16 -18 32 -26 35 -7 3 -11 12 -8 19 3 8 -2 31
-10 52 -19 45 -20 66 -2 43 11 -15 17 -13 62 26 27 24 72 55 101 69 28 15 73
43 100 62 26 20 77 49 113 65 71 32 291 106 357 120 23 5 50 14 60 19 50 28
109 51 132 51 14 1 42 7 61 15 88 34 130 48 195 65 39 11 95 28 125 39 30 12
62 21 70 21 8 0 29 7 45 16 48 25 126 46 185 48 30 2 125 12 210 24 85 12 206
22 268 22 90 0 112 3 112 14 0 8 8 16 18 19 34 8 208 6 227 -3z m1750 -61 c0
-78 -13 -91 -89 -87 l-61 3 -27 55 c-26 54 -27 55 -80 62 -58 7 -170 -13 -223
-40 -32 -16 -194 -46 -203 -37 -10 10 7 16 90 29 47 8 100 22 118 31 56 29
142 40 311 40 l164 0 0 -56z m-4379 -84 c23 -61 11 -69 -15 -10 -24 54 -24 55
-12 55 5 0 17 -20 27 -45z m584 -32 c0 -19 -18 -32 -100 -73 -55 -27 -103 -50
-107 -50 -5 0 -9 16 -10 35 -2 19 2 35 7 35 6 0 10 -9 10 -20 0 -25 11 -25 61
0 34 18 38 23 29 40 -7 12 -7 21 0 25 5 3 10 3 10 -2 1 -28 18 -34 52 -18 30
15 34 21 30 48 -3 25 -1 29 7 17 6 -8 11 -25 11 -37z m1535 18 c36 -5 45 -10
32 -15 -25 -12 -121 2 -143 20 -17 14 -16 15 21 9 22 -4 63 -10 90 -14z m3965
-64 c0 -4 -6 -7 -13 -5 -6 2 -26 -7 -44 -20 -44 -31 -52 -28 -18 8 16 16 27
31 24 34 -2 2 -14 9 -26 15 -13 6 -23 16 -23 22 0 6 22 -2 50 -18 27 -15 50
-32 50 -36z m-1013 20 c-12 -26 -27 -36 -27 -18 0 5 -3 17 -7 27 -5 13 -3 16
10 11 9 -3 19 -2 23 4 12 20 14 2 1 -24z m-1810 -72 c229 -33 263 -39 252 -49
-5 -4 -543 70 -562 77 -35 15 90 3 310 -28z m1983 -66 c0 -11 -4 -17 -10 -14
-5 3 -10 15 -10 26 0 11 5 17 10 14 6 -3 10 -15 10 -26z m-3227 -8 c21 -36 21
-45 2 -37 -17 6 -18 4 -9 -18 3 -8 12 -12 21 -9 12 5 14 1 8 -18 -10 -32 -10
-32 -33 -20 -11 6 -25 24 -30 41 -10 28 -8 34 10 31 4 0 3 10 -2 23 -8 22 -5
36 10 36 3 0 13 -13 23 -29z m3237 -42 c0 -11 -4 -17 -10 -14 -5 3 -10 13 -10
21 0 8 5 14 10 14 6 0 10 -9 10 -21z m50 11 c0 -13 -11 -13 -30 0 -12 8 -11
10 8 10 12 0 22 -4 22 -10z m710 -4 c0 -1 -5 -17 -11 -35 -10 -29 -29 -43 -29
-22 0 5 -8 17 -17 27 -17 16 -16 17 10 12 19 -4 27 -1 27 8 0 8 5 14 10 14 6
0 10 -2 10 -4z m-3644 -30 c12 -13 11 -17 -8 -30 -31 -22 -38 -20 -38 8 0 20
8 30 28 35 2 1 10 -5 18 -13z m-2372 -81 c-4 -8 -16 -15 -28 -15 -21 1 -21 1
-2 15 25 19 37 19 30 0z m2676 -30 c0 -27 1 -30 19 -50 10 -11 29 -47 42 -80
12 -33 30 -68 38 -78 8 -9 11 -20 7 -24 -4 -4 -11 -1 -16 7 -6 8 -10 10 -10 4
0 -5 -9 -20 -20 -32 -20 -21 -21 -21 -52 -4 -23 13 -44 43 -80 112 -26 52 -48
98 -48 102 0 5 9 8 21 8 16 0 19 -4 14 -22 -7 -23 -7 -23 9 -3 8 11 16 26 16
33 0 15 16 16 25 2 10 -17 26 0 20 21 -4 11 -2 19 4 19 6 0 11 -7 11 -15z
m1770 -52 c29 -73 38 -85 61 -78 11 4 19 2 19 -4 0 -10 -47 -27 -54 -20 -5 5
-66 150 -66 155 0 2 4 4 9 4 5 0 19 -26 31 -57z m294 -68 c15 -84 23 -108 57
-158 31 -47 39 -69 39 -104 0 -24 -5 -53 -10 -64 -10 -18 -98 -69 -121 -69 -6
0 -47 -16 -90 -35 -88 -39 -89 -39 -89 -26 0 5 33 23 73 42 65 29 73 35 69 56
-2 13 1 23 7 23 17 0 13 40 -4 46 -24 10 -17 26 7 18 20 -6 21 -5 9 10 -20 24
-5 33 19 11 16 -14 20 -15 20 -4 0 8 -5 20 -12 27 -8 8 -8 12 -1 12 6 0 16 -7
23 -15 18 -22 32 -18 30 8 -4 39 1 43 14 12 11 -24 15 -27 21 -13 4 11 -6 34
-28 67 -26 38 -38 69 -47 123 -7 40 -15 90 -20 110 -8 38 -2 59 11 36 4 -7 14
-58 23 -113z m-5489 47 c-12 -13 -24 22 -12 37 10 12 13 11 15 -8 2 -13 1 -26
-3 -29z m6861 -5 c12 -12 -87 -18 -235 -15 -91 2 -156 7 -158 13 -3 10 383 12
393 2z m-5332 -23 c9 -22 -3 -32 -14 -14 -12 19 -12 30 -1 30 5 0 12 -7 15
-16z m2921 -44 c28 -55 29 -60 15 -60 -10 0 -32 38 -50 85 -17 45 9 27 35 -25z
m-1845 -11 c0 -4 11 -10 25 -13 14 -4 25 -11 25 -17 0 -6 -9 -8 -20 -4 -16 5
-19 3 -14 -12 5 -14 2 -14 -14 5 -12 13 -26 20 -36 16 -9 -3 -16 -2 -16 4 0 5
6 12 14 15 9 4 13 14 9 29 -4 22 -4 22 11 4 9 -11 16 -23 16 -27z m-1047 -4
c4 -8 2 -17 -3 -20 -6 -4 -10 -4 -10 -1 0 2 -3 11 -6 20 -3 9 -2 16 4 16 5 0
12 -7 15 -15z m3717 -30 c0 -8 -4 -17 -10 -20 -6 -4 -10 5 -10 20 0 15 4 24
10 20 6 -3 10 -12 10 -20z m357 -72 c-9 -9 -20 -13 -24 -9 -4 4 1 14 11 22 25
18 35 8 13 -13z m-3248 -283 c68 -144 121 -264 117 -267 -3 -4 -8 -4 -10 -2
-9 9 -246 519 -246 529 0 29 26 -19 139 -260z m-1514 250 c4 -6 16 -8 27 -5
19 7 19 6 4 -24 -9 -16 -16 -41 -16 -55 0 -31 -80 -207 -91 -201 -4 3 8 39 28
81 19 42 37 93 40 113 l6 36 -21 -26 c-12 -14 -38 -62 -58 -105 -20 -43 -38
-74 -40 -68 -5 13 70 179 85 188 14 9 14 46 0 46 -8 0 -8 5 1 15 15 18 26 19
35 5z m-1765 -58 c0 -5 -11 -14 -25 -20 -20 -9 -25 -9 -25 2 0 7 3 16 7 19 9
10 43 9 43 -1z m2430 -40 c0 -9 -44 -32 -60 -32 -20 0 -9 17 18 27 35 14 42
15 42 5z m1251 -195 c-3 -18 -36 -77 -44 -77 -5 0 -7 3 -5 8 2 4 10 24 18 45
8 20 18 36 23 34 5 -1 8 -6 8 -10z m2350 -101 c-10 -11 -9 -24 0 -56 11 -36
10 -44 -8 -68 -24 -33 -159 -82 -236 -85 -50 -2 -51 -1 -74 38 -14 25 -29 39
-39 37 -10 -2 -14 2 -12 10 11 31 39 19 58 -24 10 -24 22 -46 25 -50 9 -9 162
27 217 51 54 23 68 53 48 101 -14 35 -8 60 16 60 13 0 14 -3 5 -14z m-4131 -1
c0 -3 -15 -19 -34 -37 -34 -33 -131 -224 -118 -232 4 -2 118 -40 255 -85 136
-46 247 -87 247 -92 0 -5 -3 -9 -7 -8 -30 2 -587 197 -590 206 -3 9 6 9 32 2
20 -6 38 -9 40 -7 1 2 26 50 55 108 29 58 64 115 79 127 25 21 41 28 41 18z
m1410 -37 c26 -58 26 -114 0 -128 -21 -11 -27 -1 -9 17 6 6 9 18 7 26 -3 13
-6 14 -22 2 -17 -13 -17 -16 -3 -44 8 -16 13 -32 11 -34 -3 -2 -21 1 -42 8
-23 8 -43 10 -54 4 -30 -16 -44 -9 -18 10 13 11 28 17 32 15 14 -9 9 31 -7 52
-8 12 -13 40 -12 63 1 39 3 42 24 38 13 -2 23 0 23 4 0 5 11 9 25 9 21 0 30
-9 45 -42z m-663 -89 c62 -39 111 -75 108 -80 -4 -5 -29 6 -58 24 -29 19 -82
53 -119 76 -38 24 -68 45 -68 47 0 14 37 -4 137 -67z m2048 14 c-36 -27 -166
-86 -173 -78 -4 4 0 10 8 13 8 3 51 24 95 47 78 40 110 49 70 18z m-750 -61
l60 -57 143 -3 c91 -2 142 -7 142 -14 0 -7 -78 -8 -255 -3 -244 7 -255 6 -255
-11 -1 -18 -1 -18 -14 -1 -7 9 -20 17 -28 17 -8 0 -23 7 -34 15 -18 15 -17 16
14 9 32 -6 33 -5 23 15 -8 14 -8 21 -1 21 5 0 10 -5 10 -10 0 -6 11 -8 28 -4
24 7 26 6 13 -9 -12 -15 -9 -17 33 -17 44 0 62 15 31 26 -13 5 -12 11 6 35 11
16 17 33 14 39 -16 26 16 4 70 -48z m545 -19 c0 -11 -107 -54 -147 -60 -21 -3
-33 -1 -33 6 0 6 11 11 24 11 13 0 48 11 78 25 54 25 78 31 78 18z m1902 -19
c15 -8 40 -14 57 -14 32 0 47 -23 35 -54 -10 -25 -22 -19 -16 9 4 22 1 25 -22
25 -15 0 -41 7 -59 17 -17 9 -45 16 -61 17 -16 1 -31 6 -33 13 -5 15 60 6 99
-13z m-2252 -75 c0 -5 -4 -7 -10 -4 -5 3 -10 1 -10 -4 0 -6 -3 -10 -7 -10 -5
1 -11 0 -15 -1 -5 -1 -11 -3 -15 -4 -24 -6 -73 -43 -73 -55 0 -8 -3 -12 -6 -8
-11 10 -64 -22 -64 -39 0 -14 -3 -14 -15 -4 -12 10 -15 10 -15 -4 0 -9 -4 -16
-10 -16 -5 0 -10 5 -10 10 0 6 -9 10 -19 10 -17 0 -18 3 -8 24 9 19 15 22 25
13 10 -8 16 -7 22 2 4 8 12 11 18 7 15 -9 42 4 42 20 0 8 3 13 8 12 12 -2 46
14 67 32 30 26 95 39 95 19z m205 1 c-3 -5 -11 -10 -16 -10 -15 0 -48 -42 -49
-62 0 -9 8 -18 18 -21 16 -4 16 -4 -2 -12 -11 -5 -21 -3 -25 4 -11 17 -102
-55 -95 -74 4 -8 1 -15 -5 -15 -6 0 -11 5 -11 11 0 5 -13 2 -30 -8 -16 -9 -30
-23 -30 -30 0 -7 -7 -10 -17 -6 -10 4 -14 2 -9 -5 3 -6 -2 -16 -13 -22 -12 -6
-22 -6 -26 0 -8 13 -35 1 -35 -16 0 -8 -6 -11 -15 -8 -16 7 -193 -91 -238
-131 -32 -29 -31 -36 14 -127 23 -46 69 -156 69 -165 0 -2 -4 -3 -9 -3 -4 0
-16 21 -26 48 -10 26 -35 81 -55 122 -50 101 -56 126 -30 133 12 3 20 14 20
27 0 12 4 18 10 15 6 -4 8 -11 5 -16 -4 -5 -2 -9 4 -9 5 0 12 4 16 9 8 14 202
124 255 145 98 39 269 174 276 218 1 5 2 10 3 13 0 3 13 5 27 5 14 0 23 -4 19
-10z m3077 -45 c6 -31 1 -34 -60 -42 -37 -4 -50 -10 -59 -29 -6 -14 -7 -26 -2
-30 5 -3 7 -23 6 -45 -3 -32 1 -43 17 -55 19 -13 22 -13 33 1 6 9 14 12 17 7
9 -15 -22 -35 -44 -29 -11 3 -20 0 -20 -6 0 -27 -21 13 -22 42 -1 17 -5 31
-11 31 -5 0 -5 6 2 14 6 7 9 26 6 42 -7 40 11 59 73 74 45 10 52 15 47 31 -4
10 -2 19 3 19 5 0 12 -11 14 -25z m-7359 -27 c-15 -17 -43 -25 -43 -12 0 3 10
17 22 29 27 28 47 11 21 -17z m3784 -88 c13 -24 22 -44 21 -45 -19 -12 -69
-25 -77 -21 -5 4 -15 23 -22 43 -11 34 -10 38 11 55 30 25 40 20 67 -32z
m3523 -19 c0 -10 -42 -23 -49 -15 -7 6 20 24 37 24 6 0 12 -4 12 -9z m-2940
-46 c-14 -17 -40 -20 -40 -6 0 8 18 16 44 20 5 0 3 -6 -4 -14z m-60 -54 c0 -5
-93 -32 -206 -60 -114 -29 -215 -56 -225 -62 -14 -7 -18 -17 -13 -37 5 -26 5
-26 -10 -8 -9 11 -16 25 -16 31 0 20 72 46 267 95 216 55 203 53 203 41z
m2915 -11 c-3 -5 -13 -10 -21 -10 -8 0 -14 5 -14 10 0 6 9 10 21 10 11 0 17
-4 14 -10z m-60 -10 c-3 -5 -13 -10 -21 -10 -8 0 -14 5 -14 10 0 6 9 10 21 10
11 0 17 -4 14 -10z m-55 -12 c0 -12 -76 -19 -103 -9 -15 6 -34 8 -42 5 -8 -4
-15 -1 -15 5 0 6 29 9 80 8 44 -1 80 -5 80 -9z m-5213 -37 c-8 -30 23 -50 108
-70 76 -19 98 -32 89 -56 -3 -7 2 -15 10 -18 22 -9 20 -37 -1 -37 -38 0 -46
-14 -32 -56 14 -41 34 -64 56 -64 10 0 13 26 14 108 1 91 12 180 19 147 6 -30
-3 -261 -11 -269 -15 -16 -349 103 -349 124 0 10 58 189 66 201 11 18 36 10
31 -10z m2389 -24 c7 -18 17 -31 24 -29 8 2 10 -3 6 -13 -3 -9 -3 -22 1 -28 4
-7 28 -59 54 -117 28 -64 51 -104 59 -102 8 2 10 -3 6 -13 -3 -9 11 -52 31
-97 30 -66 35 -83 25 -99 -15 -24 -15 -42 0 -57 7 -7 17 -33 24 -60 14 -53 6
-66 -33 -51 -22 8 -24 7 -21 -13 3 -20 10 -23 51 -26 51 -3 66 -22 17 -22 -16
0 -30 -4 -30 -9 0 -5 -15 -13 -32 -16 -47 -10 -52 -15 -31 -30 26 -19 8 -30
-19 -11 -12 9 -36 16 -53 17 -25 0 -27 2 -14 11 20 14 7 25 -178 142 -68 43
-121 82 -118 86 3 4 64 -23 135 -62 143 -76 206 -101 242 -96 l23 3 -27 24
c-18 16 -28 35 -28 53 0 18 -5 28 -15 28 -10 0 -15 11 -15 35 0 39 4 42 26 20
23 -22 34 -18 41 15 4 21 11 30 24 30 11 0 19 4 19 9 0 18 -70 161 -79 161 -5
0 -8 6 -7 13 0 8 -21 66 -49 130 -38 88 -54 117 -69 117 -12 0 -16 -5 -12 -15
3 -8 1 -15 -4 -15 -6 0 -10 5 -10 11 0 5 -5 7 -11 4 -6 -4 -16 1 -24 11 -11
15 -15 16 -29 5 -14 -11 -16 -11 -16 3 0 10 -4 14 -10 11 -12 -8 -77 51 -67
61 4 4 18 -3 32 -16 16 -15 38 -24 60 -24 19 -1 37 -6 39 -13 3 -6 14 -9 26
-6 19 5 21 10 15 47 -8 46 4 42 21 -7z m3321 -59 c-3 -7 -5 -2 -5 12 0 14 2
19 5 13 2 -7 2 -19 0 -25z m-4047 -145 c0 -5 -49 -41 -108 -81 -59 -40 -155
-110 -214 -157 -59 -47 -110 -85 -113 -85 -32 0 103 111 307 253 109 75 128
85 128 70z m-170 -41 c0 -24 -214 -189 -224 -173 -3 4 18 24 47 44 28 20 77
58 107 86 54 49 70 59 70 43z m-1096 -153 c65 -22 125 -39 134 -36 9 2 30 -3
45 -10 23 -12 31 -12 44 -1 14 11 15 10 9 -9 -4 -12 -2 -24 4 -28 5 -3 10 -27
10 -52 0 -37 9 -59 47 -119 41 -65 49 -73 61 -60 13 13 11 21 -15 63 -27 43
-63 111 -63 119 0 13 31 -12 36 -29 3 -12 22 -48 42 -80 34 -56 34 -58 17 -77
-18 -19 -17 -22 9 -78 45 -96 44 -95 106 -76 22 7 23 6 12 -9 -11 -13 -10 -22
8 -56 13 -26 18 -50 14 -66 -3 -14 -2 -25 4 -25 5 0 12 -12 15 -27 l5 -27 -27
33 c-22 26 -32 32 -49 27 -18 -6 -24 -2 -33 21 -6 15 -13 44 -16 63 -3 19 -17
59 -30 88 -22 46 -28 51 -42 40 -9 -7 -44 -37 -79 -65 -65 -56 -78 -62 -69
-38 4 8 -5 22 -21 34 -15 11 -23 23 -19 28 5 4 14 0 21 -10 20 -26 46 -22 46
8 0 30 17 34 22 5 3 -18 8 -15 51 21 l48 41 -22 19 c-12 10 -17 19 -11 19 7 0
12 7 12 16 0 10 -6 14 -15 10 -10 -4 -15 1 -15 15 0 11 -18 47 -40 79 -39 58
-48 80 -32 80 5 0 7 14 4 30 -3 24 -13 35 -46 51 l-41 20 26 -24 c29 -26 54
-66 46 -73 -3 -3 -14 8 -26 25 -24 33 -80 71 -105 71 -10 0 -16 -9 -17 -22 -1
-19 -3 -17 -8 6 -5 27 -15 32 -116 67 -60 21 -98 39 -84 39 15 0 79 -18 143
-41z m-664 -34 c-7 -9 -15 -13 -18 -10 -3 2 1 11 8 20 7 9 15 13 18 10 3 -2
-1 -11 -8 -20z m58 6 c3 -8 -1 -12 -9 -9 -7 2 -15 10 -17 17 -3 8 1 12 9 9 7
-2 15 -10 17 -17z m22 -41 c0 -11 -4 -20 -9 -20 -7 0 -8 17 -2 38 4 10 11 -2
11 -18z m2657 -17 c-3 -10 -5 -4 -5 12 0 17 2 24 5 18 2 -7 2 -21 0 -30z
m-2756 -6 c-8 -8 -11 -7 -11 4 0 20 13 34 18 19 3 -7 -1 -17 -7 -23z m1051 11
c8 -13 19 -34 23 -48 7 -22 6 -23 -9 -11 -13 11 -16 11 -16 0 0 -10 -3 -10
-12 -1 -7 7 -20 12 -29 12 -21 0 -15 38 9 58 20 15 17 16 34 -10z m-951 -45
c0 -16 2 -49 3 -76 1 -34 -2 -46 -11 -43 -7 3 -15 1 -18 -4 -4 -6 -11 -10 -17
-10 -7 0 -6 6 2 15 9 10 9 15 1 15 -6 0 -11 4 -11 10 0 5 6 7 14 4 17 -6 27
29 19 67 -3 18 -10 26 -19 22 -8 -3 -14 -1 -14 5 0 11 16 20 38 21 6 1 12 -11
13 -26z m665 -3 c8 0 14 -4 14 -10 0 -5 -11 -10 -25 -10 -18 0 -25 5 -25 18 0
25 14 38 18 18 2 -9 10 -16 18 -16z m-769 0 c-6 -23 3 -26 21 -8 9 9 12 8 12
-5 0 -13 -27 -37 -43 -37 -2 0 -4 16 -5 35 -1 19 3 35 9 35 6 0 9 -9 6 -20z
m1443 10 c0 -16 -98 -75 -180 -108 -41 -16 -77 -28 -79 -26 -10 9 16 25 77 48
38 15 93 42 123 61 62 39 59 38 59 25z m-1480 -20 c0 -13 -11 -13 -30 0 -12 8
-11 10 8 10 12 0 22 -4 22 -10z m875 0 c3 -5 -3 -10 -14 -10 -12 0 -21 5 -21
10 0 6 6 10 14 10 8 0 18 -4 21 -10z m-925 -10 c0 -5 -9 -10 -21 -10 -11 0
-17 5 -14 10 3 6 13 10 21 10 8 0 14 -4 14 -10z m390 6 c0 -3 -4 -8 -10 -11
-5 -3 -10 -1 -10 4 0 6 5 11 10 11 6 0 10 -2 10 -4z m1190 -5 c0 -8 -16 -19
-102 -75 -16 -11 -28 -14 -28 -7 0 6 28 29 63 51 69 44 67 43 67 31z m-740
-30 c0 -11 -4 -23 -10 -26 -6 -4 -10 5 -10 19 0 14 5 26 10 26 6 0 10 -9 10
-19z m-873 -6 c9 -25 -4 -29 -17 -6 -7 15 -7 21 0 21 6 0 13 -7 17 -15z m412
-4 c12 -8 12 -12 2 -24 -7 -10 -8 -18 -2 -21 5 -4 13 -1 17 5 4 8 9 7 15 -2
14 -23 10 -29 -16 -29 -18 0 -28 7 -35 26 -19 48 -11 64 19 45z m-264 -12 c9
-14 4 -18 -31 -25 -25 -5 -30 -3 -30 15 0 16 7 21 28 21 15 0 30 -5 33 -11z
m-145 -29 c8 -5 12 -12 9 -15 -8 -8 -39 5 -39 16 0 11 11 11 30 -1z m863 -20
c-7 -28 -13 -25 -13 6 0 14 4 23 9 20 5 -3 7 -15 4 -26z m-779 -11 c-3 -5 5
-13 17 -17 17 -7 19 -11 9 -17 -8 -5 -18 -2 -26 9 -7 10 -17 15 -22 12 -5 -3
-17 1 -28 8 -17 13 -15 14 19 14 20 0 34 -4 31 -9z m241 -9 c3 -5 -3 -10 -14
-10 -11 0 -23 5 -26 10 -3 6 3 10 14 10 11 0 23 -4 26 -10z m-159 -15 c-26
-19 -42 -19 -26 0 7 8 20 15 29 15 13 -1 13 -3 -3 -15z m278 -7 c-9 -30 -10
-32 -29 -24 -14 5 -13 8 2 25 24 26 36 26 27 -1z m-59 2 c3 -5 -3 -10 -14 -10
-11 0 -23 5 -26 10 -3 6 3 10 14 10 11 0 23 -4 26 -10z m475 -17 c0 -20 -3
-24 -11 -16 -7 7 -9 19 -6 27 10 24 17 19 17 -11z m-360 -23 c0 -5 -6 -10 -14
-10 -8 0 -18 5 -21 10 -3 6 3 10 14 10 12 0 21 -4 21 -10z m60 -21 c0 -11 -3
-11 -24 -3 -23 9 -20 23 4 17 11 -3 20 -9 20 -14z m300 -8 c0 -11 6 -22 13
-24 6 -3 2 -6 -10 -6 -18 -1 -23 5 -23 24 0 14 5 25 10 25 6 0 10 -9 10 -19z
m-266 3 c23 -9 20 -23 -4 -17 -11 3 -20 9 -20 14 0 11 3 11 24 3z m161 -24 c4
-6 -5 -10 -19 -10 -14 0 -26 5 -26 10 0 6 9 10 19 10 11 0 23 -4 26 -10z m60
0 c3 -5 -3 -10 -14 -10 -12 0 -21 5 -21 10 0 6 6 10 14 10 8 0 18 -4 21 -10z
m95 -36 c0 -8 -4 -14 -10 -14 -5 0 -10 9 -10 21 0 11 5 17 10 14 6 -3 10 -13
10 -21z m1856 -6 c-11 -68 -9 -292 4 -320 7 -16 16 -28 19 -28 3 0 79 -1 168
-3 l162 -2 7 54 c10 80 -8 98 -103 100 -25 1 -43 6 -43 12 0 9 20 10 68 6 96
-9 105 -22 96 -143 l-7 -93 27 -11 c15 -5 64 -10 109 -11 107 -1 206 -13 187
-22 -8 -4 -82 -3 -164 2 -127 7 -151 11 -163 27 -7 10 -13 25 -13 35 0 16 -42
29 -101 29 l-27 0 -4 -101 c-4 -96 -5 -102 -31 -121 -15 -11 -27 -23 -27 -27
0 -4 41 -20 90 -36 50 -16 90 -32 90 -37 0 -14 -27 -9 -109 21 l-80 29 -10
-30 c-6 -17 -11 -47 -11 -67 -1 -20 -11 -56 -23 -80 -43 -87 -142 -106 -202
-38 -16 18 -43 39 -59 45 -28 12 -28 14 -24 80 3 37 1 79 -3 93 -8 31 8 122
21 114 4 -3 4 -23 -1 -46 -5 -22 -7 -45 -3 -51 3 -5 6 -27 6 -49 -1 -37 0 -38
27 -33 15 3 44 -1 65 -10 21 -9 55 -16 74 -16 25 0 44 -8 64 -27 32 -31 43
-25 40 21 -3 44 33 136 61 158 19 15 22 28 25 113 l4 97 -84 -2 c-116 -3 -111
-4 -133 36 -17 31 -19 53 -17 167 3 147 9 197 24 197 6 0 8 -14 4 -32z m-1816
-13 c0 -8 -2 -15 -4 -15 -2 0 -6 7 -10 15 -3 8 -1 15 4 15 6 0 10 -7 10 -15z
m840 10 c0 -5 -55 -35 -65 -35 -14 0 -3 18 18 28 24 11 47 15 47 7z m-810
-130 c-7 -9 -15 -13 -18 -10 -3 2 1 11 8 20 7 9 15 13 18 10 3 -2 -1 -11 -8
-20z m-40 -24 c0 -13 -28 -22 -35 -11 -3 4 1 11 7 13 20 8 28 8 28 -2z m-55
-31 c-3 -5 -13 -10 -21 -10 -8 0 -12 5 -9 10 3 6 13 10 21 10 8 0 12 -4 9 -10z
m2303 -18 c2 -7 -2 -10 -12 -6 -9 3 -16 11 -16 16 0 13 23 5 28 -10z m-2353
-12 c-3 -5 -13 -10 -21 -10 -8 0 -12 5 -9 10 3 6 13 10 21 10 8 0 12 -4 9 -10z
m2419 -41 c-3 -5 -11 -9 -17 -9 -14 0 -38 35 -30 43 8 9 54 -24 47 -34z m-44
1 c0 -5 -6 -10 -14 -10 -8 0 -18 5 -21 10 -3 6 3 10 14 10 12 0 21 -4 21 -10z
m-2435 -10 c-3 -5 -17 -10 -30 -10 -13 0 -26 -4 -29 -9 -5 -8 44 -11 432 -27
83 -4 152 -11 152 -15 0 -11 -33 -11 -325 1 -357 15 -348 15 -353 29 -4 11 4
12 31 7 26 -5 36 -3 40 8 5 14 28 21 70 25 10 0 15 -3 12 -9z m643 -75 c10
-11 18 -24 18 -30 1 -16 323 -184 342 -178 6 3 12 0 12 -5 0 -9 170 -92 189
-92 6 0 11 -5 11 -11 0 -6 -9 -8 -22 -4 -26 7 -464 226 -516 257 -32 19 -82
84 -96 123 -7 19 -2 15 62 -60z m1892 50 c0 -13 -14 -35 -22 -35 -6 0 -8 7 -5
15 4 8 2 17 -3 20 -20 12 -10 26 10 15 11 -6 20 -12 20 -15z m-70 0 c0 -8 5
-15 11 -15 5 0 7 -4 4 -10 -12 -20 -35 -10 -35 15 0 14 5 25 10 25 6 0 10 -7
10 -15z m-2720 -19 c40 -12 45 -17 48 -45 2 -17 -1 -31 -7 -31 -6 0 -11 11
-11 25 0 19 -7 26 -37 34 -47 13 -58 4 -73 -60 -9 -36 -16 -49 -26 -45 -8 3
-14 0 -14 -7 0 -7 -14 -32 -30 -56 -17 -24 -30 -49 -30 -55 0 -11 107 -54 113
-45 2 2 7 14 13 26 l9 22 44 -22 c25 -12 47 -27 48 -33 2 -7 -14 -3 -37 9 -35
17 -43 18 -51 6 -6 -9 -4 -18 6 -25 17 -13 9 -25 -11 -17 -8 3 -14 -1 -14 -8
0 -8 -4 -20 -9 -28 -8 -13 -18 -12 -70 4 -34 10 -63 16 -66 14 -2 -3 -8 -38
-11 -77 -4 -40 -11 -75 -17 -79 -9 -6 -5 65 9 149 l6 36 -81 8 c-57 4 -81 11
-81 20 0 7 -16 16 -35 20 -19 3 -35 11 -35 16 0 14 59 0 97 -24 42 -25 129
-22 127 5 -1 9 4 17 11 17 6 0 20 18 30 40 10 22 22 40 26 40 4 0 13 15 20 34
7 19 18 32 24 30 8 -3 15 11 19 38 4 27 15 50 29 60 12 10 22 18 22 18 0 0 20
-6 45 -14z m830 -21 c-11 -13 61 -85 135 -136 28 -19 63 -44 78 -56 16 -13 38
-23 50 -23 12 0 51 -14 85 -30 35 -17 68 -30 74 -30 6 0 27 -13 48 -30 21 -16
49 -30 63 -30 13 0 30 -7 37 -15 7 -8 16 -12 21 -9 12 7 161 -68 188 -95 12
-12 32 -21 45 -21 14 0 71 -24 127 -52 75 -39 108 -62 126 -89 13 -19 39 -43
58 -52 19 -9 35 -21 35 -27 0 -5 11 -10 24 -10 15 0 36 -13 54 -35 l31 -35
-22 -52 c-14 -35 -43 -74 -84 -115 -37 -36 -63 -70 -63 -82 0 -12 -3 -21 -7
-21 -3 0 -121 16 -262 36 -165 23 -270 33 -298 29 -24 -3 -43 -8 -43 -9 0 -2
25 -56 55 -121 31 -65 54 -123 52 -129 -3 -6 -32 46 -65 117 -60 126 -61 127
-95 127 -19 0 -52 -7 -73 -16 -31 -13 -59 -15 -138 -11 -55 4 -104 11 -109 16
-7 7 24 8 92 4 77 -5 115 -2 159 10 110 30 195 38 281 25 45 -6 84 -8 88 -4 4
4 -1 28 -10 54 -39 102 -39 99 0 107 19 3 41 9 49 12 8 3 14 0 14 -5 0 -6 -16
-14 -35 -18 -41 -7 -42 -16 -15 -79 11 -26 20 -55 20 -64 0 -15 22 -21 155
-40 86 -12 160 -19 165 -16 6 3 10 13 10 20 0 8 29 46 65 83 36 38 72 87 81
108 l16 39 -33 27 c-18 16 -41 28 -51 28 -9 0 -20 5 -23 10 -3 6 -16 10 -28
10 -24 0 -57 31 -57 54 0 20 -46 56 -125 96 -38 19 -75 41 -83 48 -7 6 -27 12
-44 12 -18 0 -45 12 -68 30 -21 17 -42 30 -48 30 -5 0 -30 11 -55 25 -24 14
-51 23 -59 20 -8 -3 -21 1 -28 10 -7 8 -25 15 -40 15 -15 0 -30 6 -33 14 -7
17 -174 99 -187 91 -4 -3 -10 0 -12 6 -2 6 -16 13 -31 14 -28 3 -55 20 -70 43
-4 6 -16 12 -26 12 -10 0 -28 11 -41 25 -13 14 -28 25 -34 25 -15 0 -106 92
-106 106 0 7 -6 14 -12 17 -9 3 -7 9 7 20 22 17 42 2 25 -18z m430 -81 c0 -11
-5 -14 -16 -10 -14 5 -16 1 -11 -24 8 -39 -8 -39 -21 0 -9 24 -8 31 6 40 25
14 42 12 42 -6z m730 -84 c0 -5 -4 -10 -9 -10 -6 0 -13 5 -16 10 -3 6 1 10 9
10 9 0 16 -4 16 -10z m-142 -93 c6 -7 12 -37 14 -67 3 -54 4 -55 36 -58 43 -4
41 -22 -3 -22 -43 0 -55 20 -55 89 0 28 -4 51 -10 51 -5 0 -10 5 -10 10 0 14
16 12 28 -3z m-821 -92 c24 -46 39 -86 35 -89 -5 -3 -27 33 -50 80 -45 90 -46
94 -34 94 4 0 26 -38 49 -85z m693 76 c0 -5 -46 -19 -101 -32 l-102 -23 69
-32 c38 -18 83 -38 99 -45 17 -7 33 -15 36 -17 4 -1 9 6 12 18 3 12 13 20 25
20 29 0 53 -11 47 -21 -3 -4 4 -27 15 -49 15 -30 26 -40 37 -36 11 4 14 2 9
-9 -3 -8 -2 -15 2 -15 5 0 17 -8 28 -18 10 -9 30 -23 44 -29 l25 -12 -27 0
c-25 -1 -42 10 -108 73 -14 13 -36 27 -49 31 -13 4 -40 17 -59 28 -46 27 -132
57 -132 45 0 -16 -18 -8 -23 11 -3 12 -20 24 -46 32 -36 11 -52 32 -25 35 5 0
16 4 24 7 23 10 163 45 183 46 9 1 17 -3 17 -8z m-1600 -28 c17 -12 25 -13 28
-5 6 20 32 13 32 -8 0 -14 12 -26 38 -38 20 -9 43 -25 50 -34 18 -25 47 -22
60 5 l11 22 0 -22 c1 -16 9 -25 26 -29 14 -4 29 -4 32 0 10 9 -19 56 -34 56
-7 0 -13 5 -13 10 0 6 9 10 20 10 21 0 40 -27 40 -59 0 -17 6 -21 34 -21 19 0
41 -3 50 -6 11 -4 16 -1 16 10 0 9 5 16 10 16 6 0 10 9 10 19 0 11 5 23 10 26
16 10 12 -29 -8 -73 -14 -31 -20 -37 -28 -27 -6 10 -43 16 -122 21 -91 6 -115
10 -125 24 -7 10 -50 37 -95 61 -45 23 -82 46 -82 51 0 12 13 10 40 -9z m2500
-63 c0 -5 -5 -10 -11 -10 -5 0 -7 5 -4 10 3 6 8 10 11 10 2 0 4 -4 4 -10z
m295 -90 c393 -127 465 -152 465 -162 0 -6 -6 -8 -14 -5 -8 3 -81 27 -163 53
-81 26 -153 49 -160 51 -6 2 -13 -4 -16 -14 -4 -16 -5 -16 -6 2 -1 17 -28 29
-166 73 -96 31 -163 57 -159 63 3 6 11 8 17 5 7 -3 98 -32 202 -66z m-4126
-50 c5 -16 14 -30 19 -30 5 0 7 -11 4 -25 -2 -14 -11 -25 -19 -25 -8 0 -11 4
-8 10 3 5 -5 12 -18 16 -18 4 -24 12 -23 30 1 18 5 23 21 19 11 -3 14 -2 8 1
-15 6 -18 34 -4 34 5 0 14 -13 20 -30z m2585 -105 c22 -19 36 -38 33 -41 -4
-4 -13 -1 -21 5 -16 14 -50 1 -74 -28 -11 -13 -13 -13 -9 -1 4 18 -16 40 -36
40 -18 0 -33 33 -18 38 6 2 11 8 11 13 0 5 7 17 16 27 18 22 9 26 98 -53z
m1666 25 c0 -11 -4 -20 -10 -20 -5 0 -10 9 -10 20 0 11 5 20 10 20 6 0 10 -9
10 -20z m-1488 -40 c-23 -21 -42 -26 -42 -10 0 10 52 41 59 34 3 -2 -5 -13
-17 -24z m1488 -21 c0 -11 -4 -17 -10 -14 -5 3 -10 13 -10 21 0 8 5 14 10 14
6 0 10 -9 10 -21z m-3696 -53 c-3 -14 -11 -26 -16 -26 -6 0 -7 7 -4 15 3 9 -1
18 -9 21 -8 4 -15 11 -15 16 0 6 7 8 15 4 8 -3 15 0 15 6 0 9 3 9 11 1 5 -5 7
-22 3 -37z m3693 -18 c-3 -7 -5 -2 -5 12 0 14 2 19 5 13 2 -7 2 -19 0 -25z
m13 -48 c0 -11 -4 -20 -10 -20 -5 0 -10 9 -10 20 0 11 5 20 10 20 6 0 10 -9
10 -20z m0 -61 c0 -11 -4 -17 -10 -14 -5 3 -10 13 -10 21 0 8 5 14 10 14 6 0
10 -9 10 -21z m-3795 -25 c20 -15 20 -15 -2 -11 -13 3 -23 1 -23 -4 0 -5 12
-9 28 -9 15 0 34 -5 42 -10 17 -11 10 -13 -42 -10 -29 1 -38 -2 -38 -14 0 -9
-4 -16 -10 -16 -5 0 -10 -9 -10 -20 0 -11 -4 -20 -10 -20 -16 0 -12 57 5 64
10 3 15 19 15 46 0 32 3 38 13 30 6 -6 21 -18 32 -26z m3792 -36 c-3 -7 -5 -2
-5 12 0 14 2 19 5 13 2 -7 2 -19 0 -25z m11 -72 c2 -20 -2 -36 -8 -36 -5 0
-10 18 -10 41 0 49 15 45 18 -5z m-2468 -34 c0 -4 -13 -15 -29 -25 -16 -9 -44
-35 -61 -57 -17 -22 -38 -40 -45 -40 -8 0 -21 -7 -29 -16 -15 -14 -16 -14 -16
4 0 13 9 21 29 25 17 4 36 18 48 37 27 42 103 96 103 72z m2470 -42 c0 -11 -4
-20 -10 -20 -5 0 -10 9 -10 20 0 11 5 20 10 20 6 0 10 -9 10 -20z m0 -62 c0
-19 -2 -20 -10 -8 -13 19 -13 30 0 30 6 0 10 -10 10 -22z m-2676 -52 c19 7 21
-7 4 -24 -9 -9 -7 -12 12 -12 14 0 32 -5 40 -10 10 -7 -4 -9 -48 -8 -63 2 -86
11 -57 22 12 4 13 10 5 25 -15 30 -12 36 9 17 10 -9 25 -14 35 -10z m2678 -18
c-9 -9 -12 -7 -12 12 0 19 3 21 12 12 9 -9 9 -15 0 -24z m-2817 -18 c4 -6 -5
-10 -20 -10 -15 0 -24 4 -20 10 3 6 12 10 20 10 8 0 17 -4 20 -10z m58 -7 c-7
-2 -21 -2 -30 0 -10 3 -4 5 12 5 17 0 24 -2 18 -5z m197 -18 c14 -16 10 -18
-14 -9 -9 3 -16 10 -16 15 0 14 16 11 30 -6z m2570 -5 c0 -11 -4 -20 -10 -20
-5 0 -10 9 -10 20 0 11 5 20 10 20 6 0 10 -9 10 -20z m-2730 -20 c0 -5 -11
-10 -25 -10 -14 0 -25 5 -25 10 0 6 11 10 25 10 14 0 25 -4 25 -10z m60 0 c0
-5 -9 -10 -20 -10 -11 0 -20 5 -20 10 0 6 9 10 20 10 11 0 20 -4 20 -10z m53
-7 c-7 -2 -19 -2 -25 0 -7 3 -2 5 12 5 14 0 19 -2 13 -5z m57 -1 c0 -5 -7 -17
-15 -28 -14 -18 -14 -18 -15 9 0 17 5 27 15 27 8 0 15 -4 15 -8z m2560 -33 c0
-11 -4 -17 -10 -14 -5 3 -10 13 -10 21 0 8 5 14 10 14 6 0 10 -9 10 -21z m-3
-66 c-3 -10 -5 -4 -5 12 0 17 2 24 5 18 2 -7 2 -21 0 -30z m13 -63 c0 -16 -4
-30 -10 -30 -5 0 -10 14 -10 30 0 17 5 30 10 30 6 0 10 -13 10 -30z m-1 -77
c0 -25 -1 -25 -8 -8 -5 11 -7 23 -4 28 8 14 13 7 12 -20z m11 -59 c0 -8 -4
-14 -10 -14 -5 0 -10 9 -10 21 0 11 5 17 10 14 6 -3 10 -13 10 -21z m0 -54 c0
-11 -4 -20 -10 -20 -5 0 -10 9 -10 20 0 11 5 20 10 20 6 0 10 -9 10 -20z m0
-62 c0 -18 -2 -20 -9 -8 -6 8 -7 18 -5 22 9 14 14 9 14 -14z m10 -64 c0 -8 -4
-14 -10 -14 -5 0 -10 9 -10 21 0 11 5 17 10 14 6 -3 10 -13 10 -21z m0 -60 c0
-8 -4 -14 -10 -14 -5 0 -10 9 -10 21 0 11 5 17 10 14 6 -3 10 -13 10 -21z
m-10 -54 c0 -11 -4 -20 -9 -20 -5 0 -7 9 -4 20 3 11 7 20 9 20 2 0 4 -9 4 -20z
m0 -60 c0 -11 -4 -20 -10 -20 -5 0 -10 9 -10 20 0 11 5 20 10 20 6 0 10 -9 10
-20z m0 -60 c0 -11 -4 -20 -10 -20 -5 0 -10 9 -10 20 0 11 5 20 10 20 6 0 10
-9 10 -20z m-13 -72 c-3 -7 -5 -2 -5 12 0 14 2 19 5 13 2 -7 2 -19 0 -25z m-1
-65 c-11 -11 -19 6 -11 24 8 17 8 17 12 0 3 -10 2 -21 -1 -24z m4 -43 c0 -11
-4 -20 -10 -20 -5 0 -10 9 -10 20 0 11 5 20 10 20 6 0 10 -9 10 -20z m-13 -72
c-3 -7 -5 -2 -5 12 0 14 2 19 5 13 2 -7 2 -19 0 -25z"/>
<path d="M2666 6405 c-11 -8 -15 -15 -10 -15 6 0 19 7 30 15 10 8 15 14 9 14
-5 0 -19 -6 -29 -14z"/>
<path d="M2690 6376 c0 -8 5 -18 10 -21 6 -3 10 3 10 14 0 12 -4 21 -10 21 -5
0 -10 -6 -10 -14z"/>
<path d="M5900 6440 c0 -5 7 -10 15 -10 8 0 15 5 15 10 0 6 -7 10 -15 10 -8 0
-15 -4 -15 -10z"/>
<path d="M5580 6390 c0 -5 4 -10 9 -10 6 0 13 5 16 10 3 6 -1 10 -9 10 -9 0
-16 -4 -16 -10z"/>
<path d="M6978 5193 c-21 -2 -38 -9 -38 -15 0 -6 13 -8 33 -5 36 5 77 -10 58
-23 -8 -4 -10 -17 -5 -33 7 -30 21 -35 31 -11 8 22 -15 94 -30 92 -7 -1 -29
-3 -49 -5z"/>
<path d="M6367 5083 c3 -27 10 -56 15 -66 6 -12 6 -23 -2 -32 -8 -9 -8 -15 0
-20 18 -11 22 23 10 95 -13 78 -33 97 -23 23z"/>
<path d="M7020 5065 c0 -23 36 -59 45 -45 4 6 1 17 -5 25 -10 11 -10 15 -1 15
7 0 9 5 6 10 -10 16 -45 12 -45 -5z"/>
<path d="M6874 4969 c9 -73 13 -86 33 -93 13 -5 14 3 8 61 -8 81 -13 93 -32
93 -13 0 -14 -10 -9 -61z"/>
<path d="M3490 5163 c-8 -3 -34 -14 -57 -24 -23 -11 -46 -19 -50 -19 -4 0 -18
-9 -31 -18 l-24 -18 32 -72 32 -71 93 46 92 46 -31 68 c-17 38 -33 69 -36 68
-3 0 -12 -3 -20 -6z"/>
<path d="M3543 5158 c38 -92 51 -117 58 -112 9 5 -46 124 -57 124 -3 0 -4 -6
-1 -12z"/>
<path d="M2620 4875 c-30 -13 -61 -24 -68 -25 -7 0 -29 -7 -50 -15 -30 -13
-34 -18 -22 -26 11 -8 8 -9 -12 -5 -30 7 -103 -22 -177 -68 l-43 -28 21 -22
c12 -12 21 -28 21 -34 0 -21 20 -15 205 68 22 9 65 28 95 40 30 13 74 31 98
41 l43 19 -21 40 c-11 22 -24 40 -28 40 -4 -1 -32 -12 -62 -25z m-100 -112 c0
-13 -3 -13 -15 -3 -8 7 -12 16 -9 21 8 13 24 1 24 -18z"/>
<path d="M2720 4896 c0 -15 24 -66 31 -66 12 0 11 6 -6 40 -13 26 -25 38 -25
26z"/>
<path d="M2203 4672 c-17 -12 -20 -21 -13 -32 13 -20 13 -43 0 -35 -5 3 -10
15 -10 26 0 27 -10 24 -85 -26 -37 -25 -71 -42 -76 -39 -5 3 -9 -6 -9 -20 0
-37 12 -38 71 -7 30 16 80 39 112 52 60 24 63 28 44 71 -12 26 -13 27 -34 10z"/>
<path d="M2250 4673 c0 -4 5 -15 10 -23 8 -13 10 -13 10 2 0 9 -4 20 -10 23
-5 3 -10 3 -10 -2z"/>
<path d="M6033 5253 c-18 -2 -33 -6 -33 -8 0 -2 9 -24 20 -49 19 -45 21 -46
63 -46 54 0 67 13 67 67 l0 43 -42 -2 c-24 0 -58 -3 -75 -5z"/>
<path d="M4450 4690 c11 -20 30 -28 30 -12 0 11 -22 32 -32 32 -5 0 -4 -9 2
-20z"/>
<path d="M4406 4684 c-11 -28 -7 -35 14 -24 11 6 17 16 14 25 -8 20 -20 19
-28 -1z"/>
<path d="M4463 4653 c-27 -5 -26 -4 -11 -38 12 -28 20 -30 48 -15 17 9 18 14
8 35 -6 14 -14 24 -17 24 -3 -1 -16 -4 -28 -6z"/>
<path d="M4410 4636 c0 -15 24 -66 31 -66 12 0 11 6 -6 40 -13 26 -25 38 -25
26z"/>
<path d="M4498 4579 c-14 -8 -15 -14 -6 -34 6 -14 15 -25 19 -25 13 0 27 32
22 51 -6 21 -11 23 -35 8z"/>
<path d="M4450 4551 c0 -5 7 -14 15 -21 16 -14 18 -10 9 14 -6 17 -24 22 -24
7z"/>
<path d="M6580 4375 c0 -8 5 -15 12 -15 9 0 9 -3 0 -12 -9 -9 -15 -8 -28 8
-15 18 -15 18 -9 -8 6 -29 -9 -39 -19 -13 -3 8 -12 15 -21 15 -13 0 -14 -4 -5
-20 6 -11 17 -20 25 -20 8 0 15 -4 15 -10 0 -5 -7 -10 -15 -10 -8 0 -15 -4
-15 -10 0 -5 3 -10 8 -10 11 0 55 30 70 48 17 22 16 72 -3 72 -8 0 -15 -7 -15
-15z"/>
<path d="M6480 4281 c0 -6 5 -13 10 -16 6 -3 10 1 10 9 0 9 -4 16 -10 16 -5 0
-10 -4 -10 -9z"/>
<path d="M3420 4020 c-9 -6 -10 -10 -3 -10 6 0 15 5 18 10 8 12 4 12 -15 0z"/>
<path d="M3360 3999 c0 -14 36 -79 44 -79 2 0 2 10 -2 23 -7 28 -42 75 -42 56z"/>
<path d="M3423 3994 c-17 -7 -4 -34 13 -27 8 3 14 11 14 19 0 14 -6 16 -27 8z"/>
<path d="M4040 3900 c0 -5 5 -10 10 -10 6 0 10 5 10 10 0 6 -4 10 -10 10 -5 0
-10 -4 -10 -10z"/>
<path d="M4033 3860 c1 -17 8 -20 44 -20 24 0 43 4 43 10 0 14 -35 30 -64 30
-19 0 -24 -5 -23 -20z"/>
<path d="M3947 3643 c-10 -9 -8 -45 2 -62 8 -12 12 -12 25 -2 14 12 14 16 0
42 -16 31 -17 32 -27 22z"/>
<path d="M2071 3380 c-7 -25 -18 -63 -26 -85 -8 -23 -15 -44 -15 -47 0 -19
217 -95 231 -81 11 11 2 43 -12 43 -4 0 -6 -7 -3 -15 7 -17 -7 -20 -21 -6 -6
5 -21 11 -35 13 -16 2 -26 11 -30 28 -3 14 -11 25 -18 25 -13 0 -32 23 -32 38
0 5 9 5 20 2 17 -6 20 -2 20 29 0 26 -5 36 -20 41 -11 4 -26 18 -34 33 l-14
27 -11 -45z"/>
<path d="M2164 3328 c-4 -14 -1 -25 8 -32 19 -15 29 -44 18 -51 -6 -4 -10 -11
-10 -18 0 -6 6 -2 14 8 12 16 16 17 29 6 21 -17 37 -6 37 24 0 13 5 27 10 30
24 15 7 34 -40 44 -28 6 -53 11 -55 11 -2 0 -7 -10 -11 -22z m51 -18 c3 -5 -1
-10 -9 -10 -8 0 -18 5 -21 10 -3 6 1 10 9 10 8 0 18 -4 21 -10z m22 -35 c-4
-8 -11 -15 -17 -15 -7 0 -7 6 0 21 13 23 26 19 17 -6z"/>
<path d="M2280 3270 c0 -5 5 -10 10 -10 6 0 10 5 10 10 0 6 -4 10 -10 10 -5 0
-10 -4 -10 -10z"/>
<path d="M4655 2863 c-5 -22 -2 -32 16 -46 19 -15 21 -20 8 -28 -12 -8 -11
-12 5 -24 31 -24 36 -18 21 25 -8 22 -11 40 -8 40 4 0 2 5 -5 12 -7 7 -12 20
-12 30 0 28 -17 21 -25 -9z"/>
<path d="M4590 2849 c0 -6 9 -13 20 -16 15 -4 20 -14 20 -39 0 -22 5 -34 14
-34 16 0 13 44 -5 66 -19 23 -49 37 -49 23z"/>
<path d="M4560 2690 c35 -30 55 -34 100 -21 22 7 20 9 -20 15 -25 5 -61 14
-80 22 l-35 14 35 -30z"/>
<path d="M2930 2498 c0 -2 6 -23 14 -48 12 -38 17 -45 37 -42 33 4 34 7 14 52
-14 30 -24 40 -42 40 -12 0 -23 -1 -23 -2z"/>
<path d="M2840 2905 c0 -8 7 -15 15 -15 9 0 12 6 9 15 -4 8 -10 15 -15 15 -5
0 -9 -7 -9 -15z"/>
<path d="M4310 1849 c-16 -29 -6 -48 35 -65 19 -8 35 -19 35 -24 0 -25 41 -50
81 -50 34 0 47 6 77 36 l36 36 -32 29 c-23 21 -43 29 -70 29 -20 1 -48 7 -62
15 -38 22 -87 19 -100 -6z"/>
<path d="M2032 1988 c-19 -19 -15 -25 35 -42 60 -21 70 -20 76 3 4 16 -4 23
-41 35 -55 19 -55 19 -70 4z"/>
<path d="M3978 1843 c7 -3 16 -2 19 1 4 3 -2 6 -13 5 -11 0 -14 -3 -6 -6z"/>
<path d="M3976 1815 c10 -8 26 -14 34 -14 9 0 4 6 -10 14 -33 19 -49 19 -24 0z"/>
<path d="M988 1718 c5 -5 16 -8 23 -6 8 3 3 7 -10 11 -17 4 -21 3 -13 -5z"/>
<path d="M3500 1654 c0 -14 4 -23 10 -19 6 3 10 15 10 26 0 10 -4 19 -10 19
-5 0 -10 -12 -10 -26z"/>
<path d="M3537 1640 c-4 -16 -1 -20 11 -18 19 4 23 29 6 35 -6 2 -14 -6 -17
-17z"/>
<path d="M4543 7794 l-31 -45 21 -50 c12 -27 24 -49 29 -49 4 0 33 12 65 26
32 15 72 30 88 34 27 6 28 8 10 15 -11 5 -42 27 -70 50 -86 70 -77 69 -112 19z"/>
<path d="M4035 7346 c-11 -7 -112 -62 -225 -121 -113 -60 -207 -110 -210 -112
-2 -2 2 -9 10 -14 11 -8 12 -12 3 -16 -7 -2 -13 -11 -13 -19 0 -22 -26 -17
-44 9 l-17 22 6 -22 c6 -24 -10 -33 -17 -11 -5 15 -70 -14 -370 -164 -173 -86
-224 -118 -188 -118 6 0 10 -5 10 -11 0 -6 -7 -8 -16 -5 -10 4 -23 -3 -34 -16
l-17 -22 -7 22 -7 22 -42 -21 c-23 -12 -43 -23 -45 -24 -5 -4 21 -55 28 -55
32 0 1203 582 1258 626 6 4 -28 64 -36 64 -4 0 -16 -6 -27 -14z"/>
<path d="M1878 6909 c-16 -9 -14 -15 16 -77 88 -175 107 -238 81 -274 -28 -41
-38 -12 209 -598 58 -138 68 -155 88 -152 12 1 23 4 25 6 2 1 -49 125 -112
275 -63 149 -115 276 -115 281 0 36 28 -23 130 -265 63 -151 120 -275 125
-275 6 0 16 4 24 9 12 8 6 29 -33 123 -26 62 -77 183 -113 268 -160 383 -198
472 -245 578 -28 61 -53 112 -57 112 -3 0 -14 -5 -23 -11z"/>
<path d="M2748 6696 l-27 -12 22 -28 c20 -25 25 -27 49 -15 26 11 27 13 12 40
-16 32 -18 32 -56 15z"/>
<path d="M4426 6333 c-4 -11 2 -26 17 -41 32 -32 40 -15 12 25 -19 27 -24 30
-29 16z"/>
<path d="M3790 6064 c-91 -53 -172 -102 -180 -109 -8 -7 -45 -31 -82 -52 -64
-37 -67 -40 -53 -59 8 -10 15 -26 15 -34 0 -8 11 -20 23 -26 21 -9 39 -2 143
59 264 155 354 209 354 214 0 12 -43 103 -49 102 -3 0 -80 -43 -171 -95z"/>
<path d="M4991 6142 c-7 -2 -25 -17 -40 -33 -19 -21 -41 -32 -80 -39 -68 -13
-96 -38 -118 -107 -9 -29 -27 -63 -40 -75 -30 -28 -412 -160 -468 -162 -34 -1
-42 -6 -55 -31 -8 -16 -29 -36 -45 -43 -62 -27 -79 -38 -107 -73 -42 -53 -31
-73 37 -64 29 3 114 8 189 10 134 4 139 5 204 38 37 19 96 43 132 52 36 10
101 35 145 56 44 21 113 47 153 59 79 23 95 36 31 26 -32 -5 -46 -2 -70 14
-16 12 -33 18 -39 15 -16 -10 -150 -22 -150 -14 0 4 10 11 22 15 12 3 30 16
39 28 15 18 26 21 86 18 37 -2 85 -4 105 -5 27 -1 40 -6 44 -19 5 -17 16 -22
42 -19 20 3 14 -17 -9 -24 -42 -14 -10 -14 93 0 119 15 163 35 154 69 -2 12
-8 39 -12 61 -6 38 -53 114 -99 161 -11 12 -28 33 -37 46 -17 25 -80 49 -107
40z m-645 -512 c11 0 29 -7 40 -15 17 -13 15 -14 -31 -9 -27 4 -57 13 -65 22
-13 13 -12 14 10 8 14 -3 34 -6 46 -6z"/>
<path d="M4095 6080 c-14 -22 -23 -70 -15 -75 5 -3 14 1 22 8 7 7 21 18 30 23
16 9 17 12 2 32 -17 24 -29 28 -39 12z"/>
<path d="M5349 5984 c-20 -39 -34 -54 -67 -71 -2 -1 -1 -11 3 -22 10 -33 33
-24 53 22 11 23 29 51 41 61 11 11 21 27 21 38 0 33 -27 19 -51 -28z"/>
<path d="M3256 5934 c-9 -8 -13 -21 -9 -27 4 -7 8 -6 11 3 2 8 11 21 20 28 9
6 11 12 5 12 -7 0 -19 -7 -27 -16z"/>
<path d="M3320 5940 c0 -5 -7 -10 -15 -10 -9 0 -20 -11 -25 -25 -13 -35 23
-99 49 -85 13 6 17 19 15 44 -2 20 1 36 6 36 6 0 10 -5 10 -12 0 -6 3 -8 6 -5
11 10 -17 67 -32 67 -8 0 -14 -4 -14 -10z"/>
<path d="M3437 5943 c-3 -5 -1 -18 4 -31 7 -19 12 -21 29 -12 16 9 18 15 10
30 -11 20 -35 27 -43 13z"/>
<path d="M3380 5921 c0 -14 5 -18 20 -14 16 4 18 8 9 19 -16 20 -29 17 -29 -5z"/>
<path d="M5252 5915 c0 -11 4 -31 8 -45 l8 -25 0 25 c0 14 -3 34 -8 45 l-9 20
1 -20z"/>
<path d="M3173 5890 l-33 -20 16 -34 c16 -33 17 -33 43 -18 20 11 26 23 28 53
1 45 -8 48 -54 19z"/>
<path d="M3236 5864 c-8 -21 -4 -25 14 -14 11 7 12 12 4 20 -8 8 -13 7 -18 -6z"/>
<path d="M3360 5850 c0 -5 5 -10 11 -10 5 0 7 5 4 10 -3 6 -8 10 -11 10 -2 0
-4 -4 -4 -10z"/>
<path d="M3025 5840 c-3 -5 -1 -10 4 -10 6 0 11 5 11 10 0 6 -2 10 -4 10 -3 0
-8 -4 -11 -10z"/>
<path d="M3408 5832 c-19 -11 -26 -22 -22 -34 6 -20 -6 -24 -22 -8 -8 8 -33
-2 -82 -30 l-72 -41 25 -50 c14 -27 28 -49 31 -49 3 0 36 18 74 40 49 28 68
45 64 55 -4 8 -1 15 5 15 6 0 11 -5 11 -10 0 -8 52 11 68 25 2 2 -2 21 -9 44
-9 31 -17 41 -33 41 -17 0 -18 2 -6 10 27 17 -4 10 -32 -8z"/>
<path d="M3223 5814 c-37 -22 -41 -29 -33 -45 13 -24 14 -24 61 3 41 23 43 26
33 52 -8 21 -11 20 -61 -10z"/>
<path d="M1980 5826 c0 -2 33 -82 73 -177 41 -96 77 -182 80 -192 6 -16 21
-17 199 -11 106 4 195 8 196 10 2 1 -5 22 -16 46 -17 39 -30 49 -148 114 -338
187 -384 213 -384 210z"/>
<path d="M1898 5797 l-47 -22 55 -130 c31 -71 59 -133 63 -138 11 -11 113 22
108 36 -4 13 -51 11 -79 -4 -10 -6 -19 -5 -23 1 -6 10 34 30 60 30 8 0 16 4
19 8 6 10 -89 236 -101 238 -4 1 -29 -7 -55 -19z"/>
<path d="M2350 5813 c0 -5 4 -14 9 -22 11 -17 32 -5 24 14 -5 15 -33 21 -33 8z"/>
<path d="M4751 5806 c-12 -14 -11 -16 5 -16 11 0 34 4 51 9 26 8 37 6 57 -10
24 -19 80 -26 90 -11 8 14 -8 28 -34 29 -14 0 -54 4 -90 8 -54 6 -68 5 -79 -9z"/>
<path d="M2312 5784 c4 -21 22 -23 26 -1 2 10 -3 17 -13 17 -10 0 -15 -6 -13
-16z"/>
<path d="M2271 5781 c-9 -6 -10 -14 -5 -24 12 -21 33 -7 25 15 -4 12 -11 14
-20 9z"/>
<path d="M3060 5773 c0 -12 5 -25 11 -28 17 -11 18 -2 4 25 -14 24 -14 24 -15
3z"/>
<path d="M1790 5750 c-26 -11 -44 -24 -42 -32 1 -7 28 -73 58 -145 l56 -133
54 0 54 0 -20 48 c-10 26 -41 99 -67 163 l-48 116 -45 -17z"/>
<path d="M1650 5690 c-36 -15 -121 -51 -190 -80 -68 -29 -137 -62 -152 -73
l-27 -20 20 -38 19 -39 260 0 260 0 -9 23 c-35 86 -103 243 -109 248 -4 4 -36
-6 -72 -21z"/>
<path d="M2035 5498 c-16 -6 -36 -12 -43 -14 -10 -3 -10 -9 -2 -24 9 -17 21
-20 70 -20 l59 0 -14 33 c-15 36 -26 40 -70 25z"/>
<path d="M3257 5464 c-8 -8 1 -24 14 -24 5 0 9 7 9 15 0 15 -12 20 -23 9z"/>
<path d="M3190 5430 c-19 -11 -29 -19 -22 -20 14 0 72 28 72 35 0 9 -15 4 -50
-15z"/>
<path d="M933 5413 c-183 -2 -333 -6 -333 -9 0 -4 13 -30 29 -58 16 -28 50
-91 76 -141 95 -180 178 -331 197 -357 11 -17 29 -28 42 -28 12 0 92 39 176
87 85 47 199 109 252 137 l97 52 -63 119 c-97 184 -110 205 -126 203 -8 -2
-165 -4 -347 -5z m-43 -182 c0 -19 -33 -32 -58 -23 -22 7 -12 20 15 20 15 0
29 5 31 11 6 17 12 13 12 -8z m157 -86 c3 -9 3 -19 -1 -22 -8 -9 -37 18 -30
28 8 14 24 11 31 -6z"/>
<path d="M1835 5400 c-4 -12 -5 -24 -2 -27 3 -2 8 5 12 17 4 12 5 24 2 27 -3
2 -8 -5 -12 -17z"/>
<path d="M1879 5398 c39 -103 62 -140 78 -133 10 4 31 12 46 17 30 11 30 15
-4 96 l-18 42 -55 0 c-53 0 -55 -1 -47 -22z"/>
<path d="M2031 5368 c11 -29 23 -55 25 -57 2 -3 20 3 39 12 41 20 45 20 45 8
0 -5 -18 -16 -39 -25 l-40 -15 32 -78 c17 -43 32 -79 33 -81 2 -3 88 40 113
57 11 7 2 30 -48 120 l-63 111 -59 0 -59 0 21 -52z"/>
<path d="M7982 5215 c-11 -12 -10 -15 3 -15 8 0 15 7 15 15 0 18 -2 18 -18 0z"/>
<path d="M7985 5159 c6 -33 15 -36 15 -6 0 15 -4 27 -9 27 -6 0 -8 -10 -6 -21z"/>
<path d="M7955 5083 c8 -87 10 -93 31 -93 23 0 19 95 -7 136 -11 19 -23 34
-26 34 -3 0 -2 -35 2 -77z"/>
</g>
</svg>
