<?xml version="1.0" standalone="no"?>
<!DOCTYPE svg PUBLIC "-//W3C//DTD SVG 20010904//EN"
 "http://www.w3.org/TR/2001/REC-SVG-20010904/DTD/svg10.dtd">
<svg version="1.0" xmlns="http://www.w3.org/2000/svg"
 width="800.000000pt" height="800.000000pt" viewBox="0 0 800.000000 800.000000"
 preserveAspectRatio="xMidYMid meet">
<metadata>
Created by potrace 1.16, written by Peter Selinger 2001-2019
</metadata>
<g transform="translate(0.000000,800.000000) scale(0.100000,-0.100000)"
fill="#000000" stroke="none">
<path d="M0 5980 c0 -2013 0 -2020 20 -2020 11 0 20 -5 20 -11 0 -6 -9 -9 -20
-6 -20 5 -20 0 -20 -1969 l0 -1974 4000 0 4000 0 0 728 0 728 -35 34 c-19 19
-35 38 -35 44 0 5 10 0 23 -12 22 -21 23 -21 35 -2 9 15 12 661 12 2950 0
1611 -3 2929 -7 2929 -21 -3 -43 2 -43 11 0 5 7 7 15 4 11 -4 13 -2 9 9 -5 14
-39 31 -56 28 -5 -1 -8 5 -8 11 -1 8 -6 5 -15 -6 -7 -10 -19 -15 -25 -11 -8 5
-8 11 1 21 9 11 9 14 0 14 -7 0 -9 5 -6 10 3 6 13 10 21 10 9 0 12 -5 8 -12
-4 -7 -3 -8 5 -4 6 4 18 2 26 -4 8 -7 15 -9 15 -4 0 5 4 5 8 -1 4 -5 17 -19
30 -29 l22 -19 0 91 c0 76 -3 92 -15 92 -8 0 -24 6 -35 12 -15 10 -22 10 -32
0 -9 -9 -8 -12 5 -12 9 0 17 -5 17 -10 0 -6 -5 -9 -11 -8 -13 3 -31 -50 -23
-64 3 -4 12 -8 20 -8 8 0 14 -7 14 -15 0 -16 -26 -10 -48 12 -11 10 -11 20 -3
45 7 20 8 34 2 38 -6 3 -6 20 -1 45 14 57 12 85 -4 85 -8 0 -16 6 -19 14 -4
10 6 16 34 20 40 6 49 22 27 44 -7 7 -8 12 -2 12 18 0 34 -24 34 -52 0 -19 5
-28 16 -28 12 0 15 6 10 26 -5 17 -3 23 4 19 7 -4 10 24 10 84 0 75 -3 92 -17
100 -17 10 -17 10 0 11 9 0 17 4 17 9 0 14 -210 14 -226 0 -9 -7 -14 -8 -14
-1 0 7 -90 11 -274 12 -237 0 -274 -2 -280 -15 -3 -8 -11 -15 -17 -15 -8 0 -8
4 1 15 11 13 6 15 -31 15 -34 0 -47 -5 -57 -21 -7 -12 -16 -18 -19 -15 -3 3 0
12 7 21 11 13 -40 15 -480 15 l-492 0 -125 -55 c-69 -31 -145 -73 -170 -93
-58 -49 -99 -131 -124 -250 -18 -85 -20 -117 -14 -258 l7 -161 -63 -104 c-99
-165 -217 -348 -271 -422 -41 -57 -52 -81 -65 -148 -9 -44 -19 -76 -24 -72 -4
4 -1 41 7 81 12 63 23 86 73 155 52 73 216 330 294 462 l30 50 -6 160 c-5 133
-3 175 13 255 40 195 101 271 280 350 52 23 97 44 99 46 2 2 -1360 4 -3027 4
l-3032 0 0 -2020z m7631 1977 c-8 -8 -11 -7 -11 4 0 9 3 19 7 23 4 4 9 2 11
-4 3 -7 -1 -17 -7 -23z m115 13 c9 0 12 -4 9 -10 -6 -10 -45 -15 -45 -6 0 16
14 38 18 28 2 -7 10 -12 18 -12z m-168 -2 c-2 -6 -10 -14 -16 -16 -7 -2 -10 2
-6 12 7 18 28 22 22 4z m112 -35 c0 -6 -8 -9 -20 -6 -23 6 -24 9 -7 27 13 14
27 4 27 -21z m-529 -6 c-16 -16 -26 0 -10 19 9 11 15 12 17 4 2 -6 -1 -17 -7
-23z m-96 4 c-3 -6 -11 -11 -17 -11 -6 0 -6 6 2 15 14 17 26 13 15 -4z m473
-5 c-13 -10 -15 -15 -6 -24 8 -8 8 -12 1 -12 -6 0 -16 7 -24 16 -10 13 -10 17
2 25 8 5 21 9 29 9 12 -1 12 -3 -2 -14z m-55 -3 c-7 -2 -21 -2 -30 0 -10 3 -4
5 12 5 17 0 24 -2 18 -5z m257 -7 c0 -17 -24 -28 -45 -20 -11 5 -12 9 -2 20
16 17 47 18 47 0z m-323 -13 c-9 -9 -20 -13 -24 -9 -4 4 -1 11 7 16 25 16 35
11 17 -7z m-287 -8 c-7 -8 -17 -15 -22 -15 -6 0 -5 7 2 15 7 8 17 15 22 15 6
0 5 -7 -2 -15z m-100 -10 c-7 -9 -15 -13 -17 -11 -7 7 7 26 19 26 6 0 6 -6 -2
-15z m344 -19 c-6 -16 -24 -23 -24 -8 0 10 22 33 27 28 2 -2 1 -11 -3 -20z
m376 -7 c0 -11 -4 -17 -10 -14 -5 3 -10 13 -10 21 0 8 5 14 10 14 6 0 10 -9
10 -21z m-49 -22 c-8 -8 -11 -7 -11 4 0 9 3 19 7 23 4 4 9 2 11 -4 3 -7 -1
-17 -7 -23z m-706 2 c-7 -22 -57 -71 -64 -63 -2 2 3 12 12 22 10 10 17 22 17
27 0 7 30 34 38 35 2 0 0 -10 -3 -21z m114 8 c8 -11 5 -14 -19 -14 -29 0 -37
7 -23 20 10 11 30 8 42 -6z m-59 -13 c0 -2 -9 -4 -20 -4 -11 0 -20 4 -20 9 0
5 9 7 20 4 11 -3 20 -7 20 -9z m306 -41 c-11 -11 -19 6 -11 24 8 17 8 17 12 0
3 -10 2 -21 -1 -24z m-204 5 c-3 -12 1 -18 13 -18 20 0 15 -22 -6 -28 -8 -3
-11 -1 -7 3 4 4 1 17 -7 29 -19 26 -19 33 -1 33 8 0 11 -8 8 -19z m594 7 c-21
-16 -32 -13 -21 4 3 6 14 11 23 11 15 -1 15 -2 -2 -15z m-43 -9 c6 -14 -19
-44 -28 -34 -7 6 6 48 15 48 4 0 10 -6 13 -14z m-217 -28 c-10 -6 -20 -7 -24
-3 -9 8 20 25 31 18 5 -3 2 -10 -7 -15z m-136 -20 c0 -16 -3 -19 -11 -11 -6 6
-8 16 -5 22 11 17 16 13 16 -11z m190 1 c0 -5 -9 -9 -20 -9 -13 0 -18 5 -14
14 6 15 34 11 34 -5z m-620 -4 c-7 -8 -17 -15 -22 -15 -6 0 -5 7 2 15 7 8 17
15 22 15 6 0 5 -7 -2 -15z m514 1 c-21 -15 -30 -14 -19 3 3 6 14 11 23 11 13
0 13 -2 -4 -14z m161 4 c-3 -5 -13 -10 -21 -10 -8 0 -14 5 -14 10 0 6 9 10 21
10 11 0 17 -4 14 -10z m58 3 c-7 -2 -19 -2 -25 0 -7 3 -2 5 12 5 14 0 19 -2
13 -5z m-393 -13 c0 -5 -9 -10 -21 -10 -11 0 -17 5 -14 10 3 6 13 10 21 10 8
0 14 -4 14 -10z m-90 -32 c0 -19 -2 -20 -10 -8 -13 19 -13 30 0 30 6 0 10 -10
10 -22z m38 -3 c-4 -20 -2 -24 11 -21 18 6 111 -48 111 -64 0 -15 -16 -12 -30
5 -7 8 -24 15 -37 15 -18 0 -23 4 -20 14 3 8 -1 17 -9 20 -8 3 -14 1 -14 -4 0
-5 -6 -7 -13 -4 -16 6 -21 64 -5 64 6 0 8 -11 6 -25z m92 -9 c0 -5 -7 -3 -15
4 -8 7 -12 17 -9 22 7 10 24 -9 24 -26z m190 14 c11 -20 -3 -30 -15 -10 -4 6
-11 8 -16 5 -10 -7 -12 8 -2 18 11 12 22 8 33 -13z m-611 -16 c-15 -18 -22
-13 -13 10 3 9 10 13 16 10 5 -3 4 -12 -3 -20z m504 14 c4 -10 8 -9 16 2 9 13
11 12 11 -4 0 -12 5 -16 16 -12 10 4 14 1 12 -6 -7 -20 -35 -21 -57 -1 -12 9
-21 21 -21 25 0 13 18 9 23 -4z m-533 -47 c0 -5 -7 -14 -15 -21 -16 -14 -18
-10 -9 14 6 17 24 22 24 7z m494 -13 c22 -31 13 -33 -19 -4 -20 19 -24 26 -12
26 9 0 23 -10 31 -22z m152 -5 c-10 -10 -19 5 -10 18 6 11 8 11 12 0 2 -7 1
-15 -2 -18z m-100 2 c-3 -8 -1 -15 4 -15 6 0 10 5 10 10 0 16 40 12 57 -5 19
-20 11 -30 -14 -17 -13 8 -22 7 -35 -5 -17 -15 -20 -14 -38 7 -26 29 -25 40 1
40 15 0 19 -5 15 -15z m-594 -34 c-7 -4 -19 -19 -26 -32 -7 -14 -84 -114 -171
-224 l-159 -200 -8 -65 c-4 -36 -7 -162 -6 -280 0 -118 -2 -217 -6 -220 -4 -3
-9 56 -12 130 -7 158 -7 131 3 300 l8 135 173 217 c116 146 170 221 166 232
-5 12 0 16 22 16 20 0 25 -3 16 -9z m468 -26 c0 -7 -6 -15 -14 -18 -9 -4 -13
2 -13 18 0 16 4 22 13 18 8 -3 14 -11 14 -18z m105 5 c3 -5 -1 -10 -9 -10 -8
0 -18 5 -21 10 -3 6 1 10 9 10 8 0 18 -4 21 -10z m610 -20 c3 -5 -3 -10 -14
-10 -12 0 -21 5 -21 10 0 6 6 10 14 10 8 0 18 -4 21 -10z m-725 -36 c0 -8 -4
-12 -10 -9 -5 3 -10 10 -10 16 0 5 5 9 10 9 6 0 10 -7 10 -16z m-6205 -34 c21
-22 37 -40 34 -40 -3 0 -23 18 -44 40 -21 22 -37 40 -34 40 3 0 23 -18 44 -40z
m6305 14 c0 -8 -4 -12 -10 -9 -5 3 -10 10 -10 16 0 5 5 9 10 9 6 0 10 -7 10
-16z m18 -49 c-1 -36 -18 -50 -18 -16 0 20 10 51 16 51 2 0 3 -16 2 -35z
m-6228 -122 c0 -8 -9 0 -50 45 l-45 47 48 -45 c26 -24 47 -45 47 -47z m1757
55 c-3 -7 -5 -2 -5 12 0 14 2 19 5 13 2 -7 2 -19 0 -25z m-40 -155 c-3 -10 -5
-4 -5 12 0 17 2 24 5 18 2 -7 2 -21 0 -30z m2550 15 c-3 -8 -6 -5 -6 6 -1 11
2 17 5 13 3 -3 4 -12 1 -19z m-1344 -15 c-7 -2 -19 -2 -25 0 -7 3 -2 5 12 5
14 0 19 -2 13 -5z m142 -74 c63 -44 115 -85 115 -91 0 -11 -16 -1 -148 92 -81
57 -105 80 -87 80 3 0 57 -36 120 -81z m-155 31 c0 -11 -4 -20 -10 -20 -5 0
-10 9 -10 20 0 11 5 20 10 20 6 0 10 -9 10 -20z m-2007 -107 c-7 -2 -21 -2
-30 0 -10 3 -4 5 12 5 17 0 24 -2 18 -5z m1400 0 c-13 -2 -33 -2 -45 0 -13 2
-3 4 22 4 25 0 35 -2 23 -4z m1070 -50 c-7 -2 -21 -2 -30 0 -10 3 -4 5 12 5
17 0 24 -2 18 -5z m1346 -123 c144 -98 196 -128 206 -120 7 6 39 44 71 85 33
42 60 71 62 65 2 -5 -33 -53 -78 -107 -44 -54 -135 -165 -201 -248 -65 -82
-127 -159 -137 -170 -10 -11 -42 -48 -71 -82 -76 -88 -85 -79 -11 11 33 40 59
80 57 87 -2 8 -2 11 0 7 3 -5 9 -8 14 -8 6 0 8 4 4 9 -3 5 5 17 17 26 15 12
19 19 11 22 -7 3 -13 9 -13 14 0 6 8 5 20 -1 11 -6 20 -7 19 -3 -3 18 2 33 10
31 5 -2 32 26 60 62 28 36 55 70 61 77 7 8 5 15 -7 22 -10 5 -15 13 -11 17 4
4 14 2 21 -4 10 -9 21 -4 48 24 l34 35 -25 19 c-14 11 -103 72 -197 136 -95
64 -173 118 -173 120 0 13 35 -8 209 -126z m-1439 29 c0 -5 -9 -4 -19 3 -11 7
-17 16 -14 20 5 10 33 -10 33 -23z m56 -36 c-8 -8 -36 5 -36 17 0 7 6 7 21 0
11 -7 18 -14 15 -17z m1309 -73 c-10 -11 -20 -18 -23 -15 -7 6 18 35 31 35 5
0 2 -9 -8 -20z m35 -42 c0 -13 -23 -5 -28 10 -2 7 2 10 12 6 9 -3 16 -11 16
-16z m420 7 c0 -8 -7 -15 -15 -15 -26 0 -18 20 13 29 1 1 2 -6 2 -14z m-374
-42 c-7 -7 -26 7 -26 19 0 6 6 6 15 -2 9 -7 13 -15 11 -17z m327 20 c-7 -2
-13 -12 -13 -20 0 -10 -6 -13 -16 -9 -9 3 -18 6 -20 6 -2 0 -4 5 -4 11 0 5 4
8 9 4 5 -3 12 -1 16 5 3 5 14 10 23 9 11 0 12 -3 5 -6z m-703 -23 c0 -4 -9 -6
-21 -3 -15 4 -17 8 -8 14 14 8 29 3 29 -11z m770 0 c8 -5 13 -10 10 -11 -42
-8 -60 -8 -66 2 -4 8 0 9 16 4 15 -5 20 -4 16 4 -9 14 4 14 24 1z m-711 -9 c9
-6 11 -18 7 -35 -9 -35 -25 -25 -18 11 4 23 2 26 -9 16 -18 -18 -34 -16 -19 2
14 17 20 18 39 6z m366 -12 c11 -17 -1 -21 -15 -4 -8 9 -8 15 -2 15 6 0 14 -5
17 -11z m408 -16 c-7 -17 -18 -16 -32 1 -10 11 -7 14 12 12 15 0 23 -6 20 -13z
m-45 -21 c6 -18 -15 -14 -22 4 -4 10 -1 14 6 12 6 -2 14 -10 16 -16z m-831
-58 c-9 -10 -27 15 -21 31 7 17 8 16 16 -5 5 -13 7 -24 5 -26z m133 14 c0 -5
-7 -8 -15 -8 -17 0 -18 2 -9 25 5 13 8 14 15 3 5 -7 9 -16 9 -20z m740 22 c0
-5 -8 -10 -17 -10 -15 0 -16 2 -3 10 19 12 20 12 20 0z m-695 -10 c3 -5 -1
-10 -9 -10 -8 0 -18 5 -21 10 -3 6 1 10 9 10 8 0 18 -4 21 -10z m80 -36 c8 3
17 0 21 -6 5 -7 -2 -9 -20 -6 -29 6 -28 6 -20 -16 5 -13 9 -14 20 -5 15 13 17
9 8 -15 -9 -23 -20 -20 -53 12 -28 27 -32 56 -6 46 8 -3 17 4 21 18 8 22 9 22
12 -5 2 -20 8 -27 17 -23z m-215 -9 c14 -16 10 -18 -14 -9 -9 3 -16 10 -16 15
0 14 16 11 30 -6z m293 -18 c4 3 7 2 7 -4 0 -17 -27 -23 -39 -9 -14 16 -2 29
14 16 7 -5 15 -7 18 -3z m-2253 -27 c22 -11 40 -25 40 -30 0 -5 12 -11 28 -13
25 -4 25 -4 -5 -6 -18 0 -33 3 -33 7 0 5 -18 17 -40 27 -42 19 -60 35 -40 35
6 0 29 -9 50 -20z m208 -21 c11 14 12 13 7 -6 -7 -26 28 -42 50 -23 13 11 15
6 15 -28 0 -22 3 -49 7 -59 6 -16 5 -16 -10 -4 -9 7 -17 22 -17 32 0 12 -15
26 -39 39 -40 20 -40 20 -46 0 -4 -11 -11 -20 -16 -20 -6 0 -5 8 1 21 7 11 10
22 8 23 -14 12 -72 24 -86 19 -15 -6 -15 -4 -4 9 12 15 18 15 66 -2 48 -16 53
-16 64 -1z m2072 6 c7 -8 8 -15 2 -15 -5 0 -15 7 -22 15 -7 8 -8 15 -2 15 5 0
15 -7 22 -15z m616 -32 c-11 -11 -17 4 -9 23 7 18 8 18 11 1 2 -10 1 -21 -2
-24z m-664 19 c11 -4 14 -12 9 -20 -6 -9 -12 -8 -26 8 -18 20 -13 24 17 12z
m-2865 -49 c-3 -10 -5 -2 -5 17 0 19 2 27 5 18 2 -10 2 -26 0 -35z m3621 30
c-10 -2 -28 -2 -40 0 -13 2 -5 4 17 4 22 1 32 -1 23 -4z m-105 -43 c-3 -11 -7
-20 -9 -20 -2 0 -4 9 -4 20 0 11 4 20 9 20 5 0 7 -9 4 -20z m-685 -18 c2 -7
-2 -10 -12 -6 -9 3 -16 11 -16 16 0 13 23 5 28 -10z m692 -42 c0 -11 -4 -20
-10 -20 -5 0 -10 9 -10 20 0 11 5 20 10 20 6 0 10 -9 10 -20z m3 -55 c4 -8 2
-17 -3 -20 -6 -4 -10 3 -10 14 0 25 6 27 13 6z m-1210 -15 c3 -11 1 -20 -4
-20 -5 0 -9 2 -9 4 0 2 -3 11 -6 20 -3 9 -2 16 4 16 5 0 12 -9 15 -20z m37
-50 c0 -11 -4 -20 -10 -20 -5 0 -10 9 -10 20 0 11 5 20 10 20 6 0 10 -9 10
-20z m1184 4 c8 -21 8 -24 -3 -24 -5 0 -11 9 -14 20 -6 24 8 27 17 4z m-2185
-45 c-20 -12 -22 -4 -8 23 12 21 13 21 17 4 2 -10 -2 -22 -9 -27z m457 7 c-4
-15 0 -28 9 -36 8 -7 15 -9 15 -5 0 4 7 2 15 -5 8 -7 22 -9 31 -6 12 4 15 2
10 -9 -6 -18 48 -49 70 -41 9 3 12 1 9 -4 -3 -6 2 -10 13 -10 10 0 54 -10 98
-21 43 -12 86 -22 94 -23 8 0 17 -3 20 -6 14 -14 62 -29 77 -23 9 4 14 2 10
-4 -3 -5 31 -27 76 -49 44 -21 89 -47 99 -57 18 -17 44 -15 33 4 -4 5 1 9 10
9 9 0 15 6 14 13 -1 6 -1 21 1 32 1 19 2 19 9 1 6 -15 19 -4 76 67 38 47 73
83 77 81 4 -3 -23 -42 -61 -87 -43 -51 -66 -86 -60 -92 14 -14 11 -29 -5 -16
-10 9 -19 4 -40 -21 -27 -33 -35 -54 -14 -42 6 4 8 3 4 -4 -3 -6 -2 -13 3 -16
5 -4 19 -35 31 -70 11 -35 27 -67 35 -70 7 -2 11 -13 9 -23 -7 -25 37 -48 56
-30 10 10 11 6 6 -15 -6 -24 -2 -30 34 -48 26 -13 40 -27 40 -40 0 -11 -4 -20
-10 -20 -5 0 -10 8 -10 19 0 26 -55 49 -81 33 -26 -17 -34 -15 -18 4 11 14 10
19 -12 38 -31 27 -90 134 -78 142 5 3 9 0 9 -7 0 -7 2 -10 5 -7 7 7 -15 71
-32 88 -12 13 -19 10 -54 -30 -23 -25 -49 -56 -58 -70 -9 -14 -26 -36 -37 -50
-21 -24 -128 -153 -177 -212 -12 -15 -33 -40 -47 -55 -14 -16 -38 -47 -55 -68
-16 -22 -67 -86 -112 -143 -46 -57 -83 -107 -83 -112 0 -6 -4 -10 -10 -10 -19
0 -10 27 21 61 29 33 162 201 206 262 12 17 26 33 30 36 5 3 37 42 73 86 35
44 77 94 93 112 16 17 26 36 22 42 -3 6 3 15 13 19 23 8 120 125 133 160 5 13
7 28 3 33 -11 18 -207 110 -298 141 -50 16 -117 32 -149 34 -32 2 -63 6 -68
10 -14 9 1 -48 18 -68 8 -9 21 -14 28 -12 7 3 15 -2 18 -10 10 -25 -28 -20
-54 8 -12 13 -24 32 -25 43 -6 38 -25 78 -32 66 -4 -7 -25 7 -56 37 -43 42
-47 49 -37 68 16 29 25 28 17 -2z m574 -12 c0 -14 -3 -15 -17 -3 -10 7 -20 15
-22 16 -2 2 5 3 17 3 14 0 22 -6 22 -16z m1174 -9 c3 -8 1 -15 -3 -15 -5 0
-11 7 -15 15 -3 8 -1 15 3 15 5 0 11 -7 15 -15z m-2774 -5 c8 13 10 13 10 -2
0 -9 -5 -29 -11 -45 -8 -22 -12 -24 -19 -13 -6 8 -10 29 -10 45 0 23 3 27 10
15 9 -13 11 -13 20 0z m1620 -25 c10 -12 10 -15 -4 -15 -9 0 -16 7 -16 15 0 8
2 15 4 15 2 0 9 -7 16 -15z m56 -44 c2 -2 10 2 19 9 9 8 15 8 15 2 0 -6 -4
-13 -9 -17 -6 -3 -8 -19 -6 -36 2 -19 0 -29 -7 -27 -6 2 -12 14 -13 26 -1 12
-9 30 -18 40 -9 10 -17 29 -17 43 1 23 1 23 17 -6 8 -16 17 -32 19 -34z m1114
23 c0 -8 -4 -12 -10 -9 -5 3 -10 10 -10 16 0 5 5 9 10 9 6 0 10 -7 10 -16z
m20 -56 c0 -5 -4 -8 -10 -8 -5 0 -10 10 -10 23 0 18 2 19 10 7 5 -8 10 -18 10
-22z m-3369 -24 l-3 -34 130 0 130 0 4 -62 c4 -75 -1 -118 -13 -118 -5 0 -9
36 -9 81 l0 80 -192 -1 c-232 -1 -223 -2 -214 7 3 4 29 6 56 4 73 -4 87 4 95
50 8 48 21 43 16 -7z m1669 0 c0 -8 -4 -14 -10 -14 -5 0 -10 9 -10 21 0 11 5
17 10 14 6 -3 10 -13 10 -21z m640 16 c0 -5 -9 -10 -20 -10 -11 0 -20 5 -20
10 0 6 9 10 20 10 11 0 20 -4 20 -10z m1080 -52 c0 -5 -4 -8 -10 -8 -5 0 -10
10 -10 23 0 18 2 19 10 7 5 -8 10 -18 10 -22z m-1090 -10 c0 -5 -9 -4 -20 2
-11 6 -18 15 -14 21 6 11 34 -7 34 -23z m-630 -13 c0 -16 -6 -25 -15 -25 -18
0 -19 16 -2 35 16 19 17 19 17 -10z m1737 -20 c9 -25 -4 -29 -17 -6 -7 15 -7
21 0 21 6 0 13 -7 17 -15z m-3267 -37 c0 -3 -9 -4 -20 -1 -17 5 -20 0 -21 -33
-1 -22 -1 -45 0 -51 1 -7 -3 -13 -9 -13 -5 0 -10 20 -10 44 0 25 -5 48 -11 52
-7 4 2 12 22 18 32 11 48 6 49 -16z m1675 22 c3 -5 2 -10 -4 -10 -5 0 -13 5
-16 10 -3 6 -2 10 4 10 5 0 13 -4 16 -10z m-1125 -21 c0 -5 -7 -9 -15 -9 -15
0 -20 12 -9 23 8 8 24 -1 24 -14z m700 -141 c-34 -65 -65 -118 -71 -118 -5 0
21 60 58 133 37 72 68 125 70 117 2 -8 -24 -68 -57 -132z m2040 110 c0 -5 -4
-8 -10 -8 -5 0 -10 10 -10 23 0 18 2 19 10 7 5 -8 10 -18 10 -22z m-1956 -85
c-13 -20 -24 -45 -24 -57 0 -16 -2 -18 -9 -7 -10 16 2 57 26 83 8 9 12 22 8
27 -3 6 -3 21 1 34 7 20 8 19 15 -12 5 -26 2 -40 -17 -68z m1970 41 c8 -21 8
-24 -3 -24 -5 0 -11 9 -14 20 -6 24 8 27 17 4z m-734 -32 c2 -2 -2 -8 -10 -13
-11 -8 -9 -9 8 -4 19 6 23 4 20 -11 -5 -30 -36 -29 -44 0 -9 38 -25 32 -17 -6
8 -45 18 -54 47 -40 24 11 25 10 24 -29 0 -44 -13 -60 -23 -28 -5 16 -12 19
-28 14 -47 -15 -67 -17 -67 -8 0 5 -13 8 -30 5 -16 -2 -30 -8 -30 -12 0 -4 11
-5 24 -3 13 3 26 1 30 -5 3 -6 -23 -10 -65 -11 -40 -1 -75 -4 -80 -7 -20 -12
-7 16 21 46 17 18 30 27 30 21 0 -19 17 -12 23 9 3 11 1 20 -4 20 -5 0 -9 5
-9 10 0 6 9 10 20 10 21 0 27 -15 10 -25 -12 -8 -13 -35 -1 -35 5 0 12 10 16
23 6 19 8 19 12 5 3 -12 14 -18 33 -18 16 0 37 -3 47 -6 17 -5 17 -5 1 9 -10
8 -18 25 -18 39 0 13 -5 29 -12 36 -9 9 -9 12 1 12 7 0 11 6 8 14 -5 11 0 12
26 3 18 -7 34 -13 37 -15z m-2555 -3 c-5 -14 -2 -25 6 -30 25 -16 -16 -10 -47
6 -28 14 -26 19 7 16 9 -1 19 5 22 14 9 23 19 18 12 -6z m3309 -25 c10 -25 -1
-29 -14 -5 -6 12 -7 21 -1 21 5 0 12 -7 15 -16z m-844 -3 c0 -5 -7 -12 -16
-15 -24 -9 -28 -7 -14 9 14 17 30 20 30 6z m863 -71 c-7 -8 -22 24 -16 34 4 5
10 1 13 -10 4 -10 6 -21 3 -24z m-3328 7 c13 -3 9 -5 -12 -6 -31 -1 -41 8 -26
22 4 4 9 3 12 -2 3 -5 15 -11 26 -14z m2725 -51 c-8 -8 -13 -7 -20 4 -12 20
-1 33 16 19 11 -9 12 -15 4 -23z m-176 8 c8 -21 8 -24 -3 -24 -5 0 -11 9 -14
20 -6 24 8 27 17 4z m800 0 c8 -21 8 -24 -4 -24 -5 0 -10 7 -10 16 0 9 -5 12
-12 8 -7 -4 -8 -3 -4 4 10 17 23 15 30 -4z m19 -59 c4 -8 2 -17 -2 -20 -5 -2
-11 4 -14 15 -6 23 8 27 16 5z m-3358 -54 c-3 -12 -11 -21 -16 -21 -6 0 -8 3
-6 8 2 4 7 16 11 26 9 25 20 13 11 -13z m3378 -1 c3 -11 1 -20 -4 -20 -5 0 -9
2 -9 4 0 2 -3 11 -6 20 -3 9 -2 16 4 16 5 0 12 -9 15 -20z m-2444 -34 c15 -9
20 -16 12 -20 -16 -10 -51 3 -51 20 0 17 8 17 39 0z m1121 -20 c0 -15 -7 -26
-19 -29 -28 -7 -40 5 -30 31 12 31 49 30 49 -2z m1343 -6 c3 -11 1 -20 -4 -20
-5 0 -9 2 -9 4 0 2 -3 11 -6 20 -3 9 -2 16 4 16 5 0 12 -9 15 -20z m-2923 0
c0 -5 -4 -10 -10 -10 -5 0 -10 5 -10 10 0 6 5 10 10 10 6 0 10 -4 10 -10z
m2943 -55 c4 -8 2 -17 -3 -20 -6 -4 -10 -4 -10 -1 0 2 -3 11 -6 20 -3 9 -2 16
4 16 5 0 12 -7 15 -15z m-3158 -166 c22 -22 -22 -4 -184 74 -94 46 -169 86
-166 89 7 6 332 -145 350 -163z m895 134 c0 -5 -15 -18 -34 -31 -24 -16 -41
-21 -60 -16 -14 3 -24 10 -21 14 3 5 14 6 25 3 11 -3 31 4 47 16 30 22 43 26
43 14z m2284 -42 c-6 -6 -24 19 -24 34 1 6 7 1 15 -9 8 -11 12 -22 9 -25z
m-1130 5 c-3 -9 -10 -16 -15 -16 -6 0 -5 9 1 21 13 24 24 20 14 -5z m-1236
-62 c-7 -15 -20 -30 -28 -32 -12 -4 -13 -2 -2 9 10 11 8 17 -10 31 -19 14 -20
18 -6 18 9 0 20 -5 24 -11 5 -8 10 -6 16 5 16 28 21 10 6 -20z m1207 7 c-3
-12 -10 -21 -15 -21 -5 0 -4 11 2 25 13 29 23 26 13 -4z m1183 -10 c18 -58 14
-71 -8 -27 -21 42 -25 66 -12 66 5 0 14 -17 20 -39z m-3604 -120 c-4 -72 -11
-131 -15 -131 -8 0 -2 232 7 259 12 36 14 -8 8 -128z m287 109 c5 0 9 -5 9
-11 0 -6 -7 -9 -15 -5 -8 3 -15 1 -15 -5 0 -6 -4 -7 -10 -4 -17 10 -12 38 6
31 9 -3 20 -6 25 -6z m239 -43 c0 -5 -10 -7 -22 -3 -13 3 -26 6 -30 6 -5 0 -8
9 -8 21 0 20 1 20 30 2 17 -9 30 -21 30 -26z m1810 33 c0 -5 -7 -10 -15 -10
-8 0 -15 5 -15 10 0 6 7 10 15 10 8 0 15 -4 15 -10z m1044 -16 c4 -15 3 -31
-2 -36 -6 -6 -11 4 -14 26 -5 42 7 48 16 10z m-997 10 c-3 -3 -12 -4 -19 -1
-8 3 -5 6 6 6 11 1 17 -2 13 -5z m-1173 -30 c9 -23 7 -36 -3 -30 -12 8 -21 46
-11 46 4 0 11 -7 14 -16z m1584 -16 c-6 -15 -12 -28 -14 -28 -2 0 -4 13 -4 28
0 18 5 29 14 29 11 0 12 -6 4 -29z m-458 -10 c0 -6 -7 -5 -15 2 -8 7 -15 17
-15 22 0 6 7 5 15 -2 8 -7 15 -17 15 -22z m-160 13 c0 -14 -60 -141 -66 -141
-9 0 4 47 28 103 18 42 38 62 38 38z m580 -33 c0 -5 -7 -8 -15 -8 -17 0 -18 2
-9 25 5 13 8 14 15 3 5 -7 9 -16 9 -20z m880 6 c0 -8 -4 -12 -10 -9 -5 3 -10
13 -10 21 0 8 5 12 10 9 6 -3 10 -13 10 -21z m-2396 -20 c11 -28 6 -39 -9 -20
-8 11 -15 23 -15 28 0 14 18 9 24 -8z m-142 -36 c-7 -7 -12 -8 -12 -2 0 14 12
26 19 19 2 -3 -1 -11 -7 -17z m231 -20 c-9 -10 -21 -18 -26 -18 -6 0 -2 9 8
20 10 11 15 20 11 20 -4 0 -4 5 0 11 4 8 9 7 15 -2 5 -8 2 -20 -8 -31z m1022
12 c25 -6 27 -8 12 -15 -21 -9 -87 18 -87 35 0 7 8 7 23 -1 12 -7 36 -16 52
-19z m1305 4 c0 -8 -4 -12 -10 -9 -5 3 -10 13 -10 21 0 8 5 12 10 9 6 -3 10
-13 10 -21z m-580 -13 c0 -4 -29 -11 -65 -14 -35 -3 -81 -15 -102 -26 l-38
-20 317 1 c241 1 321 -2 333 -12 10 -8 15 -30 15 -61 l0 -49 -420 0 c-414 0
-420 0 -420 20 0 19 -2 20 -36 5 -20 -8 -44 -15 -54 -15 -10 0 -20 -7 -24 -15
-3 -8 -15 -15 -27 -15 -11 0 -75 -22 -141 -49 -121 -51 -157 -56 -138 -21 17
32 12 39 -57 74 -38 19 -60 35 -50 36 10 0 40 -12 68 -26 28 -14 56 -23 63
-21 7 3 29 36 49 73 38 72 52 73 16 2 -20 -40 -21 -42 -3 -55 10 -7 27 -10 37
-7 13 4 17 2 13 -5 -14 -22 26 -23 85 -1 l60 23 -56 25 c-30 14 -55 29 -55 33
0 13 6 11 48 -10 80 -40 102 -38 241 25 69 32 142 67 161 78 43 26 180 46 180
27z m519 -7 c2 -2 -28 -4 -68 -4 -64 0 -73 -2 -78 -20 -7 -25 -25 -27 -21 -2
3 18 -20 20 -254 21 -48 1 -78 5 -78 12 0 7 75 8 248 3 136 -4 249 -8 251 -10z
m-2946 -41 c-15 -5 -73 24 -73 37 0 6 19 1 43 -11 23 -12 37 -24 30 -26z m547
19 c0 -10 -21 -32 -31 -32 -4 0 -5 9 -2 20 5 19 33 29 33 12z m2480 -18 c0 -8
-4 -14 -10 -14 -5 0 -10 9 -10 21 0 11 5 17 10 14 6 -3 10 -13 10 -21z m-3384
-40 c-4 -9 -9 -15 -11 -12 -3 3 -3 13 1 22 4 9 9 15 11 12 3 -3 3 -13 -1 -22z
m1004 -45 c-10 -24 -18 -29 -47 -29 -26 0 -43 -8 -69 -34 -42 -42 -43 -73 -6
-141 22 -41 32 -50 54 -50 15 -1 30 -3 33 -7 8 -8 13 -108 5 -108 -4 0 -12
-12 -19 -27 -26 -60 -85 -130 -80 -95 6 36 -25 40 -61 7 -25 -23 -49 -62 -31
-51 13 8 14 4 5 -18 -3 -9 -10 -13 -15 -10 -8 5 -13 -23 -10 -56 1 -10 -1 -11
-6 -3 -11 15 -53 -19 -53 -44 0 -25 -69 -226 -82 -238 -16 -15 -2 52 27 125
14 35 23 65 21 67 -2 2 -50 -21 -107 -52 -57 -30 -108 -54 -113 -52 -6 2 39
30 101 63 110 59 111 60 97 84 -7 14 -13 31 -14 38 0 23 18 12 30 -19 l13 -31
12 29 c7 15 21 33 32 40 11 6 26 32 33 57 9 33 28 61 66 99 91 88 60 102 -66
27 -49 -29 -76 -38 -108 -38 -36 1 -43 4 -39 18 2 9 0 25 -5 35 -8 13 -6 16 8
13 10 -2 21 -12 24 -23 7 -28 28 -25 83 13 26 17 53 32 58 32 11 0 6 20 -17
76 -10 25 -18 31 -33 27 -19 -5 -19 -7 -6 -39 13 -31 12 -35 -5 -44 -16 -8
-20 -5 -30 26 -9 27 -16 34 -29 29 -34 -14 -79 -17 -85 -6 -5 7 2 11 18 11 13
0 36 4 49 9 l25 10 -24 76 c-18 56 -21 81 -14 95 9 16 1 23 -56 55 -59 33 -68
36 -76 21 -5 -9 -13 -14 -17 -11 -5 2 -12 -54 -16 -127 -4 -86 -3 -133 3 -137
7 -4 9 -47 5 -121 -5 -107 -8 -117 -30 -133 -32 -25 -46 -18 -29 14 9 18 18
102 25 255 12 238 16 275 29 273 23 -4 24 4 2 21 l-25 19 40 -3 c22 -2 70 -17
106 -34 49 -22 70 -27 78 -19 8 8 11 7 11 -6 0 -10 5 -14 15 -11 9 4 15 0 15
-7 1 -8 12 6 25 31 16 30 24 38 24 25 0 -11 -6 -31 -14 -45 -8 -14 -14 -28
-15 -32 0 -9 102 -38 112 -32 5 3 6 10 2 15 -3 6 11 26 31 45 28 25 47 34 72
34 31 0 36 4 51 42 11 29 18 37 20 24 2 -9 -2 -31 -8 -47z m-919 -181 c-8 -29
-9 -24 -10 38 -1 39 2 100 7 135 7 63 7 63 10 -38 1 -57 -2 -117 -7 -135z
m3313 217 c3 -8 1 -15 -3 -15 -5 0 -11 7 -15 15 -3 8 -1 15 3 15 5 0 11 -7 15
-15z m-99 -15 c-4 -11 -2 -20 4 -20 6 0 11 -5 11 -10 0 -7 -6 -7 -20 0 -30 16
-25 41 8 49 2 1 0 -8 -3 -19z m-32 -10 c3 -11 1 -20 -4 -20 -5 0 -9 9 -9 20 0
11 2 20 4 20 2 0 6 -9 9 -20z m-3293 -4 c0 -8 -4 -18 -10 -21 -5 -3 -10 3 -10
14 0 12 5 21 10 21 6 0 10 -6 10 -14z m3443 -26 c3 -11 1 -20 -4 -20 -5 0 -9
2 -9 4 0 2 -3 11 -6 20 -3 9 -2 16 4 16 5 0 12 -9 15 -20z m-4917 -51 c0 -10
-3 -19 -7 -19 -10 0 -39 36 -33 42 11 12 40 -4 40 -23z m2474 7 c0 -9 -30 -14
-35 -6 -4 6 3 10 14 10 12 0 21 -2 21 -4z m60 -6 c0 -13 -11 -13 -30 0 -12 8
-11 10 8 10 12 0 22 -4 22 -10z m2400 -10 c0 -11 -4 -20 -10 -20 -5 0 -10 9
-10 20 0 11 5 20 10 20 6 0 10 -9 10 -20z m-2510 4 c0 -3 -6 -12 -14 -19 -17
-17 -30 -7 -15 12 12 13 29 18 29 7z m170 -4 c0 -13 -11 -13 -30 0 -12 8 -11
10 8 10 12 0 22 -4 22 -10z m67 2 c16 -10 5 -58 -20 -79 -18 -16 -20 -16 -14
-1 4 13 2 15 -11 11 -15 -6 -15 -5 -3 11 8 9 20 15 28 12 9 -4 13 3 13 20 0
21 -4 24 -20 19 -11 -4 -20 -2 -20 4 0 12 29 14 47 3z m633 -22 c0 -5 -6 -10
-14 -10 -8 0 -18 5 -21 10 -3 6 3 10 14 10 12 0 21 -4 21 -10z m-3263 -15 c9
-25 -4 -29 -17 -6 -7 15 -7 21 0 21 6 0 13 -7 17 -15z m114 -15 c11 0 36 -8
57 -19 20 -10 56 -24 79 -31 30 -9 43 -19 45 -34 2 -15 21 -27 73 -47 57 -22
93 -28 195 -33 69 -3 157 -8 197 -10 64 -4 72 -2 76 16 5 16 9 18 26 9 11 -6
31 -11 44 -11 14 0 27 -7 31 -15 4 -11 21 -15 61 -15 51 0 55 2 55 24 0 13 8
30 17 37 15 12 16 12 8 -6 -4 -11 -10 -33 -13 -49 -5 -28 -5 -28 -70 -24 -45
3 -68 9 -77 21 -14 19 -75 24 -75 6 0 -9 -52 -10 -199 -5 l-200 7 -4 -43 -4
-43 -1 47 c-2 44 -4 47 -39 59 -73 23 -123 51 -123 68 0 12 -16 22 -47 33 -27
9 -63 22 -81 29 -26 11 -36 11 -52 1 -17 -10 -20 -10 -20 4 0 11 -7 14 -25 12
-13 -2 -23 2 -22 7 1 6 12 9 25 7 14 -2 25 4 29 15 7 17 8 17 11 1 2 -10 12
-18 23 -18z m4179 16 c0 -8 -4 -17 -9 -21 -12 -7 -24 12 -16 25 9 15 25 12 25
-4z m610 -26 c0 -11 -4 -20 -10 -20 -5 0 -10 9 -10 20 0 11 5 20 10 20 6 0 10
-9 10 -20z m-2510 -17 c0 -10 7 -27 15 -37 16 -21 20 -56 7 -56 -12 0 -53 90
-47 101 10 15 25 10 25 -8z m1360 -3 c0 -5 -4 -10 -9 -10 -6 0 -13 5 -16 10
-3 6 1 10 9 10 9 0 16 -4 16 -10z m-3696 -54 c-7 -45 11 -106 30 -106 6 0 5
-5 -1 -11 -6 -6 -9 -19 -6 -28 4 -14 2 -13 -10 2 -11 13 -36 19 -106 24 -50 3
-94 10 -97 15 -4 6 33 7 90 2 84 -6 96 -5 96 9 0 9 -4 19 -10 22 -5 3 -10 19
-10 35 0 17 -7 33 -17 39 -16 9 -16 10 3 11 12 0 24 7 28 15 11 29 16 15 10
-29z m2584 32 c7 -7 12 -16 12 -20 0 -15 -15 -8 -28 12 -13 22 -3 27 16 8z
m2259 -30 c-3 -7 -5 -2 -5 12 0 14 2 19 5 13 2 -7 2 -19 0 -25z m-682 2 c8
-12 -301 -12 -330 0 -12 5 47 9 152 9 105 1 174 -3 178 -9z m-2145 -31 c0 -11
-4 -17 -10 -14 -5 3 -10 15 -10 26 0 11 5 17 10 14 6 -3 10 -15 10 -26z m644
5 c9 -24 7 -28 -9 -14 -17 14 -20 30 -6 30 5 0 12 -7 15 -16z m-44 -4 c0 -5
-7 -10 -15 -10 -8 0 -15 5 -15 10 0 6 7 10 15 10 8 0 15 -4 15 -10z m2227 -32
c-3 -7 -5 -2 -5 12 0 14 2 19 5 13 2 -7 2 -19 0 -25z m-3712 -125 c-4 -76 -11
-142 -17 -148 -10 -10 -3 198 8 258 12 62 16 19 9 -110z m215 101 c0 -19 5
-44 11 -55 6 -11 8 -25 6 -32 -3 -7 -9 -1 -15 13 -12 28 -15 17 -6 -17 4 -13
10 -21 14 -18 5 3 11 1 15 -5 3 -5 1 -10 -5 -10 -7 0 -8 -6 -1 -19 6 -10 7
-22 3 -25 -4 -4 5 -5 21 -1 27 7 27 6 27 -40 0 -41 -2 -46 -19 -40 -20 6 -36
-8 -27 -24 3 -4 38 -2 78 5 l73 13 50 -32 c39 -24 61 -31 101 -32 l51 0 32
-57 32 -58 59 30 c64 32 70 34 70 22 0 -5 -27 -21 -60 -37 -33 -16 -60 -30
-60 -31 0 -19 148 -279 166 -291 19 -12 22 -19 14 -33 -14 -26 -12 -34 3 -21
8 6 26 43 42 83 15 40 34 80 41 89 8 9 11 19 7 23 -5 4 3 6 16 4 34 -4 36 -20
3 -39 -40 -23 -93 -169 -61 -169 5 0 7 5 3 12 -4 7 -3 8 4 4 6 -4 25 0 43 9
29 15 32 15 45 -2 7 -10 13 -25 13 -33 1 -10 -5 -7 -18 9 l-18 23 -41 -26
c-23 -14 -45 -26 -49 -25 -23 4 -35 -3 -30 -16 4 -8 2 -17 -2 -20 -5 -2 -11 5
-14 17 l-6 22 -23 -21 c-13 -11 -42 -30 -66 -42 -24 -12 -45 -28 -48 -36 -3
-7 -26 -23 -51 -35 -52 -24 -52 -26 -3 -135 l30 -67 75 41 c77 43 85 46 85 34
0 -5 -33 -25 -74 -47 l-74 -39 15 -36 c12 -27 51 -101 68 -129 1 -1 23 10 49
24 26 15 51 23 55 18 5 -5 2 -40 -5 -79 -7 -38 -13 -87 -13 -109 l-1 -38 60 4
c43 3 60 1 60 -8 0 -7 8 -10 20 -7 16 4 18 8 9 19 -9 11 -5 16 16 24 14 5 33
17 41 25 9 8 22 15 30 15 21 0 128 55 143 74 8 9 24 16 37 16 12 0 29 7 38 15
8 8 20 15 26 15 17 0 130 61 130 70 0 5 -17 22 -38 38 -21 17 -49 53 -62 82
-21 46 -23 55 -12 95 10 39 9 49 -13 98 -20 47 -37 66 -93 102 -1 1 0 10 4 19
6 15 11 13 38 -13 23 -22 37 -29 54 -25 12 4 22 13 22 20 0 8 5 14 10 14 6 0
10 -5 10 -10 0 -6 13 -4 30 5 17 9 30 11 30 5 0 -13 -74 -50 -100 -50 -19 0
-19 -2 9 -58 27 -53 28 -62 18 -100 -10 -38 -8 -47 18 -102 16 -33 33 -60 38
-60 5 0 22 -14 38 -31 l28 -31 56 46 c31 25 62 43 69 40 8 -3 28 2 45 10 16 9
40 16 53 16 13 1 52 13 88 29 58 25 66 31 71 62 l6 34 2 -31 c1 -29 4 -32 44
-37 23 -4 92 -6 152 -7 61 0 146 -3 190 -6 l81 -6 -4 173 c-2 96 -5 175 -6
176 -1 2 -116 3 -256 4 -232 0 -258 2 -295 20 -49 25 -129 36 -139 20 -4 -6 2
-15 16 -20 20 -8 21 -10 5 -16 -11 -5 -23 0 -35 15 l-17 21 -29 -30 c-17 -17
-36 -31 -45 -31 -8 0 5 16 28 36 30 26 41 43 38 55 -6 23 8 25 17 3 4 -12 10
-13 19 -6 8 7 33 4 79 -7 84 -22 86 -18 41 103 -35 95 -39 111 -23 101 14 -9
12 7 -5 49 -20 46 -4 47 18 1 19 -40 22 -65 7 -65 -5 0 -10 -4 -10 -10 0 -5 7
-10 15 -10 8 0 19 -9 25 -19 14 -27 13 -31 -7 -24 -12 4 -8 -4 10 -22 26 -27
27 -30 10 -36 -17 -7 -17 -8 0 -8 15 -1 17 -7 11 -51 l-7 -50 50 0 c27 0 54 5
61 12 9 9 12 9 12 -1 0 -8 14 -12 43 -11 23 1 132 1 242 0 158 -1 195 -4 175
-13 -14 -6 -26 -11 -27 -12 -9 -5 -14 -258 -6 -281 11 -33 6 -104 -8 -104 -5
0 -9 6 -9 13 0 19 -300 32 -313 14 -7 -9 -10 -9 -14 1 -13 32 -232 1 -220 -32
3 -6 10 -10 16 -8 7 1 11 -3 10 -10 -3 -27 2 -38 16 -38 18 0 20 -20 3 -20 -8
-1 -7 -5 4 -13 23 -18 33 -64 18 -82 -11 -13 -8 -15 18 -15 17 0 34 -4 37 -10
3 -5 1 -10 -5 -10 -6 0 -8 -4 -5 -10 3 -5 -3 -10 -14 -10 -13 0 -21 7 -22 18
0 14 -2 14 -8 -3 -8 -19 -8 -19 -20 3 -10 18 -10 27 -1 38 18 20 4 64 -20 64
-22 0 -36 16 -18 22 10 4 8 15 -7 46 -14 30 -24 40 -35 36 -8 -4 -34 -10 -58
-14 -24 -4 -48 -12 -54 -18 -7 -7 -23 -12 -36 -12 -25 0 -112 -65 -112 -84 0
-6 29 -65 65 -131 51 -95 65 -129 65 -163 0 -34 18 -90 35 -110 1 -2 52 24
112 57 60 32 117 61 127 63 14 2 23 -8 34 -39 14 -38 20 -43 48 -43 33 0 51
-21 37 -43 -4 -7 -6 -21 -5 -32 3 -20 2 -20 -13 -1 -10 13 -12 23 -5 30 18 18
11 26 -21 26 -26 0 -33 6 -50 45 l-20 46 -87 -47 c-48 -26 -90 -52 -94 -58 -4
-6 -8 -8 -8 -3 0 4 -11 0 -26 -9 -17 -12 -22 -20 -15 -27 6 -6 11 -18 11 -26
0 -12 -6 -9 -19 8 l-18 23 -79 -43 c-43 -23 -90 -50 -104 -59 -14 -10 -36 -21
-49 -25 l-24 -7 19 25 c11 14 22 23 26 21 4 -3 50 18 103 46 100 54 106 64 80
110 -8 14 -14 44 -15 67 0 61 -124 293 -156 293 -12 0 -27 -7 -34 -16 -8 -8
-29 -22 -48 -30 -23 -9 -32 -19 -28 -29 6 -17 -5 -20 -21 -4 -7 7 -41 -6 -117
-45 -59 -31 -113 -56 -120 -56 -8 0 -16 -7 -20 -15 -3 -8 -15 -15 -26 -15 -11
0 -20 -5 -20 -10 0 -6 11 -8 26 -4 19 5 25 4 20 -5 -4 -6 -28 -16 -52 -22 -25
-7 -48 -18 -51 -26 -4 -9 -8 -11 -12 -4 -5 7 -21 4 -47 -9 l-41 -20 -1 -79
c-2 -88 10 -105 55 -76 22 15 26 15 53 -8 28 -24 80 -27 80 -6 0 5 9 9 21 9
15 0 19 -4 15 -16 -3 -9 -6 -20 -6 -26 0 -6 -6 -6 -15 2 -12 10 -15 10 -15 -4
0 -9 8 -16 20 -16 11 0 20 -4 20 -10 0 -16 -40 -11 -47 6 -4 11 -13 14 -29 10
-29 -8 -74 2 -74 16 0 5 10 6 21 3 15 -5 19 -4 15 4 -4 6 -16 11 -27 11 -13 0
-18 4 -13 12 4 7 3 8 -4 4 -7 -4 -12 -15 -12 -26 0 -22 -56 -46 -63 -27 -3 9
-8 8 -20 -2 -15 -12 -17 -11 -17 8 0 18 -3 20 -19 11 -24 -12 -31 -13 -31 -1
0 5 9 13 20 16 39 12 50 34 50 96 0 40 -4 58 -11 54 -6 -4 -17 1 -24 11 -16
21 -18 16 -15 -33 1 -18 -3 -33 -9 -33 -6 0 -11 16 -11 35 0 19 -3 35 -7 35
-12 0 -43 -33 -43 -47 0 -9 -7 -12 -25 -7 -19 5 -25 2 -25 -11 0 -14 -3 -15
-14 -6 -10 8 -25 9 -48 3 -26 -7 -32 -13 -30 -29 4 -26 -14 -39 -33 -23 -8 6
-26 10 -42 8 -24 -3 -28 -7 -26 -32 2 -27 1 -28 -17 -11 -16 14 -23 15 -34 6
-8 -7 -12 -19 -9 -27 3 -8 1 -14 -5 -14 -6 0 -12 5 -14 11 -3 9 -10 8 -25 -1
-18 -11 -19 -18 -11 -42 9 -26 28 -39 28 -20 0 5 13 7 29 6 34 -2 46 17 30 48
-9 16 -8 19 3 16 7 -3 15 -18 18 -34 4 -19 11 -29 23 -28 9 1 17 -2 17 -7 0
-5 -5 -9 -11 -9 -8 0 -10 -15 -7 -45 6 -47 -6 -62 -16 -22 -4 17 -12 23 -28
22 -24 -2 -28 -22 -13 -57 4 -11 3 -18 -4 -18 -6 0 -11 3 -11 8 0 4 -4 13 -9
20 -7 11 -17 8 -50 -13 -23 -16 -41 -36 -41 -46 0 -22 16 -34 23 -17 3 8 6 6
6 -4 1 -20 -19 -24 -36 -7 -7 7 -9 3 -6 -15 5 -22 2 -26 -18 -26 -18 0 -20 3
-11 12 20 20 14 40 -10 36 -20 -3 -22 -8 -20 -44 2 -23 -1 -45 -7 -49 -15 -9
-14 -62 2 -68 7 -3 5 -6 -5 -6 -14 -1 -18 7 -18 34 0 19 -4 35 -9 35 -11 0 1
68 18 98 7 13 11 31 9 42 -3 15 -9 12 -47 -20 -39 -34 -45 -45 -51 -92 -6 -44
-4 -60 15 -98 13 -25 34 -52 48 -59 30 -16 58 -65 87 -153 12 -38 25 -68 30
-68 4 0 13 -13 19 -29 8 -19 26 -34 53 -45 38 -15 42 -14 54 2 7 9 14 27 14
40 0 30 -29 74 -46 68 -7 -3 -15 2 -18 10 -3 8 0 14 8 14 8 0 14 12 15 30 0
17 2 44 2 60 2 30 2 30 21 13 19 -17 21 -17 49 15 30 33 49 41 49 19 0 -7 -13
-21 -30 -30 -16 -10 -30 -25 -30 -34 0 -10 -6 -13 -17 -9 -37 14 -44 -49 -11
-94 16 -23 22 -45 22 -90 1 -60 1 -60 34 -66 17 -3 32 -10 32 -15 0 -14 -28
-11 -62 7 -29 15 -32 15 -43 0 -17 -23 -26 -20 -20 7 5 19 -1 26 -39 45 -30
14 -48 30 -52 46 -3 14 -11 27 -18 29 -6 3 -23 40 -36 83 -16 50 -36 89 -56
111 -33 35 -60 44 -50 17 4 -12 2 -15 -9 -10 -8 3 -15 3 -15 0 0 -3 14 -10 30
-15 73 -26 -6 -123 -84 -103 -33 8 -34 23 -1 16 42 -8 57 3 43 33 -6 14 -19
25 -28 25 -29 0 -52 34 -42 61 13 34 -12 69 -49 69 -16 0 -29 5 -29 10 0 6 11
10 25 10 18 0 25 5 25 20 0 10 8 24 18 30 14 9 12 11 -12 7 -44 -7 -71 12 -71
52 0 31 4 36 87 85 49 28 88 56 88 63 0 7 12 15 28 18 15 3 40 10 56 15 19 6
32 6 36 0 3 -5 11 8 17 30 8 31 7 44 -4 60 -17 25 -33 26 -33 3 0 -13 -35 -36
-110 -75 -60 -32 -111 -58 -113 -58 -3 0 -8 7 -11 16 -4 11 -2 15 7 11 7 -3
58 18 112 47 125 64 125 66 54 208 -28 56 -53 105 -55 107 -1 2 -15 -6 -31
-17 -38 -27 -210 -112 -225 -112 -7 0 37 27 98 58 61 32 124 68 140 79 16 11
79 45 139 77 61 32 127 74 147 93 41 40 41 43 54 281 l6 122 -30 0 c-22 0 -51
-15 -97 -50 -63 -48 -69 -50 -129 -50 -34 0 -88 -5 -119 -11 -47 -10 -57 -15
-58 -33 -1 -17 -2 -17 -6 -3 -3 12 -15 17 -41 17 -20 1 -70 14 -109 29 l-73
29 7 -26 c8 -34 -11 -21 -27 18 -12 30 -48 48 -69 35 -6 -3 -11 -1 -11 4 0 6
-10 11 -22 12 -22 0 -22 1 2 10 17 7 26 7 28 0 2 -6 15 -11 28 -11 14 0 53
-14 87 -31 44 -23 81 -33 128 -37 76 -5 73 -11 85 116 5 54 10 72 21 72 9 0
13 -6 10 -14 -3 -7 -9 -51 -13 -96 -7 -79 -6 -83 12 -76 10 5 62 11 114 14 93
5 96 6 150 48 30 23 71 45 91 49 31 6 38 12 43 38 3 17 3 34 -1 38 -5 4 -42 1
-83 -6 -86 -16 -179 -19 -164 -6 5 4 52 14 104 21 124 15 140 20 140 36 0 8 5
14 10 14 6 0 10 -7 10 -15 0 -18 38 -20 91 -5 29 8 213 101 228 115 3 4 -125
253 -136 265 -2 2 -36 -12 -74 -33 -38 -21 -72 -36 -77 -34 -4 3 -90 8 -192
12 -102 4 -187 9 -189 11 -15 14 31 16 201 7 l193 -11 55 30 c30 16 59 33 63
38 5 4 -4 30 -20 56 -27 48 -29 49 -71 46 -35 -3 -53 3 -93 29 -52 33 -77 35
-187 13 -31 -6 -32 -5 -32 26 0 32 0 33 -41 26 -26 -4 -38 -3 -34 4 3 5 13 10
21 10 11 0 13 6 9 21 -5 15 -2 22 14 26 23 6 29 23 9 23 -10 0 -10 2 0 8 10 7
10 15 2 36 -5 15 -10 52 -10 82 0 41 -4 54 -15 54 -8 0 -15 5 -15 10 0 6 11
10 25 10 22 0 25 -4 25 -36z m590 26 c0 -5 -7 -10 -16 -10 -8 0 -12 5 -9 10 3
6 10 10 16 10 5 0 9 -4 9 -10z m1889 -3 c13 -17 5 -27 -24 -27 -12 0 -25 3
-28 7 -9 8 12 33 28 33 7 0 18 -6 24 -13z m-1149 -7 c0 -5 -10 -10 -22 -9 -22
0 -22 1 -3 9 11 5 21 9 23 9 1 1 2 -3 2 -9z m-2950 -34 c0 -8 -4 -18 -10 -21
-5 -3 -10 3 -10 14 0 12 5 21 10 21 6 0 10 -6 10 -14z m5117 -18 c-3 -7 -5 -2
-5 12 0 14 2 19 5 13 2 -7 2 -19 0 -25z m-2194 15 c-7 -2 -21 -2 -30 0 -10 3
-4 5 12 5 17 0 24 -2 18 -5z m1379 -53 c94 0 169 -2 167 -5 -3 -2 -203 -6
-444 -9 -262 -3 -410 -1 -365 4 41 4 160 10 265 13 150 3 190 7 194 18 4 10 6
10 9 -3 3 -16 20 -18 174 -18z m1456 13 c-21 -2 -57 -2 -80 0 -24 2 -7 4 37 4
44 0 63 -2 43 -4z m-3708 -38 c0 -37 -22 -49 -34 -19 -9 24 -7 46 3 39 5 -3
12 -1 16 5 11 18 15 11 15 -25z m295 16 c-3 -6 -11 -11 -17 -11 -6 0 -6 6 2
15 14 17 26 13 15 -4z m2775 -1 c0 -11 -4 -20 -9 -20 -5 0 -7 9 -4 20 3 11 7
20 9 20 2 0 4 -9 4 -20z m-4766 -30 c-3 -14 -1 -30 3 -35 16 -21 58 -42 81
-40 12 1 22 -4 22 -12 0 -7 4 -13 10 -13 5 0 7 -7 4 -15 -4 -8 1 -17 10 -21 8
-3 18 -22 22 -42 3 -21 8 -45 11 -54 2 -10 0 -18 -5 -18 -6 0 -13 18 -17 40
-5 27 -15 46 -31 57 -17 11 -23 22 -19 37 2 11 2 15 -1 9 -3 -7 -17 -13 -30
-13 -14 0 -23 4 -20 9 10 15 -4 39 -25 44 -11 3 -24 19 -30 36 -7 18 -16 28
-24 25 -9 -4 -12 0 -8 14 3 13 13 19 28 18 19 -1 23 -5 19 -26z m4766 -30 c0
-11 -4 -20 -10 -20 -5 0 -10 9 -10 20 0 11 5 20 10 20 6 0 10 -9 10 -20z
m-2850 -15 c10 -12 10 -15 -4 -15 -9 0 -16 7 -16 15 0 8 2 15 4 15 2 0 9 -7
16 -15z m2850 -45 c0 -11 -4 -20 -10 -20 -5 0 -10 9 -10 20 0 11 5 20 10 20 6
0 10 -9 10 -20z m-2610 -5 c-7 -8 -17 -15 -22 -15 -6 0 -5 7 2 15 7 8 17 15
22 15 6 0 5 -7 -2 -15z m-1020 -30 c7 -8 8 -15 2 -15 -5 0 -15 7 -22 15 -7 8
-8 15 -2 15 5 0 15 -7 22 -15z m-291 -62 c1 -12 7 -24 14 -27 6 -3 -1 -4 -18
-3 -26 2 -30 6 -31 32 -2 39 17 65 27 38 4 -10 8 -28 8 -40z m3921 37 c0 -11
-4 -20 -10 -20 -5 0 -10 9 -10 20 0 11 5 20 10 20 6 0 10 -9 10 -20z m-4960 0
c0 -5 -4 -10 -9 -10 -6 0 -13 5 -16 10 -3 6 1 10 9 10 9 0 16 -4 16 -10z
m4927 -27 c-3 -10 -5 -4 -5 12 0 17 2 24 5 18 2 -7 2 -21 0 -30z m-5340 -106
c-2 -23 -3 -1 -3 48 0 50 1 68 3 42 2 -26 2 -67 0 -90z m1373 112 c11 -8 12
-12 3 -16 -16 -6 -17 -33 -2 -33 6 0 30 -14 54 -30 l44 -30 51 20 c31 12 74
20 110 20 60 0 60 0 60 30 0 26 3 30 29 30 16 0 43 3 60 6 20 4 31 3 31 -5 0
-6 -9 -11 -20 -11 -11 0 -20 -4 -20 -8 0 -4 -16 -6 -36 -4 -26 3 -35 1 -34 -9
7 -47 3 -50 -68 -48 -44 1 -78 -3 -97 -13 -39 -20 -125 -33 -125 -19 0 6 6 11
13 11 12 1 -13 23 -45 41 -15 8 -17 6 -15 -11 2 -12 9 -25 17 -30 7 -5 9 -13
4 -21 -4 -7 -9 -67 -10 -132 -2 -65 -6 -132 -9 -148 -7 -31 -7 -31 -68 -27
-61 3 -62 3 -65 -24 -3 -24 0 -28 22 -28 22 0 26 -5 26 -29 0 -16 6 -31 15
-35 17 -6 21 -46 5 -46 -5 0 -10 9 -10 20 0 11 -4 20 -10 20 -5 0 -10 11 -10
24 0 19 -6 25 -27 28 -26 3 -28 6 -25 41 l3 37 -75 0 c-45 0 -78 5 -82 11 -5
9 15 10 74 7 l80 -5 7 90 c9 105 8 107 -82 107 -34 0 -65 5 -68 10 -4 6 5 10
19 10 14 0 26 6 26 13 0 6 3 30 6 52 3 24 2 35 -3 28 -10 -14 -53 -6 -53 9 0
5 9 6 20 3 11 -4 20 -2 20 4 0 6 8 11 17 11 9 0 24 7 34 16 11 10 42 16 95 19
63 2 80 6 82 19 2 9 -1 16 -7 16 -6 0 -11 5 -11 10 0 13 31 13 50 -1z m4000
-39 c0 -11 -4 -20 -10 -20 -5 0 -10 9 -10 20 0 11 5 20 10 20 6 0 10 -9 10
-20z m-4484 -53 c-1 -34 -8 -72 -14 -83 -6 -11 -12 -50 -14 -87 -2 -37 -7 -67
-12 -67 -5 0 -6 -18 -3 -40 5 -41 -3 -49 -32 -31 -9 6 -11 18 -6 40 6 26 3 32
-17 40 l-23 10 23 0 c18 1 22 7 22 36 0 19 4 35 9 35 9 0 32 87 34 133 1 15 5
27 8 27 4 0 10 11 13 25 11 43 16 28 12 -38z m1876 -24 c6 -8 20 -10 34 -7 15
4 24 2 24 -5 0 -15 -52 -14 -74 2 -14 10 -16 20 -9 57 l8 45 3 -40 c2 -22 8
-45 14 -52z m-362 55 c0 -19 -2 -20 -10 -8 -13 19 -13 30 0 30 6 0 10 -10 10
-22z m317 -71 c9 -9 13 -20 9 -24 -4 -5 -12 0 -17 10 -6 9 -17 17 -26 17 -13
0 -14 3 -5 12 7 7 13 23 13 38 2 22 2 22 6 -5 3 -16 12 -38 20 -48z m2653 33
c0 -11 -4 -20 -10 -20 -5 0 -10 9 -10 20 0 11 5 20 10 20 6 0 10 -9 10 -20z
m-2360 -10 c0 -6 -30 -9 -72 -8 l-73 1 55 7 c86 11 90 11 90 0z m-2699 -24
c12 6 12 5 0 -9 -19 -23 -31 -21 -31 6 0 16 3 18 9 8 5 -8 14 -10 22 -5z
m3182 -3 c-7 -2 -21 -2 -30 0 -10 3 -4 5 12 5 17 0 24 -2 18 -5z m1877 -23 c0
-11 -4 -20 -10 -20 -5 0 -10 9 -10 20 0 11 5 20 10 20 6 0 10 -9 10 -20z
m-2535 -19 c-3 -6 -14 -11 -23 -11 -15 1 -15 2 2 15 21 16 32 13 21 -4z m58
12 c-7 -2 -19 -2 -25 0 -7 3 -2 5 12 5 14 0 19 -2 13 -5z m-2896 -45 c-3 -7
-5 -2 -5 12 0 14 2 19 5 13 2 -7 2 -19 0 -25z m5373 -8 c0 -11 -4 -20 -10 -20
-5 0 -10 9 -10 20 0 11 5 20 10 20 6 0 10 -9 10 -20z m-2676 -15 c-10 -8 -28
-14 -39 -14 -15 0 -11 5 15 19 39 20 54 18 24 -5z m345 -76 c-26 -67 -95 -139
-133 -139 -12 0 -34 -9 -51 -20 -23 -16 -47 -20 -107 -20 -46 0 -78 4 -78 10
0 6 33 10 78 10 60 0 84 4 107 20 17 11 40 20 53 20 12 0 38 15 57 33 40 36
89 145 74 163 -5 6 -6 14 -2 18 4 4 12 -2 17 -13 6 -15 2 -38 -15 -82z m506 4
c-2 -36 -7 -68 -10 -71 -11 -12 -18 9 -19 63 0 30 -5 55 -9 55 -4 0 -2 6 5 14
25 27 36 7 33 -61z m1825 27 c0 -11 -4 -20 -10 -20 -5 0 -10 9 -10 20 0 11 5
20 10 20 6 0 10 -9 10 -20z m-83 -62 c-2 -13 -4 -5 -4 17 -1 22 1 32 4 23 2
-10 2 -28 0 -40z m83 2 c0 -11 -4 -20 -10 -20 -5 0 -10 9 -10 20 0 11 5 20 10
20 6 0 10 -9 10 -20z m0 -60 c0 -11 -4 -20 -10 -20 -5 0 -10 9 -10 20 0 11 5
20 10 20 6 0 10 -9 10 -20z m-2520 -20 c0 -5 -2 -10 -4 -10 -3 0 -8 5 -11 10
-3 6 -1 10 4 10 6 0 11 -4 11 -10z m2520 -40 c0 -11 -4 -20 -10 -20 -5 0 -10
9 -10 20 0 11 5 20 10 20 6 0 10 -9 10 -20z m0 -60 c0 -11 -4 -20 -10 -20 -5
0 -10 9 -10 20 0 11 5 20 10 20 6 0 10 -9 10 -20z m-1855 -10 c-3 -5 -11 -10
-16 -10 -6 0 -7 5 -4 10 3 6 11 10 16 10 6 0 7 -4 4 -10z m-2160 -58 c-6 -7
-35 18 -35 31 0 5 9 2 20 -8 11 -10 18 -20 15 -23z m-2755 12 c0 -2 -12 -4
-26 -4 -14 0 -23 4 -20 9 6 8 46 4 46 -5z m6770 -4 c0 -11 -4 -20 -10 -20 -5
0 -10 9 -10 20 0 11 5 20 10 20 6 0 10 -9 10 -20z m-6720 0 c0 -13 -11 -13
-30 0 -12 8 -11 10 8 10 12 0 22 -4 22 -10z m65 0 c4 -6 -5 -10 -20 -10 -15 0
-24 4 -20 10 3 6 12 10 20 10 8 0 17 -4 20 -10z m58 -7 c-7 -2 -21 -2 -30 0
-10 3 -4 5 12 5 17 0 24 -2 18 -5z m57 -3 c0 -5 -6 -10 -14 -10 -8 0 -18 5
-21 10 -3 6 3 10 14 10 12 0 21 -4 21 -10z m53 -7 c-7 -2 -19 -2 -25 0 -7 3
-2 5 12 5 14 0 19 -2 13 -5z m67 -3 c0 -5 -6 -10 -14 -10 -8 0 -18 5 -21 10
-3 6 3 10 14 10 12 0 21 -4 21 -10z m60 0 c0 -5 -9 -10 -21 -10 -11 0 -17 5
-14 10 3 6 13 10 21 10 8 0 14 -4 14 -10z m53 -7 c-7 -2 -19 -2 -25 0 -7 3 -2
5 12 5 14 0 19 -2 13 -5z m67 -3 c0 -5 -9 -10 -20 -10 -11 0 -20 5 -20 10 0 6
9 10 20 10 11 0 20 -4 20 -10z m30 0 c0 -5 -4 -10 -10 -10 -5 0 -10 5 -10 10
0 6 5 10 10 10 6 0 10 -4 10 -10z m53 -7 c-7 -2 -19 -2 -25 0 -7 3 -2 5 12 5
14 0 19 -2 13 -5z m67 -3 c0 -5 -6 -10 -14 -10 -8 0 -18 5 -21 10 -3 6 3 10
14 10 12 0 21 -4 21 -10z m60 0 c0 -5 -9 -10 -20 -10 -11 0 -20 5 -20 10 0 6
9 10 20 10 11 0 20 -4 20 -10z m63 -7 c-7 -2 -21 -2 -30 0 -10 3 -4 5 12 5 17
0 24 -2 18 -5z m117 -3 c12 -8 11 -10 -7 -10 -13 0 -23 5 -23 10 0 13 11 13
30 0z m1787 -22 c-3 -7 -5 -2 -5 12 0 14 2 19 5 13 2 -7 2 -19 0 -25z m4063
12 c0 -11 -4 -20 -10 -20 -5 0 -10 9 -10 20 0 11 5 20 10 20 6 0 10 -9 10 -20z
m-5780 0 c0 -5 -6 -10 -14 -10 -8 0 -18 5 -21 10 -3 6 3 10 14 10 12 0 21 -4
21 -10z m55 0 c3 -5 -3 -10 -14 -10 -12 0 -21 5 -21 10 0 6 6 10 14 10 8 0 18
-4 21 -10z m3225 -5 c6 -3 8 -11 4 -16 -3 -5 0 -8 8 -7 7 2 12 -5 12 -14 -1
-11 4 -15 15 -11 12 5 13 3 4 -7 -6 -7 -9 -19 -5 -28 4 -11 1 -14 -10 -10 -9
4 -21 1 -27 -5 -8 -8 -16 -6 -29 6 -10 9 -26 17 -35 17 -9 0 -17 4 -17 10 0 5
-11 12 -24 16 -29 7 -25 37 7 52 23 10 79 8 97 -3z m-3167 -2 c-7 -2 -19 -2
-25 0 -7 3 -2 5 12 5 14 0 19 -2 13 -5z m67 -3 c0 -5 -9 -10 -20 -10 -11 0
-20 5 -20 10 0 6 9 10 20 10 11 0 20 -4 20 -10z m3928 -2 c-6 -17 -88 -23
-102 -7 -8 9 0 10 37 5 28 -3 47 -2 47 4 0 6 5 10 11 10 6 0 9 -6 7 -12z m153
-23 c-7 -30 -7 -30 -14 -5 -4 14 -1 27 6 32 16 10 17 6 8 -27z m-4444 6 c-3
-15 0 -17 17 -13 17 4 19 2 9 -8 -6 -7 -19 -10 -27 -7 -18 7 -22 47 -5 47 6 0
9 -8 6 -19z m75 -3 c-6 -6 -15 -8 -19 -4 -4 4 -1 11 7 16 19 12 27 3 12 -12z
m341 15 c-7 -2 -19 -2 -25 0 -7 3 -2 5 12 5 14 0 19 -2 13 -5z m67 -3 c0 -5
-9 -10 -20 -10 -11 0 -20 5 -20 10 0 6 9 10 20 10 11 0 20 -4 20 -10z m55 0
c3 -5 -3 -10 -14 -10 -12 0 -21 5 -21 10 0 6 6 10 14 10 8 0 18 -4 21 -10z
m1466 -7 c0 -11 3 -13 6 -5 8 20 32 14 26 -7 -7 -27 -52 -8 -53 22 0 16 20 6
21 -10z m-1356 -3 c-3 -5 -12 -10 -20 -10 -8 0 -17 5 -20 10 -4 6 5 10 20 10
15 0 24 -4 20 -10z m55 0 c12 -8 11 -10 -7 -10 -13 0 -23 5 -23 10 0 13 11 13
30 0z m66 -9 c-3 -5 -15 -7 -26 -4 -28 7 -25 13 6 13 14 0 23 -4 20 -9z m59
-1 c3 -5 -3 -10 -14 -10 -12 0 -21 5 -21 10 0 6 6 10 14 10 8 0 18 -4 21 -10z
m3585 -10 c0 -11 -4 -20 -10 -20 -5 0 -10 9 -10 20 0 11 5 20 10 20 6 0 10 -9
10 -20z m-3527 3 c-7 -2 -21 -2 -30 0 -10 3 -4 5 12 5 17 0 24 -2 18 -5z m57
-3 c0 -5 -6 -10 -14 -10 -8 0 -18 5 -21 10 -3 6 3 10 14 10 12 0 21 -4 21 -10z
m130 -7 c0 -7 -11 -13 -25 -13 -15 0 -25 6 -25 14 0 9 10 13 25 12 14 0 25 -7
25 -13z m840 7 c0 -5 -9 -10 -20 -10 -11 0 -20 5 -20 10 0 6 9 10 20 10 11 0
20 -4 20 -10z m4050 -10 c0 -11 -4 -20 -10 -20 -5 0 -10 9 -10 20 0 11 5 20
10 20 6 0 10 -9 10 -20z m-4957 3 c-7 -2 -21 -2 -30 0 -10 3 -4 5 12 5 17 0
24 -2 18 -5z m120 -10 c-7 -2 -21 -2 -30 0 -10 3 -4 5 12 5 17 0 24 -2 18 -5z
m57 -3 c0 -5 -6 -10 -14 -10 -8 0 -18 5 -21 10 -3 6 3 10 14 10 12 0 21 -4 21
-10z m65 0 c4 -6 -5 -10 -20 -10 -15 0 -24 4 -20 10 3 6 12 10 20 10 8 0 17
-4 20 -10z m58 -7 c-7 -2 -21 -2 -30 0 -10 3 -4 5 12 5 17 0 24 -2 18 -5z m57
-3 c0 -5 -6 -10 -14 -10 -8 0 -18 5 -21 10 -3 6 3 10 14 10 12 0 21 -4 21 -10z
m55 0 c3 -5 -3 -10 -15 -10 -12 0 -18 5 -15 10 3 6 10 10 15 10 5 0 12 -4 15
-10z m455 0 c0 -5 -9 -10 -21 -10 -11 0 -17 5 -14 10 3 6 13 10 21 10 8 0 14
-4 14 -10z m-390 -9 c0 -5 -9 -7 -20 -4 -11 3 -20 7 -20 9 0 2 9 4 20 4 11 0
20 -4 20 -9z m145 -1 c6 -1 0 -5 -13 -9 -32 -8 -112 -1 -112 11 0 7 74 6 125
-2z m185 0 c0 -5 -10 -10 -22 -10 -19 0 -20 2 -8 10 19 13 30 13 30 0z m686
-2 c3 -4 -1 -5 -10 -4 -8 1 -18 5 -22 8 -3 4 1 5 10 4 8 -1 18 -5 22 -8z
m-813 -5 c-7 -2 -19 -2 -25 0 -7 3 -2 5 12 5 14 0 19 -2 13 -5z m60 0 c-7 -2
-19 -2 -25 0 -7 3 -2 5 12 5 14 0 19 -2 13 -5z m4217 -23 c0 -11 -4 -20 -10
-20 -5 0 -10 9 -10 20 0 11 5 20 10 20 6 0 10 -9 10 -20z m0 -60 c0 -11 -4
-20 -10 -20 -5 0 -10 9 -10 20 0 11 5 20 10 20 6 0 10 -9 10 -20z m-3350 -22
c0 -13 -23 -5 -28 10 -2 7 2 10 12 6 9 -3 16 -11 16 -16z m600 -14 c0 -8 5
-14 11 -14 5 0 7 -5 3 -12 -5 -8 -11 -6 -19 5 -14 20 -25 12 -25 -17 0 -17 -2
-18 -9 -7 -8 12 -12 12 -25 2 -8 -7 -21 -11 -28 -8 -7 2 4 12 25 22 28 14 37
25 37 43 0 21 2 22 15 12 8 -7 15 -19 15 -26z m-1177 6 c-3 -11 -7 -20 -9 -20
-2 0 -4 9 -4 20 0 11 4 20 9 20 5 0 7 -9 4 -20z m612 -19 c-2 -5 -17 -11 -32
-13 -16 -3 -36 -9 -47 -13 -16 -7 -17 -5 -8 11 7 14 22 20 51 21 23 1 39 -2
36 -6z m3315 -1 c0 -5 -4 -10 -10 -10 -5 0 -10 5 -10 10 0 6 5 10 10 10 6 0
10 -4 10 -10z m-1330 -31 c0 -11 -4 -17 -10 -14 -5 3 -10 15 -10 26 0 11 5 17
10 14 6 -3 10 -15 10 -26z m-176 -14 c38 -29 62 -31 88 -8 23 20 32 12 24 -22
-6 -24 -36 -36 -36 -15 0 6 -11 10 -25 10 -25 0 -95 38 -95 53 0 12 10 8 44
-18z m1506 5 c0 -11 -4 -20 -10 -20 -5 0 -10 9 -10 20 0 11 5 20 10 20 6 0 10
-9 10 -20z m-1280 -10 c0 -5 -6 -10 -14 -10 -8 0 -18 5 -21 10 -3 6 3 10 14
10 12 0 21 -4 21 -10z m50 -10 c0 -17 -2 -19 -14 -8 -14 13 -12 28 5 28 5 0 9
-9 9 -20z m-2710 -10 c0 -11 -4 -20 -10 -20 -5 0 -10 9 -10 20 0 11 5 20 10
20 6 0 10 -9 10 -20z m540 13 c0 -14 -19 -38 -25 -32 -8 8 5 39 16 39 5 0 9
-3 9 -7z m1801 -35 c6 -13 21 -33 32 -45 l20 -23 -21 0 c-11 0 -24 -4 -27 -10
-3 -5 -14 -10 -23 -9 -11 0 -12 3 -4 6 18 7 15 23 -5 23 -16 1 -16 2 1 11 14
9 20 8 27 -2 5 -9 9 -9 9 -3 0 7 -9 22 -19 35 -16 19 -22 22 -32 12 -15 -15
-29 -17 -29 -5 0 8 36 30 52 31 4 1 13 -9 19 -21z m1586 -20 c-3 -7 -5 -2 -5
12 0 14 2 19 5 13 2 -7 2 -19 0 -25z m-3883 6 c4 -10 1 -14 -6 -12 -15 5 -23
28 -10 28 5 0 13 -7 16 -16z m2686 -6 c0 -19 -2 -20 -10 -8 -13 19 -13 30 0
30 6 0 10 -10 10 -22z m-2224 -25 c-11 -11 -19 6 -11 24 8 17 8 17 12 0 3 -10
2 -21 -1 -24z m3400 -19 c-4 -9 -9 -15 -11 -12 -3 3 -3 13 1 22 4 9 9 15 11
12 3 -3 3 -13 -1 -22z m-3846 -10 c0 -8 -4 -14 -10 -14 -5 0 -10 9 -10 21 0
11 5 17 10 14 6 -3 10 -13 10 -21z m425 6 c-3 -5 -13 -10 -21 -10 -8 0 -12 5
-9 10 3 6 13 10 21 10 8 0 12 -4 9 -10z m2231 -6 c-4 -12 -2 -15 9 -11 8 4 17
2 20 -3 7 -11 -19 -13 -52 -4 -27 7 -30 21 -5 27 31 8 34 7 28 -9z m72 -19
c-2 -10 -7 -12 -17 -5 -13 7 -13 11 -1 25 15 18 24 8 18 -20z m-2254 -14 c-6
-6 -24 19 -24 34 1 6 7 1 15 -9 8 -11 12 -22 9 -25z m2116 29 c0 -5 -9 -10
-21 -10 -12 0 -19 -5 -16 -12 7 -20 -22 -46 -44 -41 -19 5 -19 6 3 17 13 6 23
16 23 21 0 19 16 35 36 35 10 0 19 -4 19 -10z m-2150 -22 c0 -16 -3 -19 -11
-11 -6 6 -8 16 -5 22 11 17 16 13 16 -11z m-454 -35 c-11 -11 -19 6 -11 24 8
17 8 17 12 0 3 -10 2 -21 -1 -24z m3834 22 c-7 -9 -15 -13 -17 -11 -7 7 7 26
19 26 6 0 6 -6 -2 -15z m-2022 -17 c17 -17 15 -48 -3 -48 -8 0 -15 9 -15 20 0
11 -5 20 -11 20 -5 0 -7 5 -4 10 8 13 18 13 33 -2z m880 5 c-10 -2 -18 -11
-18 -19 0 -21 -17 -17 -23 6 -4 17 0 20 26 19 18 -1 24 -3 15 -6z m-2628 -44
c0 -6 -7 -9 -15 -6 -8 4 -17 2 -20 -3 -8 -13 -25 -13 -25 0 0 6 6 17 13 24 13
15 47 4 47 -15z m3740 21 c0 -5 -11 -12 -24 -16 -14 -3 -27 -12 -30 -20 -6
-17 -32 -19 -42 -3 -7 12 15 31 28 23 5 -3 15 2 24 10 17 18 44 21 44 6z
m-1709 -37 c5 -13 9 -35 9 -48 0 -13 4 -25 10 -27 11 -4 1 -48 -11 -48 -5 0
-9 7 -9 15 0 12 -7 14 -27 9 -23 -5 -26 -4 -15 7 15 16 16 46 0 51 -6 2 -8 10
-4 16 10 17 26 15 20 -3 -7 -18 11 -20 22 -3 4 6 -4 20 -19 33 -32 25 -34 35
-6 28 11 -3 25 -17 30 -30z m-2116 -13 c-3 -5 -14 -10 -23 -10 -15 0 -15 2 -2
10 20 13 33 13 25 0z m55 -14 c0 -8 -4 -18 -10 -21 -5 -3 -10 3 -10 14 0 12 5
21 10 21 6 0 10 -6 10 -14z m3659 -12 c-6 -8 -16 -14 -21 -14 -5 0 -16 -7 -24
-15 -9 -8 -21 -15 -27 -15 -7 0 6 16 28 34 38 33 69 39 44 10z m-3719 -15 c0
-6 7 -9 15 -5 22 8 18 -11 -4 -23 -15 -8 -20 -7 -25 5 -9 23 -7 34 4 34 6 0
10 -5 10 -11z m3630 -38 c0 -5 -7 -12 -16 -15 -24 -9 -28 -7 -14 9 14 17 30
20 30 6z m-3633 -43 c-3 -7 -5 -2 -5 12 0 14 2 19 5 13 2 -7 2 -19 0 -25z
m3583 13 c0 -5 -7 -12 -16 -15 -24 -9 -28 -7 -14 9 14 17 30 20 30 6z m-65
-40 c-3 -6 -11 -11 -17 -11 -6 0 -6 6 2 15 14 17 26 13 15 -4z m-50 -30 c-3
-6 -11 -11 -17 -11 -6 0 -6 6 2 15 14 17 26 13 15 -4z m-55 -36 c-7 -9 -15
-13 -17 -11 -7 7 7 26 19 26 6 0 6 -6 -2 -15z m-2217 -15 c3 -11 1 -23 -4 -26
-5 -3 -9 0 -9 6 0 8 -6 8 -21 0 -11 -6 -25 -9 -32 -7 -7 2 0 10 16 17 15 7 27
17 27 22 0 16 18 7 23 -12z m-1047 -26 c4 -14 2 -36 -4 -49 -8 -18 -8 -25 1
-29 7 -2 0 -5 -15 -5 -28 -1 -47 14 -27 21 6 2 12 23 13 46 1 47 22 58 32 16z
m3214 11 c-7 -9 -15 -13 -17 -11 -7 7 7 26 19 26 6 0 6 -6 -2 -15z m-50 -35
c-24 -15 -37 -11 -16 5 11 8 22 12 25 9 3 -3 -1 -9 -9 -14z m-2091 1 c15 -10
8 -41 -8 -41 -6 0 -8 7 -5 15 4 8 1 15 -5 15 -6 0 -11 5 -11 10 0 12 10 13 29
1z m-324 -28 c8 4 15 2 15 -3 0 -6 -5 -10 -10 -10 -18 0 -53 -38 -45 -49 3 -6
-1 -11 -9 -11 -9 0 -16 2 -16 4 0 2 -3 12 -7 22 -4 11 -3 15 5 10 14 -9 31 21
25 48 -4 20 -4 20 11 2 8 -10 22 -16 31 -13z m2365 -8 c-7 -9 -15 -13 -18 -10
-3 2 1 11 8 20 7 9 15 13 18 10 3 -2 -1 -11 -8 -20z m-1905 -62 c2 -15 -2 -23
-11 -23 -8 0 -14 9 -14 20 0 11 -3 19 -7 19 -19 -3 -33 2 -33 11 0 5 6 7 14 4
9 -3 17 3 22 18 l7 23 10 -25 c5 -14 11 -35 12 -47z m1865 38 c0 -5 -7 -11
-15 -15 -15 -5 -20 5 -8 17 9 10 23 9 23 -2z m-1610 -5 c0 -2 -9 -6 -20 -9
-11 -3 -20 -1 -20 4 0 5 9 9 20 9 11 0 20 -2 20 -4z m350 -32 c0 -18 66 -19
77 -1 7 11 12 11 33 0 19 -9 21 -13 7 -13 -14 0 -16 -6 -11 -27 l6 -28 -19 23
c-16 20 -25 22 -61 16 -23 -4 -42 -12 -42 -18 0 -6 -18 -22 -39 -36 -39 -23
-39 -24 -25 -52 8 -16 10 -28 4 -28 -5 0 -10 3 -10 8 0 4 -6 15 -14 24 -12 16
-18 15 -90 -8 -43 -13 -87 -29 -97 -35 -16 -8 -19 -6 -19 11 0 13 5 20 13 17
18 -6 166 41 215 69 23 14 42 31 42 39 0 8 5 15 10 15 6 0 8 11 4 26 -5 19 -4
25 5 20 6 -4 11 -14 11 -22z m-400 0 c0 -2 -9 -4 -21 -4 -11 0 -18 4 -14 10 5
8 35 3 35 -6z m1602 -6 c-6 -6 -15 -8 -19 -4 -4 4 -1 11 7 16 8 5 17 7 19 4 3
-2 -1 -10 -7 -16z m-1672 -18 c-8 -5 -17 -7 -19 -4 -3 3 1 9 9 14 8 5 17 7 19
4 3 -3 -1 -9 -9 -14z m1620 -15 c-7 -9 -15 -13 -17 -11 -7 7 7 26 19 26 6 0 6
-6 -2 -15z m-1880 -2 c0 -5 -52 -37 -115 -72 -63 -35 -118 -67 -121 -72 -3 -5
-5 -119 -5 -254 0 -135 -3 -245 -8 -245 -14 0 -23 327 -12 405 14 92 14 95 -4
95 -8 0 -15 -6 -16 -12 0 -10 -2 -10 -6 0 -6 14 -73 17 -73 2 0 -5 -4 -10 -10
-10 -5 0 -10 10 -10 23 0 21 3 22 72 20 l73 -3 110 65 c111 65 125 71 125 58z
m210 -14 c-7 -11 -14 -18 -17 -15 -8 8 5 36 17 36 7 0 7 -6 0 -21z m1620 -19
c-8 -5 -17 -7 -19 -4 -3 3 1 9 9 14 8 5 17 7 19 4 3 -3 -1 -9 -9 -14z m-2117
-35 c-2 -5 -17 -11 -33 -12 -18 -1 -28 2 -25 7 4 6 13 10 22 10 9 0 13 6 10
14 -3 8 -1 17 6 19 13 4 27 -21 20 -38z m547 -6 l-25 -19 23 -6 c12 -4 22 -10
22 -15 0 -5 16 -17 36 -27 33 -17 35 -19 15 -25 -11 -3 -21 -2 -21 2 0 4 -22
20 -50 36 -27 17 -50 32 -50 35 0 9 64 50 69 44 3 -3 -5 -14 -19 -25z m1525
12 c-3 -6 -11 -11 -17 -11 -6 0 -6 6 2 15 14 17 26 13 15 -4z m-49 -36 c-21
-16 -32 -13 -21 4 3 6 14 11 23 11 15 -1 15 -2 -2 -15z m-54 -37 c-6 -6 -15
-8 -19 -4 -4 4 -1 11 7 16 8 5 17 7 19 4 3 -2 -1 -10 -7 -16z m-1836 -21 c-1
-24 -6 -33 -18 -34 -10 -1 -18 2 -18 7 0 5 -3 16 -7 26 -4 11 -3 15 4 11 6 -4
16 0 23 8 17 20 17 20 16 -18z m413 -12 c41 -27 61 -61 61 -100 0 -21 -5 -25
-29 -25 -20 0 -32 6 -36 19 -10 33 -53 71 -79 71 -14 0 -28 5 -32 11 -5 9 3
10 28 5 26 -5 39 -2 49 10 12 15 11 16 -11 9 -22 -7 -23 -6 -11 9 17 20 14 21
60 -9z m1371 0 c-7 -9 -15 -13 -17 -11 -7 7 7 26 19 26 6 0 6 -6 -2 -15z m-35
-25 c-3 -5 -11 -10 -16 -10 -6 0 -7 5 -4 10 3 6 11 10 16 10 6 0 7 -4 4 -10z
m-1421 -55 c-4 -8 -10 -15 -15 -15 -6 0 -5 -8 1 -19 17 -32 10 -40 -19 -22
-11 7 -10 14 5 40 19 32 38 43 28 16z m1341 -11 c-30 -28 -43 -26 -25 3 7 10
21 20 32 20 17 2 17 -1 -7 -23z m-1595 -16 c0 -4 -9 -10 -21 -13 -16 -5 -19
-12 -15 -31 4 -14 2 -24 -4 -24 -5 0 -11 9 -11 20 -1 11 -2 26 -3 33 -1 6 -8
15 -16 19 -8 3 4 6 27 5 24 -1 43 -5 43 -9z m1536 -30 c-10 -6 -20 -7 -24 -3
-9 8 20 25 31 18 5 -3 2 -10 -7 -15z m-51 -8 c-3 -5 -13 -10 -21 -10 -8 0 -12
5 -9 10 3 6 13 10 21 10 8 0 12 -4 9 -10z m-1726 -56 c16 10 14 -6 -4 -31 -8
-12 -12 -29 -8 -39 5 -14 3 -16 -11 -11 -10 4 -38 7 -62 7 -60 0 -59 24 2 39
44 11 45 12 39 44 l-6 32 19 -24 c11 -13 24 -21 31 -17z m1671 21 c-7 -9 -15
-13 -17 -11 -7 7 7 26 19 26 6 0 6 -6 -2 -15z m-49 -52 c-10 -17 -10 -16 -11
3 0 23 13 41 18 25 2 -6 -1 -18 -7 -28z m-26 -13 c-3 -5 -13 -10 -21 -10 -8 0
-14 5 -14 10 0 6 9 10 21 10 11 0 17 -4 14 -10z m-60 -29 c-3 -6 -14 -11 -23
-11 -15 1 -15 2 2 15 21 16 32 13 21 -4z m-55 -36 c-7 -8 -17 -12 -22 -9 -5 3
-1 12 9 19 22 17 30 11 13 -10z m-40 -24 c0 -5 -7 -11 -15 -15 -15 -5 -20 5
-8 17 9 10 23 9 23 -2z m-1065 -51 c-4 -11 -12 -20 -18 -20 -6 0 -69 -35 -138
-77 l-127 -77 -4 -68 c-5 -63 -3 -74 24 -124 16 -30 34 -54 39 -54 5 0 9 -9 9
-20 0 -11 20 -61 45 -110 25 -50 42 -90 37 -90 -4 0 -26 37 -49 83 -23 45 -49
93 -56 107 -59 103 -67 127 -67 208 0 72 2 81 20 87 11 4 18 10 15 15 -3 4 1
7 8 6 22 -2 247 138 246 154 -2 29 2 35 12 17 6 -9 7 -26 4 -37z m1010 11 c-3
-6 -14 -11 -23 -11 -15 1 -15 2 2 15 21 16 32 13 21 -4z m-50 -30 c-3 -6 -14
-11 -23 -11 -13 0 -13 2 4 14 21 15 30 14 19 -3z m-45 -30 c0 -5 -7 -11 -15
-15 -15 -5 -20 5 -8 17 9 10 23 9 23 -2z m-55 -40 c-3 -6 -14 -11 -23 -11 -15
1 -15 2 2 15 21 16 32 13 21 -4z m-50 -30 c-3 -6 -11 -11 -17 -11 -6 0 -6 6 2
15 14 17 26 13 15 -4z m-45 -30 c0 -5 -7 -11 -15 -15 -15 -5 -20 5 -8 17 9 10
23 9 23 -2z m-58 -43 c-6 -6 -15 -8 -19 -4 -4 4 -1 11 7 16 19 12 27 3 12 -12z
m-47 -27 c-3 -6 -11 -11 -17 -11 -6 0 -6 6 2 15 14 17 26 13 15 -4z m-45 -30
c0 -5 -7 -11 -15 -15 -15 -5 -20 5 -8 17 9 10 23 9 23 -2z m-58 -43 c-6 -6
-15 -8 -19 -4 -4 4 -1 11 7 16 19 12 27 3 12 -12z m-905 -24 c-9 -9 -28 6 -21
18 4 6 10 6 17 -1 6 -6 8 -13 4 -17z m-729 9 c-10 -2 -26 -2 -35 0 -10 3 -2 5
17 5 19 0 27 -2 18 -5z m1587 -12 c-3 -6 -11 -11 -17 -11 -6 0 -6 6 2 15 14
17 26 13 15 -4z m-1427 -28 c-10 -2 -26 -2 -35 0 -10 3 -2 5 17 5 19 0 27 -2
18 -5z m1382 -2 c0 -5 -7 -11 -15 -15 -15 -5 -20 5 -8 17 9 10 23 9 23 -2z
m-2387 -8 c-7 -2 -21 -2 -30 0 -10 3 -4 5 12 5 17 0 24 -2 18 -5z m2329 -35
c-6 -6 -15 -8 -19 -4 -4 4 -1 11 7 16 19 12 27 3 12 -12z m-47 -27 c-3 -6 -11
-11 -17 -11 -6 0 -6 6 2 15 14 17 26 13 15 -4z m-45 -30 c0 -5 -7 -11 -15 -15
-15 -5 -20 5 -8 17 9 10 23 9 23 -2z m-58 -43 c-6 -6 -15 -8 -19 -4 -4 4 -1
11 7 16 19 12 27 3 12 -12z m-38 -33 c-6 -16 -24 -21 -24 -7 0 11 11 22 21 22
5 0 6 -7 3 -15z m-16 -52 c-2 -9 -10 -18 -18 -21 -8 -3 -12 -1 -8 3 4 5 3 14
-3 22 -9 10 -7 13 11 13 15 0 20 -5 18 -17z m-201 -495 c-3 -8 -6 -5 -6 6 -1
11 2 17 5 13 3 -3 4 -12 1 -19z m-50 -110 c-3 -8 -6 -5 -6 6 -1 11 2 17 5 13
3 -3 4 -12 1 -19z m60 -490 c-3 -7 -5 -2 -5 12 0 14 2 19 5 13 2 -7 2 -19 0
-25z m-50 -150 c-3 -8 -6 -5 -6 6 -1 11 2 17 5 13 3 -3 4 -12 1 -19z m-3130
-145 c-20 -2 -52 -2 -70 0 -17 2 0 4 38 4 39 0 53 -2 32 -4z m756 -40 c-13 -2
-35 -2 -50 0 -16 2 -5 4 22 4 28 0 40 -2 28 -4z"/>
<path d="M5645 5780 c-3 -5 -1 -10 4 -10 6 0 11 5 11 10 0 6 -2 10 -4 10 -3 0
-8 -4 -11 -10z"/>
<path d="M5940 5132 c-39 -17 -66 -34 -68 -45 -3 -15 10 -17 152 -17 l156 0 0
45 0 45 -87 0 c-73 -1 -99 -5 -153 -28z"/>
<path d="M6200 5115 l0 -45 240 0 240 0 0 28 c0 59 -14 62 -258 62 l-222 0 0
-45z"/>
<path d="M5460 4990 c-25 -50 -25 -52 5 -38 22 10 35 30 41 66 5 28 -27 9 -46
-28z"/>
<path d="M5525 4999 c-4 -6 -5 -12 -2 -15 7 -7 37 7 37 17 0 13 -27 11 -35 -2z"/>
<path d="M4160 4988 c0 -6 -9 -8 -20 -5 -28 7 -25 -8 5 -21 14 -6 25 -16 25
-22 0 -5 6 -10 14 -10 8 0 21 -21 31 -50 18 -54 20 -55 59 -40 18 6 26 6 26
-1 0 -5 -13 -15 -29 -20 -23 -8 -28 -15 -23 -31 3 -14 1 -19 -6 -14 -13 8 -16
-4 -4 -19 9 -13 70 -17 77 -4 4 5 11 7 16 4 5 -4 9 -3 9 0 0 12 -26 33 -46 37
-17 4 -16 6 8 18 16 7 24 18 20 24 -3 6 -8 22 -10 36 -2 14 -11 41 -20 60 -15
32 -20 35 -54 32 -28 -2 -38 1 -38 11 0 8 -9 17 -20 20 -11 3 -20 1 -20 -5z
m90 -128 c0 -5 -4 -10 -10 -10 -5 0 -10 5 -10 10 0 6 5 10 10 10 6 0 10 -4 10
-10z"/>
<path d="M4114 4938 c18 -67 19 -71 7 -64 -6 4 -11 2 -11 -3 0 -6 7 -11 15
-11 8 0 15 -4 15 -10 0 -5 9 -10 20 -10 23 0 24 8 9 60 -7 24 -21 42 -37 49
-23 11 -24 10 -18 -11z"/>
<path d="M4380 4819 c-11 -8 -12 -12 -2 -16 19 -8 14 -39 -12 -70 -27 -32 -36
-64 -21 -69 16 -6 65 80 65 112 0 40 -12 56 -30 43z"/>
<path d="M3367 4603 c-4 -3 -7 -11 -7 -17 0 -6 5 -5 12 2 6 6 9 14 7 17 -3 3
-9 2 -12 -2z"/>
<path d="M3431 4584 c0 -11 3 -14 6 -6 3 7 2 16 -1 19 -3 4 -6 -2 -5 -13z"/>
<path d="M3831 3994 c-91 -47 -133 -64 -163 -64 l-39 0 3 -37 c4 -49 33 -55
98 -19 56 31 54 30 75 10 15 -15 18 -15 43 8 15 13 38 29 52 35 14 6 40 22 57
37 24 20 30 33 29 58 -1 20 -7 34 -16 35 -8 1 -71 -27 -139 -63z"/>
<path d="M3735 3859 c-17 -11 -48 -19 -71 -19 l-42 0 -5 -147 c-4 -82 -9 -163
-13 -180 -8 -42 5 -41 36 2 14 20 56 53 98 76 80 45 80 45 42 119 -20 38 -44
110 -38 114 1 1 16 10 31 19 15 10 25 22 22 27 -9 14 -26 11 -60 -11z"/>
<path d="M3758 3585 c-64 -34 -102 -67 -126 -107 -9 -16 -21 -28 -27 -28 -6 0
-27 -16 -45 -35 -19 -20 -85 -63 -147 -96 -62 -33 -113 -62 -113 -65 0 -2 24
-53 54 -112 56 -112 85 -148 110 -139 8 3 16 2 18 -4 2 -5 41 14 87 41 46 28
95 50 108 50 14 0 36 9 50 20 14 11 47 23 75 26 64 9 123 55 132 104 13 67 18
130 10 130 -4 0 -18 -10 -31 -22 -13 -12 -23 -17 -23 -11 0 13 45 55 52 48 3
-3 8 6 12 20 4 14 11 25 16 25 13 0 13 -17 -1 -26 -6 -4 -9 -31 -7 -69 1 -35
-1 -67 -5 -71 -14 -15 -7 -59 13 -71 15 -10 21 -10 27 1 4 8 32 26 61 41 28
14 52 27 52 28 0 1 -24 0 -54 -1 l-55 -4 -7 37 c-3 20 -1 69 5 107 6 39 10 73
7 75 -3 3 -91 -41 -197 -96 -105 -56 -194 -99 -197 -96 -7 7 -13 3 150 89
l148 77 -34 67 c-54 105 -51 104 -118 67z"/>
<path d="M4005 3010 c-3 -6 1 -7 9 -4 18 7 21 14 7 14 -6 0 -13 -4 -16 -10z"/>
<path d="M3484 2965 c-4 -11 -13 -35 -20 -52 -15 -37 -14 -37 20 -22 33 15 39
34 22 67 -14 25 -15 26 -22 7z"/>
<path d="M3568 2913 c-10 -2 -18 -11 -18 -19 0 -12 4 -12 20 -4 11 6 20 15 20
20 0 6 -1 9 -2 9 -2 -1 -11 -3 -20 -6z"/>
<path d="M3615 2910 c3 -5 8 -10 11 -10 2 0 4 5 4 10 0 6 -5 10 -11 10 -5 0
-7 -4 -4 -10z"/>
<path d="M3380 2880 c-8 -5 -25 -10 -38 -10 -12 0 -25 -7 -28 -15 -4 -8 -33
-30 -66 -49 -33 -18 -54 -36 -47 -38 7 -2 35 11 62 29 27 18 56 33 66 33 17 1
93 59 76 60 -5 0 -17 -5 -25 -10z"/>
<path d="M3478 2871 c-29 -17 -37 -46 -15 -54 17 -6 87 42 81 57 -7 17 -35 16
-66 -3z"/>
<path d="M3360 2825 c-7 -8 -18 -15 -26 -15 -24 0 -84 -33 -84 -47 0 -7 -3
-12 -7 -12 -22 4 -43 -2 -43 -11 0 -5 18 -10 39 -10 34 0 47 7 96 55 32 30 53
55 48 55 -6 0 -16 -7 -23 -15z"/>
<path d="M3416 2814 c-7 -17 0 -34 14 -34 14 0 18 25 5 37 -10 10 -14 9 -19
-3z"/>
<path d="M3170 2740 c0 -5 5 -10 10 -10 6 0 10 5 10 10 0 6 -4 10 -10 10 -5 0
-10 -4 -10 -10z"/>
<path d="M3168 2714 c-13 -12 3 -24 33 -24 16 0 29 5 29 11 0 7 -9 9 -24 5
-14 -3 -26 -1 -28 5 -2 5 -7 7 -10 3z"/>
<path d="M3249 2693 c-1 -10 -1 -21 0 -26 1 -4 -10 -12 -23 -18 -25 -12 -25
-21 -3 -67 14 -30 77 -58 88 -40 5 7 -1 26 -12 44 -11 19 -19 49 -19 78 0 34
-4 46 -15 46 -8 0 -16 -8 -16 -17z"/>
<path d="M3230 2504 c0 -18 23 -30 28 -16 2 7 8 10 12 7 5 -3 11 -1 14 4 3 5
-8 11 -24 13 -20 3 -30 0 -30 -8z"/>
<path d="M3290 2468 c0 -7 7 -21 14 -31 13 -17 15 -17 31 -1 16 17 16 18 -1
31 -23 16 -44 17 -44 1z"/>
<path d="M2703 4453 c-32 -6 -44 -26 -50 -87 l-6 -56 74 0 c41 0 92 -3 113 -7
l39 -6 -7 54 c-12 90 -63 122 -163 102z"/>
<path d="M2756 4253 c-3 -21 -6 -64 -6 -95 l0 -58 54 0 53 0 6 68 c13 128 15
122 -47 122 l-53 0 -7 -37z"/>
<path d="M4448 2725 c-6 -31 8 -55 34 -55 15 0 18 4 13 18 -4 9 -9 25 -12 34
-8 27 -30 29 -35 3z"/>
<path d="M7923 7733 c-7 -2 -13 -11 -13 -19 0 -9 4 -13 8 -10 4 2 14 -4 21
-16 9 -15 10 -18 0 -13 -7 5 -10 4 -6 -2 4 -6 20 -16 37 -21 30 -11 30 -10 30
24 0 28 -4 34 -20 34 -11 0 -23 7 -26 15 -6 16 -11 17 -31 8z"/>
<path d="M7910 7656 c0 -9 5 -16 10 -16 6 0 10 4 10 9 0 6 -4 13 -10 16 -5 3
-10 -1 -10 -9z"/>
</g>
</svg>
