<?xml version="1.0" standalone="no"?>
<!DOCTYPE svg PUBLIC "-//W3C//DTD SVG 20010904//EN"
 "http://www.w3.org/TR/2001/REC-SVG-20010904/DTD/svg10.dtd">
<svg version="1.0" xmlns="http://www.w3.org/2000/svg"
 width="800.000000pt" height="800.000000pt" viewBox="0 0 800.000000 800.000000"
 preserveAspectRatio="xMidYMid meet">
<metadata>
Created by potrace 1.16, written by Peter Selinger 2001-2019
</metadata>
<g transform="translate(0.000000,800.000000) scale(0.100000,-0.100000)"
fill="#000000" stroke="none">
<path d="M38 7983 l-38 -15 0 -1008 c0 -952 1 -1009 18 -1013 16 -4 16 -5 -1
-6 -16 -1 -17 -10 -15 -88 l3 -87 45 -12 c25 -6 77 -26 115 -44 68 -31 388
-140 412 -140 7 0 20 11 29 25 22 33 12 68 -36 125 -26 31 -42 61 -46 90 -4
24 -16 52 -26 62 -23 23 -18 34 10 19 14 -8 22 -26 27 -61 5 -39 17 -63 49
-103 50 -61 62 -104 39 -136 -8 -12 -13 -24 -10 -27 12 -13 217 -44 287 -44
106 0 172 -28 218 -94 25 -34 51 -55 100 -80 76 -38 81 -37 164 19 52 34 54
35 155 35 97 0 109 2 205 41 57 22 106 44 110 48 4 4 35 4 68 1 54 -5 66 -3
109 22 29 17 73 58 106 98 32 39 75 84 96 101 21 16 47 45 59 64 13 21 52 53
98 82 42 26 80 52 84 57 4 6 12 5 21 -3 23 -18 60 -4 85 34 13 21 30 35 42 35
11 0 20 1 20 3 0 2 -11 36 -25 76 -27 80 -74 147 -108 154 l-22 4 22 2 23 1
-20 50 c-38 97 -61 131 -166 248 -125 138 -136 158 -123 227 12 64 34 89 24
27 -14 -89 -10 -111 32 -156 205 -218 217 -234 264 -371 7 -22 25 -56 40 -75
14 -19 30 -46 34 -60 4 -14 16 -49 27 -77 17 -47 23 -53 48 -53 22 0 28 4 24
14 -3 8 -1 23 5 33 9 16 10 15 11 -9 l0 -27 48 25 c45 24 51 25 168 18 l121
-7 7 33 c7 38 15 36 18 -3 2 -26 5 -27 55 -27 28 0 55 5 58 10 3 6 11 10 18
10 8 0 8 -3 -1 -12 -28 -28 5 -80 61 -93 15 -4 27 -12 27 -17 0 -6 -7 -7 -16
-4 -26 10 -50 -10 -64 -53 -10 -32 -18 -41 -36 -41 -28 0 -104 -85 -104 -116
0 -12 -3 -36 -6 -54 l-7 -32 -54 7 c-50 6 -54 5 -49 -12 3 -10 -1 -43 -9 -73
-8 -30 -15 -71 -15 -90 0 -30 -5 -38 -38 -55 -22 -13 -36 -27 -36 -38 1 -9 -2
-14 -7 -12 -4 3 -12 -1 -16 -9 -16 -28 -116 -96 -142 -96 -14 0 -64 14 -110
30 -46 17 -101 30 -123 30 -28 0 -53 9 -85 31 -44 31 -46 31 -79 16 -21 -10
-36 -13 -39 -6 -4 5 -33 8 -65 7 -32 -2 -56 -6 -53 -10 2 -5 -1 -8 -7 -8 -7 0
-14 8 -17 18 -2 11 -20 25 -38 32 -19 7 -33 18 -32 23 1 5 -4 12 -11 14 -8 3
-10 -2 -6 -14 5 -16 4 -16 -10 1 -9 11 -16 23 -16 27 0 12 -59 32 -80 26 -11
-3 -22 -2 -25 3 -8 12 -70 -5 -179 -50 -93 -38 -105 -40 -200 -40 l-101 0 -60
-40 c-33 -22 -68 -40 -77 -40 -10 0 -48 14 -85 30 -55 25 -75 41 -106 83 -49
69 -125 102 -209 92 -104 -13 -496 85 -718 180 -43 18 -81 31 -85 27 -3 -4
-10 -1 -14 6 -4 7 -21 16 -38 21 l-30 9 11 -30 c7 -20 26 -38 57 -53 25 -13
51 -31 58 -39 8 -9 19 -16 27 -16 8 0 13 -11 12 -27 0 -16 5 -43 13 -61 13
-30 12 -36 -13 -80 -21 -38 -25 -56 -21 -93 5 -45 5 -46 -28 -57 l-34 -12 22
19 c18 15 23 30 23 68 0 31 7 60 20 81 20 33 20 35 3 90 -23 73 -36 89 -100
117 -37 17 -53 30 -56 47 -2 12 -5 -1265 -6 -2840 l-1 -2862 4000 0 4000 0 0
770 c0 505 -4 770 -10 770 -6 0 -11 15 -11 33 -1 17 -3 24 -6 15 -3 -13 -14
-18 -36 -17 -32 0 -81 16 -62 19 6 1 -3 6 -19 10 -34 11 -124 1 -133 -14 -4
-5 -10 -31 -15 -56 -4 -25 -9 -51 -11 -58 -4 -18 -27 -32 -53 -32 -17 0 -20
-5 -16 -28 3 -23 -1 -30 -23 -40 -15 -7 -30 -10 -33 -8 -2 3 7 10 21 17 23 10
24 14 15 46 -10 36 -3 57 11 34 25 -41 80 30 81 105 l0 42 57 7 c55 7 120 35
81 35 -9 0 -20 9 -23 20 -3 11 -11 20 -16 20 -5 0 -9 9 -9 19 0 16 -9 21 -45
27 -26 3 -45 12 -45 19 0 7 -7 16 -16 19 -12 5 -15 14 -10 36 4 22 2 30 -8 30
-8 0 -19 15 -26 33 -6 17 -22 45 -36 61 -23 26 -26 27 -43 12 -23 -21 -41 -20
-66 4 -49 47 -61 55 -80 52 -11 -2 -27 -10 -35 -18 -26 -23 -43 -2 -39 49 4
45 3 46 -21 40 -14 -3 -32 -12 -41 -19 -21 -19 -65 -18 -73 2 -8 21 -8 24 4
24 6 0 10 -7 10 -15 0 -20 20 -18 50 5 41 32 125 21 91 -13 -11 -11 -16 -67
-5 -67 3 0 12 7 20 15 20 19 70 19 78 0 3 -8 14 -15 24 -15 10 0 24 -11 30
-25 14 -30 22 -31 45 -5 23 27 41 25 55 -5 6 -14 16 -25 21 -25 6 0 16 -18 22
-40 7 -22 17 -40 24 -40 18 0 33 63 28 112 -4 39 -2 44 23 56 37 16 53 15 60
-3 5 -13 127 -105 139 -105 14 0 40 38 37 54 -5 26 16 45 28 26 6 -10 10 28
10 112 l0 126 -35 12 c-19 6 -35 16 -35 21 0 5 11 4 26 -1 14 -6 29 -10 35
-10 10 0 13 2090 3 2127 -4 13 -10 20 -15 17 -5 -3 -9 2 -9 10 0 8 -6 21 -14
29 -8 7 -13 26 -13 40 2 28 11 35 22 17 12 -19 33 -10 33 15 0 15 -6 25 -15
25 -8 0 -11 -5 -7 -12 5 -8 2 -9 -10 -5 -10 4 -21 7 -24 7 -4 0 0 5 8 11 11 7
3 9 -30 5 -33 -4 -38 -3 -20 3 14 5 18 9 10 10 -8 1 -24 14 -34 30 -20 30 -63
56 -109 67 -15 3 -31 13 -36 21 -7 13 -12 13 -40 -1 -31 -16 -31 -18 -25 -69
4 -29 19 -83 35 -121 32 -76 32 -76 20 -76 -17 0 -69 146 -76 214 -4 44 -3 66
3 62 16 -10 71 15 77 35 9 26 54 71 68 66 22 -7 18 -26 -8 -33 -14 -3 -30 -15
-36 -26 -9 -16 -7 -20 10 -25 12 -3 21 -10 21 -16 0 -7 5 -6 12 2 11 10 9 15
-6 27 -19 14 -19 14 2 14 13 0 22 -6 22 -16 0 -8 5 -12 10 -9 6 3 10 0 10 -7
0 -11 2 -10 9 0 6 11 9 9 14 -7 7 -28 -3 -34 -26 -14 -16 14 -19 15 -15 3 2
-8 15 -20 27 -26 12 -7 33 -27 46 -46 16 -23 35 -37 56 -42 60 -12 59 -13 59
80 0 71 -3 89 -18 100 -16 13 -16 13 1 14 16 0 17 36 17 620 l0 620 -32 0
c-18 0 -62 -14 -97 -30 -35 -17 -66 -28 -70 -25 -3 3 1 10 8 14 19 12 3 34
-20 28 -21 -6 -25 3 -7 21 16 16 48 -4 48 -31 0 -14 3 -18 8 -10 10 16 67 39
120 48 l42 7 0 760 0 760 -57 -7 -58 -6 -24 39 c-15 25 -47 52 -89 78 -54 32
-73 50 -101 99 l-35 60 -15 -62 c-12 -52 -19 -64 -42 -74 -16 -6 -26 -16 -22
-22 3 -6 1 -7 -5 -3 -14 8 -134 -58 -124 -69 4 -4 1 -5 -6 -1 -14 9 -105 -39
-230 -120 -45 -30 -85 -54 -87 -54 -19 0 7 22 75 65 44 27 80 53 80 57 0 15
-42 30 -53 19 -6 -6 -34 -11 -63 -11 l-52 0 -37 110 c-20 61 -41 110 -46 110
-5 0 -9 -4 -9 -10 0 -5 -5 -10 -10 -10 -6 0 -3 15 6 32 l17 33 17 -40 c10 -23
30 -80 46 -128 l28 -87 37 0 c21 0 41 5 44 10 9 15 57 12 78 -5 15 -10 25 -11
43 -3 13 6 21 15 18 19 -3 5 3 6 12 2 13 -5 15 -3 9 7 -5 9 -4 11 4 6 12 -8
230 107 243 128 4 6 13 35 19 64 7 29 16 55 20 58 4 2 26 -26 49 -64 34 -58
50 -75 105 -107 38 -22 74 -52 86 -71 19 -32 24 -34 75 -34 l54 0 0 230 0 230
-1069 0 -1069 0 -6 -24 c-4 -16 3 -46 20 -84 22 -52 30 -61 66 -73 32 -10 44
-10 60 0 21 13 34 9 23 -8 -7 -12 -66 -14 -103 -5 -30 9 -86 116 -83 162 l2
32 -75 0 -74 0 -21 -35 c-12 -21 -28 -35 -40 -35 -24 0 -81 -46 -81 -66 0 -10
-13 -14 -48 -14 -41 0 -50 4 -64 28 -9 15 -19 48 -23 75 l-7 47 -439 0 c-423
0 -439 -1 -449 -19 -15 -30 -12 -49 10 -56 11 -3 20 -13 20 -20 0 -8 -27 -56
-60 -106 -53 -81 -68 -120 -60 -154 14 -52 15 -50 -97 -114 -71 -39 -120 -61
-139 -60 -21 1 -24 3 -9 6 36 9 235 124 235 136 0 7 -4 18 -9 25 -15 24 11 94
61 170 63 93 64 96 34 110 -25 11 -25 12 -10 47 l14 35 -1456 0 -1457 0 19
-21 c16 -18 20 -19 30 -5 15 22 24 20 24 -4 0 -11 -5 -20 -12 -20 -6 0 1 -15
17 -32 17 -18 3 -7 -30 25 -43 40 -68 57 -87 57 -15 0 -29 -4 -32 -9 -3 -5
-21 -12 -41 -15 -83 -16 -43 -57 125 -126 68 -29 139 -54 157 -57 17 -3 40
-15 51 -27 20 -22 42 -77 42 -104 0 -24 -16 -2 -29 39 -14 45 -35 64 -83 77
-31 8 -38 8 -38 -4 0 -8 -5 -14 -11 -14 -6 0 -8 8 -5 18 5 15 -12 25 -101 61
-60 24 -120 55 -135 69 l-27 25 -41 -33 c-25 -20 -39 -38 -36 -47 4 -9 2 -11
-6 -7 -7 5 -9 0 -6 -14 4 -12 2 -20 -3 -16 -5 3 -9 -2 -9 -10 0 -8 -18 -29
-39 -47 -38 -30 -40 -34 -46 -108 -7 -70 -29 -140 -41 -128 -3 3 2 19 10 36
10 19 16 56 16 99 0 69 0 69 44 109 25 23 47 53 50 70 4 18 29 51 61 82 30 28
55 55 55 61 0 5 15 11 33 13 17 2 -67 4 -188 4 -121 1 -228 -4 -237 -9 -12 -5
-18 -5 -18 2 0 16 -37 12 -44 -6 -11 -30 -6 -46 30 -90 28 -33 48 -47 81 -55
41 -11 68 -29 42 -29 -46 0 -95 28 -149 87 l-59 63 -65 0 c-55 0 -67 3 -76 20
-10 19 -21 20 -363 19 -295 0 -358 -3 -389 -16z m4042 -48 c0 -2 -14 -25 -32
-50 -21 -29 -60 -63 -114 -97 -46 -29 -80 -57 -77 -62 4 -6 2 -8 -2 -4 -5 5
-28 -4 -52 -18 -41 -23 -51 -25 -121 -19 -42 3 -92 8 -111 11 -29 5 -33 3 -29
-14 3 -12 -2 -23 -14 -31 -19 -12 -19 -10 -13 18 6 27 4 31 -17 33 -13 1 22 4
77 7 55 3 101 3 103 -1 2 -4 19 -10 37 -14 31 -5 48 3 164 77 120 78 171 125
153 144 -4 5 -1 5 6 1 7 -4 15 -1 18 8 6 14 24 23 24 11z m3008 -33 c-13 -30
-62 -112 -67 -112 -4 0 -7 9 -7 20 0 10 2 17 5 15 8 -9 42 56 35 67 -4 7 -2 8
4 4 7 -4 12 -2 12 3 0 6 5 11 11 11 6 0 9 -3 7 -8z m-1683 -31 c-8 -13 -42
-14 -50 -2 -3 5 7 11 22 13 33 4 37 3 28 -11z m-805 -16 c-7 -9 -15 -13 -17
-11 -7 7 7 26 19 26 6 0 6 -6 -2 -15z m40 -25 c0 -11 -4 -20 -10 -20 -5 0 -10
9 -10 20 0 11 5 20 10 20 6 0 10 -9 10 -20z m-70 -7 c-1 -22 -26 -40 -45 -32
-17 7 -18 8 -2 8 10 1 20 8 23 16 6 15 24 21 24 8z m70 -53 c0 -11 -4 -20 -9
-20 -5 0 -7 9 -4 20 3 11 7 20 9 20 2 0 4 -9 4 -20z m-70 -11 c-7 -11 -14 -18
-17 -15 -3 3 0 12 7 21 18 21 23 19 10 -6z m600 1 c0 -5 -12 -10 -26 -10 -14
0 -23 4 -19 10 3 6 15 10 26 10 10 0 19 -4 19 -10z m-3584 -9 c-8 -12 -46 -21
-46 -11 0 5 10 11 23 13 12 2 23 5 25 6 2 0 1 -3 -2 -8z m-71 -21 c-3 -5 -13
-10 -21 -10 -8 0 -14 5 -14 10 0 6 9 10 21 10 11 0 17 -4 14 -10z m3132 -5 c9
-24 -1 -27 -15 -5 -8 13 -8 20 -2 20 6 0 13 -7 17 -15z m-3187 -20 c-7 -8 -17
-15 -22 -15 -6 0 -5 7 2 15 7 8 17 15 22 15 6 0 5 -7 -2 -15z m3110 6 c0 -12
-20 -25 -27 -18 -7 7 6 27 18 27 5 0 9 -4 9 -9z m-40 -44 c0 -5 -4 -5 -10 -2
-5 3 -10 14 -10 23 0 15 2 15 10 2 5 -8 10 -19 10 -23z m110 -26 c-6 -12 -15
-21 -21 -21 -6 0 -6 7 1 20 6 11 8 20 4 20 -3 0 0 7 7 17 13 15 14 15 17 0 2
-9 -2 -25 -8 -36z m-3220 29 c0 -5 -9 -14 -20 -20 -22 -12 -27 -1 -8 18 14 14
28 16 28 2z m288 -2 c-2 -6 -10 -14 -16 -16 -7 -2 -10 2 -6 12 7 18 28 22 22
4z m4548 -18 c16 0 22 -6 21 -19 -1 -12 -7 -17 -19 -13 -13 3 -18 -1 -18 -17
0 -18 -3 -20 -19 -9 -13 8 -18 21 -16 42 4 42 3 42 17 28 7 -7 22 -12 34 -12z
m-1716 -25 c0 -8 -4 -15 -10 -15 -5 0 -10 7 -10 15 0 8 5 15 10 15 6 0 10 -7
10 -15z m55 -5 c-3 -5 -13 -10 -21 -10 -8 0 -14 5 -14 10 0 6 9 10 21 10 11 0
17 -4 14 -10z m2341 -24 c0 -13 -3 -22 -5 -20 -3 2 -20 -33 -38 -78 -24 -55
-51 -100 -88 -142 -30 -34 -64 -85 -76 -113 -12 -29 -25 -53 -30 -53 -12 0
-12 0 11 48 11 22 20 45 20 49 0 4 27 39 60 77 45 52 68 91 96 162 37 94 53
116 50 70z m-2330 -63 c-2 -3 -9 -2 -15 2 -8 4 -7 13 1 28 l13 22 3 -23 c2
-13 1 -26 -2 -29z m-2591 7 c-28 -12 -95 -12 -95 0 0 6 25 10 58 9 41 0 51 -3
37 -9z m3211 -163 c10 -33 13 -65 8 -107 -6 -54 -5 -60 11 -60 22 0 55 -28 55
-47 0 -22 35 -15 131 27 50 23 94 38 97 35 8 -7 5 -9 -81 -48 -43 -20 -95 -39
-115 -43 -45 -8 -122 -50 -121 -67 2 -22 17 -62 18 -48 1 8 13 28 28 43 26 28
28 28 150 28 75 0 123 -4 123 -10 0 -6 -42 -10 -105 -10 -102 0 -105 -1 -95
-20 16 -30 112 -123 147 -143 l32 -18 7 61 c4 33 11 60 16 60 12 0 0 -120 -13
-134 -15 -16 -132 70 -180 132 -44 58 -45 59 -66 43 -11 -10 -24 -27 -27 -39
-4 -12 -12 -22 -17 -22 -5 0 -9 -27 -9 -60 0 -57 1 -60 25 -60 14 0 25 -4 25
-10 0 -5 -9 -10 -20 -10 -15 0 -20 -7 -20 -28 0 -25 6 -30 48 -43 42 -13 47
-18 50 -46 2 -24 -2 -34 -18 -43 -19 -10 -24 -8 -37 9 -9 13 -25 21 -44 21
-16 0 -29 5 -29 10 0 6 18 10 41 10 32 0 42 -4 46 -20 6 -24 23 -17 23 10 0
23 -46 37 -135 42 l-60 3 -3 -72 c-2 -47 -8 -75 -17 -83 -8 -7 -15 -28 -15
-46 0 -44 30 -52 100 -29 28 9 54 14 57 11 8 -8 6 -9 -59 -34 -53 -19 -59 -20
-88 -5 -29 14 -32 19 -28 59 3 43 3 43 -32 47 -34 3 -33 4 7 5 l41 2 4 68 c2
37 7 74 12 83 6 13 -7 27 -54 60 -63 44 -68 68 -6 30 31 -19 36 -20 62 -6 16
8 46 15 66 15 l37 0 0 90 c-1 50 -3 90 -6 90 -2 0 -31 -18 -63 -40 -62 -42
-70 -46 -70 -31 0 6 188 135 228 157 1 0 0 8 -4 17 -8 21 -36 30 -46 15 -18
-28 -29 16 -23 89 4 53 2 82 -10 109 -8 20 -14 60 -14 88 l1 51 10 -45 c5 -25
15 -66 24 -93z m-2598 55 c2 -7 -3 -12 -12 -12 -9 0 -16 7 -16 16 0 17 22 14
28 -4z m4735 11 c-7 -2 -13 -12 -13 -21 0 -14 2 -15 10 -2 10 17 15 14 24 -17
9 -28 -9 -31 -36 -6 -26 23 -24 53 5 52 12 0 16 -3 10 -6z m-3889 -72 c9 -14
-39 -52 -57 -45 -24 9 -21 17 11 36 31 20 39 21 46 9z m3986 -5 c0 -2 -8 -10
-17 -17 -16 -13 -17 -12 -4 4 13 16 21 21 21 13z m-5351 -107 c1 -20 8 -56 16
-79 18 -51 13 -64 -8 -23 -9 16 -18 62 -21 103 -4 50 -3 68 3 55 5 -11 10 -36
10 -56z m2871 41 c0 -16 -4 -30 -10 -30 -5 0 -10 14 -10 30 0 17 5 30 10 30 6
0 10 -13 10 -30z m-620 -46 c0 -9 -7 -14 -17 -12 -10 2 -18 -3 -19 -9 -1 -7
-2 -17 -3 -23 0 -5 -8 -10 -16 -10 -8 0 -15 -6 -15 -12 -1 -17 -49 -72 -57
-65 -3 3 7 18 22 32 14 15 24 29 21 32 -9 9 14 44 25 38 5 -4 9 1 9 9 0 19 29
48 41 41 5 -4 9 -13 9 -21z m-2549 -72 c-6 -2 -11 -10 -11 -17 0 -12 -21 -25
-41 -25 -12 0 -11 12 1 44 9 24 12 25 36 14 14 -7 21 -14 15 -16z m5898 8 c14
0 17 -6 13 -25 -4 -21 -9 -25 -41 -24 l-36 1 30 8 c29 7 29 8 8 15 -13 4 -23
14 -23 22 0 10 6 13 16 9 9 -3 24 -6 33 -6z m-5285 -46 c9 -24 7 -28 -9 -14
-17 14 -20 30 -6 30 5 0 12 -7 15 -16z m-1110 -101 c-7 -87 -8 -88 -24 -78 -9
5 -9 10 -1 18 6 6 11 39 11 74 0 37 4 63 10 63 7 0 9 -26 4 -77z m63 45 c-3
-8 -6 -5 -6 6 -1 11 2 17 5 13 3 -3 4 -12 1 -19z m2884 -23 c26 -25 57 -45 68
-45 11 0 35 -16 54 -35 l34 -35 74 10 c41 5 99 9 129 9 86 0 32 -15 -100 -27
-108 -10 -115 -10 -128 9 -7 10 -35 28 -61 40 -48 20 -157 119 -132 119 8 0
36 -20 62 -45z m-1897 6 c3 -5 -3 -11 -14 -14 -13 -3 -20 0 -20 9 0 15 26 19
34 5z m73 -35 c-3 -8 -1 -17 6 -20 9 -3 8 -8 -3 -15 -10 -8 -12 -13 -4 -18 15
-11 25 -53 12 -53 -5 0 -12 9 -15 20 -3 11 -12 20 -19 20 -16 0 -19 16 -4 25
6 3 10 17 10 31 0 13 5 24 11 24 6 0 9 -6 6 -14z m4458 4 c-28 -12 -45 -12
-45 0 0 6 15 10 33 9 27 0 29 -2 12 -9z m-4686 -36 c23 -39 25 -44 14 -44 -9
0 -43 57 -43 71 0 17 8 9 29 -27z m379 24 c-2 -7 2 -12 9 -11 8 2 12 -9 11
-32 -2 -43 -21 -51 -80 -34 -26 8 -36 14 -25 16 18 5 24 23 7 23 -18 0 -10 15
18 32 32 21 63 23 60 6z m1142 -83 c0 -6 -18 -10 -40 -10 -43 0 -53 10 -20 20
11 3 20 11 20 16 0 5 9 4 20 -3 11 -7 20 -17 20 -23z m60 17 c0 -13 -12 -22
-22 -16 -10 6 -1 24 13 24 5 0 9 -4 9 -8z m2060 -9 c-1 -14 -26 -208 -29 -220
-1 -2 -5 -3 -9 -3 -4 0 -6 17 -5 38 4 33 3 35 -8 17 -18 -29 -49 -53 -87 -67
-24 -9 -31 -16 -26 -30 3 -10 1 -18 -5 -18 -5 0 -13 9 -16 20 -13 40 -53 78
-79 73 -26 -5 -66 12 -66 28 0 5 11 7 26 3 25 -6 25 -5 14 16 -10 18 -9 24 1
31 8 5 17 9 21 9 4 0 19 18 33 40 14 22 33 40 43 40 15 -1 15 -2 1 -13 -9 -7
-23 -26 -32 -44 -9 -17 -26 -35 -38 -38 -19 -6 -20 -8 -3 -26 11 -12 30 -19
55 -19 37 0 37 0 44 50 4 29 12 50 19 50 7 0 25 14 41 30 19 19 39 30 57 30
15 0 28 5 28 10 0 6 5 10 10 10 6 0 10 -8 10 -17z m-1780 1 c0 -3 -11 -21 -24
-40 -26 -38 -95 -91 -171 -130 -67 -34 -147 -93 -140 -103 7 -12 -23 -81 -35
-81 -16 0 -11 28 6 38 11 6 15 17 11 31 -3 11 -1 21 3 21 5 0 11 8 14 18 4 10
64 53 135 95 94 55 137 87 158 117 25 35 43 50 43 34z m1889 -30 c31 -52 20
-67 -12 -17 -29 46 -32 53 -18 53 5 0 19 -16 30 -36z m-3919 20 c0 -3 -7 -12
-15 -20 -8 -9 -15 -13 -15 -9 0 3 -57 -37 -126 -90 -70 -53 -129 -93 -132 -90
-7 6 -19 -4 137 114 123 93 151 111 151 95z m1740 -19 c15 9 43 -3 35 -15 -5
-8 -12 -7 -23 2 -12 10 -14 10 -8 1 9 -16 1 -16 -25 -3 -10 6 -19 16 -19 22 0
7 5 6 15 -2 8 -6 19 -9 25 -5z m1070 0 c21 -25 1 -31 -22 -7 -18 18 -19 22 -6
22 8 0 21 -7 28 -15z m2630 -4 c0 -5 -9 -12 -19 -16 -28 -8 -33 -32 -15 -66 8
-17 13 -36 11 -42 -6 -18 -37 48 -37 77 0 17 9 30 28 40 33 18 32 18 32 7z
m-4812 -67 c38 -8 53 -24 22 -24 -35 0 -90 28 -90 46 0 16 1 16 18 1 10 -9 33
-20 50 -23z m-138 16 c0 -5 -7 -10 -16 -10 -8 0 -12 5 -9 10 3 6 10 10 16 10
5 0 9 -4 9 -10z m2360 -137 c0 -53 -3 -94 -6 -90 -3 3 -6 44 -5 91 0 102 0 96
6 96 3 0 5 -43 5 -97z m-1226 61 c8 -21 8 -21 -7 -21 -7 0 -14 9 -14 19 -2 22
13 24 21 2z m1376 6 c0 -5 -9 -10 -20 -10 -11 0 -20 5 -20 10 0 6 9 10 20 10
11 0 20 -4 20 -10z m-2297 -50 c5 -4 1 -22 -8 -40 -9 -17 -19 -30 -22 -27 -2
3 1 15 7 27 13 23 1 39 -27 40 -7 0 -13 5 -13 10 0 11 49 3 63 -10z m917 0 c0
-5 -4 -10 -9 -10 -6 0 -13 5 -16 10 -3 6 1 10 9 10 9 0 16 -4 16 -10z m-40
-25 c-7 -9 -15 -13 -17 -11 -7 7 7 26 19 26 6 0 6 -6 -2 -15z m40 -5 c0 -6 -7
-13 -15 -16 -8 -4 -15 -18 -15 -33 0 -20 -2 -23 -10 -11 -5 8 -10 11 -10 5 0
-5 -4 -3 -10 5 -7 11 -11 9 -19 -14 -11 -28 -40 -34 -48 -9 -3 7 3 10 15 6 14
-3 21 2 25 17 4 15 11 21 21 17 10 -4 22 3 32 18 17 26 34 33 34 15z m1570
-60 c-18 -11 -24 -6 -16 16 5 14 9 15 19 5 9 -9 9 -14 -3 -21z m-1540 -15 c-7
-9 -15 -13 -18 -10 -3 2 1 11 8 20 7 9 15 13 18 10 3 -2 -1 -11 -8 -20z m1165
-15 c3 -5 1 -10 -4 -10 -6 0 -11 5 -11 10 0 6 2 10 4 10 3 0 8 -4 11 -10z
m-1195 -12 c0 -4 -11 -15 -25 -26 -23 -18 -37 -50 -16 -37 5 3 12 1 15 -4 3
-5 -2 -12 -11 -15 -19 -8 -36 15 -41 57 -3 30 14 38 21 10 4 -14 5 -13 6 3 1
17 7 22 26 20 14 0 25 -4 25 -8z m2060 -17 c0 -5 -7 -14 -15 -21 -16 -14 -18
-10 -9 14 6 17 24 22 24 7z m-2040 -10 c0 -13 -29 -35 -37 -28 -7 8 15 37 28
37 5 0 9 -4 9 -9z m-2250 -52 c0 -6 -4 -7 -10 -4 -5 3 -10 11 -10 16 0 6 5 7
10 4 6 -3 10 -11 10 -16z m2150 -14 c0 -8 -4 -15 -10 -15 -5 0 -10 7 -10 15 0
8 5 15 10 15 6 0 10 -7 10 -15z m1423 -27 c3 -23 1 -50 -4 -59 -5 -10 -9 -32
-9 -49 0 -20 -4 -29 -11 -25 -6 4 -8 21 -4 44 4 20 7 57 6 84 -2 58 14 62 22
5z m-1407 -36 c-12 -11 -18 7 -10 30 l8 23 4 -23 c2 -13 1 -26 -2 -30z m-32 5
c-3 -9 -12 -13 -20 -10 -8 3 -14 -1 -14 -10 0 -9 -9 -18 -19 -22 -11 -3 -22
-12 -25 -20 -3 -8 -10 -15 -15 -15 -6 0 -4 14 4 32 9 22 26 38 52 49 43 18 46
18 37 -4z m1865 7 c2 -2 -3 -4 -12 -4 -15 0 -79 -31 -103 -51 -14 -11 -6 -101
9 -110 5 -4 6 -12 3 -18 -5 -7 4 -11 24 -11 25 0 31 -4 26 -15 -3 -8 -1 -15 4
-15 6 0 10 -10 9 -22 0 -13 -3 -18 -5 -11 -3 7 -12 9 -21 6 -13 -5 -15 -1 -9
20 5 23 3 27 -15 27 -33 0 -46 22 -50 87 l-4 60 45 36 c33 26 51 33 70 30 14
-3 27 -7 29 -9z m-1599 -10 c0 -4 -9 -21 -20 -39 -13 -22 -39 -41 -75 -56 -50
-22 -55 -26 -49 -51 6 -28 -10 -48 -20 -23 -10 27 -31 16 -105 -59 l-74 -75
11 -39 c6 -21 23 -49 37 -62 16 -15 25 -34 25 -55 0 -34 16 -56 34 -49 8 3 11
-8 11 -31 -1 -27 -11 -46 -41 -78 -21 -23 -40 -44 -41 -46 -2 -2 -6 -1 -10 2
-4 4 7 22 23 40 58 63 58 63 30 100 -14 19 -26 46 -26 62 0 16 -12 41 -30 62
-16 18 -30 44 -30 56 0 34 -48 129 -80 158 -16 15 -40 29 -54 33 -35 9 -33 24
2 22 19 -1 39 -14 63 -41 38 -42 65 -85 61 -97 -4 -17 13 -6 69 43 33 28 59
59 59 68 0 11 15 25 40 36 22 10 40 22 40 27 0 5 4 7 8 4 16 -10 90 33 108 63
17 28 34 41 34 25z m-216 -30 c10 -25 -1 -29 -14 -5 -6 12 -7 21 -1 21 5 0 12
-7 15 -16z m36 -54 c7 -13 7 -20 1 -20 -6 0 -15 9 -21 20 -7 13 -7 20 -1 20 6
0 15 -9 21 -20z m2080 -15 c0 -14 -4 -25 -10 -25 -5 0 -10 11 -10 25 0 14 5
25 10 25 6 0 10 -11 10 -25z m-4090 6 c-8 -5 -37 -11 -65 -15 -27 -4 -63 -9
-80 -12 -20 -4 -27 -3 -20 4 11 11 100 29 150 31 21 0 26 -2 15 -8z m4336 -43
c4 -6 -1 -17 -11 -25 -28 -20 -34 -16 -22 12 13 27 22 31 33 13z m908 -33 c20
-30 20 -51 1 -59 -8 -3 -15 -12 -15 -21 0 -8 -4 -15 -10 -15 -5 0 -10 6 -10
14 0 7 -9 16 -20 19 -27 7 -25 21 5 41 15 10 22 22 19 31 -10 24 12 17 30 -10z
m-3214 -33 c0 -5 -7 -17 -15 -28 -15 -19 -20 -8 -9 20 6 17 24 22 24 8z m-290
-31 c0 -5 -7 -11 -15 -15 -10 -3 -13 -14 -9 -33 4 -23 -2 -35 -35 -68 -49 -46
-55 -36 -8 13 21 23 28 36 20 39 -20 7 -15 33 10 54 24 20 37 24 37 10z
m-2470 -21 c0 -5 -5 -10 -11 -10 -5 0 -7 5 -4 10 3 6 8 10 11 10 2 0 4 -4 4
-10z m-47 -20 c-6 -24 -23 -37 -23 -18 0 12 18 38 26 38 1 0 0 -9 -3 -20z
m4593 -5 c14 -13 13 -15 -10 -15 -25 0 -41 12 -29 24 10 10 23 7 39 -9z m111
-55 c10 -26 15 -30 37 -24 34 8 34 -4 0 -16 -20 -8 -29 -7 -38 4 -6 8 -18 16
-27 18 -13 2 -15 8 -8 26 11 30 22 28 36 -8z m-3057 6 c0 -2 -7 -6 -15 -10 -8
-3 -15 -1 -15 4 0 6 7 10 15 10 8 0 15 -2 15 -4z m1300 -36 c-19 -13 -30 -13
-30 0 0 6 10 10 23 10 18 0 19 -2 7 -10z m-45 -19 c-3 -6 -11 -11 -17 -11 -6
0 -6 6 2 15 14 17 26 13 15 -4z m-1286 2 c0 -5 -4 -17 -9 -28 -8 -18 -9 -17
-9 8 -1 15 4 27 9 27 6 0 10 -3 9 -7z m2411 -25 c0 -16 -3 -19 -11 -11 -6 6
-8 16 -5 22 11 17 16 13 16 -11z m-1440 3 c0 -13 -29 -35 -37 -28 -7 8 15 37
28 37 5 0 9 -4 9 -9z m-110 -32 c0 -5 -7 -9 -15 -9 -9 0 -15 9 -15 21 0 18 2
19 15 9 8 -7 15 -16 15 -21z m390 6 c-7 -9 -15 -13 -17 -11 -7 7 7 26 19 26 6
0 6 -6 -2 -15z m345 -56 c14 -17 23 -34 20 -37 -6 -6 -44 27 -56 50 -16 30 7
21 36 -13z m-368 -11 c-3 -7 -5 -2 -5 12 0 14 2 19 5 13 2 -7 2 -19 0 -25z
m1448 -92 c7 -101 8 -105 41 -137 38 -37 32 -49 -23 -49 -25 0 -31 3 -26 16 4
11 13 14 32 9 l26 -6 -31 33 c-30 31 -32 39 -38 136 -4 62 -3 102 3 102 5 0
12 -47 16 -104z m462 82 c-3 -8 -6 -5 -6 6 -1 11 2 17 5 13 3 -3 4 -12 1 -19z
m-2145 -25 c14 -12 18 -31 18 -81 0 -49 4 -68 17 -77 10 -7 12 -14 6 -18 -14
-9 -43 53 -43 92 0 23 -5 31 -17 31 -17 1 -17 2 0 15 18 13 18 14 -2 27 -12 7
-21 16 -21 20 0 14 23 9 42 -9z m1988 -10 c0 -12 -67 -53 -85 -53 -27 0 -16
15 28 37 47 24 57 26 57 16z m-971 -90 c-1 -62 -4 -79 -9 -58 -15 59 -11 145
7 145 2 0 2 -39 2 -87z m-29 62 c0 -8 -4 -15 -10 -15 -5 0 -10 7 -10 15 0 8 5
15 10 15 6 0 10 -7 10 -15z m-42 -33 c2 -7 -3 -12 -12 -12 -9 0 -16 7 -16 16
0 17 22 14 28 -4z m952 -11 c0 -5 -7 -11 -15 -15 -8 -3 -25 -26 -37 -51 -12
-25 -26 -45 -30 -45 -11 0 -10 2 8 46 19 48 74 96 74 65z m-988 -36 c10 -19
14 -35 9 -35 -10 0 -41 45 -41 60 0 21 15 9 32 -25z m307 14 c19 -18 22 -30
19 -71 -3 -50 -3 -50 35 -63 21 -7 48 -21 59 -32 18 -16 58 -83 58 -98 0 -3
-17 -5 -37 -5 -72 0 -83 -8 -83 -55 0 -35 -5 -46 -25 -59 -27 -18 -35 -7 -10
14 8 7 15 29 15 50 0 32 -4 39 -26 44 -24 6 -54 -8 -75 -37 -3 -5 -19 -7 -35
-5 l-29 4 28 8 c16 5 40 19 54 32 19 17 32 21 57 17 32 -5 33 -4 45 40 15 60
14 67 -6 67 -35 0 -53 29 -46 78 6 42 4 47 -23 69 -19 15 -24 23 -13 23 8 0
25 -10 38 -21z m-84 -79 c-18 -35 -35 -39 -35 -9 0 11 4 18 9 15 5 -3 11 1 15
9 3 8 10 15 16 15 6 0 4 -12 -5 -30z m1221 -37 c-3 -7 -15 -13 -26 -13 -17 0
-19 4 -14 25 5 20 3 24 -10 19 -25 -9 -19 12 6 23 19 8 25 6 36 -15 7 -14 10
-32 8 -39z m-1878 11 c32 -25 39 -26 103 -20 77 7 96 -8 23 -18 -76 -10 -100
-7 -130 17 -15 12 -39 27 -53 34 l-26 11 24 1 c13 1 40 -11 59 -25z m552 -92
c0 -13 -4 -20 -10 -17 -5 3 -10 15 -10 26 0 21 -16 26 -23 7 -2 -7 -7 -10 -11
-6 -4 3 0 21 10 40 l17 33 13 -30 c7 -16 13 -40 14 -53z m515 68 c-3 -5 -10
-10 -16 -10 -5 0 -9 5 -9 10 0 6 7 10 16 10 8 0 12 -4 9 -10z m-3505 -10 c0
-5 -7 -10 -15 -10 -8 0 -15 5 -15 10 0 6 7 10 15 10 8 0 15 -4 15 -10z m3410
-10 c0 -5 -4 -10 -10 -10 -5 0 -10 5 -10 10 0 6 5 10 10 10 6 0 10 -4 10 -10z
m120 0 c0 -5 -4 -10 -10 -10 -5 0 -10 5 -10 10 0 6 5 10 10 10 6 0 10 -4 10
-10z m520 -37 c0 -7 -9 -13 -20 -13 -23 0 -24 3 -8 30 13 20 28 10 28 -17z
m-1304 -40 c-2 -10 -10 -37 -17 -61 -7 -23 -18 -47 -26 -53 -7 -6 -13 -27 -13
-46 0 -20 -4 -32 -10 -28 -17 10 -11 67 9 89 10 12 24 42 31 69 7 26 17 47 22
47 5 0 7 -8 4 -17z m-756 -3 c0 -5 -4 -10 -10 -10 -5 0 -10 5 -10 10 0 6 5 10
10 10 6 0 10 -4 10 -10z m1404 -108 c-12 -9 -27 -27 -33 -39 -6 -13 -29 -32
-50 -43 -38 -19 -56 -43 -45 -61 3 -5 -2 -9 -11 -9 -9 0 -27 -7 -41 -16 -13
-9 -27 -14 -30 -11 -3 3 6 13 21 23 14 9 32 29 40 45 8 15 33 38 56 51 22 12
47 35 55 50 9 18 22 28 37 28 l22 0 -21 -18z m-379 -27 c-19 -20 -35 -40 -35
-45 0 -4 -13 -11 -28 -15 -47 -10 -95 -44 -88 -62 4 -9 -1 -40 -9 -70 -18 -60
-14 -83 21 -128 15 -20 21 -38 17 -53 -5 -20 -2 -22 41 -22 27 0 46 -5 46 -11
0 -8 -17 -10 -50 -7 -27 3 -50 2 -50 -2 0 -3 11 -35 26 -69 14 -35 24 -64 22
-66 -6 -5 -117 20 -125 29 -4 5 15 6 45 2 30 -4 52 -3 50 1 -1 5 -12 32 -22
61 l-20 52 -95 0 c-52 0 -91 3 -88 6 3 4 49 6 100 5 91 -2 95 -1 100 21 4 15
0 29 -13 43 -36 39 -43 77 -25 140 9 31 15 65 12 75 -6 22 31 51 86 69 20 7
37 16 37 20 0 15 49 61 65 61 11 0 4 -11 -20 -35z m454 -38 c9 -12 6 -19 -19
-38 -17 -13 -45 -36 -62 -50 l-32 -26 13 -58 c15 -68 7 -139 -19 -173 -15 -18
-17 -29 -10 -48 5 -13 6 -24 1 -24 -22 0 -27 56 -7 79 37 43 33 175 -8 220
-21 24 -20 29 7 27 12 -1 36 10 53 24 17 14 39 30 50 36 18 11 18 13 -8 41
-16 16 -28 33 -28 37 0 9 51 -27 69 -47z m-215 -2 c-18 -14 -44 -20 -44 -10 0
7 54 34 59 29 3 -2 -4 -11 -15 -19z m1126 5 c0 -5 -4 -10 -10 -10 -5 0 -10 5
-10 10 0 6 5 10 10 10 6 0 10 -4 10 -10z m-565 -10 c3 -5 1 -10 -4 -10 -6 0
-11 5 -11 10 0 6 2 10 4 10 3 0 8 -4 11 -10z m766 -27 c77 -35 82 -39 110 -95
16 -32 25 -58 19 -58 -5 0 -21 23 -35 51 -24 47 -33 54 -111 90 -46 22 -84 42
-84 44 0 11 25 3 101 -32z m-1141 17 c0 -5 -4 -10 -10 -10 -5 0 -10 5 -10 10
0 6 5 10 10 10 6 0 10 -4 10 -10z m130 -39 c-10 -19 -7 -28 15 -57 15 -19 25
-40 22 -47 -2 -6 -15 6 -30 28 -18 29 -26 53 -25 83 0 39 2 42 15 29 12 -12
13 -19 3 -36z m1950 -21 c0 -40 -4 -70 -10 -70 -6 0 -10 30 -10 70 0 40 4 70
10 70 6 0 10 -30 10 -70z m-3261 -4 c-8 -6 -14 -17 -15 -23 -2 -28 -4 -33 -13
-33 -6 0 -9 10 -8 22 2 25 40 72 46 56 2 -6 -2 -16 -10 -22z m-764 15 c-3 -2
11 -21 30 -43 35 -38 44 -58 25 -58 -5 0 -10 4 -10 10 0 5 -18 26 -40 46 -45
41 -49 53 -20 51 10 -1 17 -3 15 -6z m819 3 c9 -3 14 -10 11 -15 -7 -10 -35 0
-35 12 0 11 3 11 24 3z m376 -28 c0 -9 -132 -78 -137 -72 -8 8 -8 8 57 45 50
28 80 38 80 27z m-1999 -22 c12 -14 11 -16 -5 -13 -11 2 -21 10 -24 17 -5 17
13 15 29 -4z m1659 -10 c0 -8 -4 -14 -10 -14 -5 0 -10 9 -10 21 0 11 5 17 10
14 6 -3 10 -13 10 -21z m730 19 c-14 -3 -31 -10 -38 -16 -11 -9 -11 -13 4 -24
27 -20 8 -28 -22 -9 -25 17 -25 18 -8 37 11 13 29 19 53 18 28 -1 30 -3 11 -6z
m-680 -28 c5 -13 27 -33 49 -44 38 -20 61 -41 44 -41 -4 0 -30 13 -58 28 -39
21 -51 33 -53 55 -4 34 5 35 18 2z m1514 -24 c-14 -24 -23 -29 -41 -25 -15 4
-31 0 -43 -11 -11 -10 -23 -15 -27 -11 -4 3 -31 -17 -60 -46 -29 -28 -56 -49
-60 -45 -10 10 88 107 108 107 9 0 22 7 30 16 8 10 22 14 40 10 22 -4 31 0 44
20 23 36 31 22 9 -15z m-3174 13 c0 -14 -3 -14 -15 -4 -8 7 -15 14 -15 16 0 2
7 4 15 4 8 0 15 -7 15 -16z m-527 -31 c16 -31 30 -274 20 -335 -12 -74 -18
-36 -15 89 4 115 -3 185 -23 251 -10 31 2 28 18 -5z m2127 17 c0 -5 -10 -10
-22 -10 -19 0 -20 2 -8 10 19 13 30 13 30 0z m-1620 -15 c0 -8 -4 -15 -9 -15
-5 0 -11 7 -15 15 -3 9 0 15 9 15 8 0 15 -7 15 -15z m900 5 c8 -5 12 -11 10
-14 -8 -7 -60 6 -60 15 0 12 31 11 50 -1z m680 -25 c0 -8 -7 -15 -16 -15 -14
0 -14 3 -4 15 7 8 14 15 16 15 2 0 4 -7 4 -15z m940 -25 c0 -5 -11 -10 -25
-10 -26 0 -28 -6 -25 -52 1 -16 -3 -28 -9 -28 -9 0 -17 45 -12 73 0 4 -21 7
-49 7 -27 0 -50 5 -50 10 0 6 35 10 85 10 50 0 85 -4 85 -10z m-681 -119 c6
-11 7 -30 2 -47 -4 -16 -4 -39 0 -52 5 -12 5 -42 0 -66 -7 -38 -4 -53 25 -115
20 -43 28 -71 21 -71 -7 0 -26 33 -42 73 -24 55 -29 81 -25 109 4 20 5 71 4
112 -2 42 -1 76 1 76 2 0 9 -8 14 -19z m948 -7 c-3 -3 -12 -4 -19 -1 -8 3 -5
6 6 6 11 1 17 -2 13 -5z m3 -24 c0 -5 -2 -10 -4 -10 -3 0 -8 5 -11 10 -3 6 -1
10 4 10 6 0 11 -4 11 -10z m336 -3 c-56 -35 -110 -96 -72 -81 7 3 16 -3 20
-12 9 -24 -1 -30 -24 -16 -17 10 -20 10 -20 -3 0 -8 -4 -15 -10 -15 -13 0 -13
21 0 54 10 28 85 86 109 85 13 0 13 -2 -3 -12z m-1902 -33 c4 -9 4 -19 2 -21
-8 -8 -26 8 -26 23 0 19 16 18 24 -2z m1796 7 c0 -5 -9 -11 -20 -14 -20 -5
-26 3 -13 16 9 10 33 8 33 -2z m2080 -36 c27 -14 56 -25 65 -25 8 0 15 -5 15
-11 0 -5 17 -34 38 -64 28 -41 49 -59 86 -74 60 -26 56 -39 -5 -14 -51 20 -52
21 -103 91 -49 68 -129 111 -194 104 -23 -2 -45 -8 -48 -13 -3 -5 -10 -9 -15
-9 -16 0 1 21 25 30 38 16 86 10 136 -15z m-4630 -16 c0 -12 8 -23 20 -26 25
-7 26 -23 3 -23 -21 1 -57 46 -48 60 11 17 25 11 25 -11z m800 -33 c7 -14 11
-29 7 -32 -8 -9 -67 6 -67 17 0 5 12 6 28 3 26 -7 26 -6 11 12 -29 35 -34 47
-12 36 10 -6 25 -22 33 -36z m700 15 c0 -40 9 -61 27 -61 8 0 21 -16 29 -35
17 -42 23 -44 17 -7 -4 23 -3 24 7 10 6 -10 20 -18 30 -18 11 0 19 -3 19 -7
-4 -22 3 -33 19 -33 31 -1 -18 -30 -51 -30 -26 0 -28 -2 -16 -16 10 -13 10
-17 0 -23 -19 -12 -9 -44 16 -57 13 -6 19 -14 14 -20 -5 -5 -11 -18 -14 -29
-4 -15 -5 -14 -6 7 0 15 -7 31 -14 35 -20 13 -35 56 -26 79 7 19 3 22 -32 28
l-39 6 0 100 c0 60 4 100 10 100 6 0 10 -13 10 -29z m646 5 c3 -8 1 -23 -5
-33 -9 -16 -10 -16 -11 5 0 14 -6 22 -17 22 -10 0 -25 5 -33 10 -11 7 -5 10
23 10 24 0 40 -5 43 -14z m164 -6 c0 -5 -9 -10 -19 -10 -11 0 -23 5 -26 10 -4
6 5 10 19 10 14 0 26 -4 26 -10z m-70 -15 c-7 -8 -17 -15 -22 -15 -6 0 -5 7 2
15 7 8 17 15 22 15 6 0 5 -7 -2 -15z m-1360 0 c0 -4 -6 -18 -14 -33 -11 -22
-12 -38 -4 -80 9 -45 8 -58 -8 -87 -25 -47 -39 -45 -16 3 23 47 13 117 -18
125 -11 3 -20 11 -20 17 0 7 7 10 14 7 10 -4 13 -1 9 9 -3 10 0 12 10 8 10 -3
18 2 22 15 6 18 25 30 25 16z m3515 -23 c-16 -15 -30 -32 -30 -37 0 -22 -105
-34 -207 -23 -55 5 -105 7 -113 4 -16 -6 -63 -97 -58 -112 4 -11 -26 -29 -34
-20 -8 7 60 133 77 144 13 8 46 8 117 1 130 -14 172 -7 219 37 21 18 43 34 48
34 6 0 -2 -13 -19 -28z m-3678 1 c-9 -9 -20 -13 -24 -9 -4 4 -1 11 7 16 25 16
35 11 17 -7z m1343 7 c0 -5 -4 -10 -10 -10 -5 0 -10 5 -10 10 0 6 5 10 10 10
6 0 10 -4 10 -10z m-1160 -20 c0 -5 -4 -10 -10 -10 -5 0 -10 5 -10 10 0 6 5
10 10 10 6 0 10 -4 10 -10z m1290 -15 c-7 -8 -21 -15 -31 -15 -11 0 -19 -4
-19 -10 0 -5 -4 -10 -10 -10 -23 0 -8 21 28 38 42 21 51 20 32 -3z m-56 -60
c3 -8 1 -15 -4 -15 -6 0 -10 7 -10 15 0 8 2 15 4 15 2 0 6 -7 10 -15z m2006 1
c0 -3 -4 -8 -10 -11 -5 -3 -10 -1 -10 4 0 6 5 11 10 11 6 0 10 -2 10 -4z
m-1952 -18 c-6 -18 -25 -20 -31 -3 -5 10 0 15 14 15 12 0 19 -5 17 -12z
m-1498 -28 c0 -5 -4 -10 -10 -10 -5 0 -10 5 -10 10 0 6 5 10 10 10 6 0 10 -4
10 -10z m2405 -39 c-5 -24 -15 -33 -51 -47 -24 -9 -44 -20 -44 -24 0 -5 14 -3
31 3 26 10 32 9 40 -6 6 -9 14 -17 19 -17 15 0 50 -33 50 -47 0 -23 -37 -14
-44 10 -3 12 -18 28 -33 35 -37 16 -43 15 -43 -8 0 -13 -7 -20 -20 -20 -13 0
-22 -9 -26 -25 -3 -14 -12 -25 -20 -25 -17 0 -18 -22 -3 -37 9 -9 8 -18 -4
-37 -21 -31 -48 -40 -102 -32 -35 6 -44 11 -48 32 -3 18 2 29 22 43 14 11 22
23 18 27 -4 5 -13 2 -18 -6 -8 -12 -9 -11 -7 5 4 28 53 33 61 6 3 -13 -2 -21
-17 -26 -21 -7 -21 -8 3 -12 13 -3 27 1 32 8 4 8 11 11 14 8 7 -8 -5 -40 -14
-35 -12 8 -72 -9 -72 -19 0 -14 67 -24 83 -12 9 6 8 7 -4 3 -25 -8 -22 3 6 25
21 16 23 24 16 49 -7 26 -6 29 12 27 15 -2 24 10 42 52 18 45 28 56 56 66 33
11 43 21 55 59 9 30 18 11 10 -23z m-1856 9 c26 -12 65 -20 97 -20 30 0 54 -4
54 -10 0 -14 -88 -12 -132 4 -41 15 -45 11 -23 -18 8 -11 15 -28 15 -38 0 -10
7 -18 15 -18 8 0 22 -14 30 -30 9 -17 27 -36 40 -42 14 -6 25 -15 25 -20 0
-23 -57 11 -70 42 -7 16 -22 31 -36 34 -13 4 -24 14 -24 23 0 9 -8 34 -17 54
-22 48 -48 50 -88 9 -16 -16 -36 -30 -44 -30 -10 0 0 15 26 40 48 45 69 48
132 20z m3961 10 c0 -7 -14 -8 -37 -4 -52 9 -54 14 -5 14 23 0 42 -5 42 -10z
m60 -16 c0 -2 -9 -4 -20 -4 -11 0 -20 4 -20 9 0 5 9 7 20 4 11 -3 20 -7 20 -9z
m-3308 -22 c-25 -19 -22 -44 15 -117 31 -61 37 -86 20 -79 -8 3 -17 -2 -20
-10 -9 -23 -30 -20 -24 3 3 12 0 18 -7 15 -12 -5 -42 63 -32 73 11 11 34 -18
29 -37 -3 -11 -1 -20 5 -20 25 0 22 25 -8 68 -19 27 -28 48 -21 50 6 2 11 14
11 27 0 13 8 29 18 34 28 17 39 12 14 -7z m3202 3 c-6 -16 -24 -21 -24 -7 0
11 11 22 21 22 5 0 6 -7 3 -15z m-2190 -47 c-9 -14 -24 2 -24 25 1 21 1 21 15
3 8 -10 12 -23 9 -28z m1900 8 c-3 -14 -10 -26 -15 -26 -11 0 -11 3 1 36 13
33 23 26 14 -10z m-2764 -6 c0 -5 -5 -10 -11 -10 -5 0 -7 5 -4 10 3 6 8 10 11
10 2 0 4 -4 4 -10z m1207 -10 c-1 -23 -19 -26 -36 -7 -13 16 -5 27 20 27 12 0
17 -7 16 -20z m-1547 0 c0 -5 -4 -10 -10 -10 -5 0 -10 5 -10 10 0 6 5 10 10
10 6 0 10 -4 10 -10z m1599 -4 c9 -10 8 -15 -4 -19 -9 -4 -19 2 -25 13 -8 16
-8 20 3 20 8 0 20 -6 26 -14z m-939 -17 c0 -10 -12 -11 -34 -3 -25 10 -19 22
9 16 14 -2 25 -8 25 -13z m1513 8 c19 -13 57 -149 57 -203 0 -24 5 -34 15 -34
8 0 15 -5 15 -11 0 -6 -7 -8 -16 -5 -14 5 -15 1 -10 -21 12 -47 12 -66 0 -70
-7 -2 -12 6 -12 19 -2 53 -20 197 -32 243 -7 28 -22 60 -33 73 -22 24 -12 30
16 9z m-1483 -7 c0 -5 -4 -10 -10 -10 -5 0 -10 5 -10 10 0 6 5 10 10 10 6 0
10 -4 10 -10z m-1080 -10 c0 -5 -4 -10 -10 -10 -5 0 -10 5 -10 10 0 6 5 10 10
10 6 0 10 -4 10 -10z m1355 -20 c3 -5 -1 -10 -9 -10 -9 0 -16 5 -16 10 0 6 4
10 9 10 6 0 13 -4 16 -10z m1099 -26 c-27 -8 -61 -17 -77 -20 -35 -8 -143
-124 -152 -163 -3 -16 -2 -39 4 -50 13 -23 14 -140 2 -159 -11 -19 -126 -22
-151 -5 -17 12 -22 10 -42 -21 -13 -19 -34 -37 -48 -40 -14 -2 -33 -8 -42 -11
-10 -4 -18 -3 -18 3 0 6 16 14 35 18 24 4 43 17 61 43 15 20 29 38 30 40 2 2
15 -4 29 -13 19 -13 41 -16 78 -14 l52 4 3 64 c2 34 -1 75 -6 90 -16 46 -2 80
65 150 52 55 74 71 121 86 31 11 68 17 81 15 20 -3 15 -7 -25 -17z m-1239 -44
c8 -13 -1 -13 -26 0 -10 6 -19 15 -19 21 0 11 35 -5 45 -21z m93 4 c12 -8 22
-18 22 -22 0 -4 13 -13 28 -20 28 -12 29 -14 28 -90 l-1 -77 -45 -6 c-25 -3
-53 -9 -62 -14 -10 -4 -18 -3 -18 2 0 6 10 14 21 19 20 9 20 11 5 27 -12 12
-15 24 -9 44 4 15 6 34 5 41 -2 8 10 12 33 12 19 0 35 5 35 10 0 6 -4 10 -8
10 -5 0 -15 11 -22 25 -7 14 -17 25 -22 25 -13 0 -9 -28 5 -33 6 -3 1 -6 -12
-6 -20 -1 -23 3 -19 24 4 18 0 26 -13 30 -11 4 -19 11 -19 16 0 12 35 3 68
-17z m50 14 c-6 -18 -28 -21 -28 -4 0 9 7 16 16 16 9 0 14 -5 12 -12z m-1883
-66 c-7 -7 -45 29 -45 41 0 6 11 0 25 -13 14 -13 23 -26 20 -28z m-377 20 c2
-7 -3 -12 -12 -12 -9 0 -16 7 -16 16 0 17 22 14 28 -4z m1558 -50 c-9 -8 -26
10 -26 26 1 15 2 15 15 -2 8 -11 13 -21 11 -24z m-286 -3 c0 -11 -4 -17 -10
-14 -5 3 -10 13 -10 21 0 8 5 14 10 14 6 0 10 -9 10 -21z m340 11 c0 -5 -5
-10 -11 -10 -6 0 -8 -9 -4 -20 5 -15 3 -18 -9 -14 -12 4 -15 -1 -15 -23 1 -15
-1 -50 -4 -78 -3 -27 -2 -52 2 -55 21 -17 69 -114 80 -165 17 -76 75 -175 102
-175 16 0 20 6 17 28 -2 18 -8 26 -19 24 -17 -2 -28 24 -35 83 -3 28 -3 29 11
11 8 -11 13 -28 9 -38 -4 -13 0 -18 15 -18 12 0 21 -5 21 -11 0 -13 62 -1 71
13 4 6 42 11 85 13 102 3 134 12 134 36 0 10 5 19 10 19 14 0 13 -23 -2 -42
-13 -17 -138 -41 -163 -32 -7 3 -16 1 -20 -5 -3 -6 2 -11 12 -12 14 0 15 -2 3
-6 -8 -3 -18 -11 -22 -17 -4 -7 -9 -5 -13 6 -6 14 -10 14 -35 2 -15 -8 -33
-28 -40 -45 -12 -27 -10 -37 8 -82 15 -34 19 -54 12 -62 -6 -7 -44 -22 -85
-34 -59 -18 -73 -26 -65 -35 7 -9 27 -11 62 -8 47 4 51 3 44 -14 -4 -10 -10
-37 -13 -61 -8 -60 -23 -54 -16 7 l6 50 -44 0 c-31 0 -48 5 -57 18 -11 14 -26
16 -97 14 -47 -2 -85 -7 -85 -12 0 -5 7 -7 15 -4 8 4 15 1 15 -5 0 -15 -26
-14 -42 2 -17 18 -98 29 -98 14 0 -7 -4 -7 -12 1 -7 7 -23 12 -36 12 -18 0
-23 4 -18 16 3 9 6 20 6 25 0 16 18 10 23 -8 3 -10 5 3 6 30 l1 47 -40 0 c-22
0 -40 5 -40 10 0 6 -5 10 -12 10 -6 0 -4 -8 7 -20 19 -21 14 -50 -9 -50 -14 0
-29 28 -25 46 2 5 -3 21 -10 35 -11 23 -17 25 -49 20 -31 -5 -38 -11 -40 -34
-2 -19 1 -27 12 -27 9 0 16 -4 16 -10 0 -5 -7 -10 -15 -10 -8 0 -15 -7 -15
-15 0 -8 7 -15 15 -15 8 0 15 5 15 10 0 6 7 10 15 10 8 0 15 -3 15 -6 0 -11
-29 -34 -44 -34 -34 0 -14 -27 26 -36 23 -5 44 -15 46 -22 4 -12 0 -12 -19 -1
-13 6 -38 12 -56 11 -18 -1 -33 3 -33 8 0 15 -60 12 -61 -2 0 -10 -2 -10 -6 0
-2 6 -18 12 -34 12 l-29 0 0 -65 c0 -58 2 -65 19 -65 18 0 39 -35 28 -47 -6
-6 -46 15 -66 34 -10 10 -11 17 -3 22 6 3 10 32 10 64 -1 31 2 60 5 64 4 3 37
6 73 5 59 -1 65 1 59 18 -3 10 -2 21 2 23 14 9 2 97 -13 97 -8 0 -14 -9 -14
-19 0 -15 -6 -19 -27 -18 -17 2 -28 8 -28 17 0 13 -32 15 -202 18 -124 1 -203
6 -203 12 0 6 57 10 145 10 90 0 145 4 145 10 0 6 7 10 15 10 8 0 15 -4 15
-10 0 -6 30 -10 70 -10 39 0 70 1 70 3 0 19 -48 119 -67 138 -22 24 -35 28
-119 34 -52 4 -92 11 -89 15 3 5 -5 11 -17 13 -13 2 13 4 57 4 76 0 77 -1 25
-7 -51 -6 -49 -7 33 -8 82 -2 90 -4 113 -29 14 -16 38 -56 54 -89 15 -34 32
-64 37 -67 6 -4 26 -4 45 -1 34 6 35 7 27 38 -16 65 -21 74 -57 95 -20 13 -42
26 -47 30 -17 10 -67 92 -61 99 4 3 13 -3 21 -14 8 -10 15 -15 15 -10 0 6 14
-3 30 -19 17 -16 30 -23 30 -17 0 7 -4 12 -10 12 -5 0 -10 5 -10 10 0 6 7 10
15 10 17 0 21 25 5 35 -8 5 -60 100 -60 111 0 2 4 4 8 4 5 0 17 -17 26 -39 24
-52 66 -97 76 -80 5 7 6 18 3 26 -3 7 0 13 6 13 6 0 11 -4 11 -8 0 -4 10 -8
21 -9 19 -2 21 2 15 38 -3 21 -2 39 3 39 4 0 11 -18 15 -39 3 -22 12 -41 18
-44 7 -2 -1 -7 -19 -11 -31 -7 -31 -8 -12 -27 11 -11 33 -19 54 -19 l35 0 0
80 c0 44 3 80 6 80 20 0 33 -35 36 -96 l3 -69 43 -3 c23 -2 42 -8 42 -14 0 -7
-16 -9 -45 -5 l-45 7 0 -45 c0 -58 -16 -58 -24 0 -7 44 -8 45 -44 45 -21 0
-48 7 -60 16 -21 14 -22 14 -22 -6 0 -16 -5 -19 -25 -16 -13 3 -29 7 -35 11
-5 3 -10 -3 -10 -14 0 -16 8 -22 40 -27 22 -4 44 -12 47 -18 4 -6 6 -39 5 -73
l-3 -61 70 -4 71 -3 0 28 c0 15 5 27 11 27 8 0 9 -19 4 -60 -6 -53 -5 -60 10
-60 10 0 23 7 29 16 10 13 18 14 55 4 24 -6 49 -9 56 -6 7 2 15 -4 18 -14 4
-16 10 -17 47 -9 49 11 80 26 80 39 0 5 10 10 22 12 42 6 41 88 -1 88 -23 0
-33 23 -25 57 l7 25 -59 -6 c-147 -15 -226 -18 -220 -8 3 6 0 12 -6 15 -7 2
-10 8 -6 12 5 5 33 2 64 -5 45 -11 64 -11 104 -1 28 7 64 10 81 6 l32 -7 -5
40 c-3 22 -14 52 -24 66 -18 24 -25 25 -101 26 -46 0 -83 4 -83 9 0 14 21 19
60 15 34 -4 33 -4 -10 13 -25 9 -39 18 -32 21 6 2 12 10 12 18 0 9 -12 14 -37
15 -42 1 -37 4 18 13 36 6 89 43 89 61 0 6 -4 4 -9 -4 -8 -12 -12 -12 -25 2
-21 20 -20 24 4 30 14 3 27 -3 41 -21 l22 -27 -7 35 c-5 29 -1 40 19 63 26 28
45 35 45 17z m-249 -10 c10 -6 19 -20 19 -31 0 -11 4 -28 9 -37 5 -9 5 -26 1
-37 -6 -17 -9 -14 -19 20 -6 22 -11 46 -11 53 0 6 -4 12 -8 12 -5 0 -17 7 -28
15 -18 13 -18 14 -1 15 10 0 27 -5 38 -10z m1419 -31 c0 -27 -3 -30 -22 -24
-34 11 -46 25 -20 25 13 0 22 6 22 15 0 8 5 15 10 15 6 0 10 -14 10 -31z m795
19 c31 -14 32 -28 2 -28 -23 0 -47 17 -47 32 0 11 15 10 45 -4z m-1235 -18 c0
-5 -4 -10 -9 -10 -6 0 -13 5 -16 10 -3 6 1 10 9 10 9 0 16 -4 16 -10z m-1950
-70 c4 -14 11 -36 14 -50 5 -24 8 -25 63 -22 42 3 67 10 90 28 45 34 65 29 23
-6 -30 -25 -44 -30 -92 -30 -31 0 -60 -5 -63 -11 -5 -7 5 -8 29 -4 35 7 36 6
36 -23 0 -16 7 -35 15 -42 13 -10 15 -9 15 9 0 19 6 21 50 21 28 0 50 -4 50
-10 0 -5 -11 -10 -23 -10 -25 0 -62 -32 -50 -43 3 -4 20 -7 36 -7 49 0 95 -28
108 -67 7 -21 16 -32 24 -29 34 12 105 18 105 7 0 -6 -8 -11 -18 -11 -10 0
-22 -3 -25 -6 -4 -4 -24 -8 -46 -10 -37 -4 -40 -2 -51 30 -16 48 -38 64 -94
68 -55 3 -102 39 -108 81 -3 19 -8 22 -44 20 l-41 -2 -6 56 c-3 31 -11 59 -18
63 -8 5 -9 17 -4 36 7 24 9 26 12 9 2 -11 8 -31 13 -45z m2007 54 c-3 -3 -12
-4 -19 -1 -8 3 -5 6 6 6 11 1 17 -2 13 -5z m-1325 -27 c4 -7 16 -6 36 2 33 14
200 22 207 11 2 -4 -30 -13 -73 -20 -42 -7 -80 -18 -84 -24 -6 -8 -11 -7 -16
2 -7 10 -14 11 -35 1 -23 -10 -30 -9 -47 6 -13 12 -27 15 -45 11 -14 -4 -25
-4 -25 -2 0 2 -3 12 -7 21 -5 15 -1 16 38 10 24 -4 47 -12 51 -18z m1728 3
c-6 -11 -15 -20 -21 -20 -6 0 -6 7 1 20 6 11 15 20 21 20 6 0 6 -7 -1 -20z
m895 -90 c26 -6 27 -8 12 -15 -12 -5 -31 -2 -50 8 -35 17 -17 21 38 7z m-959
-35 c-5 -18 -2 -25 9 -25 8 0 15 -4 15 -10 0 -11 -20 -13 -44 -4 -20 8 -21 33
-1 40 8 4 12 10 9 15 -3 5 0 9 6 9 8 0 10 -9 6 -25z m1844 -65 c0 -27 -4 -50
-10 -50 -5 0 -10 11 -10 24 0 13 -5 26 -12 28 -8 3 -5 11 8 25 10 12 20 22 22
22 1 1 2 -21 2 -49z m-3190 20 c0 -5 -7 -10 -15 -10 -8 0 -15 5 -15 10 0 6 7
10 15 10 8 0 15 -4 15 -10z m2250 -6 c0 -8 -4 -12 -10 -9 -5 3 -10 10 -10 16
0 5 5 9 10 9 6 0 10 -7 10 -16z m-390 -3 c0 -10 -50 -25 -58 -17 -3 3 6 10 19
15 31 13 39 13 39 2z m-520 -21 c0 -5 -10 -10 -22 -9 -22 0 -22 1 -3 9 11 5
21 9 23 9 1 1 2 -3 2 -9z m-97 -42 c-30 -14 -31 -58 -3 -65 13 -3 20 -14 20
-29 l0 -23 46 19 c52 23 54 23 54 11 0 -5 -16 -15 -35 -21 -31 -10 -34 -14
-24 -32 7 -13 7 -23 2 -27 -5 -3 -15 -15 -21 -26 -6 -11 -12 -14 -12 -7 0 6
-7 12 -15 12 -18 0 -18 5 -5 30 9 17 7 18 -21 10 -17 -5 -50 -18 -72 -29 -23
-10 -59 -24 -79 -31 -28 -9 -38 -17 -38 -33 0 -27 -15 -11 -24 26 -6 26 -5 28
15 22 14 -5 53 6 115 31 81 32 94 41 94 61 0 13 -4 23 -10 23 -5 0 -10 -11
-10 -25 0 -14 -4 -25 -10 -25 -5 0 -10 8 -10 19 0 16 -11 19 -99 24 -151 8
-163 26 -16 24 l120 -2 3 25 c5 42 11 50 34 49 l23 0 -22 -11z m-503 -33 c0
-8 -4 -15 -10 -15 -5 0 -10 7 -10 15 0 8 5 15 10 15 6 0 10 -7 10 -15z m400 5
c0 -5 -5 -10 -11 -10 -5 0 -7 5 -4 10 3 6 8 10 11 10 2 0 4 -4 4 -10z m-502
-27 c12 -3 22 -9 22 -14 0 -17 -38 -9 -61 12 -21 18 -21 20 -4 14 11 -4 30
-10 43 -12z m-84 -2 c7 -11 -17 -21 -50 -21 -33 0 -30 18 4 23 15 2 30 5 34 6
4 0 9 -3 12 -8z m196 -12 c0 -14 -26 -39 -40 -39 -6 0 -3 11 7 25 19 26 33 32
33 14z m558 -1 c-6 -18 -28 -21 -28 -4 0 9 7 16 16 16 9 0 14 -5 12 -12z m218
-58 c43 -27 46 -71 8 -114 -34 -38 -43 -25 -10 14 36 43 33 61 -14 90 -33 20
-40 30 -39 55 l1 30 9 -27 c6 -15 26 -37 45 -48z m-5266 40 c0 -4 -9 -10 -20
-13 -23 -6 -38 12 -20 23 14 9 40 2 40 -10z m4690 2 c0 -7 -11 -17 -24 -21
-29 -11 -108 -2 -100 11 4 6 19 8 34 6 20 -3 27 -1 23 9 -4 10 4 12 31 11 21
-2 36 -8 36 -16z m-140 -12 c0 -5 -4 -10 -10 -10 -5 0 -10 5 -10 10 0 6 5 10
10 10 6 0 10 -4 10 -10z m-1450 -19 c0 -6 -4 -13 -10 -16 -5 -3 -10 1 -10 9 0
9 5 16 10 16 6 0 10 -4 10 -9z m-1800 -20 c0 -11 -31 -24 -39 -16 -3 3 1 10 9
15 19 12 30 12 30 1z m2550 -16 c0 -14 -4 -25 -9 -25 -5 0 -16 -3 -25 -6 -20
-8 -22 20 -3 41 19 22 37 17 37 -10z m-1807 2 c101 -2 110 -4 121 -24 17 -33
78 -75 90 -63 13 13 187 13 206 0 11 -8 -16 -10 -87 -8 -71 1 -106 -2 -117
-11 -17 -15 -18 -14 -84 41 -18 15 -31 31 -30 34 2 4 -28 8 -66 10 -38 2 -71
6 -74 8 -2 3 -15 1 -29 -5 -17 -6 -32 -5 -54 6 -34 18 -38 30 -6 21 12 -4 71
-8 130 -9z m1721 -22 c-4 -8 -10 -12 -15 -9 -11 6 -2 24 11 24 5 0 7 -7 4 -15z
m1710 -1 c17 -45 -12 -63 -32 -20 -8 19 -8 26 1 30 20 8 25 7 31 -10z m-1466
-37 c-11 -21 -28 -14 -28 12 0 25 10 32 25 18 9 -8 10 -18 3 -30z m92 13 c0
-5 -2 -10 -4 -10 -3 0 -8 5 -11 10 -3 6 -1 10 4 10 6 0 11 -4 11 -10z m466 -5
c4 -8 14 -15 24 -15 11 0 22 -4 25 -10 4 -6 -7 -10 -27 -9 -38 1 -93 16 -65
18 9 1 17 8 17 16 0 8 5 15 10 15 6 0 13 -7 16 -15z m-686 -15 c0 -5 -4 -10
-10 -10 -5 0 -10 5 -10 10 0 6 5 10 10 10 6 0 10 -4 10 -10z m350 -30 c0 -22
-4 -40 -10 -40 -5 0 -10 18 -10 40 0 22 5 40 10 40 6 0 10 -18 10 -40z m520
20 c0 -5 -9 -10 -21 -10 -11 0 -45 -16 -75 -36 -30 -20 -57 -34 -60 -32 -10
11 76 71 107 75 18 2 35 5 37 8 8 8 12 6 12 -5z m-770 -10 c0 -5 -4 -10 -10
-10 -5 0 -10 5 -10 10 0 6 5 10 10 10 6 0 10 -4 10 -10z m-1095 -10 c3 -5 1
-10 -4 -10 -6 0 -11 5 -11 10 0 6 2 10 4 10 3 0 8 -4 11 -10z m2145 -22 c0 -5
-11 -8 -25 -8 -14 0 -25 5 -25 10 0 6 7 10 15 10 8 0 15 6 15 13 0 13 20 -12
20 -25z m-173 -40 c-3 -7 -5 -2 -5 12 0 14 2 19 5 13 2 -7 2 -19 0 -25z m2073
17 c0 -8 -4 -15 -10 -15 -5 0 -10 7 -10 15 0 8 5 15 10 15 6 0 10 -7 10 -15z
m-4230 -35 c10 0 20 -7 24 -15 3 -8 12 -12 21 -9 23 9 18 -4 -7 -17 -36 -19
-90 -29 -85 -16 3 7 10 11 16 10 6 -2 11 1 11 7 0 5 7 7 15 4 8 -4 15 -1 15 5
0 6 -11 13 -25 17 -25 6 -32 23 -17 38 4 4 8 1 10 -8 2 -9 12 -16 22 -16z
m1880 20 c0 -5 -10 -10 -22 -10 -19 0 -20 2 -8 10 19 13 30 13 30 0z m320 -10
c0 -5 -4 -10 -10 -10 -5 0 -10 5 -10 10 0 6 5 10 10 10 6 0 10 -4 10 -10z
m-1750 -24 c0 -13 -7 -26 -15 -30 -8 -3 -15 -12 -15 -20 0 -12 5 -14 26 -6 31
12 34 12 34 2 0 -5 -18 -16 -40 -25 -24 -9 -40 -22 -40 -32 0 -8 -7 -26 -15
-39 -14 -21 -14 -24 0 -30 8 -3 36 -3 62 1 34 4 44 3 39 -5 -4 -7 -14 -12 -22
-12 -11 0 -14 -22 -14 -115 l0 -115 35 -22 c19 -13 35 -30 35 -39 0 -34 15
-27 42 18 18 32 28 62 28 91 0 41 1 42 33 42 18 0 42 -7 53 -15 10 -8 30 -15
43 -15 22 0 23 3 17 40 -6 37 7 57 17 28 3 -10 7 -10 18 -1 10 8 20 9 29 2 13
-8 13 -10 0 -19 -8 -5 -21 -10 -27 -10 -7 0 -13 -9 -13 -20 0 -18 7 -20 82
-20 45 0 79 -2 77 -4 -2 -2 -54 -6 -116 -9 -86 -4 -116 -2 -130 9 -10 7 -28
14 -39 14 -18 0 -23 -8 -28 -42 -4 -24 -19 -63 -33 -87 -23 -39 -24 -45 -9
-53 9 -5 23 -23 32 -40 29 -57 43 -64 147 -77 76 -10 106 -10 135 0 67 21 142
60 142 74 0 7 9 15 20 18 11 3 20 1 20 -4 0 -5 10 -14 23 -19 19 -9 18 -10
-10 -7 -18 2 -33 1 -33 -3 0 -8 -83 -48 -146 -70 -48 -17 -59 -17 -165 -3 -70
10 -117 21 -122 29 -4 7 -13 11 -20 8 -7 -2 -21 2 -32 10 -16 12 -17 15 -5 16
9 0 21 -5 28 -12 9 -9 12 -8 12 8 0 21 -34 64 -50 64 -6 0 -10 -31 -10 -70 l0
-70 70 0 c40 0 70 -4 70 -10 0 -6 -30 -10 -70 -10 l-70 0 -1 -37 c0 -21 -2
-51 -3 -68 -1 -16 -3 -63 -4 -102 -1 -40 -5 -73 -9 -73 -5 0 -7 63 -5 140 l4
140 -31 0 c-17 0 -31 5 -31 10 0 6 14 10 30 10 29 0 30 2 30 45 0 25 -4 45 -8
45 -15 0 -50 -45 -57 -73 -11 -43 -29 -46 -21 -3 l7 36 -61 0 c-33 0 -60 4
-60 10 0 6 30 10 69 10 49 0 72 4 81 15 7 8 20 15 30 15 11 0 20 10 23 28 5
27 -7 52 -25 52 -6 0 -19 11 -29 25 -13 16 -25 22 -37 18 -15 -6 -15 -4 -4 10
12 14 7 20 -35 51 -26 20 -63 43 -80 51 -18 9 -33 20 -33 25 0 5 -15 25 -34
44 -18 20 -46 54 -62 77 -16 24 -41 50 -56 59 -16 9 -25 20 -22 23 9 9 61 -20
67 -38 5 -12 25 -15 96 -15 l89 0 21 43 21 42 -56 3 c-37 2 -78 -4 -120 -17
-83 -27 -85 -27 -73 9 9 25 16 30 45 30 24 0 34 5 34 15 0 17 2 18 24 9 9 -3
16 -12 16 -20 0 -11 16 -14 65 -14 53 0 66 3 75 19 9 17 6 20 -18 24 l-27 4
32 8 c18 4 35 16 38 26 9 27 25 24 25 -5z m245 4 c3 -5 -1 -10 -9 -10 -9 0
-16 5 -16 10 0 6 4 10 9 10 6 0 13 -4 16 -10z m1571 -4 c19 -20 18 -26 -6 -26
-13 0 -20 7 -20 20 0 24 6 25 26 6z m44 -7 c0 -5 -4 -9 -10 -9 -5 0 -10 7 -10
16 0 8 5 12 10 9 6 -3 10 -10 10 -16z m122 -46 c3 -21 8 -46 12 -55 5 -10 4
-18 -1 -18 -14 0 -33 46 -33 80 0 43 17 37 22 -7z m-621 17 c5 0 9 -9 9 -20 0
-14 7 -20 23 -20 12 0 34 -8 47 -17 15 -11 53 -20 95 -24 l70 -6 -72 -1 c-57
-2 -80 2 -105 18 -46 28 -138 28 -145 0 -3 -12 -24 -27 -59 -40 -63 -23 -64
-23 -64 -11 0 5 14 12 30 16 31 7 60 29 60 46 0 5 -21 9 -47 9 -25 0 -44 2
-41 5 3 3 47 6 97 6 66 0 91 4 88 12 -2 7 -16 12 -30 11 -15 0 -27 3 -27 7 0
10 31 18 48 13 8 -2 18 -4 23 -4z m-1081 -70 c0 -5 -4 -10 -10 -10 -5 0 -10 5
-10 10 0 6 5 10 10 10 6 0 10 -4 10 -10z m1363 -17 c-7 -2 -19 -2 -25 0 -7 3
-2 5 12 5 14 0 19 -2 13 -5z m-1265 -11 c-7 -18 -99 -94 -106 -88 -3 4 16 27
43 51 47 41 71 56 63 37z m330 -3 c-31 -17 -132 -23 -145 -8 -9 12 3 14 75 16
59 1 82 -1 70 -8z m-226 -21 c-6 -6 -15 -8 -19 -4 -4 4 -1 11 7 16 19 12 27 3
12 -12z m38 12 c0 -5 -4 -10 -10 -10 -5 0 -10 5 -10 10 0 6 5 10 10 10 6 0 10
-4 10 -10z m-410 -15 c0 -8 -4 -15 -10 -15 -5 0 -10 7 -10 15 0 8 5 15 10 15
6 0 10 -7 10 -15z m420 -15 c0 -5 -4 -10 -10 -10 -5 0 -10 5 -10 10 0 6 5 10
10 10 6 0 10 -4 10 -10z m130 -10 c0 -5 -9 -10 -20 -10 -11 0 -20 5 -20 10 0
6 9 10 20 10 11 0 20 -4 20 -10z m-1301 -122 c1 -52 12 -59 47 -33 10 8 38 15
60 15 33 0 43 -4 47 -20 5 -21 -7 -28 -18 -10 -10 17 -61 11 -78 -8 -13 -14
-14 -21 -5 -30 6 -6 9 -15 5 -18 -4 -4 -15 4 -26 17 l-19 24 -24 -22 c-32 -30
-42 -29 -22 2 13 19 17 47 16 108 0 58 2 73 8 52 4 -16 8 -51 9 -77z m1257 64
c-10 -10 -29 15 -21 28 6 9 10 8 17 -4 6 -10 7 -20 4 -24z m1124 -2 c12 -7 8
-10 -15 -10 -16 0 -37 5 -45 10 -12 7 -8 10 15 10 17 0 37 -5 45 -10z m107
-37 c-3 -10 -5 -2 -5 17 0 19 2 27 5 18 2 -10 2 -26 0 -35z m-897 2 c0 -24 2
-25 68 -25 45 0 62 -3 52 -10 -8 -5 -49 -8 -91 -7 -59 2 -75 -1 -71 -11 2 -7
11 -11 19 -7 10 3 13 1 10 -9 -6 -15 31 -26 84 -26 16 0 29 -5 29 -11 0 -7
-19 -9 -59 -4 -48 5 -59 4 -64 -9 -5 -14 3 -16 58 -16 37 0 65 -4 65 -10 0 -6
-30 -10 -69 -10 -65 0 -69 -1 -75 -25 -4 -14 -11 -25 -16 -25 -13 0 -13 17 0
25 19 12 10 25 -16 25 -22 0 -25 -3 -20 -22 3 -13 6 -31 6 -40 0 -13 16 -22
58 -33 31 -9 66 -20 77 -25 36 -16 -23 -10 -90 8 l-60 17 -7 49 c-4 27 -12 54
-17 59 -6 6 -11 18 -11 26 0 12 3 11 18 -2 23 -21 82 -23 82 -3 0 8 -17 17
-42 22 l-43 8 38 4 c33 3 36 5 22 18 -8 9 -15 24 -15 34 0 10 -10 21 -22 25
-19 6 -20 8 -6 12 9 2 30 -3 47 -11 39 -21 41 -20 41 9 0 14 5 25 10 25 6 0
10 -11 10 -25z m-3292 8 c-2 -5 -17 -29 -33 -54 -29 -46 -31 -47 -94 -53 -35
-4 -75 -13 -90 -21 -48 -25 -99 -88 -110 -133 -5 -24 -18 -54 -30 -65 -13 -15
-21 -38 -22 -70 -3 -54 -8 -61 -63 -101 -34 -26 -44 -28 -98 -23 -33 3 -67 12
-77 21 -25 23 -51 20 -80 -8 -34 -32 -200 -82 -169 -51 3 3 32 13 64 22 33 9
70 26 84 39 38 35 74 40 109 15 46 -33 117 -29 169 9 39 28 42 33 42 79 0 38
6 56 24 78 13 16 27 47 31 68 9 48 69 115 124 138 20 9 61 19 91 22 52 6 57 9
83 51 16 24 33 44 39 44 5 0 8 -3 6 -7z m3716 -9 c3 -8 2 -12 -4 -9 -6 3 -10
10 -10 16 0 14 7 11 14 -7z m-619 -14 c3 -5 -1 -10 -9 -10 -10 0 -16 -9 -16
-22 1 -21 2 -22 14 -5 18 23 29 22 21 -3 -6 -18 3 -25 27 -21 12 2 5 -53 -8
-66 -7 -7 -20 -13 -28 -13 -9 0 -16 -4 -16 -10 0 -5 7 -7 16 -3 11 4 15 2 12
-7 -18 -55 -65 61 -53 131 6 37 26 51 40 29z m-2014 -13 c-1 -12 -15 -9 -19 4
-3 6 1 10 8 8 6 -3 11 -8 11 -12z m1511 -9 c-6 -6 -15 -8 -19 -4 -4 4 -1 11 7
16 19 12 27 3 12 -12z m1493 2 c3 -5 -1 -10 -9 -10 -9 0 -16 5 -16 10 0 6 4
10 9 10 6 0 13 -4 16 -10z m-2914 -10 c20 -11 26 -45 10 -54 -5 -4 -7 3 -4 14
3 11 1 20 -4 20 -5 0 -18 7 -29 15 -22 17 -3 21 27 5z m2342 -42 c14 -24 39
-56 56 -72 17 -17 31 -34 31 -40 0 -14 -76 63 -100 100 -18 29 -26 54 -16 54
2 0 15 -19 29 -42z m660 35 c-13 -2 -33 -2 -45 0 -13 2 -3 4 22 4 25 0 35 -2
23 -4z m64 -9 c-3 -3 -12 -4 -19 -1 -8 3 -5 6 6 6 11 1 17 -2 13 -5z m-2907
-59 c30 -18 69 -37 85 -40 17 -4 44 -20 60 -35 17 -16 47 -33 67 -38 20 -6 56
-24 80 -41 24 -16 62 -37 86 -47 23 -9 42 -20 42 -25 0 -5 -2 -9 -4 -9 -15 0
-107 46 -134 67 -18 14 -50 29 -70 35 -20 5 -50 22 -67 38 -16 15 -44 31 -61
35 -18 3 -54 20 -80 37 -27 17 -64 37 -81 45 -40 16 -45 37 -6 22 15 -5 52
-25 83 -44z m1067 49 c-3 -3 -12 -4 -19 -1 -8 3 -5 6 6 6 11 1 17 -2 13 -5z
m563 -14 c0 -11 -4 -20 -10 -20 -5 0 -10 9 -10 20 0 11 5 20 10 20 6 0 10 -9
10 -20z m-30 -7 c-1 -11 -26 -43 -34 -43 -4 0 -3 27 3 48 2 6 31 1 31 -5z
m-790 -38 c0 -17 -86 -115 -143 -162 l-39 -33 80 0 c48 0 84 -4 88 -11 4 -8
-21 -10 -87 -8 -78 3 -99 0 -121 -15 -21 -13 -35 -16 -55 -10 l-28 8 29 4 c16
2 49 19 72 39 l43 34 -30 27 c-33 29 -32 62 1 62 10 0 20 9 23 20 7 28 47 27
47 -1 0 -15 -5 -19 -15 -15 -20 7 -20 -30 -1 -49 12 -13 19 -9 49 24 18 21 44
52 57 69 27 36 30 38 30 17z m-480 -75 c0 -20 -2 -22 -10 -10 -5 8 -10 26 -10
40 0 20 2 22 10 10 5 -8 10 -26 10 -40z m2690 -15 c0 -9 -9 -15 -24 -15 -14 0
-28 -4 -31 -10 -3 -5 -11 -10 -17 -10 -15 0 12 31 37 40 29 13 35 12 35 -5z
m-5461 -84 c23 -62 22 -80 -9 -141 -31 -62 -37 -98 -20 -131 15 -26 93 -26
156 1 26 11 52 19 58 17 19 -6 -86 -48 -136 -54 -47 -6 -47 -6 -31 -29 26 -40
-3 -27 -38 17 -48 60 -52 101 -17 171 37 76 37 123 -2 168 -16 19 -29 39 -30
43 0 17 59 -37 69 -62z m4263 37 c-6 -6 -15 -8 -19 -4 -4 4 -1 11 7 16 19 12
27 3 12 -12z m-1084 -27 c3 -8 -1 -12 -9 -9 -7 2 -15 10 -17 17 -3 8 1 12 9 9
7 -2 15 -10 17 -17z m1042 10 c0 -5 -9 -11 -20 -14 -22 -6 -28 8 -7 16 19 8
27 8 27 -2z m-1990 -31 c0 -5 -4 -10 -10 -10 -5 0 -10 5 -10 10 0 6 5 10 10
10 6 0 10 -4 10 -10z m1928 3 c-10 -2 -26 -2 -35 0 -10 3 -2 5 17 5 19 0 27
-2 18 -5z m72 -33 c0 -5 -4 -10 -10 -10 -5 0 -10 5 -10 10 0 6 5 10 10 10 6 0
10 -4 10 -10z m-1590 -29 c74 4 149 10 165 14 l30 6 -30 -17 c-62 -36 -410
-25 -422 13 -3 7 20 4 59 -6 52 -14 87 -16 198 -10z m265 -18 c-4 -26 -15 -59
-25 -73 -19 -27 -13 -61 12 -77 21 -12 61 -73 54 -80 -4 -4 -14 4 -23 18 -33
47 -71 79 -87 73 -22 -9 -20 -1 15 56 17 28 33 68 36 90 3 22 10 40 15 40 6 0
8 -18 3 -47z m1158 12 c15 -14 27 -30 27 -35 0 -19 85 -70 117 -70 18 0 33 -5
33 -11 0 -20 -74 -3 -118 26 -23 15 -42 33 -42 40 0 6 -8 20 -19 29 -18 16
-18 16 -13 -11 7 -40 -14 -17 -23 25 -8 39 1 40 38 7z m474 3 c-3 -8 -6 -5 -6
6 -1 11 2 17 5 13 3 -3 4 -12 1 -19z m0 -65 c-3 -10 -5 -4 -5 12 0 17 2 24 5
18 2 -7 2 -21 0 -30z m1939 0 c-4 -21 -14 -56 -22 -79 -25 -67 -17 -95 39
-125 34 -18 57 -40 74 -70 13 -24 28 -46 32 -49 33 -21 88 -210 61 -210 -4 0
-11 24 -15 53 -5 37 -23 78 -61 142 -48 81 -60 93 -113 123 -59 32 -60 32 -54
70 3 20 14 59 24 85 11 26 19 59 19 72 0 14 5 25 11 25 7 0 9 -13 5 -37z
m-2741 -33 c3 -5 -1 -10 -9 -10 -9 0 -16 5 -16 10 0 6 4 10 9 10 6 0 13 -4 16
-10z m802 -253 c-1 -45 -3 -5 -3 88 0 94 2 130 3 82 2 -48 2 -125 0 -170z
m-937 223 c0 -5 -4 -10 -10 -10 -5 0 -10 5 -10 10 0 6 5 10 10 10 6 0 10 -4
10 -10z m-354 -25 c-11 -8 -16 -21 -13 -30 6 -13 -4 -19 -25 -16 -4 0 -12 -26
-19 -59 -6 -33 -16 -60 -21 -60 -22 0 28 167 51 173 36 10 47 7 27 -8z m324
-35 c0 -5 -5 -10 -11 -10 -5 0 -7 5 -4 10 3 6 8 10 11 10 2 0 4 -4 4 -10z
m-700 -76 c0 -8 -4 -12 -10 -9 -5 3 -10 10 -10 16 0 5 5 9 10 9 6 0 10 -7 10
-16z m2520 6 c0 -5 -9 -10 -21 -10 -11 0 -17 5 -14 10 3 6 13 10 21 10 8 0 14
-4 14 -10z m1723 -17 c-7 -2 -21 -2 -30 0 -10 3 -4 5 12 5 17 0 24 -2 18 -5z
m140 0 c-13 -2 -33 -2 -45 0 -13 2 -3 4 22 4 25 0 35 -2 23 -4z m-7605 -35
c-9 -26 -98 -72 -98 -50 0 6 12 13 27 17 15 3 33 15 41 26 14 21 36 26 30 7z
m6068 -31 c40 -48 65 -88 62 -98 -3 -10 -98 102 -98 115 0 13 17 5 36 -17z
m-1722 -2 c3 -8 15 -15 26 -15 11 0 20 -4 20 -10 0 -5 -7 -10 -15 -10 -20 0
-20 -49 0 -56 11 -5 12 -11 5 -24 -15 -28 -12 -33 17 -25 21 5 24 4 16 -7 -6
-7 -13 -25 -17 -40 -3 -16 -11 -28 -16 -28 -13 0 -13 13 1 27 8 8 5 15 -8 24
-18 13 -23 36 -24 107 0 17 -5 32 -10 32 -5 0 -9 8 -10 18 0 15 -1 15 -8 -2
-6 -15 -10 -16 -16 -7 -4 8 -2 17 6 22 20 12 26 11 33 -6z m171 -72 c4 -19 3
-33 -3 -33 -11 0 -33 76 -24 85 8 8 18 -13 27 -52z m225 27 c0 -5 -4 -10 -10
-10 -6 0 -10 -28 -10 -65 0 -37 -4 -65 -10 -65 -14 0 -13 123 2 138 15 15 28
16 28 2z m1784 1 c7 -10 -22 -37 -30 -28 -9 8 3 37 15 37 5 0 12 -4 15 -9z
m-976 -9 c7 -5 10 -16 6 -26 -9 -24 11 -36 64 -36 45 0 52 -10 25 -37 -19 -19
-19 -68 -1 -90 6 -7 30 -13 54 -13 32 0 44 -4 44 -14 0 -24 12 -25 95 -8 75
16 80 19 79 42 -1 14 -5 33 -9 43 -4 10 -3 17 3 17 6 0 14 -9 17 -20 4 -11 11
-17 17 -14 6 4 8 -1 3 -15 -13 -41 104 -83 134 -47 6 7 39 19 73 26 l61 13 29
-33 c15 -19 28 -38 28 -43 0 -5 16 -7 35 -4 33 5 35 4 35 -24 0 -16 -4 -29
-10 -29 -5 0 -10 8 -10 19 0 14 -6 17 -23 14 -18 -4 -29 5 -54 40 l-32 44 -50
-11 c-27 -6 -58 -19 -70 -30 -16 -15 -29 -17 -64 -12 -24 4 -52 13 -62 20 -14
10 -32 9 -99 -6 -102 -22 -146 -23 -146 -3 0 11 -11 15 -38 15 -45 0 -62 14
-62 52 0 21 -5 28 -20 28 -29 0 -24 25 8 40 l27 13 -38 7 c-21 4 -46 14 -55
23 -14 15 -17 15 -33 1 -15 -13 -24 -14 -54 -4 -29 10 -44 9 -82 -4 -56 -19
-63 -20 -63 -4 0 6 -7 20 -17 30 -15 17 -17 17 -35 2 -22 -20 -23 -47 -4 -77
11 -17 12 -24 3 -32 -16 -14 -57 -17 -57 -5 0 6 7 10 16 10 12 0 14 8 9 43 -4
36 -1 46 21 71 32 37 48 30 81 -33 1 -1 24 4 52 14 37 12 55 14 70 6 28 -15
51 -14 56 4 3 8 7 22 10 30 5 17 14 19 33 7z m-1258 -24 c-1 -7 -7 -24 -14
-37 -11 -20 -10 -32 5 -83 11 -33 19 -77 19 -98 0 -35 2 -38 38 -44 72 -12 82
-9 82 23 0 40 27 101 46 101 8 0 34 -5 57 -11 41 -10 42 -11 45 -57 2 -42 9
-55 37 -65 6 -3 7 -8 2 -12 -4 -5 -12 -4 -18 2 -7 7 -23 8 -47 2 -45 -10 -362
1 -362 13 0 4 23 8 50 8 l50 0 -1 48 c0 26 -8 69 -18 97 -16 46 -16 52 -2 87
16 37 31 50 31 26z m3440 -14 c0 -8 -4 -12 -10 -9 -5 3 -10 10 -10 16 0 5 5 9
10 9 6 0 10 -7 10 -16z m-1545 -84 c10 -11 16 -20 13 -20 -3 0 -13 9 -23 20
-10 11 -16 20 -13 20 3 0 13 -9 23 -20z m-3001 -16 c7 -17 -10 -54 -24 -54 -6
0 -10 16 -10 35 0 37 22 49 34 19z m4226 -19 c0 -17 6 -25 18 -25 16 -1 16 -1
0 -11 -10 -5 -18 -21 -18 -34 0 -14 -4 -25 -10 -25 -5 0 -10 11 -10 25 0 20
-5 25 -27 26 l-28 1 28 11 c18 7 27 18 27 34 0 13 5 23 10 23 6 0 10 -11 10
-25z m-3946 -53 c46 4 66 2 66 -6 0 -6 15 -17 33 -25 17 -7 27 -15 20 -17 -6
-3 -25 2 -42 10 -18 10 -56 16 -94 16 -58 0 -66 3 -81 25 -23 35 -20 42 8 15
22 -20 32 -22 90 -18z m-344 -57 c0 -8 -4 -15 -10 -15 -5 0 -10 7 -10 15 0 8
5 15 10 15 6 0 10 -7 10 -15z m1838 -7 c9 -9 12 -9 12 0 0 7 16 12 40 12 22 0
40 -4 40 -10 0 -5 -16 -10 -35 -10 -39 0 -46 -14 -14 -30 16 -9 26 -8 44 4 31
20 41 20 25 0 -25 -29 -50 -36 -73 -21 -12 7 -34 17 -49 21 -26 6 -36 25 -21
39 9 10 17 9 31 -5z m-828 -18 c0 -5 -25 -10 -55 -10 -30 0 -55 5 -55 10 0 6
25 10 55 10 30 0 55 -4 55 -10z m1349 -23 c10 -27 3 -77 -11 -77 -5 0 -7 13
-3 29 3 17 1 39 -5 50 -7 15 -7 21 0 21 6 0 14 -10 19 -23z m-1873 -134 c-11
-11 -19 6 -11 24 8 17 8 17 12 0 3 -10 2 -21 -1 -24z m384 -59 c0 -8 -4 -14
-9 -14 -11 0 -22 26 -14 34 9 9 23 -3 23 -20z m2685 -25 c26 -50 26 -52 8 -72
-24 -29 -46 -46 -57 -47 -6 0 4 15 22 33 l31 32 -24 53 c-31 67 -14 68 20 1z
m-3717 -19 c-2 -6 -8 -6 -18 0 -13 9 -13 11 0 20 15 10 25 0 18 -20z m1832
-84 c0 -72 -5 -107 -21 -150 -12 -31 -26 -56 -31 -56 -10 0 -3 31 18 72 9 18
14 62 14 128 0 60 4 100 10 100 6 0 10 -38 10 -94z m-4516 69 c-4 -10 0 -15
12 -16 25 -2 26 -2 49 7 18 7 18 6 6 -9 -14 -18 -57 -22 -79 -9 -13 9 -6 42 9
42 4 0 6 -7 3 -15z m3731 -44 c-4 -17 -11 -31 -16 -31 -12 0 -11 12 1 46 14
35 24 24 15 -15z m-475 -22 c0 -12 -7 -19 -18 -19 -15 0 -18 6 -14 30 3 25 7
28 18 19 8 -6 14 -20 14 -30z m17 9 c-3 -7 -5 -2 -5 12 0 14 2 19 5 13 2 -7 2
-19 0 -25z m537 -33 c6 -16 -2 -45 -13 -45 -4 0 -17 7 -29 16 -32 22 -27 40 6
18 19 -13 24 -13 15 -2 -7 8 -10 18 -6 21 10 11 20 8 27 -8z m-104 -15 c0 -5
8 -10 18 -10 16 -1 16 -1 0 -10 -21 -13 -48 -2 -41 16 6 16 23 19 23 4z
m-1730 -5 c0 -15 -34 -69 -37 -59 -5 16 15 64 27 64 5 0 10 -2 10 -5z m1363
-2 c-13 -2 -33 -2 -45 0 -13 2 -3 4 22 4 25 0 35 -2 23 -4z m4067 2 c0 -8
-102 -57 -108 -51 -7 8 -5 10 43 34 39 20 65 27 65 17z m-4133 -61 c-3 -3 -12
-4 -19 -1 -8 3 -5 6 6 6 11 1 17 -2 13 -5z m-179 -21 c-15 -2 -42 -2 -60 0
-18 2 -6 4 27 4 33 0 48 -2 33 -4z m-88 -350 l0 -78 50 -40 c55 -45 68 -88 29
-100 -25 -8 -39 2 -15 11 29 11 17 41 -34 84 l-50 42 0 79 c0 46 4 79 10 79 6
0 10 -33 10 -77z m147 -81 c6 -4 19 -26 28 -50 22 -54 14 -90 -23 -98 -15 -3
-33 -7 -39 -10 -18 -5 -16 -34 2 -34 21 0 29 -25 16 -47 -10 -17 -10 -16 -11
3 0 13 -8 24 -20 27 -13 3 -20 14 -20 29 0 29 17 48 45 48 42 0 49 14 35 65
-7 26 -19 49 -27 52 -14 5 -18 23 -5 23 4 0 12 -4 19 -8z m2827 -28 c20 -8 21
-33 1 -41 -15 -5 -44 21 -45 40 0 9 22 9 44 1z m-1299 -374 c-3 -5 -10 -10
-16 -10 -5 0 -9 5 -9 10 0 6 7 10 16 10 8 0 12 -4 9 -10z m15 -30 c0 -25 -37
-47 -53 -31 -8 8 -5 11 11 11 15 0 22 6 22 20 0 11 5 20 10 20 6 0 10 -9 10
-20z m273 -140 c9 0 17 -4 17 -10 0 -5 -14 -7 -32 -3 -29 6 -32 5 -20 -9 9
-12 10 -18 2 -23 -6 -4 -9 -13 -6 -21 6 -16 -10 -19 -19 -4 -3 6 -11 10 -17
10 -7 0 -6 -6 2 -15 9 -11 9 -15 1 -15 -6 0 -16 11 -21 24 -5 14 -19 30 -30
36 -12 6 -19 14 -16 17 3 3 17 -2 30 -11 39 -25 58 -21 50 11 -6 24 -5 26 17
20 13 -4 32 -7 42 -7z m-261 -40 c-25 -24 -27 -31 -10 -48 16 -16 2 -28 -17
-12 -19 16 -30 -8 -22 -49 4 -20 1 -33 -9 -42 -14 -12 -14 -14 1 -25 9 -7 14
-18 10 -24 -5 -8 -11 -8 -21 1 -16 13 -19 50 -4 65 17 17 1 42 -23 37 -19 -4
-20 -3 -5 7 10 6 15 17 11 27 -4 11 -2 14 8 11 15 -5 43 18 45 36 0 6 2 17 2
24 1 6 14 12 29 12 l27 0 -22 -20z m849 3 c13 -16 12 -17 -3 -4 -17 13 -22 21
-14 21 2 0 10 -8 17 -17z m-771 -3 c-19 -13 -30 -13 -30 0 0 6 10 10 23 10 18
0 19 -2 7 -10z m65 -58 c-6 -7 -35 18 -35 31 0 5 9 2 20 -8 11 -10 18 -20 15
-23z m85 -2 c0 -5 -12 -10 -27 -10 -22 0 -25 2 -13 10 20 13 40 13 40 0z
m-2810 -164 c0 -2 -8 -10 -17 -17 -16 -13 -17 -12 -4 4 13 16 21 21 21 13z
m-30 -100 c0 -2 -8 -10 -17 -17 -16 -13 -17 -12 -4 4 13 16 21 21 21 13z
m-230 -76 c0 -27 -4 -50 -10 -50 -5 0 -10 23 -10 50 0 28 5 50 10 50 6 0 10
-22 10 -50z m2576 -17 c13 -32 14 -46 4 -85 -12 -48 -3 -104 22 -135 6 -7 3
-15 -8 -21 -11 -6 -18 -27 -22 -61 -4 -44 -2 -51 12 -45 9 3 16 1 16 -5 0 -6
-7 -11 -15 -11 -17 0 -34 -29 -28 -47 3 -7 -1 -13 -7 -13 -9 0 -10 15 -5 51 6
42 4 52 -11 64 -18 14 -18 14 4 15 16 0 22 6 22 23 0 13 5 28 10 33 7 7 5 26
-5 59 -11 39 -12 57 -3 87 8 29 8 48 0 77 -13 42 -14 51 -7 51 3 0 12 -17 21
-37z m-850 -17 c10 -8 16 -17 13 -21 -8 -7 -59 15 -59 27 0 13 24 10 46 -6z
m-1188 -173 c-16 -2 -40 -2 -55 0 -16 2 -3 4 27 4 30 0 43 -2 28 -4z m4886
-319 c8 -21 3 -26 -17 -18 -9 3 -13 12 -10 20 7 19 19 18 27 -2z"/>
<path d="M5107 6853 c-22 -6 -18 -22 10 -40 20 -14 23 -12 38 16 15 30 15 31
-7 30 -13 -1 -31 -3 -41 -6z"/>
<path d="M5176 6831 c-14 -26 -14 -30 0 -35 27 -10 31 -7 32 24 1 41 -14 46
-32 11z"/>
<path d="M5756 6905 c-9 -14 -23 -25 -31 -25 -8 0 -15 -9 -15 -20 0 -29 12
-25 47 15 17 19 40 35 50 35 15 0 16 2 3 10 -24 15 -37 12 -54 -15z"/>
<path d="M5785 6868 c6 -16 4 -20 -8 -15 -8 3 -23 -3 -33 -14 -10 -11 -26 -18
-36 -16 -14 4 -18 -1 -18 -19 0 -20 -5 -24 -30 -24 -34 0 -38 -10 -12 -33 39
-35 80 -16 155 72 25 30 23 71 -4 71 -16 0 -19 -4 -14 -22z"/>
<path d="M6860 6269 c0 -5 5 -7 10 -4 6 3 10 8 10 11 0 2 -4 4 -10 4 -5 0 -10
-5 -10 -11z"/>
<path d="M4766 5652 c-2 -4 -9 -24 -14 -45 l-11 -39 42 7 c23 4 43 9 45 10 2
2 -3 17 -12 33 -15 29 -42 48 -50 34z"/>
<path d="M4200 4866 c0 -7 11 -16 25 -18 29 -6 30 -5 9 16 -19 20 -34 21 -34
2z"/>
<path d="M4200 4810 c0 -5 7 -10 16 -10 8 0 12 5 9 10 -3 6 -10 10 -16 10 -5
0 -9 -4 -9 -10z"/>
<path d="M5410 4441 c0 -5 7 -14 15 -21 13 -10 15 -9 15 9 0 12 -6 21 -15 21
-8 0 -15 -4 -15 -9z"/>
<path d="M5420 4385 c0 -8 5 -15 10 -15 6 0 10 7 10 15 0 8 -4 15 -10 15 -5 0
-10 -7 -10 -15z"/>
<path d="M5385 4370 c-3 -5 -2 -10 4 -10 5 0 13 5 16 10 3 6 2 10 -4 10 -5 0
-13 -4 -16 -10z"/>
<path d="M4644 4325 c-9 -22 1 -29 15 -11 8 10 9 16 1 21 -5 3 -13 -1 -16 -10z"/>
<path d="M4672 4300 c-7 -11 -9 -20 -4 -20 4 0 13 9 20 20 7 11 9 20 4 20 -4
0 -13 -9 -20 -20z"/>
<path d="M4712 4270 c0 -14 2 -19 5 -12 2 6 2 18 0 25 -3 6 -5 1 -5 -13z"/>
<path d="M4295 4070 c4 -6 11 -8 16 -5 14 9 11 15 -7 15 -8 0 -12 -5 -9 -10z"/>
<path d="M4321 4038 c0 -7 7 -29 14 -48 l13 -35 1 48 c1 35 -3 47 -14 47 -8 0
-15 -6 -14 -12z"/>
<path d="M4448 3933 c-22 -3 -28 -10 -28 -29 0 -21 5 -24 34 -24 19 0 38 5 41
10 7 12 -3 51 -13 49 -4 -1 -19 -4 -34 -6z"/>
<path d="M4370 3915 c0 -8 7 -15 15 -15 8 0 15 7 15 15 0 8 -7 15 -15 15 -8 0
-15 -7 -15 -15z"/>
<path d="M4862 3879 c-37 -46 -56 -99 -34 -99 18 -1 142 45 142 52 0 4 -4 8
-10 8 -5 0 -10 9 -10 20 0 27 -21 70 -35 70 -6 0 -30 -23 -53 -51z m48 -10 c0
-5 -4 -9 -10 -9 -5 0 -10 7 -10 16 0 8 5 12 10 9 6 -3 10 -10 10 -16z m18 -38
c3 -8 -1 -12 -9 -9 -7 2 -15 10 -17 17 -3 8 1 12 9 9 7 -2 15 -10 17 -17z"/>
<path d="M4810 3884 c-25 -13 -50 -28 -57 -34 -7 -5 -19 -7 -27 -4 -8 3 -23 1
-33 -5 -10 -6 -13 -11 -7 -11 18 0 25 -40 7 -40 -9 0 -13 6 -9 15 3 8 0 14 -7
12 -7 -1 -13 11 -15 29 -3 29 -7 32 -45 37 -23 3 -43 2 -45 -4 -2 -5 -17 -9
-33 -9 -30 0 -30 -1 -27 -47 3 -42 6 -48 27 -51 15 -2 21 0 17 7 -4 6 -3 11 3
11 5 0 12 -6 14 -12 4 -10 6 -10 6 0 1 15 101 17 101 2 0 -7 22 -10 58 -8 56
3 57 4 62 35 3 18 20 48 38 68 39 41 34 42 -28 9z"/>
<path d="M3708 3743 c6 -2 18 -2 25 0 6 3 1 5 -13 5 -14 0 -19 -2 -12 -5z"/>
<path d="M3720 3623 c1 -5 19 -28 42 -53 22 -25 37 -39 33 -32 -4 7 4 30 19
53 l26 39 -60 0 c-33 0 -60 -3 -60 -7z"/>
<path d="M3857 3612 c-10 -10 -17 -28 -17 -40 0 -12 -4 -22 -10 -22 -19 0 -10
-42 10 -47 11 -3 20 -11 20 -17 0 -7 20 -26 45 -44 l45 -32 0 110 0 110 -38 0
c-25 0 -45 -7 -55 -18z"/>
<path d="M4616 2564 c-3 -9 -6 -31 -6 -51 0 -30 3 -34 23 -31 17 2 23 11 25
36 5 47 -28 83 -42 46z"/>
<path d="M4705 2560 c3 -5 8 -10 11 -10 2 0 4 5 4 10 0 6 -5 10 -11 10 -5 0
-7 -4 -4 -10z"/>
<path d="M4688 2517 c-4 -20 -1 -23 14 -19 22 5 23 15 4 31 -11 9 -15 7 -18
-12z"/>
<path d="M810 7986 c9 -9 44 -16 88 -18 64 -3 72 -2 72 14 0 16 -10 18 -87 18
-75 0 -85 -2 -73 -14z"/>
<path d="M5430 7981 c5 -11 10 -32 10 -48 0 -16 7 -39 16 -51 20 -29 59 -20
94 21 14 16 41 35 59 41 19 6 41 21 49 34 l14 22 -126 0 c-122 0 -126 -1 -116
-19z"/>
<path d="M2786 6000 c-27 -11 -54 -24 -60 -30 -5 -5 -19 -10 -29 -10 -27 0 36
-49 123 -97 40 -22 77 -51 94 -75 15 -21 23 -38 17 -38 -5 0 -19 13 -31 30
-12 16 -54 49 -93 72 -40 23 -90 56 -113 75 -54 43 -83 43 -112 -2 -20 -31
-27 -35 -67 -35 -59 0 -179 -72 -214 -128 -13 -21 -37 -47 -52 -58 -16 -10
-60 -56 -98 -100 -38 -45 -88 -92 -110 -104 l-40 -23 86 -54 86 -54 93 7 c86
6 95 5 131 -17 21 -13 67 -29 103 -36 36 -7 101 -23 145 -37 l80 -24 45 33
c25 18 59 51 75 73 17 22 42 46 58 52 19 9 27 20 27 39 0 14 7 51 15 81 8 30
15 67 15 83 0 26 2 27 55 27 l55 0 0 38 c1 20 6 47 13 58 24 42 77 94 95 94
13 0 27 16 44 50 l25 51 -21 17 c-12 9 -25 24 -28 33 -8 21 -53 27 -223 27
-115 1 -149 -2 -189 -18z m164 -9 c0 -5 -7 -14 -15 -21 -16 -14 -18 -10 -9 14
6 17 24 22 24 7z"/>
<path d="M7980 4442 c0 -18 5 -32 10 -32 6 0 8 11 4 28 -10 39 -14 40 -14 4z"/>
<path d="M7750 2010 c0 -5 -7 -10 -15 -10 -11 0 -15 -13 -15 -52 -1 -29 -9
-75 -18 -103 -17 -50 -17 -50 7 -72 13 -13 34 -23 47 -23 36 0 54 -11 54 -31
0 -10 5 -19 10 -19 6 0 10 -7 10 -15 0 -11 13 -15 53 -15 67 -1 104 -30 110
-86 2 -22 4 54 5 167 2 173 0 209 -13 219 -17 14 -21 0 -4 -17 14 -14 3 -33
-17 -33 -8 0 -12 -4 -9 -10 4 -6 -5 -10 -20 -10 -29 0 -139 70 -158 101 -13
20 -27 25 -27 9z"/>
<path d="M7880 1635 c0 -8 5 -15 10 -15 6 0 10 -7 10 -15 0 -21 46 -19 54 1 9
24 -12 44 -45 44 -19 0 -29 -5 -29 -15z"/>
</g>
</svg>
