<?xml version="1.0" standalone="no"?>
<!DOCTYPE svg PUBLIC "-//W3C//DTD SVG 20010904//EN"
 "http://www.w3.org/TR/2001/REC-SVG-20010904/DTD/svg10.dtd">
<svg version="1.0" xmlns="http://www.w3.org/2000/svg"
 width="800.000000pt" height="800.000000pt" viewBox="0 0 800.000000 800.000000"
 preserveAspectRatio="xMidYMid meet">
<metadata>
Created by potrace 1.16, written by Peter Selinger 2001-2019
</metadata>
<g transform="translate(0.000000,800.000000) scale(0.100000,-0.100000)"
fill="#000000" stroke="none">
<path d="M0 4000 l0 -4000 4000 0 4000 0 0 4000 0 4000 -3210 0 c-2199 0
-3210 -3 -3210 -10 0 -7 -6 -7 -19 0 -13 7 -278 10 -790 10 l-771 0 0 -4000z
m2160 3740 c0 -5 -5 -10 -11 -10 -5 0 -7 5 -4 10 3 6 8 10 11 10 2 0 4 -4 4
-10z m710 -439 c0 -5 -6 -14 -14 -20 -15 -13 -15 -132 1 -218 7 -37 7 -53 -1
-56 -7 -2 -10 -38 -9 -102 l1 -99 39 -13 c21 -8 55 -15 75 -17 20 -2 50 -12
67 -22 24 -14 32 -15 45 -5 9 7 14 17 11 20 -2 4 2 8 10 8 10 0 15 -11 15 -31
0 -22 -3 -27 -9 -17 -7 11 -11 9 -20 -8 -7 -12 -21 -21 -36 -21 -13 0 -27 -4
-30 -10 -3 -5 1 -10 9 -10 9 0 16 -2 16 -4 0 -2 3 -12 6 -21 6 -13 1 -16 -22
-13 -21 2 -28 8 -26 21 3 17 0 16 -39 -3 l-42 -22 29 -19 c17 -11 23 -19 14
-19 -9 0 -25 7 -37 15 -20 14 -26 14 -59 0 -43 -18 -44 -18 -44 -6 0 4 20 16
45 25 42 17 45 20 45 54 0 44 -5 51 -47 81 -22 15 -33 31 -33 46 0 18 -4 23
-15 18 -17 -6 -125 61 -125 77 0 6 25 -6 55 -26 31 -21 61 -34 70 -31 18 7 21
68 5 98 -7 12 -7 19 -1 19 17 0 22 62 13 180 -7 98 -6 118 7 137 16 23 31 30
31 14z m-350 -236 c0 -10 10 -15 29 -15 16 0 34 -7 41 -15 10 -12 6 -13 -27
-8 -21 3 -44 10 -50 16 -15 11 -17 37 -3 37 6 0 10 -7 10 -15z m127 -117 c-3
-7 -5 -2 -5 12 0 14 2 19 5 13 2 -7 2 -19 0 -25z m3250 -5 c-8 -7 -37 9 -31
19 3 5 12 4 20 -3 8 -6 13 -14 11 -16z m-2607 13 c0 -2 -8 -10 -17 -17 -16
-13 -17 -12 -4 4 13 16 21 21 21 13z m2555 -35 c-3 -6 -11 -11 -17 -11 -6 0
-6 6 2 15 14 17 26 13 15 -4z m61 -28 c-11 -11 -17 4 -9 23 7 18 8 18 11 1 2
-10 1 -21 -2 -24z m-106 17 c0 -5 -9 -10 -21 -10 -11 0 -17 5 -14 10 3 6 13
10 21 10 8 0 14 -4 14 -10z m-50 -35 c-7 -8 -17 -15 -22 -15 -6 0 -5 7 2 15 7
8 17 15 22 15 6 0 5 -7 -2 -15z m200 5 c0 -5 -9 -10 -21 -10 -11 0 -17 5 -14
10 3 6 13 10 21 10 8 0 14 -4 14 -10z m-240 -39 c0 -5 -7 -14 -15 -21 -16 -14
-18 -10 -9 14 6 17 24 22 24 7z m-2630 -27 c0 -2 -7 -4 -15 -4 -8 0 -15 4 -15
10 0 5 7 7 15 4 8 -4 15 -8 15 -10z m-50 -19 c-7 -8 -17 -15 -22 -15 -6 0 -5
7 2 15 7 8 17 15 22 15 6 0 5 -7 -2 -15z m-50 -166 c0 -5 -7 -9 -15 -9 -15 0
-20 12 -9 23 8 8 24 -1 24 -14z m-173 -28 c0 -11 -5 -18 -9 -15 -10 6 -36 -48
-31 -64 8 -21 -16 -68 -46 -90 -21 -15 -30 -33 -35 -67 -5 -29 -18 -58 -35
-78 -16 -18 -26 -39 -23 -47 3 -8 1 -12 -3 -7 -5 4 -19 -2 -31 -14 -12 -11
-30 -19 -41 -16 -15 3 -13 6 10 15 15 6 27 15 27 19 0 5 16 26 35 48 21 24 38
55 41 78 4 23 22 57 45 85 22 26 39 57 39 70 0 27 36 102 50 102 5 0 8 -9 7
-19z m419 -336 c3 -8 21 -24 40 -36 19 -11 32 -25 28 -30 -3 -5 -21 3 -40 18
-38 29 -62 63 -44 63 6 0 13 -7 16 -15z m-711 -65 c-3 -5 -11 -10 -16 -10 -6
0 -7 5 -4 10 3 6 11 10 16 10 6 0 7 -4 4 -10z m615 -45 c0 -9 -6 -12 -15 -9
-8 4 -15 10 -15 15 0 5 7 9 15 9 8 0 15 -7 15 -15z m-560 -20 c0 -10 -30 -65
-36 -65 -8 0 0 44 11 57 10 13 25 17 25 8z m594 -21 c8 -21 8 -24 -3 -24 -5 0
-11 9 -14 20 -6 24 8 27 17 4z m32 -72 c-9 -8 -26 10 -26 26 1 15 2 15 15 -2
8 -11 13 -21 11 -24z m24 -53 c0 -10 -5 -21 -12 -25 -8 -5 -9 0 -6 14 4 12 2
25 -3 28 -5 3 -9 10 -9 16 0 7 6 6 15 -2 8 -7 15 -21 15 -31z m53 4 c-7 -2
-19 -2 -25 0 -7 3 -2 5 12 5 14 0 19 -2 13 -5z m53 -30 c-7 -7 -26 7 -26 19 0
6 6 6 15 -2 9 -7 13 -15 11 -17z m-76 -9 c0 -8 -4 -12 -10 -9 -5 3 -10 13 -10
21 0 8 5 12 10 9 6 -3 10 -13 10 -21z m-60 -3 c0 -5 -7 -14 -15 -21 -12 -10
-15 -10 -15 2 0 8 3 18 7 21 9 10 23 9 23 -2z m165 -21 c3 -5 -1 -10 -9 -10
-8 0 -18 5 -21 10 -3 6 1 10 9 10 8 0 18 -4 21 -10z m-67 -19 c3 -8 -1 -12 -9
-9 -7 2 -15 10 -17 17 -3 8 1 12 9 9 7 -2 15 -10 17 -17z m104 -15 c13 -9 14
-16 6 -24 -15 -15 -38 -4 -38 19 0 22 8 23 32 5z m308 5 c0 -5 -16 -21 -36
-36 -31 -24 -35 -32 -32 -61 2 -18 2 -31 -1 -28 -3 2 -10 -9 -17 -26 -7 -16
-18 -30 -25 -30 -7 0 -8 6 -3 18 4 9 8 27 8 39 1 11 4 19 9 16 4 -2 7 9 7 26
0 23 8 34 35 51 19 12 35 26 35 31 0 5 5 9 10 9 6 0 10 -4 10 -9z m-890 -31
c6 -11 31 -31 55 -46 52 -30 61 -53 13 -28 -35 17 -98 73 -98 86 0 15 19 8 30
-12z m530 10 c0 -5 -6 -10 -14 -10 -8 0 -18 5 -21 10 -3 6 3 10 14 10 12 0 21
-4 21 -10z m428 -53 c6 -5 12 -16 12 -25 -1 -15 -2 -15 -13 -2 -7 9 -27 22
-44 29 -18 7 -33 17 -33 21 0 8 55 -9 78 -23z m-303 -124 c9 -20 13 -44 9 -52
-4 -9 -6 -23 -5 -31 1 -9 -1 -11 -6 -5 -21 27 -98 9 -87 -20 4 -8 1 -15 -5
-15 -6 0 -11 7 -11 15 0 9 -6 12 -15 9 -11 -4 -12 -11 -5 -24 8 -15 5 -17 -16
-17 -19 0 -22 2 -13 13 8 10 8 14 0 14 -6 0 -11 5 -11 10 0 6 8 10 18 10 9 0
32 9 51 21 19 11 42 18 51 16 36 -9 45 8 28 52 -20 51 -4 55 17 4z m-998 -119
c26 -37 38 -74 24 -74 -6 0 -11 6 -11 13 0 6 -14 32 -30 57 -29 44 -38 79 -22
94 4 4 10 -8 13 -27 3 -18 15 -47 26 -63z m389 65 c3 -5 1 -9 -5 -9 -17 0 -41
12 -41 20 0 10 38 1 46 -11z m34 -9 c0 -5 -4 -10 -10 -10 -5 0 -10 5 -10 10 0
6 5 10 10 10 6 0 10 -4 10 -10z m44 4 c9 -3 14 -10 11 -15 -7 -10 -35 0 -35
12 0 11 3 11 24 3z m51 -44 c8 -13 -5 -13 -25 0 -13 8 -13 10 2 10 9 0 20 -4
23 -10z m-2445 -43 c0 -12 7 -35 15 -51 18 -34 14 -43 -7 -19 -19 22 -36 109
-19 99 6 -4 11 -17 11 -29z m2487 11 c0 -13 -1 -17 -4 -10 -3 6 -9 10 -14 6
-10 -6 -12 9 -2 19 12 13 19 7 20 -15z m247 -13 c-9 -14 -13 -32 -9 -45 4 -12
2 -26 -3 -33 -6 -8 -3 -18 11 -32 11 -11 17 -14 13 -7 -4 6 -2 12 3 12 6 0 11
-7 11 -15 0 -13 4 -14 20 -5 23 12 24 8 9 -23 -9 -19 -7 -18 10 3 15 18 21 20
21 10 0 -9 -6 -22 -12 -29 -10 -11 -10 -13 -1 -7 9 5 12 0 10 -16 -2 -25 -27
-49 -41 -41 -5 4 -6 1 -2 -6 7 -11 -20 -28 -30 -19 -8 9 8 38 21 38 7 0 16 7
19 16 8 21 8 24 -4 24 -5 0 -10 -7 -10 -15 0 -8 -8 -15 -17 -14 -10 0 -13 3
-6 5 7 3 10 11 7 19 -3 7 0 16 7 20 8 5 2 12 -17 20 -26 10 -31 9 -50 -14 -27
-34 -34 -55 -23 -72 8 -12 12 -11 25 6 12 17 16 18 24 5 10 -16 -7 -33 -23
-23 -5 3 -6 -4 -2 -16 9 -29 -6 -25 -33 9 -21 27 -22 32 -9 62 8 18 21 39 30
47 20 16 13 33 -10 24 -11 -4 -14 -2 -11 8 3 8 12 13 22 11 9 -2 16 4 16 13 0
8 5 15 11 15 5 0 7 5 4 11 -4 6 -14 8 -22 5 -8 -3 -11 -2 -8 3 3 5 1 12 -5 16
-5 3 -10 11 -10 17 0 7 4 7 13 0 9 -8 17 -4 32 18 11 16 23 26 27 24 4 -3 1
-16 -8 -29z m313 -9 c21 -22 30 -34 21 -27 -14 10 -18 10 -18 1 0 -14 -68 40
-69 56 -2 23 30 9 66 -30z m-387 8 c0 -8 -4 -12 -10 -9 -5 3 -10 10 -10 16 0
5 5 9 10 9 6 0 10 -7 10 -16z m189 -39 c0 -18 -1 -17 -13 5 -8 14 -12 29 -9
33 8 12 23 -14 22 -38z m120 -1 c25 -8 50 -22 56 -31 7 -10 19 -14 29 -10 20
8 22 -16 2 -32 -11 -9 -15 -8 -20 4 -3 9 -10 13 -16 10 -5 -3 -10 -1 -10 6 0
8 -3 9 -13 0 -8 -6 -17 -8 -20 -4 -4 3 -7 -1 -7 -10 0 -9 5 -19 10 -22 6 -3
10 -12 10 -18 -1 -7 -9 -2 -19 11 -11 12 -24 22 -30 22 -16 0 -14 15 4 30 21
17 19 33 -4 25 -13 -4 -20 0 -24 15 -6 24 -4 24 52 4z m-1260 -70 c-7 -8 -18
-13 -25 -10 -16 6 -38 -56 -29 -84 5 -15 3 -18 -9 -14 -8 3 -24 0 -36 -6 -12
-6 -24 -9 -27 -6 -3 3 8 12 26 19 17 7 29 16 26 19 -3 2 3 26 12 51 14 37 21
46 35 41 12 -3 21 1 25 12 4 12 8 14 11 6 2 -7 -2 -19 -9 -28z m1383 -39 c11
-15 10 -22 -5 -28 -21 -8 -39 7 -31 26 6 17 24 18 36 2z m281 8 c-13 -2 -33
-2 -45 0 -13 2 -3 4 22 4 25 0 35 -2 23 -4z m-513 -34 c0 -5 -9 -4 -19 3 -11
7 -17 16 -14 20 5 10 33 -10 33 -23z m274 -35 c4 -10 1 -14 -6 -12 -15 5 -23
28 -10 28 5 0 13 -7 16 -16z m-264 -16 c0 -19 -2 -20 -10 -8 -13 19 -13 30 0
30 6 0 10 -10 10 -22z m-1625 -25 l15 -36 34 36 c19 20 41 37 51 37 11 0 1
-15 -31 -44 -27 -24 -54 -41 -61 -39 -11 4 -33 54 -33 74 0 19 10 7 25 -28z
m1585 -3 c0 -11 -4 -20 -10 -20 -5 0 -10 9 -10 20 0 11 5 20 10 20 6 0 10 -9
10 -20z m-12 -48 c-5 -2 -8 -12 -8 -23 0 -30 -26 -22 -40 11 -12 29 -30 41
-30 20 0 -5 -4 -10 -10 -10 -5 0 -7 7 -4 15 8 19 54 20 54 1 0 -8 4 -18 10
-21 7 -4 7 3 0 20 -15 39 -13 41 13 14 12 -13 19 -25 15 -27z m87 8 c8 0 15
-4 15 -8 0 -5 -10 -8 -22 -6 -13 1 -26 3 -30 3 -10 1 -10 35 -1 45 4 4 11 -2
15 -14 4 -11 14 -20 23 -20z m44 -29 c-8 -11 -19 -16 -31 -13 -18 4 -17 6 4
17 33 19 40 18 27 -4z m-313 -6 c10 -8 14 -15 8 -15 -5 0 -19 7 -30 15 -10 8
-14 15 -8 15 5 0 19 -7 30 -15z m-728 -9 c31 -17 101 -86 86 -86 -6 0 -21 12
-35 26 -35 37 -77 57 -108 50 -25 -6 -25 -6 -7 9 24 19 30 19 64 1z m802 -8
c0 12 5 22 10 22 13 0 13 -37 0 -45 -5 -3 -7 -12 -3 -20 3 -8 0 -15 -6 -15 -6
0 -11 5 -11 11 0 5 -4 8 -8 5 -5 -3 -9 0 -10 7 0 7 -4 23 -7 37 l-7 25 21 -25
21 -25 0 23z m467 -10 c-3 -7 -5 -2 -5 12 0 14 2 19 5 13 2 -7 2 -19 0 -25z
m-177 1 c11 -20 11 -20 -14 -4 -30 20 -32 25 -11 25 8 0 19 -9 25 -21z m-36
-5 c23 -9 20 -23 -4 -17 -11 3 -20 9 -20 14 0 11 3 11 24 3z m239 -34 c3 -11
1 -20 -4 -20 -5 0 -9 9 -9 20 0 11 2 20 4 20 2 0 6 -9 9 -20z m-190 -10 c3
-11 1 -20 -4 -20 -5 0 -9 2 -9 4 0 2 -3 11 -6 20 -3 9 -2 16 4 16 5 0 12 -9
15 -20z m40 -1 c3 -13 1 -19 -6 -16 -15 5 -22 37 -9 37 5 0 12 -9 15 -21z
m637 11 c0 -5 -4 -10 -10 -10 -5 0 -10 5 -10 10 0 6 5 10 10 10 6 0 10 -4 10
-10z m-1145 -78 c-7 -8 -74 52 -74 68 -1 8 16 -3 39 -25 22 -21 38 -41 35 -43z
m689 29 c-5 -22 -10 -29 -17 -22 -7 7 -7 19 2 37 6 15 14 24 16 22 3 -3 2 -19
-1 -37z m-3125 -16 c37 -51 29 -62 -10 -12 -34 44 -42 57 -31 57 5 0 23 -20
41 -45z m2938 10 c9 -24 -1 -27 -15 -5 -8 13 -8 20 -2 20 6 0 13 -7 17 -15z
m37 -15 c3 -11 8 -29 11 -39 5 -16 2 -18 -15 -14 -11 3 -20 9 -20 13 0 4 -12
5 -26 2 -19 -3 -25 -1 -20 7 4 6 13 11 19 10 30 -4 39 2 34 21 -3 11 -1 20 3
20 5 0 11 -9 14 -20z m-662 -49 c-4 -47 -1 -56 24 -82 26 -27 52 -40 39 -20
-3 5 0 13 6 17 8 4 9 3 5 -4 -4 -7 -1 -12 6 -12 10 0 10 -2 0 -8 -9 -6 -6 -14
13 -30 14 -12 30 -22 35 -22 5 0 16 -16 25 -36 8 -20 38 -57 66 -83 52 -48 52
-49 54 -112 1 -35 -3 -70 -8 -76 -5 -7 -6 -13 -2 -13 4 0 2 -7 -5 -15 -7 -8
-20 -15 -28 -15 -13 0 -13 2 3 13 10 8 15 19 11 25 -4 7 -2 12 3 12 15 0 14
99 -2 130 -7 14 -22 29 -33 34 -12 5 -36 32 -55 58 -33 49 -102 118 -117 118
-5 0 -19 15 -32 33 -19 25 -25 45 -25 90 0 34 4 56 10 54 6 -2 8 -27 7 -56z
m518 49 c8 -5 12 -12 9 -15 -8 -8 -39 5 -39 16 0 11 11 11 30 -1z m42 -42 c-6
-6 -15 -8 -19 -4 -4 4 -1 11 7 16 19 12 27 3 12 -12z m244 -24 c-9 -8 -16 -13
-16 -11 0 3 -3 13 -6 21 -5 12 -2 15 10 10 11 -4 16 0 17 12 1 17 2 17 6 2 2
-10 -3 -25 -11 -34z m-1510 -41 c21 -32 44 -71 50 -88 10 -29 25 -37 87 -50
15 -3 25 -10 22 -16 -5 -7 -11 -6 -20 1 -10 8 -14 7 -18 -2 -4 -9 -8 -10 -14
-2 -4 6 -20 14 -34 17 -18 5 -29 16 -34 34 -3 15 -26 56 -51 91 -46 66 -49 72
-35 72 4 0 26 -26 47 -57z m808 38 c3 -5 -3 -11 -14 -14 -20 -5 -26 3 -13 16
9 10 21 9 27 -2z m-59 -23 c24 -11 34 -28 16 -28 -11 0 -59 39 -49 40 4 0 19
-5 33 -12z m739 3 c11 -4 15 -10 9 -14 -5 -3 -19 0 -29 8 -20 15 -11 18 20 6z
m589 -13 c6 -21 2 -36 -7 -27 -10 11 -16 49 -8 49 5 0 12 -10 15 -22z m-1223
2 c8 -5 11 -12 7 -16 -4 -4 -15 0 -24 9 -18 18 -8 23 17 7z m570 -4 c-6 -9
-19 -12 -28 -8 -17 6 -14 7 37 21 2 1 -2 -5 -9 -13z m48 -24 c6 -18 -15 -14
-22 4 -4 10 -1 14 6 12 6 -2 14 -10 16 -16z m1052 -26 c0 -19 5 -47 10 -62 6
-15 8 -35 4 -43 -5 -11 -10 -4 -16 24 -18 88 -21 115 -9 115 6 0 11 -15 11
-34z m-409 -2 c12 -14 11 -16 -5 -13 -11 2 -21 10 -24 17 -5 17 13 15 29 -4z
m-644 -19 c0 -8 -4 -15 -8 -15 -11 0 -20 16 -12 24 11 11 20 7 20 -9z m577
-27 c9 -36 7 -118 -4 -118 -5 0 -7 13 -4 29 4 20 2 30 -10 34 -10 4 -16 18
-16 35 0 45 23 59 34 20z m67 -15 c-8 -15 -10 -15 -11 -2 0 17 10 32 18 25 2
-3 -1 -13 -7 -23z m1102 -56 c-3 -5 -10 -1 -16 9 -6 11 -19 25 -29 32 -10 7
-15 18 -11 24 4 7 17 -1 34 -22 16 -18 25 -38 22 -43z m-1717 36 c-8 -8 -36 5
-36 17 0 7 6 7 21 0 11 -7 18 -14 15 -17z m590 -40 c-11 -11 -17 4 -9 23 7 18
8 18 11 1 2 -10 1 -21 -2 -24z m-556 17 c0 -5 -7 -10 -16 -10 -8 0 -12 5 -9
10 3 6 10 10 16 10 5 0 9 -4 9 -10z m-35 -30 c-3 -5 -13 -10 -21 -10 -8 0 -14
5 -14 10 0 6 9 10 21 10 11 0 17 -4 14 -10z m595 -35 c0 -14 -4 -25 -10 -25
-5 0 -10 11 -10 25 0 14 5 25 10 25 6 0 10 -11 10 -25z m-2020 -44 c0 -5 -7
-14 -15 -21 -12 -10 -15 -10 -15 2 0 8 3 18 7 21 9 10 23 9 23 -2z m1299 -5
c23 -13 23 -13 -15 -19 -22 -3 -47 -8 -57 -12 -13 -6 -16 -3 -11 9 4 10 12 15
19 12 8 -3 16 2 19 10 7 17 14 17 45 0z m51 -56 c12 -23 12 -24 -3 -11 -10 7
-17 20 -17 29 0 18 3 16 20 -18z m-1389 -22 c-14 -11 -39 -18 -63 -18 l-39 0
6 -57 c4 -43 3 -54 -4 -41 -6 9 -12 38 -13 65 l-3 48 54 5 c30 3 56 11 59 18
2 7 9 9 14 5 7 -4 3 -13 -11 -25z m2023 -9 c3 -17 5 -64 5 -103 l-2 -71 -8 75
c-4 41 -11 87 -13 103 -3 15 -2 27 3 27 5 0 11 -14 15 -31z m-1020 -1 c3 -13
6 -30 6 -37 0 -23 -16 0 -24 32 -8 32 9 37 18 5z m231 -13 c-15 -12 -18 -25
-16 -60 2 -37 -1 -45 -14 -45 -14 0 -15 3 -6 14 7 8 9 31 5 60 -7 46 -6 46 22
46 28 -1 28 -1 9 -15z m2009 -10 c-4 -10 -13 -13 -24 -10 -10 3 -21 1 -25 -5
-9 -14 -28 -13 -23 3 4 10 28 19 70 26 4 0 5 -6 2 -14z m-4657 -15 c14 -11 20
-20 12 -20 -15 1 -49 24 -49 34 0 11 11 7 37 -14z m1580 -23 c-20 -18 -37 -37
-37 -43 0 -6 13 -43 29 -83 17 -39 26 -71 22 -71 -4 0 -21 32 -37 72 -28 68
-33 73 -75 88 -49 16 -113 59 -90 60 8 0 22 -6 30 -13 9 -8 35 -21 57 -30 40
-15 42 -15 53 7 11 20 49 43 76 45 6 0 -7 -14 -28 -32z m2988 13 c3 -5 -1 -10
-10 -10 -9 0 -13 5 -10 10 3 6 8 10 10 10 2 0 7 -4 10 -10z m-45 -20 c0 -5 -8
-10 -17 -10 -15 0 -16 2 -3 10 19 12 20 12 20 0z m-2107 -17 c-5 -12 -2 -15
10 -10 13 5 19 -2 25 -26 10 -36 -4 -50 -23 -24 -7 9 -15 14 -18 10 -4 -3 -7
10 -7 30 0 21 4 37 10 37 5 0 6 -8 3 -17z m2052 -12 c-3 -6 -11 -11 -17 -11
-6 0 -6 6 2 15 14 17 26 13 15 -4z m-2235 -21 c0 -5 -5 -10 -12 -10 -6 0 -1
-11 12 -25 13 -14 19 -25 14 -25 -11 0 -64 52 -64 63 0 4 11 7 25 7 14 0 25
-4 25 -10z m337 -24 c-2 -6 -13 -10 -23 -8 -15 3 -13 -2 9 -21 18 -16 24 -28
17 -32 -6 -4 -8 -15 -5 -25 3 -10 2 -21 -4 -24 -5 -3 -8 9 -7 29 1 27 -3 35
-16 35 -13 0 -17 8 -16 33 1 30 4 33 25 29 13 -2 22 -10 20 -16z m-2347 -17
c0 -10 16 -37 36 -59 20 -22 34 -43 31 -46 -8 -9 -76 69 -77 88 0 9 -3 24 -7
34 -4 12 -3 15 5 10 7 -4 12 -16 12 -27z m4221 -2 c-16 -16 -26 0 -10 19 9 11
15 12 17 4 2 -6 -1 -17 -7 -23z m-4476 -49 c-1 -42 -9 -76 -23 -103 -20 -37
-22 -38 -22 -13 0 14 5 28 12 30 11 4 16 40 17 126 1 12 5 22 10 22 5 0 7 -28
6 -62z m3395 52 c0 -5 -4 -10 -10 -10 -5 0 -10 5 -10 10 0 6 5 10 10 10 6 0
10 -4 10 -10z m1597 -22 c-21 -7 -32 -7 -40 1 -8 8 0 11 29 10 39 -1 39 -1 11
-11z m-543 -13 c-6 -16 -24 -21 -24 -7 0 11 11 22 21 22 5 0 6 -7 3 -15z
m-1044 -27 c0 -5 -4 -8 -10 -8 -5 0 -10 10 -10 23 0 18 2 19 10 7 5 -8 10 -18
10 -22z m-1750 -8 c0 -5 -5 -10 -11 -10 -5 0 -7 5 -4 10 3 6 8 10 11 10 2 0 4
-4 4 -10z m1690 -15 c0 -14 -4 -25 -10 -25 -11 0 -14 33 -3 43 11 11 13 8 13
-18z m1060 5 c-8 -5 -18 -6 -24 -3 -5 4 -1 10 10 13 24 9 34 2 14 -10z m-2216
-78 c10 -13 28 -28 40 -32 21 -9 21 -9 0 -9 -11 -1 -31 10 -44 24 -13 14 -48
37 -76 52 -29 15 -51 30 -48 35 7 11 106 -42 128 -70z m340 59 c3 -4 3 -11 0
-14 -8 -8 -34 3 -34 14 0 11 27 12 34 0z m872 -19 c-8 -9 -18 -13 -22 -10 -8
9 19 37 29 31 5 -3 2 -12 -7 -21z m974 9 c0 -5 -7 -14 -15 -21 -16 -14 -18
-10 -9 14 6 17 24 22 24 7z m-3944 -70 c5 -25 4 -32 -4 -27 -7 4 -12 16 -12
26 0 10 -4 22 -10 25 -5 3 -10 14 -10 23 0 29 29 -8 36 -47z m1925 -15 l-21
-22 48 -36 c26 -19 57 -39 69 -42 20 -7 21 -5 10 23 -6 16 -19 32 -30 35 -10
2 -21 14 -24 25 -3 12 -9 21 -14 21 -5 0 -9 7 -9 15 0 21 10 19 38 -7 l25 -23
-6 26 c-4 14 -4 29 -1 32 9 9 138 -42 152 -60 20 -28 14 -38 -10 -16 -39 36
-66 38 -94 8 -24 -26 -24 -45 -1 -45 7 0 13 -8 14 -17 7 -67 19 -97 43 -104
24 -7 24 -7 3 -8 -27 -1 -29 -17 -12 -106 8 -43 8 -60 0 -63 -6 -2 -9 -8 -6
-13 3 -5 1 -18 -5 -29 -8 -15 -8 -20 1 -20 7 0 8 -7 4 -17 -4 -10 -7 -27 -7
-38 1 -12 -8 -24 -21 -30 -12 -6 -24 -21 -27 -35 -3 -14 -15 -44 -28 -67 -12
-23 -22 -50 -22 -60 0 -32 -64 -120 -105 -145 -47 -29 -95 -43 -95 -28 0 5 7
10 17 10 46 0 146 87 155 135 5 30 -16 27 -59 -10 -53 -45 -74 -46 -30 -1 31
31 71 53 89 48 20 -5 115 258 119 328 3 54 -22 190 -38 206 -8 8 -20 14 -28
14 -7 0 -36 16 -64 35 -28 19 -55 35 -60 35 -19 0 -21 20 -4 40 10 11 18 24
18 28 0 4 4 13 9 21 7 11 10 11 18 -4 7 -12 5 -22 -11 -39z m1970 21 c-8 -8
-11 -7 -11 4 0 20 13 34 18 19 3 -7 -1 -17 -7 -23z m-2681 -7 c0 -5 -4 -10
-10 -10 -5 0 -10 5 -10 10 0 6 5 10 10 10 6 0 10 -4 10 -10z m2670 -27 c0 -5
-5 -15 -10 -23 -8 -12 -10 -11 -10 8 0 12 5 22 10 22 6 0 10 -3 10 -7z m-2266
-39 c10 -25 -1 -29 -14 -5 -6 12 -7 21 -1 21 5 0 12 -7 15 -16z m260 -27 c-10
-28 -24 -19 -24 15 0 29 2 31 15 17 9 -9 13 -23 9 -32z m-314 19 c0 -8 -10
-16 -23 -20 -45 -11 -94 -71 -106 -128 -14 -62 -32 -108 -45 -108 -4 0 -5 8
-1 18 19 50 44 156 38 166 -3 6 -2 8 2 3 5 -4 22 5 39 21 34 31 77 61 89 61 4
1 7 -5 7 -13z m-1540 -66 c0 -43 27 -89 74 -125 19 -14 40 -42 46 -61 6 -19
15 -34 20 -34 5 0 11 -9 15 -19 3 -10 14 -21 24 -24 10 -2 21 -17 24 -36 4
-17 12 -31 18 -31 15 0 59 -42 59 -57 0 -6 -5 -15 -12 -19 -6 -4 -8 -3 -5 3 4
6 -11 27 -33 47 -22 20 -40 40 -40 44 0 4 -18 28 -40 52 -22 24 -44 58 -50 75
-6 17 -23 39 -39 48 -16 10 -38 32 -49 50 -20 32 -44 132 -34 142 10 10 22
-20 22 -55z m650 45 c-7 -8 -21 -15 -31 -15 -12 0 -16 -5 -13 -14 3 -8 1 -17
-5 -21 -7 -4 -11 4 -11 19 0 21 5 26 25 26 14 0 25 5 25 10 0 6 5 10 11 10 8
0 8 -5 -1 -15z m3197 -17 c-3 -7 -5 -2 -5 12 0 14 2 19 5 13 2 -7 2 -19 0 -25z
m-1928 5 c9 -7 30 -24 46 -37 17 -14 26 -28 22 -32 -4 -5 -12 -2 -17 6 -8 12
-10 10 -10 -9 0 -31 -9 -22 -12 12 -2 19 -12 31 -40 44 -21 10 -38 21 -38 24
0 11 33 6 49 -8z m277 -30 c-11 -11 -19 6 -11 24 8 17 8 17 12 0 3 -10 2 -21
-1 -24z m-566 12 c10 -12 10 -15 -3 -15 -8 0 -17 7 -21 15 -3 8 -2 15 3 15 5
0 14 -7 21 -15z m50 -5 c8 -5 11 -12 7 -16 -4 -4 -15 0 -24 9 -18 18 -8 23 17
7z m90 -10 c0 -5 -4 -10 -10 -10 -5 0 -10 5 -10 10 0 6 5 10 10 10 6 0 10 -4
10 -10z m66 -17 c-10 -10 -19 5 -10 18 6 11 8 11 12 0 2 -7 1 -15 -2 -18z
m-101 -4 c-3 -4 -12 -6 -20 -3 -8 4 -13 10 -10 15 3 4 12 6 20 3 8 -4 13 -10
10 -15z m1166 -22 c-7 -19 -9 -47 -5 -61 4 -16 2 -26 -5 -26 -15 0 -14 103 1
118 18 18 21 7 9 -31z m944 24 c-3 -6 -11 -11 -17 -11 -6 0 -6 6 2 15 14 17
26 13 15 -4z m-3255 -19 c0 -13 -12 -22 -22 -16 -10 6 -1 24 13 24 5 0 9 -4 9
-8z m-46 -17 c-4 -8 -8 -15 -10 -15 -2 0 -4 7 -4 15 0 8 4 15 10 15 5 0 7 -7
4 -15z m618 -10 c24 -20 33 -23 50 -14 23 12 33 6 25 -16 -13 -33 -127 2 -127
40 0 22 18 18 52 -10z m111 -22 c4 -18 3 -33 -2 -33 -10 0 -21 34 -21 65 0 28
16 6 23 -32z m961 31 c4 -10 1 -14 -6 -12 -15 5 -23 28 -10 28 5 0 13 -7 16
-16z m1571 6 c-3 -5 -12 -7 -20 -3 -21 7 -19 13 6 13 11 0 18 -4 14 -10z
m-2790 -52 c-4 -24 -13 -72 -22 -106 -8 -35 -12 -78 -9 -95 5 -25 4 -29 -6
-19 -13 13 -12 110 2 127 4 6 11 38 15 73 4 34 11 62 17 62 6 0 7 -17 3 -42z
m-121 10 c3 -13 6 -30 6 -38 -1 -13 -2 -13 -9 0 -16 27 -22 60 -13 60 5 0 12
-10 16 -22z m1047 -11 c-8 -8 -11 -7 -11 4 0 20 13 34 18 19 3 -7 -1 -17 -7
-23z m275 8 c6 -23 0 -45 -10 -34 -10 12 -15 59 -6 59 5 0 12 -11 16 -25z
m102 7 c2 -7 -6 -12 -17 -12 -12 0 -21 6 -21 14 0 17 32 15 38 -2z m1462 -2
c0 -11 -4 -20 -10 -20 -5 0 -10 9 -10 20 0 11 5 20 10 20 6 0 10 -9 10 -20z
m-3252 -7 c-2 -9 -8 -18 -15 -20 -7 -3 -9 3 -6 16 6 25 26 28 21 4z m153 -21
c-6 -10 -7 -23 -3 -27 4 -4 -9 -4 -29 0 -27 5 -44 1 -71 -15 -20 -11 -39 -27
-42 -35 -3 -8 -15 -15 -27 -15 -22 0 -22 0 2 24 29 28 81 56 106 56 23 1 53
23 53 41 0 9 3 10 11 2 8 -8 8 -17 0 -31z m179 23 c0 -8 -2 -15 -4 -15 -2 0
-6 7 -10 15 -3 8 -1 15 4 15 6 0 10 -7 10 -15z m1310 5 c0 -5 -9 -10 -20 -10
-11 0 -20 5 -20 10 0 6 9 10 20 10 11 0 20 -4 20 -10z m200 -62 c-7 -19 -9
-15 -9 22 0 37 2 41 9 23 6 -14 6 -32 0 -45z m1088 44 c2 -7 -2 -10 -12 -6 -9
3 -16 11 -16 16 0 13 23 5 28 -10z m212 8 c12 -8 11 -10 -7 -10 -13 0 -23 5
-23 10 0 13 11 13 30 0z m-2195 -27 c-15 -36 -11 -58 13 -61 17 -3 22 2 22 17
0 12 -4 21 -10 21 -5 0 -10 8 -10 17 0 31 27 -8 34 -49 6 -35 -1 -48 -18 -31
-3 4 -14 8 -24 9 -45 7 -57 12 -60 27 -2 12 1 15 12 11 12 -5 18 2 22 25 4 17
11 31 16 31 6 0 7 -8 3 -17z m331 -20 c-11 -11 -17 4 -9 23 7 18 8 18 11 1 2
-10 1 -21 -2 -24z m625 -6 c-13 -13 -15 1 -4 30 7 17 8 17 11 -1 2 -10 -1 -23
-7 -29z m1189 33 c0 -5 -8 -10 -17 -10 -15 0 -16 2 -3 10 19 12 20 12 20 0z
m-2750 -10 c0 -5 -2 -10 -4 -10 -3 0 -8 5 -11 10 -3 6 -1 10 4 10 6 0 11 -4
11 -10z m2836 -28 c-9 -8 -26 10 -26 26 1 15 2 15 15 -2 8 -11 13 -21 11 -24z
m-1766 8 c0 -11 -4 -20 -10 -20 -5 0 -10 9 -10 20 0 11 5 20 10 20 6 0 10 -9
10 -20z m183 -16 c-3 -8 -9 -14 -13 -14 -14 0 -22 20 -16 37 5 12 9 13 21 3 7
-6 11 -18 8 -26z m661 14 c16 -26 0 -32 -23 -9 -12 12 -21 24 -21 27 0 12 33
-2 44 -18z m716 7 c14 -16 10 -18 -14 -9 -9 3 -16 10 -16 15 0 14 16 11 30 -6z
m276 -1 c-3 -9 -6 -18 -6 -20 0 -2 -4 -4 -9 -4 -5 0 -7 9 -4 20 3 11 10 20 15
20 6 0 7 -7 4 -16z m-3316 -36 c0 -10 -4 -18 -10 -18 -5 0 -10 15 -10 33 0 24
3 28 10 17 5 -8 10 -23 10 -32z m1850 21 c0 -5 -7 -9 -15 -9 -8 0 -15 7 -15
15 0 9 6 12 15 9 8 -4 15 -10 15 -15z m562 -108 c-11 -40 -22 -69 -25 -64 -3
5 0 34 8 64 8 30 16 70 18 89 7 47 10 50 14 15 2 -16 -5 -63 -15 -104z m698
108 c-7 -11 -14 -18 -17 -15 -8 8 5 36 17 36 7 0 7 -6 0 -21z m-1157 -12 c4 3
13 0 21 -6 8 -7 19 -10 24 -7 6 3 17 -5 26 -19 18 -27 7 -35 -14 -10 -7 8 -16
13 -20 10 -5 -3 -11 -1 -15 5 -12 19 -24 10 -31 -24 -3 -19 -11 -37 -18 -39
-16 -6 -13 42 3 53 10 6 10 12 2 28 -15 28 -13 41 3 20 7 -10 16 -15 19 -11z
m327 -22 c-7 -9 -15 -13 -18 -10 -3 2 1 11 8 20 7 9 15 13 18 10 3 -2 -1 -11
-8 -20z m782 3 c-6 -6 -15 -8 -19 -4 -4 4 -1 11 7 16 19 12 27 3 12 -12z m218
7 c0 -8 -4 -15 -10 -15 -5 0 -10 7 -10 15 0 8 5 15 10 15 6 0 10 -7 10 -15z
m-1826 -19 c-3 -9 -10 -13 -16 -10 -5 3 -4 12 3 20 15 18 22 13 13 -10z m336
10 c0 -6 5 -4 11 4 8 11 12 12 16 3 2 -7 16 -13 29 -13 13 0 24 -5 24 -11 0
-6 -9 -9 -19 -6 -15 3 -21 -1 -23 -16 -5 -31 -22 -30 -36 2 -25 56 -53 18 -73
-95 -11 -61 -13 -66 -25 -49 -8 10 -10 21 -5 24 10 7 20 71 10 71 -24 0 -44
-98 -26 -127 12 -19 -1 -33 -29 -33 -27 0 -31 12 -10 33 8 8 16 38 18 68 3 49
6 55 34 69 34 16 70 76 50 84 -6 2 4 4 22 3 17 0 32 -5 32 -11z m120 -8 c0
-13 -23 -5 -28 10 -2 7 2 10 12 6 9 -3 16 -11 16 -16z m430 2 c0 -5 -2 -10 -4
-10 -3 0 -8 5 -11 10 -3 6 -1 10 4 10 6 0 11 -4 11 -10z m-1064 -48 c-12 -11
-18 7 -10 30 l8 23 4 -23 c2 -13 1 -26 -2 -30z m89 37 c12 -19 -3 -22 -27 -5
l-22 16 21 0 c12 0 25 -5 28 -11z m-1365 -17 c0 -11 -91 -64 -99 -57 -3 4 1
10 9 15 8 5 29 18 45 29 33 21 45 25 45 13z m885 -23 c-3 -5 -1 -35 6 -66 6
-32 13 -74 15 -93 2 -19 11 -58 20 -87 14 -44 25 -58 62 -83 54 -36 59 -36 89
-8 16 14 23 33 23 57 0 21 8 43 20 56 17 18 27 44 29 80 1 11 61 14 61 3 0 -4
-9 -9 -19 -13 -12 -4 -18 -12 -14 -21 3 -7 1 -14 -5 -14 -15 0 -48 -59 -56
-98 -3 -19 -17 -47 -31 -64 l-25 -29 24 -32 c14 -18 27 -44 31 -59 6 -23 10
-26 40 -21 19 3 35 1 39 -6 5 -7 -4 -12 -26 -13 -52 -2 -54 -2 -69 -18 -16
-18 -20 -82 -5 -92 7 -5 6 -16 -5 -35 -19 -35 -19 -67 2 -71 9 -2 23 11 34 32
10 19 29 39 42 45 29 13 31 -4 2 -19 -17 -9 -19 -17 -13 -38 4 -15 6 -38 5
-51 -1 -19 2 -21 13 -12 8 7 12 22 10 34 -4 21 -4 21 5 2 5 -11 10 -35 10 -53
1 -18 8 -40 16 -48 8 -9 15 -26 15 -40 0 -13 4 -24 9 -24 5 0 12 -10 14 -22 4
-20 4 -19 6 5 0 15 6 27 11 27 6 0 10 6 9 13 -3 27 2 47 12 47 6 0 8 -9 3 -22
-6 -21 -4 -21 24 5 16 16 32 25 35 19 4 -5 20 -7 37 -4 18 2 30 0 30 -7 0 -6
-10 -11 -21 -11 -18 0 -16 -4 15 -25 l37 -25 29 22 c20 15 27 25 20 32 -5 5
-10 19 -10 31 1 20 1 20 15 1 19 -25 27 -17 28 28 1 20 5 36 9 36 17 0 18 -27
3 -64 -9 -22 -14 -49 -11 -62 7 -25 -8 -34 -17 -11 -3 7 -6 5 -6 -6 -1 -10 -8
-29 -17 -42 -9 -14 -12 -25 -6 -25 5 0 12 -11 14 -25 6 -31 -6 -32 -26 -4 -14
20 -17 21 -47 9 -18 -8 -55 -15 -83 -16 -28 -1 -66 -5 -83 -9 -20 -4 -33 -3
-33 3 0 10 50 22 108 25 19 1 32 7 32 16 0 11 3 11 15 1 19 -16 59 -6 85 22
26 28 26 42 0 26 -16 -10 -23 -9 -42 7 -13 11 -38 29 -56 39 l-34 18 -29 -31
c-31 -34 -37 -56 -16 -64 6 -3 0 -6 -15 -6 -15 -1 -32 -9 -37 -18 -8 -15 -10
-11 -11 20 0 22 -4 36 -10 32 -5 -3 -9 -21 -8 -40 2 -46 -9 -55 -22 -19 -17
43 -48 73 -71 67 -12 -3 -29 -25 -41 -52 -12 -25 -23 -49 -25 -54 -3 -4 15 -4
39 -1 53 8 45 -4 -12 -17 -45 -10 -80 -4 -80 13 0 5 6 8 14 5 14 -5 36 31 36
58 0 8 4 15 9 15 6 0 13 20 17 45 5 35 1 58 -19 107 -23 59 -26 95 -6 82 5 -3
9 5 9 18 0 13 4 29 8 36 5 7 6 34 2 61 -5 38 -2 53 12 71 25 31 23 53 -9 99
-25 36 -41 48 -113 86 -33 17 -67 114 -76 215 -3 36 -9 71 -13 78 -10 18 -1
63 10 56 5 -3 7 -10 4 -15z m571 -16 c-11 -11 -17 4 -9 23 7 18 8 18 11 1 2
-10 1 -21 -2 -24z m-630 -15 c-4 -24 -7 -58 -7 -75 0 -18 -4 -33 -9 -33 -14 0
-17 58 -4 82 7 13 10 33 7 46 -3 13 -1 22 7 22 9 0 10 -12 6 -42z m-738 -5
c12 -3 22 -10 22 -15 0 -5 -10 -6 -22 -2 -46 14 -68 24 -68 30 0 3 10 3 23 -1
12 -3 32 -9 45 -12z m1213 -2 c-10 -18 -58 -37 -69 -27 -10 11 32 46 55 46 20
0 22 -3 14 -19z m506 -13 c-3 -7 -5 -2 -5 12 0 14 2 19 5 13 2 -7 2 -19 0 -25z
m-351 -14 c-4 -9 -9 -15 -11 -12 -3 3 -3 13 1 22 4 9 9 15 11 12 3 -3 3 -13
-1 -22z m-2384 -58 c3 -29 0 -37 -19 -45 -15 -7 -23 -7 -23 0 0 5 6 12 13 15
15 5 11 64 -4 64 -5 0 -9 5 -9 10 0 7 6 7 19 1 11 -6 20 -24 23 -45z m2075 48
c-3 -3 -12 -4 -19 -1 -8 3 -5 6 6 6 11 1 17 -2 13 -5z m663 -4 c0 -5 -4 -10
-10 -10 -5 0 -10 5 -10 10 0 6 5 10 10 10 6 0 10 -4 10 -10z m-1955 -29 c-3
-6 -11 -11 -17 -11 -6 0 -6 6 2 15 14 17 26 13 15 -4z m1571 -18 c-11 -11 -19
6 -11 24 8 17 8 17 12 0 3 -10 2 -21 -1 -24z m-16 -20 c0 -5 -5 -15 -10 -23
-8 -12 -10 -11 -10 8 0 12 5 22 10 22 6 0 10 -3 10 -7z m730 -13 c0 -5 -5 -10
-11 -10 -6 0 -29 -16 -50 -35 -22 -19 -45 -35 -52 -35 -6 1 10 21 38 45 48 43
75 56 75 35z m-385 -76 c-24 -37 -27 -24 -7 27 14 36 18 40 20 21 2 -13 -4
-35 -13 -48z m-168 34 c-3 -8 -6 -5 -6 6 -1 11 2 17 5 13 3 -3 4 -12 1 -19z
m-189 -10 c-2 -6 -10 -14 -16 -16 -7 -2 -10 2 -6 12 7 18 28 22 22 4z m197
-32 c-19 -57 -17 -82 9 -113 31 -37 32 -59 6 -93 -22 -28 -25 -54 -10 -96 8
-23 26 -36 85 -63 41 -18 75 -38 75 -43 0 -5 -10 -6 -22 -2 -22 7 -22 6 -5
-17 15 -22 47 -86 47 -95 0 -2 -4 -4 -9 -4 -5 0 -14 13 -21 29 -6 16 -20 38
-30 48 -10 11 -25 33 -33 50 -10 19 -28 33 -49 39 -36 11 -61 51 -71 117 -5
31 -3 38 8 33 16 -6 35 22 35 50 0 10 -9 27 -20 39 -11 11 -21 38 -22 58 -2
20 -6 37 -10 37 -9 0 -11 44 -2 52 3 3 14 3 25 1 16 -4 19 -11 14 -27z m-385
-8 c0 -18 -2 -20 -9 -8 -6 8 -7 18 -5 22 9 14 14 9 14 -14z m695 -5 c-8 -32
-21 -43 -50 -42 -18 0 -18 1 3 11 12 6 25 22 28 35 4 12 11 23 16 23 6 0 7
-11 3 -27z m-2175 3 c0 -8 -11 -38 -25 -68 -14 -29 -25 -64 -25 -78 0 -31 -43
-55 -71 -40 -30 16 -110 11 -153 -10 -25 -11 -82 -23 -142 -29 -56 -6 -108
-13 -117 -17 -12 -4 -17 -1 -17 10 0 10 9 16 23 16 12 1 67 5 121 10 75 6 106
13 127 29 31 23 91 28 149 11 22 -6 38 -6 44 0 11 11 54 119 63 158 6 24 23
30 23 8z m1637 -23 c-3 -3 -11 -2 -17 2 -9 6 -9 10 1 16 14 8 27 -7 16 -18z
m353 -1 c0 -14 -56 -63 -63 -55 -4 3 5 19 20 35 27 28 43 35 43 20z m-430
-152 c4 0 10 7 14 15 3 8 10 15 15 15 6 0 8 -7 5 -15 -4 -9 0 -15 10 -15 9 0
16 -5 16 -11 0 -6 -8 -8 -20 -4 -10 3 -28 1 -39 -4 -25 -14 -31 -4 -23 34 6
26 7 27 10 8 2 -13 7 -23 12 -23z m550 -54 c-5 -15 -14 -24 -20 -21 -5 3 -10
1 -10 -4 0 -6 -4 -11 -9 -11 -5 0 -8 11 -8 25 0 20 3 24 17 20 12 -4 20 1 24
17 4 13 9 18 12 12 3 -6 0 -23 -6 -38z m-185 5 c-3 -6 3 -23 12 -39 18 -28 40
-32 55 -8 13 20 20 -2 7 -26 -8 -15 -14 -18 -17 -10 -3 10 -7 10 -18 1 -8 -7
-15 -10 -17 -8 -28 50 -45 88 -40 93 10 10 25 7 18 -3z m-408 -17 c-3 -3 -12
-4 -19 -1 -8 3 -5 6 6 6 11 1 17 -2 13 -5z m573 -43 c0 -6 -5 -13 -12 -17 -8
-5 -6 -10 8 -16 18 -8 18 -8 -2 -5 -13 3 -25 -3 -33 -14 -6 -11 -16 -19 -21
-19 -6 0 2 18 16 40 25 38 44 51 44 31z m-524 -183 c6 -4 11 -27 11 -50 0 -38
-1 -40 -14 -23 -7 11 -11 25 -9 32 3 7 1 13 -5 13 -6 0 -7 5 -4 10 3 6 -1 13
-9 16 -9 3 -16 10 -16 15 0 9 28 2 46 -13z m-36 -12 c0 -3 -4 -8 -10 -11 -5
-3 -10 -1 -10 4 0 6 5 11 10 11 6 0 10 -2 10 -4z m410 -56 c-11 -22 -25 -40
-30 -40 -6 0 -1 18 10 40 11 22 25 40 30 40 6 0 1 -18 -10 -40z m56 28 c-4
-28 -28 -58 -44 -58 -16 1 -16 1 -1 10 9 5 20 21 23 35 6 25 26 36 22 13z
m144 -98 c0 -5 -4 -10 -9 -10 -6 0 -13 5 -16 10 -3 6 1 10 9 10 9 0 16 -4 16
-10z m2127 -117 c-3 -10 -5 -4 -5 12 0 17 2 24 5 18 2 -7 2 -21 0 -30z m-2867
17 c0 -5 -4 -10 -10 -10 -5 0 -10 5 -10 10 0 6 5 10 10 10 6 0 10 -4 10 -10z
m-300 -35 c0 -16 -6 -25 -15 -25 -18 0 -18 5 -5 31 14 26 20 24 20 -6z m90 15
c0 -5 -7 -10 -16 -10 -8 0 -12 5 -9 10 3 6 10 10 16 10 5 0 9 -4 9 -10z m1040
-54 c0 -2 -9 -6 -19 -9 -13 -3 -18 0 -15 8 3 7 -5 15 -18 19 -22 7 -22 8 -4
15 13 5 25 2 38 -11 10 -10 18 -20 18 -22z m-2327 -21 c-5 -13 -23 -22 -23
-11 0 15 14 35 21 31 4 -3 6 -12 2 -20z m1314 -51 c-7 -7 -46 35 -47 51 0 5
12 -3 27 -17 15 -15 24 -30 20 -34z m1076 31 c15 -13 27 -33 27 -45 0 -15 11
-25 38 -36 20 -9 52 -31 70 -51 24 -25 39 -34 53 -30 12 3 18 3 15 0 -3 -3 1
-11 9 -17 9 -6 18 -35 22 -66 3 -30 17 -77 30 -105 12 -27 23 -62 23 -76 0
-15 7 -45 15 -68 8 -22 10 -41 6 -41 -12 0 -30 53 -41 119 -5 30 -16 61 -24
70 -8 9 -19 46 -23 81 -6 44 -13 64 -22 62 -7 -1 -10 2 -7 7 4 5 -9 15 -28 21
-20 6 -38 20 -42 32 -3 11 -26 29 -50 40 -32 14 -48 28 -58 53 -8 18 -24 38
-35 45 -12 6 -21 15 -21 20 0 16 13 11 43 -15z m-813 -24 c0 -11 -4 -23 -10
-26 -6 -4 -10 5 -10 19 0 14 5 26 10 26 6 0 10 -9 10 -19z m-434 -48 c-11 -11
-17 4 -9 23 7 18 8 18 11 1 2 -10 1 -21 -2 -24z m297 21 c9 -9 -11 -44 -25
-44 -9 0 -9 3 -1 11 6 6 9 18 6 25 -5 14 8 19 20 8z m71 -10 c9 -22 -3 -32
-14 -14 -12 19 -12 30 -1 30 5 0 12 -7 15 -16z m356 -21 c1 -10 9 -33 19 -52
l18 -34 18 26 c20 31 45 36 44 10 0 -11 -3 -13 -6 -6 -3 8 -13 2 -29 -16 -29
-35 -24 -82 12 -106 13 -8 24 -22 24 -30 0 -8 3 -15 8 -15 4 0 13 -4 20 -9 10
-6 7 -17 -14 -49 -15 -23 -31 -42 -36 -42 -10 0 18 56 33 65 6 5 3 12 -10 22
-12 8 -21 20 -21 28 0 8 -9 19 -20 25 -11 6 -23 23 -26 38 -4 15 -18 51 -30
81 -13 29 -24 60 -24 67 0 21 20 17 20 -3z m-740 -22 c0 -5 -7 -14 -15 -21
-12 -10 -15 -10 -15 2 0 8 3 18 7 21 9 10 23 9 23 -2z m1200 -111 c22 -44 36
-60 51 -60 28 0 99 -38 106 -57 5 -14 7 -14 15 1 13 24 31 20 18 -4 -12 -23
-36 -26 -47 -6 -11 21 -63 46 -95 46 -22 0 -30 9 -57 66 -32 68 -45 75 -46 27
0 -14 -5 -28 -11 -30 -11 -3 -10 28 1 65 9 28 37 8 65 -48z m-562 29 c-2 -6
-8 -10 -13 -10 -5 0 -11 4 -13 10 -2 6 4 11 13 11 9 0 15 -5 13 -11z m-1742
-48 c-9 -14 74 -91 98 -92 19 0 19 -1 -4 -10 -20 -8 -27 -6 -41 13 -21 27 -19
28 -54 -42 -16 -30 -30 -50 -32 -43 -2 6 8 35 22 63 24 47 25 53 11 69 -18 20
-21 51 -5 51 5 0 8 -4 5 -9z m1615 -112 c-13 -11 -27 -17 -30 -13 -7 7 28 34
43 34 6 -1 0 -10 -13 -21z m-2089 -169 c21 -4 43 -12 50 -18 7 -5 31 -15 54
-21 25 -7 48 -22 63 -42 13 -17 39 -37 58 -46 19 -8 33 -17 29 -20 -11 -11
-64 19 -95 53 -17 18 -44 36 -59 40 -15 3 -40 12 -57 20 -16 7 -49 18 -72 24
-24 6 -43 16 -43 21 0 7 7 8 18 4 9 -4 34 -11 54 -15z m358 -110 c0 -5 -5 -10
-11 -10 -5 0 -7 5 -4 10 3 6 8 10 11 10 2 0 4 -4 4 -10z m2826 -76 c9 3 12 1
9 -4 -3 -6 -1 -10 4 -10 17 0 13 -17 -5 -24 -8 -3 -12 -2 -9 3 3 5 -4 12 -15
16 -11 3 -20 14 -20 24 0 27 15 36 18 11 2 -14 9 -20 18 -16z m69 -71 c3 -18
2 -34 -4 -38 -7 -4 -11 5 -11 24 0 16 -3 38 -6 48 -5 12 -4 15 3 8 6 -5 14
-24 18 -42z m-2981 -49 c10 -25 7 -92 -4 -99 -6 -4 -9 9 -8 32 2 21 -1 48 -5
61 -9 25 7 31 17 6z m3001 -41 c-8 -25 -11 -51 -8 -56 3 -6 2 -7 -4 -4 -10 6
-87 -68 -89 -87 0 -6 -2 -29 -3 -51 -2 -36 -3 -38 -12 -16 -5 13 -7 32 -4 42
4 10 1 28 -5 40 -9 16 -9 20 0 14 18 -11 97 78 110 125 6 22 15 40 20 40 5 0
3 -21 -5 -47z m-3007 -148 c-14 -31 -23 -25 -14 10 4 14 11 23 16 20 6 -3 5
-16 -2 -30z m3436 -27 c-9 -15 -70 -68 -101 -89 -13 -9 -36 -33 -50 -53 -13
-21 -27 -35 -30 -32 -11 10 40 78 76 101 20 12 49 37 65 54 29 30 54 43 40 19z
m-499 -107 c3 -11 19 -36 36 -57 16 -20 27 -40 23 -43 -3 -3 -14 5 -25 19 -29
37 -61 100 -50 100 5 0 12 -9 16 -19z m1088 -83 c3 -10 18 -20 33 -24 15 -4
36 -16 46 -26 23 -23 42 -19 46 8 2 12 19 26 47 38 25 10 45 22 45 27 0 5 7 9
15 9 25 0 -14 -38 -53 -51 -20 -7 -37 -21 -42 -35 -11 -28 -50 -33 -70 -8 -8
8 -28 21 -47 29 -18 8 -33 21 -33 30 0 9 -7 18 -15 21 -8 4 -15 15 -15 26 0
19 1 19 18 -3 10 -13 21 -32 25 -41z m-3713 -1 c0 -5 -7 -4 -15 3 -8 7 -15 20
-15 29 1 13 3 13 15 -3 8 -11 15 -24 15 -29z m470 37 c0 -3 -5 -15 -11 -26 -6
-11 -12 -50 -12 -87 -3 -91 -19 -113 -102 -140 -62 -20 -67 -20 -98 -5 -42 22
-146 97 -146 107 -2 14 15 6 64 -33 86 -69 104 -74 181 -49 75 24 84 38 84
123 0 56 16 116 31 116 5 0 9 -3 9 -6z m2258 -145 c23 -74 29 -93 37 -111 4
-10 3 -18 -2 -18 -15 0 -43 68 -43 103 0 18 -7 43 -17 56 -12 18 -13 23 -2 19
8 -2 20 -24 27 -49z m-284 -1 c-22 -39 -77 -108 -82 -103 -7 7 68 115 80 115
5 0 6 -6 2 -12z m419 -80 c-17 -18 -35 -42 -41 -53 -11 -19 -11 -19 -12 4 0
16 12 35 33 52 44 39 58 36 20 -3z m-2753 -18 c0 -5 -2 -10 -4 -10 -3 0 -8 5
-11 10 -3 6 -1 10 4 10 6 0 11 -4 11 -10z m2142 -70 c16 -25 26 -25 54 1 32
30 44 16 44 -47 0 -47 4 -59 26 -79 20 -18 23 -25 11 -25 -31 0 -47 29 -47 85
0 61 -9 73 -35 45 -23 -26 -33 -25 -57 2 -18 21 -20 21 -29 6 -15 -28 -44 -39
-71 -29 -22 9 -21 10 8 10 22 1 37 8 48 26 20 30 32 31 48 5z m248 -455 c-6
-8 -9 -23 -5 -35 3 -11 2 -20 -4 -20 -5 0 -13 9 -16 20 -7 21 9 50 27 50 6 0
5 -6 -2 -15z m-1550 -663 c24 -21 41 -42 39 -47 -2 -6 -26 11 -54 37 -59 57
-46 65 15 10z m18 -78 c36 -10 26 -19 -23 -20 -57 -1 -60 13 -5 25 3 0 15 -2
28 -5z"/>
<path d="M2954 6746 c-3 -9 -12 -16 -20 -16 -11 0 -13 -7 -8 -27 9 -37 18 -45
12 -10 -6 31 9 37 20 8 7 -19 8 -19 45 3 41 25 37 38 -15 51 -21 5 -29 3 -34
-9z m26 -26 c0 -5 -4 -10 -10 -10 -5 0 -10 5 -10 10 0 6 5 10 10 10 6 0 10 -4
10 -10z"/>
<path d="M3560 5555 c13 -14 26 -25 28 -25 3 0 -5 11 -18 25 -13 14 -26 25
-28 25 -3 0 5 -11 18 -25z"/>
<path d="M3307 4280 c3 -11 9 -17 14 -14 14 8 10 34 -5 34 -9 0 -12 -7 -9 -20z"/>
<path d="M3566 3941 c-4 -7 -5 -15 -2 -18 9 -9 19 4 14 18 -4 11 -6 11 -12 0z"/>
<path d="M2820 3149 c7 -11 14 -18 17 -15 8 8 -5 36 -17 36 -7 0 -7 -6 0 -21z"/>
<path d="M2860 3145 c-12 -15 -14 -39 -6 -95 2 -14 4 -30 5 -36 0 -6 14 -9 32
-6 20 3 28 9 25 18 -3 7 0 19 7 26 21 22 19 45 -4 51 -16 4 -20 11 -16 26 3
12 -1 22 -10 25 -20 8 -19 8 -33 -9z"/>
<path d="M2942 3042 c-7 -5 -10 -16 -6 -25 8 -21 20 -22 28 -1 13 33 4 42 -22
26z"/>
</g>
</svg>
