<?xml version="1.0" standalone="no"?>
<!DOCTYPE svg PUBLIC "-//W3C//DTD SVG 20010904//EN"
 "http://www.w3.org/TR/2001/REC-SVG-20010904/DTD/svg10.dtd">
<svg version="1.0" xmlns="http://www.w3.org/2000/svg"
 width="800.000000pt" height="800.000000pt" viewBox="0 0 800.000000 800.000000"
 preserveAspectRatio="xMidYMid meet">
<metadata>
Created by potrace 1.16, written by Peter Selinger 2001-2019
</metadata>
<g transform="translate(0.000000,800.000000) scale(0.100000,-0.100000)"
fill="#000000" stroke="none">
<path d="M0 6726 c0 -1010 3 -1275 13 -1279 10 -4 10 -6 0 -6 -10 -1 -13 -52
-13 -219 0 -217 0 -219 23 -230 l22 -11 -22 -7 -23 -6 0 -2484 0 -2484 1655 0
c1528 0 1655 1 1663 17 7 11 15 14 28 8 18 -7 18 -7 -1 -15 -11 -5 348 -9 798
-9 l818 -1 -7 37 c-11 64 -19 67 -120 50 -75 -13 -91 -13 -104 -1 -13 11 -20
10 -45 -7 -28 -19 -40 -20 -215 -14 -102 3 -205 10 -230 15 -25 5 -113 18
-195 28 -161 20 -221 40 -236 79 -4 12 -13 23 -19 23 -6 0 -10 24 -10 55 0 31
-5 55 -10 55 -6 0 -8 10 -4 24 5 21 3 24 -14 19 -17 -4 -20 1 -24 39 -3 23 -3
45 -1 47 2 3 14 -6 27 -18 28 -26 46 -82 46 -144 0 -61 30 -111 78 -130 20 -8
96 -22 167 -31 72 -9 157 -20 190 -26 33 -5 140 -12 237 -16 196 -8 208 -5
200 46 -3 18 0 30 7 30 6 0 11 -12 11 -26 0 -20 4 -24 19 -19 12 4 23 0 28 -9
8 -14 18 -14 101 1 66 12 93 21 97 33 3 9 -4 81 -15 160 -11 79 -20 171 -20
204 0 34 -11 162 -25 286 -24 227 -35 274 -90 395 -49 107 -115 269 -115 281
0 7 -4 14 -8 16 -5 2 -25 44 -46 93 -21 50 -44 104 -51 120 -16 35 -105 336
-105 354 0 6 3 11 8 11 8 0 19 -31 68 -201 18 -63 60 -174 93 -246 34 -72 68
-153 77 -180 9 -26 49 -122 89 -213 40 -91 78 -191 85 -222 8 -36 18 -58 27
-58 17 0 16 -4 -2 -40 -14 -26 -14 -43 0 -157 8 -71 15 -169 15 -220 0 -50 9
-156 21 -235 14 -96 18 -148 11 -158 -7 -11 -5 -22 4 -35 8 -10 14 -30 14 -44
0 -14 4 -32 8 -39 7 -10 289 -12 1377 -10 l1370 3 32 109 32 108 -45 -7 c-26
-3 -44 -2 -44 3 0 5 21 13 46 17 l46 7 -6 91 c-4 51 -9 118 -12 150 l-6 57
-36 0 c-28 0 -33 3 -22 10 8 5 25 10 37 10 13 0 24 8 28 21 9 28 1 34 -45 30
-24 -1 -40 2 -40 8 0 6 15 11 34 11 43 0 48 8 40 59 -6 39 -7 40 -27 26 -38
-26 -54 -17 -19 11 31 25 44 66 20 63 -30 -4 -68 2 -68 10 0 13 61 22 75 11
24 -20 27 35 5 90 -22 55 -24 70 -12 70 9 0 62 -147 62 -171 0 -18 98 -221
111 -229 4 -3 13 -30 20 -60 6 -30 20 -70 31 -88 11 -18 24 -45 28 -60 5 -15
9 1484 9 3331 1 2306 -2 3357 -9 3357 -7 0 -7 6 -1 19 6 11 10 124 11 275 l0
256 -60 0 c-56 0 -63 -3 -103 -39 -23 -21 -57 -41 -76 -45 -19 -3 -67 -26
-108 -50 -42 -26 -97 -50 -129 -56 -31 -7 -70 -20 -87 -30 -18 -10 -54 -24
-80 -31 -53 -13 -71 -35 -61 -74 5 -20 3 -24 -9 -20 -10 5 -16 27 -19 83 -3
56 -12 94 -31 136 -31 67 -31 66 -16 66 14 0 57 -100 65 -150 4 -22 7 -40 8
-40 16 0 115 36 139 50 17 11 52 22 77 26 27 4 84 28 141 60 52 30 103 54 112
54 10 0 40 18 68 40 28 22 59 40 70 40 12 0 19 7 19 20 0 11 4 20 9 20 5 0 11
-9 14 -20 3 -13 14 -20 30 -20 l26 0 1 190 0 190 -3725 0 -3725 0 0 -21 c0
-12 28 -130 62 -263 56 -217 65 -245 97 -284 l36 -42 30 36 c25 29 35 35 53
30 12 -4 22 -15 22 -25 0 -12 10 -20 28 -24 28 -6 29 -8 35 -83 5 -56 12 -80
24 -90 24 -17 10 -29 -15 -13 -16 10 -22 28 -27 90 -7 75 -8 77 -36 83 -21 4
-29 11 -29 26 0 32 -23 23 -54 -21 l-29 -42 -34 42 c-19 22 -42 41 -50 41 -9
0 -13 6 -9 15 3 8 1 15 -4 15 -5 0 -8 12 -8 28 0 15 -25 125 -56 244 -31 119
-56 226 -56 237 0 21 -4 21 -265 21 l-265 0 0 -1274z m985 964 c-3 -5 -12 -10
-18 -10 -7 0 -6 4 3 10 19 12 23 12 15 0z m6945 -11 c0 -5 -4 -9 -10 -9 -5 0
-10 7 -10 16 0 8 5 12 10 9 6 -3 10 -10 10 -16z m50 -3 c0 -3 -4 -8 -10 -11
-5 -3 -10 -1 -10 4 0 6 5 11 10 11 6 0 10 -2 10 -4z m-7020 -16 c0 -5 -4 -10
-10 -10 -5 0 -10 5 -10 10 0 6 5 10 10 10 6 0 10 -4 10 -10z m-20 -50 c0 -5
-4 -10 -10 -10 -5 0 -10 5 -10 10 0 6 5 10 10 10 6 0 10 -4 10 -10z m-250
-260 c0 -5 -5 -10 -11 -10 -5 0 -7 5 -4 10 3 6 8 10 11 10 2 0 4 -4 4 -10z
m10 -40 c0 -5 -2 -10 -4 -10 -3 0 -8 5 -11 10 -3 6 -1 10 4 10 6 0 11 -4 11
-10z m15 -56 c6 -32 1 -54 -9 -43 -9 11 -16 79 -8 79 6 0 13 -16 17 -36z
m7255 -15 c0 -5 -6 -9 -14 -9 -8 0 -17 -11 -20 -25 -9 -35 -103 -97 -127 -84
-25 13 -29 12 -29 -11 0 -20 -44 -49 -56 -37 -3 3 7 22 23 42 23 30 33 35 56
31 40 -8 104 30 117 69 6 20 17 31 30 32 11 1 20 -2 20 -8z m-2795 -70 c6 -19
0 -38 -9 -28 -10 12 -16 49 -7 49 5 0 13 -9 16 -21z m2503 -27 c-8 -9 -25 -34
-37 -54 -18 -30 -19 -37 -7 -32 20 8 21 -5 1 -20 -12 -9 -13 -19 -3 -56 10
-42 38 -88 38 -63 0 6 9 13 20 16 23 6 25 -1 7 -24 -10 -14 -17 -15 -42 -5
-111 43 -136 67 -98 97 9 8 29 34 45 58 26 42 27 46 12 69 -19 29 -13 38 15
20 18 -11 23 -10 38 12 10 15 18 19 21 11 2 -7 -2 -20 -10 -29z m-2478 -43 c0
-11 -4 -17 -10 -14 -5 3 -10 15 -10 26 0 11 5 17 10 14 6 -3 10 -15 10 -26z
m2790 12 c0 -11 -31 -24 -39 -16 -3 3 1 10 9 15 19 12 30 12 30 1z m-1850 -10
c0 -5 -15 -19 -34 -30 -30 -19 -33 -25 -27 -48 4 -15 4 -51 -1 -79 -6 -38 -4
-61 7 -87 8 -20 11 -38 6 -41 -5 -3 -16 14 -25 37 -12 33 -14 54 -7 91 5 28 5
61 0 79 -10 34 -11 31 33 63 36 25 48 29 48 15z m1789 -32 c-8 -5 -21 -9 -29
-9 -12 1 -11 4 4 15 10 8 23 12 29 8 5 -3 3 -9 -4 -14z m-234 -8 c-8 -13 -35
-15 -35 -2 0 5 8 11 18 13 21 5 26 2 17 -11z m-2472 -12 c3 -13 1 -19 -6 -16
-15 5 -22 37 -9 37 5 0 12 -9 15 -21z m2665 -32 c-7 -14 -13 -17 -16 -9 -6 19
6 44 18 37 7 -4 6 -14 -2 -28z m92 13 c0 -5 -4 -10 -10 -10 -5 0 -10 5 -10 10
0 6 5 10 10 10 6 0 10 -4 10 -10z m-180 -19 c0 -5 -7 -14 -15 -21 -16 -14 -18
-10 -9 14 6 17 24 22 24 7z m60 -1 c0 -5 -9 -10 -20 -10 -11 0 -20 5 -20 10 0
6 9 10 20 10 11 0 20 -4 20 -10z m-2616 -16 c9 -22 -3 -32 -14 -14 -12 19 -12
30 -1 30 5 0 12 -7 15 -16z m2716 12 c0 -3 -4 -8 -10 -11 -5 -3 -10 -1 -10 4
0 6 5 11 10 11 6 0 10 -2 10 -4z m-100 -37 c-7 -11 -14 -18 -17 -15 -8 8 5 36
17 36 7 0 7 -6 0 -21z m70 11 c0 -5 -5 -10 -11 -10 -5 0 -7 5 -4 10 3 6 8 10
11 10 2 0 4 -4 4 -10z m-7740 -10 c0 -5 -13 -10 -30 -10 -16 0 -30 5 -30 10 0
6 14 10 30 10 17 0 30 -4 30 -10z m1400 0 c0 -5 -4 -10 -10 -10 -5 0 -10 5
-10 10 0 6 5 10 10 10 6 0 10 -4 10 -10z m1326 1 c-4 -5 0 -11 6 -14 7 -2 -8
-2 -34 1 l-48 5 0 -32 c0 -17 -4 -31 -10 -31 -5 0 -10 18 -10 40 l0 40 51 0
c28 0 48 -4 45 -9z m-1356 -11 c0 -5 -4 -10 -10 -10 -5 0 -10 5 -10 10 0 6 5
10 10 10 6 0 10 -4 10 -10z m6190 -15 c-7 -9 -15 -13 -18 -10 -3 2 1 11 8 20
7 9 15 13 18 10 3 -2 -1 -11 -8 -20z m-6230 5 c0 -5 -2 -10 -4 -10 -3 0 -8 5
-11 10 -3 6 -1 10 4 10 6 0 11 -4 11 -10z m3745 -28 c-8 -9 -25 20 -18 31 3 5
10 2 15 -7 6 -10 7 -20 3 -24z m-2365 18 c0 -5 -4 -10 -10 -10 -5 0 -10 5 -10
10 0 6 5 10 10 10 6 0 10 -4 10 -10z m4930 1 c0 -13 -26 -32 -33 -24 -8 7 11
33 24 33 5 0 9 -4 9 -9z m-6400 -11 c0 -5 -2 -10 -4 -10 -3 0 -8 5 -11 10 -3
6 -1 10 4 10 6 0 11 -4 11 -10z m6450 6 c0 -3 -4 -8 -10 -11 -5 -3 -10 -1 -10
4 0 6 5 11 10 11 6 0 10 -2 10 -4z m-340 -13 c0 -14 -19 -38 -25 -32 -8 8 5
39 16 39 5 0 9 -3 9 -7z m-6170 -23 c0 -5 -4 -10 -10 -10 -5 0 -10 5 -10 10 0
6 5 10 10 10 6 0 10 -4 10 -10z m3938 -26 c-10 -10 -28 6 -28 24 0 15 1 15 17
-1 9 -9 14 -19 11 -23z m2465 4 c-17 -19 -17 -19 11 -12 19 5 31 2 37 -7 15
-24 10 -29 -24 -29 -29 0 -45 -12 -130 -105 -101 -109 -117 -143 -80 -170 9
-7 12 -14 7 -18 -5 -3 -17 1 -28 8 -14 11 -17 21 -11 52 5 30 26 61 101 143
85 93 93 106 78 117 -9 7 -22 14 -28 16 -6 2 -8 7 -4 11 3 4 15 3 25 -2 15 -8
22 -6 31 9 7 11 17 17 23 13 6 -4 4 -13 -8 -26z m87 22 c0 -5 -2 -10 -4 -10
-3 0 -8 5 -11 10 -3 6 -1 10 4 10 6 0 11 -4 11 -10z m-5055 -10 c-3 -5 -10
-10 -16 -10 -5 0 -9 5 -9 10 0 6 7 10 16 10 8 0 12 -4 9 -10z m-1460 -10 c3
-5 1 -10 -4 -10 -6 0 -11 5 -11 10 0 6 2 10 4 10 3 0 8 -4 11 -10z m375 -10
c0 -5 -2 -10 -4 -10 -3 0 -8 5 -11 10 -3 6 -1 10 4 10 6 0 11 -4 11 -10z
m1050 0 c0 -5 -5 -10 -11 -10 -5 0 -7 5 -4 10 3 6 8 10 11 10 2 0 4 -4 4 -10z
m4743 -15 c-7 -21 -13 -19 -13 6 0 11 4 18 10 14 5 -3 7 -12 3 -20z m337 21
c0 -3 -4 -8 -10 -11 -5 -3 -10 -1 -10 4 0 6 5 11 10 11 6 0 10 -2 10 -4z
m-6530 -20 c0 -3 -4 -8 -10 -11 -5 -3 -10 -1 -10 4 0 6 5 11 10 11 6 0 10 -2
10 -4z m430 -6 c0 -5 -2 -10 -4 -10 -3 0 -8 5 -11 10 -3 6 -1 10 4 10 6 0 11
-4 11 -10z m3589 -16 c3 -16 1 -17 -13 -5 -19 16 -21 34 -3 29 6 -3 14 -13 16
-24z m1355 -8 c30 -40 32 -46 10 -46 -9 0 -18 -9 -21 -20 -3 -11 -7 -20 -9
-20 -17 0 -114 44 -112 50 3 10 89 70 99 70 4 0 18 -15 33 -34z m-5404 14 c0
-5 -5 -10 -11 -10 -5 0 -7 5 -4 10 3 6 8 10 11 10 2 0 4 -4 4 -10z m1460 6 c0
-3 -4 -8 -10 -11 -5 -3 -10 -1 -10 4 0 6 5 11 10 11 6 0 10 -2 10 -4z m-1490
-26 c0 -5 -5 -10 -11 -10 -5 0 -7 5 -4 10 3 6 8 10 11 10 2 0 4 -4 4 -10z
m1460 6 c0 -3 -4 -8 -10 -11 -5 -3 -10 -1 -10 4 0 6 5 11 10 11 6 0 10 -2 10
-4z m4786 -43 c-11 -11 -19 6 -11 24 8 17 8 17 12 0 3 -10 2 -21 -1 -24z
m-6476 6 c0 -6 -4 -7 -10 -4 -5 3 -10 11 -10 16 0 6 5 7 10 4 6 -3 10 -11 10
-16z m1660 11 c0 -5 -5 -10 -11 -10 -5 0 -7 5 -4 10 3 6 8 10 11 10 2 0 4 -4
4 -10z m2684 -6 c9 -24 7 -28 -9 -14 -17 14 -20 30 -6 30 5 0 12 -7 15 -16z
m2456 12 c0 -3 -4 -8 -10 -11 -5 -3 -10 -1 -10 4 0 6 5 11 10 11 6 0 10 -2 10
-4z m-6590 -15 c0 -6 -4 -13 -10 -16 -5 -3 -10 1 -10 9 0 9 5 16 10 16 6 0 10
-4 10 -9z m-30 -11 c0 -5 -4 -10 -10 -10 -5 0 -10 5 -10 10 0 6 5 10 10 10 6
0 10 -4 10 -10z m-150 -10 c0 -5 -4 -10 -10 -10 -5 0 -10 5 -10 10 0 6 5 10
10 10 6 0 10 -4 10 -10z m80 0 c0 -5 -4 -10 -10 -10 -5 0 -10 5 -10 10 0 6 5
10 10 10 6 0 10 -4 10 -10z m30 0 c0 -5 -2 -10 -4 -10 -3 0 -8 5 -11 10 -3 6
-1 10 4 10 6 0 11 -4 11 -10z m730 0 c0 -5 -2 -10 -4 -10 -3 0 -8 5 -11 10 -3
6 -1 10 4 10 6 0 11 -4 11 -10z m770 0 c0 -5 -5 -10 -11 -10 -5 0 -7 5 -4 10
3 6 8 10 11 10 2 0 4 -4 4 -10z m5170 0 c0 -5 -2 -10 -4 -10 -3 0 -8 5 -11 10
-3 6 -1 10 4 10 6 0 11 -4 11 -10z m-5290 -10 c0 -5 -4 -10 -10 -10 -5 0 -10
5 -10 10 0 6 5 10 10 10 6 0 10 -4 10 -10z m30 0 c0 -5 -2 -10 -4 -10 -3 0 -8
5 -11 10 -3 6 -1 10 4 10 6 0 11 -4 11 -10z m-1592 -191 c62 -104 112 -195
110 -201 -3 -7 -55 72 -116 174 -117 194 -130 218 -116 218 5 0 60 -86 122
-191z m982 181 c0 -5 -2 -10 -4 -10 -3 0 -8 5 -11 10 -3 6 -1 10 4 10 6 0 11
-4 11 -10z m670 -10 c5 8 9 4 13 -9 3 -12 1 -24 -4 -27 -5 -3 -9 0 -9 5 0 6
-7 11 -15 11 -8 0 -15 2 -15 4 0 2 -3 13 -7 23 -7 17 -6 17 12 0 13 -13 20
-15 25 -7z m2767 5 c9 -25 -4 -29 -17 -6 -7 15 -7 21 0 21 6 0 13 -7 17 -15z
m2103 -5 c0 -11 -4 -20 -10 -20 -5 0 -10 9 -10 20 0 11 5 20 10 20 6 0 10 -9
10 -20z m-5510 0 c0 -5 -5 -10 -11 -10 -5 0 -7 5 -4 10 3 6 8 10 11 10 2 0 4
-4 4 -10z m490 -4 c0 -3 -4 -8 -10 -11 -5 -3 -10 -1 -10 4 0 6 5 11 10 11 6 0
10 -2 10 -4z m310 -30 c0 -3 -7 -6 -15 -6 -9 0 -15 9 -15 21 0 18 2 19 15 5 8
-8 15 -17 15 -20z m-775 14 c3 -5 1 -10 -4 -10 -6 0 -11 5 -11 10 0 6 2 10 4
10 3 0 8 -4 11 -10z m-815 -4 c0 -3 -4 -8 -10 -11 -5 -3 -10 -1 -10 4 0 6 5
11 10 11 6 0 10 -2 10 -4z m1480 -6 c0 -5 -4 -10 -10 -10 -5 0 -10 5 -10 10 0
6 5 10 10 10 6 0 10 -4 10 -10z m30 0 c0 -5 -5 -10 -11 -10 -5 0 -7 5 -4 10 3
6 8 10 11 10 2 0 4 -4 4 -10z m48 -10 c7 -11 10 -20 6 -20 -7 0 -34 27 -34 34
0 13 16 5 28 -14z m-713 0 c3 -5 1 -10 -4 -10 -6 0 -11 5 -11 10 0 6 2 10 4
10 3 0 8 -4 11 -10z m415 6 c0 -3 -4 -8 -10 -11 -5 -3 -10 -1 -10 4 0 6 5 11
10 11 6 0 10 -2 10 -4z m2960 -17 c0 -11 -4 -17 -10 -14 -5 3 -10 13 -10 21 0
8 5 14 10 14 6 0 10 -9 10 -21z m2076 -18 c-12 -19 -24 -12 -19 10 4 13 9 17
15 11 6 -6 7 -15 4 -21z m-5066 15 c0 -3 -4 -8 -10 -11 -5 -3 -10 -1 -10 4 0
6 5 11 10 11 6 0 10 -2 10 -4z m240 -17 c0 -5 -4 -9 -10 -9 -5 0 -10 7 -10 16
0 8 5 12 10 9 6 -3 10 -10 10 -16z m-270 -9 c0 -5 -4 -10 -10 -10 -5 0 -10 5
-10 10 0 6 5 10 10 10 6 0 10 -4 10 -10z m350 6 c0 -3 -4 -8 -10 -11 -5 -3
-10 -1 -10 4 0 6 5 11 10 11 6 0 10 -2 10 -4z m-1515 -26 c3 -5 1 -10 -4 -10
-6 0 -11 5 -11 10 0 6 2 10 4 10 3 0 8 -4 11 -10z m39 -6 c4 -10 1 -14 -6 -12
-15 5 -23 28 -10 28 5 0 13 -7 16 -16z m1096 6 c0 -5 -4 -10 -10 -10 -5 0 -10
5 -10 10 0 6 5 10 10 10 6 0 10 -4 10 -10z m3070 -11 c0 -11 -4 -17 -10 -14
-5 3 -10 13 -10 21 0 8 5 14 10 14 6 0 10 -9 10 -21z m-3310 1 c0 -5 -2 -10
-4 -10 -3 0 -8 5 -11 10 -3 6 -1 10 4 10 6 0 11 -4 11 -10z m616 -16 c-21 -20
-28 -17 -14 5 7 11 16 17 20 15 5 -3 2 -12 -6 -20z m4737 11 c4 -8 2 -17 -3
-20 -6 -4 -10 -4 -10 -1 0 2 -3 11 -6 20 -3 9 -2 16 4 16 5 0 12 -7 15 -15z
m-5323 -15 c0 -5 -2 -10 -4 -10 -3 0 -8 5 -11 10 -3 6 -1 10 4 10 6 0 11 -4
11 -10z m70 0 c0 -5 -4 -10 -10 -10 -5 0 -10 5 -10 10 0 6 5 10 10 10 6 0 10
-4 10 -10z m65 0 c3 -5 1 -10 -4 -10 -6 0 -11 5 -11 10 0 6 2 10 4 10 3 0 8
-4 11 -10z m55 0 c0 -5 -2 -10 -4 -10 -3 0 -8 5 -11 10 -3 6 -1 10 4 10 6 0
11 -4 11 -10z m4780 -4 c0 -8 16 -28 36 -45 l35 -31 -47 -55 c-44 -52 -64 -66
-64 -46 0 5 7 14 15 21 8 7 15 17 15 22 0 6 -7 5 -15 -2 -9 -7 -19 -9 -23 -5
-4 4 -1 10 6 12 17 6 15 23 -3 23 -8 0 -15 5 -15 10 0 6 5 10 11 10 6 0 8 7 5
15 -3 8 -9 21 -12 29 -3 9 3 17 15 21 12 3 21 13 21 21 0 8 5 14 10 14 6 0 10
-6 10 -14z m-5860 -16 c0 -5 -2 -10 -4 -10 -3 0 -8 5 -11 10 -3 6 -1 10 4 10
6 0 11 -4 11 -10z m1070 -11 c0 -4 -7 -6 -15 -3 -8 4 -15 10 -15 15 0 4 7 6
15 3 8 -4 15 -10 15 -15z m3126 -17 c-9 -8 -26 10 -26 26 1 15 2 15 15 -2 8
-11 13 -21 11 -24z m2024 19 c0 -13 -26 -32 -33 -24 -8 7 11 33 24 33 5 0 9
-4 9 -9z m-4795 -21 c3 -5 1 -10 -4 -10 -6 0 -11 5 -11 10 0 6 2 10 4 10 3 0
8 -4 11 -10z m415 -20 c0 -5 -5 -10 -11 -10 -5 0 -7 5 -4 10 3 6 8 10 11 10 2
0 4 -4 4 -10z m2360 -20 c0 -11 -4 -20 -10 -20 -5 0 -10 9 -10 20 0 11 5 20
10 20 6 0 10 -9 10 -20z m1970 5 c-7 -8 -17 -15 -22 -15 -6 0 -5 7 2 15 7 8
17 15 22 15 6 0 5 -7 -2 -15z m116 -1 c-3 -9 -6 -18 -6 -20 0 -2 -4 -4 -9 -4
-5 0 -7 9 -4 20 3 11 10 20 15 20 6 0 7 -7 4 -16z m-6276 0 c0 -7 -27 -34 -34
-34 -4 0 -1 9 6 20 12 19 28 27 28 14z m1410 2 c0 -3 -4 -8 -10 -11 -5 -3 -10
-1 -10 4 0 6 5 11 10 11 6 0 10 -2 10 -4z m390 -6 c0 -5 -4 -10 -10 -10 -5 0
-10 5 -10 10 0 6 5 10 10 10 6 0 10 -4 10 -10z m-30 -10 c0 -5 -4 -10 -10 -10
-5 0 -10 5 -10 10 0 6 5 10 10 10 6 0 10 -4 10 -10z m4560 -4 c0 -17 -14 -29
-23 -20 -8 8 3 34 14 34 5 0 9 -6 9 -14z m-4920 -16 c0 -5 -4 -10 -10 -10 -5
0 -10 5 -10 10 0 6 5 10 10 10 6 0 10 -4 10 -10z m290 0 c0 -5 -4 -10 -10 -10
-5 0 -10 5 -10 10 0 6 5 10 10 10 6 0 10 -4 10 -10z m4430 1 c0 -5 -7 -14 -15
-21 -12 -10 -15 -10 -15 2 0 8 3 18 7 21 9 10 23 9 23 -2z m-4472 -21 c-7 -10
-14 -18 -15 -16 -6 6 9 36 18 36 5 0 4 -9 -3 -20z m245 -3 c3 -8 32 -23 65
-35 l59 -22 6 -80 c7 -84 13 -104 35 -106 36 -3 42 -5 42 -15 0 -5 -8 -9 -17
-7 -10 1 -23 -1 -30 -5 -20 -12 -40 41 -48 125 l-7 77 -52 17 c-47 15 -76 36
-76 56 0 13 17 9 23 -5z m2297 -7 c0 -11 -4 -20 -10 -20 -5 0 -10 9 -10 20 0
11 5 20 10 20 6 0 10 -9 10 -20z m2085 10 c3 -5 12 -7 19 -4 7 3 16 -2 20 -11
3 -9 0 -18 -9 -21 -8 -4 -15 -15 -15 -26 0 -14 -5 -18 -15 -14 -9 3 -15 0 -15
-9 0 -8 -6 -15 -14 -15 -9 0 -12 -8 -8 -25 2 -14 8 -25 13 -25 14 0 10 -30 -6
-46 -8 -9 -15 -21 -15 -27 0 -7 4 -6 10 3 8 11 10 -1 8 -40 -2 -39 1 -58 12
-67 13 -11 13 -12 -2 -13 -27 0 -48 11 -48 27 0 8 5 11 10 8 6 -3 10 1 10 10
0 9 -4 13 -10 10 -6 -4 -8 24 -4 77 2 46 5 95 4 109 0 21 7 28 32 37 18 7 23
10 11 8 -13 -2 -25 0 -28 4 -7 11 31 23 45 15 19 -12 10 7 -12 26 -13 10 -18
18 -11 19 6 0 14 -4 18 -10z m-4895 -10 c0 -5 -2 -10 -4 -10 -3 0 -8 5 -11 10
-3 6 -1 10 4 10 6 0 11 -4 11 -10z m373 -52 c26 -11 47 -24 47 -29 0 -12 -2
-12 -53 10 -25 11 -66 23 -91 26 -25 4 -46 12 -46 17 0 14 87 -1 143 -24z
m4347 13 c0 -11 -4 -23 -10 -26 -6 -4 -10 5 -10 19 0 14 5 26 10 26 6 0 10 -9
10 -19z m-4770 -1 c0 -5 -5 -10 -11 -10 -5 0 -7 5 -4 10 3 6 8 10 11 10 2 0 4
-4 4 -10z m2894 -21 c-4 -6 -11 -6 -20 2 -21 17 -17 31 6 19 11 -6 18 -15 14
-21z m1736 21 c0 -5 -4 -10 -10 -10 -5 0 -10 5 -10 10 0 6 5 10 10 10 6 0 10
-4 10 -10z m-4470 -10 c0 -5 -2 -10 -4 -10 -3 0 -8 5 -11 10 -3 6 -1 10 4 10
6 0 11 -4 11 -10z m40 6 c0 -3 -4 -8 -10 -11 -5 -3 -10 -1 -10 4 0 6 5 11 10
11 6 0 10 -2 10 -4z m70 -6 c0 -5 -5 -10 -11 -10 -5 0 -7 5 -4 10 3 6 8 10 11
10 2 0 4 -4 4 -10z m4470 0 c0 -5 -5 -10 -11 -10 -5 0 -7 5 -4 10 3 6 8 10 11
10 2 0 4 -4 4 -10z m-4509 -33 c-10 -9 -11 -8 -5 6 3 10 9 15 12 12 3 -3 0
-11 -7 -18z m2706 -23 c-9 -10 -38 16 -31 28 4 6 13 4 22 -6 9 -8 13 -19 9
-22z m1703 26 c0 -5 -2 -10 -4 -10 -3 0 -8 5 -11 10 -3 6 -1 10 4 10 6 0 11
-4 11 -10z m80 6 c0 -3 -4 -8 -10 -11 -5 -3 -10 -1 -10 4 0 6 5 11 10 11 6 0
10 -2 10 -4z m226 -32 c-3 -9 -6 -18 -6 -20 0 -3 -4 -3 -10 1 -11 7 -2 35 12
35 6 0 7 -7 4 -16z m-1873 -24 c3 -14 1 -20 -6 -17 -7 2 -14 14 -15 26 -4 28
13 20 21 -9z m1577 20 c0 -5 -4 -10 -10 -10 -5 0 -10 5 -10 10 0 6 5 10 10 10
6 0 10 -4 10 -10z m80 -11 c0 -5 -4 -9 -10 -9 -5 0 -10 7 -10 16 0 8 5 12 10
9 6 -3 10 -10 10 -16z m-4770 -9 c0 -5 -4 -10 -10 -10 -5 0 -10 5 -10 10 0 6
5 10 10 10 6 0 10 -4 10 -10z m57 -12 c-3 -8 -6 -5 -6 6 -1 11 2 17 5 13 3 -3
4 -12 1 -19z m2947 6 c9 -22 -3 -32 -14 -14 -12 19 -12 30 -1 30 5 0 12 -7 15
-16z m514 -10 c8 -14 12 -14 46 3 37 17 38 17 52 -2 7 -11 17 -24 21 -30 19
-24 13 -45 -17 -60 -16 -8 -30 -19 -30 -24 0 -4 13 -26 30 -49 16 -23 26 -44
21 -46 -5 -3 -16 4 -24 17 -34 50 -57 68 -77 57 -23 -12 -40 -13 -40 -1 0 5
11 12 25 15 l25 6 -20 41 c-31 60 -41 89 -30 89 5 0 13 -7 18 -16z m1169 -8
c-3 -8 -1 -16 4 -18 6 -2 3 -17 -7 -36 -9 -18 -18 -31 -21 -29 -8 9 9 97 19
97 6 0 8 -6 5 -14z m-4677 -6 c0 -5 -4 -10 -10 -10 -5 0 -10 5 -10 10 0 6 5
10 10 10 6 0 10 -4 10 -10z m27 -4 c-4 -10 -1 -13 9 -9 7 3 14 0 14 -6 0 -6
-9 -11 -20 -11 -11 0 -20 2 -20 4 0 10 13 36 17 36 3 0 3 -7 0 -14z m4718 4
c-3 -5 -13 -10 -21 -10 -8 0 -14 5 -14 10 0 6 9 10 21 10 11 0 17 -4 14 -10z
m-1625 -31 c0 -11 -4 -17 -10 -14 -5 3 -10 13 -10 21 0 8 5 14 10 14 6 0 10
-9 10 -21z m-110 -10 c0 -11 -4 -17 -10 -14 -5 3 -10 13 -10 21 0 8 5 14 10
14 6 0 10 -9 10 -21z m45 -19 c3 -5 -3 -10 -14 -10 -12 0 -21 5 -21 10 0 6 6
10 14 10 8 0 18 -4 21 -10z m821 -15 c-14 -13 -26 -30 -26 -38 0 -7 -16 -21
-36 -30 -24 -12 -34 -22 -30 -32 3 -8 8 -21 11 -28 8 -18 -30 -51 -50 -44 -8
4 -15 11 -15 16 0 6 6 8 13 6 23 -9 40 10 28 33 -16 31 -14 41 14 54 31 14 31
22 1 42 -23 15 -28 14 -71 -4 -53 -23 -55 -23 -55 -11 0 4 23 18 51 30 l51 21
28 -20 c36 -26 44 -25 58 5 7 15 20 25 33 25 21 0 21 -1 -5 -25z m-733 -5 c5
-21 -7 -28 -18 -10 -3 6 -15 10 -26 10 -10 0 -19 5 -19 10 0 6 13 10 29 10 20
0 30 -6 34 -20z m1503 -38 c-8 -9 -19 -13 -22 -9 -10 9 16 38 28 31 6 -4 4
-13 -6 -22z m-3850 -11 c-27 -30 -17 -64 22 -76 33 -9 38 -24 21 -60 -8 -17
-9 -16 -6 8 3 20 0 27 -12 27 -23 1 -47 21 -55 48 -6 18 -2 30 15 48 27 28 40
33 15 5z m2374 5 c0 -3 -4 -8 -10 -11 -5 -3 -10 -1 -10 4 0 6 5 11 10 11 6 0
10 -2 10 -4z m-4330 -10 c0 -8 -127 -86 -142 -86 -24 0 -28 -11 -12 -35 18
-28 21 -26 -84 -55 l-84 -23 3 -61 c1 -34 -3 -74 -10 -91 -7 -16 -11 -57 -9
-90 l3 -60 -55 -8 c-30 -5 -59 -15 -65 -21 -5 -7 -35 -20 -66 -29 l-57 -17
-13 -85 c-9 -62 -16 -85 -27 -85 -8 0 -12 6 -9 13 2 7 10 39 16 72 7 33 14 70
16 81 4 16 19 25 64 38 32 9 62 23 65 31 3 8 16 15 29 15 14 0 37 3 53 6 28 5
29 7 30 74 0 38 6 75 12 83 8 9 9 36 5 80 -4 52 -3 68 8 71 8 3 47 14 87 26
65 19 71 23 62 40 -16 30 -12 39 24 45 19 4 56 22 83 40 42 30 73 43 73 31z
m5770 -15 c0 -12 -20 -25 -27 -18 -7 7 6 27 18 27 5 0 9 -4 9 -9z m-2485 -62
c27 -20 41 -37 39 -47 -3 -12 13 -26 58 -48 44 -22 64 -39 68 -55 5 -19 14
-25 45 -29 36 -5 44 -11 85 -72 25 -37 48 -67 51 -68 12 0 17 39 5 43 -6 2 -8
7 -4 11 3 4 15 3 26 -3 12 -6 33 -11 49 -11 33 0 73 -25 73 -46 0 -21 -42 -34
-86 -27 -27 4 -35 3 -30 -5 10 -17 86 -14 116 3 29 16 94 20 85 5 -3 -5 -17
-10 -31 -10 -14 0 -39 -7 -56 -16 -36 -18 -140 -14 -147 7 -2 6 -26 45 -55 87
-45 69 -55 78 -89 83 -21 3 -40 2 -44 -4 -3 -5 -3 -92 1 -192 5 -109 4 -185
-2 -189 -11 -7 -25 323 -16 391 l6 50 -83 41 c-62 32 -94 42 -131 42 -26 0
-48 5 -48 10 0 6 11 10 25 10 25 0 30 11 27 53 -2 25 14 21 63 -14z m2465 14
c0 -14 -19 -38 -25 -32 -8 8 5 39 16 39 5 0 9 -3 9 -7z m-2238 -8 c7 -3 13
-19 12 -37 -1 -27 -5 -32 -28 -35 -16 -2 -25 0 -22 5 3 6 -1 13 -9 16 -13 5
-12 10 7 31 24 28 22 27 40 20z m-4379 -31 c86 -8 60 -21 -30 -13 -46 4 -80 2
-84 -3 -7 -10 -49 11 -49 24 0 12 18 9 26 -3 5 -8 9 -7 15 4 7 12 15 13 37 6
15 -5 53 -11 85 -15z m6597 -75 c0 -57 -3 -65 -41 -110 -41 -49 -69 -63 -69
-33 0 9 6 14 12 12 7 -3 27 14 45 36 28 35 33 49 33 99 0 31 5 57 10 57 6 0
10 -27 10 -61z m-696 -56 c9 -22 -21 -54 -33 -35 -4 7 -15 10 -24 6 -27 -10
-19 10 11 28 35 21 39 21 46 1z m-2893 -25 l0 -23 11 23 c6 12 15 22 20 22 10
0 10 -7 -2 -29 -16 -31 6 -89 41 -107 23 -12 34 -13 44 -4 8 7 20 10 26 8 7
-2 -1 -14 -19 -26 l-31 -23 21 -35 c11 -19 30 -39 41 -46 17 -9 24 -7 39 11
11 14 26 21 40 19 21 -3 23 -9 26 -64 3 -60 4 -62 35 -71 22 -6 33 -16 35 -31
5 -30 22 -28 22 3 0 14 5 25 10 25 9 0 4 -77 -5 -88 -7 -8 -45 34 -45 49 0 18
-19 29 -51 29 -17 0 -19 8 -19 65 0 71 -10 81 -42 40 -18 -24 -21 -24 -48 -10
-17 9 -36 28 -45 45 -19 37 -32 45 -50 30 -23 -19 -18 4 5 25 20 18 20 18 -9
36 -21 12 -32 29 -36 53 -4 19 -13 37 -21 40 -8 3 -14 12 -14 20 0 11 -9 13
-40 9 -25 -4 -40 -2 -40 5 0 6 17 13 38 15 20 2 43 4 50 5 6 1 12 -8 13 -20z
m139 7 c0 -8 -4 -15 -10 -15 -5 0 -10 7 -10 15 0 8 5 15 10 15 6 0 10 -7 10
-15z m2960 8 c0 -4 -16 -24 -37 -45 -29 -29 -34 -40 -25 -51 14 -17 3 -31 -13
-17 -9 7 -26 -3 -61 -37 -26 -27 -47 -51 -46 -55 1 -4 -6 -7 -16 -7 -34 1
-169 -29 -271 -60 -120 -36 -111 -34 -111 -19 0 6 -7 19 -16 29 -9 10 -14 25
-10 34 8 22 125 16 140 -7 9 -14 14 -14 60 2 28 9 75 20 105 24 68 9 115 33
166 85 28 30 34 41 22 41 -9 0 -17 5 -17 10 0 6 10 10 23 10 13 0 38 15 57 35
32 33 50 43 50 28z m-2424 -27 c-3 -13 -8 -31 -11 -39 -4 -9 4 -18 24 -27 17
-7 31 -16 31 -21 0 -12 -1 -12 -45 7 -21 8 -43 13 -51 10 -24 -9 -24 11 0 22
15 6 27 23 31 41 4 17 11 31 17 31 6 0 8 -10 4 -24z m2121 -41 c-16 -8 -27 -8
-39 -1 -21 13 -22 20 -7 48 11 20 11 19 40 -8 l29 -27 -23 -12z m-1771 11 c-3
-13 -9 -31 -12 -40 -4 -12 0 -16 15 -16 12 0 21 -5 21 -11 0 -7 -9 -9 -22 -5
-13 3 -47 11 -75 17 -29 7 -53 17 -53 22 0 6 13 7 33 2 57 -12 60 -11 70 23
11 37 32 44 23 8z m2454 -53 c0 -14 -19 -38 -25 -32 -8 8 5 39 16 39 5 0 9 -3
9 -7z m-34 -80 c-11 -11 -19 6 -11 24 8 17 8 17 12 0 3 -10 2 -21 -1 -24z
m-1691 17 c3 -5 1 -10 -4 -10 -6 0 -11 5 -11 10 0 6 2 10 4 10 3 0 8 -4 11
-10z m289 -48 c3 -5 8 -28 12 -51 6 -37 5 -42 -11 -39 -21 4 -28 -24 -11 -47
10 -15 14 -15 41 -1 27 15 31 14 42 -1 7 -9 10 -20 6 -26 -3 -5 -8 -5 -13 2
-12 20 -40 1 -40 -28 0 -26 -16 -51 -31 -51 -11 0 -7 44 5 52 19 12 -2 20 -23
8 -22 -11 -28 -30 -11 -30 6 0 10 -9 10 -20 0 -25 -9 -25 -26 -2 -13 16 -15
16 -28 0 -19 -26 -26 -22 -22 12 2 16 1 32 -3 35 -3 4 -6 24 -6 46 0 30 5 41
19 45 10 4 22 0 26 -7 11 -18 40 6 40 33 0 10 5 16 10 13 12 -8 13 15 1 33 -7
12 -21 11 -86 -2 -89 -19 -95 -19 -95 -7 0 5 33 15 73 24 86 18 114 20 121 9z
m1401 -14 c13 -43 4 -100 -23 -141 -24 -36 -27 -49 -26 -133 0 -52 -3 -94 -8
-94 -4 0 -8 15 -8 34 0 44 -7 48 -49 30 -33 -14 -33 -15 -29 -64 6 -63 -7 -75
-16 -15 -4 25 -10 45 -14 45 -4 -1 -27 -19 -52 -40 l-45 -40 33 0 c38 0 42
-19 13 -67 -21 -34 -17 -44 27 -57 28 -9 29 -30 1 -23 -17 4 -19 3 -10 -6 18
-18 13 -29 -9 -17 -25 13 -27 -1 -2 -16 9 -5 34 -20 54 -33 l37 -22 48 71 c26
40 49 68 51 62 3 -11 -78 -142 -107 -171 -10 -10 -21 -25 -24 -32 -5 -12 -7
-12 -15 -1 -7 11 -10 10 -16 -3 -5 -14 -9 -15 -21 -5 -12 10 -15 7 -21 -14 -9
-37 -27 -33 -19 4 4 20 3 30 -5 30 -8 0 -11 10 -8 24 5 22 -6 29 -132 90 -131
63 -200 105 -172 106 7 0 23 -6 35 -14 20 -13 28 -11 90 27 38 23 64 43 58 45
-27 9 -7 20 27 15 36 -5 45 0 118 59 44 36 97 71 118 79 41 15 56 39 56 91 0
18 11 45 25 64 25 33 35 99 15 106 -11 3 -2 48 10 48 4 0 11 -10 15 -22z
m-1425 -12 c0 -3 -4 -8 -10 -11 -5 -3 -10 -1 -10 4 0 6 5 11 10 11 6 0 10 -2
10 -4z m346 -34 c-3 -5 -23 -17 -46 -27 -22 -10 -40 -25 -40 -33 0 -8 -6 -12
-15 -8 -8 3 -36 -8 -62 -24 -31 -20 -50 -27 -57 -20 -5 5 -8 11 -5 12 2 2 17
10 33 18 39 20 48 44 11 30 -32 -12 -35 -12 -35 -1 0 13 36 23 90 26 25 1 59
9 75 18 32 17 59 22 51 9z m129 -31 c-8 -13 -35 -15 -35 -2 0 5 8 11 18 13 21
5 26 2 17 -11z m-2128 -23 c-3 -8 -6 -5 -6 6 -1 11 2 17 5 13 3 -3 4 -12 1
-19z m-1773 -20 c-5 -7 -9 -17 -9 -23 0 -5 -8 -11 -17 -13 -10 -2 -18 2 -18 8
0 6 5 8 10 5 6 -3 10 0 10 7 0 15 21 40 28 33 2 -2 0 -10 -4 -17z m356 2 c0
-5 -2 -10 -4 -10 -3 0 -8 5 -11 10 -3 6 -1 10 4 10 6 0 11 -4 11 -10z m330
-15 c0 -12 -19 -12 -23 0 -4 9 -1 12 9 8 7 -3 14 -7 14 -8z m1177 -31 c15 -25
43 -63 61 -84 18 -21 32 -49 32 -63 0 -14 4 -37 10 -51 9 -24 14 -26 47 -21
35 6 42 2 87 -41 27 -26 45 -49 39 -51 -15 -5 -4 -74 15 -95 16 -19 48 -23 69
-10 6 4 26 34 45 66 18 33 39 61 47 64 19 6 -44 -106 -76 -135 -13 -13 -31
-23 -40 -23 -9 0 -13 -6 -10 -14 4 -10 1 -13 -9 -9 -8 3 -13 7 -11 10 3 2 -8
17 -24 33 -17 16 -30 41 -31 57 -1 15 -2 35 -3 44 0 9 -13 33 -29 54 -27 35
-31 37 -71 31 -51 -8 -60 1 -70 67 -5 31 -17 58 -34 76 -14 15 -39 49 -54 75
-16 25 -35 46 -43 46 -8 0 -14 5 -14 10 0 6 9 10 19 10 12 0 30 -17 48 -46z
m1016 9 c15 -14 33 -17 81 -15 l62 4 84 -127 c71 -107 81 -128 69 -139 -37
-34 -188 -156 -193 -156 -20 0 5 27 88 94 l95 77 -73 112 -74 112 -60 1 c-38
1 -71 7 -86 18 -28 18 -56 21 -56 6 0 -5 -5 -10 -10 -10 -7 0 -7 6 0 20 13 25
47 26 73 3z m-2803 3 c0 -3 -4 -8 -10 -11 -5 -3 -10 -1 -10 4 0 6 5 11 10 11
6 0 10 -2 10 -4z m-130 -26 c0 -11 -4 -20 -8 -20 -4 0 -8 9 -9 20 -1 11 2 20
8 20 5 0 9 -9 9 -20z m90 10 c0 -5 -5 -10 -11 -10 -5 0 -7 5 -4 10 3 6 8 10
11 10 2 0 4 -4 4 -10z m630 0 c0 -5 -4 -10 -10 -10 -5 0 -10 5 -10 10 0 6 5
10 10 10 6 0 10 -4 10 -10z m30 0 c0 -5 -2 -10 -4 -10 -3 0 -8 5 -11 10 -3 6
-1 10 4 10 6 0 11 -4 11 -10z m-783 -6 c-3 -3 -12 -4 -19 -1 -8 3 -5 6 6 6 11
1 17 -2 13 -5z m63 -4 c0 -5 -2 -10 -4 -10 -3 0 -8 5 -11 10 -3 6 -1 10 4 10
6 0 11 -4 11 -10z m660 0 c0 -5 -7 -10 -16 -10 -8 0 -12 5 -9 10 3 6 10 10 16
10 5 0 9 -4 9 -10z m-1115 -20 c3 -5 -1 -10 -9 -10 -9 0 -16 5 -16 10 0 6 4
10 9 10 6 0 13 -4 16 -10z m890 0 c3 -5 1 -10 -4 -10 -6 0 -11 5 -11 10 0 6 2
10 4 10 3 0 8 -4 11 -10z m295 2 c0 -5 -7 -9 -15 -9 -8 0 -15 4 -15 9 0 4 7 8
15 8 8 0 15 -4 15 -8z m-1150 -12 c0 -5 -2 -10 -4 -10 -3 0 -8 5 -11 10 -3 6
-1 10 4 10 6 0 11 -4 11 -10z m280 0 c0 -5 -4 -10 -10 -10 -5 0 -10 5 -10 10
0 6 5 10 10 10 6 0 10 -4 10 -10z m-210 -10 c0 -5 -4 -10 -10 -10 -5 0 -10 5
-10 10 0 6 5 10 10 10 6 0 10 -4 10 -10z m80 -20 c0 -16 -4 -30 -10 -30 -5 0
-10 14 -10 30 0 17 5 30 10 30 6 0 10 -13 10 -30z m27 10 c1 -11 -2 -20 -5
-20 -4 0 -8 9 -9 20 -1 11 2 20 5 20 4 0 8 -9 9 -20z m73 16 c0 -3 -4 -8 -10
-11 -5 -3 -10 -1 -10 4 0 6 5 11 10 11 6 0 10 -2 10 -4z m65 -6 c3 -5 2 -10
-4 -10 -5 0 -13 5 -16 10 -3 6 -2 10 4 10 5 0 13 -4 16 -10z m-415 -16 c0 -8
-4 -12 -10 -9 -5 3 -10 10 -10 16 0 5 5 9 10 9 6 0 10 -7 10 -16z m210 12 c0
-3 -4 -8 -10 -11 -5 -3 -10 -1 -10 4 0 6 5 11 10 11 6 0 10 -2 10 -4z m330 -6
c0 -5 -2 -10 -4 -10 -3 0 -8 5 -11 10 -3 6 -1 10 4 10 6 0 11 -4 11 -10z m570
0 c0 -5 -2 -10 -4 -10 -3 0 -8 5 -11 10 -3 6 -1 10 4 10 6 0 11 -4 11 -10z
m160 -6 c0 -14 -3 -14 -15 -4 -8 7 -15 14 -15 16 0 2 7 4 15 4 8 0 15 -7 15
-16z m-820 -4 c0 -5 -4 -10 -10 -10 -5 0 -10 -4 -10 -10 0 -5 7 -10 15 -10 8
0 15 -4 15 -10 0 -15 -19 -12 -36 5 -13 12 -13 17 -2 29 15 18 28 20 28 6z
m60 6 c0 -3 -4 -8 -10 -11 -5 -3 -10 -1 -10 4 0 6 5 11 10 11 6 0 10 -2 10 -4z
m460 -6 c0 -5 -2 -10 -4 -10 -3 0 -8 5 -11 10 -3 6 -1 10 4 10 6 0 11 -4 11
-10z m3258 -2 c14 -14 16 -42 2 -33 -14 9 -32 45 -22 45 4 0 13 -5 20 -12z
m-5808 -8 c0 -5 -2 -10 -4 -10 -3 0 -8 5 -11 10 -3 6 -1 10 4 10 6 0 11 -4 11
-10z m40 0 c0 -5 -4 -10 -10 -10 -5 0 -10 5 -10 10 0 6 5 10 10 10 6 0 10 -4
10 -10z m30 0 c0 -5 -5 -10 -11 -10 -5 0 -7 5 -4 10 3 6 8 10 11 10 2 0 4 -4
4 -10z m2860 6 c0 -11 -19 -15 -25 -6 -3 5 1 10 9 10 9 0 16 -2 16 -4z m30 -6
c0 -5 -5 -10 -11 -10 -5 0 -7 5 -4 10 3 6 8 10 11 10 2 0 4 -4 4 -10z m-2820
-10 c0 -5 -2 -10 -4 -10 -3 0 -8 5 -11 10 -3 6 -1 10 4 10 6 0 11 -4 11 -10z
m35 0 c3 -5 1 -10 -4 -10 -6 0 -11 5 -11 10 0 6 2 10 4 10 3 0 8 -4 11 -10z
m35 0 c0 -5 -4 -10 -10 -10 -5 0 -10 5 -10 10 0 6 5 10 10 10 6 0 10 -4 10
-10z m35 0 c3 -5 1 -10 -4 -10 -6 0 -11 5 -11 10 0 6 2 10 4 10 3 0 8 -4 11
-10z m35 0 c0 -5 -4 -10 -10 -10 -5 0 -10 5 -10 10 0 6 5 10 10 10 6 0 10 -4
10 -10z m35 0 c3 -5 1 -10 -4 -10 -6 0 -11 5 -11 10 0 6 2 10 4 10 3 0 8 -4
11 -10z m35 0 c0 -5 -4 -10 -10 -10 -5 0 -10 5 -10 10 0 6 5 10 10 10 6 0 10
-4 10 -10z m35 0 c3 -5 1 -10 -4 -10 -6 0 -11 5 -11 10 0 6 2 10 4 10 3 0 8
-4 11 -10z m35 0 c0 -5 -4 -10 -10 -10 -5 0 -10 5 -10 10 0 6 5 10 10 10 6 0
10 -4 10 -10z m35 0 c3 -5 1 -10 -4 -10 -6 0 -11 5 -11 10 0 6 2 10 4 10 3 0
8 -4 11 -10z m35 0 c0 -5 -4 -10 -10 -10 -5 0 -10 5 -10 10 0 6 5 10 10 10 6
0 10 -4 10 -10z m140 1 c0 -5 -9 -7 -20 -4 -11 3 -20 7 -20 9 0 2 9 4 20 4 11
0 20 -4 20 -9z m40 -1 c0 -5 -4 -10 -10 -10 -5 0 -10 5 -10 10 0 6 5 10 10 10
6 0 10 -4 10 -10z m40 0 c0 -5 -7 -10 -16 -10 -8 0 -12 5 -9 10 3 6 10 10 16
10 5 0 9 -4 9 -10z m40 0 c0 -5 -4 -10 -10 -10 -5 0 -10 5 -10 10 0 6 5 10 10
10 6 0 10 -4 10 -10z m70 0 c0 -5 -4 -10 -10 -10 -5 0 -10 5 -10 10 0 6 5 10
10 10 6 0 10 -4 10 -10z m30 0 c0 -5 -5 -10 -11 -10 -5 0 -7 5 -4 10 3 6 8 10
11 10 2 0 4 -4 4 -10z m40 0 c0 -5 -4 -10 -10 -10 -5 0 -10 5 -10 10 0 6 5 10
10 10 6 0 10 -4 10 -10z m30 0 c0 -5 -5 -10 -11 -10 -5 0 -7 5 -4 10 3 6 8 10
11 10 2 0 4 -4 4 -10z m50 0 c0 -5 -7 -10 -15 -10 -8 0 -15 5 -15 10 0 6 7 10
15 10 8 0 15 -4 15 -10z m830 0 c0 -5 -5 -10 -11 -10 -5 0 -7 5 -4 10 3 6 8
10 11 10 2 0 4 -4 4 -10z m260 0 c0 -5 -2 -10 -4 -10 -3 0 -8 5 -11 10 -3 6
-1 10 4 10 6 0 11 -4 11 -10z m540 -12 c0 -13 -32 -6 -37 9 -3 7 3 9 16 6 12
-3 21 -10 21 -15z m30 12 c0 -5 -4 -10 -10 -10 -5 0 -10 5 -10 10 0 6 5 10 10
10 6 0 10 -4 10 -10z m370 6 c0 -3 -4 -8 -10 -11 -5 -3 -10 -1 -10 4 0 6 5 11
10 11 6 0 10 -2 10 -4z m-2475 -16 c3 -5 1 -10 -4 -10 -6 0 -11 5 -11 10 0 6
2 10 4 10 3 0 8 -4 11 -10z m545 0 c0 -5 -2 -10 -4 -10 -3 0 -8 5 -11 10 -3 6
-1 10 4 10 6 0 11 -4 11 -10z m40 6 c0 -3 -4 -8 -10 -11 -5 -3 -10 -1 -10 4 0
6 5 11 10 11 6 0 10 -2 10 -4z m30 -6 c0 -5 -2 -10 -4 -10 -3 0 -8 5 -11 10
-3 6 -1 10 4 10 6 0 11 -4 11 -10z m40 6 c0 -3 -4 -8 -10 -11 -5 -3 -10 -1
-10 4 0 6 5 11 10 11 6 0 10 -2 10 -4z m30 -6 c0 -5 -2 -10 -4 -10 -3 0 -8 5
-11 10 -3 6 -1 10 4 10 6 0 11 -4 11 -10z m40 0 c0 -5 -4 -10 -10 -10 -5 0
-10 5 -10 10 0 6 5 10 10 10 6 0 10 -4 10 -10z m30 0 c0 -5 -2 -10 -4 -10 -3
0 -8 5 -11 10 -3 6 -1 10 4 10 6 0 11 -4 11 -10z m40 0 c0 -5 -4 -10 -10 -10
-5 0 -10 5 -10 10 0 6 5 10 10 10 6 0 10 -4 10 -10z m30 0 c0 -5 -2 -10 -4
-10 -3 0 -8 5 -11 10 -3 6 -1 10 4 10 6 0 11 -4 11 -10z m40 0 c0 -5 -4 -10
-10 -10 -5 0 -10 5 -10 10 0 6 5 10 10 10 6 0 10 -4 10 -10z m30 0 c0 -5 -2
-10 -4 -10 -3 0 -8 5 -11 10 -3 6 -1 10 4 10 6 0 11 -4 11 -10z m90 0 c0 -5
-4 -10 -10 -10 -5 0 -10 5 -10 10 0 6 5 10 10 10 6 0 10 -4 10 -10z m65 0 c-3
-5 -15 -10 -26 -10 -10 0 -19 5 -19 10 0 6 12 10 26 10 14 0 23 -4 19 -10z
m392 4 c-3 -3 -12 -4 -19 -1 -8 3 -5 6 6 6 11 1 17 -2 13 -5z m923 -15 c0 -5
-4 -9 -10 -9 -5 0 -10 7 -10 16 0 8 5 12 10 9 6 -3 10 -10 10 -16z m130 1 c0
-5 -5 -10 -11 -10 -5 0 -7 5 -4 10 3 6 8 10 11 10 2 0 4 -4 4 -10z m60 -30 c0
-5 -4 -10 -10 -10 -5 0 -10 5 -10 10 0 6 5 10 10 10 6 0 10 -4 10 -10z m50 -4
c0 -2 -7 -6 -15 -10 -8 -3 -15 -1 -15 4 0 6 7 10 15 10 8 0 15 -2 15 -4z
m1716 -13 c-13 -34 -98 -163 -108 -163 -13 0 -12 1 47 98 28 45 54 82 59 82 4
0 5 -7 2 -17z m-1694 0 c-6 -2 -10 -9 -6 -14 3 -5 -2 -9 -10 -9 -9 0 -16 4
-16 9 0 10 18 19 35 19 6 0 4 -2 -3 -5z m238 -3 c0 -5 -4 -10 -10 -10 -5 0
-10 5 -10 10 0 6 5 10 10 10 6 0 10 -4 10 -10z m325 -45 c-56 -49 -110 -67
-193 -63 -36 2 -51 7 -47 15 2 7 0 15 -4 17 -10 7 -2 56 10 56 4 0 9 -12 11
-27 7 -63 116 -56 205 12 32 24 60 41 63 38 3 -3 -17 -25 -45 -48z m525 -15
c0 -5 -2 -10 -4 -10 -3 0 -8 5 -11 10 -3 6 -1 10 4 10 6 0 11 -4 11 -10z
m-930 -20 c0 -5 -4 -10 -10 -10 -5 0 -10 5 -10 10 0 6 5 10 10 10 6 0 10 -4
10 -10z m1345 -20 c3 -5 -20 -16 -52 -25 -32 -8 -71 -20 -87 -25 -16 -5 -32
-7 -35 -4 -10 10 31 34 58 35 14 0 42 6 61 13 45 18 48 18 55 6z m35 -20 c0
-5 -4 -10 -10 -10 -5 0 -10 5 -10 10 0 6 5 10 10 10 6 0 10 -4 10 -10z m-1210
-30 c0 -5 -4 -10 -10 -10 -5 0 -10 5 -10 10 0 6 5 10 10 10 6 0 10 -4 10 -10z
m-1830 -20 c8 -5 12 -12 9 -15 -8 -8 -39 5 -39 16 0 11 11 11 30 -1z m-50 -10
c0 -5 -12 -10 -27 -10 -22 0 -25 2 -13 10 20 13 40 13 40 0z m1860 6 c0 -3 -4
-8 -10 -11 -5 -3 -10 -1 -10 4 0 6 5 11 10 11 6 0 10 -2 10 -4z m-1756 -12
c22 -9 10 -23 -14 -17 -11 3 -17 9 -14 14 6 11 8 11 28 3z m63 -21 c3 -7 -3
-9 -16 -6 -12 3 -21 10 -21 15 0 13 32 6 37 -9z m2883 11 c0 -19 -26 -47 -60
-64 -44 -22 -50 -24 -50 -12 0 5 16 16 35 25 19 9 40 26 47 37 12 19 28 27 28
14z m-1215 -14 c-3 -5 -11 -10 -16 -10 -6 0 -7 5 -4 10 3 6 11 10 16 10 6 0 7
-4 4 -10z m-1609 -27 c-8 -8 -36 5 -36 17 0 7 6 7 21 0 11 -7 18 -14 15 -17z
m2870 0 c-4 -9 -29 -53 -56 -99 -51 -83 -72 -144 -51 -144 6 0 11 -5 11 -11 0
-6 -7 -9 -15 -5 -18 7 -19 -11 -3 -105 9 -57 14 -69 27 -64 30 12 33 10 48
-38 l14 -48 -62 -101 c-35 -56 -65 -96 -67 -90 -2 6 21 52 51 102 50 82 54 94
46 123 -5 17 -9 32 -9 33 0 1 -18 0 -41 -1 -30 -2 -49 -10 -74 -35 -18 -18
-37 -30 -42 -27 -5 3 -16 25 -23 48 -11 32 -11 44 -2 47 6 2 32 23 58 47 42
41 46 48 49 97 1 29 6 62 10 73 15 39 120 215 129 215 4 0 5 -7 2 -17z m-2776
-3 c0 -5 -4 -10 -10 -10 -5 0 -10 5 -10 10 0 6 5 10 10 10 6 0 10 -4 10 -10z
m1530 0 c0 -5 -4 -10 -10 -10 -5 0 -10 5 -10 10 0 6 5 10 10 10 6 0 10 -4 10
-10z m-1570 -12 c0 -4 -9 -8 -20 -8 -11 0 -20 4 -20 9 0 6 9 9 20 8 11 -1 20
-5 20 -9z m1573 -36 c-4 -9 -13 -28 -20 -42 -7 -14 -13 -31 -13 -37 0 -7 -5
-13 -12 -13 -6 0 -8 -3 -5 -7 4 -3 2 -11 -3 -18 -7 -9 13 -31 73 -78 106 -85
167 -143 167 -156 0 -6 4 -11 9 -11 5 0 12 -15 15 -32 l7 -33 22 28 c13 15 28
27 35 27 7 0 12 5 12 10 0 6 6 10 14 10 8 0 17 6 20 13 5 10 7 10 12 0 8 -19
24 -16 24 5 0 14 2 15 10 2 8 -12 10 -12 16 3 4 10 13 16 20 13 8 -3 14 -1 14
5 0 6 6 9 14 6 7 -3 19 0 25 6 6 6 11 7 11 3 0 -5 6 -4 13 2 17 14 167 55 175
48 9 -10 -4 -17 -60 -30 -29 -8 -97 -32 -150 -55 -53 -22 -103 -39 -110 -36
-13 5 -70 -45 -99 -85 l-15 -23 -28 47 c-15 25 -25 50 -22 55 7 10 -49 64 -70
67 -21 3 -54 34 -54 50 0 18 -58 64 -74 58 -13 -5 -76 21 -76 30 0 2 13 30 29
62 16 33 36 76 45 97 15 37 42 45 29 9z m1637 19 c0 -5 -7 -11 -14 -14 -10 -4
-13 -1 -9 9 6 15 23 19 23 5z m-1400 -21 c0 -5 -2 -10 -4 -10 -3 0 -8 5 -11
10 -3 6 -1 10 4 10 6 0 11 -4 11 -10z m-100 -10 c0 -5 -2 -10 -4 -10 -3 0 -8
5 -11 10 -3 6 -1 10 4 10 6 0 11 -4 11 -10z m-75 -10 c3 -5 1 -10 -4 -10 -6 0
-11 5 -11 10 0 6 2 10 4 10 3 0 8 -4 11 -10z m275 0 c0 -5 -4 -10 -10 -10 -5
0 -10 5 -10 10 0 6 5 10 10 10 6 0 10 -4 10 -10z m40 6 c0 -11 -19 -15 -25 -6
-3 5 1 10 9 10 9 0 16 -2 16 -4z m1405 -221 c-42 -106 -80 -195 -85 -197 -12
-5 -118 -356 -122 -407 l-3 -43 83 -30 c46 -17 85 -28 88 -26 2 3 26 61 53
129 57 143 60 131 -51 181 -38 17 -68 35 -68 39 0 13 1 12 73 -20 65 -29 87
-28 87 6 0 7 5 13 11 13 5 0 9 -10 7 -22 -2 -17 4 -23 30 -30 31 -8 42 -30 22
-43 -5 -3 -10 1 -10 10 0 9 -6 15 -12 13 -11 -4 -118 -260 -118 -283 0 -5 64
-36 143 -67 78 -31 198 -80 267 -108 135 -56 279 -110 292 -110 4 0 14 15 21
33 8 17 25 54 37 81 21 43 24 46 31 27 12 -31 26 -26 49 20 19 37 24 40 48 33
15 -4 42 -8 60 -8 32 -1 39 -8 68 -64 11 -21 -5 -27 -20 -7 -13 18 -14 17 -30
-13 -11 -21 -21 -29 -32 -25 -8 3 -13 12 -10 20 3 8 6 19 6 24 0 4 7 6 15 3
10 -4 15 0 15 11 0 9 -4 13 -10 10 -5 -3 -10 -2 -10 3 0 8 -50 32 -66 32 -2 0
-11 -14 -20 -32 -16 -31 -16 -32 5 -49 14 -12 18 -20 10 -24 -6 -4 -16 -2 -22
4 -18 18 -25 13 -32 -21 -4 -18 -14 -41 -22 -50 -18 -20 -9 -38 18 -38 10 0
19 -6 19 -12 0 -7 45 -31 99 -54 l99 -41 50 126 c28 69 71 182 97 251 47 124
65 159 65 128 0 -15 -102 -284 -168 -445 l-30 -71 21 -7 c12 -4 28 -6 35 -6 6
1 12 -3 12 -8 0 -6 7 -8 15 -5 8 4 15 1 15 -6 0 -7 8 -9 21 -5 14 5 19 3 15
-3 -3 -6 15 -20 41 -32 27 -13 55 -26 64 -30 12 -6 20 -2 29 15 7 14 17 22 22
19 4 -3 3 -14 -3 -25 -6 -11 -8 -27 -5 -35 3 -8 2 -14 -2 -14 -4 0 -66 27
-139 60 -72 33 -139 60 -149 60 -9 0 -22 6 -28 14 -12 16 -150 74 -406 171
-91 34 -173 66 -183 70 -13 6 -18 1 -23 -24 -9 -43 -26 -39 -22 5 3 35 2 36
-62 63 l-65 28 -2 -33 c-1 -18 -9 -44 -18 -57 -14 -23 -20 -24 -46 -15 -16 5
-29 12 -29 14 0 8 33 58 53 80 l18 22 -128 50 c-168 67 -295 113 -298 110 -1
-2 -8 -14 -15 -28 -27 -52 -67 -94 -125 -131 -38 -25 -63 -35 -69 -29 -17 17
-99 11 -145 -10 -24 -11 -46 -18 -49 -16 -10 10 66 46 109 52 37 5 52 13 70
38 13 17 22 37 21 44 -2 6 4 12 12 12 8 0 34 27 57 60 23 33 45 60 50 60 4 0
20 -5 35 -10 31 -12 43 -1 44 40 1 33 116 401 128 409 6 3 40 83 77 176 91
231 87 222 92 207 3 -7 -29 -100 -72 -207z m-215 195 c0 -5 -5 -10 -11 -10 -5
0 -7 5 -4 10 3 6 8 10 11 10 2 0 4 -4 4 -10z m-1477 -14 c4 -10 1 -13 -9 -9
-15 6 -19 23 -5 23 5 0 11 -7 14 -14z m-833 -56 c0 -13 -20 -13 -40 0 -12 8
-9 10 13 10 15 0 27 -4 27 -10z m-1416 -17 c-21 -15 -34 -17 -34 -4 0 10 17
18 39 18 9 0 8 -4 -5 -14z m-109 -23 c3 -5 -3 -10 -14 -10 -12 0 -21 5 -21 10
0 6 6 10 14 10 8 0 18 -4 21 -10z m55 1 c0 -5 -7 -12 -16 -15 -24 -9 -28 -7
-14 9 14 17 30 20 30 6z m2850 -7 c0 -8 -4 -12 -10 -9 -5 3 -10 10 -10 16 0 5
5 9 10 9 6 0 10 -7 10 -16z m-2960 -3 c0 -5 -9 -11 -20 -14 -20 -5 -26 3 -13
16 9 10 33 8 33 -2z m-60 -10 c0 -5 -9 -11 -20 -14 -22 -6 -28 8 -7 16 19 8
27 8 27 -2z m3160 5 c0 -3 -4 -8 -10 -11 -5 -3 -10 -1 -10 4 0 6 5 11 10 11 6
0 10 -2 10 -4z m-3225 -35 c-3 -6 -14 -11 -23 -11 -15 1 -15 2 2 15 21 16 32
13 21 -4z m3215 -1 c0 -5 -4 -10 -10 -10 -5 0 -10 5 -10 10 0 6 5 10 10 10 6
0 10 -4 10 -10z m520 2 c0 -4 -9 -13 -20 -20 -23 -14 -26 -8 -7 13 13 16 27
19 27 7z m1490 -2 c0 -5 -4 -10 -10 -10 -5 0 -10 5 -10 10 0 6 5 10 10 10 6 0
10 -4 10 -10z m-5270 -19 c0 -11 -31 -24 -39 -16 -3 3 1 10 9 15 19 12 30 12
30 1z m3240 -11 c0 -5 -2 -10 -4 -10 -3 0 -8 5 -11 10 -3 6 -1 10 4 10 6 0 11
-4 11 -10z m405 0 c3 -5 1 -10 -4 -10 -6 0 -11 5 -11 10 0 6 2 10 4 10 3 0 8
-4 11 -10z m-3709 -28 c-8 -9 -19 -13 -22 -9 -10 9 16 38 28 31 6 -4 4 -13 -6
-22z m5299 18 c3 -5 15 -10 26 -10 10 0 19 -4 19 -10 0 -5 -11 -10 -24 -10
-19 0 -31 -12 -55 -54 -17 -29 -31 -58 -31 -64 0 -5 16 -13 35 -16 19 -4 35
-11 35 -16 0 -8 -42 -5 -77 6 -21 6 -15 34 20 98 19 34 32 67 30 74 -5 14 13
16 22 2z m-5335 -55 c-7 -8 -17 -15 -22 -15 -6 0 -5 7 2 15 7 8 17 15 22 15 6
0 5 -7 -2 -15z m3342 -27 c-7 -7 -12 -8 -12 -2 0 6 3 14 7 17 3 4 9 5 12 2 2
-3 -1 -11 -7 -17z m-3397 -15 c-20 -14 -35 -17 -35 -7 0 12 35 32 44 27 5 -4
1 -12 -9 -20z m3225 7 c0 -5 -4 -10 -10 -10 -5 0 -10 5 -10 10 0 6 5 10 10 10
6 0 10 -4 10 -10z m70 0 c0 -5 -4 -10 -10 -10 -5 0 -10 5 -10 10 0 6 5 10 10
10 6 0 10 -4 10 -10z m40 6 c0 -3 -4 -8 -10 -11 -5 -3 -10 -1 -10 4 0 6 5 11
10 11 6 0 10 -2 10 -4z m1256 -31 c4 -17 1 -32 -9 -43 -9 -9 -19 -29 -22 -44
-4 -16 -11 -28 -15 -28 -17 0 -40 13 -40 22 0 6 7 7 15 4 10 -3 18 1 22 11 4
9 1 19 -5 21 -23 7 -12 32 14 32 23 0 26 3 22 25 -7 33 10 32 18 0z m-1426 1
c0 -3 -4 -8 -10 -11 -5 -3 -10 -1 -10 4 0 6 5 11 10 11 6 0 10 -2 10 -4z
m1474 -12 c4 -10 13 -13 26 -9 25 8 26 -3 3 -21 -17 -13 -17 -15 -1 -24 15 -9
19 -48 5 -42 -4 1 -11 2 -15 2 -5 0 -14 10 -20 23 -6 12 -11 16 -11 10 -1 -15
-41 -18 -41 -4 0 21 13 40 23 34 7 -4 8 0 4 11 -7 19 -1 36 13 36 4 0 11 -7
14 -16z m-1504 -8 c0 -3 -4 -8 -10 -11 -5 -3 -10 -1 -10 4 0 6 5 11 10 11 6 0
10 -2 10 -4z m-44 -31 c-26 -19 -42 -19 -26 0 7 8 20 15 29 15 13 -1 13 -3 -3
-15z m1194 5 c0 -5 -4 -10 -9 -10 -6 0 -13 5 -16 10 -3 6 1 10 9 10 9 0 16 -4
16 -10z m30 -10 c0 -5 -4 -10 -10 -10 -5 0 -10 5 -10 10 0 6 5 10 10 10 6 0
10 -4 10 -10z m-5125 -20 c3 -5 1 -10 -4 -10 -6 0 -11 5 -11 10 0 6 2 10 4 10
3 0 8 -4 11 -10z m5205 -6 c0 -2 -7 -4 -15 -4 -8 0 -15 4 -15 10 0 5 7 7 15 4
8 -4 15 -8 15 -10z m-5183 -16 c-3 -8 -6 -5 -6 6 -1 11 2 17 5 13 3 -3 4 -12
1 -19z m3833 12 c0 -5 -4 -10 -10 -10 -5 0 -10 -7 -10 -15 0 -8 -4 -15 -10
-15 -13 0 -13 6 2 30 14 21 28 26 28 10z m940 -25 c13 -14 29 -25 36 -25 9 0
7 -14 -8 -51 l-22 -51 24 -18 c12 -9 19 -20 14 -23 -11 -6 -54 27 -54 42 0 6
-4 11 -10 11 -5 0 -10 9 -10 20 0 11 -7 20 -15 20 -18 0 -20 16 -2 23 9 4 8 8
-3 16 -10 7 -11 11 -2 11 6 0 12 5 12 11 0 5 -4 7 -10 4 -14 -9 -12 3 3 20 17
19 20 19 47 -10z m613 -9 c3 -8 -1 -17 -10 -20 -20 -8 -27 -1 -20 19 8 19 23
20 30 1z m54 -23 c20 -16 0 -25 -22 -9 -13 9 -16 19 -10 32 6 15 8 16 12 4 3
-8 12 -20 20 -27z m-5447 17 c0 -5 -5 -10 -11 -10 -5 0 -7 5 -4 10 3 6 8 10
11 10 2 0 4 -4 4 -10z m5340 -9 c0 -5 -7 -16 -15 -24 -8 -8 -12 -17 -9 -20 9
-9 -7 -48 -17 -41 -5 3 -6 10 -3 16 4 6 0 17 -10 23 -22 17 -10 48 15 40 11
-4 19 -2 19 4 0 6 5 11 10 11 6 0 10 -4 10 -9z m-5354 -38 c-10 -10 -19 5 -10
18 6 11 8 11 12 0 2 -7 1 -15 -2 -18z m5387 -19 c-5 -14 -25 -19 -36 -8 -3 4
-2 15 4 26 8 15 13 17 24 8 8 -6 11 -18 8 -26z m56 -4 c6 0 8 -7 5 -15 -4 -8
-14 -15 -24 -15 -10 0 -20 -7 -24 -15 -6 -16 -26 -21 -26 -6 0 5 7 17 16 26 9
9 14 19 11 22 -4 3 -1 15 5 26 l11 21 8 -22 c5 -12 13 -22 18 -22z m-1619 10
c0 -5 -4 -10 -10 -10 -5 0 -10 5 -10 10 0 6 5 10 10 10 6 0 10 -4 10 -10z
m-2763 -22 c-3 -8 -6 -5 -6 6 -1 11 2 17 5 13 3 -3 4 -12 1 -19z m-557 2 c0
-5 -5 -10 -11 -10 -5 0 -7 5 -4 10 3 6 8 10 11 10 2 0 4 -4 4 -10z m-480 -16
c0 -2 -7 -4 -15 -4 -8 0 -15 4 -15 10 0 5 7 7 15 4 8 -4 15 -8 15 -10z m3820
-4 c0 -5 -4 -10 -10 -10 -5 0 -10 5 -10 10 0 6 5 10 10 10 6 0 10 -4 10 -10z
m1520 2 c0 -5 -7 -17 -15 -28 -15 -19 -20 -8 -9 20 6 17 24 22 24 8z m-5310
-12 c0 -5 -4 -10 -10 -10 -5 0 -10 5 -10 10 0 6 5 10 10 10 6 0 10 -4 10 -10z
m360 6 c0 -3 -4 -8 -10 -11 -5 -3 -10 -1 -10 4 0 6 5 11 10 11 6 0 10 -2 10
-4z m650 -6 c0 -5 -5 -10 -11 -10 -5 0 -7 5 -4 10 3 6 8 10 11 10 2 0 4 -4 4
-10z m-930 -10 c0 -5 -4 -10 -10 -10 -5 0 -10 5 -10 10 0 6 5 10 10 10 6 0 10
-4 10 -10z m30 0 c0 -5 -4 -10 -10 -10 -5 0 -10 5 -10 10 0 6 5 10 10 10 6 0
10 -4 10 -10z m330 0 c0 -5 -2 -10 -4 -10 -3 0 -8 5 -11 10 -3 6 -1 10 4 10 6
0 11 -4 11 -10z m-400 -4 c0 -11 -19 -15 -25 -6 -3 5 1 10 9 10 9 0 16 -2 16
-4z m3770 -6 c0 -5 -2 -10 -4 -10 -3 0 -8 5 -11 10 -3 6 -1 10 4 10 6 0 11 -4
11 -10z m-3470 -10 c0 -5 -4 -10 -10 -10 -5 0 -10 5 -10 10 0 6 5 10 10 10 6
0 10 -4 10 -10z m-215 -10 c3 -5 1 -10 -4 -10 -6 0 -11 5 -11 10 0 6 2 10 4
10 3 0 8 -4 11 -10z m885 0 c0 -5 -4 -10 -10 -10 -5 0 -10 5 -10 10 0 6 5 10
10 10 6 0 10 -4 10 -10z m2820 -10 c0 -5 -2 -10 -4 -10 -3 0 -8 5 -11 10 -3 6
-1 10 4 10 6 0 11 -4 11 -10z m-3811 -21 c-14 -27 -26 -31 -43 -13 -24 23 -20
30 18 30 30 0 33 -2 25 -17z m311 11 c0 -5 -4 -10 -10 -10 -5 0 -10 5 -10 10
0 6 5 10 10 10 6 0 10 -4 10 -10z m675 -10 c3 -5 1 -10 -4 -10 -6 0 -11 5 -11
10 0 6 2 10 4 10 3 0 8 -4 11 -10z m-690 -20 c3 -5 1 -10 -4 -10 -6 0 -11 5
-11 10 0 6 2 10 4 10 3 0 8 -4 11 -10z m-155 -16 c0 -8 -5 -12 -10 -9 -6 4 -8
11 -5 16 9 14 15 11 15 -7z m3715 6 c3 -5 1 -10 -4 -10 -6 0 -11 5 -11 10 0 6
2 10 4 10 3 0 8 -4 11 -10z m-3455 -10 c0 -5 -4 -10 -10 -10 -5 0 -10 5 -10
10 0 6 5 10 10 10 6 0 10 -4 10 -10z m590 0 c0 -5 -4 -10 -10 -10 -5 0 -10 5
-10 10 0 6 5 10 10 10 6 0 10 -4 10 -10z m-700 -14 c0 -3 -4 -8 -10 -11 -5 -3
-10 -1 -10 4 0 6 5 11 10 11 6 0 10 -2 10 -4z m3590 -6 c0 -5 -2 -10 -4 -10
-3 0 -8 5 -11 10 -3 6 -1 10 4 10 6 0 11 -4 11 -10z m-3490 -10 c0 -5 -5 -10
-11 -10 -5 0 -7 5 -4 10 3 6 8 10 11 10 2 0 4 -4 4 -10z m600 0 c0 -5 -5 -10
-11 -10 -5 0 -7 5 -4 10 3 6 8 10 11 10 2 0 4 -4 4 -10z m750 -20 c-19 -12
-30 -12 -30 -1 0 10 31 20 40 14 2 -2 -2 -8 -10 -13z m2327 7 c4 -8 25 -33 45
-57 l37 -43 65 52 c62 48 87 61 86 44 -1 -8 -62 -55 -130 -102 -19 -13 -67
-50 -107 -82 -39 -32 -74 -59 -77 -59 -19 0 3 25 68 77 l74 60 -43 54 c-25 30
-44 57 -45 62 0 12 18 8 27 -6z m-3687 -27 c0 -5 -2 -10 -4 -10 -3 0 -8 5 -11
10 -3 6 -1 10 4 10 6 0 11 -4 11 -10z m3545 0 c3 -5 1 -10 -4 -10 -6 0 -11 5
-11 10 0 6 2 10 4 10 3 0 8 -4 11 -10z m-627 -20 c10 -16 10 -20 -2 -20 -7 0
-16 9 -19 20 -3 11 -2 20 2 20 3 0 12 -9 19 -20z m3322 -3 c0 -18 -27 -53 -35
-45 -4 3 1 18 10 32 19 29 25 32 25 13z m-6250 -7 c0 -5 -5 -10 -11 -10 -5 0
-7 5 -4 10 3 6 8 10 11 10 2 0 4 -4 4 -10z m625 0 c3 -5 1 -10 -4 -10 -6 0
-11 5 -11 10 0 6 2 10 4 10 3 0 8 -4 11 -10z m2353 -4 c-7 -8 -17 -12 -22 -9
-4 3 -2 9 5 14 22 13 31 11 17 -5z m602 4 c0 -5 -4 -10 -10 -10 -5 0 -10 5
-10 10 0 6 5 10 10 10 6 0 10 -4 10 -10z m-2230 -10 c0 -5 -4 -10 -10 -10 -5
0 -10 5 -10 10 0 6 5 10 10 10 6 0 10 -4 10 -10z m35 0 c3 -5 1 -10 -4 -10 -6
0 -11 5 -11 10 0 6 2 10 4 10 3 0 8 -4 11 -10z m1685 0 c0 -5 -4 -10 -10 -10
-5 0 -10 5 -10 10 0 6 5 10 10 10 6 0 10 -4 10 -10z m-3180 -4 c0 -3 -4 -8
-10 -11 -5 -3 -10 -1 -10 4 0 6 5 11 10 11 6 0 10 -2 10 -4z m439 -23 c14 -27
9 -29 -14 -7 -12 13 -19 14 -28 5 -6 -6 -17 -11 -25 -11 -23 0 5 28 31 32 27
5 22 7 36 -19z m581 17 c0 -5 -2 -10 -4 -10 -3 0 -8 5 -11 10 -3 6 -1 10 4 10
6 0 11 -4 11 -10z m5130 -6 c0 -8 -4 -12 -10 -9 -5 3 -10 10 -10 16 0 5 5 9
10 9 6 0 10 -7 10 -16z m-5160 -4 c0 -5 -4 -10 -10 -10 -5 0 -10 5 -10 10 0 6
5 10 10 10 6 0 10 -4 10 -10z m777 -21 c4 -21 8 -26 14 -18 11 18 21 6 13 -15
-7 -18 -13 -19 -30 -8 -15 10 -26 72 -13 72 5 0 12 -14 16 -31z m1943 21 c0
-5 -2 -10 -4 -10 -3 0 -8 5 -11 10 -3 6 -1 10 4 10 6 0 11 -4 11 -10z m-2970
-10 c0 -5 -2 -10 -4 -10 -3 0 -8 5 -11 10 -3 6 -1 10 4 10 6 0 11 -4 11 -10z
m220 0 c0 -5 -4 -10 -10 -10 -5 0 -10 5 -10 10 0 6 5 10 10 10 6 0 10 -4 10
-10z m690 -11 c0 -6 -4 -7 -10 -4 -5 3 -10 11 -10 16 0 6 5 7 10 4 6 -3 10
-11 10 -16z m140 11 c0 -5 -2 -10 -4 -10 -3 0 -8 5 -11 10 -3 6 -1 10 4 10 6
0 11 -4 11 -10z m-1800 -10 c0 -5 -4 -10 -10 -10 -5 0 -10 5 -10 10 0 6 5 10
10 10 6 0 10 -4 10 -10z m935 0 c3 -5 1 -10 -4 -10 -6 0 -11 5 -11 10 0 6 2
10 4 10 3 0 8 -4 11 -10z m2805 0 c0 -5 -5 -10 -11 -10 -5 0 -7 5 -4 10 3 6 8
10 11 10 2 0 4 -4 4 -10z m-2840 -10 c0 -5 -5 -10 -11 -10 -5 0 -7 5 -4 10 3
6 8 10 11 10 2 0 4 -4 4 -10z m-790 -4 c0 -3 -4 -8 -10 -11 -5 -3 -10 -1 -10
4 0 6 5 11 10 11 6 0 10 -2 10 -4z m760 -6 c0 -5 -4 -10 -10 -10 -5 0 -10 5
-10 10 0 6 5 10 10 10 6 0 10 -4 10 -10z m810 -10 c0 -5 -4 -10 -10 -10 -5 0
-10 5 -10 10 0 6 5 10 10 10 6 0 10 -4 10 -10z m-880 -10 c0 -5 -4 -10 -10
-10 -5 0 -10 5 -10 10 0 6 5 10 10 10 6 0 10 -4 10 -10z m-700 -10 c0 -5 -5
-10 -11 -10 -5 0 -7 5 -4 10 3 6 8 10 11 10 2 0 4 -4 4 -10z m670 0 c0 -5 -4
-10 -10 -10 -5 0 -10 5 -10 10 0 6 5 10 10 10 6 0 10 -4 10 -10z m1023 -15
c10 -7 17 -22 15 -32 -2 -10 5 -26 15 -36 16 -16 21 -73 6 -82 -14 -9 -68 -6
-159 9 -52 9 -112 16 -132 16 -21 0 -38 5 -38 10 0 9 61 16 85 10 14 -4 178
-30 189 -30 5 0 3 7 -4 15 -7 9 -10 18 -7 21 9 9 28 -6 36 -28 6 -16 9 -17 18
-6 7 8 7 21 2 36 -7 20 -14 22 -42 17 -29 -6 -36 -3 -51 19 -18 28 -7 36 14
11 7 -8 18 -15 25 -15 16 0 29 31 17 39 -12 8 -23 41 -14 41 4 0 15 -7 25 -15z
m1997 11 c0 -3 -4 -8 -10 -11 -5 -3 -10 -1 -10 4 0 6 5 11 10 11 6 0 10 -2 10
-4z m-3780 -16 c0 -5 -2 -10 -4 -10 -3 0 -8 5 -11 10 -3 6 -1 10 4 10 6 0 11
-4 11 -10z m4445 -10 c-3 -5 -11 -10 -17 -10 -15 0 -37 -31 -38 -52 0 -25 -20
-23 -22 2 -4 52 -3 55 27 61 46 10 57 10 50 -1z m-4365 -10 c0 -5 -2 -10 -4
-10 -3 0 -8 5 -11 10 -3 6 -1 10 4 10 6 0 11 -4 11 -10z m5730 5 c0 -12 -35
-75 -42 -75 -11 0 -10 4 9 45 14 29 33 47 33 30z m-1465 -15 c3 -5 1 -10 -4
-10 -6 0 -11 5 -11 10 0 6 2 10 4 10 3 0 8 -4 11 -10z m-3715 -10 c0 -5 -4
-10 -10 -10 -5 0 -10 5 -10 10 0 6 5 10 10 10 6 0 10 -4 10 -10z m3190 0 c0
-5 -4 -10 -10 -10 -5 0 -10 5 -10 10 0 6 5 10 10 10 6 0 10 -4 10 -10z m490 0
c0 -5 -4 -10 -10 -10 -5 0 -10 5 -10 10 0 6 5 10 10 10 6 0 10 -4 10 -10z
m160 0 c0 -5 -2 -10 -4 -10 -3 0 -8 5 -11 10 -3 6 -1 10 4 10 6 0 11 -4 11
-10z m-4400 -10 c0 -5 -5 -10 -11 -10 -5 0 -7 5 -4 10 3 6 8 10 11 10 2 0 4
-4 4 -10z m3028 -5 c7 -13 14 -14 36 -5 36 13 35 14 32 -15 -4 -31 -24 -55
-41 -49 -7 3 -16 1 -19 -5 -4 -6 -13 -8 -21 -4 -9 3 -15 -1 -15 -11 0 -9 -4
-16 -9 -16 -9 0 -21 48 -21 86 0 25 15 33 23 12 3 -8 6 -6 6 5 1 21 17 22 29
2z m-3068 -5 c0 -5 -4 -10 -10 -10 -5 0 -10 5 -10 10 0 6 5 10 10 10 6 0 10
-4 10 -10z m540 -4 c0 -3 -4 -8 -10 -11 -5 -3 -10 -1 -10 4 0 6 5 11 10 11 6
0 10 -2 10 -4z m3270 -6 c0 -5 -2 -10 -4 -10 -3 0 -8 5 -11 10 -3 6 -1 10 4
10 6 0 11 -4 11 -10z m-3781 -29 c-15 -5 -22 6 -14 19 6 9 10 9 16 -1 5 -8 4
-15 -2 -18z m5818 9 c-1 -12 -8 -20 -19 -20 -20 0 -21 1 -12 24 9 23 33 20 31
-4z m-5777 -10 c0 -5 -4 -10 -10 -10 -5 0 -10 5 -10 10 0 6 5 10 10 10 6 0 10
-4 10 -10z m5620 0 c0 -5 -4 -10 -10 -10 -5 0 -10 5 -10 10 0 6 5 10 10 10 6
0 10 -4 10 -10z m-5580 -4 c0 -3 -4 -8 -10 -11 -5 -3 -10 -1 -10 4 0 6 5 11
10 11 6 0 10 -2 10 -4z m330 -6 c0 -5 -4 -10 -10 -10 -5 0 -10 5 -10 10 0 6 5
10 10 10 6 0 10 -4 10 -10z m-300 -10 c0 -5 -4 -10 -10 -10 -5 0 -10 5 -10 10
0 6 5 10 10 10 6 0 10 -4 10 -10z m3715 0 c3 -5 1 -10 -4 -10 -6 0 -11 5 -11
10 0 6 2 10 4 10 3 0 8 -4 11 -10z m-3685 -10 c0 -5 -2 -10 -4 -10 -3 0 -8 5
-11 10 -3 6 -1 10 4 10 6 0 11 -4 11 -10z m240 5 c0 -9 -86 -28 -138 -30 -28
-1 -55 -5 -59 -8 -13 -13 -23 -7 -23 14 0 17 3 19 13 10 8 -6 16 -9 19 -6 3 3
33 7 68 10 35 3 66 7 68 10 7 6 52 7 52 0z m2120 -5 c0 -5 -5 -10 -11 -10 -5
0 -7 5 -4 10 3 6 8 10 11 10 2 0 4 -4 4 -10z m1148 -5 c-2 -6 -6 -9 -10 -7 -5
1 -8 -2 -8 -8 0 -5 -5 -10 -10 -10 -6 0 -5 8 2 20 13 20 32 23 26 5z m422 10
c0 -2 -33 -23 -72 -46 -40 -23 -78 -47 -84 -55 -8 -10 -14 -9 -28 8 -14 15
-14 20 -4 15 8 -3 48 14 89 38 67 40 99 53 99 40z m-220 -25 c0 -5 -4 -10 -10
-10 -5 0 -10 5 -10 10 0 6 5 10 10 10 6 0 10 -4 10 -10z m26 -6 c-3 -9 -6 -20
-6 -25 0 -6 -4 -8 -9 -5 -12 8 -2 46 11 46 6 0 7 -7 4 -16z m-301 -24 c-3 -5
-10 -10 -16 -10 -5 0 -9 5 -9 10 0 6 7 10 16 10 8 0 12 -4 9 -10z m575 -15
c11 -13 10 -14 -4 -9 -9 3 -16 10 -16 15 0 13 6 11 20 -6z m820 -1 c0 -2 -7
-4 -15 -4 -8 0 -15 4 -15 10 0 5 7 7 15 4 8 -4 15 -8 15 -10z m-3464 -19 c3
-17 -12 -20 -21 -5 -7 12 4 34 13 25 3 -3 7 -12 8 -20z m1864 -5 c0 -10 -260
-24 -289 -15 -13 4 -155 4 -316 0 l-293 -8 -5 -31 c-6 -41 8 -56 53 -56 48 0
70 8 70 26 0 16 16 19 25 4 4 -6 12 -10 18 -9 46 6 157 -3 152 -11 -3 -5 -30
-10 -60 -10 -36 0 -55 -4 -58 -14 -5 -11 -22 -13 -87 -9 -71 5 -82 4 -95 -13
-14 -18 -14 -18 -15 3 0 27 -16 38 -24 18 -3 -10 -19 -15 -48 -15 -39 0 -47 5
-88 50 l-45 50 -110 -31 c-60 -18 -119 -39 -130 -49 -11 -9 -51 -31 -88 -50
-74 -36 -90 -50 -58 -50 12 0 21 -5 21 -10 0 -12 -69 -3 -83 9 -4 4 37 31 92
60 55 28 101 55 103 60 3 8 50 23 203 66 l50 14 48 -49 c42 -43 65 -55 104
-51 12 1 33 53 33 84 0 17 -5 19 -42 14 -24 -3 -35 -3 -25 0 9 2 17 8 17 13 0
5 12 10 28 12 64 7 942 6 942 -2z m-1415 -18 c-12 -10 -86 -32 -109 -32 -31 0
-15 16 27 27 54 13 94 15 82 5z m2185 -2 c0 -5 -4 -10 -10 -10 -5 0 -10 5 -10
10 0 6 5 10 10 10 6 0 10 -4 10 -10z m-30 -10 c0 -5 -5 -10 -11 -10 -5 0 -7 5
-4 10 3 6 8 10 11 10 2 0 4 -4 4 -10z m-2300 -10 c0 -5 -2 -10 -4 -10 -3 0 -8
5 -11 10 -3 6 -1 10 4 10 6 0 11 -4 11 -10z m2258 -14 c-10 -7 -18 -19 -18
-25 0 -7 -4 -9 -10 -6 -13 8 11 45 30 45 12 -1 12 -3 -2 -14z m-2557 -96 c5 0
28 9 50 21 22 11 46 18 52 16 7 -2 -8 -14 -33 -27 l-45 -24 35 -9 c73 -19 77
-26 13 -24 -35 1 -63 5 -63 10 0 4 -6 7 -14 7 -18 0 -26 22 -26 69 0 55 14 61
18 7 2 -25 8 -46 13 -46z m2449 86 c0 -3 -4 -8 -10 -11 -5 -3 -10 -1 -10 4 0
6 5 11 10 11 6 0 10 -2 10 -4z m26 -41 c-4 -10 1 -15 14 -15 11 0 20 -6 20
-13 0 -7 34 -52 76 -100 41 -48 74 -93 72 -99 -2 -6 -37 28 -78 75 -50 59 -80
87 -95 87 -12 0 -30 7 -41 15 -18 14 -18 14 0 15 14 0 17 6 14 25 -4 17 -1 25
9 25 9 0 13 -6 9 -15z m-186 -13 c0 -4 -45 -58 -100 -121 -126 -143 -130 -166
-17 -109 59 29 87 39 87 28 0 -9 -164 -90 -182 -90 -5 0 -7 4 -3 9 3 6 -2 14
-11 19 -14 8 1 30 97 140 106 122 129 144 129 124z m2030 -22 c0 -5 -4 -10 -9
-10 -6 0 -13 5 -16 10 -3 6 1 10 9 10 9 0 16 -4 16 -10z m30 -10 c0 -5 -4 -10
-10 -10 -5 0 -10 5 -10 10 0 6 5 10 10 10 6 0 10 -4 10 -10z m-5460 -25 c6 -8
22 -17 33 -21 12 -3 30 -13 39 -21 15 -13 15 -17 3 -30 -13 -13 -17 -13 -30 1
-8 8 -15 19 -15 25 0 5 -9 13 -20 16 -11 3 -25 15 -30 26 -12 22 2 26 20 4z
m6085 -45 c3 -5 2 -10 -4 -10 -5 0 -13 5 -16 10 -3 6 -2 10 4 10 5 0 13 -4 16
-10z m-2120 -50 c30 -30 43 -50 34 -50 -14 0 -35 19 -83 78 -36 42 0 22 49
-28z m2190 40 c3 -5 1 -10 -4 -10 -6 0 -11 5 -11 10 0 6 2 10 4 10 3 0 8 -4
11 -10z m35 -10 c0 -5 -4 -10 -10 -10 -5 0 -10 5 -10 10 0 6 5 10 10 10 6 0
10 -4 10 -10z m100 0 c0 -5 -5 -10 -11 -10 -5 0 -7 5 -4 10 3 6 8 10 11 10 2
0 4 -4 4 -10z m40 0 c0 -5 -4 -10 -10 -10 -5 0 -10 5 -10 10 0 6 5 10 10 10 6
0 10 -4 10 -10z m30 0 c0 -5 -5 -10 -11 -10 -5 0 -7 5 -4 10 3 6 8 10 11 10 2
0 4 -4 4 -10z m-4160 -8 c0 -4 -9 -13 -20 -20 -23 -14 -26 -8 -7 13 13 16 27
19 27 7z m30 -12 c0 -5 -2 -10 -4 -10 -3 0 -8 5 -11 10 -3 6 -1 10 4 10 6 0
11 -4 11 -10z m-691 -35 c17 -20 31 -40 31 -44 0 -8 -53 -31 -71 -31 -23 0 -5
19 22 25 l31 7 -31 32 c-17 18 -31 35 -31 39 0 16 20 5 49 -28z m4821 20 c0
-11 7 -14 25 -9 15 4 25 2 25 -5 0 -12 -29 -15 -54 -5 -17 7 -22 34 -6 34 6 0
10 -7 10 -15z m220 5 c0 -5 -4 -10 -10 -10 -5 0 -10 5 -10 10 0 6 5 10 10 10
6 0 10 -4 10 -10z m-2164 -35 c-3 -8 -16 -15 -29 -15 -18 0 -36 -15 -66 -55
-23 -30 -47 -55 -53 -55 -7 0 -22 10 -34 21 l-23 21 -38 -31 c-53 -44 -64 -39
-18 9 21 22 43 40 48 40 5 0 22 -10 39 -21 17 -13 33 -18 37 -12 52 77 77 103
98 103 13 0 27 8 30 17 4 11 8 13 11 5 2 -7 1 -19 -2 -27z m1234 25 c0 -5 -4
-10 -10 -10 -5 0 -10 5 -10 10 0 6 5 10 10 10 6 0 10 -4 10 -10z m130 0 c0 -5
-5 -10 -11 -10 -5 0 -7 5 -4 10 3 6 8 10 11 10 2 0 4 -4 4 -10z m730 0 c0 -5
-5 -10 -11 -10 -5 0 -7 5 -4 10 3 6 8 10 11 10 2 0 4 -4 4 -10z m-4510 -21 c0
-12 8 -28 18 -36 16 -12 15 -13 -8 -11 -20 2 -26 9 -28 36 -2 18 1 32 7 32 6
0 11 -10 11 -21z m4440 11 c0 -5 -2 -10 -4 -10 -3 0 -8 5 -11 10 -3 6 -1 10 4
10 6 0 11 -4 11 -10z m-4250 -10 c0 -5 -6 -10 -14 -10 -8 0 -18 5 -21 10 -3 6
3 10 14 10 12 0 21 -4 21 -10z m1640 -52 c6 -34 13 -80 15 -102 2 -23 7 -61
11 -85 5 -31 4 -42 -4 -37 -6 4 -9 13 -5 21 3 8 0 15 -7 15 -7 0 -10 7 -7 15
4 8 3 17 -2 19 -4 3 -9 28 -10 55 -1 28 -6 73 -11 102 -12 63 -12 59 -1 59 4
0 14 -28 21 -62z m-1626 26 c25 -9 19 -24 -9 -24 -22 0 -25 -4 -25 -35 0 -19
-4 -35 -10 -35 -15 0 -12 87 3 93 18 8 23 8 41 1z m2256 -8 c0 -3 -4 -8 -10
-11 -5 -3 -10 -1 -10 4 0 6 5 11 10 11 6 0 10 -2 10 -4z m-2991 -41 c24 -12
31 -22 31 -44 0 -16 6 -31 15 -35 8 -3 24 -20 34 -37 13 -21 28 -33 44 -33 23
-1 24 0 10 21 -10 15 -11 23 -4 23 6 0 31 -27 56 -61 35 -47 43 -65 35 -79 -5
-9 -7 -20 -4 -23 8 -7 -68 -207 -78 -207 -10 0 -6 18 23 95 23 61 24 71 3 55
-20 -18 -66 -23 -61 -7 2 7 15 13 29 15 33 4 54 28 61 70 6 28 4 31 -11 24 -9
-5 -31 -7 -49 -5 -28 2 -32 -1 -38 -27 -4 -16 -10 -32 -15 -35 -14 -8 -160 7
-160 18 0 5 32 8 77 6 l78 -4 8 47 c8 39 6 53 -10 80 -31 53 -80 81 -134 75
-57 -5 -119 -48 -119 -83 0 -13 -4 -24 -10 -24 -5 0 -10 9 -10 20 0 15 -7 20
-29 20 -21 0 -32 -6 -36 -20 -10 -32 -44 -25 -51 10 -5 25 -11 30 -35 30 -40
0 -38 30 3 54 l31 19 30 -36 c24 -31 35 -37 66 -37 27 0 44 7 61 25 19 20 20
25 7 25 -23 0 -30 17 -22 57 l6 36 69 -6 c38 -3 82 -13 99 -22z m871 -6 c-10
-19 -10 -20 9 -10 41 23 71 31 71 20 0 -6 -18 -18 -40 -26 -22 -9 -40 -20 -40
-26 0 -5 -6 -7 -14 -4 -16 6 -40 -39 -26 -48 24 -15 7 -24 -20 -10 -16 8 -36
15 -44 15 -11 0 -36 46 -36 66 0 2 24 4 53 4 41 0 55 4 65 20 17 27 36 27 22
-1z m2046 -22 c2 -19 -5 -28 -33 -41 -19 -9 -32 -12 -28 -6 3 5 1 10 -5 10 -5
0 2 18 16 40 29 43 45 42 50 -3z m1754 8 c0 -9 -6 -12 -15 -9 -8 4 -12 10 -9
15 8 14 24 10 24 -6z m495 -15 c-2 -11 0 -22 6 -25 5 -4 9 -11 9 -17 0 -7 -4
-7 -13 1 -15 12 -21 75 -7 66 5 -3 7 -14 5 -25z m-2215 5 c0 -8 -4 -15 -10
-15 -5 0 -10 7 -10 15 0 8 5 15 10 15 6 0 10 -7 10 -15z m1380 5 c8 -5 12 -12
9 -15 -8 -8 -39 5 -39 16 0 11 11 11 30 -1z m35 -30 c3 -5 1 -10 -4 -10 -6 0
-11 5 -11 10 0 6 2 10 4 10 3 0 8 -4 11 -10z m315 0 c0 -5 -4 -10 -10 -10 -5
0 -10 5 -10 10 0 6 5 10 10 10 6 0 10 -4 10 -10z m-2662 -40 c12 -21 22 -41
22 -44 0 -4 -14 -6 -31 -6 -27 0 -30 -2 -19 -15 7 -9 10 -19 6 -23 -9 -8 -76
62 -76 79 0 7 8 5 20 -6 19 -17 20 -17 20 -1 0 21 18 56 28 56 4 0 17 -18 30
-40z m2377 20 c3 -5 1 -10 -4 -10 -6 0 -11 5 -11 10 0 6 2 10 4 10 3 0 8 -4
11 -10z m712 -6 c3 -9 8 -11 12 -6 4 7 13 6 24 -3 25 -18 29 -113 5 -126 -26
-14 -48 0 -48 32 0 19 -5 29 -15 29 -20 0 -19 10 3 27 16 14 16 14 0 9 -19 -6
-23 9 -12 38 8 20 23 20 31 0z m-1871 -10 c18 -14 18 -14 -6 -3 -31 14 -36 19
-24 19 6 0 19 -7 30 -16z m1454 2 c0 -3 -4 -8 -10 -11 -5 -3 -10 -1 -10 4 0 6
5 11 10 11 6 0 10 -2 10 -4z m-3805 -16 c-3 -5 -10 -10 -16 -10 -5 0 -9 5 -9
10 0 6 7 10 16 10 8 0 12 -4 9 -10z m3535 0 c0 -5 -2 -10 -4 -10 -3 0 -8 5
-11 10 -3 6 -1 10 4 10 6 0 11 -4 11 -10z m765 0 c3 -5 1 -10 -4 -10 -6 0 -11
5 -11 10 0 6 2 10 4 10 3 0 8 -4 11 -10z m-3584 -35 c25 8 24 -7 -1 -30 -20
-18 -21 -18 -26 3 -5 18 -9 19 -25 9 -25 -15 -24 -42 1 -67 24 -24 53 -16 45
11 -8 24 11 25 24 2 9 -17 10 -17 16 -1 6 16 35 15 35 -2 0 -8 -114 -60 -133
-60 -6 0 -24 -12 -40 -27 -25 -24 -29 -25 -25 -8 2 10 17 29 34 40 25 17 28
23 17 33 -7 7 -13 25 -13 40 -1 23 -2 25 -11 10 -11 -19 -79 -26 -79 -8 0 6
14 10 31 10 24 0 32 6 40 30 9 25 14 28 40 23 22 -4 30 -1 36 13 7 17 8 17 11
-4 3 -17 8 -21 23 -17z m1499 5 c-56 -42 -292 -181 -298 -175 -7 7 -10 6 128
90 58 35 121 75 140 88 39 27 66 24 30 -3z m339 -129 c47 -63 93 -126 102
-140 8 -14 34 -36 57 -49 52 -29 45 -49 -7 -23 -25 13 -58 48 -97 103 -134
186 -150 207 -182 229 -22 14 -29 25 -21 29 18 12 55 -25 148 -149z m1011 145
c0 -3 -4 -8 -10 -11 -5 -3 -10 -1 -10 4 0 6 5 11 10 11 6 0 10 -2 10 -4z
m-4813 -43 c3 -7 -3 -9 -16 -6 -12 3 -21 10 -21 15 0 13 32 6 37 -9z m5048 7
c3 -5 1 -10 -4 -10 -6 0 -11 5 -11 10 0 6 2 10 4 10 3 0 8 -4 11 -10z m-5095
-20 c0 -11 -4 -20 -10 -20 -5 0 -10 9 -10 20 0 11 5 20 10 20 6 0 10 -9 10
-20z m3093 -23 c-28 -36 -243 -208 -243 -194 0 7 54 57 121 111 85 70 119 102
114 113 -4 13 -3 14 9 3 14 -11 14 -14 -1 -33z m1817 33 c0 -5 -4 -10 -10 -10
-5 0 -10 5 -10 10 0 6 5 10 10 10 6 0 10 -4 10 -10z m700 -10 c0 -5 -7 -10
-15 -10 -8 0 -15 5 -15 10 0 6 7 10 15 10 8 0 15 -4 15 -10z m-5523 -36 c-9
-10 -38 16 -31 28 4 6 13 4 22 -6 9 -8 13 -19 9 -22z m5963 32 c0 -3 -4 -8
-10 -11 -5 -3 -10 -1 -10 4 0 6 5 11 10 11 6 0 10 -2 10 -4z m-970 -16 c0 -5
-2 -10 -4 -10 -3 0 -8 5 -11 10 -3 6 -1 10 4 10 6 0 11 -4 11 -10z m930 0 c0
-5 -2 -10 -4 -10 -3 0 -8 5 -11 10 -3 6 -1 10 4 10 6 0 11 -4 11 -10z m-590
-10 c0 -5 -5 -10 -11 -10 -5 0 -7 5 -4 10 3 6 8 10 11 10 2 0 4 -4 4 -10z m40
0 c0 -5 -4 -10 -10 -10 -5 0 -10 5 -10 10 0 6 5 10 10 10 6 0 10 -4 10 -10z
m30 0 c0 -5 -5 -10 -11 -10 -5 0 -7 5 -4 10 3 6 8 10 11 10 2 0 4 -4 4 -10z
m140 -21 c0 -5 -7 -9 -15 -9 -9 0 -15 9 -15 21 0 18 2 19 15 9 8 -7 15 -16 15
-21z m315 21 c3 -5 1 -10 -4 -10 -6 0 -11 5 -11 10 0 6 2 10 4 10 3 0 8 -4 11
-10z m43 -13 c2 -12 -1 -15 -12 -11 -19 7 -22 38 -3 32 6 -3 13 -12 15 -21z
m102 13 c0 -5 -4 -10 -10 -10 -5 0 -10 5 -10 10 0 6 5 10 10 10 6 0 10 -4 10
-10z m-6090 -10 c13 -7 21 -7 25 0 4 6 11 8 16 4 6 -4 6 -11 -1 -19 -8 -10 -7
-16 7 -23 10 -6 15 -14 11 -17 -4 -4 -17 0 -29 9 -17 11 -26 13 -36 4 -18 -14
-29 -2 -15 15 9 10 8 17 0 25 -15 15 -3 16 22 2z m5840 0 c0 -5 -5 -10 -11
-10 -5 0 -7 5 -4 10 3 6 8 10 11 10 2 0 4 -4 4 -10z m40 6 c0 -3 -4 -8 -10
-11 -5 -3 -10 -1 -10 4 0 6 5 11 10 11 6 0 10 -2 10 -4z m-3071 -33 c0 -25 -1
-26 -9 -8 -12 27 -12 35 0 35 6 0 10 -12 9 -27z m2191 6 c0 -6 -4 -7 -10 -4
-5 3 -10 11 -10 16 0 6 5 7 10 4 6 -3 10 -11 10 -16z m70 15 c0 -16 -32 -35
-48 -28 -15 6 -14 8 6 11 12 3 22 9 22 14 0 5 5 9 10 9 6 0 10 -3 10 -6z m627
-8 c3 -3 -8 -6 -25 -6 -18 0 -32 4 -32 9 0 10 47 8 57 -3z m38 4 c3 -5 1 -10
-4 -10 -6 0 -11 5 -11 10 0 6 2 10 4 10 3 0 8 -4 11 -10z m35 0 c0 -5 -2 -10
-4 -10 -3 0 -8 5 -11 10 -3 6 -1 10 4 10 6 0 11 -4 11 -10z m-5620 -35 c19
-19 29 -35 24 -35 -6 0 -20 11 -32 25 -12 14 -26 25 -32 25 -5 0 -10 5 -10 10
0 18 16 10 50 -25z m5430 25 c0 -5 -4 -10 -10 -10 -5 0 -10 5 -10 10 0 6 5 10
10 10 6 0 10 -4 10 -10z m-6525 -9 c-6 -5 -23 -13 -40 -17 -27 -7 -29 -6 -16
9 7 10 25 17 39 17 16 0 22 -4 17 -9z m6150 -1 c3 -5 -1 -10 -10 -10 -9 0 -13
5 -10 10 3 6 8 10 10 10 2 0 7 -4 10 -10z m-2580 -77 c26 -43 65 -93 86 -111
22 -19 39 -39 39 -46 0 -7 9 -17 19 -22 11 -5 40 -28 66 -52 39 -37 44 -46 33
-59 -11 -14 -13 -14 -18 3 -8 32 -107 117 -123 107 -38 -21 -186 -149 -186
-160 -1 -7 -8 -13 -16 -13 -8 0 -14 -6 -13 -12 2 -7 -5 -12 -14 -12 -10 1 -18
-4 -18 -12 0 -8 -7 -14 -16 -14 -8 0 -13 -4 -10 -9 3 -5 -1 -14 -9 -21 -25
-21 -20 -164 11 -272 14 -51 34 -110 45 -132 12 -25 15 -42 9 -46 -7 -4 0 -48
20 -124 31 -122 37 -157 21 -141 -15 17 -72 260 -65 278 3 10 1 17 -5 17 -6 0
-8 7 -5 15 4 8 2 15 -4 15 -6 0 -22 53 -37 117 -23 98 -27 133 -23 211 4 65
10 97 19 103 40 24 98 76 99 87 0 6 4 11 8 10 5 -2 36 18 70 44 43 35 59 53
55 66 -3 13 4 22 22 30 l27 13 -38 42 c-22 24 -52 66 -69 95 -16 28 -33 52
-37 52 -4 0 -28 -14 -53 -32 -24 -17 -48 -28 -52 -24 -4 4 -1 11 7 16 8 5 33
22 55 39 22 17 43 31 46 31 3 0 28 -35 54 -77z m2273 63 c15 -8 39 -17 55 -21
28 -6 36 -26 15 -42 -20 -15 -118 33 -118 58 0 23 13 24 48 5z m-4768 -25 c0
-5 -7 -14 -15 -21 -12 -10 -18 -10 -31 1 -15 12 -14 14 7 20 35 10 39 10 39 0z
m2687 -13 c-3 -8 -6 -5 -6 6 -1 11 2 17 5 13 3 -3 4 -12 1 -19z m-2823 -4 c4
-10 1 -14 -6 -12 -15 5 -23 28 -10 28 5 0 13 -7 16 -16z m208 -72 c-12 -22
-19 -42 -15 -46 3 -3 -3 -6 -15 -6 -23 0 -29 14 -12 25 6 3 10 14 10 25 0 10
7 21 16 24 11 4 13 13 9 28 -7 22 -6 22 11 6 17 -17 17 -19 -4 -56z m-48 27
c-4 -6 -11 -6 -20 2 -21 17 -17 31 6 19 11 -6 18 -15 14 -21z m1305 17 c9 -11
6 -17 -15 -31 -32 -21 -37 -16 -21 18 14 30 20 33 36 13z m1369 -42 l-3 -39
-5 47 c-3 26 -1 43 3 39 5 -5 7 -26 5 -47z m-2800 18 c6 -18 -15 -14 -22 4 -4
10 -1 14 6 12 6 -2 14 -10 16 -16z m2542 2 c0 -8 -4 -12 -10 -9 -5 3 -10 10
-10 16 0 5 5 9 10 9 6 0 10 -7 10 -16z m-2310 -9 c10 -12 10 -19 2 -27 -7 -7
-12 -17 -12 -22 1 -6 9 -1 19 12 12 13 25 20 35 16 23 -9 20 -27 -3 -19 -26 8
-37 -23 -14 -41 10 -7 28 -10 41 -7 13 3 22 1 22 -6 0 -6 -6 -11 -14 -11 -7 0
-20 -9 -27 -21 -14 -20 -14 -20 -39 7 -19 21 -21 26 -7 21 11 -4 16 -3 12 4
-4 5 -14 9 -23 7 -20 -3 -42 9 -42 23 0 6 6 7 13 3 8 -5 8 -2 -2 9 -12 15 -11
17 4 17 13 0 16 6 11 25 -7 28 5 33 24 10z m1845 -32 c15 -27 59 -78 98 -115
80 -77 77 -91 -6 -23 -44 36 -137 158 -137 180 0 19 22 -2 45 -42z m1058 30
c-12 -33 -46 -73 -67 -79 -12 -4 -35 -17 -53 -30 -42 -32 -66 -30 -29 2 l28
25 -22 25 c-13 13 -20 27 -16 31 4 5 18 -5 30 -20 19 -24 26 -26 47 -18 14 5
37 25 53 45 30 40 39 45 29 19z m-2663 -2 c0 -12 -20 -25 -27 -18 -7 7 6 27
18 27 5 0 9 -4 9 -9z m248 -20 c3 -10 0 -12 -13 -7 -13 4 -27 -2 -47 -21 -34
-32 -39 -11 -6 24 24 25 58 27 66 4z m-678 -12 c0 -11 -27 -12 -34 0 -3 4 -3
11 0 14 8 8 34 -3 34 -14z m355 11 c-3 -5 -15 -10 -26 -10 -24 0 -25 -28 -1
-46 15 -12 14 -13 -10 -14 -20 0 -28 5 -28 18 0 10 -5 23 -12 30 -9 9 -7 12 9
12 12 0 25 5 28 10 3 6 15 10 26 10 11 0 17 -4 14 -10z m36 -13 c-1 -4 -1 -14
-1 -22 0 -26 -15 -16 -16 10 -1 15 2 25 8 23 5 -2 9 -7 9 -11z m2154 -7 c3 -5
1 -10 -4 -10 -6 0 -11 5 -11 10 0 6 2 10 4 10 3 0 8 -4 11 -10z m-2485 -10 c0
-5 -6 -10 -14 -10 -8 0 -18 5 -21 10 -3 6 3 10 14 10 12 0 21 -4 21 -10z
m2094 -12 c-9 -31 -24 -48 -40 -48 -9 0 -7 10 9 35 25 39 42 46 31 13z m411
-8 c3 -5 1 -10 -4 -10 -6 0 -11 5 -11 10 0 6 2 10 4 10 3 0 8 -4 11 -10z
m-1588 -77 l113 -77 20 22 c11 11 20 24 20 27 0 9 63 76 67 71 7 -7 -9 -56
-17 -51 -4 3 -10 -2 -13 -10 -4 -8 5 -22 21 -34 36 -26 23 -37 -16 -14 -30 17
-32 17 -46 -2 -8 -11 -10 -21 -5 -23 11 -4 12 -22 1 -22 -5 0 -37 18 -71 40
l-62 40 -27 -46 c-34 -59 -59 -90 -65 -84 -3 3 12 34 34 70 21 36 39 67 39 70
0 16 -112 80 -139 80 -17 0 -31 5 -31 10 0 6 14 10 32 10 23 0 62 -21 145 -77z
m3473 27 c55 -28 100 -55 100 -60 0 -14 3 -15 -104 41 -104 55 -105 55 -258
33 -29 -4 -38 -2 -38 8 0 9 9 14 20 13 11 -1 39 2 63 6 92 15 114 11 217 -41z
m-3012 9 c-1 -17 -7 -33 -15 -36 -10 -4 -11 -9 -3 -19 8 -9 8 -19 0 -34 -11
-20 -12 -21 -24 -4 -8 10 -10 26 -6 38 29 88 49 112 48 55z m-1048 14 c0 -5
-7 -17 -16 -28 -13 -17 -16 -18 -24 -5 -14 21 -12 28 8 33 28 7 32 7 32 0z
m2459 -29 c31 -40 25 -52 -9 -19 -16 16 -30 32 -30 37 0 16 19 7 39 -18z
m-2580 -27 c6 -8 8 -17 4 -20 -7 -8 -33 11 -33 24 0 13 16 11 29 -4z m292 -66
c-10 -18 -8 -22 24 -35 19 -8 35 -19 35 -25 0 -9 -45 5 -97 31 -28 14 -30 28
-4 21 25 -6 36 25 16 47 -26 28 -16 36 11 9 22 -22 24 -30 15 -48z m-171 49
c12 -8 11 -10 -7 -10 -12 0 -25 -5 -28 -10 -4 -6 -11 -8 -16 -4 -6 4 -6 11 2
20 13 16 28 18 49 4z m45 -10 c3 -5 1 -10 -4 -10 -6 0 -11 5 -11 10 0 6 2 10
4 10 3 0 8 -4 11 -10z m1115 1 c0 -6 -4 -13 -10 -16 -5 -3 -10 1 -10 9 0 9 5
16 10 16 6 0 10 -4 10 -9z m-1204 -38 c31 -23 31 -25 22 -71 -15 -71 -30 -77
-22 -9 6 49 4 57 -10 57 -9 0 -16 6 -16 14 0 7 -9 16 -21 19 -12 3 -18 10 -14
16 7 12 14 9 61 -26z m1164 28 c0 -5 -7 -11 -15 -15 -9 -3 -15 0 -15 9 0 8 7
15 15 15 8 0 15 -4 15 -9z m-1691 -50 c17 -16 31 -35 31 -43 0 -8 5 -19 11
-25 8 -8 1 -18 -25 -38 -19 -15 -41 -25 -47 -23 -7 2 1 14 18 26 36 26 35 62
-3 87 -13 8 -24 22 -24 30 0 20 3 19 39 -14z m1590 -8 c25 -19 48 -15 56 10 6
19 8 19 12 5 5 -21 -18 -48 -41 -48 -9 0 -16 -9 -16 -21 0 -12 -4 -17 -11 -14
-6 4 -8 12 -6 19 8 22 -11 56 -29 49 -14 -5 -15 -3 -3 18 9 18 14 20 17 9 3
-8 12 -20 21 -27z m1481 12 c23 -24 23 -25 5 -45 -20 -22 -35 -19 -16 3 8 11
6 18 -9 32 -21 19 -26 35 -12 35 5 0 19 -11 32 -25z m-2952 -6 c63 -16 68 -23
36 -48 -35 -28 -44 -27 -57 9 -7 18 -19 30 -29 30 -10 0 -18 5 -18 10 0 13 10
13 68 -1z m1442 -39 c0 -5 -4 -10 -10 -10 -5 0 -10 5 -10 10 0 6 5 10 10 10 6
0 10 -4 10 -10z m-235 -30 c-10 -11 -24 -20 -32 -20 -8 0 -2 10 14 24 33 28
45 25 18 -4z m249 -15 c11 -8 15 -15 10 -15 -6 0 -19 7 -30 15 -10 8 -14 14
-9 14 6 0 19 -6 29 -14z m-34 -12 c0 -14 -19 -38 -25 -32 -8 8 5 39 16 39 5 0
9 -3 9 -7z m150 -13 c0 -5 -9 -10 -21 -10 -11 0 -17 5 -14 10 3 6 13 10 21 10
8 0 14 -4 14 -10z m40 -4 c0 -3 -4 -8 -10 -11 -5 -3 -10 -1 -10 4 0 6 5 11 10
11 6 0 10 -2 10 -4z m1435 -56 c-15 -17 -19 -17 -32 -4 -18 17 -16 20 17 32
31 12 38 -2 15 -28z m-1649 4 c-3 -9 -6 -18 -6 -20 0 -3 -4 -3 -10 1 -11 7 -2
35 12 35 6 0 7 -7 4 -16z m1234 -31 c0 -9 -32 -43 -40 -43 -10 0 -20 37 -12
44 8 8 52 7 52 -1z m-1250 -15 c0 -17 -18 -44 -24 -37 -8 7 5 49 15 49 5 0 9
-6 9 -12z m376 -13 c10 -8 14 -15 7 -15 -19 0 -43 11 -43 21 0 13 14 11 36 -6z
m1344 -16 c0 -4 -7 -6 -15 -3 -8 4 -15 10 -15 15 0 4 7 6 15 3 8 -4 15 -10 15
-15z m-422 -48 c12 -20 11 -26 -2 -39 -14 -15 -17 -14 -30 3 -31 42 -47 75
-37 75 6 0 11 -4 11 -10 0 -5 4 -10 9 -10 5 0 7 10 4 23 l-6 22 19 -21 c11
-11 25 -30 32 -43z m457 39 c3 -5 1 -10 -4 -10 -6 0 -11 5 -11 10 0 6 2 10 4
10 3 0 8 -4 11 -10z m2453 -35 c7 -14 34 -40 62 -57 27 -17 47 -34 45 -39 -9
-13 -105 53 -121 82 -16 32 -17 39 -6 39 5 0 14 -11 20 -25z m-2428 5 c0 -5
-4 -10 -9 -10 -6 0 -13 5 -16 10 -3 6 1 10 9 10 9 0 16 -4 16 -10z m30 -20 c0
-5 -4 -10 -10 -10 -5 0 -10 5 -10 10 0 6 5 10 10 10 6 0 10 -4 10 -10z m10
-50 c0 -5 -2 -10 -4 -10 -3 0 -8 5 -11 10 -3 6 -1 10 4 10 6 0 11 -4 11 -10z
m-1535 -70 c-3 -5 -14 -10 -24 -10 -9 0 -41 -25 -70 -54 -36 -38 -57 -53 -69
-49 -27 9 -64 53 -59 68 3 7 -1 16 -9 19 -25 9 -72 7 -79 -4 -12 -20 -26 -10
-14 11 10 19 17 21 67 15 56 -7 90 -24 65 -33 -16 -6 -17 -33 -2 -33 6 0 13 9
16 20 7 25 11 25 33 -2 l19 -23 36 43 c28 32 44 42 66 42 18 0 28 -4 24 -10z
m4104 -31 c14 -40 15 -236 1 -244 -15 -9 -12 -65 3 -65 22 0 54 28 67 60 7 16
17 30 22 30 6 0 8 -6 5 -12 -3 -7 -8 -20 -12 -29 -5 -12 1 -20 22 -27 l28 -10
-33 -1 c-39 -1 -87 -24 -100 -48 -7 -11 3 -44 35 -117 25 -56 52 -109 61 -120
16 -17 16 -18 -3 -15 -27 6 -131 234 -115 253 13 16 0 28 -52 47 -39 13 -55
36 -18 25 11 -3 29 -9 39 -12 16 -5 22 1 31 37 13 45 9 232 -4 262 -5 10 -4
17 2 17 6 0 15 -14 21 -31z m-6604 11 c-3 -5 -11 -10 -16 -10 -6 0 -7 5 -4 10
3 6 11 10 16 10 6 0 7 -4 4 -10z m-38 -16 c-3 -3 -12 -4 -19 -1 -8 3 -5 6 6 6
11 1 17 -2 13 -5z m787 -19 c3 -8 15 -15 26 -15 11 0 20 -4 20 -10 0 -18 -49
-11 -60 9 -12 24 -13 31 -1 31 5 0 11 -7 15 -15z m-784 -5 c0 -5 -4 -10 -10
-10 -5 0 -10 5 -10 10 0 6 5 10 10 10 6 0 10 -4 10 -10z m215 -10 c-2 -4 2
-13 10 -20 12 -10 10 -15 -13 -34 -38 -32 -62 -39 -68 -21 -4 8 -10 12 -16 9
-5 -3 -7 -12 -4 -20 7 -19 -54 -45 -72 -31 -11 8 -6 14 20 26 18 9 34 25 36
35 6 28 52 63 84 64 16 0 26 -3 23 -8z m-185 -54 c0 -3 -4 -8 -10 -11 -5 -3
-10 -1 -10 4 0 6 5 11 10 11 6 0 10 -2 10 -4z m2143 -10 c3 -7 -1 -26 -9 -41
-14 -27 -13 -30 13 -57 25 -26 28 -27 45 -11 28 25 35 5 7 -22 l-25 -25 -54
55 -54 55 29 30 c32 33 40 36 48 16z m1984 -124 c-31 -33 -57 -91 -57 -130 0
-49 64 -153 118 -194 42 -31 52 -45 63 -88 7 -28 20 -55 29 -60 8 -4 66 -22
128 -40 61 -18 112 -37 112 -42 0 -12 -4 -11 -140 30 l-125 37 -19 61 c-16 52
-25 65 -62 90 -32 21 -56 50 -84 101 -44 80 -47 100 -24 170 16 49 76 123 82
103 3 -7 -7 -24 -21 -38z m-4704 -6 c4 -9 14 -12 26 -9 16 4 19 1 14 -15 -6
-23 -53 -28 -53 -6 0 18 -37 18 -89 -1 -22 -8 -41 -11 -41 -7 0 14 40 42 52
37 7 -3 27 -1 43 4 42 13 42 13 48 -3z m3027 -68 c0 6 4 12 10 12 5 0 6 -8 3
-17 -6 -16 -5 -16 10 -4 23 18 35 5 15 -16 -16 -15 -19 -15 -43 1 -14 9 -23
22 -19 28 4 7 9 6 15 -3 6 -10 9 -11 9 -1z m70 -48 c0 -5 -5 -10 -11 -10 -5 0
-7 5 -4 10 3 6 8 10 11 10 2 0 4 -4 4 -10z m127 -56 c47 -40 56 -44 70 -33 15
13 16 11 10 -11 -4 -16 -1 -30 10 -42 9 -10 14 -20 12 -22 -2 -3 -31 20 -64
50 -33 30 -70 62 -82 71 -22 14 -31 33 -17 33 4 0 31 -21 61 -46z m-1411 -145
c-66 -91 -86 -112 -86 -91 0 5 28 47 63 93 35 46 67 93 71 104 5 15 9 16 15 6
6 -9 -14 -45 -63 -112z m1011 115 c-3 -3 -12 -4 -19 -1 -8 3 -5 6 6 6 11 1 17
-2 13 -5z m173 -46 c0 -13 -23 -5 -28 10 -2 7 2 10 12 6 9 -3 16 -11 16 -16z
m-2860 4 c0 -13 -76 -45 -92 -40 -7 3 7 14 32 26 52 23 60 25 60 14z m2800
-12 c0 -5 -4 -10 -10 -10 -5 0 -10 5 -10 10 0 6 5 10 10 10 6 0 10 -4 10 -10z
m-930 -10 c0 -5 -6 -10 -14 -10 -19 0 -30 -32 -14 -41 19 -12 6 -17 -34 -11
-40 4 -53 22 -18 22 12 0 25 10 32 25 11 24 48 36 48 15z m-570 -25 c0 -20 -5
-25 -24 -25 -14 0 -28 -4 -31 -10 -12 -20 -26 -9 -23 17 3 27 13 33 71 42 4 0
7 -10 7 -24z m1470 -19 c0 -3 -4 -8 -10 -11 -5 -3 -10 -1 -10 4 0 6 5 11 10
11 6 0 10 -2 10 -4z m-20 -36 c0 -5 -5 -10 -11 -10 -5 0 -7 5 -4 10 3 6 8 10
11 10 2 0 4 -4 4 -10z m586 -59 c-8 -12 20 -22 39 -15 10 4 43 -21 95 -72 86
-83 101 -114 23 -46 -60 52 -173 117 -182 105 -44 -65 -286 -362 -289 -354 -4
13 278 378 298 384 8 3 16 5 18 6 2 0 1 -3 -2 -8z m-606 -31 c0 -5 -5 -10 -11
-10 -5 0 -7 5 -4 10 3 6 8 10 11 10 2 0 4 -4 4 -10z m-10 -34 c0 -3 -4 -8 -10
-11 -5 -3 -10 -1 -10 4 0 6 5 11 10 11 6 0 10 -2 10 -4z m-947 -121 c-3 -13
-9 -23 -13 -20 -4 2 -5 16 -3 30 3 13 9 23 13 20 4 -2 5 -16 3 -30z m-520 -5
c-4 -4 -18 -11 -30 -15 -17 -4 -23 -2 -23 9 0 15 26 25 48 18 7 -3 10 -8 5
-12z m1777 0 c13 -8 9 -15 -5 -7 -2 1 -24 -25 -49 -58 -25 -33 -58 -68 -73
-79 -26 -17 -33 -36 -82 -230 -59 -228 -74 -276 -91 -276 -7 0 -8 6 -1 18 20
38 82 297 72 300 -6 2 -11 8 -11 14 0 6 7 8 15 4 9 -3 15 0 15 10 0 8 -4 12
-10 9 -5 -3 -10 -1 -10 4 0 6 6 11 13 11 14 0 37 80 37 126 0 15 4 23 10 19
18 -11 55 20 101 84 48 66 47 65 69 51z m-485 -80 c3 -5 1 -10 -4 -10 -6 0
-11 5 -11 10 0 6 2 10 4 10 3 0 8 -4 11 -10z m2923 -2 c12 -16 22 -127 11
-133 -4 -3 -11 23 -16 57 l-8 63 -42 3 c-24 2 -43 7 -43 13 0 14 86 11 98 -3z
m-2948 -28 c0 -5 -4 -10 -10 -10 -5 0 -10 5 -10 10 0 6 5 10 10 10 6 0 10 -4
10 -10z m-753 -32 c-3 -7 -5 -2 -5 12 0 14 2 19 5 13 2 -7 2 -19 0 -25z m2221
5 c-2 -10 -18 -22 -36 -28 -17 -5 -32 -13 -32 -17 0 -11 -56 -38 -80 -38 -36
0 -22 29 27 54 18 9 35 16 38 16 3 0 13 6 21 15 22 22 66 20 62 -2z m-1168 -8
c0 -8 -4 -15 -10 -15 -5 0 -10 7 -10 15 0 8 5 15 10 15 6 0 10 -7 10 -15z
m-345 -15 c3 -5 1 -10 -4 -10 -6 0 -11 5 -11 10 0 6 2 10 4 10 3 0 8 -4 11
-10z m-2506 -41 c6 -17 15 -28 21 -24 5 3 15 3 21 0 10 -7 -94 -95 -112 -95
-17 0 -9 -22 13 -40 15 -12 33 -16 53 -14 38 6 41 3 103 -82 50 -68 64 -104
42 -104 -5 0 -10 6 -10 13 0 7 -23 46 -51 86 -50 70 -53 73 -85 68 -27 -5 -40
0 -64 20 -37 30 -38 56 -5 71 27 12 30 19 16 41 -7 10 -25 12 -79 8 -39 -4
-74 -3 -76 2 -7 10 149 25 164 16 5 -3 10 -13 10 -21 0 -9 6 -14 13 -11 13 4
15 40 3 75 -4 13 -3 22 2 22 6 0 15 -14 21 -31z m2841 21 c0 -5 -5 -10 -11
-10 -5 0 -7 5 -4 10 3 6 8 10 11 10 2 0 4 -4 4 -10z m-380 -40 c0 -5 -2 -10
-4 -10 -3 0 -8 5 -11 10 -3 6 -1 10 4 10 6 0 11 -4 11 -10z m390 0 c0 -5 -4
-10 -10 -10 -5 0 -10 5 -10 10 0 6 5 10 10 10 6 0 10 -4 10 -10z m-410 -20 c0
-5 -4 -10 -10 -10 -5 0 -10 5 -10 10 0 6 5 10 10 10 6 0 10 -4 10 -10z m-2735
-10 c4 -6 -5 -10 -20 -10 -15 0 -24 4 -20 10 3 6 12 10 20 10 8 0 17 -4 20
-10z m65 0 c0 -5 -12 -10 -26 -10 -14 0 -23 4 -19 10 3 6 15 10 26 10 10 0 19
-4 19 -10z m2020 -32 c0 -29 7 -49 22 -65 25 -26 13 -31 -20 -7 -18 12 -22 25
-22 65 0 27 5 49 10 49 6 0 10 -19 10 -42z m-2325 22 c4 -6 -5 -10 -20 -10
-15 0 -24 4 -20 10 3 6 12 10 20 10 8 0 17 -4 20 -10z m65 0 c0 -5 -12 -10
-26 -10 -14 0 -23 4 -19 10 3 6 15 10 26 10 10 0 19 -4 19 -10z m55 0 c-3 -5
-12 -10 -20 -10 -8 0 -17 5 -20 10 -4 6 5 10 20 10 15 0 24 -4 20 -10z m65 6
c0 -9 -40 -13 -46 -5 -3 5 6 9 20 9 14 0 26 -2 26 -4z m2770 -10 c0 -3 -4 -8
-10 -11 -5 -3 -10 -1 -10 4 0 6 5 11 10 11 6 0 10 -2 10 -4z m-25 -26 c3 -5 1
-10 -4 -10 -6 0 -11 5 -11 10 0 6 2 10 4 10 3 0 8 -4 11 -10z m20 -30 c3 -5 1
-10 -4 -10 -6 0 -11 5 -11 10 0 6 2 10 4 10 3 0 8 -4 11 -10z m25 -41 c0 -6
-4 -7 -10 -4 -5 3 -10 11 -10 16 0 6 5 7 10 4 6 -3 10 -11 10 -16z m390 11 c0
-5 -5 -10 -11 -10 -5 0 -7 5 -4 10 3 6 8 10 11 10 2 0 4 -4 4 -10z m-410 -24
c0 -3 -4 -8 -10 -11 -5 -3 -10 -1 -10 4 0 6 5 11 10 11 6 0 10 -2 10 -4z m390
-6 c0 -5 -4 -10 -10 -10 -5 0 -10 5 -10 10 0 6 5 10 10 10 6 0 10 -4 10 -10z
m-420 -20 c0 -5 -4 -10 -10 -10 -5 0 -10 5 -10 10 0 6 5 10 10 10 6 0 10 -4
10 -10z m4260 -9 c0 -5 -9 -19 -20 -32 l-19 -24 2 32 c1 24 7 33 20 33 9 0 17
-4 17 -9z m-4315 -31 c3 -5 1 -10 -4 -10 -6 0 -11 5 -11 10 0 6 2 10 4 10 3 0
8 -4 11 -10z m450 0 c3 -5 1 -10 -4 -10 -6 0 -11 5 -11 10 0 6 2 10 4 10 3 0
8 -4 11 -10z m-45 -44 c0 -3 -4 -8 -10 -11 -5 -3 -10 -1 -10 4 0 6 5 11 10 11
6 0 10 -2 10 -4z m-30 -26 c0 -5 -5 -10 -11 -10 -5 0 -7 5 -4 10 3 6 8 10 11
10 2 0 4 -4 4 -10z m-480 -14 c0 -3 -4 -8 -10 -11 -5 -3 -10 -1 -10 4 0 6 5
11 10 11 6 0 10 -2 10 -4z m460 -16 c0 -5 -5 -10 -11 -10 -5 0 -7 5 -4 10 3 6
8 10 11 10 2 0 4 -4 4 -10z m-490 -10 c0 -5 -4 -10 -10 -10 -5 0 -10 5 -10 10
0 6 5 10 10 10 6 0 10 -4 10 -10z m-35 -29 c-3 -6 -11 -8 -17 -5 -6 4 -5 9 3
15 16 10 23 4 14 -10z m505 9 c0 -5 -4 -10 -10 -10 -5 0 -10 5 -10 10 0 6 5
10 10 10 6 0 10 -4 10 -10z m-490 -150 c0 -5 -18 -21 -40 -35 -46 -29 -105
-137 -140 -257 -12 -40 -26 -77 -31 -83 -30 -31 22 138 76 245 32 63 53 92 81
112 43 29 54 33 54 18z m-1872 -42 c-6 -17 -76 -59 -82 -49 -3 5 11 20 32 34
41 29 56 33 50 15z m1769 -229 c-3 -12 0 -22 9 -26 20 -7 18 -25 -3 -21 -11 2
-19 -7 -25 -29 -5 -18 -13 -33 -19 -33 -6 0 -9 6 -6 13 2 6 10 36 17 65 8 28
18 52 23 52 5 0 7 -9 4 -21z m531 -50 c24 -22 41 -46 39 -52 -2 -6 -24 8 -49
31 -25 23 -50 42 -57 42 -6 0 -11 5 -11 10 0 22 37 7 78 -31z m-448 -14 c0
-12 -35 -75 -42 -75 -11 0 -10 4 9 45 14 29 33 47 33 30z m50 -31 c0 -8 5 -12
10 -9 6 3 13 0 16 -8 3 -8 17 -13 34 -12 30 2 39 -8 20 -20 -5 -3 -10 -15 -10
-26 0 -10 -3 -19 -7 -19 -7 0 -95 31 -101 36 -2 1 2 19 9 38 13 37 29 48 29
20z m260 -19 c19 -14 42 -25 52 -25 21 0 23 -11 6 -28 -16 -16 -28 -15 -28 2
0 21 -35 29 -61 16 -19 -11 -25 -8 -45 16 -31 38 -30 41 10 42 21 1 45 -8 66
-23z m-2506 -1 c10 -26 7 -44 -7 -44 -8 0 -14 12 -14 30 0 32 11 40 21 14z
m2926 12 c0 -1 -5 -17 -11 -34 -12 -34 3 -63 29 -54 6 2 12 -2 12 -8 0 -8 -10
-11 -29 -7 -24 5 -31 2 -36 -13 -5 -17 -25 -29 -25 -16 0 20 43 136 50 136 6
0 10 -2 10 -4z m-2722 -31 c-8 -19 -8 -28 2 -40 7 -8 10 -19 6 -23 -4 -4 -15
4 -25 17 -12 16 -24 22 -35 18 -27 -11 -17 7 17 30 42 28 49 28 35 -2z m-613
-92 c-7 -50 -28 -93 -45 -93 -14 0 -12 9 6 28 15 14 15 17 0 27 -21 16 -20 27
2 23 13 -2 18 5 20 30 2 17 8 32 14 32 7 0 8 -17 3 -47z m147 -44 c20 -12 -1
-47 -27 -45 -30 1 -30 5 -8 54 13 31 17 34 21 17 2 -11 9 -23 14 -26z m-52
-149 c-5 -18 -5 -30 1 -30 5 0 9 -4 9 -10 0 -5 -5 -10 -11 -10 -7 0 -18 -8
-25 -17 -12 -17 -13 -16 -14 6 0 13 -8 30 -17 38 -17 13 -16 14 5 10 18 -4 25
0 32 19 14 35 30 30 20 -6z m1738 -60 c-1 -5 -29 -44 -62 -85 -69 -88 -82 -91
-150 -38 l-48 37 -18 -22 c-10 -12 -21 -22 -24 -22 -12 0 -5 20 17 45 l22 27
52 -41 c28 -23 58 -41 66 -41 8 0 42 34 74 75 52 66 81 93 71 65z"/>
<path d="M7577 6992 c-15 -17 -14 -19 15 -36 l31 -19 -6 24 c-4 13 -7 30 -7
37 0 17 -14 15 -33 -6z"/>
<path d="M6640 6825 c-15 -18 -7 -45 13 -45 8 0 20 6 26 13 8 11 6 18 -8 31
-16 15 -20 15 -31 1z"/>
<path d="M6595 6790 c3 -5 11 -10 16 -10 6 0 7 5 4 10 -3 6 -11 10 -16 10 -6
0 -7 -4 -4 -10z"/>
<path d="M7111 6554 c0 -11 3 -14 6 -6 3 7 2 16 -1 19 -3 4 -6 -2 -5 -13z"/>
<path d="M6186 6297 c3 -10 9 -15 12 -12 3 3 0 11 -7 18 -10 9 -11 8 -5 -6z"/>
<path d="M6130 6260 c0 -13 20 -13 40 0 12 8 9 10 -12 10 -16 0 -28 -4 -28
-10z"/>
<path d="M4687 6083 c-4 -3 -7 -11 -7 -17 0 -6 5 -5 12 2 6 6 9 14 7 17 -3 3
-9 2 -12 -2z"/>
<path d="M5102 5778 c2 -6 10 -14 16 -16 7 -2 10 2 6 12 -7 18 -28 22 -22 4z"/>
<path d="M6090 5675 c0 -8 4 -15 9 -15 5 0 14 7 21 15 10 13 9 15 -9 15 -12 0
-21 -6 -21 -15z"/>
<path d="M6140 5670 c0 -5 5 -10 10 -10 6 0 10 5 10 10 0 6 -4 10 -10 10 -5 0
-10 -4 -10 -10z"/>
<path d="M5536 5554 c-7 -17 17 -58 27 -47 4 3 7 15 7 26 0 16 3 17 15 7 12
-10 15 -9 15 7 0 25 -55 31 -64 7z"/>
<path d="M6703 5230 c-4 -15 -9 -18 -18 -10 -9 7 -21 7 -39 -1 -33 -16 -33
-24 3 -39 40 -16 65 -1 67 39 2 35 -5 41 -13 11z"/>
<path d="M6736 5234 c-4 -10 1 -25 10 -36 17 -18 18 -17 36 9 24 38 23 43 -11
43 -18 0 -31 -6 -35 -16z"/>
<path d="M6566 5170 l-29 -18 102 -52 c97 -48 104 -50 116 -33 28 37 25 54
-10 69 -19 8 -46 14 -61 14 -15 0 -41 9 -58 20 -31 19 -32 19 -60 0z"/>
<path d="M6725 5170 c-3 -5 1 -10 10 -10 9 0 13 5 10 10 -3 6 -8 10 -10 10 -2
0 -7 -4 -10 -10z"/>
<path d="M6770 5055 c-8 -9 -8 -15 -2 -15 6 0 14 -12 19 -26 l9 -27 18 28 c18
27 18 29 0 42 -23 17 -29 16 -44 -2z"/>
<path d="M6827 5000 c-10 -17 -13 -30 -8 -30 6 0 11 4 11 8 0 5 12 14 26 20
14 7 22 17 19 22 -11 18 -30 10 -48 -20z"/>
<path d="M4574 4747 l-29 -25 28 -11 c16 -6 33 -11 38 -11 11 0 11 27 0 54 -7
17 -9 17 -37 -7z"/>
<path d="M4510 4685 c0 -8 4 -15 10 -15 5 0 7 7 4 15 -4 8 -8 15 -10 15 -2 0
-4 -7 -4 -15z"/>
<path d="M3434 4905 c11 -8 25 -15 30 -15 6 0 2 7 -8 15 -11 8 -25 15 -30 15
-6 0 -2 -7 8 -15z"/>
<path d="M4938 4138 c-26 -35 -58 -78 -73 -96 -22 -27 -24 -33 -11 -38 37 -14
186 115 186 162 0 11 -36 34 -54 34 -1 0 -23 -28 -48 -62z"/>
<path d="M6034 3913 c-9 -21 -20 -45 -25 -55 -6 -11 -4 -18 6 -22 10 -4 21 9
36 44 24 56 25 63 10 68 -6 2 -18 -14 -27 -35z"/>
<path d="M5485 4670 c3 -5 8 -10 11 -10 2 0 4 5 4 10 0 6 -5 10 -11 10 -5 0
-7 -4 -4 -10z"/>
<path d="M4845 4549 c-4 -6 -5 -12 -2 -15 2 -3 7 2 10 11 7 17 1 20 -8 4z"/>
<path d="M2152 3535 c0 -16 2 -22 5 -12 2 9 2 23 0 30 -3 6 -5 -1 -5 -18z"/>
<path d="M2188 3535 c2 -14 8 -25 13 -25 5 0 9 11 9 25 0 14 -6 25 -14 25 -9
0 -12 -8 -8 -25z"/>
<path d="M2242 3538 c6 -18 25 -20 31 -3 5 10 0 15 -14 15 -12 0 -19 -5 -17
-12z"/>
<path d="M1960 3470 c-12 -8 -9 -10 13 -10 23 0 29 -5 34 -30 6 -32 17 -39 26
-16 7 17 -28 66 -46 66 -7 0 -19 -5 -27 -10z"/>
<path d="M2435 3370 c-18 -8 -17 -9 7 -9 14 -1 35 -4 45 -8 16 -6 16 -5 4 10
-15 19 -26 20 -56 7z"/>
<path d="M3070 3496 c0 -18 35 -27 49 -13 18 18 12 27 -19 27 -19 0 -30 -5
-30 -14z"/>
<path d="M4300 3451 c0 -6 4 -13 10 -16 6 -3 7 1 4 9 -7 18 -14 21 -14 7z"/>
<path d="M1900 2915 c7 -8 16 -12 21 -9 13 8 1 24 -18 24 -13 0 -13 -3 -3 -15z"/>
<path d="M4550 2650 c0 -5 5 -10 11 -10 5 0 7 5 4 10 -3 6 -8 10 -11 10 -2 0
-4 -4 -4 -10z"/>
<path d="M3179 2363 c-13 -16 -12 -17 4 -4 16 13 21 21 13 21 -2 0 -10 -8 -17
-17z"/>
<path d="M4500 1485 c-14 -8 -20 -14 -14 -15 5 0 19 7 30 15 24 18 16 19 -16
0z"/>
<path d="M3010 556 c6 -8 18 -12 26 -9 19 7 7 23 -18 23 -17 0 -18 -3 -8 -14z"/>
<path d="M7770 791 c0 -6 4 -13 10 -16 6 -3 7 1 4 9 -7 18 -14 21 -14 7z"/>
<path d="M7796 725 c7 -34 44 -114 56 -121 17 -10 6 23 -27 86 -23 44 -33 55
-29 35z"/>
<path d="M7790 637 c0 -17 5 -27 15 -27 19 0 19 9 0 34 -14 19 -15 19 -15 -7z"/>
<path d="M7856 545 c-3 -9 -3 -21 0 -27 4 -6 2 -13 -3 -17 -6 -3 -14 -17 -18
-29 -6 -21 -5 -23 13 -13 11 6 22 25 25 48 7 39 -6 67 -17 38z"/>
<path d="M7792 488 c6 -18 28 -21 28 -4 0 9 -7 16 -16 16 -9 0 -14 -5 -12 -12z"/>
<path d="M7840 436 c-14 -8 -28 -12 -32 -10 -5 3 -8 -10 -8 -29 0 -39 11 -46
58 -40 34 6 39 20 26 71 -7 26 -10 26 -44 8z"/>
<path d="M7931 415 c-1 -57 38 -294 52 -320 l16 -30 1 65 c0 87 -24 220 -49
267 -14 27 -20 32 -20 18z"/>
<path d="M7800 331 c0 -6 5 -13 10 -16 6 -3 10 1 10 9 0 9 -4 16 -10 16 -5 0
-10 -4 -10 -9z"/>
<path d="M7829 291 c-14 -48 -7 -71 23 -71 12 0 37 -15 56 -32 l34 -33 -6 60
c-11 97 -16 117 -29 107 -7 -5 -21 -6 -32 -1 -32 12 -34 11 -46 -30z"/>
<path d="M7773 104 l-31 -104 119 0 119 0 0 30 c0 66 -79 159 -146 173 l-30 6
-31 -105z"/>
</g>
</svg>
