<?xml version="1.0" standalone="no"?>
<!DOCTYPE svg PUBLIC "-//W3C//DTD SVG 20010904//EN"
 "http://www.w3.org/TR/2001/REC-SVG-20010904/DTD/svg10.dtd">
<svg version="1.0" xmlns="http://www.w3.org/2000/svg"
 width="800.000000pt" height="800.000000pt" viewBox="0 0 800.000000 800.000000"
 preserveAspectRatio="xMidYMid meet">
<metadata>
Created by potrace 1.16, written by Peter Selinger 2001-2019
</metadata>
<g transform="translate(0.000000,800.000000) scale(0.100000,-0.100000)"
fill="#000000" stroke="none">
<path d="M0 7662 l0 -338 30 -29 c16 -16 30 -33 30 -39 0 -5 -14 3 -30 19
l-30 29 0 -1421 0 -1421 23 -6 c12 -3 36 -6 52 -7 17 0 39 -5 50 -10 14 -6 -3
-8 -52 -4 l-73 5 0 -86 c0 -76 2 -85 15 -74 19 16 19 0 0 -26 -12 -17 -14
-290 -15 -2136 l0 -2118 4000 0 4000 0 0 1150 c0 633 -3 1150 -7 1150 -5 0
-26 -12 -48 -25 -41 -26 -118 -34 -130 -15 -4 6 13 10 42 10 37 0 61 7 96 30
l47 30 0 79 0 79 -91 188 c-63 130 -93 204 -97 237 -3 33 -1 47 8 47 8 0 10
-8 6 -26 -9 -36 38 -139 60 -130 8 3 20 6 25 6 5 0 9 9 9 20 0 31 17 24 24
-10 4 -24 11 -30 31 -30 l25 0 0 2605 0 2605 -2335 0 c-2328 0 -2335 0 -2335
-20 0 -11 -4 -20 -10 -20 -5 0 -10 9 -10 20 0 20 -7 20 -1655 20 l-1655 0 0
-338z m3323 258 c-3 -11 -7 -20 -9 -20 -2 0 -4 9 -4 20 0 11 4 20 9 20 5 0 7
-9 4 -20z m-33 -20 c0 -11 -4 -20 -9 -20 -5 0 -7 9 -4 20 3 11 7 20 9 20 2 0
4 -9 4 -20z m-4 -56 c-3 -9 -6 -18 -6 -20 0 -2 -7 -4 -15 -4 -18 0 -19 6 -2
25 16 19 31 19 23 -1z m2 -214 c-13 -20 -28 -27 -28 -12 0 10 22 32 32 32 5 0
3 -9 -4 -20z m-32 -67 c-11 -11 -19 6 -11 24 8 17 8 17 12 0 3 -10 2 -21 -1
-24z m-6 -43 c0 -11 -4 -20 -10 -20 -5 0 -10 9 -10 20 0 11 5 20 10 20 6 0 10
-9 10 -20z m10 -72 c0 -5 -4 -8 -10 -8 -5 0 -10 10 -10 23 0 18 2 19 10 7 5
-8 10 -18 10 -22z m18 -32 c-10 -7 -18 -18 -18 -25 0 -6 -4 -11 -10 -11 -5 0
-10 9 -10 19 0 20 13 29 40 30 12 0 11 -2 -2 -13z m-2208 -45 c0 -10 -9 -21
-20 -24 -11 -3 -24 -17 -30 -31 -5 -14 -15 -26 -21 -26 -6 0 -8 7 -5 16 4 12
1 14 -14 9 -11 -4 -20 -2 -20 3 0 14 27 23 45 15 20 -7 16 17 -5 35 -13 11
-11 12 13 7 15 -3 27 -1 27 5 0 5 7 10 15 10 8 0 15 -8 15 -19z m2177 -43 c-3
-7 -5 -2 -5 12 0 14 2 19 5 13 2 -7 2 -19 0 -25z m0 -60 c-3 -7 -5 -2 -5 12 0
14 2 19 5 13 2 -7 2 -19 0 -25z m13 -48 c0 -11 -4 -20 -10 -20 -5 0 -10 9 -10
20 0 11 5 20 10 20 6 0 10 -9 10 -20z m10 -72 c0 -5 -4 -8 -10 -8 -5 0 -10 10
-10 23 0 18 2 19 10 7 5 -8 10 -18 10 -22z m10 -54 c0 -8 -4 -14 -10 -14 -5 0
-10 9 -10 21 0 11 5 17 10 14 6 -3 10 -13 10 -21z m26 -62 c-9 -8 -26 10 -26
26 1 15 2 15 15 -2 8 -11 13 -21 11 -24z m24 -43 c0 -11 -4 -17 -10 -14 -5 3
-10 15 -10 26 0 11 5 17 10 14 6 -3 10 -15 10 -26z m20 -55 c0 -8 -4 -14 -10
-14 -5 0 -10 9 -10 21 0 11 5 17 10 14 6 -3 10 -13 10 -21z m20 -60 c0 -8 -4
-14 -10 -14 -5 0 -10 9 -10 21 0 11 5 17 10 14 6 -3 10 -13 10 -21z m-170 -1
c2 -2 -1 -7 -7 -11 -6 -4 -14 -22 -18 -40 -9 -41 -25 -32 -25 15 0 34 -1 35
-30 30 -16 -4 -30 -2 -30 3 0 17 92 20 110 3z m190 -61 c0 -7 -4 -10 -10 -7
-5 3 -10 16 -10 28 0 18 2 19 10 7 5 -8 10 -21 10 -28z m20 -48 c0 -8 -4 -14
-10 -14 -5 0 -10 9 -10 21 0 11 5 17 10 14 6 -3 10 -13 10 -21z m24 -50 c4
-10 1 -14 -6 -12 -15 5 -23 28 -10 28 5 0 13 -7 16 -16z m38 -48 c10 -17 -6
-24 -17 -6 -3 5 -12 7 -19 4 -7 -3 -19 2 -26 11 -11 13 -8 15 20 12 18 -2 37
-11 42 -21z m20 -50 c4 -6 5 -19 2 -30 -4 -10 -2 -16 3 -13 6 4 15 -11 22 -32
14 -47 14 -61 1 -61 -5 0 -10 9 -10 20 0 11 -4 20 -10 20 -5 0 -7 6 -4 14 3 7
-2 16 -11 20 -12 4 -15 13 -11 31 5 18 3 23 -8 19 -8 -3 -16 3 -19 16 -5 18
-2 20 16 14 12 -4 25 -12 29 -18z m-2582 -36 c0 -5 -9 -10 -20 -10 -11 0 -20
5 -20 10 0 6 9 10 20 10 11 0 20 -4 20 -10z m-50 -19 c0 -5 -7 -12 -16 -15
-24 -9 -28 -7 -14 9 14 17 30 20 30 6z m-46 -56 c-6 -16 -24 -21 -24 -7 0 11
11 22 21 22 5 0 6 -7 3 -15z m-43 -58 c-16 -16 -26 0 -10 19 9 11 15 12 17 4
2 -6 -1 -17 -7 -23z m2769 -19 c0 -5 -4 -8 -10 -8 -5 0 -10 10 -10 23 0 18 2
19 10 7 5 -8 10 -18 10 -22z m-2814 -20 c-16 -22 -16 -22 -16 -1 0 12 6 23 13
26 19 7 20 0 3 -25z m2834 -23 c14 -16 10 -18 -14 -9 -9 3 -16 10 -16 15 0 14
16 11 30 -6z m44 -11 c23 -9 20 -23 -4 -17 -11 3 -20 9 -20 14 0 11 3 11 24 3z
m76 -24 c0 -5 -6 -10 -14 -10 -8 0 -18 5 -21 10 -3 6 3 10 14 10 12 0 21 -4
21 -10z m55 -20 c3 -5 -3 -10 -14 -10 -12 0 -21 5 -21 10 0 6 6 10 14 10 8 0
18 -4 21 -10z m43 -39 c3 -8 -1 -12 -9 -9 -7 2 -15 10 -17 17 -3 8 1 12 9 9 7
-2 15 -10 17 -17z m36 -37 c9 -24 7 -28 -9 -14 -17 14 -20 30 -6 30 5 0 12 -7
15 -16z m-3409 -34 c3 -5 1 -10 -4 -10 -6 0 -11 5 -11 10 0 6 2 10 4 10 3 0 8
-4 11 -10z m3458 -22 c-5 -10 -33 10 -33 23 0 5 9 4 19 -3 11 -7 17 -16 14
-20z m45 -44 c-10 -10 -28 6 -28 24 0 15 1 15 17 -1 9 -9 14 -19 11 -23z m392
-93 c0 -59 4 -92 13 -99 6 -5 67 -20 135 -32 67 -12 122 -26 122 -31 0 -13 -9
-12 -134 12 -156 29 -153 27 -154 143 -1 56 3 96 8 96 6 0 10 -39 10 -89z
m-355 59 c10 -11 14 -20 8 -20 -5 0 -18 9 -28 20 -10 11 -14 20 -8 20 5 0 18
-9 28 -20z m-3375 -30 c35 -18 60 -40 45 -40 -12 0 -84 40 -90 50 -9 15 1 12
45 -10z m541 -37 c-9 -16 -10 -14 -11 12 0 21 3 26 11 18 8 -8 8 -16 0 -30z
m2862 15 c4 -12 4 -24 1 -27 -6 -7 -24 20 -24 37 0 21 17 13 23 -10z m-3403
-55 c0 -14 -31 -33 -54 -33 -9 0 -13 6 -10 15 3 8 -5 25 -20 38 -14 13 -23 26
-20 30 9 8 104 -37 104 -50z m3410 3 c0 -8 -4 -18 -10 -21 -5 -3 -10 3 -10 14
0 12 5 21 10 21 6 0 10 -6 10 -14z m-2870 -16 c0 -11 -4 -20 -10 -20 -5 0 -10
9 -10 20 0 11 5 20 10 20 6 0 10 -9 10 -20z m-413 -27 c-3 -10 -5 -4 -5 12 0
17 2 24 5 18 2 -7 2 -21 0 -30z m3256 -13 c-3 -11 -9 -20 -14 -20 -10 0 -12
24 -2 33 13 13 21 7 16 -13z m697 -12 c0 -6 -7 -7 -16 -4 -9 3 -18 6 -20 6 -3
0 -3 4 1 10 7 11 35 2 35 -12z m-3554 -25 c-11 -11 -17 4 -9 23 7 18 8 18 11
1 2 -10 1 -21 -2 -24z m-399 -15 c-3 -7 -5 -2 -5 12 0 14 2 19 5 13 2 -7 2
-19 0 -25z m3243 -8 c0 -11 -4 -20 -10 -20 -5 0 -10 9 -10 20 0 11 5 20 10 20
6 0 10 -9 10 -20z m-2869 -33 c-8 -8 -11 -7 -11 4 0 20 13 34 18 19 3 -7 -1
-17 -7 -23z m-351 1 c-21 -51 -31 -130 -18 -145 9 -11 9 -16 -3 -24 -9 -6 -11
-11 -3 -16 14 -10 25 -53 13 -53 -5 0 -13 10 -18 22 -5 14 -10 17 -15 10 -4
-7 -14 -12 -23 -12 -14 0 -14 2 1 19 9 10 17 29 18 42 0 21 10 82 24 157 2 12
11 22 19 22 11 0 12 -5 5 -22z m70 6 c0 -2 -12 -4 -26 -4 -14 0 -23 4 -20 9 6
8 46 4 46 -5z m55 -4 c4 -6 -5 -10 -20 -10 -15 0 -24 4 -20 10 3 6 12 10 20
10 8 0 17 -4 20 -10z m58 -7 c-7 -2 -21 -2 -30 0 -10 3 -4 5 12 5 17 0 24 -2
18 -5z m57 -13 c0 -13 -11 -13 -30 0 -12 8 -11 10 8 10 12 0 22 -4 22 -10z
m2980 -11 c0 -11 -4 -17 -10 -14 -5 3 -10 13 -10 21 0 8 5 14 10 14 6 0 10 -9
10 -21z m450 11 c0 -5 -2 -10 -4 -10 -3 0 -8 5 -11 10 -3 6 -1 10 4 10 6 0 11
-4 11 -10z m-3330 -15 c-7 -8 -17 -15 -22 -15 -6 0 -5 7 2 15 7 8 17 15 22 15
6 0 5 -7 -2 -15z m40 -11 c0 -8 -4 -12 -10 -9 -5 3 -10 13 -10 21 0 8 5 12 10
9 6 -3 10 -13 10 -21z m3204 -1 c17 -5 31 -14 34 -21 2 -8 -11 -6 -42 4 -25 9
-46 19 -46 23 0 13 13 22 19 13 3 -5 19 -13 35 -19z m-3294 -5 c0 -13 -23 -5
-28 10 -2 7 2 10 12 6 9 -3 16 -11 16 -16z m153 -5 c-7 -2 -21 -2 -30 0 -10 3
-4 5 12 5 17 0 24 -2 18 -5z m52 -4 c11 -17 0 -20 -21 -4 -17 13 -17 14 -2 15
9 0 20 -5 23 -11z m4875 -8 c0 -9 -84 -31 -117 -31 -30 0 0 18 47 28 60 13 70
14 70 3z m-2148 -33 c-9 -9 -12 -7 -12 12 0 19 3 21 12 12 9 -9 9 -15 0 -24z
m-2681 6 c12 -14 11 -16 -5 -13 -11 2 -21 10 -24 17 -5 17 13 15 29 -4z m59
-56 c0 -5 -11 -1 -25 8 -14 9 -22 20 -19 26 6 10 44 -19 44 -34z m2630 2 c0
-11 -4 -20 -9 -20 -6 0 -9 9 -8 20 1 11 5 20 9 20 4 0 8 -9 8 -20z m93 0 c-3
-11 -9 -23 -14 -26 -10 -6 -12 29 -2 39 13 13 21 7 16 -13z m-2213 -29 c0 -13
-51 -73 -58 -67 -5 5 45 76 54 76 2 0 4 -4 4 -9z m2119 -23 c0 -7 -4 -22 -9
-33 -7 -17 -9 -15 -9 13 -1 17 4 32 9 32 6 0 10 -6 9 -12z m-175 -55 c-4 -26
-8 -100 -9 -163 -2 -180 -2 -179 -30 -192 -14 -6 -29 -25 -36 -45 -16 -51 -63
-119 -67 -99 -2 9 8 30 22 47 14 17 26 40 26 51 0 11 14 33 32 50 30 28 32 35
38 121 4 51 3 107 -2 126 -8 29 -1 90 18 150 10 31 16 -1 8 -46z m-3004 7 c0
-5 -9 -6 -20 -3 -11 3 -17 9 -15 14 7 10 35 1 35 -11z m3384 -26 c24 -38 31
-62 37 -136 7 -88 22 -125 45 -110 6 4 30 33 53 65 46 61 48 62 71 47 13 -8
11 -11 -7 -16 -12 -3 -41 -30 -63 -60 -22 -30 -48 -54 -56 -54 -13 0 -15 -7
-10 -37 3 -21 9 -70 12 -109 l6 -71 97 -35 c87 -31 96 -37 93 -58 -3 -19 -59
-155 -92 -225 -19 -39 -40 -108 -40 -131 0 -12 7 -30 16 -39 14 -13 14 -22 3
-68 -12 -52 -73 -146 -96 -147 -6 0 -26 -18 -43 -40 -27 -34 -33 -38 -46 -26
-18 18 -18 26 0 26 8 0 17 7 20 16 3 8 10 13 15 10 10 -7 57 29 71 53 8 15 5
18 -22 19 -17 0 -47 3 -67 7 -36 6 -36 6 -74 -65 -22 -39 -37 -72 -35 -73 1
-2 21 -11 43 -22 39 -19 39 -19 13 -23 -15 -2 -37 2 -49 8 -19 11 -25 8 -45
-16 -18 -23 -94 -199 -94 -218 0 -2 21 -11 47 -20 42 -14 48 -14 56 -1 4 8 12
15 17 15 27 0 177 -63 187 -78 15 -25 29 -237 15 -228 -10 6 -20 49 -37 149
-7 46 -22 47 -80 7 -28 -20 -56 -30 -79 -30 -20 0 -36 -2 -36 -4 0 -2 -3 -11
-6 -20 -4 -11 -1 -16 10 -16 9 0 16 -4 16 -10 0 -12 -20 -13 -39 -1 -9 6 -11
18 -7 35 5 19 3 26 -9 26 -19 0 -19 -1 5 55 11 26 20 53 20 60 0 7 -20 20 -45
28 -25 9 -45 12 -45 6 0 -5 -8 -1 -18 9 -10 10 -53 26 -96 36 -66 16 -79 17
-87 5 -5 -8 -26 -65 -46 -127 -28 -87 -34 -115 -24 -121 18 -11 4 -101 -15
-101 -29 0 -2 -73 29 -76 7 -1 18 -2 25 -3 6 0 12 -8 12 -16 0 -8 17 -19 43
-25 23 -6 87 -24 142 -40 56 -17 101 -25 103 -20 6 16 22 12 22 -5 0 -8 7 -15
15 -15 8 0 15 4 15 8 0 4 52 7 115 7 63 0 115 -3 115 -7 0 -3 9 -4 20 -1 11 3
20 10 20 15 0 5 -4 7 -9 3 -5 -3 -12 -1 -16 5 -3 5 -14 10 -24 10 -30 0 -45
42 -31 85 11 35 14 37 43 31 18 -4 50 -15 72 -25 22 -10 52 -21 66 -25 14 -3
38 -17 55 -31 51 -45 203 -113 269 -120 45 -5 75 -17 120 -45 67 -42 111 -65
203 -106 34 -15 58 -32 54 -36 -5 -5 -34 3 -65 17 -55 26 -77 26 -77 2 0 -7
28 -29 61 -50 82 -50 69 -59 -16 -10 -60 35 -65 40 -61 66 4 20 1 29 -12 34
-9 4 -35 19 -56 35 -39 28 -66 36 -66 19 0 -6 5 -13 10 -16 6 -4 7 -11 4 -17
-4 -6 -9 -21 -11 -32 -2 -12 -6 -35 -9 -53 -5 -28 -3 -33 20 -39 15 -3 32 -14
39 -24 20 -29 90 -58 158 -66 57 -6 68 -11 104 -48 22 -23 51 -49 64 -59 14
-9 22 -19 19 -22 -6 -7 -78 34 -78 44 0 3 -11 18 -25 33 -19 20 -38 28 -82 33
-66 8 -173 51 -173 70 0 7 -12 16 -26 19 -14 4 -35 18 -47 31 l-22 24 -70 -44
c-38 -24 -74 -46 -79 -48 -10 -3 73 -167 99 -197 14 -16 88 -178 100 -217 4
-14 2 -23 -4 -23 -6 0 -11 5 -11 11 0 19 -90 212 -109 234 -9 11 -25 36 -36
57 l-19 36 -35 -24 c-20 -13 -40 -24 -46 -24 -6 0 -27 34 -48 75 -36 73 -36
75 -16 86 11 6 26 8 33 6 7 -3 19 -1 27 3 11 7 8 15 -16 40 -34 36 -48 44 -87
54 -27 6 -28 5 -28 -29 0 -19 -4 -35 -10 -35 -5 0 -10 15 -10 34 0 41 -2 43
-59 47 l-44 3 -17 -49 c-9 -28 -15 -57 -13 -65 4 -16 57 -43 106 -55 l24 -6
-18 -67 c-26 -94 -25 -97 21 -111 22 -6 40 -16 40 -20 0 -5 20 -12 45 -15 24
-4 48 -12 51 -18 7 -11 -55 -6 -89 8 -8 3 -17 -2 -20 -10 -4 -10 -1 -16 8 -16
8 0 15 -5 15 -11 0 -6 -7 -9 -15 -5 -11 4 -15 -1 -15 -19 0 -14 -4 -25 -10
-25 -5 0 -10 5 -10 10 0 6 -19 10 -42 10 -37 -1 -50 -7 -90 -45 -36 -32 -48
-51 -48 -72 0 -31 -14 -60 -23 -46 -15 24 13 89 56 128 50 46 65 75 39 76 -13
0 -12 2 5 9 15 6 24 21 29 47 13 62 2 83 -43 83 -26 0 -28 7 -8 34 8 10 12 23
9 27 -3 5 0 9 6 9 6 0 10 -12 8 -26 -2 -20 3 -29 20 -35 20 -8 25 -4 38 26 23
55 19 61 -48 80 -35 9 -66 19 -69 21 -4 2 -3 21 2 41 5 23 4 42 -1 47 -7 7
-10 4 -10 -7 0 -9 -4 -17 -10 -17 -5 0 -10 16 -10 35 0 31 -3 35 -25 35 -14 0
-25 4 -25 8 0 18 36 38 60 34 14 -2 39 -5 55 -7 17 -2 58 -6 92 -10 l61 -7 4
28 c5 41 20 39 50 -9 15 -23 45 -60 67 -82 22 -22 40 -46 41 -52 0 -19 12 -16
61 15 24 16 57 36 72 46 15 9 25 21 22 27 -4 5 -11 7 -16 4 -18 -12 -8 21 12
39 14 12 30 16 48 12 22 -5 24 -4 10 6 -8 7 -18 21 -22 31 -5 13 -19 17 -67
18 -33 1 -63 2 -67 3 -5 1 -39 5 -78 9 -38 5 -83 10 -99 14 -26 5 -28 3 -23
-16 7 -27 -3 -27 -31 0 -21 19 -30 20 -165 13 l-142 -7 -122 42 c-68 22 -125
41 -128 41 -3 0 -5 -7 -5 -15 0 -10 10 -15 34 -15 19 0 38 -5 42 -11 4 -8 -8
-10 -40 -8 -32 3 -46 0 -47 -8 -5 -43 -3 -73 4 -73 4 0 7 5 7 10 0 6 9 10 20
10 17 0 19 -5 14 -25 -4 -15 -1 -32 6 -40 17 -20 30 -19 30 3 0 21 17 48 25
40 3 -3 -3 -43 -15 -88 -12 -46 -19 -88 -16 -95 2 -7 23 -16 45 -20 60 -10 66
-29 6 -21 -26 4 -53 10 -60 12 -7 3 -16 -8 -20 -28 l-9 -33 -3 38 c-3 23 -10
38 -19 39 -8 0 -19 1 -26 2 -7 1 -15 -9 -18 -22 -7 -31 -25 -24 -22 8 3 21 -4
28 -39 43 -24 10 -53 17 -66 14 -12 -2 -24 -1 -25 4 -2 4 -14 10 -28 14 -23 5
-26 2 -42 -52 -27 -89 -26 -88 -94 -57 -67 30 -150 37 -165 13 -7 -11 -9 -11
-9 4 0 11 9 21 20 24 28 7 25 18 -12 47 -38 29 -45 27 -54 -19 -3 -19 -12 -39
-19 -45 -15 -13 -8 24 19 100 9 25 21 70 26 100 6 30 15 62 20 70 17 27 19 4
5 -45 -8 -26 -15 -65 -15 -85 0 -32 6 -41 46 -70 35 -24 48 -30 54 -20 4 7 19
11 33 8 16 -3 28 1 36 14 6 10 17 18 25 18 22 0 28 31 10 51 -14 16 -14 26 -1
17 2 -2 11 3 19 10 13 10 17 10 20 0 7 -19 34 39 43 90 6 35 4 42 -9 42 -9 0
-16 5 -16 11 0 6 6 9 13 6 41 -15 57 -17 57 -8 0 6 7 11 15 11 12 0 13 -3 3
-19 -7 -11 -20 -22 -30 -24 -11 -3 -18 -14 -18 -31 0 -14 -5 -37 -12 -51 -10
-23 -10 -28 5 -37 10 -5 15 -13 12 -18 -3 -5 4 -11 15 -15 11 -3 20 -10 20
-14 0 -11 78 -33 91 -26 7 5 6 11 -1 20 -8 9 -8 14 1 17 9 3 38 69 39 90 0 3
-20 14 -45 24 -25 9 -45 21 -45 25 0 12 3 12 50 -7 27 -11 45 -13 51 -7 6 6
-12 16 -51 28 -33 10 -60 22 -60 27 0 12 15 10 72 -12 40 -15 54 -17 60 -7 12
18 10 29 -9 43 -17 13 -17 13 2 14 11 0 25 11 32 25 11 24 10 25 -54 45 -91
28 -105 27 -92 -6 5 -15 7 -29 4 -32 -11 -11 -19 10 -20 48 0 28 -4 39 -12 35
-7 -2 -24 16 -39 41 -24 40 -26 49 -16 82 6 20 14 60 18 87 3 28 22 96 41 153
20 57 33 105 30 108 -3 3 -62 26 -132 50 -105 36 -139 44 -199 44 -43 0 -89 6
-110 15 -20 9 -41 13 -45 10 -13 -7 -66 22 -67 37 -1 21 -74 158 -84 158 -5 0
-26 -11 -46 -25 -44 -30 -69 -33 -35 -5 19 17 21 23 11 35 -19 22 -3 31 19 11
15 -14 20 -14 30 -2 9 11 7 24 -11 60 l-22 46 27 25 c18 17 21 18 7 3 l-19
-22 56 -107 c42 -80 60 -106 72 -102 13 4 13 3 2 -5 -11 -8 -10 -15 7 -40 30
-41 91 -63 202 -73 69 -6 128 -19 215 -49 66 -22 126 -38 132 -35 18 6 16 25
-2 25 -8 0 -15 5 -15 11 0 6 9 9 19 6 14 -3 22 2 30 22 17 43 51 167 51 184 0
9 8 22 18 29 16 11 52 122 52 161 0 13 -89 47 -123 47 -10 0 -17 5 -17 10 0
14 13 13 76 -6 31 -9 61 -14 67 -11 7 3 23 57 37 122 19 97 21 118 10 125 -17
11 -30 4 -30 -15 0 -8 -11 -17 -24 -21 -31 -7 -57 -37 -89 -99 -17 -32 -26
-43 -26 -30 -1 36 58 126 90 139 23 8 34 23 51 68 11 32 24 55 29 52 4 -2 4
-16 -1 -30 -13 -34 -12 -44 4 -44 8 0 17 15 21 37 5 27 39 125 60 170 2 4 220
-59 227 -66 4 -3 -3 -40 -16 -82 l-23 -76 84 -20 c46 -11 86 -17 88 -13 3 4
23 51 44 104 40 97 40 97 18 105 -145 54 -149 55 -162 38 -7 -9 -14 -17 -16
-17 -2 0 -4 32 -4 72 l0 72 -85 13 c-83 12 -85 12 -103 -10 l-19 -22 7 30 c4
16 8 31 10 33 2 2 35 -1 74 -7 38 -6 81 -11 95 -11 l25 0 -19 68 c-10 37 -22
92 -26 122 -10 81 -18 92 -62 85 l-37 -6 35 20 c19 10 38 17 42 14 17 -10 7
24 -17 59 -26 39 -30 48 -17 48 4 0 20 -21 36 -46z m-3324 16 c0 -5 -6 -10
-14 -10 -8 0 -18 5 -21 10 -3 6 3 10 14 10 12 0 21 -4 21 -10z m108 -9 c3 -8
-1 -12 -9 -9 -7 2 -15 10 -17 17 -3 8 1 12 9 9 7 -2 15 -10 17 -17z m-48 -1
c0 -5 -9 -10 -20 -10 -11 0 -20 5 -20 10 0 6 9 10 20 10 11 0 20 -4 20 -10z
m170 -6 c0 -2 -12 -4 -26 -4 -14 0 -23 4 -20 9 6 8 46 4 46 -5z m-65 -4 c-3
-5 -13 -10 -21 -10 -8 0 -14 5 -14 10 0 6 9 10 21 10 11 0 17 -4 14 -10z m100
0 c3 -5 -1 -10 -10 -10 -9 0 -13 5 -10 10 3 6 8 10 10 10 2 0 7 -4 10 -10z
m2838 -5 c-3 -9 -8 -14 -10 -11 -3 3 -2 9 2 15 9 16 15 13 8 -4z m110 -52 c5
-46 3 -62 -8 -51 -11 10 -17 98 -8 98 6 0 13 -21 16 -47z m-117 1 c-3 -9 -6
-18 -6 -20 0 -2 -4 -4 -9 -4 -5 0 -7 9 -4 20 3 11 10 20 15 20 6 0 7 -7 4 -16z
m-30 -70 c-4 -9 -9 -15 -11 -12 -3 3 -3 13 1 22 4 9 9 15 11 12 3 -3 3 -13 -1
-22z m-2923 -31 c20 -12 2 -18 -43 -15 -43 3 -49 6 -39 18 11 14 57 12 82 -3z
m2903 -19 c-4 -9 -9 -15 -11 -12 -3 3 -3 13 1 22 4 9 9 15 11 12 3 -3 3 -13
-1 -22z m506 -26 c5 -44 4 -47 -13 -37 -15 8 -17 14 -9 29 5 10 10 29 10 41 0
36 7 18 12 -33z m-3424 10 c-3 -7 -13 -15 -24 -17 -16 -3 -17 -1 -5 13 16 19
34 21 29 4z m2902 -25 c0 -14 -19 -38 -25 -32 -8 8 5 39 16 39 5 0 9 -3 9 -7z
m-34 -69 c-4 -9 -9 -15 -11 -12 -3 3 -3 13 1 22 4 9 9 15 11 12 3 -3 3 -13 -1
-22z m604 6 c0 -5 -4 -10 -10 -10 -5 0 -10 5 -10 10 0 6 5 10 10 10 6 0 10 -4
10 -10z m-626 -55 c-4 -8 -10 -15 -15 -15 -4 0 -6 7 -3 15 4 8 10 15 15 15 4
0 6 -7 3 -15z m585 -51 c-9 -11 -8 -14 4 -14 9 0 19 5 22 10 3 6 19 10 36 10
35 0 40 -27 9 -55 -17 -16 -20 -16 -20 -2 0 12 -10 16 -40 15 -23 0 -43 2 -46
5 -9 9 27 57 38 51 5 -3 4 -12 -3 -20z m-615 -8 c-3 -9 -10 -16 -15 -16 -6 0
-5 9 1 21 13 24 24 20 14 -5z m-28 -63 c-11 -11 -17 4 -9 23 7 18 8 18 11 1 2
-10 1 -21 -2 -24z m-16 -44 c-7 -11 -14 -18 -17 -15 -8 8 5 36 17 36 7 0 7 -6
0 -21z m-106 -40 c-8 -17 -30 -54 -48 -83 -37 -58 -108 -197 -104 -202 2 -1
15 -9 30 -17 19 -10 24 -17 17 -28 -7 -10 -11 -11 -17 -2 -4 6 -41 28 -82 47
l-75 36 -7 -26 c-4 -14 -12 -32 -18 -39 -6 -8 -9 -23 -5 -35 6 -20 -9 -28 -20
-10 -3 6 -15 10 -26 10 -10 0 -19 5 -19 10 0 6 5 10 10 10 16 0 47 32 54 58 6
19 4 22 -18 22 -14 0 -26 5 -26 10 0 18 84 9 135 -14 l50 -22 35 75 c19 42 49
96 66 121 17 25 39 60 48 78 9 17 21 32 27 32 5 0 2 -14 -7 -31z m67 -22 c-8
-8 -11 -7 -11 4 0 20 13 34 18 19 3 -7 -1 -17 -7 -23z m587 15 c2 -7 -2 -10
-12 -6 -9 3 -16 11 -16 16 0 13 23 5 28 -10z m-368 -22 c0 -5 -4 -10 -9 -10
-6 0 -13 5 -16 10 -3 6 1 10 9 10 9 0 16 -4 16 -10z m-1131 -84 c12 -37 20
-70 17 -73 -9 -9 -43 71 -50 117 -10 62 6 41 33 -44z m1605 66 c-4 -49 -4 -48
-19 -28 -20 27 -19 45 3 42 9 -2 17 -8 16 -14z m-717 -17 c-4 -8 -11 -15 -17
-15 -7 0 -7 6 0 21 13 23 26 19 17 -6z m1009 9 c-3 -9 -6 -20 -6 -25 0 -5 -6
-9 -12 -9 -27 -1 -57 -40 -87 -112 -18 -42 -41 -84 -53 -94 -11 -11 -19 -14
-16 -9 2 6 21 45 41 87 20 42 37 81 37 87 0 5 -25 18 -55 27 -30 10 -55 21
-55 26 0 12 9 10 66 -12 52 -19 52 -19 47 1 -5 17 -2 19 20 14 19 -5 28 -2 37
14 13 25 45 29 36 5z m-1040 -71 c-11 -11 -17 4 -9 23 7 18 8 18 11 1 2 -10 1
-21 -2 -24z m-12 -40 c4 -9 3 -20 -1 -24 -13 -13 -34 6 -27 24 8 22 20 22 28
0z m-64 -29 c0 -8 -4 -12 -10 -9 -5 3 -10 13 -10 21 0 8 5 12 10 9 6 -3 10
-13 10 -21z m-672 -14 c17 -11 32 -24 32 -30 0 -15 -9 -12 -37 10 -14 11 -32
20 -39 20 -8 0 -14 5 -14 10 0 16 22 12 58 -10z m699 -15 c-4 -8 -11 -15 -17
-15 -7 0 -7 6 0 21 13 23 26 19 17 -6z m-2827 -12 c0 -15 -6 -23 -16 -23 -13
0 -14 -3 -5 -14 15 -18 3 -46 -20 -46 -23 0 -23 4 -4 62 17 48 45 62 45 21z
m115 -34 c-8 -28 -11 -57 -8 -65 3 -8 -1 -14 -10 -14 -8 0 -17 -9 -20 -20 -3
-13 -10 -18 -21 -14 -9 3 -16 10 -16 16 0 5 4 7 8 4 9 -5 46 76 58 126 3 16
10 26 14 23 5 -3 2 -28 -5 -56z m2770 51 c3 -5 -1 -10 -9 -10 -8 0 -18 5 -21
10 -3 6 1 10 9 10 8 0 18 -4 21 -10z m1105 -29 c0 -12 -20 -25 -27 -18 -7 7 6
27 18 27 5 0 9 -4 9 -9z m-1199 -34 c-16 -16 -26 0 -10 19 9 11 15 12 17 4 2
-6 -1 -17 -7 -23z m1189 -29 c0 -5 -4 -8 -10 -8 -5 0 -10 10 -10 23 0 18 2 19
10 7 5 -8 10 -18 10 -22z m160 22 c12 -8 9 -10 -12 -10 -16 0 -28 5 -28 10 0
13 20 13 40 0z m70 -10 c0 -5 -9 -10 -20 -10 -11 0 -20 5 -20 10 0 6 9 10 20
10 11 0 20 -4 20 -10z m-1890 -63 c0 -6 -11 0 -25 13 -14 13 -25 28 -25 33 0
6 11 0 25 -13 14 -13 25 -28 25 -33z m1608 21 c-2 -6 -10 -14 -16 -16 -7 -2
-10 2 -6 12 7 18 28 22 22 4z m-1162 -37 c33 -9 30 -27 -4 -22 -12 1 -39 -8
-60 -20 l-37 -22 23 24 c12 14 22 32 22 40 0 21 12 32 20 19 4 -6 20 -14 36
-19z m1054 25 c0 -2 -8 -10 -17 -17 -16 -13 -17 -12 -4 4 13 16 21 21 21 13z
m-1566 -51 c20 -8 36 -20 36 -25 0 -16 -14 -12 -50 15 -39 29 -36 31 14 10z
m1546 -6 c0 -6 -4 -7 -10 -4 -5 3 -10 11 -10 16 0 6 5 7 10 4 6 -3 10 -11 10
-16z m-1623 -3 c-3 -8 4 -18 18 -24 14 -7 23 -19 22 -31 -1 -19 -2 -18 -22 3
-12 13 -27 25 -34 27 -14 5 -4 39 11 39 6 0 8 -6 5 -14z m-2049 -11 c6 -5 -11
-35 -19 -35 -5 0 -9 -10 -9 -22 0 -28 -16 -55 -27 -45 -4 4 -2 21 4 37 6 17 7
32 1 38 -16 16 2 43 26 36 11 -4 22 -8 24 -9z m3652 -20 c-7 -9 -15 -13 -19
-10 -3 3 1 10 9 15 21 14 24 12 10 -5z m-1110 -14 c0 -5 -7 -14 -15 -21 -16
-14 -18 -10 -9 14 6 17 24 22 24 7z m-583 -43 c-3 -7 -5 -2 -5 12 0 14 2 19 5
13 2 -7 2 -19 0 -25z m535 -20 c-10 -10 -7 -15 10 -25 22 -11 21 -12 -14 -11
-21 1 -39 7 -42 15 -3 7 1 13 8 13 7 0 19 7 26 15 7 9 15 13 18 10 3 -3 0 -11
-6 -17z m-574 -76 c-13 -20 -37 -70 -52 -109 -16 -40 -33 -73 -38 -73 -11 0
-11 2 12 55 15 36 17 51 9 67 -14 27 -4 52 20 45 14 -3 24 6 42 42 17 33 24
41 27 28 2 -10 -7 -35 -20 -55z m512 3 c-7 -9 -15 -13 -18 -10 -3 2 1 11 8 20
7 9 15 13 18 10 3 -2 -1 -11 -8 -20z m-800 11 c0 -3 -4 -8 -10 -11 -5 -3 -10
-1 -10 4 0 6 5 11 10 11 6 0 10 -2 10 -4z m-1630 -36 c0 -15 -18 -29 -45 -36
l-29 -7 27 27 c15 15 27 32 27 39 0 7 4 6 10 -3 5 -8 10 -17 10 -20z m1626
-27 c-11 -11 -17 4 -9 23 7 18 8 18 11 1 2 -10 1 -21 -2 -24z m764 12 c-7 -9
-15 -13 -18 -10 -3 2 1 11 8 20 7 9 15 13 18 10 3 -2 -1 -11 -8 -20z m-1105
-6 c5 -5 -28 -41 -109 -119 -68 -65 -56 -31 14 39 40 40 58 65 54 76 -5 11 -1
14 15 12 11 -2 23 -5 26 -8z m1060 -28 c-3 -6 -14 -11 -23 -11 -15 1 -15 2 2
15 21 16 32 13 21 -4z m-725 -8 c0 -5 -5 -15 -10 -23 -8 -12 -10 -11 -10 8 0
12 5 22 10 22 6 0 10 -3 10 -7z m680 -12 c0 -11 -31 -24 -39 -16 -3 3 1 10 9
15 19 12 30 12 30 1z m-700 -41 c0 -5 -6 -10 -14 -10 -8 0 -18 5 -21 10 -3 6
3 10 14 10 12 0 21 -4 21 -10z m-140 -16 c0 -8 -4 -12 -10 -9 -5 3 -10 10 -10
16 0 5 5 9 10 9 6 0 10 -7 10 -16z m720 -9 c-7 -8 -17 -12 -22 -9 -6 4 -5 10
3 15 22 14 33 10 19 -6z m-45 -25 c-3 -5 -13 -10 -21 -10 -8 0 -12 5 -9 10 3
6 13 10 21 10 8 0 12 -4 9 -10z m1953 -12 c14 -14 16 -28 2 -28 -5 0 -14 9
-20 20 -12 22 -1 27 18 8z m-2012 -20 c-10 -6 -20 -7 -24 -3 -9 8 20 25 31 18
5 -3 2 -10 -7 -15z m2274 18 c0 -11 -19 -15 -25 -6 -3 5 1 10 9 10 9 0 16 -2
16 -4z m39 -15 c9 -6 22 -6 33 0 24 13 43 2 26 -14 -7 -7 -32 -13 -54 -13 -40
-1 -44 3 -35 34 2 5 17 1 30 -7z m118 -8 c3 -7 -3 -9 -16 -6 -12 3 -21 10 -21
15 0 13 32 6 37 -9z m258 -3 c3 -5 -3 -10 -14 -10 -12 0 -21 5 -21 10 0 6 6
10 14 10 8 0 18 -4 21 -10z m-610 -10 c3 -5 -1 -10 -9 -10 -8 0 -18 5 -21 10
-3 6 1 10 9 10 8 0 18 -4 21 -10z m-2125 -15 c-7 -8 -17 -15 -22 -15 -6 0 -5
7 2 15 7 8 17 15 22 15 6 0 5 -7 -2 -15z m2185 5 c-3 -5 -13 -10 -21 -10 -8 0
-14 5 -14 10 0 6 9 10 21 10 11 0 17 -4 14 -10z m60 0 c-3 -5 -13 -10 -21 -10
-8 0 -14 5 -14 10 0 6 9 10 21 10 11 0 17 -4 14 -10z m65 0 c0 -5 -9 -10 -20
-10 -11 0 -20 5 -20 10 0 6 9 10 20 10 11 0 20 -4 20 -10z m210 -22 c0 -6 -7
-5 -15 2 -8 7 -15 17 -15 22 0 6 7 5 15 -2 8 -7 15 -17 15 -22z m170 25 c-1
-18 -19 -35 -29 -28 -9 5 -9 10 0 21 12 15 29 19 29 7z m144 -29 c17 6 36 18
43 26 11 13 12 13 13 -2 0 -10 -9 -22 -20 -28 -20 -11 -28 -50 -10 -50 6 0 10
-5 10 -11 0 -5 -4 -7 -10 -4 -19 12 -31 -6 -15 -22 9 -8 14 -18 11 -21 -8 -8
-36 19 -36 34 0 8 -5 14 -10 14 -6 0 -8 -11 -4 -25 3 -14 2 -25 -4 -25 -16 0
-22 42 -7 56 8 8 21 11 31 7 16 -6 17 -5 4 9 -8 8 -21 13 -29 10 -8 -3 -12 -1
-8 5 4 6 -5 18 -18 27 -15 10 -23 22 -19 28 5 8 14 3 27 -14 17 -23 22 -24 51
-14z m-3609 -4 c50 -6 111 -13 135 -15 25 -2 113 -13 196 -25 l151 -22 99 25
c54 14 102 23 106 21 14 -9 8 -20 -12 -21 -11 -1 -59 -12 -107 -23 -79 -20
-94 -21 -180 -10 -52 6 -98 9 -101 5 -4 -3 -12 -25 -18 -48 -7 -29 -15 -41
-26 -39 -9 1 -25 -13 -37 -34 -26 -43 -39 -39 -17 5 21 40 21 41 -18 41 -19 0
-38 5 -42 11 -4 8 13 10 57 7 l63 -3 8 34 c5 18 8 34 6 36 -2 1 -77 12 -168
24 -240 32 -240 32 -240 43 0 5 12 7 28 4 15 -3 68 -10 117 -16z m3171 -17
c-11 -11 -19 6 -11 24 8 17 8 17 12 0 3 -10 2 -21 -1 -24z m184 27 c0 -5 -9
-10 -20 -10 -11 0 -20 5 -20 10 0 6 9 10 20 10 11 0 20 -4 20 -10z m55 0 c3
-5 -3 -10 -14 -10 -12 0 -21 5 -21 10 0 6 6 10 14 10 8 0 18 -4 21 -10z
m-2675 -19 c0 -12 -20 -25 -27 -18 -7 7 6 27 18 27 5 0 9 -4 9 -9z m2487 -12
c-14 -8 -22 -8 -30 0 -8 8 -3 11 19 11 25 -1 27 -2 11 -11z m200 -6 c-9 -9
-19 -14 -23 -11 -10 10 6 28 24 28 15 0 15 -1 -1 -17z m-4369 0 c-10 -2 -28
-2 -40 0 -13 2 -5 4 17 4 22 1 32 -1 23 -4z m1877 -3 c3 -5 -1 -10 -9 -10 -9
0 -16 -8 -16 -19 0 -11 -4 -23 -10 -26 -6 -4 -10 5 -10 19 0 14 -4 26 -10 26
-5 0 -10 5 -10 10 0 6 13 10 29 10 17 0 33 -4 36 -10z m2341 -1 c3 -6 15 -8
26 -6 14 4 18 1 14 -8 -3 -8 -1 -17 4 -20 6 -4 10 -10 10 -16 0 -5 -9 -4 -19
3 -11 7 -17 16 -15 20 3 4 -1 8 -9 8 -8 0 -20 7 -27 15 -8 9 -9 15 -2 15 6 0
14 -5 18 -11z m104 -9 c0 -5 -9 -10 -20 -10 -11 0 -20 5 -20 10 0 6 9 10 20
10 11 0 20 -4 20 -10z m-2590 -16 c0 -11 -5 -14 -16 -10 -9 3 -18 6 -20 6 -3
0 -2 5 1 10 10 16 35 12 35 -6z m-90 -9 c-7 -8 -16 -15 -21 -15 -5 0 -6 7 -3
15 4 8 13 15 21 15 13 0 13 -3 3 -15z m-10 -79 c-7 -9 -17 -16 -22 -16 -7 0
-7 5 0 13 7 8 7 18 2 27 -17 27 -10 35 12 13 18 -18 19 -24 8 -37z m2679 45
c7 -5 12 -14 9 -21 -2 -7 -10 -4 -22 9 -19 21 -12 28 13 12z m241 -53 c0 -5
-4 -8 -10 -8 -5 0 -10 10 -10 23 0 18 2 19 10 7 5 -8 10 -18 10 -22z m186 5
c-12 -26 -26 -30 -26 -8 0 8 -7 15 -15 15 -8 0 -15 5 -15 10 0 6 15 10 33 8
31 -2 33 -3 23 -25z m-2068 -22 c3 -8 -1 -12 -9 -9 -7 2 -15 10 -17 17 -3 8 1
12 9 9 7 -2 15 -10 17 -17z m1672 7 c0 -11 -32 -10 -50 2 -11 8 -7 10 18 8 17
-1 32 -6 32 -10z m-75 -8 c-3 -5 -13 -10 -21 -10 -8 0 -12 5 -9 10 3 6 13 10
21 10 8 0 12 -4 9 -10z m319 4 c20 -8 21 -24 2 -24 -8 0 -16 7 -20 15 -6 17
-4 18 18 9z m-378 -20 c-3 -9 -6 -21 -6 -27 0 -6 -9 -1 -20 11 -26 28 -25 32
6 32 20 0 25 -4 20 -16z m-2615 -27 c-8 -8 -11 -7 -11 4 0 20 13 34 18 19 3
-7 -1 -17 -7 -23z m2708 7 c-17 -21 -31 -17 -19 6 6 11 15 18 21 14 6 -4 6
-11 -2 -20z m251 16 c0 -5 -4 -10 -10 -10 -5 0 -10 5 -10 10 0 6 5 10 10 10 6
0 10 -4 10 -10z m-2920 -22 c0 -5 11 -19 25 -30 14 -11 25 -24 25 -30 0 -6 -8
-4 -17 4 -10 9 -28 19 -41 23 -15 4 -21 12 -18 22 3 8 6 19 6 24 0 6 5 7 10 4
6 -3 10 -11 10 -17z m2535 2 c-3 -5 -16 -10 -28 -10 -18 0 -19 2 -7 10 20 13
43 13 35 0z m293 -2 c-6 -18 -28 -21 -28 -4 0 9 7 16 16 16 9 0 14 -5 12 -12z
m52 2 c-19 -13 -30 -13 -30 0 0 6 10 10 23 10 18 0 19 -2 7 -10z m100 -45 c0
-35 -4 -45 -16 -45 -12 0 -14 5 -9 18 4 9 7 29 6 45 -1 15 3 27 9 27 5 0 10
-20 10 -45z m-505 25 c-3 -5 -13 -10 -21 -10 -8 0 -12 5 -9 10 3 6 13 10 21
10 8 0 12 -4 9 -10z m153 -16 c-8 -8 -22 -12 -31 -8 -27 10 -20 21 15 22 27 1
29 -1 16 -14z m152 -4 c-19 -12 -30 -12 -30 -1 0 10 31 20 40 14 2 -2 -2 -8
-10 -13z m-430 -5 c-7 -8 -16 -12 -21 -9 -13 8 -1 24 18 24 13 0 13 -3 3 -15z
m63 8 c-7 -2 -19 -2 -25 0 -7 3 -2 5 12 5 14 0 19 -2 13 -5z m257 -13 c0 -5
-10 -10 -22 -10 -19 0 -20 2 -8 10 19 13 30 13 30 0z m60 0 c0 -5 -9 -10 -20
-10 -11 0 -20 5 -20 10 0 6 9 10 20 10 11 0 20 -4 20 -10z m280 6 c0 -3 -4 -8
-10 -11 -5 -3 -10 -1 -10 4 0 6 5 11 10 11 6 0 10 -2 10 -4z m-700 -26 c-19
-13 -30 -13 -30 0 0 6 10 10 23 10 18 0 19 -2 7 -10z m-65 -40 c-20 -23 -4
-36 24 -18 27 16 40 2 15 -17 -17 -13 -52 -19 -71 -12 -15 4 -1 50 20 68 26
21 36 5 12 -21z m378 25 c4 -8 2 -17 -3 -20 -6 -4 -10 -4 -10 -1 0 2 -3 11 -6
20 -3 9 -2 16 4 16 5 0 12 -7 15 -15z m-284 -21 c-7 -9 -16 -11 -23 -5 -6 5
-18 11 -26 14 -8 2 -3 3 13 1 15 -2 27 1 27 7 0 6 5 7 10 4 8 -5 7 -11 -1 -21z
m-2869 -10 c0 -2 -9 0 -20 6 -11 6 -20 13 -20 16 0 2 9 0 20 -6 11 -6 20 -13
20 -16z m89 -11 c8 8 11 6 11 -10 0 -22 25 -39 35 -23 4 6 11 10 17 10 6 0 1
-12 -13 -26 -14 -14 -25 -20 -27 -14 -3 7 -24 20 -48 30 -25 11 -44 26 -44 35
0 14 3 14 29 1 21 -11 31 -12 40 -3z m3379 -2 c-7 -11 -16 -17 -20 -14 -10 5
10 33 23 33 5 0 4 -9 -3 -19z m-288 -17 c0 -8 -4 -14 -10 -14 -5 0 -10 9 -10
21 0 11 5 17 10 14 6 -3 10 -13 10 -21z m451 -17 c-16 -16 -26 0 -10 19 9 11
15 12 17 4 2 -6 -1 -17 -7 -23z m-2655 -54 c-8 -9 -34 11 -45 33 -18 40 -12
41 19 5 16 -19 28 -36 26 -38z m1908 50 c3 -7 -1 -13 -9 -13 -8 0 -15 4 -15 9
0 5 -9 7 -20 4 -11 -3 -20 0 -20 6 0 16 58 10 64 -6z m216 -8 c0 -14 -4 -25
-10 -25 -5 0 -10 11 -10 25 0 14 5 25 10 25 6 0 10 -11 10 -25z m360 -16 c0
-10 -4 -19 -10 -19 -5 0 -10 12 -10 26 0 14 4 23 10 19 6 -3 10 -15 10 -26z
m-3159 -2 c-10 -9 -11 -8 -5 6 3 10 9 15 12 12 3 -3 0 -11 -7 -18z m1269 13
c0 -5 -7 -7 -15 -4 -8 4 -15 8 -15 10 0 2 7 4 15 4 8 0 15 -4 15 -10z m1156
-6 c-3 -9 -6 -18 -6 -20 0 -2 -4 -4 -9 -4 -5 0 -7 9 -4 20 3 11 10 20 15 20 6
0 7 -7 4 -16z m434 7 c0 -5 -7 -12 -16 -15 -24 -9 -28 -7 -14 9 14 17 30 20
30 6z m450 -26 c-7 -8 -17 -15 -22 -15 -6 0 -5 7 2 15 7 8 17 15 22 15 6 0 5
-7 -2 -15z m-700 -5 c0 -5 -9 -10 -20 -10 -11 0 -20 5 -20 10 0 6 9 10 20 10
11 0 20 -4 20 -10z m30 -21 c0 -11 -4 -17 -10 -14 -5 3 -10 13 -10 21 0 8 5
14 10 14 6 0 10 -9 10 -21z m167 0 c-7 -11 -16 -19 -22 -19 -5 0 -4 -4 2 -8 7
-4 14 -17 16 -27 2 -11 9 -30 15 -43 7 -12 10 -27 7 -33 -4 -5 -1 -16 5 -24 6
-8 9 -19 5 -25 -8 -13 -37 35 -33 54 1 6 -3 21 -10 34 -7 12 -10 27 -7 32 3 6
-1 10 -10 10 -12 0 -15 5 -11 16 3 9 6 24 6 34 0 12 8 18 24 18 22 0 23 -3 13
-19z m-402 -10 c-4 -5 -13 -9 -22 -9 -13 0 -13 3 -3 15 13 15 35 11 25 -6z
m765 14 c0 -17 -19 -35 -29 -29 -18 12 -12 36 9 36 11 0 20 -3 20 -7z m-3380
-13 c0 -5 -10 -10 -23 -10 -12 0 -32 -7 -45 -15 -20 -15 -21 -15 -15 0 10 27
83 48 83 25z m3483 -10 c-3 -11 -9 -20 -14 -20 -10 0 -12 24 -2 33 13 13 21 7
16 -13z m-1693 0 c0 -5 -7 -10 -15 -10 -8 0 -15 5 -15 10 0 6 7 10 15 10 8 0
15 -4 15 -10z m767 -27 c-9 -9 -20 -13 -24 -9 -4 4 -1 11 7 16 25 16 35 11 17
-7z m313 -15 c0 -5 -8 -7 -18 -4 -11 4 -27 -2 -40 -14 -25 -24 -42 -26 -42 -5
0 8 6 12 13 10 6 -3 23 5 37 19 24 23 50 20 50 -6z m524 6 c9 -22 -3 -32 -14
-14 -12 19 -12 30 -1 30 5 0 12 -7 15 -16z m60 -18 c-6 -16 -24 -23 -24 -8 0
10 22 33 27 28 2 -2 1 -11 -3 -20z m-3216 -10 c33 -11 38 -21 23 -45 -7 -11
-13 -11 -32 0 -23 12 -87 15 -98 4 -3 -3 1 -10 9 -15 13 -8 13 -11 -1 -25 -13
-14 -17 -14 -27 -2 -17 20 21 67 54 67 13 0 24 5 24 10 0 6 -4 10 -10 10 -5 0
-10 5 -10 11 0 7 7 8 18 4 9 -5 32 -13 50 -19z m2282 15 c0 -11 -31 -24 -39
-16 -3 3 1 10 9 15 19 12 30 12 30 1z m240 -21 c0 -11 -7 -20 -15 -20 -18 0
-19 6 -2 25 16 19 17 18 17 -5z m2374 5 c-6 -14 -44 -22 -44 -10 0 4 29 19 47
24 1 1 0 -6 -3 -14z m-2226 -14 c3 -8 -1 -12 -9 -9 -7 2 -15 10 -17 17 -3 8 1
12 9 9 7 -2 15 -10 17 -17z m-2053 -1 c3 -5 -3 -10 -15 -10 -12 0 -18 5 -15
10 3 6 10 10 15 10 5 0 12 -4 15 -10z m2505 -21 c0 -6 -7 -6 -20 1 -11 6 -20
15 -20 21 0 6 7 6 20 -1 11 -6 20 -15 20 -21z m65 9 c10 -10 -22 -29 -38 -22
-21 8 -10 34 14 31 10 -2 21 -6 24 -9z m-2510 -8 c3 -5 -3 -10 -14 -10 -12 0
-21 5 -21 10 0 6 6 10 14 10 8 0 18 -4 21 -10z m2395 0 c0 -5 -6 -10 -14 -10
-8 0 -18 5 -21 10 -3 6 3 10 14 10 12 0 21 -4 21 -10z m1774 -5 c-4 -8 -10
-15 -15 -15 -5 0 -9 7 -9 15 0 8 7 15 15 15 9 0 12 -6 9 -15z m-2084 -11 c0
-8 -5 -12 -11 -8 -8 4 -8 0 0 -15 7 -13 8 -21 2 -21 -6 0 -15 10 -22 21 -9 17
-8 23 2 30 21 13 29 11 29 -7z m-50 -4 c0 -13 -11 -13 -30 0 -12 8 -11 10 8
10 12 0 22 -4 22 -10z m291 -13 c-13 -15 -19 -30 -15 -41 4 -10 -1 -25 -11
-36 -11 -12 -13 -20 -7 -20 18 0 14 -31 -5 -46 -11 -8 -13 -13 -5 -14 17 0 15
-25 -3 -40 -13 -11 -15 -8 -15 18 0 23 -4 30 -15 26 -8 -3 -17 -14 -20 -25 -4
-11 -11 -17 -16 -14 -5 4 -4 15 3 28 7 12 13 31 15 41 5 29 13 33 13 7 0 -20
2 -21 14 -8 8 8 12 23 10 35 -3 11 -1 23 5 26 6 4 11 16 11 26 0 24 29 60 49
60 11 0 8 -6 -8 -23z m157 0 c14 -17 0 -39 -20 -32 -10 4 -14 14 -11 26 6 22
16 24 31 6z m1622 -7 c0 -5 -9 -10 -20 -10 -11 0 -20 5 -20 10 0 6 9 10 20 10
11 0 20 -4 20 -10z m-6570 -7 c0 -5 -47 -9 -105 -9 -58 -1 -105 2 -105 7 0 5
47 9 105 9 58 0 105 -3 105 -7z m6620 -3 c0 -5 -7 -10 -15 -10 -8 0 -15 5 -15
10 0 6 7 10 15 10 8 0 15 -4 15 -10z m-6391 -30 c62 -12 120 -17 143 -13 57 9
209 -15 318 -49 131 -41 129 -40 108 -45 -9 -2 -51 8 -95 22 -106 36 -222 55
-318 54 -81 -1 -252 25 -269 42 -14 13 -6 12 113 -11z m6291 10 c0 -5 -12 -10
-26 -10 -14 0 -23 4 -19 10 3 6 15 10 26 10 10 0 19 -4 19 -10z m-1950 -10 c0
-5 7 -10 15 -10 10 0 15 -9 14 -27 0 -17 -3 -22 -6 -13 -4 8 -14 21 -25 28
-19 14 -24 32 -8 32 6 0 10 -4 10 -10z m140 -16 c0 -8 -4 -12 -10 -9 -5 3 -10
10 -10 16 0 5 5 9 10 9 6 0 10 -7 10 -16z m224 -28 c-12 -59 -23 -63 -22 -9 0
41 3 50 14 46 11 -4 13 -14 8 -37z m-244 7 c0 -14 -19 -38 -25 -32 -8 8 5 39
16 39 5 0 9 -3 9 -7z m570 -55 c-1 -34 -65 -211 -78 -216 -6 -2 1 33 17 80 15
46 31 100 35 121 7 40 26 51 26 15z m-4257 1 c31 -7 57 -16 57 -20 0 -5 -3 -9
-7 -9 -21 1 -135 29 -140 34 -10 9 28 7 90 -5z m3643 -5 c-3 -9 -6 -18 -6 -20
0 -3 -4 -3 -10 1 -11 7 -2 35 12 35 6 0 7 -7 4 -16z m-5181 -14 c-3 -5 -12
-10 -19 -10 -8 0 -54 -12 -102 -26 -49 -15 -97 -29 -106 -31 -10 -3 -18 -1
-18 4 0 9 55 28 180 62 47 13 72 13 65 1z m5420 -30 c-10 -11 -20 -18 -23 -15
-3 3 3 14 13 25 10 11 20 18 23 15 3 -3 -3 -14 -13 -25z m-275 10 c-20 -13
-40 -13 -40 0 0 6 12 10 28 10 21 0 24 -2 12 -10z m106 -27 c-11 -11 -19 6
-11 24 8 17 8 17 12 0 3 -10 2 -21 -1 -24z m-3205 9 c-5 -10 -18 -25 -27 -33
-11 -9 -9 -2 6 19 26 35 36 42 21 14z m4938 -28 c-15 -18 -22 -13 -13 10 3 9
10 13 16 10 5 -3 4 -12 -3 -20z m-1788 -17 c-8 -8 -11 -7 -11 4 0 20 13 34 18
19 3 -7 -1 -17 -7 -23z m99 24 c0 -5 -9 -13 -21 -16 -17 -6 -19 -12 -14 -33 4
-15 10 -29 13 -32 10 -7 11 -70 1 -70 -5 0 -9 16 -9 35 0 19 -4 35 -9 35 -10
0 -21 49 -14 66 3 7 14 15 26 17 12 2 23 5 25 6 1 0 2 -3 2 -8z m-2753 -12
c15 -7 39 -11 53 -11 14 0 19 -2 11 -5 -11 -4 -9 -8 6 -17 17 -9 19 -13 7 -23
-10 -11 -18 -8 -40 12 -15 14 -30 25 -35 25 -4 0 -14 2 -22 5 -9 4 -23 -14
-43 -59 -16 -36 -33 -66 -38 -66 -4 0 -5 8 -1 18 5 14 4 15 -6 5 -21 -21 -30
-15 -24 15 6 25 5 26 -9 8 -16 -19 -41 -13 -32 9 3 8 -3 16 -12 18 -14 4 -13
6 6 12 13 4 22 15 22 27 0 10 5 16 10 13 6 -4 8 -10 5 -15 -8 -13 26 -21 41
-9 11 9 14 8 14 -5 0 -9 -4 -16 -10 -16 -5 0 -10 -7 -10 -15 0 -29 17 -14 40
35 26 55 26 55 67 39z m2689 -5 c-3 -9 -6 -18 -6 -20 0 -3 -4 -3 -10 1 -11 7
-2 35 12 35 6 0 7 -7 4 -16z m184 -15 c0 -11 -4 -17 -10 -14 -5 3 -10 15 -10
26 0 11 5 17 10 14 6 -3 10 -15 10 -26z m-124 -26 c-11 -11 -19 6 -11 24 8 17
8 17 12 0 3 -10 2 -21 -1 -24z m1672 0 c-9 -10 -18 -25 -21 -33 -4 -11 -6 -10
-6 4 -1 15 -4 16 -16 6 -9 -7 -18 -10 -22 -7 -8 9 17 38 27 32 5 -3 11 -1 15
5 3 5 13 10 22 10 14 0 15 -2 1 -17z m-1562 -19 c-3 -9 -6 -18 -6 -20 0 -2 -4
-4 -9 -4 -5 0 -7 9 -4 20 3 11 10 20 15 20 6 0 7 -7 4 -16z m-528 -31 c58 -36
95 -81 55 -66 -23 8 -93 65 -93 76 0 11 8 9 38 -10z m2011 -14 c-13 -26 -23
-18 -14 10 3 12 11 19 16 16 5 -4 5 -14 -2 -26z m-5594 -15 c-18 -35 -20 -95
-2 -113 10 -12 9 -13 -7 -7 -15 5 -18 2 -14 -19 5 -25 -5 -34 -17 -15 -11 18
15 164 33 177 22 18 25 10 7 -23z m645 26 c0 -5 -4 -10 -9 -10 -6 0 -13 5 -16
10 -3 6 1 10 9 10 9 0 16 -4 16 -10z m3447 -16 c3 -9 1 -19 -4 -23 -6 -3 -14
-16 -17 -29 -9 -27 -54 -78 -62 -69 -3 3 -17 -6 -30 -20 -13 -14 -24 -21 -24
-15 0 6 10 20 21 31 17 15 20 27 16 51 -7 34 7 40 23 10 12 -23 40 -16 40 10
0 11 5 22 11 26 6 3 9 15 6 25 -6 23 11 26 20 3z m-3436 -18 c-15 -16 -41 -26
-86 -34 -35 -6 -85 -20 -112 -33 -26 -12 -51 -21 -55 -21 -4 1 -5 -5 -2 -13 4
-9 1 -22 -5 -29 -8 -10 -9 -16 -1 -21 19 -12 10 -98 -21 -189 -28 -82 -32
-106 -37 -242 -5 -158 0 -204 21 -204 13 0 57 -52 57 -68 0 -4 -14 -21 -31
-38 -26 -25 -30 -35 -28 -74 3 -47 -6 -74 -21 -65 -4 3 -13 -2 -20 -10 -7 -8
-9 -15 -5 -15 4 0 2 -7 -5 -15 -7 -8 -17 -12 -23 -8 -6 4 -8 0 -4 -11 4 -10
-1 -24 -11 -34 -9 -9 -17 -23 -18 -29 -2 -28 -5 -33 -16 -33 -7 0 -13 -10 -14
-22 0 -13 -4 -31 -8 -40 -12 -27 40 -37 59 -12 14 18 17 16 19 -15 1 -9 31
-20 90 -32 104 -21 116 -25 116 -38 0 -7 -9 -7 -24 -1 -45 17 -190 43 -230 41
-22 -1 -43 4 -47 10 -4 8 -17 -3 -36 -30 -15 -23 -40 -57 -55 -76 -16 -18 -28
-37 -28 -43 0 -5 18 -17 40 -26 22 -9 40 -20 40 -26 0 -14 -87 21 -100 41 -3
4 -4 -26 -2 -66 3 -61 1 -79 -15 -102 -11 -15 -26 -44 -33 -63 -7 -19 -28 -62
-47 -96 -18 -33 -33 -68 -33 -76 0 -10 -20 -21 -57 -31 -31 -9 -69 -29 -84
-43 -25 -24 -35 -27 -89 -25 -55 2 -64 -1 -100 -31 -26 -22 -40 -41 -40 -58 0
-34 -11 -70 -20 -70 -4 0 -5 21 -3 48 4 35 13 56 37 80 37 40 103 74 128 66
27 -8 56 13 63 46 8 39 16 42 63 32 27 -6 44 -5 55 3 9 7 39 59 67 116 28 57
57 113 65 124 12 15 14 36 9 95 l-7 76 32 27 c18 15 36 27 40 27 4 0 16 18 26
40 11 25 23 39 32 36 13 -5 37 27 26 37 -9 10 87 180 128 224 33 36 39 49 39
87 0 38 4 48 30 66 27 20 41 50 22 50 -4 0 -22 13 -39 29 l-32 29 0 144 c0
125 3 158 29 264 22 87 29 142 28 197 -1 62 3 81 17 97 10 12 25 18 32 16 7
-3 13 2 13 10 0 12 7 15 25 12 15 -3 30 1 37 9 7 9 21 12 35 8 14 -3 23 -1 23
6 0 7 11 9 30 5 17 -3 29 -2 26 3 -7 10 22 23 34 16 5 -3 11 -1 15 5 3 5 9 10
12 10 4 0 -3 -11 -16 -24z m4999 4 c0 -11 -4 -20 -10 -20 -5 0 -10 9 -10 20 0
11 5 20 10 20 6 0 10 -9 10 -20z m-83 -35 c-4 -8 -11 -15 -17 -15 -6 0 -6 7 2
20 14 22 24 19 15 -5z m-2723 -19 c7 -35 0 -66 -15 -66 -12 0 -11 17 1 25 7 4
7 12 0 25 -12 23 -13 50 -1 50 5 0 12 -15 15 -34z m2820 -17 c-10 -16 -24 -9
-24 12 0 18 2 19 15 9 8 -7 12 -16 9 -21z m-7084 -3 c0 -8 -4 -18 -10 -21 -5
-3 -10 3 -10 14 0 12 5 21 10 21 6 0 10 -6 10 -14z m3061 -18 c-4 -13 -6 -29
-3 -37 3 -9 0 -11 -8 -6 -10 6 -12 2 -7 -14 3 -13 3 -20 0 -17 -3 3 -12 -2
-20 -10 -9 -8 -13 -18 -9 -21 9 -9 47 28 61 61 7 16 15 24 18 19 8 -13 -43
-113 -58 -113 -6 0 -19 8 -28 18 -16 17 -15 21 8 51 13 19 27 46 30 62 4 16
11 29 16 29 5 0 5 -10 0 -22z m774 -41 c21 -44 25 -70 26 -162 2 -61 6 -118
11 -127 16 -33 35 -19 53 40 18 58 35 88 35 61 0 -17 -66 -208 -75 -217 -4 -4
-4 14 0 41 6 40 5 47 -9 47 -10 0 -23 14 -31 33 -11 26 -22 35 -60 45 -35 9
-46 16 -43 30 3 14 14 17 53 16 l50 -1 -6 81 c-3 46 -13 95 -22 113 -9 18 -17
37 -17 43 0 22 12 8 35 -43z m1962 -44 c-8 -38 -18 -89 -22 -115 -3 -27 -10
-48 -16 -48 -11 0 -11 7 0 67 6 26 15 75 22 108 12 66 20 86 27 67 2 -7 -3
-42 -11 -79z m-3077 36 c0 -11 0 -11 -38 2 -18 6 -30 15 -27 19 7 11 65 -8 65
-21z m2873 -6 c-7 -2 -19 -2 -25 0 -7 3 -2 5 12 5 14 0 19 -2 13 -5z m-183
-23 c0 -5 -4 -10 -10 -10 -5 0 -10 5 -10 10 0 6 5 10 10 10 6 0 10 -4 10 -10z
m-2435 -10 c-3 -5 -17 -10 -30 -10 -26 0 -45 -17 -94 -84 l-31 -44 32 -20 c51
-31 102 -50 118 -43 8 3 16 17 18 30 3 26 9 37 17 30 6 -7 -20 -101 -34 -125
-10 -17 -11 -16 -9 10 3 25 -2 30 -33 41 -35 12 -37 12 -50 -11 -11 -21 -10
-27 5 -42 15 -15 18 -15 26 -2 7 12 12 12 22 2 9 -9 9 -12 0 -12 -7 0 -12 -7
-12 -16 0 -16 -18 -15 -67 3 -36 13 5 -23 47 -42 22 -10 40 -24 40 -31 0 -9
-17 -3 -50 16 -28 17 -54 30 -59 30 -10 0 -53 -80 -76 -142 -10 -27 -22 -48
-27 -48 -19 0 34 121 105 240 l45 75 -27 17 c-14 10 -30 18 -36 18 -11 0 -62
-77 -87 -132 -9 -20 -43 -63 -75 -95 -33 -32 -87 -89 -121 -127 -34 -39 -64
-67 -68 -64 -6 6 134 167 213 246 18 18 33 40 33 48 0 21 165 260 193 279 24
17 82 21 72 5z m2090 -39 c0 -9 -11 -32 -24 -49 l-23 -32 21 -33 c11 -18 29
-41 40 -51 18 -17 20 -16 45 11 14 15 26 31 26 35 0 5 7 8 15 8 9 0 12 -6 8
-17 -8 -25 -44 -63 -58 -63 -6 0 -22 -11 -35 -25 -12 -13 -27 -22 -32 -19 -4
3 1 13 12 22 l21 17 -24 23 -24 22 -18 -20 c-10 -11 -25 -20 -34 -20 -10 0 -4
11 19 30 l35 28 -24 26 c-21 23 -33 26 -90 26 -48 0 -62 3 -51 10 8 6 41 9 72
8 48 -3 60 1 82 21 27 25 34 51 15 51 -5 0 -8 4 -4 10 9 15 32 1 30 -19z m433
-13 c57 -24 67 -23 81 8 8 17 17 24 27 20 9 -3 24 -6 35 -6 10 0 19 -5 19 -11
0 -7 -11 -9 -30 -5 -26 5 -32 2 -42 -19 -14 -30 -32 -31 -92 -5 -25 10 -69 22
-96 26 -28 4 -50 11 -50 16 0 13 98 -2 148 -24z m666 -45 c-4 -16 -15 -44 -26
-63 -10 -19 -18 -42 -19 -50 0 -10 -3 -8 -8 5 -5 13 0 34 16 64 12 24 23 50
23 57 0 8 5 14 10 14 6 0 8 -11 4 -27z m271 6 c12 -19 -5 -23 -22 -6 -16 16
-16 17 -1 17 9 0 20 -5 23 -11z m-3912 -16 c14 -4 25 -23 13 -23 -16 0 -66 24
-66 32 0 6 8 7 18 3 9 -4 25 -10 35 -12z m3974 -6 c11 4 14 2 11 -8 -3 -8 -12
-15 -21 -17 -13 -3 -17 3 -16 25 1 16 3 21 6 11 3 -11 10 -15 20 -11z m-2058
7 c17 -4 31 -13 31 -20 0 -8 5 -14 10 -14 6 0 10 -7 10 -16 0 -8 -4 -12 -10
-9 -16 10 -80 -6 -80 -20 0 -25 32 -24 82 1 37 19 47 28 37 34 -7 5 -10 12 -7
15 11 12 30 -6 23 -22 -3 -9 4 -31 15 -50 20 -34 20 -36 3 -49 -25 -19 -27
-18 -46 21 -17 35 -17 35 -46 20 l-30 -15 30 -61 c17 -33 27 -64 23 -67 -4 -4
-9 -1 -11 6 -4 9 -17 6 -49 -13 -26 -15 -52 -24 -63 -20 -10 3 -37 -2 -61 -10
-56 -20 -56 -20 -70 15 -10 23 -17 29 -31 25 -13 -4 -19 -1 -19 9 0 9 4 16 10
16 5 0 7 12 5 28 -4 25 1 30 81 70 47 24 89 40 92 37 4 -3 0 -11 -8 -16 -13
-9 -13 -10 0 -6 26 7 24 36 -4 43 -14 3 -26 10 -26 15 0 16 31 23 40 9 10 -16
66 -4 74 16 4 11 -4 14 -34 14 -21 0 -42 5 -45 10 -7 11 27 13 74 4z m401 1
c0 -9 -46 -47 -68 -56 -22 -8 -22 -10 -7 -38 8 -17 15 -37 15 -46 0 -8 2 -15
5 -15 15 0 85 42 85 50 0 6 5 10 10 10 16 0 12 -27 -6 -34 -8 -3 -12 -10 -9
-16 7 -11 -18 -40 -34 -40 -6 0 -8 7 -4 15 5 14 2 14 -23 3 -20 -10 -28 -10
-31 -1 -3 8 -17 6 -46 -8 -62 -28 -80 -22 -22 8 63 32 60 27 45 63 -10 23 -17
29 -31 25 -11 -4 -19 -2 -19 4 0 6 6 11 13 11 6 0 37 16 67 35 56 36 60 38 60
30z m-3083 -32 c3 -7 -3 -9 -16 -6 -12 3 -21 10 -21 15 0 13 32 6 37 -9z
m2937 1 c9 -24 0 -29 -19 -11 -19 19 -19 27 -1 27 8 0 17 -7 20 -16z m-3344
-1 c0 -5 -7 -17 -15 -28 -12 -14 -31 -20 -80 -23 -45 -3 -65 -1 -65 7 0 8 16
11 43 10 52 -3 87 8 87 27 0 8 7 14 15 14 8 0 15 -3 15 -7z m179 -22 c14 -9
27 -24 29 -32 4 -10 0 -9 -15 3 -10 10 -34 23 -51 29 -18 6 -32 15 -32 21 0
12 39 1 69 -21z m5901 20 c0 -11 -41 -25 -125 -42 -115 -24 -118 -34 -36 -158
7 -10 23 -3 77 33 67 45 71 46 146 46 43 0 78 -3 78 -7 0 -5 -33 -8 -73 -8
-70 -1 -75 -3 -151 -52 l-80 -51 -13 26 c-8 15 -22 40 -32 57 -10 16 -21 42
-25 57 -6 25 -8 26 -38 17 -17 -5 -36 -13 -41 -18 -6 -6 -34 -79 -63 -163 -45
-130 -51 -155 -38 -164 7 -6 14 -14 14 -17 0 -8 -44 -5 -50 4 -7 8 -293 104
-304 101 -4 -2 -13 1 -20 6 -6 5 -40 19 -76 31 -115 38 -150 52 -150 62 0 5
23 0 50 -11 28 -11 59 -20 69 -20 24 0 36 41 16 53 -13 7 -13 10 -1 23 24 24
56 18 56 -11 0 -14 -4 -25 -10 -25 -5 0 -14 -9 -20 -20 -9 -16 -6 -22 22 -37
50 -26 351 -124 366 -118 21 8 13 25 -10 22 -35 -3 -28 26 7 30 16 3 30 5 31
6 0 1 20 58 43 127 44 127 65 159 107 160 11 0 24 3 28 7 3 4 13 8 21 9 46 7
182 38 195 45 20 11 30 11 30 0z m-3120 -11 c0 -5 -6 -10 -14 -10 -8 0 -18 5
-21 10 -3 6 3 10 14 10 12 0 21 -4 21 -10z m-901 -45 c-12 -19 -23 -35 -25
-35 -6 0 14 40 29 58 18 23 16 12 -4 -23z m3486 15 c-3 -5 -13 -10 -21 -10 -8
0 -14 5 -14 10 0 6 9 10 21 10 11 0 17 -4 14 -10z m45 -30 c0 -11 -4 -20 -10
-20 -5 0 -10 2 -10 4 0 2 -3 11 -6 20 -4 11 -1 16 10 16 9 0 16 -8 16 -20z
m-50 -5 c16 -19 0 -19 -26 0 -16 12 -16 14 -3 15 9 0 22 -7 29 -15z m-6260
-42 c0 -22 -17 -50 -25 -42 -6 7 11 59 20 59 3 0 5 -8 5 -17z m6360 -24 c0 -6
-4 -7 -10 -4 -5 3 -10 11 -10 16 0 6 5 7 10 4 6 -3 10 -11 10 -16z m-6210 -8
c0 -11 -10 -27 -22 -35 -22 -16 -43 -12 -32 5 3 6 -3 13 -15 16 -29 8 -26 21
7 26 56 8 62 7 62 -12z m2590 14 c0 -12 -24 -55 -32 -55 -11 0 -10 4 4 35 9
21 28 35 28 20z m-2475 -54 c-5 -24 -12 -31 -31 -31 -19 0 -24 5 -24 25 0 14
5 25 11 25 6 0 9 -7 5 -15 -3 -9 0 -15 9 -15 8 0 15 8 15 18 0 19 10 35 18 28
2 -3 1 -18 -3 -35z m2068 24 c4 -8 2 -17 -3 -20 -6 -4 -10 3 -10 14 0 25 6 27
13 6z m1662 -35 c-3 -5 -13 -10 -21 -10 -8 0 -12 5 -9 10 3 6 13 10 21 10 8 0
12 -4 9 -10z m241 -14 c6 -25 -1 -46 -15 -46 -4 0 -7 16 -7 35 0 40 13 46 22
11z m144 1 c0 -17 -54 -37 -71 -26 -16 10 -13 13 26 27 41 14 45 14 45 -1z
m-4482 -17 c10 -17 10 -20 -3 -20 -8 0 -15 -7 -15 -15 0 -17 -16 -20 -25 -5
-3 6 0 10 7 10 10 0 9 3 -1 9 -12 8 -12 12 -2 25 17 21 24 20 39 -4z m4062 -5
c10 -12 10 -15 -4 -15 -9 0 -16 5 -16 11 0 6 -12 8 -32 5 -25 -5 -28 -4 -13 3
30 14 51 13 65 -4z m-3065 -5 c3 -5 -1 -10 -9 -10 -9 0 -16 5 -16 10 0 6 4 10
9 10 6 0 13 -4 16 -10z m3911 -18 c-18 -16 -18 -16 -6 6 6 13 14 21 18 18 3
-4 -2 -14 -12 -24z m-755 -58 c19 -31 60 -90 92 -131 32 -41 57 -79 55 -85 -2
-5 -31 25 -63 67 -33 43 -67 85 -76 94 -14 13 -59 104 -59 118 0 13 21 -13 51
-63z m-3951 26 c0 -17 -4 -38 -10 -48 -5 -9 -15 -30 -21 -47 -18 -48 -22 -9
-5 42 9 26 16 55 16 65 0 10 5 18 10 18 6 0 10 -14 10 -30z m4425 10 c-3 -5
-13 -10 -21 -10 -8 0 -14 5 -14 10 0 6 9 10 21 10 11 0 17 -4 14 -10z m-2221
-44 c-11 -27 -21 -17 -16 15 4 24 7 28 13 16 5 -8 6 -22 3 -31z m1466 13 c0
-10 -4 -19 -10 -19 -5 0 -10 12 -10 26 0 14 4 23 10 19 6 -3 10 -15 10 -26z
m420 23 c0 -5 -16 -16 -35 -25 -19 -9 -35 -22 -35 -29 0 -7 -5 -5 -11 5 -6 10
-9 19 -7 21 13 8 74 35 81 35 4 1 7 -3 7 -7z m-4340 -8 c0 -9 -31 -37 -36 -32
-9 9 8 38 22 38 8 0 14 -3 14 -6z m4620 -14 c-20 -13 -33 -13 -25 0 3 6 14 10
23 10 15 0 15 -2 2 -10z m-4591 -56 c-6 -8 -15 -14 -20 -14 -14 0 -11 28 4 33
20 7 29 -4 16 -19z m4581 16 c0 -5 -9 -10 -21 -10 -11 0 -17 5 -14 10 3 6 13
10 21 10 8 0 14 -4 14 -10z m-59 -43 c-16 -16 -26 0 -10 19 9 11 15 12 17 4 2
-6 -1 -17 -7 -23z m327 -119 c0 -121 7 -138 59 -138 13 0 23 -4 23 -10 0 -14
-25 -12 -66 5 l-36 15 3 105 c1 57 0 107 -3 111 -9 9 2 35 12 29 5 -3 9 -56 8
-117z m687 112 c3 -5 -3 -10 -15 -10 -12 0 -18 5 -15 10 3 6 10 10 15 10 5 0
12 -4 15 -10z m-4495 -4 c0 -2 -7 -22 -15 -45 -9 -25 -10 -41 -4 -41 6 0 3 -7
-6 -16 -14 -15 -14 -26 1 -69 2 -5 -10 -18 -27 -28 -18 -10 -29 -21 -25 -25 4
-3 11 0 16 8 11 19 22 8 14 -14 -3 -9 -13 -16 -21 -16 -10 0 -14 -7 -10 -20 4
-16 -2 -24 -28 -34 -25 -11 -35 -22 -40 -47 -11 -48 -47 -126 -52 -112 -2 6 2
24 10 40 8 15 20 52 27 81 7 29 18 52 25 52 15 0 59 112 52 132 -2 7 2 25 9
40 8 15 11 35 7 44 -5 13 -3 16 10 11 12 -4 19 3 27 29 6 18 16 34 21 34 5 0
9 -2 9 -4z m2919 -56 c30 -28 50 -50 45 -50 -6 0 -35 22 -65 50 -30 27 -49 49
-44 49 6 0 34 -22 64 -49z m-634 -8 c-23 -66 -54 -127 -54 -112 -2 23 52 159
61 154 4 -2 1 -21 -7 -42z m2260 38 c3 -5 -1 -10 -9 -10 -8 0 -18 5 -21 10 -3
6 1 10 9 10 8 0 18 -4 21 -10z m-5640 -11 c11 -17 0 -20 -21 -4 -17 13 -17 14
-2 15 9 0 20 -5 23 -11z m2422 -29 c-13 -35 -22 -23 -13 16 4 14 11 22 15 19
5 -3 4 -19 -2 -35z m4304 23 c16 -10 29 -24 29 -32 0 -20 -30 -51 -48 -51 -12
0 -10 6 8 25 23 25 23 25 4 40 -10 8 -22 15 -26 15 -9 0 -11 20 -2 20 3 0 19
-8 35 -17z m-2549 -15 c-7 -7 -12 -8 -12 -2 0 14 12 26 19 19 2 -3 -1 -11 -7
-17z m1512 -10 c-3 -5 -12 -4 -20 3 -7 6 -11 15 -8 21 3 5 12 4 20 -3 7 -6 11
-15 8 -21z m-5769 12 c8 -13 -15 -13 -35 0 -12 8 -11 10 7 10 12 0 25 -4 28
-10z m2041 -42 c-25 -29 -46 -58 -46 -65 0 -7 -6 -13 -14 -13 -7 0 -19 -7 -26
-15 -7 -8 -20 -15 -28 -15 -9 0 19 35 66 80 46 44 85 80 88 80 3 0 -15 -24
-40 -52z m-1991 32 c3 -5 -1 -20 -10 -34 -15 -23 -15 -25 4 -31 23 -7 27 -20
11 -30 -5 -3 -10 -2 -10 3 0 23 -40 -2 -50 -32 -7 -17 -14 -25 -17 -19 -2 7 7
38 21 69 14 31 26 63 26 70 0 16 16 19 25 4z m4175 -9 c0 -5 -7 -11 -15 -15
-15 -5 -20 5 -8 17 9 10 23 9 23 -2z m410 0 c0 -12 -20 -25 -27 -18 -7 7 6 27
18 27 5 0 9 -4 9 -9z m-60 -36 c-7 -8 -17 -15 -23 -15 -5 0 -2 9 8 20 21 23
35 19 15 -5z m-3100 5 c0 -5 -2 -10 -4 -10 -3 0 -8 5 -11 10 -3 6 -1 10 4 10
6 0 11 -4 11 -10z m4293 -10 c-3 -11 -9 -20 -14 -20 -10 0 -12 24 -2 33 13 13
21 7 16 -13z m-5893 0 c0 -5 -9 -14 -20 -20 -22 -12 -27 -1 -8 18 14 14 28 16
28 2z m2588 -27 c-1 -5 -28 -57 -59 -118 -30 -60 -75 -155 -98 -210 -43 -99
-61 -131 -61 -107 0 41 193 442 213 442 5 0 7 -3 5 -7z m3285 -28 c-5 -13 -23
-22 -23 -11 0 15 14 35 21 31 4 -3 6 -12 2 -20z m-1296 -14 c1 -11 -6 -21 -18
-24 -10 -3 -19 -1 -19 4 0 5 -7 9 -15 9 -23 0 -18 18 8 23 40 8 43 7 44 -12z
m67 7 c-3 -4 24 -42 60 -83 58 -66 76 -95 62 -95 -9 0 -155 178 -151 182 9 8
34 5 29 -4z m1190 -38 c-10 -4 -21 -6 -24 -3 -8 7 24 22 34 16 5 -4 1 -10 -10
-13z m-44 -9 c0 -5 -7 -12 -16 -15 -24 -9 -28 -7 -14 9 14 17 30 20 30 6z
m-3666 -26 c20 -8 36 -20 36 -25 0 -6 -15 -4 -36 5 -20 8 -38 15 -40 15 -2 0
-4 5 -4 10 0 13 1 13 44 -5z m3616 -14 c0 -13 -29 -35 -37 -28 -7 8 15 37 28
37 5 0 9 -4 9 -9z m-4367 -47 c18 -6 24 -34 7 -34 -19 0 -77 28 -85 40 -7 12
22 9 78 -6z m4367 -44 c0 -4 -11 -5 -25 -2 -14 2 -23 8 -20 12 6 10 45 1 45
-10z m60 -11 c0 -11 -3 -11 -24 -3 -23 9 -20 23 4 17 11 -3 20 -9 20 -14z m60
-9 c0 -13 -11 -13 -30 0 -12 8 -11 10 8 10 12 0 22 -4 22 -10z m130 -19 c35
-10 10 -22 -29 -15 -17 4 -31 10 -31 15 0 10 24 10 60 0z m-4691 -103 c-13
-24 -21 -23 -17 2 2 10 -6 25 -16 33 -10 8 -16 19 -12 25 5 8 15 3 31 -15 17
-21 21 -32 14 -45z m3652 -36 c9 -2 23 11 34 32 18 33 42 52 52 42 3 -2 -2
-13 -11 -23 -9 -10 -29 -34 -45 -53 -26 -31 -30 -33 -47 -20 -25 21 -74 101
-68 112 3 4 20 -13 37 -39 18 -26 39 -49 48 -51z m-1350 31 c-8 -15 -10 -15
-11 -2 0 17 10 32 18 25 2 -3 -1 -13 -7 -23z m-2361 -48 c7 -9 11 -18 8 -20
-9 -10 -38 7 -38 21 0 18 14 18 30 -1z m1854 -68 c-4 -39 -11 -64 -16 -61 -10
6 -2 109 9 127 11 18 13 -4 7 -66z m1966 -69 c7 -12 7 -18 1 -18 -12 0 -61 69
-61 85 0 10 43 -37 60 -67z m-1620 27 c-7 -9 -15 -13 -17 -11 -7 7 7 26 19 26
6 0 6 -6 -2 -15z m129 -27 c40 -15 17 -19 -40 -7 -68 14 -93 34 -29 24 25 -4
56 -12 69 -17z m-2604 -57 c-16 -15 -65 -25 -65 -13 0 11 21 19 55 21 12 1 15
-3 10 -8z m5472 -193 c-3 -7 -5 -2 -5 12 0 14 2 19 5 13 2 -7 2 -19 0 -25z
m458 -98 c21 -22 37 -40 34 -40 -3 0 -23 18 -44 40 -21 22 -37 40 -34 40 3 0
23 -18 44 -40z m-2904 -180 c5 0 9 -4 9 -9 0 -4 -11 -6 -25 -3 -14 2 -25 9
-25 14 0 6 7 7 16 4 9 -3 20 -6 25 -6z m406 -47 c-4 -3 -40 -11 -79 -17 -64
-10 -73 -14 -76 -33 -4 -24 -96 -97 -115 -90 -6 2 11 18 37 36 27 19 52 46 58
62 8 22 18 30 46 34 21 4 44 8 52 10 29 6 83 5 77 -2z m1043 -8 c0 -12 -55
-54 -70 -54 -9 0 0 12 20 29 34 28 50 36 50 25z m-1334 -70 c10 -8 14 -15 7
-15 -6 0 -18 -3 -27 -6 -12 -4 -16 0 -16 15 0 25 9 26 36 6z m-3271 -25 c5 -8
11 -7 21 1 8 7 14 7 14 1 0 -12 -30 -38 -30 -26 0 5 -4 3 -8 -3 -7 -10 -12
-10 -27 0 -10 8 -15 19 -11 25 9 15 33 15 41 2z m4935 -8 c0 -12 -68 -48 -75
-40 -3 3 9 15 27 26 37 23 48 26 48 14z m69 -48 c-13 -14 -25 -20 -27 -14 -5
15 17 40 36 40 12 0 10 -6 -9 -26z m-215 -50 c3 -9 6 -24 6 -35 0 -19 0 -19
-20 1 -11 11 -17 26 -14 35 8 19 20 19 28 -1z m-17 -74 c-1 -21 -12 -26 -21
-11 -8 13 4 42 14 36 5 -3 8 -14 7 -25z m-5033 -14 c-3 -13 2 -122 10 -242 16
-219 18 -374 4 -374 -9 0 -11 18 -8 125 0 44 -6 172 -15 283 -12 156 -13 207
-4 218 16 20 20 17 13 -10z m5124 -49 c2 -15 1 -27 -2 -27 -16 0 -36 14 -36
26 0 8 -7 14 -15 14 -8 0 -15 6 -15 14 0 10 8 12 33 7 25 -5 33 -12 35 -34z
m-215 -24 c4 -18 3 -33 -1 -33 -9 0 -32 59 -32 80 0 26 27 -12 33 -47z m411
-22 c33 -34 36 -42 27 -60 -7 -11 -30 -30 -52 -42 -34 -17 -38 -23 -28 -35 15
-18 3 -32 -13 -16 -9 9 -17 7 -35 -10 -13 -12 -26 -18 -30 -15 -11 11 38 57
95 89 28 16 52 33 52 37 0 4 -16 22 -35 41 -34 33 -43 50 -27 50 4 0 25 -18
46 -39z m-196 -26 c10 0 17 -7 17 -15 0 -10 -10 -15 -32 -15 -18 0 -33 5 -33
10 0 6 -3 21 -7 35 l-6 25 22 -20 c13 -11 30 -20 39 -20z m-5323 -135 c3 -5 2
-10 -3 -10 -16 0 -103 -200 -97 -221 4 -10 2 -19 -4 -19 -25 0 -19 43 20 126
22 49 45 99 50 112 9 23 24 29 34 12z m2555 -262 c0 -11 -118 -20 -170 -13
-86 12 -63 20 56 20 63 0 114 -3 114 -7z"/>
<path d="M3971 5026 c-28 -63 -37 -101 -64 -238 -17 -88 -21 -128 -13 -131 6
-2 53 -13 104 -23 115 -23 116 -21 131 101 17 142 23 130 -71 161 -101 33 -98
31 -92 49 5 12 9 12 28 0 21 -14 131 -55 146 -55 10 0 52 112 44 119 -3 3 -48
18 -101 32 l-95 27 -17 -42z"/>
<path d="M4160 4831 c0 -5 -7 -71 -16 -148 -25 -208 -30 -187 45 -191 54 -3
67 0 86 18 13 12 25 33 28 47 5 27 -10 84 -24 93 -5 3 3 37 17 74 14 38 21 72
17 76 -7 6 -132 40 -148 40 -3 0 -5 -4 -5 -9z"/>
<path d="M3875 4632 c-15 -15 -1 -30 32 -37 60 -11 108 -34 118 -57 9 -20 61
-46 71 -35 3 2 7 21 11 41 5 31 2 37 -18 44 -41 16 -208 50 -214 44z"/>
<path d="M3880 4570 c0 -5 4 -10 9 -10 6 0 13 5 16 10 3 6 -1 10 -9 10 -9 0
-16 -4 -16 -10z"/>
<path d="M3927 4563 c-4 -3 -2 -12 5 -20 6 -7 7 -17 3 -21 -4 -4 -10 -1 -12 6
-7 18 -23 4 -23 -19 0 -10 -5 -19 -11 -19 -7 0 -8 11 -4 31 6 26 4 30 -11 27
-14 -2 -23 -20 -34 -70 -8 -37 -22 -73 -31 -80 -15 -12 -85 -225 -77 -233 4
-4 149 -45 159 -45 3 0 16 27 29 61 12 33 36 77 54 97 28 32 116 181 116 197
0 3 -8 5 -17 5 -10 0 -31 11 -48 24 -27 22 -31 22 -52 9 -21 -14 -23 -14 -23
1 0 9 5 16 10 16 16 0 11 27 -6 34 -19 7 -19 7 -27 -1z m113 -124 c0 -5 -4 -9
-10 -9 -5 0 -10 7 -10 16 0 8 5 12 10 9 6 -3 10 -10 10 -16z m-80 -49 c8 -5
12 -12 9 -15 -8 -8 -39 5 -39 16 0 11 11 11 30 -1z m-76 -97 c-8 -32 -12 -39
-19 -31 -9 8 6 58 16 58 5 0 6 -12 3 -27z"/>
<path d="M3714 4139 c-7 -12 13 -29 35 -29 11 0 10 5 -4 20 -21 23 -22 23 -31
9z"/>
<path d="M3780 4116 c16 -14 74 -36 96 -36 32 0 10 20 -38 35 -64 19 -77 19
-58 1z"/>
<path d="M4035 4020 c-3 -5 3 -10 14 -10 12 0 21 -4 21 -9 0 -5 9 -11 20 -14
23 -6 27 -37 5 -37 -8 0 -15 -7 -15 -16 0 -13 5 -12 30 6 22 16 41 21 65 18
63 -7 39 19 -45 51 -61 23 -86 26 -95 11z"/>
<path d="M4250 3640 c0 -10 8 -21 18 -24 10 -3 32 -35 50 -71 18 -37 36 -64
41 -61 5 3 0 23 -10 43 -11 21 -25 55 -31 75 -8 27 -19 40 -39 47 -25 9 -29 7
-29 -9z"/>
<path d="M4334 3608 c13 -45 61 -128 74 -128 4 0 63 -7 132 -15 142 -17 263
-20 241 -6 -8 5 -42 13 -75 16 -59 7 -190 65 -329 147 -26 15 -50 28 -52 28
-2 0 2 -19 9 -42z"/>
<path d="M3842 3558 c3 -7 17 -16 34 -20 16 -5 51 -16 77 -25 34 -11 52 -12
59 -5 7 7 -3 14 -33 22 -24 6 -66 18 -92 25 -35 10 -47 11 -45 3z"/>
<path d="M4036 3515 c-4 -15 -5 -29 -2 -32 10 -10 129 -15 209 -8 86 7 86 7
75 30 -10 22 -16 24 -92 23 -44 -1 -104 2 -132 6 -50 7 -52 7 -58 -19z"/>
<path d="M3787 3353 c-3 -16 -9 -36 -12 -45 -5 -12 -2 -18 8 -18 8 0 17 12 20
28 3 15 9 35 12 45 5 11 2 17 -8 17 -8 0 -17 -12 -20 -27z"/>
<path d="M4427 3356 c-3 -8 2 -16 14 -19 16 -4 17 -2 8 14 -12 23 -15 23 -22
5z"/>
<path d="M3846 3329 c-34 -97 -34 -97 -12 -103 26 -7 32 -1 44 46 9 31 7 39
-9 54 -15 14 -19 14 -23 3z"/>
<path d="M4226 3315 c-3 -8 -1 -15 4 -15 6 0 10 7 10 15 0 8 -2 15 -4 15 -2 0
-6 -7 -10 -15z"/>
<path d="M3520 3286 c0 -8 -6 -21 -14 -29 -8 -7 -18 -29 -24 -49 -9 -32 -8
-35 18 -45 25 -9 29 -8 38 12 19 42 25 94 12 110 -16 19 -30 19 -30 1z"/>
<path d="M3415 3210 c3 -5 10 -10 16 -10 5 0 9 5 9 10 0 6 -7 10 -16 10 -8 0
-12 -4 -9 -10z"/>
<path d="M4535 3210 c-3 -5 -17 -10 -31 -10 -13 0 -24 -3 -24 -6 0 -14 54
-104 63 -104 5 0 22 7 37 17 l28 16 -26 48 c-28 50 -36 57 -47 39z"/>
<path d="M4316 2949 c-9 -47 -8 -49 20 -49 23 0 25 3 22 37 -4 50 -33 58 -42
12z"/>
<path d="M4374 2954 c3 -9 6 -21 7 -27 0 -7 4 -3 9 8 13 29 12 35 -6 35 -11 0
-14 -5 -10 -16z"/>
<path d="M4435 5190 c3 -5 10 -10 16 -10 5 0 9 5 9 10 0 6 -7 10 -16 10 -8 0
-12 -4 -9 -10z"/>
<path d="M2600 3636 c0 -2 9 -6 20 -9 11 -3 18 -1 14 4 -5 9 -34 13 -34 5z"/>
<path d="M1480 1370 c-13 -8 -12 -10 3 -10 9 0 17 5 17 10 0 12 -1 12 -20 0z"/>
<path d="M1375 1360 c-8 -13 5 -13 25 0 13 8 13 10 -2 10 -9 0 -20 -4 -23 -10z"/>
<path d="M1420 1350 c-8 -5 -10 -10 -5 -10 6 0 17 5 25 10 8 5 11 10 5 10 -5
0 -17 -5 -25 -10z"/>
<path d="M1330 1290 c-8 -5 -10 -10 -5 -10 6 0 17 5 25 10 8 5 11 10 5 10 -5
0 -17 -5 -25 -10z"/>
<path d="M3950 2890 c-13 -8 -12 -10 3 -10 9 0 17 5 17 10 0 12 -1 12 -20 0z"/>
<path d="M3990 2881 c0 -5 5 -13 10 -16 6 -3 10 -2 10 4 0 5 -4 13 -10 16 -5
3 -10 2 -10 -4z"/>
<path d="M4698 2830 c9 -16 18 -25 20 -20 4 12 -17 50 -28 50 -5 0 -1 -13 8
-30z"/>
<path d="M4582 2805 c6 -14 15 -25 19 -25 5 0 3 11 -3 25 -6 14 -15 25 -19 25
-5 0 -3 -11 3 -25z"/>
<path d="M4527 2804 c-27 -15 -27 -15 -11 -47 10 -18 24 -42 32 -54 l14 -23
39 22 c32 18 37 24 28 40 -6 11 -17 17 -25 14 -9 -3 -20 7 -31 29 -18 32 -19
33 -46 19z"/>
<path d="M4430 2782 c-19 -9 -37 -18 -39 -19 -6 -4 41 -103 49 -103 18 0 80
31 80 41 0 13 -38 86 -47 92 -5 3 -24 -3 -43 -11z"/>
<path d="M915 2750 c4 -6 11 -8 16 -5 14 9 11 15 -7 15 -8 0 -12 -5 -9 -10z"/>
<path d="M7880 2786 c0 -2 27 -59 59 -127 l59 -124 1 118 1 117 -29 0 c-17 0
-33 5 -36 10 -6 9 -55 15 -55 6z"/>
</g>
</svg>
