<?xml version="1.0" standalone="no"?>
<!DOCTYPE svg PUBLIC "-//W3C//DTD SVG 20010904//EN"
 "http://www.w3.org/TR/2001/REC-SVG-20010904/DTD/svg10.dtd">
<svg version="1.0" xmlns="http://www.w3.org/2000/svg"
 width="800.000000pt" height="800.000000pt" viewBox="0 0 800.000000 800.000000"
 preserveAspectRatio="xMidYMid meet">
<metadata>
Created by potrace 1.16, written by Peter Selinger 2001-2019
</metadata>
<g transform="translate(0.000000,800.000000) scale(0.100000,-0.100000)"
fill="#000000" stroke="none">
<path d="M0 6360 c0 -1630 0 -1640 20 -1640 15 0 19 -6 18 -25 -2 -17 -8 -25
-20 -25 -17 0 -18 -102 -18 -2335 l0 -2335 3185 0 3185 0 -7 32 -6 31 26 -19
c15 -10 27 -25 27 -31 0 -10 166 -13 795 -13 l795 0 0 4000 0 4000 -4000 0
-4000 0 0 -1640z m2830 1532 c0 -10 -70 -45 -77 -39 -4 5 58 47 70 47 4 0 7
-4 7 -8z m-2530 -67 c0 -21 -19 -28 -34 -12 -10 10 -12 17 -4 25 13 13 38 4
38 -13z m2184 -47 c13 -8 8 -13 -23 -23 -16 -5 -21 -4 -17 4 4 6 2 11 -3 11
-6 0 -11 5 -11 10 0 6 7 10 15 10 8 0 15 6 16 13 0 7 3 6 6 -3 3 -8 11 -18 17
-22z m231 -119 c20 -58 13 -78 -8 -27 -24 57 -29 78 -18 78 5 0 17 -23 26 -51z
m90 -39 c8 -16 15 -38 15 -50 0 -14 6 -20 22 -20 20 0 21 -2 7 -15 -8 -9 -24
-17 -35 -20 -10 -2 -29 -7 -41 -11 -33 -9 -28 10 6 23 25 9 28 14 23 39 -3 16
-11 38 -18 49 -16 23 -18 35 -4 35 5 0 16 -13 25 -30z m-421 -36 c8 -22 9 -21
-16 -44 -12 -11 -31 -20 -42 -20 -18 1 -19 2 -5 10 9 5 22 23 29 40 14 33 25
38 34 14z m-470 -35 c-8 -14 -34 -11 -34 4 0 8 3 17 7 20 9 9 34 -13 27 -24z
m530 -64 c4 -14 12 -25 19 -25 8 0 7 -3 -3 -9 -10 -7 -18 -3 -31 17 -16 27
-16 42 1 42 4 0 11 -11 14 -25z m586 -344 c0 -5 -23 -23 -50 -40 -61 -37 -64
-39 -70 -27 -3 6 20 25 50 43 58 35 70 39 70 24z m-1040 -18 c-1 -19 -16 -31
-29 -24 -7 5 -10 14 -7 20 8 12 36 15 36 4z m-1396 -89 c9 -3 16 -10 16 -14 0
-10 -49 0 -56 11 -6 10 17 12 40 3z m470 -40 c20 -8 21 -44 2 -44 -28 0 -46
12 -46 31 0 19 16 24 44 13z m2060 -101 c8 -8 13 -10 46 -12 11 0 20 -6 20
-12 0 -8 -12 -9 -37 -4 -21 4 -43 8 -50 8 -6 0 -9 6 -6 14 6 15 16 17 27 6z
m115 -79 c24 -40 25 -44 11 -44 -5 0 -19 18 -30 40 -25 50 -10 53 19 4z m-89
-22 c0 -12 -78 -47 -86 -39 -3 3 11 15 33 26 42 22 53 25 53 13z m276 -107
l59 -24 26 32 27 32 24 -21 c12 -12 42 -33 65 -48 l42 -26 11 39 c9 36 44 80
55 69 3 -3 -4 -16 -15 -31 -11 -14 -20 -28 -20 -30 0 -3 18 -16 40 -28 45 -25
52 -40 18 -36 -15 1 -23 -3 -23 -13 0 -13 16 -14 100 -12 97 3 101 2 148 -27
58 -38 83 -77 92 -147 4 -31 17 -68 31 -90 26 -38 25 -56 -1 -34 -26 22 -45
66 -45 107 0 35 -2 39 -26 38 -15 -1 -32 -9 -39 -18 -12 -17 -45 -14 -45 4 0
6 -9 5 -20 -1 -13 -7 -20 -7 -20 -1 0 6 10 15 21 22 18 9 24 8 31 -5 8 -13 13
-15 24 -6 22 19 0 47 -40 52 -26 3 -32 1 -25 -8 6 -8 4 -16 -8 -25 -15 -12
-16 -12 -10 3 3 10 2 20 -3 23 -6 4 -10 16 -10 29 0 34 36 46 84 29 56 -19 58
-7 2 18 -60 26 -85 22 -109 -19 -18 -31 -19 -36 -4 -80 13 -40 13 -49 1 -58
-20 -16 -17 -36 11 -74 14 -19 25 -30 25 -25 0 5 5 4 12 -3 17 -17 29 -15 22
3 -8 21 5 19 49 -8 l37 -23 -28 -27 -29 -28 86 -81 c198 -186 238 -229 256
-268 11 -25 31 -48 49 -57 17 -9 42 -24 55 -35 25 -19 25 -19 48 7 36 38 78
34 104 -9 11 -19 29 -36 39 -39 22 -6 26 -31 10 -73 -11 -28 1 -54 24 -54 7 0
6 3 -2 9 -10 6 -10 10 3 21 8 7 15 9 15 4 0 -4 11 3 24 15 14 14 26 18 30 12
4 -5 -2 -14 -12 -20 -10 -5 -27 -25 -37 -44 l-18 -35 29 -26 c16 -14 44 -36
61 -48 18 -13 33 -26 33 -29 0 -3 -17 -25 -37 -49 -21 -24 -33 -45 -26 -47 23
-8 101 -70 131 -104 30 -35 86 -61 185 -87 32 -9 38 -8 47 8 8 16 6 22 -15 36
-45 30 -26 37 23 8 89 -53 133 -74 153 -74 10 0 19 -5 19 -10 0 -6 14 -19 32
-30 32 -19 32 -19 55 1 l22 21 20 -33 c12 -19 19 -39 17 -46 -3 -6 39 -40 92
-75 53 -34 121 -82 151 -106 52 -43 54 -43 68 -23 15 22 48 27 73 11 15 -9 8
-29 -25 -74 -13 -17 -15 -17 -30 -2 -18 17 -27 21 -23 8 2 -4 -7 -18 -19 -32
-13 -13 -23 -27 -23 -32 0 -4 -9 -8 -20 -8 -13 0 -18 5 -14 15 4 9 0 15 -9 15
-9 0 -22 3 -31 6 -13 5 -16 -1 -16 -30 0 -35 1 -36 40 -36 22 0 40 5 40 11 0
6 9 8 20 4 15 -5 18 -3 14 9 -3 9 3 19 15 26 26 13 41 6 41 -21 0 -14 7 -19
25 -19 14 0 25 -4 25 -10 0 -5 -11 -10 -25 -10 -21 0 -25 -5 -25 -31 l0 -32
65 5 c36 3 67 2 70 -2 6 -9 -45 -20 -96 -20 l-39 0 6 -40 c4 -27 3 -40 -5 -40
-6 0 -11 9 -11 19 0 44 -10 51 -69 51 -81 0 -82 -1 -75 -106 l7 -90 56 4 c74
5 81 8 81 32 0 11 5 20 10 20 6 0 10 -9 10 -20 0 -18 6 -20 75 -17 52 1 75 6
75 15 0 8 -16 12 -46 12 -27 0 -43 4 -39 10 3 6 17 10 31 10 24 0 24 2 20 61
-4 54 -2 62 15 66 23 6 21 24 -22 169 -30 104 -37 160 -19 149 6 -3 10 -19 10
-34 0 -15 4 -41 9 -57 5 -16 19 -66 31 -111 l23 -83 46 3 c41 2 46 0 49 -20 2
-13 -1 -23 -7 -23 -6 0 -11 7 -11 15 0 15 -26 20 -53 10 -12 -5 -12 -17 -2
-80 9 -62 9 -75 -2 -75 -8 0 -13 -13 -13 -35 0 -24 5 -35 14 -35 10 0 16 -17
20 -55 3 -30 9 -81 12 -112 3 -32 11 -61 18 -65 8 -6 7 -8 -2 -8 -21 0 -6
-200 16 -217 9 -8 11 -13 4 -13 -16 0 -15 -37 1 -43 9 -4 8 -8 -3 -16 -20 -14
-27 14 -39 152 -5 60 -11 110 -13 112 -2 2 -8 1 -14 -3 -14 -9 2 -183 17 -193
8 -4 8 -9 1 -13 -6 -4 -8 -28 -5 -62 5 -50 4 -56 -16 -61 -29 -7 -27 -23 4
-23 20 0 25 -5 25 -26 0 -14 4 -23 10 -19 6 3 10 1 10 -4 0 -6 -5 -11 -10 -11
-9 0 -4 -77 6 -89 2 -2 23 3 46 12 49 16 38 23 157 -84 56 -51 66 -82 11 -35
-17 14 -35 26 -38 25 -4 0 -26 -23 -49 -52 -35 -44 -40 -54 -28 -67 7 -8 32
-53 55 -99 40 -79 42 -85 25 -97 -10 -7 -15 -20 -12 -28 8 -21 -10 -30 -20
-11 -8 14 -14 14 -54 -4 -24 -11 -52 -21 -61 -21 -10 0 -22 -9 -28 -20 -6 -11
-15 -18 -21 -14 -5 3 -17 0 -26 -8 -15 -11 -16 -11 -10 6 6 16 3 18 -23 14
-19 -3 -29 -1 -27 6 2 6 19 13 38 16 l34 5 -2 69 c-2 38 -4 71 -6 72 -2 2 -54
-5 -116 -16 -62 -11 -120 -19 -129 -18 -18 3 -19 -3 -8 -69 5 -26 4 -43 -2
-43 -5 0 -12 12 -15 28 -3 15 -11 51 -18 80 -11 43 -18 52 -36 52 -17 0 -23 7
-29 34 -5 30 -10 35 -38 38 -41 4 -90 -20 -111 -54 -9 -16 -21 -28 -26 -28 -6
0 1 19 16 43 14 23 30 41 36 39 6 -1 24 7 40 18 24 18 29 19 29 6 0 -23 31
-20 37 4 6 24 23 16 23 -11 0 -10 4 -19 9 -19 5 0 12 -10 16 -22 8 -23 8 -22
12 3 3 21 9 26 23 22 13 -4 30 7 54 33 l35 38 -24 28 c-13 15 -40 54 -60 88
-20 33 -39 60 -41 60 -13 0 -44 -22 -44 -30 0 -6 12 -10 28 -10 25 -1 26 -1 8
-15 -18 -13 -18 -16 -2 -64 9 -27 16 -57 16 -65 0 -27 -19 -18 -26 12 -3 15
-15 58 -26 96 -18 63 -18 71 -4 81 9 7 14 14 12 16 -10 11 -16 79 -7 79 6 0
13 -16 17 -35 3 -19 11 -38 17 -42 6 -4 7 4 3 23 -4 16 -10 86 -13 157 -4 99
-8 127 -19 127 -8 0 -14 -9 -14 -20 0 -11 -4 -20 -10 -20 -5 0 -10 9 -10 20 0
19 -7 20 -115 20 l-115 0 0 -51 0 -51 118 5 c113 4 117 4 114 25 -2 12 1 22 7
22 13 0 18 -19 13 -46 -3 -19 -9 -21 -54 -17 -40 3 -53 0 -64 -14 -9 -12 -13
-13 -14 -5 0 9 -16 12 -57 10 l-57 -3 3 -50 c2 -27 4 -61 6 -75 1 -14 3 -36 3
-49 2 -23 4 -23 87 -20 64 3 86 1 90 -9 8 -22 6 -42 -5 -42 -5 0 -10 9 -10 20
0 20 -4 20 -77 14 -43 -4 -80 -8 -81 -10 -2 -1 1 -51 6 -111 7 -79 15 -118 31
-144 l22 -37 -22 -5 c-14 -4 -20 -11 -16 -21 4 -10 -5 -18 -31 -27 -20 -6 -41
-14 -47 -17 -5 -3 -16 -7 -25 -7 -8 -1 -30 -5 -47 -9 -22 -5 -33 -4 -33 3 0 6
5 11 11 11 7 0 43 9 81 21 51 15 68 24 64 35 -3 8 4 19 16 25 19 10 20 13 6
23 -10 7 -18 37 -23 90 l-7 78 -30 -6 c-17 -3 -36 -6 -44 -6 -9 0 -12 -13 -11
-42 l2 -41 -94 -29 c-52 -15 -95 -29 -97 -31 -2 -1 6 -35 18 -74 18 -64 23
-71 39 -63 24 13 29 13 29 -3 0 -9 -44 -23 -127 -41 -71 -16 -138 -32 -150
-37 -13 -5 -25 -4 -28 1 -3 5 6 12 21 16 26 7 26 8 20 62 -4 31 -8 57 -10 59
-1 2 -16 -1 -32 -6 -16 -5 -62 -19 -102 -31 -44 -12 -72 -26 -70 -33 2 -7 -2
-13 -7 -15 -6 -2 -15 20 -21 47 -20 85 -15 82 -86 60 -35 -10 -84 -21 -109
-24 l-46 -6 15 -54 c10 -38 20 -55 31 -55 13 0 21 -21 34 -84 19 -92 23 -236
7 -236 -6 0 -10 36 -10 88 0 48 -4 103 -9 122 -5 19 -12 47 -15 63 -4 15 -13
27 -20 27 -8 0 -17 13 -21 30 -4 16 -10 32 -14 34 -4 3 -79 -10 -167 -29 -87
-19 -168 -35 -179 -35 -39 0 7 19 78 31 38 7 71 17 73 23 5 12 -42 236 -51
244 -3 3 -35 0 -71 -7 -61 -11 -86 -9 -72 5 3 3 23 7 44 10 67 7 94 15 94 27
0 10 -41 210 -44 213 0 1 -23 -2 -51 -7 -27 -6 -62 -10 -77 -9 -16 0 -28 -3
-28 -8 0 -5 9 -58 20 -118 25 -139 26 -134 -10 -134 -35 0 -37 -9 -10 -59 19
-35 70 -191 70 -214 0 -28 -20 15 -44 95 -23 76 -60 158 -71 158 -2 0 -20 -10
-40 -21 -20 -12 -38 -19 -41 -16 -8 8 82 67 103 67 43 1 46 12 28 106 -10 49
-18 100 -19 114 0 14 -5 24 -11 24 -5 -1 -59 -7 -120 -14 -60 -6 -112 -15
-115 -19 -3 -4 -18 -11 -33 -15 -23 -5 -27 -11 -22 -29 6 -21 66 -185 79 -218
5 -10 2 -16 -8 -16 -8 0 -14 3 -13 6 1 3 -11 41 -27 84 -24 67 -31 78 -50 75
-20 -3 -21 -7 -9 -49 4 -13 -8 -21 -47 -34 -43 -14 -51 -20 -46 -36 3 -10 9
-28 12 -39 11 -35 -11 -22 -24 15 -12 32 -15 33 -40 24 -38 -15 -102 -21 -102
-9 0 6 5 10 10 10 12 0 13 10 1 29 -8 12 -29 7 -128 -29 -65 -23 -121 -46
-125 -49 -4 -3 3 -35 16 -70 19 -52 33 -72 76 -108 l53 -44 27 26 27 26 106
-108 106 -108 36 35 c20 19 50 52 67 73 l31 38 -40 42 c-39 40 -70 87 -58 87
3 0 30 -26 59 -57 39 -42 56 -54 67 -47 8 5 19 9 24 9 6 1 9 5 9 10 -13 86
-15 117 -6 112 5 -4 12 -29 16 -56 4 -28 13 -68 21 -90 8 -22 10 -43 5 -46 -4
-3 -13 9 -19 25 -5 17 -14 30 -20 30 -17 0 -23 -20 -10 -36 11 -13 9 -14 -13
-9 -21 5 -35 -5 -107 -81 -45 -47 -85 -84 -88 -80 -4 3 -1 12 5 18 10 10 -10
35 -89 115 l-102 102 -61 -55 c-46 -42 -60 -61 -58 -78 3 -26 -23 -43 -32 -20
-3 8 0 14 6 14 6 0 9 3 5 6 -3 3 -45 -26 -93 -65 -52 -42 -93 -67 -100 -63 -7
4 -69 62 -139 130 l-126 122 -32 -16 c-48 -25 -97 -65 -97 -79 0 -7 -17 -16
-38 -21 -31 -7 -66 -39 -200 -179 l-162 -170 107 -102 c59 -56 104 -105 101
-109 -4 -4 -55 39 -114 95 l-107 102 -74 -73 c-40 -40 -73 -67 -73 -61 0 7 30
43 67 79 l67 68 -105 98 c-57 54 -137 129 -177 165 l-74 67 -56 -59 c-111
-119 -159 -171 -217 -235 -120 -133 -147 -161 -152 -156 -6 6 93 121 259 298
60 65 119 129 130 143 l21 27 -44 44 c-24 24 -39 44 -34 44 6 0 111 -95 235
-212 l224 -211 172 176 c107 111 178 177 190 177 11 0 36 16 55 36 18 20 51
44 71 55 25 12 35 24 32 33 -6 17 113 81 226 123 36 13 74 28 85 33 48 21 349
130 360 130 7 0 18 -14 24 -30 5 -17 14 -30 18 -30 4 0 47 14 96 32 68 25 86
36 81 48 -17 40 -16 50 2 50 41 0 45 13 24 75 -11 33 -20 66 -19 75 1 8 -1 27
-5 42 -7 24 -11 26 -28 17 -21 -11 -38 -4 -22 10 5 5 19 12 30 15 19 6 24 0
37 -39 9 -25 12 -45 7 -45 -5 0 -4 -11 2 -25 13 -28 20 -30 51 -13 21 11 104
23 332 48 55 6 101 13 103 15 2 2 -3 42 -12 90 -8 48 -12 94 -9 102 3 8 1 18
-4 22 -14 8 -26 51 -15 51 5 0 14 -10 21 -22 14 -28 15 -29 -52 157 -32 90
-46 140 -38 143 6 2 11 10 11 18 0 8 7 14 15 14 10 0 15 10 15 30 0 29 -8 35
-39 30 -12 -1 -13 1 -2 14 20 24 -33 34 -69 12 -35 -20 -40 -20 -40 -1 0 9
-12 27 -27 41 -16 14 -29 30 -29 35 -1 5 -2 13 -3 18 0 5 -22 32 -47 60 l-46
51 -42 -36 c-69 -60 -248 -193 -303 -225 -29 -17 -53 -33 -53 -35 0 -3 29 -54
65 -114 82 -140 147 -268 142 -283 -2 -7 -25 30 -51 81 -39 78 -159 288 -171
301 -5 4 -33 -12 -151 -87 l-82 -51 -33 50 c-19 27 -37 49 -40 49 -3 0 -38
-21 -77 -46 -45 -29 -69 -50 -65 -57 39 -66 119 -184 128 -192 20 -16 97 -164
93 -177 -2 -6 -24 24 -48 68 -23 43 -47 81 -51 84 -5 3 -27 35 -50 70 -23 36
-45 67 -50 68 -5 2 -9 8 -9 13 0 5 -29 54 -65 109 l-64 100 -123 -78 c-68 -43
-155 -99 -194 -125 -40 -25 -79 -56 -88 -69 -15 -20 -18 -21 -38 -9 -20 13
-24 11 -50 -20 l-28 -34 70 -70 70 -70 68 70 c47 48 109 96 201 153 73 46 135
81 139 78 7 -8 18 0 -138 -99 -79 -50 -160 -111 -194 -146 l-60 -60 68 -71
c38 -39 66 -74 62 -77 -3 -4 -69 56 -146 133 -78 76 -145 140 -149 142 -5 2
-38 -23 -73 -56 -34 -32 -92 -78 -128 -102 -36 -24 -81 -62 -100 -84 -19 -23
-59 -67 -90 -99 l-55 -59 35 -31 c20 -18 61 -55 93 -84 31 -28 53 -54 49 -57
-5 -3 -40 24 -78 60 -38 36 -79 72 -91 80 -23 17 -26 14 -115 -90 -14 -16 -27
-25 -31 -20 -3 5 42 60 99 123 79 85 103 118 99 132 -5 15 -1 19 18 19 17 0
35 13 58 43 18 24 64 62 106 88 40 24 99 70 130 102 57 57 57 57 35 72 -12 9
-43 46 -69 83 -79 113 -65 108 -146 50 -160 -114 -228 -171 -349 -296 -102
-105 -135 -132 -163 -138 -23 -4 -35 -2 -35 5 0 6 15 11 33 12 28 1 46 16 147
127 103 113 257 242 409 342 l22 15 -62 83 c-34 45 -59 86 -55 89 7 8 7 8 132
-167 53 -74 113 -152 132 -173 l36 -37 38 37 c32 31 39 34 53 23 13 -11 21 -9
48 17 31 30 57 47 277 187 58 37 105 72 105 79 0 7 8 11 17 9 9 -1 53 21 98
48 95 60 76 70 170 -88 46 -76 66 -102 78 -97 24 9 322 197 322 203 0 3 -19
29 -41 59 -32 41 -50 55 -83 64 -82 21 -77 11 -54 97 12 42 25 81 29 86 14 16
11 -13 -9 -86 l-19 -67 51 -12 c33 -8 58 -21 71 -38 11 -14 33 -41 50 -59 l30
-33 80 61 c44 34 89 69 100 78 11 10 35 28 53 40 17 13 32 27 32 32 0 5 -25
36 -57 70 -39 42 -59 58 -67 50 -5 -5 -14 -10 -18 -10 -15 0 -8 15 13 28 19
12 25 9 69 -40 l48 -53 26 25 26 25 -83 88 c-45 49 -93 104 -107 123 -14 19
-44 43 -67 54 -47 21 -57 36 -19 26 20 -5 -11 42 -146 221 -93 126 -173 234
-176 242 -15 40 35 -23 210 -257 l191 -256 18 23 c11 13 19 30 19 38 0 8 4 12
9 9 12 -8 2 -46 -16 -67 -12 -14 -8 -23 29 -67 46 -57 53 -60 80 -35 26 23 36
7 11 -19 l-22 -21 41 -48 40 -48 59 45 c33 25 59 49 59 53 0 4 -21 34 -46 67
-54 69 -145 154 -191 178 -18 9 -33 21 -33 26 0 19 70 -22 126 -74 l59 -55 23
21 c12 12 19 25 15 28 -76 65 -146 116 -193 140 -51 26 -83 50 -65 50 21 0
142 -73 202 -122 79 -64 85 -65 130 -8 l22 27 -87 78 c-48 43 -88 84 -90 92
-5 19 -12 16 -42 -12 l-25 -24 -50 33 c-92 61 -240 145 -268 152 -15 3 -26 11
-24 17 2 7 -31 28 -72 49 -57 28 -84 49 -109 83 l-33 45 -112 -77 c-62 -42
-114 -78 -117 -80 -2 -2 2 -13 9 -24 17 -28 3 -39 -17 -13 -17 20 -20 18 -222
-123 -113 -79 -209 -148 -214 -153 -5 -5 1 -24 14 -45 17 -27 19 -39 11 -49
-20 -24 -91 -69 -98 -62 -3 3 -4 7 -2 9 79 59 89 69 78 88 -10 19 -12 18 -57
-18 -26 -21 -65 -52 -87 -68 -22 -15 -42 -30 -43 -31 -6 -4 79 -114 88 -114 4
0 15 9 25 20 19 21 45 27 45 11 0 -5 -9 -13 -20 -16 -28 -9 -25 -27 4 -19 13
3 27 1 30 -5 5 -7 -6 -11 -29 -11 -19 0 -52 -7 -72 -15 -47 -20 -53 -18 -25 5
l23 19 -42 56 c-24 32 -46 52 -53 48 -6 -4 -57 -42 -114 -86 -57 -44 -106 -77
-109 -73 -4 3 -4 7 -2 9 2 2 52 41 112 87 59 45 107 86 106 89 0 3 -48 69
-107 146 l-107 140 -52 0 c-85 0 -77 20 16 40 29 6 33 5 28 -9 -4 -10 -1 -16
7 -16 7 0 62 -65 122 -145 60 -80 111 -145 114 -145 3 0 44 29 92 65 l87 66
-36 57 c-20 31 -94 143 -163 247 -221 331 -238 360 -246 410 -4 27 -10 42 -14
35 -6 -9 -13 -9 -29 -1 -12 7 -19 16 -16 22 4 5 12 6 18 2 16 -10 57 -11 57
-1 0 10 49 42 56 36 3 -3 -9 -20 -27 -37 -27 -28 -30 -36 -24 -68 9 -47 62
-126 81 -119 7 3 53 32 101 64 49 32 119 76 156 96 l68 38 -37 67 c-48 84 -78
131 -70 109 3 -10 1 -18 -4 -18 -5 0 -11 9 -15 20 -3 11 -9 19 -13 17 -12 -4
-53 43 -47 53 3 6 -1 7 -9 4 -9 -3 -16 -1 -16 5 0 22 29 10 50 -20 12 -16 25
-28 27 -25 10 10 -19 66 -34 66 -8 0 -11 5 -8 10 4 6 -18 52 -47 102 -63 110
-62 108 -50 108 6 0 34 -43 64 -95 42 -75 57 -94 70 -89 20 6 24 -6 8 -22 -7
-7 14 -51 61 -135 39 -68 75 -128 80 -134 10 -10 99 33 99 47 0 5 5 8 12 8 7
0 54 28 105 61 100 67 138 76 51 13 -29 -21 -54 -39 -56 -40 -1 0 5 -15 15
-31 l17 -31 68 46 c37 25 68 51 68 59 0 7 -29 60 -65 117 -60 95 -68 104 -102
109 -21 4 -42 2 -50 -5 -16 -13 -43 6 -43 30 0 12 3 13 12 4 17 -17 33 -15 19
2 -9 11 -9 19 1 35 7 12 16 21 20 21 17 0 6 26 -43 102 -28 44 -48 82 -44 86
3 4 9 2 13 -4 4 -6 29 -45 55 -87 27 -43 53 -75 58 -71 22 13 93 6 105 -11 12
-17 17 -17 78 -1 75 18 86 19 86 7 0 -5 -32 -17 -72 -27 -57 -14 -79 -25 -105
-52 l-33 -35 66 -104 c36 -56 70 -103 75 -103 5 0 54 30 108 66 l99 66 -64 99
c-35 55 -64 103 -64 108 0 5 8 7 19 4 10 -2 26 3 36 13 9 10 28 19 42 20 14 2
27 5 30 7 2 3 -25 53 -62 112 -36 60 -63 110 -60 113 6 6 35 -17 35 -28 0 -5
23 -47 52 -95 l52 -87 13 27 c14 26 33 29 41 7 2 -7 -3 -12 -12 -12 -9 0 -15
-3 -14 -7 0 -5 -2 -16 -6 -25 -7 -15 6 -41 41 -87 1 -2 8 1 15 6 7 6 23 14 36
17 34 11 27 -13 -8 -25 -16 -6 -30 -13 -30 -16 0 -19 57 -102 67 -98 7 2 18
-5 24 -16 8 -16 13 -18 25 -8 8 7 14 7 14 1 0 -5 -22 -26 -50 -46 -45 -32 -50
-34 -50 -16 0 11 6 20 13 20 7 0 22 6 33 14 19 14 19 15 -1 22 -11 4 -27 13
-35 20 -13 11 -22 9 -58 -15 -34 -22 -40 -30 -30 -39 8 -6 52 -65 98 -132 47
-66 86 -116 88 -110 2 6 10 6 24 -1 17 -9 18 -12 4 -22 -13 -10 -13 -15 -1
-30 13 -18 15 -18 48 5 27 18 33 27 26 39 -6 12 -3 22 11 34 11 10 20 13 20 8
0 -22 29 -20 64 4 33 24 34 27 18 39 -10 8 -12 13 -4 14 20 0 14 12 -26 58
-21 24 -39 49 -39 55 0 7 -17 36 -37 65 -21 28 -36 57 -34 63 2 6 16 -7 31
-30 15 -22 33 -41 40 -41 6 1 46 25 87 55 41 30 110 80 153 111 43 31 77 58
75 60 -6 5 -216 44 -240 44 -10 0 -27 -17 -40 -40 -28 -49 -54 -52 -91 -10
-15 17 -34 30 -42 30 -8 0 -15 6 -15 13 0 6 -29 42 -63 78 -35 36 -67 74 -71
85 -6 16 -10 13 -26 -22 -19 -40 -62 -79 -74 -67 -3 3 8 18 24 33 17 16 30 37
30 48 0 25 88 134 102 126 5 -4 -3 -20 -21 -38 -17 -18 -31 -39 -31 -48 0 -9
51 -69 114 -134 112 -116 115 -118 134 -100 11 9 26 31 33 47 8 20 17 28 26
24 8 -3 81 -17 161 -31 81 -15 158 -32 172 -39 48 -25 75 12 49 68 -8 18 -7
32 5 62 9 20 16 39 16 41 0 3 -28 4 -62 3 -73 -2 -106 5 -122 24 -6 8 -33 29
-61 48 -27 19 -51 37 -53 42 -7 14 -27 7 -47 -19 l-21 -26 -77 32 c-83 34
-138 68 -145 88 -2 7 18 -1 45 -18 27 -17 76 -42 109 -55z m-2042 36 c-9 -10
-26 18 -18 30 5 9 9 8 14 -7 4 -10 6 -21 4 -23z m1491 -26 c25 -45 12 -57 -14
-14 -23 37 -26 49 -13 49 5 0 17 -16 27 -35z m739 -116 c-2 -4 0 -10 6 -14 6
-4 8 -11 4 -16 -4 -6 -14 -3 -25 7 -24 22 -24 33 0 31 11 0 18 -4 15 -8z
m-1334 -44 c0 -8 -4 -15 -10 -15 -5 0 -10 7 -10 15 0 8 5 15 10 15 6 0 10 -7
10 -15z m-90 -26 c0 -5 -4 -9 -10 -9 -5 0 -10 7 -10 16 0 8 5 12 10 9 6 -3 10
-10 10 -16z m1544 -20 c36 -23 63 -45 60 -51 -6 -9 -30 3 -106 53 -37 23 -48
39 -29 39 6 0 39 -18 75 -41z m373 -81 c-3 -8 -6 -5 -6 6 -1 11 2 17 5 13 3
-3 4 -12 1 -19z m-837 8 c0 -10 -71 -47 -82 -44 -6 2 4 14 23 25 32 20 59 28
59 19z m-745 -85 c-3 -6 -19 -18 -36 -26 -24 -13 -29 -13 -29 -2 0 8 15 22 32
30 34 16 45 16 33 -2z m1685 -1 c0 -5 -4 -10 -10 -10 -5 0 -10 5 -10 10 0 6 5
10 10 10 6 0 10 -4 10 -10z m-35 -10 c3 -5 1 -10 -4 -10 -6 0 -11 5 -11 10 0
6 2 10 4 10 3 0 8 -4 11 -10z m-1855 -20 c0 -5 -4 -10 -10 -10 -5 0 -10 5 -10
10 0 6 5 10 10 10 6 0 10 -4 10 -10z m130 -9 c0 -7 -29 -24 -37 -22 -2 1 -15
-11 -30 -27 -48 -47 -83 -59 -83 -29 0 5 7 7 15 3 9 -3 15 0 15 9 0 8 7 15 15
15 8 0 19 9 25 20 6 12 21 20 35 20 14 0 25 5 25 10 0 6 5 10 10 10 6 0 10 -4
10 -9z m-110 -31 c0 -5 -5 -10 -11 -10 -5 0 -7 5 -4 10 3 6 8 10 11 10 2 0 4
-4 4 -10z m-260 -29 c0 -5 -6 -12 -12 -14 -7 -3 -3 -6 10 -6 l23 -1 -21 -30
c-29 -40 -68 -39 -62 2 2 15 8 28 13 28 5 0 9 7 9 15 0 8 9 15 20 15 11 0 20
-4 20 -9z m1210 -17 c0 -8 -4 -12 -10 -9 -5 3 -10 10 -10 16 0 5 5 9 10 9 6 0
10 -7 10 -16z m-20 -14 c0 -5 -4 -10 -10 -10 -5 0 -10 5 -10 10 0 6 5 10 10
10 6 0 10 -4 10 -10z m-970 -10 c0 -5 -4 -10 -10 -10 -5 0 -10 5 -10 10 0 6 5
10 10 10 6 0 10 -4 10 -10z m2315 -114 c17 -14 24 -25 18 -26 -7 0 -13 5 -13
10 0 6 -5 10 -10 10 -14 0 -80 43 -80 53 0 10 48 -16 85 -47z m75 -21 c0 -11
31 -57 83 -122 21 -28 -5 -11 -40 26 -74 76 -84 92 -72 107 13 16 29 10 29
-11z m-2526 -1 c4 -10 1 -14 -6 -12 -15 5 -23 28 -10 28 5 0 13 -7 16 -16z
m-544 -40 c0 -8 -4 -12 -10 -9 -5 3 -10 10 -10 16 0 5 5 9 10 9 6 0 10 -7 10
-16z m560 -13 c0 -36 -13 -81 -22 -81 -6 0 -8 11 -6 23 4 22 2 24 -34 22 -21
-1 -45 -8 -53 -15 -29 -24 -28 0 1 30 32 33 49 39 40 14 -5 -12 -2 -15 10 -10
8 3 22 6 30 6 8 0 14 7 14 15 0 8 5 15 10 15 6 0 10 -8 10 -19z m272 -16 c9
-21 9 -29 -4 -41 -14 -14 -18 -13 -38 16 -19 26 -20 34 -9 41 24 15 39 10 51
-16z m1889 -11 c11 -14 10 -16 -6 -13 -11 2 -26 0 -33 -5 -19 -12 -27 1 -12
19 16 19 34 19 51 -1z m-2651 -15 c0 -6 -4 -7 -10 -4 -5 3 -10 11 -10 16 0 6
5 7 10 4 6 -3 10 -11 10 -16z m290 -39 c0 -5 -6 -10 -12 -10 -7 0 -26 -7 -42
-15 -33 -17 -45 -13 -27 9 17 21 81 33 81 16z m2840 -45 c13 -14 19 -25 14
-25 -8 1 -50 50 -41 50 2 0 14 -11 27 -25z m130 -42 c-1 -17 -47 -41 -61 -32
-12 8 -11 12 5 24 21 16 56 20 56 8z m-3100 -159 c0 -8 -4 -12 -10 -9 -5 3
-10 13 -10 21 0 8 5 12 10 9 6 -3 10 -13 10 -21z m-1500 -2 c0 -14 -59 -66
-67 -59 -3 4 6 21 22 37 28 30 45 38 45 22z m4520 -12 c0 -5 -4 -10 -9 -10 -6
0 -13 5 -16 10 -3 6 1 10 9 10 9 0 16 -4 16 -10z m84 -124 c-16 -26 -34 -34
-34 -17 0 4 10 21 22 36 26 34 37 17 12 -19z m-1954 -140 c0 -3 -4 -8 -10 -11
-5 -3 -10 -1 -10 4 0 6 5 11 10 11 6 0 10 -2 10 -4z m1754 -21 c5 0 11 -6 14
-13 3 -9 -3 -13 -19 -10 -14 2 -25 11 -27 22 -3 13 0 16 10 10 7 -5 17 -9 22
-9z m-1464 -20 c0 -8 -4 -15 -9 -15 -5 0 -17 -3 -26 -7 -15 -5 -16 -3 -6 15
13 25 41 29 41 7z m2170 -96 c0 -16 -3 -18 -19 -9 -25 13 -34 27 -26 40 10 16
45 -8 45 -31z m118 -59 c15 -14 44 -36 64 -50 34 -22 48 -40 32 -40 -9 0 -95
61 -116 82 -14 14 -23 16 -32 9 -10 -8 -17 -6 -30 7 -15 18 -15 19 19 18 23
-1 46 -11 63 -26z m-1928 -19 c0 -6 -4 -13 -10 -16 -5 -3 -10 1 -10 9 0 9 5
16 10 16 6 0 10 -4 10 -9z m-430 -118 c-1 -15 -55 -68 -81 -80 -15 -6 -44 -34
-65 -62 -24 -31 -45 -48 -54 -45 -9 2 -30 -10 -48 -26 -30 -27 -40 -30 -103
-30 -38 0 -69 3 -69 7 0 3 7 14 16 24 15 16 14 20 -10 52 -27 36 -32 47 -17
47 16 0 62 -77 55 -93 -5 -14 1 -17 38 -17 36 0 54 7 90 35 25 19 48 32 50 29
3 -2 34 29 69 70 35 41 73 79 84 84 24 13 45 15 45 5z m114 -39 c9 -3 16 -13
16 -20 0 -12 -4 -12 -20 -4 -11 6 -20 15 -20 20 0 12 3 12 24 4z m2362 -24
c46 -32 63 -65 19 -36 -14 9 -36 23 -50 32 -23 15 -34 34 -19 34 3 0 25 -14
50 -30z m-2956 -49 c0 -13 -29 -35 -37 -28 -7 8 15 37 28 37 5 0 9 -4 9 -9z
m-174 -27 c38 -17 68 -24 86 -20 30 6 36 -5 14 -23 -11 -10 -32 -5 -95 20 -45
17 -81 36 -81 40 0 14 13 11 76 -17z m822 -5 c19 -17 32 -33 29 -36 -7 -6 -77
49 -77 60 0 14 15 6 48 -24z m2426 10 c-3 -5 -10 -7 -15 -3 -5 3 -7 10 -3 15
3 5 10 7 15 3 5 -3 7 -10 3 -15z m-2074 -37 c0 -11 -41 -34 -48 -27 -4 4 2 13
12 21 22 15 36 18 36 6z m-1706 -18 c4 -10 1 -14 -6 -12 -15 5 -23 28 -10 28
5 0 13 -7 16 -16z m1457 -53 l44 -39 -43 -45 -44 -45 23 -21 c12 -11 19 -24
15 -28 -3 -4 -20 7 -37 24 l-31 30 43 42 44 41 -37 34 c-21 18 -38 36 -38 40
0 14 20 4 61 -33z m-393 -7 c-10 -10 -28 6 -28 24 0 15 1 15 17 -1 9 -9 14
-19 11 -23z m-2668 0 c0 -9 -7 -14 -17 -12 -25 5 -28 28 -4 28 12 0 21 -6 21
-16z m1227 -63 c-10 -4 -27 17 -27 33 0 5 8 1 19 -10 10 -10 14 -21 8 -23z
m-773 -7 c9 -3 16 -13 16 -21 0 -11 -7 -13 -32 -8 -39 9 -42 11 -33 24 7 12
26 14 49 5z m1351 -14 c-3 -5 -10 -10 -16 -10 -5 0 -9 5 -9 10 0 6 7 10 16 10
8 0 12 -4 9 -10z m325 -100 c0 -5 -4 -10 -10 -10 -5 0 -10 5 -10 10 0 6 5 10
10 10 6 0 10 -4 10 -10z m3484 -177 c4 -81 10 -151 12 -155 3 -5 7 -38 9 -73
2 -36 7 -75 10 -87 5 -15 3 -19 -6 -16 -16 5 -22 47 -39 243 -6 72 -13 154
-17 183 -5 42 -3 52 9 52 12 0 16 -27 22 -147z m-4782 85 c-10 -10 -15 -10
-22 2 -6 9 -5 17 3 22 18 11 33 -10 19 -24z m4390 -30 c-9 -9 -15 -9 -24 0 -9
9 -7 12 12 12 19 0 21 -3 12 -12z m88 -24 c0 -8 -4 -14 -10 -14 -5 0 -10 9
-10 21 0 11 5 17 10 14 6 -3 10 -13 10 -21z m-4856 -29 c3 -9 0 -15 -9 -15 -8
0 -15 7 -15 15 0 8 4 15 9 15 5 0 11 -7 15 -15z m366 0 c0 -17 -2 -18 -24 -9
-23 9 -20 24 4 24 11 0 20 -7 20 -15z m-1180 -20 c0 -18 -5 -25 -20 -25 -14 0
-18 5 -13 18 6 14 22 31 31 32 1 0 2 -11 2 -25z m1230 15 c0 -5 -6 -10 -14
-10 -8 0 -18 5 -21 10 -3 6 3 10 14 10 12 0 21 -4 21 -10z m-1125 -10 c-3 -5
1 -10 9 -10 9 0 16 5 16 10 0 13 47 13 55 0 4 -6 4 -24 0 -39 -6 -29 -17 -32
-65 -21 -3 0 9 7 25 15 l30 13 -37 1 c-20 1 -43 4 -52 7 -23 9 -20 34 5 34 11
0 17 -4 14 -10z m2235 -10 c0 -5 -4 -10 -10 -10 -5 0 -10 5 -10 10 0 6 5 10
10 10 6 0 10 -4 10 -10z m3210 0 c0 -5 -4 -10 -10 -10 -5 0 -10 5 -10 10 0 6
5 10 10 10 6 0 10 -4 10 -10z m-1720 -89 c-6 -12 -15 -21 -21 -21 -10 0 -5 13
14 38 15 19 20 7 7 -17z m-2792 -29 c2 -7 -3 -12 -12 -12 -9 0 -16 7 -16 16 0
17 22 14 28 -4z m2792 -12 c0 -5 -9 -14 -20 -20 -22 -12 -27 -1 -8 18 14 14
28 16 28 2z m-3380 -94 c0 -11 -20 -26 -34 -26 -1 0 -2 9 -3 20 -1 14 4 20 18
20 10 0 19 -6 19 -14z m1030 -16 c9 -17 8 -20 -10 -20 -13 0 -20 7 -20 20 0
11 4 20 10 20 5 0 14 -9 20 -20z m-522 -82 c8 -18 -15 -5 -55 31 -23 21 -40
41 -36 44 6 6 85 -58 91 -75z m2757 52 c3 -5 1 -10 -4 -10 -6 0 -11 5 -11 10
0 6 2 10 4 10 3 0 8 -4 11 -10z m2625 -97 c0 -8 -9 -17 -20 -20 -23 -6 -26
-19 -7 -26 6 -3 2 -6 -11 -6 -13 -1 -22 2 -20 7 3 4 11 21 18 38 14 32 40 36
40 7z m-5670 -14 c0 -12 -7 -19 -20 -19 -13 0 -20 7 -20 18 0 11 8 18 20 19
14 1 20 -4 20 -18z m2030 11 c0 -14 -106 -83 -120 -78 -6 2 17 22 52 45 74 48
68 46 68 33z m490 0 c0 -5 -5 -10 -11 -10 -5 0 -7 5 -4 10 3 6 8 10 11 10 2 0
4 -4 4 -10z m2830 -70 c0 -49 1 -50 30 -50 40 0 38 -17 -2 -21 -45 -5 -78 0
-78 13 0 5 7 8 15 4 12 -4 15 5 15 49 0 30 5 55 10 55 6 0 10 -22 10 -50z m40
46 c0 -11 -19 -15 -25 -6 -3 5 1 10 9 10 9 0 16 -2 16 -4z m-5875 -26 c3 -5 2
-10 -3 -10 -6 0 -8 -9 -5 -20 4 -13 0 -20 -9 -20 -10 0 -15 11 -16 30 -1 30
19 42 33 20z m5960 0 c-3 -5 -16 -10 -28 -10 -18 0 -19 2 -7 10 20 13 43 13
35 0z m-5081 -67 c9 -22 -13 -24 -34 -3 -11 11 -26 20 -33 20 -16 0 -50 34
-42 42 8 8 104 -44 109 -59z m2176 63 c0 -3 -4 -8 -10 -11 -5 -3 -10 -1 -10 4
0 6 5 11 10 11 6 0 10 -2 10 -4z m-269 -33 c-8 -15 -10 -15 -11 -2 0 17 10 32
18 25 2 -3 -1 -13 -7 -23z m-1704 -7 c-7 -12 -13 -23 -14 -25 -2 -2 -12 4 -23
14 -24 22 -20 30 18 31 28 1 29 -1 19 -20z m2462 2 c6 -17 4 -27 -10 -40 -10
-10 -23 -18 -29 -18 -5 0 -10 -7 -10 -15 0 -14 -34 -36 -77 -49 -38 -12 -26 9
13 23 26 9 41 24 57 57 11 24 25 44 30 44 4 0 5 5 2 10 -3 6 -1 10 5 10 6 0
14 -10 19 -22z m-1179 -7 c0 -12 -77 -61 -84 -54 -3 4 13 19 36 35 48 31 48
31 48 19z m-2375 -31 c3 -5 -1 -10 -9 -10 -9 0 -16 5 -16 10 0 6 4 10 9 10 6
0 13 -4 16 -10z m5275 -15 c0 -14 -4 -25 -10 -25 -5 0 -10 11 -10 25 0 14 5
25 10 25 6 0 10 -11 10 -25z m-3678 -10 c0 -13 -50 -51 -57 -43 -8 7 36 59 47
56 5 -2 10 -8 10 -13z m-1599 -20 c-3 -8 -9 -15 -14 -15 -10 0 -12 24 -3 33
11 11 24 -3 17 -18z m-63 -30 c0 -22 -4 -25 -35 -25 -31 0 -35 3 -35 25 0 22
4 25 35 25 31 0 35 -3 35 -25z m3600 21 c0 -3 -4 -8 -10 -11 -5 -3 -10 -1 -10
4 0 6 5 11 10 11 6 0 10 -2 10 -4z m60 -6 c0 -5 -4 -10 -10 -10 -5 0 -10 5
-10 10 0 6 5 10 10 10 6 0 10 -4 10 -10z m-30 -20 c0 -5 -4 -10 -10 -10 -5 0
-10 5 -10 10 0 6 5 10 10 10 6 0 10 -4 10 -10z m-954 -47 c-10 -10 -19 5 -10
18 6 11 8 11 12 0 2 -7 1 -15 -2 -18z m319 -4 c4 -11 4 -23 0 -27 -7 -7 -25
17 -25 36 0 20 18 14 25 -9z m2385 -10 c0 -17 -4 -28 -10 -24 -5 3 -10 17 -10
31 0 13 5 24 10 24 6 0 10 -14 10 -31z m-4932 -19 c10 -16 10 -20 -2 -20 -8 0
-17 -6 -19 -12 -3 -8 -6 -6 -6 5 -1 9 -8 17 -16 17 -8 0 -15 5 -15 11 0 6 7 9
15 5 8 -3 15 -1 15 4 0 17 14 11 28 -10z m2576 -36 c3 -9 6 -23 6 -32 -1 -15
-3 -14 -15 2 -17 22 -20 46 -6 46 5 0 12 -7 15 -16z m766 1 c0 -8 -4 -15 -10
-15 -5 0 -10 7 -10 15 0 8 5 15 10 15 6 0 10 -7 10 -15z m2040 -5 c0 -5 -7
-10 -15 -10 -8 0 -15 5 -15 10 0 6 7 10 15 10 8 0 15 -4 15 -10z m-5870 -90
c0 -23 -10 -26 -28 -8 -18 18 -15 28 8 28 13 0 20 -7 20 -20z m3123 -50 c33
-76 17 -89 -17 -14 -28 60 -31 74 -18 74 5 0 20 -27 35 -60z m-2469 11 c3 -5
-1 -14 -8 -21 -12 -9 -17 -7 -26 9 -9 18 -8 21 9 21 11 0 22 -4 25 -9z m2706
-1 c0 -5 -4 -10 -10 -10 -5 0 -10 5 -10 10 0 6 5 10 10 10 6 0 10 -4 10 -10z
m-3286 -51 c-6 -11 -24 -2 -24 11 0 5 7 7 15 4 8 -4 12 -10 9 -15z m2916 11
c0 -5 -5 -10 -11 -10 -5 0 -7 -4 -4 -10 3 -5 -1 -10 -9 -10 -19 0 -21 11 -4
28 15 15 28 16 28 2z m2335 0 c-3 -5 -15 -10 -26 -10 -10 0 -19 5 -19 10 0 6
12 10 26 10 14 0 23 -4 19 -10z m-5165 -45 c0 -8 -4 -15 -10 -15 -5 0 -10 7
-10 15 0 8 5 15 10 15 6 0 10 -7 10 -15z m118 -37 c-3 -7 -20 -15 -39 -18 -25
-4 -30 -7 -16 -12 24 -10 22 -38 -3 -38 -12 0 -33 11 -48 25 -39 36 -29 42 91
53 11 1 17 -3 15 -10z m277 -68 c3 -5 0 -10 -9 -10 -8 0 -16 -4 -18 -9 -1 -4
-12 0 -22 10 -19 19 -19 19 12 19 17 0 34 -4 37 -10z m3065 -76 c0 -2 -7 -4
-15 -4 -8 0 -15 4 -15 10 0 5 7 7 15 4 8 -4 15 -8 15 -10z m-2942 -116 l-53
-61 135 6 c74 4 167 9 205 13 46 3 65 2 55 -4 -31 -20 -420 -42 -420 -24 0 15
113 141 122 136 5 -3 -15 -33 -44 -66z m4296 57 c-6 -16 -24 -21 -24 -7 0 11
11 22 21 22 5 0 6 -7 3 -15z m506 -28 c0 -13 5 -28 11 -34 8 -8 8 -13 0 -17
-6 -4 -15 4 -21 19 -13 34 -13 55 0 55 6 0 10 -10 10 -23z m119 -23 c-13 -16
-40 -7 -33 11 3 7 14 11 25 8 15 -4 17 -9 8 -19z m75 -30 c11 -28 7 -74 -6
-74 -7 0 -23 -3 -35 -6 -13 -4 -23 -2 -23 4 0 5 12 13 26 16 24 6 26 11 21 41
-6 35 6 48 17 19z m-1064 -54 c0 -5 -4 -10 -10 -10 -5 0 -10 5 -10 10 0 6 5
10 10 10 6 0 10 -4 10 -10z m-850 -9 c0 -11 -50 -24 -58 -16 -8 8 19 25 41 25
9 0 17 -4 17 -9z m816 -23 c-3 -18 -8 -57 -12 -87 -6 -48 -5 -54 9 -48 22 8
22 -9 1 -21 -14 -8 -15 -16 -4 -66 6 -32 20 -77 31 -99 21 -46 24 -77 9 -77
-5 0 -10 9 -10 20 0 12 -6 33 -14 49 -8 15 -23 61 -33 102 -16 67 -17 82 -4
167 7 50 18 92 23 92 6 0 8 -14 4 -32z m934 22 c0 -5 -4 -10 -10 -10 -5 0 -10
5 -10 10 0 6 5 10 10 10 6 0 10 -4 10 -10z m80 -5 c0 -8 -4 -15 -9 -15 -13 0
-22 16 -14 24 11 11 23 6 23 -9z m250 -35 c0 -5 -7 -10 -16 -10 -8 0 -12 5 -9
10 3 6 10 10 16 10 5 0 9 -4 9 -10z m-319 -10 c1 -5 2 -16 3 -22 1 -7 0 -17
-3 -22 -5 -10 -19 19 -20 42 -1 14 18 17 20 2z m-2946 -50 c21 -22 36 -42 33
-46 -7 -7 -88 64 -88 77 0 18 17 8 55 -31z m790 30 c3 -5 2 -10 -4 -10 -5 0
-13 5 -16 10 -3 6 -2 10 4 10 5 0 13 -4 16 -10z m-925 -105 c-4 -23 -12 -31
-33 -33 -15 -2 -27 1 -27 7 0 6 7 11 15 11 9 0 15 9 15 25 0 14 5 25 10 25 6
0 10 10 11 23 1 21 1 21 8 -3 4 -14 5 -38 1 -55z m3090 55 c0 -5 -4 -10 -10
-10 -5 0 -10 5 -10 10 0 6 5 10 10 10 6 0 10 -4 10 -10z m-2970 -20 c0 -5 -2
-10 -4 -10 -3 0 -8 5 -11 10 -3 6 -1 10 4 10 6 0 11 -4 11 -10z m-1310 -30 c0
-20 -5 -30 -15 -30 -8 0 -16 5 -16 10 -1 6 -2 16 -3 23 -1 10 12 21 32 26 1 1
2 -12 2 -29z m1250 20 c0 -5 -4 -10 -10 -10 -5 0 -10 5 -10 10 0 6 5 10 10 10
6 0 10 -4 10 -10z m3040 0 c0 -5 -4 -10 -10 -10 -5 0 -10 5 -10 10 0 6 5 10
10 10 6 0 10 -4 10 -10z m-1754 -44 c17 -17 18 -36 3 -36 -8 0 -8 -5 1 -15 9
-11 9 -15 1 -15 -6 0 -14 6 -17 14 -3 8 -12 12 -21 9 -16 -6 -15 23 2 44 13
16 14 16 31 -1z m-1226 -4 c0 -5 -11 -14 -25 -20 -31 -14 -35 -15 -35 -3 0 7
22 19 58 30 1 1 2 -3 2 -7z m2230 -33 c0 -5 -11 -9 -25 -9 -21 0 -24 2 -13 14
13 14 38 11 38 -5z m804 -21 c9 -35 7 -50 -6 -46 -14 5 -22 68 -9 68 5 0 11
-10 15 -22z m-2618 -86 c-22 -5 -30 3 -21 18 5 8 11 7 22 -2 15 -12 14 -13 -1
-16z m2613 -23 c13 -39 14 -59 2 -59 -5 0 -12 12 -15 28 -4 15 -9 35 -12 45
-9 31 14 18 25 -14z m-1269 -9 c0 -5 -6 -10 -14 -10 -8 0 -18 5 -21 10 -3 6 3
10 14 10 12 0 21 -4 21 -10z m40 0 c0 -5 -4 -10 -10 -10 -5 0 -10 5 -10 10 0
6 5 10 10 10 6 0 10 -4 10 -10z m-70 -84 c0 -30 5 -58 10 -61 6 -3 10 -13 10
-22 0 -14 -4 -13 -22 5 -20 18 -22 29 -20 76 5 72 22 73 22 2z m210 39 c0 -8
-7 -15 -15 -15 -9 0 -12 6 -9 15 4 8 10 15 15 15 5 0 9 -7 9 -15z m1095 -64
c-3 -12 -11 -21 -17 -21 -5 0 -7 7 -4 16 3 9 6 23 6 32 0 12 3 13 11 5 6 -6 8
-20 4 -32z m-2364 -71 c18 0 8 -18 -13 -23 -30 -8 -41 13 -20 36 15 17 17 17
20 3 2 -9 8 -16 13 -16z m985 -22 c4 -6 3 -13 -3 -15 -6 -2 -17 -9 -26 -16
-14 -11 -12 -16 16 -50 l32 -37 75 26 c129 46 194 48 242 7 19 -17 84 -34 93
-24 4 3 34 11 68 17 57 11 62 10 79 -10 25 -31 22 -36 -12 -19 -24 12 -42 13
-95 4 -66 -10 -89 -6 -157 23 -42 18 -95 21 -133 6 -14 -5 -36 -12 -48 -14
-12 -2 -42 -12 -67 -21 l-45 -16 -43 46 -44 46 -161 -108 c-89 -58 -164 -109
-167 -113 -3 -3 -35 -19 -72 -35 -37 -17 -68 -34 -68 -38 0 -4 -16 -21 -35
-38 -19 -17 -35 -37 -35 -44 0 -7 -4 -15 -8 -17 -28 -10 -171 -267 -201 -358
-7 -22 -53 -78 -126 -154 -63 -65 -115 -123 -115 -127 0 -5 -11 -18 -24 -31
-13 -13 -69 -75 -126 -138 -182 -203 -210 -231 -220 -225 -6 4 21 41 62 87
129 141 168 190 162 199 -3 5 1 12 10 15 8 3 12 12 9 21 -4 10 0 14 13 11 12
-2 23 7 32 25 7 15 21 27 30 27 13 0 181 182 227 246 7 10 -6 28 -54 72 -35
33 -59 62 -54 65 5 3 30 -14 54 -39 76 -78 67 -83 159 94 73 139 112 206 130
222 3 3 29 33 59 67 29 35 57 61 61 58 11 -7 60 15 60 27 0 4 8 8 19 8 24 0
43 23 35 43 -3 8 -1 18 5 22 6 3 14 -1 17 -9 9 -23 27 -19 21 4 -6 23 3 26 21
8 9 -9 12 -7 12 11 0 18 4 21 21 16 18 -6 20 -4 14 15 -6 20 -5 20 15 8 19
-11 24 -10 40 10 10 12 25 22 32 22 8 0 24 9 36 20 12 11 24 20 28 20 4 0 14
8 23 18 9 11 33 24 54 31 20 7 37 19 37 27 0 17 26 19 36 2z m1364 -8 c0 -5
-15 -10 -32 -9 -31 1 -32 1 -8 9 35 11 40 11 40 0z m-3160 -16 c0 -17 -22 -14
-28 4 -2 7 3 12 12 12 9 0 16 -7 16 -16z m3055 2 c-17 -7 -67 -16 -110 -20
-44 -4 -88 -10 -97 -12 -12 -4 -18 0 -18 10 0 9 8 16 18 17 9 1 57 3 106 5 50
3 92 7 95 9 2 3 11 5 20 5 9 -1 2 -7 -14 -14z m-2985 -4 c0 -5 -9 -19 -20 -32
-15 -17 -23 -21 -32 -12 -14 14 9 38 50 51 1 1 2 -3 2 -7z m-1159 -25 c-13
-13 -26 -3 -16 12 3 6 11 8 17 5 6 -4 6 -10 -1 -17z m3449 -2 c0 -8 -4 -15
-10 -15 -5 0 -10 7 -10 15 0 8 5 15 10 15 6 0 10 -7 10 -15z m437 -37 c-34
-48 -46 -60 -56 -54 -6 4 5 23 27 45 40 41 54 45 29 9z m-3305 -8 c4 -54 4
-54 -34 -55 -30 -1 -35 1 -27 11 6 7 17 10 25 7 8 -3 14 0 14 6 0 6 -5 11 -10
11 -6 0 -5 8 2 20 7 11 16 20 20 20 5 0 9 -9 10 -20z m389 -32 c21 -17 39 -38
39 -46 0 -9 -16 0 -42 24 -68 60 -65 77 3 22z m2439 -5 c0 -14 -19 -38 -25
-32 -8 8 5 39 16 39 5 0 9 -3 9 -7z m100 -13 c0 -5 -2 -10 -4 -10 -3 0 -8 5
-11 10 -3 6 -1 10 4 10 6 0 11 -4 11 -10z m280 -10 c-24 -15 -37 -11 -16 5 11
8 22 12 25 9 3 -3 -1 -9 -9 -14z m-2429 -27 c8 -55 7 -63 -9 -61 -24 4 -47 49
-30 60 16 10 38 10 39 1z m2385 -8 c-11 -8 -22 -12 -25 -9 -6 6 19 24 34 24 6
-1 1 -7 -9 -15z m-46 -5 c0 -5 -11 -10 -25 -10 -14 0 -25 5 -25 10 0 6 11 10
25 10 14 0 25 -4 25 -10z m830 -15 c13 -16 6 -35 -15 -35 -20 0 -39 37 -22 43
20 9 24 8 37 -8z m-3450 -20 c7 -8 53 -52 102 -97 70 -64 92 -78 98 -67 7 11
12 11 22 1 9 -9 9 -15 0 -24 -7 -7 -12 -8 -12 -2 0 5 -4 3 -9 -5 -7 -11 -34 9
-120 89 -61 57 -111 108 -111 112 0 13 17 9 30 -7z m330 -47 c0 -10 -7 -18
-15 -18 -8 0 -15 8 -15 18 0 10 7 19 15 19 8 0 15 -9 15 -19z m94 -9 c-6 -10
-54 -12 -54 -3 0 4 8 13 17 20 19 13 48 0 37 -17z m236 -15 c0 -8 -4 -12 -10
-9 -5 3 -10 10 -10 16 0 5 5 9 10 9 6 0 10 -7 10 -16z m-150 -73 c0 -12 -20
-25 -27 -18 -7 7 6 27 18 27 5 0 9 -4 9 -9z m-920 -36 c14 -16 10 -18 -14 -9
-9 3 -16 10 -16 15 0 14 16 11 30 -6z m1015 -14 c3 -5 1 -12 -5 -16 -5 -3 -10
1 -10 9 0 18 6 21 15 7z m2875 -1 c8 -5 12 -12 9 -15 -8 -8 -39 5 -39 16 0 11
11 11 30 -1z m-3015 -59 c-3 -6 -11 -11 -17 -11 -6 0 -6 6 2 15 14 17 26 13
15 -4z m3003 -29 c9 -5 30 -15 46 -23 32 -15 46 -39 23 -39 -8 0 -26 9 -40 20
-14 11 -39 20 -56 20 -33 0 -42 16 -13 23 9 3 18 5 20 6 1 0 10 -3 20 -7z
m-2788 -62 c0 -5 -5 -10 -11 -10 -5 0 -7 5 -4 10 3 6 8 10 11 10 2 0 4 -4 4
-10z m30 -40 c0 -5 -2 -10 -4 -10 -3 0 -8 5 -11 10 -3 6 -1 10 4 10 6 0 11 -4
11 -10z m2810 -44 c0 -8 7 -19 15 -26 19 -16 20 -80 1 -80 -8 0 -19 14 -25 31
-14 40 -15 102 -1 94 6 -3 10 -12 10 -19z m-2960 -1 c20 -24 6 -28 -15 -5 -10
11 -13 20 -8 20 6 0 16 -7 23 -15z m-2730 -14 c0 -17 -48 -66 -56 -58 -4 4 5
21 21 37 31 33 35 35 35 21z m5810 -29 c0 -5 -9 -17 -20 -27 -16 -14 -20 -15
-20 -4 0 16 19 39 32 39 4 0 8 -4 8 -8z m-3691 -129 c12 -14 19 -28 16 -31 -6
-6 -55 38 -55 50 0 16 19 7 39 -19z m-9 -82 c0 -5 -7 -11 -15 -15 -15 -5 -20
5 -8 17 9 10 23 9 23 -2z m-166 -40 c7 -11 -14 -20 -31 -13 -7 2 -10 8 -7 13
7 12 31 12 38 0z m5096 -109 c0 -5 -9 -17 -20 -27 -23 -21 -26 -14 -8 15 13
20 28 27 28 12z m-455 -12 c-3 -5 -11 -10 -16 -10 -6 0 -7 5 -4 10 3 6 11 10
16 10 6 0 7 -4 4 -10z m84 -126 c-18 -20 -19 -24 -6 -24 9 0 22 9 30 20 8 11
17 17 20 14 4 -4 -2 -19 -13 -33 -10 -15 -21 -38 -25 -52 -3 -13 -14 -34 -23
-47 l-18 -23 -34 33 -35 33 55 55 c30 31 59 54 63 52 5 -2 -2 -15 -14 -28z
m-5709 -129 c16 -20 1 -38 -23 -29 -17 6 -22 25 -10 37 10 11 19 8 33 -8z
m1324 -166 c-3 -5 -10 -7 -15 -3 -5 3 -7 10 -3 15 3 5 10 7 15 3 5 -3 7 -10 3
-15z m4034 -108 c3 -8 -1 -12 -9 -9 -7 2 -15 10 -17 17 -3 8 1 12 9 9 7 -2 15
-10 17 -17z m-2038 -151 c0 -24 -13 -37 -31 -33 -18 5 -26 33 -13 45 7 8 44
-2 44 -12z m580 -47 c0 -14 -19 -38 -25 -32 -8 8 5 39 16 39 5 0 9 -3 9 -7z
m-16 -157 c-10 -58 -22 -102 -26 -98 -8 8 5 108 23 176 19 71 21 28 3 -78z
m-4064 15 c0 -6 -4 -13 -10 -16 -5 -3 -10 1 -10 9 0 9 5 16 10 16 6 0 10 -4
10 -9z m4590 -90 c0 -5 -7 -11 -15 -15 -15 -5 -20 5 -8 17 9 10 23 9 23 -2z
m-472 -180 c-1 -20 -8 -31 -29 -40 -29 -13 -66 -12 -61 2 1 4 2 19 2 33 0 19
4 25 18 22 9 -2 16 -11 14 -19 -1 -9 3 -7 13 5 8 11 15 26 15 34 0 11 3 12 14
3 8 -7 14 -25 14 -40z m-128 -121 c0 -5 -4 -10 -10 -10 -5 0 -10 5 -10 10 0 6
5 10 10 10 6 0 10 -4 10 -10z m1048 -79 c-2 -9 -15 -17 -31 -19 -31 -4 -33 1
-11 27 19 22 47 17 42 -8z m208 -70 c-4 -5 -13 -8 -22 -4 -11 4 -12 8 -3 20
14 16 36 2 25 -16z m-1271 -9 c20 -14 15 -33 -12 -43 -31 -12 -44 -2 -37 29 6
22 29 29 49 14z"/>
<path d="M3686 6634 c-9 -23 -8 -24 13 -24 24 0 35 26 15 34 -21 8 -21 8 -28
-10z"/>
<path d="M3922 6518 c3 -7 19 -15 36 -19 17 -4 40 -17 51 -30 11 -13 22 -21
26 -17 13 13 -16 46 -55 62 -48 19 -63 20 -58 4z"/>
<path d="M3010 6392 c-8 -3 -19 -11 -23 -18 -4 -8 -21 -14 -37 -14 -17 0 -30
-3 -30 -6 0 -11 91 -152 106 -165 11 -9 22 -6 57 17 23 15 43 29 45 30 3 2
-85 145 -95 155 -5 3 -15 4 -23 1z"/>
<path d="M3620 6304 c-63 -46 -139 -100 -168 -120 -43 -27 -51 -38 -43 -48 7
-8 10 -18 9 -23 -2 -4 9 -22 25 -38 15 -16 27 -33 27 -37 0 -5 10 -8 22 -8 17
0 19 -3 10 -12 -7 -7 -12 -16 -12 -20 0 -13 28 -9 33 5 2 6 8 8 13 4 5 -4 2
-12 -6 -17 -12 -7 -12 -12 -2 -22 9 -9 15 -8 26 8 8 10 18 15 23 11 4 -5 0
-14 -10 -21 -9 -7 -17 -18 -17 -23 0 -10 66 -112 117 -181 l25 -33 24 22 c44
41 24 0 -44 -90 -18 -24 -40 -57 -48 -74 -14 -27 -14 -31 1 -46 14 -14 17 -14
25 -1 5 8 14 21 19 29 7 11 31 -4 108 -68 55 -44 107 -81 117 -81 9 0 16 -6
14 -12 -1 -7 34 -48 78 -91 l81 -77 49 52 c27 29 54 52 59 51 6 -2 20 23 33
55 l22 57 -37 32 c-21 18 -32 32 -24 33 8 0 27 -12 43 -27 l27 -26 21 48 20
47 -22 20 c-13 11 -66 49 -118 85 -52 35 -136 93 -187 128 -70 48 -106 66
-150 75 -32 6 -72 18 -90 26 -17 8 -34 14 -38 14 -20 0 -75 34 -75 46 0 18 3
18 42 -6 18 -11 65 -29 103 -41 39 -11 91 -27 117 -36 l47 -17 21 27 c16 20
34 28 71 33 27 4 52 11 55 15 3 5 16 9 28 9 13 0 29 6 35 14 17 20 -6 66 -33
66 -21 0 -60 33 -97 83 -11 15 -29 27 -39 27 -15 0 -37 28 -28 35 10 7 70 -29
85 -51 31 -45 65 -74 87 -74 22 0 1 23 -142 152 -29 26 -68 72 -87 102 -33 52
-87 96 -116 96 -8 -1 -66 -39 -129 -86z"/>
<path d="M2612 6335 c-37 -16 -50 -39 -32 -60 18 -22 66 -18 100 7 37 27 38
45 4 58 -31 12 -32 12 -72 -5z"/>
<path d="M3960 6260 c0 -13 5 -18 15 -14 8 4 15 10 15 14 0 4 -7 10 -15 14
-10 4 -15 -1 -15 -14z"/>
<path d="M3926 6255 c4 -8 8 -15 10 -15 2 0 4 7 4 15 0 8 -4 15 -10 15 -5 0
-7 -7 -4 -15z"/>
<path d="M2922 6079 l-103 -70 50 -72 c28 -40 108 -153 178 -252 l129 -180 82
-40 c45 -21 82 -45 82 -52 0 -7 6 -13 13 -13 6 0 39 -16 72 -36 85 -52 156
-93 185 -107 14 -6 30 -18 36 -25 8 -12 14 -9 27 12 24 36 40 33 77 -14 17
-22 37 -39 43 -39 7 1 43 34 80 74 l69 73 -124 106 c-67 58 -128 106 -134 106
-6 0 -16 -11 -22 -25 -11 -25 -13 -25 -37 -9 -14 9 -28 14 -32 11 -7 -8 -51
15 -134 70 -52 35 -66 49 -62 64 3 11 -1 21 -10 25 -8 3 -34 32 -57 65 -23 33
-45 59 -49 57 -26 -11 -121 -85 -121 -94 0 -6 14 -17 30 -24 17 -7 30 -16 30
-21 0 -13 -6 -11 -50 11 -23 12 -49 18 -62 15 -14 -4 -31 1 -43 10 -19 16 -19
16 15 12 27 -3 45 3 85 31 94 66 106 76 101 88 -2 6 -48 74 -102 150 -90 127
-120 164 -134 163 -3 0 -51 -32 -108 -70z m774 -713 c-15 -14 -26 -30 -26 -36
0 -5 -4 -10 -10 -10 -17 0 -11 15 22 61 23 31 33 39 36 27 2 -9 -8 -28 -22
-42z"/>
<path d="M4130 6010 c6 -11 16 -20 22 -20 6 0 3 9 -7 20 -10 11 -20 20 -22 20
-2 0 1 -9 7 -20z"/>
<path d="M2709 5935 c-51 -35 -98 -61 -103 -58 -5 3 -2 11 6 17 14 10 14 15 2
39 -8 15 -17 27 -20 27 -3 0 -43 -23 -90 -51 -54 -32 -82 -55 -77 -62 4 -7 53
-73 108 -148 l101 -136 43 31 c36 26 41 34 36 56 -6 23 -5 24 11 8 16 -15 22
-13 93 40 42 31 78 60 81 63 3 3 15 11 28 18 23 12 23 12 -35 94 -31 45 -64
92 -74 104 l-16 22 -94 -64z m-39 -115 c0 -5 -2 -10 -4 -10 -3 0 -8 5 -11 10
-3 6 -1 10 4 10 6 0 11 -4 11 -10z m0 -81 c15 -28 4 -38 -15 -13 -17 22 -19
34 -5 34 5 0 14 -9 20 -21z"/>
<path d="M4145 5950 l-29 -30 37 0 c29 0 35 3 30 16 -5 14 -3 15 18 4 l24 -13
-24 27 c-14 14 -25 26 -26 26 -1 0 -14 -13 -30 -30z"/>
<path d="M3440 5924 c-25 -19 -66 -49 -93 -65 l-47 -31 17 -30 c10 -17 38 -51
62 -77 24 -25 44 -53 42 -61 -1 -14 129 -110 150 -110 8 0 59 73 59 85 0 3 11
18 25 33 14 15 25 31 25 35 0 9 -146 223 -166 245 -17 17 -23 15 -74 -24z"/>
<path d="M4000 5898 c-48 -8 -86 -45 -67 -65 26 -25 321 -223 333 -223 16 0
54 50 84 108 l21 44 -38 37 c-21 21 -46 49 -55 63 -28 42 -149 58 -278 36z"/>
<path d="M2324 5807 c-107 -63 -254 -161 -254 -170 0 -19 214 -326 224 -320 6
4 82 58 168 121 142 102 182 143 127 129 -21 -6 -25 3 -9 19 6 6 -23 54 -85
137 -52 70 -96 127 -97 126 -2 0 -35 -20 -74 -42z m56 -267 c0 -5 -7 -10 -15
-10 -8 0 -15 5 -15 10 0 6 7 10 15 10 8 0 15 -4 15 -10z"/>
<path d="M2939 5763 c-8 -10 -24 -23 -35 -28 -32 -15 -223 -159 -224 -168 0
-11 112 -167 119 -167 19 1 32 20 26 39 -7 24 10 29 19 5 5 -12 20 -5 81 37
41 28 75 55 75 60 0 5 6 9 13 9 7 0 27 11 45 23 l32 24 -43 59 c-23 33 -54 75
-68 93 -25 32 -27 32 -40 14z m-139 -264 c9 -17 8 -23 -6 -34 -16 -11 -20 -10
-32 6 -11 15 -11 21 0 34 18 20 25 19 38 -6z"/>
<path d="M4471 5766 c-10 -11 -9 -19 1 -38 15 -27 99 -118 109 -118 4 0 7 10
7 23 0 12 3 33 7 47 5 20 2 27 -17 35 -12 6 -25 21 -28 35 -4 19 -13 26 -36
28 -18 2 -36 -3 -43 -12z"/>
<path d="M4369 5718 c-12 -24 -34 -61 -50 -84 l-27 -40 106 -60 c59 -32 113
-61 121 -63 14 -3 32 15 68 67 12 17 13 26 4 35 -8 8 -11 6 -11 -10 0 -13 -13
-29 -34 -42 -38 -24 -72 -18 -113 21 -39 37 -25 41 22 7 42 -30 47 -31 71 -18
55 29 40 60 -41 85 -45 15 -58 15 -84 4 -20 -8 -30 -19 -29 -29 2 -9 -4 -16
-12 -16 -26 0 -16 28 19 52 19 13 44 23 55 23 55 0 53 42 -4 83 l-39 28 -22
-43z"/>
<path d="M4475 5650 c-5 -9 13 -19 65 -35 8 -3 2 6 -13 20 -30 27 -42 31 -52
15z"/>
<path d="M2657 5529 c5 -19 4 -20 -14 -8 -19 11 -32 4 -130 -68 -60 -45 -134
-99 -165 -120 l-55 -39 56 -87 57 -87 180 125 c98 70 183 130 187 135 8 7
-101 169 -115 170 -3 0 -4 -9 -1 -21z"/>
<path d="M4251 5448 c-40 -100 -41 -103 -23 -118 18 -15 15 -21 -70 -140 -49
-69 -105 -141 -124 -161 l-36 -36 30 -22 c17 -11 34 -21 39 -21 15 0 193 151
247 209 34 37 53 50 65 46 13 -5 11 -10 -14 -28 -16 -12 -64 -53 -106 -92 -98
-91 -159 -143 -171 -147 -6 -2 26 -34 71 -72 l82 -67 57 49 c31 27 93 75 137
107 44 32 112 87 151 122 40 35 77 63 83 63 13 0 15 -46 2 -55 -5 -3 -12 -1
-15 4 -4 5 0 12 6 14 10 4 10 6 0 6 -7 1 -34 -19 -60 -43 -26 -24 -68 -59 -94
-79 l-48 -36 58 -50 c31 -28 62 -51 68 -51 10 0 108 140 155 222 24 42 79 159
79 167 0 27 -211 167 -232 155 -4 -3 -15 2 -24 11 -22 22 -33 16 -79 -44 -34
-44 -40 -59 -37 -88 3 -25 1 -34 -7 -29 -6 4 -11 15 -11 24 -1 12 -8 8 -29
-15 -15 -18 -31 -33 -34 -33 -17 0 -2 25 62 104 42 50 69 93 68 105 -1 12 -4
21 -7 21 -3 0 -45 23 -93 50 -48 28 -91 50 -96 50 -5 0 -27 -46 -50 -102z
m177 -34 c-12 -25 -20 -24 -24 3 -4 23 4 33 21 27 11 -5 11 -11 3 -30z m58
-152 c-10 -10 -29 15 -21 28 6 9 10 8 17 -4 6 -10 7 -20 4 -24z m188 -69 c-7
-7 -15 -13 -18 -13 -8 0 -2 32 9 49 7 12 10 11 15 -4 4 -11 1 -25 -6 -32z
m-202 -55 c-7 -7 -12 -8 -12 -2 0 14 12 26 19 19 2 -3 -1 -11 -7 -17z m273 2
c3 -5 -3 -10 -14 -10 -11 0 -23 5 -26 10 -3 6 3 10 14 10 11 0 23 -4 26 -10z
m-575 -40 c0 -5 -4 -10 -10 -10 -5 0 -10 5 -10 10 0 6 5 10 10 10 6 0 10 -4
10 -10z"/>
<path d="M4592 5511 c-50 -50 -48 -68 11 -99 70 -36 68 -36 65 -20 -2 7 3 12
11 10 19 -4 42 30 29 45 -5 7 -7 16 -4 22 6 9 -60 71 -76 71 -3 0 -20 -13 -36
-29z"/>
<path d="M4117 5268 c-42 -48 -53 -66 -45 -76 9 -10 16 -8 37 11 14 14 31 23
38 20 6 -2 25 16 42 41 30 43 31 46 12 56 -11 5 -22 10 -24 10 -3 0 -30 -28
-60 -62z"/>
<path d="M3877 5246 l-67 -74 87 -81 86 -80 26 18 c31 23 98 113 78 105 -19
-7 -34 16 -18 26 9 5 7 11 -5 20 -14 13 -21 9 -56 -29 -22 -23 -42 -40 -46
-37 -3 3 16 29 43 57 l47 51 -48 49 c-26 27 -51 49 -54 49 -4 0 -37 -33 -73
-74z"/>
<path d="M4800 5148 c-19 -40 -35 -76 -35 -80 0 -3 34 -33 75 -65 135 -105
183 -138 188 -125 2 6 14 27 28 47 29 43 31 54 6 32 -17 -15 -19 -15 -35 3
-22 26 -22 27 6 32 13 2 29 -2 37 -10 11 -12 16 -11 31 9 10 13 16 31 14 40
-3 9 4 21 20 29 27 15 46 7 27 -12 -7 -7 -12 -18 -12 -24 0 -7 -5 -25 -11 -41
-7 -19 -12 -24 -18 -14 -8 12 -19 -4 -88 -117 -8 -13 -13 -25 -11 -26 20 -15
181 -55 278 -70 14 -2 63 0 110 6 47 5 95 9 108 9 21 -1 23 3 21 47 -1 26 3
56 8 67 10 18 6 23 -28 43 -21 12 -41 22 -45 22 -3 -1 -11 6 -18 15 -11 15
-18 10 -66 -46 -65 -77 -131 -141 -138 -134 -3 3 22 33 54 67 33 35 73 80 88
101 28 36 28 38 10 52 -10 8 -22 15 -26 15 -4 0 -13 7 -22 15 -29 30 -129 76
-136 64 -6 -8 -9 -8 -15 1 -4 6 -4 14 -1 17 3 4 -21 22 -55 40 -58 32 -62 33
-75 16 -18 -24 -17 -34 2 -26 14 5 14 3 3 -16 -17 -26 -29 -27 -36 -3 -3 13
-27 25 -83 42 -44 12 -87 28 -97 36 -10 7 -21 14 -24 14 -3 0 -21 -33 -39 -72z
m350 -38 c0 -5 -9 -10 -20 -10 -11 0 -20 5 -20 10 0 6 9 10 20 10 11 0 20 -4
20 -10z"/>
<path d="M5335 5080 c-3 -5 -4 -10 -1 -10 2 0 12 -3 20 -6 12 -5 15 -2 10 10
-7 18 -20 21 -29 6z"/>
<path d="M3877 5014 c-20 -19 -37 -36 -37 -37 0 -2 29 -26 64 -55 l64 -51 36
27 c19 15 35 29 36 32 0 3 -28 30 -63 61 l-63 57 -37 -34z"/>
<path d="M4681 4942 c-39 -60 -71 -110 -71 -113 0 -14 186 -119 210 -119 24 0
6 18 -52 52 -35 20 -78 39 -95 43 -29 6 -47 25 -24 25 21 0 99 -33 141 -60 26
-17 49 -30 52 -30 8 0 38 89 38 111 0 10 11 28 24 41 l24 23 -88 67 -88 67
-71 -107z"/>
<path d="M3796 4941 c-18 -20 -18 -22 24 -78 24 -32 44 -60 46 -62 4 -4 84 52
83 59 0 7 -103 88 -120 95 -9 3 -23 -3 -33 -14z"/>
<path d="M4417 4922 c-15 -9 -30 -26 -32 -37 -15 -67 -25 -148 -20 -153 3 -3
47 -8 98 -10 l92 -4 24 43 24 43 -39 34 c-22 19 -55 50 -76 68 -20 19 -38 34
-40 34 -1 0 -16 -8 -31 -18z"/>
<path d="M4022 4892 c-18 -15 -32 -30 -32 -33 0 -8 147 -129 156 -129 4 0 22
12 41 26 22 17 31 30 26 39 -8 14 -144 125 -153 125 -3 0 -20 -13 -38 -28z"/>
<path d="M4928 4887 c-9 -6 -27 -44 -41 -84 -28 -81 -28 -80 43 -108 25 -9 51
-19 58 -22 7 -3 12 3 12 15 0 11 7 39 15 63 14 39 14 45 0 55 -8 6 -14 21 -13
33 4 30 -52 66 -74 48z"/>
<path d="M5566 4874 c-3 -9 -6 -35 -6 -59 0 -42 1 -44 29 -43 15 1 33 -2 39
-6 6 -4 18 6 26 22 15 29 14 30 -22 59 -53 42 -59 45 -66 27z"/>
<path d="M4306 4833 l-56 -47 27 -28 c33 -34 61 -36 68 -5 9 41 22 127 20 127
-2 0 -28 -21 -59 -47z"/>
<path d="M3924 4816 l-42 -32 42 -55 c22 -30 51 -68 63 -83 l23 -28 48 36 c80
58 80 55 -1 121 -39 32 -76 62 -82 66 -5 4 -29 -8 -51 -25z"/>
<path d="M5712 4838 c-8 -8 -9 -15 -1 -25 16 -19 24 -16 37 12 10 22 9 25 -6
25 -10 0 -23 -5 -30 -12z"/>
<path d="M4601 4769 c-18 -30 -44 -120 -36 -127 4 -4 58 -9 121 -11 l114 -3
10 27 c5 14 10 28 10 30 0 1 -35 19 -77 39 -43 21 -80 41 -83 45 -13 21 -46
20 -59 0z"/>
<path d="M5030 4743 c-6 -27 -14 -54 -16 -60 -2 -7 9 -16 23 -19 27 -7 282 1
426 13 l77 6 0 33 0 34 -107 -7 c-137 -9 -141 -9 -242 15 -47 12 -88 19 -92
16 -4 -2 -10 0 -14 6 -3 5 -14 10 -24 10 -14 0 -22 -13 -31 -47z m240 -33 c0
-5 -4 -10 -10 -10 -5 0 -10 5 -10 10 0 6 5 10 10 10 6 0 10 -4 10 -10z"/>
<path d="M3807 4727 c-31 -23 -56 -44 -57 -47 -1 -15 99 -115 128 -127 32 -13
35 -12 73 17 21 18 39 34 39 38 0 7 -109 150 -120 157 -4 2 -32 -15 -63 -38z"/>
<path d="M4199 4742 l-32 -28 47 -28 c58 -34 116 -46 116 -23 0 8 3 22 6 31 4
11 0 16 -15 16 -11 0 -36 14 -55 30 l-35 31 -32 -29z"/>
<path d="M4350 4682 c0 -38 11 -42 111 -42 76 0 79 1 85 25 4 14 5 28 3 30 -2
2 -48 7 -102 11 l-97 7 0 -31z"/>
<path d="M4837 4674 c-10 -20 -17 -37 -15 -38 2 0 26 -13 54 -28 29 -16 66
-28 83 -28 29 0 31 2 31 38 0 36 -1 38 -62 62 -35 14 -65 26 -69 28 -3 1 -13
-14 -22 -34z"/>
<path d="M4082 4651 l-62 -49 25 -29 c23 -25 26 -26 35 -11 15 25 97 71 138
77 l35 6 -50 28 c-28 15 -52 27 -54 27 -2 0 -32 -22 -67 -49z"/>
<path d="M5618 4673 c-48 -4 -48 -4 -48 -40 0 -28 3 -34 16 -29 9 3 40 6 70 6
l54 0 0 35 c0 30 -3 35 -22 33 -13 -1 -44 -3 -70 -5z"/>
<path d="M3697 4642 c-16 -17 -13 -22 44 -88 34 -38 65 -73 70 -78 5 -5 24 3
45 19 l37 28 -34 18 c-19 10 -53 40 -77 68 -47 55 -60 61 -85 33z"/>
<path d="M5348 4652 c-68 -3 -68 -3 -68 -32 l0 -30 68 0 c37 0 97 3 135 7 65
6 67 7 67 34 l0 28 -67 -2 c-38 -1 -98 -3 -135 -5z"/>
<path d="M5010 4613 l0 -33 125 0 125 0 0 33 0 32 -125 0 -125 0 0 -32z"/>
<path d="M4240 4621 c-62 -8 -104 -27 -139 -64 l-23 -25 43 -6 c105 -14 184
-24 186 -22 0 0 5 29 10 64 9 54 8 62 -6 61 -9 -1 -41 -5 -71 -8z"/>
<path d="M4336 4570 c-4 -34 -5 -64 -3 -66 8 -8 169 -26 175 -19 4 4 12 36 17
71 l11 64 -31 0 c-16 0 -60 3 -96 6 l-66 7 -7 -63z"/>
<path d="M4550 4597 c0 -21 9 -25 106 -49 l105 -26 10 25 c27 72 33 68 -101
71 -119 2 -120 2 -120 -21z"/>
<path d="M4805 4587 c-7 -18 -17 -45 -20 -59 -6 -24 -5 -25 56 -32 34 -3 84
-6 110 -6 42 0 49 3 49 19 0 36 -12 51 -40 51 -15 0 -53 14 -84 30 l-57 31
-14 -34z"/>
<path d="M3970 4561 l-35 -29 37 -16 c47 -20 64 -20 72 0 5 12 -27 74 -38 74
-1 0 -17 -13 -36 -29z"/>
<path d="M5348 4573 l-68 -4 0 -35 c0 -35 0 -35 40 -33 53 4 61 -7 9 -14 -22
-3 -42 -7 -43 -9 -2 -1 -1 -36 2 -76 l4 -74 47 6 c25 3 85 8 134 12 l87 6 0
62 c0 33 -3 85 -6 114 l-7 52 -66 -2 c-36 -1 -96 -3 -133 -5z m102 -68 c0 -8
-6 -15 -14 -15 -8 0 -21 -3 -30 -6 -10 -4 -16 -1 -16 9 0 13 9 18 53 26 4 0 7
-6 7 -14z m40 -1 c0 -8 -4 -12 -10 -9 -5 3 -10 10 -10 16 0 5 5 9 10 9 6 0 10
-7 10 -16z m40 -10 c0 -8 -7 -14 -15 -14 -17 0 -18 2 -9 24 7 18 24 12 24 -10z
m0 -69 c0 -11 -12 -15 -50 -15 -53 0 -69 16 -22 23 57 9 72 7 72 -8z"/>
<path d="M5118 4563 c-113 -4 -114 -4 -101 -52 6 -24 6 -24 125 -19 65 3 120
7 122 9 2 2 1 19 -1 37 -4 22 -10 31 -22 30 -9 -1 -64 -4 -123 -5z"/>
<path d="M5874 4539 c3 -17 6 -42 6 -55 0 -17 4 -22 15 -18 26 10 15 104 -12
104 -12 0 -14 -7 -9 -31z"/>
<path d="M4540 4546 c0 -7 -3 -27 -6 -44 -6 -30 -5 -31 50 -47 31 -9 56 -21
56 -26 0 -5 22 -9 49 -9 48 0 49 0 56 36 3 20 2 41 -3 46 -7 7 -176 56 -199
58 -2 0 -3 -6 -3 -14z"/>
<path d="M3899 4507 c-76 -60 -72 -53 -53 -86 17 -29 19 -29 46 -15 16 8 49
28 75 44 l46 29 -47 21 c-26 11 -48 20 -49 20 -1 0 -9 -6 -18 -13z"/>
<path d="M4055 4500 c-3 -5 -5 -10 -3 -10 2 0 57 -7 123 -15 76 -10 122 -12
129 -5 13 13 -2 17 -109 29 -112 14 -132 14 -140 1z"/>
<path d="M4762 4454 c-6 -21 -9 -40 -6 -43 3 -4 62 -7 130 -8 122 -2 124 -1
124 20 0 38 -13 44 -105 51 -49 4 -99 9 -111 12 -16 4 -22 -2 -32 -32z"/>
<path d="M4320 4471 c0 -11 16 -16 85 -25 22 -3 55 -8 73 -12 25 -5 32 -3 32
9 0 16 -22 22 -127 33 -44 5 -63 3 -63 -5z"/>
<path d="M5098 4473 c-81 -4 -84 -6 -72 -50 6 -22 9 -23 90 -16 60 4 84 3 84
-6 0 -7 -28 -11 -85 -11 -91 0 -94 -2 -79 -57 5 -19 11 -21 53 -18 25 3 76 7
114 11 l67 6 0 74 0 74 -47 -2 c-27 -1 -83 -4 -125 -5z"/>
<path d="M3980 4440 c-25 -16 -38 -30 -29 -30 27 0 72 -57 72 -90 0 -25 4 -29
16 -23 9 4 70 10 136 13 l120 5 3 62 c3 72 15 65 -134 82 -123 15 -133 14
-184 -19z"/>
<path d="M4522 4438 c3 -8 26 -14 59 -15 l54 -2 -50 14 c-62 18 -68 18 -63 3z"/>
<path d="M4317 4418 c-4 -12 -7 -42 -7 -65 l0 -43 55 0 c30 0 55 4 55 8 0 4
15 6 34 4 32 -4 33 -3 40 38 3 23 4 45 1 49 -2 5 -28 11 -57 15 -29 4 -67 9
-84 12 -27 5 -32 2 -37 -18z m106 -46 c2 7 8 10 13 5 11 -10 -21 -41 -35 -33
-6 4 -11 14 -11 23 0 12 3 13 14 4 11 -9 15 -9 19 1z"/>
<path d="M4516 4388 c-16 -61 -9 -73 47 -85 137 -31 131 -33 152 48 l13 49
-88 0 c-49 0 -95 3 -103 6 -9 3 -17 -3 -21 -18z"/>
<path d="M5777 4392 l-39 -3 2 -57 c1 -31 1 -61 0 -67 -4 -20 -18 41 -19 84
-1 35 -4 42 -17 37 -9 -3 -40 -6 -70 -6 l-54 0 0 -34 c0 -18 3 -61 7 -96 l6
-62 51 6 c28 3 85 8 126 11 51 4 77 10 83 20 11 21 26 10 20 -15 -4 -15 -14
-20 -42 -20 -20 0 -82 -5 -138 -12 l-103 -12 0 -72 c0 -102 1 -104 72 -104 37
0 57 -4 53 -10 -3 -5 -31 -10 -61 -10 l-54 0 0 -51 0 -52 125 5 c69 3 125 2
125 -2 0 -10 -88 -20 -177 -20 l-73 0 1 -52 c0 -29 3 -71 7 -93 7 -35 11 -40
32 -37 24 3 24 2 5 -13 -19 -15 -19 -16 5 -61 14 -25 40 -62 57 -82 l33 -37
24 28 c14 15 32 27 40 27 8 0 29 12 46 26 24 21 30 32 26 50 -4 14 -2 24 4 24
5 0 10 9 10 20 0 15 7 20 26 20 22 0 25 3 20 23 -3 12 -6 28 -6 35 0 6 -11 12
-24 12 -19 0 -23 5 -23 26 0 18 6 28 18 31 11 3 19 14 19 27 0 53 -24 282 -30
286 -8 6 -30 46 -30 54 0 14 41 4 48 -11 15 -38 32 -24 32 26 0 60 -7 81 -28
81 -13 0 -13 2 1 18 18 19 24 82 8 82 -4 0 -6 -11 -3 -25 2 -15 0 -25 -7 -25
-6 0 -11 10 -12 23 l-1 22 -6 -22 c-6 -19 -9 -20 -25 -8 -15 11 -16 17 -7 34
6 12 15 21 20 21 6 0 10 4 10 9 0 9 -33 10 -113 3z m95 -106 c4 -6 8 -18 8
-26 -1 -11 -6 -9 -19 8 -11 12 -24 22 -31 22 -6 0 -9 4 -5 10 6 10 36 2 47
-14z m-244 -193 c-4 -22 -22 -20 -26 1 -2 10 3 16 13 16 10 0 15 -7 13 -17z
m52 -317 c0 -2 3 -11 6 -19 4 -10 -2 -14 -18 -13 -41 2 -53 36 -13 36 14 0 25
-2 25 -4z m175 -36 c-3 -5 -17 -10 -31 -10 -13 0 -24 5 -24 10 0 6 14 10 31
10 17 0 28 -4 24 -10z m23 -88 c2 -7 -6 -12 -17 -12 -21 0 -27 11 -14 24 9 9
26 2 31 -12z"/>
<path d="M4731 4345 c-6 -24 -11 -48 -11 -52 0 -5 55 -3 123 3 67 7 134 13
150 13 23 1 27 5 27 31 0 17 -6 32 -12 34 -7 3 -70 7 -139 10 l-127 5 -11 -44z"/>
<path d="M2826 4335 c-38 -24 -73 -48 -78 -53 -10 -10 58 -122 74 -122 12 0
148 88 148 96 0 5 -71 125 -74 123 -1 0 -32 -20 -70 -44z"/>
<path d="M5387 4319 c-49 -4 -91 -10 -94 -12 -3 -3 -2 -35 2 -71 l7 -66 42 0
c82 0 146 12 146 27 0 8 7 21 15 29 13 13 17 14 29 1 11 -11 12 -17 3 -26 -8
-8 -5 -11 11 -11 24 0 27 13 16 94 l-7 46 -41 -1 c-22 -1 -81 -5 -129 -10z
m152 -55 c3 -16 1 -17 -13 -5 -19 16 -21 34 -3 29 6 -3 14 -13 16 -24z m-199
-54 c0 -11 -4 -20 -10 -20 -5 0 -10 9 -10 20 0 11 5 20 10 20 6 0 10 -9 10
-20z"/>
<path d="M4436 4293 c-4 -8 -6 -24 -6 -34 0 -11 -4 -18 -9 -15 -5 3 -7 15 -4
26 5 18 -2 19 -165 22 -144 3 -176 0 -210 -14 -69 -31 -70 -34 -27 -163 21
-63 42 -115 46 -115 4 0 9 -10 11 -22 2 -18 9 -23 31 -22 15 0 54 1 86 2 l60
2 -2 56 -2 55 127 32 c70 18 129 35 131 37 2 3 0 39 -5 82 -9 68 -12 77 -34
81 -14 2 -25 -1 -28 -10z m34 -123 c0 -5 -2 -10 -4 -10 -3 0 -8 5 -11 10 -3 6
-1 10 4 10 6 0 11 -4 11 -10z m-320 -144 c0 -3 -4 -8 -10 -11 -5 -3 -10 -1
-10 4 0 6 5 11 10 11 6 0 10 -2 10 -4z"/>
<path d="M5133 4300 c-45 -3 -84 -8 -86 -10 -3 -3 -2 -36 2 -75 6 -67 7 -70
31 -68 14 1 64 5 113 8 l87 7 -4 46 c-3 26 -5 59 -5 73 -1 29 4 28 -138 19z"/>
<path d="M4514 4234 c8 -78 11 -84 35 -84 11 0 24 -12 31 -30 7 -16 13 -30 14
-30 0 0 23 7 50 15 27 8 80 15 118 15 l68 0 0 53 c0 101 1 100 -106 94 -67 -4
-103 -2 -126 7 -18 7 -46 16 -62 20 l-29 7 7 -67z m46 -54 c0 -5 -4 -10 -10
-10 -5 0 -10 5 -10 10 0 6 5 10 10 10 6 0 10 -4 10 -10z m40 0 c0 -5 -4 -10
-10 -10 -5 0 -10 5 -10 10 0 6 5 10 10 10 6 0 10 -4 10 -10z"/>
<path d="M4891 4283 l-54 -4 7 -52 c3 -29 6 -62 6 -74 0 -26 24 -29 114 -17
39 6 46 10 41 25 -5 13 -1 19 10 19 13 0 15 10 13 53 l-3 52 -40 1 c-22 0 -64
-1 -94 -3z"/>
<path d="M5540 4148 c0 -19 -2 -20 -10 -8 -9 13 -11 13 -20 0 -8 -13 -10 -12
-10 4 0 17 -6 18 -61 12 -34 -3 -79 -6 -100 -6 -33 0 -38 -3 -42 -27 -4 -27
-4 -27 -12 -5 -7 20 -12 22 -74 18 -36 -2 -78 -4 -93 -5 l-28 -1 0 -85 0 -85
34 0 c18 0 61 3 95 6 l61 7 0 53 c0 30 5 54 10 54 6 0 10 -25 10 -56 l0 -57
38 7 c20 3 72 6 115 6 75 0 77 0 77 25 0 14 5 25 10 25 6 0 10 -12 10 -26 0
-16 5 -24 13 -21 6 2 12 9 11 15 -1 7 -2 48 -2 92 -2 64 -5 80 -17 80 -9 0
-15 -9 -15 -22z m-23 -63 c-4 -8 -11 -15 -17 -15 -14 0 -13 27 3 33 16 6 21 1
14 -18z m33 -10 c0 -14 -4 -25 -10 -25 -5 0 -10 11 -10 25 0 14 5 25 10 25 6
0 10 -11 10 -25z m-330 0 c0 -8 -4 -15 -10 -15 -5 0 -10 7 -10 15 0 8 5 15 10
15 6 0 10 -7 10 -15z"/>
<path d="M4548 4134 c-3 -5 1 -66 10 -136 l15 -128 26 7 c14 3 84 25 154 49
71 24 148 46 173 50 39 5 44 4 44 -13 0 -16 6 -18 53 -13 58 6 54 -6 49 123
l-2 53 -182 -13 c-158 -11 -249 -23 -294 -40 -6 -2 -18 13 -26 33 -8 20 -17
33 -20 28z"/>
<path d="M4378 4088 l-118 -30 6 -116 c4 -65 11 -125 15 -134 5 -9 9 -26 9
-37 0 -25 9 -25 130 -11 141 17 140 17 140 56 0 27 -4 34 -20 34 -11 0 -20 5
-20 10 0 6 7 10 16 10 14 0 15 11 9 88 -9 118 -18 157 -35 158 -8 1 -68 -12
-132 -28z m47 -238 c3 -5 -3 -10 -14 -10 -12 0 -21 5 -21 10 0 6 6 10 14 10 8
0 18 -4 21 -10z m-45 -10 c0 -5 -4 -10 -9 -10 -6 0 -13 5 -16 10 -3 6 1 10 9
10 9 0 16 -4 16 -10z"/>
<path d="M4846 3938 l-59 -21 6 -54 c3 -30 8 -57 11 -60 3 -3 27 0 53 6 26 5
88 13 136 17 l88 6 -3 51 -3 51 -57 -3 c-47 -2 -58 0 -58 13 0 22 -40 20 -114
-6z"/>
<path d="M4173 3942 l-72 -3 6 -44 c5 -42 4 -45 -17 -45 -21 0 -22 -3 -16 -47
14 -93 10 -92 136 -69 49 8 64 15 61 26 -2 8 -9 53 -15 100 l-11 85 -72 -3z"/>
<path d="M5132 3943 l-43 -4 7 -47 c4 -26 7 -48 8 -49 1 -1 41 0 89 4 l87 6 0
48 0 49 -52 -2 c-29 -1 -72 -3 -96 -5z"/>
<path d="M4064 3900 c1 -16 6 -30 11 -30 14 0 13 52 -1 57 -7 2 -11 -8 -10
-27z"/>
<path d="M4730 3898 c-14 -6 -53 -18 -88 -27 -35 -9 -63 -20 -63 -24 1 -4 1
-22 1 -41 0 -30 3 -33 22 -28 17 4 20 2 15 -11 -4 -10 -3 -17 1 -17 15 1 154
39 159 44 8 7 -7 116 -15 115 -4 0 -18 -5 -32 -11z"/>
<path d="M5188 3827 l-78 -9 0 -34 c0 -18 5 -36 10 -39 6 -3 10 -22 10 -42 l0
-36 80 5 c44 3 82 7 84 9 8 9 -10 153 -19 154 -5 1 -45 -2 -87 -8z m2 -127 c0
-5 -10 -10 -22 -10 -19 0 -20 2 -8 10 19 13 30 13 30 0z"/>
<path d="M4990 3809 c-47 -5 -109 -14 -138 -20 l-52 -10 5 -37 c2 -20 7 -58
10 -83 l6 -47 41 6 c30 3 39 2 34 -6 -4 -7 -17 -12 -29 -12 -36 0 -53 -16 -38
-34 9 -11 10 -20 2 -34 -7 -13 -7 -30 -1 -49 5 -15 14 -61 20 -101 10 -60 15
-72 28 -68 10 3 45 10 79 17 54 10 62 14 60 32 -2 16 6 23 36 30 35 9 38 11
32 38 -4 18 -2 29 4 29 6 0 11 -6 11 -12 1 -34 15 -38 64 -22 l48 16 -7 52
c-10 81 -14 89 -38 82 -12 -4 -37 -10 -56 -13 -33 -6 -33 -6 -27 -49 7 -53 -9
-59 -18 -8 -4 19 -10 42 -12 49 -4 9 6 16 30 21 34 6 36 9 36 43 -1 20 -5 56
-11 81 -5 25 -12 62 -16 83 -3 20 -8 36 -12 36 -3 -1 -44 -6 -91 -10z m110
-158 c0 -5 -33 -14 -72 -21 -40 -6 -80 -14 -90 -16 -9 -3 -19 0 -22 5 -4 6 8
13 26 16 18 3 53 10 78 14 62 12 80 12 80 2z m50 -161 c0 -5 -7 -10 -16 -10
-8 0 -12 5 -9 10 3 6 10 10 16 10 5 0 9 -4 9 -10z"/>
<path d="M4720 3759 c-19 -6 -59 -17 -88 -25 l-54 -15 7 -97 c4 -53 8 -98 9
-99 1 -1 37 9 79 22 43 14 91 25 108 25 17 0 28 4 24 10 -3 5 -12 7 -19 4 -8
-3 -17 -1 -20 4 -3 5 4 12 16 15 19 5 20 10 15 59 -4 29 -7 65 -7 81 0 30 -10
32 -70 16z m10 -169 c0 -5 -3 -10 -7 -10 -5 0 -18 -3 -30 -6 -13 -4 -23 -2
-23 4 0 10 19 18 48 21 6 0 12 -3 12 -9z m-70 -10 c0 -5 -11 -10 -25 -10 -14
0 -25 5 -25 10 0 6 11 10 25 10 14 0 25 -4 25 -10z"/>
<path d="M4421 3744 c-63 -8 -116 -16 -119 -18 -6 -7 60 -410 69 -420 10 -11
132 8 180 28 l34 14 -6 109 c-14 233 -21 303 -33 302 -6 -1 -62 -8 -125 -15z"/>
<path d="M4195 3713 c-44 -6 -85 -12 -92 -12 -8 -1 -9 -11 -3 -33 4 -18 16
-68 25 -111 l17 -79 39 4 c48 4 52 -9 4 -18 -19 -3 -35 -12 -35 -19 0 -6 11
-63 25 -125 14 -62 25 -114 25 -115 0 -1 36 5 80 14 44 8 80 20 80 25 0 6 -12
72 -26 146 -14 74 -30 169 -35 210 -5 41 -13 86 -17 100 l-7 25 -80 -12z"/>
<path d="M5188 3653 c-46 -4 -48 -5 -48 -35 0 -29 1 -30 35 -24 33 7 35 5 35
-21 0 -44 10 -50 57 -41 41 9 42 10 36 41 -3 18 -11 35 -17 39 -8 5 -7 11 2
20 28 28 19 30 -100 21z"/>
<path d="M5910 3616 c0 -23 -7 -38 -22 -48 -21 -14 -21 -15 -3 -61 10 -26 24
-47 31 -47 8 0 14 -7 14 -16 0 -8 -4 -12 -10 -9 -13 8 -13 3 1 -32 6 -15 13
-39 14 -53 1 -14 8 -62 15 -108 l13 -83 31 7 c17 3 57 20 88 36 l57 30 -44 89
c-25 49 -50 89 -55 89 -18 0 -10 15 41 78 l51 63 -38 33 c-33 28 -43 32 -67
25 -16 -4 -36 -14 -44 -21 -12 -10 -18 -9 -29 7 -8 10 -14 27 -14 37 0 10 -7
18 -15 18 -10 0 -15 -10 -15 -34z"/>
<path d="M4668 3527 l-68 -21 1 -75 c0 -43 8 -99 17 -128 l17 -51 103 26 c117
29 111 19 86 142 -9 41 -16 87 -17 101 -2 24 -6 27 -37 26 -19 0 -65 -9 -102
-20z"/>
<path d="M5823 3515 c-21 -7 -53 -36 -88 -78 -34 -41 -63 -67 -75 -67 -21 0
-24 -10 -14 -57 6 -30 7 -30 62 -26 31 2 58 6 61 8 2 3 0 35 -6 72 -6 38 -8
70 -6 73 4 4 19 -15 25 -32 2 -4 27 -5 56 -1 59 7 65 20 34 84 -16 34 -18 35
-49 24z"/>
<path d="M5838 3387 c-56 -9 -58 -10 -52 -36 12 -53 12 -53 57 -46 74 11 78
14 71 43 -11 46 -15 48 -76 39z"/>
<path d="M3030 3340 c-9 -4 -45 -18 -80 -30 -79 -26 -260 -111 -260 -121 0 -9
269 -265 277 -263 9 3 219 173 231 187 9 11 1 25 -42 68 -40 41 -58 68 -72
112 -18 57 -26 64 -54 47z"/>
<path d="M4921 3307 l-53 -10 6 -56 c4 -30 8 -56 10 -58 3 -4 71 10 138 28
l36 9 -16 50 c-18 56 -19 56 -121 37z"/>
<path d="M7000 1285 c-10 -12 -10 -18 1 -31 12 -14 14 -14 26 2 27 37 2 64
-27 29z"/>
</g>
</svg>
