<?xml version="1.0" standalone="no"?>
<!DOCTYPE svg PUBLIC "-//W3C//DTD SVG 20010904//EN"
 "http://www.w3.org/TR/2001/REC-SVG-20010904/DTD/svg10.dtd">
<svg version="1.0" xmlns="http://www.w3.org/2000/svg"
 width="800.000000pt" height="800.000000pt" viewBox="0 0 800.000000 800.000000"
 preserveAspectRatio="xMidYMid meet">
<metadata>
Created by potrace 1.16, written by Peter Selinger 2001-2019
</metadata>
<g transform="translate(0.000000,800.000000) scale(0.100000,-0.100000)"
fill="#000000" stroke="none">
<path d="M0 7501 l0 -499 28 -5 c15 -2 101 -23 192 -46 202 -51 279 -91 379
-196 89 -95 111 -140 111 -236 0 -69 3 -78 35 -124 20 -28 54 -77 76 -111 48
-74 92 -100 246 -148 126 -40 133 -41 280 -60 99 -13 118 -13 160 1 26 8 104
20 173 26 l125 12 84 -30 84 -30 176 -183 c97 -100 201 -200 232 -222 84 -59
126 -110 144 -177 9 -32 25 -85 35 -119 20 -60 27 -114 13 -100 -10 9 -40 106
-59 190 -14 57 -24 78 -62 118 -25 27 -74 69 -108 93 -35 25 -96 84 -137 133
-42 48 -113 124 -159 169 -75 74 -91 85 -165 112 -81 29 -84 29 -190 20 -60
-5 -131 -16 -160 -24 -65 -19 -110 -19 -242 1 -129 19 -283 63 -371 107 -60
31 -71 42 -142 143 l-76 109 -7 85 c-3 47 -12 99 -18 115 -19 49 -164 192
-234 232 -59 32 -105 46 -410 123 l-33 8 0 -1348 0 -1349 23 -4 22 -4 -22 -2
-23 -1 0 -385 c0 -212 3 -385 8 -385 4 0 203 9 442 20 239 10 539 22 665 25
127 4 272 13 322 21 51 8 97 14 103 14 5 0 10 -18 10 -40 0 -47 -7 -46 170
-29 82 7 116 7 118 0 2 -6 16 -10 30 -10 17 1 21 3 10 6 -24 6 -23 23 2 23 11
0 20 -4 20 -10 0 -5 5 -10 10 -10 6 0 10 7 10 16 0 13 7 15 30 11 21 -5 30 -3
30 7 0 11 146 104 227 145 35 17 84 107 90 165 3 28 12 61 19 73 8 12 14 33
14 46 0 14 7 30 15 37 15 13 115 196 115 212 0 4 12 27 26 49 20 32 41 48 101
76 78 36 103 67 103 126 0 24 -2 25 -125 32 -77 4 -123 11 -119 17 4 6 34 7
73 4 36 -3 92 -5 124 -6 l57 0 0 -44 c0 -80 -15 -103 -88 -137 -36 -16 -75
-37 -85 -47 -11 -9 -50 -78 -87 -152 -38 -75 -75 -142 -84 -149 -9 -7 -13 -17
-10 -22 3 -5 -1 -23 -9 -41 -8 -18 -20 -59 -26 -90 -9 -52 -65 -157 -83 -158
-19 0 -228 -134 -228 -145 0 -15 -104 -51 -167 -58 -41 -5 -57 5 -30 17 6 3
-15 4 -48 1 -33 -2 -97 -7 -142 -11 l-83 -6 0 41 c0 23 -3 41 -7 41 -5 0 -35
-5 -68 -10 -33 -6 -177 -14 -320 -20 -567 -21 -1033 -41 -1082 -46 l-53 -5 0
-1745 0 -1744 2585 0 c2578 0 2585 0 2585 20 0 11 5 20 10 20 6 0 10 -9 10
-20 0 -20 7 -20 1039 -20 l1039 0 6 22 7 23 11 -23 11 -22 349 0 348 0 0 1935
0 1935 -37 1 c-114 5 -304 -4 -346 -16 -35 -10 -62 -12 -105 -5 -31 6 -114 10
-184 10 l-128 0 0 71 c0 53 -3 70 -12 67 -334 -121 -337 -122 -331 -145 3 -14
1 -23 -6 -23 -6 0 -11 9 -11 21 0 16 -4 19 -17 14 -10 -4 -45 -16 -78 -27 -33
-12 -67 -27 -76 -34 -9 -8 -18 -12 -21 -9 -8 8 -68 -16 -68 -27 0 -6 -6 -8
-13 -5 -17 6 -156 -42 -234 -82 -67 -34 -143 -96 -143 -117 0 -8 -4 -14 -10
-14 -22 0 -8 32 30 69 52 51 149 100 290 149 100 35 635 228 683 247 15 6 17
22 17 121 0 79 4 114 11 114 9 0 10 -50 7 -185 l-5 -185 121 0 c66 0 147 -4
178 -10 44 -7 70 -5 106 5 32 10 105 15 215 17 l167 2 0 1117 c0 1056 -1 1118
-17 1122 -17 4 -17 5 0 6 16 1 17 52 17 931 l0 930 -507 0 c-449 0 -508 -2
-524 -16 -30 -27 -13 -44 36 -37 l43 5 7 -43 c6 -35 4 -45 -11 -56 -24 -18
-37 -16 -30 3 3 9 6 20 6 25 0 6 5 7 11 3 7 -4 9 2 7 17 -3 21 -8 24 -48 24
l-45 0 1 38 1 37 -138 0 c-91 0 -158 -5 -198 -16 -33 -8 -82 -14 -108 -13 -27
2 -59 -1 -71 -5 -21 -7 -23 -5 -17 13 6 21 4 21 -129 21 l-135 0 -6 -47 c-3
-27 -12 -61 -20 -76 -8 -16 -15 -46 -15 -68 0 -21 -4 -39 -10 -39 -15 0 -12
83 5 107 8 11 17 39 21 61 6 37 5 40 -13 36 -13 -4 -23 0 -26 10 -5 13 -24 16
-100 16 l-95 0 -24 -32 c-14 -18 -47 -82 -74 -143 -35 -80 -60 -121 -91 -152
l-43 -41 0 -174 -1 -173 -38 -62 c-47 -77 -64 -71 -19 6 l33 56 5 183 5 184
42 36 c33 29 53 62 92 151 28 63 61 125 73 138 l21 23 -832 0 c-730 0 -832 -2
-837 -15 -5 -13 75 -230 167 -450 16 -38 73 -178 127 -310 l98 -240 84 -3 c47
-2 89 -7 95 -13 7 -7 -17 -9 -73 -8 -45 1 -85 -1 -88 -4 -13 -13 27 -39 51
-34 35 6 31 -8 -4 -19 l-30 -9 83 -205 c77 -187 91 -231 67 -204 -4 5 -41 92
-81 194 -40 102 -81 201 -90 220 -10 19 -71 168 -135 330 -64 162 -125 313
-135 335 -10 22 -53 129 -96 238 l-77 197 -593 0 c-469 0 -594 -3 -594 -12 0
-9 -3 -8 -10 2 -15 23 -20 8 -10 -34 4 -20 16 -44 27 -51 10 -7 15 -17 11 -21
-13 -12 -46 26 -54 60 -3 17 -11 37 -16 44 -8 9 -110 12 -448 12 -390 0 -439
-2 -444 -16 -8 -22 -9 -20 24 -34 32 -13 35 -17 20 -40 -8 -12 -13 -11 -33 8
-13 12 -25 22 -28 22 -13 0 -50 -97 -68 -180 -41 -190 -34 -335 21 -446 14
-27 28 -64 31 -81 6 -33 170 -286 257 -398 25 -33 58 -91 73 -129 39 -95 59
-122 171 -223 53 -48 93 -89 87 -91 -17 -6 -198 166 -233 219 -17 28 -36 45
-43 43 -13 -5 -28 11 -31 34 -2 7 4 16 12 19 21 8 9 39 -40 103 -99 130 -260
378 -272 420 -7 25 -24 72 -38 105 -48 116 -53 281 -12 425 9 30 16 65 16 77
0 13 12 47 27 75 15 29 30 61 35 71 8 16 -9 17 -286 17 l-295 0 -24 -32 c-57
-76 -141 -288 -117 -296 15 -5 12 -22 -4 -22 -17 0 -32 -95 -21 -129 4 -13 1
-28 -6 -37 -9 -11 -10 -48 -4 -152 4 -75 9 -209 9 -296 l1 -160 25 -7 c14 -4
19 -7 13 -8 -7 -1 -13 -10 -13 -20 0 -11 -13 -28 -30 -38 -52 -31 -50 -100 4
-124 13 -7 27 -21 30 -33 7 -26 67 -66 99 -66 49 0 117 -13 117 -22 0 -14
-129 1 -165 19 -42 21 -65 43 -65 62 0 9 -13 22 -29 29 -28 12 -51 53 -51 90
0 8 16 30 35 48 29 27 34 37 26 52 -16 30 -24 202 -12 255 8 32 8 54 1 67 -13
24 -25 272 -15 296 4 11 10 53 11 94 2 48 14 107 33 165 18 56 26 92 19 96 -6
4 3 28 21 61 17 30 31 58 31 61 0 4 -16 7 -35 7 -19 0 -35 5 -35 11 0 8 18 10
55 7 39 -3 59 -1 66 9 10 11 -107 13 -695 13 l-706 0 0 -499z m6870 324 c0 -3
-8 -13 -17 -22 -17 -17 -85 -24 -90 -10 -9 21 -1 29 25 24 15 -2 36 -1 47 3
24 10 35 12 35 5z m-2531 -51 c3 -16 1 -16 -12 -5 -9 7 -21 10 -26 7 -5 -4
-12 -2 -15 3 -4 5 2 12 11 14 27 7 38 2 42 -19z m2791 -24 c0 -22 25 -28 33
-7 3 6 6 2 6 -10 1 -26 -26 -32 -47 -11 -15 15 -16 48 -2 48 6 0 10 -9 10 -20z
m-4054 -465 c-11 -17 -14 -39 -9 -92 l6 -70 -48 -6 c-26 -4 -116 -7 -200 -7
l-152 0 -64 -67 c-136 -142 -258 -255 -269 -248 -6 4 4 18 27 36 21 17 97 89
168 161 l130 130 165 4 c91 3 178 7 194 10 28 6 29 6 23 66 -3 40 -1 68 8 86
8 15 18 41 22 57 l7 30 4 -33 c2 -19 -3 -44 -12 -57z m2822 -131 c6 -2 12 -17
12 -35 0 -26 -3 -30 -17 -24 -10 4 -26 9 -35 12 -9 3 -14 11 -11 19 7 20 -7
17 -23 -3 -12 -16 -13 -15 -14 14 0 31 1 32 38 27 20 -3 43 -7 50 -10z m-4528
-149 c20 -24 6 -28 -15 -5 -10 11 -13 20 -8 20 6 0 16 -7 23 -15z m50 -57 c0
-6 -7 -5 -15 2 -8 7 -15 17 -15 22 0 6 7 5 15 -2 8 -7 15 -17 15 -22z m47 -44
c-9 -10 -38 16 -31 28 4 6 13 4 22 -6 9 -8 13 -19 9 -22z m91 -46 c18 -22 3
-24 -24 -3 -12 9 -31 12 -51 9 -21 -4 -33 -2 -33 5 0 6 7 11 15 11 8 0 15 5
15 10 0 7 6 7 19 1 15 -8 21 -7 27 7 6 15 8 15 12 -3 2 -11 11 -28 20 -37z
m148 27 c4 -8 3 -23 0 -32 -6 -15 -8 -15 -16 -3 -13 20 -12 50 0 50 6 0 13 -7
16 -15z m3791 -82 c-2 -21 -4 -6 -4 32 0 39 2 55 4 38 2 -18 2 -50 0 -70z
m-4127 67 c0 -5 -9 -10 -20 -10 -11 0 -20 5 -20 10 0 6 9 10 20 10 11 0 20 -4
20 -10z m60 0 c0 -5 -9 -10 -20 -10 -11 0 -20 5 -20 10 0 6 9 10 20 10 11 0
20 -4 20 -10z m227 -17 c-9 -9 -20 -13 -24 -9 -4 4 -1 11 7 16 25 16 35 11 17
-7z m-53 -19 c9 -3 14 -10 11 -15 -7 -10 -35 0 -35 12 0 11 3 11 24 3z m126
-36 c0 -5 -4 -8 -10 -8 -5 0 -10 10 -10 23 0 18 2 19 10 7 5 -8 10 -18 10 -22z
m23 -43 c4 -8 2 -17 -3 -20 -6 -4 -10 -4 -10 -1 0 2 -3 11 -6 20 -3 9 -2 16 4
16 5 0 12 -7 15 -15z m3744 -37 c-3 -7 -5 -2 -5 12 0 14 2 19 5 13 2 -7 2 -19
0 -25z m-3711 -35 c-4 -4 -11 -1 -16 7 -16 25 -11 35 7 17 9 -9 13 -20 9 -24z
m3337 30 c-7 -2 -21 -2 -30 0 -10 3 -4 5 12 5 17 0 24 -2 18 -5z m-3318 -81
c-8 -9 -25 20 -18 31 3 5 10 2 15 -7 6 -10 7 -20 3 -24z m1747 14 c4 -6 8 -17
8 -25 0 -11 -3 -11 -16 0 -17 14 -123 13 -138 -2 -16 -15 -26 -10 -26 14 0 21
4 22 83 23 50 1 85 -3 89 -10z m1945 -48 c-3 -7 -5 -2 -5 12 0 14 2 19 5 13 2
-7 2 -19 0 -25z m-3677 3 c0 -19 -17 -38 -25 -29 -7 7 7 48 16 48 5 0 9 -9 9
-19z m5563 -210 c64 -51 117 -94 117 -97 0 -14 -32 7 -144 96 -69 55 -126 105
-126 111 0 8 6 7 18 -3 9 -8 70 -56 135 -107z m-4652 55 c17 -18 9 -28 -15
-22 -33 8 -38 -4 -15 -33 16 -19 22 -21 34 -11 12 10 19 10 27 2 7 -7 8 -12 3
-12 -6 0 -16 -4 -24 -9 -18 -12 2 -49 35 -61 13 -5 24 -15 24 -21 0 -6 -7 -8
-16 -5 -8 3 -12 2 -9 -4 3 -6 4 -10 1 -10 -2 0 -11 -3 -20 -6 -11 -4 -16 0
-16 14 0 23 -20 72 -29 72 -3 0 -12 -4 -20 -9 -11 -7 -11 -16 3 -52 8 -24 23
-91 32 -149 8 -58 18 -122 21 -142 9 -61 -13 -44 -25 20 -7 31 -13 66 -16 77
-7 37 -5 -39 3 -95 5 -32 5 -60 -1 -67 -6 -7 0 -20 17 -37 14 -14 25 -35 25
-46 0 -12 5 -30 11 -41 5 -11 12 -32 14 -47 2 -15 18 -57 35 -94 17 -37 30
-75 27 -85 -4 -16 -5 -16 -12 2 -39 102 -70 155 -84 149 -37 -15 -49 -15 -55
1 -8 23 -1 32 33 40 l28 6 -13 51 c-8 28 -20 56 -27 62 -18 14 -28 44 -18 51
5 3 5 22 0 42 -5 21 -9 81 -9 134 -1 97 -17 162 -57 230 -10 16 -13 34 -9 45
7 17 10 16 35 -13 19 -23 31 -29 41 -23 12 7 11 13 -9 34 -19 20 -21 28 -12
45 7 12 16 21 20 21 5 0 12 10 16 23 7 21 7 21 12 2 3 -11 9 -24 14 -29z
m2497 17 c-10 -2 -28 -2 -40 0 -13 2 -5 4 17 4 22 1 32 -1 23 -4z m-280 -10
c-16 -2 -40 -2 -55 0 -16 2 -3 4 27 4 30 0 43 -2 28 -4z m-128 -13 c0 -5 -7
-10 -15 -10 -8 0 -15 5 -15 10 0 6 7 10 15 10 8 0 15 -4 15 -10z m447 4 c-3
-3 -12 -4 -19 -1 -8 3 -5 6 6 6 11 1 17 -2 13 -5z m40 0 c-3 -3 -12 -4 -19 -1
-8 3 -5 6 6 6 11 1 17 -2 13 -5z m-1457 -34 c-6 -11 -13 -20 -15 -20 -3 0 -5
9 -5 20 0 11 7 20 15 20 13 0 14 -4 5 -20z m994 1 c4 -5 0 -11 -6 -14 -8 -3
-3 -9 11 -14 18 -7 21 -12 12 -18 -9 -5 -10 -10 -3 -14 7 -4 7 -12 2 -20 -6
-10 -14 -2 -29 32 -12 25 -21 48 -21 51 0 10 28 7 34 -3z m521 -84 c0 -9 11
-24 23 -33 13 -9 21 -21 19 -27 -6 -18 19 -37 50 -38 23 -1 21 -3 -11 -9 -31
-6 -44 -4 -59 11 -11 9 -26 15 -35 12 -12 -5 -9 -12 17 -35 31 -28 35 -53 6
-42 -9 4 -17 -1 -20 -10 -16 -52 -14 -51 -42 -25 -17 16 -27 20 -30 12 -8 -22
-34 -2 -27 21 6 18 5 19 -10 7 -14 -12 -16 -11 -16 8 0 11 -5 21 -11 21 -16 0
-48 42 -42 56 2 7 13 9 24 7 12 -3 18 -11 15 -19 -3 -8 1 -14 9 -14 19 0 19
24 0 40 -8 7 -15 19 -15 26 0 11 12 13 57 8 42 -5 54 -4 49 5 -10 16 13 43 33
39 9 -2 16 -11 16 -21z m-454 -44 c13 -21 26 -40 30 -43 3 -3 9 -22 13 -44 8
-43 33 -103 55 -129 8 -9 11 -20 8 -24 -10 -10 -47 28 -47 48 0 10 -4 21 -10
24 -5 3 -10 12 -10 20 0 21 -38 119 -55 141 -15 19 -15 19 -12 -1 2 -11 8 -30
15 -41 6 -12 8 -24 5 -28 -4 -4 -14 8 -23 26 -10 21 -22 32 -33 30 -15 -2 -15
1 -6 22 7 14 19 27 28 29 9 3 17 5 18 6 1 0 12 -16 24 -36z m10 -108 c2 -18 5
-34 9 -37 1 -2 4 -15 5 -30 3 -17 -2 -29 -12 -32 -20 -8 -32 2 -15 13 12 7 11
25 -5 84 -2 9 0 17 6 17 6 0 12 -7 12 -15z m2556 9 c-3 -3 -12 -4 -19 -1 -8 3
-5 6 6 6 11 1 17 -2 13 -5z m-2577 -43 c0 -5 -7 -11 -15 -15 -8 -3 -15 -12
-15 -21 0 -8 -4 -15 -10 -15 -18 0 -11 48 8 53 28 8 32 7 32 -2z m0 -91 c0 -4
-11 -12 -25 -18 -22 -10 -25 -9 -25 7 0 10 3 20 6 23 7 8 44 -2 44 -12z m281
-154 c-9 -10 -9 -16 -1 -21 8 -5 8 -11 1 -19 -6 -7 -8 -16 -4 -20 4 -4 2 -11
-5 -15 -7 -4 -16 -27 -21 -52 -6 -32 -10 -39 -15 -27 -6 13 -15 16 -37 11 -22
-4 -29 -2 -29 11 0 9 -4 16 -10 16 -5 0 -10 5 -10 10 0 16 22 12 36 -7 21 -30
26 -7 5 28 -11 19 -21 45 -23 58 -3 28 19 38 86 40 32 1 36 -1 27 -13z m-909
-196 c23 -22 50 -42 59 -45 47 -15 46 -132 -2 -166 -16 -11 -32 -31 -35 -44
-3 -13 -14 -27 -25 -30 -20 -7 -59 10 -59 25 0 21 -80 50 -138 50 -32 0 -63 5
-70 12 -9 9 -15 9 -23 1 -12 -12 3 -51 25 -65 8 -6 8 -8 -1 -8 -7 0 -14 -24
-18 -57 -10 -83 -13 -91 -47 -109 -40 -21 -47 -10 -15 24 34 35 34 42 0 73
-48 42 -93 61 -157 66 -58 5 -62 7 -61 30 0 16 9 30 25 38 14 8 19 14 11 15
-8 0 -23 7 -33 17 -17 15 -19 15 -36 0 -29 -27 -69 -22 -86 11 -8 15 -32 44
-54 66 l-40 38 -89 1 -88 0 -83 -83 c-79 -79 -83 -85 -77 -117 5 -30 2 -38
-30 -70 -20 -20 -39 -33 -42 -29 -4 4 8 20 26 37 28 26 32 35 29 67 -4 34 0
42 59 101 35 36 63 73 63 83 0 14 8 18 33 18 17 0 49 5 70 11 34 9 36 12 26
31 -10 18 -9 20 6 15 9 -4 24 -7 32 -7 13 0 13 -3 3 -15 -16 -20 -11 -25 36
-32 22 -3 50 -15 64 -27 14 -12 37 -28 51 -35 19 -9 25 -19 22 -32 -7 -24 23
-37 46 -21 31 23 42 24 61 7 13 -12 23 -14 37 -7 12 7 38 6 77 0 48 -9 65 -8
93 6 42 20 40 20 46 -4 9 -34 33 -22 57 30 14 29 50 76 86 110 78 75 105 79
166 20z m428 -26 c0 -8 -5 -12 -10 -9 -6 4 -8 11 -5 16 9 14 15 11 15 -7z
m-1230 -139 c0 -7 6 -15 13 -18 9 -3 9 -7 -1 -19 -7 -9 -12 -20 -11 -24 4 -24
-2 -64 -10 -64 -5 0 -11 18 -15 40 -5 30 -11 40 -25 40 -11 0 -22 -6 -25 -12
-5 -10 -7 -10 -12 0 -3 7 -24 12 -50 12 -24 0 -44 5 -44 10 0 6 24 10 53 11
28 0 46 3 40 6 -7 2 -13 12 -13 20 0 11 5 13 18 8 40 -17 62 -18 62 -1 0 10 5
14 10 11 6 -3 10 -12 10 -20z m-546 -65 c10 -25 39 -67 66 -95 27 -27 50 -60
52 -72 3 -22 5 -22 31 -9 36 19 35 7 -3 -24 -28 -24 -30 -30 -40 -140 -6 -63
-20 -198 -32 -300 -25 -223 -29 -391 -10 -398 16 -5 -4 -32 -24 -32 -8 0 -14
-9 -14 -19 0 -11 -5 -23 -11 -26 -14 -9 -27 4 -13 13 6 4 14 43 18 87 3 44 15
161 26 260 37 347 54 554 46 562 -5 4 -11 2 -13 -4 -7 -20 -23 -15 -23 7 0 11
5 20 10 20 18 0 10 17 -29 61 l-39 44 -24 -22 c-13 -13 -44 -30 -69 -38 -34
-12 -45 -21 -46 -38 -1 -27 23 -154 41 -222 8 -27 20 -99 26 -160 7 -60 19
-125 26 -144 17 -41 17 -42 0 -35 -16 6 -29 62 -46 199 -6 50 -20 124 -31 165
-22 81 -31 133 -33 194 -1 38 0 40 46 55 56 19 109 59 90 67 -16 8 -55 84 -43
84 6 0 17 -12 26 -27 l15 -28 -6 40 c-8 50 6 38 30 -25z m646 30 c0 -5 -12
-10 -26 -10 -16 0 -23 -4 -18 -11 3 -6 19 -9 35 -5 25 5 29 2 29 -17 0 -13 5
-28 12 -35 9 -9 9 -12 1 -12 -7 0 -15 5 -18 10 -3 6 -15 10 -26 10 -10 0 -19
6 -19 14 0 7 -9 16 -19 19 -32 8 -16 47 20 47 16 0 29 -4 29 -10z m1708 -180
c109 -271 113 -282 101 -278 -11 4 -173 395 -186 448 -14 59 18 -5 85 -170z
m-1638 45 l0 -115 -34 0 c-18 0 -48 -3 -65 -6 -20 -4 -31 -3 -31 5 0 7 21 11
55 11 l55 0 0 110 c0 67 4 110 10 110 6 0 10 -45 10 -115z m-240 65 c0 -11 -4
-20 -10 -20 -5 0 -10 9 -10 20 0 11 5 20 10 20 6 0 10 -9 10 -20z m114 -114
c22 -11 24 -15 10 -20 -17 -6 -44 9 -44 25 0 12 3 11 34 -5z m931 -81 c49 -31
155 -179 155 -216 0 -22 -19 -6 -25 21 -7 30 -71 102 -160 178 -47 41 -48 43
-20 37 17 -4 39 -12 50 -20z m-797 -168 c-113 -106 -136 -123 -149 -110 -7 7
29 46 107 118 88 82 119 104 125 94 7 -10 -16 -38 -83 -102z m-1175 -19 c5
-18 8 -19 21 -8 16 13 20 8 17 -22 -2 -13 5 -18 22 -18 14 0 31 -7 38 -17 13
-15 11 -16 -13 -9 -16 3 -28 2 -28 -3 0 -18 -39 -19 -45 -1 -7 21 -32 33 -40
20 -12 -19 -30 -10 -31 15 -1 14 2 25 6 25 4 0 10 9 13 20 7 27 33 26 40 -2z
m4747 -383 c0 -250 -4 -385 -10 -385 -6 0 -10 133 -10 378 0 334 2 392 17 392
2 0 3 -173 3 -385z m-3220 361 c0 -36 -179 -789 -191 -801 -6 -5 -9 -4 -9 4 0
7 41 185 90 397 50 211 90 390 90 399 0 8 5 15 10 15 6 0 10 -6 10 -14z m632
-293 c-2 -164 -6 -300 -9 -303 -2 -2 -8 2 -13 10 -7 10 -10 11 -10 3 0 -7 -5
-13 -11 -13 -7 0 -9 10 -4 27 3 15 8 83 10 152 3 68 7 126 10 129 9 10 5 102
-5 102 -5 0 -10 25 -10 56 0 46 3 55 15 50 12 -4 15 3 15 33 0 31 6 51 15 51
0 0 -1 -134 -3 -297z m-1130 113 c-2 -42 -8 -76 -13 -76 -10 0 -13 119 -3 144
13 33 19 5 16 -68z m588 -5 c0 -5 -7 -11 -15 -15 -15 -5 -20 5 -8 17 9 10 23
9 23 -2z m-589 -349 c0 -139 -1 -256 -4 -258 -3 -3 -50 0 -105 6 l-101 12 -45
-31 c-24 -17 -52 -31 -60 -31 -9 0 -16 -4 -16 -10 0 -5 -4 -10 -10 -10 -5 0
-10 8 -10 19 0 10 -10 26 -22 34 -19 13 -20 16 -5 16 9 1 17 6 17 11 0 6 5 10
11 10 7 0 18 8 25 18 12 16 13 15 14 -5 0 -14 6 -23 15 -23 8 0 15 -5 15 -11
0 -6 16 -1 35 11 37 23 58 23 188 4 l37 -6 0 258 c0 164 3 255 10 248 5 -5 10
-117 11 -262z m-196 188 c17 -34 18 -40 6 -40 -5 0 -13 9 -16 20 -5 16 -12 19
-33 14 -27 -7 -27 -7 -8 15 25 28 33 27 51 -9z m3044 -472 c0 -120 -3 -218 -7
-218 -11 0 -24 669 -14 684 10 15 19 -206 21 -466z m-2709 357 c0 -43 -4 -75
-10 -75 -6 0 -10 32 -10 75 0 43 4 75 10 75 6 0 10 -32 10 -75z m1015 -175 c8
-13 62 -13 70 0 3 6 11 10 17 10 7 0 7 -4 -1 -13 -6 -8 -8 -17 -4 -21 4 -3 6
-115 4 -248 -2 -214 -1 -240 13 -235 40 16 280 70 446 101 240 45 280 50 280
39 0 -5 -46 -17 -102 -27 -246 -42 -434 -82 -599 -126 l-39 -11 0 -149 c0 -93
-4 -150 -10 -150 -6 0 -10 128 -10 365 l0 365 -42 0 c-71 0 -88 8 -88 41 0 34
17 39 22 7 3 -21 8 -23 63 -23 53 0 60 2 60 20 0 16 -8 21 -40 23 -42 4 -60
14 -76 44 -9 17 -8 18 10 9 11 -6 23 -16 26 -21z m1150 -20 c10 17 21 12 33
-15 17 -38 16 -41 -30 -55 -24 -8 -49 -18 -57 -24 -12 -9 -13 -7 -8 12 4 16
-1 29 -14 40 -10 9 -19 20 -19 24 0 12 64 26 77 16 7 -5 14 -5 18 2z m-3942
-37 c-13 -2 -33 -2 -45 0 -13 2 -3 4 22 4 25 0 35 -2 23 -4z m-615 -20 c-10
-2 -26 -2 -35 0 -10 3 -2 5 17 5 19 0 27 -2 18 -5z m2882 -9 c0 -8 -4 -12 -10
-9 -5 3 -10 10 -10 16 0 5 5 9 10 9 6 0 10 -7 10 -16z m-3237 -1 c-7 -2 -21
-2 -30 0 -10 3 -4 5 12 5 17 0 24 -2 18 -5z m2157 -33 c0 -5 -6 -15 -14 -22
-12 -11 -12 -17 0 -40 15 -29 39 -37 46 -17 6 18 48 -12 48 -35 0 -18 -1 -19
-20 -1 -23 21 -39 13 -21 -9 10 -12 8 -17 -8 -25 -33 -18 -47 -13 -75 28 -22
31 -25 42 -17 64 16 42 61 84 61 57z m-54 -196 c8 -6 14 -16 14 -21 0 -6 6
-16 14 -23 8 -6 12 -18 9 -26 -3 -7 9 -31 26 -53 33 -41 37 -51 22 -51 -5 0
-31 29 -57 65 -50 68 -63 75 -84 50 -7 -9 -15 -13 -18 -10 -3 2 7 16 21 29 27
25 34 46 20 60 -12 12 -42 130 -36 140 3 4 17 -27 30 -70 14 -44 31 -84 39
-90z m764 160 c0 -3 -24 -107 -54 -232 -30 -125 -62 -262 -72 -304 -10 -43
-21 -78 -26 -78 -13 0 -12 4 62 317 39 163 70 298 70 300 0 2 5 3 10 3 6 0 10
-2 10 -6z m-120 -159 c0 -30 -4 -55 -10 -55 -5 0 -10 25 -10 55 0 30 5 55 10
55 6 0 10 -25 10 -55z m-170 28 c0 -5 -27 -25 -60 -47 -33 -21 -63 -42 -66
-47 -4 -7 42 -77 225 -339 11 -17 11 -20 0 -19 -13 0 -80 92 -199 271 -25 37
-49 68 -53 68 -5 0 -20 -9 -34 -20 -26 -21 -41 -21 -28 0 8 13 196 140 207
140 5 0 8 -3 8 -7z m845 -61 c0 -12 -54 -46 -168 -109 -92 -51 -172 -93 -178
-93 -25 0 -2 19 68 55 42 22 91 53 107 68 35 33 159 107 166 100 3 -2 5 -12 5
-21z m-505 -94 c-1 -20 -48 -199 -54 -205 -20 -20 -12 41 25 180 9 35 29 52
29 25z m-805 -68 l50 -55 -52 50 c-29 27 -53 54 -53 59 0 5 1 7 3 5 1 -2 25
-29 52 -59z m693 -250 c-33 -140 -62 -257 -64 -259 -16 -17 -12 23 9 116 80
339 100 414 107 406 5 -4 -19 -123 -52 -263z m-448 210 c6 -11 20 -20 30 -20
25 0 26 -16 1 -23 -13 -3 -26 5 -40 24 -23 31 -26 39 -11 39 5 0 14 -9 20 -20z
m4700 -35 c0 -17 -94 -143 -104 -139 -20 8 -76 -71 -74 -103 3 -36 45 -93 69
-93 25 0 69 -21 69 -33 0 -5 -8 -6 -17 -2 -10 4 -33 11 -52 15 -35 9 -86 61
-86 90 -1 8 -4 21 -8 28 -10 15 71 122 93 122 8 0 32 27 54 60 33 51 56 74 56
55z m-4030 -33 c0 -10 -45 -32 -63 -32 -17 1 32 40 49 40 8 0 14 -4 14 -8z
m-785 -22 c10 -11 16 -20 13 -20 -3 0 -13 9 -23 20 -10 11 -16 20 -13 20 3 0
13 -9 23 -20z m705 -18 c0 -8 -43 -32 -55 -32 -14 0 -2 18 18 28 28 13 37 14
37 4z m-636 -61 c-2 -3 -12 3 -22 13 -16 17 -16 18 5 5 12 -7 20 -15 17 -18z
m97 -23 c4 -6 11 -8 17 -4 9 5 47 -36 77 -85 6 -9 38 -51 73 -94 34 -43 62
-82 62 -86 0 -22 -19 -4 -70 67 -30 42 -63 80 -73 86 -10 5 -16 12 -13 15 11
11 -34 61 -73 81 -21 11 -41 19 -44 16 -2 -3 -7 2 -10 10 -4 11 0 13 21 10 15
-3 30 -10 33 -16z m414 -128 c3 -5 -1 -10 -9 -10 -9 0 -16 5 -16 10 0 6 4 10
9 10 6 0 13 -4 16 -10z m50 -43 c11 -3 32 -8 48 -11 15 -4 27 -11 27 -17 0 -6
-8 -8 -17 -5 -10 2 -34 7 -53 10 -23 4 -16 -1 20 -12 32 -11 50 -21 43 -25
-15 -9 -145 34 -150 50 -2 6 4 13 14 16 18 4 28 3 68 -6z m336 -37 c5 0 9 6 9
14 0 8 5 18 11 22 7 4 9 -2 7 -17 -2 -13 4 -29 12 -36 13 -11 13 -12 -2 -13
-22 0 -24 -20 -2 -20 8 0 13 -4 9 -9 -3 -6 -18 -6 -38 0 -40 11 -37 12 -37 -6
0 -8 -5 -15 -11 -15 -6 0 -9 6 -6 13 3 9 -8 18 -29 26 -19 7 -34 17 -34 23 0
6 7 7 18 3 35 -15 52 -17 52 -7 0 5 -13 12 -30 16 -16 3 -30 10 -30 15 0 5 14
6 34 1 30 -6 35 -5 41 14 8 21 8 21 12 -1 2 -13 9 -23 14 -23z m902 -75 c20
-10 37 -25 37 -32 0 -9 -13 -5 -40 12 -50 32 -54 31 -46 -5 3 -17 2 -29 -3
-26 -4 3 -20 10 -35 16 -25 9 -26 11 -11 33 18 28 45 29 98 2z m-1686 -27 c-3
-8 -6 -5 -6 6 -1 11 2 17 5 13 3 -3 4 -12 1 -19z m220 -35 c-6 -8 3 -17 28
-28 21 -8 43 -15 49 -14 6 0 1 4 -11 9 -15 6 -21 15 -17 25 8 21 21 19 34 -5
12 -23 55 -44 132 -63 64 -17 59 -20 73 50 7 33 25 56 25 31 0 -7 -11 -60 -25
-117 -27 -109 -25 -120 18 -121 11 0 17 8 17 23 0 26 16 54 25 45 4 -3 2 -22
-3 -41 l-10 -36 91 -21 c354 -83 429 -109 446 -154 5 -12 50 -55 101 -95 50
-39 126 -105 169 -146 69 -66 90 -80 206 -131 72 -31 135 -61 142 -66 7 -5 48
-76 92 -158 l80 -148 1 -118 c1 -215 -13 -574 -23 -574 -6 0 -7 122 -2 339 l7
339 -63 118 c-104 198 -89 182 -240 249 -122 54 -141 67 -219 140 -47 44 -127
113 -177 153 -51 41 -93 80 -93 87 0 30 -90 64 -320 119 -129 31 -245 59 -257
62 -29 8 -29 -7 -2 -32 51 -46 109 -205 109 -298 0 -42 -4 -65 -10 -61 -5 3
-10 34 -10 69 0 132 -85 299 -154 301 -20 1 -111 53 -132 77 -31 33 -65 104
-58 122 10 26 -47 46 -131 46 -54 0 -74 3 -69 11 4 8 26 10 60 6 31 -3 54 -2
54 4 0 5 7 9 15 9 8 0 14 3 14 8 -1 4 -1 16 0 26 1 18 3 17 24 -5 15 -16 20
-28 14 -36z m-187 32 c11 -13 10 -14 -4 -9 -9 3 -16 10 -16 15 0 13 6 11 20
-6z m85 -6 c11 -17 -1 -21 -15 -4 -8 9 -8 15 -2 15 6 0 14 -5 17 -11z m-90
-19 c3 -6 -1 -7 -9 -4 -18 7 -21 14 -7 14 6 0 13 -4 16 -10z m65 -66 c25 -25
160 -264 160 -282 0 -9 6 -12 15 -8 9 3 18 -1 22 -10 3 -9 28 -55 55 -101 27
-47 47 -90 45 -96 -2 -7 -16 10 -31 36 -15 26 -32 47 -38 47 -12 0 -13 4 42
-107 25 -50 52 -93 61 -96 9 -2 32 -27 50 -54 19 -27 39 -48 45 -46 7 2 26
-20 43 -49 17 -29 41 -66 53 -81 16 -19 19 -30 11 -35 -7 -5 0 -20 24 -45 19
-21 37 -36 40 -33 8 7 -17 77 -42 116 -61 97 -87 190 -53 190 6 0 8 -12 5 -27
-4 -21 7 -51 43 -118 54 -102 107 -229 190 -461 60 -167 85 -224 98 -224 17 0
179 58 220 79 23 12 86 57 140 99 53 43 110 84 125 90 42 18 137 27 137 13 0
-6 -13 -11 -28 -11 -67 0 -127 -30 -239 -119 -113 -90 -175 -121 -325 -165
-32 -9 -58 -22 -57 -29 2 -30 36 -89 59 -100 30 -15 52 -83 31 -96 -8 -5 -10
-18 -5 -36 5 -20 4 -26 -5 -21 -6 4 -11 12 -11 18 0 5 -22 66 -50 135 -46 116
-62 168 -41 134 5 -7 14 -11 19 -7 7 4 5 17 -8 39 -10 18 -48 115 -85 217 -61
168 -84 226 -85 209 0 -4 12 -38 26 -75 14 -38 27 -86 30 -107 2 -21 15 -61
29 -88 14 -28 25 -57 25 -64 0 -7 9 -34 20 -60 12 -29 15 -45 8 -43 -6 2 -18
24 -26 49 -38 116 -37 114 -63 113 -13 0 -35 -4 -49 -8 -23 -6 -28 -2 -47 38
l-22 45 37 12 c20 6 43 16 50 22 14 11 16 44 3 49 -6 2 -12 15 -15 31 -8 47
-17 68 -26 62 -5 -3 -14 4 -20 15 -7 13 -7 20 0 20 5 0 10 -5 10 -12 0 -6 3
-9 6 -5 3 3 0 15 -8 26 -8 12 -18 18 -21 14 -4 -3 -7 1 -7 9 0 9 -19 40 -43
70 -24 29 -71 99 -106 156 -44 71 -69 102 -82 102 -11 0 -16 5 -13 14 4 9 -3
14 -20 14 -15 0 -27 -7 -29 -17 -4 -14 -5 -14 -6 1 0 9 4 20 9 23 19 12 9 45
-39 129 -40 70 -71 136 -71 152 0 2 4 4 9 4 5 0 12 -11 15 -25 4 -14 11 -23
16 -20 6 4 4 18 -5 36 -9 16 -20 27 -24 24 -5 -2 -23 22 -39 55 -48 94 -112
201 -144 243 -25 31 -36 37 -66 37 -21 0 -44 5 -52 11 -11 8 0 9 43 6 40 -2
64 -10 77 -23z m1094 -62 c124 -67 122 -86 -3 -22 -55 28 -101 56 -101 61 0
15 11 11 104 -39z m-884 -535 c0 -4 9 -26 19 -47 11 -22 16 -40 11 -40 -4 0
-18 24 -30 54 -12 30 -48 95 -81 145 -32 51 -59 95 -59 99 0 4 32 -40 70 -98
38 -58 70 -109 70 -113z m1794 -72 c37 -33 100 -98 140 -145 263 -305 306
-357 306 -370 0 -18 5 -24 -217 235 -100 116 -215 241 -257 278 -42 38 -76 73
-76 78 0 13 22 -3 104 -76z m168 38 c7 -25 -1 -43 -18 -43 -8 0 -14 2 -14 4 0
2 -3 12 -7 22 -4 12 -3 15 5 10 7 -4 12 -1 12 8 0 22 17 20 22 -1z m-407 -23
c19 -7 19 -8 2 -15 -12 -5 -24 -2 -35 9 -13 13 -14 16 -2 15 8 0 24 -4 35 -9z
m-1438 -42 c-3 -8 -6 -5 -6 6 -1 11 2 17 5 13 3 -3 4 -12 1 -19z m1863 12 c0
-5 -5 -10 -11 -10 -5 0 -7 5 -4 10 3 6 8 10 11 10 2 0 4 -4 4 -10z m-315 -40
c11 -12 40 -32 65 -45 27 -14 91 -71 163 -145 64 -68 117 -124 117 -126 0 -19
-39 14 -138 117 -64 66 -130 126 -147 133 -36 15 -126 91 -118 100 8 7 34 -8
58 -34z m-1587 4 l-28 -14 16 -41 c9 -22 14 -42 11 -45 -4 -4 -37 79 -37 93 0
5 42 22 55 22 6 0 -2 -6 -17 -15z m2365 -146 c8 -27 6 -29 -35 -34 -31 -5 -33
-3 -35 26 -2 28 0 30 31 30 26 0 35 -5 39 -22z m-844 -18 c4 0 36 -72 71 -160
55 -137 71 -168 111 -209 56 -58 78 -58 135 0 37 38 37 39 19 59 -10 11 -13
20 -7 20 7 0 12 15 12 33 1 18 11 44 25 61 l23 29 11 -39 c5 -21 15 -60 22
-87 7 -29 21 -55 36 -67 27 -21 23 -43 -5 -33 -9 3 -29 17 -45 31 l-27 26 -43
-42 c-24 -24 -57 -46 -73 -51 l-29 -7 -6 -235 c-3 -129 -7 -235 -7 -236 -13
-22 -16 37 -14 238 l4 241 -49 52 c-43 44 -58 72 -108 199 -33 84 -66 154 -77
160 -22 14 -24 31 -2 23 9 -3 19 -6 23 -6z m1109 -236 c18 -5 22 -13 22 -45 0
-36 -2 -39 -29 -39 -47 0 -81 17 -81 40 0 11 7 20 15 20 9 0 18 7 21 15 7 16
17 18 52 9z m-418 -102 c13 -11 11 -12 -10 -4 -14 5 -26 18 -28 28 -2 17 -1
17 11 4 7 -8 19 -21 27 -28z m-804 -598 c36 -23 41 -32 51 -87 16 -84 9 -91
-79 -83 -36 3 -78 2 -92 -4 -17 -6 -26 -6 -26 0 0 6 -11 10 -25 10 -27 0 -54
-35 -32 -43 9 -4 9 -6 -1 -6 -18 -1 -26 27 -12 44 9 11 8 20 -8 42 -11 15 -23
46 -26 69 -9 51 4 63 76 74 100 14 132 12 174 -16z m303 -17 c-15 -12 -51 -43
-80 -68 -38 -33 -66 -49 -96 -54 -27 -4 -43 -3 -43 3 0 6 18 13 39 17 29 5 58
23 107 66 37 32 74 59 83 59 12 -1 9 -7 -10 -23z m-711 -161 c152 -22 182 -29
171 -40 -2 -3 -96 9 -209 25 -113 15 -227 29 -253 29 -33 0 -46 3 -41 11 9 15
114 7 332 -25z m366 -42 c33 -13 5 -19 -73 -16 -46 2 -79 8 -76 13 7 10 124
13 149 3z"/>
<path d="M5245 6280 c3 -5 11 -10 16 -10 6 0 7 5 4 10 -3 6 -11 10 -16 10 -6
0 -7 -4 -4 -10z"/>
<path d="M5317 6203 c-9 -8 -9 -48 0 -56 8 -9 44 44 37 55 -6 10 -28 11 -37 1z"/>
<path d="M5126 5865 c14 -14 27 -25 29 -25 3 0 5 11 5 25 0 21 -5 25 -30 25
l-29 0 25 -25z"/>
<path d="M5094 5844 c3 -9 6 -18 6 -20 0 -2 10 -4 22 -4 20 0 21 1 3 20 -22
24 -40 26 -31 4z"/>
<path d="M5125 5790 c3 -5 8 -10 11 -10 2 0 4 5 4 10 0 6 -5 10 -11 10 -5 0
-7 -4 -4 -10z"/>
<path d="M4116 5663 c-52 -52 -96 -116 -96 -143 0 -6 24 -10 55 -10 61 0 103
-17 148 -59 l29 -26 16 24 c10 13 29 35 43 50 15 14 29 38 33 52 6 29 -10 89
-25 89 -5 0 -29 18 -53 40 -59 55 -79 52 -150 -17z"/>
<path d="M3910 5520 c-8 -5 -36 -6 -62 -3 -26 3 -48 3 -48 -1 0 -10 107 -56
130 -56 23 0 25 9 7 43 -9 18 -17 23 -27 17z"/>
<path d="M3770 5485 c-8 -9 -21 -13 -33 -9 -14 4 -18 2 -15 -7 3 -8 22 -15 44
-17 21 -2 43 -8 49 -13 5 -5 15 -9 23 -9 8 0 34 -13 58 -30 37 -25 44 -27 44
-12 0 23 -52 68 -95 82 -19 6 -37 16 -40 21 -9 13 -21 11 -35 -6z"/>
<path d="M3930 5436 c0 -2 7 -9 15 -16 12 -10 15 -10 15 4 0 9 -7 16 -15 16
-8 0 -15 -2 -15 -4z"/>
<path d="M5753 4353 c-10 -3 -10 -9 0 -24 16 -25 37 -25 30 1 -6 24 -13 29
-30 23z"/>
<path d="M5800 4334 c0 -8 5 -12 10 -9 6 3 10 10 10 16 0 5 -4 9 -10 9 -5 0
-10 -7 -10 -16z"/>
<path d="M3005 4180 c3 -5 10 -10 16 -10 5 0 9 5 9 10 0 6 -7 10 -16 10 -8 0
-12 -4 -9 -10z"/>
<path d="M3035 4140 c3 -5 14 -10 23 -10 15 0 15 2 2 10 -20 13 -33 13 -25 0z"/>
<path d="M3584 3217 c2 -18 4 -35 5 -39 0 -5 6 -8 11 -8 16 0 12 67 -5 74 -11
4 -14 -2 -11 -27z"/>
<path d="M3640 3215 c0 -8 14 -18 32 -23 17 -4 33 -13 35 -19 3 -9 -5 -9 -29
-2 -45 12 -48 12 -48 -10 0 -24 40 -50 101 -66 l47 -13 11 44 c17 68 17 69
-61 87 -88 21 -88 21 -88 2z"/>
<path d="M3715 3068 c22 -16 55 -20 55 -6 0 4 -6 8 -12 8 -7 0 -24 3 -38 6
-24 6 -24 6 -5 -8z"/>
<path d="M4010 2264 c0 -5 7 -19 15 -30 8 -10 15 -14 15 -8 0 5 -7 19 -15 30
-8 10 -15 14 -15 8z"/>
<path d="M4033 2016 c-17 -6 -34 -14 -38 -18 -6 -5 21 -68 29 -68 2 0 18 5 35
11 30 11 32 14 27 43 -9 41 -16 45 -53 32z"/>
<path d="M4270 1596 c0 -14 21 -58 26 -54 8 8 -7 58 -17 58 -5 0 -9 -2 -9 -4z"/>
<path d="M6010 2375 c0 -17 9 -19 28 -6 11 7 10 10 -3 15 -23 9 -25 8 -25 -9z"/>
<path d="M5586 2135 c-12 -32 -6 -72 14 -90 28 -25 33 -15 19 41 -14 57 -24
72 -33 49z"/>
<path d="M6282 2096 c-30 -15 -23 -30 16 -34 28 -3 32 0 32 22 0 28 -11 30
-48 12z"/>
<path d="M4938 1421 c-64 -9 -72 -19 -59 -68 17 -62 36 -73 132 -77 46 -2 91
-7 100 -11 28 -11 38 15 26 71 -17 85 -62 104 -199 85z"/>
<path d="M6468 7993 c23 -2 59 -2 80 0 20 2 1 4 -43 4 -44 0 -61 -2 -37 -4z"/>
</g>
</svg>
