<?xml version="1.0" standalone="no"?>
<!DOCTYPE svg PUBLIC "-//W3C//DTD SVG 20010904//EN"
 "http://www.w3.org/TR/2001/REC-SVG-20010904/DTD/svg10.dtd">
<svg version="1.0" xmlns="http://www.w3.org/2000/svg"
 width="800.000000pt" height="800.000000pt" viewBox="0 0 800.000000 800.000000"
 preserveAspectRatio="xMidYMid meet">
<metadata>
Created by potrace 1.16, written by Peter Selinger 2001-2019
</metadata>
<g transform="translate(0.000000,800.000000) scale(0.100000,-0.100000)"
fill="#000000" stroke="none">
<path d="M0 4000 l0 -4000 4000 0 4000 0 0 1930 c0 1062 -2 1930 -5 1930 -3 0
-22 -8 -43 -19 -20 -10 -73 -30 -117 -45 -138 -45 -464 -233 -725 -417 -296
-209 -290 -205 -290 -187 0 14 194 157 255 188 17 9 66 43 108 75 113 87 117
89 346 214 139 75 211 120 211 130 0 10 25 26 71 45 38 16 68 34 66 40 -6 13
-259 384 -339 495 l-17 23 -107 -65 c-59 -37 -111 -64 -116 -61 -13 8 -9 24 6
24 8 0 72 35 144 78 71 42 180 104 241 137 62 33 157 89 211 125 l100 65 0
1648 0 1647 -4000 0 -4000 0 0 -4000z m4406 2717 c-14 -50 -28 -107 -31 -125
-4 -19 -11 -30 -17 -26 -7 4 -8 2 -4 -5 4 -6 -11 -64 -33 -129 -24 -69 -41
-138 -42 -169 -1 -29 -6 -53 -11 -53 -4 0 -8 -14 -8 -31 0 -20 -4 -28 -11 -23
-16 10 -5 141 21 231 22 80 24 97 12 89 -5 -3 -22 -1 -38 4 -16 4 -21 9 -11 9
9 1 17 6 17 12 0 6 7 8 15 5 8 -3 21 -8 29 -12 14 -5 43 50 38 73 -1 6 6 34
17 63 l19 51 -24 15 c-29 19 -22 36 14 32 21 -2 27 2 34 27 36 118 48 85 14
-38z m1019 -87 c81 -121 127 -180 141 -180 3 0 42 21 86 48 66 38 92 62 145
130 36 45 68 82 72 82 15 0 133 -129 127 -139 -12 -18 -86 -361 -86 -396 0
-18 7 -40 15 -49 25 -24 18 -28 -40 -23 -32 3 -55 1 -55 -5 0 -5 -5 -6 -11 -2
-8 4 2 14 25 26 39 20 43 27 24 46 -9 9 -9 12 0 12 19 0 4 120 -20 153 -23 33
-17 48 9 25 13 -11 25 -13 41 -7 22 8 31 29 12 29 -5 0 -10 5 -10 10 0 6 7 10
15 10 16 0 21 35 7 44 -5 3 -7 19 -4 36 3 24 8 29 22 25 15 -5 19 2 25 36 7
40 6 43 -45 93 l-52 51 -21 -29 c-77 -103 -109 -134 -186 -179 l-82 -49 44
-51 c24 -29 49 -68 57 -87 23 -58 39 -78 59 -73 15 4 21 -2 26 -26 5 -22 12
-31 26 -31 10 0 19 -4 19 -10 0 -5 -7 -10 -15 -10 -16 0 -20 -15 -7 -24 5 -3
10 -27 11 -53 1 -26 5 -51 9 -55 4 -4 39 9 78 28 61 31 71 40 68 60 -1 13 2
24 7 24 5 0 9 -4 9 -10 0 -15 38 -12 47 4 4 8 54 28 110 45 56 17 105 36 108
41 3 5 26 0 51 -10 55 -24 74 -25 74 -5 0 8 5 15 10 15 6 0 10 -4 10 -9 0 -5
30 -33 68 -62 116 -90 232 -201 232 -220 0 -10 16 -62 35 -116 19 -53 31 -100
27 -104 -4 -4 -70 -23 -147 -43 -77 -20 -197 -52 -267 -70 -79 -21 -130 -31
-134 -25 -8 13 -15 11 111 42 155 38 408 107 412 111 8 8 -70 221 -85 236 -13
11 -14 11 -4 1 6 -8 12 -22 12 -30 -1 -14 -3 -13 -14 2 -7 9 -16 17 -18 17
-10 0 -4 -35 7 -43 6 -5 4 -7 -4 -5 -8 2 -19 13 -25 24 -6 10 -15 22 -21 26
-6 5 -5 8 3 8 18 0 -12 31 -47 48 -25 12 -25 12 11 8 l37 -5 -22 26 c-12 13
-55 50 -96 81 -56 43 -80 56 -101 54 -16 -2 -43 4 -61 13 -29 15 -35 15 -68 2
-56 -24 -75 -30 -83 -29 -31 6 -208 -97 -208 -121 0 -7 6 -48 14 -92 11 -64
12 -91 3 -130 -16 -65 -20 -72 -62 -79 -20 -4 -33 -11 -30 -17 16 -25 -21 -4
-65 37 -33 31 -50 55 -50 70 0 27 20 33 20 7 1 -19 70 -105 70 -87 0 5 16 10
36 10 38 0 57 18 48 47 -3 9 -1 17 4 17 18 0 21 43 7 127 -8 47 -16 87 -19 90
-3 3 -24 -6 -48 -19 -24 -14 -85 -47 -137 -74 -65 -33 -109 -64 -141 -99 -26
-27 -77 -82 -113 -120 l-66 -71 99 -99 c55 -55 100 -106 100 -114 0 -11 -218
189 -228 210 -1 3 28 36 65 75 38 38 91 94 118 124 34 38 79 71 142 105 76 41
91 53 87 70 -2 11 -6 34 -8 50 -7 60 -18 85 -37 85 -10 0 -19 5 -19 10 0 6 7
10 16 10 12 0 8 8 -13 28 -16 15 -44 56 -61 92 -18 36 -53 88 -80 117 -43 47
-56 55 -131 77 -47 13 -91 22 -99 18 -10 -4 -13 0 -8 14 3 12 -6 36 -24 64
-53 81 -95 140 -100 140 -3 0 -15 -15 -27 -33 -31 -45 -111 -122 -119 -114 -4
4 15 30 42 59 27 29 73 86 103 126 l54 73 34 -33 c19 -18 72 -89 118 -158z
m1025 0 c0 -13 -7 -20 -19 -20 -27 0 -35 17 -14 29 26 15 33 13 33 -9z m-1413
-182 c-2 -40 -11 -95 -19 -123 -15 -48 -14 -52 20 -155 19 -58 42 -111 51
-118 14 -11 14 -14 1 -22 -18 -11 -36 -7 -33 8 2 6 -15 62 -36 124 -37 112
-38 115 -23 163 8 28 17 83 19 123 3 39 9 72 15 72 6 0 8 -28 5 -72z m1936 46
c19 -7 22 -20 6 -29 -5 -4 -19 1 -30 11 -21 19 -26 39 -6 30 6 -3 20 -9 30
-12z m-1643 -8 c0 -3 -4 -8 -10 -11 -5 -3 -10 -1 -10 4 0 6 5 11 10 11 6 0 10
-2 10 -4z m1760 -14 c0 -14 -39 -46 -47 -39 -3 4 2 16 12 27 19 21 35 26 35
12z m-1830 -22 c0 -5 -5 -10 -11 -10 -5 0 -7 5 -4 10 3 6 8 10 11 10 2 0 4 -4
4 -10z m-5210 -90 c0 -5 -2 -10 -4 -10 -3 0 -8 5 -11 10 -3 6 -1 10 4 10 6 0
11 -4 11 -10z m5435 -54 c9 4 13 -3 11 -20 -1 -18 -5 -24 -15 -21 -7 3 -20 0
-27 -6 -9 -8 -14 -8 -14 -1 0 6 5 14 11 18 7 4 8 9 0 17 -7 7 -6 17 2 31 l12
21 3 -22 c2 -13 8 -20 17 -17z m-445 -16 c0 -5 -5 -10 -11 -10 -5 0 -7 5 -4
10 3 6 8 10 11 10 2 0 4 -4 4 -10z m-4925 -10 c3 -5 1 -10 -4 -10 -6 0 -11 5
-11 10 0 6 2 10 4 10 3 0 8 -4 11 -10z m5068 -53 c-10 -6 -21 -2 -34 12 -21
23 -16 46 7 37 8 -3 14 0 14 7 1 7 7 -1 14 -18 11 -25 11 -31 -1 -38z m457 23
c0 -11 -4 -20 -10 -20 -5 0 -10 -7 -10 -15 0 -21 -13 -19 -34 4 -17 18 -14 47
3 37 4 -3 13 -1 21 5 23 14 30 11 30 -11z m-5500 0 c0 -5 -4 -10 -10 -10 -5 0
-10 5 -10 10 0 6 5 10 10 10 6 0 10 -4 10 -10z m50 -50 c0 -5 -4 -10 -10 -10
-5 0 -10 5 -10 10 0 6 5 10 10 10 6 0 10 -4 10 -10z m4684 -45 c-7 -16 -24
-21 -24 -6 0 8 7 13 27 20 1 1 0 -6 -3 -14z m1306 -25 c0 -5 -4 -10 -10 -10
-5 0 -10 5 -10 10 0 6 5 10 10 10 6 0 10 -4 10 -10z m-420 -30 c0 -5 -5 -10
-11 -10 -5 0 -7 5 -4 10 3 6 8 10 11 10 2 0 4 -4 4 -10z m-105 -10 c3 -5 1
-10 -4 -10 -6 0 -11 5 -11 10 0 6 2 10 4 10 3 0 8 -4 11 -10z m35 0 c0 -5 -5
-10 -11 -10 -5 0 -7 5 -4 10 3 6 8 10 11 10 2 0 4 -4 4 -10z m-5350 -21 c0 -6
-4 -7 -10 -4 -5 3 -10 11 -10 16 0 6 5 7 10 4 6 -3 10 -11 10 -16z m5250 17
c0 -3 -4 -8 -10 -11 -5 -3 -10 -1 -10 4 0 6 5 11 10 11 6 0 10 -2 10 -4z
m-140 -16 c0 -5 -4 -10 -10 -10 -5 0 -10 5 -10 10 0 6 5 10 10 10 6 0 10 -4
10 -10z m-5085 -20 c3 -5 1 -10 -4 -10 -6 0 -11 5 -11 10 0 6 2 10 4 10 3 0 8
-4 11 -10z m4805 0 c0 -5 -5 -10 -11 -10 -5 0 -7 5 -4 10 3 6 8 10 11 10 2 0
4 -4 4 -10z m70 0 c0 -5 -4 -10 -10 -10 -5 0 -10 5 -10 10 0 6 5 10 10 10 6 0
10 -4 10 -10z m-4670 -10 c0 -5 -4 -10 -10 -10 -5 0 -10 5 -10 10 0 6 5 10 10
10 6 0 10 -4 10 -10z m4570 6 c0 -3 -4 -8 -10 -11 -5 -3 -10 -1 -10 4 0 6 5
11 10 11 6 0 10 -2 10 -4z m-4745 -16 c3 -5 1 -10 -4 -10 -6 0 -11 5 -11 10 0
6 2 10 4 10 3 0 8 -4 11 -10z m310 0 c3 -5 1 -10 -4 -10 -6 0 -11 5 -11 10 0
6 2 10 4 10 3 0 8 -4 11 -10z m35 -10 c0 -5 -4 -10 -10 -10 -5 0 -10 5 -10 10
0 6 5 10 10 10 6 0 10 -4 10 -10z m2450 -66 c29 -91 55 -130 76 -114 19 17 36
2 28 -23 -10 -32 -10 -32 -49 -3 -19 15 -35 22 -35 17 0 -6 -12 -11 -26 -11
-22 0 -24 2 -14 15 8 9 9 26 4 47 -4 18 -8 47 -9 63 -2 17 -6 42 -10 58 -4 15
-3 27 2 27 5 0 20 -34 33 -76z m-712 24 c23 -7 42 -16 42 -21 0 -15 -75 5 -95
25 -13 13 -15 18 -5 15 8 -4 34 -12 58 -19z m-1658 -8 c0 -5 -5 -10 -11 -10
-5 0 -7 5 -4 10 3 6 8 10 11 10 2 0 4 -4 4 -10z m170 6 c0 -3 -4 -8 -10 -11
-5 -3 -10 -1 -10 4 0 6 5 11 10 11 6 0 10 -2 10 -4z m-70 -26 c0 -5 -4 -10
-10 -10 -5 0 -10 5 -10 10 0 6 5 10 10 10 6 0 10 -4 10 -10z m-64 -28 c-9 -9
-37 8 -31 18 5 8 11 7 21 -1 8 -6 12 -14 10 -17z m34 18 c0 -5 -4 -10 -10 -10
-5 0 -10 5 -10 10 0 6 5 10 10 10 6 0 10 -4 10 -10z m4930 -4 c0 -11 -19 -15
-25 -6 -3 5 1 10 9 10 9 0 16 -2 16 -4z m0 -36 c0 -5 -4 -10 -10 -10 -5 0 -10
5 -10 10 0 6 5 10 10 10 6 0 10 -4 10 -10z m-3170 -30 c0 -5 -7 -10 -16 -10
-11 0 -14 -6 -9 -20 7 -23 -10 -28 -19 -5 -3 8 -12 12 -21 9 -10 -4 -15 0 -15
15 0 18 6 21 40 21 22 0 40 -4 40 -10z m1763 -5 c4 -8 2 -17 -3 -20 -6 -4 -10
-4 -10 -1 0 2 -3 11 -6 20 -3 9 -2 16 4 16 5 0 12 -7 15 -15z m1412 6 c3 -5 1
-12 -5 -16 -5 -3 -10 1 -10 9 0 18 6 21 15 7z m-1223 -20 c7 -19 230 -267 256
-285 33 -22 137 -153 173 -215 26 -48 125 -182 141 -192 5 -3 2 -12 -7 -19 -8
-7 -15 -8 -15 -2 0 5 -31 53 -70 105 -38 52 -70 100 -70 105 0 15 -147 199
-163 205 -15 5 -277 291 -277 301 0 10 28 7 32 -3z m1238 -21 c0 -5 -7 -10
-15 -10 -8 0 -15 5 -15 10 0 6 7 10 15 10 8 0 15 -4 15 -10z m-1270 -10 c0 -5
-7 -10 -15 -10 -8 0 -15 5 -15 10 0 6 7 10 15 10 8 0 15 -4 15 -10z m-100 -35
c0 -5 -5 -3 -10 5 -5 8 -10 20 -10 25 0 6 5 3 10 -5 5 -8 10 -19 10 -25z
m1370 15 c0 -5 -4 -10 -10 -10 -5 0 -10 5 -10 10 0 6 5 10 10 10 6 0 10 -4 10
-10z m-1222 -42 c20 -24 54 -58 75 -77 20 -19 37 -40 37 -46 0 -7 11 -20 24
-28 28 -19 71 -85 61 -95 -3 -4 -11 2 -18 13 -6 11 -28 38 -49 59 -21 22 -38
43 -38 48 0 17 -22 7 -52 -22 -16 -16 -38 -30 -48 -30 -10 0 -22 -5 -25 -10
-6 -9 4 -68 22 -132 7 -27 56 -22 93 8 29 25 30 28 16 49 -17 26 -32 95 -21
95 16 0 94 -65 98 -82 4 -13 -1 -16 -22 -15 -19 2 -25 -2 -23 -14 3 -18 -67
-79 -90 -79 -21 0 -37 -20 -31 -38 4 -10 1 -13 -8 -10 -8 3 -14 12 -14 21 0
26 -15 32 -17 6 0 -13 -2 -30 -2 -38 -1 -8 -7 -16 -14 -19 -12 -4 -15 33 -17
203 -1 39 -4 79 -9 90 -5 14 -3 13 7 -3 14 -25 22 -21 46 25 9 17 6 31 -14 76
-21 45 -25 87 -9 87 2 0 21 -19 42 -42z m-350 -4 c52 -33 55 -38 35 -45 -26
-10 -45 -42 -37 -63 8 -20 -6 -21 -31 -2 -17 12 -21 12 -31 -3 -7 -9 -16 -13
-20 -9 -4 4 -1 15 7 24 11 13 11 17 -1 24 -8 5 -24 16 -35 24 -30 23 3 20 39
-3 35 -23 46 -19 46 17 0 17 -10 34 -27 49 -44 35 -8 27 55 -13z m1582 6 c0
-5 -4 -10 -10 -10 -5 0 -10 5 -10 10 0 6 5 10 10 10 6 0 10 -4 10 -10z m-1334
-61 c14 -28 24 -53 22 -55 -2 -2 -16 21 -31 51 -15 30 -25 55 -22 55 3 0 16
-23 31 -51z m1197 -19 c8 -31 -16 -43 -37 -18 -15 17 -16 22 -5 29 22 14 36
10 42 -11z m-2256 -25 c7 -21 -6 -33 -16 -16 -6 9 -11 10 -15 2 -12 -18 -24
-12 -19 9 6 24 41 27 50 5z m2173 -9 c0 -3 -4 -8 -10 -11 -5 -3 -10 -1 -10 4
0 6 5 11 10 11 6 0 10 -2 10 -4z m-1272 -52 c-9 -9 -21 -13 -27 -10 -19 12
-12 22 16 24 25 2 26 1 11 -14z m-508 -78 c0 -3 -4 -8 -10 -11 -5 -3 -10 -1
-10 4 0 6 5 11 10 11 6 0 10 -2 10 -4z m460 -50 c0 -8 -5 -18 -11 -22 -14 -8
-33 11 -25 25 10 16 36 13 36 -3z m116 -2 c-3 -9 -6 -20 -6 -25 0 -15 -17 -10
-24 7 -8 20 1 34 21 34 10 0 13 -6 9 -16z m738 -69 c-7 -16 -24 -21 -24 -6 0
8 7 13 27 20 1 1 0 -6 -3 -14z m-904 -46 c0 -6 -5 -19 -11 -30 -9 -17 -6 -25
15 -44 25 -23 34 -45 18 -45 -4 0 -13 9 -20 21 -9 13 -19 18 -32 14 -17 -5
-18 -3 -10 24 6 22 5 31 -6 35 -24 9 -16 28 9 21 18 -6 20 -5 10 6 -20 20 -15
31 7 19 11 -6 20 -15 20 -21z m870 21 c0 -5 -5 -10 -11 -10 -5 0 -7 5 -4 10 3
6 8 10 11 10 2 0 4 -4 4 -10z m1990 -45 c0 -8 11 -22 25 -31 31 -20 32 -30 3
-37 -14 -4 -34 3 -59 21 l-37 27 27 17 c33 21 41 22 41 3z m-2573 -27 c-3 -8
-6 -5 -6 6 -1 11 2 17 5 13 3 -3 4 -12 1 -19z m-1427 -2 c0 -22 -16 -28 -29
-12 -9 11 -9 15 1 19 22 9 28 8 28 -7z m1410 -11 c0 -8 -4 -15 -10 -15 -5 0
-10 7 -10 15 0 8 5 15 10 15 6 0 10 -7 10 -15z m-1625 -45 c3 -5 -1 -10 -9
-10 -8 0 -18 5 -21 10 -3 6 1 10 9 10 8 0 18 -4 21 -10z m1575 0 c0 -6 -9 -20
-20 -32 -17 -19 -20 -19 -20 -5 0 9 5 17 10 17 6 0 10 7 10 15 0 8 5 15 10 15
6 0 10 -5 10 -10z m-1910 -10 c0 -5 -4 -10 -9 -10 -5 0 -12 -11 -15 -25 -4
-14 -11 -23 -16 -20 -15 9 11 65 31 65 5 0 9 -4 9 -10z m1841 -72 c-12 -12
-21 -16 -21 -10 0 15 34 51 38 40 2 -4 -6 -17 -17 -30z m-35 -35 c-10 -10 -19
5 -10 18 6 11 8 11 12 0 2 -7 1 -15 -2 -18z m343 -15 c17 -23 31 -47 31 -52
-1 -12 -79 74 -80 87 0 18 21 3 49 -35z m-1953 -10 c-15 -18 -32 -43 -38 -55
-12 -24 -28 -31 -28 -12 0 16 69 99 82 99 6 0 -1 -15 -16 -32z m1584 22 c0 -5
-4 -10 -10 -10 -5 0 -10 5 -10 10 0 6 5 10 10 10 6 0 10 -4 10 -10z m840 -19
c13 -26 13 -31 -4 -31 -8 0 -17 -11 -20 -25 -4 -14 -11 -23 -15 -20 -10 6 -3
44 11 62 5 7 7 17 3 23 -3 5 -2 10 4 10 6 0 15 -9 21 -19z m-870 -1 c0 -5 -4
-10 -10 -10 -5 0 -10 5 -10 10 0 6 5 10 10 10 6 0 10 -4 10 -10z m-38 -22 c-7
-7 -12 -8 -12 -2 0 6 3 14 7 17 3 4 9 5 12 2 2 -3 -1 -11 -7 -17z m-22 -11 c0
-7 -18 -23 -39 -36 -23 -15 -37 -30 -34 -38 3 -7 0 -13 -6 -13 -23 0 -10 -37
25 -71 20 -18 47 -55 60 -81 l24 -47 -56 -157 -56 -158 21 -17 c22 -18 29 -49
11 -49 -5 0 -10 7 -10 15 0 22 -33 18 -47 -5 -10 -16 -10 -21 3 -28 13 -7 8
-15 -27 -40 -24 -18 -48 -32 -54 -32 -6 0 -31 -20 -55 -45 l-44 -45 -77 0 -76
0 -7 -52 c-5 -36 -3 -53 5 -59 9 -5 11 -76 6 -306 -12 -518 -26 -663 -67 -663
-14 0 -12 11 4 29 11 12 18 68 26 211 7 107 10 214 8 237 l-3 43 -77 -65 c-42
-36 -79 -61 -83 -56 -3 6 30 40 74 76 68 57 79 72 85 106 4 22 6 144 5 270 -1
229 -1 230 -23 227 -18 -3 -22 -11 -26 -56 -5 -44 -3 -53 12 -58 10 -3 18 -10
18 -16 0 -5 -7 -7 -16 -4 -51 20 -62 17 -102 -18 -56 -51 -148 -86 -101 -39 9
9 6 11 -12 7 -19 -4 -21 -3 -9 6 50 35 128 76 141 72 8 -2 5 3 -6 11 -29 22
-12 32 19 11 15 -9 28 -15 30 -13 2 2 6 28 9 57 l6 52 -29 0 c-21 0 -30 -5
-30 -16 0 -8 -5 -12 -10 -9 -6 4 -8 11 -5 16 7 10 -126 12 -163 3 -19 -5 -22
-12 -18 -30 4 -13 4 -24 2 -24 -16 0 -36 14 -36 26 0 14 -17 19 -52 16 -12 -1
-22 14 -33 49 -14 40 -38 73 -117 154 -54 57 -138 132 -186 166 -48 35 -91 69
-96 77 -43 71 -184 162 -361 232 -118 47 -179 41 -262 -27 -76 -62 -130 -136
-137 -187 -6 -41 -20 -65 -31 -54 -2 2 3 31 11 63 13 47 29 76 82 138 57 67
66 83 64 112 -2 18 2 51 8 74 l11 41 56 -41 c30 -23 109 -63 174 -89 176 -72
294 -139 369 -213 57 -55 157 -137 198 -161 16 -10 15 -7 -47 98 -36 62 -39
71 -26 89 7 11 24 25 37 31 13 6 27 21 33 33 5 12 17 24 27 26 10 3 26 19 35
36 10 17 22 31 26 31 12 0 -2 -41 -21 -63 -8 -9 -13 -19 -11 -21 2 -3 40 -14
84 -25 82 -22 118 -41 76 -41 -13 0 -52 -20 -87 -46 -62 -44 -80 -62 -49 -50
17 6 21 -9 5 -19 -5 -3 -10 -19 -10 -35 0 -16 5 -32 10 -35 18 -11 10 -26 -10
-20 -16 5 -20 2 -20 -15 0 -13 28 -49 74 -95 41 -40 89 -98 106 -128 35 -62
50 -72 77 -52 13 10 37 12 91 8 l72 -6 0 27 c0 14 5 26 10 26 6 0 10 -11 10
-24 0 -22 4 -23 92 -30 154 -10 215 -8 222 9 3 9 20 22 38 30 18 7 58 40 89
72 60 62 66 74 143 297 l45 128 -19 37 c-10 20 -39 56 -63 80 l-46 44 19 35
c20 37 60 79 72 75 5 -2 8 4 8 12 0 8 5 15 10 15 6 0 10 -6 10 -13z m495 -47
c-18 -20 -18 -21 14 -54 21 -21 39 -32 49 -29 8 4 21 -2 28 -12 21 -28 17 -41
-5 -21 -11 10 -25 15 -31 11 -11 -7 -90 60 -90 76 0 12 42 60 48 55 3 -3 -3
-15 -13 -26z m-2175 10 c0 -11 -48 -25 -57 -16 -3 3 5 10 18 15 32 13 39 13
39 1z m2560 -24 c0 -2 -8 -10 -17 -17 -16 -13 -17 -12 -4 4 13 16 21 21 21 13z
m-40 -29 c0 -2 -10 -12 -22 -23 l-23 -19 19 23 c18 21 26 27 26 19z m-2695
-169 c26 -12 36 -34 10 -24 -8 3 -15 1 -15 -4 0 -6 -5 -10 -11 -10 -6 0 -9 7
-5 15 3 9 0 15 -9 15 -8 0 -15 5 -15 10 0 13 13 13 45 -2z m2420 -80 c-103
-108 -125 -130 -95 -93 32 39 163 175 169 175 2 0 -31 -37 -74 -82z m-3025 42
c0 -5 -5 -10 -11 -10 -5 0 -7 5 -4 10 3 6 8 10 11 10 2 0 4 -4 4 -10z m20 -60
c0 -5 -4 -10 -10 -10 -5 0 -10 5 -10 10 0 6 5 10 10 10 6 0 10 -4 10 -10z m-5
-30 c3 -5 1 -10 -4 -10 -6 0 -11 5 -11 10 0 6 2 10 4 10 3 0 8 -4 11 -10z
m1480 -20 c-3 -5 -13 -10 -21 -10 -8 0 -14 5 -14 10 0 6 9 10 21 10 11 0 17
-4 14 -10z m35 -14 c0 -8 6 -17 13 -20 6 -3 3 -5 -8 -3 -20 2 -35 37 -16 37 6
0 11 -6 11 -14z m608 -14 c29 -13 38 -22 32 -31 -6 -11 -14 -9 -39 9 l-32 22
-23 -26 c-12 -15 -25 -24 -29 -20 -10 10 12 44 28 44 8 0 15 5 15 10 0 13 1
13 48 -8z m-2088 -48 c0 -3 -7 -1 -15 6 -8 7 -15 17 -15 22 0 5 7 3 15 -6 8
-8 15 -18 15 -22z m5271 -6 c22 -42 22 -43 37 -20 8 12 21 22 28 22 14 0 14
-25 -1 -87 -8 -33 -25 -46 -25 -18 0 8 -3 15 -8 15 -4 0 -13 14 -21 31 -7 17
-26 43 -42 57 -29 25 -30 42 -4 42 8 0 24 -19 36 -42z m-3795 18 c3 -8 4 -22
2 -30 -2 -12 -6 -13 -21 -2 -10 8 -15 20 -11 30 8 20 23 21 30 2z m1368 -21
c-9 -14 -18 -25 -21 -25 -5 0 5 18 20 38 17 22 18 13 1 -13z m-1394 -36 c0
-11 -28 -24 -36 -17 -2 3 -2 12 2 21 6 16 34 12 34 -4z m-1400 1 c0 -5 -4 -10
-10 -10 -5 0 -10 5 -10 10 0 6 5 10 10 10 6 0 10 -4 10 -10z m695 0 c4 -6 -5
-10 -19 -10 -14 0 -26 5 -26 10 0 6 9 10 19 10 11 0 23 -4 26 -10z m-661 -35
c3 -8 1 -15 -3 -15 -5 0 -11 7 -15 15 -3 8 -1 15 3 15 5 0 11 -7 15 -15z
m1312 -7 c-10 -6 -20 -7 -24 -3 -9 8 20 25 31 18 5 -3 2 -10 -7 -15z m-705 2
c5 0 9 -13 9 -30 0 -34 -6 -37 -32 -13 -13 12 -22 13 -29 6 -17 -17 25 -39
116 -58 57 -13 87 -25 103 -43 29 -30 20 -43 -11 -14 -21 20 -133 52 -183 52
-32 0 -33 -35 -2 -51 13 -7 18 -14 11 -16 -20 -7 -53 17 -53 39 0 17 -2 18
-15 8 -11 -9 -15 -34 -15 -101 0 -48 5 -91 10 -94 13 -8 13 -25 0 -25 -6 0
-19 15 -30 33 -13 21 -20 26 -20 15 0 -10 -4 -18 -10 -18 -5 0 -10 12 -10 28
-1 15 -7 38 -15 52 -20 36 -19 60 4 60 11 0 21 -7 23 -15 6 -28 27 0 30 43 3
25 13 51 27 66 12 13 21 28 19 34 -4 15 35 52 50 46 8 -2 18 -4 23 -4z m4559
-20 c0 -5 -5 -10 -11 -10 -5 0 -7 5 -4 10 3 6 8 10 11 10 2 0 4 -4 4 -10z
m-2466 -39 c-4 -17 -9 -30 -11 -27 -3 2 -2 19 2 36 9 41 17 33 9 -9z m2436 19
c0 -5 -4 -10 -10 -10 -5 0 -10 5 -10 10 0 6 5 10 10 10 6 0 10 -4 10 -10z
m-178 -33 c-7 -8 -8 -18 -4 -22 4 -5 1 -5 -5 -1 -8 4 -13 1 -13 -8 0 -9 -5
-16 -10 -16 -6 0 -23 -14 -39 -32 -15 -17 -30 -27 -34 -22 -8 13 96 133 107
123 5 -5 4 -14 -2 -22z m148 19 c0 -3 -4 -8 -10 -11 -5 -3 -10 -1 -10 4 0 6 5
11 10 11 6 0 10 -2 10 -4z m160 -6 c0 -5 -2 -10 -4 -10 -3 0 -8 5 -11 10 -3 6
-1 10 4 10 6 0 11 -4 11 -10z m-3553 -25 c0 -8 -4 -15 -9 -15 -10 0 -11 14 -1
23 9 10 10 9 10 -8z m3273 -5 c0 -5 -2 -10 -4 -10 -3 0 -8 5 -11 10 -3 6 -1
10 4 10 6 0 11 -4 11 -10z m60 0 c0 -5 -4 -10 -10 -10 -5 0 -10 5 -10 10 0 6
5 10 10 10 6 0 10 -4 10 -10z m-3103 -20 c13 0 23 -5 23 -11 0 -7 -12 -10 -28
-7 -25 4 -28 1 -26 -19 2 -17 -3 -23 -16 -23 -10 0 -22 5 -26 11 -3 6 -19 9
-35 5 -38 -7 -37 5 2 33 23 17 33 20 39 11 5 -8 9 -7 14 6 5 13 9 15 18 6 7
-7 22 -12 35 -12z m740 -12 c-3 -8 -6 -5 -6 6 -1 11 2 17 5 13 3 -3 4 -12 1
-19z m2333 18 c0 -2 -7 -7 -16 -10 -8 -3 -12 -2 -9 4 6 10 25 14 25 6z m-3324
-33 c-10 -10 -19 5 -10 18 6 11 8 11 12 0 2 -7 1 -15 -2 -18z m-2826 -14 c0
-5 -4 -9 -10 -9 -5 0 -10 7 -10 16 0 8 5 12 10 9 6 -3 10 -10 10 -16z m30 11
c0 -5 -4 -10 -10 -10 -5 0 -10 5 -10 10 0 6 5 10 10 10 6 0 10 -4 10 -10z
m6430 0 c0 -5 -5 -10 -11 -10 -5 0 -7 5 -4 10 3 6 8 10 11 10 2 0 4 -4 4 -10z
m-6490 -32 c0 -5 -5 -8 -11 -8 -5 0 -7 5 -4 10 3 6 1 10 -5 10 -6 0 -8 5 -4
11 6 11 23 -6 24 -23z m3837 -75 c-2 -21 -4 -4 -4 37 0 41 2 58 4 38 2 -21 2
-55 0 -75z m-2577 77 c0 -5 -4 -10 -10 -10 -5 0 -10 5 -10 10 0 6 5 10 10 10
6 0 10 -4 10 -10z m5260 -12 c0 -13 -23 -5 -28 10 -2 7 2 10 12 6 9 -3 16 -11
16 -16z m-6590 2 c0 -5 -4 -10 -10 -10 -5 0 -10 5 -10 10 0 6 5 10 10 10 6 0
10 -4 10 -10z m300 0 c0 -5 -2 -10 -4 -10 -3 0 -8 5 -11 10 -3 6 -1 10 4 10 6
0 11 -4 11 -10z m-260 -9 c0 -6 -4 -13 -10 -16 -5 -3 -10 1 -10 9 0 9 5 16 10
16 6 0 10 -4 10 -9z m1295 -11 c3 -5 1 -10 -4 -10 -6 0 -11 5 -11 10 0 6 2 10
4 10 3 0 8 -4 11 -10z m-1395 -4 c0 -3 -4 -8 -10 -11 -5 -3 -10 -1 -10 4 0 6
5 11 10 11 6 0 10 -2 10 -4z m-40 -16 c0 -5 -5 -10 -11 -10 -5 0 -7 5 -4 10 3
6 8 10 11 10 2 0 4 -4 4 -10z m450 -10 c0 -5 -4 -10 -10 -10 -5 0 -10 5 -10
10 0 6 5 10 10 10 6 0 10 -4 10 -10z m1000 -10 c0 -5 -4 -10 -10 -10 -5 0 -10
5 -10 10 0 6 5 10 10 10 6 0 10 -4 10 -10z m-1510 -10 c0 -5 -4 -10 -10 -10
-5 0 -10 5 -10 10 0 6 5 10 10 10 6 0 10 -4 10 -10z m525 -10 c3 -5 1 -10 -4
-10 -6 0 -11 5 -11 10 0 6 2 10 4 10 3 0 8 -4 11 -10z m5685 0 c0 -5 -4 -10
-10 -10 -5 0 -10 5 -10 10 0 6 5 10 10 10 6 0 10 -4 10 -10z m-6710 -30 c0 -5
-4 -10 -10 -10 -5 0 -10 5 -10 10 0 6 5 10 10 10 6 0 10 -4 10 -10z m400 0 c0
-5 -5 -10 -11 -10 -5 0 -7 5 -4 10 3 6 8 10 11 10 2 0 4 -4 4 -10z m645 0 c3
-5 1 -10 -4 -10 -6 0 -11 5 -11 10 0 6 2 10 4 10 3 0 8 -4 11 -10z m5645 6 c0
-3 -4 -8 -10 -11 -5 -3 -10 -1 -10 4 0 6 5 11 10 11 6 0 10 -2 10 -4z m-6660
-26 c0 -5 -4 -10 -10 -10 -5 0 -10 5 -10 10 0 6 5 10 10 10 6 0 10 -4 10 -10z
m6635 0 c3 -5 1 -10 -4 -10 -6 0 -11 5 -11 10 0 6 2 10 4 10 3 0 8 -4 11 -10z
m-6325 -10 c0 -5 -4 -10 -10 -10 -5 0 -10 5 -10 10 0 6 5 10 10 10 6 0 10 -4
10 -10z m720 0 c0 -5 -5 -10 -11 -10 -5 0 -7 5 -4 10 3 6 8 10 11 10 2 0 4 -4
4 -10z m2580 0 c0 -5 -5 -10 -11 -10 -5 0 -7 5 -4 10 3 6 8 10 11 10 2 0 4 -4
4 -10z m-3430 -10 c0 -5 -4 -10 -10 -10 -5 0 -10 5 -10 10 0 6 5 10 10 10 6 0
10 -4 10 -10z m30 0 c0 -5 -5 -10 -11 -10 -5 0 -7 5 -4 10 3 6 8 10 11 10 2 0
4 -4 4 -10z m-190 -10 c0 -5 -2 -10 -4 -10 -3 0 -8 5 -11 10 -3 6 -1 10 4 10
6 0 11 -4 11 -10z m6595 0 c3 -5 1 -10 -4 -10 -6 0 -11 5 -11 10 0 6 2 10 4
10 3 0 8 -4 11 -10z m-5565 -10 c0 -5 -4 -10 -10 -10 -5 0 -10 5 -10 10 0 6 5
10 10 10 6 0 10 -4 10 -10z m1900 -5 c7 -9 10 -18 7 -22 -8 -7 -37 15 -37 28
0 14 16 11 30 -6z m-2790 1 c0 -3 -4 -8 -10 -11 -5 -3 -10 -1 -10 4 0 6 5 11
10 11 6 0 10 -2 10 -4z m-120 -16 c0 -5 -4 -10 -10 -10 -5 0 -10 5 -10 10 0 6
5 10 10 10 6 0 10 -4 10 -10z m4507 -67 c-2 -16 -4 -3 -4 27 0 30 2 43 4 28 2
-16 2 -40 0 -55z m-3482 57 c3 -5 1 -10 -4 -10 -6 0 -11 5 -11 10 0 6 2 10 4
10 3 0 8 -4 11 -10z m5525 -24 c0 -3 -4 -8 -10 -11 -5 -3 -10 -1 -10 4 0 6 5
11 10 11 6 0 10 -2 10 -4z m-5510 -16 c0 -5 -2 -10 -4 -10 -3 0 -8 5 -11 10
-3 6 -1 10 4 10 6 0 11 -4 11 -10z m70 0 c0 -5 -4 -10 -10 -10 -5 0 -10 5 -10
10 0 6 5 10 10 10 6 0 10 -4 10 -10z m5420 -20 c0 -5 -4 -10 -10 -10 -5 0 -10
5 -10 10 0 6 5 10 10 10 6 0 10 -4 10 -10z m-3330 -32 c7 -18 30 -68 50 -110
21 -43 35 -78 32 -78 -9 0 -42 32 -42 41 0 5 -13 31 -30 57 -43 71 -94 87
-142 45 -15 -14 -15 -16 0 -34 9 -10 22 -19 29 -19 7 0 13 -4 13 -10 0 -16
-40 -11 -47 6 -3 9 -15 19 -26 23 -19 7 -18 10 18 50 37 41 45 43 87 26 11 -4
18 0 23 14 9 30 21 26 35 -11z m-890 3 c0 -13 -29 -35 -37 -28 -7 8 15 37 28
37 5 0 9 -4 9 -9z m-250 -26 c7 -9 8 -15 2 -15 -5 0 -12 7 -16 15 -3 8 -4 15
-2 15 2 0 9 -7 16 -15z m-842 -14 c3 -8 -1 -12 -9 -9 -7 2 -15 10 -17 17 -3 8
1 12 9 9 7 -2 15 -10 17 -17z m5282 15 c0 -3 -4 -8 -10 -11 -5 -3 -10 -1 -10
4 0 6 5 11 10 11 6 0 10 -2 10 -4z m-5332 -18 c-3 -7 -13 -15 -24 -17 -16 -3
-17 -1 -5 13 16 19 34 21 29 4z m3349 -10 c-3 -8 -6 -5 -6 6 -1 11 2 17 5 13
3 -3 4 -12 1 -19z m1963 -8 c0 -5 -4 -10 -10 -10 -5 0 -10 5 -10 10 0 6 5 10
10 10 6 0 10 -4 10 -10z m-5221 -26 c3 -16 1 -17 -13 -5 -19 16 -21 34 -3 29
6 -3 14 -13 16 -24z m1651 21 c0 -23 -14 -32 -42 -26 -46 9 -44 26 2 28 22 0
40 0 40 -2z m1170 -15 c0 -5 -4 -10 -10 -10 -5 0 -10 5 -10 10 0 6 5 10 10 10
6 0 10 -4 10 -10z m2380 -4 c0 -3 -4 -8 -10 -11 -5 -3 -10 -1 -10 4 0 6 5 11
10 11 6 0 10 -2 10 -4z m-2395 -26 c3 -5 1 -10 -4 -10 -6 0 -11 5 -11 10 0 6
2 10 4 10 3 0 8 -4 11 -10z m462 -12 c-3 -8 -6 -5 -6 6 -1 11 2 17 5 13 3 -3
4 -12 1 -19z m-3229 -6 c6 -18 -15 -14 -22 4 -4 10 -1 14 6 12 6 -2 14 -10 16
-16z m5112 -12 c0 -5 -4 -10 -10 -10 -5 0 -10 5 -10 10 0 6 5 10 10 10 6 0 10
-4 10 -10z m-25 -20 c3 -5 1 -10 -4 -10 -6 0 -11 5 -11 10 0 6 2 10 4 10 3 0
8 -4 11 -10z m-5075 -7 c0 -17 -16 -29 -37 -29 -13 0 -23 4 -23 8 0 5 10 13
23 18 28 11 37 12 37 3z m2795 -3 c3 -5 -1 -10 -9 -10 -9 0 -16 5 -16 10 0 6
4 10 9 10 6 0 13 -4 16 -10z m432 -22 c-3 -8 -6 -5 -6 6 -1 11 2 17 5 13 3 -3
4 -12 1 -19z m-1573 -32 c-8 -26 -91 -150 -116 -173 -22 -19 -36 -10 -18 12
11 13 10 14 -4 9 -12 -5 -17 -2 -15 7 1 8 -1 32 -6 53 -7 36 -5 42 21 63 31
24 50 30 38 12 -4 -7 -1 -10 7 -7 8 3 14 13 14 22 0 23 55 47 73 33 7 -6 10
-19 6 -31z m-1724 8 c0 -17 -22 -14 -28 4 -2 7 3 12 12 12 9 0 16 -7 16 -16z
m2890 6 c0 -5 -2 -10 -4 -10 -3 0 -8 5 -11 10 -3 6 -1 10 4 10 6 0 11 -4 11
-10z m-2830 -19 c0 -28 -13 -40 -31 -30 -22 12 -26 34 -4 25 8 -3 15 -1 15 4
0 6 5 10 10 10 6 0 10 -4 10 -9z m887 -13 c-3 -8 -6 -5 -6 6 -1 11 2 17 5 13
3 -3 4 -12 1 -19z m2360 -35 c-3 -10 -5 -4 -5 12 0 17 2 24 5 18 2 -7 2 -21 0
-30z m-367 17 c0 -5 -4 -10 -10 -10 -5 0 -10 5 -10 10 0 6 5 10 10 10 6 0 10
-4 10 -10z m-2900 -40 c0 -11 -4 -20 -10 -20 -5 0 -10 9 -10 20 0 11 5 20 10
20 6 0 10 -9 10 -20z m920 -4 c0 -3 -4 -8 -10 -11 -5 -3 -10 -1 -10 4 0 6 5
11 10 11 6 0 10 -2 10 -4z m1000 -6 c0 -5 -9 -10 -20 -10 -11 0 -20 5 -20 10
0 6 9 10 20 10 11 0 20 -4 20 -10z m385 -10 c0 -9 -11 -16 -27 -18 -30 -4 -36
6 -16 26 16 16 43 11 43 -8z m635 0 c0 -5 -4 -10 -10 -10 -5 0 -10 5 -10 10 0
6 5 10 10 10 6 0 10 -4 10 -10z m-2916 -16 c20 -8 21 -24 1 -24 -8 0 -15 4
-15 9 0 5 -8 12 -17 14 -16 4 -16 5 -1 6 9 0 23 -2 32 -5z m896 -4 c0 -5 -4
-10 -10 -10 -5 0 -10 5 -10 10 0 6 5 10 10 10 6 0 10 -4 10 -10z m4020 6 c0
-3 -4 -8 -10 -11 -5 -3 -10 -1 -10 4 0 6 5 11 10 11 6 0 10 -2 10 -4z m-1611
-150 c0 -6 -11 20 -25 58 -13 39 -24 75 -23 80 0 6 11 -20 25 -58 13 -39 24
-75 23 -80z m-3259 99 c11 -13 6 -35 -8 -35 -4 0 -12 11 -19 25 -9 20 -8 25 2
25 7 0 18 -7 25 -15z m850 5 c0 -5 -2 -10 -4 -10 -3 0 -8 5 -11 10 -3 6 -1 10
4 10 6 0 11 -4 11 -10z m3970 -10 c0 -5 -4 -10 -10 -10 -5 0 -10 5 -10 10 0 6
5 10 10 10 6 0 10 -4 10 -10z m-30 -20 c0 -5 -5 -10 -11 -10 -5 0 -7 5 -4 10
3 6 8 10 11 10 2 0 4 -4 4 -10z m-4756 -26 c9 -24 7 -28 -9 -14 -17 14 -20 30
-6 30 5 0 12 -7 15 -16z m4726 6 c0 -5 -5 -10 -11 -10 -5 0 -7 5 -4 10 3 6 8
10 11 10 2 0 4 -4 4 -10z m-2872 -18 c2 -7 -3 -12 -12 -12 -9 0 -16 7 -16 16
0 17 22 14 28 -4z m-78 -22 c0 -5 -7 -10 -15 -10 -8 0 -15 5 -15 10 0 6 7 10
15 10 8 0 15 -4 15 -10z m-1741 -14 c8 -9 8 -16 2 -20 -6 -4 -15 3 -21 14 -12
23 2 27 19 6z m4606 -16 c-11 -18 22 -53 130 -140 108 -86 183 -165 171 -178
-4 -3 -25 15 -47 40 -21 25 -81 79 -132 119 -50 40 -109 91 -130 112 -35 36
-37 40 -20 52 19 14 37 10 28 -5z m-4571 -36 c9 -24 7 -28 -9 -14 -17 14 -20
30 -6 30 5 0 12 -7 15 -16z m2056 -8 c0 -14 -18 -77 -41 -141 -22 -64 -38
-119 -35 -122 3 -3 22 -7 42 -9 40 -4 64 -19 64 -40 0 -16 -13 -18 -38 -5 -9
4 -32 13 -50 19 -31 10 -34 9 -43 -16 -23 -65 -32 -82 -41 -82 -12 0 -14 -7
62 210 34 96 59 182 57 192 -3 11 0 18 9 18 8 0 14 -10 14 -24z m1205 -101
c60 -68 63 -73 83 -169 12 -55 20 -101 18 -103 -2 -2 -15 2 -30 8 -20 10 -25
17 -20 33 4 12 10 22 14 24 4 1 1 31 -7 65 -11 46 -25 74 -57 112 -44 51 -96
134 -96 151 1 5 8 -4 17 -21 9 -16 44 -61 78 -100z m-3210 74 c11 -17 0 -20
-21 -4 -17 13 -17 14 -2 15 9 0 20 -5 23 -11z m1415 -19 c0 -5 -4 -10 -9 -10
-6 0 -13 5 -16 10 -3 6 1 10 9 10 9 0 16 -4 16 -10z m3010 0 c0 -5 -5 -10 -11
-10 -5 0 -7 5 -4 10 3 6 8 10 11 10 2 0 4 -4 4 -10z m-4381 -13 c6 -8 8 -17 4
-20 -7 -8 -33 11 -33 24 0 13 16 11 29 -4z m2676 -7 c16 -18 16 -20 2 -20 -10
0 -17 -5 -17 -11 0 -6 12 -9 28 -7 15 2 32 -3 38 -11 10 -12 17 -11 46 7 38
24 48 27 48 14 0 -4 -14 -16 -31 -26 -17 -10 -35 -31 -41 -47 -12 -34 -27 -30
-21 4 4 22 0 25 -42 36 -45 11 -47 13 -41 41 4 24 2 30 -12 30 -10 0 -28 -7
-40 -16 -28 -20 -45 -8 -18 12 29 21 80 18 101 -6z m1685 -10 c0 -5 -5 -10
-11 -10 -5 0 -7 5 -4 10 3 6 8 10 11 10 2 0 4 -4 4 -10z m-4320 -35 c7 -8 8
-15 2 -15 -5 0 -15 7 -22 15 -7 8 -8 15 -2 15 5 0 15 -7 22 -15z m4300 5 c0
-5 -4 -10 -10 -10 -5 0 -10 5 -10 10 0 6 5 10 10 10 6 0 10 -4 10 -10z m-2870
-21 c0 -5 -4 -7 -10 -4 -5 3 -10 1 -10 -5 0 -6 -16 -26 -35 -44 -19 -19 -35
-37 -35 -41 0 -3 -16 -22 -35 -43 -33 -33 -38 -35 -65 -25 -21 8 -30 8 -33 -1
-2 -6 -7 -8 -11 -5 -11 11 5 37 26 42 11 3 27 -1 35 -9 13 -12 16 -12 29 0 8
8 14 17 14 21 0 4 12 19 28 34 15 15 38 42 51 59 23 31 51 43 51 21z m2850 -9
c0 -5 -4 -10 -10 -10 -5 0 -10 5 -10 10 0 6 5 10 10 10 6 0 10 -4 10 -10z
m-4240 -15 c7 -8 8 -15 2 -15 -5 0 -15 7 -22 15 -7 8 -8 15 -2 15 5 0 15 -7
22 -15z m2220 0 c0 -8 -7 -15 -15 -15 -8 0 -15 7 -15 15 0 8 7 15 15 15 8 0
15 -7 15 -15z m-2195 -44 c-3 -6 -11 -11 -17 -11 -6 0 -6 6 2 15 14 17 26 13
15 -4z m4165 9 c0 -5 -2 -10 -4 -10 -3 0 -8 5 -11 10 -3 6 -1 10 4 10 6 0 11
-4 11 -10z m-80 -70 c0 -5 -2 -10 -4 -10 -3 0 -8 5 -11 10 -3 6 -1 10 4 10 6
0 11 -4 11 -10z m-50 -40 c0 -5 -4 -10 -10 -10 -5 0 -10 5 -10 10 0 6 5 10 10
10 6 0 10 -4 10 -10z m1009 -23 c-2 -2 -49 -35 -104 -72 -105 -72 -265 -221
-421 -393 -70 -77 -125 -154 -222 -310 -195 -313 -197 -317 -225 -467 -14 -71
-28 -149 -32 -171 -4 -25 -16 -51 -31 -65 -31 -29 -41 -18 -16 18 14 18 30 78
47 173 34 183 39 199 90 285 47 78 62 115 46 115 -6 0 -11 -4 -11 -10 0 -5 -4
-10 -10 -10 -5 0 -8 16 -6 35 2 19 6 35 10 35 3 0 11 0 16 0 6 0 10 -7 8 -16
-2 -10 2 -19 9 -21 9 -3 44 51 117 182 76 138 440 515 617 640 63 44 108 70
113 64 5 -5 8 -10 5 -12z m-3854 3 c3 -5 -3 -10 -15 -10 -12 0 -18 5 -15 10 3
6 10 10 15 10 5 0 12 -4 15 -10z m2815 0 c0 -5 -5 -10 -11 -10 -5 0 -7 5 -4
10 3 6 8 10 11 10 2 0 4 -4 4 -10z m-3430 -20 c0 -5 -4 -10 -10 -10 -5 0 -10
5 -10 10 0 6 5 10 10 10 6 0 10 -4 10 -10z m316 -14 c10 -8 16 -17 12 -21 -7
-7 -48 16 -48 27 0 12 14 9 36 -6z m249 4 c-3 -5 -10 -10 -16 -10 -5 0 -9 5
-9 10 0 6 7 10 16 10 8 0 12 -4 9 -10z m2833 -2 c-2 -6 -10 -14 -16 -16 -7 -2
-10 2 -6 12 7 18 28 22 22 4z m-2873 -8 c3 -5 1 -10 -4 -10 -6 0 -11 5 -11 10
0 6 2 10 4 10 3 0 8 -4 11 -10z m155 6 c0 -3 -4 -8 -10 -11 -5 -3 -10 -1 -10
4 0 6 5 11 10 11 6 0 10 -2 10 -4z m-500 -26 c0 -5 -4 -10 -10 -10 -5 0 -10 5
-10 10 0 6 5 10 10 10 6 0 10 -4 10 -10z m520 0 c0 -5 -2 -10 -4 -10 -3 0 -8
5 -11 10 -3 6 -1 10 4 10 6 0 11 -4 11 -10z m-550 -4 c0 -3 -4 -8 -10 -11 -5
-3 -10 -1 -10 4 0 6 5 11 10 11 6 0 10 -2 10 -4z m310 0 c0 -3 -4 -8 -10 -11
-5 -3 -10 -1 -10 4 0 6 5 11 10 11 6 0 10 -2 10 -4z m-350 -16 c0 -5 -2 -10
-4 -10 -3 0 -8 5 -11 10 -3 6 -1 10 4 10 6 0 11 -4 11 -10z m618 -2 c-6 -16
-34 -22 -56 -12 -14 6 -11 9 13 14 45 11 47 11 43 -2z m-685 -8 c8 0 8 -3 0
-11 -13 -13 -43 -5 -43 12 0 6 7 8 16 5 9 -3 21 -6 27 -6z m37 0 c0 -5 -4 -10
-10 -10 -5 0 -10 5 -10 10 0 6 5 10 10 10 6 0 10 -4 10 -10z m4130 0 c0 -5 -5
-10 -11 -10 -5 0 -7 5 -4 10 3 6 8 10 11 10 2 0 4 -4 4 -10z m-3450 -9 c0 -5
-7 -11 -14 -14 -10 -4 -13 -1 -9 9 6 15 23 19 23 5z m22 -29 c-7 -2 -9 -9 -5
-15 4 -7 -1 -6 -10 2 -18 15 -23 26 -7 16 6 -3 10 -1 10 5 0 6 5 8 12 4 9 -6
9 -9 0 -12z m25 -17 c-7 -17 9 -30 18 -15 8 13 45 13 45 0 0 -6 -6 -10 -12 -9
-25 3 -38 -1 -38 -12 0 -5 -11 -27 -25 -47 -30 -44 -33 -28 -5 22 13 21 17 37
11 40 -10 6 -4 36 6 36 3 0 3 -7 0 -15z m153 -17 c0 -10 -32 -10 -54 -2 -21 8
-20 22 2 26 18 4 52 -12 52 -24z m-234 -16 c-14 -14 -16 -14 -16 -1 0 20 23
44 29 28 2 -6 -4 -18 -13 -27z m2574 18 c0 -5 -2 -10 -4 -10 -3 0 -8 5 -11 10
-3 6 -1 10 4 10 6 0 11 -4 11 -10z m-1477 -62 c18 -29 48 -86 66 -127 23 -54
59 -105 127 -185 94 -109 128 -138 169 -140 20 -1 36 -36 16 -36 -6 0 -11 6
-11 14 0 8 -7 12 -17 10 -10 -3 -32 4 -50 15 -34 21 -233 249 -233 267 0 14
-73 161 -100 202 -12 17 -17 32 -11 32 6 0 26 -24 44 -52z m1437 12 c0 -5 -5
-10 -11 -10 -5 0 -7 5 -4 10 3 6 8 10 11 10 2 0 4 -4 4 -10z m-779 -84 c5 -31
19 -85 30 -118 20 -65 27 -204 9 -193 -5 3 -10 35 -10 71 0 81 -28 200 -43
185 -14 -14 -47 -14 -47 -1 0 6 9 10 19 10 25 0 33 27 21 70 -13 45 -13 57 0
44 5 -5 15 -36 21 -68z m-1401 -8 c0 -12 -13 -10 -54 7 -20 8 -52 22 -72 30
-19 8 -33 19 -30 24 7 11 156 -48 156 -61z m2160 62 c0 -5 -5 -10 -11 -10 -5
0 -7 5 -4 10 3 6 8 10 11 10 2 0 4 -4 4 -10z m-20 -30 c0 -5 -4 -10 -10 -10
-5 0 -10 5 -10 10 0 6 5 10 10 10 6 0 10 -4 10 -10z m-875 -19 c7 -22 -35
-133 -52 -138 -7 -3 0 26 15 63 19 49 23 69 14 72 -7 2 -10 8 -6 13 9 15 22
10 29 -10z m-1375 -16 c0 -12 -29 -3 -34 10 -4 13 -2 14 14 5 11 -6 20 -13 20
-15z m2230 5 c0 -5 -4 -10 -10 -10 -5 0 -10 5 -10 10 0 6 5 10 10 10 6 0 10
-4 10 -10z m-300 -28 c0 -4 -5 -13 -12 -20 -7 -7 -13 -31 -13 -54 -1 -38 1
-42 35 -55 20 -8 44 -28 54 -44 9 -16 28 -32 41 -35 42 -10 42 -74 0 -74 -5 0
-4 4 4 9 16 11 -2 51 -24 51 -8 0 -22 14 -32 31 -10 17 -36 38 -60 49 -40 18
-42 20 -41 62 2 42 22 88 39 88 5 0 9 -4 9 -8z m-1840 -22 c0 -5 -5 -10 -11
-10 -5 0 -7 5 -4 10 3 6 8 10 11 10 2 0 4 -4 4 -10z m30 -21 c0 -5 -4 -9 -10
-9 -5 0 -10 7 -10 16 0 8 5 12 10 9 6 -3 10 -10 10 -16z m375 7 c19 -8 35 -22
35 -30 0 -8 9 -18 20 -21 11 -3 20 -11 20 -16 0 -18 -22 -9 -50 21 -31 34 -40
37 -40 15 0 -8 -4 -15 -10 -15 -5 0 -10 6 -10 14 0 8 -3 21 -6 30 -8 20 -3 20
41 2z m1725 -5 c0 -6 -4 -13 -10 -16 -5 -3 -10 1 -10 9 0 9 5 16 10 16 6 0 10
-4 10 -9z m-2070 -21 c0 -5 -2 -10 -4 -10 -3 0 -8 5 -11 10 -3 6 -1 10 4 10 6
0 11 -4 11 -10z m35 -20 c3 -6 -1 -7 -9 -4 -18 7 -21 14 -7 14 6 0 13 -4 16
-10z m2025 0 c0 -5 -4 -10 -10 -10 -5 0 -10 5 -10 10 0 6 5 10 10 10 6 0 10
-4 10 -10z m-1954 -36 c-3 -9 -6 -18 -6 -20 0 -3 -4 -3 -10 1 -11 7 -2 35 12
35 6 0 7 -7 4 -16z m1944 6 c0 -5 -5 -10 -11 -10 -5 0 -7 5 -4 10 3 6 8 10 11
10 2 0 4 -4 4 -10z m-20 -30 c0 -5 -5 -10 -11 -10 -5 0 -7 5 -4 10 3 6 8 10
11 10 2 0 4 -4 4 -10z m-35 -29 c-3 -6 -11 -11 -17 -11 -6 0 -6 6 2 15 14 17
26 13 15 -4z m-1865 -16 c7 -8 8 -15 2 -15 -5 0 -15 7 -22 15 -7 8 -8 15 -2
15 5 0 15 -7 22 -15z m1840 -15 c0 -5 -4 -10 -10 -10 -5 0 -10 5 -10 10 0 6 5
10 10 10 6 0 10 -4 10 -10z m-1799 -27 c13 -16 12 -17 -3 -4 -17 13 -22 21
-14 21 2 0 10 -8 17 -17z m69 -25 c0 -6 8 -21 19 -32 29 -32 54 -76 44 -76 -8
0 -83 104 -83 115 0 3 5 5 10 5 6 0 10 -5 10 -12z m1560 -18 c0 -5 -4 -10 -10
-10 -5 0 -10 5 -10 10 0 6 5 10 10 10 6 0 10 -4 10 -10z m65 0 c3 -5 1 -10 -4
-10 -6 0 -11 5 -11 10 0 6 2 10 4 10 3 0 8 -4 11 -10z m-345 -37 c0 -5 -4 -14
-9 -22 -7 -10 -12 -11 -27 -1 -17 10 -17 11 -1 6 11 -3 20 0 23 9 6 16 14 20
14 8z m100 -17 c0 -3 -4 -8 -10 -11 -5 -3 -10 -1 -10 4 0 6 5 11 10 11 6 0 10
-2 10 -4z m30 -6 c0 -5 -2 -10 -4 -10 -3 0 -8 5 -11 10 -3 6 -1 10 4 10 6 0
11 -4 11 -10z m40 6 c0 -3 -4 -8 -10 -11 -5 -3 -10 -1 -10 4 0 6 5 11 10 11 6
0 10 -2 10 -4z m100 -6 c0 -5 -2 -10 -4 -10 -3 0 -8 5 -11 10 -3 6 -1 10 4 10
6 0 11 -4 11 -10z m-330 -4 c0 -3 -4 -8 -10 -11 -5 -3 -10 -1 -10 4 0 6 5 11
10 11 6 0 10 -2 10 -4z m-89 -43 c4 -22 2 -33 -7 -37 -8 -3 -14 -11 -14 -17 0
-7 8 -5 20 6 11 10 19 25 18 33 -2 8 8 21 22 31 13 9 21 11 17 4 -5 -7 -10
-23 -12 -35 -5 -23 -45 -63 -157 -156 -32 -26 -58 -52 -58 -58 0 -20 45 -43
90 -46 41 -3 44 -5 86 -78 42 -74 52 -100 36 -100 -5 0 -21 26 -36 58 -51 107
-43 103 -191 103 -73 0 -168 -7 -215 -15 -107 -20 -140 -20 -140 -2 0 15 -29
26 -70 26 -14 0 -38 8 -55 18 -22 13 -42 16 -78 12 -45 -6 -49 -4 -64 21 l-16
27 -33 -20 c-45 -26 -44 -10 1 21 35 23 36 24 50 5 8 -10 15 -22 15 -26 0 -5
25 -8 55 -8 31 0 66 -6 78 -14 12 -7 44 -16 70 -20 45 -5 48 -4 45 16 -4 28
-35 48 -47 29 -7 -10 -13 -11 -30 -2 -25 14 -24 13 -10 45 l12 25 43 -30 c42
-31 54 -52 54 -96 0 -30 34 -31 54 -1 14 20 16 20 16 4 0 -15 5 -17 28 -12 15
3 80 9 145 12 78 5 113 10 103 16 -24 13 -20 38 12 72 29 33 6 20 -40 -23 -24
-21 -28 -22 -28 -8 0 10 8 21 17 24 9 4 31 20 48 36 36 34 65 52 65 38 0 -5
-7 -12 -16 -15 -9 -4 -14 -9 -10 -13 3 -4 17 4 31 17 19 18 22 26 13 32 -9 6
-7 8 7 6 15 -2 19 2 17 17 -2 15 -1 17 6 6 11 -15 36 -5 26 10 -3 5 -1 15 4
22 11 15 12 47 0 47 -4 0 -8 -4 -8 -10 0 -16 -17 -11 -24 7 -4 9 -1 20 6 25
23 15 42 3 49 -29z m109 27 c0 -5 -5 -10 -11 -10 -5 0 -7 5 -4 10 3 6 8 10 11
10 2 0 4 -4 4 -10z m-604 -59 c3 -23 0 -29 -10 -25 -12 5 -14 19 -7 63 3 14
14 -13 17 -38z m67 -31 c3 -11 12 -20 21 -20 9 0 16 -4 16 -10 0 -5 -11 -10
-25 -10 -15 0 -25 6 -25 14 0 8 -3 21 -6 30 -3 9 -2 16 4 16 5 0 12 -9 15 -20z
m-543 -40 c6 -11 8 -20 6 -20 -3 0 -10 9 -16 20 -6 11 -8 20 -6 20 3 0 10 -9
16 -20z m1124 11 c3 -5 -3 -11 -14 -14 -13 -3 -20 0 -20 9 0 15 26 19 34 5z
m96 -20 c-11 -21 -29 -36 -35 -29 -3 2 2 14 11 26 19 28 39 30 24 3z m-1190
-41 c0 -5 -2 -10 -4 -10 -3 0 -8 5 -11 10 -3 6 -1 10 4 10 6 0 11 -4 11 -10z
m1100 -40 c-28 -22 -40 -25 -40 -10 0 11 30 29 50 29 10 1 6 -6 -10 -19z m180
11 c0 -12 -20 -25 -27 -18 -7 7 6 27 18 27 5 0 9 -4 9 -9z m-785 -38 c-7 -30
-13 -39 -19 -32 -8 8 6 59 16 59 6 0 7 -11 3 -27z m742 -23 c-11 -19 -27 -27
-27 -14 0 15 22 44 30 39 6 -4 5 -14 -3 -25z m-537 0 c0 -5 -4 -10 -10 -10 -5
0 -10 5 -10 10 0 6 5 10 10 10 6 0 10 -4 10 -10z m-30 -10 c0 -5 -4 -10 -10
-10 -5 0 -10 5 -10 10 0 6 5 10 10 10 6 0 10 -4 10 -10z m-70 -4 c0 -3 -4 -8
-10 -11 -5 -3 -10 -1 -10 4 0 6 5 11 10 11 6 0 10 -2 10 -4z m805 -6 c3 -5 -3
-10 -14 -10 -11 0 -23 5 -26 10 -3 6 3 10 14 10 11 0 23 -4 26 -10z m-875 -10
c0 -5 -4 -10 -10 -10 -5 0 -10 5 -10 10 0 6 5 10 10 10 6 0 10 -4 10 -10z
m-330 -60 c0 -5 -5 -10 -11 -10 -5 0 -7 5 -4 10 3 6 8 10 11 10 2 0 4 -4 4
-10z m40 0 c0 -5 -4 -10 -10 -10 -5 0 -10 5 -10 10 0 6 5 10 10 10 6 0 10 -4
10 -10z m-113 -37 c-3 -10 -5 -4 -5 12 0 17 2 24 5 18 2 -7 2 -21 0 -30z
m1203 28 c0 -5 -3 -16 -6 -25 -5 -14 -9 -13 -31 1 -23 16 -24 17 -7 24 27 11
44 11 44 0z m60 -1 c0 -5 7 -7 15 -4 8 4 15 1 15 -5 0 -6 -5 -11 -10 -11 -6 0
-14 -9 -18 -19 -6 -17 -9 -18 -25 -6 -13 9 -17 20 -12 34 6 21 35 30 35 11z
m-160 -28 c0 -4 -5 -13 -12 -20 -9 -9 -1 -21 33 -52 27 -26 39 -43 32 -46 -19
-8 -28 -5 -28 8 0 7 -15 16 -33 22 -25 7 -31 13 -27 27 3 9 1 20 -5 24 -8 5
-6 13 6 26 18 20 34 25 34 11z m-995 -150 c37 -59 81 -125 98 -147 28 -37 29
-38 4 -16 -15 14 -60 76 -99 140 -97 152 -92 145 -80 137 6 -3 41 -55 77 -114z
m1153 96 c15 -15 16 -58 2 -58 -5 0 -10 9 -10 19 0 10 -7 22 -16 25 -8 3 -12
10 -9 16 8 13 18 13 33 -2z m132 -115 c0 -30 -2 -32 -19 -21 -14 9 -17 16 -10
24 5 7 7 25 4 41 -6 27 -6 27 9 9 9 -11 16 -35 16 -53z m-267 5 c-11 -19 -108
-108 -117 -108 -4 0 -18 13 -32 30 -15 17 -31 27 -39 23 -18 -6 -20 8 -3 25 9
9 19 5 45 -20 l33 -32 57 51 c56 49 74 59 56 31z m257 -77 c0 -11 -26 -22 -34
-14 -12 12 -5 23 14 23 11 0 20 -4 20 -9z m-410 -21 c0 -5 -4 -10 -10 -10 -5
0 -10 5 -10 10 0 6 5 10 10 10 6 0 10 -4 10 -10z m-400 -60 c0 -5 -4 -10 -10
-10 -5 0 -10 5 -10 10 0 6 5 10 10 10 6 0 10 -4 10 -10z m-70 -10 c0 -5 -4
-10 -10 -10 -5 0 -10 5 -10 10 0 6 5 10 10 10 6 0 10 -4 10 -10z m140 0 c0 -5
-4 -10 -10 -10 -5 0 -10 5 -10 10 0 6 5 10 10 10 6 0 10 -4 10 -10z m-170 -10
c0 -5 -5 -10 -11 -10 -5 0 -7 5 -4 10 3 6 8 10 11 10 2 0 4 -4 4 -10z m170
-20 c0 -5 -5 -10 -11 -10 -5 0 -7 5 -4 10 3 6 8 10 11 10 2 0 4 -4 4 -10z
m-284 -90 c6 0 21 -9 34 -20 14 -12 37 -20 61 -20 50 0 69 -8 69 -30 0 -35 10
-47 36 -42 13 2 24 9 24 15 0 8 3 8 11 0 15 -15 3 -33 -22 -33 -31 0 -32 -24
-5 -78 29 -57 46 -73 46 -43 0 20 12 25 48 24 9 -1 12 7 9 23 -2 14 -1 26 3
29 6 4 30 -81 30 -106 0 -17 -29 -9 -40 11 -12 23 -30 27 -30 6 0 -7 -6 -19
-13 -25 -17 -13 -32 2 -67 67 -13 23 -31 42 -40 42 -9 0 -25 10 -36 23 l-19
22 22 -18 c28 -24 37 -9 28 48 -6 41 -9 45 -40 51 -19 3 -42 3 -51 0 -15 -6
-14 -10 7 -34 23 -26 23 -26 -8 2 -18 16 -31 33 -30 39 1 6 -7 15 -18 21 -11
6 -42 36 -70 66 l-49 55 50 -47 c27 -27 54 -48 60 -48z m104 69 c0 -5 -4 -9
-10 -9 -5 0 -10 7 -10 16 0 8 5 12 10 9 6 -3 10 -10 10 -16z m150 -43 c0 -3
-4 -8 -10 -11 -5 -3 -10 -1 -10 4 0 6 5 11 10 11 6 0 10 -2 10 -4z m-20 -36
c0 -5 -2 -10 -4 -10 -3 0 -8 5 -11 10 -3 6 -1 10 4 10 6 0 11 -4 11 -10z m-10
-24 c0 -3 -4 -8 -10 -11 -5 -3 -10 -1 -10 4 0 6 5 11 10 11 6 0 10 -2 10 -4z
m-10 -36 c0 -5 -5 -10 -11 -10 -5 0 -7 5 -4 10 3 6 8 10 11 10 2 0 4 -4 4 -10z
m1255 0 c3 -5 -1 -10 -9 -10 -9 0 -16 5 -16 10 0 6 4 10 9 10 6 0 13 -4 16
-10z"/>
<path d="M5270 6757 c0 -7 6 -22 14 -33 12 -15 17 -16 27 -7 10 10 9 17 -6 33
-21 23 -35 26 -35 7z"/>
<path d="M5238 6734 c-4 -4 5 -23 21 -43 15 -20 48 -68 73 -106 37 -58 52 -73
83 -82 68 -21 72 -2 16 80 -26 40 -56 87 -67 105 -18 31 -34 42 -34 23 0 -5
-10 -13 -21 -16 -16 -5 -27 0 -43 20 -12 14 -24 23 -28 19z"/>
<path d="M6584 5973 c2 -9 8 -18 15 -19 6 -1 7 0 1 3 -5 2 -8 9 -5 13 3 5 1
11 -4 14 -5 4 -8 -2 -7 -11z"/>
<path d="M4596 5740 c11 -40 18 -50 32 -41 10 6 7 15 -13 37 -26 29 -26 29
-19 4z"/>
<path d="M4643 5655 c16 -18 18 -18 34 -2 16 16 16 17 0 17 -9 0 -17 -5 -17
-11 0 -8 -6 -7 -17 2 -17 12 -17 12 0 -6z"/>
<path d="M4610 5620 c-9 -16 -8 -20 5 -20 8 0 15 2 15 4 0 2 3 11 6 20 9 23
-13 20 -26 -4z"/>
<path d="M4718 5534 c2 -13 10 -24 18 -24 23 0 23 14 -1 32 -21 16 -22 16 -17
-8z"/>
<path d="M4582 5430 c0 -14 2 -19 5 -12 2 6 2 18 0 25 -3 6 -5 1 -5 -13z"/>
<path d="M2354 4975 c-7 -36 0 -70 13 -62 5 3 27 10 51 17 l43 11 -45 35 c-25
19 -47 34 -50 34 -3 0 -8 -16 -12 -35z"/>
<path d="M3216 4757 c16 -18 32 -36 35 -40 4 -5 19 -1 33 8 15 10 24 20 21 23
-3 3 -31 14 -62 23 l-55 18 28 -32z"/>
<path d="M3145 4760 c-3 -5 -1 -18 4 -27 9 -16 10 -14 11 10 0 28 -5 34 -15
17z"/>
<path d="M3181 4730 c0 -19 3 -43 7 -52 6 -16 9 -15 32 2 l25 19 -32 33 -33
33 1 -35z"/>
<path d="M3092 4727 c-8 -9 -5 -21 9 -45 17 -26 24 -30 40 -22 18 10 18 12 1
45 -18 37 -33 43 -50 22z"/>
<path d="M3148 4643 c-14 -16 -14 -21 8 -56 14 -21 29 -35 34 -32 17 11 11 71
-8 89 -18 15 -20 15 -34 -1z"/>
<path d="M3604 4055 c-10 -8 -14 -15 -8 -15 6 0 17 7 24 15 16 19 9 19 -16 0z"/>
<path d="M7165 4530 c-3 -5 -1 -10 4 -10 6 0 11 5 11 10 0 6 -2 10 -4 10 -3 0
-8 -4 -11 -10z"/>
<path d="M2400 4283 c0 -5 5 -15 10 -23 8 -12 10 -11 10 8 0 12 -4 22 -10 22
-5 0 -10 -3 -10 -7z"/>
<path d="M2940 3736 c0 -2 8 -10 18 -17 15 -13 16 -12 3 4 -13 16 -21 21 -21
13z"/>
<path d="M4215 2271 c-3 -5 -1 -12 5 -16 5 -3 10 1 10 9 0 18 -6 21 -15 7z"/>
<path d="M7910 4624 c-36 -24 -131 -81 -212 -126 -82 -45 -148 -86 -148 -91 0
-5 73 -115 161 -244 161 -234 202 -301 192 -316 -3 -4 12 -1 32 7 21 9 39 16
42 16 2 0 1 10 -2 22 -6 17 -4 20 9 15 15 -6 16 27 16 363 0 239 -4 371 -10
375 -6 4 -8 11 -5 16 12 18 -11 7 -75 -37z"/>
<path d="M7825 3825 c-27 -14 -43 -23 -34 -21 67 18 99 30 99 38 0 13 -11 10
-65 -17z"/>
</g>
</svg>
