<?xml version="1.0" standalone="no"?>
<!DOCTYPE svg PUBLIC "-//W3C//DTD SVG 20010904//EN"
 "http://www.w3.org/TR/2001/REC-SVG-20010904/DTD/svg10.dtd">
<svg version="1.0" xmlns="http://www.w3.org/2000/svg"
 width="800.000000pt" height="800.000000pt" viewBox="0 0 800.000000 800.000000"
 preserveAspectRatio="xMidYMid meet">
<metadata>
Created by potrace 1.16, written by Peter Selinger 2001-2019
</metadata>
<g transform="translate(0.000000,800.000000) scale(0.100000,-0.100000)"
fill="#000000" stroke="none">
<path d="M0 4000 l0 -4000 4000 0 4000 0 0 4000 0 4000 -4000 0 -4000 0 0
-4000z m4890 3652 c0 -40 -12 -36 -16 4 -2 15 -19 41 -39 60 -20 18 -34 38
-31 43 3 5 24 -9 46 -31 31 -32 40 -49 40 -76z m-1833 42 c-15 -15 -30 -24
-34 -20 -4 3 3 15 15 26 12 12 22 26 22 32 0 9 3 9 12 0 9 -9 5 -18 -15 -38z
m68 -44 c-3 -5 -10 -10 -16 -10 -5 0 -9 5 -9 10 0 6 7 10 16 10 8 0 12 -4 9
-10z m-55 -10 c0 -5 -6 -10 -14 -10 -8 0 -18 5 -21 10 -3 6 3 10 14 10 12 0
21 -4 21 -10z m30 -35 c-7 -8 -16 -12 -21 -9 -13 8 -1 24 18 24 13 0 13 -3 3
-15z m2145 -545 c3 -5 -3 -10 -14 -10 -12 0 -21 -5 -21 -11 0 -5 -4 -7 -10 -4
-15 10 -12 23 8 28 28 8 31 7 37 -3z m-1548 -1245 c0 -10 -10 -15 -26 -15 -25
1 -25 1 -7 15 25 19 33 19 33 0z m-1463 -11 c27 -10 18 -24 -13 -18 -20 4 -34
1 -47 -14 -11 -10 -43 -25 -73 -32 l-53 -13 7 -82 c6 -74 4 -88 -19 -145 -31
-77 -35 -126 -8 -115 9 4 30 11 45 16 16 4 34 13 41 18 6 5 45 18 86 29 l75
18 -3 51 c-3 35 6 84 27 159 32 111 37 122 47 111 3 -3 -8 -54 -26 -113 -26
-86 -31 -116 -26 -159 7 -63 3 -67 -79 -85 -33 -7 -80 -23 -105 -35 -48 -24
-101 -40 -162 -50 -23 -4 -38 -11 -38 -20 0 -8 -9 -19 -20 -25 -11 -6 -20 -19
-20 -30 0 -10 -4 -22 -10 -25 -5 -3 -10 -9 -10 -13 0 -15 62 -30 95 -25 21 3
35 1 35 -4 0 -15 -69 -24 -91 -13 -26 14 -27 14 -25 -28 1 -47 -26 -78 -63
-73 -25 3 -171 78 -171 87 0 10 40 83 48 88 13 8 35 -11 29 -26 -3 -8 4 -20
15 -27 11 -7 17 -18 15 -25 -3 -8 12 -21 39 -34 l44 -22 -6 25 c-4 15 -1 32 7
41 8 9 14 22 15 28 3 39 19 78 35 87 11 5 19 19 19 29 0 13 7 20 19 20 10 0
32 5 50 11 25 9 31 16 31 40 0 16 11 57 25 91 26 64 30 103 17 153 -10 36 -2
75 18 87 27 15 75 31 88 29 6 -1 12 5 12 13 0 20 51 33 84 20z m76 -14 c8 -5
12 -12 9 -15 -8 -8 -39 5 -39 16 0 11 11 11 30 -1z m-1045 -131 c4 -6 5 -12 2
-15 -7 -7 -37 7 -37 17 0 13 27 11 35 -2z m1645 1 c0 -5 -7 -10 -15 -10 -8 0
-15 5 -15 10 0 6 7 10 15 10 8 0 15 -4 15 -10z m2098 -176 c2 -32 32 -73 53
-74 9 0 27 -8 39 -18 18 -15 24 -35 33 -103 10 -78 9 -88 -9 -111 -29 -39 -72
-65 -144 -87 -95 -30 -110 -43 -110 -97 0 -24 -4 -44 -10 -44 -5 0 -10 20 -10
45 0 61 27 85 129 116 146 44 164 79 126 246 -3 13 -17 26 -39 33 -18 6 -40
18 -49 28 -18 20 -34 92 -20 92 5 0 10 -11 11 -26z m-848 -24 c0 -5 7 -10 15
-10 19 0 19 -15 0 -44 -12 -18 -22 -22 -43 -18 -22 4 -25 3 -17 -9 14 -19 13
-51 -2 -56 -7 -3 -15 7 -19 21 -3 14 -10 26 -14 26 -5 0 -3 11 3 24 7 13 15
22 19 19 5 -2 16 9 26 26 17 31 32 40 32 21z m-1910 -188 c0 -13 -81 -63 -113
-69 -18 -4 -32 -1 -37 7 -6 9 -13 9 -28 1 -26 -14 -72 -14 -72 -1 0 6 13 10
28 10 16 0 37 6 48 14 17 13 21 12 37 -2 17 -15 22 -14 75 16 65 36 62 35 62
24z m2155 -91 c3 -5 1 -12 -5 -16 -5 -3 -10 1 -10 9 0 18 6 21 15 7z m398
-241 c-13 -12 -103 -21 -103 -10 0 5 17 12 38 15 20 4 42 8 47 9 15 5 28 -5
18 -14z m-123 -19 c0 -11 -25 -21 -51 -21 -24 0 -25 17 -1 23 30 8 52 7 52 -2z
m-94 -20 c-7 -11 -56 -21 -56 -11 0 13 13 20 37 20 13 0 22 -4 19 -9z m-357
-108 c5 -21 15 -72 22 -114 l12 -75 36 -1 c19 -1 37 -6 39 -12 3 -8 47 -9 153
-5 119 6 149 4 149 -6 0 -13 -28 -39 -44 -40 -4 0 -5 7 -2 16 6 15 -7 16 -133
12 -112 -4 -141 -3 -145 8 -3 8 -15 14 -26 14 -19 0 -20 -4 -15 -37 4 -21 9
-46 12 -55 2 -10 0 -18 -6 -18 -12 0 -13 1 -46 175 -14 72 -27 140 -30 153 -9
38 14 24 24 -15z m-76 -35 c8 -28 -4 -47 -14 -22 -11 27 -11 44 0 44 5 0 11
-10 14 -22z m421 -252 c-3 -9 -10 -16 -15 -16 -6 0 -5 9 1 21 13 24 24 20 14
-5z m-462 -27 c-3 -25 -18 -46 -27 -37 -3 2 -2 19 1 37 8 36 30 36 26 0z m438
-8 c0 -17 -12 -41 -21 -41 -4 0 -6 7 -3 15 4 8 1 15 -5 15 -6 0 -11 5 -11 10
0 6 9 10 20 10 11 0 20 -4 20 -9z m-330 -31 c0 -5 -4 -10 -10 -10 -5 0 -10 5
-10 10 0 6 5 10 10 10 6 0 10 -4 10 -10z m-100 -779 c0 -9 -29 -25 -41 -23 -8
1 -20 -128 -13 -139 12 -20 35 -7 41 21 3 17 12 30 19 30 11 0 11 -6 3 -27
-15 -40 -29 -53 -55 -53 -26 0 -27 3 -24 115 1 55 13 80 31 69 4 -2 10 0 14 6
8 12 25 13 25 1z m-910 -371 c0 -5 -4 -10 -10 -10 -5 0 -10 5 -10 10 0 6 5 10
10 10 6 0 10 -4 10 -10z m-2577 -147 c-7 -2 -19 -2 -25 0 -7 3 -2 5 12 5 14 0
19 -2 13 -5z m470 -20 c-13 -2 -35 -2 -50 0 -16 2 -5 4 22 4 28 0 40 -2 28 -4z
m255 -460 c-10 -2 -26 -2 -35 0 -10 3 -2 5 17 5 19 0 27 -2 18 -5z m2399 -575
c-3 -8 -6 -5 -6 6 -1 11 2 17 5 13 3 -3 4 -12 1 -19z m465 -455 c2 -50 0 -89
-4 -86 -5 2 -7 64 -6 136 2 134 6 116 10 -50z m-555 -390 c-3 -10 -5 -4 -5 12
0 17 2 24 5 18 2 -7 2 -21 0 -30z"/>
<path d="M1665 5199 c-4 -11 -5 -22 -3 -24 14 -12 132 -65 140 -63 5 2 -15 14
-45 26 -41 17 -54 27 -51 40 3 10 -4 22 -15 29 -17 11 -21 10 -26 -8z"/>
<path d="M1830 5173 c0 -4 5 -15 10 -23 8 -13 10 -13 10 2 0 9 -4 20 -10 23
-5 3 -10 3 -10 -2z"/>
<path d="M4145 5420 c-3 -5 -2 -10 4 -10 5 0 13 5 16 10 3 6 2 10 -4 10 -5 0
-13 -4 -16 -10z"/>
</g>
</svg>
