<?xml version="1.0" standalone="no"?>
<!DOCTYPE svg PUBLIC "-//W3C//DTD SVG 20010904//EN"
 "http://www.w3.org/TR/2001/REC-SVG-20010904/DTD/svg10.dtd">
<svg version="1.0" xmlns="http://www.w3.org/2000/svg"
 width="800.000000pt" height="800.000000pt" viewBox="0 0 800.000000 800.000000"
 preserveAspectRatio="xMidYMid meet">
<metadata>
Created by potrace 1.16, written by Peter Selinger 2001-2019
</metadata>
<g transform="translate(0.000000,800.000000) scale(0.100000,-0.100000)"
fill="#000000" stroke="none">
<path d="M1 7919 l3 -82 51 -51 c44 -45 59 -72 119 -216 90 -216 94 -224 119
-236 12 -5 21 -16 19 -25 -1 -9 10 -22 25 -29 16 -8 64 -35 108 -61 104 -62
153 -66 308 -24 148 40 166 56 205 182 17 54 41 136 52 183 62 245 111 339
215 408 l48 32 -637 0 -637 0 2 -81z m54 -90 c12 -19 -5 -23 -22 -6 -16 16
-16 17 -1 17 9 0 20 -5 23 -11z m55 -9 c0 -5 -9 -10 -21 -10 -11 0 -17 5 -14
10 3 6 13 10 21 10 8 0 14 -4 14 -10z m36 -58 c-9 -8 -26 10 -26 26 1 15 2 15
15 -2 8 -11 13 -21 11 -24z m14 -43 c0 -11 -4 -17 -10 -14 -5 3 -10 13 -10 21
0 8 5 14 10 14 6 0 10 -9 10 -21z m10 -49 c0 -5 -2 -10 -4 -10 -3 0 -8 5 -11
10 -3 6 -1 10 4 10 6 0 11 -4 11 -10z m180 -381 c0 -6 -4 -7 -10 -4 -5 3 -10
11 -10 16 0 6 5 7 10 4 6 -3 10 -11 10 -16z"/>
<path d="M1303 7970 c-66 -33 -141 -107 -174 -171 -18 -36 -109 -352 -109
-379 0 -7 -14 -49 -31 -92 -42 -105 -70 -126 -226 -172 -132 -40 -174 -43
-247 -21 -69 21 -222 111 -252 148 -14 18 -42 71 -62 119 -21 48 -43 93 -50
100 -7 7 -12 20 -12 29 0 9 -7 20 -16 23 -10 4 -14 14 -11 26 3 12 0 20 -8 20
-7 0 -16 7 -19 16 -9 23 -7 36 3 29 22 -13 -25 77 -55 106 l-34 33 0 -2257 c0
-2143 1 -2257 18 -2258 14 0 14 -2 -3 -9 -21 -9 73 -6 415 11 107 5 319 12
470 15 261 6 279 5 359 -15 46 -12 90 -20 98 -17 8 3 12 2 9 -3 -3 -5 10 -12
29 -15 19 -4 35 -11 35 -16 0 -15 -17 -12 -125 18 -94 25 -112 27 -295 27
-107 -1 -278 -4 -380 -8 -102 -4 -252 -9 -335 -12 -82 -3 -183 -8 -222 -11
l-73 -6 0 -1614 0 -1614 771 0 c425 0 770 2 768 4 -12 11 -594 166 -606 162
-8 -3 -12 -2 -9 3 6 9 -96 41 -130 41 -10 0 -48 -9 -82 -20 -73 -23 -82 -24
-82 -10 0 6 8 10 18 10 10 0 46 9 79 21 74 24 48 30 558 -115 l339 -96 2613 0
c2477 0 2613 1 2623 17 8 13 13 14 16 6 9 -22 22 -14 17 10 -5 21 -4 20 20 -5
l24 -28 532 0 531 0 0 816 c0 730 -2 815 -15 804 -9 -7 -18 -10 -21 -7 -3 3 3
12 15 19 21 13 21 19 21 299 l0 286 -31 72 c-18 39 -38 71 -45 71 -8 0 -14 8
-15 18 -1 29 -65 73 -349 242 -316 187 -283 166 -279 179 4 12 575 -325 625
-368 20 -18 42 -28 60 -27 l29 1 3 1278 c2 1215 1 1277 -15 1268 -10 -6 -34
-17 -53 -26 -69 -31 -105 -81 -171 -235 -26 -62 -32 -89 -33 -155 -1 -90 -14
-57 142 -356 50 -95 82 -168 82 -186 0 -94 -82 -168 -210 -191 -48 -9 -62 -7
-120 15 -56 21 -74 24 -130 18 -36 -4 -84 -7 -107 -6 -33 1 -41 -2 -37 -13 4
-10 -6 -21 -28 -32 -18 -9 -91 -74 -163 -144 -76 -75 -151 -139 -180 -154 -27
-14 -77 -48 -111 -74 -33 -27 -113 -81 -176 -121 -91 -56 -130 -74 -179 -84
-65 -12 -187 -78 -288 -154 -24 -18 -49 -33 -55 -33 -20 1 63 64 169 129 79
48 121 66 169 76 52 9 89 27 191 91 70 43 148 97 173 120 26 22 75 55 109 73
44 24 94 66 169 143 59 60 125 121 146 135 28 19 38 32 36 47 -3 17 1 20 22
16 32 -5 72 -4 140 5 46 6 67 3 129 -20 68 -25 79 -26 125 -16 117 27 184 88
186 169 0 32 -93 233 -111 240 -5 2 -9 10 -9 17 0 8 -16 41 -36 75 -81 138
-89 220 -38 358 59 157 123 243 202 270 57 19 84 65 45 75 -17 4 -17 5 0 6 16
1 17 31 17 486 0 422 -2 486 -15 491 -8 4 -15 11 -15 16 0 6 7 8 15 4 13 -4
15 10 15 92 0 57 -5 103 -11 109 -8 8 -8 13 0 17 7 5 11 75 11 210 l0 204 -78
21 c-43 12 -93 21 -110 21 -18 0 -32 5 -32 10 0 16 59 12 138 -10 39 -11 74
-20 77 -20 3 0 5 297 5 660 l0 660 -740 0 c-553 -1 -740 -4 -740 -12 0 -9 -3
-9 -12 0 -9 9 -467 12 -2003 12 l-1990 0 99 -45 c120 -55 147 -62 254 -69 79
-5 83 -4 77 15 -9 28 10 23 24 -7 8 -19 17 -25 31 -21 11 3 20 2 20 -2 0 -4
20 -22 44 -39 86 -62 108 -166 62 -292 -82 -225 -104 -279 -163 -405 l-67
-140 0 -100 c-1 -93 1 -104 27 -147 34 -56 115 -149 127 -145 11 3 117 -136
125 -165 4 -13 18 -40 32 -60 23 -35 24 -38 9 -60 -13 -18 -15 -36 -10 -82 5
-43 4 -57 -5 -52 -21 13 -12 -33 25 -122 36 -88 87 -299 74 -307 -4 -3 -17 46
-30 108 -12 61 -38 150 -57 197 -27 65 -39 112 -49 203 -17 144 -48 210 -143
305 -44 44 -130 150 -144 177 -8 17 -21 58 -28 92 -19 93 -3 162 75 318 63
126 152 350 178 448 10 38 10 56 0 95 -15 55 -77 126 -104 119 -10 -3 -23 2
-30 10 -6 8 -22 13 -35 10 -12 -2 -69 4 -125 13 -83 14 -130 30 -243 81 l-140
64 -530 3 -531 3 -61 -31z m3963 5 c16 -12 16 -14 3 -15 -9 0 -22 7 -29 15
-16 19 0 19 26 0z m1293 -31 c3 -16 1 -17 -13 -5 -19 16 -21 34 -3 29 6 -3 14
-13 16 -24z m-1239 6 c8 -5 12 -12 9 -15 -8 -8 -39 5 -39 16 0 11 11 11 30 -1z
m50 -30 c8 -5 11 -12 7 -16 -4 -4 -15 0 -24 9 -18 18 -8 23 17 7z m1229 -3 c6
-8 8 -17 4 -20 -7 -8 -33 11 -33 24 0 13 16 11 29 -4z m-4835 -28 c-5 -9 -44
11 -44 23 0 4 11 3 25 -4 13 -6 22 -15 19 -19z m3675 -3 c9 -11 6 -12 -14 -8
-14 2 -25 8 -25 13 0 14 26 11 39 -5z m-3619 -6 c0 -5 -9 -10 -20 -10 -11 0
-20 5 -20 10 0 6 9 10 20 10 11 0 20 -4 20 -10z m4827 -26 c-9 -10 -38 16 -31
28 4 6 13 4 22 -6 9 -8 13 -19 9 -22z m-4777 16 c12 -8 11 -10 -7 -10 -13 0
-23 5 -23 10 0 13 11 13 30 0z m5215 0 c-3 -5 -15 -10 -26 -10 -11 0 -17 5
-14 10 3 6 15 10 26 10 11 0 17 -4 14 -10z m50 -11 c-3 -4 -12 -6 -20 -3 -8 4
-13 10 -10 15 3 4 12 6 20 3 8 -4 13 -10 10 -15z m-5190 -3 c17 -17 7 -30 -12
-15 -13 12 -18 29 -7 29 3 0 12 -6 19 -14z m1541 -23 c-4 -4 -11 -1 -16 7 -16
25 -11 35 7 17 9 -9 13 -20 9 -24z m3539 17 c-3 -5 -13 -10 -21 -10 -8 0 -12
5 -9 10 3 6 13 10 21 10 8 0 12 -4 9 -10z m-5170 -10 c-3 -5 -13 -10 -21 -10
-8 0 -12 5 -9 10 3 6 13 10 21 10 8 0 12 -4 9 -10z m4833 -18 c6 -18 -15 -14
-22 4 -4 10 -1 14 6 12 6 -2 14 -10 16 -16z m277 -1 c-3 -6 -14 -11 -23 -11
-15 1 -15 2 2 15 21 16 32 13 21 -4z m143 7 c-2 -6 -10 -14 -16 -16 -7 -2 -10
2 -6 12 7 18 28 22 22 4z m-5313 -24 c-23 -17 -32 -10 -15 11 7 8 17 12 23 8
6 -4 3 -11 -8 -19z m200 15 c11 -17 -1 -21 -15 -4 -8 9 -8 15 -2 15 6 0 14 -5
17 -11z m1515 -35 c0 -8 -4 -14 -10 -14 -5 0 -10 9 -10 21 0 11 5 17 10 14 6
-3 10 -13 10 -21z m1770 17 c0 -5 -9 -11 -20 -14 -20 -5 -26 3 -13 16 9 10 33
8 33 -2z m1629 -22 c-19 -12 -24 -2 -8 17 9 11 14 13 17 4 3 -7 -2 -16 -9 -21z
m158 -4 c-4 -8 -11 -15 -17 -15 -7 0 -7 6 0 21 13 23 26 19 17 -6z m-5320 -2
c-9 -9 -20 -13 -24 -9 -4 4 -1 11 7 16 25 16 35 11 17 -7z m3460 -10 c-15 -16
-17 -16 -17 -1 0 9 6 18 13 21 20 7 22 -2 4 -20z m1518 16 c12 -19 -5 -23 -22
-6 -16 16 -16 17 -1 17 9 0 20 -5 23 -11z m-4724 -32 c-8 -8 -11 -7 -11 4 0
20 13 34 18 19 3 -7 -1 -17 -7 -23z m-293 1 c-3 -7 -13 -15 -24 -17 -16 -3
-17 -1 -5 13 16 19 34 21 29 4z m657 -8 c10 -11 14 -20 8 -20 -5 0 -18 9 -28
20 -10 11 -14 20 -8 20 5 0 18 -9 28 -20z m4505 5 c-7 -8 -17 -15 -22 -15 -6
0 -5 7 2 15 7 8 17 15 22 15 6 0 5 -7 -2 -15z m-3370 -15 c0 -11 -4 -20 -10
-20 -5 0 -10 9 -10 20 0 11 5 20 10 20 6 0 10 -9 10 -20z m1680 11 c0 -5 -7
-12 -16 -15 -24 -9 -28 -7 -14 9 14 17 30 20 30 6z m1585 -2 c12 -19 -5 -23
-22 -6 -16 16 -16 17 -1 17 9 0 20 -5 23 -11z m272 -14 c-4 -8 -11 -15 -17
-15 -7 0 -7 6 0 21 13 23 26 19 17 -6z m-5051 -32 c-11 -11 -19 6 -11 24 8 17
8 17 12 0 3 -10 2 -21 -1 -24z m4844 30 c-1 -19 -19 -35 -34 -30 -21 8 -20 24
2 30 28 7 32 7 32 0z m-5183 -20 c-9 -9 -20 -13 -24 -9 -4 4 -1 11 7 16 25 16
35 11 17 -7z m3470 -20 c-15 -16 -17 -16 -17 -1 0 9 6 18 13 21 20 7 22 -2 4
-20z m-3507 -3 c0 -5 -9 -14 -20 -20 -22 -12 -27 -1 -8 18 14 14 28 16 28 2z
m1890 -4 c0 -8 -4 -18 -10 -21 -5 -3 -10 3 -10 14 0 12 5 21 10 21 6 0 10 -6
10 -14z m3375 4 c3 -5 -3 -10 -14 -10 -12 0 -21 5 -21 10 0 6 6 10 14 10 8 0
18 -4 21 -10z m135 -10 c0 -11 -4 -20 -10 -20 -5 0 -10 9 -10 20 0 11 5 20 10
20 6 0 10 -9 10 -20z m-5031 -7 c0 -5 -4 -17 -9 -28 -8 -18 -9 -17 -9 8 -1 15
4 27 9 27 6 0 10 -3 9 -7z m4941 -8 c14 -16 10 -18 -14 -9 -9 3 -16 10 -16 15
0 14 16 11 30 -6z m-3430 -45 c0 -11 -4 -20 -10 -20 -5 0 -10 9 -10 20 0 11 5
20 10 20 6 0 10 -9 10 -20z m3510 4 c0 -7 7 -14 15 -18 8 -3 15 -10 15 -16 0
-11 -40 7 -75 34 -19 14 -19 15 12 13 18 -1 33 -7 33 -13z m-5420 -9 c20 -24
6 -28 -15 -5 -10 11 -13 20 -8 20 6 0 16 -7 23 -15z m45 -46 c11 -17 -1 -21
-15 -4 -8 9 -8 15 -2 15 6 0 14 -5 17 -11z m1852 -21 c-3 -7 -5 -2 -5 12 0 14
2 19 5 13 2 -7 2 -19 0 -25z m3577 6 c9 -24 7 -28 -9 -14 -17 14 -20 30 -6 30
5 0 12 -7 15 -16z m-5384 -29 c7 -8 8 -15 2 -15 -5 0 -15 7 -22 15 -7 8 -8 15
-2 15 5 0 15 -7 22 -15z m1813 -25 c-3 -11 -9 -17 -14 -15 -10 7 -1 35 11 35
5 0 6 -9 3 -20z m3615 2 c6 -18 -15 -14 -22 4 -4 10 -1 14 6 12 6 -2 14 -10
16 -16z m-5388 -17 c7 -8 8 -15 2 -15 -5 0 -15 7 -22 15 -7 8 -8 15 -2 15 5 0
15 -7 22 -15z m5426 -43 c-9 -8 -26 10 -26 26 1 15 2 15 15 -2 8 -11 13 -21
11 -24z m-3675 -15 c-8 -8 -11 -5 -11 9 0 27 14 41 18 19 2 -9 -1 -22 -7 -28z
m-1701 18 c14 -16 10 -18 -14 -9 -9 3 -16 10 -16 15 0 14 16 11 30 -6z m50
-25 c8 -5 12 -12 9 -15 -8 -8 -39 5 -39 16 0 11 11 11 30 -1z m5354 -6 c9 -24
7 -28 -9 -14 -17 14 -20 30 -6 30 5 0 12 -7 15 -16z m-5287 -31 c-9 -8 -48 8
-42 18 4 5 14 5 26 -2 12 -6 18 -13 16 -16z m1607 11 c9 -22 -3 -32 -14 -14
-12 19 -12 30 -1 30 5 0 12 -7 15 -16z m-130 -10 c17 -6 22 -24 8 -24 -5 0
-17 7 -28 15 -19 15 -8 20 20 9z m3854 -40 c-10 -10 -28 6 -28 24 0 15 1 15
17 -1 9 -9 14 -19 11 -23z m-3798 6 c8 -5 11 -12 7 -16 -4 -4 -15 0 -24 9 -18
18 -8 23 17 7z m100 -20 c0 -10 6 -20 13 -23 6 -2 9 -7 6 -11 -13 -14 -36 7
-37 35 0 16 4 27 9 24 5 -4 9 -15 9 -25z m-40 -10 c0 -5 -6 -10 -14 -10 -8 0
-18 5 -21 10 -3 6 3 10 14 10 12 0 21 -4 21 -10z m3764 -6 c9 -24 7 -28 -9
-14 -17 14 -20 30 -6 30 5 0 12 -7 15 -16z m33 -49 c9 -25 -4 -29 -17 -6 -7
15 -7 21 0 21 6 0 13 -7 17 -15z m-3540 -17 c-3 -8 -6 -5 -6 6 -1 11 2 17 5
13 3 -3 4 -12 1 -19z m-1917 -17 c0 -12 -20 -25 -27 -18 -7 7 6 27 18 27 5 0
9 -4 9 -9z m5486 -39 c-9 -8 -26 10 -26 26 1 15 2 15 15 -2 8 -11 13 -21 11
-24z m-5516 1 c0 -14 -19 -38 -25 -32 -8 8 5 39 16 39 5 0 9 -3 9 -7z m3100
-11 c0 -4 -20 -32 -45 -62 -25 -30 -51 -67 -58 -82 -6 -16 -15 -28 -19 -28 -4
0 -40 -43 -80 -96 -40 -53 -74 -92 -76 -86 -2 6 18 38 43 71 26 35 43 66 39
72 -4 7 -3 9 3 6 14 -9 76 70 67 85 -4 6 -3 8 4 5 9 -6 26 14 97 110 11 14 25
18 25 5z m2430 -32 c0 -11 -4 -20 -10 -20 -5 0 -10 9 -10 20 0 11 5 20 10 20
6 0 10 -9 10 -20z m680 6 c0 -2 -8 -10 -17 -17 -16 -13 -17 -12 -4 4 13 16 21
21 21 13z m-6240 -15 c0 -5 -7 -14 -15 -21 -12 -10 -15 -10 -15 2 0 8 3 18 7
21 9 10 23 9 23 -2z m5584 -62 c-8 -13 -24 -1 -24 18 0 13 3 13 15 3 8 -7 12
-16 9 -21z m-5633 -12 c-16 -16 -26 0 -10 19 9 11 15 12 17 4 2 -6 -1 -17 -7
-23z m4689 13 c7 -13 7 -20 1 -20 -6 0 -15 9 -21 20 -7 13 -7 20 -1 20 6 0 15
-9 21 -20z m978 -39 c3 -8 -1 -12 -9 -9 -7 2 -15 10 -17 17 -3 8 1 12 9 9 7
-2 15 -10 17 -17z m-5688 2 c0 -14 -19 -38 -25 -32 -8 8 5 39 16 39 5 0 9 -3
9 -7z m4748 -21 c6 -18 -15 -14 -22 4 -4 10 -1 14 6 12 6 -2 14 -10 16 -16z
m972 -27 c7 -8 8 -15 2 -15 -5 0 -15 7 -22 15 -7 8 -8 15 -2 15 5 0 15 -7 22
-15z m-5750 -4 c0 -5 -7 -14 -15 -21 -12 -10 -15 -10 -15 2 0 8 3 18 7 21 9
10 23 9 23 -2z m4814 -17 c4 -10 1 -14 -6 -12 -15 5 -23 28 -10 28 5 0 13 -7
16 -16z m-4846 -46 c-2 -6 -10 -14 -16 -16 -7 -2 -10 2 -6 12 7 18 28 22 22 4z
m1833 2 c5 0 9 -4 9 -9 0 -4 -11 -6 -25 -3 -14 2 -25 9 -25 14 0 6 7 7 16 4 9
-3 20 -6 25 -6z m3039 -12 c0 -19 -2 -20 -10 -8 -13 19 -13 30 0 30 6 0 10
-10 10 -22z m-2970 -4 c0 -2 -9 -4 -20 -4 -11 0 -20 4 -20 9 0 5 9 7 20 4 11
-3 20 -7 20 -9z m45 -42 c-8 -9 -35 20 -28 31 4 6 11 3 19 -8 8 -10 12 -21 9
-23z m-1965 -7 c0 -14 -4 -25 -10 -25 -11 0 -14 33 -3 43 11 11 13 8 13 -18z
m4914 9 c9 -22 -3 -32 -14 -14 -12 19 -12 30 -1 30 5 0 12 -7 15 -16z m-2915
-40 c3 -16 1 -17 -13 -5 -19 16 -21 34 -3 29 6 -3 14 -13 16 -24z m2934 -24
c3 -11 1 -20 -4 -20 -5 0 -9 2 -9 4 0 2 -3 11 -6 20 -3 9 -2 16 4 16 5 0 12
-9 15 -20z m-2895 -19 c3 -8 -1 -12 -9 -9 -7 2 -15 10 -17 17 -3 8 1 12 9 9 7
-2 15 -10 17 -17z m2917 -49 c-8 -9 -25 20 -18 31 3 5 10 2 15 -7 6 -10 7 -20
3 -24z m-2875 13 c20 -24 6 -28 -15 -5 -10 11 -13 20 -8 20 6 0 16 -7 23 -15z
m2870 -55 c0 -11 -4 -20 -10 -20 -5 0 -10 9 -10 20 0 11 5 20 10 20 6 0 10 -9
10 -20z m-5000 -19 c0 -13 -28 -22 -35 -11 -3 4 1 11 7 13 20 8 28 8 28 -2z
m60 0 c0 -5 -9 -7 -20 -4 -11 3 -20 7 -20 9 0 2 9 4 20 4 11 0 20 -4 20 -9z
m60 -1 c0 -5 -9 -10 -20 -10 -11 0 -20 5 -20 10 0 6 9 10 20 10 11 0 20 -4 20
-10z m-180 -30 c-19 -13 -30 -13 -30 0 0 6 10 10 23 10 18 0 19 -2 7 -10z
m-50 -20 c0 -5 -10 -10 -22 -10 -19 0 -20 2 -8 10 19 13 30 13 30 0z m-50 -19
c0 -11 -31 -24 -39 -16 -3 3 1 10 9 15 19 12 30 12 30 1z m2087 -38 c-3 -10
-5 -4 -5 12 0 17 2 24 5 18 2 -7 2 -21 0 -30z m-2152 8 c-3 -6 -14 -11 -23
-11 -15 1 -15 2 2 15 21 16 32 13 21 -4z m-50 -21 c-3 -5 -13 -10 -21 -10 -8
0 -12 5 -9 10 3 6 13 10 21 10 8 0 12 -4 9 -10z m-55 -20 c0 -5 -10 -10 -22
-10 -19 0 -20 2 -8 10 19 13 30 13 30 0z m2274 -6 c12 -5 13 -9 3 -25 -16 -26
-27 -24 -27 6 0 27 1 28 24 19z m75 -8 c9 -11 6 -12 -14 -8 -14 2 -28 8 -31
13 -9 15 33 10 45 -5z m-2415 -17 c-31 -12 -40 -9 -20 6 10 8 24 11 29 8 6 -4
2 -10 -9 -14z m2346 -60 c0 -5 -4 -9 -10 -9 -5 0 -10 7 -10 16 0 8 5 12 10 9
6 -3 10 -10 10 -16z m1921 -147 c-6 -11 -38 -36 -71 -56 -67 -40 -70 -41 -70
-26 0 5 25 24 56 41 30 17 63 43 72 57 18 27 29 14 13 -16z m-3765 -19 c-8 -9
-46 18 -40 28 4 6 13 4 25 -7 11 -9 17 -19 15 -21z m3464 7 c0 -27 18 -34 40
-15 29 26 33 0 3 -29 -28 -28 -45 -34 -40 -13 1 7 -6 11 -17 9 -10 -2 -15 1
-12 6 3 5 -1 18 -9 28 -19 25 -18 32 3 37 24 5 32 -1 32 -23z m-3434 -58 c-9
-8 -26 10 -26 26 1 15 2 15 15 -2 8 -11 13 -21 11 -24z m1144 -2 c0 -5 -4 -10
-10 -10 -5 0 -10 5 -10 10 0 6 5 10 10 10 6 0 10 -4 10 -10z m-30 -19 c0 -5
-7 -12 -16 -15 -24 -9 -28 -7 -14 9 14 17 30 20 30 6z m5170 -6 c-7 -8 -17
-15 -22 -15 -6 0 -5 7 2 15 7 8 17 15 22 15 6 0 5 -7 -2 -15z m-6282 -12 c-2
-9 -8 -18 -15 -20 -7 -3 -9 3 -6 16 6 25 26 28 21 4z m3582 7 c0 -5 -4 -10 -8
-10 -5 0 -37 -25 -72 -55 -76 -66 -102 -63 -29 3 70 63 109 86 109 62z m-2526
-44 c-6 -16 -24 -23 -24 -8 0 10 22 33 27 28 2 -2 1 -11 -3 -20z m561 -231
c16 -64 19 -92 9 -82 -3 3 -12 36 -20 72 -8 36 -30 104 -49 151 -19 46 -35 92
-35 102 1 25 78 -173 95 -243z m4623 235 c-10 -15 -10 -22 0 -32 16 -16 15
-31 -2 -25 -9 4 -17 -1 -19 -11 -3 -9 -5 1 -6 24 0 22 4 45 11 52 19 19 29 14
16 -8z m42 -85 c7 -8 8 -15 2 -15 -5 0 -15 7 -22 15 -7 8 -8 15 -2 15 5 0 15
-7 22 -15z m-76 -29 c-10 -8 -23 -12 -28 -9 -5 3 2 12 15 19 30 16 39 9 13
-10z m-7421 -32 c48 -3 87 -10 87 -15 0 -9 -114 -6 -268 7 -86 8 -68 25 21 19
40 -3 111 -8 160 -11z m929 -8 c4 -6 13 -11 20 -11 13 0 14 -19 4 -60 -2 -11
-5 -22 -5 -25 -1 -3 -10 -6 -21 -7 -13 -1 -20 4 -20 15 -1 16 -1 16 -11 0 -5
-10 -15 -18 -20 -18 -6 0 -8 4 -4 9 3 5 1 12 -5 16 -10 6 -4 46 11 76 9 18 41
21 51 5z m4228 -2 c0 -11 5 -14 18 -9 9 3 29 9 45 12 41 8 33 -14 -10 -28 -21
-6 -47 -17 -58 -23 -11 -6 -33 -16 -50 -22 -16 -6 -151 -66 -299 -133 -240
-108 -301 -131 -270 -102 5 5 79 39 164 76 236 103 420 194 420 208 0 14 20
37 32 37 4 0 8 -7 8 -16z m455 1 c144 -8 306 -26 347 -41 57 -20 346 -181 395
-220 40 -33 93 -121 93 -156 0 -33 -19 -18 -32 25 -20 68 -103 141 -254 224
-232 127 -185 113 -449 133 -82 6 -180 16 -217 21 -37 6 -103 10 -145 9 -96
-3 -96 -3 -87 11 5 9 44 10 138 5 72 -4 167 -9 211 -11z m-1970 -95 c3 -5 0
-10 -8 -10 -8 0 -29 -3 -46 -6 -19 -4 -31 -2 -31 4 0 18 75 28 85 12z m-798
-112 c-3 -8 -6 -5 -6 6 -1 11 2 17 5 13 3 -3 4 -12 1 -19z m43 -162 c12 -71
20 -144 17 -161 -3 -18 -35 -74 -72 -125 -37 -51 -60 -90 -52 -87 17 6 54 -29
43 -41 -4 -4 -13 1 -20 10 -22 30 -66 -9 -131 -117 l-59 -98 1 -136 c1 -141
-11 -233 -47 -353 -22 -73 -25 -138 -9 -243 8 -59 37 -171 56 -221 3 -8 1 -14
-5 -14 -6 0 -20 34 -33 75 -12 42 -24 73 -26 71 -6 -6 40 -155 78 -256 38
-100 74 -134 129 -125 23 4 52 1 76 -9 21 -8 64 -17 94 -21 65 -7 205 -51 240
-75 42 -29 186 -90 211 -90 16 0 20 3 11 8 -7 5 -14 23 -17 40 -3 28 -1 32 20
32 17 0 29 -9 40 -31 9 -17 15 -35 12 -42 -2 -6 16 -28 40 -49 44 -38 45 -38
134 -38 78 0 107 -8 82 -23 -10 -6 -200 9 -235 18 -27 7 -28 6 -26 -33 1 -25
7 -43 15 -46 8 -4 11 -1 7 5 -4 7 1 10 11 7 10 -1 20 -9 23 -17 3 -10 0 -11
-9 -5 -8 4 19 -23 59 -60 40 -38 70 -71 67 -74 -3 -3 -29 17 -58 44 -66 64
-121 99 -172 109 -22 4 -101 9 -175 10 -96 2 -152 8 -195 21 -33 10 -78 18
-100 17 -54 0 -133 -42 -192 -101 -58 -58 -101 -88 -111 -77 -4 4 -1 10 7 13
7 2 45 33 84 69 118 109 185 133 287 104 79 -23 184 -36 158 -21 -10 6 -18 16
-18 22 0 7 4 7 14 -1 8 -6 63 -12 134 -14 98 -2 123 1 127 12 3 8 -1 21 -9 29
-8 8 -160 65 -338 127 l-323 113 -83 -30 c-75 -27 -87 -29 -125 -19 -31 9 -50
9 -70 2 -16 -6 -35 -11 -43 -11 -28 0 -5 17 40 30 35 9 52 10 81 0 31 -10 43
-9 93 11 74 29 78 33 49 52 -13 9 -34 41 -47 74 -13 32 -31 77 -42 100 -10 23
-18 48 -18 55 0 7 -9 41 -20 76 -11 34 -24 121 -30 195 -9 112 -9 140 5 187
22 78 42 184 50 263 6 50 11 67 22 67 11 0 14 6 9 23 -3 12 -6 42 -7 67 l-2
45 -7 -45 -6 -45 -8 39 c-14 62 11 140 72 230 30 44 56 86 59 93 10 26 -22 3
-47 -34 -13 -20 -39 -42 -57 -49 -17 -8 -34 -18 -38 -24 -13 -22 -23 -8 -18
25 4 24 0 43 -12 62 l-18 28 27 -24 c14 -14 26 -32 26 -41 0 -30 43 -12 73 31
16 22 46 48 67 59 38 20 92 85 130 160 21 42 22 44 6 166 -9 68 -16 129 -16
136 0 23 20 -15 20 -39 0 -12 4 -24 9 -27 5 -4 5 11 0 35 -8 34 -4 68 6 57 1
-2 13 -61 25 -132z m-1000 43 c21 -12 48 -39 61 -63 12 -22 28 -45 34 -51 12
-10 62 -133 85 -206 17 -55 72 -99 126 -99 20 0 25 -3 17 -11 -14 -14 -59 -5
-100 20 -27 17 -71 88 -77 123 -3 23 -49 133 -61 148 -7 8 -22 34 -34 58 -31
61 -72 85 -139 78 -101 -9 -126 -50 -76 -126 33 -50 26 -88 -23 -126 -19 -14
-41 -41 -48 -59 -18 -42 -29 -50 -102 -70 -35 -10 -68 -24 -74 -31 -6 -8 -17
-14 -24 -14 -6 0 -20 -18 -30 -40 -10 -22 -28 -47 -41 -55 -27 -17 -33 -5 -8
16 8 7 24 30 35 51 11 21 30 43 43 48 13 5 27 13 30 19 4 5 31 15 61 22 57 13
95 39 95 65 0 8 20 34 45 58 25 25 45 53 45 63 0 10 -11 35 -25 55 -14 20 -25
51 -25 69 l0 31 -122 -4 c-126 -4 -174 -18 -206 -57 -11 -14 -12 -14 -10 4 2
11 20 29 41 41 32 17 62 22 177 28 76 4 158 13 182 20 63 20 105 19 148 -5z
m1630 -82 l-85 -82 -55 -220 c-30 -121 -53 -227 -52 -235 8 -37 59 -70 152
-98 52 -16 104 -34 115 -40 11 -6 37 -18 58 -26 20 -8 37 -20 37 -25 0 -15
-11 -13 -34 4 -11 8 -26 15 -35 15 -8 0 -22 6 -30 13 -9 8 -61 27 -116 43
-105 30 -148 58 -160 106 -4 14 0 61 7 104 17 102 8 151 -31 160 -83 19 -88
22 -37 23 54 1 86 -18 86 -51 0 -50 20 -5 50 113 l33 130 85 80 c47 43 88 77
91 74 3 -3 -33 -43 -79 -88z m-2210 -27 c-20 -13 -40 -13 -40 0 0 6 12 10 28
10 21 0 24 -2 12 -10z m-64 -22 c-10 -6 -20 -7 -24 -3 -9 8 20 25 31 18 5 -3
2 -10 -7 -15z m-51 -34 c-23 -17 -32 -10 -15 11 7 8 17 12 23 8 6 -4 3 -11 -8
-19z m-48 -31 c-9 -9 -20 -13 -24 -9 -4 4 -1 11 7 16 25 16 35 11 17 -7z m-51
-38 c-26 -19 -42 -19 -26 0 7 8 20 15 29 15 13 -1 13 -3 -3 -15z m790 -170
c-22 -17 -76 -20 -76 -6 0 9 25 14 80 19 11 1 10 -3 -4 -13z m557 8 c-13 -2
-35 -2 -50 0 -16 2 -5 4 22 4 28 0 40 -2 28 -4z m61 -12 c4 -5 -3 -7 -14 -4
-23 6 -26 13 -6 13 8 0 17 -4 20 -9z m1438 -218 c-7 -42 -14 -79 -17 -81 -13
-13 -13 11 -2 91 7 55 15 83 21 77 6 -6 5 -37 -2 -87z m-670 28 c-1 -19 5 -45
13 -58 9 -13 15 -29 12 -36 -2 -6 -12 3 -22 21 -11 18 -28 32 -38 32 -29 0
-57 19 -57 38 0 29 22 43 60 40 33 -3 35 -5 32 -37z m1323 -56 c105 -19 212
-39 239 -45 36 -7 52 -7 57 1 4 8 11 4 18 -10 12 -21 53 -38 80 -32 12 2 13 0
2 -13 -13 -16 -19 -15 -116 24 -41 16 -346 74 -454 86 -54 6 -224 -37 -298
-75 -77 -39 -261 -93 -232 -67 2 2 42 16 89 31 47 15 106 38 131 51 54 27 221
75 284 82 6 1 96 -14 200 -33z m972 -57 c-3 -8 -6 -5 -6 6 -1 11 2 17 5 13 3
-3 4 -12 1 -19z m-466 -46 c-9 -18 -5 -23 33 -41 73 -34 92 -36 110 -10 15 22
22 23 103 20 92 -2 153 -17 153 -36 0 -23 -13 -24 -38 -5 -19 16 -40 20 -98
20 -40 0 -85 -5 -101 -11 l-27 -10 38 -22 c53 -30 79 -68 82 -119 1 -34 -5
-50 -32 -87 -36 -47 -71 -144 -81 -223 -3 -27 -2 -48 3 -48 5 0 10 -17 11 -37
l2 -37 -23 29 c-14 18 -21 38 -19 54 19 120 52 218 94 275 16 23 29 53 29 69
0 41 -34 92 -70 107 -28 11 -33 10 -54 -9 -13 -12 -48 -29 -78 -37 l-56 -16
-12 -81 c-7 -45 -21 -95 -31 -112 -10 -16 -21 -58 -25 -92 -3 -35 -11 -63 -16
-63 -17 0 2 132 24 167 11 20 21 56 23 89 6 90 18 110 78 124 49 12 87 34 87
50 0 4 -20 13 -45 20 -25 7 -57 22 -70 32 -24 19 -24 20 -8 51 9 18 18 27 20
20 2 -7 0 -21 -6 -31z m1439 -10 c0 -5 -14 -46 -32 -93 -17 -46 -39 -104 -48
-129 -9 -25 -23 -58 -32 -75 -20 -36 -198 -214 -198 -198 0 6 42 56 93 110
l92 98 55 148 c30 81 58 147 62 147 4 0 8 -4 8 -8z m-2430 -162 c0 -19 19 -55
59 -108 83 -111 102 -154 110 -236 5 -60 9 -71 24 -68 21 4 23 -16 2 -24 -10
-4 -15 -20 -15 -44 0 -33 -7 -45 -57 -93 l-57 -55 21 -75 c16 -57 19 -86 12
-119 -4 -23 -8 -60 -9 -80 0 -21 -4 -38 -10 -38 -5 0 -10 17 -10 38 0 36 -1
37 -18 16 -9 -11 -30 -26 -45 -32 -34 -15 -37 -15 -37 -1 0 5 14 15 30 21 17
5 37 23 45 39 17 31 19 123 5 184 -10 45 5 87 46 126 29 27 32 80 9 155 -20
65 -19 84 6 110 l20 22 -20 39 c-11 22 -37 62 -58 89 -21 27 -46 61 -56 76
-18 29 -24 104 -7 93 6 -3 10 -19 10 -35z m-1750 -41 c0 -5 -7 -9 -15 -9 -10
0 -15 -11 -15 -35 0 -51 -17 -43 -22 11 -2 25 -2 47 0 48 6 7 52 -7 52 -15z
m-1352 -153 c2 -3 1 -9 -2 -15 -4 -6 -19 -6 -44 1 -20 6 -61 8 -89 5 -50 -5
-73 6 -35 17 19 5 163 -1 170 -8z m3583 -226 c47 -23 98 -40 117 -40 22 0 32
-4 29 -12 -6 -20 -53 -10 -145 29 l-83 36 -48 -22 c-50 -24 -101 -25 -109 -3
-3 10 4 12 29 7 26 -4 44 0 74 19 22 14 43 26 47 26 3 0 44 -18 89 -40z
m-1313 -3 c28 -26 28 -42 0 -61 -25 -18 -47 -9 -72 29 -32 49 24 73 72 32z
m-1598 -83 c0 -9 -9 -23 -21 -33 -20 -16 -21 -18 -5 -71 9 -29 14 -56 11 -59
-3 -3 31 -41 75 -86 l80 -81 1 -172 c0 -112 4 -172 11 -172 5 0 19 11 30 26
11 14 23 23 26 20 2 -3 -1 -12 -8 -21 -10 -12 -10 -18 1 -31 12 -15 11 -16 -8
-10 -33 10 -60 -9 -67 -47 -11 -58 -62 -123 -129 -164 -58 -35 -68 -38 -139
-38 -42 0 -80 3 -84 8 -13 13 1 17 31 9 110 -30 272 69 305 186 5 20 10 120
10 222 l0 185 -81 78 c-52 49 -79 83 -75 92 3 8 -2 34 -10 59 -16 45 -8 86 16
86 6 0 10 7 10 15 0 8 5 15 10 15 6 0 10 -7 10 -16z m3695 -56 c13 6 27 8 29
3 3 -4 -6 -13 -19 -19 l-24 -11 29 -70 c17 -38 46 -105 65 -147 20 -43 34 -82
31 -88 -2 -6 -18 21 -36 59 -17 39 -47 102 -66 142 -19 39 -34 76 -34 82 0 6
-4 11 -9 11 -5 0 -11 8 -14 18 -2 9 -8 26 -12 37 -6 17 -4 17 14 -4 19 -21 25
-22 46 -13z m1545 -85 c0 -5 16 -56 34 -115 19 -60 30 -108 25 -108 -13 0 -29
35 -51 118 -11 42 -23 85 -25 95 -3 9 0 17 6 17 6 0 11 -3 11 -7z m-1933 -295
l21 -93 -21 -35 -20 -36 22 -123 c19 -108 21 -145 7 -130 -2 2 -15 63 -28 135
l-24 131 22 28 21 27 -18 82 c-21 91 -22 106 -11 106 4 0 17 -42 29 -92z
m-3850 15 c-3 -10 -5 -2 -5 17 0 19 2 27 5 18 2 -10 2 -26 0 -35z m4398 -62
c15 -33 32 -58 36 -56 3 3 6 -3 5 -12 -2 -30 71 -63 142 -63 54 0 75 -6 151
-45 100 -50 123 -74 145 -148 22 -71 46 -100 85 -100 33 0 41 -11 15 -21 -40
-15 -105 52 -119 124 -10 53 -42 84 -132 129 -68 34 -93 41 -140 41 -61 0
-127 24 -152 53 -7 10 -20 17 -28 17 -9 0 -13 6 -10 14 3 8 0 17 -7 19 -16 6
-28 47 -15 47 5 0 0 19 -12 42 -14 27 -16 38 -8 31 8 -7 28 -39 44 -72z
m-1935 42 c-1 -25 -26 -56 -39 -48 -12 7 -15 48 -4 58 13 14 43 7 43 -10z
m-2463 -105 c-2 -18 -4 -4 -4 32 0 36 2 50 4 33 2 -18 2 -48 0 -65z m3083 70
c0 -2 7 -54 14 -117 l15 -114 -62 -93 c-34 -52 -68 -94 -75 -94 -15 0 -17 -5
56 110 l55 85 -15 105 c-8 58 -13 108 -11 113 4 6 23 10 23 5z m-3681 -142
c13 -14 35 -29 50 -36 15 -6 36 -25 46 -43 10 -18 26 -37 34 -44 9 -6 13 -15
8 -19 -8 -9 -54 32 -62 55 -3 9 -20 25 -39 35 -45 24 -96 76 -75 76 9 0 26
-11 38 -24z m5596 -26 c4 -6 -6 -10 -24 -10 -16 0 -33 5 -36 10 -4 6 6 10 24
10 16 0 33 -4 36 -10z m-2025 -70 c-27 -43 -50 -63 -50 -45 0 15 74 117 78
107 2 -7 -11 -35 -28 -62z m2091 1 c10 -24 19 -50 19 -58 0 -34 -23 -90 -42
-102 -28 -18 -36 -4 -10 19 30 28 37 78 17 127 l-16 40 -47 -5 c-26 -2 -55 -9
-64 -13 -22 -12 -38 -11 -38 1 0 15 101 38 148 35 8 -1 22 -21 33 -44z m-4411
19 c0 -5 -9 -10 -21 -10 -11 0 -17 5 -14 10 3 6 13 10 21 10 8 0 14 -4 14 -10z
m-1410 -39 c0 -17 -4 -33 -10 -36 -6 -4 -10 8 -10 29 0 20 5 36 10 36 6 0 10
-13 10 -29z m956 -33 c9 -29 34 -70 57 -95 22 -24 38 -46 35 -48 -11 -12 -97
95 -107 132 l-11 40 -88 6 c-48 3 -109 1 -135 -5 -53 -11 -74 -4 -36 11 13 5
79 10 146 10 l121 1 18 -52z m1092 -72 c-10 -7 -15 -16 -11 -20 4 -4 0 -4 -8
-1 -9 3 -50 -10 -92 -29 -42 -20 -83 -36 -92 -36 -10 0 -13 -5 -9 -12 4 -7 3
-8 -4 -4 -15 9 -313 -104 -306 -116 3 -4 -2 -5 -10 -2 -8 3 -28 -2 -46 -11
-17 -9 -39 -14 -48 -12 -11 2 1 12 33 26 79 36 383 151 398 151 7 0 18 5 25
12 15 15 142 66 167 67 19 0 19 -1 3 -13z m66 -114 c2 -4 -26 -13 -62 -20
-111 -21 -145 -38 -188 -95 -21 -29 -67 -82 -101 -119 -76 -81 -78 -100 -34
-238 16 -50 28 -98 26 -108 -2 -9 -9 -52 -16 -94 -6 -43 -15 -78 -19 -78 -4 0
0 43 7 95 l14 95 -31 97 c-41 128 -38 157 27 226 27 29 74 84 106 124 60 75
74 84 187 109 69 15 78 16 84 6z m1570 -47 c-31 -22 -10 -45 40 -45 25 0 48
-5 52 -12 5 -8 -10 -9 -59 -4 l-67 7 0 -46 c0 -27 -5 -45 -11 -45 -8 0 -10 17
-7 51 5 47 4 51 -21 61 -14 5 -69 16 -121 24 -105 16 -157 33 -105 33 36 0
223 -33 247 -43 18 -8 34 23 30 59 -2 18 -1 18 18 -4 19 -22 19 -24 4 -36z
m-1495 36 c11 -7 10 -11 -7 -20 -22 -12 -39 0 -27 19 8 12 16 12 34 1z m1171
-41 c0 -5 -6 -10 -13 -10 -8 0 -19 -17 -25 -38 -7 -24 -28 -51 -57 -76 -62
-51 -70 -37 -13 22 25 26 49 58 53 72 4 14 13 28 19 32 16 11 36 10 36 -2z
m-1116 -78 l16 -43 -42 -82 c-131 -249 -255 -467 -266 -467 -9 0 -5 14 11 43
23 39 149 268 239 433 37 70 38 72 23 107 -16 40 -20 77 -7 62 5 -6 17 -29 26
-53z m1789 -100 c34 -16 114 -57 177 -92 107 -58 129 -66 300 -106 107 -25
194 -41 209 -37 17 4 22 2 17 -6 -5 -7 4 -11 29 -11 20 0 53 -9 75 -20 22 -11
46 -20 54 -20 49 0 326 160 368 213 33 42 57 51 32 11 -35 -53 -349 -243 -402
-244 -7 0 -30 9 -52 20 -22 11 -50 20 -64 20 -13 0 -121 22 -240 50 -196 45
-223 54 -308 101 -51 29 -129 69 -173 91 -118 57 -137 82 -22 30z m2077 -44
c0 -24 -71 -70 -128 -84 -69 -16 -72 -16 -72 -5 0 5 24 15 53 21 63 15 96 31
121 59 22 24 26 26 26 9z m-1502 -380 c-6 -18 -73 -26 -216 -27 -80 -1 -121 3
-117 9 4 6 59 11 128 11 67 1 136 5 152 9 46 12 57 11 53 -2z m-3203 -48 c40
-22 101 -62 135 -90 34 -27 71 -50 82 -50 30 0 76 28 83 50 5 17 25 29 25 15
0 -23 -30 -57 -62 -70 -51 -20 -84 -11 -133 36 -22 20 -78 60 -125 86 l-85 49
-70 -17 c-99 -25 -152 -33 -140 -21 10 10 164 50 199 51 10 1 51 -17 91 -39z
m528 -71 c-16 -27 -117 -163 -185 -249 -15 -19 -30 -31 -34 -27 -4 3 19 39 50
79 31 40 83 110 114 154 31 45 60 80 65 77 4 -2 -1 -18 -10 -34z m3847 -29 c0
-5 -12 -10 -27 -9 -25 0 -26 1 -8 9 27 12 35 12 35 0z m-4696 -505 c9 -25 -23
-85 -56 -105 -50 -30 -172 -56 -201 -43 -30 14 -66 6 -191 -38 -93 -33 -126
-52 -126 -74 0 -7 9 -32 20 -56 24 -53 25 -109 5 -149 -15 -28 -42 -50 -64
-50 -21 0 -10 18 14 24 50 13 60 93 23 183 -31 76 -20 88 133 142 110 38 130
42 181 37 59 -7 114 2 180 31 40 17 73 69 62 97 -3 9 -2 16 4 16 5 0 12 -7 16
-15z m-1034 -39 c0 -3 -4 -8 -10 -11 -5 -3 -10 -1 -10 4 0 6 5 11 10 11 6 0
10 -2 10 -4z m-30 -35 c0 -5 -7 -11 -15 -15 -15 -5 -20 5 -8 17 9 10 23 9 23
-2z m-50 -20 c0 -11 -31 -24 -39 -16 -3 3 1 10 9 15 19 12 30 12 30 1z m-70
-31 c-8 -5 -18 -6 -24 -3 -5 4 -1 10 10 13 24 9 34 2 14 -10z m-105 0 c4 -6
-5 -10 -20 -10 -15 0 -24 4 -20 10 3 6 12 10 20 10 8 0 17 -4 20 -10z m60 0
c4 -6 -5 -10 -20 -10 -15 0 -24 4 -20 10 3 6 12 10 20 10 8 0 17 -4 20 -10z
m3375 -57 c0 -7 -4 -13 -8 -13 -10 0 -32 45 -32 63 1 16 39 -34 40 -50z m3880
-202 c0 -13 -26 -32 -33 -24 -8 7 11 33 24 33 5 0 9 -4 9 -9z m-46 -56 c-6
-16 -24 -21 -24 -7 0 11 11 22 21 22 5 0 6 -7 3 -15z m-44 -40 c-7 -8 -17 -15
-22 -15 -6 0 -5 7 2 15 7 8 17 15 22 15 6 0 5 -7 -2 -15z m-33 -50 c-4 -8 -11
-15 -17 -15 -7 0 -7 6 0 21 13 23 26 19 17 -6z m-36 -68 c-8 -8 -11 -7 -11 4
0 20 13 34 18 19 3 -7 -1 -17 -7 -23z m-21 -27 c0 -5 -10 -10 -22 -10 -19 0
-20 2 -8 10 19 13 30 13 30 0z m-55 -39 c-3 -12 -11 -19 -16 -16 -5 4 -5 14 2
26 13 26 23 18 14 -10z m-4548 -25 c9 -17 38 -56 65 -87 31 -37 48 -65 48 -82
0 -15 -4 -27 -10 -27 -5 0 -10 11 -10 24 0 22 -63 116 -79 116 -4 0 -15 15
-24 34 -9 19 -25 37 -36 41 -30 9 -26 23 4 17 16 -3 32 -17 42 -36z m243 -60
c0 -8 -4 -18 -10 -21 -5 -3 -10 3 -10 14 0 12 5 21 10 21 6 0 10 -6 10 -14z
m-20 -60 c0 -8 -4 -18 -10 -21 -5 -3 -10 3 -10 14 0 12 5 21 10 21 6 0 10 -6
10 -14z m-33 -53 c-9 -9 -19 -14 -23 -11 -10 10 6 28 24 28 15 0 15 -1 -1 -17z
m-41 -59 c-5 -12 -10 -13 -27 -3 l-21 11 23 12 c25 13 35 5 25 -20z m-56 -10
c0 -8 -5 -12 -10 -9 -6 4 -8 11 -5 16 9 14 15 11 15 -7z m105 -3 c10 -17 -12
-21 -25 -6 -10 12 -10 15 3 15 9 0 18 -4 22 -9z m-131 -45 c-6 -16 -24 -23
-24 -8 0 10 22 33 27 28 2 -2 1 -11 -3 -20z m-14 -45 c0 -12 -20 -25 -27 -18
-7 7 6 27 18 27 5 0 9 -4 9 -9z m-59 -54 c-8 -8 -11 -7 -11 4 0 20 13 34 18
19 3 -7 -1 -17 -7 -23z m-1 -47 c0 -11 -4 -20 -10 -20 -5 0 -10 9 -10 20 0 11
5 20 10 20 6 0 10 -9 10 -20z m3862 -28 c-4 -53 24 -220 58 -342 35 -131 46
-200 31 -200 -6 0 -11 12 -11 27 0 15 -16 86 -35 157 -41 155 -68 328 -60 375
8 43 20 31 17 -17z m-3842 -23 c0 -12 -57 -12 -65 0 -6 11 22 19 48 13 9 -2
17 -8 17 -13z m-85 1 c4 -6 -5 -10 -20 -10 -15 0 -24 4 -20 10 3 6 12 10 20
10 8 0 17 -4 20 -10z m135 -10 c8 -5 12 -12 9 -15 -8 -8 -39 5 -39 16 0 11 11
11 30 -1z m4740 -19 c0 -11 -31 -24 -39 -16 -3 3 1 10 9 15 19 12 30 12 30 1z
m-4700 -15 c0 -8 -4 -18 -10 -21 -5 -3 -10 3 -10 14 0 12 5 21 10 21 6 0 10
-6 10 -14z m4645 -6 c-3 -5 -15 -10 -26 -10 -11 0 -17 5 -14 10 3 6 15 10 26
10 11 0 17 -4 14 -10z m-65 -24 c0 -3 -4 -8 -10 -11 -5 -3 -10 -1 -10 4 0 6 5
11 10 11 6 0 10 -2 10 -4z m-50 -16 c-19 -13 -30 -13 -30 0 0 6 10 10 23 10
18 0 19 -2 7 -10z m-4526 -31 c-8 -13 -24 -1 -24 18 0 13 3 13 15 3 8 -7 12
-16 9 -21z m4466 21 c-19 -13 -30 -13 -30 0 0 6 10 10 23 10 18 0 19 -2 7 -10z
m-60 -10 c-19 -13 -30 -13 -30 0 0 6 10 10 23 10 18 0 19 -2 7 -10z m-55 -20
c-3 -5 -13 -10 -21 -10 -8 0 -12 5 -9 10 3 6 13 10 21 10 8 0 12 -4 9 -10z
m-4235 -9 c0 -5 -7 -14 -15 -21 -16 -14 -18 -10 -9 14 6 17 24 22 24 7z m-100
-21 c0 -11 -4 -20 -10 -20 -5 0 -10 9 -10 20 0 11 5 20 10 20 6 0 10 -9 10
-20z m4276 5 c-23 -17 -36 -19 -36 -6 0 11 18 19 40 20 11 0 10 -3 -4 -14z
m-4226 -40 c-7 -9 -15 -13 -18 -10 -3 2 1 11 8 20 7 9 15 13 18 10 3 -2 -1
-11 -8 -20z m-42 -24 c3 -8 -1 -12 -9 -9 -7 2 -15 10 -17 17 -3 8 1 12 9 9 7
-2 15 -10 17 -17z m3177 -341 c4 -6 -5 -10 -20 -10 -15 0 -24 4 -20 10 3 6 12
10 20 10 8 0 17 -4 20 -10z m-60 -20 c-3 -5 -16 -10 -28 -10 -18 0 -19 2 -7
10 20 13 43 13 35 0z m95 -10 c8 -5 11 -12 7 -16 -4 -4 -15 0 -24 9 -18 18 -8
23 17 7z m55 -41 c12 -19 -5 -23 -22 -6 -16 16 -16 17 -1 17 9 0 20 -5 23 -11z
m50 -30 c12 -19 -5 -23 -22 -6 -16 16 -16 17 -1 17 9 0 20 -5 23 -11z m335
-49 c0 -13 -30 -13 -50 0 -11 7 -7 10 18 10 17 0 32 -4 32 -10z"/>
<path d="M1375 5960 c-3 -5 1 -10 10 -10 9 0 13 5 10 10 -3 6 -8 10 -10 10 -2
0 -7 -4 -10 -10z"/>
<path d="M3330 5629 c0 -8 5 -47 10 -88 10 -71 9 -76 -19 -128 -16 -29 -27
-53 -26 -53 2 0 18 20 35 45 34 50 38 84 21 174 -11 53 -21 79 -21 50z"/>
<path d="M3260 5320 c-12 -16 -19 -30 -16 -30 2 0 14 14 26 30 12 17 19 30 16
30 -2 0 -14 -13 -26 -30z"/>
<path d="M3122 5120 c-23 -32 -42 -65 -42 -72 0 -7 17 14 38 47 52 82 54 85
50 85 -2 0 -23 -27 -46 -60z"/>
<path d="M3062 4760 c0 -14 2 -19 5 -12 2 6 2 18 0 25 -3 6 -5 1 -5 -13z"/>
<path d="M3052 4680 c0 -14 2 -19 5 -12 2 6 2 18 0 25 -3 6 -5 1 -5 -13z"/>
<path d="M3041 4614 c0 -11 3 -14 6 -6 3 7 2 16 -1 19 -3 4 -6 -2 -5 -13z"/>
<path d="M3001 4464 c0 -11 3 -14 6 -6 3 7 2 16 -1 19 -3 4 -6 -2 -5 -13z"/>
<path d="M3012 4230 c0 -19 2 -27 5 -17 2 9 2 25 0 35 -3 9 -5 1 -5 -18z"/>
<path d="M3241 3786 c2 -2 140 -51 307 -109 166 -59 312 -113 323 -120 11 -8
29 -12 40 -10 19 5 19 7 3 24 -11 13 -31 19 -57 19 -28 0 -76 18 -172 65 -125
62 -255 105 -315 105 -15 0 -47 7 -70 15 -41 14 -68 19 -59 11z"/>
<path d="M3884 3489 c-3 -6 -1 -16 5 -22 8 -8 11 -5 11 11 0 24 -5 28 -16 11z"/>
<path d="M3677 5086 c-15 -12 -15 -15 -3 -26 22 -17 51 -8 54 18 4 26 -22 30
-51 8z"/>
<path d="M4700 4435 c-10 -12 -9 -27 4 -80 9 -35 16 -83 16 -105 0 -27 4 -39
11 -34 12 7 3 213 -10 227 -5 4 -14 1 -21 -8z"/>
<path d="M4041 3784 c0 -11 3 -14 6 -6 3 7 2 16 -1 19 -3 4 -6 -2 -5 -13z"/>
<path d="M2530 7965 c14 -8 30 -14 35 -14 6 0 -1 6 -15 14 -14 8 -29 14 -35
14 -5 0 1 -6 15 -14z"/>
<path d="M1204 7928 l-19 -23 23 19 c21 18 27 26 19 26 -2 0 -12 -10 -23 -22z"/>
<path d="M2630 7920 c19 -11 40 -19 45 -19 6 0 -6 8 -25 19 -19 11 -39 19 -45
19 -5 0 6 -8 25 -19z"/>
<path d="M1151 7876 l-24 -31 28 27 c16 15 27 29 24 31 -2 3 -15 -10 -28 -27z"/>
<path d="M2700 7890 c8 -5 22 -9 30 -9 10 0 8 3 -5 9 -27 12 -43 12 -25 0z"/>
<path d="M2823 7863 c15 -2 39 -2 55 0 15 2 2 4 -28 4 -30 0 -43 -2 -27 -4z"/>
<path d="M2948 7853 c6 -2 18 -2 25 0 6 3 1 5 -13 5 -14 0 -19 -2 -12 -5z"/>
<path d="M3014 7837 c49 -31 86 -71 100 -110 8 -23 15 -34 15 -24 1 10 -6 31
-14 46 -16 32 -92 101 -109 100 -6 0 -2 -6 8 -12z"/>
<path d="M1105 7809 c-9 -17 -15 -33 -13 -35 3 -2 12 12 21 31 21 43 13 47 -8
4z"/>
<path d="M60 7745 c13 -14 25 -25 27 -25 9 0 -33 49 -41 50 -5 0 1 -11 14 -25z"/>
<path d="M1061 7684 c-7 -25 -10 -48 -8 -51 3 -2 10 17 16 43 7 25 10 48 8 51
-3 2 -10 -17 -16 -43z"/>
<path d="M91 7705 c0 -5 6 -21 14 -35 8 -14 14 -20 14 -15 0 6 -6 21 -14 35
-8 14 -14 21 -14 15z"/>
<path d="M120 7635 c0 -5 5 -17 10 -25 5 -8 10 -10 10 -5 0 6 -5 17 -10 25 -5
8 -10 11 -10 5z"/>
<path d="M3126 7625 c-3 -9 -6 -22 -5 -28 0 -7 5 -1 10 12 5 13 8 26 5 28 -2
2 -6 -3 -10 -12z"/>
<path d="M1041 7604 c0 -11 3 -14 6 -6 3 7 2 16 -1 19 -3 4 -6 -2 -5 -13z"/>
<path d="M1026 7554 c-4 -14 -5 -28 -3 -31 3 -2 8 8 11 23 4 14 5 28 3 31 -3
2 -8 -8 -11 -23z"/>
<path d="M1011 7494 c0 -11 3 -14 6 -6 3 7 2 16 -1 19 -3 4 -6 -2 -5 -13z"/>
<path d="M1001 7454 c0 -11 3 -14 6 -6 3 7 2 16 -1 19 -3 4 -6 -2 -5 -13z"/>
<path d="M966 7345 c-9 -26 -7 -32 5 -12 6 10 9 21 6 23 -2 3 -7 -2 -11 -11z"/>
<path d="M250 7332 c0 -19 88 -89 161 -130 42 -23 80 -42 85 -42 13 0 -114 80
-152 96 -17 7 -45 29 -63 49 -17 20 -31 32 -31 27z"/>
<path d="M950 7302 c0 -6 -14 -28 -32 -49 -29 -34 -29 -35 -4 -13 31 28 50 59
42 68 -3 3 -6 0 -6 -6z"/>
<path d="M2923 7115 c-46 -95 -56 -125 -60 -182 -3 -37 -1 -83 4 -101 6 -26 8
-13 8 60 1 92 1 95 57 216 31 67 54 122 52 122 -3 0 -30 -52 -61 -115z"/>
<path d="M860 7210 c-9 -6 -10 -10 -3 -10 6 0 15 5 18 10 8 12 4 12 -15 0z"/>
<path d="M748 7173 c7 -3 16 -2 19 1 4 3 -2 6 -13 5 -11 0 -14 -3 -6 -6z"/>
<path d="M678 7153 c7 -3 16 -2 19 1 4 3 -2 6 -13 5 -11 0 -14 -3 -6 -6z"/>
<path d="M578 7143 c18 -2 45 -2 60 0 15 2 0 4 -33 4 -33 0 -45 -2 -27 -4z"/>
<path d="M2880 6771 c0 -6 4 -13 10 -16 6 -3 7 1 4 9 -7 18 -14 21 -14 7z"/>
<path d="M2910 6720 c6 -11 13 -20 16 -20 2 0 0 9 -6 20 -6 11 -13 20 -16 20
-2 0 0 -9 6 -20z"/>
<path d="M3060 6553 c17 -24 36 -46 42 -49 16 -10 68 -127 68 -154 0 -14 4
-32 9 -39 8 -12 11 -9 17 14 4 17 2 35 -5 44 -6 9 -22 39 -34 66 -13 28 -47
75 -76 105 -46 48 -49 50 -21 13z"/>
<path d="M3182 6255 c0 -16 2 -22 5 -12 2 9 2 23 0 30 -3 6 -5 -1 -5 -18z"/>
<path d="M7975 2382 c-20 -7 -20 -7 2 -52 l22 -45 1 53 c0 28 -1 52 -2 51 -2
-1 -12 -4 -23 -7z"/>
</g>
</svg>
