<?xml version="1.0" standalone="no"?>
<!DOCTYPE svg PUBLIC "-//W3C//DTD SVG 20010904//EN"
 "http://www.w3.org/TR/2001/REC-SVG-20010904/DTD/svg10.dtd">
<svg version="1.0" xmlns="http://www.w3.org/2000/svg"
 width="800.000000pt" height="800.000000pt" viewBox="0 0 800.000000 800.000000"
 preserveAspectRatio="xMidYMid meet">
<metadata>
Created by potrace 1.16, written by Peter Selinger 2001-2019
</metadata>
<g transform="translate(0.000000,800.000000) scale(0.100000,-0.100000)"
fill="#000000" stroke="none">
<path d="M0 6107 l0 -1893 93 -43 c50 -24 87 -45 81 -47 -6 -3 -46 11 -89 31
-43 19 -79 35 -81 35 -2 0 -4 -63 -4 -140 l0 -140 85 0 85 0 0 -36 c0 -26 -8
-43 -30 -66 -20 -19 -30 -40 -30 -59 0 -16 -4 -29 -10 -29 -5 0 -10 18 -10 40
0 29 4 40 15 40 8 0 15 7 15 15 0 8 7 15 15 15 10 0 15 10 15 30 l0 30 -75 0
-75 0 0 -1945 0 -1945 3006 0 3005 0 -15 28 c-31 53 -56 124 -56 155 0 26 -14
46 -82 114 -77 78 -82 85 -80 122 2 34 -2 45 -29 71 -18 16 -39 30 -47 30 -30
0 -124 -35 -129 -47 -3 -7 -11 -13 -17 -13 -7 0 -19 -19 -25 -42 -7 -24 -18
-49 -23 -56 -7 -8 -7 -17 2 -27 17 -20 2 -38 -26 -32 -19 3 -31 -4 -54 -33
-41 -52 -137 -90 -225 -90 -37 0 -65 4 -65 10 0 6 23 10 52 10 48 0 50 1 32
15 -10 8 -31 15 -45 15 -26 0 -27 2 -19 36 5 20 13 41 19 47 6 6 45 12 86 13
41 1 79 5 84 8 13 9 19 -14 14 -50 -3 -17 0 -35 6 -38 11 -7 65 48 91 93 8 14
20 30 27 36 6 5 18 26 26 47 14 34 14 37 -6 56 -41 38 -80 52 -149 52 -51 0
-66 -3 -62 -13 8 -22 -65 -8 -77 14 -12 22 3 26 21 4 10 -12 15 -12 33 -1 54
32 197 10 236 -37 14 -18 47 -23 53 -8 2 5 32 18 68 29 52 16 60 21 42 26 -12
4 -22 12 -22 17 0 12 10 11 40 -6 34 -20 35 -19 36 18 1 19 -7 44 -21 62 -31
42 -36 109 -13 164 14 33 18 64 16 120 l-3 76 -50 9 c-61 11 -59 10 -46 34 8
15 8 21 -2 25 -7 2 -3 8 11 16 17 9 22 21 22 50 0 23 -6 44 -16 52 -9 7 -33
47 -54 90 -37 72 -42 77 -92 98 -70 28 -128 97 -128 151 0 32 -4 39 -25 44
-32 8 -33 25 -1 19 22 -4 25 0 34 43 l10 48 -64 70 c-87 95 -81 109 7 17 l71
-73 -8 -52 c-5 -28 -8 -73 -7 -100 2 -63 38 -110 118 -153 53 -28 62 -38 93
-100 41 -82 58 -103 86 -104 12 0 15 -3 9 -6 -8 -2 -13 -22 -13 -45 0 -22 -7
-46 -15 -55 -25 -25 -14 -48 25 -51 18 -2 40 -11 47 -20 20 -28 16 -143 -8
-204 -26 -65 -21 -114 16 -162 15 -20 25 -36 23 -36 -3 0 -1 -23 3 -51 5 -33
15 -56 28 -65 15 -11 18 -22 14 -54 -6 -39 -4 -42 81 -128 73 -75 86 -93 86
-121 0 -25 4 -32 15 -27 8 3 15 1 15 -4 0 -6 -5 -10 -11 -10 -16 0 -3 -46 27
-97 l25 -43 149 0 c83 0 150 3 150 6 0 4 -58 102 -128 218 -208 342 -213 352
-228 481 -16 138 -18 417 -3 487 9 39 9 53 0 56 -16 5 -13 22 4 22 8 0 15 5
15 10 0 6 6 10 14 10 16 0 28 51 15 64 -13 14 -11 60 3 74 9 9 9 12 0 12 -7 0
-12 9 -12 21 0 11 4 18 9 15 10 -6 21 26 21 62 0 13 -4 20 -10 17 -6 -3 -10
-1 -10 4 0 6 4 11 9 11 5 0 13 16 18 37 5 21 20 45 36 56 l27 21 42 -31 c39
-28 43 -36 46 -77 3 -48 18 -59 42 -31 7 8 18 15 26 15 7 0 16 15 20 34 4 25
12 36 28 39 20 3 19 4 -7 17 -19 9 -27 19 -24 31 3 10 0 20 -7 23 -8 3 -7 7 3
14 7 5 10 15 7 21 -4 6 0 11 9 11 8 0 21 12 28 28 6 15 16 30 22 34 14 11 55
10 55 -1 0 -8 53 -25 77 -24 6 0 14 -13 17 -30 l6 -31 33 37 c28 32 38 37 82
38 28 1 70 -4 95 -10 25 -5 69 -10 98 -11 45 0 62 -6 110 -39 31 -21 73 -42
92 -46 19 -4 43 -14 52 -22 9 -8 36 -20 60 -27 l43 -13 3 -175 2 -176 123 -4
c67 -3 123 -4 125 -2 2 1 -1 12 -8 23 -7 14 -7 21 0 21 6 0 15 -11 20 -25 5
-14 12 -25 15 -25 2 0 0 12 -6 26 -5 15 -8 29 -5 31 5 5 36 -50 36 -63 0 -3
-67 -5 -150 -3 l-150 4 0 -72 c0 -42 -4 -73 -10 -73 -6 0 -10 90 -10 249 l0
249 -37 13 c-21 6 -49 20 -62 30 -13 11 -34 19 -46 19 -13 0 -50 18 -82 40
-54 35 -70 41 -154 51 -174 20 -183 19 -229 -26 -34 -33 -42 -37 -50 -25 -5 8
-10 21 -10 27 0 17 -50 40 -75 36 -51 -10 -83 -36 -89 -72 -4 -29 -2 -39 15
-52 25 -18 22 -55 -4 -53 -9 1 -18 -6 -19 -15 0 -9 -2 -20 -3 -26 -2 -5 -3
-15 -4 -22 0 -6 -10 -9 -21 -6 -11 3 -31 -4 -46 -16 -19 -15 -31 -18 -38 -11
-5 5 -18 10 -28 10 -10 0 -18 5 -18 10 0 6 5 10 11 10 6 0 9 9 6 20 -3 11 -1
20 4 20 5 0 9 8 9 18 0 17 -56 62 -77 62 -21 0 -45 -39 -39 -64 3 -14 2 -28
-4 -31 -5 -3 -10 -43 -10 -88 0 -57 -3 -77 -10 -67 -7 11 -9 6 -7 -18 2 -18
14 -46 25 -62 30 -40 28 -48 -15 -52 -37 -3 -38 -5 -50 -53 -6 -27 -12 -123
-12 -212 -1 -139 1 -163 14 -163 8 0 15 -4 15 -10 0 -5 -7 -10 -15 -10 -18 0
-18 -16 -4 -135 13 -107 30 -143 233 -477 l131 -218 823 0 822 0 0 650 c0 358
-2 650 -5 650 -2 0 -27 -13 -55 -30 -61 -36 -132 -40 -260 -14 -61 12 -84 14
-93 5 -14 -14 -67 -15 -67 -1 0 6 10 10 23 10 13 0 28 5 34 11 8 8 32 7 91 -5
43 -9 109 -16 147 -16 57 0 76 5 126 32 l59 33 0 210 0 211 -28 21 c-15 11
-37 23 -50 27 -12 4 -22 12 -22 17 0 14 39 2 72 -22 l28 -20 0 36 c0 35 0 35
-44 35 -27 0 -48 6 -56 15 -16 19 -5 34 12 17 7 -7 29 -12 50 -12 l38 0 0 258
0 257 -193 0 -192 0 -3 -25 c-5 -36 -22 -50 -22 -18 0 24 -3 26 -50 25 l-50
-1 0 -38 c0 -21 -4 -38 -10 -38 -5 0 -10 18 -10 40 0 35 -3 40 -23 40 -34 0
-47 -19 -47 -67 0 -27 -10 -62 -26 -93 -15 -30 -28 -73 -31 -109 -5 -53 -3
-60 16 -70 12 -7 21 -21 21 -36 0 -27 -38 -114 -56 -130 -7 -5 -14 -43 -17
-83 -2 -40 -6 -75 -9 -77 -2 -3 -37 -8 -76 -11 -62 -6 -72 -5 -72 9 0 11 11
17 37 19 29 2 42 10 60 37 12 18 26 50 29 70 4 20 20 53 36 74 32 40 32 50 11
152 -9 44 5 117 31 157 9 14 19 47 22 74 8 70 21 91 59 98 28 6 33 11 39 44 3
20 6 65 6 100 0 38 4 62 11 62 7 0 8 -31 3 -101 l-7 -101 49 4 c27 2 54 7 61
11 6 4 93 5 192 2 99 -2 187 -2 196 1 13 6 15 159 15 1411 l0 1406 -31 -7
c-17 -3 -43 -6 -56 -6 l-25 0 4 -155 c1 -85 0 -155 -4 -155 -5 0 -8 35 -9 78
-1 42 -4 88 -9 102 l-7 25 -7 -30 c-4 -16 -11 -38 -17 -47 -5 -10 -9 -27 -9
-38 0 -12 -4 -18 -10 -15 -11 7 -14 48 -3 59 9 9 33 77 33 95 0 8 -8 20 -18
27 -14 10 -15 15 -4 25 14 15 16 130 3 197 l-8 42 33 0 33 0 3 -57 c2 -32 8
-58 13 -59 6 0 18 -4 28 -9 26 -11 33 1 8 15 -21 11 -30 50 -11 50 6 0 10 -7
10 -15 0 -8 5 -15 10 -15 6 0 19 -19 30 -42 l19 -43 0 158 c1 141 -1 157 -16
157 -13 0 -14 3 -6 11 23 23 2 39 -48 39 -27 0 -49 5 -49 10 0 15 107 13 113
-2 3 -7 6 353 6 800 l1 812 -51 0 -52 0 7 -207 c5 -140 4 -205 -3 -198 -6 6
-11 92 -12 215 l-1 205 36 -3 c19 -2 45 -1 56 3 20 6 20 14 20 386 l0 379
-4000 0 -4000 0 0 -1893z m7667 617 c-3 -3 -12 -4 -19 -1 -8 3 -5 6 6 6 11 1
17 -2 13 -5z m-96 -98 c12 7 11 -27 0 -45 -7 -11 -13 -12 -23 -4 -7 6 -26 13
-43 15 l-30 5 32 7 c17 5 35 16 39 25 4 11 8 12 11 3 3 -6 9 -10 14 -6z m-91
-76 c0 -5 -4 -10 -10 -10 -5 0 -10 -7 -10 -15 0 -8 -9 -15 -20 -15 -11 0 -20
4 -20 9 0 5 -3 16 -6 25 -5 13 1 16 30 16 20 0 36 -4 36 -10z m-144 -156 c-3
-8 -2 -12 4 -9 6 3 10 2 10 -4 0 -11 -32 -31 -49 -31 -5 0 -2 13 7 30 18 31
39 42 28 14z m-516 -174 c0 -5 -5 -10 -11 -10 -5 0 -7 5 -4 10 3 6 8 10 11 10
2 0 4 -4 4 -10z m780 0 c0 -5 -4 -10 -10 -10 -5 0 -10 5 -10 10 0 6 5 10 10
10 6 0 10 -4 10 -10z m-10 -59 c-6 -13 -17 -17 -30 -14 -36 9 -20 28 28 32 9
1 10 -4 2 -18z m-190 -106 c-7 -9 -15 -13 -18 -10 -3 2 1 11 8 20 7 9 15 13
18 10 3 -2 -1 -11 -8 -20z m-1113 -147 c-3 -8 -6 -5 -6 6 -1 11 2 17 5 13 3
-3 4 -12 1 -19z m-46 -51 c-29 -29 -36 -16 -9 18 14 18 23 24 26 16 2 -7 -5
-22 -17 -34z m-138 -137 c-28 -22 -30 -33 -5 -26 13 5 22 -1 30 -19 17 -36 14
-55 -3 -24 -9 16 -26 29 -44 32 -34 7 -34 31 0 40 10 3 19 13 19 23 0 15 2 16
13 5 10 -10 8 -16 -10 -31z m-56 -159 c-12 -44 -41 -73 -30 -32 4 16 0 21 -13
22 -17 1 -17 2 -1 6 9 2 17 9 17 14 0 13 34 51 37 42 2 -5 -3 -28 -10 -52z
m329 40 c-3 -5 -26 -12 -51 -15 -26 -4 -57 -18 -73 -32 -16 -15 -20 -22 -9
-18 9 3 17 10 17 15 0 5 5 9 10 9 6 0 10 -6 10 -14 0 -23 -374 -216 -388 -201
-4 4 -2 9 4 12 6 2 42 19 80 37 65 32 66 34 29 29 -22 -3 -52 -15 -68 -25 -15
-11 -33 -18 -39 -16 -20 7 54 45 122 64 72 19 169 71 215 114 30 28 78 47 123
49 13 1 21 -3 18 -8z m-438 -42 c-21 -16 -28 -29 -28 -55 0 -25 -4 -34 -16
-34 -21 0 -80 -35 -118 -69 -17 -15 -27 -20 -24 -11 2 8 28 33 56 54 30 22 52
47 52 57 0 27 18 24 23 -3 3 -16 5 -13 6 10 1 35 32 71 61 71 9 0 4 -7 -12
-20z m2014 -25 c-7 -12 -11 -13 -17 -4 -4 7 -2 16 6 21 18 11 23 4 11 -17z
m-2 -50 c0 -8 -4 -14 -10 -14 -5 0 -10 9 -10 21 0 11 5 17 10 14 6 -3 10 -13
10 -21z m16 -51 c-11 -11 -17 4 -9 23 7 18 8 18 11 1 2 -10 1 -21 -2 -24z m-9
-40 c-11 -25 -33 -32 -24 -8 4 8 2 17 -3 20 -4 3 -10 -1 -13 -7 -2 -7 -7 -10
-11 -6 -4 3 -3 15 3 26 9 17 14 19 35 9 20 -10 22 -15 13 -34z m-2227 -27 c0
-3 -43 -46 -95 -97 -52 -50 -97 -101 -101 -113 -3 -12 -21 -37 -39 -56 -17
-19 -42 -51 -54 -71 -23 -39 -43 -49 -107 -49 -32 0 -46 -6 -69 -30 -16 -16
-35 -30 -42 -30 -8 0 -13 -12 -13 -29 0 -28 -36 -68 -49 -55 -3 3 2 10 12 15
11 7 17 22 17 44 0 24 5 35 15 35 8 0 30 14 50 31 28 25 46 32 95 36 56 5 62
9 77 37 9 17 33 50 54 73 22 24 39 48 39 54 0 7 44 56 97 110 85 87 113 110
113 95z m809 -107 c-5 -10 -14 -19 -19 -19 -5 0 -9 -8 -9 -17 0 -10 -3 -29 -6
-43 -4 -18 0 -32 14 -47 12 -12 21 -34 21 -48 0 -14 6 -25 13 -25 7 0 18 -15
25 -33 14 -40 15 -58 2 -37 -6 10 -10 11 -10 3 0 -7 -4 -13 -9 -13 -5 0 -7 9
-4 20 4 13 0 20 -10 20 -19 0 -55 52 -39 58 19 6 14 27 -12 51 -26 25 -25 34
10 127 13 35 20 42 30 33 10 -8 11 -16 3 -30z m321 -259 c0 -47 -4 -80 -10
-80 -6 0 -10 33 -10 80 0 47 4 80 10 80 6 0 10 -33 10 -80z m-195 -25 c-3 -30
-10 -55 -13 -55 -7 0 -4 85 4 109 10 31 16 -2 9 -54z m1205 10 c0 -8 -2 -15
-4 -15 -2 0 -6 7 -10 15 -3 8 -1 15 4 15 6 0 10 -7 10 -15z m-1270 -45 c0 -11
-2 -20 -4 -20 -2 0 -6 9 -9 20 -3 11 -1 20 4 20 5 0 9 -9 9 -20z m20 -62 c0
-5 -4 -8 -10 -8 -5 0 -10 10 -10 23 0 18 2 19 10 7 5 -8 10 -18 10 -22z
m-1503 -32 c4 -7 15 -16 23 -19 11 -4 9 -6 -5 -6 -12 -1 -27 5 -34 12 -11 10
-12 7 -7 -18 4 -16 11 -63 16 -104 11 -86 47 -154 124 -235 42 -44 48 -56 47
-88 -3 -45 18 -108 36 -108 6 0 16 -15 22 -34 5 -19 15 -41 22 -49 11 -12 15
-10 26 11 14 26 8 46 -6 23 -7 -11 -12 -8 -21 10 -10 17 -10 24 -1 27 6 2 11
10 11 18 0 8 7 14 15 14 17 0 37 -34 27 -45 -4 -5 -1 -5 6 -1 7 4 10 16 7 26
-8 26 33 69 46 49 13 -21 11 -41 -8 -54 -21 -15 -28 -56 -11 -66 9 -6 6 -15
-12 -34 -21 -22 -22 -28 -10 -35 22 -14 27 -12 44 11 14 20 16 20 31 5 15 -15
14 -17 -14 -22 -17 -4 -29 -9 -27 -13 7 -11 -14 -52 -23 -47 -15 10 -6 -21 11
-41 12 -13 14 -23 6 -36 -16 -30 24 -64 91 -78 82 -16 96 -29 31 -26 l-55 2
-9 -82 c-5 -46 -13 -83 -17 -83 -11 0 -11 16 0 103 l9 69 -39 35 c-29 26 -37
41 -33 57 3 13 -3 29 -16 44 -12 12 -18 26 -15 31 8 14 -34 39 -56 34 -17 -5
-19 -15 -19 -96 0 -82 -2 -93 -26 -125 -15 -19 -45 -43 -68 -53 -23 -10 -47
-27 -54 -39 -7 -11 -34 -34 -59 -50 -38 -24 -58 -30 -104 -30 -47 0 -73 -8
-140 -40 -45 -22 -86 -37 -90 -34 -16 10 -9 24 11 24 11 0 46 13 78 29 37 18
82 31 127 36 82 8 135 33 165 75 12 17 40 38 61 47 64 25 79 56 79 162 l0 91
-85 0 c-47 0 -162 5 -256 11 -155 9 -182 8 -307 -11 -215 -33 -194 -23 -190
-85 l3 -53 100 -22 c55 -12 104 -26 109 -31 15 -14 -15 -11 -106 11 -105 25
-106 25 -120 -5 -17 -37 -27 -30 -17 13 5 20 9 54 9 74 l0 37 -52 -6 c-37 -5
-49 -3 -44 5 4 7 20 12 36 12 41 0 65 10 49 21 -19 11 -9 14 186 43 165 25
176 25 380 14 230 -12 305 -7 305 20 1 16 2 16 14 0 18 -24 36 -23 36 2 0 12
-10 25 -24 32 -21 9 -24 16 -19 39 5 28 4 29 -33 30 -23 1 -30 3 -16 6 23 5
31 23 9 23 -12 0 -16 21 -19 107 -1 24 -14 46 -52 86 -73 77 -107 150 -117
250 -4 45 -8 83 -8 85 -1 1 -15 2 -32 2 -17 0 -28 4 -24 10 3 6 14 10 25 10
10 0 20 7 24 15 7 19 32 20 43 1z m1527 -28 c-4 -6 -10 -5 -15 3 -14 22 -10
33 6 19 8 -7 12 -17 9 -22z m-1648 -44 c-3 -26 -6 -80 -6 -120 0 -49 -4 -74
-12 -74 -8 0 -9 30 -5 111 l7 112 -23 -19 c-19 -17 -19 -16 2 9 35 39 45 34
37 -19z m1699 -14 c18 -27 25 -45 20 -57 -6 -15 -9 -12 -16 14 -7 24 -13 31
-26 26 -13 -5 -15 -2 -10 12 4 9 2 24 -4 31 -7 8 -7 14 -2 14 6 0 23 -18 38
-40z m-1795 -24 c0 -2 -8 -10 -17 -17 -16 -13 -17 -12 -4 4 13 16 21 21 21 13z
m-73 -64 c-27 -28 -37 -46 -37 -70 0 -44 -17 -41 -22 4 -4 32 0 40 36 70 53
46 69 43 23 -4z m1747 -54 c3 -46 8 -104 11 -130 4 -30 3 -48 -3 -48 -11 0
-21 59 -28 178 -4 51 -2 82 5 82 5 0 12 -37 15 -82z m-649 -37 c-3 -9 2 -26
10 -37 22 -29 19 -57 -5 -51 -11 3 -20 0 -20 -6 0 -7 12 -13 26 -13 32 -2 43
-12 25 -23 -11 -7 -11 -13 3 -32 21 -31 20 -36 -6 -45 -19 -6 -20 -8 -7 -18
14 -10 32 -46 29 -55 -1 -2 5 -8 14 -13 22 -13 20 -28 -5 -28 -11 0 -17 5 -14
10 3 6 -1 10 -9 10 -19 0 -22 20 -3 21 10 0 10 2 0 6 -7 2 -13 11 -13 18 0 8
-9 17 -21 20 -20 7 -20 8 -3 27 16 16 16 21 4 28 -8 6 -21 10 -27 10 -7 0 -12
5 -10 12 1 6 -6 14 -15 16 -13 2 -16 -1 -12 -12 3 -9 3 -16 0 -16 -4 0 -11 12
-17 27 -7 19 -13 23 -18 15 -6 -9 -15 -10 -40 -1 -45 16 -37 38 25 69 41 20
54 32 64 62 11 32 15 36 32 27 12 -6 17 -17 13 -28z m260 -77 c6 -33 1 -54 -9
-43 -10 10 -17 79 -8 79 5 0 13 -16 17 -36z m995 5 c10 -7 11 -12 4 -15 -7 -3
-10 -14 -7 -24 3 -11 0 -20 -6 -20 -6 0 -11 6 -11 13 0 6 -3 22 -6 35 -7 24 2
28 26 11z m-1895 -49 c3 -5 -1 -10 -9 -10 -9 0 -16 5 -16 10 0 6 4 10 9 10 6
0 13 -4 16 -10z m1017 -52 c6 -57 -11 -79 -69 -94 -51 -13 -70 -9 -40 8 17 9
17 11 2 34 -8 13 -11 24 -6 24 5 0 14 14 21 30 12 29 30 41 30 20 0 -5 9 -10
20 -10 11 0 20 7 20 15 0 34 18 12 22 -27z m-774 13 c3 -8 -1 -12 -9 -9 -7 2
-15 10 -17 17 -3 8 1 12 9 9 7 -2 15 -10 17 -17z m2113 -94 c-11 -11 -25 59
-14 76 4 7 10 -3 15 -27 5 -22 5 -43 -1 -49z m-2881 46 c0 -12 -239 -135 -252
-131 -11 4 226 137 245 138 4 0 7 -3 7 -7z m1859 -29 c2 -2 -12 -4 -32 -4 -20
0 -37 4 -37 10 0 8 58 3 69 -6z m-1456 -74 c18 -22 21 -30 10 -30 -11 1 -46
50 -36 50 5 0 16 -9 26 -20z m1840 -28 c-4 -15 31 -15 71 -1 38 13 97 -4 78
-23 -8 -8 -6 -21 9 -49 11 -22 24 -39 29 -39 19 0 10 -18 -12 -24 -19 -5 -20
-8 -9 -15 12 -8 9 -11 -13 -17 -27 -6 -114 1 -124 11 -11 11 10 19 48 20 29 0
40 4 40 15 0 21 -32 47 -72 59 -18 5 -27 10 -20 10 6 1 12 8 12 16 0 11 -8 13
-30 9 -18 -4 -30 -2 -30 4 0 6 -3 18 -6 27 -5 13 -2 16 12 13 10 -2 18 -10 17
-16z m-1143 -63 c0 -5 -7 -6 -15 -3 -8 4 -15 13 -15 21 0 13 3 13 15 3 8 -7
15 -16 15 -21z m-1710 11 c8 -5 12 -11 9 -14 -3 -3 -14 1 -25 9 -21 16 -8 20
16 5z m2660 -14 c0 -31 -8 -36 -43 -29 -17 3 -27 12 -27 22 0 24 9 31 42 31
23 0 28 -4 28 -24z m-1200 -15 c0 -5 -7 -11 -15 -15 -15 -5 -20 5 -8 17 9 10
23 9 23 -2z m-1439 -28 c12 -15 12 -16 -3 -10 -29 11 -23 -39 7 -59 28 -18 33
-39 11 -47 -17 -7 -36 11 -36 34 0 20 -24 42 -34 31 -9 -9 -36 26 -36 47 0 10
6 8 22 -9 17 -18 23 -20 26 -9 5 14 22 39 27 39 1 0 9 -8 16 -17z m1385 -20
c-3 -3 -13 -2 -23 2 -17 7 -17 8 2 15 19 7 34 -5 21 -17z m-1246 -17 c0 -9
-30 -14 -35 -6 -4 6 3 10 14 10 12 0 21 -2 21 -4z m-374 -61 c-7 -5 -11 -17
-8 -25 4 -13 3 -13 -10 -2 -14 11 -21 8 -50 -16 -63 -55 -146 -111 -172 -118
-25 -6 -26 -7 -9 -19 20 -14 23 -14 116 -21 66 -6 68 -5 94 25 15 17 35 31 45
31 10 0 18 6 18 13 0 9 3 8 9 -2 5 -7 14 -10 21 -6 15 9 -16 45 -39 45 -9 0
-23 5 -31 10 -11 8 -4 10 25 8 26 -1 45 -9 53 -20 13 -18 16 -17 53 17 21 19
46 35 55 35 15 0 -25 -40 -98 -100 -21 -16 -21 -18 -5 -59 19 -46 21 -61 9
-61 -4 0 -15 23 -25 51 -14 37 -22 49 -34 45 -8 -3 -19 -6 -24 -6 -4 0 -6 -6
-3 -13 3 -9 -15 -23 -48 -40 -51 -25 -181 -67 -209 -67 -28 0 8 17 86 41 l80
24 -50 7 c-83 13 -95 16 -110 28 -7 6 -16 7 -19 2 -3 -5 -19 -12 -35 -15 -17
-4 -31 -14 -34 -24 -3 -16 -5 -15 -13 5 -10 23 -10 23 -34 4 -28 -21 -130 -58
-145 -52 -5 2 -21 4 -35 5 -26 2 -30 8 -22 37 2 9 10 14 18 11 8 -3 12 -9 9
-13 -8 -13 107 1 138 16 20 11 27 20 23 32 -6 16 -5 16 7 0 9 -12 18 -14 30
-7 28 16 21 37 -10 32 l-28 -4 29 17 c28 15 30 15 43 -1 11 -16 17 -17 38 -7
14 7 36 12 49 12 26 0 172 105 168 121 -1 6 1 8 5 6 5 -3 24 7 43 23 24 20 37
25 42 17 4 -7 2 -16 -6 -22z m3607 -300 l-6 -335 82 0 c91 0 110 -7 152 -54
15 -18 46 -41 69 -51 34 -15 53 -35 35 -35 -20 0 -93 48 -125 81 l-37 39 -86
0 -87 0 0 -35 c0 -19 -4 -35 -10 -35 -5 0 -10 15 -10 34 0 36 -15 46 -70 46
-18 0 -43 17 -79 54 -30 30 -67 60 -83 67 -15 6 -28 16 -28 21 0 20 48 -7 111
-63 50 -44 76 -60 107 -65 l42 -7 0 194 c0 239 10 479 21 479 4 0 5 -151 2
-335z m-2008 315 c-3 -5 -10 -10 -16 -10 -5 0 -9 5 -9 10 0 6 7 10 16 10 8 0
12 -4 9 -10z m-2835 -94 c0 -40 8 -44 90 -47 57 -3 188 -34 205 -50 15 -15
-13 -11 -89 13 -66 21 -90 22 -323 22 -139 -1 -253 3 -253 8 0 4 33 8 73 8
144 0 267 12 267 26 0 8 -6 11 -17 7 -13 -5 -15 -2 -10 11 4 10 7 22 7 27 0 5
11 9 25 9 22 0 25 -4 25 -34z m3780 19 c0 -8 -4 -15 -10 -15 -5 0 -10 7 -10
15 0 8 5 15 10 15 6 0 10 -7 10 -15z m-420 -115 l0 -110 60 0 c60 0 84 -16 33
-22 -14 -2 -28 -8 -30 -15 -5 -13 35 -38 45 -28 3 3 -4 8 -16 12 -12 3 -22 10
-22 15 0 6 7 7 16 4 9 -3 22 -6 30 -6 8 0 14 -9 14 -20 0 -15 -7 -20 -27 -20
-36 1 -62 21 -60 46 2 15 -4 19 -28 19 -36 1 -104 15 -127 26 -11 6 -18 4 -22
-6 -8 -22 -28 -18 -24 4 2 14 -13 32 -52 61 -44 33 -60 39 -83 34 -34 -7 -130
25 -123 42 7 18 -30 47 -51 40 -11 -4 -37 0 -59 8 l-39 13 60 -2 c46 -1 71 -8
100 -27 22 -14 65 -32 95 -39 34 -7 75 -27 107 -51 58 -42 89 -57 146 -68 l37
-7 0 103 c0 63 4 104 10 104 6 0 10 -43 10 -110z m-1939 79 c8 -17 17 -20 40
-15 29 6 30 5 23 -29 -3 -19 -3 -35 1 -35 4 0 29 18 55 40 26 22 51 40 54 40
18 0 -1 -22 -55 -65 -53 -42 -60 -51 -54 -74 8 -33 31 -51 67 -51 15 0 28 -4
28 -10 0 -5 -11 -10 -24 -10 -31 0 -36 -16 -35 -113 0 -69 2 -78 11 -57 11 24
12 24 15 4 4 -20 6 -21 31 -9 41 19 82 27 82 15 0 -5 5 -10 11 -10 5 0 8 4 5
9 -3 5 4 11 15 14 16 4 19 10 14 29 -12 40 -69 117 -87 118 -10 0 -18 5 -18
11 0 6 9 8 23 3 12 -3 22 -7 23 -8 0 0 15 -20 33 -44 18 -23 37 -58 41 -77 6
-28 4 -37 -17 -57 -19 -18 -27 -20 -42 -11 -23 14 -83 2 -89 -17 -3 -13 -2
-13 7 0 10 13 12 13 21 0 15 -23 12 -30 -12 -31 -17 -1 -19 -2 -5 -6 19 -5 23
-19 7 -25 -6 -2 -6 -24 0 -63 7 -46 6 -73 -5 -115 -8 -31 -15 -99 -15 -157 0
-96 1 -103 20 -103 11 0 20 -5 20 -11 0 -6 -7 -9 -15 -5 -11 4 -15 -1 -15 -18
0 -13 -7 -29 -15 -36 -8 -7 -15 -19 -15 -27 0 -7 -12 -35 -28 -62 -22 -39 -30
-46 -40 -35 -15 17 -15 24 1 24 16 0 47 52 47 79 0 12 6 24 14 27 11 4 13 26
8 112 -4 89 -8 109 -25 122 -16 14 -18 23 -12 74 7 50 12 61 36 75 36 20 32
37 -8 33 -20 -2 -32 2 -36 12 -4 9 -17 16 -29 17 l-23 0 23 9 c21 9 22 14 22
128 0 66 3 134 6 151 l7 31 -67 0 -66 0 0 -32 c0 -26 -11 -44 -52 -85 -45 -46
-58 -53 -91 -53 l-38 0 2 -172 c2 -151 0 -178 -16 -208 -10 -19 -25 -62 -32
-95 -33 -138 -31 -149 19 -135 69 20 73 61 6 74 -21 4 -28 10 -22 16 12 12 83
-20 84 -37 0 -7 11 -13 24 -13 13 0 26 -6 29 -14 3 -8 15 -12 31 -9 l25 5 -16
-43 c-17 -44 -40 -79 -53 -79 -4 0 3 21 15 47 l23 47 -21 13 c-44 25 -48 25
-70 5 -12 -11 -31 -22 -42 -25 -11 -3 -30 -8 -42 -12 -21 -6 -23 -3 -23 39 0
45 -1 46 -32 46 -18 -1 -44 -7 -58 -15 -14 -8 -30 -14 -37 -15 -12 0 -12 24 0
36 10 11 -12 44 -30 44 -10 0 -32 -14 -50 -32 -41 -40 -43 -25 -3 20 23 24 38
32 65 32 19 0 43 5 54 11 13 9 23 9 37 1 18 -11 18 -11 -4 -12 -19 0 -42 -30
-42 -56 0 -11 39 -2 50 11 16 19 30 19 30 -1 0 -8 5 -12 10 -9 14 9 12 42 -2
48 -9 3 -4 11 12 24 l25 21 -39 16 c-21 9 -41 16 -43 16 -10 0 -133 94 -133
102 0 14 10 9 68 -35 48 -37 142 -85 146 -75 0 2 10 21 22 44 19 38 20 53 16
207 -3 92 -9 167 -13 167 -5 0 -9 -76 -9 -170 0 -107 -4 -170 -10 -170 -6 0
-10 63 -10 170 l0 170 -40 0 -40 0 0 -55 c0 -30 -4 -55 -10 -55 -5 0 -10 25
-10 55 l0 55 -42 -6 c-42 -6 -42 -6 -20 11 13 9 30 14 42 10 14 -5 20 -2 20 9
0 9 5 16 10 16 6 0 10 -6 10 -13 0 -9 11 -12 35 -9 l35 4 0 79 c0 46 4 79 10
79 6 0 10 -33 10 -80 0 -67 3 -80 16 -80 14 0 16 9 12 55 -3 30 -1 55 3 55 11
0 19 -29 19 -71 0 -38 1 -39 34 -39 25 0 45 10 80 42 l48 41 -6 67 -6 68 34
16 c19 9 41 13 50 10 17 -6 21 1 30 54 5 29 3 33 -12 27 -11 -3 -25 2 -34 12
-23 28 -30 43 -19 43 6 0 15 -9 22 -21z m2409 -19 c-19 -12 -30 -12 -30 -1 0
10 31 20 40 14 2 -2 -2 -8 -10 -13z m-1655 -10 c-60 -4 -122 -11 -137 -15 -18
-4 -28 -3 -28 3 0 16 32 19 160 19 l115 0 -110 -7z m-505 -15 c0 -16 -66 -48
-84 -41 -6 2 6 11 27 20 20 9 37 21 37 26 0 6 5 10 10 10 6 0 10 -7 10 -15z
m-2070 -24 c0 -5 -9 -13 -21 -16 -11 -4 -36 -20 -55 -37 -41 -36 -58 -30 -23
8 33 35 99 65 99 45z m2790 -11 c0 -5 -12 -10 -27 -9 -25 0 -26 1 -8 9 27 12
35 12 35 0z m-4306 -25 c-4 -8 -11 -15 -16 -15 -6 0 -5 6 2 15 7 8 14 15 16
15 2 0 1 -7 -2 -15z m-132 -39 l-10 -35 51 -4 52 -3 -62 -2 -62 -2 10 33 c6
17 13 38 15 46 10 31 15 1 6 -33z m6328 35 c0 -6 -4 -13 -10 -16 -21 -13 -9
-25 25 -25 19 0 35 -4 35 -10 0 -6 -33 -10 -80 -10 l-80 0 0 35 0 35 55 0 c30
0 55 -4 55 -9z m-6455 -31 c3 -5 1 -10 -4 -10 -6 0 -11 5 -11 10 0 6 2 10 4
10 3 0 8 -4 11 -10z m-139 -68 c0 -10 -6 -24 -13 -31 -18 -17 -30 14 -13 34
17 20 26 19 26 -3z m3244 -7 c0 -5 -24 -16 -67 -29 -33 -10 -28 8 5 21 30 12
62 16 62 8z m2090 -5 c0 -5 -4 -10 -10 -10 -5 0 -10 5 -10 10 0 6 5 10 10 10
6 0 10 -4 10 -10z m-2837 -41 c108 -13 197 -27 197 -31 0 -12 -29 -10 -240 17
-107 14 -203 22 -212 19 -14 -4 -16 -1 -11 11 4 13 14 16 37 12 17 -3 120 -15
229 -28z m4085 19 c9 -9 12 -9 12 0 0 7 5 12 10 12 6 0 10 -9 10 -20 0 -11 -2
-20 -5 -20 -12 0 -55 24 -55 32 0 12 14 10 28 -4z m-4766 -30 c2 -26 10 -35
46 -52 42 -21 42 -21 37 -66 -11 -87 -16 -101 -42 -111 -18 -6 -30 -6 -39 2
-8 7 -17 9 -21 5 -3 -3 -13 0 -22 8 -9 8 -25 16 -36 19 -11 2 4 5 33 6 40 1
52 -2 52 -14 0 -16 17 -19 37 -7 6 4 14 34 18 67 l6 60 -35 17 c-20 10 -36 13
-36 8 0 -6 -11 -10 -25 -10 -20 0 -25 5 -25 24 0 26 22 50 35 38 4 -4 4 3 1
16 -4 12 -3 22 3 22 5 0 11 -14 13 -32z m3733 12 c13 20 21 9 20 -29 0 -22 -4
-43 -8 -47 -4 -4 -7 2 -7 13 0 11 -9 28 -20 38 -22 20 -28 44 -6 26 10 -8 16
-9 21 -1z m-3895 -40 c0 -5 -4 -10 -10 -10 -5 0 -10 5 -10 10 0 6 5 10 10 10
6 0 10 -4 10 -10z m4615 -20 c18 0 36 6 39 13 5 9 7 9 12 -1 4 -9 9 -10 19 -2
10 8 19 8 32 -1 15 -9 42 -8 121 5 128 20 201 20 275 1 72 -19 77 -19 77 1 0
9 6 14 13 12 6 -3 12 -11 12 -19 0 -19 -62 -23 -127 -9 -30 6 -55 7 -62 1 -6
-4 -146 -11 -311 -14 -222 -4 -283 -2 -235 5 39 6 68 16 74 26 8 13 10 13 18
-2 5 -10 22 -16 43 -16z m-267 3 c-10 -2 -26 -2 -35 0 -10 3 -2 5 17 5 19 0
27 -2 18 -5z m85 0 c-7 -2 -19 -2 -25 0 -7 3 -2 5 12 5 14 0 19 -2 13 -5z
m-5993 -13 c0 -5 -11 -10 -25 -10 -14 0 -25 5 -25 10 0 6 11 10 25 10 14 0 25
-4 25 -10z m55 0 c3 -5 -3 -10 -14 -10 -12 0 -21 5 -21 10 0 6 6 10 14 10 8 0
18 -4 21 -10z m555 0 c0 -5 -4 -10 -10 -10 -5 0 -10 5 -10 10 0 6 5 10 10 10
6 0 10 -4 10 -10z m1845 -10 c23 -6 25 -8 8 -9 -14 -1 -24 -11 -32 -31 -5 -16
-15 -30 -20 -30 -7 0 -7 8 0 26 5 15 8 28 7 29 -3 2 -426 15 -510 15 -27 0
-48 4 -48 10 0 11 549 2 595 -10z m-2342 3 c-7 -2 -19 -2 -25 0 -7 3 -2 5 12
5 14 0 19 -2 13 -5z m60 0 c-7 -2 -19 -2 -25 0 -7 3 -2 5 12 5 14 0 19 -2 13
-5z m59 -5 c-9 -9 -15 -9 -24 0 -9 9 -7 12 12 12 19 0 21 -3 12 -12z m68 2 c0
-5 -9 -10 -20 -10 -11 0 -20 5 -20 10 0 6 9 10 20 10 11 0 20 -4 20 -10z
m4593 -117 c-7 -3 -13 -12 -14 -21 0 -11 -2 -12 -6 -4 -2 6 -18 12 -34 12 -45
0 -34 18 14 22 43 3 62 -1 40 -9z m-1959 -20 c4 -9 1 -20 -6 -25 -21 -12 -31
-9 -24 8 3 9 6 20 6 25 0 15 17 10 24 -8z m3106 0 c0 -5 -3 -18 -6 -30 -8 -31
-28 -29 -22 1 4 19 1 22 -14 18 -10 -2 -18 1 -18 7 0 6 14 11 30 11 17 0 30
-3 30 -7z m-4367 -47 c-3 -15 1 -25 11 -29 10 -4 13 -1 9 9 -3 9 2 14 16 14
13 0 18 -5 15 -13 -4 -10 7 -12 48 -7 29 3 62 11 74 18 49 27 114 -27 75 -62
-10 -9 -26 -16 -37 -15 -10 1 -29 1 -42 1 -19 -2 -21 -5 -12 -21 5 -11 10 -26
10 -33 -1 -7 -8 0 -16 16 -19 34 -12 42 46 53 35 7 45 13 45 28 0 25 -56 33
-88 12 -12 -8 -52 -16 -89 -19 -67 -6 -68 -5 -87 25 -22 34 -19 47 8 47 14 0
17 -6 14 -24z m1139 -23 c8 -62 -9 -61 -19 1 -3 22 -2 36 5 36 5 0 12 -17 14
-37z m-1045 21 c-3 -3 -12 -4 -19 -1 -8 3 -5 6 6 6 11 1 17 -2 13 -5z m4093
-24 c0 -5 -2 -10 -4 -10 -3 0 -8 5 -11 10 -3 6 -1 10 4 10 6 0 11 -4 11 -10z
m80 6 c0 -3 -4 -8 -10 -11 -5 -3 -10 -1 -10 4 0 6 5 11 10 11 6 0 10 -2 10 -4z
m-200 -22 c0 -8 -4 -12 -10 -9 -5 3 -10 10 -10 16 0 5 5 9 10 9 6 0 10 -7 10
-16z m-3330 -4 c0 -5 -4 -10 -9 -10 -5 0 -13 -17 -18 -37 -9 -39 -20 -48 -42
-34 -21 13 -5 58 27 75 32 18 42 19 42 6z m3170 3 c0 -5 -11 -13 -25 -20 -22
-10 -25 -9 -25 8 0 14 7 19 25 19 14 0 25 -3 25 -7z m-3270 -30 c-1 -11 -100
-77 -106 -70 -6 6 84 77 97 77 5 0 9 -3 9 -7z m2168 -19 c106 -16 114 -19 128
-45 7 -15 14 -55 14 -87 0 -41 5 -63 15 -72 21 -17 12 -24 -14 -10 -18 9 -21
20 -21 85 0 66 -2 76 -22 89 -32 19 -233 46 -290 39 l-48 -6 0 -53 c0 -31 5
-56 13 -61 6 -4 47 -6 90 -5 54 3 77 0 77 -8 0 -9 -28 -11 -99 -8 -88 3 -135
14 -106 25 7 2 9 29 7 70 l-5 66 36 -7 c22 -4 38 -2 42 5 4 6 21 9 39 5 17 -3
82 -13 144 -22z m-3398 7 c0 -15 -96 -23 -305 -25 -200 -2 -201 -3 -240 -29
-33 -23 -50 -27 -108 -27 -43 0 -66 4 -62 10 3 6 31 10 61 10 54 0 101 16 136
47 15 13 48 15 212 11 107 -3 201 -1 208 3 18 12 98 11 98 0z m2594 -15 c-3
-9 -12 -16 -20 -16 -18 0 -18 5 2 25 19 19 27 15 18 -9z m-2172 -51 c3 -56 0
-66 -15 -71 -23 -7 -36 4 -18 16 12 7 11 11 -4 27 -17 16 -17 18 -2 21 12 3
17 14 17 38 0 62 18 36 22 -31z m1594 29 c30 -14 46 -34 28 -34 -9 0 -74 41
-74 46 0 7 11 4 46 -12z m-536 -13 c0 -11 -69 -36 -77 -28 -3 4 10 13 28 21
41 18 49 19 49 7z m-769 -135 c-17 -18 -31 -38 -31 -45 0 -7 -6 -11 -12 -8 -7
2 -13 10 -13 18 0 8 -7 17 -15 21 -10 4 -6 7 11 7 15 1 38 10 53 22 22 18 26
26 20 54 -3 19 -2 40 3 47 5 8 9 -5 11 -36 3 -43 0 -53 -27 -80z m2374 86 c3
-8 0 -19 -7 -24 -9 -5 -7 -8 7 -9 11 -1 4 -4 -15 -8 -31 -5 -36 -3 -42 19 -5
14 -6 30 -4 36 6 16 53 5 61 -14z m-445 -9 c-1 -31 -43 -70 -82 -77 -30 -5
-38 -4 -38 8 0 8 -5 16 -11 18 -13 4 57 53 87 61 36 9 44 7 44 -10z m-1287
-21 c-2 -39 -3 -42 -18 -42 -11 0 -15 11 -15 36 0 28 4 35 17 32 11 -2 17 -12
16 -26z m-43 9 c0 -12 -100 -54 -108 -45 -4 4 -2 8 3 11 6 2 28 12 50 22 46
22 55 24 55 12z m4099 -40 c12 -7 12 -13 3 -24 -7 -7 -9 -17 -5 -20 3 -4 -1
-7 -10 -7 -11 0 -15 9 -15 30 1 32 5 35 27 21z m-2269 -35 c0 -17 5 -47 11
-66 6 -19 12 -91 13 -160 1 -120 0 -125 -24 -151 -14 -14 -33 -29 -44 -33 -11
-4 -16 -12 -12 -22 3 -8 -3 -27 -14 -42 -20 -27 -20 -29 -4 -62 9 -19 26 -45
37 -58 19 -21 27 -22 91 -17 38 4 74 9 78 11 5 3 29 -13 54 -36 l46 -42 24 52
c17 37 24 70 24 113 0 33 2 58 4 56 8 -8 10 -124 3 -145 -9 -26 18 -41 39 -23
21 17 29 76 13 96 -11 13 -11 17 -1 20 6 3 12 20 12 39 0 23 4 33 11 28 8 -4
9 -30 5 -80 -8 -92 -12 -102 -53 -141 l-33 -31 29 -7 c23 -5 41 -24 79 -83 65
-99 77 -158 63 -297 -7 -70 -7 -103 1 -112 7 -9 7 -13 -1 -13 -6 0 -11 4 -11
8 0 5 -12 13 -27 19 -24 9 -25 11 -7 12 18 1 22 9 28 62 16 156 1 229 -67 324
-34 47 -50 62 -83 71 -60 17 -86 32 -114 65 l-25 30 -71 -12 c-92 -15 -119 -2
-158 75 -20 39 -36 58 -57 65 -16 5 -29 14 -29 19 0 30 92 101 124 95 25 -5
42 10 31 27 -5 8 -11 8 -20 0 -8 -7 -16 -7 -19 -2 -7 12 22 24 36 16 19 -12
28 21 28 106 0 79 -19 192 -34 207 -4 4 -22 7 -41 7 -21 0 -31 4 -27 11 16 26
29 34 60 33 29 -1 32 -4 32 -32z m1580 -11 c0 -8 -9 -15 -20 -15 -20 0 -26 11
-13 23 12 13 33 7 33 -8z m-3720 -5 c0 -5 -4 -10 -10 -10 -5 0 -10 5 -10 10 0
6 5 10 10 10 6 0 10 -4 10 -10z m4384 -21 c-8 -13 -24 -1 -24 18 0 13 3 13 15
3 8 -7 12 -16 9 -21z m-4749 1 c3 -6 -1 -7 -9 -4 -18 7 -21 14 -7 14 6 0 13
-4 16 -10z m-44 -49 c-7 -12 -26 -22 -51 -26 -40 -7 -40 -7 -40 -51 0 -43 -1
-44 -32 -43 -24 1 -27 3 -10 6 19 4 22 11 22 49 0 37 3 44 23 48 12 3 34 7 48
10 18 4 29 15 34 33 6 20 9 23 12 11 2 -9 0 -26 -6 -37z m1799 39 c0 -5 -9
-10 -21 -10 -11 0 -17 5 -14 10 3 6 13 10 21 10 8 0 14 -4 14 -10z m180 0 c0
-5 -15 -10 -32 -9 -28 0 -30 2 -13 9 28 12 45 12 45 0z m2200 -20 c0 -6 -50
-10 -131 -10 -84 0 -128 4 -124 10 4 6 58 10 131 10 76 0 124 -4 124 -10z
m-5750 -15 c0 -10 10 -15 31 -15 17 0 28 4 24 10 -3 6 -1 10 4 10 6 0 11 -4
11 -10 0 -5 6 -10 13 -10 12 0 50 -70 42 -78 -2 -2 -14 3 -26 12 -21 15 -25
14 -44 -4 -12 -12 -29 -18 -37 -15 -16 6 -41 115 -26 115 4 0 8 -7 8 -15z
m2407 -5 c1 -16 -4 -20 -28 -20 -33 0 -36 7 -11 26 24 19 38 17 39 -6z m1933
5 c0 -9 -9 -15 -25 -15 -26 0 -34 15 -12 23 23 10 37 7 37 -8z m1097 8 c-20
-2 -52 -2 -70 0 -17 2 0 4 38 4 39 0 53 -2 32 -4z m-337 -13 c0 -6 -38 -10
-95 -10 -57 0 -95 4 -95 10 0 6 38 10 95 10 57 0 95 -4 95 -10z m-1340 -40 c0
-16 7 -20 30 -20 34 0 70 -30 70 -58 0 -10 11 -29 25 -42 14 -13 25 -18 25
-12 0 7 9 12 21 12 11 0 17 5 14 10 -14 23 16 7 59 -31 30 -27 46 -49 45 -63
-2 -21 -2 -21 -6 1 -2 12 -12 25 -22 28 -10 3 -26 14 -36 25 -19 21 -65 28
-65 10 0 -16 -19 -12 -51 11 -20 14 -29 29 -29 49 0 33 -10 42 -60 50 -26 4
-36 11 -38 28 -2 12 1 22 7 22 6 0 11 -9 11 -20z m-1045 -42 c-4 -49 -4 -50
-14 -44 -13 8 -1 76 13 76 2 0 2 -15 1 -32z m1898 -14 c11 -15 35 -33 53 -40
31 -13 72 -59 62 -69 -2 -2 -18 9 -35 25 -17 16 -43 32 -57 36 -14 3 -24 10
-21 14 3 5 1 11 -3 14 -5 3 -26 -33 -47 -79 -21 -47 -42 -85 -46 -85 -13 0
-13 1 26 85 20 43 35 84 34 94 -4 39 5 41 34 5z m-2193 -65 c-101 -93 -115
-87 -17 7 43 42 82 73 85 69 4 -4 -27 -38 -68 -76z m-2290 -26 c0 -9 -6 -13
-15 -9 -9 3 -15 0 -15 -9 0 -15 -38 -55 -52 -55 -16 0 -7 19 12 25 11 3 20 10
20 15 0 5 4 20 10 34 10 27 40 27 40 -1z m637 -7 c-6 -16 -37 -12 -37 5 0 4 7
6 15 3 8 -4 15 -1 15 7 0 7 3 10 6 6 4 -3 4 -13 1 -21z m2743 -1 c10 -12 10
-15 -3 -15 -8 0 -20 7 -27 15 -10 12 -10 15 3 15 8 0 20 -7 27 -15z m-2085
-52 c9 -22 13 -49 10 -65 -10 -41 -20 -34 -21 15 0 23 -4 52 -9 65 -12 37 4
25 20 -15z m1515 30 c-1 -23 -18 -33 -48 -27 -18 4 -32 10 -32 15 0 5 14 6 30
3 19 -4 30 -2 30 5 0 6 5 11 10 11 6 0 10 -3 10 -7z m1853 -10 c-26 -17 -30
-45 -9 -62 7 -6 11 -22 8 -36 -6 -36 13 -31 41 10 l24 35 23 -25 c12 -13 32
-25 43 -27 24 -4 36 -28 13 -28 -22 0 -20 -23 4 -45 26 -23 26 -57 0 -73 -25
-15 -40 -8 -40 19 0 11 -7 22 -15 25 -8 4 -15 12 -15 20 0 18 -62 44 -109 45
-31 1 -33 2 -11 8 30 8 39 51 16 71 -9 7 -16 25 -16 41 0 23 5 28 28 32 15 2
29 4 32 5 3 1 -5 -6 -17 -15z m-4023 -12 c0 -11 -4 -23 -10 -26 -6 -4 -10 5
-10 19 0 14 5 26 10 26 6 0 10 -9 10 -19z m618 -21 c-3 -23 -1 -30 9 -26 7 3
13 -1 13 -10 0 -12 -7 -15 -27 -11 -20 4 -36 -2 -56 -19 -48 -41 -55 -26 -7
16 25 21 48 39 53 40 4 0 7 9 7 20 0 11 3 20 6 20 4 0 4 -14 2 -30z m2156 14
c4 -10 1 -14 -6 -12 -15 5 -23 28 -10 28 5 0 13 -7 16 -16z m-179 -24 c-3 -5
-11 -10 -16 -10 -6 0 -7 5 -4 10 3 6 11 10 16 10 6 0 7 -4 4 -10z m-1455 -24
c-6 -12 -368 -8 -407 4 -17 5 61 8 192 7 134 -1 218 -6 215 -11z m280 -6 c0
-12 -107 -12 -135 0 -14 6 5 9 58 9 45 1 77 -3 77 -9z m-822 -52 c9 -9 7 -14
-6 -24 -9 -8 -23 -14 -31 -14 -8 0 -23 -7 -33 -17 -10 -9 -18 -12 -18 -7 0 17
15 31 45 42 17 6 24 11 17 11 -7 1 -10 6 -7 11 8 13 18 13 33 -2z m-118 -66
c-12 -65 -53 -148 -81 -162 -13 -7 -36 -9 -62 -4 -62 11 -90 6 -112 -22 -11
-14 -42 -49 -68 -79 -47 -52 -77 -117 -57 -123 24 -8 7 -22 -27 -22 -29 0 -34
-3 -25 -12 7 -7 12 -34 12 -62 0 -31 6 -56 16 -67 12 -14 13 -24 6 -53 -10
-35 -10 -36 17 -36 21 0 35 -11 61 -47 32 -46 33 -47 43 -25 12 26 52 30 61 6
3 -9 6 -28 6 -43 0 -21 8 -31 33 -43 l33 -16 -8 -77 -8 -78 38 -65 c31 -56 43
-67 71 -73 18 -4 38 -12 44 -18 6 -6 15 -11 19 -11 4 0 8 88 8 195 0 123 4
195 10 195 6 0 10 -53 11 -137 0 -76 3 -132 6 -125 8 19 23 14 23 -8 0 -11 5
-20 10 -20 18 0 10 -17 -14 -28 -14 -6 -26 -22 -30 -43 -7 -38 -3 -45 15 -26
8 7 22 16 32 20 9 3 17 15 17 26 0 35 18 32 24 -3 4 -19 13 -39 21 -46 25 -21
17 -30 -25 -30 -29 0 -40 -4 -40 -15 0 -18 -17 -20 -22 -3 -2 6 -14 13 -26 14
-12 2 -27 5 -34 6 -9 2 -13 -9 -13 -32 0 -21 5 -34 11 -33 12 2 27 -64 18 -79
-11 -18 -25 5 -19 31 5 21 4 24 -7 13 -7 -7 -13 -35 -13 -62 0 -63 24 -88 120
-131 67 -29 75 -35 82 -68 8 -34 11 -36 53 -38 53 -3 86 -33 70 -63 -15 -27
-12 -37 9 -43 28 -7 51 23 51 64 0 28 9 43 40 74 38 37 40 42 40 100 0 49 -4
66 -20 80 -11 10 -20 24 -20 31 0 7 -9 18 -19 24 -11 5 -25 25 -31 44 -6 19
-16 37 -23 39 -9 3 -9 8 1 20 15 18 19 84 8 135 -5 22 -15 34 -31 38 -15 4
-31 21 -42 42 -15 31 -25 39 -60 46 -24 5 -43 13 -43 18 0 6 6 8 14 5 8 -3 30
-9 49 -12 28 -6 38 -14 53 -47 16 -35 21 -39 44 -34 26 5 27 4 36 -75 5 -46 6
-86 1 -95 -13 -24 11 -102 34 -109 11 -4 19 -13 19 -21 0 -25 38 -15 60 16 13
18 33 32 53 35 22 4 42 19 62 47 17 22 87 95 156 162 l126 121 134 59 c131 58
219 119 219 153 0 8 12 19 26 25 14 7 32 25 40 41 8 15 30 45 48 65 44 49 64
94 72 156 4 28 13 58 21 68 11 12 14 37 11 97 -2 45 0 81 5 81 4 0 7 -18 7
-39 0 -22 4 -42 9 -46 14 -8 1 -77 -21 -104 -19 -25 -25 -71 -8 -71 19 0 10
-38 -15 -68 -14 -17 -25 -35 -25 -41 0 -20 -104 -138 -127 -145 -13 -4 -23
-12 -23 -19 0 -7 -21 -34 -47 -59 -36 -35 -81 -61 -182 -107 -124 -57 -141
-68 -235 -155 -56 -52 -128 -126 -161 -165 -47 -56 -65 -71 -86 -71 -45 0 -69
-50 -69 -147 l0 -79 -40 -39 c-32 -31 -40 -46 -40 -75 0 -47 -37 -85 -73 -76
-22 5 -24 3 -19 -22 2 -15 19 -43 37 -62 21 -22 35 -50 40 -76 l6 -41 50 8
c62 10 119 -12 119 -45 0 -52 11 -64 63 -77 75 -17 83 -23 98 -74 11 -38 16
-43 25 -30 22 30 74 12 74 -26 0 -9 14 -22 30 -29 23 -10 30 -19 30 -41 0 -17
8 -34 22 -43 20 -14 20 -16 4 -16 -23 0 -45 28 -46 58 0 15 -9 26 -25 32 -14
5 -25 14 -25 19 0 6 -20 8 -50 4 l-50 -6 0 36 c0 54 -18 85 -54 92 -101 21
-103 22 -109 67 -8 59 -28 71 -103 62 -57 -6 -63 -4 -69 15 -4 15 -15 21 -36
21 -16 0 -29 5 -29 10 0 6 3 10 8 10 4 0 13 9 20 21 10 16 10 24 1 35 -6 7
-15 11 -20 8 -5 -3 -9 -2 -8 3 1 4 -3 21 -9 36 -7 16 -12 35 -12 43 0 9 -5 12
-11 8 -7 -4 -7 1 1 16 11 21 11 22 -11 17 -13 -4 -35 -7 -49 -7 -20 0 -29 -9
-42 -43 -10 -23 -18 -52 -18 -65 0 -25 -3 -26 -31 -12 -21 12 -26 32 -6 24 9
-3 22 16 39 56 l27 60 49 0 c44 0 50 2 45 19 -3 12 -19 21 -46 27 -37 8 -42
13 -50 47 -8 34 -16 41 -81 74 -48 24 -84 36 -111 35 -34 -1 -37 1 -19 10 20
9 20 12 7 51 -8 24 -11 51 -7 66 4 14 8 61 9 104 3 74 -1 83 -29 78 -4 -1 -15
4 -23 10 -23 20 -93 146 -89 161 2 7 7 39 10 70 6 56 6 56 -30 78 -31 20 -34
26 -29 51 5 22 2 31 -10 36 -11 4 -21 0 -27 -10 -14 -27 -34 -20 -68 23 -24
31 -39 40 -62 40 l-30 0 7 48 c5 38 3 51 -9 61 -11 9 -16 30 -16 65 0 29 -5
57 -12 64 -7 7 -41 12 -84 12 -40 0 -76 5 -79 10 -4 6 10 10 34 10 23 0 41 5
44 13 2 6 3 4 2 -5 -5 -28 56 -24 74 5 10 17 11 19 0 10 -24 -23 -33 -14 -11
10 16 16 30 22 50 20 21 -3 29 1 39 22 6 15 9 33 6 41 -3 8 0 14 6 14 6 0 11
-5 11 -12 0 -17 47 30 78 79 22 36 33 43 67 48 22 3 54 2 70 -3 48 -15 109 27
88 60 -3 6 -1 8 4 5 12 -8 29 30 38 88 4 22 9 44 12 48 11 18 13 -2 3 -51z
m2302 28 c3 -16 1 -30 -4 -30 -4 0 -8 6 -8 14 0 8 -3 21 -6 30 -3 9 -2 16 4
16 5 0 12 -13 14 -30z m-2691 -30 c5 0 9 -7 9 -15 0 -10 -10 -15 -32 -14 -31
1 -32 1 -8 9 17 5 19 8 8 9 -10 1 -18 6 -18 12 0 6 7 8 16 5 9 -3 20 -6 25 -6z
m739 -34 c0 -3 -4 -8 -10 -11 -5 -3 -10 -1 -10 4 0 6 5 11 10 11 6 0 10 -2 10
-4z m3820 -7 c0 -8 -23 -10 -79 -5 -66 6 -84 4 -105 -10 -29 -18 -36 -9 -8 12
22 17 192 19 192 3z m60 1 c0 -5 -9 -10 -20 -10 -11 0 -20 5 -20 10 0 6 9 10
20 10 11 0 20 -4 20 -10z m-1924 -27 c-10 -10 -19 5 -10 18 6 11 8 11 12 0 2
-7 1 -15 -2 -18z m-3698 -53 c2 -18 11 -44 19 -57 14 -21 14 -26 2 -38 -12
-11 -18 -8 -38 17 -24 30 -24 30 -3 19 12 -6 22 -17 23 -24 0 -8 2 -8 6 1 3 7
-2 19 -10 25 -18 15 -31 100 -14 94 7 -2 13 -18 15 -37z m6833 12 c-5 -10 -13
-69 -17 -130 -4 -62 -11 -112 -15 -112 -11 0 1 219 13 243 5 9 13 17 19 17 6
0 6 -6 0 -18z m-3108 -17 c3 -16 0 -24 -7 -22 -14 4 -21 47 -8 47 5 0 12 -11
15 -25z m-3853 -11 c0 -8 -4 -12 -10 -9 -5 3 -10 13 -10 21 0 8 5 12 10 9 6
-3 10 -13 10 -21z m30 5 c0 -11 -4 -17 -10 -14 -5 3 -10 13 -10 21 0 8 5 14
10 14 6 0 10 -9 10 -21z m48 -17 c2 -7 -2 -10 -12 -6 -9 3 -16 11 -16 16 0 13
23 5 28 -10z m-27 -45 c-8 -8 -11 -7 -11 4 0 20 13 34 18 19 3 -7 -1 -17 -7
-23z m-41 1 c0 -19 -2 -20 -10 -8 -13 19 -13 30 0 30 6 0 10 -10 10 -22z m-40
-42 c0 -12 5 -12 31 1 35 17 46 13 30 -14 -6 -10 -11 -13 -11 -6 0 7 -7 10
-15 7 -8 -4 -12 -10 -9 -15 3 -5 -1 -9 -9 -9 -15 0 -27 -59 -27 -131 0 -22 -4
-39 -10 -39 -6 0 -8 29 -5 73 2 39 5 89 5 110 0 20 5 37 10 37 6 0 10 -6 10
-14z m870 9 c0 -17 -83 -91 -125 -111 -27 -13 -101 -62 -164 -109 -82 -61
-133 -90 -180 -106 -36 -12 -75 -29 -85 -38 -18 -15 -19 -15 -13 2 4 12 1 17
-11 17 -9 0 -24 5 -32 11 -11 8 -5 9 25 6 71 -7 160 28 275 110 58 41 110 81
115 87 6 7 35 24 66 38 34 15 67 40 84 62 24 32 45 46 45 31z m284 -24 c3 -5
-1 -12 -10 -15 -22 -9 -24 -8 -24 9 0 16 25 21 34 6z m-29 -35 c30 -11 35 -16
23 -20 -46 -15 -79 -35 -91 -53 -15 -23 -27 -14 -17 12 11 29 -3 35 -19 8 -9
-16 -10 -16 -11 5 0 13 6 22 15 22 8 0 15 7 15 15 0 8 5 15 11 15 6 0 9 -7 5
-15 -4 -11 1 -15 19 -15 14 0 25 5 25 10 0 6 -7 10 -15 10 -8 0 -15 5 -15 10
0 13 7 12 55 -4z m2705 -43 c0 -22 -17 -50 -25 -42 -5 6 14 59 22 59 1 0 3 -8
3 -17z m-3050 -100 c0 -16 2 -72 5 -126 4 -97 4 -98 -21 -107 -14 -6 -30 -10
-35 -10 -5 0 -9 49 -9 111 0 102 2 113 23 135 29 31 37 30 37 -3z m240 -59 c0
-10 -31 -36 -37 -31 -10 10 6 37 22 37 8 0 15 -3 15 -6z m70 -39 c0 -8 -2 -15
-4 -15 -2 0 -6 7 -10 15 -3 8 -1 15 4 15 6 0 10 -7 10 -15z m5088 -45 c16 -1
16 -1 0 -11 -11 -6 -24 -6 -35 -1 -10 5 -24 7 -30 5 -7 -3 -13 2 -13 10 0 20
31 26 48 10 7 -7 21 -13 30 -13z m-5503 -9 c5 6 12 4 20 -8 18 -24 3 -38 -24
-23 -31 16 -60 5 -53 -22 3 -14 1 -19 -6 -14 -16 10 -15 23 6 51 13 17 21 21
34 14 11 -6 19 -5 23 2z m2 -71 c6 0 17 -8 24 -17 12 -15 12 -16 -6 -10 -20 7
-20 7 -1 -8 11 -8 22 -11 25 -7 9 12 34 8 38 -5 3 -9 -8 -12 -40 -9 -54 4 -72
13 -58 30 7 8 4 15 -10 24 -10 7 -19 17 -19 24 0 6 7 4 18 -5 10 -10 23 -17
29 -17z m2241 -8 c3 -17 -2 -22 -17 -22 -12 0 -21 6 -21 15 0 8 5 15 11 15 5
0 7 5 3 11 -4 7 -1 10 7 7 8 -3 15 -14 17 -26z m-2288 -22 c12 -8 11 -10 -7
-10 -13 0 -23 5 -23 10 0 13 11 13 30 0z m5365 -40 c0 -7 -5 -15 -12 -17 -7
-3 -11 4 -10 16 1 23 22 23 22 1z m-1091 -6 c9 -24 7 -28 -9 -14 -17 14 -20
30 -6 30 5 0 12 -7 15 -16z m-1034 -10 c0 -14 3 -14 15 -4 13 11 15 8 15 -13
0 -14 4 -37 10 -51 8 -22 7 -26 -9 -26 -10 0 -26 11 -35 25 -18 27 -22 85 -6
85 6 0 10 -7 10 -16z m1528 -6 c16 -16 15 -29 -2 -22 -16 6 -30 34 -18 34 5 0
13 -5 20 -12z m-2533 -18 c3 -5 2 -10 -4 -10 -5 0 -13 5 -16 10 -3 6 -2 10 4
10 5 0 13 -4 16 -10z m2508 -24 c-5 -10 -13 -12 -23 -6 -11 7 -12 11 0 25 16
20 36 4 23 -19z m-425 6 c6 -18 -15 -14 -22 4 -4 10 -1 14 6 12 6 -2 14 -10
16 -16z m1037 -1 c-3 -6 -14 -11 -23 -11 -15 1 -15 2 2 15 21 16 32 13 21 -4z
m-655 -1 c0 -5 -4 -10 -10 -10 -5 0 -10 5 -10 10 0 6 5 10 10 10 6 0 10 -4 10
-10z m90 -10 c0 -5 -10 -10 -22 -10 -19 0 -20 2 -8 10 19 13 30 13 30 0z m535
-20 c3 -5 -3 -10 -15 -10 -12 0 -18 5 -15 10 3 6 10 10 15 10 5 0 12 -4 15
-10z m-46 -61 c-21 -13 -27 -11 -39 11 -13 25 4 27 20 3 10 -15 11 -15 6 -1
-7 23 6 32 17 12 6 -11 5 -19 -4 -25z m-1298 -39 c4 0 6 -7 3 -15 -4 -8 -1
-15 5 -15 6 0 11 -11 11 -25 0 -27 -1 -28 -25 -19 -13 5 -14 8 -3 15 9 6 5 9
-14 9 -33 0 -38 8 -27 39 6 15 14 21 25 17 9 -3 20 -6 25 -6z m69 -30 c0 -5
-4 -10 -10 -10 -5 0 -10 5 -10 10 0 6 5 10 10 10 6 0 10 -4 10 -10z m-2430
-110 c0 -4 -13 -7 -30 -8 -32 -1 -33 1 -24 36 l7 23 23 -22 c13 -12 24 -26 24
-29z m3593 33 c31 -17 31 -18 8 -21 -13 -2 -28 2 -32 10 -7 10 -9 9 -9 -5 0
-10 -4 -16 -9 -13 -7 5 -8 23 -2 44 2 5 14 1 44 -15z m7 -65 c0 -19 -2 -20
-10 -8 -13 19 -13 30 0 30 6 0 10 -10 10 -22z m-2932 -40 c11 -38 7 -44 -29
-53 -23 -6 -27 -3 -33 19 -5 19 -13 26 -30 26 -19 0 -23 4 -19 20 4 17 14 20
54 20 46 0 49 -2 57 -32z m2819 0 c-3 -7 -5 -2 -5 12 0 14 2 19 5 13 2 -7 2
-19 0 -25z m-1557 -58 c0 -5 -4 -10 -10 -10 -5 0 -10 5 -10 10 0 6 5 10 10 10
6 0 10 -4 10 -10z m-1430 -30 c0 -26 -3 -29 -17 -22 -24 14 -25 52 -1 52 13 0
18 -8 18 -30z m1358 10 c15 0 15 2 2 10 -12 8 -9 10 13 10 15 0 27 -4 27 -10
0 -5 30 -11 68 -12 l67 -2 -60 -3 c-33 -2 -63 -10 -68 -16 -7 -9 -10 -9 -14 1
-2 6 -20 12 -38 12 -39 0 -65 8 -65 21 0 5 12 4 26 -1 14 -6 33 -10 42 -10z
m56 -65 c3 -8 1 -15 -4 -15 -6 0 -10 7 -10 15 0 8 2 15 4 15 2 0 6 -7 10 -15z
m-1124 -14 c0 -5 -18 -11 -40 -13 -37 -3 -48 1 -35 14 9 9 75 8 75 -1z m1063
-78 c7 -6 -11 -33 -22 -33 -4 0 -7 9 -7 20 0 19 16 27 29 13z m1557 -9 c0 -8
-4 -12 -10 -9 -5 3 -10 10 -10 16 0 5 5 9 10 9 6 0 10 -7 10 -16z m-3859 -14
c5 0 9 -4 9 -10 0 -5 -10 -10 -23 -10 -13 0 -28 -5 -35 -12 -15 -15 -16 -3 -1
23 6 12 17 18 26 15 8 -3 19 -6 24 -6z m3844 -21 c-10 -15 -25 -10 -19 6 4 8
10 12 15 9 5 -3 7 -10 4 -15z m-145 2 c0 -5 -7 -11 -15 -15 -15 -5 -20 5 -8
17 9 10 23 9 23 -2z m-58 -43 c-6 -6 -15 -8 -19 -4 -4 4 -1 11 7 16 19 12 27
3 12 -12z m101 15 c-7 -2 -19 -2 -25 0 -7 3 -2 5 12 5 14 0 19 -2 13 -5z m62
-3 c-3 -5 -13 -10 -21 -10 -8 0 -14 5 -14 10 0 6 9 10 21 10 11 0 17 -4 14
-10z m-2259 -27 c-10 -10 -19 5 -10 18 6 11 8 11 12 0 2 -7 1 -15 -2 -18z
m3958 -149 c9 -3 16 -10 16 -14 0 -10 -38 -1 -46 11 -6 10 7 12 30 3z m-3264
-279 c0 -170 -4 -265 -10 -265 -6 0 -10 95 -10 265 0 170 4 265 10 265 6 0 10
-95 10 -265z m-2703 223 c-8 -23 -12 -28 -15 -15 -2 9 -12 17 -23 17 -29 0
-23 18 9 23 15 2 30 5 34 6 4 0 2 -14 -5 -31z m1011 -115 c-2 -82 1 -156 6
-165 5 -12 4 -18 -3 -18 -6 0 -15 11 -20 23 -11 29 -1 307 11 307 4 0 7 -66 6
-147z m3662 123 c0 -14 7 -26 18 -28 29 -8 70 -97 65 -140 -5 -37 -7 -38 -44
-38 -21 0 -39 5 -39 10 0 6 16 10 35 10 31 0 35 3 35 25 0 28 -36 106 -54 117
-7 5 -15 -11 -22 -45 l-12 -52 -1 73 c-1 58 -4 72 -17 72 -8 0 -12 5 -9 10 3
6 15 10 26 10 13 0 19 -7 19 -24z m1370 -38 c0 -6 -5 -26 -12 -44 -10 -28 -9
-36 5 -52 9 -10 17 -27 17 -38 0 -11 16 -35 35 -54 41 -40 47 -86 15 -115 -11
-10 -20 -13 -20 -7 0 6 5 14 10 17 22 14 11 71 -20 100 -17 16 -30 39 -30 52
0 13 -7 26 -15 29 -8 4 -15 12 -15 20 0 8 -6 11 -17 7 -14 -6 -13 -1 5 29 12
19 22 43 22 52 0 9 5 16 10 16 6 0 10 -5 10 -12z m160 -106 c0 -7 -4 -10 -10
-7 -5 3 -10 16 -10 28 0 18 2 19 10 7 5 -8 10 -21 10 -28z m0 -47 c-7 -9 -15
-13 -18 -10 -3 2 1 11 8 20 7 9 15 13 18 10 3 -2 -1 -11 -8 -20z m-4 -41 c-3
-9 -6 -23 -6 -31 0 -26 -15 -4 -15 23 -1 14 5 24 13 24 9 0 12 -6 8 -16z m19
-74 c3 -5 2 -10 -4 -10 -5 0 -13 5 -16 10 -3 6 -2 10 4 10 5 0 13 -4 16 -10z
m35 -11 c0 -5 -14 -15 -31 -21 -21 -7 -36 -22 -45 -44 -14 -33 -59 -72 -70
-61 -3 3 6 13 20 22 14 9 30 31 36 48 9 28 30 44 88 66 1 1 2 -4 2 -10z
m-2629 -181 c9 -17 8 -18 -10 -6 -25 15 -36 39 -15 31 8 -3 19 -14 25 -25z
m-961 -29 c0 -6 -4 -7 -10 -4 -5 3 -10 11 -10 16 0 6 5 7 10 4 6 -3 10 -11 10
-16z m1040 10 c0 -5 -13 -9 -30 -9 -16 0 -30 4 -30 8 0 5 14 9 30 10 17 0 30
-4 30 -9z m1793 -48 c41 -18 69 -21 173 -21 76 0 124 -4 124 -10 0 -6 -48 -10
-123 -10 -109 0 -131 3 -185 25 -50 20 -79 25 -152 25 -61 0 -90 4 -90 11 0
20 197 5 253 -20z m-6396 13 c-3 -3 -12 -4 -19 -1 -8 3 -5 6 6 6 11 1 17 -2
13 -5z m2908 -14 c3 -5 1 -10 -4 -10 -6 0 -11 5 -11 10 0 6 2 10 4 10 3 0 8
-4 11 -10z m-2497 -27 c-10 -2 -26 -2 -35 0 -10 3 -2 5 17 5 19 0 27 -2 18 -5z
m2530 -11 c25 -1 52 -19 52 -33 0 -5 -17 -9 -39 -9 -28 0 -40 5 -45 18 -3 9
-9 24 -13 32 -5 12 -3 13 8 4 8 -6 24 -11 37 -12z m-808 -2 c0 -12 -37 -12
-65 0 -15 7 -10 9 23 9 23 1 42 -3 42 -9z m1470 -125 c0 -43 -4 -75 -10 -75
-6 0 -10 32 -10 75 0 43 4 75 10 75 6 0 10 -32 10 -75z m1341 47 c-6 -2 -9 -8
-6 -12 3 -5 16 -5 30 0 19 7 25 6 25 -5 0 -22 -52 -23 -75 0 -17 17 -18 21 -5
32 11 8 18 8 29 0 9 -8 10 -12 2 -15z m-2166 -72 c34 -6 -8 -8 -133 -6 -101 2
-185 -1 -188 -6 -3 -4 -31 -7 -62 -6 l-57 2 50 3 c28 2 54 8 60 14 11 11 261
10 330 -1z m2595 -55 c-27 -14 -36 -13 -25 4 3 6 16 11 28 11 21 -1 21 -1 -3
-15z m-40 -25 c0 -5 -6 -10 -14 -10 -8 0 -18 5 -21 10 -3 6 3 10 14 10 12 0
21 -4 21 -10z m-167 -55 c10 -14 15 -25 11 -25 -11 0 -44 32 -44 42 0 15 15 8
33 -17z m-3346 -42 c-3 -10 -5 -4 -5 12 0 17 2 24 5 18 2 -7 2 -21 0 -30z"/>
<path d="M5873 4530 c-13 -5 -23 -14 -23 -20 0 -6 11 -3 25 6 14 9 25 18 25
20 0 5 0 5 -27 -6z"/>
<path d="M5801 4496 c-15 -8 -20 -16 -12 -20 6 -4 11 -2 11 4 0 7 8 9 20 5 14
-5 20 -2 20 9 0 19 -7 19 -39 2z"/>
<path d="M5880 4500 c-9 -6 -10 -10 -3 -10 6 0 15 5 18 10 8 12 4 12 -15 0z"/>
<path d="M5870 4470 c-13 -8 -12 -10 3 -10 9 0 17 5 17 10 0 12 -1 12 -20 0z"/>
<path d="M6222 4393 c-12 -23 3 -63 22 -63 21 0 48 43 40 64 -8 21 -51 21 -62
-1z"/>
<path d="M7066 4222 c-2 -4 13 -6 35 -4 21 2 39 6 39 8 0 7 -69 4 -74 -4z"/>
<path d="M3626 3861 c-17 -6 -17 -8 -3 -14 8 -3 21 1 27 9 13 15 6 17 -24 5z"/>
<path d="M5720 3870 c20 -13 33 -13 25 0 -3 6 -14 10 -23 10 -15 0 -15 -2 -2
-10z"/>
<path d="M4088 3803 c-11 -3 -18 -14 -18 -29 0 -22 3 -24 55 -24 42 0 55 4 55
15 0 24 -32 35 -55 19 -28 -21 -41 -17 -20 6 18 20 16 22 -17 13z"/>
<path d="M4220 3465 c0 -63 1 -65 26 -65 22 0 25 4 22 28 -2 16 -8 26 -17 24
-9 -2 -11 3 -7 13 7 20 -3 65 -15 65 -5 0 -9 -29 -9 -65z"/>
<path d="M4255 3330 c-21 -23 -34 -120 -16 -120 6 0 13 12 17 28 3 15 10 44
16 66 11 46 7 53 -17 26z"/>
<path d="M3700 3060 c0 -5 5 -10 10 -10 6 0 10 5 10 10 0 6 -4 10 -10 10 -5 0
-10 -4 -10 -10z"/>
<path d="M6910 3820 c0 -5 10 -10 23 -10 18 0 19 2 7 10 -19 13 -30 13 -30 0z"/>
<path d="M2160 3625 c0 -9 5 -15 11 -13 6 2 11 8 11 13 0 5 -5 11 -11 13 -6 2
-11 -4 -11 -13z"/>
<path d="M2836 3334 c-4 -9 -4 -19 -1 -22 2 -3 7 3 11 12 4 9 4 19 1 22 -2 3
-7 -3 -11 -12z"/>
<path d="M4600 3230 c0 -5 5 -10 11 -10 5 0 7 5 4 10 -3 6 -8 10 -11 10 -2 0
-4 -4 -4 -10z"/>
<path d="M4616 2728 c-18 -25 -20 -38 -7 -38 5 0 14 14 20 30 12 36 8 38 -13
8z"/>
<path d="M4566 2701 c-18 -20 -15 -41 6 -41 6 0 8 3 5 6 -3 4 -2 15 4 26 15
27 6 32 -15 9z"/>
<path d="M4963 2482 c-3 -9 -8 -20 -10 -24 -2 -4 6 -4 18 1 28 10 35 27 14 35
-10 3 -18 -1 -22 -12z"/>
<path d="M622 3021 c-10 -6 -6 -10 15 -14 32 -6 38 -3 28 12 -7 13 -25 14 -43
2z"/>
<path d="M597 2990 c3 -11 9 -20 15 -20 5 0 4 9 -2 20 -6 11 -12 20 -14 20 -2
0 -2 -9 1 -20z"/>
<path d="M5421 2709 c-11 -18 -11 -23 1 -30 18 -12 28 -11 28 1 0 6 4 10 9 10
5 0 9 -12 9 -27 0 -14 6 -31 14 -37 7 -6 12 -19 10 -30 -3 -12 1 -17 10 -14
22 8 21 38 -2 63 -12 13 -20 29 -18 36 5 15 -21 49 -37 49 -6 0 -16 -10 -24
-21z"/>
<path d="M1380 2240 c0 -5 6 -10 14 -10 8 0 18 5 21 10 3 6 -3 10 -14 10 -12
0 -21 -4 -21 -10z"/>
<path d="M2100 1041 c0 -5 5 -13 10 -16 6 -3 10 -2 10 4 0 5 -4 13 -10 16 -5
3 -10 2 -10 -4z"/>
<path d="M2156 805 c-3 -9 0 -15 9 -15 16 0 20 16 6 24 -5 3 -11 -1 -15 -9z"/>
<path d="M2565 521 c-10 -17 11 -21 31 -6 18 14 18 14 -3 15 -12 0 -24 -4 -28
-9z"/>
<path d="M1043 2045 c0 -27 2 -38 4 -22 2 15 2 37 0 50 -2 12 -4 0 -4 -28z"/>
<path d="M4156 1852 c-2 -4 -1 -14 5 -22 7 -12 9 -10 9 8 0 23 -5 28 -14 14z"/>
<path d="M7844 5377 c3 -12 8 -39 11 -59 10 -61 25 -55 25 10 0 51 -3 60 -20
65 -16 4 -19 1 -16 -16z"/>
<path d="M7896 5257 c-9 -35 -8 -37 27 -36 17 1 24 3 15 6 -10 2 -18 13 -18
23 0 28 -17 33 -24 7z"/>
<path d="M7860 5245 c0 -8 5 -15 10 -15 6 0 10 7 10 15 0 8 -4 15 -10 15 -5 0
-10 -7 -10 -15z"/>
<path d="M7854 5186 c-6 -14 -8 -28 -4 -33 5 -4 10 -19 13 -33 2 -14 5 1 6 33
0 31 0 57 -1 57 -2 0 -8 -11 -14 -24z"/>
<path d="M7351 1994 c0 -11 3 -14 6 -6 3 7 2 16 -1 19 -3 4 -6 -2 -5 -13z"/>
<path d="M6350 1800 c0 -6 7 -10 15 -10 8 0 15 2 15 4 0 2 -7 6 -15 10 -8 3
-15 1 -15 -4z"/>
<path d="M7252 1730 l-23 -30 31 0 c27 0 30 3 30 30 0 17 -4 30 -8 30 -5 0
-18 -13 -30 -30z"/>
<path d="M5485 320 c3 -5 8 -10 11 -10 2 0 4 5 4 10 0 6 -5 10 -11 10 -5 0 -7
-4 -4 -10z"/>
<path d="M5250 295 c0 -18 8 -18 40 0 l25 14 -32 1 c-23 0 -33 -5 -33 -15z"/>
<path d="M5211 287 c-33 -17 -40 -40 -11 -35 13 1 27 13 31 26 5 12 7 22 6 22
-1 0 -13 -6 -26 -13z"/>
<path d="M5300 280 c-13 -8 -12 -10 3 -10 9 0 17 5 17 10 0 12 -1 12 -20 0z"/>
<path d="M5235 250 c-11 -17 5 -30 36 -30 18 0 28 5 27 13 -5 22 -52 35 -63
17z"/>
<path d="M5335 250 c3 -5 8 -10 11 -10 2 0 4 5 4 10 0 6 -5 10 -11 10 -5 0 -7
-4 -4 -10z"/>
</g>
</svg>
