<?xml version="1.0" standalone="no"?>
<!DOCTYPE svg PUBLIC "-//W3C//DTD SVG 20010904//EN"
 "http://www.w3.org/TR/2001/REC-SVG-20010904/DTD/svg10.dtd">
<svg version="1.0" xmlns="http://www.w3.org/2000/svg"
 width="800.000000pt" height="800.000000pt" viewBox="0 0 800.000000 800.000000"
 preserveAspectRatio="xMidYMid meet">
<metadata>
Created by potrace 1.16, written by Peter Selinger 2001-2019
</metadata>
<g transform="translate(0.000000,800.000000) scale(0.100000,-0.100000)"
fill="#000000" stroke="none">
<path d="M0 7940 c0 -47 3 -59 17 -63 16 -4 16 -5 -1 -6 -18 -1 -19 -2 -1 -21
10 -11 15 -23 11 -27 -4 -4 -11 -1 -16 7 -6 10 -10 -76 -10 -232 0 -273 -2
-265 60 -233 19 10 30 11 30 5 0 -14 -68 -43 -80 -35 -6 4 -10 -24 -10 -69 0
-62 3 -74 15 -70 8 3 17 14 20 24 3 10 12 21 20 24 18 6 19 1 5 -25 -7 -13 -7
-19 0 -19 5 0 10 -5 10 -11 0 -5 -4 -8 -10 -4 -5 3 -21 3 -35 -1 -25 -6 -25
-8 -24 -90 1 -71 4 -84 18 -84 14 -1 14 -2 -2 -14 -17 -13 -18 -49 -16 -610 1
-549 2 -596 17 -595 11 0 12 2 5 6 -16 6 -17 23 -3 23 6 0 15 -10 20 -22 5
-13 9 -17 9 -10 1 6 6 12 13 12 6 0 2 -10 -10 -23 -26 -28 -28 -37 -6 -37 8 0
12 -5 9 -11 -5 -7 -15 -5 -31 6 l-24 15 0 -429 c0 -399 1 -431 18 -440 16 -10
16 -10 0 -11 -16 0 -18 -13 -18 -136 0 -74 5 -144 10 -155 7 -12 7 -19 1 -19
-6 0 -9 -18 -8 -39 0 -22 5 -37 9 -35 4 3 8 -4 8 -15 0 -12 -4 -21 -10 -21 -7
0 -10 -748 -10 -2225 l0 -2225 2386 0 c2111 0 2385 2 2374 15 -7 8 -8 15 -2
15 5 0 15 -7 22 -15 9 -11 35 -15 106 -15 89 0 96 2 138 32 46 32 74 77 60 99
-4 7 -3 10 3 6 17 -10 53 95 53 153 0 38 -22 105 -32 95 -2 -3 -1 22 4 55 6
37 6 89 0 133 -6 46 -5 97 1 143 9 61 8 78 -7 118 -10 25 -22 46 -27 46 -4 0
-6 6 -3 14 3 7 -3 47 -14 87 -13 52 -16 83 -10 104 5 17 6 64 2 105 -5 68 -4
77 15 94 12 11 21 31 21 48 0 16 11 45 24 66 14 20 27 50 29 66 4 33 27 49 27
19 -1 -23 -35 -98 -49 -107 -6 -4 -11 -21 -11 -38 0 -16 -9 -42 -19 -57 -17
-23 -19 -42 -16 -161 1 -74 6 -144 10 -155 4 -11 10 -29 14 -40 5 -11 14 -36
21 -55 9 -24 14 -103 15 -255 1 -151 5 -232 14 -259 19 -55 8 -133 -30 -228
-25 -62 -40 -84 -68 -104 l-36 -24 1493 0 1492 0 0 4000 0 4000 -2640 0 -2640
0 0 -21 c0 -15 -5 -19 -15 -15 -9 3 -15 0 -15 -9 0 -9 -10 -16 -22 -16 -17 -1
-19 -2 -5 -6 25 -6 21 -18 -7 -19 -22 -2 -23 0 -15 35 12 52 12 51 -26 51 -22
0 -38 -6 -44 -17 -10 -17 -10 -17 -11 0 0 9 -4 17 -10 17 -5 0 -10 -4 -10 -10
0 -13 -41 -13 -74 0 -33 12 -33 3 3 -38 24 -29 29 -48 22 -83 -2 -9 -51 -6
-51 4 0 4 -4 7 -9 7 -4 0 -3 -18 2 -40 6 -22 8 -42 5 -45 -10 -11 -39 8 -34
22 4 11 1 13 -14 8 -14 -5 -20 -2 -20 9 0 9 -7 16 -15 16 -22 0 -18 17 5 23
12 3 20 14 20 26 0 25 17 28 24 4 4 -14 4 -14 3 2 -3 27 -46 33 -64 9 -10 -13
-16 -15 -24 -7 -13 13 -2 36 14 30 6 -2 21 5 32 15 16 16 17 20 6 28 -11 6 -8
9 10 13 20 3 19 5 -8 6 -27 1 -30 -2 -26 -20 5 -16 2 -20 -8 -17 -8 3 -13 11
-11 17 1 7 -13 0 -33 -16 -22 -18 -37 -40 -41 -61 -4 -18 -10 -35 -15 -37 -4
-3 -6 -13 -3 -23 5 -14 3 -14 -10 2 -9 11 -12 22 -7 26 5 3 12 17 16 31 6 24
3 27 -32 32 -21 4 -54 9 -73 13 -26 4 -31 3 -20 -5 8 -6 25 -11 37 -11 21 0
25 -13 10 -36 -4 -7 2 -15 16 -19 17 -5 18 -8 6 -11 -13 -4 -14 -10 -5 -38 9
-31 12 -32 24 -17 10 12 15 13 18 4 8 -18 34 -16 34 2 0 8 5 15 10 15 6 0 10
-3 10 -7 -1 -14 -27 -43 -39 -43 -7 0 -9 -9 -5 -25 5 -18 2 -25 -9 -25 -10 0
-13 7 -10 20 3 11 0 20 -6 20 -6 0 -11 -7 -11 -15 0 -8 -4 -15 -10 -15 -5 0
-10 -4 -10 -8 0 -4 28 -14 63 -22 34 -7 78 -20 97 -28 23 -10 63 -15 116 -13
68 1 90 -3 136 -24 30 -14 62 -33 71 -43 12 -13 28 -16 70 -14 l55 4 32 77
c40 100 36 121 -22 121 -15 0 -29 4 -32 9 -3 5 -35 15 -71 22 -36 7 -65 16
-65 20 0 10 28 19 32 10 2 -4 22 -11 46 -14 35 -4 45 -2 57 16 8 12 15 29 15
39 0 20 20 24 38 6 11 -11 87 -21 155 -19 20 0 37 -4 37 -9 0 -6 -4 -10 -10
-10 -5 0 -10 -4 -10 -10 0 -5 14 -10 30 -10 29 0 30 2 30 44 0 25 5 48 10 51
12 7 7 -86 -6 -106 -4 -7 -3 -14 4 -17 7 -2 12 -13 12 -25 0 -18 -2 -19 -10
-7 -8 12 -10 11 -10 -7 0 -12 4 -23 9 -25 6 -2 6 -21 2 -45 -7 -38 -6 -43 10
-43 12 0 19 7 19 20 0 11 5 20 11 20 7 0 9 -10 7 -25 -5 -25 5 -34 17 -15 3 6
11 10 16 10 6 0 8 -4 5 -9 -3 -5 1 -12 10 -15 23 -9 27 -8 20 9 -3 9 0 15 8
15 15 0 27 -35 19 -56 -6 -16 -23 -19 -23 -5 0 9 -84 31 -121 31 -17 0 -18 -5
-13 -42 5 -30 4 -39 -4 -34 -7 4 -12 19 -12 33 0 21 -2 24 -15 13 -8 -7 -15
-18 -15 -25 0 -6 -9 -20 -20 -30 -17 -15 -20 -16 -20 -3 0 9 7 21 15 28 8 7
15 18 15 25 0 7 10 19 22 27 16 11 22 25 22 51 0 21 4 37 8 37 4 0 8 5 8 10 0
6 -7 10 -15 10 -12 0 -13 4 -5 19 15 29 12 40 -10 34 -11 -3 -20 -13 -20 -23
0 -12 -9 -20 -22 -22 -15 -2 -22 -9 -22 -21 1 -9 -2 -17 -7 -17 -5 0 -9 6 -9
13 0 8 -11 23 -23 36 -28 25 -43 15 -53 -37 l-6 -30 58 -8 c82 -9 112 -23 57
-23 -39 -1 -43 -3 -43 -26 0 -20 -5 -25 -25 -25 -14 0 -25 -4 -25 -10 0 -5 6
-10 14 -10 9 0 12 -7 9 -20 -4 -14 0 -20 11 -20 11 0 16 -9 16 -30 0 -20 5
-30 15 -30 8 0 15 9 15 20 0 11 5 20 10 20 6 0 10 -13 10 -29 0 -37 24 -46 45
-18 12 16 15 17 11 5 -3 -10 -1 -18 5 -18 6 0 1 -9 -12 -19 -17 -14 -26 -16
-31 -8 -5 9 -10 9 -19 0 -10 -10 -9 -16 4 -31 23 -25 21 -40 -5 -44 -32 -5
-31 -21 4 -43 24 -15 35 -33 46 -71 l14 -50 61 -14 c34 -8 67 -14 74 -15 6 0
15 -4 20 -9 9 -10 -82 0 -138 15 -34 9 -38 13 -50 66 -11 44 -20 61 -39 70
-23 11 -25 10 -41 -32 -30 -78 -31 -109 -9 -165 27 -69 19 -89 -10 -25 -28 59
-29 134 -4 181 16 29 16 34 1 65 -23 50 -74 96 -89 81 -9 -9 -9 -12 0 -12 7 0
12 -4 12 -10 0 -18 -29 2 -33 23 -2 12 -5 -14 -6 -58 -2 -44 -5 -92 -7 -108
-3 -18 0 -29 11 -33 8 -3 15 -10 15 -14 0 -15 -44 -6 -61 11 -19 19 -15 31 7
22 14 -5 17 16 18 139 1 38 -2 48 -16 48 -12 0 -15 -6 -10 -22 5 -19 4 -20
-10 -8 -9 8 -13 21 -10 29 4 10 -1 12 -16 6 -20 -6 -22 -3 -22 29 0 21 5 36
12 36 6 0 8 3 4 7 -4 5 -14 0 -21 -11 -13 -17 -14 -15 -20 17 -4 20 -4 40 -1
45 7 12 -29 44 -74 68 -23 12 -62 19 -117 21 -74 2 -82 1 -77 -15 5 -16 5 -16
-9 1 -8 9 -18 17 -22 17 -4 0 -21 6 -38 14 -59 26 -156 43 -158 27 -1 -6 -3
-15 -4 -21 -1 -5 -3 -14 -4 -19 0 -4 -13 -6 -28 -3 -25 5 -27 4 -14 -11 7 -10
20 -17 28 -17 10 0 12 -6 8 -20 -4 -11 -2 -20 4 -20 6 0 11 5 11 10 0 6 13 10
29 10 27 0 28 -2 18 -24 -7 -13 -15 -22 -19 -19 -5 2 -5 9 -2 15 5 7 2 8 -5 4
-9 -6 -8 -13 5 -27 17 -19 17 -22 -2 -67 -14 -33 -26 -48 -42 -50 -24 -4 -30
-33 -9 -50 15 -12 70 -23 124 -25 33 -2 49 -9 76 -35 40 -39 109 -62 184 -62
57 0 73 -17 21 -22 -58 -5 -160 26 -212 65 -39 30 -54 36 -89 34 -33 -1 -43
-6 -45 -22 -2 -11 -9 -24 -14 -30 -7 -7 -8 2 -4 28 6 32 4 37 -12 37 -20 0
-36 -25 -27 -40 3 -5 -3 -14 -14 -20 -11 -5 -27 -26 -36 -44 -15 -31 -15 -37
-2 -58 14 -21 12 -29 -12 -90 -20 -52 -30 -66 -43 -62 -9 3 -19 0 -23 -6 -9
-15 -36 -12 -49 6 -10 13 -12 10 -13 -19 -1 -52 -11 -62 -34 -36 l-19 22 0
-26 c0 -26 -25 -48 -46 -40 -18 6 -24 -23 -9 -44 9 -10 14 -13 15 -5 0 13 20
17 20 4 0 -5 -6 -17 -14 -27 -12 -16 -16 -17 -30 -6 -9 7 -22 11 -31 7 -28
-10 -3 -34 48 -47 29 -6 63 -17 77 -24 14 -7 39 -15 57 -18 35 -7 46 6 31 37
-7 13 -6 21 3 27 11 7 11 9 1 9 -10 0 -10 4 0 20 12 18 13 18 29 2 10 -10 13
-21 8 -27 -14 -14 -11 -25 5 -19 8 3 16 14 19 25 3 10 14 19 24 19 10 0 25 9
33 20 8 11 18 20 22 20 13 0 9 -20 -7 -36 -21 -22 -19 -26 29 -58 34 -23 43
-35 44 -59 1 -27 0 -28 -13 -11 -9 11 -14 14 -15 7 0 -7 -9 -13 -19 -13 -11 0
-21 -5 -23 -12 -4 -12 -47 -19 -63 -10 -13 8 -45 10 -45 4 0 -3 7 -14 17 -24
15 -17 15 -18 0 -18 -17 0 -21 -11 -17 -40 3 -25 23 -30 43 -12 11 10 31 15
48 14 16 -2 29 1 29 7 0 6 12 8 32 4 22 -4 29 -3 24 5 -7 12 21 62 35 62 15 0
10 -30 -6 -36 -19 -8 -20 -44 -1 -44 8 0 16 -10 18 -22 2 -13 11 -24 20 -26
13 -2 15 2 10 20 -5 20 -3 21 10 11 12 -11 17 -8 28 12 7 14 19 25 27 25 24 0
14 36 -14 47 l-28 11 35 -2 c23 -1 35 -7 35 -16 0 -8 4 -20 8 -27 4 -7 -6 -19
-27 -32 -39 -24 -53 -50 -34 -63 18 -11 30 -10 23 2 -3 6 1 10 9 10 9 0 16 -7
16 -15 0 -7 6 -18 13 -22 6 -4 19 -17 27 -27 16 -21 18 -21 -36 1 -14 5 -16 1
-10 -30 4 -19 2 -38 -3 -41 -5 -3 -12 16 -16 43 -4 28 -13 55 -21 62 -9 7 -14
8 -14 1 0 -6 4 -13 8 -16 5 -3 9 -23 10 -45 3 -58 32 -106 66 -106 31 1 30
-19 -2 -23 -23 -4 -62 30 -67 59 -6 28 -14 39 -31 39 -10 0 -14 12 -14 44 0
42 -19 74 -28 48 -5 -17 -22 -15 -22 3 0 10 -11 15 -35 15 -21 0 -35 5 -35 13
0 6 11 12 25 12 14 0 25 -3 25 -7 0 -5 8 -8 18 -8 13 1 11 6 -11 25 -34 30
-48 31 -72 5 -14 -15 -21 -17 -32 -9 -11 10 -12 8 -6 -7 6 -17 5 -17 -10 -5
-23 18 -25 14 -19 -31 2 -24 10 -38 18 -38 8 0 13 -3 12 -7 -6 -19 22 -72 41
-78 12 -3 21 -15 21 -26 0 -23 18 -25 34 -4 6 8 21 17 34 20 17 3 22 -1 22
-19 0 -18 -5 -22 -35 -22 -40 0 -48 -5 -40 -26 7 -17 91 -33 117 -23 17 7 32
-31 17 -41 -12 -7 -11 -104 1 -104 6 0 10 -4 10 -10 0 -5 -7 -10 -15 -10 -23
0 -18 -16 10 -28 33 -15 52 -15 58 1 4 9 8 9 15 -2 12 -17 52 -5 52 15 0 12
-4 12 -20 4 -17 -9 -20 -8 -20 10 0 11 4 20 9 20 5 0 16 3 24 6 11 4 17 -4 22
-27 4 -17 3 -34 -2 -38 -8 -6 -9 -13 -5 -49 1 -7 7 -10 12 -7 15 9 32 -5 23
-18 -5 -7 -8 -23 -8 -37 0 -20 5 -25 30 -28 25 -2 28 0 15 10 -8 7 -14 27 -14
43 1 17 -5 35 -13 42 -22 17 1 25 34 11 15 -6 34 -10 41 -9 6 1 12 -3 12 -9 0
-5 -4 -10 -10 -10 -5 0 -10 -5 -10 -11 0 -7 -8 -18 -17 -25 -16 -11 -16 -14
-3 -27 18 -18 108 -38 115 -26 6 9 -33 49 -47 49 -5 0 -6 5 -3 10 4 6 17 3 34
-9 30 -22 71 -18 71 6 0 10 6 13 16 9 9 -3 12 -2 9 5 -4 5 -19 8 -33 4 -24 -5
-27 -3 -27 22 -1 16 4 31 9 35 13 9 -34 76 -58 82 -11 3 -18 8 -14 11 3 3 17
1 32 -5 31 -11 33 -17 -35 83 -52 77 -57 101 -8 46 19 -22 32 -30 35 -21 3 6
12 12 20 12 26 0 14 18 -26 38 -22 10 -37 22 -34 25 8 8 52 -10 82 -34 18 -14
38 -19 61 -17 29 2 36 -1 40 -17 3 -16 1 -17 -11 -8 -9 8 -30 10 -63 5 -48 -7
-50 -9 -49 -39 1 -18 11 -44 23 -59 12 -15 21 -32 21 -38 0 -27 41 -96 58 -97
9 0 31 -2 48 -4 32 -5 32 -4 39 50 3 30 11 58 17 61 11 7 6 -43 -8 -102 -5
-19 0 -22 46 -28 38 -5 59 -14 77 -34 23 -25 23 -27 7 -39 -21 -15 -44 -17
-44 -3 0 6 6 10 14 10 8 0 17 4 20 9 3 4 -6 6 -19 3 -14 -2 -25 -11 -25 -19 0
-8 -4 -11 -10 -8 -5 3 -7 20 -3 37 5 28 4 30 -16 23 -13 -4 -28 -2 -36 5 -20
16 -29 -9 -22 -56 6 -34 108 -184 125 -184 8 0 25 -38 41 -98 7 -24 28 -60 46
-81 19 -21 32 -41 28 -45 -3 -3 3 -6 14 -6 25 0 31 -14 39 -88 4 -32 12 -66
19 -77 6 -11 22 -50 34 -88 18 -53 30 -73 57 -91 18 -12 44 -38 57 -57 17 -26
31 -35 57 -37 32 -2 36 1 52 38 15 36 38 55 38 30 0 -5 -4 -10 -8 -10 -4 0
-13 -13 -19 -30 -9 -23 -8 -30 1 -30 32 0 99 -109 90 -145 -7 -27 14 -127 24
-121 4 2 7 -9 8 -25 1 -16 3 -32 6 -34 7 -7 68 18 68 28 0 5 10 5 21 2 14 -5
25 -2 30 6 8 12 11 11 19 -1 8 -12 13 -13 27 -2 10 6 28 17 41 24 32 16 28 53
-10 88 -36 34 -42 30 -53 -37 -4 -24 -11 -45 -16 -49 -14 -8 -11 53 5 91 17
41 11 75 -15 75 -11 0 -19 5 -19 10 0 6 -9 10 -20 10 -11 0 -20 -4 -20 -10 0
-5 -6 -10 -14 -10 -9 0 -14 9 -13 20 1 16 8 20 34 18 18 -1 33 -6 33 -10 0 -4
9 -8 20 -8 10 0 24 -10 31 -22 6 -13 29 -39 50 -58 24 -22 42 -47 45 -67 6
-29 3 -35 -25 -50 -17 -10 -31 -24 -31 -30 0 -9 -19 -13 -59 -13 -33 0 -63 -4
-66 -10 -3 -5 -15 -10 -26 -10 -10 0 -19 -4 -19 -10 0 -5 -6 -10 -14 -10 -15
0 -32 -63 -18 -68 36 -12 49 -43 51 -119 1 -24 34 -33 46 -13 3 6 26 15 51 21
33 9 46 17 50 35 6 22 16 29 37 25 4 -1 18 5 30 14 32 23 63 18 100 -15 29
-25 44 -30 88 -31 l54 -1 -52 -10 c-45 -8 -53 -13 -53 -31 -1 -22 -1 -22 -15
-3 -8 11 -15 27 -15 35 0 9 -14 26 -32 38 -29 20 -33 21 -60 7 -29 -15 -38
-34 -15 -34 7 0 18 5 25 12 6 6 14 9 17 6 4 -3 -9 -17 -27 -31 -24 -18 -50
-26 -97 -30 -44 -4 -67 -10 -73 -21 -5 -9 -21 -16 -35 -16 l-25 0 4 -77 c9
-142 63 -235 117 -202 21 14 23 36 2 32 -6 -2 -20 6 -31 17 -16 16 -20 33 -20
88 l1 67 84 42 c47 23 92 40 100 37 21 -8 19 -23 -2 -18 -10 3 -34 -4 -53 -15
-19 -11 -52 -27 -72 -36 l-38 -17 0 -63 c0 -60 1 -63 29 -75 18 -7 34 -24 40
-42 14 -40 14 -40 -8 -33 -22 7 -51 -3 -51 -18 0 -6 7 -19 17 -29 27 -30 -1
-20 -31 11 -16 16 -34 27 -41 25 -8 -4 -13 3 -13 18 0 13 -12 55 -26 93 -15
42 -26 92 -26 125 0 35 -3 50 -9 41 -5 -7 -14 -10 -20 -6 -8 5 -9 11 -2 19 6
7 8 15 5 18 -8 9 -44 -3 -44 -14 0 -5 -4 -6 -10 -3 -20 12 -9 40 23 63 18 12
38 22 44 22 7 0 8 12 4 33 -7 31 -8 32 -53 29 -26 -2 -49 1 -53 7 -3 6 -23 11
-44 11 -33 0 -40 -4 -51 -29 -8 -21 -9 -35 -1 -49 13 -25 14 -62 2 -62 -4 0
-13 22 -18 50 -11 56 -6 68 64 141 30 31 41 50 37 63 -4 12 -2 16 5 12 7 -5 9
-1 5 8 -3 9 -1 16 5 16 14 0 14 27 0 32 -8 3 -6 10 5 20 9 9 16 21 16 27 0 6
4 11 9 11 15 0 -2 46 -27 75 -13 15 -21 30 -17 33 4 4 18 -6 31 -21 28 -33 31
-22 7 22 -12 19 -29 33 -48 37 -45 10 -53 17 -25 25 19 5 12 7 -25 8 -55 1
-125 39 -125 67 0 8 -16 28 -35 45 -20 18 -39 47 -45 69 -6 22 -17 45 -25 53
-18 18 -45 84 -45 110 0 32 -22 97 -31 91 -5 -3 -9 3 -9 14 0 11 -10 30 -23
43 -30 31 -72 107 -64 115 4 4 -1 20 -11 37 -21 38 -65 87 -56 64 3 -10 1 -17
-5 -17 -6 0 -13 12 -17 28 -11 52 -11 52 -43 41 -31 -11 -47 -34 -31 -44 6 -4
10 1 10 9 0 9 5 16 10 16 6 0 10 -9 10 -20 0 -11 -6 -20 -13 -20 -7 0 -21 -9
-31 -21 -11 -13 -25 -19 -37 -16 -10 3 -19 1 -19 -5 0 -6 -6 -8 -14 -5 -9 4
-18 -5 -26 -26 -6 -18 -18 -47 -26 -65 -8 -18 -12 -37 -10 -41 3 -4 1 -13 -5
-21 -7 -13 -9 -12 -9 1 0 9 -7 22 -15 29 -8 7 -15 18 -14 24 0 7 2 6 6 -1 2
-7 8 -13 13 -13 14 0 32 59 26 85 -4 16 -2 25 5 25 7 0 9 12 5 33 -5 29 0 60
19 123 8 27 4 28 -130 50 -92 15 -108 16 -116 3 -14 -21 -2 -68 23 -89 19 -16
20 -19 6 -20 -9 0 -25 11 -35 24 -17 20 -26 23 -66 20 -44 -3 -63 8 -35 19 8
4 4 8 -9 12 -23 7 -33 35 -13 35 6 0 10 -4 10 -9 0 -5 16 -5 37 -1 23 6 42 5
49 -1 8 -7 14 -2 18 17 5 19 2 30 -10 39 -12 8 -14 14 -6 19 7 4 12 2 12 -5 0
-7 3 -9 7 -6 3 4 -2 16 -12 27 -10 11 -13 20 -7 20 5 0 8 9 5 20 -5 20 -23 28
-23 10 0 -5 -7 -10 -15 -10 -8 0 -15 7 -15 16 0 10 -5 14 -15 10 -8 -3 -27 0
-40 6 -21 9 -27 8 -38 -6 -9 -13 -20 -16 -40 -11 -22 6 -25 10 -16 21 9 12 5
11 -24 -1 -19 -8 -37 -12 -39 -9 -3 2 -8 -21 -12 -53 -11 -92 -15 -105 -32
-88 -15 15 -19 40 -5 31 9 -6 21 26 21 57 0 9 -9 26 -20 37 -22 22 -26 40 -10
40 6 0 10 -7 10 -15 0 -20 19 -19 26 0 4 9 11 15 18 14 6 -1 19 -1 30 0 28 2
0 31 -30 31 -13 0 -24 4 -24 9 0 5 -10 11 -22 14 -24 7 -68 -26 -68 -50 0 -7
-4 -13 -10 -13 -20 0 -9 26 26 63 23 25 39 35 44 27 3 -6 14 -8 22 -5 10 4 17
-1 22 -17 3 -13 9 -19 13 -13 10 13 71 17 78 4 4 -5 -4 -13 -17 -18 -21 -8
-20 -8 10 -13 18 -3 34 -2 36 1 2 3 7 39 11 79 6 61 5 72 -8 72 -9 0 -21 -8
-26 -17 -10 -17 -10 -17 -11 -1 0 11 -12 20 -32 26 -24 6 -37 19 -54 52 -13
25 -32 52 -43 61 -12 10 -21 21 -21 26 0 5 -16 17 -36 26 -24 12 -34 22 -30
32 3 9 -1 15 -10 15 -8 0 -17 -6 -20 -14 -3 -8 -11 -13 -18 -10 -7 3 -34 -4
-60 -16 -26 -11 -60 -20 -75 -20 -17 0 -37 -10 -53 -27 -36 -39 -41 -60 -18
-76 24 -16 11 -42 -17 -33 -15 5 -23 0 -31 -19 -10 -21 -9 -28 8 -45 27 -27
25 -46 -2 -20 -29 27 -38 25 -37 -7 0 -16 3 -22 6 -15 2 6 12 12 21 12 12 0
13 -3 4 -12 -15 -15 3 -48 28 -48 14 0 19 8 22 37 2 20 9 38 16 41 9 3 10 -3
2 -23 -7 -19 -7 -31 0 -41 9 -9 7 -17 -8 -32 -16 -16 -21 -17 -40 -4 -14 9
-22 11 -22 3 0 -6 -4 -11 -9 -11 -5 0 -7 8 -4 19 3 11 -3 24 -14 32 -29 21
-36 38 -23 54 10 13 8 15 -12 15 -13 0 -30 6 -37 13 -10 8 -12 9 -7 0 4 -7 -2
-17 -13 -23 -16 -8 -19 -17 -14 -45 5 -28 3 -34 -9 -30 -8 3 -23 -3 -33 -15
-10 -11 -24 -20 -32 -20 -16 0 -16 -5 -2 -32 7 -14 17 -18 32 -14 33 8 44 -5
39 -46 -5 -44 -19 -50 -24 -10 -2 19 -9 28 -24 30 -12 2 -27 14 -34 27 -7 13
-17 22 -22 19 -4 -3 -8 9 -8 27 0 25 3 30 11 22 9 -9 19 -9 39 2 39 20 56 43
42 57 -9 9 -8 16 4 29 15 16 14 17 -8 12 -12 -3 -29 -10 -35 -16 -9 -6 -13 -6
-13 2 0 6 -9 11 -20 11 -28 0 -25 14 5 28 14 6 25 16 25 22 0 14 -17 13 -23
-2 -3 -7 -6 -4 -6 7 -1 29 14 49 30 40 9 -6 11 -3 6 8 -4 10 -1 17 6 18 7 0 1
5 -12 10 -29 11 -21 23 17 24 16 0 30 8 37 20 8 16 22 21 58 24 30 1 47 -2 47
-9 0 -6 -12 -10 -27 -9 -55 4 -62 0 -75 -43 -7 -24 -18 -47 -25 -53 -6 -5 -15
-22 -19 -37 -5 -24 -3 -28 14 -28 32 0 51 10 46 25 -3 7 -1 16 5 20 6 3 11 1
11 -6 0 -7 9 -3 20 9 25 26 50 29 50 5 0 -10 4 -24 9 -32 7 -11 11 -9 21 9 9
16 9 25 1 33 -6 6 -11 20 -11 30 0 16 3 17 15 7 11 -10 16 -6 28 22 8 18 21
39 31 47 15 13 15 15 -1 27 -16 12 -13 13 24 9 23 -3 46 -5 50 -6 19 -3 33 2
33 11 0 6 -7 10 -16 8 -24 -4 -24 24 -1 46 20 19 20 19 15 -8 -4 -18 -1 -26 8
-26 8 0 14 -4 14 -9 0 -6 25 2 55 15 31 14 62 24 69 21 19 -8 8 33 -15 56 -20
19 -25 52 -10 61 4 3 8 23 8 45 0 39 0 39 -36 38 -20 0 -58 9 -85 22 -27 12
-55 20 -62 17 -7 -3 -14 0 -16 6 -5 15 -58 19 -59 5 -1 -7 -3 -28 -5 -47 -3
-19 -5 -50 -6 -67 0 -18 -4 -33 -8 -33 -4 0 -10 -18 -13 -40 -6 -50 -27 -73
-46 -53 -7 8 -20 13 -29 11 -21 -4 -28 -28 -8 -28 9 0 16 -7 16 -15 0 -8 -4
-15 -9 -15 -17 0 -42 32 -37 49 19 68 18 80 -8 87 -17 4 -26 14 -28 32 -2 16
-10 28 -20 30 -30 6 -21 -29 17 -64 19 -17 35 -39 35 -48 0 -23 -17 -20 -23 4
-3 11 -17 24 -31 30 -14 5 -35 24 -46 42 -17 28 -17 34 -5 41 22 12 18 30 -10
55 -23 20 -33 42 -20 42 3 0 21 -15 40 -34 19 -19 47 -36 62 -38 20 -2 27 -8
25 -20 -2 -12 2 -16 13 -12 17 7 21 24 5 24 -18 0 -11 30 8 31 19 2 46 -2 50
-6 7 -6 -22 -55 -33 -55 -7 0 -20 -9 -30 -20 -18 -20 -17 -20 9 -20 25 0 27
-2 20 -35 -5 -26 -3 -35 7 -35 8 0 24 -3 37 -6 20 -6 22 -3 22 40 0 25 -4 46
-10 46 -5 0 -10 19 -9 43 0 37 1 39 10 18 5 -14 7 -31 5 -38 -3 -7 -1 -13 3
-13 14 0 53 205 55 283 1 29 6 33 23 16 7 -7 6 -22 -4 -50 -13 -40 -11 -59 9
-59 5 0 8 7 4 15 -9 24 12 68 29 61 24 -9 17 10 -8 21 -12 6 -23 20 -24 32 -1
17 4 21 27 21 23 0 28 4 26 24 0 14 -6 22 -13 19 -7 -3 -13 -1 -13 5 0 6 5 12
12 14 7 3 9 11 3 24 -4 10 -7 22 -7 27 1 4 -2 7 -8 7 -5 0 -10 5 -10 10 0 6
14 10 30 10 17 0 30 -4 30 -9 0 -5 9 -7 20 -4 11 3 20 9 20 14 0 17 -49 41
-70 34 -11 -3 -20 -2 -20 3 0 5 -29 13 -65 18 -50 8 -65 7 -65 -2 0 -7 -4 -14
-10 -16 -13 -4 -30 -97 -19 -104 5 -3 3 -12 -5 -20 -20 -19 -27 -18 -19 4 6
15 5 15 -11 3 -15 -13 -18 -12 -23 7 -3 11 -12 23 -22 25 -12 4 -11 5 5 6 11
0 25 -4 32 -11 9 -9 13 -7 18 5 7 19 -4 40 -17 31 -5 -3 -25 -7 -44 -9 -26 -2
-35 1 -35 12 0 9 6 13 14 10 18 -7 36 11 29 29 -4 11 2 11 31 -1 28 -12 36
-12 36 -3 0 7 3 23 6 36 5 19 2 22 -19 22 -14 0 -28 -4 -31 -9 -3 -5 -26 -5
-53 1 -27 5 -59 8 -73 6 -31 -3 -50 8 -50 30 0 10 -9 23 -20 30 -31 19 -24 32
10 20 37 -12 45 -25 30 -43 -12 -15 3 -31 19 -20 6 3 35 2 65 -3 34 -5 56 -5
56 0 0 5 20 6 47 2 41 -6 46 -5 36 7 -8 11 -8 17 2 26 17 15 24 7 19 -22 -4
-21 0 -23 57 -29 33 -4 68 -10 77 -13 15 -6 15 -5 3 10 -8 10 -11 27 -7 43 5
20 12 25 34 22 37 -4 44 -38 7 -38 -17 0 -25 -5 -22 -12 2 -7 16 -13 30 -13
26 1 40 -15 15 -15 -7 -1 3 -14 22 -30 l34 -30 12 22 c10 19 10 24 -2 26 -34
8 -10 19 39 18 47 -1 77 11 77 29 0 4 9 18 20 32 17 21 17 27 5 39 -7 8 -18
14 -24 14 -6 0 -11 4 -11 9 0 4 12 6 26 3 23 -4 25 -2 16 14 -5 11 -7 25 -5
32 3 8 -1 10 -11 6 -16 -6 -17 -3 -20 49 -1 10 -8 24 -16 30 -9 7 -15 25 -15
40 1 16 -2 30 -7 33 -10 6 23 44 39 44 7 0 13 7 13 15 0 8 -4 15 -10 15 -5 0
-10 -4 -10 -10 0 -5 -11 -10 -25 -10 -14 0 -25 5 -25 10 0 6 9 10 20 10 13 0
20 7 20 19 0 11 3 26 6 35 5 13 -1 16 -25 16 -17 0 -31 5 -31 11 0 5 5 7 10 4
16 -10 50 5 50 20 0 8 12 17 28 21 41 9 49 12 30 13 -10 1 -18 6 -18 11 0 6 8
10 18 10 9 0 24 5 32 11 12 8 10 9 -10 7 -20 -2 -26 2 -28 20 -2 13 4 34 12
47 19 29 20 37 4 33 -22 -4 -58 13 -58 27 0 11 -28 24 -52 25 -5 0 -8 -18 -8
-40 0 -22 -4 -40 -10 -40 -5 0 -10 4 -10 10 0 5 -7 7 -15 4 -8 -4 -15 -1 -15
4 0 6 8 12 17 14 10 3 -1 8 -24 12 -55 10 -57 28 -3 20 32 -5 40 -3 40 8 0 18
-45 26 -192 35 -87 5 -98 4 -98 -11 0 -9 -6 -19 -14 -22 -8 -3 -17 -12 -20
-19 -3 -10 6 -8 31 6 39 22 60 16 28 -7 -20 -15 -20 -15 4 -35 l24 -20 21 46
c16 33 27 45 43 45 12 0 25 -4 28 -10 3 -5 -3 -10 -13 -10 -13 0 -26 -13 -36
-35 -19 -40 -15 -55 16 -55 17 0 19 2 7 16 -10 13 -10 17 2 25 8 5 19 8 24 8
6 0 4 -3 -2 -6 -19 -7 -16 -21 7 -28 11 -3 20 -13 20 -21 0 -8 13 -17 31 -21
21 -4 28 -10 25 -20 -4 -8 -6 -17 -6 -19 0 -2 -4 -4 -10 -4 -5 0 -10 7 -10 15
0 24 -19 17 -26 -10 -8 -31 -23 -24 -17 9 6 28 1 32 -51 41 -37 7 -38 7 -31
-16 13 -39 14 -68 3 -75 -6 -4 -13 -1 -17 5 -5 8 -13 7 -27 -4 -24 -18 -34
-19 -34 -1 0 16 -28 41 -36 33 -4 -3 3 -19 15 -35 23 -33 27 -57 11 -67 -6 -3
-10 3 -10 14 0 12 -6 21 -14 21 -8 0 -21 2 -28 5 -8 3 -14 -2 -15 -12 -1 -10
-4 -35 -7 -55 -2 -21 -1 -38 2 -38 4 0 26 -17 48 -38 42 -38 74 -108 74 -163
0 -15 7 -34 15 -42 8 -8 12 -17 10 -19 -3 -3 6 -15 20 -28 16 -15 25 -34 25
-53 0 -17 -3 -27 -7 -23 -5 4 -8 11 -8 14 -1 20 -18 29 -49 26 -24 -3 -36 0
-40 12 -3 8 -10 12 -16 9 -5 -3 -10 0 -10 8 0 21 -28 29 -37 12 -6 -10 -17
-12 -33 -8 l-25 7 24 6 c25 6 50 35 39 45 -20 20 -58 -18 -62 -63 -1 -7 -14
-19 -29 -27 -27 -14 -27 -14 -27 21 0 19 5 34 10 34 6 0 10 -9 10 -21 0 -11 5
-17 10 -14 6 4 8 10 5 14 -2 5 3 23 11 41 13 25 14 34 4 40 -15 9 -5 30 15 30
7 0 16 -6 18 -12 3 -7 6 -3 6 10 1 24 21 31 21 7 0 -21 15 -19 43 8 22 20 23
25 11 52 -17 40 -79 93 -79 68 0 -5 -4 -14 -8 -21 -5 -7 -5 -21 -2 -32 4 -11
2 -20 -3 -20 -17 0 -22 44 -7 72 7 16 9 30 4 34 -5 3 -9 -2 -9 -10 0 -9 -4
-16 -9 -16 -6 0 -7 32 -4 75 5 65 4 75 -12 81 -12 5 -23 0 -34 -15 -16 -21
-18 -21 -31 -6 -10 13 -15 13 -22 3 -6 -10 -10 -10 -17 1 -7 11 -13 12 -23 4
-15 -12 -74 8 -61 20 4 5 -3 10 -15 14 -30 7 -23 27 10 31 18 2 27 -2 30 -14
2 -10 14 -18 31 -20 30 -3 35 7 12 26 -8 7 -15 19 -15 27 0 9 -9 14 -27 12
-52 -4 -63 0 -63 24 0 17 -2 19 -10 7 -5 -8 -12 -11 -16 -7 -4 4 -14 1 -22 -6
-13 -10 -15 -9 -9 7 6 16 5 17 -8 6 -8 -7 -15 -17 -15 -23 0 -6 3 -7 7 -4 3 4
12 2 19 -3 6 -6 18 -9 25 -8 7 2 13 -7 13 -19 0 -13 -4 -22 -9 -20 -6 1 -9 8
-9 15 2 18 -32 15 -52 -5 -14 -15 -18 -15 -28 -2 -13 17 -51 35 -41 19 3 -6
-6 -15 -21 -20 -30 -12 -46 -4 -24 11 13 9 13 10 0 8 -29 -3 -38 1 -42 19 -5
19 19 49 30 37 4 -4 1 -10 -5 -12 -30 -11 -11 -25 26 -20 26 3 47 0 60 -10 24
-16 43 -10 35 12 -3 8 -20 15 -37 17 -24 2 -31 7 -29 21 3 19 -26 36 -37 21
-3 -5 -19 -17 -36 -26 -19 -11 -30 -25 -31 -40 -1 -13 -6 -33 -12 -45 -16 -29
-15 -36 4 -29 12 4 15 2 11 -9 -8 -20 19 -44 43 -38 22 6 26 -7 9 -24 -26 -26
29 -108 59 -89 5 3 22 -8 37 -24 24 -25 37 -30 76 -30 56 0 139 33 139 55 0
16 -23 29 -75 41 -16 3 -24 9 -17 11 6 3 12 13 12 23 0 14 10 19 45 22 25 2
45 0 45 -4 0 -5 -5 -8 -11 -8 -14 0 -7 -42 9 -48 7 -2 12 5 12 17 0 12 5 21
10 21 16 0 12 -47 -5 -54 -8 -3 -15 -10 -15 -15 0 -6 7 -8 15 -5 8 4 15 1 15
-5 0 -6 7 -11 15 -11 8 0 15 -4 15 -10 0 -5 -4 -10 -10 -10 -24 0 -9 -54 23
-81 18 -17 26 -28 18 -29 -8 0 -26 10 -39 23 l-24 22 6 -22 c5 -15 3 -23 -5
-23 -7 0 -9 10 -5 30 3 17 1 30 -4 30 -6 0 -10 9 -10 20 0 22 -28 28 -46 10
-12 -12 -164 -31 -178 -23 -5 4 -6 -5 -2 -21 5 -22 3 -26 -15 -26 -11 0 -19 3
-17 8 2 4 10 19 17 34 13 25 12 30 -4 48 -22 24 -63 26 -72 3 -4 -9 -1 -19 5
-21 17 -5 15 -22 -3 -22 -15 0 -32 46 -22 57 3 3 -1 12 -9 20 -8 8 -12 23 -9
34 4 11 -2 26 -14 38 -12 12 -21 24 -21 29 0 4 -7 15 -15 26 -13 17 -14 16
-13 -12 1 -17 -9 -42 -21 -57 -11 -15 -21 -35 -21 -44 0 -14 2 -14 10 -1 9 13
10 13 10 0 0 -8 -19 -24 -43 -35 -58 -27 -62 -62 -13 -96 20 -13 45 -43 56
-66 25 -54 25 -55 -5 -47 -29 7 -29 7 -9 -41 14 -34 18 -37 45 -31 39 7 38
-11 -1 -19 -36 -8 -60 7 -61 39 0 20 0 20 -8 1 -11 -26 -8 -70 4 -69 6 1 21 5
35 9 22 7 24 6 11 -9 -8 -9 -20 -15 -27 -12 -7 3 -15 0 -18 -7 -3 -9 -5 -9 -5
1 -1 6 -5 12 -10 12 -5 0 -8 -11 -5 -24 3 -19 -3 -28 -30 -44 -42 -25 -51 -67
-22 -94 16 -15 25 -51 29 -120 1 -10 6 -18 11 -18 6 0 5 -5 -2 -12 -16 -16
-15 -23 5 -44 13 -13 14 -19 5 -22 -16 -5 -16 -22 1 -22 12 0 37 44 37 67 0 7
-7 13 -15 13 -8 0 -15 4 -15 8 0 5 16 9 35 9 19 0 35 -4 35 -9 0 -4 -4 -8 -10
-8 -5 0 -10 -16 -10 -36 l0 -37 40 6 c29 4 40 2 40 -8 0 -10 13 -6 45 12 35
19 45 21 45 10 0 -8 -14 -20 -31 -26 -17 -6 -28 -15 -24 -21 3 -5 -1 -10 -9
-10 -19 0 -21 -17 -3 -23 9 -3 9 -7 -1 -19 -10 -12 -9 -18 2 -28 9 -6 20 -9
27 -5 17 11 30 -17 13 -29 -7 -6 -15 -22 -16 -35 -2 -19 2 -24 25 -26 17 -2
25 0 21 7 -4 6 0 14 7 19 11 7 12 12 2 29 -15 24 -17 106 -3 115 9 5 16 -46
11 -83 -1 -7 5 -15 14 -18 12 -5 13 -9 4 -20 -9 -11 -8 -18 1 -29 9 -10 9 -15
1 -15 -14 0 -8 -43 7 -48 22 -7 12 -20 -18 -24 -23 -4 -30 -1 -30 13 0 19 -52
42 -75 33 -10 -4 -12 0 -8 16 10 40 -13 42 -117 11 -37 -10 -53 -4 -72 30 -22
38 -23 56 -3 39 8 -7 15 -18 15 -25 0 -7 6 -15 14 -18 10 -4 16 5 21 31 4 20
10 42 15 47 12 15 7 65 -7 65 -27 0 -54 39 -47 68 5 20 4 24 -5 16 -6 -6 -18
-44 -26 -85 -18 -84 -24 -104 -30 -98 -2 3 2 45 10 94 8 50 15 95 15 100 0 9
-105 65 -121 65 -4 0 -16 -23 -29 -51 -18 -42 -19 -53 -8 -60 7 -5 17 -9 21
-9 5 0 5 -5 2 -10 -4 -7 -12 -7 -25 0 -26 14 -30 13 -30 -10 0 -20 -15 -28
-22 -11 -5 14 -65 0 -88 -21 -12 -11 -24 -17 -27 -14 -8 8 17 36 42 47 13 6 5
7 -25 3 -46 -6 -70 -25 -70 -55 0 -29 -11 -49 -28 -49 -12 0 -13 3 -4 12 7 7
12 20 12 30 0 11 7 33 16 49 18 35 15 42 -21 42 -14 0 -25 3 -25 8 0 12 -77
12 -84 0 -3 -4 20 -11 51 -14 31 -3 61 -11 67 -18 8 -9 2 -10 -26 -5 -24 4
-38 3 -38 -3 0 -7 -8 -7 -24 -1 -20 7 -25 5 -29 -11 -4 -14 0 -19 14 -19 10 0
19 -4 19 -10 0 -5 -7 -7 -16 -3 -15 5 -15 3 0 -25 9 -17 13 -37 10 -46 -3 -9
3 -19 18 -27 l23 -12 -30 -8 c-18 -5 -32 -4 -36 2 -9 15 -49 1 -49 -17 0 -8
-4 -14 -10 -14 -15 0 -12 17 7 36 17 17 16 17 -10 10 -20 -5 -27 -3 -27 9 0 8
8 15 18 15 13 0 14 2 4 9 -8 4 -14 12 -15 17 -1 5 -5 8 -9 7 -13 -5 -5 42 10
60 14 16 12 19 -26 34 -23 9 -42 20 -42 25 0 11 2 11 45 -8 20 -8 39 -13 42
-11 4 4 -67 50 -77 49 -3 0 -10 4 -17 9 -7 7 -13 5 -16 -3 -4 -10 -9 -8 -17 5
-13 20 -70 23 -88 5 -9 -9 -15 -9 -24 1 -8 8 -8 11 -2 8 7 -4 18 0 25 9 8 9
25 14 45 12 18 -1 36 1 39 4 9 9 50 -7 88 -34 26 -18 34 -20 61 -10 18 7 38
12 46 12 20 0 39 32 40 68 0 22 -5 32 -15 32 -8 0 -15 -7 -15 -15 0 -8 -4 -15
-10 -15 -13 0 -13 37 -1 44 5 4 21 2 35 -4 24 -9 26 -14 24 -62 -3 -51 -3 -52
29 -59 18 -3 44 -14 57 -23 14 -9 43 -16 65 -16 34 0 39 3 34 17 -6 16 -5 16
17 0 29 -20 44 -22 34 -4 -5 9 -4 9 7 -1 11 -10 18 -2 40 45 14 31 25 63 23
72 -3 10 20 33 64 66 57 40 69 54 69 77 0 17 -6 28 -14 28 -7 0 -13 -5 -13
-11 0 -8 -16 -10 -50 -5 -41 6 -50 4 -50 -9 0 -8 -4 -15 -10 -15 -5 0 -10 8
-10 18 0 9 -3 28 -6 42 -6 22 -5 23 7 9 8 -9 25 -19 39 -22 14 -3 35 -9 48
-12 16 -5 22 -3 22 8 0 8 8 18 17 21 14 6 15 9 2 21 -11 12 -22 13 -53 4 -21
-6 -40 -8 -44 -5 -7 8 0 15 24 20 44 9 64 19 65 32 4 35 3 39 -11 37 -24 -4
-42 48 -32 93 7 31 11 35 17 21 4 -10 3 -30 -4 -43 -10 -23 -9 -25 11 -22 13
2 23 10 24 18 1 29 16 70 26 70 6 0 8 -9 5 -20 -3 -11 -1 -18 4 -14 8 4 14 54
6 54 -1 0 -17 4 -36 10 -30 8 -33 8 -28 -11 3 -13 1 -19 -6 -16 -7 2 -13 13
-15 25 -4 26 -19 29 -25 5 -3 -13 -5 -11 -6 6 -1 22 2 23 34 18 19 -3 35 -2
35 2 0 4 14 6 30 3 26 -4 30 -1 30 19 0 29 8 42 35 57 19 11 19 11 1 12 -15 0
-17 6 -14 30 3 17 1 30 -4 30 -4 0 -8 16 -8 35 0 42 21 47 38 10 7 -16 17 -23
27 -19 8 3 15 1 15 -5 0 -6 -4 -11 -8 -11 -11 0 -52 -35 -52 -44 0 -3 8 -6 18
-6 17 0 44 37 48 65 0 6 6 23 12 38 7 16 12 37 12 47 0 10 5 22 10 25 5 3 10
22 10 41 0 29 6 38 34 55 19 11 37 27 40 35 9 23 -22 29 -44 9 -11 -10 -22
-16 -25 -13 -9 8 6 38 19 39 6 0 2 5 -9 10 -16 7 -15 8 10 5 51 -7 63 -12 82
-27 20 -17 86 -49 101 -49 6 0 8 9 5 20 -6 22 12 28 20 8 3 -8 18 2 41 26 20
21 36 40 36 41 0 2 -10 1 -22 -2 -19 -4 -20 -3 -8 6 13 9 12 11 -3 11 -14 0
-17 -5 -12 -19 7 -23 -10 -37 -19 -15 -3 9 -11 12 -18 8 -8 -5 -9 -2 -5 9 5
15 -2 17 -50 17 -41 0 -59 -4 -69 -17 -13 -17 -13 -17 -14 0 0 27 -102 22
-119 -6 -7 -11 -8 -16 -2 -12 6 3 11 2 11 -4 0 -15 -18 -23 -25 -11 -9 14 -98
13 -113 -2 -17 -17 -15 -2 4 27 16 24 15 25 -7 25 -21 0 -24 -5 -25 -35 0 -19
3 -35 8 -35 5 0 4 -9 -2 -20 -8 -14 -21 -20 -45 -20 -19 0 -35 5 -35 10 0 7
-6 7 -19 0 -27 -14 -34 -13 -27 5 3 8 1 15 -4 15 -5 0 -11 -9 -15 -19 -3 -11
-12 -22 -20 -25 -17 -6 -21 9 -5 19 6 4 8 10 5 15 -3 5 -1 11 5 15 5 3 10 14
10 23 0 22 17 48 25 40 4 -3 2 -15 -4 -27 -9 -16 -8 -22 8 -31 26 -13 31 -13
31 5 0 7 8 18 17 23 15 9 15 11 1 26 -23 22 -78 21 -78 -1 -1 -17 -1 -17 -14
0 -13 16 -39 17 -365 17 l-351 -1 0 -59z m400 16 c0 -3 -7 -3 -15 0 -8 4 -15
13 -15 21 0 12 2 12 15 -1 8 -8 15 -17 15 -20z m-303 -46 c3 0 3 7 -1 15 -3 8
-1 15 4 15 6 0 10 -2 10 -4 0 -2 3 -11 6 -20 5 -12 0 -16 -19 -16 -20 0 -24
-4 -20 -20 6 -24 -5 -26 -22 -4 -8 12 -9 23 -1 39 9 19 12 20 24 9 7 -8 16
-14 19 -14z m4832 -40 c0 -10 -9 -4 -26 15 -15 17 -33 28 -42 27 -13 -3 -13
-1 -2 12 13 15 17 14 42 -11 16 -16 28 -35 28 -43z m-2971 32 c3 -16 -2 -22
-17 -22 -11 0 -23 5 -27 12 -5 8 0 9 14 6 12 -4 20 -2 16 3 -3 5 -15 9 -27 10
-21 0 -21 1 -2 9 28 12 39 7 43 -18z m-1465 0 c-18 -3 -23 -10 -23 -33 0 -16
-4 -29 -10 -29 -5 0 -10 5 -10 11 0 6 -7 17 -15 25 -16 16 -21 39 -7 30 5 -3
22 -1 38 3 16 4 34 5 39 2 6 -3 0 -7 -12 -9z m1567 3 c0 -8 -4 -15 -10 -15 -5
0 -10 7 -10 15 0 8 5 15 10 15 6 0 10 -7 10 -15z m485 -45 c8 0 15 -4 15 -10
0 -5 -7 -10 -15 -10 -18 0 -18 -1 -5 -34 5 -14 6 -26 1 -26 -13 0 -18 20 -25
86 -5 49 -4 54 4 27 6 -18 17 -33 25 -33z m-325 29 c0 -5 -7 -9 -15 -9 -8 0
-15 7 -15 15 0 9 6 12 15 9 8 -4 15 -10 15 -15z m104 -5 c9 -22 -3 -32 -14
-14 -12 19 -12 30 -1 30 5 0 12 -7 15 -16z m-1444 -34 c0 -30 21 -42 35 -20
12 19 22 10 22 -20 0 -23 -5 -30 -20 -30 -16 0 -17 2 -7 15 11 13 10 14 -4 9
-10 -4 -15 -12 -13 -18 15 -39 17 -55 7 -61 -6 -4 -10 4 -10 19 0 13 -6 26
-12 28 -7 3 -13 22 -14 44 0 22 -4 46 -8 52 -4 7 -1 12 8 12 11 0 16 -9 16
-30z m110 -10 c0 -16 -4 -30 -10 -30 -5 0 -10 7 -10 15 0 8 -6 15 -12 15 -8 0
-5 7 6 15 26 20 26 20 26 -15z m34 4 c13 -35 3 -94 -16 -94 -6 0 -8 7 -4 15 3
9 0 15 -10 15 -8 0 -12 5 -9 10 4 6 10 8 15 5 15 -9 21 12 10 39 -5 14 -6 26
-1 26 5 0 12 -7 15 -16z m3926 7 c0 -11 -31 -24 -39 -16 -3 3 1 10 9 15 19 12
30 12 30 1z m-2449 -14 c-1 -12 -15 -9 -19 4 -3 6 1 10 8 8 6 -3 11 -8 11 -12z
m2129 3 c0 -5 -4 -10 -9 -10 -6 0 -13 5 -16 10 -3 6 1 10 9 10 9 0 16 -4 16
-10z m-4499 -16 c7 -8 8 -18 4 -22 -4 -4 -10 -1 -12 6 -3 6 -13 12 -23 12 -10
0 -21 4 -24 9 -9 14 43 9 55 -5z m1947 -9 c-9 -9 -40 -9 -83 0 l-40 9 55 6
c51 5 81 -2 68 -15z m2596 -2 c-12 -9 -21 -10 -28 -3 -14 14 11 31 32 22 12
-4 12 -7 -4 -19z m156 2 c0 -9 7 -12 18 -9 14 5 14 3 -2 -10 -25 -20 -36 -20
-36 0 0 9 -10 19 -22 22 -23 6 -23 6 2 12 30 8 40 4 40 -15z m-4744 -12 c-8
-8 -36 5 -36 17 0 7 6 7 21 0 11 -7 18 -14 15 -17z m198 12 c-4 -8 -13 -15
-20 -15 -12 0 -12 3 -2 15 17 19 29 19 22 0z m4616 4 c0 -5 5 -7 10 -4 16 10
12 -12 -5 -29 -29 -28 -49 -4 -36 42 3 8 31 0 31 -9z m-2904 -73 c-11 -6 -28
-19 -38 -29 -26 -25 -68 -16 -61 13 5 17 11 19 39 14 26 -5 35 -2 40 11 4 9 2
21 -5 28 -6 6 -11 15 -11 20 0 6 12 -3 28 -18 26 -26 26 -28 8 -39z m770 7
c-10 -10 -19 5 -10 18 6 11 8 11 12 0 2 -7 1 -15 -2 -18z m-2075 0 c1 -10 0
-27 -1 -37 -1 -13 3 -17 14 -13 8 3 18 2 21 -4 10 -15 65 -7 65 10 0 11 6 9
21 -7 19 -21 19 -24 4 -39 -14 -13 -18 -14 -25 -3 -4 7 -15 10 -23 7 -18 -7
-83 14 -100 33 -9 10 -9 13 0 17 8 3 11 14 7 29 -4 15 -2 24 5 24 6 0 12 -8
12 -17z m439 1 c0 -8 -4 -12 -10 -9 -5 3 -10 10 -10 16 0 5 5 9 10 9 6 0 10
-7 10 -16z m65 6 c3 -5 1 -10 -4 -10 -6 0 -11 5 -11 10 0 6 2 10 4 10 3 0 8
-4 11 -10z m91 -30 c26 -29 27 -29 62 -14 45 18 51 12 15 -15 -15 -11 -38 -31
-50 -43 -13 -12 -23 -17 -23 -11 0 7 5 15 10 18 18 11 -11 36 -39 35 -14 -1
-43 -2 -65 -1 -31 1 -36 4 -27 15 6 8 24 12 42 10 26 -3 29 -1 24 16 -10 31
20 25 51 -10z m-416 3 c0 -10 7 -27 15 -37 29 -38 15 -39 -21 -2 -29 30 -34
40 -23 47 21 13 29 11 29 -8z m2275 -23 c-12 -4 -23 -3 -27 4 -4 6 -12 12 -18
12 -23 3 -24 5 -11 13 10 6 25 4 45 -6 28 -15 29 -17 11 -23z m-1256 -18 c35
-54 38 -72 15 -72 -8 0 -12 -5 -9 -11 4 -6 0 -9 -11 -7 -11 2 -18 -2 -16 -9 3
-18 -25 -16 -31 2 -4 8 -1 17 4 21 6 4 9 28 6 60 -4 46 -1 64 9 64 1 0 16 -22
33 -48z m-119 13 c0 -8 -4 -15 -10 -15 -5 0 -10 7 -10 15 0 8 5 15 10 15 6 0
10 -7 10 -15z m180 -24 c0 -19 -22 -23 -38 -7 -15 15 -14 16 11 16 15 0 27 -4
27 -9z m-144 -28 c-10 -10 -19 5 -10 18 6 11 8 11 12 0 2 -7 1 -15 -2 -18z
m2554 -5 c0 -12 -14 -10 -28 4 -19 19 -14 29 8 16 11 -7 20 -16 20 -20z
m-3144 -15 c-10 -10 -19 5 -10 18 6 11 8 11 12 0 2 -7 1 -15 -2 -18z m484 17
c0 -5 -7 -10 -15 -10 -8 0 -15 5 -15 10 0 6 7 10 15 10 8 0 15 -4 15 -10z
m-150 -25 c0 -3 -9 -5 -20 -5 -11 0 -20 7 -20 15 0 13 4 14 20 5 11 -6 20 -13
20 -15z m1877 11 c-3 -8 -9 -31 -13 -51 -5 -26 -15 -42 -38 -56 -17 -10 -25
-19 -18 -19 6 0 12 -12 12 -27 0 -22 -2 -25 -10 -13 -8 12 -10 10 -10 -9 0
-14 -9 -35 -21 -47 -25 -26 -18 -44 17 -44 24 0 32 -14 14 -25 -5 -3 -10 -17
-10 -30 0 -13 -7 -31 -16 -39 -8 -9 -20 -31 -25 -48 -8 -27 -6 -36 9 -48 10
-9 17 -21 15 -27 -2 -6 1 -14 6 -18 6 -3 11 1 11 9 0 9 5 16 10 16 6 0 10 -9
10 -20 0 -11 -4 -20 -8 -20 -4 0 -7 -17 -5 -37 3 -37 3 -36 -25 22 -16 33 -39
70 -51 82 -11 12 -21 27 -21 33 0 5 -4 10 -10 10 -5 0 -10 -7 -10 -16 0 -11
-8 -14 -32 -12 -18 2 -33 8 -33 15 0 6 -3 15 -7 19 -13 13 -9 35 13 65 16 23
17 29 5 29 -8 0 -18 -5 -22 -11 -10 -16 -26 15 -18 35 6 17 24 22 24 7 0 -5
18 -11 41 -15 l41 -6 -33 -31 c-31 -29 -32 -32 -15 -44 10 -8 15 -19 11 -25
-5 -8 -11 -8 -21 1 -12 10 -13 9 -8 -5 10 -27 44 -20 44 9 0 16 6 25 15 25 8
0 15 -4 15 -9 0 -5 9 -11 19 -14 14 -3 20 2 24 22 3 14 1 30 -4 36 -6 5 -9 5
-9 -3 0 -7 -5 -12 -11 -12 -6 0 -9 10 -7 23 2 17 11 23 36 25 35 4 45 22 12
22 -16 0 -20 7 -20 30 0 20 5 30 15 30 11 0 15 12 15 48 0 54 6 67 36 76 23 7
38 42 23 52 -6 3 -16 3 -24 0 -8 -3 -15 -1 -15 4 0 9 22 15 43 11 5 -1 11 8
14 19 3 11 10 20 15 20 6 0 8 -6 5 -14z m-2597 -15 c0 -5 -16 -15 -35 -22 -21
-8 -35 -20 -35 -30 0 -9 -7 -20 -16 -23 -12 -5 -14 -1 -8 17 10 33 23 46 58
56 17 5 32 10 34 10 1 1 2 -3 2 -8z m3570 -7 c0 -2 -10 -8 -21 -15 -17 -9 -23
-8 -30 2 -14 22 -11 26 21 21 17 -2 30 -6 30 -8z m-3000 -4 c0 -5 -7 -7 -15
-4 -8 4 -15 8 -15 10 0 2 7 4 15 4 8 0 15 -4 15 -10z m-1057 -26 c-7 -18 -10
-18 -22 5 -9 16 -8 18 8 14 12 -3 17 -11 14 -19z m1423 1 c2 -27 -10 -33 -23
-12 -14 22 -12 37 5 37 11 0 18 -9 18 -25z m1541 11 c3 -3 -12 -6 -35 -6 -37
0 -41 -3 -47 -31 -5 -21 -11 -29 -22 -25 -8 3 -21 6 -29 6 -8 0 -14 9 -14 20
0 25 18 26 37 3 7 -10 13 -13 12 -8 -6 47 0 55 46 51 25 -2 49 -6 52 -10z
m-1887 -16 c0 -5 -7 -10 -15 -10 -8 0 -15 5 -15 10 0 6 7 10 15 10 8 0 15 -4
15 -10z m430 -40 c13 -25 14 -25 -15 -26 -14 -1 -25 2 -25 7 0 5 5 9 10 9 18
0 11 15 -12 25 -12 6 -23 15 -26 22 -6 19 56 -15 68 -37z m147 22 c-15 -15
-27 -33 -27 -40 0 -15 -17 -16 -26 0 -4 6 6 23 25 40 41 36 63 37 28 0z m-73
3 c11 -8 17 -18 13 -21 -3 -3 -16 3 -28 15 -26 24 -14 28 15 6z m-1614 -11 c0
-8 -4 -12 -10 -9 -5 3 -10 10 -10 16 0 5 5 9 10 9 6 0 10 -7 10 -16z m4100 -4
c-8 -5 -17 -7 -19 -4 -3 3 1 9 9 14 8 5 17 7 19 4 3 -3 -1 -9 -9 -14z m-3420
-10 c0 -5 -4 -10 -10 -10 -5 0 -10 5 -10 10 0 6 5 10 10 10 6 0 10 -4 10 -10z
m560 0 c0 -5 -4 -10 -9 -10 -6 0 -13 5 -16 10 -3 6 1 10 9 10 9 0 16 -4 16
-10z m220 -11 c0 -4 -7 -6 -15 -3 -8 4 -15 10 -15 15 0 4 7 6 15 3 8 -4 15
-10 15 -15z m130 11 c0 -5 -7 -10 -15 -10 -8 0 -15 5 -15 10 0 6 7 10 15 10 8
0 15 -4 15 -10z m1252 -20 c-3 -16 0 -20 10 -14 16 10 59 6 76 -9 10 -8 16 -7
22 2 11 19 61 6 54 -14 -4 -8 -12 -15 -20 -15 -8 0 -14 -7 -14 -15 0 -8 -4
-15 -10 -15 -5 0 -10 10 -10 22 0 12 -3 18 -7 14 -11 -10 -12 -36 -2 -36 5 0
9 -7 9 -15 0 -8 7 -15 15 -15 8 0 15 -4 15 -10 0 -5 -11 -10 -24 -10 -13 0
-27 -8 -32 -17 -5 -13 -9 -4 -14 32 -4 29 -3 55 3 63 6 8 6 12 -2 12 -6 0 -11
-4 -11 -9 0 -5 -9 -11 -20 -14 -16 -4 -20 -14 -20 -43 0 -20 -3 -34 -7 -30 -4
4 -6 26 -5 49 2 33 0 39 -8 27 -9 -11 -13 -12 -17 -2 -2 6 -14 12 -26 13 -12
0 -31 5 -42 10 -14 6 -6 8 31 5 51 -4 51 -4 40 20 -6 13 -15 24 -21 24 -5 0
-3 5 5 10 22 14 35 6 32 -20z m1228 -3 c0 -18 -2 -19 -10 -7 -13 20 -13 43 0
35 6 -3 10 -16 10 -28z m-4050 -17 c0 -11 -4 -20 -8 -20 -4 0 -8 9 -9 20 -1
11 2 20 8 20 5 0 9 -9 9 -20z m274 1 c11 -12 25 -17 44 -13 18 3 24 1 17 -6
-19 -19 -54 -18 -69 3 -16 20 -16 20 -22 -2 -3 -13 -10 -23 -15 -23 -12 0 -11
4 3 35 13 30 20 31 42 6z m486 -3 c0 -7 -5 -20 -10 -28 -8 -12 -10 -9 -10 13
0 15 5 27 10 27 6 0 10 -6 10 -12z m40 -18 c0 -11 -7 -20 -15 -20 -15 0 -21
21 -8 33 12 13 23 7 23 -13z m40 4 c0 -8 -5 -12 -10 -9 -6 4 -8 11 -5 16 9 14
15 11 15 -7z m240 -4 c0 -5 -4 -10 -10 -10 -5 0 -10 5 -10 10 0 6 5 10 10 10
6 0 10 -4 10 -10z m-1114 -25 c-11 -8 -22 -12 -25 -9 -6 6 19 24 34 24 6 -1 1
-7 -9 -15z m1504 -6 c0 -5 -4 -9 -10 -9 -5 0 -10 7 -10 16 0 8 5 12 10 9 6 -3
10 -10 10 -16z m230 9 c0 -3 -9 -6 -20 -5 -11 1 -20 5 -20 9 0 3 9 6 20 5 11
-1 20 -5 20 -9z m-850 -19 c0 -5 -4 -9 -10 -9 -5 0 -10 7 -10 16 0 8 5 12 10
9 6 -3 10 -10 10 -16z m70 17 c0 -3 -4 -8 -10 -11 -5 -3 -10 -1 -10 4 0 6 5
11 10 11 6 0 10 -2 10 -4z m720 -6 c0 -5 -5 -10 -11 -10 -5 0 -7 5 -4 10 3 6
8 10 11 10 2 0 4 -4 4 -10z m-760 -10 c0 -5 -2 -10 -4 -10 -3 0 -8 5 -11 10
-3 6 -1 10 4 10 6 0 11 -4 11 -10z m95 0 c3 -5 -1 -10 -9 -10 -8 0 -18 5 -21
10 -3 6 1 10 9 10 8 0 18 -4 21 -10z m-57 -20 c-7 -11 -19 -20 -27 -20 -9 0
-6 7 9 20 13 11 25 20 27 20 2 0 -2 -9 -9 -20z m247 0 c3 -5 1 -10 -6 -10 -8
0 -7 -5 2 -17 13 -15 11 -16 -16 -9 -47 12 -50 12 -47 -1 1 -7 -2 -13 -8 -13
-13 0 -13 6 0 30 6 12 17 16 30 13 11 -3 20 0 20 6 0 14 17 14 25 1z m565 -10
c0 -5 -9 -6 -20 -3 -11 3 -20 9 -20 13 0 5 9 6 20 3 11 -3 20 -9 20 -13z m179
-34 c-9 -9 -49 6 -49 18 0 23 12 25 33 6 11 -11 18 -22 16 -24z m2181 24 c-12
-7 -10 -14 13 -38 23 -24 25 -30 13 -35 -11 -4 -18 1 -22 18 -3 14 -10 25 -15
25 -4 0 -13 10 -20 22 -10 18 -9 20 5 15 8 -3 18 -2 22 4 3 6 9 8 12 4 4 -3 0
-10 -8 -15z m-3100 -11 c0 -10 -31 -12 -54 -3 -9 3 -14 9 -11 13 6 10 65 1 65
-10z m85 12 c3 -5 1 -12 -5 -16 -5 -3 -10 1 -10 9 0 18 6 21 15 7z m160 -11
c-3 -5 -10 -10 -16 -10 -5 0 -9 5 -9 10 0 6 7 10 16 10 8 0 12 -4 9 -10z m470
0 c3 -5 -1 -10 -9 -10 -9 0 -16 5 -16 10 0 6 4 10 9 10 6 0 13 -4 16 -10z
m-1605 -6 c0 -10 -33 -33 -47 -34 -21 0 -15 14 10 26 27 14 37 16 37 8z m4047
-14 c1 -11 -3 -20 -8 -20 -6 0 -7 5 -4 10 3 6 -1 10 -9 10 -8 0 -18 5 -21 10
-3 6 4 10 17 10 17 0 24 -6 25 -20z m-3011 -6 c-3 -9 -6 -18 -6 -20 0 -3 -4
-3 -10 1 -11 7 -2 35 12 35 6 0 7 -7 4 -16z m591 -6 c-3 -8 -6 -5 -6 6 -1 11
2 17 5 13 3 -3 4 -12 1 -19z m-1317 2 c0 -6 -16 -8 -42 -4 -59 9 -60 14 -5 14
26 0 47 -5 47 -10z m520 -10 c-19 -12 -30 -12 -30 -1 0 10 31 20 40 14 2 -2
-2 -8 -10 -13z m-955 0 c-3 -5 -15 -10 -25 -10 -10 0 -22 5 -25 10 -4 6 7 10
25 10 18 0 29 -4 25 -10z m322 -5 c-4 -8 -2 -17 3 -20 12 -7 13 -25 2 -25 -4
0 -13 14 -19 30 -9 25 -9 30 4 30 9 0 13 -6 10 -15z m578 -5 c3 -5 1 -10 -4
-10 -6 0 -11 5 -11 10 0 6 2 10 4 10 3 0 8 -4 11 -10z m289 4 c20 -8 21 -24 2
-24 -8 0 -16 7 -20 15 -6 17 -4 18 18 9z m-756 -31 c13 -18 23 -23 33 -17 20
12 49 15 49 5 0 -5 3 -17 7 -27 5 -15 2 -16 -33 -10 -21 4 -49 17 -61 28 -12
11 -26 17 -32 14 -14 -9 -10 -66 5 -66 7 0 15 -4 18 -8 3 -5 -19 -9 -47 -11
-86 -4 -87 -4 -75 -18 8 -10 7 -13 -5 -13 -15 0 -27 20 -27 47 0 12 3 13 14 4
11 -9 25 -9 55 -1 42 11 55 35 26 46 -15 6 -20 35 -8 47 16 17 62 6 81 -20z
m382 23 c0 -3 -4 -8 -10 -11 -5 -3 -10 -1 -10 4 0 6 5 11 10 11 6 0 10 -2 10
-4z m930 -3 c0 -14 -19 -38 -25 -32 -8 8 5 39 16 39 5 0 9 -3 9 -7z m840 -7
c0 -7 -11 -16 -25 -18 -14 -3 -25 -1 -25 3 0 5 7 9 15 9 8 0 15 5 15 10 0 6 5
10 10 10 6 0 10 -6 10 -14z m-67 -30 c-5 -10 -13 -12 -22 -7 -12 8 -12 11 0
24 17 19 35 5 22 -17z m-2417 -33 c-11 -11 -19 6 -11 24 8 17 8 17 12 0 3 -10
2 -21 -1 -24z m734 27 c0 -5 -5 -10 -11 -10 -5 0 -7 5 -4 10 3 6 8 10 11 10 2
0 4 -4 4 -10z m273 -26 c-7 -19 -23 -7 -23 18 0 17 3 18 14 8 8 -6 12 -18 9
-26z m1719 3 c-2 -19 2 -27 13 -27 16 0 20 -12 8 -24 -8 -7 -74 65 -67 75 2 3
14 6 26 5 19 -1 22 -6 20 -29z m-2487 2 c-10 -15 -25 -10 -19 6 4 8 10 12 15
9 5 -3 7 -10 4 -15z m1345 11 c0 -5 -4 -10 -10 -10 -5 0 -10 5 -10 10 0 6 5
10 10 10 6 0 10 -4 10 -10z m60 6 c0 -3 -4 -8 -10 -11 -5 -3 -10 -1 -10 4 0 6
5 11 10 11 6 0 10 -2 10 -4z m-100 -16 c0 -5 -4 -10 -10 -10 -5 0 -10 5 -10
10 0 6 5 10 10 10 6 0 10 -4 10 -10z m-1517 -36 c-3 -9 -12 -12 -24 -9 -11 4
-19 2 -19 -4 0 -6 -4 -11 -10 -11 -5 0 -10 9 -10 20 0 17 5 19 32 13 24 -5 29
-3 23 7 -5 8 -4 11 3 6 6 -4 9 -13 5 -22z m1507 12 c0 -3 -4 -8 -10 -11 -5 -3
-10 -1 -10 4 0 6 5 11 10 11 6 0 10 -2 10 -4z m-820 -20 c0 -7 -7 -19 -15 -26
-12 -10 -15 -9 -15 7 0 11 3 23 7 26 11 12 23 8 23 -7z m-600 -11 c0 -17 -2
-18 -24 -9 -23 9 -20 24 4 24 11 0 20 -7 20 -15z m1654 -12 c-5 -17 -1 -28 12
-38 18 -14 18 -14 -3 -15 -14 0 -23 -6 -23 -15 0 -10 10 -15 30 -15 17 0 30
-5 30 -11 0 -7 -12 -10 -28 -7 -16 2 -34 -2 -41 -9 -6 -7 -16 -13 -21 -13 -14
0 -12 27 3 33 7 3 4 6 -7 6 -16 1 -18 7 -12 54 3 28 6 52 6 53 0 0 13 1 30 1
26 0 29 -3 24 -24z m-925 0 c-7 -8 -25 -13 -42 -11 -48 5 -42 23 8 24 38 1 44
-1 34 -13z m691 7 c0 -5 -2 -10 -4 -10 -3 0 -8 5 -11 10 -3 6 -1 10 4 10 6 0
11 -4 11 -10z m-1625 -10 c4 -6 -5 -10 -19 -10 -14 0 -26 5 -26 10 0 6 9 10
19 10 11 0 23 -4 26 -10z m731 2 c16 -10 28 -52 15 -52 -6 0 -11 9 -11 20 0
15 -7 20 -26 20 -14 0 -23 4 -19 10 7 12 25 13 41 2z m2513 -14 c6 -16 4 -28
-5 -39 -19 -21 -18 -32 6 -62 14 -17 26 -23 40 -20 31 8 24 -11 -10 -25 -17
-8 -28 -18 -24 -23 3 -5 10 -7 15 -4 5 4 9 -1 9 -9 0 -18 -25 -22 -35 -6 -4 6
-12 9 -18 8 -7 -1 -22 3 -34 10 -21 12 -23 11 -23 -11 0 -26 -36 -57 -66 -57
-12 0 -15 -6 -10 -22 16 -57 18 -78 7 -78 -6 0 -11 6 -11 13 0 6 -5 29 -11 51
-9 33 -14 37 -35 33 -28 -5 -33 13 -5 20 17 4 18 9 9 35 -8 21 -15 27 -27 22
-36 -15 -56 -17 -45 -5 6 6 26 14 45 17 34 6 36 5 48 -36 12 -41 13 -41 32
-24 21 19 26 44 8 44 -5 0 -7 5 -4 10 3 6 -2 10 -12 11 -10 0 -2 5 17 11 29 8
32 11 17 19 -9 6 -17 18 -17 27 0 15 2 15 10 2 9 -13 11 -13 20 0 8 13 11 12
16 -7 4 -13 11 -20 20 -16 8 3 14 0 14 -6 0 -6 -6 -11 -12 -11 -7 0 -4 -6 7
-12 11 -6 23 -16 27 -22 4 -6 9 -4 14 7 3 9 14 17 23 17 10 0 12 3 5 8 -6 4
-19 21 -29 39 -18 30 -18 33 -2 51 19 20 22 42 8 42 -5 0 -12 -8 -14 -17 -3
-11 -5 -7 -6 10 -1 34 26 37 38 5z m-3149 -10 c0 -6 11 -7 25 -4 14 4 25 2 25
-3 0 -5 -13 -12 -29 -16 -20 -4 -28 -11 -24 -21 7 -18 -6 -18 -31 1 -15 12
-17 17 -7 29 11 13 9 14 -18 6 -34 -9 -40 -4 -15 15 18 13 74 8 74 -7z m124
-1 c-5 -13 -44 -18 -44 -5 0 10 33 27 42 22 4 -3 5 -10 2 -17z m641 13 c3 -5
3 -15 -1 -21 -6 -11 -23 6 -24 24 0 10 18 9 25 -3z m705 0 c0 -5 -7 -10 -15
-10 -8 0 -15 5 -15 10 0 6 7 10 15 10 8 0 15 -4 15 -10z m1611 -67 c-9 -16
-10 -16 -11 -1 0 9 3 25 7 35 7 16 8 17 11 1 2 -10 -1 -25 -7 -35z m-1701 16
c0 -5 -4 -9 -10 -9 -5 0 -10 7 -10 16 0 8 5 12 10 9 6 -3 10 -10 10 -16z
m-830 7 c0 -2 3 -11 6 -20 5 -12 0 -16 -19 -16 -20 0 -24 4 -20 20 4 16 33 30
33 16z m210 -3 c-8 -3 -19 -12 -23 -19 -4 -8 -14 -14 -22 -14 -12 0 -12 4 2
20 10 11 27 20 38 19 14 0 16 -2 5 -6z m-687 -23 c3 -11 1 -20 -4 -20 -5 0 -9
2 -9 4 0 2 -3 11 -6 20 -3 9 -2 16 4 16 5 0 12 -9 15 -20z m622 10 c-3 -5 -13
-10 -21 -10 -8 0 -14 5 -14 10 0 6 9 10 21 10 11 0 17 -4 14 -10z m98 -6 c11
-11 -3 -24 -18 -18 -8 4 -12 10 -9 15 6 11 18 12 27 3z m-773 -14 c0 -5 -5
-10 -11 -10 -5 0 -7 5 -4 10 3 6 8 10 11 10 2 0 4 -4 4 -10z m650 -16 c0 -7
-4 -16 -10 -19 -5 -3 -10 -11 -10 -16 0 -6 5 -7 10 -4 6 3 10 -1 10 -9 0 -27
-15 -18 -38 22 l-21 39 29 0 c18 0 30 -6 30 -13z m365 6 c3 -5 17 -10 31 -10
13 0 24 -5 24 -11 0 -8 -15 -10 -47 -5 -53 7 -63 13 -43 26 19 12 27 12 35 0z
m1870 -10 c10 -11 15 -23 12 -27 -8 -7 -47 25 -47 39 0 14 16 9 35 -12z
m-1094 -10 c11 0 7 -59 -5 -79 -6 -9 -11 -10 -15 -2 -4 6 -28 14 -53 17 -45 6
-47 6 -42 -17 5 -23 5 -23 -10 -5 -30 37 -21 49 32 42 26 -4 55 -9 65 -12 13
-4 17 1 17 20 0 20 -5 26 -21 26 -12 0 -17 4 -14 11 4 6 14 8 22 5 8 -3 19 -6
24 -6z m799 0 c0 -5 -4 -10 -10 -10 -5 0 -10 -9 -10 -21 0 -11 -4 -28 -10 -38
-8 -16 -5 -17 18 -14 24 4 25 3 9 -7 -10 -7 -25 -9 -33 -6 -25 10 0 106 27
106 5 0 9 -4 9 -10z m-1299 -38 c-36 -6 -56 5 -41 23 10 12 15 12 38 -3 l26
-17 -23 -3z m-316 18 c-3 -5 -10 -10 -16 -10 -5 0 -9 5 -9 10 0 6 7 10 16 10
8 0 12 -4 9 -10z m1265 -11 c0 -12 -37 -12 -44 0 -3 4 -3 11 0 14 8 7 44 -4
44 -14z m-1050 1 c0 -5 -7 -10 -15 -10 -8 0 -15 5 -15 10 0 6 7 10 15 10 8 0
15 -4 15 -10z m1100 0 c0 -5 -7 -10 -15 -10 -8 0 -15 5 -15 10 0 6 7 10 15 10
8 0 15 -4 15 -10z m-1190 -9 c0 -5 -7 -12 -16 -15 -13 -5 -7 -13 24 -39 23
-17 41 -38 41 -44 1 -8 14 -13 32 -13 17 0 28 -4 24 -10 -3 -5 -1 -10 4 -10 6
0 11 5 11 10 0 15 30 12 31 -2 0 -7 5 3 10 22 23 83 50 123 41 60 -2 -16 -8
-30 -12 -30 -13 0 -18 -64 -6 -72 8 -6 7 -8 -1 -8 -7 0 -13 -9 -13 -20 0 -11
-4 -20 -10 -20 -5 0 -10 7 -10 15 0 15 -11 19 -39 16 -7 -2 -10 2 -6 8 7 13 3
14 -19 5 -9 -3 -14 -10 -11 -14 3 -5 1 -11 -5 -15 -6 -4 -10 4 -10 18 0 30 -7
33 -93 42 -65 7 -67 8 -67 36 0 15 5 31 12 35 7 4 8 3 4 -4 -4 -7 -3 -12 3
-12 6 0 8 -6 5 -14 -4 -10 6 -16 36 -21 23 -4 43 -5 46 -3 2 3 -9 18 -26 34
-34 34 -36 42 -12 60 20 16 32 18 32 5z m-790 -21 c0 -5 -5 -10 -11 -10 -5 0
-7 5 -4 10 3 6 8 10 11 10 2 0 4 -4 4 -10z m440 -10 c0 -13 5 -18 15 -14 21 9
19 -10 -5 -31 -11 -10 -20 -23 -20 -30 0 -7 -9 -22 -20 -35 -19 -22 -20 -23
-20 -2 0 11 4 22 9 24 16 6 17 43 1 43 -8 0 -16 -7 -16 -15 -1 -8 -2 -23 -3
-32 0 -10 -10 -22 -20 -27 -17 -10 -19 -7 -19 24 0 23 5 35 14 35 8 0 14 5 14
10 0 6 -9 10 -20 10 -11 0 -20 -5 -20 -10 0 -13 -32 -9 -42 5 -4 6 -8 16 -8
24 0 11 3 11 15 1 21 -17 82 -4 95 20 14 27 50 26 50 0z m280 16 c0 -11 -19
-15 -25 -6 -3 5 1 10 9 10 9 0 16 -2 16 -4z m607 -24 c9 -6 8 -12 -7 -24 -17
-15 -20 -15 -31 -2 -10 13 -10 17 2 25 17 11 21 11 36 1z m-2011 -28 c-3 -9
-9 -33 -12 -55 -7 -43 -24 -63 -24 -28 0 33 22 99 33 99 5 0 6 -7 3 -16z m74
12 c0 -3 -4 -8 -10 -11 -5 -3 -10 -1 -10 4 0 6 5 11 10 11 6 0 10 -2 10 -4z
m570 -47 c-7 -16 -16 -29 -21 -29 -5 0 -5 10 0 23 5 12 13 31 16 42 5 13 9 16
12 7 3 -7 0 -26 -7 -43z m1680 -9 c6 -20 5 -32 -3 -37 -6 -3 -13 -1 -15 6 -3
9 -9 8 -23 -5 -22 -20 -16 -34 14 -34 17 0 19 -2 8 -9 -12 -8 -13 -14 -3 -37
17 -37 7 -42 -15 -8 -15 25 -23 29 -55 26 -41 -3 -48 -15 -20 -31 14 -8 15
-12 5 -22 -10 -9 -13 -10 -13 -1 0 6 -7 9 -16 5 -13 -5 -15 -2 -10 14 5 16 1
22 -19 27 -30 8 -33 22 -5 29 11 3 20 2 20 -2 0 -4 16 -7 36 -7 31 0 36 4 41
28 3 16 17 38 31 49 19 15 23 22 14 31 -7 7 -12 18 -12 26 0 22 30 -13 40 -48z
m900 50 c0 -11 -40 -34 -47 -26 -8 8 8 27 18 21 5 -4 9 -1 9 4 0 6 5 11 10 11
6 0 10 -4 10 -10z m-2015 -21 c-5 -14 -55 -42 -62 -35 -7 7 10 36 18 30 5 -3
9 -1 9 5 0 5 8 11 18 13 22 5 24 4 17 -13z m725 11 c0 -5 -4 -10 -10 -10 -5 0
-10 5 -10 10 0 6 5 10 10 10 6 0 10 -4 10 -10z m-1895 -10 c3 -5 -1 -10 -9
-10 -9 0 -16 5 -16 10 0 6 4 10 9 10 6 0 13 -4 16 -10z m1273 -7 c2 -8 -5 -13
-17 -13 -12 0 -21 6 -21 16 0 18 31 15 38 -3z m292 7 c0 -5 -4 -10 -10 -10 -5
0 -10 5 -10 10 0 6 5 10 10 10 6 0 10 -4 10 -10z m480 0 c0 -5 -9 -10 -20 -10
-11 0 -20 5 -20 10 0 6 9 10 20 10 11 0 20 -4 20 -10z m-70 -10 c0 -5 -5 -10
-11 -10 -5 0 -7 5 -4 10 3 6 8 10 11 10 2 0 4 -4 4 -10z m170 -6 c0 -2 -7 -4
-15 -4 -8 0 -15 4 -15 10 0 5 7 7 15 4 8 -4 15 -8 15 -10z m-313 -9 c-4 -8 -2
-17 3 -20 12 -7 13 -25 3 -25 -5 0 -16 7 -27 15 -15 12 -16 16 -5 29 18 20 33
20 26 1z m1348 5 c3 -5 1 -10 -4 -10 -6 0 -11 5 -11 10 0 6 2 10 4 10 3 0 8
-4 11 -10z m-1864 -15 c-1 -15 -24 -12 -29 3 -3 9 2 13 12 10 10 -1 17 -7 17
-13z m604 5 c4 -6 -3 -25 -14 -43 -20 -31 -21 -31 -27 -9 -4 12 -10 22 -15 22
-5 0 -9 5 -9 10 0 6 12 8 26 6 19 -4 24 -1 20 10 -6 16 9 19 19 4z m90 -10 c3
-5 2 -10 -4 -10 -5 0 -13 5 -16 10 -3 6 -2 10 4 10 5 0 13 -4 16 -10z m305
-18 c0 -10 5 -23 12 -30 7 -7 8 -12 3 -12 -20 0 -34 16 -32 38 2 26 17 30 17
4z m-1619 -23 c9 -17 13 -19 20 -8 6 10 9 6 9 -13 0 -39 -21 -35 -42 7 -19 37
-7 50 13 14z m439 -5 c0 -8 -5 -12 -10 -9 -6 4 -8 11 -5 16 9 14 15 11 15 -7z
m2295 -16 c1 -14 7 -34 15 -43 13 -15 12 -17 -5 -14 -15 3 -21 14 -23 41 -2
24 -9 38 -20 42 -9 2 -6 4 8 3 20 -2 25 -8 25 -29z m-2132 -18 c-3 -11 -9 -18
-13 -15 -5 3 -6 14 -3 25 3 11 9 18 13 15 5 -3 6 -14 3 -25z m265 12 c6 -18
-15 -14 -22 4 -4 10 -1 14 6 12 6 -2 14 -10 16 -16z m816 -39 c-2 -15 -1 -20
2 -10 7 22 28 17 32 -8 3 -10 0 -15 -7 -11 -6 4 -11 2 -11 -3 0 -6 8 -11 19
-11 22 0 45 -25 36 -40 -3 -5 1 -10 9 -10 17 0 31 -18 21 -28 -3 -3 -10 0 -15
8 -8 12 -10 12 -10 1 0 -10 -3 -11 -14 -2 -10 8 -16 9 -21 1 -3 -5 -11 -10
-17 -10 -6 0 -5 6 3 16 10 13 10 17 -1 24 -8 5 -19 5 -26 -1 -8 -6 -14 -4 -18
7 -5 13 -9 14 -21 4 -12 -10 -16 -9 -21 4 -3 8 -4 21 -1 28 3 8 6 6 6 -5 1
-10 5 -16 11 -12 5 3 7 12 4 19 -3 8 -1 17 5 21 6 3 11 11 11 17 0 7 -6 6 -15
-2 -13 -11 -15 -8 -15 13 0 28 17 39 41 26 11 -5 15 -18 13 -36z m-839 26 c12
-19 -5 -23 -22 -6 -16 16 -16 17 -1 17 9 0 20 -5 23 -11z m1045 -21 c0 -6 -7
-5 -15 2 -8 7 -15 17 -15 22 0 6 7 5 15 -2 8 -7 15 -17 15 -22z m-960 3 c0
-15 -38 -19 -44 -6 -3 8 3 15 12 18 20 4 32 -1 32 -12z m1741 -18 c-10 -17
-10 -16 -11 3 0 23 13 41 18 25 2 -6 -1 -18 -7 -28z m943 -12 c-6 -6 -24 19
-24 34 1 6 7 1 15 -9 8 -11 12 -22 9 -25z m-4116 9 c-13 -20 -68 -26 -68 -7 0
5 11 7 24 5 15 -3 27 0 30 8 3 8 10 14 16 14 6 0 5 -7 -2 -20z m176 -29 c-6
-6 -24 19 -24 34 1 6 7 1 15 -9 8 -11 12 -22 9 -25z m2577 17 c0 -13 2 -42 4
-65 2 -23 -2 -49 -9 -58 -9 -13 -12 -1 -14 64 -1 50 2 81 8 81 5 0 10 -10 11
-22z m896 0 c-3 -8 -6 -5 -6 6 -1 11 2 17 5 13 3 -3 4 -12 1 -19z m-2370 6
c-3 -3 -12 -4 -19 -1 -8 3 -5 6 6 6 11 1 17 -2 13 -5z m1143 -27 c0 -5 -4 -5
-10 -2 -5 3 -10 14 -10 23 0 15 2 15 10 2 5 -8 10 -19 10 -23z m720 19 c0 -16
-18 -31 -27 -22 -8 8 5 36 17 36 5 0 10 -6 10 -14z m-2793 -18 c-3 -8 -6 -5
-6 6 -1 11 2 17 5 13 3 -3 4 -12 1 -19z m123 13 c0 -5 -9 -11 -20 -14 -24 -6
-26 -35 -3 -52 14 -10 15 -17 6 -36 l-12 -24 0 28 c-1 22 -6 27 -26 27 -14 0
-25 5 -25 10 0 6 3 10 8 10 4 0 15 14 24 30 16 28 48 42 48 21z m955 -1 c3 -5
1 -10 -4 -10 -6 0 -11 5 -11 10 0 6 2 10 4 10 3 0 8 -4 11 -10z m1835 -19 c0
-11 9 -38 20 -62 22 -50 25 -84 9 -95 -8 -5 -10 1 -7 18 5 28 -16 66 -27 49
-3 -6 -3 -17 1 -23 5 -7 8 -23 7 -35 -1 -13 -1 -34 -2 -48 -1 -36 -17 -31 -26
8 -6 30 -9 92 -5 120 2 6 -1 20 -5 30 -5 12 -3 17 8 17 10 0 13 8 9 26 -3 19
-1 25 7 20 6 -4 11 -15 11 -25z m-1720 3 c0 -2 -7 -4 -15 -4 -8 0 -15 4 -15
10 0 5 7 7 15 4 8 -4 15 -8 15 -10z m2594 -9 c3 -8 1 -15 -3 -15 -5 0 -11 7
-15 15 -3 8 -1 15 3 15 5 0 11 -7 15 -15z m-4304 -5 c0 -5 -10 -10 -22 -10
-19 0 -20 2 -8 10 19 13 30 13 30 0z m1800 0 c-8 -5 -24 -9 -35 -9 l-20 0 20
9 c11 5 27 9 35 9 13 1 13 0 0 -9z m-1370 -21 c0 -6 -4 -7 -10 -4 -5 3 -10 11
-10 16 0 6 5 7 10 4 6 -3 10 -11 10 -16z m110 3 c0 -13 -12 -22 -22 -16 -10 6
-1 24 13 24 5 0 9 -4 9 -8z m1320 -7 c9 -11 8 -18 -9 -36 -20 -21 -21 -21 -47
-4 -23 15 -26 15 -21 2 4 -10 -1 -18 -11 -21 -11 -4 -18 -16 -17 -33 0 -18 -6
-29 -18 -31 -29 -6 -30 24 -2 53 28 27 28 48 0 25 -8 -7 -15 -8 -15 -3 0 14
39 47 47 40 3 -4 12 -2 19 4 8 6 21 9 29 5 8 -3 15 -1 15 4 0 15 16 12 30 -5z
m758 -3 c6 -18 -15 -14 -22 4 -4 10 -1 14 6 12 6 -2 14 -10 16 -16z m-2498
-29 l0 -37 -21 23 c-20 22 -20 23 -3 36 11 8 20 15 22 15 1 0 2 -17 2 -37z
m3164 -10 c-10 -7 -21 -13 -26 -13 -14 0 -9 18 7 24 8 3 15 13 15 23 1 17 2
16 12 -1 9 -15 7 -22 -8 -33z m-3128 1 c-1 -28 -7 -39 -23 -45 -30 -11 -36
-56 -9 -74 24 -17 56 -20 56 -4 0 5 6 7 13 3 9 -6 9 -4 -1 8 -19 24 11 52 39
37 11 -5 17 -14 13 -20 -4 -7 -10 -6 -18 1 -10 8 -13 3 -12 -20 1 -22 6 -30
20 -30 15 0 16 3 6 15 -14 16 -10 18 14 9 9 -3 16 -12 16 -20 0 -17 26 -19 33
-1 4 9 8 9 15 -1 5 -8 17 -12 27 -10 22 4 33 28 13 28 -33 1 -40 16 -22 53 10
21 22 37 26 37 5 0 7 -4 4 -9 -3 -5 14 -12 39 -15 25 -4 45 -9 45 -12 0 -17
-24 -45 -34 -41 -7 3 -19 1 -27 -3 -10 -7 -8 -11 9 -17 l23 -9 -20 -18 c-26
-23 -27 -36 -3 -36 9 0 13 -4 7 -8 -5 -4 -10 -25 -10 -47 0 -33 3 -40 18 -38
15 1 17 -4 13 -22 -8 -32 16 -51 38 -30 9 9 16 12 16 6 0 -18 24 -12 38 9 13
21 42 28 42 10 0 -5 -6 -10 -13 -10 -8 0 -19 -11 -25 -25 -15 -32 -16 -56 -2
-35 8 12 12 13 19 1 7 -10 13 -11 31 -1 22 12 23 11 17 -19 -5 -23 -3 -33 8
-37 21 -9 18 -48 -5 -69 -11 -10 -20 -14 -20 -10 0 5 -5 4 -12 -3 -8 -8 -8
-15 1 -26 10 -11 8 -17 -9 -29 -24 -17 -56 -12 -64 10 -4 10 0 13 16 11 15 -2
24 3 26 15 2 12 -3 17 -19 17 -18 0 -20 3 -11 12 17 17 15 28 -6 28 -10 0 -23
5 -28 10 -7 7 -16 4 -29 -10 -28 -31 -52 -26 -59 15 -8 39 -2 55 20 55 11 0
12 -4 5 -18 -7 -13 -6 -23 2 -31 9 -9 8 -14 -3 -21 -8 -5 -11 -10 -6 -10 12 0
46 31 46 42 0 4 -8 8 -17 8 -15 0 -15 2 -4 9 22 14 22 59 0 74 -10 8 -16 17
-12 21 4 4 -3 9 -16 13 -18 4 -21 11 -17 29 6 22 4 23 -34 18 -52 -6 -66 2
-44 27 9 11 14 22 9 27 -4 4 -10 2 -12 -4 -3 -9 -10 -9 -29 0 -20 9 -24 16
-20 39 5 22 2 27 -14 27 -17 0 -19 -5 -14 -25 3 -14 2 -25 -4 -25 -5 0 -13 11
-16 24 -7 28 -36 42 -48 24 -6 -10 -8 -8 -8 5 0 9 -4 17 -10 17 -5 0 -10 -4
-10 -10 0 -5 -5 -10 -11 -10 -6 0 -9 6 -6 14 3 7 0 19 -6 25 -13 13 -31 15
-23 2 4 -5 3 -17 -1 -27 -6 -16 -7 -16 -14 2 -7 17 -8 17 -8 2 -1 -19 -16 -24
-25 -9 -3 5 1 14 9 21 12 10 13 16 4 26 -9 11 -6 14 15 14 19 0 27 6 32 25 3
13 14 27 25 30 11 4 21 20 25 41 8 45 21 44 20 -2z m2153 15 c-16 -10 -23 -4
-14 10 3 6 11 8 17 5 6 -4 5 -9 -3 -15z m-1939 -19 c0 -5 -2 -10 -4 -10 -3 0
-8 5 -11 10 -3 6 -1 10 4 10 6 0 11 -4 11 -10z m1018 -8 c2 -7 -3 -12 -11 -12
-16 0 -27 -21 -27 -51 0 -10 -5 -19 -11 -19 -14 0 -5 66 12 86 13 16 31 14 37
-4z m682 9 c0 -4 -11 -6 -25 -3 -14 2 -25 6 -25 8 0 2 11 4 25 4 14 0 25 -4
25 -9z m574 -7 c9 -22 -3 -32 -14 -14 -12 19 -12 30 -1 30 5 0 12 -7 15 -16z
m-2239 -13 c-3 -6 -11 -11 -17 -11 -6 0 -6 6 2 15 14 17 26 13 15 -4z m1469 3
c8 -22 8 -24 -8 -24 -15 0 -28 24 -19 34 11 10 21 7 27 -10z m521 -4 c-10 -11
-20 -18 -23 -15 -7 6 18 35 31 35 5 0 2 -9 -8 -20z m42 -2 c-3 -8 -6 -5 -6 6
-1 11 2 17 5 13 3 -3 4 -12 1 -19z m-477 -8 c0 -5 -7 -10 -15 -10 -8 0 -15 5
-15 10 0 6 7 10 15 10 8 0 15 -4 15 -10z m-370 -15 c0 -8 -4 -15 -10 -15 -5 0
-10 7 -10 15 0 8 5 15 10 15 6 0 10 -7 10 -15z m70 5 c0 -5 -7 -10 -16 -10 -8
0 -12 5 -9 10 3 6 10 10 16 10 5 0 9 -4 9 -10z m180 6 c0 -2 3 -12 6 -21 6
-14 3 -14 -19 -4 -27 12 -27 29 -1 29 8 0 14 -2 14 -4z m1170 -21 l0 -25 40
26 c45 30 55 28 42 -7 -5 -13 -8 -39 -6 -56 1 -18 -2 -33 -6 -33 -13 0 -19 53
-9 72 5 10 7 18 4 18 -10 0 -40 -32 -41 -44 -5 -46 -6 -50 -11 -37 -4 9 -7 10
-13 2 -11 -19 -40 -1 -40 25 0 28 8 30 26 7 7 -10 16 -14 21 -9 4 4 -2 15 -14
23 -22 15 -30 43 -16 56 13 14 23 6 23 -18z m-2330 5 c12 -8 11 -10 -7 -10
-13 0 -23 5 -23 10 0 13 11 13 30 0z m1123 -20 c7 0 4 -5 -6 -11 -24 -14 -31
-6 -21 23 6 19 9 20 12 6 2 -10 9 -18 15 -18z m871 -9 c-6 -6 -24 19 -24 34 1
6 7 1 15 -9 8 -11 12 -22 9 -25z m-1934 13 c0 -2 -9 -4 -20 -4 -11 0 -20 4
-20 9 0 5 9 7 20 4 11 -3 20 -7 20 -9z m573 -12 c-3 -12 -9 -22 -14 -22 -12 0
-11 7 2 32 13 25 20 19 12 -10z m1077 2 c0 -2 -7 -4 -15 -4 -8 0 -15 4 -15 10
0 5 7 7 15 4 8 -4 15 -8 15 -10z m960 7 c0 -6 -4 -13 -10 -16 -5 -3 -10 1 -10
9 0 9 5 16 10 16 6 0 10 -4 10 -9z m-2665 -38 c-7 -41 -12 -50 -21 -41 -3 4
-1 15 5 26 6 11 8 28 5 36 -4 9 -1 16 6 16 9 0 10 -11 5 -37z m736 7 c10 0 10
-3 1 -12 -9 -9 -15 -9 -23 -1 -6 6 -18 9 -25 6 -17 -6 -18 9 -2 25 10 10 15
10 24 -3 6 -8 17 -15 25 -15z m466 10 c-1 -13 -6 -19 -15 -15 -7 3 -23 5 -35
5 -35 0 -3 21 45 29 4 0 6 -8 5 -19z m553 10 c12 -8 11 -10 -7 -10 -13 0 -23
5 -23 10 0 13 11 13 30 0z m-2431 -12 c0 -7 -4 -22 -9 -33 -7 -17 -9 -15 -9
13 -1 17 4 32 9 32 6 0 10 -6 9 -12z m1687 4 c16 -11 32 -45 27 -59 -3 -7 -14
-13 -26 -12 -20 0 -20 1 -5 11 14 11 15 14 1 35 -8 12 -20 20 -26 16 -6 -3 -7
-1 -3 5 8 14 16 15 32 4z m719 -25 c73 -16 84 -35 21 -35 -25 1 -43 5 -40 9 8
13 -17 22 -29 10 -18 -18 -44 -13 -50 11 -7 25 11 42 29 28 6 -6 37 -16 69
-23z m-2250 13 c3 -5 1 -10 -4 -10 -6 0 -11 5 -11 10 0 6 2 10 4 10 3 0 8 -4
11 -10z m1895 -22 c0 -11 -32 -10 -49 1 -7 5 -11 13 -7 19 7 11 56 -7 56 -20z
m-1480 -9 c0 -11 -4 -18 -10 -14 -5 3 -7 12 -3 20 7 21 13 19 13 -6z m711 -19
c5 0 9 -5 9 -11 0 -8 -4 -8 -14 0 -11 9 -18 4 -35 -24 -11 -20 -21 -40 -21
-46 0 -5 -4 -9 -10 -9 -14 0 -13 3 23 72 25 48 33 57 35 40 2 -12 8 -22 13
-22z m-201 13 c0 -10 -5 -25 -10 -33 -7 -12 -12 -12 -22 -2 -9 9 -9 12 0 12 7
0 12 9 12 20 0 11 5 20 10 20 6 0 10 -8 10 -17z m-440 -3 c0 -5 -7 -13 -16
-18 -11 -6 -15 -17 -11 -31 4 -16 1 -21 -14 -21 -28 0 -22 62 6 72 30 9 35 9
35 -2z m70 -5 c-7 -9 -15 -13 -17 -11 -7 7 7 26 19 26 6 0 6 -6 -2 -15z m1364
-11 c18 -7 10 -34 -10 -34 -17 0 -18 -17 -1 -23 6 -2 9 -7 5 -11 -7 -8 -58 33
-58 46 0 5 8 4 19 -1 21 -12 32 -5 24 15 -6 15 -2 17 21 8z m1161 -24 c-3 -16
-1 -30 4 -30 5 0 7 -8 4 -18 -5 -19 -33 -26 -33 -9 0 6 -7 19 -17 29 -10 12
-12 18 -4 18 7 0 9 5 5 12 -5 8 -2 9 9 5 11 -4 17 -1 17 8 0 8 5 15 10 15 6 0
8 -13 5 -30z m726 -13 c-8 -8 -11 -5 -11 9 0 27 14 41 18 19 2 -9 -1 -22 -7
-28z m-1596 3 c11 -16 26 -30 33 -30 7 0 10 -5 7 -10 -8 -13 19 -40 39 -40 9
0 16 -4 16 -10 0 -5 -7 -10 -15 -10 -18 0 -136 116 -127 124 12 13 28 5 47
-24z m-1695 10 c12 -8 9 -10 -12 -10 -16 0 -28 5 -28 10 0 13 20 13 40 0z
m463 -4 c16 6 33 -13 22 -24 -3 -3 -10 0 -14 7 -6 9 -11 10 -15 2 -8 -13 -46
3 -46 20 0 6 7 6 19 -1 11 -5 26 -7 34 -4z m969 -18 c-7 -7 -12 -8 -12 -2 0
14 12 26 19 19 2 -3 -1 -11 -7 -17z m545 -28 c45 5 53 0 53 -30 0 -38 15 -38
59 0 19 16 37 27 40 24 3 -3 -7 -17 -23 -30 -27 -24 -28 -26 -10 -39 11 -8 22
-15 27 -15 4 0 7 -5 7 -11 0 -7 -11 -4 -27 7 -16 10 -41 18 -58 19 -25 0 -30
4 -30 25 0 21 -4 25 -28 23 -15 -1 -25 2 -22 8 4 5 -3 9 -14 9 -11 0 -23 5
-26 10 -4 6 -11 8 -16 5 -5 -4 -9 -1 -9 4 0 6 -7 11 -15 11 -8 0 -12 6 -9 15
5 11 13 9 44 -11 21 -14 47 -25 57 -24z m-2101 20 c16 0 19 -16 3 -25 -13 -9
-15 -6 -23 25 -3 14 -3 19 0 13 3 -7 12 -13 20 -13z m1295 -2 c10 -13 18 -29
19 -35 0 -7 7 -13 15 -13 8 0 15 -4 15 -10 0 -5 7 -10 15 -10 8 0 15 -4 15 -9
0 -5 21 -7 48 -5 26 2 39 1 30 -2 -22 -7 -22 -21 -3 -67 18 -44 40 -53 60 -24
l15 21 0 -24 c0 -17 -8 -29 -22 -35 -19 -9 -26 -7 -39 13 -15 21 -18 22 -31 8
-22 -22 -32 -6 -11 17 17 18 17 20 -6 38 -34 28 -61 25 -61 -6 0 -14 -5 -25
-11 -25 -7 0 -9 11 -6 29 5 23 1 31 -19 41 -16 9 -24 22 -24 40 0 14 -7 35
-15 46 -28 37 -15 48 16 12z m669 12 c0 -5 -5 -10 -11 -10 -5 0 -7 5 -4 10 3
6 8 10 11 10 2 0 4 -4 4 -10z m800 6 c0 -2 -9 -6 -20 -9 -11 -3 -20 -1 -20 4
0 5 9 9 20 9 11 0 20 -2 20 -4z m-3210 -28 c0 -7 15 -9 40 -5 39 5 52 -4 28
-19 -8 -5 -2 -12 17 -20 l30 -13 -27 -1 c-15 0 -30 -5 -33 -10 -4 -6 -24 -9
-46 -7 -33 3 -39 1 -39 -15 0 -11 -4 -16 -10 -13 -5 3 -10 2 -10 -3 0 -5 -13
-15 -30 -22 -16 -7 -30 -16 -30 -21 0 -5 -4 -9 -10 -9 -18 0 2 31 30 45 21 11
27 20 23 35 -3 11 0 26 6 33 14 18 2 30 -16 16 -14 -13 -17 -1 -5 19 5 7 16
10 25 6 9 -3 17 -2 17 3 0 5 9 9 20 10 11 1 20 -3 20 -9z m550 2 c0 -6 -6 -13
-14 -16 -8 -3 -13 -13 -11 -22 2 -9 4 -23 4 -29 1 -7 6 -12 12 -10 6 1 13 -10
14 -25 4 -27 -8 -38 -20 -19 -6 11 -45 10 -45 -1 0 -4 -4 -8 -10 -8 -18 0 -11
42 9 47 13 3 17 11 14 24 -4 13 -11 18 -23 14 -10 -3 -21 -1 -25 5 -4 6 6 10
24 10 20 0 34 7 41 20 11 21 30 27 30 10z m1310 -12 c0 -10 -9 -9 -35 2 -17 8
-16 8 8 7 15 -1 27 -5 27 -9z m-1520 -7 c0 -5 -9 -11 -20 -14 -11 -3 -20 -1
-20 3 0 5 8 11 18 13 9 3 18 5 20 6 1 0 2 -3 2 -8z m40 -1 c0 -5 -7 -10 -15
-10 -8 0 -15 5 -15 10 0 6 7 10 15 10 8 0 15 -4 15 -10z m1705 0 c3 -5 -3 -10
-14 -10 -12 0 -21 5 -21 10 0 6 6 10 14 10 8 0 18 -4 21 -10z m-410 -32 c1
-39 12 -45 26 -15 7 15 16 24 20 21 10 -6 -10 -54 -22 -54 -5 0 -7 -18 -5 -41
3 -31 0 -39 -11 -35 -10 4 -11 2 -5 -10 10 -18 4 -61 -9 -70 -5 -3 -9 -16 -9
-30 0 -30 17 -31 63 -4 27 16 40 18 61 10 48 -18 22 -45 -33 -34 -16 3 -38 1
-50 -6 -12 -6 -31 -8 -42 -5 -17 6 -19 12 -13 43 4 20 10 44 15 53 14 26 -27
72 -57 65 -27 -7 -33 8 -7 18 15 6 15 8 -2 20 -14 10 -15 16 -6 34 6 11 20 24
31 27 15 5 19 12 14 27 -5 16 -2 19 18 16 17 -2 23 -9 23 -30z m155 16 c0 -17
-22 -14 -28 4 -2 7 3 12 12 12 9 0 16 -7 16 -16z m-364 -31 c-11 -11 -19 6
-11 24 8 17 8 17 12 0 3 -10 2 -21 -1 -24z m2628 -4 c-10 -12 -18 -23 -16 -25
7 -11 0 -24 -13 -24 -8 0 -12 -6 -9 -14 3 -7 -3 -16 -12 -20 -22 -9 -28 -2
-16 21 6 10 8 32 5 48 -3 23 -2 27 6 15 6 -8 11 -10 11 -5 0 6 4 4 9 -3 6 -10
12 -7 25 13 10 15 20 24 23 21 4 -3 -2 -15 -13 -27z m-204 -44 c0 -14 -4 -25
-10 -25 -5 0 -10 11 -10 25 0 14 5 25 10 25 6 0 10 -11 10 -25z m-2510 5 c0
-5 -4 -10 -10 -10 -5 0 -10 5 -10 10 0 6 5 10 10 10 6 0 10 -4 10 -10z m870
-18 c0 -10 -11 -25 -25 -32 -23 -12 -28 -12 -43 4 -16 17 -16 18 8 11 14 -4
22 -4 18 0 -4 5 0 14 10 21 24 18 32 17 32 -4z m-2260 -12 c0 -5 -4 -10 -10
-10 -5 0 -10 5 -10 10 0 6 5 10 10 10 6 0 10 -4 10 -10z m287 4 c-3 -3 -12 -4
-19 -1 -8 3 -5 6 6 6 11 1 17 -2 13 -5z m2324 -39 c11 7 12 -16 1 -30 -4 -5
-15 -11 -25 -13 -18 -3 -18 13 1 73 6 17 7 16 10 -8 2 -15 8 -25 13 -22z
m-2071 25 c0 -5 -5 -10 -11 -10 -5 0 -7 -5 -4 -10 5 -8 11 -7 21 1 11 9 14 8
14 -5 0 -9 -5 -16 -11 -16 -6 0 -9 -7 -5 -15 8 -23 -7 -17 -26 10 -10 13 -15
31 -12 39 7 17 34 22 34 6z m37 -22 c-3 -8 -6 -5 -6 6 -1 11 2 17 5 13 3 -3 4
-12 1 -19z m1498 -14 c1 -13 -3 -24 -7 -24 -4 0 -8 14 -8 32 0 36 15 29 15 -8z
m2117 14 c-6 -24 -21 -33 -34 -20 -15 15 -2 41 20 39 13 -1 18 -7 14 -19z
m-1793 -30 c9 -14 10 -23 3 -26 -5 -1 -9 -11 -7 -20 1 -9 0 -11 -2 -4 -5 14
-23 16 -23 2 0 -5 -9 -10 -20 -10 -11 0 -20 5 -20 10 0 6 5 10 11 10 5 0 8 4
5 9 -3 5 1 14 9 21 7 6 11 18 8 26 -8 22 20 8 36 -18z m1655 17 c-6 -16 -24
-21 -24 -7 0 11 11 22 21 22 5 0 6 -7 3 -15z m-3804 -15 c13 -8 13 -10 -2 -10
-9 0 -20 5 -23 10 -8 13 5 13 25 0z m1530 0 c0 -5 -7 -10 -16 -10 -8 0 -12 5
-9 10 3 6 10 10 16 10 5 0 9 -4 9 -10z m-1560 -14 c0 -2 -9 -6 -20 -9 -11 -3
-20 -1 -20 4 0 5 9 9 20 9 11 0 20 -2 20 -4z m3970 -48 c0 -25 -15 -23 -28 5
-10 22 -11 22 -11 -5 -1 -16 -4 -28 -8 -29 -5 0 -16 -2 -25 -4 -24 -4 -23 11
1 18 11 3 22 17 26 36 7 31 8 32 26 15 10 -9 19 -25 19 -36z m33 22 c-21 -24
-28 -19 -13 9 6 12 15 19 20 16 5 -3 2 -14 -7 -25z m-4368 10 c19 -8 19 -9 -2
-9 -12 -1 -25 4 -28 9 -7 12 2 12 30 0z m387 -16 c-3 -15 -8 -22 -14 -16 -9 9
-1 42 12 42 4 0 5 -12 2 -26z m1033 16 c-3 -5 -13 -10 -21 -10 -8 0 -14 5 -14
10 0 6 9 10 21 10 11 0 17 -4 14 -10z m185 -4 c0 -3 -4 -8 -10 -11 -5 -3 -10
-1 -10 4 0 6 5 11 10 11 6 0 10 -2 10 -4z m290 -6 c0 -5 -4 -10 -10 -10 -5 0
-10 5 -10 10 0 6 5 10 10 10 6 0 10 -4 10 -10z m30 0 c0 -5 -4 -10 -10 -10 -5
0 -10 5 -10 10 0 6 5 10 10 10 6 0 10 -4 10 -10z m-1580 -20 c0 -10 9 -24 21
-30 17 -9 23 -8 35 7 13 17 13 17 14 0 0 -10 5 -15 10 -12 6 3 10 1 10 -4 0
-6 7 -11 16 -11 8 0 12 -5 9 -10 -4 -6 -12 -7 -22 -1 -11 6 -21 4 -31 -6 -20
-20 -55 -12 -67 15 -5 12 -14 22 -19 22 -4 0 -3 7 4 15 6 8 9 19 5 25 -3 5 -1
10 4 10 6 0 11 -9 11 -20z m2724 -5 c-4 -8 -13 -15 -21 -15 -13 0 -13 3 -3 15
7 8 16 15 21 15 5 0 6 -7 3 -15z m-1494 -5 c0 -5 -7 -10 -16 -10 -8 0 -12 5
-9 10 3 6 10 10 16 10 5 0 9 -4 9 -10z m2629 -14 c15 -18 3 -25 -29 -15 -17 5
-19 7 -7 8 10 1 15 6 12 11 -9 15 11 12 24 -4z m-2804 -16 c4 -6 -5 -10 -19
-10 -14 0 -26 5 -26 10 0 6 9 10 19 10 11 0 23 -4 26 -10z m-904 -19 c-12 -7
-8 -15 16 -40 17 -16 28 -33 25 -36 -4 -3 1 -3 10 0 11 5 21 -3 32 -26 9 -18
16 -33 16 -34 0 -1 -26 -1 -57 -1 -51 -1 -55 1 -30 10 30 11 36 26 10 26 -24
0 -83 23 -83 32 0 4 4 8 8 8 5 0 16 16 25 35 9 19 22 35 29 35 9 0 9 -3 -1 -9z
m3779 -6 c9 -10 9 -15 1 -15 -6 0 -11 -11 -11 -25 0 -29 -34 -36 -44 -9 -10
26 -6 30 10 9 14 -19 15 -18 10 18 -5 40 11 50 34 22z m-83 -27 c-3 -7 -5 -2
-5 12 0 14 2 19 5 13 2 -7 2 -19 0 -25z m-3857 5 c-1 -26 -26 -57 -35 -43 -4
6 -13 9 -21 6 -8 -3 -14 -1 -14 4 0 5 11 12 25 16 14 3 25 12 25 20 0 8 5 14
10 14 6 0 10 -8 10 -17z m1582 2 c0 -5 -5 -11 -11 -13 -6 -2 -11 4 -11 13 0 9
5 15 11 13 6 -2 11 -8 11 -13z m54 -19 c-18 -28 -20 -37 -8 -35 18 3 32 -2 32
-12 0 -7 -10 -9 -25 -5 -20 5 -27 2 -37 -19 -6 -14 -15 -25 -19 -25 -15 0 19
76 49 110 22 27 28 16 8 -14z m-1708 12 c-2 -6 -10 -14 -16 -16 -7 -2 -10 2
-6 12 7 18 28 22 22 4z m176 -9 c-8 -14 -24 -10 -24 6 0 9 6 12 15 9 8 -4 12
-10 9 -15z m196 -4 c-7 -9 -15 -13 -18 -10 -3 2 1 11 8 20 7 9 15 13 18 10 3
-2 -1 -11 -8 -20z m800 6 c0 -9 -22 -31 -30 -31 -5 0 -6 35 -1 47 2 5 31 -10
31 -16z m2890 4 c7 -8 8 -15 3 -15 -5 0 -14 -13 -20 -30 -12 -32 -33 -41 -33
-14 0 8 5 12 10 9 6 -3 10 3 10 15 0 12 -4 18 -10 15 -5 -3 -10 0 -10 8 0 29
30 37 50 12z m-2957 -35 c15 0 18 -3 10 -11 -16 -16 -73 19 -65 39 4 13 8 12
20 -6 8 -12 24 -22 35 -22z m2847 -1 c0 -6 -4 -7 -10 -4 -5 3 -10 11 -10 16 0
6 5 7 10 4 6 -3 10 -11 10 -16z m-3620 1 c0 -5 -4 -10 -10 -10 -5 0 -10 5 -10
10 0 6 5 10 10 10 6 0 10 -4 10 -10z m440 -20 c0 -5 -10 -10 -22 -10 -19 0
-20 2 -8 10 19 13 30 13 30 0z m-706 -39 c-9 -10 -26 18 -18 30 5 9 9 8 14 -7
4 -10 6 -21 4 -23z m736 18 c0 -6 -4 -7 -10 -4 -5 3 -10 11 -10 16 0 6 5 7 10
4 6 -3 10 -11 10 -16z m-804 -46 c-11 -11 -19 6 -11 24 8 17 8 17 12 0 3 -10
2 -21 -1 -24z m2099 17 c3 -5 -1 -10 -9 -10 -8 0 -18 5 -21 10 -3 6 1 10 9 10
8 0 18 -4 21 -10z m-2005 -37 c0 -7 -4 -13 -10 -13 -5 0 -10 12 -10 28 0 21 2
24 10 12 5 -8 10 -21 10 -27z m-126 2 c-4 -8 -10 -15 -15 -15 -5 0 -9 7 -9 15
0 8 7 15 15 15 9 0 12 -6 9 -15z m1636 -4 c0 -12 -20 -25 -27 -18 -7 7 6 27
18 27 5 0 9 -4 9 -9z m575 -1 c3 -5 -1 -10 -9 -10 -9 0 -16 5 -16 10 0 6 4 10
9 10 6 0 13 -4 16 -10z m169 -31 c-31 -12 -40 -9 -20 6 10 8 24 11 29 8 6 -4
2 -10 -9 -14z m-114 -19 c0 -5 -5 -10 -11 -10 -5 0 -7 5 -4 10 3 6 8 10 11 10
2 0 4 -4 4 -10z m-1915 -21 c4 -6 13 -8 19 -6 16 6 40 -30 26 -38 -6 -3 -10
-1 -10 4 0 6 -8 10 -17 9 -10 -1 -27 0 -38 1 -17 1 -18 3 -5 11 13 8 12 10 -3
10 -10 0 -15 5 -12 10 8 13 32 13 40 -1z m895 -13 c0 -8 -4 -18 -10 -21 -5 -3
-10 -19 -10 -36 0 -16 -5 -29 -11 -29 -11 0 -6 71 7 92 8 13 24 9 24 -6z
m1135 4 c3 -5 1 -10 -4 -10 -6 0 -11 5 -11 10 0 6 2 10 4 10 3 0 8 -4 11 -10z
m-605 -30 c0 -5 -12 -10 -26 -10 -14 0 -23 4 -19 10 3 6 15 10 26 10 10 0 19
-4 19 -10z m-800 -20 c0 -5 -9 -6 -20 -3 -11 3 -20 9 -20 13 0 5 9 6 20 3 11
-3 20 -9 20 -13z m500 10 c0 -5 -9 -10 -19 -10 -11 0 -23 5 -26 10 -4 6 5 10
19 10 14 0 26 -4 26 -10z m-1110 -20 c0 -5 -7 -10 -15 -10 -8 0 -15 5 -15 10
0 6 7 10 15 10 8 0 15 -4 15 -10z m650 0 c0 -5 -2 -10 -4 -10 -3 0 -8 5 -11
10 -3 6 -1 10 4 10 6 0 11 -4 11 -10z m1346 -11 c7 -12 -15 -31 -28 -23 -9 6
1 34 12 34 5 0 12 -5 16 -11z m-1365 -19 c5 0 9 -4 9 -9 0 -4 -11 -6 -25 -3
-14 2 -25 9 -25 14 0 6 7 7 16 4 9 -3 20 -6 25 -6z m1669 -20 c0 -5 -8 -14
-19 -19 -21 -12 -34 -60 -19 -78 7 -8 1 -12 -19 -15 -25 -3 -30 -10 -54 -82
-24 -73 -28 -79 -62 -91 -21 -7 -37 -10 -37 -6 0 13 24 31 41 31 12 0 22 15
33 52 8 28 13 55 10 60 -3 4 11 22 31 40 19 18 35 42 35 52 0 11 10 30 22 43
23 24 38 30 38 13z m-520 -20 c0 -5 -5 -10 -11 -10 -5 0 -7 5 -4 10 3 6 8 10
11 10 2 0 4 -4 4 -10z m-190 -15 c0 -8 -7 -15 -16 -15 -14 0 -14 3 -4 15 7 8
14 15 16 15 2 0 4 -7 4 -15z m200 -31 c0 -8 -4 -14 -10 -14 -5 0 -10 9 -10 21
0 11 5 17 10 14 6 -3 10 -13 10 -21z m-2385 6 c3 -5 1 -10 -4 -10 -6 0 -11 5
-11 10 0 6 2 10 4 10 3 0 8 -4 11 -10z m1431 -46 c-3 -52 -18 -85 -31 -72 -5
4 4 50 21 116 8 31 14 7 10 -44z m920 -9 c-11 -8 -22 -12 -25 -9 -6 6 19 24
34 24 6 -1 1 -7 -9 -15z m369 -25 c3 -5 -3 -10 -14 -10 -12 0 -21 5 -21 10 0
6 6 10 14 10 8 0 18 -4 21 -10z m-1345 -80 c0 -5 -4 -10 -10 -10 -5 0 -10 5
-10 10 0 6 5 10 10 10 6 0 10 -4 10 -10z m649 -38 c-12 -20 -29 -50 -39 -67
-15 -25 -17 -38 -9 -80 5 -27 7 -62 3 -77 -5 -25 -3 -28 23 -30 15 -1 35 -2
43 -4 8 -1 21 -2 28 -3 8 -1 12 -7 9 -13 -2 -7 4 -20 13 -28 18 -16 36 -60 25
-60 -3 0 -18 14 -32 30 -13 17 -29 30 -34 30 -14 0 -7 -33 10 -46 10 -8 -5
-10 -55 -10 l-69 1 2 50 c2 58 11 95 24 95 5 0 9 9 9 21 0 11 -4 17 -10 14 -5
-3 -10 0 -11 7 0 7 -2 27 -3 43 -2 18 7 48 22 73 13 23 20 42 15 42 -4 0 -1 6
8 13 8 7 18 20 22 30 4 10 11 16 17 12 5 -3 1 -21 -11 -43z m-1959 18 c13 -9
13 -10 0 -10 -13 0 -13 -2 0 -11 12 -9 12 -10 -3 -5 -10 3 -21 6 -23 6 -2 0
-4 7 -4 15 0 17 9 19 30 5z m-40 -36 c0 -13 -4 -24 -9 -24 -5 0 -7 -8 -4 -19
3 -13 11 -17 26 -14 21 4 21 4 3 -11 -23 -18 -49 -4 -39 21 5 12 1 14 -18 8
-19 -6 -22 -5 -13 6 5 8 10 23 10 34 -1 20 22 37 37 28 4 -2 7 -15 7 -29z
m331 -14 c11 0 32 -50 25 -58 -3 -3 -10 7 -15 22 -6 15 -18 26 -29 26 -10 0
-21 3 -25 6 -9 9 4 35 14 28 5 -3 10 1 10 8 1 7 4 3 6 -9 2 -13 9 -23 14 -23z
m1889 30 c0 -12 -8 -12 -35 0 -18 8 -17 9 8 9 15 1 27 -3 27 -9z m902 -32 c-7
-7 -12 -8 -12 -2 0 14 12 26 19 19 2 -3 -1 -11 -7 -17z m-3088 -3 c-4 -8 -10
-15 -15 -15 -4 0 -6 7 -3 15 4 8 10 15 15 15 4 0 6 -7 3 -15z m366 -10 c-14
-17 -40 -20 -40 -6 0 8 18 16 44 20 5 0 3 -6 -4 -14z m2790 0 c0 -7 8 -19 18
-24 16 -10 16 -10 -2 -11 -10 0 -24 7 -30 15 -9 13 -11 11 -11 -10 0 -28 -1
-28 43 -16 18 5 32 6 32 1 0 -14 -11 -17 -75 -25 -55 -7 -59 -7 -46 9 9 10 10
16 2 16 -22 0 -11 20 12 21 21 0 21 1 2 9 -19 8 -19 8 5 18 35 15 50 14 50 -3z
m-2730 -35 c0 -5 -7 -10 -15 -10 -8 0 -15 5 -15 10 0 6 7 10 15 10 8 0 15 -4
15 -10z m-47 -17 c-7 -2 -19 -2 -25 0 -7 3 -2 5 12 5 14 0 19 -2 13 -5z m884
-19 c-9 -9 -28 6 -21 18 4 6 10 6 17 -1 6 -6 8 -13 4 -17z m-851 -31 c-11 -11
-17 4 -9 23 7 18 8 18 11 1 2 -10 1 -21 -2 -24z m-36 -63 c0 -11 -4 -20 -10
-20 -5 0 -10 9 -10 20 0 11 5 20 10 20 6 0 10 -9 10 -20z m346 -55 c1 -18 -3
-25 -16 -25 -12 0 -17 6 -15 18 2 9 4 20 4 25 2 19 26 4 27 -18z m59 15 c3 -5
1 -10 -4 -10 -6 0 -11 5 -11 10 0 6 2 10 4 10 3 0 8 -4 11 -10z m1408 -7 c26
-14 29 -18 13 -21 -10 -2 -22 2 -27 10 -10 15 -12 6 -9 -36 2 -28 1 -28 -21
-12 -13 9 -31 16 -40 16 -9 0 -23 7 -30 16 -13 15 -11 17 19 12 21 -3 32 0 32
8 0 10 10 18 28 23 2 1 17 -7 35 -16z m-1202 -34 c13 -26 7 -24 -22 7 -17 19
-19 23 -6 18 10 -3 22 -15 28 -25z m-193 3 c2 -7 -3 -12 -12 -12 -9 0 -16 7
-16 16 0 17 22 14 28 -4z m1407 -31 c-3 -6 -11 -11 -17 -11 -6 0 -6 6 2 15 14
17 26 13 15 -4z m-805 -42 c0 -18 -4 -28 -10 -24 -5 3 -10 20 -10 36 0 18 4
28 10 24 6 -3 10 -20 10 -36z m770 8 c0 -5 4 -6 9 -2 12 7 23 -28 15 -49 -4
-11 -19 -16 -51 -16 -24 0 -42 -4 -39 -9 3 -5 -1 -14 -9 -21 -19 -15 -19 -39
-2 -46 13 -5 20 -34 8 -34 -3 0 -14 11 -23 24 -18 25 -14 66 8 66 8 0 11 8 8
23 -2 12 -2 34 2 49 5 25 10 28 40 25 19 -1 34 -6 34 -10z m-399 -44 c-9 -16
-10 -15 -11 8 0 14 3 29 8 33 12 12 14 -22 3 -41z m39 7 c0 -11 -2 -20 -4 -20
-2 0 -6 9 -9 20 -3 11 -1 20 4 20 5 0 9 -9 9 -20z m178 -1 c8 -3 2 -15 -18
-37 -19 -21 -30 -28 -30 -18 0 8 5 18 10 21 6 3 7 18 3 33 -5 22 -4 25 8 16 8
-6 20 -13 27 -15z m77 11 c3 -5 2 -10 -4 -10 -5 0 -13 5 -16 10 -3 6 -2 10 4
10 5 0 13 -4 16 -10z m-125 -45 c-7 -8 -17 -12 -22 -9 -5 3 -1 12 9 19 22 17
30 11 13 -10z m136 16 c-8 -12 -46 -21 -46 -11 0 9 18 18 38 19 7 1 11 -3 8
-8z m-826 -21 c0 -5 -4 -10 -10 -10 -5 0 -10 5 -10 10 0 6 5 10 10 10 6 0 10
-4 10 -10z m795 -18 c-7 -8 -35 7 -35 18 0 6 7 6 20 -2 10 -7 17 -14 15 -16z
m1385 18 c12 -8 11 -10 -7 -10 -12 0 -25 5 -28 10 -8 13 15 13 35 0z m-1610
-22 c0 -19 -2 -20 -10 -8 -13 19 -13 30 0 30 6 0 10 -10 10 -22z m352 0 c19
19 24 14 25 -25 1 -31 0 -34 -6 -13 -7 24 -7 24 -19 5 -9 -15 -14 -17 -20 -7
-5 7 -16 10 -25 6 -18 -6 -24 11 -7 21 5 3 6 13 3 23 -6 15 -4 15 16 -2 16
-15 24 -17 33 -8z m-367 -47 c-3 -6 -11 -11 -17 -11 -6 0 -6 6 2 15 14 17 26
13 15 -4z m1745 -11 c0 -10 -4 -22 -10 -25 -6 -4 -10 7 -10 25 0 18 4 29 10
25 6 -3 10 -15 10 -25z m-2115 10 c-3 -5 -11 -10 -16 -10 -6 0 -7 5 -4 10 3 6
11 10 16 10 6 0 7 -4 4 -10z m872 -15 c8 -23 0 -25 -21 -4 -18 17 -18 19 -2
19 9 0 19 -7 23 -15z m-541 -43 c-11 -10 -15 4 -8 28 l7 25 3 -23 c2 -13 1
-26 -2 -30z m489 38 c3 -5 -1 -10 -9 -10 -8 0 -18 5 -21 10 -3 6 1 10 9 10 8
0 18 -4 21 -10z m491 1 c-4 -5 0 -11 6 -14 7 -2 9 -8 5 -13 -9 -10 -28 16 -21
28 3 4 7 8 10 8 3 0 3 -4 0 -9z m744 -1 c0 -5 -4 -10 -10 -10 -5 0 -10 5 -10
10 0 6 5 10 10 10 6 0 10 -4 10 -10z m-760 -32 c0 -5 -4 -8 -10 -8 -5 0 -10
10 -10 23 0 18 2 19 10 7 5 -8 10 -18 10 -22z m-2735 11 c12 -19 -5 -23 -22
-6 -16 16 -16 17 -1 17 9 0 20 -5 23 -11z m2325 -23 c0 -8 -4 -18 -10 -21 -5
-3 -10 3 -10 14 0 12 5 21 10 21 6 0 10 -6 10 -14z m337 -13 c-9 -9 -20 -13
-24 -9 -4 4 -1 11 7 16 25 16 35 11 17 -7z m-2617 -3 c12 -8 11 -10 -7 -10
-12 0 -25 5 -28 10 -8 13 15 13 35 0z m1703 -21 c-4 -13 -9 -17 -15 -11 -11
11 -3 32 12 32 4 0 6 -9 3 -21z m897 -16 c0 -7 -4 -13 -8 -13 -12 0 -32 23
-32 37 0 11 4 11 20 1 11 -7 20 -18 20 -25z m-2515 6 c-8 -12 -35 -12 -35 0 0
11 22 20 33 14 4 -2 5 -9 2 -14z m82 8 c3 -4 -10 -7 -30 -7 -20 0 -37 4 -37
10 0 10 56 8 67 -3z m1143 -3 c0 -21 -17 -25 -22 -6 -3 11 0 19 8 19 8 0 14
-6 14 -13z m-1288 -16 c-6 -6 -15 -8 -19 -4 -4 4 -1 11 7 16 19 12 27 3 12
-12z m193 12 c3 -5 2 -10 -4 -10 -5 0 -13 5 -16 10 -3 6 -2 10 4 10 5 0 13 -4
16 -10z m3402 -5 c-2 -5 -12 -10 -22 -10 -10 0 -20 5 -22 10 -1 6 8 10 22 10
14 0 24 -4 22 -10z m-972 -15 c3 -5 -1 -10 -9 -10 -9 0 -16 5 -16 10 0 6 4 10
9 10 6 0 13 -4 16 -10z m-2735 -15 c14 -16 10 -18 -14 -9 -9 3 -16 10 -16 15
0 14 16 11 30 -6z m346 -12 c-7 -7 -26 7 -26 19 0 6 6 6 15 -2 9 -7 13 -15 11
-17z m-306 -45 c0 -6 -7 -5 -15 2 -8 7 -15 17 -15 22 0 6 7 5 15 -2 8 -7 15
-17 15 -22z m45 -18 c-3 -5 -14 -10 -23 -10 -15 0 -15 2 -2 10 20 13 33 13 25
0z m55 -22 c0 -6 -7 -5 -15 2 -8 7 -15 17 -15 22 0 6 7 5 15 -2 8 -7 15 -17
15 -22z m35 -18 c-3 -5 -10 -10 -16 -10 -5 0 -9 5 -9 10 0 6 7 10 16 10 8 0
12 -4 9 -10z m3253 -102 c-4 -31 -25 -34 -25 -3 0 15 5 25 14 25 9 0 13 -8 11
-22z m54 -10 c-9 -9 -12 -7 -12 12 0 19 3 21 12 12 9 -9 9 -15 0 -24z m580
-62 c18 -18 38 -32 43 -30 26 8 75 -168 75 -270 0 -20 4 -36 9 -36 4 0 8 -12
7 -27 0 -16 3 -47 8 -70 5 -27 4 -43 -2 -43 -11 0 -22 48 -22 96 0 19 -5 34
-10 34 -6 0 -10 15 -9 33 3 50 0 67 -11 67 -6 0 -10 -27 -10 -60 0 -66 -9 -74
-47 -38 -30 28 -29 38 2 38 21 0 25 5 25 30 0 27 -3 30 -30 30 -16 0 -30 5
-30 10 0 6 14 10 31 10 30 0 31 1 24 40 -4 26 -3 40 4 40 6 0 11 -15 11 -34 0
-19 5 -38 11 -42 8 -5 10 9 6 50 -3 32 -7 59 -9 60 -10 9 -48 26 -57 26 -6 0
-11 -17 -11 -37 0 -21 -5 -45 -10 -53 -7 -10 -10 12 -10 71 0 59 -4 91 -15
105 -14 19 -19 34 -10 34 2 0 19 -15 37 -34z m-762 -36 c0 -5 -5 -10 -11 -10
-5 0 -7 5 -4 10 3 6 8 10 11 10 2 0 4 -4 4 -10z m187 -116 c-10 -10 -47 -12
-52 -3 -4 5 -1 10 4 10 6 1 15 2 20 3 5 0 13 5 17 9 5 5 10 3 12 -3 2 -6 2
-13 -1 -16z m-1276 -124 c4 0 6 -6 3 -14 -7 -19 -38 -13 -43 9 -2 13 1 16 14
11 9 -3 21 -6 26 -6z m1177 -5 c24 0 31 -15 7 -15 -22 0 -18 -28 6 -40 25 -14
19 -24 -9 -16 -11 4 -23 17 -26 30 -4 18 -15 25 -46 30 -22 3 -40 11 -40 16 0
6 16 8 43 3 23 -4 52 -7 65 -8z m72 -14 c0 -6 -4 -13 -10 -16 -5 -3 -10 1 -10
9 0 9 5 16 10 16 6 0 10 -4 10 -9z m559 -32 c-16 -10 -23 -4 -14 10 3 6 11 8
17 5 6 -4 5 -9 -3 -15z m41 1 c0 -5 -4 -10 -10 -10 -5 0 -10 5 -10 10 0 6 5
10 10 10 6 0 10 -4 10 -10z m-480 -20 c14 -3 25 -13 25 -21 0 -8 6 -24 13 -36
13 -24 13 -81 0 -90 -9 -5 0 -73 11 -85 3 -4 22 1 41 9 19 9 38 17 43 18 4 2
10 4 15 5 4 1 10 2 15 1 4 0 7 3 7 8 0 19 88 44 132 37 71 -11 107 -27 105
-48 -2 -22 -13 -24 -21 -3 -13 35 -56 4 -56 -42 0 -10 -7 -27 -15 -37 -14 -18
-14 -16 -10 20 2 21 7 51 11 67 6 27 6 27 -45 27 -42 0 -57 -5 -77 -26 -14
-14 -31 -23 -37 -21 -7 2 -19 -1 -27 -8 -8 -7 -31 -17 -51 -23 -30 -8 -37 -7
-47 9 -7 10 -12 28 -12 39 0 11 -4 20 -9 20 -5 0 -11 8 -14 18 -2 9 -8 26 -13
36 -6 16 -4 18 19 14 31 -6 32 -3 15 52 -13 41 -12 41 -102 56 -27 5 -37 3
-32 -4 17 -27 54 -143 45 -140 -14 5 -71 147 -64 158 6 9 87 3 135 -10z m285
-27 c-4 -10 -7 -29 -6 -42 2 -14 -1 -21 -8 -17 -14 9 -14 42 0 68 13 24 25 16
14 -9z m-150 -33 c3 -5 1 -10 -4 -10 -6 0 -11 5 -11 10 0 6 2 10 4 10 3 0 8
-4 11 -10z m412 -48 c12 -15 22 -33 23 -39 0 -22 -27 -14 -33 8 -4 14 -11 20
-21 16 -8 -3 -17 1 -20 9 -3 9 -10 12 -16 9 -6 -3 -10 3 -10 15 0 19 4 21 28
15 15 -3 37 -18 49 -33z m217 -64 c4 -46 9 -130 11 -188 4 -93 3 -102 -9 -76
-10 22 -14 25 -19 12 -9 -22 1 -44 24 -51 14 -5 19 -16 19 -44 0 -21 3 -59 6
-85 5 -31 3 -46 -5 -46 -6 0 -11 15 -11 34 0 34 -25 116 -38 126 -4 3 -12 14
-18 25 -7 11 -19 19 -28 17 -19 -3 -21 19 -4 36 9 9 7 12 -9 12 -17 0 -22 7
-25 33 -2 24 -7 31 -20 29 -20 -3 -24 14 -5 21 7 3 4 6 -7 6 -13 1 -17 6 -13
20 3 14 -2 21 -17 25 -44 12 -55 7 -58 -26 -2 -24 -7 -32 -20 -30 -9 1 -19 -2
-23 -8 -3 -5 -21 -10 -38 -9 -18 0 -26 3 -19 6 10 4 10 8 1 19 -19 23 -28 16
-35 -26 -10 -62 -28 -49 -20 15 4 36 3 55 -5 55 -5 0 -7 5 -3 12 6 9 9 9 12 0
3 -9 9 -9 23 -1 14 7 18 16 13 31 -5 17 -3 20 10 15 9 -4 23 -10 31 -13 10 -4
15 0 15 12 0 14 3 15 12 6 16 -16 28 -15 28 3 0 8 5 15 10 15 6 0 10 -11 10
-24 0 -19 7 -25 36 -31 40 -7 55 4 47 35 -3 10 0 21 6 24 7 5 11 -5 11 -28 0
-24 9 -44 29 -66 27 -30 51 -88 51 -125 0 -17 1 -17 20 0 21 19 21 53 -3 121
-5 18 -7 40 -2 50 4 11 7 47 6 82 -4 92 15 75 23 -20z m-244 22 c0 -5 -4 -10
-10 -10 -5 0 -10 5 -10 10 0 6 5 10 10 10 6 0 10 -4 10 -10z m-115 -10 c3 -5
1 -10 -4 -10 -6 0 -11 5 -11 10 0 6 2 10 4 10 3 0 8 -4 11 -10z m205 -31 c0
-6 -7 -8 -16 -5 -12 4 -15 2 -10 -9 3 -8 1 -15 -4 -15 -6 0 -10 9 -10 20 0 13
7 20 20 20 11 0 20 -5 20 -11z m-754 -44 c16 -12 16 -14 3 -15 -9 0 -22 7 -29
15 -16 19 0 19 26 0z m68 -89 c-4 -10 5 -16 28 -21 18 -4 38 -15 46 -24 8 -11
11 -12 10 -2 -2 7 5 15 15 16 9 2 17 -1 17 -7 0 -5 8 -7 18 -4 21 7 44 -40 46
-93 1 -34 -1 -36 -26 -33 -16 2 -28 -1 -28 -8 0 -6 -4 -8 -10 -5 -5 3 -10 16
-10 28 0 20 0 20 -15 1 -15 -18 -16 -18 -13 6 3 22 -1 25 -36 28 -22 2 -36 -1
-32 -6 3 -5 -1 -15 -9 -22 -11 -9 -19 -8 -37 4 -12 9 -30 16 -40 16 -10 0 -18
7 -18 18 0 12 -3 13 -8 5 -6 -9 -15 -6 -35 13 -34 32 -34 37 5 67 25 20 35 23
54 15 18 -8 27 -6 45 10 23 22 42 21 33 -2z m396 6 c0 -4 -11 -23 -23 -42
l-24 -35 23 -45 c16 -32 24 -40 29 -29 5 15 75 25 75 10 0 -12 -45 -35 -62
-32 -15 2 -14 -5 8 -43 29 -52 28 -51 73 -61 25 -5 32 -4 26 5 -11 17 24 87
46 93 10 3 22 1 25 -4 9 -16 68 -9 94 11 27 21 40 25 40 11 0 -5 -15 -19 -32
-31 -29 -18 -30 -20 -8 -14 14 4 31 9 38 11 7 3 12 -3 12 -17 0 -19 -5 -21
-48 -19 -54 3 -85 -13 -97 -49 -6 -22 -5 -23 15 -12 24 13 82 10 87 -5 2 -6
-20 -10 -52 -11 -30 0 -57 -3 -61 -6 -11 -12 7 -48 24 -47 11 0 12 3 5 6 -7 2
-13 9 -13 15 0 5 15 0 34 -11 18 -12 43 -21 54 -21 11 0 24 -5 28 -12 5 -8 -4
-9 -32 -5 -21 4 -58 7 -81 7 -38 0 -44 3 -64 40 -13 22 -27 39 -33 38 -29 -4
-66 25 -91 70 -26 48 -28 50 -56 40 -25 -9 -34 -6 -62 15 -35 27 -68 23 -93
-11 -7 -9 -16 -13 -21 -9 -12 12 44 57 71 57 13 0 35 -9 50 -21 20 -15 32 -19
50 -12 l24 8 -19 39 c-24 50 -24 59 4 101 21 33 37 45 37 27z m210 -37 c0 -8
-5 -26 -12 -40 -13 -30 -5 -43 17 -25 9 7 18 11 20 8 10 -9 -7 -38 -21 -38 -8
0 -14 -7 -14 -15 0 -24 -19 -17 -26 10 -6 22 -9 24 -49 18 -40 -5 -43 -4 -39
15 5 18 10 19 41 10 40 -11 49 -4 60 45 6 28 23 38 23 12z m-166 -26 c-8 -13
-24 -1 -24 18 0 13 3 13 15 3 8 -7 12 -16 9 -21z m286 25 c0 -9 -41 -44 -52
-44 -15 0 -8 18 15 33 24 17 37 21 37 11z m-46 -88 c-3 -9 -10 -16 -15 -16
-14 0 -11 28 4 33 16 6 19 3 11 -17z m-59 -26 c3 -5 1 -10 -4 -10 -6 0 -11 5
-11 10 0 6 2 10 4 10 3 0 8 -4 11 -10z m-425 -70 c0 -5 -4 -10 -10 -10 -5 0
-10 5 -10 10 0 6 5 10 10 10 6 0 10 -4 10 -10z m-2354 -31 c-30 -8 -50 -3 -42
10 3 4 20 5 38 3 l33 -5 -29 -8z m2444 -1 c0 -6 3 -9 6 -5 7 7 21 -3 74 -55
21 -20 36 -39 34 -41 -9 -8 22 -26 51 -29 49 -5 74 -37 90 -112 8 -37 12 -73
9 -81 -6 -15 43 -175 54 -175 17 0 72 67 72 87 0 13 5 23 10 23 6 0 10 -9 10
-20 0 -22 7 -25 29 -11 21 13 26 131 6 131 -8 0 -15 -5 -15 -12 0 -9 -3 -9
-11 -1 -17 17 -1 34 26 27 21 -5 25 -2 30 29 7 35 1 57 -14 57 -5 0 -11 -13
-14 -30 -5 -21 -12 -30 -26 -30 -31 0 -33 16 -6 56 14 20 25 32 25 25 0 -6 14
-11 31 -11 30 0 31 -1 26 -35 -6 -38 -5 -39 35 -49 26 -6 27 -5 25 31 -2 32
-5 38 -24 37 -13 0 -23 3 -23 8 0 4 11 8 25 8 14 0 25 6 25 13 0 8 3 7 10 -3
5 -8 7 -25 3 -37 -7 -32 6 -82 17 -63 5 8 7 17 4 21 -2 4 0 10 6 14 5 3 10 0
11 -7 3 -63 53 -292 90 -408 21 -70 38 -105 55 -119 28 -22 31 -33 7 -24 -18
7 -52 42 -53 55 0 4 -4 18 -10 33 -10 25 -10 25 -47 10 -72 -30 -104 -58 -98
-84 8 -31 -5 -111 -17 -111 -6 0 -8 17 -4 45 11 68 2 83 -50 91 -32 4 -49 3
-57 -6 -7 -8 -7 -10 -1 -7 7 4 10 -12 10 -48 -1 -30 -5 -54 -11 -54 -40 4 -47
-1 -41 -31 3 -17 1 -30 -4 -30 -6 0 -10 7 -10 16 0 8 -7 22 -15 31 -9 9 -13
23 -10 35 7 21 -12 51 -26 42 -5 -3 -7 -10 -4 -15 12 -18 -18 -8 -47 16 -34
29 -46 30 -94 10 -20 -8 -39 -13 -43 -11 -11 7 -5 -78 7 -100 9 -17 9 -24 -2
-33 -12 -10 -15 -3 -21 38 -4 28 -4 54 -1 59 3 5 -10 34 -29 65 -18 31 -30 59
-25 62 5 3 18 -10 29 -29 26 -42 41 -48 80 -33 40 15 40 38 0 56 -19 8 -28 18
-25 28 3 8 0 13 -7 12 -21 -4 -47 13 -47 30 0 38 41 52 81 29 17 -10 23 -10
26 0 3 6 16 12 29 12 13 0 24 3 24 8 0 4 12 8 26 8 14 1 28 4 31 7 11 12 -17
42 -38 42 -34 0 -37 33 -5 41 30 7 31 16 8 64 -13 26 -24 35 -42 36 -34 1 -70
13 -70 24 0 16 18 21 27 8 5 -9 9 -3 13 17 3 18 14 34 28 40 12 5 22 15 22 21
0 20 -42 65 -56 60 -7 -3 -16 -1 -19 4 -3 5 -25 7 -48 4 -33 -5 -51 -1 -80 16
-20 12 -37 24 -37 27 0 8 45 -2 55 -13 6 -6 20 -14 33 -17 20 -5 22 -2 22 39
0 24 -4 44 -8 44 -4 0 -16 14 -26 30 -13 24 -22 29 -38 24 -16 -5 -19 -3 -14
13 5 16 -2 23 -34 38 -50 23 -59 35 -26 35 14 0 26 -5 26 -12z m474 -29 c-3
-5 -2 -9 3 -8 4 1 14 1 21 0 20 -2 -9 -41 -30 -41 -14 0 -18 9 -18 41 0 36 2
40 15 29 8 -7 12 -16 9 -21z m-764 6 c7 -8 27 -15 46 -15 24 0 37 -6 45 -22
12 -23 58 -65 93 -85 31 -18 70 -17 63 2 -4 8 -3 17 2 19 11 7 35 -40 27 -52
-14 -24 -112 10 -151 52 -6 6 -20 17 -32 23 -20 11 -27 9 -57 -18 -29 -25 -34
-35 -30 -62 4 -26 -2 -39 -26 -65 -41 -44 -51 -33 -14 15 19 26 27 47 25 67
-2 24 5 36 41 67 l43 38 -36 1 c-23 0 -39 6 -43 15 -3 8 -17 15 -31 15 -14 0
-25 5 -25 10 0 16 46 12 60 -5z m125 5 c-3 -5 -17 -10 -31 -10 -13 0 -24 5
-24 10 0 6 14 10 31 10 17 0 28 -4 24 -10z m5 -40 c0 -11 -4 -20 -10 -20 -5 0
-10 9 -10 20 0 11 5 20 10 20 6 0 10 -9 10 -20z m710 0 c0 -5 -4 -10 -10 -10
-5 0 -10 5 -10 10 0 6 5 10 10 10 6 0 10 -4 10 -10z m10 -50 c0 -5 -5 -10 -11
-10 -5 0 -7 5 -4 10 3 6 8 10 11 10 2 0 4 -4 4 -10z m-32 -23 c6 3 12 0 12 -6
0 -6 -6 -11 -14 -11 -8 0 -21 -3 -30 -6 -12 -4 -16 0 -16 15 0 17 3 20 18 13
9 -5 23 -7 30 -5z m-519 -169 c1 -10 -3 -18 -9 -18 -5 0 -10 17 -9 38 0 30 2
33 9 17 5 -11 9 -28 9 -37z m5 -45 c13 -47 27 -177 21 -203 -10 -43 -26 -37
-20 8 3 20 0 76 -8 125 -7 48 -10 87 -6 87 4 0 10 -8 13 -17z m401 -12 c3 -5
1 -12 -5 -16 -5 -3 -10 1 -10 9 0 18 6 21 15 7z m-265 -52 c0 -6 -9 -13 -21
-16 -11 -3 -18 -11 -15 -18 5 -14 -18 -28 -28 -18 -13 14 -4 33 22 46 34 19
42 20 42 6z m-80 -40 c0 -11 -4 -17 -10 -14 -5 3 -10 13 -10 21 0 8 5 14 10
14 6 0 10 -9 10 -21z m3 -86 c3 -21 9 -48 13 -60 4 -14 2 -23 -4 -23 -6 0 -13
14 -16 30 -3 17 -9 44 -12 60 -3 17 -1 30 4 30 5 0 12 -17 15 -37z m-48 -83
c3 -5 -1 -10 -9 -10 -9 0 -16 5 -16 10 0 6 4 10 9 10 6 0 13 -4 16 -10z m608
-212 c5 6 12 12 18 12 5 0 4 -9 -3 -20 -16 -25 -26 -25 -49 1 -18 21 -18 23
-1 35 15 11 18 9 22 -14 4 -18 8 -23 13 -14z m-133 17 c0 -8 -6 -15 -14 -15
-17 0 -28 14 -19 24 12 12 33 6 33 -9z m332 -95 c-1 -2 -14 9 -27 25 l-24 30
-2 -25 c-1 -21 -2 -22 -6 -5 -3 11 -10 26 -15 33 -8 9 -5 12 10 12 11 0 23 8
27 18 5 13 11 4 24 -33 9 -27 15 -52 13 -55z m-102 36 c0 -3 -8 -12 -17 -22
-10 -9 -18 -24 -18 -32 0 -9 -5 -17 -10 -19 -18 -6 -9 49 10 63 18 14 35 18
35 10z m-75 -26 c3 -5 -1 -10 -9 -10 -9 0 -16 5 -16 10 0 6 4 10 9 10 6 0 13
-4 16 -10z m-82 -50 c3 -11 2 -20 -3 -20 -8 0 -20 24 -20 41 0 17 17 1 23 -21z
m267 -1 c0 -5 -4 -7 -10 -4 -5 3 -10 3 -10 -2 0 -4 -14 -14 -30 -21 -17 -8
-37 -26 -45 -41 -7 -15 -20 -33 -28 -40 -8 -6 -13 -20 -10 -30 3 -10 0 -22 -6
-25 -14 -9 -14 -26 0 -26 6 0 22 -9 36 -20 31 -24 17 -26 -29 -3 -18 9 -40 20
-49 24 -12 5 -26 -3 -50 -27 -18 -19 -37 -34 -43 -34 -5 0 4 15 22 33 18 18
32 41 32 50 0 11 8 17 25 17 20 0 24 5 22 22 -1 12 3 23 10 23 6 0 15 4 20 9
5 5 3 6 -4 2 -7 -4 -13 -2 -13 3 0 6 7 11 15 11 8 0 15 5 15 11 0 5 4 8 9 4 5
-3 12 3 16 14 3 10 25 28 48 40 49 23 57 25 57 10z m50 -88 c0 -9 -51 -33 -66
-30 -17 3 -34 -1 -34 -9 0 -14 89 -61 93 -49 2 7 7 9 11 5 13 -11 -18 -48 -49
-58 -40 -13 -59 -45 -58 -100 l1 -45 -10 43 c-13 51 1 86 44 108 15 8 28 18
28 22 -1 4 -19 19 -40 34 -22 15 -40 34 -40 42 0 15 34 31 48 23 4 -3 18 1 32
9 29 16 40 17 40 5z m41 -89 c-6 -2 -11 -15 -11 -29 0 -21 -2 -23 -15 -13 -13
10 -13 15 -1 32 10 14 12 28 6 43 -14 37 4 40 18 4 10 -23 11 -34 3 -37z m59
29 c0 -11 -29 -35 -35 -29 -10 9 7 38 21 38 8 0 14 -4 14 -9z m-180 -31 c13
-9 13 -10 0 -10 -8 0 -22 5 -30 10 -13 9 -13 10 0 10 8 0 22 -5 30 -10z m210
-30 c0 -10 6 -23 13 -27 8 -4 25 -25 39 -46 40 -60 105 -124 154 -153 37 -22
53 -25 88 -21 27 4 47 2 55 -6 10 -9 15 -9 24 4 7 9 23 19 35 23 19 6 25 4 29
-13 3 -11 14 -23 24 -26 25 -8 24 -22 -1 -35 -12 -6 -20 -7 -20 -1 0 5 6 11
13 14 6 2 -3 3 -22 2 -19 -1 -40 -10 -47 -19 -11 -16 -13 -16 -16 5 -4 29 -25
36 -24 8 1 -12 -5 -24 -13 -27 -10 -3 -12 2 -7 22 5 20 3 26 -9 26 -9 0 -17
-6 -19 -12 -44 -154 -38 -147 -131 -166 -33 -6 -41 -12 -43 -34 -2 -18 -8 -25
-17 -22 -11 5 -11 10 0 31 18 34 33 43 72 43 37 0 48 12 33 39 -11 21 -4 51
12 51 5 0 7 -8 4 -17 -3 -10 -2 -24 3 -32 7 -11 13 -5 25 24 21 50 18 95 -6
95 -38 0 -86 29 -134 81 -27 30 -67 73 -89 96 -22 22 -39 46 -37 52 2 7 -1 18
-8 26 -12 15 -6 35 11 35 5 0 9 -9 9 -20z m-51 -159 c-15 -5 -22 6 -14 19 6 9
10 9 16 -1 5 -8 4 -15 -2 -18z m-99 -1 c0 -5 -2 -10 -4 -10 -3 0 -8 5 -11 10
-3 6 -1 10 4 10 6 0 11 -4 11 -10z m170 -15 c0 -8 -4 -15 -9 -15 -5 0 -11 7
-15 15 -3 9 0 15 9 15 8 0 15 -7 15 -15z m-234 -20 c9 -14 15 -27 13 -29 -5
-4 -217 -76 -224 -76 -3 0 -5 4 -5 8 0 4 47 23 105 42 95 31 103 35 90 50 -17
19 -19 30 -5 30 5 0 17 -11 26 -25z m629 -204 c-5 -11 -9 -11 -23 3 -27 24
-46 21 -37 -6 3 -13 9 -34 12 -48 3 -14 12 -30 19 -36 12 -10 12 -13 0 -23
-12 -10 -17 -6 -27 23 -7 19 -16 33 -21 30 -4 -3 -4 -14 2 -24 17 -31 12 -40
-23 -40 -41 0 -90 43 -62 54 9 3 27 6 40 6 28 0 48 22 39 43 -5 14 -8 14 -27
-3 -11 -11 -26 -20 -31 -20 -6 0 8 19 32 41 23 22 42 44 42 49 0 6 9 10 19 10
12 0 22 10 27 28 7 25 8 23 15 -23 5 -27 6 -56 4 -64z m-855 69 c0 -5 -5 -10
-11 -10 -5 0 -7 5 -4 10 3 6 8 10 11 10 2 0 4 -4 4 -10z m627 -175 c-1 -19 -5
-35 -9 -35 -9 0 -10 17 -2 48 9 32 13 27 11 -13z m-120 -33 c-31 -32 -34 -42
-11 -42 8 0 12 -4 9 -10 -10 -16 -55 -12 -55 5 0 18 55 75 72 75 6 0 0 -13
-15 -28z m159 -9 c0 -10 4 -31 8 -47 6 -26 5 -28 -8 -17 -16 14 -23 81 -8 81
4 0 8 -8 8 -17z m148 1 c9 -3 16 -13 16 -21 0 -10 6 -12 20 -8 11 4 20 2 20
-4 0 -6 -7 -11 -16 -11 -13 0 -14 -6 -8 -32 4 -18 7 -43 7 -55 -1 -16 5 -23
18 -23 11 0 22 -7 25 -15 4 -8 10 -15 14 -15 13 0 49 104 52 149 2 49 18 55
18 8 0 -35 -26 -123 -42 -144 -5 -7 -12 -31 -14 -55 -3 -23 -8 -46 -10 -50 -4
-7 13 -13 59 -20 12 -2 28 -25 45 -67 15 -35 36 -69 47 -75 10 -6 24 -15 30
-21 15 -15 10 -90 -13 -190 -12 -49 -24 -108 -28 -130 -3 -22 -13 -71 -21
-110 -30 -141 -29 -215 4 -215 11 0 13 -5 8 -17 -26 -62 -26 -102 -2 -161 l24
-59 -25 -49 c-26 -52 -63 -174 -56 -185 2 -4 0 -10 -6 -14 -6 -4 -8 -11 -5
-16 4 -5 1 -9 -6 -9 -7 0 -9 8 -6 21 5 17 -1 24 -24 32 -27 11 -41 37 -19 37
6 0 10 -5 10 -11 0 -6 10 -9 22 -7 16 2 25 16 38 63 9 33 26 79 38 102 l22 42
-20 43 c-21 47 -26 118 -10 149 8 15 6 24 -9 40 -15 16 -19 36 -20 82 0 34 5
67 10 73 23 28 12 141 -16 179 -25 33 -41 75 -28 75 4 0 15 -15 23 -33 8 -17
20 -31 25 -29 6 1 13 -12 16 -30 6 -32 6 -32 8 9 0 23 6 45 11 48 18 11 10 23
-11 18 -19 -5 -20 -4 -9 17 7 13 10 38 7 57 -7 42 9 72 35 65 18 -4 21 2 21
53 0 48 -3 55 -28 61 -14 3 -23 10 -20 14 3 4 -1 13 -9 19 -8 7 -17 28 -21 47
-8 45 -37 74 -74 74 -38 0 -41 6 -32 57 7 34 5 44 -11 57 -10 9 -23 16 -28 16
-13 0 -30 34 -30 62 -1 22 -1 22 -12 4 -6 -11 -11 -34 -10 -51 1 -18 -5 -41
-14 -51 -13 -18 -14 -16 -9 16 11 79 10 84 -9 88 -11 3 -16 0 -12 -7 4 -6 2
-11 -3 -11 -6 0 -11 -7 -11 -15 0 -17 -2 -17 -24 -9 -8 3 -12 12 -9 20 6 17
-13 19 -23 3 -5 -8 -10 -6 -16 5 -7 12 -13 14 -29 6 -12 -7 -19 -7 -19 -1 0
13 32 30 46 24 6 -2 14 5 17 16 3 12 15 21 33 23 17 2 29 9 30 18 1 8 2 21 2
28 2 13 30 16 56 6z m-194 -94 c0 -5 -4 -10 -10 -10 -5 0 -10 -7 -10 -16 0 -8
-5 -12 -10 -9 -7 4 -7 13 0 26 11 20 30 26 30 9z m-100 -202 c0 -7 -5 -20 -10
-28 -8 -12 -10 -9 -10 13 0 15 5 27 10 27 6 0 10 -6 10 -12z m380 -64 c0 -8
-4 -12 -10 -9 -5 3 -10 13 -10 21 0 8 5 12 10 9 6 -3 10 -13 10 -21z m105 -84
c-3 -5 -13 -10 -21 -10 -8 0 -12 5 -9 10 3 6 13 10 21 10 8 0 12 -4 9 -10z
m-1 -81 c-20 -23 -42 -24 -68 -4 -15 11 -16 15 -5 15 8 0 20 -5 26 -11 8 -8
17 -5 32 10 12 12 20 24 20 29 -3 20 4 24 8 4 3 -14 -3 -32 -13 -43z m-1380
-516 c-13 -14 -27 -23 -31 -19 -4 4 -1 11 7 16 8 6 11 10 7 10 -17 0 5 20 23
20 17 0 17 -3 -6 -27z m166 -14 c0 -5 -3 -8 -7 -7 -18 5 -51 -14 -61 -35 l-11
-22 0 23 c-1 25 14 45 39 54 18 6 40 -1 40 -13z m-99 -35 c12 -15 11 -16 -8
-10 -13 4 -26 2 -32 -6 -6 -7 -20 -23 -30 -36 -11 -13 -22 -19 -25 -13 -4 5
-1 13 5 16 20 13 -34 33 -59 21 -18 -7 -27 -6 -40 7 -16 16 -15 17 14 11 19
-3 34 -2 38 5 4 6 12 11 17 11 6 0 7 -4 4 -10 -3 -5 -1 -11 4 -11 6 -1 17 -2
24 -3 6 -1 26 6 42 16 36 21 30 21 46 2z m1312 -49 c-5 -13 -23 -22 -23 -11 0
15 14 35 21 31 4 -3 6 -12 2 -20z m-117 -397 c-10 -6 -20 -7 -24 -3 -9 8 20
25 31 18 5 -3 2 -10 -7 -15z m63 -219 c-7 -17 -16 -26 -25 -22 -11 4 -11 7 1
20 8 8 15 29 16 46 0 31 1 31 10 8 7 -17 6 -34 -2 -52z m-662 -175 c-3 -3 -12
-4 -19 -1 -8 3 -5 6 6 6 11 1 17 -2 13 -5z"/>
<path d="M1875 7649 c-10 -15 3 -25 16 -12 7 7 7 13 1 17 -6 3 -14 1 -17 -5z"/>
<path d="M660 7310 c0 -5 7 -10 16 -10 8 0 12 5 9 10 -3 6 -10 10 -16 10 -5 0
-9 -4 -9 -10z"/>
<path d="M3437 6991 c-4 -17 -2 -18 13 -8 10 6 16 15 14 19 -9 14 -22 9 -27
-11z"/>
<path d="M1550 6940 c0 -5 5 -10 11 -10 5 0 7 5 4 10 -3 6 -8 10 -11 10 -2 0
-4 -4 -4 -10z"/>
<path d="M1150 6990 c0 -11 5 -20 10 -20 6 0 10 9 10 20 0 11 -4 20 -10 20 -5
0 -10 -9 -10 -20z"/>
<path d="M2457 6763 c3 -7 11 -13 19 -13 7 0 11 6 8 13 -3 8 -11 14 -18 14 -8
0 -12 -6 -9 -14z"/>
<path d="M2515 6740 c3 -5 8 -10 11 -10 2 0 4 5 4 10 0 6 -5 10 -11 10 -5 0
-7 -4 -4 -10z"/>
<path d="M3535 6720 c-3 -5 -1 -10 4 -10 6 0 11 5 11 10 0 6 -2 10 -4 10 -3 0
-8 -4 -11 -10z"/>
<path d="M3520 6640 c0 -5 5 -10 10 -10 6 0 10 5 10 10 0 6 -4 10 -10 10 -5 0
-10 -4 -10 -10z"/>
<path d="M476 6601 c-8 -13 11 -18 48 -13 27 4 28 6 11 13 -28 11 -53 11 -59
0z"/>
<path d="M387 6514 c-4 -4 -7 -12 -7 -18 0 -15 53 -17 62 -3 4 6 10 8 14 4 4
-3 1 -13 -5 -21 -10 -12 -8 -15 11 -18 13 -2 23 -8 23 -15 0 -6 4 -15 9 -20
13 -12 -2 57 -16 74 -8 10 -22 13 -44 8 -19 -3 -34 -1 -36 5 -2 6 -7 8 -11 4z"/>
<path d="M585 6310 c4 -6 11 -8 16 -5 14 9 11 15 -7 15 -8 0 -12 -5 -9 -10z"/>
<path d="M585 6270 c-3 -5 -2 -10 4 -10 5 0 13 5 16 10 3 6 2 10 -4 10 -5 0
-13 -4 -16 -10z"/>
<path d="M650 6221 c0 -11 5 -23 10 -26 6 -3 10 3 10 14 0 11 -4 23 -10 26 -5
3 -10 -3 -10 -14z"/>
<path d="M1836 6362 c-2 -4 7 -18 20 -32 l24 -25 0 27 c0 17 -6 27 -20 31 -11
3 -22 2 -24 -1z"/>
<path d="M1900 6314 c0 -8 5 -12 10 -9 6 4 8 11 5 16 -9 14 -15 11 -15 -7z"/>
<path d="M546 6083 c-6 -14 -5 -15 5 -6 7 7 10 15 7 18 -3 3 -9 -2 -12 -12z"/>
<path d="M2040 5240 c0 -5 5 -10 11 -10 5 0 7 5 4 10 -3 6 -8 10 -11 10 -2 0
-4 -4 -4 -10z"/>
<path d="M2080 5220 c19 -13 30 -13 30 0 0 6 -10 10 -22 10 -19 0 -20 -2 -8
-10z"/>
<path d="M2031 5207 c28 -21 59 -36 59 -29 0 5 -11 14 -25 20 -24 11 -44 16
-34 9z"/>
<path d="M2030 5180 c0 -6 7 -10 15 -10 8 0 15 2 15 4 0 2 -7 6 -15 10 -8 3
-15 1 -15 -4z"/>
<path d="M2236 5134 c-3 -9 -6 -17 -6 -18 0 -1 16 -2 35 -2 19 1 33 6 32 11
-2 6 -9 10 -14 10 -6 0 -15 3 -19 8 -12 11 -21 8 -28 -9z"/>
<path d="M4160 4510 c19 -13 30 -13 30 0 0 6 -10 10 -22 10 -19 0 -20 -2 -8
-10z"/>
<path d="M4108 3985 c-3 -3 -3 -17 0 -31 4 -21 9 -25 28 -21 13 2 24 0 24 -4
0 -5 5 -9 10 -9 6 0 10 7 10 15 0 8 -9 15 -20 15 -21 0 -28 20 -7 21 6 0 3 4
-8 9 -25 11 -30 11 -37 5z"/>
<path d="M3456 3861 c-10 -11 -15 -25 -11 -30 10 -17 23 -13 30 9 4 12 11 17
18 13 7 -4 6 1 -2 10 -17 21 -14 21 -35 -2z"/>
<path d="M3538 3843 c7 -3 16 -2 19 1 4 3 -2 6 -13 5 -11 0 -14 -3 -6 -6z"/>
<path d="M3735 3810 c3 -5 8 -10 11 -10 2 0 4 5 4 10 0 6 -5 10 -11 10 -5 0
-7 -4 -4 -10z"/>
<path d="M3685 3800 c-3 -5 1 -10 10 -10 9 0 13 5 10 10 -3 6 -8 10 -10 10 -2
0 -7 -4 -10 -10z"/>
<path d="M4143 3693 c-1 -10 1 -24 3 -32 7 -22 33 6 27 29 -7 25 -29 26 -30 3z"/>
<path d="M4127 3628 c-14 -11 -14 -15 -2 -32 14 -18 15 -18 25 8 5 15 10 29
10 32 0 8 -16 4 -33 -8z"/>
<path d="M4007 3490 c-7 -26 17 -43 53 -38 16 3 30 0 30 -5 0 -6 3 -8 6 -4 13
13 -9 46 -38 56 -42 15 -45 14 -51 -9z"/>
<path d="M4357 3376 c-3 -7 -8 -37 -12 -67 -6 -53 -6 -56 20 -67 48 -22 52
-12 29 71 -3 9 -1 17 5 17 5 0 13 -20 17 -45 6 -43 35 -77 52 -61 6 7 -36 144
-47 150 -23 13 -60 14 -64 2z"/>
<path d="M4455 3360 c-3 -5 -1 -10 4 -10 6 0 11 5 11 10 0 6 -2 10 -4 10 -3 0
-8 -4 -11 -10z"/>
<path d="M4094 3329 c-3 -6 -1 -16 5 -22 8 -8 11 -5 11 11 0 24 -5 28 -16 11z"/>
<path d="M4467 3309 c4 -13 8 -18 11 -10 2 7 -1 18 -6 23 -8 8 -9 4 -5 -13z"/>
<path d="M4366 3204 c17 -25 5 -33 -18 -11 -14 14 -58 18 -58 6 0 -4 11 -21
25 -37 19 -23 31 -29 55 -26 16 2 30 -1 30 -6 0 -6 -4 -10 -9 -10 -13 0 -23
-53 -16 -82 5 -20 11 -24 33 -21 l27 4 -23 -20 c-20 -17 -21 -23 -10 -48 7
-15 13 -30 15 -32 1 -2 16 8 33 22 16 14 46 31 65 38 33 12 47 29 25 29 -5 0
-10 13 -10 29 0 55 -12 92 -25 81 -9 -8 -14 0 -18 31 -5 41 -19 59 -46 59 -9
0 -11 -7 -7 -22 3 -13 6 -34 6 -46 0 -15 7 -26 20 -29 19 -5 29 -23 12 -23
-26 0 -51 33 -54 71 -3 35 -7 43 -35 54 l-33 14 16 -25z m154 -124 c0 -5 -4
-10 -10 -10 -5 0 -10 5 -10 10 0 6 5 10 10 10 6 0 10 -4 10 -10z"/>
<path d="M4250 3196 c0 -2 7 -7 16 -10 8 -3 12 -2 9 4 -6 10 -25 14 -25 6z"/>
<path d="M4217 3154 c-33 -28 -39 -84 -9 -84 30 0 52 23 58 61 8 46 -12 55
-49 23z"/>
<path d="M4287 3146 c-4 -10 -4 -22 -1 -28 3 -5 -2 -18 -11 -28 -16 -18 -16
-20 -1 -26 9 -3 27 -3 41 0 32 8 33 36 2 72 -21 24 -24 25 -30 10z"/>
<path d="M4208 3053 c-13 -3 -18 -14 -17 -36 1 -21 3 -25 6 -11 3 16 12 21 35
22 29 1 46 8 37 16 -9 8 -45 13 -61 9z"/>
<path d="M4330 3051 c0 -5 5 -13 10 -16 8 -5 7 -12 -1 -22 -10 -12 -10 -16 1
-23 11 -7 9 -14 -13 -34 -28 -26 -28 -26 -5 -26 13 0 33 -3 46 -6 20 -6 23 -3
19 17 -2 13 -7 31 -10 39 -3 8 -9 28 -14 44 -9 29 -33 49 -33 27z"/>
<path d="M4145 3021 c3 -11 2 -22 -3 -25 -6 -3 -12 4 -15 15 -7 28 -41 21 -45
-9 -2 -15 2 -22 13 -22 9 0 14 -4 11 -9 -3 -5 1 -11 9 -15 8 -3 15 -2 15 3 0
5 9 11 20 14 23 6 25 53 2 62 -9 3 -12 -1 -7 -14z"/>
<path d="M4305 3020 c-3 -5 -1 -10 4 -10 6 0 11 5 11 10 0 6 -2 10 -4 10 -3 0
-8 -4 -11 -10z"/>
<path d="M4030 3007 c0 -16 40 -70 47 -63 6 5 -24 63 -37 71 -5 3 -10 0 -10
-8z"/>
<path d="M4226 3001 c-12 -5 -15 -10 -9 -14 6 -4 16 0 23 8 14 17 13 17 -14 6z"/>
<path d="M4290 2988 c0 -14 -9 -18 -42 -18 -58 0 -77 -12 -55 -35 15 -14 22
-15 54 -4 54 18 68 32 54 55 -9 17 -10 18 -11 2z"/>
<path d="M4097 2933 c-16 -15 -6 -41 17 -45 25 -5 41 19 27 38 -8 12 -36 16
-44 7z"/>
<path d="M4205 2889 c-4 -5 -11 -7 -16 -4 -5 4 -9 1 -9 -4 0 -6 9 -11 20 -11
11 0 25 -12 34 -27 l14 -28 -1 25 c-2 28 -33 65 -42 49z"/>
<path d="M5165 2010 c3 -5 15 -10 26 -10 11 0 17 5 14 10 -3 6 -15 10 -26 10
-11 0 -17 -4 -14 -10z"/>
<path d="M5220 1931 c0 -12 29 -41 41 -41 5 0 9 11 9 25 0 20 -5 25 -25 25
-14 0 -25 -4 -25 -9z"/>
<path d="M5220 1876 c0 -9 5 -16 10 -16 6 0 10 4 10 9 0 6 -4 13 -10 16 -5 3
-10 -1 -10 -9z"/>
<path d="M5497 1296 c-4 -15 -6 -31 -2 -34 10 -10 16 6 13 35 l-3 28 -8 -29z"/>
<path d="M968 7983 c-8 -10 -5 -13 15 -13 13 0 30 7 37 15 11 13 8 15 -14 13
-15 -1 -32 -8 -38 -15z"/>
<path d="M1675 7990 c3 -5 8 -10 11 -10 2 0 4 5 4 10 0 6 -5 10 -11 10 -5 0
-7 -4 -4 -10z"/>
<path d="M2092 7988 c9 -25 148 -51 148 -28 0 6 -8 10 -17 10 -15 0 -16 2 -3
10 17 10 43 -7 33 -22 -3 -6 8 0 26 13 17 12 31 24 31 26 0 2 -50 3 -111 3
-84 0 -110 -3 -107 -12z"/>
<path d="M830 7983 c0 -15 18 -35 23 -27 3 5 -1 15 -9 22 -8 7 -14 9 -14 5z"/>
<path d="M2400 7960 c-9 -17 -8 -20 10 -20 13 0 20 7 20 20 0 11 -4 20 -10 20
-5 0 -14 -9 -20 -20z"/>
<path d="M1366 7951 c-13 -14 -14 -20 -4 -23 16 -6 68 13 68 25 0 4 -5 5 -10
2 -6 -4 -17 -2 -24 4 -10 8 -17 6 -30 -8z"/>
<path d="M1551 7944 c0 -11 3 -14 6 -6 3 7 2 16 -1 19 -3 4 -6 -2 -5 -13z"/>
<path d="M1597 7953 c-12 -12 15 -33 42 -32 20 1 22 2 6 6 -11 3 -25 11 -31
19 -6 7 -14 11 -17 7z"/>
<path d="M2443 7923 c-18 -7 -16 -23 2 -23 8 0 15 7 15 15 0 8 -1 15 -2 14 -2
0 -9 -3 -15 -6z"/>
<path d="M1558 7891 c-18 -32 -13 -48 9 -30 10 9 13 8 13 -4 0 -17 46 -50 59
-42 5 3 11 -1 14 -7 4 -11 13 5 32 61 3 7 12 11 19 8 8 -3 17 1 20 9 5 13 0
14 -24 9 -22 -5 -30 -3 -30 7 0 9 -3 9 -8 2 -9 -14 -82 -26 -82 -13 0 5 5 9
11 9 5 0 7 5 4 10 -10 16 -19 12 -37 -19z"/>
<path d="M1688 7913 c7 -3 16 -2 19 1 4 3 -2 6 -13 5 -11 0 -14 -3 -6 -6z"/>
<path d="M1309 7893 c-13 -16 -12 -17 4 -4 16 13 21 21 13 21 -2 0 -10 -8 -17
-17z"/>
<path d="M1461 7847 c-1 -34 3 -49 14 -54 24 -8 31 5 16 30 -8 12 -17 33 -22
47 -6 20 -7 16 -8 -23z"/>
<path d="M2780 7873 c0 -9 -7 -25 -16 -35 -19 -20 -16 -22 44 -32 18 -3 32 -1
32 4 0 6 7 10 15 10 18 0 18 5 5 31 -6 10 -19 19 -30 19 -10 0 -22 5 -25 10
-10 16 -25 12 -25 -7z"/>
<path d="M1200 7876 c0 -2 14 -9 30 -15 24 -8 30 -7 30 5 0 9 -10 14 -30 14
-16 0 -30 -2 -30 -4z"/>
<path d="M1370 7864 c0 -8 5 -12 10 -9 6 3 10 10 10 16 0 5 -4 9 -10 9 -5 0
-10 -7 -10 -16z"/>
<path d="M1406 7871 c-4 -7 -5 -15 -2 -18 9 -9 19 4 14 18 -4 11 -6 11 -12 0z"/>
<path d="M1733 7863 c-24 -9 -14 -33 13 -33 18 0 25 5 22 17 -3 18 -16 24 -35
16z"/>
<path d="M2880 7846 c8 -23 7 -28 -13 -36 -38 -15 11 -12 58 4 64 22 60 39
-13 51 l-42 7 10 -26z"/>
<path d="M1501 7844 c0 -11 3 -14 6 -6 3 7 2 16 -1 19 -3 4 -6 -2 -5 -13z"/>
<path d="M1524 7829 c-3 -6 -1 -16 5 -22 8 -8 11 -5 11 11 0 24 -5 28 -16 11z"/>
<path d="M1560 7819 c1 -33 50 -66 77 -51 14 8 13 11 -8 17 -13 4 -34 17 -46
28 -17 15 -23 17 -23 6z"/>
<path d="M1740 7799 c0 -5 5 -7 10 -4 6 3 10 8 10 11 0 2 -4 4 -10 4 -5 0 -10
-5 -10 -11z"/>
<path d="M2928 7775 c-3 -14 -1 -25 3 -25 5 0 9 5 9 11 0 6 7 9 15 5 12 -4 13
-2 2 14 -16 27 -24 25 -29 -5z"/>
<path d="M1545 7770 c3 -5 11 -10 16 -10 6 0 7 5 4 10 -3 6 -11 10 -16 10 -6
0 -7 -4 -4 -10z"/>
<path d="M2150 7770 c0 -5 5 -10 10 -10 6 0 10 5 10 10 0 6 -4 10 -10 10 -5 0
-10 -4 -10 -10z"/>
<path d="M2093 7720 c3 -11 0 -20 -6 -20 -7 -1 -1 -9 12 -20 26 -22 41 -18 41
11 0 12 -7 19 -20 19 -22 0 -27 15 -7 23 7 3 4 6 -7 6 -14 1 -17 -4 -13 -19z"/>
<path d="M2135 7730 c3 -5 8 -10 11 -10 2 0 4 5 4 10 0 6 -5 10 -11 10 -5 0
-7 -4 -4 -10z"/>
<path d="M1394 7665 c-18 -14 -18 -14 9 -15 17 0 27 5 27 15 0 19 -11 19 -36
0z"/>
<path d="M2828 7668 c-6 -16 28 -48 51 -48 11 0 23 9 26 21 8 25 9 25 -37 33
-24 4 -37 3 -40 -6z"/>
<path d="M2801 7604 c-16 -35 -14 -44 9 -44 15 0 20 7 20 29 0 39 -14 47 -29
15z"/>
<path d="M2845 7570 c3 -5 14 -10 23 -10 15 0 15 2 2 10 -20 13 -33 13 -25 0z"/>
<path d="M2081 7558 c0 -9 -7 -18 -13 -21 -7 -2 -11 -7 -8 -10 11 -12 32 11
27 29 -4 15 -5 16 -6 2z"/>
<path d="M2137 7547 c-2 -7 4 -23 14 -36 l19 -23 0 25 c0 29 -25 55 -33 34z"/>
<path d="M2718 7543 c6 -2 18 -2 25 0 6 3 1 5 -13 5 -14 0 -19 -2 -12 -5z"/>
<path d="M2844 7542 c3 -5 -9 -7 -27 -5 l-32 4 24 -20 c26 -23 30 -24 50 -12
15 10 8 41 -9 41 -6 0 -9 -4 -6 -8z"/>
<path d="M2725 7508 c-8 -23 2 -53 18 -56 13 -3 15 1 10 15 -6 17 -5 17 14 1
11 -10 29 -18 41 -18 12 0 40 -20 66 -47 38 -40 48 -45 56 -33 16 24 12 50 -8
50 -21 0 -62 27 -62 42 0 6 9 8 23 3 39 -12 67 -14 67 -4 0 5 -8 9 -17 10 -10
0 -27 3 -38 5 -11 3 -32 7 -47 8 -16 2 -36 10 -46 19 -22 20 -71 23 -77 5z"/>
<path d="M2110 7475 c-10 -12 -9 -16 4 -21 9 -3 23 -3 32 0 13 5 14 9 4 21 -7
8 -16 15 -20 15 -4 0 -13 -7 -20 -15z"/>
<path d="M2701 7474 c0 -11 3 -14 6 -6 3 7 2 16 -1 19 -3 4 -6 -2 -5 -13z"/>
<path d="M951 7463 c3 -21 -2 -33 -16 -33 -13 0 -21 -29 -12 -45 1 -2 -7 -10
-17 -18 -18 -13 -18 -14 5 -20 16 -4 28 -2 35 8 6 8 16 15 23 15 6 0 11 5 11
10 0 6 10 15 23 20 20 9 20 10 2 9 -11 -1 -26 -1 -32 0 -16 1 -17 41 -2 41 5
0 7 5 4 10 -7 12 -26 14 -24 3z"/>
<path d="M1643 7423 c5 -4 14 -8 20 -8 7 0 11 -8 9 -17 -1 -9 2 -20 9 -23 7
-5 9 3 7 21 -2 22 -9 30 -28 32 -14 2 -21 0 -17 -5z"/>
<path d="M1709 7428 c-7 -25 -4 -37 12 -41 20 -5 23 1 13 27 -5 13 -22 22 -25
14z"/>
<path d="M1750 7341 c0 -5 7 -12 16 -15 14 -5 15 -4 4 9 -14 17 -20 19 -20 6z"/>
<path d="M895 7321 c3 -10 -1 -31 -9 -46 -13 -25 -13 -32 1 -59 8 -17 17 -32
18 -34 1 -1 15 2 31 8 15 6 24 14 19 18 -12 9 -15 52 -3 52 4 0 8 19 8 43 l-1
42 -19 -24 c-14 -16 -20 -19 -20 -8 0 8 -7 18 -16 21 -11 4 -14 1 -9 -13z"/>
<path d="M2030 7213 c0 -5 5 -15 10 -23 8 -12 10 -11 10 8 0 12 -4 22 -10 22
-5 0 -10 -3 -10 -7z"/>
<path d="M1980 7186 c0 -13 48 -36 76 -36 8 0 14 8 13 18 0 10 -3 12 -6 5 -6
-16 -33 -17 -33 -2 0 5 -5 7 -12 3 -8 -5 -9 -2 -5 9 5 12 1 17 -13 17 -11 0
-20 -6 -20 -14z"/>
<path d="M1910 7145 l-35 -12 32 -5 c22 -3 34 0 38 10 8 20 5 21 -35 7z"/>
<path d="M2026 7126 c21 -15 30 -14 19 3 -3 6 -14 11 -23 11 -13 0 -13 -2 4
-14z"/>
<path d="M1985 7120 c3 -5 8 -10 11 -10 2 0 4 5 4 10 0 6 -5 10 -11 10 -5 0
-7 -4 -4 -10z"/>
<path d="M1870 7111 c0 -6 9 -11 19 -11 25 0 51 -10 51 -20 0 -4 -12 -5 -26
-2 -28 5 -44 -10 -44 -40 0 -27 50 -24 57 2 6 24 31 26 48 3 11 -15 13 -15 24
6 10 18 15 20 27 10 11 -9 14 -8 14 4 0 17 -36 32 -95 42 -22 3 -48 8 -57 11
-10 3 -18 1 -18 -5z"/>
<path d="M888 7063 c-10 -2 -18 -9 -18 -14 0 -6 8 -5 20 1 11 6 20 13 20 15 0
3 -1 4 -2 4 -2 -1 -11 -3 -20 -6z"/>
<path d="M814 7037 c-27 -24 -26 -47 1 -47 12 0 45 47 45 65 0 12 -20 4 -46
-18z"/>
<path d="M905 7038 c-4 -10 -13 -18 -20 -18 -6 0 -20 -8 -29 -19 -16 -18 -15
-20 17 -40 19 -11 37 -21 40 -21 12 0 19 72 9 93 -9 20 -11 20 -17 5z"/>
<path d="M1830 7011 c0 -12 20 -36 20 -24 0 6 8 13 18 15 12 3 9 6 -10 10 -16
3 -28 2 -28 -1z"/>
<path d="M2095 6846 c-5 -10 -22 -24 -39 -32 -19 -8 -24 -13 -13 -14 9 0 17
-5 17 -11 0 -5 -4 -8 -9 -4 -5 3 -12 1 -15 -4 -3 -5 18 -12 46 -16 29 -3 60
-9 69 -11 21 -6 33 24 18 42 -16 19 -26 17 -32 -6 -5 -21 -31 -27 -42 -10 -3
6 1 10 9 10 22 0 25 12 11 45 -11 26 -14 28 -20 11z"/>
<path d="M345 6835 c-5 -11 -14 -27 -22 -37 -13 -14 -12 -17 5 -22 20 -7 38
-46 20 -46 -15 0 0 -17 21 -23 14 -3 18 -1 14 9 -3 8 0 14 6 14 16 0 14 16 -4
34 -9 8 -15 19 -14 23 1 4 0 15 -4 23 -3 8 -7 22 -10 30 -4 12 -6 11 -12 -5z"/>
<path d="M1035 6820 c3 -5 8 -10 11 -10 2 0 4 5 4 10 0 6 -5 10 -11 10 -5 0
-7 -4 -4 -10z"/>
<path d="M1105 6730 c-8 -12 3 -50 14 -50 4 0 8 7 8 15 0 8 -4 15 -8 15 -5 0
-6 7 -3 15 7 17 -1 20 -11 5z"/>
<path d="M1018 6713 c7 -3 16 -2 19 1 4 3 -2 6 -13 5 -11 0 -14 -3 -6 -6z"/>
<path d="M1070 6704 c0 -8 5 -12 10 -9 6 4 8 11 5 16 -9 14 -15 11 -15 -7z"/>
<path d="M2310 6527 c0 -8 -3 -22 -6 -31 -4 -11 -1 -16 10 -16 13 0 15 6 10
28 -8 33 -14 41 -14 19z"/>
<path d="M1659 6336 c-5 -22 -3 -32 6 -38 27 -19 35 4 10 28 -8 9 -16 13 -16
10z"/>
<path d="M2806 6045 c16 -24 44 -34 44 -16 0 15 -30 41 -46 41 -12 0 -12 -4 2
-25z"/>
<path d="M2760 6030 c0 -5 -7 -10 -15 -10 -20 0 -19 -16 1 -24 27 -10 34 -7
34 19 0 14 -4 25 -10 25 -5 0 -10 -4 -10 -10z"/>
<path d="M2800 5991 c0 -11 -6 -22 -12 -24 -10 -4 -10 -6 0 -6 6 -1 12 -7 12
-15 0 -14 40 -49 47 -42 8 8 -10 36 -23 36 -19 0 -18 16 1 24 20 7 19 32 -1
40 -23 9 -24 8 -24 -13z"/>
<path d="M2705 5980 c11 -5 27 -9 35 -9 9 0 8 4 -5 9 -11 5 -27 9 -35 9 -9 0
-8 -4 5 -9z"/>
<path d="M2775 5940 c-3 -5 -1 -10 4 -10 6 0 11 5 11 10 0 6 -2 10 -4 10 -3 0
-8 -4 -11 -10z"/>
<path d="M2815 5880 c3 -5 8 -10 11 -10 2 0 4 5 4 10 0 6 -5 10 -11 10 -5 0
-7 -4 -4 -10z"/>
<path d="M2724 5866 c-4 -9 -5 -18 -3 -20 2 -1 21 -13 43 -26 31 -19 40 -20
47 -9 20 32 3 55 -49 65 -24 5 -33 2 -38 -10z m81 -16 c3 -5 1 -10 -4 -10 -6
0 -11 5 -11 10 0 6 2 10 4 10 3 0 8 -4 11 -10z"/>
<path d="M2720 5805 c0 -9 6 -12 15 -9 8 4 12 10 9 15 -8 14 -24 10 -24 -6z"/>
<path d="M3517 4894 c-21 -35 -3 -94 29 -94 17 0 18 -4 -5 54 -10 27 -21 45
-24 40z"/>
<path d="M3483 4793 c-4 -10 -13 -22 -20 -26 -24 -14 -4 -26 34 -20 28 5 35 3
31 -8 -3 -8 -11 -13 -17 -11 -6 1 -11 -3 -11 -9 0 -5 -5 -7 -12 -3 -7 4 -8 3
-4 -4 10 -17 43 -15 50 4 11 29 6 61 -12 77 -24 21 -31 21 -39 0z"/>
<path d="M3435 4730 c-3 -5 -1 -10 4 -10 6 0 11 5 11 10 0 6 -2 10 -4 10 -3 0
-8 -4 -11 -10z"/>
<path d="M3560 4595 c-15 -8 -19 -14 -10 -14 18 -1 46 16 40 23 -3 2 -16 -2
-30 -9z"/>
</g>
</svg>
