<?xml version="1.0" standalone="no"?>
<!DOCTYPE svg PUBLIC "-//W3C//DTD SVG 20010904//EN"
 "http://www.w3.org/TR/2001/REC-SVG-20010904/DTD/svg10.dtd">
<svg version="1.0" xmlns="http://www.w3.org/2000/svg"
 width="800.000000pt" height="800.000000pt" viewBox="0 0 800.000000 800.000000"
 preserveAspectRatio="xMidYMid meet">
<metadata>
Created by potrace 1.16, written by Peter Selinger 2001-2019
</metadata>
<g transform="translate(0.000000,800.000000) scale(0.100000,-0.100000)"
fill="#000000" stroke="none">
<path d="M0 7431 l0 -569 47 -20 c73 -31 103 -37 103 -20 0 8 41 55 90 106 58
58 98 108 112 139 29 65 48 94 60 87 5 -3 3 -13 -6 -23 -9 -10 -21 -33 -27
-52 -14 -41 -61 -100 -145 -182 -35 -35 -66 -75 -70 -91 -10 -40 10 -110 48
-171 39 -63 46 -126 21 -175 -16 -31 -100 -107 -195 -178 l-38 -27 0 -311 0
-311 79 -6 c44 -4 95 -13 113 -20 34 -15 79 -57 61 -57 -6 0 -16 7 -23 14 -17
21 -94 43 -167 49 l-63 5 0 -118 c0 -118 0 -119 28 -139 15 -11 34 -27 42 -34
35 -33 181 -129 187 -123 6 6 -36 45 -49 46 -5 0 -8 13 -8 28 0 16 -9 37 -20
47 -18 17 -28 45 -15 45 15 0 54 -58 55 -80 0 -16 10 -32 30 -45 18 -12 30
-29 30 -42 0 -15 9 -24 31 -32 17 -6 38 -19 47 -30 17 -19 133 -51 188 -51 15
0 35 -6 43 -13 19 -16 153 -77 168 -77 6 0 16 -7 23 -14 6 -8 36 -20 66 -26
74 -16 75 -40 2 -35 -43 4 -49 2 -33 -7 11 -6 23 -15 26 -20 3 -5 -6 -100 -21
-211 -24 -187 -28 -205 -53 -233 l-27 -30 -120 15 c-66 8 -120 19 -120 23 0
11 18 10 130 -6 141 -21 140 -22 175 245 14 106 25 194 25 196 0 2 -7 3 -15 3
-8 0 -20 9 -27 20 -7 11 -18 20 -25 20 -7 0 -13 5 -13 10 0 6 -12 8 -27 4
l-28 -6 23 19 22 18 -67 29 c-38 16 -74 34 -82 40 -12 10 -42 16 -194 42 -21
4 -44 15 -51 25 -7 10 -32 27 -57 38 -24 12 -96 57 -159 100 -63 44 -118 80
-122 81 -5 0 -8 -559 -8 -1242 l0 -1242 39 38 39 38 -19 32 c-29 47 -26 128 6
170 14 18 25 39 25 46 0 11 3 11 12 2 8 -8 5 -20 -15 -50 -34 -49 -37 -121 -6
-171 l20 -33 -51 -47 -51 -46 3 -153 3 -153 60 42 c33 23 79 60 102 83 29 27
43 35 43 24 0 -19 -41 -55 -138 -123 l-72 -50 0 -346 0 -345 28 -27 c37 -35
98 -55 193 -63 59 -5 79 -10 75 -20 -3 -7 -19 -48 -37 -90 l-33 -78 29 -81
c15 -44 30 -86 33 -92 2 -7 0 -13 -6 -13 -10 0 -72 155 -72 182 0 8 14 48 30
88 17 40 30 74 30 75 0 2 -30 6 -68 10 -74 8 -154 34 -183 61 -19 17 -19 -1
-19 -874 l0 -892 1383 0 1382 0 64 41 c62 39 63 41 42 55 -12 9 -19 20 -15 25
3 5 16 1 30 -10 l25 -20 52 33 c42 27 51 38 49 58 -2 14 5 31 18 43 11 10 20
26 20 36 0 32 -39 109 -101 199 -59 87 -122 142 -201 177 -16 7 -30 23 -34 38
-7 28 19 71 145 235 35 47 57 79 48 71 -15 -11 -17 -11 -17 1 0 27 40 68 66
68 30 0 32 -18 2 -22 -16 -2 -23 -9 -22 -25 0 -13 -23 -54 -54 -94 l-55 -72
17 -54 c9 -29 27 -64 39 -78 l22 -25 129 8 c127 7 130 8 136 32 4 14 20 78 36
142 l29 118 31 0 c34 0 94 18 94 28 1 4 7 47 14 97 13 85 13 91 -6 117 -21 30
-15 37 12 13 16 -15 18 -12 24 35 4 27 11 50 17 50 6 0 7 -19 3 -49 -7 -58 17
-119 66 -167 16 -16 44 -53 62 -82 32 -51 48 -64 48 -39 1 6 9 2 19 -10 10
-12 35 -33 55 -47 38 -26 226 -201 226 -211 0 -16 -26 4 -110 85 -88 86 -94
90 -111 74 -17 -15 -21 -15 -55 5 -37 22 -37 22 -57 2 -20 -19 -19 -19 37 -51
31 -18 59 -36 62 -41 10 -17 -17 -9 -71 22 -31 17 -61 29 -69 26 -13 -5 -52
-104 -45 -112 2 -1 31 6 64 16 54 17 64 17 103 4 24 -8 72 -35 107 -60 l64
-46 21 21 c11 11 20 25 20 30 0 6 5 10 10 10 18 0 11 -30 -13 -54 -20 -20 -22
-26 -10 -42 18 -25 17 -28 -19 -46 -30 -14 -31 -17 -13 -23 11 -3 36 -14 55
-23 19 -8 38 -15 43 -14 4 1 7 -5 7 -13 0 -19 4 -19 -54 10 -56 28 -86 32 -86
10 0 -18 -12 -19 -27 -4 -27 27 -217 -121 -284 -221 -19 -27 -37 -50 -41 -50
-21 0 -1 33 63 108 l71 83 -22 25 c-13 13 -20 27 -16 31 4 5 19 -5 32 -20 l24
-28 28 23 c16 13 56 39 90 58 34 19 62 40 62 47 0 24 -37 18 -88 -15 -29 -18
-57 -32 -61 -30 -22 8 -142 130 -151 152 -8 23 -13 25 -58 19 -32 -3 -52 -1
-56 6 -5 7 4 11 26 11 64 0 76 9 98 69 11 31 24 63 29 72 10 17 -6 24 -101 44
-16 3 -28 10 -28 15 0 11 60 2 115 -16 37 -12 42 -12 60 6 24 25 18 30 -73 65
-72 27 -75 27 -148 14 l-74 -13 -11 -41 c-6 -22 -17 -62 -24 -90 -7 -27 -16
-67 -20 -88 l-6 -38 63 1 c82 2 86 1 68 -10 -8 -5 -38 -10 -67 -10 -28 0 -54
-4 -57 -9 -3 -5 -10 -39 -15 -76 -14 -98 -74 -184 -144 -208 -8 -2 -2 -25 17
-73 46 -108 46 -108 90 -78 110 75 359 224 365 219 8 -9 -9 -21 -186 -127
-121 -72 -153 -96 -153 -113 0 -11 -5 -26 -11 -32 -7 -7 -1 -18 22 -37 29 -25
32 -26 44 -9 8 10 17 15 21 11 4 -4 2 -14 -5 -21 -9 -11 -5 -27 18 -70 17 -31
32 -51 35 -44 5 9 7 9 12 0 4 -10 211 -13 985 -13 538 0 979 2 979 5 0 2 -9
19 -20 37 -21 35 -26 58 -12 58 5 0 19 -22 32 -50 l23 -50 259 0 258 0 1 23
c1 12 3 29 4 37 1 8 3 37 4 63 0 31 5 46 12 42 6 -4 9 -21 8 -39 -3 -47 9 -68
32 -55 10 5 19 8 19 5 0 -3 19 4 43 14 23 11 53 20 67 20 37 0 58 16 42 32
-16 16 -15 85 4 193 15 85 15 90 -3 103 -17 12 -17 14 7 32 14 11 57 38 97 60
39 22 93 58 119 81 26 22 59 45 73 51 15 6 21 12 13 15 -9 3 -7 12 8 33 11 16
34 54 51 86 16 32 49 74 72 93 23 20 57 53 76 74 19 20 38 37 43 37 14 0 9
-28 -7 -34 -24 -9 -17 -54 15 -102 19 -27 26 -44 18 -44 -7 0 -26 23 -41 51
-29 50 -29 50 -50 32 -66 -54 -92 -84 -119 -138 -17 -33 -37 -64 -44 -68 -8
-5 -12 -12 -9 -17 8 -13 -17 -50 -33 -50 -7 0 -35 -18 -62 -41 -27 -22 -82
-60 -122 -83 -59 -33 -72 -45 -70 -63 2 -12 -4 -61 -12 -110 -25 -140 -22
-172 19 -220 40 -47 47 -67 11 -34 -22 20 -31 22 -78 16 -29 -4 -70 -16 -90
-26 -21 -11 -51 -19 -68 -19 -25 0 -30 -4 -30 -25 l0 -25 499 0 c492 0 500 0
506 20 4 11 10 18 15 15 5 -3 7 -12 3 -20 -4 -13 69 -15 571 -15 l576 0 -2
3582 -3 3582 -50 20 c-27 10 -93 39 -145 63 -90 42 -102 52 -232 185 -76 76
-138 141 -138 144 0 15 27 -2 57 -35 23 -26 40 -38 51 -34 11 5 14 2 9 -9 -4
-11 22 -42 81 -101 87 -84 172 -141 180 -118 6 18 22 13 22 -8 0 -13 15 -25
49 -40 27 -11 55 -21 61 -21 6 0 22 -7 35 -16 l25 -16 0 410 0 411 -205 0
c-166 1 -205 -2 -205 -13 0 -19 -32 -45 -37 -30 -5 16 -43 5 -43 -12 0 -8 -4
-14 -9 -14 -12 0 -25 31 -22 53 4 30 -55 20 -204 -34 -199 -73 -316 -77 -452
-13 -72 33 -113 31 -188 -11 -34 -19 -68 -41 -75 -50 -7 -8 -16 -12 -21 -9
-24 15 142 114 191 114 16 0 75 -16 133 -35 126 -42 198 -45 305 -13 l73 21
-22 24 -22 23 -1929 0 c-1833 0 -1929 -1 -1924 -17 39 -128 46 -155 41 -163
-4 -6 -10 -8 -15 -5 -5 3 -11 1 -15 -5 -4 -6 -11 -8 -16 -4 -6 3 -2 12 9 20
20 13 19 14 -3 91 l-22 78 -1550 3 -1549 2 -12 -86 c-9 -65 -18 -95 -37 -120
-14 -18 -25 -44 -25 -58 0 -14 -4 -26 -10 -26 -20 0 -9 54 17 89 21 27 30 55
39 118 l11 83 -104 0 -103 0 0 -569z m6148 437 c19 -33 52 -185 52 -243 0 -17
5 -36 12 -43 14 -14 12 -14 -78 -12 -75 2 -341 -18 -412 -30 -29 -5 -81 -26
-115 -46 -42 -25 -81 -39 -122 -44 -33 -5 -108 -26 -167 -49 -58 -22 -127 -46
-152 -52 -26 -6 -48 -15 -51 -19 -2 -3 6 -22 19 -41 12 -19 42 -64 66 -101 33
-50 63 -80 117 -118 100 -70 135 -116 167 -225 37 -122 37 -123 91 -183 48
-54 56 -85 10 -42 -14 13 -23 25 -21 28 3 2 -8 15 -23 27 -27 23 -61 100 -95
216 -17 60 -62 110 -158 176 -48 33 -90 83 -162 193 -41 64 -43 65 -97 73 -36
6 -83 4 -144 -6 -85 -14 -106 -14 -93 -2 10 11 125 25 233 29 123 5 138 9 303
72 65 24 134 44 154 44 25 0 68 15 125 45 98 50 143 58 432 71 l141 7 0 31 c0
59 -33 211 -51 237 -10 14 -16 29 -12 33 9 9 10 9 31 -26z m1272 -23 c0 -8 -4
-17 -10 -20 -6 -4 -10 5 -10 20 0 15 4 24 10 20 6 -3 10 -12 10 -20z m-910
-10 c-7 -9 -15 -13 -18 -10 -3 2 1 11 8 20 7 9 15 13 18 10 3 -2 -1 -11 -8
-20z m-32 -37 c-2 -6 -10 -14 -16 -16 -7 -2 -10 2 -6 12 7 18 28 22 22 4z
m1140 -34 c12 -4 22 -11 22 -16 0 -10 -39 -1 -54 13 -12 11 -1 11 32 3z
m-1172 -20 c-3 -9 -6 -18 -6 -20 0 -3 -4 -3 -10 1 -11 7 -2 35 12 35 6 0 7 -7
4 -16z m-16 -43 c0 -16 -12 -41 -20 -41 -4 0 -5 11 -2 25 4 23 22 36 22 16z
m192 -106 c27 -18 49 -24 85 -24 63 1 203 -55 203 -82 0 -13 -5 -12 -42 11
-54 31 -120 52 -163 51 -39 -2 -145 44 -145 62 0 14 26 7 62 -18z m-2884 -10
c3 -3 -9 -54 -26 -113 -18 -59 -34 -122 -36 -139 -3 -31 -1 -34 38 -44 92 -24
116 -33 116 -43 0 -6 -31 -130 -69 -276 -39 -146 -72 -278 -75 -293 -3 -16
-12 -50 -20 -75 -8 -26 -29 -93 -46 -149 -17 -57 -35 -103 -39 -103 -5 0 7 51
25 113 19 61 47 164 64 227 16 63 54 210 84 325 31 116 56 215 56 220 0 9
-109 45 -134 45 -3 0 -10 -19 -16 -42 -30 -120 -67 -230 -96 -288 -27 -54 -45
-75 -108 -123 -50 -38 -76 -65 -76 -78 0 -28 24 -73 82 -151 30 -41 51 -82 55
-105 7 -43 -5 -38 -22 10 -6 17 -37 67 -67 109 -57 79 -74 122 -63 157 3 11
38 43 76 72 81 60 115 117 168 283 52 161 52 181 -1 326 -11 30 -22 66 -25 78
-5 23 -4 23 18 10 13 -7 26 -14 29 -16 2 -2 -1 -7 -8 -11 -10 -6 -10 -14 -1
-37 6 -16 17 -49 23 -74 l12 -45 28 90 c15 50 29 97 32 106 3 12 -5 20 -26 27
-16 6 -30 14 -30 18 0 7 69 -2 78 -11z m278 -93 c50 -16 131 -52 180 -80 49
-28 115 -59 146 -69 32 -10 58 -21 58 -25 0 -20 -71 6 -209 75 -58 30 -142 67
-186 82 -76 27 -112 45 -89 45 5 0 51 -13 100 -28z m3123 -48 c17 -4 31 -11
31 -16 0 -12 -80 0 -94 13 -12 11 17 12 63 3z m-2373 -131 c-12 -13 -108 -31
-125 -25 -10 4 4 11 34 18 59 14 101 17 91 7z m-308 -10 c-10 -2 -26 -2 -35 0
-10 3 -2 5 17 5 19 0 27 -2 18 -5z m130 -10 c-16 -2 -40 -2 -55 0 -16 2 -3 4
27 4 30 0 43 -2 28 -4z m-1649 -272 c36 -19 40 -19 84 -3 44 16 49 16 94 -2
26 -11 73 -28 104 -39 34 -11 77 -37 105 -63 61 -54 40 -58 -24 -5 -26 21 -63
42 -82 46 -19 4 -56 18 -82 31 -56 28 -76 30 -122 7 -34 -16 -37 -15 -81 8
-25 13 -45 27 -45 31 0 12 7 10 49 -11z m4046 -494 c53 -125 55 -133 64 -255
10 -134 20 -174 58 -234 13 -21 23 -43 23 -50 0 -7 28 -31 62 -53 51 -32 68
-51 90 -95 15 -30 27 -61 27 -68 2 -26 -22 2 -45 54 -13 30 -26 54 -28 54 -2
0 -34 -51 -71 -112 -38 -62 -79 -128 -92 -145 -27 -37 -53 -43 -53 -14 0 11 7
18 17 17 18 -1 163 225 163 254 -1 33 -74 90 -117 90 -12 0 -75 -18 -140 -39
-159 -52 -199 -59 -420 -67 -178 -6 -191 -6 -236 14 -43 19 -76 49 -115 104
-11 15 -11 18 0 18 7 0 28 -20 46 -45 53 -70 95 -79 316 -71 213 9 246 14 405
66 66 22 132 40 146 40 l27 0 -21 34 c-37 60 -52 119 -61 243 -8 105 -14 133
-46 212 -21 50 -42 88 -47 84 -6 -3 -7 -1 -3 5 7 11 -29 98 -45 108 -5 3 -9
13 -9 22 1 36 51 -45 105 -171z m-1524 146 c-14 -27 -81 -88 -81 -75 0 7 16
30 36 52 38 41 62 54 45 23z m-4851 -585 c19 2 21 0 11 -12 -26 -31 21 -77
102 -101 31 -9 57 -21 57 -27 0 -5 -6 -8 -14 -5 -8 3 -34 11 -57 18 -24 7 -54
20 -67 30 -30 23 -272 361 -265 372 2 4 51 -57 107 -135 86 -119 106 -143 126
-140z m5380 202 c0 -14 -12 -12 -38 6 -33 23 -27 37 8 19 17 -9 30 -20 30 -25z
m-2414 -5 c-4 -14 -12 -25 -19 -25 -7 0 -18 -15 -25 -34 -15 -42 -215 -356
-254 -400 -10 -11 -18 -23 -18 -28 0 -4 -7 -8 -16 -8 -13 0 -12 4 4 28 11 15
32 49 47 76 22 39 24 50 14 57 -26 16 -85 29 -130 27 -24 -1 -54 2 -66 6 -15
5 -23 3 -23 -5 0 -8 -4 -8 -12 -2 -9 7 -18 4 -30 -8 -15 -16 -14 -22 7 -84 13
-37 33 -77 44 -89 25 -26 27 -38 6 -30 -9 4 -18 -3 -24 -17 -12 -30 -80 -108
-81 -93 0 6 15 31 34 55 53 70 53 70 -35 125 -71 44 -93 64 -71 64 4 0 34 -18
67 -40 32 -21 61 -38 63 -35 2 2 -2 14 -9 26 -6 13 -18 44 -24 71 -12 45 -12
48 11 63 13 8 24 19 24 23 0 4 -18 17 -40 30 -22 12 -47 36 -55 52 -14 27 -21
30 -60 30 -25 0 -45 5 -45 10 0 19 56 110 63 103 4 -3 -4 -25 -18 -48 l-24
-43 40 -6 c30 -5 44 -14 57 -35 9 -16 46 -46 82 -67 56 -32 77 -39 145 -44 44
-3 90 -11 102 -18 12 -7 24 -12 28 -12 3 0 31 39 61 88 31 48 66 98 79 112 12
14 31 46 41 72 10 27 24 48 30 48 7 0 14 10 17 22 4 12 9 19 13 16 3 -4 4 -19
0 -33z m2074 -54 c0 -19 -12 -41 -20 -36 -10 6 -1 45 11 45 5 0 9 -4 9 -9z
m-3545 -30 c-5 -40 2 -29 -292 -487 l-264 -412 -98 -88 c-102 -91 -115 -111
-126 -195 l-7 -46 48 -7 c55 -7 63 -3 41 22 -18 20 -23 52 -8 52 5 0 12 -10
15 -22 18 -68 94 -94 237 -82 144 12 195 -20 314 -197 48 -71 90 -129 94 -129
4 0 29 30 57 67 127 174 289 304 422 338 l72 19 21 65 c43 133 50 90 7 -49
-16 -55 -26 -156 -16 -165 2 -1 15 -5 29 -8 21 -5 39 6 117 74 51 44 97 79
104 77 6 -2 -30 -40 -81 -84 l-93 -79 7 -95 c4 -52 8 -96 10 -98 1 -1 32 -5
69 -9 l66 -6 0 73 0 74 63 58 c34 32 65 58 70 58 18 0 2 -21 -53 -69 l-60 -52
0 -69 c0 -77 3 -80 93 -80 28 0 47 -4 47 -11 0 -8 -22 -10 -70 -7 l-70 5 0
-88 c0 -53 -4 -89 -10 -89 -6 0 -10 36 -10 89 l0 88 -67 6 c-37 4 -69 4 -72 2
-2 -3 3 -63 12 -133 21 -159 21 -238 2 -297 l-16 -45 36 -44 c44 -54 181 -146
218 -146 l27 0 0 119 c0 66 4 121 9 123 5 2 12 53 15 113 18 316 29 451 38
462 6 7 5 14 -2 18 -11 7 -9 97 6 235 l5 55 -63 51 c-74 59 -77 78 -21 127 76
64 133 122 133 135 0 7 5 10 10 7 6 -3 10 1 10 9 0 9 5 16 11 16 6 0 17 7 26
16 14 14 11 20 -33 65 -26 27 -51 49 -54 49 -4 0 -25 -16 -49 -36 -70 -61 -58
-30 17 41 39 36 81 86 92 111 16 32 28 44 43 44 20 -1 21 -2 5 -14 -10 -7 -18
-18 -18 -23 0 -6 -16 -31 -36 -57 l-36 -47 49 -52 c26 -29 53 -53 59 -55 6 -2
37 20 68 49 31 28 60 48 64 44 4 -4 -22 -33 -57 -64 l-63 -58 23 -19 c13 -10
44 -45 68 -77 69 -91 105 -102 116 -34 14 93 13 92 50 94 40 3 59 -21 49 -62
-4 -18 -2 -27 10 -31 9 -3 16 -11 16 -16 0 -6 -6 -8 -13 -5 -14 5 -10 -45 47
-518 8 -71 22 -195 31 -274 20 -170 21 -175 49 -166 85 25 127 28 198 17 111
-17 179 -47 248 -109 33 -30 64 -52 70 -48 5 3 15 3 21 -1 8 -4 7 -9 -2 -14
-9 -6 -6 -21 14 -63 35 -75 59 -161 55 -200 -3 -28 0 -32 22 -34 14 -1 20 0
13 3 -14 6 -6 34 11 34 6 0 17 -9 24 -20 7 -11 21 -20 32 -20 11 0 20 -4 20
-9 0 -12 -66 -21 -101 -14 -29 5 -29 5 -29 -41 0 -26 7 -58 16 -72 15 -22 19
-23 38 -11 57 37 286 169 298 171 52 11 172 83 232 139 32 30 35 37 19 37 -11
0 -71 25 -134 57 -102 50 -168 96 -277 193 -39 35 -50 37 -68 13 -7 -10 -16
-15 -20 -11 -4 5 31 43 77 85 46 43 108 101 137 130 60 57 58 48 32 170 -12
52 -12 66 0 87 31 59 296 400 324 418 30 18 75 19 119 2 11 -4 17 3 22 24 4
21 13 31 31 35 26 5 34 -10 10 -19 -8 -3 -19 -19 -25 -36 -10 -27 -13 -29 -43
-22 -53 13 -96 9 -119 -12 -38 -34 -58 -70 -52 -92 7 -28 23 -29 23 -2 0 11 5
20 10 20 6 0 10 -9 10 -21 0 -12 5 -19 13 -16 6 2 11 11 9 20 -2 12 5 16 28
14 16 -1 30 -5 30 -9 0 -19 38 -6 45 15 3 12 9 17 11 10 3 -7 11 -10 18 -7 7
3 25 0 40 -6 21 -8 27 -15 23 -30 -6 -24 8 -27 17 -3 6 15 8 15 16 3 7 -10 10
-11 10 -2 0 6 5 12 10 12 20 0 9 -18 -42 -70 l-53 -52 23 -15 c31 -21 28 -39
-13 -77 -19 -19 -35 -38 -35 -45 0 -8 41 -11 134 -11 l134 0 7 48 c10 73 37
176 48 187 6 7 8 0 4 -20 -4 -16 -15 -70 -25 -120 l-19 -90 28 -3 c15 -2 44 1
64 7 27 7 35 7 32 -2 -4 -14 -40 -25 -89 -26 -27 -1 -38 -6 -38 -16 0 -8 -4
-15 -10 -15 -5 0 -10 7 -10 14 0 12 -26 16 -139 18 l-139 3 -57 -83 c-55 -80
-69 -124 -75 -223 0 -4 28 -14 63 -24 81 -23 157 -61 157 -80 0 -8 -4 -15 -10
-15 -5 0 -10 4 -10 10 0 14 -66 45 -140 65 -36 10 -69 21 -73 25 -4 4 -4 42 2
84 9 73 14 84 83 189 40 62 86 125 102 140 l30 29 -24 18 c-22 17 -24 21 -12
41 10 16 11 24 3 29 -7 3 -9 14 -6 22 4 9 2 19 -4 22 -5 4 -12 -3 -16 -14 -8
-26 -25 -26 -18 0 3 11 0 20 -6 20 -6 0 -11 -6 -11 -14 0 -8 -5 -18 -11 -22
-8 -5 -10 1 -7 20 3 14 2 26 -1 26 -3 0 -16 3 -27 6 -16 4 -23 0 -28 -18 -3
-13 -9 -19 -13 -13 -9 12 -68 14 -79 3 -4 -4 -13 -3 -19 2 -10 8 -26 -6 -62
-52 -86 -109 -163 -220 -163 -237 0 -9 7 -46 16 -83 22 -90 14 -108 -95 -205
-47 -42 -93 -83 -101 -90 -12 -11 -9 -17 22 -45 61 -55 122 -104 162 -132 l38
-25 83 107 c108 138 144 180 145 166 0 -6 -47 -71 -105 -144 l-104 -134 49
-27 c27 -15 78 -38 114 -52 l65 -25 83 88 c338 358 368 388 368 362 0 -5 -60
-69 -132 -143 -73 -74 -169 -175 -213 -224 -44 -49 -84 -92 -90 -97 -53 -43
-95 -76 -114 -88 -22 -15 -23 -17 -9 -45 9 -17 23 -54 33 -83 9 -29 19 -51 22
-48 3 3 -2 25 -10 50 -9 26 -12 46 -7 46 5 0 14 -17 21 -37 6 -21 17 -41 23
-46 7 -5 5 -12 -8 -22 -18 -13 -17 -15 9 -39 15 -14 49 -39 75 -56 54 -35 67
-64 49 -117 -14 -45 -3 -54 66 -52 97 4 175 -1 175 -11 0 -6 -36 -11 -87 -11
-178 -2 -178 -2 -178 -24 0 -16 11 -23 50 -33 33 -8 55 -9 66 -3 13 8 18 6 22
-8 3 -13 29 -22 103 -39 54 -11 125 -24 156 -27 34 -4 57 -11 55 -17 -1 -6 38
-24 88 -40 90 -28 141 -58 100 -58 -13 0 -30 -18 -51 -53 -26 -44 -29 -57 -21
-82 11 -36 57 -87 113 -125 40 -27 161 -80 183 -80 6 0 11 -5 11 -11 0 -15
-54 -2 -127 31 -37 17 -63 24 -65 18 -5 -13 -48 -1 -48 14 0 5 7 8 15 4 29
-11 14 10 -34 48 -33 26 -55 54 -66 81 l-15 42 -73 -14 c-108 -20 -176 -42
-196 -62 -12 -12 -22 -16 -29 -9 -16 16 -62 -49 -62 -87 0 -28 5 -35 30 -44
41 -14 38 -23 -4 -15 l-34 6 -7 -49 c-12 -91 -13 -87 27 -97 21 -5 40 -7 43
-4 3 3 10 34 16 69 7 40 18 70 30 80 10 10 24 30 29 45 8 21 13 25 20 15 5 -9
18 -12 39 -8 34 7 49 -7 31 -28 -10 -12 -8 -15 11 -16 13 0 33 -5 44 -10 14
-7 5 -8 -32 -5 -30 3 -53 1 -53 -4 0 -6 -4 -10 -10 -10 -5 0 -10 7 -10 15 0 8
-3 15 -8 15 -10 0 -55 -31 -64 -44 -14 -19 -9 -56 7 -56 8 0 15 -4 15 -10 0
-5 -4 -10 -10 -10 -5 0 -10 -16 -10 -35 0 -31 -3 -35 -22 -31 -112 19 -107 20
-113 -11 -4 -15 -8 -33 -10 -39 -3 -10 44 -64 56 -64 2 0 2 23 0 51 -2 36 0
49 8 45 6 -4 11 -22 11 -39 0 -55 11 -77 39 -83 14 -3 35 -9 46 -14 17 -7 15
-9 -13 -9 -46 -1 -107 32 -174 97 -45 43 -56 58 -47 69 17 19 31 16 24 -6 -3
-10 1 -24 10 -31 19 -16 19 -16 32 43 9 39 8 45 -3 36 -18 -15 -18 0 0 37 8
16 17 45 20 65 6 36 6 37 -38 48 -25 6 -59 11 -75 11 -33 0 -43 16 -13 22 9 2
42 -2 72 -9 30 -7 58 -12 61 -13 4 0 9 16 12 36 3 20 14 45 23 55 10 11 15 22
11 25 -3 3 -45 16 -94 29 -77 20 -90 21 -108 9 -37 -26 -45 -26 -78 -2 -27 20
-38 23 -72 17 -77 -15 -156 -10 -199 12 l-41 20 -167 -70 c-91 -39 -186 -74
-210 -77 -47 -7 -255 -82 -317 -113 -34 -18 -63 -61 -40 -61 5 0 9 -7 9 -15 0
-8 -5 -15 -11 -15 -8 0 -9 -28 -5 -92 3 -51 5 -121 5 -156 0 -35 3 -76 6 -93
6 -25 10 -28 31 -23 31 8 31 -9 -1 -22 l-24 -9 32 -70 c44 -96 43 -156 -2
-254 l-33 -72 7 -114 c4 -63 10 -115 14 -115 3 0 7 -41 7 -90 1 -50 -2 -90 -6
-90 -10 0 -17 56 -31 251 l-12 166 33 69 c45 93 45 162 -1 249 -17 33 -36 64
-43 68 -7 5 -7 10 -1 13 6 2 8 46 3 121 -4 65 -8 164 -9 220 l-3 101 -45 -18
c-98 -39 -146 -62 -152 -72 -9 -14 -3 -106 12 -178 6 -30 12 -73 13 -96 1 -32
11 -52 38 -86 42 -52 46 -68 28 -126 -12 -38 -11 -47 4 -79 9 -19 15 -38 12
-40 -15 -15 -47 17 -90 89 -28 46 -61 93 -75 105 -15 11 -23 24 -19 28 11 11
54 -27 82 -73 25 -42 26 -42 51 -26 42 27 41 49 -6 111 -37 49 -42 63 -41 105
0 29 -3 48 -10 48 -6 0 -33 -14 -60 -31 -46 -29 -177 -74 -187 -63 -9 9 15 22
64 33 55 14 171 74 177 93 2 6 1 28 -4 47 -4 20 -10 49 -13 64 -5 22 -10 27
-25 22 -21 -7 -28 9 -9 21 8 4 7 9 -2 15 -11 6 -10 9 4 15 25 9 21 24 -8 24
-15 0 -36 11 -49 24 l-22 25 -30 -20 c-16 -10 -46 -19 -67 -19 -35 0 -37 2
-31 25 5 21 1 26 -22 35 -23 9 -31 8 -40 -4 -15 -21 -21 -20 -26 2 -6 23 -75
37 -95 20 -14 -11 -17 0 -5 18 5 7 25 9 60 4 28 -3 52 -5 52 -3 0 12 -71 43
-99 43 -21 0 -44 9 -64 26 -23 19 -32 22 -38 12 -6 -10 -13 -8 -31 8 -13 11
-32 26 -42 34 -18 14 -19 13 -13 -2 3 -10 2 -20 -3 -23 -10 -6 -24 31 -16 44
4 5 3 16 0 25 -5 13 -13 11 -49 -14 -23 -16 -54 -43 -68 -60 -30 -35 -37 -37
-37 -9 0 11 4 18 9 15 4 -3 20 7 33 22 14 15 42 40 62 55 l36 28 -24 47 c-13
26 -35 58 -48 72 -12 13 -22 28 -21 32 2 4 -4 5 -12 2 -8 -4 -15 -10 -15 -15
0 -5 -4 -9 -10 -9 -5 0 -32 -13 -58 -30 -51 -31 -62 -35 -62 -22 0 4 21 19 48
34 65 38 105 75 96 91 -4 6 -15 21 -25 32 -9 11 -28 40 -41 64 -29 56 -45 61
-61 21 -24 -55 -92 -83 -150 -61 -23 9 -27 6 -51 -50 -15 -32 -31 -59 -37 -59
-12 0 -12 0 16 64 14 31 25 58 25 60 0 2 -21 9 -47 15 -45 12 -47 11 -82 -22
-20 -18 -55 -45 -78 -60 -24 -15 -43 -34 -43 -43 0 -8 26 -27 63 -44 217 -104
379 -192 418 -230 93 -89 187 -144 230 -135 23 5 26 3 22 -17 -3 -18 3 -27 26
-41 27 -16 42 -37 26 -37 -12 0 -104 51 -178 99 -44 27 -85 47 -92 45 -7 -3
-18 -17 -26 -31 -8 -14 -39 -48 -69 -75 l-55 -49 -3 -77 -4 -77 75 -48 c73
-46 77 -47 153 -47 73 0 80 2 100 27 29 37 38 26 12 -15 -20 -32 -21 -32 -99
-32 -44 0 -79 -4 -79 -10 0 -5 7 -7 15 -4 8 4 15 2 15 -2 0 -5 -29 -21 -65
-36 -36 -15 -65 -23 -65 -17 0 5 18 16 40 25 22 9 40 23 40 31 0 7 -36 37 -81
65 l-81 52 4 86 3 87 57 52 c31 29 67 68 79 87 l22 36 -39 40 c-31 32 -95 73
-166 106 -3 2 -16 -15 -29 -37 -12 -23 -26 -41 -31 -41 -13 0 -10 12 12 48 11
18 20 34 20 36 0 3 -66 39 -147 81 l-147 76 -40 -48 c-23 -26 -62 -71 -88 -99
-27 -28 -48 -56 -48 -62 0 -7 -6 -12 -13 -12 -8 0 -18 -10 -24 -22 -6 -13 -54
-77 -108 -143 -115 -143 -113 -140 -121 -133 -3 4 35 56 85 117 74 90 87 111
71 111 -18 0 -16 5 16 38 49 50 65 84 71 151 4 50 3 54 -10 39 -17 -22 -39
-24 -31 -3 4 8 1 15 -5 15 -11 0 -49 -57 -128 -195 -26 -44 -48 -74 -51 -67
-2 6 10 35 27 64 16 29 30 58 31 63 3 27 13 55 20 55 4 0 27 29 51 65 46 67
58 75 79 50 17 -20 30 -19 30 3 1 9 7 33 14 53 13 36 12 38 -26 79 -47 51 -43
65 7 21 20 -17 39 -31 43 -31 13 0 61 67 58 81 -9 54 -17 61 -55 54 -54 -10
-95 -6 -107 10 -13 17 -44 20 -44 5 0 -5 -7 -10 -15 -10 -8 0 -15 4 -15 9 0 5
-13 11 -29 14 -24 5 -30 13 -36 43 -4 26 -9 33 -15 24 -9 -15 4 -57 26 -81 8
-9 34 -22 57 -29 23 -6 51 -18 61 -26 36 -26 7 -26 -61 0 -73 28 -89 45 -113
120 l-12 39 -124 -5 c-68 -3 -124 -2 -124 2 0 9 103 20 185 20 60 0 63 1 75
29 16 41 44 63 128 107 64 32 78 45 103 90 30 52 59 85 59 67 0 -5 -11 -24
-24 -42 -13 -18 -29 -44 -35 -59 -7 -16 -32 -39 -61 -55 -28 -16 -50 -29 -50
-31 0 -3 44 2 97 10 42 6 88 46 115 98 12 22 23 35 25 29 7 -21 -40 -96 -74
-119 -19 -12 -57 -25 -90 -28 -79 -10 -121 -24 -133 -46 -15 -28 -12 -50 5
-44 34 14 293 -39 357 -72 27 -14 29 -14 60 23 18 21 49 54 68 75 20 20 34 41
32 48 -3 8 2 10 16 6 12 -4 34 0 53 9 l31 17 -29 31 c-46 49 -73 89 -68 97 5
8 -16 76 -35 115 -5 11 -19 45 -30 75 -11 30 -51 106 -90 168 -38 63 -70 118
-70 123 0 5 -6 9 -14 9 -8 0 -12 7 -10 18 3 10 -51 103 -138 237 -106 162
-153 226 -183 247 -48 33 -64 34 -138 8 -60 -21 -93 -19 -135 7 -36 22 -270
65 -317 58 -22 -3 -69 -15 -104 -25 -92 -29 -222 -22 -229 11 -3 17 -8 17 118
3 32 -4 62 1 100 15 30 12 80 24 110 28 59 7 70 14 70 53 0 68 19 97 120 187
l100 88 257 400 c287 446 307 480 298 495 -7 12 2 30 15 30 5 0 7 -13 5 -29z
m1145 19 c0 -5 -9 -10 -20 -10 -11 0 -20 5 -20 10 0 6 9 10 20 10 11 0 20 -4
20 -10z m-60 -10 c0 -5 -9 -10 -21 -10 -11 0 -17 5 -14 10 3 6 13 10 21 10 8
0 14 -4 14 -10z m-70 -20 c-19 -12 -30 -12 -30 -1 0 10 31 20 40 14 2 -2 -2
-8 -10 -13z m-50 -10 c0 -5 -12 -10 -26 -10 -14 0 -23 4 -19 10 3 6 15 10 26
10 10 0 19 -4 19 -10z m278 -77 c-10 -2 -28 -2 -40 0 -13 2 -5 4 17 4 22 1 32
-1 23 -4z m2552 -94 c0 -66 -17 -139 -33 -139 -5 0 -6 10 -2 23 3 12 9 57 12
100 7 92 23 103 23 16z m-203 -156 c-6 -16 -14 -30 -17 -33 -3 -3 -32 -48 -65
-100 -32 -52 -69 -109 -81 -125 -20 -27 -23 -45 -27 -155 -6 -202 -23 -223
-21 -27 2 166 2 168 30 205 15 20 35 44 44 53 9 9 42 59 74 113 56 91 90 128
63 69z m-2362 -33 c3 -5 1 -10 -4 -10 -6 0 -11 5 -11 10 0 6 2 10 4 10 3 0 8
-4 11 -10z m-120 -20 c3 -5 -1 -10 -9 -10 -9 0 -16 5 -16 10 0 6 4 10 9 10 6
0 13 -4 16 -10z m175 -20 c0 -5 -4 -10 -10 -10 -5 0 -10 5 -10 10 0 6 5 10 10
10 6 0 10 -4 10 -10z m-442 -253 c-15 -12 -39 -48 -54 -80 -17 -37 -49 -82
-90 -123 -35 -35 -64 -71 -64 -80 0 -8 -4 -13 -10 -9 -16 10 1 38 65 105 34
36 72 87 84 115 25 57 57 95 80 95 11 0 8 -7 -11 -23z m-161 -34 c-3 -10 -5
-4 -5 12 0 17 2 24 5 18 2 -7 2 -21 0 -30z m2713 -283 c0 -45 -26 -99 -52
-109 -13 -5 -43 -3 -73 4 -64 15 -275 104 -275 116 0 13 -3 14 117 -37 203
-87 253 -87 253 0 0 23 3 46 7 49 14 15 23 6 23 -23z m-4952 -221 c16 -26 5
-41 -12 -16 -10 13 -27 17 -69 17 -55 0 -137 -24 -137 -40 0 -5 -34 -45 -75
-90 -41 -45 -75 -85 -74 -88 0 -9 52 -50 72 -58 9 -3 24 7 38 26 61 78 71 90
80 90 5 0 -6 -21 -25 -47 -40 -55 -126 -142 -126 -127 0 5 5 15 11 21 14 14 7
26 -31 53 l-30 21 -17 -35 c-9 -20 -20 -36 -25 -36 -11 0 -10 7 7 40 8 16 12
36 9 44 -4 10 -1 16 9 16 9 0 20 6 24 14 4 8 42 53 83 100 83 96 118 114 220
115 46 1 57 -3 68 -20z m1652 -6 c0 -9 -114 -103 -125 -103 -14 0 2 19 54 64
53 44 71 54 71 39z m-1798 -234 c-18 -16 -38 -29 -45 -29 -6 1 6 16 27 35 22
19 42 32 45 29 3 -3 -9 -19 -27 -35z m4978 -19 c0 -5 -7 -10 -15 -10 -8 0 -15
5 -15 10 0 6 7 10 15 10 8 0 15 -4 15 -10z m-4440 -42 c0 -7 -5 -53 -11 -103
-6 -49 -11 -152 -10 -227 1 -88 -2 -138 -9 -138 -14 0 -13 225 1 367 7 62 16
113 20 113 5 0 9 -6 9 -12z m4548 -42 c26 -13 67 -45 92 -71 25 -25 83 -69
130 -98 128 -77 275 -191 301 -234 13 -21 28 -41 33 -45 6 -4 16 -33 22 -65
12 -57 46 -163 63 -194 5 -9 15 -43 21 -76 l12 -60 45 8 c24 5 60 16 79 25 43
20 126 103 117 117 -3 6 -1 7 5 3 6 -4 19 5 28 20 11 15 47 40 88 58 83 38
105 58 86 81 -19 23 -8 26 19 4 18 -15 21 -22 12 -32 -6 -8 -7 -17 -3 -21 4
-4 2 -6 -3 -5 -6 2 -44 -13 -86 -33 -59 -29 -87 -50 -133 -102 -32 -37 -79
-78 -104 -93 l-46 -27 41 -11 c45 -11 67 -25 40 -25 -9 0 -17 -3 -18 -7 -6
-92 -4 -103 13 -103 34 0 45 -49 20 -92 -9 -16 -25 -28 -37 -28 -32 -1 -59
-21 -113 -87 -52 -62 -72 -81 -72 -66 0 14 117 146 141 159 13 7 32 13 42 14
9 0 17 5 17 10 0 19 -60 47 -130 59 -38 7 -72 17 -76 22 -7 12 3 11 86 -6 40
-8 77 -12 83 -8 7 3 9 3 5 -2 -7 -8 19 -34 35 -35 17 0 5 31 -17 41 -20 9 -22
16 -17 43 3 17 5 45 3 63 -3 26 -8 33 -35 39 -34 8 -81 7 -109 -2 -13 -4 -18
6 -27 48 -6 29 -18 67 -25 83 -23 50 -66 191 -66 217 0 14 -10 36 -22 50 -13
14 -30 39 -39 55 -19 36 -177 157 -299 230 -47 29 -103 70 -125 93 -22 23 -61
53 -87 67 -27 15 -48 30 -48 35 0 12 6 10 58 -16z m-188 -88 c0 -14 -14 -8
-52 21 -21 15 -35 31 -31 34 6 7 82 -44 83 -55z m-2420 -165 c0 -7 -4 -13 -10
-13 -5 0 -10 12 -10 28 0 21 2 24 10 12 5 -8 10 -21 10 -27z m1468 -65 c-3 -7
-13 -15 -24 -17 -16 -3 -17 -1 -5 13 16 19 34 21 29 4z m-43 -76 c-3 -3 -13 2
-23 11 -15 16 -15 19 -2 27 11 7 17 4 23 -12 4 -11 5 -23 2 -26z m-2339 0
c-22 -23 -29 -10 -9 18 11 16 18 19 21 11 2 -7 -3 -20 -12 -29z m2292 -4 c-3
-7 -13 -15 -24 -17 -16 -3 -17 -1 -5 13 16 19 34 21 29 4z m177 -50 c9 -46 -2
-50 -17 -8 l-10 31 -33 -20 c-18 -11 -36 -17 -39 -13 -9 8 77 61 86 53 3 -3
10 -23 13 -43z m-1495 -23 c33 -17 38 -25 16 -25 -14 0 -67 39 -53 40 4 0 21
-7 37 -15z m-1870 -150 c0 -30 3 -35 24 -35 30 0 39 -22 21 -47 -9 -10 -14
-42 -15 -77 0 -41 -5 -65 -17 -78 -17 -19 -53 -25 -53 -8 0 6 9 10 20 10 21 0
24 9 35 95 4 28 11 58 16 67 7 13 4 17 -19 20 -24 3 -27 7 -30 46 -2 25 1 42
7 42 6 0 11 -16 11 -35z m1100 -69 c0 -4 -12 -5 -27 -1 -33 8 -29 4 -37 32
l-7 23 35 -23 c19 -12 35 -26 36 -31z m2880 -106 c8 -5 11 -12 7 -16 -4 -4
-15 0 -24 9 -18 18 -8 23 17 7z m2360 -140 c0 -5 -2 -10 -4 -10 -3 0 -8 5 -11
10 -3 6 -1 10 4 10 6 0 11 -4 11 -10z m-1380 -67 c0 -11 -186 -103 -207 -103
-10 0 27 25 82 54 98 53 125 63 125 49z m1500 -39 c0 -15 -76 -114 -88 -114
-15 0 -13 3 37 73 31 42 51 58 51 41z m-1752 -161 c29 -3 55 -9 58 -14 8 -13
-72 -11 -117 2 -35 11 -40 10 -76 -20 -55 -45 -66 -37 -13 10 35 31 50 39 70
34 14 -3 49 -9 78 -12z m-4418 -7 c0 -2 -59 -37 -131 -77 -138 -76 -361 -159
-429 -159 -39 0 -140 43 -140 60 0 14 5 13 42 -10 71 -44 94 -44 234 1 126 40
185 67 329 148 63 36 95 48 95 37z m4615 -87 c11 -17 -1 -21 -15 -4 -8 9 -8
15 -2 15 6 0 14 -5 17 -11z m-5405 -214 c0 -34 -340 -469 -348 -445 -3 9 56
84 204 261 39 46 84 108 100 136 25 46 44 66 44 48z m1830 -123 c0 -5 -7 -17
-15 -28 -15 -19 -20 -8 -9 20 6 17 24 22 24 8z m-470 -53 c0 -6 -4 -7 -10 -4
-5 3 -10 11 -10 16 0 6 5 7 10 4 6 -3 10 -11 10 -16z m3881 -147 c-11 -22 -32
-53 -46 -70 -15 -18 -23 -37 -19 -43 4 -8 3 -9 -4 -5 -6 4 -19 -5 -28 -19 -9
-14 -38 -40 -63 -57 -101 -68 -122 -103 -77 -128 27 -14 45 -48 72 -133 14
-47 22 -59 43 -64 14 -3 43 -17 63 -31 38 -25 108 -107 108 -127 0 -6 14 -24
31 -41 34 -33 65 -84 50 -84 -6 0 -16 10 -22 22 -7 13 -23 31 -36 41 -13 11
-32 33 -41 51 -37 69 -57 94 -97 120 -23 14 -49 26 -58 26 -23 0 -53 43 -66
97 -16 64 -34 95 -62 110 -20 10 -25 8 -50 -26 -35 -49 -60 -97 -53 -104 3 -3
-7 -17 -21 -32 -15 -14 -30 -24 -33 -20 -7 7 49 114 86 164 l25 34 -26 21
c-15 12 -27 26 -27 32 0 6 -11 21 -25 34 -14 13 -25 28 -25 34 0 6 22 -11 48
-37 26 -26 52 -47 58 -47 6 0 24 15 40 33 16 17 51 46 76 64 47 32 106 104
162 199 33 56 47 45 17 -14z m-2650 -45 c-13 -13 -26 -3 -16 12 3 6 11 8 17 5
6 -4 6 -10 -1 -17z m-1387 -88 l-38 -52 35 -28 c19 -16 37 -29 42 -29 19 0 3
-49 -48 -144 -30 -56 -55 -105 -55 -108 0 -4 19 -17 43 -31 51 -30 97 -77 76
-77 -8 0 -22 8 -31 19 -8 10 -61 44 -117 76 -56 31 -104 61 -107 66 -11 19 24
8 69 -21 l47 -30 55 110 c30 60 55 113 55 117 0 5 -18 20 -40 36 l-39 27 -69
-82 c-57 -70 -275 -338 -304 -374 -4 -6 -6 -18 -3 -27 9 -23 185 -150 266
-193 39 -21 83 -49 97 -64 22 -21 111 -91 156 -122 6 -4 8 -10 4 -13 -3 -4
-40 18 -81 49 -40 31 -77 56 -81 56 -5 0 -17 11 -27 24 -10 13 -42 35 -71 49
-59 27 -201 127 -253 176 l-34 32 -177 -218 c-98 -120 -223 -272 -277 -338
-55 -65 -95 -120 -91 -121 5 -1 21 -5 37 -8 45 -10 31 -23 -20 -19 l-48 4 -85
-107 c-47 -59 -97 -119 -112 -134 -14 -15 -59 -65 -99 -111 -68 -80 -89 -99
-89 -84 0 7 153 191 175 210 23 20 525 637 525 645 0 11 -46 40 -64 40 -32 0
-23 23 52 132 43 62 105 153 137 201 32 49 82 107 110 130 27 23 87 75 133
115 46 41 86 71 89 68 7 -6 -108 -116 -198 -189 -41 -33 -90 -96 -182 -231
-70 -102 -127 -189 -127 -193 0 -9 69 -58 74 -52 2 2 124 153 271 334 355 437
437 535 448 535 5 0 -8 -23 -29 -51z m4726 -52 c16 -33 30 -66 30 -74 0 -26
-16 -12 -29 25 -7 20 -24 54 -37 74 -28 43 -32 67 -9 48 8 -6 28 -39 45 -73z
m-3680 -33 c0 -34 -4 -53 -10 -49 -5 3 -10 28 -10 56 0 27 5 49 10 49 6 0 10
-25 10 -56z m134 -178 c18 -39 20 -62 6 -71 -6 -3 -10 4 -10 17 0 13 -7 36
-15 52 -17 33 -18 36 -6 36 5 0 16 -15 25 -34z m936 -200 c0 -2 -9 -6 -20 -9
-11 -3 -20 -1 -20 4 0 5 9 9 20 9 11 0 20 -2 20 -4z m190 -68 c0 -7 -12 -26
-26 -42 -18 -21 -28 -26 -36 -18 -8 8 -3 19 18 40 32 33 44 38 44 20z m-1245
-37 c3 -5 2 -12 -3 -15 -5 -3 -9 1 -9 9 0 17 3 19 12 6z m1151 -48 c-10 -10
-19 5 -10 18 6 11 8 11 12 0 2 -7 1 -15 -2 -18z m190 -70 c-9 -9 -56 42 -56
60 0 6 14 -3 32 -20 18 -18 28 -36 24 -40z m-1261 48 c3 -5 2 -12 -3 -15 -5
-3 -9 1 -9 9 0 17 3 19 12 6z m3830 -11 c3 -6 10 -48 15 -95 5 -47 11 -89 15
-95 10 -17 75 -29 102 -19 30 11 46 3 40 -22 -6 -21 21 -34 67 -30 41 2 137
-19 131 -29 -3 -4 -22 -4 -42 1 -21 5 -59 9 -85 9 -26 0 -58 4 -72 10 -21 8
-28 5 -45 -15 -10 -14 -26 -25 -35 -25 -40 0 -43 -79 -9 -233 8 -37 13 -73 10
-80 -9 -23 -29 48 -45 160 -14 106 -14 114 2 152 l18 39 -31 45 c-26 36 -33
58 -40 123 -5 43 -12 87 -16 97 -8 18 9 24 20 7z m-2781 -32 c-3 -13 -10 -30
-15 -38 -7 -13 -8 -13 -9 0 0 27 12 60 22 60 5 0 6 -10 2 -22z m223 -124 c-9
-10 -38 16 -31 28 4 6 13 4 22 -6 9 -8 13 -19 9 -22z m33 -29 c11 -13 9 -20
-10 -40 -31 -33 -47 -32 -21 1 16 21 18 30 10 40 -7 9 -7 14 -1 14 5 0 15 -7
22 -15z m-3618 -21 c-38 -26 -122 -50 -122 -35 0 6 17 15 38 21 20 6 48 17 62
24 31 18 49 9 22 -10z m3522 -24 c12 -12 -19 -13 -48 -1 -11 4 -51 2 -90 -5
-39 -7 -73 -10 -75 -8 -10 9 13 18 76 29 67 11 116 6 137 -15z m-351 -44 c9
-23 -19 -41 -38 -26 -9 7 -13 15 -10 18 2 3 12 -1 21 -9 15 -12 16 -11 10 9
-8 24 8 31 17 8z m-53 -41 c20 -24 6 -28 -15 -5 -10 11 -13 20 -8 20 6 0 16
-7 23 -15z m-3305 -45 c10 -11 15 -20 11 -20 -14 0 -46 21 -46 30 0 16 16 11
35 -10z m1573 -54 c23 -25 48 -46 54 -46 6 0 54 -29 107 -64 97 -64 239 -140
333 -177 35 -14 81 -49 154 -117 57 -53 104 -104 104 -113 0 -28 -33 -46 -95
-53 -94 -10 -206 9 -385 64 -147 45 -311 78 -515 104 -85 11 -429 87 -439 97
-15 14 -7 12 189 -30 99 -21 198 -41 220 -45 290 -41 391 -62 558 -113 163
-50 193 -57 293 -61 114 -4 154 4 154 33 0 7 -44 55 -99 105 -91 85 -108 96
-232 152 -116 52 -224 115 -308 180 -13 10 -31 18 -40 18 -16 0 -131 108 -131
123 0 15 37 -12 78 -57z m1905 -48 c4 -12 4 -24 1 -27 -6 -7 -24 20 -24 37 0
21 17 13 23 -10z m8 -94 c11 -13 29 -273 29 -429 0 -66 4 -124 8 -130 12 -16
121 -19 127 -3 2 7 11 39 20 71 18 64 32 74 31 23 -1 -19 -4 -32 -8 -29 -5 2
-8 -4 -8 -14 0 -10 -9 -34 -20 -53 -22 -38 -70 -138 -70 -145 0 -3 7 -5 16 -5
9 0 39 -24 68 -54 29 -29 77 -71 107 -91 30 -21 77 -55 104 -76 28 -21 78 -50
110 -65 34 -16 53 -29 44 -31 -25 -6 -99 31 -179 90 -41 30 -76 51 -78 46 -2
-5 -8 -9 -14 -9 -6 0 -8 7 -4 15 7 18 -10 27 -97 50 -37 10 -71 23 -74 28 -6
10 4 9 83 -8 26 -6 23 -1 -30 49 -32 30 -61 55 -65 54 -20 -2 -18 8 9 62 l30
60 -90 0 c-53 0 -90 4 -90 10 0 6 9 10 19 10 16 0 20 10 26 63 4 35 2 80 -3
100 -7 24 -7 37 0 39 9 3 1 188 -17 393 -2 22 -1 29 2 15 3 -14 9 -30 14 -36z
m-798 3 c4 -12 -115 -167 -128 -167 -14 0 1 23 54 85 32 38 56 75 54 82 -3 7
-1 13 5 13 5 0 12 -6 15 -13z m-2608 -181 c-15 -25 -31 -46 -36 -46 -11 0 16
56 39 83 26 30 25 10 -3 -37z m3815 -116 c0 -4 -7 -11 -16 -14 -8 -3 -12 -11
-8 -17 4 -8 3 -9 -4 -5 -12 7 -126 -46 -137 -64 -3 -5 -11 -10 -17 -10 -23 0
29 43 94 77 37 19 65 39 62 44 -3 5 2 6 10 3 9 -3 16 -10 16 -14z m1519 -47
c6 -10 11 -14 11 -9 0 17 30 -17 30 -35 0 -11 22 -32 55 -55 31 -20 61 -44 68
-53 6 -10 20 -20 30 -24 9 -3 17 -11 17 -16 0 -37 -162 81 -208 151 -18 26
-32 50 -32 53 0 12 20 4 29 -12z m-2017 -48 c5 -6 8 -5 8 3 0 18 27 15 34 -4
8 -21 -1 -34 -25 -34 -10 0 -19 -4 -19 -10 0 -5 7 -10 15 -10 8 0 15 -4 15 -8
0 -5 12 -14 26 -21 15 -6 24 -14 21 -18 -9 -8 -67 17 -67 29 0 6 -8 7 -17 4
-20 -8 -33 10 -33 48 0 21 -4 27 -15 22 -8 -3 -15 -1 -15 5 0 13 62 8 72 -6z
m177 -434 c-15 -5 -22 6 -14 19 6 9 10 9 16 -1 5 -8 4 -15 -2 -18z m-3870 -37
c2 -2 2 -7 -2 -10 -8 -9 -47 6 -47 17 0 9 37 3 49 -7z m5765 -216 c5 -22 1
-30 -28 -47 -38 -24 -46 -26 -46 -11 0 6 11 16 25 22 16 7 25 19 25 33 0 12 3
25 7 28 8 9 9 8 17 -25z m-687 -244 c-6 -7 -99 89 -106 110 -2 6 23 -15 55
-46 32 -32 55 -60 51 -64z"/>
<path d="M3126 5385 l-77 -67 22 -24 22 -23 29 24 c16 14 33 25 36 25 9 -1 89
-101 133 -167 l36 -54 37 41 c20 22 36 47 36 55 0 14 -29 56 -100 149 -8 11
-33 40 -56 64 l-40 45 -78 -68z"/>
<path d="M3456 5398 c-10 -32 -16 -98 -8 -98 26 0 43 28 40 65 -3 38 -24 60
-32 33z"/>
<path d="M3001 5276 l-22 -23 47 -56 c47 -58 58 -65 69 -47 3 6 14 10 23 10
13 0 12 -4 -7 -19 l-24 -19 47 -66 c47 -66 82 -95 95 -79 4 4 25 30 46 56 l39
49 -18 32 c-9 18 -44 67 -77 109 l-60 77 -29 -21 c-16 -12 -26 -28 -23 -35 3
-10 0 -12 -10 -8 -20 7 -32 -13 -17 -31 8 -10 9 -15 2 -15 -6 0 -13 4 -17 10
-3 5 -12 7 -20 3 -25 -9 -17 15 10 33 20 13 23 19 13 31 -25 30 -44 33 -67 9z"/>
<path d="M3462 5288 c-25 -12 -37 -45 -30 -83 4 -17 1 -25 -8 -25 -8 0 -14 -5
-14 -12 0 -7 -16 -28 -35 -48 l-35 -36 30 -41 c22 -30 29 -48 25 -69 -12 -75
-18 -94 -27 -94 -5 0 -7 12 -4 28 6 23 2 29 -21 39 -36 14 -98 25 -105 17 -4
-3 21 -33 54 -67 33 -34 71 -79 85 -99 14 -21 28 -38 32 -38 3 0 21 9 39 20
28 17 32 23 22 35 -14 17 1 20 17 4 20 -20 37 1 18 21 -13 14 -13 19 -3 22 11
4 10 8 -1 22 -8 9 -11 19 -8 23 11 10 37 -18 37 -41 1 -11 7 -32 16 -46 14
-23 14 -20 9 50 -3 41 -10 104 -15 140 -5 36 -14 106 -20 155 -18 147 -16 143
-58 123z m-42 -458 c0 -5 -2 -10 -4 -10 -3 0 -8 5 -11 10 -3 6 -1 10 4 10 6 0
11 -4 11 -10z"/>
<path d="M3387 5254 c19 -29 23 -30 23 -5 0 10 -9 21 -20 24 -18 5 -18 4 -3
-19z"/>
<path d="M2950 5226 c0 -7 17 -26 37 -42 37 -28 36 -23 -1 29 -22 29 -36 35
-36 13z"/>
<path d="M4845 5110 c-3 -5 -1 -10 4 -10 6 0 11 5 11 10 0 6 -2 10 -4 10 -3 0
-8 -4 -11 -10z"/>
<path d="M3076 5069 c-11 -57 -14 -237 -4 -247 8 -8 7 -16 -2 -27 -12 -15 -38
-340 -39 -502 l-1 -51 61 -7 c75 -9 69 -17 -13 -19 l-63 -1 0 -34 0 -34 125
-33 c69 -18 126 -33 128 -34 1 0 2 33 1 73 -1 61 13 181 70 592 l8 59 -49 57
c-27 32 -67 70 -89 85 -21 15 -59 54 -84 87 -40 54 -44 57 -49 36z"/>
<path d="M3320 5065 c0 -6 14 -28 30 -49 17 -22 30 -33 30 -25 -1 8 -14 30
-30 49 -17 19 -30 30 -30 25z"/>
<path d="M5100 5059 c0 -5 5 -7 10 -4 6 3 10 8 10 11 0 2 -4 4 -10 4 -5 0 -10
-5 -10 -11z"/>
<path d="M3296 5009 c-16 -23 -16 -24 1 -27 10 -2 28 -8 40 -14 34 -17 35 -7
4 31 l-28 34 -17 -24z"/>
<path d="M2541 4999 c-118 -33 -231 -119 -347 -262 l-65 -80 33 -28 c38 -32
48 -35 48 -14 0 8 9 24 20 35 11 11 17 20 13 20 -5 0 0 5 10 11 9 6 15 14 12
20 -4 5 0 9 8 9 18 0 47 32 47 53 0 9 7 17 15 17 8 0 14 6 12 13 -1 6 4 11 12
9 17 -4 61 36 61 55 0 8 5 11 10 8 6 -3 13 1 16 9 5 13 9 13 32 -3 15 -11 43
-22 62 -25 l35 -6 18 86 c10 48 17 87 15 88 -2 1 -32 -6 -67 -15z"/>
<path d="M1577 4903 c22 -17 90 -16 128 2 28 13 25 14 -57 12 -73 -2 -85 -4
-71 -14z"/>
<path d="M2474 4824 c4 -11 2 -15 -7 -11 -7 2 -25 -6 -41 -18 l-29 -23 61 -31
c90 -45 92 -44 107 39 6 34 5 35 -34 48 -54 16 -64 15 -57 -4z"/>
<path d="M2651 4816 c-9 -11 -10 -20 -1 -35 18 -34 37 -26 32 14 -5 38 -13 43
-31 21z"/>
<path d="M2399 4803 c-13 -16 -12 -17 4 -4 16 13 21 21 13 21 -2 0 -10 -8 -17
-17z"/>
<path d="M3434 4749 l-80 -52 -33 -241 c-32 -234 -37 -332 -23 -446 6 -50 9
-55 33 -58 23 -3 28 2 36 37 9 34 8 41 -6 46 -13 6 -12 8 7 16 21 8 24 16 26
74 1 11 7 20 13 20 6 0 25 18 41 41 16 22 51 58 77 80 26 21 57 48 69 59 l22
20 -14 135 -15 135 -75 -4 c-53 -2 -73 0 -68 8 4 6 30 11 58 11 l51 0 -7 38
c-3 20 -6 58 -6 85 0 31 -4 47 -12 47 -7 0 -49 -23 -94 -51z"/>
<path d="M3364 4757 c-8 -21 2 -35 16 -21 5 5 6 15 0 24 -8 12 -10 12 -16 -3z"/>
<path d="M2341 4719 c-21 -21 -44 -39 -49 -39 -15 0 -62 -70 -62 -92 0 -16
171 -177 211 -199 16 -8 20 -3 30 33 46 172 68 253 66 254 -1 1 -37 20 -79 42
l-78 40 -39 -39z"/>
<path d="M3562 4720 c0 -19 4 -46 8 -60 8 -24 8 -24 8 5 0 17 -4 44 -8 60 l-8
30 0 -35z"/>
<path d="M2600 4730 c0 -5 5 -10 10 -10 6 0 10 5 10 10 0 6 -4 10 -10 10 -5 0
-10 -4 -10 -10z"/>
<path d="M2593 4695 c0 -8 6 -15 13 -15 7 0 18 -2 26 -3 7 -2 10 -2 5 0 -4 3
-5 9 -1 14 3 5 1 9 -5 9 -5 0 -16 2 -24 5 -8 4 -14 0 -14 -10z"/>
<path d="M2547 4613 c-9 -34 -12 -59 -6 -61 13 -5 11 -23 -2 -19 -8 1 -56
-137 -59 -170 0 -5 203 -173 210 -173 14 0 30 70 30 130 0 30 -7 116 -17 191
l-17 137 -48 6 c-27 4 -54 9 -61 12 -9 3 -19 -14 -30 -53z"/>
<path d="M2092 4610 l-22 -30 50 -77 c28 -43 59 -96 69 -118 10 -22 50 -94 90
-159 39 -66 71 -125 71 -132 0 -6 6 -17 13 -23 15 -12 29 27 67 189 l21 85
-43 35 c-23 19 -69 60 -103 91 -33 30 -90 81 -126 112 l-66 56 -21 -29z"/>
<path d="M3702 4341 c-29 -10 -55 -21 -58 -24 -4 -3 1 -70 11 -149 9 -79 19
-164 22 -190 7 -56 8 -57 158 -58 61 0 153 -4 205 -9 52 -5 101 -5 109 -1 8 4
23 3 34 -4 15 -8 21 -8 24 0 2 7 13 10 23 7 17 -5 20 0 20 29 0 42 -25 129
-52 183 -24 46 -118 147 -162 174 -94 58 -237 76 -334 42z"/>
<path d="M2446 4220 c-14 -61 -33 -127 -41 -147 -8 -19 -15 -44 -15 -55 0 -39
36 -141 61 -170 l25 -31 54 84 c29 46 55 78 58 71 2 -7 -20 -49 -49 -93 -47
-72 -51 -82 -37 -96 14 -13 18 -13 44 4 23 14 50 18 141 20 62 1 116 4 122 7
5 3 11 2 13 -3 1 -5 55 -11 118 -15 63 -4 169 -11 235 -16 65 -5 121 -8 122
-6 2 2 -6 15 -18 30 -28 35 -14 49 14 15 43 -51 54 -45 61 33 3 39 4 74 0 77
-3 3 -85 10 -182 14 -97 5 -191 10 -209 13 -38 6 -201 112 -226 148 -15 22
-220 198 -254 219 -8 5 -19 -27 -37 -103z"/>
<path d="M3563 4274 c-50 -33 -123 -115 -123 -138 0 -6 47 -35 105 -64 88 -43
105 -49 105 -34 0 22 -30 265 -33 268 -1 1 -25 -14 -54 -32z"/>
<path d="M3016 4091 c-3 -20 -6 -54 -6 -77 l0 -41 92 -7 c50 -3 111 -6 135 -6
l43 0 0 38 c0 20 -5 44 -10 52 -5 8 -63 28 -129 45 l-119 31 -6 -35z"/>
<path d="M3412 4085 c-7 -14 -12 -30 -12 -34 0 -8 222 -71 248 -71 31 0 3 20
-103 73 -63 31 -117 57 -119 57 -1 0 -8 -11 -14 -25z"/>
<path d="M3388 3990 c-3 -17 -2 -32 1 -34 16 -10 271 -17 271 -8 0 8 -229 72
-259 72 -5 0 -11 -14 -13 -30z"/>
<path d="M4697 3936 c-50 -23 -66 -35 -61 -46 17 -39 25 -104 22 -175 -4 -112
-23 -106 -24 8 0 91 -16 167 -35 167 -15 0 -85 -37 -200 -106 -59 -35 -116
-64 -127 -64 -12 0 -24 -5 -28 -11 -8 -13 14 -29 30 -23 7 3 38 -5 71 -16 42
-14 61 -17 66 -9 5 8 9 7 15 -4 11 -19 188 -71 192 -57 5 15 32 12 32 -4 0
-13 117 -56 153 -56 18 0 67 39 50 40 -27 0 -12 20 15 20 35 0 72 37 72 73 0
19 -12 36 -44 63 -48 40 -53 48 -92 149 -14 39 -29 73 -33 76 -3 3 -36 -8 -74
-25z m73 -136 c0 -5 -4 -10 -10 -10 -5 0 -10 5 -10 10 0 6 5 10 10 10 6 0 10
-4 10 -10z"/>
<path d="M3375 3855 c-4 -42 -5 -79 -2 -81 3 -3 49 8 103 25 54 17 102 31 106
31 16 0 8 -18 -10 -23 -20 -5 -32 -44 -32 -102 0 -27 6 -37 36 -55 l35 -22 29
27 c19 18 35 25 46 21 15 -6 15 -4 3 11 -13 15 -12 16 6 9 11 -5 28 -11 38
-13 9 -3 17 -11 17 -18 0 -8 8 -11 20 -8 15 4 19 1 15 -9 -4 -9 4 -19 20 -26
28 -13 36 -39 8 -27 -10 4 -27 8 -38 9 -35 3 -65 17 -65 31 0 27 -39 24 -64
-6 l-25 -29 -33 19 -33 20 -37 -35 c-21 -19 -38 -39 -38 -44 0 -13 67 -13 75
0 10 16 36 -9 31 -29 -2 -9 -7 -42 -11 -73 -3 -32 -11 -58 -17 -58 -7 0 -8 14
-4 39 4 27 2 41 -7 44 -9 4 -9 7 0 14 7 5 9 14 4 21 -6 10 -30 12 -105 6 -81
-6 -96 -9 -96 -24 0 -9 -3 -19 -6 -23 -3 -3 -7 -66 -9 -139 -3 -134 -10 -182
-26 -157 -5 9 -14 2 -29 -24 -12 -20 -26 -37 -32 -37 -23 0 5 -18 37 -24 53
-10 42 -26 -14 -20 -46 4 -49 3 -72 -31 -18 -26 -31 -35 -53 -35 -46 0 -14
-28 42 -36 26 -4 56 -13 67 -20 30 -22 34 -18 41 46 4 33 11 60 16 60 7 0 8
-25 3 -67 -5 -55 -4 -66 6 -55 20 18 27 15 22 -12 -4 -17 0 -25 16 -29 14 -3
21 0 21 8 0 8 5 17 11 21 9 5 10 -1 5 -20 -7 -29 -5 -30 59 -27 30 2 45 -3 59
-18 28 -30 70 -35 121 -14 26 10 45 25 45 33 0 9 16 22 38 29 74 26 152 65
152 77 0 6 -7 31 -15 54 -8 23 -15 54 -15 69 0 25 -1 25 -40 -17 -38 -41 -60
-47 -60 -18 0 8 -7 19 -16 27 -11 9 -15 27 -12 65 2 40 0 50 -11 46 -10 -4
-12 1 -7 15 4 12 1 25 -9 33 -8 7 -15 20 -16 29 0 12 -2 11 -9 -4 -5 -11 -9
-15 -9 -10 -1 6 -6 3 -11 -5 -14 -21 -12 -84 3 -99 10 -10 9 -15 -5 -25 -19
-14 -26 -52 -8 -41 6 3 10 -1 10 -10 0 -9 -4 -13 -10 -10 -13 8 -13 -8 -1 -20
12 -12 2 -107 -10 -99 -5 3 -9 20 -9 38 l0 33 -82 6 c-94 7 -128 15 -128 29 0
6 25 7 65 3 l65 -7 0 75 c0 43 5 79 11 82 7 5 10 -19 7 -79 l-3 -86 27 0 c19
0 27 5 27 18 0 46 22 200 32 224 7 17 16 25 25 21 10 -4 12 0 8 11 -5 12 1 18
24 22 19 4 32 14 36 28 9 33 7 36 -14 36 -25 0 -26 12 -2 33 24 22 32 21 32
-3 0 -14 7 -20 23 -20 28 0 47 35 47 85 0 25 4 35 16 35 16 0 15 -26 -2 -197
-6 -55 0 -65 35 -56 21 5 22 10 21 87 -2 96 -1 109 10 76 12 -38 12 -292 0
-285 -5 3 -10 29 -10 56 0 43 -3 50 -17 47 -20 -4 -21 -20 -8 -103 5 -27 14
-54 22 -58 11 -7 11 -10 -1 -22 -12 -13 -12 -21 4 -62 11 -28 24 -47 32 -45 7
2 46 18 87 37 76 36 91 41 91 27 0 -8 -146 -77 -212 -101 -16 -6 -28 -17 -28
-26 0 -13 5 -13 38 3 61 31 253 100 311 111 47 10 202 70 338 132 23 11 48 18
55 17 8 -2 13 7 13 22 0 20 -10 30 -49 50 -48 25 -62 40 -104 110 l-21 35 -11
-30 c-13 -37 -37 -53 -221 -148 l-146 -75 14 -26 c8 -15 13 -35 11 -44 -2 -10
-14 6 -31 42 -25 54 -27 68 -27 191 0 73 -3 153 -6 179 -6 40 -10 46 -30 46
-30 0 -31 18 -1 25 20 5 22 11 18 53 -2 26 -8 50 -14 54 -7 4 -5 11 5 21 18
18 216 29 222 12 2 -5 8 6 13 25 9 30 8 37 -11 52 -19 15 -23 15 -38 2 -15
-14 -17 -14 -27 4 -6 11 -7 22 -4 26 3 3 -6 6 -20 6 -17 0 -27 -5 -27 -15 0
-8 -7 -15 -15 -15 -8 0 -15 3 -15 8 1 12 27 43 36 41 28 -5 44 3 44 21 0 25
18 21 -175 34 -210 14 -285 14 -285 -1 0 -33 31 -83 67 -107 33 -23 39 -24 49
-11 16 22 26 18 19 -7 -7 -20 -5 -21 39 -15 25 4 58 14 71 23 30 20 47 10 19
-11 -23 -18 -80 -35 -115 -35 -34 0 -113 44 -139 77 -11 14 -25 43 -31 64 -13
42 4 38 -210 54 l-77 6 -7 -76z m687 -47 c-9 -9 -12 -7 -12 12 0 19 3 21 12
12 9 -9 9 -15 0 -24z m-462 -127 c0 -5 -7 -11 -15 -15 -15 -5 -20 5 -8 17 9
10 23 9 23 -2z m363 -71 c3 -11 1 -20 -4 -20 -5 0 -9 5 -9 10 0 6 -12 10 -26
10 -14 0 -23 4 -19 10 11 18 52 11 58 -10z m-249 -16 c4 -9 13 -14 21 -10 17
6 21 -9 5 -19 -6 -4 -8 -10 -5 -15 3 -4 -11 -10 -30 -12 -39 -4 -39 -4 -24 41
12 34 24 40 33 15z m256 -284 c0 -97 -3 -151 -10 -144 -5 5 -9 77 -10 159 -1
183 -2 173 10 155 5 -8 10 -85 10 -170z m-404 13 c-7 -59 -11 -71 -22 -60 -10
10 6 117 18 117 7 0 9 -19 4 -57z m81 -125 c-3 -7 -5 -2 -5 12 0 14 2 19 5 13
2 -7 2 -19 0 -25z"/>
<path d="M4202 3848 c-7 -26 -5 -34 7 -40 28 -12 31 -9 31 32 0 50 -25 55 -38
8z"/>
<path d="M2598 3783 c-40 -6 -55 -29 -33 -53 9 -10 23 -16 31 -13 8 3 14 -1
14 -11 0 -16 38 -42 48 -32 3 3 0 6 -7 6 -7 0 -9 5 -6 10 4 6 11 7 17 4 6 -4
13 -2 17 4 3 6 11 0 18 -14 9 -20 9 -24 -4 -24 -14 0 -13 -3 2 -20 22 -25 32
-25 38 -2 3 11 5 8 6 -9 0 -15 10 -37 20 -50 19 -23 24 -24 177 -26 86 -1 209
-3 272 -5 l115 -3 9 34 c7 25 6 36 -4 42 -9 7 -10 11 -2 17 7 4 13 28 15 54
l4 46 -70 6 c-126 11 -347 26 -480 31 -71 3 -139 7 -150 9 -11 1 -32 1 -47 -1z
m385 -108 c34 -8 97 -18 140 -21 42 -3 77 -10 77 -16 0 -15 -168 -2 -246 19
-40 11 -64 22 -64 31 0 9 6 12 16 8 8 -3 43 -13 77 -21z m-75 -58 c2 -10 -3
-17 -12 -17 -10 0 -16 9 -16 21 0 24 23 21 28 -4z"/>
<path d="M3463 3778 c-23 -8 -31 -16 -30 -32 1 -20 14 -35 28 -36 4 0 10 10
14 23 7 20 8 19 12 -10 6 -44 33 -53 33 -10 0 18 3 42 6 55 7 25 -8 27 -63 10z"/>
<path d="M2517 3722 c-3 -4 23 -22 56 -41 l62 -33 -45 41 c-44 39 -64 49 -73
33z"/>
<path d="M3366 3708 c-9 -37 -7 -66 7 -71 9 -4 9 -8 -1 -15 -8 -5 -14 -25 -15
-43 -2 -30 1 -34 24 -37 l26 -3 2 87 c1 62 -2 90 -11 96 -20 12 -25 10 -32
-14z"/>
<path d="M2415 3676 c-23 -18 -30 -33 -31 -62 -1 -22 -5 -65 -8 -96 -4 -51 -3
-58 15 -63 11 -4 22 -5 25 -2 2 2 10 42 16 88 6 46 15 88 20 94 12 14 9 -62
-5 -132 l-13 -61 55 -16 c31 -8 75 -21 99 -28 38 -11 47 -10 77 7 22 11 38 29
42 44 3 14 10 31 15 37 13 17 -10 59 -39 75 -14 7 -31 25 -38 40 -14 26 -51
45 -57 29 -4 -10 -58 -1 -58 10 0 4 10 11 22 17 22 9 21 10 -12 21 -19 7 -46
10 -60 7 -13 -2 -27 0 -30 5 -3 5 -19 -1 -35 -14z"/>
<path d="M3428 3638 c-4 -74 0 -100 16 -95 17 5 29 126 15 143 -21 25 -27 15
-31 -48z"/>
<path d="M4030 3689 c0 -5 9 -9 21 -9 11 0 18 -4 14 -10 -3 -5 -12 -7 -20 -3
-21 7 -21 -70 0 -87 18 -15 45 -6 45 15 0 8 6 15 13 15 15 0 94 66 87 73 -10
9 -160 15 -160 6z m96 -56 c-4 -4 -11 -1 -16 7 -16 25 -11 35 7 17 9 -9 13
-20 9 -24z"/>
<path d="M4960 3669 c0 -20 -8 -42 -22 -56 -24 -26 -23 -29 13 -38 25 -6 28
-3 43 40 13 41 13 45 0 35 -18 -16 -31 -5 -15 13 9 11 8 17 -4 27 -13 11 -15
8 -15 -21z"/>
<path d="M1841 3654 c0 -11 3 -14 6 -6 3 7 2 16 -1 19 -3 4 -6 -2 -5 -13z"/>
<path d="M3486 3638 c-8 -41 -4 -43 23 -14 22 24 23 24 3 35 -17 9 -20 7 -26
-21z"/>
<path d="M4191 3652 c-29 -24 -22 -52 13 -52 35 0 44 -20 9 -21 -15 0 -22 -3
-15 -6 22 -9 13 -25 -10 -18 -21 6 -21 6 -8 -8 8 -9 66 -34 128 -55 l112 -40
0 83 0 82 -70 22 c-102 33 -131 35 -159 13z"/>
<path d="M2656 3616 c3 -8 22 -27 42 -42 l37 -27 -40 41 c-43 46 -47 49 -39
28z"/>
<path d="M1885 3609 c-4 -5 -4 -21 -1 -35 6 -22 11 -24 72 -24 53 0 65 -3 61
-14 -7 -19 50 -33 66 -17 6 6 24 11 39 11 22 0 33 -8 46 -30 9 -16 20 -30 24
-30 3 0 18 14 33 32 25 30 26 32 8 49 -42 40 -330 89 -348 58z"/>
<path d="M2341 3601 c-6 -10 -7 -22 -3 -26 4 -5 2 -5 -5 -1 -6 3 -19 -3 -27
-16 -15 -20 -14 -24 6 -45 28 -30 42 -29 34 1 -3 13 -2 26 3 28 14 5 25 78 12
78 -5 0 -15 -8 -20 -19z"/>
<path d="M4434 3588 c3 -13 6 -44 6 -70 0 -38 4 -50 22 -59 16 -9 23 -9 26 0
7 20 40 12 67 -16 27 -30 34 -21 10 11 -8 11 -15 30 -15 43 0 18 -6 23 -25 23
-24 0 -35 15 -16 22 4 2 11 13 15 25 6 19 2 23 -31 32 -57 16 -66 14 -59 -11z"/>
<path d="M4100 3580 c0 -9 32 -30 46 -30 4 0 -1 9 -11 20 -19 21 -35 26 -35
10z"/>
<path d="M4563 3550 c4 -18 7 -43 7 -57 0 -20 3 -22 19 -13 28 14 30 13 28
-17 -2 -27 0 -28 37 -25 26 3 56 17 88 40 45 34 47 37 26 43 -13 4 -58 16
-100 28 -42 12 -84 24 -94 28 -15 5 -16 2 -11 -27z"/>
<path d="M4860 3548 c-27 -22 -28 -21 32 -37 51 -14 68 -10 68 18 0 13 -11 21
-38 28 -32 8 -42 7 -62 -9z"/>
<path d="M4050 3539 c0 -5 5 -7 10 -4 6 3 10 8 10 11 0 2 -4 4 -10 4 -5 0 -10
-5 -10 -11z"/>
<path d="M2885 3523 c-70 -4 -85 -12 -85 -47 0 -14 6 -17 24 -14 22 4 25 1 28
-26 2 -25 7 -31 25 -29 28 3 38 -25 18 -47 -20 -22 -2 -38 20 -20 10 8 15 9
15 2 0 -6 -4 -14 -10 -17 -6 -4 -4 -17 5 -36 18 -33 29 -39 20 -9 -4 11 -2 20
4 20 6 0 11 -7 11 -16 0 -9 9 -18 20 -21 23 -6 26 -19 8 -26 -7 -2 -10 -8 -6
-12 4 -4 15 3 25 14 26 30 43 26 43 -10 0 -26 3 -31 20 -26 12 3 20 0 20 -8 0
-12 48 -50 55 -43 2 2 8 75 14 162 7 88 14 163 16 166 3 4 -17 17 -44 29 -50
21 -71 22 -246 14z"/>
<path d="M3150 3520 c19 -13 30 -13 30 0 0 6 -10 10 -22 10 -19 0 -20 -2 -8
-10z"/>
<path d="M3200 3517 c0 -16 57 -29 66 -15 8 13 2 17 -34 24 -25 5 -32 3 -32
-9z"/>
<path d="M2241 3486 c-32 -33 -38 -65 -13 -74 6 -2 12 3 12 12 0 9 7 16 15 16
9 0 12 -6 9 -15 -9 -22 0 -19 34 14 l31 28 -28 27 -27 26 -33 -34z"/>
<path d="M3290 3505 c0 -8 7 -15 15 -15 8 0 15 7 15 15 0 8 -7 15 -15 15 -8 0
-15 -7 -15 -15z"/>
<path d="M4744 3458 c-38 -28 -106 -69 -152 -91 -45 -23 -81 -46 -79 -51 2 -6
25 -22 52 -37 47 -26 71 -59 61 -86 -7 -18 45 -43 92 -43 21 0 64 5 94 11 52
11 58 10 87 -12 31 -23 32 -23 64 -6 31 17 35 17 136 -12 l104 -29 61 23 c34
12 105 30 159 40 89 16 100 20 121 49 53 70 52 72 -12 96 -86 33 -523 142
-541 135 -9 -3 -12 -3 -8 1 4 5 -9 13 -30 20 -21 6 -61 18 -89 27 l-52 15 -68
-50z m416 -111 c0 -2 -10 -12 -22 -23 l-23 -19 19 23 c18 21 26 27 26 19z"/>
<path d="M4040 3470 c0 -28 2 -30 40 -30 30 0 40 4 40 16 0 23 -25 44 -54 44
-22 0 -26 -4 -26 -30z"/>
<path d="M3187 3419 c-4 -34 -7 -86 -7 -115 l0 -54 49 0 c27 0 55 -2 63 -5 9
-4 13 4 14 22 4 101 5 195 2 198 -1 2 -28 6 -59 10 l-56 7 -6 -63z"/>
<path d="M4140 3445 c-12 -33 -13 -65 -1 -65 5 0 4 -11 -2 -24 -14 -30 -18
-27 -26 21 -6 34 -10 38 -39 41 l-32 3 0 -108 c0 -134 5 -143 57 -116 275 142
261 131 218 181 -16 19 -67 49 -95 57 -3 0 -20 9 -38 18 -32 18 -32 18 -42 -8z
m81 -48 c-1 -4 -1 -14 -1 -22 0 -8 -4 -15 -10 -15 -5 0 -10 7 -10 16 0 8 -4
13 -9 9 -5 -3 -12 -1 -15 4 -4 5 2 12 11 14 23 6 35 4 34 -6z"/>
<path d="M4237 3449 c7 -7 15 -10 18 -7 3 3 -2 9 -12 12 -14 6 -15 5 -6 -5z"/>
<path d="M2321 3402 c-21 -23 -35 -32 -38 -24 -3 9 -12 7 -30 -8 -14 -11 -30
-17 -35 -14 -5 3 -1 12 9 20 17 13 17 13 0 14 -10 0 -21 10 -25 21 -8 21 -9
20 -35 -11 -15 -17 -27 -37 -27 -45 0 -7 25 -23 55 -35 56 -23 56 -23 78 -3
12 11 38 29 57 41 57 34 84 63 68 73 -24 16 -42 8 -77 -29z"/>
<path d="M2815 3430 c3 -5 8 -10 11 -10 2 0 4 5 4 10 0 6 -5 10 -11 10 -5 0
-7 -4 -4 -10z"/>
<path d="M4460 3419 c0 -17 37 -79 46 -79 14 0 95 52 90 57 -3 3 -22 9 -43 13
-21 4 -50 11 -65 15 -21 5 -28 4 -28 -6z"/>
<path d="M3745 3410 c-3 -5 1 -10 10 -10 9 0 13 5 10 10 -3 6 -8 10 -10 10 -2
0 -7 -4 -10 -10z"/>
<path d="M4355 3410 c-3 -6 1 -13 9 -16 17 -7 22 -44 6 -44 -5 0 -10 -5 -10
-12 0 -21 38 25 45 55 6 24 4 27 -18 27 -14 0 -29 -5 -32 -10z"/>
<path d="M4315 3400 c3 -5 8 -10 11 -10 2 0 4 5 4 10 0 6 -5 10 -11 10 -5 0
-7 -4 -4 -10z"/>
<path d="M2860 3380 c0 -5 4 -10 9 -10 6 0 13 5 16 10 3 6 -1 10 -9 10 -9 0
-16 -4 -16 -10z"/>
<path d="M3753 3383 c-18 -7 -16 -21 9 -56 13 -18 22 -33 20 -34 -1 -2 -2 -9
-1 -15 1 -30 18 31 18 70 1 43 -9 50 -46 35z"/>
<path d="M3701 3342 c-18 -3 -21 -6 -10 -12 11 -7 11 -12 2 -21 -15 -15 1 -49
24 -49 11 0 14 6 10 22 -4 12 -2 27 3 33 14 16 -2 31 -29 27z"/>
<path d="M2102 3324 c3 -3 0 -25 -8 -49 l-13 -44 32 -6 c70 -12 79 -10 100 18
25 33 20 40 -54 67 -57 21 -66 23 -57 14z"/>
<path d="M3740 3286 c0 -14 5 -26 10 -26 6 0 10 9 10 19 0 11 -4 23 -10 26 -6
4 -10 -5 -10 -19z"/>
<path d="M3170 3181 c0 -44 2 -49 26 -55 30 -8 68 19 59 42 -3 8 3 16 15 19
11 3 20 14 20 24 0 17 -8 19 -60 19 l-60 0 0 -49z"/>
<path d="M3738 3223 c7 -3 16 -2 19 1 4 3 -2 6 -13 5 -11 0 -14 -3 -6 -6z"/>
<path d="M3786 3211 c-4 -7 -5 -15 -2 -18 9 -9 19 4 14 18 -4 11 -6 11 -12 0z"/>
<path d="M2080 3197 c0 -8 -3 -36 -6 -63 l-7 -49 52 50 c28 27 48 52 43 56 -4
4 -24 10 -44 13 -29 5 -38 4 -38 -7z"/>
<path d="M3726 3174 c-7 -27 0 -64 13 -64 4 0 5 16 3 36 -3 24 0 39 9 45 11 7
11 9 -2 9 -10 0 -20 -11 -23 -26z"/>
<path d="M3822 3170 c0 -14 2 -19 5 -12 2 6 2 18 0 25 -3 6 -5 1 -5 -13z"/>
<path d="M3029 3159 c-11 -21 -10 -22 19 -16 30 6 30 6 16 -21 -31 -61 -9 -96
59 -94 30 2 47 8 59 25 23 28 22 29 -6 47 -13 8 -39 27 -58 41 -49 40 -74 45
-89 18z"/>
<path d="M3768 3173 c7 -3 16 -2 19 1 4 3 -2 6 -13 5 -11 0 -14 -3 -6 -6z"/>
<path d="M3016 3111 c-3 -5 1 -14 9 -21 13 -10 15 -9 15 9 0 21 -14 28 -24 12z"/>
<path d="M3758 2906 c-41 -14 -58 -26 -58 -38 0 -17 2 -17 38 -2 20 9 47 19
60 21 13 3 22 13 22 24 0 11 -1 18 -2 18 -2 -1 -29 -11 -60 -23z"/>
<path d="M3660 2840 c-8 -5 -10 -10 -5 -10 6 0 17 5 25 10 8 5 11 10 5 10 -5
0 -17 -5 -25 -10z"/>
<path d="M3665 2280 c-3 -5 0 -19 8 -30 14 -19 14 -19 13 10 -1 30 -10 38 -21
20z"/>
<path d="M6872 1801 c-7 -4 -25 -6 -40 -3 -22 4 -25 2 -14 -9 6 -7 12 -24 12
-37 0 -21 2 -23 15 -12 9 7 25 26 36 42 20 28 16 36 -9 19z"/>
<path d="M7242 7980 c13 -21 23 -20 82 6 30 13 29 13 -32 14 -60 0 -62 -1 -50
-20z"/>
<path d="M7505 7990 c-3 -6 5 -10 19 -10 14 0 28 5 31 10 3 6 -5 10 -19 10
-14 0 -28 -4 -31 -10z"/>
<path d="M0 6560 c0 -154 2 -280 4 -280 2 0 45 34 97 75 144 116 157 149 103
252 -20 37 -44 95 -53 128 -16 59 -16 59 -68 75 -29 8 -55 18 -59 23 -4 4 -11
7 -16 7 -4 0 -8 -126 -8 -280z"/>
<path d="M3391 1094 c-7 -48 -11 -87 -9 -89 3 -2 147 -51 183 -62 18 -6 18 -5
-3 23 -12 16 -52 71 -88 122 -36 50 -66 92 -68 92 -2 0 -8 -39 -15 -86z"/>
<path d="M3600 927 c0 -7 16 -21 35 -30 29 -14 35 -14 35 -2 0 15 -37 45 -57
45 -7 0 -13 -6 -13 -13z"/>
<path d="M2781 770 c-18 -25 -38 -55 -44 -68 -13 -28 -3 -39 68 -78 78 -43
100 -63 156 -146 28 -43 55 -78 59 -78 4 0 26 14 49 31 50 36 85 106 95 188
l7 54 -140 -6 -140 -7 -24 33 c-14 17 -31 52 -39 77 l-15 45 -32 -45z"/>
<path d="M3536 719 c-33 -11 -61 -21 -64 -23 -8 -9 26 -54 83 -108 l60 -56 42
25 c24 14 40 29 37 34 -3 5 -18 0 -34 -11 -34 -24 -40 -25 -66 -5 -18 15 -18
15 11 13 26 -3 30 0 28 20 -3 23 12 31 20 10 3 -9 11 -7 27 7 20 17 22 17 17
3 -4 -11 0 -18 11 -21 18 -4 72 19 72 31 0 11 -102 78 -139 90 -40 14 -31 15
-105 -9z"/>
<path d="M3776 605 c-16 -12 -17 -17 -6 -30 15 -19 21 -19 45 -1 16 12 17 16
6 30 -16 19 -21 19 -45 1z"/>
<path d="M3047 216 c-17 -13 -24 -46 -9 -46 4 0 15 7 25 14 31 24 16 55 -16
32z"/>
<path d="M3130 205 c-8 -9 -8 -15 -2 -15 12 0 26 19 19 26 -2 2 -10 -2 -17
-11z"/>
<path d="M3030 144 c-30 -20 -93 -60 -140 -90 l-85 -54 165 1 165 0 30 47 c17
26 30 50 30 54 0 9 -88 78 -100 78 -5 -1 -35 -17 -65 -36z"/>
<path d="M3186 50 c-14 -22 -26 -42 -26 -45 0 -3 23 -5 50 -5 28 0 50 2 50 5
0 8 -40 85 -44 85 -2 0 -15 -18 -30 -40z"/>
</g>
</svg>
