<?xml version="1.0" standalone="no"?>
<!DOCTYPE svg PUBLIC "-//W3C//DTD SVG 20010904//EN"
 "http://www.w3.org/TR/2001/REC-SVG-20010904/DTD/svg10.dtd">
<svg version="1.0" xmlns="http://www.w3.org/2000/svg"
 width="800.000000pt" height="800.000000pt" viewBox="0 0 800.000000 800.000000"
 preserveAspectRatio="xMidYMid meet">
<metadata>
Created by potrace 1.16, written by Peter Selinger 2001-2019
</metadata>
<g transform="translate(0.000000,800.000000) scale(0.100000,-0.100000)"
fill="#000000" stroke="none">
<path d="M0 5769 l0 -2231 33 8 c32 8 217 7 253 -1 30 -6 224 -62 277 -79 47
-15 48 -15 57 7 8 21 9 20 9 -7 1 -21 5 -27 17 -22 8 3 13 2 10 -3 -3 -5 19
-19 49 -31 30 -12 55 -26 55 -31 0 -13 -4 -12 -78 19 -70 30 -254 90 -358 116
-65 17 -239 24 -291 12 -23 -5 -33 -13 -33 -27 0 -15 7 -19 33 -19 17 0 38 -4
46 -9 10 -6 3 -9 -22 -9 -20 0 -40 -3 -46 -7 -8 -4 -11 -520 -11 -1731 l0
-1724 4000 0 4000 0 -2 853 -3 852 -65 -5 c-115 -8 -234 -4 -280 10 -153 44
-570 272 -570 311 0 18 -74 90 -86 85 -8 -3 -13 -2 -11 2 5 15 -60 84 -103
109 -25 14 -56 36 -70 48 -52 45 -121 77 -181 82 -71 7 -78 23 -10 23 38 0 66
-9 124 -40 41 -21 78 -36 82 -32 5 4 5 2 2 -4 -8 -14 16 -35 63 -59 19 -10 55
-40 79 -67 30 -33 49 -47 59 -43 9 3 13 3 10 -1 -4 -4 8 -25 27 -47 19 -22 35
-44 35 -48 0 -23 234 -164 252 -153 6 4 8 3 5 -3 -8 -13 20 -26 35 -16 7 4 8
1 3 -7 -6 -10 -4 -12 9 -7 9 4 15 3 12 -1 -6 -10 171 -95 234 -112 67 -19 204
-25 195 -9 -5 8 -4 10 3 5 7 -4 44 -4 82 0 l70 7 0 3133 0 3134 -110 0 c-60 0
-110 -2 -110 -5 0 -2 -16 -87 -36 -187 -29 -148 -43 -198 -74 -260 -45 -90
-64 -120 -73 -112 -3 3 16 47 43 98 44 82 52 108 84 274 20 101 36 185 36 187
0 3 -1746 5 -3880 5 l-3880 0 0 -2231z m4478 2024 c-43 -42 -81 -73 -85 -69
-9 9 134 146 151 146 6 0 -24 -35 -66 -77z m-2637 -146 c-8 -8 -11 -7 -11 4 0
20 13 34 18 19 3 -7 -1 -17 -7 -23z m-1 -34 c0 -5 -5 -15 -10 -23 -8 -12 -10
-11 -10 8 0 12 5 22 10 22 6 0 10 -3 10 -7z m-10 -67 c0 -8 -4 -18 -10 -21 -5
-3 -10 3 -10 14 0 12 5 21 10 21 6 0 10 -6 10 -14z m3863 -57 c5 -41 14 -60
39 -86 38 -39 30 -58 -10 -20 -30 28 -47 23 -71 -20 -9 -17 -21 -23 -48 -23
-33 0 -35 2 -29 28 3 15 11 58 17 95 10 57 16 70 38 82 39 20 57 4 64 -56z
m-3883 -5 c0 -14 -4 -23 -10 -19 -5 3 -10 15 -10 26 0 10 5 19 10 19 6 0 10
-12 10 -26z m1691 -106 c2 -29 2 -30 -5 -48 -8 -21 7 -41 32 -43 12 -1 22 -7
22 -15 0 -7 -4 -10 -10 -7 -5 3 -10 1 -10 -4 0 -6 -7 -11 -15 -11 -8 0 -15 9
-15 21 0 16 -4 19 -20 14 -24 -8 -24 -7 -6 37 8 19 12 45 9 56 -3 13 -1 22 6
22 6 0 12 -10 12 -22z m-31 -139 c0 -11 -4 -17 -10 -14 -5 3 -10 15 -10 26 0
11 5 17 10 14 6 -3 10 -15 10 -26z m50 -16 c0 -14 -19 -38 -25 -32 -8 8 5 39
16 39 5 0 9 -3 9 -7z m-54 -22 c-4 -5 0 -11 6 -14 21 -7 6 -14 -44 -20 -29 -4
-48 -3 -48 3 0 6 13 10 29 10 16 0 31 6 35 15 3 8 10 15 16 15 6 0 9 -4 6 -9z
m244 -269 c0 -5 -6 -17 -14 -28 -19 -25 -31 -12 -14 15 13 21 28 28 28 13z
m3360 -112 c0 -5 -2 -10 -4 -10 -3 0 -8 5 -11 10 -3 6 -1 10 4 10 6 0 11 -4
11 -10z m-30 -19 c0 -12 -20 -25 -27 -18 -7 7 6 27 18 27 5 0 9 -4 9 -9z
m-3072 -15 c-7 -8 -16 -12 -21 -9 -11 7 2 23 19 23 12 0 12 -2 2 -14z m3027
-26 c-3 -5 -13 -10 -21 -10 -8 0 -12 5 -9 10 3 6 13 10 21 10 8 0 12 -4 9 -10z
m-3045 -16 c0 -8 -6 -11 -15 -8 -8 4 -15 9 -15 13 0 4 7 8 15 8 8 0 15 -6 15
-13z m-40 -3 c0 -5 -7 -14 -15 -21 -16 -14 -18 -10 -9 14 6 17 24 22 24 7z
m3034 -16 c-6 -16 -24 -21 -24 -7 0 11 11 22 21 22 5 0 6 -7 3 -15z m-3083
-38 c-8 -8 -11 -7 -11 4 0 20 13 34 18 19 3 -7 -1 -17 -7 -23z m-31 -2 c0 -8
-7 -15 -16 -15 -14 0 -14 3 -4 15 7 8 14 15 16 15 2 0 4 -7 4 -15z m-1887 -35
c6 -25 2 -25 -23 0 -12 12 -18 25 -14 31 8 13 30 -5 37 -31z m4968 7 c-8 -8
-11 -7 -11 4 0 9 3 19 7 23 4 4 9 2 11 -4 3 -7 -1 -17 -7 -23z m-4264 -13 c-3
-3 -12 -4 -19 -1 -8 3 -5 6 6 6 11 1 17 -2 13 -5z m1153 -1 c0 -14 -19 -38
-25 -32 -8 8 5 39 16 39 5 0 9 -3 9 -7z m-1894 -19 c-3 -9 -6 -18 -6 -20 0 -2
-4 -4 -9 -4 -5 0 -7 9 -4 20 3 11 10 20 15 20 6 0 7 -7 4 -16z m1839 6 c18 -8
17 -9 -7 -9 -16 -1 -28 4 -28 9 0 12 8 12 35 0z m3153 -12 c-2 -6 -10 -14 -16
-16 -7 -2 -10 2 -6 12 7 18 28 22 22 4z m-4939 -25 c0 -25 -1 -25 -8 -8 -5 11
-7 23 -4 28 8 14 13 7 12 -20z m-59 -27 c0 -8 -4 -18 -10 -21 -5 -3 -10 3 -10
14 0 12 5 21 10 21 6 0 10 -6 10 -14z m4990 -7 c0 -11 -4 -17 -10 -14 -5 3
-10 13 -10 21 0 8 5 14 10 14 6 0 10 -9 10 -21z m-4934 -36 c-11 -11 -17 4 -9
23 7 18 8 18 11 1 2 -10 1 -21 -2 -24z m-56 -26 c0 -7 -50 1 -60 10 -2 2 2 8
9 13 14 8 51 -8 51 -23z m5010 -3 c0 -8 -4 -14 -10 -14 -5 0 -10 9 -10 21 0
11 5 17 10 14 6 -3 10 -13 10 -21z m-5080 -4 c0 -11 -4 -20 -10 -20 -5 0 -10
9 -10 20 0 11 5 20 10 20 6 0 10 -9 10 -20z m104 -5 c-6 -16 -24 -21 -24 -7 0
11 11 22 21 22 5 0 6 -7 3 -15z m-88 -62 c-4 -4 -11 -1 -16 7 -16 25 -11 35 7
17 9 -9 13 -20 9 -24z m104 6 c0 -11 -4 -17 -10 -14 -5 3 -10 15 -10 26 0 11
5 17 10 14 6 -3 10 -15 10 -26z m4970 17 c0 -8 -4 -18 -10 -21 -5 -3 -10 3
-10 14 0 12 5 21 10 21 6 0 10 -6 10 -14z m-5040 -56 c13 -24 10 -24 -24 -7
-14 8 -23 17 -19 20 12 13 32 7 43 -13z m812 -5 c-2 -14 -9 -25 -14 -25 -6 0
-7 7 -4 16 3 9 6 20 6 25 0 5 4 9 9 9 4 0 6 -11 3 -25z m-749 -10 c-5 -13 -23
-22 -23 -11 0 15 14 35 21 31 4 -3 6 -12 2 -20z m4967 5 c0 -11 -4 -20 -10
-20 -5 0 -10 9 -10 20 0 11 5 20 10 20 6 0 10 -9 10 -20z m-5095 -10 c-3 -5
-13 -10 -21 -10 -8 0 -14 5 -14 10 0 6 9 10 21 10 11 0 17 -4 14 -10z m-39
-36 c-3 -9 -6 -18 -6 -20 0 -2 -4 -4 -9 -4 -5 0 -7 9 -4 20 3 11 10 20 15 20
6 0 7 -7 4 -16z m117 -1 c-6 -16 -5 -16 10 -4 20 16 37 7 20 -10 -15 -15 -53
-2 -46 17 3 7 9 14 14 14 4 0 5 -8 2 -17z m5007 -13 c0 -11 -4 -20 -10 -20 -5
0 -10 9 -10 20 0 11 5 20 10 20 6 0 10 -9 10 -20z m-5405 -30 c-3 -5 -13 -10
-21 -10 -8 0 -14 5 -14 10 0 6 9 10 21 10 11 0 17 -4 14 -10z m365 -5 c-7 -8
-17 -15 -22 -15 -6 0 -5 7 2 15 7 8 17 15 22 15 6 0 5 -7 -2 -15z m-321 -8
c15 -19 2 -29 -15 -12 -8 7 -14 16 -14 19 0 11 17 6 29 -7z m208 -4 c-9 -9
-19 -14 -23 -11 -10 10 6 28 24 28 15 0 15 -1 -1 -17z m168 -3 c3 -11 13 -20
20 -20 8 0 17 -4 20 -10 3 -6 -5 -10 -18 -10 -14 0 -27 7 -31 18 -3 9 -9 23
-12 30 -3 6 -1 12 4 12 6 0 14 -9 17 -20z m-208 -16 c-7 -7 -37 7 -37 17 0 6
9 5 21 -1 11 -7 19 -14 16 -16z m5179 -11 c-11 -11 -19 6 -11 24 8 17 8 17 12
0 3 -10 2 -21 -1 -24z m-5426 18 c0 -11 -31 -24 -39 -16 -3 3 1 10 9 15 19 12
30 12 30 1z m190 -6 c0 -8 -7 -15 -15 -15 -26 0 -18 20 13 29 1 1 2 -6 2 -14z
m-50 -5 c0 -5 -6 -10 -14 -10 -8 0 -18 5 -21 10 -3 6 3 10 14 10 12 0 21 -4
21 -10z m224 -1 c-3 -6 0 -15 7 -20 10 -6 9 -10 -8 -16 -12 -4 -22 -11 -22
-15 -1 -5 -1 -16 -1 -25 0 -12 -3 -14 -10 -7 -7 7 -8 19 -1 35 5 13 12 32 15
42 3 9 10 17 16 17 6 0 8 -5 4 -11z m76 -9 c0 -5 -9 -10 -21 -10 -11 0 -17 5
-14 10 3 6 13 10 21 10 8 0 14 -4 14 -10z m-484 -47 c-11 -11 -17 4 -9 23 7
18 8 18 11 1 2 -10 1 -21 -2 -24z m1286 0 c53 -33 69 -62 95 -177 25 -112 27
-126 15 -126 -5 0 -19 50 -32 111 -24 117 -41 148 -99 182 -17 10 -31 13 -31
8 0 -6 -4 -11 -10 -11 -5 0 -10 11 -10 25 0 28 11 26 72 -12z m4192 11 c9 -24
7 -28 -9 -14 -17 14 -20 30 -6 30 5 0 12 -7 15 -16z m-4414 -14 c0 -5 -4 -10
-10 -10 -5 0 -10 5 -10 10 0 6 5 10 10 10 6 0 10 -4 10 -10z m-944 -19 c-4 -5
-3 -11 1 -14 5 -2 2 -2 -5 0 -8 1 -20 3 -28 3 -9 0 -12 5 -9 10 3 6 15 10 26
10 11 0 18 -4 15 -9z m-116 -16 c19 -22 10 -23 -30 -3 -33 17 -34 18 -9 18 15
0 32 -7 39 -15z m5504 -24 c-6 -6 -24 19 -24 34 1 6 7 1 15 -9 8 -11 12 -22 9
-25z m-5446 17 c-3 -7 -13 -15 -24 -17 -16 -3 -17 -1 -5 13 16 19 34 21 29 4z
m309 -23 c-4 -8 -11 -15 -17 -15 -7 0 -7 6 0 21 13 23 26 19 17 -6z m5156 -35
c3 -11 1 -20 -4 -20 -5 0 -9 2 -9 4 0 2 -3 11 -6 20 -3 9 -2 16 4 16 5 0 12
-9 15 -20z m-5173 -21 c0 -11 -4 -17 -10 -14 -5 3 -10 13 -10 21 0 8 5 14 10
14 6 0 10 -9 10 -21z m-1324 -23 c10 -26 -33 -282 -52 -311 -11 -17 -17 -42
-15 -62 2 -24 -3 -40 -17 -53 -15 -14 -20 -38 -25 -111 -7 -86 -11 -109 -21
-98 -2 2 0 48 4 101 6 75 12 103 28 123 16 20 19 32 12 50 -7 18 -4 30 13 51
15 20 26 59 39 138 24 158 24 156 -14 156 l-33 1 30 14 c39 18 45 18 51 1z
m5894 -106 c-19 -12 -30 -12 -30 -1 0 10 31 20 40 14 2 -2 -2 -8 -10 -13z
m-50 -10 c0 -5 -10 -10 -22 -10 -19 0 -20 2 -8 10 19 13 30 13 30 0z m-50 -29
c0 -5 -7 -11 -15 -15 -15 -5 -20 5 -8 17 9 10 23 9 23 -2z m-240 -31 c0 -5 -9
-10 -21 -10 -11 0 -17 5 -14 10 3 6 13 10 21 10 8 0 14 -4 14 -10z m195 -11
c-4 -5 -13 -9 -22 -9 -13 0 -13 3 -3 15 13 15 35 11 25 -6z m-3984 -20 c-5
-13 -10 -19 -10 -12 -1 15 10 45 15 40 3 -2 0 -15 -5 -28z m3845 4 c-8 -8 -36
5 -36 17 0 7 6 7 21 0 11 -7 18 -14 15 -17z m-106 8 c0 -5 -9 -11 -20 -14 -22
-6 -28 8 -7 16 19 8 27 8 27 -2z m183 -8 c-7 -2 -19 -2 -25 0 -7 3 -2 5 12 5
14 0 19 -2 13 -5z m-248 -13 c-3 -5 -13 -10 -21 -10 -8 0 -12 5 -9 10 3 6 13
10 21 10 8 0 12 -4 9 -10z m-45 -10 c0 -5 -4 -10 -9 -10 -5 0 -16 -3 -25 -6
-9 -3 -16 -1 -16 4 0 9 16 17 43 21 4 0 7 -3 7 -9z m260 0 c0 -5 -4 -10 -9
-10 -6 0 -13 5 -16 10 -3 6 1 10 9 10 9 0 16 -4 16 -10z m-3900 -17 c0 -5 -5
-15 -10 -23 -8 -12 -10 -11 -10 8 0 12 5 22 10 22 6 0 10 -3 10 -7z m844 -90
c-19 -92 -25 -100 -19 -27 5 65 12 94 25 94 4 0 1 -30 -6 -67z m-1880 46 c-2
-4 21 -24 50 -44 30 -21 61 -51 70 -68 16 -34 10 -62 -7 -31 -17 33 -50 64
-60 57 -6 -3 -7 -2 -4 4 4 6 -14 24 -38 42 -55 40 -63 51 -31 49 13 -1 23 -5
20 -9z m1009 -24 c-3 -9 -8 -14 -10 -11 -3 3 -2 9 2 15 9 16 15 13 8 -4z m-26
-67 c-3 -7 -5 -2 -5 12 0 14 2 19 5 13 2 -7 2 -19 0 -25z m-7 -49 c-7 -11 -14
-18 -17 -15 -8 8 5 36 17 36 7 0 7 -6 0 -21z m890 -78 c0 -39 -4 -73 -10 -76
-6 -4 -10 22 -10 69 0 44 4 76 10 76 6 0 10 -30 10 -69z m2040 -20 c0 -5 -13
-12 -30 -16 -16 -4 -32 -11 -36 -16 -3 -5 -32 -27 -65 -49 -47 -33 -65 -53
-91 -103 -17 -34 -33 -57 -35 -50 -2 6 10 39 26 72 24 47 43 69 87 98 102 68
144 87 144 64z m200 -232 c-7 -11 -14 -18 -17 -15 -3 3 0 12 7 21 18 21 23 19
10 -6z m-17 -55 c-4 -10 1 -17 16 -21 11 -3 21 -10 21 -15 0 -5 -10 -6 -22 -3
-19 5 -20 4 -8 -5 11 -9 12 -13 3 -17 -7 -2 -13 -13 -13 -24 0 -10 -4 -19 -10
-19 -11 0 -13 62 -4 98 4 12 10 22 15 22 5 0 6 -7 2 -16z m-127 -81 c-11 -11
-19 6 -11 24 8 17 8 17 12 0 3 -10 2 -21 -1 -24z m-3416 -55 c16 -83 22 -92
68 -106 56 -17 85 -44 118 -107 15 -31 43 -69 61 -85 46 -41 41 -58 -5 -21
-21 16 -53 57 -71 90 -63 119 -141 140 -335 90 -29 -8 -36 -13 -27 -22 14 -14
14 -37 1 -37 -5 0 -10 7 -10 15 0 21 -23 19 -54 -6 -60 -48 -59 -52 60 -165
60 -56 106 -105 102 -109 -4 -4 -58 38 -120 94 -62 55 -114 96 -116 91 -5 -13
-32 -13 -32 0 0 6 5 10 11 10 5 0 7 5 4 10 -3 6 -24 10 -46 10 -22 0 -39 5
-39 11 0 8 17 9 54 5 53 -7 55 -6 69 21 9 15 26 38 39 49 25 23 190 74 238 74
17 0 30 1 30 3 0 1 -7 27 -15 57 -17 63 -19 90 -6 90 4 0 14 -28 21 -62z
m3410 23 c0 -5 -7 -14 -15 -21 -12 -10 -15 -10 -15 2 0 8 3 18 7 21 9 10 23 9
23 -2z m-16 -57 c9 -22 -3 -32 -14 -14 -12 19 -12 30 -1 30 5 0 12 -7 15 -16z
m-54 -34 c0 -13 -11 -13 -30 0 -12 8 -11 10 8 10 12 0 22 -4 22 -10z m-59 -43
c-16 -16 -26 0 -10 19 9 11 15 12 17 4 2 -6 -1 -17 -7 -23z m-3871 -8 c0 -5
-4 -9 -10 -9 -5 0 -10 7 -10 16 0 8 5 12 10 9 6 -3 10 -10 10 -16z m3836 -55
c-19 -18 -20 -14 -4 23 9 22 12 24 15 11 3 -10 -3 -25 -11 -34z m-49 -21 c-9
-9 -20 -13 -24 -9 -4 4 -1 11 7 16 25 16 35 11 17 -7z m-57 -23 c-19 -12 -30
-12 -30 -1 0 10 31 20 40 14 2 -2 -2 -8 -10 -13z m-934 -139 c25 4 47 -2 38
-11 -13 -13 -66 2 -72 21 -4 12 -3 12 10 1 9 -7 20 -12 24 -11z m-1831 -1 c-3
-5 -2 -10 4 -10 6 0 42 -27 81 -61 39 -33 75 -57 80 -54 6 3 10 -4 10 -17 0
-36 53 -93 116 -122 66 -31 183 -118 167 -123 -6 -2 -38 16 -71 40 -33 24 -75
50 -93 57 -19 7 -42 20 -51 28 -10 8 -18 10 -18 5 0 -6 8 -14 18 -18 16 -6 16
-7 -1 -19 -11 -9 -15 -20 -11 -32 3 -11 -7 -4 -24 16 -19 22 -26 37 -19 39 26
9 23 26 -10 73 -34 47 -152 159 -176 167 -7 2 -23 8 -37 14 l-25 10 30 7 c17
4 31 8 33 9 2 0 0 -3 -3 -9z m-745 -33 c19 -19 55 -39 80 -46 43 -13 45 -12
67 13 12 14 25 26 28 26 12 0 4 -20 -18 -46 l-23 -26 -64 18 c-47 12 -73 26
-92 48 -48 55 -33 64 22 13z m-274 -13 c-3 -9 -6 -18 -6 -20 0 -2 -4 -4 -9 -4
-5 0 -7 9 -4 20 3 11 10 20 15 20 6 0 7 -7 4 -16z m191 -41 c-2 -39 -27 -60
-27 -23 0 21 16 60 25 60 2 0 3 -17 2 -37z m2983 -58 c-19 -19 -43 -35 -53
-35 -14 0 -6 11 29 40 57 47 72 44 24 -5z m-560 -25 c0 -5 -11 -10 -24 -10
-13 0 -27 -6 -30 -12 -5 -10 -7 -10 -12 0 -3 6 -15 13 -27 14 -12 1 3 4 33 8
30 4 56 7 58 8 1 1 2 -2 2 -8z m-611 -31 c13 -39 13 -39 2 -39 -5 0 -13 9 -16
20 -3 11 -12 20 -19 20 -22 0 -49 -27 -51 -50 -1 -13 -8 -26 -15 -28 -10 -4
-11 3 -6 28 3 19 7 34 9 36 9 8 73 44 79 44 3 0 11 -14 17 -31z m415 4 c-4
-10 -7 -35 -6 -55 2 -45 -13 -50 -22 -8 -6 34 8 80 25 80 7 0 8 -6 3 -17z
m656 -3 c-19 -13 -30 -13 -30 0 0 6 10 10 23 10 18 0 19 -2 7 -10z m-2385 -53
c61 -42 119 -96 112 -104 -4 -3 -28 12 -54 35 -27 23 -65 52 -85 64 -25 14
-38 29 -38 42 1 18 2 19 13 6 7 -8 30 -28 52 -43z m74 17 c2 -10 8 -22 14 -26
6 -4 9 -10 6 -13 -9 -8 -59 13 -59 25 0 6 5 8 11 4 8 -4 9 1 4 16 -5 16 -4 21
6 18 8 -3 16 -13 18 -24z m1793 -77 c-3 -56 -8 -87 -15 -84 -13 4 -10 133 5
160 5 10 11 17 12 15 1 -1 0 -43 -2 -91z m-928 42 c9 -46 8 -85 -3 -73 -11 12
-21 104 -11 104 4 0 10 -14 14 -31z m-534 5 c0 -9 -32 -33 -44 -34 -5 0 -1 9
9 20 18 20 35 26 35 14z m1810 -29 c0 -6 -56 -100 -79 -133 -11 -15 -23 -38
-26 -52 -8 -25 -7 -25 13 -7 11 11 36 20 54 20 18 1 36 6 40 11 4 6 13 4 22
-3 12 -10 23 -11 47 -2 38 13 49 14 49 3 0 -9 -76 -37 -95 -36 -5 1 -24 4 -41
8 -27 6 -38 2 -65 -22 -19 -16 -39 -27 -45 -25 -21 7 -38 -28 -35 -73 2 -41
-2 -49 -52 -102 -66 -70 -77 -99 -84 -228 l-6 -101 37 -7 c21 -4 51 -4 67 -1
17 4 29 2 29 -3 0 -28 -113 -25 -157 4 -25 16 -32 39 -9 31 10 -4 14 16 19 91
8 127 19 156 83 222 51 52 54 59 54 105 0 54 6 68 30 77 9 3 21 21 27 41 17
56 123 213 123 182z m-2250 -30 c0 -3 -12 -28 -26 -56 -14 -28 -23 -53 -20
-56 2 -3 40 7 83 21 85 28 103 32 87 16 -12 -12 -151 -60 -174 -60 -18 0 -100
-158 -182 -350 -48 -111 -68 -147 -68 -122 0 6 16 50 35 96 39 95 41 106 20
106 -8 0 -15 5 -15 11 0 7 9 9 23 6 24 -7 44 27 161 276 31 64 60 117 66 117
5 0 10 -2 10 -5z m2516 -26 c3 -5 13 -9 23 -9 10 0 24 -7 31 -15 10 -12 10
-15 0 -15 -10 0 -10 -3 0 -15 11 -13 10 -18 -6 -30 -27 -20 -44 -18 -44 5 0
11 6 20 14 20 8 0 16 7 20 15 4 11 -1 15 -19 15 -21 0 -25 -5 -25 -30 0 -31
-17 -39 -38 -18 -16 16 -15 45 1 52 8 3 7 8 -5 16 -10 6 -18 14 -18 19 0 10
59 1 66 -10z m-1188 -75 c-9 -8 -58 41 -58 58 0 7 14 -2 32 -19 18 -18 29 -35
26 -39z m-2101 26 c18 0 33 -4 33 -10 0 -5 -15 -10 -32 -10 -45 0 -110 19
-103 30 3 5 19 4 38 -1 17 -5 47 -9 64 -9z m1109 -15 c52 -20 85 -42 157 -109
89 -80 198 -148 225 -139 6 3 12 -1 12 -9 0 -7 22 -22 49 -33 55 -21 87 -42
79 -51 -4 -3 -16 -1 -27 6 -25 13 -29 -4 -5 -18 9 -5 15 -14 13 -21 -6 -18
-49 17 -49 39 0 20 -13 27 -173 99 -29 13 -85 57 -140 109 -75 72 -104 93
-154 112 -35 12 -63 26 -63 31 0 12 1 12 76 -16z m358 -3 c3 -5 1 -14 -5 -22
-6 -10 -9 -11 -9 -2 0 6 -10 12 -22 11 -19 0 -20 -2 -6 -7 10 -4 14 -12 10
-19 -6 -9 -15 -6 -35 11 -15 13 -27 26 -27 28 0 9 89 8 94 0z m1759 -68 c42
-33 58 -54 41 -54 -4 0 -26 16 -50 35 -23 19 -47 35 -53 35 -6 0 -11 5 -11 10
0 19 27 10 73 -26z m-3053 -9 c6 -20 36 -64 66 -99 44 -52 62 -66 92 -71 21
-3 44 -10 52 -15 27 -17 4 -19 -50 -5 -43 11 -65 25 -97 60 -41 44 -73 96 -87
143 -12 37 11 25 24 -13z m456 -10 c-4 -14 -11 -25 -16 -25 -10 0 -4 43 8 65
9 15 14 -14 8 -40z m2704 25 c0 -5 -2 -10 -4 -10 -3 0 -8 5 -11 10 -3 6 -1 10
4 10 6 0 11 -4 11 -10z m-1951 -22 c10 -27 2 -46 -10 -27 -10 15 -12 49 -4 49
3 0 9 -10 14 -22z m-1554 -119 c5 -6 8 -70 9 -141 l1 -128 -62 0 c-36 0 -63 4
-63 10 0 6 24 10 54 10 50 0 53 2 50 23 -2 12 -6 72 -8 132 -3 61 -8 125 -12
142 -3 18 -3 41 2 50 5 13 9 3 14 -33 4 -29 11 -58 15 -65z m2484 69 c11 -23
19 -44 16 -46 -8 -9 -26 11 -40 45 -18 42 -18 43 -6 43 5 0 18 -19 30 -42z
m-1229 23 c0 -10 -24 -21 -43 -21 -7 0 -3 7 7 15 22 17 36 19 36 6z m555 -8
c4 -12 -1 -24 -15 -35 -26 -21 -45 -24 -33 -5 4 6 6 22 4 35 -2 16 3 22 17 22
11 0 23 -8 27 -17z m2610 7 c-28 -12 -37 -12 -30 0 3 6 16 10 28 9 21 0 21 -1
2 -9z m-836 -16 c37 -8 15 -18 -32 -16 -52 4 -77 11 -77 22 0 8 57 5 109 -6z
m-922 -30 c-9 -9 -28 6 -21 18 4 6 10 6 17 -1 6 -6 8 -13 4 -17z m101 7 c24
-21 28 -31 10 -31 -14 0 -48 30 -48 42 0 13 13 9 38 -11z m182 -8 c-1 -34 -23
-65 -41 -58 -19 7 -64 -37 -91 -88 -11 -23 -23 -36 -25 -30 -3 7 6 30 18 52
18 33 20 43 10 55 -11 14 -15 14 -37 -1 -14 -9 -24 -11 -24 -5 0 18 40 34 65
28 20 -5 24 -1 30 22 5 25 9 27 40 24 27 -3 35 -1 35 12 0 9 5 16 10 16 6 0
10 -12 10 -27z m1478 8 c3 -8 -1 -12 -9 -9 -7 2 -15 10 -17 17 -3 8 1 12 9 9
7 -2 15 -10 17 -17z m42 -11 c0 -5 -2 -10 -4 -10 -3 0 -8 5 -11 10 -3 6 -1 10
4 10 6 0 11 -4 11 -10z m-3080 -55 c0 -14 11 -47 24 -74 27 -52 92 -99 246
-176 41 -21 70 -40 63 -42 -13 -5 -138 57 -232 114 -51 31 -70 50 -92 92 -29
53 -38 111 -19 111 6 0 10 -11 10 -25z m800 5 c0 -5 -9 -10 -21 -10 -11 0 -17
5 -14 10 3 6 13 10 21 10 8 0 14 -4 14 -10z m382 -89 c21 -14 38 -29 38 -33 0
-16 -21 -7 -66 27 -25 19 -50 35 -55 35 -13 0 -11 -24 2 -37 9 -9 9 -20 -1
-42 -7 -17 -16 -31 -21 -31 -11 0 -11 3 0 34 7 18 6 28 -4 36 -13 10 -12 16 1
42 17 33 12 34 106 -31z m188 -8 c0 -29 -25 -68 -41 -65 -8 2 -2 -9 14 -23 15
-14 25 -30 22 -36 -4 -5 1 -9 9 -9 9 0 16 -4 16 -10 0 -13 -47 -13 -54 -1 -4
5 0 12 6 14 9 4 2 15 -20 34 -22 19 -32 37 -32 56 0 33 6 34 30 5 l18 -23 7
38 c7 37 25 52 25 20z m-1864 -50 c-11 -11 -19 6 -11 24 8 17 8 17 12 0 3 -10
2 -21 -1 -24z m1084 17 c0 -13 5 -18 15 -14 8 4 15 1 15 -5 0 -12 -27 -27 -35
-20 -11 11 -16 59 -6 59 6 0 11 -9 11 -20z m-99 -2 c38 -11 52 -27 27 -29 -7
0 30 -21 82 -46 52 -25 89 -48 81 -51 -7 -2 -67 22 -132 55 l-119 59 -15 -41
c-11 -30 -14 -32 -9 -10 5 31 30 75 41 75 3 0 23 -5 44 -12z m-675 -35 c-11
-11 -19 6 -11 24 8 17 8 17 12 0 3 -10 2 -21 -1 -24z m947 -8 c20 -4 37 -12
37 -17 0 -11 -75 -1 -102 14 -25 12 -22 21 5 15 12 -3 39 -9 60 -12z m-1392
-58 c-16 -16 -26 0 -10 19 9 11 15 12 17 4 2 -6 -1 -17 -7 -23z m334 13 c-3
-5 -11 -10 -16 -10 -6 0 -7 5 -4 10 3 6 11 10 16 10 6 0 7 -4 4 -10z m-119
-11 c3 -6 0 -15 -7 -20 -13 -7 -28 5 -29 24 0 11 28 8 36 -4z m-166 -38 c0
-16 6 -17 48 -10 26 4 58 8 72 8 23 0 24 -1 7 -13 -10 -8 -15 -20 -11 -30 3
-9 1 -16 -5 -16 -6 0 -11 9 -11 20 0 19 -4 20 -56 14 -51 -6 -56 -5 -61 15 -3
11 -11 21 -18 21 -8 0 -11 -8 -8 -20 6 -24 -12 -27 -21 -4 -8 20 -7 20 24 32
30 11 40 7 40 -17z m1663 -9 c34 -35 36 -40 23 -57 -8 -11 -18 -17 -22 -13 -4
4 -2 14 5 22 9 11 4 20 -24 44 -19 17 -35 34 -35 37 0 13 19 2 53 -33z m327
26 c0 -19 -18 -43 -25 -36 -4 3 -2 16 5 27 12 24 20 27 20 9z m360 -18 c0 -16
-4 -30 -10 -30 -11 0 -14 43 -3 53 11 12 13 8 13 -23z m-2013 -17 c24 -19 26
-24 13 -33 -8 -5 -24 -10 -34 -10 -11 0 -29 -9 -41 -20 -19 -18 -23 -18 -43
-4 -12 8 -19 20 -16 26 4 6 1 14 -7 18 -10 7 -7 13 11 28 32 26 83 24 117 -5z
m-437 8 c0 -6 -4 -13 -10 -16 -5 -3 -10 1 -10 9 0 9 5 16 10 16 6 0 10 -4 10
-9z m1517 -16 c43 -13 107 -31 142 -39 63 -15 79 -22 69 -31 -12 -12 -292 67
-303 86 -9 14 7 11 92 -16z m443 20 c0 -3 -7 -22 -15 -41 -13 -31 -18 -35 -39
-30 -38 9 -58 -3 -51 -31 5 -22 4 -23 -14 -13 -17 9 -19 14 -9 35 12 27 38 39
67 30 14 -4 21 2 31 25 11 26 30 42 30 25z m-1204 -32 c-8 -8 -36 5 -36 17 0
7 6 7 21 0 11 -7 18 -14 15 -17z m1234 18 c0 -5 -7 -14 -15 -21 -12 -10 -15
-10 -15 2 0 8 3 18 7 21 9 10 23 9 23 -2z m-1142 -11 c9 -5 43 -17 75 -26 32
-9 57 -18 54 -20 -2 -2 -26 3 -52 11 -52 15 -76 12 -32 -4 14 -5 37 -26 52
-45 24 -31 30 -34 48 -24 17 9 24 7 43 -16 13 -14 29 -25 36 -24 8 2 12 -6 10
-22 -9 -83 -8 -89 13 -95 19 -7 19 -7 -3 -13 -27 -8 -30 -23 -9 -36 10 -7 20
-4 33 8 14 15 28 17 68 12 28 -3 66 -6 84 -6 17 0 32 -5 32 -11 0 -9 -23 -10
-81 -5 -54 4 -78 3 -74 -4 3 -5 10 -10 15 -10 21 0 121 -43 155 -65 19 -14 53
-28 74 -31 33 -5 41 -3 50 15 7 11 16 21 22 21 5 0 2 -14 -7 -31 -14 -27 -20
-31 -50 -27 -19 2 -34 3 -34 1 0 -1 26 -16 59 -32 50 -26 61 -28 76 -17 10 7
15 18 11 24 -4 7 -2 12 4 12 18 0 24 -31 11 -53 -11 -17 -7 -25 40 -73 28 -29
62 -55 75 -58 25 -7 33 -26 11 -26 -18 0 -54 26 -117 85 -31 29 -75 62 -98 74
-37 19 -43 20 -48 6 -4 -10 -13 -13 -26 -9 -24 7 -44 -16 -25 -28 19 -13 -55
3 -90 19 -22 10 -34 24 -38 45 -5 22 -10 27 -18 19 -14 -14 -70 -15 -62 -1 3
6 15 10 26 10 11 0 17 5 14 10 -3 6 -1 10 4 10 6 0 11 10 11 23 1 19 2 20 10
5 10 -15 70 -23 70 -9 -1 19 -25 32 -108 54 -90 25 -129 47 -117 67 3 5 -12
27 -34 50 -27 28 -37 46 -34 60 6 24 -63 120 -87 120 -9 0 -23 12 -31 26 -12
23 -18 25 -51 21 -21 -3 -38 -1 -38 3 0 19 51 25 78 10z m363 -20 c107 -35
221 -92 197 -98 -9 -2 -38 8 -65 21 -132 67 -271 96 -311 64 -7 -5 -15 -7 -18
-5 -11 11 50 48 78 48 17 0 70 -13 119 -30z m-661 -5 c-7 -8 -17 -15 -22 -15
-6 0 -5 7 2 15 7 8 17 15 22 15 6 0 5 -7 -2 -15z m-480 -21 c0 -8 -4 -12 -10
-9 -5 3 -10 13 -10 21 0 8 5 12 10 9 6 -3 10 -13 10 -21z m652 4 c-7 -7 -12
-8 -12 -2 0 14 12 26 19 19 2 -3 -1 -11 -7 -17z m1258 -2 c0 -11 -19 -15 -25
-6 -3 5 1 10 9 10 9 0 16 -2 16 -4z m-1880 -26 c0 -11 -4 -20 -9 -20 -7 0 -8
17 -2 38 4 10 11 -2 11 -18z m-105 0 c4 -6 -5 -10 -19 -10 -14 0 -26 5 -26 10
0 6 9 10 19 10 11 0 23 -4 26 -10z m2015 1 c0 -6 -4 -13 -10 -16 -5 -3 -10 1
-10 9 0 9 5 16 10 16 6 0 10 -4 10 -9z m-1395 -20 c3 -5 1 -12 -5 -16 -5 -3
-10 1 -10 9 0 18 6 21 15 7z m-1685 -11 c0 -5 -5 -10 -11 -10 -5 0 -7 5 -4 10
3 6 8 10 11 10 2 0 4 -4 4 -10z m988 2 c-1 -4 -12 -31 -22 -60 -18 -47 -36
-68 -36 -41 0 20 42 109 52 109 5 0 8 -4 6 -8z m2442 -7 c0 -8 -4 -15 -10 -15
-5 0 -10 7 -10 15 0 8 5 15 10 15 6 0 10 -7 10 -15z m-3474 -20 c-21 -16 -32
-13 -21 4 3 6 14 11 23 11 15 -1 15 -2 -2 -15z m2779 -15 c-4 -13 -12 -19 -23
-16 -21 6 -89 -28 -74 -38 14 -9 50 -9 95 -1 25 5 37 4 37 -4 0 -6 -9 -11 -21
-11 -11 0 -29 -5 -40 -11 -22 -11 -89 5 -89 21 0 5 -7 7 -15 4 -8 -4 -15 -2
-15 3 0 9 142 83 148 78 2 -2 1 -13 -3 -25z m215 5 c0 -16 -6 -25 -15 -25 -16
0 -19 9 -9 34 9 25 24 19 24 -9z m-1212 -15 c47 -17 102 -40 123 -52 28 -15
42 -18 51 -11 15 12 41 3 78 -26 34 -27 18 -38 -18 -12 -32 23 -52 27 -52 11
0 -5 5 -10 11 -10 6 0 9 -12 7 -27 -2 -22 3 -30 25 -41 15 -7 25 -18 21 -23
-4 -7 -14 -3 -28 8 -57 49 -128 89 -166 94 -15 2 -41 -7 -64 -24 -48 -32 -54
-28 -91 55 -26 59 -27 62 -9 75 22 16 11 18 112 -17z m885 -94 c-6 -10 -113
101 -113 117 0 7 26 -15 59 -48 32 -33 56 -64 54 -69z m52 114 c-3 -5 -31 -10
-61 -10 -30 0 -54 5 -54 10 0 6 27 10 61 10 37 0 58 -4 54 -10z m-1085 -15 c0
-8 -7 -15 -15 -15 -16 0 -19 -17 -9 -44 4 -11 11 -13 30 -6 28 11 32 3 7 -16
-16 -12 -15 -14 15 -24 17 -7 32 -16 32 -22 0 -5 -9 -6 -22 -1 -25 9 -103 8
-181 -1 -43 -5 -49 -3 -56 17 -5 12 -6 28 -4 35 7 17 -1 15 -47 -8 -22 -11
-44 -20 -50 -20 -22 0 -3 24 26 33 16 6 41 18 55 28 14 10 29 16 31 13 3 -2
43 7 89 20 101 30 99 30 99 11z m1240 5 c0 -5 20 -15 45 -21 25 -6 45 -16 45
-21 0 -6 -11 -8 -23 -4 -16 4 -31 -1 -45 -15 -18 -16 -26 -18 -42 -9 -23 12
-28 65 -7 73 20 9 27 8 27 -3z m-2934 -26 c-11 -7 -22 -11 -25 -8 -3 3 3 12
13 20 11 7 22 11 25 8 3 -3 -3 -12 -13 -20z m1209 -34 c8 0 15 -4 15 -10 0 -5
-7 -10 -15 -10 -22 0 -19 -40 3 -41 9 -1 29 -3 45 -5 20 -2 27 2 27 14 0 12 3
13 8 5 9 -15 54 -5 49 11 -2 6 -27 12 -55 14 -71 4 -66 22 7 22 52 0 59 -2 65
-22 9 -35 7 -48 -7 -48 -7 0 -21 -6 -31 -13 -18 -13 -18 -15 -1 -41 10 -14 15
-29 12 -32 -3 -3 -43 -9 -89 -14 -107 -11 -151 -24 -191 -59 -17 -15 -38 -26
-45 -24 -7 3 -15 -7 -18 -26 -4 -17 -10 -31 -15 -31 -12 0 -11 17 1 59 5 19 8
36 6 39 -2 2 -18 -4 -36 -13 -17 -9 -36 -15 -42 -13 -6 2 11 15 37 29 46 23
49 28 60 79 16 85 32 98 71 62 47 -44 102 -23 91 35 -3 15 -1 36 5 47 9 17 11
18 20 3 5 -10 16 -17 23 -17z m195 -2 c0 -5 -4 -8 -10 -8 -5 0 -10 10 -10 23
0 18 2 19 10 7 5 -8 10 -18 10 -22z m1921 21 c15 -7 24 -7 34 1 11 9 22 7 49
-5 20 -10 36 -21 36 -26 0 -5 9 -9 20 -9 11 0 20 -3 20 -6 0 -5 -19 -45 -25
-52 -7 -8 -164 88 -165 101 0 10 8 9 31 -4z m-101 -44 c0 -5 5 -3 10 5 8 13
10 13 10 -1 0 -9 -3 -19 -6 -22 -8 -7 -64 30 -64 43 0 12 50 -13 50 -25z
m-3300 0 c0 -8 -7 -15 -15 -15 -26 0 -18 20 13 29 1 1 2 -6 2 -14z m3451 -86
c11 -5 17 -14 14 -20 -7 -11 -45 7 -45 21 0 13 7 13 31 -1z m-1224 -21 c-2
-18 7 -25 43 -38 26 -9 46 -23 48 -33 2 -10 13 -17 27 -17 13 0 27 -4 30 -10
3 -5 -3 -10 -14 -10 -25 0 -27 -13 -6 -34 8 -8 15 -24 15 -35 0 -18 -5 -21
-27 -16 -16 2 -36 15 -46 27 -27 34 -39 49 -77 92 -19 22 -29 36 -21 31 11 -6
13 -3 8 14 -6 26 1 51 14 51 5 0 8 -10 6 -22z m778 10 c28 -12 35 -34 8 -23
-10 4 -26 10 -35 12 -19 6 -25 23 -8 23 5 0 21 -5 35 -12z m-85 -27 c0 -5 14
-12 30 -16 23 -5 29 -11 26 -23 -3 -10 -8 -30 -12 -45 -5 -22 -10 -26 -28 -21
-11 3 -26 12 -32 20 -9 12 -14 10 -30 -7 -10 -12 -17 -24 -16 -28 23 -41 23
-41 1 -41 -21 0 -21 -1 -6 -18 23 -25 21 -29 -8 -29 -14 0 -25 5 -25 13 0 8
-6 11 -15 8 -24 -10 -18 6 15 36 35 33 40 69 10 77 -11 3 -20 9 -20 14 0 13
23 52 35 61 14 11 75 10 75 -1z m710 -11 c0 -10 -10 -20 -22 -24 -38 -10 -48
-7 -48 13 0 21 12 28 48 28 14 0 22 -5 22 -17z m-3720 0 c0 -13 -11 -13 -30 0
-12 8 -11 10 8 10 12 0 22 -4 22 -10z m60 -22 c0 -13 -32 -6 -37 9 -3 7 3 9
16 6 12 -3 21 -10 21 -15z m3247 -44 c-10 -10 -37 16 -37 34 0 13 4 12 22 -5
12 -13 19 -25 15 -29z m-3202 26 c3 -5 -1 -10 -9 -10 -8 0 -18 5 -21 10 -3 6
1 10 9 10 8 0 18 -4 21 -10z m3764 4 c17 -4 31 -11 31 -16 0 -12 -80 0 -94 13
-12 11 17 12 63 3z m-3703 -41 c-8 -8 -36 5 -36 17 0 7 6 7 21 0 11 -7 18 -14
15 -17z m714 -3 c0 -5 -15 -10 -32 -11 -88 -3 -86 -12 18 -65 55 -29 117 -54
138 -57 22 -4 44 -11 50 -17 27 -28 -96 6 -189 52 -123 62 -129 66 -111 83 21
22 126 34 126 15z m-670 -22 c0 -13 -23 -5 -28 10 -2 7 2 10 12 6 9 -3 16 -11
16 -16z m3765 12 c3 -5 12 -7 20 -3 19 7 20 -20 2 -35 -18 -15 -57 -3 -57 17
0 28 22 42 35 21z m-1058 -26 c-3 -3 -12 -4 -19 -1 -8 3 -5 6 6 6 11 1 17 -2
13 -5z m556 -11 c4 -2 5 -8 2 -13 -6 -10 -85 9 -85 22 0 8 64 1 83 -9z m1208
-7 c-9 -11 -6 -17 19 -27 16 -8 30 -17 30 -21 0 -16 -45 -7 -67 14 -21 20 -21
22 -5 34 23 18 37 18 23 0z m-1521 -20 c0 -3 -4 -8 -10 -11 -5 -3 -10 -1 -10
4 0 6 5 11 10 11 6 0 10 -2 10 -4z m105 -38 c53 -25 92 -55 82 -64 -4 -4 -13
-2 -19 4 -19 19 -25 14 -26 -18 -1 -31 15 -39 36 -18 9 9 12 7 12 -10 0 -12
-6 -22 -12 -23 -10 0 -10 -2 -1 -5 7 -3 10 -11 7 -18 -7 -18 27 -30 38 -14 6
10 10 10 18 -2 8 -13 10 -12 10 3 0 15 6 17 38 11 37 -6 36 -6 -25 36 -54 36
-77 60 -58 60 8 0 123 -77 137 -91 16 -18 48 -77 48 -90 0 -16 -27 -10 -132
32 l-103 40 -104 -7 c-56 -3 -98 -10 -91 -14 10 -6 40 -56 40 -66 0 -2 -5 -4
-11 -4 -15 0 -48 42 -49 61 0 9 -7 19 -15 23 -21 8 -19 22 4 22 11 0 18 -4 15
-8 -5 -8 65 2 87 13 9 4 20 4 26 -2 5 -5 23 -6 40 -3 36 7 54 34 23 34 -11 0
-20 6 -20 14 0 7 -13 16 -30 20 -16 3 -30 10 -30 15 0 5 9 7 21 4 20 -6 69 14
69 28 0 3 -25 17 -55 29 -30 12 -55 27 -55 32 0 11 29 3 85 -24z m84 -9 c13
-17 20 -33 16 -37 -6 -6 -54 46 -55 61 0 16 18 5 39 -24z m-529 9 c0 -6 9 -22
21 -34 l20 -22 -29 -4 c-22 -3 -38 3 -63 25 -19 16 -23 22 -9 13 31 -20 44
-20 36 0 -3 9 -4 20 0 25 8 13 24 11 24 -3z m310 -84 c-7 -24 -17 -44 -21 -44
-13 0 -11 15 8 78 13 44 18 51 21 33 2 -13 -2 -44 -8 -67z m1228 54 c7 -7 12
-16 12 -20 0 -15 -15 -8 -28 12 -13 22 -3 27 16 8z m672 -8 c10 -6 12 -12 5
-19 -7 -7 -14 -4 -23 9 -13 21 -6 25 18 10z m-4325 -19 c-3 -5 0 -13 6 -16 5
-4 8 -14 5 -22 -5 -11 1 -14 27 -12 36 3 97 -9 97 -19 0 -4 -61 -7 -135 -7
-74 0 -135 -3 -135 -7 0 -5 -10 -8 -22 -8 -22 1 -22 1 -3 12 11 6 28 21 37 32
15 19 17 19 18 4 0 -18 30 -26 30 -9 0 5 7 12 16 15 12 4 15 2 10 -9 -6 -17
11 -20 33 -6 12 8 12 12 -2 26 -19 18 -14 35 9 35 8 0 13 -4 9 -9z m-58 -22
c-14 -8 -22 -8 -30 0 -8 8 -3 11 19 11 25 -1 27 -2 11 -11z m4625 -42 c-20
-19 -32 -26 -32 -17 0 15 52 62 59 54 3 -3 -9 -19 -27 -37z m-4208 -30 c-17
-10 -34 -1 -34 18 0 10 5 11 24 2 20 -10 22 -14 10 -20z m56 18 c0 -8 -7 -15
-15 -15 -16 0 -20 12 -8 23 11 12 23 8 23 -8z m2824 -11 c15 -14 26 -28 23
-31 -7 -7 -67 35 -67 48 0 15 13 10 44 -17z m-3044 6 c0 -13 -11 -13 -30 0
-12 8 -11 10 8 10 12 0 22 -4 22 -10z m53 -7 c-7 -2 -19 -2 -25 0 -7 3 -2 5
12 5 14 0 19 -2 13 -5z m62 -3 c3 -5 -1 -10 -9 -10 -8 0 -18 5 -21 10 -3 6 1
10 9 10 8 0 18 -4 21 -10z m4292 -35 c14 -44 -1 -47 -16 -4 -13 38 -13 39 -3
39 5 0 13 -16 19 -35z m-983 0 c37 -14 77 -32 90 -40 12 -8 62 -25 111 -37 50
-13 90 -29 93 -37 3 -10 0 -12 -14 -7 -11 4 -51 16 -91 26 -39 10 -89 28 -111
39 -114 58 -180 71 -252 50 -41 -13 -130 -4 -130 12 0 6 19 7 48 4 26 -3 61
-1 77 4 52 16 110 12 179 -14z m-744 -4 c0 -5 -3 -17 -6 -26 -5 -12 -9 -14
-14 -4 -5 7 -6 18 -3 26 6 15 23 18 23 4z m285 -11 c-3 -6 -48 -10 -100 -10
-52 0 -97 4 -100 10 -4 6 32 10 100 10 68 0 104 -4 100 -10z m-211 -22 c7 -29
-8 -44 -27 -27 -11 10 -12 18 -3 31 14 24 22 23 30 -4z m1346 -28 c-18 -11
-24 -6 -16 16 5 14 9 15 19 5 9 -9 9 -14 -3 -21z m-46 4 c20 -8 21 -24 2 -24
-8 0 -16 7 -20 15 -6 17 -4 18 18 9z m-24 -25 c0 -5 -4 -9 -10 -9 -5 0 -10 7
-10 16 0 8 5 12 10 9 6 -3 10 -10 10 -16z m-80 -29 c0 -11 -4 -20 -8 -20 -4 0
-8 9 -9 20 -1 11 2 20 8 20 5 0 9 -9 9 -20z m-150 -15 c-7 -9 -7 -15 -1 -19 5
-4 14 1 19 10 5 9 12 13 15 8 3 -5 -1 -17 -8 -27 -11 -16 -17 -17 -37 -6 -33
17 -33 17 -13 39 19 21 43 17 25 -5z m829 -90 c30 -14 52 -28 49 -30 -3 -3
-25 4 -49 15 -24 11 -52 20 -61 20 -9 0 -20 5 -23 10 -11 18 29 11 84 -15z
m-560 -9 c6 -8 35 -17 64 -20 29 -4 77 -18 106 -31 29 -14 58 -22 64 -18 6 4
7 1 2 -7 -6 -10 -4 -12 9 -7 10 4 15 3 11 -3 -6 -9 10 -14 42 -13 7 1 11 -3 8
-7 -7 -12 94 -82 107 -74 6 4 8 3 5 -3 -4 -6 16 -26 46 -44 28 -18 93 -72 142
-119 108 -104 144 -132 158 -123 6 3 7 1 3 -5 -8 -13 28 -35 39 -24 5 4 5 2 2
-4 -9 -15 59 -67 75 -58 7 5 8 3 3 -6 -6 -10 -3 -12 13 -8 12 4 20 2 16 -3 -3
-5 6 -9 20 -9 14 0 26 -4 26 -10 0 -16 -47 -12 -83 6 -54 28 -197 143 -287
229 -47 46 -125 110 -175 143 -49 34 -101 70 -115 81 -14 11 -31 21 -38 21 -7
0 -36 14 -66 30 -29 17 -86 37 -125 44 -68 13 -101 28 -101 47 0 14 16 11 29
-5z m2300 -397 c14 -40 14 -39 -3 -39 -13 0 -26 28 -26 58 0 24 18 12 29 -19z
m114 -284 c15 -13 27 -28 27 -34 0 -5 10 -18 23 -28 13 -10 30 -32 38 -48 12
-26 20 -30 56 -31 33 -1 47 -7 62 -26 11 -13 38 -33 60 -43 39 -17 54 -35 30
-35 -17 0 -81 40 -106 67 -17 18 -29 22 -48 17 -27 -7 -80 20 -70 36 3 4 -11
23 -30 41 -19 19 -35 39 -35 45 0 6 -11 20 -25 30 -24 18 -33 34 -17 34 4 0
19 -12 35 -25z"/>
<path d="M5638 7528 c-10 -8 -22 -41 -28 -76 -6 -35 -14 -70 -17 -78 -3 -9 2
-14 16 -14 12 0 21 5 21 10 0 6 12 20 26 32 23 21 25 27 19 73 -8 59 -15 69
-37 53z"/>
<path d="M4200 4336 c0 -9 5 -16 10 -16 6 0 10 4 10 9 0 6 -4 13 -10 16 -5 3
-10 -1 -10 -9z"/>
<path d="M3640 4128 c0 -17 2 -18 15 -8 8 7 15 14 15 15 0 2 -7 5 -15 9 -10 4
-15 -1 -15 -16z"/>
<path d="M1838 3818 c-22 -18 -29 -45 -13 -51 7 -3 21 3 31 14 9 10 27 19 38
19 21 1 21 1 2 15 -24 18 -37 19 -58 3z"/>
<path d="M2770 3394 c0 -4 8 -13 18 -21 18 -15 13 -15 -55 3 -21 6 -23 3 -23
-31 0 -33 2 -36 23 -30 12 4 27 13 33 21 6 8 18 14 26 14 24 0 29 12 11 32
-16 18 -33 24 -33 12z"/>
<path d="M2840 3331 c0 -5 5 -13 10 -16 6 -3 10 -2 10 4 0 5 -4 13 -10 16 -5
3 -10 2 -10 -4z"/>
<path d="M2770 3300 c0 -5 6 -10 14 -10 8 0 18 5 21 10 3 6 -3 10 -14 10 -12
0 -21 -4 -21 -10z"/>
<path d="M2041 3654 c0 -11 3 -14 6 -6 3 7 2 16 -1 19 -3 4 -6 -2 -5 -13z"/>
<path d="M2060 3640 c0 -5 5 -10 11 -10 5 0 7 5 4 10 -3 6 -8 10 -11 10 -2 0
-4 -4 -4 -10z"/>
<path d="M2120 3635 c0 -9 9 -15 23 -15 42 0 68 -12 62 -27 -4 -12 0 -14 20
-9 15 4 25 2 25 -4 0 -6 5 -8 11 -5 15 10 -14 27 -83 53 -48 18 -58 19 -58 7z"/>
<path d="M2076 3568 c18 -35 32 -35 72 1 l32 29 -59 -1 -59 -2 14 -27z"/>
<path d="M2280 3560 c0 -13 28 -25 38 -16 3 4 0 11 -8 16 -20 13 -30 12 -30 0z"/>
<path d="M1832 3613 c-10 -4 -9 -8 5 -19 26 -20 42 -17 36 6 -5 20 -16 23 -41
13z"/>
<path d="M1904 3604 c3 -9 6 -20 6 -25 0 -5 13 -9 30 -9 21 0 28 4 24 14 -3 9
-12 12 -22 9 -11 -5 -14 -2 -9 10 5 13 1 17 -14 17 -15 0 -19 -5 -15 -16z"/>
<path d="M1810 3571 c0 -5 5 -13 10 -16 6 -3 10 -2 10 4 0 5 -4 13 -10 16 -5
3 -10 2 -10 -4z"/>
<path d="M1340 3541 c0 -5 7 -11 14 -14 10 -4 13 -1 9 9 -6 15 -23 19 -23 5z"/>
<path d="M1468 3499 c-21 -5 -59 -22 -85 -38 -52 -32 -67 -33 -38 -1 18 19 17
20 -3 20 -17 0 -22 -8 -28 -45 -8 -56 -1 -65 30 -36 31 30 135 61 200 61 60 0
69 5 55 31 -11 21 -64 24 -131 8z"/>
<path d="M2460 3416 c0 -7 7 -19 15 -26 9 -8 15 -8 15 -2 0 6 3 17 6 26 4 12
0 16 -15 16 -12 0 -21 -6 -21 -14z"/>
<path d="M2507 3393 c-7 -37 10 -54 19 -19 3 15 2 32 -3 37 -7 7 -12 1 -16
-18z"/>
<path d="M2540 3349 c0 -11 5 -17 10 -14 6 3 10 13 10 21 0 8 -4 14 -10 14 -5
0 -10 -9 -10 -21z"/>
<path d="M2540 3310 c0 -5 5 -10 11 -10 5 0 7 5 4 10 -3 6 -8 10 -11 10 -2 0
-4 -4 -4 -10z"/>
<path d="M3096 3414 c-11 -7 -17 -16 -15 -19 3 -3 14 2 25 9 10 8 17 17 14 19
-3 3 -14 -1 -24 -9z"/>
<path d="M3610 3070 c0 -12 42 -31 50 -23 6 5 -30 33 -42 33 -4 0 -8 -5 -8
-10z"/>
</g>
</svg>
