<?xml version="1.0" standalone="no"?>
<!DOCTYPE svg PUBLIC "-//W3C//DTD SVG 20010904//EN"
 "http://www.w3.org/TR/2001/REC-SVG-20010904/DTD/svg10.dtd">
<svg version="1.0" xmlns="http://www.w3.org/2000/svg"
 width="800.000000pt" height="800.000000pt" viewBox="0 0 800.000000 800.000000"
 preserveAspectRatio="xMidYMid meet">
<metadata>
Created by potrace 1.16, written by Peter Selinger 2001-2019
</metadata>
<g transform="translate(0.000000,800.000000) scale(0.100000,-0.100000)"
fill="#000000" stroke="none">
<path d="M0 7155 l0 -845 65 0 c51 0 65 -3 65 -15 0 -12 -14 -15 -65 -15 l-65
0 0 -135 c0 -79 4 -135 10 -135 5 0 10 -26 12 -57 l3 -58 397 -3 397 -2 -6
237 c-4 185 -3 235 6 227 9 -8 14 -82 18 -239 l6 -227 219 3 c170 3 218 1 218
-8 0 -10 -96 -13 -455 -13 l-455 0 0 -61 c0 -37 -4 -58 -10 -54 -5 3 -10 31
-10 61 l0 54 -160 0 -159 0 -3 -57 c-2 -40 -7 -57 -15 -55 -7 1 -13 -5 -13
-13 0 -8 6 -14 12 -13 9 2 14 -13 16 -44 4 -57 -15 -66 -21 -10 -2 20 -4 -32
-5 -115 l-1 -153 50 0 c41 0 49 -3 49 -19 0 -10 -10 -26 -23 -34 l-22 -16 27
0 c15 -1 30 -5 33 -11 15 -24 25 -7 20 34 -3 25 -2 47 3 50 5 3 12 -16 16 -43
4 -27 11 -63 17 -81 10 -28 14 -30 42 -24 16 3 63 0 104 -7 80 -14 75 -9 88
-93 l6 -38 51 4 c27 3 53 10 57 16 3 6 25 12 48 14 l42 3 -44 48 c-48 52 -55
55 -55 30 0 -10 -5 -25 -11 -33 -7 -11 -9 -1 -4 35 6 58 1 69 -40 86 l-30 12
53 8 c59 8 81 19 38 19 -16 0 -25 4 -21 10 10 15 55 12 61 -5 8 -20 50 -19 58
1 5 13 16 15 59 9 28 -3 76 -6 105 -5 l52 0 0 -105 c0 -91 -2 -104 -16 -98
-13 5 -15 -3 -14 -48 1 -30 1 -57 1 -61 -1 -11 -41 25 -41 37 -1 5 -16 17 -35
26 -34 16 -34 16 -23 -5 16 -32 50 -66 65 -66 7 0 13 -4 13 -10 0 -5 -3 -10
-8 -10 -4 0 -7 -15 -7 -32 l0 -33 -57 0 c-32 -1 -63 -6 -70 -13 -9 -9 0 -12
42 -12 36 0 51 -3 44 -10 -12 -12 -126 -15 -166 -5 -39 10 -35 25 5 20 l32 -5
-32 11 c-31 11 -32 12 -32 82 l0 70 44 -7 c25 -3 45 -2 45 2 0 17 -26 32 -55
32 -55 0 -59 -9 -51 -104 5 -58 4 -86 -3 -86 -7 0 -11 31 -11 79 l0 80 -52 3
-53 3 -9 58 c-8 53 -10 57 -35 57 -14 0 -41 4 -60 10 -19 5 -44 7 -56 4 -20
-5 -21 -10 -17 -54 3 -34 -2 -65 -17 -105 -18 -46 -19 -60 -9 -66 10 -7 9 -9
-4 -9 -10 0 -20 -10 -22 -22 -15 -69 -13 -65 -21 -41 -5 16 -15 21 -41 21 -18
0 -41 7 -49 16 -9 9 -25 16 -36 16 -19 0 -19 -13 -19 -500 l0 -500 118 0 c66
0 153 3 195 6 l77 7 0 33 c0 19 5 34 11 34 6 0 9 -15 7 -37 l-3 -38 189 -3
c156 -2 193 0 212 13 27 18 34 19 34 4 0 -5 -16 -17 -36 -25 -29 -12 -73 -15
-219 -12 l-183 3 -7 -67 c-4 -38 -11 -68 -16 -68 -5 0 -6 31 -2 72 l6 71 -84
-6 c-46 -4 -132 -7 -192 -7 l-107 0 0 -326 1 -327 312 7 c172 4 382 9 467 11
396 11 513 9 459 -9 -13 -4 -417 -17 -987 -32 l-252 -7 0 -222 c0 -169 3 -225
13 -228 10 -4 10 -6 0 -6 -10 -1 -13 -292 -13 -1421 l0 -1420 566 2 566 3 50
120 c53 127 55 131 63 123 3 -3 -9 -38 -26 -79 -17 -41 -39 -95 -50 -121 l-19
-48 632 0 631 0 -6 107 c-11 182 -17 663 -7 603 4 -30 8 -92 9 -137 1 -54 5
-83 14 -87 9 -5 9 -7 0 -12 -9 -4 -11 -59 -7 -217 3 -117 7 -222 10 -235 l4
-22 2785 0 2785 0 0 4000 0 4000 -434 0 -433 0 -7 -37 c-3 -21 -6 -60 -6 -86
0 -30 -4 -46 -10 -42 -6 3 -10 15 -10 27 0 16 -5 19 -25 16 -17 -4 -25 -1 -25
8 0 8 7 15 15 15 8 1 21 2 28 3 7 1 13 20 15 49 l3 47 -198 -1 c-109 -1 -190
-3 -180 -6 28 -7 18 -54 -16 -73 -26 -14 -29 -14 -41 2 -15 20 -26 14 -26 -16
0 -15 -3 -17 -8 -8 -5 7 -16 10 -24 7 -10 -4 -17 1 -21 16 -5 20 -10 18 -89
-37 -56 -39 -100 -62 -138 -71 -65 -15 -80 -16 -80 -4 0 5 28 14 63 21 80 15
213 103 210 138 -4 29 11 28 31 -2 21 -32 55 -25 48 10 l-4 24 -281 -2 -280
-3 -8 -25 c-4 -14 -17 -60 -30 -103 -22 -76 -41 -96 -43 -45 -1 15 1 25 5 23
3 -3 14 26 24 63 10 37 20 73 23 80 3 9 -222 12 -1107 12 l-1112 0 3 -122 3
-123 34 -3 c18 -2 55 3 81 12 69 23 580 47 580 27 0 -5 -89 -12 -197 -16 -215
-7 -328 -18 -383 -34 -28 -8 -12 -10 75 -6 403 17 455 18 455 6 0 -6 -16 -11
-37 -11 -21 0 -165 -5 -320 -12 l-283 -12 0 -60 c0 -34 4 -144 9 -246 19 -376
23 -540 13 -540 -17 0 -21 45 -28 280 -11 442 -18 560 -34 571 -11 8 -12 12
-2 16 14 5 15 63 5 191 l-6 82 -32 0 c-39 0 -115 -47 -134 -83 -8 -15 -20 -27
-26 -27 -20 0 16 65 47 86 15 10 25 20 23 22 -2 2 -97 -48 -212 -111 -277
-152 -287 -157 -312 -150 -28 7 -27 23 2 21 22 -2 185 80 382 191 l90 51 -158
0 c-95 0 -166 -4 -179 -11 -14 -8 -23 -8 -31 0 -8 8 -474 11 -1634 11 l-1623
0 0 -845z m1495 795 c22 -11 53 -20 69 -20 21 0 27 -3 20 -10 -16 -16 -92 4
-118 29 -26 26 -21 26 29 1z m638 2 c-2 -7 2 -12 7 -12 6 0 10 -5 10 -11 0 -6
-10 -9 -22 -8 -13 2 -29 0 -35 -4 -17 -11 -17 25 -1 41 15 15 44 11 41 -6z
m4479 -74 c-9 -9 -15 -9 -24 0 -9 9 -7 12 12 12 19 0 21 -3 12 -12z m-768
-250 c3 -98 2 -178 -2 -178 -11 0 -22 146 -22 279 0 160 17 88 24 -101z m416
183 c0 -12 -62 -21 -147 -21 -76 0 -101 16 -35 23 75 8 182 7 182 -2z m-1519
-20 c13 -11 21 -23 17 -27 -5 -4 -17 1 -28 11 -17 15 -31 17 -100 11 -49 -4
-80 -3 -80 3 0 11 38 17 116 19 38 2 58 -3 75 -17z m2439 -16 c0 -9 -7 -11
-22 -8 -21 6 -21 5 -14 -103 4 -60 7 -116 8 -124 0 -8 6 -85 14 -170 23 -275
24 -305 14 -320 -8 -13 -10 -12 -11 5 -1 11 -2 25 -3 30 -1 6 -5 47 -10 93 -4
45 -12 82 -18 82 -5 0 -7 -21 -4 -52 3 -29 11 -104 16 -167 6 -63 14 -119 17
-124 3 -6 1 -7 -5 -3 -7 4 -12 2 -12 -3 0 -6 11 -11 25 -11 18 0 25 -5 25 -20
0 -11 -7 -20 -15 -20 -8 0 -15 -5 -15 -11 0 -6 7 -8 16 -5 14 5 16 1 11 -28
-3 -18 -1 -38 3 -42 5 -5 5 -16 0 -24 -7 -10 -10 -11 -10 -2 0 6 -4 12 -10 12
-18 0 -10 -32 9 -37 13 -3 17 -11 13 -26 -5 -20 -6 -20 -12 -1 -6 15 -8 13
-12 -13 -4 -29 -2 -32 16 -27 20 5 21 2 16 -62 -3 -37 -9 -69 -15 -71 -6 -2
-9 18 -7 51 3 45 1 54 -15 58 -17 5 -19 14 -16 84 2 43 0 86 -3 94 -4 8 -8 32
-8 54 -2 24 -9 43 -20 51 -15 11 -15 14 -2 22 13 7 12 33 -5 218 -22 246 -21
235 -10 235 4 0 11 -27 15 -60 4 -33 11 -58 16 -55 7 4 7 26 0 45 -2 3 -4 30
-5 60 -1 30 -6 93 -11 140 -4 47 -8 122 -9 167 0 79 -1 83 -22 83 -20 0 -23
-5 -23 -44 0 -61 -16 -67 -23 -9 -7 66 -3 72 61 75 65 3 72 2 72 -17z m-6630
-145 c0 -67 -4 -110 -10 -110 -5 0 -10 14 -10 31 0 16 -4 28 -9 25 -5 -3 -12
6 -16 21 -4 19 -2 29 9 35 11 6 16 24 16 58 0 28 5 50 10 50 6 0 10 -43 10
-110z m3994 1 c7 -11 -81 -19 -308 -27 -142 -6 -187 -4 -182 4 5 8 43 12 104
13 53 1 147 5 207 9 171 10 173 11 179 1z m1350 -170 c-14 -15 -31 69 -19 96
6 13 10 3 16 -37 4 -30 6 -57 3 -59z m-4119 61 c4 10 15 15 26 13 31 -6 39
-15 39 -41 0 -14 -4 -22 -10 -19 -5 3 -10 1 -10 -4 0 -21 -80 -5 -97 18 -14
20 -13 23 3 36 16 11 20 10 30 -4 12 -15 13 -15 19 1z m709 6 c5 -10 7 -10 12
0 3 7 24 12 50 12 37 0 44 -3 44 -20 0 -12 12 -26 30 -35 33 -17 47 -38 52
-78 5 -31 51 -77 79 -77 10 0 19 -6 19 -14 0 -8 3 -22 7 -31 5 -14 3 -16 -13
-7 -15 8 -24 4 -44 -18 -14 -15 -24 -33 -22 -39 5 -15 -13 -14 -26 2 -8 10 -2
20 26 42 20 17 43 33 52 38 8 4 0 5 -19 2 -19 -3 -42 -12 -51 -20 -9 -8 -22
-15 -28 -15 -6 0 -12 -10 -14 -22 -2 -19 -10 -24 -46 -26 -24 -2 -50 2 -58 9
-8 7 -28 13 -44 14 -24 2 -32 -3 -42 -26 -7 -16 -16 -29 -20 -29 -16 0 -7 34
13 56 l21 23 -21 -6 c-12 -3 -21 -1 -21 6 0 6 7 11 15 11 8 0 15 4 15 8 0 5
11 15 25 22 20 11 27 11 40 0 8 -7 15 -19 15 -28 0 -28 28 -49 60 -44 24 3 30
9 30 28 0 15 6 24 15 24 8 0 29 9 46 19 l31 19 -24 16 c-14 9 -33 14 -42 10
-9 -3 -16 -2 -16 4 0 5 6 12 14 15 11 4 12 14 6 44 -5 21 -14 39 -20 41 -7 3
-27 17 -45 33 -32 29 -78 38 -90 19 -4 -7 -12 -7 -25 0 -10 5 -31 10 -47 10
-22 0 -25 2 -13 10 21 14 67 12 74 -2z m-1056 -10 c-3 -9 -25 -13 -63 -13 -38
0 -60 4 -62 13 -4 9 13 12 62 12 49 0 66 -3 63 -12z m106 6 c13 -5 16 -23 16
-90 0 -48 -4 -84 -10 -84 -13 0 -21 36 -19 85 2 63 0 75 -16 75 -8 0 -15 5
-15 10 0 11 20 13 44 4z m849 -19 c-5 -13 -23 -22 -23 -11 0 15 14 35 21 31 4
-3 6 -12 2 -20z m-38 -47 l8 -23 4 23 c6 32 23 27 23 -8 0 -29 -2 -30 -42 -30
-33 0 -39 3 -30 12 7 7 12 20 12 30 0 25 16 22 25 -4z m4515 -19 c0 -5 -9 -9
-20 -9 -19 0 -26 11 -14 23 8 8 34 -3 34 -14z m223 -11 c4 -12 4 -24 1 -27 -6
-7 -24 20 -24 37 0 21 17 13 23 -10z m-4602 -25 c-8 -15 -10 -15 -11 -2 0 17
10 32 18 25 2 -3 -1 -13 -7 -23z m43 1 c8 -21 8 -24 -3 -24 -5 0 -11 9 -14 20
-6 24 8 27 17 4z m-144 -15 c0 -11 4 -18 9 -15 4 3 17 -1 27 -10 18 -14 18
-15 -3 -9 -19 5 -23 2 -23 -16 0 -34 -16 -11 -24 34 -4 23 -3 37 4 37 5 0 10
-9 10 -21z m3609 -21 c1 -5 -3 -8 -9 -8 -5 0 -10 12 -9 28 0 24 1 25 9 7 5
-11 9 -23 9 -27z m661 13 c0 -6 -4 -13 -10 -16 -5 -3 -10 1 -10 9 0 9 5 16 10
16 6 0 10 -4 10 -9z m445 -57 c6 -58 3 -85 -9 -73 -10 10 -18 139 -8 139 5 0
13 -30 17 -66z m-4624 13 c-8 -8 -11 -5 -11 9 0 27 14 41 18 19 2 -9 -1 -22
-7 -28z m92 28 c4 -8 2 -17 -3 -20 -6 -4 -10 -4 -10 -1 0 2 -3 11 -6 20 -3 9
-2 16 4 16 5 0 12 -7 15 -15z m-123 -45 c0 -11 -4 -20 -10 -20 -5 0 -10 9 -10
20 0 11 5 20 10 20 6 0 10 -9 10 -20z m2627 -25 c2 -6 -21 -10 -54 -10 -32 0
-145 -4 -250 -9 -143 -6 -193 -6 -193 3 0 7 31 11 93 12 50 1 139 5 197 9 135
9 203 8 207 -5z m-2227 -25 c0 -5 -9 -10 -20 -10 -11 0 -20 5 -20 10 0 6 9 10
20 10 11 0 20 -4 20 -10z m50 -10 c0 -5 -6 -10 -14 -10 -8 0 -18 5 -21 10 -3
6 3 10 14 10 12 0 21 -4 21 -10z m2940 -17 c-1 -27 -91 -55 -105 -33 -3 5 2
10 12 10 11 0 23 4 29 9 8 8 31 16 57 20 4 0 7 -2 7 -6z m-2955 -22 c-8 -13
-35 -15 -35 -2 0 5 8 11 18 13 21 5 26 2 17 -11z m-115 -1 c0 -5 -9 -10 -20
-10 -11 0 -20 5 -20 10 0 6 9 10 20 10 11 0 20 -4 20 -10z m60 0 c0 -5 -9 -10
-20 -10 -11 0 -20 5 -20 10 0 6 9 10 20 10 11 0 20 -4 20 -10z m280 -16 c0
-26 0 -26 -26 -9 -16 10 -35 14 -50 11 -13 -4 -24 -2 -24 3 0 6 19 12 43 14
23 2 45 4 50 5 4 1 7 -10 7 -24z m1373 12 c6 -15 -1 -26 -15 -26 -4 0 -8 9 -8
20 0 23 15 27 23 6z m-3762 -109 c-8 -8 -11 -3 -11 19 1 25 2 27 11 11 8 -14
8 -22 0 -30z m421 -69 c6 -37 -2 -57 -23 -55 -10 1 -19 4 -20 7 0 3 -2 14 -5
25 -5 29 3 45 25 45 12 0 20 -8 23 -22z m6058 -38 c0 -11 -4 -20 -10 -20 -5 0
-10 9 -10 20 0 11 5 20 10 20 6 0 10 -9 10 -20z m-1690 -95 c0 -30 -4 -55 -10
-55 -20 0 -9 -23 24 -55 39 -36 33 -54 -14 -47 -30 4 -87 48 -76 59 3 4 16 -3
29 -14 12 -11 32 -23 45 -26 23 -5 23 -5 -3 19 -24 23 -26 28 -19 86 l7 63
-23 -20 -23 -20 8 23 c6 21 4 23 -14 17 -12 -3 -21 -2 -21 3 0 14 18 20 58 21
l32 1 0 -55z m1690 33 c0 -19 -2 -20 -10 -8 -13 19 -13 30 0 30 6 0 10 -10 10
-22z m-106 -35 c9 -60 7 -201 -4 -208 -6 -4 -10 26 -10 82 0 48 -3 105 -6 126
-4 22 -3 37 3 37 6 0 13 -17 17 -37z m-5569 -13 c3 -5 -1 -10 -9 -10 -9 0 -16
5 -16 10 0 6 4 10 9 10 6 0 13 -4 16 -10z m-71 -8 c2 -4 0 -14 -5 -22 -8 -13
-10 -13 -19 0 -7 11 -10 12 -10 2 0 -10 -3 -10 -15 2 -8 8 -15 17 -15 20 0 9
58 7 64 -2z m-394 -72 c0 -6 -35 -10 -84 -10 -47 0 -96 -4 -110 -10 -14 -5
-28 -5 -31 0 -3 4 7 13 22 18 37 14 203 15 203 2z m2820 -20 c0 -11 -4 -20
-10 -20 -5 0 -10 9 -10 20 0 11 5 20 10 20 6 0 10 -9 10 -20z m-237 -107 c14
-208 20 -633 10 -633 -10 0 -17 115 -29 518 -5 140 -4 212 3 212 6 0 13 -43
16 -97z m1672 87 c3 -6 -4 -10 -17 -10 -18 0 -20 2 -8 10 19 12 18 12 25 0z
m-3075 -50 c0 -5 -5 -10 -11 -10 -5 0 -7 5 -4 10 3 6 8 10 11 10 2 0 4 -4 4
-10z m3130 -25 c0 -8 -7 -15 -15 -15 -8 0 -15 7 -15 15 0 8 7 15 15 15 8 0 15
-7 15 -15z m-2959 -10 c1 -17 -18 -17 -25 0 -4 11 -1 15 10 13 8 -2 15 -7 15
-13z m-51 -10 c10 -13 9 -15 -9 -15 -12 0 -21 6 -21 15 0 8 4 15 9 15 5 0 14
-7 21 -15z m4690 -103 c0 -42 3 -101 6 -129 6 -50 8 -53 35 -53 l29 0 0 69 c0
39 5 73 10 76 6 4 10 -43 10 -134 0 -87 -4 -141 -10 -141 -5 0 -10 25 -10 55
0 52 -1 55 -25 55 -25 0 -25 0 -10 -30 20 -38 5 -39 -23 -1 -20 28 -23 29 -86
24 -46 -4 -66 -2 -66 6 0 6 18 11 43 11 90 0 86 -6 80 147 -5 102 -3 134 5
129 8 -4 12 -37 12 -84z m-6810 18 c0 -5 -9 -10 -20 -10 -11 0 -20 5 -20 10 0
6 9 10 20 10 11 0 20 -4 20 -10z m-65 -10 c-3 -5 -13 -10 -21 -10 -8 0 -14 5
-14 10 0 6 9 10 21 10 11 0 17 -4 14 -10z m4425 -11 c0 -5 -4 -9 -10 -9 -5 0
-10 7 -10 16 0 8 5 12 10 9 6 -3 10 -10 10 -16z m-4470 -16 c0 -20 -3 -24 -11
-16 -7 7 -9 19 -6 27 10 24 17 19 17 -11z m1810 -21 c0 -25 1 -25 14 -6 16 21
28 15 33 -16 2 -15 -3 -20 -20 -21 -17 -1 -16 -3 8 -9 24 -5 27 -8 13 -14 -9
-4 -27 -6 -40 -4 -20 3 -23 9 -26 56 -2 36 0 52 7 47 6 -3 11 -18 11 -33z
m2660 -17 c0 -14 -4 -25 -10 -25 -5 0 -10 11 -10 25 0 14 5 25 10 25 6 0 10
-11 10 -25z m-4470 -22 c0 -20 -3 -24 -11 -16 -7 7 -9 19 -6 27 10 24 17 19
17 -11z m5180 7 c0 -5 -4 -10 -10 -10 -5 0 -10 5 -10 10 0 6 5 10 10 10 6 0
10 -4 10 -10z m1520 0 c0 -5 7 -10 15 -10 27 0 16 -18 -15 -25 -16 -4 -39 -19
-49 -34 -31 -43 -154 -85 -231 -79 -33 2 -63 7 -66 11 -4 4 -3 21 2 38 13 45
82 92 147 100 86 10 197 10 197 -1z m391 -63 c18 -67 -14 -1038 -41 -1217 -7
-54 -8 -54 -9 30 0 47 4 114 10 150 6 36 11 170 13 298 2 186 0 232 -11 232
-20 0 -15 17 7 23 16 4 20 14 21 54 2 64 0 75 -17 94 -19 21 -18 29 7 29 15 0
19 5 15 18 -3 9 -6 70 -8 134 -2 102 -4 117 -20 121 -21 6 -24 32 -5 52 17 20
30 14 38 -18z m-7094 -14 c-3 -10 -5 -4 -5 12 0 17 2 24 5 18 2 -7 2 -21 0
-30z m4517 -263 c17 0 65 5 106 11 84 11 190 13 199 3 3 -4 0 -9 -6 -11 -7 -3
-13 -11 -13 -19 0 -20 -20 -17 -21 4 -1 16 -2 16 -6 0 -6 -23 -43 -24 -43 -2
0 14 -8 16 -52 11 -29 -4 -86 -10 -125 -13 -52 -5 -73 -11 -73 -20 0 -8 -4
-14 -10 -14 -5 0 -10 6 -10 14 0 11 -22 13 -125 8 -90 -3 -125 -2 -125 7 0 7
26 11 79 11 43 0 99 3 124 6 l45 6 -5 118 c-8 173 9 187 20 18 l9 -138 32 0z
m-4505 198 c1 -5 -3 -8 -9 -8 -5 0 -10 12 -9 28 0 24 1 25 9 7 5 -11 9 -23 9
-27z m6691 -7 c0 -7 -33 -33 -109 -83 -14 -10 -21 -18 -16 -18 6 0 34 18 64
40 52 39 76 50 69 31 -5 -15 -67 -58 -118 -83 -32 -16 -64 -22 -114 -22 -69
-1 -70 -2 -108 -42 -51 -55 -88 -71 -128 -54 -22 9 -71 10 -191 5 -135 -6
-161 -5 -157 6 4 11 41 15 159 20 85 4 164 3 177 -2 49 -19 70 -10 130 50 58
59 59 59 129 66 74 8 78 9 158 63 54 35 55 36 55 23z m-1750 -121 l0 -40 55 0
c30 0 55 -4 55 -10 0 -5 -22 -10 -50 -10 l-50 0 0 -83 c0 -46 3 -151 6 -233
l7 -149 36 0 c33 0 36 -2 36 -30 0 -28 -2 -30 -37 -27 -38 4 -52 -11 -23 -22
9 -3 63 -3 120 1 68 4 105 2 105 -4 0 -11 -206 -27 -221 -17 -12 7 -11 -73 2
-409 10 -248 9 -301 -5 -286 -4 4 -31 661 -43 1046 l-6 213 -54 -6 c-37 -5
-53 -3 -53 5 0 6 12 11 28 11 59 0 72 9 72 51 0 22 5 39 10 39 6 0 10 -18 10
-40z m-2900 -31 c0 -33 -3 -40 -16 -35 -9 3 -22 6 -30 6 -8 0 -14 7 -14 16 0
27 20 54 40 54 17 0 20 -7 20 -41z m3860 15 c0 -16 -16 -19 -25 -4 -8 13 4 32
16 25 5 -4 9 -13 9 -21z m780 5 c0 -6 -4 -7 -10 -4 -5 3 -10 11 -10 16 0 6 5
7 10 4 6 -3 10 -11 10 -16z m-1500 -29 c0 -5 -12 -10 -27 -10 -16 0 -38 -3
-50 -6 -13 -4 -23 -2 -23 4 0 12 22 19 68 21 17 0 32 -3 32 -9z m1300 -34
c-14 -14 -24 0 -16 21 6 15 8 15 16 3 6 -9 5 -19 0 -24z m-770 -26 c0 -5 -19
-9 -42 -9 l-43 2 40 7 c22 4 41 8 43 9 1 0 2 -3 2 -9z m-190 -10 c0 -5 -4 -10
-10 -10 -5 0 -10 5 -10 10 0 6 5 10 10 10 6 0 10 -4 10 -10z m-3666 -6 c25
-10 8 -24 -27 -23 -18 1 -24 3 -14 6 9 2 17 9 17 14 0 11 3 11 24 3z m2326 -2
c0 -14 -39 -46 -47 -39 -3 4 2 16 12 27 19 21 35 26 35 12z m2843 -33 c7 -27
-2 -79 -14 -79 -5 0 -9 23 -9 50 0 51 13 67 23 29z m-5153 -9 c0 -5 -2 -10 -4
-10 -3 0 -8 5 -11 10 -3 6 -1 10 4 10 6 0 11 -4 11 -10z m-398 -55 c-5 -30
-28 -33 -35 -6 -6 23 0 31 23 31 13 0 16 -6 12 -25z m1348 -15 c0 -5 -4 -10
-10 -10 -5 0 -10 5 -10 10 0 6 5 10 10 10 6 0 10 -4 10 -10z m-1240 -49 c30
-27 52 -52 49 -55 -7 -7 -119 84 -119 96 0 16 16 7 70 -41z m456 9 c8 0 14 -4
14 -10 0 -5 -4 -10 -10 -10 -5 0 -10 -7 -10 -15 0 -8 -5 -15 -11 -15 -6 0 -9
7 -5 15 3 9 0 15 -9 15 -8 0 -15 6 -15 14 0 16 23 28 28 15 2 -5 10 -9 18 -9z
m-1567 -134 c7 -8 23 -17 36 -20 27 -7 43 -42 26 -59 -8 -8 -11 -5 -11 10 0
40 -118 81 -148 51 -9 -9 -12 -9 -12 1 0 8 -11 11 -32 9 -26 -2 -36 -10 -47
-35 -18 -40 -34 -43 -25 -5 9 37 13 42 38 52 36 15 162 12 175 -4z m1244 3
c-6 -6 -22 -17 -35 -23 -22 -11 -23 -17 -23 -104 0 -51 -3 -92 -6 -92 -8 0
-17 157 -11 182 2 9 18 23 35 32 38 18 56 21 40 5z m2356 -168 c1 -49 -3 -81
-8 -75 -10 11 -22 229 -13 239 10 10 20 -69 21 -164z m51 149 c0 -5 -2 -10 -4
-10 -3 0 -8 5 -11 10 -3 6 -1 10 4 10 6 0 11 -4 11 -10z m-2172 -161 c83 -66
156 -117 162 -114 6 4 9 -3 7 -17 -2 -13 -7 -22 -10 -20 -4 1 -11 2 -17 2 -5
0 -10 6 -10 13 0 6 -68 64 -150 127 -137 106 -163 130 -142 130 4 0 76 -54
160 -121z m4952 64 c0 -13 -3 -13 -15 -3 -8 7 -12 16 -9 21 8 13 24 1 24 -18z
m-2270 -3 c0 -5 -7 -10 -15 -10 -8 0 -15 5 -15 10 0 6 7 10 15 10 8 0 15 -4
15 -10z m-440 -40 c0 -5 -18 -10 -40 -10 -22 0 -40 5 -40 10 0 6 18 10 40 10
22 0 40 -4 40 -10z m420 -17 c0 -19 -17 -50 -22 -43 -2 3 -9 17 -16 33 -11 25
-10 27 13 27 17 0 25 -5 25 -17z m-366 -2 c8 -12 -29 -21 -86 -21 -68 0 -60
18 10 23 31 2 60 4 64 5 4 1 9 -2 12 -7z m2593 -17 c-3 -3 -12 -4 -19 -1 -8 3
-5 6 6 6 11 1 17 -2 13 -5z m-6897 -94 c0 -5 -9 -10 -20 -10 -11 0 -20 5 -20
10 0 6 9 10 20 10 11 0 20 -4 20 -10z m60 0 c0 -5 -9 -10 -20 -10 -11 0 -20 5
-20 10 0 6 9 10 20 10 11 0 20 -4 20 -10z m4730 -57 c0 -20 -3 -24 -11 -16 -7
7 -9 19 -6 27 10 24 17 19 17 -11z m-2130 -18 c0 -14 -4 -25 -10 -25 -5 0 -10
11 -10 25 0 14 5 25 10 25 6 0 10 -11 10 -25z m2720 -36 c0 -5 -9 -9 -20 -9
-11 0 -20 6 -20 14 0 9 7 12 20 9 11 -3 20 -9 20 -14z m-260 -255 c-22 -109
-43 -200 -45 -203 -17 -16 -11 30 25 205 23 109 44 203 48 208 17 28 9 -31
-28 -210z m-2697 167 c-5 -21 -28 -18 -37 5 -4 10 2 14 18 14 19 0 23 -4 19
-19z m557 -11 c0 -13 -7 -20 -20 -20 -13 0 -20 7 -20 20 0 13 7 20 20 20 13 0
20 -7 20 -20z m-200 -20 c0 -5 -18 -10 -40 -10 -22 0 -40 5 -40 10 0 6 18 10
40 10 22 0 40 -4 40 -10z m1128 -35 c1 -17 -5 -24 -25 -28 -34 -6 -60 2 -42
14 10 6 10 11 1 22 -16 19 -9 24 31 19 26 -3 33 -9 35 -27z m2837 20 c33 -8
95 -15 138 -15 50 0 76 -4 72 -10 -3 -5 -14 -10 -24 -10 -15 0 -21 -13 -30
-76 -6 -41 -16 -84 -21 -94 -15 -28 -12 -40 10 -40 11 0 20 -5 20 -11 0 -7
-15 -9 -44 -5 l-43 6 -13 -112 c-19 -160 -41 -243 -66 -243 -14 0 -20 8 -22
34 -2 19 -14 48 -28 64 -27 32 -32 28 -9 -7 11 -16 16 -48 16 -95 0 -72 -9
-114 -42 -187 -24 -52 -24 -57 0 -44 28 15 31 13 31 -19 0 -33 -17 -51 -26
-27 -20 51 -32 -57 -18 -146 l7 -38 88 0 c53 0 89 -4 89 -10 0 -6 -32 -10 -76
-10 l-75 0 6 -212 c4 -117 9 -219 11 -227 2 -8 12 -11 24 -8 11 3 23 1 26 -5
3 -5 -3 -12 -14 -15 -14 -3 -22 -15 -24 -36 -2 -17 -9 -33 -17 -35 -11 -4 -12
3 -7 33 l7 38 -75 -7 c-65 -6 -76 -5 -76 9 0 14 44 20 118 18 14 -1 15 190 2
357 l-7 95 -1 -138 c-1 -89 -6 -136 -12 -132 -5 3 -10 14 -10 24 0 14 -6 17
-29 13 -33 -5 -40 7 -33 60 3 26 8 35 18 31 8 -3 14 0 14 6 0 6 -7 11 -15 11
-8 0 -15 5 -15 10 0 6 6 10 14 10 8 0 18 -4 21 -10 15 -25 25 -5 25 52 l0 61
-105 -6 c-58 -4 -105 -3 -105 2 0 10 83 21 159 21 l54 0 -7 38 c-3 20 -6 68
-6 106 l0 68 -25 -16 c-23 -15 -25 -15 -39 5 -17 24 -12 45 14 59 13 7 19 28
24 86 5 48 3 79 -3 83 -10 7 -16 82 -9 113 2 10 17 31 33 48 16 16 23 30 16
30 -7 0 -11 6 -8 15 4 8 1 18 -6 22 -7 4 -163 10 -347 13 -216 3 -334 9 -332
15 1 6 96 10 260 10 192 0 267 3 297 14 48 16 65 29 65 48 0 20 29 87 35 81 3
-3 0 -29 -7 -58 -10 -43 -18 -57 -45 -73 -18 -10 -33 -21 -33 -24 0 -3 29 -3
65 0 l66 6 6 -29 c6 -35 23 -38 77 -15 20 9 41 13 46 10 12 -8 17 15 31 143 6
61 16 112 20 112 5 0 9 -16 9 -35 0 -19 4 -35 9 -35 10 0 38 89 47 153 l6 47
-45 0 -44 0 -7 -42 c-9 -61 -26 -108 -37 -108 -6 0 -7 9 -3 23 12 39 24 91 24
113 0 18 -9 23 -60 34 -33 7 -60 17 -60 21 0 12 14 11 85 -6z m-5605 -35 c0
-9 -162 -17 -223 -12 -10 1 -15 -3 -12 -8 8 -14 -13 -40 -31 -40 -10 0 -13 7
-8 25 5 19 2 25 -10 25 -10 0 -16 -9 -16 -25 0 -16 -6 -25 -15 -25 -9 0 -15 9
-15 25 0 18 -5 25 -20 25 -11 0 -20 5 -20 10 0 6 68 10 185 10 117 0 185 -4
185 -10z m1290 -4 c0 -8 -4 -17 -8 -20 -13 -8 -35 11 -28 23 10 16 36 14 36
-3z m-200 -20 c0 -12 -34 -14 -205 -13 -156 2 -205 5 -205 15 0 9 48 12 205
12 170 0 205 -2 205 -14z m2065 -15 c-5 -18 -33 -34 -60 -36 -5 0 -14 -10 -20
-22 -12 -27 -42 -37 -47 -14 -2 9 -4 32 -4 51 l1 35 58 1 c31 1 60 4 64 7 11
11 15 0 8 -22z m385 -1 c0 -5 -13 -10 -30 -10 -16 0 -30 5 -30 10 0 6 14 10
30 10 17 0 30 -4 30 -10z m-2300 -13 c0 -11 -37 -57 -113 -141 -24 -26 -27
-28 -22 -9 3 12 2 24 -4 27 -12 8 -23 -40 -15 -66 4 -14 2 -18 -5 -14 -6 4
-14 0 -17 -8 -3 -9 -15 -16 -26 -16 -19 0 -18 1 3 32 13 17 18 28 11 24 -7 -4
-12 -1 -12 8 0 15 -26 46 -39 46 -3 0 -12 -14 -19 -32 -6 -17 -15 -29 -18 -25
-9 9 -37 -30 -30 -42 10 -15 -87 -9 -103 6 -12 12 -9 19 20 48 33 33 79 47 79
24 0 -7 -8 -18 -17 -25 -17 -13 -17 -14 2 -7 33 11 50 53 21 53 -7 0 -19 7
-26 15 -10 12 -8 16 15 25 36 14 72 13 78 -2 3 -10 7 -10 20 0 9 8 21 11 27 7
5 -3 10 -1 10 6 0 7 15 -2 33 -19 l34 -33 36 45 c21 24 37 48 37 52 0 6 30 33
38 34 1 0 2 -6 2 -13z m1350 -18 c0 -25 -26 -25 -40 0 -7 14 -6 21 3 24 20 7
37 -4 37 -24z m925 1 c-29 -7 -30 -8 -4 -9 18 -1 28 -8 32 -21 4 -17 0 -20
-31 -20 -28 0 -33 3 -22 10 13 8 12 10 -2 10 -11 0 -18 8 -18 20 0 17 6 20 38
19 37 -1 37 -1 7 -9z m2343 -41 c-3 -35 -19 -52 -42 -43 -20 8 -21 23 -1 30
11 5 13 10 5 19 -12 14 -3 25 22 25 14 0 18 -7 16 -31z m-4408 -24 c0 -12 -19
-15 -107 -15 -120 0 -133 17 -18 23 39 1 82 4 98 5 18 1 27 -3 27 -13z m2090
1 c0 -2 3 -11 6 -20 5 -13 -1 -16 -32 -16 -29 0 -35 3 -24 10 10 6 11 10 3 10
-7 0 -13 5 -13 10 0 6 14 10 30 10 17 0 30 -2 30 -4z m-95 -86 c17 -33 20 -76
5 -85 -5 -3 -10 -15 -10 -26 0 -10 -4 -19 -10 -19 -14 0 -13 36 2 60 10 15 9
26 -4 53 -14 30 -15 47 -2 47 2 0 10 -13 19 -30z m-3712 -6 c4 -7 15 -10 23
-7 14 5 15 3 5 -15 -15 -29 -25 -28 -39 3 -6 14 -18 25 -27 25 -8 0 -15 5 -15
11 0 14 43 0 53 -17z m2127 -4 c0 -5 -6 -10 -12 -11 -10 0 -10 -2 0 -6 21 -8
13 -23 -12 -23 -18 0 -23 5 -23 25 0 20 5 25 23 25 13 0 24 -4 24 -10z m1690
0 c0 -5 -17 -10 -37 -10 -28 0 -34 3 -23 10 20 13 60 13 60 0z m-1980 -20 c0
-5 -7 -10 -16 -10 -11 0 -14 -8 -12 -27 2 -20 8 -27 21 -25 19 3 24 -14 5 -21
-35 -12 -59 32 -42 77 7 17 44 22 44 6z m1980 -10 c0 -5 -13 -10 -30 -10 -16
0 -30 5 -30 10 0 6 14 10 30 10 17 0 30 -4 30 -10z m2314 -57 c-3 -32 -6 -71
-8 -87 -1 -17 -6 -31 -12 -33 -5 -2 -7 31 -2 84 7 102 6 93 17 93 5 0 7 -25 5
-57z m-4871 40 c-7 -2 -19 -2 -25 0 -7 3 -2 5 12 5 14 0 19 -2 13 -5z m4532
-3 c-3 -5 -10 -10 -16 -10 -5 0 -9 5 -9 10 0 6 7 10 16 10 8 0 12 -4 9 -10z
m-1455 -13 c0 -9 -10 -12 -30 -9 -35 5 -30 22 6 22 13 0 24 -6 24 -13z m-4250
-27 c70 -6 67 -7 -52 -8 -80 -1 -128 2 -128 8 0 11 65 11 180 0z m4225 0 c-3
-5 -12 -10 -20 -10 -8 0 -17 5 -20 10 -4 6 5 10 20 10 15 0 24 -4 20 -10z
m175 -24 c8 -2 -16 -4 -55 -5 -38 0 -65 3 -58 7 11 7 77 6 113 -2z m-550 -6
c0 -5 -16 -10 -35 -10 -19 0 -35 5 -35 10 0 6 16 10 35 10 19 0 35 -4 35 -10z
m400 0 c0 -5 -4 -10 -10 -10 -5 0 -10 5 -10 10 0 6 5 10 10 10 6 0 10 -4 10
-10z m350 0 c0 -6 -35 -10 -84 -10 -47 0 -88 5 -91 10 -4 6 27 10 84 10 54 0
91 -4 91 -10z m314 4 c93 -13 42 -20 -121 -16 -93 2 -172 8 -177 13 -11 10
226 12 298 3z m-3477 -40 c2 -7 -8 -9 -27 -6 -16 2 -30 9 -30 14 0 13 53 6 57
-8z m1788 6 c4 -6 -8 -10 -30 -10 -22 0 -34 4 -30 10 3 6 17 10 30 10 13 0 27
-4 30 -10z m-2540 -31 c83 -31 103 -43 88 -52 -4 -3 -41 8 -81 24 -62 25 -87
29 -175 30 -56 0 -105 3 -110 6 -23 14 15 23 101 23 85 0 108 -4 177 -31z m89
16 c3 -8 1 -15 -4 -15 -6 0 -10 7 -10 15 0 8 2 15 4 15 2 0 6 -7 10 -15z
m5320 -27 c-9 -61 -46 -178 -57 -178 -5 0 -6 12 -2 28 4 15 8 34 9 42 0 8 7
21 14 29 7 7 12 25 10 40 -1 14 1 31 5 38 4 6 4 18 1 27 -4 11 -1 16 10 16 13
0 15 -7 10 -42z m-2184 -3 c0 -16 -35 -21 -44 -6 -8 12 4 21 26 21 10 0 18 -7
18 -15z m103 -30 c-6 -17 -13 -18 -38 -8 -15 5 -14 8 6 19 27 14 41 10 32 -11z
m-4306 -57 c-2 -13 -4 -5 -4 17 -1 22 1 32 4 23 2 -10 2 -28 0 -40z m6282 5
c-10 -21 -19 -54 -19 -75 0 -22 -5 -38 -11 -38 -8 0 -10 16 -6 49 6 54 33 115
46 106 5 -3 0 -22 -10 -42z m-6379 -124 c0 -46 -4 -79 -10 -79 -6 0 -10 35
-10 86 0 54 4 83 10 79 6 -3 10 -42 10 -86z m3100 60 c0 -11 -4 -17 -10 -14
-5 3 -10 15 -10 26 0 11 5 17 10 14 6 -3 10 -15 10 -26z m-3578 -11 c-15 -15
-26 -4 -18 18 5 13 9 15 18 6 9 -9 9 -15 0 -24z m671 -13 c28 -45 33 -92 9
-87 -7 1 -47 5 -88 9 -81 7 -99 20 -70 52 9 10 16 27 16 38 0 29 8 33 59 33
43 -1 48 -3 74 -45z m2347 -35 c0 -27 8 -48 26 -70 15 -17 23 -34 20 -38 -12
-11 -55 51 -61 88 -3 19 -8 46 -11 59 -5 21 -3 23 10 12 10 -8 16 -29 16 -51z
m994 -22 c9 -36 8 -38 -24 -38 -32 0 -63 36 -38 44 7 3 20 7 28 9 25 9 27 8
34 -15z m2843 -115 c-15 -45 -28 -100 -32 -133 -1 -8 -5 -22 -8 -30 -3 -8 -8
-57 -11 -108 -3 -65 -9 -97 -20 -108 -9 -8 -17 -25 -18 -37 -3 -40 -5 -52 -13
-70 -4 -9 -5 -28 -1 -40 3 -14 -2 -39 -14 -62 -22 -43 -26 -95 -9 -112 8 -8 7
-36 -4 -105 -15 -88 -20 -151 -18 -226 1 -22 10 -41 27 -57 15 -14 23 -25 18
-25 -14 0 -194 90 -215 108 -32 27 -84 123 -71 131 8 4 1 22 -18 51 -29 44
-38 70 -22 70 4 -1 33 -43 66 -95 58 -94 70 -107 79 -82 4 9 8 9 15 -1 5 -8
18 -12 28 -10 14 2 22 23 37 103 10 55 23 102 28 105 5 3 10 27 11 53 2 26 7
47 11 47 5 0 5 9 2 21 -4 12 -1 27 8 37 10 11 15 31 13 55 -2 21 1 40 6 43 4
3 5 10 2 16 -4 6 0 14 7 19 11 6 11 11 2 20 -9 9 -8 15 3 26 11 12 12 18 3 29
-9 11 -7 14 10 14 11 0 21 5 21 10 0 6 -8 10 -17 10 -14 0 -15 2 -4 9 18 12
27 91 10 91 -9 0 -8 4 3 13 21 16 40 119 25 130 -9 6 -8 10 2 14 9 4 -2 12
-29 23 -50 19 -56 28 -37 54 12 17 16 17 51 2 48 -20 55 -20 30 -1 -18 14 -18
14 4 15 15 0 26 9 33 28 18 44 22 7 6 -45z m-2057 -42 c0 -55 4 -102 9 -105 5
-3 7 -39 4 -80 l-5 -75 69 6 c43 3 73 2 76 -4 7 -11 -165 -28 -235 -24 -33 2
-37 0 -31 -16 3 -10 11 -24 16 -31 16 -20 -1 -27 -21 -9 -10 10 -26 17 -35 17
-10 0 -17 8 -17 18 0 16 -8 17 -70 14 -41 -3 -70 0 -70 5 0 10 136 23 241 23
l58 0 -6 180 c-5 133 -3 180 5 180 8 0 12 -31 12 -99z m-4675 9 c-3 -6 -48
-10 -101 -10 -56 0 -94 4 -94 10 0 6 40 10 101 10 64 0 98 -4 94 -10z m2385
-1 c0 -5 -9 -9 -19 -9 -11 0 -22 -4 -26 -10 -3 -5 -12 -7 -21 -3 -11 4 -14 -1
-12 -20 5 -37 13 -42 66 -43 62 -2 62 -2 62 -14 0 -13 -116 -13 -141 0 -23 13
-24 43 -2 80 14 24 23 29 55 28 21 0 38 -4 38 -9z m2350 -105 c0 -47 -4 -73
-10 -69 -5 3 -10 37 -10 76 0 39 4 69 10 69 6 0 10 -32 10 -76z m240 66 c4 0
8 -10 9 -22 1 -13 3 -52 5 -88 2 -36 2 -50 -1 -32 -2 19 -10 32 -19 32 -20 0
-17 20 4 21 10 0 12 3 5 6 -7 2 -13 11 -13 19 0 8 -7 29 -16 46 -15 29 -15 30
1 24 9 -3 20 -6 25 -6z m-1405 -67 c5 -21 8 -24 16 -12 5 7 9 11 9 7 0 -3 3
-13 6 -22 4 -11 0 -16 -11 -16 -10 0 -24 -8 -31 -17 -13 -17 -13 -17 -14 0 0
9 -3 17 -7 17 -5 0 -8 16 -9 35 -1 44 30 50 41 8z m1225 17 c0 -5 -7 -7 -15
-4 -8 4 -15 8 -15 10 0 2 7 4 15 4 8 0 15 -4 15 -10z m-1973 -6 c-3 -3 -12 -4
-19 -1 -8 3 -5 6 6 6 11 1 17 -2 13 -5z m-71 -21 c-1 -13 7 -18 27 -19 16 -1
27 4 27 12 0 17 16 18 26 3 3 -6 15 -8 25 -6 21 6 51 -29 56 -66 3 -16 -1 -19
-24 -14 -16 3 -37 9 -48 13 -15 5 -17 4 -9 -5 6 -7 30 -14 53 -16 44 -3 54 -8
57 -28 1 -7 5 -20 9 -29 4 -11 3 -18 -5 -18 -7 0 -9 -8 -5 -20 4 -11 2 -20 -4
-20 -6 0 -11 7 -11 16 0 10 -7 14 -22 12 -13 -2 -23 -10 -23 -18 0 -11 -15
-16 -59 -18 -53 -3 -62 0 -87 24 -33 31 -42 94 -14 94 21 0 29 25 16 47 -10
17 -10 17 -11 1 0 -10 -4 -18 -10 -18 -17 0 -11 62 8 76 23 18 30 17 28 -3z
m3441 -3 c3 -11 12 -20 19 -20 8 0 14 -4 14 -10 0 -14 -35 -30 -68 -30 -17 0
-32 -6 -36 -15 -7 -18 -62 -20 -69 -2 -4 10 -50 10 -238 0 -129 -6 -236 -10
-238 -7 -2 2 -2 7 1 10 5 5 477 33 564 34 28 0 30 2 26 30 -5 34 17 43 25 10z
m-1673 4 c9 -3 16 -17 16 -30 0 -20 -5 -24 -30 -24 -32 0 -40 19 -17 45 15 17
12 16 31 9z m1736 -49 c0 -25 -4 -45 -10 -45 -11 0 -14 73 -3 83 11 12 13 8
13 -38z m299 16 c19 -12 6 -41 -18 -41 -21 0 -31 17 -23 38 5 14 21 15 41 3z
m-2949 -25 c0 -21 -21 -31 -31 -15 -5 8 -3 17 4 21 18 12 27 10 27 -6z m1947
-20 c23 -23 -65 -41 -112 -22 l-20 7 20 15 c20 15 97 15 112 0z m-157 -16 c0
-5 -13 -10 -28 -10 -16 0 -63 -3 -105 -6 -53 -5 -77 -4 -77 4 0 11 43 17 148
20 36 1 62 -2 62 -8z m-220 -10 c0 -5 -11 -10 -24 -10 -12 0 -51 -3 -85 -6
-41 -5 -61 -3 -61 4 0 6 19 13 43 15 87 8 127 7 127 -3z m1018 -17 c-2 -10 -9
-24 -15 -31 -7 -7 -13 -20 -13 -28 0 -21 29 -74 40 -74 6 0 10 -10 10 -22 0
-20 -1 -20 -19 -4 -10 9 -26 34 -36 56 -17 38 -17 42 0 80 18 41 38 54 33 23z
m-1228 -43 c8 -5 11 -10 5 -10 -5 0 -2 -5 7 -11 20 -11 13 -39 -9 -39 -8 0
-11 5 -8 10 4 6 -5 10 -19 10 -27 0 -30 7 -20 34 7 18 22 20 44 6z m210 -25
c0 -11 -13 -15 -54 -15 -29 0 -68 -3 -85 -6 -24 -5 -31 -3 -31 9 0 21 14 25
98 26 58 1 72 -2 72 -14z m75 -3 c21 -14 55 -65 49 -73 -3 -5 -1 -9 5 -9 5 0
13 -10 16 -22 4 -13 21 -38 38 -55 17 -18 28 -35 26 -38 -12 -12 -71 46 -104
101 -23 41 -46 66 -65 74 -17 7 -30 16 -30 21 0 11 51 12 65 1z m1085 -72 c0
-47 -4 -80 -10 -80 -5 0 -10 -7 -10 -15 0 -8 -4 -15 -10 -15 -5 0 -10 9 -10
19 0 11 5 23 10 26 6 3 10 37 10 76 0 39 4 69 10 69 6 0 10 -33 10 -80z
m-1695 28 c-8 -46 -12 -55 -20 -46 -9 9 7 88 17 88 6 0 7 -17 3 -42z m-255 -8
c0 -5 -9 -10 -20 -10 -11 0 -20 5 -20 10 0 6 9 10 20 10 11 0 20 -4 20 -10z
m598 -71 c-7 -5 -35 -8 -63 -7 -27 0 -40 3 -27 5 12 2 20 8 17 13 -3 5 -12 7
-20 3 -9 -3 -15 1 -15 10 0 10 21 22 58 35 l57 19 3 -35 c2 -21 -2 -38 -10
-43z m-1088 63 c0 -14 -35 -29 -55 -22 -19 7 -19 7 0 18 23 13 55 16 55 4z
m2397 -8 c-3 -3 -12 -4 -19 -1 -8 3 -5 6 6 6 11 1 17 -2 13 -5z m-2625 -28 c6
-32 -30 -43 -72 -21 -50 26 -40 34 51 43 10 1 18 -7 21 -22z m918 15 c0 -14
-40 -21 -132 -21 -120 0 -112 18 10 23 53 1 103 4 110 5 6 1 12 -2 12 -7z
m223 -88 c6 -63 4 -83 -8 -71 -11 11 -18 138 -8 138 6 0 13 -30 16 -67z m-223
47 c0 -5 -23 -10 -52 -10 -39 0 -57 -5 -74 -21 -18 -16 -26 -19 -41 -10 -10 6
-12 11 -5 11 27 0 10 20 -18 20 -16 0 -30 5 -30 10 0 6 43 10 110 10 67 0 110
-4 110 -10z m-3982 -47 c-3 -55 -21 -65 -26 -15 -4 39 3 62 18 62 7 0 10 -18
8 -47z m520 20 c3 -10 -14 -13 -62 -13 -76 0 -90 17 -18 23 65 5 75 4 80 -10z
m1912 -53 c2 -78 1 -85 -9 -74 -5 5 -10 36 -11 69 -2 79 -2 81 9 70 5 -6 10
-35 11 -65z m-1806 -20 c42 -44 76 -87 76 -96 0 -8 -3 -14 -7 -12 -17 7 -163
165 -163 176 0 24 19 10 94 -68z m76 50 c0 -16 -4 -30 -10 -30 -5 0 -10 14
-10 30 0 17 5 30 10 30 6 0 10 -13 10 -30z m2904 9 c-3 -5 -10 -7 -15 -3 -5 3
-7 10 -3 15 3 5 10 7 15 3 5 -3 7 -10 3 -15z m686 11 c0 -5 -4 -10 -10 -10 -5
0 -10 5 -10 10 0 6 5 10 10 10 6 0 10 -4 10 -10z m830 5 c0 -17 -36 -75 -47
-75 -7 0 -13 -5 -13 -11 0 -5 -4 -8 -9 -5 -13 8 -1 46 14 46 6 0 17 11 23 25
10 21 32 35 32 20z m-960 -56 c0 -16 -4 -29 -10 -29 -5 0 -10 16 -10 36 0 21
4 33 10 29 6 -3 10 -19 10 -36z m-814 -6 c-11 -11 -19 6 -11 24 8 17 8 17 12
0 3 -10 2 -21 -1 -24z m2349 -13 c-3 -5 -15 -10 -25 -10 -10 0 -22 5 -25 10
-4 6 7 10 25 10 18 0 29 -4 25 -10z m-1305 -4 c0 -11 -19 -15 -25 -6 -3 5 1
10 9 10 9 0 16 -2 16 -4z m-636 -22 c9 -22 8 -24 -9 -24 -8 0 -15 9 -15 20 0
24 15 27 24 4z m1196 -19 c25 -13 41 -24 35 -24 -5 0 -30 11 -55 24 -25 13
-40 24 -35 24 6 0 30 -11 55 -24z m890 15 c0 -5 -4 -10 -10 -10 -5 0 -10 5
-10 10 0 6 5 10 10 10 6 0 10 -4 10 -10z m-4152 -17 c-4 -20 -39 -25 -45 -6
-4 10 11 18 40 22 5 0 7 -7 5 -16z m-1819 -36 c-10 -7 -18 -35 -22 -74 -7 -64
-34 -136 -49 -127 -4 3 -11 -1 -14 -10 -8 -22 -57 -35 -98 -26 -19 4 -37 5
-40 2 -4 -3 -6 0 -6 6 0 6 -13 18 -29 27 -31 16 -36 24 -46 93 -4 26 -3 42 3
42 6 0 14 -24 17 -53 6 -48 10 -55 46 -75 51 -30 107 -32 141 -7 36 27 49 59
55 130 6 79 8 85 35 85 20 -1 21 -2 7 -13z m4529 -30 c13 -10 17 -31 5 -24 -5
3 -7 -29 -6 -71 1 -43 -1 -69 -3 -59 -3 10 -15 17 -29 17 -17 0 -24 7 -28 28
-3 15 -1 33 5 40 7 8 7 12 0 12 -6 0 -9 7 -6 15 4 8 2 15 -4 15 -7 0 -6 8 1
24 11 24 37 25 65 3z m-717 0 c-1 -12 -15 -9 -19 4 -3 6 1 10 8 8 6 -3 11 -8
11 -12z m2159 3 c0 -5 -4 -10 -10 -10 -5 0 -10 5 -10 10 0 6 5 10 10 10 6 0
10 -4 10 -10z m-3915 -20 c-3 -5 -17 -10 -31 -10 -13 0 -24 5 -24 10 0 6 14
10 31 10 17 0 28 -4 24 -10z m3305 -50 c52 -27 91 -49 85 -49 -5 0 -53 22
-105 49 -52 27 -90 49 -85 49 6 0 53 -22 105 -49z m-4422 -49 c-4 -44 -28 -55
-28 -13 0 16 3 44 7 63 6 32 6 32 15 9 5 -14 8 -40 6 -59z m4592 8 c-24 -43
31 -54 105 -20 96 44 148 62 162 57 22 -9 5 -26 -26 -26 -15 0 -32 -5 -38 -11
-6 -6 -17 -12 -24 -13 -8 -2 -36 -13 -64 -25 -63 -28 -70 -28 -125 -3 -25 12
-39 22 -32 22 7 0 20 17 29 38 12 25 18 32 20 20 3 -9 -1 -27 -7 -39z m-6244
30 c3 -6 14 -9 24 -6 11 3 31 -7 49 -23 16 -15 36 -30 43 -33 7 -2 10 -8 6
-12 -4 -4 -19 0 -32 9 -14 9 -37 16 -51 16 -25 0 -65 31 -65 50 0 13 17 13 26
-1z m4744 -18 c0 -4 -129 -13 -287 -20 -253 -11 -290 -15 -303 -31 -32 -37
-267 -55 -320 -25 -14 8 -44 14 -67 15 -24 0 -43 5 -43 10 0 6 6 10 13 11 6 0
100 5 207 10 107 5 328 17 490 27 162 10 298 16 303 14 4 -2 7 -7 7 -11z m130
-1 c0 -7 45 -11 128 -10 156 1 150 2 132 -10 -8 -5 -39 -10 -68 -10 -34 0 -59
-5 -68 -15 -17 -16 -64 -21 -64 -6 0 5 12 12 28 14 15 2 1 5 -30 6 -32 0 -58
6 -58 11 0 6 -20 10 -45 10 -25 0 -45 5 -45 10 0 6 20 10 45 10 25 0 45 -5 45
-10z m-4596 -54 c3 -13 9 -31 12 -40 5 -12 0 -16 -18 -16 -30 0 -48 17 -48 46
0 20 9 27 41 33 4 0 10 -10 13 -23z m4535 -28 c12 -34 2 -55 -22 -45 -11 4
-16 51 -8 75 4 12 21 -4 30 -30z m384 8 c3 -8 -2 -16 -12 -19 -14 -3 -17 0
-14 14 6 22 19 25 26 5z m-2846 -2 c-3 -3 -12 -4 -19 -1 -8 3 -5 6 6 6 11 1
17 -2 13 -5z m4381 -5 c-2 -6 -8 -10 -13 -10 -5 0 -11 4 -13 10 -2 6 4 11 13
11 9 0 15 -5 13 -11z m-6675 -24 c29 -13 37 -23 35 -39 -2 -17 -11 -22 -45
-24 -30 -2 -43 1 -44 10 0 7 -2 22 -5 33 -4 24 3 48 13 42 5 -2 25 -12 46 -22z
m1601 9 c9 -23 8 -24 -19 -24 -37 0 -31 35 6 39 4 1 10 -6 13 -15z m2986 -4
c0 -24 -15 -40 -36 -40 -19 0 -24 5 -24 23 0 20 5 24 30 25 17 0 30 -3 30 -8z
m410 1 c0 -12 -30 -22 -43 -14 -7 4 -3 9 9 14 26 10 34 10 34 0z m90 -1 c0 -5
-7 -10 -15 -10 -8 0 -15 -4 -15 -10 0 -5 9 -10 20 -10 11 0 20 -4 20 -10 0 -5
-3 -9 -7 -9 -21 3 -33 -2 -33 -16 0 -14 12 -19 33 -16 4 0 7 -5 7 -13 0 -16
-51 -10 -62 8 -10 14 -10 80 -1 89 10 11 53 8 53 -3z m-3070 -70 c0 -11 7 -20
15 -20 17 0 20 -16 5 -25 -6 -3 -17 0 -25 9 -17 16 -20 56 -5 56 6 0 10 -9 10
-20z m1860 10 c0 -5 -4 -10 -9 -10 -6 0 -13 5 -16 10 -3 6 1 10 9 10 9 0 16
-4 16 -10z m1080 -55 c0 -19 -4 -35 -10 -35 -5 0 -10 16 -10 35 0 19 5 35 10
35 6 0 10 -16 10 -35z m-1889 -8 c-1 -12 -15 -9 -19 4 -3 6 1 10 8 8 6 -3 11
-8 11 -12z m1769 -44 c0 -49 10 -71 30 -66 24 6 33 -24 22 -74 -9 -37 -7 -41
19 -59 16 -10 29 -22 29 -26 0 -4 -21 -23 -46 -42 -37 -28 -43 -37 -30 -42 13
-5 14 -9 5 -20 -15 -18 -27 -18 -31 2 -2 12 -19 3 -70 -38 -87 -69 -128 -94
-127 -76 0 7 58 57 130 111 71 54 129 101 129 106 0 14 -32 23 -44 11 -5 -5
-17 -10 -25 -10 -12 0 -11 3 2 18 15 17 15 19 -14 36 -16 10 -36 16 -43 13 -6
-3 -100 -72 -207 -154 -224 -172 -216 -166 -229 -158 -6 4 87 81 205 172 l216
165 -35 25 c-20 13 -36 28 -36 34 0 13 41 1 55 -17 5 -7 28 -22 49 -34 l39
-21 -7 85 c-5 58 -4 86 3 86 6 0 11 -12 11 -27z m92 7 c15 0 28 -4 28 -10 0
-5 -13 -10 -30 -10 -20 0 -30 -5 -30 -15 0 -8 -4 -15 -10 -15 -5 0 -10 17 -10
37 0 29 3 34 12 25 7 -7 25 -12 40 -12z m285 -33 c-6 -19 -24 -18 -29 1 -4 15
-1 18 14 14 10 -2 17 -9 15 -15z m-1897 -47 l0 -60 -60 0 c-33 0 -63 0 -67 -1
-4 0 -9 4 -11 10 -2 7 18 11 58 11 l62 0 -2 33 c-3 51 -1 67 10 67 6 0 10 -27
10 -60z m1659 3 c-5 -21 -14 -59 -20 -85 -6 -27 -15 -48 -20 -48 -11 0 -11 16
0 60 6 19 15 54 21 78 13 52 32 47 19 -5z m-4526 6 c-17 -17 -36 -1 -20 16 7
8 16 10 22 4 5 -6 5 -13 -2 -20z m5924 -2 c-5 -14 -61 -47 -79 -47 -5 0 -8 15
-6 33 3 28 7 33 38 38 39 6 55 -2 47 -24z m-101 11 c4 -6 2 -14 -4 -16 -13 -4
-17 -32 -4 -32 4 0 22 -14 41 -30 18 -16 37 -27 42 -24 5 3 9 -4 9 -15 0 -28
-9 -26 -53 13 -21 19 -42 36 -48 38 -5 2 -12 20 -16 41 -4 30 -2 37 10 37 9 0
19 -5 23 -12z m-1484 -40 c-9 -9 -12 -7 -12 12 0 19 3 21 12 12 9 -9 9 -15 0
-24z m-2578 -175 c3 -109 9 -242 12 -295 l6 -98 69 0 c39 0 69 -4 69 -10 0 -5
-7 -10 -15 -10 -11 0 -13 -5 -6 -17 5 -10 16 -35 25 -56 9 -21 24 -41 33 -45
10 -4 18 -14 18 -22 0 -8 7 -15 15 -15 9 0 32 -10 53 -22 36 -22 37 -22 27 -3
-8 16 -8 20 4 20 7 0 16 7 20 15 3 8 10 15 16 15 8 0 7 -6 0 -20 -8 -15 -8
-37 0 -77 5 -31 10 -58 10 -60 0 -2 8 -3 19 -3 10 0 21 -9 24 -20 4 -17 0 -22
-23 -27 -28 -5 -28 -6 -15 -37 26 -61 45 -139 45 -186 0 -44 -2 -49 -34 -64
-39 -18 -83 -21 -120 -6 -57 21 -11 60 55 46 22 -4 39 0 59 14 26 19 27 21 17
70 -5 27 -14 50 -19 50 -5 0 -6 -10 -3 -22 4 -13 9 -30 11 -40 3 -9 0 -19 -6
-23 -6 -4 -13 6 -16 24 -4 16 -18 40 -32 53 l-25 23 6 -53 c6 -48 5 -52 -9
-41 -12 10 -20 10 -35 1 -16 -10 -24 -7 -55 20 l-37 32 7 96 6 96 -29 28 c-34
33 -41 61 -30 122 5 25 5 53 0 62 -5 9 -14 29 -22 45 -10 22 -19 27 -47 27
l-34 0 5 -47 c10 -97 40 -1073 34 -1079 -4 -4 -9 -5 -10 -3 -2 2 -12 231 -21
509 -9 278 -21 573 -26 655 -16 290 -22 575 -12 575 6 0 12 -79 16 -197z
m4346 166 c9 -15 8 -24 -1 -35 -9 -11 -9 -21 0 -40 14 -32 14 -34 -4 -34 -8 0
-15 -4 -15 -10 0 -5 -4 -10 -10 -10 -5 0 -10 8 -10 18 0 16 -6 18 -50 12 l-50
-6 0 51 0 52 47 1 c26 0 49 5 51 11 6 18 31 12 42 -10z m-2732 -48 c11 -7 11
-9 -1 -14 -16 -6 -27 0 -27 15 0 10 11 10 28 -1z m-1308 -66 c0 -8 -4 -15 -10
-15 -5 0 -10 7 -10 15 0 8 5 15 10 15 6 0 10 -7 10 -15z m920 -15 c0 -5 -8
-10 -17 -10 -15 0 -15 -2 -4 -9 18 -12 -17 -18 -151 -27 -60 -3 -98 -2 -98 4
0 9 100 22 178 22 31 0 42 4 42 15 0 9 9 15 25 15 14 0 25 -4 25 -10z m-310
-25 c0 -18 -5 -25 -19 -25 -13 0 -18 7 -18 25 0 18 5 25 18 25 14 0 19 -7 19
-25z m-953 -36 c1 -15 -5 -19 -28 -19 -22 0 -29 5 -29 19 0 35 55 35 57 0z
m2853 17 c0 -3 -4 -8 -10 -11 -5 -3 -10 -1 -10 4 0 6 5 11 10 11 6 0 10 -2 10
-4z m-1104 -30 c18 -19 18 -52 -1 -60 -11 -4 -15 1 -15 19 0 32 -16 40 -25 12
-6 -19 -8 -20 -12 -4 -11 42 23 63 53 33z m2316 -6 c7 -11 20 -20 29 -20 32 0
40 -24 20 -57 -12 -19 -16 -35 -10 -44 7 -11 9 -10 9 4 0 9 5 17 10 17 6 0 10
-4 10 -10 0 -16 2 -23 11 -47 5 -13 5 -23 0 -23 -5 0 -11 9 -14 20 -5 20 -41
26 -113 21 -18 -2 -22 5 -27 41 -5 36 -2 47 19 69 13 14 24 30 24 37 0 19 19
14 32 -8z m-3584 -82 l87 -43 113 3 c63 1 112 -1 112 -7 0 -14 -40 -21 -134
-21 -83 0 -95 3 -175 39 l-86 40 -123 -6 c-116 -6 -124 -7 -142 -31 -15 -18
-20 -40 -20 -84 0 -37 -4 -57 -10 -53 -14 8 -13 108 1 138 18 39 50 49 171 57
62 4 114 8 116 8 2 1 42 -17 90 -40z m1962 8 c0 -3 -4 -8 -10 -11 -5 -3 -10
-1 -10 4 0 6 5 11 10 11 6 0 10 -2 10 -4z m-30 -26 c0 -5 -4 -10 -10 -10 -5 0
-10 5 -10 10 0 6 5 10 10 10 6 0 10 -4 10 -10z m-2012 -17 c2 -9 -9 -13 -40
-13 -42 1 -43 1 -18 15 29 17 51 16 58 -2z m1709 -35 c-2 -13 -4 -5 -4 17 -1
22 1 32 4 23 2 -10 2 -28 0 -40z m1863 22 c0 -5 -9 -10 -20 -10 -13 0 -20 -7
-20 -20 0 -11 -4 -20 -10 -20 -14 0 -12 28 3 45 14 16 47 20 47 5z m-1626 -21
c-23 -26 -89 -61 -98 -52 -12 12 -6 23 13 23 11 0 33 11 48 25 36 31 65 34 37
4z m112 -4 c4 -8 11 -15 18 -15 13 0 57 -65 50 -73 -3 -3 -14 -2 -25 0 -15 4
-19 12 -15 25 2 11 2 17 -1 14 -9 -8 -53 34 -53 51 0 18 19 17 26 -2z m-866
-25 c0 -5 -9 -10 -19 -10 -11 0 -23 5 -26 10 -4 6 5 10 19 10 14 0 26 -4 26
-10z m-947 -44 c13 -91 20 -476 10 -476 -7 0 -13 61 -17 168 -4 92 -10 201
-14 242 -4 41 -6 83 -4 93 6 31 19 18 25 -27z m3287 -1 c0 -14 -4 -25 -10 -25
-5 0 -10 11 -10 25 0 14 5 25 10 25 6 0 10 -11 10 -25z m-5625 5 c8 -12 -16
-50 -32 -50 -7 0 -13 4 -13 9 0 5 -3 16 -6 24 -5 14 5 20 38 26 4 0 9 -3 13
-9z m2101 -32 c-11 -15 -16 -18 -16 -7 0 16 21 42 28 34 2 -2 -3 -14 -12 -27z
m1754 14 c0 -4 -29 -19 -64 -32 -35 -14 -186 -74 -335 -134 l-271 -110 0 -105
c0 -133 10 -241 22 -241 5 0 7 4 3 9 -3 5 -1 12 4 15 8 5 81 -67 81 -80 0 -4
-9 -4 -20 -1 -11 3 -18 2 -15 -3 2 -4 -4 -15 -14 -24 -18 -16 -20 -15 -38 10
-25 33 -46 24 -78 -32 -20 -36 -54 -53 -56 -29 0 6 -7 14 -15 18 -11 6 -12 13
-4 28 9 15 15 17 30 9 26 -14 25 -14 61 21 l31 31 -7 81 c-4 45 -7 126 -6 180
0 53 -3 97 -7 97 -5 0 -37 -11 -71 -26 -35 -14 -66 -23 -69 -20 -3 4 -3 8 -1
10 8 8 660 266 672 266 7 0 18 5 25 12 13 13 110 56 130 57 6 1 12 -3 12 -7z
m270 -24 c0 -4 -5 -10 -12 -14 -12 -8 -40 24 -32 37 5 9 44 -11 44 -23z
m-3104 -1 c1 -1 5 -12 8 -24 5 -16 2 -22 -11 -25 -36 -8 -53 3 -53 34 0 28 2
30 27 23 16 -4 29 -7 29 -8z m982 -14 c2 -8 -5 -13 -17 -13 -12 0 -21 6 -21
16 0 18 31 15 38 -3z m2240 8 c11 -7 11 -9 -1 -14 -16 -6 -27 0 -27 15 0 10
11 10 28 -1z m631 -35 c-2 -2 -68 -8 -147 -12 -102 -5 -142 -4 -142 4 0 8 46
12 143 14 139 3 155 2 146 -6z m-2289 -16 c0 -11 -7 -20 -15 -20 -8 0 -15 9
-15 20 0 11 7 20 15 20 8 0 15 -9 15 -20z m2373 5 c34 -14 121 -94 113 -103
-2 -2 -31 17 -64 42 -33 25 -64 46 -69 46 -5 0 -18 7 -29 15 -16 12 -16 14 -3
15 9 0 33 -7 52 -15z m-393 -5 c-20 -13 -100 -13 -100 0 0 6 26 10 58 10 40 0
53 -3 42 -10z m-2340 -18 c0 -13 -12 -22 -22 -16 -10 6 -1 24 13 24 5 0 9 -4
9 -8z m-2260 -22 c0 -5 -7 -10 -16 -10 -8 0 -12 5 -9 10 3 6 10 10 16 10 5 0
9 -4 9 -10z m4010 -20 c-13 -10 -20 -22 -16 -29 10 -15 -5 -13 -28 4 -22 17
-22 17 19 38 38 19 55 10 25 -13z m-3880 -10 c0 -5 -4 -10 -10 -10 -5 0 -10 5
-10 10 0 6 5 10 10 10 6 0 10 -4 10 -10z m3637 -83 c-8 -7 -16 -17 -18 -24 -3
-9 -9 -9 -19 -2 -13 8 -10 13 15 34 17 14 32 20 34 14 1 -6 -4 -16 -12 -22z
m1497 -94 c38 -31 84 -73 103 -94 19 -21 40 -36 47 -33 7 3 12 -5 13 -18 1
-14 35 -55 90 -108 116 -112 214 -200 223 -200 4 0 11 -20 14 -45 4 -24 11
-47 16 -50 14 -9 20 25 9 48 -9 16 -9 22 0 25 6 2 11 10 11 18 0 8 4 14 9 14
12 0 20 -84 8 -91 -5 -4 -7 -11 -3 -17 3 -6 0 -14 -7 -19 -19 -12 -67 -98 -67
-122 0 -15 6 -21 21 -21 12 0 17 -4 13 -11 -3 -6 -16 -8 -28 -5 -27 7 -70 -29
-62 -51 3 -8 2 -12 -2 -9 -12 7 -64 -103 -56 -116 4 -6 3 -8 -3 -5 -13 8 -26
-20 -16 -35 4 -7 1 -8 -7 -3 -10 6 -12 4 -7 -9 5 -11 3 -15 -5 -10 -8 5 -9 2
-5 -10 5 -11 3 -15 -5 -10 -8 5 -9 2 -5 -10 4 -9 3 -15 -2 -12 -13 8 -24 -25
-12 -37 5 -5 22 -11 38 -13 26 -3 32 2 51 42 12 24 22 54 22 65 0 11 12 43 26
71 16 32 23 59 20 74 -8 29 10 32 19 3 4 -12 -2 -39 -15 -66 -19 -41 -20 -48
-7 -58 12 -9 9 -23 -27 -98 -22 -48 -47 -87 -53 -87 -7 0 -13 -5 -13 -11 0 -6
-10 -33 -22 -61 -21 -48 -22 -50 -57 -45 -20 3 -46 8 -58 12 -20 6 -26 1 -48
-46 -20 -43 -25 -70 -25 -132 0 -46 -6 -92 -15 -114 -35 -83 -11 -148 80 -215
33 -25 65 -51 71 -59 18 -21 27 -76 15 -84 -17 -10 -13 -106 5 -126 15 -16 13
-18 -30 -24 -29 -5 -46 -12 -46 -21 0 -20 -18 -17 -23 3 -2 11 -8 1 -16 -25
-7 -24 -9 -57 -6 -73 4 -16 2 -29 -3 -29 -16 0 -22 55 -11 95 6 21 9 45 6 55
-4 14 3 16 47 12 l52 -4 -4 67 c-3 45 -1 70 7 75 28 17 -2 62 -75 116 -92 68
-107 96 -102 181 3 50 1 63 -10 63 -11 0 -13 8 -8 31 3 17 6 40 6 50 0 11 6
19 14 19 9 0 16 18 20 50 4 28 9 56 12 64 3 8 -3 16 -16 19 l-21 5 23 36 c13
20 26 36 31 36 13 0 8 -23 -10 -42 -15 -17 -15 -18 0 -18 12 0 19 12 23 41 4
22 13 43 20 46 16 6 36 62 27 76 -3 5 -1 7 4 4 6 -4 24 26 43 71 17 42 43 97
56 121 13 24 17 38 9 31 -8 -6 -30 -20 -49 -29 l-35 -18 -27 28 c-15 16 -36
29 -46 29 -10 0 -18 2 -18 4 0 2 -3 12 -7 22 -6 15 -1 16 35 11 39 -5 42 -4
42 19 0 23 -1 24 -23 9 -23 -14 -87 -12 -87 4 1 16 110 111 128 111 13 0 62
58 62 72 0 6 11 20 25 32 28 24 125 31 132 9 5 -15 -44 -36 -69 -30 -15 4 -18
-2 -18 -44 0 -38 3 -47 15 -43 8 3 17 14 20 24 3 10 19 25 35 32 28 12 30 17
30 66 0 33 -4 51 -10 47 -5 -3 -8 0 -5 7 2 7 -9 29 -26 48 -17 19 -27 28 -23
20 7 -13 5 -13 -9 -1 -9 7 -17 18 -17 23 0 13 -31 43 -44 43 -6 1 -10 6 -9 11
1 6 -32 44 -73 85 -41 40 -74 70 -74 65 0 -5 -9 -1 -20 9 -11 10 -17 21 -15
25 3 4 -21 31 -53 60 -125 116 -232 223 -232 232 0 5 19 -7 43 -27 23 -20 73
-61 111 -92z m-4874 98 c0 -5 3 -17 6 -26 5 -13 2 -16 -17 -13 -32 4 -41 48
-10 48 12 0 21 -4 21 -9z m705 -1 c3 -5 2 -10 -4 -10 -5 0 -13 5 -16 10 -3 6
-2 10 4 10 5 0 13 -4 16 -10z m1701 -46 c8 -31 -6 -47 -37 -42 -17 2 -25 12
-30 36 -6 31 -5 32 27 32 28 0 35 -4 40 -26z m3029 -34 c-3 -5 -12 -10 -18
-10 -7 0 -6 4 3 10 19 12 23 12 15 0z m-4380 -50 c-3 -5 -10 -10 -16 -10 -5 0
-9 5 -9 10 0 6 7 10 16 10 8 0 12 -4 9 -10z m4102 -21 c2 -16 -1 -19 -9 -11
-5 5 -7 15 -4 21 10 15 12 14 13 -10z m-2041 -21 c1 -13 5 -33 9 -44 9 -30
-17 -37 -60 -17 -33 16 -40 38 -8 26 11 -4 14 -3 9 6 -4 7 2 20 16 31 30 25
33 25 34 -2z m-2390 -8 c7 0 17 -12 21 -27 l7 -28 7 30 7 30 1 -32 c0 -17 3
-38 6 -45 4 -10 -7 -14 -50 -14 -41 -1 -53 2 -45 11 5 6 7 29 3 50 -5 34 -4
38 11 32 10 -4 24 -7 32 -7z m2044 -9 c0 -12 -89 -21 -225 -21 -163 0 -138 18
30 23 72 1 145 4 163 5 17 1 32 -2 32 -7z m2446 -10 c-8 -12 -71 -41 -90 -41
-9 0 -16 5 -16 10 0 6 8 10 18 10 9 0 28 7 42 14 29 16 54 20 46 7z m-2508
-43 c-6 -18 -28 -21 -28 -4 0 9 7 16 16 16 9 0 14 -5 12 -12z m332 -7 c0 -6
-4 -13 -10 -16 -5 -3 -10 1 -10 9 0 9 5 16 10 16 6 0 10 -4 10 -9z m-700 -14
c0 -7 -9 -18 -20 -25 -16 -10 -20 -10 -20 1 0 14 20 37 32 37 4 0 8 -6 8 -13z
m-2824 -164 c5 -110 10 -143 20 -143 8 0 14 -4 14 -10 0 -5 -7 -10 -15 -10
-12 0 -15 -8 -11 -32 3 -18 11 -172 17 -341 6 -169 12 -315 13 -324 0 -9 -5
-18 -11 -20 -10 -3 -13 12 -13 59 0 64 -16 427 -26 576 -5 67 -9 82 -22 82
-15 1 -15 3 2 15 18 13 18 24 12 162 -5 100 -4 145 3 138 5 -5 13 -74 17 -152z
m890 133 c21 -22 17 -26 -16 -20 -22 5 -31 2 -36 -10 -6 -16 -44 -23 -44 -8 0
9 56 46 78 51 2 1 10 -5 18 -13z m1874 -21 c0 -3 -27 -32 -59 -65 -33 -33 -56
-61 -53 -61 4 -1 16 0 27 1 15 1 17 -1 8 -10 -7 -8 -25 -10 -55 -5 -27 5 -37
10 -26 14 16 6 57 42 112 100 27 28 46 39 46 26z m190 -49 c0 -2 -8 -6 -18 -8
-25 -7 -47 19 -32 37 9 11 14 11 31 -6 10 -10 19 -21 19 -23z m-1150 14 c0
-16 -7 -20 -34 -20 -19 0 -41 -3 -50 -6 -12 -5 -16 0 -16 20 0 25 3 26 50 26
43 0 50 -3 50 -20z m1239 -22 c0 -28 -2 -30 -9 -13 -12 28 -12 45 0 45 6 0 10
-15 9 -32z m-2759 -33 c0 -20 -5 -25 -24 -25 -27 0 -44 29 -24 42 26 16 48 9
48 -17z m520 6 c0 -26 -18 -37 -26 -16 -4 9 -15 15 -27 13 -11 -2 -22 3 -24
10 -3 8 8 12 36 12 34 0 41 -3 41 -19z m1150 -21 c0 -11 -4 -20 -10 -20 -5 0
-10 9 -10 20 0 11 5 20 10 20 6 0 10 -9 10 -20z m895 -25 c0 -5 -15 -11 -32
-13 -32 -3 -45 11 -20 22 19 8 52 2 52 -9z m-1185 -45 c0 -5 -4 -10 -10 -10
-5 0 -10 5 -10 10 0 6 5 10 10 10 6 0 10 -4 10 -10z m1067 -5 c0 -8 -4 -15 -9
-15 -4 0 -8 7 -8 15 0 8 4 15 8 15 5 0 9 -7 9 -15z m3173 -6 c-7 -11 -14 -18
-17 -15 -8 8 5 36 17 36 7 0 7 -6 0 -21z m-3275 -10 c10 -14 1 -21 -19 -13 -9
3 -13 10 -10 15 7 12 21 11 29 -2z m475 -6 c0 -14 -19 -38 -25 -32 -8 8 5 39
16 39 5 0 9 -3 9 -7z m-592 -32 c-13 -21 -37 -35 -46 -27 -2 3 9 16 24 30 33
28 41 27 22 -3z m-2129 -11 c18 0 22 -3 14 -11 -14 -14 -113 -2 -113 13 0 7
14 8 38 4 20 -3 48 -6 61 -6z m1810 -46 c-12 -15 -11 -16 9 -10 12 4 22 4 22
1 0 -11 -44 -44 -57 -45 -18 0 -16 30 4 52 20 22 41 24 22 2z m250 -1 c-13
-17 -101 -103 -105 -103 -1 0 -28 -27 -62 -60 -55 -55 -92 -75 -92 -50 0 6 7
10 15 10 8 0 20 9 27 21 7 11 27 29 45 40 18 11 35 29 38 39 4 11 12 20 18 20
7 0 34 23 61 50 46 47 84 70 55 33z m3447 -99 c-3 -9 -6 -18 -6 -20 0 -2 -4
-4 -9 -4 -5 0 -7 9 -4 20 3 11 10 20 15 20 6 0 7 -7 4 -16z m-6 -51 c0 -14
-19 -38 -25 -32 -8 8 5 39 16 39 5 0 9 -3 9 -7z m-3020 -79 c0 -34 -4 -53 -10
-49 -18 11 -12 105 7 105 2 0 3 -25 3 -56z m-710 -135 c0 -12 -7 -19 -20 -19
-19 0 -28 28 -14 43 11 11 34 -5 34 -24z m-468 -86 c6 -110 4 -128 -13 -118
-11 8 -12 225 0 225 4 0 11 -48 13 -107z m1003 77 c-3 -5 -17 -10 -31 -10 -13
0 -24 5 -24 10 0 6 14 10 31 10 17 0 28 -4 24 -10z m-685 -19 c0 -5 -26 -33
-57 -63 -31 -29 -69 -66 -84 -82 -20 -21 -32 -27 -46 -21 -15 6 -15 8 -3 13 8
3 38 27 65 53 57 55 118 109 122 109 2 0 3 -4 3 -9z m17 -103 c-2 -7 0 -21 5
-30 11 -22 -7 -24 -28 -3 -13 12 -13 17 -2 29 16 19 31 20 25 4z m742 -14 c2
-2 -18 -4 -45 -4 -48 0 -74 -12 -74 -34 0 -10 48 -53 160 -146 19 -16 32 -32
28 -35 -10 -11 -65 28 -155 109 -24 21 -45 37 -47 35 -2 -2 -9 -14 -15 -26 -6
-13 -16 -23 -22 -23 -5 0 0 18 11 40 11 21 20 53 20 69 l0 29 68 -5 c37 -3 69
-7 71 -9z m-739 -74 c0 -5 -20 -10 -45 -10 -25 0 -45 5 -45 10 0 6 20 10 45
10 25 0 45 -4 45 -10z m-325 -97 c-16 -14 -69 -62 -116 -107 -135 -127 -213
-195 -218 -191 -7 8 81 97 171 174 48 41 107 95 130 121 27 29 47 43 53 38 6
-6 -1 -19 -20 -35z m3975 -213 c0 -5 -13 -10 -30 -10 -16 0 -30 5 -30 10 0 6
14 10 30 10 17 0 30 -4 30 -10z m-5860 -35 c0 -21 -5 -25 -30 -25 -32 0 -33 1
-24 24 8 21 24 20 25 -1 0 -14 3 -13 11 5 14 28 18 28 18 -3z m1405 6 c3 -5 1
-13 -5 -16 -15 -9 -43 3 -35 15 8 13 32 13 40 1z m4455 -11 c0 -5 -13 -10 -30
-10 -16 0 -30 5 -30 10 0 6 14 10 30 10 17 0 30 -4 30 -10z m-5160 -10 c0 -5
-4 -10 -10 -10 -5 0 -10 5 -10 10 0 6 5 10 10 10 6 0 10 -4 10 -10z m1900 -37
c0 -5 -9 -22 -19 -40 -11 -17 -25 -51 -31 -74 -7 -24 -24 -61 -39 -84 -18 -25
-31 -60 -35 -94 -8 -64 -35 -119 -88 -183 -21 -26 -46 -67 -54 -92 -9 -25 -20
-44 -24 -41 -15 10 18 84 64 143 58 76 75 112 87 184 6 37 21 76 38 102 15 22
31 55 35 71 13 56 66 143 66 108z m-2590 -28 c0 -22 -36 -39 -44 -20 -3 9 1
15 10 15 8 0 12 5 9 10 -3 6 1 10 9 10 9 0 16 -7 16 -15z m2108 -37 c-2 -18
-9 -22 -28 -20 -22 2 -39 17 -40 35 0 4 16 7 36 7 31 0 35 -3 32 -22z m-698
-58 c0 -5 -4 -10 -10 -10 -5 0 -10 5 -10 10 0 6 5 10 10 10 6 0 10 -4 10 -10z
m-910 -30 c0 -5 -4 -10 -10 -10 -5 0 -10 5 -10 10 0 6 5 10 10 10 6 0 10 -4
10 -10z m68 -8 c2 -7 -3 -12 -12 -12 -9 0 -16 -5 -16 -11 0 -5 -5 -7 -10 -4
-7 4 -6 13 1 26 11 21 30 21 37 1z m122 -8 c0 -3 -11 -22 -25 -42 -21 -30 -25
-48 -25 -106 0 -52 -3 -67 -11 -59 -7 7 -10 38 -7 80 3 52 9 76 28 101 21 29
40 41 40 26z m2267 -256 c25 -26 9 -48 -32 -46 -38 3 -50 19 -35 47 11 21 45
21 67 -1z m2658 -65 c-28 -20 -41 -16 -20 7 10 11 22 17 28 13 6 -4 3 -12 -8
-20z m65 6 c0 -4 -7 -6 -15 -3 -8 4 -15 10 -15 15 0 4 7 6 15 3 8 -4 15 -10
15 -15z m-4798 -11 c7 -42 -1 -54 -37 -54 -33 0 -35 2 -35 32 0 28 4 33 28 37
15 2 30 5 33 6 4 0 8 -9 11 -21z m579 -68 c30 -16 23 -30 -16 -30 -37 0 -43 8
-23 28 15 15 15 15 39 2z m4289 -41 c-7 -11 -14 -18 -17 -15 -8 8 5 36 17 36
7 0 7 -6 0 -21z m-10 -50 c0 -11 -4 -17 -10 -14 -5 3 -10 13 -10 21 0 8 5 14
10 14 6 0 10 -9 10 -21z m10 -59 c0 -11 -4 -20 -10 -20 -5 0 -10 9 -10 20 0
11 5 20 10 20 6 0 10 -9 10 -20z m28 -59 c3 -8 -1 -12 -9 -9 -7 2 -15 10 -17
17 -3 8 1 12 9 9 7 -2 15 -10 17 -17z m42 -32 c0 -6 -4 -7 -10 -4 -5 3 -10 11
-10 16 0 6 5 7 10 4 6 -3 10 -11 10 -16z m-5582 -26 c3 -32 2 -33 -32 -33 -35
0 -36 1 -36 36 0 34 1 35 33 32 28 -3 32 -7 35 -35z m2042 6 c0 -11 -4 -17
-10 -14 -5 3 -10 15 -10 26 0 11 5 17 10 14 6 -3 10 -15 10 -26z m31 -45 c12
-14 11 -16 -5 -13 -11 2 -21 10 -24 17 -5 17 13 15 29 -4z m47 -43 c3 -8 -1
-12 -9 -9 -7 2 -15 10 -17 17 -3 8 1 12 9 9 7 -2 15 -10 17 -17z m47 -32 c12
-19 -5 -23 -22 -6 -16 16 -16 17 -1 17 9 0 20 -5 23 -11z m49 -50 c-4 -6 -11
-6 -20 2 -21 17 -17 31 6 19 11 -6 18 -15 14 -21z m46 -31 c0 -13 -23 -5 -28
10 -2 7 2 10 12 6 9 -3 16 -11 16 -16z m40 -28 c8 -5 11 -12 7 -16 -4 -4 -15
0 -24 9 -18 18 -8 23 17 7z"/>
<path d="M1798 7503 c7 -3 16 -2 19 1 4 3 -2 6 -13 5 -11 0 -14 -3 -6 -6z"/>
<path d="M2475 7290 c-8 -14 3 -30 21 -30 8 0 14 9 14 20 0 21 -24 28 -35 10z"/>
<path d="M1105 7010 c3 -5 8 -10 11 -10 2 0 4 5 4 10 0 6 -5 10 -11 10 -5 0
-7 -4 -4 -10z"/>
<path d="M6525 6440 c-16 -16 -26 -32 -23 -35 2 -3 22 1 44 9 22 8 31 15 20
15 -18 1 -18 2 -1 21 31 34 -7 25 -40 -10z"/>
<path d="M6600 6460 c-8 -5 -11 -12 -7 -16 4 -4 15 0 24 9 18 18 8 23 -17 7z"/>
<path d="M6653 6460 c-13 -5 -23 -12 -23 -15 0 -9 16 -5 36 10 22 16 19 18
-13 5z"/>
<path d="M6700 6455 c-10 -12 -9 -15 6 -15 11 1 30 7 44 15 l25 14 -31 1 c-17
0 -37 -7 -44 -15z"/>
<path d="M6657 6410 c-28 -23 -84 -39 -73 -21 9 14 11 14 -44 -3 l-45 -15 57
0 c51 -1 158 28 180 48 18 16 -53 8 -75 -9z"/>
<path d="M6558 6233 c6 -2 18 -2 25 0 6 3 1 5 -13 5 -14 0 -19 -2 -12 -5z"/>
<path d="M2132 6200 c-10 -17 -10 -20 3 -20 8 0 15 2 15 4 0 2 3 11 6 20 9 23
-9 20 -24 -4z"/>
<path d="M6805 4850 c-3 -6 1 -7 9 -4 18 7 21 14 7 14 -6 0 -13 -4 -16 -10z"/>
<path d="M6781 4816 c-7 -8 -8 -17 -3 -20 6 -3 13 1 16 10 9 23 2 28 -13 10z"/>
<path d="M6810 4796 c-12 -33 -12 -36 -1 -36 9 0 22 52 15 59 -2 2 -8 -8 -14
-23z"/>
<path d="M6684 4775 c-9 -14 -14 -28 -11 -31 3 -3 13 8 22 25 19 37 12 41 -11
6z"/>
<path d="M6716 4774 c-8 -20 0 -32 14 -18 5 5 5 15 1 22 -6 11 -10 10 -15 -4z"/>
<path d="M6735 4741 c-3 -5 -1 -12 5 -16 5 -3 10 1 10 9 0 18 -6 21 -15 7z"/>
<path d="M6705 4720 c-9 -14 3 -77 15 -85 6 -4 10 1 10 9 0 19 16 21 23 4 3
-7 6 -4 6 7 1 26 -45 80 -54 65z"/>
<path d="M6686 4599 c-9 -44 -8 -49 9 -49 7 0 19 -8 24 -17 9 -15 10 -12 11
15 0 17 -4 32 -10 32 -5 0 -10 9 -10 19 0 33 -17 33 -24 0z"/>
<path d="M6680 4513 c0 -22 -7 -36 -25 -47 -14 -9 -22 -22 -19 -30 5 -12 10
-12 34 2 23 14 28 22 26 54 -2 46 -16 63 -16 21z"/>
<path d="M6655 4030 c-3 -5 -1 -10 4 -10 6 0 11 5 11 10 0 6 -2 10 -4 10 -3 0
-8 -4 -11 -10z"/>
<path d="M4252 5208 c6 -18 28 -21 28 -4 0 9 -7 16 -16 16 -9 0 -14 -5 -12
-12z"/>
<path d="M2250 5109 c0 -6 7 -17 15 -25 13 -14 15 -13 15 4 0 11 -7 22 -15 26
-8 3 -15 1 -15 -5z"/>
<path d="M752 4682 c-13 -2 -26 -11 -29 -20 -3 -9 -13 -25 -21 -34 -13 -16
-13 -18 -1 -18 8 0 20 5 27 12 9 9 18 9 37 0 28 -13 65 -16 65 -6 0 4 -12 20
-27 38 -19 21 -35 30 -51 28z"/>
<path d="M6848 3720 c-4 -14 -8 -34 -8 -45 1 -19 1 -19 11 -2 6 10 9 30 7 45
l-3 27 -7 -25z"/>
<path d="M6650 3590 c6 -11 13 -20 16 -20 2 0 0 9 -6 20 -6 11 -13 20 -16 20
-2 0 0 -9 6 -20z"/>
<path d="M6826 3601 c-4 -7 -5 -15 -2 -18 9 -9 19 4 14 18 -4 11 -6 11 -12 0z"/>
<path d="M6760 3533 c-57 -4 -96 -23 -47 -23 15 0 27 -5 27 -11 0 -5 5 -7 10
-4 6 4 17 2 24 -4 10 -8 20 -5 39 13 22 20 27 40 8 34 -3 -1 -31 -3 -61 -5z"/>
<path d="M6826 3485 c-3 -8 -1 -15 4 -15 6 0 10 7 10 15 0 8 -2 15 -4 15 -2 0
-6 -7 -10 -15z"/>
<path d="M4810 4150 c0 -5 5 -10 10 -10 6 0 10 5 10 10 0 6 -4 10 -10 10 -5 0
-10 -4 -10 -10z"/>
<path d="M3036 4297 c3 -10 9 -15 12 -12 3 3 0 11 -7 18 -10 9 -11 8 -5 -6z"/>
<path d="M3095 4303 c11 -2 34 -8 50 -13 28 -9 29 -9 11 5 -11 8 -34 14 -50
14 -20 -1 -24 -3 -11 -6z"/>
<path d="M3050 4253 c0 -10 9 -29 20 -43 24 -31 25 -47 3 -53 -10 -3 -1 -5 19
-6 45 -1 50 5 32 44 -13 30 -13 30 -8 3 10 -45 -13 -32 -32 17 -18 50 -34 67
-34 38z"/>
<path d="M3136 4217 c3 -10 9 -15 12 -12 3 3 0 11 -7 18 -10 9 -11 8 -5 -6z"/>
<path d="M3030 4186 c0 -8 4 -17 9 -20 5 -4 7 3 4 14 -6 23 -13 26 -13 6z"/>
<path d="M5768 4253 c7 -3 16 -2 19 1 4 3 -2 6 -13 5 -11 0 -14 -3 -6 -6z"/>
<path d="M3910 3660 c33 -11 145 -11 195 -1 29 6 4 9 -90 9 -79 0 -120 -3
-105 -8z"/>
<path d="M290 3660 c0 -5 5 -10 10 -10 6 0 10 5 10 10 0 6 -4 10 -10 10 -5 0
-10 -4 -10 -10z"/>
<path d="M70 3596 c0 -8 5 -18 10 -21 6 -3 10 1 10 9 0 8 -4 18 -10 21 -5 3
-10 -1 -10 -9z"/>
<path d="M4951 3328 c-1 -28 3 -38 14 -38 10 0 15 10 15 31 0 16 -4 28 -9 25
-5 -4 -12 0 -14 6 -3 7 -6 -4 -6 -24z"/>
<path d="M6417 3393 c-12 -11 -8 -23 7 -23 7 0 19 7 26 15 10 12 9 15 -7 15
-11 0 -23 -3 -26 -7z"/>
<path d="M2454 2646 c-8 -33 -5 -36 24 -21 22 12 22 12 2 30 -18 17 -19 16
-26 -9z"/>
<path d="M2466 2591 c-14 -15 -15 -24 -7 -38 10 -17 10 -17 11 0 0 11 8 17 24
17 29 0 44 19 25 31 -21 13 -34 11 -53 -10z"/>
<path d="M2543 2576 c-5 -8 -19 -19 -33 -25 -18 -7 -20 -10 -7 -10 9 -1 33 7
52 18 27 14 32 20 19 25 -21 8 -22 8 -31 -8z"/>
<path d="M2567 2540 c-4 -15 0 -20 13 -20 10 0 27 -3 37 -7 11 -4 7 3 -11 20
-16 15 -30 27 -31 27 -2 0 -5 -9 -8 -20z"/>
<path d="M2481 2519 c18 -11 39 -11 39 0 0 5 -12 9 -26 9 -18 0 -22 -3 -13 -9z"/>
<path d="M2525 2470 c-3 -5 -3 -14 0 -20 3 -5 0 -10 -7 -10 -9 0 -14 -13 -15
-35 -1 -19 3 -33 8 -30 4 3 19 3 32 0 21 -6 26 -15 33 -58 l8 -52 4 57 c3 61
25 95 43 67 7 -11 9 -9 9 9 0 13 5 33 11 45 7 12 8 19 5 15 -4 -3 -23 0 -41 8
-40 16 -81 18 -90 4z"/>
<path d="M2630 2360 c0 -5 5 -10 10 -10 6 0 10 5 10 10 0 6 -4 10 -10 10 -5 0
-10 -4 -10 -10z"/>
<path d="M2510 2338 c0 -8 7 -23 15 -34 14 -19 14 -19 15 2 0 12 -7 27 -15 34
-12 10 -15 10 -15 -2z"/>
<path d="M2677 2176 c-4 -10 -1 -13 9 -9 15 6 19 23 5 23 -5 0 -11 -7 -14 -14z"/>
<path d="M2566 2161 c14 -13 72 -22 79 -12 7 12 -19 21 -58 21 -18 0 -27 -4
-21 -9z"/>
<path d="M6625 3340 c-3 -5 -20 -10 -38 -10 -22 0 -28 -3 -20 -11 13 -13 75 1
81 19 4 14 -14 16 -23 2z"/>
<path d="M6540 3286 c0 -22 3 -27 11 -19 8 8 8 16 0 30 -9 16 -10 14 -11 -11z"/>
<path d="M6575 3290 c3 -5 17 -10 31 -10 14 0 22 4 19 10 -3 6 -17 10 -31 10
-14 0 -22 -4 -19 -10z"/>
<path d="M6287 3083 c-13 -13 -7 -21 13 -16 11 3 20 9 20 14 0 10 -24 12 -33
2z"/>
<path d="M3790 2231 c0 -5 5 -13 10 -16 6 -3 10 -2 10 4 0 5 -4 13 -10 16 -5
3 -10 2 -10 -4z"/>
<path d="M1570 2860 c0 -5 7 -10 15 -10 8 0 15 5 15 10 0 6 -7 10 -15 10 -8 0
-15 -4 -15 -10z"/>
<path d="M5950 2396 c0 -2 8 -10 18 -17 15 -13 16 -12 3 4 -13 16 -21 21 -21
13z"/>
<path d="M6138 1993 c-8 -10 -18 -27 -21 -38 -6 -19 -6 -19 6 -1 7 11 20 28
30 38 9 10 13 18 9 18 -5 0 -16 -8 -24 -17z"/>
<path d="M6141 1943 c-1 -7 -12 -15 -26 -19 -16 -4 -25 -13 -25 -25 0 -16 4
-18 18 -10 27 15 45 39 39 53 -4 10 -6 10 -6 1z"/>
<path d="M6234 1918 c-42 -50 -64 -87 -53 -93 6 -4 12 -5 13 -4 6 9 64 119 62
119 -1 0 -11 -10 -22 -22z"/>
<path d="M6121 1876 c-14 -14 -21 -29 -17 -33 9 -9 49 32 44 47 -2 6 -13 1
-27 -14z"/>
<path d="M6050 1870 c-17 -11 -8 -23 14 -18 9 2 12 8 8 15 -5 8 -13 9 -22 3z"/>
<path d="M6000 1845 c-7 -8 -17 -15 -22 -15 -14 0 -38 -27 -31 -34 12 -12 38
-5 66 18 24 19 26 25 14 34 -11 10 -17 9 -27 -3z"/>
<path d="M6065 1815 c2 -26 35 -70 35 -49 0 6 12 23 26 38 15 14 23 26 17 26
-5 0 -14 -5 -20 -11 -8 -8 -18 -6 -36 6 -25 16 -25 16 -22 -10z"/>
<path d="M6040 1779 c0 -13 7 -34 15 -45 8 -12 11 -24 7 -28 -3 -4 1 -4 11 0
9 3 17 13 17 21 0 8 -4 11 -10 8 -5 -3 -10 2 -10 12 0 10 -7 27 -15 37 -15 19
-15 19 -15 -5z"/>
<path d="M6115 1739 c-4 -6 -5 -12 -2 -15 2 -3 7 2 10 11 7 17 1 20 -8 4z"/>
<path d="M6026 1725 c4 -8 11 -15 16 -15 6 0 5 6 -2 15 -7 8 -14 15 -16 15 -2
0 -1 -7 2 -15z"/>
<path d="M6047 1455 c-13 -28 -14 -35 -3 -35 8 0 16 14 19 33 6 43 4 43 -16 2z"/>
<path d="M6124 1456 c-3 -9 -13 -16 -20 -16 -8 0 -17 -7 -20 -15 -4 -8 -12
-15 -19 -15 -7 0 -16 -8 -20 -17 -7 -17 -8 -16 -15 2 -7 17 -9 17 -9 3 -1 -20
28 -38 62 -38 20 0 28 9 45 50 12 29 17 52 11 55 -5 4 -12 -1 -15 -9z"/>
<path d="M5906 1114 c-4 -9 -4 -19 -1 -22 2 -3 7 3 11 12 4 9 4 19 1 22 -2 3
-7 -3 -11 -12z"/>
<path d="M3300 2621 c0 -17 18 -21 24 -6 3 9 0 15 -9 15 -8 0 -15 -4 -15 -9z"/>
<path d="M4027 2476 c-4 -10 -5 -21 -2 -24 9 -9 17 6 13 25 -3 17 -4 17 -11
-1z"/>
<path d="M1657 2439 c7 -7 15 -10 18 -7 3 3 -2 9 -12 12 -14 6 -15 5 -6 -5z"/>
<path d="M2183 2313 c9 -2 23 -2 30 0 6 3 -1 5 -18 5 -16 0 -22 -2 -12 -5z"/>
<path d="M2348 1013 c7 -3 16 -2 19 1 4 3 -2 6 -13 5 -11 0 -14 -3 -6 -6z"/>
<path d="M3180 641 c0 -10 42 -23 49 -15 7 6 -20 24 -36 24 -7 0 -13 -4 -13
-9z"/>
<path d="M1117 573 c-10 -9 -9 -23 2 -23 5 0 11 7 15 15 5 15 -5 20 -17 8z"/>
<path d="M470 255 c0 -8 7 -15 15 -15 8 0 15 7 15 15 0 8 -7 15 -15 15 -8 0
-15 -7 -15 -15z"/>
<path d="M6657 7981 c3 -13 11 -17 26 -13 19 5 20 3 9 -10 -17 -21 3 -35 23
-18 23 19 18 40 -10 40 -14 0 -25 5 -25 10 0 6 -6 10 -14 10 -9 0 -12 -7 -9
-19z"/>
<path d="M2 5323 c2 -38 8 -68 13 -68 6 0 14 23 20 50 5 29 18 57 30 67 19 17
19 17 -23 18 l-43 0 3 -67z"/>
<path d="M660 5361 c-37 -9 -54 -23 -68 -55 -11 -25 -11 -32 2 -45 15 -14 16
-13 16 4 1 33 25 67 58 81 29 12 33 11 43 -7 8 -16 7 -25 -7 -40 -21 -23 -12
-26 10 -3 21 20 21 60 0 68 -17 7 -18 7 -54 -3z"/>
<path d="M803 5320 c0 -30 2 -43 4 -27 2 15 2 39 0 55 -2 15 -4 2 -4 -28z"/>
<path d="M760 5316 c0 -18 7 -39 15 -46 17 -14 19 -4 9 49 -9 41 -24 40 -24
-3z"/>
<path d="M527 5333 c-14 -14 -7 -51 9 -49 17 3 34 24 34 44 0 13 -32 17 -43 5z"/>
<path d="M660 5322 c-14 -12 -20 -24 -16 -31 6 -9 14 -7 32 10 40 38 26 55
-16 21z"/>
<path d="M78 5313 c7 -3 16 -2 19 1 4 3 -2 6 -13 5 -11 0 -14 -3 -6 -6z"/>
<path d="M125 5279 c-4 -6 -22 -8 -41 -6 -24 3 -34 1 -34 -8 0 -7 -6 -15 -12
-18 -15 -4 43 -37 67 -37 9 0 27 7 40 16 21 13 22 19 13 40 -12 26 -23 30 -33
13z"/>
<path d="M730 5284 c0 -7 -12 -15 -27 -19 -24 -6 -26 -8 -10 -16 10 -6 31 -9
48 -7 l31 3 -20 25 c-12 14 -21 20 -22 14z"/>
<path d="M600 5213 c18 -24 35 -42 36 -40 9 8 -15 62 -26 59 -7 -1 -19 3 -28
10 -9 7 -1 -6 18 -29z"/>
<path d="M0 5210 c0 -21 5 -24 55 -34 l30 -7 -25 21 c-47 39 -60 43 -60 20z"/>
<path d="M690 5220 c0 -6 6 -26 14 -44 11 -26 21 -34 45 -38 25 -4 31 -1 31
13 0 10 -9 20 -20 24 -11 3 -28 17 -39 31 -20 26 -31 30 -31 14z"/>
<path d="M140 5199 c-19 -10 -42 -29 -51 -40 -13 -18 -23 -21 -53 -16 l-36 6
0 -65 c0 -55 3 -64 18 -64 10 0 27 -7 39 -15 19 -14 21 -13 16 4 -3 10 0 22 6
25 6 4 11 16 11 27 0 10 7 19 15 19 19 0 21 -70 2 -89 -10 -11 -8 -11 11 -1
13 6 30 26 37 43 35 87 48 134 41 160 -7 31 -9 31 -56 6z"/>
<path d="M650 5207 c0 -21 31 -106 41 -112 4 -3 2 10 -6 29 -8 20 -15 46 -15
60 0 14 -4 28 -10 31 -5 3 -10 0 -10 -8z"/>
<path d="M763 5203 c38 -16 55 -13 42 6 -3 6 -23 11 -43 10 l-37 0 38 -16z"/>
<path d="M550 5066 c0 -3 5 -17 11 -33 10 -26 12 -27 19 -8 14 33 11 45 -10
45 -11 0 -20 -2 -20 -4z"/>
<path d="M630 5055 c0 -11 -7 -29 -15 -39 -19 -25 -19 -46 0 -46 8 0 15 5 15
10 0 6 19 10 43 11 35 0 38 2 20 9 -13 5 -32 24 -43 42 -16 26 -20 29 -20 13z"/>
<path d="M673 5047 c7 -11 31 -26 53 -34 l39 -13 -38 34 c-45 38 -76 45 -54
13z"/>
</g>
</svg>
