<?xml version="1.0" standalone="no"?>
<!DOCTYPE svg PUBLIC "-//W3C//DTD SVG 20010904//EN"
 "http://www.w3.org/TR/2001/REC-SVG-20010904/DTD/svg10.dtd">
<svg version="1.0" xmlns="http://www.w3.org/2000/svg"
 width="800.000000pt" height="800.000000pt" viewBox="0 0 800.000000 800.000000"
 preserveAspectRatio="xMidYMid meet">
<metadata>
Created by potrace 1.16, written by Peter Selinger 2001-2019
</metadata>
<g transform="translate(0.000000,800.000000) scale(0.100000,-0.100000)"
fill="#000000" stroke="none">
<path d="M0 4000 l0 -4000 4000 0 4000 0 0 3065 0 3065 -27 5 c-63 14 -167 52
-171 63 -2 7 21 3 60 -12 35 -13 80 -26 101 -30 l37 -7 0 926 0 925 -2015 0
-2015 0 0 -87 0 -88 33 -19 c40 -23 20 -33 -22 -11 l-31 16 0 94 0 95 -1975 0
-1975 0 0 -4000z m3840 3076 c0 -8 -8 -24 -18 -36 -16 -19 -22 -21 -40 -11
-28 15 -28 31 -2 31 11 0 23 7 26 15 8 19 34 20 34 1z m2084 -572 c9 -3 16
-17 16 -31 0 -19 -4 -24 -21 -21 -31 4 -49 35 -29 48 18 12 15 11 34 4z
m-3920 -31 c4 -9 1 -20 -6 -25 -10 -8 -10 -11 0 -15 23 -9 12 -21 -23 -25 -34
-4 -35 -3 -35 29 0 23 5 33 16 33 8 0 12 5 9 10 -3 6 3 10 13 10 11 0 23 -8
26 -17z m779 -415 c34 -17 57 -33 50 -35 -11 -4 -133 53 -133 62 0 11 24 3 83
-27z m1517 -27 c0 -22 -4 -43 -10 -46 -6 -4 -10 12 -10 39 0 25 5 46 10 46 6
0 10 -18 10 -39z m-395 -181 c24 -16 47 -30 50 -30 4 0 21 -11 39 -25 17 -14
41 -33 54 -42 13 -10 40 -32 60 -50 36 -31 36 -32 18 -52 l-18 -20 -46 32
c-109 78 -123 87 -127 87 -3 0 -15 9 -27 19 -13 11 -34 29 -48 41 -26 22 -32
50 -15 62 14 11 11 11 60 -22z m289 -77 c-22 -16 -25 -13 -17 15 4 18 8 20 20
10 13 -10 13 -14 -3 -25z m456 2 c7 -8 9 -15 5 -15 -4 0 0 -10 8 -23 14 -21
13 -24 -2 -34 -15 -9 -20 -5 -33 32 -15 40 -15 55 2 55 4 0 13 -7 20 -15z
m100 -305 c8 -15 6 -24 -10 -40 -11 -11 -20 -24 -20 -30 0 -18 -17 -10 -27 13
-23 50 32 104 57 57z m-429 -420 c10 0 19 -4 19 -10 0 -5 -4 -10 -9 -10 -6 0
-7 -16 -4 -35 3 -19 1 -40 -4 -47 -6 -7 -13 -30 -17 -50 -6 -36 -5 -38 18 -38
13 0 31 -2 38 -5 37 -15 44 103 8 133 -16 14 -19 24 -14 55 4 20 11 37 16 37
5 0 6 -16 2 -36 -5 -30 -3 -38 17 -52 13 -9 31 -17 39 -17 8 -1 20 -4 27 -8
17 -10 35 50 22 74 -5 10 -16 19 -24 19 -8 0 -15 5 -15 11 0 6 7 8 16 5 9 -3
31 -6 50 -6 19 0 34 -4 34 -10 0 -5 -8 -10 -17 -10 -12 0 -18 -8 -19 -22 0
-13 -4 -31 -8 -41 -7 -14 -5 -16 10 -10 17 6 17 5 5 -10 -7 -9 -20 -17 -27
-17 -8 0 -14 -4 -14 -10 0 -5 5 -10 11 -10 6 0 9 -9 6 -19 -4 -15 -1 -18 12
-14 13 5 13 3 -3 -15 -11 -12 -28 -22 -38 -22 -10 0 -21 -7 -24 -15 -4 -8 -12
-15 -19 -15 -7 0 -16 -7 -19 -16 -3 -8 -10 -13 -15 -10 -12 8 -23 -39 -15 -68
3 -13 1 -27 -5 -30 -18 -11 -13 -26 9 -26 28 0 25 -13 -9 -33 -21 -12 -30 -27
-35 -56 -4 -27 -13 -44 -29 -52 -12 -7 -24 -10 -27 -8 -3 2 -6 -4 -8 -14 -2
-10 2 -16 8 -15 7 2 15 -3 18 -11 3 -8 0 -11 -7 -7 -7 4 -9 1 -5 -8 4 -11 -4
-17 -30 -21 -49 -10 -66 -1 -66 33 0 42 29 134 41 127 5 -4 7 -11 4 -16 -4 -5
1 -9 9 -9 9 0 16 5 16 10 0 6 -4 10 -10 10 -11 0 -30 66 -35 122 -2 21 1 38 6
38 18 0 8 49 -17 79 -23 27 -24 34 -14 69 5 22 7 48 3 58 -5 13 -3 16 9 11 21
-7 65 33 74 67 5 22 8 24 21 11 8 -8 23 -15 34 -15z m-214 -230 c-3 -11 -1
-18 3 -15 5 3 11 1 15 -5 3 -5 -1 -10 -9 -10 -9 0 -13 -6 -10 -14 3 -8 -3 -16
-15 -19 -26 -6 -31 0 -31 35 0 20 7 31 23 38 31 12 30 12 24 -10z m993 -110
c0 -5 -7 -10 -15 -10 -8 0 -15 5 -15 10 0 6 7 10 15 10 8 0 15 -4 15 -10z
m-2020 -56 c0 -16 -36 -19 -45 -4 -3 5 0 16 7 24 15 16 38 3 38 -20z m947 -7
c2 -2 1 -12 -3 -21 -5 -13 -9 -14 -20 -5 -8 6 -25 9 -39 7 -27 -6 -27 -6 -20
14 4 10 18 13 42 11 20 -1 37 -4 40 -6z m-557 -67 c0 -5 -2 -10 -4 -10 -3 0
-8 5 -11 10 -3 6 -1 10 4 10 6 0 11 -4 11 -10z m690 -85 c-8 -10 -9 -15 -1
-15 13 0 15 -36 2 -45 -16 -9 -33 66 -19 82 7 9 14 11 21 4 7 -7 6 -15 -3 -26z
m-770 0 c0 -8 -4 -15 -10 -15 -5 0 -10 7 -10 15 0 8 5 15 10 15 6 0 10 -7 10
-15z m2010 5 c0 -5 -4 -10 -10 -10 -5 0 -10 5 -10 10 0 6 5 10 10 10 6 0 10
-4 10 -10z m-805 -144 c6 -20 17 -41 25 -46 12 -7 8 -16 -20 -45 -18 -19 -38
-35 -44 -35 -5 0 -6 3 -3 7 4 3 -2 12 -13 20 -26 18 -25 42 1 99 25 52 40 52
54 0z m346 -17 c19 -17 21 -22 9 -29 -8 -6 -11 -10 -7 -10 4 0 3 -9 -3 -19
-15 -30 -47 -16 -55 25 -10 57 13 71 56 33z m1969 -54 c12 -19 20 -41 17 -48
-3 -8 -7 -6 -12 6 -6 15 -10 13 -25 -15 -19 -36 -40 -48 -40 -24 0 24 -19 19
-29 -8 -19 -49 -82 -36 -66 14 6 17 12 21 33 17 17 -3 34 1 45 11 15 13 20 14
26 3 12 -19 23 2 23 45 0 19 1 34 3 34 2 0 13 -16 25 -35z m-2082 -26 c-2 -6
-8 -10 -13 -10 -5 0 -11 4 -13 10 -2 6 4 11 13 11 9 0 15 -5 13 -11z m-1403
-29 c3 -5 4 -14 0 -20 -8 -13 -35 -1 -35 16 0 16 26 19 35 4z m1355 -28 c0
-11 -51 -35 -58 -27 -7 7 29 34 46 35 6 0 12 -4 12 -8z m104 -8 c9 -3 16 -15
16 -25 0 -24 -26 -15 -33 12 -6 21 -5 22 17 13z m-289 -63 c-3 -6 -11 -8 -17
-5 -6 4 -5 9 3 15 16 10 23 4 14 -10z m-50 -32 c0 -7 -8 -15 -17 -17 -18 -3
-25 18 -11 32 10 10 28 1 28 -15z m1983 -35 c12 -13 22 -25 22 -27 0 -9 -45
-16 -67 -11 -18 5 -22 13 -21 40 1 30 4 34 22 28 12 -3 31 -17 44 -30z m-2168
2 c0 -11 -46 -47 -82 -64 -18 -8 -6 19 20 46 29 32 62 41 62 18z m-730 -36 c0
-5 -2 -10 -4 -10 -3 0 -8 5 -11 10 -3 6 -1 10 4 10 6 0 11 -4 11 -10z m1030
-11 c0 -11 -4 -17 -10 -14 -5 3 -10 13 -10 21 0 8 5 14 10 14 6 0 10 -9 10
-21z m-170 -19 c0 -5 -7 -10 -15 -10 -8 0 -15 5 -15 10 0 6 7 10 15 10 8 0 15
-4 15 -10z m110 -30 c0 -5 -7 -10 -16 -10 -8 0 -12 5 -9 10 3 6 10 10 16 10 5
0 9 -4 9 -10z m244 -39 c6 -9 -48 -21 -93 -21 -39 0 -11 18 34 23 22 2 43 4
47 5 4 1 9 -2 12 -7z m-405 -67 c17 -47 5 -57 -14 -11 -17 42 -18 47 -7 47 4
0 14 -16 21 -36z m-889 -26 c0 -18 -2 -20 -9 -8 -6 8 -7 18 -5 22 9 14 14 9
14 -14z m-766 -59 c-6 -11 -24 -2 -24 11 0 5 7 7 15 4 8 -4 12 -10 9 -15z
m1663 -50 c-14 -19 -17 -20 -22 -6 -4 8 -13 13 -20 11 -7 -3 -16 -1 -20 5 -6
11 6 15 32 12 6 -1 15 3 18 10 5 7 11 7 17 1 7 -7 5 -18 -5 -33z m-954 9 c6
-17 -12 -50 -23 -43 -4 3 -7 13 -5 23 2 9 4 20 4 25 1 12 19 8 24 -5z m827
-34 c0 -20 -29 -30 -43 -15 -9 10 -8 16 7 26 21 16 36 11 36 -11z m390 7 c0
-4 -30 -11 -66 -15 -73 -7 -145 -39 -183 -80 -14 -14 -29 -26 -35 -26 -18 0
58 71 98 92 55 28 186 49 186 29z m2400 0 c0 -26 -55 -71 -104 -85 -30 -9 -58
-16 -62 -16 -19 0 15 19 63 35 35 11 60 27 74 46 21 30 29 35 29 20z m-4521
-63 c13 -34 1 -44 -15 -13 -17 33 -17 35 -4 35 6 0 14 -10 19 -22z m1391 -52
c0 -8 -4 -17 -8 -20 -13 -8 -35 11 -28 23 10 16 36 14 36 -3z m-348 -30 c25
-1 51 -69 35 -85 -6 -6 -11 -23 -12 -39 0 -15 -5 -27 -12 -26 -7 1 -24 2 -38
3 -29 1 -32 13 -9 36 10 10 13 22 8 33 -13 30 -15 94 -3 86 7 -4 21 -7 31 -8z
m573 4 c-3 -5 -15 -10 -26 -10 -11 0 -17 5 -14 10 3 6 15 10 26 10 11 0 17 -4
14 -10z m2158 -116 c-3 -8 0 -14 6 -14 6 0 11 -4 11 -10 0 -16 -27 -12 -46 8
-17 16 -17 16 -11 0 3 -10 2 -20 -3 -23 -6 -4 -10 0 -10 7 -1 9 -5 8 -13 -4
-8 -9 -18 -13 -25 -9 -17 10 -4 41 14 34 9 -3 14 1 14 12 0 9 5 13 10 10 6 -3
10 -2 10 3 0 5 11 7 24 5 16 -3 23 -10 19 -19z m-1979 0 c15 -6 23 -44 10 -44
-8 0 -33 32 -34 43 0 9 4 9 24 1z m3379 -20 c20 -7 23 -40 4 -47 -20 -8 -35 5
-43 37 -5 22 -4 27 7 22 8 -3 22 -9 32 -12z m-4315 -76 c19 -19 14 -28 -13
-28 -27 0 -28 1 -19 24 7 19 16 20 32 4z m712 -5 c0 -11 -112 -53 -139 -53
-11 0 -21 -4 -21 -10 0 -15 -21 -12 -42 7 -17 15 -18 15 -18 0 0 -10 6 -17 14
-17 22 0 30 -19 16 -35 -8 -10 -33 -15 -74 -16 -98 -1 -113 -15 -25 -23 60 -6
78 -11 88 -28 7 -11 10 -22 8 -24 -3 -3 -40 0 -83 6 -96 13 -214 12 -231 -1
-17 -15 -56 -1 -49 17 6 16 -3 18 -23 5 -7 -5 -11 -13 -7 -19 4 -7 -3 -8 -21
-3 -15 4 -28 12 -30 17 -3 10 81 38 151 49 38 6 38 6 32 46 -6 34 -4 39 14 39
17 0 20 -7 20 -45 0 -38 3 -45 19 -45 11 0 21 5 23 12 3 7 31 14 70 16 l66 4
4 34 c2 19 0 38 -6 44 -22 22 5 20 35 -3 34 -26 40 -26 154 17 46 17 55 19 55
9z m-2857 -40 c-7 -2 -19 -2 -25 0 -7 3 -2 5 12 5 14 0 19 -2 13 -5z m2967 -9
c11 -12 10 -18 -3 -32 -16 -15 -18 -15 -37 6 -21 22 -27 37 -10 27 6 -3 10 -1
10 4 0 16 26 13 40 -5z m1788 -44 c13 -24 25 -34 38 -32 11 2 31 6 47 9 16 3
27 1 27 -6 0 -6 -10 -11 -22 -11 -32 0 -52 -15 -45 -34 7 -18 -4 -21 -20 -5
-8 8 -17 8 -31 0 -11 -6 -25 -11 -31 -11 -12 0 -15 60 -5 109 7 35 13 33 42
-19z m-258 -20 c17 -22 28 -40 24 -40 -11 0 -74 62 -74 72 0 18 20 5 50 -32z
m-1559 -67 c-11 -21 -20 -35 -21 -31 0 12 33 78 38 74 2 -2 -6 -21 -17 -43z
m-692 -27 c-2 -2 -15 -9 -29 -15 -24 -11 -24 -11 -6 3 16 13 49 24 35 12z
m498 -26 c24 -27 32 -30 88 -30 54 0 63 3 73 23 6 12 11 17 11 11 1 -5 -5 -19
-13 -29 -12 -17 -24 -19 -78 -17 -51 3 -67 8 -83 27 -11 12 -29 28 -40 34 -17
9 -18 10 -3 11 10 0 30 -13 45 -30z m-582 -23 c-16 -12 -52 -42 -80 -67 -27
-24 -39 -32 -25 -16 28 32 118 106 128 106 4 0 -6 -11 -23 -23z m-176 8 c-3
-2 -65 -25 -139 -51 -179 -62 -236 -89 -243 -114 -5 -20 -37 -29 -37 -10 0 14
-37 13 -42 -2 -3 -7 -9 -8 -19 -3 -8 5 -27 8 -44 6 -54 -5 -178 -39 -185 -51
-5 -9 -9 -9 -14 -1 -12 19 2 29 59 42 32 7 55 18 55 25 0 21 22 28 35 11 6 -9
20 -14 31 -12 95 20 201 48 218 58 67 36 348 125 325 102z m81 -207 c0 -13
-12 -9 -26 10 -7 9 -13 24 -13 32 -1 10 6 6 19 -10 11 -14 20 -28 20 -32z
m-1144 -35 c27 -25 19 -49 -18 -57 -40 -8 -63 -8 -55 1 4 3 1 13 -6 21 -10 12
-9 16 1 20 7 2 18 10 25 18 16 18 30 17 53 -3z m-1758 -45 c-2 -18 -7 -33 -13
-33 -5 0 -11 15 -13 33 -3 24 1 32 13 32 12 0 16 -8 13 -32z m2842 12 c0 -5
-4 -10 -9 -10 -6 0 -13 5 -16 10 -3 6 1 10 9 10 9 0 16 -4 16 -10z m-865 -29
c-6 -5 -77 -39 -159 -76 -152 -68 -167 -71 -235 -49 -20 6 -23 4 -18 -9 11
-30 20 -92 11 -84 -11 11 -43 127 -35 127 3 0 29 -9 56 -19 l51 -19 89 38 c50
21 119 51 155 68 65 30 103 41 85 23z m-455 -176 c0 -16 -6 -25 -15 -25 -9 0
-15 9 -15 25 0 16 6 25 15 25 9 0 15 -9 15 -25z m4914 -12 c-13 -14 -17 -14
-25 -2 -6 10 -3 16 9 20 26 10 34 0 16 -18z m-5044 -17 c0 -8 -4 -17 -9 -20
-10 -7 -23 19 -14 28 11 11 23 6 23 -8z m5229 -144 c-82 -88 -114 -113 -125
-102 -5 5 -20 11 -33 13 -29 4 -36 31 -14 49 9 7 18 12 20 11 12 -10 46 1 71
22 17 14 33 21 36 16 4 -5 -4 -17 -16 -25 -12 -9 -18 -19 -14 -23 4 -4 33 19
64 53 31 33 61 58 65 56 4 -2 -20 -33 -54 -70z m-5396 62 c3 -4 2 -16 -4 -26
-13 -24 -35 -9 -26 16 7 17 19 21 30 10z m807 -63 c0 -6 -5 -13 -10 -16 -6 -4
-2 -13 10 -23 18 -15 19 -19 5 -42 -8 -14 -18 -34 -23 -45 -12 -26 -34 -44
-100 -84 -50 -30 -72 -33 -72 -10 0 6 4 8 9 4 13 -8 26 16 22 43 -3 27 15 29
22 2 3 -14 10 -18 22 -14 15 6 14 8 -1 25 -10 11 -14 22 -11 26 4 3 2 12 -4
20 -9 10 -8 13 5 13 9 0 16 7 16 15 0 8 8 15 18 15 9 0 28 18 42 40 22 37 50
53 50 31z m4329 -67 c26 -33 26 -50 2 -66 -15 -9 -17 -15 -9 -25 8 -10 6 -13
-6 -13 -9 0 -16 -8 -16 -20 0 -11 -4 -20 -10 -20 -17 0 -32 40 -25 69 4 19 1
32 -10 41 -19 16 -20 31 0 24 10 -4 15 0 15 15 0 30 34 27 59 -5z m257 -81
c-7 -7 -26 7 -26 19 0 6 6 6 15 -2 9 -7 13 -15 11 -17z m-93 -19 c10 -10 -12
-44 -28 -44 -18 0 -19 5 -3 30 13 21 21 24 31 14z m90 -14 c-3 -11 -9 -20 -14
-20 -11 0 -11 3 -3 24 9 23 23 20 17 -4z m1 -147 c8 -20 -1 -33 -25 -33 -25 0
-35 25 -17 43 15 17 34 12 42 -10z m-4287 -28 c3 -9 3 -19 -1 -22 -7 -7 -36
16 -36 28 0 15 30 10 37 -6z m147 -112 c8 -21 -6 -35 -27 -27 -20 7 -22 30 -4
37 21 9 25 8 31 -10z m-733 -57 c-15 -18 -4 -66 15 -66 8 0 14 -6 14 -14 0 -9
-7 -12 -20 -9 -14 4 -22 -1 -28 -17 -7 -19 -9 -20 -21 -6 -8 9 -25 16 -40 16
-47 0 -75 37 -57 75 8 18 17 22 41 18 16 -2 41 0 55 6 38 15 55 14 41 -3z
m4940 -86 c-9 -5 -10 -10 -2 -14 23 -15 10 -32 -23 -31 -42 0 -57 12 -35 28 9
7 21 22 28 35 11 21 13 21 28 6 13 -12 13 -18 4 -24z m-4827 -123 c6 -9 7 -19
3 -23 -9 -9 -37 15 -37 33 0 18 20 12 34 -10z m5079 -168 c-3 -10 0 -33 7 -49
7 -17 10 -33 7 -36 -8 -8 -33 44 -40 82 -5 27 -3 31 12 27 13 -3 17 -11 14
-24z m187 8 c0 -18 -36 -51 -44 -39 -6 10 21 52 35 52 5 0 9 -6 9 -13z m-40
-132 c7 -8 8 -15 2 -15 -5 0 -15 7 -22 15 -7 8 -8 15 -2 15 5 0 15 -7 22 -15z"/>
<path d="M3886 5822 c-6 -10 47 -52 64 -52 18 0 11 18 -16 39 -29 23 -40 26
-48 13z"/>
<path d="M4065 5700 c-3 -6 4 -19 17 -29 16 -13 25 -16 30 -8 4 6 6 12 5 12
-1 0 -12 8 -24 18 -14 12 -23 15 -28 7z"/>
<path d="M4280 5029 c0 -5 5 -7 10 -4 6 3 10 8 10 11 0 2 -4 4 -10 4 -5 0 -10
-5 -10 -11z"/>
<path d="M4283 5009 c-29 -11 -30 -45 -2 -54 27 -9 31 -3 27 33 -3 26 -6 28
-25 21z"/>
<path d="M4200 4949 c0 -5 11 -15 25 -21 14 -6 25 -16 25 -22 0 -6 5 -3 11 7
13 22 11 25 -30 37 -19 5 -31 5 -31 -1z"/>
<path d="M4428 4917 l-18 -37 24 0 c13 0 26 7 30 15 3 8 1 15 -4 15 -5 0 -10
10 -12 22 -3 18 -6 16 -20 -15z"/>
<path d="M4282 4900 c0 -19 2 -27 5 -17 2 9 2 25 0 35 -3 9 -5 1 -5 -18z"/>
<path d="M4400 4849 c0 -5 5 -7 10 -4 6 3 10 8 10 11 0 2 -4 4 -10 4 -5 0 -10
-5 -10 -11z"/>
<path d="M4237 4823 c-3 -5 -1 -26 3 -48 l8 -40 1 48 c1 45 -2 56 -12 40z"/>
<path d="M4321 4774 c0 -11 3 -14 6 -6 3 7 2 16 -1 19 -3 4 -6 -2 -5 -13z"/>
<path d="M4286 4735 c-3 -8 -1 -15 4 -15 6 0 10 7 10 15 0 8 -2 15 -4 15 -2 0
-6 -7 -10 -15z"/>
<path d="M4336 4725 c-3 -8 -1 -15 4 -15 6 0 10 7 10 15 0 8 -2 15 -4 15 -2 0
-6 -7 -10 -15z"/>
<path d="M4280 4685 c0 -8 2 -15 4 -15 2 0 6 7 10 15 3 8 1 15 -4 15 -6 0 -10
-7 -10 -15z"/>
<path d="M4310 4678 c-12 -22 -12 -22 6 -6 10 10 15 20 12 24 -4 3 -12 -5 -18
-18z"/>
<path d="M4287 4593 c-4 -3 -7 -16 -7 -27 1 -21 1 -21 15 -2 8 11 15 23 15 28
0 10 -14 11 -23 1z"/>
<path d="M4251 4554 c0 -11 3 -14 6 -6 3 7 2 16 -1 19 -3 4 -6 -2 -5 -13z"/>
<path d="M4900 4316 c0 -26 15 -43 24 -28 7 12 -4 52 -15 52 -5 0 -9 -11 -9
-24z"/>
<path d="M3715 3190 c-3 -5 1 -10 10 -10 9 0 13 5 10 10 -3 6 -8 10 -10 10 -2
0 -7 -4 -10 -10z"/>
<path d="M6046 3227 c3 -10 9 -15 12 -12 3 3 0 11 -7 18 -10 9 -11 8 -5 -6z"/>
<path d="M6990 2400 c0 -5 5 -10 11 -10 5 0 7 5 4 10 -3 6 -8 10 -11 10 -2 0
-4 -4 -4 -10z"/>
<path d="M2454 2389 c-11 -18 13 -34 31 -19 8 7 15 16 15 21 0 13 -38 11 -46
-2z"/>
<path d="M2418 2323 c6 -2 18 -2 25 0 6 3 1 5 -13 5 -14 0 -19 -2 -12 -5z"/>
<path d="M6780 2379 c0 -5 5 -7 10 -4 6 3 10 8 10 11 0 2 -4 4 -10 4 -5 0 -10
-5 -10 -11z"/>
<path d="M6781 2284 c0 -11 3 -14 6 -6 3 7 2 16 -1 19 -3 4 -6 -2 -5 -13z"/>
<path d="M2110 1881 c0 -26 17 -36 35 -21 16 14 21 35 6 25 -5 -3 -12 -1 -16
5 -10 17 -25 11 -25 -9z"/>
</g>
</svg>
