<?xml version="1.0" standalone="no"?>
<!DOCTYPE svg PUBLIC "-//W3C//DTD SVG 20010904//EN"
 "http://www.w3.org/TR/2001/REC-SVG-20010904/DTD/svg10.dtd">
<svg version="1.0" xmlns="http://www.w3.org/2000/svg"
 width="800.000000pt" height="800.000000pt" viewBox="0 0 800.000000 800.000000"
 preserveAspectRatio="xMidYMid meet">
<metadata>
Created by potrace 1.16, written by Peter Selinger 2001-2019
</metadata>
<g transform="translate(0.000000,800.000000) scale(0.100000,-0.100000)"
fill="#000000" stroke="none">
<path d="M0 7971 c0 -17 5 -33 10 -36 8 -5 8 -11 1 -19 -14 -17 -15 -1890 -1
-1881 16 10 60 -6 70 -25 21 -38 -19 -72 -60 -50 l-20 11 2 -2072 3 -2071 67
-17 c37 -10 71 -20 74 -24 14 -14 -4 -17 -32 -6 -16 6 -48 15 -71 19 -42 7
-43 6 -43 -22 0 -27 2 -28 51 -28 70 0 190 37 182 56 -4 11 -8 12 -19 3 -18
-15 -31 -4 -17 13 6 7 14 33 18 58 4 25 11 50 15 55 5 6 10 28 12 50 3 39 5
41 57 57 61 20 91 43 91 70 0 10 6 18 14 18 8 0 16 16 20 40 7 42 36 77 73 86
23 6 113 -25 113 -38 0 -5 14 -8 31 -8 22 0 32 5 36 19 3 11 15 22 26 25 36 9
107 7 107 -4 0 -5 -25 -10 -55 -10 -42 0 -55 -4 -55 -15 0 -8 -9 -19 -19 -25
-23 -12 -81 -14 -81 -2 0 4 -20 18 -44 29 -43 21 -44 21 -74 3 -33 -21 -47
-54 -40 -95 4 -19 1 -25 -13 -25 -11 0 -19 -6 -19 -13 0 -23 -39 -51 -93 -67
-46 -14 -52 -19 -55 -45 -2 -17 -10 -44 -18 -62 -16 -36 -18 -75 -4 -89 12
-12 22 -83 14 -106 -9 -31 -24 -19 -17 14 5 28 4 31 -13 24 -49 -19 -133 -36
-177 -36 l-50 0 7 -42 c4 -23 13 -50 21 -59 8 -8 15 -21 15 -27 0 -16 6 -15
37 5 24 16 26 16 39 -2 19 -25 18 -51 -3 -59 -15 -6 -14 -8 3 -20 15 -12 22
-11 42 2 21 14 25 13 49 -4 32 -25 50 -51 40 -60 -6 -7 -20 7 -49 50 -5 7 -17
5 -38 -7 -17 -10 -35 -15 -43 -10 -6 4 -19 6 -27 5 -8 -1 -20 6 -25 16 -47 89
-59 106 -63 88 -2 -10 0 -21 5 -25 18 -12 22 -40 7 -51 -19 -16 -21 -329 -2
-348 9 -9 9 -12 0 -12 -9 0 -12 -68 -12 -276 0 -237 2 -275 14 -265 10 9 12
20 6 41 -5 17 -5 32 0 35 14 9 23 -60 11 -82 -7 -14 -7 -23 1 -31 7 -7 8 -12
2 -12 -5 0 -15 5 -22 12 -9 9 -12 -55 -12 -290 l0 -302 1993 0 1992 0 -30 25
c-16 13 -45 31 -62 40 -18 9 -33 22 -33 29 0 7 -60 52 -132 101 -73 49 -173
119 -223 156 -99 73 -229 204 -260 261 -17 34 -18 39 -3 55 8 10 13 24 11 31
-7 18 17 15 24 -3 3 -9 -2 -24 -12 -35 -17 -19 -17 -21 0 -47 10 -16 50 -63
89 -106 76 -85 287 -244 307 -231 7 4 9 3 5 -4 -7 -11 78 -74 104 -76 12 -1
144 -82 170 -103 2 -2 -1 -7 -8 -12 -8 -4 5 -19 38 -44 l49 -37 851 0 c619 0
850 3 850 11 0 6 9 9 20 6 10 -3 21 0 24 7 3 7 10 5 19 -7 13 -16 42 -17 398
-15 l384 3 -42 25 c-39 23 -54 40 -35 40 15 0 92 -57 85 -63 -3 -4 5 -6 18 -5
18 1 24 8 25 27 1 15 -1 20 -3 14 -5 -15 -33 -18 -33 -4 0 5 7 11 15 15 8 3
15 15 15 26 0 25 -43 44 -79 35 -21 -5 -23 -4 -12 8 9 12 9 16 -1 20 -7 2 -10
8 -6 12 4 4 17 0 30 -9 30 -21 38 -20 38 5 0 12 5 19 13 16 6 -2 11 -12 10
-22 -1 -15 5 -17 38 -12 27 4 44 1 54 -10 19 -18 19 -21 0 -40 -9 -8 -19 -28
-22 -44 -3 -16 -9 -26 -14 -24 -4 3 -10 1 -14 -5 -4 -6 30 -10 98 -10 l103 0
16 33 c9 17 40 62 70 100 48 60 56 77 71 150 9 45 17 94 17 109 0 47 15 38 39
-23 13 -33 25 -58 27 -56 2 2 -3 20 -11 40 -20 47 -19 57 4 57 14 0 17 -6 14
-24 -3 -13 3 -38 12 -56 11 -21 13 -35 7 -39 -6 -4 -15 -19 -21 -34 -6 -15
-15 -27 -21 -27 -6 0 -6 9 0 24 6 18 4 34 -10 62 -21 41 -22 40 -40 -53 -7
-34 -22 -75 -34 -91 -11 -16 -42 -57 -69 -92 -26 -35 -46 -64 -45 -65 8 -6 78
9 78 17 0 5 12 26 27 46 15 20 28 39 30 41 2 2 6 2 9 -1 7 -7 -10 -40 -30 -60
-7 -8 -17 -24 -20 -36 -7 -22 -5 -22 78 -22 62 0 86 3 86 13 0 6 -5 41 -10 77
-5 36 -5 69 -1 73 9 9 12 -9 27 -115 l6 -48 424 0 424 0 0 1175 0 1174 -29 15
c-34 18 -60 71 -42 89 8 8 19 8 41 0 l30 -11 0 221 0 221 -31 -30 c-17 -16
-50 -56 -73 -89 -48 -67 -176 -295 -176 -312 0 -24 -21 -23 -65 3 -35 20 -44
31 -40 45 4 12 -1 22 -16 30 -12 6 -40 28 -63 49 -23 20 -66 54 -96 74 -30 21
-54 40 -52 42 1 2 -1 4 -5 4 -5 1 -9 -9 -11 -20 -4 -26 -27 -36 -46 -21 -10 8
-20 0 -46 -36 -32 -45 -34 -51 -31 -122 1 -42 7 -80 12 -86 5 -5 9 -38 9 -74
l0 -65 -40 39 c-35 34 -43 38 -58 27 -45 -32 -71 -26 -31 7 31 26 57 26 86 -1
l23 -21 0 31 c0 34 -26 72 -49 72 -8 0 -31 18 -51 40 l-37 40 -13 -30 c-7 -17
-24 -39 -37 -50 -24 -19 -24 -19 -4 -30 12 -6 21 -17 21 -25 0 -11 -14 -14
-57 -14 -32 1 -71 -1 -88 -3 -49 -5 -41 23 16 62 29 19 56 34 60 33 8 -3 27
43 39 97 24 100 31 117 60 142 20 19 41 28 64 28 19 0 36 5 38 11 2 6 18 17
35 24 26 11 34 11 52 -1 12 -9 21 -21 21 -29 0 -8 9 -19 20 -25 32 -17 26 25
-11 71 -23 29 -27 39 -15 39 8 0 22 -12 30 -27 17 -32 82 -95 141 -138 22 -15
47 -36 56 -44 24 -23 54 -47 82 -66 19 -12 26 -13 29 -3 3 9 13 6 33 -10 16
-12 32 -19 36 -15 16 17 99 174 99 188 0 8 4 15 8 15 5 0 25 24 45 53 20 29
52 68 72 87 19 18 35 40 35 48 0 7 4 10 10 7 6 -4 10 41 10 129 0 133 0 136
-22 140 -13 3 -52 10 -87 16 -34 6 -69 14 -77 17 -9 3 -14 -2 -14 -16 0 -12
-4 -21 -10 -21 -19 0 -10 50 25 135 20 47 40 97 45 111 6 14 14 22 20 19 7 -4
7 -12 0 -25 -8 -15 -6 -20 10 -25 27 -9 25 -25 -3 -25 -17 0 -28 -13 -50 -58
-15 -32 -27 -63 -27 -68 0 -9 59 -24 153 -40 l37 -6 0 103 c0 57 -3 114 -6
126 -4 14 -24 29 -57 43 -60 25 -47 40 14 16 21 -9 42 -16 44 -16 3 0 5 22 5
48 0 46 -1 48 -37 61 -21 8 -43 16 -49 18 -6 2 -21 -23 -34 -56 -21 -57 -40
-79 -40 -47 0 13 -126 74 -134 65 -2 -2 -6 -25 -8 -51 -4 -36 -2 -45 8 -41 30
11 10 -12 -92 -110 -114 -109 -144 -134 -144 -119 0 5 42 49 93 98 90 85 92
89 92 133 0 25 4 67 9 92 l8 45 -94 39 c-51 21 -130 55 -175 76 -49 22 -83 33
-83 26 1 -7 7 -39 15 -72 21 -85 20 -98 -5 -85 -21 11 -31 31 -44 83 -4 16 -2
27 4 27 6 0 13 -14 17 -30 3 -17 8 -29 10 -26 3 3 0 27 -6 53 -9 35 -17 49
-30 50 -24 2 -201 102 -201 114 0 13 -2 14 106 -46 98 -54 99 -54 119 -35 20
19 21 19 37 1 13 -15 316 -151 338 -151 4 0 10 14 14 31 5 27 9 30 31 25 14
-4 25 -3 24 1 -3 19 2 33 11 33 6 0 8 -10 4 -24 -4 -19 -1 -26 16 -31 27 -9
26 -10 33 48 5 37 3 49 -8 53 -8 4 -15 11 -15 16 0 6 6 8 14 5 8 -3 16 2 19
14 4 15 0 19 -23 19 -16 0 -35 3 -44 6 -30 12 -16 22 27 19 23 -1 30 0 15 2
-23 3 -28 9 -28 33 0 33 35 52 52 29 7 -11 11 -11 15 -1 10 25 24 11 18 -18
-5 -23 -3 -30 8 -30 9 0 17 15 21 40 8 52 26 52 19 0 -4 -31 -2 -40 9 -40 10
0 18 14 22 40 4 25 11 38 17 34 6 -3 8 -13 5 -21 -3 -8 -1 -11 4 -8 6 3 13 -1
16 -9 16 -43 24 -3 24 123 0 137 0 140 -22 144 l-23 4 23 8 c22 7 22 10 22
162 0 85 -3 152 -8 149 -4 -2 -23 -36 -42 -75 -18 -39 -36 -71 -39 -71 -3 0
-13 5 -21 10 -13 8 -9 20 22 84 20 40 34 77 31 80 -15 15 -31 3 -51 -39 -12
-25 -26 -45 -32 -45 -6 0 1 23 16 51 21 41 23 53 12 60 -7 5 -21 6 -30 3 -10
-3 -51 12 -93 34 l-75 39 0 -26 c0 -24 9 -32 70 -61 39 -19 70 -37 70 -42 0
-12 -5 -11 -75 21 -67 31 -73 29 -53 -14 8 -18 14 -22 19 -13 4 7 11 9 15 5 4
-3 1 -15 -7 -24 -12 -17 -12 -17 5 -2 15 14 23 15 47 6 39 -15 37 -31 -2 -23
-26 5 -32 2 -36 -15 -3 -12 -11 -18 -19 -15 -7 3 -16 1 -19 -4 -12 -19 -26
-10 -15 9 17 32 12 40 -40 66 -28 14 -50 30 -50 35 0 13 6 13 40 -5 28 -15 30
-14 30 4 0 26 -32 45 -48 29 -9 -9 -17 -6 -32 12 -24 27 -25 40 -5 40 8 0 15
4 15 8 0 5 10 8 23 6 12 -1 26 -3 31 -3 5 -1 3 -7 -3 -14 -6 -8 -8 -17 -4 -20
16 -17 23 -3 23 43 0 28 5 50 10 50 6 0 29 -9 51 -21 23 -11 39 -16 36 -11 -4
4 -24 17 -47 27 -34 15 -53 35 -35 35 19 0 205 -103 200 -110 -4 -6 -12 -8
-18 -4 -7 3 -1 -4 12 -16 l25 -21 12 23 c11 21 10 24 -13 37 -15 8 -21 16 -15
20 6 3 -32 29 -83 56 -52 28 -95 53 -95 58 0 11 6 9 81 -29 39 -19 69 -31 66
-27 -3 5 -33 22 -66 38 -34 16 -61 32 -61 37 0 15 17 9 104 -38 84 -45 120
-73 79 -62 -18 5 -19 3 -9 -18 13 -29 32 -31 46 -5 15 28 13 39 -10 46 -11 3
-20 11 -20 17 0 5 6 8 13 5 9 -3 23 14 40 49 15 30 22 54 16 54 -5 0 -7 4 -4
10 3 5 -35 30 -85 55 -49 25 -90 49 -90 53 0 4 4 14 10 22 8 12 14 12 45 -3
20 -10 34 -13 31 -8 -3 4 -19 14 -36 21 -30 13 -44 37 -14 26 14 -5 15 -4 4 9
-20 24 4 18 80 -20 39 -19 70 -33 70 -30 0 2 -31 21 -70 40 -38 19 -70 40 -70
45 0 6 32 -6 70 -25 l70 -35 0 715 c0 631 -2 714 -15 709 -9 -4 -15 0 -15 10
0 9 7 16 15 16 13 0 15 95 15 795 l0 795 -1299 0 -1300 0 -20 -26 c-16 -21
-24 -24 -34 -15 -8 6 -17 8 -20 5 -3 -3 -11 -3 -17 1 -8 5 -8 11 1 21 10 12
-91 14 -715 14 -399 0 -727 -3 -727 -7 -5 -28 -4 -65 2 -69 10 -6 -10 -87 -24
-96 -6 -4 -12 -27 -12 -52 0 -52 -7 -58 -21 -20 -9 27 -31 33 -141 38 -13 1
-23 6 -23 13 0 6 -6 13 -12 16 -10 3 -10 7 -2 18 6 8 10 25 9 39 -1 14 2 30 7
37 5 7 7 17 3 23 -3 5 -3 16 2 23 24 38 57 37 -1269 37 l-1280 0 -19 -24 c-10
-13 -32 -29 -49 -36 -16 -7 -30 -16 -30 -20 0 -4 -11 -10 -25 -12 -31 -6 -32
5 -2 25 12 8 20 17 17 21 -10 9 -50 -6 -50 -19 0 -20 -48 -25 -53 -6 -2 9 -6
20 -8 25 -2 5 19 11 46 14 28 2 55 8 62 14 7 5 17 7 22 4 5 -4 12 -2 16 4 4 7
-164 10 -514 10 l-521 0 0 -29z m43 -6 c-5 -13 -23 -22 -23 -11 0 15 14 35 21
31 4 -3 6 -12 2 -20z m3095 -95 c7 0 12 -7 12 -15 0 -9 6 -12 15 -9 8 4 15 2
15 -4 0 -5 -7 -12 -15 -16 -8 -3 -15 -12 -15 -21 0 -8 -4 -15 -10 -15 -5 0
-10 7 -10 16 0 8 -4 12 -10 9 -5 -3 -10 -20 -10 -36 0 -17 -3 -29 -7 -27 -5 2
-20 9 -34 17 l-25 13 23 45 c13 26 23 53 23 61 0 13 3 13 18 -1 10 -10 24 -17
30 -17z m1596 -12 c13 -14 15 -23 8 -26 -20 -6 -13 -34 13 -62 23 -24 25 -30
14 -54 -7 -14 -16 -26 -21 -26 -11 0 -10 7 2 30 9 16 -9 51 -40 80 -7 6 -7 80
0 80 3 0 14 -10 24 -22z m-1699 -38 c3 -5 -1 -10 -9 -10 -9 0 -16 5 -16 10 0
6 4 10 9 10 6 0 13 -4 16 -10z m3808 -138 c-27 -42 -64 -102 -82 -132 l-33
-55 37 -31 c20 -18 32 -34 28 -37 -9 -6 -245 168 -251 184 -8 20 18 6 88 -46
40 -30 77 -52 81 -49 5 3 27 37 50 77 66 113 122 192 127 179 2 -7 -18 -48
-45 -90z m222 -22 c3 -6 1 -10 -5 -10 -14 0 -90 61 -90 72 0 10 85 -46 95 -62z
m-775 -141 c-45 -101 -95 -217 -112 -256 -16 -40 -34 -73 -40 -73 -13 0 -9 10
98 256 53 120 100 232 106 247 6 17 14 25 19 20 6 -6 -24 -86 -71 -194z
m-4130 167 c0 -11 -19 -15 -25 -6 -3 5 1 10 9 10 9 0 16 -2 16 -4z m1035 -8
c14 -6 25 -15 25 -20 0 -11 -7 -10 -40 7 -47 24 -34 36 15 13z m1991 -35 c-3
-11 -33 -37 -66 -58 -32 -21 -57 -42 -54 -47 3 -4 -6 -8 -20 -8 -14 0 -26 5
-26 10 0 6 -7 10 -16 10 -8 0 -12 5 -9 10 3 6 0 10 -8 10 -16 0 -49 -33 -46
-46 6 -19 -13 -71 -34 -98 l-23 -28 -39 21 c-22 11 -45 21 -51 21 -23 0 -54
-36 -57 -65 -2 -17 -7 -36 -11 -43 -4 -7 -2 -12 3 -12 6 0 11 -11 11 -24 0
-17 7 -26 25 -30 17 -4 27 -17 34 -43 6 -20 9 -39 6 -41 -2 -2 -19 5 -38 17
-30 19 -36 19 -47 6 -7 -8 -16 -15 -20 -15 -4 0 -23 -14 -41 -31 -48 -45 -63
-51 -85 -33 -18 15 -18 15 3 11 15 -3 33 6 60 30 21 19 30 30 20 23 -29 -21
-31 -3 -3 30 14 17 26 43 26 56 0 14 4 23 9 19 16 -9 24 15 11 30 -7 8 -8 15
-3 15 5 0 14 20 22 44 12 43 30 59 80 70 14 3 30 1 37 -5 19 -16 64 7 64 32 0
12 12 37 26 56 25 33 25 35 8 54 -9 10 -12 19 -7 19 6 0 16 -7 23 -15 7 -9 19
-14 25 -11 7 2 31 0 54 -6 48 -12 81 3 60 29 -7 7 -9 17 -5 20 4 4 11 1 15 -6
12 -18 48 -5 68 25 18 27 28 26 19 -3z m-976 -35 c0 -5 -13 -8 -30 -8 -16 0
-30 4 -30 9 0 4 13 8 30 7 16 -1 30 -4 30 -8z m-233 -20 c-6 -19 33 -70 49
-64 8 3 14 1 14 -5 0 -6 -17 -9 -40 -8 -21 2 -42 0 -46 -4 -10 -10 -34 -9 -34
2 0 5 14 12 30 16 34 7 37 13 14 29 -9 7 -12 18 -8 29 7 19 28 24 21 5z
m-3745 -44 c-1 -12 11 -33 32 -53 33 -32 34 -32 64 -17 17 9 34 20 37 26 10
16 25 12 18 -5 -3 -9 -19 -23 -35 -31 -19 -10 -28 -21 -24 -30 10 -27 -10 -14
-63 40 -35 35 -51 58 -46 67 6 9 3 11 -8 6 -17 -6 -23 4 -10 17 14 14 38 0 35
-20z m4158 -41 c0 -7 -4 -13 -10 -13 -5 0 -10 12 -10 28 0 21 2 24 10 12 5 -8
10 -21 10 -27z m14 -49 c8 -21 8 -24 -3 -24 -5 0 -11 9 -14 20 -6 24 8 27 17
4z m-1154 -39 c0 -18 -31 -75 -40 -75 -7 0 -10 3 -8 8 3 4 10 22 17 40 11 27
31 45 31 27z m1170 -15 c0 -5 -2 -10 -4 -10 -3 0 -8 5 -11 10 -3 6 -1 10 4 10
6 0 11 -4 11 -10z m-4114 -75 c23 -19 47 -35 53 -35 20 0 12 -18 -11 -23 -29
-8 -58 9 -58 33 0 11 -7 20 -15 20 -8 0 -15 2 -15 4 0 2 -3 11 -6 20 -9 25 5
19 52 -19z m2927 -48 c22 4 22 4 2 -11 -10 -9 -24 -15 -30 -13 -13 5 -19 44
-9 65 6 13 9 10 12 -14 3 -27 7 -31 25 -27z m2217 -9 c0 -11 -12 -10 -30 2
-13 9 -13 11 0 19 14 9 29 -2 30 -21z m-4806 16 c26 -10 18 -24 -14 -24 -20 0
-30 5 -30 15 0 16 17 19 44 9z m4706 -59 c5 3 10 1 10 -5 0 -17 -43 -8 -48 10
-5 13 -3 13 11 2 9 -8 21 -11 27 -7z m365 -59 c-3 -33 -16 -44 -32 -24 -14 17
0 55 20 55 10 0 14 -10 12 -31z m-4959 -2 c-3 -9 -6 -20 -6 -25 0 -5 -7 -9
-16 -9 -14 0 -14 3 -4 15 9 11 9 15 1 15 -7 0 -9 5 -6 10 10 17 38 12 31 -6z
m-701 -24 c3 -5 -1 -10 -9 -10 -8 0 -18 5 -21 10 -3 6 1 10 9 10 8 0 18 -4 21
-10z m105 0 c-19 -13 -30 -13 -30 0 0 6 10 10 23 10 18 0 19 -2 7 -10z m-45
-10 c4 -6 -6 -10 -22 -9 -25 0 -26 1 -8 9 11 5 21 9 22 9 1 1 5 -3 8 -9z m85
-21 c0 -11 -4 -17 -10 -14 -5 3 -10 15 -10 26 0 11 5 17 10 14 6 -3 10 -15 10
-26z m2519 15 c2 -2 2 -6 -1 -9 -8 -8 -68 6 -68 16 0 8 59 1 69 -7z m386 -4
c0 -8 -8 -16 -17 -18 -13 -2 -18 3 -18 18 0 15 5 20 18 18 9 -2 17 -10 17 -18z
m-2875 -50 c8 -5 12 -12 9 -15 -8 -8 -39 5 -39 16 0 11 11 11 30 -1z m4280
-123 c0 -18 -2 -19 -10 -7 -13 20 -13 43 0 35 6 -3 10 -16 10 -28z m-3866 -73
c93 -54 91 -52 84 -60 -6 -5 -188 94 -188 102 0 12 32 -1 104 -42z m1696 3 c0
-5 -7 -4 -15 3 -8 7 -15 20 -15 29 1 13 3 13 15 -3 8 -11 15 -24 15 -29z
m2196 5 c-9 -8 -26 10 -26 26 1 15 2 15 15 -2 8 -11 13 -21 11 -24z m-1332 9
c3 -5 -1 -28 -9 -51 -8 -23 -15 -55 -15 -71 0 -16 -4 -29 -10 -29 -5 0 -10 7
-10 16 0 14 -3 14 -15 4 -18 -15 -19 -7 -4 21 5 11 14 17 18 14 8 -5 20 36 24
83 2 23 12 29 21 13z m-56 -58 c-8 -10 -14 -23 -11 -29 2 -6 -3 -17 -12 -24
-9 -7 -15 -8 -15 -2 0 6 -3 17 -6 26 -4 10 -1 16 9 16 15 0 32 27 28 45 -1 6
3 4 10 -2 10 -10 9 -16 -3 -30z m2194 5 c-9 -9 -12 -9 -12 0 0 7 -8 12 -17 13
-15 0 -15 2 2 9 25 10 44 -5 27 -22z m-2997 -16 c-8 -8 -25 10 -25 26 0 13 2
13 14 -4 8 -10 13 -21 11 -22z m2205 17 c0 -11 -4 -17 -10 -14 -5 3 -10 13
-10 21 0 8 5 14 10 14 6 0 10 -9 10 -21z m745 1 c3 -5 -3 -10 -14 -10 -12 0
-21 5 -21 10 0 6 6 10 14 10 8 0 18 -4 21 -10z m2545 -10 c20 -12 9 -21 -18
-13 -12 3 -19 9 -16 14 7 11 15 11 34 -1z m-6150 -64 c0 -57 -7 -70 -29 -57
-9 6 -10 11 -2 15 18 11 14 56 -5 56 -10 0 -14 -6 -10 -15 3 -8 1 -15 -4 -15
-6 0 -10 11 -10 25 0 18 5 25 20 25 11 0 20 5 20 10 0 6 5 10 10 10 6 0 10
-24 10 -54z m700 25 c0 -23 -39 -74 -40 -51 0 25 -21 -4 -29 -42 -6 -24 -4
-43 5 -59 16 -28 17 -39 5 -39 -5 0 -14 13 -21 29 -14 35 -4 142 14 140 19 -3
46 13 46 27 0 8 5 14 10 14 6 0 10 -9 10 -19z m2175 0 c3 -5 1 -12 -5 -16 -5
-3 -10 1 -10 9 0 18 6 21 15 7z m-3607 -67 c86 -25 207 -63 267 -84 61 -21
122 -42 138 -45 15 -4 27 -11 27 -16 0 -14 -6 -12 -145 35 -71 24 -201 65
-288 92 -140 42 -162 46 -190 36 -37 -14 -48 -7 -21 13 28 21 41 19 212 -31z
m4337 -4 c-5 -7 -12 -2 -21 15 -20 38 -17 43 7 18 12 -12 18 -26 14 -33z
m1189 18 c12 -47 6 -115 -11 -130 -33 -29 -101 -59 -108 -47 -4 6 -5 11 -4 12
2 1 27 13 54 27 l50 25 -1 68 c-1 67 8 87 20 45z m-3658 -73 c23 -21 24 -25 9
-25 -10 0 -26 -7 -36 -16 -17 -15 -18 -14 -16 12 2 23 -2 28 -15 26 -10 -2
-18 1 -18 5 0 4 -3 19 -7 31 -6 24 -6 24 25 8 17 -9 43 -27 58 -41z m-698 22
c19 -15 14 -37 -9 -37 -11 0 -29 -10 -39 -22 -10 -13 -22 -20 -26 -16 -11 11
26 48 48 48 24 0 23 16 -2 23 -14 4 -25 -4 -41 -29 -23 -38 -39 -44 -39 -14 0
11 5 20 11 20 6 0 20 11 30 25 20 24 38 25 67 2z m3233 -73 c12 -14 11 -16 -5
-13 -11 2 -21 10 -24 17 -5 17 13 15 29 -4z m49 -39 c14 -16 10 -18 -14 -9 -9
3 -16 10 -16 15 0 14 16 11 30 -6z m-3970 -5 c12 -8 11 -10 -7 -10 -12 0 -25
5 -28 10 -8 13 15 13 35 0z m-165 -10 c3 -5 -1 -10 -9 -10 -8 0 -18 5 -21 10
-3 6 1 10 9 10 8 0 18 -4 21 -10z m225 -22 c0 -13 -32 -6 -37 9 -3 7 3 9 16 6
12 -3 21 -10 21 -15z m3960 -10 c0 -6 -7 -5 -15 2 -8 7 -15 17 -15 22 0 6 7 5
15 -2 8 -7 15 -17 15 -22z m-4227 -3 c-3 -8 -9 -15 -14 -15 -10 0 -12 24 -3
33 11 11 24 -3 17 -18z m44 -9 c-3 -7 0 -19 6 -25 8 -8 5 -11 -12 -11 -15 0
-20 -4 -15 -12 5 -8 0 -7 -11 2 -10 8 -16 10 -12 3 12 -19 -3 -41 -24 -36 -12
4 -25 -2 -34 -13 -11 -15 -14 -16 -15 -4 0 22 29 60 46 60 8 0 14 4 14 10 0 5
7 7 16 3 10 -4 17 1 21 16 3 11 10 21 15 21 6 0 8 -6 5 -14z m4233 -18 c0 -13
-23 -5 -28 10 -2 7 2 10 12 6 9 -3 16 -11 16 -16z m2480 19 c0 -2 -9 -12 -20
-22 -19 -18 -20 -17 -20 3 0 15 6 22 20 22 11 0 20 -2 20 -3z m-682 -65 c-20
-22 -40 -48 -46 -58 -6 -10 -14 -16 -17 -12 -9 8 30 65 65 95 38 33 37 18 -2
-25z m-1748 23 c14 -16 10 -18 -14 -9 -9 3 -16 10 -16 15 0 14 16 11 30 -6z
m2406 -30 c2 -30 0 -31 -26 -5 -26 26 -25 30 3 30 16 0 22 -6 23 -25z m-2346
5 c0 -5 -6 -10 -14 -10 -8 0 -18 5 -21 10 -3 6 3 10 14 10 12 0 21 -4 21 -10z
m2234 1 c3 -5 -5 -11 -19 -13 -17 -4 -25 -1 -25 8 0 15 36 19 44 5z m56 -11
c0 -5 -5 -10 -12 -10 -6 0 -3 -9 7 -20 10 -11 26 -20 37 -20 14 0 18 -8 18
-34 0 -19 -4 -37 -9 -40 -13 -9 -20 41 -7 55 8 9 7 11 -5 6 -11 -3 -27 6 -45
24 -24 25 -26 31 -14 39 20 13 30 12 30 0z m-2235 -10 c3 -5 -3 -10 -14 -10
-12 0 -21 5 -21 10 0 6 6 10 14 10 8 0 18 -4 21 -10z m50 -21 c11 -17 0 -20
-21 -4 -17 13 -17 14 -2 15 9 0 20 -5 23 -11z m1885 -14 c0 -9 -6 -12 -15 -9
-8 4 -12 10 -9 15 8 14 24 10 24 -6z m-1830 -5 c8 -5 12 -12 9 -15 -8 -8 -39
5 -39 16 0 11 11 11 30 -1z m-1820 -40 c0 -22 4 -28 15 -24 22 9 18 -9 -5 -24
-16 -10 -20 -10 -20 2 0 7 -3 28 -6 45 -4 20 -3 31 5 31 6 0 11 -13 11 -30z
m1860 20 c0 -5 -5 -10 -11 -10 -5 0 -7 5 -4 10 3 6 8 10 11 10 2 0 4 -4 4 -10z
m-2248 -47 c12 -16 38 -67 38 -77 0 -7 -81 -36 -100 -36 -16 0 -20 -7 -20 -32
0 -23 -9 -40 -35 -64 -32 -29 -39 -32 -36 -11 0 4 -11 7 -27 7 -15 0 -38 7
-51 16 -19 14 -25 14 -32 3 -14 -22 -11 -30 14 -37 20 -6 20 -7 -8 -12 -17 -3
-30 -11 -30 -20 0 -8 6 -14 13 -12 6 1 12 -2 12 -8 0 -6 -9 -10 -19 -10 -18 0
-36 -25 -32 -44 1 -5 -7 -15 -19 -23 -11 -8 -20 -21 -20 -29 0 -18 -15 -18
-34 2 -18 18 -21 34 -6 34 6 0 14 8 17 17 4 9 22 30 40 46 18 16 33 34 33 40
0 6 8 28 17 49 14 32 21 38 38 33 41 -13 47 -9 76 44 37 68 38 70 50 48 6 -10
22 -17 39 -17 23 0 31 5 36 26 4 14 2 30 -5 37 -15 15 -14 27 4 27 8 0 15 5
15 10 0 15 15 12 32 -7z m468 7 c0 -5 -7 -10 -16 -10 -8 0 -12 5 -9 10 3 6 10
10 16 10 5 0 9 -4 9 -10z m-2954 -47 c-11 -11 -19 6 -11 24 8 17 8 17 12 0 3
-10 2 -21 -1 -24z m2844 17 c-20 -13 -43 -13 -35 0 3 6 16 10 28 10 18 0 19
-2 7 -10z m-55 -20 c-3 -5 -13 -10 -21 -10 -8 0 -12 5 -9 10 3 6 13 10 21 10
8 0 12 -4 9 -10z m-2815 -10 c0 -5 -9 -10 -20 -10 -11 0 -20 5 -20 10 0 6 9
10 20 10 11 0 20 -4 20 -10z m3463 -25 c23 -20 52 -38 64 -41 25 -7 30 -23 12
-41 -6 -6 -12 -19 -13 -29 -2 -13 -13 -20 -32 -22 -16 -2 -31 -7 -34 -12 -3
-4 -20 3 -39 16 l-34 23 27 7 c15 3 39 1 52 -5 32 -14 32 -14 43 7 9 16 4 18
-62 17 -45 -1 -72 -5 -75 -13 -2 -7 -19 -11 -40 -11 -33 2 -34 2 -8 6 22 3 26
7 16 13 -11 7 -8 11 11 19 17 6 31 24 43 55 10 25 20 46 23 46 3 0 23 -16 46
-35z m-714 -1 c-13 -7 -26 -10 -28 -8 -8 7 33 33 43 27 5 -3 -2 -12 -15 -19z
m-2805 -9 c-6 -16 -24 -21 -24 -7 0 11 11 22 21 22 5 0 6 -7 3 -15z m5096 -16
c0 -5 -10 -9 -21 -9 -18 0 -19 2 -9 15 12 15 30 12 30 -6z m-52 0 c-2 -6 -8
-10 -13 -10 -5 0 -11 4 -13 10 -2 6 4 11 13 11 9 0 15 -5 13 -11z m-1776 -21
c-7 -7 -12 -8 -12 -2 0 14 12 26 19 19 2 -3 -1 -11 -7 -17z m-3286 -14 c-3 -9
-6 -18 -6 -20 0 -3 -4 -3 -10 1 -11 7 -2 35 12 35 6 0 7 -7 4 -16z m3345 -1
c13 -16 12 -17 -3 -4 -10 7 -18 15 -18 17 0 8 8 3 21 -13z m1803 1 c9 -24 7
-28 -9 -14 -17 14 -20 30 -6 30 5 0 12 -7 15 -16z m-1810 -29 c15 -22 15 -28
1 -61 -8 -19 -14 -38 -13 -42 1 -4 -9 -27 -21 -52 -13 -25 -24 -47 -24 -50 0
-3 -4 -16 -9 -29 -10 -27 -4 -51 12 -51 6 0 8 -5 5 -11 -4 -5 1 -19 11 -30 11
-12 13 -19 5 -19 -8 0 -10 -7 -6 -20 6 -20 -9 -28 -19 -11 -3 4 -19 11 -36 14
-27 6 -43 27 -20 27 14 0 12 48 -2 52 -8 3 -5 13 10 33 26 32 28 51 7 59 -8 3
-15 10 -15 16 0 6 4 9 9 6 15 -9 22 68 8 79 -9 7 -11 21 -6 43 8 40 12 44 52
59 18 6 33 12 33 12 1 1 9 -10 18 -24z m1734 6 c3 -8 -1 -12 -9 -9 -7 2 -15
10 -17 17 -3 8 1 12 9 9 7 -2 15 -10 17 -17z m315 -44 c17 -34 13 -147 -4
-147 -15 0 -10 -39 7 -65 10 -15 12 -25 5 -25 -6 0 -19 12 -28 28 -10 15 -27
35 -38 44 -11 10 -15 17 -8 18 6 0 15 -4 18 -10 10 -17 25 -11 25 10 0 11 5
20 10 20 13 0 13 96 0 121 -10 18 -12 18 -37 -11 -14 -17 -28 -28 -31 -25 -8
8 -42 -26 -36 -36 2 -5 -8 -8 -23 -7 -15 1 -38 -1 -50 -6 -15 -4 -23 -3 -23 3
0 6 5 11 11 11 17 0 40 28 29 35 -5 3 -10 13 -10 22 0 13 3 13 15 3 8 -7 15
-19 15 -26 0 -8 7 -14 15 -14 8 0 12 6 9 14 -5 12 50 53 69 52 5 -1 13 7 18
17 13 22 22 16 42 -26z m-5403 6 c0 -22 -2 -25 -10 -13 -13 20 -13 40 0 40 6
0 10 -12 10 -27z m5208 8 c3 -8 -1 -12 -9 -9 -7 2 -15 10 -17 17 -3 8 1 12 9
9 7 -2 15 -10 17 -17z m-84 -7 c4 -10 1 -14 -6 -12 -15 5 -23 28 -10 28 5 0
13 -7 16 -16z m-1616 -24 c13 -11 20 -24 17 -30 -5 -8 -12 -5 -21 8 -8 12 -21
18 -33 15 -11 -3 -21 2 -24 11 -9 23 32 20 61 -4z m1632 -30 c0 -11 -4 -20
-10 -20 -5 0 -10 9 -10 20 0 11 5 20 10 20 6 0 10 -9 10 -20z m-1495 -35 l20
-16 -20 10 c-11 5 -29 17 -40 26 l-20 16 20 -10 c11 -5 29 -17 40 -26z m1507
-25 c-12 -11 -24 -20 -27 -20 -3 0 -5 9 -5 20 0 15 7 20 27 20 l27 0 -22 -20z
m-1516 -8 c-3 -6 -65 -165 -118 -301 -6 -16 -12 -21 -19 -14 -6 6 12 61 52
159 34 82 63 155 66 161 3 7 9 10 14 7 5 -3 7 -8 5 -12z m1689 -20 c-8 -9 -35
20 -28 31 4 6 11 3 19 -8 8 -10 12 -21 9 -23z m-198 -44 c-3 -7 -5 -2 -5 12 0
14 2 19 5 13 2 -7 2 -19 0 -25z m-1031 -17 c-4 -6 -14 -11 -22 -11 -12 0 -12
3 -2 20 7 11 16 16 21 11 5 -5 6 -14 3 -20z m1402 17 c-2 -6 -10 -14 -16 -16
-7 -2 -10 2 -6 12 7 18 28 22 22 4z m-368 -48 c0 -11 -4 -20 -10 -20 -5 0 -10
9 -10 20 0 11 5 20 10 20 6 0 10 -9 10 -20z m330 -10 c-11 -20 -30 -28 -30
-12 0 11 22 32 32 32 5 0 4 -9 -2 -20z m-3420 0 c12 -8 11 -10 -6 -10 -15 0
-26 -10 -34 -31 -8 -18 -18 -28 -26 -25 -8 3 -14 1 -14 -4 0 -6 -5 -10 -10
-10 -6 0 -8 11 -4 25 4 15 2 25 -5 25 -6 0 -11 4 -11 8 0 5 14 9 32 9 18 0 34
5 36 11 4 14 22 15 42 2z m3090 -50 c0 -11 -4 -20 -10 -20 -5 0 -10 9 -10 20
0 11 5 20 10 20 6 0 10 -9 10 -20z m-2200 -62 c0 -5 -9 -4 -20 2 -11 6 -18 15
-14 21 6 11 34 -7 34 -23z m2191 -21 c-13 -13 -15 1 -4 30 7 17 8 17 11 -1 2
-10 -1 -23 -7 -29z m-1884 2 c-14 -10 -29 -38 -36 -63 -10 -41 -26 -64 -37
-53 -2 2 2 17 11 33 8 16 15 37 15 47 0 21 48 69 62 61 5 -3 -2 -14 -15 -25z
m-4157 -39 c0 -5 -7 -7 -15 -4 -8 4 -15 8 -15 10 0 2 7 4 15 4 8 0 15 -4 15
-10z m833 -106 c-17 -27 -17 -28 0 -21 10 4 21 7 23 7 3 0 2 5 -1 10 -3 6 -3
10 2 11 4 0 16 2 26 4 22 4 22 0 -1 -23 -26 -26 -59 -33 -73 -16 -9 11 -8 18
3 32 8 9 19 26 23 37 7 17 9 18 12 3 2 -9 -4 -29 -14 -44z m67 36 c0 -13 -11
-13 -30 0 -12 8 -11 10 8 10 12 0 22 -4 22 -10z m3930 -17 c-1 -11 -26 -43
-34 -43 -8 0 -8 35 1 43 9 9 33 9 33 0z m-740 -56 c9 -3 3 -6 -12 -6 -20 -1
-28 4 -28 15 0 12 4 14 13 7 6 -6 19 -13 27 -16z m90 -55 c0 -8 -8 -31 -19
-51 -26 -51 -43 -109 -36 -121 3 -5 2 -10 -4 -10 -5 0 -13 5 -17 11 -4 7 -17
0 -35 -17 -40 -38 -47 -24 -10 19 20 22 31 45 31 64 0 17 9 40 20 53 24 28 25
39 5 46 -27 11 -16 19 25 19 27 0 40 -4 40 -13z m-3163 -79 c10 -33 9 -44 -8
-82 -10 -24 -19 -64 -19 -90 0 -49 -18 -123 -44 -183 l-16 -36 -50 16 c-43 14
-50 19 -50 41 0 42 18 93 42 118 13 13 23 37 24 53 1 16 11 48 23 72 15 32 18
44 8 50 -12 7 -9 9 23 12 8 0 22 16 30 33 8 18 17 33 20 33 3 0 10 -17 17 -37z
m3738 7 c3 -5 1 -10 -4 -10 -6 0 -11 -7 -11 -15 0 -8 -4 -15 -8 -15 -8 0 -54
-94 -58 -118 -2 -8 -10 -22 -18 -31 -9 -10 -16 -25 -16 -34 0 -10 -8 -17 -19
-17 -28 0 -88 -101 -102 -172 -6 -32 -16 -58 -21 -58 -6 0 -8 10 -5 23 3 12 9
40 13 61 6 35 72 152 93 166 15 9 88 134 107 182 18 46 36 59 49 38z m55 -45
c0 -8 5 -15 11 -15 5 0 7 -5 4 -10 -5 -8 -11 -7 -21 1 -16 13 -19 39 -4 39 6
0 10 -7 10 -15z m96 -86 c8 -14 -11 -33 -25 -25 -11 7 -4 36 9 36 5 0 12 -5
16 -11z m43 -38 c7 -5 11 -14 7 -19 -9 -15 -36 -4 -36 14 0 16 9 18 29 5z
m-899 -42 c12 -36 12 -47 -4 -93 -19 -57 -47 -118 -58 -126 -4 -3 -6 -19 -4
-35 1 -17 -2 -39 -8 -50 -11 -22 -13 -27 -15 -50 -2 -30 -18 -14 -19 20 -1 19
2 35 7 35 5 0 11 14 13 30 3 17 1 30 -3 30 -12 0 -32 -30 -33 -53 -1 -12 -7
-21 -14 -19 -15 3 -16 -10 -2 -24 11 -11 4 -44 -9 -44 -4 0 -14 30 -23 68 -18
78 -11 96 35 89 21 -3 36 3 53 18 24 22 24 22 4 40 -27 25 -25 53 8 106 16 24
27 50 24 57 -4 13 15 42 28 42 4 0 13 -18 20 -41z m-1449 12 c18 -11 26 -21
20 -26 -6 -3 -28 -32 -47 -63 -20 -31 -50 -72 -66 -91 l-30 -34 23 -18 c19
-15 21 -19 7 -19 -9 0 -20 5 -23 11 -5 7 -14 3 -26 -10 -18 -19 -69 -30 -69
-15 0 13 25 50 41 62 10 7 21 28 25 47 3 19 10 35 14 35 4 0 16 23 26 50 17
47 27 55 62 51 10 -2 12 4 7 18 -8 26 -4 26 36 2z m-1753 -4 c-24 -9 -28 -17
-28 -48 0 -30 -7 -43 -37 -69 -21 -18 -47 -52 -58 -76 -17 -36 -165 -205 -165
-188 0 17 29 56 81 109 32 33 65 76 73 96 8 20 31 50 51 67 27 24 35 39 35 65
0 40 15 57 50 56 l25 -1 -27 -11z m3054 -165 c-17 -41 -32 -55 -32 -29 0 15
40 81 46 75 2 -3 -4 -23 -14 -46z m335 -234 c-6 -78 -32 -221 -43 -240 -3 -4
-10 -8 -15 -8 -6 0 -8 4 -5 8 11 19 37 162 43 240 3 45 10 82 16 82 6 0 8 -30
4 -82z m3566 40 c23 -11 37 -23 30 -25 -11 -4 -93 33 -93 42 0 10 22 4 63 -17z
m-3019 -30 c-9 -32 -14 -35 -24 -18 -14 21 -12 28 8 33 9 3 18 5 20 6 2 0 0
-9 -4 -21z m36 -13 c0 -8 -4 -17 -10 -20 -6 -4 -10 5 -10 20 0 15 4 24 10 20
6 -3 10 -12 10 -20z m-3108 -14 c3 8 9 9 20 3 15 -8 15 -13 -3 -48 -26 -54
-24 -60 16 -75 19 -7 35 -17 35 -22 0 -12 -5 -12 -45 5 -29 12 -34 12 -39 0
-3 -8 -1 -14 4 -14 16 0 12 -17 -5 -24 -8 -3 -22 -3 -30 0 -13 5 -13 9 0 34
16 31 11 60 -10 60 -7 0 -12 11 -12 25 0 19 5 25 22 25 19 0 22 4 18 28 -4 25
-3 26 10 9 10 -12 16 -14 19 -6z m2238 11 c0 -11 -35 -52 -44 -52 -3 0 -6 12
-6 26 0 19 4 25 15 20 8 -3 15 -1 15 4 0 6 5 10 10 10 6 0 10 -4 10 -8z m100
-3 c0 -20 -62 -159 -71 -159 -11 0 -1 47 15 75 19 31 27 57 16 50 -12 -7 -12
-3 -4 20 5 13 8 14 15 3 7 -10 9 -9 9 5 0 9 5 17 10 17 6 0 10 -5 10 -11z
m865 1 c3 -5 17 -10 30 -10 13 0 31 -3 40 -6 19 -8 50 -64 35 -64 -6 0 -13 7
-16 15 -4 10 -19 15 -43 14 -32 -1 -33 -2 -11 -9 23 -7 23 -8 6 -15 -12 -6
-23 -3 -30 6 -6 8 -34 16 -66 18 -30 2 -63 7 -75 12 -15 7 -10 8 21 6 32 -2
40 1 36 12 -4 11 -1 11 16 2 11 -6 25 -11 31 -11 19 0 12 17 -11 28 -23 11
-23 11 4 11 15 1 30 -3 33 -9z m-2489 -27 c-10 -10 -19 5 -10 18 6 11 8 11 12
0 2 -7 1 -15 -2 -18z m1574 -33 c0 -16 -41 -37 -64 -33 -30 6 -32 11 -9 28 16
12 73 15 73 5z m-190 -75 c0 -9 -47 -98 -63 -119 -8 -10 -17 -15 -20 -10 -7
12 60 134 74 134 5 0 9 -2 9 -5z m-2826 -57 c-8 -27 -15 -34 -40 -36 -27 -3
-33 -9 -45 -45 -7 -23 -13 -48 -12 -54 1 -18 -14 -16 -20 1 -9 23 40 111 62
112 31 2 41 14 41 47 0 23 3 28 12 19 8 -8 8 -21 2 -44z m3477 -68 c4 -3 5
-16 2 -29 -10 -39 -30 0 -24 46 4 30 6 33 9 13 2 -14 8 -27 13 -30z m-757 4
c16 -19 26 -37 23 -40 -6 -7 -77 55 -77 67 0 19 26 6 54 -27z m1046 1 c0 -25
-14 -31 -38 -16 -11 6 -10 11 3 25 23 23 35 20 35 -9z m-2560 -27 c-1 -14 -24
-48 -32 -48 -3 0 -25 -18 -48 -40 -23 -22 -50 -40 -60 -40 -10 0 -23 -7 -30
-15 -9 -11 -16 -12 -25 -5 -6 5 -15 7 -18 3 -4 -3 -7 3 -7 15 0 24 10 28 28
10 9 -9 13 -8 17 4 4 9 14 14 24 11 19 -5 48 23 37 34 -4 4 -11 1 -15 -6 -5
-7 -13 -11 -19 -7 -15 9 -2 46 17 46 9 0 39 11 66 24 59 29 65 30 65 14z m735
-28 c4 -6 21 -8 41 -4 29 5 34 4 34 -13 0 -32 -20 -81 -36 -87 -8 -3 -11 -12
-7 -22 5 -13 3 -16 -10 -11 -10 4 -22 -1 -31 -14 -11 -17 -18 -19 -34 -10 -22
11 -21 24 7 94 6 16 11 39 11 53 0 25 14 32 25 14z m1382 -28 c-10 -10 -17
-21 -17 -24 0 -3 -23 -53 -51 -113 -53 -112 -78 -137 -39 -38 44 110 90 193
107 193 15 0 15 -1 0 -18z m-247 -36 c1 -19 2 -20 14 -4 21 28 26 9 8 -28 -17
-38 -26 -38 -72 -1 -36 28 -38 39 -5 31 21 -5 25 -3 25 15 0 14 5 19 15 15 8
-4 15 -16 15 -28z m-3178 -3 c10 -9 18 -22 18 -30 0 -7 10 -14 23 -14 l22 -2
-23 -4 c-12 -2 -27 -13 -32 -24 -8 -13 -20 -19 -43 -18 -27 2 -28 2 -7 6 29 6
40 19 40 51 0 16 -7 26 -20 29 -11 3 -20 9 -20 14 0 14 22 10 42 -8z m3258 11
c0 -6 -41 -106 -47 -113 -2 -2 -6 -1 -9 2 -9 8 36 117 47 117 5 0 9 -3 9 -6z
m69 -36 c0 -21 -53 -146 -61 -147 -13 -2 -10 10 19 87 25 65 44 92 42 60z
m3529 -28 c-11 -18 -28 -27 -28 -16 0 16 14 36 26 36 12 0 12 -4 2 -20z
m-6768 -10 c0 -5 -2 -10 -4 -10 -3 0 -8 5 -11 10 -3 6 -1 10 4 10 6 0 11 -4
11 -10z m2875 -57 c-7 -21 -25 -68 -39 -106 -14 -37 -26 -77 -26 -88 0 -20
-50 -187 -127 -422 -19 -59 -38 -105 -43 -102 -8 5 25 119 104 365 24 74 47
157 51 184 4 27 18 74 32 105 14 31 29 66 34 79 15 39 29 24 14 -15z m205 23
c0 -16 -18 -31 -27 -22 -8 8 5 36 17 36 5 0 10 -6 10 -14z m310 -14 c0 -6 -23
-47 -29 -52 -4 -3 -14 -17 -24 -32 -19 -31 -44 -39 -32 -10 4 9 14 36 22 58
12 34 19 42 39 40 13 0 24 -2 24 -4z m-710 -11 c0 -6 -4 -13 -10 -16 -5 -3
-10 1 -10 9 0 9 5 16 10 16 6 0 10 -4 10 -9z m-2820 -11 c0 -5 -7 -10 -15 -10
-8 0 -15 5 -15 10 0 6 7 10 15 10 8 0 15 -4 15 -10z m3124 4 c14 -5 14 -9 0
-35 -14 -28 -45 -41 -39 -16 6 26 17 57 20 57 2 0 10 -3 19 -6z m3067 -128 c5
3 9 0 9 -5 0 -6 -9 -11 -20 -11 -20 0 -26 11 -13 24 4 4 9 2 11 -3 2 -6 8 -9
13 -5z m-1921 -26 c0 -11 7 -23 15 -26 24 -10 17 -22 -15 -29 -16 -4 -30 -13
-30 -20 0 -9 -10 -12 -27 -10 -16 2 -32 0 -38 -5 -5 -4 -28 -13 -50 -21 -48
-15 -297 -19 -292 -4 5 14 168 25 191 13 26 -14 118 7 140 31 11 12 25 16 41
13 21 -4 25 -1 25 21 0 14 3 32 6 41 9 23 34 20 34 -4z m1935 -10 c3 -5 -1
-10 -9 -10 -9 0 -16 -7 -16 -17 0 -9 -3 -14 -6 -10 -8 8 5 47 16 47 5 0 12 -4
15 -10z m-45 -18 c0 -9 -6 -12 -16 -8 -9 3 -18 6 -20 6 -3 0 -3 4 0 8 9 14 36
10 36 -6z m890 9 c0 -5 -6 -11 -14 -14 -8 -3 -32 -32 -53 -63 -21 -31 -46 -62
-55 -68 -26 -16 -35 2 -10 20 12 8 36 36 53 62 41 61 79 91 79 63z m-7142 -43
c-16 -24 -83 -92 -167 -170 -59 -55 -94 -64 -82 -21 5 20 16 30 42 36 19 5 28
12 22 14 -23 8 -13 25 12 21 32 -7 62 15 125 90 50 60 80 78 48 30z m4002 -4
c0 -8 -4 -14 -10 -14 -5 0 -10 9 -10 21 0 11 5 17 10 14 6 -3 10 -13 10 -21z
m997 -48 c-3 -7 0 -19 6 -25 8 -8 6 -11 -6 -11 -23 0 -34 29 -16 41 19 12 22
11 16 -5z m-4399 -39 c-14 -6 -18 -11 -10 -14 20 -8 14 -25 -7 -18 -10 3 -24
-1 -31 -10 -10 -12 -10 -15 1 -15 10 -1 9 -4 -3 -14 -22 -16 -23 -45 -3 -52
21 -9 19 -24 -4 -24 -12 0 -21 10 -26 28 -4 15 -10 21 -12 15 -8 -22 -35 -15
-28 6 3 11 1 22 -5 26 -5 3 -10 1 -10 -4 0 -6 -4 -11 -10 -11 -5 0 -10 10 -10
21 0 16 5 20 19 16 11 -3 22 1 25 9 3 7 11 11 19 8 7 -2 31 11 52 30 31 29 41
33 53 24 11 -10 10 -13 -10 -21z m-948 8 c0 -8 -4 -15 -9 -15 -5 0 -11 7 -15
15 -3 9 0 15 9 15 8 0 15 -7 15 -15z m-40 -25 c-6 -11 -15 -20 -21 -20 -6 0
-6 7 1 20 6 11 15 20 21 20 6 0 6 -7 -1 -20z m7233 -55 c37 -40 63 -76 58 -79
-5 -3 -41 30 -81 74 -39 44 -66 80 -58 80 7 0 43 -34 81 -75z m-7173 46 c0 -5
-7 -11 -15 -15 -9 -3 -15 0 -15 9 0 8 7 15 15 15 8 0 15 -4 15 -9z m2086 -6
c4 -8 14 -15 24 -15 11 0 22 -5 25 -10 8 -13 -33 -9 -54 5 -10 5 -16 4 -19 -3
-2 -7 -8 -10 -13 -6 -5 3 -9 -5 -9 -18 0 -13 -5 -30 -10 -38 -7 -11 -10 -4
-10 27 0 32 5 46 22 57 28 20 37 20 44 1z m4853 -56 c-37 -44 -72 -68 -53 -36
21 34 79 95 86 91 5 -3 -10 -28 -33 -55z m-6889 41 c0 -5 -9 -10 -21 -10 -11
0 -17 5 -14 10 3 6 13 10 21 10 8 0 14 -4 14 -10z m60 -1 c0 -5 -9 -9 -20 -9
-11 0 -20 4 -20 8 0 4 9 8 20 9 11 1 20 -2 20 -8z m3650 1 c0 -5 -4 -10 -10
-10 -5 0 -10 5 -10 10 0 6 5 10 10 10 6 0 10 -4 10 -10z m3050 -262 c0 -16
-19 -6 -176 86 l-159 94 -11 -32 c-10 -26 -9 -34 6 -51 42 -49 26 -82 -46 -94
-27 -4 -59 -14 -71 -21 -19 -12 -24 -12 -42 4 -27 24 -27 61 0 94 l20 27 -22
18 -23 19 -14 -42 c-19 -55 -46 -72 -106 -64 -46 7 -61 30 -18 28 18 0 20 4
16 23 -4 14 -2 23 5 23 6 0 11 -6 11 -13 0 -8 9 -22 20 -32 17 -16 20 -16 20
-2 0 8 6 17 13 20 9 3 9 9 -1 27 -12 20 -11 25 9 43 l22 21 38 -22 c46 -27 49
-27 49 -3 0 11 13 30 29 44 l29 24 -29 17 c-16 10 -27 21 -24 26 5 9 454 -250
455 -262z m-6824 214 c-9 -8 -26 10 -26 26 1 15 2 15 15 -2 8 -11 13 -21 11
-24z m734 18 c-34 -27 -63 -26 -31 0 13 11 31 20 40 20 12 0 10 -5 -9 -20z
m2479 0 c14 0 17 -10 18 -50 0 -34 -3 -48 -10 -43 -6 4 -22 8 -35 9 -33 4 -35
7 -27 54 5 31 11 40 22 36 8 -3 22 -6 32 -6z m3582 -77 c72 -38 104 -59 91
-61 -17 -3 -191 85 -216 109 -25 23 23 4 125 -48z m-6781 12 c0 -14 -4 -25
-10 -25 -5 0 -10 11 -10 25 0 14 5 25 10 25 6 0 10 -11 10 -25z m3675 -78
c-13 -29 -20 -34 -33 -27 -10 5 -25 11 -34 14 -11 3 -18 15 -18 28 0 14 3 19
8 11 10 -16 35 -11 57 11 28 27 40 5 20 -37z m-2325 -78 c-6 -10 -15 -19 -21
-19 -6 0 -6 6 0 19 8 15 5 20 -15 30 -21 9 -24 14 -15 25 10 12 16 10 37 -10
19 -20 22 -29 14 -45z m2860 39 c0 -4 -4 -9 -10 -13 -5 -3 -7 -12 -3 -20 3 -8
0 -15 -6 -15 -6 0 -8 -7 -5 -15 7 -18 -4 -19 -41 -5 -22 8 -25 13 -15 25 6 8
9 19 5 25 -3 5 -1 10 4 10 6 0 11 9 11 19 0 17 3 18 30 8 17 -6 30 -15 30 -19z
m-4239 -98 c5 0 9 -7 9 -15 0 -8 -4 -15 -10 -15 -5 0 -7 -7 -4 -15 4 -8 1 -15
-6 -15 -7 0 -19 -8 -26 -17 -12 -17 -13 -16 -14 4 0 12 -4 25 -10 28 -19 12
-10 61 18 93 l27 32 3 -40 c2 -22 7 -40 13 -40z m1369 38 c10 6 21 8 24 5 10
-10 -15 -33 -37 -33 -11 0 -26 -8 -33 -17 -13 -17 -13 -17 -14 2 0 11 -3 31
-7 44 l-6 23 28 -18 c21 -14 31 -15 45 -6z m2336 -53 c-21 -21 -33 -18 -30 8
1 12 3 23 3 25 1 1 10 -2 21 -8 18 -10 19 -13 6 -25z m2653 -40 c-36 -51 -38
-47 39 -96 29 -18 42 -39 26 -39 -4 0 -29 16 -57 36 -39 28 -52 33 -58 23 -24
-43 -130 -179 -139 -179 -13 0 -12 2 68 113 71 98 71 89 -6 138 -17 11 -30 25
-26 30 3 5 27 -6 54 -26 l48 -35 38 51 c21 29 40 47 42 41 2 -6 -11 -32 -29
-57z m-4149 36 c0 -5 21 -20 46 -32 25 -13 47 -26 49 -30 3 -3 -8 -26 -24 -50
-15 -24 -26 -50 -23 -57 2 -6 1 -12 -2 -12 -11 0 -83 79 -78 85 4 3 -4 8 -16
12 -12 3 -22 10 -22 15 0 5 10 6 22 2 20 -6 21 -5 10 8 -10 12 -9 18 3 28 8 7
15 19 15 26 0 8 5 14 10 14 6 0 10 -4 10 -9z m-2450 -28 c0 -5 -14 -16 -31
-26 -43 -24 -30 -33 16 -12 48 23 55 13 10 -15 -41 -25 -91 -21 -81 6 3 9 6
20 6 25 0 6 4 7 10 4 5 -3 20 1 32 9 24 17 38 20 38 9z m4580 -53 c0 -12 -40
-33 -48 -25 -4 4 2 13 12 21 23 16 36 18 36 4z m2722 -212 c-3 -14 0 -17 14
-13 12 4 11 1 -3 -6 -13 -7 -23 -16 -23 -20 0 -5 -11 1 -24 12 l-24 21 21 22
c24 25 47 15 39 -16z m-219 0 c-21 -43 -23 -45 -33 -29 -4 8 -22 14 -39 14
-38 0 -29 11 24 31 61 22 66 20 48 -16z m86 -20 c-6 -12 -21 -32 -31 -43 -11
-11 -29 -35 -41 -54 -12 -19 -27 -36 -34 -38 -7 -3 2 19 20 49 52 83 122 154
86 86z m-809 -6 c0 -4 -6 -14 -12 -21 -11 -10 -6 -19 25 -46 25 -21 34 -36 27
-40 -7 -4 -27 7 -46 26 -27 26 -37 31 -43 20 -5 -7 -11 -9 -14 -4 -6 10 40 73
54 73 5 0 9 -4 9 -8z m-2890 -38 c0 -14 -114 -136 -118 -126 -2 7 20 39 49 72
49 55 69 71 69 54z m3225 -44 c15 -16 15 -20 3 -20 -8 0 -23 9 -33 20 -15 16
-15 20 -3 20 8 0 23 -9 33 -20z m-5057 -2 c-2 -6 10 -24 26 -39 l31 -27 -21
-28 c-22 -30 -50 -51 -58 -43 -7 6 -18 76 -18 108 0 22 16 40 35 41 5 0 7 -5
5 -12z m5854 -51 c-25 -26 -28 -37 -9 -37 13 0 40 -71 30 -80 -3 -3 -12 5 -20
17 -12 18 -19 21 -35 12 -10 -6 -24 -8 -31 -6 -7 3 3 11 21 19 29 13 31 16 18
28 -23 18 -20 36 11 59 33 27 43 18 15 -12z m-1021 -108 c48 -41 121 -103 164
-139 42 -36 90 -82 107 -102 l29 -38 40 32 39 32 -40 41 c-22 23 -37 44 -33
48 8 9 93 -72 93 -89 0 -6 -17 -24 -37 -39 -21 -16 -44 -35 -51 -44 -11 -13
-14 -12 -28 9 -22 34 -186 190 -199 190 -10 -1 6 -16 99 -97 26 -23 46 -47 44
-52 -1 -6 -75 53 -163 130 -217 190 -211 184 -195 204 11 13 15 13 29 2 9 -7
55 -47 102 -88z m-6501 -14 c32 -16 35 -22 21 -43 -5 -8 -17 -11 -34 -7 -20 6
-25 13 -25 36 1 34 0 34 38 14z m3450 -144 c0 -39 -57 -101 -94 -104 -16 -1
-31 3 -33 10 -3 7 3 10 15 6 26 -6 62 18 85 56 l18 30 -36 39 c-46 52 -44 61
5 22 29 -23 40 -39 40 -59z m3170 -63 c0 -15 -12 -8 -61 33 -27 22 -46 45 -43
50 5 9 104 -70 104 -83z m-6489 65 c-19 -32 -110 -128 -111 -116 0 14 100 133
112 133 5 0 4 -8 -1 -17z m6384 -73 c27 -27 45 -38 57 -34 13 4 16 1 12 -10
-4 -9 5 -29 20 -47 35 -41 24 -51 -14 -14 l-30 29 -30 -29 c-36 -34 -36 -38
-10 -75 11 -16 16 -31 11 -34 -5 -3 -23 16 -40 42 -34 54 -38 67 -17 59 7 -3
26 8 42 24 l28 29 -42 43 c-23 24 -42 46 -42 50 0 16 18 5 55 -33z m1240 30
c3 -5 -1 -10 -9 -10 -9 0 -16 5 -16 10 0 6 4 10 9 10 6 0 13 -4 16 -10z
m-1284 -244 c49 -76 89 -139 89 -142 0 -22 -31 16 -98 119 -98 152 -108 171
-92 165 7 -2 53 -66 101 -142z m348 103 c-35 -27 -46 -23 -19 6 12 13 27 22
33 18 5 -3 -1 -14 -14 -24z m-59 3 c0 -14 -99 -106 -107 -99 -4 4 15 30 42 57
47 48 65 59 65 42z m-388 -127 c31 -47 52 -88 47 -90 -4 -3 -16 6 -25 20 -9
14 -19 23 -22 21 -7 -8 -32 21 -32 38 0 9 -4 16 -10 16 -16 0 -41 46 -34 64 3
9 10 16 14 16 4 0 32 -38 62 -85z m-172 65 c0 -5 -6 -10 -14 -10 -8 0 -18 5
-21 10 -3 6 3 10 14 10 12 0 21 -4 21 -10z m123 -80 c40 -64 42 -70 28 -70 -9
0 -81 110 -81 124 0 19 19 -1 53 -54z m-3340 16 c6 -16 -41 -25 -98 -18 -54 6
-41 21 23 25 31 2 60 4 63 5 4 1 9 -4 12 -12z m3590 -58 c-13 -12 -26 -18 -30
-14 -4 4 1 14 11 22 31 22 43 17 19 -8z m-385 -40 c16 -16 15 -58 0 -58 -7 0
-24 9 -38 20 -25 19 -25 19 -5 34 25 19 28 19 43 4z m-238 -87 c0 -5 -9 -13
-20 -16 -26 -8 -26 -22 0 -30 34 -11 20 -79 -25 -123 -19 -19 -35 -30 -35 -23
0 6 11 22 24 34 31 29 45 92 22 100 -9 4 -23 4 -31 1 -18 -7 -20 16 -2 38 10
14 28 22 60 27 4 0 7 -3 7 -8z m-3731 -77 c-5 -5 -2 -31 6 -57 12 -41 12 -48
-1 -62 -9 -8 -23 -15 -32 -15 -14 0 -13 3 5 18 16 13 20 24 16 45 -7 35 -20
43 -28 17 -3 -11 -11 -20 -16 -20 -14 0 -11 9 16 55 13 23 22 45 19 48 -3 3
-2 12 2 19 6 9 10 6 14 -12 4 -14 3 -30 -1 -36z m3636 -85 c10 -14 1 -21 -19
-13 -9 3 -13 10 -10 15 7 12 21 11 29 -2z m-41 -44 c-6 -16 -24 -21 -24 -7 0
11 11 22 21 22 5 0 6 -7 3 -15z m113 -23 c25 20 11 -42 -14 -68 -13 -13 -23
-33 -23 -46 0 -17 -3 -19 -12 -10 -10 10 -8 19 6 43 16 28 17 32 2 48 -18 20
-21 36 -6 26 6 -3 10 -1 10 6 0 10 3 10 12 1 9 -9 15 -9 25 0z m-148 -28 c-17
-21 -31 -17 -19 6 6 11 15 18 21 14 6 -4 6 -11 -2 -20z m-32 -49 c-4 -8 -11
-15 -17 -15 -7 0 -7 6 0 21 13 23 26 19 17 -6z m-2527 -16 c6 11 12 11 31 1
20 -11 21 -14 6 -25 -12 -9 -14 -14 -5 -23 9 -9 8 -12 -6 -12 -12 0 -16 -5
-12 -15 3 -8 1 -15 -4 -15 -6 0 -10 5 -10 11 0 6 -8 8 -17 5 -10 -3 -26 1 -36
9 -18 13 -17 15 10 56 26 39 28 41 31 19 3 -16 6 -19 12 -11z m-1060 -17 c0
-14 -39 -46 -47 -39 -3 4 2 16 12 27 19 21 35 26 35 12z m3554 -17 c-6 -16
-24 -21 -24 -7 0 11 11 22 21 22 5 0 6 -7 3 -15z m-3291 -14 c3 -12 -3 -27
-14 -37 -18 -17 -20 -16 -33 2 -10 13 -11 24 -5 36 13 24 45 23 52 -1z m-144
-32 c-12 -23 -11 -29 2 -29 5 0 8 4 4 9 -3 6 3 14 13 20 14 8 22 5 36 -14 11
-15 24 -21 34 -18 11 5 14 2 9 -10 -5 -13 -1 -17 14 -17 17 0 20 -5 17 -25 -3
-14 -1 -28 4 -31 12 -7 -10 -34 -28 -34 -8 0 -14 5 -14 10 0 6 5 10 12 10 6 0
9 3 6 6 -4 3 -16 1 -27 -6 -16 -8 -21 -8 -21 3 0 15 -25 43 -64 71 -14 10 -24
21 -21 24 3 3 -3 14 -12 25 -16 18 -16 20 -1 14 11 -4 18 1 22 16 5 18 8 19
15 8 6 -9 6 -22 0 -32z m3419 -15 c-10 -10 -28 6 -28 24 0 15 1 15 17 -1 9 -9
14 -19 11 -23z m40 -16 c19 -19 14 -30 -8 -18 -11 6 -20 15 -20 20 0 14 14 12
28 -2z m-3548 -34 c0 -3 -21 -31 -46 -62 -44 -54 -45 -57 -25 -66 18 -8 30
-26 16 -26 -4 0 -56 21 -63 26 -6 4 102 134 111 134 4 0 7 -3 7 -6z m-863
-150 c-3 -3 -12 -4 -19 -1 -8 3 -5 6 6 6 11 1 17 -2 13 -5z m-1067 -106 c0
-56 9 -66 52 -60 27 3 39 1 35 -5 -4 -6 -29 -13 -57 -17 -28 -4 -57 -9 -65
-12 -8 -4 -15 -2 -15 4 0 5 10 12 21 15 19 5 21 10 15 51 -5 30 -4 46 3 46 6
0 11 -10 11 -22z m1370 15 c-1 -9 -205 -166 -223 -172 -20 -6 23 34 118 108
87 68 106 79 105 64z m1440 -3 c0 -5 7 -7 15 -4 18 7 20 -15 3 -51 -11 -25
-28 -34 -28 -15 0 5 -7 7 -15 4 -20 -8 -19 10 0 26 9 7 13 21 10 31 -4 11 -2
19 4 19 6 0 11 -4 11 -10z m110 -50 c0 -11 -4 -20 -10 -20 -5 0 -10 9 -10 20
0 11 5 20 10 20 6 0 10 -9 10 -20z m-2666 4 c14 -5 14 -7 0 -22 -18 -17 -64
-26 -64 -11 0 5 -4 9 -10 9 -5 0 -10 -7 -10 -15 0 -8 -4 -15 -10 -15 -5 0 -10
5 -10 10 0 6 -8 10 -17 10 -30 0 -2 15 50 26 29 7 53 12 54 13 1 0 8 -2 17 -5z
m5611 -85 c76 -13 103 -29 146 -87 26 -35 35 -40 111 -56 57 -12 83 -15 86 -7
2 6 19 11 38 11 29 0 34 -4 34 -22 0 -13 -3 -18 -8 -12 -12 19 -36 22 -54 7
-14 -13 -27 -12 -105 7 -81 20 -90 24 -116 61 -40 55 -61 66 -162 87 -49 10
-90 23 -93 30 -2 8 4 9 25 3 15 -5 60 -15 98 -22z m204 25 c17 -4 31 -11 31
-16 0 -11 -71 0 -84 13 -12 11 8 12 53 3z m-5721 -47 c3 -12 -3 -17 -22 -17
-25 0 -35 18 -19 34 12 12 38 2 41 -17z m-47 -110 c-8 -8 -11 -7 -11 4 0 20
13 34 18 19 3 -7 -1 -17 -7 -23z m4813 14 c17 -18 16 -21 -6 -60 -25 -44 -64
-65 -91 -49 -23 13 -21 26 13 81 33 51 56 59 84 28z m-4729 -23 c-6 -16 -55
-43 -55 -31 0 8 53 53 58 49 1 -2 0 -10 -3 -18z m5315 11 c0 -22 -43 -129 -51
-129 -14 0 -11 24 12 84 20 51 39 73 39 45z m-115 -49 c3 -6 0 -10 -7 -10 -15
0 -38 19 -38 32 0 10 36 -8 45 -22z m-2845 -20 c0 -5 -4 -10 -10 -10 -5 0 -10
5 -10 10 0 6 5 10 10 10 6 0 10 -4 10 -10z m3488 -7 c-24 -51 -45 -73 -63 -67
-11 3 -28 6 -37 5 -10 0 -18 5 -18 11 0 6 13 9 33 5 28 -4 35 -1 49 24 10 16
22 29 28 29 7 0 10 -3 8 -7z m-1108 -59 c15 -38 13 -40 -15 -14 -13 12 -22 27
-19 31 10 16 24 9 34 -17z m-2370 -40 c14 -16 20 -84 7 -84 -7 0 -13 12 -14
27 -2 41 -39 64 -90 57 -30 -4 -43 -3 -43 5 0 7 3 10 8 8 4 -3 16 -1 26 3 22
8 94 -3 106 -16z m-507 -44 c18 -29 18 -30 -2 -30 -12 0 -21 -4 -21 -9 0 -5
-14 -16 -31 -25 -26 -13 -30 -13 -25 -1 3 8 -3 16 -15 20 -23 8 -16 25 12 25
11 0 19 7 19 16 0 8 5 12 10 9 6 -3 13 1 16 9 9 23 17 20 37 -14z m-341 -1
c15 1 35 -7 45 -17 10 -10 26 -22 35 -25 10 -3 15 -12 12 -20 -3 -8 6 -34 19
-58 25 -46 25 -79 1 -79 -8 0 -14 -7 -14 -17 0 -9 -3 -13 -7 -10 -3 4 -15 0
-24 -9 -17 -15 -20 -15 -44 0 -25 16 -28 16 -58 -2 -40 -25 -97 -38 -97 -23 0
6 -7 11 -15 11 -18 0 -18 5 -4 32 16 30 -1 42 -45 30 -20 -6 -36 -6 -36 -2 0
5 18 14 40 20 27 7 40 16 40 28 0 10 6 24 13 31 10 10 9 11 -5 6 -20 -8 -36
31 -19 48 8 8 11 5 11 -12 0 -14 5 -21 13 -18 6 2 11 8 11 13 -1 5 -4 23 -7
41 -7 37 6 44 68 37 22 -3 52 -5 67 -5z m3037 -70 c5 7 14 10 21 6 17 -10 -26
-38 -48 -31 -14 5 -24 -4 -41 -34 -14 -26 -29 -40 -39 -38 -12 2 -16 -3 -15
-19 2 -15 -3 -23 -12 -23 -8 0 -15 7 -15 16 0 26 20 54 38 54 9 0 27 18 40 40
20 36 25 39 43 27 16 -10 21 -9 28 2z m-5295 -30 c-4 -6 -11 -6 -20 2 -21 17
-17 31 6 19 11 -6 18 -15 14 -21z m3142 -79 c29 -44 27 -79 -6 -115 -24 -26
-17 -56 17 -72 30 -14 45 -9 36 12 -14 38 26 6 54 -43 15 -25 12 -27 -49 -36
l-48 -7 0 35 c0 20 -4 36 -10 36 -15 0 -12 -41 5 -70 15 -27 20 -60 7 -60 -27
0 -51 183 -28 209 27 30 29 68 7 104 -37 60 -24 66 15 7z m655 -107 c10 -3 19
-9 19 -13 0 -13 -33 -21 -43 -11 -5 5 -16 7 -25 4 -9 -4 -13 -2 -9 4 4 6 1 13
-5 16 -9 3 -4 11 12 25 l25 21 3 -21 c2 -11 12 -23 23 -25z m1509 31 c0 -4 -6
-12 -14 -18 -24 -18 -118 -199 -119 -230 -2 -35 14 -43 38 -19 20 19 45 26 45
12 0 -5 7 -9 15 -9 8 0 15 -4 15 -9 0 -5 39 -10 88 -11 48 -1 113 -3 145 -4
31 0 57 -4 57 -8 0 -13 -59 -19 -131 -12 -41 3 -94 5 -117 5 -24 -1 -49 3 -56
8 -9 8 -30 8 -69 0 l-55 -11 -37 -117 c-67 -217 -84 -276 -91 -313 -6 -35 -4
-38 27 -52 32 -14 33 -14 8 -15 -42 -2 -64 21 -61 65 2 21 8 44 14 51 6 8 8
16 5 20 -4 3 -3 11 2 17 4 6 39 108 76 226 37 118 73 223 80 235 7 11 33 59
59 108 26 48 54 87 62 87 7 0 14 -3 14 -6z m525 -24 c3 -5 -1 -10 -9 -10 -9 0
-16 5 -16 10 0 6 4 10 9 10 6 0 13 -4 16 -10z m-4988 -142 c-2 -13 -4 -5 -4
17 -1 22 1 32 4 23 2 -10 2 -28 0 -40z m5969 -8 c17 -7 30 -7 38 -1 18 15 85
1 127 -25 36 -23 112 -104 105 -112 -9 -9 -46 10 -46 24 0 19 -45 61 -87 81
-51 24 -51 8 -2 -36 25 -21 58 -63 73 -92 16 -30 30 -55 32 -57 1 -2 20 6 43
17 55 29 66 26 42 -8 -13 -18 -35 -32 -58 -38 l-38 -9 3 -49 c3 -33 0 -46 -6
-40 -15 15 -23 78 -12 95 6 10 0 31 -23 69 -55 97 -82 119 -194 155 -49 16
-55 16 -84 2 -37 -19 -39 -19 -39 -7 0 35 69 52 126 31z m-6546 -25 c7 -8 8
-15 2 -15 -5 0 -15 7 -22 15 -7 8 -8 15 -2 15 5 0 15 -7 22 -15z m6390 -44 c0
-19 -201 -81 -263 -81 -55 0 -37 16 25 23 29 3 91 19 138 35 97 35 100 35 100
23z m-370 -55 c0 -3 -4 -8 -10 -11 -5 -3 -10 -1 -10 4 0 6 5 11 10 11 6 0 10
-2 10 -4z m-4298 -48 c-7 -7 -12 -8 -12 -2 0 14 12 26 19 19 2 -3 -1 -11 -7
-17z m-1294 -76 c23 -4 31 -21 10 -23 -10 0 -10 -2 0 -6 6 -2 12 -9 12 -15 0
-6 -6 -8 -14 -5 -8 3 -17 -1 -20 -9 -3 -8 -10 -14 -16 -14 -7 0 -8 6 -2 17 7
12 2 31 -19 68 -16 29 -26 55 -22 58 3 4 16 -10 28 -30 12 -23 29 -39 43 -41z
m5568 23 c1 -14 -2 -25 -6 -25 -11 0 -21 30 -14 41 10 16 19 9 20 -16z m-47
-22 c-9 -11 -8 -17 6 -27 23 -16 12 -36 -21 -36 -24 0 -33 15 -13 22 9 3 8 10
-2 25 -11 18 -11 24 0 37 11 13 17 14 27 5 11 -9 12 -15 3 -26z m783 -5 c-7
-7 -12 -8 -12 -2 0 14 12 26 19 19 2 -3 -1 -11 -7 -17z m-1702 -28 c0 -23 -4
-30 -20 -30 -36 0 -25 55 13 59 4 1 7 -12 7 -29z m-4528 6 c-2 -5 2 -13 10
-17 9 -6 4 -9 -16 -9 -20 0 -27 4 -23 14 3 8 1 17 -6 20 -7 3 -1 4 13 3 14 -1
23 -6 22 -11z m-742 -6 c0 -5 -2 -10 -4 -10 -3 0 -8 5 -11 10 -3 6 -1 10 4 10
6 0 11 -4 11 -10z m420 -9 c0 -6 -5 -13 -10 -16 -6 -4 -10 -12 -9 -18 4 -30
-3 -41 -11 -19 -7 15 -6 29 3 42 12 21 27 26 27 11z m200 -265 c0 -2 -8 -10
-17 -17 -16 -13 -17 -12 -4 4 13 16 21 21 21 13z m6420 -5 c0 -12 -20 -25 -27
-18 -7 7 6 27 18 27 5 0 9 -4 9 -9z m-67 -71 c-3 -11 -9 -20 -14 -20 -10 0
-12 24 -2 33 13 13 21 7 16 -13z"/>
<path d="M3092 7835 c-19 -42 -14 -53 8 -17 22 36 24 42 12 42 -5 0 -14 -11
-20 -25z"/>
<path d="M4695 7259 c-4 -6 -5 -12 -2 -15 2 -3 7 2 10 11 7 17 1 20 -8 4z"/>
<path d="M4716 7244 c-4 -11 -2 -15 8 -11 7 3 23 -1 35 -9 19 -13 21 -13 21 0
0 15 -29 36 -48 36 -6 0 -13 -7 -16 -16z"/>
<path d="M3547 6263 c-4 -3 -7 -12 -7 -20 0 -11 5 -11 20 -3 11 6 20 15 20 20
0 11 -23 13 -33 3z"/>
<path d="M3430 6177 c0 -39 2 -44 19 -40 11 3 21 17 25 35 7 36 8 33 -21 42
-22 7 -23 4 -23 -37z"/>
<path d="M4467 6218 c-17 -39 -15 -42 12 -33 14 4 21 15 21 30 0 38 -18 39
-33 3z"/>
<path d="M4530 6190 c0 -5 9 -10 21 -10 11 0 17 5 14 10 -3 6 -13 10 -21 10
-8 0 -14 -4 -14 -10z"/>
<path d="M4488 6128 c5 -5 16 -8 23 -6 8 3 3 7 -10 11 -17 4 -21 3 -13 -5z"/>
<path d="M4278 6143 c6 -2 18 -2 25 0 6 3 1 5 -13 5 -14 0 -19 -2 -12 -5z"/>
<path d="M4257 6113 c-8 -14 12 -53 27 -53 12 0 25 27 26 53 0 4 -11 7 -24 7
-14 0 -27 -3 -29 -7z"/>
<path d="M4260 6018 c0 -34 2 -34 18 -1 9 17 9 22 -3 27 -11 4 -15 -2 -15 -26z"/>
<path d="M4252 5830 c0 -14 2 -19 5 -12 2 6 2 18 0 25 -3 6 -5 1 -5 -13z"/>
<path d="M4195 5489 c-4 -6 -5 -12 -2 -15 2 -3 7 2 10 11 7 17 1 20 -8 4z"/>
<path d="M4161 5413 c0 -25 1 -26 9 -8 12 27 12 35 0 35 -5 0 -10 -12 -9 -27z"/>
<path d="M1017 5387 c-38 -50 -60 -105 -53 -132 4 -17 -1 -27 -18 -39 -22 -14
-65 -111 -54 -121 2 -3 21 -11 41 -20 34 -14 37 -14 46 3 18 35 41 127 41 168
0 24 7 64 16 89 8 26 14 56 12 67 -3 19 -6 18 -31 -15z"/>
<path d="M4058 5183 c-38 -44 -50 -96 -24 -106 10 -4 21 10 35 43 31 72 25
104 -11 63z"/>
<path d="M3937 4983 c-3 -5 -1 -17 3 -28 7 -19 7 -19 18 2 7 12 12 24 12 27 0
9 -28 7 -33 -1z"/>
<path d="M2571 5174 c-26 -33 -26 -44 -3 -44 15 -1 15 -2 -2 -15 -11 -8 -17
-17 -14 -21 6 -6 48 46 67 84 10 19 9 22 -8 22 -11 0 -29 -12 -40 -26z"/>
<path d="M2520 5074 c0 -8 5 -12 10 -9 6 3 10 10 10 16 0 5 -4 9 -10 9 -5 0
-10 -7 -10 -16z"/>
<path d="M2476 5004 c-4 -10 -1 -14 6 -12 15 5 23 28 10 28 -5 0 -13 -7 -16
-16z"/>
<path d="M1740 4761 c-6 -12 -7 -21 -1 -21 10 0 24 30 17 37 -2 3 -9 -5 -16
-16z"/>
<path d="M3025 4490 c3 -5 8 -10 11 -10 2 0 4 5 4 10 0 6 -5 10 -11 10 -5 0
-7 -4 -4 -10z"/>
<path d="M2966 4474 c-15 -39 12 -67 40 -43 19 15 18 45 -2 53 -24 9 -31 7
-38 -10z"/>
<path d="M2938 4405 c-3 -14 -2 -28 3 -30 12 -8 22 36 11 47 -6 6 -11 0 -14
-17z"/>
<path d="M5125 4151 c-3 -5 -1 -12 5 -16 5 -3 10 1 10 9 0 18 -6 21 -15 7z"/>
<path d="M571 3931 c-8 -5 -9 -11 -3 -15 5 -3 12 1 16 9 6 17 6 18 -13 6z"/>
<path d="M6842 3887 c-6 -6 -14 -26 -17 -42 -4 -17 -18 -41 -30 -55 -30 -34
-36 -55 -21 -75 10 -14 17 -15 34 -6 11 6 32 11 45 11 13 0 38 5 56 11 26 9
30 15 25 32 -4 12 -15 28 -26 36 -16 14 -17 20 -7 50 9 27 9 35 -2 42 -20 13
-45 11 -57 -4z"/>
<path d="M6705 3841 c-3 -5 -1 -12 5 -16 5 -3 10 1 10 9 0 18 -6 21 -15 7z"/>
<path d="M3647 3913 c-4 -3 -7 -13 -7 -22 1 -13 3 -13 11 2 11 19 8 33 -4 20z"/>
<path d="M2635 3591 c-6 -11 9 -23 19 -14 9 9 7 23 -3 23 -6 0 -12 -4 -16 -9z"/>
<path d="M2670 3571 c0 -13 26 -32 33 -24 14 13 6 33 -13 33 -11 0 -20 -4 -20
-9z"/>
<path d="M2660 3520 c0 -5 5 -10 10 -10 6 0 10 5 10 10 0 6 -4 10 -10 10 -5 0
-10 -4 -10 -10z"/>
<path d="M1840 3181 c0 -5 5 -13 10 -16 6 -3 10 -2 10 4 0 5 -4 13 -10 16 -5
3 -10 2 -10 -4z"/>
<path d="M6580 3115 c19 -19 36 -35 39 -35 3 0 -10 16 -29 35 -19 19 -36 35
-39 35 -3 0 10 -16 29 -35z"/>
<path d="M6640 3067 c0 -2 15 -16 33 -33 l32 -29 -29 33 c-28 30 -36 37 -36
29z"/>
<path d="M140 3040 c0 -5 5 -10 10 -10 6 0 10 5 10 10 0 6 -4 10 -10 10 -5 0
-10 -4 -10 -10z"/>
<path d="M2490 1964 c0 -6 10 -19 21 -30 20 -18 21 -18 18 -1 -2 10 -8 17 -13
17 -5 -1 -13 4 -17 12 -5 7 -9 8 -9 2z"/>
<path d="M5471 1443 c-11 -23 -10 -29 5 -40 16 -11 20 -9 38 18 16 26 17 32 5
40 -23 15 -35 10 -48 -18z"/>
<path d="M2207 1198 c11 -62 38 -63 45 -3 4 33 2 35 -24 35 -26 0 -27 -2 -21
-32z"/>
<path d="M2270 1193 c-6 -16 -15 -36 -20 -45 -8 -14 -7 -18 7 -18 29 0 40 13
46 53 4 28 2 37 -9 37 -8 0 -19 -12 -24 -27z"/>
<path d="M2326 1213 c-10 -11 -7 -55 4 -48 6 3 10 -1 10 -9 0 -16 2 -16 49 11
6 4 -21 33 -39 43 -10 5 -20 6 -24 3z"/>
<path d="M2197 1113 c-4 -3 -7 -11 -7 -17 0 -6 5 -5 12 2 6 6 9 14 7 17 -3 3
-9 2 -12 -2z"/>
<path d="M2272 1112 c-9 -6 -6 -14 13 -32 l25 -23 0 31 c0 32 -12 40 -38 24z"/>
<path d="M2385 1110 c-3 -5 1 -10 9 -10 23 0 20 -23 -6 -56 l-23 -29 37 29
c35 29 36 30 20 52 -19 26 -28 29 -37 14z"/>
<path d="M2212 1087 c-29 -30 -28 -37 6 -38 l27 -1 -25 -11 c-28 -13 -30 -47
-2 -47 22 0 34 10 50 38 11 19 9 26 -10 52 -12 17 -22 30 -23 30 -1 0 -11 -10
-23 -23z"/>
<path d="M2329 1078 c-3 -22 -1 -34 4 -29 5 5 7 21 5 37 -3 27 -4 26 -9 -8z"/>
<path d="M3253 852 c-13 -2 -23 -10 -23 -18 0 -16 28 -18 50 -4 20 12 2 27
-27 22z"/>
<path d="M1041 7974 c-19 -13 -31 -24 -27 -24 13 0 66 34 66 42 0 10 1 11 -39
-18z"/>
<path d="M3702 7986 c7 -8 15 -12 17 -11 5 6 -10 25 -20 25 -5 0 -4 -6 3 -14z"/>
<path d="M3822 7980 c0 -14 2 -19 5 -12 2 6 2 18 0 25 -3 6 -5 1 -5 -13z"/>
<path d="M5340 7989 c0 -5 5 -7 10 -4 6 3 10 8 10 11 0 2 -4 4 -10 4 -5 0 -10
-5 -10 -11z"/>
<path d="M3761 7974 c0 -11 3 -14 6 -6 3 7 2 16 -1 19 -3 4 -6 -2 -5 -13z"/>
<path d="M3681 7921 c-15 -27 -14 -41 3 -41 15 0 28 47 15 56 -4 2 -13 -4 -18
-15z"/>
<path d="M3771 7921 c-22 -14 -6 -101 19 -101 21 0 30 19 30 65 0 21 -6 35
-16 39 -19 7 -16 8 -33 -3z"/>
<path d="M3840 7893 c-3 -23 -2 -39 3 -34 5 5 7 24 5 42 -3 33 -4 33 -8 -8z"/>
<path d="M3721 7855 c0 -11 4 -27 9 -35 9 -13 10 -13 9 0 0 8 -4 24 -9 35 l-9
20 0 -20z"/>
<path d="M3665 7849 c-4 -6 -5 -12 -2 -15 2 -3 7 2 10 11 7 17 1 20 -8 4z"/>
<path d="M3686 7835 c-3 -8 -1 -15 4 -15 6 0 10 7 10 15 0 8 -2 15 -4 15 -2 0
-6 -7 -10 -15z"/>
<path d="M10 6006 c0 -20 27 -39 45 -32 20 7 19 32 -1 40 -26 10 -44 7 -44 -8z"/>
<path d="M7910 4915 c0 -7 81 -47 86 -43 2 3 -17 14 -41 26 -25 12 -45 20 -45
17z"/>
<path d="M7870 4905 c0 -7 121 -67 126 -63 2 2 -26 18 -61 36 -36 17 -65 30
-65 27z"/>
<path d="M7976 4705 c-9 -26 -7 -32 5 -12 6 10 9 21 6 23 -2 3 -7 -2 -11 -11z"/>
<path d="M7968 4624 c-10 -20 -9 -27 2 -34 20 -13 30 -3 30 31 0 36 -16 38
-32 3z"/>
<path d="M7681 4636 c10 -9 169 -86 169 -81 0 5 -156 85 -166 85 -4 0 -5 -2
-3 -4z"/>
<path d="M7936 4553 c-11 -26 13 -42 29 -19 8 10 12 23 9 27 -9 15 -31 10 -38
-8z"/>
<path d="M7986 4532 c-4 -13 -5 -26 -2 -29 10 -11 18 4 14 29 l-4 23 -8 -23z"/>
<path d="M7956 4475 c-9 -26 -7 -32 5 -12 6 10 9 21 6 23 -2 3 -7 -2 -11 -11z"/>
<path d="M7790 3875 c0 -8 2 -15 4 -15 2 0 6 7 10 15 3 8 1 15 -4 15 -6 0 -10
-7 -10 -15z"/>
<path d="M7950 3860 c0 -14 7 -20 22 -20 20 0 21 1 3 20 -10 11 -20 20 -22 20
-1 0 -3 -9 -3 -20z"/>
<path d="M7858 3823 c7 -3 16 -2 19 1 4 3 -2 6 -13 5 -11 0 -14 -3 -6 -6z"/>
<path d="M7963 3813 c9 -2 23 -2 30 0 6 3 -1 5 -18 5 -16 0 -22 -2 -12 -5z"/>
<path d="M7840 3785 c0 -8 7 -15 15 -15 8 0 15 7 15 15 0 8 -7 15 -15 15 -8 0
-15 -7 -15 -15z"/>
<path d="M7892 3783 c5 -25 28 -28 28 -4 0 12 -6 21 -16 21 -9 0 -14 -7 -12
-17z"/>
<path d="M7940 3775 c0 -8 6 -15 14 -15 8 0 21 -3 30 -6 12 -4 16 0 16 15 0
17 -6 21 -30 21 -20 0 -30 -5 -30 -15z"/>
<path d="M7835 3713 c-15 -92 -17 -93 -71 -73 -32 12 -39 7 -48 -36 -7 -30 -6
-31 64 -59 38 -15 71 -26 73 -24 9 12 27 62 27 73 0 8 -11 17 -25 20 -14 4
-25 11 -25 16 0 13 16 13 42 -1 16 -9 23 -8 29 2 13 20 11 29 -6 29 -8 0 -15
5 -15 10 0 6 6 10 14 10 8 0 16 13 18 30 4 24 1 30 -14 30 -13 0 -18 -8 -18
-29 0 -17 -5 -33 -11 -37 -8 -5 -10 6 -7 35 5 53 -19 56 -27 4z"/>
<path d="M7934 3726 c-12 -31 1 -51 34 -54 30 -3 32 -1 32 26 0 29 -14 42 -46
42 -8 0 -17 -6 -20 -14z"/>
<path d="M7921 3634 c-9 -20 -6 -24 30 -38 51 -21 49 -21 49 18 0 31 -3 34
-34 38 -28 3 -37 0 -45 -18z"/>
<path d="M7260 2742 c-25 -9 -62 -53 -56 -68 9 -23 41 -16 71 16 25 26 27 32
15 44 -8 7 -22 11 -30 8z"/>
<path d="M7116 2679 c-26 -20 -34 -53 -17 -63 5 -4 7 3 4 14 -4 14 0 20 11 20
9 0 16 4 16 9 0 5 14 12 30 16 17 4 30 11 30 16 0 17 -47 9 -74 -12z"/>
<path d="M7225 2630 c3 -5 8 -10 11 -10 2 0 4 5 4 10 0 6 -5 10 -11 10 -5 0
-7 -4 -4 -10z"/>
<path d="M7134 2618 c48 -32 85 -71 89 -91 3 -16 5 -13 6 10 1 24 -6 37 -30
57 -17 14 -34 26 -39 26 -5 0 -17 2 -27 5 -17 6 -17 5 1 -7z"/>
<path d="M7096 2576 c8 -20 84 -79 92 -71 4 4 -13 25 -38 46 -47 41 -63 48
-54 25z"/>
<path d="M7165 2560 c10 -11 20 -20 23 -20 3 0 -3 9 -13 20 -10 11 -20 20 -23
20 -3 0 3 -9 13 -20z"/>
<path d="M7060 2543 c0 -15 -4 -43 -9 -61 -7 -24 -7 -32 3 -32 18 0 36 48 32
85 -4 38 -26 46 -26 8z"/>
<path d="M7667 2493 c-12 -11 -8 -22 13 -33 16 -9 22 -8 27 6 8 21 -24 44 -40
27z"/>
<path d="M7176 2470 c12 -12 29 -20 39 -18 13 2 6 8 -21 21 l-39 18 21 -21z"/>
<path d="M6957 2403 c-42 -30 -42 -41 2 -23 17 7 43 9 61 5 l31 -7 -26 26
c-14 14 -27 26 -28 26 -1 0 -19 -12 -40 -27z"/>
<path d="M7960 2411 c0 -14 32 -43 39 -35 3 4 0 9 -7 11 -10 4 -10 8 -1 19 9
11 7 14 -10 14 -11 0 -21 -4 -21 -9z"/>
<path d="M86 1591 c-3 -5 1 -14 9 -21 12 -10 15 -10 15 3 0 19 -16 31 -24 18z"/>
<path d="M60 1561 c0 -5 7 -12 16 -15 14 -5 15 -4 4 9 -14 17 -20 19 -20 6z"/>
<path d="M3887 89 c7 -7 15 -10 18 -7 3 3 -2 9 -12 12 -14 6 -15 5 -6 -5z"/>
</g>
</svg>
