<?xml version="1.0" standalone="no"?>
<!DOCTYPE svg PUBLIC "-//W3C//DTD SVG 20010904//EN"
 "http://www.w3.org/TR/2001/REC-SVG-20010904/DTD/svg10.dtd">
<svg version="1.0" xmlns="http://www.w3.org/2000/svg"
 width="800.000000pt" height="800.000000pt" viewBox="0 0 800.000000 800.000000"
 preserveAspectRatio="xMidYMid meet">
<metadata>
Created by potrace 1.16, written by Peter Selinger 2001-2019
</metadata>
<g transform="translate(0.000000,800.000000) scale(0.100000,-0.100000)"
fill="#000000" stroke="none">
<path d="M0 5525 c0 -1361 2 -2475 4 -2475 2 0 47 22 99 49 133 69 140 70 320
26 83 -21 156 -42 161 -46 17 -16 -17 -10 -155 26 -74 19 -151 35 -171 35 -26
0 -71 -17 -148 -57 l-110 -56 0 -1514 0 -1513 784 0 783 0 -4 24 c-3 13 2 37
11 54 28 54 130 160 199 208 70 49 78 64 57 118 -5 14 -5 28 -1 31 11 6 21
-19 21 -56 0 -16 3 -29 7 -29 4 0 48 27 98 60 75 49 137 79 242 115 7 2 -10
25 -40 55 -45 43 -50 52 -37 63 8 6 26 29 40 49 36 53 103 78 116 43 10 -26
104 -17 104 10 0 7 9 24 21 39 11 14 24 51 29 84 12 81 25 109 60 127 27 14
30 20 30 67 0 45 4 54 35 83 22 21 48 35 72 38 21 2 56 12 78 20 l40 15 10 74
c6 47 17 83 30 100 12 14 29 43 38 64 10 22 33 50 50 63 18 13 51 56 75 95 39
65 88 111 147 141 11 6 21 23 23 38 2 18 9 27 21 27 21 0 59 39 94 97 15 23
31 44 37 48 5 3 15 15 21 27 10 19 9 20 -17 14 -23 -6 -26 -5 -15 7 9 12 9 17
0 22 -6 4 -15 1 -20 -6 -11 -18 -23 -4 -15 17 4 10 13 14 24 11 9 -3 44 -15
77 -26 33 -11 78 -23 100 -26 26 -5 49 -18 70 -39 25 -27 120 -110 176 -153 8
-7 74 -22 147 -34 73 -12 132 -26 132 -31 0 -11 3 -11 -146 15 l-131 24 -91
77 c-51 43 -92 82 -92 87 0 14 -59 37 -116 44 -57 8 -69 -1 -138 -107 -23 -35
-53 -69 -69 -76 -33 -16 -33 -20 -5 -84 20 -48 21 -51 4 -63 -9 -7 -26 -11
-36 -8 -11 3 -20 0 -20 -6 0 -18 -17 -12 -23 8 -2 10 -13 24 -24 30 -29 15
-53 -6 -103 -89 -23 -39 -56 -80 -72 -91 -16 -11 -39 -42 -52 -68 -14 -26 -32
-53 -40 -60 -9 -8 -16 -29 -16 -50 -1 -57 -16 -123 -31 -132 -8 -5 -24 -9 -35
-9 -12 0 -27 -7 -34 -15 -7 -8 -29 -15 -49 -15 -61 -1 -101 -47 -101 -119 0
-32 -5 -44 -26 -57 -34 -23 -50 -58 -59 -129 -4 -39 -14 -66 -26 -78 -14 -13
-19 -32 -19 -66 0 -37 -5 -52 -23 -69 -30 -28 -51 -28 -65 0 -9 20 -10 18 -5
-13 5 -35 3 -37 -25 -44 -23 -5 -32 -13 -37 -35 -5 -25 -17 -32 -98 -62 -68
-25 -134 -62 -257 -145 -160 -107 -245 -182 -292 -258 -19 -32 -25 -70 -8 -60
6 3 7 -1 4 -9 -6 -14 93 -16 979 -16 l985 0 33 53 c45 70 69 96 69 75 0 -9 -4
-18 -8 -20 -4 -2 -22 -27 -40 -55 l-32 -53 831 0 830 0 -7 23 c-4 12 -9 28
-11 35 -12 29 19 9 32 -22 l15 -34 285 -1 285 -1 -28 77 c-16 43 -32 90 -36
105 -10 42 11 34 24 -10 7 -20 21 -56 31 -79 11 -24 24 -54 29 -68 l9 -25
1066 0 1065 0 0 569 0 569 -22 6 c-13 3 -35 6 -49 6 -14 0 -34 9 -44 20 -31
34 -115 19 -115 -21 0 -6 -5 -7 -10 -4 -8 5 -7 12 2 23 12 14 7 15 -51 9 -35
-4 -94 -7 -130 -8 -52 0 -61 -2 -42 -10 48 -19 15 -18 -183 5 -11 2 -21 7 -23
12 -2 6 53 11 139 12 225 3 310 11 328 32 8 9 46 56 84 104 67 85 68 87 52
111 -16 24 -16 24 -52 7 l-36 -17 -34 39 c-18 21 -31 43 -27 48 3 6 9 5 13 -2
6 -10 29 -11 89 -6 102 8 111 12 111 46 0 27 -2 28 -32 24 -18 -3 -70 -11
-116 -18 -83 -13 -84 -13 -99 10 -10 16 -13 35 -8 68 4 25 11 46 15 46 5 0 15
3 24 6 9 3 16 1 16 -5 0 -6 -7 -11 -15 -11 -17 0 -30 -58 -20 -90 4 -13 13
-19 23 -16 9 2 42 7 72 11 77 9 90 14 83 31 -3 7 -1 14 5 14 5 0 12 -7 16 -15
3 -8 12 -15 21 -15 13 0 15 73 15 652 l0 652 -39 -38 c-21 -21 -41 -33 -45
-28 -3 5 14 28 39 51 l45 41 0 226 0 225 -22 -8 c-13 -4 -54 -7 -91 -5 -37 1
-78 -3 -90 -9 -31 -16 -147 -139 -161 -170 -6 -14 -14 -27 -19 -27 -4 -1 -35
-31 -68 -66 -55 -59 -93 -85 -105 -73 -2 2 13 16 34 30 20 15 73 70 117 123
169 203 190 218 291 208 96 -10 114 2 114 78 0 32 -1 58 -2 58 -2 0 -27 -7
-55 -14 -29 -8 -55 -10 -58 -6 -3 5 14 14 37 20 74 18 73 17 76 129 3 95 2
101 -17 101 -11 0 -23 5 -26 10 -4 7 -24 8 -50 4 -55 -8 -72 1 -49 27 21 23
38 25 30 3 -5 -14 -1 -15 27 -10 22 4 40 1 55 -9 20 -14 21 -14 16 0 -3 8 -1
15 5 15 8 0 11 50 11 160 0 88 -4 160 -8 160 -19 0 -108 -34 -114 -44 -5 -6
-5 -23 -2 -38 6 -32 -9 -63 -47 -95 -24 -21 -27 -28 -19 -49 6 -14 7 -44 4
-66 -5 -29 -3 -42 7 -49 11 -7 10 -11 -6 -23 -11 -9 -24 -16 -30 -16 -6 0 -11
53 -12 135 -1 80 2 135 8 135 5 0 9 -11 9 -24 0 -36 16 -40 45 -12 25 25 32
60 17 83 -12 19 -162 -33 -162 -55 0 -14 -2 -14 -9 -3 -7 11 -16 11 -57 -3
-31 -10 -51 -13 -58 -6 -6 6 -4 11 5 14 8 2 38 12 67 21 28 9 52 22 52 28 0
16 37 39 44 28 8 -12 74 2 176 37 l85 29 3 108 c3 121 -1 128 -55 113 -19 -5
-37 -7 -39 -5 -3 3 4 28 15 57 11 29 18 57 15 62 -9 14 -142 118 -152 118 -4
0 -16 -16 -26 -36 -23 -50 -34 -34 -11 17 12 25 15 43 9 47 -59 41 -364 286
-364 294 0 12 20 -2 220 -160 101 -80 169 -127 174 -121 16 15 24 10 19 -9 -3
-13 16 -33 72 -76 41 -32 84 -69 94 -82 10 -13 22 -24 25 -24 8 0 8 239 0 280
-5 25 -11 31 -25 27 -11 -3 -37 4 -59 14 -23 11 -45 17 -50 14 -6 -3 -10 1
-10 9 0 9 -5 16 -12 16 -18 0 -88 33 -88 42 0 4 8 8 19 8 24 0 81 -20 81 -29
0 -3 9 -12 21 -19 15 -10 19 -10 14 -1 -6 9 -1 10 18 5 19 -4 27 -2 31 11 3
10 19 27 36 38 l30 20 -1 163 c0 89 -4 162 -9 162 -10 0 -22 31 -15 39 3 3 10
-1 15 -9 6 -10 10 103 10 303 l0 319 -34 -29 c-32 -27 -33 -29 -20 -62 14 -33
11 -56 -6 -46 -4 3 -11 24 -15 46 -7 39 -5 43 34 78 23 20 41 44 41 52 -1 18
-84 -72 -104 -113 -31 -61 -13 -132 54 -218 38 -49 39 -58 18 -119 -23 -70
-23 -85 5 -105 l22 -17 -24 5 c-13 3 -37 -2 -53 -10 -37 -19 -68 -10 -68 20 0
22 12 31 70 49 9 3 24 30 33 61 l18 57 -35 48 c-20 27 -36 56 -36 65 0 9 -4
16 -8 16 -27 0 -43 115 -20 138 9 9 8 12 -5 12 -22 0 -21 6 4 38 13 18 18 34
14 50 -4 16 0 31 12 44 13 14 18 38 20 84 1 35 4 67 6 71 3 4 8 34 12 66 4 31
12 57 17 57 7 0 8 -15 4 -37 -3 -21 -11 -83 -17 -138 -6 -57 -17 -107 -25
-116 -8 -8 -14 -28 -14 -44 l0 -29 23 32 c13 17 36 41 50 53 26 20 27 24 27
124 0 73 -4 105 -12 109 -10 5 -10 7 0 12 9 4 12 112 12 488 0 266 -2 485 -5
488 -3 3 -23 -1 -45 -8 -67 -23 -96 -10 -127 58 -2 4 6 15 17 26 20 18 19 19
-81 64 -56 25 -97 48 -92 51 5 3 49 -13 98 -35 49 -22 101 -42 115 -43 14 -2
45 -11 69 -19 24 -9 45 -16 47 -16 2 0 4 180 4 400 l0 400 -797 -2 -798 -3 -3
-24 c-2 -14 3 -30 11 -35 8 -6 17 -21 21 -34 12 -37 36 -28 29 12 -3 19 0 42
6 52 8 16 10 11 11 -28 0 -43 2 -47 28 -50 25 -4 25 -5 -13 -16 -68 -20 -134
-11 -95 13 19 12 10 35 -14 35 -13 0 -42 6 -64 14 -23 8 -49 15 -59 15 -10 1
-49 4 -87 7 l-69 7 6 -131 c6 -118 5 -133 -12 -154 -11 -13 -23 -20 -27 -16
-4 5 0 16 8 25 20 23 28 71 14 82 -6 4 -30 11 -54 14 -45 6 -60 13 -49 23 3 4
19 2 34 -3 54 -18 61 -10 65 78 l3 79 -37 0 c-21 0 -60 9 -88 20 -50 20 -74
20 -3010 20 l-2960 0 0 -2475z m7550 2450 c7 -8 8 -15 2 -15 -5 0 -15 7 -22
15 -7 8 -8 15 -2 15 5 0 15 -7 22 -15z m-430 -4 c0 -5 -7 -11 -15 -15 -15 -5
-20 5 -8 17 9 10 23 9 23 -2z m-58 -43 c-6 -6 -15 -8 -19 -4 -4 4 -1 11 7 16
19 12 27 3 12 -12z m528 -10 c0 -6 -7 -5 -15 2 -8 7 -15 17 -15 22 0 6 7 5 15
-2 8 -7 15 -17 15 -22z m20 -28 c0 -5 -5 -10 -11 -10 -5 0 -7 5 -4 10 3 6 8
10 11 10 2 0 4 -4 4 -10z m-585 -60 c4 -6 -5 -10 -20 -10 -15 0 -24 4 -20 10
3 6 12 10 20 10 8 0 17 -4 20 -10z m55 -20 c0 -13 -11 -13 -30 0 -12 8 -11 10
8 10 12 0 22 -4 22 -10z m20 -52 c0 -19 -2 -20 -10 -8 -13 19 -13 30 0 30 6 0
10 -10 10 -22z m400 -47 c-6 -12 -16 -19 -21 -15 -6 4 -4 13 7 25 21 24 29 18
14 -10z m-380 -7 c0 -8 -4 -14 -10 -14 -5 0 -10 9 -10 21 0 11 5 17 10 14 6
-3 10 -13 10 -21z m340 -39 c-7 -9 -15 -13 -17 -11 -7 7 7 26 19 26 6 0 6 -6
-2 -15z m-320 -21 c0 -8 -4 -14 -10 -14 -5 0 -10 9 -10 21 0 11 5 17 10 14 6
-3 10 -13 10 -21z m280 -29 c-7 -9 -15 -13 -18 -10 -3 2 1 11 8 20 7 9 15 13
18 10 3 -2 -1 -11 -8 -20z m-262 -28 c5 -24 -15 -21 -21 4 -3 13 -1 19 6 16 7
-2 13 -11 15 -20z m232 -18 c0 -11 -4 -17 -10 -14 -5 3 -10 13 -10 21 0 8 5
14 10 14 6 0 10 -9 10 -21z m-217 -49 c-7 -8 -22 24 -16 34 4 5 10 1 13 -10 4
-10 6 -21 3 -24z m227 -10 c0 -11 -4 -20 -10 -20 -5 0 -10 9 -10 20 0 11 5 20
10 20 6 0 10 -9 10 -20z m537 -26 c-1 -25 -7 -34 -20 -34 -11 0 -21 -9 -24
-20 -6 -23 -23 -27 -23 -5 0 8 -4 15 -8 15 -5 0 0 19 11 43 17 36 24 43 44 39
19 -4 22 -10 20 -38z m-1496 20 c12 -14 11 -16 -5 -13 -11 2 -21 10 -24 17 -5
17 13 15 29 -4z m1539 2 c0 -14 -21 -58 -26 -54 -8 8 7 58 17 58 5 0 9 -2 9
-4z m-787 -26 c3 -11 1 -20 -4 -20 -5 0 -9 2 -9 4 0 2 -3 11 -6 20 -3 9 -2 16
4 16 5 0 12 -9 15 -20z m-702 -16 c12 -14 11 -16 -5 -13 -11 2 -21 10 -24 17
-5 17 13 15 29 -4z m909 -14 c0 -11 -4 -20 -10 -20 -5 0 -10 9 -10 20 0 11 5
20 10 20 6 0 10 -9 10 -20z m-1342 -86 c-4 -37 -10 -69 -13 -72 -7 -7 -6 113
1 132 13 35 20 3 12 -60z m480 57 c3 -8 -1 -12 -9 -9 -7 2 -15 10 -17 17 -3 8
1 12 9 9 7 -2 15 -10 17 -17z m672 -3 c0 -19 -2 -20 -10 -8 -13 19 -13 30 0
30 6 0 10 -10 10 -22z m-185 -18 c3 -5 -3 -10 -14 -10 -12 0 -21 5 -21 10 0 6
6 10 14 10 8 0 18 -4 21 -10z m375 -2 c0 -7 -5 -20 -10 -28 -8 -12 -10 -9 -10
13 0 15 5 27 10 27 6 0 10 -6 10 -12z m-815 -9 c12 -19 -5 -23 -22 -6 -16 16
-16 17 -1 17 9 0 20 -5 23 -11z m380 1 c-3 -5 -13 -10 -21 -10 -8 0 -14 5 -14
10 0 6 9 10 21 10 11 0 17 -4 14 -10z m340 0 c3 -6 -4 -10 -17 -10 -18 0 -20
2 -8 10 19 12 18 12 25 0z m-400 -10 c-3 -5 -13 -10 -21 -10 -8 0 -14 5 -14
10 0 6 9 10 21 10 11 0 17 -4 14 -10z m346 3 c1 -5 3 -28 4 -53 1 -38 -1 -46
-17 -47 -19 -2 -24 12 -8 22 15 9 12 41 -5 59 -8 8 -15 17 -15 20 0 9 40 7 41
-1z m-617 -44 c-4 -6 -11 -6 -20 2 -21 17 -17 31 6 19 11 -6 18 -15 14 -21z
m226 22 c0 -11 -31 -24 -39 -16 -3 3 1 10 9 15 19 12 30 12 30 1z m-2121 -63
c-12 -34 -17 -67 -13 -93 3 -27 0 -47 -9 -59 -14 -19 -15 -19 -21 2 -4 12 -12
22 -17 22 -5 0 -9 12 -9 26 0 16 4 23 11 18 13 -8 29 13 29 41 0 28 31 105 40
100 4 -2 -1 -28 -11 -57z m2066 42 c-3 -5 -16 -10 -28 -10 -18 0 -19 2 -7 10
20 13 43 13 35 0z m-115 -20 c0 -5 -4 -10 -10 -10 -5 0 -10 -7 -10 -15 0 -8
-4 -15 -10 -15 -5 0 -10 11 -10 25 0 18 5 25 20 25 11 0 20 -4 20 -10z m53 3
c-7 -2 -19 -2 -25 0 -7 3 -2 5 12 5 14 0 19 -2 13 -5z m-1230 -70 c-18 -2 -48
-2 -65 0 -18 2 -4 4 32 4 36 0 50 -2 33 -4z m1157 -13 c0 -11 -4 -20 -10 -20
-5 0 -10 9 -10 20 0 11 5 20 10 20 6 0 10 -9 10 -20z m-410 -9 c0 -11 2 -25 5
-33 3 -7 -2 -22 -10 -33 -16 -20 -16 -20 -13 0 1 11 -1 25 -4 31 -9 13 1 54
13 54 5 0 9 -9 9 -19z m413 -51 c3 -11 1 -20 -4 -20 -5 0 -9 2 -9 4 0 2 -3 11
-6 20 -3 9 -2 16 4 16 5 0 12 -9 15 -20z m21 -55 c3 -8 1 -15 -3 -15 -5 0 -11
7 -15 15 -3 8 -1 15 3 15 5 0 11 -7 15 -15z m-384 -45 c0 -5 -7 -10 -15 -10
-8 0 -15 5 -15 10 0 6 7 10 15 10 8 0 15 -4 15 -10z m400 -6 c0 -8 -4 -12 -10
-9 -5 3 -10 10 -10 16 0 5 5 9 10 9 6 0 10 -7 10 -16z m-100 -81 c0 -8 -9 0
-50 45 l-45 47 48 -45 c26 -24 47 -45 47 -47z m-2105 -260 c-21 -19 -24 -26
-15 -43 13 -24 31 -25 96 -5 62 19 64 19 64 -4 0 -21 -10 -26 -80 -36 -48 -8
-100 -32 -113 -52 -22 -34 -56 15 -38 54 10 21 16 24 44 18 l32 -7 -22 24
c-25 26 -30 48 -11 48 25 0 48 34 48 70 0 56 15 59 18 3 3 -41 0 -51 -23 -70z
m331 61 c27 -58 47 -75 67 -55 18 18 28 13 15 -8 -10 -16 -9 -23 4 -38 9 -10
27 -40 41 -68 14 -27 69 -97 122 -155 53 -58 103 -117 111 -132 13 -25 20 -28
67 -28 29 0 58 -5 65 -12 9 -9 15 -8 28 8 15 18 15 18 10 -6 -6 -29 19 -61 42
-53 12 5 14 2 9 -11 -6 -14 -3 -16 13 -11 11 4 20 2 20 -4 0 -15 135 -14 177
1 20 7 33 19 33 29 0 10 5 21 10 24 6 3 10 -3 10 -14 0 -25 2 -25 41 -5 17 8
36 13 42 11 12 -5 -68 -46 -90 -47 -33 0 -7 -19 47 -34 33 -9 72 -23 87 -31
15 -8 45 -15 67 -15 55 0 454 -40 499 -50 l39 -8 -4 51 -3 50 67 -2 c67 -2 68
-2 59 21 -12 33 -108 48 -158 24 -44 -21 -53 -15 -16 10 55 37 193 14 193 -32
0 -26 22 -25 86 2 42 18 63 32 60 40 -3 8 -1 16 3 19 5 3 11 -1 14 -9 5 -11
14 -11 59 2 31 8 114 17 201 19 l147 5 0 -28 c1 -41 22 -64 58 -64 18 0 55 -9
84 -20 29 -11 63 -20 75 -20 26 0 93 -30 93 -42 0 -13 -23 -9 -44 7 -11 8 -32
15 -48 15 -15 0 -50 9 -78 20 -28 11 -66 20 -84 20 -39 0 -83 41 -78 72 4 20
0 20 -145 16 -95 -4 -162 -11 -188 -20 -37 -14 -40 -17 -37 -51 3 -27 -1 -37
-15 -41 -15 -5 -18 -14 -15 -48 5 -51 14 -58 59 -51 33 6 33 5 23 -21 -5 -15
-10 -50 -10 -78 0 -50 0 -50 -27 -43 -32 8 -50 22 -40 32 4 4 13 1 19 -5 26
-26 38 -13 38 44 0 48 -2 55 -17 51 -10 -2 -31 3 -47 11 -17 8 -71 15 -132 18
-99 4 -104 3 -104 -16 0 -11 -4 -20 -10 -20 -5 0 -10 12 -10 27 0 17 -4 23 -9
18 -6 -6 -7 -68 -2 -160 4 -82 5 -154 1 -158 -12 -13 -19 48 -22 185 -2 148 3
142 -125 153 -69 7 -71 6 -66 -14 3 -12 1 -21 -5 -21 -6 0 -12 10 -14 22 -3
21 -11 23 -123 34 -66 7 -121 12 -122 11 -1 -1 11 -31 26 -67 16 -36 53 -137
83 -225 31 -88 64 -176 73 -197 17 -35 15 -68 -4 -68 -5 0 -7 8 -4 19 3 10 -2
32 -11 49 -9 17 -38 97 -66 179 -28 81 -65 183 -82 225 -35 86 -52 98 -134 98
-24 0 -46 4 -49 10 -3 5 -32 17 -63 26 -31 9 -63 21 -69 26 -7 6 -27 8 -45 4
-18 -3 -105 -6 -193 -7 -88 -1 -171 -6 -184 -11 -16 -5 -28 -5 -35 2 -7 7 -3
10 11 10 28 0 37 14 18 30 -8 6 -19 27 -25 46 -6 19 -16 34 -21 34 -6 0 -7 5
-4 10 9 15 -14 48 -115 161 -49 54 -103 126 -121 160 -18 33 -43 68 -55 76
-34 22 -70 74 -78 111 -11 48 0 39 30 -24z m-56 36 c0 -5 -12 -10 -26 -10 -14
0 -23 4 -19 10 3 6 15 10 26 10 10 0 19 -4 19 -10z m-7 -227 c-6 -86 -23 -143
-44 -143 -6 0 -8 -9 -4 -20 3 -11 2 -20 -4 -20 -19 0 -17 36 5 62 17 21 23 46
29 117 4 50 11 91 16 91 4 0 5 -39 2 -87z m-443 -23 c0 -27 3 -30 30 -30 34 0
106 -27 97 -36 -3 -4 -20 -1 -38 5 -18 6 -49 11 -70 11 -39 0 -39 0 -39 40 0
22 5 40 10 40 6 0 10 -13 10 -30z m-2770 -166 c0 -28 -32 -159 -41 -169 -6 -6
-15 -1 -25 13 l-16 23 -66 -63 c-173 -165 -234 -221 -322 -299 -122 -108 -130
-114 -130 -100 0 6 67 69 149 141 82 72 151 134 153 138 2 5 45 46 96 92 l94
83 -29 13 -28 12 33 1 c37 1 40 10 12 36 -11 10 -20 22 -20 27 0 16 41 -17 61
-50 12 -17 24 -30 29 -27 4 3 14 37 21 75 7 39 16 70 21 70 4 0 8 -7 8 -16z
m-377 -14 c8 0 8 -3 1 -10 -12 -12 -44 -3 -44 12 0 6 7 7 16 4 9 -3 21 -6 27
-6z m171 -23 c-5 -14 -10 -15 -27 -5 -22 12 -22 12 3 18 30 8 32 7 24 -13z
m-130 7 c23 -9 20 -23 -4 -17 -11 3 -20 9 -20 14 0 11 3 11 24 3z m58 -16 c-6
-6 -15 -8 -19 -4 -4 4 -1 11 7 16 19 12 27 3 12 -12z m125 -5 c3 -7 -3 -9 -16
-6 -12 3 -21 10 -21 15 0 13 32 6 37 -9z m5233 -2 c0 -5 3 -18 7 -28 6 -16 5
-16 -10 -4 -19 15 -23 41 -7 41 6 0 10 -4 10 -9z m-6395 -301 c48 -151 96
-285 106 -299 11 -14 34 -33 51 -43 38 -24 30 -35 -9 -14 -57 29 -77 72 -166
357 -48 152 -87 280 -87 285 0 35 31 -50 105 -286z m5170 270 c3 -5 -3 -10
-14 -10 -12 0 -21 5 -21 10 0 6 6 10 14 10 8 0 18 -4 21 -10z m-265 -20 c12
-8 9 -10 -12 -10 -16 0 -28 5 -28 10 0 13 20 13 40 0z m1540 -22 c0 -6 -7 -5
-15 2 -8 7 -15 17 -15 22 0 6 7 5 15 -2 8 -7 15 -17 15 -22z m-1090 12 c0 -5
-9 -10 -21 -10 -11 0 -17 5 -14 10 3 6 13 10 21 10 8 0 14 -4 14 -10z m55 0
c3 -5 -3 -10 -14 -10 -12 0 -21 5 -21 10 0 6 6 10 14 10 8 0 18 -4 21 -10z
m-176 -37 c8 8 11 7 11 -5 0 -9 -7 -18 -15 -22 -8 -3 -15 -1 -15 4 0 5 -9 12
-20 15 -12 4 -20 15 -20 28 1 21 1 21 24 -5 17 -19 27 -23 35 -15z m61 28 c0
-5 -7 -11 -15 -15 -15 -5 -20 5 -8 17 9 10 23 9 23 -2z m-427 -78 c-7 -3 -13
-13 -13 -24 0 -10 -4 -19 -10 -19 -18 0 -11 48 8 52 20 5 32 -3 15 -9z m-583
-12 c0 -5 -7 -25 -15 -45 -11 -26 -12 -35 -3 -34 8 2 12 -14 13 -49 0 -29 -3
-53 -7 -53 -4 0 -12 25 -19 55 -10 45 -10 63 1 95 12 36 30 55 30 31z m3365
-80 c-11 -10 -177 -33 -184 -25 -10 9 11 17 66 24 87 11 128 11 118 1z m-3488
-147 c-4 -4 -29 -9 -57 -12 -48 -4 -50 -6 -50 -35 0 -27 2 -29 30 -23 17 3 30
1 30 -4 0 -6 -5 -10 -11 -10 -8 0 -9 -13 -5 -39 3 -23 2 -42 -4 -46 -6 -3 -10
5 -10 19 0 37 -16 41 -46 11 -29 -29 -47 -26 -21 3 11 12 17 36 17 70 l0 52
-55 0 -56 0 6 -32 c26 -157 29 -188 16 -188 -5 0 -15 48 -22 108 l-14 107 -35
3 c-47 5 -158 -25 -195 -53 -16 -12 -51 -25 -77 -29 -31 -5 -48 -12 -48 -21 0
-17 -6 -21 -52 -29 -22 -4 -38 -3 -38 2 0 6 16 13 35 16 43 8 58 46 30 76 -20
22 -14 25 16 10 10 -6 19 -18 19 -27 0 -22 75 -11 103 15 43 39 130 56 299 57
110 0 161 4 170 13 8 8 15 9 22 2 5 -5 7 -13 3 -16z m790 2 c13 -13 -5 -14
-45 -4 -23 6 -40 14 -37 18 5 8 72 -3 82 -14z m-2932 -47 c-21 -46 -20 -49 72
-149 32 -36 81 -94 108 -130 26 -36 75 -93 109 -127 33 -35 57 -63 53 -63 -19
0 -103 81 -153 147 -33 45 -64 75 -79 79 -25 6 -35 24 -13 24 6 0 3 9 -7 20
-10 12 -24 19 -30 16 -7 -2 -18 0 -26 5 -11 7 -11 9 4 9 9 0 17 3 17 8 -1 14
-69 80 -89 87 -24 7 -28 43 -7 51 7 3 22 23 32 46 10 22 20 35 22 28 2 -6 -4
-29 -13 -51z m3025 30 c27 -6 50 -15 50 -21 0 -5 -8 -7 -17 -4 -10 3 -35 8
-56 12 -20 3 -40 10 -43 15 -7 12 4 11 66 -2z m-900 -29 c0 -11 -4 -20 -10
-20 -5 0 -10 9 -10 20 0 11 5 20 10 20 6 0 10 -9 10 -20z m1104 -25 c-7 -17
-30 -20 -39 -6 -3 5 5 12 17 14 13 2 24 5 25 6 1 0 0 -6 -3 -14z m1851 -15
c10 -11 16 -20 13 -20 -3 0 -13 9 -23 20 -10 11 -16 20 -13 20 3 0 13 -9 23
-20z m-1970 0 c-3 -5 -12 -10 -20 -10 -8 0 -17 5 -20 10 -4 6 5 10 20 10 15 0
24 -4 20 -10z m55 0 c0 -5 -9 -10 -21 -10 -11 0 -17 5 -14 10 3 6 13 10 21 10
8 0 14 -4 14 -10z m-110 -17 c0 -5 -5 -15 -10 -23 -8 -12 -10 -11 -10 8 0 12
5 22 10 22 6 0 10 -3 10 -7z m-2869 -65 c-4 -19 -13 -33 -21 -33 -17 0 -15 30
3 51 19 22 25 16 18 -18z m2845 -15 c-11 -11 -19 6 -11 24 8 17 8 17 12 0 3
-10 2 -21 -1 -24z m-1056 -8 c-7 -8 -17 -15 -22 -15 -6 0 -5 7 2 15 7 8 17 15
22 15 6 0 5 -7 -2 -15z m2265 5 c3 -5 -3 -10 -14 -10 -12 0 -21 5 -21 10 0 6
6 10 14 10 8 0 18 -4 21 -10z m-2145 -30 c0 -20 -9 -23 -115 -35 -35 -4 -46
-3 -35 4 8 6 41 13 73 17 47 5 57 10 57 26 0 10 5 16 10 13 6 -3 10 -15 10
-25z m910 5 c0 -14 -4 -25 -10 -25 -5 0 -10 11 -10 25 0 14 5 25 10 25 6 0 10
-11 10 -25z m-4400 -3 c0 -4 -38 -27 -85 -50 -81 -40 -90 -42 -175 -42 -49 0
-92 5 -95 10 -4 6 29 10 92 10 94 1 101 3 173 40 79 41 90 45 90 32z m-20 -42
c0 -5 -4 -10 -10 -10 -5 0 -10 5 -10 10 0 6 5 10 10 10 6 0 10 -4 10 -10z
m3685 -49 c3 -5 1 -12 -5 -16 -22 -14 -10 -35 23 -36 l32 -1 -30 -7 c-26 -5
-30 -10 -30 -41 0 -31 3 -35 25 -33 40 2 201 64 221 84 23 23 29 24 29 4 0 -8
-17 -23 -37 -33 -57 -29 -205 -76 -232 -74 -17 2 -22 -2 -17 -14 3 -9 6 -23 6
-33 0 -12 16 -19 66 -29 67 -13 110 -29 101 -39 -3 -2 -37 3 -76 13 l-71 17
-33 -36 c-68 -76 -159 -146 -195 -153 -21 -4 -44 -13 -54 -21 -10 -9 -18 -11
-22 -4 -7 11 47 43 79 46 11 1 23 3 27 4 10 1 25 63 33 134 4 31 11 57 16 57
14 0 10 26 -6 40 -17 14 -20 40 -5 40 6 0 10 -6 10 -14 0 -8 7 -16 15 -20 19
-7 19 -40 0 -56 -17 -14 -19 -120 -2 -120 20 0 47 33 47 57 0 12 5 23 10 23 6
0 10 -5 10 -11 0 -8 5 -7 15 1 22 18 17 94 -6 98 -10 2 -19 -6 -22 -20 -4 -12
-9 -19 -13 -16 -14 14 6 58 26 58 17 0 20 7 20 41 0 47 19 119 31 119 4 0 10
-4 14 -9z m375 0 c0 -21 -83 -30 -96 -9 -5 8 1 9 22 5 17 -3 36 -2 44 4 19 11
30 11 30 0z m-780 -20 c0 -12 -20 -25 -27 -18 -7 7 6 27 18 27 5 0 9 -4 9 -9z
m210 -3 c-1 -7 -9 -29 -19 -48 -17 -31 -17 -36 -3 -46 13 -9 11 -12 -11 -16
-23 -4 -26 -2 -23 16 2 12 9 32 14 46 6 14 13 33 16 43 6 19 26 23 26 5z
m2105 -26 c-8 -8 -25 10 -19 20 4 6 9 5 15 -3 4 -7 6 -15 4 -17z m105 18 c0
-5 -7 -10 -16 -10 -8 0 -12 5 -9 10 3 6 10 10 16 10 5 0 9 -4 9 -10z m-230
-25 c0 -8 -4 -15 -10 -15 -5 0 -10 -9 -10 -20 0 -15 9 -21 41 -26 40 -7 166
-80 156 -91 -3 -3 -32 11 -64 30 -32 19 -74 38 -93 42 l-35 8 25 -21 c14 -11
22 -23 18 -27 -9 -9 -58 35 -58 53 0 10 -7 12 -25 8 -33 -8 -32 2 4 42 32 35
51 41 51 17z m-2239 -28 c-16 -16 -26 0 -10 19 9 11 15 12 17 4 2 -6 -1 -17
-7 -23z m2429 7 c0 -8 -4 -14 -9 -14 -11 0 -22 26 -14 34 9 9 23 -3 23 -20z
m-2462 -91 c-5 -38 -6 -81 -3 -97 3 -16 1 -34 -4 -40 -5 -6 -12 -49 -16 -95
-6 -72 -5 -83 7 -73 13 10 74 -3 127 -27 8 -4 25 3 40 17 14 13 27 19 29 13 5
-15 -60 -71 -83 -70 -17 1 -17 2 -2 6 9 2 17 9 17 14 0 5 -8 9 -17 9 -10 1
-36 7 -58 15 -28 10 -43 11 -52 3 -11 -9 -10 -13 4 -23 15 -12 14 -12 -11 -8
l-28 6 7 81 c4 45 9 99 11 121 13 163 20 215 32 215 5 0 5 -30 0 -67z m1847
27 c20 -20 42 -68 66 -137 l37 -106 -75 -86 c-40 -47 -76 -96 -79 -108 -4 -13
-10 -23 -15 -23 -29 0 17 76 102 166 l48 52 -32 97 c-24 73 -40 106 -64 129
-18 17 -33 34 -33 38 0 16 17 7 45 -22z m-1765 -10 c0 -5 -4 -10 -9 -10 -6 0
-13 5 -16 10 -3 6 1 10 9 10 9 0 16 -4 16 -10z m167 -25 c5 -4 -19 -5 -52 -1
-73 8 -105 16 -105 26 0 9 147 -14 157 -25z m-167 -50 c0 -8 -9 -15 -20 -15
-20 0 -26 11 -13 23 12 13 33 7 33 -8z m-226 -67 c-4 -6 -10 -5 -15 3 -14 22
-10 33 6 19 8 -7 12 -17 9 -22z m886 21 c0 -6 9 -9 20 -6 11 3 22 2 25 -2 2
-4 40 -16 85 -26 47 -11 80 -23 80 -31 0 -9 -8 -10 -27 -4 -155 48 -211 54
-243 25 -26 -23 -34 -15 -19 18 7 16 22 27 38 30 14 2 29 5 34 6 4 0 7 -4 7
-10z m-843 -35 c-3 -3 -12 -4 -19 -1 -8 3 -5 6 6 6 11 1 17 -2 13 -5z m133
-19 c7 -8 8 -15 2 -15 -5 0 -15 7 -22 15 -7 8 -8 15 -2 15 5 0 15 -7 22 -15z
m-174 -53 c-11 -10 -15 4 -8 28 l7 25 3 -23 c2 -13 1 -26 -2 -30z m4061 -27
c9 -25 -2 -27 -22 -5 -17 18 -17 20 -1 20 9 0 19 -7 23 -15z m-1839 -185 c-10
-114 -7 -172 10 -178 6 -2 16 6 20 19 6 14 11 18 16 11 8 -14 -10 -52 -26 -52
-19 0 -37 -34 -37 -70 0 -64 49 -224 81 -267 5 -6 5 -14 0 -17 -12 -7 -68 118
-82 181 -17 74 -20 83 -36 83 -9 0 -63 -20 -121 -45 -58 -25 -121 -45 -141
-46 -57 0 -115 -13 -119 -25 -2 -6 9 -16 24 -24 16 -7 23 -15 16 -17 -7 -2
-21 1 -32 6 -18 10 -21 8 -26 -26 -9 -57 -26 -116 -32 -110 -3 3 5 49 17 101
24 107 11 97 139 111 30 3 96 24 146 45 49 21 103 42 118 45 30 8 36 35 12 55
-20 16 -19 25 4 47 15 14 20 39 25 123 8 122 15 165 26 153 4 -4 3 -51 -2
-103z m-1648 73 c0 -12 -71 -55 -78 -48 -4 4 0 10 8 15 8 5 24 16 35 24 22 17
35 20 35 9z m-377 -10 c-7 -2 -19 -2 -25 0 -7 3 -2 5 12 5 14 0 19 -2 13 -5z
m-97 -38 c1 -14 -2 -25 -7 -25 -5 0 -9 11 -9 25 0 33 15 33 16 0z m304 21 c0
-2 -8 -10 -17 -17 -16 -13 -17 -12 -4 4 13 16 21 21 21 13z m966 -52 c-3 -8
-13 -14 -23 -14 -17 1 -17 1 0 14 9 7 18 22 18 32 1 18 2 18 6 1 3 -10 2 -25
-1 -33z m-1116 28 c0 -5 -7 -17 -15 -28 -13 -17 -14 -17 -15 -1 0 14 -5 16
-25 11 -15 -4 -25 -2 -25 4 0 9 17 14 68 21 6 0 12 -3 12 -7z m1600 -203 c-29
-66 -48 -120 -44 -131 3 -10 1 -18 -5 -18 -6 0 -11 -7 -11 -15 0 -8 -7 -15
-16 -15 -20 0 -16 12 60 185 33 76 62 132 64 123 2 -9 -20 -67 -48 -129z
m-392 113 c2 -7 -2 -10 -12 -6 -9 3 -16 11 -16 16 0 13 23 5 28 -10z m982 -33
c0 -10 -4 -20 -9 -23 -9 -6 -21 27 -21 59 1 20 1 20 15 1 8 -11 15 -28 15 -37z
m1128 2 c3 -8 -1 -12 -9 -9 -7 2 -15 10 -17 17 -3 8 1 12 9 9 7 -2 15 -10 17
-17z m-4740 -10 c3 -8 -1 -12 -9 -9 -7 2 -15 10 -17 17 -3 8 1 12 9 9 7 -2 15
-10 17 -17z m2666 3 c4 -10 1 -14 -6 -12 -15 5 -23 28 -10 28 5 0 13 -7 16
-16z m-2721 -14 c-3 -11 -7 -20 -9 -20 -2 0 -4 9 -4 20 0 11 4 20 9 20 5 0 7
-9 4 -20z m97 -42 c0 -6 -7 -5 -15 2 -8 7 -15 17 -15 22 0 6 7 5 15 -2 8 -7
15 -17 15 -22z m4310 22 c0 -5 -9 -10 -21 -10 -11 0 -17 5 -14 10 3 6 13 10
21 10 8 0 14 -4 14 -10z m-1666 -16 c9 -22 -3 -32 -14 -14 -12 19 -12 30 -1
30 5 0 12 -7 15 -16z m-2744 -21 c0 -20 -3 -24 -11 -16 -7 7 -9 19 -6 27 10
24 17 19 17 -11z m3344 -9 c10 -27 7 -43 -14 -64 -21 -21 -66 -27 -72 -9 -2 6
-25 13 -51 16 -26 3 -50 10 -54 16 -4 7 9 8 39 4 44 -6 46 -5 58 23 11 26 18
30 50 30 25 0 40 -5 44 -16z m-3206 -13 c3 -8 -1 -12 -9 -9 -7 2 -15 10 -17
17 -3 8 1 12 9 9 7 -2 15 -10 17 -17z m148 -123 c-3 -68 -5 -167 -6 -220 0
-65 -4 -98 -11 -98 -8 0 -9 36 -4 124 5 84 4 130 -4 144 -7 14 -8 23 -1 27 5
3 10 37 10 76 0 44 4 69 11 69 8 0 9 -36 5 -122z m914 87 c0 -15 21 -20 33 -8
4 3 43 7 88 8 67 1 84 4 95 20 12 16 17 17 40 6 21 -9 25 -16 19 -34 -4 -12
-9 -34 -12 -49 -3 -16 -9 -28 -14 -28 -12 0 -11 37 2 62 15 28 -6 51 -24 27
-9 -12 -42 -19 -130 -27 -65 -5 -124 -16 -133 -22 -24 -21 -28 -4 -4 20 16 16
19 25 11 33 -18 18 -12 29 9 17 11 -6 20 -17 20 -25z m1144 19 c3 -9 6 -29 6
-44 0 -16 5 -32 10 -35 8 -5 8 -11 0 -20 -10 -11 -1 -138 15 -225 11 -61 16
-190 6 -190 -11 0 -24 66 -20 107 1 15 -1 44 -4 63 -8 44 -14 89 -23 165 -4
33 -10 62 -13 65 -4 3 -5 33 -3 68 4 60 14 78 26 46z m406 1 c0 -8 -4 -15 -10
-15 -5 0 -10 7 -10 15 0 8 5 15 10 15 6 0 10 -7 10 -15z m2380 6 c0 -5 -7 -11
-15 -15 -9 -3 -15 0 -15 9 0 8 7 15 15 15 8 0 15 -4 15 -9z m-5150 -10 c0 -12
-20 -25 -27 -18 -7 7 6 27 18 27 5 0 9 -4 9 -9z m5066 -6 c16 -12 16 -14 3
-15 -9 0 -22 7 -29 15 -16 19 0 19 26 0z m139 5 c3 -5 -3 -10 -14 -10 -12 0
-21 5 -21 10 0 6 6 10 14 10 8 0 18 -4 21 -10z m-5009 -37 c-4 -4 -11 -1 -16
7 -16 25 -11 35 7 17 9 -9 13 -20 9 -24z m5074 16 c0 -11 -3 -11 -24 -3 -23 9
-20 23 4 17 11 -3 20 -9 20 -14z m-1240 -3 c0 -2 -7 -6 -15 -10 -8 -3 -15 -1
-15 4 0 6 7 10 15 10 8 0 15 -2 15 -4z m-4070 -15 c0 -5 -7 -14 -15 -21 -12
-10 -15 -10 -15 2 0 8 3 18 7 21 9 10 23 9 23 -2z m2708 -11 c12 -19 10 -20
-35 -19 -44 1 -46 1 -20 11 15 5 27 14 27 19 0 16 15 10 28 -11z m-2432 -27
c-7 -7 -26 7 -26 19 0 6 6 6 15 -2 9 -7 13 -15 11 -17z m2254 -25 c0 -10 -4
-18 -10 -18 -5 0 -10 6 -10 13 0 6 -3 23 -6 37 -5 24 -5 24 10 6 9 -11 16 -28
16 -38z m1405 42 c-3 -5 -15 -10 -26 -10 -10 0 -19 5 -19 10 0 6 12 10 26 10
14 0 23 -4 19 -10z m-3985 -35 c-7 -9 -15 -13 -18 -10 -3 2 1 11 8 20 7 9 15
13 18 10 3 -2 -1 -11 -8 -20z m2807 11 c4 -8 17 -16 28 -18 19 -5 19 -5 2 -13
-18 -7 -57 18 -57 37 0 13 18 9 27 -6z m384 -29 c-8 -8 -11 -7 -11 4 0 20 13
34 18 19 3 -7 -1 -17 -7 -23z m-2841 -7 c0 -11 -4 -20 -10 -20 -5 0 -10 9 -10
20 0 11 5 20 10 20 6 0 10 -9 10 -20z m-390 1 c0 -13 -28 -22 -35 -11 -3 4 1
11 7 13 20 8 28 8 28 -2z m-930 -27 c0 -8 -4 -14 -10 -14 -5 0 -10 9 -10 21 0
11 5 17 10 14 6 -3 10 -13 10 -21z m6244 11 c-4 -8 -10 -15 -15 -15 -4 0 -6 7
-3 15 4 8 10 15 15 15 4 0 6 -7 3 -15z m-3788 -4 c16 13 56 8 61 -8 3 -8 -6
-11 -23 -10 -23 2 -32 -5 -53 -42 -17 -30 -21 -46 -13 -49 7 -2 12 -8 12 -14
0 -6 -7 -7 -15 -4 -11 4 -29 -14 -60 -63 -25 -38 -45 -74 -45 -79 0 -6 -6 -12
-14 -15 -8 -3 -25 -24 -38 -46 -13 -23 -26 -41 -31 -41 -10 0 19 56 50 97 l24
33 -33 20 c-18 11 -39 20 -45 20 -15 0 -17 26 -3 35 25 15 6 25 -44 23 -48 -2
-56 -5 -61 -25 -3 -13 -10 -23 -16 -23 -6 0 -8 7 -5 16 3 9 6 24 6 34 0 15 9
17 76 16 l75 -1 -5 -30 c-5 -27 -2 -33 29 -49 19 -11 37 -17 40 -14 15 14 105
173 105 185 0 21 -14 15 -46 -18 -28 -30 -31 -31 -89 -24 -33 3 -84 9 -112 12
-29 3 -53 9 -53 14 0 11 -1 11 120 -2 99 -11 102 -10 125 11 13 12 21 28 18
36 -4 12 0 12 22 4 19 -7 31 -7 41 1z m-1582 -16 c-6 -16 -24 -21 -24 -7 0 11
11 22 21 22 5 0 6 -7 3 -15z m2969 -32 c3 -27 9 -63 13 -80 5 -25 3 -33 -7
-33 -9 0 -15 14 -16 43 -1 23 -4 59 -7 80 -4 20 -2 37 2 37 5 0 12 -21 15 -47z
m-1870 -5 c-5 -26 -23 -40 -23 -18 0 6 -11 8 -25 4 -38 -10 -30 9 13 27 20 9
38 15 39 15 1 -1 -1 -13 -4 -28z m4250 2 c-3 -11 -9 -20 -14 -20 -11 0 -11 3
-3 24 9 23 23 20 17 -4z m-6213 -10 c0 -11 -4 -20 -10 -20 -5 0 -10 9 -10 20
0 11 5 20 10 20 6 0 10 -9 10 -20z m836 -27 c-11 -11 -19 6 -11 24 8 17 8 17
12 0 3 -10 2 -21 -1 -24z m3544 3 c0 -14 -4 -28 -10 -31 -6 -4 -10 7 -10 24 0
17 5 31 10 31 6 0 10 -11 10 -24z m-739 -16 c21 -12 27 -34 7 -27 -7 2 -28 -2
-47 -9 -33 -14 -56 -11 -46 7 4 5 1 9 -4 9 -18 0 -12 18 7 23 31 8 63 7 83 -3z
m-3641 -20 c0 -11 -4 -20 -10 -20 -5 0 -10 9 -10 20 0 11 5 20 10 20 6 0 10
-9 10 -20z m814 -4 c-6 -16 -24 -23 -24 -8 0 10 22 33 27 28 2 -2 1 -11 -3
-20z m3369 7 c-7 -2 -19 -2 -25 0 -7 3 -2 5 12 5 14 0 19 -2 13 -5z m51 -25
c7 -5 5 -8 -6 -8 -9 0 -29 -8 -46 -17 -19 -11 -35 -14 -48 -8 -16 8 -14 10 13
13 20 2 30 8 27 15 -2 7 6 17 18 22 16 7 24 7 27 0 2 -5 9 -13 15 -17z m802
17 c-23 -17 -36 -19 -36 -6 0 5 8 12 18 14 32 9 37 6 18 -8z m-3019 -11 c-2
-2 -44 -11 -93 -19 -63 -11 -94 -21 -106 -35 -9 -11 -20 -20 -25 -20 -6 0 -15
-12 -21 -26 -8 -16 -17 -22 -25 -18 -9 6 -9 4 1 -8 10 -13 10 -18 -1 -29 -7
-8 -28 -35 -46 -61 -27 -38 -32 -52 -26 -75 3 -15 10 -50 14 -78 5 -27 9 -44
10 -37 0 6 8 12 16 12 8 0 15 7 15 15 0 12 19 15 113 15 63 0 117 -3 121 -7
13 -13 40 -12 51 3 9 13 17 10 52 -25 22 -23 36 -41 31 -41 -5 0 -8 -6 -7 -12
1 -7 1 -28 0 -45 -2 -53 -21 -38 -21 16 0 59 -16 76 -71 74 -21 -1 -41 3 -45
8 -7 12 -204 12 -204 0 0 -31 15 -71 26 -71 8 0 14 -5 14 -11 0 -5 -5 -7 -11
-3 -8 5 -10 -1 -7 -20 7 -35 -8 -33 -20 4 -7 18 -20 32 -35 35 -26 7 -47 52
-47 103 0 27 -13 46 -32 47 -15 0 -20 15 -4 15 9 0 15 4 11 10 -3 5 0 19 7 30
11 17 11 22 -1 29 -9 6 -10 11 -2 15 6 4 14 5 19 2 15 -9 40 21 51 59 23 82
86 128 201 147 76 13 109 14 97 2z m-1247 -4 c0 -5 -9 -10 -20 -10 -11 0 -20
5 -20 10 0 6 9 10 20 10 11 0 20 -4 20 -10z m3590 -4 c0 -8 -4 -18 -10 -21 -5
-3 -10 3 -10 14 0 12 5 21 10 21 6 0 10 -6 10 -14z m-3650 -6 c0 -5 -12 -10
-26 -10 -14 0 -23 4 -19 10 3 6 15 10 26 10 10 0 19 -4 19 -10z m3760 -10 c0
-13 -20 -13 -40 0 -12 8 -9 10 13 10 15 0 27 -4 27 -10z m-4470 -10 c0 -5 -4
-10 -10 -10 -5 0 -10 5 -10 10 0 6 5 10 10 10 6 0 10 -4 10 -10z m4201 -113
c-8 -8 -11 -7 -11 4 0 20 13 34 18 19 3 -7 -1 -17 -7 -23z m-164 -9 c-3 -8 -6
-5 -6 6 -1 11 2 17 5 13 3 -3 4 -12 1 -19z m-27 -12 c0 -2 -16 -4 -35 -3 -37
1 -47 13 -17 20 15 3 52 -9 52 -17z m-2557 7 c-7 -2 -21 -2 -30 0 -10 3 -4 5
12 5 17 0 24 -2 18 -5z m-1003 -46 c0 -5 -7 -4 -15 3 -8 7 -15 20 -15 29 1 13
3 13 15 -3 8 -11 15 -24 15 -29z m4710 -64 c22 -100 39 -128 72 -117 10 3 18
1 18 -5 0 -10 -22 -16 -43 -12 -9 2 -4 -10 25 -51 10 -15 18 -42 17 -65 l-1
-38 -7 35 c-11 56 -51 110 -82 110 -26 0 -27 -1 -31 -82 -6 -90 -3 -105 17
-88 9 8 17 7 28 -5 9 -8 27 -15 41 -15 31 0 32 -10 15 -125 l-12 -76 -19 31
c-15 26 -22 30 -41 23 -12 -4 -37 -7 -55 -6 -26 1 -32 -2 -28 -13 9 -22 -9
-17 -71 23 -51 33 -68 38 -143 44 -114 10 -254 57 -441 150 -70 34 -78 36 -92
21 -19 -18 -35 -9 -19 11 9 11 4 17 -25 31 l-36 17 -54 -53 c-49 -49 -66 -78
-44 -78 6 0 13 -20 16 -45 4 -24 14 -50 21 -56 10 -8 12 -22 8 -46 -6 -30 -3
-38 22 -60 28 -24 28 -25 10 -39 -23 -16 -36 -18 -36 -5 0 5 -22 32 -49 60
-47 48 -76 63 -115 58 -20 -2 -26 11 -40 86 -4 23 -3 37 4 37 5 0 10 -8 10
-19 0 -21 34 -31 75 -24 21 4 23 9 18 34 -4 23 -2 29 11 29 10 0 15 4 12 9 -3
4 21 34 53 65 55 52 65 75 27 60 -10 -4 -16 -1 -16 9 0 18 -30 32 -30 14 0 -7
-5 -5 -10 4 -11 19 -71 52 -112 63 -35 8 -35 18 -2 51 21 21 25 34 22 65 -3
30 -1 36 9 28 18 -14 16 -73 -1 -88 -8 -6 -12 -18 -9 -26 3 -8 69 -47 146 -85
l140 -71 -7 39 c-3 21 -9 49 -13 62 -4 16 -3 22 5 17 6 -4 16 -34 23 -67 8
-39 18 -63 28 -66 9 -4 61 -28 116 -54 136 -65 151 -68 166 -35 13 29 36 37
24 9 -20 -50 -19 -56 8 -51 15 3 28 1 30 -5 5 -15 86 -37 137 -36 32 0 75 14
150 48 102 48 105 50 112 87 8 44 -6 140 -27 197 -17 42 -19 57 -7 57 4 0 16
-24 26 -53 16 -47 21 -53 41 -50 17 4 21 10 17 28 -2 15 -9 22 -18 18 -8 -3
-14 0 -14 6 0 6 6 11 13 12 8 0 8 2 -2 6 -9 4 -10 7 -2 13 11 6 5 57 -15 123
-3 9 -1 17 5 17 5 0 19 -44 31 -97z m-650 78 c0 -14 -18 -23 -31 -15 -8 4 -7
9 2 15 18 11 29 11 29 0z m-3261 -56 c34 -16 61 -34 61 -40 0 -7 -30 3 -70 24
-51 27 -70 41 -70 56 1 17 2 17 10 5 5 -9 36 -29 69 -45z m-749 26 c0 -4 22
-24 50 -43 27 -19 47 -38 43 -41 -3 -4 -28 10 -56 30 l-50 37 5 -82 c4 -45 2
-85 -3 -88 -5 -3 -9 21 -9 53 -1 32 -5 77 -9 101 -7 37 -6 42 10 42 11 0 19
-4 19 -9z m2043 -12 l23 -11 -23 -45 c-13 -26 -23 -54 -23 -64 0 -11 -10 -18
-31 -21 -26 -4 -30 -2 -26 14 3 10 1 16 -4 12 -5 -3 -9 -12 -9 -20 0 -8 -5
-14 -10 -14 -6 0 -8 11 -4 28 10 39 14 44 31 38 12 -5 14 -1 10 14 -4 14 0 20
11 20 10 0 24 5 32 10 12 8 13 13 2 30 -14 23 -12 24 21 9z m-1060 -16 c-8 -3
-13 -24 -13 -54 0 -27 -4 -49 -10 -49 -5 0 -10 24 -10 54 0 44 3 55 18 58 20
5 32 -3 15 -9z m3764 -90 c-2 -21 -4 -6 -4 32 0 39 2 55 4 38 2 -18 2 -50 0
-70z m-1472 67 c-3 -5 -13 -10 -21 -10 -8 0 -14 5 -14 10 0 6 9 10 21 10 11 0
17 -4 14 -10z m562 -19 c10 -15 9 -20 -2 -25 -8 -3 -15 -1 -15 3 0 5 -3 16 -6
25 -9 22 9 20 23 -3z m1993 5 c0 -3 -4 -8 -10 -11 -5 -3 -10 -1 -10 4 0 6 5
11 10 11 6 0 10 -2 10 -4z m-2386 -31 c-9 -28 -24 -43 -24 -23 0 9 -2 23 -5
30 -4 9 2 14 15 14 15 0 19 -5 14 -21z m-3190 -76 c26 -24 16 -33 -17 -16 -15
8 -24 17 -21 20 3 3 -13 18 -35 33 -23 14 -41 28 -41 31 0 7 94 -49 114 -68z
m2772 46 c-3 -10 1 -15 13 -15 15 0 20 -10 24 -47 3 -27 4 -49 4 -49 -1 -1
-22 -5 -46 -9 -37 -6 -43 -5 -38 8 3 9 2 30 -3 47 -8 28 -6 33 10 37 11 3 20
14 20 24 0 11 5 19 11 19 6 0 9 -7 5 -15z m-1208 -19 c-21 -5 -38 -15 -38 -23
0 -7 5 -13 10 -13 6 0 10 -21 10 -47 0 -27 3 -65 6 -85 8 -46 32 -50 84 -15
34 24 89 40 91 28 1 -3 2 -30 4 -60 2 -47 0 -52 -11 -36 -12 16 -18 17 -39 7
-23 -11 -25 -16 -19 -49 4 -21 9 -42 13 -48 3 -5 4 -18 2 -29 -2 -15 2 -18 23
-12 14 3 26 2 26 -3 0 -10 -34 -21 -67 -21 -17 0 -23 -6 -24 -22 l0 -23 -9 23
c-10 22 5 62 22 62 5 0 8 9 8 21 0 13 -5 19 -12 16 -40 -15 -58 -17 -58 -9 0
6 14 15 31 21 23 8 30 15 25 27 -3 8 -6 29 -6 45 0 28 -1 29 -38 23 -38 -6
-39 -5 -55 35 -10 23 -17 63 -17 90 0 35 -4 51 -15 55 -13 4 -14 10 -5 26 11
20 68 41 85 31 6 -3 -7 -10 -27 -15z m589 -33 c3 -7 -3 -9 -16 -6 -12 3 -21
10 -21 15 0 13 32 6 37 -9z m843 -13 c0 -5 -7 -10 -16 -10 -8 0 -12 5 -9 10 3
6 10 10 16 10 5 0 9 -4 9 -10z m-2190 -8 c0 -5 -10 -14 -23 -19 -17 -8 -28
-28 -42 -77 -19 -68 -35 -86 -35 -41 0 39 -28 88 -47 81 -35 -14 -63 -17 -63
-8 0 5 14 12 31 16 27 5 30 8 19 21 -18 21 -6 30 14 10 14 -15 21 -14 78 4 35
10 64 20 66 20 1 1 2 -3 2 -7z m-890 -15 c0 -17 -38 -53 -46 -44 -7 6 27 56
39 57 4 0 7 -6 7 -13z m3360 -7 c0 -11 -11 -30 -24 -41 -33 -28 -74 -128 -57
-138 9 -6 9 -10 -1 -18 -18 -14 -67 -22 -74 -12 -3 5 6 9 19 9 22 0 26 5 32
50 4 28 10 50 15 50 4 0 13 13 20 30 7 16 23 36 36 45 13 8 24 22 24 30 0 8 2
15 5 15 3 0 5 -9 5 -20z m1046 5 c-21 -16 -32 -13 -21 4 3 6 14 11 23 11 15
-1 15 -2 -2 -15z m-41 -25 c-3 -5 -13 -10 -21 -10 -8 0 -12 5 -9 10 3 6 13 10
21 10 8 0 12 -4 9 -10z m-1328 -17 c3 -7 -3 -9 -16 -6 -12 3 -21 10 -21 15 0
13 32 6 37 -9z m1032 -35 c-7 -13 -14 -18 -16 -11 -3 7 1 22 8 35 7 13 14 18
16 11 3 -7 -1 -22 -8 -35z m-2679 17 c0 -8 -4 -15 -10 -15 -5 0 -10 7 -10 15
0 8 5 15 10 15 6 0 10 -7 10 -15z m2930 5 c-20 -13 -43 -13 -35 0 3 6 16 10
28 10 18 0 19 -2 7 -10z m-4730 -20 c0 -5 -4 -10 -10 -10 -5 0 -10 5 -10 10 0
6 5 10 10 10 6 0 10 -4 10 -10z m-40 -10 c0 -5 -10 -10 -22 -10 -19 0 -20 2
-8 10 19 13 30 13 30 0z m220 -273 l-51 -258 23 -19 c22 -18 24 -17 78 11 76
39 89 51 96 88 4 17 11 31 16 31 5 0 6 -15 3 -34 -6 -29 -4 -34 17 -41 20 -7
19 -9 -15 -12 -38 -4 -38 -5 -21 -24 23 -25 10 -37 -15 -15 -19 18 -41 15 -41
-5 0 -6 -7 -17 -15 -25 -13 -14 -16 -14 -21 1 -6 14 -10 13 -30 -11 -13 -15
-24 -33 -24 -41 0 -18 -17 -17 -24 3 -3 8 -2 12 4 9 24 -15 7 28 -20 53 l-31
27 26 125 c14 69 24 132 23 140 -1 8 1 20 5 27 15 25 45 198 35 204 -6 4 -3
15 8 28 13 15 20 18 22 9 1 -8 -20 -130 -48 -271z m-275 253 c-3 -5 -13 -10
-21 -10 -8 0 -12 5 -9 10 3 6 13 10 21 10 8 0 12 -4 9 -10z m-55 -20 c0 -5 -9
-10 -21 -10 -11 0 -17 5 -14 10 3 6 13 10 21 10 8 0 14 -4 14 -10z m678 -43
c-3 -35 1 -44 20 -52 12 -5 22 -13 22 -17 0 -5 7 -8 15 -8 8 0 15 -4 15 -10 0
-5 12 -13 26 -16 16 -4 23 -12 20 -20 -3 -7 1 -20 9 -28 20 -20 19 -25 -5 -23
-11 1 -20 4 -20 7 0 11 -48 60 -58 60 -6 0 -21 14 -34 30 -18 25 -23 28 -31
15 -11 -21 -29 -8 -22 15 4 13 0 20 -15 25 -11 3 -20 11 -20 16 0 12 7 11 30
-1 17 -9 20 -6 26 25 9 47 26 33 22 -18z m105 21 c-5 -27 -23 -40 -23 -17 0
13 20 52 25 47 2 -1 1 -15 -2 -30z m-853 2 c-19 -12 -30 -12 -30 -1 0 10 31
20 40 14 2 -2 -2 -8 -10 -13z m-45 -10 c-3 -5 -15 -10 -26 -10 -11 0 -17 5
-14 10 3 6 15 10 26 10 11 0 17 -4 14 -10z m-69 -22 c-10 -6 -20 -7 -24 -3 -9
8 20 25 31 18 5 -3 2 -10 -7 -15z m1133 13 c12 -8 12 -11 -1 -24 -22 -22 -78
-27 -78 -7 0 6 6 10 13 9 6 -1 20 -1 31 0 15 1 16 4 6 16 -10 12 -10 15 1 15
8 0 20 -4 28 -9z m52 -34 c-8 -8 -11 -7 -11 4 0 20 13 34 18 19 3 -7 -1 -17
-7 -23z m1009 23 c0 -5 -7 -10 -15 -10 -8 0 -15 5 -15 10 0 6 7 10 15 10 8 0
15 -4 15 -10z m791 -3 c-1 -4 -1 -16 -1 -28 0 -11 -4 -17 -10 -14 -14 8 -13
58 1 53 6 -2 10 -7 10 -11z m2377 -28 c4 -40 -12 -30 -22 14 -5 21 -3 28 6 25
7 -3 14 -20 16 -39z m-5408 21 c0 -5 -9 -10 -21 -10 -11 0 -17 5 -14 10 3 6
13 10 21 10 8 0 14 -4 14 -10z m-120 -10 c0 -5 -7 -10 -15 -10 -8 0 -15 5 -15
10 0 6 7 10 15 10 8 0 15 -4 15 -10z m50 -10 c-19 -12 -30 -12 -30 -1 0 10 31
20 40 14 2 -2 -2 -8 -10 -13z m-275 -20 c9 -16 11 -30 6 -30 -6 0 -17 14 -26
30 -9 17 -11 30 -6 30 6 0 17 -13 26 -30z m63 23 c-10 -2 -26 -2 -35 0 -10 3
-2 5 17 5 19 0 27 -2 18 -5z m95 -17 c31 -10 35 -15 24 -24 -11 -10 -17 -9
-27 3 -7 8 -27 19 -44 24 -20 6 -24 9 -11 10 11 0 37 -5 58 -13z m2945 -31 c3
-35 2 -37 -13 -25 -9 7 -15 9 -13 3 2 -6 -1 -13 -6 -14 -5 -2 -13 10 -18 26
-6 23 -4 33 9 43 26 19 38 9 41 -33z m1238 -11 c-3 -9 -6 -24 -6 -35 0 -10 -4
-19 -10 -19 -11 0 -13 30 -4 54 3 9 11 16 16 16 6 0 7 -7 4 -16z m1788 -7 c-6
-14 -70 -45 -289 -137 -148 -63 -193 -76 -155 -47 9 7 14 24 12 39 -2 15 1 35
7 45 9 15 10 12 11 -18 l0 -36 38 7 c78 15 322 126 322 146 0 7 10 14 23 16
28 5 37 1 31 -15z m123 9 c-7 -18 26 -72 52 -86 12 -6 21 -7 21 -3 0 4 5 2 11
-4 7 -7 30 -10 58 -6 l46 5 -1 -38 c0 -22 1 -42 3 -46 2 -4 22 6 45 22 23 17
47 30 54 30 16 0 74 -33 74 -42 0 -12 -75 -31 -115 -29 l-41 2 -13 -51 c-13
-51 -14 -52 -44 -46 -35 7 -48 17 -30 23 9 3 10 10 3 23 -6 11 -17 17 -24 14
-15 -6 -20 6 -30 68 -5 25 -11 35 -20 32 -13 -5 -51 27 -93 79 -28 34 -29 47
-3 40 14 -4 20 0 20 11 0 9 7 16 16 16 10 0 14 -6 11 -14z m-6087 -26 c0 -11
-4 -20 -10 -20 -5 0 -10 9 -10 20 0 11 5 20 10 20 6 0 10 -9 10 -20z m3881
-13 c13 4 19 0 19 -10 0 -9 22 -28 50 -44 30 -17 50 -35 50 -45 0 -10 -4 -18
-10 -18 -5 0 -10 6 -10 13 0 8 -23 26 -51 41 -46 26 -52 27 -68 12 -26 -23
-37 -20 -15 5 17 19 18 21 1 30 -9 6 -17 14 -17 20 0 6 6 7 16 1 9 -5 25 -7
35 -5z m485 -22 c4 -8 12 -15 19 -15 8 0 17 -10 21 -22 4 -13 20 -38 35 -56
28 -31 40 -70 19 -57 -5 3 -10 12 -10 19 0 7 -13 25 -30 41 -16 16 -30 34 -30
41 0 19 -20 28 -33 15 -6 -6 -18 -11 -26 -11 -12 0 -11 3 2 18 13 14 14 21 5
30 -9 9 -8 12 5 12 10 0 20 -7 23 -15z m-4326 -5 c0 -13 -11 -13 -30 0 -12 8
-11 10 8 10 12 0 22 -4 22 -10z m595 -20 c3 -5 -1 -10 -9 -10 -9 0 -16 5 -16
10 0 6 4 10 9 10 6 0 13 -4 16 -10z m65 0 c0 -5 -9 -10 -20 -10 -11 0 -20 5
-20 10 0 6 9 10 20 10 11 0 20 -4 20 -10z m-626 -15 c3 -8 1 -15 -3 -15 -5 0
-11 7 -15 15 -3 8 -1 15 3 15 5 0 11 -7 15 -15z m2856 -5 c0 -5 -4 -10 -10
-10 -5 0 -10 5 -10 10 0 6 5 10 10 10 6 0 10 -4 10 -10z m-2856 -45 c-6 -16
-24 -21 -24 -7 0 11 11 22 21 22 5 0 6 -7 3 -15z m2606 -6 c-7 -11 -14 -18
-17 -15 -8 8 5 36 17 36 7 0 7 -6 0 -21z m469 -41 c-17 -31 -23 -9 -8 28 9 22
13 25 16 12 2 -9 -1 -27 -8 -40z m-1914 12 c-3 -5 3 -10 15 -10 11 0 37 -7 58
-17 20 -9 43 -15 50 -14 6 1 12 -4 12 -12 0 -10 18 -14 75 -14 l76 0 -6 29
c-4 16 -2 28 3 28 6 0 16 -34 23 -75 6 -42 16 -78 20 -81 5 -3 9 -14 9 -25 0
-10 7 -19 15 -19 8 0 15 -5 15 -10 0 -21 44 -70 63 -70 22 0 87 37 87 50 0 5
-4 20 -10 34 -5 14 -5 28 -1 30 5 3 14 -16 22 -42 13 -46 12 -60 -4 -54 -5 1
-24 -7 -42 -18 -23 -14 -42 -19 -59 -14 -23 5 -26 3 -26 -19 0 -14 -5 -27 -11
-29 -7 -2 -7 -12 1 -32 12 -32 5 -49 -11 -26 -13 22 -42 128 -72 267 -11 51
-12 53 -53 59 -23 3 -52 3 -64 -1 -19 -6 -22 -12 -17 -46 3 -21 2 -39 -3 -39
-11 0 -20 26 -20 57 0 16 -7 27 -20 30 -11 3 -20 8 -20 12 0 13 -59 41 -87 41
-16 0 -32 3 -36 6 -8 8 3 34 15 34 5 0 6 -4 3 -10z m-1183 -22 c5 -30 -1 -58
-13 -58 -5 0 -9 18 -9 40 0 43 15 55 22 18z m2198 -18 c0 -11 -4 -20 -10 -20
-5 0 -10 9 -10 20 0 11 5 20 10 20 6 0 10 -9 10 -20z m1639 11 c11 -7 12 -13
4 -23 -13 -15 -6 -70 37 -308 39 -210 36 -201 66 -194 24 6 24 6 24 -74 0 -45
-4 -83 -10 -87 -6 -4 -6 -15 0 -31 6 -14 7 -31 3 -37 -4 -6 0 -8 10 -4 19 7
20 6 11 -17 -3 -9 -12 -16 -20 -16 -21 0 -17 -30 4 -31 10 0 12 -3 5 -6 -17
-6 -17 -68 0 -85 8 -7 12 -19 9 -26 -2 -7 6 -12 20 -12 22 -1 22 -1 5 -15 -19
-13 -19 -52 -1 -48 5 1 32 12 60 24 l52 22 42 -22 c32 -17 45 -19 51 -10 9 15
42 3 37 -14 -3 -6 -17 -13 -31 -15 -25 -3 -31 -13 -30 -50 1 -7 -4 -11 -11 -9
-6 2 -11 21 -11 42 0 32 -4 39 -27 47 -19 7 -37 4 -65 -8 -21 -10 -46 -20 -55
-23 -16 -6 -16 -8 0 -43 14 -29 21 -35 34 -27 9 5 19 5 22 1 3 -5 -6 -15 -20
-23 -23 -12 -27 -11 -35 4 -6 9 -17 17 -24 17 -8 0 -15 5 -15 10 0 6 5 10 12
10 6 0 4 8 -6 19 -10 11 -15 25 -11 30 10 17 -4 51 -21 51 -8 0 -14 5 -14 10
0 6 5 10 10 10 15 0 12 40 -2 41 -7 1 -23 0 -35 -1 -18 -1 -22 2 -16 17 6 17
5 17 -15 -1 -19 -16 -22 -17 -22 -3 0 9 5 19 11 23 7 4 -2 20 -24 43 -19 20
-37 48 -41 62 -5 21 -15 29 -58 40 -28 8 -53 20 -56 27 -3 11 0 12 16 3 11 -6
29 -11 40 -11 23 0 72 -24 75 -36 1 -5 6 -8 12 -6 15 3 70 -56 61 -65 -4 -5
-16 2 -26 15 -18 22 -40 30 -40 14 0 -10 69 -77 73 -71 2 2 11 20 20 41 20 43
22 72 5 65 -33 -12 -58 -18 -58 -13 0 18 14 34 26 29 8 -3 14 0 14 6 0 6 6 8
14 5 9 -4 15 7 19 38 6 47 -1 98 -14 98 -5 0 -9 11 -9 24 0 14 -5 28 -11 32
-9 5 -10 -3 -5 -28 5 -27 3 -37 -9 -42 -8 -3 -15 -12 -15 -21 0 -14 -12 -20
-34 -16 -5 1 -6 -5 -3 -13 3 -8 -1 -20 -9 -26 -8 -7 -14 -19 -14 -26 0 -8 -4
-14 -10 -14 -15 0 -12 26 5 40 19 16 19 27 0 47 -14 14 -12 38 3 29 4 -2 14 3
21 12 13 14 12 15 -8 9 -17 -4 -21 -2 -17 10 3 8 6 21 6 30 0 9 6 13 14 10 9
-4 22 5 32 21 16 25 16 33 -5 172 -57 372 -57 373 -22 351z m1601 -1 c0 -5 -2
-10 -4 -10 -2 0 -20 -7 -40 -15 -45 -19 -48 -5 -3 18 38 19 47 20 47 7z
m-3300 -47 c0 -9 6 -13 15 -9 9 3 15 0 15 -8 0 -27 -30 -27 -40 0 -13 33 -13
47 0 39 6 -3 10 -13 10 -22z m120 17 c0 -5 -4 -10 -9 -10 -5 0 -16 -3 -25 -6
-9 -3 -16 -1 -16 4 0 9 16 17 43 21 4 0 7 -3 7 -9z m1256 -135 c45 -129 56
-164 68 -218 l7 -28 89 76 c49 43 94 75 100 73 6 -2 -32 -39 -85 -82 -52 -43
-95 -81 -95 -83 0 -17 49 -68 76 -79 44 -18 44 -18 44 14 0 48 12 56 66 46
l49 -9 -47 -3 c-47 -3 -48 -4 -48 -37 0 -24 6 -38 20 -45 14 -8 20 -21 20 -45
0 -19 -4 -35 -10 -35 -5 0 -10 13 -10 30 0 25 -6 32 -46 50 -26 11 -48 20 -50
20 -2 0 12 -22 32 -50 20 -27 34 -55 32 -61 -3 -10 -45 46 -140 185 -4 5 -24
-6 -47 -27 -25 -22 -51 -37 -67 -37 -21 0 -24 -4 -19 -20 8 -25 0 -25 -32 0
-14 11 -29 17 -34 14 -5 -3 -9 2 -9 10 0 19 5 20 30 6 13 -7 21 -7 25 0 3 5
18 10 32 10 14 0 43 14 65 32 38 30 40 34 34 73 -6 49 -105 328 -118 333 -14
6 -9 24 7 20 10 -2 33 -52 61 -133z m1769 105 c17 -33 18 -40 7 -40 -8 0 -42
52 -42 64 0 17 21 2 35 -24z m-3272 -32 c19 -24 53 -71 76 -106 52 -77 89
-102 154 -102 46 0 47 -1 36 -22 -8 -14 -14 -18 -17 -10 -7 23 -27 10 -90 -60
-39 -42 -62 -75 -58 -84 3 -8 -1 -14 -10 -14 -8 0 -46 -25 -84 -55 -63 -50
-74 -55 -118 -55 -55 0 -86 -18 -116 -70 l-18 -32 22 12 c12 6 25 8 28 4 4 -4
0 -9 -8 -12 -8 -2 -34 -24 -57 -48 -23 -24 -45 -40 -47 -35 -3 5 1 14 9 21 8
7 15 17 15 22 0 6 -18 -6 -40 -26 -22 -20 -58 -43 -80 -52 -25 -10 -40 -23
-40 -34 0 -9 -7 -30 -15 -46 -17 -35 -10 -71 16 -79 28 -9 23 -28 -5 -21 -48
12 -68 -62 -22 -80 9 -3 18 -25 22 -50 5 -33 11 -44 24 -44 14 0 20 -11 25
-42 10 -64 27 -108 43 -108 7 0 11 4 7 9 -3 5 -1 12 4 15 14 9 21 -20 8 -33
-8 -8 -8 -11 1 -11 7 0 12 -7 12 -15 0 -9 9 -15 23 -15 l22 0 -23 18 c-31 24
-16 36 17 14 14 -9 42 -25 61 -34 51 -24 224 -68 230 -57 3 4 17 3 31 -5 29
-15 49 -11 49 10 0 9 4 13 10 9 5 -3 7 -11 4 -19 -3 -8 10 -17 38 -25 24 -7
50 -14 59 -17 11 -3 18 3 22 16 8 30 35 15 29 -16 -4 -20 0 -24 19 -24 13 0
47 -7 74 -15 28 -9 106 -27 175 -41 69 -14 204 -45 301 -69 188 -48 257 -54
379 -34 75 12 323 95 328 109 6 17 22 11 22 -7 0 -14 -27 -27 -115 -58 -95
-33 -115 -43 -115 -60 -1 -18 -2 -18 -13 -4 -9 12 -19 14 -42 7 -16 -5 -86
-11 -155 -14 -122 -5 -129 -5 -288 35 -182 46 -175 44 -167 32 3 -5 29 -17 58
-26 28 -10 63 -28 77 -40 14 -13 45 -29 70 -35 25 -7 54 -16 65 -21 35 -15
155 -36 155 -27 0 5 9 6 20 3 13 -4 20 -2 20 7 1 7 9 3 21 -11 14 -18 23 -21
31 -13 8 8 18 7 37 -2 44 -23 231 -20 316 5 79 24 97 35 213 131 50 42 82 76
82 88 0 24 20 37 30 20 6 -9 17 -6 44 15 29 22 35 32 30 49 -6 18 -5 19 9 8
13 -11 22 -9 56 15 22 15 43 36 46 46 4 9 15 17 27 17 20 0 20 0 -2 38 -12 20
-28 41 -36 45 -8 5 -11 13 -8 19 4 6 3 13 -2 17 -16 11 -46 63 -40 68 8 9 44
-26 51 -48 4 -11 13 -19 21 -19 14 0 16 -5 18 -45 1 -11 6 -19 13 -18 7 2 10
-3 8 -10 -3 -6 -1 -18 4 -26 8 -12 28 -6 115 34 58 26 106 52 106 57 0 5 6 8
13 6 6 -1 35 3 62 9 84 19 106 21 143 11 26 -7 37 -6 42 3 5 6 21 12 37 13 29
1 35 19 19 57 -6 13 -1 16 21 15 23 -1 29 -6 31 -30 3 -20 0 -26 -8 -21 -9 5
-10 1 -5 -15 6 -20 4 -22 -11 -16 -11 4 1 -13 25 -38 54 -55 47 -75 -8 -22
-23 23 -40 33 -43 26 -3 -10 -21 -9 -78 4 -70 16 -79 16 -148 0 -41 -10 -80
-23 -87 -31 -8 -7 -21 -13 -30 -13 -9 0 -56 -20 -104 -45 -48 -25 -95 -45
-104 -45 -11 0 -17 -6 -15 -16 2 -11 -4 -18 -17 -19 -21 -2 -190 -126 -305
-225 -86 -73 -121 -94 -205 -120 -198 -61 -590 -15 -755 90 -25 16 -62 32 -83
35 -40 8 -67 28 -67 50 0 12 -31 20 -240 61 -41 8 -111 19 -156 24 -104 12
-382 68 -408 82 -46 25 -89 28 -117 7 -36 -25 -47 -24 -42 4 4 19 -5 31 -45
60 -28 20 -75 48 -104 63 -29 15 -81 45 -116 67 l-64 40 -54 -13 c-32 -8 -54
-19 -54 -27 0 -7 -15 -23 -34 -35 -18 -12 -48 -46 -67 -75 -29 -46 -78 -83
-100 -76 -3 1 -44 7 -90 13 -90 11 -204 44 -230 66 -8 8 -21 14 -27 14 -7 0
-24 19 -38 42 -26 40 -26 43 -14 113 14 81 9 97 -42 151 l-30 32 26 41 c30 46
37 49 74 22 15 -10 37 -21 49 -25 12 -4 51 -44 86 -89 75 -98 81 -107 69 -107
-5 0 -38 38 -74 85 -48 63 -77 91 -113 110 -54 27 -59 26 -80 -15 -14 -27 -14
-30 5 -40 40 -21 53 -67 46 -156 -5 -67 -3 -88 11 -112 26 -46 173 -106 281
-115 37 -3 49 -1 43 7 -5 6 -12 35 -16 64 -6 46 -10 52 -30 52 -40 0 -125 21
-120 30 2 4 37 5 76 2 53 -4 70 -2 65 7 -4 6 -17 11 -30 11 -23 0 -46 17 -46
34 0 6 5 5 12 -2 7 -7 26 -12 44 -12 24 0 33 -5 37 -21 6 -21 10 -22 73 -16
37 4 70 10 73 14 3 5 28 9 55 11 61 3 158 31 151 43 -10 15 24 10 43 -7 28
-25 182 -124 194 -124 5 0 23 -11 40 -25 16 -14 37 -25 46 -24 13 0 12 3 -5
11 -24 11 -53 79 -53 122 0 19 -6 29 -19 33 -19 5 -31 30 -31 69 0 12 -17 34
-40 53 -25 20 -43 44 -47 62 -4 23 -10 29 -27 27 -16 -2 -22 -13 -28 -47 -4
-24 -12 -49 -18 -56 -18 -22 -77 -28 -108 -11 -33 19 -142 47 -154 40 -4 -3
-8 -1 -8 4 0 5 -37 21 -82 37 -46 15 -99 35 -119 45 -33 17 -36 17 -47 2 -11
-15 -12 -15 -9 5 5 25 -18 37 -104 52 -31 5 -130 33 -220 61 -91 28 -175 49
-188 47 -14 -3 -34 -1 -45 3 -12 5 -55 16 -96 25 -41 10 -97 29 -125 43 -59
29 -181 72 -207 72 -10 0 -18 5 -18 11 0 6 -7 9 -15 5 -10 -3 -15 1 -15 13 0
14 5 18 20 14 11 -3 20 -9 20 -14 0 -5 7 -9 16 -9 11 0 14 6 9 23 -4 12 -9 30
-11 40 -3 9 -1 17 4 17 5 0 15 -20 21 -45 9 -34 18 -48 37 -55 42 -16 50 -12
64 31 12 37 15 39 27 23 10 -14 10 -19 -2 -28 -29 -23 -21 -46 24 -66 33 -15
41 -16 31 -5 -10 12 -10 15 0 15 6 0 14 -9 17 -20 3 -11 14 -20 24 -20 10 0
20 -4 23 -9 10 -16 218 -53 288 -52 14 0 32 -6 38 -14 6 -8 18 -11 26 -8 8 3
21 0 29 -7 9 -7 25 -10 42 -5 22 5 24 4 15 -7 -9 -12 2 -18 62 -36 40 -12 92
-24 115 -28 l42 -7 -20 34 c-12 19 -21 42 -21 53 0 13 -5 17 -20 13 -11 -3
-20 -1 -20 4 0 5 9 9 20 9 26 0 25 1 -9 74 -30 62 -61 135 -61 142 0 13 20 1
25 -16 5 -16 12 -18 38 -13 18 3 49 15 70 25 22 11 42 17 45 14 10 -11 -11
-24 -73 -45 -33 -11 -59 -24 -58 -28 1 -4 15 -38 32 -75 28 -64 31 -67 68 -70
l38 -4 -27 -12 c-29 -12 -38 -32 -15 -32 7 -1 5 -6 -6 -14 -16 -12 -14 -16 25
-52 24 -22 57 -45 73 -51 17 -6 39 -15 50 -19 11 -4 25 -8 31 -9 6 0 18 -5 25
-12 8 -6 61 -25 119 -43 58 -17 120 -38 138 -46 65 -28 112 -9 112 44 0 15 7
40 15 56 9 16 13 36 11 43 -3 7 -1 13 4 13 6 0 10 -9 10 -20 0 -11 4 -20 8
-20 5 0 7 24 4 53 -3 33 1 65 11 87 15 34 15 33 10 -46 -5 -77 -5 -82 18 -97
35 -25 52 -22 46 9 -3 15 5 50 18 83 20 49 29 59 76 83 29 15 62 37 73 48 20
20 20 20 1 35 -19 15 -18 16 11 10 26 -5 35 -1 53 21 11 15 21 35 21 45 0 11
7 19 15 19 15 0 20 17 17 53 -1 11 3 17 10 14 7 -2 13 -14 12 -26 0 -11 3 -21
8 -21 4 0 8 7 8 15 0 8 5 15 10 15 6 0 10 -4 10 -9 0 -5 18 -11 40 -13 31 -3
45 1 58 15 9 10 38 35 65 54 45 33 47 36 30 50 -17 14 -17 14 4 10 18 -4 36 9
83 60 59 63 67 83 31 83 -19 0 -91 64 -91 80 0 6 -6 9 -12 8 -7 -2 -13 4 -13
13 0 24 -84 139 -101 139 -8 0 -14 5 -14 10 0 23 31 7 63 -32z m256 15 c1 23
21 22 21 -2 0 -10 -7 -22 -16 -25 -21 -8 -21 -8 -27 13 -6 26 5 37 14 14 7
-17 8 -17 8 0z m1161 11 c0 -8 -242 -290 -247 -286 -1 1 -4 4 -5 7 -4 7 234
285 244 285 4 0 8 -3 8 -6z m-3427 -44 c-7 -8 -22 24 -16 34 4 5 10 1 13 -10
4 -10 6 -21 3 -24z m2433 -26 c-56 -56 -74 -67 -57 -36 15 29 94 101 103 96 5
-3 -16 -30 -46 -60z m2660 59 c-4 -5 -21 -12 -37 -18 -29 -10 -37 -33 -9 -27
47 9 100 10 100 2 0 -6 -13 -10 -30 -10 -41 0 -178 -45 -201 -66 -10 -9 -19
-12 -19 -6 0 18 28 40 61 47 20 5 29 11 25 21 -3 8 -1 14 4 14 6 0 10 6 10 14
0 7 15 18 33 24 39 12 73 15 63 5z m-2716 -13 c0 -5 -7 -10 -16 -10 -8 0 -12
5 -9 10 3 6 10 10 16 10 5 0 9 -4 9 -10z m-1830 -25 c13 -14 21 -25 18 -25 -2
0 -15 11 -28 25 -13 14 -21 25 -18 25 2 0 15 -11 28 -25z m-516 -31 c4 -10 1
-14 -6 -12 -15 5 -23 28 -10 28 5 0 13 -7 16 -16z m4226 -6 c0 -13 -21 -20
-46 -14 -36 9 -29 23 11 22 19 -1 35 -4 35 -8z m277 -19 c-3 -12 0 -22 9 -26
8 -3 11 -9 8 -14 -3 -5 -10 -7 -15 -4 -12 8 -11 -9 2 -37 5 -13 30 -31 55 -42
24 -10 44 -22 44 -26 0 -4 -15 -17 -34 -28 -40 -24 -116 -39 -116 -23 0 6 10
11 23 12 12 0 40 8 62 18 l40 18 -24 13 c-21 11 -23 10 -18 -4 6 -14 3 -16
-16 -10 -12 4 -30 7 -39 6 -22 -1 -23 8 -4 33 10 14 11 27 4 53 -7 24 -6 43 1
59 13 28 25 30 18 2z m-203 5 c23 -9 20 -23 -4 -17 -11 3 -20 9 -20 14 0 11 3
11 24 3z m-4274 -40 c0 -8 -4 -12 -10 -9 -5 3 -10 13 -10 21 0 8 5 12 10 9 6
-3 10 -13 10 -21z m1276 -34 c-1 -33 -6 -63 -9 -67 -7 -6 -12 42 -9 80 2 20
-9 22 -26 5 -9 -9 -12 -9 -12 -1 0 12 38 43 52 43 4 0 6 -27 4 -60z m534 35
c-30 -32 -21 -42 50 -55 53 -10 90 -33 90 -54 -1 -6 -9 -1 -19 11 -10 12 -20
20 -23 18 -2 -2 -35 3 -72 12 l-68 17 -29 -35 c-17 -20 -29 -28 -29 -19 0 18
97 130 113 130 6 0 0 -11 -13 -25z m2530 15 c0 -5 -4 -10 -9 -10 -6 0 -13 5
-16 10 -3 6 1 10 9 10 9 0 16 -4 16 -10z m398 -40 c16 0 15 -8 -3 -27 -13 -12
-18 -13 -31 -2 -12 10 -20 8 -45 -10 -21 -16 -34 -20 -41 -13 -7 7 2 16 27 28
21 10 40 26 43 36 4 17 6 17 22 3 9 -8 22 -15 28 -15z m1520 12 c2 -7 -5 -12
-17 -12 -14 0 -19 5 -14 15 6 17 25 15 31 -3z m-3948 1 c-1 -15 -39 -58 -45
-51 -8 8 24 58 36 58 5 0 9 -3 9 -7z m-1740 -29 c0 -14 -4 -23 -10 -19 -5 3
-10 15 -10 26 0 10 5 19 10 19 6 0 10 -12 10 -26z m-534 -11 c-7 -7 -26 7 -26
19 0 6 6 6 15 -2 9 -7 13 -15 11 -17z m1074 12 c0 -9 12 -27 26 -42 27 -27 27
-37 0 -27 -28 11 -60 84 -36 84 6 0 10 -7 10 -15z m4248 3 c-3 -7 -13 -15 -24
-17 -16 -3 -17 -1 -5 13 16 19 34 21 29 4z m830 -20 c3 -14 0 -15 -22 -5 -32
15 -34 30 -4 25 13 -2 24 -11 26 -20z m-4758 -7 c-5 -11 -10 -31 -10 -45 0
-14 -4 -26 -10 -26 -13 0 -13 46 0 71 6 10 15 19 21 19 6 0 6 -7 -1 -19z
m1170 -6 c0 -19 5 -25 23 -26 17 -1 18 -2 4 -6 -28 -7 -9 -23 28 -23 27 0 34
4 38 23 l4 22 8 -22 c6 -19 12 -21 54 -16 45 5 49 3 108 -46 34 -28 74 -67 90
-87 l29 -36 52 56 c29 31 59 56 67 56 26 0 26 -19 0 -45 -15 -14 -35 -46 -46
-71 l-20 -45 34 -42 c19 -23 53 -62 75 -87 l40 -45 36 34 c48 47 59 31 13 -17
l-38 -38 22 -28 22 -27 -30 -32 c-17 -18 -32 -37 -34 -44 -3 -9 -8 -8 -22 1
-16 12 -16 17 -2 56 8 24 13 45 11 47 -8 8 -71 -29 -93 -55 -26 -31 -37 -26
-20 8 15 29 -1 73 -33 90 -20 11 -40 59 -40 97 0 23 -1 23 -65 17 -46 -5 -65
-3 -65 5 0 6 12 11 28 11 15 0 44 3 65 6 37 7 37 7 31 43 -9 51 -46 102 -114
155 -50 39 -65 46 -103 46 -45 0 -77 -18 -77 -43 0 -7 -12 -18 -27 -25 -32
-14 -43 -6 -59 41 -12 36 -43 48 -89 35 -16 -4 -33 -4 -38 1 -8 8 49 31 79 31
6 0 17 11 24 25 7 14 17 25 22 25 4 0 8 -11 8 -25z m-2510 -1 c0 -14 -3 -14
-15 -4 -8 7 -15 14 -15 16 0 2 7 4 15 4 8 0 15 -7 15 -16z m-200 -24 c-11 -20
-30 -28 -30 -12 0 11 22 32 32 32 5 0 4 -9 -2 -20z m690 0 c0 -11 -4 -20 -10
-20 -5 0 -10 9 -10 20 0 11 5 20 10 20 6 0 10 -9 10 -20z m4615 0 c3 -6 -4
-10 -18 -10 -14 0 -39 -3 -56 -6 -19 -4 -31 -2 -31 4 0 6 19 13 43 15 23 2 45
4 49 5 4 1 10 -2 13 -8z m-4643 -27 c54 -17 76 -33 44 -33 -8 0 -17 -6 -19
-12 -4 -8 -6 -7 -6 4 -1 20 -62 42 -97 35 -23 -4 -31 3 -17 16 10 11 34 8 95
-10z m-656 -41 c-9 -8 -26 10 -26 26 1 15 2 15 15 -2 8 -11 13 -21 11 -24z
m1867 -3 c5 -19 22 -51 38 -71 32 -41 35 -48 17 -48 -17 0 -67 84 -83 139 -5
17 -4 22 6 19 7 -2 17 -20 22 -39z m2865 -7 c12 -26 22 -64 22 -84 0 -32 3
-38 21 -38 32 0 88 -38 93 -63 3 -12 8 -49 11 -82 3 -33 8 -68 11 -77 3 -10 1
-18 -5 -18 -6 0 -11 9 -11 19 0 11 -5 23 -10 26 -6 4 -8 15 -5 25 10 31 -6 90
-26 101 -15 7 -17 6 -13 -6 4 -10 0 -15 -11 -15 -15 0 -16 -9 -11 -68 l5 -67
-38 3 c-26 3 -43 -1 -55 -13 -22 -23 -32 -12 -18 20 10 22 8 26 -18 42 -35 20
-37 29 -9 38 24 8 39 -2 21 -14 -9 -5 -5 -11 12 -19 20 -9 25 -8 30 4 11 29 7
44 -11 37 -16 -6 -16 -5 -4 11 8 9 19 15 25 13 6 -3 17 2 24 9 10 11 8 15 -7
23 -24 14 -50 73 -33 79 20 6 14 81 -8 109 -20 26 -27 53 -12 53 4 -1 17 -22
30 -48z m-48 -39 c0 -16 7 -27 18 -30 18 -4 17 -7 -5 -50 -13 -26 -23 -52 -23
-58 0 -17 -49 -60 -57 -51 -4 4 2 15 14 24 13 9 30 39 39 65 17 50 16 53 -17
119 -16 31 -10 42 11 23 11 -10 20 -29 20 -42z m-483 41 c-3 -3 -12 -4 -19 -1
-8 3 -5 6 6 6 11 1 17 -2 13 -5z m-4184 -34 c-7 -28 -13 -25 -13 6 0 14 4 23
9 20 5 -3 7 -15 4 -26z m667 -10 c0 -11 -4 -20 -9 -20 -11 0 -22 26 -14 34 12
12 23 5 23 -14z m4985 -25 c6 -29 6 -29 -9 -11 -9 11 -16 29 -16 40 0 28 17 8
25 -29z m-5025 25 c0 -5 -9 -10 -21 -10 -11 0 -17 5 -14 10 3 6 13 10 21 10 8
0 14 -4 14 -10z m3684 -37 c-7 -49 -11 -60 -18 -52 -8 8 7 99 16 99 5 0 6 -20
2 -47z m1730 19 c14 -26 13 -30 -5 -45 -10 -9 -22 -17 -26 -17 -14 0 -54 -54
-49 -67 7 -16 -10 -17 -20 -1 -4 6 -2 14 4 16 7 2 10 7 7 12 -5 8 53 70 67 70
4 0 8 9 8 20 0 17 -7 20 -40 20 -22 0 -57 -7 -77 -15 -38 -16 -52 -15 -31 2
21 17 71 31 110 32 31 1 40 -4 52 -27z m-5474 8 c0 -5 -9 -10 -20 -10 -11 0
-20 5 -20 10 0 6 9 10 20 10 11 0 20 -4 20 -10z m-120 -10 c0 -5 -12 -10 -27
-9 l-28 1 25 8 c14 4 26 8 28 9 1 1 2 -3 2 -9z m55 0 c-3 -5 -13 -10 -21 -10
-8 0 -14 5 -14 10 0 6 9 10 21 10 11 0 17 -4 14 -10z m4031 -5 c14 -13 13 -15
-4 -15 -11 0 -40 -22 -66 -50 -26 -27 -50 -50 -53 -50 -10 0 -144 -80 -174
-104 -14 -12 -36 -28 -49 -36 -12 -8 -28 -21 -36 -27 -17 -17 -27 -16 -21 1 7
17 -30 10 -55 -11 -11 -10 -18 -11 -23 -3 -9 14 23 39 50 40 25 0 58 37 51 56
-3 8 -1 14 4 14 6 0 10 -3 10 -7 0 -23 60 -5 142 42 72 41 103 65 136 109 45
58 63 66 88 41z m-4539 -17 c-3 -8 -6 -5 -6 6 -1 11 2 17 5 13 3 -3 4 -12 1
-19z m1668 -51 c-21 -30 -19 -54 5 -62 11 -3 20 -13 20 -21 0 -18 -8 -18 -26
0 -10 11 -22 12 -44 6 -17 -5 -30 -6 -30 -2 1 11 30 47 30 36 1 -5 7 6 15 25
17 38 9 64 -12 36 -12 -18 -13 -18 -13 -1 0 9 5 26 10 36 10 18 11 18 35 -6
23 -23 24 -27 10 -47z m-991 37 c9 -22 -3 -32 -14 -14 -12 19 -12 30 -1 30 5
0 12 -7 15 -16z m5176 -21 c0 -13 -3 -13 -15 -3 -8 7 -15 19 -15 27 0 13 3 13
15 3 8 -7 15 -19 15 -27z m227 12 c-4 -8 -11 -15 -17 -15 -7 0 -7 6 0 21 13
23 26 19 17 -6z m-6364 -12 c-7 -2 -21 -2 -30 0 -10 3 -4 5 12 5 17 0 24 -2
18 -5z m157 -19 c0 -2 -9 -4 -20 -4 -11 0 -20 4 -20 9 0 5 9 7 20 4 11 -3 20
-7 20 -9z m5634 0 c4 -9 3 -20 0 -23 -4 -3 -9 0 -11 7 -3 6 -18 12 -34 12 -16
0 -29 5 -29 10 0 17 67 12 74 -6z m-5577 -21 c-9 -8 -48 8 -42 18 4 5 14 5 26
-2 12 -6 18 -13 16 -16z m777 -12 c-6 -6 -24 19 -24 34 1 6 7 1 15 -9 8 -11
12 -22 9 -25z m-724 -1 c0 -13 -11 -13 -30 0 -12 8 -11 10 8 10 12 0 22 -4 22
-10z m48 -28 c2 -7 -2 -10 -12 -6 -9 3 -16 11 -16 16 0 13 23 5 28 -10z m5968
-29 c-11 -11 -17 4 -9 23 7 18 8 18 11 1 2 -10 1 -21 -2 -24z m-6676 -3 c0 -5
-6 -10 -14 -10 -8 0 -18 5 -21 10 -3 6 3 10 14 10 12 0 21 -4 21 -10z m490 2
c0 -5 -25 -15 -55 -22 -37 -9 -60 -21 -70 -37 -9 -12 -23 -23 -32 -23 -9 0
-14 -3 -11 -6 4 -3 50 9 103 26 53 18 99 29 102 26 9 -8 14 -6 -142 -59 -144
-48 -219 -58 -300 -37 -26 7 -24 8 20 9 l51 1 -4 43 c-3 23 -10 45 -16 49 -8
6 -7 8 2 8 6 0 15 0 20 0 4 0 9 -21 12 -47 5 -47 6 -48 41 -51 51 -4 92 14 86
38 -6 23 16 44 63 58 19 6 49 15 65 20 39 13 65 14 65 4z m-440 -12 c12 -8 11
-10 -7 -10 -12 0 -25 5 -28 10 -8 13 15 13 35 0z m60 -10 c0 -5 -9 -10 -21
-10 -11 0 -17 5 -14 10 3 6 13 10 21 10 8 0 14 -4 14 -10z m4085 -49 l7 -50
56 -19 c32 -10 57 -23 57 -28 1 -12 24 -52 25 -41 0 5 5 5 11 1 8 -4 7 -9 -2
-15 -10 -6 -8 -9 8 -9 12 0 29 -10 37 -21 10 -14 21 -19 32 -15 12 5 15 2 12
-12 -3 -11 -1 -28 5 -38 27 -47 2 -71 -37 -35 -27 26 -36 26 -36 4 0 -14 -2
-15 -9 -4 -7 11 -14 9 -39 -9 -24 -18 -34 -20 -50 -11 -17 9 -22 8 -27 -10 -8
-25 -12 -20 53 -53 29 -15 55 -33 58 -41 5 -12 12 -11 45 5 21 11 39 16 39 10
0 -5 -15 -17 -32 -26 l-33 -17 27 -8 c48 -13 50 -18 24 -63 -22 -38 -23 -46
-13 -84 8 -32 8 -45 -1 -54 -9 -9 -12 -7 -12 10 0 17 -6 22 -25 22 -22 0 -25
-4 -25 -32 1 -27 2 -30 11 -15 15 26 26 20 21 -13 -4 -26 -1 -30 19 -30 13 0
56 11 94 25 75 26 110 31 120 15 4 -6 -5 -10 -20 -10 -26 0 -175 -44 -208 -61
-10 -5 -22 -7 -27 -4 -6 4 -14 -5 -20 -19 -13 -35 -32 -33 -25 2 l5 27 -12
-27 c-7 -16 -15 -28 -20 -28 -4 0 -5 -7 -2 -15 4 -8 13 -15 20 -15 11 0 34
-36 34 -54 0 -1 -13 -3 -30 -3 -28 0 -41 11 -21 19 6 2 -10 29 -34 62 -45 59
-53 103 -9 50 27 -34 45 -24 46 25 1 26 5 32 18 28 15 -4 17 3 17 52 0 31 3
66 8 79 6 18 4 21 -9 16 -9 -3 -16 -2 -16 3 0 15 23 33 43 33 17 0 19 -5 13
-44 -6 -38 -4 -44 14 -49 23 -6 26 5 6 22 -15 13 -7 64 14 85 13 13 13 29 1
21 -5 -3 -13 -1 -16 5 -4 6 -16 8 -26 5 -14 -5 -19 -3 -18 7 6 25 -21 56 -63
74 -24 9 -49 16 -57 15 -10 -2 -11 3 -6 16 16 38 17 66 6 126 -17 88 -21 97
-37 97 -8 0 -14 5 -14 11 0 6 7 9 15 5 18 -6 18 -5 6 27 -6 14 -19 28 -30 32
-12 3 -21 11 -21 16 0 6 9 7 21 4 19 -6 20 -4 13 41 -4 31 -3 45 4 40 5 -3 13
-28 17 -55z m-900 4 c-26 -49 -40 -44 -15 6 12 23 24 38 28 35 3 -4 -2 -22
-13 -41z m3259 -50 c18 -27 22 -95 6 -95 -5 0 -10 17 -10 38 0 20 -6 45 -14
54 -12 16 -14 16 -44 -3 -18 -10 -38 -30 -44 -44 -6 -14 -15 -25 -20 -25 -10
0 -10 11 1 29 13 20 -7 69 -30 76 -34 11 -20 23 21 18 36 -5 40 -4 40 17 0 18
3 20 14 11 10 -9 16 -8 26 4 12 14 15 11 25 -19 7 -20 20 -47 29 -61z m-5768
48 c-4 -4 -11 -1 -16 7 -16 25 -11 35 7 17 9 -9 13 -20 9 -24z m4454 -18 c-13
-14 -28 -25 -33 -25 -6 0 0 11 13 25 13 14 28 25 33 25 6 0 0 -11 -13 -25z
m1554 -49 c-10 -38 -13 -73 -8 -100 8 -44 8 -110 -1 -311 -7 -173 -20 -276
-39 -317 -18 -36 -71 -98 -84 -98 -5 0 -55 -43 -111 -95 -56 -52 -111 -95
-122 -95 -10 0 -19 -5 -19 -10 0 -7 16 -9 40 -7 56 6 60 -10 8 -33 -77 -35
-144 -23 -198 35 -30 33 -189 144 -246 173 -23 12 -62 26 -88 33 -60 15 -73
34 -17 24 22 -4 41 -5 41 -2 0 2 -58 25 -129 51 -70 25 -153 57 -183 70 -58
26 -114 80 -124 121 -5 19 -10 23 -18 16 -9 -7 -22 -2 -44 19 -18 16 -32 32
-32 35 0 14 36 50 50 50 8 0 13 7 12 15 -2 8 -5 33 -7 54 -2 22 -8 42 -12 45
-15 11 -11 41 6 41 11 0 17 -9 18 -27 2 -58 44 -247 60 -276 28 -46 57 -63
218 -122 83 -31 173 -67 201 -80 28 -14 58 -25 67 -25 10 0 26 -8 36 -17 80
-74 167 -135 198 -139 13 -1 33 -10 43 -19 15 -14 29 -16 72 -10 71 10 80 15
173 104 45 42 98 89 119 105 28 21 35 31 25 37 -7 4 -11 9 -9 11 3 2 14 8 25
14 24 13 33 42 34 112 1 29 6 62 12 74 16 30 2 118 -19 118 -15 1 -15 2 -2 13
29 22 50 201 34 280 -5 23 -11 27 -39 27 -40 0 -43 4 -51 64 -5 31 -3 46 5 46
6 0 11 -10 11 -22 0 -45 12 -68 34 -68 18 0 24 11 40 80 11 44 23 77 27 73 5
-5 1 -35 -7 -67z m-4983 21 c-1 -12 -15 -9 -19 4 -3 6 1 10 8 8 6 -3 11 -8 11
-12z m5299 3 c0 -5 -4 -10 -10 -10 -14 0 -37 -52 -32 -73 2 -11 -6 -29 -17
-41 -13 -14 -21 -36 -21 -57 0 -72 -10 -295 -14 -321 -3 -15 3 -47 15 -73 23
-52 19 -88 -12 -114 -17 -14 -18 -20 -8 -52 11 -34 7 -50 -60 -230 -39 -107
-74 -200 -76 -206 -2 -7 -9 -13 -14 -13 -6 0 1 30 15 66 14 37 23 68 21 70 -2
2 -18 -17 -36 -44 l-33 -48 -107 -14 c-111 -16 -151 -15 -151 1 0 6 5 7 11 4
5 -4 61 1 124 10 l113 17 37 54 c20 29 45 78 54 109 10 31 29 67 43 80 34 32
54 104 39 146 -6 17 -8 35 -5 40 3 5 0 9 -5 9 -24 0 -9 19 17 22 34 4 41 41
16 89 -14 27 -15 50 -10 133 3 56 2 115 -3 131 l-9 30 -1 -27 c-1 -16 -6 -28
-12 -28 -17 0 -3 72 16 82 10 6 15 25 15 63 0 42 5 60 25 83 16 19 21 32 14
39 -13 13 27 83 47 83 8 0 14 -4 14 -10z m-1252 -30 c11 -18 10 -20 -13 -20
-24 0 -34 18 -18 33 10 11 17 8 31 -13z m-4728 1 c0 -5 3 -18 6 -28 5 -16 4
-16 -10 1 -18 23 -20 36 -6 36 6 0 10 -4 10 -9z m719 -7 c17 -4 29 -10 26 -13
-6 -10 -75 -1 -75 10 0 11 7 11 49 3z m3361 -46 c0 -12 -8 -10 -35 8 -14 9
-25 23 -25 30 0 11 8 9 30 -8 17 -12 30 -25 30 -30z m-3460 22 c0 -5 -3 -10
-7 -10 -5 -1 -27 -5 -50 -9 -24 -5 -43 -5 -43 0 0 4 19 12 43 17 57 13 57 13
57 2z m-330 -20 c0 -5 -9 -10 -20 -10 -11 0 -20 5 -20 10 0 6 9 10 20 10 11 0
20 -4 20 -10z m-60 -10 c0 -5 -9 -10 -20 -10 -11 0 -20 5 -20 10 0 6 9 10 20
10 11 0 20 -4 20 -10z m3805 -40 c-3 -5 -2 -10 4 -10 5 0 12 4 16 10 9 14 37
0 31 -16 -8 -21 4 -43 19 -38 8 3 16 -4 20 -16 5 -15 13 -20 26 -17 10 3 19 1
19 -4 0 -5 -13 -12 -30 -15 -39 -8 -31 -19 26 -33 37 -10 45 -15 39 -29 -4 -9
-7 -25 -7 -35 0 -9 -3 -15 -8 -12 -5 3 -13 -3 -19 -12 -14 -26 -25 -9 -11 17
6 12 9 24 7 27 -7 6 -144 -25 -169 -38 -23 -13 -39 -2 -18 12 8 5 33 14 55 19
69 19 73 21 47 31 -15 6 -31 5 -44 -2 -26 -14 -30 -9 -14 21 11 22 9 29 -17
68 -33 45 -42 49 -82 30 -19 -9 -28 -9 -37 0 -9 9 -7 12 8 12 11 0 29 6 40 14
13 10 23 11 31 4 14 -11 53 -2 53 13 0 5 5 9 11 9 5 0 7 -4 4 -10z m725 0 c0
-5 -7 -10 -15 -10 -8 0 -15 5 -15 10 0 6 7 10 15 10 8 0 15 -4 15 -10z m-925
-52 c6 -6 -3 -8 -24 -6 -19 2 -36 9 -39 16 -3 9 4 11 25 6 15 -4 33 -11 38
-16z m595 -12 c0 -5 -7 -3 -15 4 -8 7 -12 17 -9 22 7 10 24 -9 24 -26z m245
15 c-15 -14 -75 -24 -75 -12 0 9 24 17 65 20 11 0 15 -3 10 -8z m-3935 -31 c0
-20 -5 -30 -15 -30 -18 0 -18 2 -3 35 15 32 18 32 18 -5z m2298 1 c3 -8 -1
-12 -9 -9 -7 2 -15 10 -17 17 -3 8 1 12 9 9 7 -2 15 -10 17 -17z m699 -6 c-12
-25 -37 -35 -37 -15 0 15 23 39 37 40 8 0 8 -6 0 -25z m793 5 c0 -5 -4 -10
-10 -10 -5 0 -10 5 -10 10 0 6 5 10 10 10 6 0 10 -4 10 -10z m-5050 -10 c0 -5
-11 -12 -24 -16 -14 -3 -32 -14 -42 -25 -10 -11 -30 -19 -48 -19 -28 0 -25 4
34 35 71 37 80 40 80 25z m5120 -20 c0 -5 -4 -10 -10 -10 -5 0 -10 5 -10 10 0
6 5 10 10 10 6 0 10 -4 10 -10z m-2540 -9 c0 -6 -4 -13 -10 -16 -5 -3 -10 1
-10 9 0 9 5 16 10 16 6 0 10 -4 10 -9z m2413 -34 c-7 -11 -23 12 -23 33 1 12
4 11 15 -4 8 -10 12 -23 8 -29z m-2286 7 c2 -7 -6 -10 -22 -7 -14 3 -25 10
-25 15 0 13 43 6 47 -8z m2523 -4 c-19 -13 -30 -13 -30 0 0 6 10 10 23 10 18
0 19 -2 7 -10z m-2395 -24 c16 -6 25 -15 20 -18 -14 -7 -75 11 -75 22 0 13 18
12 55 -4z m-2260 -18 c14 -6 35 -26 46 -45 11 -18 25 -33 30 -33 5 0 8 -12 8
-27 -1 -17 -3 -21 -6 -10 -5 20 -23 23 -23 3 0 -8 -7 -16 -15 -20 -18 -6 -19
7 -4 35 13 26 -9 62 -51 84 -30 16 -32 15 -55 -29 -5 -11 -16 -21 -23 -24 -8
-2 -6 7 5 30 28 51 42 57 88 36z m4459 -29 c9 -23 14 -44 11 -47 -8 -9 -35
-11 -36 -4 -1 11 -6 34 -14 65 -12 45 20 33 39 -14z m957 -31 c15 -15 19 -15
29 -3 7 8 17 12 23 8 6 -4 1 -13 -12 -24 -14 -12 -21 -27 -19 -41 2 -15 -2
-22 -11 -20 -9 2 -11 -3 -6 -15 4 -10 9 -27 12 -38 4 -18 2 -17 -15 4 -20 25
-37 16 -26 -13 4 -11 1 -16 -11 -16 -15 0 -13 -5 9 -27 29 -29 27 -46 -2 -20
-28 26 -45 22 -38 -8 4 -14 2 -25 -3 -25 -5 0 -11 9 -14 20 -7 27 -25 25 -39
-5 -6 -14 -17 -25 -25 -25 -18 0 -17 15 3 34 24 24 9 58 -22 50 -20 -5 -24 -2
-24 15 0 12 -4 21 -10 21 -5 0 -10 4 -10 9 0 15 121 44 133 32 16 -16 45 -13
55 5 13 23 3 54 -17 55 -14 1 -13 2 1 6 16 4 16 7 3 32 -8 16 -11 31 -8 35 4
4 11 -1 16 -11 6 -10 18 -26 28 -35z m-253 12 c-14 -22 -24 -19 -15 5 4 8 11
15 17 15 6 0 6 -7 -2 -20z m-513 -5 c-16 -7 -32 -11 -35 -9 -7 8 24 24 45 23
15 0 13 -4 -10 -14z m-637 -34 c3 -20 0 -22 -40 -20 -40 3 -57 12 -58 33 0 4
9 6 20 3 11 -3 22 -1 25 4 11 17 50 3 53 -20z m-894 3 c10 -25 7 -34 -9 -28
-8 4 -40 -13 -76 -40 -33 -25 -65 -46 -70 -46 -16 0 -10 20 9 27 18 6 115 83
120 95 6 13 20 9 26 -8z m936 9 c0 -14 -19 -38 -25 -32 -8 8 5 39 16 39 5 0 9
-3 9 -7z m347 -45 c10 -39 7 -71 -4 -40 -3 6 -11 12 -19 12 -16 0 -54 30 -54
43 0 8 36 25 55 26 6 1 16 -18 22 -41z m-4450 -10 c10 -12 14 -19 8 -17 -36
16 -65 33 -65 40 0 13 38 -3 57 -23z m2223 22 c12 -8 11 -10 -7 -10 -13 0 -23
5 -23 10 0 13 11 13 30 0z m2370 0 c0 -5 -4 -10 -10 -10 -5 0 -10 5 -10 10 0
6 5 10 10 10 6 0 10 -4 10 -10z m-1077 -31 c3 -13 1 -19 -6 -16 -15 5 -22 37
-9 37 5 0 12 -9 15 -21z m-153 -24 c-7 -8 -17 -15 -22 -15 -6 0 -5 7 2 15 7 8
17 15 22 15 6 0 5 -7 -2 -15z m1170 -5 c0 -5 -5 -10 -11 -10 -5 0 -7 5 -4 10
3 6 8 10 11 10 2 0 4 -4 4 -10z m-5300 -46 c0 -8 -4 -12 -10 -9 -5 3 -10 13
-10 21 0 8 5 12 10 9 6 -3 10 -13 10 -21z m4110 16 c0 -5 -7 -10 -15 -10 -8 0
-15 5 -15 10 0 6 7 10 15 10 8 0 15 -4 15 -10z m2239 -14 c9 -11 9 -16 0 -22
-7 -4 -15 -2 -17 5 -3 8 -8 6 -18 -6 -14 -19 -19 -7 -8 21 8 20 28 21 43 2z
m-1053 -11 c-4 -11 2 -14 24 -11 20 2 30 -1 30 -10 0 -8 11 -14 28 -15 l27 -1
-25 -7 c-16 -5 -31 -3 -41 6 -22 18 -24 17 -27 -14 -3 -41 -22 -54 -22 -15 0
25 -4 32 -19 32 -17 0 -31 18 -31 41 0 5 14 9 31 9 23 0 30 -4 25 -15z m-1015
-38 c-1 -12 -15 -9 -19 4 -3 6 1 10 8 8 6 -3 11 -8 11 -12z m1999 -8 c0 -5 -4
-9 -10 -9 -5 0 -10 7 -10 16 0 8 5 12 10 9 6 -3 10 -10 10 -16z m60 12 c0 -12
-39 -21 -45 -11 -3 5 3 11 12 13 29 8 33 7 33 -2z m-2665 -20 c-10 -17 -55
-37 -97 -45 -55 -10 -47 9 9 23 25 7 55 18 66 26 22 16 33 13 22 -4z m-2706
-33 c62 -68 157 -113 291 -138 63 -12 132 -24 153 -27 20 -3 37 -10 37 -15 0
-12 -25 -9 -162 20 -99 20 -148 19 -148 -3 0 -7 -23 -21 -52 -31 -35 -13 -58
-29 -72 -51 -17 -26 -33 -35 -86 -48 -40 -10 -76 -26 -92 -42 -15 -15 -31 -23
-35 -19 -10 10 55 63 87 71 90 22 100 27 114 54 10 19 31 34 68 48 70 27 72
45 8 78 -45 23 -160 116 -168 137 -9 22 22 3 57 -34z m3831 12 c0 -21 -16 -28
-22 -9 -5 14 -114 -15 -135 -37 -8 -8 -19 -14 -24 -14 -16 0 -10 15 11 28 11
7 20 19 20 27 0 8 5 15 10 15 6 0 10 -4 10 -9 0 -6 19 -4 43 4 64 20 87 19 87
-5z m1530 10 c0 -5 -11 -12 -25 -16 -14 -3 -25 -10 -25 -15 0 -5 -4 -9 -10 -9
-24 0 -7 30 23 39 17 5 33 10 35 10 1 1 2 -3 2 -9z m-4494 -44 c33 -24 79 -59
104 -79 29 -23 48 -33 54 -27 17 17 29 11 23 -10 -4 -16 4 -27 35 -46 55 -35
41 -42 -19 -10 -36 20 -55 24 -76 18 -25 -7 -287 5 -296 14 -13 12 19 13 136
5 127 -10 178 -7 167 10 -13 22 -180 143 -212 155 l-37 13 31 1 c22 0 50 -13
90 -44z m1976 22 c-7 -7 -12 -8 -12 -2 0 14 12 26 19 19 2 -3 -1 -11 -7 -17z
m1670 0 c3 -7 22 -11 51 -10 l47 3 0 -35 c0 -19 3 -42 7 -52 5 -14 2 -16 -23
-11 -25 5 -124 36 -132 42 -5 4 32 75 39 75 4 0 9 -5 11 -12z m-2213 -24 c2
-2 2 -7 -2 -10 -9 -9 -57 5 -57 16 0 9 47 4 59 -6z m1491 8 c0 -4 -4 -12 -10
-18 -5 -5 -19 -27 -29 -49 -17 -34 -20 -36 -21 -16 0 26 36 91 51 91 5 0 9 -4
9 -8z m-1334 -17 c-3 -9 0 -15 8 -15 8 0 17 8 21 18 5 12 13 -4 25 -53 11 -38
19 -75 19 -81 1 -6 -18 -11 -41 -12 -23 -1 -50 -5 -60 -8 -16 -5 -16 -3 -3 23
9 16 11 31 5 37 -5 5 -4 16 3 27 9 15 9 23 0 38 -9 14 -9 21 0 30 16 16 30 14
23 -4z m-91 -5 c-3 -5 -12 -10 -20 -10 -8 0 -17 5 -20 10 -4 6 5 10 20 10 15
0 24 -4 20 -10z m-2572 -40 c-3 -11 -9 -20 -14 -20 -11 0 -11 3 -3 24 9 23 23
20 17 -4z m4257 -20 c18 -22 45 -47 60 -55 16 -8 31 -23 34 -33 4 -10 19 -25
34 -33 15 -7 38 -22 52 -32 43 -32 90 -47 149 -47 45 -1 52 -3 37 -11 -24 -14
-104 -7 -142 13 -16 9 -47 25 -69 37 -22 12 -54 37 -72 56 -18 19 -38 35 -45
35 -11 1 -75 77 -86 102 -10 23 21 3 48 -32z m950 31 c0 -5 13 -23 29 -40 17
-18 25 -34 19 -37 -10 -6 -57 42 -58 59 0 4 -11 7 -25 7 -35 0 -31 15 5 18 17
1 30 -2 30 -7z m-5160 -16 c14 -16 10 -18 -14 -9 -9 3 -16 10 -16 15 0 14 16
11 30 -6z m3750 0 c0 -8 -8 -15 -17 -15 -37 0 -46 -15 -29 -47 16 -32 48 -47
64 -31 11 11 52 -7 52 -23 0 -6 -7 -6 -19 1 -15 8 -28 4 -60 -16 -36 -24 -39
-30 -34 -57 4 -21 3 -28 -5 -23 -8 5 -12 -1 -13 -16 -1 -31 -34 -105 -41 -92
-3 5 0 27 8 49 16 47 18 81 4 90 -16 10 -12 28 4 22 10 -4 13 -1 9 9 -3 9 2
14 17 14 17 0 21 5 18 23 -2 12 -9 21 -16 19 -8 -1 -11 2 -8 7 13 20 -5 37
-32 33 -29 -4 -62 21 -43 32 5 4 12 2 16 -4 3 -5 13 -10 21 -10 11 0 13 6 9
20 -3 11 -2 20 3 20 6 0 12 -5 14 -11 2 -7 15 -6 38 4 19 9 36 16 38 16 1 1 2
-6 2 -14z m-3690 -5 c0 -5 -10 -10 -22 -10 -19 0 -20 2 -8 10 19 13 30 13 30
0z m5193 -10 c-3 -11 -9 -20 -14 -20 -11 0 -11 3 -3 24 9 23 23 20 17 -4z
m-5382 -47 c-10 -17 -10 -16 -11 3 0 23 13 41 18 25 2 -6 -1 -18 -7 -28z m59
22 c0 -8 -7 -15 -16 -15 -14 0 -14 3 -4 15 7 8 14 15 16 15 2 0 4 -7 4 -15z
m4965 -34 c70 -28 187 -61 218 -61 9 0 17 -5 17 -11 0 -16 -77 -3 -165 26
-100 34 -145 54 -145 65 0 13 -6 14 75 -19z m-1295 -16 c-6 -8 -31 -25 -55
-39 -47 -28 -135 -120 -135 -142 0 -8 -6 -14 -14 -14 -8 0 -27 -13 -43 -29
-16 -16 -48 -38 -72 -51 -24 -12 -46 -30 -48 -41 -3 -11 -14 -19 -25 -19 -24
0 -138 -113 -138 -138 0 -24 -220 -97 -268 -89 -19 3 -36 8 -40 11 -3 3 -16
-20 -29 -52 -22 -53 -23 -61 -12 -112 14 -59 57 -112 108 -132 24 -9 30 -5 66
36 22 26 46 46 54 46 10 0 4 -11 -15 -32 -16 -17 -23 -28 -16 -24 6 4 12 2 12
-4 0 -7 14 0 31 14 31 27 47 30 87 20 26 -7 30 -41 6 -59 -15 -10 -13 -17 20
-62 20 -28 36 -55 36 -62 0 -16 -17 -14 -24 4 -3 8 -16 15 -30 15 -13 0 -26 5
-28 11 -3 9 -142 57 -169 59 -4 0 -9 -9 -12 -21 -4 -13 5 -31 25 -55 17 -19
27 -38 23 -42 -4 -4 -27 16 -51 43 -45 52 -55 71 -30 62 12 -5 33 21 24 28 -8
7 -74 39 -80 40 -13 0 -44 67 -58 120 -12 46 -11 54 9 93 25 49 35 116 21 140
-7 14 -9 10 -10 -17 l0 -35 -19 21 c-21 23 -89 48 -158 58 -25 4 -43 12 -43
20 0 14 -122 62 -187 74 -29 5 -54 3 -85 -9 -45 -16 -148 -16 -148 1 0 5 20 9
45 9 l45 0 0 51 c0 48 -1 51 -37 66 -29 12 -41 13 -56 3 -24 -15 -35 -4 -16
15 12 12 22 13 54 4 61 -17 75 -34 75 -92 0 -47 1 -49 23 -42 66 20 112 17
192 -14 44 -17 88 -31 97 -31 10 0 18 -6 18 -14 0 -15 21 -26 53 -26 20 -1 59
-13 108 -34 12 -5 18 -1 21 18 5 24 3 26 -33 26 -28 0 -39 4 -39 15 0 8 -10
16 -22 16 -13 1 -32 2 -42 3 -11 1 -21 7 -24 14 -3 10 5 12 34 7 58 -10 74
-15 74 -26 0 -5 18 -9 40 -9 31 0 40 -4 40 -17 0 -14 4 -13 24 6 18 17 40 24
90 28 45 3 66 2 66 -6 0 -6 -17 -11 -37 -12 -82 -2 -119 -30 -66 -50 37 -14
87 -3 120 26 23 20 25 24 11 25 -28 0 -21 20 7 20 14 0 25 -5 25 -11 0 -6 11
-4 28 5 15 8 65 33 112 56 172 85 252 139 315 212 58 67 145 136 174 137 11 1
11 -2 1 -14z m1644 -56 c-9 -10 -24 -15 -35 -12 -20 5 -27 23 -9 23 6 0 10 6
10 14 0 11 5 12 24 3 22 -11 23 -14 10 -28z m-1413 -32 c0 -7 4 -3 8 8 6 16
12 6 30 -47 13 -40 27 -65 34 -63 57 19 152 45 162 45 6 0 42 -23 79 -51 52
-39 75 -50 106 -52 22 -1 40 -4 40 -7 0 -11 70 -40 96 -40 17 0 24 -4 21 -13
-7 -18 271 -186 348 -212 50 -16 56 -20 33 -23 -16 -2 -28 -10 -28 -18 0 -16
-2 -16 -24 -8 -8 3 -13 11 -10 18 3 7 -9 17 -28 23 l-33 10 3 -39 c3 -23 0
-38 -7 -38 -6 0 -11 17 -11 40 0 28 -7 45 -22 61 -33 30 -105 79 -117 79 -6 0
-11 5 -11 11 0 6 -7 8 -16 5 -8 -3 -13 -2 -9 3 6 10 -94 71 -115 71 -7 0 -46
-16 -87 -36 -46 -22 -81 -33 -94 -29 -10 4 -17 11 -13 16 3 5 9 7 14 4 7 -4
147 48 158 59 2 3 -10 12 -27 21 -17 9 -31 11 -31 5 0 -5 -4 -10 -10 -10 -5 0
-10 6 -10 14 0 9 -17 16 -45 20 -25 4 -45 11 -45 15 0 14 -90 72 -102 65 -7
-4 -8 -3 -4 4 10 17 -5 15 -91 -10 -41 -12 -77 -28 -80 -35 -8 -21 -25 -15
-18 7 4 14 2 20 -8 20 -8 0 -22 21 -32 48 -10 26 -24 54 -31 63 -8 8 -14 19
-14 23 0 12 40 -14 41 -27z m1641 10 c-8 -10 -5 -13 15 -12 14 0 28 -6 30 -13
3 -8 -4 -11 -19 -10 -17 2 -24 -3 -26 -21 -2 -13 2 -27 8 -31 21 -13 -1 -32
-31 -28 -16 3 -29 1 -29 -3 0 -8 -31 -22 -36 -16 -9 9 38 46 51 41 8 -4 15 -1
15 5 0 6 -4 11 -10 11 -16 0 -11 30 6 37 8 3 13 12 10 20 -7 17 1 33 16 33 7
0 7 -4 0 -13z m-302 -67 c0 -5 -13 -10 -30 -10 -16 0 -30 5 -30 10 0 6 14 10
30 10 17 0 30 -4 30 -10z m-3345 -51 c41 -22 73 -44 70 -49 -5 -9 -106 40
-145 70 -42 33 -3 22 75 -21z m3073 4 c13 -15 32 -39 44 -53 12 -14 26 -37 32
-51 13 -31 9 -119 -6 -119 -6 0 -7 15 -3 38 8 48 -6 83 -56 143 -40 48 -102
78 -135 65 -7 -3 -16 0 -20 6 -5 8 11 9 57 5 54 -5 67 -10 87 -34z m-4310 2
c2 -2 -6 -13 -18 -25 -12 -12 -19 -27 -17 -33 2 -7 -10 -16 -27 -22 -23 -7
-32 -17 -34 -37 -2 -20 -9 -28 -23 -28 -18 0 -18 1 -2 35 9 19 20 35 24 35 4
0 9 9 12 20 6 22 27 28 27 8 0 -9 3 -8 10 2 5 9 5 17 -1 21 -5 3 -7 13 -3 23
4 12 13 15 28 10 11 -4 23 -8 24 -9z m3242 -45 c0 -11 -4 -20 -10 -20 -5 0
-10 9 -10 20 0 11 5 20 10 20 6 0 10 -9 10 -20z m1520 -5 c-7 -9 -15 -13 -18
-10 -3 2 1 11 8 20 7 9 15 13 18 10 3 -2 -1 -11 -8 -20z m656 13 c-1 -7 -27
-40 -57 -73 -31 -33 -76 -85 -101 -115 -47 -58 -98 -93 -162 -111 -22 -6 -56
-22 -75 -35 -36 -24 -61 -31 -61 -16 0 9 71 47 83 44 4 -1 7 2 7 7 0 5 15 13
33 16 49 11 103 41 126 72 36 47 196 222 203 223 3 0 5 -6 4 -12z m-2252 -39
c10 -53 58 -149 73 -149 11 0 14 9 11 35 -2 22 0 34 6 32 15 -5 20 -55 8 -70
-7 -8 -3 -17 14 -30 13 -10 24 -13 24 -8 0 13 40 35 48 27 3 -4 -4 -13 -16
-22 -12 -8 -22 -24 -22 -35 0 -12 -7 -19 -20 -19 -12 0 -20 6 -19 13 3 26 -1
37 -15 37 -8 0 -18 -4 -21 -10 -3 -5 0 -8 7 -5 10 4 13 -12 14 -67 1 -40 5
-133 9 -205 6 -98 5 -133 -4 -133 -7 0 -11 27 -11 83 0 93 -22 268 -43 342
-19 67 -57 159 -67 165 -11 7 -2 50 10 50 4 0 10 -14 14 -31z m166 1 c0 -5 -7
-10 -15 -10 -10 0 -15 -10 -15 -31 0 -25 6 -32 34 -44 19 -8 38 -20 41 -26 9
-13 -4 -27 -13 -14 -4 6 -24 18 -46 28 -37 17 -38 20 -33 54 6 33 20 52 40 53
4 0 7 -4 7 -10z m-2650 -10 c0 -5 -5 -10 -11 -10 -5 0 -7 5 -4 10 3 6 8 10 11
10 2 0 4 -4 4 -10z m2090 -10 c6 -11 20 -20 31 -20 11 0 17 -4 14 -10 -10 -17
-36 -11 -56 13 -20 22 -20 22 -10 0 14 -29 14 -33 -4 -33 -20 0 -32 50 -14 61
21 13 27 11 39 -11z m230 -36 c0 -8 -4 -12 -10 -9 -5 3 -10 10 -10 16 0 5 5 9
10 9 6 0 10 -7 10 -16z m-3141 -40 c1 -16 -23 -24 -39 -14 -11 7 -10 11 3 25
10 9 17 22 18 28 1 14 17 -22 18 -39z m3121 27 c0 -6 -4 -13 -10 -16 -5 -3
-10 1 -10 9 0 9 5 16 10 16 6 0 10 -4 10 -9z m1795 -2 c11 -17 0 -20 -21 -4
-17 13 -17 14 -2 15 9 0 20 -5 23 -11z m-55 -14 c-7 -9 -15 -13 -17 -11 -7 7
7 26 19 26 6 0 6 -6 -2 -15z m-48 -37 c-6 -6 -15 -8 -19 -4 -4 4 -1 11 7 16
19 12 27 3 12 -12z m-4845 -10 c-2 -7 -10 -12 -16 -10 -6 1 -11 -5 -11 -13 0
-8 -4 -15 -10 -15 -14 0 -12 37 3 43 23 10 39 7 34 -5z m1758 -8 c3 -5 -3 -10
-14 -10 -12 0 -21 5 -21 10 0 6 6 10 14 10 8 0 18 -4 21 -10z m1595 -32 c0
-14 -18 -9 -24 8 -11 28 -6 39 9 20 8 -11 15 -23 15 -28z m1450 31 c0 -5 -12
-9 -27 -9 -14 0 -34 -6 -42 -14 -9 -7 -29 -18 -46 -23 -21 -7 -32 -19 -39 -41
-10 -35 -26 -43 -26 -13 0 24 37 71 57 71 8 0 25 8 38 18 25 20 85 27 85 11z
m-4870 -40 c-9 -15 -13 -17 -25 -7 -12 11 -11 15 2 25 22 17 35 6 23 -18z
m1880 -1 c0 -6 -7 -5 -15 2 -8 7 -15 17 -15 22 0 6 7 5 15 -2 8 -7 15 -17 15
-22z m1850 -13 c31 -16 37 -29 19 -40 -6 -4 -7 -19 -4 -36 4 -16 4 -37 0 -48
-7 -24 -36 -36 -47 -19 -6 10 -8 8 -8 -4 0 -10 -4 -18 -10 -18 -5 0 -10 4 -10
10 0 6 -9 6 -26 0 -31 -12 -48 2 -52 44 -3 23 4 37 32 62 20 18 36 40 36 48 0
20 32 20 70 1z m1950 5 c0 -5 -10 -10 -22 -10 -19 0 -20 2 -8 10 19 13 30 13
30 0z m53 3 c-7 -2 -19 -2 -25 0 -7 3 -2 5 12 5 14 0 19 -2 13 -5z m-3833 -29
c0 -8 -4 -12 -10 -9 -5 3 -10 10 -10 16 0 5 5 9 10 9 6 0 10 -7 10 -16z m3870
-10 c0 -8 -4 -14 -10 -14 -5 0 -10 9 -10 21 0 11 5 17 10 14 6 -3 10 -13 10
-21z m-4088 -104 c6 0 4 -8 -5 -18 -10 -10 -17 -26 -17 -35 0 -12 -9 -17 -29
-17 -33 0 -81 -40 -81 -69 0 -25 -10 -51 -20 -51 -4 0 -4 19 1 43 10 47 59 97
95 97 18 0 21 6 22 48 1 26 5 65 9 87 8 39 8 38 11 -22 2 -38 7 -63 14 -63z
m518 63 c0 -30 -13 -38 -58 -39 l-43 0 3 35 c3 31 7 35 31 37 15 0 30 4 33 7
10 9 34 -19 34 -40z m-1305 27 c-3 -5 -13 -10 -21 -10 -8 0 -14 5 -14 10 0 6
9 10 21 10 11 0 17 -4 14 -10z m3905 -10 c-36 -12 -60 -12 -60 0 0 6 19 10 43
9 36 -1 38 -2 17 -9z m-3966 -24 c-6 -16 -24 -23 -24 -8 0 10 22 33 27 28 2
-2 1 -11 -3 -20z m-1628 -15 c-3 -4 -19 -11 -35 -14 -21 -4 -30 -13 -33 -29
-3 -25 -30 -35 -96 -37 -41 -1 -92 -30 -152 -84 -20 -18 -58 -28 -66 -16 -3 5
1 9 8 9 8 0 48 25 90 55 67 48 82 55 125 55 53 0 66 6 76 33 7 18 39 35 70 36
10 1 16 -3 13 -8z m2534 -16 c-7 -8 -20 -15 -29 -15 -13 1 -13 3 3 15 26 19
42 19 26 0z m-377 -12 c-7 -2 -21 -2 -30 0 -10 3 -4 5 12 5 17 0 24 -2 18 -5z
m3677 -62 c0 -5 -35 -21 -78 -35 -86 -29 -92 -30 -92 -16 0 5 35 20 78 34 90
28 92 29 92 17z m-3857 -34 c3 -9 16 -12 35 -9 25 3 31 0 37 -20 9 -28 23 -38
53 -38 17 0 22 -6 22 -25 0 -14 5 -25 10 -25 6 0 10 -4 10 -10 0 -5 -13 -7
-30 -3 -19 3 -30 1 -30 -6 0 -6 -12 -11 -26 -11 -21 0 -25 -3 -19 -17 9 -22
18 -73 9 -55 -3 6 -12 12 -21 12 -10 0 -12 6 -8 20 4 12 1 22 -7 25 -7 3 -14
21 -15 41 -1 20 -8 43 -16 53 -8 9 -18 26 -21 39 -8 26 -21 27 -58 8 -23 -12
-27 -12 -32 0 -3 9 4 16 22 20 15 3 32 7 37 9 23 8 43 4 48 -8z m3621 -28
c-18 -20 -54 -26 -54 -9 0 6 9 10 20 10 11 0 23 7 26 15 4 8 10 12 16 9 5 -3
2 -14 -8 -25z m385 -18 c-37 -50 -167 -186 -173 -181 -3 3 38 54 91 113 53 59
98 106 100 103 3 -2 -5 -18 -18 -35z m-539 19 c0 -5 -2 -10 -4 -10 -3 0 -8 5
-11 10 -3 6 -1 10 4 10 6 0 11 -4 11 -10z m280 -31 c0 -10 -31 -16 -52 -11
-30 7 -20 18 17 18 19 0 35 -3 35 -7z m-818 -153 c10 -7 15 -15 12 -18 -7 -8
-64 14 -64 24 0 13 33 9 52 -6z m-602 -10 c0 -8 -4 -18 -10 -21 -5 -3 -10 3
-10 14 0 12 5 21 10 21 6 0 10 -6 10 -14z m-1174 -21 c-5 -18 2 -36 24 -66 33
-45 33 -57 2 -40 -17 9 -20 7 -26 -21 -8 -42 -8 -113 2 -122 4 -4 7 -21 7 -37
0 -16 -3 -29 -7 -29 -5 0 -8 -7 -8 -16 0 -26 -58 -121 -88 -143 -26 -19 -26
-19 -8 -40 22 -25 11 -28 -15 -5 -17 15 -23 13 -93 -30 -73 -46 -75 -47 -69
-81 l6 -35 -47 0 c-27 0 -45 -4 -41 -9 3 -6 -3 -15 -14 -20 -26 -14 -31 -14
-25 3 11 30 -20 29 -47 -2 -15 -17 -45 -40 -67 -51 -21 -11 -50 -31 -63 -45
-13 -14 -30 -26 -36 -26 -7 0 -13 -6 -13 -14 0 -11 -68 -93 -192 -230 -10 -11
-21 -17 -24 -13 -4 4 24 41 62 83 117 130 134 152 134 168 0 9 6 16 13 16 8 0
22 10 33 21 10 12 43 35 72 51 29 17 57 38 62 49 6 10 26 25 44 34 19 9 49 31
67 49 19 18 54 44 79 58 25 15 69 47 98 72 36 30 63 46 81 46 22 0 32 9 51 42
13 24 19 43 13 45 -13 5 -4 53 9 53 7 0 8 23 4 63 -5 40 -3 82 5 112 11 42 10
50 -3 58 -12 8 -13 17 -5 44 12 38 32 46 23 8z m1098 -67 c-6 -77 -21 -138
-35 -138 -5 0 -7 -11 -3 -24 9 -39 -5 -65 -43 -81 -44 -19 -43 -19 -44 3 0 10
-3 12 -6 5 -2 -7 -11 -13 -19 -13 -12 0 -12 4 1 24 32 49 25 101 -19 138 -14
12 -17 20 -10 25 19 14 25 43 9 49 -8 4 -15 9 -15 13 0 17 63 42 115 45 31 2
59 7 62 10 11 11 11 7 7 -56z m64 -197 c-3 -214 -8 -280 -21 -260 -8 13 6 509
15 509 6 0 9 -87 6 -249z m392 242 c0 -5 -14 -16 -30 -25 -24 -14 -30 -14 -30
-3 0 11 19 22 58 34 1 1 2 -2 2 -6z m-3540 -46 c0 -2 -19 -21 -42 -42 l-43
-40 40 43 c36 39 45 47 45 39z m5210 -42 c-7 -8 -17 -15 -22 -15 -6 0 -5 7 2
15 7 8 17 15 22 15 6 0 5 -7 -2 -15z m-181 -81 c2 -72 11 -103 30 -97 14 5 13
3 -2 -15 -14 -15 -17 -29 -12 -51 8 -38 17 -38 61 -5 19 15 38 24 41 20 4 -3
-2 -13 -13 -20 -10 -8 -29 -22 -42 -32 l-23 -19 26 -90 c30 -103 45 -131 77
-140 36 -10 72 -29 84 -44 18 -23 34 -3 34 43 0 23 7 51 15 62 13 17 14 15 9
-31 -9 -85 -13 -94 -40 -101 -22 -6 -25 -11 -20 -35 3 -16 1 -29 -4 -29 -6 0
-10 4 -10 9 0 5 -20 24 -45 42 -24 19 -45 37 -45 42 0 4 -11 24 -25 45 -13 20
-34 74 -45 118 -11 45 -27 94 -35 110 -8 16 -15 37 -15 48 0 15 -3 16 -15 6
-9 -8 -15 -9 -15 -2 0 6 5 14 11 18 7 4 9 44 5 123 -3 71 -2 106 3 91 5 -14 9
-44 10 -66z m-2643 14 c11 -66 184 -569 204 -593 13 -16 -6 -33 -21 -18 -5 5
-50 128 -100 274 -50 145 -94 266 -97 269 -10 7 -13 130 -4 130 4 0 13 -28 18
-62z m2784 17 c-7 -9 -15 -13 -18 -10 -3 2 1 11 8 20 7 9 15 13 18 10 3 -2 -1
-11 -8 -20z m-40 -50 c-7 -9 -15 -13 -18 -10 -3 2 1 11 8 20 7 9 15 13 18 10
3 -2 -1 -11 -8 -20z m-2207 -28 c-3 -4 -11 -3 -19 4 -7 6 -11 15 -8 20 3 5 11
3 18 -4 8 -6 12 -16 9 -20z m1887 2 c5 -20 7 -21 13 -6 10 26 67 24 67 -3 0
-13 7 -20 20 -20 11 0 20 -4 20 -10 0 -5 -9 -10 -20 -10 -11 0 -20 -7 -20 -15
0 -9 10 -15 26 -15 14 0 23 -4 19 -10 -3 -5 -19 -10 -35 -10 -22 0 -33 -7 -44
-28 -13 -25 -12 -30 4 -52 19 -26 12 -40 -20 -40 -13 0 -13 2 -1 9 12 8 12 12
2 25 -7 8 -19 12 -27 9 -8 -3 -14 -1 -14 5 0 6 4 12 10 14 13 4 -21 78 -36 78
-7 0 -12 10 -11 23 0 12 -4 31 -8 41 -7 16 -5 18 9 13 14 -5 16 -3 11 12 -4
15 -1 19 12 17 10 -2 20 -14 23 -27z m-2240 2 c0 -5 -21 -16 -46 -25 -54 -18
-58 0 -3 20 43 16 49 16 49 5z m2530 -16 c-7 -8 -17 -15 -22 -15 -6 0 -5 7 2
15 7 8 17 15 22 15 6 0 5 -7 -2 -15z m-540 -9 c0 -8 -5 -18 -10 -21 -6 -4 -8
-15 -5 -26 4 -11 2 -19 -4 -19 -18 0 -12 -18 7 -23 16 -4 16 -4 -1 -12 -14 -6
-25 -1 -42 19 -12 14 -27 26 -34 26 -24 0 -9 25 16 27 16 0 34 10 42 22 16 24
31 27 31 7z m-121 -9 c6 -8 8 -17 5 -20 -7 -7 -44 14 -44 25 0 13 27 9 39 -5z
m-579 -17 c0 -5 -9 -10 -19 -10 -11 0 -23 5 -26 10 -4 6 5 10 19 10 14 0 26
-4 26 -10z m45 -38 c-10 -11 -35 9 -35 29 l0 22 20 -23 c11 -13 18 -25 15 -28z
m28 19 c6 -24 70 -53 95 -44 15 6 15 4 4 -9 -11 -14 -10 -17 7 -23 12 -3 21
-11 21 -16 0 -14 -5 -12 -53 21 -25 17 -52 30 -61 30 -15 0 -36 28 -36 49 0
19 17 12 23 -8z m-328 -10 c17 -7 15 -11 -20 -33 -22 -15 -56 -29 -75 -33
l-35 -8 43 42 c43 42 52 45 87 32z m505 -50 c0 -11 -4 -23 -10 -26 -5 -3 -10
-1 -10 6 0 6 -8 18 -17 25 -16 12 -15 13 10 14 20 0 27 -5 27 -19z m50 -26 c0
-13 5 -25 12 -27 16 -6 2 -38 -16 -38 -10 0 -13 9 -11 29 2 18 -2 34 -11 41
-20 18 -17 29 6 23 13 -3 20 -14 20 -28z m155 18 c8 -11 10 -25 4 -39 -11 -32
-41 -64 -51 -57 -5 3 -1 14 9 26 10 11 12 17 6 13 -7 -4 -13 -3 -13 3 0 5 9
12 20 16 16 5 18 9 7 26 -19 30 -36 22 -43 -21 -4 -22 -10 -40 -15 -40 -5 0
-9 4 -9 9 0 5 -9 7 -20 4 -21 -6 -26 10 -14 41 9 23 26 20 19 -4 -10 -30 2
-24 20 10 18 35 60 41 80 13z m-345 -7 c0 -8 -4 -18 -10 -21 -5 -3 -10 3 -10
14 0 12 5 21 10 21 6 0 10 -6 10 -14z m1015 -15 c-3 -6 -11 -11 -17 -11 -6 0
-6 6 2 15 14 17 26 13 15 -4z m-1055 -5 c0 -2 -9 -6 -20 -9 -11 -3 -20 -1 -20
4 0 5 9 9 20 9 11 0 20 -2 20 -4z m-1890 -16 c0 -5 -6 -10 -12 -10 -7 0 -25
-7 -40 -14 -22 -12 -28 -12 -28 -2 0 14 35 34 63 35 9 1 17 -3 17 -9z m2080
-10 c0 -5 -9 -10 -19 -10 -11 0 -23 5 -26 10 -4 6 5 10 19 10 14 0 26 -4 26
-10z m830 -15 c-7 -8 -17 -15 -22 -15 -6 0 -5 7 2 15 7 8 17 15 22 15 6 0 5
-7 -2 -15z m-1081 -65 c10 0 24 -7 31 -15 10 -12 16 -13 26 -4 11 9 14 8 14
-6 0 -14 3 -15 15 -5 10 8 15 9 15 2 0 -6 7 -9 16 -5 12 4 15 2 12 -8 -2 -8
-15 -16 -29 -17 -13 -2 -34 -13 -46 -25 -27 -24 -31 -12 -5 16 9 11 11 17 4
13 -9 -5 -19 0 -29 14 l-16 23 -14 -27 c-8 -15 -18 -24 -24 -21 -5 4 -7 10 -4
15 3 5 -4 23 -16 40 -13 16 -19 33 -15 37 4 4 11 1 15 -6 7 -10 11 -8 17 10
l9 24 3 -27 c2 -19 9 -28 21 -28z m1041 15 c-7 -9 -15 -13 -18 -10 -3 2 1 11
8 20 7 9 15 13 18 10 3 -2 -1 -11 -8 -20z m-4528 -45 c-4 -29 -2 -31 19 -28
16 2 25 11 27 26 5 34 22 26 22 -10 0 -18 3 -43 6 -55 4 -13 2 -23 -4 -23 -5
0 -12 9 -15 20 -4 15 -14 20 -42 20 -37 0 -37 1 -31 31 3 17 6 38 6 46 0 8 4
12 8 9 5 -3 7 -19 4 -36z m4488 -5 c-7 -9 -15 -13 -18 -10 -3 2 1 11 8 20 7 9
15 13 18 10 3 -2 -1 -11 -8 -20z m-1052 -38 c2 -12 -3 -17 -17 -17 -23 0 -24
1 -15 25 8 19 28 15 32 -8z m1022 -2 c-7 -8 -17 -15 -22 -15 -6 0 -5 7 2 15 7
8 17 15 22 15 6 0 5 -7 -2 -15z m-956 -11 c9 -22 -3 -32 -14 -14 -12 19 -12
30 -1 30 5 0 12 -7 15 -16z m92 -22 c-9 -8 -26 10 -26 26 1 15 2 15 15 -2 8
-11 13 -21 11 -24z m-199 -12 c13 -33 0 -41 -17 -10 -7 13 -16 17 -28 13 -15
-6 -15 -5 -3 10 20 25 35 21 48 -13z m-1159 -37 c-1 -34 8 -78 31 -146 19 -53
31 -100 27 -104 -9 -9 -10 -7 -48 107 -25 76 -34 117 -30 148 6 58 24 53 20
-5z m2182 32 c-7 -9 -15 -13 -17 -11 -7 7 7 26 19 26 6 0 6 -6 -2 -15z m-1606
-11 c4 -10 1 -14 -6 -12 -15 5 -23 28 -10 28 5 0 13 -7 16 -16z m-5404 -4 c0
-5 -9 -10 -21 -10 -11 0 -29 -5 -40 -11 -11 -6 -25 -8 -32 -6 -14 5 50 36 76
37 9 0 17 -4 17 -10z m2535 0 c3 -5 -1 -10 -9 -10 -8 0 -18 5 -21 10 -3 6 1
10 9 10 8 0 18 -4 21 -10z m4435 -35 c-7 -9 -15 -13 -18 -10 -3 2 1 11 8 20 7
9 15 13 18 10 3 -2 -1 -11 -8 -20z m-514 -23 c-4 -12 5 -29 28 -51 22 -22 37
-47 41 -71 5 -32 13 -40 46 -55 21 -10 39 -22 39 -27 0 -12 -6 -10 -50 12 -29
15 -42 29 -49 54 -5 19 -24 53 -42 76 -27 33 -38 40 -58 36 -15 -3 -45 -8 -68
-11 -27 -4 -43 -12 -43 -21 0 -8 -4 -14 -10 -14 -12 0 -13 20 -2 36 4 6 33 14
66 18 32 3 68 13 79 21 27 19 30 19 23 -3z m479 -21 c-3 -6 -11 -11 -17 -11
-6 0 -6 6 2 15 14 17 26 13 15 -4z m-3479 -18 c-8 -8 -36 5 -36 17 0 7 6 7 21
0 11 -7 18 -14 15 -17z m2814 8 c0 -12 -20 -25 -27 -18 -7 7 6 27 18 27 5 0 9
-4 9 -9z m-2760 -21 c0 -13 -11 -13 -30 0 -12 8 -11 10 8 10 12 0 22 -4 22
-10z m1085 -11 c16 -16 -90 -10 -111 6 -17 13 -14 14 41 9 33 -4 64 -10 70
-15z m-1034 -5 c12 -14 11 -16 -5 -13 -11 2 -21 10 -24 17 -5 17 13 15 29 -4z
m3339 1 c-7 -8 -17 -15 -22 -15 -6 0 -5 7 2 15 7 8 17 15 22 15 6 0 5 -7 -2
-15z m-673 -25 c0 -33 -11 -40 -21 -14 -4 9 -1 23 5 30 15 19 16 18 16 -16z
m143 10 c0 -6 6 -10 13 -9 28 3 39 -2 33 -16 -3 -8 -1 -15 4 -15 17 0 22 -42
7 -57 -13 -13 -17 -12 -40 11 -14 14 -35 26 -47 26 -11 0 -20 5 -20 11 0 7 10
9 25 7 29 -6 32 0 8 17 -9 7 -13 17 -9 23 9 15 26 16 26 2z m-84 -37 c-11 -11
-17 4 -9 23 7 18 8 18 11 1 2 -10 1 -21 -2 -24z m574 2 c-7 -9 -15 -13 -18
-10 -3 2 1 11 8 20 7 9 15 13 18 10 3 -2 -1 -11 -8 -20z m-945 -5 c-20 -22
-35 -26 -35 -10 0 6 10 15 23 20 32 13 32 12 12 -10z m273 -5 c0 -14 -4 -25
-7 -25 -14 0 -29 23 -24 36 9 23 31 16 31 -11z m-4768 -9 c0 -2 -8 -10 -17
-17 -16 -13 -17 -12 -4 4 13 16 21 21 21 13z m4460 -38 c0 -12 -3 -18 -7 -15
-3 4 -12 2 -20 -4 -17 -15 -18 4 -1 30 14 24 28 18 28 -11z m260 23 c0 -12
-20 -25 -27 -18 -7 7 6 27 18 27 5 0 9 -4 9 -9z m140 -28 c0 -23 5 -33 15 -33
8 0 15 -9 15 -20 0 -11 -4 -20 -10 -20 -5 0 -10 5 -10 10 0 6 -9 10 -20 10
-11 0 -20 5 -20 10 0 6 6 10 13 10 7 0 8 3 2 8 -6 4 -16 19 -22 33 -11 25 -10
27 13 25 20 -1 24 -6 24 -33z m540 12 c-7 -9 -15 -13 -18 -10 -3 2 1 11 8 20
7 9 15 13 18 10 3 -2 -1 -11 -8 -20z m-593 -35 c17 -1 16 -2 -1 -15 -18 -14
-21 -13 -32 12 -6 16 -9 32 -6 37 3 5 9 0 13 -12 5 -12 16 -22 26 -22z m-277
-10 c-36 -27 -100 -33 -100 -9 0 5 17 9 38 9 20 0 46 7 56 15 11 8 22 12 25 9
3 -3 -5 -14 -19 -24z m137 13 c-9 -9 -19 -14 -23 -11 -10 10 6 28 24 28 15 0
15 -1 -1 -17z m-645 -28 c4 -16 1 -24 -6 -22 -6 2 -12 16 -14 31 -4 35 14 26
20 -9z m1348 20 c-7 -8 -17 -15 -22 -15 -6 0 -5 7 2 15 7 8 17 15 22 15 6 0 5
-7 -2 -15z m-753 -32 c-14 -14 -18 -14 -33 -2 -16 13 -15 14 12 20 37 7 42 3
21 -18z m713 -18 c-7 -9 -15 -13 -17 -11 -7 7 7 26 19 26 6 0 6 -6 -2 -15z
m-860 0 c0 -10 -13 -35 -19 -35 -3 0 -11 8 -18 19 -10 16 -9 19 13 19 13 0 24
-2 24 -3z m37 -32 c-9 -9 -20 -13 -24 -9 -4 4 1 14 11 22 25 18 35 8 13 -13z
m783 -18 c-7 -9 -15 -13 -18 -10 -3 2 1 11 8 20 7 9 15 13 18 10 3 -2 -1 -11
-8 -20z m-60 -70 c-7 -8 -17 -15 -22 -15 -6 0 -5 7 2 15 7 8 17 15 22 15 6 0
5 -7 -2 -15z m-30 -34 c0 -5 -7 -14 -15 -21 -12 -10 -15 -10 -15 2 0 8 3 18 7
21 9 10 23 9 23 -2z m-4889 -54 c-16 -16 -26 0 -10 19 9 11 15 12 17 4 2 -6
-1 -17 -7 -23z m4837 -7 c-13 -21 -48 -28 -48 -10 0 6 9 10 20 10 11 0 20 5
20 10 0 6 5 10 10 10 6 0 5 -8 -2 -20z m-4868 -25 c-7 -8 -17 -15 -22 -15 -6
0 -5 7 2 15 7 8 17 15 22 15 6 0 5 -7 -2 -15z"/>
<path d="M4433 6634 c-8 -23 3 -28 27 -11 l21 14 -21 6 c-13 3 -23 0 -27 -9z"/>
<path d="M5210 6289 c0 -21 21 -59 37 -67 29 -16 153 -26 153 -13 0 17 -53 48
-58 33 -2 -6 -8 -12 -13 -12 -6 0 -6 7 0 19 8 13 7 22 -2 29 -15 12 -117 22
-117 11z"/>
<path d="M6623 6182 c-58 -23 -63 -27 -63 -57 0 -17 -6 -37 -12 -44 -11 -10 1
-12 60 -9 l72 2 0 43 c0 32 4 43 15 43 9 0 15 9 15 25 0 30 -8 30 -87 -3z"/>
<path d="M6420 6142 c0 -43 12 -46 45 -12 27 28 27 30 8 30 -12 0 -28 3 -37 6
-12 5 -16 -1 -16 -24z"/>
<path d="M6487 6132 c-15 -15 -27 -31 -27 -35 0 -4 18 -7 40 -7 39 0 40 1 40
35 0 43 -16 45 -53 7z"/>
<path d="M4375 5310 c-3 -5 -1 -10 4 -10 6 0 11 5 11 10 0 6 -2 10 -4 10 -3 0
-8 -4 -11 -10z"/>
<path d="M6080 4891 c0 -5 7 -11 14 -14 10 -4 13 -1 9 9 -6 15 -23 19 -23 5z"/>
<path d="M5947 4883 c-4 -3 -7 -16 -6 -27 0 -12 3 -15 6 -8 2 6 11 12 18 12 7
0 15 7 19 15 5 15 -24 22 -37 8z"/>
<path d="M5986 4849 c-16 -16 -17 -19 -4 -19 9 0 19 7 22 16 9 24 4 24 -18 3z"/>
<path d="M5190 4610 c-8 -5 -12 -11 -9 -14 3 -3 14 1 25 9 21 16 8 20 -16 5z"/>
<path d="M3330 4166 c0 -8 5 -18 10 -21 6 -3 10 1 10 9 0 8 -4 18 -10 21 -5 3
-10 -1 -10 -9z"/>
<path d="M6626 3938 l-79 -40 54 -34 c60 -37 65 -39 74 -24 4 6 21 8 38 5 56
-10 63 4 36 74 -13 33 -28 61 -34 61 -5 -1 -46 -19 -89 -42z"/>
<path d="M6750 3971 c0 -19 53 -131 62 -131 11 0 15 12 23 73 l6 47 -30 0
c-17 0 -31 5 -31 10 0 6 -7 10 -15 10 -8 0 -15 -4 -15 -9z"/>
<path d="M5720 3945 c0 -19 -7 -26 -36 -34 -19 -5 -42 -7 -51 -4 -11 4 -14 1
-11 -13 5 -29 92 -33 110 -5 7 12 18 21 25 21 9 0 9 7 2 30 -13 36 -39 40 -39
5z"/>
<path d="M5753 3865 c-18 -13 -20 -18 -10 -40 18 -38 34 -38 42 2 8 44 -4 58
-32 38z"/>
<path d="M4055 4042 c-30 -6 -43 -21 -38 -41 3 -12 11 -17 24 -14 40 11 54 62
14 55z"/>
<path d="M3078 4118 c-15 -11 -15 -16 -3 -38 l13 -25 7 27 c10 39 4 52 -17 36z"/>
<path d="M7380 3831 c0 -5 7 -15 17 -22 15 -13 15 -12 4 9 -12 23 -21 28 -21
13z"/>
<path d="M7480 3758 c0 -4 9 -8 20 -8 11 0 20 -6 20 -14 0 -9 8 -12 25 -8 27
5 29 10 17 29 -9 14 -82 15 -82 1z"/>
<path d="M7490 3719 c0 -5 5 -7 10 -4 6 3 10 8 10 11 0 2 -4 4 -10 4 -5 0 -10
-5 -10 -11z"/>
<path d="M7525 3670 c-3 -5 -2 -10 4 -10 5 0 13 5 16 10 3 6 2 10 -4 10 -5 0
-13 -4 -16 -10z"/>
<path d="M7560 3649 c0 -11 5 -17 10 -14 6 3 10 13 10 21 0 8 -4 14 -10 14 -5
0 -10 -9 -10 -21z"/>
<path d="M2890 3430 c0 -6 7 -10 15 -10 8 0 15 2 15 4 0 2 -7 6 -15 10 -8 3
-15 1 -15 -4z"/>
<path d="M2905 3390 c3 -5 11 -10 16 -10 6 0 7 5 4 10 -3 6 -11 10 -16 10 -6
0 -7 -4 -4 -10z"/>
<path d="M5232 3105 c0 -16 2 -22 5 -12 2 9 2 23 0 30 -3 6 -5 -1 -5 -18z"/>
<path d="M5205 3040 c3 -5 8 -10 11 -10 2 0 4 5 4 10 0 6 -5 10 -11 10 -5 0
-7 -4 -4 -10z"/>
<path d="M2840 2661 c0 -11 5 -23 10 -26 6 -3 10 1 10 9 0 9 0 19 1 23 0 4 -4
9 -10 11 -6 2 -11 -5 -11 -17z"/>
<path d="M2551 2421 c-13 -3 -28 -16 -32 -29 l-8 -22 34 23 c19 12 35 25 35
30 0 4 -1 7 -2 6 -2 -1 -14 -4 -27 -8z"/>
<path d="M2393 2399 c-41 -10 -43 -12 -43 -47 0 -78 51 -108 100 -59 27 28 58
93 48 103 -11 10 -67 12 -105 3z"/>
<path d="M3048 2265 c5 -29 6 -29 31 -13 18 11 18 12 -6 25 -32 17 -31 17 -25
-12z"/>
<path d="M3177 2253 c18 -9 36 -13 40 -10 9 10 2 14 -37 21 l-35 6 32 -17z"/>
<path d="M3245 2238 c4 -10 51 -24 137 -42 72 -15 132 -25 134 -23 2 1 -54 18
-124 36 -70 19 -133 36 -140 39 -7 2 -10 -1 -7 -10z"/>
<path d="M4026 3315 c4 -8 8 -15 10 -15 2 0 4 7 4 15 0 8 -4 15 -10 15 -5 0
-7 -7 -4 -15z"/>
<path d="M4441 3191 c-18 -13 -22 -24 -17 -37 7 -17 9 -17 17 5 6 14 15 31 21
38 15 18 7 16 -21 -6z"/>
<path d="M4410 3111 c0 -12 6 -21 15 -21 8 0 15 4 15 9 0 5 -7 14 -15 21 -13
10 -15 9 -15 -9z"/>
<path d="M4422 3028 c4 -33 15 -53 47 -87 l42 -43 40 17 c22 10 38 21 37 25
-2 4 -28 35 -59 68 -43 48 -62 62 -84 62 -27 0 -27 -1 -23 -42z"/>
<path d="M4593 2865 c-6 -19 -7 -35 -2 -35 14 0 41 48 34 60 -11 18 -21 11
-32 -25z"/>
<path d="M6080 3150 c-8 -5 -12 -11 -9 -14 2 -3 11 -1 19 4 8 5 12 11 9 14 -2
3 -11 1 -19 -4z"/>
<path d="M6090 3120 c0 -5 5 -10 10 -10 6 0 10 5 10 10 0 6 -4 10 -10 10 -5 0
-10 -4 -10 -10z"/>
<path d="M6060 2999 c0 -5 5 -7 10 -4 6 3 10 8 10 11 0 2 -4 4 -10 4 -5 0 -10
-5 -10 -11z"/>
<path d="M980 3010 c-9 -6 -10 -10 -3 -10 6 0 15 5 18 10 8 12 4 12 -15 0z"/>
<path d="M4860 2904 c0 -8 9 -14 20 -14 11 0 20 4 20 9 0 5 -9 11 -20 14 -13
3 -20 0 -20 -9z"/>
<path d="M4882 2872 c-9 -6 -10 -19 -5 -45 l8 -37 21 45 c18 39 19 45 5 45 -9
0 -22 -4 -29 -8z"/>
<path d="M4906 2798 c-8 -32 -8 -38 3 -38 14 0 24 41 13 52 -6 6 -12 1 -16
-14z"/>
<path d="M4962 2787 c-9 -10 -4 -13 19 -15 20 -2 29 2 29 13 0 18 -33 20 -48
2z"/>
<path d="M5056 2735 c4 -8 13 -15 21 -15 13 0 13 3 3 15 -7 8 -16 15 -21 15
-5 0 -6 -7 -3 -15z"/>
<path d="M7126 2965 c-4 -13 -2 -14 14 -5 23 13 26 20 6 20 -8 0 -16 -7 -20
-15z"/>
<path d="M7090 2955 c0 -8 2 -15 4 -15 2 0 6 7 10 15 3 8 1 15 -4 15 -6 0 -10
-7 -10 -15z"/>
<path d="M7018 1898 c9 -9 15 -9 24 0 9 9 7 12 -12 12 -19 0 -21 -3 -12 -12z"/>
<path d="M6970 1885 c35 -20 56 -20 36 0 -8 8 -25 15 -38 15 l-23 -1 25 -14z"/>
<path d="M7035 1881 c-3 -5 2 -11 10 -15 8 -3 17 -1 20 3 3 5 -2 11 -10 15 -8
3 -17 1 -20 -3z"/>
<path d="M7591 2033 c-1 -6 -4 -20 -7 -30 -5 -17 -5 -17 6 0 6 10 9 23 6 30
-3 9 -5 9 -5 0z"/>
<path d="M5813 2790 c-28 -11 -28 -9 0 -48 21 -28 26 -30 42 -18 17 12 17 14
-2 33 -10 10 -17 25 -15 31 4 14 4 14 -25 2z"/>
<path d="M7150 2459 c0 -5 5 -7 10 -4 6 3 10 8 10 11 0 2 -4 4 -10 4 -5 0 -10
-5 -10 -11z"/>
<path d="M7088 2452 c-12 -5 -15 -11 -8 -21 7 -13 11 -13 26 0 9 8 19 13 21
12 1 -2 3 0 4 5 0 10 -23 12 -43 4z"/>
<path d="M7175 2440 c-3 -5 -2 -10 4 -10 5 0 13 5 16 10 3 6 2 10 -4 10 -5 0
-13 -4 -16 -10z"/>
<path d="M6480 2277 c0 -6 15 -17 33 -23 17 -6 40 -14 50 -19 14 -6 17 -2 17
24 0 31 -1 31 -50 31 -33 0 -50 -4 -50 -13z"/>
<path d="M4458 2243 c7 -3 16 -2 19 1 4 3 -2 6 -13 5 -11 0 -14 -3 -6 -6z"/>
<path d="M4444 2219 c-3 -5 0 -9 6 -9 7 0 21 -10 32 -22 16 -19 19 -20 14 -5
-3 10 -6 22 -6 27 0 12 -39 20 -46 9z"/>
<path d="M4445 2180 c-8 -13 -1 -24 14 -19 6 3 7 10 2 18 -6 10 -10 10 -16 1z"/>
<path d="M4953 1797 c-24 -11 -43 -26 -43 -33 0 -6 -6 -12 -12 -11 -7 0 -23
-1 -36 -1 -23 -2 -23 -2 -5 -32 21 -37 26 -37 48 -4 9 14 35 43 57 65 22 21
39 39 37 38 -2 0 -23 -10 -46 -22z"/>
<path d="M4800 1705 c0 -9 -6 -12 -15 -9 -8 3 -17 0 -20 -7 -3 -8 -19 -15 -36
-15 -17 -1 -35 -7 -39 -14 -5 -8 -13 -9 -21 -4 -8 5 -29 14 -46 20 -32 11 -33
11 -33 -17 0 -16 -1 -32 -2 -36 -2 -5 16 -12 39 -17 36 -7 56 -4 135 24 51 18
97 36 101 40 8 7 -38 50 -54 50 -5 0 -9 -7 -9 -15z"/>
<path d="M4836 1324 c18 -26 29 -30 40 -13 8 14 -6 28 -34 34 -21 4 -21 3 -6
-21z"/>
<path d="M4802 1308 c3 -7 13 -15 24 -17 16 -3 17 -1 5 13 -16 19 -34 21 -29
4z"/>
<path d="M4717 1295 c-5 -11 0 -15 16 -15 12 0 18 4 12 8 -5 4 -13 11 -16 15
-4 4 -9 1 -12 -8z"/>
<path d="M4765 1276 c-19 -14 -19 -15 -2 -21 22 -9 50 2 45 17 -6 18 -22 20
-43 4z"/>
<path d="M4825 1250 c3 -5 11 -10 16 -10 6 0 7 5 4 10 -3 6 -11 10 -16 10 -6
0 -7 -4 -4 -10z"/>
<path d="M4862 1228 c3 -7 13 -15 24 -17 16 -3 17 -1 5 13 -16 19 -34 21 -29
4z"/>
<path d="M3397 1379 c6 -6 9 -18 6 -25 -7 -18 24 -18 60 -1 39 18 28 32 -29
35 -38 2 -46 0 -37 -9z"/>
<path d="M4351 739 c-33 -22 -64 -45 -67 -51 -8 -12 104 57 126 78 26 25 4 15
-59 -27z"/>
<path d="M4183 619 c-26 -23 -50 -44 -53 -46 -3 -3 10 1 29 9 19 8 39 22 45
33 6 11 18 25 26 32 8 7 12 13 8 13 -4 0 -28 -19 -55 -41z"/>
<path d="M5503 1183 c-12 -2 -27 -11 -33 -18 -20 -24 14 -30 49 -9 48 28 41
38 -16 27z"/>
<path d="M5554 1158 c-29 -23 -32 -35 -19 -95 6 -27 31 -30 43 -5 13 25 24
122 14 122 -4 0 -21 -10 -38 -22z"/>
<path d="M5463 1105 c-7 -19 -2 -24 26 -30 17 -3 21 1 21 21 0 17 -5 24 -20
24 -11 0 -23 -7 -27 -15z"/>
<path d="M5520 1010 c-8 -5 -11 -12 -7 -16 4 -4 13 -2 19 4 15 15 7 24 -12 12z"/>
<path d="M7704 559 c-10 -17 31 -53 52 -45 15 6 15 9 -6 31 -26 28 -35 30 -46
14z"/>
<path d="M7356 964 c-3 -8 -10 -12 -16 -9 -5 3 -10 1 -10 -5 0 -7 7 -9 16 -6
9 3 24 6 35 6 10 0 19 7 19 15 0 20 -36 19 -44 -1z"/>
<path d="M7340 918 c0 -22 12 -58 19 -58 3 0 12 9 19 21 10 16 10 24 1 35 -14
17 -39 18 -39 2z"/>
<path d="M5990 7990 c20 -13 110 -13 110 0 0 6 -27 10 -62 10 -45 0 -59 -3
-48 -10z"/>
<path d="M6120 7992 c0 -13 169 -30 173 -18 2 5 13 0 25 -12 37 -37 71 -23 72
31 0 4 -61 7 -135 7 -74 0 -135 -4 -135 -8z"/>
<path d="M7874 7192 c-3 -15 -7 -32 -9 -39 -6 -19 22 -35 46 -28 22 7 75 53
68 59 -2 2 -25 10 -51 19 l-48 16 -6 -27z"/>
<path d="M7893 5347 c-25 -11 -31 -37 -10 -37 7 0 22 6 33 14 26 20 8 38 -23
23z"/>
<path d="M7961 4806 c-19 -20 -31 -39 -27 -43 4 -4 11 -1 17 7 8 13 10 13 19
0 14 -23 32 1 28 39 l-3 32 -34 -35z"/>
<path d="M7940 4411 c-13 -26 -13 -31 5 -31 9 0 15 9 15 25 0 30 -6 32 -20 6z"/>
<path d="M3098 1734 c-37 -20 -35 -29 10 -47 45 -19 56 -11 40 31 -14 36 -14
36 -50 16z"/>
<path d="M7968 1494 c-3 -3 -38 -5 -78 -6 l-72 0 21 -22 c18 -17 24 -19 41 -8
29 18 58 15 70 -9 11 -20 12 -20 31 -3 22 20 26 54 6 54 -8 0 -16 -2 -19 -6z"/>
<path d="M7906 1323 l-86 -108 28 -6 c15 -4 44 -14 64 -23 21 -9 49 -16 63
-16 l25 0 0 130 c0 72 -2 130 -5 130 -2 0 -43 -48 -89 -107z"/>
<path d="M2207 719 c-10 -6 -29 -28 -43 -50 l-25 -40 26 -33 c22 -29 44 -46
61 -46 2 0 4 7 4 16 0 8 16 22 35 30 33 13 34 16 23 37 -6 12 -14 38 -17 57
-7 38 -31 49 -64 29z"/>
<path d="M2338 703 c-33 -5 -33 -5 -12 -44 15 -30 16 -30 35 -13 18 16 27 66
12 63 -5 -1 -20 -4 -35 -6z"/>
</g>
</svg>
