<?xml version="1.0" standalone="no"?>
<!DOCTYPE svg PUBLIC "-//W3C//DTD SVG 20010904//EN"
 "http://www.w3.org/TR/2001/REC-SVG-20010904/DTD/svg10.dtd">
<svg version="1.0" xmlns="http://www.w3.org/2000/svg"
 width="800.000000pt" height="800.000000pt" viewBox="0 0 800.000000 800.000000"
 preserveAspectRatio="xMidYMid meet">
<metadata>
Created by potrace 1.16, written by Peter Selinger 2001-2019
</metadata>
<g transform="translate(0.000000,800.000000) scale(0.100000,-0.100000)"
fill="#000000" stroke="none">
<path d="M0 7875 c0 -124 0 -126 21 -115 11 7 23 9 26 6 3 -3 -6 -11 -21 -17
l-26 -12 0 -3693 0 -3693 23 -4 22 -4 -22 -8 c-23 -7 -23 -10 -23 -171 l0
-164 275 0 c241 0 274 2 269 15 -5 11 -2 13 10 9 9 -3 16 -10 16 -15 0 -5 110
-9 250 -9 l250 0 0 100 0 99 -78 45 c-42 25 -83 48 -90 53 -8 5 -21 55 -30
118 -15 93 -20 110 -35 107 -9 -2 -17 2 -17 8 0 5 11 10 24 10 22 0 25 -6 35
-62 5 -35 13 -86 17 -114 l6 -52 94 -52 94 -51 0 -105 0 -104 325 0 c282 0
325 2 325 15 0 8 5 15 11 15 6 0 9 -7 5 -15 -5 -13 28 -15 259 -15 243 0 264
1 268 18 4 16 5 16 6 0 1 -12 9 -18 26 -18 25 0 25 0 54 115 30 119 33 125 66
125 31 0 32 -1 34 -46 l1 -47 -39 6 -38 5 -13 -57 c-6 -31 -14 -66 -17 -79
l-5 -22 251 0 c280 0 260 -6 242 73 -5 20 -5 37 -1 37 5 0 14 -25 20 -55 l11
-55 99 0 c82 0 99 3 104 17 4 9 3 19 -2 22 -5 3 -12 25 -16 49 -6 38 -4 43 16
51 13 5 32 21 42 35 10 14 27 26 37 26 11 0 19 7 19 15 0 14 4 14 33 -1 17 -9
33 -17 34 -18 2 -1 -6 -34 -17 -72 -28 -97 -27 -124 5 -124 21 0 27 6 32 33
l7 32 7 -35 c6 -35 6 -35 8 -5 1 42 40 43 55 3 l10 -28 2323 0 2323 0 0 658 0
659 -82 11 c-46 7 -112 12 -148 12 -35 0 -60 4 -55 8 11 9 214 -1 258 -13 l27
-7 0 3171 c0 2213 -3 3171 -11 3171 -5 0 -7 5 -3 12 13 20 4 91 -16 123 -9 17
-30 67 -45 113 l-27 82 -3684 0 c-3377 0 -3684 -1 -3684 -16 0 -11 -5 -14 -16
-10 -9 3 -21 6 -27 7 -7 0 -3 4 8 9 12 5 -84 9 -237 9 l-258 1 0 -125z m805
15 c-10 -11 -22 -17 -28 -13 -6 4 -3 12 8 20 28 20 41 16 20 -7z m915 -12 c0
-19 -2 -20 -10 -8 -13 19 -13 30 0 30 6 0 10 -10 10 -22z m-1127 -354 c15 -13
37 -24 48 -24 10 0 19 -5 19 -10 0 -17 -53 0 -81 26 -38 36 -97 33 -133 -5
-24 -25 -27 -35 -22 -64 12 -66 76 -96 152 -70 25 8 48 13 51 9 11 -11 -52
-30 -104 -30 -41 -1 -56 4 -77 23 l-26 25 -39 -22 c-50 -28 -73 -28 -108 2
-15 13 -39 27 -53 31 -14 4 -37 19 -52 32 -16 15 -33 23 -42 20 -9 -4 -16 -3
-16 2 0 19 40 18 57 -1 10 -12 34 -27 53 -36 19 -8 47 -23 62 -33 34 -25 63
-24 100 2 24 18 28 26 23 50 -5 23 0 37 27 69 32 40 34 41 82 35 31 -4 60 -15
79 -31z m820 -51 c24 -35 25 -42 15 -88 -13 -65 -23 -75 -67 -75 -20 0 -41 -4
-46 -9 -6 -4 -27 -11 -47 -14 -29 -4 -38 -2 -38 9 0 9 11 14 34 14 19 0 37 4
41 9 3 6 25 13 49 16 34 5 46 12 50 28 11 41 6 82 -14 107 -21 27 -25 40 -11
40 4 0 20 -17 34 -37z m278 -16 c-13 -13 -15 1 -4 30 7 17 8 17 11 -1 2 -10
-1 -23 -7 -29z m69 -27 c0 -5 -9 -10 -20 -10 -11 0 -20 5 -20 10 0 6 9 10 20
10 11 0 20 -4 20 -10z m-60 -4 c0 -9 -30 -14 -35 -6 -4 6 3 10 14 10 12 0 21
-2 21 -4z m-660 -136 c0 -5 -2 -10 -4 -10 -3 0 -8 5 -11 10 -3 6 -1 10 4 10 6
0 11 -4 11 -10z m-625 -79 c-15 -15 -16 -13 -12 19 7 48 7 48 18 21 7 -19 6
-28 -6 -40z m697 -38 c6 -16 12 -35 13 -43 1 -8 6 -22 9 -31 4 -10 3 -20 -3
-24 -6 -3 -11 -18 -10 -33 0 -15 3 -21 6 -14 6 15 23 6 23 -14 0 -20 -69 -19
-77 1 -3 9 -2 19 2 23 4 4 10 1 12 -5 8 -22 25 -14 18 8 -5 14 -1 25 11 33 16
12 16 13 -7 12 -13 -1 -49 13 -79 30 -35 20 -76 35 -113 39 -31 4 -60 12 -63
17 -4 7 12 8 47 3 45 -6 78 -18 173 -63 5 -3 6 0 2 7 -4 6 -3 11 3 11 5 0 12
-6 14 -12 3 -7 3 8 0 35 -6 53 2 61 19 20z m140 -45 c6 -68 -2 -99 -13 -58
-10 37 -10 120 0 120 5 0 11 -28 13 -62z m-239 -38 c17 -20 15 -40 -3 -40 -5
0 -18 14 -30 30 -20 28 -20 30 -3 30 10 0 26 -9 36 -20z m815 -139 c39 -20
112 -107 112 -134 0 -26 -31 -97 -40 -92 -4 3 -2 25 5 49 13 43 13 46 -17 91
-33 50 -90 85 -138 85 -16 0 -30 5 -30 10 0 17 69 11 108 -9z m416 -1 c-10 -4
-21 -6 -24 -3 -8 7 24 22 34 16 5 -4 1 -10 -10 -13z m71 0 c-3 -5 -14 -6 -25
-3 -11 3 -18 9 -15 13 3 5 14 6 25 3 11 -3 18 -9 15 -13z m102 -7 c-9 -9 -20
-13 -24 -9 -4 4 -1 11 7 16 25 16 35 11 17 -7z m-47 -3 c0 -5 -6 -10 -14 -10
-8 0 -18 5 -21 10 -3 6 3 10 14 10 12 0 21 -4 21 -10z m100 -22 c0 -6 -7 -5
-15 2 -8 7 -15 17 -15 22 0 6 7 5 15 -2 8 -7 15 -17 15 -22z m-535 8 c15 -8
22 -17 16 -20 -13 -8 -51 11 -51 24 0 13 3 13 35 -4z m265 -11 c-7 -8 -17 -12
-22 -9 -5 3 -1 12 9 19 22 17 30 11 13 -10z m330 15 c0 -5 -10 -10 -22 -9 -22
0 -22 1 -3 9 11 5 21 9 23 9 1 1 2 -3 2 -9z m-1342 -39 c26 -11 85 -22 131
-26 72 -5 93 -11 140 -39 31 -19 82 -47 114 -62 31 -16 57 -34 57 -41 0 -14
-83 24 -180 83 -47 28 -68 34 -140 40 -61 5 -102 15 -145 35 -68 31 -49 39 23
10z m958 -6 c-11 -8 -22 -12 -25 -9 -6 6 19 24 34 24 6 -1 1 -7 -9 -15z
m-1696 -15 c0 -16 -91 -53 -125 -51 -16 1 -34 7 -40 13 -7 7 0 9 25 4 26 -4
48 1 85 18 28 14 51 25 53 25 1 1 2 -4 2 -9z m170 -19 c0 -4 -8 -7 -19 -8 -14
-1 -17 3 -14 18 4 15 8 17 19 8 8 -6 14 -14 14 -18z m1476 4 c-11 -8 -25 -15
-30 -15 -6 0 -2 7 8 15 11 8 25 15 30 15 6 0 2 -7 -8 -15z m-1423 -60 c14 -10
26 -9 60 3 28 10 50 12 63 7 16 -8 15 -9 -11 -12 -16 -2 -42 -9 -58 -15 -22
-8 -25 -13 -16 -25 25 -29 -1 -23 -28 7 -22 25 -39 33 -76 37 -26 3 -47 9 -47
13 0 11 92 -1 113 -15z m304 -122 c3 -7 -4 -9 -16 -6 -12 3 -18 9 -15 15 7 11
26 6 31 -9z m42 -49 c-14 -17 -22 -12 -26 17 -3 17 0 18 18 9 16 -9 18 -14 8
-26z m69 -44 c5 0 16 -7 23 -16 12 -15 11 -16 -9 -10 -20 7 -22 4 -22 -28 l0
-36 46 0 c40 0 45 2 34 15 -7 8 -16 12 -21 9 -5 -3 -9 2 -9 10 0 9 2 16 5 16
6 0 67 -41 75 -51 3 -3 13 -8 23 -12 25 -9 22 -30 -4 -22 -17 6 -20 3 -17 -12
2 -10 10 -17 16 -15 7 1 12 -9 12 -22 0 -19 -4 -23 -21 -19 -13 4 -18 11 -14
21 4 12 0 11 -16 -4 l-21 -19 51 -8 c28 -5 51 -13 51 -18 0 -11 8 -12 -106 11
-54 11 -104 18 -111 16 -7 -3 -13 -2 -13 3 0 4 -45 16 -101 26 -78 15 -105 16
-119 7 -11 -6 -21 -8 -24 -3 -3 4 5 14 18 20 22 12 76 7 161 -16 19 -5 19 -5
1 9 -16 13 -17 19 -7 51 10 30 17 36 44 39 31 3 32 4 31 52 0 48 0 48 17 27 9
-11 22 -21 27 -21z m2362 25 c0 -8 -4 -15 -10 -15 -5 0 -10 7 -10 15 0 8 5 15
10 15 6 0 10 -7 10 -15z m-1785 -26 c4 -10 11 -19 17 -19 11 0 5 -97 -7 -108
-11 -11 -13 5 -5 46 4 23 4 42 0 42 -4 0 -12 11 -18 25 -10 21 -18 25 -55 25
-67 0 -97 -18 -97 -59 0 -32 1 -33 14 -16 13 18 14 17 21 -13 4 -18 13 -32 21
-32 8 0 19 -11 24 -25 10 -27 54 -36 63 -12 2 6 8 9 12 5 15 -14 -15 -35 -58
-41 -23 -3 -52 -9 -64 -13 -14 -4 -23 -2 -23 4 0 6 10 12 23 14 16 2 22 10 22
28 0 18 -6 26 -22 28 -13 2 -23 8 -23 13 0 6 -4 7 -10 4 -6 -4 -10 6 -10 23 0
16 -3 44 -6 61 -6 27 -4 31 14 31 12 0 23 3 25 8 3 4 35 5 71 4 54 -3 66 -7
71 -23z m-1159 -39 c-19 -22 -45 -58 -57 -82 -13 -25 -24 -37 -27 -29 -10 29
89 168 110 155 5 -3 -7 -23 -26 -44z m2934 23 c0 -5 -5 -15 -10 -23 -8 -12
-10 -11 -10 8 0 12 5 22 10 22 6 0 10 -3 10 -7z m-24 -90 c-11 -11 -17 4 -9
23 7 18 8 18 11 1 2 -10 1 -21 -2 -24z m-3090 4 c4 -4 1 -13 -6 -22 -7 -9 -8
-15 -2 -15 6 0 20 12 31 26 11 15 25 23 32 19 7 -5 -1 -19 -25 -40 -20 -18
-36 -41 -36 -53 0 -18 -6 -22 -33 -22 -21 0 -39 8 -50 21 -10 11 -25 18 -33
15 -8 -3 -14 1 -14 9 0 16 27 45 43 45 8 0 7 -4 -1 -12 -15 -15 -15 -28 -1
-28 5 0 8 4 4 9 -3 5 3 12 14 16 10 3 21 15 24 25 5 19 37 24 53 7z m3075 -64
c-10 -17 -10 -16 -11 3 0 23 13 41 18 25 2 -6 -1 -18 -7 -28z m-2007 21 c9 -3
16 -12 16 -19 0 -8 17 -16 40 -20 22 -4 40 -11 40 -15 0 -15 -34 -17 -72 -4
-21 7 -38 10 -38 7 0 -12 -29 32 -30 45 0 13 19 16 44 6z m1942 -226 c-19 -46
-34 -98 -35 -115 0 -38 -8 -56 -23 -47 -5 3 -9 -2 -8 -12 3 -33 -12 -64 -31
-64 -10 0 -20 4 -23 8 -8 14 6 53 18 49 11 -4 68 135 67 163 -1 42 12 99 27
118 16 20 17 20 30 1 11 -16 8 -30 -22 -101z m-1216 49 c0 -57 -56 -215 -71
-200 -5 5 5 41 22 82 25 59 29 81 24 117 -6 47 0 68 16 59 5 -4 9 -30 9 -58z
m311 -124 c-9 -16 -10 -15 -11 8 0 15 3 42 8 60 l7 34 3 -42 c2 -24 -1 -51 -7
-60z m-973 27 c3 -24 3 -25 -12 -5 -15 20 -15 20 -16 -4 0 -30 -5 -25 -14 12
-6 26 -4 28 16 25 16 -2 24 -11 26 -28z m1502 -51 c0 -5 -4 -9 -10 -9 -5 0 -7
-7 -4 -15 4 -10 0 -15 -12 -15 -14 0 -19 8 -20 28 -1 25 2 28 23 24 12 -2 23
-8 23 -13z m-1203 -41 c-3 -8 -6 -5 -6 6 -1 11 2 17 5 13 3 -3 4 -12 1 -19z
m397 -44 c10 -27 7 -44 -8 -38 -17 7 -28 32 -20 45 8 14 21 11 28 -7z m1016
-2 c0 -4 -27 -15 -60 -24 -71 -19 -82 -5 -12 16 55 17 72 19 72 8z m-1264
-101 c19 5 61 -13 71 -31 11 -17 9 -18 -21 -16 -31 3 -86 40 -86 59 0 5 6 4
14 -2 8 -6 18 -11 22 -10z m1355 9 c10 -6 19 -15 19 -21 0 -5 -13 -3 -30 6
-16 9 -30 18 -30 20 0 8 20 6 41 -5z m-748 -130 c3 -11 12 -20 20 -20 17 0 30
-27 20 -43 -4 -7 0 -8 11 -4 13 5 17 2 14 -11 -2 -9 -11 -17 -19 -17 -9 0 -24
-6 -33 -14 -12 -10 -19 -11 -30 -2 -8 7 -31 9 -60 5 -28 -4 -46 -3 -46 3 0 12
46 23 91 23 31 0 32 1 23 24 -5 13 -16 15 -60 10 -36 -5 -54 -3 -54 4 0 6 21
12 48 14 40 3 47 6 50 26 4 27 18 29 25 2z m-714 -39 c11 -7 10 -13 -5 -35
-20 -27 -39 -33 -49 -16 -3 6 0 10 8 10 16 0 30 27 21 41 -7 11 7 11 25 0z
m871 -87 c0 -12 -35 -26 -44 -17 -2 3 -2 11 0 18 7 17 44 15 44 -1z m-364 -43
c30 -23 47 -9 -240 -202 -167 -112 -242 -169 -279 -211 -27 -32 -54 -55 -59
-52 -5 3 19 36 54 72 44 47 129 111 283 215 121 82 222 151 224 153 2 2 -4 13
-14 24 -23 26 -2 27 31 1z m-1406 -54 c0 -2 -12 -14 -27 -28 l-28 -24 24 28
c23 25 31 32 31 24z m2080 -237 c0 -28 2 -30 20 -20 11 6 20 18 20 28 1 15 2
15 15 -3 9 -10 14 -24 12 -30 -4 -10 -8 -11 -47 -14 -11 0 -20 -5 -20 -11 0
-9 42 -7 73 5 12 5 17 2 17 -8 0 -11 -14 -18 -47 -22 -27 -4 -55 -9 -64 -11
-9 -2 -26 5 -39 16 -23 20 -23 20 -2 20 13 0 22 6 22 16 0 8 5 12 10 9 6 -4
10 7 10 24 0 17 5 31 10 31 6 0 10 -14 10 -30z m-1795 -400 c3 -5 2 -16 -2
-24 -11 -20 -36 -4 -27 17 7 19 20 22 29 7z m5 -112 c-14 -5 -18 -13 -13 -25
5 -17 4 -17 -13 1 -14 13 -15 20 -7 23 9 3 11 14 6 31 l-6 27 26 -25 c24 -24
25 -25 7 -32z m332 -183 c-5 -40 -22 -48 -22 -10 0 14 -4 25 -10 25 -5 0 -10
5 -10 10 0 6 10 10 23 10 20 0 23 -4 19 -35z m1883 16 c58 -5 98 -16 145 -39
70 -33 139 -86 128 -97 -3 -4 -24 9 -45 29 -64 57 -157 86 -300 93 -68 3 -123
10 -123 15 0 10 86 10 195 -1z m-595 -156 c7 -8 8 -15 2 -15 -5 0 -15 7 -22
15 -7 8 -8 15 -2 15 5 0 15 -7 22 -15z m1038 -94 c-9 -3 -48 32 -48 44 0 4 13
-4 28 -17 16 -13 25 -25 20 -27z m-73 -223 c7 -7 -3 -8 -30 -4 -68 12 -115 26
-115 35 0 11 131 -18 145 -31z m-905 -154 c0 -28 -4 -43 -10 -39 -5 3 -10 26
-10 51 0 28 4 43 10 39 6 -3 10 -26 10 -51z m1540 35 c11 -8 12 -12 3 -16 -7
-2 -13 -11 -13 -18 0 -8 -4 -16 -9 -19 -5 -3 -9 10 -8 29 1 38 4 40 27 24z
m100 -29 c0 -5 -7 -10 -16 -10 -8 0 -12 5 -9 10 3 6 10 10 16 10 5 0 9 -4 9
-10z m202 -150 c-4 -28 -18 -47 -27 -38 -8 7 16 79 24 74 4 -3 6 -19 3 -36z
m2328 -77 l135 -4 128 -85 c70 -46 133 -81 139 -78 6 4 8 3 5 -4 -10 -15 76
-62 112 -62 17 0 31 -5 31 -11 0 -6 -22 -9 -59 -7 -33 1 -58 6 -55 9 5 8 -76
62 -93 62 -7 0 -10 4 -8 8 3 4 -41 37 -97 73 l-102 67 -122 -3 c-67 -2 -120 0
-118 4 2 3 -18 11 -46 18 -43 10 -53 9 -79 -6 -16 -10 -27 -22 -24 -27 3 -6 1
-7 -5 -3 -10 6 -102 -39 -102 -50 0 -2 16 2 36 11 25 10 40 12 52 4 13 -8 29
-5 65 10 45 19 48 19 54 3 3 -9 13 -25 21 -34 22 -26 -3 -23 -29 3 -20 20 -22
20 -60 5 -29 -12 -44 -13 -57 -6 -13 9 -42 1 -127 -34 l-110 -44 -3 -63 c-5
-101 12 -131 132 -234 57 -50 111 -105 120 -122 19 -39 6 -45 -15 -7 -7 15
-62 69 -120 120 -119 104 -139 139 -139 241 0 29 -3 53 -7 53 -5 0 -33 -7 -63
-15 -64 -17 -70 -18 -70 -7 0 5 33 16 73 25 39 10 109 32 153 50 67 27 79 34
68 45 -8 7 -14 18 -14 25 0 8 3 7 9 -2 7 -11 26 -4 93 38 75 47 87 51 123 46
22 -4 101 -9 175 -12z m-3755 -43 c3 -6 -1 -17 -9 -26 -15 -14 -17 -14 -22 0
-3 9 -17 16 -30 16 -13 0 -24 5 -24 10 0 13 77 13 85 0z m4215 -80 c6 0 10 9
10 20 0 11 4 20 9 20 18 0 41 -12 41 -22 0 -6 -7 -7 -16 -4 -13 5 -15 2 -11
-14 4 -15 0 -20 -13 -20 -33 0 -70 22 -70 42 0 17 1 17 20 -2 11 -11 25 -20
30 -20z m-2945 10 c-3 -5 -11 -10 -16 -10 -6 0 -31 -16 -55 -36 -55 -45 -58
-29 -4 20 36 32 91 51 75 26z m2400 -31 c11 -17 -1 -21 -15 -4 -8 9 -8 15 -2
15 6 0 14 -5 17 -11z m315 1 c0 -5 -5 -10 -11 -10 -5 0 -7 5 -4 10 3 6 8 10
11 10 2 0 4 -4 4 -10z m-260 -20 c12 -8 11 -10 -7 -10 -13 0 -23 5 -23 10 0
13 11 13 30 0z m60 -20 c12 -8 11 -10 -7 -10 -13 0 -23 5 -23 10 0 13 11 13
30 0z m-1856 -16 c77 -11 51 -20 -44 -16 -77 4 -94 2 -124 -16 -49 -29 -143
-46 -178 -33 -39 15 -36 33 3 19 37 -13 114 2 169 32 37 20 94 25 174 14z
m1916 -4 c0 -13 -11 -13 -30 0 -12 8 -11 10 8 10 12 0 22 -4 22 -10z m60 -20
c0 -13 -11 -13 -30 0 -12 8 -11 10 8 10 12 0 22 -4 22 -10z m-4134 -37 c4 -21
8 -96 8 -168 1 -71 6 -137 11 -145 23 -37 11 -121 -16 -104 -5 3 -9 0 -9 -5 0
-6 -21 -11 -50 -11 -46 0 -50 -2 -50 -24 0 -13 7 -26 15 -30 8 -3 15 -12 15
-20 0 -20 36 -39 60 -31 27 9 60 -3 60 -21 0 -18 -8 -18 -27 1 -12 12 -18 13
-29 4 -20 -16 -74 7 -74 32 0 11 -6 19 -14 19 -16 0 -28 69 -14 87 13 16 -12
23 -37 10 -11 -6 -24 -12 -30 -13 -31 -4 -54 -18 -58 -35 -3 -12 -14 -19 -31
-19 l-25 0 22 45 c21 42 24 45 55 39 18 -3 40 -8 47 -10 10 -4 12 1 8 17 -6
20 -4 22 25 16 24 -5 32 -3 32 8 0 21 47 19 59 -2 5 -10 13 -14 17 -10 5 5 2
12 -6 18 -13 8 -13 11 2 19 11 7 19 30 23 75 6 55 5 69 -10 85 -12 14 -14 20
-5 20 10 0 10 3 0 15 -10 12 -9 15 7 15 19 0 19 4 11 58 -4 31 -10 67 -13 80
-3 12 -1 22 4 22 5 0 12 -17 17 -37z m3179 16 c11 -11 -37 -12 -112 -3 -29 4
-50 11 -47 15 6 11 145 0 159 -12z m1015 0 c0 -11 -3 -11 -24 -3 -23 9 -20 23
4 17 11 -3 20 -9 20 -14z m-1320 1 c0 -5 -17 -12 -37 -16 -21 -4 -45 -11 -53
-16 -12 -8 -12 -9 3 -4 9 3 17 1 17 -4 0 -6 8 -10 17 -10 21 0 6 -16 -22 -23
-19 -4 -19 -5 1 -6 13 -1 24 -10 27 -23 l6 -22 26 24 c20 19 28 21 38 11 9 -9
9 -14 -3 -21 -13 -9 -13 -11 0 -20 8 -5 21 -10 28 -10 6 0 12 -4 12 -8 0 -5
-13 -7 -30 -4 -18 2 -30 10 -30 19 0 9 -6 12 -19 8 -22 -7 -53 4 -46 16 5 8
-12 14 -60 21 -12 2 -21 12 -23 26 -3 22 -7 23 -45 17 -87 -15 -21 11 81 31
59 12 108 22 110 23 1 0 2 -3 2 -9z m1370 -10 c12 -8 11 -10 -7 -10 -13 0 -23
5 -23 10 0 13 11 13 30 0z m-2700 -25 c0 -1 -9 -10 -20 -20 -20 -18 -20 -17
-20 8 0 20 4 24 20 20 11 -3 20 -6 20 -8z m2755 4 c12 -19 -5 -23 -22 -6 -16
16 -16 17 -1 17 9 0 20 -5 23 -11z m29 -68 c-6 -6 -24 19 -24 34 1 6 7 1 15
-9 8 -11 12 -22 9 -25z m-2502 -17 c-3 -15 -8 -22 -14 -16 -9 9 -1 42 12 42 4
0 5 -12 2 -26z m2544 -21 c-8 -8 -36 5 -36 17 0 7 6 7 21 0 11 -7 18 -14 15
-17z m-741 -23 c3 -5 2 -10 -4 -10 -5 0 -13 5 -16 10 -3 6 -2 10 4 10 5 0 13
-4 16 -10z m785 -22 c0 -6 -7 -5 -15 2 -8 7 -15 17 -15 22 0 6 7 5 15 -2 8 -7
15 -17 15 -22z m-3375 -8 c-3 -5 -10 -10 -16 -10 -5 0 -9 5 -9 10 0 6 7 10 16
10 8 0 12 -4 9 -10z m-3015 -65 c0 -19 5 -35 10 -35 6 0 10 -5 10 -11 0 -6 -9
-8 -22 -4 -22 6 -22 5 -4 -9 10 -8 15 -20 11 -26 -5 -8 -15 -3 -30 16 l-22 27
-11 -32 c-11 -32 -10 -34 41 -83 28 -27 44 -47 35 -44 -13 4 -22 -3 -33 -24
-10 -19 -20 -27 -30 -24 -8 4 -15 2 -15 -4 0 -6 6 -12 13 -15 7 -3 0 -9 -15
-16 -33 -13 -34 -24 -8 -93 11 -28 19 -53 17 -54 -1 -1 -18 -3 -37 -5 -74 -6
-108 46 -50 76 18 9 30 23 30 35 0 21 -33 60 -50 60 -14 0 -12 13 4 35 14 19
15 19 34 1 31 -27 59 -13 65 32 4 31 0 41 -23 62 -16 14 -30 34 -32 45 -2 13
-12 21 -31 23 -31 4 -33 9 -11 34 15 15 15 18 1 23 -12 5 -13 12 -4 35 l11 29
33 -20 33 -20 11 25 c11 24 13 24 40 10 24 -12 29 -21 29 -49z m6426 28 c-7
-7 -26 7 -26 19 0 6 6 6 15 -2 9 -7 13 -15 11 -17z m42 -49 c-10 -10 -28 6
-28 24 0 15 1 15 17 -1 9 -9 14 -19 11 -23z m42 -19 c14 -16 10 -18 -14 -9 -9
3 -16 10 -16 15 0 14 16 11 30 -6z m-304 -36 c9 -15 -23 -10 -35 5 -10 12 -8
13 9 9 11 -3 23 -9 26 -14z m312 -1 c-2 -6 -10 -14 -16 -16 -7 -2 -10 2 -6 12
7 18 28 22 22 4z m-258 -29 c0 -4 -7 -6 -15 -3 -8 4 -15 10 -15 15 0 4 7 6 15
3 8 -4 15 -10 15 -15z m-3965 -16 l-6 -27 20 25 c11 13 20 19 21 14 0 -17 -50
-86 -59 -80 -11 6 10 95 22 95 5 0 6 -12 2 -27z m4070 17 c3 -5 -3 -10 -14
-10 -11 0 -23 5 -26 10 -3 6 3 10 14 10 11 0 23 -4 26 -10z m115 0 c0 -5 -9
-10 -20 -10 -11 0 -20 5 -20 10 0 6 9 10 20 10 11 0 20 -4 20 -10z m-54 -13
c4 -4 -2 -7 -14 -7 -12 0 -22 4 -22 9 0 10 26 9 36 -2z m-114 -9 c-9 -9 -15
-9 -24 0 -9 9 -7 12 12 12 19 0 21 -3 12 -12z m-4237 -18 c3 -5 2 -10 -3 -10
-5 0 -7 -13 -4 -30 3 -21 0 -30 -9 -30 -21 0 -43 17 -31 24 5 3 8 17 7 31 -3
19 1 25 15 25 10 0 22 -4 25 -10z m1855 -28 c0 -11 -60 -45 -67 -39 -3 3 10
15 28 26 39 24 39 24 39 13z m1071 -33 c29 -20 38 -52 19 -64 -5 -3 -10 3 -10
15 0 11 -12 32 -27 45 -34 30 -22 33 18 4z m-2618 -60 c-6 -22 -19 -25 -27 -6
-3 6 -4 -1 -2 -17 3 -22 -1 -30 -15 -33 -12 -4 -18 -12 -15 -22 8 -25 46 -256
46 -277 0 -11 -3 -15 -10 -8 -10 10 -49 224 -57 317 -5 50 -3 57 11 51 9 -3
16 -1 16 5 0 16 43 31 51 19 4 -6 4 -19 2 -29z m752 1 c-3 -5 -13 -10 -21 -10
-8 0 -14 5 -14 10 0 6 9 10 21 10 11 0 17 -4 14 -10z m-865 -10 c0 -3 -12 -46
-26 -95 -15 -50 -30 -115 -35 -145 -4 -30 -12 -76 -17 -102 -8 -42 -7 -47 12
-54 21 -6 21 -7 -1 -11 -12 -2 -36 3 -53 12 -29 15 -31 15 -39 -7 -5 -13 -6
-28 -4 -35 3 -6 -5 -16 -16 -22 -17 -10 -23 -7 -37 14 -11 17 -20 23 -27 16
-15 -15 -59 9 -54 31 3 11 -2 19 -14 23 -10 3 -21 15 -24 26 -4 10 -10 19 -14
19 -4 0 -6 20 -6 45 1 25 -2 48 -7 51 -4 3 -6 9 -3 14 3 5 1 11 -5 15 -6 4 -8
10 -5 15 3 4 -2 24 -10 44 -19 46 -20 43 15 61 37 19 94 19 110 0 16 -19 5
-34 -12 -17 -16 16 -83 15 -97 -2 -18 -21 12 -80 54 -106 45 -28 50 -54 5 -30
-15 8 -19 5 -24 -15 -4 -14 -2 -34 4 -45 5 -10 10 -27 10 -38 0 -11 9 -22 20
-25 12 -3 20 -14 20 -26 0 -12 6 -21 15 -21 19 0 19 10 -1 38 -14 21 -14 22 5
22 12 0 20 -5 19 -11 -2 -6 3 -14 10 -16 14 -6 17 33 2 42 -5 3 -10 22 -10 41
0 19 5 34 10 34 6 0 10 -15 10 -32 1 -31 1 -32 15 -14 8 11 18 17 21 13 4 -4
1 -13 -6 -22 -7 -9 -11 -17 -9 -18 20 -15 82 -47 86 -44 9 10 43 144 43 172 0
16 11 66 25 110 14 44 25 81 25 83 0 2 -32 2 -70 0 -75 -3 -98 8 -27 15 57 5
117 3 117 -3z m4390 -85 c16 -86 7 -94 -14 -11 -18 74 -20 89 -7 82 5 -3 14
-35 21 -71z m-4577 38 c11 -18 25 -16 30 5 9 33 7 -32 -2 -70 -6 -25 -5 -38 2
-41 6 -2 7 -9 3 -15 -15 -25 -23 -10 -21 36 3 53 -8 75 -43 86 -12 4 -20 11
-17 16 7 12 37 1 48 -17z m861 -4 c-27 -11 -34 -10 -34 0 0 11 31 20 44 13 5
-3 1 -9 -10 -13z m438 -21 c-12 -12 -54 -7 -59 8 -2 6 10 8 33 6 23 -3 32 -8
26 -14z m133 2 c4 -6 -8 -10 -30 -10 -22 0 -34 4 -30 10 3 6 17 10 30 10 13 0
27 -4 30 -10z m235 -41 c37 -13 30 -31 -8 -19 -41 11 -70 31 -75 52 -5 17 -3
16 23 -2 16 -12 43 -26 60 -31z m2865 21 c3 -5 -1 -23 -9 -39 -15 -28 -14 -30
14 -61 30 -32 36 -50 23 -64 -4 -4 -6 -23 -4 -42 1 -18 -1 -34 -6 -34 -4 0
-38 20 -75 43 -61 39 -65 44 -52 61 12 17 17 18 40 7 32 -14 42 -8 23 15 -8
10 -24 14 -46 12 -32 -4 -43 6 -43 38 0 9 11 14 33 14 26 0 36 6 50 30 18 30
40 39 52 20z m-5645 -50 c0 -5 -7 -10 -15 -10 -8 0 -15 5 -15 10 0 6 7 10 15
10 8 0 15 -4 15 -10z m63 -7 c-7 -2 -21 -2 -30 0 -10 3 -4 5 12 5 17 0 24 -2
18 -5z m-118 -13 c-3 -5 -13 -10 -21 -10 -8 0 -12 5 -9 10 3 6 13 10 21 10 8
0 12 -4 9 -10z m2770 -49 c-15 -29 -45 -43 -45 -21 0 6 4 10 9 10 6 0 18 14
28 30 22 39 30 22 8 -19z m-2833 17 c-6 -6 -15 -8 -19 -4 -4 4 -1 11 7 16 19
12 27 3 12 -12z m5490 -19 c6 -17 21 -34 35 -40 19 -7 24 -15 20 -32 -3 -12
-1 -31 3 -42 5 -11 9 -15 10 -10 2 6 5 -3 9 -19 8 -38 24 -43 41 -11 15 28 41
32 61 9 14 -17 12 -20 -44 -50 -22 -12 -32 -13 -43 -3 -11 9 -14 7 -14 -10 0
-29 -16 -26 -24 5 -4 14 -17 36 -30 49 -16 16 -26 44 -34 93 -7 39 -12 76 -12
81 0 21 11 11 22 -20z m385 -35 c7 -32 23 -99 34 -149 12 -49 22 -94 24 -100
1 -5 8 -38 15 -72 11 -57 15 -63 39 -64 23 -2 24 -2 4 -6 -27 -5 -27 4 -3
-113 23 -109 25 -140 9 -140 -6 0 -9 7 -6 15 4 8 2 17 -4 20 -5 4 -12 -2 -16
-12 -11 -29 -76 -124 -81 -118 -3 2 11 29 31 60 38 57 45 79 26 91 -7 4 -7 9
-2 13 6 3 6 19 1 37 l-8 32 -125 1 -125 1 12 -22 c7 -12 22 -30 33 -39 11 -10
17 -21 13 -24 -8 -9 -75 55 -74 70 1 6 -20 11 -46 13 -27 2 -48 7 -48 12 0 13
227 16 310 4 67 -10 106 -9 73 3 -7 3 -13 16 -13 29 0 16 -6 24 -17 24 -13 0
-14 3 -5 12 17 17 15 56 -6 120 -10 31 -17 63 -16 72 1 9 -1 16 -5 16 -4 0 -8
12 -8 28 -3 36 -8 65 -14 77 -3 6 -6 25 -8 44 -1 19 -7 41 -13 48 -6 7 -7 13
-2 13 5 0 0 7 -10 15 -12 9 -15 15 -7 15 9 0 11 8 8 21 -3 13 -1 19 6 16 7 -2
18 -30 24 -63z m-5917 37 c0 -5 -7 -12 -16 -15 -24 -9 -28 -7 -14 9 14 17 30
20 30 6z m2181 -24 c-8 -8 -11 -7 -11 4 0 20 13 34 18 19 3 -7 -1 -17 -7 -23z
m2709 -20 c0 -5 -18 -7 -42 -4 -24 3 -67 9 -95 12 -92 12 -57 21 42 11 52 -5
95 -13 95 -19z m-4954 8 c-11 -8 -22 -12 -25 -9 -6 6 19 24 34 24 6 -1 1 -7
-9 -15z m3402 9 c12 -4 22 -10 22 -14 0 -5 -10 -6 -22 -2 -20 5 -21 3 -10 -11
9 -10 11 -28 7 -51 -7 -34 -29 -54 -40 -36 -3 5 -13 7 -23 4 -15 -5 -16 -4 -1
8 21 17 30 76 12 82 -7 3 -13 10 -13 16 0 11 33 13 68 4z m-2898 -29 c0 -14
-6 -25 -14 -25 -9 0 -12 8 -8 25 2 14 8 25 13 25 5 0 9 -11 9 -25z m-545 -5
c-3 -5 -13 -10 -21 -10 -8 0 -12 5 -9 10 3 6 13 10 21 10 8 0 12 -4 9 -10z
m-60 -29 c-3 -6 -14 -11 -23 -11 -15 1 -15 2 2 15 21 16 32 13 21 -4z m2669
-12 c-3 -5 -10 -7 -15 -3 -5 3 -7 10 -3 15 3 5 10 7 15 3 5 -3 7 -10 3 -15z
m-3489 -8 c-5 -16 -2 -18 17 -14 13 3 29 10 36 16 16 12 29 0 15 -14 -11 -11
-85 -31 -91 -25 -6 7 11 56 20 56 5 0 7 -9 3 -19z m770 -10 c-3 -6 -14 -11
-23 -11 -15 1 -15 2 2 15 21 16 32 13 21 -4z m-55 -36 c-7 -8 -17 -12 -22 -9
-6 4 -5 10 3 15 22 14 33 10 19 -6z m2234 -14 c9 -10 20 -35 23 -55 5 -34 4
-36 -23 -36 -26 1 -27 2 -11 14 24 18 21 35 -10 68 -19 20 -22 28 -11 28 8 0
23 -8 32 -19z m3296 -6 c0 -8 -2 -15 -4 -15 -2 0 -6 7 -10 15 -3 8 -1 15 4 15
6 0 10 -7 10 -15z m580 -24 c-6 -12 -17 -21 -25 -21 -23 0 -17 36 8 47 26 12
33 2 17 -26z m-6150 20 c0 -5 -7 -12 -16 -15 -24 -9 -28 -7 -14 9 14 17 30 20
30 6z m-60 -41 c-24 -15 -37 -11 -16 5 11 8 22 12 25 9 3 -3 -1 -9 -9 -14z
m1045 0 c4 -6 10 -8 14 -6 4 3 13 -59 19 -137 16 -194 17 -225 10 -233 -9 -8
-16 42 -23 166 -3 58 -8 124 -12 148 -5 40 -7 42 -39 42 -19 0 -34 4 -34 9 0
19 55 28 65 11z m767 -40 c-3 -23 -7 -28 -17 -20 -6 5 -14 7 -17 4 -3 -2 -8 2
-11 11 -4 8 -2 15 4 15 6 0 7 5 4 10 -3 6 4 10 18 10 21 0 23 -4 19 -30z
m-1857 10 c-3 -5 -13 -10 -21 -10 -8 0 -12 5 -9 10 3 6 13 10 21 10 8 0 12 -4
9 -10z m252 -22 c-3 -7 -5 -2 -5 12 0 14 2 19 5 13 2 -7 2 -19 0 -25z m-310
-15 c-9 -9 -20 -13 -24 -9 -4 4 -1 11 7 16 25 16 35 11 17 -7z m1793 -24 c0
-16 5 -20 20 -16 25 6 26 -1 3 -19 -12 -9 -14 -16 -7 -21 6 -5 16 -18 23 -30
17 -34 69 -32 73 2 2 19 6 22 18 15 13 -8 13 -13 2 -31 -13 -20 -12 -21 12
-17 15 3 29 1 32 -4 3 -4 11 -5 17 -1 7 4 17 8 22 10 6 1 21 5 35 8 22 6 22 4
-5 -11 -16 -9 -33 -21 -36 -27 -4 -5 -16 -6 -28 -2 -33 10 -61 -3 -61 -30 0
-22 -38 -70 -47 -61 -6 5 19 56 27 56 4 0 10 11 12 25 5 23 3 25 -36 25 -59 0
-86 22 -81 65 5 38 -16 68 -40 59 -8 -4 -15 -3 -15 0 0 6 37 24 53 25 4 1 7
-9 7 -20z m-1830 2 c0 -5 -7 -12 -16 -15 -24 -9 -28 -7 -14 9 14 17 30 20 30
6z m350 2 c0 -5 -5 -15 -10 -23 -8 -12 -10 -11 -10 8 0 12 5 22 10 22 6 0 10
-3 10 -7z m2047 -15 c-3 -8 -6 -5 -6 6 -1 11 2 17 5 13 3 -3 4 -12 1 -19z
m-144 -1 c9 15 87 2 87 -13 0 -8 3 -13 8 -13 22 4 52 -2 52 -10 0 -16 -34 -17
-63 -3 -22 11 -31 11 -42 2 -9 -7 -22 -9 -32 -4 -10 4 -29 9 -42 10 -33 4 -38
12 -15 28 12 10 23 11 31 5 6 -6 14 -6 16 -2z m-2308 -26 c-3 -6 -14 -11 -23
-11 -15 1 -15 2 2 15 21 16 32 13 21 -4z m1969 0 c8 -13 -11 -61 -24 -61 -5 0
-10 7 -10 15 0 8 5 15 11 15 8 0 9 4 0 13 -11 13 -6 27 10 27 4 0 10 -4 13 -9z
m-1574 -25 c0 -8 -4 -18 -10 -21 -5 -3 -10 3 -10 14 0 12 5 21 10 21 6 0 10
-6 10 -14z m-453 -13 c-9 -9 -20 -13 -24 -9 -4 4 -1 11 7 16 25 16 35 11 17
-7z m1733 -15 c0 -5 -4 -8 -10 -8 -5 0 -10 10 -10 23 0 18 2 19 10 7 5 -8 10
-18 10 -22z m-1540 2 c0 -5 -9 -6 -20 -3 -11 3 -17 9 -15 14 7 10 35 1 35 -11z
m6057 -2 c-3 -8 -6 -5 -6 6 -1 11 2 17 5 13 3 -3 4 -12 1 -19z m-6117 2 c0 -5
-10 -10 -22 -10 -19 0 -20 2 -8 10 19 13 30 13 30 0z m-170 -10 c0 -5 -5 -10
-12 -10 -6 0 -9 -2 -7 -4 2 -3 32 1 67 9 34 7 65 9 67 5 5 -8 -10 -12 -85 -25
-34 -6 -35 -8 -36 -51 -1 -25 -6 -50 -13 -57 -10 -9 -11 -1 -5 41 6 47 5 52
-13 52 -10 0 -24 -5 -31 -12 -6 -6 -15 -8 -19 -4 -4 4 -1 11 8 16 9 5 27 18
40 29 27 23 39 26 39 11z m285 0 c3 -5 -1 -10 -9 -10 -8 0 -18 5 -21 10 -3 6
1 10 9 10 8 0 18 -4 21 -10z m1588 -60 c12 0 29 -5 37 -10 11 -7 4 -10 -27
-10 -39 0 -43 2 -43 25 0 14 -5 25 -11 25 -6 0 -8 -9 -4 -20 3 -11 2 -20 -3
-20 -5 0 -12 9 -15 20 -3 13 -14 20 -28 20 -18 0 -20 3 -11 12 10 10 17 10 32
0 17 -10 21 -9 32 11 12 21 13 20 16 -15 3 -31 7 -38 25 -38z m-1533 29 c0 -4
-7 -6 -15 -3 -8 4 -15 10 -15 15 0 4 7 6 15 3 8 -4 15 -10 15 -15z m136 -16
c-11 -11 -19 6 -11 24 8 17 8 17 12 0 3 -10 2 -21 -1 -24z m3834 2 c-7 -8 -16
-15 -21 -15 -5 0 -9 7 -9 15 0 9 9 15 21 15 18 0 19 -2 9 -15z m-3913 -21 c-7
-7 -37 7 -37 17 0 6 9 5 21 -1 11 -7 19 -14 16 -16z m-548 11 c-3 -2 -86 -20
-185 -39 l-179 -34 -238 -110 c-131 -60 -247 -118 -257 -127 -11 -10 -20 -14
-20 -8 0 22 45 46 278 153 232 106 248 112 390 139 138 27 221 37 211 26z
m598 -41 c-7 -7 -37 7 -37 17 0 6 9 5 21 -1 11 -7 19 -14 16 -16z m20 -6 c-3
-7 -5 -2 -5 12 0 14 2 19 5 13 2 -7 2 -19 0 -25z m4497 -5 c3 -16 8 -38 12
-50 3 -13 2 -23 -3 -23 -9 0 -33 64 -33 89 0 22 18 10 24 -16z m1671 7 c3 -5
1 -10 -4 -10 -6 0 -11 5 -11 10 0 6 2 10 4 10 3 0 8 -4 11 -10z m-5055 -15 c0
-10 -10 -15 -29 -15 -42 0 -48 18 -9 23 18 2 34 5 36 5 1 1 2 -5 2 -13z m374
7 c3 -5 1 -30 -3 -58 -5 -30 -10 -39 -11 -24 -1 14 -2 28 -1 32 0 4 -4 19 -9
33 -7 19 -6 25 5 25 7 0 16 -4 19 -8z m-188 -22 c19 0 34 -5 34 -11 0 -16
-169 -4 -184 12 -8 9 4 10 53 5 35 -3 79 -6 97 -6z m-511 -49 c3 -5 1 -12 -5
-16 -5 -3 -10 1 -10 9 0 18 6 21 15 7z m265 -28 c0 -7 -7 -13 -15 -13 -8 0
-15 6 -15 13 0 8 7 14 15 14 8 0 15 -6 15 -14z m3016 -3 c30 0 54 -4 54 -10 0
-5 -17 -10 -38 -10 -36 0 -38 -1 -34 -28 5 -38 -34 -106 -57 -96 -9 3 -35 9
-59 11 -23 3 -44 9 -47 12 -2 4 12 27 31 50 19 24 34 53 34 64 0 17 5 19 31
13 17 -3 56 -6 85 -6z m979 -42 c-10 -58 -8 -98 10 -216 18 -124 23 -114 -121
-262 -84 -87 -93 -100 -105 -153 -7 -32 -16 -60 -21 -63 -12 -8 -10 10 9 83
17 61 23 70 91 131 40 35 89 87 109 114 l36 50 -17 119 c-17 120 -14 239 6
239 6 0 7 -17 3 -42z m-3812 13 c-4 -18 -66 -51 -94 -51 -21 0 2 19 32 25 20
5 29 12 25 20 -3 8 0 16 7 19 25 10 35 6 30 -13z m227 10 c0 -6 -4 -13 -10
-16 -5 -3 -10 1 -10 9 0 9 5 16 10 16 6 0 10 -4 10 -9z m-930 -41 c0 -5 -7
-10 -17 -10 -9 0 -38 -14 -65 -31 -27 -17 -52 -29 -55 -25 -8 8 -8 7 51 45 50
31 86 40 86 21z m2955 0 c3 -5 2 -10 -4 -10 -5 0 -13 5 -16 10 -3 6 -2 10 4
10 5 0 13 -4 16 -10z m-2231 -132 c3 -72 2 -136 -2 -140 -5 -5 -12 34 -15 89
-9 132 -9 183 1 183 5 0 12 -59 16 -132z m4567 87 c-4 -40 -7 -43 -44 -53 -30
-8 -33 -6 -44 27 -15 44 -16 54 -3 46 6 -3 10 0 10 8 0 10 10 12 43 8 40 -6
42 -8 38 -36z m-5468 18 c-7 -2 -19 -2 -25 0 -7 3 -2 5 12 5 14 0 19 -2 13 -5z
m3307 3 c0 -3 -4 -8 -10 -11 -5 -3 -10 -1 -10 4 0 6 5 11 10 11 6 0 10 -2 10
-4z m71 -22 c12 -15 11 -16 -7 -10 -13 4 -26 1 -33 -8 -15 -17 -7 -36 15 -36
8 0 14 -5 14 -11 0 -15 -42 0 -57 20 -10 13 -7 20 15 38 33 27 36 27 53 7z
m-261 -36 c0 -7 -9 -24 -20 -38 -20 -26 -25 -16 -14 28 7 23 34 31 34 10z
m982 -18 c14 -10 28 -16 32 -13 3 3 6 -1 6 -10 0 -26 -18 -29 -34 -5 l-16 22
0 -26 c0 -26 16 -38 51 -38 10 0 19 -5 19 -11 0 -7 -9 -9 -22 -6 -13 3 -40 9
-61 13 -28 5 -37 10 -33 21 3 8 6 28 6 44 0 34 17 37 52 9z m-4647 1 c5 -9
-115 -51 -146 -51 -29 0 10 21 72 40 35 10 65 19 66 19 1 1 4 -3 8 -8z m1667
-33 c6 -12 5 -18 -2 -18 -13 0 -30 41 -22 55 3 5 8 2 10 -5 3 -8 9 -23 14 -32z
m4729 22 c6 0 8 -4 5 -9 -8 -12 -46 -2 -46 11 0 6 7 7 16 4 9 -3 20 -6 25 -6z
m-6603 -17 c7 -7 20 -13 28 -13 8 0 14 -4 14 -10 0 -5 -6 -10 -14 -10 -8 0
-22 -3 -32 -7 -13 -5 -16 -3 -11 10 5 14 0 17 -27 17 -18 0 -39 7 -46 14 -10
13 -5 15 32 13 24 -1 49 -8 56 -14z m4546 -38 c16 -12 17 -17 6 -30 -17 -21
-42 -15 -46 9 -5 37 9 44 40 21z m-32 -75 c33 0 35 -15 8 -50 l-20 -25 0 30 0
30 -19 -28 c-10 -16 -16 -38 -13 -50 4 -17 2 -19 -18 -14 -18 5 -12 -6 31 -51
110 -115 137 -147 144 -169 6 -22 4 -22 -47 -17 -57 6 -91 24 -45 24 15 0 27
6 28 13 0 6 3 4 7 -5 5 -12 11 -15 21 -8 12 7 -12 38 -110 141 -68 73 -116
130 -106 126 17 -7 55 8 70 28 4 6 5 21 2 33 -6 23 -5 23 17 8 12 -9 35 -16
50 -16z m-1972 -32 c0 -19 -20 -47 -20 -29 0 11 -3 11 -15 1 -12 -10 -15 -10
-15 2 0 18 20 38 37 38 7 0 13 -6 13 -12z m-1446 -85 c53 -68 106 -108 137
-101 8 2 14 -4 14 -12 0 -9 -9 -15 -22 -14 -18 0 -20 -4 -16 -31 5 -29 2 -33
-27 -44 -18 -6 -34 -11 -36 -11 -2 0 5 24 15 53 l19 53 -37 31 c-46 38 -132
148 -124 157 8 7 4 12 77 -81z m305 56 c-16 -10 -23 -4 -14 10 3 6 11 8 17 5
6 -4 5 -9 -3 -15z m-99 -28 c0 -12 -41 -22 -54 -13 -6 3 0 9 14 13 36 10 40
10 40 0z m765 -11 c-3 -5 -30 -22 -58 -37 -56 -28 -188 -45 -200 -25 -4 6 25
11 76 14 71 4 91 9 133 35 49 30 62 34 49 13z m1175 -76 c0 -18 -11 -23 -43
-17 -28 6 -38 23 -12 23 8 0 15 4 15 9 0 5 9 7 20 4 11 -3 20 -11 20 -19z
m2689 -9 c9 -8 27 -24 41 -35 24 -20 25 -20 6 -35 -30 -23 -59 -20 -51 5 10
33 -10 23 -22 -11 -11 -29 -15 -31 -44 -25 -29 5 -58 30 -59 49 0 4 13 7 30 7
21 0 36 8 52 30 25 35 26 35 47 15z m-1026 -77 c19 -25 26 -82 12 -96 -3 -4
-30 -6 -59 -6 -40 0 -52 -4 -49 -13 3 -7 0 -13 -6 -13 -6 0 -11 5 -11 10 0 6
-9 10 -20 10 -14 0 -19 6 -17 22 2 20 -4 23 -53 31 -30 5 -57 11 -58 12 -7 7
10 45 20 45 5 0 8 -7 4 -15 -3 -9 1 -16 9 -16 8 -1 21 -2 28 -3 6 -1 16 3 20
9 6 7 10 6 14 -2 8 -21 33 -15 33 8 0 15 5 19 15 15 9 -3 23 2 33 12 25 26 62
21 85 -10z m-1526 -19 c21 -8 23 -12 13 -24 -11 -13 -16 -13 -41 1 -33 17 -33
17 -17 47 11 20 13 20 16 4 2 -10 15 -22 29 -28z m3118 31 c4 -6 15 -6 30 0
21 8 25 6 25 -8 1 -16 1 -16 11 1 15 26 29 21 29 -11 0 -33 -16 -52 -43 -52
-15 0 -18 6 -15 29 3 23 1 27 -13 24 -26 -7 -38 -107 -15 -132 22 -24 20 -28
-13 -33 -27 -4 -29 -1 -35 31 -3 20 -6 48 -6 64 0 24 -4 27 -31 27 -28 0 -31
3 -25 23 3 12 6 28 6 35 0 14 86 17 95 2z m-709 -16 c-3 -9 -6 -21 -6 -28 0
-7 -25 -30 -55 -50 l-55 -36 0 34 c0 31 3 34 46 46 30 9 49 20 52 32 2 10 9
18 14 18 6 0 7 -7 4 -16z m474 2 c0 -3 -4 -8 -10 -11 -5 -3 -10 -1 -10 4 0 6
5 11 10 11 6 0 10 -2 10 -4z m-4529 -26 c11 -6 19 -21 19 -35 0 -20 -5 -25
-24 -25 -46 0 -55 9 -44 41 11 31 19 35 49 19z m4449 -62 c0 -5 -3 -8 -7 -8
-10 0 -53 63 -53 76 1 10 59 -57 60 -68z m-1210 22 c21 -42 55 -54 66 -25 9
22 24 18 24 -5 0 -11 6 -20 13 -20 14 -1 -23 -24 -38 -25 -12 0 -12 -4 -1 -67
9 -50 14 -56 34 -36 17 17 76 11 242 -24 143 -30 148 -31 340 -24 107 3 246 9
308 13 69 4 112 2 112 -4 0 -5 -124 -14 -304 -21 l-303 -13 -114 25 c-63 13
-130 27 -149 30 -127 20 -114 22 -153 -26 -20 -23 -45 -54 -56 -68 -10 -14
-22 -22 -25 -19 -3 3 10 26 30 52 33 42 35 49 29 91 -5 33 -12 46 -24 46 -26
-1 -191 -37 -198 -44 -3 -3 2 -15 12 -26 10 -11 16 -22 13 -25 -6 -6 -148 148
-148 161 0 4 13 -5 29 -20 21 -20 30 -24 34 -14 3 8 6 5 7 -7 0 -11 6 -27 13
-36 12 -16 21 -15 119 5 59 11 110 24 113 28 4 4 -9 37 -29 73 -19 36 -31 65
-26 65 5 0 19 -18 30 -40z m-1230 -1 c0 -10 -7 -11 -37 -3 -34 9 -28 21 7 16
17 -2 30 -8 30 -13z m918 -91 c-7 -13 -12 -27 -13 -31 0 -9 -26 -27 -40 -27
-5 1 -3 6 5 13 23 18 22 37 -1 37 -11 0 -18 4 -15 9 3 5 15 7 25 4 10 -3 22 0
25 6 14 22 27 11 14 -11z m1620 -24 c12 -4 22 -12 22 -20 0 -7 -6 -11 -14 -8
-8 3 -17 1 -21 -5 -3 -6 -15 -11 -25 -11 -17 0 -18 3 -8 25 12 27 13 27 46 19z
m-3286 -64 c-3 -31 -8 -35 -26 -21 -12 10 -13 21 -7 49 1 2 9 2 19 0 11 -3 16
-12 14 -28z m1118 -9 c0 -5 -13 -11 -29 -14 -16 -3 -42 -9 -57 -13 -41 -10
-21 8 24 22 47 15 62 16 62 5z m-1087 -58 c9 3 23 -13 42 -47 24 -45 35 -55
77 -70 57 -20 65 -46 14 -46 -33 0 -34 -2 -41 -47 -4 -27 -14 -56 -22 -65 -8
-9 -15 -33 -15 -53 0 -23 -7 -44 -19 -56 -10 -10 -19 -25 -19 -32 0 -8 -3 -17
-6 -20 -4 -4 -8 -22 -10 -42 -4 -43 -39 -95 -63 -95 -31 0 -44 103 -15 114 13
5 15 16 12 51 -5 38 -2 46 18 59 12 9 25 25 29 36 5 16 14 20 33 18 22 -2 30
3 44 32 10 19 17 45 18 57 0 39 11 53 42 53 36 0 28 16 -13 25 -17 4 -40 16
-50 26 -14 14 -19 15 -19 5 0 -7 7 -19 15 -26 17 -14 20 -40 5 -40 -23 0 -40
68 -25 103 5 12 3 17 -9 17 -9 0 -16 5 -16 11 0 6 -7 8 -16 5 -20 -8 -84 22
-84 39 0 22 33 23 57 2 12 -11 28 -17 36 -14z m3151 -70 c-11 -31 -42 -73 -86
-119 -37 -40 -68 -79 -68 -87 0 -9 -5 -19 -11 -23 -9 -5 -10 1 -5 21 4 15 38
62 75 104 42 47 75 95 86 126 10 27 20 44 23 37 2 -6 -4 -33 -14 -59z m-234
47 c0 -5 8 -10 18 -11 10 0 12 -3 4 -6 -6 -2 -10 -9 -6 -14 7 -12 -3 -11 -26
1 -11 6 -17 17 -14 25 7 17 24 20 24 5z m-2340 -10 c0 -5 -4 -10 -10 -10 -5 0
-10 5 -10 10 0 6 5 10 10 10 6 0 10 -4 10 -10z m671 -11 c11 -5 17 -14 14 -20
-4 -5 3 -9 14 -9 12 0 21 6 21 13 0 8 11 14 29 14 25 0 28 -4 27 -30 -1 -17
-7 -32 -14 -35 -21 -7 -13 -19 18 -25 17 -4 30 -12 30 -18 0 -6 -7 -9 -15 -5
-10 4 -15 -1 -15 -14 0 -30 -40 -27 -41 3 l0 22 -16 -22 c-12 -18 -25 -23 -61
-23 -51 0 -82 21 -82 54 1 20 2 20 14 3 11 -15 20 -16 66 -7 29 5 54 10 56 10
2 0 4 5 4 11 0 8 -15 10 -44 7 -40 -5 -45 -3 -56 20 -9 22 -9 28 4 38 9 6 13
14 9 17 -10 11 16 8 38 -4z m2069 -39 c0 -5 -4 -10 -9 -10 -6 0 -13 5 -16 10
-3 6 1 10 9 10 9 0 16 -4 16 -10z m-1336 -64 c25 -29 46 -57 46 -61 0 -11 -45
32 -82 78 -46 57 -15 44 36 -17z m-1697 18 c2 -6 -6 -14 -18 -17 -13 -4 -18
-10 -14 -18 5 -7 3 -10 -6 -7 -8 3 -15 16 -16 29 -1 21 3 25 24 24 15 0 28 -5
30 -11z m1456 -1 c-13 -8 -23 -23 -23 -32 0 -9 -5 -23 -10 -31 -7 -11 -10 -5
-10 23 0 30 5 40 23 47 34 14 44 11 20 -7z m-1763 -58 c0 -7 6 -16 13 -19 9
-4 9 -8 1 -11 -7 -3 -10 -15 -7 -25 5 -18 0 -20 -44 -20 -27 0 -54 -5 -61 -12
-8 -8 -14 -5 -22 16 -17 45 -13 69 10 63 15 -4 22 1 26 17 3 12 17 28 32 37
26 14 28 14 40 -9 6 -13 12 -30 12 -37z m1840 44 c0 -5 5 -7 10 -4 22 14 8
-18 -19 -43 -17 -15 -39 -48 -51 -75 -12 -26 -34 -57 -51 -69 -38 -28 -24 -44
25 -28 38 12 43 19 25 37 -8 8 -4 15 12 27 13 9 26 16 29 16 3 0 6 -29 8 -65
2 -61 1 -65 -20 -66 -13 -1 -27 -1 -32 0 -4 1 -14 -3 -20 -9 -16 -12 -26 -3
-26 22 0 11 -5 18 -12 15 -7 -2 -17 2 -23 10 -7 9 -19 10 -40 5 -24 -7 -46 -1
-113 30 -46 21 -99 38 -118 38 -19 0 -34 5 -34 10 0 21 62 8 154 -32 l95 -41
48 24 c38 20 53 35 75 78 15 30 35 62 44 72 11 12 12 18 3 21 -17 6 -4 38 16
38 8 0 15 -5 15 -11z m-1990 -29 c0 -11 -139 -54 -148 -46 -8 9 -4 11 73 33
39 12 71 21 73 22 1 1 2 -3 2 -9z m1028 -59 c18 -22 32 -45 32 -52 0 -6 14
-27 30 -46 17 -18 30 -43 30 -53 0 -24 4 -24 -52 -4 -41 14 -46 19 -50 49 -2
19 0 42 5 50 5 9 4 15 -3 15 -5 0 -10 9 -10 20 0 26 -45 49 -62 32 -9 -9 -8
-18 1 -38 8 -19 9 -30 1 -38 -17 -17 -11 -55 12 -67 19 -10 19 -12 5 -21 -12
-6 -24 -4 -41 9 -30 22 -37 53 -20 84 8 15 9 31 3 47 -17 45 -12 52 39 52 45
0 51 -3 80 -39z m1074 12 c10 -9 18 -23 18 -31 0 -9 -3 -13 -6 -9 -4 3 -22 0
-40 -8 -19 -8 -34 -10 -34 -4 0 5 12 14 27 20 20 7 23 13 15 21 -27 27 -9 37
20 11z m-3787 -67 c-16 -24 -16 -28 3 -61 12 -19 17 -37 12 -40 -10 -6 -50 59
-50 82 0 20 43 68 48 54 2 -5 -4 -21 -13 -35z m1635 3 c0 -9 -37 -18 -44 -11
-3 3 -6 16 -6 29 0 24 0 24 25 6 13 -10 25 -21 25 -24z m322 -21 c-9 -9 -15
-9 -24 0 -10 10 -10 15 2 22 20 12 38 -6 22 -22z m2548 -35 c0 -7 -4 -13 -10
-13 -5 0 -10 12 -10 28 0 21 2 24 10 12 5 -8 10 -21 10 -27z m316 -28 c-10
-25 -31 -54 -47 -66 -35 -25 -39 -8 -4 19 14 11 25 23 25 26 0 4 7 23 15 43
22 52 31 32 11 -22z m-1103 -11 c-6 -16 -29 -19 -38 -4 -3 6 1 10 10 10 12 0
15 5 11 16 -5 14 -4 15 8 5 8 -7 12 -19 9 -27z m-3598 16 c3 -6 -4 -10 -17
-10 -18 0 -20 2 -8 10 19 12 18 12 25 0z m4385 -21 c0 -7 10 -9 25 -7 14 3 25
1 25 -3 0 -15 -52 -18 -62 -4 -11 14 -10 25 2 25 6 0 10 -5 10 -11z m-3250
-19 c0 -5 -2 -10 -4 -10 -3 0 -8 5 -11 10 -3 6 -1 10 4 10 6 0 11 -4 11 -10z
m50 -5 c-7 -9 -15 -13 -17 -11 -7 7 7 26 19 26 6 0 6 -6 -2 -15z m2620 -20
c11 -13 15 -13 21 -3 6 10 12 8 24 -9 9 -13 22 -23 28 -23 13 0 41 -39 33 -47
-2 -3 2 -23 10 -45 8 -22 14 -42 14 -43 0 -8 -69 -43 -74 -38 -3 3 -1 14 5 24
8 15 6 19 -7 19 -9 0 -40 15 -70 32 -45 27 -54 38 -54 60 0 23 4 28 24 28 13
0 26 7 30 15 3 8 1 15 -4 15 -6 0 -10 7 -10 15 0 19 14 19 30 0z m1315 -126
c23 -23 -29 -5 -149 51 -71 33 -130 60 -131 60 -1 0 -7 -19 -14 -42 -14 -47
-88 -168 -103 -168 -5 0 -1 14 9 30 9 17 20 30 24 30 9 0 58 111 65 147 l6 30
141 -64 c78 -36 146 -69 152 -74z m-3971 47 c-3 -9 3 -17 16 -21 12 -4 26 -18
32 -31 15 -32 -9 -59 -44 -51 -12 3 -26 6 -31 6 -22 1 -69 35 -77 56 -11 30
-21 31 -45 5 -10 -11 -23 -20 -28 -20 -6 0 1 13 16 28 25 26 32 28 87 24 40
-3 60 -1 60 7 0 6 4 11 10 11 5 0 7 -6 4 -14z m466 -102 c0 -21 -4 -33 -10
-29 -5 3 -10 1 -10 -5 0 -7 -8 -9 -19 -5 -13 4 -23 0 -30 -12 -5 -10 -13 -15
-17 -11 -3 4 -15 3 -25 -3 -15 -7 -19 -6 -19 6 0 8 5 15 10 15 6 0 10 9 10 20
0 25 9 25 26 3 12 -17 13 -17 14 3 0 13 12 26 33 36 17 8 33 16 35 17 1 0 2
-15 2 -35z m-2154 -21 c-10 -10 -19 5 -10 18 6 11 8 11 12 0 2 -7 1 -15 -2
-18z m4528 -12 c10 -11 16 -25 14 -32 -2 -7 -14 1 -27 19 -24 35 -15 44 13 13z
m129 -1 c3 -11 1 -20 -4 -20 -5 0 -9 9 -9 20 0 11 2 20 4 20 2 0 6 -9 9 -20z
m712 -1 c12 -19 -5 -23 -22 -6 -16 16 -16 17 -1 17 9 0 20 -5 23 -11z m-5389
-25 c-4 -9 -9 -15 -11 -12 -3 3 -3 13 1 22 4 9 9 15 11 12 3 -3 3 -13 -1 -22z
m5254 -12 c0 -12 -63 -92 -72 -92 -12 0 -10 5 23 46 30 39 31 39 10 53 -32 21
-25 34 9 16 17 -9 30 -19 30 -23z m-3961 -29 c-32 -54 -218 -311 -230 -318
-21 -13 -4 13 89 143 54 75 111 158 127 184 17 27 31 43 33 38 2 -5 -7 -27
-19 -47z m3391 13 c0 -7 7 -19 15 -26 16 -14 20 -30 7 -30 -5 0 -14 12 -21 26
-11 26 -12 26 -26 8 -12 -15 -14 -16 -15 -3 0 16 19 39 32 39 4 0 8 -6 8 -14z
m-2640 -16 c-6 -11 -8 -25 -5 -30 3 -6 1 -10 -4 -10 -19 0 -12 -48 7 -53 11
-3 8 -5 -9 -6 -15 0 -33 7 -40 16 -12 15 -12 16 5 10 18 -7 18 -6 2 18 -13 20
-14 25 -3 25 8 0 19 11 25 25 6 14 16 25 22 25 7 0 7 -6 0 -20z m-2060 3 c0
-14 -19 -38 -25 -32 -8 8 5 39 16 39 5 0 9 -3 9 -7z m2285 -37 c14 -17 68 -41
180 -79 201 -69 295 -107 295 -118 0 -5 -30 3 -67 17 -38 14 -144 52 -238 85
-116 41 -175 67 -187 82 -32 41 -17 53 17 13z m2365 -16 c0 -13 -5 -18 -15
-14 -12 5 -13 10 -4 20 15 19 19 18 19 -6z m1127 -1 c19 -12 42 -22 51 -23 21
-1 82 -37 82 -48 0 -11 -7 -10 -41 8 -28 14 -34 14 -62 0 -29 -14 -32 -14 -38
2 -4 10 -14 24 -23 31 -15 13 -23 51 -10 51 4 0 22 -10 41 -21z m-5811 -15
c-4 -9 -9 -15 -11 -12 -3 3 -3 13 1 22 4 9 9 15 11 12 3 -3 3 -13 -1 -22z
m4387 -37 c3 -30 17 -77 31 -106 15 -28 23 -51 18 -51 -16 0 -60 108 -67 165
-5 37 -4 56 2 52 6 -4 13 -31 16 -60z m347 54 c0 -5 -7 -12 -16 -15 -24 -9
-28 -7 -14 9 14 17 30 20 30 6z m-5910 -51 c0 -5 -9 -10 -21 -10 -11 0 -17 5
-14 10 3 6 13 10 21 10 8 0 14 -4 14 -10z m-60 -9 c0 -5 -9 -11 -20 -14 -11
-3 -20 -1 -20 3 0 5 8 11 18 13 9 3 18 5 20 6 1 0 2 -3 2 -8z m1220 0 c0 -6
-4 -13 -10 -16 -5 -3 -10 1 -10 9 0 9 5 16 10 16 6 0 10 -4 10 -9z m5068 -16
c13 -29 16 -55 5 -55 -3 0 -14 7 -24 16 -14 13 -20 13 -38 2 -12 -7 -21 -18
-21 -25 0 -16 1 -16 36 -3 22 9 29 8 36 -5 5 -8 13 -13 19 -10 5 4 18 3 29 0
16 -5 20 -15 20 -46 0 -22 -5 -49 -10 -60 -12 -21 -50 -26 -50 -6 0 9 -3 8 -9
-2 -7 -11 -13 -10 -32 3 -17 10 -29 12 -39 6 -8 -5 -23 -10 -33 -10 -14 0 -16
4 -7 19 7 14 7 22 0 26 -18 11 -2 23 24 18 13 -3 27 0 30 6 4 5 13 8 20 5 7
-3 19 2 26 11 13 15 10 16 -32 10 -42 -6 -47 -5 -53 17 -4 12 -19 33 -33 45
-24 20 -25 23 -8 29 10 4 27 2 38 -5 16 -10 24 -8 49 14 38 31 43 31 57 0z
m-6353 -5 c-3 -5 -13 -10 -21 -10 -8 0 -14 5 -14 10 0 6 9 10 21 10 11 0 17
-4 14 -10z m-55 -10 c0 -5 -9 -10 -21 -10 -11 0 -17 5 -14 10 3 6 13 10 21 10
8 0 14 -4 14 -10z m466 -11 c3 -5 1 -9 -5 -9 -17 0 -41 12 -41 20 0 10 38 1
46 -11z m5459 -11 c37 -19 63 -38 61 -44 -9 -23 8 -24 31 -2 l23 21 0 -55 c0
-47 -3 -56 -20 -61 -11 -3 -22 -1 -25 4 -11 16 -34 -3 -45 -37 -6 -19 -17 -34
-23 -34 -31 0 -56 14 -60 32 -5 18 -2 20 22 15 23 -5 30 -1 39 19 10 20 9 24
-6 24 -10 0 -23 -5 -30 -12 -9 -9 -12 -5 -12 20 0 21 -6 35 -16 39 -16 6 -16
7 0 18 14 11 15 14 1 25 -14 11 -22 60 -10 60 2 0 34 -15 70 -32z m-5985 12
c0 -5 -10 -10 -22 -9 -22 0 -22 1 -3 9 11 5 21 9 23 9 1 1 2 -3 2 -9z m580
-10 c12 -8 11 -10 -7 -10 -12 0 -25 5 -28 10 -8 13 15 13 35 0z m794 -5 c-4
-8 -10 -15 -15 -15 -4 0 -6 7 -3 15 4 8 10 15 15 15 4 0 6 -7 3 -15z m-1434
-5 c-19 -13 -30 -13 -30 0 0 6 10 10 23 10 18 0 19 -2 7 -10z m-55 -10 c-3 -5
-13 -10 -21 -10 -8 0 -12 5 -9 10 3 6 13 10 21 10 8 0 12 -4 9 -10z m755 1 c0
-5 -9 -7 -20 -4 -11 3 -20 7 -20 9 0 2 9 4 20 4 11 0 20 -4 20 -9z m-810 -10
c0 -5 -9 -11 -20 -14 -22 -6 -28 8 -7 16 19 8 27 8 27 -2z m870 -1 c0 -5 -6
-10 -14 -10 -8 0 -18 5 -21 10 -3 6 3 10 14 10 12 0 21 -4 21 -10z m50 -10
c12 -8 11 -10 -7 -10 -13 0 -23 5 -23 10 0 13 11 13 30 0z m-990 -10 c-19 -13
-30 -13 -30 0 0 6 10 10 23 10 18 0 19 -2 7 -10z m1581 -23 c-8 -8 -11 -7 -11
4 0 20 13 34 18 19 3 -7 -1 -17 -7 -23z m-1621 -4 c-1 -25 -2 -26 -14 -10 -7
9 -19 17 -25 17 -7 0 -9 5 -6 10 3 6 15 10 26 10 14 0 19 -7 19 -27z m1100 17
c0 -5 -6 -10 -14 -10 -8 0 -18 5 -21 10 -3 6 3 10 14 10 12 0 21 -4 21 -10z
m-1180 -20 c-8 -5 -18 -6 -24 -3 -5 4 -1 10 10 13 24 9 34 2 14 -10z m1230 10
c12 -8 11 -10 -7 -10 -13 0 -23 5 -23 10 0 13 11 13 30 0z m-1275 -20 c-3 -5
-15 -10 -26 -10 -11 0 -17 5 -14 10 3 6 15 10 26 10 11 0 17 -4 14 -10z m1335
1 c0 -5 -9 -7 -20 -4 -11 3 -20 7 -20 9 0 2 9 4 20 4 11 0 20 -4 20 -9z
m-1390 -10 c0 -5 -9 -11 -20 -14 -22 -6 -28 8 -7 16 19 8 27 8 27 -2z m1445
-1 c3 -5 -1 -10 -9 -10 -8 0 -18 5 -21 10 -3 6 1 10 9 10 8 0 18 -4 21 -10z
m65 -20 c0 -5 -9 -6 -20 -3 -11 3 -20 9 -20 13 0 5 9 6 20 3 11 -3 20 -9 20
-13z m271 -7 c-8 -15 -10 -15 -11 -2 0 17 10 32 18 25 2 -3 -1 -13 -7 -23z
m-1588 -8 c4 -8 2 -17 -2 -20 -5 -2 -11 4 -14 15 -6 23 8 27 16 5z m1377 5 c0
-5 -6 -10 -14 -10 -8 0 -18 5 -21 10 -3 6 3 10 14 10 12 0 21 -4 21 -10z m50
-10 c12 -8 11 -10 -7 -10 -13 0 -23 5 -23 10 0 13 11 13 30 0z m60 -20 c0 -13
-11 -13 -30 0 -12 8 -11 10 8 10 12 0 22 -4 22 -10z m106 -20 c8 0 14 -4 14
-9 0 -11 -82 6 -95 21 -7 7 -2 9 17 4 17 -4 30 -1 35 6 5 10 8 8 11 -4 2 -10
10 -18 18 -18z m4781 4 c7 -18 -17 -38 -31 -24 -11 11 -1 40 14 40 6 0 13 -7
17 -16z m-6357 -26 c0 -5 -4 -8 -10 -8 -5 0 -10 10 -10 23 0 18 2 19 10 7 5
-8 10 -18 10 -22z m1645 2 c3 -5 -1 -10 -9 -10 -8 0 -18 5 -21 10 -3 6 1 10 9
10 8 0 18 -4 21 -10z m55 -10 c12 -8 11 -10 -7 -10 -13 0 -23 5 -23 10 0 13
11 13 30 0z m-160 -7 c0 -14 -19 -38 -25 -32 -8 8 5 39 16 39 5 0 9 -3 9 -7z
m225 -13 c3 -5 -1 -10 -9 -10 -8 0 -18 5 -21 10 -3 6 1 10 9 10 8 0 18 -4 21
-10z m-1747 -20 c7 -11 9 -20 4 -20 -10 0 -32 22 -32 32 0 15 15 8 28 -12z
m1802 10 c12 -8 11 -10 -7 -10 -13 0 -23 5 -23 10 0 13 11 13 30 0z m-1845
-20 c-3 -5 -13 -10 -21 -10 -8 0 -14 5 -14 10 0 6 9 10 21 10 11 0 17 -4 14
-10z m1905 0 c0 -13 -11 -13 -30 0 -12 8 -11 10 8 10 12 0 22 -4 22 -10z
m-1970 -20 c-8 -5 -18 -6 -24 -3 -5 4 -1 10 10 13 24 9 34 2 14 -10z m1603 -5
c-5 -13 -23 -22 -23 -11 0 15 14 35 21 31 4 -3 6 -12 2 -20z m422 15 c3 -5 -1
-10 -9 -10 -8 0 -18 5 -21 10 -3 6 1 10 9 10 8 0 18 -4 21 -10z m100 -28 c-7
-7 -75 8 -75 17 0 5 18 3 40 -2 22 -6 37 -13 35 -15z m1800 18 c-3 -5 -31 -10
-61 -10 -30 0 -54 5 -54 10 0 6 27 10 61 10 37 0 58 -4 54 -10z m-3970 -10
c-3 -5 -15 -10 -26 -10 -11 0 -17 5 -14 10 3 6 15 10 26 10 11 0 17 -4 14 -10z
m205 -5 c7 -8 8 -15 2 -15 -5 0 -15 7 -22 15 -7 8 -8 15 -2 15 5 0 15 -7 22
-15z m-270 -15 c-19 -13 -30 -13 -30 0 0 6 10 10 23 10 18 0 19 -2 7 -10z
m-50 -10 c0 -5 -10 -10 -22 -10 -19 0 -20 2 -8 10 19 13 30 13 30 0z m370 -15
c7 -8 8 -15 2 -15 -5 0 -15 7 -22 15 -7 8 -8 15 -2 15 5 0 15 -7 22 -15z
m1361 -18 c-8 -8 -11 -7 -11 4 0 20 13 34 18 19 3 -7 -1 -17 -7 -23z m520 0
c-8 -8 -11 -7 -11 4 0 20 13 34 18 19 3 -7 -1 -17 -7 -23z m-1833 -25 c2 -7
-2 -10 -12 -6 -9 3 -16 11 -16 16 0 13 23 5 28 -10z m1293 -29 c-10 -17 -10
-16 -11 3 0 23 13 41 18 25 2 -6 -1 -18 -7 -28z m539 20 c0 -5 -5 -15 -10 -23
-8 -12 -10 -11 -10 8 0 12 5 22 10 22 6 0 10 -3 10 -7z m-1785 -24 c11 -17 0
-20 -21 -4 -17 13 -17 14 -2 15 9 0 20 -5 23 -11z"/>
<path d="M989 6488 c-15 -27 -11 -37 24 -58 34 -21 48 -25 45 -12 -1 4 3 17
10 30 8 14 9 22 2 22 -5 0 -10 8 -10 18 0 23 -58 24 -71 0z"/>
<path d="M1118 6473 c-27 -4 -28 -5 -13 -34 13 -24 19 -28 35 -19 13 7 21 7
25 -1 9 -13 34 19 35 44 0 17 -18 20 -82 10z"/>
<path d="M1080 6431 c0 -6 4 -13 10 -16 6 -3 7 1 4 9 -7 18 -14 21 -14 7z"/>
<path d="M1145 6400 c-3 -5 -1 -10 4 -10 6 0 11 5 11 10 0 6 -2 10 -4 10 -3 0
-8 -4 -11 -10z"/>
<path d="M2990 3149 c0 -5 5 -7 10 -4 6 3 10 8 10 11 0 2 -4 4 -10 4 -5 0 -10
-5 -10 -11z"/>
<path d="M5805 3510 c-3 -5 -2 -10 4 -10 5 0 13 5 16 10 3 6 2 10 -4 10 -5 0
-13 -4 -16 -10z"/>
<path d="M1025 3341 c-3 -6 4 -15 15 -21 17 -9 20 -8 20 10 0 20 -24 28 -35
11z"/>
<path d="M940 3321 c0 -5 6 -11 13 -14 9 -3 7 -10 -6 -24 -17 -20 -17 -21 8
-25 21 -4 26 -1 32 20 4 18 1 29 -12 39 -22 15 -35 17 -35 4z"/>
<path d="M1006 3285 c-3 -9 -6 -22 -5 -28 0 -7 5 -1 10 12 5 13 8 26 5 28 -2
2 -6 -3 -10 -12z"/>
<path d="M1040 3120 c0 -19 1 -31 3 -29 1 2 8 11 15 20 10 13 9 19 -3 29 -13
11 -15 8 -15 -20z"/>
<path d="M951 3051 c13 -11 28 -17 32 -14 5 3 -4 11 -18 19 -37 19 -42 18 -14
-5z"/>
<path d="M949 2941 c-20 -16 -21 -21 -10 -35 12 -15 71 -23 71 -11 0 9 -30 65
-34 65 -2 0 -14 -8 -27 -19z"/>
<path d="M3143 2664 c-7 -19 11 -39 26 -30 16 10 13 33 -4 40 -9 3 -18 -1 -22
-10z"/>
<path d="M7655 2916 c-9 -13 -30 -27 -48 -31 l-32 -8 29 -4 c40 -6 76 -31 76
-54 0 -25 -14 -31 -46 -19 -30 12 -48 4 -24 -10 8 -5 34 -21 58 -35 23 -14 42
-21 42 -16 0 6 -7 11 -15 11 -19 0 -19 9 2 32 13 15 14 23 4 44 -6 14 -20 28
-31 31 -24 6 -25 15 -5 53 19 36 12 40 -10 6z"/>
<path d="M7433 2746 c4 -22 12 -44 18 -50 9 -8 10 -1 6 28 -4 22 -12 44 -18
50 -9 8 -10 1 -6 -28z"/>
<path d="M7470 2683 c0 -5 5 -15 10 -23 8 -12 10 -11 10 8 0 12 -4 22 -10 22
-5 0 -10 -3 -10 -7z"/>
<path d="M7905 2210 c3 -5 8 -10 11 -10 2 0 4 5 4 10 0 6 -5 10 -11 10 -5 0
-7 -4 -4 -10z"/>
<path d="M5201 2724 c0 -11 3 -14 6 -6 3 7 2 16 -1 19 -3 4 -6 -2 -5 -13z"/>
<path d="M5682 2171 c-11 -7 -10 -10 3 -15 23 -9 25 -8 25 9 0 17 -9 19 -28 6z"/>
<path d="M5624 2119 c-25 -27 -26 -31 -8 -25 12 4 34 2 49 -4 23 -9 32 -8 44
5 15 15 14 18 -9 35 -34 26 -41 25 -76 -11z"/>
<path d="M2476 1633 c-6 -14 -5 -15 5 -6 7 7 10 15 7 18 -3 3 -9 -2 -12 -12z"/>
<path d="M7180 1685 c-13 -14 -30 -25 -37 -25 -8 0 -11 -4 -8 -10 3 -5 16 -10
29 -10 17 0 25 8 33 35 6 19 10 35 9 35 -1 0 -13 -11 -26 -25z"/>
<path d="M7240 1675 c0 -8 7 -15 15 -15 8 0 15 4 15 9 0 5 -7 11 -15 15 -9 3
-15 0 -15 -9z"/>
<path d="M6130 1630 c-12 -7 -12 -12 0 -34 16 -31 22 -32 45 -6 31 35 -3 67
-45 40z"/>
<path d="M7727 1639 c8 -8 16 -8 30 0 16 9 14 10 -11 11 -22 0 -27 -3 -19 -11z"/>
<path d="M7857 1623 c-4 -3 -7 -11 -7 -17 0 -6 5 -5 12 2 6 6 9 14 7 17 -3 3
-9 2 -12 -2z"/>
<path d="M7752 1608 c9 -7 19 -26 21 -43 3 -24 4 -21 6 13 1 37 -2 42 -21 42
-19 0 -20 -1 -6 -12z"/>
<path d="M7770 1506 c0 -9 5 -16 10 -16 6 0 10 4 10 9 0 6 -4 13 -10 16 -5 3
-10 -1 -10 -9z"/>
<path d="M7008 1593 c-10 -2 -18 -11 -18 -19 0 -12 4 -12 25 2 36 23 34 28 -7
17z"/>
<path d="M3015 1590 c-3 -5 1 -10 10 -10 9 0 13 5 10 10 -3 6 -8 10 -10 10 -2
0 -7 -4 -10 -10z"/>
<path d="M4297 985 c-23 -29 -27 -42 -22 -66 5 -21 11 -29 22 -25 8 3 17 6 19
6 2 0 4 7 4 15 0 8 9 23 20 32 23 20 26 43 8 61 -17 17 -20 16 -51 -23z"/>
<path d="M4257 863 c-13 -12 -8 -83 6 -83 15 0 47 51 47 74 0 16 -40 23 -53 9z"/>
<path d="M5540 1265 c-7 -9 -9 -19 -5 -23 4 -4 10 -1 12 6 3 6 9 10 14 6 5 -3
9 2 9 10 0 20 -14 20 -30 1z"/>
<path d="M5593 1243 c9 -2 23 -2 30 0 6 3 -1 5 -18 5 -16 0 -22 -2 -12 -5z"/>
<path d="M5545 1170 c-27 -7 -25 -8 18 -9 26 0 47 4 47 9 0 11 -21 11 -65 0z"/>
<path d="M5071 1036 c-8 -13 -11 -30 -8 -38 3 -8 6 -5 6 8 1 11 6 25 13 32 6
6 9 14 7 17 -3 3 -11 -6 -18 -19z"/>
<path d="M5182 1020 c0 -14 2 -19 5 -12 2 6 2 18 0 25 -3 6 -5 1 -5 -13z"/>
<path d="M5206 995 c-8 -21 -1 -31 24 -38 26 -7 26 14 1 37 -17 15 -19 16 -25
1z"/>
<path d="M6410 839 c0 -9 7 -22 15 -29 19 -16 19 0 0 26 -12 16 -14 16 -15 3z"/>
<path d="M6355 830 c4 -6 11 -8 16 -5 14 9 11 15 -7 15 -8 0 -12 -5 -9 -10z"/>
<path d="M6366 795 c10 -8 24 -14 29 -14 6 0 1 6 -9 14 -11 8 -24 15 -30 15
-5 0 -1 -7 10 -15z"/>
<path d="M6487 753 c-4 -3 -7 -11 -7 -17 0 -6 5 -5 12 2 6 6 9 14 7 17 -3 3
-9 2 -12 -2z"/>
<path d="M3646 785 c4 -8 11 -16 18 -17 6 0 16 -2 21 -2 6 -1 20 -7 32 -14 31
-17 53 -15 53 6 0 24 -40 42 -90 42 -31 0 -38 -3 -34 -15z"/>
<path d="M4170 720 c0 -5 5 -10 10 -10 6 0 10 5 10 10 0 6 -4 10 -10 10 -5 0
-10 -4 -10 -10z"/>
<path d="M7773 549 c9 -5 17 -16 17 -24 0 -9 6 -12 17 -8 14 6 13 9 -7 25 -12
10 -27 18 -34 18 -6 0 -3 -5 7 -11z"/>
<path d="M7030 385 c-8 -10 -9 -15 -1 -15 6 0 11 -13 11 -30 0 -20 5 -30 15
-30 10 0 16 11 17 30 0 17 1 36 2 42 2 19 -29 21 -44 3z"/>
<path d="M7008 355 c-3 -3 -22 -6 -42 -7 -23 -1 -36 -6 -36 -15 0 -10 5 -11
17 -5 12 7 24 5 39 -5 20 -13 23 -12 29 7 7 21 3 35 -7 25z"/>
<path d="M6490 459 c0 -7 8 -21 17 -31 15 -17 15 -20 3 -28 -13 -8 -12 -10 3
-10 9 0 17 5 17 10 0 6 9 14 20 18 17 6 14 10 -20 30 -25 14 -40 18 -40 11z"/>
<path d="M6622 382 l-23 -18 21 -19 c25 -22 32 -16 28 24 -3 30 -3 30 -26 13z"/>
<path d="M6564 365 c-10 -8 -14 -15 -8 -15 6 0 17 7 24 15 16 19 9 19 -16 0z"/>
<path d="M7920 7993 c0 -20 45 -143 53 -143 4 0 6 -3 3 -8 -2 -4 2 -18 10 -32
12 -23 13 -14 14 83 l0 107 -40 0 c-22 0 -40 -3 -40 -7z"/>
<path d="M2414 215 c-3 -7 -4 -22 -2 -31 3 -17 4 -17 21 0 21 21 22 32 2 40
-9 3 -18 -1 -21 -9z"/>
<path d="M3173 186 c-29 -14 -29 -21 2 -52 14 -14 25 -30 26 -37 0 -7 7 8 15
33 21 67 9 82 -43 56z"/>
<path d="M3124 108 c9 -59 26 -108 37 -108 5 0 9 9 9 19 0 11 5 23 10 26 18
11 11 42 -17 74 -37 42 -47 39 -39 -11z"/>
<path d="M3080 91 c0 -42 15 -46 17 -5 1 19 -3 34 -8 34 -5 0 -9 -13 -9 -29z"/>
<path d="M3181 14 c0 -11 3 -14 6 -6 3 7 2 16 -1 19 -3 4 -6 -2 -5 -13z"/>
<path d="M3310 15 c0 -8 5 -15 10 -15 6 0 10 7 10 15 0 8 -4 15 -10 15 -5 0
-10 -7 -10 -15z"/>
</g>
</svg>
