<?xml version="1.0" standalone="no"?>
<!DOCTYPE svg PUBLIC "-//W3C//DTD SVG 20010904//EN"
 "http://www.w3.org/TR/2001/REC-SVG-20010904/DTD/svg10.dtd">
<svg version="1.0" xmlns="http://www.w3.org/2000/svg"
 width="800.000000pt" height="800.000000pt" viewBox="0 0 800.000000 800.000000"
 preserveAspectRatio="xMidYMid meet">
<metadata>
Created by potrace 1.16, written by Peter Selinger 2001-2019
</metadata>
<g transform="translate(0.000000,800.000000) scale(0.100000,-0.100000)"
fill="#000000" stroke="none">
<path d="M0 6734 l0 -1266 33 48 c37 55 57 67 50 29 -3 -14 -10 -25 -17 -25
-6 0 -23 -20 -38 -44 l-28 -43 0 -321 c0 -189 4 -323 9 -327 6 -3 14 3 20 12
10 17 10 17 11 0 0 -10 4 -15 10 -12 5 3 10 2 10 -3 0 -5 -13 -15 -30 -22
l-30 -12 0 -429 0 -428 42 -25 c24 -14 83 -42 133 -63 50 -20 110 -50 134 -65
41 -26 45 -26 66 -10 14 10 20 24 18 37 -4 19 -4 19 11 2 8 -11 30 -20 49 -22
19 -2 48 -10 63 -18 17 -8 43 -12 61 -10 36 6 36 -3 6 118 -21 85 -39 111
-113 157 -36 23 -68 46 -73 52 -22 33 -26 86 -13 175 14 97 19 107 51 113 10
2 26 15 34 30 14 23 13 30 -4 68 -23 52 -24 141 0 229 20 78 12 98 -52 143
-24 16 -43 35 -43 42 0 20 -43 54 -74 58 -26 3 -31 10 -57 83 -16 44 -33 87
-38 96 -5 9 -8 28 -7 42 2 18 -1 24 -10 20 -8 -3 -14 -11 -14 -18 0 -8 -18
-13 -55 -13 -30 0 -55 2 -55 5 0 3 10 14 22 24 18 16 80 26 120 20 4 0 4 7 1
16 -5 12 -2 15 10 10 22 -8 23 23 2 63 -9 17 -11 30 -6 30 16 0 31 -35 31 -69
0 -29 3 -31 35 -31 19 0 35 -5 35 -11 0 -7 -9 -9 -21 -6 -11 3 -27 3 -35 0
-22 -8 -47 -62 -36 -76 5 -7 17 -37 27 -67 29 -91 42 -110 74 -110 29 0 54
-21 65 -55 7 -24 55 -54 75 -47 8 2 11 0 8 -5 -3 -5 3 -24 14 -42 19 -31 19
-34 3 -94 -23 -85 -23 -184 1 -236 17 -39 17 -44 2 -76 -9 -19 -23 -35 -31
-35 -28 0 -43 -29 -56 -112 -18 -119 -9 -142 80 -202 38 -25 76 -56 85 -70 9
-13 31 -84 50 -159 19 -74 43 -159 55 -189 13 -35 20 -77 20 -124 0 -60 5 -83
32 -140 28 -59 33 -82 36 -160 3 -71 0 -99 -13 -124 -9 -17 -15 -33 -13 -34
25 -20 45 -23 60 -9 21 19 23 6 4 -20 -13 -17 -16 -17 -45 -3 -28 15 -31 15
-39 -1 -5 -10 -19 -72 -32 -138 -14 -75 -34 -142 -52 -179 -38 -76 -81 -241
-72 -280 3 -16 30 -52 65 -85 65 -62 71 -79 50 -152 -12 -43 -11 -49 13 -97
14 -28 26 -62 26 -75 0 -31 9 -38 31 -26 17 9 22 4 38 -33 10 -24 49 -84 86
-135 55 -75 73 -92 100 -97 28 -6 35 -13 54 -62 11 -31 21 -64 21 -75 0 -10 7
-19 15 -19 17 0 21 -35 5 -45 -6 -3 -10 0 -10 8 0 8 -7 20 -15 27 -8 7 -15 23
-15 37 0 45 -17 63 -60 63 -22 0 -40 -4 -40 -10 0 -5 9 -32 20 -60 11 -28 20
-71 20 -95 0 -38 3 -45 20 -45 26 0 25 -6 -3 -33 -12 -12 -23 -28 -23 -34 -2
-28 -4 -33 -15 -33 -8 0 -9 14 -5 43 l7 43 -95 37 c-52 20 -103 37 -113 37
-11 0 -46 -11 -79 -24 -33 -12 -91 -28 -130 -35 -121 -21 -111 -16 -112 -66
-1 -28 10 -74 27 -120 18 -45 25 -77 19 -81 -12 -7 -8 -14 -41 81 -15 44 -27
95 -27 114 0 28 -3 32 -18 26 -97 -38 -204 -67 -273 -72 -55 -4 -80 -3 -76 4
4 5 39 13 79 16 72 7 152 28 236 62 37 15 42 21 42 49 0 60 -23 112 -92 209
-38 54 -68 105 -66 114 4 20 155 125 163 113 3 -5 -27 -31 -67 -58 -40 -27
-73 -56 -72 -64 1 -8 32 -56 69 -108 57 -79 69 -102 78 -156 l11 -62 35 5 c83
11 150 27 210 49 81 31 94 30 182 -7 119 -49 112 -50 106 12 -2 30 -17 89 -32
132 -22 64 -35 84 -71 113 -26 22 -59 65 -84 110 -22 41 -47 74 -55 74 -8 0
-15 5 -15 10 0 6 5 10 11 10 17 0 3 73 -22 123 -21 40 -22 94 -4 155 12 36 -8
25 -37 -21 -15 -23 -52 -68 -83 -100 -31 -32 -53 -62 -50 -67 3 -6 2 -10 -4
-10 -5 0 -12 -8 -15 -17 -14 -43 -71 -94 -115 -104 -49 -11 -118 -55 -127 -81
-5 -18 -24 -25 -24 -10 0 32 86 97 143 106 44 8 79 42 111 111 14 28 40 63 60
79 20 15 52 51 73 80 20 28 43 56 51 63 12 10 5 21 -47 70 l-61 59 0 59 c0 66
32 181 73 260 14 28 35 102 48 165 13 68 35 144 55 186 32 69 32 74 25 155 -6
56 -17 104 -36 144 -19 42 -28 83 -32 140 -3 44 -10 83 -15 86 -11 7 -48 113
-48 139 0 17 -7 20 -42 20 -24 1 -54 7 -68 15 -36 21 -87 18 -121 -6 l-29 -20
-42 29 c-24 15 -83 45 -133 66 -50 21 -109 49 -133 62 l-42 25 0 -1936 0
-1935 4000 0 4000 0 0 2835 0 2835 -54 -42 c-29 -24 -96 -77 -147 -120 -86
-69 -241 -158 -367 -208 -18 -7 -36 -18 -40 -24 -16 -25 -143 -128 -150 -122
-4 4 7 19 23 33 17 14 53 46 80 72 28 26 84 61 127 81 43 19 77 41 78 49 0 8
6 11 16 7 26 -10 37 4 18 25 -24 27 -9 37 19 12 32 -30 55 -18 26 13 -26 28
-7 34 23 7 24 -21 36 -9 15 15 -10 10 -17 27 -17 37 0 15 6 13 28 -14 l27 -33
148 119 147 118 0 1152 0 1153 -2312 0 -2313 -1 78 -73 c42 -41 77 -82 77 -91
0 -10 19 -35 42 -56 52 -47 46 -59 -9 -19 -26 19 -44 42 -48 60 -4 20 -34 54
-89 105 -76 69 -87 75 -126 75 l-43 0 7 -32 c18 -85 18 -92 -9 -111 -26 -19
-55 -17 -55 4 0 6 6 9 13 6 7 -3 21 1 31 9 18 12 18 17 4 66 l-15 53 -331 3
-332 2 0 -27 c1 -65 21 -177 39 -216 10 -23 33 -61 50 -85 l32 -44 94 98 c52
54 97 95 101 91 7 -7 -36 -61 -71 -89 -13 -10 -42 -40 -65 -67 l-41 -50 27
-43 c38 -62 90 -113 161 -160 56 -36 78 -59 56 -58 -5 1 -42 24 -83 53 -50 35
-93 76 -128 122 -33 45 -58 69 -69 67 -11 -3 -14 1 -9 13 3 10 -11 41 -38 81
-24 36 -45 65 -47 65 -15 -4 -89 35 -89 47 0 10 -7 12 -25 8 -29 -7 -35 15
-11 40 19 19 40 18 32 -1 -3 -8 -1 -15 4 -15 5 0 11 -9 15 -19 5 -17 51 -38
61 -28 2 2 -1 52 -8 110 l-11 107 -185 0 c-178 0 -184 -1 -204 -22 l-20 -23 5
23 5 22 -296 0 c-265 -1 -298 -3 -316 -18 -18 -16 -19 -16 -13 1 6 16 -34 17
-758 17 l-765 0 0 -1266z m3731 1213 c-8 -8 -11 -7 -11 4 0 20 13 34 18 19 3
-7 -1 -17 -7 -23z m-2223 11 c-3 -7 -13 -15 -24 -17 -16 -3 -17 -1 -5 13 16
19 34 21 29 4z m622 -25 c-1 -24 -2 -26 -11 -10 -5 9 -7 22 -4 27 10 17 15 11
15 -17z m-670 -12 c0 -5 -7 -12 -16 -15 -24 -9 -28 -7 -14 9 14 17 30 20 30 6z
m2256 -17 c-3 -9 -6 -18 -6 -20 0 -3 -4 -3 -10 1 -11 7 -2 35 12 35 6 0 7 -7
4 -16z m-1616 -46 c0 -6 -7 -7 -16 -4 -10 4 -29 -9 -54 -36 -21 -24 -42 -39
-46 -35 -4 3 7 21 25 39 17 17 31 35 31 39 0 10 31 17 48 11 6 -2 12 -9 12
-14z m1600 5 c0 -14 -19 -38 -25 -32 -8 8 5 39 16 39 5 0 9 -3 9 -7z m-630
-84 c0 -10 -4 -19 -10 -19 -5 0 -10 12 -10 26 0 14 4 23 10 19 6 -3 10 -15 10
-26z m591 -2 c-8 -8 -11 -7 -11 4 0 20 13 34 18 19 3 -7 -1 -17 -7 -23z m-521
4 c0 -12 -20 -25 -27 -18 -7 7 6 27 18 27 5 0 9 -4 9 -9z m-680 -10 c0 -19
-12 -41 -20 -36 -10 6 -1 45 11 45 5 0 9 -4 9 -9z m-490 -10 c0 -12 -20 -25
-27 -18 -7 7 6 27 18 27 5 0 9 -4 9 -9z m-100 -11 c0 -5 -12 -10 -27 -9 -25 0
-26 1 -8 9 27 12 35 12 35 0z m1393 -55 c4 -43 15 -70 50 -123 69 -104 107
-188 138 -302 32 -116 33 -120 21 -120 -5 0 -22 48 -37 106 -29 111 -79 219
-146 317 -33 48 -41 69 -46 124 -4 44 -3 64 4 60 6 -4 13 -31 16 -62z m390 6
c-1 -2 -9 2 -18 9 -12 10 -12 16 -3 34 12 20 12 20 18 -9 4 -16 5 -32 3 -34z
m-556 27 c7 20 25 14 18 -7 -5 -16 -2 -18 15 -14 11 3 20 0 20 -6 0 -6 -10
-11 -22 -11 l-23 0 24 -19 c15 -12 21 -23 16 -31 -5 -8 -1 -18 9 -26 9 -6 13
-15 8 -18 -5 -3 -38 14 -73 37 -55 37 -64 48 -66 75 -2 36 22 47 51 23 14 -12
20 -13 23 -3z m-1172 2 c3 -5 -1 -10 -9 -10 -8 0 -18 5 -21 10 -3 6 1 10 9 10
8 0 18 -4 21 -10z m4705 0 c0 -5 -10 -10 -22 -10 -19 0 -20 2 -8 10 19 13 30
13 30 0z m55 0 c3 -5 -3 -10 -15 -10 -12 0 -18 5 -15 10 3 6 10 10 15 10 5 0
12 -4 15 -10z m-121 -20 c-42 -15 -74 -20 -74 -11 0 11 71 30 84 23 5 -3 1 -8
-10 -12z m-99 -20 c-3 -5 -15 -10 -26 -10 -11 0 -17 5 -14 10 3 6 15 10 26 10
11 0 17 -4 14 -10z m-3270 -20 c18 -20 18 -20 -13 -9 -18 6 -29 15 -26 20 8
14 19 11 39 -11z m445 -5 c-7 -9 -15 -13 -17 -11 -7 7 7 26 19 26 6 0 6 -6 -2
-15z m2640 5 c0 -5 -10 -10 -22 -9 -22 0 -22 1 -3 9 11 5 21 9 23 9 1 1 2 -3
2 -9z m60 0 c0 -5 -9 -10 -20 -10 -11 0 -20 5 -20 10 0 6 9 10 20 10 11 0 20
-4 20 -10z m50 0 c-19 -13 -30 -13 -30 0 0 6 10 10 23 10 18 0 19 -2 7 -10z
m-178 -32 c-6 -6 -15 -8 -19 -4 -4 4 -1 11 7 16 19 12 27 3 12 -12z m-3032 -3
c10 -12 10 -15 -4 -15 -9 0 -16 7 -16 15 0 8 2 15 4 15 2 0 9 -7 16 -15z
m2765 5 c3 -5 -3 -10 -14 -10 -11 0 -23 5 -26 10 -3 6 3 10 14 10 11 0 23 -4
26 -10z m-2344 -43 c-13 -13 -15 1 -4 30 7 17 8 17 11 -1 2 -10 -1 -23 -7 -29z
m-518 12 c3 -13 1 -19 -6 -16 -15 5 -22 37 -9 37 5 0 12 -9 15 -21z m2917 11
c8 -5 12 -12 9 -15 -8 -8 -39 5 -39 16 0 11 11 11 30 -1z m165 -9 c-3 -6 -14
-11 -23 -11 -15 1 -15 2 2 15 21 16 32 13 21 -4z m-105 -21 c0 -5 -6 -10 -14
-10 -8 0 -18 5 -21 10 -3 6 3 10 14 10 12 0 21 -4 21 -10z m60 0 c0 -5 -9 -10
-20 -10 -11 0 -20 5 -20 10 0 6 9 10 20 10 11 0 20 -4 20 -10z m-2524 -26 c-3
-9 -6 -18 -6 -20 0 -2 -4 -4 -9 -4 -5 0 -7 9 -4 20 3 11 10 20 15 20 6 0 7 -7
4 -16z m-14 -76 c-9 -9 -12 -7 -12 12 0 19 3 21 12 12 9 -9 9 -15 0 -24z m-18
-52 c-3 -9 -10 -13 -16 -10 -5 3 -4 12 3 20 15 18 22 13 13 -10z m-1684 4 c0
-5 -12 -10 -26 -10 -14 0 -23 4 -19 10 3 6 15 10 26 10 10 0 19 -4 19 -10z
m41 -36 c12 -14 11 -16 -5 -13 -11 2 -21 10 -24 17 -5 17 13 15 29 -4z m1625
-31 c-11 -11 -19 6 -11 24 8 17 8 17 12 0 3 -10 2 -21 -1 -24z m-1587 -19 c3
-16 1 -17 -13 -5 -19 16 -21 34 -3 29 6 -3 14 -13 16 -24z m1230 -104 c104
-55 196 -100 205 -100 8 0 18 -5 22 -11 5 -8 -2 -10 -22 -7 -36 5 -404 195
-404 209 0 5 2 9 4 9 3 0 90 -45 195 -100z m375 84 c9 -22 -3 -32 -14 -14 -12
19 -12 30 -1 30 5 0 12 -7 15 -16z m-1574 -30 c0 -8 -4 -12 -10 -9 -5 3 -10
13 -10 21 0 8 5 12 10 9 6 -3 10 -13 10 -21z m1600 -13 c0 -5 6 -16 13 -23 17
-18 47 -117 47 -157 0 -19 4 -30 10 -26 14 9 12 -7 -4 -27 -20 -27 -26 -22
-26 25 0 24 -5 48 -12 55 -9 9 -9 12 -1 12 15 0 -12 97 -33 121 -16 18 -18 29
-4 29 6 0 10 -4 10 -9z m-1575 -21 c3 -5 1 -10 -4 -10 -6 0 -11 5 -11 10 0 6
2 10 4 10 3 0 8 -4 11 -10z m1865 -40 c0 -6 -17 -19 -38 -28 -55 -25 -118 -82
-126 -116 -4 -17 -11 -25 -16 -20 -14 15 12 84 32 84 10 0 22 9 28 19 7 15 79
57 118 70 1 1 2 -4 2 -9z m-390 -115 c0 -7 3 -27 6 -44 4 -19 2 -31 -4 -31 -6
0 -13 18 -17 40 -5 32 -11 40 -28 41 -21 0 -21 1 -2 8 24 10 45 3 45 -14z
m860 -34 c0 -12 -20 -25 -27 -18 -7 7 6 27 18 27 5 0 9 -4 9 -9z m44 3 c9 -3
14 -10 11 -15 -7 -10 -35 0 -35 12 0 11 3 11 24 3z m56 -41 c0 -13 -3 -13 -15
-3 -8 7 -15 16 -15 21 0 5 7 6 15 3 8 -4 15 -13 15 -21z m-135 -3 c4 -6 -6
-10 -22 -10 -22 0 -25 2 -13 10 19 12 27 12 35 0z m1248 -20 c-5 -19 -23 -39
-23 -25 0 9 20 45 24 45 2 0 2 -9 -1 -20z m-1316 -7 c-9 -9 -19 -14 -23 -11
-10 10 6 28 24 28 15 0 15 -1 -1 -17z m-626 -45 c-11 -29 -28 -73 -38 -98 -38
-87 -39 -140 -2 -140 10 0 19 -4 19 -10 0 -5 -7 -10 -16 -10 -27 0 -10 -52 51
-162 30 -54 55 -107 55 -118 0 -24 2 -24 62 -5 27 8 50 10 53 5 3 -5 -20 -17
-50 -26 -50 -14 -56 -18 -51 -38 3 -12 10 -45 16 -74 7 -28 15 -52 18 -52 4 0
6 -35 5 -77 -1 -63 -4 -78 -17 -78 -17 0 -111 144 -100 154 3 3 11 -1 16 -9 5
-8 25 -40 43 -70 l35 -55 -1 50 c0 28 -6 77 -13 110 -8 33 -21 90 -29 126 -8
38 -35 104 -64 156 -28 50 -53 103 -57 119 -4 16 -12 47 -18 69 l-10 39 -16
-34 c-11 -25 -16 -30 -19 -18 -2 9 2 29 11 45 14 27 13 29 -22 65 -48 50 -33
62 17 14 l38 -38 32 76 c17 41 31 77 31 80 0 16 21 56 29 56 6 0 2 -24 -8 -52z
m2007 39 c17 -11 15 -30 -3 -23 -10 3 -17 -3 -21 -19 -8 -31 -15 -31 -33 -4
-11 19 -11 21 2 16 9 -3 18 1 21 9 3 8 1 14 -4 14 -6 0 -10 4 -10 10 0 11 28
9 48 -3z m-5393 -14 c11 -15 15 -15 29 -4 14 11 16 11 16 -3 0 -9 -7 -19 -15
-22 -19 -8 -20 -34 -1 -34 7 0 19 -7 26 -15 10 -12 10 -15 -4 -15 -8 0 -22
-13 -31 -29 -22 -44 -32 -45 -65 -11 -31 31 -38 50 -20 50 6 0 10 -6 10 -12 0
-7 12 7 26 30 19 32 23 47 15 55 -12 12 -15 27 -5 27 4 0 12 -8 19 -17z m3962
-10 c-9 -9 -20 -13 -24 -9 -4 4 -1 11 7 16 25 16 35 11 17 -7z m-2239 -33 c6
-16 7 -32 2 -35 -4 -3 -13 9 -19 27 -13 38 -13 38 -2 38 5 0 14 -13 19 -30z
m2039 4 c-3 -3 -12 -4 -19 -1 -8 3 -5 6 6 6 11 1 17 -2 13 -5z m138 -4 c3 -5
1 -10 -4 -10 -6 0 -11 5 -11 10 0 6 2 10 4 10 3 0 8 -4 11 -10z m1533 -33 c2
-22 -1 -37 -7 -37 -6 0 -11 9 -11 21 0 12 -8 23 -20 26 -11 3 -20 10 -20 15 0
5 10 6 21 3 16 -5 19 -4 14 5 -5 8 -3 11 6 8 7 -2 15 -21 17 -41z m-1583 3
c-10 -11 -20 -18 -23 -15 -7 6 18 35 31 35 5 0 2 -9 -8 -20z m-112 -30 c-3
-11 -9 -17 -14 -14 -14 8 -10 34 5 34 9 0 12 -7 9 -20z m67 16 c0 -2 -9 -6
-20 -9 -11 -3 -20 -1 -20 4 0 5 9 9 20 9 11 0 20 -2 20 -4z m-2060 -32 c0 -8
-4 -12 -10 -9 -5 3 -10 13 -10 21 0 8 5 12 10 9 6 -3 10 -13 10 -21z m200 16
c-19 -13 -30 -13 -30 0 0 6 10 10 23 10 18 0 19 -2 7 -10z m-60 -20 c-19 -12
-30 -12 -30 -1 0 10 31 20 40 14 2 -2 -2 -8 -10 -13z m-60 -20 c-19 -12 -30
-12 -30 -1 0 10 31 20 40 14 2 -2 -2 -8 -10 -13z m136 4 c-3 -9 -6 -18 -6 -20
0 -3 -4 -3 -10 1 -11 7 -2 35 12 35 6 0 7 -7 4 -16z m3464 9 c0 -14 -19 -38
-25 -32 -8 8 5 39 16 39 5 0 9 -3 9 -7z m-3640 -22 c0 -5 -9 -11 -20 -14 -22
-6 -28 8 -7 16 19 8 27 8 27 -2z m1734 -21 c-7 -7 -19 -7 -35 -1 -23 9 -22 10
11 10 23 1 31 -2 24 -9z m-1564 -25 c0 -8 -4 -17 -10 -20 -6 -4 -10 5 -10 20
0 15 4 24 10 20 6 -3 10 -12 10 -20z m3464 -22 c-21 -15 -30 -3 -20 23 5 14 9
14 22 3 14 -12 14 -14 -2 -26z m-3769 17 c-3 -5 -13 -10 -21 -10 -8 0 -14 5
-14 10 0 6 9 10 21 10 11 0 17 -4 14 -10z m3398 -4 c10 -8 14 -17 9 -20 -6 -3
-21 3 -33 14 -28 23 -5 28 24 6z m-2007 -51 c7 -41 2 -77 -12 -82 -7 -2 -9 8
-6 27 3 18 0 30 -7 30 -6 0 -11 7 -11 15 0 9 -6 12 -15 9 -8 -4 -15 -17 -15
-30 0 -13 -5 -24 -10 -24 -6 0 -8 17 -4 43 9 67 9 68 43 56 23 -8 32 -19 37
-44z m-1423 15 c3 -11 1 -20 -4 -20 -5 0 -9 9 -9 20 0 11 2 20 4 20 2 0 6 -9
9 -20z m1597 -11 c0 -28 -19 -61 -31 -53 -6 4 -5 11 3 21 7 9 11 27 10 41 -3
15 0 22 7 18 6 -4 11 -16 11 -27z m410 11 c0 -11 5 -20 10 -20 6 0 10 -4 10
-8 0 -4 -28 -9 -62 -9 -44 -1 -57 1 -43 7 11 5 30 9 43 9 15 1 22 7 22 21 0
11 5 20 10 20 6 0 10 -9 10 -20z m1844 14 c9 -3 13 -11 10 -16 -4 -6 1 -8 14
-4 11 4 23 2 27 -4 3 -5 2 -10 -4 -10 -5 0 -15 -2 -23 -5 -7 -2 -21 7 -31 20
-19 26 -18 29 7 19z m-3538 -41 c-11 -11 -17 4 -9 23 7 18 8 18 11 1 2 -10 1
-21 -2 -24z m3149 27 c3 -5 1 -10 -4 -10 -6 0 -11 5 -11 10 0 6 2 10 4 10 3 0
8 -4 11 -10z m-3455 -66 c0 -8 -4 -14 -10 -14 -5 0 -10 9 -10 21 0 11 5 17 10
14 6 -3 10 -13 10 -21z m2130 -6 c0 -6 -7 -5 -15 2 -8 7 -15 17 -15 22 0 6 7
5 15 -2 8 -7 15 -17 15 -22z m-1837 2 c-3 -11 -7 -20 -9 -20 -2 0 -4 9 -4 20
0 11 4 20 9 20 5 0 7 -9 4 -20z m1002 -16 c16 -39 21 -164 6 -164 -5 0 -11 34
-13 75 -2 41 -8 79 -13 84 -7 7 -50 -10 -127 -49 -89 -46 -126 -71 -157 -107
-30 -35 -37 -50 -29 -60 6 -7 17 -13 26 -13 8 0 12 -3 8 -7 -3 -4 11 -25 32
-47 21 -23 65 -82 96 -133 53 -85 85 -121 132 -149 10 -6 14 -13 8 -17 -6 -3
-26 4 -45 15 -19 12 -43 21 -54 19 -15 -2 -17 0 -7 11 9 11 -4 37 -64 129 -74
113 -110 152 -146 154 -31 3 -147 -243 -173 -364 -12 -57 -61 -154 -98 -196
-45 -50 -48 -32 -4 26 39 52 69 120 92 209 9 36 39 112 66 169 30 63 47 112
44 123 -5 13 -2 16 8 12 14 -5 30 21 31 51 1 6 21 34 46 64 25 29 44 60 42 67
-2 9 5 13 20 12 13 -1 75 26 138 60 63 34 116 62 117 62 2 0 10 -16 18 -36z
m2005 26 c12 -7 12 -12 -4 -29 -34 -37 -78 -22 -56 19 11 21 36 26 60 10z
m676 -17 c-7 -7 -26 7 -26 19 0 6 6 6 15 -2 9 -7 13 -15 11 -17z m-1836 -33
c-19 -12 -30 -12 -30 -1 0 10 31 20 40 14 2 -2 -2 -8 -10 -13z m-2140 -16 c0
-8 -4 -14 -10 -14 -5 0 -10 9 -10 21 0 11 5 17 10 14 6 -3 10 -13 10 -21z
m1514 5 c8 -9 1 -10 -29 -4 -54 9 -74 30 -21 22 22 -4 44 -11 50 -18z m-1224
1 c0 -5 -2 -10 -4 -10 -3 0 -8 5 -11 10 -3 6 -1 10 4 10 6 0 11 -4 11 -10z
m-275 -61 c6 -19 0 -38 -9 -28 -10 12 -16 49 -7 49 5 0 13 -9 16 -21z m799
-58 c3 -5 -3 -11 -14 -14 -22 -6 -37 8 -18 16 20 8 26 8 32 -2z m3266 -16 c-7
-9 -15 -13 -17 -11 -7 7 7 26 19 26 6 0 6 -6 -2 -15z m-3223 -19 c-3 -7 0 -19
6 -25 8 -8 7 -11 -4 -11 -23 0 -29 11 -18 31 11 22 24 26 16 5z m-1892 -53
c22 -40 25 -55 20 -95 -7 -46 -25 -68 -25 -29 0 10 -7 24 -15 31 -8 7 -15 16
-15 21 0 5 7 9 15 9 21 0 19 29 -5 65 -21 31 -27 60 -11 50 5 -3 21 -26 36
-52z m2585 36 c0 -11 -4 -18 -10 -14 -5 3 -7 12 -3 20 7 21 13 19 13 -6z
m-3354 -16 c-8 -8 -36 5 -36 17 0 7 6 7 21 0 11 -7 18 -14 15 -17z m2603 -4
c-22 -14 -33 -10 -19 6 7 8 17 12 22 9 6 -4 5 -10 -3 -15z m-2552 -25 c-7 -7
-37 7 -37 17 0 6 9 5 21 -1 11 -7 19 -14 16 -16z m2958 16 c3 -5 -3 -10 -14
-10 -12 0 -21 5 -21 10 0 6 6 10 14 10 8 0 18 -4 21 -10z m-2931 -46 c9 -22
-3 -32 -14 -14 -12 19 -12 30 -1 30 5 0 12 -7 15 -16z m2990 -36 c21 -15 48
-28 58 -28 11 0 16 -4 13 -10 -3 -5 -14 -10 -24 -10 -21 0 -111 66 -111 81 0
11 8 7 64 -33z m-2960 -24 c4 -10 1 -14 -6 -12 -15 5 -23 28 -10 28 5 0 13 -7
16 -16z m36 -44 c8 -5 11 -12 7 -16 -4 -4 -15 0 -24 9 -18 18 -8 23 17 7z
m1760 -20 c0 -5 -5 -10 -11 -10 -5 0 -7 5 -4 10 3 6 8 10 11 10 2 0 4 -4 4
-10z m-1146 -17 c-4 -10 -7 -33 -6 -51 2 -35 -16 -77 -56 -130 -14 -18 -26
-49 -27 -68 -3 -44 -12 -54 -21 -20 -8 33 -17 33 -92 -5 -69 -34 -105 -71
-139 -145 -34 -75 -39 -132 -18 -225 15 -65 22 -79 37 -79 11 0 16 -5 13 -10
-4 -6 -11 -7 -17 -4 -8 5 -9 -1 -5 -17 4 -13 10 -42 14 -64 3 -22 13 -46 22
-53 14 -12 14 -13 -1 -8 -13 4 -19 -2 -23 -22 -4 -15 -15 -46 -26 -70 -11 -24
-14 -40 -8 -36 7 4 10 2 8 -5 -3 -7 -9 -12 -14 -12 -6 0 -17 -7 -26 -15 -31
-28 -27 -1 6 50 51 77 54 132 16 280 -17 65 -31 135 -31 155 0 49 26 135 55
181 32 50 104 112 151 129 55 20 98 55 134 109 25 37 30 54 25 79 -3 18 -1 42
5 53 13 25 35 27 24 3z m-566 -12 c3 -8 -1 -12 -9 -9 -7 2 -15 10 -17 17 -3 8
1 12 9 9 7 -2 15 -10 17 -17z m-218 -17 c0 -8 -4 -14 -10 -14 -5 0 -10 9 -10
21 0 11 5 17 10 14 6 -3 10 -13 10 -21z m3232 -20 c-1 -11 -6 -43 -11 -71 -6
-43 -5 -51 6 -42 10 9 13 5 13 -22 0 -19 3 -44 6 -56 5 -19 2 -23 -15 -23 -11
0 -21 -2 -21 -5 0 -11 43 -91 71 -132 16 -23 34 -54 39 -68 8 -21 15 -26 30
-21 11 3 30 9 43 12 22 5 22 5 2 -11 -11 -9 -30 -18 -42 -22 -37 -9 -28 -33
11 -33 41 0 82 -42 91 -94 4 -19 25 -53 51 -81 24 -27 44 -53 44 -59 0 -5 12
-23 27 -38 15 -15 21 -28 15 -28 -7 0 -17 9 -24 20 -7 11 -19 20 -26 20 -7 0
-10 5 -7 11 4 6 -2 13 -14 16 -12 3 -20 11 -19 17 2 7 -12 30 -29 53 -18 22
-33 49 -33 59 0 11 -9 33 -19 50 -15 25 -27 32 -67 38 -53 7 -63 3 -48 -22 12
-21 7 -62 -8 -62 -6 0 -8 10 -5 22 4 14 0 29 -10 40 -13 14 -14 21 -5 30 18
18 14 46 -8 68 l-20 20 26 0 26 0 -18 28 c-53 79 -84 138 -84 158 0 12 -7 24
-15 28 -8 3 -15 10 -15 15 0 6 7 8 15 5 24 -10 22 121 -2 131 -17 7 -16 8 2
15 11 5 14 9 8 9 -7 1 -13 8 -13 16 0 8 -9 15 -20 15 -30 0 -24 18 8 22 40 5
67 -7 64 -28z m1838 22 c0 -7 -7 -19 -15 -26 -8 -7 -15 -16 -15 -21 0 -13 -63
-99 -73 -99 -12 0 -10 4 43 88 44 70 60 86 60 58z m-4820 -27 c0 -5 -4 -9 -10
-9 -5 0 -10 7 -10 16 0 8 5 12 10 9 6 -3 10 -10 10 -16z m1987 -16 c3 -7 -3
-9 -16 -6 -12 3 -21 10 -21 15 0 13 32 6 37 -9z m-2227 -19 c0 -8 -4 -14 -10
-14 -5 0 -10 9 -10 21 0 11 5 17 10 14 6 -3 10 -13 10 -21z m3302 14 c-7 -7
-12 -22 -12 -35 0 -13 -4 -23 -10 -23 -11 0 -14 53 -3 63 3 4 13 7 22 7 12 0
12 -3 3 -12z m-1022 -8 c8 -5 12 -12 9 -15 -8 -8 -39 5 -39 16 0 11 11 11 30
-1z m66 -37 c-8 -8 -36 5 -36 17 0 7 6 7 21 0 11 -7 18 -14 15 -17z m-2318
-21 c6 -18 -15 -14 -22 4 -4 10 -1 14 6 12 6 -2 14 -10 16 -16z m2372 8 c0
-13 -11 -13 -30 0 -12 8 -11 10 8 10 12 0 22 -4 22 -10z m44 -16 c9 -3 14 -10
11 -15 -7 -10 -35 0 -35 12 0 11 3 11 24 3z m-2390 -40 c8 -21 8 -24 -3 -24
-5 0 -11 9 -14 20 -6 24 8 27 17 4z m2451 6 c3 -5 -1 -10 -9 -10 -8 0 -18 5
-21 10 -3 6 1 10 9 10 8 0 18 -4 21 -10z m1945 -18 c0 -4 -9 -13 -20 -20 -16
-10 -20 -10 -20 2 0 8 6 17 13 19 19 8 27 8 27 -1z m-1890 -12 c0 -5 -4 -10
-9 -10 -6 0 -13 5 -16 10 -3 6 1 10 9 10 9 0 16 -4 16 -10z m270 -5 c10 -12
10 -15 -4 -15 -9 0 -16 7 -16 15 0 8 2 15 4 15 2 0 9 -7 16 -15z m-1175 -5 c3
-5 -1 -10 -9 -10 -9 0 -16 5 -16 10 0 6 4 10 9 10 6 0 13 -4 16 -10z m-1583
-44 c-3 -5 -9 -1 -12 10 -4 10 -5 23 -2 28 3 5 9 1 12 -10 4 -10 5 -23 2 -28z
m2812 19 c-7 -17 -14 -18 -41 -8 -16 6 -15 8 7 14 38 11 40 10 34 -6z m2336
-7 c0 -14 -66 -20 -166 -13 -74 5 -104 4 -104 -4 0 -6 -7 -11 -15 -11 -8 0
-15 5 -15 10 0 6 7 10 15 10 8 0 15 3 15 8 0 4 61 7 135 7 74 0 135 -3 135 -7z
m-5220 -8 c0 -5 6 -10 14 -10 7 0 16 -10 20 -22 8 -32 7 -38 -4 -38 -5 0 -10
9 -10 20 0 12 -10 25 -25 32 -28 12 -33 28 -10 28 8 0 15 -4 15 -10z m4725 1
c-6 -5 -35 -12 -65 -15 -30 -3 -66 -8 -80 -12 -17 -5 -22 -4 -15 4 6 6 26 15
45 20 45 13 127 15 115 3z m853 -3 c-3 -7 -20 -16 -39 -21 -19 -5 -38 -13 -43
-18 -6 -5 -23 -9 -39 -9 -33 0 -181 -38 -301 -77 -58 -19 -91 -24 -126 -20
-51 6 -142 46 -134 59 3 4 22 -1 43 -11 55 -28 138 -35 192 -15 37 14 418 119
442 123 5 0 7 -4 5 -11z m-2677 -11 c-6 -8 -9 -16 -6 -18 2 -3 -5 -5 -15 -6
-25 -2 -25 6 -2 23 22 17 38 18 23 1z m-71 -32 c-12 -13 -27 -22 -32 -19 -5 3
-12 -3 -15 -14 -3 -13 -13 -19 -29 -19 -13 0 -24 3 -24 8 0 12 42 39 61 39 9
0 24 9 34 20 10 11 21 18 23 15 3 -3 -5 -16 -18 -30z m3505 11 c22 -10 58 -20
80 -22 22 -2 58 -10 80 -18 35 -13 41 -13 51 0 10 12 23 13 69 6 32 -5 67 -7
78 -4 15 4 18 2 12 -8 -6 -9 -25 -11 -75 -6 -52 4 -70 3 -79 -8 -10 -12 -2
-17 45 -27 32 -7 68 -22 80 -33 l23 -21 -17 -62 c-19 -69 -40 -97 -94 -124
-27 -14 -38 -27 -43 -51 -9 -40 -33 -78 -50 -78 -6 0 -20 9 -30 20 -10 11 -22
20 -27 20 -18 0 -20 -32 -3 -50 10 -11 15 -23 11 -27 -7 -7 -36 28 -49 60 -5
14 -2 20 13 24 11 3 20 7 20 10 0 3 -16 25 -36 49 -33 40 -36 47 -25 71 7 15
9 43 5 68 -6 40 -7 42 -30 31 -13 -6 -24 -14 -24 -18 0 -5 -6 -8 -14 -8 -7 0
-19 -7 -26 -15 -29 -35 -151 -2 -163 45 -2 9 -13 16 -24 17 -34 3 -118 47
-121 63 -5 26 57 64 100 61 40 -2 50 13 26 37 -8 8 -8 12 -1 12 18 0 36 -29
30 -49 -2 -11 3 -25 13 -34 23 -19 110 -27 110 -10 0 15 17 17 22 3 2 -5 18 6
36 25 19 20 27 35 19 35 -8 0 -22 10 -33 21 -10 12 -14 20 -9 17 6 -2 28 -12
50 -22z m-6265 -13 c0 -19 -3 -24 -10 -17 -6 6 -8 18 -4 27 9 24 14 21 14 -10z
m4207 0 c-6 -9 -23 -18 -176 -92 -106 -52 -121 -57 -121 -43 0 4 30 23 68 41
228 110 243 116 229 94z m643 8 c0 -5 -7 -14 -15 -21 -16 -14 -18 -10 -9 14 6
17 24 22 24 7z m-2043 -63 c-9 -5 -17 -16 -17 -23 0 -8 -9 -15 -20 -15 -11 0
-20 5 -20 10 0 6 6 10 14 10 7 0 16 14 20 31 5 29 7 30 23 14 16 -16 16 -18 0
-27z m2003 22 c0 -5 -7 -7 -15 -4 -8 4 -12 10 -9 15 6 11 24 2 24 -11z m-1880
0 c0 -5 -9 -10 -21 -10 -11 0 -17 5 -14 10 3 6 13 10 21 10 8 0 14 -4 14 -10z
m71 -6 c10 -13 10 -17 -2 -25 -8 -5 -17 -9 -21 -9 -13 0 -9 18 5 23 6 3 2 6
-11 6 -13 1 -20 5 -17 11 9 15 31 12 46 -6z m-2991 -14 c0 -11 -4 -20 -10 -20
-5 0 -10 9 -10 20 0 11 5 20 10 20 6 0 10 -9 10 -20z m2844 4 c23 -9 20 -23
-4 -17 -11 3 -20 9 -20 14 0 11 3 11 24 3z m-194 -21 c0 -14 -19 -38 -25 -32
-8 8 5 39 16 39 5 0 9 -3 9 -7z m181 -13 c23 0 31 -13 22 -36 -5 -14 -8 -15
-17 -2 -6 8 -19 17 -28 21 -10 3 -18 14 -18 24 0 13 3 14 12 5 7 -7 20 -12 29
-12z m-121 -19 c-10 -20 -30 -29 -30 -14 0 10 33 44 37 39 3 -2 0 -14 -7 -25z
m237 15 c-5 -15 -47 -16 -47 -1 0 7 11 13 25 13 15 0 24 -5 22 -12z m1816 -1
c-1 -5 -22 -15 -47 -22 -74 -19 -216 -131 -216 -172 0 -7 -6 -11 -14 -8 -7 3
-44 -3 -82 -13 -100 -26 -210 -44 -227 -37 -9 3 -13 13 -11 24 4 15 -10 26
-68 55 -72 37 -74 37 -168 31 -88 -5 -96 -4 -114 16 -16 18 -17 21 -3 21 9 0
19 -4 22 -10 8 -13 115 -13 148 -1 19 7 42 1 115 -34 56 -27 92 -50 92 -59 0
-28 20 -28 144 -1 l123 27 70 68 c43 41 95 80 134 99 62 30 106 37 102 16z
m-4771 -29 c4 -17 1 -23 -9 -19 -14 6 -18 43 -4 43 5 0 11 -11 13 -24z m2989
4 c5 0 9 -4 9 -9 0 -4 -11 -6 -25 -3 -14 2 -25 9 -25 14 0 6 7 7 16 4 9 -3 20
-6 25 -6z m-201 -32 c0 -4 -9 -8 -20 -8 -16 0 -20 -7 -21 -37 0 -21 -3 -32 -6
-25 -2 6 -11 12 -19 12 -8 0 -14 5 -14 10 0 6 6 10 14 10 16 0 28 37 15 46
-22 13 -6 21 21 11 17 -6 30 -15 30 -19z m-407 -44 c-3 -9 1 -14 12 -14 9 0
31 -11 48 -24 21 -16 71 -34 147 -51 63 -14 121 -32 128 -39 25 -24 -249 44
-284 70 -17 13 -38 24 -47 24 -9 0 -19 5 -22 10 -4 7 -11 8 -18 2 -7 -6 -32
-13 -57 -17 -25 -4 -57 -14 -71 -22 -26 -15 -78 -86 -100 -135 -11 -25 -29
-38 -29 -22 0 17 67 128 92 153 30 29 128 64 152 55 8 -3 16 2 20 11 3 9 0 18
-9 21 -21 8 -19 18 8 29 19 9 23 7 29 -13 4 -13 4 -30 1 -38z m257 51 c0 -8
-4 -15 -10 -15 -5 0 -10 7 -10 15 0 8 5 15 10 15 6 0 10 -7 10 -15z m42 -7
c-9 -9 -7 -14 6 -24 16 -12 16 -13 0 -14 -9 0 -19 4 -22 9 -8 13 4 41 17 41 8
0 7 -4 -1 -12z m2089 -64 c-14 -72 -37 -102 -26 -34 4 25 11 49 16 55 5 5 9
20 10 35 0 14 3 20 5 13 3 -6 0 -38 -5 -69z m-2456 56 c3 -5 1 -10 -4 -10 -6
0 -11 5 -11 10 0 6 2 10 4 10 3 0 8 -4 11 -10z m525 6 c0 -11 -19 -15 -25 -6
-3 5 1 10 9 10 9 0 16 -2 16 -4z m2717 -78 c-15 -11 -37 -33 -51 -50 -14 -19
-26 -26 -30 -19 -9 14 82 103 96 94 7 -3 0 -14 -15 -25z m-2807 -28 c0 -5 -4
-10 -10 -10 -5 0 -10 5 -10 10 0 6 5 10 10 10 6 0 10 -4 10 -10z m145 -90 c3
-5 1 -10 -6 -10 -6 0 -1 -9 12 -20 18 -14 20 -19 8 -20 -8 0 -24 7 -35 15 -24
18 -58 19 -92 1 -26 -13 -27 -13 -28 13 -1 25 1 26 67 29 38 1 70 -2 74 -8z
m783 -22 c10 -10 7 -18 -17 -38 l-30 -25 19 -24 c17 -19 23 -21 35 -11 15 12
22 0 8 -14 -5 -4 -9 -12 -9 -17 -1 -5 -2 -12 -3 -15 0 -3 -12 8 -26 23 -19 22
-24 24 -25 11 0 -10 -9 -22 -20 -28 -20 -11 -21 -8 -19 50 2 54 4 60 21 54 23
-7 49 12 41 32 -6 17 9 18 25 2z m51 -34 c3 -16 1 -17 -13 -5 -19 16 -21 34
-3 29 6 -3 14 -13 16 -24z m283 0 c15 -32 8 -37 -86 -60 -86 -21 -116 -47
-116 -102 0 -21 -5 -53 -11 -71 -14 -39 -34 -42 -23 -3 4 15 8 43 9 62 3 62
29 96 90 119 31 12 63 21 73 21 30 0 45 16 37 39 -9 30 13 27 27 -5z m658 -44
c-18 -33 -25 -15 -9 22 9 23 15 28 17 16 2 -9 -2 -27 -8 -38z m-4240 30 c0 -5
-2 -10 -4 -10 -3 0 -8 5 -11 10 -3 6 -1 10 4 10 6 0 11 -4 11 -10z m5510 0 c0
-13 -78 -52 -93 -47 -7 2 11 16 38 30 59 31 55 29 55 17z m-905 -10 c-3 -5
-13 -10 -21 -10 -8 0 -14 5 -14 10 0 6 9 10 21 10 11 0 17 -4 14 -10z m-2965
-61 c-17 -34 -26 -58 -21 -54 13 7 14 -14 3 -32 -12 -19 -33 1 -29 28 8 40 50
119 64 119 9 0 3 -20 -17 -61z m1690 49 c0 -7 -11 -14 -25 -14 -21 -2 -24 1
-14 12 14 17 39 18 39 2z m-2290 -43 c0 -8 -4 -17 -10 -20 -6 -4 -10 5 -10 20
0 15 4 24 10 20 6 -3 10 -12 10 -20z m1200 22 c0 -2 -12 -14 -27 -28 -24 -22
-24 -13 0 19 8 11 27 17 27 9z m625 -23 c-23 -17 -32 -10 -15 11 7 8 17 12 23
8 6 -4 3 -11 -8 -19z m265 11 c0 -8 -4 -15 -10 -15 -5 0 -10 7 -10 15 0 8 5
15 10 15 6 0 10 -7 10 -15z m1286 -1 c-3 -9 -6 -18 -6 -20 0 -2 -4 -4 -9 -4
-5 0 -7 9 -4 20 3 11 10 20 15 20 6 0 7 -7 4 -16z m984 -5 c0 -7 -11 -9 -30
-5 -16 3 -30 2 -30 -3 0 -5 -7 -11 -15 -15 -20 -7 -75 4 -75 16 0 5 13 7 30 3
16 -3 37 -2 47 4 24 14 73 14 73 0z m-3635 -29 c3 -11 13 -20 20 -20 8 0 17
-4 20 -10 7 -12 -25 -13 -41 -2 -16 10 -28 52 -15 52 5 0 13 -9 16 -20z m-91
-24 c-3 -9 -10 -13 -16 -10 -5 3 -4 12 3 20 15 18 22 13 13 -10z m472 9 c-11
-8 -36 -15 -55 -15 -53 0 -83 -11 -77 -26 3 -7 1 -16 -4 -19 -6 -4 -10 -2 -10
4 0 6 -9 15 -20 21 -18 10 -22 6 -39 -32 -13 -31 -29 -48 -54 -60 -38 -18 -41
-39 -10 -65 10 -8 11 -13 3 -18 -15 -9 -25 2 -38 41 -10 30 -8 32 30 54 27 15
46 36 58 62 15 34 23 41 51 43 120 11 152 15 157 20 3 3 10 5 16 5 6 0 2 -7
-8 -15z m1664 5 c0 -5 -7 -10 -15 -10 -8 0 -15 5 -15 10 0 6 7 10 15 10 8 0
15 -4 15 -10z m-2757 -20 c3 -11 1 -20 -4 -20 -5 0 -9 2 -9 4 0 2 -3 11 -6 20
-3 9 -2 16 4 16 5 0 12 -9 15 -20z m1806 -1 c-18 -11 -39 -11 -39 0 0 11 31
20 44 13 4 -2 2 -8 -5 -13z m-3239 2 c0 -6 -4 -13 -10 -16 -5 -3 -10 1 -10 9
0 9 5 16 10 16 6 0 10 -4 10 -9z m2480 -21 c12 -8 11 -10 -7 -10 -13 0 -23 5
-23 10 0 13 11 13 30 0z m1995 -1 c11 -17 0 -20 -21 -4 -17 13 -17 14 -2 15 9
0 20 -5 23 -11z m-1011 -64 c-10 -5 -63 -46 -118 -90 -91 -72 -109 -92 -181
-202 -44 -67 -93 -145 -108 -173 l-28 -51 -34 21 c-19 12 -74 28 -127 37 -51
8 -105 22 -120 29 -15 8 -72 23 -128 33 -55 11 -104 23 -110 26 -12 7 -30 -27
-30 -57 0 -31 42 -70 160 -149 147 -98 184 -137 245 -261 48 -98 57 -126 34
-112 -5 3 -31 51 -58 107 -56 118 -70 133 -241 252 -69 48 -133 97 -142 109
-21 25 -23 85 -4 111 13 18 16 18 117 0 57 -9 125 -26 151 -36 25 -10 84 -25
130 -33 45 -8 96 -19 111 -25 16 -6 30 -11 31 -11 5 0 106 152 157 236 36 58
64 88 152 158 60 47 114 86 120 86 8 0 7 4 -1 12 -7 7 -12 19 -12 27 0 10 7 8
26 -10 24 -22 24 -25 8 -34z m-2006 22 c5 -24 -15 -21 -21 4 -3 13 -1 19 6 16
7 -2 13 -11 15 -20z m982 18 c0 -2 -15 -21 -32 -42 -19 -21 -26 -34 -17 -31
13 5 16 1 15 -18 -1 -26 -4 -28 -25 -15 -10 7 -25 1 -48 -16 -29 -22 -33 -30
-28 -55 8 -36 -10 -37 -20 -1 -5 23 0 33 32 64 21 20 54 55 73 78 31 36 50 50
50 36z m68 -28 c-3 -14 -5 -14 -23 -1 -17 13 -18 16 -5 24 18 11 33 -2 28 -23z
m-2100 4 c3 -8 -1 -12 -9 -9 -7 2 -15 10 -17 17 -3 8 1 12 9 9 7 -2 15 -10 17
-17z m1558 -27 c-2 -27 2 -62 11 -83 12 -28 15 -72 14 -189 l-2 -154 23 16
c40 28 43 17 7 -21 -48 -51 -109 -221 -85 -235 21 -12 20 -35 -1 -47 -10 -6
-13 -11 -7 -11 6 0 17 7 24 15 7 8 17 12 22 9 5 -3 0 -16 -11 -28 l-21 -23 27
-13 c16 -7 23 -15 16 -17 -7 -3 -29 5 -48 17 -40 25 -46 56 -12 70 22 9 22 9
-4 9 -44 1 -98 -90 -121 -206 -11 -50 -27 -89 -54 -130 -34 -51 -114 -220
-114 -241 0 -10 117 -113 173 -151 68 -46 142 -78 217 -92 36 -7 80 -21 98
-31 18 -10 40 -18 49 -18 12 0 13 -3 4 -14 -10 -11 -3 -29 33 -85 25 -38 53
-94 63 -123 22 -68 74 -122 138 -145 38 -14 55 -27 71 -56 11 -20 24 -34 29
-30 4 5 5 3 1 -4 -3 -6 1 -13 11 -16 15 -4 14 -5 -3 -6 -22 -1 -40 15 -59 52
-5 11 -30 27 -55 36 -25 9 -60 27 -78 40 -31 24 -82 110 -82 140 0 8 -12 35
-27 60 -24 42 -27 43 -34 23 -11 -30 -33 -29 -23 1 3 12 11 24 16 25 12 5 -17
49 -59 88 -26 24 -49 35 -100 44 -37 7 -88 22 -113 33 -65 29 -178 108 -229
161 -40 41 -46 44 -57 28 -12 -16 -13 -15 -14 4 0 44 101 264 146 314 7 9 20
47 29 85 22 97 38 134 89 208 26 39 56 102 75 158 29 88 31 103 31 240 0 102
-4 149 -12 158 -10 11 -10 14 -1 18 10 4 9 13 -2 40 -18 41 -19 62 -5 97 14
39 20 32 16 -20z m484 11 c-7 -8 -17 -15 -22 -15 -6 0 -5 7 2 15 7 8 17 15 22
15 6 0 5 -7 -2 -15z m-970 -31 c0 -8 -4 -12 -10 -9 -5 3 -10 13 -10 21 0 8 5
12 10 9 6 -3 10 -13 10 -21z m-1050 -6 c0 -19 -2 -20 -10 -8 -13 19 -13 30 0
30 6 0 10 -10 10 -22z m1482 2 c-1 -6 7 -27 19 -46 23 -37 9 -48 -15 -11 -23
35 -32 81 -15 75 8 -3 13 -11 11 -18z m-372 0 c0 -5 -4 -10 -10 -10 -5 0 -10
5 -10 10 0 6 5 10 10 10 6 0 10 -4 10 -10z m-1076 -24 c-3 -9 -10 -13 -16 -10
-5 3 -4 12 3 20 15 18 22 13 13 -10z m-31 -43 c-7 -17 -33 -17 -33 0 0 21 22
39 31 25 4 -6 5 -17 2 -25z m1079 25 c-9 -9 -15 -9 -24 0 -9 9 -7 12 12 12 19
0 21 -3 12 -12z m2128 -4 c0 -2 -9 -4 -21 -4 -11 0 -18 4 -14 10 5 8 35 3 35
-6z m-725 -4 c3 -5 -1 -10 -10 -10 -9 0 -13 5 -10 10 3 6 8 10 10 10 2 0 7 -4
10 -10z m3369 -15 c3 -10 -1 -15 -14 -15 -20 0 -33 13 -23 24 11 11 31 6 37
-9z m-1384 -1 c0 -3 -14 -25 -30 -48 -21 -28 -30 -52 -28 -73 1 -21 -12 -52
-46 -106 -26 -42 -51 -79 -57 -82 -21 -13 -105 -232 -141 -365 -29 -108 -79
-220 -99 -220 -5 0 7 33 25 73 19 39 47 117 61 172 36 136 119 344 143 359 25
15 86 133 93 178 5 31 19 62 36 83 26 31 43 43 43 29z m-1290 -13 c0 -5 -25
-43 -56 -85 -30 -42 -56 -85 -57 -95 0 -11 -4 -18 -9 -15 -4 2 -58 -73 -121
-168 l-115 -173 -6 -277 c-6 -259 -15 -338 -37 -338 -17 0 -9 -60 12 -103 20
-37 22 -59 23 -218 0 -98 4 -175 8 -173 9 6 19 -12 23 -42 3 -30 77 -101 115
-110 14 -4 30 -11 37 -16 23 -18 72 -27 81 -15 14 19 10 51 -8 64 -9 6 -22 30
-30 52 -7 23 -17 41 -22 41 -4 0 -8 12 -8 27 0 33 10 22 35 -37 28 -68 65
-104 65 -64 0 8 4 13 9 9 6 -3 4 -22 -5 -47 -22 -63 -18 -73 44 -121 31 -25
75 -65 98 -89 49 -51 124 -180 124 -212 0 -32 20 -87 39 -110 9 -10 15 -20 14
-22 -9 -14 -1 -35 12 -31 8 4 17 1 21 -4 3 -6 15 -9 25 -6 11 3 19 0 19 -8 0
-15 -38 -27 -42 -13 -2 5 -15 5 -33 -3 -17 -6 -25 -13 -19 -16 7 -2 10 -13 7
-23 -5 -18 -3 -19 26 -9 17 6 31 15 31 19 0 5 16 14 35 21 33 12 47 29 25 29
-21 0 -8 19 20 28 21 8 28 16 24 26 -7 18 11 22 21 5 5 -7 15 -3 30 11 19 18
23 34 27 103 3 59 11 93 26 122 12 22 22 44 22 50 0 6 14 19 30 29 32 18 32
36 0 36 -10 0 -22 5 -26 11 -4 8 -9 7 -15 -2 -8 -12 -11 -11 -19 1 -5 8 -10
22 -10 30 0 21 -195 86 -213 71 -19 -15 -117 -26 -117 -12 0 6 12 11 28 11 42
0 72 11 72 26 0 16 21 19 35 5 8 -7 108 -41 122 -41 2 0 3 7 3 15 0 8 5 15 10
15 6 0 10 -9 10 -20 0 -13 12 -25 35 -34 19 -8 35 -20 35 -25 0 -6 6 -8 14 -5
7 3 16 -2 19 -10 4 -9 13 -16 21 -16 8 0 19 -8 25 -17 7 -13 13 -15 20 -8 8 8
6 35 -4 90 -9 44 -14 89 -11 100 3 13 23 28 51 39 25 11 45 24 45 30 0 6 5 5
12 -2 7 -7 31 -12 54 -12 l42 0 36 73 c47 95 64 117 76 97 13 -21 12 -32 -2
-27 -15 4 -61 -70 -52 -84 3 -5 -2 -16 -10 -25 -9 -8 -16 -19 -16 -22 0 -11
83 -2 97 10 7 5 16 7 22 4 5 -3 44 -1 86 6 l78 12 -6 91 c-4 50 -9 99 -13 108
-5 13 -2 16 10 11 12 -5 16 -20 17 -63 0 -31 4 -109 8 -175 8 -133 16 -147 77
-141 19 2 34 -1 34 -6 0 -5 -18 -45 -39 -88 -22 -43 -50 -120 -62 -172 -12
-51 -27 -99 -35 -106 -37 -37 -140 -45 -191 -13 -22 13 -44 43 -69 92 -40 81
-66 113 -107 135 -38 19 -54 12 -62 -29 -4 -18 -12 -39 -18 -46 -5 -7 -6 -16
-2 -20 4 -4 10 -1 12 6 3 7 10 18 17 25 7 6 16 21 20 32 7 19 8 19 17 2 9 -14
5 -23 -16 -43 -18 -17 -24 -30 -20 -44 5 -15 2 -20 -14 -20 -11 0 -22 4 -26
10 -3 5 -12 7 -20 3 -17 -6 -13 12 16 62 9 17 20 42 23 58 6 24 4 27 -21 27
-29 0 -103 -46 -103 -63 0 -6 -9 -29 -19 -51 -14 -28 -21 -67 -22 -123 -2 -45
-6 -80 -9 -78 -3 2 -16 -12 -30 -31 -14 -18 -36 -39 -50 -47 -67 -35 -90 -54
-90 -70 0 -10 5 -15 10 -12 6 4 10 -5 10 -19 0 -15 6 -26 13 -26 18 0 83 81
79 99 -2 8 2 12 11 8 8 -3 20 0 26 6 6 6 13 8 16 6 2 -3 -24 -36 -59 -74 -63
-68 -64 -69 -90 -55 -15 7 -25 19 -22 26 9 22 -19 36 -49 24 -28 -11 -44 -2
-45 24 0 18 -42 -4 -183 -98 -81 -53 -149 -96 -152 -96 -21 0 12 27 123 100
70 47 128 85 130 86 1 1 -6 21 -16 45 -11 24 -25 69 -32 99 -7 30 -26 78 -41
106 -32 55 -34 64 -19 64 15 0 64 -110 96 -213 16 -54 31 -86 38 -82 6 3 18 8
28 11 9 3 19 16 22 29 8 31 -4 86 -17 78 -6 -3 -7 -1 -3 6 10 16 -20 106 -55
163 -16 26 -35 63 -43 81 -7 19 -32 53 -54 76 -33 35 -44 41 -66 35 -25 -6
-32 4 -28 37 1 4 -13 13 -31 20 -41 16 -180 102 -228 140 -30 23 -43 28 -68
23 -17 -4 -33 -10 -36 -14 -8 -12 -8 -64 -1 -81 5 -10 -2 -27 -19 -47 -14 -17
-22 -32 -18 -34 5 -3 3 -4 -2 -3 -6 2 -28 -14 -50 -34 -22 -20 -36 -33 -30
-28 14 11 37 9 30 -3 -14 -23 18 -7 82 42 43 33 67 58 66 69 -3 24 24 32 30 8
3 -10 1 -22 -5 -25 -5 -3 -3 -13 7 -24 11 -12 13 -20 6 -25 -6 -3 -11 -9 -11
-13 0 -11 70 -30 76 -21 3 5 13 9 22 9 11 0 5 -11 -21 -38 -27 -27 -34 -41
-27 -52 7 -12 12 -12 22 -2 6 6 19 12 27 12 11 0 10 -4 -4 -20 -24 -26 -12
-37 25 -23 47 18 35 -5 -15 -28 -71 -33 -62 -58 49 -141 124 -93 156 -127 156
-163 -1 -32 -25 -73 -37 -62 -4 4 -1 13 5 19 7 7 12 27 12 45 0 34 -16 50
-149 150 -35 26 -73 65 -85 85 -20 35 -20 38 -4 54 15 15 15 20 -7 62 l-23 45
21 18 22 18 -33 1 c-28 0 -33 4 -39 30 -8 44 -18 45 -62 8 -25 -21 -35 -35
-28 -40 8 -5 6 -9 -5 -13 -10 -4 -20 -15 -23 -26 -4 -10 -14 -19 -23 -19 -12
0 -13 3 -4 12 17 17 15 33 -3 18 -11 -9 -18 -10 -29 -1 -11 9 -15 6 -20 -14
-4 -14 -13 -25 -21 -25 -17 0 -20 16 -5 25 12 7 4 25 -11 25 -5 0 -15 -11 -21
-25 -6 -14 -17 -25 -24 -25 -21 0 -26 -19 -9 -36 15 -16 14 -18 -12 -36 -15
-10 -37 -16 -48 -14 -11 3 -29 -3 -42 -16 -30 -28 -43 -15 -15 15 12 13 22 27
22 30 0 4 -16 22 -36 39 -36 32 -36 33 -31 93 5 50 2 64 -13 85 -31 40 -24 90
14 90 11 0 36 9 54 20 20 12 50 20 80 20 26 0 65 9 87 19 25 11 54 16 73 13
49 -7 125 7 114 21 -5 7 -10 39 -10 71 -1 33 -5 63 -10 68 -5 5 -64 15 -133
24 -117 14 -138 19 -128 28 5 4 216 -19 249 -28 l25 -7 -3 113 c-4 128 -15
182 -42 205 -10 9 -16 22 -13 28 2 7 0 16 -6 20 -14 8 16 55 34 55 14 0 30
152 23 220 -3 35 -3 35 -56 38 l-54 3 2 -38 c3 -53 2 -59 -10 -47 -6 6 -11 27
-12 47 l-1 36 -74 7 c-48 4 -72 10 -70 18 3 6 8 10 13 10 5 -1 66 -5 135 -9
l127 -7 4 154 c3 118 1 155 -9 161 -18 11 -16 28 2 20 19 -7 47 26 39 47 -3 8
-2 11 2 7 10 -10 37 31 29 43 -4 6 -2 9 3 8 5 -2 38 40 73 92 34 52 91 133
126 179 34 46 60 88 56 94 -3 6 -1 7 5 3 6 -3 19 7 28 24 18 29 34 39 34 21z
m26 -28 c-11 -11 -17 4 -9 23 7 18 8 18 11 1 2 -10 1 -21 -2 -24z m-3233 -9
c-8 -20 -33 -17 -33 4 0 10 3 22 7 25 10 11 32 -13 26 -29z m3147 29 c0 -5
-12 -21 -26 -36 -17 -21 -30 -27 -42 -21 -16 7 -16 7 0 11 9 2 24 15 32 29 16
23 36 33 36 17z m1574 -29 c9 -3 13 -10 10 -15 -3 -5 -10 -7 -15 -4 -5 4 -6
-7 -3 -25 4 -17 2 -30 -4 -30 -10 0 -22 67 -13 75 6 6 6 6 25 -1z m-875 -67
c6 -35 22 -96 36 -137 29 -85 28 -80 15 -80 -11 0 -65 167 -74 233 -11 71 10
58 23 -16z m-623 16 c-11 -11 -19 6 -11 24 8 17 8 17 12 0 3 -10 2 -21 -1 -24z
m-3253 7 c-3 -11 -9 -20 -14 -20 -10 0 -12 24 -2 33 13 13 21 7 16 -13z m3447
10 c0 -5 -4 -10 -10 -10 -5 0 -10 5 -10 10 0 6 5 10 10 10 6 0 10 -4 10 -10z
m-1903 -47 c2 -6 -7 -10 -22 -9 -16 1 -25 7 -25 18 0 14 5 16 22 9 12 -4 24
-13 25 -18z m1848 17 c-3 -5 -13 -10 -21 -10 -8 0 -12 5 -9 10 3 6 13 10 21
10 8 0 12 -4 9 -10z m3289 -37 c19 -116 18 -127 -8 -197 -15 -39 -24 -78 -20
-89 4 -12 2 -17 -4 -13 -6 4 -22 -20 -38 -56 -16 -35 -45 -95 -65 -133 -26
-51 -34 -76 -28 -92 4 -11 36 -42 71 -69 85 -65 148 -124 148 -138 0 -6 26
-27 57 -45 31 -19 73 -49 93 -68 21 -18 44 -33 52 -33 32 0 35 -20 15 -108
-19 -84 -22 -89 -59 -111 -21 -12 -38 -17 -38 -12 0 5 14 18 30 28 17 10 33
29 36 43 10 42 25 104 30 123 3 10 0 17 -9 17 -7 0 -40 20 -72 45 -32 25 -80
58 -107 73 -28 16 -48 34 -48 44 0 9 -45 52 -102 97 -57 45 -107 85 -113 90
-11 9 -75 -78 -75 -102 0 -7 -17 -29 -38 -50 -32 -31 -54 -41 -167 -72 -107
-29 -155 -49 -278 -116 -175 -95 -190 -100 -237 -83 l-35 12 50 0 c44 0 68 10
207 85 132 72 175 91 279 118 101 27 130 39 161 67 21 19 38 41 38 48 0 8 5
14 10 14 6 0 10 3 9 8 -2 15 14 52 22 52 5 0 46 75 91 167 74 152 80 168 64
177 -39 24 -51 35 -44 42 4 3 19 -1 34 -11 31 -20 35 -17 64 63 23 63 23 66 4
185 -4 22 -2 37 4 37 5 0 13 -17 16 -37z m-6695 0 c0 -25 -1 -25 -8 -8 -5 11
-7 23 -4 28 8 14 13 7 12 -20z m3271 13 c0 -8 -4 -18 -10 -21 -5 -3 -10 3 -10
14 0 12 5 21 10 21 6 0 10 -6 10 -14z m545 -16 c-3 -5 1 -10 11 -10 13 0 14
-3 4 -15 -16 -19 -26 -19 -34 1 -7 18 0 34 15 34 6 0 7 -4 4 -10z m-2300 -10
c3 -5 1 -10 -4 -10 -6 0 -11 5 -11 10 0 6 2 10 4 10 3 0 8 -4 11 -10z m45 6
c0 -11 -19 -15 -25 -6 -3 5 1 10 9 10 9 0 16 -2 16 -4z m4990 -25 c0 -5 -9
-13 -21 -16 -11 -4 -49 -34 -85 -67 -49 -46 -68 -58 -76 -50 -9 9 -9 12 0 12
7 0 29 19 49 41 57 62 133 108 133 80z m-6522 -37 c-10 -10 -28 6 -28 24 0 15
1 15 17 -1 9 -9 14 -19 11 -23z m3232 29 c0 -14 -19 -38 -25 -32 -8 8 5 39 16
39 5 0 9 -3 9 -7z m-3200 -75 c0 -6 -7 -5 -15 2 -8 7 -15 17 -15 22 0 6 7 5
15 -2 8 -7 15 -17 15 -22z m3161 -1 c-16 -16 -26 0 -10 19 9 11 15 12 17 4 2
-6 -1 -17 -7 -23z m1711 6 c11 -29 14 -164 7 -385 -4 -114 -6 -128 -21 -128
-10 0 -18 5 -18 10 0 6 3 10 8 10 17 0 21 441 5 488 -15 39 3 44 19 5z m-5344
5 c7 -9 6 -17 -3 -25 -10 -10 -14 -9 -19 3 -13 33 1 47 22 22z m548 -23 c-21
-16 -32 -13 -21 4 3 6 14 11 23 11 15 -1 15 -2 -2 -15z m-26 -35 c33 -36 51
-37 125 -9 67 25 100 20 109 -17 5 -20 10 -24 19 -15 6 6 18 11 26 11 13 0 13
-2 -1 -17 -9 -9 -25 -17 -35 -18 -28 -2 -57 -25 -87 -72 -28 -42 -28 -42 -11
-86 19 -51 12 -76 -33 -113 -22 -18 -26 -28 -23 -68 1 -33 -5 -60 -22 -94 -13
-26 -37 -74 -52 -107 -33 -70 -33 -70 -40 -63 -5 5 13 52 34 88 36 63 61 136
61 177 0 38 6 52 35 84 40 45 40 43 21 97 -13 37 -13 43 5 79 11 21 33 50 50
64 32 28 38 56 14 66 -9 3 -41 -4 -71 -16 -71 -27 -86 -26 -121 3 -15 12 -34
21 -40 19 -15 -5 -16 -2 -7 21 8 22 12 21 44 -14z m3080 10 c-6 -11 -15 -20
-21 -20 -6 0 -6 7 1 20 6 11 15 20 21 20 6 0 6 -7 -1 -20z m-3614 -37 c-11
-11 -19 6 -11 24 8 17 8 17 12 0 3 -10 2 -21 -1 -24z m454 -8 c-7 -9 -15 -13
-18 -10 -3 2 1 11 8 20 7 9 15 13 18 10 3 -2 -1 -11 -8 -20z m1712 8 c9 -10
30 -48 47 -85 32 -68 105 -150 171 -193 19 -12 67 -32 105 -45 39 -13 86 -35
105 -50 19 -14 73 -48 120 -75 101 -57 93 -51 86 -64 -7 -10 -180 84 -227 123
-16 13 -59 34 -96 46 -94 31 -144 62 -203 127 -41 44 -99 140 -138 226 -7 14
15 7 30 -10z m1188 -4 c0 -22 -8 -23 -32 -5 -24 18 -23 24 7 24 18 0 25 -6 25
-19z m-3320 -19 c-8 -16 -6 -22 10 -32 27 -17 25 -28 -5 -28 -13 0 -28 8 -34
17 -5 9 -22 18 -38 19 -43 2 -43 2 -43 27 0 15 3 18 8 9 5 -8 16 -10 27 -6 13
5 16 4 11 -4 -5 -8 1 -12 17 -12 17 0 26 7 30 21 3 12 10 18 16 14 8 -4 8 -12
1 -25z m6446 -7 c-11 -11 -19 6 -11 24 8 17 8 17 12 0 3 -10 2 -21 -1 -24z
m297 -3 c-6 -23 -19 -26 -26 -6 -6 15 12 38 24 31 4 -3 5 -14 2 -25z m-6363
-5 c-7 -8 -22 -15 -33 -15 -20 0 -20 0 -1 15 27 20 51 20 34 0z m1330 6 c0
-11 -31 -24 -39 -16 -3 3 1 10 9 15 19 12 30 12 30 1z m-20 -67 c0 -8 -4 -12
-10 -9 -5 3 -10 13 -10 21 0 8 5 12 10 9 6 -3 10 -13 10 -21z m2656 -42 c-12
-11 -18 7 -10 30 l8 23 4 -23 c2 -13 1 -26 -2 -30z m-2636 -9 c0 -20 -3 -24
-11 -16 -7 7 -9 19 -6 27 10 24 17 19 17 -11z m2648 -68 c2 -35 9 -83 17 -105
14 -40 14 -41 -12 -51 -38 -14 -66 -6 -30 9 30 13 32 18 17 58 -10 25 -12 25
-28 11 -10 -9 -39 -26 -65 -37 -50 -22 -78 -57 -57 -70 8 -5 -4 -15 -35 -29
-59 -26 -54 -26 -106 4 -24 14 -59 25 -76 25 -18 0 -33 5 -33 10 0 6 5 10 10
10 7 0 7 7 0 20 -19 36 -9 73 22 81 36 9 45 -5 13 -19 -47 -22 -21 -81 30 -68
27 7 32 27 15 70 -6 16 -6 27 0 31 5 3 15 -15 21 -40 7 -26 16 -44 23 -42 6 2
66 22 134 43 l123 39 -2 45 c-2 59 -1 70 9 70 4 0 9 -29 10 -65z m-2643 -5
c-11 -17 -23 -1 -18 21 5 19 7 19 15 5 5 -9 6 -21 3 -26z m2588 20 c-11 -11
-206 -70 -212 -64 -10 9 16 21 94 44 44 12 87 26 95 30 17 10 36 1 23 -10z
m1972 -34 c7 3 15 -4 18 -15 3 -14 0 -21 -8 -21 -16 0 -45 27 -45 43 0 8 3 8
11 0 6 -6 17 -9 24 -7z m-4595 -5 c0 -5 -7 -11 -15 -15 -15 -5 -20 5 -8 17 9
10 23 9 23 -2z m50 -23 c0 -19 -2 -20 -10 -8 -13 19 -13 30 0 30 6 0 10 -10
10 -22z m-103 -25 c-9 -9 -19 -14 -23 -11 -10 10 6 28 24 28 15 0 15 -1 -1
-17z m134 -42 c11 -27 -6 -19 -22 11 -8 16 -8 19 2 16 6 -2 16 -14 20 -27z
m-184 2 c-9 -9 -19 -14 -23 -11 -10 10 6 28 24 28 15 0 15 -1 -1 -17z m2891
-55 c-23 -33 -50 -59 -56 -53 -2 2 14 27 34 56 21 28 40 47 42 41 2 -6 -7 -26
-20 -44z m-2933 23 c-3 -6 -14 -11 -23 -11 -15 1 -15 2 2 15 21 16 32 13 21
-4z m-55 -31 c-24 -15 -37 -11 -16 5 11 8 22 12 25 9 3 -3 -1 -9 -9 -14z
m4440 -5 c0 -14 -4 -25 -10 -25 -5 0 -10 4 -10 9 0 5 -3 16 -6 25 -4 11 -1 16
10 16 10 0 16 -9 16 -25z m-126 -42 c6 -45 2 -63 -10 -50 -10 10 -14 97 -5 97
5 0 11 -21 15 -47z m-4354 28 c0 -11 -31 -24 -39 -16 -3 3 1 10 9 15 19 12 30
12 30 1z m4377 -23 c-3 -8 -6 -5 -6 6 -1 11 2 17 5 13 3 -3 4 -12 1 -19z m613
6 c0 -4 -28 -33 -62 -65 -44 -41 -54 -55 -34 -44 28 13 46 12 46 -3 0 -4 -9
-8 -21 -9 -24 -2 -80 -42 -127 -91 -29 -30 -35 -33 -48 -21 -12 13 3 30 109
126 114 105 137 122 137 107z m-5050 -13 c0 -5 -7 -11 -15 -15 -15 -5 -20 5
-8 17 9 10 23 9 23 -2z m3845 -32 c14 -17 23 -34 20 -37 -6 -6 -65 48 -65 60
0 17 19 7 45 -23z m-906 7 c14 -17 5 -41 -28 -70 -12 -11 -19 -26 -16 -36 3
-10 -2 -23 -10 -30 -14 -12 -14 -15 0 -30 14 -16 11 -22 -40 -73 -31 -31 -69
-63 -85 -71 -48 -24 -44 12 7 57 24 21 43 45 43 52 0 8 9 20 21 28 20 15 20
16 -25 62 -50 50 -58 70 -25 62 24 -6 98 23 118 47 17 20 25 20 40 2z m679
-21 c-9 -9 -30 14 -23 25 6 9 10 8 17 -4 6 -10 8 -19 6 -21z m-3668 16 c0 -13
-28 -22 -35 -11 -3 4 1 11 7 13 20 8 28 8 28 -2z m-65 -41 c-10 -11 -23 -20
-28 -20 -6 0 -2 9 8 20 10 11 23 20 28 20 6 0 2 -9 -8 -20z m4046 -2 c1 -7 0
-30 -1 -51 -1 -21 6 -49 14 -63 9 -13 12 -24 6 -24 -5 0 -10 -17 -10 -38 0
-37 -19 -75 -50 -99 -29 -24 -33 -13 -6 16 35 37 49 100 34 158 -6 24 -8 52
-5 64 4 13 -18 -4 -57 -45 -35 -36 -71 -66 -80 -66 -23 0 -20 17 4 25 11 3 45
35 77 71 57 64 72 75 74 52z m-4099 -50 c-6 -6 -15 -8 -19 -4 -4 4 -1 11 7 16
19 12 27 3 12 -12z m2858 -18 c0 -5 -4 -10 -10 -10 -5 0 -10 5 -10 10 0 6 5
10 10 10 6 0 10 -4 10 -10z m27 -22 c-3 -7 -5 -2 -5 12 0 14 2 19 5 13 2 -7 2
-19 0 -25z m376 13 c5 -22 -1 -33 -14 -25 -12 7 -12 44 0 44 5 0 11 -9 14 -19z
m-3293 2 c0 -17 -18 -35 -29 -29 -8 5 -7 11 2 21 13 16 27 19 27 8z m1565 -23
c-3 -5 -13 -10 -21 -10 -8 0 -12 5 -9 10 3 6 13 10 21 10 8 0 12 -4 9 -10z
m2225 -14 c0 -3 -4 -8 -10 -11 -5 -3 -10 -1 -10 4 0 6 5 11 10 11 6 0 10 -2
10 -4z m520 -2 c0 -6 -73 -100 -124 -159 -19 -22 -37 -37 -41 -33 -4 4 15 33
42 65 27 32 62 75 77 96 25 33 46 47 46 31z m-1408 -36 c-7 -7 -12 -8 -12 -2
0 6 3 14 7 17 3 4 9 5 12 2 2 -3 -1 -11 -7 -17z m412 -24 c3 -9 6 -25 6 -36 0
-15 -3 -18 -12 -11 -7 6 -23 13 -35 16 -21 5 -23 1 -23 -29 0 -19 -4 -34 -10
-34 -14 0 -12 67 3 77 6 4 22 6 34 4 17 -2 21 1 17 13 -3 9 -2 16 4 16 5 0 13
-7 16 -16z m256 -20 c0 -12 7 -15 25 -12 17 4 25 1 25 -9 0 -10 -6 -13 -15 -9
-10 4 -20 -3 -27 -19 -7 -16 -14 -21 -18 -15 -4 6 -21 12 -38 12 -35 1 -40 9
-17 28 8 7 15 19 15 26 0 8 10 14 25 14 16 0 25 -6 25 -16z m1010 -14 c0 -5
-12 -10 -26 -10 -14 0 -23 4 -19 10 3 6 15 10 26 10 10 0 19 -4 19 -10z
m-1675 -61 c5 -5 -10 -9 -35 -9 -52 0 -90 9 -90 20 0 11 112 0 125 -11z m184
5 c2 -2 2 -7 -2 -10 -8 -9 -47 6 -47 17 0 9 37 3 49 -7z m704 -24 c19 -22 15
-40 -8 -40 -7 0 -15 -5 -17 -12 -3 -7 -13 -3 -27 11 -20 20 -31 23 -72 19 -63
-6 -64 9 -1 17 26 3 58 9 72 14 14 5 27 9 30 10 3 1 13 -8 23 -19z m-2979 1
c8 -12 -22 -18 -116 -27 -110 -10 -101 10 10 23 48 5 90 11 94 11 4 1 9 -2 12
-7z m174 -12 c73 -9 111 -9 157 0 51 10 81 9 199 -9 77 -11 142 -23 145 -25
14 -15 -20 -13 -149 6 -119 17 -150 19 -191 9 -39 -10 -79 -9 -184 1 -74 7
-135 16 -135 21 0 11 44 10 158 -3z m1242 -5 c0 -8 -4 -12 -10 -9 -5 3 -10 10
-10 16 0 5 5 9 10 9 6 0 10 -7 10 -16z m110 0 c0 -8 -4 -12 -10 -9 -5 3 -10
10 -10 16 0 5 5 9 10 9 6 0 10 -7 10 -16z m775 -4 c0 -8 10 -16 23 -18 16 -2
22 2 22 15 1 17 1 17 11 0 6 -10 9 -19 7 -20 -1 -1 -14 -8 -27 -16 -23 -13
-27 -11 -48 15 -27 35 -29 47 -5 42 9 -2 17 -10 17 -18z m316 7 c-1 -12 -15
-9 -19 4 -3 6 1 10 8 8 6 -3 11 -8 11 -12z m459 3 c8 -5 11 -12 7 -16 -4 -4
-15 0 -24 9 -18 18 -8 23 17 7z m-3285 -20 c-3 -5 -26 -10 -50 -10 -24 0 -47
5 -50 10 -4 6 15 10 50 10 35 0 54 -4 50 -10z m2925 -42 c0 -5 11 -8 25 -8 14
0 25 -4 25 -10 0 -5 -22 -10 -50 -10 -27 0 -50 5 -50 10 0 6 7 10 15 10 12 0
13 4 5 19 -17 33 -11 47 10 21 11 -14 20 -28 20 -32z m1350 42 c12 -8 11 -10
-6 -10 -12 0 -48 -13 -79 -30 -62 -33 -65 -34 -65 -22 0 4 19 19 43 34 36 22
55 30 87 37 3 0 12 -4 20 -9z m-1661 -76 c-17 -21 -31 -17 -19 6 6 11 15 18
21 14 6 -4 6 -11 -2 -20z m-2759 -20 c0 -13 -4 -24 -9 -24 -5 0 -13 -15 -17
-32 -3 -18 -13 -43 -21 -55 -14 -21 -13 -23 13 -33 68 -25 71 -28 64 -76 -4
-24 -4 -44 0 -44 4 0 8 -11 8 -25 0 -13 -4 -23 -8 -20 -4 2 -7 -15 -6 -40 l0
-44 56 -6 c83 -9 109 -15 116 -27 5 -7 -2 -9 -20 -4 -15 4 -56 9 -89 12 -96 8
-91 -1 -83 129 l7 114 -37 10 c-20 6 -40 8 -44 6 -4 -2 -31 -44 -60 -92 -29
-48 -84 -134 -122 -190 -67 -101 -68 -103 -44 -109 14 -3 29 -3 35 0 6 4 26 0
46 -8 25 -11 35 -21 35 -38 0 -13 3 -34 7 -47 4 -17 3 -22 -5 -17 -6 4 -14 22
-18 42 -7 40 -28 54 -77 52 -30 -1 -34 -4 -29 -22 3 -12 26 -45 51 -73 35 -40
51 -51 66 -47 16 5 18 4 8 -6 -10 -10 -8 -19 8 -42 16 -23 28 -28 60 -28 42 0
44 -2 29 -31 -20 -36 -24 -34 -155 97 -49 50 -106 102 -125 117 -20 15 -29 27
-20 27 33 0 319 458 345 553 16 57 35 68 35 21z m1333 -25 c-28 -27 -57 -49
-65 -49 -7 1 14 25 47 55 73 67 89 62 18 -6z m1663 52 c-7 -11 -56 -21 -56
-11 0 13 13 20 37 20 13 0 22 -4 19 -9z m1484 0 c0 -11 -31 -24 -39 -16 -3 3
1 10 9 15 19 12 30 12 30 1z m-231 -32 c-12 -10 -26 -19 -31 -19 -5 0 -13 -11
-18 -25 -5 -14 -14 -25 -20 -25 -6 0 -8 6 -4 13 4 6 -1 5 -12 -5 -35 -30 -144
-67 -144 -48 0 5 12 13 28 16 40 10 90 37 151 83 53 40 94 48 50 10z m101 10
c0 -6 -4 -7 -10 -4 -5 3 -10 11 -10 16 0 6 5 7 10 4 6 -3 10 -11 10 -16z
m-1603 -70 c22 -41 48 -82 57 -92 15 -16 18 -16 32 -2 17 17 34 20 34 6 0 -15
-61 -35 -77 -25 -20 13 -117 197 -101 192 7 -2 32 -38 55 -79z m113 54 c0 -22
-2 -25 -10 -13 -13 20 -13 40 0 40 6 0 10 -12 10 -27z m1560 12 c0 -8 -4 -15
-10 -15 -5 0 -10 7 -10 15 0 8 5 15 10 15 6 0 10 -7 10 -15z m-3375 -53 c-7
-7 -55 39 -55 52 0 5 13 -3 30 -19 16 -16 28 -31 25 -33z m3455 54 c0 -3 -13
-11 -30 -19 -32 -16 -52 -5 -23 12 18 10 53 15 53 7z m-6056 -22 c4 -9 5 -17
4 -18 -2 -1 -13 -7 -25 -14 -26 -14 -27 -12 -11 23 13 29 23 32 32 9z m5910
-16 c-4 -6 1 -8 16 -3 19 6 21 5 11 -13 -6 -11 -16 -22 -22 -24 -6 -2 -9 -17
-7 -33 l4 -30 13 33 c7 17 18 32 23 32 6 0 17 8 24 18 12 16 13 15 14 -5 0
-13 -8 -24 -20 -28 -11 -3 -20 -14 -20 -23 0 -9 -22 -31 -48 -47 -47 -30 -47
-31 -44 -79 3 -39 11 -58 38 -90 32 -37 41 -56 28 -56 -12 0 -35 30 -29 39 3
5 -4 13 -16 16 -14 5 -28 0 -43 -14 -12 -12 -26 -21 -30 -21 -17 0 -117 -96
-109 -104 4 -3 0 -6 -9 -6 -21 0 -90 52 -111 84 -25 38 -11 32 35 -14 48 -48
69 -50 100 -11 13 16 33 34 46 40 12 6 22 19 22 27 0 11 6 14 16 10 12 -4 15
-2 10 9 -3 9 3 19 14 25 21 11 26 2 10 -18 -6 -8 -5 -7 4 0 10 10 12 27 6 73
-7 57 -7 61 19 82 27 23 34 53 17 65 -6 4 -4 14 7 26 9 10 17 29 17 41 0 12 4
19 10 16 6 -4 7 -11 4 -17z m-2610 -12 c-25 -10 -29 -15 -26 -44 4 -35 26 -52
45 -33 13 13 27 14 27 2 0 -5 -13 -14 -30 -21 -31 -13 -34 -18 -24 -44 7 -19
30 -21 37 -3 2 6 7 9 11 5 4 -3 3 -16 -3 -27 -15 -27 17 -62 48 -54 12 3 21 1
21 -5 0 -5 -12 -12 -27 -15 -21 -4 -31 1 -47 21 -12 15 -29 35 -38 44 -11 11
-22 47 -29 90 -6 40 -12 77 -13 82 -1 11 54 25 68 17 6 -2 -3 -9 -20 -15z
m-1710 -45 c-6 -7 -11 2 -17 34 l-6 30 13 -30 c8 -16 12 -32 10 -34z m836 44
c20 -24 6 -28 -15 -5 -10 11 -13 20 -8 20 6 0 16 -7 23 -15z m1270 -22 c-12
-8 -24 -12 -28 -8 -9 9 28 36 40 29 5 -4 0 -13 -12 -21z m1295 8 c3 -5 1 -12
-5 -16 -5 -3 -10 1 -10 9 0 18 6 21 15 7z m-2283 -91 c5 0 30 16 54 36 52 43
59 32 9 -16 -19 -19 -35 -42 -35 -52 0 -32 35 -56 94 -63 31 -4 56 -11 56 -16
0 -12 -92 -1 -143 17 -37 13 -38 13 -35 -8 2 -12 -3 -23 -11 -26 -9 -3 -11 0
-6 8 5 9 1 10 -15 5 -18 -6 -28 -2 -42 16 -10 14 -17 18 -16 9 2 -8 11 -21 21
-28 14 -11 16 -17 6 -28 -7 -8 -18 -13 -26 -10 -8 3 -13 -2 -13 -15 0 -11 5
-17 10 -14 7 4 8 -8 3 -37 -4 -24 -8 -59 -8 -78 0 -33 2 -35 35 -38 57 -5 63
-24 6 -21 -42 3 -51 0 -59 -17 -7 -17 -64 -54 -82 -54 -17 0 1 19 30 33 21 10
35 24 35 34 0 19 -72 134 -86 136 -5 1 -13 -27 -19 -62 -6 -38 -16 -66 -23
-69 -11 -3 -12 0 -3 16 6 11 11 42 11 69 l0 49 -39 -4 c-21 -2 -42 1 -45 7 -5
7 10 11 44 11 48 0 56 4 110 51 55 48 58 53 45 73 -11 18 -11 23 1 34 12 11
15 10 20 -2 6 -16 34 -23 34 -8 0 12 58 14 65 2 7 -12 35 -14 35 -2 0 4 -27
37 -60 73 -32 37 -56 70 -52 73 4 4 24 -13 45 -38 22 -25 43 -46 49 -46z
m-232 50 c0 -5 -4 -10 -10 -10 -5 0 -10 5 -10 10 0 6 5 10 10 10 6 0 10 -4 10
-10z m1096 -55 c-31 -31 -56 -60 -56 -65 0 -6 -7 -10 -16 -10 -9 0 -14 4 -12
10 7 20 111 120 125 120 9 0 -9 -24 -41 -55z m714 24 c12 -16 21 -32 19 -33
-2 -2 -18 -11 -35 -19 -33 -17 -46 -14 -37 9 4 10 0 12 -11 8 -21 -8 -20 5 2
22 12 10 13 13 3 14 -11 0 -11 3 -1 15 19 23 36 18 60 -16z m-2688 -21 c-6 -6
-7 0 -4 19 5 21 7 23 10 9 2 -10 0 -22 -6 -28z m3138 36 c0 -4 -8 -12 -17 -19
-14 -10 -4 -14 61 -20 113 -10 79 -24 -39 -15 -55 4 -93 8 -84 8 8 1 26 13 39
27 23 24 40 32 40 19z m825 -3 c-6 -5 -49 -19 -97 -31 -49 -13 -88 -28 -88
-35 0 -6 -6 -12 -14 -12 -22 0 -118 -43 -151 -69 -51 -38 -100 -54 -176 -55
-67 -1 -74 -3 -110 -36 -26 -23 -39 -30 -39 -20 0 8 7 20 15 27 8 7 15 23 15
36 0 17 6 24 20 24 11 0 20 5 20 10 0 6 5 10 11 10 6 0 9 -7 5 -15 -6 -16 5
-18 79 -15 55 2 104 18 143 47 18 13 58 36 90 50 31 14 63 31 71 37 31 25 231
70 206 47z m295 -6 c-7 -8 -17 -15 -22 -15 -6 0 -5 7 2 15 7 8 17 15 22 15 6
0 5 -7 -2 -15z m-3340 -27 c0 -6 -7 -5 -15 2 -8 7 -15 17 -15 22 0 6 7 5 15
-2 8 -7 15 -17 15 -22z m1970 6 c0 -8 -5 -12 -10 -9 -6 4 -8 11 -5 16 9 14 15
11 15 -7z m1125 -3 c-3 -6 -11 -8 -17 -5 -6 4 -5 9 3 15 16 10 23 4 14 -10z
m196 -34 c-16 -16 -26 0 -10 19 9 11 15 12 17 4 2 -6 -1 -17 -7 -23z m-3255
-14 c-4 -4 -11 -1 -16 7 -16 25 -11 35 7 17 9 -9 13 -20 9 -24z m3001 20 c-9
-9 -20 -13 -24 -9 -4 4 -1 11 7 16 25 16 35 11 17 -7z m-3897 -24 c0 -6 -4 -7
-10 -4 -5 3 -10 11 -10 16 0 6 5 7 10 4 6 -3 10 -11 10 -16z m3230 14 c0 -5
-5 -15 -10 -23 -9 -13 -11 -13 -20 0 -15 22 -12 30 10 30 11 0 20 -3 20 -7z
m590 -3 c0 -5 -10 -10 -22 -10 -19 0 -20 2 -8 10 19 13 30 13 30 0z m-2593
-32 c-3 -8 -6 -5 -6 6 -1 11 2 17 5 13 3 -3 4 -12 1 -19z m1393 13 c0 -5 -8
-12 -17 -15 -10 -2 -49 -14 -88 -25 -97 -28 -332 -61 -381 -54 -35 4 -45 1
-76 -25 -36 -32 -187 -106 -196 -97 -9 9 10 21 78 50 71 31 128 75 97 75 -9 0
-17 4 -17 9 0 14 60 19 100 9 46 -12 275 21 402 57 98 28 98 28 98 16z m1500
-6 c-7 -8 -17 -15 -22 -15 -6 0 -5 7 2 15 7 8 17 15 22 15 6 0 5 -7 -2 -15z
m-44 -53 c-8 -9 -19 -13 -22 -9 -10 9 16 38 28 31 6 -4 4 -13 -6 -22z m-3046
-31 c0 -5 -9 -11 -20 -14 -20 -5 -26 3 -13 16 9 10 33 8 33 -2z m1604 -100
c-8 -18 -14 -35 -14 -37 0 -2 -7 -4 -16 -4 -14 0 -13 6 6 38 20 33 20 35 3 19
-31 -27 -36 -6 -6 25 25 26 28 27 34 11 4 -10 0 -33 -7 -52z m211 39 c3 -5 -3
-10 -14 -10 -12 0 -21 5 -21 10 0 6 6 10 14 10 8 0 18 -4 21 -10z m905 3 c-1
-13 -48 -63 -60 -63 -7 0 -20 -10 -31 -22 -15 -18 -18 -20 -19 -7 0 9 12 25
28 35 15 10 35 28 45 41 18 22 37 31 37 16z m470 -3 c0 -5 -6 -10 -14 -10 -8
0 -18 5 -21 10 -3 6 3 10 14 10 12 0 21 -4 21 -10z m-3520 -10 c0 -5 -12 -10
-27 -10 -16 0 -38 -3 -50 -6 -13 -4 -23 -2 -23 4 0 12 22 19 68 21 17 0 32 -3
32 -9z m3576 -24 c16 5 15 3 -3 -14 -13 -11 -23 -27 -23 -36 0 -9 -7 -16 -15
-16 -14 0 -14 3 0 24 11 16 13 26 6 31 -6 3 -11 14 -11 23 1 16 2 16 14 -1 8
-11 21 -15 32 -11z m48 -43 c-51 -66 -100 -110 -133 -116 -38 -8 -38 -34 0
-29 43 6 0 -25 -87 -63 -108 -47 -116 -59 -108 -151 4 -47 3 -74 -3 -74 -14 0
-25 134 -13 164 10 28 58 62 100 71 37 8 72 38 65 56 -3 8 -27 21 -53 27 -26
7 -84 35 -128 62 -85 52 -123 60 -181 40 l-28 -10 25 21 c38 33 103 22 182
-29 84 -55 128 -72 184 -72 58 0 87 18 147 92 52 64 79 73 31 11z m-704 -23
c0 -5 -12 -10 -27 -10 -22 0 -25 2 -13 10 20 13 40 13 40 0z m118 -24 c5 -26
-7 -86 -18 -86 -5 0 -8 6 -6 13 3 6 7 27 10 46 5 29 4 32 -12 26 -9 -4 -48
-16 -85 -26 -63 -18 -72 -18 -119 -4 -29 8 -85 15 -126 15 -63 0 -83 -4 -120
-26 -27 -16 -43 -21 -40 -13 3 8 22 24 44 36 48 28 146 31 235 8 53 -14 65
-14 122 1 34 9 69 20 77 25 20 11 34 6 38 -15z m357 4 c3 -5 -3 -10 -14 -10
-12 0 -21 5 -21 10 0 6 6 10 14 10 8 0 18 -4 21 -10z m113 -2 c-3 -7 -13 -15
-24 -17 -16 -3 -17 -1 -5 13 16 19 34 21 29 4z m-61 -19 c-14 -8 -22 -8 -30 0
-8 8 -3 11 19 11 25 -1 27 -2 11 -11z m-3038 -15 c10 -9 -6 -12 -31 -7 -15 3
-25 9 -22 15 5 8 41 2 53 -8z m-325 -35 c5 -25 10 -30 26 -26 27 7 36 -10 9
-18 -13 -4 -26 -2 -34 6 -18 18 -30 69 -17 69 5 0 12 -14 16 -31z m760 -12
c-3 -9 -10 -14 -15 -11 -5 3 -9 0 -9 -5 0 -6 -4 -11 -10 -11 -13 0 -13 12 0
46 10 24 13 26 26 13 8 -9 12 -23 8 -32z m1556 14 c0 -5 -7 -11 -15 -15 -15
-5 -20 5 -8 17 9 10 23 9 23 -2z m2370 -21 c0 -4 -21 -15 -46 -25 -25 -9 -73
-41 -107 -70 -91 -77 -107 -84 -417 -180 -41 -13 -104 -29 -140 -35 -36 -6
-128 -27 -204 -46 -114 -29 -151 -34 -200 -29 -78 7 -189 -20 -194 -49 -5 -22
18 -107 27 -102 3 2 6 -6 7 -17 0 -12 4 -40 9 -61 14 -68 -10 -32 -35 51 -34
117 -28 112 -102 98 -187 -36 -288 -40 -288 -11 -1 20 -55 72 -91 86 -39 15
-55 27 -47 35 12 12 95 -35 130 -73 41 -45 82 -59 130 -43 18 6 63 15 99 20
36 5 90 20 120 34 85 40 174 60 238 52 42 -5 79 -1 143 15 48 13 86 26 83 30
-2 4 7 5 22 2 14 -3 24 -1 20 4 -3 5 9 9 26 10 56 2 177 26 172 34 -3 4 5 6
17 2 16 -4 19 -2 13 8 -5 8 -4 11 3 7 13 -9 173 33 167 44 -3 4 3 5 12 3 24
-6 170 51 155 60 -7 4 -12 12 -12 18 0 6 8 3 19 -6 18 -16 22 -15 80 34 35 29
59 56 55 62 -4 6 -3 8 4 4 13 -8 103 34 96 45 -2 4 5 5 16 2 11 -3 20 -9 20
-13z m-3826 -37 c-41 -33 -53 -29 -19 7 15 16 33 26 38 23 6 -3 -3 -17 -19
-30z m-754 -84 c0 -5 -16 -11 -35 -15 -19 -3 -38 -11 -41 -16 -12 -19 41 -58
116 -87 41 -15 76 -33 78 -39 5 -15 -155 44 -186 69 -14 11 -34 38 -44 60 -21
49 -22 53 -6 43 7 -4 31 -9 54 -10 38 -3 41 -1 37 19 -4 22 -4 22 11 3 9 -11
16 -23 16 -27z m2263 -21 c-4 -57 -10 -69 -22 -49 -6 9 -11 10 -15 2 -4 -6 -4
-16 0 -22 3 -6 1 -15 -5 -19 -14 -8 -43 -109 -35 -122 3 -4 0 -8 -6 -8 -7 0
-10 -7 -6 -15 3 -8 1 -15 -4 -15 -6 0 -10 -12 -10 -26 0 -14 -4 -22 -10 -19
-5 3 -20 -1 -32 -9 -44 -28 -103 -37 -153 -25 -37 9 -51 9 -72 -2 -23 -12 -93
-15 -163 -7 -24 3 -25 0 -52 -137 -29 -149 -34 -215 -18 -215 6 0 10 -4 10
-10 0 -5 -6 -10 -13 -10 -10 0 -17 -29 -26 -97 -10 -85 -10 -98 4 -105 19 -11
20 -29 0 -22 -17 7 -20 -4 -35 -130 l-11 -89 34 -36 c49 -51 57 -71 57 -144 0
-72 26 -156 86 -281 37 -77 38 -84 46 -225 4 -80 11 -177 16 -216 5 -38 7 -74
5 -78 -3 -4 -19 6 -36 23 -26 26 -38 30 -84 30 -29 0 -53 5 -53 10 0 16 103
12 128 -6 26 -18 26 -15 16 74 -7 53 -21 65 -44 37 -16 -19 -30 -10 -23 15 3
13 14 20 29 20 24 0 24 1 24 98 0 103 -14 162 -60 252 -41 80 -70 181 -70 242
0 61 -16 104 -51 139 -23 23 -26 24 -32 2 -11 -41 -6 39 8 150 9 65 13 121 11
126 -3 5 -19 11 -36 14 -16 4 -30 11 -30 16 0 6 12 6 32 0 18 -5 35 -5 39 -1
3 4 12 63 19 132 11 118 62 428 76 464 5 13 0 16 -26 16 -28 0 -32 -3 -27 -21
3 -13 1 -19 -6 -16 -7 2 -13 13 -15 25 -3 22 27 37 63 30 13 -2 21 6 27 30 8
31 12 33 36 27 15 -4 56 -26 92 -49 122 -80 228 -83 290 -7 17 19 30 42 30 49
0 30 51 181 65 192 8 7 15 20 15 29 0 13 17 41 26 41 1 0 0 -23 -3 -52z m237
37 c0 -8 -9 -15 -19 -15 -29 0 -35 18 -9 23 13 2 24 5 26 6 1 0 2 -6 2 -14z
m-2645 -5 c-3 -5 -16 -10 -28 -10 -12 0 -53 -9 -91 -20 -38 -11 -127 -25 -197
-31 -110 -10 -141 -9 -229 6 -56 9 -110 15 -121 12 -10 -3 -19 -1 -19 3 0 19
46 21 141 5 87 -15 119 -15 228 -6 70 6 156 20 191 30 72 21 135 27 125 11z
m813 -44 c12 -27 0 -46 -30 -46 -24 0 -78 -28 -78 -39 0 -5 -3 -16 -6 -25 -10
-27 14 -18 70 24 53 40 76 49 76 30 0 -5 -4 -10 -9 -10 -5 0 -30 -18 -56 -39
-58 -48 -257 -153 -305 -161 -39 -6 -37 6 -26 -140 4 -41 11 -93 16 -115 12
-50 12 -65 2 -65 -13 0 -31 87 -38 180 -11 154 -10 152 -44 170 -15 8 -23 3
-49 -32 -50 -68 -150 -168 -169 -168 -11 0 -4 10 21 31 39 32 167 185 167 199
0 4 -16 18 -35 31 -33 23 -45 39 -27 39 14 -1 92 -58 116 -87 21 -25 31 -29
58 -25 18 3 35 8 38 11 3 3 44 25 93 48 48 24 87 47 87 53 0 5 -2 10 -5 10
-13 0 -65 -31 -65 -38 0 -10 -91 -55 -97 -48 -3 2 7 12 21 20 14 9 38 23 52
32 19 11 23 19 15 27 -7 7 -16 5 -32 -8 -15 -14 -20 -16 -17 -5 2 8 10 20 18
27 13 11 13 12 -2 13 -23 0 -23 16 -1 24 9 4 20 1 24 -6 7 -10 11 -10 21 0 6
6 19 12 28 12 10 0 7 -6 -10 -20 -22 -17 -23 -19 -7 -26 21 -8 60 23 53 43 -3
7 1 13 10 13 9 0 27 9 41 20 14 11 34 20 44 20 10 0 21 5 25 11 9 14 -15 29
-34 21 -10 -3 -13 -1 -8 6 12 20 42 13 54 -12z m-2951 -1 c0 -8 -4 -12 -8 -10
-3 3 -12 -1 -18 -9 -9 -10 -8 -16 4 -26 8 -7 15 -19 15 -28 0 -13 -3 -13 -19
2 -17 16 -21 14 -67 -27 -27 -25 -59 -63 -72 -86 l-24 -41 36 -15 c39 -16 51
-30 36 -40 -5 -3 -10 -2 -10 3 0 6 -12 13 -27 17 -33 8 -53 23 -53 39 0 18 83
123 122 154 21 16 35 32 31 36 -8 8 26 46 42 46 6 0 12 -7 12 -15z m5032 -87
c-1 -13 2 -31 6 -40 6 -15 2 -18 -19 -18 -23 0 -25 3 -19 33 5 26 18 46 30 47
2 0 2 -10 2 -22z m-54 -75 c19 -9 35 -23 35 -30 0 -10 -11 -7 -40 9 -22 13
-40 26 -40 31 0 10 5 9 45 -10z m-4534 -36 c-17 -17 -24 -1 -9 22 11 18 14 19
16 5 2 -9 -1 -21 -7 -27z m2211 13 c-16 -28 -32 -39 -32 -23 0 6 41 53 46 53
2 0 -5 -13 -14 -30z m2125 14 c4 -10 12 -12 27 -8 18 6 19 5 7 -9 -7 -9 -10
-24 -7 -33 6 -16 8 -15 25 0 17 16 19 16 24 -5 11 -43 -22 -66 -51 -36 -7 6
-23 12 -34 12 -12 0 -23 6 -25 13 -3 6 0 12 6 12 17 0 13 27 -4 34 -8 3 -15
11 -15 19 0 18 40 19 47 1z m-4174 -8 c4 -9 -3 -16 -16 -19 -12 -2 -30 -8 -39
-12 -11 -4 -18 -3 -18 4 0 6 11 13 25 17 14 3 25 10 25 15 0 14 17 10 23 -5z
m4267 4 c0 -5 -4 -10 -10 -10 -5 0 -10 5 -10 10 0 6 5 10 10 10 6 0 10 -4 10
-10z m-4480 -30 c11 -7 7 -10 -18 -10 -20 0 -31 4 -27 10 8 13 26 13 45 0z
m-390 -33 c44 -15 60 -26 60 -38 0 -5 -7 -6 -17 0 -10 5 -34 15 -54 24 -33 14
-36 14 -48 -5 -16 -26 -26 -16 -11 11 12 24 22 25 70 8z m4500 -17 c0 -11 -4
-20 -10 -20 -5 0 -10 9 -10 20 0 11 5 20 10 20 6 0 10 -9 10 -20z m-2957 -43
c5 -14 134 -66 230 -92 31 -9 57 -21 57 -26 0 -5 -1 -9 -3 -9 -9 0 -190 60
-234 78 -37 15 -53 18 -53 10 0 -27 64 -194 78 -205 14 -11 11 -13 -15 -13
-25 0 -30 4 -27 18 2 9 -9 57 -25 107 -24 73 -34 91 -53 96 -23 6 -23 6 4 13
17 5 25 13 21 22 -3 8 -1 14 5 14 5 0 12 -6 15 -13z m2400 -42 c4 -8 2 -17 -3
-20 -6 -4 -10 -4 -10 -1 0 2 -3 11 -6 20 -3 9 -2 16 4 16 5 0 12 -7 15 -15z
m1530 -18 c-3 -5 -9 -3 -14 4 -4 7 -5 17 -2 22 3 5 9 3 14 -4 4 -7 5 -17 2
-22z m-2953 -3 c0 -7 -117 -120 -163 -157 -20 -15 -38 -23 -41 -18 -4 5 8 20
25 33 17 13 60 51 96 86 57 56 83 73 83 56z m-1096 -113 c67 -95 115 -134 151
-125 14 4 25 2 25 -4 0 -6 -13 -13 -30 -17 -40 -9 -85 28 -161 133 -32 45 -59
85 -59 87 0 20 27 -7 74 -74z m3836 67 c0 -19 31 -47 46 -41 8 3 14 0 14 -6 0
-6 -5 -11 -10 -11 -13 0 -2 -75 16 -111 24 -48 36 -51 107 -33 l65 16 51 -34
c64 -44 56 -57 -9 -16 l-49 31 -61 -16 c-60 -15 -61 -15 -89 9 -19 16 -40 54
-62 114 -25 66 -39 90 -51 90 -10 0 -18 5 -18 10 0 6 11 10 25 10 14 0 25 -5
25 -12z m-5214 -36 c4 -18 16 -32 35 -41 16 -7 27 -17 23 -22 -3 -5 -13 -5
-24 1 -30 16 -32 13 -25 -32 5 -33 4 -40 -5 -32 -6 6 -13 36 -15 65 -2 30 -6
62 -10 72 -4 10 -3 17 4 17 6 0 14 -13 17 -28z m6230 -47 c35 -25 82 -67 104
-94 39 -46 51 -53 191 -106 114 -43 156 -55 179 -50 17 4 30 2 30 -3 0 -5 -15
-12 -32 -15 -49 -7 -328 100 -362 139 -14 16 -26 32 -26 36 0 11 -145 118
-159 118 -6 0 -28 -8 -49 -19 -20 -10 -71 -26 -112 -35 -41 -9 -114 -30 -162
-46 -47 -17 -92 -30 -100 -30 -7 0 -31 -9 -52 -21 -21 -11 -43 -18 -49 -16
-32 11 107 62 328 121 66 18 134 40 150 49 43 23 51 22 121 -28z m-2491 -12
c-8 -15 -24 -43 -35 -61 -20 -32 -20 -32 -1 -22 25 13 71 13 71 0 0 -5 -9 -10
-21 -10 -30 0 -60 -18 -91 -54 -23 -25 -29 -28 -37 -17 -10 16 -11 14 77 139
45 63 67 79 37 25z m1756 10 c-8 -15 -10 -15 -11 -2 0 17 10 32 18 25 2 -3 -1
-13 -7 -23z m-880 -26 c-13 -13 -15 1 -4 30 7 17 8 17 11 -1 2 -10 -1 -23 -7
-29z m-4190 10 c-13 -13 -26 -3 -16 12 3 6 11 8 17 5 6 -4 6 -10 -1 -17z
m3121 -37 c21 -23 38 -48 38 -56 0 -8 8 -31 19 -52 26 -52 36 -86 22 -78 -6 4
-15 -4 -22 -20 -8 -22 -6 -35 7 -60 10 -19 23 -30 31 -27 8 3 13 -2 13 -14 0
-27 -10 -35 -27 -21 -10 8 -20 8 -39 -2 -17 -10 -27 -11 -35 -3 -12 12 -157
-85 -216 -145 -32 -32 -63 -38 -63 -12 0 6 5 8 11 4 6 -3 25 7 42 23 18 17 71
58 120 93 48 34 87 67 87 74 0 6 11 33 25 59 44 82 16 89 -76 20 -34 -27 -85
-63 -113 -82 -28 -18 -74 -55 -102 -82 -43 -40 -50 -50 -38 -60 8 -6 14 -16
14 -22 0 -5 -9 -2 -19 7 -18 16 -21 16 -52 1 -28 -15 -30 -19 -16 -27 9 -5 17
-14 17 -20 0 -6 -9 -3 -19 6 -18 17 -21 17 -48 0 -15 -10 -56 -40 -89 -66 -34
-26 -66 -48 -71 -48 -4 0 -26 -17 -48 -38 -43 -41 -127 -102 -90 -65 49 48
247 204 310 243 39 24 102 71 140 105 39 33 88 73 110 88 22 15 67 48 100 72
33 25 77 49 97 55 35 10 37 12 26 35 -8 19 -16 24 -31 19 -16 -5 -17 -3 -8 15
14 26 1 55 -43 93 -18 16 -25 27 -17 28 8 0 31 -18 53 -40z m-368 18 c-6 -11
-62 -96 -69 -106 -6 -7 -55 11 -55 20 0 6 11 7 25 4 22 -6 29 0 57 44 17 27
35 50 40 50 5 0 6 -6 2 -12z m924 -87 l46 -53 50 4 c31 3 63 0 81 -8 27 -12
22 -12 -52 -9 -46 1 -83 -1 -83 -5 0 -4 14 -22 30 -40 34 -36 35 -40 16 -40
-7 0 -26 18 -40 39 l-28 40 -46 -20 c-25 -11 -55 -19 -66 -17 -14 2 1 11 42
26 34 13 62 27 62 32 0 14 -73 95 -84 93 -6 -1 -32 -8 -58 -14 -27 -7 -51 -10
-54 -6 -12 12 8 27 39 27 18 1 46 7 62 14 21 9 31 10 34 2 2 -6 24 -35 49 -65z
m532 47 c0 -5 -4 -8 -10 -8 -5 0 -10 10 -10 23 0 18 2 19 10 7 5 -8 10 -18 10
-22z m-4170 -11 c0 -18 -38 -52 -47 -43 -5 4 0 12 10 17 9 6 17 17 17 24 0 8
5 15 10 15 6 0 10 -6 10 -13z m4244 -3 c4 -10 1 -14 -6 -12 -15 5 -23 28 -10
28 5 0 13 -7 16 -16z m-64 -45 c0 -12 -5 -19 -11 -17 -6 2 -10 7 -10 11 1 4 1
14 1 23 0 8 5 12 10 9 6 -3 10 -15 10 -26z m-910 -62 c-8 -30 -16 -44 -25 -41
-10 4 -10 15 3 55 20 61 37 50 22 -14z m-1211 7 c-28 -16 -39 -17 -39 -6 0 12
43 31 54 24 5 -3 -2 -11 -15 -18z m1006 7 c-3 -6 -14 -11 -23 -11 -15 1 -15 2
2 15 21 16 32 13 21 -4z m1129 3 c8 -21 8 -24 -3 -24 -5 0 -11 9 -14 20 -6 24
8 27 17 4z m2301 -14 c-3 -5 -13 -10 -21 -10 -8 0 -12 5 -9 10 3 6 13 10 21
10 8 0 12 -4 9 -10z m-3480 -19 c-3 -6 -14 -11 -23 -11 -15 1 -15 2 2 15 21
16 32 13 21 -4z m3435 0 c0 -11 -31 -24 -39 -16 -3 3 1 10 9 15 19 12 30 12
30 1z m-4440 -11 c0 -5 -4 -10 -10 -10 -5 0 -10 5 -10 10 0 6 5 10 10 10 6 0
10 -4 10 -10z m946 -26 c-11 -7 -22 -11 -25 -8 -3 3 3 12 13 20 11 7 22 11 25
8 3 -3 -3 -12 -13 -20z m1262 3 c5 -24 -15 -21 -21 4 -3 13 -1 19 6 16 7 -2
13 -11 15 -20z m2172 13 c0 -5 -9 -10 -20 -10 -11 0 -20 5 -20 10 0 6 9 10 20
10 11 0 20 -4 20 -10z m-5158 -17 c-21 -15 -147 -63 -165 -63 -49 0 116 76
168 78 19 1 19 0 -3 -15z m5098 7 c0 -5 -9 -10 -21 -10 -11 0 -17 5 -14 10 3
6 13 10 21 10 8 0 14 -4 14 -10z m-6330 -8 c0 -14 -58 -42 -88 -42 -16 0 -50
-12 -76 -26 -25 -14 -46 -21 -46 -16 0 17 91 62 124 62 18 0 41 7 52 15 21 16
34 19 34 7z m4010 -12 c0 -11 -4 -20 -10 -20 -5 0 -10 9 -10 20 0 11 5 20 10
20 6 0 10 -9 10 -20z m-2100 -25 c13 -14 20 -28 17 -32 -8 -7 -57 35 -57 49 0
15 16 8 40 -17z m1010 16 c0 -5 -7 -11 -15 -15 -15 -5 -20 5 -8 17 9 10 23 9
23 -2z m1320 -27 c0 -8 -4 -12 -10 -9 -5 3 -10 13 -10 21 0 8 5 12 10 9 6 -3
10 -13 10 -21z m-2420 -16 c0 -5 -4 -7 -9 -4 -5 3 -28 -5 -52 -18 -24 -14 -74
-30 -111 -36 -44 -8 -85 -23 -120 -45 -29 -19 -71 -44 -93 -56 -56 -31 -175
-125 -203 -160 -33 -41 -132 -274 -132 -309 0 -45 -29 -107 -58 -126 -23 -15
-26 -15 -37 -1 -10 15 -17 15 -71 1 -32 -9 -62 -19 -67 -23 -4 -4 -2 -22 4
-39 17 -48 4 -63 -15 -17 -16 40 -16 40 -65 37 l-49 -4 -17 52 c-15 44 -15 54
-4 61 8 5 17 9 22 9 12 0 8 -18 -5 -22 -8 -3 -6 -14 8 -39 20 -35 55 -49 77
-31 7 5 44 17 82 27 39 10 74 22 80 27 15 13 35 9 35 -8 0 -9 6 -14 13 -12 19
7 46 69 47 108 0 20 28 99 65 184 36 83 65 156 65 164 0 8 6 12 14 9 8 -3 22
3 32 14 9 10 23 19 31 19 7 0 13 4 13 9 0 9 123 91 136 91 3 0 23 13 43 29 46
37 96 57 173 71 67 13 107 29 128 54 10 12 16 14 26 5 8 -6 14 -16 14 -21z
m1047 5 c-9 -9 -19 -14 -23 -11 -10 10 6 28 24 28 15 0 15 -1 -1 -17z m833
-75 c0 -46 -19 -65 -73 -73 -43 -7 -97 7 -97 24 0 6 -15 7 -35 4 -20 -3 -35
-1 -35 4 0 6 17 13 37 16 30 5 39 2 51 -14 12 -18 22 -21 64 -17 27 3 54 10
60 16 17 17 11 75 -9 90 -15 11 -16 14 -3 22 20 12 39 -23 40 -72z m-3465 56
c20 -13 25 -25 25 -55 0 -54 -14 -49 -37 16 -12 30 -19 55 -16 55 2 0 15 -7
28 -16z m2595 -13 c0 -12 -20 -25 -27 -18 -7 7 6 27 18 27 5 0 9 -4 9 -9z
m1437 -6 c9 -25 -4 -29 -17 -6 -7 15 -7 21 0 21 6 0 13 -7 17 -15z m-2525 -37
c-17 -17 -15 -45 6 -57 15 -9 15 -10 1 -11 -9 0 -21 6 -27 13 -15 17 -3 67 16
67 12 0 13 -3 4 -12z m1048 3 c0 -5 -7 -14 -15 -21 -12 -10 -15 -10 -15 2 0 8
3 18 7 21 9 10 23 9 23 -2z m1504 -17 c9 -22 -3 -32 -14 -14 -12 19 -12 30 -1
30 5 0 12 -7 15 -16z m-3864 -14 c0 -17 -49 -35 -61 -23 -6 6 -8 16 -5 22 9
14 66 14 66 1z m2018 -8 c6 -18 -15 -14 -22 4 -4 10 -1 14 6 12 6 -2 14 -10
16 -16z m289 -9 c-9 -9 -20 -13 -24 -9 -4 4 -1 11 7 16 25 16 35 11 17 -7z
m353 -4 c0 -11 -4 -17 -10 -14 -5 3 -10 13 -10 21 0 8 5 14 10 14 6 0 10 -9
10 -21z m-680 2 c0 -12 -42 -42 -49 -36 -5 6 29 45 41 45 4 0 8 -4 8 -9z
m1910 -27 c0 -8 -4 -12 -10 -9 -5 3 -10 13 -10 21 0 8 5 12 10 9 6 -3 10 -13
10 -21z m-1832 -20 c-10 -10 -28 6 -28 24 0 15 1 15 17 -1 9 -9 14 -19 11 -23z
m201 15 c-22 -14 -33 -10 -19 6 7 8 17 12 22 9 6 -4 5 -10 -3 -15z m1746 13
c13 -9 13 -42 0 -40 -39 6 -44 10 -32 29 13 21 17 22 32 11z m-1335 -43 c0
-11 -4 -17 -10 -14 -5 3 -10 13 -10 21 0 8 5 14 10 14 6 0 10 -9 10 -21z
m-469 -12 c-13 -13 -26 -3 -16 12 3 6 11 8 17 5 6 -4 6 -10 -1 -17z m-112 -1
c8 -9 8 -16 2 -20 -6 -4 -15 3 -21 14 -12 23 2 27 19 6z m1821 4 c0 -5 -2 -10
-4 -10 -3 0 -8 5 -11 10 -3 6 -1 10 4 10 6 0 11 -4 11 -10z m-4447 -66 c-4
-11 -3 -15 4 -11 6 4 17 -1 24 -10 11 -13 11 -17 2 -20 -7 -3 -13 -11 -13 -20
0 -10 6 -12 19 -8 19 6 39 -11 26 -23 -3 -3 -10 0 -14 7 -6 9 -8 4 -8 -14 0
-22 3 -26 22 -21 26 7 47 -9 63 -47 11 -26 10 -29 -8 -34 -24 -6 -26 -19 -5
-27 8 -3 15 -17 15 -32 0 -22 2 -24 15 -14 18 15 35 5 35 -22 0 -17 -4 -19
-27 -13 -30 7 -45 23 -39 42 3 6 -2 14 -10 17 -8 3 -14 13 -14 23 0 9 -10 28
-22 41 l-23 25 22 -6 c13 -3 26 0 30 6 3 7 2 9 -2 4 -5 -4 -17 0 -27 10 -12
10 -18 12 -18 4 0 -7 -4 -9 -10 -6 -5 3 -10 15 -10 26 0 11 -7 27 -15 36 -8 8
-12 19 -9 25 4 6 1 14 -6 18 -7 5 -14 17 -15 28 -1 11 -7 27 -14 36 -7 9 -10
23 -7 32 5 14 9 13 26 -9 12 -15 17 -32 13 -43z m2697 31 c-7 -8 -17 -12 -23
-8 -6 4 -3 11 8 19 23 17 32 10 15 -11z m490 0 c-7 -8 -17 -15 -22 -15 -6 0
-5 7 2 15 7 8 17 15 22 15 6 0 5 -7 -2 -15z m900 5 c0 -5 -7 -10 -15 -10 -20
0 -19 -9 3 -33 13 -16 14 -19 2 -15 -8 3 -20 -2 -26 -10 -9 -13 -16 -10 -43
16 -31 29 -34 59 -6 48 7 -2 26 -1 42 4 39 11 43 11 43 0z m-1425 -21 c4 -6
-1 -16 -11 -24 -23 -16 -25 -15 -17 13 6 24 18 28 28 11z m1839 -55 c27 -48
34 -84 16 -84 -5 0 -10 10 -10 23 0 12 -9 36 -20 52 -18 27 -26 55 -16 55 2 0
16 -21 30 -46z m-1324 10 c0 -8 -4 -14 -10 -14 -5 0 -10 9 -10 21 0 11 5 17
10 14 6 -3 10 -13 10 -21z m-254 5 c3 -6 -7 -25 -24 -42 -43 -46 -92 -126 -85
-143 3 -8 -1 -14 -10 -14 -8 0 -44 -36 -78 -79 -54 -68 -89 -97 -89 -76 0 3
34 46 75 95 84 101 99 125 89 142 -4 7 -3 8 4 4 13 -8 36 30 27 44 -3 6 0 10
8 10 8 0 25 16 38 35 25 37 34 42 45 24z m-306 -8 c0 -11 -31 -24 -39 -16 -3
3 1 10 9 15 19 12 30 12 30 1z m-60 -30 c0 -5 -7 -11 -15 -15 -15 -5 -20 5 -8
17 9 10 23 9 23 -2z m670 -1 c12 -8 9 -10 -12 -10 -19 0 -28 -5 -28 -16 0 -20
-16 -9 -23 16 -4 16 0 20 21 20 15 0 34 -5 42 -10z m-725 -29 c-3 -6 -14 -11
-23 -11 -15 1 -15 2 2 15 21 16 32 13 21 -4z m445 -16 c-7 -9 -15 -13 -18 -10
-3 2 1 11 8 20 7 9 15 13 18 10 3 -2 -1 -11 -8 -20z m-1502 -79 c34 -16 59
-33 56 -38 -3 -4 -28 4 -56 18 -46 23 -51 24 -67 10 -10 -9 -25 -16 -34 -16
-9 0 -24 -14 -32 -31 -21 -39 -32 -30 -15 11 9 21 19 30 35 30 12 0 29 7 36
16 11 14 10 19 -9 34 -12 10 -22 26 -22 37 0 14 5 12 24 -12 13 -17 51 -43 84
-59z m252 54 c0 -8 -42 -22 -48 -15 -2 2 2 13 8 25 9 17 14 19 26 9 8 -6 14
-15 14 -19z m747 3 c-9 -9 -19 -14 -23 -11 -10 10 6 28 24 28 15 0 15 -1 -1
-17z m771 -9 c21 -11 22 -13 7 -21 -24 -14 -10 -60 21 -66 29 -5 84 27 84 50
1 17 2 16 15 -1 14 -18 17 -18 55 -3 22 8 40 11 40 7 0 -14 -35 -30 -67 -32
-15 -1 -36 -8 -45 -16 -9 -8 -38 -17 -63 -20 -55 -6 -80 -39 -66 -89 5 -17 15
-78 22 -136 12 -99 11 -110 -8 -174 -25 -82 -45 -134 -56 -148 -5 -5 -18 -28
-31 -50 -30 -55 -103 -94 -173 -95 -29 0 -53 5 -53 10 0 6 20 10 45 10 49 0
107 20 138 48 44 39 140 284 122 312 -3 5 -28 10 -55 10 -38 0 -48 -3 -44 -14
3 -8 15 -17 27 -21 20 -7 20 -8 -7 -12 -16 -3 -32 1 -36 7 -4 7 -10 -3 -14
-24 -9 -46 -23 -54 -31 -16 -4 16 -13 30 -20 30 -7 0 -15 5 -17 10 -2 6 -18
11 -36 13 -17 1 -30 7 -28 12 2 6 13 9 26 7 18 -2 20 1 11 11 -6 8 -8 17 -4
20 3 4 1 7 -5 7 -7 0 -12 7 -12 15 0 9 -10 16 -27 16 l-28 2 26 4 c16 2 41 -5
60 -16 26 -16 29 -21 14 -21 -12 0 -16 -3 -9 -10 6 -6 25 -5 53 2 33 8 45 8
51 -1 8 -13 75 -6 96 10 14 11 -7 157 -30 213 -19 46 -20 57 -3 50 7 -2 20 1
30 8 16 12 16 16 -1 61 -9 26 -21 47 -27 47 -5 0 -22 -14 -37 -32 -35 -44 -44
-32 -11 15 28 39 44 41 101 11z m912 10 c0 -2 -9 -4 -21 -4 -11 0 -18 4 -14
10 5 8 35 3 35 -6z m70 -4 c12 -8 11 -10 -7 -10 -13 0 -23 5 -23 10 0 13 11
13 30 0z m-4050 -10 c0 -5 -4 -10 -10 -10 -5 0 -10 5 -10 10 0 6 5 10 10 10 6
0 10 -4 10 -10z m1610 0 c0 -5 -9 -10 -20 -10 -11 0 -20 5 -20 10 0 6 9 10 20
10 11 0 20 -4 20 -10z m380 -12 c11 -12 18 -23 16 -26 -6 -5 -55 31 -56 41 0
14 19 7 40 -15z m-325 2 c3 -5 -3 -10 -14 -10 -12 0 -21 5 -21 10 0 6 6 10 14
10 8 0 18 -4 21 -10z m65 -21 c0 -11 -3 -11 -24 -3 -23 9 -20 23 4 17 11 -3
20 -9 20 -14z m540 14 c0 -14 -19 -38 -25 -32 -8 8 5 39 16 39 5 0 9 -3 9 -7z
m1550 -8 c0 -8 -5 -15 -11 -15 -5 0 -8 -4 -5 -9 3 -4 -1 -16 -8 -26 -12 -17
-15 -17 -35 -3 -20 14 -21 17 -6 32 20 20 29 21 21 1 -3 -8 -1 -15 4 -15 10 0
14 14 11 38 -1 6 5 12 14 12 8 0 15 -7 15 -15z m-2330 -2 c0 -5 -4 -14 -9 -21
-7 -11 -9 -11 -14 1 -3 8 -3 18 0 21 9 8 23 7 23 -1z m250 -27 c0 -3 -10 -21
-22 -42 -16 -27 -23 -62 -29 -138 -11 -140 -24 -174 -74 -198 -93 -44 -109
-54 -128 -80 -22 -29 -22 -18 10 -215 14 -88 -17 -107 -148 -91 l-91 12 -42
-46 c-82 -91 -166 -128 -292 -128 -30 0 -53 -9 -86 -32 -73 -53 -100 -91 -101
-146 -2 -62 33 -115 110 -163 63 -39 91 -73 112 -136 20 -59 -5 -106 -79 -150
-62 -36 -86 -39 -156 -18 -55 17 -153 20 -202 6 -17 -5 -32 -6 -32 -1 0 26
149 38 222 16 31 -9 68 -16 83 -16 33 0 108 43 135 77 25 33 25 52 -1 114 -19
42 -32 56 -88 89 -85 51 -124 108 -122 181 1 63 23 96 104 155 57 42 62 44
132 44 61 0 81 5 133 31 33 17 82 53 108 80 43 44 47 52 36 69 -14 23 -5 26
17 6 22 -20 183 -41 209 -27 28 15 34 52 17 101 -8 23 -15 61 -15 84 0 54 -7
63 -59 75 -28 6 -57 23 -81 46 l-37 36 -26 -23 c-14 -13 -38 -25 -54 -26 -20
-1 -42 -18 -75 -55 -26 -28 -47 -46 -48 -39 0 6 22 35 48 62 34 35 56 50 74
50 17 0 34 10 47 26 25 31 51 26 81 -16 19 -27 70 -50 112 -50 9 0 25 15 36
33 15 26 35 40 83 59 35 14 72 36 81 49 12 17 21 62 28 144 9 87 17 130 33
158 17 31 37 49 37 33z m310 -28 c0 -6 -7 -5 -15 2 -8 7 -15 17 -15 22 0 6 7
5 15 -2 8 -7 15 -17 15 -22z m180 13 c0 -12 -20 -25 -27 -18 -7 7 6 27 18 27
5 0 9 -4 9 -9z m1595 -33 c-4 -24 -12 -46 -17 -49 -12 -8 -58 1 -58 11 0 17
13 40 22 40 6 0 8 -7 4 -15 -4 -10 1 -15 14 -15 22 0 28 19 8 21 -10 0 -10 2
0 6 6 2 12 13 12 24 0 10 5 19 11 19 7 0 8 -14 4 -42z m-3818 17 c8 -22 -6
-33 -17 -15 -13 20 -12 30 0 30 6 0 13 -7 17 -15z m2748 -4 c3 -10 15 -21 25
-24 21 -5 28 -27 10 -27 -14 0 -60 46 -60 60 0 17 18 11 25 -9z m4137 -30 c7
-8 14 -23 15 -33 3 -17 1 -18 -28 -3 -24 13 -34 14 -45 4 -8 -6 -14 -10 -15
-8 -8 48 -7 68 6 73 10 4 14 -1 12 -16 -1 -11 4 -23 12 -26 10 -3 12 3 7 29
-7 32 -6 33 8 14 9 -11 21 -26 28 -34z m-5402 19 c0 -11 -4 -20 -10 -20 -5 0
-10 9 -10 20 0 11 5 20 10 20 6 0 10 -9 10 -20z m2250 -6 c0 -14 -4 -23 -9
-20 -5 3 -7 15 -4 26 7 28 13 25 13 -6z m-1650 -16 c0 -6 -7 -5 -15 2 -8 7
-15 17 -15 22 0 6 7 5 15 -2 8 -7 15 -17 15 -22z m116 -21 c-40 -49 -43 -57
-21 -57 8 0 15 -5 15 -10 0 -6 -7 -13 -15 -16 -8 -4 -15 -12 -15 -19 0 -21
-41 -5 -52 21 -6 13 -14 24 -18 24 -3 0 -22 15 -42 34 -23 22 -50 36 -77 41
-23 4 -41 11 -41 17 0 6 13 7 33 3 53 -12 70 -21 101 -54 42 -43 64 -40 115
20 53 61 68 58 17 -4z m114 32 c0 -5 -4 -9 -10 -9 -5 0 -10 7 -10 16 0 8 5 12
10 9 6 -3 10 -10 10 -16z m-130 2 c0 -12 -20 -25 -27 -18 -7 7 6 27 18 27 5 0
9 -4 9 -9z m-52 -32 c-2 -6 -8 -10 -13 -10 -5 0 -11 4 -13 10 -2 6 4 11 13 11
9 0 15 -5 13 -11z m-638 -31 c0 -5 -4 -8 -10 -8 -5 0 -10 10 -10 23 0 18 2 19
10 7 5 -8 10 -18 10 -22z m2370 8 c0 -20 -21 -25 -45 -13 -19 10 -19 11 5 18
37 11 40 10 40 -5z m50 2 c0 -25 -15 -36 -57 -43 -28 -4 -43 -3 -43 4 0 6 7 8
15 5 8 -4 22 -1 30 6 8 6 19 9 24 6 6 -4 8 2 6 14 -2 13 1 20 11 20 8 0 14 -6
14 -12z m-125 -19 c11 -17 0 -20 -21 -4 -17 13 -17 14 -2 15 9 0 20 -5 23 -11z
m-3726 -15 c3 -4 1 -9 -6 -11 -15 -5 23 -73 42 -73 15 0 28 -27 19 -41 -3 -5
0 -9 5 -9 21 0 10 -18 -14 -24 -14 -4 -29 -14 -32 -24 -10 -25 -51 -67 -59
-60 -3 4 4 17 15 30 12 12 20 31 19 43 -2 14 2 19 15 17 9 -2 17 3 17 12 0 9
-7 12 -19 9 -13 -3 -21 2 -26 17 -9 30 3 39 21 16 14 -19 14 -19 14 2 0 17 -6
22 -25 22 -14 0 -29 8 -35 20 -9 16 -8 20 5 20 16 0 21 19 5 21 -5 1 -15 2
-22 3 -6 0 -13 7 -16 14 -3 9 7 11 34 7 20 -2 40 -7 43 -11z m1441 -13 c0 -5
9 -11 20 -14 11 -3 20 -11 20 -17 0 -9 -8 -7 -25 4 -30 20 -35 20 -35 1 0 -8
-4 -15 -10 -15 -11 0 -13 11 -4 34 6 17 34 22 34 7z m594 -55 c-6 -16 -24 -23
-24 -8 0 10 22 33 27 28 2 -2 1 -11 -3 -20z m486 9 c0 -8 -4 -15 -10 -15 -5 0
-7 7 -4 15 4 8 8 15 10 15 2 0 4 -7 4 -15z m-991 -4 c8 -5 9 -11 3 -15 -5 -3
-15 1 -22 9 -14 16 -3 20 19 6z m780 -13 c1 17 21 15 21 -3 0 -17 -18 -19 -39
-6 -8 5 -10 14 -6 22 6 9 10 8 16 -7 4 -10 8 -13 8 -6z m111 3 c0 -24 -25 -34
-40 -15 -10 11 -9 14 4 14 9 0 16 5 16 10 0 6 5 10 10 10 6 0 10 -9 10 -19z
m-1035 -17 c-23 -17 -32 -10 -15 11 7 8 17 12 23 8 6 -4 3 -11 -8 -19z m795
14 c0 -19 -18 -43 -25 -36 -4 3 -2 16 5 27 12 24 20 27 20 9z m620 -10 c0 -6
-7 -7 -16 -4 -9 3 -18 6 -20 6 -3 0 -3 4 1 10 7 11 35 2 35 -12z m-1226 6 c23
-9 20 -23 -4 -17 -11 3 -20 9 -20 14 0 11 3 11 24 3z m1052 -19 c-3 -9 6 -16
25 -20 17 -4 28 -9 26 -12 -8 -7 -117 30 -117 40 0 5 11 7 25 5 14 -3 25 -1
25 4 0 5 5 6 11 3 6 -4 8 -13 5 -20z m-2532 -1 c9 -3 14 -10 11 -15 -7 -10
-35 0 -35 12 0 11 3 11 24 3z m1916 -1 c0 -14 -19 -38 -25 -32 -8 8 5 39 16
39 5 0 9 -3 9 -7z m501 -23 c10 0 19 -4 19 -10 0 -5 -10 -10 -23 -10 -13 0
-29 -6 -36 -12 -12 -11 -13 -9 -6 7 4 11 10 29 13 40 5 18 7 18 10 3 2 -10 12
-18 23 -18z m-1161 10 c0 -5 -5 -10 -11 -10 -6 0 -17 -7 -26 -15 -8 -9 -18
-13 -22 -10 -3 4 5 15 19 25 28 22 40 25 40 10z m1750 -52 c0 -26 -3 -28 -27
-25 -20 3 -29 10 -31 26 -6 40 4 52 33 39 18 -8 25 -19 25 -40z m-2943 25 c4
-12 -43 -27 -57 -18 -16 10 -11 25 5 19 8 -4 15 -2 15 4 0 13 33 9 37 -5z
m1990 -8 c-4 -8 -11 -15 -17 -15 -7 0 -7 6 0 21 13 23 26 19 17 -6z m-1587 6
c0 -5 -7 -11 -15 -15 -15 -5 -20 5 -8 17 9 10 23 9 23 -2z m1420 -10 c0 -5 -7
-14 -15 -21 -16 -14 -18 -10 -9 14 6 17 24 22 24 7z m-1767 -7 c12 -13 -18
-30 -45 -26 -47 7 -33 23 28 31 6 0 13 -2 17 -5z m1987 -14 c-12 -22 -30 -18
-30 6 0 8 9 14 20 14 18 0 19 -3 10 -20z m-1790 -24 c0 -43 14 -52 45 -32 23
15 25 15 22 -1 -1 -10 3 -18 8 -18 6 0 9 8 8 18 -4 23 14 22 22 -2 4 -14 -11
-42 -57 -100 l-63 -81 -131 0 c-91 0 -144 -5 -174 -15 -49 -17 -90 -20 -90 -5
0 6 11 10 24 10 13 0 43 7 66 15 29 10 82 15 170 15 l128 0 41 54 c55 73 47
99 -22 71 -13 -5 -18 -4 -17 6 6 42 -1 59 -23 59 -50 0 -84 -49 -55 -78 6 -6
8 -15 4 -19 -4 -4 -11 -1 -16 7 -7 11 -12 9 -28 -11 -11 -13 -24 -21 -28 -16
-4 4 2 17 14 30 30 31 29 67 0 67 -13 0 -30 5 -38 10 -13 9 -13 11 0 19 9 7
17 6 21 0 8 -14 60 -14 86 0 12 6 31 11 42 11 12 0 21 5 21 10 0 6 5 10 10 10
6 0 10 -15 10 -34z m-370 -6 c0 -11 -4 -20 -9 -20 -6 0 -9 9 -8 20 1 11 5 20
9 20 4 0 8 -9 8 -20z m2090 13 c0 -5 -5 -15 -10 -23 -8 -12 -10 -11 -10 8 0
12 5 22 10 22 6 0 10 -3 10 -7z m-191 -29 c-15 -18 -22 -13 -13 10 3 9 10 13
16 10 5 -3 4 -12 -3 -20z m355 -7 c-3 -9 -14 -19 -24 -22 -10 -3 -30 -15 -44
-26 -20 -16 -25 -26 -20 -45 6 -22 -2 -29 -28 -25 -14 2 -80 -141 -81 -175 -1
-19 -8 -36 -16 -39 -11 -4 -12 3 -6 37 4 24 8 53 8 65 1 11 5 19 8 17 3 -2 16
20 29 49 34 75 65 113 123 152 54 36 61 38 51 12z m104 -1 c-3 -16 -1 -23 8
-19 6 2 15 0 19 -6 3 -6 -1 -11 -11 -11 -14 0 -16 -7 -11 -40 3 -22 1 -40 -4
-40 -5 0 -9 -11 -9 -24 0 -42 -18 -76 -40 -76 -25 0 -26 16 -2 23 23 5 37 64
21 83 -8 10 -9 14 0 14 14 0 15 66 1 75 -19 12 -11 45 11 45 17 0 20 -5 17
-24z m-291 -31 c-4 -8 -11 -15 -17 -15 -7 0 -7 6 0 21 13 23 26 19 17 -6z
m-2063 -1 c8 -21 8 -24 -3 -24 -5 0 -11 9 -14 20 -6 24 8 27 17 4z m1869 -9
c-3 -8 -9 -15 -14 -15 -10 0 -12 24 -3 33 11 11 24 -3 17 -18z m245 -23 c2 -7
-4 -15 -13 -18 -20 -8 -27 -1 -19 20 7 18 25 17 32 -2z m-2088 -18 c0 -8 -4
-12 -10 -9 -5 3 -10 10 -10 16 0 5 5 9 10 9 6 0 10 -7 10 -16z m2020 -5 c0
-11 -4 -17 -10 -14 -5 3 -10 13 -10 21 0 8 5 14 10 14 6 0 10 -9 10 -21z
m-1723 -15 c-7 -7 -37 7 -37 17 0 6 9 5 21 -1 11 -7 19 -14 16 -16z m1514 -7
c-16 -16 -26 0 -10 19 9 11 15 12 17 4 2 -6 -1 -17 -7 -23z m409 25 c0 -4 -9
-13 -19 -19 -15 -10 -22 -9 -30 1 -6 7 -8 16 -4 19 9 10 53 9 53 -1z m-172
-42 c-7 -10 -16 -17 -20 -14 -4 3 -2 13 4 24 7 10 16 17 20 14 4 -3 2 -13 -4
-24z m712 22 c0 -5 -7 -17 -15 -28 -15 -19 -20 -8 -9 20 6 17 24 22 24 8z
m-2415 -12 c-3 -5 -13 -10 -21 -10 -8 0 -12 5 -9 10 3 6 13 10 21 10 8 0 12
-4 9 -10z m1825 -31 c0 -14 -5 -18 -22 -15 -13 3 -26 5 -30 5 -16 2 -7 18 15
28 27 13 37 8 37 -18z m540 -54 c16 -19 0 -19 -26 0 -16 12 -16 14 -3 15 9 0
22 -7 29 -15z m-520 -11 c0 -11 -5 -14 -16 -10 -9 3 -20 6 -25 6 -6 0 -7 5 -4
10 10 16 45 12 45 -6z m-2300 -29 c0 -22 3 -25 25 -19 14 3 25 2 25 -4 0 -5
-9 -12 -20 -15 -12 -3 -20 -14 -20 -26 0 -41 -17 -20 -27 34 -8 44 -7 55 4 55
7 0 13 -11 13 -25z m2350 -21 c0 -13 5 -24 11 -24 6 0 9 -9 6 -19 -3 -12 1
-22 12 -27 13 -5 134 -11 299 -14 12 0 22 -4 22 -10 0 -12 -286 -5 -340 7 -19
5 -35 14 -34 21 1 7 2 33 3 58 1 46 21 55 21 8z m-2788 -59 c51 2 120 7 153
12 74 11 136 -4 150 -35 5 -12 16 -22 24 -22 11 0 8 -6 -7 -20 -12 -12 -22
-30 -22 -41 0 -15 -5 -19 -15 -16 -8 4 -17 2 -20 -3 -4 -6 4 -10 17 -11 22 0
22 -1 3 -8 -28 -12 -48 6 -34 30 5 11 14 17 18 14 5 -2 11 3 13 13 5 16 0 18
-36 15 -74 -5 -167 -23 -199 -37 -36 -16 -171 -30 -162 -17 3 5 33 12 67 16
35 4 78 13 97 21 18 8 42 14 52 14 17 0 17 3 7 20 -13 20 -64 43 -78 35 -5 -3
-6 -15 -2 -27 4 -17 2 -20 -12 -15 -10 4 -28 7 -41 7 -15 0 -26 7 -30 20 -4
13 -15 20 -31 20 -18 0 -24 5 -24 23 1 19 2 20 10 5 8 -13 25 -16 102 -13z
m1188 -14 c0 -11 -31 -24 -39 -16 -3 3 1 10 9 15 19 12 30 12 30 1z m-56 -46
c-6 -16 -24 -21 -24 -7 0 11 11 22 21 22 5 0 6 -7 3 -15z m-724 -25 c0 -25 -6
-33 -35 -47 -28 -13 -49 -40 -98 -122 -60 -102 -139 -202 -151 -191 -3 4 14
29 37 57 23 29 70 99 105 157 48 80 69 107 92 115 23 7 30 16 30 35 0 15 5 26
10 26 6 0 10 -14 10 -30z m164 21 c6 -9 -26 -21 -56 -21 -29 0 -21 18 10 23
15 2 30 5 34 6 4 0 9 -3 12 -8z m3101 -11 c22 -11 55 -20 73 -20 28 0 32 -3
23 -14 -6 -7 -22 -11 -36 -8 -15 2 -25 0 -25 -7 0 -6 -4 -11 -10 -11 -5 0 -10
6 -10 14 0 26 -20 28 -39 4 -11 -13 -23 -20 -27 -16 -4 4 -1 14 5 22 7 8 10
24 6 36 -8 25 -8 25 40 0z m-2578 -37 c-9 -9 -19 -14 -23 -11 -10 10 6 28 24
28 15 0 15 -1 -1 -17z m-47 -38 c-7 -8 -17 -15 -22 -15 -6 0 -5 7 2 15 7 8 17
15 22 15 6 0 5 -7 -2 -15z m-1030 -15 c0 -11 -4 -20 -10 -20 -5 0 -10 9 -10
20 0 11 5 20 10 20 6 0 10 -9 10 -20z m2846 -7 c-7 -7 -26 7 -26 19 0 6 6 6
15 -2 9 -7 13 -15 11 -17z m-1826 -22 c0 -5 -7 -11 -15 -15 -15 -5 -20 5 -8
17 9 10 23 9 23 -2z m-1050 -26 c-7 -8 -17 -15 -23 -15 -5 0 -2 9 8 20 21 23
35 19 15 -5z m993 -15 c-6 -23 -14 -25 -31 -8 -18 18 -15 23 12 26 19 1 23 -2
19 -18z m37 -30 c8 -5 12 -12 9 -15 -8 -8 -39 5 -39 16 0 11 11 11 30 -1z m50
-10 c0 -5 -4 -10 -10 -10 -5 0 -10 5 -10 10 0 6 5 10 10 10 6 0 10 -4 10 -10z
m2880 -50 c0 -5 -4 -10 -10 -10 -5 0 -10 5 -10 10 0 6 5 10 10 10 6 0 10 -4
10 -10z m149 -68 c8 -18 21 -32 28 -32 7 0 13 -4 13 -10 0 -5 -4 -10 -9 -10
-5 0 -7 -9 -4 -20 6 -24 15 -25 53 -5 24 12 28 13 24 1 -3 -7 -16 -18 -29 -24
-21 -10 -24 -16 -18 -44 3 -18 7 -34 8 -36 7 -8 55 24 56 37 2 22 2 23 -6 44
-12 30 9 18 33 -19 12 -20 22 -38 22 -42 0 -7 -78 -45 -112 -56 -18 -5 -24
-32 -20 -88 1 -16 -2 -28 -8 -28 -5 0 -10 6 -10 13 0 7 -13 14 -30 15 -26 2
-30 -1 -30 -22 0 -14 -5 -28 -10 -31 -16 -10 -24 26 -11 48 10 16 10 21 -1 28
-18 12 -28 11 -28 -2 0 -5 -5 -7 -11 -4 -6 4 -13 -2 -16 -13 -5 -20 -49 -39
-61 -27 -3 3 4 8 16 12 44 11 17 32 -62 48 -22 5 -26 9 -16 15 8 5 17 7 21 4
4 -2 10 6 14 19 l8 22 4 -23 c4 -20 9 -23 30 -17 20 5 24 3 20 -8 -9 -24 14
-39 29 -19 10 13 9 19 -5 29 -14 11 -14 12 0 13 8 0 25 -9 38 -21 22 -20 23
-20 36 -3 9 11 14 14 15 7 0 -25 28 -12 49 23 23 39 27 64 10 64 -8 0 -8 5 1
15 8 10 9 19 3 28 -6 6 -20 39 -32 72 -13 33 -28 66 -34 74 -10 11 -9 13 3 10
8 -3 21 -20 29 -37z m46 -12 c3 -5 1 -10 -4 -10 -6 0 -11 5 -11 10 0 6 2 10 4
10 3 0 8 -4 11 -10z m-3465 -34 c9 -12 8 -15 -9 -13 -21 1 -26 8 -14 20 9 9 9
9 23 -7z m-59 -35 c-6 -10 -7 -21 -4 -25 3 -3 -3 -6 -15 -6 -12 0 -22 5 -22
10 0 6 5 10 11 10 6 0 9 7 5 15 -4 10 1 15 15 15 16 0 18 -3 10 -19z m40 -28
c-10 -17 -10 -16 -11 3 0 23 13 41 18 25 2 -6 -1 -18 -7 -28z m-11 -34 c0 -5
-4 -9 -10 -9 -5 0 -10 7 -10 16 0 8 5 12 10 9 6 -3 10 -10 10 -16z m3335 -9
c4 -6 -5 -10 -19 -10 -14 0 -26 5 -26 10 0 6 9 10 19 10 11 0 23 -4 26 -10z
m57 -12 c-12 -12 -35 -1 -27 12 3 5 13 6 21 3 10 -4 12 -9 6 -15z m58 2 c12
-8 11 -10 -7 -10 -13 0 -23 5 -23 10 0 13 11 13 30 0z m-4070 -17 c0 -5 -16
-23 -35 -42 -41 -40 -47 -27 -8 18 27 30 43 39 43 24z m3860 -118 c-10 -12
-10 -15 4 -15 9 0 16 -4 16 -10 0 -5 -11 -10 -25 -10 -27 0 -33 18 -13 38 17
17 33 15 18 -3z m-4009 -58 c-29 -30 -39 -12 -10 19 14 15 25 20 27 14 3 -7
-5 -21 -17 -33z m4132 13 c3 -11 1 -23 -4 -26 -5 -3 -9 2 -9 10 0 19 -16 21
-23 4 -2 -7 -8 -10 -12 -6 -10 9 24 50 35 43 4 -3 10 -14 13 -25z m-53 -50 c0
-11 -4 -20 -10 -20 -5 0 -10 9 -10 20 0 11 5 20 10 20 6 0 10 -9 10 -20z m89
-7 c-1 -17 -3 -21 -6 -10 -2 9 -9 17 -14 17 -5 0 -9 5 -9 10 0 6 7 10 15 10
10 0 15 -9 14 -27z m-103 -69 c-3 -8 -10 -13 -16 -9 -6 4 -5 13 3 26 13 21 23
8 13 -17z m114 17 c0 -15 -31 -42 -40 -36 -5 3 -2 14 8 25 19 20 32 25 32 11z
m-4630 -301 c0 -5 -9 -10 -20 -10 -11 0 -20 5 -20 10 0 6 9 10 20 10 11 0 20
-4 20 -10z m60 0 c0 -5 -9 -10 -20 -10 -11 0 -20 5 -20 10 0 6 9 10 20 10 11
0 20 -4 20 -10z m60 0 c0 -5 -9 -10 -20 -10 -11 0 -20 5 -20 10 0 6 9 10 20
10 11 0 20 -4 20 -10z"/>
<path d="M3040 7696 c0 -18 30 -30 43 -17 5 5 6 14 3 20 -10 16 -46 13 -46 -3z"/>
<path d="M3106 7651 c-4 -5 -2 -12 3 -15 5 -4 12 -2 15 3 4 5 2 12 -3 15 -5 4
-12 2 -15 -3z"/>
<path d="M237 6903 c-4 -3 -7 -13 -7 -22 1 -13 3 -13 11 2 11 19 8 33 -4 20z"/>
<path d="M6373 5898 c-5 -7 -13 -23 -15 -35 -6 -21 -5 -21 18 -6 23 15 24 14
24 -8 0 -14 9 -30 20 -36 17 -11 21 -10 31 10 6 12 21 32 32 44 11 13 19 25
16 27 -2 2 -29 7 -60 11 -41 5 -58 3 -66 -7z"/>
<path d="M6057 5879 c-33 -25 -28 -35 30 -60 58 -25 60 -24 78 11 14 28 14 30
-7 44 -41 25 -71 26 -101 5z"/>
<path d="M6507 5869 c-20 -12 -62 -89 -48 -89 19 0 71 -59 71 -82 0 -12 11
-36 24 -53 l23 -29 41 18 c23 10 48 26 56 35 19 21 48 133 37 144 -4 4 -35 15
-67 23 -32 9 -71 22 -86 30 -32 16 -28 16 -51 3z"/>
<path d="M6185 5830 c-3 -5 -4 -14 -1 -19 8 -12 97 -21 159 -14 49 5 54 7 41
20 -8 9 -24 13 -34 10 -11 -3 -22 -2 -25 2 -7 12 -132 13 -140 1z"/>
<path d="M6170 5783 c0 -20 47 -51 87 -58 36 -6 43 -4 53 14 6 12 17 21 25 21
7 0 17 4 20 10 3 6 -15 9 -47 8 -29 0 -72 2 -95 6 -25 5 -43 4 -43 -1z"/>
<path d="M6431 5730 c1 -30 -1 -64 -5 -75 -5 -15 6 -34 49 -80 l55 -60 -26 60
c-14 33 -33 89 -41 125 -20 86 -34 100 -32 30z"/>
<path d="M6470 5743 c0 -19 23 -93 47 -150 21 -50 29 -61 39 -52 21 18 17 44
-16 92 -16 25 -30 56 -30 69 0 13 -9 29 -20 36 -11 7 -20 9 -20 5z"/>
<path d="M4805 3484 c-38 -7 -102 -15 -141 -19 l-71 -7 -51 -98 c-29 -53 -52
-102 -52 -108 0 -6 14 -18 30 -27 17 -9 30 -11 30 -5 0 5 7 10 16 10 8 0 12
-5 9 -10 -4 -7 8 -9 34 -5 23 3 41 2 41 -1 0 -3 -12 -15 -27 -28 l-27 -24 31
-58 32 -59 58 -6 c32 -3 66 -9 76 -13 15 -7 17 -2 18 35 1 24 1 49 0 56 -1 9
7 9 30 3 39 -11 49 -6 49 25 0 12 7 25 15 29 8 3 14 13 13 23 -3 36 2 53 17
53 9 0 12 6 8 17 -4 10 -2 14 5 9 6 -3 13 -2 16 3 10 15 -4 40 -25 46 -31 10
-54 54 -59 115 l-5 56 -70 -12z m75 -176 c0 -6 -7 -5 -15 2 -8 7 -15 17 -15
22 0 6 7 5 15 -2 8 -7 15 -17 15 -22z"/>
<path d="M3225 3446 c-24 -16 -78 -29 -119 -28 -16 0 -46 -8 -67 -19 -21 -10
-45 -19 -54 -19 -21 0 -19 -29 5 -65 15 -23 18 -41 14 -85 -5 -59 -2 -68 33
-87 35 -20 64 -15 95 14 34 32 35 42 7 72 -15 16 -28 21 -45 17 -22 -6 -24 -4
-18 20 6 24 5 26 -15 21 -11 -3 -21 -1 -21 4 0 11 46 23 65 16 8 -4 17 -2 20
3 4 6 11 10 17 10 7 0 6 -6 -2 -15 -7 -8 -19 -15 -28 -15 -23 0 -5 -13 22 -16
18 -2 23 1 19 12 -9 24 13 15 27 -11 15 -29 23 -31 40 -10 7 8 16 12 21 9 13
-8 34 7 68 50 22 28 28 43 22 55 -5 9 -7 29 -4 44 5 25 3 27 -25 27 -17 0 -36
2 -44 5 -7 3 -22 -1 -33 -9z"/>
<path d="M4420 3436 c-6 -6 -10 -16 -10 -24 0 -8 -6 -20 -14 -26 -11 -9 -12
-23 -3 -78 6 -38 15 -68 22 -68 17 0 34 21 28 36 -3 9 2 14 14 14 12 0 25 11
32 26 10 23 9 26 -9 31 -25 7 -26 23 -2 23 18 0 42 23 62 59 11 21 9 21 -50
19 -33 -1 -65 -7 -70 -12z"/>
<path d="M3160 3241 c0 -6 5 -13 10 -16 6 -3 10 1 10 9 0 9 -4 16 -10 16 -5 0
-10 -4 -10 -9z"/>
<path d="M4530 3196 c0 -2 8 -10 18 -17 15 -13 16 -12 3 4 -13 16 -21 21 -21
13z"/>
<path d="M4578 3183 c7 -3 16 -2 19 1 4 3 -2 6 -13 5 -11 0 -14 -3 -6 -6z"/>
<path d="M3100 3090 c-9 -6 -10 -10 -3 -10 6 0 15 5 18 10 8 12 4 12 -15 0z"/>
<path d="M4688 3013 c7 -3 16 -2 19 1 4 3 -2 6 -13 5 -11 0 -14 -3 -6 -6z"/>
<path d="M4732 3009 c10 -5 15 -16 12 -24 -5 -12 2 -15 30 -15 20 0 36 4 36 9
0 16 -43 41 -70 41 -21 -1 -23 -2 -8 -11z"/>
<path d="M4273 4527 c-46 -17 -47 -22 -8 -34 34 -11 36 -10 50 18 18 33 11 35
-42 16z"/>
<path d="M4190 4466 c0 -2 7 -7 16 -10 8 -3 12 -2 9 4 -6 10 -25 14 -25 6z"/>
<path d="M4236 4455 c5 -11 11 -12 25 -4 26 13 24 19 -6 19 -17 0 -23 -4 -19
-15z"/>
<path d="M4327 4339 c-18 -10 -18 -12 -1 -30 18 -20 18 -20 30 3 19 35 6 47
-29 27z"/>
<path d="M4370 4295 c0 -8 5 -15 10 -15 6 0 10 7 10 15 0 8 -4 15 -10 15 -5 0
-10 -7 -10 -15z"/>
<path d="M4340 4202 c0 -10 -18 -33 -41 -51 -22 -18 -38 -35 -35 -38 6 -6 106
87 106 99 0 4 -7 8 -15 8 -8 0 -15 -8 -15 -18z"/>
<path d="M5066 4061 c-4 -7 -5 -15 -2 -18 9 -9 19 4 14 18 -4 11 -6 11 -12 0z"/>
<path d="M1430 3366 c0 -8 5 -18 10 -21 6 -3 10 1 10 9 0 8 -4 18 -10 21 -5 3
-10 -1 -10 -9z"/>
<path d="M2873 3705 c0 -8 4 -12 9 -9 5 3 6 10 3 15 -9 13 -12 11 -12 -6z"/>
<path d="M2757 3622 l-39 -40 38 -56 c26 -40 40 -53 46 -44 9 16 10 88 0 141
l-7 38 -38 -39z"/>
<path d="M4482 2968 c-6 -23 -9 -44 -8 -46 13 -12 106 -27 134 -21 32 6 50 16
41 22 -2 1 -29 19 -59 39 -85 56 -95 57 -108 6z"/>
<path d="M4110 2380 c0 -5 5 -10 10 -10 6 0 10 5 10 10 0 6 -4 10 -10 10 -5 0
-10 -4 -10 -10z"/>
<path d="M3903 1606 c2 -6 11 -10 20 -8 8 1 18 -5 20 -15 4 -15 5 -14 6 3 1
16 -6 23 -24 27 -17 3 -24 0 -22 -7z"/>
<path d="M783 1264 c-9 -4 -9 -11 -1 -28 9 -21 15 -23 56 -19 85 8 95 21 32
41 -41 12 -66 14 -87 6z"/>
<path d="M736 1253 c-11 -11 -6 -23 9 -23 8 0 15 4 15 9 0 13 -16 22 -24 14z"/>
<path d="M580 1240 c0 -5 9 -10 20 -10 11 0 20 5 20 10 0 6 -9 10 -20 10 -11
0 -20 -4 -20 -10z"/>
<path d="M730 1904 c0 -34 74 -150 116 -184 25 -20 49 -49 55 -69 10 -30 14
-33 41 -27 17 3 34 6 39 6 23 0 5 20 -27 30 -28 9 -51 33 -105 106 -39 52 -75
108 -81 124 -10 32 -38 41 -38 14z"/>
</g>
</svg>
