<?xml version="1.0" standalone="no"?>
<!DOCTYPE svg PUBLIC "-//W3C//DTD SVG 20010904//EN"
 "http://www.w3.org/TR/2001/REC-SVG-20010904/DTD/svg10.dtd">
<svg version="1.0" xmlns="http://www.w3.org/2000/svg"
 width="800.000000pt" height="800.000000pt" viewBox="0 0 800.000000 800.000000"
 preserveAspectRatio="xMidYMid meet">
<metadata>
Created by potrace 1.16, written by Peter Selinger 2001-2019
</metadata>
<g transform="translate(0.000000,800.000000) scale(0.100000,-0.100000)"
fill="#000000" stroke="none">
<path d="M0 4000 l0 -4000 4000 0 4000 0 0 3370 c0 3012 -2 3373 -15 3394 -13
20 -14 32 -4 82 8 40 13 235 16 607 l4 547 -2589 0 c-1999 0 -2591 -3 -2600
-12 -9 -9 -12 -9 -12 0 0 9 -318 12 -1400 12 l-1400 0 0 -4000z m2820 3960 c0
-5 -4 -10 -10 -10 -5 0 -10 5 -10 10 0 6 5 10 10 10 6 0 10 -4 10 -10z m2140
-46 c-6 -14 -10 -37 -10 -50 0 -16 -5 -24 -12 -21 -7 2 -13 10 -13 18 0 8 -8
17 -17 21 -28 11 -22 31 7 24 20 -5 25 -3 25 12 0 22 9 34 21 26 5 -2 4 -16
-1 -30z m-2130 12 c0 -3 -4 -8 -10 -11 -5 -3 -10 -1 -10 4 0 6 5 11 10 11 6 0
10 -2 10 -4z m0 -36 c0 -5 -4 -10 -10 -10 -5 0 -10 5 -10 10 0 6 5 10 10 10 6
0 10 -4 10 -10z m0 -30 c0 -5 -5 -10 -11 -10 -5 0 -7 5 -4 10 3 6 8 10 11 10
2 0 4 -4 4 -10z m10 -40 c0 -5 -4 -10 -10 -10 -5 0 -10 5 -10 10 0 6 5 10 10
10 6 0 10 -4 10 -10z m2120 -11 c0 -16 4 -19 20 -14 14 5 20 2 20 -9 0 -20
-27 -21 -46 -2 -16 17 -19 46 -4 46 6 0 10 -9 10 -21z m-2120 -19 c0 -5 -5
-10 -11 -10 -5 0 -7 5 -4 10 3 6 8 10 11 10 2 0 4 -4 4 -10z m2365 -3 c36 -2
40 -5 43 -32 2 -16 11 -34 19 -40 26 -19 4 -22 -126 -16 -85 4 -126 10 -128
18 -4 10 21 11 106 6 l111 -6 0 24 c0 21 -5 24 -37 26 -21 0 -61 3 -90 5 -43
3 -53 1 -56 -14 -3 -10 -12 -18 -21 -18 -19 0 -19 1 -6 34 9 24 12 25 77 20
37 -3 86 -6 108 -7z m-2360 -37 c-3 -5 -10 -10 -16 -10 -5 0 -9 5 -9 10 0 6 7
10 16 10 8 0 12 -4 9 -10z m5 -30 c0 -5 -4 -10 -10 -10 -5 0 -10 5 -10 10 0 6
5 10 10 10 6 0 10 -4 10 -10z m2490 -20 c0 -5 -9 -10 -20 -10 -11 0 -20 5 -20
10 0 6 9 10 20 10 11 0 20 -4 20 -10z m50 0 c0 -5 -7 -10 -15 -10 -8 0 -15 5
-15 10 0 6 7 10 15 10 8 0 15 -4 15 -10z m-2540 -20 c0 -5 -4 -10 -10 -10 -5
0 -10 5 -10 10 0 6 5 10 10 10 6 0 10 -4 10 -10z m5 -30 c3 -5 -1 -10 -10 -10
-9 0 -13 5 -10 10 3 6 8 10 10 10 2 0 7 -4 10 -10z m-2765 -24 c0 -11 -19 -15
-25 -6 -3 5 1 10 9 10 9 0 16 -2 16 -4z m1588 -2 c36 -5 52 -11 52 -21 0 -10
-6 -13 -16 -9 -9 3 -52 9 -97 12 -64 5 -115 0 -228 -20 -202 -35 -727 -151
-822 -181 -82 -26 -118 -32 -101 -15 19 19 205 69 482 129 488 107 590 121
730 105z m1182 -14 c0 -5 -4 -10 -10 -10 -5 0 -10 5 -10 10 0 6 5 10 10 10 6
0 10 -4 10 -10z m-2780 -20 c0 -5 -4 -10 -10 -10 -5 0 -10 5 -10 10 0 6 5 10
10 10 6 0 10 -4 10 -10z m2780 -10 c0 -5 -5 -10 -11 -10 -5 0 -7 5 -4 10 3 6
8 10 11 10 2 0 4 -4 4 -10z m-2780 -30 c0 -5 -4 -10 -10 -10 -5 0 -10 5 -10
10 0 6 5 10 10 10 6 0 10 -4 10 -10z m2784 -15 c-4 -8 -7 -15 -9 -15 -2 0 -5
7 -9 15 -3 9 0 15 9 15 9 0 12 -6 9 -15z m-2784 -15 c0 -5 -4 -10 -10 -10 -5
0 -10 5 -10 10 0 6 5 10 10 10 6 0 10 -4 10 -10z m0 -34 c0 -11 -19 -15 -25
-6 -3 5 1 10 9 10 9 0 16 -2 16 -4z m-10 -36 c0 -5 -4 -10 -10 -10 -5 0 -10 5
-10 10 0 6 5 10 10 10 6 0 10 -4 10 -10z m0 -40 c0 -5 -4 -10 -10 -10 -5 0
-10 5 -10 10 0 6 5 10 10 10 6 0 10 -4 10 -10z m6180 -322 c0 -7 -4 -19 -9
-27 -11 -17 -23 1 -15 23 7 19 24 21 24 4z m-14 -83 c-8 -23 -25 -9 -19 16 4
13 9 17 16 10 5 -5 7 -17 3 -26z m4 -51 c0 -8 -4 -14 -10 -14 -5 0 -10 9 -10
21 0 11 5 17 10 14 6 -3 10 -13 10 -21z m10 -48 c0 -16 -18 -31 -27 -22 -8 8
5 36 17 36 5 0 10 -6 10 -14z m0 -66 c0 -11 -4 -20 -10 -20 -5 0 -10 9 -10 20
0 11 5 20 10 20 6 0 10 -9 10 -20z m14 -56 c4 -9 4 -19 2 -21 -8 -8 -26 8 -26
23 0 19 16 18 24 -2z m26 -60 c0 -8 -4 -14 -9 -14 -11 0 -22 26 -14 34 9 9 23
-3 23 -20z m10 -54 c0 -11 -4 -20 -10 -20 -5 0 -10 9 -10 20 0 11 5 20 10 20
6 0 10 -9 10 -20z m0 -60 c0 -11 -4 -20 -10 -20 -5 0 -10 9 -10 20 0 11 5 20
10 20 6 0 10 -9 10 -20z m-10 -54 c0 -15 -18 -31 -26 -23 -7 7 7 37 17 37 5 0
9 -6 9 -14z m-2 -65 c3 -8 -1 -12 -9 -9 -7 2 -15 10 -17 17 -3 8 1 12 9 9 7
-2 15 -10 17 -17z m49 -47 c-9 -10 -38 16 -31 28 4 6 13 4 22 -6 9 -8 13 -19
9 -22z m23 -31 c0 -9 7 -24 15 -33 8 -9 31 -42 52 -74 l38 -58 71 -3 72 -3 40
42 c22 22 47 56 56 73 17 33 46 47 87 41 12 -2 24 -9 27 -15 2 -9 -5 -11 -27
-7 -26 6 -30 4 -25 -10 3 -9 10 -16 15 -16 5 0 9 -7 9 -16 0 -15 -2 -15 -25 0
-31 21 -42 20 -49 -2 -4 -10 -26 -39 -51 -64 -48 -50 -50 -66 -10 -101 l20
-19 -22 5 c-27 6 -56 -23 -47 -48 6 -14 3 -16 -14 -10 -18 5 -22 2 -22 -17 l0
-23 -23 27 c-12 14 -32 31 -44 37 -20 10 -24 8 -38 -18 -8 -17 -15 -39 -15
-50 0 -27 -36 -47 -56 -30 -8 6 -14 22 -14 35 0 19 7 26 29 30 l29 6 -4 86
c-2 47 -8 90 -14 96 -7 7 -10 4 -10 -7 0 -9 -5 -17 -11 -17 -7 0 -9 11 -6 27
6 34 -14 75 -49 101 -24 17 -26 21 -13 35 18 21 29 21 29 0z m-4770 -473 c0
-5 -4 -10 -10 -10 -5 0 -10 5 -10 10 0 6 5 10 10 10 6 0 10 -4 10 -10z m73 4
c-7 -3 -9 -12 -6 -20 3 -8 0 -14 -6 -14 -12 0 -15 23 -4 33 3 4 11 7 17 6 7 0
6 -2 -1 -5z m-1270 -1477 c42 -20 77 -41 77 -47 0 -7 -11 -6 -32 3 -136 58
-168 74 -168 84 0 15 10 11 123 -40z m157 -897 c0 -5 -9 -10 -20 -10 -11 0
-20 5 -20 10 0 6 9 10 20 10 11 0 20 -4 20 -10z"/>
<path d="M6491 6216 c-22 -26 -9 -60 31 -81 l37 -20 25 24 c46 43 31 74 -40
85 -30 5 -44 3 -53 -8z"/>
<path d="M6451 6204 c0 -11 3 -14 6 -6 3 7 2 16 -1 19 -3 4 -6 -2 -5 -13z"/>
<path d="M6400 6050 c0 -5 7 -10 15 -10 8 0 15 5 15 10 0 6 -7 10 -15 10 -8 0
-15 -4 -15 -10z"/>
</g>
</svg>
