<?xml version="1.0" standalone="no"?>
<!DOCTYPE svg PUBLIC "-//W3C//DTD SVG 20010904//EN"
 "http://www.w3.org/TR/2001/REC-SVG-20010904/DTD/svg10.dtd">
<svg version="1.0" xmlns="http://www.w3.org/2000/svg"
 width="800.000000pt" height="800.000000pt" viewBox="0 0 800.000000 800.000000"
 preserveAspectRatio="xMidYMid meet">
<metadata>
Created by potrace 1.16, written by Peter Selinger 2001-2019
</metadata>
<g transform="translate(0.000000,800.000000) scale(0.100000,-0.100000)"
fill="#000000" stroke="none">
<path d="M0 7446 l0 -555 87 -26 c189 -57 266 -91 488 -212 245 -134 515 -294
535 -317 13 -17 9 -122 -5 -119 -5 2 -12 27 -15 58 l-5 55 -115 71 c-183 115
-617 349 -705 381 -44 17 -122 43 -173 58 l-92 28 0 -2212 c0 -1707 3 -2215
12 -2224 7 -7 24 -12 38 -12 41 0 91 -65 68 -88 -6 -6 -23 -8 -38 -5 -20 3
-29 0 -34 -12 -6 -17 -8 -17 -26 0 -20 18 -20 17 -20 -23 0 -23 5 -42 10 -42
6 0 10 -7 10 -15 0 -8 -4 -15 -10 -15 -6 0 -10 -72 -10 -195 0 -167 2 -195 15
-195 8 0 15 -4 15 -10 0 -5 -7 -10 -15 -10 -13 0 -15 -107 -15 -905 l0 -905
245 0 c236 0 245 1 245 19 0 11 4 23 10 26 5 3 7 20 3 37 -5 24 -3 30 8 26 8
-3 16 -13 18 -24 2 -10 11 -25 20 -32 14 -12 13 -13 -11 -9 -21 3 -27 -1 -31
-19 l-4 -24 1188 0 c654 0 1189 1 1189 3 0 4 -73 105 -91 125 -18 21 -2 26 19
6 10 -11 38 -45 62 -76 l42 -58 214 0 c148 0 214 3 214 11 0 18 -35 56 -48 51
-6 -2 -12 1 -12 7 0 6 -18 16 -40 22 -61 18 -50 35 20 30 22 -1 23 0 8 9 -49
30 5 40 68 14 51 -21 50 -20 29 -44 -15 -17 -17 -27 -9 -58 5 -22 16 -38 27
-40 15 -3 16 0 6 24 -19 52 3 88 40 65 8 -5 24 -3 42 6 35 17 80 10 104 -17
17 -19 5 -38 -15 -25 -6 4 -18 1 -26 -6 -13 -10 -12 -14 2 -30 17 -18 85 -19
2162 -19 1883 0 2143 2 2132 15 -6 8 -10 20 -7 27 3 8 10 2 17 -15 13 -26 16
-27 87 -27 70 0 73 1 73 23 0 31 -44 90 -141 192 -62 64 -99 93 -167 129 -49
26 -112 67 -141 93 l-52 45 -34 -38 c-40 -46 -43 -61 -12 -73 34 -14 95 -70
76 -71 -8 0 -26 11 -38 24 -13 14 -33 26 -45 28 -12 2 -25 14 -30 31 -9 24 -6
32 33 71 46 47 47 60 2 100 -12 11 -21 27 -21 36 0 10 -7 23 -15 30 -8 7 -15
21 -15 31 0 13 -7 19 -22 20 l-23 0 23 10 c28 11 42 4 42 -20 0 -10 9 -30 20
-43 10 -14 16 -28 13 -32 -4 -3 8 -21 26 -38 18 -18 37 -42 42 -55 11 -29 97
-92 189 -138 74 -37 194 -146 261 -239 l29 -39 0 619 c0 588 -1 618 -18 598
-9 -11 -36 -35 -59 -53 -42 -32 -43 -34 -43 -91 0 -72 13 -68 -263 -77 -114
-3 -210 -10 -213 -14 -3 -5 -9 -9 -15 -9 -5 0 -4 9 3 20 12 19 24 20 164 20
83 0 185 3 226 6 l76 7 4 60 c4 52 8 62 34 80 16 12 46 38 67 58 l37 37 0 171
c0 162 -1 175 -26 234 -27 66 -194 295 -279 383 -27 28 -79 84 -115 123 -44
48 -91 87 -144 118 -43 25 -103 68 -133 94 -69 60 -332 369 -333 389 0 9 -20
36 -45 60 -41 40 -47 43 -66 32 -25 -16 -37 -9 -20 11 14 18 -2 33 -99 88 -41
23 -77 45 -80 48 -20 26 -63 41 -99 35 -47 -7 -107 11 -121 36 -6 10 -10 37
-10 60 0 82 -61 130 -163 130 -100 0 -287 -56 -271 -81 4 -8 0 -9 -14 -5 -15
5 -25 1 -34 -13 -7 -12 -18 -21 -25 -21 -6 0 -23 -14 -38 -32 l-27 -32 41 -38
c23 -21 41 -43 41 -48 0 -21 -26 -8 -66 31 -23 22 -44 36 -48 31 -3 -5 1 -15
9 -22 19 -16 19 -34 -1 -51 -13 -11 -14 -9 -8 17 7 29 7 29 -14 11 -11 -11
-30 -40 -42 -65 -21 -44 -21 -47 -5 -80 19 -41 28 -28 -140 -201 -75 -77 -126
-121 -160 -137 -54 -26 -75 -30 -75 -14 0 6 7 10 15 10 35 0 85 37 183 133 56
56 102 105 102 110 0 4 16 22 35 39 23 20 32 34 27 42 -21 26 -20 62 3 106 47
88 58 115 57 137 -1 15 3 21 12 17 8 -3 44 19 82 49 52 42 88 61 163 87 118
40 240 51 288 27 51 -27 83 -73 83 -121 0 -23 6 -51 14 -61 21 -29 74 -44 114
-32 29 9 37 7 75 -21 23 -17 65 -43 92 -58 28 -15 68 -39 90 -54 l41 -28 79
89 c75 83 95 100 95 81 0 -4 -34 -44 -75 -89 -41 -45 -75 -85 -75 -90 0 -5 20
-26 45 -46 25 -21 48 -50 52 -65 8 -33 272 -342 339 -398 27 -22 87 -62 133
-89 46 -27 86 -56 88 -66 3 -9 14 -22 26 -28 12 -7 44 -41 72 -77 27 -35 54
-64 60 -64 15 -1 244 -302 270 -357 l23 -48 1 2708 c1 1884 -2 2707 -9 2707
-7 0 -9 15 -5 43 4 23 9 214 12 425 l5 382 -821 0 c-725 0 -820 -2 -815 -15 4
-8 2 -15 -4 -15 -5 0 -12 7 -16 15 -5 13 -87 15 -655 15 l-650 0 -10 -37 c-6
-21 -11 -50 -11 -64 0 -14 -9 -34 -21 -45 -12 -10 -28 -32 -37 -49 -8 -17 -17
-24 -19 -18 -5 14 34 83 46 83 5 0 11 19 15 43 3 23 9 52 12 65 l6 22 -2283 0
-2284 0 -100 -91 c-103 -93 -148 -124 -168 -116 -7 3 4 12 23 21 19 9 76 54
125 101 l90 84 -212 1 -213 0 0 -554z m6390 482 c0 -5 -4 -8 -10 -8 -5 0 -10
10 -10 23 0 18 2 19 10 7 5 -8 10 -18 10 -22z m45 -29 c11 -17 0 -20 -21 -4
-17 13 -17 14 -2 15 9 0 20 -5 23 -11z m29 -45 c10 -25 -1 -29 -14 -5 -6 12
-7 21 -1 21 5 0 12 -7 15 -16z m6 -65 c0 -11 -4 -17 -10 -14 -5 3 -10 15 -10
26 0 11 5 17 10 14 6 -3 10 -15 10 -26z m10 -56 c0 -22 -2 -25 -10 -13 -13 20
-13 40 0 40 6 0 10 -12 10 -27z m1409 -41 c47 -26 87 -53 89 -61 4 -13 -28 3
-160 78 -26 15 -37 31 -20 31 4 0 45 -22 91 -48z m-3668 -5 c-13 -13 -15 1 -4
30 7 17 8 17 11 -1 2 -10 -1 -23 -7 -29z m2289 -5 l22 -18 -24 0 c-22 0 -38
12 -38 29 0 12 17 8 40 -11z m-2290 -43 c0 -11 -4 -17 -10 -14 -5 3 -10 13
-10 21 0 8 5 14 10 14 6 0 10 -9 10 -21z m2290 -32 c0 -6 7 -18 15 -27 14 -16
14 -18 -5 -23 -24 -6 -34 6 -25 32 3 11 1 22 -5 26 -5 3 -10 11 -10 17 0 7 6
6 15 -2 8 -7 15 -17 15 -23z m-120 2 c0 -5 -4 -9 -10 -9 -5 0 -10 7 -10 16 0
8 5 12 10 9 6 -3 10 -10 10 -16z m34 15 c9 -3 14 -10 11 -15 -7 -10 -35 0 -35
12 0 11 3 11 24 3z m-2180 -30 c9 -24 7 -28 -9 -14 -17 14 -20 30 -6 30 5 0
12 -7 15 -16z m3709 -11 c-4 -16 -7 -38 -6 -50 1 -27 2 -26 -32 -11 -32 14
-32 32 0 63 32 33 47 32 38 -2z m-1483 -3 c7 -13 7 -20 1 -20 -6 0 -15 9 -21
20 -7 13 -7 20 -1 20 6 0 15 -9 21 -20z m1300 -12 c0 -7 -9 -71 -20 -143 -24
-159 -25 -233 -4 -393 14 -108 14 -146 0 -131 -8 9 -36 259 -36 324 0 39 9
129 20 200 11 72 20 136 20 143 0 6 5 12 10 12 6 0 10 -6 10 -12z m-3496 -33
c3 -8 1 -15 -3 -15 -5 0 -11 7 -15 15 -3 8 -1 15 3 15 5 0 11 -7 15 -15z
m2206 -11 c0 -8 -4 -12 -10 -9 -5 3 -10 13 -10 21 0 8 5 12 10 9 6 -3 10 -13
10 -21z m90 16 c0 -5 -4 -10 -10 -10 -5 0 -10 5 -10 10 0 6 5 10 10 10 6 0 10
-4 10 -10z m50 0 c8 -5 11 -12 8 -16 -10 -9 -38 3 -38 16 0 12 10 13 30 0z
m-300 -26 c0 -14 -4 -23 -10 -19 -5 3 -10 15 -10 26 0 10 5 19 10 19 6 0 10
-12 10 -26z m224 -6 c-3 -4 -12 -8 -20 -8 -8 0 -14 -10 -14 -25 0 -14 -4 -25
-10 -25 -5 0 -10 5 -10 10 0 6 -9 10 -20 10 -11 0 -20 5 -20 11 0 5 8 9 18 7
24 -4 42 10 42 33 0 16 3 17 19 7 11 -7 17 -16 15 -20z m126 1 c0 -6 -4 -7
-10 -4 -5 3 -10 11 -10 16 0 6 5 7 10 4 6 -3 10 -11 10 -16z m-360 -51 c0 -5
-4 -8 -10 -8 -5 0 -10 10 -10 23 0 18 2 19 10 7 5 -8 10 -18 10 -22z m50 2 c0
-5 -9 -10 -20 -10 -11 0 -20 5 -20 10 0 6 9 10 20 10 11 0 20 -4 20 -10z m110
-31 c0 -11 -4 -18 -10 -14 -5 3 -7 12 -3 20 7 21 13 19 13 -6z m-82 -7 c6 -18
-15 -14 -22 4 -4 10 -1 14 6 12 6 -2 14 -10 16 -16z m820 -4 c21 -21 14 -54
-13 -66 -24 -11 -25 -10 -25 27 0 50 13 64 38 39z m-782 -45 c-8 -8 -36 5 -36
17 0 7 6 7 21 0 11 -7 18 -14 15 -17z m54 6 c0 -5 -7 -9 -15 -9 -9 0 -12 6 -9
15 6 15 24 11 24 -6z m1374 -176 c-1 -16 4 -41 12 -58 9 -19 11 -31 4 -33 -5
-2 -7 -15 -4 -28 3 -13 2 -24 -3 -24 -12 0 -33 89 -33 136 0 22 5 34 14 34 9
0 12 -9 10 -27z m-5584 -355 c0 -40 -8 -53 -36 -62 -18 -5 -21 -2 -21 24 0 33
11 39 25 14 7 -13 11 -9 16 20 9 45 16 47 16 4z m2667 -129 c-6 -10 -13 -15
-15 -9 -6 17 7 42 18 35 6 -4 5 -13 -3 -26z m2374 21 c22 -12 26 -40 5 -40 -8
0 -21 -3 -30 -6 -13 -5 -16 1 -16 25 0 33 9 37 41 21z m-2351 -60 c0 -5 -9
-10 -20 -10 -11 0 -20 5 -20 10 0 6 9 10 20 10 11 0 20 -4 20 -10z m30 -15 c0
-8 -4 -15 -10 -15 -5 0 -10 7 -10 15 0 8 5 15 10 15 6 0 10 -7 10 -15z m1870
-75 c11 -7 7 -10 -17 -10 -18 0 -33 5 -33 10 0 13 30 13 50 0z m-698 -94 c20
-15 14 -26 -13 -26 -21 0 -33 15 -24 30 8 13 16 12 37 -4z m-4272 -7 c0 -8
-28 -21 -52 -24 -17 -2 -25 15 -13 27 8 8 65 6 65 -3z m5833 4 c9 -9 -22 -43
-40 -43 -7 0 -13 5 -13 10 0 6 7 10 15 10 8 0 15 7 15 15 0 16 12 20 23 8z
m167 -23 c0 -5 -9 -10 -20 -10 -11 0 -20 5 -20 10 0 6 9 10 20 10 11 0 20 -4
20 -10z m-1836 -98 c7 -12 -50 -156 -63 -160 -6 -2 0 25 14 61 13 35 21 74 18
86 -4 15 -1 21 10 21 9 0 18 -4 21 -8z m-514 -17 c0 -8 -2 -15 -4 -15 -2 0 -6
7 -10 15 -3 8 -1 15 4 15 6 0 10 -7 10 -15z m-334 -31 c-23 -16 -46 -18 -46
-4 0 6 9 10 19 10 11 0 23 5 26 11 4 6 10 7 13 4 4 -4 -2 -13 -12 -21z m-2326
-79 c7 -8 16 -15 21 -15 5 0 31 -13 57 -30 31 -19 63 -30 88 -31 51 -1 68 -8
94 -42 32 -40 15 -47 -20 -9 -24 26 -36 32 -70 32 -31 0 -63 12 -122 45 -44
25 -85 45 -92 45 -12 0 -44 -70 -56 -125 -4 -19 -4 -35 1 -35 4 0 6 -7 3 -15
-4 -8 -10 -15 -16 -15 -5 0 -6 5 -3 10 3 6 2 10 -3 10 -6 0 -12 -7 -16 -15 -3
-8 -11 -15 -17 -15 -8 0 -8 4 1 15 9 11 9 15 1 15 -6 0 -14 -7 -17 -15 -4 -8
-10 -12 -15 -9 -17 10 -9 25 24 39 28 12 35 22 57 94 24 79 26 81 56 81 17 0
37 -7 44 -15z m3371 -42 c9 -10 26 -25 37 -33 12 -8 22 -18 22 -23 0 -12 -53
1 -61 15 -4 6 -14 8 -22 5 -15 -6 -27 11 -27 39 0 20 32 18 51 -3z m-261 -18
c0 -19 -35 -85 -44 -85 -7 0 -35 7 -63 15 l-52 15 -45 -47 c-25 -27 -46 -53
-46 -59 0 -6 9 -19 21 -30 15 -14 19 -26 15 -49 -6 -30 -5 -31 24 -27 18 3 30
10 30 19 0 9 6 13 15 9 8 -3 19 3 25 14 13 24 13 60 0 60 -5 0 -10 5 -10 10 0
6 7 10 15 10 8 0 15 4 15 9 0 17 38 -1 48 -22 6 -12 11 -16 11 -9 1 22 21 3
22 -21 0 -12 3 -16 6 -9 8 20 23 14 23 -10 0 -30 15 -54 24 -39 14 21 25 11
20 -18 -4 -16 -1 -32 5 -35 6 -4 11 -12 11 -17 0 -6 -5 -7 -11 -4 -6 4 -13 -2
-16 -14 -7 -27 -21 -27 -33 2 l-9 22 0 -24 c-1 -38 -39 -64 -81 -56 -19 4 -40
11 -45 15 -6 5 -32 14 -58 20 -42 11 -46 15 -41 36 4 16 2 24 -6 24 -9 0 -11
11 -7 36 5 28 1 43 -13 62 -29 36 -25 53 20 97 43 42 49 55 25 55 -8 0 -15 5
-15 10 0 15 22 12 103 -14 l75 -23 11 38 c7 22 16 39 21 39 6 0 10 -2 10 -5z
m-3146 -27 c-4 -34 -4 -34 -13 -19 -10 15 -4 41 8 41 4 0 7 -10 5 -22z m-318
-34 c34 -16 43 -43 16 -52 -7 -2 -10 2 -6 12 5 12 -2 19 -25 27 -17 6 -31 15
-31 20 0 13 7 11 46 -7z m364 -14 c0 -5 -6 -10 -14 -10 -8 0 -18 5 -21 10 -3
6 3 10 14 10 12 0 21 -4 21 -10z m40 -26 c0 -8 -4 -14 -10 -14 -5 0 -10 9 -10
21 0 11 5 17 10 14 6 -3 10 -13 10 -21z m3740 -5 c0 -18 -2 -19 -15 -5 -8 8
-15 17 -15 20 0 3 7 6 15 6 9 0 15 -9 15 -21z m113 -9 c-3 -11 -9 -20 -14 -20
-10 0 -12 33 -3 43 12 12 22 -3 17 -23z m-3896 3 c-9 -9 -19 -14 -23 -11 -10
10 6 28 24 28 15 0 15 -1 -1 -17z m-42 -13 c-3 -5 -12 -7 -20 -3 -21 7 -19 13
6 13 11 0 18 -4 14 -10z m3210 0 c-3 -5 -10 -10 -16 -10 -5 0 -9 5 -9 10 0 6
7 10 16 10 8 0 12 -4 9 -10z m-3138 -45 c-2 -18 -6 -37 -10 -41 -20 -20 16
-30 41 -11 6 5 12 6 12 2 0 -4 8 -1 17 6 13 11 15 11 9 1 -12 -20 -14 -76 -3
-83 5 -4 4 -16 -4 -30 l-14 -24 -3 22 c-3 21 -9 17 -57 -34 -29 -31 -51 -63
-48 -70 4 -10 -4 -8 -26 4 -17 10 -31 21 -31 25 0 4 14 22 30 40 36 40 38 51
5 38 -33 -13 -79 5 -101 38 -21 32 -36 92 -22 92 5 0 20 11 32 24 34 33 52 38
99 25 34 -9 42 -8 49 5 14 25 27 9 25 -29z m-713 26 c11 -4 15 -10 10 -14 -14
-8 -54 3 -54 14 0 11 17 11 44 0z m3816 -16 c-7 -8 -17 -15 -22 -15 -6 0 -5 7
2 15 7 8 17 15 22 15 6 0 5 -7 -2 -15z m-3285 -5 c3 -5 -1 -10 -10 -10 -9 0
-13 5 -10 10 3 6 8 10 10 10 2 0 7 -4 10 -10z m3375 -40 c0 -5 -4 -10 -10 -10
-5 0 -10 5 -10 10 0 6 5 10 10 10 6 0 10 -4 10 -10z m-2848 -92 c-25 -118 -24
-147 7 -202 15 -28 32 -66 36 -85 4 -18 22 -50 40 -70 40 -45 115 -226 122
-296 5 -48 4 -52 -18 -58 -31 -8 -39 1 -15 18 15 12 17 22 12 56 -10 62 -90
244 -124 283 -17 19 -33 49 -37 68 -4 18 -15 44 -24 58 -36 53 -41 76 -30 152
18 139 21 150 32 139 7 -7 7 -26 -1 -63z m2848 36 c0 -8 -4 -14 -10 -14 -5 0
-10 9 -10 21 0 11 5 17 10 14 6 -3 10 -13 10 -21z m-10 -51 c0 -20 -3 -24 -11
-16 -7 7 -9 19 -6 27 10 24 17 19 17 -11z m-1616 2 c-6 -16 -24 -21 -24 -7 0
11 11 22 21 22 5 0 6 -7 3 -15z m1214 -24 c3 -8 -1 -12 -9 -9 -7 2 -15 10 -17
17 -3 8 1 12 9 9 7 -2 15 -10 17 -17z m830 10 c9 -5 26 -13 37 -17 18 -6 18
-8 3 -11 -10 -3 -18 -11 -18 -19 0 -20 -52 -15 -58 5 -3 10 0 12 12 8 10 -4
16 -1 16 8 0 8 -4 15 -10 15 -5 0 -10 5 -10 10 0 12 5 13 28 1z m-880 -7 c28
-8 30 -44 2 -44 -11 0 -19 6 -17 12 1 7 -8 14 -21 16 -12 2 -20 8 -17 13 7 10
21 11 53 3z m-1200 -16 c-2 -6 -10 -14 -16 -16 -7 -2 -10 2 -6 12 7 18 28 22
22 4z m1656 -30 c6 -4 9 -52 8 -130 -3 -143 -10 -208 -24 -208 -6 0 -30 -18
-54 -39 -25 -22 -65 -48 -89 -58 -29 -12 -45 -24 -45 -35 0 -20 -16 -24 -22
-6 -6 17 -68 -2 -82 -24 -9 -14 -7 -21 10 -33 28 -19 81 -103 86 -135 3 -22
-1 -25 -45 -32 -39 -7 -56 -5 -95 13 -55 25 -42 38 14 14 36 -15 104 -12 104
4 0 13 -56 96 -78 114 -20 19 -21 18 -42 -22 -11 -23 -25 -39 -31 -36 -6 4 -2
20 11 39 11 19 20 36 20 38 0 3 -28 16 -62 28 -35 12 -84 33 -110 46 l-48 24
-53 -112 c-29 -62 -69 -150 -88 -195 -32 -77 -49 -101 -49 -70 0 8 44 110 98
228 55 118 107 238 116 267 10 28 22 52 27 52 5 0 9 -2 9 -3 0 -4 -35 -104
-45 -129 -7 -19 7 -26 143 -78 69 -27 73 -27 82 -9 6 10 28 24 50 30 22 7 40
18 40 26 0 15 17 18 22 2 4 -13 94 35 158 86 l50 40 0 77 c0 42 -4 80 -10 83
-11 7 -14 158 -3 169 4 4 9 1 12 -6 2 -7 9 -16 15 -20z m-3914 -8 c0 -5 -8
-10 -19 -10 -10 0 -44 -11 -76 -25 -32 -14 -60 -23 -63 -20 -8 7 -3 10 58 38
58 27 100 34 100 17z m2220 -21 c-7 -11 -14 -18 -17 -15 -8 8 5 36 17 36 7 0
7 -6 0 -21z m-1630 4 c-1 -9 -71 -43 -89 -43 -20 0 16 31 47 40 36 11 42 11
42 3z m1921 -40 c-11 -21 -23 -55 -26 -76 -3 -21 -10 -35 -16 -32 -5 4 -7 17
-4 31 3 13 7 35 10 47 5 26 44 81 52 73 3 -2 -5 -22 -16 -43z m1244 27 c3 -5
-3 -10 -14 -10 -12 0 -21 5 -21 10 0 6 6 10 14 10 8 0 18 -4 21 -10z m-3045
-10 c0 -5 -4 -10 -10 -10 -5 0 -10 5 -10 10 0 6 5 10 10 10 6 0 10 -4 10 -10z
m1895 0 c3 -5 -3 -10 -15 -10 -12 0 -18 5 -15 10 3 6 10 10 15 10 5 0 12 -4
15 -10z m-452 -23 c-28 -47 -70 -97 -81 -97 -15 0 -12 6 33 68 17 23 36 42 43
42 8 0 10 -5 5 -13z m37 4 c0 -4 -9 -19 -19 -33 -11 -13 -41 -60 -68 -104 -26
-44 -65 -95 -85 -113 -45 -40 -51 -27 -7 15 17 16 47 56 66 89 77 130 113 176
113 146z m1160 0 c0 -14 -18 -23 -30 -16 -6 4 -8 11 -5 16 8 12 35 12 35 0z
m-3554 -22 c-25 -14 -65 -22 -115 -26 -42 -3 -91 -9 -109 -15 -46 -14 -53 -2
-9 17 20 8 67 15 104 15 37 1 82 7 98 15 49 22 76 17 31 -6z m4279 11 c-3 -5
-15 -10 -26 -10 -11 0 -17 5 -14 10 3 6 15 10 26 10 11 0 17 -4 14 -10z
m-1815 -95 c0 -4 -7 -20 -16 -37 -9 -17 -13 -39 -11 -50 4 -12 1 -18 -6 -15
-7 2 -30 -26 -51 -62 -55 -90 -56 -63 -2 32 24 43 49 91 56 107 11 26 30 41
30 25z m-1786 -92 c17 -9 41 -97 51 -184 5 -47 12 -61 47 -97 22 -23 48 -42
59 -42 10 0 30 -18 46 -42 15 -22 45 -58 65 -79 20 -21 33 -41 29 -43 -14 -9
-50 24 -87 80 -22 33 -49 60 -68 68 -17 7 -47 31 -67 53 -29 32 -38 52 -43 94
-13 107 -28 153 -62 191 -38 42 -56 73 -47 81 3 4 18 -11 34 -33 15 -21 35
-42 43 -47z m2266 74 c16 -12 25 -57 12 -57 -4 1 -14 16 -23 35 -17 37 -14 42
11 22z m-2616 -165 c34 -68 27 -80 -10 -17 -34 59 -56 123 -48 137 4 6 13 -6
19 -28 6 -21 24 -63 39 -92z m-121 45 c9 -27 41 -84 72 -128 31 -44 82 -128
113 -187 54 -102 57 -111 59 -186 1 -43 5 -92 8 -108 8 -33 103 -156 165 -212
l41 -37 21 28 c12 15 23 30 25 32 2 2 6 2 9 -1 3 -3 -1 -21 -9 -40 -14 -33
-14 -34 15 -51 26 -15 29 -15 24 -2 -7 20 4 19 19 -1 7 -11 26 -16 53 -16 29
1 42 -4 42 -13 0 -7 17 -20 38 -28 33 -13 38 -13 43 1 4 11 8 12 13 4 5 -9 16
-8 43 3 47 20 56 19 44 -4 -16 -29 19 -39 38 -12 16 26 28 27 34 4 3 -12 5 -8
6 9 1 21 5 25 21 21 11 -3 20 -11 20 -19 0 -8 6 -11 15 -8 8 4 15 14 15 23 0
12 2 13 9 3 10 -16 57 -18 95 -3 22 9 27 16 23 32 -4 15 -2 19 9 15 8 -3 14 0
14 5 0 6 9 9 20 6 11 -3 20 0 20 6 0 8 4 7 12 -1 15 -15 29 -15 25 0 -1 7 12
12 32 14 19 1 39 8 45 16 6 7 24 19 41 26 33 15 362 349 413 421 40 54 75 121
69 128 -3 2 -21 -23 -41 -55 -47 -78 -153 -176 -225 -209 -31 -14 -65 -30 -76
-36 -11 -6 -30 -16 -42 -22 -13 -7 -20 -15 -16 -18 6 -7 -80 -47 -102 -47 -35
0 -21 21 20 31 26 6 50 20 56 30 5 11 15 19 22 19 7 0 28 11 47 25 18 13 37
22 41 19 16 -9 108 46 166 100 32 30 78 88 103 130 25 41 52 77 61 79 9 2 40
43 69 90 29 48 57 84 61 81 5 -3 1 -17 -9 -32 -38 -56 -34 -55 24 1 56 55 82
71 71 45 -76 -175 -117 -246 -188 -323 -22 -24 -51 -46 -66 -50 -15 -3 -86
-69 -177 -163 -237 -246 -236 -246 -381 -317 -119 -57 -153 -70 -237 -89 -31
-7 -33 -13 -19 -49 l10 -25 98 30 c54 17 140 50 192 74 52 24 99 44 106 44 18
0 38 -27 26 -34 -5 -4 -12 -2 -16 4 -3 5 -13 10 -22 10 -12 0 -14 -7 -9 -32 3
-17 8 -33 10 -36 12 -11 57 17 142 89 87 73 115 91 113 72 0 -5 -44 -43 -98
-85 -97 -76 -176 -114 -358 -170 -33 -10 -43 -18 -43 -35 0 -12 -3 -28 -6 -37
-4 -11 -1 -16 10 -16 9 0 16 5 16 10 0 6 5 10 11 10 6 0 8 -8 4 -20 -5 -15 3
-24 44 -45 56 -28 66 -41 24 -31 -16 5 -29 3 -33 -5 -10 -16 -31 -2 -23 16 6
17 -80 61 -98 49 -8 -4 -7 -9 2 -15 7 -4 10 -11 7 -14 -15 -15 -26 8 -22 46 3
29 1 38 -8 32 -19 -11 -52 -12 -65 -1 -12 10 -15 6 -28 -39 -2 -7 -22 -25 -43
-41 l-40 -28 87 -49 c47 -26 108 -64 134 -83 26 -19 49 -33 51 -31 2 2 13 22
24 45 l21 41 -80 39 c-89 43 -123 70 -73 58 16 -4 31 -11 34 -15 6 -9 62 -33
72 -31 5 1 17 -7 27 -17 21 -21 83 -39 88 -25 12 33 22 38 47 25 28 -15 26
-31 -5 -31 -23 0 -25 -13 -3 -31 14 -11 18 -11 29 4 17 24 26 21 19 -7 -6 -27
5 -30 136 -41 79 -6 101 -3 270 39 58 14 138 31 178 37 45 7 72 15 72 23 0 7
9 21 20 31 19 17 20 17 21 -1 1 -10 1 -24 0 -30 -1 -7 31 -22 71 -34 99 -30
287 -133 328 -180 8 -10 43 -54 78 -99 44 -57 69 -81 84 -81 17 0 19 -3 10
-12 -14 -14 -16 -41 -3 -36 11 4 91 110 91 120 0 5 4 8 10 8 16 0 -7 -48 -40
-83 -16 -18 -30 -40 -30 -49 0 -28 -37 -21 -57 9 -70 112 -133 180 -133 143 0
-5 -8 -10 -17 -10 -10 0 -33 -13 -51 -28 l-33 -28 43 -47 c73 -79 97 -113 125
-173 25 -55 26 -70 30 -234 1 -107 -1 -169 -6 -160 -5 8 -11 87 -13 175 -4
141 -7 166 -27 209 -28 60 -123 181 -160 204 -14 9 -26 24 -26 32 0 8 -7 14
-16 12 -10 -1 -20 7 -24 20 l-8 23 -4 -22 c-6 -29 -25 -44 -43 -33 -11 7 -11
12 -2 23 7 7 9 17 5 21 -4 4 -1 11 7 16 16 10 16 10 -26 14 -6 1 -18 6 -25 13
-21 17 -106 43 -140 43 -24 0 -30 -4 -25 -16 9 -24 -5 -95 -18 -91 -6 2 -11 9
-11 16 0 6 -6 15 -13 20 -11 7 -11 9 0 14 10 3 13 16 10 39 -3 25 -12 38 -34
51 -37 21 -97 22 -127 1 -18 -13 -36 -15 -84 -10 -35 4 -93 2 -131 -4 -104
-17 -236 -22 -236 -10 0 6 26 10 63 10 34 0 89 5 122 11 81 14 274 31 360 33
l70 1 8 59 c5 32 6 60 3 63 -8 8 -205 -26 -279 -48 -109 -32 -167 -38 -271
-29 -97 10 -124 18 -161 50 -11 9 -34 20 -51 23 -28 5 -32 3 -52 -39 -12 -24
-22 -46 -22 -48 0 -2 29 -21 64 -42 36 -21 63 -41 60 -45 -3 -5 -34 9 -69 31
l-64 39 -15 -21 c-19 -26 -32 -18 -17 11 13 23 -2 38 -33 32 -13 -2 -17 2 -13
12 3 8 -2 22 -11 29 -25 22 -198 118 -211 118 -19 0 -181 112 -175 121 10 17
32 8 100 -41 38 -27 73 -50 79 -50 6 0 26 11 44 24 l32 24 -46 32 c-59 40 -56
59 12 80 63 18 66 21 55 51 -9 23 -13 24 -118 25 -94 0 -117 4 -169 26 -33 14
-80 31 -105 38 -25 6 -55 18 -66 25 -21 13 -23 11 -44 -45 -12 -32 -20 -65
-18 -72 5 -13 -51 -48 -77 -48 -8 0 -15 -5 -15 -12 0 -9 -3 -9 -11 -1 -15 15
-3 33 22 33 11 0 29 5 40 11 17 9 18 13 8 25 -10 12 -10 17 -1 23 7 4 21 30
32 57 l19 50 -93 95 c-116 119 -136 158 -136 265 0 75 -3 87 -44 170 -24 49
-75 137 -115 196 -67 100 -101 170 -101 206 0 26 16 1 33 -51z m1287 -59 c0
-5 -4 -8 -10 -8 -5 0 -10 10 -10 23 0 18 2 19 10 7 5 -8 10 -18 10 -22z m2851
-13 c-1 -15 -24 -12 -29 3 -3 9 2 13 12 10 10 -1 17 -7 17 -13z m-1739 -52
c32 -32 58 -64 58 -72 0 -11 -3 -11 -18 2 -23 21 -36 21 -52 2 -11 -14 -15
-14 -32 2 -11 10 -24 26 -30 37 -9 16 -7 18 11 13 25 -6 25 -6 7 38 -8 19 -12
35 -8 35 3 0 32 -26 64 -57z m-2048 -32 c-2 -2 -15 0 -30 3 -25 7 -26 8 -9 26
18 20 18 20 30 -2 6 -13 10 -25 9 -27z m3116 29 c0 -5 -4 -10 -10 -10 -5 0
-10 5 -10 10 0 6 5 10 10 10 6 0 10 -4 10 -10z m329 -26 c3 -3 -3 -12 -12 -22
-16 -15 -19 -15 -27 -2 -17 27 -12 42 13 34 12 -3 24 -8 26 -10z m-79 -71 c-1
-18 -19 -35 -29 -28 -9 5 -9 10 0 21 12 15 29 19 29 7z m-1078 -43 c19 -21 6
-39 -15 -22 -8 7 -53 1 -141 -19 -124 -28 -286 -52 -295 -43 -10 10 13 17 86
25 87 10 298 55 322 69 22 13 24 12 43 -10z m716 11 c10 -6 10 -10 -3 -21 -18
-15 -42 0 -31 19 8 13 16 14 34 2z m-3313 -12 c11 -17 0 -20 -21 -4 -17 13
-17 14 -2 15 9 0 20 -5 23 -11z m1684 -25 c-16 -19 -29 -17 -29 4 0 26 11 34
27 21 10 -9 10 -15 2 -25z m1084 1 c39 -4 57 -11 57 -21 0 -8 -9 -14 -20 -14
-17 0 -20 -7 -20 -38 0 -37 3 -41 88 -98 48 -34 95 -59 105 -56 10 2 17 -2 17
-11 0 -33 -32 -22 -118 39 -50 35 -95 64 -100 64 -20 0 -42 -51 -42 -95 0 -25
-4 -45 -10 -45 -19 0 -11 91 10 126 l21 33 -61 42 c-53 38 -72 59 -54 59 3 0
32 -18 65 -40 l59 -41 0 30 c0 23 -5 30 -26 35 -26 7 -63 42 -64 60 0 5 8 2
18 -6 9 -9 43 -19 75 -23z m803 5 c8 0 14 -4 14 -10 0 -5 -7 -10 -15 -10 -7 0
-18 -7 -22 -15 -5 -9 -13 -11 -22 -6 -10 7 -10 15 5 42 14 26 19 30 22 17 2
-10 10 -18 18 -18z m-3591 -28 c-6 -7 -35 18 -35 31 0 5 9 2 20 -8 11 -10 18
-20 15 -23z m-24 -36 c0 -12 3 -15 6 -8 4 10 8 10 19 1 11 -9 18 -9 26 -1 9 9
8 12 -5 12 -9 0 -17 5 -17 10 0 6 7 10 16 10 10 0 14 6 10 15 -3 8 -1 15 4 15
10 0 15 -18 24 -87 7 -49 -6 -63 -36 -36 -20 16 -21 17 -15 1 7 -21 -3 -24
-21 -6 -20 20 -14 28 23 28 19 0 35 5 35 11 0 10 -39 7 -71 -6 -18 -7 -36 24
-20 34 6 4 6 12 1 21 -7 11 -10 12 -10 2 0 -7 -5 -10 -10 -7 -7 4 -6 13 1 27
11 21 12 21 25 3 8 -10 14 -28 15 -39z m2618 45 c3 -1 -4 -7 -15 -15 -14 -11
-21 -11 -26 -3 -13 20 -9 27 15 23 12 -3 24 -5 26 -5z m684 -13 c5 -15 -10
-48 -22 -48 -11 0 -19 31 -14 48 3 6 11 12 18 12 7 0 15 -6 18 -12z m-774
-113 c16 -28 18 -35 5 -35 -13 0 -34 37 -34 61 0 16 8 10 29 -26z m1031 19 c0
-11 -34 -33 -49 -34 -11 0 -10 5 4 20 17 19 45 27 45 14z m-1970 -44 c0 -11
-4 -20 -10 -20 -5 0 -10 4 -10 9 0 5 -9 7 -20 4 -11 -3 -20 -1 -20 5 0 10 19
18 48 21 6 0 12 -8 12 -19z m-1505 0 c-3 -5 -13 -10 -21 -10 -8 0 -14 5 -14
10 0 6 9 10 21 10 11 0 17 -4 14 -10z m798 -26 c9 -9 -4 -35 -14 -28 -5 3 -9
12 -9 20 0 14 12 19 23 8z m2821 -62 c25 -23 46 -47 46 -52 0 -6 11 -15 25
-20 14 -5 25 -14 25 -20 0 -6 -5 -8 -10 -5 -19 12 -70 -6 -70 -24 0 -10 -25
-51 -55 -91 -30 -40 -55 -76 -55 -79 0 -3 7 -40 16 -82 17 -76 17 -77 43 -68
14 5 35 22 46 38 13 20 33 33 60 40 39 10 44 16 89 101 26 50 52 88 57 85 5
-4 -10 -41 -32 -83 -64 -119 -64 -119 -106 -125 -28 -5 -43 -15 -58 -37 -12
-18 -32 -34 -48 -37 -25 -5 -28 -9 -22 -32 4 -14 15 -68 25 -119 10 -52 21
-96 24 -100 4 -3 38 -1 77 6 38 7 104 12 146 12 62 0 84 4 117 24 23 13 58 26
78 30 28 5 36 11 31 22 -4 12 -8 13 -14 3 -5 -9 -10 -5 -14 13 -4 15 -3 32 1
39 5 9 2 10 -10 6 -25 -10 -32 20 -11 43 17 19 19 19 30 3 19 -27 29 -67 16
-59 -6 4 -11 2 -11 -4 0 -6 6 -13 14 -16 13 -5 31 -49 28 -66 -1 -5 2 -8 7 -8
5 0 13 15 16 33 6 27 67 235 80 275 3 7 9 11 13 8 5 -3 -8 -63 -29 -133 -42
-139 -46 -165 -26 -203 13 -25 14 -77 1 -89 -4 -3 -9 0 -11 7 -3 6 -9 12 -15
12 -6 0 -7 -7 -4 -16 6 -16 -22 -74 -36 -74 -14 0 -9 23 9 44 10 12 14 18 9
14 -5 -4 -15 4 -23 18 -17 34 -17 37 7 29 15 -5 20 -2 20 10 0 28 -33 75 -52
75 -22 0 -23 -18 -2 -42 14 -14 14 -20 4 -33 -18 -22 -28 -18 -23 8 7 33 -19
52 -49 36 -13 -6 -32 -19 -43 -29 -11 -10 -27 -20 -35 -23 -8 -2 -1 -2 15 0
54 8 58 8 62 -4 3 -8 -11 -13 -38 -15 -24 -2 -44 -9 -47 -16 -3 -11 -1 -11 17
-1 16 11 23 11 33 1 9 -9 7 -12 -10 -12 -13 0 -33 -7 -47 -16 -21 -14 -24 -14
-34 3 -9 16 -10 16 -8 -4 1 -13 7 -23 15 -23 9 0 11 -7 7 -19 -5 -16 -2 -18
14 -14 12 3 18 9 15 14 -3 5 5 9 17 9 18 0 19 -2 9 -15 -7 -8 -9 -15 -4 -16 5
-1 -7 -5 -26 -9 -26 -6 -37 -5 -43 6 -4 8 -20 14 -35 14 -25 1 -25 2 -9 14 19
15 24 52 5 40 -8 -5 -9 -2 -4 11 6 17 5 18 -11 3 -10 -8 -34 -18 -54 -22 -32
-6 -36 -9 -31 -31 4 -21 -2 -27 -36 -40 -41 -17 -52 -35 -52 -88 0 -16 4 -26
10 -22 6 3 10 2 10 -4 0 -5 -4 -11 -10 -13 -5 -1 -21 -39 -34 -83 -15 -51 -29
-80 -37 -79 -8 1 -23 3 -33 5 -23 5 -46 -32 -46 -74 0 -23 7 -31 38 -44 20 -9
31 -18 24 -20 -25 -9 -72 19 -78 46 -3 14 -7 31 -9 38 -2 6 -34 14 -72 18 -37
3 -75 7 -83 8 -8 1 -17 13 -18 27 -2 14 -13 35 -25 48 -11 12 -16 22 -9 22 13
0 52 -48 52 -66 0 -13 20 -18 116 -29 49 -5 52 -4 58 20 6 22 22 30 49 26 4 0
7 6 7 14 0 8 5 15 11 15 6 0 9 7 6 15 -4 8 -2 17 3 20 6 4 10 -2 10 -11 0 -11
3 -14 8 -9 13 15 32 88 32 122 0 69 11 92 51 110 24 10 38 22 35 30 -10 25 6
42 47 48 52 9 57 12 51 29 -9 24 -56 36 -129 34 l-70 -3 -11 50 c-6 28 -19 85
-29 128 -18 83 -13 79 -76 61 -15 -4 -20 -2 -17 7 3 8 15 16 29 17 39 6 42 16
24 95 -18 83 -17 91 36 158 35 44 37 54 7 35 -27 -17 -70 -16 -76 2 -2 6 1 12
7 12 6 0 11 9 11 19 0 26 20 31 48 13 14 -9 22 -10 22 -3 0 6 -7 11 -15 11
-21 0 -19 14 8 55 22 34 37 44 37 25 0 -5 7 -10 15 -10 22 0 18 16 -9 33 -22
15 -25 14 -45 -9 -20 -23 -41 -32 -41 -17 0 4 12 20 28 36 18 20 23 31 15 34
-7 3 -13 9 -13 15 0 15 14 7 64 -40z m-3194 7 c0 -10 -4 -19 -10 -19 -5 0 -10
12 -10 26 0 14 4 23 10 19 6 -3 10 -15 10 -26z m2420 6 c0 -28 -15 -33 -24 -8
-4 9 -1 20 6 25 18 11 18 11 18 -17z m-810 -2 c-1 -12 -90 -51 -96 -42 -2 4
12 17 33 28 40 21 63 26 63 14z m-928 -80 c31 -118 32 -127 13 -120 -13 6 -15
3 -10 -13 4 -11 2 -20 -4 -20 -5 0 -13 17 -16 38 -4 20 -11 50 -16 66 -5 15
-6 32 -3 37 3 5 -2 9 -11 9 -16 0 -15 -19 6 -84 14 -45 11 -62 -15 -74 -18 -8
-23 -16 -19 -31 3 -12 1 -21 -5 -21 -5 0 -12 8 -14 18 -4 15 -12 18 -35 15
-30 -5 -31 -4 -48 67 -18 74 -15 89 23 90 6 0 12 7 12 15 0 19 -9 19 -48 -1
-27 -13 -30 -18 -22 -40 5 -13 6 -24 3 -24 -4 0 -2 -5 4 -11 6 -6 9 -18 6 -25
-3 -8 0 -21 7 -29 16 -20 5 -19 -31 2 -25 15 -31 16 -38 4 -7 -11 -15 -11 -40
-3 -30 11 -31 10 -31 -17 0 -26 -15 -51 -32 -51 -12 0 -10 34 2 46 7 7 3 40
-15 105 -28 105 -29 109 -16 109 5 0 14 -21 21 -47 12 -50 26 -73 42 -73 6 0
2 12 -7 27 -15 23 -15 25 -2 20 9 -3 23 0 31 8 7 8 16 11 20 8 3 -3 12 0 21 7
8 7 15 10 15 7 0 -4 18 0 41 8 23 8 44 13 49 10 4 -2 29 4 56 15 75 30 86 25
106 -47z m1279 45 c22 -27 23 -41 7 -71 -7 -12 -14 -23 -15 -25 -3 -6 -44 19
-64 39 -23 23 -25 33 -5 26 11 -4 13 -1 9 10 -4 10 -2 14 5 9 6 -3 13 3 17 14
8 26 22 25 46 -2z m-749 -25 c-28 -39 -61 -67 -69 -59 -7 7 66 86 80 86 4 0 0
-12 -11 -27z m1060 -48 c6 -29 -7 -43 -16 -19 -9 24 -7 56 3 50 5 -3 11 -17
13 -31z m1321 -1 c31 -17 31 -17 10 -31 -32 -21 -18 -45 42 -72 30 -13 52 -27
50 -32 -5 -7 -229 84 -249 102 -20 18 3 20 34 4 33 -17 49 -10 50 22 0 9 10
18 28 22 2 1 17 -6 35 -15z m-3511 -76 c-9 -9 -15 -9 -24 0 -10 10 -10 15 2
22 20 12 38 -6 22 -22z m1388 22 c0 -5 -10 -10 -22 -10 -19 0 -20 2 -8 10 19
13 30 13 30 0z m-50 -29 c0 -12 -20 -25 -27 -18 -7 7 6 27 18 27 5 0 9 -4 9
-9z m-1799 -18 c13 -16 12 -17 -3 -4 -10 7 -18 15 -18 17 0 8 8 3 21 -13z
m1923 -15 c-8 -13 -74 -38 -97 -36 -12 0 -30 -3 -39 -7 -13 -5 -18 -3 -18 9 0
21 34 38 48 24 16 -16 59 -1 65 22 5 18 8 20 26 9 11 -7 17 -17 15 -21z m2616
22 c0 -5 -6 -10 -12 -10 -7 0 -23 -3 -35 -6 -13 -4 -23 -2 -23 4 0 9 20 17 58
21 6 0 12 -3 12 -9z m-2800 -20 c-19 -13 -30 -13 -30 0 0 6 10 10 23 10 18 0
19 -2 7 -10z m-3102 -12 c7 -7 12 -23 12 -36 0 -17 4 -23 15 -18 20 7 76 -4
70 -15 -3 -4 -22 -5 -41 -2 -34 6 -36 4 -29 -16 9 -30 -13 -27 -25 5 -6 14
-10 37 -10 50 0 16 -5 24 -12 21 -7 -2 -12 -16 -11 -31 2 -23 0 -26 -13 -16
-18 16 -18 29 3 52 19 21 25 22 41 6z m3045 -14 c-27 -20 -39 -17 -18 6 10 11
22 17 27 14 5 -3 1 -12 -9 -20z m610 -4 c-5 -20 -33 -29 -33 -10 0 6 -7 10
-15 10 -8 0 -15 5 -15 10 0 6 15 10 34 10 29 0 33 -3 29 -20z m327 15 c0 -3
-19 -14 -42 -24 -24 -11 -74 -51 -113 -90 l-70 -71 28 -27 c27 -27 27 -27 27
-5 0 13 4 20 10 17 6 -3 10 1 10 9 0 9 6 13 14 10 8 -3 17 -1 21 5 18 30 42
-18 24 -51 -12 -22 -12 -22 41 -3 23 8 64 15 91 15 39 0 49 4 54 20 7 21 25
28 25 10 0 -14 20 -12 52 4 24 13 27 12 31 -4 3 -10 0 -23 -5 -28 -7 -7 3 -12
29 -16 21 -4 43 -10 49 -14 6 -4 46 -56 89 -117 43 -60 83 -113 89 -117 6 -4
7 -10 3 -14 -11 -11 -35 15 -103 113 -36 51 -69 95 -75 98 -17 11 -9 -28 8
-41 21 -14 17 -20 -18 -29 -20 -5 -31 0 -50 19 -13 14 -33 26 -44 26 -18 0
-18 -1 3 -16 23 -16 23 -16 4 -32 -19 -15 -19 -17 20 -54 22 -21 48 -38 59
-38 11 0 38 -9 59 -20 26 -13 49 -18 65 -14 15 4 25 2 25 -4 0 -21 -58 -24
-97 -4 -21 11 -51 22 -68 26 -16 4 -40 19 -51 34 -18 22 -24 24 -37 13 -9 -7
-21 -10 -26 -7 -5 4 -12 2 -16 -4 -3 -5 -15 -10 -25 -10 -22 0 -20 -33 5 -60
8 -9 15 -24 15 -33 0 -9 5 -19 12 -23 7 -4 8 -3 4 4 -5 8 0 12 12 12 11 0 22
-7 26 -15 3 -10 -1 -15 -12 -15 -10 0 -23 -5 -30 -12 -9 -9 -15 -9 -24 0 -14
14 -58 16 -58 3 0 -5 14 -14 30 -21 17 -7 30 -16 30 -21 0 -12 -4 -11 -35 3
-22 10 -28 9 -36 -3 -15 -24 -10 -29 23 -22 20 4 29 3 25 -4 -4 -6 -18 -13
-33 -16 -20 -3 -28 1 -37 20 -6 14 -16 22 -25 18 -7 -3 -18 -5 -23 -5 -5 0 -9
-16 -9 -35 0 -19 -5 -46 -12 -60 -10 -22 -8 -29 12 -50 13 -14 30 -23 36 -21
14 6 27 -21 18 -36 -5 -7 -12 -4 -21 7 -7 11 -13 13 -13 7 0 -7 -4 -12 -10
-12 -5 0 -10 6 -10 14 0 7 -7 20 -16 27 -13 11 -15 25 -9 72 3 32 9 65 12 74
5 13 0 14 -27 8 -25 -5 -31 -4 -28 6 3 8 17 15 31 17 24 3 27 7 27 43 0 28 4
39 15 39 8 0 15 7 15 16 0 11 6 15 20 11 15 -4 20 0 20 13 0 11 4 22 10 25 14
9 -11 44 -27 38 -9 -4 -13 4 -13 25 0 26 -7 35 -42 56 -42 25 -42 25 -61 6
-10 -11 -22 -20 -27 -20 -6 0 -10 -4 -10 -10 0 -5 25 -10 55 -10 30 0 55 -4
55 -10 0 -6 -26 -10 -57 -10 -46 1 -64 6 -87 24 -16 13 -26 28 -22 34 3 6 2
13 -4 17 -16 10 -12 28 6 21 8 -3 12 -2 9 4 -3 6 -1 10 4 10 6 0 11 5 11 11 0
8 -5 7 -15 -1 -12 -10 -19 -10 -27 -2 -9 9 -7 15 6 25 16 11 17 17 7 36 l-12
22 -38 -30 c-21 -17 -44 -37 -51 -46 -7 -8 -17 -15 -24 -15 -17 0 214 229 263
261 40 26 81 38 81 24z m-1220 -25 c6 -11 7 -20 2 -20 -10 0 -32 21 -32 32 0
16 19 8 30 -12z m930 5 c0 -8 -4 -15 -10 -15 -5 0 -10 7 -10 15 0 8 5 15 10
15 6 0 10 -7 10 -15z m963 -37 c-1 -18 3 -25 11 -22 15 6 30 -36 17 -49 -4 -4
-14 -1 -21 8 -7 8 -19 15 -26 15 -8 0 -15 9 -15 20 -1 11 -2 26 -3 33 -3 19 5
28 22 25 11 -3 16 -13 15 -30z m-649 -24 c3 -9 6 -23 6 -32 -1 -15 -3 -14 -15
2 -17 22 -20 46 -6 46 5 0 12 -7 15 -16z m-1311 -68 c-7 -11 -42 34 -43 54 0
9 10 3 24 -15 13 -16 22 -34 19 -39z m-600 47 c-7 -2 -19 -2 -25 0 -7 3 -2 5
12 5 14 0 19 -2 13 -5z m1187 -52 c12 -24 13 -31 2 -31 -5 0 -14 11 -20 25
-14 29 2 34 18 6z m420 -4 c0 -13 -7 -32 -16 -43 -15 -18 -15 -18 -10 6 3 14
6 33 6 43 0 9 5 17 10 17 6 0 10 -10 10 -23z m1635 -17 c5 8 11 5 19 -12 6
-12 17 -23 24 -23 7 0 12 -3 12 -7 0 -5 0 -12 0 -18 0 -16 -64 -39 -72 -26
-12 18 -9 29 7 22 26 -9 17 27 -12 48 -25 19 -26 19 -39 1 -8 -10 -17 -15 -21
-12 -3 4 4 19 17 32 l24 26 17 -22 c12 -16 18 -18 24 -9z m-1675 -20 c0 -4 -7
-13 -15 -20 -12 -10 -13 -15 -4 -21 8 -4 4 -11 -12 -20 -13 -6 -30 -18 -37
-26 -19 -18 -29 -16 -46 10 -21 31 -10 63 25 77 23 10 32 10 44 0 13 -11 14
-10 9 3 -4 12 -1 14 15 10 12 -3 21 -9 21 -13z m1655 -10 c3 -5 -1 -10 -9 -10
-8 0 -18 5 -21 10 -3 6 1 10 9 10 8 0 18 -4 21 -10z m-695 -64 c0 -21 -11 -25
-38 -15 -28 11 -20 29 14 29 14 0 24 -6 24 -14z m1287 -48 c109 -47 144 -68
113 -68 -15 0 -232 98 -244 110 -19 19 10 10 131 -42z m-3001 -6 c-10 -10 -29
15 -21 28 6 9 10 8 17 -4 6 -10 7 -20 4 -24z m2504 1 c0 -22 -2 -25 -10 -13
-13 20 -13 40 0 40 6 0 10 -12 10 -27z m389 -88 c21 -144 23 -171 12 -160 -12
12 -51 256 -43 269 8 15 19 -21 31 -109z m-4137 55 c-12 -12 -22 -17 -22 -13
0 4 -6 -3 -13 -16 -6 -14 -18 -26 -25 -29 -10 -3 -8 4 5 24 11 18 13 25 4 20
-9 -6 -12 -5 -9 5 4 14 69 41 77 33 3 -2 -5 -13 -17 -24z m73 20 c3 -5 -3 -10
-14 -10 -12 0 -21 5 -21 10 0 6 6 10 14 10 8 0 18 -4 21 -10z m683 -1 c-2 -6
-8 -10 -13 -10 -5 0 -11 4 -13 10 -2 6 4 11 13 11 9 0 15 -5 13 -11z m-628
-21 c0 -13 -23 -5 -28 10 -2 7 2 10 12 6 9 -3 16 -11 16 -16z m4990 12 c-20
-13 -40 -13 -40 0 0 6 12 10 28 10 21 0 24 -2 12 -10z m-4221 -9 c13 -8 8 -31
-7 -31 -17 1 -34 19 -28 29 9 13 16 14 35 2z m341 -12 c0 -5 -4 -9 -10 -9 -5
0 -10 7 -10 16 0 8 5 12 10 9 6 -3 10 -10 10 -16z m-1050 -16 c16 -19 15 -53
-1 -53 -5 0 -9 9 -9 21 0 11 -4 18 -8 15 -13 -8 -35 11 -28 23 10 16 29 13 46
-6z m774 -4 c14 -11 24 -24 21 -29 -4 -6 -43 2 -73 16 -6 3 11 34 18 34 4 0
19 -9 34 -21z m4136 6 c0 -9 11 -20 25 -25 30 -11 34 -25 5 -17 -11 3 -20 1
-20 -4 0 -5 -5 -9 -11 -9 -5 0 -9 8 -7 18 2 11 -3 26 -11 35 -12 15 -11 17 3
17 9 0 16 -7 16 -15z m-5180 -15 c-11 -20 -30 -28 -30 -12 0 11 22 32 32 32 5
0 4 -9 -2 -20z m4040 -30 c0 -16 -4 -30 -10 -30 -5 0 -10 14 -10 30 0 17 5 30
10 30 6 0 10 -13 10 -30z m-2355 11 c10 -17 -10 -20 -35 -5 l-25 13 27 1 c15
0 29 -4 33 -9z m-1725 -31 c0 -11 -4 -20 -9 -20 -5 0 -7 9 -4 20 3 11 7 20 9
20 2 0 4 -9 4 -20z m5325 10 c-3 -5 -12 -10 -20 -10 -8 0 -17 5 -20 10 -4 6 5
10 20 10 15 0 24 -4 20 -10z m-2755 -25 c-7 -8 -17 -15 -22 -15 -6 0 -5 7 2
15 7 8 17 15 22 15 6 0 5 -7 -2 -15z m2800 0 c14 -16 10 -18 -14 -9 -9 3 -16
10 -16 15 0 14 16 11 30 -6z m-5334 -30 c-11 -11 -23 -14 -34 -9 -15 6 -14 8
6 11 12 3 22 12 22 21 0 12 3 13 11 5 9 -9 7 -16 -5 -28z m3838 19 c9 -22 -3
-32 -14 -14 -12 19 -12 30 -1 30 5 0 12 -7 15 -16z m1383 1 c9 -25 -4 -29 -17
-6 -7 15 -7 21 0 21 6 0 13 -7 17 -15z m-2207 -79 l0 -84 -72 -12 c-40 -6 -78
-13 -85 -15 -7 -2 -15 0 -18 5 -6 10 12 16 75 25 83 12 80 8 80 91 0 43 4 74
10 74 6 0 10 -35 10 -84z m2370 69 c0 -8 -4 -15 -9 -15 -5 0 -11 7 -15 15 -3
9 0 15 9 15 8 0 15 -7 15 -15z m-7462 -14 c3 -10 0 -12 -12 -8 -21 8 -21 -7 0
-24 15 -12 32 -17 77 -21 9 -1 17 -6 17 -10 0 -4 20 -5 45 -1 31 4 45 2 45 -6
0 -6 -12 -11 -27 -12 -58 -1 -68 -12 -68 -70 0 -44 -3 -54 -19 -57 -16 -3 -18
0 -12 22 4 16 2 26 -5 26 -14 0 -39 -25 -39 -39 0 -6 -6 -11 -12 -12 -10 0
-10 -2 0 -6 21 -8 13 -25 -10 -21 -25 3 -34 43 -16 66 7 8 7 12 0 12 -5 0 -15
14 -22 30 -9 23 -16 28 -25 20 -28 -23 -55 10 -55 68 0 18 5 22 33 22 21 0 41
8 52 20 21 23 46 23 53 1z m1412 9 c0 -5 -12 -10 -26 -10 -14 0 -23 4 -19 10
3 6 15 10 26 10 10 0 19 -4 19 -10z m496 -5 c6 -15 -17 -45 -34 -45 -6 0 -13
7 -16 16 -4 11 -2 15 8 11 10 -4 12 0 9 14 -6 23 25 27 33 4z m5484 -16 c33
-27 42 -30 55 -19 13 10 15 9 15 -8 0 -32 -12 -33 -55 -1 -59 43 -64 44 -91
19 -25 -24 -33 -17 -11 11 10 13 27 24 45 28 2 1 21 -13 42 -30z m-6630 0 c0
-11 -4 -17 -10 -14 -5 3 -10 13 -10 21 0 8 5 14 10 14 6 0 10 -9 10 -21z m585
11 c-3 -5 -13 -10 -21 -10 -8 0 -12 5 -9 10 3 6 13 10 21 10 8 0 12 -4 9 -10z
m760 -40 c1 -18 -3 -30 -10 -30 -17 0 -27 41 -13 57 14 18 21 10 23 -27z
m-850 20 c3 -5 1 -10 -4 -10 -6 0 -11 5 -11 10 0 6 2 10 4 10 3 0 8 -4 11 -10z
m3145 6 c0 -3 -4 -8 -10 -11 -5 -3 -10 -1 -10 4 0 6 5 11 10 11 6 0 10 -2 10
-4z m-1162 -19 c29 0 53 -7 64 -17 12 -11 29 -15 46 -12 21 4 25 2 15 -8 -9
-10 -30 -10 -105 -1 -84 11 -107 20 -108 44 0 5 9 5 21 2 11 -4 41 -7 67 -8z
m-1064 -31 c-6 -16 -24 -23 -24 -8 0 10 22 33 27 28 2 -2 1 -11 -3 -20z m2526
15 c0 -5 -9 -7 -20 -4 -11 3 -20 7 -20 9 0 2 9 4 20 4 11 0 20 -4 20 -9z
m1168 -3 c-2 -6 -10 -14 -16 -16 -7 -2 -10 2 -6 12 7 18 28 22 22 4z m-5232
-13 c4 -8 16 -15 28 -16 19 -1 18 -2 -4 -8 -30 -9 -36 -7 -43 19 -6 23 11 28
19 5z m137 -5 c3 -10 0 -21 -7 -24 -7 -3 -5 -9 7 -16 18 -12 24 -40 7 -40 -6
0 -8 -10 -4 -24 3 -13 1 -27 -5 -30 -6 -4 -11 -2 -11 3 0 6 -5 11 -10 11 -7 0
-7 -6 -1 -18 7 -13 6 -23 -1 -30 -17 -17 -31 -15 -24 3 3 9 0 15 -9 15 -8 0
-15 5 -15 11 0 5 -5 7 -12 3 -9 -6 -9 -9 0 -12 20 -6 14 -22 -9 -22 -15 0 -19
5 -15 15 4 10 -1 15 -15 15 -11 0 -18 -4 -15 -9 8 -12 -20 -22 -41 -14 -11 4
-14 3 -9 -5 7 -11 2 -14 -34 -16 -8 -1 -15 -6 -15 -11 0 -20 -17 -36 -32 -31
-11 4 -13 2 -9 -9 8 -21 -3 -45 -20 -45 -16 0 -19 -16 -4 -25 6 -3 10 -13 10
-21 0 -8 -4 -12 -10 -9 -5 3 -10 1 -10 -4 0 -6 -4 -11 -10 -11 -5 0 -10 9 -10
20 0 11 5 20 12 20 9 0 9 3 1 11 -15 15 -4 51 14 45 10 -4 13 -1 8 13 -3 10 1
24 10 31 8 7 15 9 15 4 0 -5 6 2 13 16 8 14 19 24 26 22 7 -1 19 5 28 13 8 9
23 13 32 10 12 -3 22 3 31 20 16 29 30 33 30 8 0 -13 2 -15 8 -5 9 13 42 6 42
-9 0 -17 19 -9 25 11 3 11 13 27 21 35 14 13 14 17 0 31 -9 8 -16 20 -16 25 0
5 -12 9 -27 9 -21 0 -24 3 -15 12 10 10 17 10 32 0 27 -17 32 -15 25 8 -3 11
-2 20 3 20 5 0 12 -9 15 -20z m3475 -14 c7 -16 11 -30 10 -32 -7 -7 -58 47
-53 56 10 17 29 6 43 -24z m538 8 c-2 -6 1 -11 7 -11 31 1 47 -4 47 -14 0 -6
-8 -8 -19 -4 -16 5 -18 2 -14 -15 5 -20 23 -28 23 -10 0 17 17 11 24 -7 3 -10
9 -24 12 -30 4 -8 -8 -15 -36 -19 -43 -7 -90 -37 -90 -58 0 -7 13 -25 30 -41
26 -24 33 -27 52 -17 13 6 32 13 43 15 19 5 19 5 -1 6 -21 1 -77 51 -57 51 6
0 16 -7 23 -15 8 -9 30 -15 56 -15 24 0 44 -4 44 -10 0 -13 -34 -30 -63 -30
-14 0 -27 -7 -31 -15 -3 -8 -14 -15 -24 -15 -13 0 -23 -12 -32 -40 -7 -22 -17
-40 -22 -40 -12 0 -10 16 7 56 14 35 14 36 -15 61 -31 26 -39 60 -18 81 9 9 8
12 -7 12 -17 0 -17 2 -5 10 8 5 22 7 32 4 9 -2 19 0 23 6 3 5 16 10 27 10 20
0 19 2 -6 25 -15 14 -24 30 -21 35 3 6 1 10 -5 10 -7 0 -10 -7 -6 -15 6 -18 2
-19 -25 -4 -12 6 -18 17 -15 25 3 8 1 14 -4 14 -6 0 -10 3 -10 8 0 4 18 7 40
7 26 0 39 -4 36 -11z m1034 6 c8 -5 12 -12 9 -15 -8 -8 -39 5 -39 16 0 11 11
11 30 -1z m-5560 -10 c0 -5 -5 -10 -11 -10 -5 0 -7 5 -4 10 3 6 8 10 11 10 2
0 4 -4 4 -10z m970 6 c0 -3 -4 -8 -10 -11 -5 -3 -10 -1 -10 4 0 6 5 11 10 11
6 0 10 -2 10 -4z m3470 -17 c7 -11 10 -23 7 -25 -9 -9 -35 8 -40 27 -7 26 19
25 33 -2z m-2563 -6 c3 -7 -4 -9 -16 -6 -12 3 -18 9 -15 15 7 11 26 6 31 -9z
m2508 -3 c-3 -5 -13 -10 -21 -10 -8 0 -14 5 -14 10 0 6 9 10 21 10 11 0 17 -4
14 -10z m1165 -15 c14 -16 10 -18 -14 -9 -9 3 -16 10 -16 15 0 14 16 11 30 -6z
m-5160 -16 c0 -11 -4 -17 -10 -14 -5 3 -10 13 -10 21 0 8 5 14 10 14 6 0 10
-9 10 -21z m5293 1 c-3 -11 -9 -20 -13 -20 -5 0 -6 9 -3 20 3 11 9 20 13 20 5
0 6 -9 3 -20z m-1193 -18 l25 -11 -25 -1 c-26 0 -85 -39 -61 -40 11 0 11 -3 1
-15 -14 -17 -35 -21 -24 -4 9 16 -38 -11 -54 -30 -10 -12 -15 -13 -18 -3 -3 6
-12 12 -19 12 -8 0 -11 7 -8 19 3 13 -1 21 -14 24 -12 3 -10 5 9 6 28 1 50 22
30 29 -23 7 -12 22 12 18 14 -2 30 1 36 8 11 14 62 8 110 -12z m1148 -15 c-10
-20 -10 -21 5 -8 15 12 17 11 17 -7 0 -11 -8 -22 -20 -25 -14 -3 -19 -12 -18
-27 2 -13 -1 -24 -7 -26 -12 -5 -17 47 -5 61 4 6 10 23 14 38 4 15 11 25 16
22 6 -4 6 -14 -2 -28z m-108 13 c8 -5 12 -12 9 -15 -8 -8 -39 5 -39 16 0 11
11 11 30 -1z m68 -8 c2 -7 -2 -10 -12 -6 -9 3 -16 11 -16 16 0 13 23 5 28 -10z
m392 -39 c0 -18 -5 -24 -17 -21 -19 4 -28 30 -19 55 9 23 36 -3 36 -34z m-505
18 c-3 -6 -13 -11 -22 -11 -9 0 -13 -6 -9 -15 4 -11 -1 -15 -19 -15 -16 0 -25
-6 -25 -15 0 -8 -4 -15 -10 -15 -5 0 -10 12 -10 26 0 14 4 23 10 19 6 -3 10 1
10 11 0 11 6 15 18 12 10 -3 27 1 37 8 20 15 31 12 20 -5z m-1265 -11 c0 -11
-4 -20 -10 -20 -5 0 -10 9 -10 20 0 11 5 20 10 20 6 0 10 -9 10 -20z m1296
-17 c-11 -11 -19 6 -11 24 8 17 8 17 12 0 3 -10 2 -21 -1 -24z m-596 12 c0
-17 -2 -18 -24 -9 -23 9 -20 24 4 24 11 0 20 -7 20 -15z m628 -17 c-11 -35
-34 -65 -42 -57 -7 7 34 89 45 89 4 0 3 -15 -3 -32z m-168 12 c0 -5 -9 -10
-21 -10 -11 0 -17 5 -14 10 3 6 13 10 21 10 8 0 14 -4 14 -10z m-3180 -7 c-1
-18 -30 -44 -40 -38 -8 5 -6 13 6 26 17 19 34 25 34 12z m130 -29 c0 -8 -6
-14 -14 -14 -9 0 -12 7 -9 20 6 22 23 18 23 -6z m2998 14 c-3 -7 -15 -14 -29
-16 -23 -2 -23 -2 -5 13 24 18 39 20 34 3z m342 -14 c0 -8 -6 -14 -14 -14 -12
0 -14 10 -7 38 3 10 21 -11 21 -24z m-1453 -9 c0 -8 -4 -15 -8 -15 -11 0 -20
16 -12 24 11 11 20 7 20 -9z m1283 8 c-2 -28 -60 -60 -60 -33 0 6 7 10 15 10
9 0 18 7 21 15 6 15 24 21 24 8z m-1118 -25 c-6 -6 -15 -8 -19 -4 -4 4 -1 11
7 16 19 12 27 3 12 -12z m988 12 c0 -5 -9 -10 -20 -10 -11 0 -20 5 -20 10 0 6
9 10 20 10 11 0 20 -4 20 -10z m1325 0 c-3 -5 -11 -10 -16 -10 -6 0 -7 5 -4
10 3 6 11 10 16 10 6 0 7 -4 4 -10z m-4155 -10 c0 -5 -8 -10 -17 -10 -15 0
-16 2 -3 10 19 12 20 12 20 0z m2722 -22 c-4 -29 -6 -30 -18 -13 -14 18 -14
18 -14 -1 0 -12 -7 -21 -15 -21 -21 0 -19 17 7 44 31 33 45 29 40 -9z m-4594
2 c-7 -10 -14 -17 -17 -15 -4 4 18 35 25 35 2 0 -1 -9 -8 -20z m1948 -4 c10
-8 16 -18 12 -22 -4 -4 -3 -13 2 -19 8 -9 6 -14 -5 -18 -8 -4 -14 -3 -14 1 2
15 -14 52 -22 52 -5 0 -9 5 -9 10 0 14 13 12 36 -4z m1631 -1 c9 -25 -2 -27
-22 -5 -17 18 -17 20 -1 20 9 0 19 -7 23 -15z m92 -6 c-22 -14 -33 -10 -19 6
7 8 17 12 22 9 6 -4 5 -10 -3 -15z m1229 3 c2 -7 -2 -10 -12 -6 -9 3 -16 11
-16 16 0 13 23 5 28 -10z m77 -1 c-3 -6 -11 -11 -17 -11 -6 0 -6 6 2 15 14 17
26 13 15 -4z m-1585 -11 c13 -8 12 -11 -5 -24 -29 -22 -45 -19 -45 9 0 27 22
33 50 15z m-3275 -10 c4 -6 -5 -10 -20 -10 -15 0 -24 4 -20 10 3 6 12 10 20
10 8 0 17 -4 20 -10z m4825 -5 c0 -8 3 -14 8 -14 18 3 32 -2 32 -11 0 -6 -12
-8 -27 -5 -23 5 -25 4 -10 -5 22 -14 22 -30 -1 -30 -11 0 -27 -9 -37 -20 -10
-11 -26 -20 -36 -20 -10 0 -21 -5 -25 -11 -3 -6 -17 -8 -30 -5 -17 5 -24 2
-24 -9 0 -8 -4 -15 -10 -15 -5 0 -10 9 -10 19 0 21 22 33 44 25 8 -3 17 -1 21
5 3 6 17 11 31 11 13 0 24 4 24 9 0 5 8 17 18 27 16 17 16 17 -5 12 -29 -8
-40 9 -19 30 15 15 16 15 16 -1 0 -9 5 -17 10 -17 9 0 14 14 11 33 0 4 4 7 9
7 6 0 10 -7 10 -15z m-1315 -5 c-3 -5 -13 -10 -21 -10 -8 0 -14 5 -14 10 0 6
9 10 21 10 11 0 17 -4 14 -10z m-1615 -39 c0 -5 -7 -14 -15 -21 -12 -10 -15
-10 -15 2 0 8 3 18 7 21 9 10 23 9 23 -2z m2846 -16 c-11 -8 -22 -12 -25 -9
-6 6 19 24 34 24 6 -1 1 -7 -9 -15z m161 -1 c1 -5 -1 -15 -6 -23 -8 -12 -12
-12 -25 -2 -9 8 -16 18 -16 23 0 6 7 5 15 -2 13 -11 14 -10 9 5 -5 12 -3 16 6
13 8 -2 15 -8 17 -14z m1423 6 c0 -5 -7 -10 -15 -10 -18 0 -19 -14 -5 -41 8
-13 7 -19 0 -19 -6 0 -15 11 -20 25 -5 14 -14 25 -20 25 -22 0 -8 19 18 23 15
2 30 5 35 6 4 0 7 -3 7 -9z m-4390 -10 c8 -5 11 -12 7 -16 -4 -4 -15 0 -24 9
-18 18 -8 23 17 7z m1017 -62 c19 -20 22 -28 12 -28 -9 0 -26 11 -38 24 -13
14 -39 32 -57 41 -19 9 -32 21 -29 26 8 12 76 -26 112 -63z m2113 68 c0 -2 -7
-9 -15 -16 -13 -11 -14 -10 -9 4 5 14 24 23 24 12z m-3072 -24 c2 -7 -2 -10
-12 -6 -9 3 -16 11 -16 16 0 13 23 5 28 -10z m2697 8 c-3 -5 -10 -10 -16 -10
-5 0 -9 5 -9 10 0 6 7 10 16 10 8 0 12 -4 9 -10z m310 -13 c11 -3 22 -6 25 -7
3 0 -3 -5 -13 -11 -13 -8 -22 -7 -32 1 -8 7 -26 9 -40 6 -19 -5 -25 -2 -25 10
0 16 24 16 85 1z m-2957 -23 c18 -8 34 -19 37 -25 4 -5 15 -9 27 -9 14 0 18
-5 14 -16 -3 -9 -6 -22 -6 -30 0 -8 -4 -14 -10 -14 -5 0 -10 6 -10 14 0 7 -15
19 -32 27 -60 24 -80 40 -67 55 14 17 10 17 47 -2z m-2226 -16 c-7 -7 -12 -8
-12 -2 0 14 12 26 19 19 2 -3 -1 -11 -7 -17z m3437 -16 c27 -35 71 -129 71
-153 0 -23 -20 4 -34 49 -9 26 -32 67 -51 91 -38 47 -40 51 -26 51 5 0 23 -17
40 -38z m491 18 c0 -5 -7 -10 -15 -10 -8 0 -15 5 -15 10 0 6 7 10 15 10 8 0
15 -4 15 -10z m-4330 -22 c0 -18 -2 -20 -9 -8 -6 8 -7 18 -5 22 9 14 14 9 14
-14z m2740 12 c0 -5 -4 -10 -10 -10 -5 0 -10 5 -10 10 0 6 5 10 10 10 6 0 10
-4 10 -10z m140 -34 c0 -8 -4 -18 -10 -21 -5 -3 -10 3 -10 14 0 12 5 21 10 21
6 0 10 -6 10 -14z m2270 -1 c6 -8 9 -19 5 -25 -7 -11 -34 15 -35 33 0 12 17 8
30 -8z m118 -26 c-29 -7 -31 -5 -23 21 7 21 7 21 27 3 20 -18 20 -18 -4 -24z
m-5261 -9 c-1 -11 -5 -20 -9 -20 -4 0 -8 9 -8 20 0 11 4 20 9 20 6 0 9 -9 8
-20z m1147 -15 c-6 -16 -24 -21 -24 -7 0 11 11 22 21 22 5 0 6 -7 3 -15z m192
-43 c12 -29 12 -37 2 -44 -23 -14 -45 -9 -69 16 -17 17 -28 22 -40 16 -13 -7
-16 -3 -16 21 0 20 4 28 13 25 8 -3 26 1 41 9 33 17 47 8 69 -43z m1513 51 c0
-5 -4 -17 -9 -28 -8 -18 -9 -17 -9 8 -1 15 4 27 9 27 6 0 10 -3 9 -7z m331
-22 c0 -31 -13 -47 -30 -36 -8 5 -7 11 1 21 6 7 9 21 5 29 -3 9 0 15 9 15 10
0 15 -10 15 -29z m2045 19 c4 -6 -5 -10 -20 -10 -15 0 -24 4 -20 10 3 6 12 10
20 10 8 0 17 -4 20 -10z m-2019 -37 c-11 -11 -19 6 -11 24 8 17 8 17 12 0 3
-10 2 -21 -1 -24z m1964 28 c0 -5 -7 -14 -15 -21 -16 -14 -18 -10 -9 14 6 17
24 22 24 7z m-42 -13 c-2 -6 -10 -14 -16 -16 -7 -2 -10 2 -6 12 7 18 28 22 22
4z m-5115 -28 c3 -11 1 -20 -4 -20 -5 0 -9 2 -9 4 0 2 -3 11 -6 20 -3 9 -2 16
4 16 5 0 12 -9 15 -20z m3237 1 c0 -14 -18 -23 -30 -16 -6 4 -8 11 -5 16 8 12
35 12 35 0z m-836 -25 c35 -31 33 -40 -4 -21 -16 9 -30 22 -30 30 0 20 5 19
34 -9z m769 -1 c-22 -17 -30 -11 -13 10 7 8 17 12 22 9 5 -3 1 -12 -9 -19z
m1957 16 c0 -5 -7 -14 -15 -21 -16 -14 -18 -10 -9 14 6 17 24 22 24 7z m-1640
-11 c0 -13 -20 -13 -40 0 -12 8 -9 10 13 10 15 0 27 -4 27 -10z m1597 -10 c-3
-11 -1 -22 4 -25 9 -6 1 -35 -11 -35 -6 0 -7 67 -1 78 6 11 12 -2 8 -18z m711
-15 c1 -19 8 -48 17 -64 17 -34 18 -41 7 -41 -14 0 -42 69 -42 105 0 46 16 45
18 0z m-3490 -16 c-7 -5 -22 -9 -33 -8 -17 0 -16 3 10 24 25 21 31 22 33 9 2
-9 -2 -20 -10 -25z m-2284 5 c4 -10 1 -14 -6 -12 -15 5 -23 28 -10 28 5 0 13
-7 16 -16z m3109 9 c-7 -2 -21 -2 -30 0 -10 3 -4 5 12 5 17 0 24 -2 18 -5z
m777 -34 c0 -11 -4 -17 -10 -14 -5 3 -10 15 -10 26 0 11 5 17 10 14 6 -3 10
-15 10 -26z m-705 11 c-3 -5 -15 -10 -26 -10 -10 0 -19 -7 -19 -15 0 -9 -9
-15 -25 -15 -27 0 -32 12 -12 28 23 19 93 29 82 12z m1853 -15 c0 -20 -6 -25
-27 -25 -27 -1 -71 -30 -71 -48 0 -5 -6 -15 -14 -21 -11 -9 -13 -6 -13 14 0
13 6 30 13 36 8 6 14 9 14 5 0 -3 9 3 20 14 12 12 25 18 30 15 5 -3 15 3 22
15 17 27 26 25 26 -5z m-4921 -11 c-3 -3 -12 -4 -19 -1 -8 3 -5 6 6 6 11 1 17
-2 13 -5z m3803 -117 c0 -60 5 -79 37 -143 l38 -75 37 6 c52 9 50 -11 -2 -25
-43 -12 -60 -7 -60 15 0 7 -15 46 -34 86 -28 61 -35 89 -39 158 -3 72 -2 81
10 66 8 -12 13 -46 13 -88z m873 63 c-4 -17 -23 -29 -23 -16 0 2 -3 11 -6 20
-4 11 0 16 14 16 15 0 19 -5 15 -20z m107 -29 c0 -5 -7 -12 -16 -15 -24 -9
-28 -7 -14 9 14 17 30 20 30 6z m415 -1 c-3 -5 -13 -10 -21 -10 -8 0 -14 5
-14 10 0 6 9 10 21 10 11 0 17 -4 14 -10z m60 0 c-3 -5 -12 -10 -20 -10 -8 0
-17 5 -20 10 -4 6 5 10 20 10 15 0 24 -4 20 -10z m-125 -10 c-19 -13 -30 -13
-30 0 0 6 10 10 23 10 18 0 19 -2 7 -10z m-60 -10 c-19 -13 -30 -13 -30 0 0 6
10 10 23 10 18 0 19 -2 7 -10z m-285 -17 c-4 -10 -10 -26 -12 -35 -6 -19 -33
-25 -33 -8 0 6 4 10 10 10 5 0 12 11 16 25 3 14 11 25 16 25 6 0 7 -8 3 -17z
m165 -3 c-19 -12 -30 -12 -30 -1 0 10 31 20 40 14 2 -2 -2 -8 -10 -13z m70 16
c0 -2 -9 -6 -20 -9 -11 -3 -20 -1 -20 4 0 5 9 9 20 9 11 0 20 -2 20 -4z m345
-6 c5 -8 11 -8 20 0 15 12 76 6 107 -12 l23 -13 -25 -3 c-13 -2 -26 1 -28 7
-2 6 -8 11 -13 11 -6 0 -8 -4 -5 -9 3 -5 0 -11 -7 -14 -18 -7 -67 3 -67 14 0
5 -6 9 -14 9 -8 0 -18 5 -21 10 -3 6 1 10 9 10 8 0 18 -5 21 -10z m-475 -30
c-19 -12 -30 -12 -30 -1 0 10 31 20 40 14 2 -2 -2 -8 -10 -13z m-57 -26 c-27
-20 -39 -17 -18 6 10 11 22 17 27 14 5 -3 1 -12 -9 -20z m-92 -88 c-38 -39
-42 -46 -31 -66 15 -29 5 -38 -19 -16 -21 19 -14 28 -117 -159 -48 -88 -120
-180 -173 -223 -53 -43 -195 -93 -177 -63 3 5 29 14 56 21 115 28 195 117 339
382 l42 77 -37 41 c-43 48 -37 52 16 9 l39 -31 29 20 c16 12 35 28 42 37 7 8
17 15 23 15 6 0 -8 -20 -32 -44z m973 -27 c47 -38 86 -72 86 -75 0 -12 -23 2
-95 61 -44 36 -86 65 -92 65 -7 0 -13 5 -13 10 0 24 34 6 114 -61z m-5266 -11
c-1 -7 3 -27 11 -45 12 -29 16 -31 45 -26 38 7 25 -11 -15 -21 -23 -5 -28 -1
-44 35 -10 22 -22 42 -27 45 -5 3 -32 -9 -61 -27 -83 -51 -177 -50 -190 2 -6
23 2 24 18 2 11 -15 16 -15 63 0 59 20 65 20 57 7 -3 -5 -20 -14 -38 -19 l-32
-9 29 -1 c16 -1 50 12 76 28 41 25 59 32 103 40 4 0 7 -5 5 -11z m1942 2 c0
-5 -4 -10 -10 -10 -5 0 -10 5 -10 10 0 6 5 10 10 10 6 0 10 -4 10 -10z m1930
-75 c0 -8 -4 -17 -10 -20 -6 -4 -10 5 -10 20 0 15 4 24 10 20 6 -3 10 -12 10
-20z m-607 -121 c44 -160 86 -239 179 -334 50 -52 77 -71 133 -92 39 -16 78
-28 87 -28 8 0 21 -6 27 -14 10 -12 6 -13 -22 -6 -19 4 -67 20 -106 35 -63 24
-80 36 -143 106 -94 103 -122 157 -169 319 -42 145 -43 150 -31 150 4 0 24
-61 45 -136z m570 69 c-13 -8 -23 -22 -23 -29 0 -8 -4 -14 -10 -14 -5 0 -10 5
-10 11 0 14 39 49 54 48 6 0 1 -7 -11 -16z m-2003 -12 c0 -17 -12 -41 -21 -41
-10 0 -12 33 -2 43 9 10 23 9 23 -2z m2920 -41 c0 -3 -11 -7 -25 -8 -28 -2
-30 1 -13 27 11 18 13 18 25 3 7 -9 13 -19 13 -22z m-1572 -8 c2 -7 -2 -10
-10 -7 -9 4 -19 -4 -26 -20 -7 -14 -17 -23 -23 -20 -7 5 -7 11 1 20 6 7 7 20
4 30 -6 14 -2 16 21 13 16 -2 30 -9 33 -16z m-4073 -2 c-3 -5 -17 -10 -31 -10
-13 0 -24 5 -24 10 0 6 14 10 31 10 17 0 28 -4 24 -10z m4671 -27 c-4 -4 -11
-1 -16 7 -16 25 -11 35 7 17 9 -9 13 -20 9 -24z m-667 6 c-7 -4 -17 -5 -22 -2
-5 3 -3 9 4 14 7 4 17 5 22 2 5 -3 3 -9 -4 -14z m693 -11 c-9 -9 -12 -7 -12
12 0 19 3 21 12 12 9 -9 9 -15 0 -24z m796 -8 c9 -15 9 -20 0 -20 -6 0 -20 -7
-30 -17 -17 -15 -18 -15 -18 0 0 10 -6 17 -12 18 -7 0 -3 4 10 9 12 5 22 14
22 20 0 16 14 11 28 -10z m-1421 -22 c-3 -7 -5 -2 -5 12 0 14 2 19 5 13 2 -7
2 -19 0 -25z m-89 5 c-2 -9 -8 -18 -15 -20 -7 -3 -9 3 -6 16 6 25 26 28 21 4z
m29 -23 c-3 -11 -1 -23 4 -26 5 -3 9 -13 9 -22 -1 -14 -4 -13 -19 5 -19 23
-18 63 1 63 6 0 8 -9 5 -20z m-172 -11 c12 -19 -5 -23 -22 -6 -16 16 -16 17
-1 17 9 0 20 -5 23 -11z m255 -23 c0 -28 -24 -50 -46 -42 -20 8 -9 26 17 26
16 0 18 5 13 26 -5 19 -4 25 5 20 6 -4 11 -18 11 -30z m-110 -6 c0 -10 -31
-22 -38 -16 -2 3 -2 12 1 20 6 15 37 12 37 -4z m-250 -16 c0 -14 -4 -23 -10
-19 -5 3 -10 15 -10 26 0 10 5 19 10 19 6 0 10 -12 10 -26z m150 16 c12 -8 11
-10 -7 -10 -13 0 -23 5 -23 10 0 13 11 13 30 0z m53 -51 c-7 -27 -16 -16 -19
23 -3 30 -2 31 10 15 8 -10 12 -27 9 -38z m-1743 11 c0 -5 -2 -10 -4 -10 -3 0
-8 5 -11 10 -3 6 -1 10 4 10 6 0 11 -4 11 -10z m1645 0 c-3 -5 -17 -10 -31
-10 -13 0 -24 5 -24 10 0 6 14 10 31 10 17 0 28 -4 24 -10z m-75 -9 c0 -5 -7
-12 -16 -15 -24 -9 -28 -7 -14 9 14 17 30 20 30 6z m260 0 c0 -11 -31 -24 -39
-16 -3 3 1 10 9 15 19 12 30 12 30 1z m-155 -21 c3 -5 -1 -10 -9 -10 -8 0 -18
5 -21 10 -3 6 1 10 9 10 8 0 18 -4 21 -10z m195 -5 c-7 -8 -17 -15 -22 -15 -6
0 -5 7 2 15 7 8 17 15 22 15 6 0 5 -7 -2 -15z m-144 -6 c4 -8 9 -8 17 0 6 6
18 11 27 11 12 -1 11 -3 -4 -15 -25 -19 -91 -18 -75 2 14 16 26 17 35 2z m58
-35 c4 -10 1 -14 -6 -12 -15 5 -23 28 -10 28 5 0 13 -7 16 -16z m56 3 c0 -2
-9 -14 -20 -27 -16 -18 -17 -25 -8 -32 7 -4 11 -8 8 -9 -3 0 -15 -2 -28 -5
-25 -4 -24 -2 10 49 16 22 38 36 38 24z m-3886 -53 c4 -10 1 -14 -6 -12 -15 5
-23 28 -10 28 5 0 13 -7 16 -16z m4020 0 c9 -22 -3 -32 -14 -14 -12 19 -12 30
-1 30 5 0 12 -7 15 -16z m-51 -19 c-20 -27 -30 -30 -53 -15 -12 8 -11 10 6 10
12 0 27 7 34 15 21 25 32 17 13 -10z m-3578 -24 c11 -19 -18 -61 -42 -61 -28
0 -29 3 -1 40 23 31 33 36 43 21z m3419 -15 c-3 -9 -10 -13 -16 -10 -5 3 -4
12 3 20 15 18 22 13 13 -10z m186 14 c8 -5 12 -12 9 -15 -8 -8 -39 5 -39 16 0
11 11 11 30 -1z m42 -35 c-3 -5 1 -5 8 2 17 16 54 -3 46 -23 -3 -8 0 -14 7
-13 51 6 86 -48 42 -65 -9 -3 -12 0 -9 9 6 16 -13 39 -33 41 -29 2 -33 5 -33
17 0 9 -12 13 -35 12 -19 0 -34 2 -32 5 1 3 9 18 17 33 12 25 15 27 21 10 3
-10 4 -22 1 -28z m-302 15 c13 -8 13 -10 -2 -10 -9 0 -20 5 -23 10 -8 13 5 13
25 0z m122 -23 c7 -7 27 -20 44 -28 26 -14 33 -14 52 -1 20 13 21 12 17 -15
-2 -15 -4 -30 -4 -32 -1 -2 -8 2 -16 9 -8 7 -15 9 -15 6 0 -4 -10 -2 -22 5
-18 10 -20 9 -15 -6 5 -11 3 -15 -5 -12 -7 2 -13 12 -13 21 0 10 -10 26 -23
36 -12 10 -22 21 -22 24 0 10 8 7 22 -7z m1288 -96 c-6 -12 -16 -19 -21 -15
-6 4 -4 13 7 25 21 24 29 18 14 -10z m575 19 c-3 -5 -11 -10 -16 -10 -6 0 -7
5 -4 10 3 6 11 10 16 10 6 0 7 -4 4 -10z m-1895 -30 c0 -10 -4 -22 -10 -25 -6
-4 -10 7 -10 25 0 18 4 29 10 25 6 -3 10 -15 10 -25z m135 -38 c-10 -10 -25
21 -24 48 1 23 2 22 15 -9 8 -18 12 -36 9 -39z m27 36 c-15 -15 -24 -6 -16 16
5 12 10 14 17 7 8 -8 8 -14 -1 -23z m598 12 c0 -6 -29 -10 -67 -9 -50 1 -61 3
-43 9 36 12 110 12 110 0z m-667 -20 c3 -11 1 -20 -4 -20 -5 0 -9 2 -9 4 0 2
-3 11 -6 20 -3 9 -2 16 4 16 5 0 12 -9 15 -20z m1757 5 c-7 -8 -17 -15 -22
-15 -6 0 -5 7 2 15 7 8 17 15 22 15 6 0 5 -7 -2 -15z m-1501 -21 c3 -16 1 -17
-13 -5 -19 16 -21 34 -3 29 6 -3 14 -13 16 -24z m-4295 0 c10 -25 7 -31 -15
-37 -22 -6 -35 13 -25 38 7 20 32 19 40 -1z m4194 -34 c2 -37 0 -40 -24 -40
-14 0 -23 4 -19 10 3 6 13 10 21 10 16 0 19 17 3 22 -5 2 -7 11 -4 21 12 29
22 19 23 -23z m-1203 -24 c-7 -42 6 -69 20 -46 3 5 16 10 28 10 l22 0 -23 -18
c-21 -17 -22 -20 -9 -51 12 -28 15 -30 21 -15 5 14 9 15 15 6 13 -21 1 -60
-20 -65 -15 -4 -20 2 -25 32 -4 20 -17 54 -30 76 -18 31 -22 50 -17 78 3 20
10 37 15 37 5 0 6 -19 3 -44z m1081 6 c-9 -8 -26 10 -26 26 1 15 2 15 15 -2 8
-11 13 -21 11 -24z m59 17 c12 -19 -5 -23 -22 -6 -16 16 -16 17 -1 17 9 0 20
-5 23 -11z m-4415 -10 c0 -5 4 -8 8 -5 5 3 14 -16 21 -42 8 -31 25 -58 52 -84
45 -43 51 -58 12 -33 -35 22 -72 65 -73 84 0 11 -3 11 -15 1 -9 -8 -19 -9 -24
-4 -10 12 -2 94 10 94 5 0 9 -5 9 -11z m4350 -45 c0 -8 -4 -14 -10 -14 -5 0
-10 9 -10 21 0 11 5 17 10 14 6 -3 10 -13 10 -21z m-30 -17 c0 -5 -4 -5 -10
-2 -5 3 -10 14 -10 23 0 15 2 15 10 2 5 -8 10 -19 10 -23z m156 -14 c-11 -11
-17 4 -9 23 7 18 8 18 11 1 2 -10 1 -21 -2 -24z m-4561 -13 c3 -5 -1 -10 -9
-10 -8 0 -18 5 -21 10 -3 6 1 10 9 10 8 0 18 -4 21 -10z m4525 6 c0 -2 -7 -6
-15 -10 -8 -3 -15 -1 -15 4 0 6 7 10 15 10 8 0 15 -2 15 -4z m1620 -42 c0 -19
-5 -24 -25 -24 -28 0 -30 6 -15 45 9 23 13 25 25 15 8 -7 15 -23 15 -36z
m-6200 26 c0 -13 -28 -25 -38 -16 -3 4 0 11 8 16 20 13 30 12 30 0z m105 -9
c-8 -13 -35 -15 -35 -2 0 5 8 11 18 13 21 5 26 2 17 -11z m6490 -31 c-3 -5
-10 -10 -16 -10 -5 0 -9 5 -9 10 0 6 7 10 16 10 8 0 12 -4 9 -10z m-4276 -34
c9 -11 6 -13 -14 -13 -26 0 -34 12 -12 20 6 3 13 6 13 6 1 1 7 -5 13 -13z
m3599 -74 c3 -9 -2 -13 -14 -10 -9 1 -19 9 -22 16 -3 9 2 13 14 10 9 -1 19 -9
22 -16z m812 -53 c0 -5 -4 -9 -10 -9 -5 0 -10 7 -10 16 0 8 5 12 10 9 6 -3 10
-10 10 -16z m-6900 -11 c0 -13 -23 -5 -28 10 -2 7 2 10 12 6 9 -3 16 -11 16
-16z m1700 2 c0 -5 -7 -10 -15 -10 -8 0 -15 5 -15 10 0 6 7 10 15 10 8 0 15
-4 15 -10z m280 -172 c0 -13 -23 -5 -28 10 -2 7 2 10 12 6 9 -3 16 -11 16 -16z
m889 12 c10 0 30 -9 45 -21 22 -18 24 -22 12 -35 -18 -18 -26 -18 -26 0 0 16
-27 29 -41 20 -13 -8 -39 15 -39 33 0 10 6 13 16 9 9 -3 24 -6 33 -6z m-1096
-96 c3 -4 2 -15 -4 -26 -14 -26 -3 -68 17 -68 10 0 14 -6 11 -15 -4 -8 -2 -17
3 -20 6 -4 10 -15 10 -25 0 -10 6 -20 13 -23 8 -3 6 -7 -7 -12 -10 -5 -21 -3
-25 2 -3 6 -20 12 -38 15 -27 4 -33 1 -38 -19 -6 -24 -38 -32 -50 -13 -3 6 3
10 14 10 12 0 21 6 21 13 0 6 7 24 14 40 12 22 13 27 1 27 -11 0 -11 5 1 30 9
17 20 30 25 30 5 0 9 14 9 30 0 28 9 38 23 24z m2436 -103 c21 -22 34 -29 52
-25 23 5 23 5 5 -10 -26 -21 -27 -21 -66 19 -19 19 -42 35 -52 35 -10 0 -18 5
-18 10 0 6 7 10 15 10 9 0 19 8 23 18 6 15 7 14 10 -5 2 -12 16 -36 31 -52z
m-1844 49 c-3 -5 -13 -10 -21 -10 -8 0 -12 5 -9 10 3 6 13 10 21 10 8 0 12 -4
9 -10z m768 -10 c14 -13 -12 -22 -43 -15 -17 4 -30 13 -30 22 0 11 7 13 33 8
17 -4 36 -11 40 -15z m-843 -75 c7 -9 10 -18 7 -22 -8 -7 -37 15 -37 28 0 14
16 11 30 -6z m-350 -51 c0 -8 -10 -14 -25 -14 -29 0 -33 15 -8 29 21 11 33 6
33 -15z m390 1 c7 -8 8 -15 2 -15 -5 0 -15 7 -22 15 -7 8 -8 15 -2 15 5 0 15
-7 22 -15z m27 -50 c9 -25 -4 -29 -17 -6 -7 15 -7 21 0 21 6 0 13 -7 17 -15z
m-1936 -18 c-1 -12 -15 -9 -19 4 -3 6 1 10 8 8 6 -3 11 -8 11 -12z m1968 -44
c13 -28 13 -28 -8 -9 -22 20 -27 36 -13 36 5 0 14 -12 21 -27z m1311 -43 c11
-7 9 -11 -13 -19 -37 -14 -37 -14 -37 9 0 21 24 27 50 10z m-1091 -126 c2 -2
-2 -11 -10 -20 -12 -14 -14 -14 -26 2 -19 26 -16 36 10 28 12 -3 24 -8 26 -10z
m-1397 -111 c6 -24 -1 -53 -13 -53 -5 0 -9 16 -9 35 0 36 15 48 22 18z m2352
-330 c9 -34 -15 -63 -38 -44 -15 12 -12 34 7 59 15 19 24 15 31 -15z m3620 0
c-4 -10 -9 -35 -12 -55 -4 -37 -3 -38 29 -39 49 -2 73 2 84 12 5 5 17 9 27 9
12 0 18 7 18 21 0 12 5 19 13 17 6 -3 12 -10 11 -16 -1 -7 -2 -21 -2 -31 -2
-16 -13 -21 -59 -27 -32 -4 -68 -7 -80 -6 -26 2 -27 -3 -13 -79 9 -47 15 -92
19 -136 0 -7 8 -13 16 -13 8 0 15 -4 15 -10 0 -5 -8 -10 -19 -10 -21 0 -29 20
-37 90 -3 25 -11 65 -19 90 -23 74 -29 137 -15 170 7 17 17 30 22 30 6 0 7 -7
2 -17z m-3786 -75 c21 -21 14 -45 -12 -45 -17 0 -25 6 -29 23 -6 35 16 47 41
22z m4407 -60 c12 -30 16 -32 54 -29 24 1 41 -2 41 -8 0 -6 -13 -11 -30 -11
-38 0 -41 -26 -5 -42 15 -7 24 -17 21 -25 -3 -8 2 -13 12 -13 15 -1 15 -2 -1
-11 -18 -10 -18 -11 0 -25 16 -12 14 -13 -22 -14 -62 0 -85 9 -85 35 0 12 -5
37 -12 55 -9 27 -8 35 4 44 14 10 14 16 2 44 -8 19 -9 32 -3 32 5 0 16 -14 24
-32z m-4468 -8 c-1 -12 -8 -20 -19 -20 -22 0 -22 4 -2 24 20 21 23 20 21 -4z
m-513 -35 c24 -18 12 -33 -14 -17 -10 6 -21 8 -24 3 -8 -12 4 -21 27 -21 16 0
17 -3 7 -15 -11 -13 -16 -12 -41 6 -35 24 -37 46 -6 52 12 2 24 5 27 5 3 1 14
-5 24 -13z m4897 0 c4 -51 2 -60 -12 -63 -12 -2 -16 6 -16 38 0 27 4 40 14 40
7 0 14 -7 14 -15z m-5481 -24 c0 -10 -9 -21 -20 -24 -25 -6 -25 -2 -2 22 22
25 22 25 22 2z m4340 -36 c9 -24 136 -115 160 -115 7 0 20 10 31 23 11 13 18
17 19 9 0 -16 -79 -112 -92 -112 -5 0 -1 12 10 27 l19 27 -61 39 c-33 22 -80
49 -103 59 -24 10 -43 25 -43 33 0 20 9 19 32 -2 19 -17 19 -16 13 10 -9 34 2
36 15 2z m-4455 5 c3 -5 14 -10 25 -10 10 0 21 -7 24 -16 5 -12 1 -14 -15 -9
-12 4 -32 1 -45 -6 -21 -11 -27 -10 -41 3 -13 14 -13 18 -2 32 16 17 45 21 54
6z m-625 -49 c0 -5 -9 -7 -20 -4 -11 3 -20 7 -20 9 0 2 9 4 20 4 11 0 20 -4
20 -9z m-64 -16 c-21 -16 -32 -13 -21 4 3 6 14 11 23 11 15 -1 15 -2 -2 -15z
m94 -21 c0 -8 -4 -12 -10 -9 -5 3 -10 13 -10 21 0 8 5 12 10 9 6 -3 10 -13 10
-21z m-834 -4 c8 0 14 6 15 13 0 6 4 2 9 -10 5 -13 16 -23 25 -23 18 0 20 -14
3 -28 -8 -5 -22 -6 -33 -1 -11 4 -14 8 -7 8 6 1 12 6 12 11 0 7 -6 7 -19 0
-29 -15 -31 -13 -30 23 0 17 3 26 6 20 2 -7 11 -13 19 -13z m704 -10 c0 -11
-4 -20 -10 -20 -5 0 -10 9 -10 20 0 11 5 20 10 20 6 0 10 -9 10 -20z m168 -46
c-10 -10 -28 6 -28 24 0 15 1 15 17 -1 9 -9 14 -19 11 -23z m-158 -2 c0 -10
-22 -32 -32 -32 -5 0 -3 9 4 20 13 20 28 27 28 12z m609 -12 c-8 -4 -24 -11
-36 -14 -33 -10 -28 10 5 22 29 10 53 4 31 -8z m-424 -29 c-9 -16 -25 -3 -18
15 4 10 9 12 15 6 6 -6 7 -15 3 -21z m2388 -7 c3 -4 -1 -13 -9 -21 -12 -12
-17 -13 -30 -2 -12 10 -12 14 -2 20 16 10 32 11 41 3z m-2423 -29 c-7 -8 -17
-15 -22 -15 -6 0 -5 7 2 15 7 8 17 15 22 15 6 0 5 -7 -2 -15z m410 -50 c0 -8
-4 -15 -9 -15 -13 0 -22 16 -14 24 11 11 23 6 23 -9z m-130 -40 c0 -15 -6 -25
-15 -26 -23 -2 -28 -4 -52 -17 -29 -16 -31 3 -3 20 11 7 20 18 20 25 0 17 17
17 23 1 3 -8 6 -6 6 5 1 27 21 20 21 -8z m-1339 -76 c11 -6 18 -17 15 -24 -3
-8 4 -25 15 -38 10 -14 19 -30 19 -36 0 -6 5 -11 10 -11 6 0 10 -4 10 -10 0
-5 -7 -10 -16 -10 -9 0 -14 -6 -11 -12 2 -7 13 -12 24 -11 17 2 21 -5 25 -41
3 -24 12 -57 21 -74 18 -36 13 -44 -18 -32 -17 6 -27 5 -35 -6 -16 -18 -30
-18 -30 0 0 15 27 30 48 27 15 -2 15 -1 1 54 -8 30 -15 42 -25 38 -14 -5 -46
59 -42 86 1 9 -4 27 -11 39 -7 13 -10 26 -7 29 7 7 -13 33 -24 33 -12 0 -17
-69 -5 -73 5 -3 -20 -3 -57 -1 -56 3 -68 0 -68 -12 0 -10 -6 -13 -18 -10 -22
7 -87 -58 -78 -79 7 -19 -17 -31 -78 -40 -47 -7 -48 -7 -41 16 6 21 4 20 -23
-10 -17 -18 -36 -31 -43 -29 -7 2 1 15 19 33 25 24 29 32 20 48 -10 20 8 69
41 110 19 23 78 23 85 -1 3 -9 15 -23 27 -30 18 -12 24 -11 43 7 18 17 35 21
83 21 60 0 62 1 68 30 7 32 23 37 56 19z m1698 -64 c24 -64 24 -65 12 -65 -5
0 -12 12 -15 26 -6 22 -10 25 -39 19 -32 -5 -32 -5 -9 11 28 21 29 38 1 24
-11 -7 -24 -8 -27 -4 -4 4 -1 9 6 11 6 3 12 11 12 19 0 8 9 14 19 14 15 0 25
-15 40 -55z m-1769 -25 c8 -5 11 -12 7 -16 -4 -4 -15 0 -24 9 -18 18 -8 23 17
7z m42 -56 c-4 -22 -7 -24 -19 -11 -10 9 -12 23 -7 42 6 25 8 26 19 12 7 -10
10 -29 7 -43z m-106 15 c4 -6 19 -9 36 -5 22 4 28 2 24 -7 -3 -6 -9 -20 -12
-29 -4 -11 -17 -18 -32 -18 -24 0 -25 1 -7 13 17 13 17 14 -4 20 -11 3 -24 1
-27 -4 -7 -12 -34 -11 -34 1 0 6 9 10 21 10 15 0 19 5 15 15 -6 17 9 20 20 4z
m2685 -62 l-20 -36 27 -20 c15 -11 24 -22 20 -26 -4 -4 -23 6 -43 21 -32 24
-35 29 -21 40 9 6 16 19 16 28 0 9 4 16 9 16 5 0 12 10 16 23 6 17 8 19 12 6
2 -9 -5 -33 -16 -52z m-2543 34 c3 -8 -1 -12 -9 -9 -7 2 -15 10 -17 17 -3 8 1
12 9 9 7 -2 15 -10 17 -17z m-168 -31 c0 -5 -6 -10 -14 -10 -8 0 -18 5 -21 10
-3 6 3 10 14 10 12 0 21 -4 21 -10z m140 -12 c0 -11 -5 -16 -10 -13 -7 4 -9
-2 -4 -19 4 -18 2 -26 -6 -26 -9 0 -7 -7 5 -20 10 -11 15 -23 11 -28 -4 -4
-13 0 -19 9 -7 9 -18 14 -24 12 -8 -3 -13 4 -13 16 0 12 6 21 15 21 19 0 19
11 0 36 -20 27 -19 29 15 30 23 1 30 -3 30 -18z m20 -64 c0 -8 -4 -14 -10 -14
-5 0 -10 9 -10 21 0 11 5 17 10 14 6 -3 10 -13 10 -21z m12 -62 c-3 -29 0 -32
23 -32 15 0 24 -4 20 -10 -9 -14 -45 -12 -49 3 -14 42 -15 78 -3 74 7 -2 11
-17 9 -35z m5078 -15 c0 -7 14 -21 30 -30 36 -22 39 -36 7 -30 -30 6 -73 73
-47 73 6 0 10 -6 10 -13z"/>
<path d="M7912 7560 c-7 -11 -8 -20 -2 -20 5 0 14 9 20 20 6 11 7 20 3 20 -5
0 -14 -9 -21 -20z"/>
<path d="M7192 7390 c0 -14 2 -19 5 -12 2 6 2 18 0 25 -3 6 -5 1 -5 -13z"/>
<path d="M5900 6011 c0 -5 7 -11 14 -14 10 -4 13 -1 9 9 -6 15 -23 19 -23 5z"/>
<path d="M5950 5981 c0 -6 4 -13 10 -16 6 -3 7 1 4 9 -7 18 -14 21 -14 7z"/>
<path d="M5888 5939 c-10 -17 -18 -39 -18 -49 0 -22 23 -32 40 -17 10 9 12 8
7 -5 -7 -20 23 -34 35 -16 13 20 4 43 -15 40 -13 -2 -16 4 -14 34 3 47 -13 53
-35 13z"/>
<path d="M5970 5926 c0 -9 5 -16 10 -16 6 0 10 4 10 9 0 6 -4 13 -10 16 -5 3
-10 -1 -10 -9z"/>
<path d="M5797 5903 c-4 -3 -7 -11 -7 -17 0 -6 5 -5 12 2 6 6 9 14 7 17 -3 3
-9 2 -12 -2z"/>
<path d="M2788 6023 c-10 -2 -18 -10 -18 -16 0 -7 -9 -18 -20 -25 -11 -7 -20
-20 -20 -30 1 -23 35 -67 43 -55 4 6 -2 18 -13 28 -23 20 -17 39 24 76 17 16
29 28 26 28 -3 -1 -13 -3 -22 -6z"/>
<path d="M2835 6003 c-33 -9 -65 -35 -65 -53 0 -26 36 -35 81 -20 41 14 43 36
2 25 -18 -4 -24 -2 -21 7 3 7 16 13 30 13 14 0 30 5 37 12 9 10 9 13 -3 13 -8
0 -20 2 -28 4 -7 2 -22 1 -33 -1z"/>
<path d="M2940 5930 c0 -6 -4 -8 -10 -5 -6 3 -7 -1 -4 -9 3 -9 10 -16 16 -16
5 0 7 4 4 9 -4 5 -1 11 6 13 9 3 9 6 0 12 -7 4 -12 2 -12 -4z"/>
<path d="M2835 5908 c-16 -6 -37 -13 -45 -15 -13 -4 -13 -5 0 -13 20 -13 33
-12 24 1 -5 8 6 10 35 7 22 -2 41 0 41 4 0 5 -8 8 -17 9 -15 0 -15 2 2 9 28
12 -3 10 -40 -2z"/>
<path d="M2911 5885 c0 -12 -5 -26 -11 -33 -5 -7 -3 -6 6 2 9 7 14 22 11 32
-4 17 -5 17 -6 -1z"/>
<path d="M2846 5804 c-23 -23 -20 -30 4 -9 11 10 20 20 20 22 0 7 -9 2 -24
-13z"/>
<path d="M4185 5419 c-4 -6 -5 -12 -2 -15 2 -3 7 2 10 11 7 17 1 20 -8 4z"/>
<path d="M4129 5357 c-43 -53 -52 -76 -38 -93 6 -8 7 -14 1 -14 -15 0 -35 28
-27 40 3 5 3 10 0 10 -3 0 -20 -30 -37 -67 -17 -38 -39 -80 -50 -95 -33 -47 2
-34 54 20 60 61 126 161 134 201 8 40 -4 39 -37 -2z"/>
<path d="M3493 4548 c-13 -6 -23 -15 -23 -20 0 -4 -8 -8 -19 -8 -10 0 -35 -7
-55 -15 -31 -13 -36 -19 -30 -38 9 -32 14 -34 28 -15 7 9 21 16 32 16 10 -1
42 6 71 16 51 17 51 17 41 47 -11 32 -13 33 -45 17z"/>
<path d="M3255 4458 c-68 -19 -100 -41 -89 -60 3 -5 11 -2 17 6 9 11 34 17 84
20 83 5 93 9 86 36 -6 24 -9 24 -98 -2z"/>
<path d="M3230 4390 c0 -5 5 -10 10 -10 6 0 10 5 10 10 0 6 -4 10 -10 10 -5 0
-10 -4 -10 -10z"/>
<path d="M4227 4148 c-3 -13 -9 -47 -13 -75 -6 -48 -5 -53 13 -53 11 0 71 -20
134 -45 90 -36 121 -53 145 -82 l31 -36 37 29 37 29 -31 26 c-37 32 -38 37 -1
31 19 -2 31 -11 34 -24 5 -17 8 -18 21 -7 14 12 12 17 -18 44 -19 17 -47 37
-63 45 -15 8 -30 17 -33 21 -16 17 -152 85 -204 100 -78 24 -83 24 -89 -3z
m206 -63 c21 -9 22 -21 3 -28 -21 -8 -86 12 -86 27 0 26 20 26 83 1z"/>
<path d="M5844 4859 c-3 -5 -1 -9 4 -9 5 0 12 -9 15 -21 7 -24 27 -16 27 10 0
20 -36 35 -46 20z"/>
<path d="M6400 4255 c0 -8 5 -15 10 -15 6 0 10 7 10 15 0 8 -4 15 -10 15 -5 0
-10 -7 -10 -15z"/>
<path d="M6076 4226 c10 -8 20 -10 22 -5 2 5 11 5 22 -1 13 -7 21 -5 30 5 11
13 5 15 -41 15 -48 0 -51 -1 -33 -14z"/>
<path d="M5841 3826 c-7 -8 -8 -17 -3 -20 6 -3 12 3 15 14 6 24 4 25 -12 6z"/>
<path d="M3260 4884 c0 -16 18 -18 38 -5 10 6 7 10 -12 13 -18 4 -26 1 -26 -8z"/>
<path d="M3242 4847 c-32 -10 -33 -12 -27 -45 9 -51 23 -82 36 -82 6 0 28 5
48 11 l37 11 -15 59 c-17 63 -20 65 -79 46z"/>
<path d="M3110 4841 c0 -5 7 -11 15 -15 9 -3 15 0 15 9 0 8 -7 15 -15 15 -8 0
-15 -4 -15 -9z"/>
<path d="M3095 4800 c3 -5 8 -10 11 -10 2 0 4 5 4 10 0 6 -5 10 -11 10 -5 0
-7 -4 -4 -10z"/>
<path d="M4890 4476 c-42 -16 -43 -41 -3 -71 14 -11 46 -37 70 -57 45 -38 76
-48 89 -26 10 16 -25 38 -63 38 -18 0 -33 5 -33 11 0 8 16 9 51 5 53 -7 62 7
11 19 -18 4 -28 13 -29 26 -1 10 3 17 8 13 21 -13 69 -22 69 -13 0 5 -9 9 -20
9 -11 0 -20 7 -20 15 0 8 -4 15 -10 15 -17 0 -11 18 8 23 9 3 -8 5 -38 5 -30
0 -71 -5 -90 -12z"/>
<path d="M5050 4477 c0 -10 8 -17 18 -17 9 0 13 4 7 8 -5 4 -13 11 -17 16 -5
5 -8 2 -8 -7z"/>
<path d="M5116 4455 c-3 -8 -1 -15 4 -15 6 0 10 7 10 15 0 8 -2 15 -4 15 -2 0
-6 -7 -10 -15z"/>
<path d="M5150 4452 c0 -4 9 -13 19 -19 15 -10 20 -9 24 2 3 7 -1 16 -9 19
-21 8 -34 7 -34 -2z"/>
<path d="M4760 4430 c0 -5 5 -10 10 -10 6 0 10 5 10 10 0 6 -4 10 -10 10 -5 0
-10 -4 -10 -10z"/>
<path d="M5000 4215 c-10 -12 -10 -15 3 -15 19 0 31 16 18 24 -5 3 -14 -1 -21
-9z"/>
<path d="M4918 4179 c-10 -5 -18 -22 -18 -36 0 -19 3 -23 13 -15 6 6 16 10 22
10 5 0 11 5 13 11 2 6 -3 8 -12 5 -9 -3 -16 -1 -16 5 0 6 15 15 33 20 28 8 29
9 7 10 -14 0 -33 -4 -42 -10z"/>
<path d="M4523 4492 c-15 -25 -1 -49 17 -27 7 8 9 15 5 15 -4 0 -2 7 5 15 10
12 10 15 -1 15 -8 0 -19 -8 -26 -18z"/>
<path d="M378 4193 c-26 -6 -23 -43 2 -43 11 0 23 -6 26 -14 3 -8 12 -17 20
-20 9 -3 12 -1 9 4 -3 6 -1 10 4 10 6 0 11 -4 11 -10 0 -5 5 -10 10 -10 6 0
10 6 10 14 0 8 7 17 16 20 9 4 14 10 10 13 -10 10 -56 11 -56 1 0 -19 -20 -6
-26 17 -3 14 -9 24 -13 24 -3 -1 -14 -3 -23 -6z"/>
<path d="M490 4115 c0 -8 -4 -15 -10 -15 -5 0 -10 -4 -10 -10 0 -5 7 -10 15
-10 8 0 15 4 15 9 0 5 3 16 6 25 3 9 1 16 -5 16 -6 0 -11 -7 -11 -15z"/>
<path d="M5088 4061 c-26 -23 -30 -32 -21 -42 10 -10 15 -9 27 1 9 7 13 16 10
21 -3 5 3 9 13 9 19 0 43 18 43 32 0 18 -42 6 -72 -21z"/>
<path d="M2190 3665 c0 -8 5 -15 10 -15 6 0 10 7 10 15 0 8 -4 15 -10 15 -5 0
-10 -7 -10 -15z"/>
<path d="M2230 3630 c0 -5 7 -10 16 -10 8 0 12 5 9 10 -3 6 -10 10 -16 10 -5
0 -9 -4 -9 -10z"/>
<path d="M1825 1830 c3 -5 10 -10 16 -10 5 0 9 5 9 10 0 6 -7 10 -16 10 -8 0
-12 -4 -9 -10z"/>
<path d="M1805 1810 c-3 -5 1 -10 10 -10 9 0 13 5 10 10 -3 6 -8 10 -10 10 -2
0 -7 -4 -10 -10z"/>
<path d="M3606 1025 c-3 -8 -1 -15 4 -15 6 0 10 7 10 15 0 8 -2 15 -4 15 -2 0
-6 -7 -10 -15z"/>
<path d="M2160 789 c0 -5 5 -7 10 -4 6 3 10 8 10 11 0 2 -4 4 -10 4 -5 0 -10
-5 -10 -11z"/>
<path d="M215 358 c-14 -20 -14 -23 0 -26 18 -4 20 -18 3 -25 -10 -4 -10 -6
-1 -6 7 -1 17 8 23 19 6 11 18 20 26 20 18 0 10 16 -16 30 -15 8 -22 5 -35
-12z"/>
<path d="M272 319 c-30 -11 -23 -35 9 -31 44 4 53 11 39 27 -14 17 -16 17 -48
4z"/>
<path d="M180 281 c0 -5 5 -13 10 -16 6 -3 10 -2 10 4 0 5 -4 13 -10 16 -5 3
-10 2 -10 -4z"/>
<path d="M266 254 c-13 -9 -17 -17 -10 -24 7 -7 17 -5 30 4 13 10 16 18 9 25
-7 6 -16 5 -29 -5z"/>
<path d="M0 2402 c0 -13 5 -32 10 -43 12 -21 45 -26 56 -8 3 6 15 9 25 6 16
-4 17 -2 9 14 -14 25 -39 37 -62 31 -11 -3 -24 1 -29 9 -6 10 -9 8 -9 -9z"/>
<path d="M3300 129 c0 -5 6 -9 14 -9 8 0 16 -6 19 -12 3 -10 8 -10 17 -2 9 9
4 14 -19 22 -19 7 -31 7 -31 1z"/>
<path d="M3468 74 c-12 -13 -20 -14 -37 -5 -41 22 -49 -10 -13 -51 11 -13 30
-18 66 -18 46 1 49 2 32 15 -18 13 -18 15 4 44 l21 31 -28 0 c-16 0 -36 -7
-45 -16z"/>
</g>
</svg>
