<?xml version="1.0" standalone="no"?>
<!DOCTYPE svg PUBLIC "-//W3C//DTD SVG 20010904//EN"
 "http://www.w3.org/TR/2001/REC-SVG-20010904/DTD/svg10.dtd">
<svg version="1.0" xmlns="http://www.w3.org/2000/svg"
 width="800.000000pt" height="800.000000pt" viewBox="0 0 800.000000 800.000000"
 preserveAspectRatio="xMidYMid meet">
<metadata>
Created by potrace 1.16, written by Peter Selinger 2001-2019
</metadata>
<g transform="translate(0.000000,800.000000) scale(0.100000,-0.100000)"
fill="#000000" stroke="none">
<path d="M0 7305 l0 -696 23 12 c12 7 41 25 64 40 45 31 53 34 53 20 0 -5 -31
-29 -70 -52 l-70 -44 0 -1998 0 -1998 23 7 c29 9 47 23 47 38 0 7 53 68 118
137 64 68 134 148 156 177 44 61 132 114 147 90 6 -9 1 -19 -17 -33 -15 -11
-47 -42 -72 -70 -25 -27 -108 -111 -183 -185 -75 -74 -155 -158 -178 -186
l-41 -52 0 -1256 0 -1256 1264 0 1264 0 7 39 c11 63 -10 114 -75 188 -43 48
-60 75 -60 95 0 15 5 28 10 28 6 0 10 -5 10 -11 0 -10 9 0 47 50 2 2 6 2 9 -2
4 -3 -7 -25 -24 -48 l-31 -42 59 -65 c64 -71 85 -126 73 -196 l-6 -36 2617 0
c1439 0 2616 3 2616 6 0 3 -20 34 -45 68 -44 62 -68 126 -47 126 5 0 12 -12
15 -27 3 -16 29 -61 57 -101 l51 -72 94 0 95 0 0 1760 c0 1669 -1 1760 -17
1760 -17 1 -17 1 0 14 15 12 17 32 17 161 0 82 -3 145 -7 142 -3 -4 -17 2 -29
14 -21 20 -24 20 -40 5 -9 -9 -18 -16 -19 -14 -6 7 8 68 16 68 4 0 24 -14 44
-31 l35 -31 0 131 c0 123 -1 131 -19 131 -11 0 -23 5 -26 10 -4 6 5 10 19 10
l26 0 0 610 c0 336 -3 610 -7 610 -3 0 -15 -7 -25 -17 -10 -9 -21 -13 -25 -9
-4 3 8 20 25 36 l32 29 0 103 0 103 -33 23 c-40 26 -48 27 -89 6 -24 -12 -32
-13 -38 -4 -4 7 -13 9 -19 6 -6 -4 -11 -3 -11 2 0 14 28 23 32 10 3 -7 16 -4
38 7 l34 18 -53 48 c-53 49 -101 65 -101 34 0 -10 -10 -15 -33 -15 -25 0 -52
-14 -108 -56 -41 -31 -81 -59 -89 -62 -8 -3 -48 -30 -88 -60 -40 -29 -98 -62
-129 -73 -31 -10 -62 -24 -69 -30 -11 -9 -14 -8 -14 1 0 8 -8 10 -21 7 -16 -4
-18 -3 -8 9 6 7 15 12 19 9 20 -12 141 43 218 99 46 34 91 66 100 71 9 6 45
31 81 58 41 30 74 47 93 47 16 0 31 6 34 15 13 34 85 8 165 -58 21 -18 39 -37
39 -43 0 -7 11 -19 25 -28 l25 -16 0 1190 0 1190 -2681 0 -2680 0 6 -22 c4
-13 36 -92 71 -177 57 -137 71 -184 45 -155 -4 5 -41 87 -81 182 l-73 172
-1304 0 -1303 0 0 -695z m3980 568 c18 -54 39 -110 47 -126 17 -33 10 -48 -12
-26 -26 26 -104 233 -92 241 22 14 26 8 57 -89z m3070 37 c0 -5 -4 -10 -10
-10 -5 0 -10 5 -10 10 0 6 5 10 10 10 6 0 10 -4 10 -10z m30 -10 c0 -5 -5 -10
-11 -10 -5 0 -7 5 -4 10 3 6 8 10 11 10 2 0 4 -4 4 -10z m30 -24 c0 -3 -4 -8
-10 -11 -5 -3 -10 -1 -10 4 0 6 5 11 10 11 6 0 10 -2 10 -4z m20 -26 c0 -5 -4
-10 -10 -10 -5 0 -10 5 -10 10 0 6 5 10 10 10 6 0 10 -4 10 -10z m10 -60 c0
-5 -4 -10 -10 -10 -5 0 -10 5 -10 10 0 6 5 10 10 10 6 0 10 -4 10 -10z m-15
-30 c3 -5 1 -10 -4 -10 -6 0 -11 5 -11 10 0 6 2 10 4 10 3 0 8 -4 11 -10z
m-3025 -30 c0 -5 -9 -15 -20 -22 -15 -10 -20 -24 -20 -60 0 -47 -12 -63 -24
-32 -14 36 -6 77 20 100 26 25 44 31 44 14z m3020 -10 c0 -5 -2 -10 -4 -10 -3
0 -8 5 -11 10 -3 6 -1 10 4 10 6 0 11 -4 11 -10z m10 -36 c0 -8 -4 -12 -10 -9
-5 3 -10 10 -10 16 0 5 5 9 10 9 6 0 10 -7 10 -16z m-4410 -274 c0 -5 -4 -10
-10 -10 -5 0 -10 5 -10 10 0 6 5 10 10 10 6 0 10 -4 10 -10z m1395 -79 c2 -25
7 -62 11 -81 5 -27 4 -32 -5 -24 -7 6 -17 43 -21 81 -5 39 -10 74 -11 79 -4
22 3 27 12 10 6 -10 13 -39 14 -65z m-1721 43 c9 -23 7 -44 -3 -44 -5 0 -11
14 -13 30 -5 32 6 41 16 14z m336 -4 c0 -5 -2 -10 -4 -10 -3 0 -8 5 -11 10 -3
6 -1 10 4 10 6 0 11 -4 11 -10z m20 -30 c0 -5 -4 -10 -10 -10 -5 0 -10 5 -10
10 0 6 5 10 10 10 6 0 10 -4 10 -10z m20 -24 c0 -3 -4 -8 -10 -11 -5 -3 -10
-1 -10 4 0 6 5 11 10 11 6 0 10 -2 10 -4z m10 -36 c0 -5 -2 -10 -4 -10 -3 0
-8 5 -11 10 -3 6 -1 10 4 10 6 0 11 -4 11 -10z m1620 -10 c0 -5 -4 -10 -10
-10 -5 0 -10 5 -10 10 0 6 5 10 10 10 6 0 10 -4 10 -10z m-1242 -12 c-3 -7
-13 -15 -24 -17 -16 -3 -17 -1 -5 13 16 19 34 21 29 4z m47 1 c12 -19 -5 -23
-22 -6 -16 16 -16 17 -1 17 9 0 20 -5 23 -11z m-405 -9 c0 -5 -4 -10 -10 -10
-5 0 -10 5 -10 10 0 6 5 10 10 10 6 0 10 -4 10 -10z m181 -26 c16 -17 31 -24
47 -21 12 2 25 0 28 -4 3 -5 1 -9 -5 -9 -6 0 -17 -12 -25 -28 -12 -24 -12 -33
5 -77 21 -56 23 -65 11 -65 -5 0 -19 25 -31 55 -13 30 -29 55 -37 55 -7 0 -18
19 -24 43 -6 23 -13 47 -15 54 -4 11 3 23 15 23 4 0 17 -12 31 -26z m129 7 c0
-11 -31 -24 -39 -16 -3 3 1 10 9 15 19 12 30 12 30 1z m140 -17 c0 -8 -4 -12
-10 -9 -5 3 -10 13 -10 21 0 8 5 12 10 9 6 -3 10 -13 10 -21z m-430 6 c0 -5
-4 -10 -10 -10 -5 0 -10 5 -10 10 0 6 5 10 10 10 6 0 10 -4 10 -10z m460 -57
c0 -13 -3 -13 -15 -3 -8 7 -12 16 -9 21 8 13 24 1 24 -18z m-420 7 c0 -5 -5
-10 -11 -10 -5 0 -7 5 -4 10 3 6 8 10 11 10 2 0 4 -4 4 -10z m1766 -213 c67
-35 168 -67 209 -67 24 0 65 -5 92 -12 41 -10 57 -22 115 -87 37 -42 78 -89
90 -104 l23 -28 140 32 c123 28 163 32 333 36 138 4 192 2 192 -6 0 -7 -31
-11 -92 -11 -217 0 -294 -7 -437 -40 l-145 -33 -18 24 c-144 182 -182 209
-286 209 -60 0 -256 71 -266 96 -10 27 -6 40 7 23 7 -9 26 -23 43 -32z m1384
-212 c7 -9 10 -18 7 -22 -8 -7 -37 15 -37 28 0 14 16 11 30 -6z m48 -54 c3 -8
-1 -12 -9 -9 -7 2 -15 10 -17 17 -3 8 1 12 9 9 7 -2 15 -10 17 -17z m42 -20
c0 -12 -20 -25 -27 -18 -7 7 6 27 18 27 5 0 9 -4 9 -9z m55 -1 c3 -5 -3 -10
-14 -10 -12 0 -21 5 -21 10 0 6 6 10 14 10 8 0 18 -4 21 -10z m55 -16 c0 -17
-22 -14 -28 4 -2 7 3 12 12 12 9 0 16 -7 16 -16z m-2072 -36 c-3 -34 -15 -43
-38 -28 -10 7 -11 12 -4 18 6 4 13 15 17 25 11 29 28 19 25 -15z m2072 -5 c0
-5 -5 -15 -10 -23 -8 -12 -10 -11 -10 8 0 12 5 22 10 22 6 0 10 -3 10 -7z m45
-23 c-3 -5 -15 -10 -26 -10 -10 0 -19 5 -19 10 0 6 12 10 26 10 14 0 23 -4 19
-10z m55 -10 c0 -5 -6 -10 -14 -10 -8 0 -18 5 -21 10 -3 6 3 10 14 10 12 0 21
-4 21 -10z m50 -10 c0 -5 -7 -10 -15 -10 -8 0 -15 5 -15 10 0 6 7 10 15 10 8
0 15 -4 15 -10z m-2234 -187 c-7 -23 -9 -234 -3 -348 5 -104 21 -247 36 -324
13 -64 14 -81 3 -81 -15 0 -55 234 -59 343 -2 60 -8 118 -12 130 -5 12 -4 34
1 48 5 15 8 77 6 138 -3 102 -1 111 15 111 13 0 17 -5 13 -17z m1674 -163 c0
-5 -15 -10 -32 -10 -96 0 -136 -12 -184 -54 -34 -30 -46 -49 -46 -69 0 -15 -4
-27 -8 -27 -4 0 -10 -7 -14 -15 -4 -10 6 -18 37 -26 40 -10 97 -53 97 -72 0
-5 -15 2 -33 16 l-34 25 -17 -29 c-10 -16 -22 -27 -27 -23 -5 3 -1 18 11 33
l20 28 -51 10 c-66 13 -75 -4 -29 -53 41 -41 32 -59 -10 -19 -16 16 -31 27
-33 24 -1 -2 -10 -21 -20 -41 -17 -38 -17 -38 6 -38 31 0 67 -11 67 -20 0 -4
-22 -5 -50 -2 -48 4 -49 4 -66 -32 -10 -20 -21 -36 -26 -36 -12 0 -12 -1 32
93 22 47 40 88 40 91 0 3 -9 6 -20 6 -11 0 -20 -6 -20 -13 0 -8 -9 -22 -20
-32 -14 -12 -18 -25 -14 -41 4 -13 2 -24 -4 -24 -20 0 -21 43 -2 70 10 15 23
49 27 76 7 42 12 50 33 53 31 4 40 17 40 59 l0 32 -55 0 c-48 0 -55 -2 -55
-20 0 -34 -17 -22 -28 19 -9 36 -8 40 12 45 85 23 146 -12 146 -83 0 -20 -5
-42 -10 -47 -7 -7 -3 -14 15 -22 20 -9 25 -9 25 1 0 30 41 95 81 127 29 23 59
37 89 41 72 10 130 10 130 -1z m-50 -293 c0 -29 -12 -93 -26 -142 -15 -50 -26
-102 -26 -117 0 -16 -3 -28 -7 -28 -5 0 -18 -25 -29 -55 -12 -31 -35 -76 -52
-100 -16 -24 -30 -46 -30 -49 0 -3 -21 -50 -46 -103 -46 -97 -105 -236 -101
-238 15 -8 123 -26 202 -34 55 -6 179 -20 276 -31 97 -11 179 -20 182 -20 2 0
8 11 11 25 7 29 21 32 35 8 9 -17 24 -13 183 40 95 33 214 76 263 97 50 20
107 43 128 51 34 12 52 39 26 39 -5 0 -7 5 -4 10 4 6 12 4 21 -5 20 -20 34
-19 34 3 0 11 3 13 8 5 6 -9 20 -6 57 12 28 13 44 24 38 24 -18 1 -16 21 1 21
8 0 17 6 20 13 3 6 3 2 0 -10 -3 -13 -3 -23 1 -23 3 0 40 17 83 39 90 45 122
56 122 43 0 -14 -215 -127 -270 -142 -83 -23 -180 -68 -180 -85 0 -5 18 -58
41 -117 38 -96 44 -106 61 -97 12 6 18 6 18 0 0 -6 -8 -15 -18 -20 -9 -5 -35
-40 -56 -78 -32 -56 -55 -81 -131 -140 -51 -40 -130 -95 -175 -122 -77 -46
-109 -56 -212 -65 -3 -1 -9 -3 -12 -6 -7 -8 28 -159 45 -195 26 -55 53 -49
329 79 220 102 280 123 280 97 0 -3 -35 -21 -78 -40 -104 -47 -486 -223 -490
-226 -2 -2 11 -48 28 -102 32 -103 33 -110 52 -231 10 -65 13 -73 36 -79 14
-3 122 -3 241 0 344 11 541 15 474 10 -47 -3 -63 -8 -63 -18 0 -12 -19 -15
-95 -15 l-95 0 0 -39 c0 -22 5 -43 10 -46 14 -9 2 -25 -18 -25 -15 0 -15 2 -2
10 12 8 9 10 -12 10 -19 0 -28 -5 -28 -16 0 -12 -6 -15 -23 -10 -14 3 -76 -12
-157 -39 -135 -44 -135 -44 -132 -74 4 -42 -17 -50 -31 -11 -8 20 -17 29 -27
26 -8 -2 -82 -27 -165 -56 -144 -49 -185 -73 -185 -106 0 -18 71 -19 88 -2 6
6 15 8 19 4 13 -13 -29 -36 -64 -36 -31 0 -33 -2 -33 -34 0 -28 7 -39 45 -67
28 -21 48 -45 51 -61 4 -16 13 -28 20 -28 19 0 18 -16 -2 -24 -22 -9 -31 0
-39 34 -4 17 -21 41 -39 55 -40 31 -42 31 -50 2 -5 -21 -23 -29 -168 -67 -188
-51 -252 -54 -327 -15 -74 37 -131 51 -141 35 -6 -9 -23 -11 -63 -7 l-55 5 -4
-60 -3 -60 65 -61 c79 -75 233 -215 277 -251 30 -25 35 -26 72 -15 43 13 131
4 131 -13 0 -6 -17 -8 -47 -4 -29 4 -65 2 -90 -6 l-42 -13 45 -60 c99 -133
175 -225 187 -225 7 0 59 28 117 61 58 34 125 73 149 87 40 23 42 26 26 38
-10 8 -45 24 -77 36 -60 24 -80 45 -30 34 15 -4 53 -19 85 -35 31 -15 57 -23
57 -17 0 6 7 58 15 115 14 109 13 115 -26 171 -17 25 -45 148 -35 157 12 12
26 -12 32 -56 9 -71 16 -78 50 -52 37 29 44 18 11 -17 -25 -26 -26 -29 -11
-51 15 -21 15 -33 0 -149 l-16 -127 22 -15 c12 -8 65 -34 117 -57 144 -64 160
-74 348 -224 96 -77 178 -137 183 -134 12 8 40 -5 40 -19 0 -16 166 -97 185
-90 9 4 15 1 15 -8 0 -7 74 -50 170 -98 151 -76 191 -102 176 -117 -6 -6 -294
145 -301 158 -4 5 -10 7 -14 5 -4 -3 -57 19 -118 49 l-112 53 -15 -36 c-8 -21
-46 -68 -85 -107 -40 -38 -81 -86 -93 -107 -26 -46 -133 -102 -192 -99 l-39 1
8 -73 c20 -202 22 -233 16 -240 -11 -12 -71 4 -71 19 0 8 7 14 15 14 12 0 15
18 15 98 0 101 -9 153 -32 175 -9 9 -56 16 -140 20 -70 4 -134 10 -143 13 -11
5 -14 2 -9 -10 4 -11 1 -16 -10 -16 -9 0 -16 6 -16 13 0 10 -42 13 -198 12
-108 0 -202 -4 -209 -8 -6 -4 -14 -22 -17 -40 -7 -35 -68 -103 -84 -93 -5 3
-19 -6 -32 -19 -18 -20 -22 -32 -17 -64 3 -22 1 -41 -3 -43 -11 -4 -17 -140
-7 -155 11 -17 10 -217 -1 -278 -7 -39 -11 -45 -16 -30 -4 11 -13 30 -19 43
-9 18 -7 25 9 37 15 11 17 17 8 32 -7 12 -10 74 -7 182 3 125 1 166 -9 172 -9
6 -8 10 5 15 12 4 17 17 17 44 0 32 8 44 59 94 90 85 91 115 6 116 -54 0 -82
9 -89 27 -6 14 9 15 121 9 71 -3 274 -9 453 -12 370 -8 339 -18 250 82 -25 28
-88 100 -140 160 -84 98 -262 259 -332 302 -25 15 -31 12 -214 -93 -104 -60
-227 -130 -274 -155 -47 -26 -119 -66 -160 -90 -75 -44 -75 -44 -177 -44 -57
-1 -104 2 -105 5 -2 4 -38 9 -81 11 l-78 3 3 -54 3 -55 43 -13 c23 -6 55 -14
70 -17 15 -2 43 -10 62 -16 24 -8 117 -11 288 -10 213 1 252 -1 252 -13 0 -20
-71 -27 -300 -27 -189 0 -198 1 -303 31 -59 18 -110 30 -112 27 -10 -10 -24
-693 -14 -703 16 -16 10 -25 -20 -25 -45 0 -62 9 -52 28 5 10 12 171 15 360
l8 342 -41 0 c-77 0 -204 -61 -308 -148 -24 -20 -43 -44 -43 -54 0 -9 -4 -20
-10 -23 -6 -3 -9 -79 -9 -186 1 -215 -10 -429 -22 -429 -12 0 -16 368 -5 499
5 61 7 113 5 115 -2 2 -112 16 -243 30 -240 27 -255 26 -256 -6 0 -5 -4 -8
-10 -8 -5 0 -7 7 -3 16 7 20 -13 34 -49 34 -17 0 -28 5 -28 14 0 18 131 12
328 -15 237 -32 226 -34 361 68 124 94 212 133 296 133 40 0 43 2 49 31 15 79
6 89 -84 89 -25 0 -79 4 -120 10 -41 5 -101 13 -134 16 -34 3 -55 9 -49 15 8
8 433 -20 551 -36 31 -5 42 -3 42 7 0 10 2 10 8 1 4 -7 46 -16 95 -21 l88 -8
77 44 c42 25 120 68 172 97 52 28 175 98 273 154 l177 103 -63 76 c-35 43 -85
109 -111 147 -27 39 -127 147 -225 243 -172 169 -176 173 -179 143 -2 -17 -8
-31 -14 -31 -6 0 -9 16 -6 39 3 38 2 40 -47 64 -27 14 -106 47 -175 73 -69 26
-139 57 -156 70 -17 13 -38 24 -46 24 -13 0 -30 75 -40 178 -1 8 -21 12 -62
12 -37 0 -56 -4 -48 -9 11 -7 11 -9 -2 -14 -8 -3 -22 0 -30 8 -8 8 -28 15 -45
15 -16 0 -33 5 -36 10 -4 6 41 10 128 10 252 0 586 13 580 22 -3 6 -64 7 -152
3 -138 -7 -191 -3 -191 13 0 4 75 9 168 10 92 2 168 5 168 5 1 1 -4 33 -11 71
-7 38 -11 84 -8 103 4 24 1 34 -11 39 -9 3 -13 10 -10 15 3 5 9 7 14 4 13 -8
23 98 15 161 -5 44 -11 57 -29 64 -12 4 -124 10 -248 12 -183 2 -224 5 -216
16 9 10 60 11 244 6 l232 -7 -19 84 c-25 106 -53 185 -117 326 -29 64 -47 115
-41 118 5 4 16 -9 23 -27 8 -18 35 -78 59 -133 l44 -100 72 -19 c39 -10 71
-23 71 -27 0 -13 -20 -11 -75 6 -27 8 -51 12 -53 10 -2 -2 3 -25 12 -52 8 -26
20 -70 26 -98 22 -107 2 -95 160 -95 105 0 140 3 140 13 0 8 3 9 8 1 4 -6 40
-14 79 -18 l73 -6 -86 162 c-142 272 -168 327 -160 335 5 4 11 1 14 -7 3 -8
25 -53 50 -100 25 -47 73 -139 107 -205 35 -66 84 -156 109 -200 25 -44 49
-88 52 -98 5 -17 15 -18 127 -11 76 4 126 12 132 19 8 10 168 65 189 65 3 0 6
-4 6 -10 0 -5 -41 -22 -91 -37 l-92 -27 74 -12 c41 -7 93 -19 117 -28 32 -11
42 -12 42 -3 0 59 -56 283 -94 381 -43 109 -72 218 -82 310 -2 22 -9 43 -15
47 -8 5 -8 8 0 13 17 11 29 -1 36 -35 5 -22 11 -28 23 -25 10 3 40 8 67 11
105 14 365 198 429 304 l37 60 -35 98 c-50 145 -55 154 -77 142 -10 -5 -98
-38 -196 -73 -215 -77 -263 -96 -263 -105 0 -3 -9 -17 -19 -31 -16 -20 -22
-22 -34 -12 -12 10 -25 4 -73 -35 -66 -54 -165 -123 -176 -123 -21 0 -2 21 50
55 68 45 182 138 177 144 -2 2 -139 18 -304 37 -165 18 -315 36 -334 39 l-35
7 -39 -101 c-31 -83 -52 -119 -112 -194 -40 -51 -86 -118 -102 -150 -16 -32
-34 -55 -39 -52 -16 10 38 104 119 208 60 77 83 117 113 194 l36 97 -28 12
c-15 7 -99 60 -185 119 -86 59 -174 112 -196 117 -21 6 -37 14 -34 18 7 11
-77 4 -105 -9 l-25 -12 25 6 c75 16 85 17 75 7 -5 -6 -53 -23 -105 -37 -104
-30 -138 -45 -187 -82 -38 -27 -42 -48 -13 -56 11 -3 20 -10 20 -15 0 -6 -10
-8 -21 -5 -24 7 -25 9 15 -67 29 -55 44 -72 57 -65 3 3 16 31 28 63 22 59 54
89 83 80 8 -3 0 -11 -19 -22 -18 -9 -33 -21 -33 -26 0 -5 -11 -34 -24 -64 -21
-47 -27 -53 -48 -49 -17 3 -32 19 -47 50 -21 43 -23 45 -55 39 -44 -8 -50 1
-20 32 13 15 24 34 24 44 0 14 -6 13 -47 -9 -27 -14 -61 -35 -78 -47 -45 -35
-115 -68 -130 -62 -9 3 -2 -30 21 -97 33 -99 43 -151 25 -131 -5 5 -23 54 -41
109 -17 55 -33 101 -34 102 -6 6 -66 -19 -66 -28 0 -4 -6 -6 -14 -3 -8 3 -29
-2 -46 -11 -17 -9 -38 -14 -46 -11 -8 3 -14 1 -14 -3 0 -14 -74 -39 -199 -67
-63 -14 -118 -27 -122 -30 -4 -2 -3 -21 3 -41 7 -27 7 -47 -1 -69 -8 -23 -9
-45 -2 -75 13 -54 14 -79 3 -79 -16 0 -34 128 -22 151 12 21 5 95 -9 104 -5 2
-98 -16 -207 -41 -109 -25 -235 -52 -279 -60 -44 -9 -87 -21 -95 -27 -20 -17
-50 -74 -50 -97 0 -19 -17 -36 -26 -27 -3 2 3 24 11 48 9 24 19 54 22 66 l5
22 -163 -6 c-90 -3 -167 -10 -170 -16 -4 -5 -18 -2 -34 9 -25 16 -25 18 -8 28
11 6 94 10 205 11 l188 0 0 23 c0 12 -4 22 -10 22 -5 0 -10 5 -10 11 0 5 4 7
10 4 6 -4 7 28 3 87 -8 134 -13 130 221 179 104 22 198 36 210 33 12 -4 44
-20 73 -37 38 -23 54 -39 59 -60 3 -16 12 -40 20 -55 8 -15 14 -33 14 -39 0
-7 7 -13 16 -13 18 0 327 61 332 66 8 6 -41 100 -69 133 -17 20 -58 83 -91
141 -87 151 -91 156 -96 142 -5 -16 -29 -16 -35 1 -6 18 34 67 55 67 13 0 18
-8 18 -25 0 -33 61 -153 119 -235 57 -79 64 -91 97 -160 14 -30 27 -56 29 -58
1 -1 48 15 103 37 65 25 154 73 249 133 208 133 225 142 341 179 l103 33 -7
31 c-3 16 -7 32 -8 35 0 3 3 7 9 10 5 3 14 -14 19 -37 8 -37 12 -42 44 -48 49
-9 82 -27 272 -148 91 -58 168 -103 171 -101 4 2 28 57 54 121 26 65 82 187
126 272 55 106 78 160 73 174 -3 11 -1 23 6 27 14 9 46 129 55 210 9 74 25 79
25 7z m-2276 -201 l-29 -55 41 -43 c23 -24 51 -58 63 -75 28 -41 44 -41 71 -2
22 29 22 31 4 52 -11 13 -6 11 11 -5 l29 -28 -29 -31 c-53 -56 -64 -54 -116
20 -26 36 -58 77 -72 90 l-26 24 -28 -30 c-24 -25 -41 -31 -127 -46 -109 -18
-151 -41 -130 -74 8 -12 7 -31 -3 -68 -27 -100 -36 -125 -46 -125 -5 0 -6 10
-3 23 24 77 36 145 31 168 -4 19 0 33 17 52 19 21 41 28 122 42 72 12 103 21
113 34 7 10 25 24 42 30 21 9 36 28 53 66 13 31 27 50 32 45 5 -5 -3 -32 -20
-64z m1183 -48 c-3 -8 -6 -5 -6 6 -1 11 2 17 5 13 3 -3 4 -12 1 -19z m433 -38
c-19 -13 -30 -13 -30 0 0 6 10 10 23 10 18 0 19 -2 7 -10z m2700 -20 c0 -5 -2
-10 -4 -10 -3 0 -8 5 -11 10 -3 6 -1 10 4 10 6 0 11 -4 11 -10z m-4129 -17
c13 -16 12 -17 -3 -4 -10 7 -18 15 -18 17 0 8 8 3 21 -13z m528 -45 c11 -56
37 -187 62 -303 4 -22 15 -62 23 -90 19 -60 20 -88 4 -83 -15 5 -40 101 -74
283 -14 77 -28 144 -31 148 -9 15 -12 107 -4 107 5 0 14 -28 20 -62z m3571 18
c0 -3 -4 -8 -10 -11 -5 -3 -10 -1 -10 4 0 6 5 11 10 11 6 0 10 -2 10 -4z m-15
-36 c3 -5 1 -10 -4 -10 -6 0 -11 5 -11 10 0 6 2 10 4 10 3 0 8 -4 11 -10z
m-735 -80 c0 -5 -5 -10 -11 -10 -5 0 -7 5 -4 10 3 6 8 10 11 10 2 0 4 -4 4
-10z m735 -20 c3 -5 1 -10 -4 -10 -6 0 -11 5 -11 10 0 6 2 10 4 10 3 0 8 -4
11 -10z m-755 -10 c0 -5 -4 -10 -10 -10 -5 0 -10 5 -10 10 0 6 5 10 10 10 6 0
10 -4 10 -10z m287 -74 c13 -26 19 -45 14 -41 -16 9 -51 81 -50 102 0 14 2 15
6 3 3 -8 17 -37 30 -64z m-437 43 c0 -6 -4 -7 -10 -4 -5 3 -10 11 -10 16 0 6
5 7 10 4 6 -3 10 -11 10 -16z m900 7 c0 -3 -4 -8 -10 -11 -5 -3 -10 -1 -10 4
0 6 5 11 10 11 6 0 10 -2 10 -4z m-10 -36 c0 -5 -4 -10 -10 -10 -5 0 -10 5
-10 10 0 6 5 10 10 10 6 0 10 -4 10 -10z m-10 -44 c0 -7 10 -21 23 -30 20 -15
21 -16 2 -14 -11 2 -23 8 -27 13 -5 6 -8 5 -8 -2 0 -7 -5 -13 -11 -13 -7 0 -8
7 -4 18 4 9 8 23 8 30 1 17 17 15 17 -2z m-3040 -6 c0 -5 -4 -10 -10 -10 -5 0
-10 5 -10 10 0 6 5 10 10 10 6 0 10 -4 10 -10z m2632 -65 c68 -91 95 -137 128
-220 34 -87 34 -85 17 -85 -7 0 -42 -21 -78 -47 -91 -67 -340 -287 -328 -291
18 -7 9 -24 -10 -19 -11 3 -28 -1 -38 -7 -55 -37 -93 -56 -93 -48 0 6 15 19
33 31 37 24 29 28 -13 6 -16 -8 -31 -11 -34 -6 -3 5 20 20 52 35 31 14 73 41
93 58 207 186 343 294 393 311 15 5 -23 113 -59 167 -19 29 -35 54 -35 57 0 3
-15 24 -33 47 -19 23 -40 52 -47 66 -16 32 -4 19 52 -55z m-582 44 c0 -5 -4
-9 -10 -9 -5 0 -10 7 -10 16 0 8 5 12 10 9 6 -3 10 -10 10 -16z m140 17 c0 -3
-4 -8 -10 -11 -5 -3 -10 -1 -10 4 0 6 5 11 10 11 6 0 10 -2 10 -4z m-3231 -22
c2 -2 2 -7 -2 -10 -8 -9 -47 6 -47 17 0 9 37 3 49 -7z m4281 6 c0 -5 -7 -10
-15 -10 -8 0 -15 5 -15 10 0 6 7 10 15 10 8 0 15 -4 15 -10z m-590 -30 c12
-16 19 -30 16 -30 -2 0 -14 14 -26 30 -12 17 -19 30 -16 30 2 0 14 -13 26 -30z
m-3635 10 c3 -5 -3 -10 -14 -10 -12 0 -21 5 -21 10 0 6 6 10 14 10 8 0 18 -4
21 -10z m3975 0 c0 -5 -4 -10 -10 -10 -5 0 -10 5 -10 10 0 6 5 10 10 10 6 0
10 -4 10 -10z m-3915 -20 c-3 -5 -14 -6 -25 -3 -11 3 -18 9 -15 13 3 5 14 6
25 3 11 -3 18 -9 15 -13z m35 -10 c0 -5 -2 -10 -4 -10 -3 0 -8 5 -11 10 -3 6
-1 10 4 10 6 0 11 -4 11 -10z m3800 6 c0 -3 -4 -8 -10 -11 -5 -3 -10 -1 -10 4
0 6 5 11 10 11 6 0 10 -2 10 -4z m-70 -26 c0 -5 -4 -10 -10 -10 -5 0 -10 5
-10 10 0 6 5 10 10 10 6 0 10 -4 10 -10z m-115 -59 c18 -39 13 -35 -29 22 -22
31 -24 36 -8 26 11 -7 28 -29 37 -48z m45 49 c0 -5 -5 -10 -11 -10 -5 0 -7 5
-4 10 3 6 8 10 11 10 2 0 4 -4 4 -10z m-1500 -25 c0 -14 -4 -25 -10 -25 -5 0
-10 11 -10 25 0 14 5 25 10 25 6 0 10 -11 10 -25z m1470 15 c0 -5 -4 -10 -10
-10 -5 0 -10 5 -10 10 0 6 5 10 10 10 6 0 10 -4 10 -10z m-95 -40 c3 -5 1 -10
-4 -10 -6 0 -11 5 -11 10 0 6 2 10 4 10 3 0 8 -4 11 -10z m-2480 -20 c-3 -5
-13 -10 -21 -10 -8 0 -14 5 -14 10 0 6 9 10 21 10 11 0 17 -4 14 -10z m2450 0
c3 -5 1 -10 -4 -10 -6 0 -11 5 -11 10 0 6 2 10 4 10 3 0 8 -4 11 -10z m-30
-20 c3 -5 1 -10 -4 -10 -6 0 -11 5 -11 10 0 6 2 10 4 10 3 0 8 -4 11 -10z
m-151 -14 c-10 -8 -21 -12 -24 -10 -5 6 21 24 34 24 6 0 1 -6 -10 -14z m56 4
c0 -5 -4 -10 -10 -10 -5 0 -10 5 -10 10 0 6 5 10 10 10 6 0 10 -4 10 -10z m54
-21 c-21 -24 -30 -24 -37 0 -3 14 2 18 25 19 29 1 29 0 12 -19z m304 -92 c63
13 252 0 252 -18 0 -6 -17 -8 -43 -4 -79 12 -215 11 -228 -2 -9 -9 -8 -27 5
-77 25 -101 19 -91 -28 44 -23 69 -46 134 -50 145 -4 11 7 -6 24 -38 l31 -58
37 8z m-478 73 c0 -5 -4 -10 -10 -10 -5 0 -10 5 -10 10 0 6 5 10 10 10 6 0 10
-4 10 -10z m-175 -10 c3 -5 1 -10 -4 -10 -6 0 -11 5 -11 10 0 6 2 10 4 10 3 0
8 -4 11 -10z m35 0 c0 -5 -5 -10 -11 -10 -5 0 -7 5 -4 10 3 6 8 10 11 10 2 0
4 -4 4 -10z m40 6 c0 -3 -4 -8 -10 -11 -5 -3 -10 -1 -10 4 0 6 5 11 10 11 6 0
10 -2 10 -4z m30 -6 c0 -5 -2 -10 -4 -10 -3 0 -8 5 -11 10 -3 6 -1 10 4 10 6
0 11 -4 11 -10z m200 -10 c0 -11 -4 -20 -10 -20 -5 0 -10 9 -10 20 0 11 5 20
10 20 6 0 10 -9 10 -20z m-330 -10 c0 -5 -5 -10 -11 -10 -5 0 -7 5 -4 10 3 6
8 10 11 10 2 0 4 -4 4 -10z m-20 -30 c0 -5 -5 -10 -11 -10 -5 0 -7 5 -4 10 3
6 8 10 11 10 2 0 4 -4 4 -10z m340 -20 c0 -11 -4 -20 -10 -20 -5 0 -10 9 -10
20 0 11 5 20 10 20 6 0 10 -9 10 -20z m-47 -87 c-29 -54 -59 -82 -86 -83 -10
0 -20 -7 -23 -15 -4 -8 -16 -15 -28 -15 -12 0 -27 -5 -33 -11 -12 -12 -6 -49
8 -49 5 0 9 -5 9 -11 0 -21 -34 -3 -41 21 -7 29 23 70 53 70 10 0 18 4 18 9 0
5 14 12 31 16 20 5 37 18 48 37 23 42 51 78 61 78 5 0 -3 -21 -17 -47z m-1023
-23 c0 -5 -23 -96 -51 -201 -28 -105 -49 -202 -46 -215 4 -24 -15 -34 -28 -14
-3 6 19 105 49 220 31 116 56 212 56 215 0 3 5 5 10 5 6 0 10 -4 10 -10z
m1425 -171 c-10 -39 -19 -68 -22 -66 -2 3 3 32 11 65 9 33 17 70 17 83 1 19 2
20 6 6 3 -10 -3 -50 -12 -88z m-3121 19 c7 -27 -11 -240 -23 -272 -6 -16 -2
-28 19 -50 l28 -29 43 36 c43 38 55 42 83 31 19 -7 22 -28 4 -21 -7 2 -29 -9
-48 -25 -19 -16 -41 -34 -49 -40 -10 -8 10 -22 95 -63 60 -29 122 -66 138 -83
l29 -31 -49 -45 c-61 -55 -81 -49 -25 8 l41 42 -22 21 c-19 17 -178 103 -191
103 -2 0 -2 -14 1 -30 7 -46 -22 -190 -38 -190 -4 0 -1 33 6 73 20 99 16 155
-10 169 -12 6 -31 20 -43 31 l-22 20 -77 -74 c-55 -54 -84 -91 -104 -135 -47
-104 -48 -99 15 -125 30 -12 55 -26 55 -31 0 -12 -14 -10 -65 12 -26 11 -49
20 -51 20 -8 0 -44 -91 -44 -111 0 -10 -4 -19 -8 -19 -5 0 -14 -11 -20 -25 -9
-20 -5 -45 20 -136 25 -89 33 -108 39 -90 8 21 9 21 27 4 10 -10 13 -20 8 -22
-6 -2 -15 -9 -22 -15 -15 -14 2 -66 22 -66 8 0 14 -5 14 -11 0 -5 -4 -7 -10
-4 -5 3 -10 3 -10 -1 0 -7 48 -54 56 -54 2 0 4 25 4 55 0 30 5 55 10 55 6 0
10 -27 10 -60 l0 -60 115 0 115 0 0 35 c0 19 5 35 10 35 6 0 10 -20 10 -45 l0
-45 -120 0 c-97 0 -120 -3 -120 -14 0 -24 12 -46 21 -40 5 3 9 1 9 -4 0 -11
-24 -22 -46 -22 -8 0 -14 7 -14 15 0 8 -6 15 -14 15 -8 0 -105 -45 -216 -100
-138 -69 -212 -100 -235 -100 -35 0 -35 0 -35 -46 l0 -46 -53 6 c-42 6 -66 3
-108 -13 -64 -25 -76 -26 -59 -7 19 24 107 48 156 44 l45 -3 -3 35 c-3 30 -7
35 -37 41 -22 5 -47 22 -70 48 -51 58 -121 110 -139 103 -9 -3 -13 -1 -9 5 4
5 1 17 -6 25 -15 17 -134 121 -202 175 l-50 40 -95 -91 c-103 -98 -108 -101
-313 -166 -94 -30 -158 -36 -89 -8 33 13 33 14 27 58 -9 65 -27 86 -100 119
-36 17 -65 35 -65 40 0 15 1 14 58 -14 28 -14 54 -25 60 -25 23 0 60 -61 67
-108 l6 -49 72 22 c40 12 83 26 97 32 14 6 39 16 56 23 17 6 68 49 114 95 l84
85 -29 31 c-30 31 -214 194 -335 297 -57 48 -67 53 -99 48 -115 -17 -488 -29
-496 -17 -3 6 0 11 7 11 51 1 481 30 484 32 2 3 -41 28 -96 58 -55 29 -100 56
-100 60 0 26 44 13 153 -47 133 -72 182 -89 191 -67 4 11 12 10 43 -5 21 -11
61 -23 90 -27 49 -6 52 -5 58 17 6 25 12 163 14 327 1 63 5 92 12 90 12 -4 14
-286 2 -415 -6 -73 -6 -73 19 -73 36 0 114 -28 273 -100 244 -110 295 -129
353 -136 64 -7 112 -33 112 -60 0 -18 26 -18 33 0 3 8 33 27 66 42 59 26 61
28 61 64 0 21 7 43 15 50 8 7 15 25 15 39 0 15 25 87 55 161 42 100 52 135 43
141 -7 4 -43 18 -80 30 -37 12 -68 25 -68 30 0 19 21 16 89 -11 40 -17 75 -30
77 -30 2 0 11 14 20 32 9 17 50 69 90 115 72 80 74 84 68 123 -7 43 1 51 21
23 11 -15 15 -15 29 -4 18 15 22 71 4 71 -6 0 -4 7 5 18 21 23 21 32 0 48 -17
13 -17 13 0 14 9 0 17 8 17 18 0 14 -8 16 -51 13 -67 -4 -57 14 12 23 l51 7
-6 34 c-8 38 8 49 18 13z m1376 -14 c0 -14 -3 -14 -15 -4 -8 7 -15 14 -15 16
0 2 7 4 15 4 8 0 15 -7 15 -16z m557 -26 c-3 -8 -6 -5 -6 6 -1 11 2 17 5 13 3
-3 4 -12 1 -19z m733 12 c0 -5 -4 -10 -10 -10 -5 0 -10 5 -10 10 0 6 5 10 10
10 6 0 10 -4 10 -10z m855 -39 c-3 -12 -11 -19 -16 -16 -5 4 -5 14 2 26 13 26
23 18 14 -10z m-30 -31 c6 0 11 -36 13 -82 2 -46 7 -112 12 -148 13 -88 13
-300 0 -300 -5 0 -10 7 -10 15 0 14 -22 15 -177 9 -98 -3 -209 -12 -247 -19
-63 -11 -75 -11 -124 6 -31 11 -58 19 -62 19 -3 0 -21 -45 -40 -99 -19 -55
-36 -98 -38 -96 -2 2 13 55 34 119 21 63 41 110 45 104 4 -6 32 -19 63 -28 50
-16 63 -16 128 -4 40 8 120 14 178 14 58 0 136 3 174 7 l69 6 -6 136 c-5 125
-29 291 -46 319 -5 8 -26 8 -81 1 -60 -8 -102 -24 -212 -78 -117 -57 -134 -63
-111 -39 18 19 29 44 34 76 l6 47 2 -42 c0 -24 5 -43 10 -43 5 0 49 19 98 42
86 42 211 72 258 62 11 -2 25 -4 30 -4z m-4065 -54 c0 -13 -3 -44 -6 -70 l-7
-47 -38 6 c-27 5 -39 3 -39 -5 0 -6 -4 -8 -10 -5 -5 3 -10 13 -10 22 0 12 8
15 39 10 44 -5 51 4 51 76 0 20 5 37 10 37 6 0 10 -11 10 -24z m450 -6 c0 -5
-9 -10 -20 -10 -11 0 -20 5 -20 10 0 6 9 10 20 10 11 0 20 -4 20 -10z m1850
-60 c0 -5 -5 -10 -11 -10 -5 0 -7 5 -4 10 3 6 8 10 11 10 2 0 4 -4 4 -10z
m-30 -14 c0 -3 -4 -8 -10 -11 -5 -3 -10 -1 -10 4 0 6 5 11 10 11 6 0 10 -2 10
-4z m-35 -16 c3 -5 1 -10 -4 -10 -6 0 -11 5 -11 10 0 6 2 10 4 10 3 0 8 -4 11
-10z m-25 -14 c0 -3 -4 -8 -10 -11 -5 -3 -10 -1 -10 4 0 6 5 11 10 11 6 0 10
-2 10 -4z m1341 -55 c-23 -23 -41 -39 -41 -36 0 9 73 86 77 81 3 -2 -14 -23
-36 -45z m-1496 -20 c3 -5 1 -12 -5 -16 -5 -3 -10 1 -10 9 0 18 6 21 15 7z
m1446 -77 c-5 -21 -9 -30 -10 -19 -1 24 10 67 15 62 3 -2 0 -22 -5 -43z
m-1526 6 c3 -5 1 -10 -4 -10 -6 0 -11 5 -11 10 0 6 2 10 4 10 3 0 8 -4 11 -10z
m-25 -20 c0 -5 -4 -10 -10 -10 -5 0 -10 5 -10 10 0 6 5 10 10 10 6 0 10 -4 10
-10z m-35 -10 c3 -5 1 -10 -4 -10 -6 0 -11 5 -11 10 0 6 2 10 4 10 3 0 8 -4
11 -10z m-537 -28 c6 -18 -15 -14 -22 4 -4 10 -1 14 6 12 6 -2 14 -10 16 -16z
m502 8 c0 -5 -2 -10 -4 -10 -3 0 -8 5 -11 10 -3 6 -1 10 4 10 6 0 11 -4 11
-10z m-5225 -11 c10 -15 2 -19 -23 -12 -12 3 -19 9 -16 14 7 12 31 11 39 -2z
m5195 1 c0 -5 -5 -10 -11 -10 -5 0 -7 5 -4 10 3 6 8 10 11 10 2 0 4 -4 4 -10z
m-4935 -30 c55 -6 165 -19 245 -29 160 -22 378 -45 570 -61 138 -11 226 -29
196 -40 -10 -3 -46 -1 -80 6 -33 7 -146 17 -249 23 -176 11 -248 19 -642 71
-206 28 -215 29 -215 41 0 7 14 8 38 5 20 -4 82 -11 137 -16z m4435 -5 c0 -8
-4 -15 -10 -15 -5 0 -10 7 -10 15 0 8 5 15 10 15 6 0 10 -7 10 -15z m1375 -48
c10 -26 15 -50 12 -54 -9 -8 -56 99 -50 110 8 13 18 -3 38 -56z m-1065 43 c0
-5 -4 -10 -10 -10 -5 0 -10 5 -10 10 0 6 5 10 10 10 6 0 10 -4 10 -10z m125
-19 c3 -5 1 -12 -5 -16 -5 -3 -10 1 -10 9 0 18 6 21 15 7z m-5071 -7 c9 -3 16
-10 16 -15 0 -12 -101 0 -114 12 -11 10 73 12 98 3z m5001 -4 c3 -5 1 -10 -4
-10 -6 0 -11 5 -11 10 0 6 2 10 4 10 3 0 8 -4 11 -10z m-714 -20 c11 0 19 -4
19 -10 0 -11 -52 -13 -87 -4 -34 9 -16 27 19 20 17 -3 39 -6 49 -6z m779 -10
c0 -5 -5 -10 -11 -10 -5 0 -7 5 -4 10 3 6 8 10 11 10 2 0 4 -4 4 -10z m-135
-39 c3 -5 1 -12 -5 -16 -5 -3 -10 1 -10 9 0 18 6 21 15 7z m59 3 c9 -3 16 -10
16 -14 0 -7 -21 -7 -60 -1 -4 1 21 20 27 21 1 0 8 -3 17 -6z m66 -14 c0 -22
-7 -25 -30 -10 -13 8 -12 10 3 10 10 0 15 5 12 10 -3 6 -1 10 4 10 6 0 11 -9
11 -20z m-730 -20 c0 -5 -7 -10 -15 -10 -8 0 -15 5 -15 10 0 6 7 10 15 10 8 0
15 -4 15 -10z m-3020 -21 c0 -5 -4 -9 -10 -9 -5 0 -10 7 -10 16 0 8 5 12 10 9
6 -3 10 -10 10 -16z m3620 11 c0 -5 -5 -10 -11 -10 -5 0 -7 5 -4 10 3 6 8 10
11 10 2 0 4 -4 4 -10z m2460 -20 c0 -11 -4 -20 -10 -20 -5 0 -10 9 -10 20 0
11 5 20 10 20 6 0 10 -9 10 -20z m-2330 0 c0 -5 -4 -10 -10 -10 -5 0 -10 5
-10 10 0 6 5 10 10 10 6 0 10 -4 10 -10z m-70 -10 c0 -5 -4 -10 -10 -10 -5 0
-10 5 -10 10 0 6 5 10 10 10 6 0 10 -4 10 -10z m-60 -4 c0 -3 -4 -8 -10 -11
-5 -3 -10 -1 -10 4 0 6 5 11 10 11 6 0 10 -2 10 -4z m-3290 -36 c8 -5 12 -11
10 -14 -9 -8 -90 6 -90 15 0 12 61 11 80 -1z m5750 -10 c0 -11 -4 -20 -10 -20
-5 0 -10 9 -10 20 0 11 5 20 10 20 6 0 10 -9 10 -20z m-3150 0 c0 -5 -4 -10
-10 -10 -5 0 -10 5 -10 10 0 6 5 10 10 10 6 0 10 -4 10 -10z m55 -69 c-6 -66
-17 -92 -28 -74 -5 8 10 113 19 142 11 33 16 -3 9 -68z m115 59 c0 -5 -2 -10
-4 -10 -3 0 -8 5 -11 10 -3 6 -1 10 4 10 6 0 11 -4 11 -10z m40 6 c0 -3 -4 -8
-10 -11 -5 -3 -10 -1 -10 4 0 6 5 11 10 11 6 0 10 -2 10 -4z m40 -6 c0 -5 -7
-10 -15 -10 -8 0 -15 5 -15 10 0 6 7 10 15 10 8 0 15 -4 15 -10z m-310 -20 c0
-5 -4 -10 -10 -10 -5 0 -10 5 -10 10 0 6 5 10 10 10 6 0 10 -4 10 -10z m-30
-14 c0 -3 -4 -8 -10 -11 -5 -3 -10 -1 -10 4 0 6 5 11 10 11 6 0 10 -2 10 -4z
m3240 -16 c0 -11 -4 -20 -10 -20 -5 0 -10 9 -10 20 0 11 5 20 10 20 6 0 10 -9
10 -20z m-2820 0 c0 -5 -4 -10 -10 -10 -5 0 -10 5 -10 10 0 6 5 10 10 10 6 0
10 -4 10 -10z m70 -10 c0 -5 -4 -10 -10 -10 -5 0 -10 5 -10 10 0 6 5 10 10 10
6 0 10 -4 10 -10z m-610 -9 c0 -5 -7 -12 -16 -15 -24 -9 -28 -7 -14 9 14 17
30 20 30 6z m680 -1 c0 -5 -4 -10 -10 -10 -5 0 -10 5 -10 10 0 6 5 10 10 10 6
0 10 -4 10 -10z m-797 -77 c12 -4 25 -6 29 -5 3 1 9 -5 12 -13 3 -9 -1 -15 -9
-15 -8 0 -15 5 -15 11 0 6 -6 9 -14 6 -8 -3 -17 -1 -20 6 -3 9 -7 9 -14 -1 -7
-11 -11 -8 -15 9 -4 14 -1 26 6 31 7 4 13 2 15 -7 2 -8 13 -17 25 -22z m87 17
c0 -5 -12 -10 -27 -9 -25 0 -26 1 -8 9 27 12 35 12 35 0z m-155 -20 c3 -5 1
-10 -4 -10 -6 0 -11 5 -11 10 0 6 2 10 4 10 3 0 8 -4 11 -10z m-38 -35 c-12
-8 -14 -15 -8 -20 14 -8 14 -25 1 -25 -5 0 -10 7 -10 15 0 8 -6 15 -12 15 -7
0 -2 9 12 20 14 10 27 16 30 13 3 -2 -3 -11 -13 -18z m2855 3 c-6 -6 -16 -7
-22 -3 -9 6 -9 9 1 16 17 10 34 0 21 -13z m-2782 -12 c0 -8 6 -16 12 -18 7 -3
2 -7 -10 -10 -18 -5 -22 -2 -22 18 0 13 5 24 10 24 6 0 10 -6 10 -14z m110 4
c0 -5 -4 -10 -10 -10 -5 0 -10 5 -10 10 0 6 5 10 10 10 6 0 10 -4 10 -10z
m194 -8 l60 -7 1 -75 c2 -69 23 -148 47 -174 11 -13 10 -26 -2 -26 -12 0 -50
73 -50 95 0 9 -7 18 -16 22 -13 5 -13 7 -2 15 10 7 10 11 -4 22 -19 14 -25 32
-8 21 6 -4 10 11 10 38 l0 44 -52 6 c-80 10 -92 13 -96 25 -2 8 6 10 25 7 15
-3 55 -9 87 -13z m-164 -2 c0 -5 -2 -10 -4 -10 -3 0 -8 5 -11 10 -3 6 -1 10 4
10 6 0 11 -4 11 -10z m40 6 c0 -3 -4 -8 -10 -11 -5 -3 -10 -1 -10 4 0 6 5 11
10 11 6 0 10 -2 10 -4z m-300 -16 c0 -5 -5 -10 -11 -10 -5 0 -7 5 -4 10 3 6 8
10 11 10 2 0 4 -4 4 -10z m-1750 -50 c0 -53 -3 -58 -26 -36 -16 17 -19 46 -4
46 6 0 10 9 10 20 0 11 5 20 10 20 6 0 10 -22 10 -50z m1830 40 c0 -5 -5 -10
-11 -10 -5 0 -7 5 -4 10 3 6 8 10 11 10 2 0 4 -4 4 -10z m160 0 c0 -5 -4 -10
-10 -10 -5 0 -10 5 -10 10 0 6 5 10 10 10 6 0 10 -4 10 -10z m-270 -10 c0 -5
-5 -10 -11 -10 -5 0 -7 5 -4 10 3 6 8 10 11 10 2 0 4 -4 4 -10z m560 0 c0 -5
-4 -10 -10 -10 -5 0 -10 5 -10 10 0 6 5 10 10 10 6 0 10 -4 10 -10z m-510 -10
c0 -5 -4 -10 -10 -10 -5 0 -10 5 -10 10 0 6 5 10 10 10 6 0 10 -4 10 -10z
m135 0 c3 -5 1 -10 -4 -10 -6 0 -11 5 -11 10 0 6 2 10 4 10 3 0 8 -4 11 -10z
m-215 -10 c0 -5 -4 -10 -10 -10 -5 0 -10 5 -10 10 0 6 5 10 10 10 6 0 10 -4
10 -10z m50 -10 c0 -5 -4 -10 -10 -10 -5 0 -10 5 -10 10 0 6 5 10 10 10 6 0
10 -4 10 -10z m-80 -4 c0 -3 -4 -8 -10 -11 -5 -3 -10 -1 -10 4 0 6 5 11 10 11
6 0 10 -2 10 -4z m270 -12 c0 -8 -4 -12 -10 -9 -5 3 -10 10 -10 16 0 5 5 9 10
9 6 0 10 -7 10 -16z m180 12 c0 -3 -4 -8 -10 -11 -5 -3 -10 -1 -10 4 0 6 5 11
10 11 6 0 10 -2 10 -4z m215 -16 c3 -5 1 -10 -4 -10 -6 0 -11 5 -11 10 0 6 2
10 4 10 3 0 8 -4 11 -10z m-447 -42 c-22 -13 -28 -9 -28 19 0 26 0 26 20 8 16
-14 17 -20 8 -27z m112 17 c0 -14 -4 -25 -10 -25 -5 0 -10 11 -10 25 0 14 5
25 10 25 6 0 10 -11 10 -25z m2380 15 c12 -8 9 -10 -13 -10 -16 0 -26 4 -22
10 8 12 16 12 35 0z m-2274 -27 c-10 -10 -19 5 -10 18 6 11 8 11 12 0 2 -7 1
-15 -2 -18z m2339 17 c4 -6 -5 -10 -20 -10 -15 0 -24 4 -20 10 3 6 12 10 20
10 8 0 17 -4 20 -10z m-2515 -10 c0 -5 -4 -10 -10 -10 -5 0 -10 5 -10 10 0 6
5 10 10 10 6 0 10 -4 10 -10z m35 0 c3 -5 1 -10 -4 -10 -6 0 -11 5 -11 10 0 6
2 10 4 10 3 0 8 -4 11 -10z m70 0 c3 -5 1 -10 -4 -10 -6 0 -11 5 -11 10 0 6 2
10 4 10 3 0 8 -4 11 -10z m35 0 c0 -5 -4 -10 -10 -10 -5 0 -10 5 -10 10 0 6 5
10 10 10 6 0 10 -4 10 -10z m75 0 c3 -5 1 -10 -4 -10 -6 0 -11 5 -11 10 0 6 2
10 4 10 3 0 8 -4 11 -10z m35 0 c0 -5 -4 -10 -10 -10 -5 0 -10 5 -10 10 0 6 5
10 10 10 6 0 10 -4 10 -10z m95 0 c3 -5 1 -10 -4 -10 -6 0 -11 5 -11 10 0 6 2
10 4 10 3 0 8 -4 11 -10z m35 0 c0 -5 -5 -10 -11 -10 -5 0 -7 5 -4 10 3 6 8
10 11 10 2 0 4 -4 4 -10z m35 0 c3 -5 1 -10 -4 -10 -6 0 -11 5 -11 10 0 6 2
10 4 10 3 0 8 -4 11 -10z m2160 0 c4 -6 -5 -10 -19 -10 -14 0 -26 5 -26 10 0
6 9 10 19 10 11 0 23 -4 26 -10z m-2718 -22 c-3 -8 -6 -5 -6 6 -1 11 2 17 5
13 3 -3 4 -12 1 -19z m600 16 c-3 -3 -12 -4 -19 -1 -8 3 -5 6 6 6 11 1 17 -2
13 -5z m2173 -4 c0 -5 -9 -10 -20 -10 -11 0 -20 5 -20 10 0 6 9 10 20 10 11 0
20 -4 20 -10z m60 -10 c0 -5 -6 -10 -14 -10 -8 0 -18 5 -21 10 -3 6 3 10 14
10 12 0 21 -4 21 -10z m60 -10 c0 -5 -9 -10 -20 -10 -11 0 -20 5 -20 10 0 6 9
10 20 10 11 0 20 -4 20 -10z m-2800 -10 c0 -5 -5 -10 -11 -10 -5 0 -7 5 -4 10
3 6 8 10 11 10 2 0 4 -4 4 -10z m240 -22 c0 -3 -20 -6 -45 -6 -25 0 -45 3 -45
8 0 5 14 8 32 8 18 -1 34 5 36 12 4 10 6 9 13 -1 5 -8 9 -17 9 -21z m2620 22
c0 -5 -9 -10 -20 -10 -11 0 -20 5 -20 10 0 6 9 10 20 10 11 0 20 -4 20 -10z
m-3105 -10 c3 -5 1 -10 -4 -10 -6 0 -11 5 -11 10 0 6 2 10 4 10 3 0 8 -4 11
-10z m165 -11 c0 -5 -7 -9 -15 -9 -9 0 -12 6 -9 15 6 15 24 11 24 -6z m200
-16 c-10 -16 -11 -16 -6 0 3 9 1 17 -5 17 -6 0 -7 5 -3 11 4 7 10 7 16 1 7 -7
6 -16 -2 -29z m190 27 c0 -5 -4 -10 -10 -10 -5 0 -10 5 -10 10 0 6 5 10 10 10
6 0 10 -4 10 -10z m2610 0 c0 -5 -9 -10 -20 -10 -11 0 -20 5 -20 10 0 6 9 10
20 10 11 0 20 -4 20 -10z m60 -10 c0 -5 -9 -10 -20 -10 -11 0 -20 5 -20 10 0
6 9 10 20 10 11 0 20 -4 20 -10z m-3020 -4 c0 -3 -4 -8 -10 -11 -5 -3 -10 -1
-10 4 0 6 5 11 10 11 6 0 10 -2 10 -4z m40 -11 c0 -9 -6 -12 -15 -9 -8 4 -15
10 -15 15 0 5 7 9 15 9 8 0 15 -7 15 -15z m3040 5 c0 -5 -9 -10 -20 -10 -11 0
-20 5 -20 10 0 6 9 10 20 10 11 0 20 -4 20 -10z m60 -10 c0 -5 -9 -10 -20 -10
-11 0 -20 5 -20 10 0 6 9 10 20 10 11 0 20 -4 20 -10z m60 -10 c0 -5 -6 -10
-14 -10 -8 0 -18 5 -21 10 -3 6 3 10 14 10 12 0 21 -4 21 -10z m80 -10 c0 -5
-11 -10 -24 -10 -14 0 -28 5 -31 10 -4 6 7 10 24 10 17 0 31 -4 31 -10z
m-3240 -27 c0 -21 -3 -24 -9 -14 -5 8 -7 20 -4 28 8 21 13 15 13 -14z m3300
17 c0 -5 -9 -10 -20 -10 -11 0 -20 5 -20 10 0 6 9 10 20 10 11 0 20 -4 20 -10z
m-3370 -10 c0 -5 -4 -10 -10 -10 -5 0 -10 5 -10 10 0 6 5 10 10 10 6 0 10 -4
10 -10z m35 0 c3 -5 1 -10 -4 -10 -6 0 -11 5 -11 10 0 6 2 10 4 10 3 0 8 -4
11 -10z m165 0 c0 -5 -4 -10 -10 -10 -5 0 -10 5 -10 10 0 6 5 10 10 10 6 0 10
-4 10 -10z m80 0 c0 -5 -4 -10 -10 -10 -5 0 -10 5 -10 10 0 6 5 10 10 10 6 0
10 -4 10 -10z m3145 0 c3 -5 -3 -10 -14 -10 -11 0 -23 5 -26 10 -3 6 3 10 14
10 11 0 23 -4 26 -10z m58 -11 c-8 -8 -16 -8 -30 0 -16 9 -14 10 12 11 21 0
26 -3 18 -11z m57 -11 c0 -6 -7 -7 -16 -4 -9 3 -18 6 -20 6 -3 0 -3 4 1 10 7
11 35 2 35 -12z m-2975 -8 c3 -5 1 -10 -4 -10 -6 0 -11 5 -11 10 0 6 2 10 4
10 3 0 8 -4 11 -10z m35 0 c0 -5 -4 -10 -10 -10 -5 0 -10 5 -10 10 0 6 5 10
10 10 6 0 10 -4 10 -10z m2990 0 c8 -5 12 -12 9 -15 -8 -8 -39 5 -39 16 0 11
11 11 30 -1z m-3420 -44 c0 -3 -4 -8 -10 -11 -5 -3 -10 -1 -10 4 0 6 5 11 10
11 6 0 10 -2 10 -4z m30 -6 c0 -5 -4 -10 -10 -10 -5 0 -10 5 -10 10 0 6 5 10
10 10 6 0 10 -4 10 -10z m40 6 c0 -3 -4 -8 -10 -11 -5 -3 -10 -1 -10 4 0 6 5
11 10 11 6 0 10 -2 10 -4z m-300 -36 c0 -5 -4 -10 -10 -10 -5 0 -10 5 -10 10
0 6 5 10 10 10 6 0 10 -4 10 -10z m30 0 c0 -5 -2 -10 -4 -10 -3 0 -8 5 -11 10
-3 6 -1 10 4 10 6 0 11 -4 11 -10z m40 6 c0 -3 -4 -8 -10 -11 -5 -3 -10 -1
-10 4 0 6 5 11 10 11 6 0 10 -2 10 -4z m30 -6 c0 -5 -2 -10 -4 -10 -3 0 -8 5
-11 10 -3 6 -1 10 4 10 6 0 11 -4 11 -10z m40 6 c0 -3 -4 -8 -10 -11 -5 -3
-10 -1 -10 4 0 6 5 11 10 11 6 0 10 -2 10 -4z m30 -6 c0 -5 -2 -10 -4 -10 -3
0 -8 5 -11 10 -3 6 -1 10 4 10 6 0 11 -4 11 -10z m40 6 c0 -3 -4 -8 -10 -11
-5 -3 -10 -1 -10 4 0 6 5 11 10 11 6 0 10 -2 10 -4z m55 -15 c-13 -14 -17 -14
-30 0 -14 14 -13 16 15 16 28 0 29 -2 15 -16z m45 9 c0 -5 -2 -10 -4 -10 -3 0
-8 5 -11 10 -3 6 -1 10 4 10 6 0 11 -4 11 -10z m30 0 c0 -5 -4 -10 -10 -10 -5
0 -10 5 -10 10 0 6 5 10 10 10 6 0 10 -4 10 -10z m140 6 c0 -3 -4 -8 -10 -11
-5 -3 -10 -1 -10 4 0 6 5 11 10 11 6 0 10 -2 10 -4z m30 -6 c0 -5 -2 -10 -4
-10 -3 0 -8 5 -11 10 -3 6 -1 10 4 10 6 0 11 -4 11 -10z m-85 -30 c3 -5 1 -10
-4 -10 -6 0 -11 5 -11 10 0 6 2 10 4 10 3 0 8 -4 11 -10z m-365 -10 c0 -5 -4
-10 -10 -10 -5 0 -10 5 -10 10 0 6 5 10 10 10 6 0 10 -4 10 -10z m40 6 c0 -3
-4 -8 -10 -11 -5 -3 -10 -1 -10 4 0 6 5 11 10 11 6 0 10 -2 10 -4z m30 -6 c0
-5 -2 -10 -4 -10 -3 0 -8 5 -11 10 -3 6 -1 10 4 10 6 0 11 -4 11 -10z m40 6
c0 -3 -4 -8 -10 -11 -5 -3 -10 -1 -10 4 0 6 5 11 10 11 6 0 10 -2 10 -4z m30
-6 c0 -5 -4 -10 -10 -10 -5 0 -10 5 -10 10 0 6 5 10 10 10 6 0 10 -4 10 -10z
m70 0 c0 -6 -11 -10 -25 -10 -14 0 -25 4 -25 8 0 4 11 9 25 10 14 1 25 -3 25
-8z m40 6 c0 -3 -4 -8 -10 -11 -5 -3 -10 -1 -10 4 0 6 5 11 10 11 6 0 10 -2
10 -4z m30 -6 c0 -5 -4 -10 -10 -10 -5 0 -10 5 -10 10 0 6 5 10 10 10 6 0 10
-4 10 -10z m-1690 -10 c0 -5 -4 -10 -10 -10 -5 0 -10 5 -10 10 0 6 5 10 10 10
6 0 10 -4 10 -10z m1780 -20 c0 -5 -4 -10 -10 -10 -5 0 -10 5 -10 10 0 6 5 10
10 10 6 0 10 -4 10 -10z m-167 -20 c6 -23 -10 -37 -24 -23 -10 10 -2 43 11 43
4 0 10 -9 13 -20z m75 -5 c0 -14 -4 -25 -9 -25 -5 0 -9 11 -9 25 0 14 4 25 9
25 5 0 9 -11 9 -25z m-368 6 c0 -5 -5 -11 -10 -13 -16 -5 -14 -249 2 -260 11
-6 11 -10 0 -16 -11 -7 -11 -35 -2 -153 6 -79 13 -145 15 -147 8 -8 380 70
393 83 3 3 -5 51 -18 107 -27 120 -40 308 -21 308 7 0 9 -4 6 -10 -4 -6 28 -7
90 -3 68 4 95 3 95 -5 0 -7 -17 -12 -40 -12 -46 0 -48 -8 -29 -88 12 -48 29
-78 29 -52 0 13 2 13 10 0 18 -28 11 -40 -20 -36 -17 2 -33 0 -36 -5 -2 -4
-11 -6 -19 -2 -8 3 -15 0 -15 -7 0 -7 -7 -10 -15 -7 -8 4 -17 2 -20 -3 -8 -13
18 -112 31 -117 7 -3 47 2 89 11 87 18 115 20 115 8 0 -5 -45 -17 -100 -27
-67 -12 -100 -23 -100 -32 0 -15 26 -18 35 -3 7 12 35 14 35 3 0 -5 -14 -16
-31 -25 -17 -10 -28 -22 -24 -28 3 -5 11 -51 16 -102 6 -51 15 -110 20 -131 9
-35 13 -38 37 -33 15 3 57 10 93 17 l66 11 -15 61 c-8 34 -24 75 -35 90 -26
38 -11 50 17 14 20 -24 64 -173 55 -181 -5 -5 -192 -36 -212 -36 -15 0 -29 45
-42 140 -4 25 -13 69 -22 98 -15 55 -19 57 -83 35 -8 -3 -91 -20 -183 -38
-146 -28 -170 -35 -185 -56 -32 -47 -81 -94 -88 -86 -4 4 7 22 24 40 18 18 32
38 32 43 0 6 9 19 21 29 18 17 19 26 13 100 -3 44 -10 84 -15 89 -5 6 -9 36
-9 68 0 32 -4 58 -10 58 -5 0 -10 7 -10 15 0 8 7 15 15 15 13 0 15 22 15 140
0 133 1 140 20 140 11 0 20 -4 20 -9z m-860 -5 c0 -3 -4 -8 -10 -11 -5 -3 -10
-1 -10 4 0 6 5 11 10 11 6 0 10 -2 10 -4z m1190 -6 c0 -5 -4 -10 -10 -10 -5 0
-10 5 -10 10 0 6 5 10 10 10 6 0 10 -4 10 -10z m65 0 c3 -5 1 -10 -4 -10 -6 0
-11 5 -11 10 0 6 2 10 4 10 3 0 8 -4 11 -10z m-1585 -10 c0 -5 -4 -10 -10 -10
-5 0 -10 5 -10 10 0 6 5 10 10 10 6 0 10 -4 10 -10z m1330 6 c0 -11 -19 -15
-25 -6 -3 5 1 10 9 10 9 0 16 -2 16 -4z m30 -6 c0 -5 -2 -10 -4 -10 -3 0 -8 5
-11 10 -3 6 -1 10 4 10 6 0 11 -4 11 -10z m40 6 c0 -3 -4 -8 -10 -11 -5 -3
-10 -1 -10 4 0 6 5 11 10 11 6 0 10 -2 10 -4z m30 0 c0 -3 -4 -8 -10 -11 -5
-3 -10 -1 -10 4 0 6 5 11 10 11 6 0 10 -2 10 -4z m-1370 -36 c0 -5 -4 -10 -10
-10 -5 0 -10 5 -10 10 0 6 5 10 10 10 6 0 10 -4 10 -10z m170 -10 c0 -13 -74
-38 -100 -33 -14 2 -63 -2 -110 -10 -82 -15 -116 -13 -89 3 7 5 39 12 71 15
32 4 61 11 64 16 3 5 29 6 57 3 38 -4 57 -2 72 9 19 15 35 14 35 -3z m-489
-20 c19 0 43 -7 53 -15 11 -8 30 -15 43 -15 13 0 23 -4 23 -10 0 -16 -52 -11
-72 7 -17 15 -18 15 -18 -10 0 -15 -4 -27 -10 -27 -5 0 -10 11 -10 25 0 20 -5
25 -27 25 -14 0 -34 -6 -42 -14 -34 -29 -184 -76 -251 -79 -66 -3 -69 -5 -126
-55 -32 -29 -62 -52 -66 -52 -19 0 -5 18 36 50 25 18 47 39 50 46 7 17 73 35
128 33 38 -1 115 23 201 62 15 7 27 20 26 28 -3 30 2 36 15 19 8 -11 27 -18
47 -18z m1819 20 c0 -5 -4 -10 -10 -10 -5 0 -10 5 -10 10 0 6 5 10 10 10 6 0
10 -4 10 -10z m95 -20 c3 -5 1 -10 -4 -10 -6 0 -11 5 -11 10 0 6 2 10 4 10 3
0 8 -4 11 -10z m-2285 -9 c0 -17 -125 -47 -135 -32 -2 5 21 15 53 24 72 18 82
19 82 8z m1090 0 c0 -13 -28 -22 -35 -11 -3 4 1 11 7 13 20 8 28 8 28 -2z m50
-1 c8 -5 12 -12 9 -15 -8 -8 -39 5 -39 16 0 11 11 11 30 -1z m970 0 c0 -5 -2
-10 -4 -10 -3 0 -8 5 -11 10 -3 6 -1 10 4 10 6 0 11 -4 11 -10z m-1070 -20 c0
-5 -9 -10 -21 -10 -11 0 -17 5 -14 10 3 6 13 10 21 10 8 0 14 -4 14 -10z
m-1280 -19 c0 -15 -27 -20 -150 -27 -88 -5 -120 -4 -120 4 0 7 18 12 43 13 23
1 53 5 67 9 35 11 160 12 160 1z m1225 -1 c-3 -5 -13 -10 -21 -10 -8 0 -14 5
-14 10 0 6 9 10 21 10 11 0 17 -4 14 -10z m1471 -27 c3 -21 12 -69 20 -106 16
-80 18 -137 4 -137 -5 0 -10 12 -10 28 0 15 -9 73 -20 130 -23 118 -23 122
-10 122 5 0 12 -17 16 -37z m-2996 7 c0 -5 -8 -10 -18 -10 -40 0 -279 -31
-316 -41 -23 -6 -87 -33 -144 -60 -74 -34 -109 -46 -123 -40 -34 12 227 126
333 144 97 18 268 22 268 7z m1465 0 c-3 -5 -13 -10 -21 -10 -8 0 -14 5 -14
10 0 6 9 10 21 10 11 0 17 -4 14 -10z m-60 -19 c-8 -13 -35 -15 -35 -2 0 5 8
11 18 13 21 5 26 2 17 -11z m-50 -11 c4 -6 -5 -10 -20 -10 -15 0 -24 4 -20 10
3 6 12 10 20 10 8 0 17 -4 20 -10z m-180 -10 c4 -6 -5 -10 -20 -10 -15 0 -24
4 -20 10 3 6 12 10 20 10 8 0 17 -4 20 -10z m65 0 c0 -5 -9 -10 -20 -10 -11 0
-20 5 -20 10 0 6 9 10 20 10 11 0 20 -4 20 -10z m55 0 c-3 -5 -12 -10 -20 -10
-8 0 -17 5 -20 10 -4 6 5 10 20 10 15 0 24 -4 20 -10z m1575 0 c0 -5 -4 -10
-10 -10 -5 0 -10 5 -10 10 0 6 5 10 10 10 6 0 10 -4 10 -10z m-1886 -20 c-10
-4 -21 -6 -24 -3 -8 7 24 22 34 16 5 -4 1 -10 -10 -13z m76 10 c0 -5 -9 -10
-20 -10 -11 0 -20 5 -20 10 0 6 9 10 20 10 11 0 20 -4 20 -10z m55 0 c-3 -5
-12 -10 -20 -10 -8 0 -17 5 -20 10 -4 6 5 10 20 10 15 0 24 -4 20 -10z m-235
-10 c0 -5 -9 -10 -20 -10 -11 0 -20 5 -20 10 0 6 9 10 20 10 11 0 20 -4 20
-10z m70 -4 c0 -10 36 -23 120 -42 66 -15 120 -31 120 -36 0 -4 75 -8 168 -8
144 0 209 -8 192 -23 -3 -2 -120 0 -260 5 -140 4 -269 6 -287 3 -18 -3 -40
-16 -50 -29 -14 -18 -22 -21 -35 -12 -13 8 -34 -2 -101 -46 -46 -31 -106 -68
-133 -82 -27 -15 -93 -53 -148 -86 -106 -65 -181 -88 -174 -54 2 14 12 19 38
19 35 0 110 37 201 101 25 17 55 35 67 38 12 4 27 16 32 27 6 10 19 19 29 19
23 0 170 95 177 115 5 12 27 15 108 16 l101 1 -70 18 c-38 10 -82 19 -97 19
-20 1 -26 5 -22 16 4 9 0 15 -10 15 -9 0 -16 5 -16 10 0 6 11 10 25 10 15 0
25 -6 25 -14z m-250 -6 c0 -5 -9 -10 -20 -10 -11 0 -20 5 -20 10 0 6 9 10 20
10 11 0 20 -4 20 -10z m60 0 c0 -5 -9 -10 -20 -10 -11 0 -20 5 -20 10 0 6 9
10 20 10 11 0 20 -4 20 -10z m50 0 c-19 -13 -30 -13 -30 0 0 6 10 10 23 10 18
0 19 -2 7 -10z m-220 -10 c0 -5 -9 -10 -20 -10 -11 0 -20 5 -20 10 0 6 9 10
20 10 11 0 20 -4 20 -10z m42 -2 c-9 -9 -15 -9 -24 0 -9 9 -7 12 12 12 19 0
21 -3 12 -12z m1508 -4 c0 -14 -3 -14 -15 -4 -8 7 -15 14 -15 16 0 2 7 4 15 4
8 0 15 -7 15 -16z m520 6 c0 -5 -4 -10 -10 -10 -5 0 -10 5 -10 10 0 6 5 10 10
10 6 0 10 -4 10 -10z m220 0 c0 -5 -4 -10 -10 -10 -5 0 -10 5 -10 10 0 6 5 10
10 10 6 0 10 -4 10 -10z m-2360 -25 c-7 -8 -17 -12 -23 -8 -6 4 -3 11 8 19 23
17 32 10 15 -11z m2070 15 c0 -5 -13 -10 -29 -10 -17 0 -33 5 -36 10 -4 6 8
10 29 10 20 0 36 -4 36 -10z m-490 -20 c0 -5 -4 -10 -9 -10 -6 0 -13 5 -16 10
-3 6 1 10 9 10 9 0 16 -4 16 -10z m-1622 -22 c-3 -7 -13 -15 -24 -17 -16 -3
-17 -1 -5 13 16 19 34 21 29 4z m-1110 -49 c-29 -18 -152 -30 -264 -25 -65 3
-148 5 -183 5 -48 0 -62 3 -59 13 4 10 51 13 224 13 139 0 228 4 244 12 29 12
62 -3 38 -18z m2452 14 c0 -10 -4 -24 -9 -31 -6 -10 -10 -10 -21 3 -7 8 -19
15 -26 15 -26 0 -14 19 14 23 15 2 30 5 35 6 4 0 7 -7 7 -16z m-1436 -17 c-7
-18 -25 -17 -31 1 -2 6 4 13 14 15 23 5 25 4 17 -16z m56 15 c0 -5 -7 -14 -15
-21 -12 -10 -15 -10 -15 2 0 8 3 18 7 21 9 10 23 9 23 -2z m1230 -17 c0 -8 -4
-12 -10 -9 -5 3 -10 10 -10 16 0 5 5 9 10 9 6 0 10 -7 10 -16z m1005 -4 c-3
-5 -10 -10 -16 -10 -5 0 -9 5 -9 10 0 6 7 10 16 10 8 0 12 -4 9 -10z m-1255
-10 c0 -5 -2 -10 -4 -10 -3 0 -8 5 -11 10 -3 6 -1 10 4 10 6 0 11 -4 11 -10z
m1213 -10 c-3 -11 -9 -20 -14 -20 -11 0 -11 3 -3 24 9 23 23 20 17 -4z m-2294
-16 c-6 -8 -18 -14 -25 -14 -8 0 -14 -6 -14 -14 0 -8 -7 -16 -15 -20 -10 -4
-15 1 -15 14 0 11 5 20 10 20 6 0 20 9 32 20 23 21 46 17 27 -6z m61 7 c0 -12
-20 -25 -27 -18 -7 7 6 27 18 27 5 0 9 -4 9 -9z m3378 -3 c14 -14 16 -28 2
-28 -5 0 -14 9 -20 20 -12 22 -1 27 18 8z m-2348 -8 c0 -5 -2 -10 -4 -10 -3 0
-8 5 -11 10 -3 6 -1 10 4 10 6 0 11 -4 11 -10z m-1080 -45 c-7 -9 -15 -13 -18
-10 -3 2 1 11 8 20 7 9 15 13 18 10 3 -2 -1 -11 -8 -20z m2105 15 c3 -5 -1
-10 -9 -10 -9 0 -16 5 -16 10 0 6 4 10 9 10 6 0 13 -4 16 -10z m185 0 c0 -5
-4 -10 -10 -10 -5 0 -10 5 -10 10 0 6 5 10 10 10 6 0 10 -4 10 -10z m-2393
-25 c-6 -17 -37 -18 -37 -1 0 9 8 14 20 13 11 -1 19 -6 17 -12z m3571 -3 c6
-18 -15 -14 -22 4 -4 10 -1 14 6 12 6 -2 14 -10 16 -16z m-3618 -11 c6 -2 -23
-21 -31 -21 -4 0 -9 7 -13 15 -4 11 0 14 17 11 12 -3 24 -5 27 -5z m110 0 c0
-5 -7 -11 -15 -15 -15 -5 -20 5 -8 17 9 10 23 9 23 -2z m1100 -1 c0 -5 -5 -10
-11 -10 -5 0 -7 5 -4 10 3 6 8 10 11 10 2 0 4 -4 4 -10z m375 -17 c-32 -78
-36 -111 -29 -255 4 -95 3 -148 -3 -148 -16 0 -26 267 -12 330 13 63 25 90 40
90 7 0 8 -7 4 -17z m-1525 -2 c0 -11 -31 -24 -39 -16 -3 3 1 10 9 15 19 12 30
12 30 1z m1120 5 c0 -3 -4 -8 -10 -11 -5 -3 -10 -1 -10 4 0 6 5 11 10 11 6 0
10 -2 10 -4z m-30 -16 c0 -5 -4 -10 -10 -10 -5 0 -10 5 -10 10 0 6 5 10 10 10
6 0 10 -4 10 -10z m2500 -5 c10 -12 10 -15 -3 -15 -8 0 -17 7 -21 15 -3 8 -2
15 3 15 5 0 14 -7 21 -15z m-2535 -5 c3 -5 1 -10 -4 -10 -6 0 -11 5 -11 10 0
6 2 10 4 10 3 0 8 -4 11 -10z m2700 -9 c-3 -6 -14 -11 -23 -11 -15 1 -15 2 2
15 21 16 32 13 21 -4z m55 9 c0 -5 -7 -10 -15 -10 -8 0 -15 5 -15 10 0 6 7 10
15 10 8 0 15 -4 15 -10z m-3874 -15 c-21 -16 -32 -13 -21 4 3 6 14 11 23 11
15 -1 15 -2 -2 -15z m1084 -5 c0 -5 -2 -10 -4 -10 -3 0 -8 5 -11 10 -3 6 -1
10 4 10 6 0 11 -4 11 -10z m2630 -11 c0 -5 -9 -9 -20 -9 -11 0 -20 6 -20 14 0
9 7 12 20 9 11 -3 20 -9 20 -14z m-2660 1 c0 -5 -4 -10 -10 -10 -5 0 -10 5
-10 10 0 6 5 10 10 10 6 0 10 -4 10 -10z m2706 -12 c-10 -6 -20 -7 -24 -3 -9
8 20 25 31 18 5 -3 2 -10 -7 -15z m-3796 5 c0 -14 -19 -38 -25 -32 -8 8 5 39
16 39 5 0 9 -3 9 -7z m1060 -3 c0 -5 -4 -10 -10 -10 -5 0 -10 5 -10 10 0 6 5
10 10 10 6 0 10 -4 10 -10z m-100 -34 c0 -3 -4 -8 -10 -11 -5 -3 -10 -1 -10 4
0 6 5 11 10 11 6 0 10 -2 10 -4z m-30 -10 c0 -3 -4 -8 -10 -11 -5 -3 -10 -1
-10 4 0 6 5 11 10 11 6 0 10 -2 10 -4z m-960 -20 c0 -17 -14 -29 -23 -20 -8 8
3 34 14 34 5 0 9 -6 9 -14z m920 4 c0 -5 -5 -10 -11 -10 -5 0 -7 5 -4 10 3 6
8 10 11 10 2 0 4 -4 4 -10z m468 -87 c-2 -54 1 -131 6 -172 6 -49 5 -72 -1
-68 -26 16 -39 290 -16 330 11 19 13 0 11 -90z m-498 73 c0 -3 -4 -8 -10 -11
-5 -3 -10 -1 -10 4 0 6 5 11 10 11 6 0 10 -2 10 -4z m3049 -19 c30 -7 57 -19
59 -26 4 -13 -20 -10 -100 16 -50 15 -81 41 -37 30 13 -3 48 -12 78 -20z
m-3974 -18 c-4 -5 -13 -9 -22 -9 -13 0 -13 3 -3 15 13 15 35 11 25 -6z m-55
-18 c0 -13 -28 -22 -35 -11 -3 4 1 11 7 13 20 8 28 8 28 -2z m3160 -11 c0 -5
-4 -10 -10 -10 -5 0 -10 5 -10 10 0 6 5 10 10 10 6 0 10 -4 10 -10z m-4090 -9
c0 -11 -31 -24 -39 -16 -3 3 1 10 9 15 19 12 30 12 30 1z m60 -1 c0 -5 -9 -10
-20 -10 -11 0 -20 5 -20 10 0 6 9 10 20 10 11 0 20 -4 20 -10z m60 0 c0 -5 -9
-10 -20 -10 -11 0 -20 5 -20 10 0 6 9 10 20 10 11 0 20 -4 20 -10z m760 1 c0
-5 -9 -11 -20 -14 -20 -5 -26 3 -13 16 9 10 33 8 33 -2z m-704 -28 c-8 -8 -36
5 -36 17 0 7 6 7 21 0 11 -7 18 -14 15 -17z m644 7 c0 -5 -9 -10 -21 -10 -11
0 -17 5 -14 10 3 6 13 10 21 10 8 0 14 -4 14 -10z m3275 0 c3 -5 1 -10 -4 -10
-6 0 -11 5 -11 10 0 6 2 10 4 10 3 0 8 -4 11 -10z m-4158 -17 c-9 -9 -19 -14
-23 -11 -10 10 6 28 24 28 15 0 15 -1 -1 -17z m823 8 c0 -11 -31 -24 -39 -16
-3 3 1 10 9 15 19 12 30 12 30 1z m-540 -11 c8 -5 12 -12 9 -15 -8 -8 -39 5
-39 16 0 11 11 11 30 -1z m2240 0 c0 -5 -4 -10 -10 -10 -5 0 -10 5 -10 10 0 6
5 10 10 10 6 0 10 -4 10 -10z m-1760 -10 c0 -5 -9 -10 -20 -10 -11 0 -20 5
-20 10 0 6 9 10 20 10 11 0 20 -4 20 -10z m-800 -8 c0 -13 -12 -22 -22 -16
-10 6 -1 24 13 24 5 0 9 -4 9 -8z m736 -14 c-10 -6 -20 -7 -24 -3 -9 8 20 25
31 18 5 -3 2 -10 -7 -15z m1884 18 c0 -3 -4 -8 -10 -11 -5 -3 -10 -1 -10 4 0
6 5 11 10 11 6 0 10 -2 10 -4z m1590 0 c0 -3 -4 -8 -10 -11 -5 -3 -10 -1 -10
4 0 6 5 11 10 11 6 0 10 -2 10 -4z m-3835 -17 c11 -17 0 -20 -21 -4 -17 13
-17 14 -2 15 9 0 20 -5 23 -11z m315 -5 c0 -3 -6 -12 -14 -19 -17 -17 -30 -7
-15 12 12 13 29 18 29 7z m-254 -31 c-8 -8 -36 5 -36 17 0 7 6 7 21 0 11 -7
18 -14 15 -17z m944 17 c139 -16 165 -26 183 -68 9 -21 43 -88 76 -149 33 -62
56 -115 52 -117 -4 -3 -32 41 -61 97 -29 56 -56 104 -59 107 -3 3 -14 22 -23
43 -22 46 -35 51 -173 67 -60 7 -114 17 -119 21 -13 12 20 11 124 -1z m1250 0
c0 -5 -4 -10 -10 -10 -5 0 -10 5 -10 10 0 6 5 10 10 10 6 0 10 -4 10 -10z
m-2675 -21 c-4 -5 -13 -9 -22 -9 -13 0 -13 3 -3 15 13 15 35 11 25 -6z m525
-9 c8 -5 11 -12 8 -16 -10 -9 -38 3 -38 16 0 12 10 13 30 0z m2155 0 c3 -5 1
-10 -4 -10 -6 0 -11 5 -11 10 0 6 2 10 4 10 3 0 8 -4 11 -10z m-1995 -21 c-7
-11 -14 -18 -17 -15 -8 8 5 36 17 36 7 0 7 -6 0 -21z m-730 -14 c-7 -8 -16
-15 -21 -15 -5 0 -6 7 -3 15 4 8 13 15 21 15 13 0 13 -3 3 -15z m625 4 c4 -6
5 -12 2 -15 -7 -7 -37 7 -37 17 0 13 27 11 35 -2z m65 -9 c0 -5 -9 -10 -20
-10 -11 0 -20 5 -20 10 0 6 9 10 20 10 11 0 20 -4 20 -10z m2030 6 c0 -3 -4
-8 -10 -11 -5 -3 -10 -1 -10 4 0 6 5 11 10 11 6 0 10 -2 10 -4z m-10 -36 c0
-5 -4 -10 -10 -10 -5 0 -10 5 -10 10 0 6 5 10 10 10 6 0 10 -4 10 -10z m-2744
-16 c-3 -9 -6 -18 -6 -20 0 -3 -4 -3 -10 1 -11 7 -2 35 12 35 6 0 7 -7 4 -16z
m4 -41 c0 -9 -52 -35 -57 -29 -2 2 -1 11 3 20 6 16 54 23 54 9z m60 -3 c0 -5
-9 -10 -20 -10 -11 0 -20 5 -20 10 0 6 9 10 20 10 11 0 20 -4 20 -10z m60 -20
c0 -14 -14 -12 -28 2 -19 19 -14 30 8 18 11 -6 20 -15 20 -20z m3110 23 c0 -7
-6 -22 -39 -110 -7 -18 -17 -33 -22 -33 -13 0 -11 15 6 57 13 32 13 34 0 23
-32 -27 -28 3 5 34 35 34 50 43 50 29z m950 -33 c0 -5 -4 -10 -10 -10 -5 0
-10 5 -10 10 0 6 5 10 10 10 6 0 10 -4 10 -10z m-4015 -11 c12 -19 -5 -23 -22
-6 -16 16 -16 17 -1 17 9 0 20 -5 23 -11z m-224 -42 c-8 -8 -11 -5 -11 9 0 27
14 41 18 19 2 -9 -1 -22 -7 -28z m4239 23 c0 -5 -5 -10 -11 -10 -5 0 -7 5 -4
10 3 6 8 10 11 10 2 0 4 -4 4 -10z m-3970 -10 c8 -5 12 -12 9 -15 -8 -8 -39 5
-39 16 0 11 11 11 30 -1z m-270 -44 c0 -8 -4 -18 -10 -21 -5 -3 -10 3 -10 14
0 12 5 21 10 21 6 0 10 -6 10 -14z m300 -6 c0 -11 -4 -20 -10 -20 -5 0 -10 9
-10 20 0 11 5 20 10 20 6 0 10 -9 10 -20z m3945 -10 c3 -5 1 -10 -4 -10 -6 0
-11 5 -11 10 0 6 2 10 4 10 3 0 8 -4 11 -10z m-1207 -28 c5 -30 -12 -28 -27 4
-10 22 -9 25 6 22 10 -2 19 -13 21 -26z m-2768 -1 c0 -12 -20 -25 -27 -18 -7
7 6 27 18 27 5 0 9 -4 9 -9z m-282 -18 c-2 -9 -8 -18 -15 -20 -7 -3 -9 3 -6
16 6 25 26 28 21 4z m242 -20 c0 -5 -4 -15 -10 -23 -11 -18 -25 -7 -17 15 6
15 27 21 27 8z m-250 -30 c0 -14 -19 -38 -25 -32 -8 8 5 39 16 39 5 0 9 -3 9
-7z m235 -40 c-2 -10 -4 -20 -4 -23 -1 -3 -5 2 -10 10 -10 15 -6 30 9 30 4 0
7 -8 5 -17z m2595 8 c0 -5 -8 -12 -17 -15 -10 -4 -29 -14 -42 -24 l-23 -19 31
-58 c30 -56 40 -105 22 -105 -4 0 -11 15 -14 34 -3 19 -17 52 -31 74 l-26 41
-55 -25 c-97 -42 -159 -76 -196 -105 -40 -32 -49 -35 -49 -18 0 20 51 52 220
141 172 91 180 94 180 79z m1470 -11 c0 -5 -4 -10 -10 -10 -5 0 -10 5 -10 10
0 6 5 10 10 10 6 0 10 -4 10 -10z m-4324 -47 c-11 -11 -19 6 -11 24 8 17 8 17
12 0 3 -10 2 -21 -1 -24z m3466 11 c98 -6 140 -15 128 -28 -3 -2 -79 2 -170
10 -91 7 -175 14 -188 14 -15 0 -21 4 -16 11 4 8 29 10 73 6 36 -4 114 -9 173
-13z m-3495 -41 c-9 -9 -19 -14 -23 -11 -10 10 6 28 24 28 15 0 15 -1 -1 -17z
m-39 -25 c-3 -7 -13 -15 -24 -17 -16 -3 -17 -1 -5 13 16 19 34 21 29 4z m-61
-45 c-9 -9 -19 -14 -23 -11 -10 10 6 28 24 28 15 0 15 -1 -1 -17z m-39 -25
c-3 -7 -13 -15 -24 -17 -16 -3 -17 -1 -5 13 16 19 34 21 29 4z m4497 2 c3 -5
1 -10 -4 -10 -6 0 -11 5 -11 10 0 6 2 10 4 10 3 0 8 -4 11 -10z m-4558 -47
c-9 -9 -19 -14 -23 -11 -10 10 6 28 24 28 15 0 15 -1 -1 -17z m4553 7 c0 -5
-4 -10 -10 -10 -5 0 -10 5 -10 10 0 6 5 10 10 10 6 0 10 -4 10 -10z m-4592
-32 c-3 -7 -13 -15 -24 -17 -16 -3 -17 -1 -5 13 16 19 34 21 29 4z m4582 2 c0
-5 -4 -10 -10 -10 -5 0 -10 5 -10 10 0 6 5 10 10 10 6 0 10 -4 10 -10z m-4639
-53 c-16 -16 -26 0 -10 19 9 11 15 12 17 4 2 -6 -1 -17 -7 -23z m3069 -1 c0
-3 -4 -8 -10 -11 -5 -3 -10 -1 -10 4 0 6 5 11 10 11 6 0 10 -2 10 -4z m1540
-26 c0 -5 -5 -10 -11 -10 -5 0 -7 5 -4 10 3 6 8 10 11 10 2 0 4 -4 4 -10z
m-4630 -14 c0 -8 -4 -18 -10 -21 -5 -3 -10 3 -10 14 0 12 5 21 10 21 6 0 10
-6 10 -14z m3070 10 c0 -3 -4 -8 -10 -11 -5 -3 -10 -1 -10 4 0 6 5 11 10 11 6
0 10 -2 10 -4z m-330 -40 c0 -3 -10 -22 -22 -43 -13 -20 -21 -47 -20 -58 2
-14 -5 -25 -20 -32 -17 -7 -31 -34 -53 -93 -32 -87 -40 -99 -58 -81 -8 8 -8
11 0 11 6 0 26 38 43 85 21 55 39 86 51 90 11 4 18 15 17 28 -1 24 38 97 53
97 5 0 9 -2 9 -4z m-2759 -43 c-9 -16 -10 -14 -11 12 0 21 3 26 11 18 8 -8 8
-16 0 -30z m7427 21 c33 -23 27 -37 -8 -19 -16 9 -30 20 -30 25 0 14 12 12 38
-6z m-2788 -4 c0 -5 -4 -10 -10 -10 -5 0 -10 5 -10 10 0 6 5 10 10 10 6 0 10
-4 10 -10z m-1220 -20 c0 -5 -4 -10 -10 -10 -5 0 -10 5 -10 10 0 6 5 10 10 10
6 0 10 -4 10 -10z m-3420 -39 c0 -11 -4 -23 -10 -26 -6 -4 -10 5 -10 19 0 14
5 26 10 26 6 0 10 -9 10 -19z m3010 9 c0 -5 -5 -10 -11 -10 -5 0 -7 5 -4 10 3
6 8 10 11 10 2 0 4 -4 4 -10z m1630 -20 c0 -5 -4 -10 -10 -10 -5 0 -10 5 -10
10 0 6 5 10 10 10 6 0 10 -4 10 -10z m-1650 -10 c0 -5 -5 -10 -11 -10 -5 0 -7
5 -4 10 3 6 8 10 11 10 2 0 4 -4 4 -10z m-3000 -40 c0 -11 -4 -20 -10 -20 -5
0 -10 9 -10 20 0 11 5 20 10 20 6 0 10 -9 10 -20z m2980 10 c0 -5 -5 -10 -11
-10 -5 0 -7 5 -4 10 3 6 8 10 11 10 2 0 4 -4 4 -10z m1670 -30 c0 -5 -4 -10
-10 -10 -5 0 -10 5 -10 10 0 6 5 10 10 10 6 0 10 -4 10 -10z m-4664 -57 c-11
-11 -19 6 -11 24 8 17 8 17 12 0 3 -10 2 -21 -1 -24z m3539 -55 c-7 -85 -23
-179 -30 -186 -13 -13 -15 11 -6 74 6 38 13 95 17 127 3 31 10 57 16 57 6 0 8
-25 3 -72z m-585 52 c0 -5 -5 -10 -11 -10 -5 0 -7 5 -4 10 3 6 8 10 11 10 2 0
4 -4 4 -10z m-2963 -52 c-3 -7 -5 -2 -5 12 0 14 2 19 5 13 2 -7 2 -19 0 -25z
m2993 22 c0 -5 -4 -10 -10 -10 -5 0 -10 5 -10 10 0 6 5 10 10 10 6 0 10 -4 10
-10z m-2977 -70 c3 -11 1 -20 -4 -20 -5 0 -9 2 -9 4 0 2 -3 11 -6 20 -3 9 -2
16 4 16 5 0 12 -9 15 -20z m2615 -7 c-47 -107 -150 -296 -192 -355 -30 -42
-65 -96 -77 -120 -30 -56 -50 -228 -38 -312 5 -34 9 -123 9 -199 0 -127 -2
-138 -17 -135 -16 3 -19 22 -25 153 -11 207 5 408 39 492 14 35 30 63 37 63
17 0 131 176 168 260 40 89 80 160 91 160 5 0 7 -3 5 -7z m-2588 -58 c0 -5 -5
-3 -10 5 -5 8 -10 20 -10 25 0 6 5 3 10 -5 5 -8 10 -19 10 -25z m2810 1 c0 -3
-4 -8 -10 -11 -5 -3 -10 -1 -10 4 0 6 5 11 10 11 6 0 10 -2 10 -4z m3500 0 c0
-3 -4 -8 -10 -11 -5 -3 -10 -1 -10 4 0 6 5 11 10 11 6 0 10 -2 10 -4z m50 -6
c0 -5 -5 -10 -11 -10 -5 0 -7 5 -4 10 3 6 8 10 11 10 2 0 4 -4 4 -10z m-85
-10 c-3 -5 -10 -10 -16 -10 -5 0 -9 5 -9 10 0 6 7 10 16 10 8 0 12 -4 9 -10z
m-3375 -16 c0 -8 -5 -12 -10 -9 -6 4 -8 11 -5 16 9 14 15 11 15 -7z m3470 -4
c0 -5 -5 -10 -11 -10 -5 0 -7 5 -4 10 3 6 8 10 11 10 2 0 4 -4 4 -10z m30 -14
c0 -3 -4 -8 -10 -11 -5 -3 -10 -1 -10 4 0 6 5 11 10 11 6 0 10 -2 10 -4z
m-3516 -40 c-3 -15 -8 -25 -11 -23 -2 3 -1 17 3 31 3 15 8 25 11 23 2 -3 1
-17 -3 -31z m-2830 -2 c4 -9 4 -19 2 -21 -8 -8 -26 8 -26 23 0 19 16 18 24 -2z
m6356 6 c0 -5 -4 -10 -10 -10 -5 0 -10 5 -10 10 0 6 5 10 10 10 6 0 10 -4 10
-10z m-2930 -10 c0 -5 -4 -10 -10 -10 -5 0 -10 5 -10 10 0 6 5 10 10 10 6 0
10 -4 10 -10z m2940 -20 c0 -5 -4 -10 -10 -10 -5 0 -10 5 -10 10 0 6 5 10 10
10 6 0 10 -4 10 -10z m-6360 -42 c0 -19 -2 -20 -10 -8 -13 19 -13 30 0 30 6 0
10 -10 10 -22z m3176 -15 c-10 -10 -19 5 -10 18 6 11 8 11 12 0 2 -7 1 -15 -2
-18z m234 7 c0 -5 -4 -10 -10 -10 -5 0 -10 5 -10 10 0 6 5 10 10 10 6 0 10 -4
10 -10z m3000 -4 c0 -3 -4 -8 -10 -11 -5 -3 -10 -1 -10 4 0 6 5 11 10 11 6 0
10 -2 10 -4z m15 -26 c3 -5 1 -10 -4 -10 -6 0 -11 5 -11 10 0 6 2 10 4 10 3 0
8 -4 11 -10z m-6422 -25 c-3 -9 -8 -14 -10 -11 -3 3 -2 9 2 15 9 16 15 13 8
-4z m3147 -5 c0 -5 -5 -10 -11 -10 -5 0 -7 5 -4 10 3 6 8 10 11 10 2 0 4 -4 4
-10z m3300 0 c0 -5 -4 -10 -10 -10 -5 0 -10 5 -10 10 0 6 5 10 10 10 6 0 10
-4 10 -10z m-3050 -10 c0 -5 -4 -10 -10 -10 -5 0 -10 5 -10 10 0 6 5 10 10 10
6 0 10 -4 10 -10z m3080 -10 c0 -5 -4 -10 -10 -10 -5 0 -10 5 -10 10 0 6 5 10
10 10 6 0 10 -4 10 -10z m-3330 -20 c0 -5 -4 -10 -10 -10 -5 0 -10 5 -10 10 0
6 5 10 10 10 6 0 10 -4 10 -10z m3416 -18 c-18 -16 -18 -16 -6 6 6 13 14 21
18 18 3 -4 -2 -14 -12 -24z m44 18 c0 -5 -5 -10 -11 -10 -5 0 -7 5 -4 10 3 6
8 10 11 10 2 0 4 -4 4 -10z m-70 -10 c0 -5 -2 -10 -4 -10 -3 0 -8 5 -11 10 -3
6 -1 10 4 10 6 0 11 -4 11 -10z m-3390 -20 c0 -5 -5 -10 -11 -10 -5 0 -7 5 -4
10 3 6 8 10 11 10 2 0 4 -4 4 -10z m-413 -32 c-3 -7 -5 -2 -5 12 0 14 2 19 5
13 2 -7 2 -19 0 -25z m-2764 -8 c-3 -12 -8 -19 -11 -16 -5 6 5 36 12 36 2 0 2
-9 -1 -20z m3452 10 c3 -5 1 -10 -4 -10 -6 0 -11 5 -11 10 0 6 2 10 4 10 3 0
8 -4 11 -10z m-275 -10 c0 -5 -2 -10 -4 -10 -3 0 -8 5 -11 10 -3 6 -1 10 4 10
6 0 11 -4 11 -10z m3410 -21 c0 -5 -4 -9 -10 -9 -5 0 -10 7 -10 16 0 8 5 12
10 9 6 -3 10 -10 10 -16z m-3115 1 c3 -5 1 -10 -4 -10 -6 0 -11 5 -11 10 0 6
2 10 4 10 3 0 8 -4 11 -10z m1775 -20 c0 -16 -4 -30 -10 -30 -5 0 -10 14 -10
30 0 17 5 30 10 30 6 0 10 -13 10 -30z m-2691 -4 c10 -18 27 -27 73 -36 43 -8
64 -8 71 -1 19 19 26 12 14 -18 -10 -26 -12 -27 -35 -15 -14 7 -46 15 -72 19
-37 5 -50 12 -63 35 -19 32 -21 40 -9 40 5 0 14 -11 21 -24z m-2572 -8 c-3 -8
-6 -5 -6 6 -1 11 2 17 5 13 3 -3 4 -12 1 -19z m3523 18 c0 -3 -4 -8 -10 -11
-5 -3 -10 -1 -10 4 0 6 5 11 10 11 6 0 10 -2 10 -4z m-280 -10 c0 -3 -4 -8
-10 -11 -5 -3 -10 -1 -10 4 0 6 5 11 10 11 6 0 10 -2 10 -4z m320 -11 c0 -8
-4 -15 -9 -15 -5 0 -11 7 -15 15 -3 9 0 15 9 15 8 0 15 -7 15 -15z m-300 -19
c0 -3 -4 -8 -10 -11 -5 -3 -10 -1 -10 4 0 6 5 11 10 11 6 0 10 -2 10 -4z
m3360 -6 c0 -5 -4 -10 -10 -10 -5 0 -10 5 -10 10 0 6 5 10 10 10 6 0 10 -4 10
-10z m-3055 -10 c3 -5 1 -10 -4 -10 -6 0 -11 5 -11 10 0 6 2 10 4 10 3 0 8 -4
11 -10z m-3565 -26 c0 -8 -4 -14 -10 -14 -5 0 -10 9 -10 21 0 11 5 17 10 14 6
-3 10 -13 10 -21z m6620 6 c0 -5 -4 -10 -10 -10 -5 0 -10 5 -10 10 0 6 5 10
10 10 6 0 10 -4 10 -10z m-3040 -10 c0 -5 -5 -10 -11 -10 -5 0 -7 5 -4 10 3 6
8 10 11 10 2 0 4 -4 4 -10z m-285 -10 c3 -5 1 -10 -4 -10 -6 0 -11 5 -11 10 0
6 2 10 4 10 3 0 8 -4 11 -10z m3355 0 c0 -5 -4 -10 -10 -10 -5 0 -10 5 -10 10
0 6 5 10 10 10 6 0 10 -4 10 -10z m-1391 -137 c-1 -144 -10 -228 -23 -228 -15
0 -14 96 1 102 8 3 9 12 3 28 -11 29 -1 225 12 225 4 0 8 -57 7 -127z m1421
117 c0 -5 -4 -10 -10 -10 -5 0 -10 5 -10 10 0 6 5 10 10 10 6 0 10 -4 10 -10z
m-6693 -25 c-4 -8 -11 -15 -17 -15 -7 0 -7 6 0 21 13 23 26 19 17 -6z m2729 9
c-3 -9 -6 -18 -6 -20 0 -3 -4 -3 -10 1 -11 7 -2 35 12 35 6 0 7 -7 4 -16z
m629 -4 c3 -5 1 -10 -4 -10 -6 0 -11 5 -11 10 0 6 2 10 4 10 3 0 8 -4 11 -10z
m35 -10 c0 -5 -4 -10 -10 -10 -5 0 -10 5 -10 10 0 6 5 10 10 10 6 0 10 -4 10
-10z m170 0 c0 -5 -4 -10 -10 -10 -5 0 -10 5 -10 10 0 6 5 10 10 10 6 0 10 -4
10 -10z m-3593 -45 c-4 -8 -11 -15 -17 -15 -7 0 -7 6 0 21 13 23 26 19 17 -6z
m2743 18 c0 -5 -4 -15 -10 -23 -11 -18 -25 -7 -17 15 6 15 27 21 27 8z m837
-15 c-3 -8 -6 -5 -6 6 -1 11 2 17 5 13 3 -3 4 -12 1 -19z m-137 2 c0 -5 -5
-10 -11 -10 -5 0 -7 5 -4 10 3 6 8 10 11 10 2 0 4 -4 4 -10z m195 -28 c-2 -2
-13 2 -24 10 -12 8 -18 17 -15 21 3 3 14 -2 25 -11 10 -9 17 -18 14 -20z
m3165 34 c0 -3 -4 -8 -10 -11 -5 -3 -10 -1 -10 4 0 6 5 11 10 11 6 0 10 -2 10
-4z m-3290 -30 c0 -3 -4 -8 -10 -11 -5 -3 -10 -1 -10 4 0 6 5 11 10 11 6 0 10
-2 10 -4z m30 -16 c0 -5 -4 -10 -10 -10 -5 0 -10 5 -10 10 0 6 5 10 10 10 6 0
10 -4 10 -10z m30 0 c0 -5 -5 -10 -11 -10 -5 0 -7 5 -4 10 3 6 8 10 11 10 2 0
4 -4 4 -10z m40 0 c0 -5 -4 -10 -10 -10 -5 0 -10 5 -10 10 0 6 5 10 10 10 6 0
10 -4 10 -10z m3240 0 c0 -5 -4 -10 -10 -10 -5 0 -10 5 -10 10 0 6 5 10 10 10
6 0 10 -4 10 -10z m-6884 -16 c-3 -9 -6 -18 -6 -20 0 -3 -4 -3 -10 1 -11 7 -2
35 12 35 6 0 7 -7 4 -16z m2740 0 c-3 -9 -6 -18 -6 -20 0 -3 -4 -3 -10 1 -11
7 -2 35 12 35 6 0 7 -7 4 -16z m954 -24 c0 -5 -8 -10 -17 -10 -15 0 -16 2 -3
10 19 12 20 12 20 0z m-80 -10 c0 -5 -4 -10 -10 -10 -5 0 -10 5 -10 10 0 6 5
10 10 10 6 0 10 -4 10 -10z m30 0 c0 -5 -2 -10 -4 -10 -3 0 -8 5 -11 10 -3 6
-1 10 4 10 6 0 11 -4 11 -10z m-3650 -20 c0 -11 -4 -20 -10 -20 -5 0 -10 9
-10 20 0 11 5 20 10 20 6 0 10 -9 10 -20z m2730 13 c0 -14 -19 -38 -25 -32 -8
8 5 39 16 39 5 0 9 -3 9 -7z m4240 -13 c0 -5 -4 -10 -10 -10 -5 0 -10 5 -10
10 0 6 5 10 10 10 6 0 10 -4 10 -10z m-3450 -30 c0 -5 -2 -10 -4 -10 -3 0 -8
5 -11 10 -3 6 -1 10 4 10 6 0 11 -4 11 -10z m-3510 -35 c0 -14 -4 -25 -10 -25
-5 0 -10 11 -10 25 0 14 5 25 10 25 6 0 10 -11 10 -25z m2700 6 c0 -11 -4 -23
-10 -26 -6 -4 -10 5 -10 19 0 14 5 26 10 26 6 0 10 -9 10 -19z m790 15 c0 -3
-4 -8 -10 -11 -5 -3 -10 -1 -10 4 0 6 5 11 10 11 6 0 10 -2 10 -4z m-30 -26
c0 -5 -4 -10 -10 -10 -5 0 -10 5 -10 10 0 6 5 10 10 10 6 0 10 -4 10 -10z
m-779 -67 c-9 -16 -10 -14 -11 12 0 21 3 26 11 18 8 -8 8 -16 0 -30z m-2685
11 c-3 -9 -6 -18 -6 -20 0 -2 -4 -4 -9 -4 -5 0 -7 9 -4 20 3 11 10 20 15 20 6
0 7 -7 4 -16z m3434 -14 c0 -5 -4 -10 -10 -10 -5 0 -10 5 -10 10 0 6 5 10 10
10 6 0 10 -4 10 -10z m-3463 -45 c-4 -8 -11 -15 -17 -15 -7 0 -7 6 0 21 13 23
26 19 17 -6z m2703 18 c0 -14 -19 -38 -25 -32 -8 8 5 39 16 39 5 0 9 -3 9 -7z
m750 -3 c0 -5 -4 -10 -10 -10 -5 0 -10 5 -10 10 0 6 5 10 10 10 6 0 10 -4 10
-10z m-3483 -65 c-4 -8 -11 -15 -17 -15 -7 0 -7 6 0 21 13 23 26 19 17 -6z
m2703 11 c0 -18 -27 -46 -43 -46 -9 0 -9 2 -1 8 6 4 16 17 23 30 13 25 21 28
21 8z m750 -6 c0 -5 -5 -10 -11 -10 -5 0 -7 5 -4 10 3 6 8 10 11 10 2 0 4 -4
4 -10z m-20 -30 c0 -5 -4 -10 -10 -10 -5 0 -10 5 -10 10 0 6 5 10 10 10 6 0
10 -4 10 -10z m-3460 -19 c0 -12 -20 -25 -27 -18 -7 7 6 27 18 27 5 0 9 -4 9
-9z m2630 -1 c0 -5 -4 -10 -10 -10 -5 0 -10 5 -10 10 0 6 5 10 10 10 6 0 10
-4 10 -10z m810 -10 c0 -5 -4 -10 -10 -10 -5 0 -10 5 -10 10 0 6 5 10 10 10 6
0 10 -4 10 -10z m-3470 -39 c0 -5 -7 -14 -15 -21 -12 -10 -15 -10 -15 2 0 8 3
18 7 21 9 10 23 9 23 -2z m2249 -28 c0 -25 -1 -26 -9 -8 -12 27 -12 35 0 35 6
0 10 -12 9 -27z m1196 7 c3 -5 1 -10 -4 -10 -6 0 -11 5 -11 10 0 6 2 10 4 10
3 0 8 -4 11 -10z m-825 -14 c0 -3 -4 -8 -10 -11 -5 -3 -10 -1 -10 4 0 6 5 11
10 11 6 0 10 -2 10 -4z m-2660 -26 c-6 -11 -15 -18 -21 -14 -6 4 -6 11 2 20
17 21 31 17 19 -6z m3480 6 c0 -3 -4 -8 -10 -11 -5 -3 -10 -1 -10 4 0 6 5 11
10 11 6 0 10 -2 10 -4z m-830 -16 c0 -5 -4 -10 -10 -10 -5 0 -10 5 -10 10 0 6
5 10 10 10 6 0 10 -4 10 -10z m-2694 -38 c-8 -9 -19 -13 -22 -9 -10 9 16 38
28 31 6 -4 4 -13 -6 -22z m3514 18 c0 -5 -4 -10 -10 -10 -5 0 -10 5 -10 10 0
6 5 10 10 10 6 0 10 -4 10 -10z m-3560 -55 c-7 -9 -15 -13 -18 -10 -3 2 1 11
8 20 7 9 15 13 18 10 3 -2 -1 -11 -8 -20z m3550 15 c0 -5 -2 -10 -4 -10 -3 0
-8 5 -11 10 -3 6 -1 10 4 10 6 0 11 -4 11 -10z m-810 -4 c0 -3 -4 -8 -10 -11
-5 -3 -10 -1 -10 4 0 6 5 11 10 11 6 0 10 -2 10 -4z m10 -36 c0 -5 -4 -10 -10
-10 -5 0 -10 5 -10 10 0 6 5 10 10 10 6 0 10 -4 10 -10z m785 -20 c3 -5 1 -10
-4 -10 -6 0 -11 5 -11 10 0 6 2 10 4 10 3 0 8 -4 11 -10z m-785 -40 c0 -5 -5
-10 -11 -10 -5 0 -7 5 -4 10 3 6 8 10 11 10 2 0 4 -4 4 -10z m780 6 c0 -3 -4
-8 -10 -11 -5 -3 -10 -1 -10 4 0 6 5 11 10 11 6 0 10 -2 10 -4z m-800 -30 c0
-3 -4 -8 -10 -11 -5 -3 -10 -1 -10 4 0 6 5 11 10 11 6 0 10 -2 10 -4z m790 -6
c0 -5 -4 -10 -10 -10 -5 0 -10 5 -10 10 0 6 5 10 10 10 6 0 10 -4 10 -10z
m-10 -40 c0 -5 -2 -10 -4 -10 -3 0 -8 5 -11 10 -3 6 -1 10 4 10 6 0 11 -4 11
-10z m10 -50 c0 -5 -5 -10 -11 -10 -5 0 -7 5 -4 10 3 6 8 10 11 10 2 0 4 -4 4
-10z m-850 -20 c0 -5 -4 -10 -10 -10 -5 0 -10 5 -10 10 0 6 5 10 10 10 6 0 10
-4 10 -10z"/>
<path d="M2970 7170 c0 -22 7 -25 29 -11 16 10 6 31 -15 31 -8 0 -14 -9 -14
-20z"/>
<path d="M5373 6183 c9 -2 25 -2 35 0 9 3 1 5 -18 5 -19 0 -27 -2 -17 -5z"/>
<path d="M5400 6026 c0 -33 34 -41 48 -11 9 18 8 25 -4 29 -30 12 -44 6 -44
-18z"/>
<path d="M5203 5213 c10 -16 167 -116 173 -111 3 3 -10 14 -28 25 -18 11 -59
37 -92 57 -32 21 -56 34 -53 29z"/>
<path d="M4412 5106 c-46 -33 -53 -43 -14 -20 19 10 38 25 44 32 15 17 8 14
-30 -12z"/>
<path d="M3359 5072 c-91 -20 -174 -43 -183 -51 -17 -15 -21 -82 -10 -178 6
-45 10 -53 28 -53 12 -1 133 25 269 57 l249 58 -6 35 c-14 85 -24 104 -73 133
-26 16 -61 30 -77 32 -17 2 -106 -13 -197 -33z"/>
<path d="M6120 5000 c0 -19 3 -21 12 -12 9 9 9 15 0 24 -9 9 -12 7 -12 -12z"/>
<path d="M4018 4943 c7 -3 16 -2 19 1 4 3 -2 6 -13 5 -11 0 -14 -3 -6 -6z"/>
<path d="M3873 4921 c-45 -9 -85 -20 -89 -24 -12 -12 16 -7 116 17 110 28 93
32 -27 7z"/>
<path d="M3495 4834 c-93 -23 -165 -42 -159 -43 13 -1 327 69 333 75 13 13
-20 7 -174 -32z"/>
<path d="M3260 4780 c-20 -6 -21 -8 -5 -8 11 0 29 3 40 8 25 11 -1 11 -35 0z"/>
<path d="M5313 3832 c-2 -129 1 -196 12 -248 l16 -71 56 -7 c31 -4 58 -4 61
-2 5 6 -15 187 -24 209 -5 15 38 33 56 22 4 -3 11 0 13 5 3 6 4 5 3 -2 -1 -7
-13 -14 -25 -16 -20 -3 -22 -8 -18 -35 3 -18 9 -67 13 -111 l7 -79 206 8 c113
3 208 8 209 10 11 10 -81 361 -109 418 l-32 64 -105 7 c-58 3 -157 6 -221 6
l-116 0 -2 -178z m277 93 c0 -10 -10 -15 -32 -15 -34 0 -29 14 7 23 11 3 21 5
23 6 1 0 2 -6 2 -14z m-10 -51 c0 -2 -9 -4 -20 -4 -11 0 -20 4 -20 9 0 5 9 7
20 4 11 -3 20 -7 20 -9z m220 -4 c0 -5 -4 -10 -10 -10 -5 0 -10 5 -10 10 0 6
5 10 10 10 6 0 10 -4 10 -10z m-30 -10 c0 -5 -4 -10 -10 -10 -5 0 -10 5 -10
10 0 6 5 10 10 10 6 0 10 -4 10 -10z m-35 -10 c3 -5 1 -10 -4 -10 -6 0 -11 5
-11 10 0 6 2 10 4 10 3 0 8 -4 11 -10z m-155 -8 c0 -4 -9 -8 -20 -9 -11 -1
-20 2 -20 8 0 5 9 9 20 9 11 0 20 -4 20 -8z m120 -12 c0 -5 -2 -10 -4 -10 -3
0 -8 5 -11 10 -3 6 -1 10 4 10 6 0 11 -4 11 -10z m-30 -10 c0 -5 -4 -10 -10
-10 -5 0 -10 5 -10 10 0 6 5 10 10 10 6 0 10 -4 10 -10z m-67 -15 c4 -8 2 -17
-3 -20 -6 -4 -10 -4 -10 -1 0 2 -3 11 -6 20 -3 9 -2 16 4 16 5 0 12 -7 15 -15z
m-23 -35 c0 -5 -4 -10 -9 -10 -5 0 -17 -3 -27 -7 -16 -6 -17 -5 -4 10 17 18
40 22 40 7z m-170 -60 c0 -5 -12 -10 -27 -10 -22 0 -25 2 -13 10 20 13 40 13
40 0z m100 -14 c0 -3 -4 -8 -10 -11 -5 -3 -10 -1 -10 4 0 6 5 11 10 11 6 0 10
-2 10 -4z m-110 -26 c0 -5 -2 -10 -4 -10 -3 0 -8 5 -11 10 -3 6 -1 10 4 10 6
0 11 -4 11 -10z m120 -10 c0 -5 -4 -10 -10 -10 -5 0 -10 5 -10 10 0 6 5 10 10
10 6 0 10 -4 10 -10z m-115 -20 c3 -5 1 -10 -4 -10 -6 0 -11 5 -11 10 0 6 2
10 4 10 3 0 8 -4 11 -10z m232 -6 c-3 -3 -12 -4 -19 -1 -8 3 -5 6 6 6 11 1 17
-2 13 -5z m-42 -14 c-3 -5 -10 -10 -16 -10 -5 0 -9 5 -9 10 0 6 7 10 16 10 8
0 12 -4 9 -10z m-70 -60 c3 -5 1 -10 -4 -10 -6 0 -11 5 -11 10 0 6 2 10 4 10
3 0 8 -4 11 -10z m5 -40 c0 -5 -4 -10 -10 -10 -5 0 -10 5 -10 10 0 6 5 10 10
10 6 0 10 -4 10 -10z"/>
<path d="M5945 3872 c-33 -4 -66 -11 -72 -15 -20 -13 -16 -50 19 -199 l31
-138 95 0 c88 0 103 3 249 55 86 30 158 57 161 60 4 3 -14 47 -40 98 l-46 92
-70 23 c-77 25 -222 35 -327 24z"/>
<path d="M6420 3731 l39 -80 113 46 c61 24 124 54 139 66 57 45 51 47 -146 47
l-185 0 40 -79z"/>
<path d="M6775 3800 c3 -5 1 -10 -5 -10 -7 0 -9 -8 -5 -21 5 -15 4 -19 -4 -15
-6 4 -11 0 -11 -9 0 -12 5 -15 16 -11 9 3 27 6 40 6 21 0 24 5 24 35 0 32 -2
35 -31 35 -17 0 -28 -4 -24 -10z"/>
<path d="M6704 3735 c-18 -14 -18 -14 4 -8 12 3 22 9 22 14 0 12 -3 11 -26 -6z"/>
<path d="M5993 3493 c15 -2 39 -2 55 0 15 2 2 4 -28 4 -30 0 -43 -2 -27 -4z"/>
<path d="M5060 3478 c14 -5 64 -8 113 -6 83 4 108 -2 70 -17 -10 -3 -102 -3
-204 1 l-186 7 8 -54 c4 -30 8 -61 9 -69 1 -27 83 -78 195 -120 61 -24 117
-43 125 -43 8 0 17 -3 20 -7 3 -4 24 -17 48 -29 l42 -21 0 50 c0 43 -3 50 -19
50 -11 0 -23 5 -26 10 -3 6 -26 10 -50 10 -24 0 -47 5 -51 11 -5 8 16 10 72 8
l79 -4 6 103 c4 57 9 106 13 109 3 3 23 9 43 13 22 5 -40 8 -147 8 -135 1
-178 -2 -160 -10z m-50 -158 c0 -5 -4 -10 -10 -10 -5 0 -10 5 -10 10 0 6 5 10
10 10 6 0 10 -4 10 -10z m-25 -40 c3 -5 -1 -10 -9 -10 -9 0 -16 5 -16 10 0 6
4 10 9 10 6 0 13 -4 16 -10z"/>
<path d="M5808 3483 c18 -2 45 -2 60 0 15 2 0 4 -33 4 -33 0 -45 -2 -27 -4z"/>
<path d="M5408 3462 c-31 -4 -59 -10 -62 -13 -3 -3 -9 -44 -12 -90 -3 -46 -7
-89 -9 -96 -2 -6 3 -14 11 -17 21 -8 89 -8 97 0 4 4 -9 35 -28 69 -37 65 -40
75 -27 75 4 0 24 -29 43 -65 33 -62 53 -78 105 -80 6 0 18 -5 25 -11 30 -24
64 -36 118 -44 48 -7 75 -3 181 25 69 19 144 39 168 45 34 9 42 15 42 34 0 18
-15 34 -57 63 -34 23 -64 52 -72 71 -15 32 -15 32 -91 32 -42 0 -144 2 -226 4
-82 3 -175 1 -206 -2z m162 -212 c0 -5 -5 -10 -11 -10 -5 0 -7 5 -4 10 3 6 8
10 11 10 2 0 4 -4 4 -10z"/>
<path d="M5955 3443 c7 -29 18 -40 78 -73 l37 -21 0 35 c0 19 -5 38 -10 41 -7
4 -7 13 0 26 10 18 7 19 -51 19 l-61 0 7 -27z"/>
<path d="M6095 2535 c-86 -51 -158 -95 -160 -97 -3 -2 13 -18 36 -34 22 -16
54 -41 72 -56 18 -15 38 -28 45 -28 6 0 12 -7 12 -15 0 -8 4 -15 8 -15 14 0
108 -98 226 -233 183 -214 163 -197 244 -197 67 0 72 1 92 30 12 17 45 46 73
64 73 48 173 154 180 192 5 26 2 32 -28 48 -18 10 -73 51 -122 92 -48 40 -98
74 -109 74 -12 0 -26 6 -32 13 -6 7 -43 28 -81 47 -39 18 -71 39 -71 46 0 6
-21 19 -46 29 l-46 17 -26 -29 c-17 -18 -26 -37 -24 -53 2 -14 -4 -34 -11 -44
-13 -18 -14 -15 -12 33 3 43 8 57 34 82 17 16 31 36 31 43 0 8 -29 30 -64 49
l-65 34 -156 -92z"/>
<path d="M6400 2539 c0 -6 23 -19 50 -31 28 -11 50 -26 50 -33 0 -7 26 -24 58
-37 31 -14 64 -33 71 -42 7 -9 20 -16 28 -16 8 0 -13 23 -46 50 -60 50 -211
128 -211 109z"/>
<path d="M4800 1773 c0 -71 -3 -193 -6 -273 -3 -92 -2 -140 4 -130 12 19 22
530 11 530 -5 0 -9 -57 -9 -127z"/>
<path d="M6531 1836 c8 -8 88 -10 95 -3 4 4 -17 7 -46 7 -29 0 -51 -2 -49 -4z"/>
<path d="M4355 1710 c-3 -5 -1 -10 4 -10 6 0 11 5 11 10 0 6 -2 10 -4 10 -3 0
-8 -4 -11 -10z"/>
<path d="M4793 1265 c0 -38 2 -53 4 -32 2 20 2 52 0 70 -2 17 -4 1 -4 -38z"/>
<path d="M4267 4338 c-89 -94 -104 -120 -181 -313 -56 -139 -64 -177 -46 -205
8 -11 10 -3 9 30 -2 42 16 95 88 259 8 18 16 39 17 45 8 42 161 236 193 244
14 4 18 22 6 22 -5 0 -43 -37 -86 -82z"/>
<path d="M2821 3996 c140 -133 376 -333 383 -325 1 2 18 30 36 63 30 53 32 63
24 104 l-9 45 -105 38 c-58 22 -134 46 -170 54 -36 8 -92 21 -124 29 l-60 15
25 -23z"/>
<path d="M2988 3993 c7 -3 16 -2 19 1 4 3 -2 6 -13 5 -11 0 -14 -3 -6 -6z"/>
<path d="M3287 3826 c4 -34 -2 -54 -33 -110 l-37 -69 20 -17 c15 -12 59 -21
142 -30 67 -6 121 -17 121 -22 0 -10 -110 -5 -185 8 l-30 5 41 -38 c104 -97
197 -173 211 -173 6 0 15 11 21 24 10 22 8 24 -24 30 -19 4 -34 11 -34 17 0 5
11 7 24 3 19 -4 26 -1 31 15 8 28 25 18 18 -10 -4 -16 -2 -20 8 -17 17 6 14
50 -5 60 -8 5 -12 17 -9 29 4 13 9 17 16 10 6 -6 16 -3 28 12 9 12 21 19 25
14 4 -4 -3 -18 -15 -31 -13 -14 -20 -29 -16 -35 3 -6 8 -30 10 -52 3 -32 1
-40 -10 -35 -9 3 -23 -8 -36 -27 l-23 -32 27 24 c22 20 27 21 27 8 0 -9 -4
-19 -10 -22 -16 -10 -12 -35 6 -35 8 0 12 5 9 10 -10 15 5 12 22 -5 8 -9 12
-19 9 -23 -4 -3 -11 0 -15 7 -5 8 -11 9 -15 3 -3 -5 5 -21 18 -35 18 -20 37
-27 87 -32 l64 -7 205 101 c212 104 230 114 230 133 0 10 -41 7 -100 -7 -24
-6 -24 -6 -6 9 17 14 18 16 3 16 -9 0 -17 5 -17 11 0 5 5 7 10 4 6 -3 10 -2
10 2 0 10 -41 136 -46 142 -2 2 -46 -14 -98 -35 l-96 -37 -64 61 c-63 61 -91
77 -80 47 4 -8 1 -15 -5 -15 -7 0 -14 6 -17 14 -3 7 -15 14 -27 14 -12 0 -106
36 -208 79 l-186 80 4 -41z m793 -326 c0 -5 -4 -10 -10 -10 -5 0 -10 5 -10 10
0 6 5 10 10 10 6 0 10 -4 10 -10z m-35 -10 c3 -5 1 -10 -4 -10 -6 0 -11 5 -11
10 0 6 2 10 4 10 3 0 8 -4 11 -10z m-35 -10 c0 -5 -5 -10 -11 -10 -5 0 -7 5
-4 10 3 6 8 10 11 10 2 0 4 -4 4 -10z m-36 -20 c-6 -6 -20 -12 -32 -15 -12 -2
-27 -7 -33 -11 -7 -4 -10 -1 -7 6 2 7 12 14 22 16 10 1 20 5 24 8 3 3 12 6 21
6 10 0 12 -3 5 -10z m96 0 c0 -5 -2 -10 -4 -10 -3 0 -8 5 -11 10 -3 6 -1 10 4
10 6 0 11 -4 11 -10z m-30 -10 c0 -5 -4 -10 -10 -10 -5 0 -10 5 -10 10 0 6 5
10 10 10 6 0 10 -4 10 -10z m-30 -10 c0 -5 -4 -10 -10 -10 -5 0 -10 5 -10 10
0 6 5 10 10 10 6 0 10 -4 10 -10z m-125 -10 c-3 -5 -10 -10 -16 -10 -5 0 -9 5
-9 10 0 6 7 10 16 10 8 0 12 -4 9 -10z m-35 -10 c0 -5 -4 -10 -10 -10 -5 0
-10 5 -10 10 0 6 5 10 10 10 6 0 10 -4 10 -10z m90 0 c0 -5 -5 -10 -11 -10 -5
0 -7 5 -4 10 3 6 8 10 11 10 2 0 4 -4 4 -10z m-125 -10 c3 -5 1 -10 -4 -10 -6
0 -11 5 -11 10 0 6 2 10 4 10 3 0 8 -4 11 -10z m90 0 c3 -5 1 -10 -4 -10 -6 0
-11 5 -11 10 0 6 2 10 4 10 3 0 8 -4 11 -10z m-25 -10 c0 -5 -4 -10 -10 -10
-5 0 -10 5 -10 10 0 6 5 10 10 10 6 0 10 -4 10 -10z m-130 -32 c0 -30 -15 -54
-24 -40 -8 14 3 62 15 62 5 0 9 -10 9 -22z m-34 5 c-3 -4 -17 -8 -29 -10 -17
-2 -19 -1 -7 7 17 11 47 14 36 3z m94 3 c0 -3 -4 -8 -10 -11 -5 -3 -10 -1 -10
4 0 6 5 11 10 11 6 0 10 -2 10 -4z m-30 -10 c0 -3 -4 -8 -10 -11 -5 -3 -10 -1
-10 4 0 6 5 11 10 11 6 0 10 -2 10 -4z m-70 -26 c0 -5 -4 -10 -10 -10 -5 0
-10 5 -10 10 0 6 5 10 10 10 6 0 10 -4 10 -10z m-30 -4 c0 -3 -4 -8 -10 -11
-5 -3 -10 -1 -10 4 0 6 5 11 10 11 6 0 10 -2 10 -4z"/>
<path d="M4007 3813 c-4 -3 -7 -24 -7 -45 0 -39 -1 -40 -65 -69 -67 -30 -82
-46 -71 -75 4 -11 10 -13 19 -7 6 5 47 22 90 37 42 16 80 32 83 37 4 7 -34
129 -41 129 -1 0 -5 -3 -8 -7z"/>
<path d="M4106 3620 c11 -64 27 -110 40 -110 9 0 6 17 -10 58 -34 87 -36 90
-30 52z"/>
<path d="M4639 3240 c-4 -36 -2 -60 4 -60 4 0 21 0 37 0 28 0 30 3 30 35 0 33
-2 35 -35 35 -19 0 -35 -4 -36 -10z"/>
<path d="M4673 3163 c-28 -4 -33 -8 -33 -31 0 -45 12 -54 59 -46 34 5 41 10
36 25 -3 11 -8 28 -11 39 -3 11 -8 19 -12 18 -4 0 -22 -3 -39 -5z"/>
<path d="M2593 625 c0 -38 2 -53 4 -32 2 20 2 52 0 70 -2 17 -4 1 -4 -38z"/>
<path d="M415 2998 c-17 -8 -131 -148 -121 -148 2 0 36 36 75 80 40 44 71 80
69 79 -2 0 -12 -5 -23 -11z"/>
</g>
</svg>
