<?xml version="1.0" standalone="no"?>
<!DOCTYPE svg PUBLIC "-//W3C//DTD SVG 20010904//EN"
 "http://www.w3.org/TR/2001/REC-SVG-20010904/DTD/svg10.dtd">
<svg version="1.0" xmlns="http://www.w3.org/2000/svg"
 width="800.000000pt" height="800.000000pt" viewBox="0 0 800.000000 800.000000"
 preserveAspectRatio="xMidYMid meet">
<metadata>
Created by potrace 1.16, written by Peter Selinger 2001-2019
</metadata>
<g transform="translate(0.000000,800.000000) scale(0.100000,-0.100000)"
fill="#000000" stroke="none">
<path d="M0 7546 c0 -354 3 -456 13 -460 9 -5 9 -7 -1 -12 -17 -8 -17 -380 0
-388 10 -5 10 -7 1 -12 -19 -8 -19 -980 -1 -987 10 -3 11 -9 1 -26 -19 -31
-17 -161 3 -190 12 -17 14 -25 5 -30 -8 -6 0 -32 29 -91 22 -46 40 -94 40
-106 0 -12 6 -24 13 -27 8 -3 31 -51 52 -106 23 -62 45 -106 57 -112 10 -6 38
-9 61 -7 42 3 42 3 49 50 8 58 14 68 39 68 14 0 21 9 26 30 3 17 12 30 19 30
19 0 18 49 -1 74 -20 26 -26 17 -28 -38 -1 -26 -6 -44 -12 -42 -5 2 -9 12 -8
22 2 10 6 45 9 76 7 58 35 118 55 118 6 0 9 -6 6 -14 -4 -9 7 -17 32 -25 51
-15 51 -15 51 17 1 41 39 76 133 120 85 40 87 40 101 21 8 -11 20 -17 29 -14
23 9 118 -22 133 -43 7 -11 33 -25 58 -32 43 -12 85 -44 73 -56 -3 -3 -14 3
-25 14 -11 11 -35 23 -53 27 -19 4 -45 17 -59 30 -31 28 -93 49 -126 42 -17
-3 -29 2 -38 15 -13 19 -16 18 -87 -17 -92 -46 -117 -69 -125 -113 -6 -30 -3
-39 16 -54 25 -21 50 -62 50 -84 0 -8 3 -13 8 -12 4 2 18 -7 31 -19 l24 -22
-26 -6 c-14 -4 -30 -4 -35 -1 -5 3 -24 -35 -42 -84 l-32 -90 -48 0 c-27 0 -52
-4 -55 -10 -3 -5 -15 -10 -26 -10 -64 0 -100 -92 -60 -149 25 -35 26 -40 4
-56 -25 -19 -6 -35 43 -35 24 0 44 -4 44 -10 0 -5 -20 -10 -45 -10 -37 0 -47
4 -61 25 -16 24 -16 27 1 39 18 13 18 14 -2 42 -17 24 -19 37 -14 76 4 26 14
54 21 63 20 24 -4 35 -55 28 -58 -8 -85 20 -125 129 -21 56 -41 93 -55 102
-22 14 -24 14 -28 -2 -3 -12 -5 -11 -6 6 0 12 4 22 9 22 19 0 10 46 -24 115
l-35 70 0 -982 c-1 -764 2 -983 11 -983 7 0 31 19 55 42 23 23 46 39 50 35 10
-11 -65 -84 -93 -91 l-24 -6 0 -834 0 -833 25 -13 c14 -7 25 -22 25 -32 0 -10
7 -18 15 -18 21 0 19 -40 -3 -56 -24 -19 -32 -17 -32 7 0 15 5 19 15 15 9 -3
15 0 15 9 0 8 -5 15 -11 15 -16 0 -41 29 -34 40 3 5 1 10 -4 10 -15 0 -14 -47
2 -53 9 -4 9 -7 0 -18 -10 -10 -13 -192 -13 -841 l0 -828 1405 0 1405 0 41 45
c22 24 59 55 82 69 23 13 64 47 91 75 l49 50 8 158 c29 582 34 628 64 669 24
33 27 8 6 -43 -21 -48 -29 -150 -47 -586 l-5 -118 28 3 c18 2 29 10 31 23 6
33 33 55 68 55 18 0 35 6 37 13 4 9 7 9 15 -1 5 -7 16 -10 25 -6 21 8 21 13 0
36 -26 29 -7 33 23 5 15 -14 33 -23 40 -20 10 3 14 -3 14 -21 0 -14 -4 -26 -8
-26 -16 0 -39 -64 -31 -87 6 -15 -4 -60 -32 -148 -21 -70 -39 -131 -39 -136 0
-5 232 -9 555 -9 544 0 555 0 555 20 0 10 -8 23 -18 29 -16 9 -15 11 5 32 12
13 26 19 30 15 4 -4 1 -12 -8 -17 -15 -8 -15 -11 0 -43 l16 -35 1798 -1 1797
0 0 573 c0 432 -3 576 -12 585 -9 9 -9 15 0 24 8 8 12 57 12 153 l0 141 -80
65 c-44 35 -84 65 -90 67 -5 2 -16 -12 -24 -31 -9 -22 -23 -37 -39 -41 -14 -3
-29 -16 -33 -29 -7 -22 -21 -37 -38 -37 -5 0 -2 8 7 18 10 10 17 25 17 34 0 8
11 20 25 26 14 6 25 16 25 22 0 6 4 9 9 5 5 -3 15 11 21 30 10 31 9 38 -10 65
-12 17 -25 29 -28 26 -3 -4 -14 1 -24 11 -17 15 -18 15 -18 -5 0 -12 -6 -22
-14 -22 -8 0 -17 -6 -19 -12 -4 -10 -8 -9 -16 2 -15 21 -14 30 4 30 8 0 15 6
15 14 0 8 6 16 13 19 9 3 9 8 -2 21 -8 9 -11 19 -7 23 3 4 13 -2 20 -13 45
-61 45 -61 39 -31 -3 15 -12 27 -19 27 -17 0 -18 17 -1 23 9 3 8 8 -4 18 -9 8
-29 34 -44 59 -15 25 -95 111 -177 193 -124 123 -153 147 -178 147 -17 0 -30
5 -30 10 0 6 -6 10 -13 10 -7 0 -23 17 -35 39 -17 31 -31 41 -67 51 -25 7 -45
17 -45 21 0 11 -4 11 50 -5 32 -9 52 -23 68 -47 13 -20 43 -43 70 -55 75 -34
338 -288 378 -366 8 -15 18 -28 23 -28 10 0 31 -46 31 -69 0 -10 14 -39 31
-65 l32 -48 22 24 c29 29 40 84 20 92 -25 9 -17 26 13 26 15 0 49 13 75 30
l47 30 0 1465 c0 1133 -3 1465 -12 1465 -9 0 -9 3 0 12 8 8 12 64 12 185 0 95
-2 173 -4 173 -1 0 -17 -5 -34 -11 -25 -8 -33 -18 -38 -46 -5 -29 -19 -44 -75
-85 -38 -28 -66 -55 -62 -61 3 -6 1 -7 -5 -3 -7 4 -28 -5 -47 -20 -24 -18 -52
-29 -85 -32 -46 -4 -50 -7 -65 -44 -8 -22 -12 -44 -9 -50 4 -6 2 -8 -3 -5 -6
4 -14 -5 -17 -19 -4 -15 -18 -41 -32 -59 -35 -47 -96 -60 -241 -52 l-113 6 0
-29 c0 -23 5 -30 30 -35 23 -5 30 -12 30 -31 0 -17 6 -24 20 -24 11 0 20 -4
20 -10 0 -5 -11 -10 -24 -10 -19 0 -25 6 -28 27 -2 22 -9 29 -33 33 -26 4 -31
10 -35 44 l-5 38 -136 52 c-103 39 -170 73 -278 140 -78 50 -147 98 -152 109
-12 22 -87 56 -138 62 -19 3 -75 0 -123 -5 -73 -8 -110 -20 -229 -73 -139 -61
-144 -64 -201 -132 -36 -42 -83 -116 -118 -185 -54 -108 -66 -122 -177 -231
-104 -103 -155 -141 -169 -127 -2 3 -7 19 -10 38 -5 24 -4 31 4 26 7 -4 12
-16 12 -27 0 -10 5 -19 12 -19 6 0 69 57 139 126 118 117 131 134 185 238 32
61 83 140 113 176 51 59 66 70 164 114 59 27 107 53 107 57 0 5 10 9 23 9 35
0 44 11 51 63 8 51 3 56 -33 31 -18 -13 -25 -14 -31 -4 -6 9 -24 11 -69 6 -40
-5 -61 -3 -61 4 0 9 56 14 140 14 14 -1 77 32 145 75 89 57 170 97 318 157
136 55 211 92 241 117 47 39 100 122 89 140 -3 5 -1 7 4 4 6 -4 53 59 109 146
115 179 103 162 110 155 3 -4 -44 -83 -105 -178 l-111 -171 11 -40 c7 -21 14
-39 15 -39 2 0 28 11 57 24 30 13 102 34 160 47 58 13 104 26 102 29 -1 3 15
6 36 7 22 0 65 14 97 30 31 17 107 49 167 73 125 49 133 55 175 121 29 44 30
50 20 89 -16 60 -3 156 26 187 13 14 24 31 24 37 0 6 9 17 20 24 11 6 28 29
39 49 10 21 33 51 50 67 l31 30 0 154 c0 84 -3 152 -7 150 -5 -2 -25 -10 -45
-18 -29 -10 -38 -20 -38 -37 0 -26 -3 -27 -31 -13 -17 10 -19 7 -19 -25 0 -19
-5 -35 -11 -35 -7 0 -8 11 -4 31 l7 30 -144 -72 c-187 -94 -258 -142 -258
-174 0 -24 -15 -35 -22 -15 -1 5 -46 -60 -98 -145 -54 -88 -101 -155 -110
-155 -8 0 -25 -3 -37 -6 -14 -4 -23 -2 -23 5 0 6 10 11 23 11 13 0 30 6 39 13
9 6 59 81 111 165 l94 154 -20 61 c-11 34 -23 98 -27 142 -5 44 -16 110 -25
146 l-16 66 -67 -19 c-58 -15 -80 -17 -172 -8 -58 5 -160 12 -227 16 -117 6
-124 6 -189 -20 l-68 -28 -211 7 -210 7 -46 45 c-39 37 -51 44 -70 38 -21 -7
-22 -6 -10 9 11 14 11 16 -1 16 -8 0 -21 -13 -29 -29 -13 -26 -236 -227 -244
-219 -7 6 32 45 123 122 52 43 101 94 110 112 11 24 22 34 39 34 13 0 23 5 23
10 0 6 -9 10 -20 10 -26 0 -26 21 0 128 18 75 19 94 9 206 -10 113 -9 127 10
193 12 38 21 90 21 115 0 61 -32 149 -75 208 -30 41 -42 50 -88 60 -28 7 -119
39 -202 72 -127 51 -155 66 -183 99 -62 73 -33 69 -612 69 -507 -1 -521 -1
-555 -21 -19 -12 -32 -26 -28 -32 3 -6 1 -7 -5 -3 -6 4 -23 -1 -37 -10 -14 -9
-28 -14 -32 -10 -8 8 -9 7 52 45 l50 31 -1162 0 c-764 0 -1164 -3 -1168 -10
-3 -5 -11 -10 -16 -10 -6 0 -7 5 -4 10 4 7 -165 10 -501 10 -469 0 -509 -1
-528 -17 -20 -17 -20 -17 -7 0 13 16 -12 17 -498 17 l-511 0 0 -454z m2034
399 c-6 -16 -24 -21 -24 -7 0 11 11 22 21 22 5 0 6 -7 3 -15z m-34 -50 c-7 -9
-15 -13 -17 -11 -7 7 7 26 19 26 6 0 6 -6 -2 -15z m-33 -50 c-4 -8 -11 -15
-17 -15 -7 0 -7 6 0 21 13 23 26 19 17 -6z m-37 -40 c-7 -8 -17 -15 -22 -15
-6 0 -5 7 2 15 7 8 17 15 22 15 6 0 5 -7 -2 -15z m-50 -40 c-7 -8 -17 -15 -22
-15 -6 0 -5 7 2 15 7 8 17 15 22 15 6 0 5 -7 -2 -15z m-50 -40 c-7 -9 -15 -13
-18 -10 -3 2 1 11 8 20 7 9 15 13 18 10 3 -2 -1 -11 -8 -20z m-45 -34 c-3 -6
-11 -11 -17 -11 -6 0 -6 6 2 15 14 17 26 13 15 -4z m-48 -38 c-9 -9 -20 -13
-24 -9 -4 4 -1 11 7 16 25 16 35 11 17 -7z m-47 -38 c-7 -8 -16 -12 -21 -9
-13 8 -1 24 18 24 13 0 13 -3 3 -15z m-45 -34 c-3 -6 -14 -11 -23 -11 -15 1
-15 2 2 15 21 16 32 13 21 -4z m-45 -30 c0 -5 -7 -11 -15 -15 -15 -5 -20 5 -8
17 9 10 23 9 23 -2z m1438 -317 c84 -168 151 -309 148 -312 -9 -8 -6 -13 -110
196 -53 106 -103 195 -112 199 -8 3 -13 12 -10 20 3 8 -14 54 -39 103 -25 49
-45 92 -45 95 0 27 37 -39 168 -301z m-1492 271 c-21 -16 -32 -13 -21 4 3 6
14 11 23 11 15 -1 15 -2 -2 -15z m-1216 -12 c0 -10 -52 -63 -63 -63 -5 0 4 15
20 34 27 33 43 44 43 29z m2995 -32 c-20 -20 -29 -8 -15 19 10 18 14 20 21 9
5 -9 3 -19 -6 -28z m-1815 20 c0 -5 -7 -12 -16 -15 -24 -9 -28 -7 -14 9 14 17
30 20 30 6z m-60 -46 c-7 -9 -15 -13 -17 -11 -7 7 7 26 19 26 6 0 6 -6 -2 -15z
m-50 -40 c-7 -9 -15 -13 -18 -10 -3 2 1 11 8 20 7 9 15 13 18 10 3 -2 -1 -11
-8 -20z m-1224 -36 c118 -103 185 -169 180 -178 -3 -5 1 -11 9 -15 8 -3 15
-12 15 -21 0 -8 6 -15 14 -15 23 0 27 -29 6 -50 -19 -19 -19 -21 -2 -49 10
-16 47 -55 82 -87 63 -55 79 -74 65 -74 -10 0 -170 142 -184 163 -9 14 -9 21
3 32 11 12 12 21 2 48 -6 19 -17 41 -24 49 -6 8 -9 17 -6 20 7 7 -214 207
-241 218 -20 9 -20 9 1 9 11 1 47 -22 80 -50z m1184 21 c0 -5 -10 -10 -22 -10
-19 0 -20 2 -8 10 19 13 30 13 30 0z m-65 -20 c-3 -5 -13 -10 -21 -10 -8 0
-14 5 -14 10 0 6 9 10 21 10 11 0 17 -4 14 -10z m-50 -10 c-3 -5 -16 -10 -28
-10 -18 0 -19 2 -7 10 20 13 43 13 35 0z m-120 -20 c-3 -5 -13 -10 -21 -10 -8
0 -12 5 -9 10 3 6 13 10 21 10 8 0 12 -4 9 -10z m58 3 c-7 -2 -19 -2 -25 0 -7
3 -2 5 12 5 14 0 19 -2 13 -5z m-113 -22 c0 -12 -20 -25 -27 -18 -7 7 6 27 18
27 5 0 9 -4 9 -9z m3279 -28 c-1 -17 -3 -21 -6 -10 -2 9 -11 17 -19 17 -8 0
-12 5 -9 10 13 21 35 10 34 -17z m51 5 c0 -13 -23 -5 -28 10 -2 7 2 10 12 6 9
-3 16 -11 16 -16z m-1973 1 c9 -9 6 -19 -10 -41 l-22 -30 31 -26 c17 -15 84
-68 150 -119 65 -50 134 -105 153 -120 l34 -29 -12 -48 c-10 -41 -10 -51 3
-65 13 -14 11 -20 -15 -55 -16 -22 -29 -50 -29 -62 0 -13 -5 -26 -11 -30 -18
-11 -1 66 21 94 15 19 17 28 8 47 -8 18 -7 35 4 68 l14 43 -42 37 c-36 32 -44
35 -54 22 -7 -9 -15 -13 -18 -10 -3 2 0 11 6 18 10 11 -7 29 -84 88 -177 136
-173 132 -167 157 8 35 -29 28 -70 -13 -57 -57 -60 -40 -4 20 35 37 53 50 55
40 2 -9 14 -15 30 -14 l27 0 -25 10 c-20 8 -22 12 -10 19 19 12 24 12 37 -1z
m1863 -9 c0 -5 -10 -10 -22 -10 -19 0 -20 2 -8 10 19 13 30 13 30 0z m-3260
-7 c0 -5 -5 -15 -10 -23 -8 -12 -10 -11 -10 8 0 12 5 22 10 22 6 0 10 -3 10
-7z m3416 -20 c-7 -7 -26 7 -26 19 0 6 6 6 15 -2 9 -7 13 -15 11 -17z m-216
-5 c0 -19 -2 -20 -10 -8 -13 19 -13 30 0 30 6 0 10 -10 10 -22z m250 -23 c0
-8 -4 -15 -10 -15 -5 0 -7 7 -4 15 4 8 8 15 10 15 2 0 4 -7 4 -15z m-3479 -38
c-8 -8 -11 -7 -11 4 0 20 13 34 18 19 3 -7 -1 -17 -7 -23z m3259 18 c0 -8 -4
-15 -10 -15 -5 0 -10 7 -10 15 0 8 5 15 10 15 6 0 10 -7 10 -15z m100 -4 c0
-12 -20 -25 -27 -18 -7 7 6 27 18 27 5 0 9 -4 9 -9z m822 -13 c-6 -6 -15 -8
-19 -4 -4 4 -1 11 7 16 19 12 27 3 12 -12z m61 15 c-7 -2 -19 -2 -25 0 -7 3
-2 5 12 5 14 0 19 -2 13 -5z m67 -3 c0 -5 -9 -10 -20 -10 -11 0 -20 5 -20 10
0 6 9 10 20 10 11 0 20 -4 20 -10z m53 -30 c9 -11 13 -20 8 -20 -4 0 -16 9
-26 20 -10 11 -14 20 -9 20 5 0 17 -9 27 -20z m-4383 0 c0 -5 -4 -10 -10 -10
-5 0 -10 5 -10 10 0 6 5 10 10 10 6 0 10 -4 10 -10z m3323 1 c9 -1 17 -6 17
-12 0 -14 -62 -7 -67 8 -3 6 4 10 14 8 10 -2 26 -4 36 -4z m837 -16 c-7 -8
-17 -15 -22 -15 -6 0 -5 7 2 15 7 8 17 15 22 15 6 0 5 -7 -2 -15z m-4170 -12
c0 -5 -5 -15 -10 -23 -8 -12 -10 -11 -10 8 0 12 5 22 10 22 6 0 10 -3 10 -7z
m1440 -16 c0 -7 -7 -22 -15 -33 -12 -16 -14 -17 -15 -2 0 23 11 48 21 48 5 0
9 -6 9 -13z m3010 3 c8 -5 11 -12 7 -16 -4 -4 -15 0 -24 9 -18 18 -8 23 17 7z
m-333 -17 c-9 -9 -20 -13 -24 -9 -4 4 -1 11 7 16 25 16 35 11 17 -7z m383 -25
c0 -13 -23 -5 -28 10 -2 7 2 10 12 6 9 -3 16 -11 16 -16z m-425 -7 c-3 -6 -14
-11 -23 -11 -15 1 -15 2 2 15 21 16 32 13 21 -4z m755 4 c-12 -15 -30 -12 -30
6 0 5 10 9 21 9 18 0 19 -2 9 -15z m-5754 -22 c-10 -10 -19 5 -10 18 6 11 8
11 12 0 2 -7 1 -15 -2 -18z m894 12 c-7 -9 -15 -13 -17 -11 -7 7 7 26 19 26 6
0 6 -6 -2 -15z m1570 -20 c-7 -8 -18 -15 -24 -15 -18 0 -41 18 -33 26 3 4 13
2 20 -5 11 -9 17 -8 27 4 7 9 15 13 18 10 3 -2 -1 -11 -8 -20z m3010 -7 c0
-13 -23 -5 -28 10 -2 7 2 10 12 6 9 -3 16 -11 16 -16z m-500 2 c0 -5 -12 -10
-26 -10 -14 0 -23 4 -19 10 3 6 15 10 26 10 10 0 19 -4 19 -10z m790 -6 c0 -8
-5 -12 -10 -9 -6 4 -8 11 -5 16 9 14 15 11 15 -7z m-4903 -19 c-4 -8 -11 -15
-17 -15 -7 0 -7 6 0 21 13 23 26 19 17 -6z m1993 -3 c0 -5 -11 -19 -25 -32
-29 -27 -33 -19 -7 15 17 25 32 32 32 17z m2050 -7 c-7 -8 -17 -12 -22 -9 -6
4 -5 10 3 15 22 14 33 10 19 -6z m540 -5 c-6 -11 -15 -20 -21 -20 -6 0 -6 7 1
20 6 11 15 20 21 20 6 0 6 -7 -1 -20z m66 -18 c-9 -8 -26 10 -26 26 1 15 2 15
15 -2 8 -11 13 -21 11 -24z m-656 3 c-12 -15 -30 -12 -30 6 0 5 10 9 21 9 18
0 19 -2 9 -15z m-4030 -20 c-7 -9 -15 -13 -18 -10 -3 2 1 11 8 20 7 9 15 13
18 10 3 -2 -1 -11 -8 -20z m950 0 c-13 -14 -28 -25 -33 -25 -6 0 0 11 13 25
13 14 28 25 33 25 6 0 0 -11 -13 -25z m660 15 c0 -5 -4 -10 -9 -10 -6 0 -13 5
-16 10 -3 6 1 10 9 10 9 0 16 -4 16 -10z m880 1 c0 -6 -4 -13 -10 -16 -5 -3
-10 1 -10 9 0 9 5 16 10 16 6 0 10 -4 10 -9z m2355 -1 c3 -5 1 -10 -4 -10 -6
0 -11 5 -11 10 0 6 2 10 4 10 3 0 8 -4 11 -10z m-135 -42 c0 -5 -4 -8 -10 -8
-5 0 -10 10 -10 23 0 18 2 19 10 7 5 -8 10 -18 10 -22z m-1340 -86 c1 -78 -6
-110 -62 -304 -35 -120 -66 -218 -70 -218 -3 0 -9 14 -13 30 -5 22 -1 41 15
67 12 20 23 55 25 77 2 23 17 79 33 126 19 52 33 116 37 165 9 118 16 156 26
149 5 -3 9 -44 9 -92z m650 77 c0 -11 -4 -17 -10 -14 -5 3 -10 13 -10 21 0 8
5 14 10 14 6 0 10 -9 10 -21z m821 -12 c-8 -8 -11 -7 -11 4 0 9 3 19 7 23 4 4
9 2 11 -4 3 -7 -1 -17 -7 -23z m-4874 -2 c-4 -8 -11 -15 -17 -15 -7 0 -7 6 0
21 13 23 26 19 17 -6z m1046 -4 c9 -16 17 -39 17 -51 0 -12 7 -37 16 -55 9
-19 14 -42 12 -52 -2 -12 11 -29 39 -51 24 -18 43 -37 43 -41 0 -5 11 -12 25
-15 14 -4 25 -13 25 -21 0 -23 -15 -18 -51 16 -19 18 -49 43 -66 57 -26 19
-33 32 -33 58 0 18 -4 35 -9 38 -5 4 -12 28 -16 56 -4 27 -13 54 -21 61 -15
12 -19 29 -6 29 4 0 15 -13 25 -29z m1217 9 c0 -5 -4 -10 -9 -10 -6 0 -13 5
-16 10 -3 6 1 10 9 10 9 0 16 -4 16 -10z m717 -17 c2 -6 -6 -11 -19 -12 -13
-1 -48 -3 -78 -5 -30 -3 -46 -2 -35 1 11 3 25 9 31 14 6 5 19 7 27 3 9 -3 24
-1 34 5 21 12 35 10 40 -6z m1783 -26 c0 -5 -4 -5 -10 -2 -5 3 -10 14 -10 23
0 15 2 15 10 2 5 -8 10 -19 10 -23z m86 -4 c-11 -11 -19 6 -11 24 8 17 8 17
12 0 3 -10 2 -21 -1 -24z m-4876 8 c0 -6 -5 -13 -11 -16 -6 -4 -8 -13 -5 -21
3 -8 -1 -14 -9 -14 -13 0 -20 -18 -16 -42 0 -5 -6 -8 -15 -8 -11 0 -14 -5 -10
-16 4 -9 2 -22 -4 -29 -8 -9 1 -22 34 -49 24 -20 49 -36 55 -36 6 0 11 -6 11
-13 0 -7 16 -21 35 -30 35 -17 43 -31 25 -42 -5 -3 -10 0 -10 7 0 7 -20 21
-45 31 -25 11 -45 24 -45 30 0 16 -90 88 -101 81 -5 -3 -9 -11 -9 -18 0 -6 -5
-17 -12 -24 -6 -6 -13 -21 -15 -32 -3 -21 -41 -65 -49 -57 -3 3 3 12 12 21 12
13 14 20 5 29 -15 15 -14 27 2 27 10 0 36 35 55 71 1 4 -13 17 -33 29 -29 18
-35 27 -35 56 0 19 5 34 11 34 7 0 9 -10 5 -25 -5 -19 -1 -28 18 -41 27 -17
46 -12 46 11 0 9 9 14 22 12 17 -1 24 4 26 21 2 12 7 20 11 17 4 -2 14 7 21
20 13 25 30 33 30 16z m4840 -46 c-7 -9 -15 -13 -18 -10 -3 2 1 11 8 20 7 9
15 13 18 10 3 -2 -1 -11 -8 -20z m-2816 -7 c-4 -13 -11 -26 -17 -30 -14 -9
-29 0 -22 13 4 5 1 9 -4 9 -6 0 -11 4 -11 9 0 8 13 13 53 20 5 0 5 -9 1 -21z
m2786 -4 c0 -8 -4 -12 -10 -9 -5 3 -10 13 -10 21 0 8 5 12 10 9 6 -3 10 -13
10 -21z m-1770 -34 c-22 -14 -33 -12 -26 6 3 9 6 21 6 27 0 6 8 3 18 -6 15
-16 15 -19 2 -27z m848 22 c2 -7 -2 -10 -12 -6 -9 3 -16 11 -16 16 0 13 23 5
28 -10z m-1 -64 c-3 -7 -5 -2 -5 12 0 14 2 19 5 13 2 -7 2 -19 0 -25z m-37 1
c0 -5 -7 -9 -15 -9 -9 0 -12 -6 -9 -15 4 -8 1 -15 -5 -15 -6 0 -11 2 -11 4 0
2 -3 12 -7 22 -4 12 -3 15 5 10 7 -4 15 -1 18 8 6 16 24 13 24 -5z m-4450 -14
c0 -7 8 -18 17 -23 16 -9 16 -11 0 -27 -16 -15 -17 -15 -23 2 -3 10 -9 25 -14
34 -9 17 -4 29 12 29 4 0 8 -7 8 -15z m303 -24 c-5 -3 -12 -14 -16 -23 -3 -10
-11 -18 -17 -18 -15 0 -12 28 7 56 15 23 17 24 26 9 6 -11 6 -20 0 -24z m4093
-6 c8 -54 29 -60 38 -10 4 19 11 35 16 35 5 0 7 -7 4 -15 -4 -8 -1 -22 6 -30
9 -11 9 -15 1 -15 -7 0 -10 -4 -6 -9 3 -5 -9 -11 -26 -13 -26 -2 -34 -9 -43
-37 -21 -64 -37 -46 -51 54 -2 11 -6 27 -9 35 -6 14 34 49 56 50 4 0 10 -20
14 -45z m108 -1 c8 -21 8 -24 -3 -24 -5 0 -11 9 -14 20 -6 24 8 27 17 4z
m-4150 -45 c3 -17 6 -46 5 -63 0 -26 -2 -28 -8 -11 -12 30 -20 105 -11 105 4
0 10 -14 14 -31z m4148 -11 c-9 -9 -15 -9 -24 0 -9 9 -7 12 12 12 19 0 21 -3
12 -12z m-822 -57 c31 -51 64 -70 90 -53 28 17 30 16 30 -23 0 -30 -4 -35 -27
-41 -16 -3 -32 -7 -38 -8 -5 -1 -8 -21 -6 -44 1 -25 -2 -42 -8 -42 -6 0 -11 5
-11 10 0 6 -13 4 -30 -5 -16 -8 -33 -15 -38 -15 -16 0 -13 86 3 100 19 16 19
38 0 85 -15 34 -13 75 3 75 4 0 18 -18 32 -39z m1890 29 c0 -5 -4 -10 -10 -10
-5 0 -10 5 -10 10 0 6 5 10 10 10 6 0 10 -4 10 -10z m-17 -45 c-5 -13 -23 -22
-23 -11 0 15 14 35 21 31 4 -3 6 -12 2 -20z m-3753 -10 c13 -14 20 -28 17 -32
-4 -3 -8 -4 -9 -2 -2 2 -14 16 -27 32 -31 34 -13 36 19 2z m-1159 -13 c-33
-11 -99 -84 -105 -114 -3 -18 -41 -114 -84 -215 -60 -143 -81 -183 -96 -183
-11 0 -16 5 -13 13 2 7 10 39 17 72 7 33 21 70 32 82 15 16 23 44 29 104 9 94
17 108 54 91 14 -7 27 -12 29 -12 2 0 9 20 15 45 8 32 24 56 52 83 42 38 70
54 79 44 3 -2 -1 -7 -9 -10z m-235 -8 c-3 -9 -6 -18 -6 -20 0 -2 -4 -4 -9 -4
-5 0 -7 9 -4 20 3 11 10 20 15 20 6 0 7 -7 4 -16z m5115 -37 c-8 -8 -11 -7
-11 4 0 9 3 19 7 23 4 4 9 2 11 -4 3 -7 -1 -17 -7 -23z m50 -10 c-8 -8 -11 -7
-11 4 0 9 3 19 7 23 4 4 9 2 11 -4 3 -7 -1 -17 -7 -23z m-3651 3 c20 -20 26
-40 13 -40 -10 0 -53 42 -53 52 0 14 19 9 40 -12z m1520 10 c0 -15 -26 -23
-41 -14 -9 5 -7 10 7 15 27 11 34 10 34 -1z m4260 -15 c0 -14 -4 -25 -9 -25
-10 0 -21 36 -13 44 12 13 22 5 22 -19z m-7732 3 c18 -18 15 -25 -12 -30 -18
-4 -26 0 -29 13 -4 16 4 25 24 28 3 1 10 -4 17 -11z m415 -18 c-3 -11 -9 -20
-14 -20 -11 0 -11 3 -3 24 9 23 23 20 17 -4z m3007 -10 c0 -5 -7 -10 -15 -10
-8 0 -15 5 -15 10 0 6 7 10 15 10 8 0 15 -4 15 -10z m2111 -17 c-8 -15 -10
-15 -11 -2 0 17 10 32 18 25 2 -3 -1 -13 -7 -23z m50 -6 c-8 -8 -11 -7 -11 4
0 9 3 19 7 23 4 4 9 2 11 -4 3 -7 -1 -17 -7 -23z m-2957 6 c4 -9 1 -20 -6 -25
-18 -11 -58 -10 -58 2 0 6 9 10 20 10 11 0 20 7 20 15 0 20 16 19 24 -2z m741
-12 c-3 -12 -10 -21 -15 -21 -5 0 -4 11 2 25 13 29 23 26 13 -4z m-2971 -16
c-4 -8 -10 -15 -15 -15 -4 0 -6 7 -3 15 4 8 10 15 15 15 4 0 6 -7 3 -15z
m1916 1 c0 -8 6 -17 13 -20 6 -3 3 -5 -8 -3 -20 2 -35 37 -16 37 6 0 11 -6 11
-14z m3204 -20 c-3 -9 -10 -16 -15 -16 -6 0 -5 9 1 21 13 24 24 20 14 -5z
m-3134 -11 c0 -14 -2 -25 -4 -25 -2 0 -13 -3 -23 -7 -15 -6 -16 -4 -6 9 7 8
10 18 7 21 -8 7 4 27 17 27 5 0 9 -11 9 -25z m3186 9 c-3 -9 -6 -18 -6 -20 0
-3 -4 -3 -10 1 -11 7 -2 35 12 35 6 0 7 -7 4 -16z m811 -41 c-3 -10 -5 -2 -5
17 0 19 2 27 5 18 2 -10 2 -26 0 -35z m-6001 10 c-2 -10 -8 -34 -11 -53 -4
-19 -12 -40 -17 -47 -5 -7 -7 -17 -3 -23 3 -5 -2 -10 -11 -10 -10 0 -15 -3
-11 -6 8 -8 -34 -54 -45 -48 -5 3 0 14 12 24 23 20 37 70 20 70 -5 0 -10 5
-10 11 0 6 7 8 16 5 13 -5 15 -1 10 17 -4 17 1 32 17 50 26 30 40 34 33 10z
m5124 -10 c0 -14 -19 -38 -25 -32 -8 8 5 39 16 39 5 0 9 -3 9 -7z m50 0 c0
-14 -19 -38 -25 -32 -8 8 5 39 16 39 5 0 9 -3 9 -7z m-4760 -59 c86 -34 93
-40 155 -115 63 -76 85 -114 85 -145 0 -27 -18 -14 -24 18 -5 27 -110 168
-141 190 -5 4 -50 22 -98 39 -84 31 -115 49 -83 49 9 0 56 -16 106 -36z m1130
-9 c7 -14 11 -27 8 -30 -10 -10 -51 31 -44 43 11 18 21 14 36 -13z m3553 0
c-5 -13 -23 -22 -23 -11 0 15 14 35 21 31 4 -3 6 -12 2 -20z m-4328 5 c-3 -5
-16 -10 -28 -10 -18 0 -19 2 -7 10 20 13 43 13 35 0z m4366 -23 c-8 -8 -11 -7
-11 4 0 9 3 19 7 23 4 4 9 2 11 -4 3 -7 -1 -17 -7 -23z m-70 -50 c-8 -8 -11
-7 -11 4 0 9 3 19 7 23 4 4 9 2 11 -4 3 -7 -1 -17 -7 -23z m50 0 c-8 -8 -11
-7 -11 4 0 9 3 19 7 23 4 4 9 2 11 -4 3 -7 -1 -17 -7 -23z m-3971 13 c0 -5 -4
-10 -10 -10 -5 0 -10 5 -10 10 0 6 5 10 10 10 6 0 10 -4 10 -10z m996 -51 c-9
-22 -14 -50 -11 -60 4 -13 2 -19 -9 -19 -22 0 -20 31 6 85 27 55 37 51 14 -6z
m-2429 -3 c-4 -9 2 -17 13 -21 20 -6 55 -53 46 -62 -3 -4 -15 6 -27 20 -11 15
-27 27 -34 27 -8 0 -16 4 -19 9 -8 12 4 41 16 41 6 0 8 -7 5 -14z m5341 2 c-2
-6 -10 -14 -16 -16 -7 -2 -10 2 -6 12 7 18 28 22 22 4z m48 -4 c-3 -9 -6 -18
-6 -20 0 -2 -4 -4 -9 -4 -5 0 -7 9 -4 20 3 11 10 20 15 20 6 0 7 -7 4 -16z
m-2276 -14 c0 -5 7 -7 15 -4 8 4 15 1 15 -5 0 -6 -4 -11 -10 -11 -5 0 -10 -6
-10 -13 0 -7 -9 -18 -19 -24 -17 -11 -21 -9 -26 7 -4 11 -13 20 -21 20 -12 0
-12 3 -2 20 13 20 58 28 58 10z m-2930 -21 c-7 -11 -14 -18 -17 -15 -8 8 5 36
17 36 7 0 7 -6 0 -21z m3023 14 c-7 -2 -19 -2 -25 0 -7 3 -2 5 12 5 14 0 19
-2 13 -5z m677 -29 c0 -17 -12 -18 -28 -2 -18 18 -15 27 8 21 11 -3 20 -12 20
-19z m1424 -8 c-3 -9 -10 -13 -16 -10 -5 3 -4 12 3 20 15 18 22 13 13 -10z
m58 -16 c-2 -16 -8 -30 -13 -30 -5 0 -9 -6 -9 -14 0 -8 -7 -16 -15 -20 -21 -8
-19 17 5 44 11 13 20 29 20 37 0 7 4 13 8 13 5 0 7 -13 4 -30z m-5221 -17 c-8
-15 -10 -15 -11 -2 0 17 10 32 18 25 2 -3 -1 -13 -7 -23z m5130 -20 c-8 -15
-10 -15 -11 -2 0 17 10 32 18 25 2 -3 -1 -13 -7 -23z m-640 -1 c19 -9 95 -92
83 -92 -5 0 -27 18 -49 40 -22 21 -46 39 -52 40 -7 0 -13 5 -13 10 0 11 8 12
31 2z m-4516 -22 c-9 -27 12 -26 36 3 10 12 18 17 19 11 0 -6 -6 -17 -14 -23
-7 -6 -11 -22 -8 -36 3 -16 0 -25 -8 -25 -7 0 -10 6 -7 14 3 8 -1 17 -9 20 -8
3 -14 -1 -14 -9 0 -8 -4 -15 -10 -15 -5 0 -10 5 -10 12 0 6 -7 3 -15 -8 -9
-12 -14 -14 -15 -6 0 13 48 82 57 82 2 0 1 -9 -2 -20z m2430 0 c-3 -5 -10 -10
-16 -10 -5 0 -9 5 -9 10 0 6 7 10 16 10 8 0 12 -4 9 -10z m-2355 -20 c-24 -15
-37 -11 -16 5 11 8 22 12 25 9 3 -3 -1 -9 -9 -14z m4420 3 c0 -10 -32 -63 -70
-118 -50 -72 -66 -101 -55 -103 21 -5 19 -22 -2 -22 -20 0 -63 -60 -63 -87 0
-10 -26 -38 -57 -63 -32 -24 -82 -70 -112 -102 -30 -32 -60 -58 -68 -58 -8 0
-37 -19 -64 -42 l-50 -42 25 -15 24 -15 -1 -190 -2 -191 70 -124 c49 -86 96
-153 156 -221 125 -139 157 -194 180 -304 24 -118 32 -136 58 -129 12 3 21 1
21 -6 0 -6 -6 -11 -14 -11 -11 0 -13 -12 -9 -59 7 -79 -12 -89 -27 -14 -6 32
-20 99 -30 148 -11 50 -22 104 -25 122 -9 47 -72 139 -168 245 -60 67 -104
129 -156 223 l-73 130 0 145 c-1 80 2 163 6 185 6 38 5 41 -26 59 l-33 18 49
45 c27 24 63 50 80 57 17 7 44 29 59 49 15 21 59 62 97 92 39 31 70 63 70 71
0 8 11 32 25 52 14 20 25 40 25 45 0 4 34 58 75 118 41 61 75 115 75 120 0 5
2 9 5 9 3 0 5 -8 5 -17z m636 1 c-6 -15 0 -16 44 -10 32 4 50 3 50 -4 0 -5
-17 -10 -37 -10 -21 0 -55 -3 -75 -6 -25 -5 -38 -3 -38 5 0 6 9 11 19 11 10 0
21 7 25 15 3 8 8 15 12 15 3 0 3 -7 0 -16z m-5346 -54 c0 -6 -7 -13 -15 -16
-9 -4 -15 -19 -15 -35 0 -16 -4 -29 -10 -29 -13 0 -13 31 0 64 9 25 40 37 40
16z m2656 -17 c-3 -8 -6 -23 -6 -34 0 -10 -7 -19 -15 -19 -16 0 -19 20 -9 57
4 14 11 20 21 16 8 -3 12 -12 9 -20z m2323 -30 c2 -1 2 -5 -1 -8 -8 -8 -148
46 -148 56 0 7 135 -36 149 -48z m339 45 c-2 -6 -10 -14 -16 -16 -7 -2 -10 2
-6 12 7 18 28 22 22 4z m59 -13 c-4 -8 -11 -15 -17 -15 -7 0 -7 6 0 21 13 23
26 19 17 -6z m-5233 -10 c-6 -16 -24 -21 -24 -7 0 11 11 22 21 22 5 0 6 -7 3
-15z m2134 -10 c10 -9 -2 -10 -90 -7 -54 2 -88 8 -88 14 0 11 167 5 178 -7z
m3004 -27 c-7 -7 -12 -8 -12 -2 0 14 12 26 19 19 2 -3 -1 -11 -7 -17z m-5248
6 c23 -9 20 -23 -4 -17 -11 3 -20 9 -20 14 0 11 3 11 24 3z m61 -24 c-26 -29
-39 -25 -13 5 12 14 24 23 26 20 3 -3 -3 -14 -13 -25z m3355 20 c0 -5 -9 -10
-20 -10 -11 0 -20 5 -20 10 0 6 9 10 20 10 11 0 20 -4 20 -10z m1892 -12 c-7
-7 -12 -8 -12 -2 0 14 12 26 19 19 2 -3 -1 -11 -7 -17z m-2502 2 c13 -8 13
-10 1 -10 -10 0 -6 -9 12 -28 15 -15 27 -35 26 -43 0 -9 -2 -10 -5 -2 -3 7
-11 10 -17 8 -20 -8 -34 8 -40 48 -6 39 -2 43 23 27z m2411 -53 c-8 -8 -11 -7
-11 4 0 9 3 19 7 23 4 4 9 2 11 -4 3 -7 -1 -17 -7 -23z m60 -10 c-8 -8 -11 -7
-11 4 0 9 3 19 7 23 4 4 9 2 11 -4 3 -7 -1 -17 -7 -23z m-5221 8 c0 -8 -4 -15
-10 -15 -5 0 -10 7 -10 15 0 8 5 15 10 15 6 0 10 -7 10 -15z m2878 -22 c-2
-14 -8 -28 -14 -30 -16 -5 -26 40 -11 49 21 14 28 9 25 -19z m322 17 c0 -12
-37 -12 -65 0 -15 7 -10 9 23 9 23 1 42 -3 42 -9z m1931 -43 c-8 -8 -11 -7
-11 4 0 9 3 19 7 23 4 4 9 2 11 -4 3 -7 -1 -17 -7 -23z m60 -10 c-8 -8 -11 -7
-11 4 0 9 3 19 7 23 4 4 9 2 11 -4 3 -7 -1 -17 -7 -23z m-5181 9 c0 -8 -4 -18
-10 -21 -5 -3 -10 3 -10 14 0 12 5 21 10 21 6 0 10 -6 10 -14z m2480 -1 c0 -8
-4 -15 -9 -15 -13 0 -22 16 -14 24 11 11 23 6 23 -9z m-1025 -25 c9 -16 11
-30 6 -30 -5 0 -13 10 -17 22 -6 20 -7 21 -17 2 -6 -10 -15 -22 -20 -26 -6 -3
5 -13 24 -21 30 -14 31 -15 10 -16 -24 -1 -61 24 -61 41 0 4 6 8 13 8 8 0 19
11 25 25 15 32 18 31 37 -5z m955 11 c0 -6 -4 -13 -10 -16 -5 -3 -10 1 -10 9
0 9 5 16 10 16 6 0 10 -4 10 -9z m2686 -27 c-4 -9 -9 -15 -11 -12 -3 3 -3 13
1 22 4 9 9 15 11 12 3 -3 3 -13 -1 -22z m60 -10 c-4 -9 -9 -15 -11 -12 -3 3
-3 13 1 22 4 9 9 15 11 12 3 -3 3 -13 -1 -22z m-2831 -128 c41 -27 75 -53 75
-58 0 -26 -31 -78 -47 -79 -60 -4 -83 -3 -83 4 0 4 20 7 43 7 37 0 46 4 55 25
7 14 12 29 12 34 0 4 -31 29 -70 55 l-70 48 2 57 2 56 3 -50 4 -50 74 -49z
m2195 135 c0 -5 -7 -11 -15 -15 -15 -5 -20 5 -8 17 9 10 23 9 23 -2z m-4545
-11 c-3 -5 -13 -10 -21 -10 -8 0 -12 5 -9 10 3 6 13 10 21 10 8 0 12 -4 9 -10z
m-55 -9 c0 -13 -28 -22 -35 -11 -3 4 1 11 7 13 20 8 28 8 28 -2z m-90 -9 c0
-13 -12 -22 -22 -16 -10 6 -1 24 13 24 5 0 9 -4 9 -8z m4640 -7 c-7 -8 -20
-15 -29 -15 -13 1 -13 3 3 15 26 19 42 19 26 0z m600 -10 c-7 -9 -15 -13 -17
-11 -7 7 7 26 19 26 6 0 6 -6 -2 -15z m-5205 -5 c-3 -5 -11 -10 -16 -10 -6 0
-7 5 -4 10 3 6 11 10 16 10 6 0 7 -4 4 -10z m5265 -5 c-7 -9 -15 -13 -17 -11
-7 7 7 26 19 26 6 0 6 -6 -2 -15z m-5350 -20 c-7 -9 -15 -13 -18 -10 -3 2 1
11 8 20 7 9 15 13 18 10 3 -2 -1 -11 -8 -20z m5260 -26 c-7 -11 -14 -18 -17
-15 -8 8 5 36 17 36 7 0 7 -6 0 -21z m-1360 -1 c0 -8 3 -9 11 -1 7 7 30 6 77
-4 37 -8 77 -12 90 -10 12 2 22 1 22 -3 0 -4 19 -10 41 -13 43 -6 65 -25 49
-41 -15 -15 -12 -26 5 -26 8 0 15 -4 15 -10 0 -15 -61 -12 -94 5 -15 8 -35 15
-42 15 -8 0 -14 4 -14 8 0 12 -39 52 -51 52 -6 0 -7 -4 -4 -10 3 -5 2 -10 -4
-10 -5 0 -14 7 -19 16 -7 13 -19 16 -56 12 -34 -4 -46 -2 -46 8 0 7 -12 15
-27 17 -23 3 -21 4 10 6 23 0 37 -4 37 -11z m1420 -9 c-7 -11 -14 -18 -17 -15
-8 8 5 36 17 36 7 0 7 -6 0 -21z m-1520 2 c0 -5 -19 -23 -42 -40 -23 -17 -35
-31 -27 -31 8 0 15 -10 17 -23 1 -21 -2 -23 -29 -19 -20 3 -29 9 -25 18 3 8 3
14 0 14 -10 0 -52 -103 -47 -116 3 -10 0 -12 -10 -8 -10 3 -17 -2 -21 -14 -6
-18 -73 -72 -89 -72 -16 0 -4 17 27 37 22 14 48 49 76 100 35 65 51 85 103
121 67 46 67 46 67 33z m-1023 -7 c-3 -3 -12 -4 -19 -1 -8 3 -5 6 6 6 11 1 17
-2 13 -5z m573 -37 c0 -28 -38 -55 -51 -35 -14 22 -10 34 14 46 32 16 37 14
37 -11z m1880 2 c-7 -11 -14 -19 -16 -16 -7 7 7 37 17 37 6 0 5 -9 -1 -21z
m-2067 -24 c9 -20 17 -50 17 -68 0 -43 -105 -442 -116 -441 -5 0 -27 -16 -49
-37 l-40 -39 42 0 c42 0 153 -45 153 -62 0 -12 -6 -10 -60 17 -27 14 -64 25
-83 25 -32 0 -33 -2 -29 -30 2 -17 -1 -36 -7 -44 -9 -10 -7 -21 6 -45 10 -17
21 -31 26 -31 4 0 7 -7 7 -15 0 -8 6 -12 14 -9 21 8 36 -27 36 -86 0 -46 -2
-51 -17 -45 -33 12 -38 10 -41 -22 -2 -18 -7 -33 -11 -33 -10 0 -24 180 -16
202 4 10 -3 23 -19 35 -24 19 -24 20 -7 47 10 15 16 38 13 51 -3 20 -10 25
-36 25 -32 0 -86 33 -74 45 4 4 17 0 30 -9 25 -18 48 -21 48 -6 0 6 -7 10 -15
10 -24 0 -17 17 9 24 26 6 44 46 20 46 -16 0 -18 14 -4 40 15 29 2 51 -26 44
-15 -4 -24 -2 -24 5 0 6 8 11 18 11 9 0 27 3 39 6 20 5 21 3 18 -32 -2 -27 2
-42 14 -51 10 -8 12 -12 4 -13 -25 0 -13 -30 12 -30 15 0 25 6 25 14 0 8 6 16
14 19 8 3 33 86 66 218 l52 212 -21 44 c-11 23 -17 43 -13 43 5 0 16 -16 25
-35z m2127 14 c-7 -11 -14 -19 -16 -16 -7 7 7 37 17 37 6 0 5 -9 -1 -21z m-80
-28 c0 -5 -7 -14 -15 -21 -16 -14 -18 -10 -9 14 6 17 24 22 24 7z m60 -10 c0
-5 -7 -14 -15 -21 -16 -14 -18 -10 -9 14 6 17 24 22 24 7z m-4116 -16 c4 -10
-1 -15 -14 -15 -13 0 -18 5 -14 15 4 8 10 15 14 15 4 0 10 -7 14 -15z m196 6
c0 -10 -24 -21 -43 -21 -7 0 -3 7 7 15 22 17 36 19 36 6z m1590 -17 c0 -3 -7
-13 -16 -21 -13 -14 -17 -14 -24 -3 -5 8 -6 18 -4 22 6 9 44 11 44 2z m-1036
-25 c8 -9 1 -10 -28 -6 -22 4 -44 12 -50 18 -8 9 -1 10 28 6 22 -4 44 -12 50
-18z m946 -11 c0 -12 -14 -10 -28 4 -19 19 -14 29 8 16 11 -7 20 -16 20 -20z
m2324 7 c-6 -16 -24 -21 -24 -7 0 11 11 22 21 22 5 0 6 -7 3 -15z m-2867 -22
c-3 -16 -13 -97 -23 -180 -10 -84 -22 -153 -27 -153 -10 0 -8 31 20 238 8 67
20 122 26 122 5 0 7 -12 4 -27z m2927 12 c-6 -16 -24 -21 -24 -7 0 11 11 22
21 22 5 0 6 -7 3 -15z m-4316 -7 c-2 -6 -10 -14 -16 -16 -7 -2 -10 2 -6 12 7
18 28 22 22 4z m1308 -12 c8 -8 14 -22 14 -30 0 -22 -26 -20 -34 2 -3 9 -9 23
-12 30 -8 17 14 15 32 -2z m1914 -7 c0 -5 -4 -9 -10 -9 -5 0 -10 7 -10 16 0 8
5 12 10 9 6 -3 10 -10 10 -16z m1004 -14 c-6 -16 -24 -21 -24 -7 0 11 11 22
21 22 5 0 6 -7 3 -15z m56 -16 c-7 -11 -14 -19 -16 -16 -7 7 7 37 17 37 6 0 5
-9 -1 -21z m-80 -28 c0 -5 -7 -14 -15 -21 -16 -14 -18 -10 -9 14 6 17 24 22
24 7z m56 -17 c-3 -9 -6 -18 -6 -20 0 -3 -4 -3 -10 1 -11 7 -2 35 12 35 6 0 7
-7 4 -16z m-926 -14 c0 -5 -16 -16 -35 -24 -27 -12 -35 -21 -35 -40 0 -15 5
-26 10 -26 16 0 12 -42 -5 -54 -23 -17 -38 -129 -30 -230 5 -70 17 -117 52
-215 26 -69 55 -138 65 -153 11 -15 65 -67 121 -115 110 -93 169 -163 138
-163 -5 0 -19 15 -30 33 -11 19 -68 73 -126 121 -95 79 -108 94 -139 159 -18
40 -44 102 -57 139 l-23 68 -14 -30 c-8 -17 -21 -30 -29 -30 -19 0 -62 -29
-73 -51 -8 -13 2 -34 46 -96 62 -87 132 -163 150 -163 6 0 17 -7 24 -15 10
-12 16 -13 39 -1 26 13 71 6 71 -11 -1 -22 -20 -35 -44 -31 -50 10 -55 -43 -7
-79 9 -6 13 -15 9 -19 -12 -12 -37 16 -79 87 -21 37 -51 77 -67 87 -28 21 -81
91 -212 282 -43 63 -85 124 -94 135 l-14 20 -16 -20 c-8 -11 -16 -28 -16 -39
0 -11 -5 -16 -14 -13 -21 8 -38 -13 -24 -30 8 -10 7 -17 -8 -28 -23 -17 -31
-18 -39 -5 -5 8 -11 7 -21 0 -7 -7 -19 -10 -25 -8 -6 2 18 28 53 58 36 30 73
65 82 78 17 22 17 24 -6 60 -14 20 -33 49 -42 65 -11 15 -14 27 -7 27 6 0 27
-25 47 -55 21 -31 41 -52 47 -48 8 5 7 8 -1 11 -7 2 -12 8 -12 13 0 4 6 6 14
3 9 -3 29 14 54 48 33 43 42 64 47 113 8 72 19 90 63 98 18 4 53 21 78 37 38
27 103 57 127 59 4 1 7 -3 7 -9z m984 -31 c-2 -4 5 -13 16 -19 19 -10 19 -12
4 -43 -25 -47 -101 -129 -140 -150 -42 -22 -54 -43 -55 -104 -2 -90 -17 -104
-18 -16 -1 80 0 82 30 105 63 47 139 121 158 154 20 34 20 34 1 46 -11 7 -20
18 -20 25 0 7 -4 13 -10 13 -5 0 -10 4 -10 10 0 6 10 5 25 -2 13 -6 22 -15 19
-19z m-144 14 c0 -14 -19 -38 -25 -32 -8 8 5 39 16 39 5 0 9 -3 9 -7z m-2268
-50 c22 -19 24 -43 3 -43 -14 0 -35 29 -35 49 0 16 11 14 32 -6z m2232 -17
c-6 -16 -24 -23 -24 -8 0 10 22 33 27 28 2 -2 1 -11 -3 -20z m-2534 4 c0 -13
-11 -13 -30 0 -12 8 -11 10 8 10 12 0 22 -4 22 -10z m3338 -126 l-4 -126 43 5
c24 2 43 1 43 -3 0 -12 -68 -20 -155 -19 l-80 2 68 10 67 9 0 124 c0 85 4 124
11 124 8 0 10 -37 7 -126z m-1878 101 c0 -6 -97 -55 -107 -55 -4 1 17 14 47
30 61 32 60 32 60 25z m1044 -30 c-4 -8 -10 -15 -15 -15 -4 0 -6 7 -3 15 4 8
10 15 15 15 4 0 6 -7 3 -15z m-3174 -15 c0 -23 -25 -27 -46 -6 -21 21 -18 26
16 26 23 0 30 -4 30 -20z m-437 -7 c19 -11 -3 -28 -36 -28 -38 0 -41 3 -31 29
6 15 40 14 67 -1z m-95 -32 c-15 -21 -28 -18 -28 6 0 8 4 12 9 8 5 -3 13 0 16
6 4 5 9 8 12 5 3 -2 -1 -14 -9 -25z m4275 9 c3 -11 13 -20 24 -21 15 0 14 -2
-4 -9 -13 -6 -23 -18 -23 -30 0 -11 -7 -20 -15 -20 -8 0 -15 -7 -15 -15 0 -21
-9 -19 -31 7 -26 29 -24 32 17 47 31 11 35 16 30 37 -4 13 -2 24 3 24 5 0 11
-9 14 -20z m-3603 0 c0 -5 -9 -10 -20 -10 -11 0 -20 5 -20 10 0 6 9 10 20 10
11 0 20 -4 20 -10z m3008 -2 c-2 -6 -10 -14 -16 -16 -7 -2 -10 2 -6 12 7 18
28 22 22 4z m-3398 -9 c0 -5 5 -7 10 -4 18 11 43 -24 36 -50 -7 -28 -21 -33
-30 -10 -3 8 -15 15 -26 15 -22 0 -23 3 -14 38 6 22 24 31 24 11z m-140 -19
c0 -11 -2 -20 -4 -20 -2 0 -13 -3 -23 -6 -14 -6 -16 -4 -6 6 6 7 9 19 6 26 -3
8 1 14 11 14 9 0 16 -8 16 -20z m950 -5 c10 -12 10 -15 -4 -15 -9 0 -16 7 -16
15 0 8 2 15 4 15 2 0 9 -7 16 -15z m2560 -13 c0 -5 -9 -19 -20 -32 -24 -27
-27 -14 -4 18 16 23 24 28 24 14z m-2300 -47 c-7 -9 -16 -12 -19 -8 -4 4 -10
11 -15 16 -5 4 3 7 19 7 24 0 26 -2 15 -15z m-1660 -35 c0 -22 -4 -40 -9 -40
-5 0 -7 -9 -4 -20 3 -11 0 -20 -6 -20 -7 0 -10 16 -7 44 3 29 0 47 -7 50 -8 3
-8 8 3 15 25 18 30 13 30 -29z m1310 20 c12 -8 9 -10 -12 -10 -16 0 -28 5 -28
10 0 13 20 13 40 0z m2604 -24 c-6 -16 -24 -23 -24 -8 0 10 22 33 27 28 2 -2
1 -11 -3 -20z m-2321 7 c8 -7 -11 -33 -24 -33 -4 0 -7 9 -6 20 1 20 17 27 30
13z m-133 -34 c0 -17 -4 -28 -10 -24 -5 3 -10 17 -10 31 0 13 5 24 10 24 6 0
10 -14 10 -31z m-1013 6 c8 -9 13 -19 9 -22 -7 -7 -36 16 -36 28 0 13 10 11
27 -6z m3441 -27 c-2 -6 -10 -14 -16 -16 -7 -2 -10 2 -6 12 7 18 28 22 22 4z
m-2368 -8 c0 -5 -4 -10 -10 -10 -5 0 -10 5 -10 10 0 6 5 10 10 10 6 0 10 -4
10 -10z m2338 -42 c-2 -6 -10 -14 -16 -16 -7 -2 -10 2 -6 12 7 18 28 22 22 4z
m482 -3 c-7 -8 -19 -15 -27 -15 -13 0 -13 3 -3 15 7 8 19 15 27 15 13 0 13 -3
3 -15z m-3470 -35 c0 -22 -14 -40 -30 -40 -23 0 -30 31 -11 46 16 12 41 8 41
-6z m2954 -24 c-6 -16 -24 -23 -24 -8 0 10 22 33 27 28 2 -2 1 -11 -3 -20z
m483 -18 c-3 -8 -6 -5 -6 6 -1 11 2 17 5 13 3 -3 4 -12 1 -19z m-2378 -24 c11
-9 -8 -11 -56 -7 -29 3 -50 9 -47 14 4 8 93 1 103 -7z m1865 -8 c-3 -9 -10
-16 -15 -16 -6 0 -5 9 1 21 13 24 24 20 14 -5z m-2344 -35 c0 -14 -5 -18 -19
-14 -12 3 -17 11 -14 19 8 21 33 17 33 -5z m2317 -16 c-4 -8 -11 -15 -17 -15
-7 0 -7 6 0 21 13 23 26 19 17 -6z m133 -14 c0 -6 -20 -13 -45 -16 -24 -4 -50
-14 -56 -21 -7 -8 -12 -47 -12 -87 -1 -64 4 -81 41 -161 23 -49 40 -91 37 -94
-7 -8 -8 -6 -50 88 -44 97 -57 161 -45 215 13 57 32 70 123 84 4 0 7 -3 7 -8z
m1439 -53 c1 -5 -3 -8 -9 -8 -5 0 -10 12 -9 28 0 24 1 25 9 7 5 -11 9 -23 9
-27z m91 4 c0 -13 -3 -12 -15 4 -19 25 -19 40 0 24 8 -7 15 -20 15 -28z
m-1699 1 c-8 -15 -10 -15 -11 -2 0 17 10 32 18 25 2 -3 -1 -13 -7 -23z m-2651
7 c0 -5 -4 -10 -9 -10 -6 0 -13 5 -16 10 -3 6 1 10 9 10 9 0 16 -4 16 -10z
m1330 -10 c0 -5 -4 -10 -10 -10 -5 0 -10 5 -10 10 0 6 5 10 10 10 6 0 10 -4
10 -10z m1301 -53 c-8 -8 -11 -7 -11 4 0 20 13 34 18 19 3 -7 -1 -17 -7 -23z
m1629 2 c0 -11 -4 -17 -10 -14 -5 3 -10 13 -10 21 0 8 5 14 10 14 6 0 10 -9
10 -21z m90 -1 c0 -16 -3 -19 -11 -11 -6 6 -8 16 -5 22 11 17 16 13 16 -11z
m-3860 -53 c0 -45 -4 -65 -12 -65 -9 0 -13 20 -14 65 -1 48 3 65 13 65 9 0 13
-17 13 -65z m-1900 18 c0 -11 -3 -14 -8 -7 -4 6 -14 14 -22 17 -10 4 -8 6 8 6
15 1 22 -5 22 -16z m5655 7 c3 -5 -3 -10 -14 -10 -12 0 -21 5 -21 10 0 6 6 10
14 10 8 0 18 -4 21 -10z m-3368 -22 c-3 -13 -11 -54 -18 -93 -11 -68 -29 -110
-29 -69 0 40 33 184 42 184 6 0 8 -10 5 -22z m1753 -3 c0 -14 -2 -25 -4 -25
-2 0 -6 11 -8 25 -3 14 -1 25 3 25 5 0 9 -11 9 -25z m1710 16 c0 -5 -7 -14
-15 -21 -16 -14 -18 -10 -9 14 6 17 24 22 24 7z m-116 -36 c-4 -8 -10 -15 -15
-15 -4 0 -6 7 -3 15 4 8 10 15 15 15 4 0 6 -7 3 -15z m73 -30 c-4 -8 -11 -15
-17 -15 -6 0 -6 7 2 20 14 22 24 19 15 -5z m-4118 -36 c18 -22 30 -43 27 -46
-6 -6 -75 66 -76 80 -1 16 17 4 49 -34z m-316 0 c20 -7 37 -17 37 -21 0 -11
-5 -10 -46 7 -19 8 -41 12 -49 9 -8 -4 -15 -2 -15 3 0 14 13 24 24 20 6 -2 28
-10 49 -18z m1968 11 c17 -10 18 -13 5 -25 -20 -21 -50 -20 -42 1 3 9 6 20 6
25 0 12 7 11 31 -1z m2369 -4 c0 -8 -4 -18 -10 -21 -5 -3 -10 3 -10 14 0 12 5
21 10 21 6 0 10 -6 10 -14z m68 -18 c-2 -6 -10 -14 -16 -16 -7 -2 -10 2 -6 12
7 18 28 22 22 4z m-2846 -23 c6 -28 -9 -33 -43 -14 -16 8 -18 13 -8 25 19 23
46 17 51 -11z m775 19 c-3 -3 -12 -4 -19 -1 -8 3 -5 6 6 6 11 1 17 -2 13 -5z
m2033 -25 c0 -5 -9 -9 -20 -9 -11 0 -20 4 -20 8 0 4 9 8 20 9 11 1 20 -2 20
-8z m-6141 -15 c2 -2 2 -6 0 -9 -8 -7 -49 7 -49 17 0 8 38 2 49 -8z m1703 -26
c-9 -9 -15 -9 -24 0 -9 9 -7 12 12 12 19 0 21 -3 12 -12z m2003 -68 c154 -87
187 -109 167 -110 -16 0 -322 173 -322 183 0 13 12 7 155 -73z m-3119 13 c57
-27 92 -49 82 -51 -19 -4 -188 77 -188 90 0 12 -1 12 106 -39z m2199 0 c33
-16 46 -33 25 -33 -16 0 -80 33 -80 42 0 12 16 10 55 -9z m-708 -168 c16 -46
69 -149 117 -224 24 -37 47 -77 50 -89 8 -23 30 -29 41 -11 4 6 13 8 21 5 7
-3 16 0 20 5 4 7 10 7 18 -1 7 -7 7 -13 1 -18 -6 -4 -10 -13 -11 -19 -1 -7 -2
-20 -2 -28 -2 -17 -62 -22 -62 -5 0 6 -6 10 -13 10 -8 0 -19 19 -26 43 -7 23
-36 78 -65 122 -84 128 -116 209 -115 286 l2 64 7 -55 c4 -30 12 -68 17 -85z
m178 125 c-3 -5 -10 -10 -16 -10 -5 0 -9 5 -9 10 0 6 7 10 16 10 8 0 12 -4 9
-10z m452 -17 c-8 -9 -20 -12 -26 -9 -19 12 -12 21 15 23 24 1 25 -1 11 -14z
m1008 -3 c8 0 11 -7 8 -20 -6 -24 -8 -24 -44 -3 -33 20 -39 37 -9 28 13 -4 20
-2 21 7 0 10 2 10 6 1 2 -7 11 -13 18 -13z m625 2 c0 -12 -82 -72 -99 -72 -18
0 -11 7 44 49 41 31 55 37 55 23z m-3804 -12 c41 0 44 -2 44 -26 0 -22 -3 -24
-22 -19 -13 4 -31 9 -40 11 -10 3 -18 10 -18 15 0 5 -9 9 -20 9 -11 0 -20 5
-20 11 0 6 7 8 16 5 9 -3 36 -6 60 -6z m968 -6 c20 -8 21 -34 1 -34 -8 0 -15
2 -15 4 0 2 -3 11 -6 20 -7 18 -4 19 20 10z m424 -19 c-6 -14 -15 -25 -20 -25
-11 0 -10 18 2 25 6 4 8 11 5 16 -4 5 1 9 9 9 13 0 14 -4 4 -25z m-320 -4 c20
-8 32 -20 32 -32 0 -20 -15 -26 -24 -10 -3 4 -17 6 -31 3 -23 -4 -25 -2 -23
27 1 17 5 30 8 28 3 -2 20 -9 38 -16z m167 -7 c51 -7 96 -23 65 -24 -38 -1
-170 24 -170 33 0 5 12 6 28 3 15 -3 50 -8 77 -12z m600 -14 c20 -38 19 -40
-7 -40 -18 0 -20 2 -8 10 12 7 12 12 2 22 -12 12 -17 38 -7 38 2 0 11 -13 20
-30z m240 2 c4 -20 17 -34 40 -45 21 -10 34 -23 33 -34 0 -10 3 -26 7 -35 4
-11 3 -18 -4 -18 -6 0 -11 -15 -12 -32 0 -18 -4 -42 -9 -53 -13 -29 -13 46 0
79 7 18 6 29 -3 38 -7 7 -16 21 -20 30 -3 10 -17 20 -31 24 -20 5 -24 12 -24
40 0 41 14 45 23 6z m495 -22 c0 -5 -9 -14 -20 -20 -22 -12 -27 -1 -8 18 14
14 28 16 28 2z m940 -4 c0 -17 33 -31 38 -17 5 16 22 13 22 -4 0 -8 6 -15 14
-15 8 0 18 -9 21 -20 5 -16 10 -18 26 -10 11 6 19 7 19 1 0 -5 -7 -12 -16 -15
-11 -4 -14 -13 -10 -31 9 -36 -4 -32 -107 26 -77 45 -87 53 -71 62 11 6 23 16
27 24 11 17 37 17 37 -1z m714 -2 c6 -16 -28 -53 -49 -54 -5 0 -20 -3 -32 -6
-14 -4 -23 -2 -23 5 0 6 11 11 24 11 14 0 32 8 42 18 17 16 17 17 -4 20 -32 5
-27 22 7 22 17 0 31 -6 35 -16z m-3331 -20 c-9 -15 -19 -21 -21 -15 -6 19 6
41 23 41 14 0 13 -3 -2 -26z m-413 -1 c0 -9 -35 -68 -45 -75 -5 -4 -20 -8 -32
-8 -20 0 -23 5 -23 39 0 36 3 40 28 43 50 6 72 6 72 1z m2410 -10 c0 -3 -14
-28 -31 -54 -27 -42 -34 -68 -53 -204 -13 -85 -26 -158 -29 -162 -12 -11 -8
48 14 191 18 120 26 146 53 187 28 44 46 60 46 42z m-405 -13 c-3 -5 -11 -10
-16 -10 -6 0 -7 5 -4 10 3 6 11 10 16 10 6 0 7 -4 4 -10z m61 -5 c10 -8 35
-15 54 -15 65 -1 66 -5 40 -228 -7 -57 -10 -105 -7 -108 2 -3 28 -9 57 -13 34
-5 59 -16 69 -29 9 -11 26 -25 37 -31 18 -9 24 -7 35 9 8 11 29 23 46 26 28 6
34 3 42 -17 11 -31 6 -35 -25 -19 -17 10 -30 11 -40 5 -17 -11 -18 -32 -1 -27
14 4 27 -18 27 -45 0 -14 6 -23 15 -23 8 0 15 -4 15 -10 0 -5 -9 -10 -20 -10
-33 0 -22 -19 15 -26 37 -7 52 -19 36 -29 -7 -4 -7 -15 -1 -30 13 -33 -3 -32
-18 0 -12 25 -13 25 -31 8 -11 -10 -23 -31 -26 -46 -7 -26 -11 -28 -39 -23
-120 21 -238 29 -256 18 -14 -9 -19 -8 -23 1 -2 7 -47 19 -108 28 -81 12 -103
18 -100 30 7 27 22 124 26 174 2 28 5 52 6 55 1 3 1 8 0 13 0 4 5 7 12 7 8 0
7 3 -3 10 -30 19 2 21 112 7 62 -8 114 -14 115 -13 4 4 22 146 28 234 l7 82
-26 0 c-31 0 -106 29 -106 41 0 13 14 11 36 -6z m404 -6 c0 -5 6 -7 13 -3 7 4
9 3 4 -2 -5 -5 -10 -7 -11 -4 -2 3 -10 -1 -19 -9 -18 -14 -20 -12 -11 13 7 18
24 22 24 5z m-373 -75 c-12 -12 -25 7 -19 28 l5 22 10 -22 c6 -12 7 -25 4 -28z
m1277 30 c10 -27 7 -42 -13 -47 -13 -3 -22 3 -30 20 -6 13 -11 26 -11 28 0 3
21 10 41 14 4 0 10 -6 13 -15z m-1154 -4 c0 -5 -4 -10 -10 -10 -5 0 -10 5 -10
10 0 6 5 10 10 10 6 0 10 -4 10 -10z m320 -12 c-1 -7 -5 -33 -10 -58 -6 -32
-5 -47 3 -53 9 -6 9 -10 0 -13 -7 -3 -15 -21 -19 -40 -3 -19 -11 -34 -16 -34
-6 0 -7 13 -3 31 5 21 3 34 -6 39 -10 6 -9 12 3 24 9 8 19 38 23 66 4 27 11
50 16 50 5 0 9 -6 9 -12z m-673 -53 c-5 -61 -13 -77 -27 -55 -13 19 -12 30 0
30 5 0 9 8 8 18 -3 36 2 62 13 62 7 0 9 -19 6 -55z m143 46 c0 -5 17 -13 38
-19 l37 -10 -46 -1 c-50 -1 -60 4 -52 25 6 15 23 19 23 5z m-490 -11 c0 -5 -5
-10 -11 -10 -5 0 -7 5 -4 10 3 6 8 10 11 10 2 0 4 -4 4 -10z m3896 -16 c8 3
14 1 14 -3 0 -5 -6 -11 -12 -13 -18 -6 -41 19 -31 34 5 10 9 8 11 -5 2 -11 9
-16 18 -13z m-2623 -93 c158 -87 209 -121 182 -121 -3 0 -71 38 -153 84 -81
46 -166 93 -189 105 -24 12 -43 26 -43 32 0 14 -10 19 203 -100z m39 87 c-7
-7 -12 -8 -12 -2 0 6 3 14 7 17 3 4 9 5 12 2 2 -3 -1 -11 -7 -17z m-1235 -35
c-3 -10 -5 -2 -5 17 0 19 2 27 5 18 2 -10 2 -26 0 -35z m107 19 c5 -9 -19 -44
-26 -36 -8 7 3 44 13 44 4 0 10 -3 13 -8z m436 -13 c0 -5 -4 -9 -10 -9 -5 0
-10 7 -10 16 0 8 5 12 10 9 6 -3 10 -10 10 -16z m133 -25 c-23 -36 -51 -26
-38 15 4 13 12 17 30 13 23 -4 23 -5 8 -28z m3177 27 c0 -6 -4 -13 -10 -16 -5
-3 -10 1 -10 9 0 9 5 16 10 16 6 0 10 -4 10 -9z m-2149 -16 c44 -16 44 -16 97
-138 28 -68 52 -126 52 -130 0 -3 -7 -4 -15 -1 -8 4 -15 11 -15 16 0 6 -20 59
-45 118 l-46 108 -44 12 c-25 7 -45 17 -45 21 0 12 10 11 61 -6z m2033 -1 c9
-23 7 -36 -3 -30 -12 8 -21 46 -11 46 4 0 11 -7 14 -16z m-1708 -116 c7 -46
20 -118 28 -160 8 -43 13 -86 11 -95 -2 -10 -6 -46 -9 -80 -5 -52 -3 -63 9
-63 8 0 15 -4 15 -10 0 -5 -6 -10 -14 -10 -9 0 -27 -40 -51 -112 -21 -62 -42
-124 -46 -137 -15 -39 -21 -17 -8 27 10 35 9 43 -4 56 -12 13 -13 23 -6 51 12
44 6 55 -31 55 -15 0 -30 6 -33 13 -4 10 -7 10 -18 0 -18 -18 -26 -16 -32 8
-4 14 -11 20 -20 16 -8 -3 -19 -1 -23 3 -5 5 -25 11 -44 14 -42 5 -120 37
-104 43 6 2 71 -13 145 -33 197 -54 189 -53 189 -11 0 33 2 36 28 34 l27 -2 7
94 c6 70 4 113 -8 165 -21 98 -34 177 -34 205 0 46 13 11 26 -71z m1804 85 c0
-15 -17 -35 -41 -47 -20 -10 -27 -10 -37 0 -19 21 -14 33 16 40 15 3 32 7 37
9 18 6 25 5 25 -2z m-4027 -10 c-7 -2 -19 -2 -25 0 -7 3 -2 5 12 5 14 0 19 -2
13 -5z m79 -15 c-6 -6 -15 -8 -19 -4 -4 4 -1 11 7 16 19 12 27 3 12 -12z m138
15 c0 -3 -7 -14 -16 -24 -14 -15 -18 -16 -30 -4 -22 22 -21 23 39 34 4 0 7 -2
7 -6z m1060 -2 c0 -5 -7 -11 -15 -15 -15 -5 -20 5 -8 17 9 10 23 9 23 -2z
m-1130 -26 c0 -8 -4 -15 -10 -15 -5 0 -7 7 -4 15 4 8 8 15 10 15 2 0 4 -7 4
-15z m296 -20 c-1 -14 -6 -28 -9 -32 -13 -12 -7 -25 8 -20 17 7 27 -6 31 -45
l4 -29 -60 7 c-39 4 -60 3 -60 -4 0 -6 -3 -17 -6 -26 -8 -21 44 -22 72 -1 22
17 44 19 44 5 0 -11 -61 -45 -75 -41 -5 1 -95 2 -200 3 -113 0 -182 3 -170 8
11 5 77 9 148 9 77 1 127 5 127 11 0 6 9 19 20 30 11 11 20 27 20 35 0 21 -27
19 -39 -2 -9 -16 -10 -16 -11 -2 0 9 3 31 6 48 5 25 12 31 31 31 16 0 27 -7
30 -19 7 -29 59 -21 56 8 -2 11 2 21 7 21 6 0 10 7 10 15 0 8 4 15 9 15 5 0 8
-11 7 -25z m1164 4 c0 -5 -7 -9 -15 -9 -15 0 -20 12 -9 23 8 8 24 -1 24 -14z
m324 -21 c-8 -25 -10 -33 -12 -60 -3 -28 -22 -21 -22 7 0 28 28 90 37 82 2 -3
1 -16 -3 -29z m1987 5 c-8 -15 -10 -15 -11 -2 0 17 10 32 18 25 2 -3 -1 -13
-7 -23z m-3193 -2 c3 -8 -1 -12 -9 -9 -7 2 -15 10 -17 17 -3 8 1 12 9 9 7 -2
15 -10 17 -17z m3238 -38 c-10 -10 -19 5 -10 18 6 11 8 11 12 0 2 -7 1 -15 -2
-18z m-5616 -45 c0 -45 -3 -59 -10 -48 -5 8 -10 26 -10 38 0 15 -7 26 -19 29
-28 7 -15 43 15 43 23 0 24 -3 24 -62z m620 57 c0 -6 -38 -45 -45 -45 -2 0 -2
7 1 15 5 11 -1 15 -22 16 -24 2 -22 3 11 9 22 4 43 8 48 9 4 0 7 -1 7 -4z
m1130 1 c0 -2 -6 -18 -13 -35 -12 -28 -15 -30 -27 -17 -7 9 -22 16 -34 17 -13
1 -8 4 14 9 19 5 36 13 38 19 3 10 22 16 22 7z m3830 -6 c0 -5 -9 -10 -20 -10
-11 0 -20 5 -20 10 0 6 9 10 20 10 11 0 20 -4 20 -10z m-3316 -31 c-3 -5 -10
-7 -15 -3 -5 3 -7 10 -3 15 3 5 10 7 15 3 5 -3 7 -10 3 -15z m1136 11 c0 -5
-7 -10 -15 -10 -8 0 -15 5 -15 10 0 6 7 10 15 10 8 0 15 -4 15 -10z m-350 -21
c0 -5 -7 -9 -15 -9 -9 0 -12 6 -9 15 6 15 24 11 24 -6z m2810 1 c0 -5 -8 -10
-17 -10 -10 0 -81 -7 -158 -15 -156 -16 -202 -18 -192 -8 4 3 82 14 175 23 92
10 173 18 180 19 6 0 12 -3 12 -9z m-6110 -89 c0 -11 -6 -21 -12 -24 -10 -3
-9 -8 2 -22 14 -17 13 -18 -3 -12 -10 4 -21 7 -23 7 -2 0 -4 16 -4 35 0 28 4
35 20 35 13 0 20 -7 20 -19z m340 0 c0 -11 -4 -23 -10 -26 -5 -3 -10 -2 -10 4
0 5 -3 16 -6 25 -4 11 -1 16 10 16 9 0 16 -8 16 -19z m3290 -26 c0 -8 -7 -15
-15 -15 -16 0 -20 12 -8 23 11 12 23 8 23 -8z m-72 -24 c-15 -21 -28 -19 -28
5 0 7 8 14 18 16 24 6 26 2 10 -21z m262 -11 c8 -5 12 -12 9 -15 -8 -8 -39 5
-39 16 0 11 11 11 30 -1z m-1500 -10 c0 -5 -5 -10 -11 -10 -5 0 -7 5 -4 10 3
6 8 10 11 10 2 0 4 -4 4 -10z m-158 -33 c-6 -7 -9 -23 -5 -35 4 -18 1 -22 -16
-22 -31 0 -30 53 2 67 26 12 34 8 19 -10z m839 3 c5 0 9 -5 9 -11 0 -6 -7 -8
-15 -5 -9 3 -18 -1 -21 -9 -5 -12 -8 -12 -22 1 -13 13 -13 17 -1 25 8 5 20 7
27 4 8 -3 18 -5 23 -5z m1000 -23 c-8 -8 -11 -7 -11 4 0 20 13 34 18 19 3 -7
-1 -17 -7 -23z m270 -53 c-7 -41 -10 -78 -7 -81 3 -4 31 -8 61 -11 44 -4 62
-11 94 -38 27 -24 45 -32 58 -27 15 6 16 4 6 -8 -10 -12 -9 -20 3 -37 15 -22
16 -22 95 50 99 90 128 102 39 17 -36 -35 -64 -68 -62 -74 1 -7 -7 -20 -19
-31 -20 -18 -21 -18 -87 52 -69 72 -92 84 -168 84 -22 0 -34 -5 -34 -14 0 -7
-3 -27 -6 -43 -5 -27 -3 -31 25 -36 38 -8 41 -27 4 -27 -49 0 -56 11 -45 69 9
49 8 53 -12 61 l-21 9 22 0 c15 1 23 9 27 29 23 122 28 143 33 138 3 -3 0 -40
-6 -82z m-757 47 c55 -16 136 -40 179 -52 42 -12 77 -26 77 -32 0 -5 -10 -7
-22 -3 -70 19 -65 21 -92 -33 -16 -31 -26 -67 -26 -94 l0 -43 147 -38 c212
-56 213 -56 213 -67 0 -5 -23 -37 -51 -72 -60 -73 -199 -311 -199 -341 0 -25
-52 -62 -126 -91 -78 -31 -111 -64 -122 -123 -6 -33 -21 -64 -44 -93 -40 -49
-190 -341 -164 -320 26 22 18 -3 -9 -29 -25 -23 -25 -23 -25 -2 0 31 145 319
185 367 22 27 36 57 40 87 9 58 49 99 125 127 30 12 65 29 77 39 24 19 144
232 137 243 -2 4 -27 15 -54 24 -48 16 -53 16 -114 -5 -85 -28 -255 -137 -333
-213 -76 -74 -98 -68 -24 7 64 65 267 196 341 221 l55 18 -60 20 c-66 22 -71
24 -62 33 3 3 33 -3 66 -15 75 -26 82 -26 114 -1 39 31 56 23 20 -8 l-33 -28
51 -18 c27 -10 51 -17 53 -15 2 2 19 29 39 59 20 30 50 71 67 91 l30 37 -36 6
c-19 4 -42 10 -49 12 -11 5 -13 -2 -8 -29 3 -22 1 -37 -7 -42 -10 -6 -12 0 -7
25 6 26 4 31 -9 26 -12 -4 -14 -1 -9 14 4 11 3 20 -2 20 -4 0 -116 29 -248 65
-131 35 -240 63 -241 62 -1 -1 -5 -13 -9 -26 -6 -20 -5 -22 10 -13 20 11 55 5
55 -9 0 -10 -8 -14 -51 -23 -23 -5 -27 -12 -31 -46 -3 -36 -1 -40 25 -50 24
-8 28 -14 23 -34 -6 -23 -3 -25 44 -31 28 -4 50 -11 50 -16 0 -10 -102 -1
-110 10 -4 6 -49 13 -51 8 0 -1 -8 -47 -17 -102 -10 -55 -22 -99 -28 -98 -5 1
-96 12 -202 25 -145 17 -192 26 -192 36 0 9 6 12 15 8 12 -4 13 -2 6 12 -11
22 -11 72 0 72 5 0 9 -4 9 -8 0 -9 50 -35 55 -30 2 2 10 26 17 53 10 33 22 53
36 60 12 5 22 15 22 22 0 7 4 13 9 13 5 0 12 27 16 60 4 33 11 60 16 60 12 0
11 -4 -6 -131 -17 -128 -13 -149 25 -149 16 0 31 6 34 13 3 8 8 7 16 -5 12
-20 60 -25 60 -7 0 7 10 4 26 -6 18 -12 29 -14 37 -6 16 16 46 210 33 215 -8
3 -8 7 -1 13 11 8 35 80 35 104 0 13 -99 49 -135 49 -8 0 -15 5 -15 10 0 14
10 13 90 -9 l70 -20 21 75 c12 41 26 74 31 74 10 0 11 6 -12 -75 -11 -38 -16
-72 -12 -76 4 -4 53 -19 108 -33 56 -14 109 -29 118 -32 13 -5 16 1 16 35 0
25 10 62 26 92 14 28 23 53 21 55 -11 11 -67 22 -67 13 0 -16 -25 -10 -43 11
-9 11 -21 20 -26 20 -12 0 -25 -20 -26 -37 0 -15 -5 -15 -45 0 -35 13 -41 31
-7 23 l22 -6 -22 11 c-13 7 -23 16 -23 21 0 4 -7 8 -15 8 -9 0 -12 6 -9 15 8
19 -1 20 118 -14z m386 4 c-7 -9 -15 -13 -17 -11 -7 7 7 26 19 26 6 0 6 -6 -2
-15z m-3620 -25 c0 -5 -4 -10 -10 -10 -5 0 -10 5 -10 10 0 6 5 10 10 10 6 0
10 -4 10 -10z m60 -20 c0 -12 -45 -24 -65 -16 -11 4 -15 -1 -15 -17 0 -12 -3
-33 -7 -46 -6 -22 -2 -21 56 18 50 34 73 44 119 48 42 3 53 2 42 -6 -8 -6 -31
-11 -50 -11 -20 0 -46 -7 -58 -16 -22 -15 -22 -19 -22 -229 l0 -214 28 -3 c19
-2 28 -9 30 -25 2 -15 10 -23 23 -23 10 0 19 -4 19 -10 0 -5 -16 -10 -35 -10
-19 0 -35 -4 -35 -10 0 -5 -4 -10 -10 -10 -5 0 -10 8 -10 17 0 15 -2 14 -15
-3 -14 -17 -16 5 -13 238 l4 257 -25 -16 c-84 -55 -88 -56 -230 -61 -108 -4
-143 -2 -165 10 -21 11 -41 13 -79 7 -54 -9 -75 0 -125 54 -23 24 -23 26 -7
51 10 14 20 26 24 26 19 -1 30 -20 29 -52 -2 -56 16 -71 74 -64 35 5 58 16 83
39 19 17 35 38 35 44 0 7 5 13 11 13 6 0 9 -6 6 -14 -3 -8 -1 -17 6 -20 9 -5
9 -7 0 -12 -6 -3 -23 -16 -37 -29 l-26 -24 22 -12 c22 -12 205 -7 277 7 32 7
33 9 46 86 5 32 10 37 38 41 18 2 38 5 45 5 6 1 12 -2 12 -8z m3635 0 c-3 -5
-15 -10 -26 -10 -11 0 -17 5 -14 10 3 6 15 10 26 10 11 0 17 -4 14 -10z m795
-8 c0 -14 -39 -46 -47 -39 -3 4 2 16 12 27 19 21 35 26 35 12z m-1840 -42 c0
-5 -4 -10 -10 -10 -5 0 -10 5 -10 10 0 6 5 10 10 10 6 0 10 -4 10 -10z m980
-6 c0 -2 -7 -4 -15 -4 -8 0 -15 4 -15 10 0 5 7 7 15 4 8 -4 15 -8 15 -10z m45
-14 c3 -5 -3 -10 -14 -10 -12 0 -21 5 -21 10 0 6 6 10 14 10 8 0 18 -4 21 -10z
m845 -20 c0 -5 -4 -10 -10 -10 -5 0 -10 5 -10 10 0 6 5 10 10 10 6 0 10 -4 10
-10z m-5330 -9 c0 -10 -42 -23 -49 -15 -7 6 20 24 37 24 6 0 12 -4 12 -9z
m2410 -11 c0 -5 -4 -10 -10 -10 -5 0 -10 5 -10 10 0 6 5 10 10 10 6 0 10 -4
10 -10z m-351 -90 c-1 -49 -5 -90 -10 -90 -5 0 -9 41 -9 90 0 55 4 90 10 90 7
0 10 -34 9 -90z m421 80 c0 -5 -9 -10 -20 -10 -11 0 -20 5 -20 10 0 6 9 10 20
10 11 0 20 -4 20 -10z m180 0 c0 -6 -32 -10 -75 -10 -43 0 -75 4 -75 10 0 6
32 10 75 10 43 0 75 -4 75 -10z m2390 -15 c-7 -9 -15 -13 -17 -11 -7 7 7 26
19 26 6 0 6 -6 -2 -15z m-1545 -15 c-31 -13 -251 -59 -340 -71 -53 -7 -117
-26 -188 -56 -60 -24 -111 -42 -114 -39 -10 9 -5 11 112 59 73 29 138 48 195
56 47 6 130 22 185 35 99 24 193 34 150 16z m-1305 -30 c0 -5 -15 -10 -32 -9
-28 0 -30 2 -13 9 28 12 45 12 45 0z m60 0 c0 -5 -10 -10 -22 -10 -19 0 -20 2
-8 10 19 13 30 13 30 0z m77 -22 c-1 -15 5 -23 21 -27 17 -4 31 -22 48 -61 13
-30 23 -64 23 -75 -1 -15 -4 -13 -14 10 -7 17 -16 29 -19 28 -16 -7 -46 -2
-46 8 0 6 9 9 20 6 23 -6 25 2 8 38 -7 16 -23 28 -39 32 -18 3 -26 10 -22 19
3 8 -2 17 -11 20 -20 8 -11 24 14 24 14 0 19 -6 17 -22z m3188 2 c3 -5 -1 -10
-9 -10 -9 0 -16 5 -16 10 0 6 4 10 9 10 6 0 13 -4 16 -10z m-3540 -50 c3 -5
15 -10 26 -10 10 0 19 -4 19 -10 0 -5 -10 -10 -23 -10 -23 0 -47 17 -47 32 0
11 18 10 25 -2z m316 -140 c-9 -22 -10 -19 -10 21 -1 26 2 62 7 80 6 31 7 29
10 -21 2 -31 -2 -67 -7 -80z m5226 98 c-3 -7 -5 -2 -5 12 0 14 2 19 5 13 2 -7
2 -19 0 -25z m-3583 -13 c3 -8 1 -15 -3 -15 -5 0 -11 7 -15 15 -3 8 -1 15 3
15 5 0 11 -7 15 -15z m266 4 c27 -6 50 -15 50 -21 0 -6 -9 -8 -20 -5 -16 4
-20 0 -20 -19 0 -16 6 -24 18 -24 9 0 24 -5 32 -11 11 -8 -4 -9 -55 -4 -38 3
-80 8 -92 12 -26 6 -31 23 -8 23 24 0 30 29 9 45 -18 14 -17 14 8 15 15 0 50
-5 78 -11z m-120 -19 c0 -11 -4 -20 -10 -20 -5 0 -10 5 -10 10 0 6 -8 10 -17
11 -15 0 -15 2 2 9 30 13 35 12 35 -10z m-990 -72 c0 -4 -4 -8 -10 -8 -5 0
-10 5 -10 10 0 6 -7 10 -16 10 -14 0 -14 2 -3 16 12 14 14 14 26 -2 7 -10 13
-21 13 -26z m-141 6 c18 -9 30 -18 27 -21 -8 -8 -95 20 -90 29 8 12 28 10 63
-8z m1421 6 c0 -5 -12 -10 -27 -10 -22 0 -25 2 -13 10 20 13 40 13 40 0z
m-4160 -27 c0 -5 -5 -15 -10 -23 -8 -12 -10 -11 -10 8 0 12 5 22 10 22 6 0 10
-3 10 -7z m2355 -3 c3 -5 -1 -10 -9 -10 -9 0 -16 5 -16 10 0 6 4 10 9 10 6 0
13 -4 16 -10z m223 -84 c-39 -34 -41 -40 -61 -196 -11 -87 -14 -95 -34 -98
-13 -2 -23 1 -23 7 0 6 6 11 14 11 18 0 26 31 26 111 0 47 4 70 15 79 9 8 13
21 9 32 -3 12 4 29 20 48 13 16 27 39 31 50 6 18 8 19 22 4 15 -15 14 -19 -19
-48z m1232 44 c0 -5 -4 -10 -10 -10 -5 0 -10 5 -10 10 0 6 5 10 10 10 6 0 10
-4 10 -10z m-1120 -20 c13 -1 13 -2 -1 -10 -18 -11 -59 -2 -59 12 0 6 10 8 23
4 12 -3 29 -6 37 -6z m327 -108 l1 -97 -10 77 c-8 62 -14 79 -29 83 -11 4 -19
11 -19 16 0 6 4 8 9 5 5 -3 11 1 15 9 3 8 11 12 18 10 9 -4 14 -33 15 -103z
m-3027 47 c-13 -31 -40 -40 -40 -13 0 8 4 13 9 10 5 -3 15 8 22 26 7 17 15 26
17 19 2 -7 -1 -25 -8 -42z m2099 5 c-19 -21 -30 -25 -57 -20 -29 4 -36 1 -50
-24 -23 -41 -35 -38 -18 4 8 19 12 37 9 39 -2 3 13 3 36 0 30 -4 47 -1 68 15
36 26 43 19 12 -14z m-179 7 c0 -5 -7 -12 -16 -15 -22 -9 -24 -8 -24 9 0 8 9
15 20 15 11 0 20 -4 20 -9z m336 -6 c9 -8 13 -19 9 -24 -5 -9 53 -31 83 -31 6
0 12 -5 12 -10 0 -6 -12 -8 -27 -4 -63 14 -93 26 -93 39 0 7 -3 20 -6 29 -8
20 3 21 22 1z m-436 -4 c0 -12 -20 -25 -27 -18 -7 7 6 27 18 27 5 0 9 -4 9 -9z
m-1255 -31 c25 -11 18 -12 -110 -10 -97 1 -101 0 -125 -26 l-25 -28 38 22 c40
23 82 28 107 12 11 -7 5 -10 -23 -10 -46 0 -85 -19 -139 -68 -23 -20 -39 -32
-37 -27 64 140 71 145 198 144 53 0 105 -4 116 -9z m1295 -5 c0 -8 -4 -15 -10
-15 -5 0 -7 7 -4 15 4 8 8 15 10 15 2 0 4 -7 4 -15z m-1003 -32 c-3 -10 -5 -4
-5 12 0 17 2 24 5 18 2 -7 2 -21 0 -30z m163 27 c0 -5 -4 -10 -10 -10 -5 0
-10 -4 -10 -10 0 -5 9 -10 20 -10 11 0 20 -4 20 -10 0 -11 -20 -13 -44 -4 -19
7 -21 40 -3 47 20 9 27 8 27 -3z m4549 -34 c13 -14 36 -30 52 -36 22 -9 29
-19 29 -40 0 -14 -3 -29 -6 -33 -9 -9 -35 4 -28 14 3 5 -2 6 -11 2 -11 -4 -13
-8 -5 -13 11 -7 4 -40 -9 -40 -16 0 -59 57 -76 100 -9 25 -19 51 -22 58 -10
23 52 14 76 -12z m-2619 -10 c-1 -27 -27 -45 -63 -43 -33 2 -37 5 -37 29 0 20
6 27 23 30 35 5 77 -3 77 -16z m990 15 c0 -6 -4 -13 -10 -16 -5 -3 -10 1 -10
9 0 9 5 16 10 16 6 0 10 -4 10 -9z m-1970 -30 c0 -6 -4 -13 -10 -16 -5 -3 -10
1 -10 9 0 9 5 16 10 16 6 0 10 -4 10 -9z m-40 -30 c0 -16 -28 -20 -34 -5 -4 9
1 14 14 14 11 0 20 -4 20 -9z m1930 0 c0 -5 9 -7 20 -4 11 3 20 1 20 -5 0 -6
3 -17 6 -26 5 -12 -1 -15 -30 -14 -20 1 -39 5 -42 10 -3 4 0 8 6 8 7 0 9 8 5
20 -4 11 -2 20 4 20 6 0 11 -4 11 -9z m-3010 -11 c0 -5 -7 -10 -15 -10 -8 0
-15 5 -15 10 0 6 7 10 15 10 8 0 15 -4 15 -10z m1810 -13 c0 -14 -5 -17 -22
-11 -29 8 -31 11 -24 23 11 17 46 8 46 -12z m-794 -34 c-10 -10 -19 5 -10 18
6 11 8 11 12 0 2 -7 1 -15 -2 -18z m-1966 -13 c0 -5 -4 -10 -10 -10 -5 0 -10
5 -10 10 0 6 5 10 10 10 6 0 10 -4 10 -10z m6596 -214 c-15 -126 1 -172 65
-191 60 -18 79 -37 96 -95 8 -30 22 -63 31 -73 8 -9 12 -20 9 -24 -11 -11 -36
28 -53 84 -16 56 -52 93 -88 93 -12 0 -35 14 -51 30 -25 26 -29 37 -28 88 0
31 3 73 5 92 4 25 -4 53 -28 104 -48 99 -42 117 7 22 37 -71 40 -83 35 -130z
m-5536 175 c0 -10 3 -33 6 -51 l7 -32 -28 28 c-16 16 -23 30 -17 32 7 2 12 12
12 23 0 10 5 19 10 19 6 0 10 -8 10 -19z m2699 6 c12 5 13 3 4 -7 -6 -7 -9
-20 -6 -29 5 -12 3 -13 -7 -4 -7 6 -20 9 -29 6 -12 -5 -13 -3 -4 7 6 7 9 20 6
29 -5 12 -3 13 7 4 7 -6 20 -9 29 -6z m-1469 -31 c0 -3 -4 -8 -10 -11 -5 -3
-10 -1 -10 4 0 6 5 11 10 11 6 0 10 -2 10 -4z m1246 -33 c68 -9 124 -20 124
-25 0 -6 -17 -7 -37 -4 -21 3 -60 8 -86 11 l-48 6 -79 -77 c-70 -67 -82 -85
-101 -143 -12 -36 -30 -81 -42 -99 -11 -19 -16 -37 -11 -41 5 -4 41 -30 79
-56 83 -58 109 -82 93 -87 -9 -3 -9 -15 0 -48 10 -41 9 -47 -14 -77 -23 -30
-30 -33 -79 -33 -43 0 -59 5 -80 24 -14 13 -43 26 -66 29 -23 3 -52 16 -66 29
l-25 23 -28 -35 c-32 -38 -40 -35 -14 5 15 23 15 24 -23 34 -21 6 -49 11 -62
11 -15 0 -38 15 -61 40 -51 55 -137 166 -122 156 15 -9 16 6 1 21 -16 16 -3
64 15 57 7 -3 18 -16 24 -30 7 -13 18 -24 27 -24 8 0 14 -3 14 -7 -4 -22 3
-24 20 -5 18 22 18 22 24 -29 4 -28 18 -71 32 -95 24 -42 28 -44 70 -44 31 0
45 4 45 13 0 8 12 24 26 38 15 13 35 37 45 53 l18 29 -32 28 c-17 15 -28 31
-23 36 5 4 11 2 13 -4 3 -7 11 -13 19 -13 8 0 14 -7 14 -15 0 -8 4 -15 9 -15
13 0 21 26 21 70 0 21 5 42 11 46 11 6 8 72 -5 104 -3 8 -1 22 4 30 9 13 11
13 20 0 5 -8 7 -23 4 -32 -3 -9 -2 -33 2 -52 l6 -36 29 17 c15 9 72 61 126
115 96 96 97 98 66 98 -18 0 -35 5 -38 10 -8 13 -4 13 141 -7z m-866 -108 c0
-11 13 -55 29 -98 16 -43 24 -73 16 -67 -13 11 -55 117 -55 141 0 8 -16 38
-35 66 -19 29 -35 56 -35 60 1 17 80 -83 80 -102z m-2899 73 c25 -31 24 -41
-3 -32 -13 4 -38 6 -55 5 -36 -2 -42 9 -17 33 22 23 53 20 75 -6z m3029 -23
c0 -19 5 -35 10 -35 6 0 10 14 10 30 0 30 13 37 39 21 9 -6 11 -20 6 -50 l-7
-41 46 0 c27 0 46 -5 46 -11 0 -8 -26 -10 -79 -8 -73 4 -80 2 -85 -16 -11 -42
-17 -2 -11 69 7 77 25 106 25 41z m-394 -14 c-4 -5 -1 -11 5 -13 8 -3 8 -10
-2 -26 -18 -29 -25 -28 -38 9 -14 41 -15 39 15 39 14 0 23 -4 20 -9z m4944
-11 c0 -5 7 -10 16 -10 11 0 14 -5 10 -16 -3 -9 -6 -24 -6 -34 0 -13 -5 -17
-19 -13 -13 3 -21 -2 -26 -16 -12 -40 -24 -20 -22 39 1 55 3 60 24 60 13 0 23
-4 23 -10z m-7316 -36 c8 -22 8 -24 -8 -24 -18 0 -29 16 -21 30 9 15 22 12 29
-6z m1132 -6 c4 -6 2 -14 -4 -16 -7 -2 -12 -9 -12 -17 0 -7 -6 -18 -13 -24
-11 -8 -20 -6 -40 12 -36 30 -34 37 8 37 19 0 35 5 35 10 0 14 17 13 26 -2z
m562 -19 c2 -16 -5 -32 -19 -44 l-21 -20 3 35 4 35 -137 3 c-86 2 -138 6 -138
13 0 7 52 9 153 7 l152 -3 3 -26z m-1078 1 c0 -21 -15 -27 -25 -10 -7 12 2 30
16 30 5 0 9 -9 9 -20z m-43 -20 c-1 -17 -9 -20 -52 -21 -69 -1 -105 -16 -160
-68 -60 -56 -73 -44 -15 14 34 33 58 47 95 55 28 7 66 20 85 29 40 20 49 18
47 -9z m3246 -7 c-6 -15 -23 -18 -23 -4 0 5 3 17 6 26 5 12 9 14 14 4 5 -7 6
-18 3 -26z m497 -40 c-1 -14 -30 -47 -36 -41 -8 8 14 48 26 48 6 0 10 -3 10
-7z m-2084 -28 c10 -8 14 -15 8 -15 -5 0 -19 7 -30 15 -10 8 -14 15 -8 15 5 0
19 -7 30 -15z m4129 -32 c6 -29 32 -118 42 -140 2 -7 0 -13 -5 -13 -6 0 -18
24 -28 53 -9 28 -20 57 -24 62 -4 6 -10 22 -14 38 -5 20 -3 27 9 27 8 0 17
-12 20 -27z m-2655 -9 c0 -2 -7 -4 -15 -4 -8 0 -15 4 -15 10 0 5 7 7 15 4 8
-4 15 -8 15 -10z m564 -8 c-6 -16 -24 -23 -24 -8 0 10 22 33 27 28 2 -2 1 -11
-3 -20z m-3151 -3 c-13 -2 -35 -2 -50 0 -16 2 -5 4 22 4 28 0 40 -2 28 -4z
m747 -13 c0 -5 -12 -10 -27 -10 -22 0 -25 2 -13 10 20 13 40 13 40 0z m-361
-70 c23 -63 36 -79 53 -62 8 8 6 19 -6 37 -10 15 -15 29 -12 33 10 9 35 -29
46 -70 13 -45 45 -58 139 -58 l66 0 137 -119 c76 -65 149 -128 163 -139 16
-13 41 -60 70 -133 38 -94 53 -120 86 -148 39 -32 138 -72 212 -86 29 -6 38
-14 53 -48 45 -100 108 -134 149 -81 29 37 57 64 104 102 47 38 52 63 16 82
-14 7 -25 17 -25 22 0 13 12 10 32 -9 23 -20 24 -7 4 57 -8 26 -10 54 -6 66 8
21 52 47 103 59 20 5 27 13 27 30 0 23 20 39 110 88 19 10 39 23 45 28 11 11
25 12 25 2 0 -5 -19 -19 -43 -32 -88 -49 -117 -73 -117 -97 0 -13 -4 -24 -10
-24 -5 0 -34 -9 -65 -21 -64 -24 -73 -43 -50 -108 29 -83 13 -131 -59 -177
-25 -16 -54 -45 -66 -66 -23 -41 -47 -53 -89 -43 -35 8 -62 35 -94 101 -24 48
-28 51 -79 62 -106 22 -170 -1 -139 -50 15 -24 5 -23 -26 2 -14 11 -31 20 -37
20 -16 1 -70 50 -62 57 3 3 15 -2 25 -11 19 -17 19 -17 15 1 -3 11 3 26 16 38
l20 18 -24 26 c-14 14 -34 49 -45 76 -11 28 -20 43 -21 35 -1 -28 -20 12 -20
45 -1 56 -25 86 -180 220 l-155 135 -62 0 c-70 0 -160 29 -197 63 -13 12 -31
42 -41 67 -9 25 -19 51 -22 58 -3 6 -1 12 5 12 5 0 19 -27 31 -60z m2735 36
c-3 -9 -10 -16 -15 -16 -6 0 -5 9 1 21 13 24 24 20 14 -5z m-3129 -16 c22 -5
7 -8 -52 -9 -50 -1 -83 3 -83 9 0 11 90 11 135 0z m590 -30 c24 -54 12 -63
-14 -11 -23 45 -25 51 -13 51 5 0 17 -18 27 -40z m2513 -2 c-2 -6 -10 -14 -16
-16 -7 -2 -10 2 -6 12 7 18 28 22 22 4z m-3830 -7 c9 -6 31 -13 47 -18 l30 -7
-38 -4 c-21 -2 -45 2 -53 9 -9 7 -29 9 -54 5 -23 -4 -40 -2 -40 3 0 18 81 26
108 12z m-108 -40 c0 -11 -31 -24 -39 -16 -3 3 1 10 9 15 19 12 30 12 30 1z
m625 -11 c-10 -11 -20 -18 -23 -15 -7 6 18 35 31 35 5 0 2 -9 -8 -20z m3279
-4 c-3 -9 -10 -13 -16 -10 -5 3 -4 12 3 20 15 18 22 13 13 -10z m-2814 4 c0
-5 -7 -10 -16 -10 -8 0 -12 5 -9 10 3 6 10 10 16 10 5 0 9 -4 9 -10z m3460
-36 c0 -8 -5 -14 -11 -14 -5 0 -7 5 -4 10 3 6 1 10 -4 10 -6 0 -11 4 -11 10 0
5 7 7 15 4 8 -4 15 -12 15 -20z m-3350 -4 c0 -5 -15 -10 -32 -9 -28 0 -30 2
-13 9 28 12 45 12 45 0z m2671 -17 c-8 -15 -10 -15 -11 -2 0 17 10 32 18 25 2
-3 -1 -13 -7 -23z m-692 -39 c2 -2 2 -6 -1 -9 -8 -9 -58 6 -58 16 0 8 48 2 59
-7z m697 -21 c-4 -4 -11 -1 -16 7 -16 25 -11 35 7 17 9 -9 13 -20 9 -24z
m-3482 18 c3 -4 18 -6 32 -3 19 3 25 1 20 -7 -4 -6 -14 -11 -21 -11 -8 0 -44
-20 -81 -45 -53 -36 -74 -45 -109 -45 -28 0 -45 -5 -48 -14 -3 -9 -14 -12 -25
-9 -11 2 -22 -1 -25 -9 -8 -22 -150 -116 -182 -121 l-30 -4 31 -2 c30 -1 54
-16 54 -35 0 -6 -5 -5 -12 2 -20 20 -53 13 -83 -18 -27 -28 -34 -30 -102 -30
-40 0 -73 4 -73 8 0 5 24 7 53 4 28 -2 63 1 77 7 18 7 20 10 8 10 -29 1 -20
21 10 22 l27 1 -30 8 -30 8 30 2 c17 1 -15 9 -70 16 -127 18 -155 29 -155 61
0 13 -7 26 -15 29 -21 9 -19 24 4 24 21 0 31 -19 31 -56 0 -20 5 -24 30 -24
17 0 30 5 30 10 0 6 5 10 10 10 6 0 10 -6 10 -14 0 -12 11 -12 72 0 40 8 96
21 126 29 44 13 52 19 47 33 -4 9 -7 33 -6 53 l2 37 -50 0 c-34 0 -56 -6 -69
-18 -26 -25 -58 -33 -79 -21 -16 9 -14 10 10 11 15 0 41 10 58 22 22 17 46 23
95 25 62 2 65 1 62 -20 -5 -43 35 -67 49 -29 17 44 73 54 73 12 0 -24 18 -36
26 -17 4 11 19 15 52 13 40 -1 56 5 104 39 35 24 52 41 43 43 -9 2 -13 8 -10
13 8 11 22 12 29 0z m306 -46 c0 -21 -5 -25 -30 -25 -33 0 -38 11 -14 34 23
24 44 20 44 -9z m390 5 c0 -11 -4 -20 -10 -20 -5 0 -10 9 -10 20 0 11 5 20 10
20 6 0 10 -9 10 -20z m-611 -20 c29 -40 27 -113 -4 -118 -19 -3 -19 -2 -2 9
15 9 18 18 12 48 -12 63 -54 90 -89 56 -19 -19 -27 -19 -19 1 6 16 37 32 64
33 8 1 25 -13 38 -29z m3425 14 c9 -24 7 -28 -9 -14 -17 14 -20 30 -6 30 5 0
12 -7 15 -16z m-2326 -16 c16 -16 16 -33 0 -20 -9 7 -22 1 -43 -19 -16 -16
-24 -29 -17 -29 6 0 12 -4 12 -10 0 -12 -10 -13 -29 -1 -12 8 -12 13 2 34 19
30 46 57 56 57 4 0 12 -5 19 -12z m2362 -44 c0 -8 -4 -12 -10 -9 -5 3 -10 13
-10 21 0 8 5 12 10 9 6 -3 10 -13 10 -21z m-3250 6 c0 -13 -11 -13 -30 0 -12
8 -11 10 8 10 12 0 22 -4 22 -10z m2028 -18 c-77 -106 -171 -222 -178 -222 -6
0 9 26 33 58 80 108 140 182 149 182 5 0 3 -8 -4 -18z m4332 -3 c0 -5 -7 -9
-16 -9 -12 0 -15 -6 -11 -21 3 -13 1 -19 -6 -16 -15 5 -11 49 5 58 14 9 28 2
28 -12z m-1725 -9 c-10 -11 -20 -18 -23 -15 -7 6 18 35 31 35 5 0 2 -9 -8 -20z
m-5840 0 c19 -8 19 -9 -2 -9 -12 -1 -25 4 -28 9 -7 12 2 12 30 0z m4500 -11
c12 -19 -5 -23 -22 -6 -16 16 -16 17 -1 17 9 0 20 -5 23 -11z m-1019 -7 c8 -5
9 -30 5 -77 -7 -68 -7 -69 -14 -29 -5 22 -7 45 -6 50 1 5 -1 17 -6 27 -6 15
-15 16 -59 11 -36 -5 -48 -3 -41 4 6 6 28 12 50 15 22 2 45 4 50 5 6 1 15 -2
21 -6z m2314 -17 c-7 -8 -17 -15 -22 -15 -6 0 -5 7 2 15 7 8 17 15 22 15 6 0
5 -7 -2 -15z m2026 -20 c-4 -14 -11 -25 -16 -25 -5 0 -7 7 -5 15 3 8 7 22 10
31 9 26 18 8 11 -21z m-7796 9 c0 -8 -4 -12 -10 -9 -5 3 -10 10 -10 16 0 5 5
9 10 9 6 0 10 -7 10 -16z m1370 -13 c0 -10 -6 -21 -13 -24 -7 -3 -19 -23 -26
-46 -6 -23 -16 -41 -21 -41 -16 0 -12 50 5 66 8 9 15 26 15 40 0 17 5 24 20
24 13 0 20 -7 20 -19z m3145 8 c11 -17 -1 -21 -15 -4 -8 9 -8 15 -2 15 6 0 14
-5 17 -11z m-2700 -18 c3 -6 8 -29 11 -52 5 -32 3 -40 -7 -37 -8 2 -18 14 -24
26 -5 12 -15 22 -22 22 -17 0 -16 6 5 29 20 22 28 25 37 12z m3915 0 c0 -5 -7
-12 -16 -15 -24 -9 -28 -7 -14 9 14 17 30 20 30 6z m1240 0 c0 -5 10 -12 23
-16 19 -6 20 -8 4 -12 -10 -3 -24 0 -31 6 -9 8 -18 7 -31 -3 -17 -12 -17 -16
-6 -30 8 -9 11 -19 8 -22 -3 -3 -14 7 -23 22 -12 17 -15 29 -8 31 6 2 20 10
30 18 22 17 34 19 34 6z m-5876 -23 c9 -34 7 -38 -9 -32 -16 6 -21 54 -6 54 5
0 11 -10 15 -22z m1141 -16 c-9 -9 -35 8 -35 24 0 16 2 16 20 -1 11 -10 18
-20 15 -23z m1375 28 c0 -5 -9 -10 -21 -10 -11 0 -17 5 -14 10 3 6 13 10 21
10 8 0 14 -4 14 -10z m965 -28 c-6 -7 -35 18 -35 31 0 5 9 2 20 -8 11 -10 18
-20 15 -23z m-2305 8 c0 -5 -2 -10 -4 -10 -3 0 -8 5 -11 10 -3 6 -1 10 4 10 6
0 11 -4 11 -10z m2365 0 c3 -5 -3 -10 -14 -10 -11 0 -23 5 -26 10 -3 6 3 10
14 10 11 0 23 -4 26 -10z m60 0 c3 -5 -3 -10 -14 -10 -11 0 -23 5 -26 10 -3 6
3 10 14 10 11 0 23 -4 26 -10z m60 0 c3 -5 -3 -10 -14 -10 -11 0 -23 5 -26 10
-3 6 3 10 14 10 11 0 23 -4 26 -10z m60 0 c3 -5 -3 -10 -14 -10 -11 0 -23 5
-26 10 -3 6 3 10 14 10 11 0 23 -4 26 -10z m45 0 c0 -5 -4 -10 -9 -10 -6 0
-13 5 -16 10 -3 6 1 10 9 10 9 0 16 -4 16 -10z m60 0 c0 -5 -9 -10 -20 -10
-11 0 -20 5 -20 10 0 6 9 10 20 10 11 0 20 -4 20 -10z m60 0 c0 -5 -9 -10 -20
-10 -11 0 -20 5 -20 10 0 6 9 10 20 10 11 0 20 -4 20 -10z m60 0 c0 -5 -9 -10
-20 -10 -11 0 -20 5 -20 10 0 6 9 10 20 10 11 0 20 -4 20 -10z m48 -9 c3 -8
-1 -12 -9 -9 -7 2 -15 10 -17 17 -3 8 1 12 9 9 7 -2 15 -10 17 -17z m592 15
c0 -11 -19 -15 -25 -6 -3 5 1 10 9 10 9 0 16 -2 16 -4z m-4070 -13 c0 -5 -9
-19 -19 -32 -21 -28 -38 -13 -21 19 10 19 40 29 40 13z m4025 -3 c-3 -5 -13
-10 -21 -10 -8 0 -12 5 -9 10 3 6 13 10 21 10 8 0 12 -4 9 -10z m-2005 -21 c0
-5 -9 -9 -20 -9 -22 0 -27 16 -7 23 15 5 27 -1 27 -14z m1950 11 c0 -5 -10
-10 -22 -10 -19 0 -20 2 -8 10 19 13 30 13 30 0z m-449 -26 c12 -14 11 -16 -5
-13 -11 2 -21 10 -24 17 -5 17 13 15 29 -4z m389 12 c0 -9 -30 -14 -35 -6 -4
6 3 10 14 10 12 0 21 -2 21 -4z m-4020 -17 c0 -5 4 -8 8 -5 9 5 39 -11 32 -18
-9 -8 -74 -9 -92 -1 -25 10 -22 28 3 20 15 -5 19 -4 15 4 -4 7 1 11 13 11 12
0 21 -5 21 -11z m750 7 c0 -3 -4 -8 -10 -11 -5 -3 -10 -1 -10 4 0 6 5 11 10
11 6 0 10 -2 10 -4z m3215 -6 c-3 -5 -15 -10 -26 -10 -11 0 -17 5 -14 10 3 6
15 10 26 10 11 0 17 -4 14 -10z m-4399 -159 c-4 -80 -15 -175 -23 -210 -13
-51 -13 -65 -3 -71 9 -5 11 -25 8 -64 -3 -31 -1 -59 4 -62 4 -3 8 -13 8 -22
-1 -36 -30 21 -30 58 0 20 -4 40 -9 46 -5 5 -11 20 -13 34 -2 18 -10 26 -28
28 -60 7 -70 12 -70 38 0 14 -7 32 -15 40 -21 21 -19 34 5 34 11 0 20 -7 20
-15 0 -18 30 -20 31 -2 0 10 2 10 6 0 2 -7 22 -13 43 -13 l38 0 8 118 c5 64 8
141 7 169 0 33 3 50 9 46 7 -4 8 -57 4 -152z m4344 149 c0 -5 -10 -10 -22 -10
-19 0 -20 2 -8 10 19 13 30 13 30 0z m-3204 -15 c-23 -17 -36 -19 -36 -6 0 11
18 19 40 20 11 0 10 -3 -4 -14z m1232 -71 c-6 -14 -16 -23 -22 -21 -19 6 -16
24 6 35 18 8 19 11 6 11 -19 1 -26 21 -8 21 6 0 10 8 11 18 0 9 5 4 9 -11 6
-18 5 -38 -2 -53z m1739 40 c-9 -10 -38 16 -31 28 4 6 13 4 22 -6 9 -8 13 -19
9 -22z m163 26 c-19 -13 -30 -13 -30 0 0 6 10 10 23 10 18 0 19 -2 7 -10z
m1623 -26 c60 -67 86 -141 56 -160 -6 -3 -10 1 -9 12 5 46 -3 67 -45 118 -25
31 -45 58 -45 61 0 12 13 3 43 -31z m-1678 16 c-3 -5 -13 -10 -21 -10 -8 0
-12 5 -9 10 3 6 13 10 21 10 8 0 12 -4 9 -10z m-55 -10 c0 -5 -10 -10 -22 -10
-19 0 -20 2 -8 10 19 13 30 13 30 0z m-3360 -21 c0 -11 -28 -24 -36 -17 -2 3
-2 12 2 21 6 16 34 12 34 -4z m-1960 -144 c0 -8 -4 -15 -10 -15 -5 0 -10 7
-10 15 0 8 5 15 10 15 6 0 10 -7 10 -15z m760 -5 c-6 -11 -15 -20 -20 -20 -6
0 -5 9 2 20 7 11 16 20 21 20 4 0 3 -9 -3 -20z m-80 -15 c0 -23 4 -25 44 -25
25 0 47 -4 50 -9 5 -8 -113 -3 -123 5 -2 2 -1 15 3 29 8 32 26 33 26 0z m3000
-5 c0 -4 -11 -27 -24 -51 -14 -24 -35 -71 -47 -104 -27 -74 -35 -85 -64 -85
-16 0 -25 -8 -29 -26 -7 -24 -8 -25 -25 -10 -10 9 -21 13 -24 9 -11 -10 -8
-53 3 -53 6 0 10 -16 10 -35 0 -26 -4 -35 -17 -35 -16 0 -16 -1 -1 -16 27 -27
-3 -94 -42 -94 -35 0 -42 15 -26 55 21 49 20 54 -9 61 -23 6 -24 8 -9 18 9 7
17 24 17 39 0 14 6 28 13 31 8 3 14 15 14 26 0 11 7 20 15 20 8 0 42 7 74 16
l60 17 22 61 c12 34 33 80 46 104 14 24 22 50 19 57 -3 9 0 12 10 8 7 -3 14
-9 14 -13z m-3252 -104 c56 -27 78 -46 52 -46 -18 0 -145 73 -162 94 -32 38
-19 51 15 15 17 -19 60 -47 95 -63z m386 49 c-4 -8 -10 -15 -15 -15 -5 0 -9 7
-9 15 0 8 7 15 15 15 9 0 12 -6 9 -15z m33 -22 c-3 -10 -5 -4 -5 12 0 17 2 24
5 18 2 -7 2 -21 0 -30z m6051 8 c23 -20 31 -71 10 -71 -22 0 -48 33 -48 62 0
33 7 34 38 9z m-6068 -20 c0 -15 -17 -22 -36 -14 -16 6 -16 7 2 14 27 11 34
10 34 0z m66 -26 c-3 -8 -9 -22 -12 -30 -4 -9 3 -16 20 -21 14 -3 26 -10 26
-15 0 -10 -49 -1 -63 10 -10 9 12 71 25 71 6 0 7 -7 4 -15z m2624 -75 c0 -5
-7 -10 -15 -10 -8 0 -15 5 -15 10 0 6 7 10 15 10 8 0 15 -4 15 -10z m-3020
-20 c0 -5 -8 -10 -17 -10 -15 0 -16 2 -3 10 19 12 20 12 20 0z m6455 -20 c16
-7 13 -9 -17 -11 -21 -1 -43 -2 -50 -3 -6 -1 -13 5 -15 12 -5 14 50 16 82 2z
m311 -5 c-3 -8 -9 -22 -12 -30 -4 -9 -1 -15 7 -15 8 -1 3 -7 -11 -15 -22 -12
-26 -12 -32 3 -11 28 -9 42 6 36 9 -3 17 3 21 15 3 12 11 21 17 21 5 0 7 -7 4
-15z m-406 -2 c0 -14 -19 -38 -25 -32 -8 8 5 39 16 39 5 0 9 -3 9 -7z m31 -32
c8 13 11 6 8 -17 0 -4 5 -11 13 -15 9 -6 8 -9 -7 -9 -12 0 -26 5 -33 12 -9 9
-12 9 -12 0 0 -7 -9 -12 -20 -12 -11 0 -20 5 -20 10 0 6 6 10 13 10 7 0 19 10
27 23 13 20 14 21 18 3 3 -15 6 -16 13 -5z m46 -23 c-3 -8 -6 -5 -6 6 -1 11 2
17 5 13 3 -3 4 -12 1 -19z m-5699 -36 c3 -21 0 -23 -35 -20 -41 3 -59 32 -26
41 36 10 58 2 61 -21z m6378 -7 c-24 -19 -27 -28 -22 -50 4 -15 15 -29 26 -32
15 -4 18 -11 14 -32 -4 -18 0 -32 10 -40 9 -8 16 -18 16 -24 0 -6 -11 0 -26
13 -18 18 -23 31 -19 47 4 16 1 23 -9 23 -18 0 -22 6 -30 50 -5 31 -2 37 27
56 41 28 51 19 13 -11z m-6490 -51 c7 3 19 -1 26 -8 9 -9 19 -10 39 -3 22 9
32 6 63 -18 20 -15 35 -34 32 -41 -3 -7 0 -15 7 -17 7 -2 9 -7 6 -11 -12 -12
-41 7 -36 24 6 25 -31 45 -83 45 -47 0 -110 21 -110 37 0 5 9 4 21 -2 11 -7
27 -9 35 -6z m-206 -11 c-1 -15 -49 -67 -56 -61 -3 4 4 20 17 37 23 29 39 39
39 24z m323 -113 c-3 -11 -7 -20 -9 -20 -2 0 -4 9 -4 20 0 11 4 20 9 20 5 0 7
-9 4 -20z m1497 -80 c0 -5 -9 -10 -20 -10 -11 0 -20 5 -20 10 0 6 9 10 20 10
11 0 20 -4 20 -10z m5090 -172 c0 -5 -7 -8 -16 -8 -8 0 -12 -4 -9 -10 3 -5 -1
-10 -9 -10 -11 0 -16 9 -16 29 0 27 1 28 25 18 14 -7 25 -15 25 -19z m-123
-200 c-3 -7 -5 -2 -5 12 0 14 2 19 5 13 2 -7 2 -19 0 -25z m-5919 -119 c15
-25 17 -35 8 -54 -13 -29 -36 -21 -36 12 0 23 2 24 17 12 17 -13 17 -13 0 13
-16 26 -22 48 -13 48 2 0 13 -14 24 -31z m688 -45 c18 -15 18 -15 -8 -10 -15
4 -30 2 -33 -4 -3 -5 -17 -10 -29 -10 -13 0 -29 -7 -36 -15 -14 -17 -56 -20
-65 -5 -3 6 4 10 18 10 14 0 30 7 37 15 7 8 22 15 34 15 11 0 28 5 36 10 20
13 23 13 46 -6z m330 -110 c-15 -14 -31 -22 -35 -19 -3 4 7 17 24 30 38 31 49
21 11 -11z m4941 -16 c-3 -7 -5 -2 -5 12 0 14 2 19 5 13 2 -7 2 -19 0 -25z
m-5973 -4 c8 -29 3 -39 -13 -29 -13 8 -15 55 -2 55 5 0 12 -12 15 -26z m4358
-8 c16 -24 8 -38 -17 -32 -14 3 -37 9 -52 12 -28 7 -45 23 -37 35 6 10 98 -2
106 -15z m-3901 -19 c-6 -6 -37 -17 -69 -23 -31 -7 -65 -15 -74 -19 -10 -4
-18 -3 -18 3 0 11 43 27 101 36 21 4 43 14 50 22 9 11 14 13 17 4 2 -6 -1 -17
-7 -23z m-391 16 c0 -15 -15 -28 -43 -41 -33 -14 -37 -15 -37 -3 0 5 14 14 30
20 17 5 30 15 30 20 0 6 5 11 10 11 6 0 10 -3 10 -7z m910 -2 c0 -5 -15 -15
-34 -21 -20 -6 -50 -30 -71 -56 -34 -41 -39 -44 -87 -44 -40 0 -66 9 -134 46
-46 25 -84 50 -84 55 0 13 0 13 96 -41 117 -65 155 -65 204 4 32 45 110 85
110 57z m-989 -98 c-10 -17 -10 -16 -11 3 0 23 13 41 18 25 2 -6 -1 -18 -7
-28z m254 17 c3 -5 1 -10 -4 -10 -6 0 -11 5 -11 10 0 6 2 10 4 10 3 0 8 -4 11
-10z m2447 -84 c32 -27 71 -72 87 -100 16 -28 41 -62 55 -75 32 -30 33 -37 1
-43 -25 -5 -34 5 -14 18 7 4 2 16 -14 33 -13 14 -36 46 -50 71 -15 25 -56 69
-92 99 -36 29 -65 58 -65 64 0 11 10 3 92 -67z m-2662 44 c8 -5 11 -12 7 -16
-4 -4 -15 0 -24 9 -18 18 -8 23 17 7z m220 3 c0 -14 -19 -38 -25 -32 -8 8 5
39 16 39 5 0 9 -3 9 -7z m-204 -70 c-11 -11 -17 4 -9 23 7 18 8 18 11 1 2 -10
1 -21 -2 -24z m178 2 c-4 -8 -13 -15 -21 -15 -13 0 -13 3 -3 15 7 8 16 15 21
15 5 0 6 -7 3 -15z m311 -13 c25 -6 45 -22 45 -34 0 -17 -57 -1 -80 22 -25 25
-26 34 -2 25 9 -4 26 -10 37 -13z m211 1 c9 -3 12 -14 8 -29 -4 -17 2 -33 25
-61 17 -20 28 -39 25 -42 -3 -3 -21 12 -40 34 -23 27 -31 47 -28 61 6 22 -15
34 -63 34 -12 0 -25 5 -29 11 -5 9 6 10 41 5 26 -4 54 -10 61 -13z m-576 -13
c-19 -13 -30 -13 -30 0 0 6 10 10 23 10 18 0 19 -2 7 -10z m-110 -10 c0 -13
-11 -13 -30 0 -12 8 -11 10 8 10 12 0 22 -4 22 -10z m53 -7 c-7 -2 -19 -2 -25
0 -7 3 -2 5 12 5 14 0 19 -2 13 -5z m2507 -45 c36 -26 42 -68 10 -68 -11 0
-23 7 -26 15 -4 8 -10 12 -15 9 -6 -3 -16 -1 -24 6 -11 9 -12 7 -8 -11 4 -15
3 -20 -5 -15 -7 4 -12 12 -12 17 0 10 41 69 47 69 2 0 17 -10 33 -22z m3327
-180 c-3 -8 -6 -5 -6 6 -1 11 2 17 5 13 3 -3 4 -12 1 -19z"/>
<path d="M4570 6726 c-12 -15 -12 -19 1 -27 11 -7 12 -11 1 -18 -10 -6 -11
-16 -4 -42 9 -30 10 -31 11 -8 1 14 5 29 10 35 5 5 7 24 3 43 -7 31 -9 32 -22
17z"/>
<path d="M3881 6540 c14 -31 19 -36 19 -24 0 6 -7 19 -16 30 -14 18 -14 18 -3
-6z"/>
<path d="M3920 6510 c0 -13 7 -20 20 -20 18 0 19 2 8 20 -7 11 -16 20 -20 20
-5 0 -8 -9 -8 -20z"/>
<path d="M3975 6520 c-3 -5 -1 -10 4 -10 6 0 11 5 11 10 0 6 -2 10 -4 10 -3 0
-8 -4 -11 -10z"/>
<path d="M3900 6466 c0 -19 -30 -22 -31 -3 -1 6 -4 1 -8 -13 -9 -30 -5 -40 16
-40 13 0 13 3 2 16 -11 13 -9 14 14 9 23 -6 27 -4 27 13 0 12 -4 24 -10 27 -5
3 -10 -1 -10 -9z"/>
<path d="M646 6319 c-5 -58 -12 -89 -26 -107 -19 -24 -45 -100 -37 -108 2 -2
31 60 65 138 34 78 61 142 59 144 -1 1 -14 5 -28 9 l-26 6 -7 -82z"/>
<path d="M4176 5601 c-15 -17 -15 -19 -1 -25 29 -11 37 -7 32 15 -4 15 -2 19
9 15 9 -3 12 -1 9 4 -10 16 -30 12 -49 -9z"/>
<path d="M3367 5613 c-12 -12 -7 -22 8 -17 8 4 15 10 15 15 0 11 -14 12 -23 2z"/>
<path d="M3050 4812 c0 -6 5 -14 10 -17 6 -4 7 -11 4 -17 -4 -6 0 -15 7 -20
11 -7 11 -11 2 -15 -26 -10 -13 -33 18 -33 24 0 29 4 26 18 -3 9 -8 30 -12 46
-3 15 -9 26 -12 22 -4 -3 -15 1 -25 11 -10 9 -18 11 -18 5z"/>
<path d="M4155 5308 c-27 -15 -61 -28 -75 -28 -22 0 -26 -5 -28 -32 -5 -85
-15 -112 -68 -180 -60 -78 -58 -72 -44 -99 15 -27 23 -25 86 22 43 31 59 38
67 29 9 -9 8 -14 -5 -24 -22 -16 -23 -30 -3 -46 8 -7 15 -23 15 -36 0 -23 9
-28 37 -25 7 1 23 -3 34 -10 l22 -11 -6 118 c-4 81 -1 153 9 227 9 59 14 111
12 115 -2 4 -25 -5 -53 -20z"/>
<path d="M4000 4949 c-19 -17 -27 -28 -17 -25 12 4 20 -2 27 -19 5 -14 17 -25
26 -25 10 0 25 -7 35 -16 10 -9 23 -13 28 -9 16 10 13 25 -5 25 -12 0 -15 7
-11 26 3 16 0 28 -9 31 -8 3 -14 14 -14 24 0 27 -21 23 -60 -12z"/>
<path d="M4016 4855 c4 -8 8 -15 10 -15 2 0 4 7 4 15 0 8 -4 15 -10 15 -5 0
-7 -7 -4 -15z"/>
<path d="M4112 4848 c-7 -7 -12 -15 -12 -20 0 -12 28 2 34 18 7 17 -6 18 -22
2z"/>
<path d="M4360 4490 c-12 -8 -9 -10 13 -10 16 0 26 4 22 10 -8 12 -16 12 -35
0z"/>
<path d="M4280 4220 c0 -5 5 -10 11 -10 5 0 7 5 4 10 -3 6 -8 10 -11 10 -2 0
-4 -4 -4 -10z"/>
<path d="M4320 4199 c0 -5 5 -7 10 -4 6 3 10 8 10 11 0 2 -4 4 -10 4 -5 0 -10
-5 -10 -11z"/>
<path d="M3175 3869 c-8 -24 -24 -103 -25 -121 0 -14 8 -16 43 -14 25 2 48 -3
59 -11 10 -9 18 -11 22 -4 4 5 -3 15 -15 21 -11 7 -18 14 -16 17 3 2 19 -3 36
-12 18 -9 36 -13 42 -9 6 4 14 2 18 -3 11 -18 54 5 47 24 -4 9 -2 19 3 22 5 3
11 19 12 36 3 22 0 30 -14 33 -16 3 -17 1 -7 -17 7 -14 7 -21 1 -21 -6 0 -13
11 -17 24 -5 19 -14 25 -50 30 -24 3 -64 9 -89 12 -33 5 -46 3 -50 -7z m166
-79 c18 -16 29 -33 25 -37 -5 -5 -11 -2 -13 5 -5 14 -33 16 -33 2 0 -5 -9 -10
-20 -10 -11 0 -20 5 -20 10 0 6 5 10 10 10 6 0 10 7 10 16 0 13 -3 14 -13 5
-8 -6 -24 -9 -37 -6 -35 7 -37 15 -2 15 17 0 34 5 37 10 10 16 22 12 56 -20z"/>
<path d="M3438 3843 c7 -3 16 -2 19 1 4 3 -2 6 -13 5 -11 0 -14 -3 -6 -6z"/>
<path d="M3470 3833 c-8 -2 -22 -7 -30 -9 -12 -4 -11 -7 4 -16 15 -8 22 -7 30
4 6 8 18 17 26 21 13 5 13 5 0 5 -8 0 -22 -2 -30 -5z"/>
<path d="M3471 3783 c-8 -15 -13 -16 -29 -6 -32 19 -32 5 2 -47 25 -39 35 -47
54 -43 12 3 22 0 22 -6 0 -6 -6 -11 -13 -11 -7 0 -18 -9 -25 -20 -12 -19 -10
-20 42 -20 30 0 62 -3 72 -7 14 -5 16 -2 11 23 -3 16 -1 37 4 46 7 14 6 18 -6
18 -20 0 -19 18 2 22 15 3 15 5 -2 22 -15 15 -29 17 -71 13 -47 -5 -51 -4 -47
14 7 24 -3 25 -16 2z"/>
<path d="M3515 3790 c-3 -5 1 -10 9 -10 8 0 18 5 21 10 3 6 -1 10 -9 10 -8 0
-18 -4 -21 -10z"/>
<path d="M3404 3728 c-4 -6 -2 -14 4 -16 7 -2 12 -10 12 -17 0 -17 17 -28 29
-20 10 6 -18 65 -31 65 -4 0 -10 -5 -14 -12z"/>
<path d="M3177 3714 c-12 -13 -8 -22 14 -29 13 -5 18 -12 14 -23 -6 -16 10
-32 33 -32 6 0 12 7 12 16 0 11 6 15 20 11 22 -6 29 18 8 26 -7 3 3 6 22 6 31
1 33 2 18 17 -13 13 -19 14 -36 3 -17 -10 -23 -10 -37 1 -13 11 -18 11 -28 0
-10 -10 -9 -12 6 -7 11 4 17 1 17 -8 0 -22 -25 -18 -41 6 -8 11 -17 17 -22 13z"/>
<path d="M3141 3664 c0 -11 3 -14 6 -6 3 7 2 16 -1 19 -3 4 -6 -2 -5 -13z"/>
<path d="M3621 3658 c-1 -15 4 -30 9 -33 12 -7 12 12 0 40 -8 18 -9 17 -9 -7z"/>
<path d="M3410 3653 c0 -7 8 -17 18 -22 14 -9 15 -12 3 -20 -11 -7 -9 -10 8
-16 12 -4 28 -2 35 4 7 6 16 8 19 4 9 -8 96 -8 104 1 7 6 -57 11 -114 8 -29
-2 -33 1 -33 23 0 14 -4 25 -10 25 -5 0 -10 -6 -10 -12 0 -9 -4 -8 -10 2 -6 9
-10 10 -10 3z"/>
<path d="M3138 3623 c7 -3 16 -2 19 1 4 3 -2 6 -13 5 -11 0 -14 -3 -6 -6z"/>
<path d="M3170 3618 c0 -4 14 -8 30 -8 17 0 30 2 30 4 0 2 -13 6 -30 8 -16 3
-30 1 -30 -4z"/>
<path d="M3318 3623 c7 -3 16 -2 19 1 4 3 -2 6 -13 5 -11 0 -14 -3 -6 -6z"/>
<path d="M3335 3600 c-4 -6 3 -10 14 -10 25 0 27 6 6 13 -8 4 -17 2 -20 -3z"/>
<path d="M3388 3593 c7 -3 16 -2 19 1 4 3 -2 6 -13 5 -11 0 -14 -3 -6 -6z"/>
<path d="M3588 3563 c6 -2 18 -2 25 0 6 3 1 5 -13 5 -14 0 -19 -2 -12 -5z"/>
<path d="M4080 3279 c0 -5 5 -7 10 -4 6 3 10 8 10 11 0 2 -4 4 -10 4 -5 0 -10
-5 -10 -11z"/>
<path d="M3736 3181 c-12 -18 5 -30 29 -21 16 7 17 9 3 9 -9 1 -18 6 -20 13
-3 9 -6 9 -12 -1z"/>
<path d="M3660 3136 c0 -8 14 -15 35 -18 39 -4 46 6 16 22 -27 14 -51 13 -51
-4z"/>
<path d="M3888 3083 c6 -2 18 -2 25 0 6 3 1 5 -13 5 -14 0 -19 -2 -12 -5z"/>
<path d="M465 3570 c3 -5 8 -10 11 -10 2 0 4 5 4 10 0 6 -5 10 -11 10 -5 0 -7
-4 -4 -10z"/>
<path d="M4376 3315 c-11 -28 -7 -35 20 -35 21 0 25 4 22 22 -4 27 -33 36 -42
13z"/>
<path d="M3594 2592 c-12 -9 -36 -25 -53 -34 -38 -21 -42 -59 -9 -82 20 -14
24 -14 39 0 18 17 63 134 51 134 -4 -1 -17 -8 -28 -18z"/>
<path d="M3140 2480 c0 -5 5 -10 11 -10 5 0 7 5 4 10 -3 6 -8 10 -11 10 -2 0
-4 -4 -4 -10z"/>
<path d="M3489 2418 c-12 -23 -34 -54 -50 -68 -30 -29 -41 -61 -22 -67 16 -6
126 145 119 163 -9 25 -25 15 -47 -28z"/>
<path d="M3205 2365 c43 -47 84 -85 93 -85 9 0 5 7 -12 21 -15 12 -34 38 -42
58 -14 34 -80 91 -105 91 -6 0 24 -38 66 -85z"/>
<path d="M3502 2348 c-33 -46 -58 -88 -55 -95 8 -20 50 -42 85 -45 21 -1 43
-12 61 -30 25 -26 33 -28 72 -23 57 9 89 42 80 83 -6 27 -9 29 -33 23 -34 -10
-57 -1 -107 42 l-40 35 22 30 22 30 -24 16 c-24 16 -24 15 -83 -66z"/>
<path d="M3612 2358 c3 -7 15 -14 27 -16 18 -3 20 -6 11 -17 -12 -15 -6 -35
11 -35 6 0 7 5 4 10 -6 10 6 14 38 11 26 -3 21 6 -20 34 -40 27 -77 33 -71 13z"/>
<path d="M3333 2273 c9 -2 25 -2 35 0 9 3 1 5 -18 5 -19 0 -27 -2 -17 -5z"/>
<path d="M3167 2740 c-3 -11 -1 -20 4 -20 5 0 9 9 9 20 0 11 -2 20 -4 20 -2 0
-6 -9 -9 -20z"/>
<path d="M3160 2689 c0 -5 5 -7 10 -4 6 3 10 8 10 11 0 2 -4 4 -10 4 -5 0 -10
-5 -10 -11z"/>
<path d="M7650 2711 c0 -10 7 -22 16 -25 26 -10 28 0 5 23 -20 20 -21 20 -21
2z"/>
<path d="M2589 1728 c-6 -13 -8 -20 -4 -16 5 4 14 3 22 -4 23 -19 37 6 14 26
-19 17 -20 17 -32 -6z"/>
<path d="M2591 1688 c-1 -10 1 -18 3 -18 2 0 11 -3 20 -6 9 -3 16 -1 16 5 0 6
-6 11 -14 11 -8 0 -17 6 -19 13 -3 7 -6 5 -6 -5z"/>
<path d="M748 2179 c-10 -6 -18 -16 -18 -23 0 -15 -45 -30 -61 -20 -6 3 -7 -4
-4 -19 8 -32 -10 -43 -125 -73 l-85 -23 75 -1 c75 0 76 0 157 55 77 51 106 86
86 105 -4 5 -16 4 -25 -1z"/>
<path d="M1300 2220 c0 -5 7 -10 15 -10 8 0 15 5 15 10 0 6 -7 10 -15 10 -8 0
-15 -4 -15 -10z"/>
<path d="M1080 1621 c0 -24 5 -27 51 -36 31 -6 37 -4 41 13 8 28 -10 42 -54
42 -31 0 -38 -4 -38 -19z"/>
<path d="M3497 1465 c-4 -11 -15 -33 -23 -48 -19 -34 -8 -50 27 -45 25 3 25 6
10 78 -6 29 -8 32 -14 15z"/>
<path d="M3476 1316 c-20 -48 -20 -46 8 -46 28 0 41 40 21 67 -12 16 -15 13
-29 -21z"/>
<path d="M6940 1657 c0 -8 7 -17 15 -21 8 -3 15 -2 15 3 0 5 -7 14 -15 21 -12
10 -15 10 -15 -3z"/>
<path d="M1253 1423 c9 -2 23 -2 30 0 6 3 -1 5 -18 5 -16 0 -22 -2 -12 -5z"/>
<path d="M4404 188 c-5 -8 -2 -9 11 -5 11 5 22 1 30 -10 8 -10 17 -15 21 -10
8 8 -24 36 -43 37 -6 0 -15 -5 -19 -12z"/>
<path d="M5560 7954 c57 -59 99 -79 117 -55 11 14 12 14 13 -5 0 -18 16 -29
88 -59 48 -20 120 -45 161 -56 41 -10 75 -20 76 -22 1 -1 17 -24 37 -52 68
-97 86 -219 50 -340 -14 -46 -17 -74 -11 -120 11 -88 10 -215 -1 -255 -7 -25
-7 -36 3 -42 9 -6 8 -11 -5 -19 -26 -14 -23 -59 3 -66 16 -4 20 -12 16 -29 -3
-19 7 -33 48 -69 l53 -45 205 -7 205 -6 66 28 c63 27 70 28 176 21 l110 -6 0
306 0 306 53 -6 c43 -5 68 -1 141 24 115 39 170 38 316 -1 63 -17 123 -32 132
-32 9 -1 15 -4 12 -8 -2 -4 26 -30 64 -57 56 -42 71 -59 85 -99 9 -26 17 -62
17 -79 0 -17 7 -37 15 -44 13 -11 14 -10 9 5 -5 13 -4 16 4 11 7 -4 12 -14 12
-22 0 -9 11 -14 35 -14 33 0 35 2 25 21 -7 11 -9 23 -6 26 8 8 26 -7 26 -23 0
-10 12 -14 45 -14 l45 0 0 475 0 475 -1242 0 -1242 0 44 -46z m2290 -864 c-8
-5 -18 -6 -24 -3 -5 4 -1 10 10 13 24 9 34 2 14 -10z"/>
<path d="M7180 7369 c-52 -18 -104 -29 -137 -29 l-53 0 -1 -267 c-1 -148 -2
-280 -3 -295 -2 -32 2 -33 141 -43 71 -5 94 -3 165 19 92 28 105 41 152 147
21 49 30 58 73 77 77 33 159 38 213 13 55 -25 74 -27 66 -5 -4 9 -13 55 -20
103 -8 47 -19 97 -26 111 -10 23 -102 98 -155 127 -33 18 -259 73 -297 72 -18
0 -71 -14 -118 -30z"/>
<path d="M7905 7029 c-33 -5 -70 -8 -81 -6 -19 3 -20 0 -15 -22 6 -22 14 -27
47 -29 21 -2 43 -8 49 -13 5 -5 29 -9 53 -9 l43 0 -3 42 c-3 49 -6 50 -93 37z"/>
<path d="M7615 6980 c-3 -5 -1 -10 4 -10 6 0 11 5 11 10 0 6 -2 10 -4 10 -3 0
-8 -4 -11 -10z"/>
<path d="M7650 6978 c0 -13 40 -55 83 -88 16 -12 20 -12 27 0 6 10 8 4 8 -18
-1 -18 -3 -30 -6 -27 -3 3 -23 -11 -44 -32 -30 -29 -35 -39 -26 -51 14 -16 -4
-32 -35 -32 -11 0 -39 -22 -63 -49 -25 -28 -53 -53 -63 -56 -11 -3 -21 -15
-24 -25 -3 -12 -14 -20 -27 -20 -20 0 -21 2 -9 17 13 15 11 16 -20 10 -18 -4
-37 -7 -42 -7 -25 0 3 -213 31 -244 5 -4 28 5 52 21 23 16 84 51 135 78 83 43
91 50 82 67 -6 11 -8 22 -6 25 3 2 10 -5 17 -16 11 -21 11 -21 69 8 52 27 59
34 64 68 10 55 9 64 -5 61 -16 -3 -68 31 -68 44 0 5 9 4 20 -2 14 -8 20 -8 20
0 0 10 65 9 75 -2 3 -3 -1 -18 -10 -34 -8 -16 -15 -44 -15 -61 l0 -33 65 32
66 33 -3 75 c-2 53 -7 74 -15 73 -7 -2 -13 1 -13 6 0 5 -36 35 -80 66 -44 31
-80 62 -80 68 0 12 -77 43 -132 54 -20 4 -28 1 -28 -9z m106 -66 c-9 -8 -26
10 -26 26 1 15 2 15 15 -2 8 -11 13 -21 11 -24z m-114 -276 c6 -14 8 -32 4
-41 -5 -14 -9 -15 -22 -4 -8 7 -13 21 -11 31 3 10 1 18 -4 18 -5 0 -9 5 -9 10
0 20 31 9 42 -14z m56 -25 c3 -8 -1 -12 -9 -9 -7 2 -15 10 -17 17 -3 8 1 12 9
9 7 -2 15 -10 17 -17z m-80 -66 c16 -34 15 -35 -8 -35 -10 0 -24 9 -30 19 -17
32 -11 38 10 11 l20 -25 -10 28 c-12 34 3 36 18 2z"/>
<path d="M7519 6960 c-27 -14 -44 -36 -72 -94 -21 -41 -49 -84 -63 -95 -24
-19 -26 -25 -19 -67 10 -72 24 -94 52 -89 12 3 34 7 48 10 16 4 22 10 19 20
-4 8 -1 15 4 15 6 0 12 -6 14 -14 2 -10 9 -11 27 -5 19 8 22 14 16 37 -5 22
-4 25 6 15 15 -15 29 -17 29 -4 0 5 36 44 80 87 l80 78 -50 51 c-50 51 -80 65
-80 38 0 -7 -3 -13 -7 -13 -10 1 -43 26 -43 33 0 3 8 8 18 10 14 4 14 5 -3 5
-11 1 -36 -7 -56 -18z m71 -40 c13 -8 13 -10 -2 -10 -9 0 -20 5 -23 10 -8 13
5 13 25 0z m54 -16 c9 -22 -3 -32 -14 -14 -12 19 -12 30 -1 30 5 0 12 -7 15
-16z"/>
<path d="M7825 6939 c3 -8 44 -40 90 -72 l85 -58 0 59 0 60 -36 4 c-21 2 -41
-1 -48 -7 -12 -13 -58 -4 -82 16 -11 9 -13 9 -9 -2z"/>
<path d="M7968 6263 c-14 -16 -34 -44 -43 -63 -10 -19 -26 -43 -36 -53 -21
-20 -15 -49 8 -40 8 3 19 0 23 -7 7 -11 16 -9 44 11 l36 24 0 78 c0 42 -1 77
-3 77 -2 0 -15 -12 -29 -27z"/>
<path d="M7977 6099 c-12 -7 -16 -17 -12 -30 5 -16 1 -19 -25 -19 -23 0 -33 5
-37 20 -3 11 -9 20 -13 20 -5 0 -16 3 -24 6 -34 13 -62 -124 -38 -186 5 -14 7
-42 4 -62 -3 -30 -12 -42 -39 -59 -18 -12 -32 -26 -30 -32 5 -17 58 -28 103
-22 38 5 43 10 64 58 13 29 34 67 47 84 22 30 23 41 21 132 -3 92 -4 99 -21
90z"/>
<path d="M7982 5858 c-5 -7 -22 -38 -37 -68 -15 -30 -29 -57 -30 -58 -13 -14
-85 -19 -132 -9 -49 10 -61 9 -121 -12 -37 -13 -109 -43 -160 -67 -63 -30
-139 -54 -230 -75 -76 -18 -198 -55 -274 -85 -76 -30 -144 -54 -151 -54 -8 0
-102 -36 -209 -79 -142 -58 -224 -98 -297 -145 l-101 -65 0 -51 c0 -57 -8 -55
118 -40 73 8 89 7 140 -12 31 -11 68 -33 82 -48 14 -15 87 -67 164 -115 107
-67 170 -99 282 -141 l144 -54 128 0 c198 0 210 7 263 149 25 67 43 81 99 81
21 0 60 22 132 75 85 62 105 83 114 112 11 38 20 46 67 63 l27 10 0 350 c0
192 -2 350 -4 350 -2 0 -8 -6 -14 -12z m-327 -502 c10 -7 27 -11 38 -8 17 4
36 -11 37 -30 0 -5 -13 -8 -30 -8 -42 0 -37 -17 13 -41 41 -20 43 -22 41 -67
-2 -61 -2 -62 -15 -62 -6 0 -8 7 -5 16 3 8 1 25 -5 36 -8 16 -8 22 2 29 16 9
14 11 -27 32 -17 9 -34 13 -38 10 -10 -10 -7 -43 4 -43 6 0 10 -4 10 -10 0 -5
-6 -10 -14 -10 -19 0 -30 48 -15 66 20 24 4 43 -33 38 -40 -6 -90 7 -96 25 -3
8 0 11 5 8 5 -3 22 3 39 14 34 22 63 24 89 5z m-519 -242 c-3 -26 -12 -54 -19
-62 -6 -8 -10 -24 -9 -35 3 -18 0 -19 -37 -14 -23 3 -44 1 -47 -4 -9 -15 -34
-10 -34 6 0 8 -4 15 -10 15 -13 0 -8 73 5 82 5 4 15 2 22 -4 21 -17 43 -1 43
32 0 29 1 30 46 30 l47 0 -7 -46z m-206 -226 c0 6 11 12 25 12 14 0 25 -4 25
-10 0 -5 -9 -10 -20 -10 -11 0 -20 -7 -20 -15 0 -9 -6 -12 -15 -9 -8 4 -15 16
-15 28 0 17 2 18 10 6 6 -10 10 -11 10 -2z m197 -80 c-3 -7 -5 -2 -5 12 0 14
2 19 5 13 2 -7 2 -19 0 -25z"/>
<path d="M7602 5351 c-11 -7 -10 -10 3 -15 26 -10 35 -7 29 9 -7 17 -13 18
-32 6z"/>
<path d="M7685 5330 c-19 -8 -19 -9 3 -9 12 -1 22 4 22 9 0 6 -1 10 -2 9 -2 0
-12 -4 -23 -9z"/>
<path d="M7078 5115 c2 -14 6 -25 8 -25 2 0 4 11 4 25 0 14 -4 25 -9 25 -4 0
-6 -11 -3 -25z"/>
<path d="M7086 5063 c-6 -14 -5 -15 5 -6 7 7 10 15 7 18 -3 3 -9 -2 -12 -12z"/>
<path d="M7018 5052 c-20 -4 -25 -22 -5 -21 6 0 21 4 31 8 15 6 16 9 5 12 -8
3 -22 4 -31 1z"/>
<path d="M6906 5489 l-38 -37 46 16 c30 11 46 23 46 34 0 30 -14 26 -54 -13z"/>
<path d="M395 5321 c-3 -12 5 -40 20 -69 34 -65 44 -171 22 -224 l-16 -38 42
0 42 0 36 101 c30 82 35 106 28 133 -12 42 -54 82 -108 101 -55 19 -58 19 -66
-4z"/>
<path d="M596 5181 c-4 -5 -2 -12 3 -15 5 -4 12 -2 15 3 4 5 2 12 -3 15 -5 4
-12 2 -15 -3z"/>
<path d="M400 5134 c0 -17 22 -14 28 4 2 7 -3 12 -12 12 -9 0 -16 -7 -16 -16z"/>
<path d="M344 5073 c-3 -12 -7 -37 -7 -54 -2 -29 2 -33 29 -39 30 -7 32 -5 53
44 11 28 21 54 21 58 0 3 -20 8 -45 10 -40 3 -46 1 -51 -19z"/>
<path d="M7960 1804 c-19 -12 -43 -23 -53 -23 -10 -1 -15 -6 -12 -11 9 -14
-15 -80 -38 -107 -11 -12 -18 -26 -16 -31 2 -5 38 -37 79 -71 l75 -61 3 79 c1
44 1 118 0 164 l-3 84 -35 -23z"/>
<path d="M3182 350 c-15 -34 -22 -39 -52 -42 -33 -3 -35 -5 -38 -43 -3 -32
-13 -50 -50 -88 -26 -27 -67 -60 -92 -75 -67 -38 -73 -44 -58 -53 9 -6 4 -11
-14 -18 -65 -25 -38 -31 137 -31 l176 0 39 85 c22 46 45 106 52 132 6 26 22
72 35 102 13 29 22 55 20 58 -3 2 -17 1 -32 -3 -20 -5 -23 -9 -13 -15 9 -6 7
-9 -8 -9 -12 0 -31 9 -44 20 -32 28 -39 26 -58 -20z"/>
<path d="M3300 228 c-12 -50 -28 -91 -64 -170 -24 -54 -24 -58 -7 -58 14 0 25
23 54 112 50 160 50 158 38 158 -6 0 -15 -19 -21 -42z"/>
</g>
</svg>
