<?xml version="1.0" standalone="no"?>
<!DOCTYPE svg PUBLIC "-//W3C//DTD SVG 20010904//EN"
 "http://www.w3.org/TR/2001/REC-SVG-20010904/DTD/svg10.dtd">
<svg version="1.0" xmlns="http://www.w3.org/2000/svg"
 width="800.000000pt" height="800.000000pt" viewBox="0 0 800.000000 800.000000"
 preserveAspectRatio="xMidYMid meet">
<metadata>
Created by potrace 1.16, written by Peter Selinger 2001-2019
</metadata>
<g transform="translate(0.000000,800.000000) scale(0.100000,-0.100000)"
fill="#000000" stroke="none">
<path d="M0 4000 l0 -4000 1165 0 1165 0 0 78 c0 89 12 140 46 193 13 21 24
50 24 65 0 25 -2 26 -42 21 -24 -2 -53 -8 -65 -12 -13 -4 -23 -3 -23 2 0 13
61 33 102 33 l35 0 -5 103 c-2 56 -6 104 -8 106 -2 2 -12 -3 -21 -11 -22 -19
-83 -40 -83 -28 0 4 12 12 28 18 15 5 38 18 51 29 23 19 24 23 13 60 -8 25
-29 56 -57 82 -25 23 -45 44 -45 46 0 3 10 5 23 5 15 0 32 -15 53 -48 46 -69
55 -104 61 -240 l6 -122 28 0 c19 0 29 5 29 15 0 8 5 15 10 15 6 0 10 -7 10
-15 0 -13 48 -15 374 -15 l375 0 4 23 4 22 2 -22 c1 -22 5 -23 95 -23 90 0 95
1 99 23 l4 22 2 -22 c1 -21 6 -23 66 -23 l65 0 -2 198 -3 197 -180 2 c-99 1
-202 3 -229 3 -27 0 -47 3 -43 6 3 4 188 6 409 5 222 0 411 2 421 5 15 5 17
19 17 99 0 89 -1 94 -22 98 l-23 4 23 2 c21 1 22 5 22 74 0 43 -5 78 -12 85
-7 7 -35 12 -63 12 -36 0 -46 3 -35 10 8 5 28 10 44 10 25 0 27 3 22 25 -4 15
1 35 13 55 10 18 16 40 14 51 -3 11 0 19 7 19 23 0 3 119 -26 153 -27 32 -29
48 -13 79 9 17 8 24 -6 34 -15 11 -14 13 12 16 l28 4 -26 13 c-29 14 -32 37
-8 52 22 14 29 11 29 -11 0 -17 2 -18 13 -8 8 7 12 20 9 30 -6 24 15 48 35 41
8 -3 19 0 24 8 13 21 11 29 -8 29 -12 0 -14 3 -6 8 6 4 13 23 16 42 l4 35 1
-37 c2 -42 8 -44 66 -24 48 17 69 42 56 67 -6 10 -10 52 -10 93 0 44 -4 76
-10 76 -5 0 -10 6 -10 14 0 8 -8 21 -17 28 -13 9 -18 27 -18 58 0 36 -4 45
-19 48 -14 3 -17 0 -13 -12 4 -9 2 -16 -3 -16 -6 0 -10 7 -10 15 0 8 -4 15
-10 15 -5 0 -10 9 -10 20 0 19 -14 25 -53 22 -10 -1 -16 2 -12 8 6 10 -70 -11
-164 -46 -56 -21 -80 -24 -207 -24 l-144 0 -1 -487 c-1 -269 -3 -480 -6 -470
-6 22 -23 22 -23 1 0 -14 -8 -16 -57 -10 -66 8 -68 9 -58 33 5 12 9 14 12 6 3
-7 13 -13 24 -13 10 0 19 -4 19 -10 0 -5 5 -10 11 -10 5 0 8 4 4 9 -3 5 11 15
30 22 29 11 35 18 35 42 0 24 -3 27 -20 22 -11 -4 -20 -2 -20 4 0 6 -9 11 -20
11 -13 0 -20 -7 -20 -20 0 -11 -4 -20 -9 -20 -5 0 -16 -3 -25 -6 -9 -3 -16 -2
-16 4 0 5 9 12 20 15 29 8 24 27 -7 27 -14 0 -24 3 -20 6 3 3 35 6 71 5 l66
-1 0 420 0 420 -65 0 -64 0 -4 -142 -3 -143 -2 143 -2 142 -65 0 -64 0 -4
-142 c-1 -79 -3 -10 -3 152 0 162 2 231 3 153 l4 -143 64 0 64 0 1 267 c0 148
-3 330 -6 405 l-7 137 -41 4 c-23 2 12 4 76 5 138 2 127 15 131 -143 l2 -100
42 -3 c22 -2 56 1 74 5 26 7 37 5 50 -8 15 -15 32 -17 116 -12 140 7 170 16
187 57 8 19 21 38 28 42 18 11 29 52 17 60 -6 3 -8 11 -6 17 3 7 -7 24 -21 40
-14 15 -21 27 -16 27 6 0 23 -13 39 -30 16 -17 39 -30 51 -30 18 0 21 -4 17
-21 -3 -11 -12 -23 -19 -26 -8 -3 -14 -11 -14 -17 0 -7 -11 -27 -24 -45 -14
-18 -22 -39 -19 -47 3 -8 0 -14 -6 -14 -6 0 -11 5 -11 12 0 9 -3 9 -11 1 -8
-8 -7 -23 4 -55 l15 -43 2 35 c1 19 4 28 7 20 3 -8 9 -17 13 -20 4 -3 5 -23 1
-45 -5 -34 -10 -40 -33 -43 -33 -4 -46 -48 -17 -57 11 -4 19 -15 19 -26 0 -10
4 -19 8 -19 11 0 35 -68 27 -79 -6 -11 15 -62 30 -73 6 -5 3 -8 -7 -8 -14 0
-18 -8 -18 -34 0 -36 12 -46 56 -46 13 0 24 -4 24 -10 0 -5 -12 -10 -27 -10
-24 -1 -25 -2 -10 -11 9 -5 17 -16 17 -24 0 -8 15 -18 33 -23 29 -7 33 -13 42
-59 10 -52 37 -93 62 -93 7 0 13 -4 13 -10 0 -5 -5 -10 -11 -10 -8 0 -10 -28
-6 -92 7 -118 0 -134 -58 -149 -45 -11 -85 -47 -85 -75 0 -8 -6 -14 -14 -14
-7 0 -19 -15 -27 -33 -7 -17 -15 -34 -18 -37 -3 -3 -14 -20 -23 -38 -19 -36
-15 -54 24 -119 27 -44 35 -97 18 -118 -8 -10 -10 -28 -5 -51 5 -30 4 -36 -8
-31 -10 4 -19 -4 -27 -23 -19 -46 -7 -53 74 -46 117 11 106 -12 106 222 0 129
4 204 10 204 6 0 10 -75 10 -205 l0 -204 30 6 c18 3 30 1 30 -5 0 -5 -39 -15
-87 -22 -104 -15 -173 -27 -155 -29 6 -1 12 -8 12 -16 0 -11 11 -15 40 -15 43
0 50 -11 24 -45 -10 -14 -17 -16 -22 -8 -13 21 -27 0 -30 -45 -3 -37 -1 -42
17 -42 12 0 21 -4 21 -10 0 -5 -9 -10 -20 -10 -16 0 -20 -7 -20 -35 0 -38 2
-40 31 -24 11 6 25 8 32 6 7 -3 -3 -10 -21 -17 l-33 -12 4 -132 c2 -72 9 -150
17 -173 12 -39 14 -41 45 -36 19 3 35 0 39 -6 4 -6 16 -11 27 -11 10 0 19 -4
19 -10 0 -13 -47 -13 -55 0 -3 5 -20 10 -36 10 -27 0 -29 -2 -23 -27 4 -16 11
-39 16 -52 8 -23 2 -34 -24 -43 -4 -2 -5 -13 -2 -26 5 -16 16 -24 45 -28 22
-4 39 -10 39 -13 0 -4 -16 -22 -35 -41 -34 -33 -45 -60 -25 -60 6 0 10 -4 10
-10 0 -5 -12 -7 -27 -4 -21 4 -31 0 -40 -14 -10 -17 -6 -30 30 -86 37 -58 46
-66 73 -66 18 0 38 -8 49 -20 23 -26 70 -28 60 -2 -14 34 -17 52 -8 52 5 0 15
-16 22 -35 9 -27 18 -35 37 -35 30 0 32 -17 2 -23 -20 -4 -19 -4 5 -6 18 -1
27 4 27 14 0 8 5 15 10 15 6 0 10 -7 10 -15 0 -12 18 -15 105 -15 58 0 105 2
105 4 0 2 -7 23 -16 47 -21 55 -34 489 -15 489 10 0 18 -106 13 -160 -5 -50
-3 -240 2 -258 7 -20 14 -22 91 -22 78 0 83 1 88 23 3 12 6 175 6 362 l2 340
26 40 c15 22 28 34 30 28 3 -7 -7 -28 -22 -47 l-26 -34 2 -354 c1 -244 5 -357
13 -367 8 -11 8 -15 -2 -18 -7 -3 -12 -20 -11 -41 0 -21 3 -32 5 -25 4 9 13 9
30 2 14 -5 70 -9 125 -9 l99 0 0 95 c0 57 4 95 10 95 6 0 10 -38 10 -95 l0
-95 103 0 c93 1 100 2 77 15 -14 8 -19 14 -12 15 6 0 12 7 12 15 0 13 3 13 20
3 13 -8 19 -20 16 -30 -4 -17 10 -18 182 -17 173 0 185 1 165 16 -26 18 -30
33 -8 33 7 0 18 8 24 17 14 25 25 9 11 -16 -9 -18 -7 -22 15 -31 34 -13 35
-13 35 5 0 8 5 15 11 15 6 0 9 -9 6 -20 -4 -17 0 -20 33 -20 35 0 40 3 50 34
12 36 46 74 57 63 3 -4 -3 -17 -14 -30 -11 -12 -24 -32 -28 -45 -6 -22 -5 -23
42 -20 32 2 47 7 45 16 -1 6 5 12 14 12 10 0 14 -6 10 -15 -5 -13 118 -15
1069 -15 l1075 0 0 232 0 231 -32 29 c-23 21 -27 28 -14 28 9 0 19 -7 22 -15
4 -8 10 -15 15 -15 5 0 9 759 9 1761 0 1157 -4 1758 -10 1754 -12 -7 -14 8 -2
19 11 11 9 90 -3 98 -6 5 -5 8 3 8 18 0 16 75 -3 90 -8 7 -15 17 -15 22 0 6 7
5 15 -2 13 -11 15 -3 15 63 0 51 -4 77 -12 80 -10 3 -10 7 -1 19 18 21 18 652
0 642 -7 -4 -24 -16 -39 -26 -16 -11 -28 -15 -28 -10 0 11 40 47 63 55 16 6
17 85 17 1472 l0 1465 -1680 0 c-924 0 -1680 -3 -1680 -7 0 -12 42 -148 55
-178 16 -37 13 -172 -5 -188 -10 -10 -11 7 -5 76 5 65 4 92 -6 103 -7 8 -16
32 -20 52 -6 33 -8 34 -14 15 -4 -13 -14 -23 -21 -23 -12 0 -12 4 1 23 8 13
12 27 8 32 -5 4 -2 5 5 1 15 -9 15 -9 -4 47 l-16 47 -70 0 c-65 0 -71 -2 -95
-31 -22 -26 -32 -30 -64 -27 -20 2 -35 0 -33 -4 3 -5 18 -8 35 -8 16 0 29 -4
29 -10 0 -5 -17 -10 -39 -10 -33 0 -39 3 -43 25 -4 18 -1 25 11 25 10 0 17 8
17 20 0 17 -7 20 -49 20 l-49 0 17 -26 c10 -15 37 -90 61 -167 24 -77 50 -150
59 -163 10 -15 11 -24 4 -24 -8 0 -10 -58 -9 -197 1 -109 2 -249 1 -310 l-1
-113 -34 0 c-40 0 -39 2 -57 -119 -9 -62 -9 -86 -1 -89 7 -2 4 -21 -9 -55 -19
-48 -58 -262 -74 -403 -4 -33 -11 -67 -16 -75 -15 -24 -11 23 21 226 16 105
30 193 30 198 0 20 -105 -66 -140 -114 -22 -30 -44 -58 -50 -64 -51 -46 -182
-179 -213 -216 -59 -73 -100 -219 -62 -219 8 0 15 -4 15 -10 0 -5 -7 -10 -15
-10 -20 0 -29 -40 -29 -140 -1 -47 -3 -87 -6 -90 -3 -3 -15 -27 -28 -53 l-22
-49 47 2 c74 3 85 1 77 -11 -4 -7 -29 -10 -66 -7 -50 4 -61 2 -69 -14 -6 -10
-7 -27 -4 -37 3 -11 0 -21 -9 -24 -8 -3 -13 -14 -11 -24 2 -10 4 -55 4 -100 1
-76 3 -83 21 -83 11 0 20 4 20 9 0 20 48 40 84 34 30 -5 36 -10 36 -29 0 -15
-6 -24 -15 -24 -8 0 -15 5 -15 10 0 17 -30 11 -52 -10 -12 -11 -32 -20 -45
-20 -30 0 -34 -12 -25 -79 l7 -54 103 2 c66 1 102 -2 102 -8 0 -7 -36 -11
-100 -11 -79 0 -100 -3 -100 -14 0 -14 44 -56 78 -75 15 -8 14 -11 -8 -30 -14
-11 -35 -20 -48 -21 -29 0 -41 -29 -19 -45 20 -14 57 -98 57 -129 0 -12 -5
-27 -12 -34 -15 -15 -48 -16 -48 -2 0 6 9 10 20 10 25 0 26 28 3 93 -11 31
-23 47 -34 47 -14 0 -17 10 -16 63 0 54 2 58 11 35 11 -31 37 -36 56 -13 11
13 8 21 -18 48 -18 18 -32 40 -32 49 0 22 -20 34 -30 17 -7 -10 -14 -10 -32
-2 l-23 12 28 0 c21 1 27 6 28 24 2 87 1 114 -6 130 -4 10 -2 23 5 32 8 10 9
15 2 15 -7 0 -10 21 -8 58 1 31 -1 67 -5 79 -5 14 -4 23 4 27 9 3 8 7 -2 14
-8 6 -11 17 -7 28 6 16 8 16 16 4 8 -12 10 -11 10 6 0 11 -6 26 -12 33 -10 11
-10 12 -1 7 8 -5 19 6 30 31 10 21 21 40 26 41 4 2 7 12 7 22 0 10 4 22 10 25
5 3 7 19 3 35 -3 19 -1 30 6 30 6 0 11 7 11 16 0 8 -4 12 -10 9 -6 -3 -10 4
-10 17 0 17 3 19 9 10 5 -9 11 4 15 40 27 233 30 243 114 343 35 41 61 79 58
84 -3 5 4 11 15 14 12 3 18 10 15 15 -3 6 6 15 22 20 37 15 82 56 131 124 25
34 67 72 102 95 44 29 59 44 60 63 1 14 2 39 3 55 0 17 4 32 7 35 11 10 47
276 42 315 -2 22 -27 162 -55 310 -45 244 -53 275 -84 326 -18 31 -45 68 -60
82 -15 15 -24 27 -20 27 4 0 -2 14 -14 30 -18 25 -29 30 -68 32 -45 1 -45 2
-9 5 30 3 37 8 33 19 -3 9 -6 18 -6 20 0 2 -34 4 -75 4 l-75 0 6 -27 c5 -22 4
-26 -6 -16 -7 6 -19 9 -27 6 -10 -4 -14 0 -11 13 4 23 -40 33 -54 12 -7 -10
-11 -10 -15 0 -4 9 -392 12 -1894 12 l-1889 0 0 -4000z m3750 3965 c-7 -9 -15
-13 -18 -10 -3 2 1 11 8 20 7 9 15 13 18 10 3 -2 -1 -11 -8 -20z m110 -60 c25
-35 51 -64 58 -65 7 0 12 -13 12 -29 0 -27 4 -30 38 -34 l37 -4 -42 -1 c-36
-2 -43 1 -43 17 0 10 -13 33 -29 50 -34 37 -94 131 -83 131 4 0 27 -29 52 -65z
m93 3 c27 2 47 -2 47 -8 0 -11 -71 -13 -107 -4 -13 4 -23 11 -23 16 0 6 7 7
18 2 9 -4 38 -7 65 -6z m125 -42 c-24 -18 -23 -36 2 -36 11 0 20 -4 20 -10 0
-5 -11 -10 -24 -10 -18 0 -25 7 -29 27 -5 29 6 43 33 43 12 -1 12 -3 -2 -14z
m-48 -5 c0 -4 -11 -6 -25 -3 -14 2 -25 6 -25 8 0 2 11 4 25 4 14 0 25 -4 25
-9z m110 -41 c0 -5 -4 -10 -10 -10 -5 0 -10 5 -10 10 0 6 5 10 10 10 6 0 10
-4 10 -10z m317 -196 c-3 -3 -12 -4 -19 -1 -8 3 -5 6 6 6 11 1 17 -2 13 -5z
m202 -40 c-19 -23 -18 -159 2 -204 20 -44 69 -202 69 -220 0 -26 -17 5 -39 69
-11 36 -21 76 -21 89 0 23 -24 51 -43 52 -4 0 -5 -11 -1 -25 5 -19 2 -25 -11
-25 -12 0 -15 5 -11 17 4 9 1 20 -5 24 -17 10 0 31 22 26 16 -4 18 -1 11 21
-4 15 -6 57 -6 95 2 64 14 97 36 97 6 0 4 -7 -3 -16z m1231 -220 c0 -8 -4 -12
-10 -9 -5 3 -10 13 -10 21 0 8 5 12 10 9 6 -3 10 -13 10 -21z m20 -60 c0 -8
-4 -12 -10 -9 -5 3 -10 13 -10 21 0 8 5 12 10 9 6 -3 10 -13 10 -21z m-1392
-259 c3 -159 1 -225 -7 -225 -8 0 -11 58 -11 189 0 103 -3 210 -6 237 -6 41
-4 47 7 36 11 -10 15 -63 17 -237z m1372 226 c0 -12 -20 -25 -27 -18 -7 7 6
27 18 27 5 0 9 -4 9 -9z m-7 -61 c3 -11 1 -20 -4 -20 -5 0 -9 9 -9 20 0 11 2
20 4 20 2 0 6 -9 9 -20z m-1446 -267 c-1 -54 -3 -12 -3 92 0 105 2 149 3 98 2
-51 2 -136 0 -190z m1439 190 c-11 -11 -17 4 -9 23 7 18 8 18 11 1 2 -10 1
-21 -2 -24z m-1146 -3 c0 -5 -4 -10 -10 -10 -5 0 -10 5 -10 10 0 6 5 10 10 10
6 0 10 -4 10 -10z m1140 -40 c0 -11 -4 -20 -10 -20 -5 0 -10 9 -10 20 0 11 5
20 10 20 6 0 10 -9 10 -20z m-1115 -34 c4 -25 13 -47 21 -50 15 -6 20 -26 7
-26 -26 1 -69 120 -45 120 6 0 14 -20 17 -44z m1115 -26 c0 -11 -4 -20 -10
-20 -5 0 -10 9 -10 20 0 11 5 20 10 20 6 0 10 -9 10 -20z m0 -65 c0 -14 -4
-25 -10 -25 -5 0 -10 11 -10 25 0 14 5 25 10 25 6 0 10 -11 10 -25z m-1080
-31 c0 -42 24 -105 38 -99 7 3 11 1 9 -3 -2 -4 -7 -15 -11 -26 -9 -27 -36 -2
-36 35 0 16 -4 29 -10 29 -5 0 -10 23 -10 51 0 31 4 48 10 44 6 -3 10 -17 10
-31z m-35 -4 c-3 -5 -13 -10 -21 -10 -8 0 -14 5 -14 10 0 6 9 10 21 10 11 0
17 -4 14 -10z m-312 -147 c-7 -2 -19 -2 -25 0 -7 3 -2 5 12 5 14 0 19 -2 13
-5z m77 -63 c0 -40 -4 -70 -10 -70 -6 0 -10 30 -10 70 0 40 4 70 10 70 6 0 10
-30 10 -70z m45 -58 c-13 -13 -19 26 -15 88 2 28 4 23 11 -24 5 -33 7 -62 4
-64z m265 69 c0 -22 6 -42 13 -45 6 -3 3 -5 -8 -3 -16 2 -21 11 -23 45 -2 25
1 42 7 42 6 0 11 -18 11 -39z m-483 -93 c-2 -13 -4 -5 -4 17 -1 22 1 32 4 23
2 -10 2 -28 0 -40z m503 -2 c0 -5 -7 -3 -15 4 -8 7 -12 17 -9 22 7 10 24 -9
24 -26z m695 -5 c-3 -6 -11 -11 -17 -11 -6 0 -6 6 2 15 14 17 26 13 15 -4z
m-1025 -51 c0 -22 -4 -40 -10 -40 -5 0 -10 18 -10 40 0 22 5 40 10 40 6 0 10
-18 10 -40z m350 8 c0 -19 -2 -20 -10 -8 -13 19 -13 30 0 30 6 0 10 -10 10
-22z m630 7 c-7 -8 -17 -12 -22 -9 -6 4 -5 10 3 15 22 14 33 10 19 -6z m-45
-34 c-3 -6 -13 -11 -21 -11 -8 0 -14 -9 -14 -20 0 -19 -36 -47 -47 -36 -8 8 7
26 23 26 8 0 14 9 14 20 0 12 9 24 23 29 25 10 32 7 22 -8z m-565 -39 c0 -7
-4 -10 -10 -7 -5 3 -10 16 -10 28 0 18 2 19 10 7 5 -8 10 -21 10 -28z m-1006
-18 c9 -24 7 -28 -9 -14 -17 14 -20 30 -6 30 5 0 12 -7 15 -16z m43 5 c-14 -8
-22 -8 -30 0 -8 8 -3 11 19 11 25 -1 27 -2 11 -11z m73 -9 c0 -11 -4 -20 -10
-20 -5 0 -10 6 -10 14 0 8 -8 17 -17 19 -11 3 -7 5 10 6 21 1 27 -4 27 -19z
m585 -4 c17 -1 -14 -4 -68 -4 -54 -1 -96 1 -94 6 5 6 90 6 162 -2z m-458 -183
c-2 -37 -3 -9 -3 62 0 72 1 102 3 68 2 -34 2 -93 0 -130z m241 180 c-21 -2
-55 -2 -75 0 -21 2 -4 4 37 4 41 0 58 -2 38 -4z m542 -8 c14 -16 10 -18 -14
-9 -9 3 -16 10 -16 15 0 14 16 11 30 -6z m480 -16 c0 -5 -9 -9 -20 -9 -10 0
-28 -10 -40 -22 -12 -13 -20 -17 -20 -9 0 11 -3 11 -15 1 -9 -7 -18 -10 -21
-7 -9 9 6 27 22 27 9 0 22 6 29 14 15 15 65 19 65 5z m-1460 -19 c0 -5 -6 -10
-14 -10 -8 0 -18 5 -21 10 -3 6 3 10 14 10 12 0 21 -4 21 -10z m1030 -6 c0
-14 -3 -14 -15 -4 -8 7 -15 14 -15 16 0 2 7 4 15 4 8 0 15 -7 15 -16z m324
-46 c4 7 12 12 18 12 7 0 6 -5 -2 -15 -6 -8 -9 -18 -6 -24 9 -14 -25 -23 -40
-10 -10 8 -14 8 -14 0 0 -6 -9 -11 -20 -11 -11 0 -20 5 -20 10 0 6 9 10 19 10
11 0 23 5 26 10 3 6 1 10 -6 10 -8 0 -8 4 1 15 11 14 14 13 25 -1 8 -12 14
-14 19 -6z m-299 1 c11 -17 0 -20 -21 -4 -17 13 -17 14 -2 15 9 0 20 -5 23
-11z m68 -51 c21 -23 43 -52 47 -64 7 -16 14 -20 34 -17 15 3 26 1 26 -6 0 -6
-6 -11 -14 -11 -8 0 -21 -2 -28 -5 -9 -4 -19 4 -26 20 -6 14 -30 45 -52 69
-22 24 -40 46 -40 50 0 14 16 4 53 -36z m112 0 c-19 -11 -30 -5 -21 11 4 6 14
7 22 4 15 -5 14 -7 -1 -15z m-41 -3 c3 -8 1 -25 -5 -37 l-10 -23 5 23 c3 14
-1 22 -10 22 -8 0 -14 7 -14 15 0 19 26 19 34 0z m291 5 c3 -5 -1 -10 -9 -10
-8 0 -18 5 -21 10 -3 6 1 10 9 10 8 0 18 -4 21 -10z m695 -34 c0 -6 -7 -2 -15
8 -8 11 -15 25 -15 30 0 6 7 2 15 -8 8 -11 15 -25 15 -30z m-750 9 c-7 -8 -17
-15 -22 -15 -6 0 -5 7 2 15 7 8 17 15 22 15 6 0 5 -7 -2 -15z m110 5 c12 -8
11 -10 -7 -10 -13 0 -23 5 -23 10 0 13 11 13 30 0z m165 0 c-3 -5 -13 -10 -21
-10 -8 0 -12 5 -9 10 3 6 13 10 21 10 8 0 12 -4 9 -10z m-110 -11 c11 -17 2
-18 -19 -3 -17 12 -17 14 -4 14 9 0 20 -5 23 -11z m65 2 c0 -5 -9 -11 -20 -14
-22 -6 -28 8 -7 16 19 8 27 8 27 -2z m-330 -11 c0 -5 -9 -10 -20 -10 -11 0
-20 5 -20 10 0 6 9 10 20 10 11 0 20 -4 20 -10z m60 0 c0 -5 -9 -10 -20 -10
-11 0 -20 5 -20 10 0 6 9 10 20 10 11 0 20 -4 20 -10z m-130 -25 c-7 -9 -15
-13 -18 -10 -3 2 1 11 8 20 7 9 15 13 18 10 3 -2 -1 -11 -8 -20z m947 0 c9
-25 -4 -29 -17 -6 -7 15 -7 21 0 21 6 0 13 -7 17 -15z m-1218 -88 l11 -63 -83
-180 c-56 -122 -105 -211 -151 -277 -60 -83 -86 -112 -86 -92 0 3 31 48 70
102 50 69 92 147 150 275 l81 179 -11 56 c-12 68 -12 63 -1 63 5 0 14 -28 20
-63z m-372 -89 c-2 -29 -3 -8 -3 47 0 55 1 79 3 53 2 -26 2 -71 0 -100z m1623
114 c0 -15 -2 -15 -10 -2 -13 20 -13 33 0 25 6 -3 10 -14 10 -23z m-1069 -90
c-3 -52 -3 -96 1 -98 13 -8 8 -143 -6 -213 -14 -63 -15 -65 -154 -205 -109
-109 -141 -148 -144 -171 -2 -21 -9 -31 -23 -33 -11 -2 -50 -33 -87 -68 -36
-35 -71 -64 -77 -64 -5 0 -29 -28 -52 -61 -52 -77 -168 -204 -185 -203 -7 1
-15 -10 -19 -24 -3 -14 -17 -34 -31 -45 -14 -11 -30 -30 -34 -43 -5 -13 -14
-24 -20 -24 -19 0 0 43 32 73 32 31 45 66 40 110 -3 22 -8 27 -32 27 -23 0
-30 -5 -35 -30 -5 -23 -12 -30 -30 -30 -20 0 -23 6 -29 59 -7 65 -23 79 -72
67 -13 -4 -24 -2 -24 4 0 17 49 23 80 10 24 -10 30 -19 31 -44 1 -17 4 -42 8
-56 l7 -25 15 30 c12 26 20 30 54 30 39 0 40 -1 43 -37 2 -21 7 -38 12 -38 5
0 31 26 59 57 51 57 51 58 30 73 -19 15 -20 24 -17 92 l4 75 -49 28 -50 28
-44 -49 c-24 -27 -51 -59 -59 -71 -15 -22 -23 -23 -140 -23 -76 0 -124 4 -124
10 0 6 46 10 118 10 l118 0 62 71 c34 39 62 79 62 90 0 25 27 79 40 79 14 0
12 -12 -5 -34 -8 -11 -15 -31 -15 -45 0 -21 10 -32 54 -55 l53 -29 -4 -78 c-5
-69 -3 -78 15 -88 17 -9 25 -2 67 59 27 39 55 70 63 70 8 0 39 27 69 59 30 33
65 62 79 65 16 4 24 13 24 29 0 15 47 71 144 172 l144 150 15 76 c10 56 11 95
5 150 -8 67 -6 151 5 204 6 28 7 29 11 24 2 -2 1 -46 -3 -97z m1109 46 c0 -13
-23 -5 -28 10 -2 7 2 10 12 6 9 -3 16 -11 16 -16z m48 -36 c6 -18 -15 -14 -22
4 -4 10 -1 14 6 12 6 -2 14 -10 16 -16z m12 -53 c0 -5 -4 -9 -10 -9 -5 0 -10
7 -10 16 0 8 5 12 10 9 6 -3 10 -10 10 -16z m-1852 -23 c3 -3 -124 -6 -282 -6
-158 0 -285 3 -283 8 6 8 556 6 565 -2z m-679 -18 c0 -13 -3 -17 -6 -10 -2 6
-9 10 -14 7 -5 -4 -6 1 -3 9 9 24 24 19 23 -6z m2561 -4 c0 -8 -4 -14 -10 -14
-5 0 -10 9 -10 21 0 11 5 17 10 14 6 -3 10 -13 10 -21z m-2563 -66 c-3 -7 -5
-2 -5 12 0 14 2 19 5 13 2 -7 2 -19 0 -25z m2545 10 c-6 -6 -15 -8 -19 -4 -4
4 -1 11 7 16 19 12 27 3 12 -12z m-12 -38 c0 -5 -7 -10 -16 -10 -8 0 -12 5 -9
10 3 6 10 10 16 10 5 0 9 -4 9 -10z m-2424 -60 c22 0 24 -4 24 -41 0 -41 0
-41 -32 -35 -17 3 -32 7 -33 9 -1 1 1 27 4 57 3 30 7 45 9 33 2 -17 10 -23 28
-23z m2414 -4 c0 -5 -7 -3 -15 4 -8 7 -12 17 -9 22 7 10 24 -9 24 -26z m-2163
-37 c-1 -36 -4 -40 -23 -36 -20 3 -22 0 -22 -52 0 -31 5 -59 12 -63 6 -5 1 -8
-13 -8 -22 0 -23 3 -18 45 3 24 2 47 -4 50 -5 4 -6 11 -3 17 4 6 -1 8 -15 3
-11 -3 -21 -2 -21 3 0 5 9 12 21 15 12 3 18 10 14 16 -4 7 5 11 24 11 21 0 32
6 36 20 10 31 14 24 12 -21z m2147 22 c3 -5 -1 -11 -9 -15 -9 -3 -15 0 -15 9
0 16 16 20 24 6z m46 -21 c0 -5 -10 -10 -22 -9 -22 0 -22 1 -3 9 11 5 21 9 23
9 1 1 2 -3 2 -9z m50 0 c8 -5 12 -12 9 -15 -8 -8 -39 5 -39 16 0 11 11 11 30
-1z m65 -10 c-3 -5 -13 -10 -21 -10 -8 0 -14 5 -14 10 0 6 9 10 21 10 11 0 17
-4 14 -10z m45 -32 c0 -6 -7 -5 -15 2 -8 7 -15 17 -15 22 0 6 7 5 15 -2 8 -7
15 -17 15 -22z m60 8 c0 -2 -9 -6 -20 -9 -11 -3 -20 -1 -20 4 0 5 9 9 20 9 11
0 20 -2 20 -4z m39 -19 c6 -8 8 -17 4 -20 -7 -8 -33 11 -33 24 0 13 16 11 29
-4z m41 -52 c7 -8 8 -15 2 -15 -5 0 -15 7 -22 15 -7 8 -8 15 -2 15 5 0 15 -7
22 -15z m38 -48 c5 -24 -15 -21 -21 4 -3 13 -1 19 6 16 7 -2 13 -11 15 -20z
m-1410 -31 c-13 -14 -28 -12 -28 5 0 5 9 9 20 9 17 0 19 -2 8 -14z m1422 -26
c0 -11 -2 -20 -4 -20 -2 0 -6 9 -9 20 -3 11 -1 20 4 20 5 0 9 -9 9 -20z
m-1377 -11 c4 -16 1 -20 -15 -17 -12 2 -22 11 -24 21 -3 25 32 22 39 -4z
m-1353 1 c0 -5 -11 -10 -25 -10 -14 0 -25 5 -25 10 0 6 11 10 25 10 14 0 25
-4 25 -10z m120 0 c0 -5 -22 -10 -50 -10 -27 0 -50 5 -50 10 0 6 23 10 50 10
28 0 50 -4 50 -10z m40 0 c0 -5 -7 -10 -15 -10 -8 0 -15 5 -15 10 0 6 7 10 15
10 8 0 15 -4 15 -10z m3190 -20 c-8 -5 -17 -7 -19 -4 -3 3 1 9 9 14 8 5 17 7
19 4 3 -3 -1 -9 -9 -14z m-597 -7 c-7 -2 -19 -2 -25 0 -7 3 -2 5 12 5 14 0 19
-2 13 -5z m57 -8 c14 -16 10 -18 -14 -9 -9 3 -16 10 -16 15 0 14 16 11 30 -6z
m598 -3 c2 -7 -2 -10 -12 -6 -9 3 -16 11 -16 16 0 13 23 5 28 -10z m-110 -6
c-7 -8 -16 -12 -21 -9 -11 7 2 23 19 23 12 0 12 -2 2 -14z m-1938 -3 c0 -5 -5
-15 -10 -23 -8 -12 -10 -11 -10 8 0 12 5 22 10 22 6 0 10 -3 10 -7z m40 -18
c0 -8 -4 -15 -9 -15 -13 0 -22 16 -14 24 11 11 23 6 23 -9z m2065 5 c3 -5 -3
-10 -14 -10 -12 0 -21 5 -21 10 0 6 6 10 14 10 8 0 18 -4 21 -10z m-610 -11
c11 -17 -1 -21 -15 -4 -8 9 -8 15 -2 15 6 0 14 -5 17 -11z m670 1 c3 -5 -3
-10 -14 -10 -12 0 -21 5 -21 10 0 6 6 10 14 10 8 0 18 -4 21 -10z m-254 -33
c-8 -8 -11 -7 -11 4 0 9 3 19 7 23 4 4 9 2 11 -4 3 -7 -1 -17 -7 -23z m-3101
16 c0 -5 -5 -15 -10 -23 -8 -12 -10 -11 -10 8 0 12 5 22 10 22 6 0 10 -3 10
-7z m1260 -25 c0 -6 -7 -7 -16 -4 -9 3 -18 6 -20 6 -3 0 -3 4 1 10 7 11 35 2
35 -12z m1478 4 c2 -7 -2 -10 -12 -6 -9 3 -16 11 -16 16 0 13 23 5 28 -10z
m662 2 c0 -2 -9 -4 -21 -4 -11 0 -18 4 -14 10 5 8 35 3 35 -6z m60 -3 c0 -5
-9 -7 -20 -4 -11 3 -20 7 -20 9 0 2 9 4 20 4 11 0 20 -4 20 -9z m-2986 -46
c-11 -21 -37 -46 -63 -61 -60 -33 -77 -25 -19 10 26 15 56 43 68 63 27 46 39
35 14 -12z m2326 36 c0 -5 -9 -11 -20 -14 -22 -6 -28 8 -7 16 19 8 27 8 27 -2z
m26 -18 c-10 -10 -19 5 -10 18 6 11 8 11 12 0 2 -7 1 -15 -2 -18z m-1506 2 c0
-8 -4 -15 -9 -15 -5 0 -11 7 -15 15 -3 9 0 15 9 15 8 0 15 -7 15 -15z m1760 5
c0 -5 -7 -10 -15 -10 -8 0 -15 5 -15 10 0 6 7 10 15 10 8 0 15 -4 15 -10z
m433 3 c-7 -2 -19 -2 -25 0 -7 3 -2 5 12 5 14 0 19 -2 13 -5z m-2233 -12 c0
-11 -31 -24 -39 -16 -3 3 1 10 9 15 19 12 30 12 30 1z m1598 -27 c-10 -10 -28
6 -28 24 0 15 1 15 17 -1 9 -9 14 -19 11 -23z m-1439 -2 c-5 -2 -9 -12 -9 -23
0 -14 -7 -19 -27 -18 -24 2 -25 2 -5 6 12 2 20 9 17 14 -4 5 -3 18 0 29 5 16
9 17 20 7 7 -6 9 -13 4 -15z m40 14 c12 -15 5 -46 -11 -46 -5 0 -8 8 -6 18 1
9 -1 23 -5 30 -11 16 8 15 22 -2z m1441 -8 c0 -13 -23 -5 -28 10 -2 7 2 10 12
6 9 -3 16 -11 16 -16z m630 -9 c0 -4 -7 -6 -15 -3 -8 4 -15 10 -15 15 0 4 7 6
15 3 8 -4 15 -10 15 -15z m-510 1 c0 -5 -8 -10 -17 -10 -15 0 -16 2 -3 10 19
12 20 12 20 0z m-1716 -15 c3 -9 0 -15 -9 -15 -8 0 -15 7 -15 15 0 8 4 15 9
15 5 0 11 -7 15 -15z m1666 5 c0 -5 -11 -10 -25 -10 -14 0 -25 5 -25 10 0 6
11 10 25 10 14 0 25 -4 25 -10z m610 -6 c0 -14 -3 -14 -15 -4 -8 7 -15 14 -15
16 0 2 7 4 15 4 8 0 15 -7 15 -16z m-2076 -10 c9 -24 7 -28 -9 -14 -17 14 -20
30 -6 30 5 0 12 -7 15 -16z m-149 -24 c7 -22 -1 -40 -17 -40 -7 0 -6 6 2 15 7
9 8 15 2 15 -5 0 -12 7 -16 15 -3 9 0 15 9 15 7 0 16 -9 20 -20z m2265 0 c13
-8 13 -10 -2 -10 -9 0 -20 5 -23 10 -8 13 5 13 25 0z m-2164 -25 c-20 -14 -40
-25 -44 -25 -13 1 53 50 67 50 8 0 -3 -11 -23 -25z m2214 -17 c0 -6 -7 -5 -15
2 -8 7 -15 17 -15 22 0 6 7 5 15 -2 8 -7 15 -17 15 -22z m-2200 -20 c0 20 26
13 37 -11 10 -21 8 -22 -36 -24 -37 -1 -50 3 -59 18 -7 10 -8 19 -3 19 5 0 11
-7 15 -15 9 -25 35 -18 29 8 -4 18 -3 19 6 7 7 -10 11 -11 11 -2z m1057 -40
c-3 -7 -5 -2 -5 12 0 14 2 19 5 13 2 -7 2 -19 0 -25z m-2457 12 c0 -5 -4 -10
-10 -10 -5 0 -10 5 -10 10 0 6 5 10 10 10 6 0 10 -4 10 -10z m3610 -30 c0 -11
-4 -20 -10 -20 -5 0 -10 9 -10 20 0 11 5 20 10 20 6 0 10 -9 10 -20z m-2150
-10 c0 -11 -4 -20 -10 -20 -5 0 -10 9 -10 20 0 11 5 20 10 20 6 0 10 -9 10
-20z m-410 -20 c0 -5 -9 -10 -20 -10 -11 0 -20 5 -20 10 0 6 9 10 20 10 11 0
20 -4 20 -10z m2526 -27 c-11 -11 -17 4 -9 23 7 18 8 18 11 1 2 -10 1 -21 -2
-24z m-2471 17 c-3 -5 -12 -7 -20 -3 -21 7 -19 13 6 13 11 0 18 -4 14 -10z
m55 0 c12 -8 11 -10 -7 -10 -13 0 -23 5 -23 10 0 13 11 13 30 0z m297 -24 c0
-8 -8 -11 -20 -8 -14 4 -16 7 -5 13 19 12 25 11 25 -5z m-266 -25 c7 -18 6
-22 -5 -18 -7 3 -19 0 -25 -6 -6 -6 -14 -8 -18 -4 -3 4 2 14 13 22 11 8 14 15
7 15 -7 0 -13 5 -13 11 0 20 33 4 41 -20z m-1681 -1 c0 -11 -4 -20 -10 -20 -5
0 -10 9 -10 20 0 11 5 20 10 20 6 0 10 -9 10 -20z m1796 -16 c-15 -14 -31 -22
-35 -18 -3 4 0 9 7 11 7 3 18 11 25 19 7 7 17 13 22 13 6 0 -3 -11 -19 -25z
m89 16 c-3 -5 -12 -10 -18 -10 -7 0 -6 4 3 10 19 12 23 12 15 0z m2181 -27
c-11 -11 -17 4 -9 23 7 18 8 18 11 1 2 -10 1 -21 -2 -24z m-2371 -14 c3 6 11
11 18 11 7 0 5 -7 -5 -16 -20 -20 -48 -12 -48 13 1 17 1 17 14 0 9 -12 16 -14
21 -8z m55 -17 c0 -13 -12 -22 -22 -16 -10 6 -1 24 13 24 5 0 9 -4 9 -8z
m2310 -1 c0 -5 -7 -14 -15 -21 -16 -14 -18 -10 -9 14 6 17 24 22 24 7z m-30
-62 c0 -11 -4 -18 -10 -14 -5 3 -7 12 -3 20 7 21 13 19 13 -6z m-3614 -31 c-3
-17 -9 -62 -13 -100 -3 -37 -10 -68 -16 -68 -10 0 -3 153 9 184 11 29 27 17
20 -16z m3629 -18 c3 -5 -3 -10 -14 -10 -12 0 -21 5 -21 10 0 6 6 10 14 10 8
0 18 -4 21 -10z m49 -10 c-10 -4 -21 -6 -24 -3 -8 7 24 22 34 16 5 -4 1 -10
-10 -13z m51 11 c3 -5 1 -12 -4 -15 -5 -3 -11 1 -15 9 -6 16 9 21 19 6z m35
-31 c-8 -5 -18 -6 -24 -3 -5 4 -1 10 10 13 24 9 34 2 14 -10z m-1223 -12 c-3
-8 -6 -5 -6 6 -1 11 2 17 5 13 3 -3 4 -12 1 -19z m1263 -3 c0 -8 -4 -15 -9
-15 -13 0 -22 16 -14 24 11 11 23 6 23 -9z m20 -45 c0 -11 -4 -20 -10 -20 -5
0 -10 9 -10 20 0 11 5 20 10 20 6 0 10 -9 10 -20z m30 -30 c0 -5 -10 -10 -22
-10 -19 0 -20 2 -8 10 19 13 30 13 30 0z m30 -38 c0 -15 -2 -15 -10 -2 -13 20
-13 33 0 25 6 -3 10 -14 10 -23z m-4277 -50 c-3 -24 -10 -39 -14 -35 -5 5 -3
25 3 46 14 47 18 43 11 -11z m377 24 c0 -29 -41 -146 -51 -146 -6 0 -8 6 -6
13 3 6 13 42 23 80 17 61 34 88 34 53z m180 -42 c0 -8 -4 -14 -10 -14 -5 0
-10 9 -10 21 0 11 5 17 10 14 6 -3 10 -13 10 -21z m1693 -25 c-6 -6 -7 3 -4
23 4 28 6 29 9 9 2 -13 0 -27 -5 -32z m-2283 -44 c0 -8 -5 -15 -10 -15 -7 0
-7 -6 0 -19 15 -28 13 -38 -9 -44 -21 -5 -49 8 -39 19 4 3 1 19 -7 35 -8 15
-15 34 -15 41 0 21 20 -6 36 -48 l14 -39 -6 53 c-6 52 -6 54 15 43 12 -7 21
-18 21 -26z m593 15 c3 -11 1 -20 -4 -20 -5 0 -9 9 -9 20 0 11 2 20 4 20 2 0
6 -9 9 -20z m-7 -77 c-11 -11 -17 4 -9 23 7 18 8 18 11 1 2 -10 1 -21 -2 -24z
m-726 5 c0 -18 -2 -20 -9 -8 -6 8 -7 18 -5 22 9 14 14 9 14 -14z m157 0 c-3
-8 -6 -5 -6 6 -1 11 2 17 5 13 3 -3 4 -12 1 -19z m-643 -150 c-6 -158 -8 -177
-19 -166 -9 9 8 328 17 328 6 0 6 -67 2 -162z m4304 120 c-2 -6 -10 -14 -16
-16 -7 -2 -10 2 -6 12 7 18 28 22 22 4z m-3599 -41 c70 -62 76 -84 41 -150
-23 -43 -24 -57 -9 -127 l11 -50 64 0 64 0 2 108 2 107 3 -107 4 -108 54 0
c30 0 55 5 55 10 0 6 5 10 10 10 6 0 10 -37 10 -91 0 -85 1 -91 22 -97 l22 -5
-22 -8 c-19 -7 -22 -16 -22 -59 l0 -50 55 0 55 0 0 50 c0 28 5 50 10 50 6 0
10 -22 10 -49 0 -30 5 -52 13 -55 10 -5 10 -7 0 -12 -21 -10 -14 -34 10 -35
l22 -2 -22 -4 c-13 -2 -23 -11 -23 -20 0 -13 8 -15 46 -9 26 3 60 6 75 6 26 0
29 4 29 30 0 30 -1 30 -55 30 -30 0 -55 5 -55 10 0 6 25 10 56 10 l55 0 -3 53
c-3 44 -6 52 -23 52 -17 0 -21 9 -26 60 -12 107 -42 164 -151 282 -97 106
-131 149 -110 142 24 -9 254 -273 341 -391 83 -114 96 -127 117 -122 20 5 24
2 24 -15 0 -12 5 -21 10 -21 16 0 11 -24 -8 -41 -22 -19 -52 -20 -52 -2 0 7
-7 13 -15 13 -18 0 -18 5 -5 30 8 15 -3 36 -61 114 -39 53 -72 96 -74 96 -10
0 11 -48 27 -61 18 -14 20 -28 19 -142 l0 -127 55 0 c36 0 54 4 54 13 0 9 29
11 120 9 l120 -4 0 31 c0 17 5 31 10 31 6 0 10 -13 10 -30 l0 -30 140 0 c87 0
140 -4 140 -10 0 -6 -47 -10 -120 -10 -89 0 -120 -3 -121 -12 0 -10 -2 -10 -6
0 -6 15 -143 17 -143 2 0 -6 -50 -10 -130 -10 -118 0 -150 -7 -120 -25 5 -3
33 -6 62 -7 45 0 50 -2 35 -13 -9 -7 -17 -24 -17 -39 0 -25 3 -26 50 -26 l50
0 0 40 c0 22 5 40 10 40 6 0 10 -18 10 -40 l0 -40 160 0 c121 0 160 3 161 13
0 10 2 10 6 0 2 -7 11 -13 18 -13 7 0 16 6 19 13 5 10 7 10 12 0 3 -7 14 -13
25 -13 16 0 19 7 19 40 0 73 16 41 19 -37 1 -46 7 -81 14 -86 9 -7 9 -10 0
-14 -7 -2 -13 -13 -13 -24 0 -10 -4 -19 -10 -19 -5 0 -10 9 -10 20 0 17 -7 20
-50 20 -27 0 -50 5 -50 10 0 6 23 10 50 10 49 0 50 1 50 30 l0 30 -210 0
c-133 0 -210 -4 -210 -10 0 -6 62 -10 165 -10 103 0 165 -4 165 -10 0 -6 -62
-10 -166 -10 l-165 0 3 -32 3 -33 85 -5 85 -4 -85 -6 -85 -5 -2 -52 -1 -53 94
0 c87 0 94 1 94 20 0 11 5 20 10 20 6 0 10 -9 10 -20 0 -19 7 -20 95 -20 l95
0 0 40 c0 22 5 40 10 40 6 0 10 -20 10 -44 0 -49 8 -56 71 -56 l39 0 0 76 c0
52 4 80 14 90 11 10 17 11 22 3 4 -7 -1 -16 -10 -21 -12 -7 -16 -24 -16 -78
l0 -70 100 0 100 0 -12 28 c-7 15 -21 38 -32 51 -21 23 -21 23 -1 18 16 -5 29
5 60 48 36 48 55 66 55 49 0 -11 -23 -49 -34 -56 -7 -4 -3 -15 12 -31 12 -13
22 -35 22 -50 0 -15 4 -27 9 -27 5 0 17 -3 26 -6 13 -5 15 -2 9 20 -5 20 -2
26 10 26 15 0 21 -16 18 -52 -1 -12 6 -18 21 -19 12 -1 52 -3 89 -5 54 -3 66
-1 62 10 -3 8 -16 17 -30 20 -49 13 -23 26 46 24 39 -1 70 -5 70 -10 0 -4 -9
-8 -19 -8 -11 0 -22 -3 -25 -8 -2 -4 13 -6 35 -4 24 3 39 0 39 -7 0 -6 -13
-11 -29 -11 -16 0 -34 -6 -40 -14 -10 -12 -43 -14 -193 -9 -148 5 -182 4 -190
-8 -7 -11 -11 -11 -15 -1 -3 8 -30 12 -84 12 -56 0 -79 -4 -79 -12 0 -10 -2
-10 -8 0 -19 29 -32 -41 -32 -168 l0 -130 45 0 45 0 0 -102 1 -103 60 -37 c33
-21 67 -38 74 -38 12 0 15 23 15 130 l0 130 -40 0 c-22 0 -40 5 -40 10 0 6 18
10 40 10 l40 0 0 109 0 109 35 6 c19 4 39 15 45 26 12 22 44 16 36 -6 -3 -8
-1 -14 4 -14 6 0 10 -12 10 -27 -1 -25 -2 -26 -14 -10 -14 18 -36 23 -36 7 0
-5 -13 -7 -30 -3 l-30 6 0 -102 0 -101 30 0 30 0 0 75 c0 41 4 75 9 75 4 0 10
-70 13 -157 l5 -156 34 -31 c19 -17 50 -43 69 -58 19 -15 31 -30 27 -34 -3 -4
-32 15 -64 41 l-58 47 -3 -56 c-5 -95 -22 -63 -22 43 0 54 -3 119 -6 145 -6
43 -9 46 -35 46 -16 0 -29 -6 -30 -12 0 -7 -2 -42 -4 -78 -2 -36 -4 -93 -4
-127 -1 -56 -3 -63 -21 -63 -13 0 -20 -7 -20 -20 0 -16 20 -29 88 -61 73 -34
94 -40 130 -35 24 3 42 2 42 -4 0 -16 -105 -12 -136 5 -16 8 -37 15 -46 15
-10 0 -18 4 -18 8 0 4 -13 13 -30 19 -29 11 -30 10 -30 -18 l0 -29 -152 2
c-91 1 -120 3 -70 5 l82 4 0 58 0 58 -61 12 c-68 14 -99 29 -99 48 0 14 -48
18 -66 5 -7 -4 -13 -16 -15 -27 -4 -16 -13 -20 -52 -21 -48 -1 -63 9 -27 19
11 3 20 10 20 17 0 9 -26 11 -95 8 -52 -1 -95 0 -95 3 0 10 103 21 176 18 54
-2 69 1 79 15 7 9 19 16 27 15 36 -4 38 1 38 81 l0 80 -115 0 -115 0 0 -80 c0
-47 -4 -80 -10 -80 -6 0 -10 33 -10 80 l0 80 -40 0 -40 0 0 75 0 75 -35 0 -35
0 0 -145 c0 -90 -4 -145 -10 -145 -6 0 -10 35 -10 85 0 77 -10 106 -23 73 -4
-10 -8 -9 -16 2 -16 22 -7 35 20 33 23 -3 24 -1 21 47 l-4 50 -39 0 c-21 0
-39 5 -39 10 0 6 20 10 45 10 l45 0 2 63 2 62 3 -62 4 -63 34 0 35 0 0 78 0
77 37 0 c20 0 38 6 40 13 4 9 -15 12 -71 12 -72 0 -76 -1 -77 -22 l-2 -23 -4
23 c-4 20 -10 22 -59 22 l-54 0 0 -170 c0 -141 2 -168 14 -164 8 3 17 1 21 -5
3 -7 -2 -11 -14 -11 -19 0 -21 -6 -21 -70 0 -40 -4 -70 -10 -70 -5 0 -10 23
-10 50 0 45 -2 50 -22 51 l-23 2 23 4 c12 2 22 11 22 19 0 12 -34 14 -227 12
l-227 -3 -12 -49 c-7 -27 -17 -53 -23 -59 -6 -6 -7 -17 -2 -26 8 -14 -3 -16
-107 -14 -65 2 -126 5 -137 7 -11 2 -26 5 -32 5 -9 1 -13 21 -13 66 l0 65 -90
0 -89 0 -7 -60 c-4 -33 -10 -62 -14 -65 -3 -2 -37 3 -73 12 -63 15 -67 18 -67
44 l0 28 -132 4 -133 3 138 2 137 2 0 -25 c0 -20 7 -26 38 -34 87 -21 79 -26
91 56 6 40 11 119 11 173 l0 100 -180 0 c-113 0 -180 4 -180 10 0 6 67 10 180
10 l180 0 0 35 c0 32 2 35 30 35 17 0 33 6 36 14 9 24 57 38 88 26 15 -5 47
-10 72 -10 l44 0 0 85 0 85 -40 -20 c-35 -18 -58 -20 -230 -20 l-190 0 0 -85
c0 -50 -4 -85 -10 -85 -6 0 -10 35 -10 85 l0 85 -38 0 c-29 0 -45 -7 -67 -30
-39 -41 -85 -54 -167 -47 l-68 6 0 -62 c0 -111 12 -197 26 -197 10 0 14 -14
14 -45 0 -36 4 -47 25 -61 18 -12 25 -25 25 -49 0 -18 4 -35 8 -37 5 -1 7 -22
4 -45 -3 -34 -8 -42 -28 -47 -47 -12 -419 -9 -442 3 -18 10 -22 20 -22 61 l0
50 -40 0 c-22 0 -40 3 -40 8 0 4 18 6 40 4 l40 -4 0 76 c0 44 4 76 10 76 6 0
10 -32 10 -75 l0 -75 110 0 110 0 0 80 c0 73 2 80 19 80 11 0 23 -4 26 -10 3
-5 -1 -10 -9 -10 -13 0 -16 -13 -16 -70 l0 -70 100 0 c108 0 118 6 75 46 -18
16 -25 34 -25 59 0 23 -5 35 -14 35 -11 0 -15 31 -21 140 l-7 140 -41 0 c-22
0 -38 2 -35 5 3 3 66 7 141 8 l136 2 34 33 33 32 240 1 c231 2 241 2 287 26
l48 24 -3 92 -3 92 -59 3 c-37 2 -73 -3 -99 -13 -34 -14 -39 -14 -34 -1 3 8 2
16 -4 18 -6 2 -8 138 -6 358 1 216 6 346 11 332 7 -20 14 -23 40 -19 17 3 51
2 76 -3 41 -7 39 -8 -32 -9 l-78 -1 0 -195 0 -195 95 0 95 0 0 60 c0 58 1 60
26 60 26 0 26 1 19 48 -14 83 -12 111 7 132 11 12 18 34 18 59 0 34 -4 43 -27
55 -16 8 -33 29 -40 47 -11 30 -11 32 2 14 8 -11 18 -24 24 -28z m509 24 c3
-8 -1 -12 -9 -9 -7 2 -15 10 -17 17 -3 8 1 12 9 9 7 -2 15 -10 17 -17z m-573
-1 c3 -6 -1 -7 -9 -4 -18 7 -21 14 -7 14 6 0 13 -4 16 -10z m615 -30 c8 -5 12
-12 9 -15 -8 -8 -39 5 -39 16 0 11 11 11 30 -1z m3040 -10 c0 -11 -4 -20 -10
-20 -5 0 -10 9 -10 20 0 11 5 20 10 20 6 0 10 -9 10 -20z m-2995 -21 c11 -17
-1 -21 -15 -4 -8 9 -8 15 -2 15 6 0 14 -5 17 -11z m3175 -14 c0 -16 -6 -25
-15 -25 -8 0 -18 0 -22 -1 -4 0 -9 5 -12 12 -2 8 2 10 13 6 11 -5 16 -1 16 13
0 11 5 20 10 20 6 0 10 -11 10 -25z m-3060 -14 c0 -6 -4 -13 -10 -16 -5 -3
-10 1 -10 9 0 9 5 16 10 16 6 0 10 -4 10 -9z m32 -14 c3 -13 1 -32 -3 -43 -4
-10 -8 -14 -8 -8 -1 6 -4 26 -7 43 -4 18 -2 31 4 31 5 0 12 -10 14 -23z m2848
3 c0 -11 -4 -20 -10 -20 -5 0 -10 9 -10 20 0 11 5 20 10 20 6 0 10 -9 10 -20z
m-2964 -27 c-7 -7 -26 7 -26 19 0 6 6 6 15 -2 9 -7 13 -15 11 -17z m44 20 c0
-5 -5 -15 -10 -23 -8 -12 -10 -11 -10 8 0 12 5 22 10 22 6 0 10 -3 10 -7z
m3100 -33 c0 -11 -4 -20 -10 -20 -5 0 -10 9 -10 20 0 11 5 20 10 20 6 0 10 -9
10 -20z m-2853 -20 c1 -11 -2 -20 -8 -20 -5 0 -9 9 -9 20 0 11 4 20 8 20 4 0
8 -9 9 -20z m2673 13 c0 -5 -5 -15 -10 -23 -8 -12 -10 -11 -10 8 0 12 5 22 10
22 6 0 10 -3 10 -7z m-2640 -18 c0 -8 -4 -15 -10 -15 -5 0 -10 7 -10 15 0 8 5
15 10 15 6 0 10 -7 10 -15z m-187 -12 c-7 -2 -19 -2 -25 0 -7 3 -2 5 12 5 14
0 19 -2 13 -5z m60 0 c-7 -2 -19 -2 -25 0 -7 3 -2 5 12 5 14 0 19 -2 13 -5z
m60 0 c-7 -2 -19 -2 -25 0 -7 3 -2 5 12 5 14 0 19 -2 13 -5z m2887 -13 c0 -5
-4 -10 -10 -10 -5 0 -10 5 -10 10 0 6 5 10 10 10 6 0 10 -4 10 -10z m-3510 -7
c-1 -19 -19 -35 -36 -30 -17 4 -16 6 5 13 23 7 24 8 5 15 -18 7 -17 8 4 8 12
1 22 -2 22 -6z m661 -26 c-8 -8 -11 -7 -11 4 0 20 13 34 18 19 3 -7 -1 -17 -7
-23z m2649 16 c0 -5 -5 -15 -10 -23 -8 -12 -10 -11 -10 8 0 12 5 22 10 22 6 0
10 -3 10 -7z m-2440 -22 c0 -11 -31 -24 -39 -16 -3 3 1 10 9 15 19 12 30 12
30 1z m113 2 c4 -3 -1 -12 -11 -19 -16 -13 -16 -13 1 -14 19 0 25 -44 7 -55
-6 -4 -10 5 -10 20 0 15 -4 24 -10 20 -6 -3 -10 4 -10 18 0 32 16 47 33 30z
m-53 -13 c0 -5 -6 -10 -14 -10 -8 0 -18 5 -21 10 -3 6 3 10 14 10 12 0 21 -4
21 -10z m100 -11 c0 -6 -4 -7 -10 -4 -5 3 -10 11 -10 16 0 6 5 7 10 4 6 -3 10
-11 10 -16z m-1420 -4 c0 -9 7 -29 15 -45 17 -33 1 -55 -20 -27 -7 10 -17 17
-24 17 -6 0 -11 5 -11 10 0 6 7 10 15 10 8 0 15 5 15 10 0 6 -7 13 -15 16 -22
9 -18 24 5 24 11 0 20 -7 20 -15z m1040 -2 c0 -14 -19 -38 -25 -32 -8 8 5 39
16 39 5 0 9 -3 9 -7z m420 -3 c0 -5 8 -10 18 -10 14 0 14 -2 3 -9 -17 -11 -38
-4 -45 15 -3 8 1 14 9 14 8 0 15 -4 15 -10z m2211 -23 c-8 -8 -11 -7 -11 4 0
20 13 34 18 19 3 -7 -1 -17 -7 -23z m-2446 -6 c-3 -6 -11 -11 -17 -11 -6 0 -6
6 2 15 14 17 26 13 15 -4z m3126 -14 c-8 -8 -11 -7 -11 4 0 20 13 34 18 19 3
-7 -1 -17 -7 -23z m-3241 14 c0 -5 3 -16 6 -25 3 -9 1 -16 -5 -16 -6 0 -11 7
-11 15 0 9 -6 12 -15 9 -8 -4 -15 -2 -15 4 0 10 15 19 33 21 4 1 7 -3 7 -8z
m50 -11 c0 -13 -11 -13 -30 0 -12 8 -11 10 8 10 12 0 22 -4 22 -10z m174 -14
c-6 -16 -24 -23 -24 -8 0 10 22 33 27 28 2 -2 1 -11 -3 -20z m-327 -19 c-2 -7
-5 -16 -7 -22 -2 -14 -21 -35 -30 -35 -3 0 3 20 14 45 12 25 23 40 24 35 2 -6
2 -16 -1 -23z m469 -4 c-11 -11 -17 4 -9 23 7 18 8 18 11 1 2 -10 1 -21 -2
-24z m-286 -10 c0 -27 -3 -34 -11 -26 -7 7 -9 23 -5 37 9 37 16 32 16 -11z
m90 17 c-8 -5 -17 -7 -19 -4 -3 3 1 9 9 14 8 5 17 7 19 4 3 -3 -1 -9 -9 -14z
m2380 13 c0 -5 -5 -15 -10 -23 -8 -12 -10 -11 -10 8 0 12 5 22 10 22 6 0 10
-3 10 -7z m-2506 -27 c-3 -9 -10 -16 -15 -16 -6 0 -5 9 1 21 13 24 24 20 14
-5z m-128 -23 c-11 -11 -19 6 -11 24 8 17 8 17 12 0 3 -10 2 -21 -1 -24z m36
15 c-6 -6 -15 -8 -19 -4 -4 4 -1 11 7 16 19 12 27 3 12 -12z m3288 -6 c0 -15
-2 -15 -10 -2 -13 20 -13 33 0 25 6 -3 10 -14 10 -23z m-3246 12 c9 -3 16 -15
16 -25 0 -18 -1 -18 -20 1 -28 28 -27 36 4 24z m257 -27 c-8 -8 -11 -7 -11 4
0 20 13 34 18 19 3 -7 -1 -17 -7 -23z m-132 -12 c7 -19 9 -44 6 -56 -4 -11 -1
-26 5 -34 6 -8 10 -26 8 -41 -2 -23 2 -30 29 -41 29 -11 32 -11 38 7 4 11 11
20 16 20 12 0 12 -17 -1 -25 -18 -11 -10 -23 20 -30 17 -4 30 -11 30 -16 0
-14 -9 -12 -93 21 -69 26 -91 30 -190 31 -62 1 -125 5 -142 9 -18 5 28 8 119
8 84 0 152 4 158 10 6 6 5 18 -3 33 -8 13 -14 40 -15 59 -1 19 -5 45 -9 58
-12 37 10 25 24 -13z m281 2 c18 -3 15 -5 -12 -6 -29 -1 -38 3 -38 15 0 12 3
14 13 6 6 -5 23 -12 37 -15z m140 -27 c-14 -11 -19 -20 -12 -20 6 0 12 -10 12
-22 -1 -22 -1 -22 -15 4 -15 27 -11 63 6 52 5 -3 9 3 9 12 0 15 2 16 13 5 10
-10 7 -16 -13 -31z m1988 28 c-2 -6 -10 -14 -16 -16 -7 -2 -10 2 -6 12 7 18
28 22 22 4z m-2293 -18 c-3 -5 -6 -25 -7 -44 -1 -29 -4 -34 -15 -25 -18 16 -4
79 18 79 6 0 8 -4 4 -10z m222 -26 c2 -7 0 -21 -7 -31 -10 -16 -11 -14 -7 10
3 21 0 27 -14 27 -11 0 -19 4 -19 9 0 13 41 0 47 -15z m2023 6 c-24 -15 -37
-11 -16 5 11 8 22 12 25 9 3 -3 -1 -9 -9 -14z m-230 -37 c0 -23 -37 -84 -61
-101 -11 -7 -19 -24 -19 -37 0 -13 -4 -35 -9 -48 -9 -22 -7 -24 12 -19 12 2
30 12 40 20 9 8 17 11 17 7 0 -15 -33 -45 -50 -45 -9 0 -32 -11 -50 -25 -45
-33 -50 -16 -11 32 20 24 31 49 31 69 0 22 10 41 35 67 20 20 38 50 41 67 7
32 24 41 24 13z m185 -2 c-3 -6 -11 -11 -17 -11 -6 0 -6 6 2 15 14 17 26 13
15 -4z m-1932 2 c-7 -2 -19 -2 -25 0 -7 3 -2 5 12 5 14 0 19 -2 13 -5z m1887
-28 c-7 -9 -15 -13 -18 -10 -3 2 1 11 8 20 7 9 15 13 18 10 3 -2 -1 -11 -8
-20z m-2134 -11 c-3 -9 -6 -18 -6 -20 0 -3 -4 -3 -10 1 -11 7 -2 35 12 35 6 0
7 -7 4 -16z m-2216 -106 c0 -72 3 -88 15 -88 8 0 15 -9 15 -19 0 -15 12 -21
63 -30 58 -11 63 -10 80 10 14 17 24 20 53 14 26 -4 39 -2 47 9 10 12 24 14
70 9 31 -3 57 -10 57 -14 0 -5 -25 -6 -55 -3 -47 6 -55 4 -55 -10 0 -18 -12
-20 -57 -7 -28 8 -35 6 -51 -14 -17 -21 -22 -22 -68 -14 -27 5 -60 8 -74 7
-21 -3 -26 2 -28 25 -3 26 -6 27 -55 27 -29 0 -89 3 -134 7 -73 5 -83 4 -83
-11 0 -21 -19 -21 -27 0 -4 10 1 22 10 29 10 7 17 20 17 29 0 9 5 16 10 16 6
0 10 -8 10 -19 0 -15 10 -19 53 -25 28 -3 78 -6 110 -6 l58 0 -1 68 c-2 112
-1 129 10 112 5 -8 10 -54 10 -102z m2510 92 c0 -11 -4 -20 -10 -20 -5 0 -10
9 -10 20 0 11 5 20 10 20 6 0 10 -9 10 -20z m1800 -5 c-7 -8 -17 -15 -22 -15
-6 0 -5 7 2 15 7 8 17 15 22 15 6 0 5 -7 -2 -15z m-50 -50 c-7 -9 -15 -13 -18
-10 -3 2 1 11 8 20 7 9 15 13 18 10 3 -2 -1 -11 -8 -20z m-1762 3 c-2 -6 -10
-14 -16 -16 -7 -2 -10 2 -6 12 7 18 28 22 22 4z m-1153 -8 c3 -5 -1 -10 -9
-10 -9 0 -16 5 -16 10 0 6 4 10 9 10 6 0 13 -4 16 -10z m1113 -50 c0 -17 -3
-28 -8 -25 -5 3 -11 1 -15 -4 -3 -5 12 -11 32 -13 l38 -3 -29 -20 c-21 -14
-31 -16 -34 -7 -2 6 -10 12 -19 12 -16 0 -11 29 13 68 19 29 21 28 22 -8z
m1772 21 c0 -12 -20 -25 -27 -18 -7 7 6 27 18 27 5 0 9 -4 9 -9z m-1815 -31
c-3 -5 -15 -10 -26 -10 -10 0 -19 5 -19 10 0 6 12 10 26 10 14 0 23 -4 19 -10z
m-2695 -10 c0 -5 -6 -10 -14 -10 -7 0 -16 -12 -19 -27 -12 -55 -46 -63 -265
-63 -152 1 -203 4 -222 15 -33 19 -64 19 -101 -1 -17 -8 -36 -13 -42 -11 -18
6 68 47 97 47 14 0 40 -9 58 -20 30 -18 51 -20 210 -20 162 0 180 2 212 21 28
16 36 27 36 50 0 24 4 29 25 29 14 0 25 -4 25 -10z m5471 -23 c-8 -8 -11 -7
-11 4 0 20 13 34 18 19 3 -7 -1 -17 -7 -23z m-2472 -30 c-1 -31 -1 -31 -9 -7
-11 36 -11 52 0 45 6 -3 10 -21 9 -38z m-42 19 c-4 -10 -1 -13 9 -9 7 3 14 1
14 -5 0 -15 -32 -24 -43 -13 -7 7 -6 15 3 26 16 19 24 19 17 1z m2443 -6 c-19
-13 -30 -13 -30 0 0 6 10 10 23 10 18 0 19 -2 7 -10z m-1280 -9 c0 -18 -80
-61 -115 -61 -20 0 -52 -7 -73 -15 -20 -9 -47 -13 -59 -10 -15 3 -50 -8 -100
-33 -55 -28 -97 -41 -142 -46 -77 -7 -91 -17 -91 -66 0 -37 -2 -39 -39 -45
-28 -5 -61 -26 -120 -76 -45 -38 -86 -69 -91 -69 -5 0 -15 -3 -24 -6 -9 -3
-16 -2 -16 4 0 5 10 12 23 16 12 3 59 37 104 76 45 38 90 70 101 70 41 0 52
11 52 50 0 21 6 42 13 47 6 6 43 13 81 17 48 5 88 17 137 41 45 23 83 35 111
35 24 1 54 7 68 15 14 8 42 14 63 15 24 0 52 9 75 25 41 28 42 28 42 16z
m1228 -3 c-3 -7 -13 -15 -24 -17 -16 -3 -17 -1 -5 13 16 19 34 21 29 4z m102
2 c8 -5 11 -12 7 -16 -4 -4 -15 0 -24 9 -18 18 -8 23 17 7z m-2642 -23 c2 -10
-3 -17 -12 -17 -9 0 -16 2 -16 4 0 2 -3 12 -6 21 -5 13 -2 16 12 13 10 -2 20
-11 22 -21z m112 -14 c0 -15 2 -16 10 -3 11 18 25 7 17 -14 -8 -21 -47 -8 -47
15 0 11 5 19 10 19 6 0 10 -8 10 -17z m130 2 c0 -8 -4 -15 -9 -15 -5 0 -11 7
-15 15 -3 9 0 15 9 15 8 0 15 -7 15 -15z m-2094 -19 c-8 -6 -17 -21 -20 -33
-6 -18 -4 -20 14 -16 36 9 21 -6 -30 -32 -49 -25 -107 -34 -95 -15 3 6 16 10
28 10 12 1 33 7 47 15 21 12 22 14 6 15 -10 0 -36 14 -57 31 -35 27 -43 30
-84 24 -30 -5 -45 -4 -45 4 0 7 21 11 54 11 43 0 60 -5 84 -25 39 -33 58 -32
70 5 8 21 15 28 27 24 13 -6 14 -8 1 -18z m4349 3 c-4 -5 -13 -9 -22 -9 -13 0
-13 3 -3 15 13 15 35 11 25 -6z m-2735 -29 c0 -22 -4 -40 -10 -40 -5 0 -10 18
-10 40 0 22 5 40 10 40 6 0 10 -18 10 -40z m269 26 c6 -8 10 -19 9 -26 -2 -7
3 -15 11 -18 8 -2 11 0 8 6 -8 12 19 36 32 28 12 -8 3 -44 -13 -49 -6 -2 -1
-2 11 -1 13 3 27 -4 36 -16 7 -11 17 -17 20 -13 4 3 7 -7 7 -24 0 -18 6 -33
15 -37 8 -3 15 -12 15 -21 0 -20 10 -19 26 2 7 10 15 15 19 11 8 -7 -30 -48
-45 -48 -6 0 -15 10 -20 23 -5 12 -9 16 -9 10 -1 -18 -21 -16 -21 2 0 8 -7 15
-15 15 -8 0 -15 7 -15 15 0 8 -11 22 -25 31 -14 9 -25 22 -25 28 0 7 -13 25
-30 39 -30 27 -35 38 -23 50 10 11 19 8 32 -7z m2291 5 c0 -5 -9 -7 -20 -4
-11 3 -20 7 -20 9 0 2 9 4 20 4 11 0 20 -4 20 -9z m-55 -20 c-3 -6 -14 -11
-23 -11 -15 1 -15 2 2 15 21 16 32 13 21 -4z m108 12 c-7 -2 -19 -2 -25 0 -7
3 -2 5 12 5 14 0 19 -2 13 -5z m62 -3 c3 -5 -3 -10 -14 -10 -12 0 -21 5 -21
10 0 6 6 10 14 10 8 0 18 -4 21 -10z m-2225 -20 c-8 -5 -17 -7 -19 -4 -3 3 1
9 9 14 8 5 17 7 19 4 3 -3 -1 -9 -9 -14z m1997 -27 c-9 -9 -20 -13 -24 -9 -4
4 -1 11 7 16 25 16 35 11 17 -7z m-2011 -19 c-3 -9 -6 -20 -6 -25 0 -5 -4 -9
-10 -9 -5 0 -10 11 -10 25 0 16 6 25 16 25 11 0 14 -5 10 -16z m51 -21 c-3
-10 -5 -4 -5 12 0 17 2 24 5 18 2 -7 2 -21 0 -30z m1853 16 c-7 -11 -14 -18
-17 -15 -8 8 5 36 17 36 7 0 7 -6 0 -21z m63 14 c-7 -2 -21 -2 -30 0 -10 3 -4
5 12 5 17 0 24 -2 18 -5z m-2123 -14 c0 -14 -30 -38 -47 -39 -7 0 -13 10 -13
23 0 18 6 23 30 25 17 1 30 -3 30 -9z m270 1 c0 -5 -7 -10 -16 -10 -8 0 -12 5
-9 10 3 6 10 10 16 10 5 0 9 -4 9 -10z m1764 -45 c-4 -8 -10 -15 -15 -15 -4 0
-6 7 -3 15 4 8 10 15 15 15 4 0 6 -7 3 -15z m-44 -24 c0 -5 -11 -11 -25 -13
-28 -6 -35 8 -7 15 28 8 32 7 32 -2z m-2076 -57 c7 -35 -5 -64 -26 -64 -6 0
-5 7 2 15 8 9 10 28 6 50 -4 20 -3 35 2 35 6 0 13 -16 16 -36z m276 -35 c0 -5
-7 -6 -15 -3 -8 4 -15 13 -15 21 0 13 3 13 15 3 8 -7 15 -16 15 -21z m-643
-76 c-2 -16 -4 -3 -4 27 0 30 2 43 4 28 2 -16 2 -40 0 -55z m713 47 c4 0 10
-9 13 -20 6 -23 -11 -27 -19 -5 -4 8 -12 15 -20 15 -8 0 -14 5 -14 11 0 6 7 8
16 5 9 -3 19 -6 24 -6z m50 -25 c10 -12 10 -15 -4 -15 -9 0 -16 7 -16 15 0 8
2 15 4 15 2 0 9 -7 16 -15z m40 0 c0 -8 -4 -15 -10 -15 -5 0 -7 7 -4 15 4 8 8
15 10 15 2 0 4 -7 4 -15z m1220 -99 c0 -2 -8 -10 -17 -17 -16 -13 -17 -12 -4
4 13 16 21 21 21 13z m-3713 -22 c-3 -3 -12 -4 -19 -1 -8 3 -5 6 6 6 11 1 17
-2 13 -5z m-437 -44 c0 -6 -55 -10 -145 -10 -90 0 -145 4 -145 10 0 6 55 10
145 10 90 0 145 -4 145 -10z m1238 -417 c-10 -2 -26 -2 -35 0 -10 3 -2 5 17 5
19 0 27 -2 18 -5z m-1410 -10 c-15 -4 -18 -17 -18 -84 l0 -79 -50 0 c-27 0
-50 5 -50 10 0 6 18 10 40 10 l40 0 0 75 0 75 28 -1 c16 -1 20 -3 10 -6z m426
-8 c3 -8 15 -15 26 -15 11 0 23 7 26 15 4 10 19 15 48 13 37 -1 38 -2 8 -5
-18 -3 -38 -13 -45 -24 -15 -23 -65 -26 -74 -3 -3 9 -15 20 -27 24 -20 8 -19
9 5 9 15 1 29 -6 33 -14z m1099 8 c-7 -2 -21 -2 -30 0 -10 3 -4 5 12 5 17 0
24 -2 18 -5z m278 -249 l1 -239 -41 -3 -41 -3 0 -109 c0 -87 3 -109 15 -114
11 -4 15 2 16 22 0 24 1 25 9 7 21 -48 14 -55 -50 -55 -33 0 -60 4 -60 10 0 6
11 10 25 10 l25 0 2 310 c1 171 2 318 2 328 1 12 -9 19 -39 23 -22 3 -51 11
-65 16 -14 6 -53 8 -87 5 -46 -3 -63 -1 -63 8 0 8 12 11 38 8 20 -3 47 -1 60
3 16 6 33 4 52 -6 33 -17 100 -20 100 -5 0 6 5 10 10 10 6 0 10 -8 10 -19 0
-11 9 -21 23 -25 41 -11 47 -7 47 31 0 20 2 34 5 31 3 -3 6 -113 6 -244z m169
226 c0 -16 7 -20 35 -20 19 0 35 -4 35 -10 0 -5 -16 -10 -35 -10 l-35 0 0
-335 c0 -217 -4 -335 -10 -335 -6 0 -10 118 -10 335 l0 335 -40 0 c-22 0 -40
5 -40 10 0 6 18 10 40 10 33 0 40 3 40 20 0 11 5 20 10 20 6 0 10 -9 10 -20z
m-1383 -37 c-3 -10 -5 -4 -5 12 0 17 2 24 5 18 2 -7 2 -21 0 -30z m4113 -43
c0 -5 -7 -10 -16 -10 -8 0 -12 5 -9 10 3 6 10 10 16 10 5 0 9 -4 9 -10z
m-2367 -20 c-3 -11 -9 -20 -14 -20 -11 0 -11 3 -3 24 9 23 23 20 17 -4z m712
-13 c27 -44 28 -47 18 -47 -8 0 -53 61 -53 73 0 17 17 4 35 -26z m1625 13 c12
-8 11 -10 -7 -10 -13 0 -23 5 -23 10 0 13 11 13 30 0z m570 -5 c-7 -8 -17 -15
-22 -15 -6 0 -5 7 2 15 7 8 17 15 22 15 6 0 5 -7 -2 -15z m-6179 -261 c-1
-142 -4 -260 -6 -263 -3 -2 -5 70 -5 161 l0 165 -62 23 c-61 21 -94 40 -72 40
6 0 37 -9 69 -20 32 -11 60 -20 62 -20 1 0 3 41 3 92 0 50 3 89 6 85 3 -3 5
-121 5 -263z m1392 209 c37 -60 40 -73 14 -72 -12 0 -17 3 -10 5 7 3 3 19 -13
48 -20 35 -28 42 -47 39 -22 -4 -23 -9 -20 -61 2 -41 0 -51 -6 -37 -5 11 -10
32 -10 46 -1 15 -8 30 -18 33 -30 12 6 30 69 35 11 0 27 -15 41 -36z m4227 29
c0 -4 -9 -13 -20 -20 -22 -13 -27 -3 -8 16 14 14 28 16 28 4z m515 -21 c-3 -6
-11 -11 -17 -11 -6 0 -6 6 2 15 14 17 26 13 15 -4z m-495 -16 c0 -8 -4 -15 -9
-15 -5 0 -11 7 -15 15 -3 9 0 15 9 15 8 0 15 -7 15 -15z m450 -34 c-6 -12 -15
-21 -21 -21 -10 0 -5 13 14 38 15 19 20 7 7 -17z m-2002 -36 c36 -39 61 -58
89 -64 21 -5 29 -9 17 -10 -19 -1 -20 -4 -12 -58 11 -77 11 -92 -5 -278 -14
-158 -15 -161 -60 -253 -25 -51 -53 -102 -62 -114 -11 -17 -15 -48 -15 -123 0
-55 -5 -138 -10 -183 l-11 -83 55 -97 c65 -117 79 -185 51 -258 l-17 -45 27
-42 c15 -23 53 -67 84 -97 53 -52 56 -58 58 -108 3 -45 -4 -66 -41 -140 -23
-48 -51 -108 -60 -133 l-18 -46 26 -28 c14 -15 26 -39 26 -52 0 -14 9 -36 20
-50 23 -30 18 -43 -16 -43 -24 0 -24 -1 -9 -30 9 -17 15 -55 15 -90 0 -93 35
-137 152 -195 50 -25 95 -45 100 -45 12 0 42 -30 36 -36 -7 -7 -247 109 -247
119 -1 5 -11 23 -23 40 -12 17 -27 51 -33 76 -11 42 -12 43 -19 18 -3 -15 -11
-27 -17 -27 -7 0 -8 7 -4 17 28 75 29 98 1 167 -37 91 -40 122 -22 175 9 24
16 47 16 52 0 4 -31 5 -70 2 -49 -4 -70 -3 -70 6 0 7 26 11 78 11 l77 0 17 40
17 40 -27 1 c-27 1 -27 1 3 8 21 4 36 18 52 46 34 60 29 135 -9 135 -11 0 -54
18 -95 40 -51 27 -88 40 -114 40 l-38 0 6 80 c5 70 4 80 -11 80 -11 0 -16 -9
-16 -30 0 -16 -4 -30 -10 -30 -5 0 -10 9 -10 20 0 16 -7 20 -35 20 -32 0 -35
2 -35 29 0 17 5 33 11 37 8 5 10 -3 7 -25 -3 -23 -1 -30 8 -27 7 3 29 8 48 12
43 7 44 13 11 44 -14 13 -25 28 -25 34 0 5 16 -5 35 -24 35 -34 36 -34 42 -12
7 30 23 28 23 -3 0 -30 25 -34 33 -5 7 28 37 26 37 -2 l1 -23 13 24 c22 40 -2
131 -62 236 l-52 90 15 125 c8 69 15 154 15 190 0 60 5 75 60 183 61 118 77
187 48 201 -10 5 -10 7 0 12 6 3 11 18 11 32 -1 17 -3 21 -6 10 -2 -10 -9 -18
-15 -18 -6 0 -8 9 -4 23 4 12 9 36 13 52 3 17 11 33 17 37 13 8 15 178 3 221
-4 15 -13 27 -21 27 -7 0 -19 6 -25 14 -7 8 -35 17 -62 21 -32 5 -60 16 -76
31 -27 25 -38 31 -28 14 9 -14 -29 -12 -43 2 -32 32 17 39 76 9 20 -10 52 -21
71 -25 l34 -6 -31 30 c-33 31 -38 40 -23 40 5 0 32 -25 59 -55z m1557 35 c3
-5 2 -10 -4 -10 -5 0 -13 5 -16 10 -3 6 -2 10 4 10 5 0 13 -4 16 -10z m-2655
-20 c0 -5 -2 -10 -4 -10 -3 0 -8 5 -11 10 -3 6 -1 10 4 10 6 0 11 -4 11 -10z
m73 3 c-13 -2 -33 -2 -45 0 -13 2 -3 4 22 4 25 0 35 -2 23 -4z m-2142 -29 l26
-25 22 27 c12 15 24 24 27 21 3 -3 -7 -22 -23 -42 -27 -34 -67 -55 -81 -41 -3
4 4 9 16 13 17 4 20 9 11 19 -6 7 -16 11 -22 8 -7 -2 -12 6 -12 21 0 31 3 31
36 -1z m4753 20 c20 -8 21 -24 2 -24 -8 0 -16 7 -20 15 -6 17 -4 18 18 9z
m179 -1 c-7 -2 -19 -2 -25 0 -7 3 -2 5 12 5 14 0 19 -2 13 -5z m187 -13 c-19
-13 -30 -13 -30 0 0 6 10 10 23 10 18 0 19 -2 7 -10z m-4397 -7 c-7 -2 -21 -2
-30 0 -10 3 -4 5 12 5 17 0 24 -2 18 -5z m2117 -228 c0 -150 -4 -235 -10 -235
-6 0 -10 85 -10 235 0 150 4 235 10 235 6 0 10 -85 10 -235z m1983 221 c9 3
17 1 17 -4 0 -6 -8 -13 -18 -16 -10 -4 -23 -18 -29 -34 l-11 -27 -1 32 c-1 39
9 69 19 53 3 -6 14 -8 23 -4z m72 -6 c-3 -5 -13 -10 -21 -10 -8 0 -14 5 -14
10 0 6 9 10 21 10 11 0 17 -4 14 -10z m42 -22 c-3 -7 -5 -2 -5 12 0 14 2 19 5
13 2 -7 2 -19 0 -25z m133 7 c-10 -12 -10 -18 0 -30 15 -18 5 -35 -23 -35 -19
1 -20 2 -5 11 13 7 15 15 9 32 -6 16 -4 25 8 34 21 15 28 8 11 -12z m-5428
-472 c2 -324 6 -477 14 -480 21 -7 111 120 134 190 19 58 21 80 15 148 -6 71
-9 79 -28 79 -16 0 -18 3 -9 12 16 16 131 11 152 -6 8 -7 58 -28 110 -46 67
-24 114 -48 158 -82 34 -27 103 -67 152 -90 123 -56 119 -68 -20 -68 -65 0
-110 4 -110 10 0 6 39 7 102 4 56 -3 99 -2 96 2 -4 3 -42 23 -85 43 -43 20
-106 57 -139 83 -43 33 -93 59 -160 83 -55 19 -100 35 -101 35 -2 0 -3 -13 -3
-30 0 -16 -4 -30 -10 -30 -5 0 -10 18 -10 40 l0 40 -40 0 -40 0 0 -93 c0 -122
-23 -192 -92 -275 -45 -56 -52 -70 -54 -115 -2 -32 2 -55 9 -59 9 -6 9 -10 -1
-17 -7 -4 -14 -30 -16 -58 -1 -27 -5 -53 -8 -59 -4 -5 -10 -38 -14 -73 -5 -49
-4 -65 7 -72 11 -7 10 -9 -3 -9 -16 0 -18 -13 -18 -128 0 -103 4 -141 20 -187
35 -102 121 -216 173 -229 15 -3 27 -11 27 -17 0 -6 -7 -8 -16 -5 -9 3 -27 6
-40 6 -15 0 -24 6 -24 15 0 9 -15 31 -34 50 -19 19 -52 69 -73 111 l-38 78 -5
155 c-4 116 -1 181 11 251 9 52 12 99 7 105 -4 5 -8 26 -8 47 0 27 4 38 15 38
22 0 20 69 -2 86 -17 11 -18 50 -22 503 -2 350 0 491 8 491 8 0 12 -140 13
-477z m965 415 c-2 -13 -4 -3 -4 22 0 25 2 35 4 23 2 -13 2 -33 0 -45z m1460
-270 c-1 -62 -3 -14 -3 107 0 121 2 172 3 113 2 -59 2 -158 0 -220z m-2639
275 c-14 -16 -29 -37 -33 -48 -8 -19 -9 -19 -13 4 -2 13 2 28 10 33 8 6 2 7
-19 3 -52 -10 -38 11 15 22 26 6 51 11 56 12 6 0 -2 -11 -16 -26z m5508 2 c-3
-10 1 -15 12 -16 14 0 14 -2 -3 -9 -26 -10 -42 5 -25 25 16 19 24 19 16 0z
m-5436 -15 c0 -5 -4 -10 -10 -10 -5 0 -10 -14 -10 -31 0 -22 -5 -32 -20 -36
-27 -7 -25 -14 9 -37 24 -17 70 -76 58 -76 -2 0 -25 21 -51 46 -28 26 -54 43
-62 40 -8 -3 -14 -4 -14 -2 0 3 -3 12 -7 22 -5 14 -3 16 11 11 24 -10 58 11
54 32 -3 19 18 51 33 51 5 0 9 -4 9 -10z m5510 0 c0 -5 -9 -10 -21 -10 -11 0
-17 5 -14 10 3 6 13 10 21 10 8 0 14 -4 14 -10z m-4438 -48 c-7 -2 -12 -10
-12 -18 0 -8 -5 -14 -11 -14 -6 0 -8 7 -5 16 3 9 6 20 6 25 0 4 8 5 17 2 11
-4 12 -8 5 -11z m-558 -3 c-5 -8 -2 -9 11 -2 13 8 23 5 38 -10 14 -14 17 -22
9 -25 -7 -2 -12 -10 -12 -18 0 -10 -14 -14 -50 -14 -27 0 -50 5 -50 10 0 6 -9
10 -20 10 -11 0 -20 5 -20 10 0 6 5 10 10 10 6 0 10 6 10 14 0 17 15 24 53 25
19 1 26 -3 21 -10z m2746 -19 c0 -5 -18 -10 -40 -10 -22 0 -40 5 -40 10 0 6
18 10 40 10 22 0 40 -4 40 -10z m-3834 -30 c8 0 14 -4 14 -10 0 -5 -9 -10 -20
-10 -11 0 -20 -4 -20 -10 0 -12 -20 -13 -39 -1 -20 13 -5 51 19 46 11 -2 21 2
21 8 1 7 3 4 6 -5 2 -10 11 -18 19 -18z m1724 -21 c0 -5 -4 -9 -10 -9 -5 0
-10 7 -10 16 0 8 5 12 10 9 6 -3 10 -10 10 -16z m-92 -14 c-2 -14 -7 -25 -12
-24 -5 0 -12 -5 -17 -12 -15 -24 -22 0 -9 31 15 37 43 41 38 5z m1682 -100 c0
-77 -4 -125 -10 -125 -6 0 -10 48 -10 125 0 77 4 125 10 125 6 0 10 -48 10
-125z m-673 -82 c-2 -38 -3 -7 -3 67 0 74 1 105 3 68 2 -38 2 -98 0 -135z
m290 10 c-2 -37 -3 -9 -3 62 0 72 1 102 3 68 2 -34 2 -93 0 -130z m-2027 42
c0 -16 -9 -19 -34 -9 -20 8 -11 24 15 24 10 0 19 -7 19 -15z m-940 -25 c0 -5
-4 -10 -10 -10 -5 0 -10 5 -10 10 0 6 5 10 10 10 6 0 10 -4 10 -10z m610 0 c0
-5 -4 -10 -10 -10 -5 0 -10 5 -10 10 0 6 5 10 10 10 6 0 10 -4 10 -10z m740
-10 c0 -13 -11 -13 -30 0 -12 8 -11 10 8 10 12 0 22 -4 22 -10z m1577 -37 c-3
-10 -5 -2 -5 17 0 19 2 27 5 18 2 -10 2 -26 0 -35z m3600 -105 c-3 -7 -5 -2
-5 12 0 14 2 19 5 13 2 -7 2 -19 0 -25z m-3051 -76 c6 -8 16 -12 23 -8 9 6 10
0 5 -21 -9 -35 -8 -35 -28 -27 -9 3 -16 17 -16 30 0 17 -6 24 -20 24 -11 0
-20 7 -20 16 0 19 39 9 56 -14z m-841 8 c3 -5 1 -10 -4 -10 -6 0 -11 5 -11 10
0 6 2 10 4 10 3 0 8 -4 11 -10z m-490 -135 c-3 -30 -11 -55 -16 -55 -9 0 -7
32 7 99 9 44 16 12 9 -44z m1210 -46 c6 -80 3 -111 -9 -98 -9 10 -17 189 -8
189 5 0 13 -41 17 -91z m212 54 c-3 -10 -5 -4 -5 12 0 17 2 24 5 18 2 -7 2
-21 0 -30z m53 -33 c25 -49 25 -70 1 -70 -27 0 -35 29 -14 46 17 13 17 14 1 8
-10 -3 -18 -2 -18 2 0 5 -3 19 -6 32 -10 37 14 25 36 -18z m330 -35 c0 -13 5
-27 10 -30 6 -3 10 -14 10 -23 -1 -14 -4 -13 -20 7 -20 24 -28 87 -10 76 6 -3
10 -17 10 -30z m522 11 c13 -19 9 -26 -14 -25 -13 0 -17 3 -10 6 19 8 14 23
-8 23 -11 0 -20 4 -20 9 0 12 43 1 52 -13z m43 -6 c3 -5 2 -10 -4 -10 -5 0
-13 5 -16 10 -3 6 -2 10 4 10 5 0 13 -4 16 -10z m-2185 -62 c29 -33 40 -68 20
-68 -5 0 -10 8 -10 19 0 10 -7 24 -16 31 -17 15 -38 50 -29 50 3 0 19 -15 35
-32z m475 22 c3 -5 -1 -10 -10 -10 -9 0 -13 5 -10 10 3 6 8 10 10 10 2 0 7 -4
10 -10z m1630 0 c3 -5 -3 -10 -14 -10 -12 0 -21 5 -21 10 0 6 6 10 14 10 8 0
18 -4 21 -10z m-1562 -7 c-7 -2 -19 -2 -25 0 -7 3 -2 5 12 5 14 0 19 -2 13 -5z
m132 -3 c3 -5 -1 -10 -10 -10 -9 0 -13 5 -10 10 3 6 8 10 10 10 2 0 7 -4 10
-10z m135 0 c0 -5 -9 -10 -20 -10 -11 0 -20 5 -20 10 0 6 9 10 20 10 11 0 20
-4 20 -10z m1250 -19 c0 -12 -20 -25 -27 -18 -7 7 6 27 18 27 5 0 9 -4 9 -9z
m-1390 -30 c0 -5 -10 -12 -22 -16 -17 -5 -19 -8 -8 -12 8 -3 23 -15 32 -27 16
-18 19 -19 29 -6 8 12 12 12 16 2 4 -10 8 -10 19 -1 12 10 12 14 -3 25 -27 21
2 17 46 -6 21 -10 65 -49 97 -85 l58 -66 6 -82 c4 -45 5 -84 3 -87 -11 -13
-23 33 -23 93 0 67 -1 69 -46 117 -26 28 -52 50 -58 50 -6 0 0 -9 13 -19 21
-16 22 -19 6 -25 -10 -3 -24 -1 -31 5 -10 8 -14 8 -14 0 0 -16 -27 -13 -34 4
-3 8 -17 15 -31 15 -14 0 -25 5 -25 11 0 7 11 9 28 5 27 -5 27 -5 -3 8 -16 8
-33 12 -36 10 -3 -2 -16 8 -29 21 -17 18 -27 22 -36 14 -18 -15 -27 6 -12 30
15 24 58 41 58 22z m307 3 c-3 -3 -12 -4 -19 -1 -8 3 -5 6 6 6 11 1 17 -2 13
-5z m-1361 -19 c16 -8 24 -15 18 -15 -7 0 -11 -22 -10 -60 0 -33 -1 -60 -2
-60 -10 0 -41 47 -42 62 0 10 -13 24 -30 33 -29 15 -40 35 -20 35 6 0 10 -4
10 -10 0 -19 32 -10 37 10 6 24 4 24 39 5z m260 -16 c-1 -26 -4 -29 -33 -29
-18 0 -33 5 -33 10 0 6 7 10 15 10 8 0 15 8 15 18 0 10 8 18 19 19 14 1 18 -5
17 -28z m2133 -18 c-18 -16 -36 -27 -39 -25 -3 3 10 19 28 36 19 16 36 27 39
24 4 -3 -9 -19 -28 -35z m-3164 -1 c12 -19 -5 -30 -25 -17 -11 6 -20 15 -20
19 0 12 38 10 45 -2z m2167 -32 c-7 -7 -12 -8 -12 -2 0 14 12 26 19 19 2 -3
-1 -11 -7 -17z m-1158 -14 c10 -25 7 -34 -9 -34 -8 0 -15 4 -15 9 0 5 -3 16
-6 25 -4 10 -1 16 9 16 8 0 18 -7 21 -16z m2116 -14 c0 -11 -4 -20 -10 -20 -5
0 -10 9 -10 20 0 11 5 20 10 20 6 0 10 -9 10 -20z m-1320 -20 c0 -5 -2 -10 -4
-10 -3 0 -8 5 -11 10 -3 6 -1 10 4 10 6 0 11 -4 11 -10z m-1432 -37 c38 -6 43
-23 7 -23 -26 0 -85 25 -85 36 0 4 10 3 23 -1 12 -4 37 -9 55 -12z m2742 -3
c0 -11 -4 -20 -10 -20 -5 0 -10 9 -10 20 0 11 5 20 10 20 6 0 10 -9 10 -20z
m-3560 -50 c0 -5 -9 -10 -20 -10 -11 0 -20 5 -20 10 0 6 9 10 20 10 11 0 20
-4 20 -10z m300 0 c0 -6 -43 -10 -110 -10 -67 0 -110 4 -110 10 0 6 43 10 110
10 67 0 110 -4 110 -10z m3270 -21 c0 -10 -4 -19 -10 -19 -5 0 -10 12 -10 26
0 14 4 23 10 19 6 -3 10 -15 10 -26z m-2991 -139 c0 -85 -4 -128 -9 -115 -12
29 -12 284 0 265 5 -8 9 -76 9 -150z m1628 138 c-3 -8 -6 -5 -6 6 -1 11 2 17
5 13 3 -3 4 -12 1 -19z m-520 -8 c-1 -11 -5 -20 -9 -20 -4 0 -8 9 -8 20 0 11
4 20 9 20 6 0 9 -9 8 -20z m1994 -13 c-8 -8 -11 -7 -11 4 0 20 13 34 18 19 3
-7 -1 -17 -7 -23z m-3337 -23 c9 -24 7 -28 -9 -14 -17 14 -20 30 -6 30 5 0 12
-7 15 -16z m176 -1 c0 -10 -32 -43 -42 -43 -4 0 -8 11 -8 25 0 20 5 25 25 25
14 0 25 -3 25 -7z m1185 -31 c-8 -9 -25 20 -18 31 3 5 10 2 15 -7 6 -10 7 -20
3 -24z m4085 -28 c0 -8 -4 -12 -10 -9 -5 3 -10 13 -10 21 0 8 5 12 10 9 6 -3
10 -13 10 -21z m-4120 1 c-7 -8 -17 -15 -22 -15 -6 0 -5 7 2 15 7 8 17 15 22
15 6 0 5 -7 -2 -15z m4100 -31 c0 -8 -4 -12 -10 -9 -5 3 -10 10 -10 16 0 5 5
9 10 9 6 0 10 -7 10 -16z m-4116 -19 c3 -9 0 -15 -9 -15 -8 0 -15 7 -15 15 0
8 4 15 9 15 5 0 11 -7 15 -15z m4126 -19 c0 -8 -4 -18 -10 -21 -5 -3 -10 3
-10 14 0 12 5 21 10 21 6 0 10 -6 10 -14z m-5660 -41 c0 -39 -3 -45 -21 -45
-24 0 -53 26 -44 40 10 17 25 11 25 -10 0 -11 5 -20 10 -20 6 0 10 18 10 40 0
22 5 40 10 40 6 0 10 -20 10 -45z m2259 29 c2 -2 2 -6 0 -9 -8 -7 -49 7 -49
17 0 8 38 2 49 -8z m-879 -3 c0 -5 3 -16 6 -24 4 -11 0 -15 -13 -13 -17 3 -19
8 -14 36 1 13 21 13 21 1z m1110 -1 c0 -6 -23 -9 -52 -9 -45 1 -49 2 -23 9 44
11 75 11 75 0z m80 -30 c0 -5 -4 -10 -10 -10 -5 0 -10 5 -10 10 0 6 5 10 10
10 6 0 10 -4 10 -10z m350 0 c0 -5 -4 -10 -10 -10 -5 0 -10 5 -10 10 0 6 5 10
10 10 6 0 10 -4 10 -10z m2701 -23 c-8 -8 -11 -7 -11 4 0 20 13 34 18 19 3 -7
-1 -17 -7 -23z m-2854 17 c-3 -3 -12 -4 -19 -1 -8 3 -5 6 6 6 11 1 17 -2 13
-5z m146 -13 c29 -15 38 -38 10 -26 -10 4 -26 10 -35 12 -10 3 -18 12 -18 20
0 8 3 13 8 11 4 -2 19 -10 35 -17z m-3053 -21 c0 -5 -7 -10 -15 -10 -8 0 -15
5 -15 10 0 6 7 10 15 10 8 0 15 -4 15 -10z m317 -363 c-1 -67 -3 -9 -3 128 0
138 2 192 3 122 2 -71 2 -183 0 -250z m483 292 l0 -80 40 -17 40 -17 0 -58 c0
-63 12 -97 35 -97 8 0 15 -4 15 -10 0 -18 -29 -11 -50 13 -18 18 -21 31 -18
79 l4 57 -37 15 c-20 8 -39 22 -43 31 -10 27 -7 165 4 165 6 0 10 -34 10 -81z
m159 50 c-22 -14 -33 -10 -19 6 7 8 17 12 22 9 6 -4 5 -10 -3 -15z m4787 -1
c-10 -6 -20 -7 -24 -3 -9 8 20 25 31 18 5 -3 2 -10 -7 -15z m-3036 -18 c7 -16
10 -39 7 -49 -3 -11 0 -22 7 -25 6 -2 1 -5 -12 -5 -15 -1 -26 7 -32 22 -7 17
-9 18 -9 5 -1 -10 -5 -18 -11 -18 -5 0 -10 8 -10 18 0 9 -3 27 -6 39 -5 18 -1
25 17 32 35 14 35 14 49 -19z m517 -172 c-1 -40 -3 -10 -3 67 0 77 1 110 3 73
2 -37 2 -100 0 -140z m-2321 157 c-21 -16 -32 -13 -21 4 3 6 14 11 23 11 15
-1 15 -2 -2 -15z m4811 -22 c-3 -10 -5 -4 -5 12 0 17 2 24 5 18 2 -7 2 -21 0
-30z m-4139 -3 c7 -11 8 -20 2 -20 -5 0 -14 9 -20 20 -6 11 -7 20 -3 20 5 0
14 -9 21 -20z m-675 -20 c3 -11 1 -20 -4 -20 -5 0 -9 2 -9 4 0 2 -3 11 -6 20
-3 9 -2 16 4 16 5 0 12 -9 15 -20z m1387 0 c0 -5 -12 -10 -27 -10 -16 0 -59
-3 -98 -6 -49 -5 -67 -3 -60 4 16 17 185 28 185 12z m3421 -37 c-9 -16 -10
-14 -11 12 0 21 3 26 11 18 8 -8 8 -16 0 -30z m-4096 6 c11 -17 -1 -21 -15 -4
-8 9 -8 15 -2 15 6 0 14 -5 17 -11z m-695 -31 c0 -19 -2 -20 -10 -8 -13 19
-13 30 0 30 6 0 10 -10 10 -22z m2097 -10 c31 -32 56 -108 35 -108 -5 0 -12
17 -16 38 -3 21 -16 48 -30 61 -21 20 -31 22 -83 16 -87 -9 -103 -14 -103 -30
0 -8 -9 -15 -20 -15 -25 0 -25 5 -1 31 12 13 39 23 82 28 101 13 103 13 136
-21z m-2403 -4 c8 -21 8 -24 -3 -24 -5 0 -11 9 -14 20 -6 24 8 27 17 4z m-114
-4 c0 -5 -4 -10 -10 -10 -5 0 -10 5 -10 10 0 6 5 10 10 10 6 0 10 -4 10 -10z
m-75 -10 c3 -5 1 -10 -4 -10 -6 0 -11 5 -11 10 0 6 2 10 4 10 3 0 8 -4 11 -10z
m519 -39 c-6 -6 -24 19 -24 34 1 6 7 1 15 -9 8 -11 12 -22 9 -25z m1990 24 c7
-20 -2 -42 -20 -49 -10 -4 -14 3 -14 23 0 40 22 57 34 26z m-2301 -35 c3 -11
1 -20 -4 -20 -5 0 -9 2 -9 4 0 2 -3 11 -6 20 -3 9 -2 16 4 16 5 0 12 -9 15
-20z m2147 5 c0 -5 -55 -35 -65 -35 -15 0 -2 22 18 30 25 10 47 12 47 5z
m-420 -15 c0 -5 -9 -10 -20 -10 -11 0 -20 5 -20 10 0 6 9 10 20 10 11 0 20 -4
20 -10z m-1393 -15 c12 -12 13 -19 3 -30 -19 -23 -27 -18 -27 15 0 34 3 36 24
15z m453 -37 c0 -5 -4 -8 -10 -8 -5 0 -10 10 -10 23 0 18 2 19 10 7 5 -8 10
-18 10 -22z m1924 16 c23 -9 20 -23 -4 -17 -11 3 -20 9 -20 14 0 11 3 11 24 3z
m-1979 -54 c3 -5 -1 -10 -9 -10 -9 0 -16 5 -16 10 0 6 4 10 9 10 6 0 13 -4 16
-10z m54 -22 c0 -31 -1 -31 -10 -10 -5 13 -7 28 -3 33 10 16 14 9 13 -23z
m306 -18 c3 -5 1 -10 -4 -10 -6 0 -11 -14 -11 -31 0 -17 -4 -28 -10 -24 -16
10 -12 75 4 75 8 0 18 -4 21 -10z m-785 -29 c0 -10 -13 -45 -30 -76 -16 -31
-30 -59 -30 -61 0 -2 17 -5 38 -5 l37 -2 -40 -6 c-38 -6 -40 -8 -37 -39 2 -30
0 -32 -23 -26 -18 4 -25 2 -25 -9 0 -10 8 -13 25 -9 22 4 25 1 25 -27 l0 -31
-70 0 c-56 0 -70 -3 -70 -15 0 -8 -4 -15 -8 -15 -4 0 -8 25 -8 55 -1 34 3 55
10 55 6 0 22 3 35 7 17 4 22 3 17 -5 -10 -17 22 -15 40 2 17 18 7 49 -13 42
-35 -14 -68 -18 -58 -9 19 19 79 35 84 22 5 -16 80 122 81 149 0 27 20 30 20
3z m1828 7 c7 -7 12 -24 12 -39 0 -18 12 -38 40 -63 22 -20 44 -36 50 -36 5 0
24 -13 42 -28 18 -16 53 -34 78 -41 25 -7 59 -21 76 -32 l31 -19 6 74 c5 56 3
84 -9 111 -8 21 -13 39 -10 42 3 3 26 -6 51 -20 50 -29 128 -36 118 -11 -3 8
-1 14 5 14 5 0 12 -7 16 -15 3 -8 15 -15 27 -15 16 0 20 -5 16 -19 -10 -41 19
-50 162 -50 73 0 136 -3 139 -6 3 -3 -26 -5 -65 -5 -70 0 -70 0 -65 -25 3 -16
0 -25 -8 -25 -7 0 -10 7 -6 17 10 24 -11 33 -82 33 -58 0 -67 3 -92 30 -22 24
-39 31 -86 36 -33 4 -69 14 -82 22 -21 14 -22 13 -14 -9 5 -13 7 -76 4 -140
-4 -109 -3 -117 14 -116 11 1 20 -6 22 -16 3 -15 -1 -18 -15 -13 -17 5 -18 2
-15 -29 3 -21 -4 -56 -14 -83 -17 -45 -22 -177 -8 -224 5 -17 -6 -18 -140 -18
-91 0 -146 -4 -146 -10 0 -5 -4 -10 -10 -10 -5 0 -10 14 -10 30 0 37 -30 41
-53 8 -15 -22 -16 -19 -16 49 -1 47 -5 73 -13 76 -10 4 -10 8 1 15 11 8 9 11
-8 17 -29 9 -45 -3 -30 -21 6 -8 9 -18 5 -21 -9 -10 -27 18 -23 37 1 9 16 16
38 18 34 3 37 1 43 -29 3 -17 6 -46 6 -64 0 -27 4 -34 25 -37 25 -5 25 -4 25
63 0 39 4 69 10 69 6 0 10 -35 10 -84 0 -101 -4 -99 153 -89 l107 6 0 91 c0
59 6 105 16 133 13 33 15 59 9 118 l-7 75 -41 24 c-23 13 -64 29 -90 36 -26 7
-53 21 -60 30 -7 9 -30 26 -53 38 -42 22 -94 85 -94 116 0 11 -8 25 -17 32
-15 11 -16 13 -2 14 8 0 20 -5 27 -12z m562 -55 c0 -2 -6 -3 -12 -3 -21 0 -41
17 -34 28 4 8 13 6 26 -6 11 -9 20 -18 20 -19z m-1800 17 c0 -5 -13 -10 -30
-10 -16 0 -30 5 -30 10 0 6 14 10 30 10 17 0 30 -4 30 -10z m1446 1 c-3 -4 6
-6 20 -3 23 4 25 2 19 -17 -5 -16 -3 -20 9 -15 12 5 15 2 10 -10 -7 -18 -24
-22 -24 -6 0 6 -20 19 -45 30 -53 23 -56 30 -14 30 16 0 28 -4 25 -9z m-851
-30 c-7 -25 -21 -27 -41 -7 -20 20 -17 29 6 23 11 -3 23 -1 26 5 10 16 16 1 9
-21z m605 14 c0 -8 -4 -15 -9 -15 -13 0 -22 16 -14 24 11 11 23 6 23 -9z m120
5 c0 -5 -4 -10 -10 -10 -5 0 -10 5 -10 10 0 6 5 10 10 10 6 0 10 -4 10 -10z
m-2250 -40 c0 -5 -4 -10 -10 -10 -5 0 -10 5 -10 10 0 6 5 10 10 10 6 0 10 -4
10 -10z m-270 -35 c0 -22 24 -25 213 -27 l182 -2 -195 -6 -195 -5 -3 -51 c-3
-48 -1 -52 23 -56 14 -3 25 -2 25 3 0 4 9 11 20 14 30 10 14 25 -26 25 -19 0
-34 5 -34 10 0 19 66 11 85 -10 21 -23 61 -26 84 -7 20 17 91 38 91 27 0 -5
-17 -14 -37 -21 -21 -6 -50 -20 -64 -30 -19 -13 -36 -17 -61 -13 -21 4 -38 2
-42 -5 -4 -6 -20 -11 -37 -11 l-29 0 0 -75 c0 -43 -4 -75 -10 -75 -6 0 -10 33
-10 80 0 64 -3 80 -15 80 -19 0 -19 19 0 44 23 30 19 64 -7 68 -25 3 -23 23 2
23 8 0 16 7 16 15 3 29 4 31 14 25 6 -3 10 -12 10 -20z m2027 3 c-3 -8 -6 -5
-6 6 -1 11 2 17 5 13 3 -3 4 -12 1 -19z m-107 -18 c12 0 17 -9 17 -31 l0 -32
-28 34 c-28 33 -41 65 -17 41 7 -7 19 -12 28 -12z m-2180 -9 c24 -6 28 -9 13
-10 -15 -1 -25 -9 -29 -26 -3 -14 -10 -25 -15 -25 -5 0 -7 11 -3 25 l6 25 -93
0 c-51 0 -90 2 -88 5 3 2 30 9 60 13 55 9 87 8 149 -7z m1840 -57 c0 -37 4
-47 20 -51 23 -6 27 -23 5 -23 -34 0 -5 -55 41 -75 18 -8 18 -9 -2 -12 -14 -3
-31 5 -47 21 -20 20 -25 38 -31 105 -5 55 -4 81 3 81 6 0 11 -20 11 -46z m610
38 c0 -9 -40 -35 -46 -29 -3 2 -2 12 2 21 6 16 44 23 44 8z m-2250 -20 c0 -10
6 -24 13 -31 10 -10 8 -12 -8 -9 -21 3 -36 58 -16 58 6 0 11 -8 11 -18z m2550
-62 c0 -33 -4 -60 -10 -60 -6 0 -10 27 -10 60 0 33 4 60 10 60 6 0 10 -27 10
-60z m230 -39 c0 -6 -4 -13 -10 -16 -5 -3 -10 1 -10 9 0 9 5 16 10 16 6 0 10
-4 10 -9z m-2890 -18 c0 -9 -8 -13 -22 -11 -31 4 -34 26 -3 26 15 0 25 -6 25
-15z m1148 -131 c19 -6 14 -22 -8 -22 -19 0 -20 6 -19 88 l2 87 7 -74 c4 -43
12 -77 18 -79z m-1298 88 c0 -5 -7 -10 -15 -10 -9 0 -15 -9 -15 -25 0 -14 -5
-25 -11 -25 -6 0 -9 9 -6 20 4 15 0 20 -14 20 -24 0 -25 17 -1 23 32 9 62 7
62 -3z m733 -40 c-7 -8 -22 24 -16 34 4 5 10 1 13 -10 4 -10 6 -21 3 -24z
m2077 25 c0 -8 -4 -15 -10 -15 -5 0 -10 7 -10 15 0 8 5 15 10 15 6 0 10 -7 10
-15z m170 5 c13 0 17 -7 16 -25 0 -16 -6 -23 -14 -20 -9 3 -11 -1 -7 -15 4
-11 2 -20 -4 -20 -6 0 -11 4 -11 10 0 5 -7 7 -15 4 -12 -5 -14 2 -12 35 1 29
6 40 15 36 8 -3 22 -5 32 -5z m-170 -45 c0 -8 -4 -15 -10 -15 -5 0 -10 7 -10
15 0 8 5 15 10 15 6 0 10 -7 10 -15z m-2056 -21 c9 -22 -3 -32 -14 -14 -12 19
-12 30 -1 30 5 0 12 -7 15 -16z m4996 7 c0 -11 -31 -24 -39 -16 -3 3 1 10 9
15 19 12 30 12 30 1z m-4622 -10 c9 -5 -1 -10 -30 -14 -50 -7 -61 -2 -27 12
30 12 41 13 57 2z m4557 -1 c-3 -5 -14 -10 -23 -10 -15 0 -15 2 -2 10 20 13
33 13 25 0z m-2875 -45 c0 -25 -4 -45 -10 -45 -5 0 -10 20 -10 45 0 25 5 45
10 45 6 0 10 -20 10 -45z m-2640 15 c0 -5 -6 -10 -12 -10 -10 0 -10 -2 -1 -8
16 -10 28 -62 14 -62 -6 0 -11 5 -11 10 0 15 -21 12 -60 -9 -50 -26 -80 -34
-80 -22 0 6 7 11 15 11 9 0 33 12 55 26 28 19 40 34 40 50 0 17 6 24 20 24 11
0 20 -4 20 -10z m5465 0 c-3 -5 -13 -10 -21 -10 -8 0 -12 5 -9 10 3 6 13 10
21 10 8 0 12 -4 9 -10z m-50 -20 c4 -6 -6 -10 -22 -9 -25 0 -26 1 -8 9 11 5
21 9 22 9 1 1 5 -3 8 -9z m-4540 -10 c8 -13 -5 -13 -25 0 -13 8 -13 10 2 10 9
0 20 -4 23 -10z m4474 -11 c-16 -10 -23 -4 -14 10 3 6 11 8 17 5 6 -4 5 -9 -3
-15z m21 -44 c7 -8 8 -15 2 -15 -5 0 -15 7 -22 15 -7 8 -8 15 -2 15 5 0 15 -7
22 -15z m55 -35 c-3 -5 -12 -7 -20 -3 -21 7 -19 13 6 13 11 0 18 -4 14 -10z
m-2145 -4 c0 -2 -7 -9 -15 -16 -12 -10 -15 -10 -15 4 0 9 7 16 15 16 8 0 15
-2 15 -4z m2205 -6 c-3 -5 -12 -7 -20 -3 -21 7 -19 13 6 13 11 0 18 -4 14 -10z
m-2705 -10 c0 -5 9 -10 20 -10 11 0 20 -2 20 -4 0 -2 3 -11 6 -20 4 -12 0 -16
-15 -16 -12 0 -24 -7 -27 -15 -12 -30 -24 -14 -24 30 0 25 5 45 10 45 6 0 10
-4 10 -10z m2770 0 c0 -12 -8 -12 -35 0 -18 8 -17 9 8 9 15 1 27 -3 27 -9z
m-2183 -54 c2 -1 -15 -3 -37 -4 -31 -1 -42 3 -51 19 -18 34 8 41 49 12 20 -13
38 -25 39 -27z m-1284 -3 c-3 -7 -9 -13 -14 -13 -5 0 -9 6 -9 13 0 8 6 14 14
14 8 0 12 -6 9 -14z m1321 -25 c3 -18 16 -41 29 -50 12 -9 19 -19 16 -23 -4
-3 -14 1 -22 10 -9 8 -20 15 -25 15 -9 0 -22 46 -22 77 0 25 17 4 24 -29z
m-414 -28 c0 -5 -11 -10 -25 -10 -14 0 -25 5 -25 10 0 6 11 10 25 10 14 0 25
-4 25 -10z m-868 -41 c-5 -35 -35 -37 -40 -2 -3 19 4 25 39 32 3 0 4 -13 1
-30z m1145 15 c-3 -3 -12 -4 -19 -1 -8 3 -5 6 6 6 11 1 17 -2 13 -5z m-756
-100 c-8 -24 -9 -25 -10 -6 -1 14 -8 22 -18 23 -12 1 -9 4 7 8 32 10 31 10 21
-25z m204 26 c-3 -5 -13 -10 -21 -10 -8 0 -12 5 -9 10 3 6 13 10 21 10 8 0 12
-4 9 -10z m151 -67 c-11 -11 -17 4 -9 23 7 18 8 18 11 1 2 -10 1 -21 -2 -24z
m69 7 c3 -5 -1 -10 -9 -10 -9 0 -16 5 -16 10 0 6 4 10 9 10 6 0 13 -4 16 -10z
m523 -39 c-15 -5 -21 7 -13 26 7 17 8 17 15 -2 4 -11 3 -22 -2 -24z m737 29
c3 -5 -3 -10 -15 -10 -12 0 -18 5 -15 10 3 6 10 10 15 10 5 0 12 -4 15 -10z
m345 0 c12 -8 11 -10 -7 -10 -12 0 -25 5 -28 10 -8 13 15 13 35 0z m-525 -10
c-3 -5 -13 -10 -21 -10 -8 0 -12 5 -9 10 3 6 13 10 21 10 8 0 12 -4 9 -10z
m60 0 c3 -6 -3 -10 -14 -10 -12 0 -21 5 -21 10 0 6 6 10 14 10 8 0 18 -4 21
-10z m55 -10 c-19 -12 -30 -12 -30 -1 0 10 31 20 40 14 2 -2 -2 -8 -10 -13z
m170 10 c12 -8 11 -10 -7 -10 -13 0 -23 5 -23 10 0 13 11 13 30 0z m180 0
c-19 -13 -30 -13 -30 0 0 6 10 10 23 10 18 0 19 -2 7 -10z m120 -6 c0 -2 -9
-4 -21 -4 -11 0 -18 4 -14 10 5 8 35 3 35 -6z m-360 -4 c-19 -13 -30 -13 -30
0 0 6 10 10 23 10 18 0 19 -2 7 -10z m130 0 c0 -5 -9 -10 -20 -10 -11 0 -20 5
-20 10 0 6 9 10 20 10 11 0 20 -4 20 -10z m55 0 c-3 -5 -13 -10 -21 -10 -8 0
-12 5 -9 10 3 6 13 10 21 10 8 0 12 -4 9 -10z"/>
<path d="M3824 5854 c3 -9 6 -18 6 -20 0 -2 5 -4 10 -4 6 0 10 9 10 20 0 12
-7 20 -16 20 -11 0 -14 -5 -10 -16z"/>
<path d="M3731 4170 c0 -91 3 -97 28 -81 10 7 12 20 6 57 -9 56 -7 87 6 92 19
7 8 22 -16 22 -24 0 -24 -1 -24 -90z"/>
<path d="M3800 4245 c0 -8 -4 -15 -10 -15 -17 0 -11 -25 9 -37 11 -7 27 -28
36 -47 l17 -35 99 1 99 1 0 74 0 73 -125 0 c-104 0 -125 -2 -125 -15z"/>
<path d="M3780 4126 c0 -43 -3 -56 -15 -56 -20 0 -19 -19 1 -27 9 -3 39 -21
66 -39 30 -20 55 -31 65 -27 12 5 15 2 10 -10 -10 -25 30 -67 64 -67 27 0 29
3 29 35 0 34 -1 35 -40 35 l-40 0 0 65 0 65 -40 0 c-23 0 -40 5 -40 11 0 6 -6
9 -14 6 -11 -4 -16 3 -18 25 -2 17 -9 33 -15 36 -9 3 -13 -12 -13 -52z"/>
<path d="M4310 4141 c0 -12 6 -21 16 -21 9 0 14 7 12 17 -5 25 -28 28 -28 4z"/>
<path d="M3530 4022 l0 -117 58 2 c31 1 74 2 95 3 l37 0 0 115 0 115 -95 0
-95 0 0 -118z"/>
<path d="M3940 4045 c0 -54 0 -55 30 -55 30 0 30 1 30 55 0 54 0 55 -30 55
-30 0 -30 -1 -30 -55z"/>
<path d="M4020 4046 c0 -44 3 -56 16 -56 12 0 14 10 12 52 -4 74 -28 77 -28 4z"/>
<path d="M3737 4003 c-4 -3 -7 -26 -7 -50 l0 -43 85 0 c47 0 85 3 85 8 0 15
-19 36 -36 38 -9 2 -21 9 -25 16 -5 7 -25 14 -45 14 -20 1 -39 7 -43 13 -4 6
-10 8 -14 4z"/>
<path d="M4020 3940 c0 -20 5 -30 15 -30 10 0 15 10 15 30 0 20 -5 30 -15 30
-10 0 -15 -10 -15 -30z"/>
<path d="M4060 3941 c0 -28 2 -29 55 -33 l55 -3 0 33 0 32 -55 0 c-54 0 -55 0
-55 -29z"/>
<path d="M3739 3798 c1 -51 5 -95 7 -97 4 -5 187 -1 192 4 2 2 -4 17 -13 34
-14 28 -20 31 -60 31 -25 0 -45 5 -45 10 0 6 20 10 44 10 47 0 56 11 56 73 l0
27 -92 0 -93 0 4 -92z"/>
<path d="M3936 3859 c-12 -62 -9 -69 29 -69 l35 0 0 50 c0 48 -1 50 -29 50
-24 0 -29 -5 -35 -31z"/>
<path d="M4020 3836 c0 -44 3 -56 16 -56 12 0 14 10 12 52 -4 74 -28 77 -28 4z"/>
<path d="M4067 3883 c-4 -3 -7 -28 -7 -55 l0 -48 49 0 c55 0 61 7 61 71 l0 39
-48 0 c-27 0 -52 -3 -55 -7z"/>
<path d="M4190 3866 c0 -13 -3 -38 -6 -55 -5 -24 -3 -31 10 -31 9 0 16 8 16
20 0 11 5 20 10 20 6 0 10 -9 10 -20 0 -18 7 -20 55 -20 55 0 55 0 55 31 0 22
-5 32 -20 36 -11 3 -20 9 -20 14 0 5 9 9 20 9 11 0 20 4 20 9 0 5 -34 9 -75
10 -73 1 -75 0 -75 -23z m40 -16 c0 -5 -4 -10 -10 -10 -5 0 -10 5 -10 10 0 6
5 10 10 10 6 0 10 -4 10 -10z"/>
<path d="M4357 3843 c-4 -3 -7 -19 -7 -35 0 -25 3 -28 35 -28 33 0 35 2 35 35
0 32 -3 35 -28 35 -16 0 -32 -3 -35 -7z"/>
<path d="M3947 3735 c12 -26 23 -35 41 -35 18 0 23 4 18 16 -3 9 -6 24 -6 35
0 15 -7 19 -35 19 l-35 0 17 -35z"/>
<path d="M4020 3736 c0 -26 4 -36 16 -36 11 0 14 8 12 32 -4 46 -28 49 -28 4z"/>
<path d="M4061 3645 l-1 -115 55 0 55 0 0 115 0 115 -54 0 -55 0 0 -115z"/>
<path d="M4190 3665 l0 -95 75 0 76 0 -2 75 c-1 64 -4 75 -19 75 -13 0 -17 -6
-13 -20 4 -16 0 -20 -21 -20 -21 0 -26 5 -26 24 0 25 16 36 56 36 13 0 24 5
24 10 0 6 -32 10 -75 10 l-75 0 0 -95z"/>
<path d="M4350 3750 c0 -5 16 -10 35 -10 19 0 35 5 35 10 0 6 -16 10 -35 10
-19 0 -35 -4 -35 -10z"/>
<path d="M4440 3750 c0 -5 23 -10 50 -10 28 0 50 5 50 10 0 6 -22 10 -50 10
-27 0 -50 -4 -50 -10z"/>
<path d="M4352 3645 l-2 -75 36 0 35 0 -3 75 -3 75 -31 0 -31 0 -1 -75z"/>
<path d="M4438 3688 c-2 -18 -1 -52 1 -75 l3 -43 54 0 54 0 0 35 c0 31 -3 35
-27 35 -19 0 -24 3 -15 9 11 7 11 9 -1 14 -9 3 -18 -1 -21 -9 -9 -23 -26 -16
-24 11 2 20 8 25 31 25 20 0 26 -4 21 -12 -5 -9 -2 -9 9 1 32 26 20 41 -32 41
-49 0 -50 -1 -53 -32z"/>
<path d="M3740 3600 l0 -80 114 0 115 0 -5 58 c-10 110 0 102 -119 102 l-105
0 0 -80z"/>
<path d="M3970 3652 c0 -16 3 -32 7 -35 3 -4 7 -26 7 -50 1 -40 3 -42 31 -42
l30 0 3 78 3 77 -41 0 c-37 0 -40 -2 -40 -28z"/>
<path d="M5300 3605 c-7 -8 -10 -25 -6 -40 7 -26 7 -26 36 -8 33 19 34 30 3
50 -17 12 -22 11 -33 -2z"/>
<path d="M4190 3540 c0 -6 32 -10 75 -10 43 0 75 4 75 10 0 6 -32 10 -75 10
-43 0 -75 -4 -75 -10z"/>
<path d="M4350 3540 c0 -5 16 -10 35 -10 19 0 35 5 35 10 0 6 -16 10 -35 10
-19 0 -35 -4 -35 -10z"/>
<path d="M4440 3540 c0 -5 25 -10 55 -10 30 0 55 5 55 10 0 6 -25 10 -55 10
-30 0 -55 -4 -55 -10z"/>
<path d="M3534 3485 c-18 -18 -34 -25 -50 -22 l-23 4 0 -149 -1 -148 130 0
130 0 0 165 0 165 -57 0 c-32 0 -68 3 -80 6 -16 4 -30 -2 -49 -21z"/>
<path d="M4033 3503 c-18 -7 -16 -23 2 -23 8 0 15 7 15 15 0 8 -1 15 -2 14 -2
0 -9 -3 -15 -6z"/>
<path d="M4065 3500 c-4 -6 43 -10 134 -10 87 0 141 4 141 10 0 6 -51 10 -134
10 -79 0 -137 -4 -141 -10z"/>
<path d="M4352 3493 c3 -19 4 -18 -264 -32 -28 -1 -28 -1 -28 -76 0 -72 1 -75
19 -65 25 13 61 13 61 0 0 -5 -10 -10 -23 -10 -44 0 -58 -20 -55 -80 l3 -55
178 -2 177 -3 0 170 0 170 -35 0 c-29 0 -35 -4 -33 -17z"/>
<path d="M4730 3500 c0 -5 18 -10 40 -10 22 0 40 -4 40 -10 0 -5 -18 -10 -40
-10 l-40 0 0 -70 0 -70 75 0 c50 0 75 4 75 12 0 6 3 9 6 5 3 -3 7 -43 8 -89
l1 -83 32 -3 32 -3 0 170 0 171 -114 0 c-70 0 -115 -4 -115 -10z m199 -280 c0
-34 -3 -40 -9 -25 -5 11 -9 40 -9 65 0 34 3 40 9 25 5 -11 9 -40 9 -65z"/>
<path d="M3755 3490 c28 -12 212 -12 220 0 4 6 -37 10 -117 9 -78 0 -116 -4
-103 -9z"/>
<path d="M4980 3247 c0 -195 3 -248 12 -239 7 7 22 12 35 12 l22 0 3 233 c2
127 3 232 3 233 0 1 -17 4 -37 7 l-38 6 0 -252z"/>
<path d="M3740 3391 l0 -81 101 0 c105 0 182 15 176 34 -2 6 -13 12 -25 14
-25 4 -26 6 -12 33 8 15 7 19 -5 19 -9 0 -15 9 -15 25 0 24 -2 25 -72 25 -40
0 -90 3 -110 6 l-38 7 0 -82z"/>
<path d="M4004 3446 c-15 -12 -17 -17 -6 -27 6 -7 12 -21 12 -31 0 -10 7 -18
16 -18 9 0 14 -6 11 -12 -2 -7 -1 -22 4 -33 5 -13 8 9 8 58 1 82 -6 91 -45 63z
m16 -16 c0 -5 -4 -10 -10 -10 -5 0 -10 5 -10 10 0 6 5 10 10 10 6 0 10 -4 10
-10z"/>
<path d="M4684 3369 c-3 -6 -2 -15 3 -20 5 -5 9 -1 9 11 0 23 -2 24 -12 9z"/>
<path d="M4650 3359 c0 -5 5 -7 10 -4 6 3 10 8 10 11 0 2 -4 4 -10 4 -5 0 -10
-5 -10 -11z"/>
<path d="M4640 3240 l0 -70 35 0 35 0 0 70 0 70 -35 0 -35 0 0 -70z"/>
<path d="M4730 3240 l0 -71 73 3 72 3 3 68 3 67 -76 0 -75 0 0 -70z"/>
<path d="M3740 3236 l0 -66 88 0 c62 0 94 4 108 15 17 13 17 14 2 15 -25 0
-23 20 2 20 21 0 39 45 24 60 -5 4 -57 11 -116 14 l-108 7 0 -65z"/>
<path d="M3989 3278 c-1 -14 -4 -30 -14 -77 -7 -31 -6 -31 34 -31 l41 0 0 60
0 60 -30 0 c-17 0 -30 -5 -31 -12z"/>
<path d="M3773 3152 l-33 -3 0 -60 0 -59 79 0 80 0 -11 31 c-13 38 -2 52 12
15 13 -34 26 -27 34 20 4 19 10 42 13 50 5 13 -7 14 -68 12 -41 -2 -89 -4
-106 -6z"/>
<path d="M5060 3089 c0 -66 1 -71 20 -66 23 6 25 -7 10 -47 -5 -15 -6 -26 0
-26 5 0 10 -10 12 -22 2 -12 9 -23 16 -26 11 -3 15 14 15 73 0 8 -1 53 -2 100
l-1 85 -35 0 -35 0 0 -71z"/>
<path d="M3650 3090 l0 -60 35 0 35 0 0 60 0 60 -35 0 -35 0 0 -60z"/>
<path d="M2530 3096 c0 -25 6 -48 14 -55 9 -8 47 -11 107 -9 l94 3 3 53 3 52
-110 0 -111 0 0 -44z"/>
<path d="M2770 3113 c0 -15 -3 -38 -6 -50 -6 -23 -6 -23 105 -23 l112 0 -3 48
-3 47 -102 3 -103 3 0 -28z"/>
<path d="M5035 2990 c3 -6 -4 -10 -17 -10 l-23 -1 24 -20 c30 -24 43 -21 52
14 6 24 4 27 -17 27 -14 0 -22 -4 -19 -10z"/>
<path d="M4980 2951 c0 -5 7 -12 16 -15 24 -9 27 -7 10 9 -17 17 -26 19 -26 6z"/>
<path d="M5156 2943 c-3 -4 -6 -18 -6 -33 0 -23 7 -30 43 -44 53 -20 54 -20
59 2 4 13 -8 27 -42 49 -27 18 -51 29 -54 26z"/>
<path d="M5150 2815 l0 -45 50 0 c48 0 50 1 50 29 0 24 -6 31 -43 45 -23 9
-46 16 -50 16 -4 0 -7 -20 -7 -45z"/>
<path d="M4310 2725 c0 -123 4 -195 10 -195 6 0 10 7 10 15 0 8 5 15 10 15 6
0 10 -7 10 -15 0 -8 7 -15 15 -15 13 0 15 28 15 189 0 202 0 201 -51 201 -18
0 -19 -9 -19 -195z"/>
<path d="M5713 1223 c-30 -6 -29 -14 5 -46 l27 -26 -3 39 c-2 22 -5 39 -6 39
0 -1 -11 -4 -23 -6z"/>
<path d="M5660 1173 c0 -15 -3 -45 -6 -65 -7 -37 -6 -38 26 -38 18 0 49 -10
69 -22 l36 -21 -22 24 c-13 14 -23 34 -23 45 -1 28 -24 54 -50 54 -17 0 -21 4
-17 20 3 11 1 23 -4 26 -5 3 -9 -7 -9 -23z"/>
<path d="M5760 1099 c0 -35 109 -133 127 -115 9 8 -28 47 -38 40 -5 -3 -9 -2
-9 3 -1 4 -19 28 -40 53 -38 43 -40 44 -40 19z"/>
<path d="M5800 573 c0 -16 28 -111 35 -121 1 -1 9 0 18 3 13 6 13 10 1 33 -8
15 -14 36 -14 48 0 11 -9 29 -20 39 -19 18 -20 17 -20 -2z"/>
<path d="M2552 2578 c-7 -7 -12 -20 -12 -30 0 -14 8 -18 38 -18 20 0 32 4 26
8 -5 4 -17 17 -25 29 -12 17 -18 20 -27 11z"/>
<path d="M4835 1300 c-3 -5 -1 -10 4 -10 6 0 11 5 11 10 0 6 -2 10 -4 10 -3 0
-8 -4 -11 -10z"/>
<path d="M2958 683 c7 -3 16 -2 19 1 4 3 -2 6 -13 5 -11 0 -14 -3 -6 -6z"/>
<path d="M5130 310 c-12 -8 -11 -10 8 -10 12 0 22 5 22 10 0 13 -11 13 -30 0z"/>
<path d="M5650 300 c0 -5 5 -10 11 -10 5 0 7 5 4 10 -3 6 -8 10 -11 10 -2 0
-4 -4 -4 -10z"/>
<path d="M4060 7991 c0 -16 21 -24 33 -12 16 16 30 14 23 -4 -3 -9 0 -15 9
-15 8 0 15 -5 15 -11 0 -7 -10 -9 -26 -5 -24 6 -24 5 17 -55 l42 -63 33 40
c19 21 34 42 34 47 0 4 8 7 18 7 29 0 32 9 15 46 l-17 34 -98 0 c-55 0 -98 -4
-98 -9z"/>
<path d="M4433 7986 c-4 -7 -15 -16 -23 -19 -13 -5 -13 -6 1 -6 9 -1 24 8 34
19 10 11 13 20 7 20 -6 0 -15 -6 -19 -14z"/>
<path d="M4225 7864 c-19 -26 -35 -51 -35 -56 0 -6 9 -23 20 -39 32 -44 133
-590 128 -685 -5 -69 -4 -71 18 -66 28 5 30 28 33 365 1 215 0 237 -15 237
-14 0 -15 2 -3 16 12 15 11 16 -9 10 -19 -7 -22 -4 -22 22 0 17 5 32 11 34 8
3 1 38 -22 106 -39 120 -50 125 -104 56z m150 -584 c-3 -5 -15 -10 -26 -10
-10 0 -19 5 -19 10 0 6 12 10 26 10 14 0 23 -4 19 -10z"/>
<path d="M4350 7670 c0 -5 5 -10 10 -10 6 0 10 5 10 10 0 6 -4 10 -10 10 -5 0
-10 -4 -10 -10z"/>
<path d="M3322 2698 l3 -303 63 -3 62 -3 -1 208 c-1 114 -4 251 -8 303 l-6 95
-58 3 -57 3 2 -303z m35 36 c-3 -3 -12 -4 -19 -1 -8 3 -5 6 6 6 11 1 17 -2 13
-5z m56 -1 c-7 -2 -21 -2 -30 0 -10 3 -4 5 12 5 17 0 24 -2 18 -5z"/>
<path d="M3466 2743 c-4 -4 -6 -86 -6 -183 0 -96 0 -193 -1 -215 l-2 -40 -6
35 -6 35 -60 0 -60 0 -3 -92 -3 -93 215 0 c193 0 221 2 271 21 l55 20 0 77 c0
61 5 84 21 112 30 49 41 91 28 106 -6 8 -26 16 -45 20 -28 5 -34 11 -34 31 0
13 4 21 10 18 6 -3 10 -13 10 -21 0 -8 9 -14 20 -14 11 0 19 3 19 8 -1 4 5 22
12 40 11 27 19 33 36 29 27 -5 27 -4 9 32 -13 23 -19 27 -50 23 -26 -3 -36 -9
-36 -22 0 -10 -7 -24 -16 -31 -15 -12 -16 -11 -10 9 4 12 5 36 1 52 l-7 30
-91 0 c-64 -1 -98 -5 -111 -15 -10 -8 -23 -12 -29 -8 -6 3 -15 -1 -21 -9 -6
-8 -19 -17 -28 -21 -15 -5 -19 1 -24 33 -5 33 -11 40 -29 40 -12 0 -25 -3 -29
-7z m331 -120 c-9 -9 -20 -13 -24 -9 -4 4 -1 11 7 16 25 16 35 11 17 -7z
m-169 -240 c-10 -2 -26 -2 -35 0 -10 3 -2 5 17 5 19 0 27 -2 18 -5z m-18 -63
c0 -6 -28 -10 -65 -10 -37 0 -65 4 -65 10 0 6 28 10 65 10 37 0 65 -4 65 -10z
m125 0 c4 -6 -17 -10 -54 -10 -34 0 -61 4 -61 10 0 6 24 10 54 10 30 0 58 -4
61 -10z m60 -10 c3 -5 -1 -10 -10 -10 -9 0 -13 5 -10 10 3 6 8 10 10 10 2 0 7
-4 10 -10z"/>
<path d="M3554 2743 c-16 -3 -20 -9 -17 -24 7 -25 20 -24 28 1 5 15 11 18 23
11 20 -10 45 -3 36 10 -5 9 -31 10 -70 2z"/>
<path d="M3868 2743 c-29 -5 -33 -10 -20 -31 13 -20 72 -4 72 19 0 11 -6 18
-12 18 -7 -1 -25 -4 -40 -6z"/>
<path d="M3915 2540 c21 -24 26 -25 19 -6 -3 8 -13 17 -22 21 -13 5 -13 2 3
-15z"/>
<path d="M3930 2489 c0 -13 -11 -42 -25 -64 -20 -33 -24 -53 -25 -112 0 -40 1
-73 3 -73 1 0 22 6 47 14 l45 13 -2 74 c-1 41 -2 88 -2 105 0 17 -9 38 -21 49
-20 18 -20 18 -20 -6z"/>
<path d="M3990 1120 c0 -5 9 -10 21 -10 11 0 17 5 14 10 -3 6 -13 10 -21 10
-8 0 -14 -4 -14 -10z"/>
<path d="M3607 773 c-10 -9 -9 -23 2 -23 5 0 11 7 15 15 5 15 -5 20 -17 8z"/>
<path d="M3660 763 c0 -8 10 -17 22 -22 21 -8 21 -8 -5 -15 -15 -3 -27 -11
-27 -16 0 -6 -7 -10 -15 -10 -8 0 -15 9 -15 20 0 11 -4 20 -10 20 -12 0 -13
-89 -2 -107 6 -9 12 -7 25 7 15 18 37 27 37 16 0 -10 -60 -63 -65 -58 -3 3 -5
-45 -5 -106 0 -100 2 -112 18 -113 31 -2 57 3 63 12 3 5 14 0 24 -11 18 -20
18 -20 -43 -20 l-61 0 -4 -32 -4 -33 -1 33 -2 32 -65 0 -64 0 -4 -73 -3 -72
-2 73 -2 72 -94 0 c-89 0 -94 -1 -89 -20 3 -11 0 -20 -6 -20 -6 0 -11 9 -11
20 0 19 -7 20 -137 20 -89 0 -133 -4 -123 -10 8 -5 12 -12 8 -15 -3 -3 -13 1
-21 10 -13 13 -55 15 -286 15 -247 0 -271 -1 -271 -17 0 -9 -16 -48 -35 -87
-30 -62 -35 -82 -37 -158 -2 -47 0 -90 4 -94 5 -4 20 -1 35 7 16 7 32 15 37
18 5 2 6 -4 3 -13 -6 -14 10 -16 158 -16 l165 0 0 58 c0 87 12 192 21 192 5 0
9 -10 9 -22 0 -13 5 -30 10 -38 8 -12 13 -13 30 -2 17 10 20 10 20 -3 0 -8 2
-15 5 -15 9 0 82 43 126 76 50 36 62 55 53 79 -5 11 -2 13 10 9 9 -3 16 -13
16 -21 0 -14 11 -13 58 4 6 3 12 1 12 -5 0 -6 -13 -13 -30 -17 -22 -5 -30 -12
-30 -28 0 -18 -2 -19 -10 -7 -7 11 -14 12 -24 5 -7 -5 -44 -30 -80 -55 -56
-37 -64 -47 -51 -56 8 -6 15 -21 15 -33 0 -19 5 -21 59 -21 l60 0 3 42 c2 23
8 43 13 45 6 2 9 -15 7 -42 l-4 -45 55 0 c48 0 57 -3 62 -21 5 -14 2 -25 -6
-30 -31 -19 -40 -5 -11 17 15 12 9 13 -40 14 l-58 0 0 -40 c0 -29 4 -40 15
-40 8 0 15 5 15 12 0 9 3 9 12 0 9 -9 108 -12 385 -12 327 0 372 2 367 15 -4
8 -1 15 4 15 6 0 13 -8 15 -17 3 -10 5 -1 6 20 l1 37 -142 1 c-79 1 -190 3
-248 5 -58 2 -149 4 -202 4 -61 0 -98 4 -98 10 0 8 107 9 345 4 l344 -7 4 74
3 74 2 -72 2 -73 48 0 c26 0 64 -3 86 -7 l38 -6 -23 35 c-15 23 -29 34 -38 30
-10 -4 -13 -1 -8 12 4 10 3 25 -2 34 -6 12 -5 24 5 36 7 10 11 23 8 27 -3 5 2
9 10 9 15 0 85 67 86 83 0 4 -9 7 -19 7 -39 0 -51 11 -51 46 0 22 6 37 15 40
19 8 11 43 -13 62 -10 7 -11 12 -4 12 9 0 8 9 -4 31 -10 21 -16 61 -17 118 -2
63 -6 91 -17 102 -21 20 -320 22 -320 2z m160 -172 c0 -5 -7 -11 -15 -15 -15
-5 -20 5 -8 17 9 10 23 9 23 -2z m-180 -54 c0 -5 -4 -5 -10 -2 -5 3 -10 14
-10 23 0 15 2 15 10 2 5 -8 10 -19 10 -23z m20 -53 c0 -8 -4 -12 -10 -9 -5 3
-10 13 -10 21 0 8 5 12 10 9 6 -3 10 -13 10 -21z m20 -50 c0 -8 -4 -12 -10 -9
-5 3 -10 13 -10 21 0 8 5 12 10 9 6 -3 10 -13 10 -21z m40 -110 c0 -8 -4 -12
-10 -9 -5 3 -10 13 -10 21 0 8 5 12 10 9 6 -3 10 -13 10 -21z m-469 -17 c18
-14 32 -47 20 -47 -5 0 -14 7 -22 16 -12 14 -14 14 -26 -2 -11 -15 -13 -16
-13 -2 0 21 10 48 19 48 3 0 13 -6 22 -13z m509 -86 c-1 -13 -4 -12 -15 3 -8
11 -15 27 -15 35 1 13 4 12 15 -3 8 -11 15 -27 15 -35z m-460 19 c0 -5 -4 -10
-10 -10 -5 0 -10 5 -10 10 0 6 5 10 10 10 6 0 10 -4 10 -10z m300 -10 c0 -5
-7 -10 -15 -10 -8 0 -15 5 -15 10 0 6 7 10 15 10 8 0 15 -4 15 -10z m-540 -10
c0 -5 -4 -10 -10 -10 -5 0 -10 5 -10 10 0 6 5 10 10 10 6 0 10 -4 10 -10z
m270 -33 c0 -5 -4 -5 -10 -2 -5 3 -10 14 -10 23 0 15 2 15 10 2 5 -8 10 -19
10 -23z m250 3 c0 -16 -7 -20 -30 -20 -23 0 -30 4 -30 20 0 16 7 20 30 20 23
0 30 -4 30 -20z m206 -27 c-4 -4 -11 -1 -16 7 -16 25 -11 35 7 17 9 -9 13 -20
9 -24z m-429 -18 c9 -25 -4 -29 -17 -6 -7 15 -7 21 0 21 6 0 13 -7 17 -15z
m453 -33 c0 -15 -2 -15 -10 -2 -13 20 -13 33 0 25 6 -3 10 -14 10 -23z m-730
-68 c0 -8 -4 -12 -10 -9 -5 3 -10 13 -10 21 0 8 5 12 10 9 6 -3 10 -13 10 -21z
m334 -23 c-6 -6 -24 19 -24 34 1 6 7 1 15 -9 8 -11 12 -22 9 -25z"/>
<path d="M2803 135 c-32 -14 -33 -16 -33 -75 l0 -60 130 0 130 0 0 39 c0 37
-2 39 -37 45 -21 3 -53 6 -70 6 -28 0 -33 4 -33 24 0 37 -33 45 -87 21z"/>
<path d="M4530 64 c0 -9 9 -18 20 -21 11 -3 20 -12 20 -21 0 -13 3 -12 20 3
11 10 20 14 20 9 0 -5 16 -9 36 -10 20 0 40 -7 45 -15 6 -10 9 -1 9 29 l0 42
-85 0 c-71 0 -85 -3 -85 -16z"/>
<path d="M3880 35 l0 -35 117 0 116 0 -19 21 c-29 33 -77 49 -149 49 l-65 0 0
-35z"/>
<path d="M4110 25 c20 -21 32 -25 74 -24 33 1 41 4 21 6 -16 3 -40 13 -53 24
-14 10 -34 19 -45 19 -20 0 -20 -1 3 -25z"/>
<path d="M4608 3 c12 -2 32 -2 45 0 12 2 2 4 -23 4 -25 0 -35 -2 -22 -4z"/>
</g>
</svg>
